<?xml version="1.0" standalone="no"?>
<!DOCTYPE svg PUBLIC "-//W3C//DTD SVG 1.1//EN" "http://www.w3.org/Graphics/SVG/1.1/DTD/svg11.dtd" >
<svg xmlns="http://www.w3.org/2000/svg" xmlns:xlink="http://www.w3.org/1999/xlink" version="1.1">
<metadata>
Created by FontForge 20170731 at Fri May 28 14:24:02 2021
 By Aleksey,,,
Copyright 2021 Huawei Device Co., Ltd. All Rights Reserved.
</metadata>
<defs>
<font id="HarmonyOS_Sans_Condensed_Bold" horiz-adv-x="503" >
  <font-face 
    font-family="HarmonyOS Sans Condensed"
    font-weight="700"
    font-stretch="normal"
    units-per-em="1000"
    panose-1="0 0 8 0 0 0 0 0 0 0"
    ascent="800"
    descent="-200"
    x-height="484"
    cap-height="698"
    bbox="-457 -244 1363 989"
    underline-thickness="50"
    underline-position="-150"
    unicode-range="U+0020-301E"
  />
<missing-glyph horiz-adv-x="500" 
d="M93 850h317v-1000h-317v1000zM333 750v33h-165v-33h65v-37h-66v-33h166v33h-66v37h66zM267 584v70h-100v-104h166v34h-66zM200 620h33v-36h-33v36zM333 490v33h-166v-33h66v-37h-66v-33h100v70h66zM333 363v100h-33v-66h-133v-34h166zM333 228v113h-100v-56h34v23h33v-47
h-100v80h-33v-113h166zM333 55v113h-166v-113h166zM200 135h100v-47h-100v47zM333 -1v33h-166v-33h70l-70 -47v-33h166v33h-102l70 47h32z" />
    <glyph glyph-name="f_b.liga" unicode="fb" horiz-adv-x="849" 
d="M232.5 595q-16.5 -25 -16.5 -81v-30h102v-113h-102v-405h-133v405h-70v113h70v43q0 106 48 159t127 53q40 0 70 -14v-118q-19 13 -44 13q-35 0 -51.5 -25zM765 429q54 -68 54 -204t-53.5 -203.5t-138.5 -67.5q-90 0 -130 79q-5 -40 -5 -67h-115v761h130v-293
q40 63 120 63q84 0 138 -68zM659.5 109.5q23.5 38.5 23.5 115.5t-23.5 115t-64.5 38q-38 0 -63 -35.5t-25 -117.5q0 -81 24.5 -117.5t63.5 -36.5q41 0 64.5 38.5z" />
    <glyph glyph-name="f_f.liga" unicode="ff" horiz-adv-x="633" 
d="M537.5 591q-15.5 -25 -15.5 -82v-25h103v-113h-103v-405h-133v405h-173v-405h-133v405h-70v113h70v43q0 106 49.5 159.5t128.5 53.5q39 0 68 -12t44 -29l-56 -100q-16 19 -43 19q-58 0 -58 -104v-30h173v30q0 114 52 170t133 56q43 0 74.5 -15.5t44.5 -35.5l-63 -97
q-11 13 -21.5 18.5t-25.5 5.5q-30 0 -45.5 -25z" />
    <glyph glyph-name="f_f_b.liga" unicode="ffb" horiz-adv-x="1155" 
d="M389 527q0 106 48 159t127 53q40 0 71 -14v-118q-20 13 -45 13q-35 0 -51.5 -25t-16.5 -81v-30h103v-113h-103v-405h-133v405h-173v-405h-133v405h-70v113h70v43q0 106 49.5 159.5t128.5 53.5q39 0 68 -12t44 -29l-56 -100q-16 19 -43 19q-58 0 -58 -104v-30h173v43z
M1071.5 429q53.5 -68 53.5 -204t-53.5 -203.5t-138.5 -67.5q-89 0 -130 79l-5 -67h-115v761h130v-293q41 63 120 63q85 0 138.5 -68zM965.5 109.5q23.5 38.5 23.5 115.5t-23.5 115t-64.5 38q-38 0 -63 -35.5t-25 -117.5q0 -81 24.5 -117.5t63.5 -36.5q41 0 64.5 38.5z" />
    <glyph glyph-name="f_f_h.liga" unicode="ffh" horiz-adv-x="1144" 
d="M389 527q0 106 48 159t127 53q40 0 71 -14v-118q-20 13 -45 13q-35 0 -51.5 -25t-16.5 -81v-30h103v-113h-103v-405h-133v405h-173v-405h-133v405h-70v113h70v43q0 106 49.5 159.5t128.5 53.5q39 0 68 -12t44 -29l-56 -100q-16 19 -43 19q-58 0 -58 -104v-30h173v43z
M1056.5 445.5q39.5 -51.5 39.5 -156.5v-323h-132v276q0 65 -15.5 95.5t-51.5 30.5q-78 0 -78 -130v-272h-132v761h132v-299q43 69 127 69q71 0 110.5 -51.5z" />
    <glyph glyph-name="f_f_i.liga" unicode="ffi" horiz-adv-x="872" 
d="M389 527q0 106 48 159t127 53q44 0 71 -15v-116q-21 12 -44 12q-36 0 -52.5 -25t-16.5 -81v-30h103v-113h-103v-405h-133v405h-173v-405h-133v405h-70v113h70v43q0 106 49.5 159.5t128.5 53.5q39 0 68 -12t44 -29l-56 -100q-16 19 -43 19q-58 0 -58 -104v-30h173v43z
M698.5 580.5q-22.5 23.5 -22.5 55.5t22.5 55t53.5 23q30 0 53.5 -23t23.5 -55t-23 -55.5t-54 -23.5t-53.5 23.5zM819 484v-518h-132v518h132z" />
    <glyph glyph-name="f_f_k.liga" unicode="ffk" horiz-adv-x="1133" 
d="M389 527q0 106 48 159t127 53q40 0 71 -14v-118q-20 13 -45 13q-35 0 -51.5 -25t-16.5 -81v-30h103v-113h-103v-405h-133v405h-173v-405h-133v405h-70v113h70v43q0 106 49.5 159.5t128.5 53.5q39 0 68 -12t44 -29l-56 -100q-16 19 -43 19q-58 0 -58 -104v-30h173v43z
M1117 484l-151 -204l165 -314h-156l-96 192l-60 -80v-112h-132v761h132v-296q0 -143 -3 -192q23 44 73 119l82 126h146z" />
    <glyph glyph-name="f_f_l.liga" unicode="ffl" horiz-adv-x="873" 
d="M389 527q0 106 48 159t127 53q40 0 71 -14v-118q-20 13 -45 13q-35 0 -51.5 -25t-16.5 -81v-30h103v-113h-103v-405h-133v405h-173v-405h-133v405h-70v113h70v43q0 106 49.5 159.5t128.5 53.5q39 0 68 -12t44 -29l-56 -100q-16 19 -43 19q-58 0 -58 -104v-30h173v43z
M819 -34h-132v761h132v-761z" />
    <glyph glyph-name="f_h.liga" unicode="fh" horiz-adv-x="837" 
d="M232.5 595q-16.5 -25 -16.5 -81v-30h102v-113h-102v-405h-133v405h-70v113h70v43q0 106 48 159t127 53q40 0 70 -14v-118q-19 13 -44 13q-35 0 -51.5 -25zM750 445.5q40 -51.5 40 -156.5v-323h-133v276q0 65 -15 95.5t-52 30.5q-36 0 -56.5 -31t-20.5 -99v-272h-132v761
h132v-299q43 69 127 69q70 0 110 -51.5z" />
    <glyph glyph-name="f_i.liga" unicode="fi" horiz-adv-x="565" 
d="M232.5 595q-16.5 -25 -16.5 -81v-30h102v-113h-102v-405h-133v405h-70v113h70v43q0 106 48 159t126 53q44 0 71 -15v-116q-21 12 -44 12q-35 0 -51.5 -25zM392 580.5q-23 23.5 -23 55.5t23 55t54 23q30 0 53.5 -23t23.5 -55t-23 -55.5t-54 -23.5t-54 23.5zM512 484v-518
h-131v518h131z" />
    <glyph glyph-name="f_k.liga" unicode="fk" horiz-adv-x="827" 
d="M232.5 595q-16.5 -25 -16.5 -81v-30h102v-113h-102v-405h-133v405h-70v113h70v43q0 106 48 159t127 53q40 0 70 -14v-118q-19 13 -44 13q-35 0 -51.5 -25zM660 280l165 -314h-157l-96 192l-59 -80v-112h-132v761h132v-296q0 -143 -3 -192q17 35 73 119l82 126h145z" />
    <glyph glyph-name="f_l.liga" unicode="fl" horiz-adv-x="567" 
d="M232.5 595q-16.5 -25 -16.5 -81v-30h102v-113h-102v-405h-133v405h-70v113h70v43q0 106 48 159t127 53q40 0 70 -14v-118q-19 13 -44 13q-35 0 -51.5 -25zM513 727v-761h-132v761h132z" />
    <glyph glyph-name="r_f.liga" unicode="rf" horiz-adv-x="678" 
d="M582.5 591q-15.5 -25 -15.5 -82v-25h103v-113h-103v-405h-133v405h-69v113h69v30q0 114 52 170t133 56q43 0 74.5 -15.5t44.5 -35.5l-63 -97q-10 12 -21 18t-26 6q-30 0 -45.5 -25zM330 490v-120q-18 9 -42 9q-48 0 -75 -39t-27 -117v-257h-132v518h116l2 -26
q2 -32 4 -45q17 42 47.5 63t68.5 21q23 0 38 -7z" />
    <glyph glyph-name="r_t.liga" unicode="rt" horiz-adv-x="727" 
d="M728 0q-47 -46 -129 -46q-163 0 -163 192v225h-76v114h76v156h132v-156h128v-114h-128v-192q0 -54 13 -76.5t42 -22.5q30 0 55 23zM330 490v-128q-18 9 -42 9q-48 0 -75 -39t-27 -117v-249h-132v518h116l2 -26q2 -32 4 -45q17 42 47.5 63t68.5 21q23 0 38 -7z" />
    <glyph glyph-name="r_v.liga" unicode="rv" horiz-adv-x="839" 
d="M328 490v-128q-18 9 -42 9q-47 0 -73.5 -39t-26.5 -117v-249h-132v518h116l2 -26q2 -30 4 -45q17 42 47 63t67 21q23 0 38 -7zM356 484h147l100 -318l93 318h136l-181 -517h-108z" />
    <glyph glyph-name="r_x.liga" unicode="rx" horiz-adv-x="811" 
d="M328 490v-128q-18 9 -42 9q-47 0 -73.5 -39t-26.5 -117v-249h-132v518h116l2 -26q2 -30 4 -45q17 42 47 63t67 21q23 0 38 -7zM502 484l80 -139l78 139h145l-157 -254l157 -264h-148l-80 141l-77 -141h-145l157 256l-157 262h147z" />
    <glyph glyph-name="r_y.liga" unicode="ry" horiz-adv-x="842" 
d="M328 490v-128q-18 9 -42 9q-47 0 -73.5 -39t-26.5 -117v-249h-132v518h116l2 -26q2 -30 4 -45q17 42 47 63t67 21q23 0 38 -7zM606 154l93 330h137l-181 -554q-32 -96 -71 -135t-105 -39q-74 0 -115 38l50 101q24 -19 56 -19q26 0 42 13.5t28 50.5l5 18l-188 526h149z
" />
    <glyph glyph-name=".notdef" horiz-adv-x="500" 
d="M93 850h317v-1000h-317v1000zM333 750v33h-165v-33h65v-37h-66v-33h166v33h-66v37h66zM267 584v70h-100v-104h166v34h-66zM200 620h33v-36h-33v36zM333 490v33h-166v-33h66v-37h-66v-33h100v70h66zM333 363v100h-33v-66h-133v-34h166zM333 228v113h-100v-56h34v23h33v-47
h-100v80h-33v-113h166zM333 55v113h-166v-113h166zM200 135h100v-47h-100v47zM333 -1v33h-166v-33h70l-70 -47v-33h166v33h-102l70 47h32z" />
    <glyph glyph-name=".null" horiz-adv-x="0" 
 />
    <glyph glyph-name="nonmarkingreturn" horiz-adv-x="333" 
 />
    <glyph glyph-name="space" unicode=" " horiz-adv-x="230" 
 />
    <glyph glyph-name="exclam" unicode="!" horiz-adv-x="226" 
d="M59 201l-20 525h146l-20 -525h-106zM54 -21q-24 25 -24 59q0 35 24 60t58 25t59 -25t25 -60q0 -34 -24.5 -59t-59.5 -25q-34 0 -58 25z" />
    <glyph glyph-name="quotedbl" unicode="&#x22;" horiz-adv-x="408" 
d="M58 469l-7 301h119l-6 -301h-106zM244 469l-7 301h120l-7 -301h-106z" />
    <glyph glyph-name="numbersign" unicode="#" horiz-adv-x="597" 
d="M509 562h77v-122h-99l-33 -177h78v-122h-100l-33 -178h-121l32 178h-100l-32 -178h-122l32 178h-78v122h101l32 177h-78v122h101l33 179h121l-32 -179h100l33 179h121zM265 440l-32 -177h100l32 177h-100z" />
    <glyph glyph-name="dollar" unicode="$" 
d="M443 30q-50 -55 -125 -70v-136h-114v135q-70 13 -120.5 62t-71.5 128l106 63q16 -49 37.5 -79t53.5 -41v189q-55 19 -93 41.5t-63.5 63t-25.5 103.5q0 91 49 146.5t128 70.5v127h114v-128q66 -13 111 -57t59 -109l-104 -61q-25 73 -73 94v-190q56 -21 94 -43.5t63 -62.5
t25 -102q0 -89 -50 -144zM169 455q14 -18 40 -34v156q-26 -8 -40 -28.5t-14 -48.5q0 -27 14 -45zM311 87q54 16 54 75q0 28 -14 46.5t-40 33.5v-155z" />
    <glyph glyph-name="percent" unicode="%" horiz-adv-x="772" 
d="M315 424q-22 -42 -59 -62.5t-81 -20.5q-45 0 -82 20.5t-59.5 62.5t-22.5 102t22.5 102t59.5 62.5t82 20.5q44 0 81 -20.5t59 -62.5t22 -102t-22 -102zM129 -34l376 732h137l-376 -732h-137zM208 581.5q-13 18.5 -34 18.5t-34 -19t-13 -55q0 -35 13 -54t34 -19t34 18.5
t13 54.5q0 37 -13 55.5zM714.5 1.5q-46.5 -47.5 -116.5 -47.5q-45 0 -82 20.5t-59.5 62t-22.5 101.5t22.5 102t60 63t81.5 21q70 0 116.5 -48t46.5 -138q0 -89 -46.5 -136.5zM632 193.5q-13 18.5 -34 18.5t-34 -18.5t-13 -54.5t13 -54.5t34 -18.5t34 18.5t13 54.5t-13 54.5z
" />
    <glyph glyph-name="ampersand" unicode="&#x26;" horiz-adv-x="615" 
d="M643 -34h-160l-52 66q-81 -78 -198 -78q-101 0 -157.5 54t-56.5 153q0 81 36.5 132.5t100.5 92.5q-33 45 -46.5 83t-13.5 78q0 61 25.5 104.5t69 66t96.5 22.5t93 -23t61.5 -63.5t21.5 -91.5q0 -68 -35.5 -112t-99.5 -84l96 -124q24 70 35 158h128q-20 -157 -78 -265z
M232.5 504q8.5 -23 29.5 -55q36 25 54.5 50t18.5 58q0 30 -15 47t-39 17q-25 0 -41 -17t-16 -54q0 -23 8.5 -46zM354 130l-130 168q-33 -25 -51 -56t-18 -72q0 -46 24.5 -69t67.5 -23q60 0 107 52z" />
    <glyph glyph-name="quotesingle" unicode="'" horiz-adv-x="221" 
d="M58 469l-7 301h119l-6 -301h-106z" />
    <glyph glyph-name="parenleft" unicode="(" horiz-adv-x="365" 
d="M95.5 579q43.5 119 120.5 202h137q-77 -100 -117 -209t-40 -254q0 -146 40 -255.5t117 -207.5h-137q-77 83 -120.5 202t-43.5 261t43.5 261z" />
    <glyph glyph-name="parenright" unicode=")" horiz-adv-x="346" 
d="M250.5 57q-43.5 -119 -120.5 -202h-137q77 98 116.5 207.5t39.5 255.5q0 145 -39.5 254.5t-116.5 208.5h137q77 -83 120.5 -202t43.5 -261t-43.5 -261z" />
    <glyph glyph-name="asterisk" unicode="*" horiz-adv-x="450" 
d="M265 566l110 77l52 -90l-123 -57l123 -56l-52 -90l-111 78l13 -134h-104l12 133l-109 -77l-52 90l120 56l-120 57l52 90l109 -77l-12 133h104z" />
    <glyph glyph-name="plus" unicode="+" 
d="M313 554v-165h164v-122h-164v-165h-123v165h-164v122h164v165h123z" />
    <glyph glyph-name="comma" unicode="," horiz-adv-x="236" 
d="M184 91q27 -31 27 -92q0 -56 -24 -103.5t-65.5 -78t-92.5 -39.5v74q42 10 67.5 36t29.5 65h-5q-36 0 -59 24.5t-23 60.5q0 35 22 59.5t57 24.5q39 0 66 -31z" />
    <glyph glyph-name="hyphen" unicode="-" horiz-adv-x="384" 
d="M41 210v116h302v-116h-302z" />
    <glyph glyph-name="period" unicode="." horiz-adv-x="223" 
d="M53 -24q-24 25 -24 60t24 60t58 25t59 -25t25 -60t-24.5 -60t-59.5 -25q-34 0 -58 25z" />
    <glyph glyph-name="slash" unicode="/" horiz-adv-x="385" 
d="M7 -34l240 732h131l-240 -732h-131z" />
    <glyph glyph-name="zero" unicode="0" 
d="M411.5 41q-55.5 -87 -159.5 -87q-103 0 -159 87t-56 291q0 205 56 292.5t159 87.5q104 0 159.5 -87t55.5 -293q0 -204 -55.5 -291zM188.5 181.5q7.5 -54.5 22.5 -77.5t41 -23t41 23t22 77.5t7 150.5q0 97 -7 151.5t-22 78t-41 23.5t-41 -23t-22.5 -78t-7.5 -152
q0 -96 7.5 -150.5z" />
    <glyph glyph-name="one" unicode="1" 
d="M74 412v156l182 131h115v-733h-140v558z" />
    <glyph glyph-name="two" unicode="2" 
d="M227 89h237v-123h-417v96l162 244q52 78 70.5 118t18.5 81q0 39 -15 59.5t-43 20.5q-31 0 -51.5 -27t-32.5 -82l-113 53q19 91 74 136.5t135 45.5q93 0 142.5 -55t49.5 -143q0 -58 -23 -109.5t-90 -154.5z" />
    <glyph glyph-name="three" unicode="3" 
d="M430 283.5q28 -45.5 28 -114.5q0 -100 -57.5 -157.5t-156.5 -57.5q-81 0 -137.5 41.5t-72.5 121.5l111 59q10 -48 35.5 -72t60.5 -24q34 0 52.5 25.5t18.5 69.5q0 111 -116 111h-28v115h34q45 0 68 29t23 74q0 36 -16 58.5t-46 22.5q-62 0 -85 -95l-104 54q19 81 73 124
t134 43q91 0 140.5 -53t49.5 -137q0 -59 -23 -103t-67 -68q53 -21 81 -66.5z" />
    <glyph glyph-name="four" unicode="4" 
d="M413 409v-170h87v-120h-87v-153h-131v153h-265v98l216 481h139l-202 -459h112v170h131z" />
    <glyph glyph-name="five" unicode="5" 
d="M406 376.5q52 -60.5 52 -171.5q0 -81 -29 -137.5t-79 -85t-111 -28.5q-69 0 -121.5 37.5t-71.5 113.5l110 62q11 -45 31.5 -66t47.5 -21q35 0 56 33t21 88q0 53 -20 84t-57 31q-51 0 -77 -60l-101 46l40 396h330v-120h-216l-16 -156q30 15 70 15q89 0 141 -60.5z" />
    <glyph glyph-name="six" unicode="6" 
d="M382.5 400.5q42.5 -27.5 67.5 -80t25 -123.5q0 -78 -29.5 -133t-79.5 -82.5t-111 -27.5q-62 0 -112 28t-79 83.5t-29 136.5q0 44 9 81t24 70.5t47 96.5l127 248h141l-124 -239q-13 -26 -20 -38q21 7 48 7q53 0 95.5 -27.5zM311.5 109.5q20.5 31.5 20.5 85.5t-20.5 85
t-56.5 31q-37 0 -58 -31t-21 -85q0 -55 21 -86t57 -31q37 0 57.5 31.5z" />
    <glyph glyph-name="seven" unicode="7" 
d="M312 575h-269v124h421v-87l-206 -645h-145z" />
    <glyph glyph-name="eight" unicode="8" 
d="M51.5 283.5q26.5 46.5 72.5 73.5q-38 24 -59.5 63.5t-21.5 91.5q0 55 24.5 100.5t72 72t114.5 26.5q99 0 152 -56t53 -143q0 -52 -21 -91.5t-57 -63.5q45 -27 71.5 -73.5t26.5 -109.5q0 -100 -60.5 -160t-164.5 -60q-106 0 -167.5 60t-61.5 160q0 63 26.5 109.5z
M202.5 436.5q19.5 -25.5 51.5 -25.5t51.5 25t19.5 66q0 42 -19.5 67t-51.5 25t-51.5 -25t-19.5 -67q0 -40 19.5 -65.5zM191.5 104.5q23.5 -28.5 61.5 -28.5q37 0 60.5 29t23.5 82q0 54 -23 83.5t-61 29.5t-61.5 -29.5t-23.5 -83.5t23.5 -82.5z" />
    <glyph glyph-name="nine" unicode="9" 
d="M360 684q50 -28 79 -84t29 -137q0 -43 -9 -80t-23.5 -70t-46.5 -98l-128 -248h-141l124 239q13 26 20 38q-21 -7 -48 -7q-53 0 -95.5 27.5t-67.5 80.5t-25 124q0 78 29.5 132.5t79.5 82.5t111 28q62 0 112 -28zM191.5 386q20.5 -31 57.5 -31t57.5 31t20.5 85
q0 55 -21 85.5t-57 30.5q-37 0 -57.5 -31.5t-20.5 -85.5q0 -53 20.5 -84z" />
    <glyph glyph-name="colon" unicode=":" horiz-adv-x="245" 
d="M63.5 352q-24.5 25 -24.5 60t24.5 60t58.5 25q35 0 59.5 -25t24.5 -60t-24.5 -60t-59.5 -25q-34 0 -58.5 25zM63.5 -21q-24.5 25 -24.5 60t24.5 60t58.5 25t59 -25t25 -60t-24.5 -60t-59.5 -25q-34 0 -58.5 25z" />
    <glyph glyph-name="semicolon" unicode=";" horiz-adv-x="256" 
d="M72 352q-24 25 -24 60t24 60t58 25q35 0 59.5 -25t24.5 -60t-24.5 -60t-59.5 -25q-34 0 -58 25zM191 91q27 -31 27 -92q0 -56 -24 -103t-65.5 -78t-92.5 -40v74q42 10 67.5 36t29.5 65h-6q-35 0 -58 24.5t-23 60.5q0 35 22 59.5t57 24.5q39 0 66 -31z" />
    <glyph glyph-name="less" unicode="&#x3c;" horiz-adv-x="504" 
d="M477 591v-132l-292 -131l292 -131v-132l-451 202v122z" />
    <glyph glyph-name="equal" unicode="=" 
d="M477 383h-451v122h451v-122zM477 152h-451v122h451v-122z" />
    <glyph glyph-name="greater" unicode="&#x3e;" 
d="M318 328l-292 131v132l451 -202v-122l-451 -202v132z" />
    <glyph glyph-name="question" unicode="?" horiz-adv-x="416" 
d="M-22 561q27 87 90 132.5t144 45.5q57 0 103.5 -23t73.5 -66t27 -101q0 -59 -23.5 -96.5t-67.5 -80.5q-31 -31 -47.5 -51.5t-27.5 -50.5t-8 -69h-113q-9 37 -9 68q0 51 20 85t59 75q31 32 46 55.5t15 55.5q0 31 -16 48.5t-45 17.5q-35 0 -62.5 -27t-44.5 -84zM135.5 -21
q-23.5 25 -23.5 59q0 35 23.5 60t56.5 25q34 0 58.5 -25t24.5 -60q0 -34 -24.5 -59t-58.5 -25q-33 0 -56.5 25z" />
    <glyph glyph-name="at" unicode="@" horiz-adv-x="806" 
d="M613 689.5q82 -50.5 128.5 -152t46.5 -247.5q0 -123 -41.5 -191.5t-123.5 -68.5q-38 0 -70 18.5t-49 55.5q-38 -73 -115 -73q-46 0 -85 29t-62 85t-23 132t23 132.5t62 86t85 29.5q64 0 104 -56q2 16 4 44h95v-291q0 -45 10 -67.5t29 -22.5q52 0 52 154q0 176 -70 263.5
t-193 87.5q-84 0 -149 -42.5t-101.5 -123.5t-36.5 -192q0 -109 36 -188.5t99.5 -122t146.5 -42.5q90 0 157 54l49 -84q-72 -72 -206 -72q-113 0 -201 54.5t-137.5 157.5t-49.5 243q0 143 51 247t140.5 159t204.5 55q108 0 190 -50.5zM459 183q21 30 21 94q0 65 -21 94.5
t-52 29.5q-32 0 -50.5 -32.5t-18.5 -91.5t19 -91.5t50 -32.5t52 30z" />
    <glyph glyph-name="A" unicode="A" horiz-adv-x="640" 
d="M381 698l246 -732h-149l-51 169h-225l-49 -169h-140l240 732h128zM391 257l-79 259l-75 -259h154z" />
    <glyph glyph-name="B" unicode="B" horiz-adv-x="573" 
d="M538 176q0 -98 -61 -154t-165 -56h-247v732h225q95 0 154.5 -52.5t59.5 -147.5q0 -101 -73 -150q107 -46 107 -172zM201 578v-182h69q43 0 67 24t24 69q0 43 -23.5 66t-67.5 23h-69zM297 86q46 0 71.5 25.5t25.5 72.5t-25.5 72t-72.5 25h-95v-195h96z" />
    <glyph glyph-name="C" unicode="C" horiz-adv-x="561" 
d="M430 185l116 -65q-17 -79 -75 -122.5t-146 -43.5q-83 0 -147.5 41.5t-101 126.5t-36.5 211t36.5 211t101 126t147.5 41q88 0 146 -43t75 -122l-116 -65q-31 102 -110 102q-61 0 -98 -62t-37 -188t37 -188t98 -62q79 0 110 102z" />
    <glyph glyph-name="D" unicode="D" horiz-adv-x="625" 
d="M281 698q90 0 159 -43t107 -125.5t38 -196.5q0 -115 -38 -197.5t-106.5 -126t-159.5 -43.5h-216v732h216zM265 86q173 0 173 247q0 246 -173 246h-62v-493h62z" />
    <glyph glyph-name="E" unicode="E" horiz-adv-x="504" 
d="M433 278h-230v-190h266v-122h-404v732h395v-121h-257v-178h230v-121z" />
    <glyph glyph-name="F" unicode="F" horiz-adv-x="487" 
d="M65 698h395v-123h-257v-193h230v-122h-230v-294h-138v732z" />
    <glyph glyph-name="G" unicode="G" horiz-adv-x="599" 
d="M322 253v121h238v-301q-27 -53 -86.5 -86t-140.5 -33q-135 0 -214 96.5t-79 285.5q0 124 38.5 208.5t105 125.5t149.5 41q90 0 148.5 -44t79.5 -121l-115 -65q-14 51 -44.5 77t-74.5 26q-66 0 -105 -61t-39 -187q0 -131 41.5 -193t114.5 -62q58 0 86 38v134h-103z" />
    <glyph glyph-name="H" unicode="H" horiz-adv-x="650" 
d="M203 407h243v291h138v-732h-138v318h-243v-318h-138v732h138v-291z" />
    <glyph glyph-name="I" unicode="I" horiz-adv-x="269" 
d="M203 -34h-138v732h138v-732z" />
    <glyph glyph-name="J" unicode="J" horiz-adv-x="458" 
d="M7 102l110 62q11 -44 29.5 -63.5t45.5 -19.5q39 0 54.5 36.5t15.5 106.5v474h138v-486q0 -133 -55 -195.5t-151 -62.5q-151 0 -187 148z" />
    <glyph glyph-name="K" unicode="K" horiz-adv-x="627" 
d="M622 -34h-168l-166 318l-85 -112v-206h-138v732h138v-237q0 -78 -4 -111q15 28 77 117l164 231h159l-217 -288z" />
    <glyph glyph-name="L" unicode="L" horiz-adv-x="486" 
d="M65 698h138v-608h256v-124h-394v732z" />
    <glyph glyph-name="M" unicode="M" horiz-adv-x="727" 
d="M558 698h104v-732h-131v441l-133 -244h-70l-133 247v-444h-130v732h107l193 -371z" />
    <glyph glyph-name="N" unicode="N" horiz-adv-x="635" 
d="M178 698l264 -464v464h127v-732h-113l-264 463v-463h-127v732h113z" />
    <glyph glyph-name="O" unicode="O" horiz-adv-x="645" 
d="M116 616.5q76 94.5 207 94.5q130 0 206 -95t76 -283q0 -189 -76 -284t-206 -95q-131 0 -207 94.5t-76 284.5q0 189 76 283.5zM221.5 143q35.5 -62 101.5 -62q135 0 135 252q0 251 -135 251q-137 0 -137 -251q0 -128 35.5 -190z" />
    <glyph glyph-name="P" unicode="P" horiz-adv-x="545" 
d="M278 698q74 0 129.5 -29.5t85 -83t29.5 -125.5q0 -71 -29.5 -125t-84.5 -83.5t-130 -29.5h-75v-256h-138v732h213zM264 342q47 0 79.5 30.5t32.5 87.5q0 58 -31.5 88.5t-80.5 30.5h-61v-237h61z" />
    <glyph glyph-name="Q" unicode="Q" horiz-adv-x="646" 
d="M671 -201h-170l-144 157q-22 -2 -34 -2q-131 0 -207 94.5t-76 284.5q0 189 76 283.5t207 94.5q130 0 206 -95t76 -283q0 -120 -31 -202t-89 -126zM221.5 143q35.5 -62 101.5 -62q135 0 135 252q0 251 -135 251q-66 0 -101.5 -61.5t-35.5 -189.5t35.5 -190z" />
    <glyph glyph-name="R" unicode="R" horiz-adv-x="575" 
d="M575 -34l-159 1l-143 270h-5h-67v-271h-136v732h215q73 0 127 -29t83.5 -81t29.5 -121t-29 -120.5t-83 -79.5zM260 357q48 0 81.5 29t33.5 83q0 53 -33.5 81.5t-81.5 28.5h-59v-222h59z" />
    <glyph glyph-name="S" unicode="S" horiz-adv-x="500" 
d="M446 49.5q-31 -48.5 -82.5 -72t-113.5 -23.5q-90 0 -154 46t-83 132l119 64q34 -118 122 -118q38 0 58.5 20t20.5 57q0 31 -16 53t-40 37t-66 35q-56 26 -91.5 50t-60.5 66t-25 106q0 70 31 117t82 69.5t111 22.5q82 0 137.5 -41t72.5 -114l-119 -64q-11 46 -36.5 70
t-61.5 24q-33 0 -53.5 -19.5t-20.5 -53.5q0 -29 15.5 -49t38.5 -34t65 -34q58 -27 94 -51.5t61.5 -67.5t25.5 -108q0 -71 -31 -119.5z" />
    <glyph glyph-name="T" unicode="T" horiz-adv-x="519" 
d="M13 698h492v-123h-177v-609h-138v609h-177v123z" />
    <glyph glyph-name="U" unicode="U" horiz-adv-x="637" 
d="M440 698h138v-444q0 -152 -67 -226t-192 -74t-192.5 74t-67.5 226v444h138v-413q0 -112 31.5 -158t90.5 -46q58 0 89.5 46t31.5 158v413z" />
    <glyph glyph-name="V" unicode="V" horiz-adv-x="622" 
d="M167 698l152 -533l145 533h145l-228 -732h-133l-235 732h154z" />
    <glyph glyph-name="W" unicode="W" horiz-adv-x="877" 
d="M501 698l119 -500l110 500h134l-189 -732h-115l-121 466l-116 -466h-114l-196 732h143l116 -500l113 500h116z" />
    <glyph glyph-name="X" unicode="X" horiz-adv-x="615" 
d="M593 698l-211 -357l223 -375h-172l-131 243l-135 -243h-157l223 370l-212 362h168l122 -229l123 229h159z" />
    <glyph glyph-name="Y" unicode="Y" horiz-adv-x="576" 
d="M296 400l126 298h146l-207 -444v-288h-137v288l-216 444h159z" />
    <glyph glyph-name="Z" unicode="Z" horiz-adv-x="498" 
d="M465 698v-86l-278 -522h290v-124h-458v87l278 522h-253v123h421z" />
    <glyph glyph-name="bracketleft" unicode="[" horiz-adv-x="359" 
d="M69 781h274v-126h-134v-674h134v-126h-274v926z" />
    <glyph glyph-name="backslash" unicode="\" horiz-adv-x="385" 
d="M7 698h131l240 -732h-131z" />
    <glyph glyph-name="bracketright" unicode="]" horiz-adv-x="359" 
d="M16 655v126h274v-926h-274v126h134v674h-134z" />
    <glyph glyph-name="asciicircum" unicode="^" horiz-adv-x="481" 
d="M241 537l-96 -243h-124l161 404h117l161 -404h-124z" />
    <glyph glyph-name="underscore" unicode="_" horiz-adv-x="381" 
d="M0 -215v116h381v-116h-381z" />
    <glyph glyph-name="grave" unicode="`" horiz-adv-x="322" 
d="M69 714h132l63 -165h-100z" />
    <glyph glyph-name="a" unicode="a" horiz-adv-x="475" 
d="M379 445q49 -52 49 -154v-325h-111q-2 30 -6 63q-37 -75 -123 -75q-65 0 -110 39.5t-45 119.5q0 84 53 129.5t132 45.5q40 0 80 -12q-1 58 -18 82t-50 24q-28 0 -47 -16.5t-32 -45.5l-95 59q23 56 70.5 87t115.5 31q88 0 137 -52zM298 179q-27 10 -54 10
q-36 0 -57.5 -18.5t-21.5 -50.5q0 -29 16 -43.5t40 -14.5q34 0 55.5 25t21.5 73v19z" />
    <glyph glyph-name="b" unicode="b" horiz-adv-x="528" 
d="M444 429q54 -68 54 -204t-53.5 -203.5t-138.5 -67.5q-91 0 -130 80q-1 -10 -4 -45q-1 -6 -1 -12t-1 -11h-116v761h132v-293q40 63 120 63q84 0 138 -68zM338.5 110.5q23.5 38.5 23.5 114.5q0 77 -23.5 115.5t-64.5 38.5q-39 0 -63.5 -36t-24.5 -118q0 -81 25 -117t63 -36
q41 0 64.5 38.5z" />
    <glyph glyph-name="c" unicode="c" horiz-adv-x="421" 
d="M292 87.5q18 15.5 28 48.5l100 -56q-17 -68 -62 -97t-104 -29t-110 28t-82.5 89t-31.5 154t31.5 154t82.5 89.5t110 28.5q60 0 105 -29.5t61 -96.5l-100 -56q-10 33 -28 48.5t-42 15.5q-39 0 -61.5 -39t-22.5 -115q0 -75 22.5 -114t61.5 -39q24 0 42 15.5z" />
    <glyph glyph-name="d" unicode="d" horiz-adv-x="528" 
d="M342 727h132v-761h-117l-2 27q-1 7 -1 16.5t-2 23.5q-39 -79 -130 -79q-85 0 -138.5 67.5t-53.5 203.5q0 137 53.5 204.5t138.5 67.5q80 0 120 -63v293zM317 108q25 36 25 117q0 82 -24.5 118t-63.5 36q-41 0 -64.5 -38.5t-23.5 -115.5q0 -76 23.5 -114.5t64.5 -38.5
q38 0 63 36z" />
    <glyph glyph-name="e" unicode="e" horiz-adv-x="463" 
d="M388 433.5q53 -63.5 53 -176.5q0 -29 -5 -69h-272q10 -119 87 -119q51 0 78 60l96 -58q-19 -60 -66.5 -88.5t-111.5 -28.5q-96 0 -156.5 66.5t-60.5 203.5q0 94 30 155t79.5 89.5t107.5 28.5q88 0 141 -63.5zM193 360.5q-21 -25.5 -28 -74.5h147q-1 51 -18.5 75.5
t-48.5 24.5t-52 -25.5z" />
    <glyph glyph-name="f" unicode="f" horiz-adv-x="327" 
d="M231 591q-15 -25 -15 -82v-25h102v-113h-102v-405h-133v405h-70v113h70v30q0 114 52 170t132 56q43 0 74.5 -15.5t44.5 -35.5l-62 -97q-11 13 -22 18.5t-26 5.5q-30 0 -45 -25z" />
    <glyph glyph-name="g" unicode="g" horiz-adv-x="517" 
d="M472 484v-457q0 -145 -66.5 -208t-164.5 -63q-76 0 -128.5 32t-73.5 94l99 62q26 -68 101 -68q52 0 76 32.5t27 114.5q-41 -61 -120 -61q-85 0 -138.5 67t-53.5 201t53.5 200.5t138.5 66.5q89 0 130 -77q4 40 5 64h115zM317 114q25 35 25 116q0 80 -24.5 116t-63.5 36
q-41 0 -64.5 -38.5t-23.5 -113.5t23.5 -113t64.5 -38q38 0 63 35z" />
    <glyph glyph-name="h" unicode="h" horiz-adv-x="510" 
d="M423.5 445.5q39.5 -51.5 39.5 -156.5v-323h-132v276q0 65 -15.5 95.5t-51.5 30.5q-78 0 -78 -130v-272h-132v761h132v-299q43 69 127 69q71 0 110.5 -51.5z" />
    <glyph glyph-name="i" unicode="i" horiz-adv-x="238" 
d="M65 580.5q-23 23.5 -23 55.5t23 55t54 23q30 0 53.5 -23t23.5 -55t-23 -55.5t-54 -23.5t-54 23.5zM185 -34h-132v518h132v-518z" />
    <glyph glyph-name="j" unicode="j" horiz-adv-x="239" 
d="M66 580.5q-22 23.5 -22 55.5t21.5 55t52.5 23q32 0 55 -23t23 -55t-23 -55.5t-55 -23.5q-30 0 -52 23.5zM-56 -231.5q-30 12.5 -44 32.5l59 101q18 -19 44 -19q30 0 41 23.5t11 79.5v498h132v-511q0 -109 -48 -163t-127 -54q-38 0 -68 12.5z" />
    <glyph glyph-name="k" unicode="k" horiz-adv-x="500" 
d="M498 -34h-157l-96 192l-59 -80v-112h-132v761h132v-296q0 -143 -3 -192q17 35 73 119l82 126h145l-150 -204z" />
    <glyph glyph-name="l" unicode="l" horiz-adv-x="240" 
d="M186 -34h-132v761h132v-761z" />
    <glyph glyph-name="m" unicode="m" horiz-adv-x="727" 
d="M642 446q37 -51 37 -155v-325h-128v273q0 68 -12.5 97t-43.5 29q-32 0 -48.5 -31t-16.5 -100v-268h-129v273q0 68 -12 97t-43 29q-32 0 -49 -31t-17 -100v-268h-126v518h111l2 -26q2 -30 4 -43q21 41 52.5 61.5t70.5 20.5q41 0 71.5 -22.5t47.5 -67.5q41 90 130 90
q62 0 99 -51z" />
    <glyph glyph-name="n" unicode="n" horiz-adv-x="510" 
d="M423.5 445.5q39.5 -51.5 39.5 -156.5v-323h-132v276q0 65 -15.5 95.5t-51.5 30.5q-78 0 -78 -130v-272h-132v519h116l2 -27q2 -32 4 -47q42 86 137 86q71 0 110.5 -51.5z" />
    <glyph glyph-name="o" unicode="o" horiz-adv-x="501" 
d="M60.5 379q30.5 61 80.5 89.5t111 28.5t110 -28t79 -89t30 -155q0 -93 -30 -154t-79 -89t-110 -28t-111 28t-80.5 89t-30.5 154t30.5 154zM190.5 109q23.5 -37 61.5 -37q37 0 59.5 37t22.5 116t-22.5 116.5t-59.5 37.5q-38 0 -61.5 -37.5t-23.5 -116.5t23.5 -116z" />
    <glyph glyph-name="p" unicode="p" horiz-adv-x="528" 
d="M444.5 429q53.5 -68 53.5 -204t-53.5 -203.5t-138.5 -67.5q-80 0 -120 63v-248h-132v715h117q0 -31 5 -66q41 79 130 79q85 0 138.5 -68zM338.5 109.5q23.5 38.5 23.5 115.5t-23.5 115t-64.5 38q-38 0 -63 -35.5t-25 -117.5q0 -81 24.5 -117.5t63.5 -36.5q41 0 64.5 38.5
z" />
    <glyph glyph-name="q" unicode="q" horiz-adv-x="528" 
d="M474 484v-715h-132v248q-40 -63 -120 -63q-85 0 -138.5 67.5t-53.5 203.5q0 137 53.5 204.5t138.5 67.5q88 0 130 -78l3 42l2 23h117zM317 108q25 36 25 117q0 82 -24.5 118t-63.5 36q-41 0 -64.5 -38.5t-23.5 -115.5q0 -76 23.5 -114.5t64.5 -38.5q38 0 63 36z" />
    <glyph glyph-name="r" unicode="r" horiz-adv-x="381" 
d="M346 487q24 -10 36 -26l-51 -106q-19 16 -47 16q-44 0 -71 -39t-27 -121v-245h-132v518h116l2 -22q1 -23 5 -52q18 42 49 64.5t69 22.5q27 0 51 -10z" />
    <glyph glyph-name="s" unicode="s" horiz-adv-x="392" 
d="M328 -3q-50 -43 -131 -43q-70 0 -120 34t-67 98l99 55q25 -72 86 -72q24 0 36 11t12 29q0 22 -18.5 36t-58.5 32q-42 20 -68.5 37t-46 47.5t-19.5 75.5q0 75 50.5 117.5t128.5 42.5q67 0 109 -32.5t52 -85.5l-96 -54q-9 29 -26.5 43t-39.5 14q-21 0 -32.5 -11t-11.5 -28
q0 -22 18.5 -36t58.5 -32q43 -20 69.5 -37t46 -47.5t19.5 -77.5q0 -73 -50 -116z" />
    <glyph glyph-name="t" unicode="t" horiz-adv-x="375" 
d="M375 0q-46 -46 -129 -46q-163 0 -163 192v225h-76v114h76v156h132v-156h129v-114h-129v-192q0 -54 13 -76.5t42 -22.5q30 0 56 23z" />
    <glyph glyph-name="u" unicode="u" horiz-adv-x="510" 
d="M324 485h132v-519h-117q-2 53 -5 74q-42 -86 -137 -86q-71 0 -110.5 51.5t-39.5 156.5v323h132v-276q0 -65 15.5 -95.5t51.5 -30.5q78 0 78 130v272z" />
    <glyph glyph-name="v" unicode="v" horiz-adv-x="490" 
d="M154 484l99 -318l93 318h137l-182 -517h-108l-186 517h147z" />
    <glyph glyph-name="w" unicode="w" horiz-adv-x="700" 
d="M405 484l83 -315l78 315h127l-155 -517h-96l-90 295l-86 -295h-98l-161 517h135l82 -322l79 322h102z" />
    <glyph glyph-name="x" unicode="x" horiz-adv-x="464" 
d="M235 345l77 139h145l-156 -254l156 -264h-147l-80 141l-78 -141h-145l157 256l-157 262h148z" />
    <glyph glyph-name="y" unicode="y" horiz-adv-x="491" 
d="M255 154l93 330h136l-180 -554q-32 -96 -71 -135t-105 -39q-74 0 -115 38l50 101q24 -19 56 -19q26 0 41.5 13.5t27.5 50.5l6 18l-188 526h149z" />
    <glyph glyph-name="z" unicode="z" horiz-adv-x="391" 
d="M362 484v-79l-194 -331h207v-108h-357v80l193 330h-174v108h325z" />
    <glyph glyph-name="braceleft" unicode="{" horiz-adv-x="394" 
d="M275 487q0 -73 -23.5 -114.5t-73.5 -54.5q50 -13 73.5 -54.5t23.5 -114.5v-63q0 -56 17 -80.5t60 -24.5h25v-126h-49q-62 0 -104 15t-66 57.5t-24 123.5v79q0 44 -9.5 68t-32 34.5t-64.5 13.5v144q41 3 63.5 14t32.5 34.5t10 67.5v79q0 72 19.5 114.5t61.5 62t113 19.5
h49v-126h-25q-38 0 -57.5 -21.5t-19.5 -83.5v-63z" />
    <glyph glyph-name="bar" unicode="|" horiz-adv-x="220" 
d="M51 -145v926h118v-926h-118z" />
    <glyph glyph-name="braceright" unicode="}" horiz-adv-x="394" 
d="M119 550q0 62 -19.5 83.5t-57.5 21.5h-25v126h49q71 0 113 -19.5t61.5 -62t19.5 -114.5v-79q0 -44 10 -67.5t32.5 -34.5t63.5 -14v-144q-42 -3 -64.5 -13.5t-32 -34.5t-9.5 -68v-79q0 -81 -24 -123.5t-66 -57.5t-104 -15h-49v126h25q43 0 60 24.5t17 80.5v63
q0 73 23.5 114.5t73.5 54.5q-50 13 -73.5 54.5t-23.5 114.5v63z" />
    <glyph glyph-name="asciitilde" unicode="~" 
d="M15 230q1 90 38.5 149.5t111.5 59.5q41 0 66 -17.5t50 -49.5q17 -21 27.5 -29.5t23.5 -8.5q20 0 30.5 22.5t14.5 67.5h112q-1 -89 -38.5 -149t-110.5 -60q-42 0 -66.5 17.5t-50.5 49.5q-16 20 -27 29t-24 9q-20 0 -30.5 -22.5t-14.5 -67.5h-112z" />
    <glyph glyph-name="uni00A0" unicode="&#xa0;" horiz-adv-x="230" 
 />
    <glyph glyph-name="exclamdown" unicode="&#xa1;" horiz-adv-x="226" 
d="M171 516.5q25 -24.5 25 -58.5q0 -35 -24.5 -60t-59.5 -25q-34 0 -58 25t-24 60q0 33 24.5 58t57.5 25q34 0 59 -24.5zM185 -231h-146l20 525h106z" />
    <glyph glyph-name="cent" unicode="&#xa2;" 
d="M332 199q43 12 62 54l89 -67q-38 -93 -144 -109v-111h-116v115q-81 18 -129 82t-48 169t48 169t129 82v115h116v-111q105 -15 144 -109l-89 -67q-19 40 -62 54v-266zM230 206v252q-61 -28 -61 -126t61 -126z" />
    <glyph glyph-name="sterling" unicode="&#xa3;" 
d="M496 90v-124h-447v104q54 40 78.5 73.5t24.5 80.5q0 17 -3 33h-101v121h62q-17 53 -17 109q0 105 55.5 164.5t151.5 59.5q86 0 135.5 -47.5t59.5 -119.5l-108 -61q-10 51 -30.5 75.5t-54.5 24.5q-72 0 -72 -99q0 -27 4.5 -51t13.5 -55h133v-121h-101q3 -18 3 -36
q0 -81 -43 -131h256z" />
    <glyph glyph-name="currency" unicode="&#xa4;" 
d="M429 210l68 -78l-85 -84l-64 74q-46 -27 -96 -27t-96 27l-65 -75l-85 84l70 80q-27 56 -27 121q0 67 27 121l-69 80l84 84l66 -74q43 26 95 26t96 -26l65 74l84 -84l-68 -80q27 -51 27 -121q0 -65 -27 -122zM310.5 250q21.5 30 21.5 82t-21.5 82t-58.5 30q-36 0 -58 -30
t-22 -82t22 -82t58 -30q37 0 58.5 30z" />
    <glyph glyph-name="yen" unicode="&#xa5;" 
d="M259 472l99 226h142l-152 -317h107v-106h-128v-53h128v-105h-128v-151h-141v151h-128v105h128v53h-128v106h104l-159 317h155z" />
    <glyph glyph-name="brokenbar" unicode="&#xa6;" horiz-adv-x="220" 
d="M51 414v367h118v-367h-118zM51 -145v367h118v-367h-118z" />
    <glyph glyph-name="section" unicode="&#xa7;" horiz-adv-x="545" 
d="M233.5 470q16.5 -18 41.5 -29.5t69 -26.5q58 -20 94.5 -38t62.5 -53.5t26 -91.5q0 -54 -26.5 -94t-71.5 -63q43 -46 43 -119q0 -64 -33 -109t-85.5 -67.5t-111.5 -22.5q-81 0 -144.5 44.5t-79.5 113.5l114 60q12 -45 43 -70t73 -25q36 0 57.5 17.5t21.5 51.5
q0 28 -16.5 47t-42 31t-68.5 28q-58 21 -94 39.5t-62 54.5t-26 94q0 52 26.5 91t71.5 61q-44 44 -44 117q0 65 33.5 110t87 67.5t113.5 22.5q81 0 142.5 -43t78.5 -114l-114 -60q-13 46 -41.5 70t-69.5 24q-37 0 -61 -19.5t-24 -53.5q0 -27 16.5 -45zM179 207
q16 -18 40.5 -29.5t67.5 -26.5l28 -10q28 4 47.5 23t19.5 50q0 28 -16 46.5t-40.5 30t-67.5 26.5l-28 10q-29 -4 -48 -23.5t-19 -50.5q0 -28 16 -46z" />
    <glyph glyph-name="dieresis" unicode="&#xa8;" horiz-adv-x="469" 
d="M81.5 577.5q-21.5 22.5 -21.5 54.5t21.5 54.5t52.5 22.5q32 0 54 -22.5t22 -54.5t-22 -54.5t-54 -22.5q-31 0 -52.5 22.5zM280.5 578q-21.5 23 -21.5 54q0 32 21.5 54.5t52.5 22.5t53.5 -22.5t22.5 -54.5t-22.5 -54.5t-53.5 -22.5t-52.5 23z" />
    <glyph glyph-name="copyright" unicode="&#xa9;" horiz-adv-x="725" 
d="M526.5 667q73.5 -44 116 -129.5t42.5 -205.5t-42.5 -205t-116 -129t-165.5 -44q-91 0 -164 44t-115 129.5t-42 204.5q0 120 42 205.5t115 129.5t164 44q92 0 165.5 -44zM475 80q50 33 79 97.5t29 154.5t-29 154.5t-79 97.5t-114 33t-114 -33t-78 -97.5t-28 -154.5
t28 -154t78 -97.5t114 -33.5t114 33zM329.5 411.5q-16.5 -26.5 -16.5 -79.5t16.5 -79.5t44.5 -26.5q36 0 49 43l77 -48q-11 -48 -46 -72t-82 -24q-43 0 -80 21.5t-60.5 67.5t-23.5 118t23.5 118t60.5 67.5t80 21.5q47 0 82 -24t46 -72l-77 -48q-14 43 -49 43
q-28 0 -44.5 -26.5z" />
    <glyph glyph-name="ordfeminine" unicode="&#xaa;" horiz-adv-x="360" 
d="M284 661q37 -44 37 -124v-235h-91q0 17 -5 39q-26 -48 -86 -48q-50 0 -83 30t-33 90q0 62 37 97t92 35q32 0 63 -12q-1 46 -12.5 66t-35.5 20q-38 0 -55 -50l-75 41q13 45 51.5 70t90.5 25q68 0 105 -44zM215 463q-21 6 -36 6q-23 0 -35 -13.5t-12 -37.5q0 -45 37 -45
q46 0 46 73v17z" />
    <glyph glyph-name="guillemotleft" unicode="&#xab;" horiz-adv-x="542" 
d="M306 0h-139l-155 228l155 227h139l-156 -227zM530 0h-138l-156 228l156 227h138l-155 -227z" />
    <glyph glyph-name="logicalnot" unicode="&#xac;" 
d="M356 302h-330v121h451v-315h-121v194z" />
    <glyph glyph-name="uni00AD" unicode="&#xad;" horiz-adv-x="384" 
d="M41 270v116h302v-116h-302z" />
    <glyph glyph-name="registered" unicode="&#xae;" horiz-adv-x="487" 
d="M430.5 384.5q-29.5 -49.5 -79 -78t-107.5 -28.5q-59 0 -108.5 29t-79 78.5t-29.5 108.5t29.5 109t79 79t108.5 29t108.5 -29.5t78.5 -79.5t29 -110q0 -58 -29.5 -107.5zM354 382q45 46 46 112q0 44 -20.5 80t-56 56.5t-79.5 20.5q-43 0 -78.5 -20.5t-56 -56t-20.5 -78.5
q0 -44 20 -80t55.5 -57.5t79.5 -21.5q62 0 106 41h-61l-54 86h-16v-86h-59v235h97q42 0 64 -20.5t22 -55.5q0 -25 -13 -43t-35 -25zM253 561h-34v-46h34q29 0 29 24q0 22 -29 22z" />
    <glyph glyph-name="macron" unicode="&#xaf;" horiz-adv-x="352" 
d="M48 582v95h256v-95h-256z" />
    <glyph glyph-name="degree" unicode="&#xb0;" horiz-adv-x="350" 
d="M29 743.5q22 38.5 60.5 61t85.5 22.5q48 0 86.5 -22.5t60.5 -61t22 -85.5t-22 -85t-60.5 -60t-86.5 -22q-47 0 -85.5 22t-60.5 60.5t-22 84.5q0 47 22 85.5zM125.5 605q19.5 -21 49.5 -21q31 0 51.5 21t20.5 53q0 33 -20.5 54.5t-51.5 21.5t-50 -21.5t-19 -54.5
q0 -32 19.5 -53z" />
    <glyph glyph-name="plusminus" unicode="&#xb1;" 
d="M190 637h123v-160h164v-122h-164v-161h-123v161h-164v122h164v160zM477 145v-122h-451v122h451z" />
    <glyph glyph-name="uni00B2" unicode="&#xb2;" horiz-adv-x="282" 
d="M135 503h128v-73h-238v55l99 145q23 34 31.5 53.5t8.5 39.5q0 35 -26 35q-31 0 -50 -62l-66 38q12 48 44.5 74.5t78.5 26.5q51 0 78 -30.5t27 -78.5q0 -30 -12 -60.5t-43 -74.5z" />
    <glyph glyph-name="uni00B3" unicode="&#xb3;" horiz-adv-x="276" 
d="M254 542q0 -54 -32.5 -86t-89.5 -32q-46 0 -76 22.5t-40 67.5l66 37q11 -53 49 -53q36 0 36 47q0 27 -14.5 39.5t-46.5 12.5h-16v68h15q24 0 37.5 16.5t13.5 41.5q0 37 -27 37q-17 0 -28 -13.5t-19 -40.5l-63 35q12 46 43 70t75 24q50 0 78.5 -29.5t28.5 -75.5
q0 -30 -12.5 -54t-36.5 -38q59 -23 59 -96z" />
    <glyph glyph-name="acute" unicode="&#xb4;" horiz-adv-x="314" 
d="M60 549l63 165h133l-96 -165h-100z" />
    <glyph glyph-name="uni00B5" unicode="&#xb5;" horiz-adv-x="537" 
d="M530 -27q-29 -19 -77 -19q-87 0 -107 89q-29 -89 -108 -89q-31 0 -54 15v-200h-130v715h130v-271q0 -70 14.5 -107t53.5 -37q36 0 57.5 37.5t21.5 111.5v266h130v-358q0 -31 7.5 -45t24.5 -14q13 0 23 5z" />
    <glyph glyph-name="paragraph" unicode="&#xb6;" horiz-adv-x="562" 
d="M86 656q50 42 141 42h102v-732h-102v398q-91 0 -141 42t-50 124q0 84 50 126zM502 -34h-103v732h103v-732z" />
    <glyph glyph-name="periodcentered" unicode="&#xb7;" horiz-adv-x="263" 
d="M73 267.5q-24 25.5 -24 59.5q0 35 24 60t58 25q35 0 59.5 -25t24.5 -60q0 -34 -24.5 -59.5t-59.5 -25.5q-34 0 -58 25.5z" />
    <glyph glyph-name="cedilla" unicode="&#xb8;" horiz-adv-x="293" 
d="M159 -83q37 -4 62 -23t25 -52q0 -44 -35 -65t-84 -21q-35 0 -77 10v62q35 -10 59 -10q40 0 40 22t-43 22q-9 0 -39 -4l-8 41l40 94h92z" />
    <glyph glyph-name="uni00B9" unicode="&#xb9;" horiz-adv-x="243" 
d="M30 677v90l92 60h66v-397h-85v294z" />
    <glyph glyph-name="ordmasculine" unicode="&#xba;" horiz-adv-x="384" 
d="M72.5 654q48.5 51 120.5 51t119 -51t47 -155q0 -105 -47 -155.5t-119 -50.5q-73 0 -121 50.5t-48 155.5q0 104 48.5 155zM151.5 414.5q15.5 -26.5 41.5 -26.5q25 0 40 26.5t15 84.5q0 57 -15 83.5t-40 26.5q-26 0 -41.5 -26.5t-15.5 -83.5q0 -58 15.5 -84.5z" />
    <glyph glyph-name="guillemotright" unicode="&#xbb;" horiz-adv-x="542" 
d="M306 228l-156 -228h-138l155 228l-155 227h138zM530 228l-155 -228h-139l156 228l-156 227h139z" />
    <glyph glyph-name="onequarter" unicode="&#xbc;" horiz-adv-x="679" 
d="M583 698l-419 -732h-89l418 732h90zM30 547v90l92 60h66v-397h-85v294zM619 205v-87h48v-71h-48v-81h-78v81h-149v58l119 258h84l-114 -245h60v87h78z" />
    <glyph glyph-name="onehalf" unicode="&#xbd;" horiz-adv-x="698" 
d="M583 698l-419 -732h-89l418 732h90zM30 547v90l92 60h66v-397h-85v294zM551 39h127v-73h-238v55l99 145q24 35 32.5 54.5t8.5 38.5q0 34 -27 34q-16 0 -28 -15t-22 -47l-66 39q12 48 44.5 74t79.5 26q50 0 77 -30.5t27 -77.5q0 -30 -12 -60.5t-43 -74.5z" />
    <glyph glyph-name="threequarters" unicode="&#xbe;" horiz-adv-x="711" 
d="M254 412q0 -54 -32.5 -86t-89.5 -32q-46 0 -76 22.5t-40 67.5l66 37q11 -53 49 -53q36 0 36 47q0 27 -14.5 39.5t-46.5 12.5h-16v68h15q24 0 37.5 16.5t13.5 41.5q0 37 -27 37q-17 0 -28 -13.5t-19 -40.5l-63 35q12 46 43 70t75 24q50 0 78.5 -29.5t28.5 -75.5
q0 -30 -12.5 -54t-36.5 -38q59 -23 59 -96zM615 698l-418 -732h-90l418 732h90zM651 205v-87h48v-71h-48v-81h-78v81h-149v58l120 258h83l-113 -245h59v87h78z" />
    <glyph glyph-name="questiondown" unicode="&#xbf;" horiz-adv-x="416" 
d="M280.5 516q23.5 -25 23.5 -59t-24 -59.5t-56 -25.5q-34 0 -58.5 25t-24.5 60q0 34 24.5 59t58.5 25q33 0 56.5 -25zM438 -66q-27 -87 -90 -132.5t-144 -45.5q-57 0 -103.5 23t-73.5 66t-27 101q0 59 23.5 96.5t67.5 80.5q31 31 47.5 51.5t27.5 50.5t8 69h113q9 -37 9 -67
q0 -51 -20 -85t-59 -75q-32 -35 -46.5 -58t-14.5 -54q0 -32 16 -49t45 -17q35 0 62.5 27t44.5 84z" />
    <glyph glyph-name="Agrave" unicode="&#xc0;" horiz-adv-x="640" 
d="M167 915h133l63 -149h-100zM381 698l246 -732h-149l-51 169h-225l-49 -169h-140l240 732h128zM391 257l-79 259l-75 -259h154z" />
    <glyph glyph-name="Aacute" unicode="&#xc1;" horiz-adv-x="640" 
d="M272 766l63 149h133l-96 -149h-100zM381 698l246 -732h-149l-51 169h-225l-49 -169h-140l240 732h128zM391 257l-79 259l-75 -259h154z" />
    <glyph glyph-name="Acircumflex" unicode="&#xc2;" horiz-adv-x="640" 
d="M274 915h88l110 -150h-110l-45 66l-44 -66h-111zM381 698l246 -732h-149l-51 169h-225l-49 -169h-140l240 732h128zM391 257l-79 259l-75 -259h154z" />
    <glyph glyph-name="Atilde" unicode="&#xc3;" horiz-adv-x="640" 
d="M163 778q3 65 28.5 101.5t68.5 36.5q22 0 38 -9.5t38 -27.5q8 -7 15.5 -12.5t13.5 -5.5q21 0 26 50h81q-3 -65 -28.5 -101.5t-68.5 -36.5q-22 0 -39 9.5t-35 25.5q-8 7 -16.5 12.5t-14.5 5.5q-11 0 -17 -12t-9 -36h-81zM381 698l246 -732h-149l-51 169h-225l-49 -169
h-140l240 732h128zM391 257l-79 259l-75 -259h154z" />
    <glyph glyph-name="Adieresis" unicode="&#xc4;" horiz-adv-x="640" 
d="M171.5 790q-21.5 23 -21.5 54q0 32 21.5 54.5t51.5 22.5q32 0 54 -22.5t22 -54.5q0 -31 -22 -54t-54 -23q-30 0 -51.5 23zM356.5 790q-21.5 23 -21.5 54q0 32 21.5 54.5t52.5 22.5t53.5 -22.5t22.5 -54.5q0 -31 -22.5 -54t-53.5 -23t-52.5 23zM381 698l246 -732h-149
l-51 169h-225l-49 -169h-140l240 732h128zM391 257l-79 259l-75 -259h154z" />
    <glyph glyph-name="Aring" unicode="&#xc5;" horiz-adv-x="640" 
d="M231.5 955q34.5 34 85.5 34t84.5 -33.5t33.5 -85.5t-33.5 -85.5t-84.5 -33.5t-85.5 33.5t-34.5 85.5q0 51 34.5 85zM284 835q13 -14 33 -14t32.5 14t12.5 35q0 22 -12.5 35t-32.5 13t-33 -13t-13 -35q0 -21 13 -35zM381 698l246 -732h-149l-51 169h-225l-49 -169h-140
l240 732h128zM391 257l-79 259l-75 -259h154z" />
    <glyph glyph-name="AE" unicode="&#xc6;" horiz-adv-x="858" 
d="M787 278h-230v-190h266v-122h-401v174h-182l-86 -174h-141l370 732h430v-121h-256v-178h230v-121zM422 259v244l-122 -244h122z" />
    <glyph glyph-name="Ccedilla" unicode="&#xc7;" horiz-adv-x="561" 
d="M430 185l116 -65q-16 -72 -65.5 -114.5t-124.5 -49.5l-19 -43q37 -4 62 -22.5t25 -50.5q0 -42 -35 -63t-84 -21q-35 0 -77 10v60q35 -10 59 -10q40 0 40 22q0 21 -45 21q-16 0 -37 -3l-8 39l28 65q-103 21 -164 115t-61 258q0 126 36.5 211t101 126t147.5 41
q88 0 146 -43t75 -122l-116 -65q-31 102 -110 102q-61 0 -98 -62t-37 -188t37 -188t98 -62q79 0 110 102z" />
    <glyph glyph-name="Egrave" unicode="&#xc8;" horiz-adv-x="504" 
d="M117 915h132l64 -149h-100zM433 278h-230v-190h266v-122h-404v732h395v-121h-257v-178h230v-121z" />
    <glyph glyph-name="Eacute" unicode="&#xc9;" horiz-adv-x="504" 
d="M222 766l63 149h132l-95 -149h-100zM433 278h-230v-190h266v-122h-404v732h395v-121h-257v-178h230v-121z" />
    <glyph glyph-name="Ecircumflex" unicode="&#xca;" horiz-adv-x="504" 
d="M223 915h88l111 -150h-111l-44 66l-45 -66h-110zM433 278h-230v-190h266v-122h-404v732h395v-121h-257v-178h230v-121z" />
    <glyph glyph-name="Edieresis" unicode="&#xcb;" horiz-adv-x="504" 
d="M121 790q-22 23 -22 54q0 32 21.5 54.5t52.5 22.5q32 0 54 -22.5t22 -54.5q0 -31 -22 -54t-54 -23q-30 0 -52 23zM306.5 790q-21.5 23 -21.5 54q0 32 21.5 54.5t52.5 22.5t53 -22.5t22 -54.5q0 -31 -22 -54t-53 -23t-52.5 23zM433 278h-230v-190h266v-122h-404v732h395
v-121h-257v-178h230v-121z" />
    <glyph glyph-name="Igrave" unicode="&#xcc;" horiz-adv-x="269" 
d="M-16 915h133l63 -149h-100zM203 -34h-138v732h138v-732z" />
    <glyph glyph-name="Iacute" unicode="&#xcd;" horiz-adv-x="269" 
d="M89 766l63 149h133l-96 -149h-100zM203 -34h-138v732h138v-732z" />
    <glyph glyph-name="Icircumflex" unicode="&#xce;" horiz-adv-x="269" 
d="M91 915h88l110 -150h-110l-45 66l-44 -66h-111zM203 -34h-138v732h138v-732z" />
    <glyph glyph-name="Idieresis" unicode="&#xcf;" horiz-adv-x="269" 
d="M-11.5 790q-21.5 23 -21.5 54q0 32 21.5 54.5t51.5 22.5q32 0 54 -22.5t22 -54.5q0 -31 -22 -54t-54 -23q-30 0 -51.5 23zM173.5 790q-21.5 23 -21.5 54q0 32 21.5 54.5t52.5 22.5t53.5 -22.5t22.5 -54.5q0 -31 -22.5 -54t-53.5 -23t-52.5 23zM203 -34h-138v732h138v-732
z" />
    <glyph glyph-name="Eth" unicode="&#xd0;" horiz-adv-x="635" 
d="M292 698q90 0 158.5 -43t106.5 -125.5t38 -196.5q0 -115 -38 -197.5t-106.5 -126t-158.5 -43.5h-216v318h-67v123h67v291h216zM275 86q174 0 174 247q0 121 -43.5 183.5t-130.5 62.5h-61v-172h94v-123h-94v-198h61z" />
    <glyph glyph-name="Ntilde" unicode="&#xd1;" horiz-adv-x="635" 
d="M159 778q3 65 28.5 101.5t68.5 36.5q22 0 38 -9.5t38 -27.5q8 -7 15.5 -12.5t13.5 -5.5q21 0 26 50h81q-3 -65 -28 -101.5t-68 -36.5q-22 0 -38 9t-38 26q-8 7 -15.5 12.5t-13.5 5.5q-21 0 -26 -48h-82zM178 698l264 -464v464h127v-732h-113l-264 463v-463h-127v732h113z
" />
    <glyph glyph-name="Ograve" unicode="&#xd2;" horiz-adv-x="645" 
d="M173 915h132l63 -149h-100zM116 616.5q76 94.5 207 94.5q130 0 206 -95t76 -283q0 -189 -76 -284t-206 -95q-131 0 -207 94.5t-76 284.5q0 189 76 283.5zM221.5 143q35.5 -62 101.5 -62q135 0 135 252q0 251 -135 251q-137 0 -137 -251q0 -128 35.5 -190z" />
    <glyph glyph-name="Oacute" unicode="&#xd3;" horiz-adv-x="645" 
d="M277 766l64 149h132l-96 -149h-100zM116 616.5q76 94.5 207 94.5q130 0 206 -95t76 -283q0 -189 -76 -284t-206 -95q-131 0 -207 94.5t-76 284.5q0 189 76 283.5zM221.5 143q35.5 -62 101.5 -62q135 0 135 252q0 251 -135 251q-137 0 -137 -251q0 -128 35.5 -190z" />
    <glyph glyph-name="Ocircumflex" unicode="&#xd4;" horiz-adv-x="645" 
d="M279 915h88l110 -150h-110l-44 66l-45 -66h-111zM116 616.5q76 94.5 207 94.5q130 0 206 -95t76 -283q0 -189 -76 -284t-206 -95q-131 0 -207 94.5t-76 284.5q0 189 76 283.5zM221.5 143q35.5 -62 101.5 -62q135 0 135 252q0 251 -135 251q-137 0 -137 -251
q0 -128 35.5 -190z" />
    <glyph glyph-name="Otilde" unicode="&#xd5;" horiz-adv-x="645" 
d="M168 778q3 65 28.5 101.5t68.5 36.5q22 0 38 -9.5t38 -27.5q8 -7 15.5 -12.5t13.5 -5.5q21 0 26 50h81q-3 -65 -28 -101.5t-68 -36.5q-22 0 -38 9t-38 26q-8 7 -15.5 12.5t-13.5 5.5q-21 0 -26 -48h-82zM116 616.5q76 94.5 207 94.5q130 0 206 -95t76 -283
q0 -189 -76 -284t-206 -95q-131 0 -207 94.5t-76 284.5q0 189 76 283.5zM221.5 143q35.5 -62 101.5 -62q135 0 135 252q0 251 -135 251q-137 0 -137 -251q0 -128 35.5 -190z" />
    <glyph glyph-name="Odieresis" unicode="&#xd6;" horiz-adv-x="645" 
d="M177 790q-22 23 -22 54q0 32 21.5 54.5t52.5 22.5q32 0 54 -22.5t22 -54.5q0 -31 -22 -54t-54 -23q-30 0 -52 23zM362 790q-22 23 -22 54q0 32 22 54.5t53 22.5t53 -22.5t22 -54.5q0 -31 -22 -54t-53 -23t-53 23zM116 616.5q76 94.5 207 94.5q130 0 206 -95t76 -283
q0 -189 -76 -284t-206 -95q-131 0 -207 94.5t-76 284.5q0 189 76 283.5zM221.5 143q35.5 -62 101.5 -62q135 0 135 252q0 251 -135 251q-137 0 -137 -251q0 -128 35.5 -190z" />
    <glyph glyph-name="multiply" unicode="&#xd7;" 
d="M252 414l130 131l86 -87l-130 -130l130 -130l-86 -87l-130 131l-130 -131l-87 87l130 130l-130 130l87 87z" />
    <glyph glyph-name="Oslash" unicode="&#xd8;" horiz-adv-x="645" 
d="M485 734h115l-69 -123q74 -99 74 -278q0 -127 -36 -211.5t-99.5 -126t-146.5 -41.5q-78 0 -136 35l-31 -58h-115l70 126q-71 98 -71 276q0 127 36 211.5t99.5 125.5t147.5 41q76 0 131 -33zM194 207l196 355q-27 21 -67 21q-68 0 -105.5 -61t-37.5 -189q0 -73 14 -126z
M449 462l-197 -357q30 -24 71 -24q141 0 141 252q0 78 -15 129z" />
    <glyph glyph-name="Ugrave" unicode="&#xd9;" horiz-adv-x="637" 
d="M168 916h133l63 -150h-100zM440 698h138v-444q0 -152 -67 -226t-192 -74t-192.5 74t-67.5 226v444h138v-413q0 -112 31.5 -158t90.5 -46q58 0 89.5 46t31.5 158v413z" />
    <glyph glyph-name="Uacute" unicode="&#xda;" horiz-adv-x="637" 
d="M273 766l63 150h133l-96 -150h-100zM440 698h138v-444q0 -152 -67 -226t-192 -74t-192.5 74t-67.5 226v444h138v-413q0 -112 31.5 -158t90.5 -46q58 0 89.5 46t31.5 158v413z" />
    <glyph glyph-name="Ucircumflex" unicode="&#xdb;" horiz-adv-x="637" 
d="M275 916h88l110 -151h-110l-44 66l-45 -66h-111zM440 698h138v-444q0 -152 -67 -226t-192 -74t-192.5 74t-67.5 226v444h138v-413q0 -112 31.5 -158t90.5 -46q58 0 89.5 46t31.5 158v413z" />
    <glyph glyph-name="Udieresis" unicode="&#xdc;" horiz-adv-x="637" 
d="M172.5 790.5q-21.5 22.5 -21.5 54.5t21.5 54.5t51.5 22.5q32 0 54 -22.5t22 -54.5t-22 -54.5t-54 -22.5q-30 0 -51.5 22.5zM357.5 791q-21.5 23 -21.5 54q0 32 21.5 54.5t52.5 22.5t53.5 -22.5t22.5 -54.5t-22.5 -54.5t-53.5 -22.5t-52.5 23zM440 698h138v-444
q0 -152 -67 -226t-192 -74t-192.5 74t-67.5 226v444h138v-413q0 -112 31.5 -158t90.5 -46q58 0 89.5 46t31.5 158v413z" />
    <glyph glyph-name="Yacute" unicode="&#xdd;" horiz-adv-x="576" 
d="M249 766l63 149h132l-95 -149h-100zM296 400l126 298h146l-207 -444v-288h-137v288l-216 444h159z" />
    <glyph glyph-name="Thorn" unicode="&#xde;" horiz-adv-x="545" 
d="M278 571q74 0 129.5 -29.5t85 -83t29.5 -125.5q0 -71 -29.5 -125t-84.5 -83.5t-130 -29.5h-75v-129h-138v732h138v-127h75zM264 215q47 0 79.5 30.5t32.5 87.5q0 58 -31.5 88.5t-80.5 30.5h-61v-237h61z" />
    <glyph glyph-name="germandbls" unicode="&#xdf;" horiz-adv-x="542" 
d="M486 294.5q32 -46.5 32 -121.5q0 -102 -57.5 -160.5t-151.5 -58.5q-52 0 -85 14v121q13 -7 31 -12t35 -5q41 0 66 26.5t25 77.5q0 55 -30.5 85t-82.5 30h-33v116h16q46 0 70 30.5t24 85.5q0 98 -74 98q-42 0 -63.5 -37t-21.5 -120v-498h-132v506q0 138 60.5 202.5
t161.5 64.5q94 0 149.5 -55t55.5 -149q0 -60 -21.5 -104.5t-61.5 -70.5q56 -19 88 -65.5z" />
    <glyph glyph-name="agrave" unicode="&#xe0;" horiz-adv-x="475" 
d="M232 714l64 -165h-100l-96 165h132zM379 445q49 -52 49 -154v-325h-111q-2 30 -6 63q-37 -75 -123 -75q-65 0 -110 39.5t-45 119.5q0 84 53 129.5t132 45.5q40 0 80 -12q-1 58 -18 82t-50 24q-28 0 -47 -16.5t-32 -45.5l-95 59q23 56 70.5 87t115.5 31q88 0 137 -52z
M298 179q-27 10 -54 10q-36 0 -57.5 -18.5t-21.5 -50.5q0 -29 16 -43.5t40 -14.5q34 0 55.5 25t21.5 73v19z" />
    <glyph glyph-name="aacute" unicode="&#xe1;" horiz-adv-x="475" 
d="M244 714h132l-95 -165h-100zM379 445q49 -52 49 -154v-325h-111q-2 30 -6 63q-37 -75 -123 -75q-65 0 -110 39.5t-45 119.5q0 84 53 129.5t132 45.5q40 0 80 -12q-1 58 -18 82t-50 24q-28 0 -47 -16.5t-32 -45.5l-95 59q23 56 70.5 87t115.5 31q88 0 137 -52zM298 179
q-27 10 -54 10q-36 0 -57.5 -18.5t-21.5 -50.5q0 -29 16 -43.5t40 -14.5q34 0 55.5 25t21.5 73v19z" />
    <glyph glyph-name="acircumflex" unicode="&#xe2;" horiz-adv-x="475" 
d="M277 549l-45 73l-44 -73h-111l112 165h88l110 -165h-110zM379 445q49 -52 49 -154v-325h-111q-2 30 -6 63q-37 -75 -123 -75q-65 0 -110 39.5t-45 119.5q0 84 53 129.5t132 45.5q40 0 80 -12q-1 58 -18 82t-50 24q-28 0 -47 -16.5t-32 -45.5l-95 59q23 56 70.5 87
t115.5 31q88 0 137 -52zM298 179q-27 10 -54 10q-36 0 -57.5 -18.5t-21.5 -50.5q0 -29 16 -43.5t40 -14.5q34 0 55.5 25t21.5 73v19z" />
    <glyph glyph-name="atilde" unicode="&#xe3;" horiz-adv-x="475" 
d="M166 564h-82q3 65 28.5 101t68.5 36q22 0 38.5 -9.5t35.5 -26.5q8 -7 16 -12.5t14 -5.5q22 0 25 50h82q-3 -65 -28.5 -101.5t-68.5 -36.5q-22 0 -38 9t-35 26q-8 7 -16.5 12.5t-14.5 5.5q-20 0 -25 -48zM379 445q49 -52 49 -154v-325h-111q-2 30 -6 63q-37 -75 -123 -75
q-65 0 -110 39.5t-45 119.5q0 84 53 129.5t132 45.5q40 0 80 -12q-1 58 -18 82t-50 24q-28 0 -47 -16.5t-32 -45.5l-95 59q23 56 70.5 87t115.5 31q88 0 137 -52zM298 179q-27 10 -54 10q-36 0 -57.5 -18.5t-21.5 -50.5q0 -29 16 -43.5t40 -14.5q34 0 55.5 25t21.5 73v19z
" />
    <glyph glyph-name="adieresis" unicode="&#xe4;" horiz-adv-x="475" 
d="M85.5 577.5q-21.5 22.5 -21.5 54.5t21.5 54.5t52.5 22.5q32 0 54 -22.5t22 -54.5t-22 -54.5t-54 -22.5q-31 0 -52.5 22.5zM284.5 578q-21.5 23 -21.5 54q0 32 21.5 54.5t52.5 22.5t53.5 -22.5t22.5 -54.5t-22.5 -54.5t-53.5 -22.5t-52.5 23zM379 445q49 -52 49 -154v-325
h-111q-2 30 -6 63q-37 -75 -123 -75q-65 0 -110 39.5t-45 119.5q0 84 53 129.5t132 45.5q40 0 80 -12q-1 58 -18 82t-50 24q-28 0 -47 -16.5t-32 -45.5l-95 59q23 56 70.5 87t115.5 31q88 0 137 -52zM298 179q-27 10 -54 10q-36 0 -57.5 -18.5t-21.5 -50.5q0 -29 16 -43.5
t40 -14.5q34 0 55.5 25t21.5 73v19z" />
    <glyph glyph-name="aring" unicode="&#xe5;" horiz-adv-x="475" 
d="M151.5 570.5q-34.5 33.5 -34.5 85.5q0 51 35 85t86 34t84.5 -33.5t33.5 -85.5t-33.5 -85.5t-84.5 -33.5q-52 0 -86.5 33.5zM204.5 691q-12.5 -13 -12.5 -35q0 -21 12.5 -35t33.5 -14q20 0 32 14t12 35q0 22 -12 35t-32 13q-21 0 -33.5 -13zM379 445q49 -52 49 -154v-325
h-111q-2 30 -6 63q-37 -75 -123 -75q-65 0 -110 39.5t-45 119.5q0 84 53 129.5t132 45.5q40 0 80 -12q-1 58 -18 82t-50 24q-28 0 -47 -16.5t-32 -45.5l-95 59q23 56 70.5 87t115.5 31q88 0 137 -52zM298 179q-27 10 -54 10q-36 0 -57.5 -18.5t-21.5 -50.5q0 -29 16 -43.5
t40 -14.5q34 0 55.5 25t21.5 73v19z" />
    <glyph glyph-name="ae" unicode="&#xe6;" horiz-adv-x="730" 
d="M656.5 434q51.5 -63 51.5 -175q0 -29 -5 -69h-272q10 -121 90 -121q54 0 75 58l96 -56q-19 -59 -66.5 -88t-106.5 -29q-51 0 -92.5 23t-68.5 71q-44 -94 -154 -94q-71 0 -121 39.5t-50 120.5q0 84 52.5 129.5t131.5 45.5q43 0 82 -13q1 106 -69 106q-54 0 -80 -66l-95 59
q23 58 68.5 90t109.5 32q95 0 139 -75q27 38 65.5 56.5t82.5 18.5q85 0 136.5 -63zM578 288q-1 50 -19.5 74t-48.5 24q-31 0 -51 -24.5t-26 -73.5h145zM299 178q-33 11 -57 11q-35 0 -56 -18.5t-21 -52.5q0 -30 15.5 -44.5t41.5 -14.5q33 0 55 24.5t22 72.5v22z" />
    <glyph glyph-name="ccedilla" unicode="&#xe7;" horiz-adv-x="421" 
d="M292 87.5q18 15.5 28 48.5l100 -56q-14 -58 -50 -87.5t-84 -35.5l-19 -43q37 -5 62 -23.5t25 -50.5q0 -42 -35 -63t-84 -21q-37 0 -77 10v60q35 -10 59 -10q40 0 40 22t-43 22q-9 0 -39 -4l-9 39l29 67q-72 18 -118.5 84t-46.5 179q0 93 31.5 154t82.5 89.5t110 28.5
q60 0 105 -29.5t61 -96.5l-100 -56q-10 33 -28 48.5t-42 15.5q-39 0 -61.5 -39t-22.5 -115q0 -75 22.5 -114t61.5 -39q24 0 42 15.5z" />
    <glyph glyph-name="egrave" unicode="&#xe8;" horiz-adv-x="463" 
d="M107 714h132l63 -165h-100zM388 433.5q53 -63.5 53 -176.5q0 -29 -5 -69h-272q10 -119 87 -119q51 0 78 60l96 -58q-19 -60 -66.5 -88.5t-111.5 -28.5q-96 0 -156.5 66.5t-60.5 203.5q0 94 30 155t79.5 89.5t107.5 28.5q88 0 141 -63.5zM193 360.5q-21 -25.5 -28 -74.5
h147q-1 51 -18.5 75.5t-48.5 24.5t-52 -25.5z" />
    <glyph glyph-name="eacute" unicode="&#xe9;" horiz-adv-x="463" 
d="M187 549l64 165h132l-96 -165h-100zM388 433.5q53 -63.5 53 -176.5q0 -29 -5 -69h-272q10 -119 87 -119q51 0 78 60l96 -58q-19 -60 -66.5 -88.5t-111.5 -28.5q-96 0 -156.5 66.5t-60.5 203.5q0 94 30 155t79.5 89.5t107.5 28.5q88 0 141 -63.5zM193 360.5
q-21 -25.5 -28 -74.5h147q-1 51 -18.5 75.5t-48.5 24.5t-52 -25.5z" />
    <glyph glyph-name="ecircumflex" unicode="&#xea;" horiz-adv-x="463" 
d="M195 714h88l111 -165h-111l-44 73l-45 -73h-110zM388 433.5q53 -63.5 53 -176.5q0 -29 -5 -69h-272q10 -119 87 -119q51 0 78 60l96 -58q-19 -60 -66.5 -88.5t-111.5 -28.5q-96 0 -156.5 66.5t-60.5 203.5q0 94 30 155t79.5 89.5t107.5 28.5q88 0 141 -63.5zM193 360.5
q-21 -25.5 -28 -74.5h147q-1 51 -18.5 75.5t-48.5 24.5t-52 -25.5z" />
    <glyph glyph-name="edieresis" unicode="&#xeb;" horiz-adv-x="463" 
d="M92 577q-22 23 -22 54q0 32 21.5 54.5t52.5 22.5q32 0 54 -22.5t22 -54.5q0 -31 -22 -54t-54 -23q-30 0 -52 23zM291 577q-22 23 -22 54q0 32 22 54.5t53 22.5t53 -22.5t22 -54.5q0 -31 -22 -54t-53 -23t-53 23zM388 433.5q53 -63.5 53 -176.5q0 -29 -5 -69h-272
q10 -119 87 -119q51 0 78 60l96 -58q-19 -60 -66.5 -88.5t-111.5 -28.5q-96 0 -156.5 66.5t-60.5 203.5q0 94 30 155t79.5 89.5t107.5 28.5q88 0 141 -63.5zM193 360.5q-21 -25.5 -28 -74.5h147q-1 51 -18.5 75.5t-48.5 24.5t-52 -25.5z" />
    <glyph glyph-name="igrave" unicode="&#xec;" horiz-adv-x="238" 
d="M-18 714h132l64 -165h-100zM185 -34h-131v518h131v-518z" />
    <glyph glyph-name="iacute" unicode="&#xed;" horiz-adv-x="238" 
d="M63 549l63 165h132l-95 -165h-100zM185 -34h-131v518h131v-518z" />
    <glyph glyph-name="icircumflex" unicode="&#xee;" horiz-adv-x="238" 
d="M70 714h89l110 -165h-110l-45 73l-44 -73h-111zM185 -34h-131v518h131v-518z" />
    <glyph glyph-name="idieresis" unicode="&#xef;" horiz-adv-x="238" 
d="M-32.5 577.5q-21.5 22.5 -21.5 54.5t21.5 54.5t51.5 22.5q32 0 54 -22.5t22 -54.5t-22 -54.5t-54 -22.5q-30 0 -51.5 22.5zM166.5 578q-21.5 23 -21.5 54q0 32 21.5 54.5t52.5 22.5t53.5 -22.5t22.5 -54.5t-22.5 -54.5t-53.5 -22.5t-52.5 23zM185 -34h-131v518h131v-518z
" />
    <glyph glyph-name="eth" unicode="&#xf0;" horiz-adv-x="502" 
d="M339 607q133 -137 133 -366q0 -149 -61.5 -218t-158.5 -69t-159.5 63.5t-62.5 196.5q0 89 30.5 149t80 89t106.5 29q29 0 53 -11q-26 43 -61 76l-116 -73l-47 80l83 52q-32 21 -69 37l56 98q72 -35 118 -68l109 69l50 -81zM312.5 106q21.5 36 21.5 111q0 74 -21.5 110
t-60.5 36t-61.5 -36t-22.5 -110t22.5 -110.5t61.5 -36.5t60.5 36z" />
    <glyph glyph-name="ntilde" unicode="&#xf1;" horiz-adv-x="510" 
d="M108 564q3 65 28.5 101t68.5 36q23 0 39.5 -9.5t35.5 -26.5q8 -7 15.5 -12.5t13.5 -5.5q23 0 26 50h81q-3 -65 -28 -101.5t-68 -36.5q-22 0 -39 9.5t-35 25.5q-8 7 -16.5 12.5t-14.5 5.5q-20 0 -25 -48h-82zM423.5 445.5q39.5 -51.5 39.5 -156.5v-323h-132v276
q0 65 -15.5 95.5t-51.5 30.5q-78 0 -78 -130v-272h-132v519h116l2 -27q2 -32 4 -47q42 86 137 86q71 0 110.5 -51.5z" />
    <glyph glyph-name="ograve" unicode="&#xf2;" horiz-adv-x="501" 
d="M114 714h132l63 -165h-100zM60.5 379q30.5 61 80.5 89.5t111 28.5t110 -28t79 -89t30 -155q0 -93 -30 -154t-79 -89t-110 -28t-111 28t-80.5 89t-30.5 154t30.5 154zM190.5 109q23.5 -37 61.5 -37q37 0 59.5 37t22.5 116t-22.5 116.5t-59.5 37.5q-38 0 -61.5 -37.5
t-23.5 -116.5t23.5 -116z" />
    <glyph glyph-name="oacute" unicode="&#xf3;" horiz-adv-x="501" 
d="M194 549l64 165h132l-95 -165h-101zM60.5 379q30.5 61 80.5 89.5t111 28.5t110 -28t79 -89t30 -155q0 -93 -30 -154t-79 -89t-110 -28t-111 28t-80.5 89t-30.5 154t30.5 154zM190.5 109q23.5 -37 61.5 -37q37 0 59.5 37t22.5 116t-22.5 116.5t-59.5 37.5
q-38 0 -61.5 -37.5t-23.5 -116.5t23.5 -116z" />
    <glyph glyph-name="ocircumflex" unicode="&#xf4;" horiz-adv-x="501" 
d="M202 714h88l111 -165h-111l-44 73l-45 -73h-110zM60.5 379q30.5 61 80.5 89.5t111 28.5t110 -28t79 -89t30 -155q0 -93 -30 -154t-79 -89t-110 -28t-111 28t-80.5 89t-30.5 154t30.5 154zM190.5 109q23.5 -37 61.5 -37q37 0 59.5 37t22.5 116t-22.5 116.5t-59.5 37.5
q-38 0 -61.5 -37.5t-23.5 -116.5t23.5 -116z" />
    <glyph glyph-name="otilde" unicode="&#xf5;" horiz-adv-x="501" 
d="M98 563q3 65 28.5 101.5t68.5 36.5q22 0 37 -9t36 -26q21 -19 31 -19q11 0 17 13.5t8 36.5h81q-3 -65 -28 -101.5t-68 -36.5q-22 0 -38 9t-35 26q-8 7 -16.5 12.5t-14.5 5.5q-21 0 -26 -49h-81zM60.5 379q30.5 61 80.5 89.5t111 28.5t110 -28t79 -89t30 -155
q0 -93 -30 -154t-79 -89t-110 -28t-111 28t-80.5 89t-30.5 154t30.5 154zM190.5 109q23.5 -37 61.5 -37q37 0 59.5 37t22.5 116t-22.5 116.5t-59.5 37.5q-38 0 -61.5 -37.5t-23.5 -116.5t23.5 -116z" />
    <glyph glyph-name="odieresis" unicode="&#xf6;" horiz-adv-x="501" 
d="M99 577q-22 23 -22 54q0 32 21.5 54.5t52.5 22.5q32 0 54 -22.5t22 -54.5q0 -31 -22 -54t-54 -23q-30 0 -52 23zM298.5 577q-21.5 23 -21.5 54q0 32 21.5 54.5t52.5 22.5t53 -22.5t22 -54.5q0 -31 -22 -54t-53 -23t-52.5 23zM60.5 379q30.5 61 80.5 89.5t111 28.5
t110 -28t79 -89t30 -155q0 -93 -30 -154t-79 -89t-110 -28t-111 28t-80.5 89t-30.5 154t30.5 154zM190.5 109q23.5 -37 61.5 -37q37 0 59.5 37t22.5 116t-22.5 116.5t-59.5 37.5q-38 0 -61.5 -37.5t-23.5 -116.5t23.5 -116z" />
    <glyph glyph-name="divide" unicode="&#xf7;" 
d="M193 470q-24 25 -24 60t24 60t58 25q35 0 59.5 -25t24.5 -60t-24.5 -60t-59.5 -25q-34 0 -58 25zM477 267h-451v122h451v-122zM193 66q-24 25 -24 60t24 60t58 25q35 0 59.5 -25t24.5 -60t-24.5 -60t-59.5 -25q-34 0 -58 25z" />
    <glyph glyph-name="oslash" unicode="&#xf8;" horiz-adv-x="500" 
d="M370 519h101l-56 -96q56 -72 56 -198q0 -93 -30 -154t-79.5 -89t-110.5 -28q-54 0 -96 21l-25 -44h-100l56 98q-56 69 -56 196q0 93 30 154t80 89.5t111 28.5q51 0 94 -20zM161 157l126 218q-17 9 -36 9q-42 0 -70.5 -39t-28.5 -120q0 -40 9 -68zM340 292l-126 -216
q20 -10 37 -10q42 0 69 39.5t27 119.5q0 37 -7 67z" />
    <glyph glyph-name="ugrave" unicode="&#xf9;" horiz-adv-x="510" 
d="M114 715h132l63 -165h-100zM324 485h132v-519h-117q-2 53 -5 74q-42 -86 -137 -86q-71 0 -110.5 51.5t-39.5 156.5v323h132v-276q0 -65 15.5 -95.5t51.5 -30.5q78 0 78 130v272z" />
    <glyph glyph-name="uacute" unicode="&#xfa;" horiz-adv-x="510" 
d="M195 550l63 165h132l-95 -165h-100zM324 485h132v-519h-117q-2 53 -5 74q-42 -86 -137 -86q-71 0 -110.5 51.5t-39.5 156.5v323h132v-276q0 -65 15.5 -95.5t51.5 -30.5q78 0 78 130v272z" />
    <glyph glyph-name="ucircumflex" unicode="&#xfb;" horiz-adv-x="510" 
d="M202 715h88l111 -165h-110l-45 73l-45 -73h-110zM324 485h132v-519h-117q-2 53 -5 74q-42 -86 -137 -86q-71 0 -110.5 51.5t-39.5 156.5v323h132v-276q0 -65 15.5 -95.5t51.5 -30.5q78 0 78 130v272z" />
    <glyph glyph-name="udieresis" unicode="&#xfc;" horiz-adv-x="510" 
d="M99.5 578q-21.5 23 -21.5 54q0 32 21.5 54.5t51.5 22.5q32 0 54 -22.5t22 -54.5q0 -31 -22 -54t-54 -23q-30 0 -51.5 23zM298.5 578q-21.5 23 -21.5 54q0 32 21.5 54.5t52.5 22.5t53 -22.5t22 -54.5q0 -31 -22 -54t-53 -23t-52.5 23zM324 485h132v-519h-117q-2 53 -5 74
q-42 -86 -137 -86q-71 0 -110.5 51.5t-39.5 156.5v323h132v-276q0 -65 15.5 -95.5t51.5 -30.5q78 0 78 130v272z" />
    <glyph glyph-name="yacute" unicode="&#xfd;" horiz-adv-x="491" 
d="M195 550l64 165h132l-96 -165h-100zM255 154l93 330h136l-180 -554q-32 -96 -71 -135t-105 -39q-74 0 -115 38l50 101q24 -19 56 -19q26 0 41.5 13.5t27.5 50.5l6 18l-188 526h149z" />
    <glyph glyph-name="thorn" unicode="&#xfe;" horiz-adv-x="526" 
d="M442 429q54 -68 54 -204t-53.5 -203.5t-138.5 -67.5q-80 0 -121 63v-248h-129v958h129v-293q41 63 121 63q84 0 138 -68zM336 109.5q24 38.5 24 115.5t-23.5 115t-64.5 38q-39 0 -64 -35.5t-25 -117.5q0 -81 25 -117.5t64 -36.5q40 0 64 38.5z" />
    <glyph glyph-name="ydieresis" unicode="&#xff;" horiz-adv-x="491" 
d="M100 578q-22 23 -22 54q0 32 21.5 54.5t52.5 22.5q32 0 54 -22.5t22 -54.5q0 -31 -22 -54t-54 -23q-30 0 -52 23zM299.5 578q-21.5 23 -21.5 54q0 32 21.5 54.5t52.5 22.5t53 -22.5t22 -54.5q0 -31 -22 -54t-53 -23t-52.5 23zM255 154l93 330h136l-180 -554
q-32 -96 -71 -135t-105 -39q-74 0 -115 38l50 101q24 -19 56 -19q26 0 41.5 13.5t27.5 50.5l6 18l-188 526h149z" />
    <glyph glyph-name="Amacron" unicode="&#x100;" horiz-adv-x="640" 
d="M190 797v95h255v-95h-255zM381 698l246 -732h-149l-51 169h-225l-49 -169h-140l240 732h128zM391 257l-79 259l-75 -259h154z" />
    <glyph glyph-name="amacron" unicode="&#x101;" horiz-adv-x="475" 
d="M110 677h256v-95h-256v95zM379 445q49 -52 49 -154v-325h-111q-2 30 -6 63q-37 -75 -123 -75q-65 0 -110 39.5t-45 119.5q0 84 53 129.5t132 45.5q40 0 80 -12q-1 58 -18 82t-50 24q-28 0 -47 -16.5t-32 -45.5l-95 59q23 56 70.5 87t115.5 31q88 0 137 -52zM298 179
q-27 10 -54 10q-36 0 -57.5 -18.5t-21.5 -50.5q0 -29 16 -43.5t40 -14.5q34 0 55.5 25t21.5 73v19z" />
    <glyph glyph-name="Abreve" unicode="&#x102;" horiz-adv-x="640" 
d="M208 806q-40 42 -40 109h107q2 -30 12 -48.5t30 -18.5q21 0 31.5 18.5t12.5 48.5h107q0 -67 -40.5 -109t-110.5 -42q-69 0 -109 42zM381 698l246 -732h-149l-51 169h-225l-49 -169h-140l240 732h128zM391 257l-79 259l-75 -259h154z" />
    <glyph glyph-name="abreve" unicode="&#x103;" horiz-adv-x="475" 
d="M128 593q-40 44 -40 121h108q2 -78 42 -78q41 0 43 78h108q0 -77 -40 -121t-111 -44q-70 0 -110 44zM379 445q49 -52 49 -154v-325h-111q-2 30 -6 63q-37 -75 -123 -75q-65 0 -110 39.5t-45 119.5q0 84 53 129.5t132 45.5q40 0 80 -12q-1 58 -18 82t-50 24
q-28 0 -47 -16.5t-32 -45.5l-95 59q23 56 70.5 87t115.5 31q88 0 137 -52zM298 179q-27 10 -54 10q-36 0 -57.5 -18.5t-21.5 -50.5q0 -29 16 -43.5t40 -14.5q34 0 55.5 25t21.5 73v19z" />
    <glyph glyph-name="Aogonek" unicode="&#x104;" horiz-adv-x="640" 
d="M680 -196q-47 -48 -115 -48q-49 0 -83.5 22.5t-34.5 71.5q0 56 60 116h-29l-51 169h-225l-49 -169h-140l240 732h128l246 -732q-81 -56 -81 -103q0 -18 10 -27.5t27 -9.5q13 0 25 5.5t26 19.5zM312 516l-75 -259h154z" />
    <glyph glyph-name="aogonek" unicode="&#x105;" horiz-adv-x="475" 
d="M481 -196q-48 -48 -115 -48q-49 0 -84 22.5t-35 71.5q0 64 70 122q-2 29 -6 57q-37 -75 -123 -75q-65 0 -110 39.5t-45 119.5q0 84 53 129.5t132 45.5q40 0 80 -12q-1 58 -18 82t-50 24q-28 0 -47 -16.5t-32 -45.5l-95 59q23 56 70.5 87t115.5 31q88 0 137 -52t49 -154
v-325q-82 -55 -82 -103q0 -18 10.5 -27.5t27.5 -9.5q13 0 25 5.5t26 19.5zM298 179q-27 10 -54 10q-36 0 -57.5 -18.5t-21.5 -50.5q0 -29 16 -43.5t40 -14.5q34 0 55.5 25t21.5 73v19z" />
    <glyph glyph-name="Cacute" unicode="&#x106;" horiz-adv-x="561" 
d="M264 766l64 150h132l-96 -150h-100zM430 185l116 -65q-17 -79 -75 -122.5t-146 -43.5q-83 0 -147.5 41.5t-101 126.5t-36.5 211t36.5 211t101 126t147.5 41q88 0 146 -43t75 -122l-116 -65q-31 102 -110 102q-61 0 -98 -62t-37 -188t37 -188t98 -62q79 0 110 102z" />
    <glyph glyph-name="cacute" unicode="&#x107;" horiz-adv-x="421" 
d="M187 550l63 165h133l-96 -165h-100zM292 87.5q18 15.5 28 48.5l100 -56q-17 -68 -62 -97t-104 -29t-110 28t-82.5 89t-31.5 154t31.5 154t82.5 89.5t110 28.5q60 0 105 -29.5t61 -96.5l-100 -56q-10 33 -28 48.5t-42 15.5q-39 0 -61.5 -39t-22.5 -115q0 -75 22.5 -114
t61.5 -39q24 0 42 15.5z" />
    <glyph glyph-name="Ccircumflex" unicode="&#x108;" horiz-adv-x="561" 
d="M266 916h88l111 -151h-111l-44 66l-45 -66h-110zM430 185l116 -65q-17 -79 -75 -122.5t-146 -43.5q-83 0 -147.5 41.5t-101 126.5t-36.5 211t36.5 211t101 126t147.5 41q88 0 146 -43t75 -122l-116 -65q-31 102 -110 102q-61 0 -98 -62t-37 -188t37 -188t98 -62
q79 0 110 102z" />
    <glyph glyph-name="ccircumflex" unicode="&#x109;" horiz-adv-x="421" 
d="M195 715h88l110 -165h-110l-44 73l-45 -73h-111zM292 87.5q18 15.5 28 48.5l100 -56q-17 -68 -62 -97t-104 -29t-110 28t-82.5 89t-31.5 154t31.5 154t82.5 89.5t110 28.5q60 0 105 -29.5t61 -96.5l-100 -56q-10 33 -28 48.5t-42 15.5q-39 0 -61.5 -39t-22.5 -115
q0 -75 22.5 -114t61.5 -39q24 0 42 15.5z" />
    <glyph glyph-name="Cdotaccent" unicode="&#x10a;" horiz-adv-x="561" 
d="M257.5 790.5q-21.5 22.5 -21.5 54.5q0 31 21.5 54t51.5 23q32 0 54 -23t22 -54q0 -32 -22 -54.5t-54 -22.5q-30 0 -51.5 22.5zM430 185l116 -65q-17 -79 -75 -122.5t-146 -43.5q-83 0 -147.5 41.5t-101 126.5t-36.5 211t36.5 211t101 126t147.5 41q88 0 146 -43t75 -122
l-116 -65q-31 102 -110 102q-61 0 -98 -62t-37 -188t37 -188t98 -62q79 0 110 102z" />
    <glyph glyph-name="cdotaccent" unicode="&#x10b;" horiz-adv-x="421" 
d="M186 576q-24 25 -24 59q0 35 24 60t58 25t58.5 -25t24.5 -60q0 -34 -24.5 -59t-58.5 -25t-58 25zM292 87.5q18 15.5 28 48.5l100 -56q-17 -68 -62 -97t-104 -29t-110 28t-82.5 89t-31.5 154t31.5 154t82.5 89.5t110 28.5q60 0 105 -29.5t61 -96.5l-100 -56
q-10 33 -28 48.5t-42 15.5q-39 0 -61.5 -39t-22.5 -115q0 -75 22.5 -114t61.5 -39q24 0 42 15.5z" />
    <glyph glyph-name="Ccaron" unicode="&#x10c;" horiz-adv-x="561" 
d="M265 916l44 -66l45 66h110l-110 -151h-89l-111 151h111zM430 185l116 -65q-17 -79 -75 -122.5t-146 -43.5q-83 0 -147.5 41.5t-101 126.5t-36.5 211t36.5 211t101 126t147.5 41q88 0 146 -43t75 -122l-116 -65q-31 102 -110 102q-61 0 -98 -62t-37 -188t37 -188t98 -62
q79 0 110 102z" />
    <glyph glyph-name="ccaron" unicode="&#x10d;" horiz-adv-x="421" 
d="M199 715l45 -73l44 73h110l-110 -165h-88l-112 165h111zM292 87.5q18 15.5 28 48.5l100 -56q-17 -68 -62 -97t-104 -29t-110 28t-82.5 89t-31.5 154t31.5 154t82.5 89.5t110 28.5q60 0 105 -29.5t61 -96.5l-100 -56q-10 33 -28 48.5t-42 15.5q-39 0 -61.5 -39t-22.5 -115
q0 -75 22.5 -114t61.5 -39q24 0 42 15.5z" />
    <glyph glyph-name="Dcaron" unicode="&#x10e;" horiz-adv-x="625" 
d="M235 916l45 -66l44 66h111l-111 -151h-88l-111 151h110zM281 698q90 0 159 -43t107 -125.5t38 -196.5q0 -115 -38 -197.5t-106.5 -126t-159.5 -43.5h-216v732h216zM265 86q173 0 173 247q0 246 -173 246h-62v-493h62z" />
    <glyph glyph-name="dcaron" unicode="&#x10f;" horiz-adv-x="613" 
d="M626 709q19 -22 19 -68q0 -63 -35 -100t-93 -46v57q51 11 61 48h-4q-26 0 -42.5 19t-16.5 48q0 30 17.5 47t44.5 17q30 0 49 -22zM342 727h132v-761h-117l-2 27q-1 7 -1 16.5t-2 23.5q-39 -79 -130 -79q-85 0 -138.5 67.5t-53.5 203.5q0 137 53.5 204.5t138.5 67.5
q80 0 120 -63v293zM317 108q25 36 25 117q0 82 -24.5 118t-63.5 36q-41 0 -64.5 -38.5t-23.5 -115.5q0 -76 23.5 -114.5t64.5 -38.5q38 0 63 36z" />
    <glyph glyph-name="Dcroat" unicode="&#x110;" horiz-adv-x="635" 
d="M292 698q90 0 158.5 -43t106.5 -125.5t38 -196.5q0 -115 -38 -197.5t-106.5 -126t-158.5 -43.5h-216v318h-67v123h67v291h216zM275 86q174 0 174 247q0 121 -43.5 183.5t-130.5 62.5h-61v-172h94v-123h-94v-198h61z" />
    <glyph glyph-name="dcroat" unicode="&#x111;" horiz-adv-x="531" 
d="M474 640h65v-98h-65v-576h-117l-2 27q-1 7 -1 16.5t-2 23.5q-39 -79 -130 -79q-85 0 -138.5 67.5t-53.5 203.5q0 137 53.5 204.5t138.5 67.5q80 0 120 -63v108h-102v98h102v87h132v-87zM317 108q25 36 25 117q0 82 -24.5 118t-63.5 36q-41 0 -64.5 -38.5t-23.5 -115.5
q0 -76 23.5 -114.5t64.5 -38.5q38 0 63 36z" />
    <glyph glyph-name="Emacron" unicode="&#x112;" horiz-adv-x="504" 
d="M139 797v95h256v-95h-256zM433 278h-230v-190h266v-122h-404v732h395v-121h-257v-178h230v-121z" />
    <glyph glyph-name="emacron" unicode="&#x113;" horiz-adv-x="463" 
d="M116 582v95h256v-95h-256zM388 433.5q53 -63.5 53 -176.5q0 -29 -5 -69h-272q10 -119 87 -119q51 0 78 60l96 -58q-19 -60 -66.5 -88.5t-111.5 -28.5q-96 0 -156.5 66.5t-60.5 203.5q0 94 30 155t79.5 89.5t107.5 28.5q88 0 141 -63.5zM193 360.5q-21 -25.5 -28 -74.5
h147q-1 51 -18.5 75.5t-48.5 24.5t-52 -25.5z" />
    <glyph glyph-name="Ebreve" unicode="&#x114;" horiz-adv-x="504" 
d="M157.5 806q-40.5 42 -40.5 109h108q1 -30 11 -48.5t31 -18.5t31.5 18.5t11.5 48.5h108q0 -67 -40.5 -109t-110.5 -42q-69 0 -109.5 42zM433 278h-230v-190h266v-122h-404v732h395v-121h-257v-178h230v-121z" />
    <glyph glyph-name="ebreve" unicode="&#x115;" horiz-adv-x="463" 
d="M134.5 592q-39.5 44 -39.5 121h107q3 -78 42 -78q41 0 44 78h107q0 -77 -40 -121t-111 -44q-70 0 -109.5 44zM388 433.5q53 -63.5 53 -176.5q0 -29 -5 -69h-272q10 -119 87 -119q51 0 78 60l96 -58q-19 -60 -66.5 -88.5t-111.5 -28.5q-96 0 -156.5 66.5t-60.5 203.5
q0 94 30 155t79.5 89.5t107.5 28.5q88 0 141 -63.5zM193 360.5q-21 -25.5 -28 -74.5h147q-1 51 -18.5 75.5t-48.5 24.5t-52 -25.5z" />
    <glyph glyph-name="Edotaccent" unicode="&#x116;" horiz-adv-x="504" 
d="M214.5 790q-21.5 23 -21.5 54q0 32 21.5 54.5t51.5 22.5q32 0 54 -22.5t22 -54.5q0 -31 -22 -54t-54 -23q-30 0 -51.5 23zM433 278h-230v-190h266v-122h-404v732h395v-121h-257v-178h230v-121z" />
    <glyph glyph-name="edotaccent" unicode="&#x117;" horiz-adv-x="463" 
d="M186 575q-24 25 -24 59q0 35 24 60t58 25t59 -25t25 -60q0 -34 -25 -59t-59 -25t-58 25zM388 433.5q53 -63.5 53 -176.5q0 -29 -5 -69h-272q10 -119 87 -119q51 0 78 60l96 -58q-19 -60 -66.5 -88.5t-111.5 -28.5q-96 0 -156.5 66.5t-60.5 203.5q0 94 30 155t79.5 89.5
t107.5 28.5q88 0 141 -63.5zM193 360.5q-21 -25.5 -28 -74.5h147q-1 51 -18.5 75.5t-48.5 24.5t-52 -25.5z" />
    <glyph glyph-name="Eogonek" unicode="&#x118;" horiz-adv-x="504" 
d="M522 -196q-47 -48 -115 -48q-49 0 -83.5 22.5t-34.5 71.5q0 61 62 116h-286v732h395v-121h-257v-178h230v-121h-230v-190h266v-122q-81 -56 -81 -103q0 -18 10 -27.5t27 -9.5q13 0 25 5.5t26 19.5z" />
    <glyph glyph-name="eogonek" unicode="&#x119;" horiz-adv-x="463" 
d="M388 433.5q53 -63.5 53 -176.5q0 -29 -5 -69h-272q10 -119 87 -119q51 0 78 60l96 -58q-16 -51 -55 -80q-49 -37 -70 -66.5t-21 -55.5q0 -21 10.5 -31.5t26.5 -10.5q24 0 52 26l46 -48q-46 -49 -115 -49q-48 0 -83 23.5t-35 74.5q0 52 45 101q-87 7 -141.5 73.5
t-54.5 195.5q0 94 30 155t79.5 89.5t107.5 28.5q88 0 141 -63.5zM312 286q-1 51 -18.5 75.5t-48.5 24.5t-52 -25.5t-28 -74.5h147z" />
    <glyph glyph-name="Ecaron" unicode="&#x11a;" horiz-adv-x="504" 
d="M222 915l44 -65l45 65h110l-110 -150h-89l-111 150h111zM433 278h-230v-190h266v-122h-404v732h395v-121h-257v-178h230v-121z" />
    <glyph glyph-name="ecaron" unicode="&#x11b;" horiz-adv-x="463" 
d="M199 714l45 -73l44 73h111l-111 -165h-88l-111 165h110zM388 433.5q53 -63.5 53 -176.5q0 -29 -5 -69h-272q10 -119 87 -119q51 0 78 60l96 -58q-19 -60 -66.5 -88.5t-111.5 -28.5q-96 0 -156.5 66.5t-60.5 203.5q0 94 30 155t79.5 89.5t107.5 28.5q88 0 141 -63.5z
M193 360.5q-21 -25.5 -28 -74.5h147q-1 51 -18.5 75.5t-48.5 24.5t-52 -25.5z" />
    <glyph glyph-name="Gcircumflex" unicode="&#x11c;" horiz-adv-x="599" 
d="M281 916h89l110 -151h-110l-45 66l-44 -66h-111zM322 253v121h238v-301q-27 -53 -86.5 -86t-140.5 -33q-135 0 -214 96.5t-79 285.5q0 124 38.5 208.5t105 125.5t149.5 41q90 0 148.5 -44t79.5 -121l-115 -65q-14 51 -44.5 77t-74.5 26q-66 0 -105 -61t-39 -187
q0 -131 41.5 -193t114.5 -62q58 0 86 38v134h-103z" />
    <glyph glyph-name="gcircumflex" unicode="&#x11d;" horiz-adv-x="517" 
d="M295 549l-44 73l-45 -73h-110l111 165h88l111 -165h-111zM472 484v-457q0 -145 -66.5 -208t-164.5 -63q-76 0 -128.5 32t-73.5 94l99 62q26 -68 101 -68q52 0 76 32.5t27 114.5q-41 -61 -120 -61q-85 0 -138.5 67t-53.5 201t53.5 200.5t138.5 66.5q89 0 130 -77
q4 40 5 64h115zM317 114q25 35 25 116q0 80 -24.5 116t-63.5 36q-41 0 -64.5 -38.5t-23.5 -113.5t23.5 -113t64.5 -38q38 0 63 35z" />
    <glyph glyph-name="Gbreve" unicode="&#x11e;" horiz-adv-x="599" 
d="M216 807q-40 42 -40 109h107q2 -30 12 -48.5t30 -18.5q21 0 31.5 18.5t12.5 48.5h107q0 -67 -40.5 -109t-110.5 -42q-69 0 -109 42zM322 253v121h238v-301q-27 -53 -86.5 -86t-140.5 -33q-135 0 -214 96.5t-79 285.5q0 124 38.5 208.5t105 125.5t149.5 41q90 0 148.5 -44
t79.5 -121l-115 -65q-14 51 -44.5 77t-74.5 26q-66 0 -105 -61t-39 -187q0 -131 41.5 -193t114.5 -62q58 0 86 38v134h-103z" />
    <glyph glyph-name="gbreve" unicode="&#x11f;" horiz-adv-x="517" 
d="M146.5 593q-39.5 44 -39.5 121h107q2 -78 42 -78q41 0 43 78h108q0 -77 -40 -121t-111 -44q-70 0 -109.5 44zM472 484v-457q0 -145 -66.5 -208t-164.5 -63q-76 0 -128.5 32t-73.5 94l99 62q26 -68 101 -68q52 0 76 32.5t27 114.5q-41 -61 -120 -61q-85 0 -138.5 67
t-53.5 201t53.5 200.5t138.5 66.5q89 0 130 -77q4 40 5 64h115zM317 114q25 35 25 116q0 80 -24.5 116t-63.5 36q-41 0 -64.5 -38.5t-23.5 -113.5t23.5 -113t64.5 -38q38 0 63 35z" />
    <glyph glyph-name="Gdotaccent" unicode="&#x120;" horiz-adv-x="599" 
d="M272.5 790.5q-21.5 22.5 -21.5 54.5q0 31 22 54t52 23q32 0 54 -23t22 -54q0 -32 -22.5 -54.5t-53.5 -22.5t-52.5 22.5zM322 253v121h238v-301q-27 -53 -86.5 -86t-140.5 -33q-135 0 -214 96.5t-79 285.5q0 124 38.5 208.5t105 125.5t149.5 41q90 0 148.5 -44t79.5 -121
l-115 -65q-14 51 -44.5 77t-74.5 26q-66 0 -105 -61t-39 -187q0 -131 41.5 -193t114.5 -62q58 0 86 38v134h-103z" />
    <glyph glyph-name="gdotaccent" unicode="&#x121;" horiz-adv-x="517" 
d="M198.5 575.5q-24.5 25.5 -24.5 59.5q0 35 24 60t58 25t59 -25.5t25 -59.5t-25 -59.5t-59 -25.5q-33 0 -57.5 25.5zM472 484v-457q0 -145 -66.5 -208t-164.5 -63q-76 0 -128.5 32t-73.5 94l99 62q26 -68 101 -68q52 0 76 32.5t27 114.5q-41 -61 -120 -61q-85 0 -138.5 67
t-53.5 201t53.5 200.5t138.5 66.5q89 0 130 -77q4 40 5 64h115zM317 114q25 35 25 116q0 80 -24.5 116t-63.5 36q-41 0 -64.5 -38.5t-23.5 -113.5t23.5 -113t64.5 -38q38 0 63 35z" />
    <glyph glyph-name="uni0122" unicode="&#x122;" horiz-adv-x="599" 
d="M322 253v121h238v-301q-27 -53 -86.5 -86t-140.5 -33q-135 0 -214 96.5t-79 285.5q0 124 38.5 208.5t105 125.5t149.5 41q90 0 148.5 -44t79.5 -121l-115 -65q-14 51 -44.5 77t-74.5 26q-66 0 -105 -61t-39 -187q0 -131 41.5 -193t114.5 -62q58 0 86 38v134h-103z
M387.5 -85.5q23.5 -18.5 23.5 -54.5q0 -47 -40.5 -74t-115.5 -30v46q63 6 74 33h-5q-33 1 -52.5 13.5t-19.5 34.5t20.5 36t52.5 14q39 0 62.5 -18.5z" />
    <glyph glyph-name="uni0123" unicode="&#x123;" horiz-adv-x="517" 
d="M196 578q-25 28 -25 81q0 70 43.5 116t112.5 56v-68q-31 -6 -49.5 -19.5t-25.5 -37.5h3q33 0 54 -22.5t21 -55.5t-20.5 -55.5t-52.5 -22.5q-36 0 -61 28zM472 484v-457q0 -145 -66.5 -208t-164.5 -63q-76 0 -128.5 32t-73.5 94l99 62q26 -68 101 -68q52 0 76 32.5
t27 114.5q-41 -61 -120 -61q-85 0 -138.5 67t-53.5 201t53.5 200.5t138.5 66.5q89 0 130 -77q4 40 5 64h115zM317 114q25 35 25 116q0 80 -24.5 116t-63.5 36q-41 0 -64.5 -38.5t-23.5 -113.5t23.5 -113t64.5 -38q38 0 63 35z" />
    <glyph glyph-name="Hcircumflex" unicode="&#x124;" horiz-adv-x="650" 
d="M281 915h88l110 -150h-110l-44 66l-45 -66h-111zM203 407h243v291h138v-732h-138v318h-243v-318h-138v732h138v-291z" />
    <glyph glyph-name="hcircumflex" unicode="&#x125;" horiz-adv-x="510" 
d="M73 921h91l117 -141h-115l-48 62l-49 -62h-114zM423.5 445.5q39.5 -51.5 39.5 -156.5v-323h-132v276q0 65 -15.5 95.5t-51.5 30.5q-78 0 -78 -130v-272h-132v761h132v-299q43 69 127 69q71 0 110.5 -51.5z" />
    <glyph glyph-name="Hbar" unicode="&#x126;" horiz-adv-x="684" 
d="M601 698v-99h69v-101h-69v-532h-138v318h-242v-318h-139v532h-68v101h68v99h139v-99h242v99h138zM221 498v-91h242v91h-242z" />
    <glyph glyph-name="hbar" unicode="&#x127;" horiz-adv-x="517" 
d="M429.5 445.5q39.5 -51.5 39.5 -156.5v-323h-132v276q0 65 -15.5 95.5t-51.5 30.5q-78 0 -78 -130v-272h-132v576h-64v98h64v87h132v-87h107v-98h-107v-114q43 69 127 69q71 0 110.5 -51.5z" />
    <glyph glyph-name="Itilde" unicode="&#x128;" horiz-adv-x="269" 
d="M-20 778q3 65 28.5 101.5t68.5 36.5q22 0 38 -9.5t38 -27.5q8 -7 15.5 -12.5t13.5 -5.5q21 0 26 50h81q-3 -65 -28.5 -101.5t-68.5 -36.5q-22 0 -39 9.5t-35 25.5q-8 7 -16.5 12.5t-14.5 5.5q-11 0 -17 -12t-9 -36h-81zM203 -34h-138v732h138v-732z" />
    <glyph glyph-name="itilde" unicode="&#x129;" horiz-adv-x="238" 
d="M-34 564q3 65 28.5 101t68.5 36q22 0 37 -9t36 -26q21 -19 31 -19q22 0 25 50h82q-3 -65 -28.5 -101.5t-68.5 -36.5q-22 0 -38 9t-35 26q-8 7 -16.5 12.5t-14.5 5.5q-21 0 -26 -48h-81zM185 -34h-131v518h131v-518z" />
    <glyph glyph-name="Imacron" unicode="&#x12a;" horiz-adv-x="269" 
d="M7 797v95h255v-95h-255zM203 -34h-138v732h138v-732z" />
    <glyph glyph-name="imacron" unicode="&#x12b;" horiz-adv-x="238" 
d="M-8 582v95h256v-95h-256zM185 -34h-131v518h131v-518z" />
    <glyph glyph-name="Ibreve" unicode="&#x12c;" horiz-adv-x="269" 
d="M25 806q-40 42 -40 109h107q2 -30 12 -48.5t30 -18.5q21 0 31.5 18.5t12.5 48.5h107q0 -67 -40.5 -109t-110.5 -42q-69 0 -109 42zM203 -34h-138v732h138v-732z" />
    <glyph glyph-name="ibreve" unicode="&#x12d;" horiz-adv-x="238" 
d="M10 593q-40 44 -40 121h108q2 -78 42 -78q41 0 43 78h107q0 -77 -39.5 -121t-110.5 -44q-70 0 -110 44zM185 -34h-131v518h131v-518z" />
    <glyph glyph-name="Iogonek" unicode="&#x12e;" horiz-adv-x="269" 
d="M256 -196q-47 -48 -115 -48q-49 0 -83.5 22.5t-34.5 71.5q0 59 59 116h-17v732h138v-732h-1q-40 -28 -60.5 -53t-20.5 -50q0 -18 10.5 -27.5t27.5 -9.5q13 0 25 5.5t26 19.5z" />
    <glyph glyph-name="iogonek" unicode="&#x12f;" horiz-adv-x="238" 
d="M62 575.5q-24 25.5 -24 59.5q0 35 24 60t58 25t58.5 -25t24.5 -60q0 -34 -24.5 -59.5t-58.5 -25.5t-58 25.5zM238 -196q-47 -48 -115 -48q-49 0 -83.5 22.5t-34.5 71.5q0 60 59 116h-10v518h131v-517q-82 -57 -82 -104q0 -18 10.5 -27.5t27.5 -9.5q13 0 25 5.5t26 19.5z
" />
    <glyph glyph-name="Idotaccent" unicode="&#x130;" horiz-adv-x="269" 
d="M82 790q-22 23 -22 54q0 32 21.5 54.5t52.5 22.5q32 0 54 -22.5t22 -54.5q0 -31 -22.5 -54t-53.5 -23q-30 0 -52 23zM203 -34h-138v732h138v-732z" />
    <glyph glyph-name="dotlessi" unicode="&#x131;" horiz-adv-x="238" 
d="M185 -34h-131v518h131v-518z" />
    <glyph glyph-name="IJ" unicode="&#x132;" horiz-adv-x="727" 
d="M203 -34h-138v732h138v-732zM275 102l110 62q12 -44 30 -63.5t45 -19.5q40 0 55 36t15 107v474h138v-486q0 -133 -55 -195.5t-150 -62.5q-152 0 -188 148z" />
    <glyph glyph-name="ij" unicode="&#x133;" horiz-adv-x="477" 
d="M65 580.5q-23 23.5 -23 55.5t23 55t54 23q30 0 53.5 -23t23.5 -55t-23 -55.5t-54 -23.5t-54 23.5zM304 580.5q-22 23.5 -22 55.5t22 55t53 23q32 0 55 -23t23 -55t-23.5 -55.5t-54.5 -23.5t-53 23.5zM185 -34h-132v518h132v-518zM183 -231.5q-30 12.5 -44 32.5l58 101
q19 -19 45 -19q30 0 40.5 23.5t10.5 79.5v498h133v-511q0 -109 -48 -163t-127 -54q-38 0 -68 12.5z" />
    <glyph glyph-name="Jcircumflex" unicode="&#x134;" horiz-adv-x="458" 
d="M286 915h88l111 -150h-111l-44 66l-45 -66h-110zM7 102l110 62q11 -44 29.5 -63.5t45.5 -19.5q39 0 54.5 36.5t15.5 106.5v474h138v-486q0 -133 -55 -195.5t-151 -62.5q-151 0 -187 148z" />
    <glyph glyph-name="jcircumflex" unicode="&#x135;" horiz-adv-x="239" 
d="M72 714h88l110 -165h-110l-44 73l-45 -73h-111zM-56 -231.5q-30 12.5 -44 32.5l59 101q18 -19 44 -19q30 0 41 23.5t11 79.5v498h132v-511q0 -109 -48 -163t-127 -54q-38 0 -68 12.5z" />
    <glyph glyph-name="uni0136" unicode="&#x136;" horiz-adv-x="627" 
d="M622 -34h-168l-166 318l-85 -112v-206h-138v732h138v-237q0 -78 -4 -111q15 28 77 117l164 231h159l-217 -288zM384.5 -85.5q23.5 -18.5 23.5 -54.5q0 -47 -40.5 -74t-115.5 -30v46q63 6 74 33h-5q-33 1 -52.5 13.5t-19.5 34.5t20.5 36t52.5 14q39 0 62.5 -18.5z" />
    <glyph glyph-name="uni0137" unicode="&#x137;" horiz-adv-x="500" 
d="M498 -34h-157l-96 192l-59 -80v-112h-132v761h132v-296q0 -143 -3 -192q17 35 73 119l82 126h145l-150 -204zM322.5 -85.5q23.5 -18.5 23.5 -54.5q0 -47 -40.5 -74t-115.5 -30v46q63 6 74 33h-5q-33 1 -52.5 13.5t-19.5 34.5t20.5 36t52.5 14q39 0 62.5 -18.5z" />
    <glyph glyph-name="kgreenlandic" unicode="&#x138;" horiz-adv-x="500" 
d="M498 -34h-157l-96 192l-59 -80v-112h-132v518h132v-64q0 -132 -3 -181q17 35 73 119l82 126h145l-150 -204z" />
    <glyph glyph-name="Lacute" unicode="&#x139;" horiz-adv-x="486" 
d="M89 766l63 149h133l-96 -149h-100zM65 698h138v-608h256v-124h-394v732z" />
    <glyph glyph-name="lacute" unicode="&#x13a;" horiz-adv-x="240" 
d="M74 795l64 149h132l-96 -149h-100zM186 -34h-132v761h132v-761z" />
    <glyph glyph-name="uni013B" unicode="&#x13b;" horiz-adv-x="486" 
d="M65 698h138v-608h256v-124h-394v732zM315.5 -85.5q23.5 -18.5 23.5 -54.5q0 -47 -40.5 -74t-115.5 -30v46q63 6 74 33h-5q-33 1 -52.5 13.5t-19.5 34.5t20.5 36t52.5 14q39 0 62.5 -18.5z" />
    <glyph glyph-name="uni013C" unicode="&#x13c;" horiz-adv-x="240" 
d="M186 -34h-132v761h132v-761zM178.5 -85.5q23.5 -18.5 23.5 -54.5q0 -47 -40.5 -74t-115.5 -30v46q63 6 74 33h-5q-33 1 -52.5 13.5t-19.5 34.5t20.5 36t52.5 14q39 0 62.5 -18.5z" />
    <glyph glyph-name="Lcaron" unicode="&#x13d;" horiz-adv-x="496" 
d="M304 577q-21 23 -21 56t20.5 55.5t52.5 22.5q36 0 60.5 -28t24.5 -81q0 -70 -43 -116t-112 -55v68q31 6 49.5 18.5t24.5 36.5h-2q-33 0 -54 23zM203 698v-608h256v-124h-394v732h138z" />
    <glyph glyph-name="lcaron" unicode="&#x13e;" horiz-adv-x="324" 
d="M337 709q19 -22 19 -68q0 -63 -35 -100t-93 -46v57q51 11 61 48h-4q-26 0 -42.5 19t-16.5 48q0 30 17.5 47t44.5 17q30 0 49 -22zM186 -34h-132v761h132v-761z" />
    <glyph glyph-name="Ldot" unicode="&#x13f;" horiz-adv-x="496" 
d="M65 698h138v-608h256v-124h-394v732zM292 308q-24 25 -24 60t24 60t58 25q35 0 59.5 -25t24.5 -60t-24.5 -60t-59.5 -25q-34 0 -58 25z" />
    <glyph glyph-name="ldot" unicode="&#x140;" horiz-adv-x="320" 
d="M186 -34h-132v761h132v-761zM230 294q-21 21 -21 55q0 35 21 55.5t51 20.5q32 0 53 -20.5t21 -55.5q0 -34 -21 -55t-53 -21q-30 0 -51 21z" />
    <glyph glyph-name="Lslash" unicode="&#x141;" horiz-adv-x="501" 
d="M352 367l-134 -70v-207h256v-124h-394v259l-76 -39v140l76 39v333h138v-261l134 70v-140z" />
    <glyph glyph-name="lslash" unicode="&#x142;" horiz-adv-x="272" 
d="M202 727v-266l68 43v-140l-68 -43v-355h-132v271l-67 -43v140l67 43v350h132z" />
    <glyph glyph-name="Nacute" unicode="&#x143;" horiz-adv-x="635" 
d="M268 766l63 149h133l-96 -149h-100zM178 698l264 -464v464h127v-732h-113l-264 463v-463h-127v732h113z" />
    <glyph glyph-name="nacute" unicode="&#x144;" horiz-adv-x="510" 
d="M205 549l64 165h132l-96 -165h-100zM423.5 445.5q39.5 -51.5 39.5 -156.5v-323h-132v276q0 65 -15.5 95.5t-51.5 30.5q-78 0 -78 -130v-272h-132v519h116l2 -27q2 -32 4 -47q42 86 137 86q71 0 110.5 -51.5z" />
    <glyph glyph-name="uni0145" unicode="&#x145;" horiz-adv-x="635" 
d="M178 698l264 -464v464h127v-732h-113l-264 463v-463h-127v732h113zM372 -85.5q24 -18.5 24 -54.5q0 -47 -40.5 -74t-115.5 -30v46q63 6 74 33h-5q-33 1 -52.5 13.5t-19.5 34.5t20.5 36t52.5 14q38 0 62 -18.5z" />
    <glyph glyph-name="uni0146" unicode="&#x146;" horiz-adv-x="510" 
d="M423.5 445.5q39.5 -51.5 39.5 -156.5v-323h-132v276q0 65 -15.5 95.5t-51.5 30.5q-78 0 -78 -130v-272h-132v519h116l2 -27q2 -32 4 -47q42 86 137 86q71 0 110.5 -51.5zM316.5 -85.5q23.5 -18.5 23.5 -54.5q0 -47 -40.5 -74t-115.5 -30v46q62 6 75 33h-6
q-33 1 -52.5 13.5t-19.5 34.5t20.5 36t52.5 14q39 0 62.5 -18.5z" />
    <glyph glyph-name="Ncaron" unicode="&#x147;" horiz-adv-x="635" 
d="M268 915l45 -65l44 65h111l-111 -150h-88l-111 150h110zM178 698l264 -464v464h127v-732h-113l-264 463v-463h-127v732h113z" />
    <glyph glyph-name="ncaron" unicode="&#x148;" horiz-adv-x="510" 
d="M217 714l45 -73l44 73h111l-111 -165h-88l-111 165h110zM423.5 445.5q39.5 -51.5 39.5 -156.5v-323h-132v276q0 65 -15.5 95.5t-51.5 30.5q-78 0 -78 -130v-272h-132v519h116l2 -27q2 -32 4 -47q42 86 137 86q71 0 110.5 -51.5z" />
    <glyph glyph-name="napostrophe" unicode="&#x149;" horiz-adv-x="510" 
d="M-8 559q31 6 48 17.5t23 32.5h-3q-31 0 -50.5 18.5t-19.5 46.5t19.5 47t49.5 19q33 0 56.5 -23.5t23.5 -68.5q0 -59 -40.5 -98t-106.5 -47v56zM423.5 445.5q39.5 -51.5 39.5 -156.5v-323h-132v276q0 65 -15.5 95.5t-51.5 30.5q-78 0 -78 -130v-272h-132v519h116l2 -27
q2 -32 4 -47q42 86 137 86q71 0 110.5 -51.5z" />
    <glyph glyph-name="Eng" unicode="&#x14a;" horiz-adv-x="635" 
d="M442 698h127v-730q0 -111 -45 -161.5t-123 -50.5q-70 0 -120 39l54 106q25 -18 50 -18q26 0 39 20.5t13 73.5v23l-245 429v-463h-127v732h113l264 -464v464z" />
    <glyph glyph-name="eng" unicode="&#x14b;" horiz-adv-x="543" 
d="M423.5 445.5q39.5 -51.5 39.5 -156.5v-320q0 -112 -46 -162.5t-125 -50.5q-67 0 -117 39l53 106q22 -19 48 -19t40.5 21t14.5 74v265q0 65 -15.5 95.5t-51.5 30.5q-78 0 -78 -130v-272h-132v519h116l2 -27q2 -32 4 -47q42 86 137 86q71 0 110.5 -51.5z" />
    <glyph glyph-name="Omacron" unicode="&#x14c;" horiz-adv-x="645" 
d="M195 797v95h256v-95h-256zM116 616.5q76 94.5 207 94.5q130 0 206 -95t76 -283q0 -189 -76 -284t-206 -95q-131 0 -207 94.5t-76 284.5q0 189 76 283.5zM221.5 143q35.5 -62 101.5 -62q135 0 135 252q0 251 -135 251q-137 0 -137 -251q0 -128 35.5 -190z" />
    <glyph glyph-name="omacron" unicode="&#x14d;" horiz-adv-x="501" 
d="M124 582v95h256v-95h-256zM60.5 379q30.5 61 80.5 89.5t111 28.5t110 -28t79 -89t30 -155q0 -93 -30 -154t-79 -89t-110 -28t-111 28t-80.5 89t-30.5 154t30.5 154zM190.5 109q23.5 -37 61.5 -37q37 0 59.5 37t22.5 116t-22.5 116.5t-59.5 37.5q-38 0 -61.5 -37.5
t-23.5 -116.5t23.5 -116z" />
    <glyph glyph-name="Obreve" unicode="&#x14e;" horiz-adv-x="645" 
d="M213 806q-40 42 -40 109h107q2 -30 12.5 -48.5t30.5 -18.5t30.5 18.5t12.5 48.5h107q0 -67 -40.5 -109t-109.5 -42q-70 0 -110 42zM116 616.5q76 94.5 207 94.5q130 0 206 -95t76 -283q0 -189 -76 -284t-206 -95q-131 0 -207 94.5t-76 284.5q0 189 76 283.5zM221.5 143
q35.5 -62 101.5 -62q135 0 135 252q0 251 -135 251q-137 0 -137 -251q0 -128 35.5 -190z" />
    <glyph glyph-name="obreve" unicode="&#x14f;" horiz-adv-x="501" 
d="M141.5 592q-39.5 44 -39.5 121h107q3 -78 43 -78t43 78h107q0 -77 -40 -121t-110 -44q-71 0 -110.5 44zM60.5 379q30.5 61 80.5 89.5t111 28.5t110 -28t79 -89t30 -155q0 -93 -30 -154t-79 -89t-110 -28t-111 28t-80.5 89t-30.5 154t30.5 154zM190.5 109
q23.5 -37 61.5 -37q37 0 59.5 37t22.5 116t-22.5 116.5t-59.5 37.5q-38 0 -61.5 -37.5t-23.5 -116.5t23.5 -116z" />
    <glyph glyph-name="Ohungarumlaut" unicode="&#x150;" horiz-adv-x="645" 
d="M195 765l64 150h123l-96 -150h-91zM356 765l64 150h123l-96 -150h-91zM116 616.5q76 94.5 207 94.5q130 0 206 -95t76 -283q0 -189 -76 -284t-206 -95q-131 0 -207 94.5t-76 284.5q0 189 76 283.5zM221.5 143q35.5 -62 101.5 -62q135 0 135 252q0 251 -135 251
q-137 0 -137 -251q0 -128 35.5 -190z" />
    <glyph glyph-name="ohungarumlaut" unicode="&#x151;" horiz-adv-x="501" 
d="M124 549l64 165h123l-96 -165h-91zM285 549l64 165h122l-95 -165h-91zM60.5 379q30.5 61 80.5 89.5t111 28.5t110 -28t79 -89t30 -155q0 -93 -30 -154t-79 -89t-110 -28t-111 28t-80.5 89t-30.5 154t30.5 154zM190.5 109q23.5 -37 61.5 -37q37 0 59.5 37t22.5 116
t-22.5 116.5t-59.5 37.5q-38 0 -61.5 -37.5t-23.5 -116.5t23.5 -116z" />
    <glyph glyph-name="OE" unicode="&#x152;" horiz-adv-x="900" 
d="M599 278v-190h267v-122h-405v49q-55 -61 -151 -61q-76 0 -137 41t-97 126t-36 212q0 126 36 211t97 126t137 41q96 0 151 -61v48h395v-121h-257v-178h230v-121h-230zM458 333q0 250 -135 250q-65 0 -101 -61t-36 -189t36 -190t101 -62q135 0 135 252z" />
    <glyph glyph-name="oe" unicode="&#x153;" horiz-adv-x="786" 
d="M712.5 434.5q51.5 -62.5 51.5 -173.5q0 -29 -5 -71h-271q8 -121 90 -121q54 0 74 58l97 -56q-20 -59 -67 -88t-106 -29q-51 0 -94 24t-71 73q-27 -49 -70 -73t-92 -24q-60 0 -109.5 28t-79.5 89t-30 154t30 154t79.5 89.5t109.5 28.5q50 0 93 -24t70 -73q27 49 70.5 73
t93.5 24q85 0 136.5 -62.5zM515.5 361.5q-20.5 -24.5 -26.5 -73.5h145q-1 50 -19.5 74t-48.5 24t-50.5 -24.5zM311.5 109q22.5 38 22.5 116q0 79 -22.5 116.5t-59.5 37.5q-38 0 -61.5 -37.5t-23.5 -116.5t23.5 -116.5t61.5 -37.5q37 0 59.5 38z" />
    <glyph glyph-name="Racute" unicode="&#x154;" horiz-adv-x="570" 
d="M284 915h132l-96 -149h-100zM575 -34l-159 1l-143 270h-5h-67v-271h-136v732h215q73 0 127 -29t83.5 -81t29.5 -121t-29 -120.5t-83 -79.5zM260 357q48 0 81.5 29t33.5 83q0 53 -33.5 81.5t-81.5 28.5h-59v-222h59z" />
    <glyph glyph-name="racute" unicode="&#x155;" horiz-adv-x="381" 
d="M160 549l64 165h132l-96 -165h-100zM346 487q24 -10 36 -26l-51 -106q-19 16 -47 16q-44 0 -71 -39t-27 -121v-245h-132v518h116l2 -22q1 -23 5 -52q18 42 49 64.5t69 22.5q27 0 51 -10z" />
    <glyph glyph-name="uni0156" unicode="&#x156;" horiz-adv-x="570" 
d="M575 -34l-159 1l-143 270h-5h-67v-271h-136v732h215q73 0 127 -29t83.5 -81t29.5 -121t-29 -120.5t-83 -79.5zM260 357q48 0 81.5 29t33.5 83q0 53 -33.5 81.5t-81.5 28.5h-59v-222h59zM367.5 -85.5q23.5 -18.5 23.5 -54.5q0 -47 -40.5 -74t-115.5 -30v46q62 6 75 33h-6
q-33 1 -52.5 13.5t-19.5 34.5t20.5 36t52.5 14q39 0 62.5 -18.5z" />
    <glyph glyph-name="uni0157" unicode="&#x157;" horiz-adv-x="381" 
d="M346 487q24 -10 36 -26l-51 -106q-19 16 -47 16q-44 0 -71 -39t-27 -121v-245h-132v518h116l2 -22q1 -23 5 -52q18 42 49 64.5t69 22.5q27 0 51 -10zM178.5 -85.5q23.5 -18.5 23.5 -54.5q0 -47 -40.5 -74t-115.5 -30v46q63 6 74 33h-5q-33 1 -52.5 13.5t-19.5 34.5
t20.5 36t52.5 14q39 0 62.5 -18.5z" />
    <glyph glyph-name="Rcaron" unicode="&#x158;" horiz-adv-x="570" 
d="M420 915l-111 -150h-88l-111 150h110l45 -65l44 65h111zM575 -34l-159 1l-143 270h-5h-67v-271h-136v732h215q73 0 127 -29t83.5 -81t29.5 -121t-29 -120.5t-83 -79.5zM260 357q48 0 81.5 29t33.5 83q0 53 -33.5 81.5t-81.5 28.5h-59v-222h59z" />
    <glyph glyph-name="rcaron" unicode="&#x159;" horiz-adv-x="381" 
d="M172 714l45 -73l44 73h110l-110 -165h-88l-112 165h111zM346 487q24 -10 36 -26l-51 -106q-19 16 -47 16q-44 0 -71 -39t-27 -121v-245h-132v518h116l2 -22q1 -23 5 -52q18 42 49 64.5t69 22.5q27 0 51 -10z" />
    <glyph glyph-name="Sacute" unicode="&#x15a;" horiz-adv-x="500" 
d="M216 766l64 150h132l-96 -150h-100zM446 49.5q-31 -48.5 -82.5 -72t-113.5 -23.5q-90 0 -154 46t-83 132l119 64q34 -118 122 -118q38 0 58.5 20t20.5 57q0 31 -16 53t-40 37t-66 35q-56 26 -91.5 50t-60.5 66t-25 106q0 70 31 117t82 69.5t111 22.5q82 0 137.5 -41
t72.5 -114l-119 -64q-11 46 -36.5 70t-61.5 24q-33 0 -53.5 -19.5t-20.5 -53.5q0 -29 15.5 -49t38.5 -34t65 -34q58 -27 94 -51.5t61.5 -67.5t25.5 -108q0 -71 -31 -119.5z" />
    <glyph glyph-name="sacute" unicode="&#x15b;" horiz-adv-x="392" 
d="M155 551l63 165h132l-95 -165h-100zM328 -3q-50 -43 -131 -43q-70 0 -120 34t-67 98l99 55q25 -72 86 -72q24 0 36 11t12 29q0 22 -18.5 36t-58.5 32q-42 20 -68.5 37t-46 47.5t-19.5 75.5q0 75 50.5 117.5t128.5 42.5q67 0 109 -32.5t52 -85.5l-96 -54q-9 29 -26.5 43
t-39.5 14q-21 0 -32.5 -11t-11.5 -28q0 -22 18.5 -36t58.5 -32q43 -20 69.5 -37t46 -47.5t19.5 -77.5q0 -73 -50 -116z" />
    <glyph glyph-name="Scircumflex" unicode="&#x15c;" horiz-adv-x="500" 
d="M218 916h88l110 -150h-110l-44 65l-45 -65h-111zM446 49.5q-31 -48.5 -82.5 -72t-113.5 -23.5q-90 0 -154 46t-83 132l119 64q34 -118 122 -118q38 0 58.5 20t20.5 57q0 31 -16 53t-40 37t-66 35q-56 26 -91.5 50t-60.5 66t-25 106q0 70 31 117t82 69.5t111 22.5
q82 0 137.5 -41t72.5 -114l-119 -64q-11 46 -36.5 70t-61.5 24q-33 0 -53.5 -19.5t-20.5 -53.5q0 -29 15.5 -49t38.5 -34t65 -34q58 -27 94 -51.5t61.5 -67.5t25.5 -108q0 -71 -31 -119.5z" />
    <glyph glyph-name="scircumflex" unicode="&#x15d;" horiz-adv-x="392" 
d="M162 716h88l111 -165h-110l-45 73l-45 -73h-110zM328 -3q-50 -43 -131 -43q-70 0 -120 34t-67 98l99 55q25 -72 86 -72q24 0 36 11t12 29q0 22 -18.5 36t-58.5 32q-42 20 -68.5 37t-46 47.5t-19.5 75.5q0 75 50.5 117.5t128.5 42.5q67 0 109 -32.5t52 -85.5l-96 -54
q-9 29 -26.5 43t-39.5 14q-21 0 -32.5 -11t-11.5 -28q0 -22 18.5 -36t58.5 -32q43 -20 69.5 -37t46 -47.5t19.5 -77.5q0 -73 -50 -116z" />
    <glyph glyph-name="Scedilla" unicode="&#x15e;" horiz-adv-x="500" 
d="M421 17q-56 -54 -144 -62l-17 -43q37 -4 62 -22.5t25 -49.5q0 -42 -35 -63t-84 -21q-35 0 -77 10v60q30 -10 59 -10q18 0 29.5 5t11.5 16q0 21 -45 21q-17 0 -38 -3l-8 39l29 66q-68 14 -114 58t-62 114l119 64q34 -118 122 -118q38 0 58.5 20t20.5 57q0 31 -16 53
t-40 37t-66 35q-56 26 -91.5 50t-60.5 66t-25 106q0 70 31 117t82 69.5t111 22.5q82 0 137.5 -41t72.5 -114l-119 -64q-11 46 -36.5 70t-61.5 24q-33 0 -53.5 -19.5t-20.5 -53.5q0 -29 15.5 -49t38.5 -34t65 -34q58 -27 94 -51.5t61.5 -67.5t25.5 -108q0 -98 -56 -152z" />
    <glyph glyph-name="scedilla" unicode="&#x15f;" horiz-adv-x="392" 
d="M337 5q-41 -42 -110 -50l-18 -41q37 -4 62 -22.5t25 -50.5q0 -43 -35 -64t-84 -21q-35 0 -77 10v61q30 -10 59 -10q18 0 29.5 5t11.5 16q0 22 -47 22q-16 0 -36 -3l-8 39l28 65q-48 12 -81 44t-46 81l99 55q25 -72 86 -72q24 0 36 11t12 29q0 22 -18.5 36t-58.5 32
q-42 20 -68.5 37t-46 47.5t-19.5 75.5q0 75 50.5 117.5t128.5 42.5q67 0 109 -32.5t52 -85.5l-96 -54q-9 29 -26.5 43t-39.5 14q-21 0 -32.5 -11t-11.5 -28q0 -22 18.5 -36t58.5 -32q43 -20 69.5 -37t46 -47.5t19.5 -77.5q0 -66 -41 -108z" />
    <glyph glyph-name="Scaron" unicode="&#x160;" horiz-adv-x="500" 
d="M216 916l45 -65l44 65h111l-111 -150h-88l-111 150h110zM446 49.5q-31 -48.5 -82.5 -72t-113.5 -23.5q-90 0 -154 46t-83 132l119 64q34 -118 122 -118q38 0 58.5 20t20.5 57q0 31 -16 53t-40 37t-66 35q-56 26 -91.5 50t-60.5 66t-25 106q0 70 31 117t82 69.5t111 22.5
q82 0 137.5 -41t72.5 -114l-119 -64q-11 46 -36.5 70t-61.5 24q-33 0 -53.5 -19.5t-20.5 -53.5q0 -29 15.5 -49t38.5 -34t65 -34q58 -27 94 -51.5t61.5 -67.5t25.5 -108q0 -71 -31 -119.5z" />
    <glyph glyph-name="scaron" unicode="&#x161;" horiz-adv-x="392" 
d="M166 716l45 -72l44 72h111l-111 -165h-88l-111 165h110zM328 -3q-50 -43 -131 -43q-70 0 -120 34t-67 98l99 55q25 -72 86 -72q24 0 36 11t12 29q0 22 -18.5 36t-58.5 32q-42 20 -68.5 37t-46 47.5t-19.5 75.5q0 75 50.5 117.5t128.5 42.5q67 0 109 -32.5t52 -85.5
l-96 -54q-9 29 -26.5 43t-39.5 14q-21 0 -32.5 -11t-11.5 -28q0 -22 18.5 -36t58.5 -32q43 -20 69.5 -37t46 -47.5t19.5 -77.5q0 -73 -50 -116z" />
    <glyph glyph-name="uni0162" unicode="&#x162;" horiz-adv-x="520" 
d="M328 575v-609h-21l-23 -52q36 -4 61 -23t25 -50q0 -43 -35 -64t-84 -21q-35 0 -77 10v60q42 -10 59 -10q18 0 29.5 5.5t11.5 16.5q0 22 -46 22q-16 0 -37 -3l-8 39l32 70h-25v609h-177v123h492v-123h-177z" />
    <glyph glyph-name="uni0163" unicode="&#x163;" horiz-adv-x="375" 
d="M251 -87q37 -4 62 -22.5t25 -50.5q0 -42 -35 -63t-84 -21q-37 0 -77 10v60q35 -10 59 -10q40 0 40 22q0 21 -45 21q-16 0 -37 -3l-9 38l30 70q-97 33 -97 182v225h-76v114h76v156h132v-156h129v-114h-129v-192q0 -54 13 -76.5t42 -22.5q30 0 56 23l49 -103
q-37 -39 -106 -45z" />
    <glyph glyph-name="Tcaron" unicode="&#x164;" horiz-adv-x="519" 
d="M214 916l45 -66l44 66h111l-111 -151h-88l-111 151h110zM13 698h492v-123h-177v-609h-138v609h-177v123z" />
    <glyph glyph-name="tcaron" unicode="&#x165;" horiz-adv-x="375" 
d="M274 689.5q-21 22.5 -21 55.5t21 55.5t53 22.5q36 0 60.5 -28t24.5 -81q0 -70 -43 -116t-112 -56v68q61 11 74 57h-3q-33 0 -54 22.5zM326 103l49 -103q-46 -46 -129 -46q-163 0 -163 192v225h-76v114h76v156h132v-156h129v-114h-129v-192q0 -54 13 -76.5t42 -22.5
q30 0 56 23z" />
    <glyph glyph-name="Tbar" unicode="&#x166;" horiz-adv-x="519" 
d="M13 698h492v-123h-177v-193h116v-124h-116v-292h-138v292h-113v124h113v193h-177v123z" />
    <glyph glyph-name="tbar" unicode="&#x167;" horiz-adv-x="375" 
d="M375 0q-46 -46 -129 -46q-163 0 -163 192v37h-76v107h76v87h-76v108h76v156h132v-156h129v-108h-129v-87h129v-107h-129v-4q0 -54 13 -78.5t42 -24.5q30 0 56 23z" />
    <glyph glyph-name="Utilde" unicode="&#x168;" horiz-adv-x="637" 
d="M164 778q3 65 28.5 101.5t68.5 36.5q22 0 38.5 -9.5t37.5 -26.5q8 -7 15.5 -12.5t13.5 -5.5q21 0 26 50h81q-3 -65 -28 -101.5t-68 -36.5q-22 0 -38 9t-38 26q-8 7 -15.5 12.5t-13.5 5.5q-21 0 -26 -49h-82zM440 698h138v-444q0 -152 -67 -226t-192 -74t-192.5 74
t-67.5 226v444h138v-413q0 -112 31.5 -158t90.5 -46q58 0 89.5 46t31.5 158v413z" />
    <glyph glyph-name="utilde" unicode="&#x169;" horiz-adv-x="510" 
d="M98 564q3 65 28.5 101.5t68.5 36.5q22 0 37 -9t36 -26q21 -19 31 -19q22 0 25 50h82q-3 -65 -28.5 -101.5t-68.5 -36.5q-22 0 -38 9t-35 26q-8 7 -16.5 12.5t-14.5 5.5q-21 0 -26 -49h-81zM324 485h132v-519h-117q-2 53 -5 74q-42 -86 -137 -86q-71 0 -110.5 51.5
t-39.5 156.5v323h132v-276q0 -65 15.5 -95.5t51.5 -30.5q78 0 78 130v272z" />
    <glyph glyph-name="Umacron" unicode="&#x16a;" horiz-adv-x="637" 
d="M191 797v95h256v-95h-256zM440 698h138v-444q0 -152 -67 -226t-192 -74t-192.5 74t-67.5 226v444h138v-413q0 -112 31.5 -158t90.5 -46q58 0 89.5 46t31.5 158v413z" />
    <glyph glyph-name="umacron" unicode="&#x16b;" horiz-adv-x="510" 
d="M124 583v95h256v-95h-256zM324 485h132v-519h-117q-2 53 -5 74q-42 -86 -137 -86q-71 0 -110.5 51.5t-39.5 156.5v323h132v-276q0 -65 15.5 -95.5t51.5 -30.5q78 0 78 130v272z" />
    <glyph glyph-name="Ubreve" unicode="&#x16c;" horiz-adv-x="637" 
d="M209 807q-40 42 -40 109h107q2 -30 12.5 -48.5t30.5 -18.5t30.5 18.5t12.5 48.5h107q0 -67 -40.5 -109t-109.5 -42q-70 0 -110 42zM440 698h138v-444q0 -152 -67 -226t-192 -74t-192.5 74t-67.5 226v444h138v-413q0 -112 31.5 -158t90.5 -46q58 0 89.5 46t31.5 158v413z
" />
    <glyph glyph-name="ubreve" unicode="&#x16d;" horiz-adv-x="510" 
d="M141.5 593q-39.5 44 -39.5 121h108q2 -78 42 -78q41 0 43 78h107q0 -77 -40 -121t-110 -44q-71 0 -110.5 44zM324 485h132v-519h-117q-2 53 -5 74q-42 -86 -137 -86q-71 0 -110.5 51.5t-39.5 156.5v323h132v-276q0 -65 15.5 -95.5t51.5 -30.5q78 0 78 130v272z" />
    <glyph glyph-name="Uring" unicode="&#x16e;" horiz-adv-x="637" 
d="M233 955q35 34 86 34t84 -33.5t33 -85.5t-33 -85.5t-84 -33.5q-52 0 -86.5 33.5t-34.5 85.5q0 51 35 85zM285 835.5q13 -13.5 34 -13.5q20 0 32 13.5t12 34.5q0 22 -12 35.5t-32 13.5q-21 0 -34 -13.5t-13 -35.5q0 -21 13 -34.5zM440 698h138v-444q0 -152 -67 -226
t-192 -74t-192.5 74t-67.5 226v444h138v-413q0 -112 31.5 -158t90.5 -46q58 0 89.5 46t31.5 158v413z" />
    <glyph glyph-name="uring" unicode="&#x16f;" horiz-adv-x="510" 
d="M165.5 741.5q34.5 33.5 86.5 33.5q51 0 84.5 -33.5t33.5 -85.5t-33.5 -85t-84.5 -33q-52 0 -86.5 33t-34.5 85t34.5 85.5zM218.5 621.5q12.5 -13.5 33.5 -13.5q20 0 32 13.5t12 34.5q0 22 -12 35.5t-32 13.5q-21 0 -33.5 -13.5t-12.5 -35.5q0 -21 12.5 -34.5zM324 485
h132v-519h-117q-2 53 -5 74q-42 -86 -137 -86q-71 0 -110.5 51.5t-39.5 156.5v323h132v-276q0 -65 15.5 -95.5t51.5 -30.5q78 0 78 130v272z" />
    <glyph glyph-name="Uhungarumlaut" unicode="&#x170;" horiz-adv-x="637" 
d="M191 765l64 151h122l-95 -151h-91zM352 765l64 151h122l-95 -151h-91zM440 698h138v-444q0 -152 -67 -226t-192 -74t-192.5 74t-67.5 226v444h138v-413q0 -112 31.5 -158t90.5 -46q58 0 89.5 46t31.5 158v413z" />
    <glyph glyph-name="uhungarumlaut" unicode="&#x171;" horiz-adv-x="510" 
d="M124 550l64 165h123l-96 -165h-91zM285 550l64 165h123l-96 -165h-91zM324 485h132v-519h-117q-2 53 -5 74q-42 -86 -137 -86q-71 0 -110.5 51.5t-39.5 156.5v323h132v-276q0 -65 15.5 -95.5t51.5 -30.5q78 0 78 130v272z" />
    <glyph glyph-name="Uogonek" unicode="&#x172;" horiz-adv-x="637" 
d="M403 -137q0 -19 10 -28.5t25 -9.5q23 0 51 25l46 -46q-45 -48 -115 -48q-46 0 -81 23t-35 69q0 51 45 107q-10 -1 -30 -1q-125 0 -192.5 74t-67.5 226v444h138v-413q0 -112 31.5 -158t90.5 -46q58 0 89.5 46t31.5 158v413h138v-444q0 -170 -85 -244q-90 -87 -90 -147z
" />
    <glyph glyph-name="uogonek" unicode="&#x173;" horiz-adv-x="510" 
d="M508 -195q-46 -49 -115 -49q-48 0 -83 23t-35 72q0 60 64 119q-2 48 -5 70q-42 -86 -137 -86q-71 0 -110.5 51.5t-39.5 156.5v323h132v-276q0 -65 15.5 -95.5t51.5 -30.5q78 0 78 130v272h132v-517q-82 -55 -82 -104q0 -18 10.5 -27.5t27.5 -9.5q24 0 51 26z" />
    <glyph glyph-name="Wcircumflex" unicode="&#x174;" horiz-adv-x="877" 
d="M398 915h88l111 -150h-110l-45 66l-45 -66h-110zM501 698l119 -500l110 500h134l-189 -732h-115l-121 466l-116 -466h-114l-196 732h143l116 -500l113 500h116z" />
    <glyph glyph-name="wcircumflex" unicode="&#x175;" horiz-adv-x="700" 
d="M312 715h88l111 -165h-110l-45 73l-45 -73h-110zM405 484l83 -315l78 315h127l-155 -517h-96l-90 295l-86 -295h-98l-161 517h135l82 -322l79 322h102z" />
    <glyph glyph-name="Ycircumflex" unicode="&#x176;" horiz-adv-x="576" 
d="M250 915h88l111 -150h-110l-45 66l-45 -66h-110zM296 400l126 298h146l-207 -444v-288h-137v288l-216 444h159z" />
    <glyph glyph-name="ycircumflex" unicode="&#x177;" horiz-adv-x="491" 
d="M203 715h88l111 -165h-111l-44 73l-45 -73h-110zM255 154l93 330h136l-180 -554q-32 -96 -71 -135t-105 -39q-74 0 -115 38l50 101q24 -19 56 -19q26 0 41.5 13.5t27.5 50.5l6 18l-188 526h149z" />
    <glyph glyph-name="Ydieresis" unicode="&#x178;" horiz-adv-x="576" 
d="M148 790q-22 23 -22 54q0 32 21.5 54.5t52.5 22.5q32 0 54 -22.5t22 -54.5q0 -31 -22 -54t-54 -23q-30 0 -52 23zM333.5 790q-21.5 23 -21.5 54q0 32 21.5 54.5t52.5 22.5t53 -22.5t22 -54.5q0 -31 -22 -54t-53 -23t-52.5 23zM296 400l126 298h146l-207 -444v-288h-137
v288l-216 444h159z" />
    <glyph glyph-name="Zacute" unicode="&#x179;" horiz-adv-x="498" 
d="M209 766l63 149h132l-95 -149h-100zM465 698v-86l-278 -522h290v-124h-458v87l278 522h-253v123h421z" />
    <glyph glyph-name="zacute" unicode="&#x17a;" horiz-adv-x="381" 
d="M137 550l63 165h133l-96 -165h-100zM357 484v-79l-194 -331h207v-108h-357v80l194 330h-175v108h325z" />
    <glyph glyph-name="Zdotaccent" unicode="&#x17b;" horiz-adv-x="498" 
d="M202 790q-22 23 -22 54q0 32 21.5 54.5t52.5 22.5q32 0 54 -22.5t22 -54.5q0 -31 -22.5 -54t-53.5 -23q-30 0 -52 23zM465 698v-86l-278 -522h290v-124h-458v87l278 522h-253v123h421z" />
    <glyph glyph-name="zdotaccent" unicode="&#x17c;" horiz-adv-x="381" 
d="M136 576q-24 25 -24 59q0 35 24 60t58 25t58.5 -25t24.5 -60q0 -34 -24.5 -59t-58.5 -25t-58 25zM357 484v-79l-194 -331h207v-108h-357v80l194 330h-175v108h325z" />
    <glyph glyph-name="Zcaron" unicode="&#x17d;" horiz-adv-x="498" 
d="M209 915l45 -65l44 65h111l-111 -150h-88l-111 150h110zM465 698v-86l-278 -522h290v-124h-458v87l278 522h-253v123h421z" />
    <glyph glyph-name="zcaron" unicode="&#x17e;" horiz-adv-x="381" 
d="M149 715l45 -73l44 73h110l-110 -165h-88l-112 165h111zM357 484v-79l-194 -331h207v-108h-357v80l194 330h-175v108h325z" />
    <glyph glyph-name="longs" unicode="&#x17f;" horiz-adv-x="327" 
d="M341.5 724.5q31.5 -15.5 44.5 -35.5l-62 -97q-11 13 -22 18.5t-26 5.5q-30 0 -45 -25t-15 -82v-543h-133v405h-70v113h70v30q0 114 52 170t132 56q43 0 74.5 -15.5z" />
    <glyph glyph-name="uni018F" unicode="&#x18f;" horiz-adv-x="597" 
d="M488.5 614q68.5 -97 68.5 -284q0 -183 -72.5 -279.5t-198.5 -96.5q-117 0 -182.5 84t-65.5 239q0 44 6 95h366q-9 209 -127 209q-42 0 -73.5 -25.5t-50.5 -84.5l-109 69q68 171 241 171q129 0 197.5 -97zM372 124q29 43 36 126h-231q2 -85 29 -127t82 -42t84 43z" />
    <glyph glyph-name="florin" unicode="&#x192;" 
d="M367.5 569.5q-15.5 -24.5 -26.5 -85.5h123v-113h-139l-26 -187q-16 -120 -61.5 -175t-126.5 -55q-42 0 -78 13.5t-55 35.5l61 91q24 -23 54 -23q31 0 47.5 30t27.5 105l23 165h-94v113h108l2 11q17 117 66 166.5t125 49.5q47 0 79.5 -14.5t50.5 -37.5l-63 -89
q-13 12 -25 18t-27 6q-30 0 -45.5 -24.5z" />
    <glyph glyph-name="Ohorn" unicode="&#x1a0;" horiz-adv-x="641" 
d="M596 647.5q-25 -34.5 -79 -40.5q88 -93 88 -274q0 -127 -36 -211.5t-99.5 -126t-146.5 -41.5q-129 0 -206 95t-77 284t79 283.5t214 94.5q24 0 75 -7q36 -6 51 -6q27 0 39.5 14.5t12.5 55.5q0 33 -6 58h109q7 -32 7 -69q0 -75 -25 -109.5zM458 333q0 251 -135 251
q-137 0 -137 -251q0 -128 35.5 -190t101.5 -62q135 0 135 252z" />
    <glyph glyph-name="ohorn" unicode="&#x1a1;" horiz-adv-x="523" 
d="M497.5 437q-23.5 -33 -70.5 -41q43 -61 43 -171q0 -93 -30 -154t-79.5 -89t-110.5 -28t-110.5 28t-79.5 89t-30 154q0 138 65 205t166 67q24 0 46 -3.5t28 -4.5q22 -5 34 -5q20 0 31 13.5t11 51.5q0 26 -5 63h110q5 -40 5 -70q0 -72 -23.5 -105zM311 111.5
q22 38.5 22 113.5q0 76 -22 114.5t-61 38.5q-38 0 -61 -39t-23 -114t23 -113.5t61 -38.5q39 0 61 38.5z" />
    <glyph glyph-name="Uhorn" unicode="&#x1af;" horiz-adv-x="637" 
d="M675.5 645.5q-30.5 -33.5 -97.5 -38.5v-353q0 -152 -67 -226t-192 -74t-192.5 74t-67.5 226v444h138v-413q0 -112 31.5 -158t90.5 -46q58 0 89.5 46t31.5 158v413h75q41 0 58 12.5t17 53.5q0 31 -7 62h116q7 -34 7 -69q0 -78 -30.5 -111.5z" />
    <glyph glyph-name="uhorn" unicode="&#x1b0;" horiz-adv-x="560" 
d="M554 431.5q-30 -33.5 -98 -38.5v-427h-117q-2 53 -5 74q-42 -86 -137 -86q-71 0 -110.5 51.5t-39.5 156.5v323h132v-276q0 -65 15.5 -95.5t51.5 -30.5q78 0 78 130v272h77q36 1 51.5 14t15.5 51q0 33 -7 62h116q7 -32 7 -69q0 -78 -30 -111.5z" />
    <glyph glyph-name="uni01CD" unicode="&#x1cd;" horiz-adv-x="640" 
d="M272 915l45 -65l44 65h111l-111 -150h-88l-111 150h110zM381 698l246 -732h-149l-51 169h-225l-49 -169h-140l240 732h128zM391 257l-79 259l-75 -259h154z" />
    <glyph glyph-name="uni01CE" unicode="&#x1ce;" horiz-adv-x="475" 
d="M392 714l-110 -165h-89l-111 165h111l44 -73l45 73h110zM379 445q49 -52 49 -154v-325h-111q-2 30 -6 63q-37 -75 -123 -75q-65 0 -110 39.5t-45 119.5q0 84 53 129.5t132 45.5q40 0 80 -12q-1 58 -18 82t-50 24q-28 0 -47 -16.5t-32 -45.5l-95 59q23 56 70.5 87
t115.5 31q88 0 137 -52zM298 179q-27 10 -54 10q-36 0 -57.5 -18.5t-21.5 -50.5q0 -29 16 -43.5t40 -14.5q34 0 55.5 25t21.5 73v19z" />
    <glyph glyph-name="uni01CF" unicode="&#x1cf;" horiz-adv-x="269" 
d="M89 915l45 -65l44 65h111l-111 -150h-88l-111 150h110zM203 -34h-138v732h138v-732z" />
    <glyph glyph-name="uni01D0" unicode="&#x1d0;" horiz-adv-x="238" 
d="M74 714l45 -73l45 73h110l-111 -165h-88l-111 165h110zM185 -34h-131v518h131v-518z" />
    <glyph glyph-name="uni01D1" unicode="&#x1d1;" horiz-adv-x="645" 
d="M277 915l45 -65l44 65h111l-111 -150h-88l-111 150h110zM116 616.5q76 94.5 207 94.5q130 0 206 -95t76 -283q0 -189 -76 -284t-206 -95q-131 0 -207 94.5t-76 284.5q0 189 76 283.5zM221.5 143q35.5 -62 101.5 -62q135 0 135 252q0 251 -135 251q-137 0 -137 -251
q0 -128 35.5 -190z" />
    <glyph glyph-name="uni01D2" unicode="&#x1d2;" horiz-adv-x="501" 
d="M206 714l45 -73l44 73h111l-111 -165h-88l-111 165h110zM60.5 379q30.5 61 80.5 89.5t111 28.5t110 -28t79 -89t30 -155q0 -93 -30 -154t-79 -89t-110 -28t-111 28t-80.5 89t-30.5 154t30.5 154zM190.5 109q23.5 -37 61.5 -37q37 0 59.5 37t22.5 116t-22.5 116.5
t-59.5 37.5q-38 0 -61.5 -37.5t-23.5 -116.5t23.5 -116z" />
    <glyph glyph-name="uni01D3" unicode="&#x1d3;" horiz-adv-x="637" 
d="M273 916l45 -66l44 66h111l-111 -151h-88l-111 151h110zM440 698h138v-444q0 -152 -67 -226t-192 -74t-192.5 74t-67.5 226v444h138v-413q0 -112 31.5 -158t90.5 -46q58 0 89.5 46t31.5 158v413z" />
    <glyph glyph-name="uni01D4" unicode="&#x1d4;" horiz-adv-x="510" 
d="M206 715l45 -73l44 73h111l-111 -165h-88l-111 165h110zM324 485h132v-519h-117q-2 53 -5 74q-42 -86 -137 -86q-71 0 -110.5 51.5t-39.5 156.5v323h132v-276q0 -65 15.5 -95.5t51.5 -30.5q78 0 78 130v272z" />
    <glyph glyph-name="uni01D5" unicode="&#x1d5;" horiz-adv-x="637" 
d="M190 887v65h256v-65h-256zM172.5 757.5q-21.5 17.5 -21.5 41.5t21.5 41.5t51.5 17.5q32 0 54 -17.5t22 -41.5t-22 -41.5t-54 -17.5q-30 0 -51.5 17.5zM357.5 757.5q-21.5 17.5 -21.5 41.5t21.5 41.5t52.5 17.5t53.5 -17.5t22.5 -41.5t-22.5 -41.5t-53.5 -17.5t-52.5 17.5
zM440 698h138v-444q0 -152 -67 -226t-192 -74t-192.5 74t-67.5 226v444h138v-413q0 -112 31.5 -158t90.5 -46q58 0 89.5 46t31.5 158v413z" />
    <glyph glyph-name="uni01D6" unicode="&#x1d6;" horiz-adv-x="510" 
d="M124 762v95h256v-95h-256zM99.5 578q-21.5 23 -21.5 54q0 32 21.5 54.5t51.5 22.5q32 0 54 -22.5t22 -54.5q0 -31 -22 -54t-54 -23q-30 0 -51.5 23zM298.5 578q-21.5 23 -21.5 54q0 32 21.5 54.5t52.5 22.5t53 -22.5t22 -54.5q0 -31 -22 -54t-53 -23t-52.5 23zM324 485
h132v-519h-117q-2 53 -5 74q-42 -86 -137 -86q-71 0 -110.5 51.5t-39.5 156.5v323h132v-276q0 -65 15.5 -95.5t51.5 -30.5q78 0 78 130v272z" />
    <glyph glyph-name="uni01D7" unicode="&#x1d7;" horiz-adv-x="637" 
d="M271 876l84 88h134l-115 -88h-103zM172.5 757.5q-21.5 17.5 -21.5 41.5t21.5 41.5t51.5 17.5q32 0 54 -17.5t22 -41.5t-22 -41.5t-54 -17.5q-30 0 -51.5 17.5zM357.5 757.5q-21.5 17.5 -21.5 41.5t21.5 41.5t52.5 17.5t53.5 -17.5t22.5 -41.5t-22.5 -41.5t-53.5 -17.5
t-52.5 17.5zM440 698h138v-444q0 -152 -67 -226t-192 -74t-192.5 74t-67.5 226v444h138v-413q0 -112 31.5 -158t90.5 -46q58 0 89.5 46t31.5 158v413z" />
    <glyph glyph-name="uni01D8" unicode="&#x1d8;" horiz-adv-x="510" 
d="M194 739l63 142h133l-96 -142h-100zM99.5 578q-21.5 23 -21.5 54q0 32 21.5 54.5t51.5 22.5q32 0 54 -22.5t22 -54.5q0 -31 -22 -54t-54 -23q-30 0 -51.5 23zM298.5 578q-21.5 23 -21.5 54q0 32 21.5 54.5t52.5 22.5t53 -22.5t22 -54.5q0 -31 -22 -54t-53 -23t-52.5 23z
M324 485h132v-519h-117q-2 53 -5 74q-42 -86 -137 -86q-71 0 -110.5 51.5t-39.5 156.5v323h132v-276q0 -65 15.5 -95.5t51.5 -30.5q78 0 78 130v272z" />
    <glyph glyph-name="uni01D9" unicode="&#x1d9;" horiz-adv-x="637" 
d="M281 964l36 -32l36 32h119l-110 -89h-89l-111 89h119zM172.5 757.5q-21.5 17.5 -21.5 41.5t21.5 41.5t51.5 17.5q32 0 54 -17.5t22 -41.5t-22 -41.5t-54 -17.5q-30 0 -51.5 17.5zM357.5 757.5q-21.5 17.5 -21.5 41.5t21.5 41.5t52.5 17.5t53.5 -17.5t22.5 -41.5
t-22.5 -41.5t-53.5 -17.5t-52.5 17.5zM440 698h138v-444q0 -152 -67 -226t-192 -74t-192.5 74t-67.5 226v444h138v-413q0 -112 31.5 -158t90.5 -46q58 0 89.5 46t31.5 158v413z" />
    <glyph glyph-name="uni01DA" unicode="&#x1da;" horiz-adv-x="510" 
d="M202 881l49 -63l48 63h115l-117 -142h-91l-118 142h114zM99.5 578q-21.5 23 -21.5 54q0 32 21.5 54.5t51.5 22.5q32 0 54 -22.5t22 -54.5q0 -31 -22 -54t-54 -23q-30 0 -51.5 23zM298.5 578q-21.5 23 -21.5 54q0 32 21.5 54.5t52.5 22.5t53 -22.5t22 -54.5q0 -31 -22 -54
t-53 -23t-52.5 23zM324 485h132v-519h-117q-2 53 -5 74q-42 -86 -137 -86q-71 0 -110.5 51.5t-39.5 156.5v323h132v-276q0 -65 15.5 -95.5t51.5 -30.5q78 0 78 130v272z" />
    <glyph glyph-name="uni01DB" unicode="&#x1db;" horiz-adv-x="637" 
d="M147 964h134l85 -88h-104zM173 757.5q-22 17.5 -22 41.5t22 41.5t53 17.5t52.5 -17.5t21.5 -41.5t-21.5 -41.5t-52.5 -17.5t-53 17.5zM358 757.5q-22 17.5 -22 41.5t22 41.5t54 17.5q31 0 52.5 -17.5t21.5 -41.5t-21.5 -41.5t-52.5 -17.5q-32 0 -54 17.5zM440 698h138
v-444q0 -152 -67 -226t-192 -74t-192.5 74t-67.5 226v444h138v-413q0 -112 31.5 -158t90.5 -46q58 0 89.5 46t31.5 158v413z" />
    <glyph glyph-name="uni01DC" unicode="&#x1dc;" horiz-adv-x="510" 
d="M114 881h132l63 -142h-100zM99.5 578q-21.5 23 -21.5 54q0 32 21.5 54.5t51.5 22.5q32 0 54 -22.5t22 -54.5q0 -31 -22 -54t-54 -23q-30 0 -51.5 23zM298.5 578q-21.5 23 -21.5 54q0 32 21.5 54.5t52.5 22.5t53 -22.5t22 -54.5q0 -31 -22 -54t-53 -23t-52.5 23zM324 485
h132v-519h-117q-2 53 -5 74q-42 -86 -137 -86q-71 0 -110.5 51.5t-39.5 156.5v323h132v-276q0 -65 15.5 -95.5t51.5 -30.5q78 0 78 130v272z" />
    <glyph glyph-name="uni01E5" unicode="&#x1e5;" horiz-adv-x="542" 
d="M535 285v-109h-63v-149q0 -145 -66.5 -208t-164.5 -63q-76 0 -128.5 32t-73.5 94l99 62q26 -68 101 -68q52 0 76 32.5t27 114.5q-41 -61 -120 -61q-85 0 -138.5 67t-53.5 201t53.5 200.5t138.5 66.5q89 0 130 -77q4 40 5 64h115v-199h63zM307.5 101.5
q22.5 22.5 30.5 74.5h-78v109h78q-8 51 -30.5 74t-53.5 23q-41 0 -64.5 -38.5t-23.5 -113.5t23.5 -113t64.5 -38q31 0 53.5 22.5z" />
    <glyph glyph-name="gcaron" unicode="&#x1e7;" horiz-adv-x="517" 
d="M410 714l-110 -165h-88l-112 165h111l45 -73l44 73h110zM472 484v-457q0 -145 -66.5 -208t-164.5 -63q-76 0 -128.5 32t-73.5 94l99 62q26 -68 101 -68q52 0 76 32.5t27 114.5q-41 -61 -120 -61q-85 0 -138.5 67t-53.5 201t53.5 200.5t138.5 66.5q89 0 130 -77q4 40 5 64
h115zM317 114q25 35 25 116q0 80 -24.5 116t-63.5 36q-41 0 -64.5 -38.5t-23.5 -113.5t23.5 -113t64.5 -38q38 0 63 35z" />
    <glyph glyph-name="uni01E9" unicode="&#x1e9;" horiz-adv-x="500" 
d="M71 921l48 -62l48 62h115l-117 -141h-91l-118 141h115zM498 -34h-157l-96 192l-59 -80v-112h-132v761h132v-296q0 -143 -3 -192q17 35 73 119l82 126h145l-150 -204z" />
    <glyph glyph-name="uni01EF" unicode="&#x1ef;" horiz-adv-x="434" 
d="M159 715l45 -73l45 73h110l-111 -165h-88l-111 165h110zM246 209q82 -12 126 -68t44 -147q0 -78 -31 -131.5t-83 -80t-115 -26.5q-78 0 -134 39t-76 120l106 58q24 -106 103 -106q44 0 68 30.5t24 86.5q0 59 -32.5 91t-90.5 32q-25 0 -54 -6v99l134 178h-220v107h380v-92
z" />
    <glyph glyph-name="uni01F0" unicode="&#x1f0;" horiz-adv-x="239" 
d="M76 714l44 -73l45 73h110l-110 -165h-88l-112 165h111zM-56 -231.5q-30 12.5 -44 32.5l59 101q18 -19 44 -19q30 0 41 23.5t11 79.5v498h132v-511q0 -109 -48 -163t-127 -54q-38 0 -68 12.5z" />
    <glyph glyph-name="uni01F9" unicode="&#x1f9;" horiz-adv-x="510" 
d="M124 714h133l63 -165h-100zM423.5 445.5q39.5 -51.5 39.5 -156.5v-323h-132v276q0 65 -15.5 95.5t-51.5 30.5q-78 0 -78 -130v-272h-132v519h116l2 -27q2 -32 4 -47q42 86 137 86q71 0 110.5 -51.5z" />
    <glyph glyph-name="Aringacute" unicode="&#x1fa;" horiz-adv-x="640" 
d="M262 880l64 78h132l-96 -78h-100zM239 838q32 18 78 18q47 0 77.5 -17.5t30.5 -45.5t-30.5 -46t-77.5 -18t-78.5 18t-31.5 46q0 27 32 45zM286.5 778q11.5 -6 30.5 -6q18 0 29.5 6t11.5 15t-11 14.5t-30 5.5t-30.5 -5.5t-11.5 -14.5t11.5 -15zM381 698l246 -732h-149
l-51 169h-225l-49 -169h-140l240 732h128zM391 257l-79 259l-75 -259h154z" />
    <glyph glyph-name="aringacute" unicode="&#x1fb;" horiz-adv-x="475" 
d="M246 925h132l-95 -132h-100zM159.5 565.5q-31.5 30.5 -31.5 78.5q0 46 31.5 77t78.5 31q46 0 76.5 -30.5t30.5 -77.5q0 -48 -30 -78.5t-77 -30.5t-78.5 30.5zM207.5 675.5q-11.5 -11.5 -11.5 -31.5t11.5 -32.5t30.5 -12.5q18 0 29 12.5t11 32.5t-10.5 31.5t-29.5 11.5
t-30.5 -11.5zM379 445q49 -52 49 -154v-325h-111q-2 30 -6 63q-37 -75 -123 -75q-65 0 -110 39.5t-45 119.5q0 84 53 129.5t132 45.5q40 0 80 -12q-1 58 -18 82t-50 24q-28 0 -47 -16.5t-32 -45.5l-95 59q23 56 70.5 87t115.5 31q88 0 137 -52zM298 179q-27 10 -54 10
q-36 0 -57.5 -18.5t-21.5 -50.5q0 -29 16 -43.5t40 -14.5q34 0 55.5 25t21.5 73v19z" />
    <glyph glyph-name="AEacute" unicode="&#x1fc;" horiz-adv-x="857" 
d="M496 766l64 149h132l-96 -149h-100zM787 278h-230v-190h266v-122h-401v174h-182l-86 -174h-141l370 732h430v-121h-256v-178h230v-121zM422 259v244l-122 -244h122z" />
    <glyph glyph-name="aeacute" unicode="&#x1fd;" horiz-adv-x="730" 
d="M377 722h133l-96 -165h-100zM656.5 434q51.5 -63 51.5 -175q0 -29 -5 -69h-272q10 -121 90 -121q54 0 75 58l96 -56q-19 -59 -66.5 -88t-106.5 -29q-51 0 -92.5 23t-68.5 71q-44 -94 -154 -94q-71 0 -121 39.5t-50 120.5q0 84 52.5 129.5t131.5 45.5q43 0 82 -13
q1 106 -69 106q-54 0 -80 -66l-95 59q23 58 68.5 90t109.5 32q95 0 139 -75q27 38 65.5 56.5t82.5 18.5q85 0 136.5 -63zM578 288q-1 50 -19.5 74t-48.5 24q-31 0 -51 -24.5t-26 -73.5h145zM299 178q-33 11 -57 11q-35 0 -56 -18.5t-21 -52.5q0 -30 15.5 -44.5t41.5 -14.5
q33 0 55 24.5t22 72.5v22z" />
    <glyph glyph-name="Oslashacute" unicode="&#x1fe;" horiz-adv-x="645" 
d="M277 766l64 150h132l-96 -150h-100zM485 734h115l-69 -123q74 -99 74 -278q0 -127 -36 -211.5t-99.5 -126t-146.5 -41.5q-78 0 -136 35l-31 -58h-115l70 126q-71 98 -71 276q0 127 36 211.5t99.5 125.5t147.5 41q76 0 131 -33zM194 207l196 355q-27 21 -67 21
q-68 0 -105.5 -61t-37.5 -189q0 -73 14 -126zM449 462l-197 -357q30 -24 71 -24q141 0 141 252q0 78 -15 129z" />
    <glyph glyph-name="oslashacute" unicode="&#x1ff;" horiz-adv-x="500" 
d="M193 549l64 165h132l-96 -165h-100zM370 519h101l-56 -96q56 -72 56 -198q0 -93 -30 -154t-79.5 -89t-110.5 -28q-54 0 -96 21l-25 -44h-100l56 98q-56 69 -56 196q0 93 30 154t80 89.5t111 28.5q51 0 94 -20zM161 157l126 218q-17 9 -36 9q-42 0 -70.5 -39t-28.5 -120
q0 -40 9 -68zM340 292l-126 -216q20 -10 37 -10q42 0 69 39.5t27 119.5q0 37 -7 67z" />
    <glyph glyph-name="uni0218" unicode="&#x218;" horiz-adv-x="500" 
d="M446 49.5q-31 -48.5 -82.5 -72t-113.5 -23.5q-90 0 -154 46t-83 132l119 64q34 -118 122 -118q38 0 58.5 20t20.5 57q0 31 -16 53t-40 37t-66 35q-56 26 -91.5 50t-60.5 66t-25 106q0 70 31 117t82 69.5t111 22.5q82 0 137.5 -41t72.5 -114l-119 -64q-11 46 -36.5 70
t-61.5 24q-33 0 -53.5 -19.5t-20.5 -53.5q0 -29 15.5 -49t38.5 -34t65 -34q58 -27 94 -51.5t61.5 -67.5t25.5 -108q0 -71 -31 -119.5zM304.5 -87.5q23.5 -18.5 23.5 -54.5q0 -45 -40.5 -72t-115.5 -30v45q62 8 75 33h-6q-33 0 -52.5 12.5t-19.5 34.5t20.5 36t52.5 14
q39 0 62.5 -18.5z" />
    <glyph glyph-name="uni0219" unicode="&#x219;" horiz-adv-x="392" 
d="M328 -3q-50 -43 -131 -43q-70 0 -120 34t-67 98l99 55q25 -72 86 -72q24 0 36 11t12 29q0 22 -18.5 36t-58.5 32q-42 20 -68.5 37t-46 47.5t-19.5 75.5q0 75 50.5 117.5t128.5 42.5q67 0 109 -32.5t52 -85.5l-96 -54q-9 29 -26.5 43t-39.5 14q-21 0 -32.5 -11t-11.5 -28
q0 -22 18.5 -36t58.5 -32q43 -20 69.5 -37t46 -47.5t19.5 -77.5q0 -73 -50 -116zM253.5 -83.5q23.5 -18.5 23.5 -55.5q0 -47 -40 -74.5t-115 -30.5v46q62 8 74 34h-5q-33 1 -53 13.5t-20 35.5q0 22 20.5 36t53.5 14q38 0 61.5 -18.5z" />
    <glyph glyph-name="uni021A" unicode="&#x21a;" horiz-adv-x="519" 
d="M13 698h492v-123h-177v-609h-138v609h-177v123zM317.5 -85.5q23.5 -18.5 23.5 -54.5q0 -47 -40 -74t-115 -30v46q63 6 74 33h-5q-33 1 -53 13.5t-20 34.5t21 36t53 14q38 0 61.5 -18.5z" />
    <glyph glyph-name="uni021B" unicode="&#x21b;" horiz-adv-x="375" 
d="M375 0q-46 -46 -129 -46q-163 0 -163 192v225h-76v114h76v156h132v-156h129v-114h-129v-192q0 -54 13 -76.5t42 -22.5q30 0 56 23zM295.5 -85.5q23.5 -18.5 23.5 -54.5q0 -47 -40.5 -74t-115.5 -30v46q63 6 74 33h-5q-33 1 -52.5 13.5t-19.5 34.5t20.5 36t52.5 14
q39 0 62.5 -18.5z" />
    <glyph glyph-name="uni021F" unicode="&#x21f;" horiz-adv-x="510" 
d="M69 921l49 -62l48 62h115l-117 -141h-91l-118 141h114zM423.5 445.5q39.5 -51.5 39.5 -156.5v-323h-132v276q0 65 -15.5 95.5t-51.5 30.5q-78 0 -78 -130v-272h-132v761h132v-299q43 69 127 69q71 0 110.5 -51.5z" />
    <glyph glyph-name="uni0237" unicode="&#x237;" horiz-adv-x="239" 
d="M-56 -231.5q-30 12.5 -44 32.5l59 101q18 -19 44 -19q30 0 41 23.5t11 79.5v498h132v-511q0 -109 -48 -163t-127 -54q-38 0 -68 12.5z" />
    <glyph glyph-name="uni0251" unicode="&#x251;" horiz-adv-x="528" 
d="M474 484v-518h-117l-2 27q-1 7 -1 16.5t-2 23.5q-39 -79 -130 -79q-85 0 -138.5 67.5t-53.5 203.5q0 137 53.5 204.5t138.5 67.5q90 0 130 -79q3 23 3 40l2 26h117zM317 108q25 36 25 117q0 82 -24.5 118t-63.5 36q-41 0 -64.5 -38.5t-23.5 -115.5q0 -76 23.5 -114.5
t64.5 -38.5q38 0 63 36z" />
    <glyph glyph-name="uni0259" unicode="&#x259;" horiz-adv-x="462" 
d="M373.5 429.5q59.5 -67.5 59.5 -206.5q0 -92 -30 -152.5t-79.5 -88.5t-107.5 -28q-88 0 -141 62.5t-53 173.5q0 28 5 70h272q-5 122 -82 122q-55 0 -83 -64l-97 62q25 59 75 88t111 29q91 0 150.5 -67.5zM298 162h-146q1 -49 20 -73t48 -24q65 0 78 97z" />
    <glyph glyph-name="uni0261" unicode="&#x261;" horiz-adv-x="517" 
d="M472 484v-457q0 -145 -66.5 -208t-164.5 -63q-76 0 -128.5 32t-73.5 94l99 62q26 -68 101 -68q52 0 76 32.5t27 114.5q-41 -61 -120 -61q-85 0 -138.5 67t-53.5 201t53.5 200.5t138.5 66.5q89 0 130 -77q4 40 5 64h115zM317 114q25 35 25 116q0 80 -24.5 116t-63.5 36
q-41 0 -64.5 -38.5t-23.5 -113.5t23.5 -113t64.5 -38q38 0 63 35z" />
    <glyph glyph-name="uni0292" unicode="&#x292;" horiz-adv-x="434" 
d="M246 209q82 -12 126 -68t44 -147q0 -78 -31 -131.5t-83 -80t-115 -26.5q-78 0 -134 39t-76 120l106 58q24 -106 103 -106q44 0 68 30.5t24 86.5q0 59 -32.5 91t-90.5 32q-25 0 -54 -6v99l134 178h-220v107h380v-92z" />
    <glyph glyph-name="uni02BB" unicode="&#x2bb;" horiz-adv-x="257" 
d="M62.5 476q-27.5 31 -27.5 92q0 57 24 104t66 77.5t93 39.5v-73q-88 -22 -97 -102q1 1 5 1q35 0 58.5 -25t23.5 -60q0 -36 -22.5 -60.5t-56.5 -24.5q-39 0 -66.5 31z" />
    <glyph glyph-name="circumflex" unicode="&#x2c6;" horiz-adv-x="416" 
d="M164 714h88l111 -165h-110l-45 73l-45 -73h-110z" />
    <glyph glyph-name="caron" unicode="&#x2c7;" horiz-adv-x="416" 
d="M163 714l45 -73l45 73h110l-111 -165h-88l-111 165h110z" />
    <glyph glyph-name="breve" unicode="&#x2d8;" horiz-adv-x="429" 
d="M104 593q-40 44 -40 121h108q2 -78 42 -78q41 0 43 78h108q0 -77 -40 -121t-111 -44q-70 0 -110 44z" />
    <glyph glyph-name="dotaccent" unicode="&#x2d9;" horiz-adv-x="258" 
d="M70.5 575.5q-24.5 25.5 -24.5 59.5q0 35 24.5 60t58.5 25t58.5 -25t24.5 -60q0 -34 -24.5 -59.5t-58.5 -25.5t-58.5 25.5z" />
    <glyph glyph-name="ring" unicode="&#x2da;" horiz-adv-x="338" 
d="M84.5 741q34.5 34 85.5 34t84.5 -33.5t33.5 -85.5t-33.5 -85.5t-84.5 -33.5t-85.5 33.5t-34.5 85.5q0 51 34.5 85zM136.5 621q12.5 -14 33.5 -14q20 0 32 14t12 35q0 22 -12 35t-32 13q-21 0 -33.5 -13t-12.5 -35q0 -21 12.5 -35z" />
    <glyph glyph-name="ogonek" unicode="&#x2db;" horiz-adv-x="314" 
d="M254 -193q-47 -51 -115 -51q-49 0 -84 23.5t-35 73.5q0 45 32 86.5t89 74.5l60 -41q-82 -57 -82 -107q0 -18 10.5 -28t27.5 -10q13 0 24.5 6t26.5 20z" />
    <glyph glyph-name="tilde" unicode="&#x2dc;" horiz-adv-x="426" 
d="M59 564q3 65 28.5 101t68.5 36q22 0 38.5 -9.5t35.5 -26.5q8 -7 16 -12.5t14 -5.5q22 0 25 50h82q-3 -65 -28.5 -101.5t-68.5 -36.5q-22 0 -38 9t-35 26q-8 7 -16.5 12.5t-14.5 5.5q-20 0 -25 -48h-82z" />
    <glyph glyph-name="hungarumlaut" unicode="&#x2dd;" horiz-adv-x="455" 
d="M54 549l63 165h123l-96 -165h-90zM215 549l63 165h123l-96 -165h-90z" />
    <glyph glyph-name="dotbelowcomb" unicode="&#x323;" horiz-adv-x="0" 
d="M-195 -214q-24 21 -24 50t24 50t58 21t59 -21t25 -50t-25 -50t-59 -21t-58 21z" />
    <glyph glyph-name="uni0326" unicode="&#x326;" horiz-adv-x="0" 
d="M-73.5 -85.5q23.5 -18.5 23.5 -54.5q0 -47 -40.5 -74t-115.5 -30v46q63 6 74 33h-5q-33 1 -52.5 13.5t-19.5 34.5t20.5 36t52.5 14q39 0 62.5 -18.5z" />
    <glyph glyph-name="uni0338" unicode="&#x338;" horiz-adv-x="0" 
d="M-457 -231l319 929h131l-319 -929h-131z" />
    <glyph glyph-name="tonos" unicode="&#x384;" horiz-adv-x="367" 
d="M66 549l49 165h129l-79 -165h-99z" />
    <glyph glyph-name="dieresistonos" unicode="&#x385;" horiz-adv-x="544" 
d="M215 549l31 165h108l-58 -165h-81zM86 582q-20 21 -20 50t20 50t48 21q30 0 50 -21t20 -50q0 -30 -20 -50.5t-50 -20.5q-28 0 -48 21zM373 582q-20 21 -20 50t20 50t49 21q28 0 48.5 -21t20.5 -50t-20.5 -50t-48.5 -21q-29 0 -49 21z" />
    <glyph glyph-name="Alphatonos" unicode="&#x386;" horiz-adv-x="640" 
d="M381 698l246 -732h-149l-51 169h-225l-49 -169h-140l240 732h128zM44 533l27 165h120l-58 -165h-89zM391 257l-79 259l-75 -259h154z" />
    <glyph glyph-name="Epsilontonos" unicode="&#x388;" horiz-adv-x="624" 
d="M2 533l26 165h120l-57 -165h-89zM553 278h-230v-190h266v-122h-404v732h394v-121h-256v-178h230v-121z" />
    <glyph glyph-name="Etatonos" unicode="&#x389;" horiz-adv-x="769" 
d="M2 533l26 165h120l-57 -165h-89zM323 407h243v291h138v-732h-138v318h-243v-318h-138v732h138v-291z" />
    <glyph glyph-name="Iotatonos" unicode="&#x38a;" horiz-adv-x="388" 
d="M2 533l26 165h120l-57 -165h-89zM323 -34h-138v732h138v-732z" />
    <glyph glyph-name="Omicrontonos" unicode="&#x38c;" horiz-adv-x="722" 
d="M193.5 616.5q75.5 94.5 206.5 94.5q130 0 206 -95t76 -283q0 -189 -76 -284t-206 -95q-131 0 -206.5 94.5t-75.5 284.5q0 189 75.5 283.5zM3 533l26 165h120l-57 -165h-89zM299.5 143q35.5 -62 101.5 -62q135 0 135 252q0 251 -135 251q-137 0 -137 -251
q0 -128 35.5 -190z" />
    <glyph glyph-name="Upsilontonos" unicode="&#x38e;" horiz-adv-x="699" 
d="M419 400l126 298h146l-206 -444v-288h-138v288l-214 439l-56 -160h-89l27 165h275z" />
    <glyph glyph-name="Omegatonos" unicode="&#x38f;" horiz-adv-x="722" 
d="M700 85v-119h-261v134q51 36 77 102t26 157q0 109 -38.5 166t-105.5 57q-68 0 -106.5 -57t-38.5 -166q0 -91 26 -156.5t76 -102.5v-134h-260v119h122q-108 106 -108 284q0 110 38 187t103 116t148 39q82 0 147 -39t102.5 -116t37.5 -187q0 -179 -108 -284h123zM-2 533
l27 165h120l-57 -165h-90z" />
    <glyph glyph-name="iotadieresistonos" unicode="&#x390;" horiz-adv-x="267" 
d="M58 549l31 165h108l-58 -165h-81zM-71 582q-20 21 -20 50t20 50t48 21q30 0 50 -21t20 -50q0 -30 -20 -50.5t-50 -20.5q-28 0 -48 21zM216 582q-20 21 -20 50t20 50t49 21q28 0 48.5 -21t20.5 -50t-20.5 -50t-48.5 -21q-29 0 -49 21zM269 -25q-38 -21 -93 -21
q-73 0 -102.5 42.5t-29.5 116.5v371h130v-346q0 -63 41 -63q18 0 40 11z" />
    <glyph glyph-name="Alpha" unicode="&#x391;" horiz-adv-x="640" 
d="M381 698l246 -732h-149l-51 169h-225l-49 -169h-140l240 732h128zM391 257l-79 259l-75 -259h154z" />
    <glyph glyph-name="Beta" unicode="&#x392;" horiz-adv-x="573" 
d="M538 176q0 -98 -61 -154t-165 -56h-247v732h225q95 0 154.5 -52.5t59.5 -147.5q0 -101 -73 -150q107 -46 107 -172zM201 578v-182h69q43 0 67 24t24 69q0 43 -23.5 66t-67.5 23h-69zM297 86q46 0 71.5 25.5t25.5 72.5t-25.5 72t-72.5 25h-95v-195h96z" />
    <glyph glyph-name="Gamma" unicode="&#x393;" horiz-adv-x="467" 
d="M65 698h395v-124h-258v-608h-137v732z" />
    <glyph glyph-name="uni0394" unicode="&#x394;" horiz-adv-x="614" 
d="M249 698h127l220 -655v-77h-578v77zM171 90h269l-130 416z" />
    <glyph glyph-name="Epsilon" unicode="&#x395;" horiz-adv-x="504" 
d="M433 278h-230v-190h266v-122h-404v732h395v-121h-257v-178h230v-121z" />
    <glyph glyph-name="Zeta" unicode="&#x396;" horiz-adv-x="498" 
d="M465 698v-86l-278 -522h290v-124h-458v87l278 522h-253v123h421z" />
    <glyph glyph-name="Eta" unicode="&#x397;" horiz-adv-x="650" 
d="M203 407h243v291h138v-732h-138v318h-243v-318h-138v732h138v-291z" />
    <glyph glyph-name="Theta" unicode="&#x398;" horiz-adv-x="683" 
d="M78.5 541q38.5 85 106.5 127.5t156 42.5t156.5 -42.5t107 -127.5t38.5 -208q0 -124 -39 -209.5t-107 -127.5t-156 -42t-156 42t-106.5 127.5t-38.5 209.5q0 123 38.5 208zM225.5 144.5q42.5 -62.5 115.5 -62.5q74 0 116 63t42 188t-42.5 187.5t-115.5 62.5t-115.5 -62.5
t-42.5 -187.5q0 -126 42.5 -188.5zM431 274h-180v125h180v-125z" />
    <glyph glyph-name="Iota" unicode="&#x399;" horiz-adv-x="269" 
d="M203 -34h-138v732h138v-732z" />
    <glyph glyph-name="Kappa" unicode="&#x39a;" horiz-adv-x="627" 
d="M622 -34h-168l-166 318l-85 -112v-206h-138v732h138v-237q0 -78 -4 -111q15 28 77 117l164 231h159l-217 -288z" />
    <glyph glyph-name="Lambda" unicode="&#x39b;" horiz-adv-x="622" 
d="M455 -34l-151 533l-146 -533h-145l228 732h134l234 -732h-154z" />
    <glyph glyph-name="Mu" unicode="&#x39c;" horiz-adv-x="727" 
d="M558 698h104v-732h-131v441l-133 -244h-70l-133 247v-444h-130v732h107l193 -371z" />
    <glyph glyph-name="Nu" unicode="&#x39d;" horiz-adv-x="635" 
d="M178 698l264 -464v464h127v-732h-113l-264 463v-463h-127v732h113z" />
    <glyph glyph-name="Xi" unicode="&#x39e;" horiz-adv-x="537" 
d="M497 572h-457v126h457v-126zM462 276h-387v126h387v-126zM497 -34h-457v127h457v-127z" />
    <glyph glyph-name="Omicron" unicode="&#x39f;" horiz-adv-x="645" 
d="M116 616.5q76 94.5 207 94.5q130 0 206 -95t76 -283q0 -189 -76 -284t-206 -95q-131 0 -207 94.5t-76 284.5q0 189 76 283.5zM221.5 143q35.5 -62 101.5 -62q135 0 135 252q0 251 -135 251q-137 0 -137 -251q0 -128 35.5 -190z" />
    <glyph glyph-name="Pi" unicode="&#x3a0;" horiz-adv-x="658" 
d="M65 698h527v-732h-137v607h-253v-607h-137v732z" />
    <glyph glyph-name="Rho" unicode="&#x3a1;" horiz-adv-x="545" 
d="M278 698q74 0 129.5 -29.5t85 -83t29.5 -125.5q0 -71 -29.5 -125t-84.5 -83.5t-130 -29.5h-75v-256h-138v732h213zM264 342q47 0 79.5 30.5t32.5 87.5q0 58 -31.5 88.5t-80.5 30.5h-61v-237h61z" />
    <glyph glyph-name="Sigma" unicode="&#x3a3;" horiz-adv-x="492" 
d="M197 572l172 -235l-184 -244h290v-127h-456v112l195 257l-184 251v112h429v-126h-262z" />
    <glyph glyph-name="Tau" unicode="&#x3a4;" horiz-adv-x="519" 
d="M13 698h492v-123h-177v-609h-138v609h-177v123z" />
    <glyph glyph-name="Upsilon" unicode="&#x3a5;" horiz-adv-x="576" 
d="M296 400l126 298h146l-207 -444v-288h-137v288l-216 444h159z" />
    <glyph glyph-name="Phi" unicode="&#x3a6;" horiz-adv-x="716" 
d="M656.5 189.5q-35.5 -61.5 -96 -98t-135.5 -47.5v-78h-133v78q-76 11 -136.5 47.5t-96 98t-35.5 143.5t35.5 143.5t96 97.5t136.5 47v77h133v-77q76 -11 136 -47.5t95.5 -97.5t35.5 -143t-35.5 -143.5zM196.5 223q34.5 -41 95.5 -53v326q-60 -13 -95 -53.5t-35 -109.5
t34.5 -110zM425 170q60 13 94 53.5t35 109.5q-1 69 -35.5 109.5t-93.5 53.5v-326z" />
    <glyph glyph-name="Chi" unicode="&#x3a7;" horiz-adv-x="615" 
d="M593 698l-211 -357l223 -375h-172l-131 243l-135 -243h-157l223 370l-212 362h168l122 -229l123 229h159z" />
    <glyph glyph-name="Psi" unicode="&#x3a8;" horiz-adv-x="727" 
d="M553 698h136v-242q0 -281 -260 -311v-179h-134v179q-258 30 -258 311v242h136v-216q0 -104 30.5 -151t91.5 -58v425h134v-426q62 12 93 59t31 151v216z" />
    <glyph glyph-name="uni03A9" unicode="&#x3a9;" horiz-adv-x="648" 
d="M627 85v-119h-261v134q51 36 76.5 102t25.5 157q0 109 -38 166t-106 57q-67 0 -105.5 -57t-38.5 -166q0 -184 102 -259v-134h-261v119h123q-108 106 -108 284q0 110 37.5 187t103 116t147.5 39q83 0 148 -39t102.5 -116t37.5 -187q0 -179 -108 -284h123z" />
    <glyph glyph-name="Iotadieresis" unicode="&#x3aa;" horiz-adv-x="269" 
d="M-11.5 790q-21.5 23 -21.5 54q0 32 21.5 54.5t51.5 22.5q32 0 54 -22.5t22 -54.5q0 -31 -22 -54t-54 -23q-30 0 -51.5 23zM173.5 790q-21.5 23 -21.5 54q0 32 21.5 54.5t52.5 22.5t53.5 -22.5t22.5 -54.5q0 -31 -22.5 -54t-53.5 -23t-52.5 23zM203 -34h-138v732h138v-732
z" />
    <glyph glyph-name="Upsilondieresis" unicode="&#x3ab;" horiz-adv-x="576" 
d="M148 790q-22 23 -22 54q0 32 21.5 54.5t52.5 22.5q32 0 54 -22.5t22 -54.5q0 -31 -22 -54t-54 -23q-30 0 -52 23zM333.5 790q-21.5 23 -21.5 54q0 32 21.5 54.5t52.5 22.5t53 -22.5t22 -54.5q0 -31 -22 -54t-53 -23t-52.5 23zM296 400l126 298h146l-207 -444v-288h-137
v288l-216 444h159z" />
    <glyph glyph-name="alphatonos" unicode="&#x3ac;" horiz-adv-x="543" 
d="M243 714h129l-79 -165h-99zM542 -27q-30 -19 -80 -19q-86 0 -110 80q-41 -80 -130 -80q-85 0 -138.5 67.5t-53.5 203.5q0 137 53.5 204.5t138.5 67.5q90 0 131 -80q4 48 5 67h115v-352q0 -32 7.5 -45.5t22.5 -13.5t25 5zM317 108q25 36 25 117q0 82 -24.5 118t-63.5 36
q-41 0 -64.5 -38.5t-23.5 -115.5q0 -76 23.5 -114.5t64.5 -38.5q38 0 63 36z" />
    <glyph glyph-name="epsilontonos" unicode="&#x3ad;" horiz-adv-x="410" 
d="M168 549l49 165h129l-79 -165h-99zM419 77q-47 -123 -196 -123q-90 0 -143 37.5t-53 114.5q0 50 28 84t79 48q-44 16 -68 46.5t-24 71.5q0 68 50 104.5t131 36.5q69 0 115 -27t67 -78l-101 -60q-11 27 -30 40.5t-43 13.5q-25 0 -39.5 -13t-14.5 -36q0 -51 69 -51h44v-108
h-49q-40 0 -59.5 -15t-19.5 -42q0 -28 17.5 -42t45.5 -14q33 0 55.5 17.5t37.5 51.5z" />
    <glyph glyph-name="etatonos" unicode="&#x3ae;" horiz-adv-x="529" 
d="M273 714h130l-80 -165h-99zM441.5 445.5q39.5 -51.5 39.5 -156.5v-520h-133v473q0 65 -15 95.5t-51 30.5q-78 0 -78 -130v-272h-131v359q0 31 -7 44t-22 13q-14 0 -26 -5l-14 102q31 18 81 18q88 0 110 -85q41 85 136 85q71 0 110.5 -51.5z" />
    <glyph glyph-name="iotatonos" unicode="&#x3af;" horiz-adv-x="267" 
d="M54 549l49 165h130l-80 -165h-99zM269 -25q-38 -21 -93 -21q-73 0 -102.5 42.5t-29.5 116.5v371h130v-346q0 -63 41 -63q18 0 40 11z" />
    <glyph glyph-name="upsilondieresistonos" unicode="&#x3b0;" horiz-adv-x="493" 
d="M195 549l32 165h107l-57 -165h-82zM66 582q-20 21 -20 50t20 50t49 21t49.5 -21t20.5 -50t-20.5 -50t-49.5 -21t-49 21zM353.5 582q-20.5 21 -20.5 50t20.5 50t49.5 21q28 0 48 -21t20 -50t-20 -50t-48 -21q-29 0 -49.5 21zM45 484h130v-266q0 -71 14 -107t57 -36
q44 0 63.5 41t19.5 133q0 105 -36 235h135q36 -111 36 -231q0 -140 -55.5 -219.5t-171.5 -79.5q-192 0 -192 237v293z" />
    <glyph glyph-name="alpha" unicode="&#x3b1;" horiz-adv-x="543" 
d="M542 -27q-30 -19 -80 -19q-86 0 -110 80q-41 -80 -130 -80q-85 0 -138.5 67.5t-53.5 203.5q0 137 53.5 204.5t138.5 67.5q90 0 131 -80q4 48 5 67h115v-352q0 -32 7.5 -45.5t22.5 -13.5t25 5zM317 108q25 36 25 117q0 82 -24.5 118t-63.5 36q-41 0 -64.5 -38.5
t-23.5 -115.5q0 -76 23.5 -114.5t64.5 -38.5q38 0 63 36z" />
    <glyph glyph-name="beta" unicode="&#x3b2;" horiz-adv-x="531" 
d="M478 293q32 -47 32 -122q0 -103 -56 -160t-145 -57q-83 0 -128 44v-229h-130v688q0 141 59 211t162 70q59 0 104.5 -25t71 -71.5t25.5 -109.5q0 -57 -21.5 -100.5t-60.5 -69.5q55 -22 87 -69zM350 100q25 27 25 78q0 61 -32.5 91t-88.5 30h-22v112h16q44 0 66.5 28
t22.5 81q0 97 -72 97q-43 0 -63.5 -39t-20.5 -131v-245q0 -68 28 -98.5t75 -30.5q41 0 66 27z" />
    <glyph glyph-name="gamma" unicode="&#x3b3;" horiz-adv-x="481" 
d="M413 183.5q-35 -103.5 -114 -222.5v-192h-132v165l-165 550h146l97 -383q38 80 55 149t17 135q0 39 -8 99h130q9 -60 9 -98q0 -99 -35 -202.5z" />
    <glyph glyph-name="delta" unicode="&#x3b4;" horiz-adv-x="500" 
d="M385 464q45 -50 65 -106.5t20 -126.5q0 -92 -29 -154.5t-78.5 -92.5t-112.5 -30t-113 30t-79 91.5t-29 151.5q0 112 47.5 178.5t125.5 81.5l-139 147v92h351v-111h-169zM310.5 110.5q22.5 38.5 22.5 116.5t-22.5 117t-60.5 39q-39 0 -61.5 -39t-22.5 -117t22.5 -116.5
t61.5 -38.5q38 0 60.5 38.5z" />
    <glyph glyph-name="epsilon" unicode="&#x3b5;" horiz-adv-x="410" 
d="M419 77q-47 -123 -196 -123q-90 0 -143 37.5t-53 114.5q0 50 28 84t79 48q-44 16 -68 46.5t-24 71.5q0 68 50 104.5t131 36.5q69 0 115 -27t67 -78l-101 -60q-11 27 -30 40.5t-43 13.5q-25 0 -39.5 -13t-14.5 -36q0 -51 69 -51h44v-108h-49q-40 0 -59.5 -15t-19.5 -42
q0 -28 17.5 -42t45.5 -14q33 0 55.5 17.5t37.5 51.5z" />
    <glyph glyph-name="zeta" unicode="&#x3b6;" horiz-adv-x="452" 
d="M418 14.5q34 -37.5 34 -94.5q0 -50 -25.5 -87t-79.5 -71l-68 72q22 20 31 34.5t9 30.5q0 26 -21.5 43.5t-71.5 33.5q-56 17 -97 42t-69 74t-28 127q0 105 54.5 204.5t164.5 189.5h-198v113h375v-94q-144 -109 -202.5 -204.5t-58.5 -185.5q0 -51 16.5 -82t45 -47.5
t79.5 -34.5q76 -26 110 -63.5z" />
    <glyph glyph-name="eta" unicode="&#x3b7;" horiz-adv-x="526" 
d="M439 445.5q40 -51.5 40 -156.5v-520h-133v473q0 65 -15.5 95.5t-51.5 30.5t-56.5 -31t-20.5 -99v-272h-131v359q0 31 -7 44t-23 13q-15 0 -25 -5l-14 102q31 18 80 18q44 0 71.5 -20.5t39.5 -63.5q21 42 55.5 63t80.5 21q70 0 110 -51.5z" />
    <glyph glyph-name="theta" unicode="&#x3b8;" horiz-adv-x="506" 
d="M479 347q0 -209 -59 -301t-166 -92q-108 0 -167 92t-59 301q0 392 226 392q225 0 225 -392zM187.5 574q-21.5 -50 -25.5 -165h182q-4 117 -24.5 166t-65.5 49t-66.5 -50zM321 123.5q21 52.5 23 176.5h-182q2 -123 23.5 -176t68.5 -53q46 0 67 52.5z" />
    <glyph glyph-name="iota" unicode="&#x3b9;" horiz-adv-x="267" 
d="M269 -25q-38 -21 -93 -21q-73 0 -102.5 42.5t-29.5 116.5v371h130v-346q0 -63 41 -63q18 0 40 11z" />
    <glyph glyph-name="kappa" unicode="&#x3ba;" horiz-adv-x="483" 
d="M486 -34h-149l-106 210l-52 -74v-136h-125v518h125v-207l86 130q29 46 61 68t71 22q52 0 79 -30l-40 -92q-12 10 -31 10q-16 0 -30 -10.5t-30 -32.5l-34 -49z" />
    <glyph glyph-name="lambda" unicode="&#x3bb;" horiz-adv-x="525" 
d="M538 -26q-43 -20 -92 -20q-58 0 -89 29.5t-47 90.5l-57 218l-115 -326h-136l200 507l-28 90q-10 31 -23 44t-30 13q-24 0 -50 -26l-40 96q47 49 120 49q53 0 86.5 -30t50.5 -90l138 -487q10 -34 22.5 -46.5t34.5 -12.5q16 0 41 10z" />
    <glyph glyph-name="uni03BC" unicode="&#x3bc;" horiz-adv-x="537" 
d="M530 -27q-29 -19 -77 -19q-87 0 -107 89q-29 -89 -108 -89q-31 0 -54 15v-200h-130v715h130v-271q0 -70 14.5 -107t53.5 -37q36 0 57.5 37.5t21.5 111.5v266h130v-358q0 -31 7.5 -45t24.5 -14q13 0 23 5z" />
    <glyph glyph-name="nu" unicode="&#x3bd;" horiz-adv-x="473" 
d="M439 484q9 -57 9 -92q0 -99 -40.5 -202t-131.5 -224h-107l-167 518h146l97 -357q39 76 55.5 139t16.5 125q0 34 -8 93h130z" />
    <glyph glyph-name="xi" unicode="&#x3be;" horiz-adv-x="423" 
d="M401 15q35 -39 35 -98q0 -47 -24.5 -83.5t-79.5 -71.5l-69 72q23 19 32 34t9 33q0 26 -18.5 43t-59.5 31q-102 31 -149.5 77t-47.5 125q0 67 33.5 114.5t95.5 67.5q-49 16 -75.5 49t-26.5 81q0 85 75 123h-92v108h369v-96q-219 -9 -219 -123q0 -41 28 -65.5t82 -24.5h86
v-105h-90q-68 0 -99.5 -29.5t-31.5 -78.5q0 -48 29.5 -72.5t102.5 -47.5q70 -24 105 -63z" />
    <glyph glyph-name="omicron" unicode="&#x3bf;" horiz-adv-x="501" 
d="M60.5 379q30.5 61 80.5 89.5t111 28.5t110 -28t79 -89t30 -155q0 -93 -30 -154t-79 -89t-110 -28t-111 28t-80.5 89t-30.5 154t30.5 154zM190.5 109q23.5 -37 61.5 -37q37 0 59.5 37t22.5 116t-22.5 116.5t-59.5 37.5q-38 0 -61.5 -37.5t-23.5 -116.5t23.5 -116z" />
    <glyph glyph-name="pi" unicode="&#x3c0;" horiz-adv-x="549" 
d="M542 -25q-39 -21 -94 -21q-71 0 -101.5 41t-30.5 118v257h-102v-405l-131 1v404h-80v114h524v-114h-80v-232q0 -32 9.5 -47.5t30.5 -15.5q20 0 40 11z" />
    <glyph glyph-name="rho" unicode="&#x3c1;" horiz-adv-x="515" 
d="M428 429q57 -68 57 -204q0 -137 -55 -204t-139 -67q-69 0 -110 41v-226h-130v440q0 150 59.5 219t161.5 69q99 0 156 -68zM326 113q22 37 22 113q0 78 -21.5 116t-59.5 38q-39 0 -62.5 -36t-23.5 -118q0 -79 23.5 -114.5t62.5 -35.5q37 0 59 37z" />
    <glyph glyph-name="uni03C2" unicode="&#x3c2;" horiz-adv-x="422" 
d="M375 8.5q30 -35.5 30 -89.5q0 -50 -28 -92t-77 -65l-70 72q23 19 32 34t9 34q0 25 -13.5 41t-52.5 32q-81 31 -128 87.5t-47 168.5q0 94 32 153.5t82.5 86t108.5 26.5q61 0 107.5 -28.5t63.5 -92.5l-100 -53q-21 61 -74 61q-39 0 -62 -37.5t-23 -110.5q0 -71 24.5 -106
t86.5 -58q69 -28 99 -63.5z" />
    <glyph glyph-name="sigma" unicode="&#x3c3;" horiz-adv-x="528" 
d="M525 484v-114h-100q47 -64 47 -158q0 -84 -30 -142t-80 -87t-110 -29q-61 0 -111.5 29t-80.5 89t-30 147q0 132 67.5 198.5t178.5 66.5h249zM312 108.5q22 35.5 22 110.5q0 73 -22.5 110t-59.5 37q-38 0 -61.5 -37t-23.5 -110q0 -75 23 -110.5t62 -35.5q38 0 60 35.5z
" />
    <glyph glyph-name="tau" unicode="&#x3c4;" horiz-adv-x="420" 
d="M412 484v-114h-148v-232q0 -63 40 -63q19 0 40 11l15 -111q-18 -10 -43 -15.5t-51 -5.5q-71 0 -101.5 41.5t-30.5 117.5v257h-129v114h408z" />
    <glyph glyph-name="upsilon" unicode="&#x3c5;" horiz-adv-x="493" 
d="M45 484h130v-266q0 -71 14 -107t57 -36q44 0 63.5 41t19.5 133q0 105 -36 235h135q36 -111 36 -231q0 -140 -55.5 -219.5t-171.5 -79.5q-192 0 -192 237v293z" />
    <glyph glyph-name="phi" unicode="&#x3c6;" horiz-adv-x="664" 
d="M567.5 42q-66.5 -68 -171.5 -84v-189h-126v189q-106 16 -173 84t-67 183q0 116 67.5 184t173.5 84v169h125v-169q105 -16 171.5 -84t66.5 -184q0 -115 -66.5 -183zM189.5 124.5q29.5 -36.5 80.5 -47.5l1 298q-52 -12 -81.5 -48.5t-29.5 -101.5q0 -64 29.5 -100.5zM396 77
q107 25 107 148t-107 150v-298z" />
    <glyph glyph-name="chi" unicode="&#x3c7;" horiz-adv-x="481" 
d="M241 265l97 219h136l-172 -353l172 -362h-137l-97 224l-97 -224h-136l172 359l-172 356h138z" />
    <glyph glyph-name="psi" unicode="&#x3c8;" horiz-adv-x="646" 
d="M567 47.5q-52 -75.5 -177 -90.5v-188h-126v188q-121 14 -170 83.5t-49 197.5v246h128v-227q0 -85 19 -125t72 -52v582h126v-583q52 12 74.5 53.5t22.5 125.5q0 110 -39 226h133q38 -109 38 -233q0 -128 -52 -203.5z" />
    <glyph glyph-name="omega" unicode="&#x3c9;" horiz-adv-x="672" 
d="M560 484q38 -56 60 -126.5t22 -152.5q0 -121 -46.5 -186t-126.5 -65q-92 0 -133 89q-20 -43 -53.5 -66t-79.5 -23q-81 0 -127 64.5t-46 186.5q0 82 22 152.5t60 126.5h131q-83 -124 -83 -274q0 -68 15.5 -104t46.5 -36q26 0 38.5 30t12.5 106v136h125v-136
q0 -74 12.5 -105t40.5 -31q60 0 60 140q0 149 -82 274h131z" />
    <glyph glyph-name="iotadieresis" unicode="&#x3ca;" horiz-adv-x="267" 
d="M-43.5 577.5q-21.5 22.5 -21.5 54.5t21.5 54.5t52.5 22.5q32 0 54 -22.5t22 -54.5t-22 -54.5t-54 -22.5q-31 0 -52.5 22.5zM156 578q-22 23 -22 54q0 32 22 54.5t53 22.5t53 -22.5t22 -54.5t-22 -54.5t-53 -22.5t-53 23zM269 -25q-38 -21 -93 -21q-73 0 -102.5 42.5
t-29.5 116.5v371h130v-346q0 -63 41 -63q18 0 40 11z" />
    <glyph glyph-name="upsilondieresis" unicode="&#x3cb;" horiz-adv-x="493" 
d="M93.5 577.5q-21.5 22.5 -21.5 54.5t21.5 54.5t52.5 22.5q32 0 54 -22.5t22 -54.5t-22 -54.5t-54 -22.5q-31 0 -52.5 22.5zM293 578q-22 23 -22 54q0 32 22 54.5t53 22.5t53 -22.5t22 -54.5t-22 -54.5t-53 -22.5t-53 23zM45 484h130v-266q0 -71 14 -107t57 -36
q44 0 63.5 41t19.5 133q0 105 -36 235h135q36 -111 36 -231q0 -140 -55.5 -219.5t-171.5 -79.5q-192 0 -192 237v293z" />
    <glyph glyph-name="omicrontonos" unicode="&#x3cc;" horiz-adv-x="501" 
d="M197 549l49 165h129l-79 -165h-99zM60.5 379q30.5 61 80.5 89.5t111 28.5t110 -28t79 -89t30 -155q0 -93 -30 -154t-79 -89t-110 -28t-111 28t-80.5 89t-30.5 154t30.5 154zM190.5 109q23.5 -37 61.5 -37q37 0 59.5 37t22.5 116t-22.5 116.5t-59.5 37.5
q-38 0 -61.5 -37.5t-23.5 -116.5t23.5 -116z" />
    <glyph glyph-name="upsilontonos" unicode="&#x3cd;" horiz-adv-x="493" 
d="M191 549l49 165h130l-80 -165h-99zM45 484h130v-266q0 -71 14 -107t57 -36q44 0 63.5 41t19.5 133q0 105 -36 235h135q36 -111 36 -231q0 -140 -55.5 -219.5t-171.5 -79.5q-192 0 -192 237v293z" />
    <glyph glyph-name="omegatonos" unicode="&#x3ce;" horiz-adv-x="672" 
d="M281 549l49 165h130l-80 -165h-99zM560 484q38 -56 60 -126.5t22 -152.5q0 -121 -46.5 -186t-126.5 -65q-92 0 -133 89q-20 -43 -53.5 -66t-79.5 -23q-81 0 -127 64.5t-46 186.5q0 82 22 152.5t60 126.5h131q-83 -124 -83 -274q0 -68 15.5 -104t46.5 -36q26 0 38.5 30
t12.5 106v136h125v-136q0 -74 12.5 -105t40.5 -31q60 0 60 140q0 149 -82 274h131z" />
    <glyph glyph-name="uni03D1" unicode="&#x3d1;" horiz-adv-x="546" 
d="M536 416v-117h-77q-6 -177 -61 -261t-161 -84q-85 0 -139 49t-68 132l119 49q16 -113 85 -113q49 0 69.5 55t22.5 173h-20q-142 0 -213.5 49t-71.5 160q0 68 25.5 120.5t73.5 82t113 29.5q99 0 157 -79.5t68 -244.5h78zM188.5 440.5q34.5 -24.5 123.5 -24.5h14
q-5 106 -27.5 157t-68.5 51q-35 0 -55.5 -29t-20.5 -77q0 -53 34.5 -77.5z" />
    <glyph glyph-name="uni03D2" unicode="&#x3d2;" horiz-adv-x="600" 
d="M595 698v-127h-15q-60 0 -104.5 -50t-68.5 -143t-24 -218v-194h-140v195q0 166 -64 302.5t-173 234.5h178q43 -43 79 -105t57 -132q30 107 97 172t151 65h27z" />
    <glyph glyph-name="uni03D6" unicode="&#x3d6;" horiz-adv-x="705" 
d="M12 484h680v-106h-79q45 -92 45 -197q0 -112 -45.5 -169.5t-124.5 -57.5q-95 0 -136 90q-40 -90 -136 -90q-79 0 -124.5 57.5t-45.5 169.5q0 109 45 197h-79v106zM482 378h-260q-46 -84 -46 -182q0 -62 15.5 -94t44.5 -32q26 0 39.5 30t13.5 106v86h126v-86
q0 -76 13.5 -106t39.5 -30q29 0 44.5 32t15.5 94q0 96 -46 182z" />
    <glyph glyph-name="uni0400" unicode="&#x400;" horiz-adv-x="504" 
d="M117 915h132l64 -149h-100zM433 278h-230v-190h266v-122h-404v732h395v-121h-257v-178h230v-121z" />
    <glyph glyph-name="uni0401" unicode="&#x401;" horiz-adv-x="504" 
d="M121 790q-22 23 -22 54q0 32 21.5 54.5t52.5 22.5q32 0 54 -22.5t22 -54.5q0 -31 -22 -54t-54 -23q-30 0 -52 23zM306.5 790q-21.5 23 -21.5 54q0 32 21.5 54.5t52.5 22.5t53 -22.5t22 -54.5q0 -31 -22 -54t-53 -23t-52.5 23zM433 278h-230v-190h266v-122h-404v732h395
v-121h-257v-178h230v-121z" />
    <glyph glyph-name="uni0402" unicode="&#x402;" horiz-adv-x="752" 
d="M613.5 397.5q52.5 -27.5 82.5 -82t30 -132.5q0 -110 -61 -169.5t-166 -59.5q-11 0 -37 2v121l15 -1q49 0 75.5 27.5t26.5 78.5q0 52 -26.5 84t-78.5 32q-57 0 -100.5 -39.5t-43.5 -130.5v-162h-140v609h-177v123h494v-123h-177v-209q62 59 163 59q68 0 120.5 -27.5z" />
    <glyph glyph-name="uni0403" unicode="&#x403;" horiz-adv-x="467" 
d="M217 764l64 165h132l-96 -165h-100zM65 698h395v-124h-258v-608h-137v732z" />
    <glyph glyph-name="uni0404" unicode="&#x404;" horiz-adv-x="561" 
d="M430 184l116 -65q-17 -79 -76 -122t-147 -43q-83 0 -146.5 41.5t-100 126.5t-36.5 211t36.5 211t100.5 126t147 41q88 0 146.5 -43t75.5 -122l-116 -65q-12 53 -40 79t-67 26q-56 0 -91.5 -46.5t-43.5 -142.5h193v-118h-193q7 -102 42 -151t93 -49q83 0 107 105z" />
    <glyph glyph-name="uni0405" unicode="&#x405;" horiz-adv-x="500" 
d="M446 49.5q-31 -48.5 -82.5 -72t-113.5 -23.5q-90 0 -154 46t-83 132l119 64q34 -118 122 -118q38 0 58.5 20t20.5 57q0 31 -16 53t-40 37t-66 35q-56 26 -91.5 50t-60.5 66t-25 106q0 70 31 117t82 69.5t111 22.5q82 0 137.5 -41t72.5 -114l-119 -64q-11 46 -36.5 70
t-61.5 24q-33 0 -53.5 -19.5t-20.5 -53.5q0 -29 15.5 -49t38.5 -34t65 -34q58 -27 94 -51.5t61.5 -67.5t25.5 -108q0 -71 -31 -119.5z" />
    <glyph glyph-name="uni0406" unicode="&#x406;" horiz-adv-x="269" 
d="M203 -34h-138v732h138v-732z" />
    <glyph glyph-name="uni0407" unicode="&#x407;" horiz-adv-x="269" 
d="M-11.5 790q-21.5 23 -21.5 54q0 32 21.5 54.5t51.5 22.5q32 0 54 -22.5t22 -54.5q0 -31 -22 -54t-54 -23q-30 0 -51.5 23zM173.5 790q-21.5 23 -21.5 54q0 32 21.5 54.5t52.5 22.5t53.5 -22.5t22.5 -54.5q0 -31 -22.5 -54t-53.5 -23t-52.5 23zM203 -34h-138v732h138v-732
z" />
    <glyph glyph-name="uni0408" unicode="&#x408;" horiz-adv-x="458" 
d="M7 102l110 62q11 -44 29.5 -63.5t45.5 -19.5q39 0 54.5 36.5t15.5 106.5v474h138v-486q0 -133 -55 -195.5t-151 -62.5q-151 0 -187 148z" />
    <glyph glyph-name="uni0409" unicode="&#x409;" horiz-adv-x="966" 
d="M709 414q108 0 170.5 -60t62.5 -166q0 -105 -62.5 -163.5t-170.5 -58.5h-255v612h-193l-16 -359q-4 -86 -20.5 -141t-65.5 -89.5t-144 -34.5v123q39 0 58.5 16.5t27.5 49t11 92.5l21 463h458v-284h118zM693 89q51 0 78.5 27t27.5 75q0 47 -27.5 73.5t-78.5 26.5h-102
v-202h102z" />
    <glyph glyph-name="uni040A" unicode="&#x40a;" horiz-adv-x="978" 
d="M718 406q110 0 172.5 -58t62.5 -163t-63 -162t-172 -57h-256v314h-259v-314h-138v732h138v-292h259v292h137v-292h119zM708 89q48 0 75 25.5t27 70.5q0 46 -27 71.5t-75 25.5h-109v-193h109z" />
    <glyph glyph-name="uni040B" unicode="&#x40b;" horiz-adv-x="740" 
d="M643.5 359.5q61.5 -64.5 61.5 -194.5v-199h-137v164q0 74 -22.5 119t-88.5 45q-56 0 -91.5 -38.5t-35.5 -126.5v-163h-140v609h-177v123h494v-123h-177v-202q52 51 147 51q105 0 166.5 -64.5z" />
    <glyph glyph-name="uni040C" unicode="&#x40c;" horiz-adv-x="627" 
d="M286 766l63 149h132l-95 -149h-100zM404 340l216 -374h-160l-170 306h-87v-306h-138v732h138v-301h88l170 301h149z" />
    <glyph glyph-name="uni040D" unicode="&#x40d;" horiz-adv-x="650" 
d="M187 928h132l64 -165h-100zM474 698h111v-732h-127v486l-282 -486h-111v732h126v-482z" />
    <glyph glyph-name="uni040E" unicode="&#x40e;" horiz-adv-x="573" 
d="M183 807q-40 42 -40 109h107q2 -30 12.5 -48.5t30.5 -18.5t30.5 18.5t12.5 48.5h107q0 -67 -40.5 -109t-109.5 -42q-70 0 -110 42zM299 337l125 361h141l-206 -529q-32 -81 -56.5 -124.5t-60.5 -67t-92 -23.5q-57 0 -91 23v132q37 -25 78 -25q32 0 53 17t44 64l-226 533
h153z" />
    <glyph glyph-name="uni040F" unicode="&#x40f;" horiz-adv-x="643" 
d="M204 90h235v608h138v-732h-190l-6 -172h-118l-6 172h-192v732h139v-608z" />
    <glyph glyph-name="uni0410" unicode="&#x410;" horiz-adv-x="640" 
d="M381 698l246 -732h-149l-51 169h-225l-49 -169h-140l240 732h128zM391 257l-79 259l-75 -259h154z" />
    <glyph glyph-name="uni0411" unicode="&#x411;" horiz-adv-x="584" 
d="M318 403q109 0 171.5 -59t62.5 -161t-62.5 -159.5t-171.5 -57.5h-254v732h436v-121h-298v-174h116zM308 86q48 0 74.5 25.5t26.5 72.5t-26.5 73t-74.5 26h-106v-197h106z" />
    <glyph glyph-name="uni0412" unicode="&#x412;" horiz-adv-x="573" 
d="M538 176q0 -98 -61 -154t-165 -56h-247v732h225q95 0 154.5 -52.5t59.5 -147.5q0 -101 -73 -150q107 -46 107 -172zM201 578v-182h69q43 0 67 24t24 69q0 43 -23.5 66t-67.5 23h-69zM297 86q46 0 71.5 25.5t25.5 72.5t-25.5 72t-72.5 25h-95v-195h96z" />
    <glyph glyph-name="uni0413" unicode="&#x413;" horiz-adv-x="467" 
d="M65 698h395v-124h-258v-608h-137v732z" />
    <glyph glyph-name="uni0414" unicode="&#x414;" horiz-adv-x="691" 
d="M677 92l-10 -298h-118l-5 172h-405l-5 -172h-119l-9 298h35q41 0 65 26.5t36 80.5t18 146l25 353h406v-606h86zM454 92v480h-145l-17 -243q-5 -83 -17.5 -140.5t-39.5 -96.5h219z" />
    <glyph glyph-name="uni0415" unicode="&#x415;" horiz-adv-x="504" 
d="M433 278h-230v-190h266v-122h-404v732h395v-121h-257v-178h230v-121z" />
    <glyph glyph-name="uni0416" unicode="&#x416;" horiz-adv-x="943" 
d="M736 340l203 -374h-164l-159 306h-76v-306h-137v306h-75l-160 -306h-164l202 374l-191 358h152l158 -301h78v301h137v-301h79l157 301h153z" />
    <glyph glyph-name="uni0417" unicode="&#x417;" horiz-adv-x="513" 
d="M450 279q31 -46 31 -111t-29.5 -113.5t-82 -74.5t-120.5 -26q-181 0 -231 169l111 64q30 -106 118 -106q40 0 64.5 25.5t24.5 73.5q0 51 -34 77.5t-100 26.5h-20v119h31q47 0 74 28t27 72q0 38 -19.5 59.5t-53.5 21.5q-75 0 -108 -108l-107 63q23 84 84 128.5t146 44.5
q62 0 108 -25.5t71 -71t25 -103.5q0 -54 -25 -97t-74 -67q58 -23 89 -69z" />
    <glyph glyph-name="uni0418" unicode="&#x418;" horiz-adv-x="650" 
d="M474 698h111v-732h-127v486l-282 -486h-111v732h126v-482z" />
    <glyph glyph-name="uni0419" unicode="&#x419;" horiz-adv-x="650" 
d="M215.5 807q-40.5 42 -40.5 109h108q1 -30 11 -48.5t31 -18.5t31.5 18.5t11.5 48.5h108q0 -67 -40.5 -109t-110.5 -42q-69 0 -109.5 42zM474 698h111v-732h-127v486l-282 -486h-111v732h126v-482z" />
    <glyph glyph-name="uni041A" unicode="&#x41a;" horiz-adv-x="627" 
d="M404 340l216 -374h-160l-170 306h-87v-306h-138v732h138v-301h88l170 301h149z" />
    <glyph glyph-name="uni041B" unicode="&#x41b;" horiz-adv-x="656" 
d="M591 698v-732h-137v606h-193l-16 -353q-4 -86 -20.5 -141t-65.5 -89.5t-144 -34.5v123q39 0 58.5 16.5t27.5 49t11 92.5l21 463h458z" />
    <glyph glyph-name="uni041C" unicode="&#x41c;" horiz-adv-x="727" 
d="M558 698h104v-732h-131v441l-133 -244h-70l-133 247v-444h-130v732h107l193 -371z" />
    <glyph glyph-name="uni041D" unicode="&#x41d;" horiz-adv-x="650" 
d="M203 407h243v291h138v-732h-138v318h-243v-318h-138v732h138v-291z" />
    <glyph glyph-name="uni041E" unicode="&#x41e;" horiz-adv-x="645" 
d="M116 616.5q76 94.5 207 94.5q130 0 206 -95t76 -283q0 -189 -76 -284t-206 -95q-131 0 -207 94.5t-76 284.5q0 189 76 283.5zM221.5 143q35.5 -62 101.5 -62q135 0 135 252q0 251 -135 251q-137 0 -137 -251q0 -128 35.5 -190z" />
    <glyph glyph-name="uni041F" unicode="&#x41f;" horiz-adv-x="658" 
d="M65 698h527v-732h-137v607h-253v-607h-137v732z" />
    <glyph glyph-name="uni0420" unicode="&#x420;" horiz-adv-x="545" 
d="M278 698q74 0 129.5 -29.5t85 -83t29.5 -125.5q0 -71 -29.5 -125t-84.5 -83.5t-130 -29.5h-75v-256h-138v732h213zM264 342q47 0 79.5 30.5t32.5 87.5q0 58 -31.5 88.5t-80.5 30.5h-61v-237h61z" />
    <glyph glyph-name="uni0421" unicode="&#x421;" horiz-adv-x="561" 
d="M430 185l116 -65q-17 -79 -75 -122.5t-146 -43.5q-83 0 -147.5 41.5t-101 126.5t-36.5 211t36.5 211t101 126t147.5 41q88 0 146 -43t75 -122l-116 -65q-31 102 -110 102q-61 0 -98 -62t-37 -188t37 -188t98 -62q79 0 110 102z" />
    <glyph glyph-name="uni0422" unicode="&#x422;" horiz-adv-x="519" 
d="M13 698h492v-123h-177v-609h-138v609h-177v123z" />
    <glyph glyph-name="uni0423" unicode="&#x423;" horiz-adv-x="573" 
d="M299 337l125 361h141l-206 -529q-32 -81 -56.5 -124.5t-60.5 -67t-92 -23.5q-57 0 -91 23v132q37 -25 78 -25q32 0 53 17t44 64l-226 533h153z" />
    <glyph glyph-name="uni0424" unicode="&#x424;" horiz-adv-x="716" 
d="M656.5 189.5q-35.5 -61.5 -96 -98t-135.5 -47.5v-78h-133v78q-76 11 -136.5 47.5t-96 98t-35.5 143.5t35.5 143.5t96 97.5t136.5 47v77h133v-77q76 -11 136 -47.5t95.5 -97.5t35.5 -143t-35.5 -143.5zM196.5 223q34.5 -41 95.5 -53v326q-60 -13 -95 -53.5t-35 -109.5
t34.5 -110zM425 170q60 13 94 53.5t35 109.5q-1 69 -35.5 109.5t-93.5 53.5v-326z" />
    <glyph glyph-name="uni0425" unicode="&#x425;" horiz-adv-x="615" 
d="M593 698l-211 -357l223 -375h-172l-131 243l-135 -243h-157l223 370l-212 362h168l122 -229l123 229h159z" />
    <glyph glyph-name="uni0426" unicode="&#x426;" horiz-adv-x="693" 
d="M439 698h138v-608h86l-10 -296h-118l-6 172h-464v732h139v-608h235v608z" />
    <glyph glyph-name="uni0427" unicode="&#x427;" horiz-adv-x="613" 
d="M410 698h137v-732h-137v284q-54 -42 -147 -42q-106 0 -167 55.5t-61 173.5v261h138v-226q0 -69 26.5 -102.5t88.5 -33.5q122 0 122 137v225z" />
    <glyph glyph-name="uni0428" unicode="&#x428;" horiz-adv-x="887" 
d="M512 92h173v606h136v-732h-756v732h138v-606h171v606h138v-606z" />
    <glyph glyph-name="uni0429" unicode="&#x429;" horiz-adv-x="935" 
d="M685 698h136v-606h84l-10 -298h-118l-5 172h-707v732h138v-606h171v606h138v-606h173v606z" />
    <glyph glyph-name="uni042A" unicode="&#x42a;" horiz-adv-x="691" 
d="M432 414q109 0 171.5 -60t62.5 -166q0 -105 -62.5 -163.5t-171.5 -58.5h-253v615h-170v117h307v-284h116zM417 89q51 0 79 27t28 75q0 47 -28 73.5t-79 26.5h-101v-202h101z" />
    <glyph glyph-name="uni042B" unicode="&#x42b;" horiz-adv-x="828" 
d="M319 414q109 0 171.5 -60t62.5 -166q0 -105 -62.5 -163.5t-171.5 -58.5h-254v732h138v-284h116zM763 -34h-138v732h138v-732zM304 89q51 0 78.5 27t27.5 75q0 47 -27.5 73.5t-78.5 26.5h-101v-202h101z" />
    <glyph glyph-name="uni042C" unicode="&#x42c;" horiz-adv-x="578" 
d="M319 414q109 0 171.5 -60t62.5 -166q0 -105 -62.5 -163.5t-171.5 -58.5h-254v732h138v-284h116zM304 89q51 0 78.5 27t27.5 75q0 47 -27.5 73.5t-78.5 26.5h-101v-202h101z" />
    <glyph glyph-name="uni042D" unicode="&#x42d;" horiz-adv-x="561" 
d="M331 128q35 49 42 151h-193v118h193q-8 96 -43.5 142.5t-91.5 46.5q-39 0 -67 -26t-40 -79l-116 65q17 79 75.5 122t146.5 43q83 0 147 -41t100.5 -126t36.5 -211t-36.5 -211t-100 -126.5t-146.5 -41.5q-88 0 -147 43t-76 122l116 65q24 -105 107 -105q58 0 93 49z" />
    <glyph glyph-name="uni042E" unicode="&#x42e;" horiz-adv-x="860" 
d="M751 616q70 -95 70 -283q0 -189 -70 -284t-190 -95q-113 0 -181.5 82t-77.5 247h-99v-317h-138v732h138v-289h100q15 151 82.5 226.5t175.5 75.5q120 0 190 -95zM676 333q0 250 -115 250q-116 0 -116 -250q0 -129 30.5 -190.5t85.5 -61.5q115 0 115 252z" />
    <glyph glyph-name="uni042F" unicode="&#x42f;" horiz-adv-x="575" 
d="M510 698v-732h-136v271h-67h-5l-143 -270l-159 -1l167 301q-54 28 -83 79.5t-29 120.5t29.5 121t83.5 81t127 29h215zM374 357v222h-59q-48 0 -81.5 -28.5t-33.5 -81.5q0 -54 33.5 -83t81.5 -29h59z" />
    <glyph glyph-name="uni0430" unicode="&#x430;" horiz-adv-x="475" 
d="M379 445q49 -52 49 -154v-325h-111q-2 30 -6 63q-37 -75 -123 -75q-65 0 -110 39.5t-45 119.5q0 84 53 129.5t132 45.5q40 0 80 -12q-1 58 -18 82t-50 24q-28 0 -47 -16.5t-32 -45.5l-95 59q23 56 70.5 87t115.5 31q88 0 137 -52zM298 179q-27 10 -54 10
q-36 0 -57.5 -18.5t-21.5 -50.5q0 -29 16 -43.5t40 -14.5q34 0 55.5 25t21.5 73v19z" />
    <glyph glyph-name="uni0431" unicode="&#x431;" horiz-adv-x="505" 
d="M378.5 458.5q44.5 -29.5 70.5 -90t26 -148.5q0 -136 -60.5 -201t-159.5 -65q-104 0 -164 81.5t-60 281.5q0 117 21 198t66 129q26 28 59.5 43t64.5 20.5t79 9.5q41 3 66 7.5t42 15.5l-1 -120q-15 -11 -36 -14.5t-56 -5.5q-50 -3 -79.5 -10.5t-51.5 -32.5
q-17 -18 -26 -46.5t-15 -71.5q44 49 115 49q55 0 99.5 -29.5zM315 107.5q23 36.5 23 111.5q0 76 -23 113.5t-62 37.5t-62.5 -38t-23.5 -113t23.5 -111.5t62.5 -36.5t62 36.5z" />
    <glyph glyph-name="uni0432" unicode="&#x432;" horiz-adv-x="468" 
d="M447 115q0 -70 -47 -109.5t-130 -39.5h-216v519h202q74 0 121.5 -38t47.5 -106q0 -74 -57 -107q79 -31 79 -119zM182 382v-105h55q57 0 57 52q0 25 -14 39t-43 14h-55zM250 69q65 0 65 57q0 26 -15 39.5t-49 13.5h-69v-110h68z" />
    <glyph glyph-name="uni0433" unicode="&#x433;" horiz-adv-x="388" 
d="M54 485h325v-116h-194v-403h-131v519z" />
    <glyph glyph-name="uni0434" unicode="&#x434;" horiz-adv-x="563" 
d="M545 75l-10 -281h-110l-5 169h-282l-6 -169h-112l-9 281h33q36 0 54 25t25.5 74t14.5 149l11 162h323v-410h73zM349 75v298h-88l-5 -67q-5 -86 -14 -140.5t-28 -90.5h135z" />
    <glyph glyph-name="uni0435" unicode="&#x435;" horiz-adv-x="463" 
d="M388 433.5q53 -63.5 53 -176.5q0 -29 -5 -69h-272q10 -119 87 -119q51 0 78 60l96 -58q-19 -60 -66.5 -88.5t-111.5 -28.5q-96 0 -156.5 66.5t-60.5 203.5q0 94 30 155t79.5 89.5t107.5 28.5q88 0 141 -63.5zM193 360.5q-21 -25.5 -28 -74.5h147q-1 51 -18.5 75.5
t-48.5 24.5t-52 -25.5z" />
    <glyph glyph-name="uni0436" unicode="&#x436;" horiz-adv-x="696" 
d="M452 282l107 203h133l-139 -252l142 -267h-143l-103 202h-37v-202h-125v202h-39l-103 -202h-142l141 267l-138 252h132l109 -203h40v203h125v-203h40z" />
    <glyph glyph-name="uni0437" unicode="&#x437;" horiz-adv-x="410" 
d="M99 134q15 -34 37.5 -51.5t55.5 -17.5q28 0 45.5 14t17.5 42q0 27 -19.5 42t-59.5 15h-48v108h43q69 0 69 51q0 23 -14.5 36t-39.5 13q-24 0 -43 -14t-30 -40l-101 60q45 105 182 105q81 0 131 -36.5t50 -104.5q0 -41 -23.5 -71.5t-68.5 -46.5q52 -13 79.5 -47.5
t27.5 -84.5q0 -77 -52.5 -114.5t-143.5 -37.5q-149 0 -196 123z" />
    <glyph glyph-name="uni0438" unicode="&#x438;" horiz-adv-x="521" 
d="M177 485v-308l186 308h104v-519h-123v309l-188 -309h-102v519h123z" />
    <glyph glyph-name="uni0439" unicode="&#x439;" horiz-adv-x="521" 
d="M155 593q-40 44 -40 121h108q2 -78 42 -78q41 0 43 78h107q0 -77 -39.5 -121t-110.5 -44q-70 0 -110 44zM177 485v-308l186 308h104v-519h-123v309l-188 -309h-102v519h123z" />
    <glyph glyph-name="uni043A" unicode="&#x43a;" 
d="M239 282l118 202h140l-150 -251l152 -267h-150l-112 201h-52v-201h-131v519h131v-203h54z" />
    <glyph glyph-name="uni043B" unicode="&#x43b;" horiz-adv-x="513" 
d="M458 485v-519h-130v403h-105l-8 -183q-3 -78 -18.5 -126.5t-58.5 -77t-125 -28.5v123q45 0 61 29t19 96l13 283h352z" />
    <glyph glyph-name="uni043C" unicode="&#x43c;" horiz-adv-x="605" 
d="M445 485h105v-519h-117v292l-100 -192h-61l-101 182v-282h-117v519h104l145 -269z" />
    <glyph glyph-name="uni043D" unicode="&#x43d;" horiz-adv-x="516" 
d="M187 286h142v199h133v-519h-133v206h-142v-206h-133v519h133v-199z" />
    <glyph glyph-name="uni043E" unicode="&#x43e;" horiz-adv-x="501" 
d="M60.5 379q30.5 61 80.5 89.5t111 28.5t110 -28t79 -89t30 -155q0 -93 -30 -154t-79 -89t-110 -28t-111 28t-80.5 89t-30.5 154t30.5 154zM190.5 109q23.5 -37 61.5 -37q37 0 59.5 37t22.5 116t-22.5 116.5t-59.5 37.5q-38 0 -61.5 -37.5t-23.5 -116.5t23.5 -116z" />
    <glyph glyph-name="uni043F" unicode="&#x43f;" horiz-adv-x="516" 
d="M54 484h408v-518h-133v403h-142v-403h-133v518z" />
    <glyph glyph-name="uni0440" unicode="&#x440;" horiz-adv-x="528" 
d="M444.5 429q53.5 -68 53.5 -204t-53.5 -203.5t-138.5 -67.5q-80 0 -120 63v-248h-132v715h117q0 -31 5 -66q41 79 130 79q85 0 138.5 -68zM338.5 109.5q23.5 38.5 23.5 115.5t-23.5 115t-64.5 38q-38 0 -63 -35.5t-25 -117.5q0 -81 24.5 -117.5t63.5 -36.5q41 0 64.5 38.5
z" />
    <glyph glyph-name="uni0441" unicode="&#x441;" horiz-adv-x="421" 
d="M292 87.5q18 15.5 28 48.5l100 -56q-17 -68 -62 -97t-104 -29t-110 28t-82.5 89t-31.5 154t31.5 154t82.5 89.5t110 28.5q60 0 105 -29.5t61 -96.5l-100 -56q-10 33 -28 48.5t-42 15.5q-39 0 -61.5 -39t-22.5 -115q0 -75 22.5 -114t61.5 -39q24 0 42 15.5z" />
    <glyph glyph-name="uni0442" unicode="&#x442;" horiz-adv-x="427" 
d="M8 369v116h412v-116h-142v-403h-130v403h-140z" />
    <glyph glyph-name="uni0443" unicode="&#x443;" horiz-adv-x="491" 
d="M255 154l93 330h136l-180 -554q-32 -96 -71 -135t-105 -39q-74 0 -115 38l50 101q24 -19 56 -19q26 0 41.5 13.5t27.5 50.5l6 18l-188 526h149z" />
    <glyph glyph-name="uni0444" unicode="&#x444;" horiz-adv-x="664" 
d="M567.5 42q-66.5 -68 -171.5 -84v-189h-126v189q-106 16 -173 84t-67 183q0 116 67.5 184t173.5 84v169h125v-169q105 -16 171.5 -84t66.5 -184q0 -115 -66.5 -183zM189.5 124.5q29.5 -36.5 80.5 -47.5l1 298q-52 -12 -81.5 -48.5t-29.5 -101.5q0 -64 29.5 -100.5zM396 77
q107 25 107 148t-107 150v-298z" />
    <glyph glyph-name="uni0445" unicode="&#x445;" horiz-adv-x="464" 
d="M235 345l77 139h145l-156 -254l156 -264h-147l-80 141l-78 -141h-145l157 256l-157 262h148z" />
    <glyph glyph-name="uni0446" unicode="&#x446;" horiz-adv-x="549" 
d="M462 484v-403h81l-10 -287h-112l-5 172h-362v518h133v-403h142v403h133z" />
    <glyph glyph-name="uni0447" unicode="&#x447;" horiz-adv-x="502" 
d="M316 485h131v-519h-131v175q-38 -33 -106 -33q-79 0 -123.5 41t-44.5 126v210h133v-172q0 -43 16 -63t51 -20q37 0 55.5 22.5t18.5 71.5v161z" />
    <glyph glyph-name="uni0448" unicode="&#x448;" horiz-adv-x="701" 
d="M414 81h106v403h126v-518h-592v518h126v-403h107v403h127v-403z" />
    <glyph glyph-name="uni0449" unicode="&#x449;" horiz-adv-x="734" 
d="M646 484v-403h82l-10 -287h-111l-6 172h-547v518h126v-403h107v403h127v-403h106v403h126z" />
    <glyph glyph-name="uni044A" unicode="&#x44a;" horiz-adv-x="572" 
d="M369 307q86 0 134.5 -46t48.5 -124q0 -79 -48.5 -125t-134.5 -46h-214v403h-143v116h277v-178h80zM344 71q32 0 51 16.5t19 49.5q0 36 -19 50t-51 14h-55v-130h55z" />
    <glyph glyph-name="uni044B" unicode="&#x44b;" horiz-adv-x="698" 
d="M267 307q86 0 134.5 -46t48.5 -124q0 -79 -48.5 -125t-134.5 -46h-213v519h133v-178h80zM644 -34h-134v519h134v-519zM243 71q32 0 50.5 16.5t18.5 49.5q0 64 -69 64h-56v-130h56z" />
    <glyph glyph-name="uni044C" unicode="&#x44c;" horiz-adv-x="470" 
d="M267 307q86 0 134.5 -46t48.5 -124q0 -79 -48.5 -125t-134.5 -46h-213v519h133v-178h80zM243 71q32 0 50.5 16.5t18.5 49.5q0 64 -69 64h-56v-130h56z" />
    <glyph glyph-name="uni044D" unicode="&#x44d;" horiz-adv-x="421" 
d="M226 95q22 27 26 82h-125v106h124q-6 51 -27 75.5t-54 24.5q-48 0 -67 -59l-100 57q15 61 60 88.5t105 27.5q59 0 110 -28.5t82 -89.5t31 -154t-31.5 -154t-82 -89t-109.5 -28q-60 0 -104.5 27.5t-60.5 89.5l100 57q10 -32 26.5 -46t40.5 -14q34 0 56 27z" />
    <glyph glyph-name="uni044E" unicode="&#x44e;" horiz-adv-x="704" 
d="M571 468.5q47 -28.5 75 -89.5t28 -154q0 -137 -58.5 -204t-149.5 -67q-81 0 -138 54.5t-68 165.5h-74v-208h-132v518h132v-195h76q14 105 69.5 156.5t134.5 51.5q58 0 105 -28.5zM519.5 110q20.5 37 20.5 115q0 79 -20.5 116t-54.5 37q-35 0 -55.5 -36.5t-20.5 -116.5
q0 -79 20.5 -115.5t55.5 -36.5q34 0 54.5 37z" />
    <glyph glyph-name="uni044F" unicode="&#x44f;" horiz-adv-x="487" 
d="M433 485v-519h-130v185h-44l-107 -184l-146 -1l127 206q-41 21 -63 58.5t-22 87.5q0 75 48.5 121t133.5 46h203zM303 258v119h-59q-28 0 -44.5 -15t-16.5 -45q0 -29 16.5 -44t44.5 -15h59z" />
    <glyph glyph-name="uni0450" unicode="&#x450;" horiz-adv-x="463" 
d="M107 714h132l63 -165h-100zM388 433.5q53 -63.5 53 -176.5q0 -29 -5 -69h-272q10 -119 87 -119q51 0 78 60l96 -58q-19 -60 -66.5 -88.5t-111.5 -28.5q-96 0 -156.5 66.5t-60.5 203.5q0 94 30 155t79.5 89.5t107.5 28.5q88 0 141 -63.5zM193 360.5q-21 -25.5 -28 -74.5
h147q-1 51 -18.5 75.5t-48.5 24.5t-52 -25.5z" />
    <glyph glyph-name="uni0451" unicode="&#x451;" horiz-adv-x="463" 
d="M92 577q-22 23 -22 54q0 32 21.5 54.5t52.5 22.5q32 0 54 -22.5t22 -54.5q0 -31 -22 -54t-54 -23q-30 0 -52 23zM291 577q-22 23 -22 54q0 32 22 54.5t53 22.5t53 -22.5t22 -54.5q0 -31 -22 -54t-53 -23t-53 23zM388 433.5q53 -63.5 53 -176.5q0 -29 -5 -69h-272
q10 -119 87 -119q51 0 78 60l96 -58q-19 -60 -66.5 -88.5t-111.5 -28.5q-96 0 -156.5 66.5t-60.5 203.5q0 94 30 155t79.5 89.5t107.5 28.5q88 0 141 -63.5zM193 360.5q-21 -25.5 -28 -74.5h147q-1 51 -18.5 75.5t-48.5 24.5t-52 -25.5z" />
    <glyph glyph-name="uni0452" unicode="&#x452;" horiz-adv-x="525" 
d="M438 445.5q40 -51.5 40 -156.5v-343q0 -101 -46 -145.5t-117 -44.5q-64 0 -112 37l51 97q20 -16 44 -16t35.5 19t11.5 71v278q0 65 -15.5 95.5t-51.5 30.5t-56.5 -31t-20.5 -99v-272h-132v576h-64v98h64v87h132v-87h106v-98h-106v-114q41 69 127 69q70 0 110 -51.5z" />
    <glyph glyph-name="uni0453" unicode="&#x453;" horiz-adv-x="388" 
d="M165 551l64 165h132l-96 -165h-100zM54 485h325v-116h-194v-403h-131v519z" />
    <glyph glyph-name="uni0454" unicode="&#x454;" horiz-adv-x="421" 
d="M291.5 82q16.5 14 26.5 46l99 -57q-15 -62 -59.5 -89.5t-104.5 -27.5q-59 0 -109.5 28t-82 89t-31.5 154t31 154t82 89.5t110 28.5t104 -27.5t60 -88.5l-99 -57q-19 59 -67 59q-33 0 -54 -24.5t-28 -75.5h125v-106h-126q5 -55 27 -82t56 -27q24 0 40.5 14z" />
    <glyph glyph-name="uni0455" unicode="&#x455;" horiz-adv-x="392" 
d="M328 -3q-50 -43 -131 -43q-70 0 -120 34t-67 98l99 55q25 -72 86 -72q24 0 36 11t12 29q0 22 -18.5 36t-58.5 32q-42 20 -68.5 37t-46 47.5t-19.5 75.5q0 75 50.5 117.5t128.5 42.5q67 0 109 -32.5t52 -85.5l-96 -54q-9 29 -26.5 43t-39.5 14q-21 0 -32.5 -11t-11.5 -28
q0 -22 18.5 -36t58.5 -32q43 -20 69.5 -37t46 -47.5t19.5 -77.5q0 -73 -50 -116z" />
    <glyph glyph-name="uni0456" unicode="&#x456;" horiz-adv-x="238" 
d="M65 580.5q-23 23.5 -23 55.5t23 55t54 23q30 0 53.5 -23t23.5 -55t-23 -55.5t-54 -23.5t-54 23.5zM185 -34h-132v518h132v-518z" />
    <glyph glyph-name="uni0457" unicode="&#x457;" horiz-adv-x="258" 
d="M-4.5 577.5q-21.5 22.5 -21.5 54.5q0 31 21.5 54t51.5 23q32 0 54 -23t22 -54q0 -32 -22 -54.5t-54 -22.5q-30 0 -51.5 22.5zM156.5 578q-21.5 23 -21.5 54t21.5 54t52.5 23t53.5 -23t22.5 -54q0 -32 -22.5 -54.5t-53.5 -22.5t-52.5 23zM60 -34v518h139v-518h-139z" />
    <glyph glyph-name="uni0458" unicode="&#x458;" horiz-adv-x="239" 
d="M66 580.5q-22 23.5 -22 55.5t21.5 55t52.5 23q32 0 55 -23t23 -55t-23 -55.5t-55 -23.5q-30 0 -52 23.5zM-56 -231.5q-30 12.5 -44 32.5l59 101q18 -19 44 -19q30 0 41 23.5t11 79.5v498h132v-511q0 -109 -48 -163t-127 -54q-38 0 -68 12.5z" />
    <glyph glyph-name="uni0459" unicode="&#x459;" horiz-adv-x="744" 
d="M542 307q86 0 134 -45.5t48 -124.5t-48 -125t-134 -46h-212v403h-105l-8 -183q-3 -78 -18.5 -126.5t-58.5 -77t-125 -28.5v123q45 0 61 29t19 96l13 283h354v-178h80zM518 71q33 0 51.5 16.5t18.5 49.5q0 64 -70 64h-56v-130h56z" />
    <glyph glyph-name="uni045A" unicode="&#x45a;" horiz-adv-x="744" 
d="M540 295q87 0 135.5 -44t48.5 -119q0 -77 -49 -121.5t-135 -44.5h-211v215h-142v-215h-133v519h133v-190h142v190h133v-190h78zM518 71q34 0 52 14t18 47q0 34 -19 47t-51 13h-56v-121h56z" />
    <glyph glyph-name="uni045B" unicode="&#x45b;" horiz-adv-x="525" 
d="M438 445.5q40 -51.5 40 -156.5v-323h-132v276q0 64 -16 95t-52 31t-56.5 -31t-20.5 -99v-272h-132v576h-64v98h64v87h132v-87h106v-98h-106v-114q41 69 127 69q70 0 110 -51.5z" />
    <glyph glyph-name="uni045C" unicode="&#x45c;" 
d="M216 550l63 165h132l-95 -165h-100zM239 282l118 202h140l-150 -251l152 -267h-150l-112 201h-52v-201h-131v519h131v-203h54z" />
    <glyph glyph-name="uni045D" unicode="&#x45d;" horiz-adv-x="521" 
d="M127 715h132l64 -165h-100zM177 485v-308l186 308h104v-519h-123v309l-188 -309h-102v519h123z" />
    <glyph glyph-name="uni045E" unicode="&#x45e;" horiz-adv-x="491" 
d="M142.5 593q-39.5 44 -39.5 121h107q3 -78 42 -78q41 0 44 78h107q0 -77 -40 -121t-111 -44q-70 0 -109.5 44zM255 154l93 330h136l-180 -554q-32 -96 -71 -135t-105 -39q-74 0 -115 38l50 101q24 -19 56 -19q26 0 41.5 13.5t27.5 50.5l6 18l-188 526h149z" />
    <glyph glyph-name="uni045F" unicode="&#x45f;" horiz-adv-x="516" 
d="M187 81h142v403h133v-518h-143l-5 -172h-113l-5 172h-142v518h133v-403z" />
    <glyph glyph-name="uni0462" unicode="&#x462;" horiz-adv-x="648" 
d="M389 395q108 0 171 -57.5t63 -157.5q0 -102 -62.5 -158t-171.5 -56h-254v529h-128v104h128v99h137v-99h179v-104h-179v-100h117zM375 93q51 0 78 24t27 68q0 43 -27.5 67.5t-77.5 24.5h-103v-184h103z" />
    <glyph glyph-name="uni0463" unicode="&#x463;" horiz-adv-x="517" 
d="M313 300q87 0 135.5 -45t48.5 -122t-49 -122t-135 -45h-209v420h-98v99h98v242h133v-242h136v-99h-136v-86h76zM290 69q70 0 70 64q0 38 -18.5 51.5t-51.5 13.5h-53v-129h53z" />
    <glyph glyph-name="uni046B" unicode="&#x46b;" horiz-adv-x="575" 
d="M375 256q79 -3 128.5 -69.5t49.5 -220.5h-119q0 105 -23.5 143t-63.5 41v-184h-119v184q-26 -2 -45 -16t-30.5 -54t-11.5 -114h-119q0 154 49.5 220.5t128.5 69.5l-152 229h479zM342 386h-110l57 -87z" />
    <glyph glyph-name="uni0472" unicode="&#x472;" horiz-adv-x="645" 
d="M469.5 669.5q63.5 -41.5 99.5 -126t36 -210.5q0 -127 -36 -211.5t-99.5 -126t-146.5 -41.5q-129 0 -206 95t-77 284q0 127 36 211.5t99.5 125.5t147.5 41q83 0 146.5 -41.5zM231 540q-35 -47 -42 -145h267q-14 192 -133 192q-57 0 -92 -47zM456 276h-267
q14 -198 134 -198t133 198z" />
    <glyph glyph-name="uni0473" unicode="&#x473;" horiz-adv-x="501" 
d="M362 469q49 -28 79 -89t30 -155q0 -93 -30 -154t-79 -89t-110 -28t-111 28t-80.5 89t-30.5 154t30.5 154t80.5 89.5t111 28.5t110 -28zM198.5 359.5q-21.5 -24.5 -27.5 -76.5h159q-6 52 -27 76.5t-51 24.5q-32 0 -53.5 -24.5zM305 93q21 27 26 84h-161q6 -57 27.5 -84
t54.5 -27q32 0 53 27z" />
    <glyph glyph-name="uni0474" unicode="&#x474;" horiz-adv-x="679" 
d="M699 669l-44 -107q-22 22 -48 22q-22 0 -36.5 -17t-27.5 -55l-177 -546h-108l-245 732h158l144 -496l97 338q24 87 62 129t109 42q70 0 116 -42z" />
    <glyph glyph-name="uni0475" unicode="&#x475;" horiz-adv-x="537" 
d="M541 455l-39 -101q-18 24 -40 24q-18 0 -31 -15.5t-25 -51.5l-116 -344h-107l-176 517h146l91 -318l57 187q23 76 54 110t85 34q63 0 101 -42z" />
    <glyph glyph-name="uni0490" unicode="&#x490;" horiz-adv-x="471" 
d="M65 698h272l21 150h118l-18 -274h-255v-608h-138v732z" />
    <glyph glyph-name="uni0491" unicode="&#x491;" horiz-adv-x="398" 
d="M271 485l20 125h112l-17 -241h-201v-403h-131v519h217z" />
    <glyph glyph-name="uni0492" unicode="&#x492;" horiz-adv-x="482" 
d="M65 698h408v-124h-271v-188h104v-123h-104v-297h-137v297h-65v123h65v312z" />
    <glyph glyph-name="uni0493" unicode="&#x493;" horiz-adv-x="419" 
d="M81 485h332v-116h-201v-106h107v-114h-107v-183h-131v183h-68v114h68v222z" />
    <glyph glyph-name="uni0497" unicode="&#x497;" horiz-adv-x="724" 
d="M692 485l-139 -252l86 -158h106l-10 -281h-112l-6 172h-65l-103 202h-37v-202h-125v202h-39l-103 -202h-142l141 267l-138 252h132l109 -203h40v203h125v-203h40l107 203h133z" />
    <glyph glyph-name="uni049A" unicode="&#x49a;" horiz-adv-x="618" 
d="M601 698l-206 -358l149 -254h85l-9 -292h-118l-6 172h-45l-170 306h-78v-306h-138v732h138v-301h79l170 301h149z" />
    <glyph glyph-name="uni049B" unicode="&#x49b;" 
d="M497 484l-150 -251l93 -158h71l-9 -281h-113l-5 172h-35l-112 201h-52v-201h-131v519h131v-203h54l118 202h140z" />
    <glyph glyph-name="uni049C" unicode="&#x49c;" horiz-adv-x="637" 
d="M445 340l185 -374h-155l-144 306h-13v-136h-90v136h-35v-306h-128v732h128v-301h35v138h90v-138h16l141 301h145z" />
    <glyph glyph-name="uni049D" unicode="&#x49d;" horiz-adv-x="521" 
d="M291 282l98 202h124l-123 -251l126 -267h-135l-92 202h-9v-91h-82v91h-22v-202h-122v519h122v-203h22v92h82v-92h11z" />
    <glyph glyph-name="uni04A2" unicode="&#x4a2;" horiz-adv-x="692" 
d="M584 698v-612h88l-9 -292h-118l-5 172h-95v318h-242v-318h-138v732h138v-291h242v291h139z" />
    <glyph glyph-name="uni04A3" unicode="&#x4a3;" horiz-adv-x="564" 
d="M462 485v-410h84l-10 -281h-112l-6 172h-89v206h-142v-206h-133v519h133v-199h142v199h133z" />
    <glyph glyph-name="uni04AE" unicode="&#x4ae;" horiz-adv-x="576" 
d="M296 400l126 298h146l-207 -444v-288h-137v288l-216 444h159z" />
    <glyph glyph-name="uni04AF" unicode="&#x4af;" horiz-adv-x="490" 
d="M253 166l92 318h138l-170 -483v-232h-131v229l-175 486h147z" />
    <glyph glyph-name="uni04B0" unicode="&#x4b0;" horiz-adv-x="576" 
d="M296 400l126 298h146l-161 -347h115v-135h-159v-250h-141v250h-158v135h113l-169 347h159z" />
    <glyph glyph-name="uni04B1" unicode="&#x4b1;" horiz-adv-x="490" 
d="M253 166l92 318h138l-141 -403h107v-115h-136v-197h-131v197h-136v115h106l-145 403h147z" />
    <glyph glyph-name="uni04B2" unicode="&#x4b2;" horiz-adv-x="610" 
d="M593 698l-211 -357l152 -255h83l-9 -292h-119l-6 172h-50l-131 243l-135 -243h-157l223 370l-212 362h168l122 -229l123 229h159z" />
    <glyph glyph-name="uni04B3" unicode="&#x4b3;" horiz-adv-x="477" 
d="M457 484l-156 -254l92 -155h84l-9 -281h-113l-6 172h-39l-80 141l-78 -141h-145l157 256l-157 262h148l80 -139l77 139h145z" />
    <glyph glyph-name="uni04B8" unicode="&#x4b8;" horiz-adv-x="613" 
d="M413 698h134v-732h-137v284q-29 -25 -71 -34v-140h-91v132q-100 4 -156.5 59.5t-56.5 169.5v261h135v-226q0 -57 18.5 -89t59.5 -41v133h91v-131q74 23 74 129v225z" />
    <glyph glyph-name="uni04B9" unicode="&#x4b9;" horiz-adv-x="516" 
d="M338 485h124v-519h-129v179q-14 -14 -36 -22v-100h-89v85q-76 3 -121 44.5t-45 122.5v210h125v-165q0 -31 8 -51.5t33 -29.5v98h89v-97q41 18 41 81v164z" />
    <glyph glyph-name="uni04BA" unicode="&#x4ba;" horiz-adv-x="613" 
d="M202 -34h-137v732h137v-284q54 42 147 42q107 0 167.5 -55.5t60.5 -173.5v-261h-137v226q0 69 -27 102.5t-89 33.5q-122 0 -122 -137v-225z" />
    <glyph glyph-name="uni04BB" unicode="&#x4bb;" horiz-adv-x="510" 
d="M423.5 445.5q39.5 -51.5 39.5 -156.5v-323h-132v276q0 65 -15.5 95.5t-51.5 30.5q-78 0 -78 -130v-272h-132v761h132v-299q43 69 127 69q71 0 110.5 -51.5z" />
    <glyph glyph-name="uni04CA" unicode="&#x4ca;" horiz-adv-x="565" 
d="M329 485h133v-410h91l-84 -281h-118l39 172h-61v206h-142v-206h-133v519h133v-199h142v199z" />
    <glyph glyph-name="uni04D8" unicode="&#x4d8;" horiz-adv-x="597" 
d="M488.5 614q68.5 -97 68.5 -284q0 -183 -72.5 -279.5t-198.5 -96.5q-117 0 -182.5 84t-65.5 239q0 44 6 95h366q-9 209 -127 209q-42 0 -73.5 -25.5t-50.5 -84.5l-109 69q68 171 241 171q129 0 197.5 -97zM372 124q29 43 36 126h-231q2 -85 29 -127t82 -42t84 43z" />
    <glyph glyph-name="uni04D9" unicode="&#x4d9;" horiz-adv-x="462" 
d="M373.5 429.5q59.5 -67.5 59.5 -206.5q0 -92 -30 -152.5t-79.5 -88.5t-107.5 -28q-88 0 -141 62.5t-53 173.5q0 28 5 70h272q-5 122 -82 122q-55 0 -83 -64l-97 62q25 59 75 88t111 29q91 0 150.5 -67.5zM298 162h-146q1 -49 20 -73t48 -24q65 0 78 97z" />
    <glyph glyph-name="uni04E8" unicode="&#x4e8;" horiz-adv-x="645" 
d="M469.5 669.5q63.5 -41.5 99.5 -126t36 -210.5q0 -127 -36 -211.5t-99.5 -126t-146.5 -41.5q-129 0 -206 95t-77 284q0 127 36 211.5t99.5 125.5t147.5 41q83 0 146.5 -41.5zM231 540q-35 -47 -42 -145h267q-14 192 -133 192q-57 0 -92 -47zM456 276h-267
q14 -198 134 -198t133 198z" />
    <glyph glyph-name="uni04E9" unicode="&#x4e9;" horiz-adv-x="501" 
d="M362 469q49 -28 79 -89t30 -155q0 -93 -30 -154t-79 -89t-110 -28t-111 28t-80.5 89t-30.5 154t30.5 154t80.5 89.5t111 28.5t110 -28zM198.5 359.5q-21.5 -24.5 -27.5 -76.5h159q-6 52 -27 76.5t-51 24.5q-32 0 -53.5 -24.5zM305 93q21 27 26 84h-161q6 -57 27.5 -84
t54.5 -27q32 0 53 27z" />
    <glyph glyph-name="uni1E00" unicode="&#x1e00;" horiz-adv-x="640" 
d="M381 698l246 -732h-149l-51 169h-225l-49 -169h-140l240 732h128zM391 257l-79 259l-75 -259h154zM229 -91.5q34 24.5 86 24.5t85 -24.5t33 -64.5q0 -39 -33 -63.5t-85 -24.5t-86 24.5t-34 63.5q0 40 34 64.5zM282 -180.5q12 -9.5 33 -9.5q20 0 32.5 9.5t12.5 24.5
q0 16 -12.5 25.5t-32.5 9.5q-21 0 -33 -9.5t-12 -25.5q0 -15 12 -24.5z" />
    <glyph glyph-name="uni1E01" unicode="&#x1e01;" horiz-adv-x="475" 
d="M379 445q49 -52 49 -154v-325h-111q-2 30 -6 63q-37 -75 -123 -75q-65 0 -110 39.5t-45 119.5q0 84 53 129.5t132 45.5q40 0 80 -12q-1 58 -18 82t-50 24q-28 0 -47 -16.5t-32 -45.5l-95 59q23 56 70.5 87t115.5 31q88 0 137 -52zM298 179q-27 10 -54 10
q-36 0 -57.5 -18.5t-21.5 -50.5q0 -29 16 -43.5t40 -14.5q34 0 55.5 25t21.5 73v19zM324 -91.5q33 -24.5 33 -64.5q0 -39 -33 -63.5t-85 -24.5t-86 24.5t-34 63.5q0 40 34 64.5t86 24.5t85 -24.5zM271.5 -180.5q12.5 9.5 12.5 24.5q0 16 -12.5 25.5t-32.5 9.5
q-21 0 -33.5 -9.5t-12.5 -25.5q0 -15 12.5 -24.5t33.5 -9.5q20 0 32.5 9.5z" />
    <glyph glyph-name="uni1E3E" unicode="&#x1e3e;" horiz-adv-x="727" 
d="M319 766l64 149h132l-95 -149h-101zM558 698h104v-732h-131v441l-133 -244h-70l-133 247v-444h-130v732h107l193 -371z" />
    <glyph glyph-name="uni1E3F" unicode="&#x1e3f;" horiz-adv-x="727" 
d="M343 549l63 165h133l-96 -165h-100zM642 446q37 -51 37 -155v-325h-128v273q0 68 -12.5 97t-43.5 29q-32 0 -48.5 -31t-16.5 -100v-268h-129v273q0 68 -12 97t-43 29q-32 0 -49 -31t-17 -100v-268h-126v518h111l2 -26q2 -30 4 -43q21 41 52.5 61.5t70.5 20.5
q41 0 71.5 -22.5t47.5 -67.5q41 90 130 90q62 0 99 -51z" />
    <glyph glyph-name="Wgrave" unicode="&#x1e80;" horiz-adv-x="877" 
d="M292 915h132l64 -149h-100zM501 698l119 -500l110 500h134l-189 -732h-115l-121 466l-116 -466h-114l-196 732h143l116 -500l113 500h116z" />
    <glyph glyph-name="wgrave" unicode="&#x1e81;" horiz-adv-x="700" 
d="M224 715h132l63 -165h-100zM405 484l83 -315l78 315h127l-155 -517h-96l-90 295l-86 -295h-98l-161 517h135l82 -322l79 322h102z" />
    <glyph glyph-name="Wacute" unicode="&#x1e82;" horiz-adv-x="877" 
d="M397 766l63 149h132l-95 -149h-100zM501 698l119 -500l110 500h134l-189 -732h-115l-121 466l-116 -466h-114l-196 732h143l116 -500l113 500h116z" />
    <glyph glyph-name="wacute" unicode="&#x1e83;" horiz-adv-x="700" 
d="M305 550l63 165h132l-95 -165h-100zM405 484l83 -315l78 315h127l-155 -517h-96l-90 295l-86 -295h-98l-161 517h135l82 -322l79 322h102z" />
    <glyph glyph-name="Wdieresis" unicode="&#x1e84;" horiz-adv-x="877" 
d="M296 790q-22 23 -22 54q0 32 21.5 54.5t52.5 22.5q32 0 54 -22.5t22 -54.5q0 -31 -22 -54t-54 -23q-30 0 -52 23zM481.5 790q-21.5 23 -21.5 54q0 32 21.5 54.5t52.5 22.5t53 -22.5t22 -54.5q0 -31 -22 -54t-53 -23t-52.5 23zM501 698l119 -500l110 500h134l-189 -732
h-115l-121 466l-116 -466h-114l-196 732h143l116 -500l113 500h116z" />
    <glyph glyph-name="wdieresis" unicode="&#x1e85;" horiz-adv-x="700" 
d="M209.5 578q-21.5 23 -21.5 54q0 32 21.5 54.5t51.5 22.5q32 0 54 -22.5t22 -54.5q0 -31 -22 -54t-54 -23q-30 0 -51.5 23zM408.5 578q-21.5 23 -21.5 54q0 32 21.5 54.5t52.5 22.5t53.5 -22.5t22.5 -54.5q0 -31 -22.5 -54t-53.5 -23t-52.5 23zM405 484l83 -315l78 315
h127l-155 -517h-96l-90 295l-86 -295h-98l-161 517h135l82 -322l79 322h102z" />
    <glyph glyph-name="uni1EA0" unicode="&#x1ea0;" horiz-adv-x="640" 
d="M381 698l246 -732h-149l-51 169h-225l-49 -169h-140l240 732h128zM391 257l-79 259l-75 -259h154zM257.5 -214q-24.5 21 -24.5 50t24.5 50t58.5 21q33 0 58 -21t25 -50t-24.5 -50t-58.5 -21t-58.5 21z" />
    <glyph glyph-name="uni1EA1" unicode="&#x1ea1;" horiz-adv-x="475" 
d="M379 445q49 -52 49 -154v-325h-111q-2 30 -6 63q-37 -75 -123 -75q-65 0 -110 39.5t-45 119.5q0 84 53 129.5t132 45.5q40 0 80 -12q-1 58 -18 82t-50 24q-28 0 -47 -16.5t-32 -45.5l-95 59q23 56 70.5 87t115.5 31q88 0 137 -52zM298 179q-27 10 -54 10
q-36 0 -57.5 -18.5t-21.5 -50.5q0 -29 16 -43.5t40 -14.5q34 0 55.5 25t21.5 73v19zM298 -114q25 -21 25 -50t-24.5 -50t-58.5 -21t-58.5 21t-24.5 50t24.5 50t58.5 21q33 0 58 -21z" />
    <glyph glyph-name="uni1EA2" unicode="&#x1ea2;" horiz-adv-x="640" 
d="M209 913q21 14 48.5 21.5t54.5 7.5q42 0 71 -21.5t29 -63.5q0 -43 -29.5 -72.5t-72.5 -46.5l-40 63q20 8 32.5 19t12.5 23q0 10 -8 15t-21 5q-29 0 -59 -24zM381 698l246 -732h-149l-51 169h-225l-49 -169h-140l240 732h128zM391 257l-79 259l-75 -259h154z" />
    <glyph glyph-name="uni1EA3" unicode="&#x1ea3;" horiz-adv-x="475" 
d="M149 640l-18 78q22 13 49.5 21t52.5 8q43 0 71 -25t28 -72q0 -46 -29 -78t-71 -48l-41 63q19 8 31 21.5t12 28.5q0 27 -29 27t-56 -24zM379 445q49 -52 49 -154v-325h-111q-2 30 -6 63q-37 -75 -123 -75q-65 0 -110 39.5t-45 119.5q0 84 53 129.5t132 45.5q40 0 80 -12
q-1 58 -18 82t-50 24q-28 0 -47 -16.5t-32 -45.5l-95 59q23 56 70.5 87t115.5 31q88 0 137 -52zM298 179q-27 10 -54 10q-36 0 -57.5 -18.5t-21.5 -50.5q0 -29 16 -43.5t40 -14.5q34 0 55.5 25t21.5 73v19z" />
    <glyph glyph-name="uni1EA4" unicode="&#x1ea4;" horiz-adv-x="640" 
d="M381 849l57 88h138l-89 -88h-106zM274 834h88l110 -89h-115l-40 34l-39 -34h-116zM381 698l246 -732h-149l-51 169h-225l-49 -169h-140l240 732h128zM391 257l-79 259l-75 -259h154z" />
    <glyph glyph-name="uni1EA5" unicode="&#x1ea5;" horiz-adv-x="475" 
d="M337 880h132l-95 -142h-100zM277 549l-44 73l-45 -73h-111l112 165h88l110 -165h-110zM379 445q49 -52 49 -154v-325h-111q-2 30 -6 63q-37 -75 -123 -75q-65 0 -110 39.5t-45 119.5q0 84 53 129.5t132 45.5q40 0 80 -12q-1 58 -18 82t-50 24q-28 0 -47 -16.5t-32 -45.5
l-95 59q23 56 70.5 87t115.5 31q88 0 137 -52zM298 179q-27 10 -54 10q-36 0 -57.5 -18.5t-21.5 -50.5q0 -29 16 -43.5t40 -14.5q34 0 55.5 25t21.5 73v19z" />
    <glyph glyph-name="uni1EA6" unicode="&#x1ea6;" horiz-adv-x="640" 
d="M414 937l58 -88h-107l-89 88h138zM357 745l-40 34l-39 -34h-116l112 89h88l110 -89h-115zM13 -34l240 732h128l246 -732h-149l-51 169h-225l-49 -169h-140zM391 257l-79 259l-75 -259h154z" />
    <glyph glyph-name="uni1EA7" unicode="&#x1ea7;" horiz-adv-x="475" 
d="M326 880l63 -142h-100l-95 142h132zM277 549l-44 73l-45 -73h-111l112 165h88l110 -165h-110zM379 445q49 -52 49 -154v-325h-111q-2 30 -6 63q-37 -75 -123 -75q-65 0 -110 39.5t-45 119.5q0 84 53 129.5t132 45.5q40 0 80 -12q-1 58 -18 82t-50 24q-28 0 -47 -16.5
t-32 -45.5l-95 59q23 56 70.5 87t115.5 31q88 0 137 -52zM298 179q-27 10 -54 10q-36 0 -57.5 -18.5t-21.5 -50.5q0 -29 16 -43.5t40 -14.5q34 0 55.5 25t21.5 73v19z" />
    <glyph glyph-name="uni1EA8" unicode="&#x1ea8;" horiz-adv-x="640" 
d="M317 935q46 17 103 17q43 0 71.5 -13t28.5 -38t-29.5 -42t-71.5 -27l-37 40q48 8 48 18q0 9 -29 9q-33 0 -66 -11zM274 834h88l110 -89h-115l-40 34l-39 -34h-116zM381 698l246 -732h-149l-51 169h-225l-49 -169h-140l240 732h128zM391 257l-79 259l-75 -259h154z" />
    <glyph glyph-name="uni1EA9" unicode="&#x1ea9;" horiz-adv-x="475" 
d="M255 805l-17 74q21 13 48.5 21t50.5 8q43 0 70.5 -25.5t27.5 -73.5q0 -44 -28.5 -76t-70.5 -48l-41 63q19 9 31 22.5t12 28.5q0 30 -30 30q-27 0 -53 -24zM277 549l-44 73l-45 -73h-111l112 165h88l110 -165h-110zM379 445q49 -52 49 -154v-325h-111q-2 30 -6 63
q-37 -75 -123 -75q-65 0 -110 39.5t-45 119.5q0 84 53 129.5t132 45.5q40 0 80 -12q-1 58 -18 82t-50 24q-28 0 -47 -16.5t-32 -45.5l-95 59q23 56 70.5 87t115.5 31q88 0 137 -52zM298 179q-27 10 -54 10q-36 0 -57.5 -18.5t-21.5 -50.5q0 -29 16 -43.5t40 -14.5
q34 0 55.5 25t21.5 73v19z" />
    <glyph glyph-name="uni1EAA" unicode="&#x1eaa;" horiz-adv-x="640" 
d="M253 853h-82q3 39 28.5 60.5t68.5 21.5q22 0 37 -4t39 -13q20 -9 29 -9q21 0 26 23h81q-3 -38 -28 -59.5t-68 -21.5q-22 0 -37 4t-39 13q-20 9 -29 9q-21 0 -26 -24zM357 745l-40 34l-39 -34h-116l112 89h88l110 -89h-115zM13 -34l240 732h128l246 -732h-149l-51 169
h-225l-49 -169h-140zM391 257l-79 259l-75 -259h154z" />
    <glyph glyph-name="uni1EAB" unicode="&#x1eab;" horiz-adv-x="475" 
d="M166.5 791.5q-6.5 -12.5 -9.5 -36.5h-84q3 65 29 101.5t71 36.5q23 0 40 -9.5t38 -27.5q8 -7 16.5 -12.5t14.5 -5.5q11 0 17.5 14t8.5 37h85q-3 -65 -29 -101.5t-71 -36.5q-23 0 -40 9t-37 26q-22 18 -32 18q-11 0 -17.5 -12.5zM277 714l111 -165h-111l-44 74l-45 -74
h-110l111 165h88zM379 445q49 -52 49 -154v-325h-111q-2 30 -6 63q-37 -75 -123 -75q-65 0 -110 39.5t-45 119.5q0 84 53 129.5t132 45.5q40 0 80 -12q-1 58 -18 82t-50 24q-28 0 -47 -16.5t-32 -45.5l-95 59q23 56 70.5 87t115.5 31q88 0 137 -52zM298 179q-27 10 -54 10
q-36 0 -57.5 -18.5t-21.5 -50.5q0 -29 16 -43.5t40 -14.5q34 0 55.5 25t21.5 73v19z" />
    <glyph glyph-name="uni1EAC" unicode="&#x1eac;" horiz-adv-x="640" 
d="M274 915h88l110 -150h-110l-45 66l-44 -66h-111zM381 698l246 -732h-149l-51 169h-225l-49 -169h-140l240 732h128zM391 257l-79 259l-75 -259h154zM257.5 -214q-24.5 21 -24.5 50t24.5 50t58.5 21q33 0 58 -21t25 -50t-24.5 -50t-58.5 -21t-58.5 21z" />
    <glyph glyph-name="uni1EAD" unicode="&#x1ead;" horiz-adv-x="475" 
d="M277 549l-45 73l-44 -73h-111l112 165h88l110 -165h-110zM379 445q49 -52 49 -154v-325h-111q-2 30 -6 63q-37 -75 -123 -75q-65 0 -110 39.5t-45 119.5q0 84 53 129.5t132 45.5q40 0 80 -12q-1 58 -18 82t-50 24q-28 0 -47 -16.5t-32 -45.5l-95 59q23 56 70.5 87
t115.5 31q88 0 137 -52zM298 179q-27 10 -54 10q-36 0 -57.5 -18.5t-21.5 -50.5q0 -29 16 -43.5t40 -14.5q34 0 55.5 25t21.5 73v19zM298 -114q25 -21 25 -50t-24.5 -50t-58.5 -21t-58.5 21t-24.5 50t24.5 50t58.5 21q33 0 58 -21z" />
    <glyph glyph-name="uni1EAE" unicode="&#x1eae;" horiz-adv-x="640" 
d="M272 860l57 88h139l-90 -88h-106zM208 768.5q-40 24.5 -40 64.5h107q2 -12 12 -20t30 -8q40 0 44 28h107q0 -40 -40.5 -64.5t-110.5 -24.5q-69 0 -109 24.5zM381 698l246 -732h-149l-51 169h-225l-49 -169h-140l240 732h128zM391 257l-79 259l-75 -259h154z" />
    <glyph glyph-name="uni1EAF" unicode="&#x1eaf;" horiz-adv-x="475" 
d="M244 886h132l-96 -142h-100zM128 593q-40 44 -40 121h108q2 -78 42 -78q41 0 43 78h108q0 -77 -40 -121t-111 -44q-70 0 -110 44zM379 445q49 -52 49 -154v-325h-111q-2 30 -6 63q-37 -75 -123 -75q-65 0 -110 39.5t-45 119.5q0 84 53 129.5t132 45.5q40 0 80 -12
q-1 58 -18 82t-50 24q-28 0 -47 -16.5t-32 -45.5l-95 59q23 56 70.5 87t115.5 31q88 0 137 -52zM298 179q-27 10 -54 10q-36 0 -57.5 -18.5t-21.5 -50.5q0 -29 16 -43.5t40 -14.5q34 0 55.5 25t21.5 73v19z" />
    <glyph glyph-name="uni1EB0" unicode="&#x1eb0;" horiz-adv-x="640" 
d="M257 860l-90 88h139l57 -88h-106zM275 833q2 -12 12 -20t30 -8q40 0 44 28h107q0 -40 -40.5 -64.5t-110.5 -24.5q-69 0 -109 24.5t-40 64.5h107zM153 -34h-140l240 732h128l246 -732h-149l-51 169h-225zM312 516l-75 -259h154z" />
    <glyph glyph-name="uni1EB1" unicode="&#x1eb1;" horiz-adv-x="475" 
d="M232 886l64 -142h-100l-96 142h132zM128 593q-40 44 -40 121h108q2 -78 42 -78q41 0 43 78h108q0 -77 -40 -121t-111 -44q-70 0 -110 44zM379 445q49 -52 49 -154v-325h-111q-2 30 -6 63q-37 -75 -123 -75q-65 0 -110 39.5t-45 119.5q0 84 53 129.5t132 45.5q40 0 80 -12
q-1 58 -18 82t-50 24q-28 0 -47 -16.5t-32 -45.5l-95 59q23 56 70.5 87t115.5 31q88 0 137 -52zM298 179q-27 10 -54 10q-36 0 -57.5 -18.5t-21.5 -50.5q0 -29 16 -43.5t40 -14.5q34 0 55.5 25t21.5 73v19z" />
    <glyph glyph-name="uni1EB2" unicode="&#x1eb2;" horiz-adv-x="637" 
d="M216 945q46 17 103 17q43 0 71.5 -12.5t28.5 -37.5t-29.5 -42.5t-71.5 -27.5l-37 40q48 8 48 18q0 9 -29 9q-32 0 -65 -11zM208 768.5q-40 24.5 -40 64.5h107q2 -12 12 -20t30 -8q40 0 44 28h107q0 -40 -40.5 -64.5t-110.5 -24.5q-69 0 -109 24.5zM381 698l246 -732h-149
l-51 169h-225l-49 -169h-140l240 732h128zM391 257l-79 259l-75 -259h154z" />
    <glyph glyph-name="uni1EB3" unicode="&#x1eb3;" horiz-adv-x="475" 
d="M149 835l-18 78q22 13 49.5 21t52.5 8q43 0 71 -25t28 -72q0 -46 -29 -78t-71 -48l-41 63q19 8 31 21.5t12 28.5q0 27 -29 27t-56 -24zM128 593q-40 44 -40 121h108q2 -78 42 -78q41 0 43 78h108q0 -77 -40 -121t-111 -44q-70 0 -110 44zM379 445q49 -52 49 -154v-325
h-111q-2 30 -6 63q-37 -75 -123 -75q-65 0 -110 39.5t-45 119.5q0 84 53 129.5t132 45.5q40 0 80 -12q-1 58 -18 82t-50 24q-28 0 -47 -16.5t-32 -45.5l-95 59q23 56 70.5 87t115.5 31q88 0 137 -52zM298 179q-27 10 -54 10q-36 0 -57.5 -18.5t-21.5 -50.5q0 -29 16 -43.5
t40 -14.5q34 0 55.5 25t21.5 73v19z" />
    <glyph glyph-name="uni1EB4" unicode="&#x1eb4;" horiz-adv-x="640" 
d="M163 867q3 38 28.5 59.5t68.5 21.5q22 0 37 -4t39 -13q20 -9 29 -9q21 0 26 24h81q-3 -39 -28.5 -60.5t-68.5 -21.5q-22 0 -38.5 5t-35.5 13q-22 9 -31 9q-11 0 -17 -6t-9 -18h-81zM208 768.5q-40 24.5 -40 64.5h107q2 -12 12 -20t30 -8q40 0 44 28h107
q0 -40 -40.5 -64.5t-110.5 -24.5q-69 0 -109 24.5zM381 698l246 -732h-149l-51 169h-225l-49 -169h-140l240 732h128zM391 257l-79 259l-75 -259h154z" />
    <glyph glyph-name="uni1EB5" unicode="&#x1eb5;" horiz-adv-x="475" 
d="M166 759h-82q3 65 28.5 101t68.5 36q22 0 38.5 -9.5t35.5 -26.5q8 -7 16 -12.5t14 -5.5q22 0 25 50h82q-3 -65 -28.5 -101.5t-68.5 -36.5q-22 0 -38 9t-35 26q-8 7 -16.5 12.5t-14.5 5.5q-20 0 -25 -48zM281 714h108q0 -77 -40 -121t-111 -44q-70 0 -110 44t-40 121h108
q2 -78 42 -78q41 0 43 78zM379 445q49 -52 49 -154v-325h-111q-2 30 -6 63q-37 -75 -123 -75q-65 0 -110 39.5t-45 119.5q0 84 53 129.5t132 45.5q40 0 80 -12q-1 58 -18 82t-50 24q-28 0 -47 -16.5t-32 -45.5l-95 59q23 56 70.5 87t115.5 31q88 0 137 -52zM298 179
q-27 10 -54 10q-36 0 -57.5 -18.5t-21.5 -50.5q0 -29 16 -43.5t40 -14.5q34 0 55.5 25t21.5 73v19z" />
    <glyph glyph-name="uni1EB6" unicode="&#x1eb6;" horiz-adv-x="640" 
d="M208 806q-40 42 -40 109h107q2 -30 12 -48.5t30 -18.5q21 0 31.5 18.5t12.5 48.5h107q0 -67 -40.5 -109t-110.5 -42q-69 0 -109 42zM381 698l246 -732h-149l-51 169h-225l-49 -169h-140l240 732h128zM391 257l-79 259l-75 -259h154zM257.5 -214q-24.5 21 -24.5 50
t24.5 50t58.5 21q33 0 58 -21t25 -50t-24.5 -50t-58.5 -21t-58.5 21z" />
    <glyph glyph-name="uni1EB7" unicode="&#x1eb7;" horiz-adv-x="475" 
d="M128 593q-40 44 -40 121h108q2 -78 42 -78q41 0 43 78h108q0 -77 -40 -121t-111 -44q-70 0 -110 44zM379 445q49 -52 49 -154v-325h-111q-2 30 -6 63q-37 -75 -123 -75q-65 0 -110 39.5t-45 119.5q0 84 53 129.5t132 45.5q40 0 80 -12q-1 58 -18 82t-50 24
q-28 0 -47 -16.5t-32 -45.5l-95 59q23 56 70.5 87t115.5 31q88 0 137 -52zM298 179q-27 10 -54 10q-36 0 -57.5 -18.5t-21.5 -50.5q0 -29 16 -43.5t40 -14.5q34 0 55.5 25t21.5 73v19zM298 -114q25 -21 25 -50t-24.5 -50t-58.5 -21t-58.5 21t-24.5 50t24.5 50t58.5 21
q33 0 58 -21z" />
    <glyph glyph-name="uni1EB8" unicode="&#x1eb8;" horiz-adv-x="504" 
d="M433 278h-230v-190h266v-122h-404v732h395v-121h-257v-178h230v-121zM211 -214q-24 21 -24 50t24 50t58 21t58.5 -21t24.5 -50t-24.5 -50t-58.5 -21t-58 21z" />
    <glyph glyph-name="uni1EB9" unicode="&#x1eb9;" horiz-adv-x="463" 
d="M388 433.5q53 -63.5 53 -176.5q0 -29 -5 -69h-272q10 -119 87 -119q51 0 78 60l96 -58q-19 -60 -66.5 -88.5t-111.5 -28.5q-96 0 -156.5 66.5t-60.5 203.5q0 94 30 155t79.5 89.5t107.5 28.5q88 0 141 -63.5zM193 360.5q-21 -25.5 -28 -74.5h147q-1 51 -18.5 75.5
t-48.5 24.5t-52 -25.5zM191.5 -214q-24.5 21 -24.5 50t24.5 50t58.5 21t58.5 -21t24.5 -50t-24.5 -50t-58.5 -21t-58.5 21z" />
    <glyph glyph-name="uni1EBA" unicode="&#x1eba;" horiz-adv-x="504" 
d="M158 913q22 14 49 21.5t54 7.5q43 0 71.5 -21.5t28.5 -63.5q0 -43 -29.5 -72.5t-71.5 -46.5l-41 63q20 8 32.5 19t12.5 23q0 20 -28 20q-30 0 -60 -24zM433 278h-230v-190h266v-122h-404v732h395v-121h-257v-178h230v-121z" />
    <glyph glyph-name="uni1EBB" unicode="&#x1ebb;" horiz-adv-x="463" 
d="M137 718q23 13 50 20.5t53 7.5q43 0 70.5 -25t27.5 -71t-29 -78t-71 -48l-40 63q19 9 31 22t12 27q0 13 -8 20.5t-22 7.5q-29 0 -55 -24zM388 433.5q53 -63.5 53 -176.5q0 -29 -5 -69h-272q10 -119 87 -119q51 0 78 60l96 -58q-19 -60 -66.5 -88.5t-111.5 -28.5
q-96 0 -156.5 66.5t-60.5 203.5q0 94 30 155t79.5 89.5t107.5 28.5q88 0 141 -63.5zM193 360.5q-21 -25.5 -28 -74.5h147q-1 51 -18.5 75.5t-48.5 24.5t-52 -25.5z" />
    <glyph glyph-name="uni1EBC" unicode="&#x1ebc;" horiz-adv-x="504" 
d="M113 778q3 65 28 101.5t68 36.5q22 0 38 -9.5t38 -27.5q8 -7 15.5 -12.5t13.5 -5.5q23 0 26 50h82q-3 -65 -28.5 -101.5t-68.5 -36.5q-22 0 -38 9t-38 26q-8 7 -15.5 12.5t-13.5 5.5q-11 0 -17 -12t-9 -36h-81zM433 278h-230v-190h266v-122h-404v732h395v-121h-257v-178
h230v-121z" />
    <glyph glyph-name="uni1EBD" unicode="&#x1ebd;" horiz-adv-x="463" 
d="M91 563q3 65 28 101.5t68 36.5q22 0 39 -9.5t36 -26.5q8 -7 15.5 -12.5t13.5 -5.5q23 0 26 50h81q-3 -65 -28 -101.5t-68 -36.5q-22 0 -39 9.5t-35 25.5q-8 7 -16.5 12.5t-14.5 5.5q-20 0 -25 -49h-81zM388 433.5q53 -63.5 53 -176.5q0 -29 -5 -69h-272q10 -119 87 -119
q51 0 78 60l96 -58q-19 -60 -66.5 -88.5t-111.5 -28.5q-96 0 -156.5 66.5t-60.5 203.5q0 94 30 155t79.5 89.5t107.5 28.5q88 0 141 -63.5zM193 360.5q-21 -25.5 -28 -74.5h147q-1 51 -18.5 75.5t-48.5 24.5t-52 -25.5z" />
    <glyph glyph-name="uni1EBE" unicode="&#x1ebe;" horiz-adv-x="504" 
d="M330 849l57 88h139l-90 -88h-106zM223 834h88l111 -89h-116l-39 34l-39 -34h-116zM433 278h-230v-190h266v-122h-404v732h395v-121h-257v-178h230v-121z" />
    <glyph glyph-name="uni1EBF" unicode="&#x1ebf;" horiz-adv-x="463" 
d="M344 903h132l-95 -165h-100zM283 549l-44 73l-45 -73h-110l111 165h88l111 -165h-111zM388 433.5q53 -63.5 53 -176.5q0 -29 -5 -69h-272q10 -119 87 -119q51 0 78 60l96 -58q-19 -60 -66.5 -88.5t-111.5 -28.5q-96 0 -156.5 66.5t-60.5 203.5q0 94 30 155t79.5 89.5
t107.5 28.5q88 0 141 -63.5zM312 286q-1 51 -18.5 75.5t-48.5 24.5t-52 -25.5t-28 -74.5h147z" />
    <glyph glyph-name="uni1EC0" unicode="&#x1ec0;" horiz-adv-x="504" 
d="M364 937l57 -88h-106l-89 88h138zM306 745l-39 34l-39 -34h-116l111 89h88l111 -89h-116zM433 278h-230v-190h266v-122h-404v732h395v-121h-257v-178h230v-121z" />
    <glyph glyph-name="uni1EC1" unicode="&#x1ec1;" horiz-adv-x="463" 
d="M332 903l64 -165h-100l-96 165h132zM283 549l-44 73l-45 -73h-110l111 165h88l111 -165h-111zM388 433.5q53 -63.5 53 -176.5q0 -29 -5 -69h-272q10 -119 87 -119q51 0 78 60l96 -58q-19 -60 -66.5 -88.5t-111.5 -28.5q-96 0 -156.5 66.5t-60.5 203.5q0 94 30 155
t79.5 89.5t107.5 28.5q88 0 141 -63.5zM312 286q-1 51 -18.5 75.5t-48.5 24.5t-52 -25.5t-28 -74.5h147z" />
    <glyph glyph-name="uni1EC2" unicode="&#x1ec2;" horiz-adv-x="504" 
d="M267 935q46 17 103 17q42 0 71 -13t29 -38t-29.5 -42t-72.5 -27l-36 40q48 8 48 18q0 9 -30 9q-32 0 -65 -11zM223 834h88l111 -89h-116l-39 34l-39 -34h-116zM433 278h-230v-190h266v-122h-404v732h395v-121h-257v-178h230v-121z" />
    <glyph glyph-name="uni1EC3" unicode="&#x1ec3;" horiz-adv-x="463" 
d="M262 804l-17 75q20 13 47.5 20.5t50.5 7.5q44 0 71.5 -25.5t27.5 -73.5q0 -44 -29 -76t-71 -47l-41 63q20 9 32 22t12 29q0 29 -30 29q-27 0 -53 -24zM283 549l-44 73l-45 -73h-110l111 165h88l111 -165h-111zM388 433.5q53 -63.5 53 -176.5q0 -29 -5 -69h-272
q10 -119 87 -119q51 0 78 60l96 -58q-19 -60 -66.5 -88.5t-111.5 -28.5q-96 0 -156.5 66.5t-60.5 203.5q0 94 30 155t79.5 89.5t107.5 28.5q88 0 141 -63.5zM312 286q-1 51 -18.5 75.5t-48.5 24.5t-52 -25.5t-28 -74.5h147z" />
    <glyph glyph-name="uni1EC4" unicode="&#x1ec4;" horiz-adv-x="504" 
d="M211 871q-6 -6 -9 -18h-81q3 39 28.5 60.5t68.5 21.5q22 0 37 -4.5t37 -12.5q22 -9 30 -9q22 0 26 23h82q-3 -38 -28.5 -59.5t-68.5 -21.5q-21 0 -36 4t-39 13q-20 9 -30 9q-11 0 -17 -6zM306 745l-39 34l-39 -34h-116l111 89h88l111 -89h-116zM433 278h-230v-190h266
v-122h-404v732h395v-121h-257v-178h230v-121z" />
    <glyph glyph-name="uni1EC5" unicode="&#x1ec5;" horiz-adv-x="463" 
d="M164 755h-85q3 65 29.5 101.5t71.5 36.5q22 0 39.5 -9.5t37.5 -26.5q21 -19 31 -19q22 0 27 50h84q-3 -65 -29 -101.5t-71 -36.5q-23 0 -39 9t-38 26q-21 19 -32 19q-21 0 -26 -49zM283 714l111 -165h-110l-44 73l-45 -73h-111l111 165h88zM388 433.5q53 -63.5 53 -176.5
q0 -29 -5 -69h-272q10 -119 87 -119q51 0 78 60l96 -58q-19 -60 -66.5 -88.5t-111.5 -28.5q-96 0 -156.5 66.5t-60.5 203.5q0 94 30 155t79.5 89.5t107.5 28.5q88 0 141 -63.5zM312 286q-1 51 -18.5 75.5t-48.5 24.5t-52 -25.5t-28 -74.5h147z" />
    <glyph glyph-name="uni1EC6" unicode="&#x1ec6;" horiz-adv-x="504" 
d="M223 915h88l111 -150h-111l-44 66l-45 -66h-110zM433 278h-230v-190h266v-122h-404v732h395v-121h-257v-178h230v-121zM211 -214q-24 21 -24 50t24 50t58 21t58.5 -21t24.5 -50t-24.5 -50t-58.5 -21t-58 21z" />
    <glyph glyph-name="uni1EC7" unicode="&#x1ec7;" horiz-adv-x="463" 
d="M195 714h88l111 -165h-111l-44 73l-45 -73h-110zM388 433.5q53 -63.5 53 -176.5q0 -29 -5 -69h-272q10 -119 87 -119q51 0 78 60l96 -58q-19 -60 -66.5 -88.5t-111.5 -28.5q-96 0 -156.5 66.5t-60.5 203.5q0 94 30 155t79.5 89.5t107.5 28.5q88 0 141 -63.5zM193 360.5
q-21 -25.5 -28 -74.5h147q-1 51 -18.5 75.5t-48.5 24.5t-52 -25.5zM191.5 -214q-24.5 21 -24.5 50t24.5 50t58.5 21t58.5 -21t24.5 -50t-24.5 -50t-58.5 -21t-58.5 21z" />
    <glyph glyph-name="uni1EC8" unicode="&#x1ec8;" horiz-adv-x="269" 
d="M26 913q21 14 48.5 21.5t54.5 7.5q42 0 71 -21.5t29 -63.5q0 -43 -29.5 -72.5t-72.5 -46.5l-40 63q20 8 32.5 19t12.5 23q0 10 -8 15t-21 5q-29 0 -59 -24zM203 -34h-138v732h138v-732z" />
    <glyph glyph-name="uni1EC9" unicode="&#x1ec9;" horiz-adv-x="238" 
d="M13 718q22 13 49.5 21t52.5 8q43 0 70.5 -25t27.5 -72q0 -46 -28.5 -78t-70.5 -48l-41 63q19 8 31 21.5t12 28.5q0 27 -30 27q-28 0 -55 -24zM185 -34h-131v518h131v-518z" />
    <glyph glyph-name="uni1ECA" unicode="&#x1eca;" horiz-adv-x="269" 
d="M203 -34h-138v732h138v-732zM76 -214q-24 21 -24 50t24 50t58 21t59 -21t25 -50t-25 -50t-59 -21t-58 21z" />
    <glyph glyph-name="uni1ECB" unicode="&#x1ecb;" horiz-adv-x="238" 
d="M65 580.5q-23 23.5 -23 55.5t23 55t54 23q30 0 53.5 -23t23.5 -55t-23 -55.5t-54 -23.5t-54 23.5zM185 -34h-132v518h132v-518zM62 -214q-24 21 -24 50t24 50t58 21t58.5 -21t24.5 -50t-24.5 -50t-58.5 -21t-58 21z" />
    <glyph glyph-name="uni1ECC" unicode="&#x1ecc;" horiz-adv-x="645" 
d="M116 616.5q76 94.5 207 94.5q130 0 206 -95t76 -283q0 -189 -76 -284t-206 -95q-131 0 -207 94.5t-76 284.5q0 189 76 283.5zM221.5 143q35.5 -62 101.5 -62q135 0 135 252q0 251 -135 251q-137 0 -137 -251q0 -128 35.5 -190zM264.5 -214q-24.5 21 -24.5 50t24.5 50
t58.5 21t58.5 -21t24.5 -50t-24.5 -50t-58.5 -21t-58.5 21z" />
    <glyph glyph-name="uni1ECD" unicode="&#x1ecd;" horiz-adv-x="501" 
d="M60.5 379q30.5 61 80.5 89.5t111 28.5t110 -28t79 -89t30 -155q0 -93 -30 -154t-79 -89t-110 -28t-111 28t-80.5 89t-30.5 154t30.5 154zM190.5 109q23.5 -37 61.5 -37q37 0 59.5 37t22.5 116t-22.5 116.5t-59.5 37.5q-38 0 -61.5 -37.5t-23.5 -116.5t23.5 -116z
M193 -214q-24 21 -24 50t24 50t58 21t58.5 -21t24.5 -50t-24.5 -50t-58.5 -21t-58 21z" />
    <glyph glyph-name="uni1ECE" unicode="&#x1ece;" horiz-adv-x="645" 
d="M214 913q22 14 49 21.5t54 7.5q42 0 71 -21.5t29 -63.5q0 -43 -29.5 -72.5t-72.5 -46.5l-40 63q20 8 32.5 19t12.5 23q0 20 -29 20t-59 -24zM116 616.5q76 94.5 207 94.5q130 0 206 -95t76 -283q0 -189 -76 -284t-206 -95q-131 0 -207 94.5t-76 284.5q0 189 76 283.5z
M221.5 143q35.5 -62 101.5 -62q135 0 135 252q0 251 -135 251q-137 0 -137 -251q0 -128 35.5 -190z" />
    <glyph glyph-name="uni1ECF" unicode="&#x1ecf;" horiz-adv-x="501" 
d="M145 718q22 13 49 20.5t53 7.5q43 0 70.5 -25t27.5 -71t-28.5 -78t-71.5 -48l-40 63q19 9 31 21.5t12 27.5q0 13 -8 20.5t-22 7.5q-30 0 -55 -24zM60.5 379q30.5 61 80.5 89.5t111 28.5t110 -28t79 -89t30 -155q0 -93 -30 -154t-79 -89t-110 -28t-111 28t-80.5 89
t-30.5 154t30.5 154zM190.5 109q23.5 -37 61.5 -37q37 0 59.5 37t22.5 116t-22.5 116.5t-59.5 37.5q-38 0 -61.5 -37.5t-23.5 -116.5t23.5 -116z" />
    <glyph glyph-name="uni1ED0" unicode="&#x1ed0;" horiz-adv-x="645" 
d="M386 849l58 88h138l-90 -88h-106zM279 834h88l111 -89h-116l-39 34l-39 -34h-116zM116 616.5q76 94.5 207 94.5q130 0 206 -95t76 -283q0 -189 -76 -284t-206 -95q-131 0 -207 94.5t-76 284.5q0 189 76 283.5zM221.5 143q35.5 -62 101.5 -62q135 0 135 252
q0 251 -135 251q-137 0 -137 -251q0 -128 35.5 -190z" />
    <glyph glyph-name="uni1ED1" unicode="&#x1ed1;" horiz-adv-x="501" 
d="M351 880h132l-96 -142h-100zM290 549l-44 73l-45 -73h-110l111 165h88l111 -165h-111zM362 469q49 -28 79 -89t30 -155q0 -93 -30 -154t-79 -89t-110 -28t-111 28t-80.5 89t-30.5 154t30.5 154t80.5 89.5t111 28.5t110 -28zM311.5 109q22.5 37 22.5 116t-22.5 116.5
t-59.5 37.5q-38 0 -61.5 -37.5t-23.5 -116.5t23.5 -116t61.5 -37q37 0 59.5 37z" />
    <glyph glyph-name="uni1ED2" unicode="&#x1ed2;" horiz-adv-x="645" 
d="M420 937l57 -88h-106l-89 88h138zM362 745l-39 34l-39 -34h-116l111 89h88l111 -89h-116zM116 616.5q76 94.5 207 94.5q130 0 206 -95t76 -283q0 -189 -76 -284t-206 -95q-131 0 -207 94.5t-76 284.5q0 189 76 283.5zM221.5 143q35.5 -62 101.5 -62q135 0 135 252
q0 251 -135 251q-137 0 -137 -251q0 -128 35.5 -190z" />
    <glyph glyph-name="uni1ED3" unicode="&#x1ed3;" horiz-adv-x="501" 
d="M339 880l64 -142h-100l-96 142h132zM290 549l-44 73l-45 -73h-110l111 165h88l111 -165h-111zM362 469q49 -28 79 -89t30 -155q0 -93 -30 -154t-79 -89t-110 -28t-111 28t-80.5 89t-30.5 154t30.5 154t80.5 89.5t111 28.5t110 -28zM311.5 109q22.5 37 22.5 116
t-22.5 116.5t-59.5 37.5q-38 0 -61.5 -37.5t-23.5 -116.5t23.5 -116t61.5 -37q37 0 59.5 37z" />
    <glyph glyph-name="uni1ED4" unicode="&#x1ed4;" horiz-adv-x="645" 
d="M322 935q46 17 103 17q43 0 71.5 -13t28.5 -38t-29.5 -42t-71.5 -27l-37 40q48 8 48 18q0 9 -29 9q-32 0 -65 -11zM279 834h88l110 -89h-115l-39 34l-40 -34h-116zM116 616.5q76 94.5 207 94.5q130 0 206 -95t76 -283q0 -189 -76 -284t-206 -95q-131 0 -207 94.5
t-76 284.5q0 189 76 283.5zM221.5 143q35.5 -62 101.5 -62q135 0 135 252q0 251 -135 251q-137 0 -137 -251q0 -128 35.5 -190z" />
    <glyph glyph-name="uni1ED5" unicode="&#x1ed5;" horiz-adv-x="501" 
d="M269 804l-17 75q21 13 48 20.5t51 7.5q43 0 70.5 -25.5t27.5 -73.5q0 -44 -29 -76t-71 -47l-40 63q19 9 31 22t12 29q0 29 -30 29q-27 0 -53 -24zM290 549l-44 73l-45 -73h-110l111 165h88l111 -165h-111zM362 469q49 -28 79 -89t30 -155q0 -93 -30 -154t-79 -89
t-110 -28t-111 28t-80.5 89t-30.5 154t30.5 154t80.5 89.5t111 28.5t110 -28zM311.5 109q22.5 37 22.5 116t-22.5 116.5t-59.5 37.5q-38 0 -61.5 -37.5t-23.5 -116.5t23.5 -116t61.5 -37q37 0 59.5 37z" />
    <glyph glyph-name="uni1ED6" unicode="&#x1ed6;" horiz-adv-x="645" 
d="M258 853h-82q3 39 28.5 60.5t68.5 21.5q22 0 37 -4t39 -13q20 -9 29 -9q21 0 26 23h81q-3 -38 -28 -59.5t-68 -21.5q-22 0 -37 4t-39 13q-20 9 -29 9q-21 0 -26 -24zM362 745l-39 34l-40 -34h-116l112 89h88l110 -89h-115zM116 616.5q76 94.5 207 94.5q130 0 206 -95
t76 -283q0 -189 -76 -284t-206 -95q-131 0 -207 94.5t-76 284.5q0 189 76 283.5zM221.5 143q35.5 -62 101.5 -62q135 0 135 252q0 251 -135 251q-137 0 -137 -251q0 -128 35.5 -190z" />
    <glyph glyph-name="uni1ED7" unicode="&#x1ed7;" horiz-adv-x="501" 
d="M180.5 791.5q-6.5 -12.5 -9.5 -36.5h-84q3 65 29 101.5t71 36.5q23 0 40 -9.5t38 -27.5q20 -18 30 -18q22 0 27 50h84q-3 -65 -29 -101.5t-71 -36.5q-22 0 -39.5 9.5t-37.5 26.5q-8 7 -16.5 12.5t-14.5 5.5q-11 0 -17.5 -12.5zM291 714l110 -165h-110l-44 73l-45 -73
h-111l112 165h88zM362 469q49 -28 79 -89t30 -155q0 -93 -30 -154t-79 -89t-110 -28t-111 28t-80.5 89t-30.5 154t30.5 154t80.5 89.5t111 28.5t110 -28zM311.5 109q22.5 37 22.5 116t-22.5 116.5t-59.5 37.5q-38 0 -61.5 -37.5t-23.5 -116.5t23.5 -116t61.5 -37
q37 0 59.5 37z" />
    <glyph glyph-name="uni1ED8" unicode="&#x1ed8;" horiz-adv-x="645" 
d="M279 915h88l110 -150h-110l-44 66l-45 -66h-111zM116 616.5q76 94.5 207 94.5q130 0 206 -95t76 -283q0 -189 -76 -284t-206 -95q-131 0 -207 94.5t-76 284.5q0 189 76 283.5zM221.5 143q35.5 -62 101.5 -62q135 0 135 252q0 251 -135 251q-137 0 -137 -251
q0 -128 35.5 -190zM264.5 -214q-24.5 21 -24.5 50t24.5 50t58.5 21t58.5 -21t24.5 -50t-24.5 -50t-58.5 -21t-58.5 21z" />
    <glyph glyph-name="uni1ED9" unicode="&#x1ed9;" horiz-adv-x="501" 
d="M202 714h88l111 -165h-111l-44 73l-45 -73h-110zM60.5 379q30.5 61 80.5 89.5t111 28.5t110 -28t79 -89t30 -155q0 -93 -30 -154t-79 -89t-110 -28t-111 28t-80.5 89t-30.5 154t30.5 154zM190.5 109q23.5 -37 61.5 -37q37 0 59.5 37t22.5 116t-22.5 116.5t-59.5 37.5
q-38 0 -61.5 -37.5t-23.5 -116.5t23.5 -116zM193 -214q-24 21 -24 50t24 50t58 21t58.5 -21t24.5 -50t-24.5 -50t-58.5 -21t-58 21z" />
    <glyph glyph-name="uni1EDA" unicode="&#x1eda;" horiz-adv-x="641" 
d="M335 916h133l-96 -150h-100zM596 647.5q-25 -34.5 -79 -40.5q88 -93 88 -274q0 -127 -36 -211.5t-99.5 -126t-146.5 -41.5q-129 0 -206 95t-77 284t79 283.5t214 94.5q24 0 75 -7q36 -6 51 -6q27 0 39.5 14.5t12.5 55.5q0 33 -6 58h109q7 -32 7 -69q0 -75 -25 -109.5z
M458 333q0 251 -135 251q-137 0 -137 -251q0 -128 35.5 -190t101.5 -62q135 0 135 252z" />
    <glyph glyph-name="uni1EDB" unicode="&#x1edb;" horiz-adv-x="523" 
d="M253 714h132l-95 -165h-100zM497.5 437q-23.5 -33 -70.5 -41q43 -61 43 -171q0 -93 -30 -154t-79.5 -89t-110.5 -28t-110.5 28t-79.5 89t-30 154q0 138 65 205t166 67q24 0 46 -3.5t28 -4.5q22 -5 34 -5q20 0 31 13.5t11 51.5q0 26 -5 63h110q5 -40 5 -70
q0 -72 -23.5 -105zM311 111.5q22 38.5 22 113.5q0 76 -22 114.5t-61 38.5q-38 0 -61 -39t-23 -114t23 -113.5t61 -38.5q39 0 61 38.5z" />
    <glyph glyph-name="uni1EDC" unicode="&#x1edc;" horiz-adv-x="641" 
d="M300 916l63 -150h-100l-95 150h132zM596 647.5q-25 -34.5 -79 -40.5q88 -93 88 -274q0 -127 -36 -211.5t-99.5 -126t-146.5 -41.5q-129 0 -206 95t-77 284t79 283.5t214 94.5q24 0 75 -7q36 -6 51 -6q27 0 39.5 14.5t12.5 55.5q0 33 -6 58h109q7 -32 7 -69
q0 -75 -25 -109.5zM458 333q0 251 -135 251q-137 0 -137 -251q0 -128 35.5 -190t101.5 -62q135 0 135 252z" />
    <glyph glyph-name="uni1EDD" unicode="&#x1edd;" horiz-adv-x="523" 
d="M241 714l64 -165h-101l-95 165h132zM497.5 437q-23.5 -33 -70.5 -41q43 -61 43 -171q0 -93 -30 -154t-79.5 -89t-110.5 -28t-110.5 28t-79.5 89t-30 154q0 138 65 205t166 67q24 0 46 -3.5t28 -4.5q22 -5 34 -5q20 0 31 13.5t11 51.5q0 26 -5 63h110q5 -40 5 -70
q0 -72 -23.5 -105zM311 111.5q22 38.5 22 113.5q0 76 -22 114.5t-61 38.5q-38 0 -61 -39t-23 -114t23 -113.5t61 -38.5q39 0 61 38.5z" />
    <glyph glyph-name="uni1EDE" unicode="&#x1ede;" horiz-adv-x="641" 
d="M227 839l-18 75q22 13 49.5 20.5t53.5 7.5q42 0 71 -21t29 -63q0 -44 -29.5 -73.5t-72.5 -45.5l-40 62q20 8 32.5 19t12.5 23q0 20 -29 20q-31 0 -59 -24zM596 647.5q-25 -34.5 -79 -40.5q88 -93 88 -274q0 -127 -36 -211.5t-99.5 -126t-146.5 -41.5q-129 0 -206 95
t-77 284t79 283.5t214 94.5q24 0 75 -7q36 -6 51 -6q27 0 39.5 14.5t12.5 55.5q0 33 -6 58h109q7 -32 7 -69q0 -75 -25 -109.5zM458 333q0 251 -135 251q-137 0 -137 -251q0 -128 35.5 -190t101.5 -62q135 0 135 252z" />
    <glyph glyph-name="uni1EDF" unicode="&#x1edf;" horiz-adv-x="523" 
d="M158 640l-18 78q22 13 49.5 21t52.5 8q43 0 70.5 -25t27.5 -72q0 -46 -28.5 -78t-70.5 -48l-41 63q19 8 31 21.5t12 28.5q0 27 -30 27q-28 0 -55 -24zM497.5 437q-23.5 -33 -70.5 -41q43 -61 43 -171q0 -93 -30 -154t-79.5 -89t-110.5 -28t-110.5 28t-79.5 89t-30 154
q0 138 65 205t166 67q24 0 46 -3.5t28 -4.5q22 -5 34 -5q20 0 31 13.5t11 51.5q0 26 -5 63h110q5 -40 5 -70q0 -72 -23.5 -105zM311 111.5q22 38.5 22 113.5q0 76 -22 114.5t-61 38.5q-38 0 -61 -39t-23 -114t23 -113.5t61 -38.5q39 0 61 38.5z" />
    <glyph glyph-name="uni1EE0" unicode="&#x1ee0;" horiz-adv-x="641" 
d="M245 778h-82q3 65 28.5 101.5t68.5 36.5q22 0 38.5 -9.5t37.5 -26.5q8 -7 15.5 -12.5t13.5 -5.5q21 0 26 50h81q-3 -65 -28 -101.5t-68 -36.5q-22 0 -38 9t-38 26q-8 7 -15.5 12.5t-13.5 5.5q-21 0 -26 -49zM596 647.5q-25 -34.5 -79 -40.5q88 -93 88 -274
q0 -127 -36 -211.5t-99.5 -126t-146.5 -41.5q-129 0 -206 95t-77 284t79 283.5t214 94.5q24 0 75 -7q36 -6 51 -6q27 0 39.5 14.5t12.5 55.5q0 33 -6 58h109q7 -32 7 -69q0 -75 -25 -109.5zM458 333q0 251 -135 251q-137 0 -137 -251q0 -128 35.5 -190t101.5 -62
q135 0 135 252z" />
    <glyph glyph-name="uni1EE1" unicode="&#x1ee1;" horiz-adv-x="523" 
d="M174 564h-81q3 65 28.5 101t68.5 36q22 0 37 -9t36 -26q21 -19 31 -19q22 0 25 50h82q-3 -65 -28.5 -101.5t-68.5 -36.5q-22 0 -38 9t-35 26q-8 7 -16.5 12.5t-14.5 5.5q-21 0 -26 -48zM497.5 437q-23.5 -33 -70.5 -41q43 -61 43 -171q0 -93 -30 -154t-79.5 -89
t-110.5 -28t-110.5 28t-79.5 89t-30 154q0 138 65 205t166 67q24 0 46 -3.5t28 -4.5q22 -5 34 -5q20 0 31 13.5t11 51.5q0 26 -5 63h110q5 -40 5 -70q0 -72 -23.5 -105zM311 111.5q22 38.5 22 113.5q0 76 -22 114.5t-61 38.5q-38 0 -61 -39t-23 -114t23 -113.5t61 -38.5
q39 0 61 38.5z" />
    <glyph glyph-name="uni1EE2" unicode="&#x1ee2;" horiz-adv-x="641" 
d="M596 647.5q-25 -34.5 -79 -40.5q88 -93 88 -274q0 -127 -36 -211.5t-99.5 -126t-146.5 -41.5q-129 0 -206 95t-77 284t79 283.5t214 94.5q24 0 75 -7q36 -6 51 -6q27 0 39.5 14.5t12.5 55.5q0 33 -6 58h109q7 -32 7 -69q0 -75 -25 -109.5zM458 333q0 251 -135 251
q-137 0 -137 -251q0 -128 35.5 -190t101.5 -62q135 0 135 252zM379.5 -114q24.5 -21 24.5 -50t-24.5 -50t-58.5 -21t-58 21t-24 50t24 50t58 21t58.5 -21z" />
    <glyph glyph-name="uni1EE3" unicode="&#x1ee3;" horiz-adv-x="523" 
d="M497.5 437q-23.5 -33 -70.5 -41q43 -61 43 -171q0 -93 -30 -154t-79.5 -89t-110.5 -28t-110.5 28t-79.5 89t-30 154q0 138 65 205t166 67q24 0 46 -3.5t28 -4.5q22 -5 34 -5q20 0 31 13.5t11 51.5q0 26 -5 63h110q5 -40 5 -70q0 -72 -23.5 -105zM311 111.5
q22 38.5 22 113.5q0 76 -22 114.5t-61 38.5q-38 0 -61 -39t-23 -114t23 -113.5t61 -38.5q39 0 61 38.5zM309 -114q25 -21 25 -50t-25 -50t-59 -21t-58 21t-24 50t24 50t58 21t59 -21z" />
    <glyph glyph-name="uni1EE4" unicode="&#x1ee4;" horiz-adv-x="637" 
d="M440 698h138v-444q0 -152 -67 -226t-192 -74t-192.5 74t-67.5 226v444h138v-413q0 -112 31.5 -158t90.5 -46q58 0 89.5 46t31.5 158v413zM260.5 -215q-24.5 21 -24.5 49q0 29 24.5 50t58.5 21q33 0 58 -21t25 -50q0 -28 -24.5 -49t-58.5 -21t-58.5 21z" />
    <glyph glyph-name="uni1EE5" unicode="&#x1ee5;" horiz-adv-x="510" 
d="M324 485h132v-519h-117q-2 53 -5 74q-42 -86 -137 -86q-71 0 -110.5 51.5t-39.5 156.5v323h132v-276q0 -65 15.5 -95.5t51.5 -30.5q78 0 78 130v272zM191 -214q-24 21 -24 50t24 50t58 21t59 -21t25 -50t-25 -50t-59 -21t-58 21z" />
    <glyph glyph-name="uni1EE6" unicode="&#x1ee6;" horiz-adv-x="637" 
d="M210 914q47 28 103 28q42 0 71 -21t29 -63q0 -44 -30 -73.5t-72 -45.5l-40 62q20 8 32.5 19t12.5 23q0 10 -8 15t-21 5q-30 0 -59 -24zM440 698h138v-444q0 -152 -67 -226t-192 -74t-192.5 74t-67.5 226v444h138v-413q0 -112 31.5 -158t90.5 -46q58 0 89.5 46t31.5 158
v413z" />
    <glyph glyph-name="uni1EE7" unicode="&#x1ee7;" horiz-adv-x="510" 
d="M145 719q22 13 49.5 20.5t52.5 7.5q43 0 70.5 -25t27.5 -71t-28.5 -78t-70.5 -48l-41 63q19 9 31 21.5t12 27.5q0 13 -7.5 20.5t-22.5 7.5q-28 0 -55 -24zM324 485h132v-519h-117q-2 53 -5 74q-42 -86 -137 -86q-71 0 -110.5 51.5t-39.5 156.5v323h132v-276
q0 -65 15.5 -95.5t51.5 -30.5q78 0 78 130v272z" />
    </font>
</defs>
</svg>
