<?xml version="1.0" standalone="no"?>
<!DOCTYPE svg PUBLIC "-//W3C//DTD SVG 1.1//EN" "http://www.w3.org/Graphics/SVG/1.1/DTD/svg11.dtd" >
<svg xmlns="http://www.w3.org/2000/svg" xmlns:xlink="http://www.w3.org/1999/xlink" version="1.1">
<metadata>
Created by FontForge 20170731 at Fri May 28 14:24:02 2021
 By Aleksey,,,
Copyright 2021 Huawei Device Co., Ltd. All Rights Reserved.
</metadata>
<defs>
<font id="HarmonyOS_Sans_Condensed_Black" horiz-adv-x="517" >
  <font-face 
    font-family="HarmonyOS Sans Condensed Black"
    font-weight="900"
    font-stretch="normal"
    units-per-em="1000"
    panose-1="0 0 10 0 0 0 0 0 0 0"
    ascent="800"
    descent="-200"
    x-height="483"
    cap-height="698"
    bbox="-477 -244 1422 996"
    underline-thickness="50"
    underline-position="-150"
    unicode-range="U+0020-301E"
  />
<missing-glyph horiz-adv-x="500" 
d="M93 850h317v-1000h-317v1000zM333 750v33h-165v-33h65v-37h-66v-33h166v33h-66v37h66zM267 584v70h-100v-104h166v34h-66zM200 620h33v-36h-33v36zM333 490v33h-166v-33h66v-37h-66v-33h100v70h66zM333 363v100h-33v-66h-133v-34h166zM333 228v113h-100v-56h34v23h33v-47
h-100v80h-33v-113h166zM333 55v113h-166v-113h166zM200 135h100v-47h-100v47zM333 -1v33h-166v-33h70l-70 -47v-33h166v33h-102l70 47h32z" />
    <glyph glyph-name="f_b.liga" unicode="fb" horiz-adv-x="865" 
d="M249.5 577q-15.5 -24 -15.5 -74v-20h100v-133h-100v-384h-155v384h-69v133h69v39q0 107 51.5 162.5t136.5 55.5q44 0 76 -15v-136q-18 12 -43 12q-35 0 -50.5 -24zM787.5 429.5q52.5 -67.5 52.5 -204.5t-52.5 -204.5t-137.5 -67.5q-86 0 -127 74l-5 -61h-134v761h151
v-286q41 56 115 56q85 0 137.5 -67.5zM661 124q20 34 20 101t-19.5 101t-53.5 34q-32 0 -52.5 -32.5t-20.5 -102.5t20 -102.5t53 -32.5t53 34z" />
    <glyph glyph-name="f_f.liga" unicode="ff" horiz-adv-x="662" 
d="M569.5 571.5q-14.5 -23.5 -14.5 -74.5v-14h100v-133h-100v-384h-155v384h-166v-384h-155v384h-69v133h69v39q0 107 53 163t137 56q43 0 75 -12.5t49 -31.5l-64 -117q-14 18 -40 18q-55 0 -55 -94v-21h166v20q0 119 56.5 178.5t143.5 59.5q48 0 83 -17.5t49 -39.5
l-74 -112q-10 12 -20.5 17.5t-24.5 5.5q-29 0 -43.5 -23.5z" />
    <glyph glyph-name="f_f_b.liga" unicode="ffb" horiz-adv-x="1186" 
d="M400 522q0 107 51.5 162.5t136.5 55.5q45 0 76 -15v-136q-18 12 -43 12q-35 0 -50.5 -24t-15.5 -74v-20h100v-133h-100v-384h-155v384h-166v-384h-155v384h-69v133h69v39q0 107 53 163t137 56q43 0 75 -12.5t49 -31.5l-64 -117q-14 18 -40 18q-55 0 -55 -94v-21h166v39z
M1108.5 429.5q52.5 -67.5 52.5 -204.5t-52.5 -204.5t-136.5 -67.5q-87 0 -128 74l-5 -61h-134v761h151v-286q41 56 116 56q84 0 136.5 -67.5zM982 124q20 34 20 101t-19.5 101t-53.5 34q-32 0 -52.5 -32.5t-20.5 -102.5q0 -69 20 -102t53 -33t53 34z" />
    <glyph glyph-name="f_f_h.liga" unicode="ffh" horiz-adv-x="1179" 
d="M400 522q0 107 51.5 162.5t136.5 55.5q45 0 76 -15v-136q-18 12 -43 12q-35 0 -50.5 -24t-15.5 -74v-20h100v-133h-100v-384h-155v384h-166v-384h-155v384h-69v133h69v39q0 107 53 163t137 56q43 0 75 -12.5t49 -31.5l-64 -117q-14 18 -40 18q-55 0 -55 -94v-21h166v39z
M1098.5 446q38.5 -51 38.5 -159v-321h-156v263q0 60 -12.5 88t-42.5 28t-45.5 -27.5t-15.5 -93.5v-258h-155v761h155v-295q43 65 125 65q70 0 108.5 -51z" />
    <glyph glyph-name="f_f_i.liga" unicode="ffi" horiz-adv-x="912" 
d="M400 522q0 107 51.5 162.5t136.5 55.5q45 0 76 -15v-136q-18 12 -42 12q-35 0 -51 -24.5t-16 -73.5v-20h100v-133h-100v-384h-155v384h-166v-384h-155v384h-69v133h69v39q0 107 53 163t137 56q43 0 75 -12.5t49 -31.5l-64 -117q-14 18 -40 18q-55 0 -55 -94v-21h166v39z
M725 572.5q-26 26.5 -26 62.5q0 37 25.5 63t62.5 26q34 0 61 -26.5t27 -62.5q0 -35 -26.5 -62t-61.5 -27q-36 0 -62 26.5zM864 483v-517h-154v517h154z" />
    <glyph glyph-name="f_f_k.liga" unicode="ffk" horiz-adv-x="1180" 
d="M400 522q0 107 51.5 162.5t136.5 55.5q45 0 76 -15v-136q-18 12 -43 12q-35 0 -50.5 -24t-15.5 -74v-20h100v-133h-100v-384h-155v384h-166v-384h-155v384h-69v133h69v39q0 107 53 163t137 56q43 0 75 -12.5t49 -31.5l-64 -117q-14 18 -40 18q-55 0 -55 -94v-21h166v39z
M1164 483l-144 -199l157 -318h-182l-77 173l-53 -72v-101h-155v761h155v-257q0 -73 -0.5 -128.5t-3.5 -91.5q13 33 63 115l70 118h170z" />
    <glyph glyph-name="f_f_l.liga" unicode="ffl" horiz-adv-x="914" 
d="M400 522q0 107 51.5 162.5t136.5 55.5q45 0 76 -15v-136q-18 12 -43 12q-35 0 -50.5 -24t-15.5 -74v-20h100v-133h-100v-384h-155v384h-166v-384h-155v384h-69v133h69v39q0 107 53 163t137 56q43 0 75 -12.5t49 -31.5l-64 -117q-14 18 -40 18q-55 0 -55 -94v-21h166v39z
M865 -34h-155v761h155v-761z" />
    <glyph glyph-name="f_h.liga" unicode="fh" horiz-adv-x="858" 
d="M249.5 577q-15.5 -24 -15.5 -74v-20h100v-133h-100v-384h-155v384h-69v133h69v39q0 107 51.5 162.5t136.5 55.5q44 0 76 -15v-136q-18 12 -43 12q-35 0 -50.5 -24zM777.5 446q38.5 -51 38.5 -159v-321h-156v263q0 60 -12.5 88t-42.5 28t-45.5 -27.5t-15.5 -93.5v-258
h-155v761h155v-295q41 65 124 65q71 0 109.5 -51z" />
    <glyph glyph-name="f_i.liga" unicode="fi" horiz-adv-x="591" 
d="M250 576.5q-16 -24.5 -16 -73.5v-20h100v-133h-100v-384h-155v384h-69v133h69v39q0 107 51.5 162.5t136.5 55.5q44 0 76 -15v-136q-18 12 -42 12q-35 0 -51 -24.5zM404 572.5q-26 26.5 -26 62.5q0 37 25.5 63t62.5 26q34 0 61 -26.5t27 -62.5q0 -35 -26.5 -62t-61.5 -27
q-36 0 -62 26.5zM543 483v-517h-154v517h154z" />
    <glyph glyph-name="f_k.liga" unicode="fk" horiz-adv-x="859" 
d="M249.5 577q-15.5 -24 -15.5 -74v-20h100v-133h-100v-384h-155v384h-69v133h69v39q0 107 51.5 162.5t136.5 55.5q44 0 76 -15v-136q-18 12 -43 12q-35 0 -50.5 -24zM699 284l157 -318h-182l-77 173l-53 -72v-101h-155v761h155v-257q0 -73 -0.5 -128.5t-3.5 -91.5
q13 33 63 115l70 118h170z" />
    <glyph glyph-name="f_l.liga" unicode="fl" horiz-adv-x="592" 
d="M249.5 577q-15.5 -24 -15.5 -74v-20h100v-133h-100v-384h-155v384h-69v133h69v39q0 107 51.5 162.5t136.5 55.5q44 0 76 -15v-136q-18 12 -43 12q-35 0 -50.5 -24zM544 727v-761h-155v761h155z" />
    <glyph glyph-name="r_f.liga" unicode="rf" horiz-adv-x="708" 
d="M615.5 571.5q-14.5 -23.5 -14.5 -74.5v-14h100v-133h-100v-384h-155v384h-69v133h69v20q0 119 56.5 178.5t143.5 59.5q48 0 83 -17.5t49 -39.5l-74 -112q-11 12 -21 17.5t-24 5.5q-29 0 -43.5 -23.5zM343 491v-139q-20 9 -42 9q-47 0 -72.5 -37.5t-25.5 -114.5v-243h-155
v517h137l2 -20q2 -34 5 -51q17 43 48 64t68 21q22 0 35 -6z" />
    <glyph glyph-name="r_t.liga" unicode="rt" horiz-adv-x="764" 
d="M768 5q-50 -52 -144 -52q-76 0 -125.5 42.5t-49.5 157.5v198h-77v133h77v161h155v-161h130v-133h-130v-155q0 -52 11.5 -73t38.5 -21q29 0 56 24zM343 491v-151q-20 9 -42 9q-47 0 -72.5 -37.5t-25.5 -114.5v-231h-155v517h137l2 -20q2 -34 5 -51q17 43 48 64t68 21
q22 0 35 -6z" />
    <glyph glyph-name="r_v.liga" unicode="rv" horiz-adv-x="870" 
d="M343 491v-151q-20 9 -43 9q-46 0 -71.5 -37.5t-25.5 -114.5v-231h-155v517h137l2 -20q2 -34 5 -51q17 43 48 64t68 21q22 0 35 -6zM367 483h171l86 -283l81 283h160l-184 -516h-126z" />
    <glyph glyph-name="r_x.liga" unicode="rx" horiz-adv-x="841" 
d="M343 491v-151q-20 9 -43 9q-46 0 -71.5 -37.5t-25.5 -114.5v-231h-155v517h137l2 -20q2 -34 5 -51q17 43 48 64t68 21q22 0 35 -6zM538 483l66 -118l64 118h168l-155 -253l155 -264h-170l-67 119l-64 -119h-168l156 255l-156 262h171z" />
    <glyph glyph-name="r_y.liga" unicode="ry" horiz-adv-x="871" 
d="M343 491v-151q-20 9 -43 9q-46 0 -71.5 -37.5t-25.5 -114.5v-231h-155v517h137l2 -20q2 -34 5 -51q17 43 48 64t68 21q22 0 35 -6zM627 187l80 296h159l-178 -545q-23 -71 -48 -110t-57.5 -55.5t-80.5 -16.5q-80 0 -127 41l58 117q24 -19 56 -19q24 0 38.5 10.5
t24.5 39.5l5 15l-189 523h173z" />
    <glyph glyph-name=".notdef" horiz-adv-x="500" 
d="M93 850h317v-1000h-317v1000zM333 750v33h-165v-33h65v-37h-66v-33h166v33h-66v37h66zM267 584v70h-100v-104h166v34h-66zM200 620h33v-36h-33v36zM333 490v33h-166v-33h66v-37h-66v-33h100v70h66zM333 363v100h-33v-66h-133v-34h166zM333 228v113h-100v-56h34v23h33v-47
h-100v80h-33v-113h166zM333 55v113h-166v-113h166zM200 135h100v-47h-100v47zM333 -1v33h-166v-33h70l-70 -47v-33h166v33h-102l70 47h32z" />
    <glyph glyph-name=".null" horiz-adv-x="0" 
 />
    <glyph glyph-name="nonmarkingreturn" horiz-adv-x="333" 
 />
    <glyph glyph-name="space" unicode=" " horiz-adv-x="230" 
 />
    <glyph glyph-name="exclam" unicode="!" horiz-adv-x="239" 
d="M57 215l-24 512h172l-23 -512h-125zM52.5 -18.5q-27.5 28.5 -27.5 67.5q0 40 27.5 68.5t66.5 28.5t67 -28.5t28 -68.5q0 -39 -28 -67.5t-67 -28.5t-66.5 28.5z" />
    <glyph glyph-name="quotedbl" unicode="&#x22;" horiz-adv-x="446" 
d="M57 444l-8 326h140l-7 -326h-125zM265 444l-9 326h141l-7 -326h-125z" />
    <glyph glyph-name="numbersign" unicode="#" horiz-adv-x="621" 
d="M536 573h75v-142h-101l-29 -159h76v-142h-102l-30 -167h-140l31 167h-90l-31 -167h-140l31 167h-76v142h103l28 159h-77v142h104l30 168h139l-31 -168h91l31 168h139zM281 431l-30 -159h91l29 159h-90z" />
    <glyph glyph-name="dollar" unicode="$" 
d="M458.5 33.5q-50.5 -54.5 -127.5 -71.5v-138h-131v135q-70 15 -119.5 62.5t-71.5 127.5l122 71q15 -42 33 -67t44 -37v155q-56 19 -95.5 41t-65.5 63.5t-26 106.5q0 94 49.5 150.5t129.5 72.5v128h131v-128q69 -14 113.5 -58t60.5 -111l-118 -69q-26 61 -64 81v-157
q55 -18 94.5 -41t65.5 -64t26 -105q0 -93 -50.5 -147.5zM177 459.5q11 -14.5 31 -26.5v120q-21 -7 -31.5 -22.5t-10.5 -36.5q0 -20 11 -34.5zM323 111q41 14 41 57q0 20 -10.5 35t-30.5 27v-119z" />
    <glyph glyph-name="percent" unicode="%" horiz-adv-x="800" 
d="M298 381q-48 -48 -120 -48t-120.5 48t-48.5 141q0 63 23 105.5t61.5 63.5t84.5 21q72 0 120 -48.5t48 -141.5t-48 -141zM133 -34l376 732h159l-376 -732h-159zM205 569q-10 16 -27 16t-27 -15.5t-10 -46.5t10 -47t27 -16t27 16t10 47q0 30 -10 46zM769 37.5
q-23 -42.5 -61 -63.5t-84 -21t-84.5 21t-62 63.5t-23.5 104.5q0 63 23 105.5t62 63.5t85 21q71 0 119.5 -48.5t48.5 -141.5q0 -62 -23 -104.5zM650.5 190q-10.5 16 -27.5 16q-16 0 -26.5 -16.5t-10.5 -46.5t10 -46t27 -16t27.5 15.5t10.5 46.5t-10.5 47z" />
    <glyph glyph-name="ampersand" unicode="&#x26;" horiz-adv-x="635" 
d="M668 -34h-184l-47 58q-84 -71 -200 -71q-106 0 -165.5 55t-59.5 155q0 80 36.5 130t100.5 91q-33 45 -45 80.5t-12 74.5q0 64 27 109.5t73 69t103 23.5t99.5 -24t65 -66t22.5 -95q0 -68 -35.5 -112.5t-98.5 -84.5l83 -102q22 58 34 143h147q-22 -156 -82 -264zM246.5 502
q7.5 -20 26.5 -47q30 21 45.5 43t15.5 51q0 26 -13 40t-33 14q-22 0 -35.5 -14.5t-13.5 -46.5q0 -20 7.5 -40zM349 134l-121 149q-27 -23 -41.5 -48.5t-14.5 -58.5q0 -77 83 -77q51 0 94 35z" />
    <glyph glyph-name="quotesingle" unicode="'" horiz-adv-x="238" 
d="M57 444l-8 326h140l-7 -326h-125z" />
    <glyph glyph-name="parenleft" unicode="(" horiz-adv-x="382" 
d="M90.5 579q43.5 119 120.5 202h161q-77 -100 -116.5 -207.5t-39.5 -255.5t39.5 -256.5t116.5 -206.5h-161q-77 83 -120.5 202t-43.5 261t43.5 261z" />
    <glyph glyph-name="parenright" unicode=")" horiz-adv-x="376" 
d="M285.5 57q-43.5 -119 -120.5 -202h-161q77 98 116.5 206.5t39.5 256.5t-39.5 255.5t-116.5 207.5h161q77 -83 120.5 -202t43.5 -261t-43.5 -261z" />
    <glyph glyph-name="asterisk" unicode="*" horiz-adv-x="466" 
d="M279 569l107 76l58 -101l-122 -55l122 -54l-58 -101l-108 77l14 -131h-117l11 130l-105 -76l-59 101l119 54l-119 55l59 101l105 -76l-11 130h117z" />
    <glyph glyph-name="plus" unicode="+" 
d="M330 562v-162h162v-144h-162v-162h-143v162h-162v144h162v162h143z" />
    <glyph glyph-name="comma" unicode="," horiz-adv-x="253" 
d="M198.5 112q30.5 -35 30.5 -102q0 -62 -27.5 -114.5t-74.5 -87t-104 -43.5v85q47 10 75 36t34 67h-4q-39 0 -66.5 28.5t-27.5 68.5t25.5 68.5t64.5 28.5q44 0 74.5 -35z" />
    <glyph glyph-name="hyphen" unicode="-" horiz-adv-x="383" 
d="M39 200v136h305v-136h-305z" />
    <glyph glyph-name="period" unicode="." horiz-adv-x="238" 
d="M51.5 -21q-27.5 29 -27.5 68q0 40 27.5 68.5t66.5 28.5q40 0 68 -28.5t28 -68.5q0 -39 -28.5 -68t-67.5 -29t-66.5 29z" />
    <glyph glyph-name="slash" unicode="/" horiz-adv-x="404" 
d="M6 -34l240 732h152l-240 -732h-152z" />
    <glyph glyph-name="zero" unicode="0" 
d="M422.5 39q-57.5 -86 -163.5 -86t-164 85.5t-58 293.5t58.5 294t163.5 86q106 0 163.5 -86t57.5 -294q0 -207 -57.5 -293zM211 190q5 -49 16.5 -68t31.5 -19q21 0 31.5 19.5t15 68t4.5 141.5t-4.5 141.5t-15 68t-31.5 19.5q-20 0 -31 -18.5t-16.5 -68t-5.5 -142.5t5 -142z
" />
    <glyph glyph-name="one" unicode="1" 
d="M73 383v184l180 132h136v-733h-164v528z" />
    <glyph glyph-name="two" unicode="2" 
d="M258 109h220v-143h-427v116l152 233q48 73 65 110.5t17 75.5q0 61 -41 61q-24 0 -41 -24.5t-27 -75.5l-132 63q20 94 76.5 140.5t138.5 46.5q98 0 147.5 -56t49.5 -144q0 -57 -21.5 -106.5t-84.5 -150.5z" />
    <glyph glyph-name="three" unicode="3" 
d="M471 171q0 -103 -59.5 -160.5t-161.5 -57.5q-85 0 -143 44t-73 124l131 69q9 -44 30 -65.5t49 -21.5q54 0 54 76q0 49 -26 72t-78 23h-22v134h28q42 0 62.5 25t20.5 65q0 27 -12.5 45.5t-36.5 18.5q-52 0 -71 -83l-123 61q20 83 77 127.5t140 44.5q94 0 146 -53.5
t52 -139.5q0 -60 -23 -104t-66 -68q105 -45 105 -176z" />
    <glyph glyph-name="four" unicode="4" 
d="M430 409v-155h81v-141h-81v-147h-151v147h-260v118l204 467h162l-190 -444h84v155h151z" />
    <glyph glyph-name="five" unicode="5" 
d="M417.5 381.5q51.5 -59.5 51.5 -171.5q0 -86 -30 -143.5t-81 -85.5t-114 -28q-73 0 -126.5 38t-71.5 118l130 71q8 -40 24.5 -58.5t37.5 -18.5q27 0 43.5 27t16.5 74q0 45 -15.5 70t-43.5 25q-20 0 -36 -13.5t-25 -38.5l-121 54l39 397h341v-140h-207l-13 -126q27 9 59 9
q90 0 141.5 -59.5z" />
    <glyph glyph-name="six" unicode="6" 
d="M392 405.5q43 -26.5 68.5 -79t25.5 -126.5q0 -82 -30.5 -137.5t-82 -82.5t-112.5 -27q-62 0 -113.5 27.5t-82 84.5t-30.5 142q0 63 16.5 110.5t61.5 138.5l122 242h164l-116 -227l-22 -43q16 4 37 4q51 0 94 -26.5zM303.5 126q15.5 26 15.5 73q0 46 -15.5 71.5
t-43.5 25.5t-44.5 -25.5t-16.5 -72.5t16.5 -72.5t44.5 -25.5t43.5 26z" />
    <glyph glyph-name="seven" unicode="7" 
d="M300 554h-255v145h431v-104l-196 -628h-169z" />
    <glyph glyph-name="eight" unicode="8" 
d="M49 281q25 45 69 73q-77 54 -77 154q0 56 24.5 102.5t74 74t120.5 27.5q105 0 159.5 -58t54.5 -146q0 -98 -74 -154q43 -28 68 -73t25 -106q0 -66 -28 -116t-80.5 -78t-124.5 -28q-73 0 -126 28t-81.5 78t-28.5 116q0 61 25 106zM220 438q16 -22 41 -22q26 0 41 21.5
t15 58.5t-15 58t-41 21q-25 0 -41 -21.5t-16 -57.5t16 -58zM210 120.5q19 -24.5 49 -24.5t49 25t19 72t-19 71.5t-49 24.5t-49 -24t-19 -72t19 -72.5z" />
    <glyph glyph-name="nine" unicode="9" 
d="M368.5 685q51.5 -27 82 -84t30.5 -143q0 -63 -16.5 -111t-62.5 -138l-121 -242h-164l116 227l22 43q-16 -4 -38 -4q-51 0 -93.5 26.5t-68.5 79t-26 126.5q0 82 31 137.5t82 82.5t113 27t113.5 -27zM212.5 394.5q15.5 -25.5 43.5 -25.5t44.5 25.5t16.5 72.5t-16.5 72.5
t-44.5 25.5t-43.5 -26t-15.5 -73q0 -46 15.5 -71.5z" />
    <glyph glyph-name="colon" unicode=":" horiz-adv-x="259" 
d="M61.5 331.5q-27.5 28.5 -27.5 68.5t27.5 68.5t66.5 28.5q40 0 68 -28.5t28 -68.5t-28 -68.5t-68 -28.5q-39 0 -66.5 28.5zM61.5 -18.5q-27.5 28.5 -27.5 68.5t27.5 68.5t66.5 28.5q40 0 68 -28t28 -69q0 -40 -28 -68.5t-68 -28.5q-39 0 -66.5 28.5z" />
    <glyph glyph-name="semicolon" unicode=";" horiz-adv-x="270" 
d="M69.5 331.5q-27.5 28.5 -27.5 68.5t27.5 68.5t67.5 28.5t68 -28.5t28 -68.5t-28 -68.5t-68 -28.5t-67.5 28.5zM205 112q31 -35 31 -102q0 -62 -27.5 -114.5t-75 -87t-104.5 -43.5v85q47 10 75 36t34 67h-4q-39 0 -66.5 28.5t-27.5 68.5t25.5 68.5t64.5 28.5q44 0 75 -35z
" />
    <glyph glyph-name="less" unicode="&#x3c;" 
d="M492 603v-153l-283 -122l283 -122v-153l-467 202v146z" />
    <glyph glyph-name="equal" unicode="=" 
d="M492 378h-467v143h467v-143zM492 137h-467v143h467v-143z" />
    <glyph glyph-name="greater" unicode="&#x3e;" 
d="M308 328l-283 122v153l467 -202v-146l-467 -202v153z" />
    <glyph glyph-name="question" unicode="?" horiz-adv-x="432" 
d="M-29 551q30 94 96.5 141.5t152.5 47.5q61 0 110.5 -23.5t78.5 -68.5t29 -107q0 -43 -13.5 -75.5t-33 -55t-51.5 -51.5q-29 -28 -45 -45.5t-26.5 -42.5t-10.5 -56h-133q-8 31 -8 61q0 49 20.5 82t58.5 71q30 31 44.5 53t14.5 49q0 25 -12.5 39t-37.5 14q-67 0 -101 -109z
M133 -18.5q-27 28.5 -27 67.5q0 40 27 68.5t65 28.5q39 0 67 -28.5t28 -68.5q0 -39 -28.5 -67.5t-66.5 -28.5t-65 28.5z" />
    <glyph glyph-name="at" unicode="@" horiz-adv-x="816" 
d="M623 689.5q84 -51.5 131.5 -153.5t47.5 -249q0 -124 -44.5 -192.5t-130.5 -68.5q-39 0 -71 16.5t-52 50.5q-37 -66 -113 -66q-47 0 -86 29t-62 85.5t-23 133.5t23 133.5t62 86t86 29.5q62 0 101 -49q4 23 5 37h106v-287q0 -84 33 -84q24 0 34.5 36.5t10.5 104.5
q0 173 -67 258.5t-188 85.5q-82 0 -146.5 -41.5t-100.5 -120.5t-36 -187q0 -106 35.5 -183.5t98.5 -119t144 -41.5q87 0 154 54l56 -96q-36 -36 -89.5 -54.5t-120.5 -18.5q-116 0 -206 55t-140.5 158.5t-50.5 245.5q0 144 52 248.5t144 160t209 55.5q110 0 194 -51.5z
M459 194.5q18 25.5 18 80.5t-18 80.5t-45 25.5t-43.5 -27.5t-16.5 -78.5t16 -78.5t44 -27.5q27 0 45 25.5z" />
    <glyph glyph-name="A" unicode="A" horiz-adv-x="662" 
d="M404 698l247 -732h-174l-45 151h-214l-43 -151h-163l239 732h153zM391 259l-67 232l-67 -232h134z" />
    <glyph glyph-name="B" unicode="B" horiz-adv-x="581" 
d="M548 178q0 -98 -63 -155t-167 -57h-259v732h241q95 0 155.5 -52t60.5 -149q0 -101 -69 -150q101 -48 101 -169zM217 558v-153h59q35 0 54.5 20t19.5 58q0 37 -19 56t-55 19h-59zM302 107q37 0 57.5 21t20.5 62q0 39 -21 59.5t-58 20.5h-84v-163h85z" />
    <glyph glyph-name="C" unicode="C" horiz-adv-x="566" 
d="M416 202l138 -76q-14 -80 -75.5 -126t-153.5 -46q-84 0 -150 41.5t-103.5 126.5t-37.5 211t37.5 211t103.5 126.5t150 41.5q92 0 153.5 -46t75.5 -127l-138 -75q-28 97 -97 97q-53 0 -84 -55.5t-31 -172.5t31 -172.5t84 -55.5q69 0 97 97z" />
    <glyph glyph-name="D" unicode="D" horiz-adv-x="634" 
d="M294 698q88 0 158 -43t109.5 -125.5t39.5 -196.5q0 -115 -39.5 -198t-109 -126t-158.5 -43h-235v732h235zM278 106q77 0 114.5 56.5t37.5 170.5q0 225 -152 225h-57v-452h57z" />
    <glyph glyph-name="E" unicode="E" horiz-adv-x="504" 
d="M439 265h-218v-157h253v-142h-415v732h405v-142h-243v-150h218v-141z" />
    <glyph glyph-name="F" unicode="F" horiz-adv-x="489" 
d="M59 698h405v-144h-243v-167h218v-143h-218v-278h-162v732z" />
    <glyph glyph-name="G" unicode="G" horiz-adv-x="605" 
d="M315 244v142h253v-305q-26 -57 -89.5 -92.5t-147.5 -35.5q-89 0 -155.5 42t-104 128t-37.5 212t40 210.5t108.5 125.5t152.5 41q93 0 154 -46.5t83 -126.5l-136 -74q-29 97 -108 97q-58 0 -93 -55t-35 -172q0 -122 37 -177.5t102 -55.5q50 0 72 34v108h-96z" />
    <glyph glyph-name="H" unicode="H" horiz-adv-x="657" 
d="M221 418h214v280h162v-732h-162v306h-214v-306h-162v732h162v-280z" />
    <glyph glyph-name="I" unicode="I" horiz-adv-x="281" 
d="M221 -34h-162v732h162v-732z" />
    <glyph glyph-name="J" unicode="J" horiz-adv-x="480" 
d="M4 113l128 71q10 -43 27 -62t43 -19q34 0 48.5 32.5t14.5 102.5v460h162v-472q0 -144 -60.5 -208.5t-160.5 -64.5q-163 0 -202 160z" />
    <glyph glyph-name="K" unicode="K" horiz-adv-x="650" 
d="M644 -34h-194l-149 299l-80 -108v-191h-162v732h162v-212q0 -80 -6 -123q15 30 67 108l13 19l143 208h183l-212 -286z" />
    <glyph glyph-name="L" unicode="L" horiz-adv-x="488" 
d="M59 698h162v-586h243v-146h-405v732z" />
    <glyph glyph-name="M" unicode="M" horiz-adv-x="728" 
d="M548 698h120v-732h-153v400l-112 -203h-80l-112 204v-401h-152v732h123l183 -345z" />
    <glyph glyph-name="N" unicode="N" horiz-adv-x="638" 
d="M191 698l240 -422v422h147v-732h-131l-240 422v-422h-148v732h132z" />
    <glyph glyph-name="O" unicode="O" horiz-adv-x="648" 
d="M71 545.5q37 84.5 102 125.5t151 41q85 0 150.5 -41t102.5 -126t37 -212q0 -128 -37 -213.5t-102 -126t-151 -40.5q-132 0 -211 94.5t-79 285.5q0 128 37 212.5zM235.5 159q31.5 -56 89.5 -56t88 55.5t30 174.5q0 118 -30 173.5t-88 55.5q-121 0 -121 -229
q0 -118 31.5 -174z" />
    <glyph glyph-name="P" unicode="P" horiz-adv-x="559" 
d="M282 698q79 0 137 -30t88.5 -85t30.5 -129q0 -112 -68.5 -177.5t-187.5 -65.5h-61v-245h-162v732h223zM268 350q43 0 71.5 25t28.5 79t-28 79t-72 25h-47v-208h47z" />
    <glyph glyph-name="Q" unicode="Q" horiz-adv-x="648" 
d="M682 -207h-193l-143 161q-7 -1 -22 -1q-132 0 -211 94.5t-79 285.5q0 128 37 212.5t102 125.5t151 41q85 0 150.5 -41t102.5 -126t37 -212q0 -117 -31 -198t-87 -126zM235.5 159q31.5 -56 89.5 -56t88 55.5t30 174.5q0 118 -30 173.5t-88 55.5q-121 0 -121 -229
q0 -118 31.5 -174z" />
    <glyph glyph-name="R" unicode="R" horiz-adv-x="590" 
d="M590 -34l-183 1l-133 257h-6h-50v-258h-159v732h227q77 0 133.5 -29.5t87 -83t30.5 -124.5q0 -68 -28 -120t-79 -82zM262 363q42 0 74 24t32 75q0 50 -31 73t-75 23h-44v-195h44z" />
    <glyph glyph-name="S" unicode="S" horiz-adv-x="504" 
d="M451 49.5q-33 -50.5 -86.5 -73.5t-115.5 -23q-91 0 -156 46t-85 136l141 74q32 -110 107 -110q28 0 44.5 15.5t16.5 44.5q0 38 -27.5 60.5t-84.5 49.5q-55 25 -90.5 48.5t-61 66.5t-25.5 109q0 75 33 124t86 72t116 23q83 0 140 -41.5t75 -117.5l-141 -74q-24 87 -83 87
q-26 0 -43 -16.5t-17 -45.5q0 -35 26 -55.5t83 -46.5q56 -25 92.5 -49t62.5 -67t26 -110q0 -76 -33 -126.5z" />
    <glyph glyph-name="T" unicode="T" horiz-adv-x="531" 
d="M11 698h509v-145h-174v-587h-162v587h-173v145z" />
    <glyph glyph-name="U" unicode="U" horiz-adv-x="644" 
d="M429 698h162v-440q0 -154 -70.5 -229.5t-198.5 -75.5t-198.5 75.5t-70.5 229.5v440h162v-402q0 -110 27.5 -151.5t80.5 -41.5q50 0 78 41.5t28 151.5v402z" />
    <glyph glyph-name="V" unicode="V" horiz-adv-x="639" 
d="M191 698l136 -503l131 503h170l-226 -732h-161l-229 732h179z" />
    <glyph glyph-name="W" unicode="W" horiz-adv-x="889" 
d="M518 698l106 -458l97 458h157l-191 -732h-133l-108 426l-107 -426h-132l-195 732h166l103 -460l101 460h136z" />
    <glyph glyph-name="X" unicode="X" horiz-adv-x="633" 
d="M614 698l-211 -355l224 -377h-200l-116 221l-120 -221h-185l223 371l-210 361h195l107 -204l107 204h186z" />
    <glyph glyph-name="Y" unicode="Y" horiz-adv-x="593" 
d="M304 414l114 284h171l-208 -454v-278h-161v278l-216 454h185z" />
    <glyph glyph-name="Z" unicode="Z" horiz-adv-x="500" 
d="M469 698v-106l-258 -480h270v-146h-466v107l259 480h-234v145h429z" />
    <glyph glyph-name="bracketleft" unicode="[" horiz-adv-x="375" 
d="M64 781h295v-148h-131v-630h131v-148h-295v926z" />
    <glyph glyph-name="backslash" unicode="\" horiz-adv-x="404" 
d="M6 698h152l240 -732h-152z" />
    <glyph glyph-name="bracketright" unicode="]" horiz-adv-x="375" 
d="M15 633v148h296v-926h-296v148h131v630h-131z" />
    <glyph glyph-name="asciicircum" unicode="^" horiz-adv-x="509" 
d="M255 515l-92 -235h-144l166 418h140l166 -418h-143z" />
    <glyph glyph-name="underscore" unicode="_" horiz-adv-x="407" 
d="M0 -226v136h407v-136h-407z" />
    <glyph glyph-name="grave" unicode="`" horiz-adv-x="331" 
d="M57 715h152l68 -170h-115z" />
    <glyph glyph-name="a" unicode="a" horiz-adv-x="477" 
d="M386 443.5q49 -53.5 49 -156.5v-321h-128q-1 18 -7 59q-37 -72 -118 -72q-65 0 -109.5 39.5t-44.5 120.5q0 58 25.5 98.5t68 60.5t92.5 20q37 0 70 -10q-3 46 -17 64t-38 18q-26 0 -41.5 -15.5t-26.5 -42.5l-111 69q25 58 74.5 90t120.5 32q92 0 141 -53.5zM284 170
q-20 6 -38 6q-28 0 -46 -14.5t-18 -39.5q0 -22 11.5 -32.5t31.5 -10.5q26 0 42.5 20.5t16.5 61.5v9z" />
    <glyph glyph-name="b" unicode="b" horiz-adv-x="532" 
d="M454.5 429.5q52.5 -67.5 52.5 -204.5t-52.5 -204.5t-136.5 -67.5q-87 0 -127 75q-2 -10 -3 -23t-1 -18l-2 -21h-137v761h155v-286q41 56 115 56q84 0 136.5 -67.5zM328.5 124q19.5 34 19.5 101t-19.5 101.5t-53.5 34.5q-32 0 -52 -33t-20 -103t20 -102.5t52 -32.5
q34 0 53.5 34z" />
    <glyph glyph-name="c" unicode="c" horiz-adv-x="422" 
d="M310 152l117 -65q-17 -72 -64 -103t-108 -31q-59 0 -111.5 27.5t-85.5 88.5t-33 156t33 156t85 88.5t112 27.5q61 0 108 -31t64 -103l-117 -65q-16 62 -60 62q-33 0 -49.5 -34.5t-16.5 -100.5q0 -65 16.5 -100t49.5 -35q44 0 60 62z" />
    <glyph glyph-name="d" unicode="d" horiz-adv-x="532" 
d="M329 727h155v-761h-137l-2 20q0 22 -4 42q-40 -75 -127 -75q-84 0 -136.5 67.5t-52.5 204.5t52.5 204.5t136.5 67.5q76 0 115 -56v286zM309 123q20 32 20 102t-20 103t-52 33q-34 0 -53.5 -34.5t-19.5 -101.5t19.5 -100.5t53.5 -33.5q32 0 52 32z" />
    <glyph glyph-name="e" unicode="e" horiz-adv-x="464" 
d="M391 434q54 -63 54 -179q0 -36 -6 -78h-259q6 -48 23 -69.5t46 -21.5q43 0 69 56l112 -68q-20 -62 -69.5 -91.5t-114.5 -29.5q-96 0 -158.5 65.5t-62.5 205.5q0 96 31.5 157t81.5 88.5t109 27.5q90 0 144 -63zM204.5 348.5q-16.5 -20.5 -22.5 -59.5h114q-1 80 -50 80
q-25 0 -41.5 -20.5z" />
    <glyph glyph-name="f" unicode="f" horiz-adv-x="341" 
d="M248.5 571.5q-14.5 -23.5 -14.5 -74.5v-14h100v-133h-100v-384h-155v384h-69v133h69v20q0 119 56.5 178.5t143.5 59.5q48 0 83 -17.5t49 -39.5l-74 -112q-10 12 -20.5 17.5t-24.5 5.5q-29 0 -43.5 -23.5z" />
    <glyph glyph-name="g" unicode="g" horiz-adv-x="516" 
d="M481 483v-449q0 -146 -69 -212t-172 -66q-79 0 -132 31t-76 93l115 74q25 -59 89 -59q45 0 66 27t25 94q-41 -51 -113 -51q-84 0 -136.5 66t-52.5 200t52.5 200t136.5 66q86 0 127 -72q4 33 5 58h135zM309 130.5q20 31.5 20 100.5q0 68 -20 100.5t-52 32.5
q-34 0 -53.5 -33.5t-19.5 -99.5t19.5 -99t53.5 -33q32 0 52 31.5z" />
    <glyph glyph-name="h" unicode="h" 
d="M435.5 446q38.5 -51 38.5 -159v-321h-154v263q0 60 -12.5 88t-43.5 28q-30 0 -45.5 -27.5t-15.5 -93.5v-258h-155v761h155v-295q41 65 124 65q70 0 108.5 -51z" />
    <glyph glyph-name="i" unicode="i" horiz-adv-x="250" 
d="M63 572.5q-26 26.5 -26 62.5q0 37 25.5 63t62.5 26q34 0 60.5 -26.5t26.5 -62.5q0 -35 -26.5 -62t-60.5 -27q-36 0 -62 26.5zM202 -34h-155v517h155v-517z" />
    <glyph glyph-name="j" unicode="j" horiz-adv-x="250" 
d="M64 572.5q-25 26.5 -25 62.5t25 62.5t60 26.5t62 -26.5t27 -62.5t-26.5 -62.5t-62.5 -26.5q-35 0 -60 26.5zM-65 -229.5q-33 14.5 -47 37.5l71 117q17 -20 43 -20q28 0 38 22.5t10 76.5v479h155v-497q0 -114 -53.5 -172t-137.5 -58q-46 0 -79 14.5z" />
    <glyph glyph-name="k" unicode="k" horiz-adv-x="518" 
d="M514 -34h-181l-77 173l-53 -72v-101h-155v761h155v-257q0 -73 -0.5 -128.5t-3.5 -91.5q13 33 63 115l70 118h170l-144 -199z" />
    <glyph glyph-name="l" unicode="l" horiz-adv-x="251" 
d="M203 -34h-155v761h155v-761z" />
    <glyph glyph-name="m" unicode="m" horiz-adv-x="728" 
d="M650 445.5q36 -51.5 36 -158.5v-321h-149v258q0 65 -9.5 90.5t-35.5 25.5q-27 0 -39 -27.5t-12 -94.5v-252h-150v258q0 65 -9 90.5t-35 25.5q-27 0 -39.5 -27.5t-12.5 -94.5v-252h-147v517h129q1 -10 2.5 -31t4.5 -37q41 82 122 82q84 0 117 -88q40 88 129 88
q62 0 98 -51.5z" />
    <glyph glyph-name="n" unicode="n" 
d="M435.5 446q38.5 -51 38.5 -159v-321h-154v263q0 60 -12.5 88t-43.5 28q-30 0 -45.5 -27.5t-15.5 -93.5v-258h-155v518h137l2 -20q2 -37 5 -52q41 85 135 85q70 0 108.5 -51z" />
    <glyph glyph-name="o" unicode="o" horiz-adv-x="502" 
d="M56.5 381q31.5 61 82.5 88.5t113 27.5q97 0 161 -66t64 -206t-64 -206t-161 -66q-62 0 -113 27.5t-82.5 88.5t-31.5 156t31.5 156zM202.5 122.5q18.5 -32.5 49.5 -32.5q30 0 47.5 32.5t17.5 102.5t-17.5 102.5t-47.5 32.5q-31 0 -49.5 -32.5t-18.5 -102.5t18.5 -102.5z
" />
    <glyph glyph-name="p" unicode="p" horiz-adv-x="532" 
d="M454.5 429.5q52.5 -67.5 52.5 -204.5t-52.5 -204.5t-136.5 -67.5q-75 0 -115 56v-240h-155v714h138q0 -27 5 -60q41 74 127 74q84 0 136.5 -67.5zM328.5 124q19.5 34 19.5 101t-19.5 101t-53.5 34q-32 0 -52 -32.5t-20 -102.5t20 -102.5t52 -32.5q34 0 53.5 34z" />
    <glyph glyph-name="q" unicode="q" horiz-adv-x="532" 
d="M484 483v-714h-155v240q-39 -56 -115 -56q-84 0 -136.5 67.5t-52.5 204.5t52.5 204.5t136.5 67.5q86 0 127 -74q4 37 5 60h138zM309 123q20 32 20 102t-20 103t-52 33q-34 0 -53.5 -34.5t-19.5 -101.5t19.5 -100.5t53.5 -33.5q32 0 52 32z" />
    <glyph glyph-name="r" unicode="r" horiz-adv-x="403" 
d="M367 486q26 -11 39 -29l-62 -123q-19 15 -46 15q-44 0 -69.5 -37.5t-25.5 -120.5v-225h-155v517h137q5 -58 8 -75q18 43 50.5 66t70.5 23q27 0 53 -11z" />
    <glyph glyph-name="s" unicode="s" horiz-adv-x="394" 
d="M332.5 -2.5q-51.5 -44.5 -136.5 -44.5q-72 0 -123.5 34t-69.5 100l115 65q25 -65 74 -65q18 0 26 7t8 19q0 16 -15.5 27t-49.5 27q-40 19 -67.5 37t-47.5 49.5t-20 78.5q0 77 52.5 121t134.5 44q71 0 113.5 -34.5t52.5 -86.5l-113 -63q-7 26 -21.5 38.5t-32.5 12.5
q-14 0 -21.5 -7.5t-7.5 -19.5q0 -18 16 -29.5t51 -27.5q41 -19 67.5 -36.5t46.5 -49t20 -78.5q0 -74 -51.5 -118.5z" />
    <glyph glyph-name="t" unicode="t" horiz-adv-x="397" 
d="M401 5q-52 -52 -144 -52q-76 0 -125.5 42.5t-49.5 157.5v198h-77v133h77v161h155v-161h130v-133h-130v-155q0 -52 11.5 -73t38.5 -21q29 0 56 24z" />
    <glyph glyph-name="u" unicode="u" 
d="M313 484h154v-518h-136l-2 20q-2 37 -5 52q-41 -85 -136 -85q-70 0 -108.5 51.5t-38.5 158.5v321h155v-263q0 -60 12.5 -87.5t43.5 -27.5q30 0 45.5 27.5t15.5 93.5v257z" />
    <glyph glyph-name="v" unicode="v" horiz-adv-x="508" 
d="M176 483l86 -283l81 283h160l-184 -516h-126l-188 516h171z" />
    <glyph glyph-name="w" unicode="w" horiz-adv-x="713" 
d="M418 483l73 -286l68 286h149l-156 -516h-113l-81 270l-76 -270h-116l-161 516h157l71 -296l68 296h117z" />
    <glyph glyph-name="x" unicode="x" horiz-adv-x="479" 
d="M242 365l64 118h168l-155 -253l155 -264h-170l-67 119l-64 -119h-168l156 255l-156 262h170z" />
    <glyph glyph-name="y" unicode="y" horiz-adv-x="509" 
d="M264 187l80 296h160l-178 -545q-23 -71 -48 -110t-57.5 -55.5t-80.5 -16.5q-81 0 -128 41l59 117q24 -19 56 -19q24 0 38 10.5t25 39.5l5 15l-190 523h173z" />
    <glyph glyph-name="z" unicode="z" horiz-adv-x="394" 
d="M363 483v-95l-174 -296h189v-126h-364v96l175 296h-156v125h330z" />
    <glyph glyph-name="braceleft" unicode="{" horiz-adv-x="414" 
d="M297 490q0 -73 -24 -115t-77 -57q53 -15 77 -57t24 -115v-38q0 -56 17 -80.5t60 -24.5h24v-148h-59q-67 0 -111 15t-69.5 60t-25.5 131v60q0 42 -9.5 64.5t-32.5 34t-67 15.5v166q43 4 66 15t33 34t10 65v60q0 77 20.5 121.5t65 64.5t120.5 20h59v-148h-24
q-38 0 -57.5 -21.5t-19.5 -83.5v-38z" />
    <glyph glyph-name="bar" unicode="|" horiz-adv-x="240" 
d="M51 -145v926h138v-926h-138z" />
    <glyph glyph-name="braceright" unicode="}" horiz-adv-x="414" 
d="M117 528q0 62 -19.5 83.5t-57.5 21.5h-24v148h59q76 0 120.5 -20t64.5 -64.5t20 -121.5v-60q0 -42 10 -65t33 -34t66 -15v-166q-43 -4 -66.5 -15.5t-33 -34.5t-9.5 -64v-60q0 -86 -25.5 -131t-69 -60t-110.5 -15h-59v148h24q43 0 60 24.5t17 80.5v38q0 73 24 115t76 57
q-52 15 -76 57t-24 115v38z" />
    <glyph glyph-name="asciitilde" unicode="~" 
d="M11 221q0 97 39.5 162t119.5 65q45 0 71 -19t51 -51q15 -19 24 -27t20 -8q18 0 27 21.5t13 67.5h130q0 -97 -39.5 -162t-119.5 -65q-46 0 -72 19t-51 52q-13 18 -22.5 26.5t-20.5 8.5q-19 0 -27.5 -21.5t-12.5 -68.5h-130z" />
    <glyph glyph-name="uni00A0" unicode="&#xa0;" horiz-adv-x="230" 
 />
    <glyph glyph-name="exclamdown" unicode="&#xa1;" horiz-adv-x="239" 
d="M186.5 514.5q27.5 -28.5 27.5 -68.5t-28 -68.5t-67 -28.5t-66.5 28.5t-27.5 68.5q0 39 27.5 68t66.5 29q40 0 67.5 -28.5zM205 -231h-172l24 512h125z" />
    <glyph glyph-name="cent" unicode="&#xa2;" 
d="M346 221q36 14 54 49l101 -81q-39 -91 -145 -110v-113h-134v117q-83 20 -132 83t-49 166t49 166t132 83v117h134v-113q106 -18 145 -110l-101 -81q-19 36 -54 48v-221zM232 229v206q-49 -26 -49 -103t49 -103z" />
    <glyph glyph-name="sterling" unicode="&#xa3;" 
d="M514 112v-146h-465v123q54 39 78.5 71.5t24.5 76.5v7h-103v145h58q-14 46 -14 96q0 107 57 167t159 60q92 0 143.5 -50.5t60.5 -124.5l-127 -70q-16 94 -73 94q-29 0 -44 -19.5t-15 -63.5q0 -40 14 -89h122v-145h-87v-13q0 -74 -35 -119h246z" />
    <glyph glyph-name="currency" unicode="&#xa4;" 
d="M445 212l68 -79l-97 -97l-65 73q-42 -24 -93 -24q-47 0 -92 24l-65 -73l-98 97l70 79q-25 60 -25 120q0 61 25 119l-70 80l98 97l65 -73q42 24 92 24q51 0 93 -24l65 73l97 -97l-68 -79q26 -54 26 -120t-26 -120zM309 259.5q18 26.5 18 72.5t-18 72.5t-50 26.5
q-31 0 -49.5 -26.5t-18.5 -72.5t18.5 -72.5t49.5 -26.5q32 0 50 26.5z" />
    <glyph glyph-name="yen" unicode="&#xa5;" 
d="M266 500l81 198h163l-141 -302h96v-122h-119v-42h119v-122h-119v-144h-166v144h-122v122h122v42h-122v122h94l-145 302h176z" />
    <glyph glyph-name="brokenbar" unicode="&#xa6;" horiz-adv-x="240" 
d="M51 414v367h138v-367h-138zM51 -145v367h138v-367h-138z" />
    <glyph glyph-name="section" unicode="&#xa7;" horiz-adv-x="561" 
d="M268.5 455.5q28.5 -17.5 89.5 -36.5q59 -19 96.5 -37.5t64 -54t26.5 -93.5q0 -55 -25 -94.5t-68 -62.5q37 -45 37 -113q0 -67 -35 -114t-91 -70.5t-118 -23.5q-82 0 -148.5 44.5t-85.5 118.5l133 70q12 -42 42 -65t69 -23q30 0 47 14t17 40q0 35 -29 54t-90 40
q-59 21 -95.5 40t-63 56.5t-26.5 96.5q0 51 25 88.5t67 60.5q-35 45 -35 111q0 69 35.5 116.5t91.5 70.5t119 23q84 0 148.5 -44t83.5 -119l-133 -69q-13 43 -40.5 64.5t-63.5 21.5q-32 0 -52.5 -16t-20.5 -43q0 -34 28.5 -51.5zM199 214q15 -16 37 -26t63 -25q17 -5 22 -7
q24 3 40 17.5t16 40.5q0 24 -15.5 40.5t-38.5 27t-64 24.5l-21 7q-23 -4 -38.5 -19t-15.5 -40q0 -24 15 -40z" />
    <glyph glyph-name="dieresis" unicode="&#xa8;" horiz-adv-x="523" 
d="M98 569.5q-24 25.5 -24 60.5t24 60t58 25q36 0 60 -25t24 -60t-24.5 -60.5t-59.5 -25.5q-34 0 -58 25.5zM306 569.5q-24 25.5 -24 60.5t24 60t59 25q34 0 59 -25t25 -60t-25 -60.5t-59 -25.5q-35 0 -59 25.5z" />
    <glyph glyph-name="copyright" unicode="&#xa9;" horiz-adv-x="717" 
d="M523 669q74 -43 117.5 -128.5t43.5 -208.5q0 -122 -43.5 -207.5t-117.5 -128.5t-165 -43t-164.5 43t-116.5 128.5t-43 207.5t43 208t116.5 129t164.5 43t165 -43zM465.5 90q47.5 31 75 92.5t27.5 149.5t-27.5 149.5t-75 92.5t-107.5 31q-61 0 -108.5 -31t-74.5 -92.5
t-27 -149.5t27 -149.5t74.5 -92.5t108.5 -31q60 0 107.5 31zM325 332q0 -88 45 -88q16 0 25 9.5t15 28.5l87 -53q-11 -51 -45.5 -75.5t-83.5 -24.5q-67 0 -114.5 48t-47.5 155t47.5 155t114.5 48q49 0 83.5 -24.5t45.5 -75.5l-87 -53q-11 38 -40 38q-45 0 -45 -88z" />
    <glyph glyph-name="ordfeminine" unicode="&#xaa;" horiz-adv-x="366" 
d="M295 656.5q38 -46.5 38 -132.5v-228h-104q-2 26 -5 39q-13 -24 -34 -36.5t-53 -12.5q-50 0 -83.5 30.5t-33.5 91.5q0 64 37 100t91 36q31 0 64 -14q-1 41 -11.5 58.5t-31.5 17.5q-36 0 -48 -47l-87 48q14 47 54.5 71.5t95.5 24.5q73 0 111 -46.5zM212 454q-18 6 -30 6
q-38 0 -38 -45q0 -38 31 -38q37 0 37 64v13z" />
    <glyph glyph-name="guillemotleft" unicode="&#xab;" horiz-adv-x="573" 
d="M322 -1h-160l-152 229l152 229h160l-152 -229zM563 -1h-160l-153 229l153 229h160l-153 -229z" />
    <glyph glyph-name="logicalnot" unicode="&#xac;" 
d="M349 291h-324v143h467v-335h-143v192z" />
    <glyph glyph-name="uni00AD" unicode="&#xad;" horiz-adv-x="383" 
d="M39 260v136h305v-136h-305z" />
    <glyph glyph-name="registered" unicode="&#xae;" horiz-adv-x="499" 
d="M361.5 681.5q51.5 -30.5 82 -82t30.5 -112.5t-30.5 -112.5t-81.5 -82t-112 -30.5t-112.5 30.5t-82 82t-30.5 112.5t30.5 112.5t82 82t112.5 30.5q60 0 111.5 -30.5zM386.5 568q-20.5 36 -56.5 57t-80 21t-80.5 -21t-57 -57.5t-20.5 -80.5t21 -80.5t57 -57.5t80 -21
q60 0 103 38h-60l-55 87h-13v-87h-63v244h102q43 0 66.5 -22t23.5 -58q0 -27 -13.5 -46t-36.5 -27l59 -82q21 21 32.5 51t11.5 63q0 43 -20.5 79zM259 552h-34v-43h34q27 0 27 23q0 20 -27 20z" />
    <glyph glyph-name="macron" unicode="&#xaf;" horiz-adv-x="366" 
d="M52 575v104h263v-104h-263z" />
    <glyph glyph-name="degree" unicode="&#xb0;" horiz-adv-x="371" 
d="M29 749.5q24 41.5 65.5 65t91.5 23.5q52 0 93 -23.5t64 -64.5t23 -92q0 -50 -23 -90.5t-64 -64t-93 -23.5q-50 0 -91.5 23.5t-65.5 64t-24 90.5t24 91.5zM137.5 608q18.5 -20 48.5 -20t49.5 20t19.5 50q0 31 -19.5 51.5t-49.5 20.5t-48.5 -20t-18.5 -52q0 -30 18.5 -50z
" />
    <glyph glyph-name="plusminus" unicode="&#xb1;" 
d="M187 656h143v-161h162v-143h-162v-161h-143v161h-162v143h162v161zM492 141v-142h-467v142h467z" />
    <glyph glyph-name="uni00B2" unicode="&#xb2;" horiz-adv-x="289" 
d="M149 505h121v-81h-246v61l96 136q25 36 34 56.5t9 39.5q0 32 -23 32q-15 0 -26.5 -15t-21.5 -47l-74 42q13 50 47.5 77t83.5 27q51 0 80 -31t29 -82q0 -32 -13 -65t-48 -81z" />
    <glyph glyph-name="uni00B3" unicode="&#xb3;" horiz-adv-x="279" 
d="M245.5 596q15.5 -25 15.5 -61q0 -53 -34.5 -85t-94.5 -32q-46 0 -77 22t-40 68l73 41q9 -49 44 -49q15 0 23.5 11t8.5 30q0 25 -14 36t-45 11h-15v76h12q24 0 37.5 15.5t13.5 38.5q0 15 -6 24t-18 9q-29 0 -41 -52l-71 39q12 48 43.5 71.5t78.5 23.5q53 0 82 -30t29 -77
q0 -29 -12.5 -53.5t-36.5 -39.5q29 -12 44.5 -37z" />
    <glyph glyph-name="acute" unicode="&#xb4;" horiz-adv-x="332" 
d="M56 545l69 170h151l-105 -170h-115z" />
    <glyph glyph-name="uni00B5" unicode="&#xb5;" horiz-adv-x="551" 
d="M541 -25q-15 -10 -39 -16t-50 -6q-42 0 -71.5 22t-41.5 68q-26 -90 -99 -90q-20 0 -39 8v-192h-153v714h153v-258q0 -68 10 -103.5t45 -35.5q32 0 48 37.5t16 108.5v251h152v-343q0 -30 6.5 -43.5t22.5 -13.5q12 0 24 6z" />
    <glyph glyph-name="paragraph" unicode="&#xb6;" horiz-adv-x="586" 
d="M82.5 654q52.5 44 145.5 44h117v-732h-117v383q-93 0 -145.5 44t-52.5 130q0 87 52.5 131zM530 -34h-117v732h117v-732z" />
    <glyph glyph-name="periodcentered" unicode="&#xb7;" horiz-adv-x="278" 
d="M71.5 259q-27.5 29 -27.5 68q0 40 27.5 68.5t66.5 28.5q40 0 68 -28.5t28 -68.5q0 -39 -28.5 -68t-67.5 -29t-66.5 29z" />
    <glyph glyph-name="cedilla" unicode="&#xb8;" horiz-adv-x="304" 
d="M170 -84q36 -4 59 -23t23 -51q0 -44 -36 -65t-83 -21q-42 0 -81 11v66q31 -11 58 -11q36 0 36 19q0 17 -35 17q-21 0 -40 -5l-10 45l41 95h101z" />
    <glyph glyph-name="uni00B9" unicode="&#xb9;" horiz-adv-x="250" 
d="M29 663v100l97 63h72v-402h-94v288z" />
    <glyph glyph-name="ordmasculine" unicode="&#xba;" horiz-adv-x="391" 
d="M72 652q50 51 125 51q74 0 123 -50.5t49 -157.5q0 -108 -49 -158.5t-123 -50.5q-75 0 -125 50.5t-50 158.5q0 106 50 157zM197 397q20 0 32 23t12 75q0 51 -12 74t-32 23q-47 0 -47 -97q0 -98 47 -98z" />
    <glyph glyph-name="guillemotright" unicode="&#xbb;" horiz-adv-x="573" 
d="M322 228l-152 -229h-160l152 229l-152 229h160zM563 228l-153 -229h-160l153 229l-153 229h160z" />
    <glyph glyph-name="onequarter" unicode="&#xbc;" horiz-adv-x="703" 
d="M599 698l-418 -732h-101l418 732h101zM29 533v100l97 63h72v-402h-94v288zM644 207v-85h48v-79h-48v-77h-87v77h-151v65l119 259h94l-114 -245h52v85h87z" />
    <glyph glyph-name="onehalf" unicode="&#xbd;" horiz-adv-x="718" 
d="M599 698l-418 -732h-101l418 732h101zM29 533v100l97 63h72v-402h-94v288zM578 47h121v-81h-246v61l96 135q25 36 34 56.5t9 40.5q0 17 -5.5 24.5t-17.5 7.5q-29 0 -47 -62l-74 42q13 50 47 77t83 27q51 0 80 -31.5t29 -82.5q0 -32 -13 -64.5t-47 -80.5z" />
    <glyph glyph-name="threequarters" unicode="&#xbe;" horiz-adv-x="732" 
d="M245.5 466q15.5 -25 15.5 -61q0 -53 -34.5 -85t-94.5 -32q-46 0 -77 22t-40 68l73 41q9 -49 44 -49q15 0 23.5 11t8.5 30q0 25 -14 36t-45 11h-15v76h12q24 0 37.5 15.5t13.5 38.5q0 15 -6 24t-18 9q-29 0 -41 -52l-71 39q12 48 43.5 71.5t78.5 23.5q53 0 82 -30t29 -77
q0 -29 -12.5 -53.5t-36.5 -39.5q29 -12 44.5 -37zM628 698l-418 -732h-101l418 732h101zM672 207v-85h48v-79h-48v-77h-87v77h-151v65l120 259h94l-114 -245h51v85h87z" />
    <glyph glyph-name="questiondown" unicode="&#xbf;" horiz-adv-x="432" 
d="M299 514.5q27 -28.5 27 -67.5q0 -40 -27 -68.5t-64 -28.5q-39 0 -67 28.5t-28 68.5q0 39 28 67.5t67 28.5q37 0 64 -28.5zM461 -54q-30 -94 -96.5 -142t-151.5 -48q-61 0 -111 23.5t-79 68.5t-29 107q0 43 13.5 75.5t32.5 54.5t52 53q42 39 62.5 69t20.5 75h132
q9 -34 9 -62q0 -48 -20 -80.5t-59 -72.5q-30 -30 -45 -52t-15 -50q0 -25 13 -39t37 -14q67 0 101 110z" />
    <glyph glyph-name="Agrave" unicode="&#xc0;" horiz-adv-x="662" 
d="M162 917h151l68 -156h-114zM404 698l247 -732h-174l-45 151h-214l-43 -151h-163l239 732h153zM391 259l-67 232l-67 -232h134z" />
    <glyph glyph-name="Aacute" unicode="&#xc1;" horiz-adv-x="662" 
d="M276 761l68 156h151l-105 -156h-114zM404 698l247 -732h-174l-45 151h-214l-43 -151h-163l239 732h153zM391 259l-67 232l-67 -232h134z" />
    <glyph glyph-name="Acircumflex" unicode="&#xc2;" horiz-adv-x="662" 
d="M281 917h96l116 -157h-125l-39 59l-40 -59h-125zM404 698l247 -732h-174l-45 151h-214l-43 -151h-163l239 732h153zM391 259l-67 232l-67 -232h134z" />
    <glyph glyph-name="Atilde" unicode="&#xc3;" horiz-adv-x="662" 
d="M163 773q3 70 30 109.5t74 39.5q24 0 41.5 -10t37.5 -28q8 -7 16.5 -13t14.5 -6q21 0 26 51h91q-3 -70 -30 -109.5t-74 -39.5q-23 0 -40 9.5t-38 27.5q-3 2 -13.5 10.5t-18.5 8.5q-11 0 -17 -12.5t-9 -37.5h-91zM404 698l247 -732h-174l-45 151h-214l-43 -151h-163
l239 732h153zM391 259l-67 232l-67 -232h134z" />
    <glyph glyph-name="Adieresis" unicode="&#xc4;" horiz-adv-x="662" 
d="M174 780.5q-24 25.5 -24 60.5t24 60t58 25q36 0 60 -25t24 -60q0 -36 -24 -61t-60 -25q-34 0 -58 25.5zM364 780.5q-24 25.5 -24 60.5t24 60t59 25q34 0 58.5 -25t24.5 -60t-24.5 -60.5t-58.5 -25.5q-35 0 -59 25.5zM404 698l247 -732h-174l-45 151h-214l-43 -151h-163
l239 732h153zM391 259l-67 232l-67 -232h134z" />
    <glyph glyph-name="Aring" unicode="&#xc5;" horiz-adv-x="662" 
d="M238.5 960.5q36.5 35.5 90.5 35.5q53 0 88 -35t35 -90q0 -54 -34.5 -89t-88.5 -35t-90.5 35t-36.5 89t36.5 89.5zM297 838q12 -13 32 -13q18 0 29.5 13t11.5 33q0 21 -11 33.5t-30 12.5q-20 0 -32 -12.5t-12 -33.5q0 -20 12 -33zM404 698l247 -732h-174l-45 151h-214
l-43 -151h-163l239 732h153zM391 259l-67 232l-67 -232h134z" />
    <glyph glyph-name="AE" unicode="&#xc6;" horiz-adv-x="876" 
d="M812 265h-219v-157h253v-142h-410v153h-182l-78 -153h-164l379 732h446v-142h-244v-150h219v-141zM436 258v217l-110 -217h110z" />
    <glyph glyph-name="Ccedilla" unicode="&#xc7;" horiz-adv-x="566" 
d="M416 202l138 -76q-13 -72 -64 -117t-130 -53l-20 -45q35 -3 58.5 -21.5t23.5 -49.5q0 -43 -36 -63.5t-83 -20.5q-43 0 -81 11v63q33 -10 58 -10q15 0 25 4.5t10 13.5q0 17 -36 17q-20 0 -39 -4l-10 43l30 67q-103 21 -164.5 115.5t-61.5 256.5q0 126 37.5 211
t103.5 126.5t150 41.5q92 0 153.5 -46t75.5 -127l-138 -75q-28 97 -97 97q-53 0 -84 -55.5t-31 -172.5t31 -172.5t84 -55.5q69 0 97 97z" />
    <glyph glyph-name="Egrave" unicode="&#xc8;" horiz-adv-x="504" 
d="M102 917h151l68 -156h-115zM439 265h-218v-157h253v-142h-415v732h405v-142h-243v-150h218v-141z" />
    <glyph glyph-name="Eacute" unicode="&#xc9;" horiz-adv-x="504" 
d="M215 761l69 156h151l-105 -156h-115zM439 265h-218v-157h253v-142h-415v732h405v-142h-243v-150h218v-141z" />
    <glyph glyph-name="Ecircumflex" unicode="&#xca;" horiz-adv-x="504" 
d="M221 917h96l116 -157h-125l-40 59l-39 -59h-125zM439 265h-218v-157h253v-142h-415v732h405v-142h-243v-150h218v-141z" />
    <glyph glyph-name="Edieresis" unicode="&#xcb;" horiz-adv-x="504" 
d="M114 780.5q-24 25.5 -24 60.5t24 60t58 25q36 0 60 -25t24 -60q0 -36 -24 -61t-60 -25q-34 0 -58 25.5zM304 780.5q-24 25.5 -24 60.5t24 60t59 25q34 0 58.5 -25t24.5 -60t-24.5 -60.5t-58.5 -25.5q-35 0 -59 25.5zM439 265h-218v-157h253v-142h-415v732h405v-142h-243
v-150h218v-141z" />
    <glyph glyph-name="Igrave" unicode="&#xcc;" horiz-adv-x="281" 
d="M-26 917h151l69 -156h-115zM221 -34h-162v732h162v-732z" />
    <glyph glyph-name="Iacute" unicode="&#xcd;" horiz-adv-x="281" 
d="M88 761l68 156h151l-104 -156h-115zM221 -34h-162v732h162v-732z" />
    <glyph glyph-name="Icircumflex" unicode="&#xce;" horiz-adv-x="281" 
d="M93 917h96l116 -157h-125l-39 59l-40 -59h-125zM221 -34h-162v732h162v-732z" />
    <glyph glyph-name="Idieresis" unicode="&#xcf;" horiz-adv-x="281" 
d="M-14 780.5q-24 25.5 -24 60.5t24 60t58 25q36 0 60 -25t24 -60q0 -36 -24 -61t-60 -25q-34 0 -58 25.5zM176 780.5q-24 25.5 -24 60.5t24 60t59 25q34 0 58.5 -25t24.5 -60t-24.5 -60.5t-58.5 -25.5q-35 0 -59 25.5zM221 -34h-162v732h162v-732z" />
    <glyph glyph-name="Eth" unicode="&#xd0;" horiz-adv-x="649" 
d="M309 698q89 0 158.5 -43t109 -125.5t39.5 -196.5q0 -115 -39.5 -198t-109 -126t-158.5 -43h-235v306h-64v146h64v280h235zM293 106q77 0 114.5 56.5t37.5 170.5q0 112 -37.5 168.5t-114.5 56.5h-57v-140h84v-146h-84v-166h57z" />
    <glyph glyph-name="Ntilde" unicode="&#xd1;" horiz-adv-x="638" 
d="M148 773q3 70 30 109.5t74 39.5q24 0 41.5 -10t38.5 -28q21 -19 30 -19q21 0 26 51h91q-3 -70 -30 -109.5t-74 -39.5q-23 0 -40 9.5t-38 27.5q-23 19 -32 19q-11 0 -17 -12.5t-9 -37.5h-91zM191 698l240 -422v422h147v-732h-131l-240 422v-422h-148v732h132z" />
    <glyph glyph-name="Ograve" unicode="&#xd2;" horiz-adv-x="648" 
d="M158 917h151l68 -156h-115zM71 545.5q37 84.5 102 125.5t151 41q85 0 150.5 -41t102.5 -126t37 -212q0 -128 -37 -213.5t-102 -126t-151 -40.5q-132 0 -211 94.5t-79 285.5q0 128 37 212.5zM235.5 159q31.5 -56 89.5 -56t88 55.5t30 174.5q0 118 -30 173.5t-88 55.5
q-121 0 -121 -229q0 -118 31.5 -174z" />
    <glyph glyph-name="Oacute" unicode="&#xd3;" horiz-adv-x="648" 
d="M271 761l68 156h152l-105 -156h-115zM71 545.5q37 84.5 102 125.5t151 41q85 0 150.5 -41t102.5 -126t37 -212q0 -128 -37 -213.5t-102 -126t-151 -40.5q-132 0 -211 94.5t-79 285.5q0 128 37 212.5zM235.5 159q31.5 -56 89.5 -56t88 55.5t30 174.5q0 118 -30 173.5
t-88 55.5q-121 0 -121 -229q0 -118 31.5 -174z" />
    <glyph glyph-name="Ocircumflex" unicode="&#xd4;" horiz-adv-x="648" 
d="M277 917h96l116 -157h-126l-39 59l-39 -59h-125zM71 545.5q37 84.5 102 125.5t151 41q85 0 150.5 -41t102.5 -126t37 -212q0 -128 -37 -213.5t-102 -126t-151 -40.5q-132 0 -211 94.5t-79 285.5q0 128 37 212.5zM235.5 159q31.5 -56 89.5 -56t88 55.5t30 174.5
q0 118 -30 173.5t-88 55.5q-121 0 -121 -229q0 -118 31.5 -174z" />
    <glyph glyph-name="Otilde" unicode="&#xd5;" horiz-adv-x="648" 
d="M159 773q3 70 30 109.5t74 39.5q24 0 41.5 -10t37.5 -28q8 -7 16.5 -13t14.5 -6q21 0 26 51h91q-3 -70 -30 -109.5t-74 -39.5q-24 0 -41 9.5t-38 27.5q-21 19 -31 19q-11 0 -17 -12.5t-9 -37.5h-91zM71 545.5q37 84.5 102 125.5t151 41q85 0 150.5 -41t102.5 -126
t37 -212q0 -128 -37 -213.5t-102 -126t-151 -40.5q-132 0 -211 94.5t-79 285.5q0 128 37 212.5zM235.5 159q31.5 -56 89.5 -56t88 55.5t30 174.5q0 118 -30 173.5t-88 55.5q-121 0 -121 -229q0 -118 31.5 -174z" />
    <glyph glyph-name="Odieresis" unicode="&#xd6;" horiz-adv-x="648" 
d="M169.5 780.5q-23.5 25.5 -23.5 60.5t23.5 60t57.5 25q36 0 60.5 -25t24.5 -60q0 -36 -24.5 -61t-60.5 -25q-34 0 -57.5 25.5zM359.5 780.5q-23.5 25.5 -23.5 60.5t23.5 60t58.5 25t59.5 -25t24.5 -60t-24.5 -60.5t-59.5 -25.5t-58.5 25.5zM71 545.5q37 84.5 102 125.5
t151 41q85 0 150.5 -41t102.5 -126t37 -212q0 -128 -37 -213.5t-102 -126t-151 -40.5q-132 0 -211 94.5t-79 285.5q0 128 37 212.5zM235.5 159q31.5 -56 89.5 -56t88 55.5t30 174.5q0 118 -30 173.5t-88 55.5q-121 0 -121 -229q0 -118 31.5 -174z" />
    <glyph glyph-name="multiply" unicode="&#xd7;" 
d="M258 429l128 128l101 -101l-128 -128l128 -128l-101 -101l-128 128l-128 -128l-101 101l128 128l-128 128l101 101z" />
    <glyph glyph-name="Oslash" unicode="&#xd8;" horiz-adv-x="648" 
d="M482 734h131l-72 -128q73 -101 73 -273q0 -128 -38 -213t-103.5 -126t-148.5 -41q-71 0 -130 30l-30 -52h-130l71 128q-71 98 -71 274q0 127 38 212t103.5 126t148.5 41q72 0 129 -30zM204 236l174 311q-21 14 -53 14q-60 0 -94.5 -54.5t-34.5 -173.5q0 -61 8 -97z
M443 431l-174 -312q23 -16 56 -16q127 0 127 230q0 58 -9 98z" />
    <glyph glyph-name="Ugrave" unicode="&#xd9;" horiz-adv-x="644" 
d="M156 917h151l68 -156h-115zM429 698h162v-440q0 -154 -70.5 -229.5t-198.5 -75.5t-198.5 75.5t-70.5 229.5v440h162v-402q0 -110 27.5 -151.5t80.5 -41.5q50 0 78 41.5t28 151.5v402z" />
    <glyph glyph-name="Uacute" unicode="&#xda;" horiz-adv-x="644" 
d="M269 761l69 156h151l-105 -156h-115zM429 698h162v-440q0 -154 -70.5 -229.5t-198.5 -75.5t-198.5 75.5t-70.5 229.5v440h162v-402q0 -110 27.5 -151.5t80.5 -41.5q50 0 78 41.5t28 151.5v402z" />
    <glyph glyph-name="Ucircumflex" unicode="&#xdb;" horiz-adv-x="644" 
d="M275 917h96l116 -157h-125l-40 60l-39 -60h-125zM429 698h162v-440q0 -154 -70.5 -229.5t-198.5 -75.5t-198.5 75.5t-70.5 229.5v440h162v-402q0 -110 27.5 -151.5t80.5 -41.5q50 0 78 41.5t28 151.5v402z" />
    <glyph glyph-name="Udieresis" unicode="&#xdc;" horiz-adv-x="644" 
d="M168 780.5q-24 25.5 -24 60.5t24 60t58 25q36 0 60 -25t24 -60q0 -36 -24 -61t-60 -25q-34 0 -58 25.5zM358 780.5q-24 25.5 -24 60.5t24 60t59 25q34 0 58.5 -25t24.5 -60t-24.5 -60.5t-58.5 -25.5q-35 0 -59 25.5zM429 698h162v-440q0 -154 -70.5 -229.5t-198.5 -75.5
t-198.5 75.5t-70.5 229.5v440h162v-402q0 -110 27.5 -151.5t80.5 -41.5q50 0 78 41.5t28 151.5v402z" />
    <glyph glyph-name="Yacute" unicode="&#xdd;" horiz-adv-x="593" 
d="M250 761l68 156h152l-105 -156h-115zM304 414l114 284h171l-208 -454v-278h-161v278l-216 454h185z" />
    <glyph glyph-name="Thorn" unicode="&#xde;" horiz-adv-x="559" 
d="M282 576q79 0 137 -30t88.5 -85t30.5 -129q0 -112 -68.5 -177.5t-187.5 -65.5h-61v-123h-162v732h162v-122h61zM268 228q43 0 71.5 25t28.5 79t-28 79t-72 25h-47v-208h47z" />
    <glyph glyph-name="germandbls" unicode="&#xdf;" horiz-adv-x="559" 
d="M506 293q32 -45 32 -121q0 -105 -60 -162t-156 -57q-54 0 -88 17v139q12 -8 30.5 -13.5t35.5 -5.5q33 0 55.5 21t22.5 66q0 49 -27.5 74.5t-72.5 25.5h-32v136h14q38 0 59.5 26t21.5 77q0 87 -63 87q-37 0 -56 -35t-19 -114v-488h-155v499q0 142 64 208.5t171 66.5
q100 0 158.5 -56.5t58.5 -152.5q0 -119 -80 -174q54 -19 86 -64z" />
    <glyph glyph-name="agrave" unicode="&#xe0;" horiz-adv-x="477" 
d="M236 715l68 -170h-115l-105 170h152zM386 443.5q49 -53.5 49 -156.5v-321h-128q-1 18 -7 59q-37 -72 -118 -72q-65 0 -109.5 39.5t-44.5 120.5q0 58 25.5 98.5t68 60.5t92.5 20q37 0 70 -10q-3 46 -17 64t-38 18q-26 0 -41.5 -15.5t-26.5 -42.5l-111 69q25 58 74.5 90
t120.5 32q92 0 141 -53.5zM284 170q-20 6 -38 6q-28 0 -46 -14.5t-18 -39.5q0 -22 11.5 -32.5t31.5 -10.5q26 0 42.5 20.5t16.5 61.5v9z" />
    <glyph glyph-name="aacute" unicode="&#xe1;" horiz-adv-x="477" 
d="M241 715h152l-105 -170h-115zM386 443.5q49 -53.5 49 -156.5v-321h-128q-1 18 -7 59q-37 -72 -118 -72q-65 0 -109.5 39.5t-44.5 120.5q0 58 25.5 98.5t68 60.5t92.5 20q37 0 70 -10q-3 46 -17 64t-38 18q-26 0 -41.5 -15.5t-26.5 -42.5l-111 69q25 58 74.5 90t120.5 32
q92 0 141 -53.5zM284 170q-20 6 -38 6q-28 0 -46 -14.5t-18 -39.5q0 -22 11.5 -32.5t31.5 -10.5q26 0 42.5 20.5t16.5 61.5v9z" />
    <glyph glyph-name="acircumflex" unicode="&#xe2;" horiz-adv-x="477" 
d="M269 545l-39 65l-39 -65h-125l116 170h96l116 -170h-125zM386 443.5q49 -53.5 49 -156.5v-321h-128q-1 18 -7 59q-37 -72 -118 -72q-65 0 -109.5 39.5t-44.5 120.5q0 58 25.5 98.5t68 60.5t92.5 20q37 0 70 -10q-3 46 -17 64t-38 18q-26 0 -41.5 -15.5t-26.5 -42.5
l-111 69q25 58 74.5 90t120.5 32q92 0 141 -53.5zM284 170q-20 6 -38 6q-28 0 -46 -14.5t-18 -39.5q0 -22 11.5 -32.5t31.5 -10.5q26 0 42.5 20.5t16.5 61.5v9z" />
    <glyph glyph-name="atilde" unicode="&#xe3;" horiz-adv-x="477" 
d="M164 558h-91q3 70 30 110t74 40q23 0 40.5 -10t37.5 -28q8 -7 16.5 -13t14.5 -6q23 0 26 50h91q-3 -70 -30 -109.5t-74 -39.5q-23 0 -39 9.5t-38 27.5q-23 19 -32 19q-21 0 -26 -50zM386 443.5q49 -53.5 49 -156.5v-321h-128q-1 18 -7 59q-37 -72 -118 -72
q-65 0 -109.5 39.5t-44.5 120.5q0 58 25.5 98.5t68 60.5t92.5 20q37 0 70 -10q-3 46 -17 64t-38 18q-26 0 -41.5 -15.5t-26.5 -42.5l-111 69q25 58 74.5 90t120.5 32q92 0 141 -53.5zM284 170q-20 6 -38 6q-28 0 -46 -14.5t-18 -39.5q0 -22 11.5 -32.5t31.5 -10.5
q26 0 42.5 20.5t16.5 61.5v9z" />
    <glyph glyph-name="adieresis" unicode="&#xe4;" horiz-adv-x="477" 
d="M75 569.5q-24 25.5 -24 60.5t24 60t58 25q36 0 60 -25t24 -60t-24.5 -60.5t-59.5 -25.5q-34 0 -58 25.5zM283 569.5q-24 25.5 -24 60.5t24 60t59 25q34 0 59 -25t25 -60t-25 -60.5t-59 -25.5q-35 0 -59 25.5zM386 443.5q49 -53.5 49 -156.5v-321h-128q-1 18 -7 59
q-37 -72 -118 -72q-65 0 -109.5 39.5t-44.5 120.5q0 58 25.5 98.5t68 60.5t92.5 20q37 0 70 -10q-3 46 -17 64t-38 18q-26 0 -41.5 -15.5t-26.5 -42.5l-111 69q25 58 74.5 90t120.5 32q92 0 141 -53.5zM284 170q-20 6 -38 6q-28 0 -46 -14.5t-18 -39.5q0 -22 11.5 -32.5
t31.5 -10.5q26 0 42.5 20.5t16.5 61.5v9z" />
    <glyph glyph-name="aring" unicode="&#xe5;" horiz-adv-x="477" 
d="M147.5 567q-36.5 35 -36.5 90q0 54 36.5 89t90.5 35t89 -35t35 -89q0 -55 -35 -90t-89 -35t-90.5 35zM206 690q-12 -13 -12 -33t12 -33t32 -13q19 0 30.5 12.5t11.5 33.5t-11.5 33.5t-30.5 12.5q-20 0 -32 -13zM386 443.5q49 -53.5 49 -156.5v-321h-128q-1 18 -7 59
q-37 -72 -118 -72q-65 0 -109.5 39.5t-44.5 120.5q0 58 25.5 98.5t68 60.5t92.5 20q37 0 70 -10q-3 46 -17 64t-38 18q-26 0 -41.5 -15.5t-26.5 -42.5l-111 69q25 58 74.5 90t120.5 32q92 0 141 -53.5zM284 170q-20 6 -38 6q-28 0 -46 -14.5t-18 -39.5q0 -22 11.5 -32.5
t31.5 -10.5q26 0 42.5 20.5t16.5 61.5v9z" />
    <glyph glyph-name="ae" unicode="&#xe6;" horiz-adv-x="723" 
d="M651 434.5q53 -62.5 53 -178.5q0 -35 -6 -76h-258q9 -94 73 -94q46 0 64 52l112 -64q-20 -61 -69 -91t-109 -30q-49 0 -90.5 21.5t-68.5 66.5q-22 -43 -58 -65.5t-91 -22.5q-72 0 -123.5 40t-51.5 122q0 57 25.5 97t67.5 60t91 20q35 0 73 -11q-1 83 -56 83
q-46 0 -67 -59l-111 69q53 123 181 123q90 0 136 -68q29 35 67 51.5t79 16.5q84 0 137 -62.5zM553 291q-3 78 -52 78q-24 0 -40 -19.5t-21 -58.5h113zM285 170q-21 6 -39 6q-29 0 -46.5 -14.5t-17.5 -41.5q0 -23 12.5 -34.5t32.5 -11.5q26 0 42 20t16 61v15z" />
    <glyph glyph-name="ccedilla" unicode="&#xe7;" horiz-adv-x="422" 
d="M310 152l117 -65q-14 -62 -50.5 -92.5t-86.5 -37.5l-19 -45q35 -4 58 -22.5t23 -49.5q0 -43 -35.5 -63.5t-83.5 -20.5q-42 0 -81 11v64q31 -11 59 -11q35 0 35 19q0 17 -34 17q-16 0 -41 -5l-10 43l31 68q-73 19 -120 84t-47 179q0 95 33 156t85 88.5t112 27.5
q61 0 108 -31t64 -103l-117 -65q-16 62 -60 62q-33 0 -49.5 -34.5t-16.5 -100.5q0 -65 16.5 -100t49.5 -35q44 0 60 62z" />
    <glyph glyph-name="egrave" unicode="&#xe8;" horiz-adv-x="464" 
d="M90 715h152l68 -170h-115zM391 434q54 -63 54 -179q0 -36 -6 -78h-259q6 -48 23 -69.5t46 -21.5q43 0 69 56l112 -68q-20 -62 -69.5 -91.5t-114.5 -29.5q-96 0 -158.5 65.5t-62.5 205.5q0 96 31.5 157t81.5 88.5t109 27.5q90 0 144 -63zM204.5 348.5
q-16.5 -20.5 -22.5 -59.5h114q-1 80 -50 80q-25 0 -41.5 -20.5z" />
    <glyph glyph-name="eacute" unicode="&#xe9;" horiz-adv-x="464" 
d="M179 545l68 170h152l-105 -170h-115zM391 434q54 -63 54 -179q0 -36 -6 -78h-259q6 -48 23 -69.5t46 -21.5q43 0 69 56l112 -68q-20 -62 -69.5 -91.5t-114.5 -29.5q-96 0 -158.5 65.5t-62.5 205.5q0 96 31.5 157t81.5 88.5t109 27.5q90 0 144 -63zM204.5 348.5
q-16.5 -20.5 -22.5 -59.5h114q-1 80 -50 80q-25 0 -41.5 -20.5z" />
    <glyph glyph-name="ecircumflex" unicode="&#xea;" horiz-adv-x="464" 
d="M189 715h95l116 -170h-125l-39 65l-39 -65h-125zM391 434q54 -63 54 -179q0 -36 -6 -78h-259q6 -48 23 -69.5t46 -21.5q43 0 69 56l112 -68q-20 -62 -69.5 -91.5t-114.5 -29.5q-96 0 -158.5 65.5t-62.5 205.5q0 96 31.5 157t81.5 88.5t109 27.5q90 0 144 -63z
M204.5 348.5q-16.5 -20.5 -22.5 -59.5h114q-1 80 -50 80q-25 0 -41.5 -20.5z" />
    <glyph glyph-name="edieresis" unicode="&#xeb;" horiz-adv-x="464" 
d="M81 569.5q-24 25.5 -24 60.5t24 60t58 25q36 0 60.5 -25t24.5 -60q0 -36 -24.5 -61t-60.5 -25q-34 0 -58 25.5zM289.5 569.5q-23.5 25.5 -23.5 60.5t23.5 60t58.5 25q34 0 59 -25t25 -60t-25 -60.5t-59 -25.5q-35 0 -58.5 25.5zM391 434q54 -63 54 -179q0 -36 -6 -78
h-259q6 -48 23 -69.5t46 -21.5q43 0 69 56l112 -68q-20 -62 -69.5 -91.5t-114.5 -29.5q-96 0 -158.5 65.5t-62.5 205.5q0 96 31.5 157t81.5 88.5t109 27.5q90 0 144 -63zM204.5 348.5q-16.5 -20.5 -22.5 -59.5h114q-1 80 -50 80q-25 0 -41.5 -20.5z" />
    <glyph glyph-name="igrave" unicode="&#xec;" horiz-adv-x="250" 
d="M-28 715h151l68 -170h-115zM202 -34h-154v517h154v-517z" />
    <glyph glyph-name="iacute" unicode="&#xed;" horiz-adv-x="250" 
d="M61 545l68 170h151l-104 -170h-115zM202 -34h-154v517h154v-517z" />
    <glyph glyph-name="icircumflex" unicode="&#xee;" horiz-adv-x="250" 
d="M70 715h96l116 -170h-125l-39 65l-40 -65h-125zM202 -34h-154v517h154v-517z" />
    <glyph glyph-name="idieresis" unicode="&#xef;" horiz-adv-x="250" 
d="M-37 569.5q-24 25.5 -24 60.5t24 60t58 25q36 0 60 -25t24 -60t-24.5 -60.5t-59.5 -25.5q-34 0 -58 25.5zM171 569.5q-24 25.5 -24 60.5t24 60t59 25q34 0 58.5 -25t24.5 -60t-24.5 -60.5t-58.5 -25.5q-35 0 -59 25.5zM202 -34h-154v517h154v-517z" />
    <glyph glyph-name="eth" unicode="&#xf0;" horiz-adv-x="502" 
d="M350 600q127 -136 127 -358q0 -155 -63.5 -222t-161.5 -67t-162.5 61.5t-64.5 193.5q0 89 31 148.5t81.5 88t108.5 28.5q22 0 39 -6q-23 36 -50 63l-117 -73l-52 89l79 50q-44 24 -65 33l64 112q72 -32 122 -68l111 69l55 -90zM317 212q0 125 -65 125q-32 0 -50 -31
t-18 -94t18 -94t50 -31q65 0 65 125z" />
    <glyph glyph-name="ntilde" unicode="&#xf1;" 
d="M101 558q3 70 30 110t74 40q23 0 40.5 -10t37.5 -28q8 -7 16.5 -13t14.5 -6q22 0 25 50h91q-3 -70 -30 -109.5t-74 -39.5q-23 0 -40.5 10t-35.5 26q-9 8 -17.5 14t-15.5 6q-20 0 -25 -50h-91zM435.5 446q38.5 -51 38.5 -159v-321h-154v263q0 60 -12.5 88t-43.5 28
q-30 0 -45.5 -27.5t-15.5 -93.5v-258h-155v518h137l2 -20q2 -37 5 -52q41 85 135 85q70 0 108.5 -51z" />
    <glyph glyph-name="ograve" unicode="&#xf2;" horiz-adv-x="502" 
d="M98 715h152l68 -170h-115zM56.5 381q31.5 61 82.5 88.5t113 27.5q97 0 161 -66t64 -206t-64 -206t-161 -66q-62 0 -113 27.5t-82.5 88.5t-31.5 156t31.5 156zM202.5 122.5q18.5 -32.5 49.5 -32.5q30 0 47.5 32.5t17.5 102.5t-17.5 102.5t-47.5 32.5q-31 0 -49.5 -32.5
t-18.5 -102.5t18.5 -102.5z" />
    <glyph glyph-name="oacute" unicode="&#xf3;" horiz-adv-x="502" 
d="M187 545l68 170h151l-104 -170h-115zM56.5 381q31.5 61 82.5 88.5t113 27.5q97 0 161 -66t64 -206t-64 -206t-161 -66q-62 0 -113 27.5t-82.5 88.5t-31.5 156t31.5 156zM202.5 122.5q18.5 -32.5 49.5 -32.5q30 0 47.5 32.5t17.5 102.5t-17.5 102.5t-47.5 32.5
q-31 0 -49.5 -32.5t-18.5 -102.5t18.5 -102.5z" />
    <glyph glyph-name="ocircumflex" unicode="&#xf4;" horiz-adv-x="502" 
d="M196 715h96l116 -170h-125l-39 65l-39 -65h-125zM56.5 381q31.5 61 82.5 88.5t113 27.5q97 0 161 -66t64 -206t-64 -206t-161 -66q-62 0 -113 27.5t-82.5 88.5t-31.5 156t31.5 156zM202.5 122.5q18.5 -32.5 49.5 -32.5q30 0 47.5 32.5t17.5 102.5t-17.5 102.5t-47.5 32.5
q-31 0 -49.5 -32.5t-18.5 -102.5t18.5 -102.5z" />
    <glyph glyph-name="otilde" unicode="&#xf5;" horiz-adv-x="502" 
d="M87 558q3 70 30 109.5t74 39.5q23 0 40.5 -10t37.5 -28q8 -7 16.5 -13t14.5 -6q22 0 25 51h92q-3 -70 -30 -109.5t-74 -39.5q-22 0 -39.5 9.5t-37.5 26.5q-9 8 -17.5 14t-15.5 6q-20 0 -25 -50h-91zM56.5 381q31.5 61 82.5 88.5t113 27.5q97 0 161 -66t64 -206t-64 -206
t-161 -66q-62 0 -113 27.5t-82.5 88.5t-31.5 156t31.5 156zM202.5 122.5q18.5 -32.5 49.5 -32.5q30 0 47.5 32.5t17.5 102.5t-17.5 102.5t-47.5 32.5q-31 0 -49.5 -32.5t-18.5 -102.5t18.5 -102.5z" />
    <glyph glyph-name="odieresis" unicode="&#xf6;" horiz-adv-x="502" 
d="M89 569.5q-24 25.5 -24 60.5t24 60t58 25q36 0 60 -25t24 -60q0 -36 -24 -61t-60 -25q-34 0 -58 25.5zM297 569.5q-24 25.5 -24 60.5t24 60t59 25q34 0 59 -25t25 -60t-25 -60.5t-59 -25.5q-35 0 -59 25.5zM56.5 381q31.5 61 82.5 88.5t113 27.5q97 0 161 -66t64 -206
t-64 -206t-161 -66q-62 0 -113 27.5t-82.5 88.5t-31.5 156t31.5 156zM202.5 122.5q18.5 -32.5 49.5 -32.5q30 0 47.5 32.5t17.5 102.5t-17.5 102.5t-47.5 32.5q-31 0 -49.5 -32.5t-18.5 -102.5t18.5 -102.5z" />
    <glyph glyph-name="divide" unicode="&#xf7;" 
d="M190.5 470q-27.5 29 -27.5 68q0 40 27.5 68.5t66.5 28.5q40 0 68 -28.5t28 -68.5q0 -39 -28 -68t-68 -29q-39 0 -66.5 29zM492 256h-467v144h467v-144zM190.5 50q-27.5 29 -27.5 68q0 40 27.5 68.5t66.5 28.5q40 0 68 -28.5t28 -68.5q0 -39 -28 -68t-68 -29
q-39 0 -66.5 29z" />
    <glyph glyph-name="oslash" unicode="&#xf8;" horiz-adv-x="502" 
d="M366 519h111l-56 -97q56 -71 56 -197q0 -140 -64 -206t-161 -66q-49 0 -93 18l-23 -40h-111l57 98q-57 70 -57 196q0 95 31.5 156t82.5 88.5t113 27.5q51 0 91 -17zM168 177l107 186q-12 5 -23 5q-37 0 -62.5 -35t-25.5 -108q0 -29 4 -48zM333 272l-107 -184q10 -5 26 -5
q36 0 60.5 35t24.5 107q0 28 -4 47z" />
    <glyph glyph-name="ugrave" unicode="&#xf9;" 
d="M101 716h151l69 -170h-115zM313 484h154v-518h-136l-2 20q-2 37 -5 52q-41 -85 -136 -85q-70 0 -108.5 51.5t-38.5 158.5v321h155v-263q0 -60 12.5 -87.5t43.5 -27.5q30 0 45.5 27.5t15.5 93.5v257z" />
    <glyph glyph-name="uacute" unicode="&#xfa;" 
d="M190 546l68 170h151l-104 -170h-115zM313 484h154v-518h-136l-2 20q-2 37 -5 52q-41 -85 -136 -85q-70 0 -108.5 51.5t-38.5 158.5v321h155v-263q0 -60 12.5 -87.5t43.5 -27.5q30 0 45.5 27.5t15.5 93.5v257z" />
    <glyph glyph-name="ucircumflex" unicode="&#xfb;" 
d="M199 716h96l116 -170h-125l-39 65l-39 -65h-126zM313 484h154v-518h-136l-2 20q-2 37 -5 52q-41 -85 -136 -85q-70 0 -108.5 51.5t-38.5 158.5v321h155v-263q0 -60 12.5 -87.5t43.5 -27.5q30 0 45.5 27.5t15.5 93.5v257z" />
    <glyph glyph-name="udieresis" unicode="&#xfc;" 
d="M92 570.5q-24 25.5 -24 60.5t24 60t58 25q36 0 60 -25t24 -60q0 -36 -24 -61t-60 -25q-34 0 -58 25.5zM300 570.5q-24 25.5 -24 60.5t24 60t59 25q34 0 59 -25t25 -60t-25 -60.5t-59 -25.5q-35 0 -59 25.5zM313 484h154v-518h-136l-2 20q-2 37 -5 52q-41 -85 -136 -85
q-70 0 -108.5 51.5t-38.5 158.5v321h155v-263q0 -60 12.5 -87.5t43.5 -27.5q30 0 45.5 27.5t15.5 93.5v257z" />
    <glyph glyph-name="yacute" unicode="&#xfd;" horiz-adv-x="509" 
d="M199 546l68 170h151l-104 -170h-115zM264 187l80 296h160l-178 -545q-23 -71 -48 -110t-57.5 -55.5t-80.5 -16.5q-81 0 -128 41l59 117q24 -19 56 -19q24 0 38 10.5t25 39.5l5 15l-190 523h173z" />
    <glyph glyph-name="thorn" unicode="&#xfe;" horiz-adv-x="529" 
d="M451.5 429.5q52.5 -67.5 52.5 -204.5t-52.5 -204.5t-136.5 -67.5q-75 0 -115 56v-240h-152v958h152v-286q39 56 115 56q84 0 136.5 -67.5zM325.5 124q19.5 34 19.5 101t-19.5 101t-53.5 34q-32 0 -52 -32.5t-20 -102.5t20 -102.5t52 -32.5q34 0 53.5 34z" />
    <glyph glyph-name="ydieresis" unicode="&#xff;" horiz-adv-x="509" 
d="M100.5 570.5q-23.5 25.5 -23.5 60.5t23.5 60t57.5 25q36 0 60.5 -25t24.5 -60q0 -36 -24.5 -61t-60.5 -25q-34 0 -57.5 25.5zM309 570.5q-24 25.5 -24 60.5t24 60t59 25q34 0 58.5 -25t24.5 -60t-24.5 -60.5t-58.5 -25.5q-35 0 -59 25.5zM264 187l80 296h160l-178 -545
q-23 -71 -48 -110t-57.5 -55.5t-80.5 -16.5q-81 0 -128 41l59 117q24 -19 56 -19q24 0 38 10.5t25 39.5l5 15l-190 523h173z" />
    <glyph glyph-name="Amacron" unicode="&#x100;" horiz-adv-x="662" 
d="M197 788v105h263v-105h-263zM404 698l247 -732h-174l-45 151h-214l-43 -151h-163l239 732h153zM391 259l-67 232l-67 -232h134z" />
    <glyph glyph-name="amacron" unicode="&#x101;" horiz-adv-x="477" 
d="M106 679h264v-104h-264v104zM386 443.5q49 -53.5 49 -156.5v-321h-128q-1 18 -7 59q-37 -72 -118 -72q-65 0 -109.5 39.5t-44.5 120.5q0 58 25.5 98.5t68 60.5t92.5 20q37 0 70 -10q-3 46 -17 64t-38 18q-26 0 -41.5 -15.5t-26.5 -42.5l-111 69q25 58 74.5 90t120.5 32
q92 0 141 -53.5zM284 170q-20 6 -38 6q-28 0 -46 -14.5t-18 -39.5q0 -22 11.5 -32.5t31.5 -10.5q26 0 42.5 20.5t16.5 61.5v9z" />
    <glyph glyph-name="Abreve" unicode="&#x102;" horiz-adv-x="662" 
d="M211.5 802.5q-42.5 43.5 -42.5 114.5h122q1 -28 10.5 -45t27.5 -17t27.5 17.5t10.5 44.5h122q0 -71 -42.5 -114.5t-117.5 -43.5t-117.5 43.5zM404 698l247 -732h-174l-45 151h-214l-43 -151h-163l239 732h153zM391 259l-67 232l-67 -232h134z" />
    <glyph glyph-name="abreve" unicode="&#x103;" horiz-adv-x="477" 
d="M120.5 590.5q-42.5 45.5 -42.5 124.5h122q2 -74 38 -74q37 0 39 74h122q0 -79 -43 -124.5t-118 -45.5t-117.5 45.5zM386 443.5q49 -53.5 49 -156.5v-321h-128q-1 18 -7 59q-37 -72 -118 -72q-65 0 -109.5 39.5t-44.5 120.5q0 58 25.5 98.5t68 60.5t92.5 20q37 0 70 -10
q-3 46 -17 64t-38 18q-26 0 -41.5 -15.5t-26.5 -42.5l-111 69q25 58 74.5 90t120.5 32q92 0 141 -53.5zM284 170q-20 6 -38 6q-28 0 -46 -14.5t-18 -39.5q0 -22 11.5 -32.5t31.5 -10.5q26 0 42.5 20.5t16.5 61.5v9z" />
    <glyph glyph-name="Aogonek" unicode="&#x104;" horiz-adv-x="662" 
d="M706 -192q-49 -52 -123 -52q-49 0 -85.5 23t-36.5 74q0 56 57 113h-41l-45 151h-214l-43 -151h-163l239 732h153l247 -732q-80 -54 -80 -100q0 -16 9.5 -24.5t26.5 -8.5q11 0 22 5.5t26 19.5zM324 491l-67 -232h134z" />
    <glyph glyph-name="aogonek" unicode="&#x105;" horiz-adv-x="477" 
d="M491 -192q-49 -52 -123 -52q-50 0 -86 23.5t-36 74.5q0 60 61 115q-1 16 -7 56q-37 -72 -118 -72q-65 0 -109.5 39.5t-44.5 120.5q0 58 25.5 98.5t68 60.5t92.5 20q36 0 69 -10q-2 46 -15.5 64t-38.5 18q-26 0 -41.5 -15.5t-26.5 -42.5l-111 69q25 58 74.5 90t120.5 32
q92 0 141 -53.5t49 -156.5v-321q-38 -25 -58.5 -50.5t-20.5 -48.5q0 -16 9.5 -24.5t25.5 -8.5q12 0 23 5.5t25 18.5zM284 170q-20 6 -38 6q-28 0 -46 -14.5t-18 -39.5q0 -22 11.5 -32.5t31.5 -10.5q26 0 42.5 20.5t16.5 61.5v9z" />
    <glyph glyph-name="Cacute" unicode="&#x106;" horiz-adv-x="566" 
d="M256 761l68 156h151l-104 -156h-115zM416 202l138 -76q-14 -80 -75.5 -126t-153.5 -46q-84 0 -150 41.5t-103.5 126.5t-37.5 211t37.5 211t103.5 126.5t150 41.5q92 0 153.5 -46t75.5 -127l-138 -75q-28 97 -97 97q-53 0 -84 -55.5t-31 -172.5t31 -172.5t84 -55.5
q69 0 97 97z" />
    <glyph glyph-name="cacute" unicode="&#x107;" horiz-adv-x="422" 
d="M178 546l69 170h151l-105 -170h-115zM310 152l117 -65q-17 -72 -64 -103t-108 -31q-59 0 -111.5 27.5t-85.5 88.5t-33 156t33 156t85 88.5t112 27.5q61 0 108 -31t64 -103l-117 -65q-16 62 -60 62q-33 0 -49.5 -34.5t-16.5 -100.5q0 -65 16.5 -100t49.5 -35q44 0 60 62z
" />
    <glyph glyph-name="Ccircumflex" unicode="&#x108;" horiz-adv-x="566" 
d="M261 917h96l116 -157h-125l-39 60l-40 -60h-125zM416 202l138 -76q-14 -80 -75.5 -126t-153.5 -46q-84 0 -150 41.5t-103.5 126.5t-37.5 211t37.5 211t103.5 126.5t150 41.5q92 0 153.5 -46t75.5 -127l-138 -75q-28 97 -97 97q-53 0 -84 -55.5t-31 -172.5t31 -172.5
t84 -55.5q69 0 97 97z" />
    <glyph glyph-name="ccircumflex" unicode="&#x109;" horiz-adv-x="422" 
d="M188 716h96l116 -170h-126l-39 65l-39 -65h-125zM310 152l117 -65q-17 -72 -64 -103t-108 -31q-59 0 -111.5 27.5t-85.5 88.5t-33 156t33 156t85 88.5t112 27.5q61 0 108 -31t64 -103l-117 -65q-16 62 -60 62q-33 0 -49.5 -34.5t-16.5 -100.5q0 -65 16.5 -100t49.5 -35
q44 0 60 62z" />
    <glyph glyph-name="Cdotaccent" unicode="&#x10a;" horiz-adv-x="566" 
d="M250 780.5q-24 25.5 -24 60.5t24 60t58 25q36 0 60 -25t24 -60t-24.5 -60.5t-59.5 -25.5q-34 0 -58 25.5zM416 202l138 -76q-14 -80 -75.5 -126t-153.5 -46q-84 0 -150 41.5t-103.5 126.5t-37.5 211t37.5 211t103.5 126.5t150 41.5q92 0 153.5 -46t75.5 -127l-138 -75
q-28 97 -97 97q-53 0 -84 -55.5t-31 -172.5t31 -172.5t84 -55.5q69 0 97 97z" />
    <glyph glyph-name="cdotaccent" unicode="&#x10b;" horiz-adv-x="422" 
d="M176.5 567.5q-27.5 28.5 -27.5 67.5q0 40 27.5 68.5t66.5 28.5t67.5 -28.5t28.5 -68.5q0 -39 -28.5 -67.5t-67.5 -28.5t-66.5 28.5zM310 152l117 -65q-17 -72 -64 -103t-108 -31q-59 0 -111.5 27.5t-85.5 88.5t-33 156t33 156t85 88.5t112 27.5q61 0 108 -31t64 -103
l-117 -65q-16 62 -60 62q-33 0 -49.5 -34.5t-16.5 -100.5q0 -65 16.5 -100t49.5 -35q44 0 60 62z" />
    <glyph glyph-name="Ccaron" unicode="&#x10c;" horiz-adv-x="566" 
d="M268 917l40 -60l39 60h125l-116 -157h-96l-117 157h125zM416 202l138 -76q-14 -80 -75.5 -126t-153.5 -46q-84 0 -150 41.5t-103.5 126.5t-37.5 211t37.5 211t103.5 126.5t150 41.5q92 0 153.5 -46t75.5 -127l-138 -75q-28 97 -97 97q-53 0 -84 -55.5t-31 -172.5
t31 -172.5t84 -55.5q69 0 97 97z" />
    <glyph glyph-name="ccaron" unicode="&#x10d;" horiz-adv-x="422" 
d="M203 716l39 -65l40 65h125l-116 -170h-96l-117 170h125zM310 152l117 -65q-17 -72 -64 -103t-108 -31q-59 0 -111.5 27.5t-85.5 88.5t-33 156t33 156t85 88.5t112 27.5q61 0 108 -31t64 -103l-117 -65q-16 62 -60 62q-33 0 -49.5 -34.5t-16.5 -100.5q0 -65 16.5 -100
t49.5 -35q44 0 60 62z" />
    <glyph glyph-name="Dcaron" unicode="&#x10e;" horiz-adv-x="634" 
d="M246 917l40 -60l39 60h125l-116 -157h-96l-117 157h125zM294 698q88 0 158 -43t109.5 -125.5t39.5 -196.5q0 -115 -39.5 -198t-109 -126t-158.5 -43h-235v732h235zM278 106q77 0 114.5 56.5t37.5 170.5q0 225 -152 225h-57v-452h57z" />
    <glyph glyph-name="dcaron" unicode="&#x10f;" horiz-adv-x="627" 
d="M635.5 705q20.5 -23 20.5 -74q0 -68 -37 -107.5t-98 -47.5v64q25 4 40 14t21 29h-2q-28 0 -47 20.5t-19 53.5t19.5 52t49.5 19q32 0 52.5 -23zM329 727h155v-761h-137l-2 20q0 22 -4 42q-40 -75 -127 -75q-84 0 -136.5 67.5t-52.5 204.5t52.5 204.5t136.5 67.5
q76 0 115 -56v286zM309 123q20 32 20 102t-20 103t-52 33q-34 0 -53.5 -34.5t-19.5 -101.5t19.5 -100.5t53.5 -33.5q32 0 52 32z" />
    <glyph glyph-name="Dcroat" unicode="&#x110;" horiz-adv-x="649" 
d="M309 698q89 0 158.5 -43t109 -125.5t39.5 -196.5q0 -115 -39.5 -198t-109 -126t-158.5 -43h-235v306h-64v146h64v280h235zM293 106q77 0 114.5 56.5t37.5 170.5q0 112 -37.5 168.5t-114.5 56.5h-57v-140h84v-146h-84v-166h57z" />
    <glyph glyph-name="dcroat" unicode="&#x111;" horiz-adv-x="533" 
d="M484 643h61v-111h-61v-566h-137l-2 20q0 22 -4 42q-40 -75 -127 -75q-84 0 -136.5 67.5t-52.5 204.5t52.5 204.5t136.5 67.5q76 0 115 -56v91h-99v111h99v84h155v-84zM309 123q20 32 20 102t-20 103t-52 33q-34 0 -53.5 -34.5t-19.5 -101.5t19.5 -100.5t53.5 -33.5
q32 0 52 32z" />
    <glyph glyph-name="Emacron" unicode="&#x112;" horiz-adv-x="504" 
d="M137 788v105h263v-105h-263zM439 265h-218v-157h253v-142h-415v732h405v-142h-243v-150h218v-141z" />
    <glyph glyph-name="emacron" unicode="&#x113;" horiz-adv-x="464" 
d="M113 575v104h263v-104h-263zM391 434q54 -63 54 -179q0 -36 -6 -78h-259q6 -48 23 -69.5t46 -21.5q43 0 69 56l112 -68q-20 -62 -69.5 -91.5t-114.5 -29.5q-96 0 -158.5 65.5t-62.5 205.5q0 96 31.5 157t81.5 88.5t109 27.5q90 0 144 -63zM204.5 348.5
q-16.5 -20.5 -22.5 -59.5h114q-1 80 -50 80q-25 0 -41.5 -20.5z" />
    <glyph glyph-name="Ebreve" unicode="&#x114;" horiz-adv-x="504" 
d="M151.5 802.5q-42.5 43.5 -42.5 114.5h122q1 -27 10 -44.5t27 -17.5q19 0 28.5 17.5t10.5 44.5h122q0 -71 -43 -114.5t-118 -43.5q-74 0 -116.5 43.5zM439 265h-218v-157h253v-142h-415v732h405v-142h-243v-150h218v-141z" />
    <glyph glyph-name="ebreve" unicode="&#x115;" horiz-adv-x="464" 
d="M126.5 590.5q-42.5 45.5 -42.5 124.5h122q2 -74 38 -74q37 0 39 74h122q0 -79 -43 -124.5t-118 -45.5t-117.5 45.5zM391 434q54 -63 54 -179q0 -36 -6 -78h-259q6 -48 23 -69.5t46 -21.5q43 0 69 56l112 -68q-20 -62 -69.5 -91.5t-114.5 -29.5q-96 0 -158.5 65.5
t-62.5 205.5q0 96 31.5 157t81.5 88.5t109 27.5q90 0 144 -63zM204.5 348.5q-16.5 -20.5 -22.5 -59.5h114q-1 80 -50 80q-25 0 -41.5 -20.5z" />
    <glyph glyph-name="Edotaccent" unicode="&#x116;" horiz-adv-x="504" 
d="M210 780.5q-24 25.5 -24 60.5t24 60t58 25q36 0 60 -25t24 -60t-24.5 -60.5t-59.5 -25.5q-34 0 -58 25.5zM439 265h-218v-157h253v-142h-415v732h405v-142h-243v-150h218v-141z" />
    <glyph glyph-name="edotaccent" unicode="&#x117;" horiz-adv-x="464" 
d="M177.5 566.5q-27.5 28.5 -27.5 67.5q0 40 27.5 68.5t66.5 28.5q38 0 66.5 -28.5t28.5 -68.5q0 -39 -28 -67.5t-67 -28.5t-66.5 28.5zM391 434q54 -63 54 -179q0 -36 -6 -78h-259q6 -48 23 -69.5t46 -21.5q43 0 69 56l112 -68q-20 -62 -69.5 -91.5t-114.5 -29.5
q-96 0 -158.5 65.5t-62.5 205.5q0 96 31.5 157t81.5 88.5t109 27.5q90 0 144 -63zM204.5 348.5q-16.5 -20.5 -22.5 -59.5h114q-1 80 -50 80q-25 0 -41.5 -20.5z" />
    <glyph glyph-name="Eogonek" unicode="&#x118;" horiz-adv-x="504" 
d="M530 -192q-49 -52 -123 -52q-49 0 -85.5 23t-36.5 74q0 60 58 113h-284v732h405v-142h-243v-150h218v-141h-218v-157h253v-142q-79 -55 -79 -100q0 -16 9.5 -24.5t25.5 -8.5q12 0 23 5.5t25 19.5z" />
    <glyph glyph-name="eogonek" unicode="&#x119;" horiz-adv-x="464" 
d="M391 434q54 -63 54 -179q0 -36 -6 -78h-259q6 -48 23 -69.5t46 -21.5q43 0 69 56l112 -68q-16 -51 -57 -83q-50 -36 -71 -64.5t-21 -53.5q0 -19 9.5 -28.5t24.5 -9.5q23 0 49 25l51 -51q-49 -53 -123 -53q-49 0 -85.5 23.5t-36.5 75.5q0 53 46 100q-84 9 -137.5 75
t-53.5 194q0 96 31.5 157t81.5 88.5t109 27.5q90 0 144 -63zM296 289q-1 80 -50 80q-25 0 -41.5 -20.5t-22.5 -59.5h114z" />
    <glyph glyph-name="Ecaron" unicode="&#x11a;" horiz-adv-x="504" 
d="M228 917l40 -60l39 60h125l-116 -157h-96l-117 157h125zM439 265h-218v-157h253v-142h-415v732h405v-142h-243v-150h218v-141z" />
    <glyph glyph-name="ecaron" unicode="&#x11b;" horiz-adv-x="464" 
d="M204 715l39 -65l39 65h125l-115 -170h-96l-117 170h125zM391 434q54 -63 54 -179q0 -36 -6 -78h-259q6 -48 23 -69.5t46 -21.5q43 0 69 56l112 -68q-20 -62 -69.5 -91.5t-114.5 -29.5q-96 0 -158.5 65.5t-62.5 205.5q0 96 31.5 157t81.5 88.5t109 27.5q90 0 144 -63z
M204.5 348.5q-16.5 -20.5 -22.5 -59.5h114q-1 80 -50 80q-25 0 -41.5 -20.5z" />
    <glyph glyph-name="Gcircumflex" unicode="&#x11c;" horiz-adv-x="605" 
d="M278 917h95l116 -157h-125l-39 60l-39 -60h-125zM315 244v142h253v-305q-26 -57 -89.5 -92.5t-147.5 -35.5q-89 0 -155.5 42t-104 128t-37.5 212t40 210.5t108.5 125.5t152.5 41q93 0 154 -46.5t83 -126.5l-136 -74q-29 97 -108 97q-58 0 -93 -55t-35 -172
q0 -122 37 -177.5t102 -55.5q50 0 72 34v108h-96z" />
    <glyph glyph-name="gcircumflex" unicode="&#x11d;" horiz-adv-x="516" 
d="M293 545l-39 65l-39 -65h-126l117 170h96l116 -170h-125zM481 483v-449q0 -146 -69 -212t-172 -66q-79 0 -132 31t-76 93l115 74q25 -59 89 -59q45 0 66 27t25 94q-41 -51 -113 -51q-84 0 -136.5 66t-52.5 200t52.5 200t136.5 66q86 0 127 -72q4 33 5 58h135zM309 130.5
q20 31.5 20 100.5q0 68 -20 100.5t-52 32.5q-34 0 -53.5 -33.5t-19.5 -99.5t19.5 -99t53.5 -33q32 0 52 31.5z" />
    <glyph glyph-name="Gbreve" unicode="&#x11e;" horiz-adv-x="605" 
d="M207.5 802.5q-42.5 43.5 -42.5 114.5h122q1 -27 10.5 -44.5t27.5 -17.5q19 0 28.5 17.5t10.5 44.5h122q0 -71 -43 -114.5t-118 -43.5t-117.5 43.5zM315 244v142h253v-305q-26 -57 -89.5 -92.5t-147.5 -35.5q-89 0 -155.5 42t-104 128t-37.5 212t40 210.5t108.5 125.5
t152.5 41q93 0 154 -46.5t83 -126.5l-136 -74q-29 97 -108 97q-58 0 -93 -55t-35 -172q0 -122 37 -177.5t102 -55.5q50 0 72 34v108h-96z" />
    <glyph glyph-name="gbreve" unicode="&#x11f;" horiz-adv-x="516" 
d="M144.5 590.5q-42.5 45.5 -42.5 124.5h122q2 -74 38 -74t39 74h122q0 -79 -43 -124.5t-118 -45.5t-117.5 45.5zM481 483v-449q0 -146 -69 -212t-172 -66q-79 0 -132 31t-76 93l115 74q25 -59 89 -59q45 0 66 27t25 94q-41 -51 -113 -51q-84 0 -136.5 66t-52.5 200
t52.5 200t136.5 66q86 0 127 -72q4 33 5 58h135zM309 130.5q20 31.5 20 100.5q0 68 -20 100.5t-52 32.5q-34 0 -53.5 -33.5t-19.5 -99.5t19.5 -99t53.5 -33q32 0 52 31.5z" />
    <glyph glyph-name="Gdotaccent" unicode="&#x120;" horiz-adv-x="605" 
d="M266 780.5q-24 25.5 -24 60.5t24 60t58 25q36 0 60.5 -25t24.5 -60t-24.5 -60.5t-60.5 -25.5q-34 0 -58 25.5zM315 244v142h253v-305q-26 -57 -89.5 -92.5t-147.5 -35.5q-89 0 -155.5 42t-104 128t-37.5 212t40 210.5t108.5 125.5t152.5 41q93 0 154 -46.5t83 -126.5
l-136 -74q-29 97 -108 97q-58 0 -93 -55t-35 -172q0 -122 37 -177.5t102 -55.5q50 0 72 34v108h-96z" />
    <glyph glyph-name="gdotaccent" unicode="&#x121;" horiz-adv-x="516" 
d="M195.5 566.5q-27.5 28.5 -27.5 67.5q0 40 27.5 68.5t66.5 28.5q38 0 66.5 -29t28.5 -68t-28 -67.5t-67 -28.5t-66.5 28.5zM481 483v-449q0 -146 -69 -212t-172 -66q-79 0 -132 31t-76 93l115 74q25 -59 89 -59q45 0 66 27t25 94q-41 -51 -113 -51q-84 0 -136.5 66
t-52.5 200t52.5 200t136.5 66q86 0 127 -72q4 33 5 58h135zM309 130.5q20 31.5 20 100.5q0 68 -20 100.5t-52 32.5q-34 0 -53.5 -33.5t-19.5 -99.5t19.5 -99t53.5 -33q32 0 52 31.5z" />
    <glyph glyph-name="uni0122" unicode="&#x122;" horiz-adv-x="605" 
d="M315 244v142h253v-305q-26 -57 -89.5 -92.5t-147.5 -35.5q-89 0 -155.5 42t-104 128t-37.5 212t40 210.5t108.5 125.5t152.5 41q93 0 154 -46.5t83 -126.5l-136 -74q-29 97 -108 97q-58 0 -93 -55t-35 -172q0 -122 37 -177.5t102 -55.5q50 0 72 34v108h-96zM393 -83.5
q27 -19.5 27 -57.5q0 -47 -44.5 -74.5t-128.5 -28.5v51q63 3 79 26h-5q-38 1 -60.5 13t-22.5 36t23.5 39t60.5 15q44 0 71 -19.5z" />
    <glyph glyph-name="uni0123" unicode="&#x123;" horiz-adv-x="516" 
d="M195 569.5q-28 31.5 -28 90.5q0 78 48 129.5t124 61.5v-80q-32 -4 -51.5 -16.5t-27.5 -36.5h1q37 0 62 -26t25 -63q0 -38 -24 -64.5t-60 -26.5q-41 0 -69 31.5zM481 483v-449q0 -146 -69 -212t-172 -66q-79 0 -132 31t-76 93l115 74q25 -59 89 -59q45 0 66 27t25 94
q-41 -51 -113 -51q-84 0 -136.5 66t-52.5 200t52.5 200t136.5 66q86 0 127 -72q4 33 5 58h135zM309 130.5q20 31.5 20 100.5q0 68 -20 100.5t-52 32.5q-34 0 -53.5 -33.5t-19.5 -99.5t19.5 -99t53.5 -33q32 0 52 31.5z" />
    <glyph glyph-name="Hcircumflex" unicode="&#x124;" horiz-adv-x="657" 
d="M281 917h96l116 -157h-125l-40 59l-39 -59h-125zM221 418h214v280h162v-732h-162v306h-214v-306h-162v732h162v-280z" />
    <glyph glyph-name="hcircumflex" unicode="&#x125;" 
d="M76 919h97l118 -144h-126l-41 54l-40 -54h-126zM435.5 446q38.5 -51 38.5 -159v-321h-154v263q0 60 -12.5 88t-43.5 28q-30 0 -45.5 -27.5t-15.5 -93.5v-258h-155v761h155v-295q41 65 124 65q70 0 108.5 -51z" />
    <glyph glyph-name="Hbar" unicode="&#x126;" horiz-adv-x="698" 
d="M618 698v-90h72v-112h-72v-530h-162v306h-215v-306h-161v530h-72v112h72v90h161v-90h215v90h162zM241 496v-78h215v78h-215z" />
    <glyph glyph-name="hbar" unicode="&#x127;" horiz-adv-x="518" 
d="M437.5 445.5q38.5 -51.5 38.5 -158.5v-321h-155v263q0 60 -12.5 88t-42.5 28t-45.5 -27.5t-15.5 -93.5v-258h-155v566h-61v111h61v84h155v-84h100v-111h-100v-100q41 65 124 65q70 0 108.5 -51.5z" />
    <glyph glyph-name="Itilde" unicode="&#x128;" horiz-adv-x="281" 
d="M-25 773q3 70 30 109.5t74 39.5q24 0 41.5 -10t37.5 -28q8 -7 16.5 -13t14.5 -6q21 0 26 51h91q-3 -70 -30 -109.5t-74 -39.5q-23 0 -40 9.5t-38 27.5q-3 2 -13.5 10.5t-18.5 8.5q-11 0 -17 -12.5t-9 -37.5h-91zM221 -34h-162v732h162v-732z" />
    <glyph glyph-name="itilde" unicode="&#x129;" horiz-adv-x="250" 
d="M-39 558q3 70 30 110t74 40q23 0 40.5 -10t37.5 -28q8 -7 16.5 -13t14.5 -6q22 0 25 50h91q-3 -70 -30 -109.5t-74 -39.5q-23 0 -40.5 10t-35.5 26q-9 8 -17.5 14t-15.5 6q-20 0 -25 -50h-91zM202 -34h-154v517h154v-517z" />
    <glyph glyph-name="Imacron" unicode="&#x12a;" horiz-adv-x="281" 
d="M9 788v105h263v-105h-263zM221 -34h-162v732h162v-732z" />
    <glyph glyph-name="imacron" unicode="&#x12b;" horiz-adv-x="250" 
d="M-6 575v104h263v-104h-263zM202 -34h-154v517h154v-517z" />
    <glyph glyph-name="Ibreve" unicode="&#x12c;" horiz-adv-x="281" 
d="M23.5 802.5q-42.5 43.5 -42.5 114.5h122q1 -28 10.5 -45t27.5 -17t27.5 17.5t10.5 44.5h122q0 -71 -42.5 -114.5t-117.5 -43.5t-117.5 43.5zM221 -34h-162v732h162v-732z" />
    <glyph glyph-name="ibreve" unicode="&#x12d;" horiz-adv-x="250" 
d="M8 590.5q-42 45.5 -42 124.5h122q2 -74 38 -74t38 74h123q0 -79 -43 -124.5t-118 -45.5q-76 0 -118 45.5zM202 -34h-154v517h154v-517z" />
    <glyph glyph-name="Iogonek" unicode="&#x12e;" horiz-adv-x="281" 
d="M277 -192q-51 -52 -123 -52q-50 0 -86.5 23.5t-36.5 74.5q0 57 55 112h-27v732h162v-732h-1q-78 -54 -78 -99q0 -33 35 -33q12 0 22.5 5t25.5 19z" />
    <glyph glyph-name="iogonek" unicode="&#x12f;" horiz-adv-x="250" 
d="M59 566.5q-28 28.5 -28 67.5q0 40 27.5 68.5t67.5 28.5q38 0 66.5 -29t28.5 -68t-28 -67.5t-67 -28.5t-67 28.5zM258 -192q-49 -52 -123 -52q-50 0 -86 23.5t-36 74.5q0 57 55 112h-20v517h154v-516q-79 -55 -79 -100q0 -16 9.5 -24.5t25.5 -8.5q12 0 23 5.5t25 18.5z
" />
    <glyph glyph-name="Idotaccent" unicode="&#x130;" horiz-adv-x="281" 
d="M82 780.5q-24 25.5 -24 60.5t24 60t58 25q36 0 60 -25t24 -60q0 -36 -24 -61t-60 -25q-34 0 -58 25.5zM221 -34h-162v732h162v-732z" />
    <glyph glyph-name="dotlessi" unicode="&#x131;" horiz-adv-x="250" 
d="M202 -34h-154v517h154v-517z" />
    <glyph glyph-name="IJ" unicode="&#x132;" horiz-adv-x="761" 
d="M221 -34h-162v732h162v-732zM356.5 -8q-51.5 39 -71.5 121l128 71q10 -43 27 -62t43 -19q34 0 48.5 32.5t14.5 102.5v460h162v-472q0 -144 -60.5 -208.5t-161.5 -64.5q-78 0 -129.5 39z" />
    <glyph glyph-name="ij" unicode="&#x133;" horiz-adv-x="500" 
d="M63 572.5q-26 26.5 -26 62.5q0 37 25.5 63t62.5 26q34 0 60.5 -26.5t26.5 -62.5q0 -35 -26.5 -62t-60.5 -27q-36 0 -62 26.5zM313.5 572.5q-25.5 26.5 -25.5 62.5t25.5 62.5t59.5 26.5q36 0 63 -26.5t27 -62.5t-26.5 -62.5t-63.5 -26.5q-34 0 -59.5 26.5zM202 -34h-155
v517h155v-517zM184.5 -229q-33.5 15 -47.5 37l71 117q19 -20 43 -20q28 0 38.5 22.5t10.5 76.5v479h154v-497q0 -114 -53 -172t-138 -58q-45 0 -78.5 15z" />
    <glyph glyph-name="Jcircumflex" unicode="&#x134;" horiz-adv-x="480" 
d="M298 917h96l116 -157h-125l-39 59l-40 -59h-125zM4 113l128 71q10 -43 27 -62t43 -19q34 0 48.5 32.5t14.5 102.5v460h162v-472q0 -144 -60.5 -208.5t-160.5 -64.5q-163 0 -202 160z" />
    <glyph glyph-name="jcircumflex" unicode="&#x135;" horiz-adv-x="250" 
d="M72 715h96l116 -170h-125l-40 65l-39 -65h-125zM-65 -229.5q-33 14.5 -47 37.5l71 117q17 -20 43 -20q28 0 38 22.5t10 76.5v479h155v-497q0 -114 -53.5 -172t-137.5 -58q-46 0 -79 14.5z" />
    <glyph glyph-name="uni0136" unicode="&#x136;" horiz-adv-x="650" 
d="M644 -34h-194l-149 299l-80 -108v-191h-162v732h162v-212q0 -80 -6 -123q15 30 67 108l13 19l143 208h183l-212 -286zM399.5 -83.5q26.5 -19.5 26.5 -57.5q0 -47 -44 -74.5t-128 -28.5v51q63 3 79 26h-5q-38 1 -60.5 13t-22.5 36t23.5 39t60.5 15q44 0 70.5 -19.5z" />
    <glyph glyph-name="uni0137" unicode="&#x137;" horiz-adv-x="518" 
d="M514 -34h-181l-77 173l-53 -72v-101h-155v761h155v-257q0 -73 -0.5 -128.5t-3.5 -91.5q13 33 63 115l70 118h170l-144 -199zM335.5 -83.5q26.5 -19.5 26.5 -57.5q0 -47 -44 -74.5t-128 -28.5v51q64 3 78 26h-4q-38 1 -60.5 13t-22.5 36t23.5 39t60.5 15q44 0 70.5 -19.5z
" />
    <glyph glyph-name="kgreenlandic" unicode="&#x138;" horiz-adv-x="518" 
d="M514 -34h-181l-77 173l-53 -72v-101h-155v517h155v-29q0 -152 -4 -204q13 33 63 115l70 118h170l-144 -199z" />
    <glyph glyph-name="Lacute" unicode="&#x139;" horiz-adv-x="488" 
d="M88 761l68 156h151l-104 -156h-115zM59 698h162v-586h243v-146h-405v732z" />
    <glyph glyph-name="lacute" unicode="&#x13a;" horiz-adv-x="251" 
d="M73 790l68 156h151l-104 -156h-115zM203 -34h-155v761h155v-761z" />
    <glyph glyph-name="uni013B" unicode="&#x13b;" horiz-adv-x="488" 
d="M59 698h162v-586h243v-146h-405v732zM319.5 -83.5q26.5 -19.5 26.5 -57.5q0 -47 -44.5 -74.5t-127.5 -28.5v51q64 3 78 26h-4q-38 1 -60.5 13t-22.5 36t23.5 39t60.5 15q44 0 70.5 -19.5z" />
    <glyph glyph-name="uni013C" unicode="&#x13c;" horiz-adv-x="251" 
d="M203 -34h-155v761h155v-761zM193 -83.5q27 -19.5 27 -57.5q0 -47 -44.5 -74.5t-128.5 -28.5v51q65 3 79 26h-5q-38 1 -60 13t-22 36t23.5 39t59.5 15q44 0 71 -19.5z" />
    <glyph glyph-name="Lcaron" unicode="&#x13d;" horiz-adv-x="498" 
d="M310 558q-25 26 -25 63q0 38 24 64.5t60 26.5q41 0 69 -31.5t28 -90.5q0 -78 -48 -129t-124 -61v80q32 5 51 17t27 35q-37 0 -62 26zM59 698h162v-586h243v-146h-405v732z" />
    <glyph glyph-name="lcaron" unicode="&#x13e;" horiz-adv-x="346" 
d="M354.5 705q20.5 -23 20.5 -74q0 -68 -37 -107.5t-98 -47.5v64q25 4 40 14t21 29h-2q-28 0 -47 20.5t-19 53.5t19.5 52t49.5 19q32 0 52.5 -23zM203 -34h-155v761h155v-761z" />
    <glyph glyph-name="Ldot" unicode="&#x13f;" horiz-adv-x="498" 
d="M59 698h162v-586h243v-146h-405v732zM294.5 308q-27.5 29 -27.5 68q0 40 27.5 68.5t66.5 28.5q40 0 68 -28.5t28 -68.5q0 -39 -28 -68t-68 -29q-39 0 -66.5 29z" />
    <glyph glyph-name="ldot" unicode="&#x140;" horiz-adv-x="368" 
d="M203 -34h-155v761h155v-761zM250 284q-24 23 -24 64q0 42 24 65t60 23t60 -23t24 -65q0 -41 -24 -64t-60 -23t-60 23z" />
    <glyph glyph-name="Lslash" unicode="&#x141;" horiz-adv-x="505" 
d="M371 362l-133 -69v-181h243v-146h-405v244l-75 -38v165l75 38v323h162v-240l133 69v-165z" />
    <glyph glyph-name="lslash" unicode="&#x142;" horiz-adv-x="292" 
d="M223 727v-246l69 44v-165l-69 -44v-350h-154v250l-68 -43v165l68 43v346h154z" />
    <glyph glyph-name="Nacute" unicode="&#x143;" horiz-adv-x="638" 
d="M261 761l68 156h151l-104 -156h-115zM191 698l240 -422v422h147v-732h-131l-240 422v-422h-148v732h132z" />
    <glyph glyph-name="nacute" unicode="&#x144;" 
d="M201 545l68 170h151l-104 -170h-115zM435.5 446q38.5 -51 38.5 -159v-321h-154v263q0 60 -12.5 88t-43.5 28q-30 0 -45.5 -27.5t-15.5 -93.5v-258h-155v518h137l2 -20q2 -37 5 -52q41 85 135 85q70 0 108.5 -51z" />
    <glyph glyph-name="uni0145" unicode="&#x145;" horiz-adv-x="638" 
d="M191 698l240 -422v422h147v-732h-131l-240 422v-422h-148v732h132zM381.5 -83.5q26.5 -19.5 26.5 -57.5q0 -47 -44.5 -74.5t-127.5 -28.5v51q64 3 78 26h-4q-38 1 -60.5 13t-22.5 36t23.5 39t60.5 15q44 0 70.5 -19.5z" />
    <glyph glyph-name="uni0146" unicode="&#x146;" 
d="M435.5 446q38.5 -51 38.5 -159v-321h-154v263q0 60 -12.5 88t-43.5 28q-30 0 -45.5 -27.5t-15.5 -93.5v-258h-155v518h137l2 -20q2 -37 5 -52q41 85 135 85q70 0 108.5 -51zM328.5 -83.5q26.5 -19.5 26.5 -57.5q0 -47 -44.5 -74.5t-127.5 -28.5v51q64 3 78 26h-4
q-38 1 -60.5 13t-22.5 36t23.5 39t60.5 15q44 0 70.5 -19.5z" />
    <glyph glyph-name="Ncaron" unicode="&#x147;" horiz-adv-x="638" 
d="M274 917l39 -60l39 60h125l-116 -157h-96l-116 157h125zM191 698l240 -422v422h147v-732h-131l-240 422v-422h-148v732h132z" />
    <glyph glyph-name="ncaron" unicode="&#x148;" 
d="M226 715l39 -65l39 65h125l-116 -170h-96l-117 170h126zM435.5 446q38.5 -51 38.5 -159v-321h-154v263q0 60 -12.5 88t-43.5 28q-30 0 -45.5 -27.5t-15.5 -93.5v-258h-155v518h137l2 -20q2 -37 5 -52q41 85 135 85q70 0 108.5 -51z" />
    <glyph glyph-name="napostrophe" unicode="&#x149;" 
d="M-4 555q30 4 48 14t26 29h-1q-35 0 -58 20.5t-23 50.5t22.5 51t55.5 21q37 0 63 -25t26 -72q0 -63 -44 -103.5t-115 -48.5v63zM435.5 446q38.5 -51 38.5 -159v-321h-154v263q0 60 -12.5 88t-43.5 28q-30 0 -45.5 -27.5t-15.5 -93.5v-258h-155v518h137l2 -20q2 -37 5 -52
q41 85 135 85q70 0 108.5 -51z" />
    <glyph glyph-name="Eng" unicode="&#x14a;" horiz-adv-x="638" 
d="M431 698h147v-717q0 -118 -47.5 -171.5t-131.5 -53.5q-43 0 -78 13t-58 33l63 123q25 -22 52 -22q23 0 34 19.5t11 69.5v17l-216 379v-422h-148v732h132l240 -422v422z" />
    <glyph glyph-name="eng" unicode="&#x14b;" horiz-adv-x="526" 
d="M435.5 446q38.5 -51 38.5 -159v-305q0 -226 -183 -226q-40 0 -74 12.5t-58 33.5l62 124q24 -22 48 -22t37.5 19.5t13.5 69.5v236q0 60 -12.5 88t-43.5 28q-30 0 -45.5 -27.5t-15.5 -93.5v-258h-155v518h137l2 -20q2 -37 5 -52q41 85 135 85q70 0 108.5 -51z" />
    <glyph glyph-name="Omacron" unicode="&#x14c;" horiz-adv-x="648" 
d="M193 788v105h263v-105h-263zM71 545.5q37 84.5 102 125.5t151 41q85 0 150.5 -41t102.5 -126t37 -212q0 -128 -37 -213.5t-102 -126t-151 -40.5q-132 0 -211 94.5t-79 285.5q0 128 37 212.5zM235.5 159q31.5 -56 89.5 -56t88 55.5t30 174.5q0 118 -30 173.5t-88 55.5
q-121 0 -121 -229q0 -118 31.5 -174z" />
    <glyph glyph-name="omacron" unicode="&#x14d;" horiz-adv-x="502" 
d="M120 575v104h263v-104h-263zM56.5 381q31.5 61 82.5 88.5t113 27.5q97 0 161 -66t64 -206t-64 -206t-161 -66q-62 0 -113 27.5t-82.5 88.5t-31.5 156t31.5 156zM202.5 122.5q18.5 -32.5 49.5 -32.5q30 0 47.5 32.5t17.5 102.5t-17.5 102.5t-47.5 32.5q-31 0 -49.5 -32.5
t-18.5 -102.5t18.5 -102.5z" />
    <glyph glyph-name="Obreve" unicode="&#x14e;" horiz-adv-x="648" 
d="M206.5 802.5q-42.5 43.5 -42.5 114.5h123q1 -27 10 -44.5t27 -17.5q19 0 28.5 17.5t10.5 44.5h122q0 -71 -43 -114.5t-118 -43.5t-117.5 43.5zM71 545.5q37 84.5 102 125.5t151 41q85 0 150.5 -41t102.5 -126t37 -212q0 -128 -37 -213.5t-102 -126t-151 -40.5
q-132 0 -211 94.5t-79 285.5q0 128 37 212.5zM235.5 159q31.5 -56 89.5 -56t88 55.5t30 174.5q0 118 -30 173.5t-88 55.5q-121 0 -121 -229q0 -118 31.5 -174z" />
    <glyph glyph-name="obreve" unicode="&#x14f;" horiz-adv-x="502" 
d="M134.5 590.5q-42.5 45.5 -42.5 124.5h122q2 -74 38 -74q18 0 28 19.5t11 54.5h122q0 -79 -43 -124.5t-118 -45.5t-117.5 45.5zM56.5 381q31.5 61 82.5 88.5t113 27.5q97 0 161 -66t64 -206t-64 -206t-161 -66q-62 0 -113 27.5t-82.5 88.5t-31.5 156t31.5 156z
M202.5 122.5q18.5 -32.5 49.5 -32.5q30 0 47.5 32.5t17.5 102.5t-17.5 102.5t-47.5 32.5q-31 0 -49.5 -32.5t-18.5 -102.5t18.5 -102.5z" />
    <glyph glyph-name="Ohungarumlaut" unicode="&#x150;" horiz-adv-x="648" 
d="M184 760l68 157h138l-104 -157h-102zM362 760l68 157h138l-104 -157h-102zM71 545.5q37 84.5 102 125.5t151 41q85 0 150.5 -41t102.5 -126t37 -212q0 -128 -37 -213.5t-102 -126t-151 -40.5q-132 0 -211 94.5t-79 285.5q0 128 37 212.5zM235.5 159q31.5 -56 89.5 -56
t88 55.5t30 174.5q0 118 -30 173.5t-88 55.5q-121 0 -121 -229q0 -118 31.5 -174z" />
    <glyph glyph-name="ohungarumlaut" unicode="&#x151;" horiz-adv-x="502" 
d="M111 545l68 170h139l-104 -170h-103zM289 545l68 170h139l-104 -170h-103zM56.5 381q31.5 61 82.5 88.5t113 27.5q97 0 161 -66t64 -206t-64 -206t-161 -66q-62 0 -113 27.5t-82.5 88.5t-31.5 156t31.5 156zM202.5 122.5q18.5 -32.5 49.5 -32.5q30 0 47.5 32.5
t17.5 102.5t-17.5 102.5t-47.5 32.5q-31 0 -49.5 -32.5t-18.5 -102.5t18.5 -102.5z" />
    <glyph glyph-name="OE" unicode="&#x152;" horiz-adv-x="892" 
d="M609 265v-157h253v-142h-414v38q-59 -51 -141 -51q-74 0 -136 41t-99.5 126.5t-37.5 212.5q0 126 37.5 211t99.5 126.5t136 41.5q82 0 141 -51v37h404v-142h-243v-150h219v-141h-219zM412 159q31 56 31 174q0 228 -118 228q-56 0 -88.5 -55t-32.5 -173t32.5 -174
t88.5 -56t87 56z" />
    <glyph glyph-name="oe" unicode="&#x153;" horiz-adv-x="782" 
d="M711 434.5q53 -62.5 53 -178.5q0 -35 -6 -76h-259q10 -94 73 -94q46 0 64 52l112 -64q-20 -61 -68.5 -91t-108.5 -30q-49 0 -91.5 22t-70.5 69q-28 -46 -71 -68.5t-91 -22.5q-59 0 -109.5 27.5t-81.5 88.5t-31 156q0 94 31 155t81.5 89t109.5 28q48 0 91 -22.5t72 -68.5
q28 46 72 68.5t92 22.5q84 0 137 -62.5zM500 291h113q-3 78 -53 78q-49 0 -60 -78zM299.5 123q17.5 33 17.5 102q0 70 -17.5 103t-47.5 33q-31 0 -49.5 -33t-18.5 -103t18.5 -102.5t49.5 -32.5q30 0 47.5 33z" />
    <glyph glyph-name="Racute" unicode="&#x154;" horiz-adv-x="584" 
d="M286 917h151l-104 -156h-115zM590 -34l-183 1l-133 257h-6h-50v-258h-159v732h227q77 0 133.5 -29.5t87 -83t30.5 -124.5q0 -68 -28 -120t-79 -82zM262 363q42 0 74 24t32 75q0 50 -31 73t-75 23h-44v-195h44z" />
    <glyph glyph-name="racute" unicode="&#x155;" horiz-adv-x="403" 
d="M163 545l68 170h151l-104 -170h-115zM367 486q26 -11 39 -29l-62 -123q-19 15 -46 15q-44 0 -69.5 -37.5t-25.5 -120.5v-225h-155v517h137q5 -58 8 -75q18 43 50.5 66t70.5 23q27 0 53 -11z" />
    <glyph glyph-name="uni0156" unicode="&#x156;" horiz-adv-x="584" 
d="M590 -34l-183 1l-133 257h-6h-50v-258h-159v732h227q77 0 133.5 -29.5t87 -83t30.5 -124.5q0 -68 -28 -120t-79 -82zM262 363q42 0 74 24t32 75q0 50 -31 73t-75 23h-44v-195h44zM380.5 -83.5q26.5 -19.5 26.5 -57.5q0 -47 -44 -74.5t-128 -28.5v51q64 3 78 26h-4
q-38 1 -60.5 13t-22.5 36t23.5 39t60.5 15q44 0 70.5 -19.5z" />
    <glyph glyph-name="uni0157" unicode="&#x157;" horiz-adv-x="403" 
d="M367 486q26 -11 39 -29l-62 -123q-19 15 -46 15q-44 0 -69.5 -37.5t-25.5 -120.5v-225h-155v517h137q5 -58 8 -75q18 43 50.5 66t70.5 23q27 0 53 -11zM193 -83.5q27 -19.5 27 -57.5q0 -47 -44.5 -74.5t-128.5 -28.5v51q65 3 79 26h-5q-38 1 -60 13t-22 36t23.5 39
t59.5 15q44 0 71 -19.5z" />
    <glyph glyph-name="Rcaron" unicode="&#x158;" horiz-adv-x="584" 
d="M434 917l-116 -157h-96l-116 157h125l39 -60l39 60h125zM590 -34l-183 1l-133 257h-6h-50v-258h-159v732h227q77 0 133.5 -29.5t87 -83t30.5 -124.5q0 -68 -28 -120t-79 -82zM262 363q42 0 74 24t32 75q0 50 -31 73t-75 23h-44v-195h44z" />
    <glyph glyph-name="rcaron" unicode="&#x159;" horiz-adv-x="403" 
d="M188 715l39 -65l39 65h125l-116 -170h-96l-116 170h125zM367 486q26 -11 39 -29l-62 -123q-19 15 -46 15q-44 0 -69.5 -37.5t-25.5 -120.5v-225h-155v517h137q5 -58 8 -75q18 43 50.5 66t70.5 23q27 0 53 -11z" />
    <glyph glyph-name="Sacute" unicode="&#x15a;" horiz-adv-x="504" 
d="M210 761l68 156h152l-105 -156h-115zM451 49.5q-33 -50.5 -86.5 -73.5t-115.5 -23q-91 0 -156 46t-85 136l141 74q32 -110 107 -110q28 0 44.5 15.5t16.5 44.5q0 38 -27.5 60.5t-84.5 49.5q-55 25 -90.5 48.5t-61 66.5t-25.5 109q0 75 33 124t86 72t116 23
q83 0 140 -41.5t75 -117.5l-141 -74q-24 87 -83 87q-26 0 -43 -16.5t-17 -45.5q0 -35 26 -55.5t83 -46.5q56 -25 92.5 -49t62.5 -67t26 -110q0 -76 -33 -126.5z" />
    <glyph glyph-name="sacute" unicode="&#x15b;" horiz-adv-x="394" 
d="M148 546l69 170h151l-105 -170h-115zM332.5 -2.5q-51.5 -44.5 -136.5 -44.5q-72 0 -123.5 34t-69.5 100l115 65q25 -65 74 -65q18 0 26 7t8 19q0 16 -15.5 27t-49.5 27q-40 19 -67.5 37t-47.5 49.5t-20 78.5q0 77 52.5 121t134.5 44q71 0 113.5 -34.5t52.5 -86.5
l-113 -63q-7 26 -21.5 38.5t-32.5 12.5q-14 0 -21.5 -7.5t-7.5 -19.5q0 -18 16 -29.5t51 -27.5q41 -19 67.5 -36.5t46.5 -49t20 -78.5q0 -74 -51.5 -118.5z" />
    <glyph glyph-name="Scircumflex" unicode="&#x15c;" horiz-adv-x="504" 
d="M216 917h96l116 -157h-126l-39 60l-39 -60h-125zM451 49.5q-33 -50.5 -86.5 -73.5t-115.5 -23q-91 0 -156 46t-85 136l141 74q32 -110 107 -110q28 0 44.5 15.5t16.5 44.5q0 38 -27.5 60.5t-84.5 49.5q-55 25 -90.5 48.5t-61 66.5t-25.5 109q0 75 33 124t86 72t116 23
q83 0 140 -41.5t75 -117.5l-141 -74q-24 87 -83 87q-26 0 -43 -16.5t-17 -45.5q0 -35 26 -55.5t83 -46.5q56 -25 92.5 -49t62.5 -67t26 -110q0 -76 -33 -126.5z" />
    <glyph glyph-name="scircumflex" unicode="&#x15d;" horiz-adv-x="394" 
d="M158 716h96l116 -170h-126l-39 65l-39 -65h-125zM332.5 -2.5q-51.5 -44.5 -136.5 -44.5q-72 0 -123.5 34t-69.5 100l115 65q25 -65 74 -65q18 0 26 7t8 19q0 16 -15.5 27t-49.5 27q-40 19 -67.5 37t-47.5 49.5t-20 78.5q0 77 52.5 121t134.5 44q71 0 113.5 -34.5
t52.5 -86.5l-113 -63q-7 26 -21.5 38.5t-32.5 12.5q-14 0 -21.5 -7.5t-7.5 -19.5q0 -18 16 -29.5t51 -27.5q41 -19 67.5 -36.5t46.5 -49t20 -78.5q0 -74 -51.5 -118.5z" />
    <glyph glyph-name="Scedilla" unicode="&#x15e;" horiz-adv-x="504" 
d="M427 18.5q-57 -54.5 -145 -63.5l-18 -44q36 -5 59 -23.5t23 -48.5q0 -43 -36 -63t-83 -20q-39 0 -81 10v64q31 -11 58 -11q35 0 35 18t-36 18q-16 0 -39 -5l-9 42l30 68q-68 14 -114 58t-63 117l141 74q32 -110 107 -110q28 0 44.5 15.5t16.5 44.5q0 38 -27.5 60.5
t-84.5 49.5q-55 25 -90.5 48.5t-61 66.5t-25.5 109q0 75 33 124t86 72t116 23q83 0 140 -41.5t75 -117.5l-141 -74q-24 87 -83 87q-26 0 -43 -16.5t-17 -45.5q0 -35 26 -55.5t83 -46.5q56 -25 92.5 -49t62.5 -67t26 -110q0 -103 -57 -157.5z" />
    <glyph glyph-name="scedilla" unicode="&#x15f;" horiz-adv-x="394" 
d="M342.5 7q-41.5 -43 -112.5 -52l-19 -42q35 -5 58.5 -24t23.5 -49q0 -43 -35.5 -63.5t-83.5 -20.5q-42 0 -81 11v64q31 -11 58 -11q35 0 35 18t-36 18q-16 0 -39 -5l-9 43l29 67q-48 12 -81 44t-47 82l115 65q25 -65 74 -65q18 0 26 7t8 19q0 16 -15.5 27t-49.5 27
q-40 19 -67.5 37t-47.5 49.5t-20 78.5q0 77 52.5 121t134.5 44q71 0 113.5 -34.5t52.5 -86.5l-113 -63q-7 26 -21.5 38.5t-32.5 12.5q-14 0 -21.5 -7.5t-7.5 -19.5q0 -18 16 -29.5t51 -27.5q41 -19 67.5 -36.5t46.5 -49t20 -78.5q0 -66 -41.5 -109z" />
    <glyph glyph-name="Scaron" unicode="&#x160;" horiz-adv-x="504" 
d="M223 917l39 -60l40 60h125l-116 -157h-96l-117 157h125zM451 49.5q-33 -50.5 -86.5 -73.5t-115.5 -23q-91 0 -156 46t-85 136l141 74q32 -110 107 -110q28 0 44.5 15.5t16.5 44.5q0 38 -27.5 60.5t-84.5 49.5q-55 25 -90.5 48.5t-61 66.5t-25.5 109q0 75 33 124t86 72
t116 23q83 0 140 -41.5t75 -117.5l-141 -74q-24 87 -83 87q-26 0 -43 -16.5t-17 -45.5q0 -35 26 -55.5t83 -46.5q56 -25 92.5 -49t62.5 -67t26 -110q0 -76 -33 -126.5z" />
    <glyph glyph-name="scaron" unicode="&#x161;" horiz-adv-x="394" 
d="M173 716l39 -65l40 65h125l-116 -170h-96l-117 170h125zM332.5 -2.5q-51.5 -44.5 -136.5 -44.5q-72 0 -123.5 34t-69.5 100l115 65q25 -65 74 -65q18 0 26 7t8 19q0 16 -15.5 27t-49.5 27q-40 19 -67.5 37t-47.5 49.5t-20 78.5q0 77 52.5 121t134.5 44q71 0 113.5 -34.5
t52.5 -86.5l-113 -63q-7 26 -21.5 38.5t-32.5 12.5q-14 0 -21.5 -7.5t-7.5 -19.5q0 -18 16 -29.5t51 -27.5q41 -19 67.5 -36.5t46.5 -49t20 -78.5q0 -74 -51.5 -118.5z" />
    <glyph glyph-name="uni0162" unicode="&#x162;" horiz-adv-x="533" 
d="M346 553v-587h-28l-23 -53q35 -4 58 -23t23 -50q0 -43 -36 -63.5t-83 -20.5q-42 0 -81 11v64q37 -11 59 -11q15 0 25 5t10 14q0 17 -36 17q-20 0 -39 -4l-10 43l32 71h-33v587h-173v145h509v-145h-174z" />
    <glyph glyph-name="uni0163" unicode="&#x163;" horiz-adv-x="397" 
d="M265 -89q35 -4 58 -22.5t23 -48.5q0 -43 -35.5 -63.5t-83.5 -20.5q-42 0 -81 11v63q33 -10 59 -10q15 0 25 4.5t10 13.5q0 17 -36 17q-20 0 -39 -4l-10 42l31 70q-104 35 -104 190v198h-77v133h77v161h155v-161h130v-133h-130v-155q0 -52 11.5 -73t38.5 -21q29 0 56 24
l58 -121q-43 -43 -118 -51z" />
    <glyph glyph-name="Tcaron" unicode="&#x164;" horiz-adv-x="531" 
d="M225 917l40 -60l39 60h125l-116 -157h-96l-117 157h125zM11 698h509v-145h-174v-587h-162v587h-173v145z" />
    <glyph glyph-name="tcaron" unicode="&#x165;" horiz-adv-x="397" 
d="M286.5 693q-24.5 26 -24.5 63q0 38 23.5 64.5t59.5 26.5q41 0 69.5 -31.5t28.5 -90.5q0 -78 -48 -129.5t-125 -61.5v80q32 4 51.5 16.5t27.5 36.5h-2q-36 0 -60.5 26zM343 126l58 -121q-52 -52 -144 -52q-76 0 -125.5 42.5t-49.5 157.5v198h-77v133h77v161h155v-161h130
v-133h-130v-155q0 -52 11.5 -73t38.5 -21q29 0 56 24z" />
    <glyph glyph-name="Tbar" unicode="&#x166;" horiz-adv-x="531" 
d="M11 698h509v-145h-174v-171h112v-145h-112v-271h-162v271h-109v145h109v171h-173v145z" />
    <glyph glyph-name="tbar" unicode="&#x167;" horiz-adv-x="397" 
d="M401 5q-52 -52 -144 -52q-76 0 -125.5 42.5t-49.5 157.5v19h-77v124h77v64h-77v124h77v161h155v-161h130v-124h-130v-64h130v-124h-129q2 -38 13.5 -56.5t35.5 -18.5q30 0 56 23z" />
    <glyph glyph-name="Utilde" unicode="&#x168;" horiz-adv-x="644" 
d="M157 773q3 70 30 109.5t74 39.5q24 0 41.5 -10t37.5 -28q8 -7 16.5 -13t14.5 -6q21 0 26 51h91q-3 -70 -30 -109.5t-74 -39.5q-23 0 -40 9.5t-38 27.5q-3 2 -13.5 10.5t-18.5 8.5q-11 0 -17 -12.5t-9 -37.5h-91zM429 698h162v-440q0 -154 -70.5 -229.5t-198.5 -75.5
t-198.5 75.5t-70.5 229.5v440h162v-402q0 -110 27.5 -151.5t80.5 -41.5q50 0 78 41.5t28 151.5v402z" />
    <glyph glyph-name="utilde" unicode="&#x169;" 
d="M90 559q3 70 30 109.5t74 39.5q23 0 40.5 -10t37.5 -28q8 -7 16.5 -13t14.5 -6q22 0 25 51h91q-3 -70 -30 -109.5t-74 -39.5q-22 0 -38.5 9.5t-37.5 26.5q-22 20 -33 20q-20 0 -25 -50h-91zM313 484h154v-518h-136l-2 20q-2 37 -5 52q-41 -85 -136 -85q-70 0 -108.5 51.5
t-38.5 158.5v321h155v-263q0 -60 12.5 -87.5t43.5 -27.5q30 0 45.5 27.5t15.5 93.5v257z" />
    <glyph glyph-name="Umacron" unicode="&#x16a;" horiz-adv-x="644" 
d="M191 789v104h263v-104h-263zM429 698h162v-440q0 -154 -70.5 -229.5t-198.5 -75.5t-198.5 75.5t-70.5 229.5v440h162v-402q0 -110 27.5 -151.5t80.5 -41.5q50 0 78 41.5t28 151.5v402z" />
    <glyph glyph-name="umacron" unicode="&#x16b;" 
d="M123 576v104h263v-104h-263zM313 484h154v-518h-136l-2 20q-2 37 -5 52q-41 -85 -136 -85q-70 0 -108.5 51.5t-38.5 158.5v321h155v-263q0 -60 12.5 -87.5t43.5 -27.5q30 0 45.5 27.5t15.5 93.5v257z" />
    <glyph glyph-name="Ubreve" unicode="&#x16c;" horiz-adv-x="644" 
d="M205.5 802.5q-42.5 43.5 -42.5 114.5h122q1 -27 10 -44.5t27 -17.5q19 0 28.5 17.5t10.5 44.5h122q0 -71 -43 -114.5t-118 -43.5q-74 0 -116.5 43.5zM429 698h162v-440q0 -154 -70.5 -229.5t-198.5 -75.5t-198.5 75.5t-70.5 229.5v440h162v-402q0 -110 27.5 -151.5
t80.5 -41.5q50 0 78 41.5t28 151.5v402z" />
    <glyph glyph-name="ubreve" unicode="&#x16d;" 
d="M137.5 591.5q-42.5 45.5 -42.5 124.5h122q2 -74 38 -74t39 74h122q0 -79 -43 -124.5t-118 -45.5t-117.5 45.5zM313 484h154v-518h-136l-2 20q-2 37 -5 52q-41 -85 -136 -85q-70 0 -108.5 51.5t-38.5 158.5v321h155v-263q0 -60 12.5 -87.5t43.5 -27.5q30 0 45.5 27.5
t15.5 93.5v257z" />
    <glyph glyph-name="Uring" unicode="&#x16e;" horiz-adv-x="644" 
d="M232.5 960.5q36.5 35.5 89.5 35.5q54 0 89 -35t35 -90t-35 -89.5t-89 -34.5q-53 0 -89.5 35t-36.5 89t36.5 89.5zM291 838q12 -13 31 -13t30.5 13t11.5 33q0 21 -11.5 33.5t-30.5 12.5q-20 0 -31.5 -12.5t-11.5 -33.5q0 -20 12 -33zM429 698h162v-440
q0 -154 -70.5 -229.5t-198.5 -75.5t-198.5 75.5t-70.5 229.5v440h162v-402q0 -110 27.5 -151.5t80.5 -41.5q50 0 78 41.5t28 151.5v402z" />
    <glyph glyph-name="uring" unicode="&#x16f;" 
d="M164.5 747q36.5 35 90.5 35q53 0 88 -35t35 -89q0 -55 -34.5 -90t-88.5 -35t-90.5 35t-36.5 90q0 54 36.5 89zM223 625q12 -13 32 -13q19 0 30.5 13t11.5 33t-11.5 33t-30.5 13q-20 0 -32 -13t-12 -33t12 -33zM313 484h154v-518h-136l-2 20q-2 37 -5 52q-41 -85 -136 -85
q-70 0 -108.5 51.5t-38.5 158.5v321h155v-263q0 -60 12.5 -87.5t43.5 -27.5q30 0 45.5 27.5t15.5 93.5v257z" />
    <glyph glyph-name="Uhungarumlaut" unicode="&#x170;" horiz-adv-x="644" 
d="M182 760l68 157h139l-105 -157h-102zM360 760l68 157h139l-105 -157h-102zM429 698h162v-440q0 -154 -70.5 -229.5t-198.5 -75.5t-198.5 75.5t-70.5 229.5v440h162v-402q0 -110 27.5 -151.5t80.5 -41.5q50 0 78 41.5t28 151.5v402z" />
    <glyph glyph-name="uhungarumlaut" unicode="&#x171;" 
d="M114 546l68 170h139l-105 -170h-102zM292 546l68 170h139l-105 -170h-102zM313 484h154v-518h-136l-2 20q-2 37 -5 52q-41 -85 -136 -85q-70 0 -108.5 51.5t-38.5 158.5v321h155v-263q0 -60 12.5 -87.5t43.5 -27.5q30 0 45.5 27.5t15.5 93.5v257z" />
    <glyph glyph-name="Uogonek" unicode="&#x172;" horiz-adv-x="644" 
d="M439 -70.5q-20 -36.5 -20 -61.5q0 -17 8.5 -26t22.5 -9q23 0 48 24l52 -49q-48 -52 -123 -52q-47 0 -83 24t-36 69q0 50 43 105q-9 -1 -29 -1q-128 0 -198.5 75.5t-70.5 229.5v440h162v-402q0 -110 27.5 -151.5t80.5 -41.5q50 0 78 41.5t28 151.5v402h162v-440
q0 -167 -85 -244q-47 -48 -67 -84.5z" />
    <glyph glyph-name="uogonek" unicode="&#x173;" 
d="M523 -191q-49 -53 -123 -53q-50 0 -86 23.5t-36 75.5q0 57 54 111h-2q-2 51 -6 72q-41 -85 -136 -85q-70 0 -108.5 51.5t-38.5 158.5v321h155v-263q0 -60 12.5 -87.5t43.5 -27.5q30 0 45.5 27.5t15.5 93.5v257h154v-514q-79 -56 -79 -101q0 -16 9.5 -25t25.5 -9
q12 0 23 5.5t25 19.5z" />
    <glyph glyph-name="Wcircumflex" unicode="&#x174;" horiz-adv-x="889" 
d="M402 917h96l116 -157h-125l-39 59l-39 -59h-125zM518 698l106 -458l97 458h157l-191 -732h-133l-108 426l-107 -426h-132l-195 732h166l103 -460l101 460h136z" />
    <glyph glyph-name="wcircumflex" unicode="&#x175;" horiz-adv-x="713" 
d="M314 716h96l116 -170h-125l-39 65l-39 -65h-126zM418 483l73 -286l68 286h149l-156 -516h-113l-81 270l-76 -270h-116l-161 516h157l71 -296l68 296h117z" />
    <glyph glyph-name="Ycircumflex" unicode="&#x176;" horiz-adv-x="593" 
d="M256 917h96l115 -157h-125l-39 59l-39 -59h-125zM304 414l114 284h171l-208 -454v-278h-161v278l-216 454h185z" />
    <glyph glyph-name="ycircumflex" unicode="&#x177;" horiz-adv-x="509" 
d="M208 716h96l116 -170h-125l-39 65l-40 -65h-125zM264 187l80 296h160l-178 -545q-23 -71 -48 -110t-57.5 -55.5t-80.5 -16.5q-81 0 -128 41l59 117q24 -19 56 -19q24 0 38 10.5t25 39.5l5 15l-190 523h173z" />
    <glyph glyph-name="Ydieresis" unicode="&#x178;" horiz-adv-x="593" 
d="M148.5 780.5q-23.5 25.5 -23.5 60.5t23.5 60t57.5 25q36 0 60.5 -25t24.5 -60q0 -36 -24.5 -61t-60.5 -25q-34 0 -57.5 25.5zM338.5 780.5q-23.5 25.5 -23.5 60.5t23.5 60t58.5 25t59.5 -25t24.5 -60t-24.5 -60.5t-59.5 -25.5t-58.5 25.5zM304 414l114 284h171l-208 -454
v-278h-161v278l-216 454h185z" />
    <glyph glyph-name="Zacute" unicode="&#x179;" horiz-adv-x="500" 
d="M201 761l68 156h152l-105 -156h-115zM469 698v-106l-258 -480h270v-146h-466v107l259 480h-234v145h429z" />
    <glyph glyph-name="zacute" unicode="&#x17a;" horiz-adv-x="383" 
d="M128 546l69 170h151l-105 -170h-115zM358 483v-95l-175 -296h189v-126h-363v96l174 296h-155v125h330z" />
    <glyph glyph-name="Zdotaccent" unicode="&#x17b;" horiz-adv-x="500" 
d="M195 780.5q-24 25.5 -24 60.5t24 60t58 25q36 0 60.5 -25t24.5 -60q0 -36 -24.5 -61t-60.5 -25q-34 0 -58 25.5zM469 698v-106l-258 -480h270v-146h-466v107l259 480h-234v145h429z" />
    <glyph glyph-name="zdotaccent" unicode="&#x17c;" horiz-adv-x="383" 
d="M126.5 567.5q-27.5 28.5 -27.5 67.5q0 40 27.5 68.5t66.5 28.5t67.5 -28.5t28.5 -68.5q0 -39 -28.5 -67.5t-67.5 -28.5t-66.5 28.5zM358 483v-95l-175 -296h189v-126h-363v96l174 296h-155v125h330z" />
    <glyph glyph-name="Zcaron" unicode="&#x17d;" horiz-adv-x="500" 
d="M214 917l39 -60l39 60h125l-115 -157h-96l-117 157h125zM469 698v-106l-258 -480h270v-146h-466v107l259 480h-234v145h429z" />
    <glyph glyph-name="zcaron" unicode="&#x17e;" horiz-adv-x="383" 
d="M153 716l39 -65l40 65h125l-116 -170h-96l-117 170h125zM358 483v-95l-175 -296h189v-126h-363v96l174 296h-155v125h330z" />
    <glyph glyph-name="longs" unicode="&#x17f;" horiz-adv-x="341" 
d="M362 723.5q35 -17.5 49 -39.5l-74 -112q-10 12 -20.5 17.5t-24.5 5.5q-29 0 -43.5 -23.5t-14.5 -74.5v-531h-155v384h-69v133h69v20q0 119 56.5 178.5t143.5 59.5q48 0 83 -17.5z" />
    <glyph glyph-name="uni018F" unicode="&#x18f;" horiz-adv-x="601" 
d="M495 615q72 -97 72 -285q0 -123 -35 -207.5t-98 -127t-147 -42.5q-118 0 -187 82.5t-69 240.5q0 51 7 103h357q-5 88 -31.5 133.5t-79.5 45.5q-39 0 -68 -24t-48 -83l-124 82q69 179 248 179q131 0 203 -97zM360.5 138q24.5 35 31.5 101h-200q1 -71 25 -103.5t71 -32.5
q48 0 72.5 35z" />
    <glyph glyph-name="florin" unicode="&#x192;" 
d="M380.5 554q-14.5 -21 -23.5 -71h121v-133h-140l-22 -159q-17 -125 -66 -181.5t-135 -56.5q-46 0 -85 16t-61 41l71 103q24 -24 52 -24q30 0 46 28.5t26 97.5l18 135h-91v133h110v3q17 122 68.5 174t133.5 52q53 0 89.5 -16.5t54.5 -42.5l-73 -102q-12 13 -23.5 18.5
t-26.5 5.5q-29 0 -43.5 -21z" />
    <glyph glyph-name="Ohorn" unicode="&#x1a0;" horiz-adv-x="642" 
d="M611 639.5q-24 -37.5 -80 -45.5q83 -93 83 -261q0 -128 -38 -213t-103.5 -126t-148.5 -41t-148.5 41t-103.5 126t-38 213q0 127 38.5 212t106 126t156.5 41q29 0 73 -8q36 -6 51 -6q27 0 39 14.5t12 56.5q0 27 -6 58h124q7 -34 7 -72q0 -78 -24 -115.5zM413 158.5
q30 55.5 30 174.5q0 118 -30 173.5t-88 55.5q-121 0 -121 -229q0 -118 31.5 -174t89.5 -56t88 55.5z" />
    <glyph glyph-name="ohorn" unicode="&#x1a1;" horiz-adv-x="534" 
d="M515.5 428q-23.5 -37 -71.5 -47q32 -56 32 -156q0 -95 -31 -156t-81.5 -88.5t-111.5 -27.5q-62 0 -113 27.5t-82.5 88.5t-31.5 156q0 140 66.5 206t170.5 66q30 0 77 -9q22 -5 33 -5q21 0 31.5 13t10.5 52q0 35 -4 64h124q5 -40 5 -72q0 -75 -23.5 -112zM299 123.5
q18 33.5 18 101.5q0 69 -17.5 102t-47.5 33q-31 0 -49.5 -33t-18.5 -102t18.5 -102t49.5 -33q29 0 47 33.5z" />
    <glyph glyph-name="Uhorn" unicode="&#x1af;" horiz-adv-x="644" 
d="M698 634.5q-32 -36.5 -107 -41.5v-335q0 -154 -70.5 -229.5t-198.5 -75.5t-198.5 75.5t-70.5 229.5v440h162v-402q0 -110 27.5 -151.5t80.5 -41.5q50 0 78 41.5t28 151.5v402h91q28 0 43.5 4.5t24 18t8.5 42.5q0 26 -7 64h133q8 -32 8 -72q0 -84 -32 -120.5z" />
    <glyph glyph-name="uhorn" unicode="&#x1b0;" horiz-adv-x="588" 
d="M575 420.5q-32 -36.5 -108 -41.5v-413h-136l-2 20q-2 37 -5 52q-41 -85 -136 -85q-70 0 -108.5 51.5t-38.5 158.5v321h155v-263q0 -60 12.5 -87.5t43.5 -27.5q30 0 45.5 27.5t15.5 93.5v257h86q40 1 56.5 13t16.5 52q0 26 -7 64h134q8 -32 8 -72q0 -84 -32 -120.5z" />
    <glyph glyph-name="uni01CD" unicode="&#x1cd;" horiz-adv-x="662" 
d="M288 917l40 -60l39 60h125l-116 -157h-96l-117 157h125zM404 698l247 -732h-174l-45 151h-214l-43 -151h-163l239 732h153zM391 259l-67 232l-67 -232h134z" />
    <glyph glyph-name="uni01CE" unicode="&#x1ce;" horiz-adv-x="477" 
d="M401 715l-116 -170h-95l-117 170h125l39 -65l39 65h125zM386 443.5q49 -53.5 49 -156.5v-321h-128q-1 18 -7 59q-37 -72 -118 -72q-65 0 -109.5 39.5t-44.5 120.5q0 58 25.5 98.5t68 60.5t92.5 20q37 0 70 -10q-3 46 -17 64t-38 18q-26 0 -41.5 -15.5t-26.5 -42.5
l-111 69q25 58 74.5 90t120.5 32q92 0 141 -53.5zM284 170q-20 6 -38 6q-28 0 -46 -14.5t-18 -39.5q0 -22 11.5 -32.5t31.5 -10.5q26 0 42.5 20.5t16.5 61.5v9z" />
    <glyph glyph-name="uni01CF" unicode="&#x1cf;" horiz-adv-x="281" 
d="M100 917l40 -60l39 60h125l-116 -157h-96l-117 157h125zM221 -34h-162v732h162v-732z" />
    <glyph glyph-name="uni01D0" unicode="&#x1d0;" horiz-adv-x="250" 
d="M86 715l39 -65l39 65h125l-116 -170h-96l-117 170h126zM202 -34h-154v517h154v-517z" />
    <glyph glyph-name="uni01D1" unicode="&#x1d1;" horiz-adv-x="648" 
d="M284 917l39 -60l40 60h125l-116 -157h-96l-117 157h125zM71 545.5q37 84.5 102 125.5t151 41q85 0 150.5 -41t102.5 -126t37 -212q0 -128 -37 -213.5t-102 -126t-151 -40.5q-132 0 -211 94.5t-79 285.5q0 128 37 212.5zM235.5 159q31.5 -56 89.5 -56t88 55.5t30 174.5
q0 118 -30 173.5t-88 55.5q-121 0 -121 -229q0 -118 31.5 -174z" />
    <glyph glyph-name="uni01D2" unicode="&#x1d2;" horiz-adv-x="502" 
d="M212 715l39 -65l39 65h125l-116 -170h-96l-116 170h125zM56.5 381q31.5 61 82.5 88.5t113 27.5q97 0 161 -66t64 -206t-64 -206t-161 -66q-62 0 -113 27.5t-82.5 88.5t-31.5 156t31.5 156zM202.5 122.5q18.5 -32.5 49.5 -32.5q30 0 47.5 32.5t17.5 102.5t-17.5 102.5
t-47.5 32.5q-31 0 -49.5 -32.5t-18.5 -102.5t18.5 -102.5z" />
    <glyph glyph-name="uni01D3" unicode="&#x1d3;" horiz-adv-x="644" 
d="M282 917l40 -60l39 60h125l-116 -157h-96l-117 157h125zM429 698h162v-440q0 -154 -70.5 -229.5t-198.5 -75.5t-198.5 75.5t-70.5 229.5v440h162v-402q0 -110 27.5 -151.5t80.5 -41.5q50 0 78 41.5t28 151.5v402z" />
    <glyph glyph-name="uni01D4" unicode="&#x1d4;" 
d="M215 716l39 -65l39 65h125l-116 -170h-96l-116 170h125zM313 484h154v-518h-136l-2 20q-2 37 -5 52q-41 -85 -136 -85q-70 0 -108.5 51.5t-38.5 158.5v321h155v-263q0 -60 12.5 -87.5t43.5 -27.5q30 0 45.5 27.5t15.5 93.5v257z" />
    <glyph glyph-name="uni01D5" unicode="&#x1d5;" horiz-adv-x="644" 
d="M190 889v72h263v-72h-263zM168 752q-24 19 -24 46t24 46.5t58 19.5q36 0 60 -19.5t24 -46.5t-24 -46t-60 -19q-34 0 -58 19zM358 752q-24 19 -24 46t24 46.5t59 19.5q34 0 58.5 -19.5t24.5 -46.5q0 -26 -24.5 -45.5t-58.5 -19.5q-35 0 -59 19zM429 698h162v-440
q0 -154 -70.5 -229.5t-198.5 -75.5t-198.5 75.5t-70.5 229.5v440h162v-402q0 -110 27.5 -151.5t80.5 -41.5q50 0 78 41.5t28 151.5v402z" />
    <glyph glyph-name="uni01D6" unicode="&#x1d6;" 
d="M123 762v104h263v-104h-263zM92 570.5q-24 25.5 -24 60.5t24 60t58 25q36 0 60 -25t24 -60q0 -36 -24 -61t-60 -25q-34 0 -58 25.5zM300 570.5q-24 25.5 -24 60.5t24 60t59 25q34 0 59 -25t25 -60t-25 -60.5t-59 -25.5q-35 0 -59 25.5zM313 484h154v-518h-136l-2 20
q-2 37 -5 52q-41 -85 -136 -85q-70 0 -108.5 51.5t-38.5 158.5v321h155v-263q0 -60 12.5 -87.5t43.5 -27.5q30 0 45.5 27.5t15.5 93.5v257z" />
    <glyph glyph-name="uni01D7" unicode="&#x1d7;" horiz-adv-x="644" 
d="M268 881l91 91h151l-126 -91h-116zM168 752q-24 19 -24 46t24 46.5t58 19.5q36 0 60 -19.5t24 -46.5t-24 -46t-60 -19q-34 0 -58 19zM358 752q-24 19 -24 46t24 46.5t59 19.5q34 0 58.5 -19.5t24.5 -46.5q0 -26 -24.5 -45.5t-58.5 -19.5q-35 0 -59 19zM429 698h162v-440
q0 -154 -70.5 -229.5t-198.5 -75.5t-198.5 75.5t-70.5 229.5v440h162v-402q0 -110 27.5 -151.5t80.5 -41.5q50 0 78 41.5t28 151.5v402z" />
    <glyph glyph-name="uni01D8" unicode="&#x1d8;" 
d="M189 742l68 144h151l-104 -144h-115zM92 570.5q-24 25.5 -24 60.5t24 60t58 25q36 0 60 -25t24 -60q0 -36 -24 -61t-60 -25q-34 0 -58 25.5zM300 570.5q-24 25.5 -24 60.5t24 60t59 25q34 0 59 -25t25 -60t-25 -60.5t-59 -25.5q-35 0 -59 25.5zM313 484h154v-518h-136
l-2 20q-2 37 -5 52q-41 -85 -136 -85q-70 0 -108.5 51.5t-38.5 158.5v321h155v-263q0 -60 12.5 -87.5t43.5 -27.5q30 0 45.5 27.5t15.5 93.5v257z" />
    <glyph glyph-name="uni01D9" unicode="&#x1d9;" horiz-adv-x="644" 
d="M288 973l33 -31l33 31h131l-116 -93h-96l-117 93h132zM168 752q-24 19 -24 46t24 46.5t58 19.5q36 0 60 -19.5t24 -46.5t-24 -46t-60 -19q-34 0 -58 19zM358 752q-24 19 -24 46t24 46.5t59 19.5q34 0 58.5 -19.5t24.5 -46.5q0 -26 -24.5 -45.5t-58.5 -19.5q-35 0 -59 19z
M429 698h162v-440q0 -154 -70.5 -229.5t-198.5 -75.5t-198.5 75.5t-70.5 229.5v440h162v-402q0 -110 27.5 -151.5t80.5 -41.5q50 0 78 41.5t28 151.5v402z" />
    <glyph glyph-name="uni01DA" unicode="&#x1da;" 
d="M214 886l40 -54l40 54h126l-117 -144h-97l-119 144h127zM92 570.5q-24 25.5 -24 60.5t24 60t58 25q36 0 60 -25t24 -60q0 -36 -24 -61t-60 -25q-34 0 -58 25.5zM300 570.5q-24 25.5 -24 60.5t24 60t59 25q34 0 59 -25t25 -60t-25 -60.5t-59 -25.5q-35 0 -59 25.5z
M313 484h154v-518h-136l-2 20q-2 37 -5 52q-41 -85 -136 -85q-70 0 -108.5 51.5t-38.5 158.5v321h155v-263q0 -60 12.5 -87.5t43.5 -27.5q30 0 45.5 27.5t15.5 93.5v257z" />
    <glyph glyph-name="uni01DB" unicode="&#x1db;" horiz-adv-x="644" 
d="M134 972h151l91 -91h-116zM168.5 752.5q-24.5 19.5 -24.5 45.5q0 27 24.5 46.5t58.5 19.5q35 0 59 -19.5t24 -46.5t-24 -46t-59 -19q-34 0 -58.5 19.5zM358 752q-24 19 -24 46t24 46.5t60 19.5q34 0 58 -19.5t24 -46.5t-24 -46t-58 -19q-36 0 -60 19zM429 698h162v-440
q0 -154 -70.5 -229.5t-198.5 -75.5t-198.5 75.5t-70.5 229.5v440h162v-402q0 -110 27.5 -151.5t80.5 -41.5q50 0 78 41.5t28 151.5v402z" />
    <glyph glyph-name="uni01DC" unicode="&#x1dc;" 
d="M101 886h151l69 -144h-115zM92 570.5q-24 25.5 -24 60.5t24 60t58 25q36 0 60 -25t24 -60q0 -36 -24 -61t-60 -25q-34 0 -58 25.5zM300 570.5q-24 25.5 -24 60.5t24 60t59 25q34 0 59 -25t25 -60t-25 -60.5t-59 -25.5q-35 0 -59 25.5zM313 484h154v-518h-136l-2 20
q-2 37 -5 52q-41 -85 -136 -85q-70 0 -108.5 51.5t-38.5 158.5v321h155v-263q0 -60 12.5 -87.5t43.5 -27.5q30 0 45.5 27.5t15.5 93.5v257z" />
    <glyph glyph-name="uni01E5" unicode="&#x1e5;" horiz-adv-x="549" 
d="M542 294v-124h-61v-136q0 -146 -69 -212t-172 -66q-79 0 -132 31t-76 93l115 74q25 -59 89 -59q45 0 66 27t25 94q-41 -51 -113 -51q-84 0 -136.5 66t-52.5 200t52.5 200t136.5 66q86 0 127 -72q4 33 5 58h135v-189h61zM297.5 116q17.5 17 25.5 54h-66v124h66
q-15 70 -66 70q-34 0 -53.5 -33.5t-19.5 -99.5t19.5 -99t53.5 -33q23 0 40.5 17z" />
    <glyph glyph-name="gcaron" unicode="&#x1e7;" horiz-adv-x="516" 
d="M425 715l-116 -170h-96l-116 170h125l39 -65l39 65h125zM481 483v-449q0 -146 -69 -212t-172 -66q-79 0 -132 31t-76 93l115 74q25 -59 89 -59q45 0 66 27t25 94q-41 -51 -113 -51q-84 0 -136.5 66t-52.5 200t52.5 200t136.5 66q86 0 127 -72q4 33 5 58h135zM309 130.5
q20 31.5 20 100.5q0 68 -20 100.5t-52 32.5q-34 0 -53.5 -33.5t-19.5 -99.5t19.5 -99t53.5 -33q32 0 52 31.5z" />
    <glyph glyph-name="uni01E9" unicode="&#x1e9;" horiz-adv-x="518" 
d="M84 919l41 -54l40 54h126l-117 -144h-97l-119 144h126zM514 -34h-181l-77 173l-53 -72v-101h-155v761h155v-257q0 -73 -0.5 -128.5t-3.5 -91.5q13 33 63 115l70 118h170l-144 -199z" />
    <glyph glyph-name="uni01EF" unicode="&#x1ef;" horiz-adv-x="443" 
d="M169 716l39 -65l39 65h126l-116 -170h-96l-117 170h125zM267 207q76 -14 118 -67.5t42 -142.5q0 -80 -33 -134t-87 -80.5t-118 -26.5q-82 0 -139 39.5t-78 121.5l124 67q23 -100 93 -100q38 0 58 26.5t20 72.5q0 53 -30.5 80.5t-79.5 27.5q-30 0 -57 -8v115l121 161h-208
v125h393v-109z" />
    <glyph glyph-name="uni01F0" unicode="&#x1f0;" horiz-adv-x="250" 
d="M87 715l40 -65l39 65h125l-116 -170h-96l-117 170h125zM-65 -229.5q-33 14.5 -47 37.5l71 117q17 -20 43 -20q28 0 38 22.5t10 76.5v479h155v-497q0 -114 -53.5 -172t-137.5 -58q-46 0 -79 14.5z" />
    <glyph glyph-name="uni01F9" unicode="&#x1f9;" 
d="M112 715h151l68 -170h-115zM435.5 446q38.5 -51 38.5 -159v-321h-154v263q0 60 -12.5 88t-43.5 28q-30 0 -45.5 -27.5t-15.5 -93.5v-258h-155v518h137l2 -20q2 -37 5 -52q41 85 135 85q70 0 108.5 -51z" />
    <glyph glyph-name="Aringacute" unicode="&#x1fa;" horiz-adv-x="662" 
d="M266 884l68 81h152l-105 -81h-115zM246 842q34 19 83 19t81 -19t32 -48q0 -30 -32 -49t-81 -19t-83 19t-34 49q0 29 34 48zM299.5 779q11.5 -6 29.5 -6q17 0 27.5 6t10.5 15t-10 14t-28 5q-19 0 -30 -5t-11 -14t11.5 -15zM404 698l247 -732h-174l-45 151h-214l-43 -151
h-163l239 732h153zM391 259l-67 232l-67 -232h134z" />
    <glyph glyph-name="aringacute" unicode="&#x1fb;" horiz-adv-x="477" 
d="M244 936h151l-104 -137h-115zM155 563.5q-34 32.5 -34 82.5t34 82t83 32q50 0 82 -32t32 -82q0 -51 -32 -83t-82 -32q-49 0 -83 32.5zM208.5 676.5q-11.5 -11.5 -11.5 -30.5q0 -18 11.5 -30.5t29.5 -12.5q17 0 28 12.5t11 30.5q0 19 -11 30.5t-28 11.5q-18 0 -29.5 -11.5
zM386 443.5q49 -53.5 49 -156.5v-321h-128q-1 18 -7 59q-37 -72 -118 -72q-65 0 -109.5 39.5t-44.5 120.5q0 58 25.5 98.5t68 60.5t92.5 20q37 0 70 -10q-3 46 -17 64t-38 18q-26 0 -41.5 -15.5t-26.5 -42.5l-111 69q25 58 74.5 90t120.5 32q92 0 141 -53.5zM284 170
q-20 6 -38 6q-28 0 -46 -14.5t-18 -39.5q0 -22 11.5 -32.5t31.5 -10.5q26 0 42.5 20.5t16.5 61.5v9z" />
    <glyph glyph-name="AEacute" unicode="&#x1fc;" horiz-adv-x="876" 
d="M512 761l68 156h152l-105 -156h-115zM812 265h-219v-157h253v-142h-410v153h-182l-78 -153h-164l379 732h446v-142h-244v-150h219v-141zM436 258v217l-110 -217h110z" />
    <glyph glyph-name="aeacute" unicode="&#x1fd;" horiz-adv-x="723" 
d="M369 727h151l-105 -170h-115zM651 434.5q53 -62.5 53 -178.5q0 -35 -6 -76h-258q9 -94 73 -94q46 0 64 52l112 -64q-20 -61 -69 -91t-109 -30q-49 0 -90.5 21.5t-68.5 66.5q-22 -43 -58 -65.5t-91 -22.5q-72 0 -123.5 40t-51.5 122q0 57 25.5 97t67.5 60t91 20
q35 0 73 -11q-1 83 -56 83q-46 0 -67 -59l-111 69q53 123 181 123q90 0 136 -68q29 35 67 51.5t79 16.5q84 0 137 -62.5zM553 291q-3 78 -52 78q-24 0 -40 -19.5t-21 -58.5h113zM285 170q-21 6 -39 6q-29 0 -46.5 -14.5t-17.5 -41.5q0 -23 12.5 -34.5t32.5 -11.5q26 0 42 20
t16 61v15z" />
    <glyph glyph-name="Oslashacute" unicode="&#x1fe;" horiz-adv-x="648" 
d="M271 761l68 156h152l-105 -156h-115zM482 734h131l-72 -128q73 -101 73 -273q0 -128 -38 -213t-103.5 -126t-148.5 -41q-71 0 -130 30l-30 -52h-130l71 128q-71 98 -71 274q0 127 38 212t103.5 126t148.5 41q72 0 129 -30zM204 236l174 311q-21 14 -53 14
q-60 0 -94.5 -54.5t-34.5 -173.5q0 -61 8 -97zM443 431l-174 -312q23 -16 56 -16q127 0 127 230q0 58 -9 98z" />
    <glyph glyph-name="oslashacute" unicode="&#x1ff;" horiz-adv-x="502" 
d="M187 545l68 170h151l-104 -170h-115zM366 519h111l-56 -97q56 -71 56 -197q0 -140 -64 -206t-161 -66q-49 0 -93 18l-23 -40h-111l57 98q-57 70 -57 196q0 95 31.5 156t82.5 88.5t113 27.5q51 0 91 -17zM168 177l107 186q-12 5 -23 5q-37 0 -62.5 -35t-25.5 -108
q0 -29 4 -48zM333 272l-107 -184q10 -5 26 -5q36 0 60.5 35t24.5 107q0 28 -4 47z" />
    <glyph glyph-name="uni0218" unicode="&#x218;" horiz-adv-x="504" 
d="M451 49.5q-33 -50.5 -86.5 -73.5t-115.5 -23q-91 0 -156 46t-85 136l141 74q32 -110 107 -110q28 0 44.5 15.5t16.5 44.5q0 38 -27.5 60.5t-84.5 49.5q-55 25 -90.5 48.5t-61 66.5t-25.5 109q0 75 33 124t86 72t116 23q83 0 140 -41.5t75 -117.5l-141 -74q-24 87 -83 87
q-26 0 -43 -16.5t-17 -45.5q0 -35 26 -55.5t83 -46.5q56 -25 92.5 -49t62.5 -67t26 -110q0 -76 -33 -126.5zM314.5 -86q26.5 -19 26.5 -57q0 -47 -44.5 -73.5t-127.5 -27.5v50q64 3 78 25h-4q-38 1 -60.5 13.5t-22.5 35.5q0 24 23.5 38.5t60.5 14.5q44 0 70.5 -19z" />
    <glyph glyph-name="uni0219" unicode="&#x219;" horiz-adv-x="394" 
d="M332.5 -2.5q-51.5 -44.5 -136.5 -44.5q-72 0 -123.5 34t-69.5 100l115 65q25 -65 74 -65q18 0 26 7t8 19q0 16 -15.5 27t-49.5 27q-40 19 -67.5 37t-47.5 49.5t-20 78.5q0 77 52.5 121t134.5 44q71 0 113.5 -34.5t52.5 -86.5l-113 -63q-7 26 -21.5 38.5t-32.5 12.5
q-14 0 -21.5 -7.5t-7.5 -19.5q0 -18 16 -29.5t51 -27.5q41 -19 67.5 -36.5t46.5 -49t20 -78.5q0 -74 -51.5 -118.5zM261 -82.5q27 -19.5 27 -58.5q0 -47 -44.5 -74.5t-128.5 -28.5v51q66 5 79 26h-5q-38 1 -60 13.5t-22 36.5t23.5 39t59.5 15q44 0 71 -19.5z" />
    <glyph glyph-name="uni021A" unicode="&#x21a;" horiz-adv-x="531" 
d="M11 698h509v-145h-174v-587h-162v587h-173v145zM333 -83.5q27 -19.5 27 -57.5q0 -47 -44.5 -74.5t-128.5 -28.5v51q63 3 79 26h-5q-38 1 -60 13t-22 36t23.5 39t59.5 15q44 0 71 -19.5z" />
    <glyph glyph-name="uni021B" unicode="&#x21b;" horiz-adv-x="397" 
d="M401 5q-52 -52 -144 -52q-76 0 -125.5 42.5t-49.5 157.5v198h-77v133h77v161h155v-161h130v-133h-130v-155q0 -52 11.5 -73t38.5 -21q29 0 56 24zM314.5 -83.5q26.5 -19.5 26.5 -57.5q0 -47 -44.5 -74.5t-127.5 -28.5v51q64 3 78 26h-4q-38 1 -60.5 13t-22.5 36t23.5 39
t60.5 15q44 0 70.5 -19.5z" />
    <glyph glyph-name="uni021F" unicode="&#x21f;" 
d="M84 919l40 -54l41 54h126l-118 -144h-97l-118 144h126zM435.5 446q38.5 -51 38.5 -159v-321h-154v263q0 60 -12.5 88t-43.5 28q-30 0 -45.5 -27.5t-15.5 -93.5v-258h-155v761h155v-295q41 65 124 65q70 0 108.5 -51z" />
    <glyph glyph-name="uni0237" unicode="&#x237;" horiz-adv-x="250" 
d="M-65 -229.5q-33 14.5 -47 37.5l71 117q17 -20 43 -20q28 0 38 22.5t10 76.5v479h155v-497q0 -114 -53.5 -172t-137.5 -58q-46 0 -79 14.5z" />
    <glyph glyph-name="uni0251" unicode="&#x251;" horiz-adv-x="532" 
d="M484 483v-517h-137l-2 20q0 22 -4 42q-40 -75 -127 -75q-84 0 -136.5 67.5t-52.5 204.5t52.5 204.5t136.5 67.5q87 0 128 -75q2 13 2.5 22t0.5 15l2 24h137zM309 123q20 32 20 102t-20 103t-52 33q-34 0 -53.5 -34.5t-19.5 -101.5t19.5 -100.5t53.5 -33.5q32 0 52 32z
" />
    <glyph glyph-name="uni0259" unicode="&#x259;" horiz-adv-x="464" 
d="M378.5 431q60.5 -66 60.5 -208q0 -94 -31.5 -154.5t-81.5 -88t-109 -27.5q-90 0 -144 61.5t-54 178.5q0 36 6 76h259q-4 95 -64 95q-49 0 -74 -61l-112 73q26 62 78 91.5t115 29.5q91 0 151.5 -66zM263 99.5q15 18.5 21 57.5h-114q2 -40 16.5 -58t35.5 -18q26 0 41 18.5z
" />
    <glyph glyph-name="uni0261" unicode="&#x261;" horiz-adv-x="516" 
d="M481 483v-449q0 -146 -69 -212t-172 -66q-79 0 -132 31t-76 93l115 74q25 -59 89 -59q45 0 66 27t25 94q-41 -51 -113 -51q-84 0 -136.5 66t-52.5 200t52.5 200t136.5 66q86 0 127 -72q4 33 5 58h135zM309 130.5q20 31.5 20 100.5q0 68 -20 100.5t-52 32.5
q-34 0 -53.5 -33.5t-19.5 -99.5t19.5 -99t53.5 -33q32 0 52 31.5z" />
    <glyph glyph-name="uni0292" unicode="&#x292;" horiz-adv-x="443" 
d="M267 207q76 -14 118 -67.5t42 -142.5q0 -80 -33 -134t-87 -80.5t-118 -26.5q-82 0 -139 39.5t-78 121.5l124 67q23 -100 93 -100q38 0 58 26.5t20 72.5q0 53 -30.5 80.5t-79.5 27.5q-30 0 -57 -8v115l121 161h-208v125h393v-109z" />
    <glyph glyph-name="uni02BB" unicode="&#x2bb;" horiz-adv-x="273" 
d="M64 448q-31 35 -31 102q0 62 27.5 114.5t74.5 87t104 43.5v-85q-47 -10 -75 -36t-33 -67h4q39 0 66 -28.5t27 -68.5t-25.5 -68.5t-63.5 -28.5q-44 0 -75 35z" />
    <glyph glyph-name="circumflex" unicode="&#x2c6;" horiz-adv-x="434" 
d="M170 715h96l115 -170h-125l-39 65l-39 -65h-125z" />
    <glyph glyph-name="caron" unicode="&#x2c7;" horiz-adv-x="434" 
d="M178 715l39 -65l39 65h125l-115 -170h-96l-117 170h125z" />
    <glyph glyph-name="breve" unicode="&#x2d8;" horiz-adv-x="435" 
d="M99.5 590.5q-42.5 45.5 -42.5 124.5h122q2 -74 38 -74q18 0 28 19.5t11 54.5h122q0 -79 -43 -124.5t-118 -45.5t-117.5 45.5z" />
    <glyph glyph-name="dotaccent" unicode="&#x2d9;" horiz-adv-x="272" 
d="M68.5 566.5q-27.5 28.5 -27.5 67.5q0 40 27.5 68.5t66.5 28.5q38 0 66.5 -28.5t28.5 -68.5q0 -39 -28 -67.5t-67 -28.5t-66.5 28.5z" />
    <glyph glyph-name="ring" unicode="&#x2da;" horiz-adv-x="354" 
d="M88.5 746q36.5 35 90.5 35q53 0 88 -35t35 -89q0 -55 -34.5 -90t-88.5 -35t-90.5 35t-36.5 90q0 54 36.5 89zM147 624q12 -13 32 -13q19 0 30.5 13t11.5 33t-11.5 33t-30.5 13q-20 0 -32 -13t-12 -33t12 -33z" />
    <glyph glyph-name="ogonek" unicode="&#x2db;" horiz-adv-x="324" 
d="M257 -190q-25 -27 -56.5 -40.5t-66.5 -13.5q-49 0 -85.5 24t-36.5 77q0 47 32 89.5t96 77.5l61 -50q-79 -56 -79 -103q0 -16 9.5 -25t25.5 -9q12 0 22.5 5.5t25.5 19.5z" />
    <glyph glyph-name="tilde" unicode="&#x2dc;" horiz-adv-x="453" 
d="M62 558q3 70 30 110t74 40q23 0 39 -9.5t38 -27.5q22 -20 32 -20q22 0 25 50h91q-3 -70 -30 -109.5t-74 -39.5q-23 0 -40.5 10t-35.5 26q-9 8 -17.5 14t-15.5 6q-20 0 -25 -50h-91z" />
    <glyph glyph-name="hungarumlaut" unicode="&#x2dd;" horiz-adv-x="491" 
d="M53 545l68 170h139l-104 -170h-103zM231 545l68 170h139l-104 -170h-103z" />
    <glyph glyph-name="dotbelowcomb" unicode="&#x323;" horiz-adv-x="0" 
d="M-214.5 -219q-27.5 23 -27.5 55t27.5 55t66.5 23q38 0 66.5 -23t28.5 -55t-28 -55t-67 -23t-66.5 23z" />
    <glyph glyph-name="uni0326" unicode="&#x326;" horiz-adv-x="0" 
d="M-79 -83.5q27 -19.5 27 -57.5q0 -47 -44.5 -74.5t-128.5 -28.5v51q63 3 79 26h-5q-38 1 -60 13t-22 36t23.5 39t59.5 15q44 0 71 -19.5z" />
    <glyph glyph-name="uni0338" unicode="&#x338;" horiz-adv-x="0" 
d="M-477 -231l319 929h152l-320 -929h-151z" />
    <glyph glyph-name="tonos" unicode="&#x384;" horiz-adv-x="396" 
d="M65 545l49 170h149l-86 -170h-112z" />
    <glyph glyph-name="dieresistonos" unicode="&#x385;" horiz-adv-x="584" 
d="M232 545l31 170h122l-61 -170h-92zM95.5 575.5q-21.5 22.5 -21.5 54.5t21.5 54t52.5 22t53 -22t22 -54t-22 -54.5t-53 -22.5t-52.5 22.5zM403 576q-22 23 -22 54q0 32 22 54t53 22q30 0 52 -22.5t22 -53.5t-22 -54t-52 -23q-31 0 -53 23z" />
    <glyph glyph-name="Alphatonos" unicode="&#x386;" horiz-adv-x="662" 
d="M404 698l247 -732h-174l-45 151h-214l-43 -151h-163l239 732h153zM35 528l27 170h136l-63 -170h-100zM391 259l-67 232l-67 -232h134z" />
    <glyph glyph-name="Epsilontonos" unicode="&#x388;" horiz-adv-x="637" 
d="M-3 528l28 170h135l-63 -170h-100zM573 265h-219v-157h253v-142h-414v732h405v-142h-244v-150h219v-141z" />
    <glyph glyph-name="Etatonos" unicode="&#x389;" horiz-adv-x="790" 
d="M-3 528l28 170h135l-63 -170h-100zM354 418h215v280h161v-732h-161v306h-215v-306h-161v732h161v-280z" />
    <glyph glyph-name="Iotatonos" unicode="&#x38a;" horiz-adv-x="414" 
d="M-3 528l28 170h135l-63 -170h-100zM354 -34h-161v732h161v-732z" />
    <glyph glyph-name="Omicrontonos" unicode="&#x38c;" horiz-adv-x="736" 
d="M158 545q37 85 102.5 126t151.5 41q85 0 150.5 -41t102.5 -126t37 -212q0 -128 -37 -213.5t-102 -126t-151 -40.5q-132 0 -211.5 94.5t-79.5 285.5q0 127 37 212zM-2 528l28 170h135l-63 -170h-100zM323.5 159q31.5 -56 89.5 -56t88 55.5t30 174.5q0 118 -30 173.5
t-88 55.5q-121 0 -121 -229q0 -118 31.5 -174z" />
    <glyph glyph-name="Upsilontonos" unicode="&#x38e;" horiz-adv-x="731" 
d="M442 414l114 284h171l-208 -454v-278h-161v278l-210 442l-60 -158h-99l27 170h311z" />
    <glyph glyph-name="Omegatonos" unicode="&#x38f;" horiz-adv-x="729" 
d="M714 105v-139h-269v155q42 33 63.5 94t21.5 142q0 101 -33 151.5t-91 50.5t-91 -50.5t-33 -151.5q0 -82 21.5 -142t63.5 -94v-155h-269v139h112q-96 103 -96 265q0 113 39 190t105 114.5t148 37.5t148 -37.5t105 -114.5t39 -190q0 -162 -96 -265h112zM-7 528l28 170h135
l-63 -170h-100z" />
    <glyph glyph-name="iotadieresistonos" unicode="&#x390;" horiz-adv-x="283" 
d="M53 545l31 170h122l-61 -170h-92zM-83.5 575.5q-21.5 22.5 -21.5 54.5t21.5 54t52.5 22t53 -22t22 -54t-22 -54.5t-53 -22.5t-52.5 22.5zM224 576q-22 23 -22 54q0 32 22 54t53 22q30 0 52 -22.5t22 -53.5t-22 -54t-52 -23q-31 0 -53 23zM286 -24q-23 -11 -51.5 -17
t-55.5 -6q-77 0 -110.5 44t-33.5 125v361h153v-328q0 -31 9 -45.5t29 -14.5q19 0 42 11z" />
    <glyph glyph-name="Alpha" unicode="&#x391;" horiz-adv-x="662" 
d="M404 698l247 -732h-174l-45 151h-214l-43 -151h-163l239 732h153zM391 259l-67 232l-67 -232h134z" />
    <glyph glyph-name="Beta" unicode="&#x392;" horiz-adv-x="581" 
d="M548 178q0 -98 -63 -155t-167 -57h-259v732h241q95 0 155.5 -52t60.5 -149q0 -101 -69 -150q101 -48 101 -169zM217 558v-153h59q35 0 54.5 20t19.5 58q0 37 -19 56t-55 19h-59zM302 107q37 0 57.5 21t20.5 62q0 39 -21 59.5t-58 20.5h-84v-163h85z" />
    <glyph glyph-name="Gamma" unicode="&#x393;" horiz-adv-x="472" 
d="M59 698h405v-147h-245v-585h-160v732z" />
    <glyph glyph-name="uni0394" unicode="&#x394;" horiz-adv-x="634" 
d="M246 698h153l217 -644v-88h-598v88zM197 111h234l-111 367z" />
    <glyph glyph-name="Epsilon" unicode="&#x395;" horiz-adv-x="504" 
d="M439 265h-218v-157h253v-142h-415v732h405v-142h-243v-150h218v-141z" />
    <glyph glyph-name="Zeta" unicode="&#x396;" horiz-adv-x="500" 
d="M469 698v-106l-258 -480h270v-146h-466v107l259 480h-234v145h429z" />
    <glyph glyph-name="Eta" unicode="&#x397;" horiz-adv-x="657" 
d="M221 418h214v280h162v-732h-162v306h-214v-306h-162v732h162v-280z" />
    <glyph glyph-name="Theta" unicode="&#x398;" horiz-adv-x="685" 
d="M74.5 542q40.5 85 110 127.5t158.5 42.5q88 0 157.5 -42.5t110 -127.5t40.5 -209q0 -125 -40 -210.5t-110 -127.5t-158 -42q-89 0 -158.5 42t-110 127.5t-40.5 210.5q0 124 40.5 209zM239.5 162.5q38.5 -57.5 103.5 -57.5q64 0 102 57.5t38 170.5t-38 169.5t-102 56.5
q-65 0 -103.5 -56.5t-38.5 -169.5t38.5 -170.5zM422 263h-159v146h159v-146z" />
    <glyph glyph-name="Iota" unicode="&#x399;" horiz-adv-x="281" 
d="M221 -34h-162v732h162v-732z" />
    <glyph glyph-name="Kappa" unicode="&#x39a;" horiz-adv-x="650" 
d="M644 -34h-194l-149 299l-80 -108v-191h-162v732h162v-212q0 -80 -6 -123q15 30 67 108l13 19l143 208h183l-212 -286z" />
    <glyph glyph-name="Lambda" unicode="&#x39b;" horiz-adv-x="639" 
d="M448 -34l-136 503l-131 -503h-169l225 732h161l230 -732h-180z" />
    <glyph glyph-name="Mu" unicode="&#x39c;" horiz-adv-x="728" 
d="M548 698h120v-732h-153v400l-112 -203h-80l-112 204v-401h-152v732h123l183 -345z" />
    <glyph glyph-name="Nu" unicode="&#x39d;" horiz-adv-x="638" 
d="M191 698l240 -422v422h147v-732h-131l-240 422v-422h-148v732h132z" />
    <glyph glyph-name="Xi" unicode="&#x39e;" horiz-adv-x="550" 
d="M508 550h-467v148h467v-148zM473 261h-397v149h397v-149zM508 -34h-467v149h467v-149z" />
    <glyph glyph-name="Omicron" unicode="&#x39f;" horiz-adv-x="648" 
d="M71 545.5q37 84.5 102 125.5t151 41q85 0 150.5 -41t102.5 -126t37 -212q0 -128 -37 -213.5t-102 -126t-151 -40.5q-132 0 -211 94.5t-79 285.5q0 128 37 212.5zM235.5 159q31.5 -56 89.5 -56t88 55.5t30 174.5q0 118 -30 173.5t-88 55.5q-121 0 -121 -229
q0 -118 31.5 -174z" />
    <glyph glyph-name="Pi" unicode="&#x3a0;" horiz-adv-x="664" 
d="M59 698h545v-732h-161v584h-224v-584h-160v732z" />
    <glyph glyph-name="Rho" unicode="&#x3a1;" horiz-adv-x="559" 
d="M282 698q79 0 137 -30t88.5 -85t30.5 -129q0 -112 -68.5 -177.5t-187.5 -65.5h-61v-245h-162v732h223zM268 350q43 0 71.5 25t28.5 79t-28 79t-72 25h-47v-208h47z" />
    <glyph glyph-name="Sigma" unicode="&#x3a3;" horiz-adv-x="497" 
d="M228 550l161 -213l-173 -222h265v-149h-463v133l187 236l-174 231v132h433v-148h-236z" />
    <glyph glyph-name="Tau" unicode="&#x3a4;" horiz-adv-x="531" 
d="M11 698h509v-145h-174v-587h-162v587h-173v145z" />
    <glyph glyph-name="Upsilon" unicode="&#x3a5;" horiz-adv-x="593" 
d="M304 414l114 284h171l-208 -454v-278h-161v278l-216 454h185z" />
    <glyph glyph-name="Phi" unicode="&#x3a6;" horiz-adv-x="730" 
d="M634 136.5q-74 -74.5 -191 -93.5v-77h-155v77q-118 18 -192.5 93t-74.5 197t74.5 196t192.5 93v76h155v-76q117 -19 191 -93.5t74 -195.5q0 -122 -74 -196.5zM443 190q104 29 105 143q-1 59 -28 94.5t-77 48.5v-286zM288 190v285q-51 -13 -79 -48.5t-29 -93.5
q1 -116 108 -143z" />
    <glyph glyph-name="Chi" unicode="&#x3a7;" horiz-adv-x="633" 
d="M614 698l-211 -355l224 -377h-200l-116 221l-120 -221h-185l223 371l-210 361h195l107 -204l107 204h186z" />
    <glyph glyph-name="Psi" unicode="&#x3a8;" horiz-adv-x="750" 
d="M559 698h159v-239q0 -288 -265 -324v-169h-157v169q-263 36 -263 324v239h158v-208q0 -98 25 -144t80 -59v411h157v-412q55 13 80.5 59.5t25.5 144.5v208z" />
    <glyph glyph-name="uni03A9" unicode="&#x3a9;" horiz-adv-x="646" 
d="M631 105v-139h-269v155q42 33 63.5 94t21.5 142q0 101 -33 151.5t-91 50.5t-91 -50.5t-33 -151.5q0 -82 21.5 -142t62.5 -94v-155h-268v139h112q-96 103 -96 265q0 113 39 190t105 114.5t148 37.5t148 -37.5t105 -114.5t39 -190q0 -162 -96 -265h112z" />
    <glyph glyph-name="Iotadieresis" unicode="&#x3aa;" horiz-adv-x="281" 
d="M-14 780.5q-24 25.5 -24 60.5t24 60t58 25q36 0 60 -25t24 -60q0 -36 -24 -61t-60 -25q-34 0 -58 25.5zM176 780.5q-24 25.5 -24 60.5t24 60t59 25q34 0 58.5 -25t24.5 -60t-24.5 -60.5t-58.5 -25.5q-35 0 -59 25.5zM221 -34h-162v732h162v-732z" />
    <glyph glyph-name="Upsilondieresis" unicode="&#x3ab;" horiz-adv-x="593" 
d="M148.5 780.5q-23.5 25.5 -23.5 60.5t23.5 60t57.5 25q36 0 60.5 -25t24.5 -60q0 -36 -24.5 -61t-60.5 -25q-34 0 -57.5 25.5zM338.5 780.5q-23.5 25.5 -23.5 60.5t23.5 60t58.5 25t59.5 -25t24.5 -60t-24.5 -60.5t-59.5 -25.5t-58.5 25.5zM304 414l114 284h171l-208 -454
v-278h-161v278l-216 454h185z" />
    <glyph glyph-name="alphatonos" unicode="&#x3ac;" horiz-adv-x="552" 
d="M236 715h148l-85 -170h-113zM551 -25q-36 -22 -92 -22q-87 0 -116 78q-20 -40 -53.5 -59t-75.5 -19q-84 0 -136.5 67.5t-52.5 204.5t52.5 204.5t136.5 67.5q87 0 127 -75q5 31 6 61h135v-334q0 -57 27 -57q13 0 25 6zM309 123q20 32 20 102t-20 103t-52 33
q-34 0 -53.5 -34.5t-19.5 -101.5t19.5 -100.5t53.5 -33.5q32 0 52 32z" />
    <glyph glyph-name="epsilontonos" unicode="&#x3ad;" horiz-adv-x="417" 
d="M162 545l49 170h149l-86 -170h-112zM429 77q-52 -124 -204 -124q-94 0 -148 37t-54 115q0 50 27.5 84t79.5 48q-45 16 -69 46t-24 72q0 69 51 105.5t136 36.5q140 0 192 -103l-118 -72q-23 48 -63 48q-20 0 -30.5 -11t-10.5 -29q0 -19 13 -28.5t43 -9.5h45v-126h-52
q-62 0 -62 -42q0 -22 14 -32.5t35 -10.5q29 0 48 15.5t32 46.5z" />
    <glyph glyph-name="etatonos" unicode="&#x3ae;" horiz-adv-x="536" 
d="M271 715h148l-85 -170h-113zM455.5 445.5q38.5 -51.5 38.5 -158.5v-518h-156v460q0 60 -12.5 88t-42.5 28t-45.5 -27.5t-15.5 -93.5v-258h-152v344q0 30 -6.5 42t-19.5 12q-16 0 -27 -6l-16 118q38 21 92 21q94 0 118 -85q43 85 136 85q70 0 108.5 -51.5z" />
    <glyph glyph-name="iotatonos" unicode="&#x3af;" horiz-adv-x="283" 
d="M50 545l49 170h149l-86 -170h-112zM286 -24q-23 -11 -51.5 -17t-55.5 -6q-77 0 -110.5 44t-33.5 125v361h153v-328q0 -31 9 -45.5t29 -14.5q19 0 42 11z" />
    <glyph glyph-name="upsilondieresistonos" unicode="&#x3b0;" horiz-adv-x="501" 
d="M192 545l31 170h122l-61 -170h-92zM55.5 575.5q-21.5 22.5 -21.5 54.5t21.5 54t52.5 22t53 -22t22 -54t-22 -54.5t-53 -22.5t-52.5 22.5zM363 576q-22 23 -22 54q0 32 22 54t53 22q30 0 52 -22.5t22 -53.5t-22 -54t-52 -23q-31 0 -53 23zM38 483h153v-255
q0 -69 10.5 -101t49.5 -32q38 0 52.5 35.5t14.5 117.5q0 102 -35 235h158q36 -105 36 -230q0 -136 -55.5 -218t-181.5 -82q-202 0 -202 240v290z" />
    <glyph glyph-name="alpha" unicode="&#x3b1;" horiz-adv-x="552" 
d="M551 -25q-36 -22 -92 -22q-87 0 -116 78q-20 -40 -53.5 -59t-75.5 -19q-84 0 -136.5 67.5t-52.5 204.5t52.5 204.5t136.5 67.5q87 0 127 -75q5 31 6 61h135v-334q0 -57 27 -57q13 0 25 6zM309 123q20 32 20 102t-20 103t-52 33q-34 0 -53.5 -34.5t-19.5 -101.5
t19.5 -100.5t53.5 -33.5q32 0 52 32z" />
    <glyph glyph-name="beta" unicode="&#x3b2;" horiz-adv-x="539" 
d="M492.5 288q31.5 -45 31.5 -119q0 -105 -55.5 -160.5t-143.5 -55.5q-82 0 -128 39v-223h-153v676q0 146 62.5 220t171.5 74q95 0 152.5 -57t57.5 -155q0 -58 -20.5 -101.5t-58.5 -70.5q52 -22 83.5 -67zM345 114q21 22 21 65q0 52 -28.5 78t-76.5 26h-22v133h15
q76 0 76 94q0 44 -16.5 66t-45.5 22q-36 0 -53.5 -37t-17.5 -130v-223q0 -116 93 -116q34 0 55 22z" />
    <glyph glyph-name="gamma" unicode="&#x3b3;" horiz-adv-x="497" 
d="M433.5 183q-34.5 -103 -111.5 -219v-195h-153v165l-170 549h170l90 -350q57 137 57 251q0 42 -9 99h153q8 -64 8 -98q0 -99 -34.5 -202z" />
    <glyph glyph-name="delta" unicode="&#x3b4;" horiz-adv-x="501" 
d="M392 460q44 -48 64 -103t20 -128q0 -93 -30 -155t-81 -91.5t-113 -29.5q-64 0 -115.5 29.5t-81.5 91t-30 152.5q0 107 45 171.5t119 82.5l-133 140v105h367v-130h-156zM316 226q0 69 -17 102.5t-47 33.5q-68 0 -68 -136t68 -136q64 0 64 136z" />
    <glyph glyph-name="epsilon" unicode="&#x3b5;" horiz-adv-x="417" 
d="M429 77q-52 -124 -204 -124q-94 0 -148 37t-54 115q0 50 27.5 84t79.5 48q-45 16 -69 46t-24 72q0 69 51 105.5t136 36.5q140 0 192 -103l-118 -72q-23 48 -63 48q-20 0 -30.5 -11t-10.5 -29q0 -19 13 -28.5t43 -9.5h45v-126h-52q-62 0 -62 -42q0 -22 14 -32.5t35 -10.5
q29 0 48 15.5t32 46.5z" />
    <glyph glyph-name="zeta" unicode="&#x3b6;" horiz-adv-x="471" 
d="M439 31.5q32 -40.5 32 -100.5q0 -54 -26.5 -93.5t-87.5 -79.5l-82 85q23 20 32 35t9 30q0 26 -21 42.5t-72 34.5q-86 27 -139 79.5t-53 159.5q0 200 206 368h-185v133h392v-111q-141 -103 -198 -191t-57 -170q0 -46 16 -73.5t43.5 -43.5t79.5 -36q79 -28 111 -68.5z" />
    <glyph glyph-name="eta" unicode="&#x3b7;" horiz-adv-x="532" 
d="M451.5 446q38.5 -51 38.5 -159v-518h-155v460q0 60 -12.5 88t-42.5 28t-45.5 -27.5t-15.5 -93.5v-258h-153v344q0 30 -6.5 42t-19.5 12q-17 0 -26 -6l-16 118q16 9 40 15t52 6q92 0 118 -86q41 86 135 86q70 0 108.5 -51z" />
    <glyph glyph-name="theta" unicode="&#x3b8;" horiz-adv-x="504" 
d="M483 347q0 -394 -230 -394q-109 0 -170 92t-61 302q0 392 231 392q230 0 230 -392zM211.5 588q-15.5 -18 -23.5 -58.5t-10 -111.5h148q-3 105 -19.5 146.5t-53.5 41.5q-26 0 -41.5 -18zM294 108q15 19 22.5 63t9.5 120h-148q2 -76 9.5 -119.5t23.5 -63t42 -19.5t41 19z
" />
    <glyph glyph-name="iota" unicode="&#x3b9;" horiz-adv-x="283" 
d="M286 -24q-23 -11 -51.5 -17t-55.5 -6q-77 0 -110.5 44t-33.5 125v361h153v-328q0 -31 9 -45.5t29 -14.5q19 0 42 11z" />
    <glyph glyph-name="kappa" unicode="&#x3ba;" horiz-adv-x="497" 
d="M502 -34h-170l-92 193l-46 -66v-127h-146v517h146v-186l66 105q30 49 65 72t77 23q60 0 90 -33l-46 -107q-15 11 -35 11q-32 0 -60 -42l-20 -29z" />
    <glyph glyph-name="lambda" unicode="&#x3bb;" horiz-adv-x="545" 
d="M558 -24q-47 -23 -103 -23q-65 0 -99.5 33.5t-52.5 103.5l-43 167l-101 -291h-160l202 503l-23 72q-10 33 -24 46.5t-32 13.5q-23 0 -49 -26l-45 113q24 25 58 38t72 13q116 0 152 -127l129 -460q10 -34 23.5 -47t37.5 -13q19 0 41 11z" />
    <glyph glyph-name="uni03BC" unicode="&#x3bc;" horiz-adv-x="551" 
d="M541 -25q-15 -10 -39 -16t-50 -6q-42 0 -71.5 22t-41.5 68q-26 -90 -99 -90q-20 0 -39 8v-192h-153v714h153v-258q0 -68 10 -103.5t45 -35.5q32 0 48 37.5t16 108.5v251h152v-343q0 -30 6.5 -43.5t22.5 -13.5q12 0 24 6z" />
    <glyph glyph-name="nu" unicode="&#x3bd;" horiz-adv-x="491" 
d="M460 483q8 -60 8 -91q0 -99 -40 -202.5t-130 -223.5h-128l-171 517h170l89 -326q30 67 44 123.5t14 110.5q0 38 -9 92h153z" />
    <glyph glyph-name="xi" unicode="&#x3be;" horiz-adv-x="437" 
d="M451 -72q0 -51 -26 -90t-88 -80l-82 85q23 21 32 35t9 32q0 26 -17 42.5t-59 30.5q-101 33 -148 79t-47 122q0 64 33 108.5t94 62.5q-99 33 -99 125q0 43 18.5 70.5t49.5 41.5h-83v125h384v-111q-122 -5 -168 -34.5t-46 -74.5q0 -37 23.5 -58.5t73.5 -21.5h90v-122h-104
q-56 0 -82 -23.5t-26 -63.5q0 -38 26.5 -60t95.5 -46q146 -52 146 -174z" />
    <glyph glyph-name="omicron" unicode="&#x3bf;" horiz-adv-x="502" 
d="M56.5 381q31.5 61 82.5 88.5t113 27.5q97 0 161 -66t64 -206t-64 -206t-161 -66q-62 0 -113 27.5t-82.5 88.5t-31.5 156t31.5 156zM202.5 122.5q18.5 -32.5 49.5 -32.5q30 0 47.5 32.5t17.5 102.5t-17.5 102.5t-47.5 32.5q-31 0 -49.5 -32.5t-18.5 -102.5t18.5 -102.5z
" />
    <glyph glyph-name="pi" unicode="&#x3c0;" horiz-adv-x="566" 
d="M560 -24q-22 -11 -50.5 -17t-55.5 -6q-76 0 -110 43t-34 126v228h-76v-386l-152 2v384h-80v133h542v-133h-81v-195q0 -31 9 -45.5t29 -14.5q17 0 42 11z" />
    <glyph glyph-name="rho" unicode="&#x3c1;" horiz-adv-x="515" 
d="M432.5 429q57.5 -68 57.5 -204q0 -137 -54.5 -204.5t-139.5 -67.5q-60 0 -99 33v-217h-153v440q0 150 61 219t167 69q103 0 160.5 -68zM330 225q0 69 -17 102.5t-48 33.5q-32 0 -50 -33t-18 -103q0 -130 68 -130q65 0 65 130z" />
    <glyph glyph-name="uni03C2" unicode="&#x3c2;" horiz-adv-x="424" 
d="M383.5 24q28.5 -37 28.5 -94q0 -53 -30.5 -100t-83.5 -72l-83 85q24 20 32.5 35t8.5 35q0 22 -12.5 38.5t-51.5 33.5q-75 32 -121 87t-46 163q0 93 33 151.5t85.5 84.5t111.5 26q62 0 109 -29.5t64 -97.5l-117 -61q-17 58 -61 58q-32 0 -49.5 -33t-17.5 -94q0 -62 21 -93
t78 -55q73 -31 101.5 -68z" />
    <glyph glyph-name="sigma" unicode="&#x3c3;" horiz-adv-x="531" 
d="M528 483v-133h-85q34 -60 34 -140q0 -85 -31 -143t-82 -86t-112 -28q-62 0 -113.5 28.5t-82.5 88t-31 148.5q0 133 69.5 199t185.5 66h248zM299.5 122q17.5 30 17.5 96q0 67 -17.5 97t-47.5 30q-68 0 -68 -127q0 -126 68 -126q30 0 47.5 30z" />
    <glyph glyph-name="tau" unicode="&#x3c4;" horiz-adv-x="429" 
d="M424 483v-133h-146v-195q0 -31 9 -45.5t29 -14.5q19 0 42 11l17 -130q-20 -11 -49 -17t-57 -6q-76 0 -110 43t-34 126v228h-122v133h421z" />
    <glyph glyph-name="upsilon" unicode="&#x3c5;" horiz-adv-x="501" 
d="M38 483h153v-255q0 -69 10.5 -101t49.5 -32q38 0 52.5 35.5t14.5 117.5q0 102 -35 235h158q36 -105 36 -230q0 -136 -55.5 -218t-181.5 -82q-202 0 -202 240v290z" />
    <glyph glyph-name="phi" unicode="&#x3c6;" horiz-adv-x="678" 
d="M586 44q-67 -67 -174 -85v-190h-146v190q-107 18 -174 85.5t-67 180.5t67.5 180.5t174.5 85.5v175h146v-175q106 -18 173 -85.5t67 -180.5q0 -114 -67 -181zM266 98l1 255q-90 -26 -90 -128q0 -101 89 -127zM412 98q88 25 88 127q0 101 -87 128z" />
    <glyph glyph-name="chi" unicode="&#x3c7;" horiz-adv-x="497" 
d="M249 288l84 195h159l-172 -352l172 -362h-159l-84 202l-85 -202h-159l173 361l-173 353h159z" />
    <glyph glyph-name="psi" unicode="&#x3c8;" horiz-adv-x="665" 
d="M623 108.5q-19 -59.5 -70.5 -100t-145.5 -51.5v-188h-146v189q-124 15 -173.5 86.5t-49.5 200.5v238h151v-216q0 -77 14.5 -114t57.5 -51l1 564h146l-1 -567q45 12 62.5 48t17.5 112q0 103 -39 224h155q39 -105 39 -234q0 -81 -19 -140.5z" />
    <glyph glyph-name="omega" unicode="&#x3c9;" horiz-adv-x="675" 
d="M569 483q81 -125 81 -282q0 -120 -45 -184t-129 -64q-97 0 -139 86q-42 -86 -137 -86q-84 0 -129.5 63.5t-45.5 184.5q0 158 80 282h151q-80 -130 -80 -274q0 -60 11 -90t37 -30q22 0 31.5 26t9.5 93v134h145v-134q0 -66 9.5 -92.5t31.5 -26.5q26 0 37 29.5t11 90.5
q0 145 -80 274h150z" />
    <glyph glyph-name="iotadieresis" unicode="&#x3ca;" horiz-adv-x="283" 
d="M-51 569.5q-24 25.5 -24 60.5t24 60t58 25q36 0 60 -25t24 -60t-24.5 -60.5t-59.5 -25.5q-34 0 -58 25.5zM157 569.5q-24 25.5 -24 60.5t24 60t59 25q34 0 59 -25t25 -60t-25 -60.5t-59 -25.5q-35 0 -59 25.5zM286 -24q-23 -11 -51.5 -17t-55.5 -6q-77 0 -110.5 44
t-33.5 125v361h153v-328q0 -31 9 -45.5t29 -14.5q19 0 42 11z" />
    <glyph glyph-name="upsilondieresis" unicode="&#x3cb;" horiz-adv-x="501" 
d="M88 569.5q-24 25.5 -24 60.5t24 60t58 25q36 0 60.5 -25t24.5 -60t-24.5 -60.5t-60.5 -25.5q-34 0 -58 25.5zM296.5 569.5q-23.5 25.5 -23.5 60.5t23.5 60t58.5 25q34 0 59 -25t25 -60t-25 -60.5t-59 -25.5q-35 0 -58.5 25.5zM38 483h153v-255q0 -69 10.5 -101t49.5 -32
q38 0 52.5 35.5t14.5 117.5q0 102 -35 235h158q36 -105 36 -230q0 -136 -55.5 -218t-181.5 -82q-202 0 -202 240v290z" />
    <glyph glyph-name="omicrontonos" unicode="&#x3cc;" horiz-adv-x="502" 
d="M190 545l49 170h149l-86 -170h-112zM56.5 381q31.5 61 82.5 88.5t113 27.5q97 0 161 -66t64 -206t-64 -206t-161 -66q-62 0 -113 27.5t-82.5 88.5t-31.5 156t31.5 156zM202.5 122.5q18.5 -32.5 49.5 -32.5q30 0 47.5 32.5t17.5 102.5t-17.5 102.5t-47.5 32.5
q-31 0 -49.5 -32.5t-18.5 -102.5t18.5 -102.5z" />
    <glyph glyph-name="upsilontonos" unicode="&#x3cd;" horiz-adv-x="501" 
d="M189 545l50 170h148l-85 -170h-113zM38 483h153v-255q0 -69 10.5 -101t49.5 -32q38 0 52.5 35.5t14.5 117.5q0 102 -35 235h158q36 -105 36 -230q0 -136 -55.5 -218t-181.5 -82q-202 0 -202 240v290z" />
    <glyph glyph-name="omegatonos" unicode="&#x3ce;" horiz-adv-x="675" 
d="M275 545l50 170h148l-85 -170h-113zM569 483q81 -125 81 -282q0 -120 -45 -184t-129 -64q-97 0 -139 86q-42 -86 -137 -86q-84 0 -129.5 63.5t-45.5 184.5q0 158 80 282h151q-80 -130 -80 -274q0 -60 11 -90t37 -30q22 0 31.5 26t9.5 93v134h145v-134q0 -66 9.5 -92.5
t31.5 -26.5q26 0 37 29.5t11 90.5q0 145 -80 274h150z" />
    <glyph glyph-name="uni03D1" unicode="&#x3d1;" horiz-adv-x="552" 
d="M543 428v-136h-79q-7 -178 -63.5 -258.5t-164.5 -80.5q-85 0 -140.5 47.5t-70.5 129.5l137 58q13 -99 71 -99q41 0 57.5 47.5t19.5 155.5q-144 0 -219 49t-75 166q0 106 58.5 170t159.5 64q100 0 158.5 -74.5t69.5 -238.5h81zM200.5 449.5q30.5 -20.5 108.5 -21.5
q-5 92 -22 135t-55 43q-30 0 -46 -23.5t-16 -63.5q0 -49 30.5 -69.5z" />
    <glyph glyph-name="uni03D2" unicode="&#x3d2;" horiz-adv-x="636" 
d="M631 698v-151h-17q-90 0 -142 -104t-52 -299v-178h-164v177q0 179 -68 317.5t-182 237.5h209q40 -40 74.5 -99t56.5 -125q30 102 99.5 163t156.5 61h29z" />
    <glyph glyph-name="uni03D6" unicode="&#x3d6;" horiz-adv-x="712" 
d="M11 483h690v-123h-74q41 -85 41 -188q0 -109 -44 -164t-127 -55q-100 0 -141 87q-42 -87 -141 -87q-83 0 -127.5 54.5t-44.5 164.5q0 97 41 188h-73v123zM478 360h-244q-40 -82 -40 -167q0 -54 11.5 -79t34.5 -25t33 26t10 93v75h145v-75q0 -68 10.5 -93.5t33.5 -25.5
q46 0 46 104q0 85 -40 167z" />
    <glyph glyph-name="uni0400" unicode="&#x400;" horiz-adv-x="504" 
d="M102 917h151l68 -156h-115zM439 265h-218v-157h253v-142h-415v732h405v-142h-243v-150h218v-141z" />
    <glyph glyph-name="uni0401" unicode="&#x401;" horiz-adv-x="504" 
d="M114 780.5q-24 25.5 -24 60.5t24 60t58 25q36 0 60 -25t24 -60q0 -36 -24 -61t-60 -25q-34 0 -58 25.5zM304 780.5q-24 25.5 -24 60.5t24 60t59 25q34 0 58.5 -25t24.5 -60t-24.5 -60.5t-58.5 -25.5q-35 0 -59 25.5zM439 265h-218v-157h253v-142h-415v732h405v-142h-243
v-150h218v-141z" />
    <glyph glyph-name="uni0402" unicode="&#x402;" horiz-adv-x="773" 
d="M682 360.5q66 -62.5 66 -179.5q0 -110 -61 -169t-170 -59q-22 0 -46 3v142q7 -1 19 -1q41 0 64 22.5t23 61.5q0 40 -23.5 66t-70.5 26q-54 0 -94.5 -37t-40.5 -129v-141h-164v587h-173v145h511v-145h-174v-181q65 51 160 51q108 0 174 -62.5z" />
    <glyph glyph-name="uni0403" unicode="&#x403;" horiz-adv-x="472" 
d="M207 760l68 170h152l-105 -170h-115zM59 698h405v-147h-245v-585h-160v732z" />
    <glyph glyph-name="uni0404" unicode="&#x404;" horiz-adv-x="566" 
d="M416 201l138 -75q-14 -81 -76.5 -127t-155.5 -46q-84 0 -149 41.5t-102 127t-37 211.5t37 211t102 126.5t149 41.5q93 0 155.5 -46t76.5 -127l-138 -75q-20 101 -94 101q-99 0 -115 -159h175v-138h-176q15 -168 116 -168q74 0 94 101z" />
    <glyph glyph-name="uni0405" unicode="&#x405;" horiz-adv-x="504" 
d="M451 49.5q-33 -50.5 -86.5 -73.5t-115.5 -23q-91 0 -156 46t-85 136l141 74q32 -110 107 -110q28 0 44.5 15.5t16.5 44.5q0 38 -27.5 60.5t-84.5 49.5q-55 25 -90.5 48.5t-61 66.5t-25.5 109q0 75 33 124t86 72t116 23q83 0 140 -41.5t75 -117.5l-141 -74q-24 87 -83 87
q-26 0 -43 -16.5t-17 -45.5q0 -35 26 -55.5t83 -46.5q56 -25 92.5 -49t62.5 -67t26 -110q0 -76 -33 -126.5z" />
    <glyph glyph-name="uni0406" unicode="&#x406;" horiz-adv-x="281" 
d="M221 -34h-162v732h162v-732z" />
    <glyph glyph-name="uni0407" unicode="&#x407;" horiz-adv-x="281" 
d="M-14 780.5q-24 25.5 -24 60.5t24 60t58 25q36 0 60 -25t24 -60q0 -36 -24 -61t-60 -25q-34 0 -58 25.5zM176 780.5q-24 25.5 -24 60.5t24 60t59 25q34 0 58.5 -25t24.5 -60t-24.5 -60.5t-58.5 -25.5q-35 0 -59 25.5zM221 -34h-162v732h162v-732z" />
    <glyph glyph-name="uni0408" unicode="&#x408;" horiz-adv-x="480" 
d="M4 113l128 71q10 -43 27 -62t43 -19q34 0 48.5 32.5t14.5 102.5v460h162v-472q0 -144 -60.5 -208.5t-160.5 -64.5q-163 0 -202 160z" />
    <glyph glyph-name="uni0409" unicode="&#x409;" horiz-adv-x="979" 
d="M717 426q110 0 174.5 -61t64.5 -171q0 -109 -64.5 -168.5t-174.5 -59.5h-268v592h-168l-17 -330q-4 -87 -21.5 -144.5t-71 -94t-157.5 -36.5v145q39 0 58.5 15t27 45.5t10.5 89.5l23 450h476v-272h108zM700 112q43 0 67 22t24 63q0 40 -24 61.5t-67 21.5h-91v-168h91z
" />
    <glyph glyph-name="uni040A" unicode="&#x40a;" horiz-adv-x="990" 
d="M727 416q111 0 175.5 -58.5t64.5 -167.5t-64.5 -166.5t-175.5 -57.5h-272v300h-236v-300h-160v732h160v-282h236v282h160v-282h112zM717 112q37 0 60.5 20.5t23.5 57.5q0 38 -23 58t-61 20h-102v-156h102z" />
    <glyph glyph-name="uni040B" unicode="&#x40b;" horiz-adv-x="761" 
d="M663.5 354q63.5 -68 63.5 -202v-186h-159v144q0 71 -20 115t-84 44q-116 0 -116 -160v-143h-164v587h-173v145h511v-145h-174v-173q54 42 141 42q111 0 174.5 -68z" />
    <glyph glyph-name="uni040C" unicode="&#x40c;" horiz-adv-x="643" 
d="M288 761l68 156h151l-104 -156h-115zM432 340l206 -374h-182l-155 292h-82v-292h-160v732h160v-291h84l154 291h172z" />
    <glyph glyph-name="uni040D" unicode="&#x40d;" horiz-adv-x="657" 
d="M175 930h151l68 -170h-115zM469 698h128v-732h-146v446l-264 -446h-128v732h146v-441z" />
    <glyph glyph-name="uni040E" unicode="&#x40e;" horiz-adv-x="589" 
d="M184.5 802.5q-42.5 43.5 -42.5 114.5h122q1 -27 10 -44.5t27 -17.5q19 0 28.5 17.5t10.5 44.5h122q0 -71 -43 -114.5t-118 -43.5q-74 0 -116.5 43.5zM307 364l114 334h163l-207 -528q-33 -83 -57 -126t-61.5 -67t-98.5 -24q-60 0 -98 24v156q40 -25 84 -25q30 0 49 12
t37 45l-228 533h178z" />
    <glyph glyph-name="uni040F" unicode="&#x40f;" horiz-adv-x="649" 
d="M221 111h207v587h161v-732h-188l-6 -172h-139l-6 172h-191v732h162v-587z" />
    <glyph glyph-name="uni0410" unicode="&#x410;" horiz-adv-x="662" 
d="M404 698l247 -732h-174l-45 151h-214l-43 -151h-163l239 732h153zM391 259l-67 232l-67 -232h134z" />
    <glyph glyph-name="uni0411" unicode="&#x411;" horiz-adv-x="600" 
d="M330 409q109 0 174 -59t65 -163t-64.5 -162.5t-174.5 -58.5h-269v732h457v-141h-297v-148h109zM320 107q38 0 60.5 20t22.5 61q0 40 -22.5 60.5t-60.5 20.5h-99v-162h99z" />
    <glyph glyph-name="uni0412" unicode="&#x412;" horiz-adv-x="581" 
d="M548 178q0 -98 -63 -155t-167 -57h-259v732h241q95 0 155.5 -52t60.5 -149q0 -101 -69 -150q101 -48 101 -169zM217 558v-153h59q35 0 54.5 20t19.5 58q0 37 -19 56t-55 19h-59zM302 107q37 0 57.5 21t20.5 62q0 39 -21 59.5t-58 20.5h-84v-163h85z" />
    <glyph glyph-name="uni0413" unicode="&#x413;" horiz-adv-x="472" 
d="M59 698h405v-147h-245v-585h-160v732z" />
    <glyph glyph-name="uni0414" unicode="&#x414;" horiz-adv-x="707" 
d="M698 115l-10 -321h-139l-5 172h-387l-5 -172h-138l-11 321h36q42 0 66 24.5t35.5 75t18.5 139.5l26 344h422v-583h91zM448 115v434h-119l-16 -214q-5 -73 -16.5 -127t-35.5 -93h187z" />
    <glyph glyph-name="uni0415" unicode="&#x415;" horiz-adv-x="504" 
d="M439 265h-218v-157h253v-142h-415v732h405v-142h-243v-150h218v-141z" />
    <glyph glyph-name="uni0416" unicode="&#x416;" horiz-adv-x="980" 
d="M781 339l195 -373h-188l-146 292h-71v-292h-161v292h-72l-146 -292h-188l195 373l-186 359h177l145 -291h75v291h161v-291h74l145 291h177z" />
    <glyph glyph-name="uni0417" unicode="&#x417;" horiz-adv-x="523" 
d="M462 276q30 -45 30 -109q0 -67 -30.5 -115t-84.5 -73.5t-124 -25.5q-95 0 -153.5 42t-84.5 129l130 76q29 -97 105 -97q33 0 53.5 19.5t20.5 60.5q0 45 -31 66.5t-93 21.5h-17v139h31q40 0 65.5 23.5t25.5 63.5q0 30 -15.5 47.5t-44.5 17.5q-35 0 -59 -25t-39 -74
l-125 74q23 85 87.5 130.5t154.5 45.5q64 0 111.5 -26t73 -72.5t25.5 -106.5q0 -55 -24.5 -97t-72.5 -66q55 -24 85 -69z" />
    <glyph glyph-name="uni0418" unicode="&#x418;" horiz-adv-x="657" 
d="M469 698h128v-732h-146v446l-264 -446h-128v732h146v-441z" />
    <glyph glyph-name="uni0419" unicode="&#x419;" horiz-adv-x="657" 
d="M211.5 802.5q-42.5 43.5 -42.5 114.5h122q1 -28 10.5 -45t27.5 -17t27.5 17.5t10.5 44.5h122q0 -71 -42.5 -114.5t-117.5 -43.5t-117.5 43.5zM469 698h128v-732h-146v446l-264 -446h-128v732h146v-441z" />
    <glyph glyph-name="uni041A" unicode="&#x41a;" horiz-adv-x="643" 
d="M432 340l206 -374h-182l-155 292h-82v-292h-160v732h160v-291h84l154 291h172z" />
    <glyph glyph-name="uni041B" unicode="&#x41b;" horiz-adv-x="668" 
d="M608 698v-732h-159v583h-168l-17 -321q-4 -87 -21.5 -144.5t-71 -94t-157.5 -36.5v145q39 0 58.5 15t27 45.5t10.5 89.5l23 450h475z" />
    <glyph glyph-name="uni041C" unicode="&#x41c;" horiz-adv-x="728" 
d="M548 698h120v-732h-153v400l-112 -203h-80l-112 204v-401h-152v732h123l183 -345z" />
    <glyph glyph-name="uni041D" unicode="&#x41d;" horiz-adv-x="657" 
d="M221 418h214v280h162v-732h-162v306h-214v-306h-162v732h162v-280z" />
    <glyph glyph-name="uni041E" unicode="&#x41e;" horiz-adv-x="648" 
d="M71 545.5q37 84.5 102 125.5t151 41q85 0 150.5 -41t102.5 -126t37 -212q0 -128 -37 -213.5t-102 -126t-151 -40.5q-132 0 -211 94.5t-79 285.5q0 128 37 212.5zM235.5 159q31.5 -56 89.5 -56t88 55.5t30 174.5q0 118 -30 173.5t-88 55.5q-121 0 -121 -229
q0 -118 31.5 -174z" />
    <glyph glyph-name="uni041F" unicode="&#x41f;" horiz-adv-x="664" 
d="M59 698h545v-732h-161v584h-224v-584h-160v732z" />
    <glyph glyph-name="uni0420" unicode="&#x420;" horiz-adv-x="559" 
d="M282 698q79 0 137 -30t88.5 -85t30.5 -129q0 -112 -68.5 -177.5t-187.5 -65.5h-61v-245h-162v732h223zM268 350q43 0 71.5 25t28.5 79t-28 79t-72 25h-47v-208h47z" />
    <glyph glyph-name="uni0421" unicode="&#x421;" horiz-adv-x="566" 
d="M416 202l138 -76q-14 -80 -75.5 -126t-153.5 -46q-84 0 -150 41.5t-103.5 126.5t-37.5 211t37.5 211t103.5 126.5t150 41.5q92 0 153.5 -46t75.5 -127l-138 -75q-28 97 -97 97q-53 0 -84 -55.5t-31 -172.5t31 -172.5t84 -55.5q69 0 97 97z" />
    <glyph glyph-name="uni0422" unicode="&#x422;" horiz-adv-x="531" 
d="M11 698h509v-145h-174v-587h-162v587h-173v145z" />
    <glyph glyph-name="uni0423" unicode="&#x423;" horiz-adv-x="589" 
d="M307 364l114 334h163l-207 -528q-33 -83 -57 -126t-61.5 -67t-98.5 -24q-60 0 -98 24v156q40 -25 84 -25q30 0 49 12t37 45l-228 533h178z" />
    <glyph glyph-name="uni0424" unicode="&#x424;" horiz-adv-x="730" 
d="M634 136.5q-74 -74.5 -191 -93.5v-77h-155v77q-118 18 -192.5 93t-74.5 197t74.5 196t192.5 93v76h155v-76q117 -19 191 -93.5t74 -195.5q0 -122 -74 -196.5zM443 190q104 29 105 143q-1 59 -28 94.5t-77 48.5v-286zM288 190v285q-51 -13 -79 -48.5t-29 -93.5
q1 -116 108 -143z" />
    <glyph glyph-name="uni0425" unicode="&#x425;" horiz-adv-x="633" 
d="M614 698l-211 -355l224 -377h-200l-116 221l-120 -221h-185l223 371l-210 361h195l107 -204l107 204h186z" />
    <glyph glyph-name="uni0426" unicode="&#x426;" horiz-adv-x="709" 
d="M428 698h161v-587h92l-11 -317h-139l-6 172h-466v732h162v-587h207v587z" />
    <glyph glyph-name="uni0427" unicode="&#x427;" horiz-adv-x="632" 
d="M413 698h159v-732h-159v270q-52 -35 -141 -35q-112 0 -175 58t-63 182v257h160v-214q0 -68 24.5 -100t85.5 -32q49 0 79 27.5t30 104.5v214z" />
    <glyph glyph-name="uni0428" unicode="&#x428;" horiz-adv-x="899" 
d="M529 115h151v583h159v-732h-780v732h160v-583h150v583h160v-583z" />
    <glyph glyph-name="uni0429" unicode="&#x429;" horiz-adv-x="958" 
d="M680 698h159v-583h91l-11 -321h-139l-5 172h-716v732h160v-583h150v583h160v-583h151v583z" />
    <glyph glyph-name="uni042A" unicode="&#x42a;" horiz-adv-x="708" 
d="M446 426q110 0 174.5 -61t64.5 -171q0 -109 -64.5 -168.5t-174.5 -59.5h-268v595h-170v137h330v-272h108zM428 112q43 0 67 22t24 63q0 40 -24 61.5t-67 21.5h-90v-168h90z" />
    <glyph glyph-name="uni042B" unicode="&#x42b;" horiz-adv-x="854" 
d="M328 426q110 0 174.5 -61t64.5 -171q0 -109 -64.5 -168.5t-174.5 -59.5h-269v732h160v-272h109zM793 -34h-159v732h159v-732zM310 112q43 0 67 22t24 63q0 40 -24 61.5t-67 21.5h-91v-168h91z" />
    <glyph glyph-name="uni042C" unicode="&#x42c;" horiz-adv-x="590" 
d="M328 426q110 0 174.5 -61t64.5 -171q0 -109 -64.5 -168.5t-174.5 -59.5h-269v732h160v-272h109zM310 112q43 0 67 22t24 63q0 40 -24 61.5t-67 21.5h-91v-168h91z" />
    <glyph glyph-name="uni042D" unicode="&#x42d;" horiz-adv-x="566" 
d="M360 268h-176v138h175q-16 159 -115 159q-73 0 -95 -101l-137 75q14 81 76.5 127t155.5 46q84 0 149 -41.5t102 -126.5t37 -211t-37 -211.5t-102 -127t-149 -41.5q-93 0 -155.5 46t-76.5 127l137 75q22 -101 95 -101q101 0 116 168z" />
    <glyph glyph-name="uni042E" unicode="&#x42e;" horiz-adv-x="880" 
d="M773.5 617.5q72.5 -94.5 72.5 -284.5q0 -191 -72.5 -285.5t-194.5 -94.5q-113 0 -183.5 79t-82.5 239h-92v-305h-162v732h162v-278h94q17 147 86.5 219.5t177.5 72.5q122 0 194.5 -94.5zM677 333q0 119 -25 173.5t-72 54.5q-100 0 -100 -228q0 -230 100 -230q97 0 97 230
z" />
    <glyph glyph-name="uni042F" unicode="&#x42f;" horiz-adv-x="590" 
d="M531 698v-732h-159v258h-50h-6l-133 -257l-183 -1l160 293q-51 30 -79 82t-28 120q0 71 30.5 124.5t87 83t133.5 29.5h227zM372 363v195h-44q-44 0 -75 -23t-31 -73q0 -51 32 -75t74 -24h44z" />
    <glyph glyph-name="uni0430" unicode="&#x430;" horiz-adv-x="477" 
d="M386 443.5q49 -53.5 49 -156.5v-321h-128q-1 18 -7 59q-37 -72 -118 -72q-65 0 -109.5 39.5t-44.5 120.5q0 58 25.5 98.5t68 60.5t92.5 20q37 0 70 -10q-3 46 -17 64t-38 18q-26 0 -41.5 -15.5t-26.5 -42.5l-111 69q25 58 74.5 90t120.5 32q92 0 141 -53.5zM284 170
q-20 6 -38 6q-28 0 -46 -14.5t-18 -39.5q0 -22 11.5 -32.5t31.5 -10.5q26 0 42.5 20.5t16.5 61.5v9z" />
    <glyph glyph-name="uni0431" unicode="&#x431;" horiz-adv-x="507" 
d="M386.5 455q44.5 -30 70 -90t25.5 -147q0 -135 -61 -200t-164 -65q-109 0 -170 83t-61 283q0 231 87 321q38 39 86 53t121 21q46 5 71 10t44 17l-1 -139q-17 -12 -39.5 -16.5t-57.5 -6.5q-46 -3 -74.5 -10t-48.5 -30q-26 -31 -35 -94q43 40 107 40q56 0 100.5 -30z
M304.5 120.5q18.5 31.5 18.5 97.5q0 128 -70 128q-32 0 -51 -31.5t-19 -96.5q0 -66 19 -97.5t51 -31.5q33 0 51.5 31.5z" />
    <glyph glyph-name="uni0432" unicode="&#x432;" horiz-adv-x="477" 
d="M441.5 188q19.5 -30 19.5 -72q0 -69 -49 -109.5t-133 -40.5h-231v518h216q76 0 125.5 -38t49.5 -107q0 -73 -54 -106q37 -15 56.5 -45zM198 366v-83h42q25 0 36 9.5t11 30.5q0 43 -46 43h-43zM254 84q53 0 53 46q0 21 -12 31t-40 10h-57v-87h56z" />
    <glyph glyph-name="uni0433" unicode="&#x433;" horiz-adv-x="396" 
d="M48 484h339v-136h-186v-382h-153v518z" />
    <glyph glyph-name="uni0434" unicode="&#x434;" horiz-adv-x="578" 
d="M562 93l-11 -299h-128l-5 168h-263l-6 -168h-130l-10 299h34q34 0 52 22.5t26.5 71.5t15.5 146l10 151h341v-391h74zM347 93v260h-72l-2 -40q-6 -80 -14.5 -132.5t-25.5 -87.5h114z" />
    <glyph glyph-name="uni0435" unicode="&#x435;" horiz-adv-x="464" 
d="M391 434q54 -63 54 -179q0 -36 -6 -78h-259q6 -48 23 -69.5t46 -21.5q43 0 69 56l112 -68q-20 -62 -69.5 -91.5t-114.5 -29.5q-96 0 -158.5 65.5t-62.5 205.5q0 96 31.5 157t81.5 88.5t109 27.5q90 0 144 -63zM204.5 348.5q-16.5 -20.5 -22.5 -59.5h114q-1 80 -50 80
q-25 0 -41.5 -20.5z" />
    <glyph glyph-name="uni0436" unicode="&#x436;" horiz-adv-x="725" 
d="M472 292l99 192h150l-132 -250l133 -268h-162l-90 190h-34v-190h-144v190h-36l-90 -190h-162l134 268l-134 250h152l98 -192h38v192h144v-192h36z" />
    <glyph glyph-name="uni0437" unicode="&#x437;" horiz-adv-x="417" 
d="M113 143q14 -31 32.5 -46.5t47.5 -15.5q21 0 35 10.5t14 32.5q0 42 -62 42h-52v126h44q57 0 57 38q0 18 -10.5 29t-30.5 11q-40 0 -63 -48l-118 72q51 103 192 103q85 0 136 -36.5t51 -105.5q0 -42 -24.5 -72t-68.5 -46q52 -14 79.5 -48t27.5 -84q0 -78 -54 -115
t-148 -37q-152 0 -204 124z" />
    <glyph glyph-name="uni0438" unicode="&#x438;" horiz-adv-x="528" 
d="M190 484v-279l169 279h120v-518h-142v282l-171 -282h-118v518h142z" />
    <glyph glyph-name="uni0439" unicode="&#x439;" horiz-adv-x="528" 
d="M153 591.5q-42 45.5 -42 124.5h122q2 -74 38 -74t38 74h123q0 -79 -43 -124.5t-118 -45.5q-76 0 -118 45.5zM190 484v-279l169 279h120v-518h-142v282l-171 -282h-118v518h142z" />
    <glyph glyph-name="uni043A" unicode="&#x43a;" horiz-adv-x="523" 
d="M251 292l105 191h161l-139 -249l140 -268h-174l-95 190h-47v-190h-154v518h154v-192h49z" />
    <glyph glyph-name="uni043B" unicode="&#x43b;" horiz-adv-x="526" 
d="M477 484v-518h-152v382h-83l-7 -148q-5 -86 -21.5 -137.5t-63 -80.5t-136.5 -29v145q45 0 60.5 27.5t18.5 93.5l14 265h370z" />
    <glyph glyph-name="uni043C" unicode="&#x43c;" horiz-adv-x="610" 
d="M442 484h119v-518h-134v265l-91 -162h-64l-89 152v-255h-135v518h119l138 -242z" />
    <glyph glyph-name="uni043D" unicode="&#x43d;" horiz-adv-x="522" 
d="M203 297h115v187h155v-518h-155v195h-115v-195h-155v518h155v-187z" />
    <glyph glyph-name="uni043E" unicode="&#x43e;" horiz-adv-x="502" 
d="M56.5 381q31.5 61 82.5 88.5t113 27.5q97 0 161 -66t64 -206t-64 -206t-161 -66q-62 0 -113 27.5t-82.5 88.5t-31.5 156t31.5 156zM202.5 122.5q18.5 -32.5 49.5 -32.5q30 0 47.5 32.5t17.5 102.5t-17.5 102.5t-47.5 32.5q-31 0 -49.5 -32.5t-18.5 -102.5t18.5 -102.5z
" />
    <glyph glyph-name="uni043F" unicode="&#x43f;" horiz-adv-x="522" 
d="M48 483h425v-517h-155v382h-115v-382h-155v517z" />
    <glyph glyph-name="uni0440" unicode="&#x440;" horiz-adv-x="532" 
d="M454.5 429.5q52.5 -67.5 52.5 -204.5t-52.5 -204.5t-136.5 -67.5q-75 0 -115 56v-240h-155v714h138q0 -27 5 -60q41 74 127 74q84 0 136.5 -67.5zM328.5 124q19.5 34 19.5 101t-19.5 101t-53.5 34q-32 0 -52 -32.5t-20 -102.5t20 -102.5t52 -32.5q34 0 53.5 34z" />
    <glyph glyph-name="uni0441" unicode="&#x441;" horiz-adv-x="422" 
d="M310 152l117 -65q-17 -72 -64 -103t-108 -31q-59 0 -111.5 27.5t-85.5 88.5t-33 156t33 156t85 88.5t112 27.5q61 0 108 -31t64 -103l-117 -65q-16 62 -60 62q-33 0 -49.5 -34.5t-16.5 -100.5q0 -65 16.5 -100t49.5 -35q44 0 60 62z" />
    <glyph glyph-name="uni0442" unicode="&#x442;" horiz-adv-x="441" 
d="M7 348v136h426v-136h-138v-382h-151v382h-137z" />
    <glyph glyph-name="uni0443" unicode="&#x443;" horiz-adv-x="509" 
d="M264 187l80 296h160l-178 -545q-23 -71 -48 -110t-57.5 -55.5t-80.5 -16.5q-81 0 -128 41l59 117q24 -19 56 -19q24 0 38 10.5t25 39.5l5 15l-190 523h173z" />
    <glyph glyph-name="uni0444" unicode="&#x444;" horiz-adv-x="678" 
d="M586 44q-67 -67 -174 -85v-190h-146v190q-107 18 -174 85.5t-67 180.5t67.5 180.5t174.5 85.5v175h146v-175q106 -18 173 -85.5t67 -180.5q0 -114 -67 -181zM266 98l1 255q-90 -26 -90 -128q0 -101 89 -127zM412 98q88 25 88 127q0 101 -87 128z" />
    <glyph glyph-name="uni0445" unicode="&#x445;" horiz-adv-x="479" 
d="M242 365l64 118h168l-155 -253l155 -264h-170l-67 119l-64 -119h-168l156 255l-156 262h170z" />
    <glyph glyph-name="uni0446" unicode="&#x446;" horiz-adv-x="558" 
d="M473 483v-382h87l-10 -307h-133l-5 172h-364v517h155v-382h115v382h155z" />
    <glyph glyph-name="uni0447" unicode="&#x447;" horiz-adv-x="513" 
d="M311 484h153v-518h-153v162q-39 -29 -103 -29q-80 0 -124.5 41.5t-44.5 127.5v216h154v-170q0 -37 13.5 -54.5t43.5 -17.5q31 0 46 21t15 68v153z" />
    <glyph glyph-name="uni0448" unicode="&#x448;" horiz-adv-x="712" 
d="M429 101h87v382h147v-517h-615v517h146v-382h89v382h146v-382z" />
    <glyph glyph-name="uni0449" unicode="&#x449;" horiz-adv-x="747" 
d="M663 483v-382h86l-10 -307h-131l-6 172h-554v517h146v-382h89v382h146v-382h87v382h147z" />
    <glyph glyph-name="uni044A" unicode="&#x44a;" horiz-adv-x="590" 
d="M386 313q88 0 137.5 -45.5t49.5 -127.5t-49.5 -128t-137.5 -46h-230v382h-146v136h301v-171h75zM358 88q27 0 41 14t14 38q0 51 -55 51h-47v-103h47z" />
    <glyph glyph-name="uni044B" unicode="&#x44b;" horiz-adv-x="724" 
d="M278 313q88 0 137.5 -45.5t49.5 -127.5t-49.5 -128t-137.5 -46h-230v518h156v-171h74zM675 -34h-155v518h155v-518zM250 88q28 0 41.5 14t13.5 38q0 51 -55 51h-46v-103h46z" />
    <glyph glyph-name="uni044C" unicode="&#x44c;" horiz-adv-x="483" 
d="M278 313q88 0 137.5 -45.5t49.5 -127.5t-49.5 -128t-137.5 -46h-230v518h156v-171h74zM250 88q28 0 41.5 14t13.5 38q0 51 -55 51h-46v-103h46z" />
    <glyph glyph-name="uni044D" unicode="&#x44d;" horiz-adv-x="422" 
d="M236 167h-111v123h110q-7 40 -22.5 58t-41.5 18q-21 0 -34 -12.5t-22 -41.5l-115 65q15 63 61.5 91.5t107.5 28.5q59 0 110.5 -27.5t84.5 -88.5t33 -156t-33 -156t-84.5 -88.5t-110.5 -27.5q-61 0 -107.5 28.5t-61.5 92.5l115 65q9 -30 22 -42.5t34 -12.5q55 0 65 83z
" />
    <glyph glyph-name="uni044E" unicode="&#x44e;" horiz-adv-x="721" 
d="M590 469q48 -28 77 -89t29 -155q0 -139 -60.5 -205.5t-152.5 -66.5q-81 0 -139.5 51.5t-71.5 159.5h-70v-198h-154v517h154v-183h72q17 101 73.5 149t135.5 48q59 0 107 -28zM541 225q0 133 -59 133q-61 0 -61 -133t61 -133q59 0 59 133z" />
    <glyph glyph-name="uni044F" unicode="&#x44f;" horiz-adv-x="502" 
d="M453 484v-518h-150v171h-32l-98 -170l-168 -1l121 197q-39 22 -59.5 60t-20.5 88q0 78 50 125.5t141 47.5h216zM303 262v96h-49q-51 0 -51 -48t51 -48h49z" />
    <glyph glyph-name="uni0450" unicode="&#x450;" horiz-adv-x="464" 
d="M90 715h152l68 -170h-115zM391 434q54 -63 54 -179q0 -36 -6 -78h-259q6 -48 23 -69.5t46 -21.5q43 0 69 56l112 -68q-20 -62 -69.5 -91.5t-114.5 -29.5q-96 0 -158.5 65.5t-62.5 205.5q0 96 31.5 157t81.5 88.5t109 27.5q90 0 144 -63zM204.5 348.5
q-16.5 -20.5 -22.5 -59.5h114q-1 80 -50 80q-25 0 -41.5 -20.5z" />
    <glyph glyph-name="uni0451" unicode="&#x451;" horiz-adv-x="464" 
d="M81 569.5q-24 25.5 -24 60.5t24 60t58 25q36 0 60.5 -25t24.5 -60q0 -36 -24.5 -61t-60.5 -25q-34 0 -58 25.5zM289.5 569.5q-23.5 25.5 -23.5 60.5t23.5 60t58.5 25q34 0 59 -25t25 -60t-25 -60.5t-59 -25.5q-35 0 -58.5 25.5zM391 434q54 -63 54 -179q0 -36 -6 -78
h-259q6 -48 23 -69.5t46 -21.5q43 0 69 56l112 -68q-20 -62 -69.5 -91.5t-114.5 -29.5q-96 0 -158.5 65.5t-62.5 205.5q0 96 31.5 157t81.5 88.5t109 27.5q90 0 144 -63zM204.5 348.5q-16.5 -20.5 -22.5 -59.5h114q-1 80 -50 80q-25 0 -41.5 -20.5z" />
    <glyph glyph-name="uni0452" unicode="&#x452;" horiz-adv-x="531" 
d="M450.5 446q38.5 -51 38.5 -159v-327q0 -110 -51.5 -157t-128.5 -47q-75 0 -127 44l58 111q20 -19 46 -19q24 0 35.5 20t11.5 73v244q0 60 -12.5 88t-42.5 28t-45.5 -27.5t-15.5 -93.5v-258h-155v566h-61v111h61v84h155v-84h101v-111h-101v-100q43 65 125 65
q70 0 108.5 -51z" />
    <glyph glyph-name="uni0453" unicode="&#x453;" horiz-adv-x="396" 
d="M157 547l68 170h152l-105 -170h-115zM48 484h339v-136h-186v-382h-153v518z" />
    <glyph glyph-name="uni0454" unicode="&#x454;" horiz-adv-x="422" 
d="M285.5 96.5q12.5 12.5 21.5 42.5l116 -65q-15 -64 -62 -92.5t-108 -28.5q-59 0 -110.5 27.5t-84.5 88.5t-33 156t33 156t84.5 88.5t110.5 27.5q61 0 108 -28.5t62 -91.5l-116 -65q-9 29 -22 41.5t-33 12.5q-27 0 -42.5 -18.5t-21.5 -57.5h109v-123h-110q9 -83 65 -83
q21 0 33.5 12.5z" />
    <glyph glyph-name="uni0455" unicode="&#x455;" horiz-adv-x="394" 
d="M332.5 -2.5q-51.5 -44.5 -136.5 -44.5q-72 0 -123.5 34t-69.5 100l115 65q25 -65 74 -65q18 0 26 7t8 19q0 16 -15.5 27t-49.5 27q-40 19 -67.5 37t-47.5 49.5t-20 78.5q0 77 52.5 121t134.5 44q71 0 113.5 -34.5t52.5 -86.5l-113 -63q-7 26 -21.5 38.5t-32.5 12.5
q-14 0 -21.5 -7.5t-7.5 -19.5q0 -18 16 -29.5t51 -27.5q41 -19 67.5 -36.5t46.5 -49t20 -78.5q0 -74 -51.5 -118.5z" />
    <glyph glyph-name="uni0456" unicode="&#x456;" horiz-adv-x="250" 
d="M63 572.5q-26 26.5 -26 62.5q0 37 25.5 63t62.5 26q34 0 60.5 -26.5t26.5 -62.5q0 -35 -26.5 -62t-60.5 -27q-36 0 -62 26.5zM202 -34h-155v517h155v-517z" />
    <glyph glyph-name="uni0457" unicode="&#x457;" horiz-adv-x="272" 
d="M-11 569.5q-24 25.5 -24 60.5t24 60t58 25q36 0 60.5 -25t24.5 -60t-24.5 -60.5t-60.5 -25.5q-34 0 -58 25.5zM164 570q-24 26 -24 60q0 35 24 60t59 25q34 0 58.5 -25t24.5 -60t-24.5 -60.5t-58.5 -25.5q-35 0 -59 26zM54 -34v517h163v-517h-163z" />
    <glyph glyph-name="uni0458" unicode="&#x458;" horiz-adv-x="250" 
d="M64 572.5q-25 26.5 -25 62.5t25 62.5t60 26.5t62 -26.5t27 -62.5t-26.5 -62.5t-62.5 -26.5q-35 0 -60 26.5zM-65 -229.5q-33 14.5 -47 37.5l71 117q17 -20 43 -20q28 0 38 22.5t10 76.5v479h155v-497q0 -114 -53.5 -172t-137.5 -58q-46 0 -79 14.5z" />
    <glyph glyph-name="uni0459" unicode="&#x459;" horiz-adv-x="762" 
d="M558 313q87 0 136.5 -45.5t49.5 -127.5t-49.5 -128t-136.5 -46h-230v382h-83l-7 -148q-5 -86 -22 -137.5t-63.5 -80.5t-136.5 -29v145q45 0 61 28t19 93l13 265h374v-171h75zM529 88q28 0 41.5 14t13.5 38q0 51 -55 51h-46v-103h46z" />
    <glyph glyph-name="uni045A" unicode="&#x45a;" horiz-adv-x="753" 
d="M547 304q89 0 138.5 -44t49.5 -125q0 -80 -50 -124.5t-138 -44.5h-229v204h-115v-204h-155v518h155v-180h115v180h155v-180h74zM522 87q55 0 55 48q0 28 -14.5 39t-40.5 11h-49v-98h49z" />
    <glyph glyph-name="uni045B" unicode="&#x45b;" horiz-adv-x="531" 
d="M450.5 446q38.5 -51 38.5 -159v-321h-155v263q0 60 -12.5 88t-43.5 28q-30 0 -45.5 -27.5t-15.5 -93.5v-258h-155v566h-61v111h61v84h155v-84h101v-111h-101v-100q43 65 125 65q70 0 108.5 -51z" />
    <glyph glyph-name="uni045C" unicode="&#x45c;" horiz-adv-x="523" 
d="M217 546l68 170h151l-104 -170h-115zM251 292l105 191h161l-139 -249l140 -268h-174l-95 190h-47v-190h-154v518h154v-192h49z" />
    <glyph glyph-name="uni045D" unicode="&#x45d;" horiz-adv-x="528" 
d="M117 716h151l68 -170h-115zM190 484v-279l169 279h120v-518h-142v282l-171 -282h-118v518h142z" />
    <glyph glyph-name="uni045E" unicode="&#x45e;" horiz-adv-x="509" 
d="M146 591.5q-42 45.5 -42 124.5h122q2 -74 38 -74t38 74h122q0 -79 -42.5 -124.5t-117.5 -45.5q-76 0 -118 45.5zM264 187l80 296h160l-178 -545q-23 -71 -48 -110t-57.5 -55.5t-80.5 -16.5q-81 0 -128 41l59 117q24 -19 56 -19q24 0 38 10.5t25 39.5l5 15l-190 523h173z
" />
    <glyph glyph-name="uni045F" unicode="&#x45f;" horiz-adv-x="522" 
d="M203 101h115v382h155v-517h-141l-6 -172h-131l-6 172h-141v517h155v-382z" />
    <glyph glyph-name="uni0462" unicode="&#x462;" horiz-adv-x="662" 
d="M400 399q110 0 174.5 -57.5t64.5 -160.5t-64.5 -159t-174.5 -56h-269v521h-125v118h125v93h159v-93h179v-118h-179v-88h110zM384 117q42 0 65.5 18.5t23.5 53.5t-23.5 53t-65.5 18h-94v-143h94z" />
    <glyph glyph-name="uni0463" unicode="&#x463;" horiz-adv-x="534" 
d="M330 304q88 0 137 -44.5t49 -124.5t-49.5 -124.5t-136.5 -44.5h-226v407h-98v111h98v243h155v-243h130v-111h-130v-69h71zM303 84q55 0 55 51q0 30 -14.5 40.5t-40.5 10.5h-44v-102h44z" />
    <glyph glyph-name="uni046B" unicode="&#x46b;" horiz-adv-x="592" 
d="M398 259q73 -5 123 -70.5t50 -222.5h-136q0 93 -19.5 129.5t-52.5 41.5v-171h-136v171q-32 -5 -51 -41.5t-19 -129.5h-136q0 158 50.5 223t122.5 71l-150 224h504zM339 372l-87 1l44 -70z" />
    <glyph glyph-name="uni0472" unicode="&#x472;" horiz-adv-x="648" 
d="M472.5 671q65.5 -41 103.5 -126t38 -212q0 -128 -38 -213t-103.5 -126t-148.5 -41t-148.5 41t-103.5 126t-38 213q0 127 38 212t103.5 126t148.5 41t148.5 -41zM208 404h231q-14 162 -114 162q-101 0 -117 -162zM440 265h-232q8 -86 38.5 -126.5t78.5 -40.5
q100 0 115 167z" />
    <glyph glyph-name="uni0473" unicode="&#x473;" horiz-adv-x="502" 
d="M413 431q64 -66 64 -206t-64 -206t-161 -66q-62 0 -113 27.5t-82.5 88.5t-31.5 156t31.5 156t82.5 88.5t113 27.5q97 0 161 -66zM189 289h123q-11 79 -60 79q-51 0 -63 -79zM314 169h-126q6 -46 22 -66t42 -20q51 0 62 86z" />
    <glyph glyph-name="uni0474" unicode="&#x474;" horiz-adv-x="703" 
d="M659.5 700q28.5 -12 53.5 -32l-50 -125q-21 21 -45 21q-21 0 -34.5 -17.5t-26.5 -55.5l-173 -525h-126l-246 732h184l129 -455l78 279q26 96 67 143t119 47q42 0 70.5 -12z" />
    <glyph glyph-name="uni0475" unicode="&#x475;" horiz-adv-x="560" 
d="M559 454l-44 -118q-16 22 -38 22q-19 0 -32 -15t-25 -50l-113 -326h-124l-178 516h170l79 -284l44 146q24 79 58 115.5t94 36.5q66 0 109 -43z" />
    <glyph glyph-name="uni0490" unicode="&#x490;" horiz-adv-x="476" 
d="M59 698h261l23 155h140l-20 -302h-244v-585h-160v732z" />
    <glyph glyph-name="uni0491" unicode="&#x491;" horiz-adv-x="405" 
d="M263 484l21 129h132l-21 -265h-194v-382h-153v518h215z" />
    <glyph glyph-name="uni0492" unicode="&#x492;" horiz-adv-x="492" 
d="M61 698h423v-147h-263v-160h102v-145h-102v-280h-160v280h-61v145h61v307z" />
    <glyph glyph-name="uni0493" unicode="&#x493;" horiz-adv-x="430" 
d="M79 484h346v-136h-194v-81h106v-135h-106v-166h-152v166h-65v135h65v217z" />
    <glyph glyph-name="uni0497" unicode="&#x497;" horiz-adv-x="765" 
d="M721 484l-132 -250l70 -142h129l-10 -298h-132l-6 172h-80l-90 190h-34v-190h-144v190h-36l-90 -190h-162l134 268l-134 250h152l98 -192h38v192h144v-192h36l99 192h150z" />
    <glyph glyph-name="uni049A" unicode="&#x49a;" horiz-adv-x="636" 
d="M622 698l-197 -358l130 -234h97l-11 -312h-138l-5 172h-49l-155 292h-75v-292h-160v732h160v-291h77l154 291h172z" />
    <glyph glyph-name="uni049B" unicode="&#x49b;" horiz-adv-x="523" 
d="M517 483l-139 -249l76 -142h78l-11 -298h-131l-6 172h-40l-95 190h-47v-190h-154v518h154v-192h49l105 191h161z" />
    <glyph glyph-name="uni049C" unicode="&#x49c;" horiz-adv-x="660" 
d="M478 339l177 -373h-179l-129 292h-8v-132h-102v132h-30v-292h-148v732h148v-291h30v134h102v-134h11l129 291h167z" />
    <glyph glyph-name="uni049D" unicode="&#x49d;" horiz-adv-x="541" 
d="M311 292l85 191h140l-113 -249l114 -268h-153l-76 190h-7v-86h-93v86h-18v-190h-142v518h142v-192h18v87h93v-87h10z" />
    <glyph glyph-name="uni04A2" unicode="&#x4a2;" horiz-adv-x="708" 
d="M597 698v-592h97l-10 -312h-139l-5 172h-105v306h-214v-306h-162v732h162v-280h214v280h162z" />
    <glyph glyph-name="uni04A3" unicode="&#x4a3;" horiz-adv-x="581" 
d="M473 484v-392h93l-11 -298h-131l-6 172h-100v195h-115v-195h-155v518h155v-187h115v187h155z" />
    <glyph glyph-name="uni04AE" unicode="&#x4ae;" horiz-adv-x="593" 
d="M304 414l114 284h171l-208 -454v-278h-161v278l-216 454h185z" />
    <glyph glyph-name="uni04AF" unicode="&#x4af;" horiz-adv-x="508" 
d="M262 199l81 284h160l-171 -479v-235h-152v234l-175 480h171z" />
    <glyph glyph-name="uni04B0" unicode="&#x4b0;" horiz-adv-x="593" 
d="M304 414l114 284h171l-156 -341h110v-159h-160v-232h-164v232h-161v159h108l-162 341h185z" />
    <glyph glyph-name="uni04B1" unicode="&#x4b1;" horiz-adv-x="508" 
d="M262 199l81 284h160l-136 -382h102v-135h-137v-197h-152v197h-138v135h102l-139 382h171z" />
    <glyph glyph-name="uni04B2" unicode="&#x4b2;" horiz-adv-x="631" 
d="M614 698l-211 -355l141 -237h96l-10 -312h-139l-6 172h-58l-116 221l-120 -221h-185l223 371l-210 361h195l107 -204l107 204h186z" />
    <glyph glyph-name="uni04B3" unicode="&#x4b3;" horiz-adv-x="497" 
d="M474 483l-155 -253l81 -138h95l-9 -298h-133l-5 172h-44l-67 119l-64 -119h-168l156 255l-156 262h170l67 -118l64 118h168z" />
    <glyph glyph-name="uni04B8" unicode="&#x4b8;" horiz-adv-x="632" 
d="M417 698h155v-732h-159v270q-27 -18 -58 -26v-138h-102v129q-103 5 -161 63t-58 177v257h156v-214q0 -52 14.5 -82.5t48.5 -41.5v127h102v-126q62 24 62 123v214z" />
    <glyph glyph-name="uni04B9" unicode="&#x4b9;" horiz-adv-x="528" 
d="M337 484h142v-518h-148v166q-12 -10 -22 -14v-99h-100v80q-78 3 -124 44.5t-46 124.5v216h145v-159q0 -27 5 -44t20 -26v87h100v-87q28 21 28 71v158z" />
    <glyph glyph-name="uni04BA" unicode="&#x4ba;" horiz-adv-x="631" 
d="M219 -34h-160v732h160v-270q53 35 141 35q112 0 175 -58t63 -182v-257h-160v214q0 68 -24.5 100t-85.5 32q-49 0 -79 -27.5t-30 -104.5v-214z" />
    <glyph glyph-name="uni04BB" unicode="&#x4bb;" 
d="M435.5 446q38.5 -51 38.5 -159v-321h-154v263q0 60 -12.5 88t-43.5 28q-30 0 -45.5 -27.5t-15.5 -93.5v-258h-155v761h155v-295q41 65 124 65q70 0 108.5 -51z" />
    <glyph glyph-name="uni04CA" unicode="&#x4ca;" horiz-adv-x="581" 
d="M318 484h155v-392h102l-90 -298h-140l39 172h-66v195h-115v-195h-155v518h155v-187h115v187z" />
    <glyph glyph-name="uni04D8" unicode="&#x4d8;" horiz-adv-x="601" 
d="M495 615q72 -97 72 -285q0 -123 -35 -207.5t-98 -127t-147 -42.5q-118 0 -187 82.5t-69 240.5q0 51 7 103h357q-5 88 -31.5 133.5t-79.5 45.5q-39 0 -68 -24t-48 -83l-124 82q69 179 248 179q131 0 203 -97zM360.5 138q24.5 35 31.5 101h-200q1 -71 25 -103.5t71 -32.5
q48 0 72.5 35z" />
    <glyph glyph-name="uni04D9" unicode="&#x4d9;" horiz-adv-x="464" 
d="M378.5 431q60.5 -66 60.5 -208q0 -94 -31.5 -154.5t-81.5 -88t-109 -27.5q-90 0 -144 61.5t-54 178.5q0 36 6 76h259q-4 95 -64 95q-49 0 -74 -61l-112 73q26 62 78 91.5t115 29.5q91 0 151.5 -66zM263 99.5q15 18.5 21 57.5h-114q2 -40 16.5 -58t35.5 -18q26 0 41 18.5z
" />
    <glyph glyph-name="uni04E8" unicode="&#x4e8;" horiz-adv-x="648" 
d="M472.5 671q65.5 -41 103.5 -126t38 -212q0 -128 -38 -213t-103.5 -126t-148.5 -41t-148.5 41t-103.5 126t-38 213q0 127 38 212t103.5 126t148.5 41t148.5 -41zM208 404h231q-14 162 -114 162q-101 0 -117 -162zM440 265h-232q8 -86 38.5 -126.5t78.5 -40.5
q100 0 115 167z" />
    <glyph glyph-name="uni04E9" unicode="&#x4e9;" horiz-adv-x="502" 
d="M413 431q64 -66 64 -206t-64 -206t-161 -66q-62 0 -113 27.5t-82.5 88.5t-31.5 156t31.5 156t82.5 88.5t113 27.5q97 0 161 -66zM189 289h123q-11 79 -60 79q-51 0 -63 -79zM314 169h-126q6 -46 22 -66t42 -20q51 0 62 86z" />
    <glyph glyph-name="uni1E00" unicode="&#x1e00;" horiz-adv-x="662" 
d="M404 698l247 -732h-174l-45 151h-214l-43 -151h-163l239 732h153zM391 259l-67 232l-67 -232h134zM235 -89.5q36 24.5 90 24.5q55 0 90 -24.5t35 -64.5q0 -41 -35 -65.5t-90 -24.5t-90.5 24.5t-35.5 65.5q0 40 36 64.5zM293.5 -176.5q11.5 -8.5 31.5 -8.5q19 0 31 8.5
t12 22.5t-12 22t-31 8q-20 0 -31.5 -8t-11.5 -22t11.5 -22.5z" />
    <glyph glyph-name="uni1E01" unicode="&#x1e01;" horiz-adv-x="477" 
d="M386 443.5q49 -53.5 49 -156.5v-321h-128q-1 18 -7 59q-37 -72 -118 -72q-65 0 -109.5 39.5t-44.5 120.5q0 58 25.5 98.5t68 60.5t92.5 20q37 0 70 -10q-3 46 -17 64t-38 18q-26 0 -41.5 -15.5t-26.5 -42.5l-111 69q25 58 74.5 90t120.5 32q92 0 141 -53.5zM284 170
q-20 6 -38 6q-28 0 -46 -14.5t-18 -39.5q0 -22 11.5 -32.5t31.5 -10.5q26 0 42.5 20.5t16.5 61.5v9zM331 -89.5q35 -24.5 35 -64.5q0 -41 -35 -65.5t-90 -24.5t-90.5 24.5t-35.5 65.5q0 40 36 64.5t90 24.5q55 0 90 -24.5zM272 -176.5q12 8.5 12 22.5t-12 22t-31 8t-31 -8
t-12 -22t12 -22.5t31 -8.5t31 8.5z" />
    <glyph glyph-name="uni1E3E" unicode="&#x1e3e;" horiz-adv-x="728" 
d="M312 761l68 156h151l-104 -156h-115zM548 698h120v-732h-153v400l-112 -203h-80l-112 204v-401h-152v732h123l183 -345z" />
    <glyph glyph-name="uni1E3F" unicode="&#x1e3f;" horiz-adv-x="728" 
d="M340 544l68 170h151l-104 -170h-115zM650 445.5q36 -51.5 36 -158.5v-321h-149v258q0 65 -9.5 90.5t-35.5 25.5q-27 0 -39 -27.5t-12 -94.5v-252h-150v258q0 65 -9 90.5t-35 25.5q-27 0 -39.5 -27.5t-12.5 -94.5v-252h-147v517h129q1 -10 2.5 -31t4.5 -37q41 82 122 82
q84 0 117 -88q40 88 129 88q62 0 98 -51.5z" />
    <glyph glyph-name="Wgrave" unicode="&#x1e80;" horiz-adv-x="889" 
d="M283 917h152l68 -156h-115zM518 698l106 -458l97 458h157l-191 -732h-133l-108 426l-107 -426h-132l-195 732h166l103 -460l101 460h136z" />
    <glyph glyph-name="wgrave" unicode="&#x1e81;" horiz-adv-x="713" 
d="M216 716h151l69 -170h-115zM418 483l73 -286l68 286h149l-156 -516h-113l-81 270l-76 -270h-116l-161 516h157l71 -296l68 296h117z" />
    <glyph glyph-name="Wacute" unicode="&#x1e82;" horiz-adv-x="889" 
d="M397 761l68 156h151l-104 -156h-115zM518 698l106 -458l97 458h157l-191 -732h-133l-108 426l-107 -426h-132l-195 732h166l103 -460l101 460h136z" />
    <glyph glyph-name="wacute" unicode="&#x1e83;" horiz-adv-x="713" 
d="M305 546l68 170h151l-104 -170h-115zM418 483l73 -286l68 286h149l-156 -516h-113l-81 270l-76 -270h-116l-161 516h157l71 -296l68 296h117z" />
    <glyph glyph-name="Wdieresis" unicode="&#x1e84;" horiz-adv-x="889" 
d="M295 780.5q-24 25.5 -24 60.5t24 60t58 25q36 0 60.5 -25t24.5 -60q0 -36 -24.5 -61t-60.5 -25q-34 0 -58 25.5zM485 780.5q-24 25.5 -24 60.5t24 60t59 25q34 0 59 -25t25 -60t-25 -60.5t-59 -25.5q-35 0 -59 25.5zM518 698l106 -458l97 458h157l-191 -732h-133
l-108 426l-107 -426h-132l-195 732h166l103 -460l101 460h136z" />
    <glyph glyph-name="wdieresis" unicode="&#x1e85;" horiz-adv-x="713" 
d="M207 570.5q-24 25.5 -24 60.5t24 60t58 25q36 0 60 -25t24 -60q0 -36 -24 -61t-60 -25q-34 0 -58 25.5zM415 570.5q-24 25.5 -24 60.5t24 60t59 25q34 0 58.5 -25t24.5 -60t-24.5 -60.5t-58.5 -25.5q-35 0 -59 25.5zM418 483l73 -286l68 286h149l-156 -516h-113l-81 270
l-76 -270h-116l-161 516h157l71 -296l68 296h117z" />
    <glyph glyph-name="uni1EA0" unicode="&#x1ea0;" horiz-adv-x="662" 
d="M404 698l247 -732h-174l-45 151h-214l-43 -151h-163l239 732h153zM391 259l-67 232l-67 -232h134zM259.5 -219q-27.5 23 -27.5 55t27.5 55t66.5 23q38 0 66.5 -23t28.5 -55t-28 -55t-67 -23t-66.5 23z" />
    <glyph glyph-name="uni1EA1" unicode="&#x1ea1;" horiz-adv-x="477" 
d="M386 443.5q49 -53.5 49 -156.5v-321h-128q-1 18 -7 59q-37 -72 -118 -72q-65 0 -109.5 39.5t-44.5 120.5q0 58 25.5 98.5t68 60.5t92.5 20q37 0 70 -10q-3 46 -17 64t-38 18q-26 0 -41.5 -15.5t-26.5 -42.5l-111 69q25 58 74.5 90t120.5 32q92 0 141 -53.5zM284 170
q-20 6 -38 6q-28 0 -46 -14.5t-18 -39.5q0 -22 11.5 -32.5t31.5 -10.5q26 0 42.5 20.5t16.5 61.5v9zM308.5 -109q28.5 -23 28.5 -55t-28 -55t-67 -23t-66.5 23t-27.5 55t27.5 55t66.5 23q38 0 66.5 -23z" />
    <glyph glyph-name="uni1EA2" unicode="&#x1ea2;" horiz-adv-x="662" 
d="M205 913q55 33 115 33q47 0 78.5 -23t31.5 -67q0 -45 -32 -76t-78 -48l-45 70q43 17 43 37q0 19 -27 19q-15 0 -32 -7.5t-31 -20.5zM404 698l247 -732h-174l-45 151h-214l-43 -151h-163l239 732h153zM391 259l-67 232l-67 -232h134z" />
    <glyph glyph-name="uni1EA3" unicode="&#x1ea3;" horiz-adv-x="477" 
d="M168.5 652.5q-15.5 -7.5 -28.5 -20.5l-23 88q27 16 57.5 24.5t57.5 8.5q46 0 76.5 -27t30.5 -75t-32 -82t-76 -51l-45 70q18 8 29.5 21.5t11.5 26.5q0 11 -7.5 17.5t-21.5 6.5t-29.5 -7.5zM386 443.5q49 -53.5 49 -156.5v-321h-128q-1 18 -7 59q-37 -72 -118 -72
q-65 0 -109.5 39.5t-44.5 120.5q0 58 25.5 98.5t68 60.5t92.5 20q37 0 70 -10q-3 46 -17 64t-38 18q-26 0 -41.5 -15.5t-26.5 -42.5l-111 69q25 58 74.5 90t120.5 32q92 0 141 -53.5zM284 170q-20 6 -38 6q-28 0 -46 -14.5t-18 -39.5q0 -22 11.5 -32.5t31.5 -10.5
q26 0 42.5 20.5t16.5 61.5v9z" />
    <glyph glyph-name="uni1EA4" unicode="&#x1ea4;" horiz-adv-x="662" 
d="M393 847l61 92h158l-97 -92h-122zM281 833h96l116 -93h-131l-33 30l-34 -30h-131zM404 698l247 -732h-174l-45 151h-214l-43 -151h-163l239 732h153zM391 259l-67 232l-67 -232h134z" />
    <glyph glyph-name="uni1EA5" unicode="&#x1ea5;" horiz-adv-x="477" 
d="M336 885h152l-105 -144h-115zM269 545l-39 65l-39 -65h-125l116 170h96l116 -170h-125zM386 443.5q49 -53.5 49 -156.5v-321h-128q-1 18 -7 59q-37 -72 -118 -72q-65 0 -109.5 39.5t-44.5 120.5q0 58 25.5 98.5t68 60.5t92.5 20q37 0 70 -10q-3 46 -17 64t-38 18
q-26 0 -41.5 -15.5t-26.5 -42.5l-111 69q25 58 74.5 90t120.5 32q92 0 141 -53.5zM284 170q-20 6 -38 6q-28 0 -46 -14.5t-18 -39.5q0 -22 11.5 -32.5t31.5 -10.5q26 0 42.5 20.5t16.5 61.5v9z" />
    <glyph glyph-name="uni1EA6" unicode="&#x1ea6;" horiz-adv-x="662" 
d="M438 939l61 -92h-122l-97 92h158zM362 740l-33 30l-34 -30h-131l117 93h96l116 -93h-131zM12 -34l239 732h153l247 -732h-174l-45 151h-214l-43 -151h-163zM391 259l-67 232l-67 -232h134z" />
    <glyph glyph-name="uni1EA7" unicode="&#x1ea7;" horiz-adv-x="477" 
d="M332 885l68 -144h-115l-105 144h152zM269 545l-39 65l-39 -65h-125l116 170h96l116 -170h-125zM386 443.5q49 -53.5 49 -156.5v-321h-128q-1 18 -7 59q-37 -72 -118 -72q-65 0 -109.5 39.5t-44.5 120.5q0 58 25.5 98.5t68 60.5t92.5 20q37 0 70 -10q-3 46 -17 64t-38 18
q-26 0 -41.5 -15.5t-26.5 -42.5l-111 69q25 58 74.5 90t120.5 32q92 0 141 -53.5zM284 170q-20 6 -38 6q-28 0 -46 -14.5t-18 -39.5q0 -22 11.5 -32.5t31.5 -10.5q26 0 42.5 20.5t16.5 61.5v9z" />
    <glyph glyph-name="uni1EA8" unicode="&#x1ea8;" horiz-adv-x="662" 
d="M323 936q52 20 115 20q47 0 78.5 -13.5t31.5 -39.5q0 -27 -32.5 -45t-78.5 -28l-40 44q47 6 47 16q0 7 -28 7q-40 0 -71 -12zM281 833h96l116 -93h-131l-33 30l-34 -30h-131zM404 698l247 -732h-174l-45 151h-214l-43 -151h-163l239 732h153zM391 259l-67 232l-67 -232
h134z" />
    <glyph glyph-name="uni1EA9" unicode="&#x1ea9;" horiz-adv-x="477" 
d="M250 802l-20 83q23 15 53 23.5t55 8.5q47 0 77.5 -27t30.5 -78q0 -46 -32 -80t-76 -50l-45 70q18 9 29.5 22.5t11.5 28.5q0 13 -7.5 20t-21.5 7q-27 0 -55 -28zM269 545l-39 65l-39 -65h-125l116 170h96l116 -170h-125zM386 443.5q49 -53.5 49 -156.5v-321h-128
q-1 18 -7 59q-37 -72 -118 -72q-65 0 -109.5 39.5t-44.5 120.5q0 58 25.5 98.5t68 60.5t92.5 20q37 0 70 -10q-3 46 -17 64t-38 18q-26 0 -41.5 -15.5t-26.5 -42.5l-111 69q25 58 74.5 90t120.5 32q92 0 141 -53.5zM284 170q-20 6 -38 6q-28 0 -46 -14.5t-18 -39.5
q0 -22 11.5 -32.5t31.5 -10.5q26 0 42.5 20.5t16.5 61.5v9z" />
    <glyph glyph-name="uni1EAA" unicode="&#x1eaa;" horiz-adv-x="662" 
d="M275 870q-6 -6 -9 -19h-91q3 42 30 65t74 23q24 0 41.5 -5t38.5 -14q22 -9 30 -9q21 0 26 25h91q-3 -42 -30 -65.5t-74 -23.5q-23 0 -39.5 5t-38.5 14q-20 10 -32 10q-11 0 -17 -6zM362 740l-33 30l-34 -30h-131l117 93h96l116 -93h-131zM12 -34l239 732h153l247 -732
h-174l-45 151h-214l-43 -151h-163zM391 259l-67 232l-67 -232h134z" />
    <glyph glyph-name="uni1EAB" unicode="&#x1eab;" horiz-adv-x="477" 
d="M161.5 793q-6.5 -13 -9.5 -38h-95q3 71 31 110t78 39q25 0 43.5 -10t39.5 -28q23 -19 32 -19q22 0 27 51h96q-3 -70 -31.5 -109.5t-78.5 -39.5q-24 0 -42.5 10t-39.5 28q-3 2 -10 8t-12.5 8.5t-10.5 2.5q-11 0 -17.5 -13zM278 715l116 -170h-125l-39 65l-39 -65h-125
l117 170h95zM386 443.5q49 -53.5 49 -156.5v-321h-128q-1 18 -7 59q-37 -72 -118 -72q-65 0 -109.5 39.5t-44.5 120.5q0 58 25.5 98.5t68 60.5t92.5 20q37 0 70 -10q-3 46 -17 64t-38 18q-26 0 -41.5 -15.5t-26.5 -42.5l-111 69q25 58 74.5 90t120.5 32q92 0 141 -53.5z
M284 170q-20 6 -38 6q-28 0 -46 -14.5t-18 -39.5q0 -22 11.5 -32.5t31.5 -10.5q26 0 42.5 20.5t16.5 61.5v9z" />
    <glyph glyph-name="uni1EAC" unicode="&#x1eac;" horiz-adv-x="662" 
d="M281 917h96l116 -157h-125l-39 59l-40 -59h-125zM404 698l247 -732h-174l-45 151h-214l-43 -151h-163l239 732h153zM391 259l-67 232l-67 -232h134zM259.5 -219q-27.5 23 -27.5 55t27.5 55t66.5 23q38 0 66.5 -23t28.5 -55t-28 -55t-67 -23t-66.5 23z" />
    <glyph glyph-name="uni1EAD" unicode="&#x1ead;" horiz-adv-x="477" 
d="M269 545l-39 65l-39 -65h-125l116 170h96l116 -170h-125zM386 443.5q49 -53.5 49 -156.5v-321h-128q-1 18 -7 59q-37 -72 -118 -72q-65 0 -109.5 39.5t-44.5 120.5q0 58 25.5 98.5t68 60.5t92.5 20q37 0 70 -10q-3 46 -17 64t-38 18q-26 0 -41.5 -15.5t-26.5 -42.5
l-111 69q25 58 74.5 90t120.5 32q92 0 141 -53.5zM284 170q-20 6 -38 6q-28 0 -46 -14.5t-18 -39.5q0 -22 11.5 -32.5t31.5 -10.5q26 0 42.5 20.5t16.5 61.5v9zM308.5 -109q28.5 -23 28.5 -55t-28 -55t-67 -23t-66.5 23t-27.5 55t27.5 55t66.5 23q38 0 66.5 -23z" />
    <glyph glyph-name="uni1EAE" unicode="&#x1eae;" horiz-adv-x="662" 
d="M276 861l60 91h159l-97 -91h-122zM211.5 765q-42.5 26 -42.5 67h122q1 -11 10 -18t28 -7q18 0 27.5 7t10.5 18h122q0 -41 -43 -67t-117 -26q-75 0 -117.5 26zM404 698l247 -732h-174l-45 151h-214l-43 -151h-163l239 732h153zM391 259l-67 232l-67 -232h134z" />
    <glyph glyph-name="uni1EAF" unicode="&#x1eaf;" horiz-adv-x="477" 
d="M240 894h152l-105 -144h-115zM120.5 590.5q-42.5 45.5 -42.5 124.5h122q2 -74 38 -74q37 0 39 74h122q0 -79 -43 -124.5t-118 -45.5t-117.5 45.5zM386 443.5q49 -53.5 49 -156.5v-321h-128q-1 18 -7 59q-37 -72 -118 -72q-65 0 -109.5 39.5t-44.5 120.5q0 58 25.5 98.5
t68 60.5t92.5 20q37 0 70 -10q-3 46 -17 64t-38 18q-26 0 -41.5 -15.5t-26.5 -42.5l-111 69q25 58 74.5 90t120.5 32q92 0 141 -53.5zM284 170q-20 6 -38 6q-28 0 -46 -14.5t-18 -39.5q0 -22 11.5 -32.5t31.5 -10.5q26 0 42.5 20.5t16.5 61.5v9z" />
    <glyph glyph-name="uni1EB0" unicode="&#x1eb0;" horiz-adv-x="662" 
d="M259 861l-97 91h159l60 -91h-122zM291 832q1 -11 10 -18t28 -7q18 0 27.5 7t10.5 18h122q0 -41 -43 -67t-117 -26q-75 0 -117.5 26t-42.5 67h122zM175 -34h-163l239 732h153l247 -732h-174l-45 151h-214zM324 491l-67 -232h134z" />
    <glyph glyph-name="uni1EB1" unicode="&#x1eb1;" horiz-adv-x="477" 
d="M236 894l68 -144h-115l-105 144h152zM120.5 590.5q-42.5 45.5 -42.5 124.5h122q2 -74 38 -74q37 0 39 74h122q0 -79 -43 -124.5t-118 -45.5t-117.5 45.5zM386 443.5q49 -53.5 49 -156.5v-321h-128q-1 18 -7 59q-37 -72 -118 -72q-65 0 -109.5 39.5t-44.5 120.5
q0 58 25.5 98.5t68 60.5t92.5 20q37 0 70 -10q-3 46 -17 64t-38 18q-26 0 -41.5 -15.5t-26.5 -42.5l-111 69q25 58 74.5 90t120.5 32q92 0 141 -53.5zM284 170q-20 6 -38 6q-28 0 -46 -14.5t-18 -39.5q0 -22 11.5 -32.5t31.5 -10.5q26 0 42.5 20.5t16.5 61.5v9z" />
    <glyph glyph-name="uni1EB2" unicode="&#x1eb2;" horiz-adv-x="661" 
d="M208 950q54 19 115 19q48 0 79 -13.5t31 -39.5t-33 -44.5t-78 -28.5l-40 45q47 6 47 16q0 7 -28 7q-38 0 -71 -12zM211.5 765q-42.5 26 -42.5 67h122q1 -11 10 -18t28 -7q18 0 27.5 7t10.5 18h122q0 -41 -43 -67t-117 -26q-75 0 -117.5 26zM404 698l247 -732h-174
l-45 151h-214l-43 -151h-163l239 732h153zM391 259l-67 232l-67 -232h134z" />
    <glyph glyph-name="uni1EB3" unicode="&#x1eb3;" horiz-adv-x="477" 
d="M168.5 857.5q-15.5 -7.5 -28.5 -20.5l-23 88q27 16 57.5 24.5t57.5 8.5q46 0 76.5 -27t30.5 -75t-32 -82t-76 -51l-45 70q18 8 29.5 21.5t11.5 26.5q0 11 -7.5 17.5t-21.5 6.5t-29.5 -7.5zM120.5 590.5q-42.5 45.5 -42.5 124.5h122q2 -74 38 -74q37 0 39 74h122
q0 -79 -43 -124.5t-118 -45.5t-117.5 45.5zM386 443.5q49 -53.5 49 -156.5v-321h-128q-1 18 -7 59q-37 -72 -118 -72q-65 0 -109.5 39.5t-44.5 120.5q0 58 25.5 98.5t68 60.5t92.5 20q37 0 70 -10q-3 46 -17 64t-38 18q-26 0 -41.5 -15.5t-26.5 -42.5l-111 69q25 58 74.5 90
t120.5 32q92 0 141 -53.5zM284 170q-20 6 -38 6q-28 0 -46 -14.5t-18 -39.5q0 -22 11.5 -32.5t31.5 -10.5q26 0 42.5 20.5t16.5 61.5v9z" />
    <glyph glyph-name="uni1EB4" unicode="&#x1eb4;" horiz-adv-x="662" 
d="M163 868q3 42 30 65t74 23q24 0 40.5 -5t38.5 -14t31 -9q21 0 26 24h91q-3 -42 -30 -65t-74 -23q-23 0 -40.5 5t-37.5 13q-22 10 -32 10q-11 0 -17 -6t-9 -18h-91zM211.5 765q-42.5 26 -42.5 67h122q1 -11 10 -18t28 -7q18 0 27.5 7t10.5 18h122q0 -41 -43 -67t-117 -26
q-75 0 -117.5 26zM404 698l247 -732h-174l-45 151h-214l-43 -151h-163l239 732h153zM391 259l-67 232l-67 -232h134z" />
    <glyph glyph-name="uni1EB5" unicode="&#x1eb5;" horiz-adv-x="477" 
d="M164 763h-91q3 70 30 110t74 40q23 0 40.5 -10t37.5 -28q8 -7 16.5 -13t14.5 -6q23 0 26 50h91q-3 -70 -30 -109.5t-74 -39.5q-23 0 -39 9.5t-38 27.5q-23 19 -32 19q-21 0 -26 -50zM277 715h122q0 -79 -43 -124.5t-118 -45.5t-117.5 45.5t-42.5 124.5h122q2 -74 38 -74
q37 0 39 74zM386 443.5q49 -53.5 49 -156.5v-321h-128q-1 18 -7 59q-37 -72 -118 -72q-65 0 -109.5 39.5t-44.5 120.5q0 58 25.5 98.5t68 60.5t92.5 20q37 0 70 -10q-3 46 -17 64t-38 18q-26 0 -41.5 -15.5t-26.5 -42.5l-111 69q25 58 74.5 90t120.5 32q92 0 141 -53.5z
M284 170q-20 6 -38 6q-28 0 -46 -14.5t-18 -39.5q0 -22 11.5 -32.5t31.5 -10.5q26 0 42.5 20.5t16.5 61.5v9z" />
    <glyph glyph-name="uni1EB6" unicode="&#x1eb6;" horiz-adv-x="662" 
d="M211.5 802.5q-42.5 43.5 -42.5 114.5h122q1 -28 10.5 -45t27.5 -17t27.5 17.5t10.5 44.5h122q0 -71 -42.5 -114.5t-117.5 -43.5t-117.5 43.5zM404 698l247 -732h-174l-45 151h-214l-43 -151h-163l239 732h153zM391 259l-67 232l-67 -232h134zM259.5 -219
q-27.5 23 -27.5 55t27.5 55t66.5 23q38 0 66.5 -23t28.5 -55t-28 -55t-67 -23t-66.5 23z" />
    <glyph glyph-name="uni1EB7" unicode="&#x1eb7;" horiz-adv-x="477" 
d="M120.5 590.5q-42.5 45.5 -42.5 124.5h122q2 -74 38 -74q37 0 39 74h122q0 -79 -43 -124.5t-118 -45.5t-117.5 45.5zM386 443.5q49 -53.5 49 -156.5v-321h-128q-1 18 -7 59q-37 -72 -118 -72q-65 0 -109.5 39.5t-44.5 120.5q0 58 25.5 98.5t68 60.5t92.5 20q37 0 70 -10
q-3 46 -17 64t-38 18q-26 0 -41.5 -15.5t-26.5 -42.5l-111 69q25 58 74.5 90t120.5 32q92 0 141 -53.5zM284 170q-20 6 -38 6q-28 0 -46 -14.5t-18 -39.5q0 -22 11.5 -32.5t31.5 -10.5q26 0 42.5 20.5t16.5 61.5v9zM308.5 -109q28.5 -23 28.5 -55t-28 -55t-67 -23t-66.5 23
t-27.5 55t27.5 55t66.5 23q38 0 66.5 -23z" />
    <glyph glyph-name="uni1EB8" unicode="&#x1eb8;" horiz-adv-x="504" 
d="M439 265h-218v-157h253v-142h-415v732h405v-142h-243v-150h218v-141zM204.5 -219q-27.5 23 -27.5 55t27.5 55t66.5 23q38 0 66.5 -23t28.5 -55t-28 -55t-67 -23t-66.5 23z" />
    <glyph glyph-name="uni1EB9" unicode="&#x1eb9;" horiz-adv-x="464" 
d="M391 434q54 -63 54 -179q0 -36 -6 -78h-259q6 -48 23 -69.5t46 -21.5q43 0 69 56l112 -68q-20 -62 -69.5 -91.5t-114.5 -29.5q-96 0 -158.5 65.5t-62.5 205.5q0 96 31.5 157t81.5 88.5t109 27.5q90 0 144 -63zM204.5 348.5q-16.5 -20.5 -22.5 -59.5h114q-1 80 -50 80
q-25 0 -41.5 -20.5zM182.5 -219q-27.5 23 -27.5 55t27.5 55t66.5 23q38 0 66.5 -23t28.5 -55t-28 -55t-67 -23t-66.5 23z" />
    <glyph glyph-name="uni1EBA" unicode="&#x1eba;" horiz-adv-x="504" 
d="M145 913q25 16 55.5 24.5t59.5 8.5q47 0 78.5 -23t31.5 -67q0 -45 -32 -76t-78 -48l-45 70q43 17 43 37q0 19 -27 19q-15 0 -32 -7.5t-31 -20.5zM439 265h-218v-157h253v-142h-415v732h405v-142h-243v-150h218v-141z" />
    <glyph glyph-name="uni1EBB" unicode="&#x1ebb;" horiz-adv-x="464" 
d="M124 720q26 16 56.5 24.5t57.5 8.5q47 0 77 -26.5t30 -75.5t-32 -83.5t-76 -49.5l-45 70q18 8 29.5 21.5t11.5 26.5q0 11 -7.5 17.5t-20.5 6.5q-14 0 -29.5 -7.5t-29.5 -20.5zM391 434q54 -63 54 -179q0 -36 -6 -78h-259q6 -48 23 -69.5t46 -21.5q43 0 69 56l112 -68
q-20 -62 -69.5 -91.5t-114.5 -29.5q-96 0 -158.5 65.5t-62.5 205.5q0 96 31.5 157t81.5 88.5t109 27.5q90 0 144 -63zM204.5 348.5q-16.5 -20.5 -22.5 -59.5h114q-1 80 -50 80q-25 0 -41.5 -20.5z" />
    <glyph glyph-name="uni1EBC" unicode="&#x1ebc;" horiz-adv-x="504" 
d="M103 773q3 70 30 109.5t74 39.5q24 0 41.5 -10t37.5 -28q8 -7 16.5 -13t14.5 -6q21 0 26 51h91q-3 -70 -30 -109.5t-74 -39.5q-23 0 -40 9.5t-38 27.5q-3 2 -13.5 10.5t-18.5 8.5q-11 0 -17 -12.5t-9 -37.5h-91zM439 265h-218v-157h253v-142h-415v732h405v-142h-243v-150
h218v-141z" />
    <glyph glyph-name="uni1EBD" unicode="&#x1ebd;" horiz-adv-x="464" 
d="M79 558q3 70 30.5 109.5t74.5 39.5q22 0 39 -9.5t38 -27.5q22 -20 32 -20q22 0 25 51h91q-3 -70 -30 -109.5t-74 -39.5q-23 0 -39 9.5t-38 27.5q-23 19 -32 19q-20 0 -25 -50h-92zM391 434q54 -63 54 -179q0 -36 -6 -78h-259q6 -48 23 -69.5t46 -21.5q43 0 69 56l112 -68
q-20 -62 -69.5 -91.5t-114.5 -29.5q-96 0 -158.5 65.5t-62.5 205.5q0 96 31.5 157t81.5 88.5t109 27.5q90 0 144 -63zM204.5 348.5q-16.5 -20.5 -22.5 -59.5h114q-1 80 -50 80q-25 0 -41.5 -20.5z" />
    <glyph glyph-name="uni1EBE" unicode="&#x1ebe;" horiz-adv-x="504" 
d="M333 847l61 92h158l-97 -92h-122zM221 833h96l116 -93h-131l-34 30l-33 -30h-131zM439 265h-218v-157h253v-142h-415v732h405v-142h-243v-150h218v-141z" />
    <glyph glyph-name="uni1EBF" unicode="&#x1ebf;" horiz-adv-x="464" 
d="M343 911h152l-105 -170h-115zM275 545l-39 65l-39 -65h-125l117 170h95l116 -170h-125zM391 434q54 -63 54 -179q0 -36 -6 -78h-259q6 -48 23 -69.5t46 -21.5q43 0 69 56l112 -68q-20 -62 -69.5 -91.5t-114.5 -29.5q-96 0 -158.5 65.5t-62.5 205.5q0 96 31.5 157
t81.5 88.5t109 27.5q90 0 144 -63zM296 289q-1 80 -50 80q-25 0 -41.5 -20.5t-22.5 -59.5h114z" />
    <glyph glyph-name="uni1EC0" unicode="&#x1ec0;" horiz-adv-x="504" 
d="M378 939l61 -92h-123l-97 92h159zM302 740l-34 30l-33 -30h-131l117 93h96l116 -93h-131zM439 265h-218v-157h253v-142h-415v732h405v-142h-243v-150h218v-141z" />
    <glyph glyph-name="uni1EC1" unicode="&#x1ec1;" horiz-adv-x="464" 
d="M338 911l68 -170h-115l-105 170h152zM275 545l-39 65l-39 -65h-125l117 170h95l116 -170h-125zM391 434q54 -63 54 -179q0 -36 -6 -78h-259q6 -48 23 -69.5t46 -21.5q43 0 69 56l112 -68q-20 -62 -69.5 -91.5t-114.5 -29.5q-96 0 -158.5 65.5t-62.5 205.5q0 96 31.5 157
t81.5 88.5t109 27.5q90 0 144 -63zM296 289q-1 80 -50 80q-25 0 -41.5 -20.5t-22.5 -59.5h114z" />
    <glyph glyph-name="uni1EC2" unicode="&#x1ec2;" horiz-adv-x="504" 
d="M263 936q52 20 115 20q47 0 78.5 -13.5t31.5 -39.5q0 -27 -32.5 -45t-78.5 -28l-40 44q47 6 47 16q0 7 -28 7q-42 0 -71 -12zM221 833h96l116 -93h-131l-34 30l-33 -30h-131zM439 265h-218v-157h253v-142h-415v732h405v-142h-243v-150h218v-141z" />
    <glyph glyph-name="uni1EC3" unicode="&#x1ec3;" horiz-adv-x="464" 
d="M283.5 822.5q-14.5 -7.5 -27.5 -20.5l-20 83q23 15 53.5 23.5t55.5 8.5q47 0 77 -27t30 -78q0 -46 -32 -80t-76 -50l-45 70q18 9 29.5 22.5t11.5 27.5q0 13 -7.5 20.5t-21.5 7.5q-13 0 -27.5 -7.5zM275 545l-39 65l-39 -65h-125l117 170h95l116 -170h-125zM391 434
q54 -63 54 -179q0 -36 -6 -78h-259q6 -48 23 -69.5t46 -21.5q43 0 69 56l112 -68q-20 -62 -69.5 -91.5t-114.5 -29.5q-96 0 -158.5 65.5t-62.5 205.5q0 96 31.5 157t81.5 88.5t109 27.5q90 0 144 -63zM296 289q-1 80 -50 80q-25 0 -41.5 -20.5t-22.5 -59.5h114z" />
    <glyph glyph-name="uni1EC4" unicode="&#x1ec4;" horiz-adv-x="504" 
d="M215 870q-6 -6 -9 -19h-91q3 42 30 65t74 23q24 0 41.5 -5t38.5 -14q22 -9 30 -9q21 0 26 25h91q-3 -42 -30 -65.5t-74 -23.5q-23 0 -39.5 5t-38.5 14q-20 10 -32 10q-11 0 -17 -6zM302 740l-34 30l-33 -30h-131l117 93h96l116 -93h-131zM439 265h-218v-157h253v-142
h-415v732h405v-142h-243v-150h218v-141z" />
    <glyph glyph-name="uni1EC5" unicode="&#x1ec5;" horiz-adv-x="464" 
d="M167.5 793q-6.5 -13 -9.5 -38h-95q3 70 31.5 109.5t77.5 39.5q24 0 43 -10.5t40 -28.5q3 -2 13.5 -10.5t18.5 -8.5q22 0 27 52h96q-3 -70 -31.5 -109.5t-78.5 -39.5q-24 0 -42.5 10t-39.5 28q-3 2 -10 8t-12.5 8.5t-10.5 2.5q-11 0 -17.5 -13zM285 715l115 -170h-125
l-39 65l-39 -65h-125l117 170h96zM391 434q54 -63 54 -179q0 -36 -6 -78h-259q6 -48 23 -69.5t46 -21.5q43 0 69 56l112 -68q-20 -62 -69.5 -91.5t-114.5 -29.5q-96 0 -158.5 65.5t-62.5 205.5q0 96 31.5 157t81.5 88.5t109 27.5q90 0 144 -63zM296 289q-1 80 -50 80
q-25 0 -41.5 -20.5t-22.5 -59.5h114z" />
    <glyph glyph-name="uni1EC6" unicode="&#x1ec6;" horiz-adv-x="504" 
d="M221 917h96l116 -157h-125l-40 59l-39 -59h-125zM439 265h-218v-157h253v-142h-415v732h405v-142h-243v-150h218v-141zM204.5 -219q-27.5 23 -27.5 55t27.5 55t66.5 23q38 0 66.5 -23t28.5 -55t-28 -55t-67 -23t-66.5 23z" />
    <glyph glyph-name="uni1EC7" unicode="&#x1ec7;" horiz-adv-x="464" 
d="M189 715h95l116 -170h-125l-39 65l-39 -65h-125zM391 434q54 -63 54 -179q0 -36 -6 -78h-259q6 -48 23 -69.5t46 -21.5q43 0 69 56l112 -68q-20 -62 -69.5 -91.5t-114.5 -29.5q-96 0 -158.5 65.5t-62.5 205.5q0 96 31.5 157t81.5 88.5t109 27.5q90 0 144 -63z
M204.5 348.5q-16.5 -20.5 -22.5 -59.5h114q-1 80 -50 80q-25 0 -41.5 -20.5zM182.5 -219q-27.5 23 -27.5 55t27.5 55t66.5 23q38 0 66.5 -23t28.5 -55t-28 -55t-67 -23t-66.5 23z" />
    <glyph glyph-name="uni1EC8" unicode="&#x1ec8;" horiz-adv-x="281" 
d="M17 913q55 33 115 33q47 0 78.5 -23t31.5 -67q0 -45 -32 -76t-78 -48l-45 70q43 17 43 37q0 19 -27 19q-15 0 -32 -7.5t-31 -20.5zM221 -34h-162v732h162v-732z" />
    <glyph glyph-name="uni1EC9" unicode="&#x1ec9;" horiz-adv-x="250" 
d="M5 720q26 16 56.5 24.5t57.5 8.5q47 0 77.5 -27t30.5 -75t-32 -82t-76 -51l-45 70q18 8 29.5 21.5t11.5 26.5q0 11 -7.5 17.5t-21.5 6.5t-30 -7.5t-29 -20.5zM202 -34h-154v517h154v-517z" />
    <glyph glyph-name="uni1ECA" unicode="&#x1eca;" horiz-adv-x="281" 
d="M221 -34h-162v732h162v-732zM74 -219q-28 23 -28 55t27.5 55t67.5 23q38 0 66.5 -23t28.5 -55t-28 -55t-67 -23t-67 23z" />
    <glyph glyph-name="uni1ECB" unicode="&#x1ecb;" horiz-adv-x="250" 
d="M63 572.5q-26 26.5 -26 62.5q0 37 25.5 63t62.5 26q34 0 60.5 -26.5t26.5 -62.5q0 -35 -26.5 -62t-60.5 -27q-36 0 -62 26.5zM202 -34h-155v517h155v-517zM59 -219q-28 23 -28 55t27.5 55t67.5 23q38 0 66.5 -23t28.5 -55t-28 -55t-67 -23t-67 23z" />
    <glyph glyph-name="uni1ECC" unicode="&#x1ecc;" horiz-adv-x="648" 
d="M71 545.5q37 84.5 102 125.5t151 41q85 0 150.5 -41t102.5 -126t37 -212q0 -128 -37 -213.5t-102 -126t-151 -40.5q-132 0 -211 94.5t-79 285.5q0 128 37 212.5zM235.5 159q31.5 -56 89.5 -56t88 55.5t30 174.5q0 118 -30 173.5t-88 55.5q-121 0 -121 -229
q0 -118 31.5 -174zM257.5 -219q-27.5 23 -27.5 55t27.5 55t66.5 23t67.5 -23t28.5 -55t-28 -55t-68 -23q-39 0 -66.5 23z" />
    <glyph glyph-name="uni1ECD" unicode="&#x1ecd;" horiz-adv-x="502" 
d="M56.5 381q31.5 61 82.5 88.5t113 27.5q97 0 161 -66t64 -206t-64 -206t-161 -66q-62 0 -113 27.5t-82.5 88.5t-31.5 156t31.5 156zM202.5 122.5q18.5 -32.5 49.5 -32.5q30 0 47.5 32.5t17.5 102.5t-17.5 102.5t-47.5 32.5q-31 0 -49.5 -32.5t-18.5 -102.5t18.5 -102.5z
M184.5 -219q-27.5 23 -27.5 55t27.5 55t66.5 23q38 0 66.5 -23t28.5 -55t-28 -55t-67 -23t-66.5 23z" />
    <glyph glyph-name="uni1ECE" unicode="&#x1ece;" horiz-adv-x="648" 
d="M201 913q25 16 55.5 24.5t59.5 8.5q47 0 78.5 -23t31.5 -67q0 -45 -32 -76t-78 -48l-45 70q43 18 43 37t-27 19q-15 0 -32 -7.5t-32 -20.5zM71 545.5q37 84.5 102 125.5t151 41q85 0 150.5 -41t102.5 -126t37 -212q0 -128 -37 -213.5t-102 -126t-151 -40.5
q-132 0 -211 94.5t-79 285.5q0 128 37 212.5zM235.5 159q31.5 -56 89.5 -56t88 55.5t30 174.5q0 118 -30 173.5t-88 55.5q-121 0 -121 -229q0 -118 31.5 -174z" />
    <glyph glyph-name="uni1ECF" unicode="&#x1ecf;" horiz-adv-x="502" 
d="M131 720q26 16 57 24.5t58 8.5q46 0 76.5 -27t30.5 -75t-32 -82.5t-76 -50.5l-45 70q18 8 29.5 21.5t11.5 26.5q0 11 -7.5 17.5t-21.5 6.5q-13 0 -28.5 -7.5t-29.5 -20.5zM56.5 381q31.5 61 82.5 88.5t113 27.5q97 0 161 -66t64 -206t-64 -206t-161 -66q-62 0 -113 27.5
t-82.5 88.5t-31.5 156t31.5 156zM202.5 122.5q18.5 -32.5 49.5 -32.5q30 0 47.5 32.5t17.5 102.5t-17.5 102.5t-47.5 32.5q-31 0 -49.5 -32.5t-18.5 -102.5t18.5 -102.5z" />
    <glyph glyph-name="uni1ED0" unicode="&#x1ed0;" horiz-adv-x="648" 
d="M390 847l60 92h159l-97 -92h-122zM278 833h96l115 -93h-130l-34 30l-33 -30h-131zM71 545.5q37 84.5 102 125.5t151 41q85 0 150.5 -41t102.5 -126t37 -212q0 -128 -37 -213.5t-102 -126t-151 -40.5q-132 0 -211 94.5t-79 285.5q0 128 37 212.5zM235.5 159
q31.5 -56 89.5 -56t88 55.5t30 174.5q0 118 -30 173.5t-88 55.5q-121 0 -121 -229q0 -118 31.5 -174z" />
    <glyph glyph-name="uni1ED1" unicode="&#x1ed1;" horiz-adv-x="502" 
d="M350 885h151l-104 -144h-115zM283 545l-39 65l-39 -65h-125l116 170h96l116 -170h-125zM413 431q64 -66 64 -206t-64 -206t-161 -66q-62 0 -113 27.5t-82.5 88.5t-31.5 156t31.5 156t82.5 88.5t113 27.5q97 0 161 -66zM299.5 122.5q17.5 32.5 17.5 102.5t-17.5 102.5
t-47.5 32.5q-31 0 -49.5 -32.5t-18.5 -102.5t18.5 -102.5t49.5 -32.5q30 0 47.5 32.5z" />
    <glyph glyph-name="uni1ED2" unicode="&#x1ed2;" horiz-adv-x="648" 
d="M435 939l61 -92h-123l-97 92h159zM359 740l-34 30l-33 -30h-131l117 93h96l115 -93h-130zM71 545.5q37 84.5 102 125.5t151 41q85 0 150.5 -41t102.5 -126t37 -212q0 -128 -37 -213.5t-102 -126t-151 -40.5q-132 0 -211 94.5t-79 285.5q0 128 37 212.5zM235.5 159
q31.5 -56 89.5 -56t88 55.5t30 174.5q0 118 -30 173.5t-88 55.5q-121 0 -121 -229q0 -118 31.5 -174z" />
    <glyph glyph-name="uni1ED3" unicode="&#x1ed3;" horiz-adv-x="502" 
d="M346 885l68 -144h-115l-105 144h152zM283 545l-39 65l-39 -65h-125l116 170h96l116 -170h-125zM413 431q64 -66 64 -206t-64 -206t-161 -66q-62 0 -113 27.5t-82.5 88.5t-31.5 156t31.5 156t82.5 88.5t113 27.5q97 0 161 -66zM299.5 122.5q17.5 32.5 17.5 102.5
t-17.5 102.5t-47.5 32.5q-31 0 -49.5 -32.5t-18.5 -102.5t18.5 -102.5t49.5 -32.5q30 0 47.5 32.5z" />
    <glyph glyph-name="uni1ED4" unicode="&#x1ed4;" horiz-adv-x="648" 
d="M319 936q52 20 115 20q47 0 78.5 -13.5t31.5 -39.5q0 -27 -32.5 -45t-78.5 -28l-40 44q47 6 47 16q0 7 -28 7q-42 0 -71 -12zM277 833h96l116 -93h-131l-34 30l-33 -30h-131zM71 545.5q37 84.5 102 125.5t151 41q85 0 150.5 -41t102.5 -126t37 -212q0 -128 -37 -213.5
t-102 -126t-151 -40.5q-132 0 -211 94.5t-79 285.5q0 128 37 212.5zM235.5 159q31.5 -56 89.5 -56t88 55.5t30 174.5q0 118 -30 173.5t-88 55.5q-121 0 -121 -229q0 -118 31.5 -174z" />
    <glyph glyph-name="uni1ED5" unicode="&#x1ed5;" horiz-adv-x="502" 
d="M264 802l-21 83q24 15 54 23.5t55 8.5q47 0 77.5 -27t30.5 -78q0 -46 -32 -80t-76 -50l-45 70q18 9 29.5 22.5t11.5 27.5q0 13 -7.5 20.5t-21.5 7.5q-27 0 -55 -28zM283 545l-39 65l-39 -65h-125l116 170h96l116 -170h-125zM413 431q64 -66 64 -206t-64 -206t-161 -66
q-62 0 -113 27.5t-82.5 88.5t-31.5 156t31.5 156t82.5 88.5t113 27.5q97 0 161 -66zM299.5 122.5q17.5 32.5 17.5 102.5t-17.5 102.5t-47.5 32.5q-31 0 -49.5 -32.5t-18.5 -102.5t18.5 -102.5t49.5 -32.5q30 0 47.5 32.5z" />
    <glyph glyph-name="uni1ED6" unicode="&#x1ed6;" horiz-adv-x="648" 
d="M271 870q-6 -6 -9 -19h-91q3 42 30 65t74 23q24 0 40.5 -5t38.5 -14t31 -9q21 0 26 25h91q-3 -42 -30 -65.5t-74 -23.5q-23 0 -39.5 5t-38.5 14q-22 10 -32 10q-11 0 -17 -6zM358 740l-34 30l-33 -30h-131l117 93h96l116 -93h-131zM71 545.5q37 84.5 102 125.5t151 41
q85 0 150.5 -41t102.5 -126t37 -212q0 -128 -37 -213.5t-102 -126t-151 -40.5q-132 0 -211 94.5t-79 285.5q0 128 37 212.5zM235.5 159q31.5 -56 89.5 -56t88 55.5t30 174.5q0 118 -30 173.5t-88 55.5q-121 0 -121 -229q0 -118 31.5 -174z" />
    <glyph glyph-name="uni1ED7" unicode="&#x1ed7;" horiz-adv-x="502" 
d="M175.5 793q-6.5 -13 -9.5 -38h-96q3 70 31.5 109.5t78.5 39.5q24 0 43 -10.5t40 -28.5q23 -19 32 -19q22 0 27 52h96q-3 -70 -31.5 -109.5t-78.5 -39.5q-24 0 -42.5 10t-39.5 28q-3 2 -10 8t-12.5 8.5t-10.5 2.5q-11 0 -17.5 -13zM292 715l116 -170h-125l-39 65l-39 -65
h-125l116 170h96zM413 431q64 -66 64 -206t-64 -206t-161 -66q-62 0 -113 27.5t-82.5 88.5t-31.5 156t31.5 156t82.5 88.5t113 27.5q97 0 161 -66zM299.5 122.5q17.5 32.5 17.5 102.5t-17.5 102.5t-47.5 32.5q-31 0 -49.5 -32.5t-18.5 -102.5t18.5 -102.5t49.5 -32.5
q30 0 47.5 32.5z" />
    <glyph glyph-name="uni1ED8" unicode="&#x1ed8;" horiz-adv-x="648" 
d="M277 917h96l116 -157h-126l-39 59l-39 -59h-125zM71 545.5q37 84.5 102 125.5t151 41q85 0 150.5 -41t102.5 -126t37 -212q0 -128 -37 -213.5t-102 -126t-151 -40.5q-132 0 -211 94.5t-79 285.5q0 128 37 212.5zM235.5 159q31.5 -56 89.5 -56t88 55.5t30 174.5
q0 118 -30 173.5t-88 55.5q-121 0 -121 -229q0 -118 31.5 -174zM257.5 -219q-27.5 23 -27.5 55t27.5 55t66.5 23t67.5 -23t28.5 -55t-28 -55t-68 -23q-39 0 -66.5 23z" />
    <glyph glyph-name="uni1ED9" unicode="&#x1ed9;" horiz-adv-x="502" 
d="M196 715h96l116 -170h-125l-39 65l-39 -65h-125zM56.5 381q31.5 61 82.5 88.5t113 27.5q97 0 161 -66t64 -206t-64 -206t-161 -66q-62 0 -113 27.5t-82.5 88.5t-31.5 156t31.5 156zM202.5 122.5q18.5 -32.5 49.5 -32.5q30 0 47.5 32.5t17.5 102.5t-17.5 102.5t-47.5 32.5
q-31 0 -49.5 -32.5t-18.5 -102.5t18.5 -102.5zM184.5 -219q-27.5 23 -27.5 55t27.5 55t66.5 23q38 0 66.5 -23t28.5 -55t-28 -55t-67 -23t-66.5 23z" />
    <glyph glyph-name="uni1EDA" unicode="&#x1eda;" horiz-adv-x="642" 
d="M333 917h151l-104 -156h-115zM611 639.5q-24 -37.5 -80 -45.5q83 -93 83 -261q0 -128 -38 -213t-103.5 -126t-148.5 -41t-148.5 41t-103.5 126t-38 213q0 127 38.5 212t106 126t156.5 41q29 0 73 -8q36 -6 51 -6q27 0 39 14.5t12 56.5q0 27 -6 58h124q7 -34 7 -72
q0 -78 -24 -115.5zM413 158.5q30 55.5 30 174.5q0 118 -30 173.5t-88 55.5q-121 0 -121 -229q0 -118 31.5 -174t89.5 -56t88 55.5z" />
    <glyph glyph-name="uni1EDB" unicode="&#x1edb;" horiz-adv-x="534" 
d="M249 715h152l-105 -170h-115zM515.5 428q-23.5 -37 -71.5 -47q32 -56 32 -156q0 -95 -31 -156t-81.5 -88.5t-111.5 -27.5q-62 0 -113 27.5t-82.5 88.5t-31.5 156q0 140 66.5 206t170.5 66q30 0 77 -9q22 -5 33 -5q21 0 31.5 13t10.5 52q0 35 -4 64h124q5 -40 5 -72
q0 -75 -23.5 -112zM299 123.5q18 33.5 18 101.5q0 69 -17.5 102t-47.5 33q-31 0 -49.5 -33t-18.5 -102t18.5 -102t49.5 -33q29 0 47 33.5z" />
    <glyph glyph-name="uni1EDC" unicode="&#x1edc;" horiz-adv-x="642" 
d="M303 917l68 -156h-115l-105 156h152zM611 639.5q-24 -37.5 -80 -45.5q83 -93 83 -261q0 -128 -38 -213t-103.5 -126t-148.5 -41t-148.5 41t-103.5 126t-38 213q0 127 38.5 212t106 126t156.5 41q29 0 73 -8q36 -6 51 -6q27 0 39 14.5t12 56.5q0 27 -6 58h124q7 -34 7 -72
q0 -78 -24 -115.5zM413 158.5q30 55.5 30 174.5q0 118 -30 173.5t-88 55.5q-121 0 -121 -229q0 -118 31.5 -174t89.5 -56t88 55.5z" />
    <glyph glyph-name="uni1EDD" unicode="&#x1edd;" horiz-adv-x="534" 
d="M244 715l68 -170h-115l-104 170h151zM515.5 428q-23.5 -37 -71.5 -47q32 -56 32 -156q0 -95 -31 -156t-81.5 -88.5t-111.5 -27.5q-62 0 -113 27.5t-82.5 88.5t-31.5 156q0 140 66.5 206t170.5 66q30 0 77 -9q22 -5 33 -5q21 0 31.5 13t10.5 52q0 35 -4 64h124
q5 -40 5 -72q0 -75 -23.5 -112zM299 123.5q18 33.5 18 101.5q0 69 -17.5 102t-47.5 33q-31 0 -49.5 -33t-18.5 -102t18.5 -102t49.5 -33q29 0 47 33.5z" />
    <glyph glyph-name="uni1EDE" unicode="&#x1ede;" horiz-adv-x="642" 
d="M217 831l-22 82q53 33 115 33q47 0 78.5 -23t31.5 -67t-32.5 -75.5t-78.5 -48.5l-45 71q19 7 31.5 16t12.5 20q0 9 -7.5 14t-20.5 5q-31 0 -63 -27zM611 639.5q-24 -37.5 -80 -45.5q83 -93 83 -261q0 -128 -38 -213t-103.5 -126t-148.5 -41t-148.5 41t-103.5 126t-38 213
q0 127 38.5 212t106 126t156.5 41q29 0 73 -8q36 -6 51 -6q27 0 39 14.5t12 56.5q0 27 -6 58h124q7 -34 7 -72q0 -78 -24 -115.5zM413 158.5q30 55.5 30 174.5q0 118 -30 173.5t-88 55.5q-121 0 -121 -229q0 -118 31.5 -174t89.5 -56t88 55.5z" />
    <glyph glyph-name="uni1EDF" unicode="&#x1edf;" horiz-adv-x="534" 
d="M177 652.5q-16 -7.5 -29 -20.5l-22 88q26 16 56.5 24.5t57.5 8.5q47 0 77 -26.5t30 -75.5q0 -48 -31.5 -82.5t-76.5 -50.5l-45 70q18 8 29.5 21.5t11.5 26.5q0 11 -7.5 17.5t-20.5 6.5q-14 0 -30 -7.5zM515.5 428q-23.5 -37 -71.5 -47q32 -56 32 -156q0 -95 -31 -156
t-81.5 -88.5t-111.5 -27.5q-62 0 -113 27.5t-82.5 88.5t-31.5 156q0 140 66.5 206t170.5 66q30 0 77 -9q22 -5 33 -5q21 0 31.5 13t10.5 52q0 35 -4 64h124q5 -40 5 -72q0 -75 -23.5 -112zM299 123.5q18 33.5 18 101.5q0 69 -17.5 102t-47.5 33q-31 0 -49.5 -33t-18.5 -102
t18.5 -102t49.5 -33q29 0 47 33.5z" />
    <glyph glyph-name="uni1EE0" unicode="&#x1ee0;" horiz-adv-x="642" 
d="M252 810.5q-6 -12.5 -9 -37.5h-91q3 70 30 109.5t74 39.5q24 0 41.5 -10t38.5 -28q21 -19 30 -19q21 0 26 51h91q-3 -70 -30 -109.5t-74 -39.5q-23 0 -40 9.5t-38 27.5q-23 19 -32 19q-11 0 -17 -12.5zM611 639.5q-24 -37.5 -80 -45.5q83 -93 83 -261q0 -128 -38 -213
t-103.5 -126t-148.5 -41t-148.5 41t-103.5 126t-38 213q0 127 38.5 212t106 126t156.5 41q29 0 73 -8q36 -6 51 -6q27 0 39 14.5t12 56.5q0 27 -6 58h124q7 -34 7 -72q0 -78 -24 -115.5zM413 158.5q30 55.5 30 174.5q0 118 -30 173.5t-88 55.5q-121 0 -121 -229
q0 -118 31.5 -174t89.5 -56t88 55.5z" />
    <glyph glyph-name="uni1EE1" unicode="&#x1ee1;" horiz-adv-x="534" 
d="M173 558h-91q3 70 30 110t74 40q23 0 39 -9.5t38 -27.5q22 -20 32 -20q22 0 25 50h91q-3 -70 -30 -109.5t-74 -39.5q-23 0 -39 9.5t-38 27.5q-23 19 -32 19q-20 0 -25 -50zM515.5 428q-23.5 -37 -71.5 -47q32 -56 32 -156q0 -95 -31 -156t-81.5 -88.5t-111.5 -27.5
q-62 0 -113 27.5t-82.5 88.5t-31.5 156q0 140 66.5 206t170.5 66q30 0 77 -9q22 -5 33 -5q21 0 31.5 13t10.5 52q0 35 -4 64h124q5 -40 5 -72q0 -75 -23.5 -112zM299 123.5q18 33.5 18 101.5q0 69 -17.5 102t-47.5 33q-31 0 -49.5 -33t-18.5 -102t18.5 -102t49.5 -33
q29 0 47 33.5z" />
    <glyph glyph-name="uni1EE2" unicode="&#x1ee2;" horiz-adv-x="642" 
d="M611 639.5q-24 -37.5 -80 -45.5q83 -93 83 -261q0 -128 -38 -213t-103.5 -126t-148.5 -41t-148.5 41t-103.5 126t-38 213q0 127 38.5 212t106 126t156.5 41q29 0 73 -8q36 -6 51 -6q27 0 39 14.5t12 56.5q0 27 -6 58h124q7 -34 7 -72q0 -78 -24 -115.5zM413 158.5
q30 55.5 30 174.5q0 118 -30 173.5t-88 55.5q-121 0 -121 -229q0 -118 31.5 -174t89.5 -56t88 55.5zM388.5 -109q28.5 -23 28.5 -55t-28 -55t-67 -23t-67 23t-28 55t27.5 55t67.5 23q38 0 66.5 -23z" />
    </font>
</defs>
</svg>
