<?xml version="1.0" standalone="no"?>
<!DOCTYPE svg PUBLIC "-//W3C//DTD SVG 1.1//EN" "http://www.w3.org/Graphics/SVG/1.1/DTD/svg11.dtd" >
<svg xmlns="http://www.w3.org/2000/svg" xmlns:xlink="http://www.w3.org/1999/xlink" version="1.1">
<metadata>
Created by FontForge 20170731 at Fri May 28 14:24:02 2021
 By Aleksey,,,
Copyright 2021 Huawei Device Co., Ltd. All Rights Reserved.
</metadata>
<defs>
<font id="HarmonyOS_Sans_Condensed_Medium" horiz-adv-x="484" >
  <font-face 
    font-family="HarmonyOS Sans Condensed Medium"
    font-weight="500"
    font-stretch="normal"
    units-per-em="1000"
    panose-1="0 0 6 0 0 0 0 0 0 0"
    ascent="800"
    descent="-200"
    x-height="485"
    cap-height="698"
    bbox="-427 -244 1274 978"
    underline-thickness="50"
    underline-position="-150"
    unicode-range="U+0020-301E"
  />
<missing-glyph horiz-adv-x="500" 
d="M93 850h317v-1000h-317v1000zM333 750v33h-165v-33h65v-37h-66v-33h166v33h-66v37h66zM267 584v70h-100v-104h166v34h-66zM200 620h33v-36h-33v36zM333 490v33h-166v-33h66v-37h-66v-33h100v70h66zM333 363v100h-33v-66h-133v-34h166zM333 228v113h-100v-56h34v23h33v-47
h-100v80h-33v-113h166zM333 55v113h-166v-113h166zM200 135h100v-47h-100v47zM333 -1v33h-166v-33h70l-70 -47v-33h166v33h-102l70 47h32z" />
    <glyph glyph-name="f_b.liga" unicode="fb" horiz-adv-x="825" 
d="M205.5 621q-17.5 -27 -17.5 -92v-44h107v-83h-107v-436h-99v436h-72v83h72v50q0 104 43 153.5t112 49.5q34 0 63 -13v-91q-22 14 -48 14q-36 0 -53.5 -27zM691.5 467.5q44.5 -29.5 70.5 -90.5t26 -151q0 -91 -26 -152t-70.5 -90t-99.5 -29q-95 0 -135 87
q-2 -23 -3.5 -44.5t-1.5 -31.5h-86v761h98v-305q41 75 128 75q55 0 99.5 -29.5zM656.5 89.5q29.5 45.5 29.5 136.5q0 90 -30 135t-81 45q-47 0 -79 -41t-32 -139t32 -140t79 -42q52 0 81.5 45.5z" />
    <glyph glyph-name="f_f.liga" unicode="ff" horiz-adv-x="590" 
d="M489 620q-17 -27 -17 -92v-43h108v-83h-108v-436h-98v436h-186v-436h-99v436h-72v83h72v50q0 104 44.5 154t113.5 50q34 0 59 -11t37 -25l-43 -75q-18 20 -47 20q-32 0 -48.5 -27t-16.5 -91v-45h186v46q0 106 45 157t115 51q35 0 61.5 -12.5t38.5 -29.5l-45 -73
q-23 23 -51 23q-32 0 -49 -27z" />
    <glyph glyph-name="f_f_b.liga" unicode="ffb" horiz-adv-x="1110" 
d="M374 535q0 104 42.5 153.5t111.5 49.5q35 0 63 -13v-91q-21 14 -47 14q-37 0 -54.5 -27t-17.5 -92v-44h108v-83h-108v-436h-98v436h-186v-436h-99v436h-72v83h72v50q0 104 44.5 154t113.5 50q34 0 59 -11t37 -25l-43 -75q-18 20 -47 20q-32 0 -48.5 -27t-16.5 -91v-45
h186v50zM975.5 467.5q44.5 -29.5 71 -90.5t26.5 -151q0 -91 -26.5 -152t-70.5 -90t-99 -29q-95 0 -135 87q-2 -23 -3.5 -44.5t-1.5 -31.5h-86v761h97v-305q42 75 129 75q54 0 98.5 -29.5zM940.5 89.5q29.5 45.5 29.5 136.5q0 90 -29.5 135t-80.5 45q-48 0 -80 -41t-32 -139
t32.5 -140t79.5 -42q51 0 80.5 45.5z" />
    <glyph glyph-name="f_f_h.liga" unicode="ffh" horiz-adv-x="1091" 
d="M374 535q0 104 42.5 153.5t111.5 49.5q35 0 63 -13v-91q-21 14 -47 14q-37 0 -54.5 -27t-17.5 -92v-44h108v-83h-108v-436h-98v436h-186v-436h-99v436h-72v83h72v50q0 104 44.5 154t113.5 50q34 0 59 -11t37 -25l-43 -75q-18 20 -47 20q-32 0 -48.5 -27t-16.5 -91v-45
h186v50zM994.5 445.5q41.5 -51.5 41.5 -153.5v-326h-98v296q0 71 -20.5 106t-64.5 35q-45 0 -74 -35.5t-29 -108.5v-293h-98v761h98v-304q22 37 56 55.5t76 18.5q71 0 112.5 -51.5z" />
    <glyph glyph-name="f_f_i.liga" unicode="ffi" horiz-adv-x="812" 
d="M374 535q0 104 43 153.5t111 49.5q42 0 63 -15v-88q-23 13 -46 13q-36 0 -54.5 -27t-18.5 -92v-44h108v-83h-108v-436h-98v436h-186v-436h-99v436h-72v83h72v50q0 104 44.5 154t113.5 50q34 0 59 -11t37 -25l-43 -75q-18 20 -47 20q-32 0 -48.5 -27t-16.5 -91v-45h186v50
zM658 592q-18 19 -18 45q0 25 18 44t42 19q25 0 43.5 -19t18.5 -44q0 -26 -18.5 -45t-43.5 -19q-24 0 -42 19zM750 485v-519h-98v519h98z" />
    <glyph glyph-name="f_f_k.liga" unicode="ffk" horiz-adv-x="1063" 
d="M374 535q0 104 42.5 153.5t111.5 49.5q35 0 63 -13v-91q-21 14 -47 14q-37 0 -54.5 -27t-17.5 -92v-44h108v-83h-108v-436h-98v436h-186v-436h-99v436h-72v83h72v50q0 104 44.5 154t113.5 50q34 0 59 -11t37 -25l-43 -75q-18 20 -47 20q-32 0 -48.5 -27t-16.5 -91v-45
h186v50zM1046 485l-160 -210l178 -309h-121l-123 219l-70 -90v-129h-98v761h98v-355q0 -104 -1 -149q45 66 88 125l99 137h110z" />
    <glyph glyph-name="f_f_l.liga" unicode="ffl" horiz-adv-x="812" 
d="M374 535q0 104 42.5 153.5t111.5 49.5q35 0 63 -13v-91q-21 14 -47 14q-37 0 -54.5 -27t-17.5 -92v-44h108v-83h-108v-436h-98v436h-186v-436h-99v436h-72v83h72v50q0 104 44.5 154t113.5 50q34 0 59 -11t37 -25l-43 -75q-18 20 -47 20q-32 0 -48.5 -27t-16.5 -91v-45
h186v50zM750 -34h-98v761h98v-761z" />
    <glyph glyph-name="f_h.liga" unicode="fh" horiz-adv-x="807" 
d="M205.5 621q-17.5 -27 -17.5 -92v-44h107v-83h-107v-436h-99v436h-72v83h72v50q0 104 43 153.5t112 49.5q34 0 63 -13v-91q-22 14 -48 14q-36 0 -53.5 -27zM710.5 445.5q41.5 -51.5 41.5 -153.5v-326h-99v296q0 71 -20 106t-64 35q-45 0 -74 -35.5t-29 -108.5v-293h-99
v761h99v-304q21 37 55 55.5t77 18.5q71 0 112.5 -51.5z" />
    <glyph glyph-name="f_i.liga" unicode="fi" horiz-adv-x="527" 
d="M206 621q-18 -27 -18 -92v-44h107v-83h-107v-436h-99v436h-72v83h72v50q0 104 43 153.5t111 49.5q43 0 64 -15v-88q-23 13 -46 13q-37 0 -55 -27zM373.5 592q-17.5 19 -17.5 45q0 25 18 44t42 19t42.5 -19t18.5 -44q0 -26 -18 -45t-43 -19t-42.5 19zM466 485v-519h-99
v519h99z" />
    <glyph glyph-name="f_k.liga" unicode="fk" horiz-adv-x="778" 
d="M205.5 621q-17.5 -27 -17.5 -92v-44h107v-83h-107v-436h-99v436h-72v83h72v50q0 104 43 153.5t112 49.5q34 0 63 -13v-91q-22 14 -48 14q-36 0 -53.5 -27zM601 275l178 -309h-120l-124 219l-69 -90v-129h-99v761h99v-355q0 -104 -1 -149q23 35 88 125l98 137h111z" />
    <glyph glyph-name="f_l.liga" unicode="fl" horiz-adv-x="528" 
d="M205.5 621q-17.5 -27 -17.5 -92v-44h107v-83h-107v-436h-99v436h-72v83h72v50q0 104 43 153.5t112 49.5q34 0 63 -13v-91q-22 14 -48 14q-36 0 -53.5 -27zM466 727v-761h-99v761h99z" />
    <glyph glyph-name="r_f.liga" unicode="rf" horiz-adv-x="634" 
d="M533.5 620q-16.5 -27 -16.5 -92v-43h107v-83h-107v-436h-99v436h-72v83h72v46q0 106 45.5 157t115.5 51q35 0 61 -12.5t39 -29.5l-46 -73q-21 23 -51 23q-32 0 -48.5 -27zM309 489v-91q-19 9 -41 9q-48 0 -78 -41.5t-30 -121.5v-278h-98v519h87q3 -55 4 -71
q18 41 47.5 62t66.5 21q24 0 42 -8z" />
    <glyph glyph-name="r_t.liga" unicode="rt" horiz-adv-x="672" 
d="M668 -8q-40 -37 -107 -37q-146 0 -146 181v265h-74v85h74v148h98v-148h127v-85h-127v-248q0 -58 15.5 -82t47.5 -24q31 0 55 22zM309 489v-93q-19 9 -41 9q-48 0 -78 -41.5t-30 -122.5v-275h-98v519h87q3 -55 4 -71q18 41 47.5 62t66.5 21q24 0 42 -8z" />
    <glyph glyph-name="r_v.liga" unicode="rv" horiz-adv-x="793" 
d="M305 489v-93q-20 9 -41 9q-46 0 -75 -42t-29 -122v-275h-98v519h87q3 -54 4 -71q18 41 46 62t64 21q24 0 42 -8zM341 485h110l120 -368l111 368h102l-178 -519h-81z" />
    <glyph glyph-name="r_x.liga" unicode="rx" horiz-adv-x="767" 
d="M305 489v-93q-20 9 -41 9q-46 0 -75 -42t-29 -122v-275h-98v519h87q3 -54 4 -71q18 41 46 62t64 21q24 0 42 -8zM449 485l100 -172l99 172h110l-160 -256l160 -263h-113l-100 173l-99 -173h-110l160 257l-160 262h113z" />
    <glyph glyph-name="r_y.liga" unicode="ry" horiz-adv-x="799" 
d="M305 489v-93q-20 9 -41 9q-46 0 -75 -42t-29 -122v-275h-98v519h87q3 -54 4 -71q18 41 46 62t64 21q24 0 42 -8zM575 104l112 381h102l-185 -569q-27 -84 -63.5 -122t-97.5 -38q-59 0 -95 33l38 77q24 -19 55 -19q30 0 47.5 18t32.5 68l7 21l-186 531h111z" />
    <glyph glyph-name=".notdef" horiz-adv-x="500" 
d="M93 850h317v-1000h-317v1000zM333 750v33h-165v-33h65v-37h-66v-33h166v33h-66v37h66zM267 584v70h-100v-104h166v34h-66zM200 620h33v-36h-33v36zM333 490v33h-166v-33h66v-37h-66v-33h100v70h66zM333 363v100h-33v-66h-133v-34h166zM333 228v113h-100v-56h34v23h33v-47
h-100v80h-33v-113h166zM333 55v113h-166v-113h166zM200 135h100v-47h-100v47zM333 -1v33h-166v-33h70l-70 -47v-33h166v33h-102l70 47h32z" />
    <glyph glyph-name=".null" horiz-adv-x="0" 
 />
    <glyph glyph-name="nonmarkingreturn" horiz-adv-x="333" 
 />
    <glyph glyph-name="space" unicode=" " horiz-adv-x="230" 
 />
    <glyph glyph-name="exclam" unicode="!" horiz-adv-x="205" 
d="M63 182l-15 543h107l-15 -543h-77zM56 -25.5q-19 19.5 -19 45.5q0 28 19 47.5t46 19.5t46.5 -19.5t19.5 -47.5q0 -27 -19 -46t-47 -19q-27 0 -46 19.5z" />
    <glyph glyph-name="quotedbl" unicode="&#x22;" horiz-adv-x="350" 
d="M59 506l-5 263h87l-5 -263h-77zM213 506l-4 263h87l-5 -263h-78z" />
    <glyph glyph-name="numbersign" unicode="#" horiz-adv-x="561" 
d="M469 547h81v-93h-98l-38 -205h82v-93h-99l-36 -193h-95l36 193h-115l-35 -193h-95l35 193h-81v93h99l37 205h-81v93h99l35 194h95l-35 -194h115l35 194h95zM242 454l-37 -205h115l37 205h-115z" />
    <glyph glyph-name="dollar" unicode="$" 
d="M420.5 27q-48.5 -56 -123.5 -68v-135h-88v134q-71 13 -122.5 63.5t-69.5 128.5l82 48q18 -60 44.5 -95.5t67.5 -46.5v239q-55 23 -90.5 45t-60 61t-24.5 99q0 87 49 140.5t124 66.5v126h88v-127q64 -12 108.5 -57.5t56.5 -104.5l-82 -48q-27 90 -85 112v-240
q54 -22 90 -44.5t60 -61.5t24 -98q0 -81 -48.5 -137zM156.5 447q19.5 -25 54.5 -43v209q-36 -9 -55 -36.5t-19 -67.5q0 -37 19.5 -62zM295 53q37 9 55 35t18 66q0 37 -19 62t-54 43v-206z" />
    <glyph glyph-name="percent" unicode="%" horiz-adv-x="729" 
d="M279.5 401.5q-44.5 -46.5 -110.5 -46.5t-110.5 46.5t-44.5 130.5q0 85 44 131.5t111 46.5t111 -46.5t44 -131.5q0 -84 -44.5 -130.5zM124 -34l376 733h104l-376 -733h-104zM212.5 599q-17.5 23 -43.5 23q-27 0 -44 -23t-17 -67q0 -43 17 -66t44 -23q26 0 43.5 22.5
t17.5 66.5t-17.5 67zM671 1.5q-44 -46.5 -111 -46.5q-43 0 -78 20.5t-56 60.5t-21 96q0 57 21 97t56 60.5t78 20.5q67 0 111 -46.5t44 -131.5q0 -84 -44 -130.5zM604 199q-17 23 -44 23t-44 -23t-17 -67q0 -43 17 -66t44 -23t44 22.5t17 66.5t-17 67z" />
    <glyph glyph-name="ampersand" unicode="&#x26;" horiz-adv-x="585" 
d="M606 -34h-126l-59 80q-77 -91 -195 -91q-92 0 -145 53t-53 150q0 83 36.5 135.5t101.5 95.5q-33 48 -48.5 88t-15.5 84q0 56 23.5 96.5t63 61t86.5 20.5q73 0 117 -47.5t44 -120.5q0 -47 -18.5 -82t-47.5 -60t-74 -54l116 -154q29 80 38 179h100q-18 -157 -71 -267z
M213 506.5q10 -28.5 34 -65.5q43 29 66 58.5t23 69.5q0 34 -17.5 56.5t-48.5 22.5q-29 0 -48 -21.5t-19 -64.5q0 -27 10 -55.5zM362 125l-145 196q-40 -32 -62.5 -69.5t-22.5 -89.5q0 -57 27.5 -86t73.5 -29q75 0 129 78z" />
    <glyph glyph-name="quotesingle" unicode="'" horiz-adv-x="195" 
d="M59 506l-5 263h87l-5 -263h-77z" />
    <glyph glyph-name="parenleft" unicode="(" horiz-adv-x="339" 
d="M103 578.5q44 119.5 120 202.5h101q-76 -99 -116.5 -210.5t-40.5 -252.5q0 -142 40.5 -254t116.5 -209h-101q-76 83 -120 202.5t-44 260.5t44 260.5z" />
    <glyph glyph-name="parenright" unicode=")" horiz-adv-x="299" 
d="M196 57.5q-44 -119.5 -120 -202.5h-101q76 97 116.5 209t40.5 254q0 141 -40.5 252.5t-116.5 210.5h101q76 -83 120 -202.5t44 -260.5t-44 -260.5z" />
    <glyph glyph-name="asterisk" unicode="*" horiz-adv-x="427" 
d="M245 562l114 78l42 -73l-125 -60l125 -60l-42 -72l-114 78l11 -137h-84l10 137l-113 -78l-42 72l123 60l-123 60l42 73l113 -78l-10 137h84z" />
    <glyph glyph-name="plus" unicode="+" 
d="M287 542v-168h169v-92h-169v-168h-91v168h-168v92h168v168h91z" />
    <glyph glyph-name="comma" unicode="," horiz-adv-x="213" 
d="M162 60.5q21 -25.5 21 -76.5q0 -74 -40.5 -123.5t-105.5 -61.5v56q74 20 80 98q-2 -1 -8 -1q-28 0 -45.5 19.5t-17.5 47.5t18 47.5t45 19.5q32 0 53 -25.5z" />
    <glyph glyph-name="hyphen" unicode="-" horiz-adv-x="385" 
d="M45 225v86h295v-86h-295z" />
    <glyph glyph-name="period" unicode="." horiz-adv-x="202" 
d="M54.5 -28.5q-18.5 19.5 -18.5 46.5q0 28 18.5 47.5t45.5 19.5q28 0 47 -19.5t19 -47.5q0 -27 -19.5 -46.5t-46.5 -19.5t-45.5 19.5z" />
    <glyph glyph-name="slash" unicode="/" horiz-adv-x="357" 
d="M8 -34l240 732h100l-239 -732h-101z" />
    <glyph glyph-name="zero" unicode="0" 
d="M395 43q-52 -88 -153 -88q-100 0 -153 88.5t-53 288.5q0 202 53 290.5t153 88.5q101 0 153 -88t52 -291q0 -201 -52 -289zM167.5 113.5q23.5 -66.5 74.5 -66.5t74 66t23 219q0 154 -23 220.5t-74 66.5t-74.5 -67t-23.5 -220q0 -152 23.5 -218.5z" />
    <glyph glyph-name="one" unicode="1" 
d="M76 455v114l186 130h81v-733h-103v602z" />
    <glyph glyph-name="two" unicode="2" 
d="M181 57h264v-91h-404v67l178 260q58 84 78 127t20 90q0 53 -22 81t-61 28q-79 0 -108 -124l-84 40q17 86 70 130.5t128 44.5q86 0 135.5 -53t49.5 -142q0 -60 -25.5 -115t-95.5 -159z" />
    <glyph glyph-name="three" unicode="3" 
d="M409.5 285q29.5 -48 29.5 -117q0 -97 -54.5 -155t-148.5 -58q-76 0 -130 39t-72 118l82 45q12 -54 44.5 -82.5t74.5 -28.5q45 0 70.5 34t25.5 90q0 64 -33.5 98.5t-100.5 34.5h-34v88h40q52 0 78 35t26 87q0 48 -21.5 77t-58.5 29q-39 0 -65.5 -29t-38.5 -83l-80 43
q19 79 68.5 119.5t123.5 40.5q86 0 133 -52.5t47 -133.5q0 -56 -23 -101t-69 -68q57 -22 86.5 -70z" />
    <glyph glyph-name="four" unicode="4" 
d="M387 409v-191h95v-91h-95v-161h-99v161h-274v71l233 500h105l-221 -480h157v191h99z" />
    <glyph glyph-name="five" unicode="5" 
d="M349 402.5q44 -28.5 68 -81t24 -123.5q0 -74 -27 -129t-74.5 -84.5t-107.5 -29.5q-66 0 -116 36.5t-71 108.5l82 46q14 -49 41.5 -74.5t62.5 -25.5q48 0 75.5 41t27.5 108q0 65 -27 106t-77 41q-33 0 -59 -20t-42 -53l-71 34l41 396h312v-91h-227l-22 -200q38 23 85 23
q58 0 102 -28.5z" />
    <glyph glyph-name="six" unicode="6" 
d="M368 392.5q43 -29.5 66.5 -82t23.5 -119.5q0 -72 -27 -125.5t-75 -82t-110 -28.5t-109.5 28.5t-74 83t-26.5 128.5q0 43 9.5 81t24.5 71t46 94l136 257h108l-137 -257l-16 -31q27 12 63 12q55 0 98 -29.5zM323 85q28 39 28 104t-27.5 104t-76.5 39q-50 0 -77.5 -39
t-27.5 -104q0 -66 27.5 -104.5t76.5 -38.5t77 39z" />
    <glyph glyph-name="seven" unicode="7" 
d="M330 607h-290v92h405v-62l-219 -670h-110z" />
    <glyph glyph-name="eight" unicode="8" 
d="M54.5 286.5q28.5 48.5 78.5 74.5q-41 23 -64 63.5t-23 94.5t24 97.5t69 68.5t105 25t103.5 -24.5t66.5 -68t23 -98.5q0 -54 -22.5 -94.5t-62.5 -63.5q49 -26 77.5 -74.5t28.5 -115.5q0 -64 -26.5 -113t-75 -76t-112.5 -27q-66 0 -115 27t-76 75.5t-27 113.5
q0 67 28.5 115.5zM176.5 433.5q25.5 -30.5 67.5 -30.5t67.5 30.5t25.5 78.5q0 49 -25.5 80t-67.5 31t-67.5 -30.5t-25.5 -80.5q0 -48 25.5 -78.5zM163.5 80q30.5 -36 80.5 -36q48 0 78.5 36.5t30.5 98.5t-30 99t-79 37q-50 0 -80.5 -36.5t-30.5 -99.5t30.5 -99z" />
    <glyph glyph-name="nine" unicode="9" 
d="M347.5 682q47.5 -29 74 -83t26.5 -128q0 -62 -18 -112t-62 -134l-136 -257h-108l137 257l16 31q-27 -12 -63 -12q-55 0 -98 29.5t-66.5 82t-23.5 119.5q0 72 27 125.5t75.5 82t109.5 28.5q62 0 109.5 -29zM160.5 372.5q27.5 -39.5 76.5 -39.5q50 0 78 39t28 105
t-28 104.5t-77 38.5t-77 -39t-28 -104t27.5 -104.5z" />
    <glyph glyph-name="colon" unicode=":" horiz-adv-x="225" 
d="M66 382.5q-19 19.5 -19 47.5t19 47.5t46 19.5q28 0 47 -19.5t19 -47.5t-19 -47.5t-47 -19.5q-27 0 -46 19.5zM66 -25.5q-19 19.5 -19 46.5q0 28 19 47.5t46 19.5q28 0 47 -19.5t19 -47.5q0 -27 -19 -46.5t-47 -19.5q-27 0 -46 19.5z" />
    <glyph glyph-name="semicolon" unicode=";" horiz-adv-x="235" 
d="M76 382.5q-19 19.5 -19 47.5t19 47.5t45 19.5q28 0 47 -19.5t19 -47.5t-19 -47.5t-47 -19.5q-26 0 -45 19.5zM170 60.5q21 -25.5 21 -76.5q0 -74 -41 -123.5t-105 -61.5v56q74 20 80 98q-3 -1 -8 -1q-28 0 -45.5 19.5t-17.5 47.5t17.5 47.5t45.5 19.5q32 0 53 -25.5z" />
    <glyph glyph-name="less" unicode="&#x3c;" 
d="M456 572v-100l-306 -144l306 -144v-100l-428 200v88z" />
    <glyph glyph-name="equal" unicode="=" 
d="M456 391h-428v91h428v-91zM456 175h-428v91h428v-91z" />
    <glyph glyph-name="greater" unicode="&#x3e;" 
d="M334 328l-306 144v100l428 -200v-88l-428 -200v100z" />
    <glyph glyph-name="question" unicode="?" horiz-adv-x="391" 
d="M-11 575q21 78 79 120t132 42q80 0 131.5 -48t51.5 -129q0 -55 -21 -91t-63 -79q-28 -29 -44.5 -50.5t-28 -51.5t-11.5 -69q0 -17 3 -37h-84q-10 41 -10 77q0 55 20.5 91t58.5 78q32 35 48 61.5t16 63.5q0 42 -21 64t-56 22q-40 0 -70 -27t-47 -85zM139 -25.5
q-19 19.5 -19 45.5q0 28 18.5 47.5t44.5 19.5q27 0 46 -19.5t19 -47.5q0 -26 -19 -45.5t-46 -19.5q-25 0 -44 19.5z" />
    <glyph glyph-name="at" unicode="@" horiz-adv-x="792" 
d="M598 689q80 -50 125.5 -149.5t45.5 -243.5q0 -122 -37.5 -191t-113.5 -69q-39 0 -69.5 21.5t-45.5 62.5q-19 -43 -50 -63t-68 -20q-45 0 -83 29t-61 84t-23 131q0 75 23 130.5t61 85t83 29.5q32 0 61 -16.5t48 -49.5q3 20 4 54h77v-298q0 -48 13 -72t35 -24q61 0 61 171
q0 180 -73.5 272t-199.5 92q-87 0 -153.5 -44.5t-103.5 -128.5t-37 -199q0 -113 36.5 -196t102 -127t150.5 -44q96 0 161 55l39 -68q-34 -35 -85 -53t-115 -18q-109 0 -193.5 54t-132 156t-47.5 241q0 141 48.5 244t134.5 157.5t197 54.5q105 0 185 -50zM460 166.5
q26 36.5 26 114.5t-26 114t-63 36q-39 0 -61.5 -39t-22.5 -111t23 -111.5t61 -39.5q37 0 63 36.5z" />
    <glyph glyph-name="A" unicode="A" horiz-adv-x="608" 
d="M345 699l248 -733h-113l-61 196h-241l-58 -196h-105l241 733h89zM391 253l-95 302l-91 -302h186z" />
    <glyph glyph-name="B" unicode="B" horiz-adv-x="562" 
d="M523 173q0 -97 -58 -152t-163 -55h-228v732h202q94 0 152 -53.5t58 -144.5q0 -103 -78 -150q115 -42 115 -177zM176 608v-225h85q55 0 86 30.5t31 83.5q0 51 -31 81t-86 30h-85zM289 55q61 0 93 32t32 89t-32.5 90t-92.5 33h-113v-244h113z" />
    <glyph glyph-name="C" unicode="C" horiz-adv-x="554" 
d="M450 159l85 -48q-46 -156 -210 -156q-81 0 -143 41.5t-97.5 126.5t-35.5 210t35.5 209.5t98 126t143.5 41.5q80 0 133 -39t76 -116l-85 -49q-33 110 -127 110q-75 0 -120 -71.5t-45 -211.5t45 -212t120 -72q94 0 127 110z" />
    <glyph glyph-name="D" unicode="D" horiz-adv-x="611" 
d="M262 698q92 0 159.5 -43t103.5 -125t36 -197t-36 -197.5t-103 -126t-160 -43.5h-188v732h188zM245 56q104 0 155.5 71t51.5 206q0 134 -52 205t-155 71h-68v-553h68z" />
    <glyph glyph-name="E" unicode="E" horiz-adv-x="504" 
d="M424 298h-247v-242h285v-90h-388v732h379v-90h-276v-221h247v-89z" />
    <glyph glyph-name="F" unicode="F" 
d="M74 698h379v-91h-276v-233h247v-90h-247v-318h-103v732z" />
    <glyph glyph-name="G" unicode="G" horiz-adv-x="591" 
d="M331 265v91h215v-295q-28 -47 -81.5 -76.5t-130.5 -29.5q-132 0 -208.5 96.5t-76.5 286.5q0 122 36 205.5t99.5 125t147.5 41.5q83 0 139.5 -41t74.5 -114l-84 -49q-13 52 -48 81t-88 29q-79 0 -124 -70.5t-45 -207.5q0 -145 48.5 -217t134.5 -72q70 0 104 44v172h-113z
" />
    <glyph glyph-name="H" unicode="H" horiz-adv-x="638" 
d="M177 392h285v306h103v-732h-103v334h-285v-334h-103v732h103v-306z" />
    <glyph glyph-name="I" unicode="I" horiz-adv-x="250" 
d="M177 -34h-103v732h103v-732z" />
    <glyph glyph-name="J" unicode="J" horiz-adv-x="426" 
d="M11 87l83 48q22 -86 82 -86q47 0 63.5 41t16.5 112v496h103v-505q0 -119 -46 -178.5t-135 -59.5q-133 0 -167 132z" />
    <glyph glyph-name="K" unicode="K" horiz-adv-x="592" 
d="M588 -34h-129l-190 347l-92 -120v-227h-103v732h103v-276q0 -63 -2 -92q18 28 73 102l195 266h122l-223 -291z" />
    <glyph glyph-name="L" unicode="L" horiz-adv-x="483" 
d="M74 698h103v-640h275v-92h-378v732z" />
    <glyph glyph-name="M" unicode="M" horiz-adv-x="726" 
d="M574 698h79v-732h-99v503l-163 -307h-56l-163 311v-507h-98v732h84l208 -410z" />
    <glyph glyph-name="N" unicode="N" horiz-adv-x="629" 
d="M158 698l302 -527v527h96v-732h-86l-301 525v-525h-95v732h84z" />
    <glyph glyph-name="O" unicode="O" horiz-adv-x="640" 
d="M121 615.5q72 94.5 199 94.5q128 0 199.5 -95t71.5 -282q0 -188 -71.5 -283t-199.5 -95t-199.5 94.5t-71.5 283.5q0 188 72 282.5zM199.5 120q41.5 -71 120.5 -71q161 0 161 284q0 142 -41 213t-120 71t-120.5 -71t-41.5 -213t41.5 -213z" />
    <glyph glyph-name="P" unicode="P" horiz-adv-x="525" 
d="M272 698q67 0 118 -29t79 -81t28 -120t-27.5 -119.5t-78.5 -80.5t-119 -29h-95v-273h-103v732h198zM259 328q54 0 91 39.5t37 100.5q0 62 -35.5 101.5t-92.5 39.5h-82v-281h82z" />
    <glyph glyph-name="Q" unicode="Q" horiz-adv-x="642" 
d="M654 -191h-134l-148 150q-21 -4 -52 -4q-128 0 -199.5 94.5t-71.5 283.5q0 188 72 282.5t199 94.5q128 0 199.5 -95t71.5 -282q0 -123 -31.5 -207t-89.5 -126zM199.5 120q41.5 -71 120.5 -71q161 0 161 284t-161 284q-79 0 -120.5 -71t-41.5 -213t41.5 -213z" />
    <glyph glyph-name="R" unicode="R" horiz-adv-x="553" 
d="M553 -34h-124l-159 292h-3h-91v-292h-102v732h197q67 0 118 -27.5t79.5 -78t28.5 -115.5q0 -70 -32 -121.5t-89 -76.5zM257 347q55 0 92.5 36t37.5 95q0 58 -37 94.5t-93 36.5h-81v-262h81z" />
    <glyph glyph-name="S" unicode="S" horiz-adv-x="493" 
d="M406 9q-60 -54 -155 -54q-88 0 -150 46.5t-81 126.5l86 49q19 -64 56.5 -96.5t90.5 -32.5q49 0 76.5 27t27.5 73q0 38 -18 64.5t-45.5 44t-74.5 40.5q-57 28 -92 52t-59.5 65t-24.5 101q0 64 28.5 108t75.5 65.5t104 21.5q79 0 132.5 -40t70.5 -110l-87 -49
q-11 50 -42.5 78.5t-77.5 28.5q-41 0 -68 -24.5t-27 -67.5q0 -35 17.5 -59.5t44 -41.5t71.5 -39q59 -29 94.5 -53.5t61 -67t25.5 -105.5q0 -97 -60 -151z" />
    <glyph glyph-name="T" unicode="T" horiz-adv-x="501" 
d="M17 698h467v-91h-182v-641h-103v641h-182v91z" />
    <glyph glyph-name="U" unicode="U" horiz-adv-x="625" 
d="M455 698h103v-449q0 -294 -245 -294q-246 0 -246 294v449h103v-431q0 -115 37 -166.5t107 -51.5q68 0 104.5 51.5t36.5 166.5v431z" />
    <glyph glyph-name="V" unicode="V" horiz-adv-x="597" 
d="M131 698l176 -577l167 577h108l-233 -732h-92l-242 732h116z" />
    <glyph glyph-name="W" unicode="W" horiz-adv-x="859" 
d="M478 698l137 -563l129 563h100l-188 -733h-87l-139 527l-132 -527h-86l-197 733h108l136 -560l131 560h88z" />
    <glyph glyph-name="X" unicode="X" horiz-adv-x="587" 
d="M563 698l-213 -358l221 -374h-128l-154 276l-156 -276h-118l223 368l-214 364h126l147 -266l146 266h120z" />
    <glyph glyph-name="Y" unicode="Y" horiz-adv-x="551" 
d="M284 380l143 318h111l-206 -430v-302h-103v303l-216 429h121z" />
    <glyph glyph-name="Z" unicode="Z" horiz-adv-x="495" 
d="M458 698v-56l-305 -584h317v-92h-445v57l306 584h-281v91h408z" />
    <glyph glyph-name="bracketleft" unicode="[" horiz-adv-x="335" 
d="M76 781h242v-94h-138v-738h138v-94h-242v926z" />
    <glyph glyph-name="backslash" unicode="\" horiz-adv-x="357" 
d="M8 698h101l239 -732h-100z" />
    <glyph glyph-name="bracketright" unicode="]" horiz-adv-x="335" 
d="M17 687v94h242v-926h-242v94h138v738h-138z" />
    <glyph glyph-name="asciicircum" unicode="^" horiz-adv-x="439" 
d="M219 570l-100 -254h-95l153 383h84l153 -383h-94z" />
    <glyph glyph-name="underscore" unicode="_" horiz-adv-x="343" 
d="M0 -197v86h343v-86h-343z" />
    <glyph glyph-name="grave" unicode="`" horiz-adv-x="309" 
d="M85 713h104l56 -157h-78z" />
    <glyph glyph-name="a" unicode="a" horiz-adv-x="472" 
d="M368.5 446.5q48.5 -50.5 48.5 -150.5v-330h-84l-3 37q0 11 -2 31q-41 -79 -131 -79q-64 0 -110 39t-46 119q0 82 52 126.5t132 44.5q47 0 95 -15v11q0 68 -22.5 99t-65.5 31q-66 0 -95 -68l-73 42q20 53 65.5 83t108.5 30q82 0 130.5 -50.5zM320 192q-43 15 -79 15
q-46 0 -72.5 -23.5t-26.5 -67.5q0 -40 21 -59.5t53 -19.5q43 0 73.5 32t30.5 89v34z" />
    <glyph glyph-name="b" unicode="b" horiz-adv-x="522" 
d="M387.5 467.5q44.5 -29.5 71 -90.5t26.5 -151t-26.5 -151t-70.5 -90.5t-99 -29.5q-97 0 -135 87q-2 -23 -3.5 -44.5t-1.5 -31.5h-87v761h98v-305q42 75 129 75q54 0 98.5 -29.5zM352.5 89.5q29.5 45.5 29.5 136.5t-29.5 136t-80.5 45q-48 0 -80 -41.5t-32 -139.5
q0 -99 32 -140.5t80 -41.5q51 0 80.5 45.5z" />
    <glyph glyph-name="c" unicode="c" horiz-adv-x="418" 
d="M300 61q23 17 34 52l76 -44q-17 -60 -60 -87t-97 -27q-58 0 -107 29.5t-79 90.5t-30 151t29.5 151t79 90.5t107.5 29.5q55 0 98 -27.5t59 -87.5l-76 -44q-11 36 -34 52.5t-51 16.5q-48 0 -78.5 -45t-30.5 -136t30.5 -136.5t78.5 -45.5q28 0 51 17z" />
    <glyph glyph-name="d" unicode="d" horiz-adv-x="522" 
d="M362 727h98v-761h-87l-2 24q0 26 -4 50q-39 -85 -134 -85q-55 0 -99 29.5t-70.5 90.5t-26.5 151t26.5 151t70.5 90.5t99 29.5q88 0 129 -74v304zM330 86q32 41 32 140q0 98 -32 139.5t-80 41.5q-51 0 -80.5 -45t-29.5 -136t29.5 -136t80.5 -45q48 0 80 41z" />
    <glyph glyph-name="e" unicode="e" horiz-adv-x="460" 
d="M384 433.5q50 -63.5 50 -169.5q0 -33 -4 -61h-291q4 -83 34.5 -121.5t80.5 -38.5q64 0 90 67l74 -43q-18 -57 -64 -84.5t-106 -27.5q-95 0 -153 67.5t-58 201.5q0 91 28 152.5t75.5 91t105.5 29.5q88 0 138 -63.5zM176.5 379q-27.5 -32 -34.5 -98h194q-1 64 -26 97
t-66 33q-40 0 -67.5 -32z" />
    <glyph glyph-name="f" unicode="f" horiz-adv-x="305" 
d="M204.5 620q-16.5 -27 -16.5 -92v-43h107v-83h-107v-436h-99v436h-72v83h72v46q0 106 45.5 157t115.5 51q35 0 61 -12.5t39 -29.5l-46 -73q-21 23 -51 23q-32 0 -48.5 -27z" />
    <glyph glyph-name="g" unicode="g" horiz-adv-x="518" 
d="M459 485v-469q0 -144 -63 -202t-153 -58q-72 0 -124 33t-70 96l76 45q16 -44 45.5 -63.5t72.5 -19.5q61 0 89.5 39.5t28.5 137.5l4 13q-41 -80 -132 -80q-54 0 -98.5 29.5t-71 90.5t-26.5 150q0 90 26.5 151t70.5 90t99 29q95 0 134 -84q3 23 5 72h87zM330 88
q32 41 32 139t-32 139.5t-80 41.5q-51 0 -80.5 -45t-29.5 -136q0 -90 29.5 -135t80.5 -45q48 0 80 41z" />
    <glyph glyph-name="h" unicode="h" horiz-adv-x="501" 
d="M404.5 445.5q41.5 -51.5 41.5 -153.5v-326h-98v296q0 71 -20.5 106t-64.5 35q-45 0 -74 -35.5t-29 -108.5v-293h-98v761h98v-304q22 37 56 55.5t76 18.5q71 0 112.5 -51.5z" />
    <glyph glyph-name="i" unicode="i" horiz-adv-x="222" 
d="M68 592q-18 19 -18 45q0 25 18 44t42 19q25 0 43.5 -19t18.5 -44q0 -26 -18.5 -45t-43.5 -19q-24 0 -42 19zM160 -34h-98v519h98v-519z" />
    <glyph glyph-name="j" unicode="j" horiz-adv-x="221" 
d="M69 592.5q-18 19.5 -18 44.5t17.5 44t41.5 19q25 0 43 -19t18 -44q0 -26 -18 -45t-43 -19q-23 0 -41 19.5zM-44 -234.5q-25 9.5 -38 25.5l40 77q20 -19 48 -19q32 0 44 25.5t12 83.5v527h99v-533q0 -100 -40.5 -148t-109.5 -48q-30 0 -55 9.5z" />
    <glyph glyph-name="k" unicode="k" horiz-adv-x="473" 
d="M474 -34h-121l-123 219l-70 -90v-129h-98v761h98v-355q0 -104 -1 -149q45 66 88 125l99 137h110l-160 -210z" />
    <glyph glyph-name="l" unicode="l" horiz-adv-x="222" 
d="M160 -34h-98v761h98v-761z" />
    <glyph glyph-name="m" unicode="m" horiz-adv-x="724" 
d="M630.5 446.5q38.5 -50.5 38.5 -150.5v-330h-97v294q0 73 -17 107.5t-55 34.5t-62 -35.5t-24 -108.5v-292h-97v294q0 73 -17 107.5t-55 34.5q-39 0 -62.5 -35.5t-23.5 -108.5v-292h-97v519h85q3 -57 4 -71q20 42 52.5 62.5t72.5 20.5q42 0 73.5 -23.5t48.5 -70.5
q20 47 54.5 70.5t77.5 23.5q62 0 100.5 -50.5z" />
    <glyph glyph-name="n" unicode="n" horiz-adv-x="501" 
d="M404.5 445.5q41.5 -51.5 41.5 -153.5v-326h-98v296q0 71 -20.5 106t-64.5 35q-45 0 -74 -35.5t-29 -108.5v-293h-98v520h87q3 -60 4 -76q22 43 58 65t81 22q71 0 112.5 -51.5z" />
    <glyph glyph-name="o" unicode="o" horiz-adv-x="500" 
d="M65.5 377q28.5 61 77 90.5t108.5 29.5t108 -29t76 -90t28 -152t-28 -152t-76 -90t-108 -29t-108.5 29t-77 90t-28.5 152q0 90 28.5 151zM171.5 88.5q30.5 -44.5 79.5 -44.5q48 0 78 45t30 137q0 93 -29.5 137t-78.5 44t-79.5 -44t-30.5 -137t30.5 -137.5z" />
    <glyph glyph-name="p" unicode="p" horiz-adv-x="522" 
d="M387.5 467.5q44.5 -29.5 71 -90.5t26.5 -151q0 -91 -26.5 -152t-70.5 -90t-99 -29q-88 0 -129 73v-259h-98v716h87q2 -52 5 -75q39 87 135 87q54 0 98.5 -29.5zM352.5 89.5q29.5 45.5 29.5 136.5q0 90 -29.5 135t-80.5 45q-48 0 -80 -41t-32 -139t32.5 -140t79.5 -42
q51 0 80.5 45.5z" />
    <glyph glyph-name="q" unicode="q" horiz-adv-x="522" 
d="M460 485v-716h-98v260q-42 -74 -129 -74q-55 0 -99 29.5t-70.5 90.5t-26.5 151t26.5 151t70.5 90.5t99 29.5q94 0 134 -85q4 41 5 73h88zM330 86q32 41 32 140q0 98 -32 139.5t-80 41.5q-51 0 -80.5 -45t-29.5 -136t29.5 -136t80.5 -45q48 0 80 41z" />
    <glyph glyph-name="r" unicode="r" horiz-adv-x="348" 
d="M315 488.5q21 -8.5 31 -22.5l-36 -79q-17 17 -46 17q-46 0 -75 -41.5t-29 -122.5v-274h-98v519h87q3 -57 4 -72q19 41 48.5 62.5t66.5 21.5q26 0 47 -8.5z" />
    <glyph glyph-name="s" unicode="s" horiz-adv-x="391" 
d="M321.5 -4q-47.5 -41 -121.5 -41q-67 0 -115.5 34t-63.5 94l74 42q13 -43 40.5 -63t63.5 -20q34 0 50.5 17t16.5 43q0 32 -22.5 50t-71.5 39q-43 20 -68.5 35.5t-44 44.5t-18.5 73q0 71 48.5 112t120.5 41q59 0 100.5 -29.5t52.5 -83.5l-73 -42q-10 34 -32 51t-51 17
q-31 0 -47.5 -17t-16.5 -42q0 -29 21.5 -46t68.5 -37q43 -19 70 -36t46.5 -47.5t19.5 -76.5q0 -71 -47.5 -112z" />
    <glyph glyph-name="t" unicode="t" horiz-adv-x="341" 
d="M337 -8q-40 -37 -106 -37q-63 0 -105 40t-42 141v265h-74v85h74v148h99v-148h127v-85h-127v-248q0 -58 15.5 -82t46.5 -24t55 22z" />
    <glyph glyph-name="u" unicode="u" horiz-adv-x="501" 
d="M341 486h98v-520h-86l-3 39q0 14 -2 36q-22 -43 -58 -64.5t-81 -21.5q-71 0 -112.5 51t-41.5 153v327h98v-296q0 -71 20.5 -106t64.5 -35q45 0 74 35.5t29 108.5v293z" />
    <glyph glyph-name="v" unicode="v" horiz-adv-x="463" 
d="M120 485l120 -368l111 368h102l-178 -519h-81l-184 519h110z" />
    <glyph glyph-name="w" unicode="w" horiz-adv-x="681" 
d="M384 485l99 -358l94 358h95l-155 -519h-70l-104 335l-101 -335h-71l-161 519h102l99 -360l93 360h80z" />
    <glyph glyph-name="x" unicode="x" horiz-adv-x="442" 
d="M223 313l99 172h110l-159 -256l159 -263h-113l-100 173l-99 -173h-110l160 257l-160 262h113z" />
    <glyph glyph-name="y" unicode="y" horiz-adv-x="465" 
d="M241 104l112 381h102l-185 -569q-27 -84 -63.5 -122t-97.5 -38q-59 0 -95 33l38 77q22 -19 55 -19q29 0 47 18t33 68l6 21l-186 531h112z" />
    <glyph glyph-name="z" unicode="z" horiz-adv-x="387" 
d="M359 485v-55l-221 -382h233v-82h-348v56l222 382h-203v81h317z" />
    <glyph glyph-name="braceleft" unicode="{" horiz-adv-x="364" 
d="M241 481q0 -72 -22 -111t-69 -52q47 -13 69 -52t22 -111v-101q0 -56 17 -80.5t61 -24.5h26v-94h-33q-56 0 -94 14.5t-60.5 54t-22.5 112.5v107q0 47 -10 72.5t-31.5 36.5t-60.5 12v108q39 1 61 12t31.5 36.5t9.5 72.5v107q0 97 41 139t136 42h33v-94h-26
q-39 0 -58.5 -21.5t-19.5 -83.5v-101z" />
    <glyph glyph-name="bar" unicode="|" horiz-adv-x="190" 
d="M51 -145v926h88v-926h-88z" />
    <glyph glyph-name="braceright" unicode="}" horiz-adv-x="364" 
d="M122 582q0 62 -19.5 83.5t-57.5 21.5h-26v94h33q94 0 135 -42t41 -139v-107q0 -47 9.5 -72.5t31.5 -36.5t61 -12v-108q-39 -1 -60.5 -12t-31.5 -36.5t-10 -72.5v-107q0 -73 -22 -112.5t-60 -54t-94 -14.5h-33v94h26q43 0 60 24.5t17 80.5v101q0 72 22 111t69 52
q-47 13 -69 52t-22 111v101z" />
    <glyph glyph-name="asciitilde" unicode="~" 
d="M22 243q1 77 36 129.5t99 52.5q36 0 59 -16t47 -45q19 -22 32 -32t30 -10q24 0 37 22.5t18 68.5h83q-2 -78 -36.5 -130t-98.5 -52q-37 0 -60 16t-47 45q-18 21 -31 31t-30 10q-24 0 -36.5 -22t-18.5 -68h-83z" />
    <glyph glyph-name="uni00A0" unicode="&#xa0;" horiz-adv-x="230" 
 />
    <glyph glyph-name="exclamdown" unicode="&#xa1;" horiz-adv-x="205" 
d="M148.5 520.5q19.5 -19.5 19.5 -46.5q0 -28 -19.5 -47.5t-46.5 -19.5t-46 19.5t-19 47.5q0 27 19 46.5t46 19.5t46.5 -19.5zM155 -231h-107l15 544h77z" />
    <glyph glyph-name="cent" unicode="&#xa2;" 
d="M311 165q51 12 74 65l70 -48q-36 -97 -142 -108v-108h-89v112q-78 17 -124 81t-46 173t46 173t124 81v113h89v-109q106 -11 142 -108l-70 -48q-23 53 -74 65v-334zM169.5 226.5q20.5 -39.5 57.5 -54.5v320q-37 -15 -57.5 -54.5t-20.5 -105.5t20.5 -105.5z" />
    <glyph glyph-name="sterling" unicode="&#xa3;" 
d="M197 56h272v-90h-420v75q55 42 79.5 77t24.5 87q0 34 -11 72h-95v85h67q-22 68 -22 128q0 104 53 162t142 58q76 0 124 -44t58 -112l-81 -46q-12 55 -36.5 81.5t-64.5 26.5q-91 0 -91 -124q0 -33 5.5 -63t16.5 -67h149v-85h-124q10 -38 10 -72q0 -91 -56 -149z" />
    <glyph glyph-name="currency" unicode="&#xa4;" 
d="M404 209l69 -80l-66 -64l-65 76q-45 -30 -100 -30t-100 31l-66 -77l-65 63l70 81q-31 55 -31 124t31 123l-69 80l64 64l67 -76q44 30 99 30q56 0 100 -30l66 76l65 -64l-68 -81q30 -52 30 -122q0 -69 -31 -124zM312.5 236q27.5 35 27.5 97q0 60 -27.5 95.5t-71.5 35.5
q-43 0 -70 -35.5t-27 -95.5q0 -62 27 -97t70 -35q44 0 71.5 35z" />
    <glyph glyph-name="yen" unicode="&#xa5;" 
d="M250 430l126 268h110l-170 -340h124v-81h-140v-69h140v-80h-140v-162h-106v162h-136v80h136v69h-136v81h118l-178 340h121z" />
    <glyph glyph-name="brokenbar" unicode="&#xa6;" horiz-adv-x="190" 
d="M51 414v367h88v-367h-88zM51 -145v367h88v-367h-88z" />
    <glyph glyph-name="section" unicode="&#xa7;" horiz-adv-x="521" 
d="M200.5 473q18.5 -22 45.5 -35.5t76 -31.5q57 -21 92.5 -39.5t60 -52.5t24.5 -88t-28.5 -94.5t-76.5 -62.5q55 -47 55 -126q0 -59 -30 -101.5t-79 -64t-104 -21.5q-52 0 -96.5 20.5t-73 54.5t-37.5 75l85 46q12 -48 44.5 -77.5t80.5 -29.5q44 0 72 24t28 68q0 34 -18.5 56
t-45.5 35.5t-75 31.5q-58 21 -93 39.5t-60 53.5t-25 90q0 53 28.5 93t77.5 62q-27 23 -41 52.5t-14 72.5q0 60 30.5 102.5t79.5 63.5t105 21q78 0 134.5 -42t70.5 -107l-85 -45q-12 50 -43.5 77.5t-78.5 27.5q-45 0 -74.5 -24.5t-29.5 -67.5q0 -34 18.5 -56zM149.5 197.5
q17.5 -21.5 43.5 -34.5t73 -30q13 -4 39 -14q37 5 60.5 30.5t23.5 65.5q0 33 -18 55t-45 35.5t-73 29.5l-34 13q-38 -4 -62.5 -30t-24.5 -66q0 -33 17.5 -54.5z" />
    <glyph glyph-name="dieresis" unicode="&#xa8;" horiz-adv-x="387" 
d="M56 589q-18 19 -18 46q0 26 18.5 45t43.5 19q27 0 45 -18.5t18 -45.5t-18 -46t-45 -19q-26 0 -44 19zM242 589q-18 19 -18 46q0 26 18 45t44 19t44.5 -19t18.5 -45q0 -27 -18.5 -46t-44.5 -19t-44 19z" />
    <glyph glyph-name="copyright" unicode="&#xa9;" horiz-adv-x="736" 
d="M531.5 665q72.5 -45 114 -130.5t41.5 -202.5q0 -116 -41.5 -201.5t-114 -130.5t-164.5 -45q-91 0 -163.5 45t-113.5 130.5t-41 201.5q0 117 41 202.5t113.5 130.5t163.5 45q92 0 164.5 -45zM491 66q54 36 84.5 104.5t30.5 161.5q0 94 -30.5 162t-84.5 104t-124 36
t-124 -36t-84 -104.5t-30 -161.5t30 -161t84 -104.5t124 -36.5t124 36zM319 431.5q-23 -33.5 -23 -99.5t23 -99.5t60 -33.5q44 0 63 49l62 -39q-14 -45 -47.5 -67.5t-77.5 -22.5q-45 0 -83 23.5t-61 71.5t-23 118t23 118t61 71.5t83 23.5q44 0 77.5 -22.5t47.5 -67.5
l-62 -39q-17 49 -63 49q-37 0 -60 -33.5z" />
    <glyph glyph-name="ordfeminine" unicode="&#xaa;" horiz-adv-x="350" 
d="M266.5 666.5q35.5 -39.5 35.5 -110.5v-244h-71q0 19 -3 37q-29 -46 -88 -46q-47 0 -79.5 29.5t-32.5 87.5q0 60 37.5 94t94.5 34q26 0 61 -10v8q0 92 -57 92q-45 0 -64 -55l-59 33q13 42 48 66t82 24q60 0 95.5 -39.5zM221 476q-29 8 -47 8q-30 0 -45.5 -16t-15.5 -45
q0 -28 12.5 -41.5t34.5 -13.5q27 0 44 21.5t17 63.5v23z" />
    <glyph glyph-name="guillemotleft" unicode="&#xab;" horiz-adv-x="496" 
d="M281 3h-106l-160 225l160 224h106l-161 -224zM482 3h-106l-161 225l161 224h106l-161 -224z" />
    <glyph glyph-name="logicalnot" unicode="&#xac;" 
d="M365 317h-337v91h428v-286h-91v195z" />
    <glyph glyph-name="uni00AD" unicode="&#xad;" horiz-adv-x="385" 
d="M45 285v86h295v-86h-295z" />
    <glyph glyph-name="registered" unicode="&#xae;" horiz-adv-x="471" 
d="M58.5 608q27.5 47 74 74.5t102.5 27.5t103 -27.5t74.5 -74.5t27.5 -103t-27.5 -102.5t-74.5 -74t-103 -27.5t-102.5 27.5t-74 74t-27.5 102.5t27.5 103zM103.5 427.5q20.5 -35.5 55 -56t76.5 -20.5q43 0 78 21t55 56.5t20 78.5q0 42 -20.5 77t-55.5 55t-77 20t-77 -20.5
t-55 -55.5t-20 -78q0 -42 20.5 -77.5zM159 396v221h89q38 0 58 -18.5t20 -49.5q0 -24 -11.5 -40.5t-32.5 -23.5l59 -89h-58l-52 85h-22v-85h-50zM243 524q33 0 33 26q0 24 -33 24h-34v-50h34z" />
    <glyph glyph-name="macron" unicode="&#xaf;" horiz-adv-x="330" 
d="M43 594v80h245v-80h-245z" />
    <glyph glyph-name="degree" unicode="&#xb0;" horiz-adv-x="318" 
d="M28 735q20 35 54.5 55.5t76.5 20.5q43 0 77.5 -20t54 -55t19.5 -78q0 -42 -19.5 -76.5t-54 -54.5t-77.5 -20q-42 0 -76.5 20t-54.5 54.5t-20 76.5t20 77zM105.5 601q20.5 -22 53.5 -22q34 0 55 22t21 57q0 36 -21 58.5t-55 22.5q-33 0 -53.5 -22.5t-20.5 -58.5
q0 -35 20.5 -57z" />
    <glyph glyph-name="plusminus" unicode="&#xb1;" 
d="M196 609h91v-159h169v-91h-169v-159h-91v159h-168v91h168v159zM456 150v-91h-428v91h428z" />
    <glyph glyph-name="uni00B2" unicode="&#xb2;" horiz-adv-x="273" 
d="M116 500h135v-61h-224v47l103 157q21 34 29 51.5t8 37.5t-7.5 29t-24.5 9q-33 0 -53 -62l-55 33q12 47 41 71t72 24q50 0 74.5 -29t24.5 -72q0 -26 -10.5 -52.5t-36.5 -65.5z" />
    <glyph glyph-name="uni00B3" unicode="&#xb3;" horiz-adv-x="272" 
d="M245 551q0 -55 -31 -86.5t-83 -31.5q-45 0 -74.5 23t-38.5 66l55 32q13 -59 57 -59q43 0 43 55q0 60 -64 60h-19v58h19q25 0 39 18t14 45q0 43 -34 43q-37 0 -54 -58l-52 31q12 43 41.5 66t70.5 23q45 0 73 -27.5t28 -73.5q0 -30 -13.5 -53.5t-35.5 -36.5q59 -21 59 -94z
" />
    <glyph glyph-name="acute" unicode="&#xb4;" horiz-adv-x="288" 
d="M65 556l57 157h104l-83 -157h-78z" />
    <glyph glyph-name="uni00B5" unicode="&#xb5;" horiz-adv-x="518" 
d="M515 -31q-24 -14 -61 -14q-83 0 -97 91q-34 -91 -120 -91q-47 0 -78 25v-211h-97v716h97v-290q0 -77 20.5 -114.5t67.5 -37.5q43 0 72 38t29 117v287h96v-381q0 -33 9 -47.5t28 -14.5q12 0 23 5z" />
    <glyph glyph-name="paragraph" unicode="&#xb6;" horiz-adv-x="528" 
d="M91 659.5q46 39.5 133 39.5h82v-733h-82v419q-87 0 -133 39.5t-46 117.5t46 117.5zM460 -34h-82v733h82v-733z" />
    <glyph glyph-name="periodcentered" unicode="&#xb7;" horiz-adv-x="242" 
d="M74.5 281q-18.5 20 -18.5 47q0 28 18.5 47.5t45.5 19.5q28 0 47 -19.5t19 -47.5q0 -27 -19.5 -47t-46.5 -20t-45.5 20z" />
    <glyph glyph-name="cedilla" unicode="&#xb8;" horiz-adv-x="278" 
d="M142 -82q38 -3 66 -21.5t28 -53.5q0 -43 -34 -65t-85 -22q-34 0 -70 9v56q35 -10 60 -10q22 0 35 7t13 21q0 29 -61 29q-8 0 -32 -2l-7 35l38 92h80z" />
    <glyph glyph-name="uni00B9" unicode="&#xb9;" horiz-adv-x="231" 
d="M32 697v76l85 57h56v-391h-71v304z" />
    <glyph glyph-name="ordmasculine" unicode="&#xba;" horiz-adv-x="373" 
d="M73.5 655q45.5 51 114.5 51q68 0 112.5 -50.5t44.5 -150.5t-44.5 -151t-112.5 -51q-69 0 -114.5 51t-45.5 151q0 99 45.5 150zM135 406.5q20 -31.5 53 -31.5q31 0 50.5 32t19.5 98t-19.5 98t-50.5 32q-33 0 -53 -31.5t-20 -98.5t20 -98.5z" />
    <glyph glyph-name="guillemotright" unicode="&#xbb;" horiz-adv-x="496" 
d="M281 228l-161 -225h-105l160 225l-160 224h105zM482 228l-161 -225h-106l161 225l-161 224h106z" />
    <glyph glyph-name="onequarter" unicode="&#xbc;" horiz-adv-x="643" 
d="M32 567v76l85 57h56v-391h-71v304zM558 699l-419 -733h-71l418 733h72zM581 202v-91h48v-59h-48v-86h-64v86h-145v47l118 258h69l-114 -246h72v91h64z" />
    <glyph glyph-name="onehalf" unicode="&#xbd;" horiz-adv-x="668" 
d="M32 567v76l85 57h56v-391h-71v304zM558 699l-419 -733h-71l418 733h72zM510 27h136v-61h-225v47l103 158q21 31 29 49.5t8 38.5t-7.5 29t-24.5 9t-30 -14.5t-23 -47.5l-55 34q12 46 41.5 70t72.5 24q49 0 73.5 -29t24.5 -71q0 -26 -10.5 -52.5t-35.5 -65.5z" />
    <glyph glyph-name="threequarters" unicode="&#xbe;" horiz-adv-x="681" 
d="M245 421q0 -55 -31 -86.5t-83 -31.5q-45 0 -74.5 23t-38.5 66l55 32q13 -59 57 -59q43 0 43 55q0 60 -64 60h-19v58h19q25 0 39 18t14 45q0 43 -34 43q-37 0 -54 -58l-52 31q12 43 41.5 66t70.5 23q45 0 73 -27.5t28 -73.5q0 -30 -13.5 -53.5t-35.5 -36.5q59 -21 59 -94z
M596 699l-419 -733h-71l418 733h72zM619 202v-91h48v-59h-48v-86h-63v86h-146v47l118 258h69l-113 -246h72v91h63z" />
    <glyph glyph-name="questiondown" unicode="&#xbf;" horiz-adv-x="391" 
d="M252 518.5q19 -19.5 19 -45.5q0 -28 -18.5 -47.5t-44.5 -19.5q-27 0 -46 19.5t-19 47.5q0 26 19 45.5t46 19.5q25 0 44 -19.5zM402 -82q-21 -78 -79 -120t-132 -42q-80 0 -131.5 48t-51.5 129q0 39 11.5 69t28 51.5t44.5 50.5q42 43 63 79t21 91q0 18 -3 37h84
q10 -41 10 -77q0 -55 -20.5 -91t-58.5 -78q-32 -35 -48 -61.5t-16 -63.5q0 -42 21 -64t56 -22q40 0 70 27t47 85z" />
    <glyph glyph-name="Agrave" unicode="&#xc0;" horiz-adv-x="608" 
d="M175 914h104l56 -141h-77zM345 699l248 -733h-113l-61 196h-241l-58 -196h-105l241 733h89zM391 253l-95 302l-91 -302h186z" />
    <glyph glyph-name="Aacute" unicode="&#xc1;" horiz-adv-x="608" 
d="M267 773l56 141h104l-83 -141h-77zM345 699l248 -733h-113l-61 196h-241l-58 -196h-105l241 733h89zM391 253l-95 302l-91 -302h186z" />
    <glyph glyph-name="Acircumflex" unicode="&#xc2;" horiz-adv-x="608" 
d="M262 914h77l103 -142h-89l-52 75l-53 -75h-89zM345 699l248 -733h-113l-61 196h-241l-58 -196h-105l241 733h89zM391 253l-95 302l-91 -302h186z" />
    <glyph glyph-name="Atilde" unicode="&#xc3;" horiz-adv-x="608" 
d="M163 785q3 57 25.5 89t60.5 32q20 0 35.5 -9t33.5 -25q8 -7 15.5 -12t12.5 -5q22 0 26 49h67q-3 -57 -25.5 -89t-59.5 -32q-20 0 -36 8.5t-34 23.5q-20 16 -28 16q-21 0 -26 -46h-67zM345 699l248 -733h-113l-61 196h-241l-58 -196h-105l241 733h89zM391 253l-95 302
l-91 -302h186z" />
    <glyph glyph-name="Adieresis" unicode="&#xc4;" horiz-adv-x="608" 
d="M167.5 805q-18.5 19 -18.5 45t18.5 45t43.5 19q27 0 45 -18.5t18 -45.5t-18 -45.5t-45 -18.5q-25 0 -43.5 19zM346 805q-18 19 -18 45t18 45t44 19t44.5 -19t18.5 -45t-18.5 -45t-44.5 -19t-44 19zM345 699l248 -733h-113l-61 196h-241l-58 -196h-105l241 733h89z
M391 253l-95 302l-91 -302h186z" />
    <glyph glyph-name="Aring" unicode="&#xc5;" horiz-adv-x="608" 
d="M221 946q32 31 80 31t78.5 -30.5t30.5 -79.5q0 -48 -31 -79t-78 -31q-48 0 -80 31t-32 79t32 79zM265.5 829.5q13.5 -14.5 35.5 -14.5q21 0 34 14.5t13 37.5t-12.5 37.5t-34.5 14.5t-35.5 -14.5t-13.5 -37.5t13.5 -37.5zM345 699l248 -733h-113l-61 196h-241l-58 -196
h-105l241 733h89zM391 253l-95 302l-91 -302h186z" />
    <glyph glyph-name="AE" unicode="&#xc6;" horiz-adv-x="830" 
d="M749 298h-247v-242h286v-90h-388v204h-182l-98 -204h-105l357 732h407v-90h-277v-221h247v-89zM400 260v286l-138 -286h138z" />
    <glyph glyph-name="Ccedilla" unicode="&#xc7;" horiz-adv-x="554" 
d="M450 159l85 -48q-41 -143 -184 -155l-18 -42q38 -3 66 -21.5t28 -51.5q0 -42 -34 -63.5t-85 -21.5q-33 0 -71 9v54q33 -9 61 -9q22 0 35 6.5t13 20.5q0 28 -61 28q-9 0 -33 -2l-6 34l26 62q-103 20 -163 114.5t-60 259.5q0 125 35.5 209.5t98 126t143.5 41.5
q80 0 133 -39t76 -116l-85 -49q-33 110 -127 110q-75 0 -120 -71.5t-45 -211.5t45 -212t120 -72q94 0 127 110z" />
    <glyph glyph-name="Egrave" unicode="&#xc8;" horiz-adv-x="503" 
d="M139 914h104l56 -141h-77zM424 298h-247v-242h285v-90h-388v732h379v-90h-276v-221h247v-89z" />
    <glyph glyph-name="Eacute" unicode="&#xc9;" horiz-adv-x="503" 
d="M231 773l56 141h104l-83 -141h-77zM424 298h-247v-242h285v-90h-388v732h379v-90h-276v-221h247v-89z" />
    <glyph glyph-name="Ecircumflex" unicode="&#xca;" horiz-adv-x="503" 
d="M226 914h77l103 -142h-89l-52 75l-53 -75h-89zM424 298h-247v-242h285v-90h-388v732h379v-90h-276v-221h247v-89z" />
    <glyph glyph-name="Edieresis" unicode="&#xcb;" horiz-adv-x="503" 
d="M131.5 805q-18.5 19 -18.5 45t18.5 45t43.5 19q27 0 45 -18.5t18 -45.5t-18 -45.5t-45 -18.5q-25 0 -43.5 19zM310 805q-18 19 -18 45t18 45t44 19t44.5 -19t18.5 -45t-18.5 -45t-44.5 -19t-44 19zM424 298h-247v-242h285v-90h-388v732h379v-90h-276v-221h247v-89z" />
    <glyph glyph-name="Igrave" unicode="&#xcc;" horiz-adv-x="250" 
d="M0 914h103l57 -141h-78zM177 -34h-103v732h103v-732z" />
    <glyph glyph-name="Iacute" unicode="&#xcd;" horiz-adv-x="250" 
d="M91 773l56 141h104l-82 -141h-78zM177 -34h-103v732h103v-732z" />
    <glyph glyph-name="Icircumflex" unicode="&#xce;" horiz-adv-x="250" 
d="M87 914h76l103 -142h-88l-53 75l-53 -75h-88zM177 -34h-103v732h103v-732z" />
    <glyph glyph-name="Idieresis" unicode="&#xcf;" horiz-adv-x="250" 
d="M-8 805q-18 19 -18 45t18 45t43 19q27 0 45.5 -19t18.5 -45t-18.5 -45t-45.5 -19q-25 0 -43 19zM170 805q-18 19 -18 45t18 45t44 19t44.5 -19t18.5 -45t-18.5 -45t-44.5 -19t-44 19zM177 -34h-103v732h103v-732z" />
    <glyph glyph-name="Eth" unicode="&#xd0;" horiz-adv-x="614" 
d="M266 698q92 0 159.5 -43t103.5 -125t36 -197t-36 -197.5t-103 -126t-160 -43.5h-189v334h-69v92h69v306h189zM249 56q103 0 154.5 71t51.5 206q0 134 -51.5 205t-154.5 71h-69v-217h112v-92h-112v-244h69z" />
    <glyph glyph-name="Ntilde" unicode="&#xd1;" horiz-adv-x="629" 
d="M175 785q3 57 25.5 89t60.5 32q21 0 36.5 -9t33.5 -25q3 -2 11.5 -9.5t15.5 -7.5q22 0 26 49h67q-3 -57 -25.5 -89t-59.5 -32q-20 0 -35.5 8.5t-33.5 23.5q-8 6 -16 11t-13 5q-21 0 -26 -46h-67zM158 698l302 -527v527h96v-732h-86l-301 525v-525h-95v732h84z" />
    <glyph glyph-name="Ograve" unicode="&#xd2;" horiz-adv-x="640" 
d="M194 914h104l57 -141h-78zM121 615.5q72 94.5 199 94.5q128 0 199.5 -95t71.5 -282q0 -188 -71.5 -283t-199.5 -95t-199.5 94.5t-71.5 283.5q0 188 72 282.5zM199.5 120q41.5 -71 120.5 -71q161 0 161 284q0 142 -41 213t-120 71t-120.5 -71t-41.5 -213t41.5 -213z" />
    <glyph glyph-name="Oacute" unicode="&#xd3;" horiz-adv-x="640" 
d="M286 773l56 141h104l-82 -141h-78zM121 615.5q72 94.5 199 94.5q128 0 199.5 -95t71.5 -282q0 -188 -71.5 -283t-199.5 -95t-199.5 94.5t-71.5 283.5q0 188 72 282.5zM199.5 120q41.5 -71 120.5 -71q161 0 161 284q0 142 -41 213t-120 71t-120.5 -71t-41.5 -213
t41.5 -213z" />
    <glyph glyph-name="Ocircumflex" unicode="&#xd4;" horiz-adv-x="640" 
d="M282 914h76l103 -142h-89l-52 75l-53 -75h-88zM121 615.5q72 94.5 199 94.5q128 0 199.5 -95t71.5 -282q0 -188 -71.5 -283t-199.5 -95t-199.5 94.5t-71.5 283.5q0 188 72 282.5zM199.5 120q41.5 -71 120.5 -71q161 0 161 284q0 142 -41 213t-120 71t-120.5 -71
t-41.5 -213t41.5 -213z" />
    <glyph glyph-name="Otilde" unicode="&#xd5;" horiz-adv-x="640" 
d="M182 785q3 57 25.5 89t60.5 32q21 0 36.5 -9t33.5 -25q3 -2 11.5 -9.5t15.5 -7.5q22 0 26 49h67q-3 -57 -25.5 -89t-59.5 -32q-20 0 -35.5 8.5t-33.5 23.5q-8 6 -16 11t-13 5q-21 0 -26 -46h-67zM121 615.5q72 94.5 199 94.5q128 0 199.5 -95t71.5 -282
q0 -188 -71.5 -283t-199.5 -95t-199.5 94.5t-71.5 283.5q0 188 72 282.5zM199.5 120q41.5 -71 120.5 -71q161 0 161 284q0 142 -41 213t-120 71t-120.5 -71t-41.5 -213t41.5 -213z" />
    <glyph glyph-name="Odieresis" unicode="&#xd6;" horiz-adv-x="640" 
d="M186.5 805q-18.5 19 -18.5 45t18.5 45t43.5 19q27 0 45 -18.5t18 -45.5t-18 -45.5t-45 -18.5q-25 0 -43.5 19zM365 805q-18 19 -18 45t18 45t44 19t44.5 -19t18.5 -45t-18.5 -45t-44.5 -19t-44 19zM121 615.5q72 94.5 199 94.5q128 0 199.5 -95t71.5 -282
q0 -188 -71.5 -283t-199.5 -95t-199.5 94.5t-71.5 283.5q0 188 72 282.5zM199.5 120q41.5 -71 120.5 -71q161 0 161 284q0 142 -41 213t-120 71t-120.5 -71t-41.5 -213t41.5 -213z" />
    <glyph glyph-name="multiply" unicode="&#xd7;" 
d="M242 393l133 133l65 -65l-134 -133l134 -133l-65 -65l-133 133l-134 -133l-64 65l133 133l-133 133l64 65z" />
    <glyph glyph-name="Oslash" unicode="&#xd8;" horiz-adv-x="640" 
d="M490 733h90l-63 -115q74 -99 74 -285q0 -187 -72 -282.5t-199 -95.5q-84 0 -142 42l-36 -65h-91l68 124q-70 99 -70 277q0 188 72 282.5t199 94.5q81 0 137 -37zM179 165l230 420q-35 32 -89 32q-79 0 -121.5 -71t-42.5 -213q0 -102 23 -168zM457 508l-231 -423
q38 -36 94 -36q80 0 121.5 71t41.5 213q0 111 -26 175z" />
    <glyph glyph-name="Ugrave" unicode="&#xd9;" horiz-adv-x="625" 
d="M187 915h104l56 -142h-78zM455 698h103v-449q0 -294 -245 -294q-246 0 -246 294v449h103v-431q0 -115 37 -166.5t107 -51.5q68 0 104.5 51.5t36.5 166.5v431z" />
    <glyph glyph-name="Uacute" unicode="&#xda;" horiz-adv-x="625" 
d="M278 773l57 142h104l-83 -142h-78zM455 698h103v-449q0 -294 -245 -294q-246 0 -246 294v449h103v-431q0 -115 37 -166.5t107 -51.5q68 0 104.5 51.5t36.5 166.5v431z" />
    <glyph glyph-name="Ucircumflex" unicode="&#xdb;" horiz-adv-x="625" 
d="M274 915h77l103 -142h-89l-52 75l-53 -75h-89zM455 698h103v-449q0 -294 -245 -294q-246 0 -246 294v449h103v-431q0 -115 37 -166.5t107 -51.5q68 0 104.5 51.5t36.5 166.5v431z" />
    <glyph glyph-name="Udieresis" unicode="&#xdc;" horiz-adv-x="625" 
d="M179.5 806q-18.5 19 -18.5 45t18.5 45t43.5 19q26 0 44.5 -19t18.5 -45t-18.5 -45t-44.5 -19q-25 0 -43.5 19zM357.5 806q-18.5 19 -18.5 45t18.5 45t43.5 19q27 0 45 -18.5t18 -45.5t-18 -45.5t-45 -18.5q-25 0 -43.5 19zM455 698h103v-449q0 -294 -245 -294
q-246 0 -246 294v449h103v-431q0 -115 37 -166.5t107 -51.5q68 0 104.5 51.5t36.5 166.5v431z" />
    <glyph glyph-name="Yacute" unicode="&#xdd;" horiz-adv-x="551" 
d="M246 773l57 141h103l-82 -141h-78zM284 380l143 318h111l-206 -430v-302h-103v303l-216 429h121z" />
    <glyph glyph-name="Thorn" unicode="&#xde;" horiz-adv-x="525" 
d="M272 564q67 0 118 -29t79 -81t28 -120q0 -67 -28 -119.5t-79 -81.5t-118 -29h-95v-138h-103v732h103v-134h95zM259 194q54 0 91 39t37 101t-35.5 101.5t-92.5 39.5h-82v-281h82z" />
    <glyph glyph-name="germandbls" unicode="&#xdf;" horiz-adv-x="516" 
d="M456 296.5q32 -48.5 32 -122.5q0 -98 -54 -158.5t-145 -60.5q-44 0 -80 12v92q32 -15 66 -15q53 0 81.5 35t28.5 96q0 65 -34 101.5t-97 36.5h-34v85h18q57 0 84.5 37t27.5 100q0 55 -23 84.5t-67 29.5q-48 0 -74 -40t-26 -130v-513h-98v517q0 131 55 193t147 62
q87 0 137.5 -53.5t50.5 -143.5q0 -61 -22.5 -106t-64.5 -70q59 -20 91 -68.5z" />
    <glyph glyph-name="agrave" unicode="&#xe0;" horiz-adv-x="472" 
d="M227 713l57 -157h-78l-82 157h103zM368.5 446.5q48.5 -50.5 48.5 -150.5v-330h-84l-3 37q0 11 -2 31q-41 -79 -131 -79q-64 0 -110 39t-46 119q0 82 52 126.5t132 44.5q47 0 95 -15v11q0 68 -22.5 99t-65.5 31q-66 0 -95 -68l-73 42q20 53 65.5 83t108.5 30
q82 0 130.5 -50.5zM320 192q-43 15 -79 15q-46 0 -72.5 -23.5t-26.5 -67.5q0 -40 21 -59.5t53 -19.5q43 0 73.5 32t30.5 89v34z" />
    <glyph glyph-name="aacute" unicode="&#xe1;" horiz-adv-x="472" 
d="M249 713h104l-83 -157h-78zM368.5 446.5q48.5 -50.5 48.5 -150.5v-330h-84l-3 37q0 11 -2 31q-41 -79 -131 -79q-64 0 -110 39t-46 119q0 82 52 126.5t132 44.5q47 0 95 -15v11q0 68 -22.5 99t-65.5 31q-66 0 -95 -68l-73 42q20 53 65.5 83t108.5 30q82 0 130.5 -50.5z
M320 192q-43 15 -79 15q-46 0 -72.5 -23.5t-26.5 -67.5q0 -40 21 -59.5t53 -19.5q43 0 73.5 32t30.5 89v34z" />
    <glyph glyph-name="acircumflex" unicode="&#xe2;" horiz-adv-x="472" 
d="M288 556l-52 84l-53 -84h-88l103 157h76l103 -157h-89zM368.5 446.5q48.5 -50.5 48.5 -150.5v-330h-84l-3 37q0 11 -2 31q-41 -79 -131 -79q-64 0 -110 39t-46 119q0 82 52 126.5t132 44.5q47 0 95 -15v11q0 68 -22.5 99t-65.5 31q-66 0 -95 -68l-73 42q20 53 65.5 83
t108.5 30q82 0 130.5 -50.5zM320 192q-43 15 -79 15q-46 0 -72.5 -23.5t-26.5 -67.5q0 -40 21 -59.5t53 -19.5q43 0 73.5 32t30.5 89v34z" />
    <glyph glyph-name="atilde" unicode="&#xe3;" horiz-adv-x="472" 
d="M167 572h-67q3 56 26 88t60 32q20 0 36 -9t33 -24q8 -7 15.5 -12t12.5 -5q22 0 26 49h67q-3 -57 -25.5 -89t-60.5 -32q-20 0 -36 8.5t-33 22.5q-20 16 -28 16q-21 0 -26 -45zM368.5 446.5q48.5 -50.5 48.5 -150.5v-330h-84l-3 37q0 11 -2 31q-41 -79 -131 -79
q-64 0 -110 39t-46 119q0 82 52 126.5t132 44.5q47 0 95 -15v11q0 68 -22.5 99t-65.5 31q-66 0 -95 -68l-73 42q20 53 65.5 83t108.5 30q82 0 130.5 -50.5zM320 192q-43 15 -79 15q-46 0 -72.5 -23.5t-26.5 -67.5q0 -40 21 -59.5t53 -19.5q43 0 73.5 32t30.5 89v34z" />
    <glyph glyph-name="adieresis" unicode="&#xe4;" horiz-adv-x="472" 
d="M101 589q-18 19 -18 46q0 26 18 45t44 19t44.5 -19t18.5 -45q0 -27 -18.5 -46t-44.5 -19t-44 19zM286.5 589.5q-18.5 19.5 -18.5 45.5t18.5 45t43.5 19q27 0 45 -18.5t18 -45.5t-18 -46t-45 -19q-25 0 -43.5 19.5zM368.5 446.5q48.5 -50.5 48.5 -150.5v-330h-84l-3 37
q0 11 -2 31q-41 -79 -131 -79q-64 0 -110 39t-46 119q0 82 52 126.5t132 44.5q47 0 95 -15v11q0 68 -22.5 99t-65.5 31q-66 0 -95 -68l-73 42q20 53 65.5 83t108.5 30q82 0 130.5 -50.5zM320 192q-43 15 -79 15q-46 0 -72.5 -23.5t-26.5 -67.5q0 -40 21 -59.5t53 -19.5
q43 0 73.5 32t30.5 89v34z" />
    <glyph glyph-name="aring" unicode="&#xe5;" horiz-adv-x="472" 
d="M158 575.5q-32 31.5 -32 79.5t32 79t80 31q47 0 78 -31t31 -79q0 -49 -31 -80t-78 -31q-48 0 -80 31.5zM202.5 692.5q-13.5 -14.5 -13.5 -37.5t13.5 -38t35.5 -15q21 0 34 15t13 38t-12.5 37.5t-34.5 14.5t-35.5 -14.5zM368.5 446.5q48.5 -50.5 48.5 -150.5v-330h-84
l-3 37q0 11 -2 31q-41 -79 -131 -79q-64 0 -110 39t-46 119q0 82 52 126.5t132 44.5q47 0 95 -15v11q0 68 -22.5 99t-65.5 31q-66 0 -95 -68l-73 42q20 53 65.5 83t108.5 30q82 0 130.5 -50.5zM320 192q-43 15 -79 15q-46 0 -72.5 -23.5t-26.5 -67.5q0 -40 21 -59.5
t53 -19.5q43 0 73.5 32t30.5 89v34z" />
    <glyph glyph-name="ae" unicode="&#xe6;" horiz-adv-x="740" 
d="M664 434q50 -63 50 -169q0 -33 -4 -61h-291q4 -84 35 -122.5t81 -38.5q64 0 89 66l74 -42q-18 -57 -63.5 -84.5t-103.5 -27.5q-113 0 -163 102q-45 -102 -161 -102q-71 0 -118.5 38.5t-47.5 119.5q0 82 51.5 126.5t132.5 44.5q46 0 96 -15v4q0 137 -90 137q-70 0 -97 -76
l-73 42q20 57 65.5 89t107.5 32q102 0 144 -85q25 43 63.5 64t86.5 21q86 0 136 -63zM615 282q-1 63 -26 96t-66 33q-39 0 -66.5 -32t-35.5 -97h194zM321 192q-45 15 -81 15q-46 0 -72 -23.5t-26 -68.5q0 -40 20 -59.5t53 -19.5q44 0 75 31.5t31 89.5v35z" />
    <glyph glyph-name="ccedilla" unicode="&#xe7;" horiz-adv-x="418" 
d="M300 61q23 17 34 52l76 -44q-15 -53 -50 -80t-81 -32l-17 -42q38 -3 65.5 -21.5t27.5 -52.5q0 -42 -34 -63.5t-85 -21.5q-34 0 -70 9v54q33 -9 60 -9q49 0 49 27q0 28 -58 28q-10 0 -36 -2l-7 35l27 63q-72 18 -118 85t-46 180q0 90 29.5 151t79 90.5t107.5 29.5
q55 0 98 -27.5t59 -87.5l-76 -44q-11 36 -34 52.5t-51 16.5q-48 0 -78.5 -45t-30.5 -136t30.5 -136.5t78.5 -45.5q28 0 51 17z" />
    <glyph glyph-name="egrave" unicode="&#xe8;" horiz-adv-x="460" 
d="M130 713h104l57 -158h-78zM384 433.5q50 -63.5 50 -169.5q0 -33 -4 -61h-291q4 -83 34.5 -121.5t80.5 -38.5q64 0 90 67l74 -43q-18 -57 -64 -84.5t-106 -27.5q-95 0 -153 67.5t-58 201.5q0 91 28 152.5t75.5 91t105.5 29.5q88 0 138 -63.5zM176.5 379
q-27.5 -32 -34.5 -98h194q-1 64 -26 97t-66 33q-40 0 -67.5 -32z" />
    <glyph glyph-name="eacute" unicode="&#xe9;" horiz-adv-x="460" 
d="M199 555l57 158h103l-82 -158h-78zM384 433.5q50 -63.5 50 -169.5q0 -33 -4 -61h-291q4 -83 34.5 -121.5t80.5 -38.5q64 0 90 67l74 -43q-18 -57 -64 -84.5t-106 -27.5q-95 0 -153 67.5t-58 201.5q0 91 28 152.5t75.5 91t105.5 29.5q88 0 138 -63.5zM176.5 379
q-27.5 -32 -34.5 -98h194q-1 64 -26 97t-66 33q-40 0 -67.5 -32z" />
    <glyph glyph-name="ecircumflex" unicode="&#xea;" horiz-adv-x="460" 
d="M204 713h77l103 -158h-89l-52 84l-53 -84h-89zM384 433.5q50 -63.5 50 -169.5q0 -33 -4 -61h-291q4 -83 34.5 -121.5t80.5 -38.5q64 0 90 67l74 -43q-18 -57 -64 -84.5t-106 -27.5q-95 0 -153 67.5t-58 201.5q0 91 28 152.5t75.5 91t105.5 29.5q88 0 138 -63.5z
M176.5 379q-27.5 -32 -34.5 -98h194q-1 64 -26 97t-66 33q-40 0 -67.5 -32z" />
    <glyph glyph-name="edieresis" unicode="&#xeb;" horiz-adv-x="460" 
d="M108 589q-18 19 -18 45t18 45t43 19q27 0 45.5 -19t18.5 -45t-18.5 -45t-45.5 -19q-25 0 -43 19zM293.5 589q-18.5 19 -18.5 45t18.5 45t43.5 19q26 0 44.5 -19t18.5 -45t-18.5 -45t-44.5 -19q-25 0 -43.5 19zM384 433.5q50 -63.5 50 -169.5q0 -33 -4 -61h-291
q4 -83 34.5 -121.5t80.5 -38.5q64 0 90 67l74 -43q-18 -57 -64 -84.5t-106 -27.5q-95 0 -153 67.5t-58 201.5q0 91 28 152.5t75.5 91t105.5 29.5q88 0 138 -63.5zM176.5 379q-27.5 -32 -34.5 -98h194q-1 64 -26 97t-66 33q-40 0 -67.5 -32z" />
    <glyph glyph-name="igrave" unicode="&#xec;" horiz-adv-x="222" 
d="M-3 713h104l56 -157h-78zM160 -34h-98v519h98v-519z" />
    <glyph glyph-name="iacute" unicode="&#xed;" horiz-adv-x="222" 
d="M66 556l56 157h104l-83 -157h-77zM160 -34h-98v519h98v-519z" />
    <glyph glyph-name="icircumflex" unicode="&#xee;" horiz-adv-x="222" 
d="M71 713h76l103 -157h-88l-53 84l-53 -84h-88zM160 -34h-98v519h98v-519z" />
    <glyph glyph-name="idieresis" unicode="&#xef;" horiz-adv-x="222" 
d="M-26 589q-18 19 -18 46q0 26 18.5 45t43.5 19q26 0 44.5 -19t18.5 -45q0 -27 -18.5 -46t-44.5 -19t-44 19zM160 589q-18 19 -18 46q0 26 18 45t44 19t44.5 -19t18.5 -45q0 -27 -18.5 -46t-44.5 -19t-44 19zM160 -34h-98v519h98v-519z" />
    <glyph glyph-name="eth" unicode="&#xf0;" horiz-adv-x="502" 
d="M323 619q74 -74 107.5 -169.5t33.5 -211.5q0 -95 -27.5 -158.5t-75.5 -94t-109 -30.5q-96 0 -155 67t-59 201q0 90 29 150.5t77 89.5t106 29q42 0 72 -18q-30 56 -76 96l-116 -73l-40 65l91 57q-46 28 -77 44l43 76q68 -33 114 -68l106 68l42 -65zM330.5 88.5
q29.5 44.5 29.5 135.5t-29.5 135t-78.5 44t-79 -44t-30 -135t30 -135.5t79 -44.5t78.5 44.5z" />
    <glyph glyph-name="ntilde" unicode="&#xf1;" horiz-adv-x="501" 
d="M120 572q3 57 25.5 88.5t60.5 31.5q20 0 34.5 -8.5t34.5 -24.5q3 -2 11.5 -9.5t15.5 -7.5q22 0 26 49h67q-3 -57 -25.5 -89t-59.5 -32q-20 0 -36 8.5t-33 22.5q-8 6 -16 11t-13 5q-20 0 -25 -45h-67zM404.5 445.5q41.5 -51.5 41.5 -153.5v-326h-98v296q0 71 -20.5 106
t-64.5 35q-45 0 -74 -35.5t-29 -108.5v-293h-98v520h87q3 -60 4 -76q22 43 58 65t81 22q71 0 112.5 -51.5z" />
    <glyph glyph-name="ograve" unicode="&#xf2;" horiz-adv-x="500" 
d="M137 713h104l56 -158h-78zM65.5 377q28.5 61 77 90.5t108.5 29.5t108 -29t76 -90t28 -152t-28 -152t-76 -90t-108 -29t-108.5 29t-77 90t-28.5 152q0 90 28.5 151zM171.5 88.5q30.5 -44.5 79.5 -44.5q48 0 78 45t30 137q0 93 -29.5 137t-78.5 44t-79.5 -44t-30.5 -137
t30.5 -137.5z" />
    <glyph glyph-name="oacute" unicode="&#xf3;" horiz-adv-x="500" 
d="M206 555l56 158h104l-83 -158h-77zM65.5 377q28.5 61 77 90.5t108.5 29.5t108 -29t76 -90t28 -152t-28 -152t-76 -90t-108 -29t-108.5 29t-77 90t-28.5 152q0 90 28.5 151zM171.5 88.5q30.5 -44.5 79.5 -44.5q48 0 78 45t30 137q0 93 -29.5 137t-78.5 44t-79.5 -44
t-30.5 -137t30.5 -137.5z" />
    <glyph glyph-name="ocircumflex" unicode="&#xf4;" horiz-adv-x="500" 
d="M211 713h76l103 -158h-88l-53 84l-53 -84h-88zM65.5 377q28.5 61 77 90.5t108.5 29.5t108 -29t76 -90t28 -152t-28 -152t-76 -90t-108 -29t-108.5 29t-77 90t-28.5 152q0 90 28.5 151zM171.5 88.5q30.5 -44.5 79.5 -44.5q48 0 78 45t30 137q0 93 -29.5 137t-78.5 44
t-79.5 -44t-30.5 -137t30.5 -137.5z" />
    <glyph glyph-name="otilde" unicode="&#xf5;" horiz-adv-x="500" 
d="M113 571q3 57 26 89t61 32q20 0 35 -9t33 -25q8 -7 15.5 -12t12.5 -5q22 0 26 49h67q-3 -57 -25.5 -89t-59.5 -32q-20 0 -35.5 8.5t-33.5 23.5q-8 6 -16 11t-13 5q-21 0 -26 -46h-67zM65.5 377q28.5 61 77 90.5t108.5 29.5t108 -29t76 -90t28 -152t-28 -152t-76 -90
t-108 -29t-108.5 29t-77 90t-28.5 152q0 90 28.5 151zM171.5 88.5q30.5 -44.5 79.5 -44.5q48 0 78 45t30 137q0 93 -29.5 137t-78.5 44t-79.5 -44t-30.5 -137t30.5 -137.5z" />
    <glyph glyph-name="odieresis" unicode="&#xf6;" horiz-adv-x="500" 
d="M114.5 589q-18.5 19 -18.5 45t18.5 45t43.5 19q26 0 44.5 -19t18.5 -45t-18.5 -45t-44.5 -19q-25 0 -43.5 19zM300 589q-18 19 -18 45t18 45t44 19t44.5 -19t18.5 -45t-18.5 -45t-44.5 -19t-44 19zM65.5 377q28.5 61 77 90.5t108.5 29.5t108 -29t76 -90t28 -152t-28 -152
t-76 -90t-108 -29t-108.5 29t-77 90t-28.5 152q0 90 28.5 151zM171.5 88.5q30.5 -44.5 79.5 -44.5q48 0 78 45t30 137q0 93 -29.5 137t-78.5 44t-79.5 -44t-30.5 -137t30.5 -137.5z" />
    <glyph glyph-name="divide" unicode="&#xf7;" 
d="M196 472q-19 20 -19 47t19 46.5t46 19.5t46 -19.5t19 -46.5t-19 -47t-46 -20t-46 20zM456 282h-428v92h428v-92zM196 90.5q-19 19.5 -19 46.5q0 28 19 47.5t46 19.5t46 -19.5t19 -47.5q0 -27 -19 -46.5t-46 -19.5t-46 19.5z" />
    <glyph glyph-name="oslash" unicode="&#xf8;" horiz-adv-x="499" 
d="M377 520h85l-55 -96q55 -71 55 -198q0 -91 -28 -152t-76 -90t-108 -29q-56 0 -100 25l-28 -48h-85l56 97q-56 70 -56 197q0 90 28.5 151t76.5 90.5t108 29.5q56 0 99 -25zM150 127l153 265q-23 17 -53 17q-50 0 -82 -45t-32 -138q0 -59 14 -99zM349 324l-153 -264
q23 -17 54 -17q50 0 81.5 45t31.5 138q0 58 -14 98z" />
    <glyph glyph-name="ugrave" unicode="&#xf9;" horiz-adv-x="501" 
d="M133 714h104l56 -158h-78zM341 486h98v-520h-86l-3 39q0 14 -2 36q-22 -43 -58 -64.5t-81 -21.5q-71 0 -112.5 51t-41.5 153v327h98v-296q0 -71 20.5 -106t64.5 -35q45 0 74 35.5t29 108.5v293z" />
    <glyph glyph-name="uacute" unicode="&#xfa;" horiz-adv-x="501" 
d="M202 556l56 158h104l-83 -158h-77zM341 486h98v-520h-86l-3 39q0 14 -2 36q-22 -43 -58 -64.5t-81 -21.5q-71 0 -112.5 51t-41.5 153v327h98v-296q0 -71 20.5 -106t64.5 -35q45 0 74 35.5t29 108.5v293z" />
    <glyph glyph-name="ucircumflex" unicode="&#xfb;" horiz-adv-x="501" 
d="M207 714h76l103 -158h-88l-53 84l-53 -84h-88zM341 486h98v-520h-86l-3 39q0 14 -2 36q-22 -43 -58 -64.5t-81 -21.5q-71 0 -112.5 51t-41.5 153v327h98v-296q0 -71 20.5 -106t64.5 -35q45 0 74 35.5t29 108.5v293z" />
    <glyph glyph-name="udieresis" unicode="&#xfc;" horiz-adv-x="501" 
d="M110.5 590q-18.5 19 -18.5 45t18.5 45t43.5 19q26 0 44.5 -19t18.5 -45t-18.5 -45t-44.5 -19q-25 0 -43.5 19zM296 590q-18 19 -18 45t18 45t44 19t44.5 -19t18.5 -45t-18.5 -45t-44.5 -19t-44 19zM341 486h98v-520h-86l-3 39q0 14 -2 36q-22 -43 -58 -64.5t-81 -21.5
q-71 0 -112.5 51t-41.5 153v327h98v-296q0 -71 20.5 -106t64.5 -35q45 0 74 35.5t29 108.5v293z" />
    <glyph glyph-name="yacute" unicode="&#xfd;" horiz-adv-x="465" 
d="M190 556l57 158h104l-83 -158h-78zM241 104l112 381h102l-185 -569q-27 -84 -63.5 -122t-97.5 -38q-59 0 -95 33l38 77q22 -19 55 -19q29 0 47 18t33 68l6 21l-186 531h112z" />
    <glyph glyph-name="thorn" unicode="&#xfe;" horiz-adv-x="521" 
d="M387.5 467.5q44.5 -29.5 70.5 -90.5t26 -151q0 -91 -26.5 -152t-70.5 -90t-99 -29q-88 0 -128 73v-259h-98v958h98v-305q41 75 128 75q55 0 99.5 -29.5zM351.5 89.5q29.5 45.5 29.5 136.5q0 90 -29.5 135t-80.5 45q-47 0 -79 -41t-32 -139t32 -140t79 -42q51 0 80.5 45.5
z" />
    <glyph glyph-name="ydieresis" unicode="&#xff;" horiz-adv-x="465" 
d="M99 590q-18 19 -18 45t18 45t44 19t44.5 -19t18.5 -45t-18.5 -45t-44.5 -19t-44 19zM284.5 590q-18.5 19 -18.5 45t18.5 45t43.5 19q27 0 45 -18.5t18 -45.5t-18 -45.5t-45 -18.5q-25 0 -43.5 19zM241 104l112 381h102l-185 -569q-27 -84 -63.5 -122t-97.5 -38
q-59 0 -95 33l38 77q22 -19 55 -19q29 0 47 18t33 68l6 21l-186 531h112z" />
    <glyph glyph-name="Amacron" unicode="&#x100;" horiz-adv-x="608" 
d="M178 810v81h246v-81h-246zM345 699l248 -733h-113l-61 196h-241l-58 -196h-105l241 733h89zM391 253l-95 302l-91 -302h186z" />
    <glyph glyph-name="amacron" unicode="&#x101;" horiz-adv-x="472" 
d="M115 674h246v-80h-246v80zM368.5 446.5q48.5 -50.5 48.5 -150.5v-330h-84l-3 37q0 11 -2 31q-41 -79 -131 -79q-64 0 -110 39t-46 119q0 82 52 126.5t132 44.5q47 0 95 -15v11q0 68 -22.5 99t-65.5 31q-66 0 -95 -68l-73 42q20 53 65.5 83t108.5 30q82 0 130.5 -50.5z
M320 192q-43 15 -79 15q-46 0 -72.5 -23.5t-26.5 -67.5q0 -40 21 -59.5t53 -19.5q43 0 73.5 32t30.5 89v34z" />
    <glyph glyph-name="Abreve" unicode="&#x102;" horiz-adv-x="608" 
d="M203 811.5q-36 39.5 -36 102.5h85q3 -75 49 -75q47 0 50 75h85q0 -63 -36 -102.5t-99 -39.5q-62 0 -98 39.5zM345 699l248 -733h-113l-61 196h-241l-58 -196h-105l241 733h89zM391 253l-95 302l-91 -302h186z" />
    <glyph glyph-name="abreve" unicode="&#x103;" horiz-adv-x="472" 
d="M139.5 597q-35.5 42 -35.5 116h85q2 -42 13 -63.5t36 -21.5t36.5 21.5t13.5 63.5h85q0 -74 -35.5 -116t-99.5 -42q-63 0 -98.5 42zM368.5 446.5q48.5 -50.5 48.5 -150.5v-330h-84l-3 37q0 11 -2 31q-41 -79 -131 -79q-64 0 -110 39t-46 119q0 82 52 126.5t132 44.5
q47 0 95 -15v11q0 68 -22.5 99t-65.5 31q-66 0 -95 -68l-73 42q20 53 65.5 83t108.5 30q82 0 130.5 -50.5zM320 192q-43 15 -79 15q-46 0 -72.5 -23.5t-26.5 -67.5q0 -40 21 -59.5t53 -19.5q43 0 73.5 32t30.5 89v34z" />
    <glyph glyph-name="Aogonek" unicode="&#x104;" horiz-adv-x="608" 
d="M641 -201q-43 -43 -104 -43q-47 0 -79.5 22t-32.5 67q0 59 68 121h-13l-61 196h-241l-58 -196h-105l241 733h89l248 -733q-86 -55 -86 -109q0 -22 11.5 -32.5t30.5 -10.5q26 0 55 27zM296 555l-91 -302h186z" />
    <glyph glyph-name="aogonek" unicode="&#x105;" horiz-adv-x="472" 
d="M465 -201q-43 -43 -103 -43q-47 0 -79.5 22t-32.5 67q0 65 82 132q-2 41 -4 57q-41 -79 -131 -79q-64 0 -110 39t-46 119q0 82 52.5 127t132.5 45q45 0 93 -15v9q1 69 -21 100t-66 31q-66 0 -95 -68l-73 42q20 53 65.5 83t108.5 30q82 0 130.5 -50.5t48.5 -150.5v-330
q-86 -55 -86 -109q0 -21 11.5 -31.5t30.5 -10.5q29 0 55 26zM320 192q-43 15 -79 15q-46 0 -72.5 -23.5t-26.5 -67.5q0 -40 21 -59.5t53 -19.5q43 0 73.5 32t30.5 89v34z" />
    <glyph glyph-name="Cacute" unicode="&#x106;" horiz-adv-x="554" 
d="M278 773l56 142h104l-83 -142h-77zM450 159l85 -48q-46 -156 -210 -156q-81 0 -143 41.5t-97.5 126.5t-35.5 210t35.5 209.5t98 126t143.5 41.5q80 0 133 -39t76 -116l-85 -49q-33 110 -127 110q-75 0 -120 -71.5t-45 -211.5t45 -212t120 -72q94 0 127 110z" />
    <glyph glyph-name="cacute" unicode="&#x107;" horiz-adv-x="418" 
d="M200 556l56 158h104l-82 -158h-78zM300 61q23 17 34 52l76 -44q-17 -60 -60 -87t-97 -27q-58 0 -107 29.5t-79 90.5t-30 151t29.5 151t79 90.5t107.5 29.5q55 0 98 -27.5t59 -87.5l-76 -44q-11 36 -34 52.5t-51 16.5q-48 0 -78.5 -45t-30.5 -136t30.5 -136.5t78.5 -45.5
q28 0 51 17z" />
    <glyph glyph-name="Ccircumflex" unicode="&#x108;" horiz-adv-x="554" 
d="M273 915h77l103 -142h-89l-52 75l-53 -75h-89zM450 159l85 -48q-46 -156 -210 -156q-81 0 -143 41.5t-97.5 126.5t-35.5 210t35.5 209.5t98 126t143.5 41.5q80 0 133 -39t76 -116l-85 -49q-33 110 -127 110q-75 0 -120 -71.5t-45 -211.5t45 -212t120 -72q94 0 127 110z
" />
    <glyph glyph-name="ccircumflex" unicode="&#x109;" horiz-adv-x="418" 
d="M205 714h77l102 -158h-88l-52 84l-53 -84h-89zM300 61q23 17 34 52l76 -44q-17 -60 -60 -87t-97 -27q-58 0 -107 29.5t-79 90.5t-30 151t29.5 151t79 90.5t107.5 29.5q55 0 98 -27.5t59 -87.5l-76 -44q-11 36 -34 52.5t-51 16.5q-48 0 -78.5 -45t-30.5 -136t30.5 -136.5
t78.5 -45.5q28 0 51 17z" />
    <glyph glyph-name="Cdotaccent" unicode="&#x10a;" horiz-adv-x="554" 
d="M268.5 806q-18.5 19 -18.5 45t18.5 45t43.5 19q26 0 44.5 -19t18.5 -45t-18.5 -45t-44.5 -19q-25 0 -43.5 19zM450 159l85 -48q-46 -156 -210 -156q-81 0 -143 41.5t-97.5 126.5t-35.5 210t35.5 209.5t98 126t143.5 41.5q80 0 133 -39t76 -116l-85 -49q-33 110 -127 110
q-75 0 -120 -71.5t-45 -211.5t45 -212t120 -72q94 0 127 110z" />
    <glyph glyph-name="cdotaccent" unicode="&#x10b;" horiz-adv-x="418" 
d="M200 589q-19 20 -19 47t19 47t45 20q27 0 46.5 -20t19.5 -47t-19.5 -47t-46.5 -20q-26 0 -45 20zM300 61q23 17 34 52l76 -44q-17 -60 -60 -87t-97 -27q-58 0 -107 29.5t-79 90.5t-30 151t29.5 151t79 90.5t107.5 29.5q55 0 98 -27.5t59 -87.5l-76 -44q-11 36 -34 52.5
t-51 16.5q-48 0 -78.5 -45t-30.5 -136t30.5 -136.5t78.5 -45.5q28 0 51 17z" />
    <glyph glyph-name="Ccaron" unicode="&#x10c;" horiz-adv-x="554" 
d="M259 915l53 -75l52 75h89l-103 -142h-77l-103 142h89zM450 159l85 -48q-46 -156 -210 -156q-81 0 -143 41.5t-97.5 126.5t-35.5 210t35.5 209.5t98 126t143.5 41.5q80 0 133 -39t76 -116l-85 -49q-33 110 -127 110q-75 0 -120 -71.5t-45 -211.5t45 -212t120 -72
q94 0 127 110z" />
    <glyph glyph-name="ccaron" unicode="&#x10d;" horiz-adv-x="418" 
d="M192 714l53 -85l52 85h89l-103 -158h-76l-103 158h88zM300 61q23 17 34 52l76 -44q-17 -60 -60 -87t-97 -27q-58 0 -107 29.5t-79 90.5t-30 151t29.5 151t79 90.5t107.5 29.5q55 0 98 -27.5t59 -87.5l-76 -44q-11 36 -34 52.5t-51 16.5q-48 0 -78.5 -45t-30.5 -136
t30.5 -136.5t78.5 -45.5q28 0 51 17z" />
    <glyph glyph-name="Dcaron" unicode="&#x10e;" horiz-adv-x="611" 
d="M218 915l53 -75l52 75h89l-103 -142h-76l-103 142h88zM262 698q92 0 159.5 -43t103.5 -125t36 -197t-36 -197.5t-103 -126t-160 -43.5h-188v732h188zM245 56q104 0 155.5 71t51.5 206q0 134 -52 205t-155 71h-68v-553h68z" />
    <glyph glyph-name="dcaron" unicode="&#x10f;" horiz-adv-x="592" 
d="M611 716q17 -20 17 -61q0 -55 -32 -88.5t-86 -42.5v46q28 8 43 21t19 35h-6q-23 0 -36.5 16t-13.5 39q0 24 14.5 39.5t37.5 15.5q26 0 43 -20zM362 727h98v-761h-87l-2 24q0 26 -4 50q-39 -85 -134 -85q-55 0 -99 29.5t-70.5 90.5t-26.5 151t26.5 151t70.5 90.5t99 29.5
q88 0 129 -74v304zM330 86q32 41 32 140q0 98 -32 139.5t-80 41.5q-51 0 -80.5 -45t-29.5 -136t29.5 -136t80.5 -45q48 0 80 41z" />
    <glyph glyph-name="Dcroat" unicode="&#x110;" horiz-adv-x="614" 
d="M266 698q92 0 159.5 -43t103.5 -125t36 -197t-36 -197.5t-103 -126t-160 -43.5h-189v334h-69v92h69v306h189zM249 56q103 0 154.5 71t51.5 206q0 134 -51.5 205t-154.5 71h-69v-217h112v-92h-112v-244h69z" />
    <glyph glyph-name="dcroat" unicode="&#x111;" horiz-adv-x="527" 
d="M460 636h69v-79h-69v-591h-87l-2 24q0 26 -4 50q-39 -85 -134 -85q-55 0 -99 29.5t-70.5 90.5t-26.5 151t26.5 151t70.5 90.5t99 29.5q88 0 129 -74v134h-106v79h106v91h98v-91zM330 86q32 41 32 140q0 98 -32 139.5t-80 41.5q-51 0 -80.5 -45t-29.5 -136t29.5 -136
t80.5 -45q48 0 80 41z" />
    <glyph glyph-name="Emacron" unicode="&#x112;" horiz-adv-x="503" 
d="M142 810v81h246v-81h-246zM424 298h-247v-242h285v-90h-388v732h379v-90h-276v-221h247v-89z" />
    <glyph glyph-name="emacron" unicode="&#x113;" horiz-adv-x="460" 
d="M122 593v81h245v-81h-245zM384 433.5q50 -63.5 50 -169.5q0 -33 -4 -61h-291q4 -83 34.5 -121.5t80.5 -38.5q64 0 90 67l74 -43q-18 -57 -64 -84.5t-106 -27.5q-95 0 -153 67.5t-58 201.5q0 91 28 152.5t75.5 91t105.5 29.5q88 0 138 -63.5zM176.5 379
q-27.5 -32 -34.5 -98h194q-1 64 -26 97t-66 33q-40 0 -67.5 -32z" />
    <glyph glyph-name="Ebreve" unicode="&#x114;" horiz-adv-x="503" 
d="M167 811.5q-36 39.5 -36 102.5h85q3 -75 49 -75q47 0 50 75h85q0 -63 -36 -102.5t-99 -39.5q-62 0 -98 39.5zM424 298h-247v-242h285v-90h-388v732h379v-90h-276v-221h247v-89z" />
    <glyph glyph-name="ebreve" unicode="&#x115;" horiz-adv-x="460" 
d="M146 596q-36 42 -36 116h86q2 -42 13 -63.5t36 -21.5t36.5 21.5t13.5 63.5h85q0 -74 -35.5 -116t-99.5 -42q-63 0 -99 42zM384 433.5q50 -63.5 50 -169.5q0 -33 -4 -61h-291q4 -83 34.5 -121.5t80.5 -38.5q64 0 90 67l74 -43q-18 -57 -64 -84.5t-106 -27.5
q-95 0 -153 67.5t-58 201.5q0 91 28 152.5t75.5 91t105.5 29.5q88 0 138 -63.5zM176.5 379q-27.5 -32 -34.5 -98h194q-1 64 -26 97t-66 33q-40 0 -67.5 -32z" />
    <glyph glyph-name="Edotaccent" unicode="&#x116;" horiz-adv-x="503" 
d="M221.5 805q-18.5 19 -18.5 45t18.5 45t43.5 19q26 0 44.5 -19t18.5 -45t-18.5 -45t-44.5 -19q-25 0 -43.5 19zM424 298h-247v-242h285v-90h-388v732h379v-90h-276v-221h247v-89z" />
    <glyph glyph-name="edotaccent" unicode="&#x117;" horiz-adv-x="460" 
d="M199 588q-19 20 -19 47t19 47t46 20t46 -20t19 -47t-19 -47t-46 -20t-46 20zM384 433.5q50 -63.5 50 -169.5q0 -33 -4 -61h-291q4 -83 34.5 -121.5t80.5 -38.5q64 0 90 67l74 -43q-18 -57 -64 -84.5t-106 -27.5q-95 0 -153 67.5t-58 201.5q0 91 28 152.5t75.5 91
t105.5 29.5q88 0 138 -63.5zM176.5 379q-27.5 -32 -34.5 -98h194q-1 64 -26 97t-66 33q-40 0 -67.5 -32z" />
    <glyph glyph-name="Eogonek" unicode="&#x118;" horiz-adv-x="503" 
d="M511 -201q-23 -22 -48 -32.5t-56 -10.5q-47 0 -79.5 22t-32.5 67q0 60 70 121h-291v732h379v-90h-276v-221h247v-89h-247v-242h285v-90q-86 -55 -86 -109q0 -21 12 -32t30 -11q28 0 55 27z" />
    <glyph glyph-name="eogonek" unicode="&#x119;" horiz-adv-x="460" 
d="M384 433.5q50 -63.5 50 -169.5q0 -33 -4 -61h-291q4 -83 34.5 -121.5t80.5 -38.5q64 0 90 67l74 -43q-16 -49 -53 -77q-46 -37 -66.5 -68t-20.5 -60q0 -46 41 -46q27 0 56 26l37 -42q-43 -44 -104 -44q-46 0 -79 23t-33 72q0 52 46 104q-93 2 -149 69.5t-56 199.5
q0 91 28 152.5t75.5 91t105.5 29.5q88 0 138 -63.5zM336 281q-1 64 -26 97t-66 33q-40 0 -67.5 -32t-34.5 -98h194z" />
    <glyph glyph-name="Ecaron" unicode="&#x11a;" horiz-adv-x="503" 
d="M212 914l53 -75l52 75h89l-103 -142h-77l-103 142h89zM424 298h-247v-242h285v-90h-388v732h379v-90h-276v-221h247v-89z" />
    <glyph glyph-name="ecaron" unicode="&#x11b;" horiz-adv-x="460" 
d="M192 713l53 -85l52 85h88l-102 -158h-77l-103 158h89zM384 433.5q50 -63.5 50 -169.5q0 -33 -4 -61h-291q4 -83 34.5 -121.5t80.5 -38.5q64 0 90 67l74 -43q-18 -57 -64 -84.5t-106 -27.5q-95 0 -153 67.5t-58 201.5q0 91 28 152.5t75.5 91t105.5 29.5q88 0 138 -63.5z
M176.5 379q-27.5 -32 -34.5 -98h194q-1 64 -26 97t-66 33q-40 0 -67.5 -32z" />
    <glyph glyph-name="Gcircumflex" unicode="&#x11c;" horiz-adv-x="591" 
d="M287 915h77l103 -142h-89l-52 75l-53 -75h-89zM331 265v91h215v-295q-28 -47 -81.5 -76.5t-130.5 -29.5q-132 0 -208.5 96.5t-76.5 286.5q0 122 36 205.5t99.5 125t147.5 41.5q83 0 139.5 -41t74.5 -114l-84 -49q-13 52 -48 81t-88 29q-79 0 -124 -70.5t-45 -207.5
q0 -145 48.5 -217t134.5 -72q70 0 104 44v172h-113z" />
    <glyph glyph-name="gcircumflex" unicode="&#x11d;" horiz-adv-x="518" 
d="M208 713h76l103 -157h-89l-52 84l-53 -84h-88zM459 485v-469q0 -144 -63 -202t-153 -58q-72 0 -124 33t-70 96l76 45q16 -44 45.5 -63.5t72.5 -19.5q61 0 89.5 39.5t28.5 137.5l4 13q-41 -80 -132 -80q-54 0 -98.5 29.5t-71 90.5t-26.5 150q0 90 26.5 151t70.5 90t99 29
q95 0 134 -84q3 23 5 72h87zM330 88q32 41 32 139t-32 139.5t-80 41.5q-51 0 -80.5 -45t-29.5 -136q0 -90 29.5 -135t80.5 -45q48 0 80 41z" />
    <glyph glyph-name="Gbreve" unicode="&#x11e;" horiz-adv-x="591" 
d="M227.5 812.5q-36.5 39.5 -36.5 102.5h86q3 -75 49 -75q47 0 50 75h85q0 -63 -36 -102.5t-99 -39.5q-62 0 -98.5 39.5zM331 265v91h215v-295q-28 -47 -81.5 -76.5t-130.5 -29.5q-132 0 -208.5 96.5t-76.5 286.5q0 122 36 205.5t99.5 125t147.5 41.5q83 0 139.5 -41
t74.5 -114l-84 -49q-13 52 -48 81t-88 29q-79 0 -124 -70.5t-45 -207.5q0 -145 48.5 -217t134.5 -72q70 0 104 44v172h-113z" />
    <glyph glyph-name="gbreve" unicode="&#x11f;" horiz-adv-x="518" 
d="M149.5 597q-35.5 42 -35.5 116h85q2 -42 13 -63.5t36 -21.5t36.5 21.5t13.5 63.5h85q0 -74 -35.5 -116t-99.5 -42q-63 0 -98.5 42zM459 485v-469q0 -144 -63 -202t-153 -58q-72 0 -124 33t-70 96l76 45q16 -44 45.5 -63.5t72.5 -19.5q61 0 89.5 39.5t28.5 137.5l4 13
q-41 -80 -132 -80q-54 0 -98.5 29.5t-71 90.5t-26.5 150q0 90 26.5 151t70.5 90t99 29q95 0 134 -84q3 23 5 72h87zM330 88q32 41 32 139t-32 139.5t-80 41.5q-51 0 -80.5 -45t-29.5 -136q0 -90 29.5 -135t80.5 -45q48 0 80 41z" />
    <glyph glyph-name="Gdotaccent" unicode="&#x120;" horiz-adv-x="591" 
d="M282 806q-18 19 -18 45t18 45t44 19t44.5 -19t18.5 -45t-19 -45t-44 -19q-26 0 -44 19zM331 265v91h215v-295q-28 -47 -81.5 -76.5t-130.5 -29.5q-132 0 -208.5 96.5t-76.5 286.5q0 122 36 205.5t99.5 125t147.5 41.5q83 0 139.5 -41t74.5 -114l-84 -49q-13 52 -48 81
t-88 29q-79 0 -124 -70.5t-45 -207.5q0 -145 48.5 -217t134.5 -72q70 0 104 44v172h-113z" />
    <glyph glyph-name="gdotaccent" unicode="&#x121;" horiz-adv-x="518" 
d="M202 589q-19 20 -19 47t19 46.5t46 19.5t46.5 -19.5t19.5 -46.5t-19.5 -47t-46.5 -20t-46 20zM459 485v-469q0 -144 -63 -202t-153 -58q-72 0 -124 33t-70 96l76 45q16 -44 45.5 -63.5t72.5 -19.5q61 0 89.5 39.5t28.5 137.5l4 13q-41 -80 -132 -80q-54 0 -98.5 29.5
t-71 90.5t-26.5 150q0 90 26.5 151t70.5 90t99 29q95 0 134 -84q3 23 5 72h87zM330 88q32 41 32 139t-32 139.5t-80 41.5q-51 0 -80.5 -45t-29.5 -136q0 -90 29.5 -135t80.5 -45q48 0 80 41z" />
    <glyph glyph-name="uni0122" unicode="&#x122;" horiz-adv-x="591" 
d="M331 265v91h215v-295q-28 -47 -81.5 -76.5t-130.5 -29.5q-132 0 -208.5 96.5t-76.5 286.5q0 122 36 205.5t99.5 125t147.5 41.5q83 0 139.5 -41t74.5 -114l-84 -49q-13 52 -48 81t-88 29q-79 0 -124 -70.5t-45 -207.5q0 -145 48.5 -217t134.5 -72q70 0 104 44v172h-113z
M379 -89q19 -17 19 -50q0 -44 -35 -71.5t-96 -33.5v38q31 6 47.5 17t20.5 28h-6q-26 0 -41.5 12.5t-15.5 32.5q0 19 16.5 31.5t41.5 12.5q30 0 49 -17z" />
    <glyph glyph-name="uni0123" unicode="&#x123;" horiz-adv-x="518" 
d="M197.5 588.5q-19.5 22.5 -19.5 67.5q0 59 36 97t95 48v-52q-61 -14 -69 -60h6q26 0 42 -18t16 -44t-16.5 -43.5t-41.5 -17.5q-29 0 -48.5 22.5zM459 485v-469q0 -144 -63 -202t-153 -58q-72 0 -124 33t-70 96l76 45q16 -44 45.5 -63.5t72.5 -19.5q61 0 89.5 39.5
t28.5 137.5l4 13q-41 -80 -132 -80q-54 0 -98.5 29.5t-71 90.5t-26.5 150q0 90 26.5 151t70.5 90t99 29q95 0 134 -84q3 23 5 72h87zM330 88q32 41 32 139t-32 139.5t-80 41.5q-51 0 -80.5 -45t-29.5 -136q0 -90 29.5 -135t80.5 -45q48 0 80 41z" />
    <glyph glyph-name="Hcircumflex" unicode="&#x124;" horiz-adv-x="638" 
d="M280 914h77l103 -142h-89l-52 75l-53 -75h-89zM177 392h285v306h103v-732h-103v334h-285v-334h-103v732h103v-306z" />
    <glyph glyph-name="hcircumflex" unicode="&#x125;" horiz-adv-x="501" 
d="M67 925h83l115 -138h-96l-60 74l-61 -74h-97zM404.5 445.5q41.5 -51.5 41.5 -153.5v-326h-98v296q0 71 -20.5 106t-64.5 35q-45 0 -74 -35.5t-29 -108.5v-293h-98v761h98v-304q22 37 56 55.5t76 18.5q71 0 112.5 -51.5z" />
    <glyph glyph-name="Hbar" unicode="&#x126;" horiz-adv-x="664" 
d="M578 698v-112h62v-85h-62v-535h-105v334h-284v-334h-103v535h-63v85h63v112h103v-112h284v112h105zM189 501v-109h284v109h-284z" />
    <glyph glyph-name="hbar" unicode="&#x127;" horiz-adv-x="514" 
d="M417.5 445.5q41.5 -51.5 41.5 -153.5v-326h-98v296q0 71 -20.5 106t-64.5 35q-45 0 -74 -35.5t-29 -108.5v-293h-98v591h-67v79h67v91h98v-91h116v-79h-116v-134q44 74 132 74q71 0 112.5 -51.5z" />
    <glyph glyph-name="Itilde" unicode="&#x128;" horiz-adv-x="250" 
d="M-13 785q3 57 26 89t61 32q20 0 35.5 -9t33.5 -25q3 -2 11.5 -9.5t15.5 -7.5q22 0 26 49h67q-3 -57 -25 -89t-60 -32q-20 0 -35.5 8.5t-33.5 23.5q-8 6 -16 11t-13 5q-11 0 -17 -11.5t-9 -34.5h-67zM177 -34h-103v732h103v-732z" />
    <glyph glyph-name="itilde" unicode="&#x129;" horiz-adv-x="222" 
d="M-27 572q3 56 26 88t61 32q20 0 35 -8.5t33 -24.5q8 -7 15.5 -12t12.5 -5q22 0 26 49h67q-3 -57 -25.5 -89t-59.5 -32q-20 0 -36 8.5t-33 22.5q-8 6 -16 11t-13 5q-21 0 -26 -45h-67zM160 -34h-98v519h98v-519z" />
    <glyph glyph-name="Imacron" unicode="&#x12a;" horiz-adv-x="250" 
d="M3 810v81h245v-81h-245zM177 -34h-103v732h103v-732z" />
    <glyph glyph-name="imacron" unicode="&#x12b;" horiz-adv-x="222" 
d="M-11 594v80h245v-80h-245zM160 -34h-98v519h98v-519z" />
    <glyph glyph-name="Ibreve" unicode="&#x12c;" horiz-adv-x="250" 
d="M27 811.5q-36 39.5 -36 102.5h86q1 -34 12.5 -54.5t35.5 -20.5q47 0 50 75h86q0 -63 -36.5 -102.5t-99.5 -39.5q-62 0 -98 39.5zM177 -34h-103v732h103v-732z" />
    <glyph glyph-name="ibreve" unicode="&#x12d;" horiz-adv-x="222" 
d="M12.5 597q-35.5 42 -35.5 116h85q3 -85 49 -85q25 0 36.5 21.5t13.5 63.5h86q0 -74 -36 -116t-100 -42q-63 0 -98.5 42zM160 -34h-98v519h98v-519z" />
    <glyph glyph-name="Iogonek" unicode="&#x12e;" horiz-adv-x="250" 
d="M225 -201q-43 -43 -104 -43q-47 0 -79.5 22t-32.5 67q0 60 68 121h-3v732h103v-732q-86 -55 -86 -109q0 -21 11.5 -31.5t30.5 -10.5q27 0 55 26z" />
    <glyph glyph-name="iogonek" unicode="&#x12f;" horiz-adv-x="222" 
d="M65.5 589q-18.5 20 -18.5 47t18.5 46.5t45.5 19.5t46.5 -19.5t19.5 -46.5t-19.5 -47t-46.5 -20t-45.5 20zM208 -201q-43 -43 -103 -43q-47 0 -79.5 22t-32.5 67q0 61 69 123v517h98v-519q-86 -55 -86 -109q0 -21 11.5 -31.5t30.5 -10.5q29 0 55 26z" />
    <glyph glyph-name="Idotaccent" unicode="&#x130;" horiz-adv-x="250" 
d="M81.5 805q-18.5 19 -18.5 45t18.5 45t43.5 19q27 0 45 -18.5t18 -45.5q0 -26 -18.5 -45t-44.5 -19q-25 0 -43.5 19zM177 -34h-103v732h103v-732z" />
    <glyph glyph-name="dotlessi" unicode="&#x131;" horiz-adv-x="222" 
d="M160 -34h-98v519h98v-519z" />
    <glyph glyph-name="IJ" unicode="&#x132;" horiz-adv-x="676" 
d="M177 -34h-103v732h103v-732zM261 87l83 48q22 -86 82 -86q47 0 63.5 41t16.5 112v496h103v-505q0 -119 -46 -178.5t-135 -59.5q-133 0 -167 132z" />
    <glyph glyph-name="ij" unicode="&#x133;" horiz-adv-x="443" 
d="M68 592q-18 19 -18 45q0 25 18 44t42 19q25 0 43.5 -19t18.5 -44q0 -26 -18.5 -45t-43.5 -19q-24 0 -42 19zM291 592.5q-18 19.5 -18 44.5t17.5 44t41.5 19q25 0 43 -19t18 -44q0 -26 -18 -45t-43 -19q-23 0 -41 19.5zM160 -34h-98v519h98v-519zM178 -234.5
q-25 9.5 -38 25.5l40 77q20 -19 48 -19q32 0 44 25.5t12 83.5v527h99v-533q0 -100 -40.5 -148t-109.5 -48q-30 0 -55 9.5z" />
    <glyph glyph-name="Jcircumflex" unicode="&#x134;" horiz-adv-x="426" 
d="M268 914h76l103 -142h-88l-53 75l-53 -75h-88zM11 87l83 48q22 -86 82 -86q47 0 63.5 41t16.5 112v496h103v-505q0 -119 -46 -178.5t-135 -59.5q-133 0 -167 132z" />
    <glyph glyph-name="jcircumflex" unicode="&#x135;" horiz-adv-x="221" 
d="M71 713h77l103 -158h-89l-52 84l-53 -84h-89zM-44 -234.5q-25 9.5 -38 25.5l40 77q20 -19 48 -19q32 0 44 25.5t12 83.5v527h99v-533q0 -100 -40.5 -148t-109.5 -48q-30 0 -55 9.5z" />
    <glyph glyph-name="uni0136" unicode="&#x136;" horiz-adv-x="592" 
d="M588 -34h-129l-190 347l-92 -120v-227h-103v732h103v-276q0 -63 -2 -92q18 28 73 102l195 266h122l-223 -291zM361 -89q19 -17 19 -50q0 -44 -35 -71.5t-96 -33.5v38q31 6 47.5 16.5t20.5 28.5h-6q-26 0 -41.5 12.5t-15.5 32.5q0 19 16.5 31.5t41.5 12.5q30 0 49 -17z
" />
    <glyph glyph-name="uni0137" unicode="&#x137;" horiz-adv-x="473" 
d="M474 -34h-121l-123 219l-70 -90v-129h-98v761h98v-355q0 -104 -1 -149q45 66 88 125l99 137h110l-160 -210zM302 -89q19 -17 19 -50q0 -44 -35 -71.5t-96 -33.5v38q31 6 47.5 17t20.5 28h-6q-26 0 -41.5 12.5t-15.5 32.5q0 19 16.5 31.5t41.5 12.5q30 0 49 -17z" />
    <glyph glyph-name="kgreenlandic" unicode="&#x138;" horiz-adv-x="473" 
d="M474 -34h-121l-123 219l-70 -90v-129h-98v519h98v-117q0 -100 -1 -145q45 66 88 125l99 137h110l-160 -210z" />
    <glyph glyph-name="Lacute" unicode="&#x139;" horiz-adv-x="483" 
d="M91 773l56 141h104l-82 -141h-78zM74 698h103v-640h275v-92h-378v732z" />
    <glyph glyph-name="lacute" unicode="&#x13a;" horiz-adv-x="222" 
d="M77 802l56 141h104l-82 -141h-78zM160 -34h-98v761h98v-761z" />
    <glyph glyph-name="uni013B" unicode="&#x13b;" horiz-adv-x="483" 
d="M74 698h103v-640h275v-92h-378v732zM309 -89q19 -17 19 -50q0 -44 -35 -71.5t-96 -33.5v38q31 6 47.5 17t20.5 28h-6q-26 0 -41.5 12.5t-15.5 32.5q0 19 16.5 31.5t41.5 12.5q30 0 49 -17z" />
    <glyph glyph-name="uni013C" unicode="&#x13c;" horiz-adv-x="222" 
d="M160 -34h-98v761h98v-761zM156 -89q19 -17 19 -50q0 -44 -35 -71.5t-96 -33.5v38q31 6 47.5 17t20.5 28h-6q-26 0 -41.5 12.5t-15.5 32.5q0 19 16.5 31.5t41.5 12.5q30 0 49 -17z" />
    <glyph glyph-name="Lcaron" unicode="&#x13d;" horiz-adv-x="493" 
d="M369 523q-36 -38 -95 -47v51q30 9 47 23.5t21 37.5h-6q-26 0 -41.5 17.5t-15.5 43.5t16 43.5t41 17.5q30 0 49.5 -22.5t19.5 -67.5q0 -59 -36 -97zM177 698v-640h275v-92h-378v732h103z" />
    <glyph glyph-name="lcaron" unicode="&#x13e;" horiz-adv-x="292" 
d="M310.5 716q17.5 -20 17.5 -61q0 -54 -32.5 -88t-85.5 -43v46q28 8 43 21t19 35h-6q-23 0 -37 16t-14 39q0 24 14.5 39.5t37.5 15.5q26 0 43.5 -20zM160 -34h-98v761h98v-761z" />
    <glyph glyph-name="Ldot" unicode="&#x13f;" horiz-adv-x="493" 
d="M74 698h103v-640h275v-92h-378v732zM287.5 310q-18.5 20 -18.5 47t18.5 46.5t45.5 19.5q28 0 47 -19.5t19 -46.5t-19.5 -47t-46.5 -20t-45.5 20z" />
    <glyph glyph-name="ldot" unicode="&#x140;" horiz-adv-x="249" 
d="M160 -34h-98v761h98v-761zM199.5 308q-16.5 17 -16.5 42t16 41.5t40 16.5q25 0 41 -16.5t16 -41.5q0 -26 -16 -42.5t-41 -16.5q-23 0 -39.5 17z" />
    <glyph glyph-name="Lslash" unicode="&#x141;" horiz-adv-x="494" 
d="M324 374l-136 -72v-244h276v-92h-379v282l-76 -40v103l76 40v347h103v-293l136 72v-103z" />
    <glyph glyph-name="lslash" unicode="&#x142;" horiz-adv-x="242" 
d="M170 727v-295l67 42v-103l-67 -42v-363h-98v301l-66 -41v103l66 41v357h98z" />
    <glyph glyph-name="Nacute" unicode="&#x143;" horiz-adv-x="629" 
d="M279 773l56 141h104l-82 -141h-78zM158 698l302 -527v527h96v-732h-86l-301 525v-525h-95v732h84z" />
    <glyph glyph-name="nacute" unicode="&#x144;" horiz-adv-x="501" 
d="M212 556l56 157h104l-82 -157h-78zM404.5 445.5q41.5 -51.5 41.5 -153.5v-326h-98v296q0 71 -20.5 106t-64.5 35q-45 0 -74 -35.5t-29 -108.5v-293h-98v520h87q3 -60 4 -76q22 43 58 65t81 22q71 0 112.5 -51.5z" />
    <glyph glyph-name="uni0145" unicode="&#x145;" horiz-adv-x="629" 
d="M158 698l302 -527v527h96v-732h-86l-301 525v-525h-95v732h84zM358 -89q19 -17 19 -50q0 -44 -35 -71.5t-96 -33.5v38q31 6 47.5 17t20.5 28h-6q-26 0 -41.5 12.5t-15.5 32.5q0 19 16.5 31.5t41.5 12.5q30 0 49 -17z" />
    <glyph glyph-name="uni0146" unicode="&#x146;" horiz-adv-x="501" 
d="M404.5 445.5q41.5 -51.5 41.5 -153.5v-326h-98v296q0 71 -20.5 106t-64.5 35q-45 0 -74 -35.5t-29 -108.5v-293h-98v520h87q3 -60 4 -76q22 43 58 65t81 22q71 0 112.5 -51.5zM299 -88.5q19 -16.5 19 -50.5q0 -44 -35 -71.5t-96 -33.5v38q30 6 47 16.5t21 28.5h-7
q-26 0 -41 12.5t-15 32.5q0 19 16 31.5t41 12.5q31 0 50 -16.5z" />
    <glyph glyph-name="Ncaron" unicode="&#x147;" horiz-adv-x="629" 
d="M260 914l53 -75l52 75h89l-103 -142h-77l-103 142h89zM158 698l302 -527v527h96v-732h-86l-301 525v-525h-95v732h84z" />
    <glyph glyph-name="ncaron" unicode="&#x148;" horiz-adv-x="501" 
d="M204 713l53 -84l52 84h89l-103 -157h-76l-103 157h88zM404.5 445.5q41.5 -51.5 41.5 -153.5v-326h-98v296q0 71 -20.5 106t-64.5 35q-45 0 -74 -35.5t-29 -108.5v-293h-98v520h87q3 -60 4 -76q22 43 58 65t81 22q71 0 112.5 -51.5z" />
    <glyph glyph-name="napostrophe" unicode="&#x149;" horiz-adv-x="501" 
d="M79 562.5q-35 -35.5 -93 -44.5v48q31 9 47 22.5t20 36.5q-2 -1 -6 -1q-25 0 -40.5 16.5t-15.5 40.5q0 25 15.5 41.5t40.5 16.5q29 0 48 -21t19 -64q0 -56 -35 -91.5zM404.5 445.5q41.5 -51.5 41.5 -153.5v-326h-98v296q0 71 -20.5 106t-64.5 35q-45 0 -74 -35.5
t-29 -108.5v-293h-98v520h87q3 -60 4 -76q22 43 58 65t81 22q71 0 112.5 -51.5z" />
    <glyph glyph-name="Eng" unicode="&#x14a;" horiz-adv-x="629" 
d="M460 698h96v-749q0 -101 -41 -147t-111 -46q-59 0 -96 29l40 80q22 -14 48 -14q30 0 46 22.5t16 80.5v34l-289 503v-525h-95v732h84l302 -527v527z" />
    <glyph glyph-name="eng" unicode="&#x14b;" horiz-adv-x="568" 
d="M404.5 445.5q41.5 -51.5 41.5 -153.5v-343q0 -100 -42 -146.5t-111 -46.5q-57 0 -94 29l40 78q20 -14 46 -14q31 0 47 23.5t16 81.5v308q0 71 -20.5 106t-64.5 35q-45 0 -74 -35.5t-29 -108.5v-293h-98v520h87q3 -60 4 -76q22 43 58 65t81 22q71 0 112.5 -51.5z" />
    <glyph glyph-name="Omacron" unicode="&#x14c;" horiz-adv-x="640" 
d="M198 810v81h245v-81h-245zM121 615.5q72 94.5 199 94.5q128 0 199.5 -95t71.5 -282q0 -188 -71.5 -283t-199.5 -95t-199.5 94.5t-71.5 283.5q0 188 72 282.5zM199.5 120q41.5 -71 120.5 -71q161 0 161 284q0 142 -41 213t-120 71t-120.5 -71t-41.5 -213t41.5 -213z" />
    <glyph glyph-name="omacron" unicode="&#x14d;" horiz-adv-x="500" 
d="M129 593v81h245v-81h-245zM65.5 377q28.5 61 77 90.5t108.5 29.5t108 -29t76 -90t28 -152t-28 -152t-76 -90t-108 -29t-108.5 29t-77 90t-28.5 152q0 90 28.5 151zM171.5 88.5q30.5 -44.5 79.5 -44.5q48 0 78 45t30 137q0 93 -29.5 137t-78.5 44t-79.5 -44t-30.5 -137
t30.5 -137.5z" />
    <glyph glyph-name="Obreve" unicode="&#x14e;" horiz-adv-x="640" 
d="M222 811.5q-36 39.5 -36 102.5h85q2 -34 13.5 -54.5t35.5 -20.5q47 0 50 75h86q0 -63 -36.5 -102.5t-99.5 -39.5q-62 0 -98 39.5zM121 615.5q72 94.5 199 94.5q128 0 199.5 -95t71.5 -282q0 -188 -71.5 -283t-199.5 -95t-199.5 94.5t-71.5 283.5q0 188 72 282.5z
M199.5 120q41.5 -71 120.5 -71q161 0 161 284q0 142 -41 213t-120 71t-120.5 -71t-41.5 -213t41.5 -213z" />
    <glyph glyph-name="obreve" unicode="&#x14f;" horiz-adv-x="500" 
d="M152.5 596q-35.5 42 -35.5 116h85q3 -85 49 -85q25 0 36.5 21.5t13.5 63.5h86q0 -74 -36 -116t-100 -42q-63 0 -98.5 42zM65.5 377q28.5 61 77 90.5t108.5 29.5t108 -29t76 -90t28 -152t-28 -152t-76 -90t-108 -29t-108.5 29t-77 90t-28.5 152q0 90 28.5 151zM171.5 88.5
q30.5 -44.5 79.5 -44.5q48 0 78 45t30 137q0 93 -29.5 137t-78.5 44t-79.5 -44t-30.5 -137t30.5 -137.5z" />
    <glyph glyph-name="Ohungarumlaut" unicode="&#x150;" horiz-adv-x="640" 
d="M213 772l56 142h99l-82 -142h-73zM348 772l56 142h100l-83 -142h-73zM121 615.5q72 94.5 199 94.5q128 0 199.5 -95t71.5 -282q0 -188 -71.5 -283t-199.5 -95t-199.5 94.5t-71.5 283.5q0 188 72 282.5zM199.5 120q41.5 -71 120.5 -71q161 0 161 284q0 142 -41 213
t-120 71t-120.5 -71t-41.5 -213t41.5 -213z" />
    <glyph glyph-name="ohungarumlaut" unicode="&#x151;" horiz-adv-x="500" 
d="M144 555l56 158h99l-82 -158h-73zM279 555l56 158h100l-83 -158h-73zM65.5 377q28.5 61 77 90.5t108.5 29.5t108 -29t76 -90t28 -152t-28 -152t-76 -90t-108 -29t-108.5 29t-77 90t-28.5 152q0 90 28.5 151zM171.5 88.5q30.5 -44.5 79.5 -44.5q48 0 78 45t30 137
q0 93 -29.5 137t-78.5 44t-79.5 -44t-30.5 -137t30.5 -137.5z" />
    <glyph glyph-name="OE" unicode="&#x152;" horiz-adv-x="912" 
d="M585 298v-242h286v-90h-389v64q-57 -75 -166 -75q-124 0 -195.5 95t-71.5 283q0 187 71.5 282t195.5 95q109 0 166 -75v63h379v-90h-276v-221h247v-89h-247zM440 120q41 71 41 213t-41 213t-120 71q-78 0 -120 -71t-42 -213t41.5 -213t120.5 -71t120 71z" />
    <glyph glyph-name="oe" unicode="&#x153;" horiz-adv-x="791" 
d="M715 434q50 -63 50 -167q0 -34 -4 -63h-291q4 -84 35 -122.5t81 -38.5q64 0 90 66l74 -42q-18 -57 -63.5 -84.5t-103.5 -27.5q-55 0 -98.5 26.5t-69.5 79.5q-25 -53 -68.5 -79.5t-96.5 -26.5q-59 0 -107.5 29t-77 90t-28.5 152q0 90 28.5 151t77 90.5t107.5 29.5
q54 0 97 -26.5t68 -79.5q26 53 69 79.5t95 26.5q86 0 136 -63zM507.5 379q-27.5 -32 -34.5 -97h193q-1 63 -26 96t-65 33t-67.5 -32zM329 89q30 45 30 137t-30 136.5t-78 44.5q-49 0 -79.5 -44.5t-30.5 -136.5q0 -93 30.5 -137.5t79.5 -44.5q48 0 78 45z" />
    <glyph glyph-name="Racute" unicode="&#x154;" horiz-adv-x="549" 
d="M280 914h104l-83 -141h-78zM553 -34h-124l-159 292h-3h-91v-292h-102v732h197q67 0 118 -27.5t79.5 -78t28.5 -115.5q0 -70 -32 -121.5t-89 -76.5zM257 347q55 0 92.5 36t37.5 95q0 58 -37 94.5t-93 36.5h-81v-262h81z" />
    <glyph glyph-name="racute" unicode="&#x155;" horiz-adv-x="348" 
d="M156 555l56 158h104l-82 -158h-78zM315 488.5q21 -8.5 31 -22.5l-36 -79q-17 17 -46 17q-46 0 -75 -41.5t-29 -122.5v-274h-98v519h87q3 -57 4 -72q19 41 48.5 62.5t66.5 21.5q26 0 47 -8.5z" />
    <glyph glyph-name="uni0156" unicode="&#x156;" horiz-adv-x="549" 
d="M553 -34h-124l-159 292h-3h-91v-292h-102v732h197q67 0 118 -27.5t79.5 -78t28.5 -115.5q0 -70 -32 -121.5t-89 -76.5zM257 347q55 0 92.5 36t37.5 95q0 58 -37 94.5t-93 36.5h-81v-262h81zM348 -88.5q19 -16.5 19 -50.5q0 -44 -35 -71.5t-96 -33.5v38q30 6 47 16.5
t21 28.5h-7q-26 0 -41 12.5t-15 32.5q0 19 16 31.5t41 12.5q31 0 50 -16.5z" />
    <glyph glyph-name="uni0157" unicode="&#x157;" horiz-adv-x="348" 
d="M315 488.5q21 -8.5 31 -22.5l-36 -79q-17 17 -46 17q-46 0 -75 -41.5t-29 -122.5v-274h-98v519h87q3 -57 4 -72q19 41 48.5 62.5t66.5 21.5q26 0 47 -8.5zM156 -89q19 -17 19 -50q0 -44 -35 -71.5t-96 -33.5v38q31 6 47.5 17t20.5 28h-6q-26 0 -41.5 12.5t-15.5 32.5
q0 19 16.5 31.5t41.5 12.5q30 0 49 -17z" />
    <glyph glyph-name="Rcaron" unicode="&#x158;" horiz-adv-x="549" 
d="M398 914l-102 -142h-77l-103 142h89l53 -75l52 75h88zM553 -34h-124l-159 292h-3h-91v-292h-102v732h197q67 0 118 -27.5t79.5 -78t28.5 -115.5q0 -70 -32 -121.5t-89 -76.5zM257 347q55 0 92.5 36t37.5 95q0 58 -37 94.5t-93 36.5h-81v-262h81z" />
    <glyph glyph-name="rcaron" unicode="&#x159;" horiz-adv-x="348" 
d="M148 713l53 -85l53 85h88l-103 -158h-76l-103 158h88zM315 488.5q21 -8.5 31 -22.5l-36 -79q-17 17 -46 17q-46 0 -75 -41.5t-29 -122.5v-274h-98v519h87q3 -57 4 -72q19 41 48.5 62.5t66.5 21.5q26 0 47 -8.5z" />
    <glyph glyph-name="Sacute" unicode="&#x15a;" horiz-adv-x="493" 
d="M225 774l56 141h104l-82 -141h-78zM406 9q-60 -54 -155 -54q-88 0 -150 46.5t-81 126.5l86 49q19 -64 56.5 -96.5t90.5 -32.5q49 0 76.5 27t27.5 73q0 38 -18 64.5t-45.5 44t-74.5 40.5q-57 28 -92 52t-59.5 65t-24.5 101q0 64 28.5 108t75.5 65.5t104 21.5
q79 0 132.5 -40t70.5 -110l-87 -49q-11 50 -42.5 78.5t-77.5 28.5q-41 0 -68 -24.5t-27 -67.5q0 -35 17.5 -59.5t44 -41.5t71.5 -39q59 -29 94.5 -53.5t61 -67t25.5 -105.5q0 -97 -60 -151z" />
    <glyph glyph-name="sacute" unicode="&#x15b;" horiz-adv-x="391" 
d="M164 559l56 158h104l-83 -158h-77zM321.5 -4q-47.5 -41 -121.5 -41q-67 0 -115.5 34t-63.5 94l74 42q13 -43 40.5 -63t63.5 -20q34 0 50.5 17t16.5 43q0 32 -22.5 50t-71.5 39q-43 20 -68.5 35.5t-44 44.5t-18.5 73q0 71 48.5 112t120.5 41q59 0 100.5 -29.5t52.5 -83.5
l-73 -42q-10 34 -32 51t-51 17q-31 0 -47.5 -17t-16.5 -42q0 -29 21.5 -46t68.5 -37q43 -19 70 -36t46.5 -47.5t19.5 -76.5q0 -71 -47.5 -112z" />
    <glyph glyph-name="Scircumflex" unicode="&#x15c;" horiz-adv-x="493" 
d="M221 915h76l103 -141h-89l-52 75l-53 -75h-88zM406 9q-60 -54 -155 -54q-88 0 -150 46.5t-81 126.5l86 49q19 -64 56.5 -96.5t90.5 -32.5q49 0 76.5 27t27.5 73q0 38 -18 64.5t-45.5 44t-74.5 40.5q-57 28 -92 52t-59.5 65t-24.5 101q0 64 28.5 108t75.5 65.5t104 21.5
q79 0 132.5 -40t70.5 -110l-87 -49q-11 50 -42.5 78.5t-77.5 28.5q-41 0 -68 -24.5t-27 -67.5q0 -35 17.5 -59.5t44 -41.5t71.5 -39q59 -29 94.5 -53.5t61 -67t25.5 -105.5q0 -97 -60 -151z" />
    <glyph glyph-name="scircumflex" unicode="&#x15d;" horiz-adv-x="391" 
d="M169 717h76l103 -158h-88l-53 85l-53 -85h-88zM321.5 -4q-47.5 -41 -121.5 -41q-67 0 -115.5 34t-63.5 94l74 42q13 -43 40.5 -63t63.5 -20q34 0 50.5 17t16.5 43q0 32 -22.5 50t-71.5 39q-43 20 -68.5 35.5t-44 44.5t-18.5 73q0 71 48.5 112t120.5 41q59 0 100.5 -29.5
t52.5 -83.5l-73 -42q-10 34 -32 51t-51 17q-31 0 -47.5 -17t-16.5 -42q0 -29 21.5 -46t68.5 -37q43 -19 70 -36t46.5 -47.5t19.5 -76.5q0 -71 -47.5 -112z" />
    <glyph glyph-name="Scedilla" unicode="&#x15e;" horiz-adv-x="493" 
d="M412 14.5q-54 -53.5 -142 -58.5l-16 -42q39 -3 66.5 -21.5t27.5 -51.5q0 -42 -34 -63.5t-85 -21.5q-33 0 -71 9v54q33 -9 61 -9q22 0 35 6.5t13 20.5q0 28 -61 28q-9 0 -33 -2l-6 34l27 64q-67 14 -112.5 57.5t-61.5 109.5l86 49q19 -64 56.5 -96.5t90.5 -32.5
q49 0 76.5 27t27.5 73q0 38 -18 64.5t-45.5 44t-74.5 40.5q-57 28 -92 52t-59.5 65t-24.5 101q0 64 28.5 108t75.5 65.5t104 21.5q79 0 132.5 -40t70.5 -110l-87 -49q-11 50 -42.5 78.5t-77.5 28.5q-41 0 -68 -24.5t-27 -67.5q0 -35 17.5 -59.5t44 -41.5t71.5 -39
q59 -29 94.5 -53.5t61 -67t25.5 -105.5q0 -92 -54 -145.5z" />
    <glyph glyph-name="scedilla" unicode="&#x15f;" horiz-adv-x="391" 
d="M329 2q-40 -40 -106 -46l-17 -39q39 -4 66.5 -22.5t27.5 -52.5q0 -43 -34 -64.5t-85 -21.5q-34 0 -70 9v55q32 -9 60 -9q48 0 48 27q0 28 -64 28q-19 0 -29 -1l-7 34l26 62q-47 12 -79.5 43.5t-44.5 78.5l74 42q13 -43 40.5 -63t63.5 -20q34 0 50.5 17t16.5 43
q0 32 -22.5 50t-71.5 39q-43 20 -68.5 35.5t-44 44.5t-18.5 73q0 71 48.5 112t120.5 41q59 0 100.5 -29.5t52.5 -83.5l-73 -42q-10 34 -32 51t-51 17q-31 0 -47.5 -17t-16.5 -42q0 -29 21.5 -46t68.5 -37q43 -19 70 -36t46.5 -47.5t19.5 -76.5q0 -66 -40 -106z" />
    <glyph glyph-name="Scaron" unicode="&#x160;" horiz-adv-x="493" 
d="M206 915l53 -74l52 74h89l-103 -141h-77l-103 141h89zM406 9q-60 -54 -155 -54q-88 0 -150 46.5t-81 126.5l86 49q19 -64 56.5 -96.5t90.5 -32.5q49 0 76.5 27t27.5 73q0 38 -18 64.5t-45.5 44t-74.5 40.5q-57 28 -92 52t-59.5 65t-24.5 101q0 64 28.5 108t75.5 65.5
t104 21.5q79 0 132.5 -40t70.5 -110l-87 -49q-11 50 -42.5 78.5t-77.5 28.5q-41 0 -68 -24.5t-27 -67.5q0 -35 17.5 -59.5t44 -41.5t71.5 -39q59 -29 94.5 -53.5t61 -67t25.5 -105.5q0 -97 -60 -151z" />
    <glyph glyph-name="scaron" unicode="&#x161;" horiz-adv-x="391" 
d="M156 717l53 -85l52 85h89l-103 -158h-77l-103 158h89zM321.5 -4q-47.5 -41 -121.5 -41q-67 0 -115.5 34t-63.5 94l74 42q13 -43 40.5 -63t63.5 -20q34 0 50.5 17t16.5 43q0 32 -22.5 50t-71.5 39q-43 20 -68.5 35.5t-44 44.5t-18.5 73q0 71 48.5 112t120.5 41
q59 0 100.5 -29.5t52.5 -83.5l-73 -42q-10 34 -32 51t-51 17q-31 0 -47.5 -17t-16.5 -42q0 -29 21.5 -46t68.5 -37q43 -19 70 -36t46.5 -47.5t19.5 -76.5q0 -71 -47.5 -112z" />
    <glyph glyph-name="uni0162" unicode="&#x162;" horiz-adv-x="501" 
d="M302 607v-641h-11l-23 -51q37 -3 65 -21.5t28 -51.5q0 -43 -34 -64.5t-85 -21.5q-34 0 -71 9v54q40 -9 61 -9q22 0 35 6.5t13 20.5q0 29 -61 29q-9 0 -33 -2l-6 35l31 67h-12v641h-182v91h467v-91h-182z" />
    <glyph glyph-name="uni0163" unicode="&#x163;" horiz-adv-x="341" 
d="M231 -86q37 -3 65 -21.5t28 -51.5q0 -42 -33.5 -63.5t-85.5 -21.5q-34 0 -70 9v54q33 -9 61 -9q22 0 35 6.5t13 20.5q0 28 -61 28q-9 0 -33 -2l-7 34l28 68q-87 33 -87 171v265h-74v85h74v148h99v-148h127v-85h-127v-248q0 -58 15.5 -82t46.5 -24t55 22l37 -77
q-34 -33 -89 -36z" />
    <glyph glyph-name="Tcaron" unicode="&#x164;" horiz-adv-x="501" 
d="M197 915l53 -75l52 75h89l-103 -142h-76l-103 142h88zM17 698h467v-91h-182v-641h-103v641h-182v91z" />
    <glyph glyph-name="tcaron" unicode="&#x165;" horiz-adv-x="341" 
d="M331 601.5q-36 -38.5 -95 -47.5v51q30 9 47 23t21 38h-5q-27 0 -42.5 18t-15.5 43q0 27 16 44.5t42 17.5q29 0 48.5 -22.5t19.5 -67.5q0 -59 -36 -97.5zM300 69l37 -77q-40 -37 -106 -37q-63 0 -105 40t-42 141v265h-74v85h74v148h99v-148h127v-85h-127v-248
q0 -58 15.5 -82t46.5 -24t55 22z" />
    <glyph glyph-name="Tbar" unicode="&#x166;" horiz-adv-x="501" 
d="M17 698h467v-91h-182v-226h122v-91h-122v-324h-103v324h-121v91h121v226h-182v91z" />
    <glyph glyph-name="tbar" unicode="&#x167;" horiz-adv-x="341" 
d="M337 -8q-40 -37 -106 -37q-63 0 -105 40t-42 141v64h-74v82h74v121h-74v83h74v148h99v-148h127v-83h-127v-121h127v-82h-127v-47q0 -58 15 -82.5t47 -24.5q33 0 55 21z" />
    <glyph glyph-name="Utilde" unicode="&#x168;" horiz-adv-x="625" 
d="M175 786q3 57 25.5 89t60.5 32q20 0 35.5 -9t33.5 -25q8 -7 15.5 -12t12.5 -5q22 0 26 49h67q-3 -57 -25.5 -89t-60.5 -32q-20 0 -35.5 8.5t-33.5 23.5q-20 16 -28 16q-21 0 -26 -46h-67zM455 698h103v-449q0 -294 -245 -294q-246 0 -246 294v449h103v-431
q0 -115 37 -166.5t107 -51.5q68 0 104.5 51.5t36.5 166.5v431z" />
    <glyph glyph-name="utilde" unicode="&#x169;" horiz-adv-x="501" 
d="M109 572q3 57 26 89t61 32q20 0 35 -9t33 -25q8 -7 15.5 -12t12.5 -5q22 0 26 49h67q-3 -57 -25.5 -89t-59.5 -32q-20 0 -35.5 8.5t-33.5 23.5q-8 6 -16 11t-13 5q-21 0 -26 -46h-67zM341 486h98v-520h-86l-3 39q0 14 -2 36q-22 -43 -58 -64.5t-81 -21.5q-71 0 -112.5 51
t-41.5 153v327h98v-296q0 -71 20.5 -106t64.5 -35q45 0 74 35.5t29 108.5v293z" />
    <glyph glyph-name="Umacron" unicode="&#x16a;" horiz-adv-x="625" 
d="M190 811v80h245v-80h-245zM455 698h103v-449q0 -294 -245 -294q-246 0 -246 294v449h103v-431q0 -115 37 -166.5t107 -51.5q68 0 104.5 51.5t36.5 166.5v431z" />
    <glyph glyph-name="umacron" unicode="&#x16b;" horiz-adv-x="501" 
d="M125 594v81h245v-81h-245zM341 486h98v-520h-86l-3 39q0 14 -2 36q-22 -43 -58 -64.5t-81 -21.5q-71 0 -112.5 51t-41.5 153v327h98v-296q0 -71 20.5 -106t64.5 -35q45 0 74 35.5t29 108.5v293z" />
    <glyph glyph-name="Ubreve" unicode="&#x16c;" horiz-adv-x="625" 
d="M214.5 812.5q-36.5 39.5 -36.5 102.5h86q3 -75 49 -75q47 0 50 75h85q0 -63 -36 -102.5t-99 -39.5q-62 0 -98.5 39.5zM455 698h103v-449q0 -294 -245 -294q-246 0 -246 294v449h103v-431q0 -115 37 -166.5t107 -51.5q68 0 104.5 51.5t36.5 166.5v431z" />
    <glyph glyph-name="ubreve" unicode="&#x16d;" horiz-adv-x="501" 
d="M148.5 597q-35.5 42 -35.5 116h85q3 -85 49 -85q25 0 36.5 21.5t13.5 63.5h86q0 -74 -36 -116t-100 -42q-63 0 -98.5 42zM341 486h98v-520h-86l-3 39q0 14 -2 36q-22 -43 -58 -64.5t-81 -21.5q-71 0 -112.5 51t-41.5 153v327h98v-296q0 -71 20.5 -106t64.5 -35
q45 0 74 35.5t29 108.5v293z" />
    <glyph glyph-name="Uring" unicode="&#x16e;" horiz-adv-x="625" 
d="M233 947q32 31 80 31q47 0 78 -31t31 -79t-31 -79t-78 -31q-48 0 -80 31t-32 79t32 79zM277 830.5q14 -14.5 36 -14.5q21 0 34 14.5t13 37.5t-12.5 37.5t-34.5 14.5t-36 -14.5t-14 -37.5t14 -37.5zM455 698h103v-449q0 -294 -245 -294q-246 0 -246 294v449h103v-431
q0 -115 37 -166.5t107 -51.5q68 0 104.5 51.5t36.5 166.5v431z" />
    <glyph glyph-name="uring" unicode="&#x16f;" horiz-adv-x="501" 
d="M167 734q32 31 80 31q47 0 78 -31t31 -79t-30.5 -79t-78.5 -31t-80 31t-32 79t32 79zM211.5 617.5q13.5 -14.5 35.5 -14.5t35 14.5t13 37.5t-13 37.5t-35 14.5t-35.5 -14.5t-13.5 -37.5t13.5 -37.5zM341 486h98v-520h-86l-3 39q0 14 -2 36q-22 -43 -58 -64.5t-81 -21.5
q-71 0 -112.5 51t-41.5 153v327h98v-296q0 -71 20.5 -106t64.5 -35q45 0 74 35.5t29 108.5v293z" />
    <glyph glyph-name="Uhungarumlaut" unicode="&#x170;" horiz-adv-x="625" 
d="M205 773l57 142h99l-82 -142h-74zM341 773l56 142h99l-82 -142h-73zM455 698h103v-449q0 -294 -245 -294q-246 0 -246 294v449h103v-431q0 -115 37 -166.5t107 -51.5q68 0 104.5 51.5t36.5 166.5v431z" />
    <glyph glyph-name="uhungarumlaut" unicode="&#x171;" horiz-adv-x="501" 
d="M140 556l56 158h99l-82 -158h-73zM275 556l56 158h100l-83 -158h-73zM341 486h98v-520h-86l-3 39q0 14 -2 36q-22 -43 -58 -64.5t-81 -21.5q-71 0 -112.5 51t-41.5 153v327h98v-296q0 -71 20.5 -106t64.5 -35q45 0 74 35.5t29 108.5v293z" />
    <glyph glyph-name="Uogonek" unicode="&#x172;" horiz-adv-x="625" 
d="M400.5 -77.5q-21.5 -34.5 -21.5 -67.5q0 -20 11.5 -30.5t29.5 -10.5q27 0 56 26l37 -41q-22 -22 -47.5 -32.5t-57.5 -10.5q-44 0 -77 22.5t-33 67.5q0 55 47 110q-11 -1 -32 -1q-246 0 -246 294v449h103v-431q0 -115 37 -166.5t107 -51.5q68 0 104.5 51.5t36.5 166.5v431
h103v-449q0 -174 -86 -246q-50 -46 -71.5 -80.5z" />
    <glyph glyph-name="uogonek" unicode="&#x173;" horiz-adv-x="501" 
d="M487 -200q-23 -23 -48 -33.5t-56 -10.5q-47 0 -79.5 22t-32.5 68q0 65 81 133q0 18 -4 62q-22 -43 -58 -64.5t-81 -21.5q-71 0 -112.5 51t-41.5 153v327h98v-296q0 -71 20.5 -106t64.5 -35q45 0 74 35.5t29 108.5v293h98v-519q-44 -28 -65.5 -55t-21.5 -55
q0 -21 12 -31.5t30 -10.5q27 0 55 26z" />
    <glyph glyph-name="Wcircumflex" unicode="&#x174;" horiz-adv-x="859" 
d="M392 914h77l102 -142h-88l-52 75l-53 -75h-89zM478 698l137 -563l129 563h100l-188 -733h-87l-139 527l-132 -527h-86l-197 733h108l136 -560l131 560h88z" />
    <glyph glyph-name="wcircumflex" unicode="&#x175;" horiz-adv-x="681" 
d="M309 714h77l103 -158h-89l-52 84l-53 -84h-89zM384 485l99 -358l94 358h95l-155 -519h-70l-104 335l-101 -335h-71l-161 519h102l99 -360l93 360h80z" />
    <glyph glyph-name="Ycircumflex" unicode="&#x176;" horiz-adv-x="551" 
d="M242 914h77l102 -142h-88l-52 75l-53 -75h-89zM284 380l143 318h111l-206 -430v-302h-103v303l-216 429h121z" />
    <glyph glyph-name="ycircumflex" unicode="&#x177;" horiz-adv-x="465" 
d="M196 714h76l103 -158h-89l-52 84l-53 -84h-88zM241 104l112 381h102l-185 -569q-27 -84 -63.5 -122t-97.5 -38q-59 0 -95 33l38 77q22 -19 55 -19q29 0 47 18t33 68l6 21l-186 531h112z" />
    <glyph glyph-name="Ydieresis" unicode="&#x178;" horiz-adv-x="551" 
d="M147 805q-18 19 -18 45t18 45t44 19t44.5 -19t18.5 -45t-18.5 -45t-44.5 -19t-44 19zM325.5 805q-18.5 19 -18.5 45t18.5 45t43.5 19q26 0 44.5 -19t18.5 -45t-18.5 -45t-44.5 -19q-25 0 -43.5 19zM284 380l143 318h111l-206 -430v-302h-103v303l-216 429h121z" />
    <glyph glyph-name="Zacute" unicode="&#x179;" horiz-adv-x="495" 
d="M220 773l57 141h104l-83 -141h-78zM458 698v-56l-305 -584h317v-92h-445v57l306 584h-281v91h408z" />
    <glyph glyph-name="zacute" unicode="&#x17a;" horiz-adv-x="380" 
d="M150 556l56 158h104l-82 -158h-78zM356 485v-55l-222 -382h233v-82h-348v56l222 382h-203v81h318z" />
    <glyph glyph-name="Zdotaccent" unicode="&#x17b;" horiz-adv-x="495" 
d="M211 805q-18 19 -18 45t18 45t44 19t44.5 -19t18.5 -45t-19 -45t-44 -19q-26 0 -44 19zM458 698v-56l-305 -584h317v-92h-445v57l306 584h-281v91h408z" />
    <glyph glyph-name="zdotaccent" unicode="&#x17c;" horiz-adv-x="380" 
d="M150 589q-19 20 -19 47t19 47t45 20q27 0 46.5 -20t19.5 -47t-19.5 -47t-46.5 -20q-26 0 -45 20zM356 485v-55l-222 -382h233v-82h-348v56l222 382h-203v81h318z" />
    <glyph glyph-name="Zcaron" unicode="&#x17d;" horiz-adv-x="495" 
d="M202 914l53 -75l52 75h88l-102 -142h-77l-103 142h89zM458 698v-56l-305 -584h317v-92h-445v57l306 584h-281v91h408z" />
    <glyph glyph-name="zcaron" unicode="&#x17e;" horiz-adv-x="380" 
d="M142 714l53 -85l52 85h89l-103 -158h-76l-103 158h88zM356 485v-55l-222 -382h233v-82h-348v56l222 382h-203v81h318z" />
    <glyph glyph-name="longs" unicode="&#x17f;" horiz-adv-x="305" 
d="M311 726.5q26 -12.5 39 -29.5l-46 -73q-21 23 -51 23q-32 0 -48.5 -27t-16.5 -92v-562h-99v436h-72v83h72v46q0 106 45.5 157t115.5 51q35 0 61 -12.5z" />
    <glyph glyph-name="uni018F" unicode="&#x18f;" horiz-adv-x="592" 
d="M479 612.5q64 -97.5 64 -282.5q0 -181 -67.5 -278t-190.5 -97q-117 0 -177 86.5t-60 239.5q0 24 4 80h381q-4 128 -43.5 191.5t-107.5 63.5q-47 0 -81.5 -28.5t-54.5 -86.5l-87 49q66 160 229 160q127 0 191 -97.5zM389.5 103q35.5 55 42.5 165h-276q1 -109 32 -164.5
t99 -55.5q67 0 102.5 55z" />
    <glyph glyph-name="florin" unicode="&#x192;" 
d="M346.5 593.5q-17.5 -27.5 -28.5 -101.5l-1 -7h127v-83h-139l-32 -230q-15 -112 -56 -164.5t-113 -52.5q-37 0 -67 10.5t-47 28.5l47 73q24 -23 57 -23q32 0 50 32.5t30 117.5l29 208h-97v83h108l3 23q28 202 173 202q38 0 66 -11.5t43 -29.5l-48 -70q-24 22 -54 22
q-33 0 -50.5 -27.5z" />
    <glyph glyph-name="Ohorn" unicode="&#x1a0;" horiz-adv-x="639" 
d="M591 333q0 -187 -72 -282.5t-199 -95.5t-199 94.5t-72 283.5q0 188 73.5 282.5t206.5 94.5q33 0 79 -6q32 -5 51 -5q29 0 41.5 14.5t12.5 53.5q0 27 -6 58h86q6 -34 6 -65q0 -72 -25.5 -101t-76.5 -33q94 -91 94 -293zM481 333q0 142 -41 213t-120 71t-120.5 -71
t-41.5 -213t41.5 -213t120.5 -71q161 0 161 284z" />
    <glyph glyph-name="ohorn" unicode="&#x1a1;" horiz-adv-x="505" 
d="M470 448.5q-23 -27.5 -67 -32.5q57 -67 57 -190q0 -91 -28.5 -152t-76 -90t-106.5 -29q-60 0 -108 29t-76 90t-28 152q0 90 29.5 151t80 90.5t112.5 29.5q33 0 71 -8q26 -4 34 -4q20 0 31 13.5t11 52.5q0 26 -5 61h87q5 -38 5 -67q0 -69 -23 -96.5zM328.5 93.5
q28.5 46.5 28.5 132.5t-28 132t-80 46q-49 0 -79 -47t-30 -131q0 -85 30 -132t79 -47q51 0 79.5 46.5z" />
    <glyph glyph-name="Uhorn" unicode="&#x1af;" horiz-adv-x="625" 
d="M642.5 661q-27.5 -29 -84.5 -35v-377q0 -294 -245 -294q-246 0 -246 294v449h103v-431q0 -115 37 -166.5t107 -51.5q68 0 104.5 51.5t36.5 166.5v431h53q38 0 55.5 13.5t17.5 54.5q0 33 -6 59h89q6 -36 6 -65q0 -70 -27.5 -99z" />
    <glyph glyph-name="uhorn" unicode="&#x1b0;" horiz-adv-x="518" 
d="M522.5 447.5q-27.5 -29.5 -83.5 -34.5v-447h-86l-3 39q0 14 -2 36q-22 -43 -58 -64.5t-81 -21.5q-71 0 -112.5 51t-41.5 153v327h98v-296q0 -71 20.5 -106t64.5 -35q45 0 74 35.5t29 108.5v293h63q30 2 43.5 16.5t13.5 50.5q0 33 -6 58h89q6 -34 6 -65q0 -69 -27.5 -98.5
z" />
    <glyph glyph-name="uni01CD" unicode="&#x1cd;" horiz-adv-x="608" 
d="M248 914l53 -75l52 75h89l-103 -142h-77l-103 142h89zM345 699l248 -733h-113l-61 196h-241l-58 -196h-105l241 733h89zM391 253l-95 302l-91 -302h186z" />
    <glyph glyph-name="uni01CE" unicode="&#x1ce;" horiz-adv-x="472" 
d="M379 713l-103 -157h-77l-103 157h89l53 -84l52 84h89zM368.5 446.5q48.5 -50.5 48.5 -150.5v-330h-84l-3 37q0 11 -2 31q-41 -79 -131 -79q-64 0 -110 39t-46 119q0 82 52 126.5t132 44.5q47 0 95 -15v11q0 68 -22.5 99t-65.5 31q-66 0 -95 -68l-73 42q20 53 65.5 83
t108.5 30q82 0 130.5 -50.5zM320 192q-43 15 -79 15q-46 0 -72.5 -23.5t-26.5 -67.5q0 -40 21 -59.5t53 -19.5q43 0 73.5 32t30.5 89v34z" />
    <glyph glyph-name="uni01CF" unicode="&#x1cf;" horiz-adv-x="250" 
d="M72 914l53 -75l52 75h89l-103 -142h-76l-103 142h88zM177 -34h-103v732h103v-732z" />
    <glyph glyph-name="uni01D0" unicode="&#x1d0;" horiz-adv-x="222" 
d="M58 713l53 -84l52 84h89l-103 -157h-77l-103 157h89zM160 -34h-98v519h98v-519z" />
    <glyph glyph-name="uni01D1" unicode="&#x1d1;" horiz-adv-x="640" 
d="M267 914l53 -75l52 75h89l-103 -142h-77l-103 142h89zM121 615.5q72 94.5 199 94.5q128 0 199.5 -95t71.5 -282q0 -188 -71.5 -283t-199.5 -95t-199.5 94.5t-71.5 283.5q0 188 72 282.5zM199.5 120q41.5 -71 120.5 -71q161 0 161 284q0 142 -41 213t-120 71t-120.5 -71
t-41.5 -213t41.5 -213z" />
    <glyph glyph-name="uni01D2" unicode="&#x1d2;" horiz-adv-x="500" 
d="M198 713l53 -85l52 85h89l-103 -158h-77l-103 158h89zM65.5 377q28.5 61 77 90.5t108.5 29.5t108 -29t76 -90t28 -152t-28 -152t-76 -90t-108 -29t-108.5 29t-77 90t-28.5 152q0 90 28.5 151zM171.5 88.5q30.5 -44.5 79.5 -44.5q48 0 78 45t30 137q0 93 -29.5 137
t-78.5 44t-79.5 -44t-30.5 -137t30.5 -137.5z" />
    <glyph glyph-name="uni01D3" unicode="&#x1d3;" horiz-adv-x="625" 
d="M260 915l53 -75l52 75h88l-102 -142h-77l-103 142h89zM455 698h103v-449q0 -294 -245 -294q-246 0 -246 294v449h103v-431q0 -115 37 -166.5t107 -51.5q68 0 104.5 51.5t36.5 166.5v431z" />
    <glyph glyph-name="uni01D4" unicode="&#x1d4;" horiz-adv-x="501" 
d="M194 714l53 -85l52 85h89l-103 -158h-77l-103 158h89zM341 486h98v-520h-86l-3 39q0 14 -2 36q-22 -43 -58 -64.5t-81 -21.5q-71 0 -112.5 51t-41.5 153v327h98v-296q0 -71 20.5 -106t64.5 -35q45 0 74 35.5t29 108.5v293z" />
    <glyph glyph-name="uni01D5" unicode="&#x1d5;" horiz-adv-x="625" 
d="M190 884v56h245v-56h-245zM179 764.5q-18 14.5 -18 35.5q0 20 18.5 34.5t43.5 14.5q26 0 44.5 -14.5t18.5 -34.5q0 -21 -18.5 -35.5t-44.5 -14.5t-44 14.5zM357 764.5q-18 14.5 -18 35.5q0 20 18.5 34.5t43.5 14.5q27 0 45 -14.5t18 -34.5q0 -21 -18 -35.5t-45 -14.5
q-26 0 -44 14.5zM455 698h103v-449q0 -294 -245 -294q-246 0 -246 294v449h103v-431q0 -115 37 -166.5t107 -51.5q68 0 104.5 51.5t36.5 166.5v431z" />
    <glyph glyph-name="uni01D6" unicode="&#x1d6;" horiz-adv-x="501" 
d="M125 763v81h245v-81h-245zM110.5 590q-18.5 19 -18.5 45t18.5 45t43.5 19q26 0 44.5 -19t18.5 -45t-18.5 -45t-44.5 -19q-25 0 -43.5 19zM296 590q-18 19 -18 45t18 45t44 19t44.5 -19t18.5 -45t-18.5 -45t-44.5 -19t-44 19zM341 486h98v-520h-86l-3 39q0 14 -2 36
q-22 -43 -58 -64.5t-81 -21.5q-71 0 -112.5 51t-41.5 153v327h98v-296q0 -71 20.5 -106t64.5 -35q45 0 74 35.5t29 108.5v293z" />
    <glyph glyph-name="uni01D7" unicode="&#x1d7;" horiz-adv-x="625" 
d="M275 868l75 82h107l-98 -82h-84zM179 764.5q-18 14.5 -18 35.5q0 20 18.5 34.5t43.5 14.5q26 0 44.5 -14.5t18.5 -34.5q0 -21 -18.5 -35.5t-44.5 -14.5t-44 14.5zM357 764.5q-18 14.5 -18 35.5q0 20 18.5 34.5t43.5 14.5q27 0 45 -14.5t18 -34.5q0 -21 -18 -35.5
t-45 -14.5q-26 0 -44 14.5zM455 698h103v-449q0 -294 -245 -294q-246 0 -246 294v449h103v-431q0 -115 37 -166.5t107 -51.5q68 0 104.5 51.5t36.5 166.5v431z" />
    <glyph glyph-name="uni01D8" unicode="&#x1d8;" horiz-adv-x="501" 
d="M201 734l57 139h104l-83 -139h-78zM110.5 590q-18.5 19 -18.5 45t18.5 45t43.5 19q26 0 44.5 -19t18.5 -45t-18.5 -45t-44.5 -19q-25 0 -43.5 19zM296 590q-18 19 -18 45t18 45t44 19t44.5 -19t18.5 -45t-18.5 -45t-44.5 -19t-44 19zM341 486h98v-520h-86l-3 39
q0 14 -2 36q-22 -43 -58 -64.5t-81 -21.5q-71 0 -112.5 51t-41.5 153v327h98v-296q0 -71 20.5 -106t64.5 -35q45 0 74 35.5t29 108.5v293z" />
    <glyph glyph-name="uni01D9" unicode="&#x1d9;" horiz-adv-x="625" 
d="M272 951l40 -34l40 34h101l-103 -83h-76l-103 83h101zM179 764.5q-18 14.5 -18 35.5q0 20 18.5 34.5t43.5 14.5q26 0 44.5 -14.5t18.5 -34.5q0 -21 -18.5 -35.5t-44.5 -14.5t-44 14.5zM357 764.5q-18 14.5 -18 35.5q0 20 18.5 34.5t43.5 14.5q27 0 45 -14.5t18 -34.5
q0 -21 -18 -35.5t-45 -14.5q-26 0 -44 14.5zM455 698h103v-449q0 -294 -245 -294q-246 0 -246 294v449h103v-431q0 -115 37 -166.5t107 -51.5q68 0 104.5 51.5t36.5 166.5v431z" />
    <glyph glyph-name="uni01DA" unicode="&#x1da;" horiz-adv-x="501" 
d="M186 873l61 -74l60 74h97l-116 -139h-83l-116 139h97zM110.5 590q-18.5 19 -18.5 45t18.5 45t43.5 19q26 0 44.5 -19t18.5 -45t-18.5 -45t-44.5 -19q-25 0 -43.5 19zM296 590q-18 19 -18 45t18 45t44 19t44.5 -19t18.5 -45t-18.5 -45t-44.5 -19t-44 19zM341 486h98v-520
h-86l-3 39q0 14 -2 36q-22 -43 -58 -64.5t-81 -21.5q-71 0 -112.5 51t-41.5 153v327h98v-296q0 -71 20.5 -106t64.5 -35q45 0 74 35.5t29 108.5v293z" />
    <glyph glyph-name="uni01DB" unicode="&#x1db;" horiz-adv-x="625" 
d="M168 950h107l75 -82h-84zM179.5 764.5q-18.5 14.5 -18.5 35.5q0 20 18.5 34.5t44.5 14.5t44 -14.5t18 -34.5q0 -21 -18 -35.5t-44 -14.5t-44.5 14.5zM357.5 764.5q-18.5 14.5 -18.5 35.5q0 20 18.5 34.5t45.5 14.5q25 0 43 -14.5t18 -34.5q0 -21 -17.5 -35.5t-43.5 -14.5
q-27 0 -45.5 14.5zM455 698h103v-449q0 -294 -245 -294q-246 0 -246 294v449h103v-431q0 -115 37 -166.5t107 -51.5q68 0 104.5 51.5t36.5 166.5v431z" />
    <glyph glyph-name="uni01DC" unicode="&#x1dc;" horiz-adv-x="501" 
d="M133 873h104l56 -139h-78zM110.5 590q-18.5 19 -18.5 45t18.5 45t43.5 19q26 0 44.5 -19t18.5 -45t-18.5 -45t-44.5 -19q-25 0 -43.5 19zM296 590q-18 19 -18 45t18 45t44 19t44.5 -19t18.5 -45t-18.5 -45t-44.5 -19t-44 19zM341 486h98v-520h-86l-3 39q0 14 -2 36
q-22 -43 -58 -64.5t-81 -21.5q-71 0 -112.5 51t-41.5 153v327h98v-296q0 -71 20.5 -106t64.5 -35q45 0 74 35.5t29 108.5v293z" />
    <glyph glyph-name="uni01E5" unicode="&#x1e5;" horiz-adv-x="531" 
d="M525 271v-86h-66v-169q0 -144 -63 -202t-153 -58q-72 0 -124 33t-70 96l76 45q16 -44 45.5 -63.5t72.5 -19.5q61 0 89.5 39.5t28.5 137.5l4 13q-41 -80 -132 -80q-54 0 -98.5 29.5t-71 90.5t-26.5 150q0 90 26.5 151t70.5 90t99 29q95 0 134 -84q3 23 5 72h87v-214h66z
M322.5 79q30.5 32 37.5 106h-94v86h94q-8 74 -38 105.5t-72 31.5q-51 0 -80.5 -45t-29.5 -136q0 -90 29.5 -135t80.5 -45q42 0 72.5 32z" />
    <glyph glyph-name="gcaron" unicode="&#x1e7;" horiz-adv-x="518" 
d="M195 713l53 -84l52 84h89l-103 -157h-77l-103 157h89zM459 485v-469q0 -144 -63 -202t-153 -58q-72 0 -124 33t-70 96l76 45q16 -44 45.5 -63.5t72.5 -19.5q61 0 89.5 39.5t28.5 137.5l4 13q-41 -80 -132 -80q-54 0 -98.5 29.5t-71 90.5t-26.5 150q0 90 26.5 151t70.5 90
t99 29q95 0 134 -84q3 23 5 72h87zM330 88q32 41 32 139t-32 139.5t-80 41.5q-51 0 -80.5 -45t-29.5 -136q0 -90 29.5 -135t80.5 -45q48 0 80 41z" />
    <glyph glyph-name="uni01E9" unicode="&#x1e9;" horiz-adv-x="473" 
d="M50 925l61 -74l60 74h97l-116 -138h-83l-116 138h97zM474 -34h-121l-123 219l-70 -90v-129h-98v761h98v-355q0 -104 -1 -149q45 66 88 125l99 137h110l-160 -210z" />
    <glyph glyph-name="uni01EF" unicode="&#x1ef;" horiz-adv-x="422" 
d="M145 714l53 -85l52 85h89l-103 -158h-77l-103 158h89zM214 212q91 -9 138.5 -68.5t47.5 -155.5q0 -75 -29 -127.5t-78 -78.5t-110 -26q-72 0 -125.5 37.5t-73.5 118.5l80 43q27 -114 118 -114q53 0 83.5 38t30.5 106q0 69 -35.5 108.5t-106.5 39.5q-20 0 -52 -5v73
l155 205h-238v80h361v-65z" />
    <glyph glyph-name="uni01F0" unicode="&#x1f0;" horiz-adv-x="221" 
d="M58 713l53 -85l53 85h88l-103 -158h-76l-103 158h88zM-44 -234.5q-25 9.5 -38 25.5l40 77q20 -19 48 -19q32 0 44 25.5t12 83.5v527h99v-533q0 -100 -40.5 -148t-109.5 -48q-30 0 -55 9.5z" />
    <glyph glyph-name="uni01F9" unicode="&#x1f9;" horiz-adv-x="501" 
d="M143 713h104l56 -157h-78zM404.5 445.5q41.5 -51.5 41.5 -153.5v-326h-98v296q0 71 -20.5 106t-64.5 35q-45 0 -74 -35.5t-29 -108.5v-293h-98v520h87q3 -60 4 -76q22 43 58 65t81 22q71 0 112.5 -51.5z" />
    <glyph glyph-name="Aringacute" unicode="&#x1fa;" horiz-adv-x="608" 
d="M256 875l56 74h104l-82 -74h-78zM229 833q29 16 72 16t70.5 -16t27.5 -41q0 -26 -27.5 -42.5t-70.5 -16.5t-72 16.5t-29 42.5q0 25 29 41zM268.5 776q12.5 -6 32.5 -6q19 0 31 6t12 16q0 9 -12 14.5t-31 5.5q-20 0 -32.5 -5.5t-12.5 -14.5q0 -10 12.5 -16zM345 699
l248 -733h-113l-61 196h-241l-58 -196h-105l241 733h89zM391 253l-95 302l-91 -302h186z" />
    <glyph glyph-name="aringacute" unicode="&#x1fb;" horiz-adv-x="472" 
d="M249 908h104l-82 -125h-78zM166 568q-29 28 -29 72q0 42 29 70t72 28t70.5 -27.5t27.5 -70.5q0 -44 -27.5 -72t-70.5 -28t-72 28zM205.5 673q-12.5 -13 -12.5 -33q0 -21 12.5 -34.5t32.5 -13.5q19 0 31 13.5t12 34.5q0 20 -12 33t-31 13q-20 0 -32.5 -13zM368.5 446.5
q48.5 -50.5 48.5 -150.5v-330h-84l-3 37q0 11 -2 31q-41 -79 -131 -79q-64 0 -110 39t-46 119q0 82 52 126.5t132 44.5q47 0 95 -15v11q0 68 -22.5 99t-65.5 31q-66 0 -95 -68l-73 42q20 53 65.5 83t108.5 30q82 0 130.5 -50.5zM320 192q-43 15 -79 15q-46 0 -72.5 -23.5
t-26.5 -67.5q0 -40 21 -59.5t53 -19.5q43 0 73.5 32t30.5 89v34z" />
    <glyph glyph-name="AEacute" unicode="&#x1fc;" horiz-adv-x="829" 
d="M472 773l56 141h104l-82 -141h-78zM749 298h-247v-242h286v-90h-388v204h-182l-98 -204h-105l357 732h407v-90h-277v-221h247v-89zM400 260v286l-138 -286h138z" />
    <glyph glyph-name="aeacute" unicode="&#x1fd;" horiz-adv-x="740" 
d="M391 715h103l-82 -157h-78zM664 434q50 -63 50 -169q0 -33 -4 -61h-291q4 -84 35 -122.5t81 -38.5q64 0 89 66l74 -42q-18 -57 -63.5 -84.5t-103.5 -27.5q-113 0 -163 102q-45 -102 -161 -102q-71 0 -118.5 38.5t-47.5 119.5q0 82 51.5 126.5t132.5 44.5q46 0 96 -15v4
q0 137 -90 137q-70 0 -97 -76l-73 42q20 57 65.5 89t107.5 32q102 0 144 -85q25 43 63.5 64t86.5 21q86 0 136 -63zM615 282q-1 63 -26 96t-66 33q-39 0 -66.5 -32t-35.5 -97h194zM321 192q-45 15 -81 15q-46 0 -72 -23.5t-26 -68.5q0 -40 20 -59.5t53 -19.5q44 0 75 31.5
t31 89.5v35z" />
    <glyph glyph-name="Oslashacute" unicode="&#x1fe;" horiz-adv-x="640" 
d="M286 774l56 141h104l-82 -141h-78zM490 733h90l-63 -115q74 -99 74 -285q0 -187 -72 -282.5t-199 -95.5q-84 0 -142 42l-36 -65h-91l68 124q-70 99 -70 277q0 188 72 282.5t199 94.5q81 0 137 -37zM179 165l230 420q-35 32 -89 32q-79 0 -121.5 -71t-42.5 -213
q0 -102 23 -168zM457 508l-231 -423q38 -36 94 -36q80 0 121.5 71t41.5 213q0 111 -26 175z" />
    <glyph glyph-name="oslashacute" unicode="&#x1ff;" horiz-adv-x="499" 
d="M203 555l57 158h103l-82 -158h-78zM377 520h85l-55 -96q55 -71 55 -198q0 -91 -28 -152t-76 -90t-108 -29q-56 0 -100 25l-28 -48h-85l56 97q-56 70 -56 197q0 90 28.5 151t76.5 90.5t108 29.5q56 0 99 -25zM150 127l153 265q-23 17 -53 17q-50 0 -82 -45t-32 -138
q0 -59 14 -99zM349 324l-153 -264q23 -17 54 -17q50 0 81.5 45t31.5 138q0 58 -14 98z" />
    <glyph glyph-name="uni0218" unicode="&#x218;" horiz-adv-x="493" 
d="M406 9q-60 -54 -155 -54q-88 0 -150 46.5t-81 126.5l86 49q19 -64 56.5 -96.5t90.5 -32.5q49 0 76.5 27t27.5 73q0 38 -18 64.5t-45.5 44t-74.5 40.5q-57 28 -92 52t-59.5 65t-24.5 101q0 64 28.5 108t75.5 65.5t104 21.5q79 0 132.5 -40t70.5 -110l-87 -49
q-11 50 -42.5 78.5t-77.5 28.5q-41 0 -68 -24.5t-27 -67.5q0 -35 17.5 -59.5t44 -41.5t71.5 -39q59 -29 94.5 -53.5t61 -67t25.5 -105.5q0 -97 -60 -151zM290 -90q19 -17 19 -51q0 -43 -35 -70t-96 -33v38q61 13 68 44h-6q-26 0 -41.5 12.5t-15.5 31.5q0 20 16.5 32.5
t41.5 12.5q30 0 49 -17z" />
    <glyph glyph-name="uni0219" unicode="&#x219;" horiz-adv-x="391" 
d="M321.5 -4q-47.5 -41 -121.5 -41q-67 0 -115.5 34t-63.5 94l74 42q13 -43 40.5 -63t63.5 -20q34 0 50.5 17t16.5 43q0 32 -22.5 50t-71.5 39q-43 20 -68.5 35.5t-44 44.5t-18.5 73q0 71 48.5 112t120.5 41q59 0 100.5 -29.5t52.5 -83.5l-73 -42q-10 34 -32 51t-51 17
q-31 0 -47.5 -17t-16.5 -42q0 -29 21.5 -46t68.5 -37q43 -19 70 -36t46.5 -47.5t19.5 -76.5q0 -71 -47.5 -112zM242.5 -85.5q19.5 -17.5 19.5 -52.5q0 -44 -35.5 -72t-95.5 -34v39q60 12 68 46h-7q-26 0 -41 12.5t-15 32.5t16 33t41 13q30 0 49.5 -17.5z" />
    <glyph glyph-name="uni021A" unicode="&#x21a;" horiz-adv-x="501" 
d="M17 698h467v-91h-182v-641h-103v641h-182v91zM295 -89q19 -17 19 -50q0 -44 -35 -71.5t-96 -33.5v38q31 6 47.5 17t20.5 28h-6q-26 0 -41.5 12.5t-15.5 32.5q0 19 16.5 31.5t41.5 12.5q30 0 49 -17z" />
    <glyph glyph-name="uni021B" unicode="&#x21b;" horiz-adv-x="341" 
d="M337 -8q-40 -37 -106 -37q-63 0 -105 40t-42 141v265h-74v85h74v148h99v-148h127v-85h-127v-248q0 -58 15.5 -82t46.5 -24t55 22zM267 -89q19 -17 19 -50q0 -44 -35 -71.5t-96 -33.5v38q31 6 47.5 17t20.5 28h-6q-26 0 -41.5 12.5t-15.5 32.5q0 19 16.5 31.5t41.5 12.5
q30 0 49 -17z" />
    <glyph glyph-name="uni021F" unicode="&#x21f;" horiz-adv-x="501" 
d="M48 925l61 -74l60 74h96l-115 -138h-83l-116 138h97zM404.5 445.5q41.5 -51.5 41.5 -153.5v-326h-98v296q0 71 -20.5 106t-64.5 35q-45 0 -74 -35.5t-29 -108.5v-293h-98v761h98v-304q22 37 56 55.5t76 18.5q71 0 112.5 -51.5z" />
    <glyph glyph-name="uni0237" unicode="&#x237;" horiz-adv-x="221" 
d="M-44 -234.5q-25 9.5 -38 25.5l40 77q20 -19 48 -19q32 0 44 25.5t12 83.5v527h99v-533q0 -100 -40.5 -148t-109.5 -48q-30 0 -55 9.5z" />
    <glyph glyph-name="uni0251" unicode="&#x251;" horiz-adv-x="522" 
d="M460 485v-519h-87l-2 24q0 26 -4 50q-39 -85 -134 -85q-55 0 -99 29.5t-70.5 90.5t-26.5 151t26.5 151t70.5 90.5t99 29.5q95 0 135 -86q3 26 3 45l2 29h87zM330 86q32 41 32 140q0 98 -32 139.5t-80 41.5q-51 0 -80.5 -45t-29.5 -136t29.5 -136t80.5 -45q48 0 80 41z
" />
    <glyph glyph-name="uni0259" unicode="&#x259;" horiz-adv-x="459" 
d="M366.5 428.5q56.5 -68.5 56.5 -204.5q0 -89 -28 -149.5t-75.5 -90t-105.5 -29.5q-88 0 -138 63t-50 168q0 33 4 61h291q-3 84 -31.5 123t-76.5 39q-31 0 -55 -16t-42 -53l-74 45q23 56 70 84t106 28q92 0 148.5 -68.5zM284.5 72.5q27.5 31.5 34.5 96.5h-194q1 -62 26 -95
t66 -33q40 0 67.5 31.5z" />
    <glyph glyph-name="uni0261" unicode="&#x261;" horiz-adv-x="518" 
d="M459 485v-469q0 -144 -63 -202t-153 -58q-72 0 -124 33t-70 96l76 45q16 -44 45.5 -63.5t72.5 -19.5q61 0 89.5 39.5t28.5 137.5l4 13q-41 -80 -132 -80q-54 0 -98.5 29.5t-71 90.5t-26.5 150q0 90 26.5 151t70.5 90t99 29q95 0 134 -84q3 23 5 72h87zM330 88
q32 41 32 139t-32 139.5t-80 41.5q-51 0 -80.5 -45t-29.5 -136q0 -90 29.5 -135t80.5 -45q48 0 80 41z" />
    <glyph glyph-name="uni0292" unicode="&#x292;" horiz-adv-x="422" 
d="M214 212q91 -9 138.5 -68.5t47.5 -155.5q0 -75 -29 -127.5t-78 -78.5t-110 -26q-72 0 -125.5 37.5t-73.5 118.5l80 43q27 -114 118 -114q53 0 83.5 38t30.5 106q0 69 -35.5 108.5t-106.5 39.5q-20 0 -52 -5v73l155 205h-238v80h361v-65z" />
    <glyph glyph-name="uni02BB" unicode="&#x2bb;" horiz-adv-x="233" 
d="M60 518.5q-21 25.5 -21 76.5q0 73 41 123t106 62v-56q-75 -21 -81 -98h8q28 0 45.5 -19t17.5 -47t-17.5 -47.5t-45.5 -19.5q-32 0 -53 25.5z" />
    <glyph glyph-name="circumflex" unicode="&#x2c6;" horiz-adv-x="388" 
d="M156 713h77l102 -157h-88l-52 84l-53 -84h-89z" />
    <glyph glyph-name="caron" unicode="&#x2c7;" horiz-adv-x="388" 
d="M142 713l53 -84l52 84h88l-102 -157h-77l-103 157h89z" />
    <glyph glyph-name="breve" unicode="&#x2d8;" horiz-adv-x="420" 
d="M111.5 597q-35.5 42 -35.5 116h85q2 -42 13 -63.5t36 -21.5t36.5 21.5t13.5 63.5h85q0 -74 -35.5 -116t-99.5 -42q-63 0 -98.5 42z" />
    <glyph glyph-name="dotaccent" unicode="&#x2d9;" horiz-adv-x="239" 
d="M73 589q-19 20 -19 47t19 46.5t46 19.5t46 -19.5t19 -46.5t-19 -47t-46 -20t-46 20z" />
    <glyph glyph-name="ring" unicode="&#x2da;" horiz-adv-x="313" 
d="M78 734q32 31 80 31q47 0 78 -31t31 -79q0 -49 -31 -80t-78 -31q-48 0 -80 31.5t-32 79.5t32 79zM122.5 617q13.5 -15 35.5 -15q21 0 34 15t13 38t-12.5 37.5t-34.5 14.5t-35.5 -14.5t-13.5 -37.5t13.5 -38z" />
    <glyph glyph-name="ogonek" unicode="&#x2db;" horiz-adv-x="300" 
d="M249 -199q-42 -45 -103 -45q-47 0 -79.5 22.5t-32.5 68.5q0 43 30.5 82.5t77.5 69.5l59 -28q-86 -57 -86 -112q0 -21 12 -32t30 -11q15 0 28 6.5t27 20.5z" />
    <glyph glyph-name="tilde" unicode="&#x2dc;" horiz-adv-x="386" 
d="M55 572q3 56 26 88t60 32q20 0 36 -9t33 -24q8 -7 15.5 -12t12.5 -5q11 0 17.5 14t8.5 35h67q-3 -57 -25.5 -89t-60.5 -32q-20 0 -36 8.5t-33 22.5q-20 16 -28 16q-21 0 -26 -45h-67z" />
    <glyph glyph-name="hungarumlaut" unicode="&#x2dd;" horiz-adv-x="400" 
d="M55 556l56 157h99l-82 -157h-73zM190 556l56 157h100l-83 -157h-73z" />
    <glyph glyph-name="dotbelowcomb" unicode="&#x323;" horiz-adv-x="0" 
d="M-164 -207.5q-19 18.5 -19 43.5q0 26 19 44t46 18t46 -18t19 -44q0 -25 -19.5 -43.5t-45.5 -18.5q-27 0 -46 18.5z" />
    <glyph glyph-name="uni0326" unicode="&#x326;" horiz-adv-x="0" 
d="M-65 -88.5q19 -16.5 19 -50.5q0 -44 -35.5 -71.5t-95.5 -33.5v38q30 6 47 16.5t21 28.5h-7q-26 0 -41 12.5t-15 32.5q0 19 16 31.5t41 12.5q31 0 50 -16.5z" />
    <glyph glyph-name="uni0338" unicode="&#x338;" horiz-adv-x="0" 
d="M-427 -231l318 929h100l-317 -929h-101z" />
    <glyph glyph-name="tonos" unicode="&#x384;" horiz-adv-x="323" 
d="M68 556l48 157h101l-70 -157h-79z" />
    <glyph glyph-name="dieresistonos" unicode="&#x385;" 
d="M189 556l32 157h87l-53 -157h-66zM72.5 590.5q-17.5 18.5 -17.5 44.5t17.5 44t42.5 18t43 -18t18 -44t-18 -44.5t-43 -18.5t-42.5 18.5zM329 590.5q-18 18.5 -18 44.5t18 44t43 18t42.5 -18t17.5 -44t-17.5 -44.5t-42.5 -18.5t-43 18.5z" />
    <glyph glyph-name="Alphatonos" unicode="&#x386;" horiz-adv-x="608" 
d="M345 699l248 -733h-113l-61 196h-241l-58 -196h-105l241 733h89zM58 540l26 158h96l-48 -158h-74zM391 253l-95 302l-91 -302h186z" />
    <glyph glyph-name="Epsilontonos" unicode="&#x388;" horiz-adv-x="603" 
d="M9 540l25 158h97l-49 -158h-73zM523 298h-247v-242h285v-90h-388v732h379v-90h-276v-221h247v-89z" />
    <glyph glyph-name="Etatonos" unicode="&#x389;" horiz-adv-x="737" 
d="M9 540l25 158h97l-49 -158h-73zM276 392h285v306h103v-732h-103v334h-285v-334h-103v732h103v-306z" />
    <glyph glyph-name="Iotatonos" unicode="&#x38a;" horiz-adv-x="349" 
d="M9 540l25 158h97l-49 -158h-73zM276 -34h-103v732h103v-732z" />
    <glyph glyph-name="Omicrontonos" unicode="&#x38c;" horiz-adv-x="703" 
d="M183.5 615.5q71.5 94.5 199.5 94.5q127 0 198.5 -95.5t71.5 -281.5q0 -188 -71 -283t-199 -95t-199.5 94.5t-71.5 283.5q0 188 71.5 282.5zM10 540l25 158h97l-49 -158h-73zM262.5 120q41.5 -71 120.5 -71q160 0 160 284q0 142 -40.5 213t-119.5 71t-120.5 -71
t-41.5 -213t41.5 -213z" />
    <glyph glyph-name="Upsilontonos" unicode="&#x38e;" horiz-adv-x="652" 
d="M-13 540l25 158h97l-49 -158h-73zM385 380l142 318h112l-206 -430v-302h-103v303l-216 429h121z" />
    <glyph glyph-name="Omegatonos" unicode="&#x38f;" horiz-adv-x="710" 
d="M679 55v-89h-249v102q129 83 129 294q0 121 -46.5 188t-128.5 67q-81 0 -127.5 -67t-46.5 -188q0 -210 129 -294v-102h-249v89h138q-126 109 -126 311q0 107 35.5 184.5t99 118.5t147.5 41t148 -41t99 -118.5t35 -184.5q0 -203 -125 -311h138zM6 540l26 158h96l-48 -158
h-74z" />
    <glyph glyph-name="iotadieresistonos" unicode="&#x390;" horiz-adv-x="243" 
d="M65 556l32 157h87l-53 -157h-66zM-51.5 590.5q-17.5 18.5 -17.5 44.5t17.5 44t42.5 18t43 -18t18 -44t-18 -44.5t-43 -18.5t-42.5 18.5zM205 590.5q-18 18.5 -18 44.5t18 44t43 18t42.5 -18t17.5 -44t-17.5 -44.5t-42.5 -18.5t-43 18.5zM246 -28q-32 -17 -76 -17
q-114 0 -114 144v386h97v-370q0 -35 10.5 -52.5t33.5 -17.5q21 0 37 9z" />
    <glyph glyph-name="Alpha" unicode="&#x391;" horiz-adv-x="608" 
d="M345 699l248 -733h-113l-61 196h-241l-58 -196h-105l241 733h89zM391 253l-95 302l-91 -302h186z" />
    <glyph glyph-name="Beta" unicode="&#x392;" horiz-adv-x="562" 
d="M523 173q0 -97 -58 -152t-163 -55h-228v732h202q94 0 152 -53.5t58 -144.5q0 -103 -78 -150q115 -42 115 -177zM176 608v-225h85q55 0 86 30.5t31 83.5q0 51 -31 81t-86 30h-85zM289 55q61 0 93 32t32 89t-32.5 90t-92.5 33h-113v-244h113z" />
    <glyph glyph-name="Gamma" unicode="&#x393;" horiz-adv-x="460" 
d="M74 698h379v-90h-277v-642h-102v732z" />
    <glyph glyph-name="uni0394" unicode="&#x394;" horiz-adv-x="585" 
d="M253 698h89l224 -672v-60h-547v60zM133 58h320l-159 490z" />
    <glyph glyph-name="Epsilon" unicode="&#x395;" horiz-adv-x="503" 
d="M424 298h-247v-242h285v-90h-388v732h379v-90h-276v-221h247v-89z" />
    <glyph glyph-name="Zeta" unicode="&#x396;" horiz-adv-x="495" 
d="M458 698v-56l-305 -584h317v-92h-445v57l306 584h-281v91h408z" />
    <glyph glyph-name="Eta" unicode="&#x397;" horiz-adv-x="638" 
d="M177 392h285v306h103v-732h-103v334h-285v-334h-103v732h103v-306z" />
    <glyph glyph-name="Theta" unicode="&#x398;" horiz-adv-x="679" 
d="M85.5 541.5q36.5 84.5 102 126.5t152.5 42t152 -42t101 -126.5t36 -208.5t-36 -209t-101 -127t-152 -42t-152.5 42t-102 127t-36.5 209t36.5 208.5zM204.5 119q48.5 -71 135.5 -71q86 0 134 71t48 214t-48 213.5t-134 70.5t-135 -70.5t-49 -213.5t48.5 -214zM444 292
h-209v91h209v-91z" />
    <glyph glyph-name="Iota" unicode="&#x399;" horiz-adv-x="250" 
d="M177 -34h-103v732h103v-732z" />
    <glyph glyph-name="Kappa" unicode="&#x39a;" horiz-adv-x="592" 
d="M588 -34h-129l-190 347l-92 -120v-227h-103v732h103v-276q0 -63 -2 -92q18 28 73 102l195 266h122l-223 -291z" />
    <glyph glyph-name="Lambda" unicode="&#x39b;" horiz-adv-x="597" 
d="M467 -34l-177 577l-167 -577h-108l233 732h93l241 -732h-115z" />
    <glyph glyph-name="Mu" unicode="&#x39c;" horiz-adv-x="726" 
d="M574 698h79v-732h-99v503l-163 -307h-56l-163 311v-507h-98v732h84l208 -410z" />
    <glyph glyph-name="Nu" unicode="&#x39d;" horiz-adv-x="629" 
d="M158 698l302 -527v527h96v-732h-86l-301 525v-525h-95v732h84z" />
    <glyph glyph-name="Xi" unicode="&#x39e;" horiz-adv-x="517" 
d="M480 606h-443v93h443v-93zM444 297h-371v94h371v-94zM480 -34h-443v93h443v-93z" />
    <glyph glyph-name="Omicron" unicode="&#x39f;" horiz-adv-x="640" 
d="M121 615.5q72 94.5 199 94.5q128 0 199.5 -95t71.5 -282q0 -188 -71.5 -283t-199.5 -95t-199.5 94.5t-71.5 283.5q0 188 72 282.5zM199.5 120q41.5 -71 120.5 -71q161 0 161 284q0 142 -41 213t-120 71t-120.5 -71t-41.5 -213t41.5 -213z" />
    <glyph glyph-name="Pi" unicode="&#x3a0;" horiz-adv-x="649" 
d="M74 698h502v-732h-102v641h-298v-641h-102v732z" />
    <glyph glyph-name="Rho" unicode="&#x3a1;" horiz-adv-x="525" 
d="M272 698q67 0 118 -29t79 -81t28 -120t-27.5 -119.5t-78.5 -80.5t-119 -29h-95v-273h-103v732h198zM259 328q54 0 91 39.5t37 100.5q0 62 -35.5 101.5t-92.5 39.5h-82v-281h82z" />
    <glyph glyph-name="Sigma" unicode="&#x3a3;" horiz-adv-x="485" 
d="M151 606l188 -269l-199 -278h327v-93h-447v81l206 289l-197 282v81h423v-93h-301z" />
    <glyph glyph-name="Tau" unicode="&#x3a4;" horiz-adv-x="501" 
d="M17 698h467v-91h-182v-641h-103v641h-182v91z" />
    <glyph glyph-name="Upsilon" unicode="&#x3a5;" horiz-adv-x="551" 
d="M284 380l143 318h111l-206 -430v-302h-103v303l-216 429h121z" />
    <glyph glyph-name="Phi" unicode="&#x3a6;" horiz-adv-x="697" 
d="M632 189.5q-36 -61.5 -97 -97.5t-136 -46v-80h-100v80q-76 9 -137 44.5t-97 97.5t-36 145q0 82 36 143.5t97.5 97.5t136.5 45v79h100v-79q75 -10 136 -46t97 -97t36 -143t-36 -143.5zM178.5 199.5q44.5 -48.5 120.5 -59.5v386q-75 -11 -120 -59.5t-45 -133.5t44.5 -133.5
zM399 140q74 12 118.5 60.5t44.5 132.5q0 85 -44.5 133.5t-118.5 59.5v-386z" />
    <glyph glyph-name="Chi" unicode="&#x3a7;" horiz-adv-x="587" 
d="M563 698l-213 -358l221 -374h-128l-154 276l-156 -276h-118l223 368l-214 364h126l147 -266l146 266h120z" />
    <glyph glyph-name="Psi" unicode="&#x3a8;" horiz-adv-x="691" 
d="M545 698h102v-247q0 -145 -67 -213t-185 -79v-193h-101v193q-117 11 -183.5 79t-66.5 213v247h101v-230q0 -111 39 -158.5t110 -56.5v445h101v-445q71 8 110.5 55.5t39.5 159.5v230z" />
    <glyph glyph-name="uni03A9" unicode="&#x3a9;" horiz-adv-x="651" 
d="M620 55v-89h-249v102q129 83 129 294q0 121 -46.5 188t-128.5 67q-81 0 -127.5 -67t-46.5 -188q0 -210 129 -294v-102h-249v89h138q-126 109 -126 311q0 107 35.5 184.5t99 118.5t147.5 41t148 -41t99 -118.5t35 -184.5q0 -203 -125 -311h138z" />
    <glyph glyph-name="Iotadieresis" unicode="&#x3aa;" horiz-adv-x="250" 
d="M-8 805q-18 19 -18 45t18 45t43 19q27 0 45.5 -19t18.5 -45t-18.5 -45t-45.5 -19q-25 0 -43 19zM170 805q-18 19 -18 45t18 45t44 19t44.5 -19t18.5 -45t-18.5 -45t-44.5 -19t-44 19zM177 -34h-103v732h103v-732z" />
    <glyph glyph-name="Upsilondieresis" unicode="&#x3ab;" horiz-adv-x="551" 
d="M147 805q-18 19 -18 45t18 45t44 19t44.5 -19t18.5 -45t-18.5 -45t-44.5 -19t-44 19zM325.5 805q-18.5 19 -18.5 45t18.5 45t43.5 19q26 0 44.5 -19t18.5 -45t-18.5 -45t-44.5 -19q-25 0 -43.5 19zM284 380l143 318h111l-206 -430v-302h-103v303l-216 429h121z" />
    <glyph glyph-name="alphatonos" unicode="&#x3ac;" horiz-adv-x="530" 
d="M253 713h102l-71 -157h-79zM529 -31q-24 -14 -62 -14q-83 0 -100 83q-40 -83 -134 -83q-55 0 -99 29.5t-70.5 90.5t-26.5 151t26.5 151t70.5 90.5t99 29.5q96 0 136 -87l1 23l3 52h86v-379q0 -34 9 -48t27 -14q14 0 24 5zM330 86q32 41 32 140q0 98 -32 139.5t-80 41.5
q-51 0 -80.5 -45t-29.5 -136t29.5 -136t80.5 -45q48 0 80 41z" />
    <glyph glyph-name="epsilontonos" unicode="&#x3ad;" horiz-adv-x="398" 
d="M177 556l48 157h102l-71 -157h-79zM404 77q-19 -60 -66.5 -91t-117.5 -31q-85 0 -135.5 39t-50.5 114q0 51 28 85t78 46q-44 15 -67.5 47.5t-23.5 71.5q0 65 48.5 102t124.5 37q64 0 107.5 -27.5t59.5 -78.5l-76 -45q-11 32 -35 48t-54 16q-32 0 -52.5 -17.5t-20.5 -46.5
q0 -31 21.5 -49.5t67.5 -18.5h42v-83h-42q-54 0 -79.5 -21t-25.5 -58t23 -56t60 -19q80 0 111 80z" />
    <glyph glyph-name="etatonos" unicode="&#x3ae;" horiz-adv-x="517" 
d="M276 713h102l-70 -157h-79zM420.5 445.5q41.5 -51.5 41.5 -153.5v-523h-98v493q0 71 -20.5 106t-64.5 35q-45 0 -74 -35.5t-29 -108.5v-293h-97v381q0 34 -9 48t-27 14q-14 0 -24 -5l-10 79q24 14 62 14q43 0 67.5 -21t32.5 -63q43 84 137 84q71 0 112.5 -51.5z" />
    <glyph glyph-name="iotatonos" unicode="&#x3af;" horiz-adv-x="243" 
d="M61 556l47 157h102l-70 -157h-79zM246 -28q-32 -17 -76 -17q-114 0 -114 144v386h97v-370q0 -35 10.5 -52.5t33.5 -17.5q21 0 37 9z" />
    <glyph glyph-name="upsilondieresistonos" unicode="&#x3b0;" horiz-adv-x="481" 
d="M200 556l32 157h87l-54 -157h-65zM82.5 590.5q-17.5 18.5 -17.5 44.5t17.5 44t42.5 18t43 -18t18 -44t-18 -44.5t-43 -18.5t-42.5 18.5zM339.5 590.5q-17.5 18.5 -17.5 44.5t17.5 44t42.5 18t43 -18t18 -44t-18 -44.5t-43 -18.5t-42.5 18.5zM54 485h97v-283
q0 -74 19 -115.5t69 -41.5q52 0 79 49t27 158q0 113 -38 233h101q36 -113 36 -233q0 -146 -55.5 -221.5t-155.5 -75.5q-87 0 -133 58t-46 174v298z" />
    <glyph glyph-name="alpha" unicode="&#x3b1;" horiz-adv-x="530" 
d="M529 -31q-24 -14 -62 -14q-83 0 -100 83q-40 -83 -134 -83q-55 0 -99 29.5t-70.5 90.5t-26.5 151t26.5 151t70.5 90.5t99 29.5q96 0 136 -87l1 23l3 52h86v-379q0 -34 9 -48t27 -14q14 0 24 5zM330 86q32 41 32 140q0 98 -32 139.5t-80 41.5q-51 0 -80.5 -45t-29.5 -136
t29.5 -136t80.5 -45q48 0 80 41z" />
    <glyph glyph-name="beta" unicode="&#x3b2;" horiz-adv-x="517" 
d="M456 300.5q33 -49.5 33 -125.5q0 -67 -26 -116.5t-72 -76.5t-105 -27q-84 0 -129 51v-237h-97v707q0 131 55.5 196t147.5 65q54 0 96.5 -24t66.5 -68.5t24 -105.5q0 -56 -22.5 -99.5t-64.5 -68.5q60 -21 93 -70.5zM356.5 78q30.5 34 30.5 99q0 73 -38 109.5t-104 36.5
h-22v81h17q56 0 82.5 36t26.5 95q0 55 -23.5 83t-66.5 28q-52 0 -77 -42t-25 -133v-278q0 -76 32.5 -112.5t85.5 -36.5q51 0 81.5 34z" />
    <glyph glyph-name="gamma" unicode="&#x3b3;" horiz-adv-x="457" 
d="M380.5 182q-35.5 -105 -117.5 -226v-187h-97v166l-160 550h110l110 -433q50 96 71.5 177t21.5 157q0 40 -9 99h98q8 -63 8 -98q0 -100 -35.5 -205z" />
    <glyph glyph-name="delta" unicode="&#x3b4;" horiz-adv-x="497" 
d="M373 470q48 -52 68 -110.5t20 -127.5q0 -91 -27.5 -153t-75.5 -93t-109 -31q-62 0 -110.5 31t-76 92.5t-27.5 150.5q0 122 51.5 190.5t136.5 77.5l-149 159v71h326v-83h-188zM326.5 91.5q29.5 47.5 29.5 137.5q0 91 -29.5 138.5t-77.5 47.5q-49 0 -79 -47t-30 -139
q0 -90 30 -137.5t79 -47.5q48 0 77.5 47.5z" />
    <glyph glyph-name="epsilon" unicode="&#x3b5;" horiz-adv-x="398" 
d="M404 77q-19 -60 -66.5 -91t-117.5 -31q-85 0 -135.5 39t-50.5 114q0 51 28 85t78 46q-44 15 -67.5 47.5t-23.5 71.5q0 65 48.5 102t124.5 37q64 0 107.5 -27.5t59.5 -78.5l-76 -45q-11 32 -35 48t-54 16q-32 0 -52.5 -17.5t-20.5 -46.5q0 -31 21.5 -49.5t67.5 -18.5h42
v-83h-42q-54 0 -79.5 -21t-25.5 -58t23 -56t60 -19q80 0 111 80z" />
    <glyph glyph-name="zeta" unicode="&#x3b6;" horiz-adv-x="423" 
d="M387.5 -9.5q35.5 -32.5 35.5 -87.5q0 -45 -23 -77t-67 -58l-49 54q21 16 30 31.5t9 32.5q0 28 -22 45.5t-71 31.5q-57 17 -98.5 41.5t-70 75t-28.5 131.5q0 113 60 224.5t177 207.5h-216v84h351v-69q-150 -118 -210.5 -225t-60.5 -208q0 -59 18 -93.5t48 -52t78 -33.5
q74 -23 109.5 -55.5z" />
    <glyph glyph-name="eta" unicode="&#x3b7;" horiz-adv-x="517" 
d="M419.5 445.5q41.5 -51.5 41.5 -153.5v-523h-98v493q0 71 -20.5 106t-64.5 35q-45 0 -73.5 -35.5t-28.5 -108.5v-293h-98v381q0 34 -8.5 48t-27.5 14q-14 0 -23 -5l-11 79q24 14 63 14q42 0 66.5 -21t32.5 -63q22 42 57 63t80 21q71 0 112.5 -51.5z" />
    <glyph glyph-name="theta" unicode="&#x3b8;" horiz-adv-x="509" 
d="M473 347q0 -208 -56 -300t-162 -92q-107 0 -162.5 92.5t-55.5 299.5q0 391 218 391t218 -391zM171 588q-28 -62 -32 -193h231q-4 133 -31.5 194t-83.5 61t-84 -62zM340.5 107.5q27.5 64.5 30.5 205.5h-233q3 -138 31.5 -204t85.5 -66q58 0 85.5 64.5z" />
    <glyph glyph-name="iota" unicode="&#x3b9;" horiz-adv-x="243" 
d="M246 -28q-32 -17 -76 -17q-114 0 -114 144v386h97v-370q0 -35 10.5 -52.5t33.5 -17.5q21 0 37 9z" />
    <glyph glyph-name="kappa" unicode="&#x3ba;" horiz-adv-x="462" 
d="M461 -34h-116l-127 233l-60 -84v-149h-96v519h96v-238l114 167q28 41 55.5 62t62.5 21q41 0 63 -24l-31 -71q-12 8 -27 8q-16 0 -28.5 -10.5t-29.5 -33.5l-58 -80z" />
    <glyph glyph-name="lambda" unicode="&#x3bb;" horiz-adv-x="496" 
d="M509 -29q-35 -16 -76 -16q-48 0 -74 23.5t-39 71.5l-78 295l-135 -379h-101l198 512l-37 117q-16 54 -48 54q-24 0 -52 -28l-31 72q44 45 104 45q49 0 74.5 -29t39.5 -80l153 -529q10 -32 21 -44t30 -12q13 0 25 4.5t15 5.5z" />
    <glyph glyph-name="uni03BC" unicode="&#x3bc;" horiz-adv-x="518" 
d="M515 -31q-24 -14 -61 -14q-83 0 -97 91q-34 -91 -120 -91q-47 0 -78 25v-211h-97v716h97v-290q0 -77 20.5 -114.5t67.5 -37.5q43 0 72 38t29 117v287h96v-381q0 -33 9 -47.5t28 -14.5q12 0 23 5z" />
    <glyph glyph-name="nu" unicode="&#x3bd;" horiz-adv-x="445" 
d="M408 485q8 -59 8 -93q0 -99 -40 -201.5t-133 -224.5h-77l-160 519h110l108 -403q52 90 73.5 163t21.5 146q0 40 -9 94h98z" />
    <glyph glyph-name="xi" unicode="&#x3be;" horiz-adv-x="404" 
d="M381 -10q34 -32 34 -88q0 -44 -23 -75.5t-67 -58.5l-50 53q22 17 31 32.5t9 33.5q0 27 -20 44t-61 30q-102 29 -151 76t-49 131q0 70 35 121.5t97 74.5q-48 17 -76 52.5t-28 85.5q0 92 85 140h-105v83h344v-74q-121 -5 -172.5 -45t-51.5 -99q0 -46 33.5 -75t93.5 -29h81
v-81h-68q-87 0 -127 -39t-40 -101q0 -42 17 -68t48 -41.5t82 -30.5q65 -20 99 -52z" />
    <glyph glyph-name="omicron" unicode="&#x3bf;" horiz-adv-x="500" 
d="M65.5 377q28.5 61 77 90.5t108.5 29.5t108 -29t76 -90t28 -152t-28 -152t-76 -90t-108 -29t-108.5 29t-77 90t-28.5 152q0 90 28.5 151zM171.5 88.5q30.5 -44.5 79.5 -44.5q48 0 78 45t30 137q0 93 -29.5 137t-78.5 44t-79.5 -44t-30.5 -137t30.5 -137.5z" />
    <glyph glyph-name="pi" unicode="&#x3c0;" horiz-adv-x="523" 
d="M514 -28q-32 -17 -75 -17q-63 0 -88.5 38.5t-25.5 105.5v303h-143v-436h-97v436h-79v83h496v-83h-80v-287q0 -35 10 -52.5t33 -17.5q20 0 37 9z" />
    <glyph glyph-name="rho" unicode="&#x3c1;" horiz-adv-x="516" 
d="M421 429.5q57 -67.5 57 -203.5q0 -93 -27 -153.5t-71 -89t-97 -28.5q-81 0 -126 53v-239h-97v440q0 150 57.5 219t155.5 69q91 0 148 -67.5zM345.5 93q28.5 45 28.5 134q0 92 -28.5 136.5t-75.5 44.5q-50 0 -81.5 -41t-31.5 -140q0 -97 32 -138t81 -41q47 0 75.5 45z" />
    <glyph glyph-name="uni03C2" unicode="&#x3c2;" horiz-adv-x="421" 
d="M361 -13q32 -33 32 -86q0 -44 -24 -77.5t-66 -55.5l-50 53q22 16 31 32t9 34q0 27 -15.5 43t-52.5 29q-60 20 -100 49.5t-64 82t-24 135.5q0 96 31 156.5t79.5 87.5t104.5 27q58 0 102.5 -27.5t63.5 -84.5l-75 -43q-26 68 -92 68q-49 0 -80.5 -44.5t-31.5 -136.5
q0 -83 29.5 -125t97.5 -64q63 -20 95 -53z" />
    <glyph glyph-name="sigma" unicode="&#x3c3;" horiz-adv-x="523" 
d="M520 485v-83h-121q31 -32 48 -79t17 -107q0 -84 -28.5 -143t-77 -88.5t-107.5 -29.5t-107.5 30t-77.5 89.5t-29 145.5q0 130 64.5 197.5t169.5 67.5h249zM329.5 88.5q29.5 44.5 29.5 131.5q0 83 -30.5 129.5t-77.5 46.5q-48 0 -79 -46.5t-31 -129.5q0 -87 30.5 -131.5
t79.5 -44.5t78.5 44.5z" />
    <glyph glyph-name="tau" unicode="&#x3c4;" horiz-adv-x="406" 
d="M396 485v-83h-154v-287q0 -34 10.5 -52t34.5 -18q20 0 36 9l12 -82q-32 -17 -76 -17q-64 0 -89 39t-25 105v303h-139v83h390z" />
    <glyph glyph-name="upsilon" unicode="&#x3c5;" horiz-adv-x="481" 
d="M54 485h97v-283q0 -74 19 -115.5t69 -41.5q52 0 79 49t27 158q0 113 -38 233h101q36 -113 36 -233q0 -146 -55.5 -221.5t-155.5 -75.5q-87 0 -133 58t-46 174v298z" />
    <glyph glyph-name="phi" unicode="&#x3c6;" horiz-adv-x="645" 
d="M540 39.5q-67 -68.5 -169 -82.5v-188h-96v188q-103 14 -170.5 82t-67.5 187q0 80 32.5 137.5t86.5 90t120 40.5v161h95v-161q102 -13 169 -81.5t67 -186.5t-67 -186.5zM172.5 99.5q38.5 -44.5 102.5 -54.5l1 362q-65 -11 -103.5 -55t-38.5 -126t38.5 -126.5zM371 45
q63 10 100.5 54.5t37.5 126.5t-37.5 126t-100.5 55v-362z" />
    <glyph glyph-name="chi" unicode="&#x3c7;" horiz-adv-x="457" 
d="M230 230l116 255h102l-172 -355l172 -361h-105l-115 257l-115 -257h-103l172 358l-172 358h106z" />
    <glyph glyph-name="psi" unicode="&#x3c8;" horiz-adv-x="618" 
d="M364 -42v-189h-96v187q-116 10 -165 78t-49 195v256h96v-242q0 -98 25 -143t93 -53v608h96v-606q64 12 93 61t29 147q0 115 -39 228h101q37 -114 37 -230q0 -268 -221 -297z" />
    <glyph glyph-name="omega" unicode="&#x3c9;" horiz-adv-x="667" 
d="M547 485q39 -54 61 -124t22 -150q0 -83 -22.5 -140.5t-61 -86.5t-86.5 -29q-41 0 -74 23.5t-53 69.5q-19 -46 -51.5 -69.5t-74.5 -23.5q-48 0 -86.5 29t-61 86.5t-22.5 140.5q0 79 22 149.5t62 124.5h103q-42 -59 -64.5 -128.5t-22.5 -144.5q0 -79 22 -124t59 -45
q32 0 50.5 36t18.5 126v136h94v-136q0 -86 17.5 -124t51.5 -38q37 0 58.5 44.5t21.5 124.5q0 152 -87 273h104z" />
    <glyph glyph-name="iotadieresis" unicode="&#x3ca;" horiz-adv-x="243" 
d="M-32 589q-18 19 -18 46q0 26 18 45t44 19t44.5 -19t18.5 -45q0 -27 -18.5 -46t-44.5 -19t-44 19zM153.5 589.5q-18.5 19.5 -18.5 45.5t18.5 45t43.5 19q27 0 45 -18.5t18 -45.5t-18 -46t-45 -19q-25 0 -43.5 19.5zM246 -28q-32 -17 -76 -17q-114 0 -114 144v386h97v-370
q0 -35 10.5 -52.5t33.5 -17.5q21 0 37 9z" />
    <glyph glyph-name="upsilondieresis" unicode="&#x3cb;" horiz-adv-x="481" 
d="M102 589q-18 19 -18 46q0 26 18.5 45t43.5 19q27 0 45 -18.5t18 -45.5t-18 -46t-45 -19q-26 0 -44 19zM288 589q-18 19 -18 46q0 26 18 45t44 19t44.5 -19t18.5 -45q0 -27 -18.5 -46t-44.5 -19t-44 19zM54 485h97v-283q0 -74 19 -115.5t69 -41.5q52 0 79 49t27 158
q0 113 -38 233h101q36 -113 36 -233q0 -146 -55.5 -221.5t-155.5 -75.5q-87 0 -133 58t-46 174v298z" />
    <glyph glyph-name="omicrontonos" unicode="&#x3cc;" horiz-adv-x="500" 
d="M207 555l48 158h101l-70 -158h-79zM65.5 377q28.5 61 77 90.5t108.5 29.5t108 -29t76 -90t28 -152t-28 -152t-76 -90t-108 -29t-108.5 29t-77 90t-28.5 152q0 90 28.5 151zM171.5 88.5q30.5 -44.5 79.5 -44.5q48 0 78 45t30 137q0 93 -29.5 137t-78.5 44t-79.5 -44
t-30.5 -137t30.5 -137.5z" />
    <glyph glyph-name="upsilontonos" unicode="&#x3cd;" horiz-adv-x="481" 
d="M195 556l48 157h101l-70 -157h-79zM54 485h97v-283q0 -74 19 -115.5t69 -41.5q52 0 79 49t27 158q0 113 -38 233h101q36 -113 36 -233q0 -146 -55.5 -221.5t-155.5 -75.5q-87 0 -133 58t-46 174v298z" />
    <glyph glyph-name="omegatonos" unicode="&#x3ce;" horiz-adv-x="667" 
d="M290 556l47 157h102l-70 -157h-79zM547 485q39 -54 61 -124t22 -150q0 -83 -22.5 -140.5t-61 -86.5t-86.5 -29q-41 0 -74 23.5t-53 69.5q-19 -46 -51.5 -69.5t-74.5 -23.5q-48 0 -86.5 29t-61 86.5t-22.5 140.5q0 79 22 149.5t62 124.5h103q-42 -59 -64.5 -128.5
t-22.5 -144.5q0 -79 22 -124t59 -45q32 0 50.5 36t18.5 126v136h94v-136q0 -86 17.5 -124t51.5 -38q37 0 58.5 44.5t21.5 124.5q0 152 -87 273h104z" />
    <glyph glyph-name="uni03D1" unicode="&#x3d1;" horiz-adv-x="538" 
d="M525 397v-87h-73q-5 -177 -57 -266t-157 -89q-83 0 -136 51.5t-65 135.5l92 36q10 -63 36 -99t72 -36q59 0 85 66t29 201h-50q-140 0 -206 49t-66 150q0 65 24.5 117.5t70 82.5t106.5 30q100 0 157 -87t64 -255h74zM168 427q38 -30 143 -30h38q-3 126 -32 189.5t-88 63.5
q-45 0 -72 -36.5t-27 -96.5t38 -90z" />
    <glyph glyph-name="uni03D2" unicode="&#x3d2;" horiz-adv-x="546" 
d="M543 698v-93h-12q-62 0 -108 -55.5t-70.5 -151.5t-24.5 -214v-218h-105v223q0 146 -58 279.5t-160 229.5h133q46 -46 83.5 -113t59.5 -144q29 114 93 185.5t144 71.5h25z" />
    <glyph glyph-name="uni03D6" unicode="&#x3d6;" horiz-adv-x="693" 
d="M13 485h667v-81h-89q51 -90 51 -209q0 -78 -22 -132t-60 -81t-85 -27q-43 0 -76 23.5t-52 70.5q-20 -47 -53 -70.5t-77 -23.5q-47 0 -85 26.5t-60 80.5t-22 133q0 117 51 209h-88v81zM488 404h-283q-55 -92 -55 -203q0 -75 21.5 -116.5t57.5 -41.5q70 0 70 162v101h95
v-101q0 -162 69 -162q37 0 58.5 41.5t21.5 116.5q0 110 -55 203z" />
    <glyph glyph-name="uni0400" unicode="&#x400;" horiz-adv-x="503" 
d="M139 914h104l56 -141h-77zM424 298h-247v-242h285v-90h-388v732h379v-90h-276v-221h247v-89z" />
    <glyph glyph-name="uni0401" unicode="&#x401;" horiz-adv-x="503" 
d="M131.5 805q-18.5 19 -18.5 45t18.5 45t43.5 19q27 0 45 -18.5t18 -45.5t-18 -45.5t-45 -18.5q-25 0 -43.5 19zM310 805q-18 19 -18 45t18 45t44 19t44.5 -19t18.5 -45t-18.5 -45t-44.5 -19t-44 19zM424 298h-247v-242h285v-90h-388v732h379v-90h-276v-221h247v-89z" />
    <glyph glyph-name="uni0402" unicode="&#x402;" horiz-adv-x="720" 
d="M584 400.5q50 -27.5 79.5 -82.5t29.5 -132t-31 -131t-86 -79.5t-126 -20.5v92q63 -3 97.5 31t34.5 105q0 70 -31 110.5t-90 40.5q-39 0 -75 -17.5t-59.5 -57t-23.5 -101.5v-192h-104v641h-182v91h468v-91h-182v-249q31 35 74.5 52.5t93.5 17.5q63 0 113 -27.5z" />
    <glyph glyph-name="uni0403" unicode="&#x403;" horiz-adv-x="460" 
d="M233 769l56 158h104l-83 -158h-77zM74 698h379v-90h-277v-642h-102v732z" />
    <glyph glyph-name="uni0404" unicode="&#x404;" horiz-adv-x="554" 
d="M401.5 75q32.5 27 48.5 84l85 -49q-46 -155 -211 -155q-80 0 -142 41.5t-97.5 126.5t-35.5 210t35.5 209.5t97.5 126t143 41.5q80 0 133.5 -39t76.5 -116l-85 -49q-16 57 -48.5 84t-77.5 27q-69 0 -113 -59t-51 -175h218v-89h-218q5 -121 49 -183.5t115 -62.5
q45 0 77.5 27z" />
    <glyph glyph-name="uni0405" unicode="&#x405;" horiz-adv-x="493" 
d="M406 9q-60 -54 -155 -54q-88 0 -150 46.5t-81 126.5l86 49q19 -64 56.5 -96.5t90.5 -32.5q49 0 76.5 27t27.5 73q0 38 -18 64.5t-45.5 44t-74.5 40.5q-57 28 -92 52t-59.5 65t-24.5 101q0 64 28.5 108t75.5 65.5t104 21.5q79 0 132.5 -40t70.5 -110l-87 -49
q-11 50 -42.5 78.5t-77.5 28.5q-41 0 -68 -24.5t-27 -67.5q0 -35 17.5 -59.5t44 -41.5t71.5 -39q59 -29 94.5 -53.5t61 -67t25.5 -105.5q0 -97 -60 -151z" />
    <glyph glyph-name="uni0406" unicode="&#x406;" horiz-adv-x="250" 
d="M177 -34h-103v732h103v-732z" />
    <glyph glyph-name="uni0407" unicode="&#x407;" horiz-adv-x="250" 
d="M-8 805q-18 19 -18 45t18 45t43 19q27 0 45.5 -19t18.5 -45t-18.5 -45t-45.5 -19q-25 0 -43 19zM170 805q-18 19 -18 45t18 45t44 19t44.5 -19t18.5 -45t-18.5 -45t-44.5 -19t-44 19zM177 -34h-103v732h103v-732z" />
    <glyph glyph-name="uni0408" unicode="&#x408;" horiz-adv-x="426" 
d="M11 87l83 48q22 -86 82 -86q47 0 63.5 41t16.5 112v496h103v-505q0 -119 -46 -178.5t-135 -59.5q-133 0 -167 132z" />
    <glyph glyph-name="uni0409" unicode="&#x409;" horiz-adv-x="947" 
d="M695 397q106 0 165.5 -59t59.5 -158q0 -100 -59 -157t-166 -57h-233v642h-230l-15 -403q-4 -82 -18.5 -134.5t-57 -84t-125.5 -31.5v92q40 0 60.5 18t28 53t10.5 98l19 482h431v-301h130zM682 55q64 0 97.5 34t33.5 92q0 57 -34 91.5t-97 34.5h-117v-252h117z" />
    <glyph glyph-name="uni040A" unicode="&#x40a;" horiz-adv-x="960" 
d="M706 390q107 0 167 -56.5t60 -155.5q0 -100 -59.5 -156t-167.5 -56h-235v333h-293v-333h-104v732h104v-308h293v308h104v-308h131zM695 55q63 0 95.5 33t32.5 90t-32.5 90t-95.5 33h-120v-246h120z" />
    <glyph glyph-name="uni040B" unicode="&#x40b;" horiz-adv-x="709" 
d="M613 366.5q58 -60.5 58 -181.5v-219h-104v194q0 79 -26.5 126t-95.5 47q-60 0 -101 -42t-41 -132v-193h-104v641h-182v91h468v-91h-182v-243q54 63 155 63q97 0 155 -60.5z" />
    <glyph glyph-name="uni040C" unicode="&#x40c;" horiz-adv-x="602" 
d="M282 773l56 141h104l-82 -141h-78zM363 341l229 -375h-126l-194 325h-94v-325h-104v732h104v-315h96l192 315h115z" />
    <glyph glyph-name="uni040D" unicode="&#x40d;" horiz-adv-x="639" 
d="M205 927h104l56 -158h-77zM481 699h85v-732h-96v544l-312 -544h-84v732h96v-544z" />
    <glyph glyph-name="uni040E" unicode="&#x40e;" horiz-adv-x="550" 
d="M181 812.5q-36 39.5 -36 102.5h86q1 -34 12.5 -54.5t35.5 -20.5q47 0 50 75h86q0 -63 -36.5 -102.5t-99.5 -39.5q-62 0 -98 39.5zM288 297l141 402h108l-205 -531q-31 -80 -56 -124t-58 -66.5t-83 -22.5q-51 0 -82 23v95q34 -23 71 -23q36 0 59.5 23.5t54.5 91.5
l-225 534h117z" />
    <glyph glyph-name="uni040F" unicode="&#x40f;" horiz-adv-x="633" 
d="M178 58h279v640h103v-732h-193l-5 -172h-89l-5 172h-194v732h104v-640z" />
    <glyph glyph-name="uni0410" unicode="&#x410;" horiz-adv-x="608" 
d="M345 699l248 -733h-113l-61 196h-241l-58 -196h-105l241 733h89zM391 253l-95 302l-91 -302h186z" />
    <glyph glyph-name="uni0411" unicode="&#x411;" horiz-adv-x="560" 
d="M302 393q107 0 167 -58.5t60 -156.5t-59.5 -155t-167.5 -57h-233v733h404v-90h-300v-216h129zM291 54q63 0 95.5 33.5t32.5 91.5q0 57 -33 91.5t-95 34.5h-118v-251h118z" />
    <glyph glyph-name="uni0412" unicode="&#x412;" horiz-adv-x="562" 
d="M523 173q0 -97 -58 -152t-163 -55h-228v732h202q94 0 152 -53.5t58 -144.5q0 -103 -78 -150q115 -42 115 -177zM176 608v-225h85q55 0 86 30.5t31 83.5q0 51 -31 81t-86 30h-85zM289 55q61 0 93 32t32 89t-32.5 90t-92.5 33h-113v-244h113z" />
    <glyph glyph-name="uni0413" unicode="&#x413;" horiz-adv-x="460" 
d="M74 698h379v-90h-277v-642h-102v732z" />
    <glyph glyph-name="uni0414" unicode="&#x414;" horiz-adv-x="667" 
d="M645 58l-8 -264h-89l-5 172h-432l-5 -172h-88l-8 264h34q40 0 64 29.5t36 88t18 156.5l22 366h383v-640h78zM463 58v548h-184l-17 -285q-6 -96 -20 -160t-45 -103h266z" />
    <glyph glyph-name="uni0415" unicode="&#x415;" horiz-adv-x="503" 
d="M424 298h-247v-242h285v-90h-388v732h379v-90h-276v-221h247v-89z" />
    <glyph glyph-name="uni0416" unicode="&#x416;" horiz-adv-x="887" 
d="M669 341l214 -375h-128l-178 325h-82v-325h-104v325h-79l-180 -325h-128l214 375l-202 357h116l178 -315h81v315h104v-315h84l176 315h116z" />
    <glyph glyph-name="uni0417" unicode="&#x417;" horiz-adv-x="497" 
d="M430.5 284.5q32.5 -47.5 32.5 -113.5q0 -65 -27.5 -114t-77 -75.5t-114.5 -26.5q-175 0 -221 167l83 46q17 -61 52 -91t84 -30q51 0 81.5 34.5t30.5 93.5q0 60 -38 94t-111 34h-24v89h31q57 0 86.5 34t29.5 86q0 48 -25 77t-67 29q-43 0 -75 -32t-49 -90l-81 46
q23 84 78.5 126.5t134.5 42.5q60 0 104 -25.5t67.5 -69.5t23.5 -99q0 -52 -25.5 -96t-75.5 -67q60 -22 92.5 -69.5z" />
    <glyph glyph-name="uni0418" unicode="&#x418;" horiz-adv-x="639" 
d="M481 699h85v-732h-96v544l-312 -544h-84v732h96v-544z" />
    <glyph glyph-name="uni0419" unicode="&#x419;" horiz-adv-x="639" 
d="M221.5 812.5q-36.5 39.5 -36.5 102.5h86q3 -75 49 -75q47 0 49 75h86q0 -63 -36.5 -102.5t-98.5 -39.5t-98.5 39.5zM481 699h85v-732h-96v544l-312 -544h-84v732h96v-544z" />
    <glyph glyph-name="uni041A" unicode="&#x41a;" horiz-adv-x="602" 
d="M363 341l229 -375h-126l-194 325h-94v-325h-104v732h104v-315h96l192 315h115z" />
    <glyph glyph-name="uni041B" unicode="&#x41b;" horiz-adv-x="638" 
d="M565 698v-732h-104v640h-229l-15 -401q-4 -82 -18.5 -134.5t-57 -84t-125.5 -31.5v92q40 0 60.5 18t28 53t10.5 98l19 482h431z" />
    <glyph glyph-name="uni041C" unicode="&#x41c;" horiz-adv-x="726" 
d="M574 698h79v-732h-99v503l-163 -307h-56l-163 311v-507h-98v732h84l208 -410z" />
    <glyph glyph-name="uni041D" unicode="&#x41d;" horiz-adv-x="638" 
d="M177 392h285v306h103v-732h-103v334h-285v-334h-103v732h103v-306z" />
    <glyph glyph-name="uni041E" unicode="&#x41e;" horiz-adv-x="640" 
d="M121 615.5q72 94.5 199 94.5q128 0 199.5 -95t71.5 -282q0 -188 -71.5 -283t-199.5 -95t-199.5 94.5t-71.5 283.5q0 188 72 282.5zM199.5 120q41.5 -71 120.5 -71q161 0 161 284q0 142 -41 213t-120 71t-120.5 -71t-41.5 -213t41.5 -213z" />
    <glyph glyph-name="uni041F" unicode="&#x41f;" horiz-adv-x="649" 
d="M74 698h502v-732h-102v641h-298v-641h-102v732z" />
    <glyph glyph-name="uni0420" unicode="&#x420;" horiz-adv-x="525" 
d="M272 698q67 0 118 -29t79 -81t28 -120t-27.5 -119.5t-78.5 -80.5t-119 -29h-95v-273h-103v732h198zM259 328q54 0 91 39.5t37 100.5q0 62 -35.5 101.5t-92.5 39.5h-82v-281h82z" />
    <glyph glyph-name="uni0421" unicode="&#x421;" horiz-adv-x="554" 
d="M450 159l85 -48q-46 -156 -210 -156q-81 0 -143 41.5t-97.5 126.5t-35.5 210t35.5 209.5t98 126t143.5 41.5q80 0 133 -39t76 -116l-85 -49q-33 110 -127 110q-75 0 -120 -71.5t-45 -211.5t45 -212t120 -72q94 0 127 110z" />
    <glyph glyph-name="uni0422" unicode="&#x422;" horiz-adv-x="501" 
d="M17 698h467v-91h-182v-641h-103v641h-182v91z" />
    <glyph glyph-name="uni0423" unicode="&#x423;" horiz-adv-x="550" 
d="M288 297l141 402h108l-205 -531q-31 -80 -56 -124t-58 -66.5t-83 -22.5q-51 0 -82 23v95q34 -23 71 -23q36 0 59.5 23.5t54.5 91.5l-225 534h117z" />
    <glyph glyph-name="uni0424" unicode="&#x424;" horiz-adv-x="697" 
d="M632 189.5q-36 -61.5 -97 -97.5t-136 -46v-80h-100v80q-76 9 -137 44.5t-97 97.5t-36 145q0 82 36 143.5t97.5 97.5t136.5 45v79h100v-79q75 -10 136 -46t97 -97t36 -143t-36 -143.5zM178.5 199.5q44.5 -48.5 120.5 -59.5v386q-75 -11 -120 -59.5t-45 -133.5t44.5 -133.5
zM399 140q74 12 118.5 60.5t44.5 132.5q0 85 -44.5 133.5t-118.5 59.5v-386z" />
    <glyph glyph-name="uni0425" unicode="&#x425;" horiz-adv-x="587" 
d="M563 698l-213 -358l221 -374h-128l-154 276l-156 -276h-118l223 368l-214 364h126l147 -266l146 266h120z" />
    <glyph glyph-name="uni0426" unicode="&#x426;" horiz-adv-x="670" 
d="M457 698h103v-640h76l-8 -264h-88l-6 172h-460v732h104v-640h279v640z" />
    <glyph glyph-name="uni0427" unicode="&#x427;" horiz-adv-x="584" 
d="M406 698h105v-732h-105v305q-54 -53 -155 -53q-98 0 -155.5 52t-57.5 160v268h104v-243q0 -72 30 -107.5t93 -35.5q60 0 100.5 34t40.5 110v242z" />
    <glyph glyph-name="uni0428" unicode="&#x428;" horiz-adv-x="868" 
d="M487 58h205v640h103v-732h-721v732h104v-640h204l-1 640h105z" />
    <glyph glyph-name="uni0429" unicode="&#x429;" horiz-adv-x="901" 
d="M692 698h103v-640h72l-8 -264h-88l-4 172h-693v732h104v-640h204l-1 640h105l1 -640h205v640z" />
    <glyph glyph-name="uni042A" unicode="&#x42a;" horiz-adv-x="666" 
d="M413 397q106 0 166 -59t60 -158q0 -100 -59.5 -157t-166.5 -57h-233v644h-170v89h274v-302h129zM399 55q64 0 98 34t34 92q0 57 -34 91.5t-98 34.5h-115v-252h115z" />
    <glyph glyph-name="uni042B" unicode="&#x42b;" horiz-adv-x="790" 
d="M307 397q107 0 167 -59t60 -158q0 -100 -59.5 -157t-167.5 -57h-233v733h104v-302h129zM716 -34h-103v733h103v-733zM294 55q64 0 97 34t33 92q0 57 -33 91.5t-97 34.5h-116v-252h116z" />
    <glyph glyph-name="uni042C" unicode="&#x42c;" horiz-adv-x="561" 
d="M307 397q107 0 167 -59t60 -158q0 -100 -59.5 -157t-167.5 -57h-233v733h104v-302h129zM294 55q64 0 97 34t33 92q0 57 -33 91.5t-97 34.5h-116v-252h116z" />
    <glyph glyph-name="uni042D" unicode="&#x42d;" horiz-adv-x="554" 
d="M344.5 110q43.5 62 49.5 184h-219v89h219q-8 116 -52 175t-112 59q-45 0 -78 -27t-49 -84l-84 49q23 77 76 116t133 39q81 0 143.5 -41.5t97.5 -126t35 -209.5t-35 -210t-97 -126.5t-143 -41.5q-164 0 -210 155l84 49q31 -111 127 -111q71 0 114.5 62z" />
    <glyph glyph-name="uni042E" unicode="&#x42e;" horiz-adv-x="831" 
d="M716.5 615q65.5 -95 65.5 -282q0 -188 -65.5 -283t-183.5 -95q-112 0 -177 86t-72 259h-107v-334h-103v732h103v-307h109q10 159 74.5 239t172.5 80q118 0 183.5 -95zM673 333q0 142 -36 213t-104 71q-69 0 -105 -70.5t-36 -213.5t36 -213.5t105 -70.5q140 0 140 284z
" />
    <glyph glyph-name="uni042F" unicode="&#x42f;" horiz-adv-x="553" 
d="M479 698v-732h-102v292h-91h-3l-160 -292h-123l177 313q-57 25 -89 76.5t-32 121.5q0 65 28.5 115.5t79.5 78t118 27.5h197zM377 347v262h-81q-57 0 -93.5 -36t-36.5 -95t37 -95t93 -36h81z" />
    <glyph glyph-name="uni0430" unicode="&#x430;" horiz-adv-x="472" 
d="M368.5 446.5q48.5 -50.5 48.5 -150.5v-330h-84l-3 37q0 11 -2 31q-41 -79 -131 -79q-64 0 -110 39t-46 119q0 82 52 126.5t132 44.5q47 0 95 -15v11q0 68 -22.5 99t-65.5 31q-66 0 -95 -68l-73 42q20 53 65.5 83t108.5 30q82 0 130.5 -50.5zM320 192q-43 15 -79 15
q-46 0 -72.5 -23.5t-26.5 -67.5q0 -40 21 -59.5t53 -19.5q43 0 73.5 32t30.5 89v34z" />
    <glyph glyph-name="uni0431" unicode="&#x431;" horiz-adv-x="502" 
d="M366.5 464.5q44.5 -29.5 71 -90t26.5 -151.5q0 -139 -58.5 -203.5t-151.5 -64.5q-98 0 -157 80t-59 279q0 119 20.5 202t66.5 133q27 30 59.5 44.5t61.5 19t75 7.5q41 2 62 5t37 14v-91q-14 -10 -33.5 -13t-52.5 -4q-51 -2 -84 -10t-58 -37q-39 -45 -49 -155q21 31 53 48
t72 17q54 0 98.5 -29.5zM330 87.5q29 44.5 29 133.5q0 92 -29 137.5t-77 45.5q-49 0 -79.5 -46.5t-30.5 -135.5t30.5 -134t79.5 -45q48 0 77 44.5z" />
    <glyph glyph-name="uni0432" unicode="&#x432;" horiz-adv-x="455" 
d="M406.5 190q21.5 -31 21.5 -76q0 -70 -44.5 -109t-125.5 -39h-196v520h182q72 0 116 -38.5t44 -103.5q0 -76 -61 -109q42 -14 63.5 -45zM158 406v-138h74q37 0 54.5 19t17.5 51q0 31 -17.5 49.5t-54.5 18.5h-74zM244 46q82 0 82 74q0 70 -80 70h-88v-144h86z" />
    <glyph glyph-name="uni0433" unicode="&#x433;" horiz-adv-x="377" 
d="M62 486h306v-85h-207v-435h-99v520z" />
    <glyph glyph-name="uni0434" unicode="&#x434;" horiz-adv-x="542" 
d="M519 49l-8 -255h-85l-5 171h-309l-5 -171h-86l-7 255h33q37 0 55 26.5t24.5 72.5t12.5 138l1 21l10 179h298v-437h71zM352 49v354h-113l-6 -107q-6 -98 -16 -155.5t-31 -91.5h166z" />
    <glyph glyph-name="uni0435" unicode="&#x435;" horiz-adv-x="460" 
d="M384 433.5q50 -63.5 50 -169.5q0 -33 -4 -61h-291q4 -83 34.5 -121.5t80.5 -38.5q64 0 90 67l74 -43q-18 -57 -64 -84.5t-106 -27.5q-95 0 -153 67.5t-58 201.5q0 91 28 152.5t75.5 91t105.5 29.5q88 0 138 -63.5zM176.5 379q-27.5 -32 -34.5 -98h194q-1 64 -26 97
t-66 33q-40 0 -67.5 -32z" />
    <glyph glyph-name="uni0436" unicode="&#x436;" horiz-adv-x="653" 
d="M420 268l123 218h105l-147 -254l153 -266h-114l-121 218h-43v-218h-97v218h-42l-123 -218h-112l151 266l-146 254h104l124 -218h44v218h97v-218h44z" />
    <glyph glyph-name="uni0437" unicode="&#x437;" horiz-adv-x="398" 
d="M80 121q31 -80 111 -80q37 0 60 19t23 56t-25.5 58t-79.5 21h-42v83h42q46 0 67.5 18.5t21.5 49.5q0 29 -20.5 46.5t-52.5 17.5q-30 0 -54 -16t-35 -48l-76 45q16 51 59.5 78.5t107.5 27.5q76 0 124.5 -37t48.5 -102q0 -39 -23.5 -71.5t-67.5 -47.5q50 -12 78 -46t28 -85
q0 -75 -50.5 -114t-135.5 -39q-70 0 -117.5 31t-66.5 91z" />
    <glyph glyph-name="uni0438" unicode="&#x438;" horiz-adv-x="511" 
d="M157 486v-350l211 350h81v-520h-96v349l-211 -349h-80v520h95z" />
    <glyph glyph-name="uni0439" unicode="&#x439;" horiz-adv-x="511" 
d="M157.5 597q-35.5 42 -35.5 116h85q3 -85 49 -85q25 0 36.5 21.5t13.5 63.5h86q0 -74 -36 -116t-100 -42q-63 0 -98.5 42zM157 486v-350l211 350h81v-520h-96v349l-211 -349h-80v520h95z" />
    <glyph glyph-name="uni043A" unicode="&#x43a;" horiz-adv-x="473" 
d="M220 268l139 217h106l-163 -253l169 -266h-115l-136 217h-60v-217h-98v520h98v-218h60z" />
    <glyph glyph-name="uni043B" unicode="&#x43b;" horiz-adv-x="492" 
d="M430 486v-520h-98v435h-137l-9 -234q-3 -68 -16 -112.5t-50.5 -72t-107.5 -27.5v92q45 0 62 31t19 99l12 309h325z" />
    <glyph glyph-name="uni043C" unicode="&#x43c;" horiz-adv-x="597" 
d="M451 486h84v-520h-92v332l-116 -238h-56l-117 229v-323h-92v520h83l155 -308z" />
    <glyph glyph-name="uni043D" unicode="&#x43d;" horiz-adv-x="507" 
d="M162 271h182v215h100v-520h-100v221h-182v-221h-100v520h100v-215z" />
    <glyph glyph-name="uni043E" unicode="&#x43e;" horiz-adv-x="500" 
d="M65.5 377q28.5 61 77 90.5t108.5 29.5t108 -29t76 -90t28 -152t-28 -152t-76 -90t-108 -29t-108.5 29t-77 90t-28.5 152q0 90 28.5 151zM171.5 88.5q30.5 -44.5 79.5 -44.5q48 0 78 45t30 137q0 93 -29.5 137t-78.5 44t-79.5 -44t-30.5 -137t30.5 -137.5z" />
    <glyph glyph-name="uni043F" unicode="&#x43f;" horiz-adv-x="507" 
d="M62 485h382v-519h-100v435h-182v-435h-100v519z" />
    <glyph glyph-name="uni0440" unicode="&#x440;" horiz-adv-x="522" 
d="M387.5 467.5q44.5 -29.5 71 -90.5t26.5 -151q0 -91 -26.5 -152t-70.5 -90t-99 -29q-88 0 -129 73v-259h-98v716h87q2 -52 5 -75q39 87 135 87q54 0 98.5 -29.5zM352.5 89.5q29.5 45.5 29.5 136.5q0 90 -29.5 135t-80.5 45q-48 0 -80 -41t-32 -139t32.5 -140t79.5 -42
q51 0 80.5 45.5z" />
    <glyph glyph-name="uni0441" unicode="&#x441;" horiz-adv-x="418" 
d="M300 61q23 17 34 52l76 -44q-17 -60 -60 -87t-97 -27q-58 0 -107 29.5t-79 90.5t-30 151t29.5 151t79 90.5t107.5 29.5q55 0 98 -27.5t59 -87.5l-76 -44q-11 36 -34 52.5t-51 16.5q-48 0 -78.5 -45t-30.5 -136t30.5 -136.5t78.5 -45.5q28 0 51 17z" />
    <glyph glyph-name="uni0442" unicode="&#x442;" horiz-adv-x="408" 
d="M9 401v85h390v-85h-147v-435h-97v435h-146z" />
    <glyph glyph-name="uni0443" unicode="&#x443;" horiz-adv-x="465" 
d="M241 104l112 381h102l-185 -569q-27 -84 -63.5 -122t-97.5 -38q-59 0 -95 33l38 77q22 -19 55 -19q29 0 47 18t33 68l6 21l-186 531h112z" />
    <glyph glyph-name="uni0444" unicode="&#x444;" horiz-adv-x="645" 
d="M540 39.5q-67 -68.5 -169 -82.5v-188h-96v188q-103 14 -170.5 82t-67.5 187q0 80 32.5 137.5t86.5 90t120 40.5v161h95v-161q102 -13 169 -81.5t67 -186.5t-67 -186.5zM172.5 99.5q38.5 -44.5 102.5 -54.5l1 362q-65 -11 -103.5 -55t-38.5 -126t38.5 -126.5zM371 45
q63 10 100.5 54.5t37.5 126.5t-37.5 126t-100.5 55v-362z" />
    <glyph glyph-name="uni0445" unicode="&#x445;" horiz-adv-x="442" 
d="M223 313l99 172h110l-159 -256l159 -263h-113l-100 173l-99 -173h-110l160 257l-160 262h113z" />
    <glyph glyph-name="uni0446" unicode="&#x446;" horiz-adv-x="537" 
d="M444 485v-434h73l-7 -257h-84l-5 172h-359v519h100v-434h182v434h100z" />
    <glyph glyph-name="uni0447" unicode="&#x447;" horiz-adv-x="486" 
d="M324 486h100v-520h-100v195q-39 -40 -111 -40q-77 0 -122 40.5t-45 122.5v202h101v-176q0 -50 20.5 -74t63.5 -24t68 24.5t25 78.5v171z" />
    <glyph glyph-name="uni0448" unicode="&#x448;" horiz-adv-x="685" 
d="M391 51h134v434h98v-519h-561v519h97v-434h135v434h97v-434z" />
    <glyph glyph-name="uni0449" unicode="&#x449;" horiz-adv-x="715" 
d="M623 485v-434h73l-8 -257h-84l-4 172h-538v519h97v-434h135v434h97v-434h134v434h98z" />
    <glyph glyph-name="uni044A" unicode="&#x44a;" horiz-adv-x="544" 
d="M343 297q85 0 131.5 -45.5t46.5 -118.5q0 -74 -47 -120.5t-131 -46.5h-189v435h-141v85h243v-189h87zM324 48q92 0 92 85q0 48 -25.5 65t-66.5 17h-68v-167h68z" />
    <glyph glyph-name="uni044B" unicode="&#x44b;" horiz-adv-x="659" 
d="M249 297q85 0 132 -45.5t47 -118.5q0 -74 -47 -120.5t-132 -46.5h-187v520h102v-189h85zM597 -34h-101v520h101v-520zM231 48q93 0 93 85q0 47 -26 64.5t-67 17.5h-67v-167h67z" />
    <glyph glyph-name="uni044C" unicode="&#x44c;" horiz-adv-x="450" 
d="M249 297q85 0 132 -45.5t47 -118.5q0 -74 -47 -120.5t-132 -46.5h-187v520h102v-189h85zM231 48q93 0 93 85q0 47 -26 64.5t-67 17.5h-67v-167h67z" />
    <glyph glyph-name="uni044D" unicode="&#x44d;" horiz-adv-x="418" 
d="M243 80q30 37 34 113h-147v78h146q-7 70 -36 104t-71 34q-28 0 -50.5 -16t-33.5 -52l-76 45q16 58 57.5 84.5t98.5 26.5q60 0 109 -29.5t78 -90.5t29 -151q0 -91 -29 -151.5t-78 -90t-109 -29.5q-56 0 -97.5 26.5t-58.5 84.5l76 44q11 -35 33.5 -51t50.5 -16q44 0 74 37z
" />
    <glyph glyph-name="uni044E" unicode="&#x44e;" horiz-adv-x="678" 
d="M542 467.5q45 -29.5 71.5 -90t26.5 -151.5t-26.5 -151.5t-71.5 -90t-101 -29.5q-82 0 -136.5 59t-61.5 176h-81v-224h-100v519h100v-211h81q11 110 64.5 166.5t133.5 56.5q56 0 101 -29.5zM511 88.5q27 44.5 27 137.5t-27 137.5t-71 44.5q-45 0 -71.5 -45t-26.5 -137
q0 -93 26.5 -137.5t71.5 -44.5q44 0 71 44.5z" />
    <glyph glyph-name="uni044F" unicode="&#x44f;" horiz-adv-x="465" 
d="M403 486v-520h-99v204h-62l-122 -204h-111l134 219q-44 18 -68 55.5t-24 87.5q0 71 45.5 114.5t123.5 43.5h183zM304 252v152h-74q-35 0 -56 -20.5t-21 -55.5t20.5 -55.5t56.5 -20.5h74z" />
    <glyph glyph-name="uni0450" unicode="&#x450;" horiz-adv-x="460" 
d="M130 713h104l57 -158h-78zM384 433.5q50 -63.5 50 -169.5q0 -33 -4 -61h-291q4 -83 34.5 -121.5t80.5 -38.5q64 0 90 67l74 -43q-18 -57 -64 -84.5t-106 -27.5q-95 0 -153 67.5t-58 201.5q0 91 28 152.5t75.5 91t105.5 29.5q88 0 138 -63.5zM176.5 379
q-27.5 -32 -34.5 -98h194q-1 64 -26 97t-66 33q-40 0 -67.5 -32z" />
    <glyph glyph-name="uni0451" unicode="&#x451;" horiz-adv-x="460" 
d="M108 589q-18 19 -18 45t18 45t43 19q27 0 45.5 -19t18.5 -45t-18.5 -45t-45.5 -19q-25 0 -43 19zM293.5 589q-18.5 19 -18.5 45t18.5 45t43.5 19q26 0 44.5 -19t18.5 -45t-18.5 -45t-44.5 -19q-25 0 -43.5 19zM384 433.5q50 -63.5 50 -169.5q0 -33 -4 -61h-291
q4 -83 34.5 -121.5t80.5 -38.5q64 0 90 67l74 -43q-18 -57 -64 -84.5t-106 -27.5q-95 0 -153 67.5t-58 201.5q0 91 28 152.5t75.5 91t105.5 29.5q88 0 138 -63.5zM176.5 379q-27.5 -32 -34.5 -98h194q-1 64 -26 97t-66 33q-40 0 -67.5 -32z" />
    <glyph glyph-name="uni0452" unicode="&#x452;" horiz-adv-x="517" 
d="M420.5 445.5q41.5 -51.5 41.5 -153.5v-367q0 -88 -38 -128.5t-100 -40.5q-49 0 -89 28l40 75q19 -13 41 -13q24 0 35.5 18.5t11.5 68.5v329q0 71 -20 106t-64 35q-45 0 -74 -35.5t-29 -108.5v-293h-98v591h-68v79h68v91h98v-91h116v-79h-116v-134q44 74 132 74
q71 0 112.5 -51.5z" />
    <glyph glyph-name="uni0453" unicode="&#x453;" horiz-adv-x="377" 
d="M177 556l57 158h103l-82 -158h-78zM62 486h306v-85h-207v-435h-99v520z" />
    <glyph glyph-name="uni0454" unicode="&#x454;" horiz-adv-x="418" 
d="M300 59q22 16 33 51l76 -44q-16 -58 -58 -84.5t-98 -26.5q-60 0 -109 29.5t-78 90t-29 151.5q0 90 29 151t78 90.5t109 29.5q57 0 98.5 -26.5t57.5 -84.5l-76 -45q-11 36 -33.5 52t-49.5 16q-42 0 -71.5 -34t-36.5 -104h146v-78h-147q4 -76 34 -113t75 -37q28 0 50 16z
" />
    <glyph glyph-name="uni0455" unicode="&#x455;" horiz-adv-x="391" 
d="M321.5 -4q-47.5 -41 -121.5 -41q-67 0 -115.5 34t-63.5 94l74 42q13 -43 40.5 -63t63.5 -20q34 0 50.5 17t16.5 43q0 32 -22.5 50t-71.5 39q-43 20 -68.5 35.5t-44 44.5t-18.5 73q0 71 48.5 112t120.5 41q59 0 100.5 -29.5t52.5 -83.5l-73 -42q-10 34 -32 51t-51 17
q-31 0 -47.5 -17t-16.5 -42q0 -29 21.5 -46t68.5 -37q43 -19 70 -36t46.5 -47.5t19.5 -76.5q0 -71 -47.5 -112z" />
    <glyph glyph-name="uni0456" unicode="&#x456;" horiz-adv-x="222" 
d="M68 592q-18 19 -18 45q0 25 18 44t42 19q25 0 43.5 -19t18.5 -44q0 -26 -18.5 -45t-43.5 -19q-24 0 -42 19zM160 -34h-98v519h98v-519z" />
    <glyph glyph-name="uni0457" unicode="&#x457;" horiz-adv-x="239" 
d="M4.5 589.5q-18.5 19.5 -18.5 45.5t18.5 45t43.5 19q26 0 44.5 -19t18.5 -45t-18.5 -45.5t-44.5 -19.5q-25 0 -43.5 19.5zM146 589q-18 19 -18 46q0 26 18 45t44 19t44.5 -19t18.5 -45t-19 -45.5t-44 -19.5q-26 0 -44 19zM68 -34v519h103v-519h-103z" />
    <glyph glyph-name="uni0458" unicode="&#x458;" horiz-adv-x="221" 
d="M69 592.5q-18 19.5 -18 44.5t17.5 44t41.5 19q25 0 43 -19t18 -44q0 -26 -18 -45t-43 -19q-23 0 -41 19.5zM-44 -234.5q-25 9.5 -38 25.5l40 77q20 -19 48 -19q32 0 44 25.5t12 83.5v527h99v-533q0 -100 -40.5 -148t-109.5 -48q-30 0 -55 9.5z" />
    <glyph glyph-name="uni0459" unicode="&#x459;" horiz-adv-x="718" 
d="M518 297q84 0 130.5 -45.5t46.5 -118.5q0 -74 -46.5 -120.5t-130.5 -46.5h-185v435h-138l-8 -234q-3 -68 -16 -112.5t-50.5 -72t-107.5 -27.5v92q45 0 61.5 30.5t19.5 99.5l11 309h326v-189h87zM500 48q93 0 93 85q0 47 -26 64.5t-67 17.5h-69v-167h69z" />
    <glyph glyph-name="uni045A" unicode="&#x45a;" horiz-adv-x="731" 
d="M530 282q85 0 132 -43.5t47 -112.5q0 -71 -47 -115.5t-132 -44.5h-186v233h-182v-233h-100v520h100v-204h182v204h100v-204h86zM513 47q92 0 92 79q0 44 -25.5 60t-66.5 16h-69v-155h69z" />
    <glyph glyph-name="uni045B" unicode="&#x45b;" horiz-adv-x="517" 
d="M420.5 445.5q41.5 -51.5 41.5 -153.5v-326h-99v296q0 71 -20 106t-64 35q-45 0 -74 -35.5t-29 -108.5v-293h-98v591h-68v79h68v91h98v-91h116v-79h-116v-134q44 74 132 74q71 0 112.5 -51.5z" />
    <glyph glyph-name="uni045C" unicode="&#x45c;" horiz-adv-x="473" 
d="M215 556l56 158h104l-83 -158h-77zM220 268l139 217h106l-163 -253l169 -266h-115l-136 217h-60v-217h-98v520h98v-218h60z" />
    <glyph glyph-name="uni045D" unicode="&#x45d;" horiz-adv-x="511" 
d="M142 714h104l56 -158h-78zM157 486v-350l211 350h81v-520h-96v349l-211 -349h-80v520h95z" />
    <glyph glyph-name="uni045E" unicode="&#x45e;" horiz-adv-x="465" 
d="M137.5 597q-35.5 42 -35.5 116h85q2 -42 13 -63.5t36 -21.5t36.5 21.5t13.5 63.5h85q0 -74 -35.5 -116t-99.5 -42q-63 0 -98.5 42zM241 104l112 381h102l-185 -569q-27 -84 -63.5 -122t-97.5 -38q-59 0 -95 33l38 77q22 -19 55 -19q29 0 47 18t33 68l6 21l-186 531h112z
" />
    <glyph glyph-name="uni045F" unicode="&#x45f;" horiz-adv-x="507" 
d="M162 51h182v434h100v-519h-145l-4 -172h-84l-5 172h-144v519h100v-434z" />
    <glyph glyph-name="uni0462" unicode="&#x462;" horiz-adv-x="627" 
d="M374 390q106 0 166 -58t60 -155q0 -99 -59.5 -155t-166.5 -56h-234v540h-132v84h132v109h104v-109h180v-84h-180v-116h130zM361 57q64 0 97 33t33 89t-33.5 90t-96.5 34h-117v-246h117z" />
    <glyph glyph-name="uni0463" unicode="&#x463;" horiz-adv-x="491" 
d="M290 295q85 0 131.5 -45t46.5 -118q0 -74 -46.5 -120t-131.5 -46h-187v441h-98v79h98v241h101v-241h146v-79h-146v-112h86zM271 47q42 0 67.5 18.5t25.5 66.5t-25.5 65t-67.5 17h-67v-167h67z" />
    <glyph glyph-name="uni046B" unicode="&#x46b;" horiz-adv-x="552" 
d="M344 250q90 0 136.5 -68.5t46.5 -215.5h-94q0 81 -13 125.5t-35.5 60.5t-55.5 16h-7v-202h-93v202h-8q-33 0 -55.5 -16t-35.5 -60.5t-13 -125.5h-92q0 147 46 215.5t136 68.5h3l-156 236h442l-155 -236h3zM348 407h-145l75 -114z" />
    <glyph glyph-name="uni0472" unicode="&#x472;" horiz-adv-x="640" 
d="M519.5 614.5q71.5 -95.5 71.5 -281.5q0 -187 -72 -282.5t-199 -95.5t-199 94.5t-72 283.5q0 188 72 282.5t199 94.5q128 0 199.5 -95.5zM207.5 559q-40.5 -59 -47.5 -177h319q-12 236 -159 236q-72 0 -112.5 -59zM480 294h-320q5 -124 46 -185t114 -61q150 0 160 246z
" />
    <glyph glyph-name="uni0473" unicode="&#x473;" horiz-adv-x="500" 
d="M359 468q48 -29 76 -90t28 -152t-28 -152t-76 -90t-108 -29t-108.5 29t-77 90t-28.5 152q0 90 28.5 151t77 90.5t108.5 29.5t108 -29zM180 375.5q-29 -33.5 -36 -101.5h212q-6 69 -34.5 102t-70.5 33t-71 -33.5zM323.5 79q28.5 36 33.5 110h-214q6 -75 35 -110.5
t73 -35.5t72.5 36z" />
    <glyph glyph-name="uni0474" unicode="&#x474;" horiz-adv-x="643" 
d="M638 698.5q26 -11.5 41 -28.5l-35 -81q-24 25 -54 25q-22 0 -38 -16t-28 -54l-186 -578h-81l-242 732h117l169 -558l124 426q22 76 56.5 110t93.5 34q37 0 63 -11.5z" />
    <glyph glyph-name="uni0475" unicode="&#x475;" horiz-adv-x="502" 
d="M478 485.5q22 -11.5 35 -28.5l-32 -76q-19 27 -42 27q-15 0 -28 -16t-25 -54l-122 -372h-80l-174 519h111l109 -369l75 248q22 73 49 103t72 30q30 0 52 -11.5z" />
    <glyph glyph-name="uni0490" unicode="&#x490;" horiz-adv-x="463" 
d="M74 698h286l20 142h86l-15 -232h-273v-642h-104v732z" />
    <glyph glyph-name="uni0491" unicode="&#x491;" horiz-adv-x="387" 
d="M285 486l17 120h82l-11 -205h-212v-435h-99v520h223z" />
    <glyph glyph-name="uni0492" unicode="&#x492;" horiz-adv-x="467" 
d="M70 698h387v-90h-283v-229h107v-90h-107v-323h-104v323h-70v90h70v319z" />
    <glyph glyph-name="uni0493" unicode="&#x493;" horiz-adv-x="403" 
d="M84 486h313v-85h-213v-143h109v-84h-109v-208h-100v208h-72v84h72v228z" />
    <glyph glyph-name="uni0497" unicode="&#x497;" horiz-adv-x="662" 
d="M648 486l-147 -254l106 -183h73l-8 -255h-85l-5 172h-42l-121 218h-43v-218h-97v218h-42l-123 -218h-112l151 266l-146 254h104l124 -218h44v218h97v-218h44l123 218h105z" />
    <glyph glyph-name="uni049A" unicode="&#x49a;" horiz-adv-x="590" 
d="M569 698l-218 -357l175 -285h69l-7 -262h-88l-5 172h-41l-194 325h-82v-325h-104v732h104v-315h83l192 315h116z" />
    <glyph glyph-name="uni049B" unicode="&#x49b;" horiz-adv-x="473" 
d="M465 485l-163 -253l118 -183h61l-8 -255h-85l-5 172h-27l-136 217h-60v-217h-98v520h98v-218h60l139 217h106z" />
    <glyph glyph-name="uni049C" unicode="&#x49c;" horiz-adv-x="603" 
d="M397 341l197 -375h-121l-165 325h-20v-141h-73v141h-42v-325h-99v732h99v-315h42v143h73v-143h22l160 315h112z" />
    <glyph glyph-name="uni049D" unicode="&#x49d;" horiz-adv-x="489" 
d="M262 268l116 217h100l-137 -253l143 -266h-109l-114 218h-12v-96h-67v96h-25v-218h-95v520h95v-218h25v98h67v-98h13z" />
    <glyph glyph-name="uni04A2" unicode="&#x4a2;" horiz-adv-x="668" 
d="M565 698v-642h75l-8 -262h-88l-5 172h-78v334h-284v-334h-103v732h103v-306h284v306h104z" />
    <glyph glyph-name="uni04A3" unicode="&#x4a3;" horiz-adv-x="541" 
d="M444 486v-437h72l-8 -255h-84l-5 172h-75v221h-182v-221h-100v520h100v-215h182v215h100z" />
    <glyph glyph-name="uni04AE" unicode="&#x4ae;" horiz-adv-x="551" 
d="M284 380l143 318h111l-206 -430v-302h-103v303l-216 429h121z" />
    <glyph glyph-name="uni04AF" unicode="&#x4af;" horiz-adv-x="463" 
d="M239 115l110 370h104l-168 -490v-226h-100v221l-175 495h111z" />
    <glyph glyph-name="uni04B0" unicode="&#x4b0;" horiz-adv-x="551" 
d="M284 380l143 318h111l-171 -356h124v-98h-158v-278h-105v278h-155v98h119l-179 356h121z" />
    <glyph glyph-name="uni04B1" unicode="&#x4b1;" horiz-adv-x="463" 
d="M239 115l110 370h104l-149 -434h113v-85h-132v-197h-100v197h-133v85h111l-153 434h111z" />
    <glyph glyph-name="uni04B2" unicode="&#x4b2;" horiz-adv-x="580" 
d="M563 698l-213 -358l168 -284h64l-8 -262h-88l-6 172h-37l-154 276l-156 -276h-118l223 368l-214 364h126l147 -266l146 266h120z" />
    <glyph glyph-name="uni04B3" unicode="&#x4b3;" horiz-adv-x="447" 
d="M432 485l-159 -256l109 -180h67l-8 -255h-85l-5 172h-32l-100 173l-99 -173h-110l160 257l-160 262h113l100 -172l99 172h110z" />
    <glyph glyph-name="uni04B8" unicode="&#x4b8;" horiz-adv-x="584" 
d="M408 698h103v-732h-105v305q-36 -36 -92 -47v-143h-74v137q-93 3 -147.5 55.5t-54.5 156.5v268h103v-243q0 -129 99 -141v144h74v-140q46 13 70 48t24 89v243z" />
    <glyph glyph-name="uni04B9" unicode="&#x4b9;" horiz-adv-x="498" 
d="M340 486h96v-520h-99v199q-23 -24 -58 -35v-100h-74v91q-73 3 -116 44t-43 119v202h98v-173q0 -39 11.5 -64.5t49.5 -32.5v114h74v-112q30 9 45.5 31.5t15.5 64.5v172z" />
    <glyph glyph-name="uni04BA" unicode="&#x4ba;" horiz-adv-x="585" 
d="M179 -34h-105v732h105v-305q53 53 155 53q98 0 155.5 -52t57.5 -160v-268h-104v243q0 72 -30.5 107.5t-93.5 35.5q-60 0 -100 -34t-40 -110v-242z" />
    <glyph glyph-name="uni04BB" unicode="&#x4bb;" horiz-adv-x="501" 
d="M404.5 445.5q41.5 -51.5 41.5 -153.5v-326h-98v296q0 71 -20.5 106t-64.5 35q-45 0 -74 -35.5t-29 -108.5v-293h-98v761h98v-304q22 37 56 55.5t76 18.5q71 0 112.5 -51.5z" />
    <glyph glyph-name="uni04CA" unicode="&#x4ca;" horiz-adv-x="540" 
d="M344 486h100v-437h76l-75 -255h-86l40 172h-55v221h-182v-221h-100v520h100v-215h182v215z" />
    <glyph glyph-name="uni04D8" unicode="&#x4d8;" horiz-adv-x="592" 
d="M479 612.5q64 -97.5 64 -282.5q0 -181 -67.5 -278t-190.5 -97q-117 0 -177 86.5t-60 239.5q0 24 4 80h381q-4 128 -43.5 191.5t-107.5 63.5q-47 0 -81.5 -28.5t-54.5 -86.5l-87 49q66 160 229 160q127 0 191 -97.5zM389.5 103q35.5 55 42.5 165h-276q1 -109 32 -164.5
t99 -55.5q67 0 102.5 55z" />
    <glyph glyph-name="uni04D9" unicode="&#x4d9;" horiz-adv-x="459" 
d="M366.5 428.5q56.5 -68.5 56.5 -204.5q0 -89 -28 -149.5t-75.5 -90t-105.5 -29.5q-88 0 -138 63t-50 168q0 33 4 61h291q-3 84 -31.5 123t-76.5 39q-31 0 -55 -16t-42 -53l-74 45q23 56 70 84t106 28q92 0 148.5 -68.5zM284.5 72.5q27.5 31.5 34.5 96.5h-194q1 -62 26 -95
t66 -33q40 0 67.5 31.5z" />
    <glyph glyph-name="uni04E8" unicode="&#x4e8;" horiz-adv-x="640" 
d="M519.5 614.5q71.5 -95.5 71.5 -281.5q0 -187 -72 -282.5t-199 -95.5t-199 94.5t-72 283.5q0 188 72 282.5t199 94.5q128 0 199.5 -95.5zM207.5 559q-40.5 -59 -47.5 -177h319q-12 236 -159 236q-72 0 -112.5 -59zM480 294h-320q5 -124 46 -185t114 -61q150 0 160 246z
" />
    <glyph glyph-name="uni04E9" unicode="&#x4e9;" horiz-adv-x="500" 
d="M359 468q48 -29 76 -90t28 -152t-28 -152t-76 -90t-108 -29t-108.5 29t-77 90t-28.5 152q0 90 28.5 151t77 90.5t108.5 29.5t108 -29zM180 375.5q-29 -33.5 -36 -101.5h212q-6 69 -34.5 102t-70.5 33t-71 -33.5zM323.5 79q28.5 36 33.5 110h-214q6 -75 35 -110.5
t73 -35.5t72.5 36z" />
    <glyph glyph-name="uni1E00" unicode="&#x1e00;" horiz-adv-x="608" 
d="M345 699l248 -733h-113l-61 196h-241l-58 -196h-105l241 733h89zM391 253l-95 302l-91 -302h186zM220 -94.5q32 24.5 80 24.5t79 -24.5t31 -62.5t-31 -62.5t-79 -24.5t-80 24.5t-32 62.5t32 62.5zM264.5 -186.5q13.5 -11.5 35.5 -11.5t35 11.5t13 29.5t-13 29.5t-35 11.5
t-35.5 -11.5t-13.5 -29.5t13.5 -29.5z" />
    <glyph glyph-name="uni1E01" unicode="&#x1e01;" horiz-adv-x="472" 
d="M368.5 446.5q48.5 -50.5 48.5 -150.5v-330h-84l-3 37q0 11 -2 31q-41 -79 -131 -79q-64 0 -110 39t-46 119q0 82 52 126.5t132 44.5q47 0 95 -15v11q0 68 -22.5 99t-65.5 31q-66 0 -95 -68l-73 42q20 53 65.5 83t108.5 30q82 0 130.5 -50.5zM320 192q-43 15 -79 15
q-46 0 -72.5 -23.5t-26.5 -67.5q0 -40 21 -59.5t53 -19.5q43 0 73.5 32t30.5 89v34zM314 -94.5q31 -24.5 31 -62.5t-31 -62.5t-78 -24.5q-48 0 -80 24.5t-32 62.5t32 62.5t80 24.5q47 0 78 -24.5zM270 -186.5q13 11.5 13 29.5t-13 29.5t-34 11.5q-22 0 -36 -11.5t-14 -29.5
t14 -29.5t36 -11.5q21 0 34 11.5z" />
    <glyph glyph-name="uni1E3E" unicode="&#x1e3e;" horiz-adv-x="726" 
d="M331 773l56 141h104l-83 -141h-77zM574 698h79v-732h-99v503l-163 -307h-56l-163 311v-507h-98v732h84l208 -410z" />
    <glyph glyph-name="uni1E3F" unicode="&#x1e3f;" horiz-adv-x="724" 
d="M347 556l56 157h104l-82 -157h-78zM630.5 446.5q38.5 -50.5 38.5 -150.5v-330h-97v294q0 73 -17 107.5t-55 34.5t-62 -35.5t-24 -108.5v-292h-97v294q0 73 -17 107.5t-55 34.5q-39 0 -62.5 -35.5t-23.5 -108.5v-292h-97v519h85q3 -57 4 -71q20 42 52.5 62.5t72.5 20.5
q42 0 73.5 -23.5t48.5 -70.5q20 47 54.5 70.5t77.5 23.5q62 0 100.5 -50.5z" />
    <glyph glyph-name="Wgrave" unicode="&#x1e80;" horiz-adv-x="859" 
d="M305 914h104l56 -141h-78zM478 698l137 -563l129 563h100l-188 -733h-87l-139 527l-132 -527h-86l-197 733h108l136 -560l131 560h88z" />
    <glyph glyph-name="wgrave" unicode="&#x1e81;" horiz-adv-x="681" 
d="M235 714h104l57 -158h-78zM384 485l99 -358l94 358h95l-155 -519h-70l-104 335l-101 -335h-71l-161 519h102l99 -360l93 360h80z" />
    <glyph glyph-name="Wacute" unicode="&#x1e82;" horiz-adv-x="859" 
d="M396 773l57 141h103l-82 -141h-78zM478 698l137 -563l129 563h100l-188 -733h-87l-139 527l-132 -527h-86l-197 733h108l136 -560l131 560h88z" />
    <glyph glyph-name="wacute" unicode="&#x1e83;" horiz-adv-x="681" 
d="M304 556l57 158h103l-82 -158h-78zM384 485l99 -358l94 358h95l-155 -519h-70l-104 335l-101 -335h-71l-161 519h102l99 -360l93 360h80z" />
    <glyph glyph-name="Wdieresis" unicode="&#x1e84;" horiz-adv-x="859" 
d="M297 805q-18 19 -18 45t18 45t44 19t44.5 -19t18.5 -45t-18.5 -45t-44.5 -19t-44 19zM475.5 805q-18.5 19 -18.5 45t18.5 45t43.5 19q26 0 44.5 -19t18.5 -45t-18.5 -45t-44.5 -19q-25 0 -43.5 19zM478 698l137 -563l129 563h100l-188 -733h-87l-139 527l-132 -527h-86
l-197 733h108l136 -560l131 560h88z" />
    <glyph glyph-name="wdieresis" unicode="&#x1e85;" horiz-adv-x="681" 
d="M213 590q-18 19 -18 45t18 45t43 19q27 0 45.5 -19t18.5 -45t-18.5 -45t-45.5 -19q-25 0 -43 19zM398.5 590q-18.5 19 -18.5 45t18.5 45t43.5 19q26 0 44.5 -19t18.5 -45t-18.5 -45t-44.5 -19q-25 0 -43.5 19zM384 485l99 -358l94 358h95l-155 -519h-70l-104 335
l-101 -335h-71l-161 519h102l99 -360l93 360h80z" />
    <glyph glyph-name="uni1EA0" unicode="&#x1ea0;" horiz-adv-x="608" 
d="M345 699l248 -733h-113l-61 196h-241l-58 -196h-105l241 733h89zM391 253l-95 302l-91 -302h186zM255 -207.5q-19 18.5 -19 43.5t19 43.5t45 18.5q28 0 47 -18t19 -44q0 -25 -19.5 -43.5t-46.5 -18.5q-26 0 -45 18.5z" />
    <glyph glyph-name="uni1EA1" unicode="&#x1ea1;" horiz-adv-x="472" 
d="M368.5 446.5q48.5 -50.5 48.5 -150.5v-330h-84l-3 37q0 11 -2 31q-41 -79 -131 -79q-64 0 -110 39t-46 119q0 82 52 126.5t132 44.5q47 0 95 -15v11q0 68 -22.5 99t-65.5 31q-66 0 -95 -68l-73 42q20 53 65.5 83t108.5 30q82 0 130.5 -50.5zM320 192q-43 15 -79 15
q-46 0 -72.5 -23.5t-26.5 -67.5q0 -40 21 -59.5t53 -19.5q43 0 73.5 32t30.5 89v34zM282 -120q19 -18 19 -44q0 -25 -19 -43.5t-46 -18.5t-46 18.5t-19 43.5q0 26 19 44t46 18t46 -18z" />
    <glyph glyph-name="uni1EA2" unicode="&#x1ea2;" horiz-adv-x="608" 
d="M214 914q17 11 39.5 17t44.5 6q35 0 60.5 -19.5t25.5 -59.5t-25.5 -67.5t-63.5 -43.5l-33 52q21 9 34 22t13 27q0 11 -8.5 16.5t-21.5 5.5q-28 0 -53 -18zM345 699l248 -733h-113l-61 196h-241l-58 -196h-105l241 733h89zM391 253l-95 302l-91 -302h186z" />
    <glyph glyph-name="uni1EA3" unicode="&#x1ea3;" horiz-adv-x="472" 
d="M163 652l-12 63q39 23 85 23q37 0 60.5 -23t23.5 -67q0 -42 -24.5 -70.5t-62.5 -43.5l-34 52q47 22 47 52q0 15 -8.5 24t-23.5 9q-26 0 -51 -19zM368.5 446.5q48.5 -50.5 48.5 -150.5v-330h-84l-3 37q0 11 -2 31q-41 -79 -131 -79q-64 0 -110 39t-46 119q0 82 52 126.5
t132 44.5q47 0 95 -15v11q0 68 -22.5 99t-65.5 31q-66 0 -95 -68l-73 42q20 53 65.5 83t108.5 30q82 0 130.5 -50.5zM320 192q-43 15 -79 15q-46 0 -72.5 -23.5t-26.5 -67.5q0 -40 21 -59.5t53 -19.5q43 0 73.5 32t30.5 89v34z" />
    <glyph glyph-name="uni1EA4" unicode="&#x1ea4;" horiz-adv-x="608" 
d="M362 850l52 83h108l-78 -83h-82zM262 836h77l103 -84h-93l-48 40l-49 -40h-93zM345 699l248 -733h-113l-61 196h-241l-58 -196h-105l241 733h89zM391 253l-95 302l-91 -302h186z" />
    <glyph glyph-name="uni1EA5" unicode="&#x1ea5;" horiz-adv-x="472" 
d="M338 873h104l-82 -139h-78zM288 556l-52 84l-53 -84h-88l103 157h76l103 -157h-89zM368.5 446.5q48.5 -50.5 48.5 -150.5v-330h-84l-3 37q0 11 -2 31q-41 -79 -131 -79q-64 0 -110 39t-46 119q0 82 52 126.5t132 44.5q47 0 95 -15v11q0 68 -22.5 99t-65.5 31
q-66 0 -95 -68l-73 42q20 53 65.5 83t108.5 30q82 0 130.5 -50.5zM320 192q-43 15 -79 15q-46 0 -72.5 -23.5t-26.5 -67.5q0 -40 21 -59.5t53 -19.5q43 0 73.5 32t30.5 89v34z" />
    <glyph glyph-name="uni1EA6" unicode="&#x1ea6;" horiz-adv-x="608" 
d="M378 933l53 -83h-82l-78 83h107zM349 752l-48 40l-49 -40h-93l103 84h77l103 -84h-93zM15 -34l241 733h89l248 -733h-113l-61 196h-241l-58 -196h-105zM391 253l-95 302l-91 -302h186z" />
    <glyph glyph-name="uni1EA7" unicode="&#x1ea7;" horiz-adv-x="472" 
d="M317 873l57 -139h-78l-83 139h104zM288 556l-52 84l-53 -84h-88l103 157h76l103 -157h-89zM368.5 446.5q48.5 -50.5 48.5 -150.5v-330h-84l-3 37q0 11 -2 31q-41 -79 -131 -79q-64 0 -110 39t-46 119q0 82 52 126.5t132 44.5q47 0 95 -15v11q0 68 -22.5 99t-65.5 31
q-66 0 -95 -68l-73 42q20 53 65.5 83t108.5 30q82 0 130.5 -50.5zM320 192q-43 15 -79 15q-46 0 -72.5 -23.5t-26.5 -67.5q0 -40 21 -59.5t53 -19.5q43 0 73.5 32t30.5 89v34z" />
    <glyph glyph-name="uni1EA8" unicode="&#x1ea8;" horiz-adv-x="608" 
d="M309 933q40 14 85 14q34 0 59.5 -11.5t25.5 -35.5q0 -42 -88 -65l-31 34q23 4 36 9.5t13 11.5q0 10 -31 10q-27 0 -57 -8zM262 836h77l103 -84h-93l-48 40l-49 -40h-93zM345 699l248 -733h-113l-61 196h-241l-58 -196h-105l241 733h89zM391 253l-95 302l-91 -302h186z
" />
    <glyph glyph-name="uni1EA9" unicode="&#x1ea9;" horiz-adv-x="472" 
d="M263 809l-11 62q17 11 39 17t44 6q37 0 61 -23.5t24 -67.5q0 -41 -24.5 -69.5t-63.5 -43.5l-34 52q47 20 47 52q0 34 -32 34q-25 0 -50 -19zM288 556l-52 84l-53 -84h-88l103 157h76l103 -157h-89zM368.5 446.5q48.5 -50.5 48.5 -150.5v-330h-84l-3 37q0 11 -2 31
q-41 -79 -131 -79q-64 0 -110 39t-46 119q0 82 52 126.5t132 44.5q47 0 95 -15v11q0 68 -22.5 99t-65.5 31q-66 0 -95 -68l-73 42q20 53 65.5 83t108.5 30q82 0 130.5 -50.5zM320 192q-43 15 -79 15q-46 0 -72.5 -23.5t-26.5 -67.5q0 -40 21 -59.5t53 -19.5q43 0 73.5 32
t30.5 89v34z" />
    <glyph glyph-name="uni1EAA" unicode="&#x1eaa;" horiz-adv-x="608" 
d="M232 857h-67q3 34 25.5 52.5t60.5 18.5q33 0 69 -15q22 -8 28 -8q22 0 26 22h67q-3 -33 -25.5 -52t-59.5 -19q-20 0 -36 4.5t-34 11.5q-22 8 -28 8q-21 0 -26 -23zM349 752l-48 40l-49 -40h-93l103 84h77l103 -84h-93zM15 -34l241 733h89l248 -733h-113l-61 196h-241
l-58 -196h-105zM391 253l-95 302l-91 -302h186z" />
    <glyph glyph-name="uni1EAB" unicode="&#x1eab;" horiz-adv-x="472" 
d="M165 756h-68q3 57 26 88.5t62 31.5q20 0 35.5 -9t33.5 -25q3 -2 12.5 -9.5t16.5 -7.5q11 0 17.5 14t8.5 36h68q-3 -57 -25.5 -89t-61.5 -32q-20 0 -35.5 8t-34.5 23q-20 16 -29 16q-21 0 -26 -45zM289 556l-52 85l-53 -85h-89l103 157h77l103 -157h-89zM368.5 446.5
q48.5 -50.5 48.5 -150.5v-330h-84l-3 37q0 11 -2 31q-41 -79 -131 -79q-64 0 -110 39t-46 119q0 82 52 126.5t132 44.5q47 0 95 -15v11q0 68 -22.5 99t-65.5 31q-66 0 -95 -68l-73 42q20 53 65.5 83t108.5 30q82 0 130.5 -50.5zM320 192q-43 15 -79 15q-46 0 -72.5 -23.5
t-26.5 -67.5q0 -40 21 -59.5t53 -19.5q43 0 73.5 32t30.5 89v34z" />
    <glyph glyph-name="uni1EAC" unicode="&#x1eac;" horiz-adv-x="608" 
d="M262 914h77l103 -142h-89l-52 75l-53 -75h-89zM345 699l248 -733h-113l-61 196h-241l-58 -196h-105l241 733h89zM391 253l-95 302l-91 -302h186zM255 -207.5q-19 18.5 -19 43.5t19 43.5t45 18.5q28 0 47 -18t19 -44q0 -25 -19.5 -43.5t-46.5 -18.5q-26 0 -45 18.5z" />
    <glyph glyph-name="uni1EAD" unicode="&#x1ead;" horiz-adv-x="472" 
d="M288 556l-52 84l-53 -84h-88l103 157h76l103 -157h-89zM368.5 446.5q48.5 -50.5 48.5 -150.5v-330h-84l-3 37q0 11 -2 31q-41 -79 -131 -79q-64 0 -110 39t-46 119q0 82 52 126.5t132 44.5q47 0 95 -15v11q0 68 -22.5 99t-65.5 31q-66 0 -95 -68l-73 42q20 53 65.5 83
t108.5 30q82 0 130.5 -50.5zM320 192q-43 15 -79 15q-46 0 -72.5 -23.5t-26.5 -67.5q0 -40 21 -59.5t53 -19.5q43 0 73.5 32t30.5 89v34zM282 -120q19 -18 19 -44q0 -25 -19 -43.5t-46 -18.5t-46 18.5t-19 43.5q0 26 19 44t46 18t46 -18z" />
    <glyph glyph-name="uni1EAE" unicode="&#x1eae;" horiz-adv-x="608" 
d="M267 859l52 82h108l-79 -82h-81zM203 775.5q-36 23.5 -36 60.5h85q3 -32 49 -32q47 0 50 32h85q0 -37 -36 -60.5t-99 -23.5q-62 0 -98 23.5zM345 699l248 -733h-113l-61 196h-241l-58 -196h-105l241 733h89zM391 253l-95 302l-91 -302h186z" />
    <glyph glyph-name="uni1EAF" unicode="&#x1eaf;" horiz-adv-x="472" 
d="M249 875h103l-82 -139h-78zM139.5 597q-35.5 42 -35.5 116h85q2 -42 13 -63.5t36 -21.5t36.5 21.5t13.5 63.5h85q0 -74 -35.5 -116t-99.5 -42q-63 0 -98.5 42zM368.5 446.5q48.5 -50.5 48.5 -150.5v-330h-84l-3 37q0 11 -2 31q-41 -79 -131 -79q-64 0 -110 39t-46 119
q0 82 52 126.5t132 44.5q47 0 95 -15v11q0 68 -22.5 99t-65.5 31q-66 0 -95 -68l-73 42q20 53 65.5 83t108.5 30q82 0 130.5 -50.5zM320 192q-43 15 -79 15q-46 0 -72.5 -23.5t-26.5 -67.5q0 -40 21 -59.5t53 -19.5q43 0 73.5 32t30.5 89v34z" />
    <glyph glyph-name="uni1EB0" unicode="&#x1eb0;" horiz-adv-x="608" 
d="M254 859l-79 82h108l52 -82h-81zM252 836q3 -32 49 -32q47 0 50 32h85q0 -37 -36 -60.5t-99 -23.5q-62 0 -98 23.5t-36 60.5h85zM120 -34h-105l241 733h89l248 -733h-113l-61 196h-241zM296 555l-91 -302h186z" />
    <glyph glyph-name="uni1EB1" unicode="&#x1eb1;" horiz-adv-x="472" 
d="M227 875l57 -139h-78l-82 139h103zM139.5 597q-35.5 42 -35.5 116h85q2 -42 13 -63.5t36 -21.5t36.5 21.5t13.5 63.5h85q0 -74 -35.5 -116t-99.5 -42q-63 0 -98.5 42zM368.5 446.5q48.5 -50.5 48.5 -150.5v-330h-84l-3 37q0 11 -2 31q-41 -79 -131 -79q-64 0 -110 39
t-46 119q0 82 52 126.5t132 44.5q47 0 95 -15v11q0 68 -22.5 99t-65.5 31q-66 0 -95 -68l-73 42q20 53 65.5 83t108.5 30q82 0 130.5 -50.5zM320 192q-43 15 -79 15q-46 0 -72.5 -23.5t-26.5 -67.5q0 -40 21 -59.5t53 -19.5q43 0 73.5 32t30.5 89v34z" />
    <glyph glyph-name="uni1EB2" unicode="&#x1eb2;" horiz-adv-x="601" 
d="M230 938q36 14 84 14q35 0 60.5 -11.5t25.5 -35.5q0 -42 -89 -65l-31 34q50 10 50 21t-31 11q-23 0 -57 -9zM203 775.5q-36 23.5 -36 60.5h85q3 -32 49 -32q47 0 50 32h85q0 -37 -36 -60.5t-99 -23.5q-62 0 -98 23.5zM345 699l248 -733h-113l-61 196h-241l-58 -196h-105
l241 733h89zM391 253l-95 302l-91 -302h186z" />
    <glyph glyph-name="uni1EB3" unicode="&#x1eb3;" horiz-adv-x="472" 
d="M163 832l-12 64q38 22 85 22q37 0 60.5 -23t23.5 -67q0 -42 -24 -70t-63 -44l-34 53q47 20 47 51q0 15 -8.5 24t-23.5 9q-28 0 -51 -19zM139.5 597q-35.5 42 -35.5 116h85q2 -42 13 -63.5t36 -21.5t36.5 21.5t13.5 63.5h85q0 -74 -35.5 -116t-99.5 -42q-63 0 -98.5 42z
M368.5 446.5q48.5 -50.5 48.5 -150.5v-330h-84l-3 37q0 11 -2 31q-41 -79 -131 -79q-64 0 -110 39t-46 119q0 82 52 126.5t132 44.5q47 0 95 -15v11q0 68 -22.5 99t-65.5 31q-66 0 -95 -68l-73 42q20 53 65.5 83t108.5 30q82 0 130.5 -50.5zM320 192q-43 15 -79 15
q-46 0 -72.5 -23.5t-26.5 -67.5q0 -40 21 -59.5t53 -19.5q43 0 73.5 32t30.5 89v34z" />
    <glyph glyph-name="uni1EB4" unicode="&#x1eb4;" horiz-adv-x="608" 
d="M163 866q3 34 25.5 52.5t60.5 18.5q20 0 35.5 -4.5t33.5 -11.5q22 -8 28 -8q22 0 26 23h67q-3 -33 -25.5 -52t-59.5 -19q-20 0 -34 3.5t-36 11.5t-28 8q-21 0 -26 -22h-67zM203 775.5q-36 23.5 -36 60.5h85q3 -32 49 -32q47 0 50 32h85q0 -37 -36 -60.5t-99 -23.5
q-62 0 -98 23.5zM345 699l248 -733h-113l-61 196h-241l-58 -196h-105l241 733h89zM391 253l-95 302l-91 -302h186z" />
    <glyph glyph-name="uni1EB5" unicode="&#x1eb5;" horiz-adv-x="472" 
d="M167 752h-67q3 56 26 88.5t60 32.5q20 0 35.5 -9t33.5 -25q8 -7 15.5 -12t12.5 -5q22 0 26 49h67q-3 -57 -25.5 -89t-60.5 -32q-20 0 -35.5 8.5t-33.5 23.5q-20 16 -28 16q-21 0 -26 -46zM274.5 649.5q11.5 21.5 13.5 63.5h85q0 -74 -35.5 -116t-99.5 -42q-63 0 -98.5 42
t-35.5 116h85q2 -42 13 -63.5t36 -21.5t36.5 21.5zM368.5 446.5q48.5 -50.5 48.5 -150.5v-330h-84l-3 37q0 11 -2 31q-41 -79 -131 -79q-64 0 -110 39t-46 119q0 82 52 126.5t132 44.5q47 0 95 -15v11q0 68 -22.5 99t-65.5 31q-66 0 -95 -68l-73 42q20 53 65.5 83t108.5 30
q82 0 130.5 -50.5zM320 192q-43 15 -79 15q-46 0 -72.5 -23.5t-26.5 -67.5q0 -40 21 -59.5t53 -19.5q43 0 73.5 32t30.5 89v34z" />
    <glyph glyph-name="uni1EB6" unicode="&#x1eb6;" horiz-adv-x="608" 
d="M203 811.5q-36 39.5 -36 102.5h85q3 -75 49 -75q47 0 50 75h85q0 -63 -36 -102.5t-99 -39.5q-62 0 -98 39.5zM345 699l248 -733h-113l-61 196h-241l-58 -196h-105l241 733h89zM391 253l-95 302l-91 -302h186zM255 -207.5q-19 18.5 -19 43.5t19 43.5t45 18.5q28 0 47 -18
t19 -44q0 -25 -19.5 -43.5t-46.5 -18.5q-26 0 -45 18.5z" />
    <glyph glyph-name="uni1EB7" unicode="&#x1eb7;" horiz-adv-x="472" 
d="M139.5 597q-35.5 42 -35.5 116h85q2 -42 13 -63.5t36 -21.5t36.5 21.5t13.5 63.5h85q0 -74 -35.5 -116t-99.5 -42q-63 0 -98.5 42zM368.5 446.5q48.5 -50.5 48.5 -150.5v-330h-84l-3 37q0 11 -2 31q-41 -79 -131 -79q-64 0 -110 39t-46 119q0 82 52 126.5t132 44.5
q47 0 95 -15v11q0 68 -22.5 99t-65.5 31q-66 0 -95 -68l-73 42q20 53 65.5 83t108.5 30q82 0 130.5 -50.5zM320 192q-43 15 -79 15q-46 0 -72.5 -23.5t-26.5 -67.5q0 -40 21 -59.5t53 -19.5q43 0 73.5 32t30.5 89v34zM282 -120q19 -18 19 -44q0 -25 -19 -43.5t-46 -18.5
t-46 18.5t-19 43.5q0 26 19 44t46 18t46 -18z" />
    <glyph glyph-name="uni1EB8" unicode="&#x1eb8;" horiz-adv-x="503" 
d="M424 298h-247v-242h285v-90h-388v732h379v-90h-276v-221h247v-89zM220 -207.5q-19 18.5 -19 43.5q0 26 19 44t46 18t46 -18t19 -44q0 -25 -19.5 -43.5t-45.5 -18.5q-27 0 -46 18.5z" />
    <glyph glyph-name="uni1EB9" unicode="&#x1eb9;" horiz-adv-x="460" 
d="M384 433.5q50 -63.5 50 -169.5q0 -33 -4 -61h-291q4 -83 34.5 -121.5t80.5 -38.5q64 0 90 67l74 -43q-18 -57 -64 -84.5t-106 -27.5q-95 0 -153 67.5t-58 201.5q0 91 28 152.5t75.5 91t105.5 29.5q88 0 138 -63.5zM176.5 379q-27.5 -32 -34.5 -98h194q-1 64 -26 97
t-66 33q-40 0 -67.5 -32zM205 -207.5q-19 18.5 -19 43.5q0 26 19 44t46 18t46 -18t19 -44q0 -25 -19.5 -43.5t-45.5 -18.5q-27 0 -46 18.5z" />
    <glyph glyph-name="uni1EBA" unicode="&#x1eba;" horiz-adv-x="503" 
d="M178 914q17 11 39.5 17t44.5 6q35 0 60.5 -19.5t25.5 -59.5t-25.5 -67.5t-63.5 -43.5l-33 52q21 9 34 22t13 27q0 11 -8.5 16.5t-21.5 5.5q-27 0 -53 -18zM424 298h-247v-242h285v-90h-388v732h379v-90h-276v-221h247v-89z" />
    <glyph glyph-name="uni1EBB" unicode="&#x1ebb;" horiz-adv-x="460" 
d="M158 715q17 10 39.5 16t45.5 6q37 0 60.5 -23t23.5 -67q0 -42 -24.5 -70t-63.5 -44l-33 53q46 20 46 51q0 33 -32 33q-27 0 -50 -19zM384 433.5q50 -63.5 50 -169.5q0 -33 -4 -61h-291q4 -83 34.5 -121.5t80.5 -38.5q64 0 90 67l74 -43q-18 -57 -64 -84.5t-106 -27.5
q-95 0 -153 67.5t-58 201.5q0 91 28 152.5t75.5 91t105.5 29.5q88 0 138 -63.5zM176.5 379q-27.5 -32 -34.5 -98h194q-1 64 -26 97t-66 33q-40 0 -67.5 -32z" />
    <glyph glyph-name="uni1EBC" unicode="&#x1ebc;" horiz-adv-x="503" 
d="M127 785q3 57 25.5 89t60.5 32q20 0 35.5 -9t33.5 -25q8 -7 15.5 -12t12.5 -5q22 0 26 49h67q-3 -57 -25.5 -89t-59.5 -32q-20 0 -36 8.5t-34 23.5q-20 16 -28 16q-21 0 -26 -46h-67zM424 298h-247v-242h285v-90h-388v732h379v-90h-276v-221h247v-89z" />
    <glyph glyph-name="uni1EBD" unicode="&#x1ebd;" horiz-adv-x="460" 
d="M107 571q3 56 26 88.5t60 32.5q20 0 35.5 -9t33.5 -25q8 -7 15.5 -12t12.5 -5q11 0 17.5 14t8.5 35h67q-3 -57 -25.5 -89t-60.5 -32q-20 0 -35.5 8.5t-33.5 23.5q-20 16 -28 16q-21 0 -26 -46h-67zM384 433.5q50 -63.5 50 -169.5q0 -33 -4 -61h-291q4 -83 34.5 -121.5
t80.5 -38.5q64 0 90 67l74 -43q-18 -57 -64 -84.5t-106 -27.5q-95 0 -153 67.5t-58 201.5q0 91 28 152.5t75.5 91t105.5 29.5q88 0 138 -63.5zM176.5 379q-27.5 -32 -34.5 -98h194q-1 64 -26 97t-66 33q-40 0 -67.5 -32z" />
    <glyph glyph-name="uni1EBE" unicode="&#x1ebe;" horiz-adv-x="503" 
d="M326 850l52 83h108l-78 -83h-82zM226 836h77l103 -84h-93l-48 40l-49 -40h-93zM424 298h-247v-242h285v-90h-388v732h379v-90h-276v-221h247v-89z" />
    <glyph glyph-name="uni1EBF" unicode="&#x1ebf;" horiz-adv-x="460" 
d="M345 891h104l-82 -158h-78zM295 555l-52 85l-53 -85h-89l103 158h77l103 -158h-89zM384 433.5q50 -63.5 50 -169.5q0 -33 -4 -61h-291q4 -83 34.5 -121.5t80.5 -38.5q64 0 90 67l74 -43q-18 -57 -64 -84.5t-106 -27.5q-95 0 -153 67.5t-58 201.5q0 91 28 152.5t75.5 91
t105.5 29.5q88 0 138 -63.5zM336 281q-1 64 -26 97t-66 33q-40 0 -67.5 -32t-34.5 -98h194z" />
    <glyph glyph-name="uni1EC0" unicode="&#x1ec0;" horiz-adv-x="503" 
d="M342 933l53 -83h-82l-78 83h107zM313 752l-48 40l-49 -40h-93l103 84h77l103 -84h-93zM424 298h-247v-242h285v-90h-388v732h379v-90h-276v-221h247v-89z" />
    <glyph glyph-name="uni1EC1" unicode="&#x1ec1;" horiz-adv-x="460" 
d="M324 891l56 -158h-77l-83 158h104zM295 555l-52 85l-53 -85h-89l103 158h77l103 -158h-89zM384 433.5q50 -63.5 50 -169.5q0 -33 -4 -61h-291q4 -83 34.5 -121.5t80.5 -38.5q64 0 90 67l74 -43q-18 -57 -64 -84.5t-106 -27.5q-95 0 -153 67.5t-58 201.5q0 91 28 152.5
t75.5 91t105.5 29.5q88 0 138 -63.5zM336 281q-1 64 -26 97t-66 33q-40 0 -67.5 -32t-34.5 -98h194z" />
    <glyph glyph-name="uni1EC2" unicode="&#x1ec2;" horiz-adv-x="503" 
d="M273 933q40 14 85 14q34 0 59.5 -11.5t25.5 -35.5q0 -42 -88 -65l-31 34q23 4 36 9.5t13 11.5q0 10 -31 10q-27 0 -57 -8zM226 836h77l103 -84h-93l-48 40l-49 -40h-93zM424 298h-247v-242h285v-90h-388v732h379v-90h-276v-221h247v-89z" />
    <glyph glyph-name="uni1EC3" unicode="&#x1ec3;" horiz-adv-x="460" 
d="M270 808l-12 62q17 11 39.5 17t44.5 6q37 0 60.5 -23.5t23.5 -67.5q0 -41 -24.5 -69.5t-62.5 -43.5l-34 52q47 22 47 52q0 16 -8 25t-24 9q-25 0 -50 -19zM295 555l-52 85l-53 -85h-89l103 158h77l103 -158h-89zM384 433.5q50 -63.5 50 -169.5q0 -33 -4 -61h-291
q4 -83 34.5 -121.5t80.5 -38.5q64 0 90 67l74 -43q-18 -57 -64 -84.5t-106 -27.5q-95 0 -153 67.5t-58 201.5q0 91 28 152.5t75.5 91t105.5 29.5q88 0 138 -63.5zM336 281q-1 64 -26 97t-66 33q-40 0 -67.5 -32t-34.5 -98h194z" />
    <glyph glyph-name="uni1EC4" unicode="&#x1ec4;" horiz-adv-x="503" 
d="M196 857h-67q3 34 25.5 52.5t60.5 18.5q33 0 69 -15q22 -8 28 -8q22 0 26 22h67q-3 -33 -25.5 -52t-59.5 -19q-20 0 -36 4.5t-34 11.5q-22 8 -28 8q-21 0 -26 -23zM313 752l-48 40l-49 -40h-93l103 84h77l103 -84h-93zM424 298h-247v-242h285v-90h-388v732h379v-90h-276
v-221h247v-89z" />
    <glyph glyph-name="uni1EC5" unicode="&#x1ec5;" horiz-adv-x="460" 
d="M172 755h-68q3 56 26 88t61 32q21 0 36.5 -9t33.5 -25q8 -7 15.5 -12t12.5 -5q21 0 27 50h68q-3 -57 -26 -89t-61 -32q-20 0 -35.5 8.5t-35.5 23.5q-20 16 -28 16q-21 0 -26 -46zM296 555l-52 85l-53 -85h-89l103 158h77l103 -158h-89zM384 433.5q50 -63.5 50 -169.5
q0 -33 -4 -61h-291q4 -83 34.5 -121.5t80.5 -38.5q64 0 90 67l74 -43q-18 -57 -64 -84.5t-106 -27.5q-95 0 -153 67.5t-58 201.5q0 91 28 152.5t75.5 91t105.5 29.5q88 0 138 -63.5zM336 281q-1 64 -26 97t-66 33q-40 0 -67.5 -32t-34.5 -98h194z" />
    <glyph glyph-name="uni1EC6" unicode="&#x1ec6;" horiz-adv-x="503" 
d="M226 914h77l103 -142h-89l-52 75l-53 -75h-89zM424 298h-247v-242h285v-90h-388v732h379v-90h-276v-221h247v-89zM220 -207.5q-19 18.5 -19 43.5q0 26 19 44t46 18t46 -18t19 -44q0 -25 -19.5 -43.5t-45.5 -18.5q-27 0 -46 18.5z" />
    <glyph glyph-name="uni1EC7" unicode="&#x1ec7;" horiz-adv-x="460" 
d="M204 713h77l103 -158h-89l-52 84l-53 -84h-89zM384 433.5q50 -63.5 50 -169.5q0 -33 -4 -61h-291q4 -83 34.5 -121.5t80.5 -38.5q64 0 90 67l74 -43q-18 -57 -64 -84.5t-106 -27.5q-95 0 -153 67.5t-58 201.5q0 91 28 152.5t75.5 91t105.5 29.5q88 0 138 -63.5z
M176.5 379q-27.5 -32 -34.5 -98h194q-1 64 -26 97t-66 33q-40 0 -67.5 -32zM205 -207.5q-19 18.5 -19 43.5q0 26 19 44t46 18t46 -18t19 -44q0 -25 -19.5 -43.5t-45.5 -18.5q-27 0 -46 18.5z" />
    <glyph glyph-name="uni1EC8" unicode="&#x1ec8;" horiz-adv-x="250" 
d="M38 914q17 11 40 17t45 6q34 0 59.5 -19.5t25.5 -59.5t-25 -67.5t-63 -43.5l-34 52q22 9 34.5 22t12.5 27q0 22 -30 22q-26 0 -53 -18zM177 -34h-103v732h103v-732z" />
    <glyph glyph-name="uni1EC9" unicode="&#x1ec9;" horiz-adv-x="222" 
d="M24 715q39 23 85 23q37 0 61 -23t24 -67q0 -42 -24.5 -70.5t-63.5 -43.5l-34 52q47 22 47 52q0 33 -32 33q-25 0 -51 -19zM160 -34h-98v519h98v-519z" />
    <glyph glyph-name="uni1ECA" unicode="&#x1eca;" horiz-adv-x="250" 
d="M177 -34h-103v732h103v-732zM80 -207.5q-19 18.5 -19 43.5t19 43.5t45 18.5q28 0 47 -18t19 -44q0 -25 -19.5 -43.5t-46.5 -18.5q-26 0 -45 18.5z" />
    <glyph glyph-name="uni1ECB" unicode="&#x1ecb;" horiz-adv-x="222" 
d="M68 592q-18 19 -18 45q0 25 18 44t42 19q25 0 43.5 -19t18.5 -44q0 -26 -18.5 -45t-43.5 -19q-24 0 -42 19zM160 -34h-98v519h98v-519zM65.5 -207.5q-18.5 18.5 -18.5 43.5q0 26 18.5 44t45.5 18t46.5 -18.5t19.5 -43.5t-19.5 -43.5t-46.5 -18.5t-45.5 18.5z" />
    <glyph glyph-name="uni1ECC" unicode="&#x1ecc;" horiz-adv-x="640" 
d="M121 615.5q72 94.5 199 94.5q128 0 199.5 -95t71.5 -282q0 -188 -71.5 -283t-199.5 -95t-199.5 94.5t-71.5 283.5q0 188 72 282.5zM199.5 120q41.5 -71 120.5 -71q161 0 161 284q0 142 -41 213t-120 71t-120.5 -71t-41.5 -213t41.5 -213zM274.5 -207.5
q-18.5 18.5 -18.5 43.5q0 26 18.5 44t45.5 18t46.5 -18.5t19.5 -43.5t-19.5 -43.5t-46.5 -18.5t-45.5 18.5z" />
    <glyph glyph-name="uni1ECD" unicode="&#x1ecd;" horiz-adv-x="500" 
d="M65.5 377q28.5 61 77 90.5t108.5 29.5t108 -29t76 -90t28 -152t-28 -152t-76 -90t-108 -29t-108.5 29t-77 90t-28.5 152q0 90 28.5 151zM171.5 88.5q30.5 -44.5 79.5 -44.5q48 0 78 45t30 137q0 93 -29.5 137t-78.5 44t-79.5 -44t-30.5 -137t30.5 -137.5zM205 -207.5
q-19 18.5 -19 43.5q0 26 19 44t46 18t46.5 -18.5t19.5 -43.5t-19.5 -43.5t-46.5 -18.5t-46 18.5z" />
    <glyph glyph-name="uni1ECE" unicode="&#x1ece;" horiz-adv-x="640" 
d="M233 914q17 11 40 17t45 6q34 0 59.5 -19.5t25.5 -59.5t-25.5 -67.5t-63.5 -43.5l-33 52q22 9 34.5 22t12.5 27q0 22 -30 22q-27 0 -53 -18zM121 615.5q72 94.5 199 94.5q128 0 199.5 -95t71.5 -282q0 -188 -71.5 -283t-199.5 -95t-199.5 94.5t-71.5 283.5
q0 188 72 282.5zM199.5 120q41.5 -71 120.5 -71q161 0 161 284q0 142 -41 213t-120 71t-120.5 -71t-41.5 -213t41.5 -213z" />
    <glyph glyph-name="uni1ECF" unicode="&#x1ecf;" horiz-adv-x="500" 
d="M164 715q38 22 85 22q37 0 61 -23t24 -67q0 -42 -24.5 -70t-63.5 -44l-34 53q47 20 47 51q0 33 -32 33q-27 0 -51 -19zM65.5 377q28.5 61 77 90.5t108.5 29.5t108 -29t76 -90t28 -152t-28 -152t-76 -90t-108 -29t-108.5 29t-77 90t-28.5 152q0 90 28.5 151zM171.5 88.5
q30.5 -44.5 79.5 -44.5q48 0 78 45t30 137q0 93 -29.5 137t-78.5 44t-79.5 -44t-30.5 -137t30.5 -137.5z" />
    <glyph glyph-name="uni1ED0" unicode="&#x1ed0;" horiz-adv-x="640" 
d="M381 850l53 83h108l-79 -83h-82zM282 836h76l103 -84h-93l-48 40l-48 -40h-93zM121 615.5q72 94.5 199 94.5q128 0 199.5 -95t71.5 -282q0 -188 -71.5 -283t-199.5 -95t-199.5 94.5t-71.5 283.5q0 188 72 282.5zM199.5 120q41.5 -71 120.5 -71q161 0 161 284
q0 142 -41 213t-120 71t-120.5 -71t-41.5 -213t41.5 -213z" />
    <glyph glyph-name="uni1ED1" unicode="&#x1ed1;" horiz-adv-x="500" 
d="M352 872h103l-82 -139h-78zM302 555l-53 84l-53 -84h-88l103 158h76l103 -158h-88zM359 468q48 -29 76 -90t28 -152t-28 -152t-76 -90t-108 -29t-108.5 29t-77 90t-28.5 152q0 90 28.5 151t77 90.5t108.5 29.5t108 -29zM329 89q30 45 30 137q0 93 -29.5 137t-78.5 44
t-79.5 -44t-30.5 -137t30.5 -137.5t79.5 -44.5q48 0 78 45z" />
    <glyph glyph-name="uni1ED2" unicode="&#x1ed2;" horiz-adv-x="640" 
d="M398 933l52 -83h-82l-78 83h108zM368 752l-48 40l-48 -40h-93l103 84h76l103 -84h-93zM121 615.5q72 94.5 199 94.5q128 0 199.5 -95t71.5 -282q0 -188 -71.5 -283t-199.5 -95t-199.5 94.5t-71.5 283.5q0 188 72 282.5zM199.5 120q41.5 -71 120.5 -71q161 0 161 284
q0 142 -41 213t-120 71t-120.5 -71t-41.5 -213t41.5 -213z" />
    <glyph glyph-name="uni1ED3" unicode="&#x1ed3;" horiz-adv-x="500" 
d="M330 872l57 -139h-78l-82 139h103zM302 555l-53 84l-53 -84h-88l103 158h76l103 -158h-88zM359 468q48 -29 76 -90t28 -152t-28 -152t-76 -90t-108 -29t-108.5 29t-77 90t-28.5 152q0 90 28.5 151t77 90.5t108.5 29.5t108 -29zM329 89q30 45 30 137q0 93 -29.5 137
t-78.5 44t-79.5 -44t-30.5 -137t30.5 -137.5t79.5 -44.5q48 0 78 45z" />
    <glyph glyph-name="uni1ED4" unicode="&#x1ed4;" horiz-adv-x="640" 
d="M328 933q40 14 85 14q34 0 59.5 -11.5t25.5 -35.5q0 -42 -88 -65l-31 34q23 4 36 9.5t13 11.5q0 10 -31 10q-27 0 -57 -8zM282 836h76l103 -84h-93l-48 40l-48 -40h-93zM121 615.5q72 94.5 199 94.5q128 0 199.5 -95t71.5 -282q0 -188 -71.5 -283t-199.5 -95t-199.5 94.5
t-71.5 283.5q0 188 72 282.5zM199.5 120q41.5 -71 120.5 -71q161 0 161 284q0 142 -41 213t-120 71t-120.5 -71t-41.5 -213t41.5 -213z" />
    <glyph glyph-name="uni1ED5" unicode="&#x1ed5;" horiz-adv-x="500" 
d="M276 808l-11 62q17 11 39.5 17t43.5 6q37 0 61 -23.5t24 -67.5q0 -41 -24.5 -69.5t-63.5 -43.5l-33 52q46 22 46 52q0 34 -32 34q-25 0 -50 -19zM302 555l-53 84l-53 -84h-88l103 158h76l103 -158h-88zM359 468q48 -29 76 -90t28 -152t-28 -152t-76 -90t-108 -29
t-108.5 29t-77 90t-28.5 152q0 90 28.5 151t77 90.5t108.5 29.5t108 -29zM329 89q30 45 30 137q0 93 -29.5 137t-78.5 44t-79.5 -44t-30.5 -137t30.5 -137.5t79.5 -44.5q48 0 78 45z" />
    <glyph glyph-name="uni1ED6" unicode="&#x1ed6;" horiz-adv-x="640" 
d="M251 857h-67q3 34 25.5 52.5t60.5 18.5q20 0 34 -3.5t36 -11.5q18 -8 27 -8q22 0 26 22h67q-3 -33 -25.5 -52t-59.5 -19q-20 0 -35.5 4.5t-33.5 11.5q-4 1 -13.5 4.5t-15.5 3.5q-21 0 -26 -23zM368 752l-48 40l-48 -40h-93l103 84h76l103 -84h-93zM121 615.5
q72 94.5 199 94.5q128 0 199.5 -95t71.5 -282q0 -188 -71.5 -283t-199.5 -95t-199.5 94.5t-71.5 283.5q0 188 72 282.5zM199.5 120q41.5 -71 120.5 -71q161 0 161 284q0 142 -41 213t-120 71t-120.5 -71t-41.5 -213t41.5 -213z" />
    <glyph glyph-name="uni1ED7" unicode="&#x1ed7;" horiz-adv-x="500" 
d="M178 755h-68q3 57 26 88.5t62 31.5q21 0 36.5 -9t33.5 -25q8 -7 15.5 -12t12.5 -5q22 0 26 50h68q-3 -57 -25.5 -89t-61.5 -32q-20 0 -35.5 8.5t-33.5 23.5q-8 6 -16 11t-13 5q-20 0 -27 -46zM302 555l-52 84l-53 -84h-88l103 158h76l103 -158h-89zM359 468
q48 -29 76 -90t28 -152t-28 -152t-76 -90t-108 -29t-108.5 29t-77 90t-28.5 152q0 90 28.5 151t77 90.5t108.5 29.5t108 -29zM329 89q30 45 30 137q0 93 -29.5 137t-78.5 44t-79.5 -44t-30.5 -137t30.5 -137.5t79.5 -44.5q48 0 78 45z" />
    <glyph glyph-name="uni1ED8" unicode="&#x1ed8;" horiz-adv-x="640" 
d="M282 914h76l103 -142h-89l-52 75l-53 -75h-88zM121 615.5q72 94.5 199 94.5q128 0 199.5 -95t71.5 -282q0 -188 -71.5 -283t-199.5 -95t-199.5 94.5t-71.5 283.5q0 188 72 282.5zM199.5 120q41.5 -71 120.5 -71q161 0 161 284q0 142 -41 213t-120 71t-120.5 -71
t-41.5 -213t41.5 -213zM274.5 -207.5q-18.5 18.5 -18.5 43.5q0 26 18.5 44t45.5 18t46.5 -18.5t19.5 -43.5t-19.5 -43.5t-46.5 -18.5t-45.5 18.5z" />
    <glyph glyph-name="uni1ED9" unicode="&#x1ed9;" horiz-adv-x="500" 
d="M211 713h76l103 -158h-88l-53 84l-53 -84h-88zM65.5 377q28.5 61 77 90.5t108.5 29.5t108 -29t76 -90t28 -152t-28 -152t-76 -90t-108 -29t-108.5 29t-77 90t-28.5 152q0 90 28.5 151zM171.5 88.5q30.5 -44.5 79.5 -44.5q48 0 78 45t30 137q0 93 -29.5 137t-78.5 44
t-79.5 -44t-30.5 -137t30.5 -137.5zM205 -207.5q-19 18.5 -19 43.5q0 26 19 44t46 18t46.5 -18.5t19.5 -43.5t-19.5 -43.5t-46.5 -18.5t-46 18.5z" />
    <glyph glyph-name="uni1EDA" unicode="&#x1eda;" horiz-adv-x="639" 
d="M339 915h104l-82 -142h-78zM591 333q0 -187 -72 -282.5t-199 -95.5t-199 94.5t-72 283.5q0 188 73.5 282.5t206.5 94.5q33 0 79 -6q32 -5 51 -5q29 0 41.5 14.5t12.5 53.5q0 27 -6 58h86q6 -34 6 -65q0 -72 -25.5 -101t-76.5 -33q94 -91 94 -293zM481 333q0 142 -41 213
t-120 71t-120.5 -71t-41.5 -213t41.5 -213t120.5 -71q161 0 161 284z" />
    <glyph glyph-name="uni1EDB" unicode="&#x1edb;" horiz-adv-x="505" 
d="M258 713h104l-82 -157h-78zM470 448.5q-23 -27.5 -67 -32.5q57 -67 57 -190q0 -91 -28.5 -152t-76 -90t-106.5 -29q-60 0 -108 29t-76 90t-28 152q0 90 29.5 151t80 90.5t112.5 29.5q33 0 71 -8q26 -4 34 -4q20 0 31 13.5t11 52.5q0 26 -5 61h87q5 -38 5 -67
q0 -69 -23 -96.5zM328.5 93.5q28.5 46.5 28.5 132.5t-28 132t-80 46q-49 0 -79 -47t-30 -131q0 -85 30 -132t79 -47q51 0 79.5 46.5z" />
    <glyph glyph-name="uni1EDC" unicode="&#x1edc;" horiz-adv-x="639" 
d="M295 915l57 -142h-78l-83 142h104zM591 333q0 -187 -72 -282.5t-199 -95.5t-199 94.5t-72 283.5q0 188 73.5 282.5t206.5 94.5q33 0 79 -6q32 -5 51 -5q29 0 41.5 14.5t12.5 53.5q0 27 -6 58h86q6 -34 6 -65q0 -72 -25.5 -101t-76.5 -33q94 -91 94 -293zM481 333
q0 142 -41 213t-120 71t-120.5 -71t-41.5 -213t41.5 -213t120.5 -71q161 0 161 284z" />
    <glyph glyph-name="uni1EDD" unicode="&#x1edd;" horiz-adv-x="505" 
d="M237 713l56 -157h-77l-83 157h104zM470 448.5q-23 -27.5 -67 -32.5q57 -67 57 -190q0 -91 -28.5 -152t-76 -90t-106.5 -29q-60 0 -108 29t-76 90t-28 152q0 90 29.5 151t80 90.5t112.5 29.5q33 0 71 -8q26 -4 34 -4q20 0 31 13.5t11 52.5q0 26 -5 61h87q5 -38 5 -67
q0 -69 -23 -96.5zM328.5 93.5q28.5 46.5 28.5 132.5t-28 132t-80 46q-49 0 -79 -47t-30 -131q0 -85 30 -132t79 -47q51 0 79.5 46.5z" />
    <glyph glyph-name="uni1EDE" unicode="&#x1ede;" horiz-adv-x="639" 
d="M242 853l-12 62q17 10 40 16t45 6q35 0 60 -19t25 -59t-25.5 -67.5t-63.5 -43.5l-33 52q22 9 34.5 21.5t12.5 26.5q0 23 -30 23q-27 0 -53 -18zM591 333q0 -187 -72 -282.5t-199 -95.5t-199 94.5t-72 283.5q0 188 73.5 282.5t206.5 94.5q33 0 79 -6q32 -5 51 -5
q29 0 41.5 14.5t12.5 53.5q0 27 -6 58h86q6 -34 6 -65q0 -72 -25.5 -101t-76.5 -33q94 -91 94 -293zM481 333q0 142 -41 213t-120 71t-120.5 -71t-41.5 -213t41.5 -213t120.5 -71q161 0 161 284z" />
    <glyph glyph-name="uni1EDF" unicode="&#x1edf;" horiz-adv-x="505" 
d="M173 652l-12 63q17 11 39.5 17t44.5 6q37 0 61 -23t24 -67q0 -42 -24.5 -70.5t-63.5 -43.5l-33 52q46 22 46 52q0 33 -32 33q-25 0 -50 -19zM470 448.5q-23 -27.5 -67 -32.5q57 -67 57 -190q0 -91 -28.5 -152t-76 -90t-106.5 -29q-60 0 -108 29t-76 90t-28 152
q0 90 29.5 151t80 90.5t112.5 29.5q33 0 71 -8q26 -4 34 -4q20 0 31 13.5t11 52.5q0 26 -5 61h87q5 -38 5 -67q0 -69 -23 -96.5zM328.5 93.5q28.5 46.5 28.5 132.5t-28 132t-80 46q-49 0 -79 -47t-30 -131q0 -85 30 -132t79 -47q51 0 79.5 46.5z" />
    <glyph glyph-name="uni1EE0" unicode="&#x1ee0;" horiz-adv-x="639" 
d="M246 786h-67q3 56 26 88.5t60 32.5q21 0 36.5 -9t33.5 -25q3 -2 11.5 -9.5t15.5 -7.5q22 0 26 49h67q-3 -57 -25.5 -89t-59.5 -32q-20 0 -35.5 8.5t-33.5 23.5q-8 6 -16 11t-13 5q-21 0 -26 -46zM591 333q0 -187 -72 -282.5t-199 -95.5t-199 94.5t-72 283.5
q0 188 73.5 282.5t206.5 94.5q33 0 79 -6q32 -5 51 -5q29 0 41.5 14.5t12.5 53.5q0 27 -6 58h86q6 -34 6 -65q0 -72 -25.5 -101t-76.5 -33q94 -91 94 -293zM481 333q0 142 -41 213t-120 71t-120.5 -71t-41.5 -213t41.5 -213t120.5 -71q161 0 161 284z" />
    <glyph glyph-name="uni1EE1" unicode="&#x1ee1;" horiz-adv-x="505" 
d="M177 572h-67q3 57 25.5 88.5t60.5 31.5q20 0 36 -9t33 -24q8 -7 15.5 -12t12.5 -5q21 0 25 49h67q-3 -57 -25 -89t-60 -32q-20 0 -36 8.5t-33 22.5q-20 16 -28 16q-21 0 -26 -45zM470 448.5q-23 -27.5 -67 -32.5q57 -67 57 -190q0 -91 -28.5 -152t-76 -90t-106.5 -29
q-60 0 -108 29t-76 90t-28 152q0 90 29.5 151t80 90.5t112.5 29.5q33 0 71 -8q26 -4 34 -4q20 0 31 13.5t11 52.5q0 26 -5 61h87q5 -38 5 -67q0 -69 -23 -96.5zM328.5 93.5q28.5 46.5 28.5 132.5t-28 132t-80 46q-49 0 -79 -47t-30 -131q0 -85 30 -132t79 -47
q51 0 79.5 46.5z" />
    <glyph glyph-name="uni1EE2" unicode="&#x1ee2;" horiz-adv-x="639" 
d="M591 333q0 -187 -72 -282.5t-199 -95.5t-199 94.5t-72 283.5q0 188 73.5 282.5t206.5 94.5q33 0 79 -6q32 -5 51 -5q29 0 41.5 14.5t12.5 53.5q0 27 -6 58h86q6 -34 6 -65q0 -72 -25.5 -101t-76.5 -33q94 -91 94 -293zM481 333q0 142 -41 213t-120 71t-120.5 -71
t-41.5 -213t41.5 -213t120.5 -71q161 0 161 284zM366 -120q19 -18 19 -44q0 -25 -19.5 -43.5t-45.5 -18.5q-27 0 -46 18.5t-19 43.5q0 26 19 44t46 18t46 -18z" />
    <glyph glyph-name="uni1EE3" unicode="&#x1ee3;" horiz-adv-x="505" 
d="M470 448.5q-23 -27.5 -67 -32.5q57 -67 57 -190q0 -91 -28.5 -152t-76 -90t-106.5 -29q-60 0 -108 29t-76 90t-28 152q0 90 29.5 151t80 90.5t112.5 29.5q33 0 71 -8q26 -4 34 -4q20 0 31 13.5t11 52.5q0 26 -5 61h87q5 -38 5 -67q0 -69 -23 -96.5zM328.5 93.5
q28.5 46.5 28.5 132.5t-28 132t-80 46q-49 0 -79 -47t-30 -131q0 -85 30 -132t79 -47q51 0 79.5 46.5zM295 -120q19 -18 19 -44q0 -25 -19 -43.5t-46 -18.5t-46 18.5t-19 43.5q0 26 19 44t46 18t46 -18z" />
    <glyph glyph-name="uni1EE4" unicode="&#x1ee4;" horiz-adv-x="625" 
d="M455 698h103v-449q0 -294 -245 -294q-246 0 -246 294v449h103v-431q0 -115 37 -166.5t107 -51.5q68 0 104.5 51.5t36.5 166.5v431zM267 -208.5q-19 18.5 -19 43.5t19 43.5t46 18.5t46 -18.5t19 -43.5t-19 -43.5t-46 -18.5t-46 18.5z" />
    <glyph glyph-name="uni1EE5" unicode="&#x1ee5;" horiz-adv-x="501" 
d="M341 486h98v-520h-86l-3 39q0 14 -2 36q-22 -43 -58 -64.5t-81 -21.5q-71 0 -112.5 51t-41.5 153v327h98v-296q0 -71 20.5 -106t64.5 -35q45 0 74 35.5t29 108.5v293zM193 -207.5q-19 18.5 -19 43.5q0 26 19 44t46 18t46.5 -18.5t19.5 -43.5t-19.5 -43.5t-46.5 -18.5
t-46 18.5z" />
    <glyph glyph-name="uni1EE6" unicode="&#x1ee6;" horiz-adv-x="625" 
d="M225 915q18 10 40.5 16t44.5 6q35 0 60 -19t25 -59t-25 -67.5t-63 -43.5l-33 52q21 10 34 22t13 26q0 23 -31 23q-26 0 -53 -18zM455 698h103v-449q0 -294 -245 -294q-246 0 -246 294v449h103v-431q0 -115 37 -166.5t107 -51.5q68 0 104.5 51.5t36.5 166.5v431z" />
    <glyph glyph-name="uni1EE7" unicode="&#x1ee7;" horiz-adv-x="501" 
d="M160 716q38 22 85 22q37 0 61 -23t24 -67q0 -42 -24.5 -70t-63.5 -44l-34 53q47 20 47 51q0 33 -32 33q-27 0 -51 -19zM341 486h98v-520h-86l-3 39q0 14 -2 36q-22 -43 -58 -64.5t-81 -21.5q-71 0 -112.5 51t-41.5 153v327h98v-296q0 -71 20.5 -106t64.5 -35
q45 0 74 35.5t29 108.5v293z" />
    </font>
</defs>
</svg>
