<?xml version="1.0" standalone="no"?>
<!DOCTYPE svg PUBLIC "-//W3C//DTD SVG 1.1//EN" "http://www.w3.org/Graphics/SVG/1.1/DTD/svg11.dtd" >
<svg xmlns="http://www.w3.org/2000/svg" xmlns:xlink="http://www.w3.org/1999/xlink" version="1.1">
<metadata>
Created by FontForge 20170731 at Fri May 28 14:24:03 2021
 By Aleksey,,,
Copyright 2021 Huawei Device Co., Ltd. All Rights Reserved.
</metadata>
<defs>
<font id="HarmonyOS_Sans_Condensed" horiz-adv-x="474" >
  <font-face 
    font-family="HarmonyOS Sans Condensed"
    font-weight="400"
    font-stretch="normal"
    units-per-em="1000"
    panose-1="0 0 5 0 0 0 0 0 0 0"
    ascent="800"
    descent="-200"
    x-height="485"
    cap-height="698"
    bbox="-412 -244 1231 973"
    underline-thickness="50"
    underline-position="-150"
    unicode-range="U+0020-301E"
  />
<missing-glyph horiz-adv-x="500" 
d="M93 850h317v-1000h-317v1000zM333 750v33h-165v-33h65v-37h-66v-33h166v33h-66v37h66zM267 584v70h-100v-104h166v34h-66zM200 620h33v-36h-33v36zM333 490v33h-166v-33h66v-37h-66v-33h100v70h66zM333 363v100h-33v-66h-133v-34h166zM333 228v113h-100v-56h34v23h33v-47
h-100v80h-33v-113h166zM333 55v113h-166v-113h166zM200 135h100v-47h-100v47zM333 -1v33h-166v-33h70l-70 -47v-33h166v33h-102l70 47h32z" />
    <glyph glyph-name="f_b.liga" unicode="fb" horiz-adv-x="814" 
d="M192 634q-18 -28 -18 -97v-51h110v-69h-110v-451h-82v451h-73v69h73v53q0 103 40.5 151t104.5 48q33 0 59 -13v-78q-22 15 -49 15q-37 0 -55 -28zM675 467q45 -30 71.5 -91t26.5 -150q0 -90 -26.5 -151t-71.5 -90.5t-100 -29.5q-98 0 -137 91q-2 -25 -3.5 -48t-1.5 -32
h-72v761h82v-310q41 80 132 80q55 0 100 -30zM654.5 79.5q32.5 48.5 32.5 146.5q0 97 -32.5 145.5t-88.5 48.5q-52 0 -87.5 -44t-35.5 -150q0 -107 35.5 -151t87.5 -44q56 0 88.5 48.5z" />
    <glyph glyph-name="f_f.liga" unicode="ff" horiz-adv-x="569" 
d="M465.5 634q-17.5 -28 -17.5 -97v-51h110v-69h-110v-451h-82v451h-192v-451h-82v451h-73v69h73v53q0 103 42 151t107 48q31 0 54.5 -10.5t32.5 -22.5l-37 -63q-18 20 -49 20q-33 0 -50.5 -28t-17.5 -97v-51h192v53q0 103 42 151t107 48q32 0 55.5 -11t35.5 -26l-37 -62
q-23 23 -53 23q-33 0 -50.5 -28z" />
    <glyph glyph-name="f_f_b.liga" unicode="ffb" horiz-adv-x="1088" 
d="M366 539q0 103 40.5 151t104.5 48q33 0 59 -13v-78q-22 15 -49 15q-37 0 -55 -28t-18 -97v-51h110v-69h-110v-451h-82v451h-192v-451h-82v451h-73v69h73v53q0 103 42 151t107 48q31 0 54.5 -10.5t32.5 -22.5l-37 -63q-18 20 -49 20q-33 0 -50.5 -28t-17.5 -97v-51h192v53
zM949 467q45 -30 71.5 -91t26.5 -150q0 -90 -26.5 -151t-71.5 -90.5t-100 -29.5q-98 0 -137 91q-2 -25 -3.5 -48t-1.5 -32h-72v761h82v-310q41 80 132 80q55 0 100 -30zM928.5 79.5q32.5 48.5 32.5 146.5q0 97 -32.5 145.5t-88.5 48.5q-52 0 -87.5 -44t-35.5 -150
q0 -107 35.5 -151t87.5 -44q56 0 88.5 48.5z" />
    <glyph glyph-name="f_f_h.liga" unicode="ffh" horiz-adv-x="1066" 
d="M366 539q0 103 40.5 151t104.5 48q33 0 59 -13v-78q-22 15 -49 15q-37 0 -55 -28t-18 -97v-51h110v-69h-110v-451h-82v451h-192v-451h-82v451h-73v69h73v53q0 103 42 151t107 48q31 0 54.5 -10.5t32.5 -22.5l-37 -63q-18 20 -49 20q-33 0 -50.5 -28t-17.5 -97v-51h192v53
zM964.5 445.5q42.5 -51.5 42.5 -151.5v-328h-82v305q0 75 -22.5 112t-70.5 37q-49 0 -82 -38t-33 -113v-303h-82v761h82v-306q22 38 56.5 57t77.5 19q71 0 113.5 -51.5z" />
    <glyph glyph-name="f_f_i.liga" unicode="ffi" horiz-adv-x="783" 
d="M366 539q0 103 40.5 151t103.5 48q40 0 60 -15v-75q-24 14 -47 14q-37 0 -56 -28t-19 -97v-51h110v-69h-110v-451h-82v451h-192v-451h-82v451h-73v69h73v53q0 103 42 151t107 48q31 0 54.5 -10.5t32.5 -22.5l-37 -63q-18 20 -49 20q-33 0 -50.5 -28t-17.5 -97v-51h192v53
zM638.5 597.5q-15.5 16.5 -15.5 39.5q0 22 15.5 39t36.5 17q22 0 38 -16.5t16 -39.5q0 -22 -16 -39t-38 -17q-21 0 -36.5 16.5zM717 485v-519h-82v519h82z" />
    <glyph glyph-name="f_f_k.liga" unicode="ffk" horiz-adv-x="1029" 
d="M366 539q0 103 40.5 151t104.5 48q33 0 59 -13v-78q-22 15 -49 15q-37 0 -55 -28t-18 -97v-51h110v-69h-110v-451h-82v451h-192v-451h-82v451h-73v69h73v53q0 103 42 151t107 48q31 0 54.5 -10.5t32.5 -22.5l-37 -63q-18 20 -49 20q-33 0 -50.5 -28t-17.5 -97v-51h192v53
zM1012 485l-165 -213l184 -306h-103l-137 232l-74 -95v-137h-82v761h82v-384v-128q29 41 95 128l107 142h93z" />
    <glyph glyph-name="f_f_l.liga" unicode="ffl" horiz-adv-x="783" 
d="M366 539q0 103 40.5 151t104.5 48q33 0 59 -13v-78q-22 15 -49 15q-37 0 -55 -28t-18 -97v-51h110v-69h-110v-451h-82v451h-192v-451h-82v451h-73v69h73v53q0 103 42 151t107 48q31 0 54.5 -10.5t32.5 -22.5l-37 -63q-18 20 -49 20q-33 0 -50.5 -28t-17.5 -97v-51h192v53
zM717 -34h-82v761h82v-761z" />
    <glyph glyph-name="f_h.liga" unicode="fh" horiz-adv-x="792" 
d="M192 634q-18 -28 -18 -97v-51h110v-69h-110v-451h-82v451h-73v69h73v53q0 103 40.5 151t104.5 48q33 0 59 -13v-78q-22 15 -49 15q-37 0 -55 -28zM690.5 445.5q42.5 -51.5 42.5 -151.5v-328h-82v305q0 75 -22.5 112t-70.5 37q-49 0 -82 -38t-33 -113v-303h-82v761h82
v-306q22 38 56.5 57t77.5 19q71 0 113.5 -51.5z" />
    <glyph glyph-name="f_i.liga" unicode="fi" horiz-adv-x="509" 
d="M193 634q-19 -28 -19 -97v-51h110v-69h-110v-451h-82v451h-73v69h73v53q0 103 40.5 151t103.5 48q40 0 60 -15v-75q-24 14 -47 14q-37 0 -56 -28zM364.5 597.5q-15.5 16.5 -15.5 39.5q0 22 15.5 39t36.5 17q22 0 38 -16.5t16 -39.5q0 -22 -16 -39t-38 -17
q-21 0 -36.5 16.5zM443 485v-519h-82v519h82z" />
    <glyph glyph-name="f_k.liga" unicode="fk" horiz-adv-x="755" 
d="M192 634q-18 -28 -18 -97v-51h110v-69h-110v-451h-82v451h-73v69h73v53q0 103 40.5 151t104.5 48q33 0 59 -13v-78q-22 15 -49 15q-37 0 -55 -28zM573 272l184 -306h-103l-137 232l-74 -95v-137h-82v761h82v-384v-128q29 41 95 128l107 142h93z" />
    <glyph glyph-name="f_l.liga" unicode="fl" horiz-adv-x="509" 
d="M192 634q-18 -28 -18 -97v-51h110v-69h-110v-451h-82v451h-73v69h73v53q0 103 40.5 151t104.5 48q33 0 59 -13v-78q-22 15 -49 15q-37 0 -55 -28zM443 727v-761h-82v761h82z" />
    <glyph glyph-name="r_f.liga" unicode="rf" horiz-adv-x="613" 
d="M509.5 634q-17.5 -28 -17.5 -97v-51h110v-69h-110v-451h-82v451h-73v69h73v53q0 103 42 151t107 48q32 0 55.5 -11t35.5 -26l-37 -62q-23 23 -53 23q-33 0 -50.5 -28zM299 489v-77q-19 9 -40 9q-48 0 -79.5 -43t-31.5 -124v-288h-82v519h72q3 -59 4 -71q18 41 47 62
t66 21q25 0 44 -8z" />
    <glyph glyph-name="r_t.liga" unicode="rt" horiz-adv-x="645" 
d="M639 -12q-37 -33 -96 -33t-98.5 39t-39.5 137v285h-73v70h73v145h82v-145h126v-70h-126v-275q0 -60 16.5 -85t49.5 -25t55 21zM299 489v-77q-19 9 -40 9q-48 0 -79.5 -43t-31.5 -124v-288h-82v519h72q3 -59 4 -71q18 41 47 62t66 21q25 0 44 -8z" />
    <glyph glyph-name="r_v.liga" unicode="rv" horiz-adv-x="771" 
d="M294 489v-77q-19 9 -40 9q-46 0 -76 -43t-30 -124v-288h-82v519h72q3 -57 4 -71q36 83 108 83q25 0 44 -8zM333 485h93l129 -392l120 392h85l-176 -519h-68z" />
    <glyph glyph-name="r_x.liga" unicode="rx" horiz-adv-x="746" 
d="M294 489v-77q-19 9 -40 9q-46 0 -76 -43t-30 -124v-288h-82v519h72q3 -57 4 -71q36 83 108 83q25 0 44 -8zM423 485l110 -187l109 187h93l-161 -256l161 -263h-96l-110 189l-109 -189h-93l161 258l-161 261h96z" />
    <glyph glyph-name="r_y.liga" unicode="ry" horiz-adv-x="778" 
d="M294 489v-77q-19 9 -40 9q-46 0 -76 -43t-30 -124v-288h-82v519h72q3 -57 4 -71q36 83 108 83q25 0 44 -8zM560 80l121 405h86l-187 -575q-25 -78 -60.5 -116t-93.5 -38q-53 0 -86 31l32 65q24 -19 55 -19t49.5 20.5t35.5 75.5l7 23l-185 533h94z" />
    <glyph glyph-name=".notdef" horiz-adv-x="500" 
d="M93 850h317v-1000h-317v1000zM333 750v33h-165v-33h65v-37h-66v-33h166v33h-66v37h66zM267 584v70h-100v-104h166v34h-66zM200 620h33v-36h-33v36zM333 490v33h-166v-33h66v-37h-66v-33h100v70h66zM333 363v100h-33v-66h-133v-34h166zM333 228v113h-100v-56h34v23h33v-47
h-100v80h-33v-113h166zM333 55v113h-166v-113h166zM200 135h100v-47h-100v47zM333 -1v33h-166v-33h70l-70 -47v-33h166v33h-102l70 47h32z" />
    <glyph glyph-name=".null" horiz-adv-x="0" 
 />
    <glyph glyph-name="nonmarkingreturn" horiz-adv-x="333" 
 />
    <glyph glyph-name="space" unicode=" " horiz-adv-x="230" 
 />
    <glyph glyph-name="exclam" unicode="!" horiz-adv-x="195" 
d="M65 172l-13 553h89l-13 -553h-63zM57.5 -28q-16.5 17 -16.5 40q0 24 16.5 41t39.5 17q24 0 40.5 -17t16.5 -41q0 -23 -16.5 -40t-40.5 -17q-23 0 -39.5 17z" />
    <glyph glyph-name="quotedbl" unicode="&#x22;" horiz-adv-x="322" 
d="M60 524l-4 245h71l-4 -245h-63zM198 524l-3 245h71l-4 -245h-64z" />
    <glyph glyph-name="numbersign" unicode="#" horiz-adv-x="543" 
d="M450 539h82v-78h-97l-40 -219h83v-78h-98l-37 -201h-82l37 201h-122l-37 -201h-82l37 201h-83v78h98l40 219h-83v78h98l37 202h82l-37 -202h122l37 202h82zM231 461l-40 -219h122l40 219h-122z" />
    <glyph glyph-name="dollar" unicode="$" 
d="M409.5 25q-47.5 -56 -122.5 -67v-134h-75v134q-71 12 -123.5 63t-69.5 129l71 42q19 -66 48 -104.5t74 -49.5v264q-54 23 -89 45t-58.5 60.5t-23.5 97.5q0 85 48.5 138t122.5 64v126h75v-127q63 -12 107.5 -57t55.5 -103l-72 -42q-13 46 -34 77.5t-57 44.5v-265
q54 -23 88.5 -45.5t58 -60.5t23.5 -96q0 -78 -47.5 -134zM150.5 443.5q21.5 -27.5 61.5 -48.5v235q-41 -9 -62 -39.5t-21 -77.5q0 -42 21.5 -69.5zM287 36q42 9 62 39t20 75q0 42 -21.5 69.5t-60.5 48.5v-232z" />
    <glyph glyph-name="percent" unicode="%" horiz-adv-x="708" 
d="M274 407q-43 -46 -108 -46q-42 0 -76.5 20.5t-54.5 59.5t-20 94q0 82 43 128.5t108 46.5t108 -46.5t43 -128.5t-43 -128zM122 -34l376 733h88l-376 -733h-88zM214.5 607.5q-19.5 25.5 -48.5 25.5q-30 0 -49 -25t-19 -73q0 -47 19 -72t49 -25t49 25t19 72t-19.5 72.5z
M650 1q-43 -46 -108 -46q-42 0 -76.5 20.5t-54.5 59.5t-20 94q0 82 43 128.5t108 46.5t108 -46.5t43 -128.5t-43 -128zM590.5 201.5q-19.5 25.5 -48.5 25.5q-30 0 -49 -25t-19 -73q0 -47 19 -72t49 -25t49 25t19 72t-19.5 72.5z" />
    <glyph glyph-name="ampersand" unicode="&#x26;" horiz-adv-x="571" 
d="M588 -34h-109l-63 86q-76 -97 -193 -97q-88 0 -139.5 52.5t-51.5 148.5q0 84 37 137.5t102 97.5q-33 48 -49.5 89t-16.5 87q0 54 22.5 92.5t59.5 58.5t82 20q70 0 112 -46t42 -117q0 -46 -19 -81t-48 -59.5t-75 -55.5l126 -169q30 84 39 190h86q-18 -162 -68 -268z
M202.5 508q10.5 -31 36.5 -71q48 33 72.5 64t24.5 74q0 37 -18.5 61.5t-52.5 24.5q-32 0 -52.5 -23t-20.5 -70q0 -29 10.5 -60zM366 122l-152 210q-45 -35 -69.5 -76t-24.5 -98q0 -62 29.5 -94t77.5 -32q82 0 139 90z" />
    <glyph glyph-name="quotesingle" unicode="'" horiz-adv-x="183" 
d="M60 524l-4 245h71l-4 -245h-63z" />
    <glyph glyph-name="parenleft" unicode="(" horiz-adv-x="326" 
d="M107 578.5q44 119.5 120 202.5h83q-76 -98 -116.5 -211.5t-40.5 -251.5q0 -140 41 -253.5t116 -209.5h-83q-76 83 -120 202.5t-44 260.5t44 260.5z" />
    <glyph glyph-name="parenright" unicode=")" horiz-adv-x="277" 
d="M170 57.5q-44 -119.5 -120 -202.5h-83q75 96 116 209.5t41 253.5q0 138 -40.5 251.5t-116.5 211.5h83q76 -83 120 -202.5t44 -260.5t-44 -260.5z" />
    <glyph glyph-name="asterisk" unicode="*" horiz-adv-x="416" 
d="M235 560l116 78l37 -64l-125 -62l125 -61l-37 -64l-116 78l10 -139h-74l10 139l-116 -78l-37 64l125 61l-125 62l37 64l116 -78l-10 139h74z" />
    <glyph glyph-name="plus" unicode="+" 
d="M275 536v-170h170v-76h-170v-170h-76v170h-170v76h170v170h76z" />
    <glyph glyph-name="comma" unicode="," horiz-adv-x="201" 
d="M152 45.5q18 -22.5 18 -69.5q0 -68 -35.5 -112t-93.5 -55v47q68 21 72 97q-3 -1 -9 -1q-25 0 -39.5 17t-14.5 41t15.5 41t39.5 17q29 0 47 -22.5z" />
    <glyph glyph-name="hyphen" unicode="-" horiz-adv-x="386" 
d="M47 232v72h292v-72h-292z" />
    <glyph glyph-name="period" unicode="." horiz-adv-x="191" 
d="M55.5 -30.5q-16.5 17.5 -16.5 40.5q0 24 16.5 41t39.5 17q24 0 40.5 -17t16.5 -41t-16.5 -41t-40.5 -17q-23 0 -39.5 17.5z" />
    <glyph glyph-name="slash" unicode="/" horiz-adv-x="343" 
d="M9 -34l239 732h86l-239 -732h-86z" />
    <glyph glyph-name="zero" unicode="0" 
d="M387 43.5q-51 -88.5 -150 -88.5q-98 0 -149.5 89t-51.5 288q0 200 51 289.5t150 89.5t150 -89t51 -290q0 -200 -51 -288.5zM153 103.5q27 -72.5 84 -72.5t84 71.5t27 229.5q0 159 -27 231.5t-84 72.5t-84 -73t-27 -231q0 -156 27 -228.5z" />
    <glyph glyph-name="one" unicode="1" 
d="M77 476v93l188 130h65v-733h-86v623z" />
    <glyph glyph-name="two" unicode="2" 
d="M158 42h277v-76h-397v53l186 268q60 86 81 131t21 94q0 60 -25 91.5t-70 31.5q-89 0 -120 -130l-70 33q17 84 69 128t125 44q82 0 131.5 -52.5t49.5 -141.5q0 -62 -26.5 -118t-98.5 -161z" />
    <glyph glyph-name="three" unicode="3" 
d="M399.5 286q30.5 -50 30.5 -119q0 -95 -53 -153.5t-145 -58.5q-74 0 -126.5 38t-71.5 116l68 38q13 -56 48.5 -86.5t81.5 -30.5q50 0 79.5 38t29.5 100q0 68 -36 106t-107 38h-37v74h43q55 0 82.5 37.5t27.5 94.5q0 53 -24 85t-65 32q-43 0 -72 -31.5t-42 -88.5l-67 38
q19 77 66.5 117t118.5 40q84 0 129.5 -52.5t45.5 -131.5q0 -56 -23 -101t-70 -68q58 -21 88.5 -71z" />
    <glyph glyph-name="four" unicode="4" 
d="M375 409v-202h99v-76h-99v-165h-84v165h-278v57l241 510h89l-231 -491h179v202h84z" />
    <glyph glyph-name="five" unicode="5" 
d="M341 399q44 -29 68 -82t24 -122q0 -71 -26.5 -125.5t-72.5 -84.5t-105 -30q-65 0 -114 36t-70 106l68 39q16 -52 46 -79t70 -27q53 0 84 44.5t31 117.5q0 71 -30.5 117t-85.5 46q-37 0 -66 -22t-47 -57l-57 27l42 396h304v-76h-233l-25 -222q40 27 93 27q58 0 102 -29z
" />
    <glyph glyph-name="six" unicode="6" 
d="M361.5 388.5q42.5 -30.5 65.5 -83t23 -117.5q0 -69 -26 -122t-73.5 -82t-108.5 -29q-62 0 -109 29.5t-72 82.5t-25 124q0 63 18.5 112.5t62.5 132.5l140 262h92l-143 -266q-10 -16 -15 -28q30 15 71 15q57 0 99.5 -30.5zM328.5 72.5q31.5 42.5 31.5 113.5t-31 114t-86 43
q-56 0 -87 -43t-31 -114q0 -72 31 -114t86 -42t86.5 42.5z" />
    <glyph glyph-name="seven" unicode="7" 
d="M339 623h-300v76h397v-50l-226 -682h-92z" />
    <glyph glyph-name="eight" unicode="8" 
d="M56 288.5q30 49.5 82 74.5q-42 22 -66.5 63.5t-24.5 95.5t24 96.5t67.5 67t100.5 24.5q56 0 98.5 -24t65.5 -67t23 -97q0 -55 -23.5 -96t-64.5 -63q51 -25 80.5 -74.5t29.5 -118.5q0 -64 -26 -113t-73.5 -75.5t-109.5 -26.5q-63 0 -111.5 26.5t-75 75.5t-26.5 113
q0 69 30 118.5zM163.5 432q28.5 -33 75.5 -33t75.5 33t28.5 85t-28.5 86t-75.5 34t-75.5 -33.5t-28.5 -86.5q0 -52 28.5 -85zM150 68.5q34 -39.5 89 -39.5q53 0 87 39.5t34 106.5t-33 107.5t-88 40.5q-56 0 -89.5 -40.5t-33.5 -107.5t34 -106.5z" />
    <glyph glyph-name="nine" unicode="9" 
d="M342 681.5q47 -29.5 72 -82.5t25 -124q0 -63 -18.5 -112.5t-62.5 -132.5l-140 -262h-92l143 266q10 16 15 28q-30 -15 -71 -15q-57 0 -99.5 30.5t-65.5 83t-23 117.5q0 69 26 122t73.5 82t108.5 29q62 0 109 -29.5zM319 366q31 43 31 114q0 72 -31 114t-86 42
t-86.5 -42.5t-31.5 -113.5t31 -114t86 -43q56 0 87 43z" />
    <glyph glyph-name="colon" unicode=":" horiz-adv-x="215" 
d="M67.5 398q-16.5 17 -16.5 41t16.5 41t39.5 17q24 0 40.5 -17t16.5 -41t-16.5 -41t-40.5 -17q-23 0 -39.5 17zM67.5 -28q-16.5 17 -16.5 41t16.5 41t39.5 17q24 0 40.5 -17t16.5 -41t-16.5 -41t-40.5 -17q-23 0 -39.5 17z" />
    <glyph glyph-name="semicolon" unicode=";" horiz-adv-x="225" 
d="M77.5 398q-16.5 17 -16.5 41t16.5 41t39.5 17q24 0 40.5 -17t16.5 -41t-16.5 -41t-40.5 -17q-23 0 -39.5 17zM160 45.5q18 -22.5 18 -69.5q0 -68 -35.5 -112t-93.5 -55v47q68 21 72 97q-3 -1 -9 -1q-25 0 -39.5 17t-14.5 41q0 25 15.5 41.5t39.5 16.5q29 0 47 -22.5z" />
    <glyph glyph-name="less" unicode="&#x3c;" 
d="M445 563v-85l-312 -150l312 -150v-85l-416 200v70z" />
    <glyph glyph-name="equal" unicode="=" 
d="M445 395h-416v76h416v-76zM445 186h-416v76h416v-76z" />
    <glyph glyph-name="greater" unicode="&#x3e;" 
d="M341 328l-312 150v85l416 -200v-70l-416 -200v85z" />
    <glyph glyph-name="question" unicode="?" horiz-adv-x="379" 
d="M-6 582q19 73 74.5 113.5t125.5 40.5q77 0 125 -46t48 -124q0 -54 -20.5 -89.5t-60.5 -77.5q-28 -31 -44 -52.5t-27.5 -52.5t-11.5 -72q0 -26 4 -50h-70q-10 44 -10 82q0 57 19.5 93.5t58.5 80.5q33 36 49 63.5t16 67.5q0 47 -23 71.5t-62 24.5q-41 0 -73 -27.5
t-48 -85.5zM140.5 -28q-16.5 17 -16.5 40q0 24 16 41t39 17t39.5 -17t16.5 -41q0 -23 -16.5 -40t-39.5 -17q-22 0 -38.5 17z" />
    <glyph glyph-name="at" unicode="@" horiz-adv-x="785" 
d="M591 688.5q79 -49.5 123.5 -148t44.5 -241.5q0 -121 -35.5 -190.5t-107.5 -69.5q-40 0 -70 22.5t-43 66.5q-19 -45 -51 -66.5t-69 -21.5q-44 0 -82 29t-61 84t-23 130t23 130t61 84t82 29q33 0 62.5 -17.5t48.5 -52.5q3 23 4 59h69v-302q0 -50 14 -74.5t38 -24.5
q66 0 66 179q0 183 -75 276.5t-204 93.5q-88 0 -155 -45t-104 -130.5t-37 -202.5q0 -116 36.5 -200t102.5 -129t153 -45q51 0 92 15t71 41l34 -60q-33 -35 -83.5 -53t-113.5 -18q-108 0 -190.5 54t-129 155.5t-46.5 239.5q0 140 47.5 242.5t131.5 156.5t193 54
q104 0 183 -49.5zM460.5 158.5q28.5 39.5 28.5 124.5q0 84 -28.5 123.5t-68.5 39.5q-42 0 -66.5 -42.5t-24.5 -120.5q0 -79 25 -121.5t66 -42.5q40 0 68.5 39.5z" />
    <glyph glyph-name="A" unicode="A" horiz-adv-x="592" 
d="M328 699l248 -733h-95l-66 209h-248l-63 -209h-88l241 733h71zM391 251l-103 323l-98 -323h201z" />
    <glyph glyph-name="B" unicode="B" horiz-adv-x="556" 
d="M516 172q0 -97 -57 -151.5t-162 -54.5h-219v732h191q61 0 108 -24.5t73.5 -69t26.5 -103.5q0 -53 -21 -90.5t-59 -59.5q119 -40 119 -179zM164 623v-246h93q60 0 94.5 33.5t34.5 90.5q0 56 -34.5 89t-94.5 33h-93zM285 40q68 0 103.5 35t35.5 97t-36 98.5t-103 36.5h-121
v-267h121z" />
    <glyph glyph-name="C" unicode="C" horiz-adv-x="550" 
d="M460 147l69 -41q-25 -77 -75.5 -114t-128.5 -37q-80 0 -141 41.5t-95.5 126.5t-34.5 210t34.5 209.5t96 126t141.5 41.5q77 0 127.5 -37t75.5 -114l-69 -41q-34 114 -136 114q-81 0 -130 -76.5t-49 -222.5t49 -223t130 -77q102 0 136 114z" />
    <glyph glyph-name="D" unicode="D" horiz-adv-x="604" 
d="M253 698q141 0 219 -96t78 -269q0 -175 -77.5 -271t-219.5 -96h-175v732h175zM236 41q111 0 166.5 75t55.5 217q0 141 -56 216t-166 75h-72v-583h72z" />
    <glyph glyph-name="E" unicode="E" horiz-adv-x="504" 
d="M419 307h-255v-266h295v-75h-381v732h372v-75h-286v-241h255v-75z" />
    <glyph glyph-name="F" unicode="F" horiz-adv-x="483" 
d="M78 698h372v-75h-286v-253h255v-75h-255v-329h-86v732z" />
    <glyph glyph-name="G" unicode="G" horiz-adv-x="587" 
d="M335 271v76h205v-292q-29 -44 -79.5 -72t-125.5 -28q-131 0 -206 96.5t-75 287.5q0 121 34.5 204.5t97 125t145.5 41.5q81 0 136 -39.5t71 -111.5l-69 -41q-12 52 -49.5 83t-93.5 31q-86 0 -133.5 -74.5t-47.5 -218.5q0 -151 52 -228.5t143 -77.5q35 0 65 12t49 36v190
h-119z" />
    <glyph glyph-name="H" unicode="H" horiz-adv-x="633" 
d="M164 384h306v314h86v-732h-86v342h-306v-342h-86v732h86v-314z" />
    <glyph glyph-name="I" unicode="I" horiz-adv-x="241" 
d="M164 -34h-86v732h86v-732z" />
    <glyph glyph-name="J" unicode="J" horiz-adv-x="410" 
d="M13 79l70 42q13 -49 35 -68.5t51 -19.5q51 0 67.5 43.5t16.5 115.5v506h86v-515q0 -228 -169 -228q-125 0 -157 124z" />
    <glyph glyph-name="K" unicode="K" horiz-adv-x="575" 
d="M572 -34h-110l-202 361l-96 -123v-238h-86v732h86v-295v-82l70 94l211 283h104l-227 -292z" />
    <glyph glyph-name="L" unicode="L" horiz-adv-x="481" 
d="M78 698h86v-656h285v-76h-371v732z" />
    <glyph glyph-name="M" unicode="M" horiz-adv-x="726" 
d="M581 698h68v-732h-84v533l-177 -337h-49l-178 342v-538h-83v732h73l215 -429z" />
    <glyph glyph-name="N" unicode="N" horiz-adv-x="626" 
d="M149 698l319 -558v558h81v-732h-72l-319 555v-555h-80v732h71z" />
    <glyph glyph-name="O" unicode="O" horiz-adv-x="638" 
d="M123.5 615.5q69.5 94.5 195.5 94.5q127 0 196 -95.5t69 -281.5q0 -187 -69 -282.5t-196 -95.5t-196 94.5t-69 283.5q0 188 69.5 282.5zM189.5 108q44.5 -75 129.5 -75q86 0 129.5 75.5t43.5 224.5t-44 224.5t-129 75.5t-129.5 -75.5t-44.5 -224.5q0 -150 44.5 -225z" />
    <glyph glyph-name="P" unicode="P" horiz-adv-x="515" 
d="M269 698q64 0 113 -28.5t76 -80t27 -117.5t-26.5 -117t-75.5 -79.5t-114 -28.5h-105v-281h-86v732h191zM256 322q38 0 69.5 20t49.5 54t18 76q0 65 -37.5 108.5t-99.5 43.5h-92v-302h92z" />
    <glyph glyph-name="Q" unicode="Q" horiz-adv-x="640" 
d="M646 -186h-117l-149 147q-28 -6 -61 -6q-127 0 -196 94.5t-69 283.5q0 188 69.5 282.5t195.5 94.5q127 0 196 -95.5t69 -281.5q0 -126 -31.5 -210t-90.5 -126zM189.5 108q44.5 -75 129.5 -75q173 0 173 300q0 150 -44 225t-129 75t-129.5 -75.5t-44.5 -224.5
q0 -150 44.5 -225z" />
    <glyph glyph-name="R" unicode="R" horiz-adv-x="542" 
d="M542 -34h-106l-167 302h-2h-103v-302h-86v732h189q63 0 113 -27t77.5 -76t27.5 -113q0 -70 -33.5 -121.5t-91.5 -75.5zM255 342q60 0 98.5 39.5t38.5 100.5t-38 101.5t-99 40.5h-91v-282h91z" />
    <glyph glyph-name="S" unicode="S" horiz-adv-x="490" 
d="M403.5 9q-57.5 -54 -151.5 -54q-86 0 -148 46.5t-81 124.5l70 42q19 -66 60 -100.5t99 -34.5q56 0 86.5 30t30.5 82q0 41 -19.5 69.5t-48.5 47.5t-77 43q-57 29 -92 53t-59.5 64t-24.5 100t27 102.5t72.5 64t100.5 21.5q77 0 130 -40t69 -108l-71 -42q-11 52 -46 82.5
t-85 30.5q-46 0 -75.5 -26.5t-29.5 -74.5q0 -38 18.5 -65t46 -45t75.5 -42q58 -29 94.5 -53.5t61.5 -66.5t25 -104q0 -93 -57.5 -147z" />
    <glyph glyph-name="T" unicode="T" horiz-adv-x="492" 
d="M19 698h454v-75h-184v-657h-86v657h-184v75z" />
    <glyph glyph-name="U" unicode="U" horiz-adv-x="620" 
d="M463 698h86v-452q0 -291 -239 -291t-239 291v452h86v-439q0 -226 154 -226q152 0 152 226v439z" />
    <glyph glyph-name="V" unicode="V" horiz-adv-x="585" 
d="M113 698l188 -599l178 599h90l-235 -732h-73l-245 732h97z" />
    <glyph glyph-name="W" unicode="W" horiz-adv-x="850" 
d="M466 698l147 -593l138 593h83l-187 -733h-74l-147 556l-140 -556h-73l-197 733h91l146 -589l139 589h74z" />
    <glyph glyph-name="X" unicode="X" horiz-adv-x="573" 
d="M548 698l-214 -359l221 -373h-107l-165 292l-167 -292h-98l222 367l-215 365h106l159 -284l158 284h100z" />
    <glyph glyph-name="Y" unicode="Y" horiz-adv-x="539" 
d="M278 370l151 328h94l-205 -423v-309h-86v310l-216 422h102z" />
    <glyph glyph-name="Z" unicode="Z" horiz-adv-x="493" 
d="M455 698v-41l-319 -615h331v-76h-439v42l319 615h-294v75h402z" />
    <glyph glyph-name="bracketleft" unicode="[" horiz-adv-x="324" 
d="M80 781h226v-78h-140v-770h140v-78h-226v926z" />
    <glyph glyph-name="backslash" unicode="\" horiz-adv-x="343" 
d="M9 698h86l239 -732h-86z" />
    <glyph glyph-name="bracketright" unicode="]" horiz-adv-x="324" 
d="M18 703v78h226v-926h-226v78h140v770h-140z" />
    <glyph glyph-name="asciicircum" unicode="^" horiz-adv-x="418" 
d="M209 586l-103 -260h-80l149 373h68l149 -373h-80z" />
    <glyph glyph-name="underscore" unicode="_" horiz-adv-x="324" 
d="M0 -189v72h324v-72h-324z" />
    <glyph glyph-name="grave" unicode="`" horiz-adv-x="302" 
d="M93 713h90l53 -154h-67z" />
    <glyph glyph-name="a" unicode="a" horiz-adv-x="471" 
d="M363.5 447q48.5 -50 48.5 -149v-332h-72q-2 20 -2 35l-2 35q-21 -40 -55 -60.5t-79 -20.5q-64 0 -110.5 39t-46.5 119q0 81 51.5 125.5t132.5 44.5q47 0 101 -17v18q0 73 -24.5 106t-72.5 33q-72 0 -103 -71l-62 35q18 51 62.5 80.5t105.5 29.5q79 0 127.5 -50zM330 198
q-48 17 -91 17q-51 0 -80 -26t-29 -75q0 -45 24 -67t60 -22q48 0 82 35t34 97v41z" />
    <glyph glyph-name="b" unicode="b" horiz-adv-x="519" 
d="M380 467q45 -30 71.5 -91t26.5 -150q0 -90 -26.5 -151t-71.5 -90.5t-100 -29.5q-98 0 -137 91q-2 -25 -3.5 -48t-1.5 -32h-72v761h82v-310q41 80 132 80q55 0 100 -30zM359.5 79.5q32.5 48.5 32.5 146.5q0 97 -32.5 145.5t-88.5 48.5q-52 0 -87.5 -44t-35.5 -150
q0 -107 35.5 -151t87.5 -44q56 0 88.5 48.5z" />
    <glyph glyph-name="c" unicode="c" horiz-adv-x="417" 
d="M303.5 48q24.5 17 37.5 54l64 -38q-17 -57 -58.5 -83t-94.5 -26q-58 0 -105.5 30t-76.5 91t-29 150q0 88 28.5 149.5t76.5 91.5t106 30q54 0 95.5 -26.5t57.5 -82.5l-64 -38q-13 37 -37.5 54t-54.5 17q-53 0 -87.5 -48.5t-34.5 -146.5t34.5 -146.5t87.5 -48.5
q30 0 54.5 17z" />
    <glyph glyph-name="d" unicode="d" horiz-adv-x="519" 
d="M371 727h82v-761h-73l-2 30q0 21 -3 48q-39 -89 -136 -89q-55 0 -100 30t-71.5 91t-26.5 150q0 90 26.5 151t71.5 90.5t100 29.5q91 0 132 -79v309zM335.5 76q35.5 44 35.5 150q0 107 -35.5 151t-87.5 44q-56 0 -88.5 -48.5t-32.5 -146.5q0 -97 32.5 -145.5t88.5 -48.5
q52 0 87.5 44z" />
    <glyph glyph-name="e" unicode="e" horiz-adv-x="459" 
d="M382 434q49 -63 49 -165q0 -31 -4 -58h-300q4 -93 38.5 -137t89.5 -44q70 0 97 71l63 -36q-18 -56 -62.5 -83t-103.5 -27q-95 0 -151.5 68.5t-56.5 200.5q0 90 27 151.5t73.5 91.5t104.5 30q87 0 136 -63zM168.5 387.5q-30.5 -35.5 -38.5 -108.5h217q-1 69 -29 106.5
t-74 37.5q-45 0 -75.5 -35.5z" />
    <glyph glyph-name="f" unicode="f" horiz-adv-x="295" 
d="M191.5 634q-17.5 -28 -17.5 -97v-51h110v-69h-110v-451h-82v451h-73v69h73v53q0 103 42 151t107 48q32 0 55.5 -11t35.5 -26l-37 -62q-23 23 -53 23q-33 0 -50.5 -28z" />
    <glyph glyph-name="g" unicode="g" horiz-adv-x="518" 
d="M453 486v-475q0 -143 -61.5 -199t-147.5 -56q-69 0 -121 33.5t-69 96.5l64 37q18 -49 49.5 -69.5t77.5 -20.5q64 0 95 40.5t31 139.5v22q-41 -80 -132 -80q-55 0 -100 30t-71.5 91t-26.5 150q0 90 26.5 151t71.5 90.5t100 29.5q97 0 136 -88q3 24 5 77h73zM335.5 76
q35.5 44 35.5 150q0 107 -35.5 151t-87.5 44q-56 0 -88.5 -48.5t-32.5 -146.5q0 -97 32.5 -145.5t88.5 -48.5q52 0 87.5 44z" />
    <glyph glyph-name="h" unicode="h" horiz-adv-x="497" 
d="M395.5 445.5q42.5 -51.5 42.5 -151.5v-328h-82v305q0 75 -22.5 112t-70.5 37q-49 0 -82 -38t-33 -113v-303h-82v761h82v-306q22 38 56.5 57t77.5 19q71 0 113.5 -51.5z" />
    <glyph glyph-name="i" unicode="i" horiz-adv-x="214" 
d="M69.5 597.5q-15.5 16.5 -15.5 39.5q0 22 15.5 39t36.5 17q22 0 38 -16.5t16 -39.5q0 -22 -16 -39t-38 -17q-21 0 -36.5 16.5zM148 -34h-82v519h82v-519z" />
    <glyph glyph-name="j" unicode="j" horiz-adv-x="213" 
d="M70 598q-16 17 -16 39t15.5 39t36.5 17t37 -17t16 -39q0 -23 -15.5 -39.5t-37.5 -16.5q-20 0 -36 17zM-37.5 -236.5q-22.5 7.5 -35.5 22.5l31 65q22 -18 49 -18q34 0 46.5 26t12.5 86v540h82v-543q0 -96 -36.5 -141t-101.5 -45q-25 0 -47.5 7.5z" />
    <glyph glyph-name="k" unicode="k" horiz-adv-x="460" 
d="M462 -34h-103l-137 232l-74 -95v-137h-82v761h82v-384v-128q29 41 95 128l107 142h93l-165 -213z" />
    <glyph glyph-name="l" unicode="l" horiz-adv-x="214" 
d="M148 -34h-82v761h82v-761z" />
    <glyph glyph-name="m" unicode="m" horiz-adv-x="723" 
d="M625 447q39 -50 39 -149v-332h-82v305q0 76 -19 112.5t-61 36.5t-69 -38t-27 -113v-303h-82v305q0 76 -19 112.5t-61 36.5t-69 -38t-27 -113v-303h-82v519h72q3 -57 4 -71q20 42 52.5 62.5t72.5 20.5q43 0 75 -24t49 -72q20 48 54.5 72t78.5 24q62 0 101 -50z" />
    <glyph glyph-name="n" unicode="n" horiz-adv-x="497" 
d="M395.5 445.5q42.5 -51.5 42.5 -151.5v-328h-82v305q0 75 -22.5 112t-70.5 37q-49 0 -82 -38t-33 -113v-303h-82v520h72q3 -64 4 -76q22 43 58.5 65t81.5 22q71 0 113.5 -51.5z" />
    <glyph glyph-name="o" unicode="o" horiz-adv-x="500" 
d="M69 376q28 61 75.5 91t106.5 30t106 -29.5t74.5 -90.5t27.5 -151q0 -89 -27.5 -150t-74.5 -91t-106 -30t-106.5 30t-75.5 91t-28 150t28 150zM163 79q34 -48 88 -48t87 48t33 147t-33.5 147t-86.5 48q-54 0 -88 -48t-34 -147t34 -147z" />
    <glyph glyph-name="p" unicode="p" horiz-adv-x="519" 
d="M380 467q45 -30 71.5 -91t26.5 -150q0 -90 -26.5 -151t-71.5 -90.5t-100 -29.5q-91 0 -132 79v-265h-82v716h72q2 -53 5 -79q40 91 137 91q55 0 100 -30zM359.5 79.5q32.5 48.5 32.5 146.5q0 97 -32.5 145.5t-88.5 48.5q-52 0 -87.5 -44t-35.5 -150q0 -107 35.5 -151
t87.5 -44q56 0 88.5 48.5z" />
    <glyph glyph-name="q" unicode="q" horiz-adv-x="519" 
d="M453 485v-716h-82v266q-41 -80 -132 -80q-55 0 -100 30t-71.5 91t-26.5 150q0 90 26.5 151t71.5 90.5t100 29.5q95 0 136 -88q2 23 5 76h73zM335.5 76q35.5 44 35.5 150q0 107 -35.5 151t-87.5 44q-56 0 -88.5 -48.5t-32.5 -146.5q0 -97 32.5 -145.5t88.5 -48.5
q52 0 87.5 44z" />
    <glyph glyph-name="r" unicode="r" horiz-adv-x="332" 
d="M300 489q20 -8 29 -21l-29 -65q-18 17 -46 17q-46 0 -76 -42.5t-30 -123.5v-288h-82v519h72q3 -59 4 -71q18 41 47 62t66 21q25 0 45 -8z" />
    <glyph glyph-name="s" unicode="s" horiz-adv-x="390" 
d="M318.5 -5q-46.5 -40 -117.5 -40q-65 0 -113 34t-62 93l62 35q13 -44 43.5 -66t69.5 -22t58 19.5t19 50.5q0 26 -13.5 44t-33 28.5t-55.5 26.5q-43 19 -68.5 34.5t-44 43.5t-18.5 71q0 69 47.5 109.5t116.5 40.5q56 0 97 -28t53 -83l-62 -35q-11 36 -35.5 54t-56.5 18
q-36 0 -55 -19.5t-19 -48.5q0 -33 23.5 -51.5t72.5 -38.5q44 -19 71.5 -36t47 -47t19.5 -76q0 -71 -46.5 -111z" />
    <glyph glyph-name="t" unicode="t" horiz-adv-x="325" 
d="M319 -12q-37 -33 -96 -33t-98.5 39t-39.5 137v285h-73v70h73v145h82v-145h126v-70h-126v-275q0 -60 16.5 -85t49.5 -25t55 21z" />
    <glyph glyph-name="u" unicode="u" horiz-adv-x="497" 
d="M349 486h82v-520h-72q-3 64 -4 76q-22 -43 -58.5 -65t-81.5 -22q-71 0 -113.5 51.5t-42.5 151.5v328h82v-305q0 -75 22.5 -112t70.5 -37q49 0 82 38t33 113v303z" />
    <glyph glyph-name="v" unicode="v" horiz-adv-x="450" 
d="M104 485l129 -392l120 392h85l-176 -519h-68l-183 519h93z" />
    <glyph glyph-name="w" unicode="w" horiz-adv-x="672" 
d="M374 485l107 -378l101 378h79l-154 -519h-58l-111 354l-107 -354h-59l-161 519h86l108 -378l100 378h69z" />
    <glyph glyph-name="x" unicode="x" horiz-adv-x="431" 
d="M218 298l109 187h93l-161 -256l161 -263h-96l-110 189l-109 -189h-93l161 258l-161 261h96z" />
    <glyph glyph-name="y" unicode="y" horiz-adv-x="452" 
d="M234 80l121 405h86l-187 -575q-25 -78 -60.5 -116t-93.5 -38q-53 0 -86 31l32 65q24 -19 55 -19t49.5 20.5t35.5 75.5l7 23l-185 533h94z" />
    <glyph glyph-name="z" unicode="z" horiz-adv-x="385" 
d="M358 485v-43l-235 -407h246v-69h-344v44l236 407h-217v68h314z" />
    <glyph glyph-name="braceleft" unicode="{" horiz-adv-x="349" 
d="M225 478q0 -71 -21.5 -109.5t-66.5 -50.5q45 -12 66.5 -50.5t21.5 -109.5v-120q0 -56 17 -80.5t61 -24.5h26v-78h-25q-81 0 -124.5 36.5t-43.5 137.5v121q0 48 -10 74.5t-31.5 37t-58.5 10.5v92q38 0 59.5 11t31 37t9.5 74v121q0 93 39 133.5t129 40.5h25v-78h-26
q-39 0 -58.5 -21.5t-19.5 -83.5v-120z" />
    <glyph glyph-name="bar" unicode="|" horiz-adv-x="176" 
d="M51 -145v926h74v-926h-74z" />
    <glyph glyph-name="braceright" unicode="}" horiz-adv-x="349" 
d="M124 598q0 62 -19.5 83.5t-58.5 21.5h-26v78h25q90 0 129 -40.5t39 -133.5v-121q0 -48 9.5 -74t31 -37t59.5 -11v-92q-37 0 -58.5 -10.5t-31.5 -37t-10 -74.5v-121q0 -101 -43.5 -137.5t-124.5 -36.5h-25v78h26q44 0 61 24.5t17 80.5v120q0 71 21.5 109.5t66.5 50.5
q-45 12 -66.5 50.5t-21.5 109.5v120z" />
    <glyph glyph-name="asciitilde" unicode="~" 
d="M25 249q2 72 35.5 120.5t92.5 48.5q33 0 54 -14.5t48 -43.5q20 -23 34 -33.5t33 -10.5q25 0 39 23t20 68h69q-2 -72 -35 -120.5t-92 -48.5q-34 0 -55.5 15t-47.5 44q-20 22 -33.5 32.5t-32.5 10.5q-25 0 -39 -22.5t-20 -68.5h-70z" />
    <glyph glyph-name="uni00A0" unicode="&#xa0;" horiz-adv-x="230" 
 />
    <glyph glyph-name="exclamdown" unicode="&#xa1;" horiz-adv-x="195" 
d="M137.5 522q16.5 -17 16.5 -40q0 -24 -16.5 -41t-40.5 -17q-23 0 -39.5 17t-16.5 41q0 23 16.5 40t39.5 17q24 0 40.5 -17zM141 -231h-89l13 553h63z" />
    <glyph glyph-name="cent" unicode="&#xa2;" 
d="M301 149q56 11 79 69l61 -38q-34 -98 -140 -108v-106h-76v110q-77 16 -122 80.5t-45 175.5t45 175.5t122 80.5v111h76v-107q106 -10 140 -108l-61 -38q-23 58 -79 69v-366zM162 214.5q23 -43.5 63 -58.5v352q-40 -15 -63 -58.5t-23 -117.5t23 -117.5z" />
    <glyph glyph-name="sterling" unicode="&#xa3;" 
d="M221.5 108q-16.5 -40 -45.5 -68h280v-74h-407v61q56 43 80 79t24 90q0 42 -14 90h-93v68h70q-24 74 -24 138q0 103 52 160.5t136 57.5q72 0 119 -42t57 -109l-68 -39q-13 57 -39.5 84.5t-69.5 27.5q-48 0 -74 -33t-26 -103q0 -37 6.5 -69.5t18.5 -72.5h156v-68h-135
q13 -45 13 -88q0 -50 -16.5 -90z" />
    <glyph glyph-name="currency" unicode="&#xa4;" 
d="M392 208l69 -80l-56 -54l-66 76q-46 -32 -102 -32t-102 33l-66 -78l-56 54l70 81q-32 54 -32 125q0 72 32 125l-69 79l55 55l67 -77q44 32 101 32q58 0 102 -32l67 77l55 -55l-68 -81q31 -51 31 -123q0 -71 -32 -125zM314 229.5q30 37.5 30 103.5q0 64 -30.5 102
t-77.5 38q-46 0 -76 -38t-30 -102q0 -66 30 -103.5t76 -37.5q48 0 78 37.5z" />
    <glyph glyph-name="yen" unicode="&#xa5;" 
d="M246 410l138 288h95l-178 -351h132v-69h-146v-77h146v-68h-146v-167h-89v167h-140v68h140v77h-140v69h125l-188 351h105z" />
    <glyph glyph-name="brokenbar" unicode="&#xa6;" horiz-adv-x="176" 
d="M51 414v367h74v-367h-74zM51 -145v367h74v-367h-74z" />
    <glyph glyph-name="section" unicode="&#xa7;" horiz-adv-x="510" 
d="M184.5 474.5q19.5 -24.5 48.5 -39.5t78 -33q56 -21 91.5 -39.5t59.5 -52t24 -86.5q0 -54 -29.5 -95t-79.5 -62q60 -47 60 -130q0 -56 -28.5 -97t-75.5 -62.5t-100 -21.5q-52 0 -94.5 20.5t-69.5 54t-35 71.5l71 39q12 -49 45.5 -80.5t84.5 -31.5q48 0 79 27t31 76
q0 36 -19 60t-47.5 38t-77.5 32q-58 22 -93 40.5t-59.5 52.5t-24.5 88q0 53 29.5 94.5t80.5 62.5q-29 23 -45 53.5t-16 75.5q0 57 29 98t76 62t101 21q77 0 131.5 -41.5t65.5 -104.5l-70 -38q-12 52 -45 81.5t-83 29.5q-49 0 -81 -27t-32 -75q0 -36 19.5 -60.5zM135.5 192
q18.5 -23 46 -36.5t76.5 -31.5q28 -10 42 -16q41 5 67 34t26 73q0 36 -19 59.5t-46.5 37.5t-76.5 32q-8 2 -38 14q-42 -4 -69 -33t-27 -74q0 -36 18.5 -59z" />
    <glyph glyph-name="dieresis" unicode="&#xa8;" horiz-adv-x="348" 
d="M44.5 595q-16.5 17 -16.5 41t16.5 41t39.5 17q24 0 40.5 -17t16.5 -41t-16.5 -41t-40.5 -17q-23 0 -39.5 17zM223.5 595q-16.5 17 -16.5 41t16.5 41t39.5 17q24 0 40.5 -17t16.5 -41t-16.5 -41t-40.5 -17q-23 0 -39.5 17z" />
    <glyph glyph-name="copyright" unicode="&#xa9;" horiz-adv-x="742" 
d="M534 664q72 -46 113 -131.5t41 -200.5t-41 -200t-113 -131t-164 -46q-91 0 -163 46t-112.5 131t-40.5 200t40.5 200.5t112.5 131.5t163 46q92 0 164 -46zM498 59q56 38 87.5 108.5t31.5 164.5q0 95 -31.5 165.5t-87.5 108t-128 37.5q-73 0 -128.5 -38t-86.5 -108
t-31 -165q0 -94 31 -164.5t86.5 -108.5t128.5 -38q72 0 128 38zM313.5 441q-26.5 -37 -26.5 -109t26.5 -109t68.5 -37q49 0 69 52l55 -35q-14 -44 -48 -65.5t-76 -21.5q-45 0 -83.5 25t-61.5 73.5t-23 117.5t23 117.5t61.5 73.5t83.5 25q42 0 76 -21.5t48 -65.5l-55 -35
q-20 52 -69 52q-42 0 -68.5 -37z" />
    <glyph glyph-name="ordfeminine" unicode="&#xaa;" horiz-adv-x="345" 
d="M258.5 669.5q34.5 -37.5 34.5 -104.5v-248h-61q0 18 -3 36q-30 -45 -88 -45q-46 0 -78.5 29t-32.5 87t37.5 91.5t96.5 33.5q29 0 60 -9v15q0 92 -61 92q-48 0 -69 -57l-51 29q13 41 46.5 64.5t77.5 23.5q57 0 91.5 -37.5zM224 482q-30 9 -52 9q-33 0 -50.5 -17.5
t-17.5 -48.5q0 -30 14 -44.5t38 -14.5q30 0 49 22.5t19 68.5v25z" />
    <glyph glyph-name="guillemotleft" unicode="&#xab;" 
d="M269 4h-90l-163 224l163 223h90l-163 -223zM458 4h-90l-163 224l163 223h90l-163 -223z" />
    <glyph glyph-name="logicalnot" unicode="&#xac;" 
d="M369 325h-340v75h416v-271h-76v196z" />
    <glyph glyph-name="uni00AD" unicode="&#xad;" horiz-adv-x="386" 
d="M47 292v72h292v-72h-292z" />
    <glyph glyph-name="registered" unicode="&#xae;" horiz-adv-x="463" 
d="M59.5 610q26.5 46 72 73t99.5 27t99.5 -27t72.5 -73t27 -100t-26.5 -99.5t-72 -72t-100.5 -26.5q-54 0 -99.5 26.5t-72 72t-26.5 99.5t26.5 100zM100.5 433q20.5 -35 55 -55t75.5 -20q42 0 76.5 20.5t55 55.5t20.5 76q0 42 -20 77t-55 55.5t-77 20.5q-41 0 -76 -20.5
t-55 -55.5t-20 -77t20.5 -77zM158 405v214h86q36 0 55 -17.5t19 -47.5q0 -23 -11 -38.5t-31 -22.5l57 -88h-53l-51 84h-25v-84h-46zM238 528q35 0 35 27q0 25 -35 25h-34v-52h34z" />
    <glyph glyph-name="macron" unicode="&#xaf;" horiz-adv-x="320" 
d="M40 599v74h240v-74h-240z" />
    <glyph glyph-name="degree" unicode="&#xb0;" horiz-adv-x="303" 
d="M28 731.5q19 33.5 51.5 52.5t71.5 19q62 0 102.5 -41.5t40.5 -103.5q0 -61 -40.5 -102t-102.5 -41q-39 0 -71.5 19t-51.5 51.5t-19 72.5t19 73.5zM96 599.5q21 -22.5 55 -22.5q35 0 56.5 22.5t21.5 58.5q0 37 -21.5 60t-56.5 23q-34 0 -55 -23t-21 -60q0 -36 21 -58.5z
" />
    <glyph glyph-name="plusminus" unicode="&#xb1;" 
d="M199 595h76v-158h170v-76h-170v-158h-76v158h-170v76h170v158zM445 152v-75h-416v75h416z" />
    <glyph glyph-name="uni00B2" unicode="&#xb2;" horiz-adv-x="269" 
d="M106 498h140v-55h-218v43l105 164q20 32 27.5 49t7.5 37q0 21 -8.5 30.5t-26.5 9.5q-35 0 -54 -62l-50 31q12 45 40 68.5t69 23.5q49 0 72 -28.5t23 -68.5q0 -24 -9.5 -49t-32.5 -61z" />
    <glyph glyph-name="uni00B3" unicode="&#xb3;" horiz-adv-x="270" 
d="M241 555q0 -55 -30 -86t-80 -31q-45 0 -74.5 23t-37.5 65l50 30q14 -63 61 -63q22 0 34 15t12 44q0 64 -66 64h-20v53h21q26 0 40 19t14 47q0 46 -37 46q-39 0 -58 -60l-46 29q11 42 40 64.5t68 22.5q44 0 71 -26.5t27 -72.5q0 -31 -13 -53.5t-35 -35.5q59 -20 59 -94z
" />
    <glyph glyph-name="acute" unicode="&#xb4;" horiz-adv-x="275" 
d="M68 559l53 154h90l-76 -154h-67z" />
    <glyph glyph-name="uni00B5" unicode="&#xb5;" horiz-adv-x="508" 
d="M507 -33q-21 -12 -52 -12q-82 0 -92 93q-37 -93 -127 -93q-55 0 -89 31v-217h-81v717h81v-300q0 -81 23 -118.5t75 -37.5q46 0 78.5 38.5t32.5 119.5v297h80v-391q0 -35 9.5 -49.5t29.5 -14.5q12 0 23 5z" />
    <glyph glyph-name="paragraph" unicode="&#xb6;" horiz-adv-x="511" 
d="M93.5 661q44.5 38 129.5 38h72v-733h-72v430q-85 0 -129.5 37.5t-44.5 113.5t44.5 114zM439 -34h-71v733h71v-733z" />
    <glyph glyph-name="periodcentered" unicode="&#xb7;" horiz-adv-x="231" 
d="M75.5 287.5q-16.5 17.5 -16.5 40.5q0 24 16.5 41t39.5 17q24 0 40.5 -17t16.5 -41t-16.5 -41t-40.5 -17q-23 0 -39.5 17.5z" />
    <glyph glyph-name="cedilla" unicode="&#xb8;" horiz-adv-x="270" 
d="M134 -81q39 -3 68 -21.5t29 -54.5q0 -43 -33 -65t-86 -22q-31 0 -67 9v53q37 -10 61 -10t38 8t14 23q0 20 -24 26.5t-75 4.5l-6 32l37 91h74z" />
    <glyph glyph-name="uni00B9" unicode="&#xb9;" horiz-adv-x="226" 
d="M33 707v69l82 55h51v-388h-64v309z" />
    <glyph glyph-name="ordmasculine" unicode="&#xba;" horiz-adv-x="368" 
d="M73.5 656q43.5 51 111.5 51q67 0 110 -51t43 -148q0 -98 -43 -149t-110 -51q-68 0 -111.5 51t-43.5 149q0 97 43.5 148zM127 402q22 -34 58 -34q35 0 56.5 34.5t21.5 105.5t-21.5 105t-56.5 34q-36 0 -58 -34t-22 -105q0 -72 22 -106z" />
    <glyph glyph-name="guillemotright" unicode="&#xbb;" 
d="M269 228l-163 -224h-90l163 224l-163 223h90zM458 228l-163 -224h-90l163 224l-163 223h90z" />
    <glyph glyph-name="onequarter" unicode="&#xbc;" horiz-adv-x="625" 
d="M33 577v69l82 55h51v-388h-64v309zM546 699l-419 -733h-63l418 733h64zM563 200v-92h48v-54h-48v-88h-57v88h-144v42l118 258h61l-113 -246h78v92h57z" />
    <glyph glyph-name="onehalf" unicode="&#xbd;" horiz-adv-x="653" 
d="M33 577v69l82 55h51v-388h-64v309zM546 699l-419 -733h-63l418 733h64zM490 21h140v-55h-218v43l105 164q20 32 27.5 49t7.5 37q0 21 -8.5 30.5t-26.5 9.5q-35 0 -54 -62l-50 31q12 45 40 68.5t69 23.5q49 0 72 -28.5t23 -68.5q0 -24 -9.5 -49t-32.5 -61z" />
    <glyph glyph-name="threequarters" unicode="&#xbe;" horiz-adv-x="666" 
d="M241 425q0 -55 -30 -86t-80 -31q-45 0 -74.5 23t-37.5 65l50 30q14 -63 61 -63q22 0 34 15t12 44q0 64 -66 64h-20v53h21q26 0 40 19t14 47q0 46 -37 46q-39 0 -58 -60l-46 29q11 42 40 64.5t68 22.5q44 0 71 -26.5t27 -72.5q0 -31 -13 -53.5t-35 -35.5q59 -20 59 -94z
M587 699l-419 -733h-63l418 733h64zM604 200v-92h48v-54h-48v-88h-57v88h-144v42l118 258h61l-113 -246h78v92h57z" />
    <glyph glyph-name="questiondown" unicode="&#xbf;" horiz-adv-x="379" 
d="M238.5 520q16.5 -17 16.5 -40q0 -24 -16 -41t-39 -17t-39.5 17t-16.5 41q0 23 16.5 40t39.5 17q22 0 38.5 -17zM385 -90q-19 -73 -74.5 -113.5t-125.5 -40.5q-77 0 -125 46t-48 124q0 54 20.5 89.5t60.5 77.5q28 31 44 52.5t27.5 52.5t11.5 72q0 26 -4 50h70
q10 -44 10 -82q0 -57 -19.5 -93.5t-58.5 -80.5q-33 -36 -49 -63.5t-16 -67.5q0 -47 23 -71.5t62 -24.5q41 0 73 27.5t48 85.5z" />
    <glyph glyph-name="Agrave" unicode="&#xc0;" horiz-adv-x="592" 
d="M179 913h90l53 -137h-67zM328 699l248 -733h-95l-66 209h-248l-63 -209h-88l241 733h71zM391 251l-103 323l-98 -323h201z" />
    <glyph glyph-name="Aacute" unicode="&#xc1;" horiz-adv-x="592" 
d="M264 776l53 137h90l-76 -137h-67zM328 699l248 -733h-95l-66 209h-248l-63 -209h-88l241 733h71zM391 251l-103 323l-98 -323h201z" />
    <glyph glyph-name="Acircumflex" unicode="&#xc2;" horiz-adv-x="592" 
d="M257 913h71l99 -137h-78l-56 79l-57 -79h-78zM328 699l248 -733h-95l-66 209h-248l-63 -209h-88l241 733h71zM391 251l-103 323l-98 -323h201z" />
    <glyph glyph-name="Atilde" unicode="&#xc3;" horiz-adv-x="592" 
d="M163 789q3 53 24.5 82.5t56.5 29.5q19 0 34 -8.5t32 -23.5q3 -2 11.5 -9.5t15.5 -7.5q22 0 26 49h60q-3 -53 -24 -83t-56 -30q-19 0 -33.5 7.5t-33.5 22.5t-27 15q-21 0 -26 -44h-60zM328 699l248 -733h-95l-66 209h-248l-63 -209h-88l241 733h71zM391 251l-103 323
l-98 -323h201z" />
    <glyph glyph-name="Adieresis" unicode="&#xc4;" horiz-adv-x="592" 
d="M165.5 812q-16.5 17 -16.5 41t16.5 41t39.5 17q24 0 40.5 -17t16.5 -41t-16.5 -41t-40.5 -17q-23 0 -39.5 17zM340.5 812q-16.5 17 -16.5 41t16.5 41t39.5 17q24 0 40.5 -17t16.5 -41t-16.5 -41t-40.5 -17q-23 0 -39.5 17zM328 699l248 -733h-95l-66 209h-248l-63 -209
h-88l241 733h71zM391 251l-103 323l-98 -323h201z" />
    <glyph glyph-name="Aring" unicode="&#xc5;" horiz-adv-x="592" 
d="M216 942q31 30 77 30q45 0 75 -30t30 -76t-30 -76t-75 -30q-46 0 -77 30t-31 76t31 76zM256 827q14 -15 37 -15q22 0 35.5 15t13.5 39t-13.5 39t-35.5 15q-23 0 -37 -15t-14 -39t14 -39zM328 699l248 -733h-95l-66 209h-248l-63 -209h-88l241 733h71zM391 251l-103 323
l-98 -323h201z" />
    <glyph glyph-name="AE" unicode="&#xc6;" horiz-adv-x="816" 
d="M731 307h-255v-266h295v-75h-381v219h-182l-104 -219h-88l350 732h396v-75h-286v-241h255v-75zM390 261v306l-146 -306h146z" />
    <glyph glyph-name="Ccedilla" unicode="&#xc7;" horiz-adv-x="550" 
d="M460 147l69 -41q-23 -71 -68 -108t-113 -42l-17 -41q39 -3 68 -21.5t29 -52.5q0 -42 -33.5 -63.5t-85.5 -21.5q-31 0 -67 9v51q33 -9 61 -9q52 0 52 30q0 19 -24 25.5t-75 4.5l-6 31l25 61q-102 19 -161.5 113.5t-59.5 260.5q0 125 34.5 209.5t96 126t141.5 41.5
q77 0 127.5 -37t75.5 -114l-69 -41q-34 114 -136 114q-81 0 -130 -76.5t-49 -222.5t49 -223t130 -77q102 0 136 114z" />
    <glyph glyph-name="Egrave" unicode="&#xc8;" horiz-adv-x="503" 
d="M150 913h90l53 -137h-67zM419 307h-255v-266h295v-75h-381v732h372v-75h-286v-241h255v-75z" />
    <glyph glyph-name="Eacute" unicode="&#xc9;" horiz-adv-x="503" 
d="M235 776l53 137h90l-76 -137h-67zM419 307h-255v-266h295v-75h-381v732h372v-75h-286v-241h255v-75z" />
    <glyph glyph-name="Ecircumflex" unicode="&#xca;" horiz-adv-x="503" 
d="M228 913h71l99 -137h-78l-56 79l-57 -79h-78zM419 307h-255v-266h295v-75h-381v732h372v-75h-286v-241h255v-75z" />
    <glyph glyph-name="Edieresis" unicode="&#xcb;" horiz-adv-x="503" 
d="M136.5 812q-16.5 17 -16.5 41t16.5 41t39.5 17q24 0 40.5 -17t16.5 -41t-16.5 -41t-40.5 -17q-23 0 -39.5 17zM311.5 812q-16.5 17 -16.5 41t16.5 41t39.5 17q24 0 40.5 -17t16.5 -41t-16.5 -41t-40.5 -17q-23 0 -39.5 17zM419 307h-255v-266h295v-75h-381v732h372v-75
h-286v-241h255v-75z" />
    <glyph glyph-name="Igrave" unicode="&#xcc;" horiz-adv-x="241" 
d="M7 913h90l53 -137h-67zM164 -34h-86v732h86v-732z" />
    <glyph glyph-name="Iacute" unicode="&#xcd;" horiz-adv-x="241" 
d="M92 776l53 137h90l-76 -137h-67zM164 -34h-86v732h86v-732z" />
    <glyph glyph-name="Icircumflex" unicode="&#xce;" horiz-adv-x="241" 
d="M85 913h71l99 -137h-78l-56 79l-57 -79h-78zM164 -34h-86v732h86v-732z" />
    <glyph glyph-name="Idieresis" unicode="&#xcf;" horiz-adv-x="241" 
d="M-6.5 812q-16.5 17 -16.5 41t16.5 41t39.5 17q24 0 40.5 -17t16.5 -41t-16.5 -41t-40.5 -17q-23 0 -39.5 17zM168.5 812q-16.5 17 -16.5 41t16.5 41t39.5 17q24 0 40.5 -17t16.5 -41t-16.5 -41t-40.5 -17q-23 0 -39.5 17zM164 -34h-86v732h86v-732z" />
    <glyph glyph-name="Eth" unicode="&#xd0;" horiz-adv-x="604" 
d="M253 698q141 0 219 -96t78 -269q0 -175 -77.5 -271t-219.5 -96h-175v342h-70v76h70v314h175zM236 41q111 0 166.5 75t55.5 217q0 141 -56 216t-166 75h-72v-240h120v-76h-120v-267h72z" />
    <glyph glyph-name="Ntilde" unicode="&#xd1;" horiz-adv-x="626" 
d="M183 789q3 53 24.5 82.5t56.5 29.5q19 0 34 -8.5t32 -23.5q3 -2 11.5 -9.5t15.5 -7.5q22 0 26 49h60q-3 -53 -24 -83t-56 -30q-19 0 -33.5 7.5t-33.5 22.5t-27 15q-21 0 -26 -44h-60zM149 698l319 -558v558h81v-732h-72l-319 555v-555h-80v732h71z" />
    <glyph glyph-name="Ograve" unicode="&#xd2;" horiz-adv-x="638" 
d="M205 913h90l53 -137h-67zM123.5 615.5q69.5 94.5 195.5 94.5q127 0 196 -95.5t69 -281.5q0 -187 -69 -282.5t-196 -95.5t-196 94.5t-69 283.5q0 188 69.5 282.5zM189.5 108q44.5 -75 129.5 -75q86 0 129.5 75.5t43.5 224.5t-44 224.5t-129 75.5t-129.5 -75.5
t-44.5 -224.5q0 -150 44.5 -225z" />
    <glyph glyph-name="Oacute" unicode="&#xd3;" horiz-adv-x="638" 
d="M290 776l53 137h90l-76 -137h-67zM123.5 615.5q69.5 94.5 195.5 94.5q127 0 196 -95.5t69 -281.5q0 -187 -69 -282.5t-196 -95.5t-196 94.5t-69 283.5q0 188 69.5 282.5zM189.5 108q44.5 -75 129.5 -75q86 0 129.5 75.5t43.5 224.5t-44 224.5t-129 75.5t-129.5 -75.5
t-44.5 -224.5q0 -150 44.5 -225z" />
    <glyph glyph-name="Ocircumflex" unicode="&#xd4;" horiz-adv-x="638" 
d="M283 913h71l99 -137h-78l-56 79l-57 -79h-78zM123.5 615.5q69.5 94.5 195.5 94.5q127 0 196 -95.5t69 -281.5q0 -187 -69 -282.5t-196 -95.5t-196 94.5t-69 283.5q0 188 69.5 282.5zM189.5 108q44.5 -75 129.5 -75q86 0 129.5 75.5t43.5 224.5t-44 224.5t-129 75.5
t-129.5 -75.5t-44.5 -224.5q0 -150 44.5 -225z" />
    <glyph glyph-name="Otilde" unicode="&#xd5;" horiz-adv-x="638" 
d="M189 789q3 53 24.5 82.5t56.5 29.5q19 0 34 -8.5t32 -23.5q3 -2 11.5 -9.5t15.5 -7.5q22 0 26 49h60q-3 -53 -24 -83t-56 -30q-19 0 -33.5 7.5t-33.5 22.5t-27 15q-21 0 -26 -44h-60zM123.5 615.5q69.5 94.5 195.5 94.5q127 0 196 -95.5t69 -281.5q0 -187 -69 -282.5
t-196 -95.5t-196 94.5t-69 283.5q0 188 69.5 282.5zM189.5 108q44.5 -75 129.5 -75q86 0 129.5 75.5t43.5 224.5t-44 224.5t-129 75.5t-129.5 -75.5t-44.5 -224.5q0 -150 44.5 -225z" />
    <glyph glyph-name="Odieresis" unicode="&#xd6;" horiz-adv-x="638" 
d="M191.5 812q-16.5 17 -16.5 41t16.5 41t39.5 17q24 0 40.5 -17t16.5 -41t-16.5 -41t-40.5 -17q-23 0 -39.5 17zM366.5 812q-16.5 17 -16.5 41t16.5 41t39.5 17q24 0 40.5 -17t16.5 -41t-16.5 -41t-40.5 -17q-23 0 -39.5 17zM123.5 615.5q69.5 94.5 195.5 94.5
q127 0 196 -95.5t69 -281.5q0 -187 -69 -282.5t-196 -95.5t-196 94.5t-69 283.5q0 188 69.5 282.5zM189.5 108q44.5 -75 129.5 -75q86 0 129.5 75.5t43.5 224.5t-44 224.5t-129 75.5t-129.5 -75.5t-44.5 -224.5q0 -150 44.5 -225z" />
    <glyph glyph-name="multiply" unicode="&#xd7;" 
d="M237 382l135 135l54 -54l-135 -135l135 -135l-54 -54l-135 135l-135 -135l-54 54l135 135l-135 135l54 54z" />
    <glyph glyph-name="Oslash" unicode="&#xd8;" horiz-adv-x="638" 
d="M492 733h79l-61 -112q74 -97 74 -288q0 -187 -69 -282.5t-196 -95.5q-86 0 -145 46l-38 -69h-80l67 123q-69 97 -69 278q0 188 69.5 282.5t195.5 94.5q82 0 139 -39zM172 145l246 451q-40 37 -99 37q-85 0 -129.5 -75.5t-44.5 -224.5q0 -118 27 -188zM461 531l-247 -456
q41 -42 105 -42q86 0 129.5 75.5t43.5 224.5q0 126 -31 198z" />
    <glyph glyph-name="Ugrave" unicode="&#xd9;" horiz-adv-x="620" 
d="M196 914h90l53 -137h-67zM463 698h86v-452q0 -291 -239 -291t-239 291v452h86v-439q0 -226 154 -226q152 0 152 226v439z" />
    <glyph glyph-name="Uacute" unicode="&#xda;" horiz-adv-x="620" 
d="M281 777l53 137h90l-76 -137h-67zM463 698h86v-452q0 -291 -239 -291t-239 291v452h86v-439q0 -226 154 -226q152 0 152 226v439z" />
    <glyph glyph-name="Ucircumflex" unicode="&#xdb;" horiz-adv-x="620" 
d="M274 914h71l99 -137h-78l-56 79l-57 -79h-78zM463 698h86v-452q0 -291 -239 -291t-239 291v452h86v-439q0 -226 154 -226q152 0 152 226v439z" />
    <glyph glyph-name="Udieresis" unicode="&#xdc;" horiz-adv-x="620" 
d="M182.5 813q-16.5 17 -16.5 41t16.5 41t39.5 17q24 0 40.5 -17t16.5 -41t-16.5 -41t-40.5 -17q-23 0 -39.5 17zM357.5 813q-16.5 17 -16.5 41t16.5 41t39.5 17q24 0 40.5 -17t16.5 -41t-16.5 -41t-40.5 -17q-23 0 -39.5 17zM463 698h86v-452q0 -291 -239 -291t-239 291
v452h86v-439q0 -226 154 -226q152 0 152 226v439z" />
    <glyph glyph-name="Yacute" unicode="&#xdd;" horiz-adv-x="539" 
d="M245 776l53 137h90l-76 -137h-67zM278 370l151 328h94l-205 -423v-309h-86v310l-216 422h102z" />
    <glyph glyph-name="Thorn" unicode="&#xde;" horiz-adv-x="515" 
d="M269 560q64 0 113 -28.5t76 -80t27 -117.5q0 -65 -27 -116t-76 -80t-113 -29h-105v-143h-86v732h86v-138h105zM256 184q38 0 69.5 20t49.5 54t18 76q0 65 -37.5 108.5t-99.5 43.5h-92v-302h92z" />
    <glyph glyph-name="germandbls" unicode="&#xdf;" horiz-adv-x="503" 
d="M441 297q32 -50 32 -123q0 -63 -23 -113t-67 -78t-103 -28q-41 0 -78 11v78q32 -13 66 -13q59 0 89 38.5t30 105.5q0 70 -35.5 109t-104.5 39h-35v71h19q62 0 91.5 40t29.5 106q0 59 -24.5 90.5t-72.5 31.5q-52 0 -79.5 -41.5t-27.5 -134.5v-520h-82v522q0 128 52.5 189
t140.5 61q83 0 131 -52.5t48 -141.5q0 -61 -23 -106.5t-66 -70.5q60 -20 92 -70z" />
    <glyph glyph-name="agrave" unicode="&#xe0;" horiz-adv-x="471" 
d="M225 713l53 -154h-67l-76 154h90zM363.5 447q48.5 -50 48.5 -149v-332h-72q-2 20 -2 35l-2 35q-21 -40 -55 -60.5t-79 -20.5q-64 0 -110.5 39t-46.5 119q0 81 51.5 125.5t132.5 44.5q47 0 101 -17v18q0 73 -24.5 106t-72.5 33q-72 0 -103 -71l-62 35q18 51 62.5 80.5
t105.5 29.5q79 0 127.5 -50zM330 198q-48 17 -91 17q-51 0 -80 -26t-29 -75q0 -45 24 -67t60 -22q48 0 82 35t34 97v41z" />
    <glyph glyph-name="aacute" unicode="&#xe1;" horiz-adv-x="471" 
d="M251 713h90l-76 -154h-67zM363.5 447q48.5 -50 48.5 -149v-332h-72q-2 20 -2 35l-2 35q-21 -40 -55 -60.5t-79 -20.5q-64 0 -110.5 39t-46.5 119q0 81 51.5 125.5t132.5 44.5q47 0 101 -17v18q0 73 -24.5 106t-72.5 33q-72 0 -103 -71l-62 35q18 51 62.5 80.5t105.5 29.5
q79 0 127.5 -50zM330 198q-48 17 -91 17q-51 0 -80 -26t-29 -75q0 -45 24 -67t60 -22q48 0 82 35t34 97v41z" />
    <glyph glyph-name="acircumflex" unicode="&#xe2;" horiz-adv-x="471" 
d="M294 559l-56 90l-57 -90h-78l99 154h71l99 -154h-78zM363.5 447q48.5 -50 48.5 -149v-332h-72q-2 20 -2 35l-2 35q-21 -40 -55 -60.5t-79 -20.5q-64 0 -110.5 39t-46.5 119q0 81 51.5 125.5t132.5 44.5q47 0 101 -17v18q0 73 -24.5 106t-72.5 33q-72 0 -103 -71l-62 35
q18 51 62.5 80.5t105.5 29.5q79 0 127.5 -50zM330 198q-48 17 -91 17q-51 0 -80 -26t-29 -75q0 -45 24 -67t60 -22q48 0 82 35t34 97v41z" />
    <glyph glyph-name="atilde" unicode="&#xe3;" horiz-adv-x="471" 
d="M168 576h-60q3 53 24.5 82.5t56.5 29.5q19 0 34 -8.5t32 -23.5q3 -2 11.5 -9.5t15.5 -7.5q22 0 26 49h60q-3 -53 -24 -83t-56 -30q-19 0 -33.5 7.5t-33.5 22.5t-27 15q-21 0 -26 -44zM363.5 447q48.5 -50 48.5 -149v-332h-72q-2 20 -2 35l-2 35q-21 -40 -55 -60.5
t-79 -20.5q-64 0 -110.5 39t-46.5 119q0 81 51.5 125.5t132.5 44.5q47 0 101 -17v18q0 73 -24.5 106t-72.5 33q-72 0 -103 -71l-62 35q18 51 62.5 80.5t105.5 29.5q79 0 127.5 -50zM330 198q-48 17 -91 17q-51 0 -80 -26t-29 -75q0 -45 24 -67t60 -22q48 0 82 35t34 97v41z
" />
    <glyph glyph-name="adieresis" unicode="&#xe4;" horiz-adv-x="471" 
d="M108.5 595q-16.5 17 -16.5 41t16.5 41t39.5 17q24 0 40.5 -17t16.5 -41t-16.5 -41t-40.5 -17q-23 0 -39.5 17zM287.5 595q-16.5 17 -16.5 41t16.5 41t39.5 17q24 0 40.5 -17t16.5 -41t-16.5 -41t-40.5 -17q-23 0 -39.5 17zM363.5 447q48.5 -50 48.5 -149v-332h-72
q-2 20 -2 35l-2 35q-21 -40 -55 -60.5t-79 -20.5q-64 0 -110.5 39t-46.5 119q0 81 51.5 125.5t132.5 44.5q47 0 101 -17v18q0 73 -24.5 106t-72.5 33q-72 0 -103 -71l-62 35q18 51 62.5 80.5t105.5 29.5q79 0 127.5 -50zM330 198q-48 17 -91 17q-51 0 -80 -26t-29 -75
q0 -45 24 -67t60 -22q48 0 82 35t34 97v41z" />
    <glyph glyph-name="aring" unicode="&#xe5;" horiz-adv-x="471" 
d="M161 578q-31 30 -31 76t31 76t77 30q45 0 75 -30t30 -76t-30 -76t-75 -30q-46 0 -77 30zM201 693q-14 -15 -14 -39t14 -39t37 -15q22 0 35.5 15t13.5 39t-13.5 39t-35.5 15q-23 0 -37 -15zM363.5 447q48.5 -50 48.5 -149v-332h-72q-2 20 -2 35l-2 35q-21 -40 -55 -60.5
t-79 -20.5q-64 0 -110.5 39t-46.5 119q0 81 51.5 125.5t132.5 44.5q47 0 101 -17v18q0 73 -24.5 106t-72.5 33q-72 0 -103 -71l-62 35q18 51 62.5 80.5t105.5 29.5q79 0 127.5 -50zM330 198q-48 17 -91 17q-51 0 -80 -26t-29 -75q0 -45 24 -67t60 -22q48 0 82 35t34 97v41z
" />
    <glyph glyph-name="ae" unicode="&#xe6;" horiz-adv-x="745" 
d="M668 434q49 -63 49 -165q0 -31 -4 -58h-300q4 -94 38 -137.5t90 -43.5q70 0 97 71l63 -36q-18 -56 -62.5 -83t-101.5 -27q-117 0 -164 106q-22 -52 -64 -79t-101 -27q-71 0 -117 38.5t-46 119.5t50.5 125.5t132.5 44.5q47 0 103 -17v10q0 148 -100 148q-76 0 -105 -82
l-62 35q18 56 63.5 88t106.5 32q52 0 89.5 -22.5t57.5 -67.5q24 45 62.5 67.5t88.5 22.5q87 0 136 -63zM633 279q-1 69 -29 106.5t-74 37.5q-45 0 -75.5 -35.5t-38.5 -108.5h217zM331 198q-50 17 -94 17q-51 0 -79 -26t-28 -75q0 -45 22.5 -67t58.5 -22q49 0 84.5 35
t35.5 97v41z" />
    <glyph glyph-name="ccedilla" unicode="&#xe7;" horiz-adv-x="417" 
d="M303.5 48q24.5 17 37.5 54l64 -38q-15 -50 -49.5 -76t-79.5 -31l-17 -41q40 -4 68.5 -22t28.5 -53q0 -42 -33.5 -63.5t-85.5 -21.5q-31 0 -67 9v51q33 -9 61 -9q52 0 52 30q0 19 -24.5 26t-74.5 4l-6 32l26 62q-72 18 -117.5 85t-45.5 180q0 88 28.5 149.5t76.5 91.5
t106 30q54 0 95.5 -26.5t57.5 -82.5l-64 -38q-13 37 -37.5 54t-54.5 17q-53 0 -87.5 -48.5t-34.5 -146.5t34.5 -146.5t87.5 -48.5q30 0 54.5 17z" />
    <glyph glyph-name="egrave" unicode="&#xe8;" horiz-adv-x="459" 
d="M142 712h90l53 -154h-67zM382 434q49 -63 49 -165q0 -31 -4 -58h-300q4 -93 38.5 -137t89.5 -44q70 0 97 71l63 -36q-18 -56 -62.5 -83t-103.5 -27q-95 0 -151.5 68.5t-56.5 200.5q0 90 27 151.5t73.5 91.5t104.5 30q87 0 136 -63zM168.5 387.5q-30.5 -35.5 -38.5 -108.5
h217q-1 69 -29 106.5t-74 37.5q-45 0 -75.5 -35.5z" />
    <glyph glyph-name="eacute" unicode="&#xe9;" horiz-adv-x="459" 
d="M205 558l53 154h90l-76 -154h-67zM382 434q49 -63 49 -165q0 -31 -4 -58h-300q4 -93 38.5 -137t89.5 -44q70 0 97 71l63 -36q-18 -56 -62.5 -83t-103.5 -27q-95 0 -151.5 68.5t-56.5 200.5q0 90 27 151.5t73.5 91.5t104.5 30q87 0 136 -63zM168.5 387.5
q-30.5 -35.5 -38.5 -108.5h217q-1 69 -29 106.5t-74 37.5q-45 0 -75.5 -35.5z" />
    <glyph glyph-name="ecircumflex" unicode="&#xea;" horiz-adv-x="459" 
d="M209 712h71l99 -154h-78l-56 90l-57 -90h-78zM382 434q49 -63 49 -165q0 -31 -4 -58h-300q4 -93 38.5 -137t89.5 -44q70 0 97 71l63 -36q-18 -56 -62.5 -83t-103.5 -27q-95 0 -151.5 68.5t-56.5 200.5q0 90 27 151.5t73.5 91.5t104.5 30q87 0 136 -63zM168.5 387.5
q-30.5 -35.5 -38.5 -108.5h217q-1 69 -29 106.5t-74 37.5q-45 0 -75.5 -35.5z" />
    <glyph glyph-name="edieresis" unicode="&#xeb;" horiz-adv-x="459" 
d="M115.5 594q-16.5 17 -16.5 41t16.5 41t39.5 17q24 0 40.5 -17t16.5 -41t-16.5 -41t-40.5 -17q-23 0 -39.5 17zM294.5 594q-16.5 17 -16.5 41t16.5 41t39.5 17q24 0 40.5 -17t16.5 -41t-16.5 -41t-40.5 -17q-23 0 -39.5 17zM382 434q49 -63 49 -165q0 -31 -4 -58h-300
q4 -93 38.5 -137t89.5 -44q70 0 97 71l63 -36q-18 -56 -62.5 -83t-103.5 -27q-95 0 -151.5 68.5t-56.5 200.5q0 90 27 151.5t73.5 91.5t104.5 30q87 0 136 -63zM168.5 387.5q-30.5 -35.5 -38.5 -108.5h217q-1 69 -29 106.5t-74 37.5q-45 0 -75.5 -35.5z" />
    <glyph glyph-name="igrave" unicode="&#xec;" horiz-adv-x="214" 
d="M4 713h90l53 -154h-67zM148 -34h-82v519h82v-519z" />
    <glyph glyph-name="iacute" unicode="&#xed;" horiz-adv-x="214" 
d="M67 559l53 154h90l-76 -154h-67zM148 -34h-82v519h82v-519z" />
    <glyph glyph-name="icircumflex" unicode="&#xee;" horiz-adv-x="214" 
d="M71 713h71l99 -154h-78l-56 90l-57 -90h-78zM148 -34h-82v519h82v-519z" />
    <glyph glyph-name="idieresis" unicode="&#xef;" horiz-adv-x="214" 
d="M-22.5 595q-16.5 17 -16.5 41t16.5 41t39.5 17q24 0 40.5 -17t16.5 -41t-16.5 -41t-40.5 -17q-23 0 -39.5 17zM156.5 595q-16.5 17 -16.5 41t16.5 41t39.5 17q24 0 40.5 -17t16.5 -41t-16.5 -41t-40.5 -17q-23 0 -39.5 17zM148 -34h-82v519h82v-519z" />
    <glyph glyph-name="eth" unicode="&#xf0;" horiz-adv-x="502" 
d="M315 624q78 -76 111.5 -172.5t33.5 -214.5q0 -91 -26.5 -154.5t-73.5 -95.5t-108 -32q-96 0 -153 68.5t-57 203.5q0 90 28.5 151t75.5 90.5t105 29.5q46 0 82 -22q-33 62 -84 106l-116 -74l-36 58l94 60q-36 24 -80 47l37 65q64 -32 112 -67l104 67l38 -58zM339 79
q33 48 33 148q0 99 -33 147t-87 48t-87.5 -48t-33.5 -147q0 -100 33.5 -148t87.5 -48t87 48z" />
    <glyph glyph-name="ntilde" unicode="&#xf1;" horiz-adv-x="497" 
d="M125 576q3 53 24.5 82.5t56.5 29.5q19 0 34 -8.5t32 -23.5q3 -2 11.5 -9.5t15.5 -7.5q22 0 26 49h60q-3 -53 -24 -83t-56 -30q-19 0 -33.5 7.5t-33.5 22.5t-27 15q-21 0 -26 -44h-60zM395.5 445.5q42.5 -51.5 42.5 -151.5v-328h-82v305q0 75 -22.5 112t-70.5 37
q-49 0 -82 -38t-33 -113v-303h-82v520h72q3 -64 4 -76q22 43 58.5 65t81.5 22q71 0 113.5 -51.5z" />
    <glyph glyph-name="ograve" unicode="&#xf2;" horiz-adv-x="500" 
d="M148 712h90l53 -154h-67zM69 376q28 61 75.5 91t106.5 30t106 -29.5t74.5 -90.5t27.5 -151q0 -89 -27.5 -150t-74.5 -91t-106 -30t-106.5 30t-75.5 91t-28 150t28 150zM163 79q34 -48 88 -48t87 48t33 147t-33.5 147t-86.5 48q-54 0 -88 -48t-34 -147t34 -147z" />
    <glyph glyph-name="oacute" unicode="&#xf3;" horiz-adv-x="500" 
d="M211 558l53 154h90l-76 -154h-67zM69 376q28 61 75.5 91t106.5 30t106 -29.5t74.5 -90.5t27.5 -151q0 -89 -27.5 -150t-74.5 -91t-106 -30t-106.5 30t-75.5 91t-28 150t28 150zM163 79q34 -48 88 -48t87 48t33 147t-33.5 147t-86.5 48q-54 0 -88 -48t-34 -147t34 -147z
" />
    <glyph glyph-name="ocircumflex" unicode="&#xf4;" horiz-adv-x="500" 
d="M215 712h71l99 -154h-78l-56 90l-57 -90h-78zM69 376q28 61 75.5 91t106.5 30t106 -29.5t74.5 -90.5t27.5 -151q0 -89 -27.5 -150t-74.5 -91t-106 -30t-106.5 30t-75.5 91t-28 150t28 150zM163 79q34 -48 88 -48t87 48t33 147t-33.5 147t-86.5 48q-54 0 -88 -48t-34 -147
t34 -147z" />
    <glyph glyph-name="otilde" unicode="&#xf5;" horiz-adv-x="500" 
d="M121 575q3 53 24.5 82.5t56.5 29.5q19 0 34 -8.5t32 -23.5q3 -2 11.5 -9.5t15.5 -7.5q22 0 26 49h60q-3 -53 -24 -83t-56 -30q-19 0 -33.5 7.5t-33.5 22.5t-27 15q-21 0 -26 -44h-60zM69 376q28 61 75.5 91t106.5 30t106 -29.5t74.5 -90.5t27.5 -151q0 -89 -27.5 -150
t-74.5 -91t-106 -30t-106.5 30t-75.5 91t-28 150t28 150zM163 79q34 -48 88 -48t87 48t33 147t-33.5 147t-86.5 48q-54 0 -88 -48t-34 -147t34 -147z" />
    <glyph glyph-name="odieresis" unicode="&#xf6;" horiz-adv-x="500" 
d="M121.5 594q-16.5 17 -16.5 41t16.5 41t39.5 17q24 0 40.5 -17t16.5 -41t-16.5 -41t-40.5 -17q-23 0 -39.5 17zM300.5 594q-16.5 17 -16.5 41t16.5 41t39.5 17q24 0 40.5 -17t16.5 -41t-16.5 -41t-40.5 -17q-23 0 -39.5 17zM69 376q28 61 75.5 91t106.5 30t106 -29.5
t74.5 -90.5t27.5 -151q0 -89 -27.5 -150t-74.5 -91t-106 -30t-106.5 30t-75.5 91t-28 150t28 150zM163 79q34 -48 88 -48t87 48t33 147t-33.5 147t-86.5 48q-54 0 -88 -48t-34 -147t34 -147z" />
    <glyph glyph-name="divide" unicode="&#xf7;" 
d="M197.5 472.5q-16.5 17.5 -16.5 40.5q0 24 16.5 41t39.5 17q24 0 40.5 -17t16.5 -41t-16.5 -41t-40.5 -17q-23 0 -39.5 17.5zM445 290h-416v76h416v-76zM197.5 102.5q-16.5 17.5 -16.5 40.5q0 24 16.5 41t39.5 17q24 0 40.5 -17t16.5 -41t-16.5 -41t-40.5 -17
q-23 0 -39.5 17.5z" />
    <glyph glyph-name="oslash" unicode="&#xf8;" horiz-adv-x="498" 
d="M380 520h78l-55 -96q55 -71 55 -198q0 -89 -27.5 -150t-74.5 -91t-106 -30q-56 0 -103 27l-29 -50h-78l56 97q-56 70 -56 197q0 89 28 150t75.5 91t106.5 30q56 0 101 -27zM145 113l166 288q-26 20 -61 20q-54 0 -88 -48t-34 -147q0 -68 17 -113zM353 339l-166 -287
q29 -21 63 -21q54 0 87 48t33 147q0 68 -17 113z" />
    <glyph glyph-name="ugrave" unicode="&#xf9;" horiz-adv-x="497" 
d="M142 713h90l53 -154h-67zM349 486h82v-520h-72q-3 64 -4 76q-22 -43 -58.5 -65t-81.5 -22q-71 0 -113.5 51.5t-42.5 151.5v328h82v-305q0 -75 22.5 -112t70.5 -37q49 0 82 38t33 113v303z" />
    <glyph glyph-name="uacute" unicode="&#xfa;" horiz-adv-x="497" 
d="M205 559l53 154h90l-76 -154h-67zM349 486h82v-520h-72q-3 64 -4 76q-22 -43 -58.5 -65t-81.5 -22q-71 0 -113.5 51.5t-42.5 151.5v328h82v-305q0 -75 22.5 -112t70.5 -37q49 0 82 38t33 113v303z" />
    <glyph glyph-name="ucircumflex" unicode="&#xfb;" horiz-adv-x="497" 
d="M209 713h71l99 -154h-78l-56 90l-57 -90h-78zM349 486h82v-520h-72q-3 64 -4 76q-22 -43 -58.5 -65t-81.5 -22q-71 0 -113.5 51.5t-42.5 151.5v328h82v-305q0 -75 22.5 -112t70.5 -37q49 0 82 38t33 113v303z" />
    <glyph glyph-name="udieresis" unicode="&#xfc;" horiz-adv-x="497" 
d="M115.5 595q-16.5 17 -16.5 41t16.5 41t39.5 17q24 0 40.5 -17t16.5 -41t-16.5 -41t-40.5 -17q-23 0 -39.5 17zM294.5 595q-16.5 17 -16.5 41t16.5 41t39.5 17q24 0 40.5 -17t16.5 -41t-16.5 -41t-40.5 -17q-23 0 -39.5 17zM349 486h82v-520h-72q-3 64 -4 76
q-22 -43 -58.5 -65t-81.5 -22q-71 0 -113.5 51.5t-42.5 151.5v328h82v-305q0 -75 22.5 -112t70.5 -37q49 0 82 38t33 113v303z" />
    <glyph glyph-name="yacute" unicode="&#xfd;" horiz-adv-x="452" 
d="M188 559l53 154h90l-76 -154h-67zM234 80l121 405h86l-187 -575q-25 -78 -60.5 -116t-93.5 -38q-53 0 -86 31l32 65q24 -19 55 -19t49.5 20.5t35.5 75.5l7 23l-185 533h94z" />
    <glyph glyph-name="thorn" unicode="&#xfe;" horiz-adv-x="519" 
d="M380 467q45 -30 71.5 -91t26.5 -150q0 -90 -26.5 -151t-71.5 -90.5t-100 -29.5q-91 0 -132 79v-265h-82v958h82v-310q41 80 132 80q55 0 100 -30zM359.5 79.5q32.5 48.5 32.5 146.5q0 97 -32.5 145.5t-88.5 48.5q-52 0 -87.5 -44t-35.5 -150q0 -107 35.5 -151t87.5 -44
q56 0 88.5 48.5z" />
    <glyph glyph-name="ydieresis" unicode="&#xff;" horiz-adv-x="452" 
d="M98.5 595q-16.5 17 -16.5 41t16.5 41t39.5 17q24 0 40.5 -17t16.5 -41t-16.5 -41t-40.5 -17q-23 0 -39.5 17zM277.5 595q-16.5 17 -16.5 41t16.5 41t39.5 17q24 0 40.5 -17t16.5 -41t-16.5 -41t-40.5 -17q-23 0 -39.5 17zM234 80l121 405h86l-187 -575
q-25 -78 -60.5 -116t-93.5 -38q-53 0 -86 31l32 65q24 -19 55 -19t49.5 20.5t35.5 75.5l7 23l-185 533h94z" />
    <glyph glyph-name="Amacron" unicode="&#x100;" horiz-adv-x="592" 
d="M173 816v74h240v-74h-240zM328 699l248 -733h-95l-66 209h-248l-63 -209h-88l241 733h71zM391 251l-103 323l-98 -323h201z" />
    <glyph glyph-name="amacron" unicode="&#x101;" horiz-adv-x="471" 
d="M118 673h240v-74h-240v74zM363.5 447q48.5 -50 48.5 -149v-332h-72q-2 20 -2 35l-2 35q-21 -40 -55 -60.5t-79 -20.5q-64 0 -110.5 39t-46.5 119q0 81 51.5 125.5t132.5 44.5q47 0 101 -17v18q0 73 -24.5 106t-72.5 33q-72 0 -103 -71l-62 35q18 51 62.5 80.5t105.5 29.5
q79 0 127.5 -50zM330 198q-48 17 -91 17q-51 0 -80 -26t-29 -75q0 -45 24 -67t60 -22q48 0 82 35t34 97v41z" />
    <glyph glyph-name="Abreve" unicode="&#x102;" horiz-adv-x="592" 
d="M200.5 814.5q-34.5 38.5 -34.5 98.5h75q3 -78 52 -78q50 0 53 78h75q0 -60 -34.5 -98.5t-93.5 -38.5q-58 0 -92.5 38.5zM328 699l248 -733h-95l-66 209h-248l-63 -209h-88l241 733h71zM391 251l-103 323l-98 -323h201z" />
    <glyph glyph-name="abreve" unicode="&#x103;" horiz-adv-x="471" 
d="M145 599q-34 41 -34 113h75q2 -43 14 -65.5t38 -22.5q27 0 39 22t14 66h75q0 -72 -34 -113t-94 -41q-59 0 -93 41zM363.5 447q48.5 -50 48.5 -149v-332h-72q-2 20 -2 35l-2 35q-21 -40 -55 -60.5t-79 -20.5q-64 0 -110.5 39t-46.5 119q0 81 51.5 125.5t132.5 44.5
q47 0 101 -17v18q0 73 -24.5 106t-72.5 33q-72 0 -103 -71l-62 35q18 51 62.5 80.5t105.5 29.5q79 0 127.5 -50zM330 198q-48 17 -91 17q-51 0 -80 -26t-29 -75q0 -45 24 -67t60 -22q48 0 82 35t34 97v41z" />
    <glyph glyph-name="Aogonek" unicode="&#x104;" horiz-adv-x="592" 
d="M622 -203q-21 -21 -44.5 -31t-53.5 -10q-46 0 -77.5 21.5t-31.5 65.5q0 33 19.5 63t51.5 60h-5l-66 209h-248l-63 -209h-88l241 733h71l248 -733q-88 -56 -88 -112q0 -23 12.5 -34t31.5 -11q28 0 57 27zM288 574l-98 -323h201z" />
    <glyph glyph-name="aogonek" unicode="&#x105;" horiz-adv-x="471" 
d="M458 -203q-21 -21 -44.5 -31t-53.5 -10q-46 0 -77.5 21.5t-31.5 65.5q0 66 88 136q0 9 -0.5 23.5t-2.5 33.5q-21 -40 -55 -60.5t-79 -20.5q-64 0 -110.5 39t-46.5 119q0 81 51.5 125.5t132.5 44.5q47 0 101 -17v18q0 73 -24.5 106t-72.5 33q-72 0 -103 -71l-62 35
q18 51 62.5 80.5t105.5 29.5q79 0 127.5 -50t48.5 -149v-332q-88 -56 -88 -112q0 -23 12.5 -34t31.5 -11q28 0 57 27zM330 198q-48 17 -91 17q-51 0 -80 -26t-29 -75q0 -45 24 -67t60 -22q48 0 82 35t34 97v41z" />
    <glyph glyph-name="Cacute" unicode="&#x106;" horiz-adv-x="550" 
d="M284 777l53 137h90l-76 -137h-67zM460 147l69 -41q-25 -77 -75.5 -114t-128.5 -37q-80 0 -141 41.5t-95.5 126.5t-34.5 210t34.5 209.5t96 126t141.5 41.5q77 0 127.5 -37t75.5 -114l-69 -41q-34 114 -136 114q-81 0 -130 -76.5t-49 -222.5t49 -223t130 -77
q102 0 136 114z" />
    <glyph glyph-name="cacute" unicode="&#x107;" horiz-adv-x="417" 
d="M206 559l53 154h90l-76 -154h-67zM303.5 48q24.5 17 37.5 54l64 -38q-17 -57 -58.5 -83t-94.5 -26q-58 0 -105.5 30t-76.5 91t-29 150q0 88 28.5 149.5t76.5 91.5t106 30q54 0 95.5 -26.5t57.5 -82.5l-64 -38q-13 37 -37.5 54t-54.5 17q-53 0 -87.5 -48.5t-34.5 -146.5
t34.5 -146.5t87.5 -48.5q30 0 54.5 17z" />
    <glyph glyph-name="Ccircumflex" unicode="&#x108;" horiz-adv-x="550" 
d="M277 914h71l99 -137h-78l-56 79l-57 -79h-78zM460 147l69 -41q-25 -77 -75.5 -114t-128.5 -37q-80 0 -141 41.5t-95.5 126.5t-34.5 210t34.5 209.5t96 126t141.5 41.5q77 0 127.5 -37t75.5 -114l-69 -41q-34 114 -136 114q-81 0 -130 -76.5t-49 -222.5t49 -223t130 -77
q102 0 136 114z" />
    <glyph glyph-name="ccircumflex" unicode="&#x109;" horiz-adv-x="417" 
d="M210 713h71l99 -154h-78l-56 90l-57 -90h-78zM303.5 48q24.5 17 37.5 54l64 -38q-17 -57 -58.5 -83t-94.5 -26q-58 0 -105.5 30t-76.5 91t-29 150q0 88 28.5 149.5t76.5 91.5t106 30q54 0 95.5 -26.5t57.5 -82.5l-64 -38q-13 37 -37.5 54t-54.5 17q-53 0 -87.5 -48.5
t-34.5 -146.5t34.5 -146.5t87.5 -48.5q30 0 54.5 17z" />
    <glyph glyph-name="Cdotaccent" unicode="&#x10a;" horiz-adv-x="550" 
d="M273.5 813.5q-16.5 17.5 -16.5 40.5t16.5 40.5t39.5 17.5q24 0 40.5 -17t16.5 -41q0 -23 -17 -40.5t-40 -17.5t-39.5 17.5zM460 147l69 -41q-25 -77 -75.5 -114t-128.5 -37q-80 0 -141 41.5t-95.5 126.5t-34.5 210t34.5 209.5t96 126t141.5 41.5q77 0 127.5 -37
t75.5 -114l-69 -41q-34 114 -136 114q-81 0 -130 -76.5t-49 -222.5t49 -223t130 -77q102 0 136 114z" />
    <glyph glyph-name="cdotaccent" unicode="&#x10b;" horiz-adv-x="417" 
d="M206.5 595.5q-16.5 17.5 -16.5 40.5t16.5 40.5t39.5 17.5q24 0 40.5 -17t16.5 -41q0 -23 -17 -40.5t-40 -17.5t-39.5 17.5zM303.5 48q24.5 17 37.5 54l64 -38q-17 -57 -58.5 -83t-94.5 -26q-58 0 -105.5 30t-76.5 91t-29 150q0 88 28.5 149.5t76.5 91.5t106 30
q54 0 95.5 -26.5t57.5 -82.5l-64 -38q-13 37 -37.5 54t-54.5 17q-53 0 -87.5 -48.5t-34.5 -146.5t34.5 -146.5t87.5 -48.5q30 0 54.5 17z" />
    <glyph glyph-name="Ccaron" unicode="&#x10c;" horiz-adv-x="550" 
d="M256 914l57 -79l56 79h78l-99 -137h-71l-99 137h78zM460 147l69 -41q-25 -77 -75.5 -114t-128.5 -37q-80 0 -141 41.5t-95.5 126.5t-34.5 210t34.5 209.5t96 126t141.5 41.5q77 0 127.5 -37t75.5 -114l-69 -41q-34 114 -136 114q-81 0 -130 -76.5t-49 -222.5t49 -223
t130 -77q102 0 136 114z" />
    <glyph glyph-name="ccaron" unicode="&#x10d;" horiz-adv-x="417" 
d="M189 713l57 -90l56 90h78l-99 -154h-71l-99 154h78zM303.5 48q24.5 17 37.5 54l64 -38q-17 -57 -58.5 -83t-94.5 -26q-58 0 -105.5 30t-76.5 91t-29 150q0 88 28.5 149.5t76.5 91.5t106 30q54 0 95.5 -26.5t57.5 -82.5l-64 -38q-13 37 -37.5 54t-54.5 17
q-53 0 -87.5 -48.5t-34.5 -146.5t34.5 -146.5t87.5 -48.5q30 0 54.5 17z" />
    <glyph glyph-name="Dcaron" unicode="&#x10e;" horiz-adv-x="604" 
d="M210 914l57 -79l56 79h78l-99 -137h-71l-99 137h78zM253 698q141 0 219 -96t78 -269q0 -175 -77.5 -271t-219.5 -96h-175v732h175zM236 41q111 0 166.5 75t55.5 217q0 141 -56 216t-166 75h-72v-583h72z" />
    <glyph glyph-name="dcaron" unicode="&#x10f;" horiz-adv-x="582" 
d="M604 719q16 -19 16 -57q0 -50 -31 -82.5t-82 -41.5v41q56 17 62 59h-7q-21 0 -33.5 14.5t-12.5 35.5t13 35.5t34 14.5q25 0 41 -19zM371 727h82v-761h-73l-2 30q0 21 -3 48q-39 -89 -136 -89q-55 0 -100 30t-71.5 91t-26.5 150q0 90 26.5 151t71.5 90.5t100 29.5
q91 0 132 -79v309zM335.5 76q35.5 44 35.5 150q0 107 -35.5 151t-87.5 44q-56 0 -88.5 -48.5t-32.5 -146.5q0 -97 32.5 -145.5t88.5 -48.5q52 0 87.5 44z" />
    <glyph glyph-name="Dcroat" unicode="&#x110;" horiz-adv-x="604" 
d="M253 698q141 0 219 -96t78 -269q0 -175 -77.5 -271t-219.5 -96h-175v342h-70v76h70v314h175zM236 41q111 0 166.5 75t55.5 217q0 141 -56 216t-166 75h-72v-240h120v-76h-120v-267h72z" />
    <glyph glyph-name="dcroat" unicode="&#x111;" horiz-adv-x="525" 
d="M453 634h71v-70h-71v-598h-73l-2 30q0 21 -3 48q-39 -89 -136 -89q-55 0 -100 30t-71.5 91t-26.5 150q0 90 26.5 151t71.5 90.5t100 29.5q91 0 132 -79v146h-108v70h108v93h82v-93zM335.5 76q35.5 44 35.5 150q0 107 -35.5 151t-87.5 44q-56 0 -88.5 -48.5t-32.5 -146.5
q0 -97 32.5 -145.5t88.5 -48.5q52 0 87.5 44z" />
    <glyph glyph-name="Emacron" unicode="&#x112;" horiz-adv-x="503" 
d="M144 816v74h240v-74h-240zM419 307h-255v-266h295v-75h-381v732h372v-75h-286v-241h255v-75z" />
    <glyph glyph-name="emacron" unicode="&#x113;" horiz-adv-x="459" 
d="M125 598v74h240v-74h-240zM382 434q49 -63 49 -165q0 -31 -4 -58h-300q4 -93 38.5 -137t89.5 -44q70 0 97 71l63 -36q-18 -56 -62.5 -83t-103.5 -27q-95 0 -151.5 68.5t-56.5 200.5q0 90 27 151.5t73.5 91.5t104.5 30q87 0 136 -63zM168.5 387.5
q-30.5 -35.5 -38.5 -108.5h217q-1 69 -29 106.5t-74 37.5q-45 0 -75.5 -35.5z" />
    <glyph glyph-name="Ebreve" unicode="&#x114;" horiz-adv-x="503" 
d="M171.5 814.5q-34.5 38.5 -34.5 98.5h75q3 -78 52 -78q50 0 53 78h75q0 -60 -34.5 -98.5t-93.5 -38.5q-58 0 -92.5 38.5zM419 307h-255v-266h295v-75h-381v732h372v-75h-286v-241h255v-75z" />
    <glyph glyph-name="ebreve" unicode="&#x115;" horiz-adv-x="459" 
d="M152 598q-34 41 -34 113h75q2 -43 14 -65.5t38 -22.5q27 0 39 22t14 66h75q0 -72 -34 -113t-94 -41q-59 0 -93 41zM382 434q49 -63 49 -165q0 -31 -4 -58h-300q4 -93 38.5 -137t89.5 -44q70 0 97 71l63 -36q-18 -56 -62.5 -83t-103.5 -27q-95 0 -151.5 68.5t-56.5 200.5
q0 90 27 151.5t73.5 91.5t104.5 30q87 0 136 -63zM168.5 387.5q-30.5 -35.5 -38.5 -108.5h217q-1 69 -29 106.5t-74 37.5q-45 0 -75.5 -35.5z" />
    <glyph glyph-name="Edotaccent" unicode="&#x116;" horiz-adv-x="503" 
d="M224.5 812.5q-16.5 17.5 -16.5 40.5t16.5 40.5t39.5 17.5q24 0 40.5 -17t16.5 -41q0 -23 -17 -40.5t-40 -17.5t-39.5 17.5zM419 307h-255v-266h295v-75h-381v732h372v-75h-286v-241h255v-75z" />
    <glyph glyph-name="edotaccent" unicode="&#x117;" horiz-adv-x="459" 
d="M205.5 594.5q-16.5 17.5 -16.5 40.5t16.5 40.5t39.5 17.5q24 0 40.5 -17t16.5 -41q0 -23 -17 -40.5t-40 -17.5t-39.5 17.5zM382 434q49 -63 49 -165q0 -31 -4 -58h-300q4 -93 38.5 -137t89.5 -44q70 0 97 71l63 -36q-18 -56 -62.5 -83t-103.5 -27q-95 0 -151.5 68.5
t-56.5 200.5q0 90 27 151.5t73.5 91.5t104.5 30q87 0 136 -63zM168.5 387.5q-30.5 -35.5 -38.5 -108.5h217q-1 69 -29 106.5t-74 37.5q-45 0 -75.5 -35.5z" />
    <glyph glyph-name="Eogonek" unicode="&#x118;" horiz-adv-x="503" 
d="M505 -203q-21 -21 -44.5 -31t-53.5 -10q-46 0 -77.5 21.5t-31.5 65.5q0 62 73 123h-293v732h372v-75h-286v-241h255v-75h-255v-266h295v-75q-88 -56 -88 -112q0 -23 12.5 -34t31.5 -11q28 0 57 27z" />
    <glyph glyph-name="eogonek" unicode="&#x119;" horiz-adv-x="459" 
d="M382 434q49 -63 49 -165q0 -31 -4 -58h-300q4 -93 38.5 -137t89.5 -44q70 0 97 71l63 -36q-16 -49 -52 -75q-46 -38 -66 -69.5t-20 -61.5q0 -49 43 -49q29 0 58 27l33 -39q-41 -42 -99 -42q-44 0 -76 22.5t-32 71.5q0 51 46 105h-1q-95 0 -151.5 68.5t-56.5 200.5
q0 90 27 151.5t73.5 91.5t104.5 30q87 0 136 -63zM347 279q-1 69 -29 106.5t-74 37.5q-45 0 -75.5 -35.5t-38.5 -108.5h217z" />
    <glyph glyph-name="Ecaron" unicode="&#x11a;" horiz-adv-x="503" 
d="M207 913l57 -79l56 79h78l-99 -137h-71l-99 137h78zM419 307h-255v-266h295v-75h-381v732h372v-75h-286v-241h255v-75z" />
    <glyph glyph-name="ecaron" unicode="&#x11b;" horiz-adv-x="459" 
d="M188 712l57 -90l56 90h78l-99 -154h-71l-99 154h78zM382 434q49 -63 49 -165q0 -31 -4 -58h-300q4 -93 38.5 -137t89.5 -44q70 0 97 71l63 -36q-18 -56 -62.5 -83t-103.5 -27q-95 0 -151.5 68.5t-56.5 200.5q0 90 27 151.5t73.5 91.5t104.5 30q87 0 136 -63zM168.5 387.5
q-30.5 -35.5 -38.5 -108.5h217q-1 69 -29 106.5t-74 37.5q-45 0 -75.5 -35.5z" />
    <glyph glyph-name="Gcircumflex" unicode="&#x11c;" horiz-adv-x="587" 
d="M290 914h71l99 -137h-78l-56 79l-57 -79h-78zM335 271v76h205v-292q-29 -44 -79.5 -72t-125.5 -28q-131 0 -206 96.5t-75 287.5q0 121 34.5 204.5t97 125t145.5 41.5q81 0 136 -39.5t71 -111.5l-69 -41q-12 52 -49.5 83t-93.5 31q-86 0 -133.5 -74.5t-47.5 -218.5
q0 -151 52 -228.5t143 -77.5q35 0 65 12t49 36v190h-119z" />
    <glyph glyph-name="gcircumflex" unicode="&#x11d;" horiz-adv-x="518" 
d="M208 713h71l99 -154h-78l-56 90l-57 -90h-78zM453 486v-475q0 -143 -61.5 -199t-147.5 -56q-69 0 -121 33.5t-69 96.5l64 37q18 -49 49.5 -69.5t77.5 -20.5q64 0 95 40.5t31 139.5v22q-41 -80 -132 -80q-55 0 -100 30t-71.5 91t-26.5 150q0 90 26.5 151t71.5 90.5
t100 29.5q97 0 136 -88q3 24 5 77h73zM335.5 76q35.5 44 35.5 150q0 107 -35.5 151t-87.5 44q-56 0 -88.5 -48.5t-32.5 -146.5q0 -97 32.5 -145.5t88.5 -48.5q52 0 87.5 44z" />
    <glyph glyph-name="Gbreve" unicode="&#x11e;" horiz-adv-x="587" 
d="M233.5 815.5q-34.5 38.5 -34.5 98.5h75q3 -78 52 -78q50 0 53 78h75q0 -60 -34.5 -98.5t-93.5 -38.5q-58 0 -92.5 38.5zM335 271v76h205v-292q-29 -44 -79.5 -72t-125.5 -28q-131 0 -206 96.5t-75 287.5q0 121 34.5 204.5t97 125t145.5 41.5q81 0 136 -39.5t71 -111.5
l-69 -41q-12 52 -49.5 83t-93.5 31q-86 0 -133.5 -74.5t-47.5 -218.5q0 -151 52 -228.5t143 -77.5q35 0 65 12t49 36v190h-119z" />
    <glyph glyph-name="gbreve" unicode="&#x11f;" horiz-adv-x="518" 
d="M151 599q-34 41 -34 113h75q2 -43 14 -65.5t38 -22.5q27 0 39 22t14 66h75q0 -72 -34 -113t-94 -41q-59 0 -93 41zM453 486v-475q0 -143 -61.5 -199t-147.5 -56q-69 0 -121 33.5t-69 96.5l64 37q18 -49 49.5 -69.5t77.5 -20.5q64 0 95 40.5t31 139.5v22q-41 -80 -132 -80
q-55 0 -100 30t-71.5 91t-26.5 150q0 90 26.5 151t71.5 90.5t100 29.5q97 0 136 -88q3 24 5 77h73zM335.5 76q35.5 44 35.5 150q0 107 -35.5 151t-87.5 44q-56 0 -88.5 -48.5t-32.5 -146.5q0 -97 32.5 -145.5t88.5 -48.5q52 0 87.5 44z" />
    <glyph glyph-name="Gdotaccent" unicode="&#x120;" horiz-adv-x="587" 
d="M286.5 813.5q-16.5 17.5 -16.5 40.5t16.5 40.5t39.5 17.5q24 0 40.5 -17t16.5 -41q0 -23 -17 -40.5t-40 -17.5t-39.5 17.5zM335 271v76h205v-292q-29 -44 -79.5 -72t-125.5 -28q-131 0 -206 96.5t-75 287.5q0 121 34.5 204.5t97 125t145.5 41.5q81 0 136 -39.5t71 -111.5
l-69 -41q-12 52 -49.5 83t-93.5 31q-86 0 -133.5 -74.5t-47.5 -218.5q0 -151 52 -228.5t143 -77.5q35 0 65 12t49 36v190h-119z" />
    <glyph glyph-name="gdotaccent" unicode="&#x121;" horiz-adv-x="518" 
d="M204.5 595.5q-16.5 17.5 -16.5 40.5t16.5 40.5t39.5 17.5q24 0 40.5 -17t16.5 -41q0 -23 -17 -40.5t-40 -17.5t-39.5 17.5zM453 486v-475q0 -143 -61.5 -199t-147.5 -56q-69 0 -121 33.5t-69 96.5l64 37q18 -49 49.5 -69.5t77.5 -20.5q64 0 95 40.5t31 139.5v22
q-41 -80 -132 -80q-55 0 -100 30t-71.5 91t-26.5 150q0 90 26.5 151t71.5 90.5t100 29.5q97 0 136 -88q3 24 5 77h73zM335.5 76q35.5 44 35.5 150q0 107 -35.5 151t-87.5 44q-56 0 -88.5 -48.5t-32.5 -146.5q0 -97 32.5 -145.5t88.5 -48.5q52 0 87.5 44z" />
    <glyph glyph-name="uni0122" unicode="&#x122;" horiz-adv-x="587" 
d="M335 271v76h205v-292q-29 -44 -79.5 -72t-125.5 -28q-131 0 -206 96.5t-75 287.5q0 121 34.5 204.5t97 125t145.5 41.5q81 0 136 -39.5t71 -111.5l-69 -41q-12 52 -49.5 83t-93.5 31q-86 0 -133.5 -74.5t-47.5 -218.5q0 -151 52 -228.5t143 -77.5q35 0 65 12t49 36v190
h-119zM375 -90q17 -16 17 -49q0 -43 -32.5 -70t-86.5 -35v34q30 8 46 20t19 31h-7q-23 0 -36 12.5t-13 30.5t14 30t36 12q26 0 43 -16z" />
    <glyph glyph-name="uni0123" unicode="&#x123;" horiz-adv-x="518" 
d="M198 594q-17 20 -17 61q0 53 32.5 87.5t86.5 43.5v-43q-30 -9 -46 -24t-19 -39h7q23 0 36 -15.5t13 -37.5q0 -23 -14 -38t-36 -15q-26 0 -43 20zM453 486v-475q0 -143 -61.5 -199t-147.5 -56q-69 0 -121 33.5t-69 96.5l64 37q18 -49 49.5 -69.5t77.5 -20.5q64 0 95 40.5
t31 139.5v22q-41 -80 -132 -80q-55 0 -100 30t-71.5 91t-26.5 150q0 90 26.5 151t71.5 90.5t100 29.5q97 0 136 -88q3 24 5 77h73zM335.5 76q35.5 44 35.5 150q0 107 -35.5 151t-87.5 44q-56 0 -88.5 -48.5t-32.5 -146.5q0 -97 32.5 -145.5t88.5 -48.5q52 0 87.5 44z" />
    <glyph glyph-name="Hcircumflex" unicode="&#x124;" horiz-adv-x="633" 
d="M280 913h71l99 -137h-78l-56 79l-57 -79h-78zM164 384h306v314h86v-732h-86v342h-306v-342h-86v732h86v-314z" />
    <glyph glyph-name="hcircumflex" unicode="&#x125;" horiz-adv-x="497" 
d="M64 927h79l115 -137h-88l-66 80l-67 -80h-88zM395.5 445.5q42.5 -51.5 42.5 -151.5v-328h-82v305q0 75 -22.5 112t-70.5 37q-49 0 -82 -38t-33 -113v-303h-82v761h82v-306q22 38 56.5 57t77.5 19q71 0 113.5 -51.5z" />
    <glyph glyph-name="Hbar" unicode="&#x126;" horiz-adv-x="654" 
d="M566 698v-119h60v-76h-60v-537h-88v342h-304v-342h-86v537h-60v76h60v119h86v-119h304v119h88zM174 503v-119h304v119h-304z" />
    <glyph glyph-name="hbar" unicode="&#x127;" horiz-adv-x="513" 
d="M411.5 445.5q42.5 -51.5 42.5 -151.5v-328h-82v305q0 75 -22.5 112t-70.5 37q-49 0 -82 -38t-33 -113v-303h-82v598h-69v70h69v93h82v-93h120v-70h-120v-143q22 38 56.5 57t77.5 19q71 0 113.5 -51.5z" />
    <glyph glyph-name="Itilde" unicode="&#x128;" horiz-adv-x="241" 
d="M-9 789q3 53 24.5 82.5t56.5 29.5q19 0 34 -8.5t32 -23.5q3 -2 11.5 -9.5t15.5 -7.5q22 0 26 49h60q-3 -53 -24 -83t-56 -30q-19 0 -33.5 7.5t-33.5 22.5t-27 15q-21 0 -26 -44h-60zM164 -34h-86v732h86v-732z" />
    <glyph glyph-name="itilde" unicode="&#x129;" horiz-adv-x="214" 
d="M-23 576q3 53 24.5 82.5t56.5 29.5q19 0 34 -8.5t32 -23.5q3 -2 11.5 -9.5t15.5 -7.5q22 0 26 49h60q-3 -53 -24 -83t-56 -30q-19 0 -33.5 7.5t-33.5 22.5t-27 15q-21 0 -26 -44h-60zM148 -34h-82v519h82v-519z" />
    <glyph glyph-name="Imacron" unicode="&#x12a;" horiz-adv-x="241" 
d="M1 816v74h240v-74h-240zM164 -34h-86v732h86v-732z" />
    <glyph glyph-name="imacron" unicode="&#x12b;" horiz-adv-x="214" 
d="M-13 599v74h240v-74h-240zM148 -34h-82v519h82v-519z" />
    <glyph glyph-name="Ibreve" unicode="&#x12c;" horiz-adv-x="241" 
d="M28.5 814.5q-34.5 38.5 -34.5 98.5h75q3 -78 52 -78q50 0 53 78h75q0 -60 -34.5 -98.5t-93.5 -38.5q-58 0 -92.5 38.5zM164 -34h-86v732h86v-732z" />
    <glyph glyph-name="ibreve" unicode="&#x12d;" horiz-adv-x="214" 
d="M14 599q-34 41 -34 113h75q2 -43 14 -65.5t38 -22.5q27 0 39 22t14 66h75q0 -72 -34 -113t-94 -41q-59 0 -93 41zM148 -34h-82v519h82v-519z" />
    <glyph glyph-name="Iogonek" unicode="&#x12e;" horiz-adv-x="241" 
d="M210 -203q-21 -21 -44.5 -31t-53.5 -10q-46 0 -77.5 21.5t-31.5 65.5q0 62 75 126v729h86v-732q-88 -56 -88 -112q0 -23 12.5 -34t31.5 -11q28 0 57 27z" />
    <glyph glyph-name="iogonek" unicode="&#x12f;" horiz-adv-x="214" 
d="M67.5 595.5q-16.5 17.5 -16.5 40.5t16.5 40.5t39.5 17.5q24 0 40.5 -17t16.5 -41q0 -23 -17 -40.5t-40 -17.5t-39.5 17.5zM194 -203q-21 -21 -44.5 -31t-53.5 -10q-46 0 -77.5 21.5t-31.5 65.5q0 63 79 130v512h82v-519q-88 -56 -88 -112q0 -23 12.5 -34t31.5 -11
q28 0 57 27z" />
    <glyph glyph-name="Idotaccent" unicode="&#x130;" horiz-adv-x="241" 
d="M81.5 812.5q-16.5 17.5 -16.5 40.5t16.5 40.5t39.5 17.5q24 0 40.5 -17t16.5 -41q0 -23 -17 -40.5t-40 -17.5t-39.5 17.5zM164 -34h-86v732h86v-732z" />
    <glyph glyph-name="dotlessi" unicode="&#x131;" horiz-adv-x="214" 
d="M148 -34h-82v519h82v-519z" />
    <glyph glyph-name="IJ" unicode="&#x132;" horiz-adv-x="651" 
d="M164 -34h-86v732h86v-732zM254 79l70 42q13 -49 35 -68.5t51 -19.5q51 0 67.5 43.5t16.5 115.5v506h86v-515q0 -228 -169 -228q-125 0 -157 124z" />
    <glyph glyph-name="ij" unicode="&#x133;" horiz-adv-x="427" 
d="M69.5 597.5q-15.5 16.5 -15.5 39.5q0 22 15.5 39t36.5 17q22 0 38 -16.5t16 -39.5q0 -22 -16 -39t-38 -17q-21 0 -36.5 16.5zM284 598q-16 17 -16 39t15.5 39t36.5 17t37 -17t16 -39q0 -23 -15.5 -39.5t-37.5 -16.5q-20 0 -36 17zM148 -34h-82v519h82v-519zM176.5 -236.5
q-22.5 7.5 -35.5 22.5l31 65q22 -18 49 -18q34 0 46.5 26t12.5 86v540h82v-543q0 -96 -36.5 -141t-101.5 -45q-25 0 -47.5 7.5z" />
    <glyph glyph-name="Jcircumflex" unicode="&#x134;" horiz-adv-x="410" 
d="M259 913h71l99 -137h-78l-56 79l-57 -79h-78zM13 79l70 42q13 -49 35 -68.5t51 -19.5q51 0 67.5 43.5t16.5 115.5v506h86v-515q0 -228 -169 -228q-125 0 -157 124z" />
    <glyph glyph-name="jcircumflex" unicode="&#x135;" horiz-adv-x="213" 
d="M71 712h71l99 -154h-78l-56 90l-57 -90h-78zM-37.5 -236.5q-22.5 7.5 -35.5 22.5l31 65q22 -18 49 -18q34 0 46.5 26t12.5 86v540h82v-543q0 -96 -36.5 -141t-101.5 -45q-25 0 -47.5 7.5z" />
    <glyph glyph-name="uni0136" unicode="&#x136;" horiz-adv-x="575" 
d="M572 -34h-110l-202 361l-96 -123v-238h-86v732h86v-295v-82l70 94l211 283h104l-227 -292zM350 -90q17 -16 17 -49q0 -43 -32.5 -70t-86.5 -35v34q30 8 46 20t19 31h-7q-23 0 -36 12.5t-13 30.5t14 30t36 12q26 0 43 -16z" />
    <glyph glyph-name="uni0137" unicode="&#x137;" horiz-adv-x="460" 
d="M462 -34h-103l-137 232l-74 -95v-137h-82v761h82v-384v-128q29 41 95 128l107 142h93l-165 -213zM292 -90q17 -16 17 -49q0 -43 -32.5 -70t-86.5 -35v34q30 8 46 20t19 31h-7q-23 0 -36 12.5t-13 30.5t14 30t36 12q26 0 43 -16z" />
    <glyph glyph-name="kgreenlandic" unicode="&#x138;" horiz-adv-x="460" 
d="M462 -34h-103l-137 232l-74 -95v-137h-82v520h82v-143v-128q29 41 95 128l107 142h93l-165 -213z" />
    <glyph glyph-name="Lacute" unicode="&#x139;" horiz-adv-x="481" 
d="M92 776l53 137h90l-76 -137h-67zM78 698h86v-656h285v-76h-371v732z" />
    <glyph glyph-name="lacute" unicode="&#x13a;" horiz-adv-x="214" 
d="M78 805l53 137h90l-76 -137h-67zM148 -34h-82v761h82v-761z" />
    <glyph glyph-name="uni013B" unicode="&#x13b;" horiz-adv-x="481" 
d="M78 698h86v-656h285v-76h-371v732zM306 -90q17 -16 17 -49q0 -43 -32.5 -70t-86.5 -35v34q30 8 46 20t19 31h-7q-23 0 -36 12.5t-13 30.5t14 30t36 12q26 0 43 -16z" />
    <glyph glyph-name="uni013C" unicode="&#x13c;" horiz-adv-x="214" 
d="M148 -34h-82v761h82v-761zM145 -90q17 -16 17 -49q0 -43 -32.5 -70t-86.5 -35v34q30 8 46 20t19 31h-7q-23 0 -36 12.5t-13 30.5t14 30t36 12q26 0 43 -16z" />
    <glyph glyph-name="Lcaron" unicode="&#x13d;" horiz-adv-x="491" 
d="M354.5 541.5q-32.5 -34.5 -86.5 -43.5v43q30 10 46 25t19 38h-7q-23 0 -36 15.5t-13 37.5q0 23 14 38t36 15q26 0 43 -20t17 -61q0 -53 -32.5 -87.5zM164 698v-656h285v-76h-371v732h86z" />
    <glyph glyph-name="lcaron" unicode="&#x13e;" horiz-adv-x="276" 
d="M298 719q16 -19 16 -57q0 -50 -31 -82.5t-82 -41.5v41q56 17 62 59h-7q-21 0 -33.5 14.5t-12.5 35.5t13 35.5t34 14.5q25 0 41 -19zM148 -34h-82v761h82v-761z" />
    <glyph glyph-name="Ldot" unicode="&#x13f;" horiz-adv-x="491" 
d="M78 698h86v-656h285v-76h-371v732zM285.5 310.5q-16.5 17.5 -16.5 40.5q0 24 16.5 41t39.5 17q24 0 40.5 -17t16.5 -41t-16.5 -41t-40.5 -17q-23 0 -39.5 17.5z" />
    <glyph glyph-name="ldot" unicode="&#x140;" horiz-adv-x="214" 
d="M148 -34h-82v761h82v-761zM185 315q-14 15 -14 35q0 21 14 35.5t34 14.5q21 0 35 -14.5t14 -35.5t-14 -35.5t-35 -14.5q-20 0 -34 15z" />
    <glyph glyph-name="Lslash" unicode="&#x141;" horiz-adv-x="491" 
d="M310 378l-136 -73v-263h285v-76h-371v293l-77 -41v85l77 41v354h86v-308l136 73v-85z" />
    <glyph glyph-name="lslash" unicode="&#x142;" horiz-adv-x="228" 
d="M155 727v-309l66 41v-85l-66 -41v-367h-82v316l-66 -41v85l66 41v360h82z" />
    <glyph glyph-name="Nacute" unicode="&#x143;" horiz-adv-x="626" 
d="M284 776l53 137h90l-76 -137h-67zM149 698l319 -558v558h81v-732h-72l-319 555v-555h-80v732h71z" />
    <glyph glyph-name="nacute" unicode="&#x144;" horiz-adv-x="497" 
d="M215 559l53 154h90l-76 -154h-67zM395.5 445.5q42.5 -51.5 42.5 -151.5v-328h-82v305q0 75 -22.5 112t-70.5 37q-49 0 -82 -38t-33 -113v-303h-82v520h72q3 -64 4 -76q22 43 58.5 65t81.5 22q71 0 113.5 -51.5z" />
    <glyph glyph-name="uni0145" unicode="&#x145;" horiz-adv-x="626" 
d="M149 698l319 -558v558h81v-732h-72l-319 555v-555h-80v732h71zM351 -90q17 -16 17 -49q0 -43 -32.5 -70t-86.5 -35v34q30 8 46 20t19 31h-7q-23 0 -36 12.5t-13 30.5t14 30t36 12q26 0 43 -16z" />
    <glyph glyph-name="uni0146" unicode="&#x146;" horiz-adv-x="497" 
d="M395.5 445.5q42.5 -51.5 42.5 -151.5v-328h-82v305q0 75 -22.5 112t-70.5 37q-49 0 -82 -38t-33 -113v-303h-82v520h72q3 -64 4 -76q22 43 58.5 65t81.5 22q71 0 113.5 -51.5zM290 -90q17 -16 17 -49q0 -43 -32.5 -70t-86.5 -35v34q30 8 46 20t19 31h-7q-23 0 -36 12.5
t-13 30.5t14 30t36 12q26 0 43 -16z" />
    <glyph glyph-name="Ncaron" unicode="&#x147;" horiz-adv-x="626" 
d="M256 913l57 -79l56 79h78l-99 -137h-71l-99 137h78zM149 698l319 -558v558h81v-732h-72l-319 555v-555h-80v732h71z" />
    <glyph glyph-name="ncaron" unicode="&#x148;" horiz-adv-x="497" 
d="M198 713l57 -90l56 90h78l-99 -154h-71l-99 154h78zM395.5 445.5q42.5 -51.5 42.5 -151.5v-328h-82v305q0 75 -22.5 112t-70.5 37q-49 0 -82 -38t-33 -113v-303h-82v520h72q3 -64 4 -76q22 43 58.5 65t81.5 22q71 0 113.5 -51.5z" />
    <glyph glyph-name="napostrophe" unicode="&#x149;" horiz-adv-x="497" 
d="M69.5 569.5q-32.5 -34.5 -86.5 -43.5v43q30 9 46 24t19 39h-7q-23 0 -36 15.5t-13 37.5q0 23 14 38t36 15q26 0 43 -20t17 -61q0 -53 -32.5 -87.5zM395.5 445.5q42.5 -51.5 42.5 -151.5v-328h-82v305q0 75 -22.5 112t-70.5 37q-49 0 -82 -38t-33 -113v-303h-82v520h72
q3 -64 4 -76q22 43 58.5 65t81.5 22q71 0 113.5 -51.5z" />
    <glyph glyph-name="Eng" unicode="&#x14a;" horiz-adv-x="626" 
d="M468 698h81v-758q0 -96 -39 -140t-105 -44q-51 0 -84 24l34 68q20 -12 46 -12q32 0 49.5 23.5t17.5 83.5v39l-310 539v-555h-80v732h71l319 -558v558z" />
    <glyph glyph-name="eng" unicode="&#x14b;" horiz-adv-x="580" 
d="M395.5 445.5q42.5 -51.5 42.5 -151.5v-354q0 -95 -40 -139.5t-105 -44.5q-50 0 -83 24l34 65q20 -12 45 -12q33 0 50 24.5t17 85.5v328q0 75 -22.5 112t-70.5 37q-49 0 -82 -38t-33 -113v-303h-82v520h72q3 -64 4 -76q22 43 58.5 65t81.5 22q71 0 113.5 -51.5z" />
    <glyph glyph-name="Omacron" unicode="&#x14c;" horiz-adv-x="638" 
d="M199 816v74h240v-74h-240zM123.5 615.5q69.5 94.5 195.5 94.5q127 0 196 -95.5t69 -281.5q0 -187 -69 -282.5t-196 -95.5t-196 94.5t-69 283.5q0 188 69.5 282.5zM189.5 108q44.5 -75 129.5 -75q86 0 129.5 75.5t43.5 224.5t-44 224.5t-129 75.5t-129.5 -75.5
t-44.5 -224.5q0 -150 44.5 -225z" />
    <glyph glyph-name="omacron" unicode="&#x14d;" horiz-adv-x="500" 
d="M131 598v74h240v-74h-240zM69 376q28 61 75.5 91t106.5 30t106 -29.5t74.5 -90.5t27.5 -151q0 -89 -27.5 -150t-74.5 -91t-106 -30t-106.5 30t-75.5 91t-28 150t28 150zM163 79q34 -48 88 -48t87 48t33 147t-33.5 147t-86.5 48q-54 0 -88 -48t-34 -147t34 -147z" />
    <glyph glyph-name="Obreve" unicode="&#x14e;" horiz-adv-x="638" 
d="M226.5 814.5q-34.5 38.5 -34.5 98.5h75q3 -78 52 -78q50 0 53 78h75q0 -60 -34.5 -98.5t-93.5 -38.5q-58 0 -92.5 38.5zM123.5 615.5q69.5 94.5 195.5 94.5q127 0 196 -95.5t69 -281.5q0 -187 -69 -282.5t-196 -95.5t-196 94.5t-69 283.5q0 188 69.5 282.5zM189.5 108
q44.5 -75 129.5 -75q86 0 129.5 75.5t43.5 224.5t-44 224.5t-129 75.5t-129.5 -75.5t-44.5 -224.5q0 -150 44.5 -225z" />
    <glyph glyph-name="obreve" unicode="&#x14f;" horiz-adv-x="500" 
d="M158 598q-34 41 -34 113h75q2 -43 14 -65.5t38 -22.5q27 0 39 22t14 66h75q0 -72 -34 -113t-94 -41q-59 0 -93 41zM69 376q28 61 75.5 91t106.5 30t106 -29.5t74.5 -90.5t27.5 -151q0 -89 -27.5 -150t-74.5 -91t-106 -30t-106.5 30t-75.5 91t-28 150t28 150zM163 79
q34 -48 88 -48t87 48t33 147t-33.5 147t-86.5 48q-54 0 -88 -48t-34 -147t34 -147z" />
    <glyph glyph-name="Ohungarumlaut" unicode="&#x150;" horiz-adv-x="638" 
d="M221 776l53 137h88l-76 -137h-65zM344 776l53 137h88l-76 -137h-65zM123.5 615.5q69.5 94.5 195.5 94.5q127 0 196 -95.5t69 -281.5q0 -187 -69 -282.5t-196 -95.5t-196 94.5t-69 283.5q0 188 69.5 282.5zM189.5 108q44.5 -75 129.5 -75q86 0 129.5 75.5t43.5 224.5
t-44 224.5t-129 75.5t-129.5 -75.5t-44.5 -224.5q0 -150 44.5 -225z" />
    <glyph glyph-name="ohungarumlaut" unicode="&#x151;" horiz-adv-x="500" 
d="M153 558l53 154h88l-76 -154h-65zM276 558l53 154h88l-76 -154h-65zM69 376q28 61 75.5 91t106.5 30t106 -29.5t74.5 -90.5t27.5 -151q0 -89 -27.5 -150t-74.5 -91t-106 -30t-106.5 30t-75.5 91t-28 150t28 150zM163 79q34 -48 88 -48t87 48t33 147t-33.5 147t-86.5 48
q-54 0 -88 -48t-34 -147t34 -147z" />
    <glyph glyph-name="OE" unicode="&#x152;" horiz-adv-x="918" 
d="M578 307v-266h295v-75h-381v72q-57 -83 -173 -83q-127 0 -196 94.5t-69 283.5q0 188 69.5 282.5t195.5 94.5q116 0 173 -83v71h372v-75h-286v-241h255v-75h-255zM448.5 108.5q43.5 75.5 43.5 224.5t-44 224.5t-129 75.5t-129.5 -75.5t-44.5 -224.5q0 -150 44.5 -225
t129.5 -75q86 0 129.5 75.5z" />
    <glyph glyph-name="oe" unicode="&#x153;" horiz-adv-x="794" 
d="M717 434q49 -63 49 -165q0 -31 -4 -58h-300q4 -94 38 -137.5t90 -43.5q70 0 97 71l63 -36q-18 -56 -62.5 -83t-101.5 -27q-56 0 -99.5 28t-69.5 83q-25 -55 -68 -83t-98 -28q-59 0 -106.5 30t-75.5 91t-28 150t28 150t75.5 91t106.5 30q55 0 98 -27.5t68 -82.5
q25 54 68 82t96 28q87 0 136 -63zM503.5 387.5q-30.5 -35.5 -38.5 -108.5h217q-1 69 -29 106.5t-74 37.5q-45 0 -75.5 -35.5zM338 79q33 48 33 147t-33.5 147t-86.5 48q-54 0 -88 -48t-34 -147t34 -147t88 -48t87 48z" />
    <glyph glyph-name="Racute" unicode="&#x154;" horiz-adv-x="539" 
d="M278 913h90l-76 -137h-67zM542 -34h-106l-167 302h-2h-103v-302h-86v732h189q63 0 113 -27t77.5 -76t27.5 -113q0 -70 -33.5 -121.5t-91.5 -75.5zM255 342q60 0 98.5 39.5t38.5 100.5t-38 101.5t-99 40.5h-91v-282h91z" />
    <glyph glyph-name="racute" unicode="&#x155;" horiz-adv-x="332" 
d="M154 558l53 154h90l-76 -154h-67zM300 489q20 -8 29 -21l-29 -65q-18 17 -46 17q-46 0 -76 -42.5t-30 -123.5v-288h-82v519h72q3 -59 4 -71q18 41 47 62t66 21q25 0 45 -8z" />
    <glyph glyph-name="uni0156" unicode="&#x156;" horiz-adv-x="539" 
d="M542 -34h-106l-167 302h-2h-103v-302h-86v732h189q63 0 113 -27t77.5 -76t27.5 -113q0 -70 -33.5 -121.5t-91.5 -75.5zM255 342q60 0 98.5 39.5t38.5 100.5t-38 101.5t-99 40.5h-91v-282h91zM338 -90q17 -16 17 -49q0 -43 -32.5 -70t-86.5 -35v34q30 8 46 20t19 31h-7
q-23 0 -36 12.5t-13 30.5t14 30t36 12q26 0 43 -16z" />
    <glyph glyph-name="uni0157" unicode="&#x157;" horiz-adv-x="332" 
d="M300 489q20 -8 29 -21l-29 -65q-18 17 -46 17q-46 0 -76 -42.5t-30 -123.5v-288h-82v519h72q3 -59 4 -71q18 41 47 62t66 21q25 0 45 -8zM145 -90q17 -16 17 -49q0 -43 -32.5 -70t-86.5 -35v34q30 8 46 20t19 31h-7q-23 0 -36 12.5t-13 30.5t14 30t36 12q26 0 43 -16z
" />
    <glyph glyph-name="Rcaron" unicode="&#x158;" horiz-adv-x="539" 
d="M388 913l-99 -137h-71l-99 137h78l57 -79l56 79h78zM542 -34h-106l-167 302h-2h-103v-302h-86v732h189q63 0 113 -27t77.5 -76t27.5 -113q0 -70 -33.5 -121.5t-91.5 -75.5zM255 342q60 0 98.5 39.5t38.5 100.5t-38 101.5t-99 40.5h-91v-282h91z" />
    <glyph glyph-name="rcaron" unicode="&#x159;" horiz-adv-x="332" 
d="M137 712l57 -90l56 90h78l-99 -154h-71l-99 154h78zM300 489q20 -8 29 -21l-29 -65q-18 17 -46 17q-46 0 -76 -42.5t-30 -123.5v-288h-82v519h72q3 -59 4 -71q18 41 47 62t66 21q25 0 45 -8z" />
    <glyph glyph-name="Sacute" unicode="&#x15a;" horiz-adv-x="490" 
d="M229 778l53 137h90l-76 -137h-67zM403.5 9q-57.5 -54 -151.5 -54q-86 0 -148 46.5t-81 124.5l70 42q19 -66 60 -100.5t99 -34.5q56 0 86.5 30t30.5 82q0 41 -19.5 69.5t-48.5 47.5t-77 43q-57 29 -92 53t-59.5 64t-24.5 100t27 102.5t72.5 64t100.5 21.5q77 0 130 -40
t69 -108l-71 -42q-11 52 -46 82.5t-85 30.5q-46 0 -75.5 -26.5t-29.5 -74.5q0 -38 18.5 -65t46 -45t75.5 -42q58 -29 94.5 -53.5t61.5 -66.5t25 -104q0 -93 -57.5 -147z" />
    <glyph glyph-name="sacute" unicode="&#x15b;" horiz-adv-x="390" 
d="M168 563l53 154h90l-76 -154h-67zM318.5 -5q-46.5 -40 -117.5 -40q-65 0 -113 34t-62 93l62 35q13 -44 43.5 -66t69.5 -22t58 19.5t19 50.5q0 26 -13.5 44t-33 28.5t-55.5 26.5q-43 19 -68.5 34.5t-44 43.5t-18.5 71q0 69 47.5 109.5t116.5 40.5q56 0 97 -28t53 -83
l-62 -35q-11 36 -35.5 54t-56.5 18q-36 0 -55 -19.5t-19 -48.5q0 -33 23.5 -51.5t72.5 -38.5q44 -19 71.5 -36t47 -47t19.5 -76q0 -71 -46.5 -111z" />
    <glyph glyph-name="Scircumflex" unicode="&#x15c;" horiz-adv-x="490" 
d="M222 915h71l99 -137h-78l-56 79l-57 -79h-78zM403.5 9q-57.5 -54 -151.5 -54q-86 0 -148 46.5t-81 124.5l70 42q19 -66 60 -100.5t99 -34.5q56 0 86.5 30t30.5 82q0 41 -19.5 69.5t-48.5 47.5t-77 43q-57 29 -92 53t-59.5 64t-24.5 100t27 102.5t72.5 64t100.5 21.5
q77 0 130 -40t69 -108l-71 -42q-11 52 -46 82.5t-85 30.5q-46 0 -75.5 -26.5t-29.5 -74.5q0 -38 18.5 -65t46 -45t75.5 -42q58 -29 94.5 -53.5t61.5 -66.5t25 -104q0 -93 -57.5 -147z" />
    <glyph glyph-name="scircumflex" unicode="&#x15d;" horiz-adv-x="390" 
d="M172 717h71l99 -154h-78l-56 90l-57 -90h-78zM318.5 -5q-46.5 -40 -117.5 -40q-65 0 -113 34t-62 93l62 35q13 -44 43.5 -66t69.5 -22t58 19.5t19 50.5q0 26 -13.5 44t-33 28.5t-55.5 26.5q-43 19 -68.5 34.5t-44 43.5t-18.5 71q0 69 47.5 109.5t116.5 40.5q56 0 97 -28
t53 -83l-62 -35q-11 36 -35.5 54t-56.5 18q-36 0 -55 -19.5t-19 -48.5q0 -33 23.5 -51.5t72.5 -38.5q44 -19 71.5 -36t47 -47t19.5 -76q0 -71 -46.5 -111z" />
    <glyph glyph-name="Scedilla" unicode="&#x15e;" horiz-adv-x="490" 
d="M408 14q-53 -53 -141 -58l-16 -41q39 -3 68 -21.5t29 -52.5q0 -42 -33.5 -63.5t-85.5 -21.5q-31 0 -67 9v51q33 -9 61 -9q52 0 52 30q0 19 -24 25.5t-75 4.5l-6 31l26 63q-66 14 -111.5 57.5t-61.5 107.5l70 42q19 -66 60 -100.5t99 -34.5q56 0 86.5 30t30.5 82
q0 41 -19.5 69.5t-48.5 47.5t-77 43q-57 29 -92 53t-59.5 64t-24.5 100t27 102.5t72.5 64t100.5 21.5q77 0 130 -40t69 -108l-71 -42q-11 52 -46 82.5t-85 30.5q-46 0 -75.5 -26.5t-29.5 -74.5q0 -38 18.5 -65t46 -45t75.5 -42q58 -29 94.5 -53.5t61.5 -66.5t25 -104
q0 -89 -53 -142z" />
    <glyph glyph-name="scedilla" unicode="&#x15f;" horiz-adv-x="390" 
d="M325 1q-40 -40 -104 -45l-16 -38q39 -4 68 -22.5t29 -53.5q0 -42 -33.5 -64t-85.5 -22q-31 0 -67 9v52q33 -9 61 -9q52 0 52 30q0 19 -24.5 26t-74.5 5l-6 32l25 60q-47 12 -79.5 43.5t-43.5 77.5l62 35q13 -44 43.5 -66t69.5 -22t58 19.5t19 50.5q0 26 -13.5 44
t-33 28.5t-55.5 26.5q-43 19 -68.5 34.5t-44 43.5t-18.5 71q0 69 47.5 109.5t116.5 40.5q56 0 97 -28t53 -83l-62 -35q-11 36 -35.5 54t-56.5 18q-36 0 -55 -19.5t-19 -48.5q0 -33 23.5 -51.5t72.5 -38.5q44 -19 71.5 -36t47 -47t19.5 -76q0 -65 -40 -105z" />
    <glyph glyph-name="Scaron" unicode="&#x160;" horiz-adv-x="490" 
d="M201 915l57 -79l56 79h78l-99 -137h-71l-99 137h78zM403.5 9q-57.5 -54 -151.5 -54q-86 0 -148 46.5t-81 124.5l70 42q19 -66 60 -100.5t99 -34.5q56 0 86.5 30t30.5 82q0 41 -19.5 69.5t-48.5 47.5t-77 43q-57 29 -92 53t-59.5 64t-24.5 100t27 102.5t72.5 64
t100.5 21.5q77 0 130 -40t69 -108l-71 -42q-11 52 -46 82.5t-85 30.5q-46 0 -75.5 -26.5t-29.5 -74.5q0 -38 18.5 -65t46 -45t75.5 -42q58 -29 94.5 -53.5t61.5 -66.5t25 -104q0 -93 -57.5 -147z" />
    <glyph glyph-name="scaron" unicode="&#x161;" horiz-adv-x="390" 
d="M151 717l57 -90l56 90h78l-99 -154h-71l-99 154h78zM318.5 -5q-46.5 -40 -117.5 -40q-65 0 -113 34t-62 93l62 35q13 -44 43.5 -66t69.5 -22t58 19.5t19 50.5q0 26 -13.5 44t-33 28.5t-55.5 26.5q-43 19 -68.5 34.5t-44 43.5t-18.5 71q0 69 47.5 109.5t116.5 40.5
q56 0 97 -28t53 -83l-62 -35q-11 36 -35.5 54t-56.5 18q-36 0 -55 -19.5t-19 -48.5q0 -33 23.5 -51.5t72.5 -38.5q44 -19 71.5 -36t47 -47t19.5 -76q0 -71 -46.5 -111z" />
    <glyph glyph-name="uni0162" unicode="&#x162;" horiz-adv-x="492" 
d="M289 623v-657h-6l-23 -50q38 -3 67 -21.5t29 -52.5q0 -42 -33.5 -64t-85.5 -22q-31 0 -67 9v51q40 -9 61 -9q52 0 52 30q0 20 -24 26.5t-75 4.5l-6 32l31 66h-6v657h-184v75h454v-75h-184z" />
    <glyph glyph-name="uni0163" unicode="&#x163;" horiz-adv-x="325" 
d="M221 -85q39 -3 68 -21.5t29 -52.5q0 -42 -33.5 -63.5t-85.5 -21.5q-31 0 -67 9v51q33 -9 61 -9q52 0 52 30q0 19 -24 25.5t-75 4.5l-6 31l27 67q-82 33 -82 166v285h-73v70h73v145h82v-145h126v-70h-126v-275q0 -60 16.5 -85t49.5 -25t55 21l31 -64q-32 -29 -81 -32z" />
    <glyph glyph-name="Tcaron" unicode="&#x164;" horiz-adv-x="492" 
d="M189 914l57 -79l56 79h78l-99 -137h-71l-99 137h78zM19 698h454v-75h-184v-657h-86v657h-184v75z" />
    <glyph glyph-name="tcaron" unicode="&#x165;" horiz-adv-x="325" 
d="M312.5 603.5q-32.5 -34.5 -86.5 -43.5v43q30 9 46 24.5t18 38.5h-5q-24 0 -37 15.5t-13 37.5q0 23 14 38t36 15q26 0 43 -20t17 -61q0 -53 -32.5 -87.5zM288 52l31 -64q-37 -33 -96 -33t-98.5 39t-39.5 137v285h-73v70h73v145h82v-145h126v-70h-126v-275q0 -60 16.5 -85
t49.5 -25t55 21z" />
    <glyph glyph-name="Tbar" unicode="&#x166;" horiz-adv-x="492" 
d="M19 698h454v-75h-184v-242h125v-75h-125v-340h-86v340h-124v75h124v242h-184v75z" />
    <glyph glyph-name="tbar" unicode="&#x167;" horiz-adv-x="325" 
d="M319 -12q-37 -33 -96 -33t-98.5 39t-39.5 137v77h-73v70h73v138h-73v70h73v145h82v-145h126v-70h-126v-138h126v-70h-126v-67q0 -60 16.5 -85t49.5 -25t55 21z" />
    <glyph glyph-name="Utilde" unicode="&#x168;" horiz-adv-x="620" 
d="M180 790q3 53 24.5 82.5t56.5 29.5q19 0 34 -8.5t32 -23.5q3 -2 11.5 -9.5t15.5 -7.5q22 0 26 49h60q-3 -53 -24 -83t-56 -30q-19 0 -33.5 7.5t-33.5 22.5t-27 15q-21 0 -26 -44h-60zM463 698h86v-452q0 -291 -239 -291t-239 291v452h86v-439q0 -226 154 -226
q152 0 152 226v439z" />
    <glyph glyph-name="utilde" unicode="&#x169;" horiz-adv-x="497" 
d="M115 576q3 53 24.5 82.5t56.5 29.5q19 0 34 -8.5t32 -23.5q3 -2 11.5 -9.5t15.5 -7.5q22 0 26 49h60q-3 -53 -24 -83t-56 -30q-19 0 -33.5 7.5t-33.5 22.5t-27 15q-21 0 -26 -44h-60zM349 486h82v-520h-72q-3 64 -4 76q-22 -43 -58.5 -65t-81.5 -22q-71 0 -113.5 51.5
t-42.5 151.5v328h82v-305q0 -75 22.5 -112t70.5 -37q49 0 82 38t33 113v303z" />
    <glyph glyph-name="Umacron" unicode="&#x16a;" horiz-adv-x="620" 
d="M190 817v74h240v-74h-240zM463 698h86v-452q0 -291 -239 -291t-239 291v452h86v-439q0 -226 154 -226q152 0 152 226v439z" />
    <glyph glyph-name="umacron" unicode="&#x16b;" horiz-adv-x="497" 
d="M125 599v74h240v-74h-240zM349 486h82v-520h-72q-3 64 -4 76q-22 -43 -58.5 -65t-81.5 -22q-71 0 -113.5 51.5t-42.5 151.5v328h82v-305q0 -75 22.5 -112t70.5 -37q49 0 82 38t33 113v303z" />
    <glyph glyph-name="Ubreve" unicode="&#x16c;" horiz-adv-x="620" 
d="M217.5 815.5q-34.5 38.5 -34.5 98.5h75q3 -78 52 -78q50 0 53 78h75q0 -60 -34.5 -98.5t-93.5 -38.5q-58 0 -92.5 38.5zM463 698h86v-452q0 -291 -239 -291t-239 291v452h86v-439q0 -226 154 -226q152 0 152 226v439z" />
    <glyph glyph-name="ubreve" unicode="&#x16d;" horiz-adv-x="497" 
d="M152 599q-34 41 -34 113h75q2 -43 14 -65.5t38 -22.5q27 0 39 22t14 66h75q0 -72 -34 -113t-94 -41q-59 0 -93 41zM349 486h82v-520h-72q-3 64 -4 76q-22 -43 -58.5 -65t-81.5 -22q-71 0 -113.5 51.5t-42.5 151.5v328h82v-305q0 -75 22.5 -112t70.5 -37q49 0 82 38
t33 113v303z" />
    <glyph glyph-name="Uring" unicode="&#x16e;" horiz-adv-x="620" 
d="M233 943q31 30 77 30q45 0 75 -30t30 -76t-30 -76t-75 -30q-46 0 -77 30t-31 76t31 76zM273 828q14 -15 37 -15q22 0 35.5 15t13.5 39t-13.5 39t-35.5 15q-23 0 -37 -15t-14 -39t14 -39zM463 698h86v-452q0 -291 -239 -291t-239 291v452h86v-439q0 -226 154 -226
q152 0 152 226v439z" />
    <glyph glyph-name="uring" unicode="&#x16f;" horiz-adv-x="497" 
d="M168 730q31 30 77 30q45 0 75 -30t30 -76t-30 -76t-75 -30q-46 0 -77 30t-31 76t31 76zM208 615q14 -15 37 -15q22 0 35.5 15t13.5 39t-13.5 39t-35.5 15q-23 0 -37 -15t-14 -39t14 -39zM349 486h82v-520h-72q-3 64 -4 76q-22 -43 -58.5 -65t-81.5 -22q-71 0 -113.5 51.5
t-42.5 151.5v328h82v-305q0 -75 22.5 -112t70.5 -37q49 0 82 38t33 113v303z" />
    <glyph glyph-name="Uhungarumlaut" unicode="&#x170;" horiz-adv-x="620" 
d="M212 777l53 137h88l-76 -137h-65zM335 777l53 137h88l-76 -137h-65zM463 698h86v-452q0 -291 -239 -291t-239 291v452h86v-439q0 -226 154 -226q152 0 152 226v439z" />
    <glyph glyph-name="uhungarumlaut" unicode="&#x171;" horiz-adv-x="497" 
d="M147 559l53 154h88l-76 -154h-65zM270 559l53 154h88l-76 -154h-65zM349 486h82v-520h-72q-3 64 -4 76q-22 -43 -58.5 -65t-81.5 -22q-71 0 -113.5 51.5t-42.5 151.5v328h82v-305q0 -75 22.5 -112t70.5 -37q49 0 82 38t33 113v303z" />
    <glyph glyph-name="Uogonek" unicode="&#x172;" horiz-adv-x="620" 
d="M389.5 -79.5q-21.5 -34.5 -21.5 -69.5q0 -21 12.5 -32t30.5 -11q29 0 58 27l33 -38q-21 -22 -44 -31.5t-55 -9.5q-43 0 -75.5 22t-32.5 67q0 56 48 111q-11 -1 -33 -1q-239 0 -239 291v452h86v-439q0 -226 154 -226q152 0 152 226v439h86v-452q0 -176 -87 -246
q-51 -45 -72.5 -79.5z" />
    <glyph glyph-name="uogonek" unicode="&#x173;" horiz-adv-x="497" 
d="M476 -203q-21 -21 -44.5 -31t-53.5 -10q-46 0 -77.5 21.5t-31.5 65.5q0 68 89 139q0 26 -3 60q-22 -43 -58.5 -65t-81.5 -22q-71 0 -113.5 51.5t-42.5 151.5v328h82v-305q0 -75 22.5 -112t70.5 -37q49 0 82 38t33 113v303h82v-520q-89 -56 -89 -112q0 -23 12.5 -34
t31.5 -11q28 0 57 27z" />
    <glyph glyph-name="Wcircumflex" unicode="&#x174;" horiz-adv-x="850" 
d="M389 913h71l99 -137h-78l-56 79l-57 -79h-78zM466 698l147 -593l138 593h83l-187 -733h-74l-147 556l-140 -556h-73l-197 733h91l146 -589l139 589h74z" />
    <glyph glyph-name="wcircumflex" unicode="&#x175;" horiz-adv-x="672" 
d="M308 713h71l99 -154h-78l-56 90l-57 -90h-78zM374 485l107 -378l101 378h79l-154 -519h-58l-111 354l-107 -354h-59l-161 519h86l108 -378l100 378h69z" />
    <glyph glyph-name="Ycircumflex" unicode="&#x176;" horiz-adv-x="539" 
d="M238 913h71l99 -137h-78l-56 79l-57 -79h-78zM278 370l151 328h94l-205 -423v-309h-86v310l-216 422h102z" />
    <glyph glyph-name="ycircumflex" unicode="&#x177;" horiz-adv-x="452" 
d="M192 713h71l99 -154h-78l-56 90l-57 -90h-78zM234 80l121 405h86l-187 -575q-25 -78 -60.5 -116t-93.5 -38q-53 0 -86 31l32 65q24 -19 55 -19t49.5 20.5t35.5 75.5l7 23l-185 533h94z" />
    <glyph glyph-name="Ydieresis" unicode="&#x178;" horiz-adv-x="539" 
d="M146.5 812q-16.5 17 -16.5 41t16.5 41t39.5 17q24 0 40.5 -17t16.5 -41t-16.5 -41t-40.5 -17q-23 0 -39.5 17zM321.5 812q-16.5 17 -16.5 41t16.5 41t39.5 17q24 0 40.5 -17t16.5 -41t-16.5 -41t-40.5 -17q-23 0 -39.5 17zM278 370l151 328h94l-205 -423v-309h-86v310
l-216 422h102z" />
    <glyph glyph-name="Zacute" unicode="&#x179;" horiz-adv-x="493" 
d="M226 776l53 137h90l-76 -137h-67zM455 698v-41l-319 -615h331v-76h-439v42l319 615h-294v75h402z" />
    <glyph glyph-name="zacute" unicode="&#x17a;" horiz-adv-x="379" 
d="M156 559l53 154h90l-76 -154h-67zM355 485v-43l-235 -407h246v-69h-344v44l236 407h-217v68h314z" />
    <glyph glyph-name="Zdotaccent" unicode="&#x17b;" horiz-adv-x="493" 
d="M215.5 812.5q-16.5 17.5 -16.5 40.5t16.5 40.5t39.5 17.5q24 0 40.5 -17t16.5 -41q0 -23 -17 -40.5t-40 -17.5t-39.5 17.5zM455 698v-41l-319 -615h331v-76h-439v42l319 615h-294v75h402z" />
    <glyph glyph-name="zdotaccent" unicode="&#x17c;" horiz-adv-x="379" 
d="M156.5 595.5q-16.5 17.5 -16.5 40.5t16.5 40.5t39.5 17.5q24 0 40.5 -17t16.5 -41q0 -23 -17 -40.5t-40 -17.5t-39.5 17.5zM355 485v-43l-235 -407h246v-69h-344v44l236 407h-217v68h314z" />
    <glyph glyph-name="Zcaron" unicode="&#x17d;" horiz-adv-x="493" 
d="M198 913l57 -79l56 79h78l-99 -137h-71l-99 137h78zM455 698v-41l-319 -615h331v-76h-439v42l319 615h-294v75h402z" />
    <glyph glyph-name="zcaron" unicode="&#x17e;" horiz-adv-x="379" 
d="M139 713l57 -90l56 90h78l-99 -154h-71l-99 154h78zM355 485v-43l-235 -407h246v-69h-344v44l236 407h-217v68h314z" />
    <glyph glyph-name="longs" unicode="&#x17f;" horiz-adv-x="295" 
d="M296.5 727q23.5 -11 35.5 -26l-37 -62q-23 23 -53 23q-33 0 -50.5 -28t-17.5 -97v-571h-82v451h-73v69h73v53q0 103 42 151t107 48q32 0 55.5 -11z" />
    <glyph glyph-name="uni018F" unicode="&#x18f;" horiz-adv-x="590" 
d="M474.5 612.5q61.5 -97.5 61.5 -282.5q0 -180 -65.5 -277.5t-186.5 -97.5q-117 0 -174 88t-57 241q0 35 3 72h388q-4 140 -47 208.5t-115 68.5q-49 0 -86 -30.5t-57 -87.5l-75 40q64 155 223 155q126 0 187.5 -97.5zM397.5 92.5q38.5 60.5 45.5 183.5h-298
q1 -120 34.5 -182t107.5 -62q72 0 110.5 60.5z" />
    <glyph glyph-name="florin" unicode="&#x192;" 
d="M338 607.5q-18 -26.5 -29 -100.5l-3 -21h128v-69h-138l-35 -250q-15 -109 -53.5 -160.5t-106.5 -51.5q-34 0 -61.5 9.5t-43.5 25.5l40 64q13 -12 28.5 -17.5t29.5 -5.5q33 0 52 34t31 123l32 229h-98v69h107l4 28q27 196 164 196q33 0 59 -10.5t40 -25.5l-41 -61
q-23 21 -55 21q-33 0 -51 -26.5z" />
    <glyph glyph-name="Ohorn" unicode="&#x1a0;" horiz-adv-x="638" 
d="M584 333q0 -187 -69 -282.5t-196 -95.5t-196 94.5t-69 283.5q0 188 70.5 282.5t202.5 94.5q34 0 82 -6q30 -5 50 -5q29 0 42 14.5t13 52.5q0 28 -6 59h75q6 -34 6 -64q0 -71 -26.5 -97t-75.5 -29q97 -89 97 -302zM448.5 108.5q43.5 75.5 43.5 224.5t-44 224.5t-129 75.5
t-129.5 -75.5t-44.5 -224.5q0 -150 44.5 -225t129.5 -75q86 0 129.5 75.5z" />
    <glyph glyph-name="ohorn" unicode="&#x1a1;" horiz-adv-x="497" 
d="M457 454q-23 -25 -67 -28q65 -67 65 -200q0 -89 -27.5 -150t-74.5 -91t-105 -30q-59 0 -106 30t-74 91t-27 150t29 150t78 91t110 30q25 0 69 -7q26 -4 35 -4q20 0 31 13.5t11 52.5q0 29 -6 60h76q6 -34 6 -66q0 -67 -23 -92zM337 85.5q32 50.5 32 140.5q0 91 -31 141
t-90 50q-54 0 -87.5 -51t-33.5 -140t33.5 -140t87.5 -51q57 0 89 50.5z" />
    <glyph glyph-name="Uhorn" unicode="&#x1af;" horiz-adv-x="620" 
d="M626.5 668.5q-26.5 -27.5 -77.5 -32.5v-390q0 -291 -239 -291t-239 291v452h86v-439q0 -226 154 -226q152 0 152 226v439h41q38 0 55.5 14t17.5 55q0 32 -6 57h76q6 -34 6 -63q0 -65 -26.5 -92.5z" />
    <glyph glyph-name="uhorn" unicode="&#x1b0;" horiz-adv-x="497" 
d="M508 455.5q-26 -27.5 -77 -32.5v-457h-72q-3 64 -4 76q-22 -43 -58.5 -65t-81.5 -22q-71 0 -113.5 51.5t-42.5 151.5v328h82v-305q0 -75 22.5 -112t70.5 -37q49 0 82 38t33 113v303h57q26 3 39 18t13 50q0 32 -6 57h76q6 -34 6 -63q0 -65 -26 -92.5z" />
    <glyph glyph-name="uni01CD" unicode="&#x1cd;" horiz-adv-x="592" 
d="M236 913l57 -79l56 79h78l-99 -137h-71l-99 137h78zM328 699l248 -733h-95l-66 209h-248l-63 -209h-88l241 733h71zM391 251l-103 323l-98 -323h201z" />
    <glyph glyph-name="uni01CE" unicode="&#x1ce;" horiz-adv-x="471" 
d="M372 713l-99 -154h-71l-99 154h78l57 -90l56 90h78zM363.5 447q48.5 -50 48.5 -149v-332h-72q-2 20 -2 35l-2 35q-21 -40 -55 -60.5t-79 -20.5q-64 0 -110.5 39t-46.5 119q0 81 51.5 125.5t132.5 44.5q47 0 101 -17v18q0 73 -24.5 106t-72.5 33q-72 0 -103 -71l-62 35
q18 51 62.5 80.5t105.5 29.5q79 0 127.5 -50zM330 198q-48 17 -91 17q-51 0 -80 -26t-29 -75q0 -45 24 -67t60 -22q48 0 82 35t34 97v41z" />
    <glyph glyph-name="uni01CF" unicode="&#x1cf;" horiz-adv-x="241" 
d="M64 913l57 -79l56 79h78l-99 -137h-71l-99 137h78zM164 -34h-86v732h86v-732z" />
    <glyph glyph-name="uni01D0" unicode="&#x1d0;" horiz-adv-x="214" 
d="M50 713l57 -90l56 90h78l-99 -154h-71l-99 154h78zM148 -34h-82v519h82v-519z" />
    <glyph glyph-name="uni01D1" unicode="&#x1d1;" horiz-adv-x="638" 
d="M262 913l57 -79l56 79h78l-99 -137h-71l-99 137h78zM123.5 615.5q69.5 94.5 195.5 94.5q127 0 196 -95.5t69 -281.5q0 -187 -69 -282.5t-196 -95.5t-196 94.5t-69 283.5q0 188 69.5 282.5zM189.5 108q44.5 -75 129.5 -75q86 0 129.5 75.5t43.5 224.5t-44 224.5t-129 75.5
t-129.5 -75.5t-44.5 -224.5q0 -150 44.5 -225z" />
    <glyph glyph-name="uni01D2" unicode="&#x1d2;" horiz-adv-x="500" 
d="M194 712l57 -90l56 90h78l-99 -154h-71l-99 154h78zM69 376q28 61 75.5 91t106.5 30t106 -29.5t74.5 -90.5t27.5 -151q0 -89 -27.5 -150t-74.5 -91t-106 -30t-106.5 30t-75.5 91t-28 150t28 150zM163 79q34 -48 88 -48t87 48t33 147t-33.5 147t-86.5 48q-54 0 -88 -48
t-34 -147t34 -147z" />
    <glyph glyph-name="uni01D3" unicode="&#x1d3;" horiz-adv-x="620" 
d="M253 914l57 -79l56 79h78l-99 -137h-71l-99 137h78zM463 698h86v-452q0 -291 -239 -291t-239 291v452h86v-439q0 -226 154 -226q152 0 152 226v439z" />
    <glyph glyph-name="uni01D4" unicode="&#x1d4;" horiz-adv-x="497" 
d="M188 713l57 -90l56 90h78l-99 -154h-71l-99 154h78zM349 486h82v-520h-72q-3 64 -4 76q-22 -43 -58.5 -65t-81.5 -22q-71 0 -113.5 51.5t-42.5 151.5v328h82v-305q0 -75 22.5 -112t70.5 -37q49 0 82 38t33 113v303z" />
    <glyph glyph-name="uni01D5" unicode="&#x1d5;" horiz-adv-x="620" 
d="M190 883v51h240v-51h-240zM182.5 768q-16.5 13 -16.5 32q0 18 16.5 31t39.5 13q24 0 40.5 -13t16.5 -31q0 -19 -16.5 -32t-40.5 -13q-23 0 -39.5 13zM357.5 768q-16.5 13 -16.5 32q0 18 16.5 31t39.5 13q24 0 40.5 -13t16.5 -31q0 -19 -16.5 -32t-40.5 -13
q-23 0 -39.5 13zM463 698h86v-452q0 -291 -239 -291t-239 291v452h86v-439q0 -226 154 -226q152 0 152 226v439z" />
    <glyph glyph-name="uni01D6" unicode="&#x1d6;" horiz-adv-x="497" 
d="M125 763v74h240v-74h-240zM115.5 595q-16.5 17 -16.5 41t16.5 41t39.5 17q24 0 40.5 -17t16.5 -41t-16.5 -41t-40.5 -17q-23 0 -39.5 17zM294.5 595q-16.5 17 -16.5 41t16.5 41t39.5 17q24 0 40.5 -17t16.5 -41t-16.5 -41t-40.5 -17q-23 0 -39.5 17zM349 486h82v-520h-72
q-3 64 -4 76q-22 -43 -58.5 -65t-81.5 -22q-71 0 -113.5 51.5t-42.5 151.5v328h82v-305q0 -75 22.5 -112t70.5 -37q49 0 82 38t33 113v303z" />
    <glyph glyph-name="uni01D7" unicode="&#x1d7;" horiz-adv-x="620" 
d="M277 864l71 80h94l-90 -80h-75zM182.5 768q-16.5 13 -16.5 32q0 18 16.5 31t39.5 13q24 0 40.5 -13t16.5 -31q0 -19 -16.5 -32t-40.5 -13q-23 0 -39.5 13zM357.5 768q-16.5 13 -16.5 32q0 18 16.5 31t39.5 13q24 0 40.5 -13t16.5 -31q0 -19 -16.5 -32t-40.5 -13
q-23 0 -39.5 13zM463 698h86v-452q0 -291 -239 -291t-239 291v452h86v-439q0 -226 154 -226q152 0 152 226v439z" />
    <glyph glyph-name="uni01D8" unicode="&#x1d8;" horiz-adv-x="497" 
d="M205 732l53 137h90l-76 -137h-67zM115.5 595q-16.5 17 -16.5 41t16.5 41t39.5 17q24 0 40.5 -17t16.5 -41t-16.5 -41t-40.5 -17q-23 0 -39.5 17zM294.5 595q-16.5 17 -16.5 41t16.5 41t39.5 17q24 0 40.5 -17t16.5 -41t-16.5 -41t-40.5 -17q-23 0 -39.5 17zM349 486h82
v-520h-72q-3 64 -4 76q-22 -43 -58.5 -65t-81.5 -22q-71 0 -113.5 51.5t-42.5 151.5v328h82v-305q0 -75 22.5 -112t70.5 -37q49 0 82 38t33 113v303z" />
    <glyph glyph-name="uni01D9" unicode="&#x1d9;" horiz-adv-x="620" 
d="M268 945l42 -35l41 35h93l-99 -81h-71l-99 81h93zM182.5 768q-16.5 13 -16.5 32q0 18 16.5 31t39.5 13q24 0 40.5 -13t16.5 -31q0 -19 -16.5 -32t-40.5 -13q-23 0 -39.5 13zM357.5 768q-16.5 13 -16.5 32q0 18 16.5 31t39.5 13q24 0 40.5 -13t16.5 -31q0 -19 -16.5 -32
t-40.5 -13q-23 0 -39.5 13zM463 698h86v-452q0 -291 -239 -291t-239 291v452h86v-439q0 -226 154 -226q152 0 152 226v439z" />
    <glyph glyph-name="uni01DA" unicode="&#x1da;" horiz-adv-x="497" 
d="M178 869l67 -80l66 80h88l-115 -137h-79l-115 137h88zM115.5 595q-16.5 17 -16.5 41t16.5 41t39.5 17q24 0 40.5 -17t16.5 -41t-16.5 -41t-40.5 -17q-23 0 -39.5 17zM294.5 595q-16.5 17 -16.5 41t16.5 41t39.5 17q24 0 40.5 -17t16.5 -41t-16.5 -41t-40.5 -17
q-23 0 -39.5 17zM349 486h82v-520h-72q-3 64 -4 76q-22 -43 -58.5 -65t-81.5 -22q-71 0 -113.5 51.5t-42.5 151.5v328h82v-305q0 -75 22.5 -112t70.5 -37q49 0 82 38t33 113v303z" />
    <glyph glyph-name="uni01DB" unicode="&#x1db;" horiz-adv-x="620" 
d="M178 944h94l71 -80h-75zM182.5 768q-16.5 13 -16.5 32q0 18 16.5 31t40.5 13q23 0 39.5 -13t16.5 -31q0 -19 -16.5 -32t-39.5 -13q-24 0 -40.5 13zM357.5 768q-16.5 13 -16.5 32q0 18 16.5 31t40.5 13q23 0 39.5 -13t16.5 -31q0 -19 -16.5 -32t-39.5 -13q-24 0 -40.5 13z
M463 698h86v-452q0 -291 -239 -291t-239 291v452h86v-439q0 -226 154 -226q152 0 152 226v439z" />
    <glyph glyph-name="uni01DC" unicode="&#x1dc;" horiz-adv-x="497" 
d="M142 869h90l53 -137h-67zM115.5 595q-16.5 17 -16.5 41t16.5 41t39.5 17q24 0 40.5 -17t16.5 -41t-16.5 -41t-40.5 -17q-23 0 -39.5 17zM294.5 595q-16.5 17 -16.5 41t16.5 41t39.5 17q24 0 40.5 -17t16.5 -41t-16.5 -41t-40.5 -17q-23 0 -39.5 17zM349 486h82v-520h-72
q-3 64 -4 76q-22 -43 -58.5 -65t-81.5 -22q-71 0 -113.5 51.5t-42.5 151.5v328h82v-305q0 -75 22.5 -112t70.5 -37q49 0 82 38t33 113v303z" />
    <glyph glyph-name="uni01E5" unicode="&#x1e5;" horiz-adv-x="526" 
d="M520 264v-74h-67v-179q0 -143 -61.5 -199t-147.5 -56q-69 0 -121 33.5t-69 96.5l64 37q18 -49 49.5 -69.5t77.5 -20.5q64 0 95 40.5t31 139.5v22q-41 -80 -132 -80q-55 0 -100 30t-71.5 91t-26.5 150q0 90 26.5 151t71.5 90.5t100 29.5q97 0 136 -88q3 24 5 77h73v-222
h67zM329 68q34 36 41 122h-101v74h101q-7 85 -41 121t-81 36q-56 0 -88.5 -48.5t-32.5 -146.5q0 -97 32.5 -145.5t88.5 -48.5q47 0 81 36z" />
    <glyph glyph-name="gcaron" unicode="&#x1e7;" horiz-adv-x="518" 
d="M187 713l57 -90l56 90h78l-99 -154h-71l-99 154h78zM453 486v-475q0 -143 -61.5 -199t-147.5 -56q-69 0 -121 33.5t-69 96.5l64 37q18 -49 49.5 -69.5t77.5 -20.5q64 0 95 40.5t31 139.5v22q-41 -80 -132 -80q-55 0 -100 30t-71.5 91t-26.5 150q0 90 26.5 151t71.5 90.5
t100 29.5q97 0 136 -88q3 24 5 77h73zM335.5 76q35.5 44 35.5 150q0 107 -35.5 151t-87.5 44q-56 0 -88.5 -48.5t-32.5 -146.5q0 -97 32.5 -145.5t88.5 -48.5q52 0 87.5 44z" />
    <glyph glyph-name="uni01E9" unicode="&#x1e9;" horiz-adv-x="460" 
d="M40 927l67 -80l66 80h88l-115 -137h-79l-115 137h88zM462 -34h-103l-137 232l-74 -95v-137h-82v761h82v-384v-128q29 41 95 128l107 142h93l-165 -213z" />
    <glyph glyph-name="uni01EF" unicode="&#x1ef;" horiz-adv-x="416" 
d="M138 713l57 -90l56 90h78l-99 -154h-71l-99 154h78zM198 213q95 -7 144.5 -68t49.5 -160q0 -74 -27.5 -125.5t-75.5 -77.5t-108 -26q-70 0 -122 37t-72 118l68 36q27 -119 125 -119q57 0 90.5 41.5t33.5 116.5q0 74 -36 116.5t-114 42.5q-27 0 -51 -4v61l164 218h-246v66
h351v-51z" />
    <glyph glyph-name="uni01F0" unicode="&#x1f0;" horiz-adv-x="213" 
d="M50 712l57 -90l56 90h78l-99 -154h-71l-99 154h78zM-37.5 -236.5q-22.5 7.5 -35.5 22.5l31 65q22 -18 49 -18q34 0 46.5 26t12.5 86v540h82v-543q0 -96 -36.5 -141t-101.5 -45q-25 0 -47.5 7.5z" />
    <glyph glyph-name="uni01F9" unicode="&#x1f9;" horiz-adv-x="497" 
d="M152 713h90l53 -154h-67zM395.5 445.5q42.5 -51.5 42.5 -151.5v-328h-82v305q0 75 -22.5 112t-70.5 37q-49 0 -82 -38t-33 -113v-303h-82v520h72q3 -64 4 -76q22 43 58.5 65t81.5 22q71 0 113.5 -51.5z" />
    <glyph glyph-name="Aringacute" unicode="&#x1fa;" horiz-adv-x="592" 
d="M253 873l53 72h90l-76 -72h-67zM223.5 830.5q27.5 15.5 69.5 15.5q41 0 67.5 -15.5t26.5 -39.5q0 -25 -26.5 -40.5t-67.5 -15.5q-42 0 -69.5 15.5t-27.5 40.5q0 24 27.5 39.5zM259.5 775q12.5 -6 33.5 -6q20 0 32 6t12 16q0 9 -12 15t-32 6q-21 0 -33.5 -6t-12.5 -15
q0 -10 12.5 -16zM328 699l248 -733h-95l-66 209h-248l-63 -209h-88l241 733h71zM391 251l-103 323l-98 -323h201z" />
    <glyph glyph-name="aringacute" unicode="&#x1fb;" horiz-adv-x="471" 
d="M251 900h90l-76 -122h-67zM168.5 569.5q-27.5 26.5 -27.5 68.5q0 41 27.5 67.5t69.5 26.5q41 0 67.5 -26.5t26.5 -67.5q0 -42 -26.5 -68.5t-67.5 -26.5q-42 0 -69.5 26.5zM204.5 672.5q-12.5 -13.5 -12.5 -34.5t12.5 -35t33.5 -14q20 0 32 14t12 35t-12 34.5t-32 13.5
q-21 0 -33.5 -13.5zM363.5 447q48.5 -50 48.5 -149v-332h-72q-2 20 -2 35l-2 35q-21 -40 -55 -60.5t-79 -20.5q-64 0 -110.5 39t-46.5 119q0 81 51.5 125.5t132.5 44.5q47 0 101 -17v18q0 73 -24.5 106t-72.5 33q-72 0 -103 -71l-62 35q18 51 62.5 80.5t105.5 29.5
q79 0 127.5 -50zM330 198q-48 17 -91 17q-51 0 -80 -26t-29 -75q0 -45 24 -67t60 -22q48 0 82 35t34 97v41z" />
    <glyph glyph-name="AEacute" unicode="&#x1fc;" horiz-adv-x="815" 
d="M460 776l53 137h90l-76 -137h-67zM731 307h-255v-266h295v-75h-381v219h-182l-104 -219h-88l350 732h396v-75h-286v-241h255v-75zM390 261v306l-146 -306h146z" />
    <glyph glyph-name="aeacute" unicode="&#x1fd;" horiz-adv-x="745" 
d="M397 712h90l-76 -154h-67zM668 434q49 -63 49 -165q0 -31 -4 -58h-300q4 -94 38 -137.5t90 -43.5q70 0 97 71l63 -36q-18 -56 -62.5 -83t-101.5 -27q-117 0 -164 106q-22 -52 -64 -79t-101 -27q-71 0 -117 38.5t-46 119.5t50.5 125.5t132.5 44.5q47 0 103 -17v10
q0 148 -100 148q-76 0 -105 -82l-62 35q18 56 63.5 88t106.5 32q52 0 89.5 -22.5t57.5 -67.5q24 45 62.5 67.5t88.5 22.5q87 0 136 -63zM633 279q-1 69 -29 106.5t-74 37.5q-45 0 -75.5 -35.5t-38.5 -108.5h217zM331 198q-50 17 -94 17q-51 0 -79 -26t-28 -75
q0 -45 22.5 -67t58.5 -22q49 0 84.5 35t35.5 97v41z" />
    <glyph glyph-name="Oslashacute" unicode="&#x1fe;" horiz-adv-x="638" 
d="M290 778l53 137h90l-76 -137h-67zM492 733h79l-61 -112q74 -97 74 -288q0 -187 -69 -282.5t-196 -95.5q-86 0 -145 46l-38 -69h-80l67 123q-69 97 -69 278q0 188 69.5 282.5t195.5 94.5q82 0 139 -39zM172 145l246 451q-40 37 -99 37q-85 0 -129.5 -75.5t-44.5 -224.5
q0 -118 27 -188zM461 531l-247 -456q41 -42 105 -42q86 0 129.5 75.5t43.5 224.5q0 126 -31 198z" />
    <glyph glyph-name="oslashacute" unicode="&#x1ff;" horiz-adv-x="498" 
d="M208 558l53 154h90l-76 -154h-67zM380 520h78l-55 -96q55 -71 55 -198q0 -89 -27.5 -150t-74.5 -91t-106 -30q-56 0 -103 27l-29 -50h-78l56 97q-56 70 -56 197q0 89 28 150t75.5 91t106.5 30q56 0 101 -27zM145 113l166 288q-26 20 -61 20q-54 0 -88 -48t-34 -147
q0 -68 17 -113zM353 339l-166 -287q29 -21 63 -21q54 0 87 48t33 147q0 68 -17 113z" />
    <glyph glyph-name="uni0218" unicode="&#x218;" horiz-adv-x="490" 
d="M403.5 9q-57.5 -54 -151.5 -54q-86 0 -148 46.5t-81 124.5l70 42q19 -66 60 -100.5t99 -34.5q56 0 86.5 30t30.5 82q0 41 -19.5 69.5t-48.5 47.5t-77 43q-57 29 -92 53t-59.5 64t-24.5 100t27 102.5t72.5 64t100.5 21.5q77 0 130 -40t69 -108l-71 -42q-11 52 -46 82.5
t-85 30.5q-46 0 -75.5 -26.5t-29.5 -74.5q0 -38 18.5 -65t46 -45t75.5 -42q58 -29 94.5 -53.5t61.5 -66.5t25 -104q0 -93 -57.5 -147zM283 -91q17 -16 17 -49q0 -42 -32.5 -69t-86.5 -35v34q30 8 46 20t19 30h-7q-23 0 -36 12.5t-13 30.5t14 30t36 12q26 0 43 -16z" />
    <glyph glyph-name="uni0219" unicode="&#x219;" horiz-adv-x="390" 
d="M318.5 -5q-46.5 -40 -117.5 -40q-65 0 -113 34t-62 93l62 35q13 -44 43.5 -66t69.5 -22t58 19.5t19 50.5q0 26 -13.5 44t-33 28.5t-55.5 26.5q-43 19 -68.5 34.5t-44 43.5t-18.5 71q0 69 47.5 109.5t116.5 40.5q56 0 97 -28t53 -83l-62 -35q-11 36 -35.5 54t-56.5 18
q-36 0 -55 -19.5t-19 -48.5q0 -33 23.5 -51.5t72.5 -38.5q44 -19 71.5 -36t47 -47t19.5 -76q0 -71 -46.5 -111zM237 -86.5q17 -16.5 17 -50.5q0 -44 -32.5 -71.5t-86.5 -35.5v35q59 15 65 52h-7q-23 0 -36 12.5t-13 31.5q0 18 14 30.5t36 12.5q26 0 43 -16.5z" />
    <glyph glyph-name="uni021A" unicode="&#x21a;" horiz-adv-x="492" 
d="M19 698h454v-75h-184v-657h-86v657h-184v75zM284 -90q17 -16 17 -49q0 -43 -32.5 -70t-86.5 -35v34q30 8 46 20t19 31h-7q-23 0 -36 12.5t-13 30.5t14 30t36 12q26 0 43 -16z" />
    <glyph glyph-name="uni021B" unicode="&#x21b;" horiz-adv-x="325" 
d="M319 -12q-37 -33 -96 -33t-98.5 39t-39.5 137v285h-73v70h73v145h82v-145h126v-70h-126v-275q0 -60 16.5 -85t49.5 -25t55 21zM253 -90q17 -16 17 -49q0 -43 -32.5 -70t-86.5 -35v34q30 8 46 20t19 31h-7q-23 0 -36 12.5t-13 30.5t14 30t36 12q26 0 43 -16z" />
    <glyph glyph-name="uni021F" unicode="&#x21f;" horiz-adv-x="497" 
d="M37 927l67 -80l66 80h88l-115 -137h-79l-115 137h88zM395.5 445.5q42.5 -51.5 42.5 -151.5v-328h-82v305q0 75 -22.5 112t-70.5 37q-49 0 -82 -38t-33 -113v-303h-82v761h82v-306q22 38 56.5 57t77.5 19q71 0 113.5 -51.5z" />
    <glyph glyph-name="uni0237" unicode="&#x237;" horiz-adv-x="213" 
d="M-37.5 -236.5q-22.5 7.5 -35.5 22.5l31 65q22 -18 49 -18q34 0 46.5 26t12.5 86v540h82v-543q0 -96 -36.5 -141t-101.5 -45q-25 0 -47.5 7.5z" />
    <glyph glyph-name="uni0251" unicode="&#x251;" horiz-adv-x="519" 
d="M453 486v-520h-73l-2 30q0 21 -3 48q-39 -89 -136 -89q-55 0 -100 30t-71.5 91t-26.5 150q0 90 26.5 151t71.5 90.5t100 29.5q97 0 136 -89q3 27 3 48l2 30h73zM335.5 76q35.5 44 35.5 150q0 107 -35.5 151t-87.5 44q-56 0 -88.5 -48.5t-32.5 -146.5q0 -97 32.5 -145.5
t88.5 -48.5q52 0 87.5 44z" />
    <glyph glyph-name="uni0259" unicode="&#x259;" horiz-adv-x="458" 
d="M362.5 427.5q55.5 -69.5 55.5 -203.5q0 -88 -27 -148.5t-73.5 -90.5t-104.5 -30q-87 0 -136 63t-49 165q0 31 4 58h300q-4 94 -36 137.5t-85 43.5q-33 0 -59 -16.5t-45 -54.5l-63 36q22 55 68 82.5t103 27.5q92 0 147.5 -69.5zM290.5 64.5q30.5 35.5 38.5 108.5h-217
q1 -69 29 -106.5t74 -37.5q45 0 75.5 35.5z" />
    <glyph glyph-name="uni0261" unicode="&#x261;" horiz-adv-x="518" 
d="M453 486v-475q0 -143 -61.5 -199t-147.5 -56q-69 0 -121 33.5t-69 96.5l64 37q18 -49 49.5 -69.5t77.5 -20.5q64 0 95 40.5t31 139.5v22q-41 -80 -132 -80q-55 0 -100 30t-71.5 91t-26.5 150q0 90 26.5 151t71.5 90.5t100 29.5q97 0 136 -88q3 24 5 77h73zM335.5 76
q35.5 44 35.5 150q0 107 -35.5 151t-87.5 44q-56 0 -88.5 -48.5t-32.5 -146.5q0 -97 32.5 -145.5t88.5 -48.5q52 0 87.5 44z" />
    <glyph glyph-name="uni0292" unicode="&#x292;" horiz-adv-x="416" 
d="M198 213q95 -7 144.5 -68t49.5 -160q0 -74 -27.5 -125.5t-75.5 -77.5t-108 -26q-70 0 -122 37t-72 118l68 36q27 -119 125 -119q57 0 90.5 41.5t33.5 116.5q0 74 -36 116.5t-114 42.5q-27 0 -51 -4v61l164 218h-246v66h351v-51z" />
    <glyph glyph-name="uni02BB" unicode="&#x2bb;" horiz-adv-x="221" 
d="M59 538.5q-18 22.5 -18 69.5q0 68 35.5 112t93.5 55v-47q-68 -21 -72 -97q3 1 9 1q25 0 39.5 -17t14.5 -41t-15.5 -41t-39.5 -17q-29 0 -47 22.5z" />
    <glyph glyph-name="circumflex" unicode="&#x2c6;" horiz-adv-x="375" 
d="M152 713h71l99 -154h-78l-56 90l-57 -90h-78z" />
    <glyph glyph-name="caron" unicode="&#x2c7;" horiz-adv-x="375" 
d="M131 713l57 -90l56 90h78l-99 -154h-71l-99 154h78z" />
    <glyph glyph-name="breve" unicode="&#x2d8;" horiz-adv-x="416" 
d="M115 599q-34 41 -34 113h75q2 -43 14 -65.5t38 -22.5q27 0 39 22t14 66h75q0 -72 -34 -113t-94 -41q-59 0 -93 41z" />
    <glyph glyph-name="dotaccent" unicode="&#x2d9;" horiz-adv-x="229" 
d="M74.5 595.5q-16.5 17.5 -16.5 40.5t16.5 40.5t39.5 17.5q24 0 40.5 -17t16.5 -41q0 -23 -17 -40.5t-40 -17.5t-39.5 17.5z" />
    <glyph glyph-name="ring" unicode="&#x2da;" horiz-adv-x="301" 
d="M75 730q31 30 77 30q45 0 75 -30t30 -76t-30 -76t-75 -30q-46 0 -77 30t-31 76t31 76zM115 615q14 -15 37 -15q22 0 35.5 15t13.5 39t-13.5 39t-35.5 15q-23 0 -37 -15t-14 -39t14 -39z" />
    <glyph glyph-name="ogonek" unicode="&#x2db;" horiz-adv-x="293" 
d="M247 -202q-21 -22 -44.5 -32t-53.5 -10q-46 0 -77.5 22t-31.5 66q0 42 30 80.5t73 67.5l58 -22q-88 -58 -88 -114q0 -23 12.5 -34.5t31.5 -11.5q28 0 57 27z" />
    <glyph glyph-name="tilde" unicode="&#x2dc;" horiz-adv-x="366" 
d="M53 576q3 53 24.5 82.5t56.5 29.5q19 0 34 -8.5t32 -23.5q3 -2 11.5 -9.5t15.5 -7.5q22 0 26 49h60q-3 -53 -24 -83t-56 -30q-19 0 -33.5 7.5t-33.5 22.5t-27 15q-21 0 -26 -44h-60z" />
    <glyph glyph-name="hungarumlaut" unicode="&#x2dd;" horiz-adv-x="374" 
d="M55 559l53 154h88l-76 -154h-65zM178 559l53 154h88l-76 -154h-65z" />
    <glyph glyph-name="dotbelowcomb" unicode="&#x323;" horiz-adv-x="0" 
d="M-149.5 -204.5q-16.5 17.5 -16.5 40.5t16.5 40.5t39.5 17.5q24 0 40.5 -17t16.5 -41q0 -23 -17 -40.5t-40 -17.5t-39.5 17.5z" />
    <glyph glyph-name="uni0326" unicode="&#x326;" horiz-adv-x="0" 
d="M-62 -90q17 -16 17 -49q0 -43 -32.5 -70t-86.5 -35v34q30 8 46 20t19 31h-7q-23 0 -36 12.5t-13 30.5t14 30t36 12q26 0 43 -16z" />
    <glyph glyph-name="uni0338" unicode="&#x338;" horiz-adv-x="0" 
d="M-412 -231l317 929h86l-317 -929h-86z" />
    <glyph glyph-name="tonos" unicode="&#x384;" horiz-adv-x="302" 
d="M69 559l47 154h88l-66 -154h-69z" />
    <glyph glyph-name="dieresistonos" unicode="&#x385;" horiz-adv-x="455" 
d="M177 559l32 154h77l-51 -154h-58zM65.5 595q-16.5 17 -16.5 41t16.5 41t39.5 17q24 0 40.5 -17t16.5 -41t-16.5 -41t-40.5 -17q-23 0 -39.5 17zM307.5 595q-16.5 17 -16.5 41t16.5 41t39.5 17q24 0 40.5 -17t16.5 -41t-16.5 -41t-40.5 -17q-23 0 -39.5 17z" />
    <glyph glyph-name="Alphatonos" unicode="&#x386;" horiz-adv-x="592" 
d="M328 699l248 -733h-95l-66 209h-248l-63 -209h-88l241 733h71zM65 544l25 154h85l-44 -154h-66zM391 251l-103 323l-98 -323h201z" />
    <glyph glyph-name="Epsilontonos" unicode="&#x388;" horiz-adv-x="593" 
d="M12 544l25 154h85l-44 -154h-66zM508 307h-255v-266h295v-75h-381v732h372v-75h-286v-241h255v-75z" />
    <glyph glyph-name="Etatonos" unicode="&#x389;" horiz-adv-x="722" 
d="M12 544l25 154h85l-44 -154h-66zM253 384h306v314h86v-732h-86v342h-306v-342h-86v732h86v-314z" />
    <glyph glyph-name="Iotatonos" unicode="&#x38a;" horiz-adv-x="330" 
d="M12 544l25 154h85l-44 -154h-66zM253 -34h-86v732h86v-732z" />
    <glyph glyph-name="Omicrontonos" unicode="&#x38c;" horiz-adv-x="693" 
d="M178.5 615.5q69.5 94.5 195.5 94.5q127 0 196 -95.5t69 -281.5q0 -187 -69 -282.5t-196 -95.5t-196 94.5t-69 283.5q0 188 69.5 282.5zM13 544l25 154h85l-44 -154h-66zM244.5 108q44.5 -75 129.5 -75q86 0 129.5 75.5t43.5 224.5t-44 224.5t-129 75.5t-129.5 -75.5
t-44.5 -224.5q0 -150 44.5 -225z" />
    <glyph glyph-name="Upsilontonos" unicode="&#x38e;" horiz-adv-x="629" 
d="M-14 544l25 154h85l-44 -154h-66zM368 370l151 328h94l-205 -423v-309h-86v310l-216 422h102z" />
    <glyph glyph-name="Omegatonos" unicode="&#x38f;" horiz-adv-x="705" 
d="M669 41v-75h-244v86q143 89 143 311q0 127 -50.5 199t-139.5 72t-139 -72t-50 -199q0 -221 142 -311v-86h-243v75h145q-134 109 -134 324q0 105 34 183t97.5 120t147.5 42t147.5 -42t97.5 -120t34 -183q0 -215 -134 -324h146zM10 544l25 154h85l-44 -154h-66z" />
    <glyph glyph-name="iotadieresistonos" unicode="&#x390;" horiz-adv-x="232" 
d="M69 559l32 154h77l-51 -154h-58zM-42.5 595q-16.5 17 -16.5 41t16.5 41t39.5 17q24 0 40.5 -17t16.5 -41t-16.5 -41t-40.5 -17q-23 0 -39.5 17zM199.5 595q-16.5 17 -16.5 41t16.5 41t39.5 17q24 0 40.5 -17t16.5 -41t-16.5 -41t-40.5 -17q-23 0 -39.5 17zM234 -29
q-29 -16 -67 -16q-63 0 -84 39.5t-21 97.5v394h81v-383q0 -36 10.5 -54.5t35.5 -18.5q19 0 35 9z" />
    <glyph glyph-name="Alpha" unicode="&#x391;" horiz-adv-x="592" 
d="M328 699l248 -733h-95l-66 209h-248l-63 -209h-88l241 733h71zM391 251l-103 323l-98 -323h201z" />
    <glyph glyph-name="Beta" unicode="&#x392;" horiz-adv-x="556" 
d="M516 172q0 -97 -57 -151.5t-162 -54.5h-219v732h191q61 0 108 -24.5t73.5 -69t26.5 -103.5q0 -53 -21 -90.5t-59 -59.5q119 -40 119 -179zM164 623v-246h93q60 0 94.5 33.5t34.5 90.5q0 56 -34.5 89t-94.5 33h-93zM285 40q68 0 103.5 35t35.5 97t-36 98.5t-103 36.5h-121
v-267h121z" />
    <glyph glyph-name="Gamma" unicode="&#x393;" horiz-adv-x="457" 
d="M78 698h372v-74h-286v-658h-86v732z" />
    <glyph glyph-name="uni0394" unicode="&#x394;" horiz-adv-x="571" 
d="M255 698h71l226 -680v-52h-533v52zM115 42h344l-172 526z" />
    <glyph glyph-name="Epsilon" unicode="&#x395;" horiz-adv-x="503" 
d="M419 307h-255v-266h295v-75h-381v732h372v-75h-286v-241h255v-75z" />
    <glyph glyph-name="Zeta" unicode="&#x396;" horiz-adv-x="493" 
d="M455 698v-41l-319 -615h331v-76h-439v42l319 615h-294v75h402z" />
    <glyph glyph-name="Eta" unicode="&#x397;" horiz-adv-x="633" 
d="M164 384h306v314h86v-732h-86v342h-306v-342h-86v732h86v-314z" />
    <glyph glyph-name="Theta" unicode="&#x398;" horiz-adv-x="677" 
d="M130.5 614q76.5 96 208.5 96t208 -96t76 -281q0 -186 -76.5 -282t-207.5 -96q-133 0 -209 96t-76 282q0 185 76.5 281zM194.5 107q51.5 -75 144.5 -75t143.5 75t50.5 226q0 152 -51 226.5t-143 74.5q-93 0 -144.5 -74.5t-51.5 -226.5q0 -151 51.5 -226zM450 300h-223v76
h223v-76z" />
    <glyph glyph-name="Iota" unicode="&#x399;" horiz-adv-x="241" 
d="M164 -34h-86v732h86v-732z" />
    <glyph glyph-name="Kappa" unicode="&#x39a;" horiz-adv-x="575" 
d="M572 -34h-110l-202 361l-96 -123v-238h-86v732h86v-295v-82l70 94l211 283h104l-227 -292z" />
    <glyph glyph-name="Lambda" unicode="&#x39b;" horiz-adv-x="585" 
d="M472 -34l-188 599l-178 -599h-90l235 732h73l245 -732h-97z" />
    <glyph glyph-name="Mu" unicode="&#x39c;" horiz-adv-x="726" 
d="M581 698h68v-732h-84v533l-177 -337h-49l-178 342v-538h-83v732h73l215 -429z" />
    <glyph glyph-name="Nu" unicode="&#x39d;" horiz-adv-x="626" 
d="M149 698l319 -558v558h81v-732h-72l-319 555v-555h-80v732h71z" />
    <glyph glyph-name="Xi" unicode="&#x39e;" horiz-adv-x="508" 
d="M472 622h-436v77h436v-77zM436 308h-364v77h364v-77zM472 -34h-436v77h436v-77z" />
    <glyph glyph-name="Omicron" unicode="&#x39f;" horiz-adv-x="638" 
d="M123.5 615.5q69.5 94.5 195.5 94.5q127 0 196 -95.5t69 -281.5q0 -187 -69 -282.5t-196 -95.5t-196 94.5t-69 283.5q0 188 69.5 282.5zM189.5 108q44.5 -75 129.5 -75q86 0 129.5 75.5t43.5 224.5t-44 224.5t-129 75.5t-129.5 -75.5t-44.5 -224.5q0 -150 44.5 -225z" />
    <glyph glyph-name="Pi" unicode="&#x3a0;" horiz-adv-x="645" 
d="M78 698h490v-732h-85v657h-320v-657h-85v732z" />
    <glyph glyph-name="Rho" unicode="&#x3a1;" horiz-adv-x="515" 
d="M269 698q64 0 113 -28.5t76 -80t27 -117.5t-26.5 -117t-75.5 -79.5t-114 -28.5h-105v-281h-86v732h191zM256 322q38 0 69.5 20t49.5 54t18 76q0 65 -37.5 108.5t-99.5 43.5h-92v-302h92z" />
    <glyph glyph-name="Sigma" unicode="&#x3a3;" horiz-adv-x="482" 
d="M128 622l197 -285l-207 -294h345v-77h-443v66l212 304l-203 297v66h420v-77h-321z" />
    <glyph glyph-name="Tau" unicode="&#x3a4;" horiz-adv-x="492" 
d="M19 698h454v-75h-184v-657h-86v657h-184v75z" />
    <glyph glyph-name="Upsilon" unicode="&#x3a5;" horiz-adv-x="539" 
d="M278 370l151 328h94l-205 -423v-309h-86v310l-216 422h102z" />
    <glyph glyph-name="Phi" unicode="&#x3a6;" horiz-adv-x="687" 
d="M619.5 189.5q-36.5 -61.5 -98 -97.5t-135.5 -45v-81h-84v81q-75 8 -136.5 43.5t-98 97.5t-36.5 145q0 82 36.5 143.5t98 97.5t136.5 44v80h84v-80q75 -9 136.5 -45t97.5 -97t36 -143t-36.5 -143.5zM170 187.5q50 -52.5 132 -62.5v416q-82 -10 -132 -62.5t-50 -145.5
t50 -145.5zM386 125q82 11 131 63.5t49 144.5t-49.5 144.5t-130.5 63.5v-416z" />
    <glyph glyph-name="Chi" unicode="&#x3a7;" horiz-adv-x="573" 
d="M548 698l-214 -359l221 -373h-107l-165 292l-167 -292h-98l222 367l-215 365h106l159 -284l158 284h100z" />
    <glyph glyph-name="Psi" unicode="&#x3a8;" horiz-adv-x="674" 
d="M541 698h86v-249q0 -144 -67 -209.5t-182 -73.5v-200h-85v200q-114 8 -180 73.5t-66 209.5v249h85v-236q0 -116 42.5 -163.5t118.5 -55.5v455h85v-455q76 7 119.5 55t43.5 164v236z" />
    <glyph glyph-name="uni03A9" unicode="&#x3a9;" horiz-adv-x="653" 
d="M617 41v-75h-244v86q143 89 143 311q0 127 -50.5 199t-139.5 72t-139 -72t-50 -199q0 -221 142 -311v-86h-243v75h145q-134 109 -134 324q0 105 34 183t97.5 120t147.5 42t147.5 -42t97.5 -120t34 -183q0 -215 -134 -324h146z" />
    <glyph glyph-name="Iotadieresis" unicode="&#x3aa;" horiz-adv-x="241" 
d="M-6.5 812q-16.5 17 -16.5 41t16.5 41t39.5 17q24 0 40.5 -17t16.5 -41t-16.5 -41t-40.5 -17q-23 0 -39.5 17zM168.5 812q-16.5 17 -16.5 41t16.5 41t39.5 17q24 0 40.5 -17t16.5 -41t-16.5 -41t-40.5 -17q-23 0 -39.5 17zM164 -34h-86v732h86v-732z" />
    <glyph glyph-name="Upsilondieresis" unicode="&#x3ab;" horiz-adv-x="539" 
d="M146.5 812q-16.5 17 -16.5 41t16.5 41t39.5 17q24 0 40.5 -17t16.5 -41t-16.5 -41t-40.5 -17q-23 0 -39.5 17zM321.5 812q-16.5 17 -16.5 41t16.5 41t39.5 17q24 0 40.5 -17t16.5 -41t-16.5 -41t-40.5 -17q-23 0 -39.5 17zM278 370l151 328h94l-205 -423v-309h-86v310
l-216 422h102z" />
    <glyph glyph-name="alphatonos" unicode="&#x3ac;" horiz-adv-x="524" 
d="M258 713h88l-66 -154h-69zM523 -33q-22 -12 -54 -12q-83 0 -95 85q-42 -85 -135 -85q-55 0 -100 30t-71.5 91t-26.5 150q0 90 26.5 151t71.5 90.5t100 29.5q98 0 138 -91l1 22q2 24 3 58h71v-392q0 -35 9.5 -49.5t29.5 -14.5q13 0 23 5zM335.5 76q35.5 44 35.5 150
q0 107 -35.5 151t-87.5 44q-56 0 -88.5 -48.5t-32.5 -146.5q0 -97 32.5 -145.5t88.5 -48.5q52 0 87.5 44z" />
    <glyph glyph-name="epsilontonos" unicode="&#x3ad;" horiz-adv-x="393" 
d="M182 559l47 154h88l-66 -154h-69zM397 77q-18 -60 -64.5 -91t-114.5 -31q-82 0 -131.5 39.5t-49.5 114.5q0 51 28 85.5t78 45.5q-44 14 -67 46.5t-23 72.5q0 65 47.5 101.5t120.5 36.5q61 0 103.5 -28t56.5 -79l-63 -37q-12 35 -38 52t-59 17q-36 0 -59 -19t-23 -53
t23.5 -55t74.5 -21h41v-70h-39q-60 0 -88.5 -24t-28.5 -66q0 -41 25.5 -62.5t67.5 -21.5q88 0 120 84z" />
    <glyph glyph-name="etatonos" unicode="&#x3ae;" horiz-adv-x="512" 
d="M278 713h88l-66 -154h-69zM410.5 445.5q42.5 -51.5 42.5 -151.5v-525h-82v502q0 75 -22.5 112t-70.5 37q-49 0 -82 -38t-33 -113v-303h-81v392q0 35 -9.5 49.5t-29.5 14.5q-13 0 -23 -5l-9 68q20 12 54 12q42 0 64.5 -21t29.5 -63q22 42 57.5 63t80.5 21
q71 0 113.5 -51.5z" />
    <glyph glyph-name="iotatonos" unicode="&#x3af;" horiz-adv-x="232" 
d="M64 559l47 154h88l-66 -154h-69zM234 -29q-29 -16 -67 -16q-63 0 -84 39.5t-21 97.5v394h81v-383q0 -36 10.5 -54.5t35.5 -18.5q19 0 35 9z" />
    <glyph glyph-name="upsilondieresistonos" unicode="&#x3b0;" horiz-adv-x="475" 
d="M202 559l32 154h77l-51 -154h-58zM90.5 595q-16.5 17 -16.5 41t16.5 41t39.5 17q24 0 40.5 -17t16.5 -41t-16.5 -41t-40.5 -17q-23 0 -39.5 17zM332.5 595q-16.5 17 -16.5 41t16.5 41t39.5 17q24 0 40.5 -17t16.5 -41t-16.5 -41t-40.5 -17q-23 0 -39.5 17zM58 485h81
v-290q0 -77 21.5 -121t75.5 -44q55 0 86 53.5t31 169.5t-39 232h85q36 -118 36 -233q0 -149 -56 -223t-148 -74q-82 0 -127.5 57.5t-45.5 172.5v300z" />
    <glyph glyph-name="alpha" unicode="&#x3b1;" horiz-adv-x="524" 
d="M523 -33q-22 -12 -54 -12q-83 0 -95 85q-42 -85 -135 -85q-55 0 -100 30t-71.5 91t-26.5 150q0 90 26.5 151t71.5 90.5t100 29.5q98 0 138 -91l1 22q2 24 3 58h71v-392q0 -35 9.5 -49.5t29.5 -14.5q13 0 23 5zM335.5 76q35.5 44 35.5 150q0 107 -35.5 151t-87.5 44
q-56 0 -88.5 -48.5t-32.5 -146.5q0 -97 32.5 -145.5t88.5 -48.5q52 0 87.5 44z" />
    <glyph glyph-name="beta" unicode="&#x3b2;" horiz-adv-x="511" 
d="M446 304.5q33 -50.5 33 -127.5q0 -66 -25.5 -116t-72 -78t-106.5 -28q-86 0 -130 55v-241h-81v716q0 126 53.5 188.5t140.5 62.5q52 0 93 -23t64.5 -67t23.5 -103q0 -56 -23.5 -99.5t-66.5 -68.5q64 -20 97 -70.5zM359.5 67.5q33.5 37.5 33.5 109.5q0 79 -40.5 118.5
t-111.5 39.5h-22v65h17q62 0 90 40t28 102q0 58 -25.5 88t-72.5 30q-56 0 -83.5 -43.5t-27.5 -134.5v-293q0 -80 34.5 -119.5t91.5 -39.5q55 0 88.5 37.5z" />
    <glyph glyph-name="gamma" unicode="&#x3b3;" horiz-adv-x="446" 
d="M365 182q-36 -106 -119 -228v-185h-81v166l-157 550h92l116 -456q56 103 80 189.5t24 168.5q0 39 -9 98h82q8 -61 8 -97q0 -100 -36 -206z" />
    <glyph glyph-name="delta" unicode="&#x3b4;" horiz-adv-x="496" 
d="M368 473q49 -53 68.5 -112.5t19.5 -127.5q0 -135 -57 -206.5t-151 -71.5q-61 0 -108.5 31.5t-74.5 93t-27 150.5q0 127 54 196.5t142 74.5l-155 165v61h314v-69h-197zM335 82q33 52 33 148q0 98 -33.5 149.5t-86.5 51.5q-54 0 -87.5 -51.5t-33.5 -149.5q0 -96 34 -148
t87 -52q54 0 87 52z" />
    <glyph glyph-name="epsilon" unicode="&#x3b5;" horiz-adv-x="393" 
d="M397 77q-18 -60 -64.5 -91t-114.5 -31q-82 0 -131.5 39.5t-49.5 114.5q0 51 28 85.5t78 45.5q-44 14 -67 46.5t-23 72.5q0 65 47.5 101.5t120.5 36.5q61 0 103.5 -28t56.5 -79l-63 -37q-12 35 -38 52t-59 17q-36 0 -59 -19t-23 -53t23.5 -55t74.5 -21h41v-70h-39
q-60 0 -88.5 -24t-28.5 -66q0 -41 25.5 -62.5t67.5 -21.5q88 0 120 84z" />
    <glyph glyph-name="zeta" unicode="&#x3b6;" horiz-adv-x="409" 
d="M372.5 -21.5q36.5 -30.5 36.5 -83.5q0 -78 -83 -124l-40 45q39 29 39 63q0 29 -22.5 47t-70.5 31q-57 16 -99.5 40.5t-71 75.5t-28.5 134q0 117 63 234.5t184 216.5h-226v69h340v-56q-152 -123 -214 -235.5t-62 -218.5q0 -62 18.5 -99t49 -55.5t77.5 -32.5
q73 -21 109.5 -51.5z" />
    <glyph glyph-name="eta" unicode="&#x3b7;" horiz-adv-x="512" 
d="M410.5 445.5q42.5 -51.5 42.5 -151.5v-525h-82v502q0 75 -22.5 112t-70.5 37q-49 0 -82 -38t-33 -113v-303h-81v392q0 35 -9.5 49.5t-29.5 14.5q-13 0 -23 -5l-9 68q20 12 54 12q42 0 64.5 -21t29.5 -63q22 42 57.5 63t80.5 21q71 0 113.5 -51.5z" />
    <glyph glyph-name="theta" unicode="&#x3b8;" horiz-adv-x="511" 
d="M470 347q0 -208 -54.5 -300t-159.5 -92q-106 0 -160 92.5t-54 299.5q0 391 214 391t214 -391zM163.5 595q-31.5 -68 -35.5 -207h255q-4 141 -35 208t-92 67t-92.5 -68zM350 100q31 70 34 219h-257q3 -146 34.5 -217.5t94.5 -71.5t94 70z" />
    <glyph glyph-name="iota" unicode="&#x3b9;" horiz-adv-x="232" 
d="M234 -29q-29 -16 -67 -16q-63 0 -84 39.5t-21 97.5v394h81v-383q0 -36 10.5 -54.5t35.5 -18.5q19 0 35 9z" />
    <glyph glyph-name="kappa" unicode="&#x3ba;" horiz-adv-x="452" 
d="M449 -34h-100l-137 245l-65 -89v-156h-81v520h81v-253l129 185q27 39 52 59t58 20q35 0 56 -21l-27 -61q-9 7 -25 7t-27.5 -10t-29.5 -34l-69 -95z" />
    <glyph glyph-name="lambda" unicode="&#x3bb;" horiz-adv-x="482" 
d="M495 -30q-33 -15 -68 -15q-44 0 -67.5 21t-34.5 63l-88 331l-145 -404h-84l197 515l-41 130q-9 28 -20 40t-26 12q-14 0 -26.5 -7.5t-26.5 -21.5l-27 61q42 43 97 43q47 0 68 -27.5t35 -76.5l160 -549q10 -32 20 -43.5t28 -11.5q13 0 25 4.5t14 5.5z" />
    <glyph glyph-name="uni03BC" unicode="&#x3bc;" horiz-adv-x="508" 
d="M507 -33q-21 -12 -52 -12q-82 0 -92 93q-37 -93 -127 -93q-55 0 -89 31v-217h-81v717h81v-300q0 -81 23 -118.5t75 -37.5q46 0 78.5 38.5t32.5 119.5v297h80v-391q0 -35 9.5 -49.5t29.5 -14.5q12 0 23 5z" />
    <glyph glyph-name="nu" unicode="&#x3bd;" horiz-adv-x="432" 
d="M393 485q8 -57 8 -93q0 -98 -40 -200.5t-134 -225.5h-62l-157 519h92l114 -425q58 98 82 175.5t24 155.5q0 39 -9 94h82z" />
    <glyph glyph-name="xi" unicode="&#x3be;" horiz-adv-x="394" 
d="M371 -22q33 -29 33 -84q0 -42 -22 -71.5t-60 -51.5l-41 44q22 16 31 31.5t9 33.5q0 28 -21 45.5t-62 29.5q-102 27 -152 74.5t-50 134.5q0 72 36 125t98 77q-48 18 -76.5 54.5t-28.5 88.5q0 96 89 148h-111v70h333v-63q-121 -5 -174 -48.5t-53 -105.5q0 -49 36.5 -80
t98.5 -31h79v-69h-58q-96 0 -140 -43.5t-44 -111.5q0 -46 18.5 -75t51 -45.5t84.5 -30.5q63 -17 96 -46z" />
    <glyph glyph-name="omicron" unicode="&#x3bf;" horiz-adv-x="500" 
d="M69 376q28 61 75.5 91t106.5 30t106 -29.5t74.5 -90.5t27.5 -151q0 -89 -27.5 -150t-74.5 -91t-106 -30t-106.5 30t-75.5 91t-28 150t28 150zM163 79q34 -48 88 -48t87 48t33 147t-33.5 147t-86.5 48q-54 0 -88 -48t-34 -147t34 -147z" />
    <glyph glyph-name="pi" unicode="&#x3c0;" horiz-adv-x="510" 
d="M501 -29q-30 -16 -67 -16q-59 0 -82 37t-23 100v325h-162v-451h-81v451h-79v69h483v-69h-80v-314q0 -36 10.5 -54.5t34.5 -18.5q21 0 35 9z" />
    <glyph glyph-name="rho" unicode="&#x3c1;" horiz-adv-x="516" 
d="M375.5 468.5q45.5 -28.5 72.5 -89.5t27 -153t-27 -153t-71.5 -89.5t-97.5 -28.5q-87 0 -134 60v-246h-81v440q0 150 57 219t152 69q57 0 102.5 -28.5zM355 83q32 49 32 145q0 99 -32 146.5t-84 47.5q-55 0 -90.5 -43t-35.5 -151q0 -105 36 -149.5t90 -44.5q52 0 84 49z
" />
    <glyph glyph-name="uni03C2" unicode="&#x3c2;" horiz-adv-x="420" 
d="M354.5 -24.5q33.5 -31.5 33.5 -82.5q0 -77 -83 -122l-41 44q22 16 31 31t9 33q0 29 -16.5 45t-53.5 28q-63 20 -104.5 49.5t-65 83t-23.5 138.5q0 97 30 158.5t78 88.5t102 27q57 0 100.5 -27t63.5 -81l-63 -37q-29 70 -101 70q-53 0 -89 -47.5t-36 -148.5q0 -90 32 -135
t103 -66q60 -18 93.5 -49.5z" />
    <glyph glyph-name="sigma" unicode="&#x3c3;" horiz-adv-x="521" 
d="M518 486v-69h-132q35 -33 54.5 -83.5t19.5 -115.5q0 -84 -28 -143.5t-75.5 -89.5t-105.5 -30t-106 30.5t-76 90.5t-28 145q0 129 62.5 197t164.5 68h250zM338 78.5q33 48.5 33 142.5q0 88 -34 139t-86 51q-34 0 -62 -23t-44 -66t-16 -101q0 -93 34 -142t88 -49t87 48.5z
" />
    <glyph glyph-name="tau" unicode="&#x3c4;" horiz-adv-x="399" 
d="M388 486v-69h-156v-314q0 -73 46 -73q20 0 35 9l10 -68q-29 -16 -67 -16q-60 0 -82.5 38t-22.5 99v325h-144v69h381z" />
    <glyph glyph-name="upsilon" unicode="&#x3c5;" horiz-adv-x="475" 
d="M58 485h81v-290q0 -77 21.5 -121t75.5 -44q55 0 86 53.5t31 169.5t-39 232h85q36 -118 36 -233q0 -149 -56 -223t-148 -74q-82 0 -127.5 57.5t-45.5 172.5v300z" />
    <glyph glyph-name="phi" unicode="&#x3c6;" horiz-adv-x="635" 
d="M562 87q-32 -58 -85 -90t-118 -40v-188h-81v188q-65 8 -119 40t-86 90t-32 139t32 139t86 90t119 40v157h81v-157q65 -8 118 -40t85 -90t32 -139t-32 -139zM165 87q43 -48 113 -58v394q-70 -10 -113 -58t-43 -139t43 -139zM359 29q69 11 111 58.5t42 138.5t-42 138.5
t-111 58.5v-394z" />
    <glyph glyph-name="chi" unicode="&#x3c7;" horiz-adv-x="446" 
d="M224 213l126 272h85l-172 -355l172 -361h-89l-124 273l-124 -273h-86l171 357l-171 359h90z" />
    <glyph glyph-name="psi" unicode="&#x3c8;" horiz-adv-x="604" 
d="M511.5 45.5q-56.5 -73.5 -160.5 -87.5v-189h-81v187q-114 8 -163 75.5t-49 193.5v260h81v-249q0 -70 11.5 -112.5t40 -65.5t79.5 -27v621h81v-618q69 12 102 65t33 158q0 117 -39 228h85q36 -116 36 -228q0 -138 -56.5 -211.5z" />
    <glyph glyph-name="omega" unicode="&#x3c9;" horiz-adv-x="665" 
d="M540 486q40 -53 62 -123t22 -149q0 -84 -23 -142.5t-61.5 -87.5t-83.5 -29q-39 0 -71.5 24t-52.5 72q-19 -48 -51.5 -72t-71.5 -24q-45 0 -83.5 29.5t-61.5 87.5t-23 142q0 78 22 149t62 123h90q-44 -59 -66.5 -128.5t-22.5 -144.5q0 -86 25 -134.5t65 -48.5q77 0 77 174
v137h79v-137q0 -92 20 -133t58 -41q40 0 64.5 48.5t24.5 134.5q0 75 -22.5 144.5t-66.5 128.5h90z" />
    <glyph glyph-name="iotadieresis" unicode="&#x3ca;" horiz-adv-x="232" 
d="M-26.5 595q-16.5 17 -16.5 41t16.5 41t39.5 17q24 0 40.5 -17t16.5 -41t-16.5 -41t-40.5 -17q-23 0 -39.5 17zM152.5 595q-16.5 17 -16.5 41t16.5 41t39.5 17q24 0 40.5 -17t16.5 -41t-16.5 -41t-40.5 -17q-23 0 -39.5 17zM234 -29q-29 -16 -67 -16q-63 0 -84 39.5
t-21 97.5v394h81v-383q0 -36 10.5 -54.5t35.5 -18.5q19 0 35 9z" />
    <glyph glyph-name="upsilondieresis" unicode="&#x3cb;" horiz-adv-x="475" 
d="M106.5 595q-16.5 17 -16.5 41t16.5 41t39.5 17q24 0 40.5 -17t16.5 -41t-16.5 -41t-40.5 -17q-23 0 -39.5 17zM285.5 595q-16.5 17 -16.5 41t16.5 41t39.5 17q24 0 40.5 -17t16.5 -41t-16.5 -41t-40.5 -17q-23 0 -39.5 17zM58 485h81v-290q0 -77 21.5 -121t75.5 -44
q55 0 86 53.5t31 169.5t-39 232h85q36 -118 36 -233q0 -149 -56 -223t-148 -74q-82 0 -127.5 57.5t-45.5 172.5v300z" />
    <glyph glyph-name="omicrontonos" unicode="&#x3cc;" horiz-adv-x="500" 
d="M212 558l47 154h88l-66 -154h-69zM69 376q28 61 75.5 91t106.5 30t106 -29.5t74.5 -90.5t27.5 -151q0 -89 -27.5 -150t-74.5 -91t-106 -30t-106.5 30t-75.5 91t-28 150t28 150zM163 79q34 -48 88 -48t87 48t33 147t-33.5 147t-86.5 48q-54 0 -88 -48t-34 -147t34 -147z
" />
    <glyph glyph-name="upsilontonos" unicode="&#x3cd;" horiz-adv-x="475" 
d="M197 559l47 154h88l-66 -154h-69zM58 485h81v-290q0 -77 21.5 -121t75.5 -44q55 0 86 53.5t31 169.5t-39 232h85q36 -118 36 -233q0 -149 -56 -223t-148 -74q-82 0 -127.5 57.5t-45.5 172.5v300z" />
    <glyph glyph-name="omegatonos" unicode="&#x3ce;" horiz-adv-x="665" 
d="M294 559l47 154h88l-66 -154h-69zM540 486q40 -53 62 -123t22 -149q0 -84 -23 -142.5t-61.5 -87.5t-83.5 -29q-39 0 -71.5 24t-52.5 72q-19 -48 -51.5 -72t-71.5 -24q-45 0 -83.5 29.5t-61.5 87.5t-23 142q0 78 22 149t62 123h90q-44 -59 -66.5 -128.5t-22.5 -144.5
q0 -86 25 -134.5t65 -48.5q77 0 77 174v137h79v-137q0 -92 20 -133t58 -41q40 0 64.5 48.5t24.5 134.5q0 75 -22.5 144.5t-66.5 128.5h90z" />
    <glyph glyph-name="uni03D1" unicode="&#x3d1;" horiz-adv-x="534" 
d="M520 388v-73h-71q-4 -176 -55 -268t-156 -92q-82 0 -134.5 52.5t-63.5 137.5l80 30q10 -66 39 -105.5t79 -39.5q64 0 93 71t32 214h-65q-138 0 -201.5 49t-63.5 146q0 63 24 115t68.5 82.5t103.5 30.5q100 0 156.5 -90.5t62.5 -259.5h72zM134.5 448q15.5 -28 57.5 -44
t118 -16h52q-4 136 -36.5 205.5t-97.5 69.5q-50 0 -79.5 -40.5t-29.5 -105.5q0 -41 15.5 -69z" />
    <glyph glyph-name="uni03D2" unicode="&#x3d2;" horiz-adv-x="520" 
d="M517 698v-76h-10q-63 0 -110 -58.5t-71.5 -156t-24.5 -211.5v-230h-87v237q0 135 -55 267.5t-154 227.5h111q47 -48 85.5 -117t60.5 -149q29 117 91 191.5t140 74.5h24z" />
    <glyph glyph-name="uni03D6" unicode="&#x3d6;" horiz-adv-x="688" 
d="M14 486h660v-69h-93q54 -93 54 -215q0 -80 -23 -136t-60.5 -83.5t-82.5 -27.5q-41 0 -73.5 24t-51.5 72q-20 -48 -52.5 -72t-73.5 -24q-45 0 -82.5 27.5t-60.5 83.5t-23 136q0 120 54 215h-92v69zM491 417h-295q-59 -95 -59 -214q0 -81 24.5 -127t64.5 -46q34 0 56 39
t22 135v109h80v-109q0 -96 21.5 -135t54.5 -39q40 0 65 46.5t25 126.5q0 117 -59 214z" />
    <glyph glyph-name="uni0400" unicode="&#x400;" horiz-adv-x="503" 
d="M150 913h90l53 -137h-67zM419 307h-255v-266h295v-75h-381v732h372v-75h-286v-241h255v-75z" />
    <glyph glyph-name="uni0401" unicode="&#x401;" horiz-adv-x="503" 
d="M136.5 812q-16.5 17 -16.5 41t16.5 41t39.5 17q24 0 40.5 -17t16.5 -41t-16.5 -41t-40.5 -17q-23 0 -39.5 17zM311.5 812q-16.5 17 -16.5 41t16.5 41t39.5 17q24 0 40.5 -17t16.5 -41t-16.5 -41t-40.5 -17q-23 0 -39.5 17zM419 307h-255v-266h295v-75h-381v732h372v-75
h-286v-241h255v-75z" />
    <glyph glyph-name="uni0402" unicode="&#x402;" horiz-adv-x="705" 
d="M569.5 401.5q49.5 -27.5 78.5 -82.5t29 -132q0 -76 -30 -129.5t-83 -80t-120 -22.5v77q67 -2 103.5 35.5t36.5 116.5q0 78 -33.5 123t-95.5 45q-40 0 -78 -18.5t-62.5 -59t-24.5 -101.5v-207h-87v657h-184v75h455v-75h-184v-269q31 38 75 56.5t95 18.5q60 0 109.5 -27.5z
" />
    <glyph glyph-name="uni0403" unicode="&#x403;" horiz-adv-x="457" 
d="M240 772l53 154h90l-76 -154h-67zM78 698h372v-74h-286v-658h-86v732z" />
    <glyph glyph-name="uni0404" unicode="&#x404;" horiz-adv-x="550" 
d="M460 147l69 -41q-25 -77 -75.5 -114t-128.5 -37q-80 0 -141 41.5t-95.5 126.5t-34.5 210t34.5 209.5t96 126t141.5 41.5q77 0 127.5 -37t75.5 -114l-69 -41q-34 114 -136 114q-75 0 -123 -65.5t-55 -190.5h231v-74h-231q5 -131 53 -200t125 -69q102 0 136 114z" />
    <glyph glyph-name="uni0405" unicode="&#x405;" horiz-adv-x="490" 
d="M403.5 9q-57.5 -54 -151.5 -54q-86 0 -148 46.5t-81 124.5l70 42q19 -66 60 -100.5t99 -34.5q56 0 86.5 30t30.5 82q0 41 -19.5 69.5t-48.5 47.5t-77 43q-57 29 -92 53t-59.5 64t-24.5 100t27 102.5t72.5 64t100.5 21.5q77 0 130 -40t69 -108l-71 -42q-11 52 -46 82.5
t-85 30.5q-46 0 -75.5 -26.5t-29.5 -74.5q0 -38 18.5 -65t46 -45t75.5 -42q58 -29 94.5 -53.5t61.5 -66.5t25 -104q0 -93 -57.5 -147z" />
    <glyph glyph-name="uni0406" unicode="&#x406;" horiz-adv-x="241" 
d="M164 -34h-86v732h86v-732z" />
    <glyph glyph-name="uni0407" unicode="&#x407;" horiz-adv-x="241" 
d="M-6.5 812q-16.5 17 -16.5 41t16.5 41t39.5 17q24 0 40.5 -17t16.5 -41t-16.5 -41t-40.5 -17q-23 0 -39.5 17zM168.5 812q-16.5 17 -16.5 41t16.5 41t39.5 17q24 0 40.5 -17t16.5 -41t-16.5 -41t-40.5 -17q-23 0 -39.5 17zM164 -34h-86v732h86v-732z" />
    <glyph glyph-name="uni0408" unicode="&#x408;" horiz-adv-x="410" 
d="M13 79l70 42q13 -49 35 -68.5t51 -19.5q51 0 67.5 43.5t16.5 115.5v506h86v-515q0 -228 -169 -228q-125 0 -157 124z" />
    <glyph glyph-name="uni0409" unicode="&#x409;" horiz-adv-x="938" 
d="M689 388q105 0 163 -58t58 -154q0 -97 -57.5 -153.5t-163.5 -56.5h-223v657h-248l-15 -425q-3 -81 -16.5 -131.5t-53.5 -81t-116 -30.5v77q40 0 60.5 19t28.5 55.5t10 100.5l18 491h418v-310h137zM677 39q70 0 106 37t36 100q0 62 -36.5 100.5t-105.5 38.5h-125v-276h125
z" />
    <glyph glyph-name="uni040A" unicode="&#x40a;" horiz-adv-x="951" 
d="M700 383q106 0 164.5 -56.5t58.5 -152.5q0 -97 -58 -152.5t-165 -55.5h-225v343h-309v-343h-88v732h88v-315h309v315h89v-315h136zM688 39q70 0 106 36.5t36 98.5q0 63 -36 100t-106 37h-124v-272h124z" />
    <glyph glyph-name="uni040B" unicode="&#x40b;" horiz-adv-x="694" 
d="M598.5 370q56.5 -59 56.5 -176v-228h-88v209q0 81 -28 129t-99 48q-62 0 -106 -44t-44 -135v-207h-87v657h-184v75h455v-75h-184v-263q54 69 159 69q93 0 149.5 -59z" />
    <glyph glyph-name="uni040C" unicode="&#x40c;" horiz-adv-x="590" 
d="M280 776l53 137h90l-76 -137h-67zM343 341l236 -375h-110l-205 335h-98v-335h-88v732h88v-322h99l203 322h99z" />
    <glyph glyph-name="uni040D" unicode="&#x40d;" horiz-adv-x="634" 
d="M214 926h90l53 -154h-67zM485 699h72v-732h-82v573l-325 -573h-72v732h82v-573z" />
    <glyph glyph-name="uni040E" unicode="&#x40e;" horiz-adv-x="539" 
d="M180.5 815.5q-34.5 38.5 -34.5 98.5h75q3 -78 52 -78q50 0 53 78h75q0 -60 -34.5 -98.5t-93.5 -38.5q-58 0 -92.5 38.5zM282 278l149 421h92l-204 -532q-31 -79 -56 -123t-57 -66.5t-78 -22.5q-49 0 -78 23v78q32 -23 68 -23q26 0 44.5 11.5t36 39t41.5 81.5l-224 534h99
z" />
    <glyph glyph-name="uni040F" unicode="&#x40f;" horiz-adv-x="628" 
d="M166 42h299v656h86v-732h-194l-5 -172h-74l-5 172h-195v732h88v-656z" />
    <glyph glyph-name="uni0410" unicode="&#x410;" horiz-adv-x="592" 
d="M328 699l248 -733h-95l-66 209h-248l-63 -209h-88l241 733h71zM391 251l-103 323l-98 -323h201z" />
    <glyph glyph-name="uni0411" unicode="&#x411;" horiz-adv-x="549" 
d="M294 388q106 0 164.5 -58t58.5 -154q0 -97 -58 -153.5t-165 -56.5h-223v733h389v-75h-301v-236h135zM282 39q70 0 106 37t36 100q0 62 -36 100.5t-106 38.5h-123v-276h123z" />
    <glyph glyph-name="uni0412" unicode="&#x412;" horiz-adv-x="556" 
d="M516 172q0 -97 -57 -151.5t-162 -54.5h-219v732h191q61 0 108 -24.5t73.5 -69t26.5 -103.5q0 -53 -21 -90.5t-59 -59.5q119 -40 119 -179zM164 623v-246h93q60 0 94.5 33.5t34.5 90.5q0 56 -34.5 89t-94.5 33h-93zM285 40q68 0 103.5 35t35.5 97t-36 98.5t-103 36.5h-121
v-267h121z" />
    <glyph glyph-name="uni0413" unicode="&#x413;" horiz-adv-x="457" 
d="M78 698h372v-74h-286v-658h-86v732z" />
    <glyph glyph-name="uni0414" unicode="&#x414;" horiz-adv-x="656" 
d="M629 41l-7 -247h-74l-5 172h-445l-5 -172h-74l-7 247h33q40 0 64 31t36 92t18 162l21 372h372v-657h73zM468 41v582h-203l-18 -306q-6 -102 -20.5 -169t-47.5 -107h289z" />
    <glyph glyph-name="uni0415" unicode="&#x415;" horiz-adv-x="503" 
d="M419 307h-255v-266h295v-75h-381v732h372v-75h-286v-241h255v-75z" />
    <glyph glyph-name="uni0416" unicode="&#x416;" horiz-adv-x="860" 
d="M636 341l220 -375h-110l-188 335h-85v-335h-87v335h-81l-191 -335h-110l219 376l-206 356h98l188 -322h83v322h87v-322h87l185 322h98z" />
    <glyph glyph-name="uni0417" unicode="&#x417;" horiz-adv-x="490" 
d="M422 287q33 -49 33 -115q0 -64 -26.5 -113.5t-75 -76.5t-112.5 -27q-82 0 -137.5 40.5t-78.5 125.5l70 38q17 -64 55 -96t90 -32q56 0 89.5 39t33.5 103t-40 101.5t-117 37.5h-26l1 75h31q61 0 92 37t31 92q0 53 -28 85.5t-73 32.5q-46 0 -80 -33.5t-52 -95.5l-68 38
q23 84 76 126t128 42q58 0 101.5 -25t66.5 -68.5t23 -97.5q0 -52 -26 -96t-76 -67q62 -21 95 -70z" />
    <glyph glyph-name="uni0418" unicode="&#x418;" horiz-adv-x="634" 
d="M485 699h72v-732h-82v573l-325 -573h-72v732h82v-573z" />
    <glyph glyph-name="uni0419" unicode="&#x419;" horiz-adv-x="634" 
d="M224.5 815.5q-34.5 38.5 -34.5 98.5h75q3 -78 52 -78q50 0 53 78h75q0 -60 -34.5 -98.5t-93.5 -38.5q-58 0 -92.5 38.5zM485 699h72v-732h-82v573l-325 -573h-72v732h82v-573z" />
    <glyph glyph-name="uni041A" unicode="&#x41a;" horiz-adv-x="590" 
d="M343 341l236 -375h-110l-205 335h-98v-335h-88v732h88v-322h99l203 322h99z" />
    <glyph glyph-name="uni041B" unicode="&#x41b;" horiz-adv-x="629" 
d="M552 698v-732h-87v657h-247l-15 -425q-3 -81 -16.5 -131.5t-53.5 -81t-116 -30.5v77q40 0 60.5 19t28.5 55.5t10 100.5l18 491h418z" />
    <glyph glyph-name="uni041C" unicode="&#x41c;" horiz-adv-x="726" 
d="M581 698h68v-732h-84v533l-177 -337h-49l-178 342v-538h-83v732h73l215 -429z" />
    <glyph glyph-name="uni041D" unicode="&#x41d;" horiz-adv-x="633" 
d="M164 384h306v314h86v-732h-86v342h-306v-342h-86v732h86v-314z" />
    <glyph glyph-name="uni041E" unicode="&#x41e;" horiz-adv-x="638" 
d="M123.5 615.5q69.5 94.5 195.5 94.5q127 0 196 -95.5t69 -281.5q0 -187 -69 -282.5t-196 -95.5t-196 94.5t-69 283.5q0 188 69.5 282.5zM189.5 108q44.5 -75 129.5 -75q86 0 129.5 75.5t43.5 224.5t-44 224.5t-129 75.5t-129.5 -75.5t-44.5 -224.5q0 -150 44.5 -225z" />
    <glyph glyph-name="uni041F" unicode="&#x41f;" horiz-adv-x="645" 
d="M78 698h490v-732h-85v657h-320v-657h-85v732z" />
    <glyph glyph-name="uni0420" unicode="&#x420;" horiz-adv-x="515" 
d="M269 698q64 0 113 -28.5t76 -80t27 -117.5t-26.5 -117t-75.5 -79.5t-114 -28.5h-105v-281h-86v732h191zM256 322q38 0 69.5 20t49.5 54t18 76q0 65 -37.5 108.5t-99.5 43.5h-92v-302h92z" />
    <glyph glyph-name="uni0421" unicode="&#x421;" horiz-adv-x="550" 
d="M460 147l69 -41q-25 -77 -75.5 -114t-128.5 -37q-80 0 -141 41.5t-95.5 126.5t-34.5 210t34.5 209.5t96 126t141.5 41.5q77 0 127.5 -37t75.5 -114l-69 -41q-34 114 -136 114q-81 0 -130 -76.5t-49 -222.5t49 -223t130 -77q102 0 136 114z" />
    <glyph glyph-name="uni0422" unicode="&#x422;" horiz-adv-x="492" 
d="M19 698h454v-75h-184v-657h-86v657h-184v75z" />
    <glyph glyph-name="uni0423" unicode="&#x423;" horiz-adv-x="539" 
d="M282 278l149 421h92l-204 -532q-31 -79 -56 -123t-57 -66.5t-78 -22.5q-49 0 -78 23v78q32 -23 68 -23q26 0 44.5 11.5t36 39t41.5 81.5l-224 534h99z" />
    <glyph glyph-name="uni0424" unicode="&#x424;" horiz-adv-x="687" 
d="M619.5 189.5q-36.5 -61.5 -98 -97.5t-135.5 -45v-81h-84v81q-75 8 -136.5 43.5t-98 97.5t-36.5 145q0 82 36.5 143.5t98 97.5t136.5 44v80h84v-80q75 -9 136.5 -45t97.5 -97t36 -143t-36.5 -143.5zM170 187.5q50 -52.5 132 -62.5v416q-82 -10 -132 -62.5t-50 -145.5
t50 -145.5zM386 125q82 11 131 63.5t49 144.5t-49.5 144.5t-130.5 63.5v-416z" />
    <glyph glyph-name="uni0425" unicode="&#x425;" horiz-adv-x="573" 
d="M548 698l-214 -359l221 -373h-107l-165 292l-167 -292h-98l222 367l-215 365h106l159 -284l158 284h100z" />
    <glyph glyph-name="uni0426" unicode="&#x426;" horiz-adv-x="659" 
d="M465 698h86v-656h72l-7 -248h-74l-5 172h-459v732h88v-656h299v656z" />
    <glyph glyph-name="uni0427" unicode="&#x427;" horiz-adv-x="570" 
d="M404 698h89v-732h-89v315q-55 -58 -159 -58q-94 0 -150 50.5t-56 153.5v271h88v-252q0 -146 127 -146q63 0 106.5 36t43.5 112v250z" />
    <glyph glyph-name="uni0428" unicode="&#x428;" horiz-adv-x="859" 
d="M475 41h221v657h86v-732h-704v732h88v-657h220l-1 657h89z" />
    <glyph glyph-name="uni0429" unicode="&#x429;" horiz-adv-x="884" 
d="M695 698h87v-657h67l-7 -247h-74l-3 172h-687v732h88v-657h220l-1 657h89l1 -657h220v657z" />
    <glyph glyph-name="uni042A" unicode="&#x42a;" horiz-adv-x="654" 
d="M403 388q105 0 164 -58t59 -154q0 -98 -58 -154t-165 -56h-223v658h-169v75h257v-311h135zM391 39q70 0 107 37.5t37 99.5t-37 100.5t-107 38.5h-123v-276h123z" />
    <glyph glyph-name="uni042B" unicode="&#x42b;" horiz-adv-x="771" 
d="M301 388q106 0 164.5 -58t58.5 -154q0 -97 -58 -153.5t-165 -56.5h-223v733h88v-311h135zM694 -34h-87v733h87v-733zM289 39q70 0 106 37t36 100q0 62 -36 100.5t-106 38.5h-123v-276h123z" />
    <glyph glyph-name="uni042C" unicode="&#x42c;" horiz-adv-x="552" 
d="M301 388q106 0 164.5 -58t58.5 -154q0 -97 -58 -153.5t-165 -56.5h-223v733h88v-311h135zM289 39q70 0 106 37t36 100q0 62 -36 100.5t-106 38.5h-123v-276h123z" />
    <glyph glyph-name="uni042D" unicode="&#x42d;" horiz-adv-x="550" 
d="M351 102q48 69 53 200h-231v74h231q-7 125 -55 190.5t-123 65.5q-102 0 -136 -114l-69 41q25 77 75.5 114t127.5 37q80 0 141.5 -41.5t96 -126t34.5 -209.5t-34.5 -210t-95.5 -126.5t-141 -41.5q-78 0 -128.5 37t-75.5 114l69 41q34 -114 136 -114q77 0 125 69z" />
    <glyph glyph-name="uni042E" unicode="&#x42e;" horiz-adv-x="817" 
d="M699.5 614.5q63.5 -95.5 63.5 -281.5q0 -187 -63.5 -282.5t-180.5 -95.5q-112 0 -175.5 88.5t-67.5 265.5h-112v-343h-86v732h86v-315h113q9 163 71.5 245t170.5 82q117 0 180.5 -95.5zM633 108.5q39 75.5 39 224.5t-39 224.5t-114 75.5t-113.5 -75.5t-38.5 -224.5
q0 -150 38.5 -225t113.5 -75t114 75.5z" />
    <glyph glyph-name="uni042F" unicode="&#x42f;" horiz-adv-x="542" 
d="M464 698v-732h-86v302h-103h-2l-167 -302h-106l182 319q-58 24 -91.5 75.5t-33.5 121.5q0 64 27.5 113t77.5 76t113 27h189zM378 342v282h-91q-61 0 -99 -40.5t-38 -101.5t38.5 -100.5t98.5 -39.5h91z" />
    <glyph glyph-name="uni0430" unicode="&#x430;" horiz-adv-x="471" 
d="M363.5 447q48.5 -50 48.5 -149v-332h-72q-2 20 -2 35l-2 35q-21 -40 -55 -60.5t-79 -20.5q-64 0 -110.5 39t-46.5 119q0 81 51.5 125.5t132.5 44.5q47 0 101 -17v18q0 73 -24.5 106t-72.5 33q-72 0 -103 -71l-62 35q18 51 62.5 80.5t105.5 29.5q79 0 127.5 -50zM330 198
q-48 17 -91 17q-51 0 -80 -26t-29 -75q0 -45 24 -67t60 -22q48 0 82 35t34 97v41z" />
    <glyph glyph-name="uni0431" unicode="&#x431;" horiz-adv-x="500" 
d="M360.5 468q44.5 -29 71.5 -90.5t27 -152.5q0 -140 -58 -205t-148 -65q-212 0 -212 358q0 120 20.5 203.5t67.5 135.5q27 30 59.5 45t62 19t72.5 5q36 1 57 4t36 13v-76q-13 -9 -32 -12t-51 -4q-51 -1 -86 -9.5t-62 -39.5q-23 -26 -35 -69t-18 -104q21 34 54.5 53.5
t76.5 19.5q53 0 97.5 -29zM337.5 78.5q32.5 48.5 32.5 143.5q0 99 -32.5 149t-84.5 50q-54 0 -87.5 -50.5t-33.5 -147.5q0 -95 33.5 -144t87.5 -49q52 0 84.5 48.5z" />
    <glyph glyph-name="uni0432" unicode="&#x432;" horiz-adv-x="449" 
d="M418 113q0 -70 -43 -108.5t-123 -38.5h-186v520h172q72 0 114 -38.5t42 -102.5q0 -38 -16.5 -66t-46.5 -44q87 -27 87 -122zM147 417v-153h83q41 0 60 21.5t19 57.5q0 34 -19.5 54t-60.5 20h-82zM241 35q48 0 69.5 22t21.5 60q0 79 -89 79h-96v-161h94z" />
    <glyph glyph-name="uni0433" unicode="&#x433;" horiz-adv-x="371" 
d="M66 486h296v-69h-212v-451h-84v520z" />
    <glyph glyph-name="uni0434" unicode="&#x434;" horiz-adv-x="531" 
d="M506 36l-7 -242h-72l-5 172h-322l-5 -172h-73l-7 242h33q38 0 56 27t24.5 71.5t10.5 132.5l2 33l10 186h285v-450h70zM353 36v381h-124l-8 -126q-6 -103 -16 -162t-33 -93h181z" />
    <glyph glyph-name="uni0435" unicode="&#x435;" horiz-adv-x="459" 
d="M382 434q49 -63 49 -165q0 -31 -4 -58h-300q4 -93 38.5 -137t89.5 -44q70 0 97 71l63 -36q-18 -56 -62.5 -83t-103.5 -27q-95 0 -151.5 68.5t-56.5 200.5q0 90 27 151.5t73.5 91.5t104.5 30q87 0 136 -63zM168.5 387.5q-30.5 -35.5 -38.5 -108.5h217q-1 69 -29 106.5
t-74 37.5q-45 0 -75.5 -35.5z" />
    <glyph glyph-name="uni0436" unicode="&#x436;" horiz-adv-x="632" 
d="M405 261l130 225h92l-152 -255l159 -265h-100l-130 226h-46v-226h-83v226h-44l-132 -226h-98l157 265l-150 255h90l132 -225h45v225h83v-225h47z" />
    <glyph glyph-name="uni0437" unicode="&#x437;" horiz-adv-x="393" 
d="M70 114q32 -84 120 -84q42 0 67.5 21.5t25.5 62.5q0 42 -28.5 66t-88.5 24h-39v70h41q51 0 74.5 21t23.5 55t-23 53t-59 19q-33 0 -59 -17t-38 -52l-63 37q14 51 56.5 79t103.5 28q73 0 120.5 -36.5t47.5 -101.5q0 -40 -23 -72.5t-67 -46.5q50 -11 78 -45.5t28 -85.5
q0 -75 -49.5 -114.5t-131.5 -39.5q-68 0 -114.5 31t-64.5 91z" />
    <glyph glyph-name="uni0438" unicode="&#x438;" horiz-adv-x="506" 
d="M148 486v-370l223 370h69v-520h-83v369l-222 -369h-69v520h82z" />
    <glyph glyph-name="uni0439" unicode="&#x439;" horiz-adv-x="506" 
d="M159 599q-34 41 -34 113h75q2 -43 14 -65.5t38 -22.5q27 0 39 22t14 66h75q0 -72 -34 -113t-94 -41q-59 0 -93 41zM148 486v-370l223 370h69v-520h-83v369l-222 -369h-69v520h82z" />
    <glyph glyph-name="uni043A" unicode="&#x43a;" horiz-adv-x="458" 
d="M211 261l149 224h90l-170 -254l177 -265h-98l-148 225h-63v-225h-82v520h82v-225h63z" />
    <glyph glyph-name="uni043B" unicode="&#x43b;" horiz-adv-x="482" 
d="M416 486v-520h-82v451h-153l-9 -260q-2 -63 -14 -105.5t-46.5 -69.5t-99.5 -27v77q45 0 62 31.5t19 101.5l11 321h312z" />
    <glyph glyph-name="uni043C" unicode="&#x43c;" horiz-adv-x="593" 
d="M454 486h73v-520h-79v351l-124 -260h-53l-126 252v-343h-79v520h73l160 -327z" />
    <glyph glyph-name="uni043D" unicode="&#x43d;" horiz-adv-x="502" 
d="M150 263h202v223h84v-520h-84v229h-202v-229h-84v520h84v-223z" />
    <glyph glyph-name="uni043E" unicode="&#x43e;" horiz-adv-x="500" 
d="M69 376q28 61 75.5 91t106.5 30t106 -29.5t74.5 -90.5t27.5 -151q0 -89 -27.5 -150t-74.5 -91t-106 -30t-106.5 30t-75.5 91t-28 150t28 150zM163 79q34 -48 88 -48t87 48t33 147t-33.5 147t-86.5 48q-54 0 -88 -48t-34 -147t34 -147z" />
    <glyph glyph-name="uni043F" unicode="&#x43f;" horiz-adv-x="502" 
d="M66 486h370v-520h-84v451h-202v-451h-84v520z" />
    <glyph glyph-name="uni0440" unicode="&#x440;" horiz-adv-x="519" 
d="M380 467q45 -30 71.5 -91t26.5 -150q0 -90 -26.5 -151t-71.5 -90.5t-100 -29.5q-91 0 -132 79v-265h-82v716h72q2 -53 5 -79q40 91 137 91q55 0 100 -30zM359.5 79.5q32.5 48.5 32.5 146.5q0 97 -32.5 145.5t-88.5 48.5q-52 0 -87.5 -44t-35.5 -150q0 -107 35.5 -151
t87.5 -44q56 0 88.5 48.5z" />
    <glyph glyph-name="uni0441" unicode="&#x441;" horiz-adv-x="417" 
d="M303.5 48q24.5 17 37.5 54l64 -38q-17 -57 -58.5 -83t-94.5 -26q-58 0 -105.5 30t-76.5 91t-29 150q0 88 28.5 149.5t76.5 91.5t106 30q54 0 95.5 -26.5t57.5 -82.5l-64 -38q-13 37 -37.5 54t-54.5 17q-53 0 -87.5 -48.5t-34.5 -146.5t34.5 -146.5t87.5 -48.5
q30 0 54.5 17z" />
    <glyph glyph-name="uni0442" unicode="&#x442;" horiz-adv-x="398" 
d="M9 417v69h380v-69h-149v-451h-82v451h-149z" />
    <glyph glyph-name="uni0443" unicode="&#x443;" horiz-adv-x="452" 
d="M234 80l121 405h86l-187 -575q-25 -78 -60.5 -116t-93.5 -38q-53 0 -86 31l32 65q24 -19 55 -19t49.5 20.5t35.5 75.5l7 23l-185 533h94z" />
    <glyph glyph-name="uni0444" unicode="&#x444;" horiz-adv-x="635" 
d="M562 87q-32 -58 -85 -90t-118 -40v-188h-81v188q-65 8 -119 40t-86 90t-32 139t32 139t86 90t119 40v157h81v-157q65 -8 118 -40t85 -90t32 -139t-32 -139zM165 87q43 -48 113 -58v394q-70 -10 -113 -58t-43 -139t43 -139zM359 29q69 11 111 58.5t42 138.5t-42 138.5
t-111 58.5v-394z" />
    <glyph glyph-name="uni0445" unicode="&#x445;" horiz-adv-x="431" 
d="M218 298l109 187h93l-161 -256l161 -263h-96l-110 189l-109 -189h-93l161 258l-161 261h96z" />
    <glyph glyph-name="uni0446" unicode="&#x446;" horiz-adv-x="531" 
d="M436 486v-450h69l-7 -242h-70l-5 172h-357v520h84v-450h202v450h84z" />
    <glyph glyph-name="uni0447" unicode="&#x447;" horiz-adv-x="478" 
d="M328 486h84v-520h-84v204q-39 -43 -114 -43q-76 0 -121 40.5t-45 120.5v198h85v-177q0 -54 22.5 -80t69.5 -26t75 26t28 82v175z" />
    <glyph glyph-name="uni0448" unicode="&#x448;" horiz-adv-x="677" 
d="M380 36h148v450h83v-520h-545v520h83v-450h148v450h83v-450z" />
    <glyph glyph-name="uni0449" unicode="&#x449;" horiz-adv-x="706" 
d="M611 486v-450h69l-7 -242h-70l-4 172h-533v520h83v-450h148v450h83v-450h148v450h83z" />
    <glyph glyph-name="uni044A" unicode="&#x44a;" horiz-adv-x="530" 
d="M330 292q84 0 130 -45.5t46 -115.5q0 -72 -46 -118.5t-130 -46.5h-176v451h-140v69h226v-194h90zM314 36q45 0 74 20.5t29 74.5t-28.5 72.5t-74.5 18.5h-74v-186h74z" />
    <glyph glyph-name="uni044B" unicode="&#x44b;" horiz-adv-x="640" 
d="M241 292q84 0 130 -45.5t46 -115.5q0 -72 -46 -118.5t-130 -46.5h-175v520h86v-194h89zM574 -34h-85v520h85v-520zM226 36q45 0 74 20.5t29 74.5q0 53 -28.5 72t-74.5 19h-74v-186h74z" />
    <glyph glyph-name="uni044C" unicode="&#x44c;" horiz-adv-x="441" 
d="M241 292q84 0 130 -45.5t46 -115.5q0 -72 -46 -118.5t-130 -46.5h-175v520h86v-194h89zM226 36q45 0 74 20.5t29 74.5q0 53 -28.5 72t-74.5 19h-74v-186h74z" />
    <glyph glyph-name="uni044D" unicode="&#x44d;" horiz-adv-x="417" 
d="M251 73q34 42 38 127h-157v66h156q-7 78 -40 116.5t-80 38.5q-30 0 -54.5 -17t-37.5 -54l-64 38q16 57 56 83t96 26q61 0 108.5 -30t75.5 -91t28 -150t-28 -150t-76 -91t-108 -30q-55 0 -95 26t-57 83l64 38q13 -37 37.5 -54t54.5 -17q49 0 83 42z" />
    <glyph glyph-name="uni044E" unicode="&#x44e;" horiz-adv-x="665" 
d="M529 467.5q44 -29.5 69.5 -90.5t25.5 -151q0 -89 -25.5 -150t-69.5 -91t-100 -30q-82 0 -135.5 61.5t-59.5 180.5h-84v-231h-84v519h84v-219h84q9 114 62 172.5t133 58.5q56 0 100 -29.5zM507 78.5q30 48.5 30 147.5t-30 147.5t-79 48.5q-50 0 -79.5 -48.5t-29.5 -147.5
t29.5 -147.5t79.5 -48.5q49 0 79 48.5z" />
    <glyph glyph-name="uni044F" unicode="&#x44f;" horiz-adv-x="454" 
d="M388 486v-520h-84v214h-71l-128 -214h-95l138 225q-45 17 -70.5 54t-25.5 88q0 69 44.5 111t118.5 42h173zM304 249v168h-81q-38 0 -61 -23.5t-23 -60.5q0 -38 22 -61t62 -23h81z" />
    <glyph glyph-name="uni0450" unicode="&#x450;" horiz-adv-x="459" 
d="M142 712h90l53 -154h-67zM382 434q49 -63 49 -165q0 -31 -4 -58h-300q4 -93 38.5 -137t89.5 -44q70 0 97 71l63 -36q-18 -56 -62.5 -83t-103.5 -27q-95 0 -151.5 68.5t-56.5 200.5q0 90 27 151.5t73.5 91.5t104.5 30q87 0 136 -63zM168.5 387.5q-30.5 -35.5 -38.5 -108.5
h217q-1 69 -29 106.5t-74 37.5q-45 0 -75.5 -35.5z" />
    <glyph glyph-name="uni0451" unicode="&#x451;" horiz-adv-x="459" 
d="M115.5 594q-16.5 17 -16.5 41t16.5 41t39.5 17q24 0 40.5 -17t16.5 -41t-16.5 -41t-40.5 -17q-23 0 -39.5 17zM294.5 594q-16.5 17 -16.5 41t16.5 41t39.5 17q24 0 40.5 -17t16.5 -41t-16.5 -41t-40.5 -17q-23 0 -39.5 17zM382 434q49 -63 49 -165q0 -31 -4 -58h-300
q4 -93 38.5 -137t89.5 -44q70 0 97 71l63 -36q-18 -56 -62.5 -83t-103.5 -27q-95 0 -151.5 68.5t-56.5 200.5q0 90 27 151.5t73.5 91.5t104.5 30q87 0 136 -63zM168.5 387.5q-30.5 -35.5 -38.5 -108.5h217q-1 69 -29 106.5t-74 37.5q-45 0 -75.5 -35.5z" />
    <glyph glyph-name="uni0452" unicode="&#x452;" horiz-adv-x="513" 
d="M411.5 445.5q42.5 -51.5 42.5 -151.5v-379q0 -82 -34 -120.5t-91 -38.5q-43 0 -78 24l34 64q20 -12 40 -12q24 0 35.5 18t11.5 68v353q0 75 -22.5 112t-70.5 37q-49 0 -82 -38t-33 -113v-303h-82v598h-69v70h69v93h82v-93h120v-70h-120v-143q22 38 56.5 57t77.5 19
q71 0 113.5 -51.5z" />
    <glyph glyph-name="uni0453" unicode="&#x453;" horiz-adv-x="371" 
d="M183 559l53 154h90l-76 -154h-67zM66 486h296v-69h-212v-451h-84v520z" />
    <glyph glyph-name="uni0454" unicode="&#x454;" horiz-adv-x="417" 
d="M303.5 48q24.5 17 37.5 54l64 -38q-17 -57 -57 -83t-95 -26q-60 0 -108 30t-76 91t-28 150t28 150t75.5 91t108.5 30q56 0 96 -26t56 -83l-64 -38q-13 37 -37.5 54t-54.5 17q-47 0 -80 -38.5t-40 -116.5h156v-66h-157q4 -85 38 -127t83 -42q30 0 54.5 17z" />
    <glyph glyph-name="uni0455" unicode="&#x455;" horiz-adv-x="390" 
d="M318.5 -5q-46.5 -40 -117.5 -40q-65 0 -113 34t-62 93l62 35q13 -44 43.5 -66t69.5 -22t58 19.5t19 50.5q0 26 -13.5 44t-33 28.5t-55.5 26.5q-43 19 -68.5 34.5t-44 43.5t-18.5 71q0 69 47.5 109.5t116.5 40.5q56 0 97 -28t53 -83l-62 -35q-11 36 -35.5 54t-56.5 18
q-36 0 -55 -19.5t-19 -48.5q0 -33 23.5 -51.5t72.5 -38.5q44 -19 71.5 -36t47 -47t19.5 -76q0 -71 -46.5 -111z" />
    <glyph glyph-name="uni0456" unicode="&#x456;" horiz-adv-x="214" 
d="M69.5 597.5q-15.5 16.5 -15.5 39.5q0 22 15.5 39t36.5 17q22 0 38 -16.5t16 -39.5q0 -22 -16 -39t-38 -17q-21 0 -36.5 16.5zM148 -34h-82v519h82v-519z" />
    <glyph glyph-name="uni0457" unicode="&#x457;" horiz-adv-x="229" 
d="M8.5 595.5q-16.5 17.5 -16.5 40.5t16.5 40.5t39.5 17.5q24 0 40.5 -17t16.5 -41q0 -23 -17 -40.5t-40 -17.5t-39.5 17.5zM140.5 595.5q-16.5 17.5 -16.5 40.5t16.5 40.5t39.5 17.5q24 0 40.5 -17t16.5 -41q0 -23 -17 -40.5t-40 -17.5t-39.5 17.5zM72 -34v519h85v-519h-85
z" />
    <glyph glyph-name="uni0458" unicode="&#x458;" horiz-adv-x="213" 
d="M70 598q-16 17 -16 39t15.5 39t36.5 17t37 -17t16 -39q0 -23 -15.5 -39.5t-37.5 -16.5q-20 0 -36 17zM-37.5 -236.5q-22.5 7.5 -35.5 22.5l31 65q22 -18 49 -18q34 0 46.5 26t12.5 86v540h82v-543q0 -96 -36.5 -141t-101.5 -45q-25 0 -47.5 7.5z" />
    <glyph glyph-name="uni0459" unicode="&#x459;" horiz-adv-x="705" 
d="M507 292q83 0 128.5 -45t45.5 -116q0 -72 -45.5 -118.5t-128.5 -46.5h-173v451h-153l-9 -260q-2 -63 -14 -105.5t-46.5 -69.5t-99.5 -27v77q45 0 62 31.5t19 101.5l11 321h312v-194h91zM492 36q103 0 103 95q0 53 -28.5 72t-74.5 19h-76v-186h76z" />
    <glyph glyph-name="uni045A" unicode="&#x45a;" horiz-adv-x="725" 
d="M525 275q83 0 129.5 -43t46.5 -109q0 -68 -46 -112.5t-130 -44.5h-173v241h-202v-241h-84v520h84v-211h202v211h84v-211h89zM511 36q45 0 73.5 18.5t28.5 68.5q0 48 -28.5 66t-73.5 18h-75v-171h75z" />
    <glyph glyph-name="uni045B" unicode="&#x45b;" horiz-adv-x="513" 
d="M411.5 445.5q42.5 -51.5 42.5 -151.5v-328h-82v305q0 75 -22.5 112t-70.5 37q-49 0 -82 -38t-33 -113v-303h-82v598h-69v70h69v93h82v-93h120v-70h-120v-143q22 38 56.5 57t77.5 19q71 0 113.5 -51.5z" />
    <glyph glyph-name="uni045C" unicode="&#x45c;" horiz-adv-x="458" 
d="M214 559l53 154h90l-76 -154h-67zM211 261l149 224h90l-170 -254l177 -265h-98l-148 225h-63v-225h-82v520h82v-225h63z" />
    <glyph glyph-name="uni045D" unicode="&#x45d;" horiz-adv-x="506" 
d="M149 713h90l53 -154h-67zM148 486v-370l223 370h69v-520h-83v369l-222 -369h-69v520h82z" />
    <glyph glyph-name="uni045E" unicode="&#x45e;" horiz-adv-x="452" 
d="M135 599q-34 41 -34 113h75q2 -43 14 -65.5t38 -22.5q27 0 39 22t14 66h75q0 -72 -34 -113t-94 -41q-59 0 -93 41zM234 80l121 405h86l-187 -575q-25 -78 -60.5 -116t-93.5 -38q-53 0 -86 31l32 65q24 -19 55 -19t49.5 20.5t35.5 75.5l7 23l-185 533h94z" />
    <glyph glyph-name="uni045F" unicode="&#x45f;" horiz-adv-x="502" 
d="M150 36h202v450h84v-520h-146l-4 -172h-70l-5 172h-145v520h84v-450z" />
    <glyph glyph-name="uni0462" unicode="&#x462;" horiz-adv-x="617" 
d="M366 388q105 0 164 -58t59 -154q0 -98 -58 -154t-165 -56h-223v546h-134v73h134v114h88v-114h180v-73h-180v-124h135zM354 39q70 0 106 37t36 100q0 62 -36 100.5t-106 38.5h-123v-276h123z" />
    <glyph glyph-name="uni0463" unicode="&#x463;" horiz-adv-x="478" 
d="M278 292q84 0 130 -45t46 -116q0 -72 -46 -118.5t-130 -46.5h-175v451h-98v69h98v241h85v-241h151v-69h-151v-125h90zM262 36q46 0 75 20.5t29 74.5q0 53 -28.5 72t-75.5 19h-74v-186h74z" />
    <glyph glyph-name="uni046B" unicode="&#x46b;" horiz-adv-x="540" 
d="M333 247q94 0 137.5 -69.5t43.5 -211.5h-81q0 83 -13 129.5t-36 64t-59 17.5h-15v-211h-81v211h-16q-36 0 -59 -17.5t-35.5 -64t-12.5 -129.5h-80q0 142 43 211.5t138 69.5h8l-158 239h424l-156 -239h8zM351 417h-162l84 -127z" />
    <glyph glyph-name="uni0472" unicode="&#x472;" horiz-adv-x="638" 
d="M515 614.5q69 -95.5 69 -281.5q0 -187 -69 -282.5t-196 -95.5t-196 94.5t-69 283.5q0 188 69.5 282.5t195.5 94.5q127 0 196 -95.5zM196 568.5q-44 -64.5 -50 -192.5h345q-6 128 -49.5 192.5t-122.5 64.5t-123 -64.5zM443.5 101q43.5 68 47.5 201h-345q4 -134 48 -201.5
t125 -67.5t124.5 68z" />
    <glyph glyph-name="uni0473" unicode="&#x473;" horiz-adv-x="500" 
d="M357 467.5q47 -29.5 74.5 -90.5t27.5 -151q0 -89 -27.5 -150t-74.5 -91t-106 -30t-106.5 30t-75.5 91t-28 150t28 150t75.5 91t106.5 30t106 -29.5zM171 383.5q-33 -37.5 -40 -114.5h238q-7 77 -39 114.5t-79 37.5t-80 -37.5zM332.5 71.5q32.5 40.5 37.5 123.5h-240
q6 -83 39 -123.5t82 -40.5t81.5 40.5z" />
    <glyph glyph-name="uni0474" unicode="&#x474;" horiz-adv-x="625" 
d="M631.5 698.5q25.5 -11.5 37.5 -28.5l-31 -68q-25 27 -56 27q-23 0 -39.5 -16t-28.5 -54l-190 -593h-67l-241 732h97l181 -588l138 469q20 70 52.5 100.5t86.5 30.5q35 0 60.5 -11.5z" />
    <glyph glyph-name="uni0475" unicode="&#x475;" horiz-adv-x="485" 
d="M467 485.5q21 -11.5 32 -27.5l-28 -64q-19 28 -43 28q-29 0 -52 -71l-124 -385h-68l-173 519h94l118 -393l84 278q22 71 46.5 99t65.5 28q27 0 48 -11.5z" />
    <glyph glyph-name="uni0490" unicode="&#x490;" horiz-adv-x="459" 
d="M78 698h294l19 138h70l-13 -212h-282v-658h-88v732z" />
    <glyph glyph-name="uni0491" unicode="&#x491;" horiz-adv-x="382" 
d="M291 486l16 118h68l-9 -187h-216v-451h-84v520h225z" />
    <glyph glyph-name="uni0492" unicode="&#x492;" horiz-adv-x="460" 
d="M72 698h377v-74h-289v-249h109v-74h-109v-335h-88v335h-72v74h72v323z" />
    <glyph glyph-name="uni0493" unicode="&#x493;" horiz-adv-x="395" 
d="M86 486h303v-69h-219v-162h110v-69h-110v-220h-84v220h-75v69h75v231z" />
    <glyph glyph-name="uni0497" unicode="&#x497;" horiz-adv-x="632" 
d="M627 486l-152 -255l117 -195h56l-7 -242h-71l-5 172h-31l-130 226h-46v-226h-83v226h-44l-132 -226h-98l157 265l-150 255h90l132 -225h45v225h83v-225h47l130 225h92z" />
    <glyph glyph-name="uni049A" unicode="&#x49a;" horiz-adv-x="576" 
d="M553 698l-224 -357l189 -300h61l-7 -247h-73l-5 172h-39l-205 335h-84v-335h-88v732h88v-322h85l203 322h99z" />
    <glyph glyph-name="uni049B" unicode="&#x49b;" horiz-adv-x="458" 
d="M450 485l-170 -254l130 -195h56l-7 -242h-71l-5 172h-24l-148 225h-63v-225h-82v520h82v-225h63l149 224h90z" />
    <glyph glyph-name="uni049C" unicode="&#x49c;" horiz-adv-x="587" 
d="M373 342l203 -376h-104l-175 335h-24v-144h-65v144h-45v-335h-85v732h85v-322h45v146h65v-146h26l169 322h95z" />
    <glyph glyph-name="uni049D" unicode="&#x49d;" 
d="M248 261l125 224h88l-144 -254l151 -265h-96l-125 226h-13v-99h-59v99h-28v-226h-81v520h81v-225h28v101h59v-101h14z" />
    <glyph glyph-name="uni04A2" unicode="&#x4a2;" horiz-adv-x="657" 
d="M556 698v-657h68l-7 -247h-73l-5 172h-71v342h-304v-342h-86v732h86v-314h304v314h88z" />
    <glyph glyph-name="uni04A3" unicode="&#x4a3;" horiz-adv-x="529" 
d="M436 486v-450h66l-8 -242h-70l-5 172h-67v229h-202v-229h-84v520h84v-223h202v223h84z" />
    <glyph glyph-name="uni04AE" unicode="&#x4ae;" horiz-adv-x="539" 
d="M278 370l151 328h94l-205 -423v-309h-86v310l-216 422h102z" />
    <glyph glyph-name="uni04AF" unicode="&#x4af;" horiz-adv-x="450" 
d="M232 91l119 394h88l-168 -493v-223h-84v217l-176 499h94z" />
    <glyph glyph-name="uni04B0" unicode="&#x4b0;" horiz-adv-x="539" 
d="M278 370l151 328h94l-175 -361h128v-80h-158v-291h-87v291h-154v80h123l-184 361h102z" />
    <glyph glyph-name="uni04B1" unicode="&#x4b1;" horiz-adv-x="450" 
d="M232 91l119 394h88l-153 -449h116v-70h-131v-197h-84v197h-132v70h114l-158 449h94z" />
    <glyph glyph-name="uni04B2" unicode="&#x4b2;" horiz-adv-x="565" 
d="M548 698l-214 -359l177 -298h54l-7 -247h-73l-6 172h-31l-165 292l-167 -292h-98l222 367l-215 365h106l159 -284l158 284h100z" />
    <glyph glyph-name="uni04B3" unicode="&#x4b3;" horiz-adv-x="432" 
d="M420 485l-161 -256l118 -193h58l-7 -242h-71l-5 172h-28l-110 189l-109 -189h-93l161 258l-161 261h96l110 -187l109 187h93z" />
    <glyph glyph-name="uni04B8" unicode="&#x4b8;" horiz-adv-x="570" 
d="M405 698h88v-732h-89v315q-38 -40 -102 -53v-144h-66v139q-90 2 -143.5 53t-53.5 151v271h88v-252q0 -136 109 -145v148h66v-143q50 13 76.5 50t26.5 91v251z" />
    <glyph glyph-name="uni04B9" unicode="&#x4b9;" horiz-adv-x="489" 
d="M341 486h82v-520h-84v208q-28 -29 -69 -40v-101h-66v94q-71 3 -113.5 44t-42.5 117v198h84v-177q0 -41 13.5 -69t58.5 -35v121h66v-119q35 8 53 32.5t18 71.5v175z" />
    <glyph glyph-name="uni04BA" unicode="&#x4ba;" horiz-adv-x="571" 
d="M167 -34h-89v732h89v-315q55 58 159 58q94 0 150 -50.5t56 -153.5v-271h-88v252q0 146 -127 146q-63 0 -106.5 -36t-43.5 -112v-250z" />
    <glyph glyph-name="uni04BB" unicode="&#x4bb;" horiz-adv-x="497" 
d="M395.5 445.5q42.5 -51.5 42.5 -151.5v-328h-82v305q0 75 -22.5 112t-70.5 37q-49 0 -82 -38t-33 -113v-303h-82v761h82v-306q22 38 56.5 57t77.5 19q71 0 113.5 -51.5z" />
    <glyph glyph-name="uni04CA" unicode="&#x4ca;" horiz-adv-x="528" 
d="M352 486h84v-450h68l-71 -242h-70l40 172h-51v229h-202v-229h-84v520h84v-223h202v223z" />
    <glyph glyph-name="uni04D8" unicode="&#x4d8;" horiz-adv-x="590" 
d="M474.5 612.5q61.5 -97.5 61.5 -282.5q0 -180 -65.5 -277.5t-186.5 -97.5q-117 0 -174 88t-57 241q0 35 3 72h388q-4 140 -47 208.5t-115 68.5q-49 0 -86 -30.5t-57 -87.5l-75 40q64 155 223 155q126 0 187.5 -97.5zM397.5 92.5q38.5 60.5 45.5 183.5h-298
q1 -120 34.5 -182t107.5 -62q72 0 110.5 60.5z" />
    <glyph glyph-name="uni04D9" unicode="&#x4d9;" horiz-adv-x="458" 
d="M362.5 427.5q55.5 -69.5 55.5 -203.5q0 -88 -27 -148.5t-73.5 -90.5t-104.5 -30q-87 0 -136 63t-49 165q0 31 4 58h300q-4 94 -36 137.5t-85 43.5q-33 0 -59 -16.5t-45 -54.5l-63 36q22 55 68 82.5t103 27.5q92 0 147.5 -69.5zM290.5 64.5q30.5 35.5 38.5 108.5h-217
q1 -69 29 -106.5t74 -37.5q45 0 75.5 35.5z" />
    <glyph glyph-name="uni04E8" unicode="&#x4e8;" horiz-adv-x="638" 
d="M515 614.5q69 -95.5 69 -281.5q0 -187 -69 -282.5t-196 -95.5t-196 94.5t-69 283.5q0 188 69.5 282.5t195.5 94.5q127 0 196 -95.5zM196 568.5q-44 -64.5 -50 -192.5h345q-6 128 -49.5 192.5t-122.5 64.5t-123 -64.5zM443.5 101q43.5 68 47.5 201h-345q4 -134 48 -201.5
t125 -67.5t124.5 68z" />
    <glyph glyph-name="uni04E9" unicode="&#x4e9;" horiz-adv-x="500" 
d="M357 467.5q47 -29.5 74.5 -90.5t27.5 -151q0 -89 -27.5 -150t-74.5 -91t-106 -30t-106.5 30t-75.5 91t-28 150t28 150t75.5 91t106.5 30t106 -29.5zM171 383.5q-33 -37.5 -40 -114.5h238q-7 77 -39 114.5t-79 37.5t-80 -37.5zM332.5 71.5q32.5 40.5 37.5 123.5h-240
q6 -83 39 -123.5t82 -40.5t81.5 40.5z" />
    <glyph glyph-name="uni1E00" unicode="&#x1e00;" horiz-adv-x="592" 
d="M328 699l248 -733h-95l-66 209h-248l-63 -209h-88l241 733h71zM391 251l-103 323l-98 -323h201zM216 -96.5q31 24.5 77 24.5q45 0 75 -24.5t30 -61.5t-30 -61.5t-75 -24.5q-46 0 -77 24.5t-31 61.5t31 61.5zM256 -189.5q14 -12.5 37 -12.5q22 0 35.5 12.5t13.5 31.5
q0 20 -13.5 32t-35.5 12q-23 0 -37 -12t-14 -32q0 -19 14 -31.5z" />
    <glyph glyph-name="uni1E01" unicode="&#x1e01;" horiz-adv-x="471" 
d="M363.5 447q48.5 -50 48.5 -149v-332h-72q-2 20 -2 35l-2 35q-21 -40 -55 -60.5t-79 -20.5q-64 0 -110.5 39t-46.5 119q0 81 51.5 125.5t132.5 44.5q47 0 101 -17v18q0 73 -24.5 106t-72.5 33q-72 0 -103 -71l-62 35q18 51 62.5 80.5t105.5 29.5q79 0 127.5 -50zM330 198
q-48 17 -91 17q-51 0 -80 -26t-29 -75q0 -45 24 -67t60 -22q48 0 82 35t34 97v41zM309 -96.5q30 -24.5 30 -61.5t-30 -61.5t-75 -24.5q-46 0 -77 24.5t-31 61.5t31 61.5t77 24.5q45 0 75 -24.5zM269.5 -189.5q13.5 12.5 13.5 31.5q0 20 -13.5 32t-35.5 12q-23 0 -37 -12
t-14 -32q0 -19 14 -31.5t37 -12.5q22 0 35.5 12.5z" />
    <glyph glyph-name="uni1E3E" unicode="&#x1e3e;" horiz-adv-x="726" 
d="M336 776l53 137h90l-76 -137h-67zM581 698h68v-732h-84v533l-177 -337h-49l-178 342v-538h-83v732h73l215 -429z" />
    <glyph glyph-name="uni1E3F" unicode="&#x1e3f;" horiz-adv-x="723" 
d="M349 559l53 154h90l-76 -154h-67zM625 447q39 -50 39 -149v-332h-82v305q0 76 -19 112.5t-61 36.5t-69 -38t-27 -113v-303h-82v305q0 76 -19 112.5t-61 36.5t-69 -38t-27 -113v-303h-82v519h72q3 -57 4 -71q20 42 52.5 62.5t72.5 20.5q43 0 75 -24t49 -72q20 48 54.5 72
t78.5 24q62 0 101 -50z" />
    <glyph glyph-name="Wgrave" unicode="&#x1e80;" horiz-adv-x="850" 
d="M311 913h90l53 -137h-67zM466 698l147 -593l138 593h83l-187 -733h-74l-147 556l-140 -556h-73l-197 733h91l146 -589l139 589h74z" />
    <glyph glyph-name="wgrave" unicode="&#x1e81;" horiz-adv-x="672" 
d="M241 713h90l53 -154h-67zM374 485l107 -378l101 378h79l-154 -519h-58l-111 354l-107 -354h-59l-161 519h86l108 -378l100 378h69z" />
    <glyph glyph-name="Wacute" unicode="&#x1e82;" horiz-adv-x="850" 
d="M396 776l53 137h90l-76 -137h-67zM466 698l147 -593l138 593h83l-187 -733h-74l-147 556l-140 -556h-73l-197 733h91l146 -589l139 589h74z" />
    <glyph glyph-name="wacute" unicode="&#x1e83;" horiz-adv-x="672" 
d="M304 559l53 154h90l-76 -154h-67zM374 485l107 -378l101 378h79l-154 -519h-58l-111 354l-107 -354h-59l-161 519h86l108 -378l100 378h69z" />
    <glyph glyph-name="Wdieresis" unicode="&#x1e84;" horiz-adv-x="850" 
d="M297.5 812q-16.5 17 -16.5 41t16.5 41t39.5 17q24 0 40.5 -17t16.5 -41t-16.5 -41t-40.5 -17q-23 0 -39.5 17zM472.5 812q-16.5 17 -16.5 41t16.5 41t39.5 17q24 0 40.5 -17t16.5 -41t-16.5 -41t-40.5 -17q-23 0 -39.5 17zM466 698l147 -593l138 593h83l-187 -733h-74
l-147 556l-140 -556h-73l-197 733h91l146 -589l139 589h74z" />
    <glyph glyph-name="wdieresis" unicode="&#x1e85;" horiz-adv-x="672" 
d="M214.5 595q-16.5 17 -16.5 41t16.5 41t39.5 17q24 0 40.5 -17t16.5 -41t-16.5 -41t-40.5 -17q-23 0 -39.5 17zM393.5 595q-16.5 17 -16.5 41t16.5 41t39.5 17q24 0 40.5 -17t16.5 -41t-16.5 -41t-40.5 -17q-23 0 -39.5 17zM374 485l107 -378l101 378h79l-154 -519h-58
l-111 354l-107 -354h-59l-161 519h86l108 -378l100 378h69z" />
    <glyph glyph-name="uni1EA0" unicode="&#x1ea0;" horiz-adv-x="592" 
d="M328 699l248 -733h-95l-66 209h-248l-63 -209h-88l241 733h71zM391 251l-103 323l-98 -323h201zM253.5 -204.5q-16.5 17.5 -16.5 40.5t16.5 40.5t39.5 17.5q24 0 40.5 -17t16.5 -41q0 -23 -17 -40.5t-40 -17.5t-39.5 17.5z" />
    <glyph glyph-name="uni1EA1" unicode="&#x1ea1;" horiz-adv-x="471" 
d="M363.5 447q48.5 -50 48.5 -149v-332h-72q-2 20 -2 35l-2 35q-21 -40 -55 -60.5t-79 -20.5q-64 0 -110.5 39t-46.5 119q0 81 51.5 125.5t132.5 44.5q47 0 101 -17v18q0 73 -24.5 106t-72.5 33q-72 0 -103 -71l-62 35q18 51 62.5 80.5t105.5 29.5q79 0 127.5 -50zM330 198
q-48 17 -91 17q-51 0 -80 -26t-29 -75q0 -45 24 -67t60 -22q48 0 82 35t34 97v41zM274.5 -123q16.5 -17 16.5 -41q0 -23 -17 -40.5t-40 -17.5t-39.5 17.5t-16.5 40.5t16.5 40.5t39.5 17.5q24 0 40.5 -17z" />
    <glyph glyph-name="uni1EA2" unicode="&#x1ea2;" horiz-adv-x="592" 
d="M216 914q15 9 36 14.5t40 5.5q31 0 54.5 -18t23.5 -57t-23.5 -65.5t-58.5 -42.5l-30 47q22 10 35 23.5t13 28.5q0 24 -31 24q-25 0 -50 -16zM328 699l248 -733h-95l-66 209h-248l-63 -209h-88l241 733h71zM391 251l-103 323l-98 -323h201z" />
    <glyph glyph-name="uni1EA3" unicode="&#x1ea3;" horiz-adv-x="471" 
d="M170 658l-9 56q33 20 76 20q34 0 56 -22.5t22 -64.5q0 -75 -82 -108l-30 47q48 22 48 52q0 36 -33 36q-25 0 -48 -16zM363.5 447q48.5 -50 48.5 -149v-332h-72q-2 20 -2 35l-2 35q-21 -40 -55 -60.5t-79 -20.5q-64 0 -110.5 39t-46.5 119q0 81 51.5 125.5t132.5 44.5
q47 0 101 -17v18q0 73 -24.5 106t-72.5 33q-72 0 -103 -71l-62 35q18 51 62.5 80.5t105.5 29.5q79 0 127.5 -50zM330 198q-48 17 -91 17q-51 0 -80 -26t-29 -75q0 -45 24 -67t60 -22q48 0 82 35t34 97v41z" />
    <glyph glyph-name="uni1EA4" unicode="&#x1ea4;" horiz-adv-x="592" 
d="M353 851l50 80h93l-73 -80h-70zM257 837h71l99 -81h-82l-52 42l-53 -42h-82zM328 699l248 -733h-95l-66 209h-248l-63 -209h-88l241 733h71zM391 251l-103 323l-98 -323h201z" />
    <glyph glyph-name="uni1EA5" unicode="&#x1ea5;" horiz-adv-x="471" 
d="M339 869h90l-76 -137h-67zM294 559l-56 90l-57 -90h-78l99 154h71l99 -154h-78zM363.5 447q48.5 -50 48.5 -149v-332h-72q-2 20 -2 35l-2 35q-21 -40 -55 -60.5t-79 -20.5q-64 0 -110.5 39t-46.5 119q0 81 51.5 125.5t132.5 44.5q47 0 101 -17v18q0 73 -24.5 106
t-72.5 33q-72 0 -103 -71l-62 35q18 51 62.5 80.5t105.5 29.5q79 0 127.5 -50zM330 198q-48 17 -91 17q-51 0 -80 -26t-29 -75q0 -45 24 -67t60 -22q48 0 82 35t34 97v41z" />
    <glyph glyph-name="uni1EA6" unicode="&#x1ea6;" horiz-adv-x="592" 
d="M361 931l50 -80h-70l-73 80h93zM345 756l-52 42l-53 -42h-82l99 81h71l99 -81h-82zM16 -34l241 733h71l248 -733h-95l-66 209h-248l-63 -209h-88zM391 251l-103 323l-98 -323h201z" />
    <glyph glyph-name="uni1EA7" unicode="&#x1ea7;" horiz-adv-x="471" 
d="M313 869l53 -137h-67l-76 137h90zM294 559l-56 90l-57 -90h-78l99 154h71l99 -154h-78zM363.5 447q48.5 -50 48.5 -149v-332h-72q-2 20 -2 35l-2 35q-21 -40 -55 -60.5t-79 -20.5q-64 0 -110.5 39t-46.5 119q0 81 51.5 125.5t132.5 44.5q47 0 101 -17v18q0 73 -24.5 106
t-72.5 33q-72 0 -103 -71l-62 35q18 51 62.5 80.5t105.5 29.5q79 0 127.5 -50zM330 198q-48 17 -91 17q-51 0 -80 -26t-29 -75q0 -45 24 -67t60 -22q48 0 82 35t34 97v41z" />
    <glyph glyph-name="uni1EA8" unicode="&#x1ea8;" horiz-adv-x="592" 
d="M305 932q34 12 76 12q31 0 54.5 -11t23.5 -34q0 -40 -82 -63l-28 31q50 10 50 23q0 11 -32 11q-21 0 -53 -7zM257 837h71l99 -81h-82l-52 42l-53 -42h-82zM328 699l248 -733h-95l-66 209h-248l-63 -209h-88l241 733h71zM391 251l-103 323l-98 -323h201z" />
    <glyph glyph-name="uni1EA9" unicode="&#x1ea9;" horiz-adv-x="471" 
d="M267 811l-9 56q33 20 76 20q34 0 56 -22.5t22 -64.5q0 -75 -82 -108l-30 47q48 22 48 52q0 36 -33 36q-25 0 -48 -16zM294 559l-56 90l-57 -90h-78l99 154h71l99 -154h-78zM363.5 447q48.5 -50 48.5 -149v-332h-72q-2 20 -2 35l-2 35q-21 -40 -55 -60.5t-79 -20.5
q-64 0 -110.5 39t-46.5 119q0 81 51.5 125.5t132.5 44.5q47 0 101 -17v18q0 73 -24.5 106t-72.5 33q-72 0 -103 -71l-62 35q18 51 62.5 80.5t105.5 29.5q79 0 127.5 -50zM330 198q-48 17 -91 17q-51 0 -80 -26t-29 -75q0 -45 24 -67t60 -22q48 0 82 35t34 97v41z" />
    <glyph glyph-name="uni1EAA" unicode="&#x1eaa;" horiz-adv-x="592" 
d="M222 859h-60q3 31 24.5 48.5t56.5 17.5q19 0 33.5 -3.5t32.5 -10.5q18 -8 27 -8q12 0 18 6.5t8 15.5h60q-3 -31 -24 -48.5t-56 -17.5q-19 0 -33.5 3.5t-33.5 10.5q-16 8 -27 8q-21 0 -26 -22zM345 756l-52 42l-53 -42h-82l99 81h71l99 -81h-82zM16 -34l241 733h71
l248 -733h-95l-66 209h-248l-63 -209h-88zM391 251l-103 323l-98 -323h201z" />
    <glyph glyph-name="uni1EAB" unicode="&#x1eab;" horiz-adv-x="471" 
d="M169 756h-60q3 53 24.5 82.5t56.5 29.5q19 0 34 -8.5t32 -23.5q3 -2 11.5 -9.5t15.5 -7.5q22 0 26 49h60q-3 -53 -24 -83t-56 -30q-19 0 -33.5 7.5t-33.5 22.5t-27 15q-21 0 -26 -44zM295 559l-56 90l-57 -90h-78l99 154h71l99 -154h-78zM363.5 447q48.5 -50 48.5 -149
v-332h-72q-2 20 -2 35l-2 35q-21 -40 -55 -60.5t-79 -20.5q-64 0 -110.5 39t-46.5 119q0 81 51.5 125.5t132.5 44.5q47 0 101 -17v18q0 73 -24.5 106t-72.5 33q-72 0 -103 -71l-62 35q18 51 62.5 80.5t105.5 29.5q79 0 127.5 -50zM330 198q-48 17 -91 17q-51 0 -80 -26
t-29 -75q0 -45 24 -67t60 -22q48 0 82 35t34 97v41z" />
    <glyph glyph-name="uni1EAC" unicode="&#x1eac;" horiz-adv-x="592" 
d="M257 913h71l99 -137h-78l-56 79l-57 -79h-78zM328 699l248 -733h-95l-66 209h-248l-63 -209h-88l241 733h71zM391 251l-103 323l-98 -323h201zM253.5 -204.5q-16.5 17.5 -16.5 40.5t16.5 40.5t39.5 17.5q24 0 40.5 -17t16.5 -41q0 -23 -17 -40.5t-40 -17.5t-39.5 17.5z
" />
    <glyph glyph-name="uni1EAD" unicode="&#x1ead;" horiz-adv-x="471" 
d="M294 559l-56 90l-57 -90h-78l99 154h71l99 -154h-78zM363.5 447q48.5 -50 48.5 -149v-332h-72q-2 20 -2 35l-2 35q-21 -40 -55 -60.5t-79 -20.5q-64 0 -110.5 39t-46.5 119q0 81 51.5 125.5t132.5 44.5q47 0 101 -17v18q0 73 -24.5 106t-72.5 33q-72 0 -103 -71l-62 35
q18 51 62.5 80.5t105.5 29.5q79 0 127.5 -50zM330 198q-48 17 -91 17q-51 0 -80 -26t-29 -75q0 -45 24 -67t60 -22q48 0 82 35t34 97v41zM274.5 -123q16.5 -17 16.5 -41q0 -23 -17 -40.5t-40 -17.5t-39.5 17.5t-16.5 40.5t16.5 40.5t39.5 17.5q24 0 40.5 -17z" />
    <glyph glyph-name="uni1EAE" unicode="&#x1eae;" horiz-adv-x="592" 
d="M264 858l50 80h93l-73 -80h-70zM200.5 778.5q-34.5 22.5 -34.5 58.5h75q3 -34 52 -34q50 0 53 34h75q0 -36 -34.5 -58.5t-93.5 -22.5q-58 0 -92.5 22.5zM328 699l248 -733h-95l-66 209h-248l-63 -209h-88l241 733h71zM391 251l-103 323l-98 -323h201z" />
    <glyph glyph-name="uni1EAF" unicode="&#x1eaf;" horiz-adv-x="471" 
d="M251 869h90l-76 -137h-67zM145 599q-34 41 -34 113h75q2 -43 14 -65.5t38 -22.5q27 0 39 22t14 66h75q0 -72 -34 -113t-94 -41q-59 0 -93 41zM363.5 447q48.5 -50 48.5 -149v-332h-72q-2 20 -2 35l-2 35q-21 -40 -55 -60.5t-79 -20.5q-64 0 -110.5 39t-46.5 119
q0 81 51.5 125.5t132.5 44.5q47 0 101 -17v18q0 73 -24.5 106t-72.5 33q-72 0 -103 -71l-62 35q18 51 62.5 80.5t105.5 29.5q79 0 127.5 -50zM330 198q-48 17 -91 17q-51 0 -80 -26t-29 -75q0 -45 24 -67t60 -22q48 0 82 35t34 97v41z" />
    <glyph glyph-name="uni1EB0" unicode="&#x1eb0;" horiz-adv-x="592" 
d="M252 858l-73 80h93l50 -80h-70zM241 837q3 -34 52 -34q50 0 53 34h75q0 -36 -34.5 -58.5t-93.5 -22.5q-58 0 -92.5 22.5t-34.5 58.5h75zM104 -34h-88l241 733h71l248 -733h-95l-66 209h-248zM288 574l-98 -323h201z" />
    <glyph glyph-name="uni1EB1" unicode="&#x1eb1;" horiz-adv-x="471" 
d="M225 869l53 -137h-67l-76 137h90zM145 599q-34 41 -34 113h75q2 -43 14 -65.5t38 -22.5q27 0 39 22t14 66h75q0 -72 -34 -113t-94 -41q-59 0 -93 41zM363.5 447q48.5 -50 48.5 -149v-332h-72q-2 20 -2 35l-2 35q-21 -40 -55 -60.5t-79 -20.5q-64 0 -110.5 39t-46.5 119
q0 81 51.5 125.5t132.5 44.5q47 0 101 -17v18q0 73 -24.5 106t-72.5 33q-72 0 -103 -71l-62 35q18 51 62.5 80.5t105.5 29.5q79 0 127.5 -50zM330 198q-48 17 -91 17q-51 0 -80 -26t-29 -75q0 -45 24 -67t60 -22q48 0 82 35t34 97v41z" />
    <glyph glyph-name="uni1EB2" unicode="&#x1eb2;" horiz-adv-x="583" 
d="M236 935q34 12 76 12q31 0 54.5 -11t23.5 -34q0 -40 -82 -63l-28 31q50 10 50 23q0 11 -32 11q-21 0 -53 -7zM200.5 778.5q-34.5 22.5 -34.5 58.5h75q3 -34 52 -34q50 0 53 34h75q0 -36 -34.5 -58.5t-93.5 -22.5q-58 0 -92.5 22.5zM328 699l248 -733h-95l-66 209h-248
l-63 -209h-88l241 733h71zM391 251l-103 323l-98 -323h201z" />
    <glyph glyph-name="uni1EB3" unicode="&#x1eb3;" horiz-adv-x="471" 
d="M170 831l-9 56q33 20 76 20q34 0 56 -22.5t22 -64.5q0 -75 -82 -108l-30 47q48 22 48 52q0 36 -33 36q-25 0 -48 -16zM145 599q-34 41 -34 113h75q2 -43 14 -65.5t38 -22.5q27 0 39 22t14 66h75q0 -72 -34 -113t-94 -41q-59 0 -93 41zM363.5 447q48.5 -50 48.5 -149v-332
h-72q-2 20 -2 35l-2 35q-21 -40 -55 -60.5t-79 -20.5q-64 0 -110.5 39t-46.5 119q0 81 51.5 125.5t132.5 44.5q47 0 101 -17v18q0 73 -24.5 106t-72.5 33q-72 0 -103 -71l-62 35q18 51 62.5 80.5t105.5 29.5q79 0 127.5 -50zM330 198q-48 17 -91 17q-51 0 -80 -26t-29 -75
q0 -45 24 -67t60 -22q48 0 82 35t34 97v41z" />
    <glyph glyph-name="uni1EB4" unicode="&#x1eb4;" horiz-adv-x="592" 
d="M163 865q3 31 24.5 48.5t56.5 17.5q19 0 33.5 -3.5t32.5 -10.5q18 -8 27 -8q12 0 18 6.5t8 15.5h60q-3 -31 -24 -48.5t-56 -17.5q-19 0 -33.5 3.5t-33.5 10.5q-16 8 -27 8q-21 0 -26 -22h-60zM200.5 778.5q-34.5 22.5 -34.5 58.5h75q3 -34 52 -34q50 0 53 34h75
q0 -36 -34.5 -58.5t-93.5 -22.5q-58 0 -92.5 22.5zM328 699l248 -733h-95l-66 209h-248l-63 -209h-88l241 733h71zM391 251l-103 323l-98 -323h201z" />
    <glyph glyph-name="uni1EB5" unicode="&#x1eb5;" horiz-adv-x="471" 
d="M168 749h-60q3 53 24.5 82.5t56.5 29.5q19 0 34 -8.5t32 -23.5q3 -2 11.5 -9.5t15.5 -7.5q22 0 26 49h60q-3 -53 -24 -83t-56 -30q-19 0 -33.5 7.5t-33.5 22.5t-27 15q-21 0 -26 -44zM277 646q12 22 14 66h75q0 -72 -34 -113t-94 -41q-59 0 -93 41t-34 113h75
q2 -43 14 -65.5t38 -22.5q27 0 39 22zM363.5 447q48.5 -50 48.5 -149v-332h-72q-2 20 -2 35l-2 35q-21 -40 -55 -60.5t-79 -20.5q-64 0 -110.5 39t-46.5 119q0 81 51.5 125.5t132.5 44.5q47 0 101 -17v18q0 73 -24.5 106t-72.5 33q-72 0 -103 -71l-62 35q18 51 62.5 80.5
t105.5 29.5q79 0 127.5 -50zM330 198q-48 17 -91 17q-51 0 -80 -26t-29 -75q0 -45 24 -67t60 -22q48 0 82 35t34 97v41z" />
    <glyph glyph-name="uni1EB6" unicode="&#x1eb6;" horiz-adv-x="592" 
d="M200.5 814.5q-34.5 38.5 -34.5 98.5h75q3 -78 52 -78q50 0 53 78h75q0 -60 -34.5 -98.5t-93.5 -38.5q-58 0 -92.5 38.5zM328 699l248 -733h-95l-66 209h-248l-63 -209h-88l241 733h71zM391 251l-103 323l-98 -323h201zM253.5 -204.5q-16.5 17.5 -16.5 40.5t16.5 40.5
t39.5 17.5q24 0 40.5 -17t16.5 -41q0 -23 -17 -40.5t-40 -17.5t-39.5 17.5z" />
    <glyph glyph-name="uni1EB7" unicode="&#x1eb7;" horiz-adv-x="471" 
d="M145 599q-34 41 -34 113h75q2 -43 14 -65.5t38 -22.5q27 0 39 22t14 66h75q0 -72 -34 -113t-94 -41q-59 0 -93 41zM363.5 447q48.5 -50 48.5 -149v-332h-72q-2 20 -2 35l-2 35q-21 -40 -55 -60.5t-79 -20.5q-64 0 -110.5 39t-46.5 119q0 81 51.5 125.5t132.5 44.5
q47 0 101 -17v18q0 73 -24.5 106t-72.5 33q-72 0 -103 -71l-62 35q18 51 62.5 80.5t105.5 29.5q79 0 127.5 -50zM330 198q-48 17 -91 17q-51 0 -80 -26t-29 -75q0 -45 24 -67t60 -22q48 0 82 35t34 97v41zM274.5 -123q16.5 -17 16.5 -41q0 -23 -17 -40.5t-40 -17.5
t-39.5 17.5t-16.5 40.5t16.5 40.5t39.5 17.5q24 0 40.5 -17z" />
    <glyph glyph-name="uni1EB8" unicode="&#x1eb8;" horiz-adv-x="503" 
d="M419 307h-255v-266h295v-75h-381v732h372v-75h-286v-241h255v-75zM224.5 -204.5q-16.5 17.5 -16.5 40.5t16.5 40.5t39.5 17.5q24 0 40.5 -17t16.5 -41q0 -23 -17 -40.5t-40 -17.5t-39.5 17.5z" />
    <glyph glyph-name="uni1EB9" unicode="&#x1eb9;" horiz-adv-x="459" 
d="M382 434q49 -63 49 -165q0 -31 -4 -58h-300q4 -93 38.5 -137t89.5 -44q70 0 97 71l63 -36q-18 -56 -62.5 -83t-103.5 -27q-95 0 -151.5 68.5t-56.5 200.5q0 90 27 151.5t73.5 91.5t104.5 30q87 0 136 -63zM168.5 387.5q-30.5 -35.5 -38.5 -108.5h217q-1 69 -29 106.5
t-74 37.5q-45 0 -75.5 -35.5zM211.5 -204.5q-16.5 17.5 -16.5 40.5t16.5 40.5t39.5 17.5q24 0 40.5 -17t16.5 -41q0 -23 -17 -40.5t-40 -17.5t-39.5 17.5z" />
    <glyph glyph-name="uni1EBA" unicode="&#x1eba;" horiz-adv-x="503" 
d="M187 914q15 9 36 14.5t40 5.5q31 0 54.5 -18t23.5 -57t-23.5 -65.5t-58.5 -42.5l-30 47q22 10 35 23.5t13 28.5q0 24 -31 24q-25 0 -50 -16zM419 307h-255v-266h295v-75h-381v732h372v-75h-286v-241h255v-75z" />
    <glyph glyph-name="uni1EBB" unicode="&#x1ebb;" horiz-adv-x="459" 
d="M168 713q33 20 76 20q34 0 56 -22.5t22 -64.5q0 -75 -82 -108l-30 47q48 22 48 52q0 36 -33 36q-25 0 -48 -16zM382 434q49 -63 49 -165q0 -31 -4 -58h-300q4 -93 38.5 -137t89.5 -44q70 0 97 71l63 -36q-18 -56 -62.5 -83t-103.5 -27q-95 0 -151.5 68.5t-56.5 200.5
q0 90 27 151.5t73.5 91.5t104.5 30q87 0 136 -63zM168.5 387.5q-30.5 -35.5 -38.5 -108.5h217q-1 69 -29 106.5t-74 37.5q-45 0 -75.5 -35.5z" />
    <glyph glyph-name="uni1EBC" unicode="&#x1ebc;" horiz-adv-x="503" 
d="M134 789q3 53 24.5 82.5t56.5 29.5q19 0 34 -8.5t32 -23.5q3 -2 11.5 -9.5t15.5 -7.5q22 0 26 49h60q-3 -53 -24 -83t-56 -30q-19 0 -33.5 7.5t-33.5 22.5t-27 15q-21 0 -26 -44h-60zM419 307h-255v-266h295v-75h-381v732h372v-75h-286v-241h255v-75z" />
    <glyph glyph-name="uni1EBD" unicode="&#x1ebd;" horiz-adv-x="459" 
d="M115 575q3 53 24.5 82.5t56.5 29.5q19 0 34 -8.5t32 -23.5q3 -2 11.5 -9.5t15.5 -7.5q22 0 26 49h60q-3 -53 -24 -83t-56 -30q-19 0 -33.5 7.5t-33.5 22.5t-27 15q-21 0 -26 -44h-60zM382 434q49 -63 49 -165q0 -31 -4 -58h-300q4 -93 38.5 -137t89.5 -44q70 0 97 71
l63 -36q-18 -56 -62.5 -83t-103.5 -27q-95 0 -151.5 68.5t-56.5 200.5q0 90 27 151.5t73.5 91.5t104.5 30q87 0 136 -63zM168.5 387.5q-30.5 -35.5 -38.5 -108.5h217q-1 69 -29 106.5t-74 37.5q-45 0 -75.5 -35.5z" />
    <glyph glyph-name="uni1EBE" unicode="&#x1ebe;" horiz-adv-x="503" 
d="M324 851l50 80h93l-73 -80h-70zM228 837h71l99 -81h-82l-52 42l-53 -42h-82zM419 307h-255v-266h295v-75h-381v732h372v-75h-286v-241h255v-75z" />
    <glyph glyph-name="uni1EBF" unicode="&#x1ebf;" horiz-adv-x="459" 
d="M346 885h90l-76 -154h-67zM301 558l-56 90l-57 -90h-78l99 154h71l99 -154h-78zM382 434q49 -63 49 -165q0 -31 -4 -58h-300q4 -93 38.5 -137t89.5 -44q70 0 97 71l63 -36q-18 -56 -62.5 -83t-103.5 -27q-95 0 -151.5 68.5t-56.5 200.5q0 90 27 151.5t73.5 91.5t104.5 30
q87 0 136 -63zM347 279q-1 69 -29 106.5t-74 37.5q-45 0 -75.5 -35.5t-38.5 -108.5h217z" />
    <glyph glyph-name="uni1EC0" unicode="&#x1ec0;" horiz-adv-x="503" 
d="M332 931l50 -80h-70l-73 80h93zM316 756l-52 42l-53 -42h-82l99 81h71l99 -81h-82zM419 307h-255v-266h295v-75h-381v732h372v-75h-286v-241h255v-75z" />
    <glyph glyph-name="uni1EC1" unicode="&#x1ec1;" horiz-adv-x="459" 
d="M320 885l53 -154h-67l-76 154h90zM301 558l-56 90l-57 -90h-78l99 154h71l99 -154h-78zM382 434q49 -63 49 -165q0 -31 -4 -58h-300q4 -93 38.5 -137t89.5 -44q70 0 97 71l63 -36q-18 -56 -62.5 -83t-103.5 -27q-95 0 -151.5 68.5t-56.5 200.5q0 90 27 151.5t73.5 91.5
t104.5 30q87 0 136 -63zM347 279q-1 69 -29 106.5t-74 37.5q-45 0 -75.5 -35.5t-38.5 -108.5h217z" />
    <glyph glyph-name="uni1EC2" unicode="&#x1ec2;" horiz-adv-x="503" 
d="M276 932q34 12 76 12q31 0 54.5 -11t23.5 -34q0 -40 -82 -63l-28 31q50 10 50 23q0 11 -32 11q-21 0 -53 -7zM228 837h71l99 -81h-82l-52 42l-53 -42h-82zM419 307h-255v-266h295v-75h-381v732h372v-75h-286v-241h255v-75z" />
    <glyph glyph-name="uni1EC3" unicode="&#x1ec3;" horiz-adv-x="459" 
d="M274 810l-9 56q33 20 76 20q34 0 56 -22.5t22 -64.5q0 -75 -82 -108l-30 47q48 22 48 52q0 36 -33 36q-25 0 -48 -16zM301 558l-56 90l-57 -90h-78l99 154h71l99 -154h-78zM382 434q49 -63 49 -165q0 -31 -4 -58h-300q4 -93 38.5 -137t89.5 -44q70 0 97 71l63 -36
q-18 -56 -62.5 -83t-103.5 -27q-95 0 -151.5 68.5t-56.5 200.5q0 90 27 151.5t73.5 91.5t104.5 30q87 0 136 -63zM347 279q-1 69 -29 106.5t-74 37.5q-45 0 -75.5 -35.5t-38.5 -108.5h217z" />
    <glyph glyph-name="uni1EC4" unicode="&#x1ec4;" horiz-adv-x="503" 
d="M193 859h-60q3 31 24.5 48.5t56.5 17.5q19 0 33.5 -3.5t32.5 -10.5q18 -8 27 -8q12 0 18 6.5t8 15.5h60q-3 -31 -24 -48.5t-56 -17.5q-19 0 -33.5 3.5t-33.5 10.5q-16 8 -27 8q-21 0 -26 -22zM316 756l-52 42l-53 -42h-82l99 81h71l99 -81h-82zM419 307h-255v-266h295
v-75h-381v732h372v-75h-286v-241h255v-75z" />
    <glyph glyph-name="uni1EC5" unicode="&#x1ec5;" horiz-adv-x="459" 
d="M176 755h-60q3 53 24.5 82.5t56.5 29.5q19 0 34 -8.5t32 -23.5q3 -2 11.5 -9.5t15.5 -7.5q22 0 26 49h60q-3 -53 -24 -83t-56 -30q-19 0 -33.5 7.5t-33.5 22.5t-27 15q-21 0 -26 -44zM302 558l-56 90l-57 -90h-78l99 154h71l99 -154h-78zM382 434q49 -63 49 -165
q0 -31 -4 -58h-300q4 -93 38.5 -137t89.5 -44q70 0 97 71l63 -36q-18 -56 -62.5 -83t-103.5 -27q-95 0 -151.5 68.5t-56.5 200.5q0 90 27 151.5t73.5 91.5t104.5 30q87 0 136 -63zM347 279q-1 69 -29 106.5t-74 37.5q-45 0 -75.5 -35.5t-38.5 -108.5h217z" />
    <glyph glyph-name="uni1EC6" unicode="&#x1ec6;" horiz-adv-x="503" 
d="M228 913h71l99 -137h-78l-56 79l-57 -79h-78zM419 307h-255v-266h295v-75h-381v732h372v-75h-286v-241h255v-75zM224.5 -204.5q-16.5 17.5 -16.5 40.5t16.5 40.5t39.5 17.5q24 0 40.5 -17t16.5 -41q0 -23 -17 -40.5t-40 -17.5t-39.5 17.5z" />
    <glyph glyph-name="uni1EC7" unicode="&#x1ec7;" horiz-adv-x="459" 
d="M209 712h71l99 -154h-78l-56 90l-57 -90h-78zM382 434q49 -63 49 -165q0 -31 -4 -58h-300q4 -93 38.5 -137t89.5 -44q70 0 97 71l63 -36q-18 -56 -62.5 -83t-103.5 -27q-95 0 -151.5 68.5t-56.5 200.5q0 90 27 151.5t73.5 91.5t104.5 30q87 0 136 -63zM168.5 387.5
q-30.5 -35.5 -38.5 -108.5h217q-1 69 -29 106.5t-74 37.5q-45 0 -75.5 -35.5zM211.5 -204.5q-16.5 17.5 -16.5 40.5t16.5 40.5t39.5 17.5q24 0 40.5 -17t16.5 -41q0 -23 -17 -40.5t-40 -17.5t-39.5 17.5z" />
    <glyph glyph-name="uni1EC8" unicode="&#x1ec8;" horiz-adv-x="241" 
d="M44 914q15 9 36 14.5t40 5.5q31 0 54.5 -18t23.5 -57t-23.5 -65.5t-58.5 -42.5l-30 47q22 10 35 23.5t13 28.5q0 24 -31 24q-25 0 -50 -16zM164 -34h-86v732h86v-732z" />
    <glyph glyph-name="uni1EC9" unicode="&#x1ec9;" horiz-adv-x="214" 
d="M30 714q33 20 76 20q34 0 56 -22.5t22 -64.5q0 -75 -82 -108l-30 47q48 22 48 52q0 36 -33 36q-25 0 -48 -16zM148 -34h-82v519h82v-519z" />
    <glyph glyph-name="uni1ECA" unicode="&#x1eca;" horiz-adv-x="241" 
d="M164 -34h-86v732h86v-732zM81.5 -204.5q-16.5 17.5 -16.5 40.5t16.5 40.5t39.5 17.5q24 0 40.5 -17t16.5 -41q0 -23 -17 -40.5t-40 -17.5t-39.5 17.5z" />
    <glyph glyph-name="uni1ECB" unicode="&#x1ecb;" horiz-adv-x="214" 
d="M69.5 597.5q-15.5 16.5 -15.5 39.5q0 22 15.5 39t36.5 17q22 0 38 -16.5t16 -39.5q0 -22 -16 -39t-38 -17q-21 0 -36.5 16.5zM148 -34h-82v519h82v-519zM67.5 -204.5q-16.5 17.5 -16.5 40.5t16.5 40.5t39.5 17.5q24 0 40.5 -17t16.5 -41q0 -23 -17 -40.5t-40 -17.5
t-39.5 17.5z" />
    <glyph glyph-name="uni1ECC" unicode="&#x1ecc;" horiz-adv-x="638" 
d="M123.5 615.5q69.5 94.5 195.5 94.5q127 0 196 -95.5t69 -281.5q0 -187 -69 -282.5t-196 -95.5t-196 94.5t-69 283.5q0 188 69.5 282.5zM189.5 108q44.5 -75 129.5 -75q86 0 129.5 75.5t43.5 224.5t-44 224.5t-129 75.5t-129.5 -75.5t-44.5 -224.5q0 -150 44.5 -225z
M279.5 -204.5q-16.5 17.5 -16.5 40.5t16.5 40.5t39.5 17.5q24 0 40.5 -17t16.5 -41q0 -23 -17 -40.5t-40 -17.5t-39.5 17.5z" />
    <glyph glyph-name="uni1ECD" unicode="&#x1ecd;" horiz-adv-x="500" 
d="M69 376q28 61 75.5 91t106.5 30t106 -29.5t74.5 -90.5t27.5 -151q0 -89 -27.5 -150t-74.5 -91t-106 -30t-106.5 30t-75.5 91t-28 150t28 150zM163 79q34 -48 88 -48t87 48t33 147t-33.5 147t-86.5 48q-54 0 -88 -48t-34 -147t34 -147zM211.5 -204.5
q-16.5 17.5 -16.5 40.5t16.5 40.5t39.5 17.5q24 0 40.5 -17t16.5 -41q0 -23 -17 -40.5t-40 -17.5t-39.5 17.5z" />
    <glyph glyph-name="uni1ECE" unicode="&#x1ece;" horiz-adv-x="638" 
d="M242 914q15 9 36 14.5t40 5.5q31 0 54.5 -18t23.5 -57t-23.5 -65.5t-58.5 -42.5l-30 47q22 10 35 23.5t13 28.5q0 24 -31 24q-25 0 -50 -16zM123.5 615.5q69.5 94.5 195.5 94.5q127 0 196 -95.5t69 -281.5q0 -187 -69 -282.5t-196 -95.5t-196 94.5t-69 283.5
q0 188 69.5 282.5zM189.5 108q44.5 -75 129.5 -75q86 0 129.5 75.5t43.5 224.5t-44 224.5t-129 75.5t-129.5 -75.5t-44.5 -224.5q0 -150 44.5 -225z" />
    <glyph glyph-name="uni1ECF" unicode="&#x1ecf;" horiz-adv-x="500" 
d="M174 713q33 20 76 20q34 0 56 -22.5t22 -64.5q0 -75 -82 -108l-30 47q48 22 48 52q0 36 -33 36q-25 0 -48 -16zM69 376q28 61 75.5 91t106.5 30t106 -29.5t74.5 -90.5t27.5 -151q0 -89 -27.5 -150t-74.5 -91t-106 -30t-106.5 30t-75.5 91t-28 150t28 150zM163 79
q34 -48 88 -48t87 48t33 147t-33.5 147t-86.5 48q-54 0 -88 -48t-34 -147t34 -147z" />
    <glyph glyph-name="uni1ED0" unicode="&#x1ed0;" horiz-adv-x="638" 
d="M379 851l50 80h93l-73 -80h-70zM283 837h71l99 -81h-82l-52 42l-53 -42h-82zM123.5 615.5q69.5 94.5 195.5 94.5q127 0 196 -95.5t69 -281.5q0 -187 -69 -282.5t-196 -95.5t-196 94.5t-69 283.5q0 188 69.5 282.5zM189.5 108q44.5 -75 129.5 -75q86 0 129.5 75.5
t43.5 224.5t-44 224.5t-129 75.5t-129.5 -75.5t-44.5 -224.5q0 -150 44.5 -225z" />
    <glyph glyph-name="uni1ED1" unicode="&#x1ed1;" horiz-adv-x="500" 
d="M352 868h90l-76 -137h-67zM307 558l-56 90l-57 -90h-78l99 154h71l99 -154h-78zM357 467.5q47 -29.5 74.5 -90.5t27.5 -151q0 -89 -27.5 -150t-74.5 -91t-106 -30t-106.5 30t-75.5 91t-28 150t28 150t75.5 91t106.5 30t106 -29.5zM338 79q33 48 33 147t-33.5 147
t-86.5 48q-54 0 -88 -48t-34 -147t34 -147t88 -48t87 48z" />
    <glyph glyph-name="uni1ED2" unicode="&#x1ed2;" horiz-adv-x="638" 
d="M387 931l50 -80h-70l-73 80h93zM371 756l-52 42l-53 -42h-82l99 81h71l99 -81h-82zM123.5 615.5q69.5 94.5 195.5 94.5q127 0 196 -95.5t69 -281.5q0 -187 -69 -282.5t-196 -95.5t-196 94.5t-69 283.5q0 188 69.5 282.5zM189.5 108q44.5 -75 129.5 -75q86 0 129.5 75.5
t43.5 224.5t-44 224.5t-129 75.5t-129.5 -75.5t-44.5 -224.5q0 -150 44.5 -225z" />
    <glyph glyph-name="uni1ED3" unicode="&#x1ed3;" horiz-adv-x="500" 
d="M326 868l53 -137h-67l-76 137h90zM307 558l-56 90l-57 -90h-78l99 154h71l99 -154h-78zM357 467.5q47 -29.5 74.5 -90.5t27.5 -151q0 -89 -27.5 -150t-74.5 -91t-106 -30t-106.5 30t-75.5 91t-28 150t28 150t75.5 91t106.5 30t106 -29.5zM338 79q33 48 33 147t-33.5 147
t-86.5 48q-54 0 -88 -48t-34 -147t34 -147t88 -48t87 48z" />
    <glyph glyph-name="uni1ED4" unicode="&#x1ed4;" horiz-adv-x="638" 
d="M331 932q34 12 76 12q31 0 54.5 -11t23.5 -34q0 -40 -82 -63l-28 31q50 10 50 23q0 11 -32 11q-22 0 -53 -7zM283 837h71l99 -81h-82l-52 42l-53 -42h-82zM123.5 615.5q69.5 94.5 195.5 94.5q127 0 196 -95.5t69 -281.5q0 -187 -69 -282.5t-196 -95.5t-196 94.5
t-69 283.5q0 188 69.5 282.5zM189.5 108q44.5 -75 129.5 -75q86 0 129.5 75.5t43.5 224.5t-44 224.5t-129 75.5t-129.5 -75.5t-44.5 -224.5q0 -150 44.5 -225z" />
    <glyph glyph-name="uni1ED5" unicode="&#x1ed5;" horiz-adv-x="500" 
d="M280 810l-9 56q33 20 76 20q34 0 56 -22.5t22 -64.5q0 -75 -82 -108l-30 47q48 22 48 52q0 36 -33 36q-25 0 -48 -16zM307 558l-56 90l-57 -90h-78l99 154h71l99 -154h-78zM357 467.5q47 -29.5 74.5 -90.5t27.5 -151q0 -89 -27.5 -150t-74.5 -91t-106 -30t-106.5 30
t-75.5 91t-28 150t28 150t75.5 91t106.5 30t106 -29.5zM338 79q33 48 33 147t-33.5 147t-86.5 48q-54 0 -88 -48t-34 -147t34 -147t88 -48t87 48z" />
    <glyph glyph-name="uni1ED6" unicode="&#x1ed6;" horiz-adv-x="638" 
d="M248 859h-60q3 31 24.5 48.5t56.5 17.5q19 0 33.5 -3.5t32.5 -10.5q18 -8 27 -8q12 0 18 6.5t8 15.5h60q-3 -31 -24 -48.5t-56 -17.5q-19 0 -33.5 3.5t-33.5 10.5q-16 8 -27 8q-21 0 -26 -22zM371 756l-52 42l-53 -42h-82l99 81h71l99 -81h-82zM123.5 615.5
q69.5 94.5 195.5 94.5q127 0 196 -95.5t69 -281.5q0 -187 -69 -282.5t-196 -95.5t-196 94.5t-69 283.5q0 188 69.5 282.5zM189.5 108q44.5 -75 129.5 -75q86 0 129.5 75.5t43.5 224.5t-44 224.5t-129 75.5t-129.5 -75.5t-44.5 -224.5q0 -150 44.5 -225z" />
    <glyph glyph-name="uni1ED7" unicode="&#x1ed7;" horiz-adv-x="500" 
d="M182 755h-60q3 53 24.5 82.5t56.5 29.5q19 0 34 -8.5t32 -23.5q3 -2 11.5 -9.5t15.5 -7.5q22 0 26 49h60q-3 -53 -24 -83t-56 -30q-19 0 -33.5 7.5t-33.5 22.5t-27 15q-21 0 -26 -44zM308 558l-56 90l-57 -90h-78l99 154h71l99 -154h-78zM357 467.5q47 -29.5 74.5 -90.5
t27.5 -151q0 -89 -27.5 -150t-74.5 -91t-106 -30t-106.5 30t-75.5 91t-28 150t28 150t75.5 91t106.5 30t106 -29.5zM338 79q33 48 33 147t-33.5 147t-86.5 48q-54 0 -88 -48t-34 -147t34 -147t88 -48t87 48z" />
    <glyph glyph-name="uni1ED8" unicode="&#x1ed8;" horiz-adv-x="638" 
d="M283 913h71l99 -137h-78l-56 79l-57 -79h-78zM123.5 615.5q69.5 94.5 195.5 94.5q127 0 196 -95.5t69 -281.5q0 -187 -69 -282.5t-196 -95.5t-196 94.5t-69 283.5q0 188 69.5 282.5zM189.5 108q44.5 -75 129.5 -75q86 0 129.5 75.5t43.5 224.5t-44 224.5t-129 75.5
t-129.5 -75.5t-44.5 -224.5q0 -150 44.5 -225zM279.5 -204.5q-16.5 17.5 -16.5 40.5t16.5 40.5t39.5 17.5q24 0 40.5 -17t16.5 -41q0 -23 -17 -40.5t-40 -17.5t-39.5 17.5z" />
    <glyph glyph-name="uni1ED9" unicode="&#x1ed9;" horiz-adv-x="500" 
d="M215 712h71l99 -154h-78l-56 90l-57 -90h-78zM69 376q28 61 75.5 91t106.5 30t106 -29.5t74.5 -90.5t27.5 -151q0 -89 -27.5 -150t-74.5 -91t-106 -30t-106.5 30t-75.5 91t-28 150t28 150zM163 79q34 -48 88 -48t87 48t33 147t-33.5 147t-86.5 48q-54 0 -88 -48t-34 -147
t34 -147zM211.5 -204.5q-16.5 17.5 -16.5 40.5t16.5 40.5t39.5 17.5q24 0 40.5 -17t16.5 -41q0 -23 -17 -40.5t-40 -17.5t-39.5 17.5z" />
    <glyph glyph-name="uni1EDA" unicode="&#x1eda;" horiz-adv-x="638" 
d="M341 914h90l-76 -137h-67zM584 333q0 -187 -69 -282.5t-196 -95.5t-196 94.5t-69 283.5q0 188 70.5 282.5t202.5 94.5q34 0 82 -6q30 -5 50 -5q29 0 42 14.5t13 52.5q0 28 -6 59h75q6 -34 6 -64q0 -71 -26.5 -97t-75.5 -29q97 -89 97 -302zM448.5 108.5
q43.5 75.5 43.5 224.5t-44 224.5t-129 75.5t-129.5 -75.5t-44.5 -224.5q0 -150 44.5 -225t129.5 -75q86 0 129.5 75.5z" />
    <glyph glyph-name="uni1EDB" unicode="&#x1edb;" horiz-adv-x="497" 
d="M261 713h90l-76 -154h-67zM457 454q-23 -25 -67 -28q65 -67 65 -200q0 -89 -27.5 -150t-74.5 -91t-105 -30q-59 0 -106 30t-74 91t-27 150t29 150t78 91t110 30q25 0 69 -7q26 -4 35 -4q20 0 31 13.5t11 52.5q0 29 -6 60h76q6 -34 6 -66q0 -67 -23 -92zM337 85.5
q32 50.5 32 140.5q0 91 -31 141t-90 50q-54 0 -87.5 -51t-33.5 -140t33.5 -140t87.5 -51q57 0 89 50.5z" />
    <glyph glyph-name="uni1EDC" unicode="&#x1edc;" horiz-adv-x="638" 
d="M293 914l53 -137h-67l-76 137h90zM584 333q0 -187 -69 -282.5t-196 -95.5t-196 94.5t-69 283.5q0 188 70.5 282.5t202.5 94.5q34 0 82 -6q30 -5 50 -5q29 0 42 14.5t13 52.5q0 28 -6 59h75q6 -34 6 -64q0 -71 -26.5 -97t-75.5 -29q97 -89 97 -302zM448.5 108.5
q43.5 75.5 43.5 224.5t-44 224.5t-129 75.5t-129.5 -75.5t-44.5 -224.5q0 -150 44.5 -225t129.5 -75q86 0 129.5 75.5z" />
    <glyph glyph-name="uni1EDD" unicode="&#x1edd;" horiz-adv-x="497" 
d="M235 713l53 -154h-67l-76 154h90zM457 454q-23 -25 -67 -28q65 -67 65 -200q0 -89 -27.5 -150t-74.5 -91t-105 -30q-59 0 -106 30t-74 91t-27 150t29 150t78 91t110 30q25 0 69 -7q26 -4 35 -4q20 0 31 13.5t11 52.5q0 29 -6 60h76q6 -34 6 -66q0 -67 -23 -92zM337 85.5
q32 50.5 32 140.5q0 91 -31 141t-90 50q-54 0 -87.5 -51t-33.5 -140t33.5 -140t87.5 -51q57 0 89 50.5z" />
    <glyph glyph-name="uni1EDE" unicode="&#x1ede;" horiz-adv-x="638" 
d="M249 859l-9 56q15 9 36 14.5t40 5.5q31 0 54.5 -18t23.5 -57t-23.5 -65.5t-58.5 -42.5l-30 47q22 10 35 23.5t13 28.5q0 24 -31 24q-25 0 -50 -16zM584 333q0 -187 -69 -282.5t-196 -95.5t-196 94.5t-69 283.5q0 188 70.5 282.5t202.5 94.5q34 0 82 -6q30 -5 50 -5
q29 0 42 14.5t13 52.5q0 28 -6 59h75q6 -34 6 -64q0 -71 -26.5 -97t-75.5 -29q97 -89 97 -302zM448.5 108.5q43.5 75.5 43.5 224.5t-44 224.5t-129 75.5t-129.5 -75.5t-44.5 -224.5q0 -150 44.5 -225t129.5 -75q86 0 129.5 75.5z" />
    <glyph glyph-name="uni1EDF" unicode="&#x1edf;" horiz-adv-x="497" 
d="M180 658l-9 56q33 20 76 20q34 0 56 -22.5t22 -64.5q0 -75 -82 -108l-30 47q48 22 48 52q0 36 -33 36q-25 0 -48 -16zM457 454q-23 -25 -67 -28q65 -67 65 -200q0 -89 -27.5 -150t-74.5 -91t-105 -30q-59 0 -106 30t-74 91t-27 150t29 150t78 91t110 30q25 0 69 -7
q26 -4 35 -4q20 0 31 13.5t11 52.5q0 29 -6 60h76q6 -34 6 -66q0 -67 -23 -92zM337 85.5q32 50.5 32 140.5q0 91 -31 141t-90 50q-54 0 -87.5 -51t-33.5 -140t33.5 -140t87.5 -51q57 0 89 50.5z" />
    <glyph glyph-name="uni1EE0" unicode="&#x1ee0;" horiz-adv-x="638" 
d="M247 790h-60q3 53 24.5 82.5t56.5 29.5q19 0 34 -8.5t32 -23.5q3 -2 11.5 -9.5t15.5 -7.5q22 0 26 49h60q-3 -53 -24 -83t-56 -30q-19 0 -33.5 7.5t-33.5 22.5t-27 15q-21 0 -26 -44zM584 333q0 -187 -69 -282.5t-196 -95.5t-196 94.5t-69 283.5q0 188 70.5 282.5
t202.5 94.5q34 0 82 -6q30 -5 50 -5q29 0 42 14.5t13 52.5q0 28 -6 59h75q6 -34 6 -64q0 -71 -26.5 -97t-75.5 -29q97 -89 97 -302zM448.5 108.5q43.5 75.5 43.5 224.5t-44 224.5t-129 75.5t-129.5 -75.5t-44.5 -224.5q0 -150 44.5 -225t129.5 -75q86 0 129.5 75.5z" />
    <glyph glyph-name="uni1EE1" unicode="&#x1ee1;" horiz-adv-x="497" 
d="M178 576h-60q3 53 24.5 82.5t56.5 29.5q19 0 34 -8.5t32 -23.5q3 -2 11.5 -9.5t15.5 -7.5q22 0 26 49h60q-3 -53 -24 -83t-56 -30q-19 0 -33.5 7.5t-33.5 22.5t-27 15q-21 0 -26 -44zM457 454q-23 -25 -67 -28q65 -67 65 -200q0 -89 -27.5 -150t-74.5 -91t-105 -30
q-59 0 -106 30t-74 91t-27 150t29 150t78 91t110 30q25 0 69 -7q26 -4 35 -4q20 0 31 13.5t11 52.5q0 29 -6 60h76q6 -34 6 -66q0 -67 -23 -92zM337 85.5q32 50.5 32 140.5q0 91 -31 141t-90 50q-54 0 -87.5 -51t-33.5 -140t33.5 -140t87.5 -51q57 0 89 50.5z" />
    <glyph glyph-name="uni1EE2" unicode="&#x1ee2;" horiz-adv-x="638" 
d="M584 333q0 -187 -69 -282.5t-196 -95.5t-196 94.5t-69 283.5q0 188 70.5 282.5t202.5 94.5q34 0 82 -6q30 -5 50 -5q29 0 42 14.5t13 52.5q0 28 -6 59h75q6 -34 6 -64q0 -71 -26.5 -97t-75.5 -29q97 -89 97 -302zM448.5 108.5q43.5 75.5 43.5 224.5t-44 224.5t-129 75.5
t-129.5 -75.5t-44.5 -224.5q0 -150 44.5 -225t129.5 -75q86 0 129.5 75.5zM359.5 -123q16.5 -17 16.5 -41q0 -23 -17 -40.5t-40 -17.5t-39.5 17.5t-16.5 40.5t16.5 40.5t39.5 17.5q24 0 40.5 -17z" />
    <glyph glyph-name="uni1EE3" unicode="&#x1ee3;" horiz-adv-x="497" 
d="M457 454q-23 -25 -67 -28q65 -67 65 -200q0 -89 -27.5 -150t-74.5 -91t-105 -30q-59 0 -106 30t-74 91t-27 150t29 150t78 91t110 30q25 0 69 -7q26 -4 35 -4q20 0 31 13.5t11 52.5q0 29 -6 60h76q6 -34 6 -66q0 -67 -23 -92zM337 85.5q32 50.5 32 140.5q0 91 -31 141
t-90 50q-54 0 -87.5 -51t-33.5 -140t33.5 -140t87.5 -51q57 0 89 50.5zM288.5 -123q16.5 -17 16.5 -41q0 -23 -17 -40.5t-40 -17.5t-39.5 17.5t-16.5 40.5t16.5 40.5t39.5 17.5q24 0 40.5 -17z" />
    <glyph glyph-name="uni1EE4" unicode="&#x1ee4;" horiz-adv-x="620" 
d="M463 698h86v-452q0 -291 -239 -291t-239 291v452h86v-439q0 -226 154 -226q152 0 152 226v439zM270.5 -205.5q-16.5 17.5 -16.5 40.5t16.5 40.5t39.5 17.5q24 0 40.5 -17t16.5 -41q0 -23 -17 -40.5t-40 -17.5t-39.5 17.5z" />
    <glyph glyph-name="uni1EE5" unicode="&#x1ee5;" horiz-adv-x="497" 
d="M349 486h82v-520h-72q-3 64 -4 76q-22 -43 -58.5 -65t-81.5 -22q-71 0 -113.5 51.5t-42.5 151.5v328h82v-305q0 -75 22.5 -112t70.5 -37q49 0 82 38t33 113v303zM194.5 -204.5q-16.5 17.5 -16.5 40.5t16.5 40.5t39.5 17.5q24 0 40.5 -17t16.5 -41q0 -23 -17 -40.5
t-40 -17.5t-39.5 17.5z" />
    </font>
</defs>
</svg>
