<?xml version="1.0" standalone="no"?>
<!DOCTYPE svg PUBLIC "-//W3C//DTD SVG 1.1//EN" "http://www.w3.org/Graphics/SVG/1.1/DTD/svg11.dtd" >
<svg xmlns="http://www.w3.org/2000/svg" xmlns:xlink="http://www.w3.org/1999/xlink" version="1.1">
<metadata>
Created by FontForge 20170731 at Mon May 31 08:30:36 2021
 By Aleksey,,,
Copyright 2021 Huawei Device Co., Ltd. All Rights Reserved.
</metadata>
<defs>
<font id="HarmonyOS_Sans_Naskh_Arabic_Black" horiz-adv-x="0" vert-adv-y="1000" >
  <font-face 
    font-family="HarmonyOS Sans Naskh Arabic Black"
    font-weight="900"
    font-stretch="normal"
    units-per-em="1000"
    panose-1="0 0 10 0 0 0 0 0 0 0"
    ascent="800"
    descent="-200"
    bbox="-93 -648 1642 1410"
    underline-thickness="50"
    underline-position="-150"
    unicode-range="U+0020-FEFC"
  />
<missing-glyph horiz-adv-x="600" vert-adv-y="1703" 
 />
    <glyph glyph-name="uniFC43" unicode="&#xfedf;&#xfef0;" horiz-adv-x="1088" vert-adv-y="1703" arabic-form="isolated" 
d="M996 488q2 -49 2 -141q0 -96 -15 -158.5t-46 -97.5t-68.5 -51t-92.5 -16l-115 -1q12 -13 17 -25t5 -29q0 -73 -63 -117t-149.5 -62t-163.5 -18q-141 0 -207.5 56t-66.5 175q0 49 9 94t30 95l57 -21q-7 -25 -10 -40t-3 -32q0 -94 65 -129t174 -35q64 0 118 8.5t85 23
t31 31.5q0 15 -15.5 23t-59 12.5t-135.5 8.5q4 76 14 107.5t39 42.5t96 11h238q47 0 77 9.5t52 29.5l-39 421l131 112z" />
    <glyph glyph-name="uniFC86" unicode="&#xfee0;&#xfef0;" horiz-adv-x="1120" vert-adv-y="1703" arabic-form="final" 
d="M1131 203v-179h-49q-79 0 -120 23.5t-56 77.5q-48 -101 -138 -101l-107 -1q12 -13 17 -25t5 -29q0 -73 -63 -117t-149.5 -62t-163.5 -18q-141 0 -207.5 56t-66.5 175q0 49 9 94t30 95l57 -21q-7 -25 -10 -40t-3 -32q0 -94 65 -129t174 -35q64 0 118 8.5t85 23t31 31.5
q0 15 -15.5 23t-59 12.5t-135.5 8.5q4 76 14 107.5t39 42.5t96 11h232q79 0 137 49l-41 411l131 112l11 -406q2 -62 8 -93.5t30 -52t77 -20.5h18z" />
    <glyph glyph-name="uniFDF2" unicode="&#x627;&#xfedf;&#xfee0;&#xfeea;" horiz-adv-x="1475" vert-adv-y="1703" arabic-form="isolated" 
d="M633 964q-14 58 -39 141l94 87q5 -66 18 -219zM547 745q-21 20 -21 55q0 18 3 36t12 53l51 -8q-1 -6 -4.5 -21t-3.5 -27q0 -11 7.5 -18t18.5 -7q17 0 24.5 19.5t13.5 72.5l54 4q-2 -28 -3 -36q-1 -10 -3 -40q2 -11 9.5 -15.5t24.5 -4.5t34 8q-1 26 -5 42.5t-19 47.5
l48 53q34 -67 34 -124q0 -52 -23.5 -81t-73.5 -29q-25 0 -40.5 5t-27.5 17q-15 -13 -25.5 -17.5t-26.5 -4.5q-37 0 -58 20zM1302 -17l-43 701l105 91l73 -179l-46 -40v-250q0 -64 -3.5 -98.5t-15 -78.5t-43.5 -146h-27zM469 24q-50 0 -78 11t-46 37q-10 13 -15.5 30.5
t-15.5 62.5l-56 -85q-84 0 -151 15q-35 8 -48 19t-13 33q0 20 6 53l8 42q6 34 16 52t33.5 36.5t79.5 51.5l26 15q24 12 48 27l-8 41l92 86l49 -264q7 -39 15 -55.5t25.5 -22.5t55.5 -6h10q76 0 132 49l-30 299l133 112l5 -294q1 -52 8 -86t32.5 -57t76.5 -23h23q49 0 77.5 8
t49.5 26l-33 379l132 112l10 -234q1 -51 1 -147q0 -185 -63 -256q-32 -35 -70.5 -51t-93.5 -16h-60q-82 0 -124 23.5t-58 77.5q-26 -53 -61.5 -77t-86.5 -24h-33zM305 210l-24 122q-8 -5 -43.5 -23.5t-59.5 -39t-35 -42.5q12 -8 32 -10.5t89 -4.5z" />
    <glyph glyph-name="uniFEF5" unicode="&#xfedf;&#xfe82;" horiz-adv-x="561" vert-adv-y="1703" arabic-form="isolated" 
d="M69 128q69 47 125 99t107 117q-45 45 -85 75t-88 56q-136 8 -136 132q0 38 16 98q78 -35 174 -113.5t167 -166.5q13 32 18.5 61.5t5.5 65.5q0 66 -14 148l118 75l64 -190l-62 -32q-11 -48 -30 -92.5t-53 -99.5q38 -58 54 -100.5t16 -82.5q0 -76 -36.5 -115t-107.5 -39
h-268zM290 172q47 0 70.5 6t42.5 22q-6 24 -16.5 42t-36.5 53q-32 -40 -57 -66.5t-58 -55.5zM-6 761l-58 32l95 157q81 -41 154 -41q33 0 60.5 7.5t60.5 25.5l30 -47q-53 -46 -95 -65t-88 -19q-27 0 -51.5 3.5t-59.5 12.5z" />
    <glyph glyph-name="uniFEF6" unicode="&#xfee0;&#xfe82;" horiz-adv-x="763" vert-adv-y="1703" arabic-form="final" 
d="M70 69q103 22 171.5 51t130.5 78q-39 84 -98 152q-53 61 -106 102q-25 2 -42 8t-31 17q-20 15 -32.5 41.5t-12.5 55.5q0 26 9.5 59.5t25.5 67.5q57 -42 114 -101t105 -125q83 -115 124 -223q63 77 95 195l-18 216l125 112l12 -395q2 -68 4.5 -92.5t10.5 -41.5
q11 -23 32 -33t59 -10h26v-179h-57q-73 0 -114 23t-58 69t-20 124l-1 32q-40 -87 -70 -132.5t-94 -115.5h-300zM70 763l-58 32l95 157q81 -41 154 -41q33 0 60.5 7.5t60.5 25.5l30 -47q-53 -46 -95 -65t-88 -19q-27 0 -51.5 3.5t-59.5 12.5z" />
    <glyph glyph-name="uniFEF7" unicode="&#xfedf;&#xfe84;" horiz-adv-x="561" vert-adv-y="1703" arabic-form="isolated" 
d="M69 128q69 47 125 99t107 117q-45 45 -85 75t-88 56q-136 8 -136 132q0 38 16 98q78 -35 174 -113.5t167 -166.5q13 32 18.5 61.5t5.5 65.5q0 66 -14 148l118 75l64 -190l-62 -32q-11 -48 -30 -92.5t-53 -99.5q38 -58 54 -100.5t16 -82.5q0 -76 -36.5 -115t-107.5 -39
h-268zM290 172q47 0 70.5 6t42.5 22q-6 24 -16.5 42t-36.5 53q-32 -40 -57 -66.5t-58 -55.5zM39 812l49 24q-31 14 -43 26t-12 30q0 31 18 62t45.5 51.5t54.5 20.5q21 0 38.5 -12.5t27.5 -34.5l-20 -30q-17 4 -25 4q-45 0 -78 -36q19 -15 37 -23.5t50 -16.5q46 18 75 21
l-28 -68q-74 -24 -112.5 -42t-116.5 -66z" />
    <glyph glyph-name="uniFEF8" unicode="&#xfee0;&#xfe84;" horiz-adv-x="763" vert-adv-y="1703" arabic-form="final" 
d="M70 69q103 22 171.5 51t130.5 78q-39 84 -98 152q-53 61 -106 102q-25 2 -42 8t-31 17q-20 15 -32.5 41.5t-12.5 55.5q0 26 9.5 59.5t25.5 67.5q57 -42 114 -101t105 -125q83 -115 124 -223q63 77 95 195l-18 216l125 112l12 -395q2 -68 4.5 -92.5t10.5 -41.5
q11 -23 32 -33t59 -10h26v-179h-57q-73 0 -114 23t-58 69t-20 124l-1 32q-40 -87 -70 -132.5t-94 -115.5h-300zM115 814l49 24q-31 14 -43 26t-12 30q0 31 18 62t45.5 51.5t54.5 20.5q21 0 38.5 -12.5t27.5 -34.5l-20 -30q-17 4 -25 4q-45 0 -78 -36q19 -15 37 -23.5
t50 -16.5q46 18 75 21l-28 -68q-74 -24 -112.5 -42t-116.5 -66z" />
    <glyph glyph-name="uniFEF9" unicode="&#xfedf;&#xfe88;" horiz-adv-x="561" vert-adv-y="1703" arabic-form="isolated" 
d="M69 128q69 47 125 99t107 117q-45 45 -85 75t-88 56q-136 8 -136 132q0 38 16 98q78 -35 174 -113.5t167 -166.5q13 32 18.5 61.5t5.5 65.5q0 66 -14 148l118 75l64 -190l-62 -32q-11 -48 -30 -92.5t-53 -99.5q38 -58 54 -100.5t16 -82.5q0 -76 -36.5 -115t-107.5 -39
h-268zM290 172q47 0 70.5 6t42.5 22q-6 24 -16.5 42t-36.5 53q-32 -40 -57 -66.5t-58 -55.5zM140 -222l48 24q-30 13 -42 25.5t-12 31.5q0 31 18 62t45.5 51t54.5 20q22 0 39 -12.5t27 -34.5l-20 -29q-13 2 -25 2q-24 0 -42.5 -8t-35.5 -27q19 -15 37.5 -23.5t49.5 -16.5
q51 20 75 21l-29 -69q-72 -23 -110 -41t-118 -66z" />
    <glyph glyph-name="uniFEFA" unicode="&#xfee0;&#xfe88;" horiz-adv-x="763" vert-adv-y="1703" arabic-form="final" 
d="M70 69q103 22 171.5 51t130.5 78q-39 84 -98 152q-53 61 -106 102q-25 2 -42 8t-31 17q-20 15 -32.5 41.5t-12.5 55.5q0 26 9.5 59.5t25.5 67.5q57 -42 114 -101t105 -125q83 -115 124 -223q63 77 95 195l-18 216l125 112l12 -395q2 -68 4.5 -92.5t10.5 -41.5
q11 -23 32 -33t59 -10h26v-179h-57q-73 0 -114 23t-58 69t-20 124l-1 32q-40 -87 -70 -132.5t-94 -115.5h-300zM156 -222l48 24q-30 13 -42 25.5t-12 31.5q0 31 18 62t45.5 51t54.5 20q22 0 39 -12.5t27 -34.5l-20 -29q-13 2 -25 2q-24 0 -42.5 -8t-35.5 -27
q19 -15 37.5 -23.5t49.5 -16.5q51 20 75 21l-29 -69q-72 -23 -110 -41t-118 -66z" />
    <glyph glyph-name="uniFEFB" unicode="&#xfedf;&#xfe8e;" horiz-adv-x="561" vert-adv-y="1703" arabic-form="isolated" 
d="M69 128q69 47 125 99t107 117q-45 45 -85 75t-88 56q-136 8 -136 132q0 38 16 98q78 -35 174 -113.5t167 -166.5q13 32 18.5 61.5t5.5 65.5q0 66 -14 148l118 75l64 -190l-62 -32q-11 -48 -30 -92.5t-53 -99.5q38 -58 54 -100.5t16 -82.5q0 -76 -36.5 -115t-107.5 -39
h-268zM290 172q47 0 70.5 6t42.5 22q-6 24 -16.5 42t-36.5 53q-32 -40 -57 -66.5t-58 -55.5z" />
    <glyph glyph-name="uniFEFC" unicode="&#xfee0;&#xfe8e;" horiz-adv-x="763" vert-adv-y="1703" arabic-form="final" 
d="M70 69q103 22 171.5 51t130.5 78q-39 84 -98 152q-53 61 -106 102q-25 2 -42 8t-31 17q-20 15 -32.5 41.5t-12.5 55.5q0 26 9.5 59.5t25.5 67.5q57 -42 114 -101t105 -125q83 -115 124 -223q63 77 95 195l-18 216l125 112l12 -395q2 -68 4.5 -92.5t10.5 -41.5
q11 -23 32 -33t59 -10h26v-179h-57q-73 0 -114 23t-58 69t-20 124l-1 32q-40 -87 -70 -132.5t-94 -115.5h-300z" />
    <glyph glyph-name="uniFEE0FE8E064B" unicode="&#xfee0;&#xfe8e;&#x64b;" horiz-adv-x="763" vert-adv-y="1703" 
d="M70 69q103 22 171.5 51t130.5 78q-39 84 -98 152q-53 61 -106 102q-25 2 -42 8t-31 17q-20 15 -32.5 41.5t-12.5 55.5q0 26 9.5 59.5t25.5 67.5q57 -42 114 -101t105 -125q83 -115 124 -223q63 77 95 195l-18 216l125 112l12 -395q2 -68 4.5 -92.5t10.5 -41.5
q11 -23 32 -33t59 -10h26v-179h-57q-73 0 -114 23t-58 69t-20 124l-1 32q-40 -87 -70 -132.5t-94 -115.5h-300zM328 982l-245 -115l23 95l246 114zM328 837l-245 -114l23 95l246 114z" />
    <glyph glyph-name="uniFEDFFE8E064B" unicode="&#xfedf;&#xfe8e;&#x64b;" horiz-adv-x="561" vert-adv-y="1703" 
d="M69 128q69 47 125 99t107 117q-45 45 -85 75t-88 56q-136 8 -136 132q0 38 16 98q78 -35 174 -113.5t167 -166.5q13 32 18.5 61.5t5.5 65.5q0 66 -14 148l118 75l64 -190l-62 -32q-11 -48 -30 -92.5t-53 -99.5q38 -58 54 -100.5t16 -82.5q0 -76 -36.5 -115t-107.5 -39
h-268zM290 172q47 0 70.5 6t42.5 22q-6 24 -16.5 42t-36.5 53q-32 -40 -57 -66.5t-58 -55.5zM253 980l-245 -115l23 95l246 114zM253 835l-245 -114l23 95l246 114z" />
    <glyph glyph-name="uniFEE0FE8E0652" unicode="&#xfee0;&#xfe8e;&#x652;" horiz-adv-x="763" vert-adv-y="1703" 
d="M70 69q103 22 171.5 51t130.5 78q-39 84 -98 152q-53 61 -106 102q-25 2 -42 8t-31 17q-20 15 -32.5 41.5t-12.5 55.5q0 26 9.5 59.5t25.5 67.5q57 -42 114 -101t105 -125q83 -115 124 -223q63 77 95 195l-18 216l125 112l12 -395q2 -68 4.5 -92.5t10.5 -41.5
q11 -23 32 -33t59 -10h26v-179h-57q-73 0 -114 23t-58 69t-20 124l-1 32q-40 -87 -70 -132.5t-94 -115.5h-300zM117.5 793q-27.5 21 -27.5 53q0 19 9.5 39.5t30.5 49.5q22 30 41.5 43t43.5 13q38 0 81 -32q35 -27 35 -59q0 -18 -10 -41t-26 -42q-36 -45 -105 -45
q-45 0 -72.5 21zM238.5 839q9.5 4 32.5 18q-14 31 -33.5 48t-48.5 17q-13 0 -21.5 -4t-16.5 -15q1 -32 18 -50t46 -18q14 0 23.5 4z" />
    <glyph glyph-name="uniFEDFFE8E0652" unicode="&#xfedf;&#xfe8e;&#x652;" horiz-adv-x="561" vert-adv-y="1703" 
d="M69 128q69 47 125 99t107 117q-45 45 -85 75t-88 56q-136 8 -136 132q0 38 16 98q78 -35 174 -113.5t167 -166.5q13 32 18.5 61.5t5.5 65.5q0 66 -14 148l118 75l64 -190l-62 -32q-11 -48 -30 -92.5t-53 -99.5q38 -58 54 -100.5t16 -82.5q0 -76 -36.5 -115t-107.5 -39
h-268zM290 172q47 0 70.5 6t42.5 22q-6 24 -16.5 42t-36.5 53q-32 -40 -57 -66.5t-58 -55.5zM41.5 791q-27.5 21 -27.5 53q0 19 9.5 39.5t30.5 49.5q22 30 41.5 43t43.5 13q38 0 81 -32q35 -27 35 -59q0 -18 -10 -41t-26 -42q-36 -45 -105 -45q-45 0 -72.5 21zM162.5 837
q9.5 4 32.5 18q-14 31 -33.5 48t-48.5 17q-13 0 -21.5 -4t-16.5 -15q1 -32 18 -50t46 -18q14 0 23.5 4z" />
    <glyph glyph-name="uni06440671" unicode="&#xfedf;&#xfb51;" horiz-adv-x="561" vert-adv-y="1703" 
d="M69 128q69 47 125 99t107 117q-45 45 -85 75t-88 56q-136 8 -136 132q0 38 16 98q78 -35 174 -113.5t167 -166.5q13 32 18.5 61.5t5.5 65.5q0 66 -14 148l118 75l64 -190l-62 -32q-11 -48 -30 -92.5t-53 -99.5q38 -58 54 -100.5t16 -82.5q0 -76 -36.5 -115t-107.5 -39
h-268zM290 172q47 0 70.5 6t42.5 22q-6 24 -16.5 42t-36.5 53q-32 -40 -57 -66.5t-58 -55.5zM-83 801q28 44 51 65.5t50 21.5q9 0 23 -7q58 93 126 93q19 0 37.5 -14.5t30.5 -38t12 -50.5q0 -25 -13 -66q-26 -16 -52 -23t-59 -7q-28 0 -55 8.5t-67 29.5q-31 -16 -53 -38z
M172.5 854.5q14.5 2.5 35.5 11.5q-19 38 -53 38q-16 0 -33.5 -9t-44.5 -32q22 -11 46 -11q35 0 49.5 2.5z" />
    <glyph glyph-name="uni06440671.fina" unicode="&#xfee0;&#xfb51;" horiz-adv-x="763" vert-adv-y="1703" 
d="M70 69q103 22 171.5 51t130.5 78q-39 84 -98 152q-53 61 -106 102q-25 2 -42 8t-31 17q-20 15 -32.5 41.5t-12.5 55.5q0 26 9.5 59.5t25.5 67.5q57 -42 114 -101t105 -125q83 -115 124 -223q63 77 95 195l-18 216l125 112l12 -395q2 -68 4.5 -92.5t10.5 -41.5
q11 -23 32 -33t59 -10h26v-179h-57q-73 0 -114 23t-58 69t-20 124l-1 32q-40 -87 -70 -132.5t-94 -115.5h-300zM-8 803q28 44 51 65.5t50 21.5q9 0 23 -7q58 93 126 93q19 0 37.5 -14.5t30.5 -38t12 -50.5q0 -25 -13 -66q-26 -16 -52 -23t-59 -7q-28 0 -55 8.5t-67 29.5
q-31 -16 -53 -38zM247.5 856.5q14.5 2.5 35.5 11.5q-19 38 -53 38q-16 0 -33.5 -9t-44.5 -32q22 -11 46 -11q35 0 49.5 2.5z" />
    <glyph glyph-name="uniFEDFFBE9FEE2" unicode="&#xfedf;&#xfbe9;&#xfee2;" horiz-adv-x="1362" vert-adv-y="1703" 
d="M1270 488q2 -49 2 -141q0 -96 -15 -158.5t-46 -97.5t-68.5 -51t-92.5 -16h-41q-59 0 -94.5 17.5t-64.5 60.5q-29 -42 -71.5 -60t-112.5 -18h-50q-44 0 -75 20.5t-55 64.5l-23 -41q-20 -35 -35.5 -50t-31.5 -15q-8 0 -18 2t-28 8q-70 21 -105 29.5t-56 8.5t-30 -9t-9 -31
q0 -1 5 -54l15 -164q3 -26 3 -38q0 -31 -26.5 -53t-69.5 -44l-25 260q-9 87 -9 139q0 56 10.5 91t39 55t80.5 22q1 37 3.5 59t9.5 42q14 38 55 71q24 19 43.5 27t40.5 8q24 0 48 -12.5t60 -42.5q35 -28 61 -60.5t36 -60.5q13 -20 21 -27q29 -26 77 -26h22q88 0 126.5 24.5
t38.5 79.5q0 24 -2 52h63q3 -57 6.5 -75.5t13.5 -34.5q30 -46 118 -46h26q47 0 77 9.5t52 29.5l-39 421l131 112zM420.5 160q2.5 2 6.5 6q-5 19 -34 53.5t-61.5 61.5t-49.5 27q-16 0 -26 -16t-10 -42q0 -16 2 -32q25 -6 45.5 -13.5t87.5 -36.5q25 -10 33 -10q4 0 6.5 2z" />
    <glyph glyph-name="uni066E.init" unicode="&#x66e;" horiz-adv-x="328" vert-adv-y="1703" 
d="M-11 24v179h56q92 0 131 33q-21 81 -70 151l100 133q32 -56 48.5 -117.5t16.5 -120.5q0 -107 -42 -170q-27 -43 -71.5 -65.5t-103.5 -22.5h-65z" />
    <glyph glyph-name="uni066E.medi" unicode="&#x66e;" horiz-adv-x="395" vert-adv-y="1703" 
d="M-11 24v179h26q88 0 126.5 24.5t38.5 79.5q0 24 -2 52h63q3 -57 6.5 -75.5t13.5 -34.5q30 -46 118 -46h27v-179h-32q-59 0 -94.5 17.5t-64.5 60.5q-29 -42 -71.5 -60t-112.5 -18h-42z" />
    <glyph glyph-name="uni066E.fina" unicode="&#x66e;" horiz-adv-x="957" vert-adv-y="1703" 
d="M221 29.5q-69 12.5 -116 58.5t-47 137q0 90 48 184l58 -22q-7 -45 -7 -72q0 -52 32 -78.5t77 -33.5t105 -7h32q163 0 247 27q88 28 88 91l-1 23h65q1 -46 4.5 -63.5t15.5 -31.5q30 -39 120 -39h26v-179h-32q-71 0 -114 23.5t-64 75.5q-32 -46 -106 -72q-97 -34 -262 -34
q-100 0 -169 12.5z" />
    <glyph glyph-name="uni066F.fina" unicode="&#x66f;" horiz-adv-x="728" vert-adv-y="1703" 
d="M739 203v-179h-97q-12 -76 -46 -137q-87 -154 -304 -154q-129 0 -194 63t-65 194q0 53 8.5 96.5t30.5 96.5l58 -22q-15 -46 -15 -80q0 -79 56 -123.5t154 -44.5q71 0 143.5 25t94.5 70q0 10 -2 16h-65q-62 0 -100.5 8.5t-61.5 35.5t-23 81q0 96 41 176q53 99 137 99
q65 0 103.5 -59.5t50.5 -161.5h96zM557 203q-19 50 -41.5 73t-52.5 23q-57 0 -68 -82q13 -8 35 -11t68 -3h59z" />
    <glyph glyph-name="uni067C.init" unicode="&#x67c;" horiz-adv-x="328" vert-adv-y="1703" 
d="M229 539l-91 94l-90 -94l-99 102l99 103l91 -95l90 95l100 -103zM148 42q29 -6 63 -30q35 -27 35 -59q0 -18 -10 -41t-26 -42q-37 -45 -105 -45q-45 0 -72.5 20.5t-27.5 53.5q0 36 40 89q19 26 33 37q-8 -1 -24 -1h-65v179h56q92 0 131 33q-21 81 -70 151l100 133
q32 -56 48.5 -117.5t16.5 -120.5q0 -107 -42 -170q-31 -48 -81 -70zM152.5 -42q-19.5 17 -48.5 17q-13 0 -21.5 -4.5t-16.5 -14.5q1 -32 18 -50t46 -18q14 0 23.5 4t32.5 18q-14 31 -33.5 48z" />
    <glyph glyph-name="uni067C.medi" unicode="&#x67c;" horiz-adv-x="395" vert-adv-y="1703" 
d="M260 470l-91 94l-90 -94l-99 102l99 103l91 -95l90 95l100 -103zM406 203v-179h-32q-59 0 -94.5 17.5t-64.5 60.5q-27 -39 -67 -58q33 -6 64 -30q35 -27 35 -59q0 -18 -10 -41t-26 -42q-37 -45 -105 -45q-45 0 -72.5 20.5t-27.5 53.5q0 36 40 89q16 23 32 36
q-28 -2 -47 -2h-42v179h26q88 0 126.5 24.5t38.5 79.5q0 24 -2 52h63q3 -57 6.5 -75.5t13.5 -34.5q30 -46 118 -46h27zM153.5 -40q-19.5 17 -48.5 17q-13 0 -21.5 -4t-16.5 -15q1 -32 18 -50t46 -18q14 0 23.5 4t32.5 18q-14 31 -33.5 48z" />
    <glyph glyph-name="uni067C.fina" unicode="&#x67c;" horiz-adv-x="957" vert-adv-y="1703" 
d="M569 449l-91 94l-90 -94l-99 102l99 103l91 -95l90 95l100 -103zM968 203v-179h-32q-71 0 -114 23.5t-64 75.5q-32 -46 -106 -72q-47 -16 -102 -24q11 -5 26 -16q35 -27 35 -59q0 -18 -10 -41t-26 -42q-37 -45 -105 -45q-45 0 -72.5 20.5t-27.5 53.5q0 36 40 89
q11 16 26 31q-16 -1 -46 -1q-100 0 -169 12.5t-116 58.5t-47 137q0 90 48 184l58 -22q-7 -45 -7 -72q0 -52 32 -78.5t77 -33.5t105 -7h32q163 0 247 27q88 28 88 91l-1 23h65q1 -46 4.5 -63.5t15.5 -31.5q30 -39 120 -39h26zM518.5 -109q9.5 4 32.5 18q-14 31 -33.5 48
t-48.5 17q-13 0 -21.5 -4.5t-16.5 -14.5q1 -32 18 -50t46 -18q14 0 23.5 4z" />
    <glyph glyph-name="uni067D.init" unicode="&#x67d;" horiz-adv-x="328" vert-adv-y="1703" 
d="M-11 24v179h56q92 0 131 33q-21 81 -70 151l100 133q32 -56 48.5 -117.5t16.5 -120.5q0 -107 -42 -170q-27 -43 -71.5 -65.5t-103.5 -22.5h-65zM328 767l-98 -102l-91 95l-91 -95l-98 102l98 101l91 -93l91 93zM140 510l-91 94l91 95l91 -95z" />
    <glyph glyph-name="uni067D.medi" unicode="&#x67d;" horiz-adv-x="395" vert-adv-y="1703" 
d="M-11 24v179h26q88 0 126.5 24.5t38.5 79.5q0 24 -2 52h63q3 -57 6.5 -75.5t13.5 -34.5q30 -46 118 -46h27v-179h-32q-59 0 -94.5 17.5t-64.5 60.5q-29 -42 -71.5 -60t-112.5 -18h-42zM359 698l-98 -102l-91 95l-91 -95l-98 102l98 101l91 -93l91 93zM171 441l-91 94
l91 95l91 -95z" />
    <glyph glyph-name="uni067D.fina" unicode="&#x67d;" horiz-adv-x="957" vert-adv-y="1703" 
d="M221 29.5q-69 12.5 -116 58.5t-47 137q0 90 48 184l58 -22q-7 -45 -7 -72q0 -52 32 -78.5t77 -33.5t105 -7h32q163 0 247 27q88 28 88 91l-1 23h65q1 -46 4.5 -63.5t15.5 -31.5q30 -39 120 -39h26v-179h-32q-71 0 -114 23.5t-64 75.5q-32 -46 -106 -72q-97 -34 -262 -34
q-100 0 -169 12.5zM669 677l-98 -102l-91 95l-91 -95l-98 102l98 101l91 -93l91 93zM481 420l-91 94l91 95l91 -95z" />
    <glyph glyph-name="uni0681.init" unicode="&#x681;" horiz-adv-x="687" vert-adv-y="1703" 
d="M-11 24v179h198q89 0 145 6.5t115 23.5q-31 10 -48.5 18t-71.5 35q-43 22 -68 30t-52 8q-31 0 -47.5 -10.5t-41.5 -45.5l-50 33q34 66 59 101t48.5 49t53.5 14q31 0 59.5 -8t73.5 -30t127 -68q52 -28 87.5 -40t66.5 -12q15 0 32 2l-49 -146q-44 -5 -69.5 -11t-55 -19.5
t-86.5 -45.5q-68 -38 -126 -50.5t-162 -12.5h-138zM271 581l49 24q-31 14 -43 26t-12 30q0 31 18 62t45.5 51.5t54.5 20.5q21 0 38.5 -12.5t27.5 -34.5l-20 -30q-17 4 -25 4q-45 0 -78 -36q19 -15 37 -23.5t50 -16.5q46 18 75 21l-28 -68q-74 -24 -112.5 -42t-116.5 -66z
" />
    <glyph glyph-name="uni0681.medi" unicode="&#x681;" horiz-adv-x="754" vert-adv-y="1703" 
d="M-11 24v179h226q100 0 154.5 14.5t92.5 51.5q-44 2 -75 8.5t-112 30.5q-55 16 -80 16q-21 0 -37.5 -12t-39.5 -44l-50 33q33 64 58 99t49 50t54 15q18 0 38 -4t64 -16q82 -24 141.5 -35t109.5 -11q24 0 63 4l-35 -130q-23 -4 -39 -10t-31 -18q5 -22 27.5 -32t66.5 -10
h131v-179h-48q-78 0 -120 8t-72 29q-42 29 -58 86q-33 -34 -83 -61q-56 -33 -118 -47.5t-142 -14.5h-135zM271 581l49 24q-31 14 -43 26t-12 30q0 31 18 62t45.5 51.5t54.5 20.5q21 0 38.5 -12.5t27.5 -34.5l-20 -30q-17 4 -25 4q-45 0 -78 -36q19 -15 37 -23.5t50 -16.5
q46 18 75 21l-28 -68q-74 -24 -112.5 -42t-116.5 -66z" />
    <glyph glyph-name="uni0681.fina" unicode="&#x681;" horiz-adv-x="747" vert-adv-y="1703" 
d="M758 203v-179h-60q-92 0 -137.5 11t-74.5 40q-22 22 -32.5 50.5t-23.5 89.5q-39 -13 -79 -29q-87 -34 -134 -84t-47 -108q0 -62 51.5 -103t127 -60.5t147.5 -19.5q53 0 130 10l16 -50q-64 -55 -132 -80.5t-152 -25.5q-141 0 -219 61.5t-78 183.5q0 179 161 277
q45 29 92.5 48.5t105.5 33.5q-38 3 -55 6.5t-69 18.5q-84 22 -107 22q-22 0 -40 -14t-43 -50l-49 33q35 75 76 123.5t97 48.5q17 0 37 -3.5t63 -13.5q82 -21 137 -29.5t107 -8.5q19 0 67 3l-47 -148q-45 -9 -73 -16q10 -22 30 -30t63 -8h144zM268 576l49 24q-31 14 -43 26
t-12 30q0 31 18 62t45.5 51.5t54.5 20.5q21 0 38.5 -12.5t27.5 -34.5l-20 -30q-17 4 -25 4q-45 0 -78 -36q19 -15 37 -23.5t50 -16.5q46 18 75 21l-28 -68q-74 -24 -112.5 -42t-116.5 -66z" />
    <glyph glyph-name="uni0685.init" unicode="&#x685;" horiz-adv-x="687" vert-adv-y="1703" 
d="M-11 24v179h198q89 0 145 6.5t115 23.5q-31 10 -48.5 18t-71.5 35q-43 22 -68 30t-52 8q-31 0 -47.5 -10.5t-41.5 -45.5l-50 33q34 66 59 101t48.5 49t53.5 14q31 0 59.5 -8t73.5 -30t127 -68q52 -28 87.5 -40t66.5 -12q15 0 32 2l-49 -146q-44 -5 -69.5 -11t-55 -19.5
t-86.5 -45.5q-68 -38 -126 -50.5t-162 -12.5h-138zM375 900l92 -94l-92 -95l-91 95zM466 729l98 -102l-98 -101l-91 95l-91 -95l-98 101l98 102l92 -95z" />
    <glyph glyph-name="uni0685.medi" unicode="&#x685;" horiz-adv-x="754" vert-adv-y="1703" 
d="M-11 24v179h226q100 0 154.5 14.5t92.5 51.5q-44 2 -75 8.5t-112 30.5q-55 16 -80 16q-21 0 -37.5 -12t-39.5 -44l-50 33q33 64 58 99t49 50t54 15q18 0 38 -4t64 -16q82 -24 141.5 -35t109.5 -11q24 0 63 4l-35 -130q-23 -4 -39 -10t-31 -18q5 -22 27.5 -32t66.5 -10
h131v-179h-48q-78 0 -120 8t-72 29q-42 29 -58 86q-33 -34 -83 -61q-56 -33 -118 -47.5t-142 -14.5h-135zM375 900l92 -94l-92 -95l-91 95zM466 729l98 -102l-98 -101l-91 95l-91 -95l-98 101l98 102l92 -95z" />
    <glyph glyph-name="uni0685.fina" unicode="&#x685;" horiz-adv-x="747" vert-adv-y="1703" 
d="M758 203v-179h-60q-92 0 -137.5 11t-74.5 40q-22 22 -32.5 50.5t-23.5 89.5q-39 -13 -79 -29q-87 -34 -134 -84t-47 -108q0 -62 51.5 -103t127 -60.5t147.5 -19.5q53 0 130 10l16 -50q-64 -55 -132 -80.5t-152 -25.5q-141 0 -219 61.5t-78 183.5q0 179 161 277
q45 29 92.5 48.5t105.5 33.5q-38 3 -55 6.5t-69 18.5q-84 22 -107 22q-22 0 -40 -14t-43 -50l-49 33q35 75 76 123.5t97 48.5q17 0 37 -3.5t63 -13.5q82 -21 137 -29.5t107 -8.5q19 0 67 3l-47 -148q-45 -9 -73 -16q10 -22 30 -30t63 -8h144zM372 895l92 -94l-92 -95l-91 95
zM463 724l98 -102l-98 -101l-91 95l-91 -95l-98 101l98 102l92 -95z" />
    <glyph glyph-name="uni0689.fina" unicode="&#x689;" horiz-adv-x="575" vert-adv-y="1703" 
d="M586 203v-179h-21q-52 0 -83.5 19t-58.5 67q-32 -51 -89 -73q25 -8 49 -26q35 -27 35 -59q0 -18 -10 -41t-26 -42q-37 -45 -105 -45q-45 0 -72.5 20.5t-27.5 53.5q0 36 40 89q12 17 29 34q-8 -1 -27 -1q-92 0 -132 28t-40 101q0 53 15 128h55q1 -34 12 -50.5t38.5 -22.5
t85.5 -6q44 0 72 6.5t48 21.5l-105 248l114 123l86 -302q15 -52 34.5 -72t56.5 -20h27zM325.5 -109q9.5 4 32.5 18q-14 31 -33.5 48t-48.5 17q-13 0 -21.5 -4.5t-16.5 -14.5q1 -32 18 -50t46 -18q14 0 23.5 4z" />
    <glyph glyph-name="uni0693.fina" unicode="&#x693;" horiz-adv-x="491" vert-adv-y="1703" 
d="M502 203v-179h-23q-43 0 -73 9q-7 -46 -17.5 -73.5t-32.5 -54.5q-59 -70 -111 -99q15 -8 30 -18q35 -27 35 -59q0 -18 -10 -41t-26 -42q-37 -45 -105 -45q-45 0 -72.5 20.5t-27.5 53.5q0 36 40 89q15 20 25 30q-45 11 -130 45v44q88 19 120 28.5t74 28.5q47 22 74 43.5
t44 49.5q-24 132 -118 242l102 137q26 -37 53 -94.5t40 -106.5q29 -8 78 -8h31zM217.5 -332q9.5 4 32.5 18q-14 31 -33.5 48t-48.5 17q-13 0 -21.5 -4.5t-16.5 -14.5q1 -32 18 -50t46 -18q14 0 23.5 4z" />
    <glyph glyph-name="uni0696.fina" unicode="&#x696;" horiz-adv-x="491" vert-adv-y="1703" 
d="M115 -201q-40 12 -111 40v44q88 19 120 28.5t74 28.5q47 22 74 43.5t44 49.5q-24 132 -118 242l102 137q26 -37 53 -94.5t40 -106.5q29 -8 78 -8h31v-179h-23q-43 0 -73 9q-7 -46 -17.5 -73.5t-32.5 -54.5q-41 -50 -87 -84t-90 -34q-24 0 -64 12zM317 550l-107 -111
l-108 111l108 112zM303 -401l-107 -111l-108 111l108 112z" />
    <glyph glyph-name="uni069A.init" unicode="&#x69a;" horiz-adv-x="730" vert-adv-y="1703" 
d="M133 120q-22 -52 -49 -74t-70 -22h-25v179h19q46 0 74 11.5t45.5 36t35.5 70.5h63q-10 -39 -29 -89q10 -17 22.5 -24t31.5 -7q56 0 84 42t46 115h70q-10 -41 -18 -66.5t-21 -58.5q15 -18 32 -25t46 -7q58 0 86 30q-6 31 -19 60t-38 69l93 131q29 -51 44.5 -108t15.5 -111
q0 -51 -12 -97.5t-34 -77.5q-49 -75 -154 -75q-59 0 -87.5 22t-41.5 77q-20 -51 -47 -75t-65 -24q-77 0 -98 98zM473 -168l-107 -111l-108 111l108 112zM479 554l-107 -111l-108 111l108 112z" />
    <glyph glyph-name="uni069A.medi" unicode="&#x69a;" horiz-adv-x="769" vert-adv-y="1703" 
d="M132 120q-22 -53 -49 -74.5t-70 -21.5h-25v179h19q47 0 75 11.5t45.5 36.5t34.5 70h64q-16 -55 -30 -89q10 -17 22.5 -24t31.5 -7q56 0 84.5 42.5t46.5 114.5h69q-10 -41 -18 -66.5t-21 -58.5q10 -18 21 -25.5t31 -7.5q58 0 88 73q9 24 14.5 46t18.5 84h70
q-10 -83 -40 -166q21 -20 47.5 -27t82.5 -7h36v-179h-54q-80 0 -119.5 22t-55.5 76q-19 -52 -46.5 -76t-65.5 -24q-77 0 -96 99q-20 -51 -47 -75t-65 -24q-78 0 -99 98zM492 -168l-107 -111l-108 111l108 112zM493 554l-107 -111l-108 111l108 112z" />
    <glyph glyph-name="uni069A.fina" unicode="&#x69a;" horiz-adv-x="1168" vert-adv-y="1703" 
d="M33 -11q0 54 8.5 97.5t30.5 96.5l57 -22q-13 -40 -13 -75q0 -84 52 -128.5t150 -44.5q155 0 228 90q-14 110 -93 210l106 135q40 -78 59 -140q14 -7 32 -7q56 0 84 42t47 115h68q-9 -40 -16.5 -65.5t-21.5 -59.5q10 -18 21 -25.5t31 -7.5q59 0 87 73q10 24 15.5 46.5
t17.5 83.5h71q-10 -80 -39 -166q20 -20 46.5 -27t82.5 -7h35v-179h-53q-80 0 -119.5 22t-55.5 76q-19 -52 -46.5 -76t-65.5 -24q-77 0 -96 98q-17 -46 -42 -71.5t-55 -25.5q-6 0 -10 1q-17 -93 -60 -160q-41 -62 -118.5 -96.5t-178.5 -34.5q-246 0 -246 256zM904 -168
l-107 -111l-108 111l108 112zM895 554l-107 -111l-108 111l108 112z" />
    <glyph glyph-name="uni069C.init" unicode="&#x69c;" horiz-adv-x="730" vert-adv-y="1703" 
d="M568 -132l-98 -102l-91 95l-91 -95l-98 102l98 101l91 -93l91 93zM380 -389l-91 94l91 95l91 -95zM133 120q-22 -52 -49 -74t-70 -22h-25v179h19q46 0 74 11.5t45.5 36t35.5 70.5h63q-10 -39 -29 -89q10 -17 22.5 -24t31.5 -7q56 0 84 42t46 115h70q-10 -41 -18 -66.5
t-21 -58.5q15 -18 32 -25t46 -7q58 0 86 30q-6 31 -19 60t-38 69l93 131q29 -51 44.5 -108t15.5 -111q0 -51 -12 -97.5t-34 -77.5q-49 -75 -154 -75q-59 0 -87.5 22t-41.5 77q-20 -51 -47 -75t-65 -24q-77 0 -98 98zM372 802l92 -94l-92 -95l-91 95zM463 631l98 -102
l-98 -101l-91 95l-91 -95l-98 101l98 102l92 -95z" />
    <glyph glyph-name="uni069C.medi" unicode="&#x69c;" horiz-adv-x="769" vert-adv-y="1703" 
d="M571 -132l-98 -102l-91 95l-91 -95l-98 102l98 101l91 -93l91 93zM383 -389l-91 94l91 95l91 -95zM132 120q-22 -53 -49 -74.5t-70 -21.5h-25v179h19q47 0 75 11.5t45.5 36.5t34.5 70h64q-16 -55 -30 -89q10 -17 22.5 -24t31.5 -7q56 0 84.5 42.5t46.5 114.5h69
q-10 -41 -18 -66.5t-21 -58.5q10 -18 21 -25.5t31 -7.5q58 0 88 73q9 24 14.5 46t18.5 84h70q-10 -83 -40 -166q21 -20 47.5 -27t82.5 -7h36v-179h-54q-80 0 -119.5 22t-55.5 76q-19 -52 -46.5 -76t-65.5 -24q-77 0 -96 99q-20 -51 -47 -75t-65 -24q-78 0 -99 98zM385 802
l92 -94l-92 -95l-91 95zM476 631l98 -102l-98 -101l-91 95l-91 -95l-98 101l98 102l92 -95z" />
    <glyph glyph-name="uni069C.fina" unicode="&#x69c;" horiz-adv-x="1168" vert-adv-y="1703" 
d="M1048 -132l-98 -102l-91 95l-91 -95l-98 102l98 101l91 -93l91 93zM860 -389l-91 94l91 95l91 -95zM33 -11q0 54 8.5 97.5t30.5 96.5l57 -22q-13 -40 -13 -75q0 -84 52 -128.5t150 -44.5q155 0 228 90q-14 110 -93 210l106 135q40 -78 59 -140q14 -7 32 -7q56 0 84 42
t47 115h68q-9 -40 -16.5 -65.5t-21.5 -59.5q10 -18 21 -25.5t31 -7.5q59 0 87 73q10 24 15.5 46.5t17.5 83.5h71q-10 -80 -39 -166q20 -20 46.5 -27t82.5 -7h35v-179h-53q-80 0 -119.5 22t-55.5 76q-19 -52 -46.5 -76t-65.5 -24q-77 0 -96 98q-17 -46 -42 -71.5t-55 -25.5
q-6 0 -10 1q-17 -93 -60 -160q-41 -62 -118.5 -96.5t-178.5 -34.5q-246 0 -246 256zM788 802l92 -94l-92 -95l-91 95zM879 631l98 -102l-98 -101l-91 95l-91 -95l-98 101l98 102l92 -95z" />
    <glyph glyph-name="uni06A1.init" unicode="&#x6a1;" horiz-adv-x="471" vert-adv-y="1703" 
d="M-11 24v179h54q142 0 205 7q52 4 77 16q-1 18 -5 38q-33 -4 -75 -4q-68 0 -104 8t-51 28t-15 58q0 48 16 100t44 91q26 37 54.5 53.5t67.5 16.5q38 0 65.5 -20t47.5 -62q17 -35 29.5 -96t12.5 -110q0 -84 -23.5 -155t-81.5 -101q-43 -22 -116.5 -34.5t-156.5 -12.5h-45z
M321 385q-20 55 -42 80t-52 25q-28 0 -45 -21t-22 -61q13 -14 35.5 -19.5t69.5 -5.5q40 0 56 2z" />
    <glyph glyph-name="uni06A1.medi" unicode="&#x6a1;" horiz-adv-x="504" vert-adv-y="1703" 
d="M-11 24v179h55q67 0 89 5q-18 20 -24 34t-6 38q0 47 16.5 88.5t44 68t61.5 31.5q14 3 25 3q45 0 88 -44q30 -26 46 -63.5t16 -81.5q0 -25 -5 -37.5t-23 -34.5q35 -7 87 -7h56v-179h-54q-67 0 -111.5 15.5t-103.5 60.5q-47 -41 -93 -58.5t-109 -17.5h-55zM297 261.5
q16 12.5 25 31.5q-18 72 -70 72q-25 0 -42 -18.5t-25 -53.5q9 -21 23.5 -33t41.5 -23q31 12 47 24.5z" />
    <glyph glyph-name="uni06A1.fina" unicode="&#x6a1;" horiz-adv-x="966" vert-adv-y="1703" 
d="M198.5 37q-74.5 20 -107.5 65t-33 123q0 46 12 90.5t36 93.5l58 -22q-7 -38 -7 -73q0 -34 13 -57t43 -37q26 -13 72 -18.5t135 -5.5q71 0 108.5 2t71.5 7q-21 22 -27.5 36t-6.5 39q0 47 16 88.5t44 68t61 31.5q13 3 25 3q45 0 89 -44q30 -27 46 -64t16 -81
q0 -24 -5.5 -37t-23.5 -35q35 -7 87 -7h56v-179h-54q-65 0 -109.5 15t-98.5 56q-57 -42 -129 -60t-184 -18q-129 0 -203.5 20zM759 261.5q16 12.5 25 31.5q-18 72 -69 72q-52 0 -68 -72q9 -21 23.5 -33t42.5 -23q30 12 46 24.5z" />
    <glyph glyph-name="uni06A2.init" unicode="&#x6a2;" horiz-adv-x="471" vert-adv-y="1703" 
d="M-11 24v179h54q142 0 205 7q52 4 77 16q-1 18 -5 38q-33 -4 -75 -4q-68 0 -104 8t-51 28t-15 58q0 48 16 100t44 91q26 37 54.5 53.5t67.5 16.5q38 0 65.5 -20t47.5 -62q17 -35 29.5 -96t12.5 -110q0 -84 -23.5 -155t-81.5 -101q-43 -22 -116.5 -34.5t-156.5 -12.5h-45z
M321 385q-20 55 -42 80t-52 25q-28 0 -45 -21t-22 -61q13 -14 35.5 -19.5t69.5 -5.5q40 0 56 2zM343 -168l-107 -111l-108 111l108 112z" />
    <glyph glyph-name="uni06A2.medi" unicode="&#x6a2;" horiz-adv-x="504" vert-adv-y="1703" 
d="M-11 24v179h55q67 0 89 5q-18 20 -24 34t-6 38q0 47 16.5 88.5t44 68t61.5 31.5q14 3 25 3q45 0 88 -44q30 -26 46 -63.5t16 -81.5q0 -25 -5 -37.5t-23 -34.5q35 -7 87 -7h56v-179h-54q-67 0 -111.5 15.5t-103.5 60.5q-47 -41 -93 -58.5t-109 -17.5h-55zM297 261.5
q16 12.5 25 31.5q-18 72 -70 72q-25 0 -42 -18.5t-25 -53.5q9 -21 23.5 -33t41.5 -23q31 12 47 24.5zM360 -168l-107 -111l-108 111l108 112z" />
    <glyph glyph-name="uni06A2.fina" unicode="&#x6a2;" horiz-adv-x="966" vert-adv-y="1703" 
d="M198.5 37q-74.5 20 -107.5 65t-33 123q0 46 12 90.5t36 93.5l58 -22q-7 -38 -7 -73q0 -34 13 -57t43 -37q26 -13 72 -18.5t135 -5.5q71 0 108.5 2t71.5 7q-21 22 -27.5 36t-6.5 39q0 47 16 88.5t44 68t61 31.5q13 3 25 3q45 0 89 -44q30 -27 46 -64t16 -81
q0 -24 -5.5 -37t-23.5 -35q35 -7 87 -7h56v-179h-54q-65 0 -109.5 15t-98.5 56q-57 -42 -129 -60t-184 -18q-129 0 -203.5 20zM759 261.5q16 12.5 25 31.5q-18 72 -69 72q-52 0 -68 -72q9 -21 23.5 -33t42.5 -23q30 12 46 24.5zM590 -168l-107 -111l-108 111l108 112z" />
    <glyph glyph-name="uni06A5.init" unicode="&#x6a5;" horiz-adv-x="471" vert-adv-y="1703" 
d="M-11 24v179h54q142 0 205 7q52 4 77 16q-1 18 -5 38q-33 -4 -75 -4q-68 0 -104 8t-51 28t-15 58q0 48 16 100t44 91q26 37 54.5 53.5t67.5 16.5q38 0 65.5 -20t47.5 -62q17 -35 29.5 -96t12.5 -110q0 -84 -23.5 -155t-81.5 -101q-43 -22 -116.5 -34.5t-156.5 -12.5h-45z
M321 385q-20 55 -42 80t-52 25q-28 0 -45 -21t-22 -61q13 -14 35.5 -19.5t69.5 -5.5q40 0 56 2zM424 -132l-98 -102l-91 95l-91 -95l-98 102l98 101l91 -93l91 93zM236 -389l-91 94l91 95l91 -95z" />
    <glyph glyph-name="uni06A5.medi" unicode="&#x6a5;" horiz-adv-x="504" vert-adv-y="1703" 
d="M-11 24v179h55q67 0 89 5q-18 20 -24 34t-6 38q0 47 16.5 88.5t44 68t61.5 31.5q14 3 25 3q45 0 88 -44q30 -26 46 -63.5t16 -81.5q0 -25 -5 -37.5t-23 -34.5q35 -7 87 -7h56v-179h-54q-67 0 -111.5 15.5t-103.5 60.5q-47 -41 -93 -58.5t-109 -17.5h-55zM297 261.5
q16 12.5 25 31.5q-18 72 -70 72q-25 0 -42 -18.5t-25 -53.5q9 -21 23.5 -33t41.5 -23q31 12 47 24.5zM441 -132l-98 -102l-91 95l-91 -95l-98 102l98 101l91 -93l91 93zM253 -389l-91 94l91 95l91 -95z" />
    <glyph glyph-name="uni06A5.fina" unicode="&#x6a5;" horiz-adv-x="966" vert-adv-y="1703" 
d="M198.5 37q-74.5 20 -107.5 65t-33 123q0 46 12 90.5t36 93.5l58 -22q-7 -38 -7 -73q0 -34 13 -57t43 -37q26 -13 72 -18.5t135 -5.5q71 0 108.5 2t71.5 7q-21 22 -27.5 36t-6.5 39q0 47 16 88.5t44 68t61 31.5q13 3 25 3q45 0 89 -44q30 -27 46 -64t16 -81
q0 -24 -5.5 -37t-23.5 -35q35 -7 87 -7h56v-179h-54q-65 0 -109.5 15t-98.5 56q-57 -42 -129 -60t-184 -18q-129 0 -203.5 20zM759 261.5q16 12.5 25 31.5q-18 72 -69 72q-52 0 -68 -72q9 -21 23.5 -33t42.5 -23q30 12 46 24.5zM672 -132l-98 -102l-91 95l-91 -95l-98 102
l98 101l91 -93l91 93zM484 -389l-91 94l91 95l91 -95z" />
    <glyph glyph-name="uni06A7.init" unicode="&#x6a7;" horiz-adv-x="471" vert-adv-y="1703" 
d="M-11 24v179h54q142 0 205 7q52 4 77 16q-1 18 -5 38q-33 -4 -75 -4q-68 0 -104 8t-51 28t-15 58q0 48 16 100t44 91q26 37 54.5 53.5t67.5 16.5q38 0 65.5 -20t47.5 -62q17 -35 29.5 -96t12.5 -110q0 -84 -23.5 -155t-81.5 -101q-43 -22 -116.5 -34.5t-156.5 -12.5h-45z
M321 385q-20 55 -42 80t-52 25q-28 0 -45 -21t-22 -61q13 -14 35.5 -19.5t69.5 -5.5q40 0 56 2zM350 769l-107 -111l-108 111l108 112z" />
    <glyph glyph-name="uni06A7.medi" unicode="&#x6a7;" horiz-adv-x="504" vert-adv-y="1703" 
d="M-11 24v179h55q67 0 89 5q-18 20 -24 34t-6 38q0 47 16.5 88.5t44 68t61.5 31.5q14 3 25 3q45 0 88 -44q30 -26 46 -63.5t16 -81.5q0 -25 -5 -37.5t-23 -34.5q35 -7 87 -7h56v-179h-54q-67 0 -111.5 15.5t-103.5 60.5q-47 -41 -93 -58.5t-109 -17.5h-55zM297 261.5
q16 12.5 25 31.5q-18 72 -70 72q-25 0 -42 -18.5t-25 -53.5q9 -21 23.5 -33t41.5 -23q31 12 47 24.5zM342 627l-107 -111l-108 111l108 112z" />
    <glyph glyph-name="uni06A7.fina" unicode="&#x6a7;" horiz-adv-x="728" vert-adv-y="1703" 
d="M739 203v-179h-97q-12 -76 -46 -137q-87 -154 -304 -154q-129 0 -194 63t-65 194q0 53 8.5 96.5t30.5 96.5l58 -22q-15 -46 -15 -80q0 -79 56 -123.5t154 -44.5q71 0 143.5 25t94.5 70q0 10 -2 16h-65q-62 0 -100.5 8.5t-61.5 35.5t-23 81q0 96 41 176q53 99 137 99
q65 0 103.5 -59.5t50.5 -161.5h96zM557 203q-19 50 -41.5 73t-52.5 23q-57 0 -68 -82q13 -8 35 -11t68 -3h59zM590 565l-107 -111l-108 111l108 112z" />
    <glyph glyph-name="uni06A8.init" unicode="&#x6a8;" horiz-adv-x="471" vert-adv-y="1703" 
d="M-11 24v179h54q142 0 205 7q52 4 77 16q-1 18 -5 38q-33 -4 -75 -4q-68 0 -104 8t-51 28t-15 58q0 48 16 100t44 91q26 37 54.5 53.5t67.5 16.5q38 0 65.5 -20t47.5 -62q17 -35 29.5 -96t12.5 -110q0 -84 -23.5 -155t-81.5 -101q-43 -22 -116.5 -34.5t-156.5 -12.5h-45z
M321 385q-20 55 -42 80t-52 25q-28 0 -45 -21t-22 -61q13 -14 35.5 -19.5t69.5 -5.5q40 0 56 2zM243 1017l92 -94l-92 -95l-91 95zM334 846l98 -102l-98 -101l-91 95l-91 -95l-98 101l98 102l92 -95z" />
    <glyph glyph-name="uni06A8.medi" unicode="&#x6a8;" horiz-adv-x="504" vert-adv-y="1703" 
d="M-11 24v179h55q67 0 89 5q-18 20 -24 34t-6 38q0 47 16.5 88.5t44 68t61.5 31.5q14 3 25 3q45 0 88 -44q30 -26 46 -63.5t16 -81.5q0 -25 -5 -37.5t-23 -34.5q35 -7 87 -7h56v-179h-54q-67 0 -111.5 15.5t-103.5 60.5q-47 -41 -93 -58.5t-109 -17.5h-55zM297 261.5
q16 12.5 25 31.5q-18 72 -70 72q-25 0 -42 -18.5t-25 -53.5q9 -21 23.5 -33t41.5 -23q31 12 47 24.5zM235 875l92 -94l-92 -95l-91 95zM326 704l98 -102l-98 -101l-91 95l-91 -95l-98 101l98 102l92 -95z" />
    <glyph glyph-name="uni06A8.fina" unicode="&#x6a8;" horiz-adv-x="728" vert-adv-y="1703" 
d="M739 203v-179h-97q-12 -76 -46 -137q-87 -154 -304 -154q-129 0 -194 63t-65 194q0 53 8.5 96.5t30.5 96.5l58 -22q-15 -46 -15 -80q0 -79 56 -123.5t154 -44.5q71 0 143.5 25t94.5 70q0 10 -2 16h-65q-62 0 -100.5 8.5t-61.5 35.5t-23 81q0 96 41 176q53 99 137 99
q65 0 103.5 -59.5t50.5 -161.5h96zM557 203q-19 50 -41.5 73t-52.5 23q-57 0 -68 -82q13 -8 35 -11t68 -3h59zM483 813l92 -94l-92 -95l-91 95zM574 642l98 -102l-98 -101l-91 95l-91 -95l-98 101l98 102l92 -95z" />
    <glyph glyph-name="uni06AB.init" unicode="&#x6ab;" horiz-adv-x="526" vert-adv-y="1703" 
d="M552 557q0 -18 -10 -41t-26 -42q-37 -45 -105 -45q-45 0 -72.5 21t-27.5 53q0 29 23 65l-157 -61q93 -41 145 -73q62 -37 86 -74t24 -89q0 -38 -10.5 -81t-26.5 -74q-20 -42 -56.5 -62t-78.5 -25t-105 -5h-166v179h147q84 0 132.5 7t70.5 25q-15 44 -98 95
q-75 47 -190 92l42 175l416 166l-34 -123q21 -9 42 -24q35 -27 35 -59zM459.5 496q9.5 4 32.5 18q-14 31 -33.5 48t-48.5 17q-13 0 -21.5 -4t-16.5 -15q1 -32 18 -50t46 -18q14 0 23.5 4z" />
    <glyph glyph-name="uni06AB.medi" unicode="&#x6ab;" horiz-adv-x="575" vert-adv-y="1703" 
d="M586 203v-179h-23q-48 0 -80.5 17t-57.5 55q-13 21 -21 36q-17 -40 -41 -61q-32 -28 -74 -37.5t-133 -9.5h-167v179h147q83 0 127 6t63 21q-7 21 -25 41t-50 44q-69 49 -200 107l42 175l416 166l-34 -123q19 -7 43 -24q35 -27 35 -59q0 -18 -10 -41t-26 -42
q-37 -45 -105 -45q-45 0 -72.5 21t-27.5 53q0 29 24 66l-159 -62q57 -27 85 -43t54 -35q37 -25 62 -48t38 -50q12 -16 41 -63q24 -37 49.5 -51t71.5 -14h8zM460.5 496q9.5 4 32.5 18q-14 31 -33.5 48t-48.5 17q-13 0 -21.5 -4t-16.5 -15q1 -32 18 -50t46 -18q14 0 23.5 4z
" />
    <glyph glyph-name="uni06AB.fina" unicode="&#x6ab;" horiz-adv-x="1042" vert-adv-y="1703" 
d="M1053 203v-179h-22q-48 0 -80.5 17t-57.5 55l-20 32q-22 -45 -67 -68t-119 -31q-31 -5 -101 -8t-138 -3q-130 0 -202 11.5t-116 39.5q-72 48 -72 156q0 105 69 213l59 -32q-17 -47 -17 -93q0 -33 14 -55.5t45 -37.5q26 -13 73.5 -18t135.5 -5q58 0 140.5 3.5t123.5 7.5
q33 3 54 8t39 14q-15 46 -99 101q-82 51 -175 91l41 175l415 166l-33 -124q21 -7 41 -23q35 -27 35 -59q0 -18 -10 -41t-26 -42q-37 -45 -105 -45q-45 0 -72.5 21t-27.5 53q0 29 23 65l-157 -61q55 -26 83.5 -41.5t55.5 -34.5q40 -28 64.5 -51t37.5 -51q23 -34 40 -61
q24 -38 50 -51.5t72 -13.5h6zM926.5 496q9.5 4 32.5 18q-14 31 -33.5 48t-48.5 17q-13 0 -21.5 -4t-16.5 -15q1 -32 18 -50t46 -18q14 0 23.5 4z" />
    <glyph glyph-name="uni06BC.init" unicode="&#x6bc;" horiz-adv-x="328" vert-adv-y="1703" 
d="M139 753l107 -112l-107 -111l-108 111zM246 -47q0 -18 -10 -41t-26 -42q-37 -45 -105 -45q-45 0 -72.5 20.5t-27.5 53.5q0 36 40 89q19 26 33 37q-8 -1 -24 -1h-65v179h56q92 0 131 33q-21 81 -70 151l100 133q32 -56 48.5 -117.5t16.5 -120.5q0 -107 -42 -170
q-31 -48 -81 -70q29 -6 63 -30q35 -27 35 -59zM153.5 -108q9.5 4 32.5 18q-14 31 -33.5 48t-48.5 17q-13 0 -21.5 -4.5t-16.5 -14.5q1 -32 18 -50t46 -18q14 0 23.5 4z" />
    <glyph glyph-name="uni06BC.medi" unicode="&#x6bc;" horiz-adv-x="395" vert-adv-y="1703" 
d="M170 684l107 -112l-107 -111l-108 111zM406 203v-179h-32q-59 0 -94.5 17.5t-64.5 60.5q-27 -39 -67 -58q33 -6 64 -30q35 -27 35 -59q0 -18 -10 -41t-26 -42q-37 -45 -105 -45q-45 0 -72.5 20.5t-27.5 53.5q0 36 40 89q16 23 32 36q-28 -2 -47 -2h-42v179h26
q88 0 126.5 24.5t38.5 79.5q0 24 -2 52h63q3 -57 6.5 -75.5t13.5 -34.5q30 -46 118 -46h27zM153.5 -40q-19.5 17 -48.5 17q-13 0 -21.5 -4t-16.5 -15q1 -32 18 -50t46 -18q14 0 23.5 4t32.5 18q-14 31 -33.5 48z" />
    <glyph glyph-name="uni06BC.fina" unicode="&#x6bc;" horiz-adv-x="740" vert-adv-y="1703" 
d="M320 546l107 -112l-107 -111l-108 111zM751 203v-179h-26q-55 0 -91 11q1 -6 1 -14q0 -53 -29.5 -111.5t-74.5 -96.5q-68 -57 -173 -74l18 -12q35 -27 35 -59q0 -18 -10 -41t-26 -42q-37 -45 -105 -45q-45 0 -72.5 20.5t-27.5 53.5q0 36 40 89q17 22 27 32
q-105 11 -155 77q-49 61 -49 177q0 54 8.5 97.5t30.5 96.5l57 -22q-13 -40 -13 -75q0 -84 52 -128.5t150 -44.5q155 0 228 90q-14 110 -93 210l106 135q36 -65 57 -134q39 -11 103 -11h32zM318.5 -393q9.5 4 32.5 18q-14 31 -33.5 48t-48.5 17q-13 0 -21.5 -4.5t-16.5 -14.5
q1 -32 18 -50t46 -18q14 0 23.5 4z" />
    <glyph glyph-name="uni06C2.init" unicode="&#x6c2;" horiz-adv-x="328" vert-adv-y="1703" 
d="M46 572q19 10 49 25q-31 14 -42.5 25.5t-11.5 30.5q0 31 18 62t45.5 51.5t54.5 20.5q20 0 37 -12.5t28 -35.5l-20 -29q-13 3 -26 3q-45 0 -77 -36q18 -15 36.5 -23t50.5 -16q42 15 75 21l-29 -69q-72 -23 -112 -42t-116 -65zM-11 24v179h56q94 1 131 33q-21 81 -70 151
l100 133q32 -56 48.5 -117.5t16.5 -120.5q0 -113 -49 -179q-26 -38 -69 -58.5t-98 -20.5h-66zM42 -311.5q-23 27.5 -23 75.5q0 50 24 104t69 107h64q-30 -39 -43.5 -70t-23.5 -82q7 3 11 3q30 0 49 -22t19 -57q0 -37 -23.5 -61.5t-59.5 -24.5q-40 0 -63 27.5z" />
    <glyph glyph-name="uni06C2.medi" unicode="&#x6c2;" horiz-adv-x="548" vert-adv-y="1703" 
d="M351 -249q-101 45 -156 108.5t-82 164.5h-124v179h113q22 122 65 201.5t130 86.5q38 -40 61.5 -107.5t23.5 -133.5q0 -39 -16.5 -83.5t-40.5 -74.5q-41 -54 -110 -64q51 -85 135 -126q-18 61 -18 107q0 89 41 141.5t123 52.5h63v-179h-86q-36 0 -52.5 -3.5t-22 -11.5
t-5.5 -26q0 -50 47 -114zM196 203q66 0 91 20q-6 85 -47 142q-49 -69 -56 -162h12zM-54.5 -311.5q-22.5 27.5 -22.5 76.5q0 50 23.5 104t69.5 106h64q-30 -39 -44 -70.5t-23 -81.5q7 3 11 3q29 0 48.5 -22.5t19.5 -56.5q0 -37 -23.5 -61.5t-59.5 -24.5q-41 0 -63.5 27.5z
" />
    <glyph glyph-name="uni06C2.fina" unicode="&#x6c2;" horiz-adv-x="654" vert-adv-y="1703" 
d="M618 24q-76 0 -120.5 10.5t-68.5 34.5q-33 33 -58 125q-8 28 -17 39.5t-24 11.5q-38 0 -103.5 -45.5t-165.5 -139.5l-34 31q96 155 122 186q53 72 111 112q26 19 49 28t48 9q26 0 48 -12t34 -34q7 -15 12 -29.5t12 -42.5q14 -47 29.5 -68.5t45.5 -29t92 -7.5h35v-179h-47
zM227 562l49 24q-31 14 -43 26t-12 30q0 31 18 62t45.5 51.5t54.5 20.5q21 0 38.5 -12.5t27.5 -34.5l-20 -30q-17 4 -25 4q-45 0 -78 -36q19 -15 37 -23.5t50 -16.5q46 18 75 21l-28 -68q-74 -24 -112.5 -42t-116.5 -66z" />
    <glyph glyph-name="uni06C3.init" unicode="&#x6c3;" horiz-adv-x="328" vert-adv-y="1703" 
d="M247 539l-91 95l-91 -95l-98 103l98 102l91 -94l91 94l98 -102zM206 520q31 -55 48 -116.5t17 -120.5q0 -112 -47 -177q-27 -40 -70.5 -61t-98.5 -21h-66v179h56q48 1 79.5 9t51.5 24q-23 83 -70 151zM169 -196q19 -22 19 -57q0 -37 -23.5 -61.5t-59.5 -24.5
q-40 0 -63 27.5t-23 75.5q0 50 24 103.5t69 107.5h64q-30 -38 -43.5 -69.5t-23.5 -82.5q7 3 11 3q30 0 49 -22z" />
    <glyph glyph-name="uni06C3.medi" unicode="&#x6c3;" horiz-adv-x="548" vert-adv-y="1703" 
d="M351 -249q-101 45 -156 108.5t-82 164.5h-124v179h113q22 122 65 201.5t130 86.5q38 -40 61.5 -107.5t23.5 -133.5q0 -40 -15 -85t-38 -74q-42 -53 -114 -63q51 -85 135 -126q-18 61 -18 107q0 89 41 141.5t123 52.5h63v-179h-86q-36 -1 -52.5 -4t-22 -11.5t-5.5 -25.5
q0 -50 47 -114zM196 203q66 0 91 20q-6 85 -47 142q-49 -69 -56 -162h12zM-54.5 -311.5q-22.5 27.5 -22.5 76.5q0 50 23.5 104t69.5 106h64q-30 -39 -44 -70.5t-23 -81.5q7 3 11 3q29 0 48.5 -22.5t19.5 -56.5q0 -37 -23.5 -61.5t-59.5 -24.5q-41 0 -63.5 27.5z" />
    <glyph glyph-name="uni06C3.fina" unicode="&#x6c3;" horiz-adv-x="654" vert-adv-y="1703" 
d="M618 24q-76 0 -120.5 10.5t-68.5 34.5q-33 33 -58 125q-8 28 -17 39.5t-24 11.5q-38 0 -103.5 -45.5t-165.5 -139.5l-34 31q96 155 122 186q53 72 111 112q26 19 49 28t48 9q26 0 48 -12t34 -34q7 -15 12 -29.5t12 -42.5q14 -47 29.5 -68.5t45.5 -29t92 -7.5h35v-179h-47
zM421 736l100 -103l-100 -102l-91 94l-90 -94l-99 102l99 103l91 -95z" />
    <glyph glyph-name="uni06CD.fina" unicode="&#x6cd;" horiz-adv-x="948" vert-adv-y="1703" 
d="M959 203v-179l-105 -1q12 -13 17 -25t5 -29q0 -73 -63 -117t-149.5 -62t-163.5 -18q-141 0 -208 56t-67 175v13l-165 -59q-19 50 -19 88q0 69 65 93l158 54l58 -21q-7 -23 -10 -38.5t-3 -33.5q0 -94 65 -129t174 -35q64 0 117.5 8.5t84.5 23t31 31.5q0 15 -15.5 23
t-58.5 12.5t-136 8.5q2 42 6.5 71t20.5 53.5t47 27.5q5 5 16 6.5t59 2.5h239z" />
    <glyph glyph-name="uni06D5.fina" unicode="&#x6d5;" horiz-adv-x="505" vert-adv-y="1703" 
d="M470 24q-51 0 -79 11t-46 37q-10 13 -15.5 30.5t-15.5 62.5l-56 -85q-84 0 -151 15q-35 8 -48 19t-13 33q0 20 6 53l8 42q6 34 16 52t33.5 36.5t79.5 51.5l26 15q24 12 48 27l-11 50l93 87l51 -274q7 -38 11.5 -50t14.5 -19q19 -15 70 -15h24v-179h-46zM281 332
q-8 -5 -43.5 -23.5t-59.5 -39t-35 -42.5q12 -8 32 -10.5t89 -4.5l41 -2z" />
    <glyph glyph-name="uniFB51" unicode="&#x671;" horiz-adv-x="328" vert-adv-y="1703" arabic-form="final" 
d="M290 24q-99 0 -143 48q-23 26 -34 72.5t-17 137.5l-14 248q-3 50 -7.5 76t-15.5 57l132 112q16 -67 16 -201v-205q0 -58 6.5 -91.5t31 -54t76.5 -20.5h18v-179h-49zM-77 832q28 44 51 65.5t50 21.5q9 0 23 -7q58 93 126 93q19 0 37.5 -14.5t30.5 -38t12 -50.5
q0 -25 -13 -66q-26 -16 -52 -23t-59 -7q-28 0 -55 8.5t-67 29.5q-31 -16 -53 -38zM178.5 885.5q14.5 2.5 35.5 11.5q-19 38 -53 38q-16 0 -33.5 -9t-44.5 -32q22 -11 46 -11q35 0 49.5 2.5z" />
    <glyph glyph-name="uniFB52" unicode="&#x67b;" horiz-adv-x="893" vert-adv-y="1703" arabic-form="isolated" 
d="M207.5 35q-74.5 18 -112 63.5t-37.5 126.5q0 46 12 90.5t36 93.5l58 -22q-7 -38 -7 -73q0 -34 13 -56.5t43 -37.5q27 -13 73 -18.5t132 -5.5q141 0 213 9t109 36q-9 38 -24 69.5t-46 77.5l101 133q31 -55 48 -118t17 -123q0 -74 -23.5 -127.5t-67.5 -79.5
q-46 -27 -134 -41.5t-206 -14.5q-123 0 -197.5 18zM442 -1l98 -103l-79 -82l79 -82l-98 -102l-99 102l79 81l-79 83z" />
    <glyph glyph-name="uniFB53" unicode="&#x67b;" horiz-adv-x="957" vert-adv-y="1703" arabic-form="final" 
d="M221 29.5q-69 12.5 -116 58.5t-47 137q0 90 48 184l58 -22q-7 -45 -7 -72q0 -52 32 -78.5t77 -33.5t105 -7h32q163 0 247 27q88 28 88 91l-1 23h65q1 -46 4.5 -63.5t15.5 -31.5q30 -39 120 -39h26v-179h-32q-71 0 -114 23.5t-64 75.5q-32 -46 -106 -72q-97 -34 -262 -34
q-100 0 -169 12.5zM455 -1l98 -103l-79 -82l79 -82l-98 -102l-99 102l79 81l-79 83z" />
    <glyph glyph-name="uniFB54" unicode="&#x67b;" horiz-adv-x="328" vert-adv-y="1703" arabic-form="initial" 
d="M-11 24v179h56q92 0 131 33q-21 81 -70 151l100 133q32 -56 48.5 -117.5t16.5 -120.5q0 -107 -42 -170q-27 -43 -71.5 -65.5t-103.5 -22.5h-65zM114 -1l98 -103l-79 -82l79 -82l-98 -102l-99 102l79 81l-79 83z" />
    <glyph glyph-name="uniFB55" unicode="&#x67b;" horiz-adv-x="395" vert-adv-y="1703" arabic-form="medial" 
d="M-11 24v179h26q88 0 126.5 24.5t38.5 79.5q0 24 -2 52h63q3 -57 6.5 -75.5t13.5 -34.5q30 -46 118 -46h27v-179h-32q-59 0 -94.5 17.5t-64.5 60.5q-29 -42 -71.5 -60t-112.5 -18h-42zM116 -1l98 -103l-79 -82l79 -82l-98 -102l-99 102l79 81l-79 83z" />
    <glyph glyph-name="uniFB56" unicode="&#x67e;" horiz-adv-x="893" vert-adv-y="1703" arabic-form="isolated" 
d="M207.5 35q-74.5 18 -112 63.5t-37.5 126.5q0 46 12 90.5t36 93.5l58 -22q-7 -38 -7 -73q0 -34 13 -56.5t43 -37.5q27 -13 73 -18.5t132 -5.5q141 0 213 9t109 36q-9 38 -24 69.5t-46 77.5l101 133q31 -55 48 -118t17 -123q0 -74 -23.5 -127.5t-67.5 -79.5
q-46 -27 -134 -41.5t-206 -14.5q-123 0 -197.5 18zM630 -132l-98 -102l-91 95l-91 -95l-98 102l98 101l91 -93l91 93zM442 -389l-91 94l91 95l91 -95z" />
    <glyph glyph-name="uniFB57" unicode="&#x67e;" horiz-adv-x="957" vert-adv-y="1703" arabic-form="final" 
d="M221 29.5q-69 12.5 -116 58.5t-47 137q0 90 48 184l58 -22q-7 -45 -7 -72q0 -52 32 -78.5t77 -33.5t105 -7h32q163 0 247 27q88 28 88 91l-1 23h65q1 -46 4.5 -63.5t15.5 -31.5q30 -39 120 -39h26v-179h-32q-71 0 -114 23.5t-64 75.5q-32 -46 -106 -72q-97 -34 -262 -34
q-100 0 -169 12.5zM642 -132l-98 -102l-91 95l-91 -95l-98 102l98 101l91 -93l91 93zM454 -389l-91 94l91 95l91 -95z" />
    <glyph glyph-name="uniFB58" unicode="&#x67e;" horiz-adv-x="328" vert-adv-y="1703" arabic-form="initial" 
d="M-11 24v179h56q92 0 131 33q-21 81 -70 151l100 133q32 -56 48.5 -117.5t16.5 -120.5q0 -107 -42 -170q-27 -43 -71.5 -65.5t-103.5 -22.5h-65zM302 -132l-98 -102l-91 95l-91 -95l-98 102l98 101l91 -93l91 93zM114 -389l-91 94l91 95l91 -95z" />
    <glyph glyph-name="uniFB59" unicode="&#x67e;" horiz-adv-x="395" vert-adv-y="1703" arabic-form="medial" 
d="M-11 24v179h26q88 0 126.5 24.5t38.5 79.5q0 24 -2 52h63q3 -57 6.5 -75.5t13.5 -34.5q30 -46 118 -46h27v-179h-32q-59 0 -94.5 17.5t-64.5 60.5q-29 -42 -71.5 -60t-112.5 -18h-42zM305 -132l-98 -102l-91 95l-91 -95l-98 102l98 101l91 -93l91 93zM117 -389l-91 94
l91 95l91 -95z" />
    <glyph glyph-name="uniFB5E" unicode="&#x67a;" horiz-adv-x="893" vert-adv-y="1703" arabic-form="isolated" 
d="M207.5 35q-74.5 18 -112 63.5t-37.5 126.5q0 46 12 90.5t36 93.5l58 -22q-7 -38 -7 -73q0 -34 13 -56.5t43 -37.5q27 -13 73 -18.5t132 -5.5q141 0 213 9t109 36q-9 38 -24 69.5t-46 77.5l101 133q31 -55 48 -118t17 -123q0 -74 -23.5 -127.5t-67.5 -79.5
q-46 -27 -134 -41.5t-206 -14.5q-123 0 -197.5 18zM453 888l98 -103l-79 -82l79 -82l-98 -102l-99 102l80 82l-80 82z" />
    <glyph glyph-name="uniFB5F" unicode="&#x67a;" horiz-adv-x="957" vert-adv-y="1703" arabic-form="final" 
d="M221 29.5q-69 12.5 -116 58.5t-47 137q0 90 48 184l58 -22q-7 -45 -7 -72q0 -52 32 -78.5t77 -33.5t105 -7h32q163 0 247 27q88 28 88 91l-1 23h65q1 -46 4.5 -63.5t15.5 -31.5q30 -39 120 -39h26v-179h-32q-71 0 -114 23.5t-64 75.5q-32 -46 -106 -72q-97 -34 -262 -34
q-100 0 -169 12.5zM480 809l98 -103l-79 -82l79 -82l-98 -102l-99 102l80 82l-80 82z" />
    <glyph glyph-name="uniFB60" unicode="&#x67a;" horiz-adv-x="328" vert-adv-y="1703" arabic-form="initial" 
d="M-11 24v179h56q92 0 131 33q-21 81 -70 151l100 133q32 -56 48.5 -117.5t16.5 -120.5q0 -107 -42 -170q-27 -43 -71.5 -65.5t-103.5 -22.5h-65zM139 899l98 -103l-79 -82l79 -82l-98 -102l-99 102l80 82l-80 82z" />
    <glyph glyph-name="uniFB61" unicode="&#x67a;" horiz-adv-x="395" vert-adv-y="1703" arabic-form="medial" 
d="M-11 24v179h26q88 0 126.5 24.5t38.5 79.5q0 24 -2 52h63q3 -57 6.5 -75.5t13.5 -34.5q30 -46 118 -46h27v-179h-32q-59 0 -94.5 17.5t-64.5 60.5q-29 -42 -71.5 -60t-112.5 -18h-42zM170 830l98 -103l-79 -82l79 -82l-98 -102l-99 102l80 82l-80 82z" />
    <glyph glyph-name="uniFB66" unicode="&#x679;" horiz-adv-x="893" vert-adv-y="1703" arabic-form="isolated" 
d="M207.5 35q-74.5 18 -112 63.5t-37.5 126.5q0 46 12 90.5t36 93.5l58 -22q-7 -38 -7 -73q0 -34 13 -56.5t43 -37.5q27 -13 73 -18.5t132 -5.5q141 0 213 9t109 36q-9 38 -24 69.5t-46 77.5l101 133q31 -55 48 -118t17 -123q0 -74 -23.5 -127.5t-67.5 -79.5
q-46 -27 -134 -41.5t-206 -14.5q-123 0 -197.5 18zM368 528l-98 47v26h91l-15 170l83 58v-150q0 -24 -3 -38q50 41 77 56t54 15q34 0 54.5 -21.5t20.5 -56.5q0 -60 -52.5 -83t-127.5 -23h-84zM480 601q30 0 49 5t32 18q-5 13 -11.5 18.5t-16.5 5.5q-17 0 -34.5 -10
t-45.5 -37h27z" />
    <glyph glyph-name="uniFB67" unicode="&#x679;" horiz-adv-x="957" vert-adv-y="1703" arabic-form="final" 
d="M221 29.5q-69 12.5 -116 58.5t-47 137q0 90 48 184l58 -22q-7 -45 -7 -72q0 -52 32 -78.5t77 -33.5t105 -7h32q163 0 247 27q88 28 88 91l-1 23h65q1 -46 4.5 -63.5t15.5 -31.5q30 -39 120 -39h26v-179h-32q-71 0 -114 23.5t-64 75.5q-32 -46 -106 -72q-97 -34 -262 -34
q-100 0 -169 12.5zM395 449l-98 47v26h91l-15 170l83 58v-150q0 -24 -3 -38q50 41 77 56t54 15q34 0 54.5 -21.5t20.5 -56.5q0 -60 -52.5 -83t-127.5 -23h-84zM507 522q30 0 49 5t32 18q-5 13 -11.5 18.5t-16.5 5.5q-17 0 -34.5 -10t-45.5 -37h27z" />
    <glyph glyph-name="uniFB68" unicode="&#x679;" horiz-adv-x="328" vert-adv-y="1703" arabic-form="initial" 
d="M-11 24v179h56q92 0 131 33q-21 81 -70 151l100 133q32 -56 48.5 -117.5t16.5 -120.5q0 -107 -42 -170q-27 -43 -71.5 -65.5t-103.5 -22.5h-65zM55 539l-98 47v26h91l-15 170l83 58v-150q0 -24 -3 -38q50 41 77 56t54 15q34 0 54.5 -21.5t20.5 -56.5q0 -60 -52.5 -83
t-127.5 -23h-84zM167 612q30 0 49 5t32 18q-5 13 -11.5 18.5t-16.5 5.5q-17 0 -34.5 -10t-45.5 -37h27z" />
    <glyph glyph-name="uniFB69" unicode="&#x679;" horiz-adv-x="395" vert-adv-y="1703" arabic-form="medial" 
d="M-11 24v179h26q88 0 126.5 24.5t38.5 79.5q0 24 -2 52h63q3 -57 6.5 -75.5t13.5 -34.5q30 -46 118 -46h27v-179h-32q-59 0 -94.5 17.5t-64.5 60.5q-29 -42 -71.5 -60t-112.5 -18h-42zM86 470l-98 47v26h91l-15 170l83 58v-150q0 -24 -3 -38q50 41 77 56t54 15
q34 0 54.5 -21.5t20.5 -56.5q0 -60 -52.5 -83t-127.5 -23h-84zM198 543q30 0 49 5t32 18q-5 13 -11.5 18.5t-16.5 5.5q-17 0 -34.5 -10t-45.5 -37h27z" />
    <glyph glyph-name="uniFB6A" unicode="&#x6a4;" horiz-adv-x="909" vert-adv-y="1703" arabic-form="isolated" 
d="M201 37q-76 20 -109.5 65t-33.5 124q0 46 12 90t36 93l58 -22q-7 -38 -7 -73q0 -34 13 -56.5t43 -37.5q25 -13 71.5 -18.5t136.5 -5.5q76 0 161.5 3t119.5 7q33 4 61 20q0 12 -1 20t-4 18q-33 -4 -74 -4q-69 0 -105 8t-50.5 28t-14.5 58q0 48 16 100t43 91q26 37 55 53.5
t68 16.5q38 0 65.5 -20t47.5 -62q17 -35 29.5 -96.5t12.5 -111.5q0 -33 -7 -73t-18 -67q-21 -77 -84.5 -113.5t-141 -45.5t-191.5 -9q-132 0 -208 20zM760 385q-20 55 -42 80t-52 25q-57 0 -68 -82q13 -14 35.5 -19.5t69.5 -5.5q41 0 57 2zM682 1017l92 -94l-92 -95l-91 95z
M773 846l98 -102l-98 -101l-91 95l-91 -95l-98 101l98 102l92 -95z" />
    <glyph glyph-name="uniFB6B" unicode="&#x6a4;" horiz-adv-x="966" vert-adv-y="1703" arabic-form="final" 
d="M198.5 37q-74.5 20 -107.5 65t-33 123q0 46 12 90.5t36 93.5l58 -22q-7 -38 -7 -73q0 -34 13 -57t43 -37q26 -13 72 -18.5t135 -5.5q71 0 108.5 2t71.5 7q-21 22 -27.5 36t-6.5 39q0 47 16 88.5t44 68t61 31.5q13 3 25 3q45 0 89 -44q30 -27 46 -64t16 -81
q0 -24 -5.5 -37t-23.5 -35q35 -7 87 -7h56v-179h-54q-65 0 -109.5 15t-98.5 56q-57 -42 -129 -60t-184 -18q-129 0 -203.5 20zM759 261.5q16 12.5 25 31.5q-18 72 -69 72q-52 0 -68 -72q9 -21 23.5 -33t42.5 -23q30 12 46 24.5zM697 875l92 -94l-92 -95l-91 95zM788 704
l98 -102l-98 -101l-91 95l-91 -95l-98 101l98 102l92 -95z" />
    <glyph glyph-name="uniFB6C" unicode="&#x6a4;" horiz-adv-x="471" vert-adv-y="1703" arabic-form="initial" 
d="M-11 24v179h54q142 0 205 7q52 4 77 16q-1 18 -5 38q-33 -4 -75 -4q-68 0 -104 8t-51 28t-15 58q0 48 16 100t44 91q26 37 54.5 53.5t67.5 16.5q38 0 65.5 -20t47.5 -62q17 -35 29.5 -96t12.5 -110q0 -84 -23.5 -155t-81.5 -101q-43 -22 -116.5 -34.5t-156.5 -12.5h-45z
M321 385q-20 55 -42 80t-52 25q-28 0 -45 -21t-22 -61q13 -14 35.5 -19.5t69.5 -5.5q40 0 56 2zM243 1017l92 -94l-92 -95l-91 95zM334 846l98 -102l-98 -101l-91 95l-91 -95l-98 101l98 102l92 -95z" />
    <glyph glyph-name="uniFB6D" unicode="&#x6a4;" horiz-adv-x="504" vert-adv-y="1703" arabic-form="medial" 
d="M-11 24v179h55q67 0 89 5q-18 20 -24 34t-6 38q0 47 16.5 88.5t44 68t61.5 31.5q14 3 25 3q45 0 88 -44q30 -26 46 -63.5t16 -81.5q0 -25 -5 -37.5t-23 -34.5q35 -7 87 -7h56v-179h-54q-67 0 -111.5 15.5t-103.5 60.5q-47 -41 -93 -58.5t-109 -17.5h-55zM297 261.5
q16 12.5 25 31.5q-18 72 -70 72q-25 0 -42 -18.5t-25 -53.5q9 -21 23.5 -33t41.5 -23q31 12 47 24.5zM235 875l92 -94l-92 -95l-91 95zM326 704l98 -102l-98 -101l-91 95l-91 -95l-98 101l98 102l92 -95z" />
    <glyph glyph-name="uniFB7A" unicode="&#x686;" horiz-adv-x="684" vert-adv-y="1703" arabic-form="isolated" 
d="M139 -273.5q-78 61.5 -78 183.5q0 179 161 277q45 29 92.5 48.5t105.5 33.5q-38 3 -55 6.5t-69 18.5q-84 22 -107 22q-22 0 -40 -14t-43 -50l-49 33q35 75 76 123.5t97 48.5q17 0 37 -3.5t63 -13.5q82 -21 137 -29.5t107 -8.5q19 0 67 3l-47 -148q-131 -26 -243 -71
q-87 -34 -134 -84t-47 -108q0 -62 51.5 -103t127 -60.5t147.5 -19.5q53 0 130 10l16 -50q-64 -55 -132 -80.5t-152 -25.5q-141 0 -219 61.5zM425 67l-82 -85l-81 85l81 84zM607 67l-81 -85l-82 85l82 84zM509 -69l-75 -77l-75 77l75 77z" />
    <glyph glyph-name="uniFB7B" unicode="&#x686;" horiz-adv-x="747" vert-adv-y="1703" arabic-form="final" 
d="M758 203v-179h-60q-85 0 -127.5 11.5t-70.5 40.5q-21 22 -30.5 51.5t-20.5 93.5q-64 -21 -98 -35q-87 -34 -134 -84t-47 -108q0 -62 51.5 -103t127 -60.5t147.5 -19.5q53 0 130 10l16 -50q-64 -55 -132 -80.5t-152 -25.5q-141 0 -219 61.5t-78 183.5q0 179 161 277
q45 29 92.5 48.5t105.5 33.5q-38 3 -55 6.5t-69 18.5q-84 22 -107 22q-22 0 -40 -14t-43 -50l-49 33q35 75 76 123.5t97 48.5q17 0 37 -3.5t63 -13.5q82 -21 137 -29.5t107 -8.5q19 0 67 3l-47 -148q-45 -9 -73 -16q10 -22 30 -30t63 -8h144zM358 54l72 74l77 -80l-77 -80
l-72 74l-70 -74l-77 80l77 80zM358 -146l-72 74l72 75l73 -75z" />
    <glyph glyph-name="uniFB7C" unicode="&#x686;" horiz-adv-x="687" vert-adv-y="1703" arabic-form="initial" 
d="M-11 24v179h198q89 0 145 6.5t115 23.5q-31 10 -48.5 18t-71.5 35q-43 22 -68 30t-52 8q-31 0 -47.5 -10.5t-41.5 -45.5l-50 33q34 66 59 101t48.5 49t53.5 14q31 0 59.5 -8t73.5 -30t127 -68q52 -28 87.5 -40t66.5 -12q15 0 32 2l-49 -146q-44 -5 -69.5 -11t-55 -19.5
t-86.5 -45.5q-68 -38 -126 -50.5t-162 -12.5h-138zM515 -132l-98 -102l-91 95l-91 -95l-98 102l98 101l91 -93l91 93zM327 -389l-91 94l91 95l91 -95z" />
    <glyph glyph-name="uniFB7D" unicode="&#x686;" horiz-adv-x="754" vert-adv-y="1703" arabic-form="medial" 
d="M-11 24v179h226q100 0 154.5 14.5t92.5 51.5q-44 2 -75 8.5t-112 30.5q-55 16 -80 16q-21 0 -37.5 -12t-39.5 -44l-50 33q33 64 58 99t49 50t54 15q18 0 38 -4t64 -16q82 -24 141.5 -35t109.5 -11q24 0 63 4l-35 -130q-23 -4 -39 -10t-31 -18q5 -22 27.5 -32t66.5 -10
h131v-179h-48q-78 0 -120 8t-72 29q-42 29 -58 86q-33 -34 -83 -61q-56 -33 -118 -47.5t-142 -14.5h-135zM530 -132l-98 -102l-91 95l-91 -95l-98 102l98 101l91 -93l91 93zM342 -389l-91 94l91 95l91 -95z" />
    <glyph glyph-name="uniFB88" unicode="&#x688;" horiz-adv-x="511" vert-adv-y="1703" arabic-form="isolated" 
d="M86.5 48.5q-39.5 28.5 -39.5 100.5q0 55 15 128h55q1 -34 11.5 -50.5t37.5 -22.5t83 -6q45 0 71.5 5.5t43.5 17.5q-10 50 -37.5 114.5t-59.5 113.5l79 158q50 -79 81.5 -180.5t31.5 -184.5q0 -110 -61.5 -166t-182.5 -56q-89 0 -128.5 28.5zM171 643l-98 47v26h91
l-15 170l83 58v-150q0 -24 -3 -38q50 41 77 56t54 15q34 0 54.5 -21.5t20.5 -56.5q0 -60 -52.5 -83t-127.5 -23h-84zM283 716q30 0 49 5t32 18q-5 13 -11.5 18.5t-16.5 5.5q-17 0 -34.5 -10t-45.5 -37h27z" />
    <glyph glyph-name="uniFB89" unicode="&#x688;" horiz-adv-x="575" vert-adv-y="1703" arabic-form="final" 
d="M87 48q-40 28 -40 101q0 53 15 128h55q1 -34 12 -50.5t38.5 -22.5t85.5 -6q44 0 72 6.5t48 21.5l-105 248l114 123l86 -302q15 -52 34.5 -72t56.5 -20h27v-179h-21q-52 0 -83.5 19t-58.5 67q-30 -47 -78.5 -68.5t-125.5 -21.5q-92 0 -132 28zM170 643l-98 47v26h91
l-15 170l83 58v-150q0 -24 -3 -38q50 41 77 56t54 15q34 0 54.5 -21.5t20.5 -56.5q0 -60 -52.5 -83t-127.5 -23h-84zM282 716q30 0 49 5t32 18q-5 13 -11.5 18.5t-16.5 5.5q-17 0 -34.5 -10t-45.5 -37h27z" />
    <glyph glyph-name="uniFB8A" unicode="&#x698;" horiz-adv-x="472" vert-adv-y="1703" arabic-form="isolated" 
d="M115 -201q-40 12 -111 40v44q88 19 120 28.5t74 28.5q47 22 74 43.5t44 49.5q-24 132 -118 242l102 137q48 -68 79.5 -155.5t31.5 -163.5q0 -72 -20 -124.5t-66 -98.5q-43 -43 -78 -63t-68 -20q-24 0 -64 12zM210 798l92 -94l-92 -95l-91 95zM301 627l98 -102l-98 -101
l-91 95l-91 -95l-98 101l98 102l92 -95z" />
    <glyph glyph-name="uniFB8B" unicode="&#x698;" horiz-adv-x="491" vert-adv-y="1703" arabic-form="final" 
d="M115 -201q-40 12 -111 40v44q88 19 120 28.5t74 28.5q47 22 74 43.5t44 49.5q-24 132 -118 242l102 137q26 -37 53 -94.5t40 -106.5q29 -8 78 -8h31v-179h-23q-43 0 -73 9q-7 -46 -17.5 -73.5t-32.5 -54.5q-41 -50 -87 -84t-90 -34q-24 0 -64 12zM210 798l92 -94l-92 -95
l-91 95zM301 627l98 -102l-98 -101l-91 95l-91 -95l-98 101l98 102l92 -95z" />
    <glyph glyph-name="uniFB8C" unicode="&#x691;" horiz-adv-x="472" vert-adv-y="1703" arabic-form="isolated" 
d="M115 -201q-40 12 -111 40v44q88 19 120 28.5t74 28.5q47 22 74 43.5t44 49.5q-24 132 -118 242l102 137q48 -68 79.5 -155.5t31.5 -163.5q0 -72 -20 -124.5t-66 -98.5q-43 -43 -78 -63t-68 -20q-24 0 -64 12zM126 448l-98 47v26h91l-15 170l83 58v-150q0 -24 -3 -38
q50 41 77 56t54 15q34 0 54.5 -21.5t20.5 -56.5q0 -60 -52.5 -83t-127.5 -23h-84zM238 521q30 0 49 5t32 18q-5 13 -11.5 18.5t-16.5 5.5q-17 0 -34.5 -10t-45.5 -37h27z" />
    <glyph glyph-name="uniFB8D" unicode="&#x691;" horiz-adv-x="491" vert-adv-y="1703" arabic-form="final" 
d="M115 -201q-40 12 -111 40v44q88 19 120 28.5t74 28.5q47 22 74 43.5t44 49.5q-24 132 -118 242l102 137q26 -37 53 -94.5t40 -106.5q29 -8 78 -8h31v-179h-23q-43 0 -73 9q-7 -46 -17.5 -73.5t-32.5 -54.5q-41 -50 -87 -84t-90 -34q-24 0 -64 12zM126 448l-98 47v26h91
l-15 170l83 58v-150q0 -24 -3 -38q50 41 77 56t54 15q34 0 54.5 -21.5t20.5 -56.5q0 -60 -52.5 -83t-127.5 -23h-84zM238 521q30 0 49 5t32 18q-5 13 -11.5 18.5t-16.5 5.5q-17 0 -34.5 -10t-45.5 -37h27z" />
    <glyph glyph-name="uniFB8E" unicode="&#x6a9;" horiz-adv-x="994" vert-adv-y="1703" arabic-form="isolated" 
d="M214.5 36q-84.5 19 -120.5 63.5t-36 125.5q0 54 17 105.5t52 107.5l59 -32q-10 -26 -13.5 -47t-3.5 -45q0 -34 14 -57t45 -37q26 -13 75 -18t136 -5q56 0 132 3.5t138 8.5q36 4 55 9t43 17q-14 42 -91 91q-72 45 -197 96l42 175l415 166l-38 -142l-294 -114
q94 -41 150 -76q60 -36 83 -72.5t23 -86.5q0 -86 -31 -151t-105 -81q-46 -11 -129.5 -17t-183.5 -6q-152 0 -236.5 19z" />
    <glyph glyph-name="uniFB8F" unicode="&#x6a9;" horiz-adv-x="1042" vert-adv-y="1703" arabic-form="final" 
d="M1053 203v-179h-22q-48 0 -80.5 17t-57.5 55l-20 32q-22 -45 -67 -68t-119 -31q-31 -5 -101 -8t-138 -3q-130 0 -202 11.5t-116 39.5q-72 48 -72 156q0 105 69 213l59 -32q-17 -47 -17 -93q0 -33 14 -55.5t45 -37.5q26 -13 73.5 -18t135.5 -5q58 0 140.5 3.5t123.5 7.5
q33 3 54 8t39 14q-15 46 -99 101q-82 51 -175 91l41 175l415 166l-38 -142l-294 -114q55 -26 83.5 -41.5t55.5 -34.5q40 -28 64.5 -51t37.5 -51q23 -34 40 -61q24 -38 50 -51.5t72 -13.5h6z" />
    <glyph glyph-name="uniFB90" unicode="&#x6a9;" horiz-adv-x="526" vert-adv-y="1703" arabic-form="initial" 
d="M-11 24v179h147q84 0 132.5 7t70.5 25q-15 44 -98 95q-75 47 -190 92l42 175l416 166l-39 -142l-293 -114q93 -41 145 -73q62 -37 86 -74t24 -89q0 -38 -10.5 -81t-26.5 -74q-20 -42 -56.5 -62t-78.5 -25t-105 -5h-166z" />
    <glyph glyph-name="uniFB91" unicode="&#x6a9;" horiz-adv-x="575" vert-adv-y="1703" arabic-form="medial" 
d="M586 203v-179h-23q-48 0 -80.5 17t-57.5 55q-13 21 -21 36q-17 -40 -41 -61q-32 -28 -74 -37.5t-133 -9.5h-167v179h147q83 0 127 6t63 21q-7 21 -25 41t-50 44q-69 49 -200 107l42 175l416 166l-39 -142l-293 -114q57 -27 85 -43t54 -35q37 -25 62 -48t38 -50
q12 -16 41 -63q24 -37 49.5 -51t71.5 -14h8z" />
    <glyph glyph-name="uniFB92" unicode="&#x6af;" horiz-adv-x="994" vert-adv-y="1703" arabic-form="isolated" 
d="M983 779l-415 -129l30 114l416 128zM214.5 36q-84.5 19 -120.5 63.5t-36 125.5q0 55 17 106.5t52 106.5l59 -32q-10 -26 -13.5 -47t-3.5 -45q0 -34 14 -57t45 -37q26 -13 75 -18t136 -5q56 0 132 3.5t138 8.5q36 4 55 9t43 17q-18 48 -126 108q-65 38 -161 76l41 176
l415 129l-38 -141l-293 -78q102 -46 147 -74q61 -37 84.5 -72.5t23.5 -86.5q0 -86 -31 -151t-105 -81q-47 -11 -130.5 -17t-182.5 -6q-152 0 -236.5 19z" />
    <glyph glyph-name="uniFB93" unicode="&#x6af;" horiz-adv-x="1042" vert-adv-y="1703" arabic-form="final" 
d="M598 764l416 128l-31 -113l-415 -129zM1053 203v-179h-22q-48 0 -80.5 17t-57.5 55q-18 29 -21 36q-17 -41 -41 -60q-40 -33 -122.5 -43.5t-192.5 -10.5h-68q-130 0 -202.5 11.5t-116.5 39.5q-71 48 -71 156q0 105 69 213l59 -32q-17 -47 -17 -93q0 -33 14 -55.5
t45 -37.5q26 -13 73.5 -18t135.5 -5q58 0 140.5 3.5t123.5 7.5q33 3 54 8t39 14q-8 24 -35 49.5t-74 55.5q-69 42 -165 84l41 176l416 129l-38 -141l-294 -78q87 -41 137 -74q40 -27 65 -50t38 -52q23 -34 40 -61q24 -38 50 -51.5t72 -13.5h6z" />
    <glyph glyph-name="uniFB94" unicode="&#x6af;" horiz-adv-x="526" vert-adv-y="1703" arabic-form="initial" 
d="M516 779l-416 -129l31 114l415 128zM-11 24v179h147q84 0 132.5 7t70.5 25q-14 44 -102 97q-67 40 -186 87l42 176l416 129l-39 -141l-293 -78q90 -40 150 -75q59 -37 82 -73t23 -85q0 -38 -10.5 -81.5t-26.5 -74.5q-20 -42 -56 -62t-78 -25t-105 -5h-167z" />
    <glyph glyph-name="uniFB95" unicode="&#x6af;" horiz-adv-x="575" vert-adv-y="1703" arabic-form="medial" 
d="M131 764l415 128l-30 -113l-416 -129zM586 203v-179h-23q-48 0 -80.5 17t-57.5 55q-13 21 -21 36q-17 -40 -41 -61q-32 -28 -74 -37.5t-133 -9.5h-167v179h147q83 0 127 6t63 21q-14 44 -98 99q-74 47 -177 90l42 176l416 128l-38 -140l-294 -78q87 -40 136 -74
q40 -27 64.5 -49.5t38.5 -50.5q12 -16 41 -63q24 -37 49.5 -51t71.5 -14h8z" />
    <glyph glyph-name="uniFB9E" unicode="&#x6ba;" horiz-adv-x="699" vert-adv-y="1703" arabic-form="isolated" 
d="M33 -11q0 54 8.5 98t30.5 96l57 -22q-13 -40 -13 -74q0 -84 52.5 -129t149.5 -45q153 0 227 90q-6 54 -30.5 108.5t-61.5 101.5l106 135q82 -152 82 -270q0 -60 -21 -122.5t-57 -109.5q-42 -54 -116.5 -83.5t-167.5 -29.5q-246 0 -246 256z" />
    <glyph glyph-name="uniFB9F" unicode="&#x6ba;" horiz-adv-x="740" vert-adv-y="1703" arabic-form="final" 
d="M82 -188q-49 61 -49 177q0 54 8.5 97.5t30.5 96.5l57 -22q-13 -40 -13 -75q0 -84 52 -128.5t150 -44.5q155 0 228 90q-14 110 -93 210l106 135q36 -65 57 -134q39 -11 103 -11h32v-179h-26q-55 0 -91 11q1 -6 1 -14q0 -53 -29.5 -111.5t-74.5 -96.5t-110 -59t-141 -21
q-138 0 -198 79z" />
    <glyph glyph-name="uniFBA4" unicode="&#x6c0;" horiz-adv-x="472" vert-adv-y="1703" arabic-form="isolated" 
d="M95.5 49q-38.5 29 -38.5 104q0 52 16.5 105t55.5 122l-33 15l72 119q82 -38 133 -71t82.5 -82.5t31.5 -121.5q0 -52 -13.5 -97t-38.5 -73q-23 -26 -57.5 -37.5t-92.5 -11.5q-79 0 -117.5 29zM320 209q-7 38 -38 70t-95 71q-39 -68 -47 -131q19 -27 102 -27q53 0 78 17z
M99 604l49 24q-31 14 -43 26t-12 30q0 31 18 62t45.5 51.5t54.5 20.5q21 0 38.5 -12.5t27.5 -34.5l-20 -30q-17 4 -25 4q-45 0 -78 -36q19 -15 37 -23.5t50 -16.5q46 18 75 21l-28 -68q-74 -24 -112.5 -42t-116.5 -66z" />
    <glyph glyph-name="uniFBA5" unicode="&#x6c0;" horiz-adv-x="505" vert-adv-y="1703" arabic-form="final" 
d="M470 24q-51 0 -79 11t-46 37q-10 13 -15.5 30.5t-15.5 62.5l-56 -85q-84 0 -151 15q-35 8 -48 19t-13 33q0 20 6 53l8 42q6 34 16 52t33.5 36.5t79.5 51.5l26 15q24 12 48 27l-11 50l93 87l51 -274q7 -38 11.5 -50t14.5 -19q19 -15 70 -15h24v-179h-46zM281 332
q-8 -5 -43.5 -23.5t-59.5 -39t-35 -42.5q12 -8 32 -10.5t89 -4.5l41 -2zM178 612l49 24q-31 14 -43 26t-12 30q0 31 18 62t45.5 51.5t54.5 20.5q21 0 38.5 -12.5t27.5 -34.5l-20 -30q-17 4 -25 4q-45 0 -78 -36q19 -15 37 -23.5t50 -16.5q46 18 75 21l-28 -68
q-74 -24 -112.5 -42t-116.5 -66z" />
    <glyph glyph-name="uniFBA6" unicode="&#x6c1;" horiz-adv-x="472" vert-adv-y="1703" arabic-form="isolated" 
d="M95.5 49q-38.5 29 -38.5 104q0 52 16.5 105t55.5 122l-33 15l72 119q82 -38 133 -71t82.5 -82.5t31.5 -121.5q0 -52 -13.5 -97t-38.5 -73q-23 -26 -57.5 -37.5t-92.5 -11.5q-79 0 -117.5 29zM320 209q-7 38 -38 70t-95 71q-39 -68 -47 -131q19 -27 102 -27q53 0 78 17z
" />
    <glyph glyph-name="uniFBA7" unicode="&#x6c1;" horiz-adv-x="654" vert-adv-y="1703" arabic-form="final" 
d="M618 24q-76 0 -120.5 10.5t-68.5 34.5q-33 33 -58 125q-8 28 -17 39.5t-24 11.5q-38 0 -103.5 -45.5t-165.5 -139.5l-34 31q96 155 122 186q53 72 111 112q26 19 49 28t48 9q26 0 48 -12t34 -34q7 -15 12 -29.5t12 -42.5q14 -47 29.5 -68.5t45.5 -29t92 -7.5h35v-179h-47
z" />
    <glyph glyph-name="uniFBA8" unicode="&#x6c1;" horiz-adv-x="328" vert-adv-y="1703" arabic-form="initial" 
d="M-11 24v179h56q92 0 131 33q-21 81 -70 151l100 133q32 -56 48.5 -117.5t16.5 -120.5q0 -115 -49 -181q-27 -38 -70 -57.5t-98 -19.5h-65zM55 -311.5q-22 27.5 -22 75.5q0 50 23.5 104t67.5 107h64q-29 -39 -43 -71t-24 -81q8 3 12 3q29 0 48 -22.5t19 -56.5
q0 -38 -23 -62t-60 -24q-40 0 -62 27.5z" />
    <glyph glyph-name="uniFBA9" unicode="&#x6c1;" horiz-adv-x="548" vert-adv-y="1703" arabic-form="medial" 
d="M351 -249q-101 45 -156 108.5t-82 164.5h-124v179h113q22 122 65 201.5t130 86.5q38 -40 61.5 -107.5t23.5 -133.5q0 -40 -15 -85t-38 -74q-42 -53 -114 -63q51 -85 135 -126q-18 61 -18 107q0 89 41 141.5t123 52.5h63v-179h-86q-36 -1 -52.5 -4t-22 -11.5t-5.5 -25.5
q0 -50 47 -114zM196 203q66 0 91 20q-6 85 -47 142q-49 -69 -56 -162h12zM-54.5 -311.5q-22.5 27.5 -22.5 76.5q0 50 23.5 104t69.5 106h64q-30 -39 -44 -70.5t-23 -81.5q7 3 11 3q29 0 48.5 -22.5t19.5 -56.5q0 -37 -23.5 -61.5t-59.5 -24.5q-41 0 -63.5 27.5z" />
    <glyph glyph-name="uniFBAA" unicode="&#x6be;" horiz-adv-x="929" vert-adv-y="1703" arabic-form="isolated" 
d="M556 28.5q-32 5.5 -69 20.5q-29 -15 -48.5 -20t-56.5 -5h-148l-201 124v50h332q-8 20 -11 34t-3 31q0 56 32 100.5t84 64.5l-47 13l28 125q57 -18 129 -48t136 -61q87 -44 122.5 -89.5t35.5 -114.5q0 -52 -17 -103t-44 -79q-23 -25 -66 -36.5t-110 -11.5q-46 0 -78 5.5z
M743.5 189q33.5 7 44.5 23q-9 34 -41 64q-27 26 -107 69q14 -22 20 -42t6 -44q0 -33 -14 -77q58 0 91.5 7zM599 230q-8 49 -35.5 80t-63.5 31q-25 0 -43.5 -15t-37.5 -49q6 -24 18.5 -40t35.5 -29q75 5 126 22z" />
    <glyph glyph-name="uniFBAB" unicode="&#x6be;" horiz-adv-x="967" vert-adv-y="1703" arabic-form="final" 
d="M980 203v-179h-32q-62 0 -87.5 7.5t-53.5 36.5q-23 -23 -65.5 -34t-107.5 -11q-45 0 -77 5.5t-70 20.5q-29 -15 -48.5 -20t-56.5 -5h-148l-201 124v50h332q-8 20 -11 34t-3 31q0 56 32 100.5t84 64.5l-47 13l28 125q58 -18 130 -48t135 -61q87 -44 122.5 -89.5
t35.5 -114.5q0 -27 -4 -50h113zM660 303q6 -20 6 -44q0 -33 -14 -77q58 0 91.5 7t45.5 23q-10 34 -41 64q-29 26 -108 69q14 -22 20 -42zM599 230q-8 49 -35.5 80t-63.5 31q-25 0 -43.5 -15t-36.5 -49q5 -24 17.5 -40t35.5 -29q75 5 126 22z" />
    <glyph glyph-name="uniFBAC" unicode="&#x6be;" horiz-adv-x="661" vert-adv-y="1703" arabic-form="initial" 
d="M289 28.5q-32 5.5 -70 20.5q-41 -14 -76.5 -19.5t-80.5 -5.5h-73v179h106q-11 33 -11 62q0 55 32 99.5t83 63.5l-47 13l29 125q57 -18 129.5 -48t134.5 -61q87 -44 122.5 -89.5t35.5 -114.5q0 -52 -17 -103t-44 -79q-44 -48 -176 -48q-45 0 -77 5.5zM476.5 189
q33.5 7 45.5 23q-12 39 -47 68q-37 31 -103 65q14 -22 20 -42t6 -44q0 -38 -14 -77q59 0 92.5 7zM331 230q-8 49 -35.5 80t-63.5 31q-25 0 -43.5 -15t-36.5 -49q5 -24 17.5 -40t35.5 -29q75 5 126 22z" />
    <glyph glyph-name="uniFBAD" unicode="&#x6be;" horiz-adv-x="700" vert-adv-y="1703" arabic-form="medial" 
d="M711 203v-179h-32q-58 0 -84.5 7.5t-55.5 36.5q-44 -45 -173 -45q-45 0 -77 5.5t-70 20.5q-41 -14 -76.5 -19.5t-80.5 -5.5h-73v179h106q-11 33 -11 62q0 55 32 99.5t83 63.5l-47 13l29 125q57 -18 129.5 -48t134.5 -61q87 -44 122.5 -89.5t35.5 -114.5q0 -27 -4 -50h112
zM392 303q6 -20 6 -44q0 -38 -14 -77q59 0 92.5 7t45.5 23q-12 37 -42 64q-29 26 -108 69q14 -22 20 -42zM331 230q-8 49 -35.5 80t-63.5 31q-25 0 -43.5 -15t-36.5 -49q5 -24 17.5 -40t35.5 -29q75 5 126 22z" />
    <glyph glyph-name="uniFBAE" unicode="&#x6d2;" horiz-adv-x="958" vert-adv-y="1703" arabic-form="isolated" 
d="M275.5 -204q-87.5 12 -127.5 35q-39 22 -59.5 57t-20.5 80q0 63 33 134.5t93 135.5q62 67 129.5 106.5t120.5 39.5q39 0 67.5 -19.5t54.5 -64t55 -122.5l-46 -24q-29 38 -50.5 51.5t-52.5 13.5q-52 0 -107.5 -26.5t-104.5 -73.5q-26 -26 -44 -50.5t-43 -68.5
q22 -16 40.5 -22t56.5 -11q83 -10 191 -10q116 0 279 12.5t252 29.5q-43 -65 -68.5 -96t-47.5 -49q-43 -34 -142.5 -52t-243.5 -18q-127 0 -214.5 12z" />
    <glyph glyph-name="uniFBAF" unicode="&#x6d2;" horiz-adv-x="688" vert-adv-y="1703" arabic-form="final" 
d="M209 -292.5q-87 14.5 -127 41.5q-37 24 -58 65.5t-21 90.5q0 73 46 131t134 96q76 34 189.5 52.5t248.5 18.5h81v-179h-118q-99 0 -190.5 -9t-157.5 -25q-50 -13 -76 -26.5t-56 -42.5q23 -18 40 -26.5t43 -13.5q68 -15 190 -15q98 0 229 11t212 26q-38 -66 -58 -96
t-35 -45q-33 -34 -112 -51.5t-197 -17.5q-120 0 -207 14.5z" />
    <glyph glyph-name="uniFBB0" unicode="&#x6d3;" horiz-adv-x="958" vert-adv-y="1703" arabic-form="isolated" 
d="M275.5 -204q-87.5 12 -127.5 35q-39 22 -59.5 57t-20.5 80q0 63 33 134.5t93 135.5q62 67 129.5 106.5t120.5 39.5q39 0 67.5 -19.5t54.5 -64t55 -122.5l-46 -24q-29 38 -50.5 51.5t-52.5 13.5q-52 0 -107.5 -26.5t-104.5 -73.5q-26 -26 -44 -50.5t-43 -68.5
q22 -16 40.5 -22t56.5 -11q83 -10 191 -10q116 0 279 12.5t252 29.5q-43 -65 -68.5 -96t-47.5 -49q-43 -34 -142.5 -52t-243.5 -18q-127 0 -214.5 12zM330 485l49 24q-31 14 -43 26t-12 30q0 31 18 62t45.5 51.5t54.5 20.5q21 0 38.5 -12.5t27.5 -34.5l-20 -30q-17 4 -25 4
q-45 0 -78 -36q19 -15 37 -23.5t50 -16.5q46 18 75 21l-28 -68q-74 -24 -112.5 -42t-116.5 -66z" />
    <glyph glyph-name="uniFBB1" unicode="&#x6d3;" horiz-adv-x="688" vert-adv-y="1703" arabic-form="final" 
d="M209 -292.5q-87 14.5 -127 41.5q-37 24 -58 65.5t-21 90.5q0 73 46 131t134 96q76 34 189.5 52.5t248.5 18.5h81v-179h-118q-99 0 -190.5 -9t-157.5 -25q-50 -13 -76 -26.5t-56 -42.5q23 -18 40 -26.5t43 -13.5q68 -15 190 -15q98 0 229 11t212 26q-38 -66 -58 -96
t-35 -45q-33 -34 -112 -51.5t-197 -17.5q-120 0 -207 14.5zM301 304l49 24q-31 14 -43 26t-12 30q0 31 18 62t45.5 51.5t54.5 20.5q21 0 38.5 -12.5t27.5 -34.5l-20 -30q-17 4 -25 4q-45 0 -78 -36q19 -15 37 -23.5t50 -16.5q46 18 75 21l-28 -68q-74 -24 -112.5 -42
t-116.5 -66z" />
    <glyph glyph-name="uniFBD3" unicode="&#x6ad;" horiz-adv-x="979" vert-adv-y="1703" arabic-form="isolated" 
d="M465 874l76 -79l-76 -79l-75 79zM896 402v-62q1 -27 1 -61q0 -88 -26.5 -140.5t-82.5 -76.5q-100 -45 -345 -45q-140 0 -222.5 18t-122.5 63t-40 128q0 46 12 90t36 93l58 -22q-7 -36 -7 -72q0 -35 15 -57.5t48 -37.5q28 -13 78.5 -18.5t143.5 -5.5q152 0 232.5 8.5
t119.5 35.5l-34 444l104 91l73 -179l-45 -39zM541 563l-75 78l-76 -78l-82 84l82 85l76 -79l75 79l81 -85zM630 567l-30 -92l-81 -22q19 -22 25 -37.5t6 -38.5q0 -50 -24 -79q-14 -16 -30.5 -22t-47.5 -6h-84l27 108h47q29 0 40 9q-7 19 -43 55l16 59z" />
    <glyph glyph-name="uniFBD4" unicode="&#x6ad;" horiz-adv-x="1029" vert-adv-y="1200" arabic-form="final" 
d="M465 874l76 -79l-76 -79l-75 79zM1040 203v-179h-64q-49 0 -80.5 16t-56.5 54q-46 -43 -145 -60t-256 -17q-139 0 -220.5 18t-120.5 63.5t-39 127.5q0 46 12 90t36 93l58 -22q-7 -36 -7 -72q0 -35 14.5 -57.5t48.5 -37.5q29 -13 79.5 -18.5t147.5 -5.5q159 0 239 8.5
t122 36.5l-44 422l132 112l11 -395q2 -68 4.5 -92t10.5 -42q10 -23 30 -33t55 -10h33zM541 563l-75 78l-76 -78l-82 84l82 85l76 -79l75 79l81 -85zM630 567l-30 -92l-81 -22q19 -22 25 -37.5t6 -38.5q0 -50 -24 -79q-14 -16 -30.5 -22t-47.5 -6h-84l27 108h47q29 0 40 9
q-7 19 -43 55l16 59z" />
    <glyph glyph-name="uniFBD5" unicode="&#x6ad;" horiz-adv-x="526" vert-adv-y="1200" arabic-form="initial" 
d="M286 817l-76 78l76 79l75 -79zM383 702l-81 84l81 85l82 -85zM229 659l-81 84l81 85l81 -85zM-11 24v179h147q91 0 137 7q47 9 66 25q-13 41 -99 94q-76 47 -188 90l41 176l416 129l-39 -141l-293 -78q162 -72 212 -122q42 -42 42 -113q0 -59 -17.5 -115.5t-48.5 -83.5
q-32 -28 -74.5 -37.5t-134.5 -9.5h-167z" />
    <glyph glyph-name="uniFBD6" unicode="&#x6ad;" horiz-adv-x="575" vert-adv-y="1200" arabic-form="medial" 
d="M286 974l75 -79l-75 -78l-76 78zM465 786l-82 -84l-81 84l81 85zM229 828l81 -85l-81 -84l-81 84zM586 203v-179h-23q-48 0 -80 17t-58 55q-12 18 -21 36q-15 -38 -41 -61q-32 -28 -73.5 -37.5t-133.5 -9.5h-167v179h147q88 0 133 7q42 8 57 20q-15 43 -91 94
q-71 47 -183 95l41 176l417 129l-39 -141l-294 -78q95 -46 137 -75q42 -27 67 -51t37 -51q7 -10 39 -60q24 -37 50 -51t71 -14h8z" />
    <glyph glyph-name="uniFBD7" unicode="&#x6c7;" horiz-adv-x="504" vert-adv-y="1703" arabic-form="isolated" 
d="M4 -161v44q101 18 139 27.5t87 28.5q53 21 85 42t49 48q-36 -6 -61 -6q-65 0 -105 7.5t-65.5 34.5t-25.5 83q0 98 42 177q53 99 138 99q77 0 117 -82.5t40 -216.5q0 -60 -12 -111t-34 -87q-33 -53 -88.5 -96.5t-106.5 -43.5t-199 52zM354 195q-20 55 -42 79.5t-53 24.5
q-28 0 -45 -21t-22 -61q13 -13 35 -18t69 -5q41 0 58 1zM138 532q33 5 57 12q18 5 41 13q-34 13 -48.5 27.5t-14.5 34.5q0 30 17 58t44.5 45t56.5 17q35 0 56 -26t21 -69q0 -90 -67.5 -135t-169.5 -65zM301 629q0 20 -8.5 31.5t-23.5 11.5q-28 0 -39 -32q7 -12 23 -20
t45 -15q3 12 3 24z" />
    <glyph glyph-name="uniFBD8" unicode="&#x6c7;" horiz-adv-x="526" vert-adv-y="1703" arabic-form="final" 
d="M536 203v-179h-102q-10 -55 -36 -97q-33 -53 -88.5 -96.5t-106.5 -43.5t-199 52v44q101 18 138.5 27.5t87.5 28.5q52 20 84 40.5t48 44.5h-70q-62 0 -100.5 8.5t-61.5 35.5t-23 81q0 97 42 176q53 99 138 99q70 0 109 -68q33 -57 44 -153h96zM354 203q-14 36 -27 56
q-27 40 -67 40q-29 0 -46 -21t-22 -61q13 -8 35 -11t68 -3h59zM138 532q33 5 57 12q18 5 41 13q-34 13 -48.5 27.5t-14.5 34.5q0 30 17 58t44.5 45t56.5 17q35 0 56 -26t21 -69q0 -90 -67.5 -135t-169.5 -65zM301 629q0 20 -8.5 31.5t-23.5 11.5q-28 0 -39 -32q7 -12 23 -20
t45 -15q3 12 3 24z" />
    <glyph glyph-name="uniFBD9" unicode="&#x6c6;" horiz-adv-x="504" vert-adv-y="1703" arabic-form="isolated" 
d="M4 -161v44q101 18 139 27.5t87 28.5q53 21 85 42t49 48q-36 -6 -61 -6q-65 0 -105 7.5t-65.5 34.5t-25.5 83q0 98 42 177q53 99 138 99q77 0 117 -82.5t40 -216.5q0 -60 -12 -111t-34 -87q-33 -53 -88.5 -96.5t-106.5 -43.5t-199 52zM354 195q-20 55 -42 79.5t-53 24.5
q-28 0 -45 -21t-22 -61q13 -13 35 -18t69 -5q41 0 58 1zM253 513q-26 53 -44 81t-38.5 43t-53.5 28l28 76q91 -34 134 -129q45 98 128 129l19 -61q-82 -37 -123 -167h-50z" />
    <glyph glyph-name="uniFBDA" unicode="&#x6c6;" horiz-adv-x="526" vert-adv-y="1703" arabic-form="final" 
d="M536 203v-179h-102q-10 -55 -36 -97q-33 -53 -88.5 -96.5t-106.5 -43.5t-199 52v44q101 18 138.5 27.5t87.5 28.5q52 20 84 40.5t48 44.5h-70q-62 0 -100.5 8.5t-61.5 35.5t-23 81q0 97 42 176q53 99 138 99q70 0 109 -68q33 -57 44 -153h96zM354 203q-14 36 -27 56
q-27 40 -67 40q-29 0 -46 -21t-22 -61q13 -8 35 -11t68 -3h59zM254 513q-26 53 -44 81t-38.5 43t-53.5 28l28 76q91 -34 134 -129q45 98 128 129l19 -61q-82 -37 -123 -167h-50z" />
    <glyph glyph-name="uniFBDB" unicode="&#x6c8;" horiz-adv-x="504" vert-adv-y="1703" arabic-form="isolated" 
d="M4 -161v44q101 18 139 27.5t87 28.5q53 21 85 42t49 48q-36 -6 -61 -6q-65 0 -105 7.5t-65.5 34.5t-25.5 83q0 98 42 177q53 99 138 99q77 0 117 -82.5t40 -216.5q0 -60 -12 -111t-34 -87q-33 -53 -88.5 -96.5t-106.5 -43.5t-199 52zM354 195q-20 55 -42 79.5t-53 24.5
q-28 0 -45 -21t-22 -61q13 -13 35 -18t69 -5q41 0 58 1zM230 487q-20 87 -40 141l95 88l18 -221z" />
    <glyph glyph-name="uniFBDC" unicode="&#x6c8;" horiz-adv-x="526" vert-adv-y="1703" arabic-form="final" 
d="M536 203v-179h-102q-10 -55 -36 -97q-33 -53 -88.5 -96.5t-106.5 -43.5t-199 52v44q101 18 138.5 27.5t87.5 28.5q52 20 84 40.5t48 44.5h-70q-62 0 -100.5 8.5t-61.5 35.5t-23 81q0 97 42 176q53 99 138 99q70 0 109 -68q33 -57 44 -153h96zM354 203q-14 36 -27 56
q-27 40 -67 40q-29 0 -46 -21t-22 -61q13 -8 35 -11t68 -3h59zM230 487q-20 87 -40 141l95 88l18 -221z" />
    <glyph glyph-name="uniFBDE" unicode="&#x6cb;" horiz-adv-x="504" vert-adv-y="1703" arabic-form="isolated" 
d="M4 -161v44q101 18 139 27.5t87 28.5q53 21 85 42t49 48q-36 -6 -61 -6q-65 0 -105 7.5t-65.5 34.5t-25.5 83q0 98 42 177q53 99 138 99q77 0 117 -82.5t40 -216.5q0 -60 -12 -111t-34 -87q-33 -53 -88.5 -96.5t-106.5 -43.5t-199 52zM354 195q-20 55 -42 79.5t-53 24.5
q-28 0 -45 -21t-22 -61q13 -13 35 -18t69 -5q41 0 58 1zM266 837l92 -94l-92 -95l-91 95zM357 666l98 -102l-98 -101l-91 95l-91 -95l-98 101l98 102l92 -95z" />
    <glyph glyph-name="uniFBDF" unicode="&#x6cb;" horiz-adv-x="526" vert-adv-y="1703" arabic-form="final" 
d="M536 203v-179h-102q-10 -55 -36 -97q-33 -53 -88.5 -96.5t-106.5 -43.5t-199 52v44q101 18 138.5 27.5t87.5 28.5q52 20 84 40.5t48 44.5h-70q-62 0 -100.5 8.5t-61.5 35.5t-23 81q0 97 42 176q53 99 138 99q70 0 109 -68q33 -57 44 -153h96zM354 203q-14 36 -27 56
q-27 40 -67 40q-29 0 -46 -21t-22 -61q13 -8 35 -11t68 -3h59zM266 837l92 -94l-92 -95l-91 95zM357 666l98 -102l-98 -101l-91 95l-91 -95l-98 101l98 102l92 -95z" />
    <glyph glyph-name="uniFBE2" unicode="&#x6c9;" horiz-adv-x="504" vert-adv-y="1703" arabic-form="isolated" 
d="M4 -161v44q101 18 139 27.5t87 28.5q53 21 85 42t49 48q-36 -6 -61 -6q-65 0 -105 7.5t-65.5 34.5t-25.5 83q0 98 42 177q53 99 138 99q77 0 117 -82.5t40 -216.5q0 -60 -12 -111t-34 -87q-33 -53 -88.5 -96.5t-106.5 -43.5t-199 52zM354 195q-20 55 -42 79.5t-53 24.5
q-28 0 -45 -21t-22 -61q13 -13 35 -18t69 -5q41 0 58 1zM293 741q26 -54 44.5 -81.5t39 -42.5t53.5 -27l-28 -77q-93 34 -134 129q-45 -97 -129 -129l-18 61q81 37 123 167h49z" />
    <glyph glyph-name="uniFBE3" unicode="&#x6c9;" horiz-adv-x="526" vert-adv-y="1703" arabic-form="final" 
d="M536 203v-179h-102q-10 -55 -36 -97q-33 -53 -88.5 -96.5t-106.5 -43.5t-199 52v44q101 18 138.5 27.5t87.5 28.5q52 20 84 40.5t48 44.5h-70q-62 0 -100.5 8.5t-61.5 35.5t-23 81q0 97 42 176q53 99 138 99q70 0 109 -68q33 -57 44 -153h96zM354 203q-14 36 -27 56
q-27 40 -67 40q-29 0 -46 -21t-22 -61q13 -8 35 -11t68 -3h59zM294 741q26 -54 44.5 -81.5t39 -42.5t53.5 -27l-28 -77q-93 34 -134 129q-45 -97 -129 -129l-18 61q81 37 123 167h49z" />
    <glyph glyph-name="uniFBE4" unicode="&#x6d0;" horiz-adv-x="761" vert-adv-y="1703" arabic-form="isolated" 
d="M686.5 -41q-21.5 -49 -58.5 -83q-50 -47 -136 -76t-177 -29q-75 0 -132.5 19t-93.5 55q-56 56 -56 169q0 48 8 87.5t28 90.5l60 -17q-13 -33 -13 -68q0 -170 237 -170q62 0 115.5 9.5t91.5 26.5q41 18 58 46q-8 4 -20 7l-36 6q-99 12 -138 23q-32 9 -42.5 21.5
t-10.5 35.5q0 49 23 111t59 109q39 50 88.5 81.5t90.5 31.5q24 0 41 -13t34 -45.5t40 -94.5l-28 -28q-54 17 -96 17q-55 0 -92 -23.5t-60 -70.5q12 -5 25 -7.5t35 -5.5q53 -7 77.5 -12t42.5 -13q30 -13 43.5 -35.5t13.5 -57.5q0 -48 -21.5 -97zM533 -250l99 103l98 -103
l-79 -82l79 -82l-98 -102l-99 102l79 81z" />
    <glyph glyph-name="uniFBE5" unicode="&#x6d0;" horiz-adv-x="756" vert-adv-y="1703" arabic-form="final" 
d="M99.5 -172q-66.5 56 -66.5 175q0 49 9 94t30 95l57 -21q-7 -25 -10 -40t-3 -32q0 -94 65 -129t174 -35q64 0 118 8.5t85 23t31 31.5q0 15 -15.5 23t-59 12.5t-135.5 8.5q4 76 14 107.5t39 42.5t96 11h239v-179l-106 -1q12 -13 17 -25t5 -29q0 -73 -63 -117t-149.5 -62
t-163.5 -18q-141 0 -207.5 56zM602 -177l98 -103l-79 -82l79 -82l-98 -102l-99 102l79 81l-79 83z" />
    <glyph glyph-name="uniFBE6" unicode="&#x6d0;" horiz-adv-x="328" vert-adv-y="1703" arabic-form="initial" 
d="M-11 24v179h56q92 0 131 33q-21 81 -70 151l100 133q32 -56 48.5 -117.5t16.5 -120.5q0 -107 -42 -170q-27 -43 -71.5 -65.5t-103.5 -22.5h-65zM114 -1l98 -103l-79 -82l79 -82l-98 -102l-99 102l79 81l-79 83z" />
    <glyph glyph-name="uniFBE7" unicode="&#x6d0;" horiz-adv-x="395" vert-adv-y="1703" arabic-form="medial" 
d="M-11 24v179h26q88 0 126.5 24.5t38.5 79.5q0 24 -2 52h63q3 -57 6.5 -75.5t13.5 -34.5q30 -46 118 -46h27v-179h-32q-59 0 -94.5 17.5t-64.5 60.5q-29 -42 -71.5 -60t-112.5 -18h-42zM116 -1l98 -103l-79 -82l79 -82l-98 -102l-99 102l79 81l-79 83z" />
    <glyph glyph-name="uniFBE8" unicode="&#x649;" horiz-adv-x="328" vert-adv-y="1703" arabic-form="initial" 
d="M-11 24v179h56q94 1 131 33q-21 81 -70 151l100 133q32 -56 48.5 -117.5t16.5 -120.5q0 -115 -49 -181q-27 -38 -70 -57.5t-98 -19.5h-65z" />
    <glyph glyph-name="uniFBE9" unicode="&#x649;" horiz-adv-x="395" vert-adv-y="1703" arabic-form="medial" 
d="M-11 24v179h26q88 0 126.5 24.5t38.5 79.5q0 24 -2 52h63q3 -57 6.5 -75.5t13.5 -34.5q30 -46 118 -46h27v-179h-32q-59 0 -94.5 17.5t-64.5 60.5q-29 -42 -71.5 -60t-112.5 -18h-42z" />
    <glyph glyph-name="uniFBEA" unicode="&#xfbea;" horiz-adv-x="656" vert-adv-y="1703" arabic-form="isolated" 
d="M363 570l49 24q-31 14 -43 26t-12 30q0 31 18 62t45.5 51.5t54.5 20.5q21 0 38.5 -12.5t27.5 -34.5l-20 -30q-17 4 -25 4q-45 0 -78 -36q19 -15 37 -23.5t50 -16.5q46 18 75 21l-28 -68q-74 -24 -112.5 -42t-116.5 -66zM534 520q32 -56 48.5 -117.5t16.5 -120.5
q0 -107 -42 -170q-27 -43 -71.5 -65.5t-103.5 -22.5h-92q-99 0 -143 48q-23 26 -34 72.5t-17 137.5l-14 248q-3 50 -7.5 76t-15.5 57l132 112q16 -67 16 -201v-205q0 -58 6.5 -91.5t31 -54t76.5 -20.5h52q92 0 131 33q-21 81 -70 151z" />
    <glyph glyph-name="uniFBEB" unicode="&#xfbeb;" horiz-adv-x="723" vert-adv-y="1703" arabic-form="final" 
d="M734 203v-179h-32q-59 0 -94.5 17.5t-64.5 60.5q-29 -42 -71.5 -60t-112.5 -18h-69q-99 0 -143 48q-23 26 -34 72.5t-17 137.5l-14 248q-3 50 -7.5 76t-15.5 57l132 112q16 -67 16 -201v-205q0 -58 6.5 -91.5t31 -54t76.5 -20.5h22q88 0 126.5 24.5t38.5 79.5q0 24 -2 52
h63q3 -57 6.5 -76t14.5 -34q28 -46 117 -46h27zM394 501l49 24q-30 14 -42 26t-12 30q0 31 18 62t45.5 51.5t54.5 20.5q20 0 37.5 -12.5t27.5 -34.5l-20 -30q-17 4 -25 4q-45 0 -77 -36q18 -15 36 -23.5t50 -16.5q46 18 76 21l-29 -68q-74 -24 -112.5 -42t-116.5 -66z" />
    <glyph glyph-name="uniFBEE" unicode="&#xfbee;" horiz-adv-x="854" vert-adv-y="1703" arabic-form="isolated" 
d="M561 570l49 24q-31 14 -43 26t-12 30q0 31 18 62t45.5 51.5t54.5 20.5q21 0 38.5 -12.5t27.5 -34.5l-20 -30q-17 4 -25 4q-45 0 -78 -36q19 -15 37 -23.5t50 -16.5q46 18 75 21l-28 -68q-74 -24 -112.5 -42t-116.5 -66zM732 520q32 -56 48.5 -117.5t16.5 -120.5
q0 -107 -42 -170q-27 -43 -71.5 -65.5t-103.5 -22.5h-146q-10 -55 -36 -97q-33 -53 -88.5 -96.5t-106.5 -43.5t-199 52v44q101 18 138.5 27.5t87.5 28.5q52 20 84 40.5t48 44.5h-70q-62 0 -100.5 8.5t-61.5 35.5t-23 81q0 97 42 176q53 99 138 99q70 0 109 -68
q33 -57 44 -153h131q92 0 131 33q-21 81 -70 151zM354 203q-14 36 -27 56q-27 40 -67 40q-29 0 -46 -21t-22 -61q13 -8 35 -11t68 -3h59z" />
    <glyph glyph-name="uniFBEF" unicode="&#xfbef;" horiz-adv-x="921" vert-adv-y="1703" arabic-form="final" 
d="M591 501l49 24q-30 14 -42 26t-12 30q0 31 18 62t45.5 51.5t54.5 20.5q21 0 38.5 -12.5t27.5 -34.5l-20 -30q-17 4 -25 4q-45 0 -78 -36q19 -15 37 -23.5t49 -16.5q46 18 76 21l-29 -68q-74 -24 -112.5 -42.5t-115.5 -65.5zM931 203v-179h-31q-60 0 -95.5 17.5
t-64.5 60.5q-29 -42 -71 -60t-112 -18h-123q-10 -55 -36 -97q-33 -53 -88.5 -96.5t-106.5 -43.5t-199 52v44q101 18 138.5 27.5t87.5 28.5q52 20 84 40.5t48 44.5h-70q-62 0 -100.5 8.5t-61.5 35.5t-23 81q0 97 42 176q53 99 138 99q70 0 109 -68q33 -57 44 -153h101
q88 0 126 24t38 80q0 24 -2 52h63q3 -57 6.5 -76t14.5 -34q30 -46 118 -46h26zM354 203q-14 36 -27 56q-27 40 -67 40q-29 0 -46 -21t-22 -61q13 -8 35 -11t68 -3h59z" />
    <glyph glyph-name="uniFBF0" unicode="&#xfbf0;" horiz-adv-x="854" vert-adv-y="1703" arabic-form="isolated" 
d="M561 570l49 24q-31 14 -43 26t-12 30q0 31 18 62t45.5 51.5t54.5 20.5q21 0 38.5 -12.5t27.5 -34.5l-20 -30q-17 4 -25 4q-45 0 -78 -36q19 -15 37 -23.5t50 -16.5q46 18 75 21l-28 -68q-74 -24 -112.5 -42t-116.5 -66zM300.5 509q-67.5 -45 -169.5 -65l7 88q33 5 57 12
q18 5 41 13q-34 13 -48.5 27.5t-14.5 34.5q0 30 17 58t44.5 45t56.5 17q35 0 56 -26t21 -69q0 -90 -67.5 -135zM301 629q0 20 -8.5 31.5t-23.5 11.5q-28 0 -39 -32q7 -12 23 -20t45 -15q3 12 3 24zM732 520q32 -56 48.5 -117.5t16.5 -120.5q0 -107 -42 -170
q-27 -43 -71.5 -65.5t-103.5 -22.5h-146q-10 -55 -36 -97q-33 -53 -88.5 -96.5t-106.5 -43.5t-199 52v44q101 18 138.5 27.5t87.5 28.5q52 20 84 40.5t48 44.5h-70q-62 0 -100.5 8.5t-61.5 35.5t-23 81q0 97 42 176q53 99 138 99q70 0 109 -68q33 -57 44 -153h131
q92 0 131 33q-21 81 -70 151zM354 203q-14 36 -27 56q-27 40 -67 40q-29 0 -46 -21t-22 -61q13 -8 35 -11t68 -3h59z" />
    <glyph glyph-name="uniFBF1" unicode="&#xfbf1;" horiz-adv-x="921" vert-adv-y="1703" arabic-form="final" 
d="M300.5 509q-67.5 -45 -169.5 -65l7 88q33 5 57 12q18 5 41 13q-34 13 -48.5 27.5t-14.5 34.5q0 30 17 58t44.5 45t56.5 17q35 0 56 -26t21 -69q0 -90 -67.5 -135zM592 501l49 24q-31 14 -43 26t-12 30q0 31 18 62t45.5 51.5t54.5 20.5q21 0 38.5 -12.5t27.5 -34.5
l-20 -30q-17 4 -25 4q-45 0 -78 -36q19 -15 37 -23.5t50 -16.5q46 18 75 21l-28 -68q-74 -24 -112.5 -42t-116.5 -66zM301 629q0 20 -8.5 31.5t-23.5 11.5q-28 0 -39 -32q7 -12 23 -20t45 -15q3 12 3 24zM932 203v-179h-32q-59 0 -94.5 17.5t-64.5 60.5q-29 -42 -71.5 -60
t-112.5 -18h-123q-10 -55 -36 -97q-33 -53 -88.5 -96.5t-106.5 -43.5t-199 52v44q101 18 138.5 27.5t87.5 28.5q52 20 84 40.5t48 44.5h-70q-62 0 -100.5 8.5t-61.5 35.5t-23 81q0 97 42 176q53 99 138 99q70 0 109 -68q33 -57 44 -153h101q88 0 126.5 24.5t38.5 79.5
q0 24 -2 52h63q3 -57 6.5 -75.5t13.5 -34.5q30 -46 118 -46h27zM354 203q-14 36 -27 56q-27 40 -67 40q-29 0 -46 -21t-22 -61q13 -8 35 -11t68 -3h59z" />
    <glyph glyph-name="uniFBF2" unicode="&#xfbf2;" horiz-adv-x="854" vert-adv-y="1703" arabic-form="isolated" 
d="M561 570l49 24q-31 14 -43 26t-12 30q0 31 18 62t45.5 51.5t54.5 20.5q21 0 38.5 -12.5t27.5 -34.5l-20 -30q-17 4 -25 4q-45 0 -78 -36q19 -15 37 -23.5t50 -16.5q46 18 75 21l-28 -68q-74 -24 -112.5 -42t-116.5 -66zM254 513q-26 53 -44 81t-38.5 43t-53.5 28l28 76
q91 -34 134 -129q45 98 128 129l19 -61q-82 -37 -123 -167h-50zM732 520q32 -56 48.5 -117.5t16.5 -120.5q0 -107 -42 -170q-27 -43 -71.5 -65.5t-103.5 -22.5h-146q-10 -55 -36 -97q-33 -53 -88.5 -96.5t-106.5 -43.5t-199 52v44q101 18 138.5 27.5t87.5 28.5
q52 20 84 40.5t48 44.5h-70q-62 0 -100.5 8.5t-61.5 35.5t-23 81q0 97 42 176q53 99 138 99q70 0 109 -68q33 -57 44 -153h131q92 0 131 33q-21 81 -70 151zM354 203q-14 36 -27 56q-27 40 -67 40q-29 0 -46 -21t-22 -61q13 -8 35 -11t68 -3h59z" />
    <glyph glyph-name="uniFBF3" unicode="&#xfbf3;" horiz-adv-x="921" vert-adv-y="1703" arabic-form="final" 
d="M254 513q-26 53 -44 81t-38.5 43t-53.5 28l28 76q91 -34 134 -129q45 98 128 129l19 -61q-82 -37 -123 -167h-50zM592 501l49 24q-31 14 -43 26t-12 30q0 31 18 62t45.5 51.5t54.5 20.5q21 0 38.5 -12.5t27.5 -34.5l-20 -30q-17 4 -25 4q-45 0 -78 -36q19 -15 37 -23.5
t50 -16.5q46 18 75 21l-28 -68q-74 -24 -112.5 -42t-116.5 -66zM932 203v-179h-32q-59 0 -94.5 17.5t-64.5 60.5q-29 -42 -71.5 -60t-112.5 -18h-123q-10 -55 -36 -97q-33 -53 -88.5 -96.5t-106.5 -43.5t-199 52v44q101 18 138.5 27.5t87.5 28.5q52 20 84 40.5t48 44.5h-70
q-62 0 -100.5 8.5t-61.5 35.5t-23 81q0 97 42 176q53 99 138 99q70 0 109 -68q33 -57 44 -153h101q88 0 126.5 24.5t38.5 79.5q0 24 -2 52h63q3 -57 6.5 -75.5t13.5 -34.5q30 -46 118 -46h27zM354 203q-14 36 -27 56q-27 40 -67 40q-29 0 -46 -21t-22 -61q13 -8 35 -11
t68 -3h59z" />
    <glyph glyph-name="uniFBF4" unicode="&#xfbf4;" horiz-adv-x="854" vert-adv-y="1703" arabic-form="isolated" 
d="M561 570l49 24q-31 14 -43 26t-12 30q0 31 18 62t45.5 51.5t54.5 20.5q21 0 38.5 -12.5t27.5 -34.5l-20 -30q-17 4 -25 4q-45 0 -78 -36q19 -15 37 -23.5t50 -16.5q46 18 75 21l-28 -68q-74 -24 -112.5 -42t-116.5 -66zM303 495l-73 -8q-20 87 -40 141l95 88zM732 520
q32 -56 48.5 -117.5t16.5 -120.5q0 -107 -42 -170q-27 -43 -71.5 -65.5t-103.5 -22.5h-146q-10 -55 -36 -97q-33 -53 -88.5 -96.5t-106.5 -43.5t-199 52v44q101 18 138.5 27.5t87.5 28.5q52 20 84 40.5t48 44.5h-70q-62 0 -100.5 8.5t-61.5 35.5t-23 81q0 97 42 176
q53 99 138 99q70 0 109 -68q33 -57 44 -153h131q92 0 131 33q-21 81 -70 151zM354 203q-14 36 -27 56q-27 40 -67 40q-29 0 -46 -21t-22 -61q13 -8 35 -11t68 -3h59z" />
    <glyph glyph-name="uniFBF5" unicode="&#xfbf5;" horiz-adv-x="921" vert-adv-y="1703" arabic-form="final" 
d="M303 495l-73 -8q-20 87 -40 141l95 88zM592 501l49 24q-31 14 -43 26t-12 30q0 31 18 62t45.5 51.5t54.5 20.5q21 0 38.5 -12.5t27.5 -34.5l-20 -30q-17 4 -25 4q-45 0 -78 -36q19 -15 37 -23.5t50 -16.5q46 18 75 21l-28 -68q-74 -24 -112.5 -42t-116.5 -66zM932 203
v-179h-32q-59 0 -94.5 17.5t-64.5 60.5q-29 -42 -71.5 -60t-112.5 -18h-123q-10 -55 -36 -97q-33 -53 -88.5 -96.5t-106.5 -43.5t-199 52v44q101 18 138.5 27.5t87.5 28.5q52 20 84 40.5t48 44.5h-70q-62 0 -100.5 8.5t-61.5 35.5t-23 81q0 97 42 176q53 99 138 99
q70 0 109 -68q33 -57 44 -153h101q88 0 126.5 24.5t38.5 79.5q0 24 -2 52h63q3 -57 6.5 -75.5t13.5 -34.5q30 -46 118 -46h27zM354 203q-14 36 -27 56q-27 40 -67 40q-29 0 -46 -21t-22 -61q13 -8 35 -11t68 -3h59z" />
    <glyph glyph-name="uniFBF6" unicode="&#xfbf6;" horiz-adv-x="1084" vert-adv-y="1703" arabic-form="isolated" 
d="M791 570l49 24q-31 14 -43 26t-12 30q0 31 18 62t45.5 51.5t54.5 20.5q21 0 38.5 -12.5t27.5 -34.5l-20 -30q-17 4 -25 4q-45 0 -78 -36q19 -15 37 -23.5t50 -16.5q46 18 75 21l-28 -68q-74 -24 -112.5 -42t-116.5 -66zM962 520q32 -56 48.5 -117.5t16.5 -120.5
q0 -107 -42 -170q-27 -43 -71.5 -65.5t-103.5 -22.5l-149 -1q12 -13 17 -25t5 -29q0 -73 -63 -117t-149.5 -62t-163.5 -18q-141 0 -207.5 56t-66.5 175q0 49 9 94t30 95l57 -21q-7 -25 -10 -40t-3 -32q0 -94 65 -129t174 -35q64 0 118 8.5t85 23t31 31.5q0 15 -15.5 23
t-59 12.5t-135.5 8.5q4 76 14 107.5t39 42.5t96 11h273q92 0 131 33q-21 81 -70 151zM503 -280l99 103l98 -103l-79 -82l79 -82l-98 -102l-99 102l79 81z" />
    <glyph glyph-name="uniFBF7" unicode="&#xfbf7;" horiz-adv-x="1151" vert-adv-y="1703" arabic-form="final" 
d="M822 501l49 24q-31 14 -43 26t-12 30q0 31 18 62t45.5 51.5t54.5 20.5q21 0 38.5 -12.5t27.5 -34.5l-20 -30q-17 4 -25 4q-45 0 -78 -36q19 -15 37 -23.5t50 -16.5q46 18 75 21l-28 -68q-74 -24 -112.5 -42t-116.5 -66zM1162 203v-179h-32q-59 0 -94.5 17.5t-64.5 60.5
q-29 -42 -71.5 -60t-112.5 -18l-126 -1q12 -13 17 -25t5 -29q0 -73 -63 -117t-149.5 -62t-163.5 -18q-141 0 -207.5 56t-66.5 175q0 49 9 94t30 95l57 -21q-7 -25 -10 -40t-3 -32q0 -94 65 -129t174 -35q64 0 118 8.5t85 23t31 31.5q0 15 -15.5 23t-59 12.5t-135.5 8.5
q4 76 14 107.5t39 42.5t96 11h243q88 0 126.5 24.5t38.5 79.5q0 24 -2 52h63q3 -57 6.5 -75.5t13.5 -34.5q30 -46 118 -46h27zM503 -280l99 103l98 -103l-79 -82l79 -82l-98 -102l-99 102l79 81z" />
    <glyph glyph-name="uniFBF8" unicode="&#xfbf8;" horiz-adv-x="723" vert-adv-y="1703" arabic-form="initial" 
d="M430 570l49 24q-31 14 -43 26t-12 30q0 31 18 62t45.5 51.5t54.5 20.5q21 0 38.5 -12.5t27.5 -34.5l-20 -30q-17 4 -25 4q-45 0 -78 -36q19 -15 37 -23.5t50 -16.5q46 18 75 21l-28 -68q-74 -24 -112.5 -42t-116.5 -66zM601 520q32 -56 48.5 -117.5t16.5 -120.5
q0 -107 -42 -170q-27 -43 -71.5 -65.5t-103.5 -22.5h-75q-59 0 -94.5 17.5t-64.5 60.5q-29 -42 -71.5 -60t-112.5 -18h-42v179h26q88 0 126.5 24.5t38.5 79.5q0 24 -2 52h63q3 -57 6.5 -75.5t13.5 -34.5q30 -46 118 -46h61q92 0 131 33q-21 81 -70 151zM17 -104l99 103
l98 -103l-79 -82l79 -82l-98 -102l-99 102l79 81z" />
    <glyph glyph-name="uniFBF9" unicode="&#xfbf9;" horiz-adv-x="1084" vert-adv-y="1703" arabic-form="isolated" 
d="M791 570l49 24q-31 14 -43 26t-12 30q0 31 18 62t45.5 51.5t54.5 20.5q21 0 38.5 -12.5t27.5 -34.5l-20 -30q-17 4 -25 4q-45 0 -78 -36q19 -15 37 -23.5t50 -16.5q46 18 75 21l-28 -68q-74 -24 -112.5 -42t-116.5 -66zM962 520q32 -56 48.5 -117.5t16.5 -120.5
q0 -107 -42 -170q-27 -43 -71.5 -65.5t-103.5 -22.5l-149 -1q12 -13 17 -25t5 -29q0 -73 -63 -117t-149.5 -62t-163.5 -18q-141 0 -207.5 56t-66.5 175q0 49 9 94t30 95l57 -21q-7 -25 -10 -40t-3 -32q0 -94 65 -129t174 -35q64 0 118 8.5t85 23t31 31.5q0 15 -15.5 23
t-59 12.5t-135.5 8.5q4 76 14 107.5t39 42.5t96 11h273q92 0 131 33q-21 81 -70 151z" />
    <glyph glyph-name="uniFBFA" unicode="&#xfbfa;" horiz-adv-x="1151" vert-adv-y="1703" arabic-form="final" 
d="M821 501l49 24q-30 14 -42 26t-12 30q0 31 18 62t45.5 51.5t54.5 20.5q21 0 38.5 -12.5t27.5 -34.5l-20 -30q-17 4 -25 4q-45 0 -78 -36q19 -15 37 -23.5t49 -16.5q46 18 76 21l-29 -68q-74 -24 -112.5 -42.5t-115.5 -65.5zM1161 203v-179h-31q-60 0 -95.5 17.5
t-64.5 60.5q-29 -42 -71 -60t-112 -18l-126 -1q12 -13 17 -25t5 -29q0 -73 -63 -117t-149.5 -62t-163.5 -18q-141 0 -207.5 56t-66.5 175q0 49 9 94t30 95l57 -21q-7 -25 -10 -40t-3 -32q0 -94 65 -129t174 -35q64 0 118 8.5t85 23t31 31.5q0 15 -15.5 23t-59 12.5
t-135.5 8.5q4 76 14 107.5t39 42.5t96 11h243q88 0 126 24t38 80q0 24 -2 52h63q3 -57 6.5 -76t14.5 -34q30 -46 118 -46h26z" />
    <glyph glyph-name="uniFBFB" unicode="&#xfbfb;" horiz-adv-x="723" vert-adv-y="1703" arabic-form="initial" 
d="M430 570l49 24q-31 14 -43 26t-12 30q0 31 18 62t45.5 51.5t54.5 20.5q21 0 38.5 -12.5t27.5 -34.5l-20 -30q-17 4 -25 4q-45 0 -78 -36q19 -15 37 -23.5t50 -16.5q46 18 75 21l-28 -68q-74 -24 -112.5 -42t-116.5 -66zM601 520q32 -56 48.5 -117.5t16.5 -120.5
q0 -107 -42 -170q-27 -43 -71.5 -65.5t-103.5 -22.5h-75q-59 0 -94.5 17.5t-64.5 60.5q-29 -42 -71.5 -60t-112.5 -18h-42v179h26q88 0 126.5 24.5t38.5 79.5q0 24 -2 52h63q3 -57 6.5 -75.5t13.5 -34.5q30 -46 118 -46h61q92 0 131 33q-21 81 -70 151z" />
    <glyph glyph-name="uniFBFC" unicode="&#x6cc;" horiz-adv-x="761" vert-adv-y="1703" arabic-form="isolated" 
d="M182.5 -232q-57.5 21 -93.5 61q-56 60 -56 183q0 50 8 89t28 91l60 -17q-13 -35 -13 -69q0 -92 60 -140t176 -48q58 0 115.5 12t92.5 32q23 12 35.5 25t22.5 32q-8 4 -17 5q-6 2 -39 8q-82 10 -125 20q-40 9 -53 22t-13 38q0 49 23 111t59 109q39 50 88.5 81.5t90.5 31.5
q24 0 41 -13t34 -45.5t40 -94.5l-28 -28q-54 17 -96 17q-55 0 -92 -23.5t-60 -70.5q12 -5 25 -7.5t35 -5.5q53 -7 77.5 -12t42.5 -13q30 -14 43.5 -36t13.5 -58q0 -51 -21.5 -104t-58.5 -90q-49 -52 -135 -83t-178 -31q-75 0 -132.5 21z" />
    <glyph glyph-name="uniFBFD" unicode="&#x6cc;" horiz-adv-x="756" vert-adv-y="1703" arabic-form="final" 
d="M99.5 -172q-66.5 56 -66.5 175q0 49 9 94t30 95l57 -21q-7 -25 -10 -40t-3 -32q0 -94 65 -129t174 -35q64 0 118 8.5t85 23t31 31.5q0 15 -15.5 23t-59 12.5t-135.5 8.5q4 76 14 107.5t39 42.5t96 11h239v-179l-106 -1q12 -13 17 -25t5 -29q0 -73 -63 -117t-149.5 -62
t-163.5 -18q-141 0 -207.5 56z" />
    <glyph glyph-name="uniFBFE" unicode="&#x6cc;" horiz-adv-x="328" vert-adv-y="1703" arabic-form="initial" 
d="M-11 24v179h56q92 0 131 33q-21 81 -70 151l100 133q32 -56 48.5 -117.5t16.5 -120.5q0 -107 -42 -170q-27 -43 -71.5 -65.5t-103.5 -22.5h-65zM204 -65l100 -103l-100 -102l-91 94l-90 -94l-99 102l99 103l91 -95z" />
    <glyph glyph-name="uniFBFF" unicode="&#x6cc;" horiz-adv-x="395" vert-adv-y="1703" arabic-form="medial" 
d="M-11 24v179h26q88 0 126.5 24.5t38.5 79.5q0 24 -2 52h63q3 -57 6.5 -75.5t13.5 -34.5q30 -46 118 -46h27v-179h-32q-59 0 -94.5 17.5t-64.5 60.5q-29 -42 -71.5 -60t-112.5 -18h-42zM207 -65l100 -103l-100 -102l-91 94l-90 -94l-99 102l99 103l91 -95z" />
    <glyph glyph-name="uniFC02" unicode="&#xfc02;" horiz-adv-x="963" vert-adv-y="1703" arabic-form="isolated" 
d="M670 570l49 24q-31 14 -43 26t-12 30q0 31 18 62t45.5 51.5t54.5 20.5q21 0 38.5 -12.5t27.5 -34.5l-20 -30q-17 4 -25 4q-45 0 -78 -36q19 -15 37 -23.5t50 -16.5q46 18 75 21l-28 -68q-74 -24 -112.5 -42t-116.5 -66zM841 520q32 -56 48.5 -117.5t16.5 -120.5
q0 -107 -42 -170q-27 -43 -71.5 -65.5t-103.5 -22.5h-73q-44 0 -75 20.5t-55 64.5l-23 -41q-20 -35 -35.5 -50t-31.5 -15q-8 0 -18 2t-28 8q-70 21 -105 29.5t-56 8.5t-30 -9t-9 -31q0 -1 5 -54l15 -164q3 -26 3 -38q0 -31 -26.5 -53t-69.5 -44l-25 260q-9 87 -9 139
q0 56 10.5 91t39 55t80.5 22q1 37 3.5 59t9.5 42q14 38 55 71q24 19 43.5 27t40.5 8q24 0 48 -12.5t60 -42.5q35 -28 61 -60.5t36 -60.5q13 -20 21 -27q29 -26 77 -26h52q92 0 131 33q-21 81 -70 151zM420.5 160q2.5 2 6.5 6q-5 19 -34 53.5t-61.5 61.5t-49.5 27
q-16 0 -26 -16t-10 -42q0 -16 2 -32q25 -6 45.5 -13.5t87.5 -36.5q25 -10 33 -10q4 0 6.5 2z" />
    <glyph glyph-name="uniFC03" unicode="&#xfc03;" horiz-adv-x="1084" vert-adv-y="1703" arabic-form="isolated" 
d="M791 570l49 24q-31 14 -43 26t-12 30q0 31 18 62t45.5 51.5t54.5 20.5q21 0 38.5 -12.5t27.5 -34.5l-20 -30q-17 4 -25 4q-45 0 -78 -36q19 -15 37 -23.5t50 -16.5q46 18 75 21l-28 -68q-74 -24 -112.5 -42t-116.5 -66zM962 520q32 -56 48.5 -117.5t16.5 -120.5
q0 -107 -42 -170q-27 -43 -71.5 -65.5t-103.5 -22.5l-149 -1q12 -13 17 -25t5 -29q0 -73 -63 -117t-149.5 -62t-163.5 -18q-141 0 -207.5 56t-66.5 175q0 49 9 94t30 95l57 -21q-7 -25 -10 -40t-3 -32q0 -94 65 -129t174 -35q64 0 118 8.5t85 23t31 31.5q0 15 -15.5 23
t-59 12.5t-135.5 8.5q4 76 14 107.5t39 42.5t96 11h273q92 0 131 33q-21 81 -70 151z" />
    <glyph glyph-name="uniFC04" unicode="&#xfc04;" horiz-adv-x="1084" vert-adv-y="1703" arabic-form="isolated" 
d="M791 570l49 24q-31 14 -43 26t-12 30q0 31 18 62t45.5 51.5t54.5 20.5q21 0 38.5 -12.5t27.5 -34.5l-20 -30q-17 4 -25 4q-45 0 -78 -36q19 -15 37 -23.5t50 -16.5q46 18 75 21l-28 -68q-74 -24 -112.5 -42t-116.5 -66zM962 520q32 -56 48.5 -117.5t16.5 -120.5
q0 -107 -42 -170q-27 -43 -71.5 -65.5t-103.5 -22.5l-149 -1q12 -13 17 -25t5 -29q0 -73 -63 -117t-149.5 -62t-163.5 -18q-141 0 -207.5 56t-66.5 175q0 49 9 94t30 95l57 -21q-7 -25 -10 -40t-3 -32q0 -94 65 -129t174 -35q64 0 118 8.5t85 23t31 31.5q0 15 -15.5 23
t-59 12.5t-135.5 8.5q4 76 14 107.5t39 42.5t96 11h273q92 0 131 33q-21 81 -70 151zM230 -240l91 -95l90 95l100 -103l-100 -102l-91 94l-90 -94l-99 102z" />
    <glyph glyph-name="uniFC08" unicode="&#xfc08;" horiz-adv-x="963" vert-adv-y="1703" arabic-form="isolated" 
d="M841 520q32 -56 48.5 -117.5t16.5 -120.5q0 -107 -42 -170q-27 -43 -71.5 -65.5t-103.5 -22.5h-73q-44 0 -75 20.5t-55 64.5l-23 -41q-20 -35 -35.5 -50t-31.5 -15q-8 0 -18 2t-28 8q-70 21 -105 29.5t-56 8.5t-30 -9t-9 -31q0 -1 5 -54l15 -164q3 -26 3 -38
q0 -31 -26.5 -53t-69.5 -44l-25 260q-9 87 -9 139q0 56 10.5 91t39 55t80.5 22q1 37 3.5 59t9.5 42q14 38 55 71q24 19 43.5 27t40.5 8q24 0 48 -12.5t60 -42.5q35 -28 61 -60.5t36 -60.5q13 -20 21 -27q29 -26 77 -26h52q92 0 131 33q-21 81 -70 151zM420.5 160
q2.5 2 6.5 6q-5 19 -34 53.5t-61.5 61.5t-49.5 27q-16 0 -26 -16t-10 -42q0 -16 2 -32q25 -6 45.5 -13.5t87.5 -36.5q25 -10 33 -10q4 0 6.5 2zM749 -279l-108 111l108 112l107 -112z" />
    <glyph glyph-name="uniFC09" unicode="&#xfc09;" horiz-adv-x="1084" vert-adv-y="1703" arabic-form="isolated" 
d="M962 520q32 -56 48.5 -117.5t16.5 -120.5q0 -107 -42 -170q-27 -43 -71.5 -65.5t-103.5 -22.5l-149 -1q12 -13 17 -25t5 -29q0 -73 -63 -117t-149.5 -62t-163.5 -18q-141 0 -207.5 56t-66.5 175q0 49 9 94t30 95l57 -21q-7 -25 -10 -40t-3 -32q0 -94 65 -129t174 -35
q64 0 118 8.5t85 23t31 31.5q0 15 -15.5 23t-59 12.5t-135.5 8.5q4 76 14 107.5t39 42.5t96 11h273q92 0 131 33q-21 81 -70 151zM870 -279l-108 111l108 112l107 -112z" />
    <glyph glyph-name="uniFC0A" unicode="&#xfc0a;" horiz-adv-x="1084" vert-adv-y="1703" arabic-form="isolated" 
d="M962 520q32 -56 48.5 -117.5t16.5 -120.5q0 -107 -42 -170q-27 -43 -71.5 -65.5t-103.5 -22.5l-149 -1q12 -13 17 -25t5 -29q0 -73 -63 -117t-149.5 -62t-163.5 -18q-141 0 -207.5 56t-66.5 175q0 49 9 94t30 95l57 -21q-7 -25 -10 -40t-3 -32q0 -94 65 -129t174 -35
q64 0 118 8.5t85 23t31 31.5q0 15 -15.5 23t-59 12.5t-135.5 8.5q4 76 14 107.5t39 42.5t96 11h273q92 0 131 33q-21 81 -70 151zM870 -279l-108 111l108 112l107 -112zM230 -240l91 -95l90 95l100 -103l-100 -102l-91 94l-90 -94l-99 102z" />
    <glyph glyph-name="uniFC0E" unicode="&#xfc0e;" horiz-adv-x="963" vert-adv-y="1703" arabic-form="isolated" 
d="M864 539l-91 94l-90 -94l-99 102l99 103l91 -95l90 95l100 -103zM841 520q32 -56 48.5 -117.5t16.5 -120.5q0 -107 -42 -170q-27 -43 -71.5 -65.5t-103.5 -22.5h-73q-44 0 -75 20.5t-55 64.5l-23 -41q-20 -35 -35.5 -50t-31.5 -15q-8 0 -18 2t-28 8q-70 21 -105 29.5
t-56 8.5t-30 -9t-9 -31q0 -1 5 -54l15 -164q3 -26 3 -38q0 -31 -26.5 -53t-69.5 -44l-25 260q-9 87 -9 139q0 56 10.5 91t39 55t80.5 22q1 37 3.5 59t9.5 42q14 38 55 71q24 19 43.5 27t40.5 8q24 0 48 -12.5t60 -42.5q35 -28 61 -60.5t36 -60.5q13 -20 21 -27
q29 -26 77 -26h52q92 0 131 33q-21 81 -70 151zM420.5 160q2.5 2 6.5 6q-5 19 -34 53.5t-61.5 61.5t-49.5 27q-16 0 -26 -16t-10 -42q0 -16 2 -32q25 -6 45.5 -13.5t87.5 -36.5q25 -10 33 -10q4 0 6.5 2z" />
    <glyph glyph-name="uniFC0F" unicode="&#xfc0f;" horiz-adv-x="1084" vert-adv-y="1703" arabic-form="isolated" 
d="M985 539l-91 94l-90 -94l-99 102l99 103l91 -95l90 95l100 -103zM962 520q32 -56 48.5 -117.5t16.5 -120.5q0 -107 -42 -170q-27 -43 -71.5 -65.5t-103.5 -22.5l-149 -1q12 -13 17 -25t5 -29q0 -73 -63 -117t-149.5 -62t-163.5 -18q-141 0 -207.5 56t-66.5 175q0 49 9 94
t30 95l57 -21q-7 -25 -10 -40t-3 -32q0 -94 65 -129t174 -35q64 0 118 8.5t85 23t31 31.5q0 15 -15.5 23t-59 12.5t-135.5 8.5q4 76 14 107.5t39 42.5t96 11h273q92 0 131 33q-21 81 -70 151z" />
    <glyph glyph-name="uniFC10" unicode="&#xfc10;" horiz-adv-x="1084" vert-adv-y="1703" arabic-form="isolated" 
d="M985 539l-91 94l-90 -94l-99 102l99 103l91 -95l90 95l100 -103zM962 520q32 -56 48.5 -117.5t16.5 -120.5q0 -107 -42 -170q-27 -43 -71.5 -65.5t-103.5 -22.5l-149 -1q12 -13 17 -25t5 -29q0 -73 -63 -117t-149.5 -62t-163.5 -18q-141 0 -207.5 56t-66.5 175q0 49 9 94
t30 95l57 -21q-7 -25 -10 -40t-3 -32q0 -94 65 -129t174 -35q64 0 118 8.5t85 23t31 31.5q0 15 -15.5 23t-59 12.5t-135.5 8.5q4 76 14 107.5t39 42.5t96 11h273q92 0 131 33q-21 81 -70 151zM230 -240l91 -95l90 95l100 -103l-100 -102l-91 94l-90 -94l-99 102z" />
    <glyph glyph-name="uniFC12" unicode="&#xfc12;" horiz-adv-x="963" vert-adv-y="1703" arabic-form="isolated" 
d="M774 889l92 -94l-92 -95l-91 95zM865 515l-91 95l-91 -95l-98 101l98 102l92 -95l90 95l98 -102zM841 520q32 -56 48.5 -117.5t16.5 -120.5q0 -107 -42 -170q-27 -43 -71.5 -65.5t-103.5 -22.5h-73q-44 0 -75 20.5t-55 64.5l-23 -41q-20 -35 -35.5 -50t-31.5 -15
q-8 0 -18 2t-28 8q-70 21 -105 29.5t-56 8.5t-30 -9t-9 -31q0 -1 5 -54l15 -164q3 -26 3 -38q0 -31 -26.5 -53t-69.5 -44l-25 260q-9 87 -9 139q0 56 10.5 91t39 55t80.5 22q1 37 3.5 59t9.5 42q14 38 55 71q24 19 43.5 27t40.5 8q24 0 48 -12.5t60 -42.5q35 -28 61 -60.5
t36 -60.5q13 -20 21 -27q29 -26 77 -26h52q92 0 131 33q-21 81 -70 151zM420.5 160q2.5 2 6.5 6q-5 19 -34 53.5t-61.5 61.5t-49.5 27q-16 0 -26 -16t-10 -42q0 -16 2 -32q25 -6 45.5 -13.5t87.5 -36.5q25 -10 33 -10q4 0 6.5 2z" />
    <glyph glyph-name="uniFC13" unicode="&#xfc13;" horiz-adv-x="1084" vert-adv-y="1703" arabic-form="isolated" 
d="M895 889l92 -94l-92 -95l-91 95zM986 515l-91 95l-91 -95l-98 101l98 102l92 -95l90 95l98 -102zM962 520q32 -56 48.5 -117.5t16.5 -120.5q0 -107 -42 -170q-27 -43 -71.5 -65.5t-103.5 -22.5l-149 -1q12 -13 17 -25t5 -29q0 -73 -63 -117t-149.5 -62t-163.5 -18
q-141 0 -207.5 56t-66.5 175q0 49 9 94t30 95l57 -21q-7 -25 -10 -40t-3 -32q0 -94 65 -129t174 -35q64 0 118 8.5t85 23t31 31.5q0 15 -15.5 23t-59 12.5t-135.5 8.5q4 76 14 107.5t39 42.5t96 11h273q92 0 131 33q-21 81 -70 151z" />
    </font>
</defs>
</svg>
