<?xml version="1.0" standalone="no"?>
<!DOCTYPE svg PUBLIC "-//W3C//DTD SVG 1.1//EN" "http://www.w3.org/Graphics/SVG/1.1/DTD/svg11.dtd" >
<svg xmlns="http://www.w3.org/2000/svg" xmlns:xlink="http://www.w3.org/1999/xlink" version="1.1">
<metadata>
Created by FontForge 20170731 at Fri May 28 14:00:00 2021
 By Aleksey,,,
Copyright 2021 Huawei Device Co., Ltd. All Rights Reserved.
</metadata>
<defs>
<font id="HarmonyOS_Sans_Italic" horiz-adv-x="570" >
  <font-face 
    font-family="HarmonyOS Sans"
    font-weight="400"
    font-style="italic"
    font-stretch="normal"
    units-per-em="1000"
    panose-1="0 0 5 0 0 0 0 0 0 0"
    ascent="800"
    descent="-200"
    x-height="485"
    cap-height="698"
    bbox="-564 -287 1406 973"
    underline-thickness="50"
    underline-position="-150"
    slope="-10"
    unicode-range="U+0020-301E"
  />
<missing-glyph horiz-adv-x="500" 
d="M93 850h317v-1000h-317v1000zM333 750v33h-165v-33h65v-37h-66v-33h166v33h-66v37h66zM267 584v70h-100v-104h166v34h-66zM200 620h33v-36h-33v36zM333 490v33h-166v-33h66v-37h-66v-33h100v70h66zM333 363v100h-33v-66h-133v-34h166zM333 228v113h-100v-56h34v23h33v-47
h-100v80h-33v-113h166zM333 55v113h-166v-113h166zM200 135h100v-47h-100v47zM333 -1v33h-166v-33h70l-70 -47v-33h166v33h-102l70 47h32z" />
    <glyph glyph-name="f_b.liga" unicode="fb" horiz-adv-x="924" 
d="M228 486h132l-13 -73h-132l-84 -480q-21 -120 -59 -168.5t-105 -48.5q-31 0 -56.5 8.5t-40.5 23.5l41 68q24 -20 51 -20q24 0 39 14t26.5 47.5t22.5 97.5l80 458h-89l13 73h88l10 55q35 197 185 197q51 0 80 -21l-13 -76q-29 17 -64 17q-41 0 -66.5 -27.5t-37.5 -97.5z
M771 468q48 -29 75.5 -82t27.5 -123q0 -31 -6 -64q-13 -77 -52 -132.5t-92.5 -83.5t-110.5 -28q-58 0 -100.5 29t-63.5 79q-13 -36 -24 -97h-74l132 761h84l-52 -301q59 71 150 71q58 0 106 -29zM786 262q0 72 -35.5 113.5t-97.5 41.5q-58 0 -106 -40t-64 -135
q-5 -32 -5 -53q0 -76 40 -114.5t99 -38.5q62 0 106 43t58 126q5 25 5 57z" />
    <glyph glyph-name="f_f.liga" unicode="ff" horiz-adv-x="655" 
d="M592.5 632q-23.5 -26 -36.5 -99l-8 -47h133l-13 -73h-133l-84 -480q-21 -120 -59 -168.5t-105 -48.5q-31 0 -56.5 8.5t-40.5 23.5l41 68q24 -20 51 -20q24 0 39 14t26.5 47.5t22.5 97.5l80 458h-235l-84 -480q-21 -120 -59 -168.5t-105 -48.5q-31 0 -56.5 8.5t-40.5 23.5
l41 68q24 -20 51 -20q24 0 39 14t26.5 47.5t22.5 97.5l80 458h-88l12 73h88l10 55q19 108 68 152.5t119 44.5q67 0 106 -37l-42 -64q-28 21 -68 21q-39 0 -62.5 -26t-36.5 -99l-8 -47h234l10 55q19 108 68 152.5t119 44.5q67 0 106 -37l-42 -64q-28 21 -68 21
q-39 0 -62.5 -26z" />
    <glyph glyph-name="f_f_b.liga" unicode="ffb" horiz-adv-x="1245" 
d="M548 486h132l-13 -73h-132l-84 -480q-21 -120 -59 -168.5t-105 -48.5q-31 0 -56.5 8.5t-40.5 23.5l41 68q24 -20 51 -20q24 0 39 14t26.5 47.5t22.5 97.5l80 458h-235l-84 -480q-21 -120 -59 -168.5t-105 -48.5q-31 0 -56.5 8.5t-40.5 23.5l41 68q24 -20 51 -20
q24 0 39 14t26.5 47.5t22.5 97.5l80 458h-88l12 73h88l10 55q20 108 68.5 152.5t118.5 44.5q67 0 106 -37l-42 -64q-28 21 -68 21q-39 0 -62.5 -26t-36.5 -99l-8 -47h234l10 55q36 197 185 197q51 0 80 -21l-13 -76q-29 17 -64 17q-41 0 -66.5 -27.5t-37.5 -97.5zM1092 468
q48 -29 75.5 -82t27.5 -123q0 -31 -6 -64q-13 -77 -52 -132.5t-92.5 -83.5t-110.5 -28q-58 0 -100.5 29t-63.5 79q-13 -36 -24 -97h-74l132 761h84l-52 -301q59 71 150 71q58 0 106 -29zM1107 262q0 72 -35.5 113.5t-97.5 41.5q-58 0 -106 -40t-64 -135q-5 -32 -5 -53
q0 -76 40 -114.5t99 -38.5q62 0 106 43t58 126q5 25 5 57z" />
    <glyph glyph-name="f_f_h.liga" unicode="ffh" horiz-adv-x="1218" 
d="M548 486h132l-13 -73h-132l-84 -480q-21 -120 -59 -168.5t-105 -48.5q-31 0 -56.5 8.5t-40.5 23.5l41 68q24 -20 51 -20q24 0 39 14t26.5 47.5t22.5 97.5l80 458h-235l-84 -480q-21 -120 -59 -168.5t-105 -48.5q-31 0 -56.5 8.5t-40.5 23.5l41 68q24 -20 51 -20
q24 0 39 14t26.5 47.5t22.5 97.5l80 458h-88l12 73h88l10 55q20 108 68.5 152.5t118.5 44.5q67 0 106 -37l-42 -64q-28 21 -68 21q-39 0 -62.5 -26t-36.5 -99l-8 -47h234l10 55q36 197 185 197q51 0 80 -21l-13 -76q-29 17 -64 17q-41 0 -66.5 -27.5t-37.5 -97.5z
M1111.5 451q45.5 -46 45.5 -129q0 -32 -5 -57l-53 -299h-84l51 290q5 28 5 49q0 53 -26 82t-76 29q-54 0 -99 -34.5t-61 -100.5l-55 -315h-84l133 761h85l-54 -305q30 38 70 56.5t87 18.5q75 0 120.5 -46z" />
    <glyph glyph-name="f_f_i.liga" unicode="ffi" horiz-adv-x="885" 
d="M548 486h132l-13 -73h-132l-84 -480q-21 -120 -59 -168.5t-105 -48.5q-31 0 -56.5 8.5t-40.5 23.5l41 68q24 -20 51 -20q24 0 39 14t26.5 47.5t22.5 97.5l80 458h-235l-84 -480q-21 -120 -59 -168.5t-105 -48.5q-31 0 -56.5 8.5t-40.5 23.5l41 68q24 -20 51 -20
q24 0 39 14t26.5 47.5t22.5 97.5l80 458h-88l12 73h88l10 55q20 108 68.5 152.5t118.5 44.5q67 0 106 -37l-42 -64q-28 21 -68 21q-39 0 -62.5 -26t-36.5 -99l-8 -47h234l10 55q36 197 185 197q51 0 80 -21l-13 -76q-29 17 -64 17q-41 0 -66.5 -27.5t-37.5 -97.5zM873.5 677
q16.5 -17 16.5 -41t-16.5 -41t-40.5 -17q-22 0 -38.5 17.5t-16.5 40.5q0 24 16 41t39 17q24 0 40.5 -17zM757 -34h-85l92 519h85z" />
    <glyph glyph-name="f_f_k.liga" unicode="ffk" horiz-adv-x="1167" 
d="M548 486h132l-13 -73h-132l-84 -480q-21 -120 -59 -168.5t-105 -48.5q-31 0 -56.5 8.5t-40.5 23.5l41 68q24 -20 51 -20q24 0 39 14t26.5 47.5t22.5 97.5l80 458h-235l-84 -480q-21 -120 -59 -168.5t-105 -48.5q-31 0 -56.5 8.5t-40.5 23.5l41 68q24 -20 51 -20
q24 0 39 14t26.5 47.5t22.5 97.5l80 458h-88l12 73h88l10 55q20 108 68.5 152.5t118.5 44.5q67 0 106 -37l-42 -64q-28 21 -68 21q-39 0 -62.5 -26t-36.5 -99l-8 -47h234l10 55q36 197 185 197q51 0 80 -21l-13 -76q-29 17 -64 17q-41 0 -66.5 -27.5t-37.5 -97.5zM1076 485
h112l-238 -210l166 -309h-105l-129 249l-100 -88l-29 -161h-85l135 761h85l-86 -487z" />
    <glyph glyph-name="f_f_l.liga" unicode="ffl" horiz-adv-x="881" 
d="M548 486h132l-13 -73h-132l-84 -480q-21 -120 -59 -168.5t-105 -48.5q-31 0 -56.5 8.5t-40.5 23.5l41 68q24 -20 51 -20q24 0 39 14t26.5 47.5t22.5 97.5l80 458h-235l-84 -480q-21 -120 -59 -168.5t-105 -48.5q-31 0 -56.5 8.5t-40.5 23.5l41 68q24 -20 51 -20
q24 0 39 14t26.5 47.5t22.5 97.5l80 458h-88l12 73h88l10 55q20 108 68.5 152.5t118.5 44.5q67 0 106 -37l-42 -64q-28 21 -68 21q-39 0 -62.5 -26t-36.5 -99l-8 -47h234l10 55q36 197 185 197q51 0 80 -21l-13 -76q-29 17 -64 17q-41 0 -66.5 -27.5t-37.5 -97.5zM670 -34
l133 761h85l-134 -761h-84z" />
    <glyph glyph-name="f_h.liga" unicode="fh" horiz-adv-x="898" 
d="M228 486h132l-13 -73h-132l-84 -480q-21 -120 -59 -168.5t-105 -48.5q-31 0 -56.5 8.5t-40.5 23.5l41 68q24 -20 51 -20q24 0 39 14t26.5 47.5t22.5 97.5l80 458h-89l13 73h88l10 55q35 197 185 197q51 0 80 -21l-13 -76q-29 17 -64 17q-41 0 -66.5 -27.5t-37.5 -97.5z
M791.5 451q45.5 -46 45.5 -129q0 -32 -5 -57l-53 -299h-84l51 290q5 28 5 49q0 53 -26 82t-76 29q-54 0 -99 -34.5t-61 -100.5l-55 -315h-84l133 761h85l-54 -305q30 38 70 56.5t87 18.5q75 0 120.5 -46z" />
    <glyph glyph-name="f_i.liga" unicode="fi" horiz-adv-x="565" 
d="M228 486h132l-13 -73h-132l-84 -480q-21 -120 -59 -168.5t-105 -48.5q-31 0 -56.5 8.5t-40.5 23.5l41 68q24 -20 51 -20q24 0 39 14t26.5 47.5t22.5 97.5l80 458h-88l12 73h88l10 55q35 197 185 197q51 0 80 -21l-13 -76q-29 17 -64 17q-41 0 -66.5 -27.5t-37.5 -97.5z
M553.5 677q16.5 -17 16.5 -41t-16.5 -41t-40.5 -17q-22 0 -38.5 17.5t-16.5 40.5q0 24 16 41t39 17q24 0 40.5 -17zM437 -34h-85l92 519h85z" />
    <glyph glyph-name="f_k.liga" unicode="fk" horiz-adv-x="847" 
d="M228 486h132l-13 -73h-132l-84 -480q-21 -120 -59 -168.5t-105 -48.5q-31 0 -56.5 8.5t-40.5 23.5l41 68q24 -20 51 -20q24 0 39 14t26.5 47.5t22.5 97.5l80 458h-89l13 73h88l10 55q35 197 185 197q51 0 80 -21l-13 -76q-29 17 -64 17q-41 0 -66.5 -27.5t-37.5 -97.5z
M756 485h112l-238 -210l166 -309h-105l-129 249l-100 -88l-29 -161h-85l135 761h85l-86 -487z" />
    <glyph glyph-name="f_l.liga" unicode="fl" horiz-adv-x="561" 
d="M228 486h132l-13 -73h-132l-84 -480q-21 -120 -59 -168.5t-105 -48.5q-31 0 -56.5 8.5t-40.5 23.5l41 68q24 -20 51 -20q24 0 39 14t26.5 47.5t22.5 97.5l80 458h-89l13 73h88l10 55q35 197 185 197q51 0 80 -21l-13 -76q-29 17 -64 17q-41 0 -66.5 -27.5t-37.5 -97.5z
M350 -34l133 761h85l-134 -761h-84z" />
    <glyph glyph-name="r_f.liga" unicode="rf" horiz-adv-x="686" 
d="M623.5 632q-23.5 -26 -36.5 -99l-8 -47h133l-13 -73h-133l-84 -480q-21 -120 -59 -168.5t-105 -48.5q-31 0 -56.5 8.5t-40.5 23.5l41 68q24 -20 51 -20q24 0 39 14t26.5 48t22.5 97l80 458h-88l12 73h88l10 55q19 108 68 152.5t119 44.5q67 0 106 -37l-42 -64
q-28 21 -68 21q-39 0 -62.5 -26zM362 403q-23 14 -55 14q-52 0 -93 -38t-58 -117l-52 -296h-84l91 520h74q-2 -13 -7 -53l-3 -24q53 88 139 88q38 0 61 -15z" />
    <glyph glyph-name="r_t.liga" unicode="rt" horiz-adv-x="724" 
d="M730 486l-13 -74h-148l-48 -271q-4 -28 -4 -37q0 -69 64 -69q36 0 69 22l25 -71q-46 -31 -106 -31q-59 0 -98.5 30t-39.5 101q0 19 5 51l48 275h-85l13 74h85l25 145h86l-26 -145h148zM314 497q38 0 61 -15l-13 -79q-23 14 -55 14q-52 0 -93 -38t-58 -117l-52 -296h-84
l91 520h74q-2 -13 -7 -53l-3 -24q53 88 139 88z" />
    <glyph glyph-name="r_v.liga" unicode="rv" horiz-adv-x="869" 
d="M379 482l-13 -79q-23 14 -55 14q-54 0 -96 -38t-59 -117l-52 -296h-84l91 520h74q-8 -50 -10 -78q54 89 143 89q38 0 61 -15zM501 485l91 -406l216 406h93l-294 -519h-69l-127 519h90z" />
    <glyph glyph-name="r_x.liga" unicode="rx" horiz-adv-x="848" 
d="M379 482l-13 -79q-23 14 -55 14q-54 0 -96 -38t-59 -117l-52 -296h-84l91 520h74q-8 -50 -10 -78q54 89 143 89q38 0 61 -15zM609 294l169 191h101l-233 -264l140 -255h-97l-101 192l-170 -192h-103l235 264l-141 255h98z" />
    <glyph glyph-name="r_y.liga" unicode="ry" horiz-adv-x="879" 
d="M366 403q-23 14 -55 14q-54 0 -96 -38t-59 -117l-52 -296h-84l91 520h74q-8 -50 -10 -78q54 89 143 89q38 0 61 -15zM818 485h93l-349 -616q-43 -78 -92 -115.5t-109 -37.5q-58 0 -101 35l40 68q27 -23 63 -23q31 0 61.5 23t66.5 81l41 68l-120 517h92l88 -415z" />
    <glyph glyph-name=".notdef" horiz-adv-x="500" 
d="M93 850h317v-1000h-317v1000zM333 750v33h-165v-33h65v-37h-66v-33h166v33h-66v37h66zM267 584v70h-100v-104h166v34h-66zM200 620h33v-36h-33v36zM333 490v33h-166v-33h66v-37h-66v-33h100v70h66zM333 363v100h-33v-66h-133v-34h166zM333 228v113h-100v-56h34v23h33v-47
h-100v80h-33v-113h166zM333 55v113h-166v-113h166zM200 135h100v-47h-100v47zM333 -1v33h-166v-33h70l-70 -47v-33h166v33h-102l70 47h32z" />
    <glyph glyph-name=".null" horiz-adv-x="0" 
 />
    <glyph glyph-name="nonmarkingreturn" horiz-adv-x="333" 
 />
    <glyph glyph-name="space" unicode=" " horiz-adv-x="270" 
 />
    <glyph glyph-name="exclam" unicode="!" horiz-adv-x="235" 
d="M68 172l84 553h89l-110 -553h-63zM31.5 -27.5q-16.5 17.5 -16.5 40.5q0 24 16.5 41t39.5 17q24 0 40.5 -17t16.5 -41t-16.5 -41t-40.5 -17q-23 0 -39.5 17.5z" />
    <glyph glyph-name="quotedbl" unicode="&#x22;" horiz-adv-x="343" 
d="M105 524l39 245h75l-47 -245h-67zM261 524l39 245h75l-47 -245h-67z" />
    <glyph glyph-name="numbersign" unicode="#" horiz-adv-x="645" 
d="M569 512h105l-14 -78h-123l-85 -207h105l-14 -78h-123l-77 -186h-81l77 186h-159l-77 -186h-81l77 186h-106l14 78h124l85 207h-106l14 78h124l77 187h81l-77 -187h159l77 187h81zM297 434l-85 -207h159l85 207h-159z" />
    <glyph glyph-name="dollar" unicode="$" 
d="M349 356q78 -36 121 -76.5t43 -108.5q0 -10 -4 -38q-14 -82 -75 -128.5t-156 -49.5l-23 -131h-81l25 137q-85 16 -137 70t-57 131l75 36q8 -63 42 -102.5t91 -52.5l46 261q-52 24 -86 46t-56.5 56t-22.5 82q0 11 4 39q16 88 80.5 134t152.5 49l21 123h81l-22 -130
q73 -17 114 -65.5t42 -104.5l-74 -36q-4 43 -28.5 76t-68.5 47zM183 500q0 -35 23.5 -60.5t67.5 -48.5l42 237q-52 -5 -87 -32.5t-44 -75.5q-2 -14 -2 -20zM425 159q0 36 -23 61t-68 49l-41 -231q114 8 130 101q2 14 2 20z" />
    <glyph glyph-name="percent" unicode="%" horiz-adv-x="809" 
d="M385.5 443.5q-22.5 -39.5 -61.5 -61t-87 -21.5t-87 21.5t-61.5 61t-22.5 91.5q0 53 22.5 92.5t61.5 61t87 21.5t87 -21.5t61.5 -61t22.5 -92.5q0 -52 -22.5 -91.5zM652 699h94l-567 -733h-94zM298.5 606q-24.5 27 -61.5 27t-61.5 -27t-24.5 -71q0 -43 24.5 -70t61.5 -27
t61.5 27t24.5 70q0 44 -24.5 71zM741.5 37.5q-22.5 -39.5 -61.5 -61t-87 -21.5t-87 21.5t-61.5 61t-22.5 91.5q0 53 22.5 92.5t61.5 61t87 21.5t87 -21.5t61.5 -61t22.5 -92.5q0 -52 -22.5 -91.5zM654.5 200q-24.5 27 -61.5 27t-61.5 -27t-24.5 -71q0 -43 24.5 -70t61.5 -27
t61.5 27t24.5 70q0 44 -24.5 71z" />
    <glyph glyph-name="ampersand" unicode="&#x26;" horiz-adv-x="706" 
d="M664 386q-43 -150 -118 -257l118 -163h-108l-68 94q-105 -105 -242 -105q-63 0 -112 23t-77 66.5t-28 100.5q0 23 4 43q15 84 68.5 132.5t139.5 84.5q-27 43 -39.5 76.5t-12.5 66.5q0 16 3 32q14 77 74 117.5t136 40.5q79 0 123.5 -42.5t44.5 -106.5q0 -14 -3 -31
q-8 -46 -37 -78.5t-67.5 -53.5t-99.5 -46l134 -184q51 81 79 191zM281 550q0 -45 41 -112q70 29 107.5 57t45.5 74q2 12 2 19q0 30 -19.5 50t-59.5 20q-43 0 -75 -23t-40 -66q-2 -12 -2 -19zM442 124l-160 222q-66 -30 -106.5 -68.5t-50.5 -98.5q-3 -16 -3 -30
q0 -53 35.5 -83.5t95.5 -30.5q105 0 189 89z" />
    <glyph glyph-name="quotesingle" unicode="'" horiz-adv-x="187" 
d="M105 524l39 245h75l-47 -245h-67z" />
    <glyph glyph-name="parenleft" unicode="(" horiz-adv-x="344" 
d="M171.5 593.5q65.5 113.5 159.5 187.5h89q-100 -92 -163.5 -201.5t-88.5 -250.5q-12 -72 -12 -138q0 -186 94 -336h-75q-51 68 -78.5 156.5t-27.5 190.5q0 70 13 139q24 139 89.5 252.5z" />
    <glyph glyph-name="parenright" unicode=")" horiz-adv-x="344" 
d="M189.5 42.5q-65.5 -113.5 -159.5 -187.5h-89q100 92 163.5 201.5t88.5 250.5q12 72 12 138q0 186 -94 336h75q51 -68 78.5 -156.5t27.5 -190.5q0 -70 -13 -139q-24 -139 -89.5 -252.5z" />
    <glyph glyph-name="asterisk" unicode="*" horiz-adv-x="431" 
d="M295 560l127 78l27 -64l-135 -62l114 -61l-47 -64l-104 78l-14 -139h-74l33 138l-127 -77l-27 64l136 62l-115 61l47 64l104 -79l15 140h74z" />
    <glyph glyph-name="plus" unicode="+" 
d="M378 562l-35 -196h196l-13 -76h-196l-35 -196h-76l35 196h-196l13 76h196l35 196h76z" />
    <glyph glyph-name="comma" unicode="," horiz-adv-x="241" 
d="M124.5 51q15.5 -17 15.5 -50q0 -18 -2 -28q-13 -70 -53 -112.5t-102 -52.5l2 53q71 17 88 91q-23 0 -37 15t-14 37q0 26 18.5 45t43.5 19t40.5 -17z" />
    <glyph glyph-name="hyphen" unicode="-" horiz-adv-x="488" 
d="M59 232l13 72h364l-13 -72h-364z" />
    <glyph glyph-name="period" unicode="." horiz-adv-x="231" 
d="M29.5 -27.5q-16.5 17.5 -16.5 40.5q0 24 16.5 41t39.5 17q24 0 40.5 -17t16.5 -41t-16.5 -41t-40.5 -17q-23 0 -39.5 17.5z" />
    <glyph glyph-name="slash" unicode="/" horiz-adv-x="393" 
d="M-39 -34l404 732h88l-404 -732h-88z" />
    <glyph glyph-name="zero" unicode="0" 
d="M427.5 41.5q-72.5 -86.5 -175.5 -86.5q-95 0 -147.5 73.5t-52.5 204.5q0 65 13 136q29 167 103 254t176 87q95 0 146.5 -72t51.5 -202q0 -67 -13 -141q-29 -167 -101.5 -253.5zM144 220q0 -88 28.5 -135.5t84.5 -47.5q65 0 111 67t69 203q14 82 14 141q0 88 -28 134.5
t-84 46.5q-65 0 -111.5 -68t-70.5 -204q-13 -74 -13 -137z" />
    <glyph glyph-name="one" unicode="1" 
d="M137 483l15 92l235 124h69l-130 -733h-90l110 625z" />
    <glyph glyph-name="two" unicode="2" 
d="M503 403.5q-24 -40.5 -65.5 -84.5t-118.5 -116l-172 -158h328l-14 -79h-462l9 57l250 237l27 26q55 51 83.5 81t48 62t26.5 68q3 17 3 30q0 48 -30 75t-74 27q-55 0 -100 -37t-73 -99l-65 47q36 83 102 126.5t141 43.5q53 0 96.5 -22t69 -63.5t25.5 -95.5q0 -19 -3 -40
q-8 -45 -32 -85.5z" />
    <glyph glyph-name="three" unicode="3" 
d="M398 352q51 -21 76.5 -60t25.5 -93q0 -25 -4 -46q-11 -66 -49.5 -110.5t-92 -66t-111.5 -21.5q-87 0 -149 46t-70 133l77 35q7 -67 46.5 -100t98.5 -33q57 0 101.5 32.5t55.5 97.5q3 15 3 30q0 53 -39 82.5t-119 29.5h-33l15 80h39q79 0 124.5 42t45.5 108q0 42 -27 66.5
t-73 24.5q-51 0 -93.5 -29.5t-71.5 -82.5l-66 47q37 73 100.5 109.5t138.5 36.5q88 0 137.5 -46t49.5 -121q0 -19 -3 -40q-20 -115 -133 -151z" />
    <glyph glyph-name="four" unicode="4" 
d="M475 410l-36 -205h105l-14 -77h-105l-29 -162h-89l29 162h-324l10 62l365 509h99l-355 -494h219l36 205h89z" />
    <glyph glyph-name="five" unicode="5" 
d="M556 700l-14 -78h-268l-67 -212q43 23 96 23q60 0 105 -27t69 -74t24 -105q0 -22 -5 -52q-12 -69 -48.5 -119t-88.5 -75.5t-112 -25.5q-82 0 -138.5 43t-66.5 119l77 35q8 -56 42.5 -86t88.5 -30q62 0 101.5 38.5t51.5 108.5q4 26 4 39q0 55 -30.5 92.5t-92.5 37.5
q-78 0 -138 -66l-53 33l116 381h347z" />
    <glyph glyph-name="six" unicode="6" 
d="M419 393.5q45 -27.5 69.5 -75.5t24.5 -106q0 -26 -4 -49q-11 -62 -46 -109t-88 -73t-116 -26q-65 0 -114 27t-75.5 75t-26.5 109q0 27 4 50q9 55 41.5 111.5t95.5 130.5l203 240h106l-212 -247q-24 -28 -35 -42q32 12 69 12q59 0 104 -27.5zM420 212q0 57 -33.5 92
t-93.5 35q-61 0 -102 -36t-52 -100q-3 -19 -3 -37q0 -58 34 -94t94 -36t100.5 37t51.5 102q4 26 4 37z" />
    <glyph glyph-name="seven" unicode="7" 
d="M472 622h-354l14 77h456l-9 -55l-394 -678h-100z" />
    <glyph glyph-name="eight" unicode="8" 
d="M495 413.5q-31 -37.5 -79 -56.5q43 -25 66.5 -67t23.5 -93q0 -13 -4 -41q-16 -93 -85.5 -147t-169.5 -54q-66 0 -115 25.5t-75 70t-26 98.5q0 20 3 39q12 67 53 113.5t103 68.5q-35 22 -54 57t-19 76q0 16 3 32q9 52 41.5 92t82.5 62t108 22t100.5 -23.5t64.5 -63
t22 -86.5q0 -17 -3 -35q-10 -52 -41 -89.5zM412 437q37 35 37 95q0 44 -28 72.5t-80 28.5q-51 0 -86 -28t-44 -78q-2 -16 -2 -24q0 -44 28 -72.5t81 -28.5q57 0 94 35zM413 200q0 54 -33 87t-94 33t-103.5 -34.5t-54.5 -99.5q-3 -15 -3 -30q0 -55 35.5 -88t97.5 -33
q59 0 100 33t52 97q3 18 3 35z" />
    <glyph glyph-name="nine" unicode="9" 
d="M449 684q49 -27 75.5 -75t26.5 -109q0 -27 -4 -50q-9 -55 -41.5 -111.5t-95.5 -130.5l-203 -240h-106l212 247q25 28 35 42q-31 -12 -69 -12q-59 0 -104 27.5t-69.5 75.5t-24.5 106q0 26 4 49q11 62 46 109t88 73t116 26q65 0 114 -27zM458 500q0 58 -34 94t-94 36
t-100.5 -37t-51.5 -102q-4 -26 -4 -37q0 -57 33.5 -92t93.5 -35q61 0 102 36t52 100q3 20 3 37z" />
    <glyph glyph-name="colon" unicode=":" horiz-adv-x="255" 
d="M117.5 398.5q-16.5 17.5 -16.5 40.5q0 24 16.5 41t39.5 17q24 0 40.5 -17t16.5 -41t-16.5 -41t-40.5 -17q-23 0 -39.5 17.5zM42.5 -27.5q-16.5 17.5 -16.5 40.5q0 24 16.5 41t39.5 17q24 0 40.5 -17t16.5 -41t-16.5 -41t-40.5 -17q-23 0 -39.5 17.5z" />
    <glyph glyph-name="semicolon" unicode=";" horiz-adv-x="265" 
d="M207.5 480q16.5 -17 16.5 -41t-16.5 -41t-40.5 -17q-23 0 -39.5 17.5t-16.5 40.5q0 24 16.5 41t39.5 17q24 0 40.5 -17zM132.5 51q15.5 -17 15.5 -50q0 -18 -2 -28q-13 -70 -53 -112.5t-102 -52.5l2 53q71 17 88 91q-23 0 -37 15t-14 37q0 26 18.5 45t43.5 19t40.5 -17z
" />
    <glyph glyph-name="less" unicode="&#x3c;" 
d="M182 325l323 -150l-14 -82l-433 200l11 70l504 200l-14 -88z" />
    <glyph glyph-name="equal" unicode="=" 
d="M545 395h-469l14 76h468zM508 186h-468l13 76h469z" />
    <glyph glyph-name="greater" unicode="&#x3e;" 
d="M415 331l-323 150l14 82l433 -200l-11 -70l-504 -200l14 88z" />
    <glyph glyph-name="question" unicode="?" horiz-adv-x="432" 
d="M56 598q37 70 97 105t131 35q58 0 101.5 -22.5t66 -61t22.5 -83.5q0 -15 -3 -30q-6 -35 -23.5 -61t-39 -45t-59.5 -46q-45 -32 -72 -57.5t-44.5 -64.5t-15.5 -95h-67q-3 24 -3 44q0 55 18.5 94t44 63.5t68.5 55.5q45 32 68.5 57t30.5 61q2 14 2 21q0 39 -27 64t-75 25
q-97 0 -158 -105zM123.5 -27.5q-16.5 17.5 -16.5 40.5q0 24 16.5 41t39.5 17q24 0 40.5 -17t16.5 -41t-16.5 -41t-40.5 -17q-23 0 -39.5 17.5z" />
    <glyph glyph-name="at" unicode="@" horiz-adv-x="975" 
d="M768.5 691.5q85.5 -46.5 131.5 -130.5t46 -193q0 -47 -9 -97q-19 -111 -70 -171.5t-132 -60.5q-49 0 -80.5 22t-39.5 64q-31 -46 -74 -65.5t-87 -19.5q-53 0 -95 24.5t-66 70t-24 105.5q0 32 5 57q13 74 49.5 125.5t84.5 77.5t97 26t88.5 -25t59.5 -68q12 38 22 85l71 -3
l-54 -305q-4 -28 -4 -38q0 -31 13 -44.5t39 -13.5q91 0 119 158q8 50 8 88q0 91 -36.5 159.5t-105 106t-162.5 37.5q-105 0 -195.5 -42t-152.5 -122.5t-81 -191.5q-7 -39 -7 -80q0 -91 37.5 -162.5t108 -112.5t166.5 -41q55 0 109.5 16t96.5 42l30 -64q-45 -34 -108 -51.5
t-130 -17.5q-118 0 -205.5 49.5t-134.5 137.5t-47 199q0 48 9 97q23 130 96.5 224.5t181 144.5t230.5 50q116 0 201.5 -46.5zM562.5 152.5q44.5 33.5 58.5 116.5q4 23 4 48q0 63 -32 96t-83 33q-55 0 -95.5 -39.5t-53.5 -115.5q-5 -30 -5 -51q0 -58 28.5 -89.5t81.5 -31.5
q52 0 96.5 33.5z" />
    <glyph glyph-name="A" unicode="A" horiz-adv-x="658" 
d="M436 698l164 -732h-92l-44 210h-303l-114 -210h-97l411 732h75zM448 256l-67 324l-176 -324h243z" />
    <glyph glyph-name="B" unicode="B" horiz-adv-x="639" 
d="M482 345q106 -41 106 -149q0 -13 -4 -41q-16 -92 -85 -140.5t-192 -48.5h-277l127 732h207q111 0 170.5 -48t59.5 -127q0 -18 -3 -38q-17 -103 -109 -140zM317 379q79 0 125 28t56 84q2 16 2 23q0 48 -39.5 76.5t-120.5 28.5h-108l-42 -240h127zM494 192q0 52 -41.5 82.5
t-132.5 30.5h-143l-45 -261h166q89 0 135.5 30t57.5 90q3 15 3 28z" />
    <glyph glyph-name="C" unicode="C" horiz-adv-x="637" 
d="M299.5 596q-54.5 -32 -92.5 -93.5t-53 -147.5q-7 -38 -7 -77q0 -108 54 -174.5t154 -66.5q54 0 94 22.5t74 72.5l66 -48q-41 -67 -101.5 -98t-133.5 -31q-90 0 -158 42t-104.5 115.5t-36.5 165.5q0 44 7 83q19 109 72.5 188t129 120t159.5 41q94 0 159 -49.5t84 -123.5
l-76 -36q-18 56 -60.5 91.5t-111.5 35.5q-64 0 -118.5 -32z" />
    <glyph glyph-name="D" unicode="D" horiz-adv-x="700" 
d="M338 698q95 0 169.5 -38.5t116.5 -110t42 -167.5q0 -42 -7 -81q-19 -108 -77 -183.5t-144 -113.5t-189 -38h-219l127 732h181zM573 382q0 110 -67.5 174t-187.5 64h-86l-100 -575h114q130 0 214.5 68.5t106.5 199.5q6 36 6 69z" />
    <glyph glyph-name="E" unicode="E" horiz-adv-x="584" 
d="M157 698h445l-13 -79h-357l-41 -235h319l-14 -79h-319l-45 -260h367l-14 -79h-455z" />
    <glyph glyph-name="F" unicode="F" horiz-adv-x="553" 
d="M157 698h445l-13 -79h-357l-43 -247h319l-14 -79h-319l-57 -327h-88z" />
    <glyph glyph-name="G" unicode="G" horiz-adv-x="680" 
d="M549 269h-152l14 80h240l-50 -287q-37 -53 -98.5 -80t-136.5 -27q-94 0 -165 41t-109 114t-38 167q0 39 8 85q18 107 72.5 185.5t133 120.5t167.5 42q94 0 159.5 -45.5t84.5 -117.5l-76 -36q-16 51 -61 84t-115 33q-67 0 -124 -32.5t-96 -94t-54 -145.5q-7 -36 -7 -76
q0 -110 60 -176.5t167 -66.5q92 0 146 56z" />
    <glyph glyph-name="H" unicode="H" horiz-adv-x="732" 
d="M191 386h388l55 312h89l-128 -732h-89l59 340h-388l-59 -340h-88l127 732h89z" />
    <glyph glyph-name="I" unicode="I" horiz-adv-x="254" 
d="M118 -34h-88l127 732h89z" />
    <glyph glyph-name="J" unicode="J" horiz-adv-x="451" 
d="M23.5 -7q-41.5 38 -52.5 110l76 36q10 -52 31 -77t66 -25q102 0 126 138l91 523h90l-94 -531q-21 -116 -80.5 -164t-137.5 -48q-74 0 -115.5 38z" />
    <glyph glyph-name="K" unicode="K" horiz-adv-x="672" 
d="M183 338l415 360h123l-358 -305l252 -427h-111l-210 368l-132 -111l-45 -257h-89l129 732h89z" />
    <glyph glyph-name="L" unicode="L" horiz-adv-x="556" 
d="M158 698h89l-116 -652h362l-15 -80h-450z" />
    <glyph glyph-name="M" unicode="M" horiz-adv-x="850" 
d="M767 698h74l-128 -732h-86l95 549l-285 -360h-53l-170 380l-99 -569h-85l127 732h77l192 -435z" />
    <glyph glyph-name="N" unicode="N" horiz-adv-x="727" 
d="M231 698l303 -581l101 581h83l-128 -732h-73l-302 582l-102 -582h-83l127 732h74z" />
    <glyph glyph-name="O" unicode="O" horiz-adv-x="748" 
d="M134.5 546.5q53.5 79.5 130.5 121.5t164 42q85 0 150 -41t100.5 -114t35.5 -166q0 -40 -8 -88q-19 -105 -72.5 -183.5t-130 -120.5t-162.5 -42q-85 0 -150.5 40.5t-101.5 113.5t-36 166q0 38 8 86q19 106 72.5 185.5zM147 272q0 -106 52 -170.5t148 -64.5q101 0 173.5 74
t94.5 202q7 39 7 81q0 106 -52 170.5t-146 64.5q-102 0 -175 -74t-95 -202q-7 -39 -7 -81z" />
    <glyph glyph-name="P" unicode="P" horiz-adv-x="582" 
d="M367 698q71 0 122.5 -25.5t78.5 -71t27 -103.5q0 -25 -4 -46q-17 -97 -91.5 -152t-184.5 -55h-148l-49 -279h-88l127 732h210zM501 496q0 55 -37 89.5t-117 34.5h-115l-52 -297h132q81 0 127.5 37t58.5 104q3 17 3 32z" />
    <glyph glyph-name="Q" unicode="Q" horiz-adv-x="749" 
d="M629 109.5q-58 -80.5 -140 -120.5l192 -175h-124l-165 145q-21 -4 -50 -4q-85 0 -150.5 40.5t-101.5 113.5t-36 166q0 38 8 86q19 106 72.5 185.5t130.5 121.5t164 42q85 0 150 -41t100.5 -114t35.5 -166q0 -40 -8 -88q-20 -111 -78 -191.5zM520.5 111q72.5 74 94.5 202
q7 39 7 81q0 106 -52 170.5t-146 64.5q-102 0 -175 -74t-95 -202q-7 -39 -7 -81q0 -106 52 -170.5t148 -64.5q101 0 173.5 74z" />
    <glyph glyph-name="R" unicode="R" horiz-adv-x="615" 
d="M533.5 345.5q-48.5 -48.5 -122.5 -68.5l167 -311h-104l-157 300h-147l-52 -300h-88l127 732h213q68 0 119.5 -24.5t80 -68t28.5 -99.5q0 -21 -4 -40q-12 -72 -60.5 -120.5zM503 501q0 54 -38.5 86.5t-114.5 32.5h-118l-48 -276h129q81 0 129 35t59 95q2 9 2 27z" />
    <glyph glyph-name="S" unicode="S" horiz-adv-x="569" 
d="M439 5q-66 -50 -169 -50q-76 0 -135 29t-94 79t-43 111l77 36q17 -79 68 -126t130 -47q66 0 104.5 30t47.5 79q2 14 2 20q0 34 -20.5 59t-50 42t-81.5 40q-60 27 -97 49t-63 57t-26 86q0 18 3 37q18 99 97 142q56 32 136 32q72 0 125 -26t82 -67.5t33 -85.5l-76 -36
q-8 56 -51 95t-114 39q-54 0 -92 -24.5t-47 -72.5q-2 -14 -2 -20q0 -32 20 -56t48.5 -40.5t80.5 -39.5q62 -28 99 -50.5t63.5 -58.5t26.5 -88q0 -21 -4 -40q-15 -85 -78 -134z" />
    <glyph glyph-name="T" unicode="T" horiz-adv-x="557" 
d="M83 698h540l-13 -79h-227l-114 -653h-89l114 653h-224z" />
    <glyph glyph-name="U" unicode="U" horiz-adv-x="718" 
d="M627 698h89l-77 -450q-25 -143 -106 -218t-208 -75q-124 0 -189.5 66.5t-65.5 180.5q0 29 7 74l73 422h89l-72 -408q-7 -44 -7 -71q0 -87 44 -134.5t128 -47.5q180 0 219 225z" />
    <glyph glyph-name="V" unicode="V" horiz-adv-x="652" 
d="M174 698l124 -613l331 613h94l-408 -732h-75l-161 732h95z" />
    <glyph glyph-name="W" unicode="W" horiz-adv-x="956" 
d="M592 699l76 -585l269 584h90l-350 -732h-71l-80 568l-272 -568h-70l-105 732h90l77 -584l271 585h75z" />
    <glyph glyph-name="X" unicode="X" horiz-adv-x="645" 
d="M346 406l252 292h108l-322 -365l198 -367h-104l-156 301l-261 -301h-107l330 374l-192 358h104z" />
    <glyph glyph-name="Y" unicode="Y" horiz-adv-x="605" 
d="M326 367l248 331h102l-325 -425l-53 -307h-88l55 314l-185 418h99z" />
    <glyph glyph-name="Z" unicode="Z" horiz-adv-x="564" 
d="M113 619l13 79h480l-6 -43l-487 -609h394l-15 -80h-524l7 44l487 609h-349z" />
    <glyph glyph-name="bracketleft" unicode="[" horiz-adv-x="344" 
d="M178 781h236l-14 -78h-152l-135 -770h152l-14 -78h-236z" />
    <glyph glyph-name="backslash" unicode="\" horiz-adv-x="387" 
d="M90 698h84l144 -732h-84z" />
    <glyph glyph-name="bracketright" unicode="]" horiz-adv-x="344" 
d="M110 781h236l-163 -926h-236l14 78h152l135 770h-152z" />
    <glyph glyph-name="asciicircum" unicode="^" horiz-adv-x="472" 
d="M296 593l-167 -267h-88l233 373h76l101 -373h-84z" />
    <glyph glyph-name="underscore" unicode="_" horiz-adv-x="414" 
d="M-82 -189l13 72h414l-13 -72h-414z" />
    <glyph glyph-name="grave" unicode="`" horiz-adv-x="329" 
d="M295 559l-74 154h91l55 -154h-72z" />
    <glyph glyph-name="a" unicode="a" horiz-adv-x="594" 
d="M558 486l-91 -520h-73q5 41 8 70q-59 -81 -158 -81q-58 0 -106 29t-75.5 82t-27.5 123q0 31 6 64q13 77 52 132.5t92.5 83.5t110.5 28t99.5 -28.5t63.5 -77.5q17 59 25 95h74zM362 75q48 40 64 135q5 32 5 53q0 76 -40 114.5t-99 38.5q-62 0 -106 -43t-58 -126
q-5 -25 -5 -57q0 -72 35.5 -113.5t97.5 -41.5q58 0 106 40z" />
    <glyph glyph-name="b" unicode="b" horiz-adv-x="595" 
d="M442 468q48 -29 75.5 -82t27.5 -123q0 -31 -6 -64q-13 -77 -52 -132.5t-92.5 -83.5t-110.5 -28q-58 0 -100.5 29t-63.5 79q-13 -36 -24 -97h-74l132 761h84l-52 -301q59 71 150 71q58 0 106 -29zM394 79q44 43 58 126q5 25 5 57q0 72 -35.5 113.5t-97.5 41.5
q-58 0 -106 -40t-64 -135q-5 -32 -5 -53q0 -76 40 -114.5t99 -38.5q62 0 106 43z" />
    <glyph glyph-name="c" unicode="c" horiz-adv-x="482" 
d="M381 103l62 -45q-62 -103 -185 -103q-68 0 -118.5 30.5t-77.5 84.5t-27 121q0 30 6 61q13 78 54 133.5t97 83.5t116 28q65 0 113.5 -32t64.5 -85l-70 -33q-12 32 -42 51t-70 19q-62 0 -111.5 -43t-63.5 -128q-5 -30 -5 -53q0 -71 36.5 -114.5t100.5 -43.5q77 0 120 68z
" />
    <glyph glyph-name="d" unicode="d" horiz-adv-x="593" 
d="M516 727h84l-134 -761h-73q5 38 8 69q-60 -80 -157 -80q-58 0 -106 29t-75.5 82t-27.5 123q0 31 6 64q13 77 52 132.5t92.5 83.5t110.5 28q56 0 99 -27.5t63 -76.5zM362 75q48 40 64 135q5 32 5 53q0 76 -40 114.5t-99 38.5q-62 0 -106 -43t-58 -126q-5 -25 -5 -57
q0 -72 35.5 -113.5t97.5 -41.5q58 0 106 40z" />
    <glyph glyph-name="e" unicode="e" horiz-adv-x="510" 
d="M332.5 51.5q34.5 18.5 65.5 59.5l60 -43q-34 -57 -89.5 -85t-120.5 -28q-64 0 -112.5 27t-75.5 77.5t-27 117.5q0 30 6 63q14 82 55 140t99 87.5t124 29.5q75 0 121 -37.5t46 -104.5q0 -80 -70 -116t-216 -36q-21 0 -75 2q-1 -9 -1 -25q0 -72 36 -109.5t98 -37.5
q42 0 76.5 18.5zM204 384q-48 -35 -69 -108q46 -3 86 -3q87 0 132 19t45 63q0 32 -22 48t-63 16q-61 0 -109 -35z" />
    <glyph glyph-name="f" unicode="f" horiz-adv-x="335" 
d="M272.5 632q-23.5 -26 -36.5 -99l-8 -47h133l-13 -73h-133l-84 -480q-21 -120 -59 -168.5t-105 -48.5q-31 0 -56.5 8.5t-40.5 23.5l41 68q24 -20 51 -20q24 0 39 14t26.5 48t22.5 97l80 458h-88l12 73h88l10 55q19 108 68 152.5t119 44.5q67 0 106 -37l-42 -64
q-28 21 -68 21q-39 0 -62.5 -26z" />
    <glyph glyph-name="g" unicode="g" horiz-adv-x="595" 
d="M559 486l-90 -515q-16 -93 -59.5 -150t-98 -81t-110.5 -24q-52 0 -97.5 20t-75 56t-35.5 83l68 31q17 -55 55 -82.5t91 -27.5q67 0 115.5 44t64.5 139l8 48q-59 -72 -151 -72q-58 0 -106 29t-75.5 82t-27.5 123q0 31 6 64q13 77 52 132.5t92.5 83.5t110.5 28t99.5 -28.5
t63.5 -77.5q14 42 25 95h75zM431 263q0 76 -40 114.5t-99 38.5q-62 0 -106 -43t-58 -126q-5 -25 -5 -57q0 -72 35.5 -113.5t97.5 -41.5q58 0 106 40t64 135q5 32 5 53z" />
    <glyph glyph-name="h" unicode="h" horiz-adv-x="569" 
d="M462.5 451q45.5 -46 45.5 -129q0 -32 -5 -57l-53 -299h-84l51 290q5 28 5 49q0 53 -26 82t-76 29q-54 0 -99 -34.5t-61 -100.5l-55 -315h-84l133 761h85l-54 -305q30 38 70 56.5t87 18.5q75 0 120.5 -46z" />
    <glyph glyph-name="i" unicode="i" horiz-adv-x="231" 
d="M140.5 595.5q-16.5 17.5 -16.5 40.5q0 24 16 41t39 17q24 0 40.5 -17t16.5 -41t-16.5 -41t-40.5 -17q-22 0 -38.5 17.5zM104 -34h-84l91 519h84z" />
    <glyph glyph-name="j" unicode="j" horiz-adv-x="228" 
d="M136.5 593.5q-14.5 15.5 -14.5 37.5q0 24 17.5 43.5t41.5 19.5q26 0 41 -19t10 -45q-3 -21 -20.5 -36.5t-39.5 -15.5q-21 0 -35.5 15.5zM-196 -247l40 68q28 -25 67 -25q38 0 63 28.5t37 97.5l98 563h84l-102 -584q-17 -96 -65.5 -140.5t-116.5 -44.5q-64 0 -105 37z" />
    <glyph glyph-name="k" unicode="k" horiz-adv-x="518" 
d="M153 240l274 245h112l-238 -210l166 -309h-105l-129 249l-100 -88l-29 -161h-85l135 761h85z" />
    <glyph glyph-name="l" unicode="l" horiz-adv-x="232" 
d="M105 -34h-84l133 761h85z" />
    <glyph glyph-name="m" unicode="m" horiz-adv-x="840" 
d="M780 326q0 -31 -5 -56l-54 -304h-83l53 296q4 21 4 45q0 50 -23 79.5t-67 29.5q-47 0 -86.5 -36.5t-52.5 -109.5l-54 -304h-83l53 296q4 21 4 45q0 50 -23 79.5t-67 29.5q-47 0 -86.5 -36t-52.5 -109l-53 -305h-84l91 519l73 -3q-5 -35 -8 -65q57 80 145 80
q37 0 67.5 -14.5t49.5 -42.5q13 -17 23 -45q32 53 75.5 77.5t92.5 24.5q38 0 68.5 -14.5t49.5 -42.5q33 -44 33 -114z" />
    <glyph glyph-name="n" unicode="n" horiz-adv-x="568" 
d="M461.5 451q45.5 -46 45.5 -129q0 -32 -5 -57l-53 -299h-84l51 290q5 28 5 49q0 53 -26 82t-76 29q-57 0 -103.5 -38.5t-59.5 -113.5l-52 -298h-84l91 520h74q-2 -13 -7 -53l-3 -23q60 87 166 87q75 0 120.5 -46z" />
    <glyph glyph-name="o" unicode="o" horiz-adv-x="579" 
d="M94 379q41 57 99 87.5t121 30.5q62 0 111 -30.5t76.5 -84t27.5 -121.5q0 -24 -5 -57q-14 -77 -54.5 -133.5t-98 -86t-119.5 -29.5q-63 0 -112.5 30t-77 83t-27.5 120q0 24 5 57q13 77 54 134zM123 185q0 -69 36.5 -109.5t98.5 -40.5q66 0 115 45.5t64 131.5q4 24 4 50
q0 71 -35.5 113t-97.5 42q-65 0 -115 -46.5t-65 -133.5q-5 -30 -5 -52z" />
    <glyph glyph-name="p" unicode="p" horiz-adv-x="593" 
d="M440 468q48 -29 75.5 -82t27.5 -123q0 -31 -6 -64q-13 -77 -52 -132.5t-92.5 -83.5t-110.5 -28q-56 0 -99 27.5t-63 76.5l-58 -332h-84l133 759h74q-6 -32 -9 -70q59 81 158 81q58 0 106 -29zM392 79q44 43 58 126q5 25 5 57q0 72 -35.5 113.5t-97.5 41.5q-58 0 -106 -40
t-64 -135q-5 -32 -5 -53q0 -76 40 -114.5t99 -38.5q62 0 106 43z" />
    <glyph glyph-name="q" unicode="q" horiz-adv-x="595" 
d="M559 486l-132 -759h-84l52 300q-59 -72 -151 -72q-58 0 -106 29t-75.5 82t-27.5 123q0 31 6 64q13 77 52 132.5t92.5 83.5t110.5 28q58 0 101 -29t63 -79q13 36 25 97h74zM362 75q48 40 64 135q5 32 5 53q0 76 -40 114.5t-99 38.5q-62 0 -106 -43t-58 -126q-5 -25 -5 -57
q0 -72 35.5 -113.5t97.5 -41.5q58 0 106 40z" />
    <glyph glyph-name="r" unicode="r" horiz-adv-x="363" 
d="M367 486q22 -11 32 -27l-39 -65q-21 23 -60 23q-49 0 -88 -37.5t-56 -116.5l-52 -297h-84l91 520h74q-2 -13 -7 -53l-3 -24q53 88 139 88q31 0 53 -11z" />
    <glyph glyph-name="s" unicode="s" horiz-adv-x="445" 
d="M326.5 -9q-48.5 -36 -123.5 -36q-57 0 -101.5 20.5t-71 55.5t-31.5 79l68 31q12 -52 47 -80.5t89 -28.5q39 0 64 15t31 47q1 4 1 13q0 30 -25.5 48.5t-76.5 39.5q-46 20 -73 36t-46.5 42.5t-19.5 65.5q0 50 25.5 85.5t67.5 54t91 18.5q73 0 122 -37.5t54 -94.5l-69 -31
q-7 38 -37 61.5t-74 23.5q-38 0 -65 -17.5t-27 -53.5q0 -29 25 -47t76 -39q45 -19 73.5 -35t48.5 -43t20 -66q0 -14 -3 -29q-11 -62 -59.5 -98z" />
    <glyph glyph-name="t" unicode="t" horiz-adv-x="358" 
d="M351 412h-148l-48 -271q-4 -28 -4 -37q0 -69 64 -69q36 0 69 22l25 -71q-46 -31 -106 -31q-59 0 -98.5 30t-39.5 101q0 19 5 51l48 275h-85l13 74h85l25 145h86l-26 -145h148z" />
    <glyph glyph-name="u" unicode="u" horiz-adv-x="568" 
d="M449 486h85l-91 -520h-74l8 75q-60 -86 -164 -86q-76 0 -121.5 46t-45.5 129q0 32 5 57l53 299h84l-50 -290q-4 -23 -4 -48q0 -54 25.5 -83t75.5 -29q57 0 103 38.5t59 113.5z" />
    <glyph glyph-name="v" unicode="v" horiz-adv-x="504" 
d="M136 485l91 -406l216 406h93l-294 -519h-69l-127 519h90z" />
    <glyph glyph-name="w" unicode="w" horiz-adv-x="765" 
d="M450 485l70 -391l190 391h87l-269 -519h-57l-72 379l-194 -379h-58l-101 519h81l69 -390l189 390h65z" />
    <glyph glyph-name="x" unicode="x" horiz-adv-x="486" 
d="M247 294l169 191h101l-233 -264l140 -255h-97l-101 192l-170 -192h-103l235 264l-141 255h98z" />
    <glyph glyph-name="y" unicode="y" horiz-adv-x="509" 
d="M448 485h93l-349 -616q-43 -78 -92 -115.5t-109 -37.5q-58 0 -101 35l40 68q27 -23 63 -23q31 0 61.5 23t66.5 81l41 68l-120 517h92l88 -415z" />
    <glyph glyph-name="z" unicode="z" horiz-adv-x="445" 
d="M82 485h368l-6 -45l-343 -402h282l-13 -72h-403l7 46l345 401h-250z" />
    <glyph glyph-name="braceleft" unicode="{" horiz-adv-x="369" 
d="M438 781l-14 -78h-34q-41 0 -64.5 -25.5t-33.5 -84.5l-21 -120q-12 -71 -41 -106t-80 -47q70 -20 70 -110q0 -31 -5 -57l-21 -120q-4 -21 -4 -41q0 -33 17 -46t55 -13h26l-14 -78h-11q-83 0 -123 28.5t-40 96.5q0 30 5 55l21 121q5 33 5 51q0 41 -20.5 57t-67.5 16l16 92
q41 0 65 10.5t38.5 36t23.5 73.5l21 121q17 96 64 132t124 36h43z" />
    <glyph glyph-name="bar" unicode="|" horiz-adv-x="183" 
d="M-23 -145l164 926h81l-164 -926h-81z" />
    <glyph glyph-name="braceright" unicode="}" horiz-adv-x="369" 
d="M-52 -145l14 78h34q41 0 64.5 25.5t33.5 84.5l21 120q12 71 41 106t80 47q-70 20 -70 110q0 31 5 57l21 120q4 21 4 41q0 33 -17 46t-55 13h-26l14 78h11q83 0 123 -28.5t40 -96.5q0 -30 -5 -55l-21 -121q-5 -33 -5 -51q0 -41 20.5 -57t67.5 -16l-16 -92q-41 0 -65 -10.5
t-38.5 -36t-23.5 -73.5l-21 -121q-17 -96 -64 -132t-124 -36h-43z" />
    <glyph glyph-name="asciitilde" unicode="~" 
d="M58 249q9 72 49.5 120.5t103.5 48.5q36 0 58.5 -14.5t51.5 -43.5q20 -22 35.5 -33t35.5 -11q55 0 73 91h74q-9 -72 -49 -120.5t-102 -48.5q-37 0 -60.5 15t-51.5 44q-20 22 -35 32.5t-35 10.5q-56 0 -73 -91h-75z" />
    <glyph glyph-name="uni00A0" unicode="&#xa0;" horiz-adv-x="270" 
 />
    <glyph glyph-name="exclamdown" unicode="&#xa1;" horiz-adv-x="237" 
d="M188.5 479.5q16.5 -17.5 16.5 -40.5q0 -24 -16.5 -41t-39.5 -17q-24 0 -40.5 17t-16.5 41t16.5 41t40.5 17q23 0 39.5 -17.5zM152 280l-84 -553h-89l110 553h63z" />
    <glyph glyph-name="cent" unicode="&#xa2;" 
d="M336 151q82 4 120 56l63 -45q-60 -91 -197 -91l-19 -105h-81l20 115q-79 20 -125 78.5t-46 140.5q0 27 4 50q19 107 89.5 169t168.5 72l19 108h81l-19 -109q61 -8 102 -40.5t55 -83.5l-71 -33q-10 32 -36 52t-64 26zM160 301q0 -53 25 -89.5t72 -50.5l61 347
q-59 -11 -100 -51.5t-54 -112.5q-4 -20 -4 -43z" />
    <glyph glyph-name="sterling" unicode="&#xa3;" 
d="M297 595.5q-41 -32.5 -53 -99.5q-4 -20 -4 -45q0 -37 13 -95h193l-13 -72h-166q4 -32 4 -48q0 -18 -3 -36q-8 -47 -37.5 -87t-70.5 -69h352l-14 -78h-495l10 67q79 47 115.5 84t46.5 93q3 18 3 36q0 19 -3 38h-117l13 72h89q-13 56 -13 96q0 22 5 52q11 63 48.5 110
t91.5 71.5t115 24.5t103.5 -23t65 -61t25.5 -81l-74 -35q-9 55 -39.5 86.5t-90.5 31.5q-59 0 -100 -32.5z" />
    <glyph glyph-name="currency" unicode="&#xa4;" 
d="M456 203l63 -75l-62 -54l-66 76q-55 -32 -118 -32q-74 0 -126 44l-89 -79l-48 54l93 80q-24 45 -24 94q0 14 4 40q12 62 55 112l-64 74l61 55l66 -78q58 33 120 33q73 0 124 -43l90 78l47 -55l-91 -80q22 -44 22 -94q0 -23 -4 -40q-12 -63 -53 -110zM192 230
q32 -34 87 -34q40 0 75 19.5t56 54t21 78.5q0 51 -31.5 86t-85.5 35q-41 0 -76.5 -20t-56.5 -55.5t-21 -78.5q0 -51 32 -85z" />
    <glyph glyph-name="yen" unicode="&#xa5;" 
d="M314 397l234 301h103l-280 -350h161l-13 -72h-185l-13 -75h185l-13 -72h-185l-29 -163h-89l29 163h-174l13 72h174l13 75h-174l13 72h152l-167 350h104z" />
    <glyph glyph-name="brokenbar" unicode="&#xa6;" horiz-adv-x="183" 
d="M76 414l65 367h81l-65 -367h-81zM-23 -145l65 367h81l-65 -367h-81z" />
    <glyph glyph-name="section" unicode="&#xa7;" horiz-adv-x="587" 
d="M222 515q0 -30 19 -52.5t47 -38t78 -37.5q58 -26 93.5 -46.5t60.5 -53t25 -78.5q0 -15 -3 -32q-10 -58 -51 -95.5t-109 -52.5q56 -44 56 -114q0 -16 -3 -34q-15 -84 -83 -124.5t-156 -40.5q-68 0 -117 24t-74.5 62.5t-27.5 79.5l77 37q6 -54 41 -88.5t104 -34.5
q55 0 95.5 24t48.5 73q2 12 2 18q0 30 -19 52.5t-47 38t-78 37.5q-58 26 -93.5 46.5t-60.5 53t-25 78.5q0 16 3 32q10 58 51 95.5t109 52.5q-56 44 -56 114q0 16 3 34q15 84 83 124.5t156 40.5q68 0 117 -24t74.5 -62.5t27.5 -79.5l-77 -37q-6 54 -41 88.5t-104 34.5
q-55 0 -95.5 -24t-48.5 -73q-2 -12 -2 -18zM450 208q0 30 -19 51.5t-46.5 36t-77.5 35.5l-23 10h-7q-64 0 -106.5 -27.5t-51.5 -77.5q-2 -12 -2 -18q0 -30 19 -51.5t46.5 -36t77.5 -35.5l23 -10h7q64 0 106.5 27.5t51.5 77.5q2 12 2 18z" />
    <glyph glyph-name="dieresis" unicode="&#xa8;" horiz-adv-x="381" 
d="M176.5 595q-16.5 17 -16.5 41t16.5 41t39.5 17q24 0 40.5 -17t16.5 -41t-16.5 -41t-40.5 -17q-23 0 -39.5 17zM381.5 595q-16.5 17 -16.5 41t16.5 41t39.5 17q24 0 40.5 -17t16.5 -41t-16.5 -41t-40.5 -17q-23 0 -39.5 17z" />
    <glyph glyph-name="copyright" unicode="&#xa9;" horiz-adv-x="847" 
d="M657 666.5q75 -43.5 115.5 -119t40.5 -168.5q0 -35 -6 -73q-19 -104 -81 -183.5t-152.5 -123.5t-190.5 -44q-99 0 -173.5 43t-115 117.5t-40.5 166.5q0 30 7 74q19 104 80.5 184.5t151 125t189.5 44.5t175 -43.5zM743 375q0 74 -32.5 134.5t-93 95.5t-139.5 35
q-83 0 -157.5 -37t-125.5 -104t-66 -155q-5 -33 -5 -58q0 -73 32 -133t92 -94.5t139 -34.5q83 0 158 36.5t126.5 103.5t66.5 154q5 32 5 57zM563 522.5q37 -25.5 49 -72.5l-64 -31q-19 55 -78 55q-50 0 -93 -36t-54 -100q-3 -18 -3 -34q0 -52 27.5 -83t70.5 -31
q26 0 51.5 11.5t42.5 33.5l56 -43q-26 -39 -65.5 -57.5t-82.5 -18.5q-51 0 -92 24t-64 66t-23 96q0 14 4 42q11 63 46 109t83.5 70.5t99.5 24.5q52 0 89 -25.5z" />
    <glyph glyph-name="ordfeminine" unicode="&#xaa;" horiz-adv-x="445" 
d="M462 697l-68 -384h-61q4 28 5 42q-44 -50 -114 -50q-67 0 -108.5 45.5t-41.5 122.5q0 21 5 53q14 86 66 133.5t119 47.5q42 0 73 -18.5t48 -51.5q10 32 15 60h62zM311.5 394q33.5 30 45.5 101q4 20 4 43q0 55 -26 82t-67 27q-44 0 -75 -32.5t-41 -94.5q-5 -28 -5 -48
q0 -51 23.5 -79.5t66.5 -28.5q41 0 74.5 30z" />
    <glyph glyph-name="guillemotleft" unicode="&#xab;" horiz-adv-x="527" 
d="M239 451h103l-234 -228l148 -219h-95l-152 224zM443 451h103l-234 -228l148 -219h-95l-152 224z" />
    <glyph glyph-name="logicalnot" unicode="&#xac;" 
d="M456 325h-392l12 75h468l-47 -271h-75z" />
    <glyph glyph-name="uni00AD" unicode="&#xad;" horiz-adv-x="488" 
d="M69 292l13 72h364l-13 -72h-364z" />
    <glyph glyph-name="registered" unicode="&#xae;" horiz-adv-x="477" 
d="M108.5 610q26.5 46 72 73t99.5 27t99.5 -27t72.5 -73t27 -100t-26.5 -99.5t-72 -72t-100.5 -26.5q-54 0 -99.5 26.5t-72 72t-26.5 99.5t26.5 100zM149.5 433q20.5 -35 55 -55t75.5 -20q42 0 76.5 20.5t55 55.5t20.5 76q0 42 -20 77t-55 55.5t-77 20.5q-41 0 -76 -20.5
t-55 -55.5t-20 -77t20.5 -77zM188 405l38 214h73q37 0 56 -16t19 -42q0 -29 -13.5 -45t-39.5 -23l42 -88h-50l-36 84h-28l-15 -84h-46zM288 528q20 0 31 7.5t11 21.5q0 23 -36 23h-29l-10 -52h33z" />
    <glyph glyph-name="macron" unicode="&#xaf;" horiz-adv-x="393" 
d="M479 599h-320l13 74h320z" />
    <glyph glyph-name="degree" unicode="&#xb0;" horiz-adv-x="308" 
d="M99 731.5q19 33.5 51.5 52.5t71.5 19q62 0 102.5 -41.5t40.5 -103.5q0 -61 -40.5 -102t-102.5 -41q-39 0 -71.5 19t-51.5 51.5t-19 72.5t19 73.5zM167 599.5q21 -22.5 55 -22.5q35 0 56.5 22.5t21.5 58.5q0 37 -21.5 60t-56.5 23q-34 0 -55 -23t-21 -60q0 -36 21 -58.5z
" />
    <glyph glyph-name="plusminus" unicode="&#xb1;" 
d="M309 595h76l-28 -158h196l-14 -76h-196l-28 -158h-75l28 158h-197l13 76h197zM502 152l-12 -75h-469l13 75h468z" />
    <glyph glyph-name="uni00B2" unicode="&#xb2;" horiz-adv-x="321" 
d="M340.5 674q-15.5 -29 -60.5 -68l-117 -102h175l-10 -58h-272l7 44l162 148q36 32 49 52t13 41q0 19 -11.5 32t-33.5 13q-23 0 -45.5 -14.5t-39.5 -43.5l-46 35q23 41 58.5 62.5t76.5 21.5q53 0 81.5 -30.5t28.5 -73.5q0 -30 -15.5 -59z" />
    <glyph glyph-name="uni00B3" unicode="&#xb3;" horiz-adv-x="319" 
d="M290 640q24 -12 38 -32t14 -46q0 -57 -41 -90.5t-101 -33.5q-54 0 -90 27t-44 73l54 25q5 -33 26 -50t52 -17q33 0 54 18.5t21 49.5q0 25 -21 40t-53 15h-25l7 50h32q35 0 56.5 17.5t21.5 45.5q0 19 -13.5 33t-38.5 14q-24 0 -47.5 -13.5t-38.5 -37.5l-45 34q21 36 56 56
t77 20q52 0 86 -29.5t34 -73.5q0 -70 -71 -95z" />
    <glyph glyph-name="acute" unicode="&#xb4;" horiz-adv-x="275" 
d="M242 559h-78l109 154h97z" />
    <glyph glyph-name="uni00B5" unicode="&#xb5;" horiz-adv-x="591" 
d="M536 41l2 -74q-22 -12 -56 -12q-49 0 -71 22.5t-22 66.5q-57 -89 -159 -89q-80 0 -119 51l-49 -279h-85l134 759h85l-54 -304q-3 -21 -3 -39q0 -53 27.5 -80.5t80.5 -27.5q57 0 100.5 37t58.5 107l53 306h85l-69 -390q-3 -15 -3 -27q0 -19 8 -26t25 -7q16 0 31 6z" />
    <glyph glyph-name="paragraph" unicode="&#xb6;" horiz-adv-x="582" 
d="M177 667.5q54 31.5 155 31.5h80l-130 -733h-77l79 427q-86 0 -131.5 34.5t-45.5 97.5q0 17 3 36q13 75 67 106.5zM441 -34h-77l130 733h77z" />
    <glyph glyph-name="periodcentered" unicode="&#xb7;" horiz-adv-x="500" 
d="M224.5 290.5q-16.5 17.5 -16.5 40.5q0 24 16.5 41t39.5 17q24 0 40.5 -17t16.5 -41t-16.5 -41t-40.5 -17q-23 0 -39.5 17.5z" />
    <glyph glyph-name="cedilla" unicode="&#xb8;" horiz-adv-x="314" 
d="M4 -93q42 -3 68.5 -25.5t26.5 -59.5q0 -56 -43 -81t-102 -25q-46 0 -79 12l5 60q33 -11 76 -11q32 0 50.5 8t18.5 30q0 35 -78 35q-17 0 -26 -1l-3 38l59 106h76z" />
    <glyph glyph-name="uni00B9" unicode="&#xb9;" horiz-adv-x="248" 
d="M108 716l10 59l111 55h53l-68 -384h-66l56 318z" />
    <glyph glyph-name="ordmasculine" unicode="&#xba;" horiz-adv-x="431" 
d="M120.5 621.5q31.5 42.5 75 64t88.5 21.5q69 0 113 -47.5t44 -123.5q0 -24 -4 -45q-11 -59 -42.5 -100.5t-74.5 -62t-88 -20.5q-70 0 -114 46.5t-44 121.5q0 24 4 44q11 59 42.5 101.5zM148 474q0 -49 24.5 -77.5t65.5 -28.5q44 0 78.5 33t46.5 96q3 21 3 39q0 51 -24 81
t-65 30q-44 0 -79 -34.5t-46 -98.5q-4 -19 -4 -40z" />
    <glyph glyph-name="guillemotright" unicode="&#xbb;" horiz-adv-x="527" 
d="M52 451h95l152 -224l-230 -223h-103l234 228zM256 451h95l152 -224l-230 -223h-103l234 228z" />
    <glyph glyph-name="onequarter" unicode="&#xbc;" horiz-adv-x="722" 
d="M85 586l10 59l111 55h53l-68 -384h-66l56 318zM656 699l-492 -733h-69l492 733h69zM638 200l-16 -90h54l-10 -57h-54l-15 -84h-63l15 84h-177l6 43l193 257h70l-182 -243h100l16 90h63z" />
    <glyph glyph-name="onehalf" unicode="&#xbd;" horiz-adv-x="751" 
d="M85 586l10 59l111 55h53l-68 -384h-66l56 318zM656 699l-492 -733h-69l492 733h69zM686.5 197q-15.5 -29 -60.5 -68l-117 -102h175l-10 -58h-272l7 44l162 148q36 32 49 52t13 41q0 19 -11.5 32t-33.5 13q-23 0 -45.5 -14.5t-39.5 -43.5l-46 35q23 41 58.5 62.5
t76.5 21.5q53 0 81.5 -30.5t28.5 -73.5q0 -30 -15.5 -59z" />
    <glyph glyph-name="threequarters" unicode="&#xbe;" horiz-adv-x="778" 
d="M267 510q24 -12 38 -32t14 -46q0 -57 -41 -90.5t-101 -33.5q-54 0 -90 27t-44 73l54 25q5 -33 26 -50t52 -17q33 0 54 18.5t21 49.5q0 25 -21 40t-53 15h-25l7 50h32q35 0 56.5 17.5t21.5 45.5q0 19 -13.5 33t-38.5 14q-24 0 -47.5 -13.5t-38.5 -37.5l-45 34q21 36 56 56
t77 20q52 0 86 -29.5t34 -73.5q0 -70 -71 -95zM712 699l-492 -733h-69l492 733h69zM694 200l-16 -90h54l-10 -57h-54l-15 -84h-63l15 84h-177l6 43l193 257h70l-182 -243h100l16 90h63z" />
    <glyph glyph-name="questiondown" unicode="&#xbf;" horiz-adv-x="433" 
d="M294.5 479.5q16.5 -17.5 16.5 -40.5q0 -24 -16.5 -41t-39.5 -17q-24 0 -40.5 17t-16.5 41t16.5 41t40.5 17q23 0 39.5 -17.5zM362 -146q-37 -70 -97 -105t-131 -35q-58 0 -101.5 22.5t-66 61t-22.5 83.5q0 15 3 30q6 35 23.5 61t39 45t59.5 46q45 32 72 57.5t44.5 64.5
t15.5 95h67q3 -24 3 -44q0 -55 -18.5 -94t-44 -63.5t-68.5 -55.5q-45 -32 -68.5 -57t-30.5 -61q-2 -14 -2 -21q0 -39 27 -64t75 -25q97 0 158 105z" />
    <glyph glyph-name="Agrave" unicode="&#xc0;" horiz-adv-x="658" 
d="M369 777l-76 137h91l58 -137h-73zM436 698l164 -732h-92l-44 210h-303l-114 -210h-97l411 732h75zM448 256l-67 324l-176 -324h243z" />
    <glyph glyph-name="Aacute" unicode="&#xc1;" horiz-adv-x="658" 
d="M457 777h-77l106 137h97zM436 698l164 -732h-92l-44 210h-303l-114 -210h-97l411 732h75zM448 256l-67 324l-176 -324h243z" />
    <glyph glyph-name="Acircumflex" unicode="&#xc2;" horiz-adv-x="658" 
d="M394 914h83l97 -137h-89l-58 84l-87 -84h-93zM436 698l164 -732h-92l-44 210h-303l-114 -210h-97l411 732h75zM448 256l-67 324l-176 -324h243z" />
    <glyph glyph-name="Atilde" unicode="&#xc3;" horiz-adv-x="658" 
d="M249 792q11 56 44 87t79 31q27 0 42 -9.5t31 -27.5q9 -12 17 -18t19 -6q16 0 28.5 12.5t19.5 36.5h70q-11 -56 -44 -87t-79 -31q-27 0 -42 9.5t-31 27.5q-9 12 -17 18t-19 6q-16 0 -28.5 -12.5t-19.5 -36.5h-70zM436 698l164 -732h-92l-44 210h-303l-114 -210h-97
l411 732h75zM448 256l-67 324l-176 -324h243z" />
    <glyph glyph-name="Adieresis" unicode="&#xc4;" horiz-adv-x="658" 
d="M283.5 813q-16.5 17 -16.5 41t16.5 41t39.5 17q24 0 40.5 -17t16.5 -41t-16.5 -41t-40.5 -17q-23 0 -39.5 17zM488.5 813q-16.5 17 -16.5 41t16.5 41t39.5 17q24 0 40.5 -17t16.5 -41t-16.5 -41t-40.5 -17q-23 0 -39.5 17zM436 698l164 -732h-92l-44 210h-303l-114 -210
h-97l411 732h75zM448 256l-67 324l-176 -324h243z" />
    <glyph glyph-name="Aring" unicode="&#xc5;" horiz-adv-x="658" 
d="M351 943q31 30 77 30q45 0 75 -30t30 -76t-30 -76t-75 -30q-46 0 -77 30t-31 76t31 76zM391 828q14 -15 37 -15q22 0 35.5 15t13.5 39t-13.5 39t-35.5 15q-23 0 -37 -15t-14 -39t14 -39zM436 698l164 -732h-92l-44 210h-303l-114 -210h-97l411 732h75zM448 256l-67 324
l-176 -324h243z" />
    <glyph glyph-name="AE" unicode="&#xc6;" horiz-adv-x="1011" 
d="M552 699h479l-14 -79h-360l-42 -236h322l-14 -79h-322l-46 -260h371l-14 -79h-460l38 216h-262l-177 -216h-103zM504 262l59 331l-270 -331h211z" />
    <glyph glyph-name="Ccedilla" unicode="&#xc7;" horiz-adv-x="637" 
d="M299.5 596q-54.5 -32 -92.5 -93.5t-53 -147.5q-7 -38 -7 -77q0 -108 54 -174.5t154 -66.5q54 0 94 22.5t74 72.5l66 -48q-41 -67 -101.5 -98t-133.5 -31h-9l-27 -48q42 -3 68.5 -25.5t26.5 -59.5q0 -56 -43 -81t-102 -25q-46 0 -79 12l5 60q33 -11 76 -11q32 0 50.5 8
t18.5 30q0 35 -78 35q-17 0 -26 -1l-3 38l43 77q-103 25 -161.5 110t-58.5 204q0 44 7 83q19 109 72.5 188t129 120t159.5 41q94 0 159 -49.5t84 -123.5l-76 -36q-18 56 -60.5 91.5t-111.5 35.5q-64 0 -118.5 -32z" />
    <glyph glyph-name="Egrave" unicode="&#xc8;" horiz-adv-x="584" 
d="M342 776l-76 137h91l58 -137h-73zM157 698h445l-13 -79h-357l-41 -235h319l-14 -79h-319l-45 -260h367l-14 -79h-455z" />
    <glyph glyph-name="Eacute" unicode="&#xc9;" horiz-adv-x="584" 
d="M430 776h-77l106 137h97zM157 698h445l-13 -79h-357l-41 -235h319l-14 -79h-319l-45 -260h367l-14 -79h-455z" />
    <glyph glyph-name="Ecircumflex" unicode="&#xca;" horiz-adv-x="584" 
d="M367 913h83l97 -137h-89l-58 84l-87 -84h-93zM157 698h445l-13 -79h-357l-41 -235h319l-14 -79h-319l-45 -260h367l-14 -79h-455z" />
    <glyph glyph-name="Edieresis" unicode="&#xcb;" horiz-adv-x="584" 
d="M256.5 812q-16.5 17 -16.5 41t16.5 41t39.5 17q24 0 40.5 -17t16.5 -41t-16.5 -41t-40.5 -17q-23 0 -39.5 17zM461.5 812q-16.5 17 -16.5 41t16.5 41t39.5 17q24 0 40.5 -17t16.5 -41t-16.5 -41t-40.5 -17q-23 0 -39.5 17zM157 698h445l-13 -79h-357l-41 -235h319
l-14 -79h-319l-45 -260h367l-14 -79h-455z" />
    <glyph glyph-name="Igrave" unicode="&#xcc;" horiz-adv-x="254" 
d="M172 776l-76 137h91l58 -137h-73zM118 -34h-88l127 732h89z" />
    <glyph glyph-name="Iacute" unicode="&#xcd;" horiz-adv-x="254" 
d="M260 776h-77l106 137h97zM118 -34h-88l127 732h89z" />
    <glyph glyph-name="Icircumflex" unicode="&#xce;" horiz-adv-x="254" 
d="M197 913h83l97 -137h-89l-58 84l-87 -84h-93zM118 -34h-88l127 732h89z" />
    <glyph glyph-name="Idieresis" unicode="&#xcf;" horiz-adv-x="254" 
d="M86.5 812q-16.5 17 -16.5 41t16.5 41t39.5 17q24 0 40.5 -17t16.5 -41t-16.5 -41t-40.5 -17q-23 0 -39.5 17zM291.5 812q-16.5 17 -16.5 41t16.5 41t39.5 17q24 0 40.5 -17t16.5 -41t-16.5 -41t-40.5 -17q-23 0 -39.5 17zM118 -34h-88l127 732h89z" />
    <glyph glyph-name="Eth" unicode="&#xd0;" horiz-adv-x="731" 
d="M369 698q95 0 169.5 -38.5t116.5 -110t42 -167.5q0 -42 -7 -81q-19 -108 -77 -183.5t-144 -113.5t-189 -38h-219l58 333h-92l14 80h92l55 319h181zM604 382q0 110 -67.5 174t-187.5 64h-86l-42 -241h130l-14 -80h-130l-44 -254h114q130 0 214.5 68.5t106.5 199.5
q6 36 6 69z" />
    <glyph glyph-name="Ntilde" unicode="&#xd1;" horiz-adv-x="727" 
d="M288 792q11 56 44 87t79 31q27 0 42 -9.5t31 -27.5q9 -12 17 -18t19 -6q16 0 28.5 12.5t19.5 36.5h70q-11 -56 -44 -87t-79 -31q-27 0 -42 9.5t-31 27.5q-9 12 -17 18t-19 6q-16 0 -28.5 -12.5t-19.5 -36.5h-70zM231 698l303 -581l101 581h83l-128 -732h-73l-302 582
l-102 -582h-83l127 732h74z" />
    <glyph glyph-name="Ograve" unicode="&#xd2;" horiz-adv-x="748" 
d="M418 776l-76 137h91l58 -137h-73zM134.5 546.5q53.5 79.5 130.5 121.5t164 42q85 0 150 -41t100.5 -114t35.5 -166q0 -40 -8 -88q-19 -105 -72.5 -183.5t-130 -120.5t-162.5 -42q-85 0 -150.5 40.5t-101.5 113.5t-36 166q0 38 8 86q19 106 72.5 185.5zM147 272
q0 -106 52 -170.5t148 -64.5q101 0 173.5 74t94.5 202q7 39 7 81q0 106 -52 170.5t-146 64.5q-102 0 -175 -74t-95 -202q-7 -39 -7 -81z" />
    <glyph glyph-name="Oacute" unicode="&#xd3;" horiz-adv-x="748" 
d="M506 776h-77l106 137h97zM134.5 546.5q53.5 79.5 130.5 121.5t164 42q85 0 150 -41t100.5 -114t35.5 -166q0 -40 -8 -88q-19 -105 -72.5 -183.5t-130 -120.5t-162.5 -42q-85 0 -150.5 40.5t-101.5 113.5t-36 166q0 38 8 86q19 106 72.5 185.5zM147 272q0 -106 52 -170.5
t148 -64.5q101 0 173.5 74t94.5 202q7 39 7 81q0 106 -52 170.5t-146 64.5q-102 0 -175 -74t-95 -202q-7 -39 -7 -81z" />
    <glyph glyph-name="Ocircumflex" unicode="&#xd4;" horiz-adv-x="748" 
d="M443 913h83l97 -137h-89l-58 84l-87 -84h-93zM134.5 546.5q53.5 79.5 130.5 121.5t164 42q85 0 150 -41t100.5 -114t35.5 -166q0 -40 -8 -88q-19 -105 -72.5 -183.5t-130 -120.5t-162.5 -42q-85 0 -150.5 40.5t-101.5 113.5t-36 166q0 38 8 86q19 106 72.5 185.5z
M147 272q0 -106 52 -170.5t148 -64.5q101 0 173.5 74t94.5 202q7 39 7 81q0 106 -52 170.5t-146 64.5q-102 0 -175 -74t-95 -202q-7 -39 -7 -81z" />
    <glyph glyph-name="Otilde" unicode="&#xd5;" horiz-adv-x="748" 
d="M298 791q11 56 44 87t79 31q27 0 42 -9.5t31 -27.5q9 -12 17 -18t19 -6q16 0 28.5 12.5t19.5 36.5h70q-11 -56 -44 -87t-79 -31q-27 0 -42 9.5t-31 27.5q-9 12 -17 18t-19 6q-16 0 -28.5 -12.5t-19.5 -36.5h-70zM134.5 546.5q53.5 79.5 130.5 121.5t164 42q85 0 150 -41
t100.5 -114t35.5 -166q0 -40 -8 -88q-19 -105 -72.5 -183.5t-130 -120.5t-162.5 -42q-85 0 -150.5 40.5t-101.5 113.5t-36 166q0 38 8 86q19 106 72.5 185.5zM147 272q0 -106 52 -170.5t148 -64.5q101 0 173.5 74t94.5 202q7 39 7 81q0 106 -52 170.5t-146 64.5
q-102 0 -175 -74t-95 -202q-7 -39 -7 -81z" />
    <glyph glyph-name="Odieresis" unicode="&#xd6;" horiz-adv-x="748" 
d="M332.5 812q-16.5 17 -16.5 41t16.5 41t39.5 17q24 0 40.5 -17t16.5 -41t-16.5 -41t-40.5 -17q-23 0 -39.5 17zM537.5 812q-16.5 17 -16.5 41t16.5 41t39.5 17q24 0 40.5 -17t16.5 -41t-16.5 -41t-40.5 -17q-23 0 -39.5 17zM134.5 546.5q53.5 79.5 130.5 121.5t164 42
q85 0 150 -41t100.5 -114t35.5 -166q0 -40 -8 -88q-19 -105 -72.5 -183.5t-130 -120.5t-162.5 -42q-85 0 -150.5 40.5t-101.5 113.5t-36 166q0 38 8 86q19 106 72.5 185.5zM147 272q0 -106 52 -170.5t148 -64.5q101 0 173.5 74t94.5 202q7 39 7 81q0 106 -52 170.5
t-146 64.5q-102 0 -175 -74t-95 -202q-7 -39 -7 -81z" />
    <glyph glyph-name="multiply" unicode="&#xd7;" 
d="M307 382l183 156l46 -54l-184 -157l129 -155l-61 -54l-130 156l-183 -156l-46 54l184 157l-129 155l61 54z" />
    <glyph glyph-name="Oslash" unicode="&#xd8;" horiz-adv-x="762" 
d="M620 733h93l-94 -131q44 -51 68.5 -119.5t24.5 -149.5q0 -110 -43.5 -196t-119 -134t-168.5 -48q-104 0 -184 57l-57 -80h-93l94 132q-44 51 -67.5 119t-23.5 150q0 110 43.5 196t119 133.5t168.5 47.5q102 0 182 -57zM194 138l321 448q-57 43 -134 43q-72 0 -125.5 -37
t-82.5 -104t-29 -155q0 -117 50 -195zM567 528l-321 -447q58 -44 135 -44q72 0 125.5 37.5t82 104.5t28.5 154q0 117 -50 195z" />
    <glyph glyph-name="Ugrave" unicode="&#xd9;" horiz-adv-x="718" 
d="M403 776l-76 137h91l58 -137h-73zM627 698h89l-77 -450q-25 -143 -106 -218t-208 -75q-124 0 -189.5 66.5t-65.5 180.5q0 29 7 74l73 422h89l-72 -408q-7 -44 -7 -71q0 -87 44 -134.5t128 -47.5q180 0 219 225z" />
    <glyph glyph-name="Uacute" unicode="&#xda;" horiz-adv-x="718" 
d="M491 776h-77l106 137h97zM627 698h89l-77 -450q-25 -143 -106 -218t-208 -75q-124 0 -189.5 66.5t-65.5 180.5q0 29 7 74l73 422h89l-72 -408q-7 -44 -7 -71q0 -87 44 -134.5t128 -47.5q180 0 219 225z" />
    <glyph glyph-name="Ucircumflex" unicode="&#xdb;" horiz-adv-x="718" 
d="M428 913h83l97 -137h-89l-58 84l-87 -84h-93zM627 698h89l-77 -450q-25 -143 -106 -218t-208 -75q-124 0 -189.5 66.5t-65.5 180.5q0 29 7 74l73 422h89l-72 -408q-7 -44 -7 -71q0 -87 44 -134.5t128 -47.5q180 0 219 225z" />
    <glyph glyph-name="Udieresis" unicode="&#xdc;" horiz-adv-x="718" 
d="M317.5 812q-16.5 17 -16.5 41t16.5 41t39.5 17q24 0 40.5 -17t16.5 -41t-16.5 -41t-40.5 -17q-23 0 -39.5 17zM522.5 812q-16.5 17 -16.5 41t16.5 41t39.5 17q24 0 40.5 -17t16.5 -41t-16.5 -41t-40.5 -17q-23 0 -39.5 17zM627 698h89l-77 -450q-25 -143 -106 -218
t-208 -75q-124 0 -189.5 66.5t-65.5 180.5q0 29 7 74l73 422h89l-72 -408q-7 -44 -7 -71q0 -87 44 -134.5t128 -47.5q180 0 219 225z" />
    <glyph glyph-name="Yacute" unicode="&#xdd;" horiz-adv-x="604" 
d="M435 777h-77l106 137h97zM326 367l248 331h102l-325 -425l-53 -307h-88l55 314l-185 418h99z" />
    <glyph glyph-name="Thorn" unicode="&#xde;" horiz-adv-x="587" 
d="M347 560q71 0 122.5 -25.5t78.5 -71t27 -103.5q0 -25 -4 -46q-17 -97 -91.5 -152t-184.5 -55h-153l-25 -141h-89l129 732h89l-24 -138h125zM481 358q0 55 -37 89.5t-117 34.5h-119l-52 -297h136q81 0 127.5 37t58.5 104q3 17 3 32z" />
    <glyph glyph-name="germandbls" unicode="&#xdf;" horiz-adv-x="587" 
d="M427 358q53 -22 80.5 -65t27.5 -99q0 -23 -4 -42q-17 -94 -83.5 -145.5t-170.5 -51.5q-51 0 -89 12l9 80q18 -6 33 -9t38 -3q73 0 117.5 32.5t56.5 97.5q3 18 3 35q0 56 -35.5 89.5t-109.5 33.5h-41l13 71h25q73 0 115 34t52 92q3 17 3 33q0 47 -27 75.5t-80 28.5
q-62 0 -105 -43t-58 -128l-93 -520h-85l96 540q20 114 88.5 173t159.5 59q59 0 102.5 -25t67 -68t23.5 -95q0 -22 -4 -41q-19 -112 -125 -151z" />
    <glyph glyph-name="agrave" unicode="&#xe0;" horiz-adv-x="594" 
d="M307 558l-74 154h91l55 -154h-72zM558 486l-91 -520h-73q5 41 8 70q-59 -81 -158 -81q-58 0 -106 29t-75.5 82t-27.5 123q0 31 6 64q13 77 52 132.5t92.5 83.5t110.5 28t99.5 -28.5t63.5 -77.5q17 59 25 95h74zM362 75q48 40 64 135q5 32 5 53q0 76 -40 114.5t-99 38.5
q-62 0 -106 -43t-58 -126q-5 -25 -5 -57q0 -72 35.5 -113.5t97.5 -41.5q58 0 106 40z" />
    <glyph glyph-name="aacute" unicode="&#xe1;" horiz-adv-x="594" 
d="M369 558h-78l109 154h97zM558 486l-91 -520h-73q5 41 8 70q-59 -81 -158 -81q-58 0 -106 29t-75.5 82t-27.5 123q0 31 6 64q13 77 52 132.5t92.5 83.5t110.5 28t99.5 -28.5t63.5 -77.5q17 59 25 95h74zM362 75q48 40 64 135q5 32 5 53q0 76 -40 114.5t-99 38.5
q-62 0 -106 -43t-58 -126q-5 -25 -5 -57q0 -72 35.5 -113.5t97.5 -41.5q58 0 106 40z" />
    <glyph glyph-name="acircumflex" unicode="&#xe2;" horiz-adv-x="594" 
d="M323 712h79l88 -154h-83l-53 93l-84 -93h-89zM558 486l-91 -520h-73q5 41 8 70q-59 -81 -158 -81q-58 0 -106 29t-75.5 82t-27.5 123q0 31 6 64q13 77 52 132.5t92.5 83.5t110.5 28t99.5 -28.5t63.5 -77.5q17 59 25 95h74zM362 75q48 40 64 135q5 32 5 53q0 76 -40 114.5
t-99 38.5q-62 0 -106 -43t-58 -126q-5 -25 -5 -57q0 -72 35.5 -113.5t97.5 -41.5q58 0 106 40z" />
    <glyph glyph-name="atilde" unicode="&#xe3;" horiz-adv-x="594" 
d="M175 578q11 60 44 93.5t79 33.5q27 0 42 -10t31 -30q9 -13 17 -19.5t19 -6.5q16 0 28.5 13.5t19.5 39.5h70q-11 -60 -44 -93.5t-79 -33.5q-27 0 -42 10t-31 30q-9 13 -17 19.5t-19 6.5q-16 0 -28.5 -14t-19.5 -39h-70zM558 486l-91 -520h-73q5 41 8 70q-59 -81 -158 -81
q-58 0 -106 29t-75.5 82t-27.5 123q0 31 6 64q13 77 52 132.5t92.5 83.5t110.5 28t99.5 -28.5t63.5 -77.5q17 59 25 95h74zM362 75q48 40 64 135q5 32 5 53q0 76 -40 114.5t-99 38.5q-62 0 -106 -43t-58 -126q-5 -25 -5 -57q0 -72 35.5 -113.5t97.5 -41.5q58 0 106 40z" />
    <glyph glyph-name="adieresis" unicode="&#xe4;" horiz-adv-x="594" 
d="M207.5 594q-16.5 17 -16.5 41t16.5 41t39.5 17q24 0 40.5 -17t16.5 -41t-16.5 -41t-40.5 -17q-23 0 -39.5 17zM412.5 594q-16.5 17 -16.5 41t16.5 41t39.5 17q24 0 40.5 -17t16.5 -41t-16.5 -41t-40.5 -17q-23 0 -39.5 17zM558 486l-91 -520h-73q5 41 8 70
q-59 -81 -158 -81q-58 0 -106 29t-75.5 82t-27.5 123q0 31 6 64q13 77 52 132.5t92.5 83.5t110.5 28t99.5 -28.5t63.5 -77.5q17 59 25 95h74zM362 75q48 40 64 135q5 32 5 53q0 76 -40 114.5t-99 38.5q-62 0 -106 -43t-58 -126q-5 -25 -5 -57q0 -72 35.5 -113.5t97.5 -41.5
q58 0 106 40z" />
    <glyph glyph-name="aring" unicode="&#xe5;" horiz-adv-x="594" 
d="M277 729q31 30 77 30q45 0 75 -30t30 -76t-30 -76t-75 -30q-46 0 -77 30t-31 76t31 76zM317 614q14 -15 37 -15q22 0 35.5 15t13.5 39t-13.5 39t-35.5 15q-23 0 -37 -15t-14 -39t14 -39zM558 486l-91 -520h-73q5 41 8 70q-59 -81 -158 -81q-58 0 -106 29t-75.5 82
t-27.5 123q0 31 6 64q13 77 52 132.5t92.5 83.5t110.5 28t99.5 -28.5t63.5 -77.5q17 59 25 95h74zM362 75q48 40 64 135q5 32 5 53q0 76 -40 114.5t-99 38.5q-62 0 -106 -43t-58 -126q-5 -25 -5 -57q0 -72 35.5 -113.5t97.5 -41.5q58 0 106 40z" />
    <glyph glyph-name="ae" unicode="&#xe6;" horiz-adv-x="868" 
d="M690.5 51.5q34.5 18.5 65.5 59.5l60 -43q-34 -57 -89.5 -85t-120.5 -28q-69 0 -118 31t-72 88q-28 -58 -83 -88.5t-123 -30.5q-53 0 -95 19t-65.5 54t-23.5 79q0 14 3 29q14 76 82.5 115t174.5 39q57 0 114 -10q3 21 3 39q0 51 -26.5 76t-82.5 25q-46 0 -80 -18.5
t-61 -58.5l-61 43q33 55 88 83t121 28q65 0 108.5 -26t60.5 -75q39 49 93.5 75t114.5 26q73 0 118.5 -37.5t45.5 -104.5q0 -78 -67.5 -120t-198.5 -42q-48 0 -103 6q-4 -80 35.5 -123t105.5 -43q42 0 76.5 18.5zM556 382.5q-51 -36.5 -71 -113.5q52 -5 86 -5q87 0 136 23
t49 68q0 32 -22 48t-63 16q-64 0 -115 -36.5zM388 212q-48 8 -98 8q-84 0 -130 -29t-46 -83q0 -36 27 -58t74 -22q58 0 105.5 34t57.5 93z" />
    <glyph glyph-name="ccedilla" unicode="&#xe7;" horiz-adv-x="482" 
d="M381 103l62 -45q-60 -99 -181 -103l-27 -48q42 -3 68.5 -25.5t26.5 -59.5q0 -56 -43 -81t-102 -25q-46 0 -79 12l5 60q33 -11 76 -11q32 0 50.5 8t18.5 30q0 35 -78 35q-17 0 -26 -1l-3 38l43 77q-73 20 -115 81.5t-42 145.5q0 30 6 61q13 78 54 133.5t97 83.5t116 28
q65 0 113.5 -32t64.5 -85l-70 -33q-12 32 -42 51t-70 19q-62 0 -111.5 -43t-63.5 -128q-5 -30 -5 -53q0 -71 36.5 -114.5t100.5 -43.5q77 0 120 68z" />
    <glyph glyph-name="egrave" unicode="&#xe8;" horiz-adv-x="510" 
d="M285 558l-74 154h91l55 -154h-72zM332.5 51.5q34.5 18.5 65.5 59.5l60 -43q-34 -57 -89.5 -85t-120.5 -28q-64 0 -112.5 27t-75.5 77.5t-27 117.5q0 30 6 63q14 82 55 140t99 87.5t124 29.5q75 0 121 -37.5t46 -104.5q0 -80 -70 -116t-216 -36q-21 0 -75 2q-1 -9 -1 -25
q0 -72 36 -109.5t98 -37.5q42 0 76.5 18.5zM204 384q-48 -35 -69 -108q46 -3 86 -3q87 0 132 19t45 63q0 32 -22 48t-63 16q-61 0 -109 -35z" />
    <glyph glyph-name="eacute" unicode="&#xe9;" horiz-adv-x="510" 
d="M347 558h-78l109 154h97zM332.5 51.5q34.5 18.5 65.5 59.5l60 -43q-34 -57 -89.5 -85t-120.5 -28q-64 0 -112.5 27t-75.5 77.5t-27 117.5q0 30 6 63q14 82 55 140t99 87.5t124 29.5q75 0 121 -37.5t46 -104.5q0 -80 -70 -116t-216 -36q-21 0 -75 2q-1 -9 -1 -25
q0 -72 36 -109.5t98 -37.5q42 0 76.5 18.5zM204 384q-48 -35 -69 -108q46 -3 86 -3q87 0 132 19t45 63q0 32 -22 48t-63 16q-61 0 -109 -35z" />
    <glyph glyph-name="ecircumflex" unicode="&#xea;" horiz-adv-x="510" 
d="M301 712h79l88 -154h-83l-53 93l-84 -93h-89zM332.5 51.5q34.5 18.5 65.5 59.5l60 -43q-34 -57 -89.5 -85t-120.5 -28q-64 0 -112.5 27t-75.5 77.5t-27 117.5q0 30 6 63q14 82 55 140t99 87.5t124 29.5q75 0 121 -37.5t46 -104.5q0 -80 -70 -116t-216 -36q-21 0 -75 2
q-1 -9 -1 -25q0 -72 36 -109.5t98 -37.5q42 0 76.5 18.5zM204 384q-48 -35 -69 -108q46 -3 86 -3q87 0 132 19t45 63q0 32 -22 48t-63 16q-61 0 -109 -35z" />
    <glyph glyph-name="edieresis" unicode="&#xeb;" horiz-adv-x="510" 
d="M185.5 594q-16.5 17 -16.5 41t16.5 41t39.5 17q24 0 40.5 -17t16.5 -41t-16.5 -41t-40.5 -17q-23 0 -39.5 17zM390.5 594q-16.5 17 -16.5 41t16.5 41t39.5 17q24 0 40.5 -17t16.5 -41t-16.5 -41t-40.5 -17q-23 0 -39.5 17zM332.5 51.5q34.5 18.5 65.5 59.5l60 -43
q-34 -57 -89.5 -85t-120.5 -28q-64 0 -112.5 27t-75.5 77.5t-27 117.5q0 30 6 63q14 82 55 140t99 87.5t124 29.5q75 0 121 -37.5t46 -104.5q0 -80 -70 -116t-216 -36q-21 0 -75 2q-1 -9 -1 -25q0 -72 36 -109.5t98 -37.5q42 0 76.5 18.5zM204 384q-48 -35 -69 -108
q46 -3 86 -3q87 0 132 19t45 63q0 32 -22 48t-63 16q-61 0 -109 -35z" />
    <glyph glyph-name="igrave" unicode="&#xec;" horiz-adv-x="229" 
d="M137 559l-74 154h91l55 -154h-72zM19 -34l92 519h85l-92 -519h-85z" />
    <glyph glyph-name="iacute" unicode="&#xed;" horiz-adv-x="229" 
d="M199 559h-78l109 154h97zM19 -34l92 519h85l-92 -519h-85z" />
    <glyph glyph-name="icircumflex" unicode="&#xee;" horiz-adv-x="229" 
d="M153 713h79l88 -154h-83l-53 93l-84 -93h-89zM19 -34l92 519h85l-92 -519h-85z" />
    <glyph glyph-name="idieresis" unicode="&#xef;" horiz-adv-x="229" 
d="M37.5 595q-16.5 17 -16.5 41t16.5 41t39.5 17q24 0 40.5 -17t16.5 -41t-16.5 -41t-40.5 -17q-23 0 -39.5 17zM242.5 595q-16.5 17 -16.5 41t16.5 41t39.5 17q24 0 40.5 -17t16.5 -41t-16.5 -41t-40.5 -17q-23 0 -39.5 17zM19 -34l92 519h85l-92 -519h-85z" />
    <glyph glyph-name="eth" unicode="&#xf0;" horiz-adv-x="585" 
d="M525 738l32 -63l-129 -64q55 -65 83 -146.5t28 -165.5q0 -46 -7 -84q-15 -84 -56 -142.5t-99.5 -88t-124.5 -29.5t-115 29.5t-75.5 82t-26.5 119.5q0 34 5 59q14 77 55 134.5t100 88t123 30.5q71 0 114 -41q-25 65 -74 119l-146 -72l-29 62l120 60q-42 34 -100 57l49 54
q71 -29 124 -74zM448 270q0 67 -34.5 107.5t-97.5 40.5q-68 0 -120.5 -49t-67.5 -136q-4 -23 -4 -49q0 -67 34.5 -108t96.5 -41q69 0 121 49t67 137q5 28 5 49z" />
    <glyph glyph-name="ntilde" unicode="&#xf1;" horiz-adv-x="568" 
d="M169 579q11 60 44 93.5t79 33.5q27 0 42 -10t31 -30q9 -13 17 -19.5t19 -6.5q16 0 28.5 13.5t19.5 39.5h70q-11 -60 -44 -93.5t-79 -33.5q-27 0 -42 10t-31 30q-9 13 -17 19.5t-19 6.5q-16 0 -28.5 -14t-19.5 -39h-70zM461.5 451q45.5 -46 45.5 -129q0 -32 -5 -57
l-53 -299h-84l51 290q5 28 5 49q0 53 -26 82t-76 29q-57 0 -103.5 -38.5t-59.5 -113.5l-52 -298h-84l91 520h74q-2 -13 -7 -53l-3 -23q60 87 166 87q75 0 120.5 -46z" />
    <glyph glyph-name="ograve" unicode="&#xf2;" horiz-adv-x="579" 
d="M311 558l-74 154h91l55 -154h-72zM94 379q41 57 99 87.5t121 30.5q62 0 111 -30.5t76.5 -84t27.5 -121.5q0 -24 -5 -57q-14 -77 -54.5 -133.5t-98 -86t-119.5 -29.5q-63 0 -112.5 30t-77 83t-27.5 120q0 24 5 57q13 77 54 134zM123 185q0 -69 36.5 -109.5t98.5 -40.5
q66 0 115 45.5t64 131.5q4 24 4 50q0 71 -35.5 113t-97.5 42q-65 0 -115 -46.5t-65 -133.5q-5 -30 -5 -52z" />
    <glyph glyph-name="oacute" unicode="&#xf3;" horiz-adv-x="579" 
d="M373 558h-78l109 154h97zM94 379q41 57 99 87.5t121 30.5q62 0 111 -30.5t76.5 -84t27.5 -121.5q0 -24 -5 -57q-14 -77 -54.5 -133.5t-98 -86t-119.5 -29.5q-63 0 -112.5 30t-77 83t-27.5 120q0 24 5 57q13 77 54 134zM123 185q0 -69 36.5 -109.5t98.5 -40.5
q66 0 115 45.5t64 131.5q4 24 4 50q0 71 -35.5 113t-97.5 42q-65 0 -115 -46.5t-65 -133.5q-5 -30 -5 -52z" />
    <glyph glyph-name="ocircumflex" unicode="&#xf4;" horiz-adv-x="579" 
d="M327 712h79l88 -154h-83l-53 93l-84 -93h-89zM94 379q41 57 99 87.5t121 30.5q62 0 111 -30.5t76.5 -84t27.5 -121.5q0 -24 -5 -57q-14 -77 -54.5 -133.5t-98 -86t-119.5 -29.5q-63 0 -112.5 30t-77 83t-27.5 120q0 24 5 57q13 77 54 134zM123 185q0 -69 36.5 -109.5
t98.5 -40.5q66 0 115 45.5t64 131.5q4 24 4 50q0 71 -35.5 113t-97.5 42q-65 0 -115 -46.5t-65 -133.5q-5 -30 -5 -52z" />
    <glyph glyph-name="otilde" unicode="&#xf5;" horiz-adv-x="579" 
d="M179 578q11 60 44 93.5t79 33.5q27 0 42 -10t31 -30q9 -13 17 -19.5t19 -6.5q16 0 28.5 13.5t19.5 39.5h70q-11 -60 -44 -93.5t-79 -33.5q-27 0 -42 10t-31 30q-9 13 -17 19.5t-19 6.5q-16 0 -28.5 -14t-19.5 -39h-70zM94 379q41 57 99 87.5t121 30.5q62 0 111 -30.5
t76.5 -84t27.5 -121.5q0 -24 -5 -57q-14 -77 -54.5 -133.5t-98 -86t-119.5 -29.5q-63 0 -112.5 30t-77 83t-27.5 120q0 24 5 57q13 77 54 134zM123 185q0 -69 36.5 -109.5t98.5 -40.5q66 0 115 45.5t64 131.5q4 24 4 50q0 71 -35.5 113t-97.5 42q-65 0 -115 -46.5
t-65 -133.5q-5 -30 -5 -52z" />
    <glyph glyph-name="odieresis" unicode="&#xf6;" horiz-adv-x="579" 
d="M211.5 594q-16.5 17 -16.5 41t16.5 41t39.5 17q24 0 40.5 -17t16.5 -41t-16.5 -41t-40.5 -17q-23 0 -39.5 17zM416.5 594q-16.5 17 -16.5 41t16.5 41t39.5 17q24 0 40.5 -17t16.5 -41t-16.5 -41t-40.5 -17q-23 0 -39.5 17zM94 379q41 57 99 87.5t121 30.5q62 0 111 -30.5
t76.5 -84t27.5 -121.5q0 -24 -5 -57q-14 -77 -54.5 -133.5t-98 -86t-119.5 -29.5q-63 0 -112.5 30t-77 83t-27.5 120q0 24 5 57q13 77 54 134zM123 185q0 -69 36.5 -109.5t98.5 -40.5q66 0 115 45.5t64 131.5q4 24 4 50q0 71 -35.5 113t-97.5 42q-65 0 -115 -46.5
t-65 -133.5q-5 -30 -5 -52z" />
    <glyph glyph-name="divide" unicode="&#xf7;" 
d="M291.5 472.5q-16.5 17.5 -16.5 40.5q0 24 16.5 41t39.5 17q24 0 40.5 -17t16.5 -41t-16.5 -41t-40.5 -17q-23 0 -39.5 17.5zM526 290h-468l13 76h468zM226.5 102.5q-16.5 17.5 -16.5 40.5q0 24 16.5 41t39.5 17q24 0 40.5 -17t16.5 -41t-16.5 -41t-40.5 -17
q-23 0 -39.5 17.5z" />
    <glyph glyph-name="oslash" unicode="&#xf8;" horiz-adv-x="586" 
d="M491 520h96l-97 -113q42 -63 42 -146q0 -24 -5 -57q-14 -77 -54.5 -133.5t-98 -86t-119.5 -29.5q-71 0 -123 37l-52 -60h-96l96 112q-42 59 -42 143q0 25 5 58q13 77 54 134t99 87.5t121 30.5q70 0 122 -37zM126 186q0 -40 13 -74l246 285q-31 20 -74 20
q-65 0 -115 -46.5t-65 -133.5q-5 -30 -5 -51zM444 264q0 43 -13 75l-245 -284q32 -20 75 -20q66 0 115 45.5t64 131.5q4 24 4 52z" />
    <glyph glyph-name="ugrave" unicode="&#xf9;" horiz-adv-x="568" 
d="M302 559l-74 154h91l55 -154h-72zM449 486h85l-91 -520h-74l8 75q-60 -86 -164 -86q-76 0 -121.5 46t-45.5 129q0 32 5 57l53 299h84l-50 -290q-4 -23 -4 -48q0 -54 25.5 -83t75.5 -29q57 0 103 38.5t59 113.5z" />
    <glyph glyph-name="uacute" unicode="&#xfa;" horiz-adv-x="568" 
d="M364 559h-78l109 154h97zM449 486h85l-91 -520h-74l8 75q-60 -86 -164 -86q-76 0 -121.5 46t-45.5 129q0 32 5 57l53 299h84l-50 -290q-4 -23 -4 -48q0 -54 25.5 -83t75.5 -29q57 0 103 38.5t59 113.5z" />
    <glyph glyph-name="ucircumflex" unicode="&#xfb;" horiz-adv-x="568" 
d="M318 713h79l88 -154h-83l-53 93l-84 -93h-89zM449 486h85l-91 -520h-74l8 75q-60 -86 -164 -86q-76 0 -121.5 46t-45.5 129q0 32 5 57l53 299h84l-50 -290q-4 -23 -4 -48q0 -54 25.5 -83t75.5 -29q57 0 103 38.5t59 113.5z" />
    <glyph glyph-name="udieresis" unicode="&#xfc;" horiz-adv-x="568" 
d="M202.5 595q-16.5 17 -16.5 41t16.5 41t39.5 17q24 0 40.5 -17t16.5 -41t-16.5 -41t-40.5 -17q-23 0 -39.5 17zM407.5 595q-16.5 17 -16.5 41t16.5 41t39.5 17q24 0 40.5 -17t16.5 -41t-16.5 -41t-40.5 -17q-23 0 -39.5 17zM449 486h85l-91 -520h-74l8 75
q-60 -86 -164 -86q-76 0 -121.5 46t-45.5 129q0 32 5 57l53 299h84l-50 -290q-4 -23 -4 -48q0 -54 25.5 -83t75.5 -29q57 0 103 38.5t59 113.5z" />
    <glyph glyph-name="yacute" unicode="&#xfd;" horiz-adv-x="509" 
d="M367 713h97l-128 -154h-78zM448 485h93l-349 -616q-43 -78 -92 -115.5t-109 -37.5q-58 0 -101 35l40 68q27 -23 63 -23q31 0 61.5 23t66.5 81l41 68l-120 517h92l88 -415z" />
    <glyph glyph-name="thorn" unicode="&#xfe;" horiz-adv-x="593" 
d="M440 468q48 -29 75.5 -82t27.5 -123q0 -31 -6 -64q-13 -77 -52 -132.5t-92.5 -83.5t-110.5 -28q-56 0 -99 27.5t-63 76.5l-58 -334h-84l175 1002h84l-53 -300q59 70 150 70q58 0 106 -29zM392 79q44 43 58 126q5 25 5 57q0 72 -35.5 113.5t-97.5 41.5q-58 0 -106 -40
t-64 -135q-5 -32 -5 -53q0 -76 40 -114.5t99 -38.5q62 0 106 43z" />
    <glyph glyph-name="ydieresis" unicode="&#xff;" horiz-adv-x="509" 
d="M174.5 595q-16.5 17 -16.5 41t16.5 41t39.5 17q24 0 40.5 -17t16.5 -41t-16.5 -41t-40.5 -17q-23 0 -39.5 17zM379.5 595q-16.5 17 -16.5 41t16.5 41t39.5 17q24 0 40.5 -17t16.5 -41t-16.5 -41t-40.5 -17q-23 0 -39.5 17zM448 485h93l-349 -616q-43 -78 -92 -115.5
t-109 -37.5q-58 0 -101 35l40 68q27 -23 63 -23q31 0 61.5 23t66.5 81l41 68l-120 517h92l88 -415z" />
    <glyph glyph-name="Amacron" unicode="&#x100;" horiz-adv-x="658" 
d="M579 817h-320l13 74h320zM436 698l164 -732h-92l-44 210h-303l-114 -210h-97l411 732h75zM448 256l-67 324l-176 -324h243z" />
    <glyph glyph-name="amacron" unicode="&#x101;" horiz-adv-x="594" 
d="M504 598h-320l13 74h320zM558 486l-91 -520h-73q5 41 8 70q-59 -81 -158 -81q-58 0 -106 29t-75.5 82t-27.5 123q0 31 6 64q13 77 52 132.5t92.5 83.5t110.5 28t99.5 -28.5t63.5 -77.5q17 59 25 95h74zM362 75q48 40 64 135q5 32 5 53q0 76 -40 114.5t-99 38.5
q-62 0 -106 -43t-58 -126q-5 -25 -5 -57q0 -72 35.5 -113.5t97.5 -41.5q58 0 106 40z" />
    <glyph glyph-name="Abreve" unicode="&#x102;" horiz-adv-x="658" 
d="M319.5 807.5q-36.5 30.5 -36.5 81.5q0 9 2 25h78q-1 -5 -1 -14q0 -30 16 -47t49 -17q67 0 85 78h78q-12 -69 -55.5 -103t-111.5 -34q-67 0 -103.5 30.5zM436 698l164 -732h-92l-44 210h-303l-114 -210h-97l411 732h75zM448 256l-67 324l-176 -324h243z" />
    <glyph glyph-name="abreve" unicode="&#x103;" horiz-adv-x="594" 
d="M243 590.5q-38 33.5 -38 90.5q0 14 3 30h78q-1 -6 -1 -18q0 -33 16.5 -51.5t51.5 -18.5q36 0 58 21t32 67h78q-13 -76 -59.5 -115t-115.5 -39q-65 0 -103 33.5zM558 486l-91 -520h-73q5 41 8 70q-59 -81 -158 -81q-58 0 -106 29t-75.5 82t-27.5 123q0 31 6 64
q13 77 52 132.5t92.5 83.5t110.5 28t99.5 -28.5t63.5 -77.5q17 59 25 95h74zM362 75q48 40 64 135q5 32 5 53q0 76 -40 114.5t-99 38.5q-62 0 -106 -43t-58 -126q-5 -25 -5 -57q0 -72 35.5 -113.5t97.5 -41.5q58 0 106 40z" />
    <glyph glyph-name="Aogonek" unicode="&#x104;" horiz-adv-x="658" 
d="M618 -235q-23 -23 -52.5 -35t-61.5 -12q-48 0 -81 25.5t-33 73.5q0 54 31 92.5t85 68.5l-42 198h-303l-114 -210h-97l411 732h75l164 -732q-65 -32 -97.5 -60.5t-38.5 -64.5q-1 -5 -1 -14q0 -22 13 -34t34 -12q37 0 79 34zM381 580l-176 -324h243z" />
    <glyph glyph-name="aogonek" unicode="&#x105;" horiz-adv-x="594" 
d="M456 -185l29 -50q-23 -23 -52.5 -35t-61.5 -12q-48 0 -81 25.5t-33 73.5q0 60 37.5 100t102.5 74q4 29 5 45q-59 -81 -158 -81q-58 0 -106 29t-75.5 82t-27.5 123q0 31 6 64q13 77 52 132.5t92.5 83.5t110.5 28t99.5 -28.5t63.5 -77.5q17 59 25 95h74l-91 -520
q-65 -32 -97.5 -60.5t-38.5 -64.5q-1 -5 -1 -14q0 -22 13 -34t34 -12q37 0 79 34zM362 75q48 40 64 135q5 32 5 53q0 76 -40 114.5t-99 38.5q-62 0 -106 -43t-58 -126q-5 -25 -5 -57q0 -72 35.5 -113.5t97.5 -41.5q58 0 106 40z" />
    <glyph glyph-name="Cacute" unicode="&#x106;" horiz-adv-x="637" 
d="M480 776h-77l106 137h97zM299.5 596q-54.5 -32 -92.5 -93.5t-53 -147.5q-7 -38 -7 -77q0 -108 54 -174.5t154 -66.5q54 0 94 22.5t74 72.5l66 -48q-41 -67 -101.5 -98t-133.5 -31q-90 0 -158 42t-104.5 115.5t-36.5 165.5q0 44 7 83q19 109 72.5 188t129 120t159.5 41
q94 0 159 -49.5t84 -123.5l-76 -36q-18 56 -60.5 91.5t-111.5 35.5q-64 0 -118.5 -32z" />
    <glyph glyph-name="cacute" unicode="&#x107;" horiz-adv-x="482" 
d="M364 559h-78l109 154h97zM381 103l62 -45q-62 -103 -185 -103q-68 0 -118.5 30.5t-77.5 84.5t-27 121q0 30 6 61q13 78 54 133.5t97 83.5t116 28q65 0 113.5 -32t64.5 -85l-70 -33q-12 32 -42 51t-70 19q-62 0 -111.5 -43t-63.5 -128q-5 -30 -5 -53q0 -71 36.5 -114.5
t100.5 -43.5q77 0 120 68z" />
    <glyph glyph-name="Ccircumflex" unicode="&#x108;" horiz-adv-x="637" 
d="M417 913h83l97 -137h-89l-58 84l-87 -84h-93zM299.5 596q-54.5 -32 -92.5 -93.5t-53 -147.5q-7 -38 -7 -77q0 -108 54 -174.5t154 -66.5q54 0 94 22.5t74 72.5l66 -48q-41 -67 -101.5 -98t-133.5 -31q-90 0 -158 42t-104.5 115.5t-36.5 165.5q0 44 7 83q19 109 72.5 188
t129 120t159.5 41q94 0 159 -49.5t84 -123.5l-76 -36q-18 56 -60.5 91.5t-111.5 35.5q-64 0 -118.5 -32z" />
    <glyph glyph-name="ccircumflex" unicode="&#x109;" horiz-adv-x="482" 
d="M318 713h79l88 -154h-83l-53 93l-84 -93h-89zM381 103l62 -45q-62 -103 -185 -103q-68 0 -118.5 30.5t-77.5 84.5t-27 121q0 30 6 61q13 78 54 133.5t97 83.5t116 28q65 0 113.5 -32t64.5 -85l-70 -33q-12 32 -42 51t-70 19q-62 0 -111.5 -43t-63.5 -128q-5 -30 -5 -53
q0 -71 36.5 -114.5t100.5 -43.5q77 0 120 68z" />
    <glyph glyph-name="Cdotaccent" unicode="&#x10a;" horiz-adv-x="637" 
d="M409.5 812q-16.5 17 -16.5 41t16.5 41t39.5 17q24 0 40.5 -17t16.5 -41t-16.5 -41t-40.5 -17q-23 0 -39.5 17zM299.5 596q-54.5 -32 -92.5 -93.5t-53 -147.5q-7 -38 -7 -77q0 -108 54 -174.5t154 -66.5q54 0 94 22.5t74 72.5l66 -48q-41 -67 -101.5 -98t-133.5 -31
q-90 0 -158 42t-104.5 115.5t-36.5 165.5q0 44 7 83q19 109 72.5 188t129 120t159.5 41q94 0 159 -49.5t84 -123.5l-76 -36q-18 56 -60.5 91.5t-111.5 35.5q-64 0 -118.5 -32z" />
    <glyph glyph-name="cdotaccent" unicode="&#x10b;" horiz-adv-x="482" 
d="M305.5 595.5q-16.5 17.5 -16.5 40.5t16.5 40.5t39.5 17.5q24 0 40.5 -17t16.5 -41q0 -23 -17 -40.5t-40 -17.5t-39.5 17.5zM381 103l62 -45q-62 -103 -185 -103q-68 0 -118.5 30.5t-77.5 84.5t-27 121q0 30 6 61q13 78 54 133.5t97 83.5t116 28q65 0 113.5 -32t64.5 -85
l-70 -33q-12 32 -42 51t-70 19q-62 0 -111.5 -43t-63.5 -128q-5 -30 -5 -53q0 -71 36.5 -114.5t100.5 -43.5q77 0 120 68z" />
    <glyph glyph-name="Ccaron" unicode="&#x10c;" horiz-adv-x="637" 
d="M385 913l59 -84l86 84h94l-147 -137h-83l-97 137h88zM299.5 596q-54.5 -32 -92.5 -93.5t-53 -147.5q-7 -38 -7 -77q0 -108 54 -174.5t154 -66.5q54 0 94 22.5t74 72.5l66 -48q-41 -67 -101.5 -98t-133.5 -31q-90 0 -158 42t-104.5 115.5t-36.5 165.5q0 44 7 83
q19 109 72.5 188t129 120t159.5 41q94 0 159 -49.5t84 -123.5l-76 -36q-18 56 -60.5 91.5t-111.5 35.5q-64 0 -118.5 -32z" />
    <glyph glyph-name="ccaron" unicode="&#x10d;" horiz-adv-x="482" 
d="M288 713l53 -93l84 93h89l-142 -154h-79l-88 154h83zM381 103l62 -45q-62 -103 -185 -103q-68 0 -118.5 30.5t-77.5 84.5t-27 121q0 30 6 61q13 78 54 133.5t97 83.5t116 28q65 0 113.5 -32t64.5 -85l-70 -33q-12 32 -42 51t-70 19q-62 0 -111.5 -43t-63.5 -128
q-5 -30 -5 -53q0 -71 36.5 -114.5t100.5 -43.5q77 0 120 68z" />
    <glyph glyph-name="Dcaron" unicode="&#x10e;" horiz-adv-x="700" 
d="M314 913l59 -84l86 84h94l-147 -137h-83l-97 137h88zM338 698q95 0 169.5 -38.5t116.5 -110t42 -167.5q0 -42 -7 -81q-19 -108 -77 -183.5t-144 -113.5t-189 -38h-219l127 732h181zM573 382q0 110 -67.5 174t-187.5 64h-86l-100 -575h114q130 0 214.5 68.5t106.5 199.5
q6 36 6 69z" />
    <glyph glyph-name="dcaron" unicode="&#x10f;" horiz-adv-x="644" 
d="M740.5 723.5q14.5 -14.5 14.5 -43.5q0 -5 -2 -21q-10 -51 -45 -82t-87 -39l4 44q58 14 72 56q-21 0 -32 12.5t-11 32.5q0 23 14.5 39t35.5 16q22 0 36.5 -14.5zM516 727h84l-134 -761h-73q5 38 8 69q-60 -80 -157 -80q-58 0 -106 29t-75.5 82t-27.5 123q0 31 6 64
q13 77 52 132.5t92.5 83.5t110.5 28q56 0 99 -27.5t63 -76.5zM431 263q0 76 -40 114.5t-99 38.5q-62 0 -106 -43t-58 -126q-5 -25 -5 -57q0 -72 35.5 -113.5t97.5 -41.5q58 0 106 40t64 135q5 32 5 53z" />
    <glyph glyph-name="Dcroat" unicode="&#x110;" horiz-adv-x="731" 
d="M369 698q95 0 169.5 -38.5t116.5 -110t42 -167.5q0 -42 -7 -81q-19 -108 -77 -183.5t-144 -113.5t-189 -38h-219l58 333h-92l14 80h92l55 319h181zM604 382q0 110 -67.5 174t-187.5 64h-86l-42 -241h130l-14 -80h-130l-44 -254h114q130 0 214.5 68.5t106.5 199.5
q6 36 6 69z" />
    <glyph glyph-name="dcroat" unicode="&#x111;" horiz-adv-x="607" 
d="M584 636h87l-13 -72h-87l-105 -598h-73q5 38 8 69q-60 -80 -157 -80q-58 0 -106 29t-75.5 82t-27.5 123q0 31 6 64q13 77 52 132.5t92.5 83.5t110.5 28q56 0 99 -27.5t63 -76.5l30 171h-131l13 72h130l16 91h84zM431 263q0 76 -40 114.5t-99 38.5q-62 0 -106 -43
t-58 -126q-5 -25 -5 -57q0 -72 35.5 -113.5t97.5 -41.5q58 0 106 40t64 135q5 32 5 53z" />
    <glyph glyph-name="Emacron" unicode="&#x112;" horiz-adv-x="584" 
d="M552 816h-320l13 74h320zM157 698h445l-13 -79h-357l-41 -235h319l-14 -79h-319l-45 -260h367l-14 -79h-455z" />
    <glyph glyph-name="emacron" unicode="&#x113;" horiz-adv-x="510" 
d="M482 598h-320l13 74h320zM332.5 51.5q34.5 18.5 65.5 59.5l60 -43q-34 -57 -89.5 -85t-120.5 -28q-64 0 -112.5 27t-75.5 77.5t-27 117.5q0 30 6 63q14 82 55 140t99 87.5t124 29.5q75 0 121 -37.5t46 -104.5q0 -80 -70 -116t-216 -36q-21 0 -75 2q-1 -9 -1 -25
q0 -72 36 -109.5t98 -37.5q42 0 76.5 18.5zM204 384q-48 -35 -69 -108q46 -3 86 -3q87 0 132 19t45 63q0 32 -22 48t-63 16q-61 0 -109 -35z" />
    <glyph glyph-name="Ebreve" unicode="&#x114;" horiz-adv-x="584" 
d="M292.5 806.5q-36.5 30.5 -36.5 81.5q0 9 2 25h78q-1 -5 -1 -14q0 -30 16 -47t49 -17q67 0 85 78h78q-12 -69 -55.5 -103t-111.5 -34q-67 0 -103.5 30.5zM157 698h445l-13 -79h-357l-41 -235h319l-14 -79h-319l-45 -260h367l-14 -79h-455z" />
    <glyph glyph-name="ebreve" unicode="&#x115;" horiz-adv-x="510" 
d="M221 590.5q-38 33.5 -38 90.5q0 14 3 30h78q-1 -6 -1 -18q0 -33 16.5 -51.5t51.5 -18.5q36 0 58 21t32 67h78q-13 -76 -59.5 -115t-115.5 -39q-65 0 -103 33.5zM332.5 51.5q34.5 18.5 65.5 59.5l60 -43q-34 -57 -89.5 -85t-120.5 -28q-64 0 -112.5 27t-75.5 77.5
t-27 117.5q0 30 6 63q14 82 55 140t99 87.5t124 29.5q75 0 121 -37.5t46 -104.5q0 -80 -70 -116t-216 -36q-21 0 -75 2q-1 -9 -1 -25q0 -72 36 -109.5t98 -37.5q42 0 76.5 18.5zM204 384q-48 -35 -69 -108q46 -3 86 -3q87 0 132 19t45 63q0 32 -22 48t-63 16q-61 0 -109 -35
z" />
    <glyph glyph-name="Edotaccent" unicode="&#x116;" horiz-adv-x="584" 
d="M359.5 812q-16.5 17 -16.5 41t16.5 41t39.5 17q24 0 40.5 -17t16.5 -41t-16.5 -41t-40.5 -17q-23 0 -39.5 17zM157 698h445l-13 -79h-357l-41 -235h319l-14 -79h-319l-45 -260h367l-14 -79h-455z" />
    <glyph glyph-name="edotaccent" unicode="&#x117;" horiz-adv-x="510" 
d="M288.5 594.5q-16.5 17.5 -16.5 40.5t16.5 40.5t39.5 17.5q24 0 40.5 -17t16.5 -41q0 -23 -17 -40.5t-40 -17.5t-39.5 17.5zM332.5 51.5q34.5 18.5 65.5 59.5l60 -43q-34 -57 -89.5 -85t-120.5 -28q-64 0 -112.5 27t-75.5 77.5t-27 117.5q0 30 6 63q14 82 55 140t99 87.5
t124 29.5q75 0 121 -37.5t46 -104.5q0 -80 -70 -116t-216 -36q-21 0 -75 2q-1 -9 -1 -25q0 -72 36 -109.5t98 -37.5q42 0 76.5 18.5zM204 384q-48 -35 -69 -108q46 -3 86 -3q87 0 132 19t45 63q0 32 -22 48t-63 16q-61 0 -109 -35z" />
    <glyph glyph-name="Eogonek" unicode="&#x118;" horiz-adv-x="584" 
d="M602 698l-13 -79h-357l-41 -235h319l-14 -79h-319l-45 -260h367l-14 -79q-65 -32 -97.5 -60.5t-38.5 -64.5q-1 -5 -1 -14q0 -22 13 -34t34 -12q37 0 79 34l29 -50q-23 -23 -52.5 -35t-61.5 -12q-48 0 -81 25.5t-33 73.5q0 49 25.5 84.5t70.5 64.5h-341l127 732h445z" />
    <glyph glyph-name="eogonek" unicode="&#x119;" horiz-adv-x="510" 
d="M332.5 51.5q34.5 18.5 65.5 59.5l60 -43q-30 -50 -74 -77q-87 -61 -119 -91t-38 -65q-1 -5 -1 -14q0 -21 13.5 -31.5t36.5 -10.5q38 0 77 30l29 -50q-22 -21 -51.5 -32t-61.5 -11q-49 0 -82.5 25t-33.5 72q0 42 20.5 75.5t61.5 66.5q-92 5 -147 64.5t-55 157.5q0 30 6 63
q14 82 55 140t99 87.5t124 29.5q75 0 121 -37.5t46 -104.5q0 -80 -70 -116t-216 -36q-21 0 -75 2q-1 -9 -1 -25q0 -72 36 -109.5t98 -37.5q42 0 76.5 18.5zM204 384q-48 -35 -69 -108q46 -3 86 -3q87 0 132 19t45 63q0 32 -22 48t-63 16q-61 0 -109 -35z" />
    <glyph glyph-name="Ecaron" unicode="&#x11a;" horiz-adv-x="584" 
d="M335 913l59 -84l86 84h94l-147 -137h-83l-97 137h88zM157 698h445l-13 -79h-357l-41 -235h319l-14 -79h-319l-45 -260h367l-14 -79h-455z" />
    <glyph glyph-name="ecaron" unicode="&#x11b;" horiz-adv-x="510" 
d="M271 712l53 -93l84 93h89l-142 -154h-79l-88 154h83zM332.5 51.5q34.5 18.5 65.5 59.5l60 -43q-34 -57 -89.5 -85t-120.5 -28q-64 0 -112.5 27t-75.5 77.5t-27 117.5q0 30 6 63q14 82 55 140t99 87.5t124 29.5q75 0 121 -37.5t46 -104.5q0 -80 -70 -116t-216 -36
q-21 0 -75 2q-1 -9 -1 -25q0 -72 36 -109.5t98 -37.5q42 0 76.5 18.5zM204 384q-48 -35 -69 -108q46 -3 86 -3q87 0 132 19t45 63q0 32 -22 48t-63 16q-61 0 -109 -35z" />
    <glyph glyph-name="Gcircumflex" unicode="&#x11c;" horiz-adv-x="680" 
d="M419 914h83l97 -137h-89l-58 84l-87 -84h-93zM549 269h-152l14 80h240l-50 -287q-37 -53 -98.5 -80t-136.5 -27q-94 0 -165 41t-109 114t-38 167q0 39 8 85q18 107 72.5 185.5t133 120.5t167.5 42q94 0 159.5 -45.5t84.5 -117.5l-76 -36q-16 51 -61 84t-115 33
q-67 0 -124 -32.5t-96 -94t-54 -145.5q-7 -36 -7 -76q0 -110 60 -176.5t167 -66.5q92 0 146 56z" />
    <glyph glyph-name="gcircumflex" unicode="&#x11d;" horiz-adv-x="595" 
d="M395 559l-53 93l-84 -93h-89l142 154h79l88 -154h-83zM559 486l-90 -515q-16 -93 -59.5 -150t-98 -81t-110.5 -24q-52 0 -97.5 20t-75 56t-35.5 83l68 31q17 -55 55 -82.5t91 -27.5q67 0 115.5 44t64.5 139l8 48q-59 -72 -151 -72q-58 0 -106 29t-75.5 82t-27.5 123
q0 31 6 64q13 77 52 132.5t92.5 83.5t110.5 28t99.5 -28.5t63.5 -77.5q14 42 25 95h75zM431 263q0 76 -40 114.5t-99 38.5q-62 0 -106 -43t-58 -126q-5 -25 -5 -57q0 -72 35.5 -113.5t97.5 -41.5q58 0 106 40t64 135q5 32 5 53z" />
    <glyph glyph-name="Gbreve" unicode="&#x11e;" horiz-adv-x="680" 
d="M344.5 807.5q-36.5 30.5 -36.5 81.5q0 9 2 25h78q-1 -5 -1 -14q0 -30 16 -47t49 -17q67 0 85 78h78q-12 -69 -55.5 -103t-111.5 -34q-67 0 -103.5 30.5zM549 269h-152l14 80h240l-50 -287q-37 -53 -98.5 -80t-136.5 -27q-94 0 -165 41t-109 114t-38 167q0 39 8 85
q18 107 72.5 185.5t133 120.5t167.5 42q94 0 159.5 -45.5t84.5 -117.5l-76 -36q-16 51 -61 84t-115 33q-67 0 -124 -32.5t-96 -94t-54 -145.5q-7 -36 -7 -76q0 -110 60 -176.5t167 -66.5q92 0 146 56z" />
    <glyph glyph-name="gbreve" unicode="&#x11f;" horiz-adv-x="595" 
d="M231 591.5q-38 33.5 -38 90.5q0 14 3 30h78q-1 -6 -1 -18q0 -33 16.5 -51.5t51.5 -18.5q36 0 58 21t32 67h78q-13 -76 -59.5 -115t-115.5 -39q-65 0 -103 33.5zM559 486l-90 -515q-16 -93 -59.5 -150t-98 -81t-110.5 -24q-52 0 -97.5 20t-75 56t-35.5 83l68 31
q17 -55 55 -82.5t91 -27.5q67 0 115.5 44t64.5 139l8 48q-59 -72 -151 -72q-58 0 -106 29t-75.5 82t-27.5 123q0 31 6 64q13 77 52 132.5t92.5 83.5t110.5 28t99.5 -28.5t63.5 -77.5q14 42 25 95h75zM431 263q0 76 -40 114.5t-99 38.5q-62 0 -106 -43t-58 -126
q-5 -25 -5 -57q0 -72 35.5 -113.5t97.5 -41.5q58 0 106 40t64 135q5 32 5 53z" />
    <glyph glyph-name="Gdotaccent" unicode="&#x120;" horiz-adv-x="680" 
d="M411.5 813q-16.5 17 -16.5 41t16.5 41t39.5 17q24 0 40.5 -17t16.5 -41t-16.5 -41t-40.5 -17q-23 0 -39.5 17zM549 269h-152l14 80h240l-50 -287q-37 -53 -98.5 -80t-136.5 -27q-94 0 -165 41t-109 114t-38 167q0 39 8 85q18 107 72.5 185.5t133 120.5t167.5 42
q94 0 159.5 -45.5t84.5 -117.5l-76 -36q-16 51 -61 84t-115 33q-67 0 -124 -32.5t-96 -94t-54 -145.5q-7 -36 -7 -76q0 -110 60 -176.5t167 -66.5q92 0 146 56z" />
    <glyph glyph-name="gdotaccent" unicode="&#x121;" horiz-adv-x="595" 
d="M298.5 595.5q-16.5 17.5 -16.5 40.5t16.5 40.5t39.5 17.5q24 0 40.5 -17t16.5 -41q0 -23 -17 -40.5t-40 -17.5t-39.5 17.5zM559 486l-90 -515q-16 -93 -59.5 -150t-98 -81t-110.5 -24q-52 0 -97.5 20t-75 56t-35.5 83l68 31q17 -55 55 -82.5t91 -27.5q67 0 115.5 44
t64.5 139l8 48q-59 -72 -151 -72q-58 0 -106 29t-75.5 82t-27.5 123q0 31 6 64q13 77 52 132.5t92.5 83.5t110.5 28t99.5 -28.5t63.5 -77.5q14 42 25 95h75zM431 263q0 76 -40 114.5t-99 38.5q-62 0 -106 -43t-58 -126q-5 -25 -5 -57q0 -72 35.5 -113.5t97.5 -41.5
q58 0 106 40t64 135q5 32 5 53z" />
    <glyph glyph-name="uni0122" unicode="&#x122;" horiz-adv-x="680" 
d="M397 269l14 80h240l-50 -287q-37 -53 -98.5 -80t-136.5 -27q-94 0 -165 41t-109 114t-38 167q0 39 8 85q18 107 72.5 185.5t133 120.5t167.5 42q94 0 159.5 -45.5t84.5 -117.5l-76 -36q-16 51 -61 84t-115 33q-67 0 -124 -32.5t-96 -94t-54 -145.5q-7 -36 -7 -76
q0 -110 60 -176.5t167 -66.5q92 0 146 56l30 176h-152zM371 -89.5q15 -15.5 15 -46.5q0 -6 -2 -22q-9 -53 -46.5 -86.5t-92.5 -42.5l2 45q64 18 78 62h-1q-22 0 -33.5 13t-11.5 33q0 25 15 42.5t38 17.5q24 0 39 -15.5z" />
    <glyph glyph-name="uni0123" unicode="&#x123;" horiz-adv-x="595" 
d="M291.5 589q-14.5 15 -14.5 45q0 6 2 24q10 53 46.5 86.5t92.5 42.5l-2 -45q-62 -18 -78 -62h1q22 0 33.5 -13.5t11.5 -34.5q0 -24 -15.5 -41t-38.5 -17q-24 0 -38.5 15zM559 486l-90 -515q-16 -93 -59.5 -150t-98 -81t-110.5 -24q-52 0 -97.5 20t-75 56t-35.5 83l68 31
q17 -55 55 -82.5t91 -27.5q67 0 115.5 44t64.5 139l8 48q-59 -72 -151 -72q-58 0 -106 29t-75.5 82t-27.5 123q0 31 6 64q13 77 52 132.5t92.5 83.5t110.5 28t99.5 -28.5t63.5 -77.5q14 42 25 95h75zM431 263q0 76 -40 114.5t-99 38.5q-62 0 -106 -43t-58 -126
q-5 -25 -5 -57q0 -72 35.5 -113.5t97.5 -41.5q58 0 106 40t64 135q5 32 5 53z" />
    <glyph glyph-name="Hcircumflex" unicode="&#x124;" horiz-adv-x="732" 
d="M435 913h83l97 -137h-89l-58 84l-87 -84h-93zM191 386h388l55 312h89l-128 -732h-89l59 340h-388l-59 -340h-88l127 732h89z" />
    <glyph glyph-name="hcircumflex" unicode="&#x125;" horiz-adv-x="569" 
d="M191 927h79l91 -137h-86l-53 80l-80 -80h-90zM462.5 451q45.5 -46 45.5 -129q0 -32 -5 -57l-53 -299h-84l51 290q5 28 5 49q0 53 -26 82t-76 29q-54 0 -99 -34.5t-61 -100.5l-55 -315h-84l133 761h85l-54 -305q30 38 70 56.5t87 18.5q75 0 120.5 -46z" />
    <glyph glyph-name="Hbar" unicode="&#x126;" horiz-adv-x="769" 
d="M745 698l-21 -121h67l-13 -72h-67l-95 -539h-90l60 340h-392l-60 -340h-89l95 539h-67l13 72h67l21 121h89l-21 -121h392l21 121h90zM229 505l-21 -119h392l21 119h-392z" />
    <glyph glyph-name="hbar" unicode="&#x127;" horiz-adv-x="581" 
d="M474.5 451q45.5 -46 45.5 -129q0 -32 -5 -57l-53 -299h-84l51 290q5 28 5 49q0 53 -26 82t-76 29q-54 0 -99 -34.5t-61 -100.5l-55 -315h-84l105 598h-72l12 72h72l16 91h85l-16 -91h165l-12 -72h-166l-25 -142q30 38 70 56.5t87 18.5q75 0 120.5 -46z" />
    <glyph glyph-name="Itilde" unicode="&#x128;" horiz-adv-x="254" 
d="M52 791q11 56 44 87t79 31q27 0 42 -9.5t31 -27.5q9 -12 17 -18t19 -6q16 0 28.5 12.5t19.5 36.5h70q-11 -56 -44 -87t-79 -31q-27 0 -42 9.5t-31 27.5q-9 12 -17 18t-19 6q-16 0 -28.5 -12.5t-19.5 -36.5h-70zM118 -34h-88l127 732h89z" />
    <glyph glyph-name="itilde" unicode="&#x129;" horiz-adv-x="229" 
d="M5 579q11 60 44 93.5t79 33.5q27 0 42 -10t31 -30q9 -13 17 -19.5t19 -6.5q16 0 28.5 13.5t19.5 39.5h70q-11 -60 -44 -93.5t-79 -33.5q-27 0 -42 10t-31 30q-9 13 -17 19.5t-19 6.5q-16 0 -28.5 -14t-19.5 -39h-70zM19 -34l92 519h85l-92 -519h-85z" />
    <glyph glyph-name="Imacron" unicode="&#x12a;" horiz-adv-x="254" 
d="M382 816h-320l13 74h320zM118 -34h-88l127 732h89z" />
    <glyph glyph-name="imacron" unicode="&#x12b;" horiz-adv-x="229" 
d="M334 599h-320l13 74h320zM19 -34l92 519h85l-92 -519h-85z" />
    <glyph glyph-name="Ibreve" unicode="&#x12c;" horiz-adv-x="254" 
d="M122.5 806.5q-36.5 30.5 -36.5 81.5q0 9 2 25h78q-1 -5 -1 -14q0 -30 16 -47t49 -17q67 0 85 78h78q-12 -69 -55.5 -103t-111.5 -34q-67 0 -103.5 30.5zM118 -34h-88l127 732h89z" />
    <glyph glyph-name="ibreve" unicode="&#x12d;" horiz-adv-x="229" 
d="M73 591.5q-38 33.5 -38 90.5q0 14 3 30h78q-1 -6 -1 -18q0 -33 16.5 -51.5t51.5 -18.5q36 0 58 21t32 67h78q-13 -76 -59.5 -115t-115.5 -39q-65 0 -103 33.5zM19 -34l92 519h85l-92 -519h-85z" />
    <glyph glyph-name="Iogonek" unicode="&#x12e;" horiz-adv-x="254" 
d="M107 -185l29 -50q-23 -23 -52.5 -35t-61.5 -12q-48 0 -81 25.5t-33 73.5q0 56 33.5 95t91.5 71l124 715h89l-128 -732q-65 -32 -97.5 -60.5t-38.5 -64.5q-1 -5 -1 -14q0 -22 13 -34t34 -12q37 0 79 34z" />
    <glyph glyph-name="iogonek" unicode="&#x12f;" horiz-adv-x="229" 
d="M220.5 677q16.5 -17 16.5 -41q0 -23 -17 -40.5t-40 -17.5t-39.5 17.5t-16.5 40.5t16.5 40.5t39.5 17.5q24 0 40.5 -17zM104 -34q-65 -32 -97.5 -60.5t-38.5 -64.5q-1 -5 -1 -14q0 -22 13 -34t34 -12q37 0 79 34l29 -50q-23 -23 -52.5 -35t-61.5 -12q-48 0 -81 25.5
t-33 73.5q0 57 34.5 96.5t93.5 70.5l89 501h85z" />
    <glyph glyph-name="Idotaccent" unicode="&#x130;" horiz-adv-x="254" 
d="M189.5 812q-16.5 17 -16.5 41t16.5 41t39.5 17q24 0 40.5 -17t16.5 -41t-16.5 -41t-40.5 -17q-23 0 -39.5 17zM118 -34h-88l127 732h89z" />
    <glyph glyph-name="dotlessi" unicode="&#x131;" horiz-adv-x="229" 
d="M19 -34l92 519h85l-92 -519h-85z" />
    <glyph glyph-name="IJ" unicode="&#x132;" horiz-adv-x="705" 
d="M118 -34h-88l127 732h89zM277.5 -7q-41.5 38 -52.5 110l76 36q10 -52 31 -77t66 -25q102 0 126 138l91 523h90l-94 -531q-21 -116 -80.5 -164t-137.5 -48q-74 0 -115.5 38z" />
    <glyph glyph-name="ij" unicode="&#x133;" horiz-adv-x="459" 
d="M140.5 595.5q-16.5 17.5 -16.5 40.5q0 24 16 41t39 17q24 0 40.5 -17t16.5 -41t-16.5 -41t-40.5 -17q-22 0 -38.5 17.5zM367.5 593.5q-14.5 15.5 -14.5 37.5q0 24 17.5 43.5t41.5 19.5q26 0 41 -19t10 -45q-3 -21 -20.5 -36.5t-39.5 -15.5q-21 0 -35.5 15.5zM104 -34h-84
l91 519h84zM35 -247l40 68q28 -25 67 -25q38 0 63 28.5t37 97.5l98 563h84l-102 -584q-17 -96 -65.5 -140.5t-116.5 -44.5q-64 0 -105 37z" />
    <glyph glyph-name="Jcircumflex" unicode="&#x134;" horiz-adv-x="451" 
d="M401 914h83l97 -137h-89l-58 84l-87 -84h-93zM23.5 -7q-41.5 38 -52.5 110l76 36q10 -52 31 -77t66 -25q102 0 126 138l91 523h90l-94 -531q-21 -116 -80.5 -164t-137.5 -48q-74 0 -115.5 38z" />
    <glyph glyph-name="jcircumflex" unicode="&#x135;" horiz-adv-x="223" 
d="M146 713h79l88 -154h-83l-53 93l-84 -93h-89zM-200 -247l40 68q28 -25 67 -25q38 0 63 28.5t37 97.5l98 563h84l-102 -584q-17 -96 -65.5 -140.5t-116.5 -44.5q-64 0 -105 37z" />
    <glyph glyph-name="uni0136" unicode="&#x136;" horiz-adv-x="672" 
d="M598 698h123l-358 -305l252 -427h-111l-210 368l-132 -111l-45 -257h-89l129 732h89l-63 -360zM332 -89.5q15 -15.5 15 -46.5q0 -6 -2 -22q-9 -53 -46.5 -86.5t-92.5 -42.5l2 45q64 18 78 62h-1q-22 0 -33.5 13t-11.5 33q0 25 15 42.5t38 17.5q24 0 39 -15.5z" />
    <glyph glyph-name="uni0137" unicode="&#x137;" horiz-adv-x="518" 
d="M427 485h112l-238 -210l166 -309h-105l-129 249l-100 -88l-29 -161h-85l135 761h85l-86 -487zM254 -89.5q15 -15.5 15 -46.5q0 -6 -2 -22q-9 -53 -46.5 -86.5t-92.5 -42.5l2 45q64 18 78 62h-1q-22 0 -33.5 13t-11.5 33q0 25 15 42.5t38 17.5q24 0 39 -15.5z" />
    <glyph glyph-name="kgreenlandic" unicode="&#x138;" horiz-adv-x="518" 
d="M152 239l275 246h112l-238 -210l166 -309h-105l-129 249l-101 -88l-28 -161h-85l92 520h85z" />
    <glyph glyph-name="Lacute" unicode="&#x139;" horiz-adv-x="556" 
d="M261 777h-77l106 137h97zM158 698h89l-116 -652h362l-15 -80h-450z" />
    <glyph glyph-name="lacute" unicode="&#x13a;" horiz-adv-x="232" 
d="M253 795h-77l106 137h97zM105 -34h-84l133 761h85z" />
    <glyph glyph-name="uni013B" unicode="&#x13b;" horiz-adv-x="556" 
d="M247 698l-116 -652h362l-15 -80h-450l130 732h89zM286 -89.5q15 -15.5 15 -46.5q0 -6 -2 -22q-9 -53 -46.5 -86.5t-92.5 -42.5l2 45q64 18 78 62h-1q-22 0 -33.5 13t-11.5 33q0 25 15 42.5t38 17.5q24 0 39 -15.5z" />
    <glyph glyph-name="uni013C" unicode="&#x13c;" horiz-adv-x="232" 
d="M21 -34l133 761h85l-134 -761h-84zM84 -89.5q15 -15.5 15 -46.5q0 -6 -2 -22q-9 -53 -46.5 -86.5t-92.5 -42.5l2 45q64 18 78 62h-1q-22 0 -33.5 13t-11.5 33q0 25 15 42.5t38 17.5q24 0 39 -15.5z" />
    <glyph glyph-name="Lcaron" unicode="&#x13d;" horiz-adv-x="556" 
d="M484.5 695q14.5 -15 14.5 -45q0 -6 -2 -24q-10 -53 -46.5 -86.5t-92.5 -42.5l2 45q62 17 79 62h-1q-22 0 -34 13.5t-12 34.5q0 24 15.5 41t38.5 17q24 0 38.5 -15zM158 698h89l-116 -652h362l-15 -80h-450z" />
    <glyph glyph-name="lcaron" unicode="&#x13e;" horiz-adv-x="281" 
d="M377.5 723.5q14.5 -14.5 14.5 -43.5q0 -5 -2 -21q-10 -51 -45 -82t-87 -39l4 44q58 14 72 56q-21 0 -32 12.5t-11 32.5q0 23 14.5 39t35.5 16q22 0 36.5 -14.5zM105 -34h-84l133 761h85z" />
    <glyph glyph-name="Ldot" unicode="&#x13f;" horiz-adv-x="556" 
d="M158 698h89l-116 -652h362l-15 -80h-450zM318.5 313.5q-16.5 17.5 -16.5 40.5q0 24 16.5 41t39.5 17q24 0 40.5 -17t16.5 -41t-16.5 -41t-40.5 -17q-23 0 -39.5 17.5z" />
    <glyph glyph-name="ldot" unicode="&#x140;" horiz-adv-x="239" 
d="M105 -34h-84l133 761h85zM208 315q-14 15 -14 35q0 21 14 35.5t34 14.5q21 0 35 -14.5t14 -35.5t-14 -35.5t-35 -14.5q-20 0 -34 15z" />
    <glyph glyph-name="Lslash" unicode="&#x141;" horiz-adv-x="589" 
d="M367 388l-155 -75l-48 -267h362l-15 -80h-450l53 300l-100 -48l15 85l100 48l62 347h89l-53 -300l155 75z" />
    <glyph glyph-name="lslash" unicode="&#x142;" horiz-adv-x="250" 
d="M249 727l-54 -309l78 41l-15 -85l-78 -41l-65 -367h-84l56 318l-82 -43l15 85l81 43l63 358h85z" />
    <glyph glyph-name="Nacute" unicode="&#x143;" horiz-adv-x="727" 
d="M496 777h-77l106 137h97zM231 698l303 -581l101 581h83l-128 -732h-73l-302 582l-102 -582h-83l127 732h74z" />
    <glyph glyph-name="nacute" unicode="&#x144;" horiz-adv-x="568" 
d="M363 559h-78l109 154h97zM461.5 451q45.5 -46 45.5 -129q0 -32 -5 -57l-53 -299h-84l51 290q5 28 5 49q0 53 -26 82t-76 29q-57 0 -103.5 -38.5t-59.5 -113.5l-52 -298h-84l91 520h74q-2 -13 -7 -53l-3 -23q60 87 166 87q75 0 120.5 -46z" />
    <glyph glyph-name="uni0145" unicode="&#x145;" horiz-adv-x="727" 
d="M534 117l101 581h83l-128 -732h-73l-302 582l-102 -582h-83l127 732h74zM331 -89.5q15 -15.5 15 -46.5q0 -6 -2 -22q-9 -53 -46.5 -86.5t-92.5 -42.5l2 45q64 18 78 62h-1q-22 0 -33.5 13t-11.5 33q0 25 15 42.5t38 17.5q24 0 39 -15.5z" />
    <glyph glyph-name="uni0146" unicode="&#x146;" horiz-adv-x="568" 
d="M461.5 451q45.5 -46 45.5 -129q0 -32 -5 -57l-53 -299h-84l51 290q5 28 5 49q0 53 -26 82t-76 29q-57 0 -103.5 -38.5t-59.5 -113.5l-52 -298h-84l91 520h74q-2 -13 -7 -53l-3 -23q60 87 166 87q75 0 120.5 -46zM256 -89.5q15 -15.5 15 -46.5q0 -6 -2 -22
q-9 -53 -46.5 -86.5t-92.5 -42.5l2 45q64 18 78 62h-1q-22 0 -33.5 13t-11.5 33q0 25 15 42.5t38 17.5q24 0 39 -15.5z" />
    <glyph glyph-name="Ncaron" unicode="&#x147;" horiz-adv-x="727" 
d="M401 914l59 -84l86 84h94l-147 -137h-83l-97 137h88zM231 698l303 -581l101 581h83l-128 -732h-73l-302 582l-102 -582h-83l127 732h74z" />
    <glyph glyph-name="ncaron" unicode="&#x148;" horiz-adv-x="568" 
d="M287 713l53 -93l84 93h89l-142 -154h-79l-88 154h83zM461.5 451q45.5 -46 45.5 -129q0 -32 -5 -57l-53 -299h-84l51 290q5 28 5 49q0 53 -26 82t-76 29q-57 0 -103.5 -38.5t-59.5 -113.5l-52 -298h-84l91 520h74q-2 -13 -7 -53l-3 -23q60 87 166 87q75 0 120.5 -46z" />
    <glyph glyph-name="napostrophe" unicode="&#x149;" horiz-adv-x="580" 
d="M123.5 567.5q-36.5 -33.5 -92.5 -42.5l2 45q62 18 78 62h-1q-22 0 -33.5 13.5t-11.5 34.5q0 24 15.5 41t38.5 17q24 0 38.5 -15t14.5 -45q0 -6 -2 -24q-10 -53 -46.5 -86.5zM461.5 451q45.5 -46 45.5 -129q0 -32 -5 -57l-53 -299h-84l51 290q5 28 5 49q0 53 -26 82
t-76 29q-57 0 -103.5 -38.5t-59.5 -113.5l-52 -298h-84l91 520h74q-2 -13 -7 -53l-3 -23q60 87 166 87q75 0 120.5 -46z" />
    <glyph glyph-name="Eng" unicode="&#x14a;" horiz-adv-x="728" 
d="M577 -111q-16 -94 -60.5 -133.5t-105.5 -39.5q-28 0 -52 7.5t-39 21.5l43 66q17 -15 45 -15q71 0 89 102l14 80l-296 570l-102 -582h-83l127 732h74l303 -581l101 581h83z" />
    <glyph glyph-name="eng" unicode="&#x14b;" horiz-adv-x="568" 
d="M461.5 451q45.5 -46 45.5 -129q0 -32 -5 -57l-66 -375q-17 -93 -63 -133.5t-105 -40.5q-55 0 -88 31l42 64q15 -15 45 -15q31 0 53.5 22.5t32.5 80.5l63 357q5 28 5 49q0 53 -26 82t-76 29q-57 0 -103.5 -38.5t-59.5 -113.5l-52 -298h-84l91 520h74q-2 -13 -7 -53l-3 -23
q60 87 166 87q75 0 120.5 -46z" />
    <glyph glyph-name="Omacron" unicode="&#x14c;" horiz-adv-x="748" 
d="M628 816h-320l13 74h320zM134.5 546.5q53.5 79.5 130.5 121.5t164 42q85 0 150 -41t100.5 -114t35.5 -166q0 -40 -8 -88q-19 -105 -72.5 -183.5t-130 -120.5t-162.5 -42q-85 0 -150.5 40.5t-101.5 113.5t-36 166q0 38 8 86q19 106 72.5 185.5zM147 272q0 -106 52 -170.5
t148 -64.5q101 0 173.5 74t94.5 202q7 39 7 81q0 106 -52 170.5t-146 64.5q-102 0 -175 -74t-95 -202q-7 -39 -7 -81z" />
    <glyph glyph-name="omacron" unicode="&#x14d;" horiz-adv-x="579" 
d="M508 598h-320l13 74h320zM94 379q41 57 99 87.5t121 30.5q62 0 111 -30.5t76.5 -84t27.5 -121.5q0 -24 -5 -57q-14 -77 -54.5 -133.5t-98 -86t-119.5 -29.5q-63 0 -112.5 30t-77 83t-27.5 120q0 24 5 57q13 77 54 134zM123 185q0 -69 36.5 -109.5t98.5 -40.5
q66 0 115 45.5t64 131.5q4 24 4 50q0 71 -35.5 113t-97.5 42q-65 0 -115 -46.5t-65 -133.5q-5 -30 -5 -52z" />
    <glyph glyph-name="Obreve" unicode="&#x14e;" horiz-adv-x="748" 
d="M368.5 806.5q-36.5 30.5 -36.5 81.5q0 9 2 25h78q-1 -5 -1 -14q0 -30 16 -47t49 -17q67 0 85 78h78q-12 -69 -55.5 -103t-111.5 -34q-67 0 -103.5 30.5zM134.5 546.5q53.5 79.5 130.5 121.5t164 42q85 0 150 -41t100.5 -114t35.5 -166q0 -40 -8 -88
q-19 -105 -72.5 -183.5t-130 -120.5t-162.5 -42q-85 0 -150.5 40.5t-101.5 113.5t-36 166q0 38 8 86q19 106 72.5 185.5zM147 272q0 -106 52 -170.5t148 -64.5q101 0 173.5 74t94.5 202q7 39 7 81q0 106 -52 170.5t-146 64.5q-102 0 -175 -74t-95 -202q-7 -39 -7 -81z" />
    <glyph glyph-name="obreve" unicode="&#x14f;" horiz-adv-x="579" 
d="M247 590.5q-38 33.5 -38 90.5q0 14 3 30h78q-1 -6 -1 -18q0 -33 16.5 -51.5t51.5 -18.5q36 0 58 21t32 67h78q-13 -76 -59.5 -115t-115.5 -39q-65 0 -103 33.5zM94 379q41 57 99 87.5t121 30.5q62 0 111 -30.5t76.5 -84t27.5 -121.5q0 -24 -5 -57q-14 -77 -54.5 -133.5
t-98 -86t-119.5 -29.5q-63 0 -112.5 30t-77 83t-27.5 120q0 24 5 57q13 77 54 134zM123 185q0 -69 36.5 -109.5t98.5 -40.5q66 0 115 45.5t64 131.5q4 24 4 50q0 71 -35.5 113t-97.5 42q-65 0 -115 -46.5t-65 -133.5q-5 -30 -5 -52z" />
    <glyph glyph-name="Ohungarumlaut" unicode="&#x150;" horiz-adv-x="748" 
d="M419 776h-75l106 137h95zM570 776h-75l106 137h95zM134.5 546.5q53.5 79.5 130.5 121.5t164 42q85 0 150 -41t100.5 -114t35.5 -166q0 -40 -8 -88q-19 -105 -72.5 -183.5t-130 -120.5t-162.5 -42q-85 0 -150.5 40.5t-101.5 113.5t-36 166q0 38 8 86q19 106 72.5 185.5z
M147 272q0 -106 52 -170.5t148 -64.5q101 0 173.5 74t94.5 202q7 39 7 81q0 106 -52 170.5t-146 64.5q-102 0 -175 -74t-95 -202q-7 -39 -7 -81z" />
    <glyph glyph-name="ohungarumlaut" unicode="&#x151;" horiz-adv-x="579" 
d="M299 558h-75l109 154h94zM450 558h-75l109 154h94zM94 379q41 57 99 87.5t121 30.5q62 0 111 -30.5t76.5 -84t27.5 -121.5q0 -24 -5 -57q-14 -77 -54.5 -133.5t-98 -86t-119.5 -29.5q-63 0 -112.5 30t-77 83t-27.5 120q0 24 5 57q13 77 54 134zM123 185
q0 -69 36.5 -109.5t98.5 -40.5q66 0 115 45.5t64 131.5q4 24 4 50q0 71 -35.5 113t-97.5 42q-65 0 -115 -46.5t-65 -133.5q-5 -30 -5 -52z" />
    <glyph glyph-name="OE" unicode="&#x152;" horiz-adv-x="1114" 
d="M1132 698l-13 -79h-357l-41 -235h319l-14 -79h-319l-45 -260h367l-14 -79h-455l17 98q-46 -53 -106 -81t-129 -28q-85 0 -150.5 40.5t-101.5 113.5t-36 166q0 38 8 86q19 106 72.5 185.5t130.5 121.5t164 42q84 0 144 -38.5t91 -108.5l23 135h445zM520.5 111
q72.5 74 94.5 202q7 39 7 81q0 106 -52 170.5t-146 64.5q-102 0 -175 -74t-95 -202q-7 -39 -7 -81q0 -106 52 -170.5t148 -64.5q101 0 173.5 74z" />
    <glyph glyph-name="oe" unicode="&#x153;" horiz-adv-x="919" 
d="M741.5 51.5q34.5 18.5 65.5 59.5l60 -43q-34 -57 -89.5 -85t-120.5 -28q-71 0 -120.5 32.5t-71.5 91.5q-36 -59 -92.5 -91.5t-120.5 -32.5q-63 0 -112.5 30t-77 83t-27.5 120q0 24 5 57q13 77 54 134t99 87.5t121 30.5q67 0 116 -35t71 -96q38 64 98 97.5t129 33.5
q74 0 119.5 -37.5t45.5 -104.5q0 -80 -71 -116t-220 -36q-23 0 -77 2q-1 -7 -1 -21q0 -73 39 -112t102 -39q42 0 76.5 18.5zM609.5 384q-50.5 -35 -71.5 -108q48 -3 89 -3q89 0 134.5 19t45.5 63q0 32 -22 48t-63 16q-62 0 -112.5 -35zM441 262q0 71 -35.5 113t-97.5 42
q-65 0 -115 -46.5t-65 -133.5q-5 -30 -5 -52q0 -69 36.5 -109.5t98.5 -40.5q66 0 115 45.5t64 131.5q4 24 4 50z" />
    <glyph glyph-name="Racute" unicode="&#x154;" horiz-adv-x="615" 
d="M442 914h97l-126 -137h-77zM533.5 345.5q-48.5 -48.5 -122.5 -68.5l167 -311h-104l-157 300h-147l-52 -300h-88l127 732h213q68 0 119.5 -24.5t80 -68t28.5 -99.5q0 -21 -4 -40q-12 -72 -60.5 -120.5zM503 501q0 54 -38.5 86.5t-114.5 32.5h-118l-48 -276h129
q81 0 129 35t59 95q2 9 2 27z" />
    <glyph glyph-name="racute" unicode="&#x155;" horiz-adv-x="363" 
d="M296 558h-78l109 154h97zM367 486q22 -11 32 -27l-39 -65q-21 23 -60 23q-49 0 -88 -37.5t-56 -116.5l-52 -297h-84l91 520h74q-2 -13 -7 -53l-3 -24q53 88 139 88q31 0 53 -11z" />
    <glyph glyph-name="uni0156" unicode="&#x156;" horiz-adv-x="615" 
d="M533.5 345.5q-48.5 -48.5 -122.5 -68.5l167 -311h-104l-157 300h-147l-52 -300h-88l127 732h213q68 0 119.5 -24.5t80 -68t28.5 -99.5q0 -21 -4 -40q-12 -72 -60.5 -120.5zM503 501q0 54 -38.5 86.5t-114.5 32.5h-118l-48 -276h129q81 0 129 35t59 95q2 9 2 27z
M317 -89.5q15 -15.5 15 -46.5q0 -6 -2 -22q-9 -53 -46.5 -86.5t-92.5 -42.5l2 45q64 18 78 62h-1q-22 0 -33.5 13t-11.5 33q0 25 15 42.5t38 17.5q24 0 39 -15.5z" />
    <glyph glyph-name="uni0157" unicode="&#x157;" horiz-adv-x="363" 
d="M367 486q22 -11 32 -27l-39 -65q-21 23 -60 23q-49 0 -88 -37.5t-56 -116.5l-52 -297h-84l91 520h74q-2 -13 -7 -53l-3 -24q53 88 139 88q31 0 53 -11zM84 -89.5q15 -15.5 15 -46.5q0 -6 -2 -22q-9 -53 -46.5 -86.5t-92.5 -42.5l2 45q64 18 78 62h-1q-22 0 -33.5 13
t-11.5 33q0 25 15 42.5t38 17.5q24 0 39 -15.5z" />
    <glyph glyph-name="Rcaron" unicode="&#x158;" horiz-adv-x="615" 
d="M557 914l-147 -137h-83l-97 137h88l59 -84l86 84h94zM533.5 345.5q-48.5 -48.5 -122.5 -68.5l167 -311h-104l-157 300h-147l-52 -300h-88l127 732h213q68 0 119.5 -24.5t80 -68t28.5 -99.5q0 -21 -4 -40q-12 -72 -60.5 -120.5zM503 501q0 54 -38.5 86.5t-114.5 32.5h-118
l-48 -276h129q81 0 129 35t59 95q2 9 2 27z" />
    <glyph glyph-name="rcaron" unicode="&#x159;" horiz-adv-x="363" 
d="M220 712l53 -93l84 93h89l-142 -154h-79l-88 154h83zM367 486q22 -11 32 -27l-39 -65q-21 23 -60 23q-49 0 -88 -37.5t-56 -116.5l-52 -297h-84l91 520h74q-2 -13 -7 -53l-3 -24q53 88 139 88q31 0 53 -11z" />
    <glyph glyph-name="Sacute" unicode="&#x15a;" horiz-adv-x="569" 
d="M409 777h-77l106 137h97zM439 5q-66 -50 -169 -50q-76 0 -135 29t-94 79t-43 111l77 36q17 -79 68 -126t130 -47q73 0 113 36t40 89q0 33 -20 57.5t-49 41.5t-80 40q-61 28 -98.5 51t-63.5 59t-26 88q0 18 3 37q18 99 97 142q56 32 136 32q72 0 125 -26t82 -67.5
t33 -85.5l-76 -36q-8 56 -51 95t-114 39q-54 0 -92 -24.5t-47 -72.5q-2 -14 -2 -20q0 -33 20 -57.5t49.5 -42t80.5 -40.5q61 -28 98 -51t63 -59t26 -87q0 -16 -3 -36q-15 -85 -78 -134z" />
    <glyph glyph-name="sacute" unicode="&#x15b;" horiz-adv-x="445" 
d="M309 559h-78l109 154h97zM326.5 -9q-48.5 -36 -123.5 -36q-57 0 -101.5 20.5t-71 55.5t-31.5 79l68 31q12 -52 47 -80.5t89 -28.5q39 0 64 15t31 47q1 4 1 13q0 30 -25.5 48.5t-76.5 39.5q-46 20 -73 36t-46.5 42.5t-19.5 65.5q0 50 25.5 85.5t67.5 54t91 18.5
q73 0 122 -37.5t54 -94.5l-69 -31q-7 38 -37 61.5t-74 23.5q-38 0 -65 -17.5t-27 -53.5q0 -29 25 -47t76 -39q45 -19 73.5 -35t48.5 -43t20 -66q0 -14 -3 -29q-11 -62 -59.5 -98z" />
    <glyph glyph-name="Scircumflex" unicode="&#x15c;" horiz-adv-x="569" 
d="M346 914h83l97 -137h-89l-58 84l-87 -84h-93zM439 5q-66 -50 -169 -50q-76 0 -135 29t-94 79t-43 111l77 36q17 -79 68 -126t130 -47q73 0 113 36t40 89q0 33 -20 57.5t-49 41.5t-80 40q-61 28 -98.5 51t-63.5 59t-26 88q0 18 3 37q18 99 97 142q56 32 136 32
q72 0 125 -26t82 -67.5t33 -85.5l-76 -36q-8 56 -51 95t-114 39q-54 0 -92 -24.5t-47 -72.5q-2 -14 -2 -20q0 -33 20 -57.5t49.5 -42t80.5 -40.5q61 -28 98 -51t63 -59t26 -87q0 -16 -3 -36q-15 -85 -78 -134z" />
    <glyph glyph-name="scircumflex" unicode="&#x15d;" horiz-adv-x="445" 
d="M263 713h79l88 -154h-83l-53 93l-84 -93h-89zM326.5 -9q-48.5 -36 -123.5 -36q-57 0 -101.5 20.5t-71 55.5t-31.5 79l68 31q12 -52 47 -80.5t89 -28.5q39 0 64 15t31 47q1 4 1 13q0 30 -25.5 48.5t-76.5 39.5q-46 20 -73 36t-46.5 42.5t-19.5 65.5q0 50 25.5 85.5
t67.5 54t91 18.5q73 0 122 -37.5t54 -94.5l-69 -31q-7 38 -37 61.5t-74 23.5q-38 0 -65 -17.5t-27 -53.5q0 -29 25 -47t76 -39q45 -19 73.5 -35t48.5 -43t20 -66q0 -14 -3 -29q-11 -62 -59.5 -98z" />
    <glyph glyph-name="Scedilla" unicode="&#x15e;" horiz-adv-x="569" 
d="M183 512q0 -33 20 -57.5t49.5 -42t80.5 -40.5q61 -28 98 -51t63 -59t26 -87q0 -16 -3 -36q-15 -85 -78 -134q-66 -50 -169 -50h-2l-27 -48q42 -3 68.5 -25.5t26.5 -59.5q0 -56 -43 -81t-102 -25q-46 0 -79 12l5 60q33 -11 76 -11q32 0 50.5 8t18.5 30q0 35 -78 35
q-17 0 -26 -1l-3 38l42 76q-84 18 -136.5 75.5t-62.5 135.5l77 36q17 -79 68 -126t130 -47q73 0 113 36t40 89q0 33 -20 57.5t-49 41.5t-80 40q-61 28 -98.5 51t-63.5 59t-26 88q0 18 3 37q18 99 97 142q56 32 136 32q72 0 125 -26t82 -67.5t33 -85.5l-76 -36q-8 56 -51 95
t-114 39q-54 0 -92 -24.5t-47 -72.5q-2 -14 -2 -20z" />
    <glyph glyph-name="scedilla" unicode="&#x15f;" horiz-adv-x="445" 
d="M171 301q25 -18 76 -39q45 -19 73.5 -35t48.5 -43t20 -66q0 -14 -3 -29q-11 -62 -59.5 -98t-123.5 -36h-6l-27 -48q42 -3 68.5 -25.5t26.5 -59.5q0 -56 -43 -81t-102 -25q-46 0 -79 12l5 60q33 -11 76 -11q32 0 50.5 8t18.5 30q0 35 -78 35q-17 0 -26 -1l-3 38l44 79
q-55 16 -89 54.5t-40 89.5l68 31q12 -52 47 -80.5t89 -28.5q39 0 64 15t31 47q1 4 1 13q0 30 -25.5 48.5t-76.5 39.5q-46 20 -73 36t-46.5 42.5t-19.5 65.5q0 50 25.5 85.5t67.5 54t91 18.5q73 0 122 -37.5t54 -94.5l-69 -31q-7 38 -37 61.5t-74 23.5q-38 0 -65 -17.5
t-27 -53.5q0 -29 25 -47z" />
    <glyph glyph-name="Scaron" unicode="&#x160;" horiz-adv-x="569" 
d="M314 914l59 -84l86 84h94l-147 -137h-83l-97 137h88zM439 5q-66 -50 -169 -50q-76 0 -135 29t-94 79t-43 111l77 36q17 -79 68 -126t130 -47q73 0 113 36t40 89q0 33 -20 57.5t-49 41.5t-80 40q-61 28 -98.5 51t-63.5 59t-26 88q0 18 3 37q18 99 97 142q56 32 136 32
q72 0 125 -26t82 -67.5t33 -85.5l-76 -36q-8 56 -51 95t-114 39q-54 0 -92 -24.5t-47 -72.5q-2 -14 -2 -20q0 -33 20 -57.5t49.5 -42t80.5 -40.5q61 -28 98 -51t63 -59t26 -87q0 -16 -3 -36q-15 -85 -78 -134z" />
    <glyph glyph-name="scaron" unicode="&#x161;" horiz-adv-x="445" 
d="M233 713l53 -93l84 93h89l-142 -154h-79l-88 154h83zM326.5 -9q-48.5 -36 -123.5 -36q-57 0 -101.5 20.5t-71 55.5t-31.5 79l68 31q12 -52 47 -80.5t89 -28.5q39 0 64 15t31 47q1 4 1 13q0 30 -25.5 48.5t-76.5 39.5q-46 20 -73 36t-46.5 42.5t-19.5 65.5q0 50 25.5 85.5
t67.5 54t91 18.5q73 0 122 -37.5t54 -94.5l-69 -31q-7 38 -37 61.5t-74 23.5q-38 0 -65 -17.5t-27 -53.5q0 -29 25 -47t76 -39q45 -19 73.5 -35t48.5 -43t20 -66q0 -14 -3 -29q-11 -62 -59.5 -98z" />
    <glyph glyph-name="uni0162" unicode="&#x162;" horiz-adv-x="557" 
d="M83 698h540l-13 -79h-227l-114 -653h-6l-34 -59q42 -3 68.5 -25.5t26.5 -59.5q0 -56 -43 -81t-102 -25q-46 0 -79 12l5 60q33 -11 76 -11q32 0 50.5 8t18.5 30q0 35 -78 35q-17 0 -26 -1l-3 38l44 79h-7l114 653h-224z" />
    <glyph glyph-name="uni0163" unicode="&#x163;" horiz-adv-x="358" 
d="M351 412h-148l-48 -271q-4 -28 -4 -37q0 -69 64 -69q36 0 69 22l25 -71q-46 -31 -106 -31h-4l-27 -48q42 -3 68.5 -25.5t26.5 -59.5q0 -56 -43 -81t-102 -25q-46 0 -79 12l5 60q33 -11 76 -11q32 0 50.5 8t18.5 30q0 35 -78 35q-17 0 -26 -1l-3 38l45 81q-66 30 -66 117
q0 20 5 52l48 275h-85l13 74h85l25 145h86l-26 -145h148z" />
    <glyph glyph-name="Tcaron" unicode="&#x164;" horiz-adv-x="557" 
d="M316 914l59 -84l86 84h94l-147 -137h-83l-97 137h88zM83 698h540l-13 -79h-227l-114 -653h-89l114 653h-224z" />
    <glyph glyph-name="tcaron" unicode="&#x165;" horiz-adv-x="368" 
d="M459.5 757q14.5 -15 14.5 -45q0 -6 -2 -24q-10 -53 -46.5 -86.5t-92.5 -42.5l2 45q62 18 78 62h-1q-22 0 -33.5 13.5t-11.5 34.5q0 24 15.5 41t38.5 17q24 0 38.5 -15zM242 631l-26 -145h148l-13 -74h-148l-48 -271q-4 -28 -4 -37q0 -69 64 -69q36 0 69 22l25 -71
q-46 -31 -106 -31q-59 0 -98.5 30t-39.5 101q0 19 5 51l48 275h-85l13 74h85l25 145h86z" />
    <glyph glyph-name="Tbar" unicode="&#x166;" horiz-adv-x="557" 
d="M83 698h540l-13 -79h-227l-42 -238h157l-14 -79h-156l-59 -336h-89l59 336h-154l14 79h153l42 238h-224z" />
    <glyph glyph-name="tbar" unicode="&#x167;" horiz-adv-x="358" 
d="M351 412h-148l-24 -138h148l-13 -74h-149l-10 -59q-4 -28 -4 -37q0 -69 64 -69q36 0 69 22l25 -71q-46 -31 -106 -31q-59 0 -98.5 30t-39.5 101q0 19 5 51l11 63h-85l13 74h85l24 138h-85l13 74h85l25 145h86l-26 -145h148z" />
    <glyph glyph-name="Utilde" unicode="&#x168;" horiz-adv-x="718" 
d="M283 791q11 56 44 87t79 31q27 0 42 -9.5t31 -27.5q9 -12 17 -18t19 -6q16 0 28.5 12.5t19.5 36.5h70q-11 -56 -44 -87t-79 -31q-27 0 -42 9.5t-31 27.5q-9 12 -17 18t-19 6q-16 0 -28.5 -12.5t-19.5 -36.5h-70zM627 698h89l-77 -450q-25 -143 -106 -218t-208 -75
q-124 0 -189.5 66.5t-65.5 180.5q0 29 7 74l73 422h89l-72 -408q-7 -44 -7 -71q0 -87 44 -134.5t128 -47.5q180 0 219 225z" />
    <glyph glyph-name="utilde" unicode="&#x169;" horiz-adv-x="568" 
d="M170 579q11 60 44 93.5t79 33.5q27 0 42 -10t31 -30q9 -13 17 -19.5t19 -6.5q16 0 28.5 13.5t19.5 39.5h70q-11 -60 -44 -93.5t-79 -33.5q-27 0 -42 10t-31 30q-9 13 -17 19.5t-19 6.5q-16 0 -28.5 -14t-19.5 -39h-70zM449 486h85l-91 -520h-74l8 75q-60 -86 -164 -86
q-76 0 -121.5 46t-45.5 129q0 32 5 57l53 299h84l-50 -290q-4 -23 -4 -48q0 -54 25.5 -83t75.5 -29q57 0 103 38.5t59 113.5z" />
    <glyph glyph-name="Umacron" unicode="&#x16a;" horiz-adv-x="718" 
d="M613 816h-320l13 74h320zM627 698h89l-77 -450q-25 -143 -106 -218t-208 -75q-124 0 -189.5 66.5t-65.5 180.5q0 29 7 74l73 422h89l-72 -408q-7 -44 -7 -71q0 -87 44 -134.5t128 -47.5q180 0 219 225z" />
    <glyph glyph-name="umacron" unicode="&#x16b;" horiz-adv-x="568" 
d="M499 599h-320l13 74h320zM449 486h85l-91 -520h-74l8 75q-60 -86 -164 -86q-76 0 -121.5 46t-45.5 129q0 32 5 57l53 299h84l-50 -290q-4 -23 -4 -48q0 -54 25.5 -83t75.5 -29q57 0 103 38.5t59 113.5z" />
    <glyph glyph-name="Ubreve" unicode="&#x16c;" horiz-adv-x="718" 
d="M353.5 806.5q-36.5 30.5 -36.5 81.5q0 9 2 25h78q-1 -5 -1 -14q0 -30 16 -47t49 -17q67 0 85 78h78q-12 -69 -55.5 -103t-111.5 -34q-67 0 -103.5 30.5zM627 698h89l-77 -450q-25 -143 -106 -218t-208 -75q-124 0 -189.5 66.5t-65.5 180.5q0 29 7 74l73 422h89l-72 -408
q-7 -44 -7 -71q0 -87 44 -134.5t128 -47.5q180 0 219 225z" />
    <glyph glyph-name="ubreve" unicode="&#x16d;" horiz-adv-x="568" 
d="M238 591.5q-38 33.5 -38 90.5q0 14 3 30h78q-1 -6 -1 -18q0 -33 16.5 -51.5t51.5 -18.5q36 0 58 21t32 67h78q-13 -76 -59.5 -115t-115.5 -39q-65 0 -103 33.5zM449 486h85l-91 -520h-74l8 75q-60 -86 -164 -86q-76 0 -121.5 46t-45.5 129q0 32 5 57l53 299h84l-50 -290
q-4 -23 -4 -48q0 -54 25.5 -83t75.5 -29q57 0 103 38.5t59 113.5z" />
    <glyph glyph-name="Uring" unicode="&#x16e;" horiz-adv-x="718" 
d="M385 942q31 30 77 30q45 0 75 -30t30 -76t-30 -76t-75 -30q-46 0 -77 30t-31 76t31 76zM425 827q14 -15 37 -15q22 0 35.5 15t13.5 39t-13.5 39t-35.5 15q-23 0 -37 -15t-14 -39t14 -39zM627 698h89l-77 -450q-25 -143 -106 -218t-208 -75q-124 0 -189.5 66.5
t-65.5 180.5q0 29 7 74l73 422h89l-72 -408q-7 -44 -7 -71q0 -87 44 -134.5t128 -47.5q180 0 219 225z" />
    <glyph glyph-name="uring" unicode="&#x16f;" horiz-adv-x="568" 
d="M272 730q31 30 77 30q45 0 75 -30t30 -76t-30 -76t-75 -30q-46 0 -77 30t-31 76t31 76zM312 615q14 -15 37 -15q22 0 35.5 15t13.5 39t-13.5 39t-35.5 15q-23 0 -37 -15t-14 -39t14 -39zM449 486h85l-91 -520h-74l8 75q-60 -86 -164 -86q-76 0 -121.5 46t-45.5 129
q0 32 5 57l53 299h84l-50 -290q-4 -23 -4 -48q0 -54 25.5 -83t75.5 -29q57 0 103 38.5t59 113.5z" />
    <glyph glyph-name="Uhungarumlaut" unicode="&#x170;" horiz-adv-x="718" 
d="M404 776h-75l106 137h95zM555 776h-75l106 137h95zM627 698h89l-77 -450q-25 -143 -106 -218t-208 -75q-124 0 -189.5 66.5t-65.5 180.5q0 29 7 74l73 422h89l-72 -408q-7 -44 -7 -71q0 -87 44 -134.5t128 -47.5q180 0 219 225z" />
    <glyph glyph-name="uhungarumlaut" unicode="&#x171;" horiz-adv-x="568" 
d="M290 559h-75l109 154h94zM441 559h-75l109 154h94zM449 486h85l-91 -520h-74l8 75q-60 -86 -164 -86q-76 0 -121.5 46t-45.5 129q0 32 5 57l53 299h84l-50 -290q-4 -23 -4 -48q0 -54 25.5 -83t75.5 -29q57 0 103 38.5t59 113.5z" />
    <glyph glyph-name="Uogonek" unicode="&#x172;" horiz-adv-x="718" 
d="M627 698h89l-77 -450q-16 -93 -57 -158t-103 -99q-70 -43 -98.5 -76.5t-34.5 -68.5q-2 -14 -2 -19q0 -48 47 -48q36 0 78 34l29 -50q-23 -23 -52 -35t-60 -12q-49 0 -82 27t-33 77q0 13 3 28q11 60 60 107h-9q-124 0 -189.5 66.5t-65.5 180.5q0 29 7 74l73 422h89
l-72 -408q-7 -44 -7 -71q0 -87 44 -134.5t128 -47.5q180 0 219 225z" />
    <glyph glyph-name="uogonek" unicode="&#x173;" horiz-adv-x="568" 
d="M432 -185l29 -50q-23 -23 -52.5 -35t-61.5 -12q-48 0 -81 25.5t-33 73.5q0 60 38 101t101 72q4 37 5 51q-60 -86 -164 -86q-76 0 -121.5 46t-45.5 129q0 32 5 57l53 299h84l-50 -290q-4 -23 -4 -48q0 -54 25.5 -83t75.5 -29q57 0 103 38.5t59 113.5l52 298h85l-91 -520
q-65 -32 -97.5 -60.5t-38.5 -64.5q-1 -5 -1 -14q0 -22 13 -34t34 -12q37 0 79 34z" />
    <glyph glyph-name="Wcircumflex" unicode="&#x174;" horiz-adv-x="956" 
d="M550 914h83l97 -137h-89l-58 84l-87 -84h-93zM592 699l76 -585l269 584h90l-350 -732h-71l-80 568l-272 -568h-70l-105 732h90l77 -584l271 585h75z" />
    <glyph glyph-name="wcircumflex" unicode="&#x175;" horiz-adv-x="765" 
d="M424 713h79l88 -154h-83l-53 93l-84 -93h-89zM450 485l70 -391l190 391h87l-269 -519h-57l-72 379l-194 -379h-58l-101 519h81l69 -390l189 390h65z" />
    <glyph glyph-name="Ycircumflex" unicode="&#x176;" horiz-adv-x="604" 
d="M372 914h83l97 -137h-89l-58 84l-87 -84h-93zM326 367l248 331h102l-325 -425l-53 -307h-88l55 314l-185 418h99z" />
    <glyph glyph-name="ycircumflex" unicode="&#x177;" horiz-adv-x="509" 
d="M374 559l-53 93l-84 -93h-89l142 154h79l88 -154h-83zM448 485h93l-349 -616q-43 -78 -92 -115.5t-109 -37.5q-58 0 -101 35l40 68q27 -23 63 -23q31 0 61.5 23t66.5 81l41 68l-120 517h92l88 -415z" />
    <glyph glyph-name="Ydieresis" unicode="&#x178;" horiz-adv-x="604" 
d="M261.5 813q-16.5 17 -16.5 41t16.5 41t39.5 17q24 0 40.5 -17t16.5 -41t-16.5 -41t-40.5 -17q-23 0 -39.5 17zM466.5 813q-16.5 17 -16.5 41t16.5 41t39.5 17q24 0 40.5 -17t16.5 -41t-16.5 -41t-40.5 -17q-23 0 -39.5 17zM326 367l248 331h102l-325 -425l-53 -307h-88
l55 314l-185 418h99z" />
    <glyph glyph-name="Zacute" unicode="&#x179;" horiz-adv-x="564" 
d="M424 777h-77l106 137h97zM113 619l13 79h480l-6 -43l-487 -609h394l-15 -80h-524l7 44l487 609h-349z" />
    <glyph glyph-name="zacute" unicode="&#x17a;" horiz-adv-x="445" 
d="M311 559h-78l109 154h97zM82 485h368l-6 -45l-343 -402h282l-13 -72h-403l7 46l345 401h-250z" />
    <glyph glyph-name="Zdotaccent" unicode="&#x17b;" horiz-adv-x="564" 
d="M353.5 813q-16.5 17 -16.5 41t16.5 41t39.5 17q24 0 40.5 -17t16.5 -41t-16.5 -41t-40.5 -17q-23 0 -39.5 17zM113 619l13 79h480l-6 -43l-487 -609h394l-15 -80h-524l7 44l487 609h-349z" />
    <glyph glyph-name="zdotaccent" unicode="&#x17c;" horiz-adv-x="445" 
d="M252.5 595.5q-16.5 17.5 -16.5 40.5t16.5 40.5t39.5 17.5q24 0 40.5 -17t16.5 -41q0 -23 -17 -40.5t-40 -17.5t-39.5 17.5zM82 485h368l-6 -45l-343 -402h282l-13 -72h-403l7 46l345 401h-250z" />
    <glyph glyph-name="Zcaron" unicode="&#x17d;" horiz-adv-x="564" 
d="M329 914l59 -84l86 84h94l-147 -137h-83l-97 137h88zM113 619l13 79h480l-6 -43l-487 -609h394l-15 -80h-524l7 44l487 609h-349z" />
    <glyph glyph-name="zcaron" unicode="&#x17e;" horiz-adv-x="445" 
d="M235 713l53 -93l84 93h89l-142 -154h-79l-88 154h83zM82 485h368l-6 -45l-343 -402h282l-13 -72h-403l7 46l345 401h-250z" />
    <glyph glyph-name="longs" unicode="&#x17f;" horiz-adv-x="335" 
d="M445 701l-42 -64q-28 21 -68 21q-39 0 -62.5 -26t-36.5 -99l-105 -600q-21 -120 -59 -168.5t-105 -48.5q-31 0 -56.5 8.5t-40.5 23.5l41 68q24 -20 51 -20q24 0 39 14t26.5 47.5t22.5 97.5l80 458h-88l12 73h88l10 55q19 108 68 152.5t119 44.5q67 0 106 -37z" />
    <glyph glyph-name="uni018F" unicode="&#x18f;" horiz-adv-x="692" 
d="M591.5 630.5q69.5 -79.5 69.5 -218.5q0 -54 -10 -110q-30 -174 -128.5 -260.5t-242.5 -86.5q-110 0 -177 49.5t-67 149.5q0 220 357 220q81 0 171 -10q3 32 3 59q0 103 -46.5 154t-135.5 51q-66 0 -117.5 -29.5t-90.5 -89.5l-61 49q44 75 117.5 113.5t160.5 38.5
q128 0 197.5 -79.5zM455.5 96q67.5 59 95.5 187q-99 11 -167 11q-127 0 -190 -34t-63 -105q0 -57 39 -87.5t114 -30.5q104 0 171.5 59z" />
    <glyph glyph-name="florin" unicode="&#x192;" 
d="M647 664l-50 -60q-21 26 -61 26q-36 0 -65 -27.5t-55 -100.5l-6 -16h152l-13 -73h-165l-86 -244q-41 -117 -93.5 -165.5t-124.5 -48.5q-39 0 -68 11.5t-47 31.5l49 64q26 -27 64 -27q43 0 73.5 35t62.5 127l77 216h-115l13 73h127l11 30q38 108 91 151t119 43
q75 0 110 -46z" />
    <glyph glyph-name="Ohorn" unicode="&#x1a0;" horiz-adv-x="756" 
d="M803 824q3 -71 -11 -111.5t-50.5 -59t-103.5 -18.5h-29q51 -40 78.5 -103.5t27.5 -143.5q0 -39 -8 -87q-19 -105 -72.5 -183.5t-130 -120.5t-162.5 -42q-85 0 -150.5 40.5t-101.5 113.5t-36 166q0 38 8 86q19 107 73.5 186t136 121t179.5 42q20 0 45.5 -2t35.5 -3
q58 -6 90 -6q66 0 88.5 28.5t17.5 96.5h75zM622 394q0 106 -52 170.5t-146 64.5q-102 0 -175 -74t-95 -202q-7 -39 -7 -81q0 -106 52 -170.5t148 -64.5q101 0 173.5 74t94.5 202q7 39 7 81z" />
    <glyph glyph-name="ohorn" unicode="&#x1a1;" horiz-adv-x="584" 
d="M616 609q3 -67 -8 -106t-44 -58.5t-99 -19.5h-1q31 -29 48 -71t17 -94q0 -24 -5 -56q-14 -77 -54.5 -133.5t-98 -86t-119.5 -29.5q-63 0 -112.5 30t-77 83t-27.5 120q0 24 5 57q13 77 55 134t103 87.5t132 30.5q29 0 75 -6q33 -5 54 -5q48 0 65.5 24.5t17.5 68.5
q0 20 -1 30h75zM441 262q0 71 -35.5 113t-97.5 42q-65 0 -115 -46.5t-65 -133.5q-5 -30 -5 -52q0 -69 36.5 -109.5t98.5 -40.5q66 0 115 45.5t64 131.5q4 24 4 50z" />
    <glyph glyph-name="Uhorn" unicode="&#x1af;" horiz-adv-x="718" 
d="M846 824q3 -66 -10 -105t-44 -58.5t-87 -24.5l-66 -388q-25 -143 -106 -218t-208 -75q-124 0 -189.5 66.5t-65.5 180.5q0 29 7 74l73 422h89l-72 -408q-7 -36 -7 -72q0 -86 44 -133.5t128 -47.5q180 0 219 225l76 436h33q65 0 88.5 22t23.5 74q0 19 -1 30h75z" />
    <glyph glyph-name="uhorn" unicode="&#x1b0;" horiz-adv-x="568" 
d="M664 612q3 -66 -10 -105.5t-44 -58.5t-87 -24l-80 -458h-74l8 75q-60 -86 -164 -86q-76 0 -121.5 46t-45.5 129q0 32 5 57l53 299h84l-50 -290q-4 -23 -4 -48q0 -54 25.5 -83t75.5 -29q57 0 103 38.5t59 113.5l52 298h29q65 0 88.5 22t23.5 74q0 19 -1 30h75z" />
    <glyph glyph-name="uni01CD" unicode="&#x1cd;" horiz-adv-x="658" 
d="M362 914l59 -84l86 84h94l-147 -137h-83l-97 137h88zM436 698l164 -732h-92l-44 210h-303l-114 -210h-97l411 732h75zM448 256l-67 324l-176 -324h243z" />
    <glyph glyph-name="uni01CE" unicode="&#x1ce;" horiz-adv-x="594" 
d="M293 712l53 -93l84 93h89l-142 -154h-79l-88 154h83zM558 486l-91 -520h-73q5 41 8 70q-59 -81 -158 -81q-58 0 -106 29t-75.5 82t-27.5 123q0 31 6 64q13 77 52 132.5t92.5 83.5t110.5 28t99.5 -28.5t63.5 -77.5q17 59 25 95h74zM362 75q48 40 64 135q5 32 5 53
q0 76 -40 114.5t-99 38.5q-62 0 -106 -43t-58 -126q-5 -25 -5 -57q0 -72 35.5 -113.5t97.5 -41.5q58 0 106 40z" />
    <glyph glyph-name="uni01CF" unicode="&#x1cf;" horiz-adv-x="254" 
d="M165 913l59 -84l86 84h94l-147 -137h-83l-97 137h88zM118 -34h-88l127 732h89z" />
    <glyph glyph-name="uni01D0" unicode="&#x1d0;" horiz-adv-x="229" 
d="M123 713l53 -93l84 93h89l-142 -154h-79l-88 154h83zM19 -34l92 519h85l-92 -519h-85z" />
    <glyph glyph-name="uni01D1" unicode="&#x1d1;" horiz-adv-x="748" 
d="M411 913l59 -84l86 84h94l-147 -137h-83l-97 137h88zM134.5 546.5q53.5 79.5 130.5 121.5t164 42q85 0 150 -41t100.5 -114t35.5 -166q0 -40 -8 -88q-19 -105 -72.5 -183.5t-130 -120.5t-162.5 -42q-85 0 -150.5 40.5t-101.5 113.5t-36 166q0 38 8 86q19 106 72.5 185.5z
M147 272q0 -106 52 -170.5t148 -64.5q101 0 173.5 74t94.5 202q7 39 7 81q0 106 -52 170.5t-146 64.5q-102 0 -175 -74t-95 -202q-7 -39 -7 -81z" />
    <glyph glyph-name="uni01D2" unicode="&#x1d2;" horiz-adv-x="579" 
d="M297 712l53 -93l84 93h89l-142 -154h-79l-88 154h83zM94 379q41 57 99 87.5t121 30.5q62 0 111 -30.5t76.5 -84t27.5 -121.5q0 -24 -5 -57q-14 -77 -54.5 -133.5t-98 -86t-119.5 -29.5q-63 0 -112.5 30t-77 83t-27.5 120q0 24 5 57q13 77 54 134zM123 185
q0 -69 36.5 -109.5t98.5 -40.5q66 0 115 45.5t64 131.5q4 24 4 50q0 71 -35.5 113t-97.5 42q-65 0 -115 -46.5t-65 -133.5q-5 -30 -5 -52z" />
    <glyph glyph-name="uni01D3" unicode="&#x1d3;" horiz-adv-x="718" 
d="M396 913l59 -84l86 84h94l-147 -137h-83l-97 137h88zM627 698h89l-77 -450q-25 -143 -106 -218t-208 -75q-124 0 -189.5 66.5t-65.5 180.5q0 29 7 74l73 422h89l-72 -408q-7 -44 -7 -71q0 -87 44 -134.5t128 -47.5q180 0 219 225z" />
    <glyph glyph-name="uni01D4" unicode="&#x1d4;" horiz-adv-x="568" 
d="M288 713l53 -93l84 93h89l-142 -154h-79l-88 154h83zM449 486h85l-91 -520h-74l8 75q-60 -86 -164 -86q-76 0 -121.5 46t-45.5 129q0 32 5 57l53 299h84l-50 -290q-4 -23 -4 -48q0 -54 25.5 -83t75.5 -29q57 0 103 38.5t59 113.5z" />
    <glyph glyph-name="uni01D5" unicode="&#x1d5;" horiz-adv-x="718" 
d="M305 883l9 51h320l-9 -51h-320zM308.5 768q-16.5 13 -16.5 32q0 18 16.5 31t39.5 13q24 0 40.5 -13t16.5 -31q0 -19 -16.5 -32t-40.5 -13q-23 0 -39.5 13zM513.5 768q-16.5 13 -16.5 32q0 18 16.5 31t39.5 13q24 0 40.5 -13t16.5 -31q0 -19 -16.5 -32t-40.5 -13
q-23 0 -39.5 13zM627 698h89l-77 -450q-25 -143 -106 -218t-208 -75q-124 0 -189.5 66.5t-65.5 180.5q0 29 7 74l73 422h89l-72 -408q-7 -36 -7 -72q0 -86 44 -133.5t128 -47.5q180 0 219 225z" />
    <glyph glyph-name="uni01D6" unicode="&#x1d6;" horiz-adv-x="568" 
d="M528 763h-320l13 74h320zM202.5 595q-16.5 17 -16.5 41t16.5 41t39.5 17q24 0 40.5 -17t16.5 -41t-16.5 -41t-40.5 -17q-23 0 -39.5 17zM407.5 595q-16.5 17 -16.5 41t16.5 41t39.5 17q24 0 40.5 -17t16.5 -41t-16.5 -41t-40.5 -17q-23 0 -39.5 17zM449 486h85l-91 -520
h-74l8 75q-60 -86 -164 -86q-76 0 -121.5 46t-45.5 129q0 32 5 57l53 299h84l-50 -290q-4 -23 -4 -48q0 -54 25.5 -83t75.5 -29q57 0 103 38.5t59 113.5z" />
    <glyph glyph-name="uni01D7" unicode="&#x1d7;" horiz-adv-x="718" 
d="M410 864l96 80h94l-115 -80h-75zM308.5 768q-16.5 13 -16.5 32q0 18 16.5 31t39.5 13q24 0 40.5 -13t16.5 -31q0 -19 -16.5 -32t-40.5 -13q-23 0 -39.5 13zM513.5 768q-16.5 13 -16.5 32q0 18 16.5 31t39.5 13q24 0 40.5 -13t16.5 -31q0 -19 -16.5 -32t-40.5 -13
q-23 0 -39.5 13zM627 698h89l-77 -450q-25 -143 -106 -218t-208 -75q-124 0 -189.5 66.5t-65.5 180.5q0 29 7 74l73 422h89l-72 -408q-7 -36 -7 -72q0 -86 44 -133.5t128 -47.5q180 0 219 225z" />
    <glyph glyph-name="uni01D8" unicode="&#x1d8;" horiz-adv-x="568" 
d="M395 732h-77l97 137h96zM202.5 595q-16.5 17 -16.5 41t16.5 41t39.5 17q24 0 40.5 -17t16.5 -41t-16.5 -41t-40.5 -17q-23 0 -39.5 17zM407.5 595q-16.5 17 -16.5 41t16.5 41t39.5 17q24 0 40.5 -17t16.5 -41t-16.5 -41t-40.5 -17q-23 0 -39.5 17zM449 486h85l-91 -520
h-74l8 75q-60 -86 -164 -86q-76 0 -121.5 46t-45.5 129q0 32 5 57l53 299h84l-50 -290q-4 -23 -4 -48q0 -54 25.5 -83t75.5 -29q57 0 103 38.5t59 113.5z" />
    <glyph glyph-name="uni01D9" unicode="&#x1d9;" horiz-adv-x="718" 
d="M628 945l-136 -81h-83l-108 81h102l55 -37l68 37h102zM308.5 768q-16.5 13 -16.5 32q0 18 16.5 31t39.5 13q24 0 40.5 -13t16.5 -31q0 -19 -16.5 -32t-40.5 -13q-23 0 -39.5 13zM513.5 768q-16.5 13 -16.5 32q0 18 16.5 31t39.5 13q24 0 40.5 -13t16.5 -31
q0 -19 -16.5 -32t-40.5 -13q-23 0 -39.5 13zM627 698h89l-77 -450q-25 -143 -106 -218t-208 -75q-124 0 -189.5 66.5t-65.5 180.5q0 29 7 74l73 422h89l-72 -408q-7 -36 -7 -72q0 -86 44 -133.5t128 -47.5q180 0 219 225z" />
    <glyph glyph-name="uni01DA" unicode="&#x1da;" horiz-adv-x="568" 
d="M319 869l53 -79l80 79h90l-139 -137h-79l-91 137h86zM202.5 595q-16.5 17 -16.5 41t16.5 41t39.5 17q24 0 40.5 -17t16.5 -41t-16.5 -41t-40.5 -17q-23 0 -39.5 17zM407.5 595q-16.5 17 -16.5 41t16.5 41t39.5 17q24 0 40.5 -17t16.5 -41t-16.5 -41t-40.5 -17
q-23 0 -39.5 17zM449 486h85l-91 -520h-74l8 75q-60 -86 -164 -86q-76 0 -121.5 46t-45.5 129q0 32 5 57l53 299h84l-50 -290q-4 -23 -4 -48q0 -54 25.5 -83t75.5 -29q57 0 103 38.5t59 113.5z" />
    <glyph glyph-name="uni01DB" unicode="&#x1db;" horiz-adv-x="718" 
d="M330 944h94l68 -80h-75zM308.5 768q-16.5 13 -16.5 32q0 18 16.5 31t39.5 13q24 0 40.5 -13t16.5 -31q0 -19 -16.5 -32t-40.5 -13q-23 0 -39.5 13zM513.5 768q-16.5 13 -16.5 32q0 18 16.5 31t39.5 13q24 0 40.5 -13t16.5 -31q0 -19 -16.5 -32t-40.5 -13q-23 0 -39.5 13z
M627 698h89l-77 -450q-25 -143 -106 -218t-208 -75q-124 0 -189.5 66.5t-65.5 180.5q0 29 7 74l73 422h89l-72 -408q-7 -36 -7 -72q0 -86 44 -133.5t128 -47.5q180 0 219 225z" />
    <glyph glyph-name="uni01DC" unicode="&#x1dc;" horiz-adv-x="568" 
d="M333 732l-68 137h92l49 -137h-73zM202.5 595q-16.5 17 -16.5 41t16.5 41t39.5 17q24 0 40.5 -17t16.5 -41t-16.5 -41t-40.5 -17q-23 0 -39.5 17zM407.5 595q-16.5 17 -16.5 41t16.5 41t39.5 17q24 0 40.5 -17t16.5 -41t-16.5 -41t-40.5 -17q-23 0 -39.5 17zM449 486h85
l-91 -520h-74l8 75q-60 -86 -164 -86q-76 0 -121.5 46t-45.5 129q0 32 5 57l53 299h84l-50 -290q-4 -23 -4 -48q0 -54 25.5 -83t75.5 -29q57 0 103 38.5t59 113.5z" />
    <glyph glyph-name="uni01E5" unicode="&#x1e5;" horiz-adv-x="629" 
d="M520 262h98l-12 -72h-99l-38 -219q-16 -93 -59.5 -150t-98 -81t-110.5 -24q-52 0 -97.5 20t-75 56t-35.5 83l68 31q17 -55 55 -82.5t91 -27.5q67 0 115.5 44t64.5 139l8 48q-59 -72 -151 -72q-58 0 -106 29t-75.5 82t-27.5 123q0 31 6 64q13 77 52 132.5t92.5 83.5
t110.5 28t99.5 -28.5t63.5 -77.5q14 42 25 95h75zM299 190l12 72h120q0 76 -40 115t-99 39q-62 0 -106 -43t-58 -126q-5 -25 -5 -57q0 -72 35.5 -113.5t97.5 -41.5q55 0 101.5 35.5t64.5 119.5h-123z" />
    <glyph glyph-name="gcaron" unicode="&#x1e7;" horiz-adv-x="595" 
d="M507 713l-142 -154h-79l-88 154h83l53 -93l84 93h89zM559 486l-90 -515q-16 -93 -59.5 -150t-98 -81t-110.5 -24q-52 0 -97.5 20t-75 56t-35.5 83l68 31q17 -55 55 -82.5t91 -27.5q67 0 115.5 44t64.5 139l8 48q-59 -72 -151 -72q-58 0 -106 29t-75.5 82t-27.5 123
q0 31 6 64q13 77 52 132.5t92.5 83.5t110.5 28t99.5 -28.5t63.5 -77.5q14 42 25 95h75zM431 263q0 76 -40 114.5t-99 38.5q-62 0 -106 -43t-58 -126q-5 -25 -5 -57q0 -72 35.5 -113.5t97.5 -41.5q58 0 106 40t64 135q5 32 5 53z" />
    <glyph glyph-name="uni01E9" unicode="&#x1e9;" horiz-adv-x="518" 
d="M164 927l53 -79l80 79h90l-139 -137h-79l-91 137h86zM153 240l274 245h112l-238 -210l166 -309h-105l-129 249l-100 -88l-29 -161h-85l135 761h85z" />
    <glyph glyph-name="uni01EF" unicode="&#x1ef;" horiz-adv-x="496" 
d="M240 713l53 -93l84 93h89l-142 -154h-79l-88 154h83zM480 486l-10 -57l-247 -235q97 -10 144 -67t47 -140q0 -23 -5 -53q-19 -107 -93 -162.5t-173 -55.5q-92 0 -152.5 48.5t-67.5 137.5l77 35q5 -69 44.5 -104.5t102.5 -35.5q65 0 112.5 37.5t61.5 112.5q3 18 3 35
q0 60 -41 99t-132 39q-24 0 -51 -3l10 71l230 224h-288l13 74h415z" />
    <glyph glyph-name="uni01F0" unicode="&#x1f0;" horiz-adv-x="223" 
d="M116 713l53 -93l84 93h89l-142 -154h-79l-88 154h83zM-200 -247l40 68q28 -25 67 -25q38 0 63 28.5t37 97.5l98 563h84l-102 -584q-17 -96 -65.5 -140.5t-116.5 -44.5q-64 0 -105 37z" />
    <glyph glyph-name="uni01F9" unicode="&#x1f9;" horiz-adv-x="568" 
d="M301 559l-74 154h91l55 -154h-72zM461.5 451q45.5 -46 45.5 -129q0 -32 -5 -57l-53 -299h-84l51 290q5 28 5 49q0 53 -26 82t-76 29q-57 0 -103.5 -38.5t-59.5 -113.5l-52 -298h-84l91 520h74q-2 -13 -7 -53l-3 -23q60 87 166 87q75 0 120.5 -46z" />
    <glyph glyph-name="Aringacute" unicode="&#x1fa;" horiz-adv-x="658" 
d="M479 874h-77l104 72h96zM352.5 831.5q27.5 15.5 69.5 15.5q40 0 67 -15.5t27 -39.5q0 -25 -27 -40.5t-67 -15.5q-42 0 -69.5 15.5t-27.5 40.5q0 24 27.5 39.5zM388.5 779q12.5 -5 33.5 -5q20 0 32 5t12 13t-12 12.5t-32 4.5q-21 0 -33.5 -4.5t-12.5 -12.5t12.5 -13z
M436 698l164 -732h-92l-44 210h-303l-114 -210h-97l411 732h75zM448 256l-67 324l-176 -324h243z" />
    <glyph glyph-name="aringacute" unicode="&#x1fb;" horiz-adv-x="594" 
d="M407 777h-77l104 122h96zM280.5 704.5q27.5 26.5 69.5 26.5q40 0 67 -26.5t27 -67.5q0 -42 -27 -68.5t-67 -26.5q-42 0 -69.5 26.5t-27.5 68.5q0 41 27.5 67.5zM316.5 602q12.5 -14 33.5 -14q20 0 32 14t12 35t-12 34.5t-32 13.5q-21 0 -33.5 -13.5t-12.5 -34.5t12.5 -35
zM558 486l-91 -520h-73q5 41 8 70q-59 -81 -158 -81q-58 0 -106 29t-75.5 82t-27.5 123q0 31 6 64q13 77 52 132.5t92.5 83.5t110.5 28t99.5 -28.5t63.5 -77.5q17 59 25 95h74zM362 75q48 40 64 135q5 32 5 53q0 76 -40 114.5t-99 38.5q-62 0 -106 -43t-58 -126
q-5 -25 -5 -57q0 -72 35.5 -113.5t97.5 -41.5q58 0 106 40z" />
    <glyph glyph-name="AEacute" unicode="&#x1fc;" horiz-adv-x="1011" 
d="M756 777h-77l106 137h97zM552 699h479l-14 -79h-360l-42 -236h322l-14 -79h-322l-46 -260h371l-14 -79h-460l38 216h-262l-177 -216h-103zM504 262l59 331l-270 -331h211z" />
    <glyph glyph-name="aeacute" unicode="&#x1fd;" horiz-adv-x="868" 
d="M529 712h97l-128 -154h-78zM690.5 51.5q34.5 18.5 65.5 59.5l60 -43q-34 -57 -89.5 -85t-120.5 -28q-69 0 -118 31t-72 88q-28 -58 -83 -88.5t-123 -30.5q-53 0 -95 19t-65.5 54t-23.5 79q0 14 3 29q14 76 82.5 115t174.5 39q57 0 114 -10q3 21 3 39q0 51 -26.5 76
t-82.5 25q-46 0 -80 -18.5t-61 -58.5l-61 43q33 55 88 83t121 28q65 0 108.5 -26t60.5 -75q39 49 93.5 75t114.5 26q73 0 118.5 -37.5t45.5 -104.5q0 -78 -67.5 -120t-198.5 -42q-48 0 -103 6q-4 -80 35.5 -123t105.5 -43q42 0 76.5 18.5zM556 382.5q-51 -36.5 -71 -113.5
q52 -5 86 -5q87 0 136 23t49 68q0 32 -22 48t-63 16q-64 0 -115 -36.5zM388 212q-48 8 -98 8q-84 0 -130 -29t-46 -83q0 -36 27 -58t74 -22q58 0 105.5 34t57.5 93z" />
    <glyph glyph-name="Oslashacute" unicode="&#x1fe;" horiz-adv-x="762" 
d="M439 776h-77l106 137h97zM620 733h93l-94 -131q44 -51 68.5 -119.5t24.5 -149.5q0 -110 -43.5 -196t-119 -134t-168.5 -48q-104 0 -184 57l-57 -80h-93l94 132q-44 51 -67.5 119t-23.5 150q0 110 43.5 196t119 133.5t168.5 47.5q102 0 182 -57zM194 138l321 448
q-57 43 -134 43q-72 0 -125.5 -37t-82.5 -104t-29 -155q0 -117 50 -195zM567 528l-321 -447q58 -44 135 -44q72 0 125.5 37.5t82 104.5t28.5 154q0 117 -50 195z" />
    <glyph glyph-name="oslashacute" unicode="&#x1ff;" horiz-adv-x="586" 
d="M377 558h-78l109 154h97zM491 520h96l-97 -113q42 -63 42 -146q0 -24 -5 -57q-14 -77 -54.5 -133.5t-98 -86t-119.5 -29.5q-71 0 -123 37l-52 -60h-96l96 112q-42 59 -42 143q0 25 5 58q13 77 54 134t99 87.5t121 30.5q70 0 122 -37zM126 186q0 -40 13 -74l246 285
q-31 20 -74 20q-65 0 -115 -46.5t-65 -133.5q-5 -30 -5 -51zM444 264q0 43 -13 75l-245 -284q32 -20 75 -20q66 0 115 45.5t64 131.5q4 24 4 52z" />
    <glyph glyph-name="uni0218" unicode="&#x218;" horiz-adv-x="569" 
d="M183 512q0 -32 20 -56t48.5 -40.5t80.5 -39.5q62 -28 99 -50.5t63.5 -58.5t26.5 -88q0 -21 -4 -40q-15 -85 -78 -134q-66 -50 -169 -50q-76 0 -135 29t-94 79t-43 111l77 36q17 -79 68 -126t130 -47q66 0 104.5 30t47.5 79q2 14 2 20q0 34 -20.5 59t-50 42t-81.5 40
q-60 27 -97 49t-63 57t-26 86q0 18 3 37q18 99 97 142q56 32 136 32q72 0 125 -26t82 -67.5t33 -85.5l-76 -36q-8 56 -51 95t-114 39q-54 0 -92 -24.5t-47 -72.5q-2 -14 -2 -20zM269 -89.5q15 -15.5 15 -46.5q0 -6 -2 -22q-9 -53 -46.5 -86.5t-92.5 -42.5l2 45q64 18 78 62
h-1q-22 0 -33.5 13t-11.5 33q0 25 15 42.5t38 17.5q24 0 39 -15.5z" />
    <glyph glyph-name="uni0219" unicode="&#x219;" horiz-adv-x="445" 
d="M171 301q25 -18 76 -39q45 -19 73.5 -35t48.5 -43t20 -66q0 -14 -3 -29q-11 -62 -59.5 -98t-123.5 -36q-57 0 -101.5 20.5t-71 55.5t-31.5 79l68 31q12 -52 47 -80.5t89 -28.5q39 0 64 15t31 47q1 4 1 13q0 30 -25.5 48.5t-76.5 39.5q-46 20 -73 36t-46.5 42.5
t-19.5 65.5q0 50 25.5 85.5t67.5 54t91 18.5q73 0 122 -37.5t54 -94.5l-69 -31q-7 38 -37 61.5t-74 23.5q-38 0 -65 -17.5t-27 -53.5q0 -29 25 -47zM198 -89.5q15 -15.5 15 -46.5q0 -6 -2 -22q-9 -53 -46.5 -86.5t-92.5 -42.5l2 45q64 18 78 62h-1q-22 0 -33.5 13t-11.5 33
q0 25 15 42.5t38 17.5q24 0 39 -15.5z" />
    <glyph glyph-name="uni021A" unicode="&#x21a;" horiz-adv-x="557" 
d="M70 619l13 79h540l-13 -79h-227l-114 -653h-89l114 653h-224zM246 -89.5q15 -15.5 15 -46.5q0 -6 -2 -22q-9 -53 -46.5 -86.5t-92.5 -42.5l2 45q64 18 78 62h-1q-22 0 -33.5 13t-11.5 33q0 25 15 42.5t38 17.5q24 0 39 -15.5z" />
    <glyph glyph-name="uni021B" unicode="&#x21b;" horiz-adv-x="358" 
d="M203 412l-48 -271q-4 -28 -4 -37q0 -69 64 -69q36 0 69 22l25 -71q-46 -31 -106 -31q-59 0 -98.5 30t-39.5 101q0 19 5 51l48 275h-85l13 74h85l25 145h86l-26 -145h148l-13 -74h-148zM200 -89.5q15 -15.5 15 -46.5q0 -6 -2 -22q-9 -53 -46.5 -86.5t-92.5 -42.5l2 45
q64 18 78 62h-1q-22 0 -33.5 13t-11.5 33q0 25 15 42.5t38 17.5q24 0 39 -15.5z" />
    <glyph glyph-name="uni021F" unicode="&#x21f;" horiz-adv-x="569" 
d="M164 927l53 -79l80 79h90l-139 -137h-79l-91 137h86zM462.5 451q45.5 -46 45.5 -129q0 -32 -5 -57l-53 -299h-84l51 290q5 28 5 49q0 53 -26 82t-76 29q-54 0 -99 -34.5t-61 -100.5l-55 -315h-84l133 761h85l-54 -305q30 38 70 56.5t87 18.5q75 0 120.5 -46z" />
    <glyph glyph-name="uni0237" unicode="&#x237;" horiz-adv-x="223" 
d="M-200 -247l40 68q28 -25 67 -25q38 0 63 28.5t37 97.5l98 563h84l-102 -584q-17 -96 -65.5 -140.5t-116.5 -44.5q-64 0 -105 37z" />
    <glyph glyph-name="uni0251" unicode="&#x251;" horiz-adv-x="594" 
d="M558 486l-91 -520h-73q5 41 8 70q-59 -81 -158 -81q-58 0 -106 29t-75.5 82t-27.5 123q0 31 6 64q13 77 52 132.5t92.5 83.5t110.5 28t99.5 -28.5t63.5 -77.5q17 59 25 95h74zM362 75q48 40 64 135q5 32 5 53q0 76 -40 114.5t-99 38.5q-62 0 -106 -43t-58 -126
q-5 -25 -5 -57q0 -72 35.5 -113.5t97.5 -41.5q58 0 106 40z" />
    <glyph glyph-name="uni0259" unicode="&#x259;" horiz-adv-x="508" 
d="M161.5 400.5q-34.5 -18.5 -65.5 -59.5l-60 43q34 57 89.5 85t120.5 28q64 0 112.5 -27t75.5 -77.5t27 -117.5q0 -30 -6 -63q-14 -82 -55 -140t-99 -87.5t-124 -29.5q-75 0 -121 37.5t-46 104.5q0 80 70 116t216 36q21 0 75 -2q1 9 1 25q0 72 -36 109.5t-98 37.5
q-42 0 -76.5 -18.5zM290 68q48 35 69 108q-47 3 -86 3q-87 0 -132 -19t-45 -63q0 -32 22 -48t63 -16q61 0 109 35z" />
    <glyph glyph-name="uni0261" unicode="&#x261;" horiz-adv-x="595" 
d="M559 486l-90 -515q-16 -93 -59.5 -150t-98 -81t-110.5 -24q-52 0 -97.5 20t-75 56t-35.5 83l68 31q17 -55 55 -82.5t91 -27.5q67 0 115.5 44t64.5 139l8 48q-59 -72 -151 -72q-58 0 -106 29t-75.5 82t-27.5 123q0 31 6 64q13 77 52 132.5t92.5 83.5t110.5 28t99.5 -28.5
t63.5 -77.5q14 42 25 95h75zM431 263q0 76 -40 114.5t-99 38.5q-62 0 -106 -43t-58 -126q-5 -25 -5 -57q0 -72 35.5 -113.5t97.5 -41.5q58 0 106 40t64 135q5 32 5 53z" />
    <glyph glyph-name="uni0292" unicode="&#x292;" horiz-adv-x="496" 
d="M480 486l-10 -57l-247 -235q97 -10 144 -67t47 -140q0 -23 -5 -53q-19 -107 -93 -162.5t-173 -55.5q-92 0 -152.5 48.5t-67.5 137.5l77 35q5 -69 44.5 -104.5t102.5 -35.5q65 0 112.5 37.5t61.5 112.5q3 18 3 35q0 60 -41 99t-132 39q-24 0 -51 -3l10 71l230 224h-288
l13 74h415z" />
    <glyph glyph-name="uni02BB" unicode="&#x2bb;" horiz-adv-x="225" 
d="M254 723q-71 -17 -88 -91q23 0 37 -15t14 -37q0 -26 -18.5 -45t-43.5 -19t-40.5 17t-15.5 50q0 18 2 28q13 70 53 112.5t102 52.5z" />
    <glyph glyph-name="circumflex" unicode="&#x2c6;" horiz-adv-x="415" 
d="M296 713h79l88 -154h-83l-53 93l-84 -93h-89z" />
    <glyph glyph-name="caron" unicode="&#x2c7;" horiz-adv-x="415" 
d="M293 713l53 -93l84 93h89l-142 -154h-79l-88 154h83z" />
    <glyph glyph-name="breve" unicode="&#x2d8;" horiz-adv-x="492" 
d="M269 591.5q-38 33.5 -38 90.5q0 14 3 30h78q-1 -6 -1 -18q0 -33 16.5 -51.5t51.5 -18.5q36 0 58 21t32 67h78q-13 -76 -59.5 -115t-115.5 -39q-65 0 -103 33.5z" />
    <glyph glyph-name="dotaccent" unicode="&#x2d9;" horiz-adv-x="230" 
d="M203.5 595.5q-16.5 17.5 -16.5 40.5t16.5 40.5t39.5 17.5q24 0 40.5 -17t16.5 -41q0 -23 -17 -40.5t-40 -17.5t-39.5 17.5z" />
    <glyph glyph-name="ring" unicode="&#x2da;" horiz-adv-x="305" 
d="M213 730q31 30 77 30q45 0 75 -30t30 -76t-30 -76t-75 -30q-46 0 -77 30t-31 76t31 76zM253 615q14 -15 37 -15q22 0 35.5 15t13.5 39t-13.5 39t-35.5 15q-23 0 -37 -15t-14 -39t14 -39z" />
    <glyph glyph-name="ogonek" unicode="&#x2db;" horiz-adv-x="358" 
d="M127 -237q-23 -23 -52.5 -35t-61.5 -12q-48 0 -81 25.5t-33 73.5q0 63 41 104.5t110 74.5l59 -30q-65 -32 -97.5 -60.5t-38.5 -64.5q-1 -5 -1 -14q0 -22 13 -34t34 -12q37 0 79 34z" />
    <glyph glyph-name="tilde" unicode="&#x2dc;" horiz-adv-x="421" 
d="M43 579q11 60 44 93.5t79 33.5q27 0 42 -10t31 -30q9 -13 17 -19.5t19 -6.5q16 0 28.5 13.5t19.5 39.5h70q-11 -60 -44 -93.5t-79 -33.5q-27 0 -42 10t-31 30q-9 13 -17 19.5t-19 6.5q-16 0 -28.5 -14t-19.5 -39h-70z" />
    <glyph glyph-name="hungarumlaut" unicode="&#x2dd;" horiz-adv-x="403" 
d="M228 559h-75l109 154h94zM379 559h-75l109 154h94z" />
    <glyph glyph-name="dotbelowcomb" unicode="&#x323;" horiz-adv-x="0" 
d="M-302.5 -204.5q-16.5 17.5 -16.5 40.5t16.5 40.5t39.5 17.5q24 0 40.5 -17t16.5 -41q0 -23 -17 -40.5t-40 -17.5t-39.5 17.5z" />
    <glyph glyph-name="uni0326" unicode="&#x326;" horiz-adv-x="0" 
d="M-133 -89.5q15 -15.5 15 -46.5q0 -6 -2 -22q-9 -53 -46.5 -86.5t-92.5 -42.5l2 45q64 18 78 62h-1q-22 0 -33.5 13t-11.5 33q0 25 15 42.5t38 17.5q24 0 39 -15.5z" />
    <glyph glyph-name="uni0338" unicode="&#x338;" horiz-adv-x="0" 
d="M-564 -273l536 971h88l-536 -971h-88z" />
    <glyph glyph-name="tonos" unicode="&#x384;" horiz-adv-x="288" 
d="M191 559h-77l93 154h96z" />
    <glyph glyph-name="dieresistonos" unicode="&#x385;" horiz-adv-x="600" 
d="M286 559h-64l65 154h83zM118.5 595.5q-16.5 17.5 -16.5 40.5q0 24 16 41t39 17q24 0 40.5 -17t16.5 -41t-16.5 -41t-40.5 -17q-22 0 -38.5 17.5zM384.5 595.5q-16.5 17.5 -16.5 40.5q0 24 16 41t39 17q24 0 40.5 -17t16.5 -41t-16.5 -41t-40.5 -17q-22 0 -38.5 17.5z" />
    <glyph glyph-name="Alphatonos" unicode="&#x386;" horiz-adv-x="658" 
d="M193 545h-71l61 154h90zM436 698l164 -732h-92l-44 210h-303l-114 -210h-97l411 732h75zM448 256l-67 324l-176 -324h243z" />
    <glyph glyph-name="Epsilontonos" unicode="&#x388;" horiz-adv-x="681" 
d="M123 544h-71l61 154h90zM254 698h445l-13 -79h-357l-41 -235h319l-14 -79h-319l-45 -260h367l-14 -79h-455z" />
    <glyph glyph-name="Etatonos" unicode="&#x389;" horiz-adv-x="829" 
d="M123 544h-71l61 154h90zM288 386h388l55 312h89l-128 -732h-89l59 340h-388l-59 -340h-88l127 732h89z" />
    <glyph glyph-name="Iotatonos" unicode="&#x38a;" horiz-adv-x="352" 
d="M123 544h-71l61 154h90zM215 -34h-88l127 732h89z" />
    <glyph glyph-name="Omicrontonos" unicode="&#x38c;" horiz-adv-x="815" 
d="M201.5 546.5q53.5 79.5 130.5 121.5t164 42q85 0 150 -41t100.5 -114t35.5 -166q0 -40 -8 -88q-19 -105 -72.5 -183.5t-130 -120.5t-162.5 -42q-85 0 -150.5 40.5t-101.5 113.5t-36 166q0 38 8 86q19 106 72.5 185.5zM119 544h-71l61 154h90zM214 272q0 -106 52 -170.5
t148 -64.5q101 0 173.5 74t94.5 202q7 39 7 81q0 106 -52 170.5t-146 64.5q-102 0 -175 -74t-95 -202q-7 -39 -7 -81z" />
    <glyph glyph-name="Upsilontonos" unicode="&#x38e;" horiz-adv-x="740" 
d="M121 545h-71l61 154h90zM461 367l248 331h102l-325 -425l-53 -307h-88l55 314l-185 418h99z" />
    <glyph glyph-name="Omegatonos" unicode="&#x38f;" horiz-adv-x="822" 
d="M706.5 173.5q-54.5 -76.5 -134.5 -127.5h166l-15 -80h-281l14 93q91 43 151.5 120.5t78.5 179.5q6 33 6 63q0 96 -54 151.5t-148 55.5q-107 0 -178.5 -76.5t-89.5 -205.5q-4 -25 -4 -55q0 -80 33.5 -143t91.5 -92l-15 -91h-281l15 80h173q-50 42 -80 107t-30 145
q0 27 5 64q16 104 67.5 183t130 122t171.5 43q83 0 148 -35.5t101.5 -100.5t36.5 -150q0 -28 -7 -74q-17 -100 -71.5 -176.5zM113 544h-71l61 154h90z" />
    <glyph glyph-name="iotadieresistonos" unicode="&#x390;" horiz-adv-x="265" 
d="M194 559h-64l65 154h83zM26.5 595.5q-16.5 17.5 -16.5 40.5q0 24 16 41t39 17q24 0 40.5 -17t16.5 -41t-16.5 -41t-40.5 -17q-22 0 -38.5 17.5zM292.5 595.5q-16.5 17.5 -16.5 40.5q0 24 16 41t39 17q24 0 40.5 -17t16.5 -41t-16.5 -41t-40.5 -17q-22 0 -38.5 17.5z
M217 -30q-33 -15 -74 -15q-102 0 -102 96q0 19 5 47l68 388h85l-67 -382q-3 -16 -3 -28q0 -23 10 -32t29 -9q26 0 46 10z" />
    <glyph glyph-name="Alpha" unicode="&#x391;" horiz-adv-x="658" 
d="M436 698l164 -732h-92l-44 210h-303l-114 -210h-97l411 732h75zM448 256l-67 324l-176 -324h243z" />
    <glyph glyph-name="Beta" unicode="&#x392;" horiz-adv-x="639" 
d="M482 345q106 -41 106 -149q0 -13 -4 -41q-16 -92 -85 -140.5t-192 -48.5h-277l127 732h207q111 0 170.5 -48t59.5 -127q0 -18 -3 -38q-17 -103 -109 -140zM317 379q79 0 125 28t56 84q2 16 2 23q0 48 -39.5 76.5t-120.5 28.5h-108l-42 -240h127zM494 192q0 52 -41.5 82.5
t-132.5 30.5h-143l-45 -261h166q89 0 135.5 30t57.5 90q3 15 3 28z" />
    <glyph glyph-name="Gamma" unicode="&#x393;" horiz-adv-x="539" 
d="M157 698l446 1l-14 -80h-358l-115 -653h-88z" />
    <glyph glyph-name="uni0394" unicode="&#x394;" horiz-adv-x="660" 
d="M362 699h75l168 -679l-10 -54h-638l10 54zM504 46l-125 536l-303 -536h428z" />
    <glyph glyph-name="Epsilon" unicode="&#x395;" horiz-adv-x="584" 
d="M157 698h445l-13 -79h-357l-41 -235h319l-14 -79h-319l-45 -260h367l-14 -79h-455z" />
    <glyph glyph-name="Zeta" unicode="&#x396;" horiz-adv-x="564" 
d="M113 619l13 79h480l-6 -43l-487 -609h394l-15 -80h-524l7 44l487 609h-349z" />
    <glyph glyph-name="Eta" unicode="&#x397;" horiz-adv-x="732" 
d="M191 386h388l55 312h89l-128 -732h-89l59 340h-388l-59 -340h-88l127 732h89z" />
    <glyph glyph-name="Theta" unicode="&#x398;" horiz-adv-x="754" 
d="M128.5 532.5q53.5 84.5 134.5 131t176 46.5q83 0 148 -38.5t101 -108.5t36 -162q0 -35 -6 -74q-17 -110 -69.5 -194.5t-132.5 -131t-176 -46.5q-84 0 -149.5 38.5t-102 108.5t-36.5 162q0 36 6 75q17 109 70.5 193.5zM146 267q0 -105 54.5 -167.5t149.5 -62.5
q109 0 181.5 82.5t93.5 219.5q5 35 5 61q0 104 -55 166.5t-149 62.5q-73 0 -130.5 -38t-95 -106t-50.5 -158q-4 -28 -4 -60zM518 298h-273l14 80h273z" />
    <glyph glyph-name="Iota" unicode="&#x399;" horiz-adv-x="254" 
d="M118 -34h-88l127 732h89z" />
    <glyph glyph-name="Kappa" unicode="&#x39a;" horiz-adv-x="672" 
d="M183 338l415 360h123l-358 -305l252 -427h-111l-210 368l-132 -111l-45 -257h-89l129 732h89z" />
    <glyph glyph-name="Lambda" unicode="&#x39b;" horiz-adv-x="652" 
d="M499 -34l-124 613l-331 -613h-94l408 732h75l161 -732h-95z" />
    <glyph glyph-name="Mu" unicode="&#x39c;" horiz-adv-x="850" 
d="M767 698h74l-128 -732h-86l95 549l-285 -360h-53l-170 380l-99 -569h-85l127 732h77l192 -435z" />
    <glyph glyph-name="Nu" unicode="&#x39d;" horiz-adv-x="727" 
d="M231 698l303 -581l101 581h83l-128 -732h-73l-302 582l-102 -582h-83l127 732h74z" />
    <glyph glyph-name="Xi" unicode="&#x39e;" horiz-adv-x="607" 
d="M626 617h-523l15 82h523zM529 305h-439l15 82h439zM511 -34h-523l15 82h523z" />
    <glyph glyph-name="Omicron" unicode="&#x39f;" horiz-adv-x="748" 
d="M134.5 546.5q53.5 79.5 130.5 121.5t164 42q85 0 150 -41t100.5 -114t35.5 -166q0 -40 -8 -88q-19 -105 -72.5 -183.5t-130 -120.5t-162.5 -42q-85 0 -150.5 40.5t-101.5 113.5t-36 166q0 38 8 86q19 106 72.5 185.5zM147 272q0 -106 52 -170.5t148 -64.5q101 0 173.5 74
t94.5 202q7 39 7 81q0 106 -52 170.5t-146 64.5q-102 0 -175 -74t-95 -202q-7 -39 -7 -81z" />
    <glyph glyph-name="Pi" unicode="&#x3a0;" horiz-adv-x="733" 
d="M157 698h568l-129 -732h-88l115 652h-393l-115 -652h-87z" />
    <glyph glyph-name="Rho" unicode="&#x3a1;" horiz-adv-x="582" 
d="M367 698q71 0 122.5 -25.5t78.5 -71t27 -103.5q0 -25 -4 -46q-17 -97 -91.5 -152t-184.5 -55h-148l-49 -279h-88l127 732h210zM501 496q0 55 -37 89.5t-117 34.5h-115l-52 -297h132q81 0 127.5 37t58.5 104q3 17 3 32z" />
    <glyph glyph-name="Sigma" unicode="&#x3a3;" horiz-adv-x="563" 
d="M98 628l13 71h490l-15 -80h-379l182 -288l-283 -286h396l-15 -79h-517l13 71l299 300z" />
    <glyph glyph-name="Tau" unicode="&#x3a4;" horiz-adv-x="557" 
d="M83 698h540l-13 -79h-227l-114 -653h-89l114 653h-224z" />
    <glyph glyph-name="Upsilon" unicode="&#x3a5;" horiz-adv-x="604" 
d="M326 367l248 331h102l-325 -425l-53 -307h-88l55 314l-185 418h99z" />
    <glyph glyph-name="Phi" unicode="&#x3a6;" horiz-adv-x="800" 
d="M506 618q78 -8 139 -40.5t96 -87t35 -126.5q0 -22 -5 -52q-14 -80 -67.5 -138.5t-131.5 -90.5t-167 -38l-14 -79h-89l14 81q-77 8 -138.5 40t-96.5 86.5t-35 126.5q0 22 5 54q14 80 67 138t131 90t168 38l14 78h89zM140 301q0 -78 51.5 -121.5t138.5 -51.5l73 410
q-104 -9 -173.5 -56t-85.5 -135q-4 -21 -4 -46zM682 365q0 78 -51.5 121.5t-138.5 51.5l-72 -410q103 9 172.5 56t85.5 135q4 21 4 46z" />
    <glyph glyph-name="Chi" unicode="&#x3a7;" horiz-adv-x="645" 
d="M346 406l252 292h108l-322 -365l198 -367h-104l-156 301l-261 -301h-107l330 374l-192 358h104z" />
    <glyph glyph-name="Psi" unicode="&#x3a8;" horiz-adv-x="781" 
d="M709 698h90l-43 -249q-25 -142 -116.5 -210.5t-224.5 -76.5l-35 -196h-89l35 197q-112 9 -177.5 62t-65.5 158q0 30 6 66l43 249h89l-41 -235q-6 -33 -6 -61q0 -80 44.5 -115.5t121.5 -42.5l80 454h89l-80 -453q94 8 157 57.5t82 160.5z" />
    <glyph glyph-name="uni03A9" unicode="&#x3a9;" horiz-adv-x="766" 
d="M650.5 173.5q-54.5 -76.5 -134.5 -127.5h166l-15 -80h-281l14 93q91 43 151.5 120.5t78.5 179.5q6 33 6 63q0 96 -54 151.5t-148 55.5q-107 0 -178.5 -76.5t-89.5 -205.5q-4 -25 -4 -55q0 -80 33.5 -143t91.5 -92l-15 -91h-281l15 80h173q-50 42 -80 107t-30 145
q0 27 5 64q16 104 67.5 183t130 122t171.5 43q83 0 148 -35.5t101.5 -100.5t36.5 -150q0 -28 -7 -74q-17 -100 -71.5 -176.5z" />
    <glyph glyph-name="Iotadieresis" unicode="&#x3aa;" horiz-adv-x="254" 
d="M86.5 812q-16.5 17 -16.5 41t16.5 41t39.5 17q24 0 40.5 -17t16.5 -41t-16.5 -41t-40.5 -17q-23 0 -39.5 17zM291.5 812q-16.5 17 -16.5 41t16.5 41t39.5 17q24 0 40.5 -17t16.5 -41t-16.5 -41t-40.5 -17q-23 0 -39.5 17zM118 -34h-88l127 732h89z" />
    <glyph glyph-name="Upsilondieresis" unicode="&#x3ab;" horiz-adv-x="604" 
d="M261.5 813q-16.5 17 -16.5 41t16.5 41t39.5 17q24 0 40.5 -17t16.5 -41t-16.5 -41t-40.5 -17q-23 0 -39.5 17zM466.5 813q-16.5 17 -16.5 41t16.5 41t39.5 17q24 0 40.5 -17t16.5 -41t-16.5 -41t-40.5 -17q-23 0 -39.5 17zM326 367l248 331h102l-325 -425l-53 -307h-88
l55 314l-185 418h99z" />
    <glyph glyph-name="alphatonos" unicode="&#x3ac;" horiz-adv-x="608" 
d="M372 713h96l-112 -154h-77zM553 41l2 -74q-22 -12 -58 -12q-48 0 -70.5 20.5t-24.5 61.5q-61 -82 -158 -82q-58 0 -106 29t-75.5 82t-27.5 123q0 31 6 64q13 77 52 132.5t92.5 83.5t110.5 28t99.5 -28t62.5 -76l2 -5q14 40 27 98h71l-69 -391q-3 -15 -3 -25
q0 -20 9 -27.5t27 -7.5q16 0 31 6zM431 263q0 76 -40 114.5t-99 38.5q-62 0 -106 -43t-58 -126q-5 -25 -5 -57q0 -72 35.5 -113.5t97.5 -41.5q58 0 106 40t64 135q5 32 5 53z" />
    <glyph glyph-name="epsilontonos" unicode="&#x3ad;" horiz-adv-x="458" 
d="M326 559h-77l93 154h96zM304.5 54q37.5 19 61.5 55l62 -45q-30 -53 -83.5 -81t-124.5 -28q-92 0 -148 38t-56 98q0 58 38.5 98t107.5 52q-39 14 -61 42t-22 64q0 7 2 21q10 59 65 94t135 35q72 0 120.5 -34t58.5 -90l-71 -33q-23 77 -114 77q-47 0 -78 -19.5t-31 -57.5
q0 -28 26 -46t81 -18h51l-13 -74h-43q-147 0 -161 -83q-2 -10 -2 -15q0 -33 29.5 -51t84.5 -18q48 0 85.5 19z" />
    <glyph glyph-name="etatonos" unicode="&#x3ae;" horiz-adv-x="593" 
d="M404 713h96l-112 -154h-77zM486.5 451q45.5 -46 45.5 -129q0 -32 -5 -57l-95 -538h-84l93 529q5 28 5 49q0 53 -26 82t-76 29q-57 0 -103.5 -38.5t-59.5 -113.5l-53 -298h-85l71 407q1 5 1 13q0 18 -7.5 24.5t-24.5 6.5q-18 0 -31 -6l-2 74q23 12 57 12q49 0 71.5 -21.5
t23.5 -63.5q30 43 72 64t92 21q75 0 120.5 -46z" />
    <glyph glyph-name="iotatonos" unicode="&#x3af;" horiz-adv-x="265" 
d="M202 559h-77l93 154h96zM217 -30q-33 -15 -74 -15q-102 0 -102 96q0 19 5 47l68 388h85l-67 -382q-3 -16 -3 -28q0 -23 10 -32t29 -9q26 0 46 10z" />
    <glyph glyph-name="upsilondieresistonos" unicode="&#x3b0;" horiz-adv-x="553" 
d="M353 559h-64l65 154h83zM185.5 595.5q-16.5 17.5 -16.5 40.5q0 24 16 41t39 17q24 0 40.5 -17t16.5 -41t-16.5 -41t-40.5 -17q-22 0 -38.5 17.5zM451.5 595.5q-16.5 17.5 -16.5 40.5q0 24 16 41t39 17q24 0 40.5 -17t16.5 -41t-16.5 -41t-40.5 -17q-22 0 -38.5 17.5z
M108 485h85l-49 -281q-5 -27 -5 -58q0 -111 98 -111q140 0 179 224q10 53 10 104q0 63 -15 123h86q12 -60 12 -129q0 -60 -9 -111q-26 -146 -98.5 -218.5t-172.5 -72.5q-82 0 -129.5 44t-47.5 132q0 31 6 68z" />
    <glyph glyph-name="alpha" unicode="&#x3b1;" horiz-adv-x="608" 
d="M553 41l2 -74q-22 -12 -58 -12q-48 0 -70.5 20.5t-24.5 61.5q-61 -82 -158 -82q-58 0 -106 29t-75.5 82t-27.5 123q0 31 6 64q13 77 52 132.5t92.5 83.5t110.5 28t99.5 -28t62.5 -76l2 -5q14 40 27 98h71l-69 -391q-3 -15 -3 -25q0 -20 9 -27.5t27 -7.5q16 0 31 6z
M431 263q0 76 -40 114.5t-99 38.5q-62 0 -106 -43t-58 -126q-5 -25 -5 -57q0 -72 35.5 -113.5t97.5 -41.5q58 0 106 40t64 135q5 32 5 53z" />
    <glyph glyph-name="beta" unicode="&#x3b2;" horiz-adv-x="594" 
d="M513.5 428q-30.5 -39 -82.5 -60q54 -21 82.5 -63.5t28.5 -100.5q0 -24 -4 -44q-17 -95 -80 -150t-157 -55q-59 0 -107.5 24t-70.5 68l-57 -320h-85l134 758q21 120 87.5 185.5t161.5 65.5q58 0 102 -23t67.5 -63.5t23.5 -91.5q0 -18 -3 -38q-10 -53 -40.5 -92zM294 399
q77 0 118.5 34t52.5 92q3 15 3 28q0 46 -28 74t-79 28q-130 0 -162 -178l-45 -255q-3 -21 -3 -40q0 -49 21 -82t53.5 -49t68.5 -16q63 0 103 34.5t51 97.5q3 18 3 35q0 57 -36.5 91.5t-109.5 34.5h-40l12 71h17z" />
    <glyph glyph-name="gamma" unicode="&#x3b3;" horiz-adv-x="515" 
d="M489 486q-1 -73 -7 -105q-18 -101 -79.5 -207t-181.5 -228l-38 -219h-85l37 208l-86 550h95l59 -456q89 106 135 193.5t61 169.5q6 33 7 94h83z" />
    <glyph glyph-name="delta" unicode="&#x3b4;" horiz-adv-x="591" 
d="M552 716l-13 -74h-251l171 -179q76 -79 76 -189q0 -17 -4 -51q-12 -83 -52 -143.5t-99 -92.5t-127 -32q-97 0 -154.5 61t-57.5 163q0 29 4 53q11 76 50 133.5t98 90.5t129 35l-154 160l12 65h372zM445 270q0 69 -34.5 108t-92.5 39q-70 0 -121 -53t-64 -144
q-3 -21 -3 -39q0 -69 35.5 -107.5t93.5 -38.5q72 0 121.5 52.5t61.5 144.5q3 20 3 38z" />
    <glyph glyph-name="epsilon" unicode="&#x3b5;" horiz-adv-x="458" 
d="M304.5 54q37.5 19 61.5 55l62 -45q-30 -53 -83.5 -81t-124.5 -28q-92 0 -148 38t-56 98q0 58 38.5 98t107.5 52q-39 14 -61 42t-22 64q0 7 2 21q10 59 65 94t135 35q72 0 120.5 -34t58.5 -90l-71 -33q-23 77 -114 77q-47 0 -78 -19.5t-31 -57.5q0 -28 26 -46t81 -18h51
l-13 -74h-43q-147 0 -161 -83q-2 -10 -2 -15q0 -33 29.5 -51t84.5 -18q48 0 85.5 19z" />
    <glyph glyph-name="zeta" unicode="&#x3b6;" horiz-adv-x="472" 
d="M514 656q-200 -130 -288.5 -238t-106.5 -213q-4 -20 -4 -42q0 -43 18.5 -69t46.5 -39t72 -26q79 -21 117 -47t38 -73q0 -5 -2 -21q-8 -41 -36 -69.5t-75 -51.5l-39 50q34 19 48 36.5t14 38.5q0 22 -22.5 36t-72.5 28q-89 21 -143.5 64t-54.5 133q0 21 5 54
q20 113 107.5 223t245.5 212h-251l13 74h381z" />
    <glyph glyph-name="eta" unicode="&#x3b7;" horiz-adv-x="593" 
d="M486.5 451q45.5 -46 45.5 -129q0 -32 -5 -57l-95 -538h-84l93 529q5 28 5 49q0 53 -26 82t-76 29q-57 0 -103.5 -38.5t-59.5 -113.5l-53 -298h-85l71 407q1 5 1 13q0 18 -7.5 24.5t-24.5 6.5q-18 0 -31 -6l-2 74q23 12 57 12q49 0 71.5 -21.5t23.5 -63.5q30 43 72 64
t92 21q75 0 120.5 -46z" />
    <glyph glyph-name="theta" unicode="&#x3b8;" horiz-adv-x="590" 
d="M508 660q48 -67 48 -193q0 -66 -11 -132q-19 -119 -62 -204.5t-105 -130.5t-137 -45q-94 0 -142.5 67.5t-48.5 192.5q0 66 11 132q19 118 62 203.5t105.5 131t137.5 45.5q94 0 142 -67zM231.5 577q-49.5 -70 -74.5 -193h306q4 37 4 78q0 88 -28 136.5t-86 48.5
q-72 0 -121.5 -70zM378.5 108.5q49.5 73.5 73.5 201.5h-308q-6 -48 -6 -89q0 -88 29 -137t87 -49q75 0 124.5 73.5z" />
    <glyph glyph-name="iota" unicode="&#x3b9;" horiz-adv-x="265" 
d="M217 -30q-33 -15 -74 -15q-102 0 -102 96q0 19 5 47l68 388h85l-67 -382q-3 -16 -3 -28q0 -23 10 -32t29 -9q26 0 46 10z" />
    <glyph glyph-name="kappa" unicode="&#x3ba;" horiz-adv-x="508" 
d="M528 473l-36 -64q-10 8 -24 8q-17 0 -33.5 -9.5t-44.5 -36.5l-95 -91l151 -314h-105l-113 249l-96 -92l-28 -157h-85l92 520h85l-45 -255l181 188q40 41 70 59.5t64 18.5q38 0 62 -24z" />
    <glyph glyph-name="lambda" unicode="&#x3bb;" horiz-adv-x="557" 
d="M523 -30q-34 -15 -75 -15q-49 0 -72.5 21.5t-30.5 66.5l-51 324l-245 -401h-94l319 509l-26 126q-6 27 -14.5 36.5t-24.5 9.5q-15 0 -34 -8t-37 -22l-21 69q53 41 112 41q50 0 72.5 -27t31.5 -81l92 -535q5 -29 16 -39t30 -10q21 0 48 10z" />
    <glyph glyph-name="uni03BC" unicode="&#x3bc;" horiz-adv-x="591" 
d="M536 41l2 -74q-22 -12 -56 -12q-49 0 -71 22.5t-22 66.5q-57 -89 -159 -89q-80 0 -119 51l-49 -279h-85l134 759h85l-54 -304q-4 -20 -4 -41q0 -52 28 -79t81 -27q57 0 100.5 37t58.5 107l53 306h85l-69 -390q-3 -16 -3 -27q0 -19 8 -26t25 -7q16 0 31 6z" />
    <glyph glyph-name="nu" unicode="&#x3bd;" horiz-adv-x="499" 
d="M489 486q0 -61 -7 -100q-17 -99 -80 -199.5t-194 -220.5h-64l-95 519h95l66 -421q87 97 131.5 177t57.5 156q7 39 7 89h83z" />
    <glyph glyph-name="xi" unicode="&#x3be;" horiz-adv-x="457" 
d="M503 651q-158 -7 -228.5 -50.5t-70.5 -109.5q0 -42 36 -70t109 -28h94l-13 -74h-61q-229 0 -254 -136q-2 -9 -2 -25q0 -50 39 -79.5t116 -54.5q69 -22 102 -45.5t33 -68.5q0 -6 -2 -22q-8 -41 -36 -69.5t-75 -51.5l-39 50q34 19 48 36.5t14 38.5q0 22 -19.5 34.5
t-61.5 25.5q-102 31 -156 76.5t-54 117.5q0 17 3 36q12 68 60.5 111.5t125.5 63.5q-45 16 -70.5 49t-25.5 77q0 56 33 95t89 64h-119l13 74h384z" />
    <glyph glyph-name="omicron" unicode="&#x3bf;" horiz-adv-x="579" 
d="M94 379q41 57 99 87.5t121 30.5q62 0 111 -30.5t76.5 -84t27.5 -121.5q0 -24 -5 -57q-14 -77 -54.5 -133.5t-98 -86t-119.5 -29.5q-63 0 -112.5 30t-77 83t-27.5 120q0 24 5 57q13 77 54 134zM123 185q0 -69 36.5 -109.5t98.5 -40.5q66 0 115 45.5t64 131.5q4 24 4 50
q0 71 -35.5 113t-97.5 42q-65 0 -115 -46.5t-65 -133.5q-5 -30 -5 -52z" />
    <glyph glyph-name="pi" unicode="&#x3c0;" horiz-adv-x="573" 
d="M573 412h-94l-54 -308q-3 -16 -3 -28q0 -23 10 -32t29 -9q26 0 46 10l3 -75q-33 -15 -74 -15q-52 0 -76.5 24.5t-24.5 72.5q0 23 4 46l55 314h-182l-79 -446h-85l79 446h-93l13 74h539z" />
    <glyph glyph-name="rho" unicode="&#x3c1;" horiz-adv-x="606" 
d="M455 470q48 -27 75 -77.5t27 -118.5q0 -35 -5 -61q-14 -83 -53.5 -141t-94 -87.5t-114.5 -29.5t-104 24t-64 69l-56 -323h-85l87 495q25 140 97.5 208.5t180.5 68.5q61 0 109 -27zM401 81.5q47 46.5 63 137.5q4 23 4 49q0 70 -36.5 109.5t-98.5 39.5q-60 0 -108 -41
t-68 -128l-8 -48q-1 -9 -1 -26q0 -72 40.5 -105.5t95.5 -33.5q70 0 117 46.5z" />
    <glyph glyph-name="uni03C2" unicode="&#x3c2;" horiz-adv-x="488" 
d="M351.5 -23q31.5 -25 31.5 -67q0 -6 -2 -22q-8 -41 -36 -69.5t-75 -51.5l-39 50q34 19 48 37.5t14 41.5q0 20 -15.5 33t-51.5 24q-89 28 -140 87t-51 150q0 29 6 62q13 78 54 133.5t97 83.5t116 28q65 0 113.5 -32t64.5 -85l-70 -33q-12 32 -42 51t-70 19
q-62 0 -111.5 -43t-63.5 -128q-4 -23 -4 -49q0 -126 127 -171q68 -24 99.5 -49z" />
    <glyph glyph-name="sigma" unicode="&#x3c3;" horiz-adv-x="602" 
d="M636 486l-13 -74h-159q28 -28 44 -69t16 -90q0 -19 -3 -42q-9 -75 -46 -133t-94.5 -90.5t-125.5 -32.5q-64 0 -114 27t-78 78t-28 120q0 27 2 41q14 123 92 194t205 71h302zM435 257q0 71 -35.5 110t-95.5 39q-69 0 -118.5 -52.5t-59.5 -138.5q-2 -24 -2 -35
q0 -71 37 -108t97 -37q70 0 117.5 51t57.5 141q2 22 2 30z" />
    <glyph glyph-name="tau" unicode="&#x3c4;" horiz-adv-x="465" 
d="M477 412h-185l-54 -308q-3 -16 -3 -28q0 -23 10 -32t29 -9q26 0 46 10l3 -75q-33 -15 -74 -15q-102 0 -102 96q0 19 5 47l55 314h-173l13 74h443z" />
    <glyph glyph-name="upsilon" unicode="&#x3c5;" horiz-adv-x="553" 
d="M108 485h85l-49 -281q-5 -27 -5 -58q0 -111 98 -111q140 0 179 224q10 53 10 104q0 63 -15 123h86q12 -60 12 -129q0 -60 -9 -111q-26 -146 -98.5 -218.5t-172.5 -72.5q-82 0 -129.5 44t-47.5 132q0 31 6 68z" />
    <glyph glyph-name="phi" unicode="&#x3c6;" horiz-adv-x="730" 
d="M449 493q100 -16 165 -78.5t65 -161.5q0 -20 -3 -41q-11 -79 -58.5 -135.5t-116.5 -86t-147 -34.5l-41 -229h-85l41 232q-102 15 -167.5 78t-65.5 162q0 20 3 41q11 80 59 136t117.5 86t148.5 34l28 157h85zM125 199q0 -68 43.5 -109t114.5 -52l67 377q-89 -8 -150.5 -54
t-72.5 -133q-2 -20 -2 -29zM590 253q0 68 -43 109t-112 52l-67 -377q88 8 148.5 54t71.5 133q2 20 2 29z" />
    <glyph glyph-name="chi" unicode="&#x3c7;" horiz-adv-x="507" 
d="M236 187l209 298h93l-272 -385l133 -373h-89l-99 294l-204 -294h-95l269 381l-136 377h91z" />
    <glyph glyph-name="psi" unicode="&#x3c8;" horiz-adv-x="702" 
d="M651 486q13 -66 13 -131q0 -48 -9 -104q-25 -140 -103.5 -212.5t-202.5 -81.5l-41 -230h-85l41 230q-206 18 -206 208q0 38 7 76l43 244h85l-42 -239q-7 -44 -7 -68q0 -70 34 -104.5t99 -40.5l110 620h85l-109 -618q85 12 137.5 67.5t70.5 161.5q8 43 8 98q0 68 -14 124
h86z" />
    <glyph glyph-name="omega" unicode="&#x3c9;" horiz-adv-x="764" 
d="M657 486q60 -82 60 -200q0 -40 -7 -78q-14 -82 -50.5 -139.5t-84.5 -85.5t-99 -28q-48 0 -81.5 25t-47.5 74q-30 -50 -71 -74.5t-87 -24.5q-70 0 -115.5 49.5t-45.5 142.5q0 37 7 73q14 78 51 146t95 120h100q-64 -59 -104 -130t-54 -148q-6 -33 -6 -60q0 -55 21.5 -84
t59.5 -29q45 0 79 38.5t52 136.5l24 132h85l-30 -171q-3 -25 -3 -44q0 -52 19 -72t53 -20q49 0 89.5 49.5t55.5 135.5q6 35 6 69q0 110 -64 197h93z" />
    <glyph glyph-name="iotadieresis" unicode="&#x3ca;" horiz-adv-x="265" 
d="M40.5 595q-16.5 17 -16.5 41t16.5 41t39.5 17q24 0 40.5 -17t16.5 -41t-16.5 -41t-40.5 -17q-23 0 -39.5 17zM245.5 595q-16.5 17 -16.5 41t16.5 41t39.5 17q24 0 40.5 -17t16.5 -41t-16.5 -41t-40.5 -17q-23 0 -39.5 17zM217 -30q-33 -15 -74 -15q-102 0 -102 96
q0 19 5 47l68 388h85l-67 -382q-3 -16 -3 -28q0 -23 10 -32t29 -9q26 0 46 10z" />
    <glyph glyph-name="upsilondieresis" unicode="&#x3cb;" horiz-adv-x="553" 
d="M199.5 595q-16.5 17 -16.5 41t16.5 41t39.5 17q24 0 40.5 -17t16.5 -41t-16.5 -41t-40.5 -17q-23 0 -39.5 17zM404.5 595q-16.5 17 -16.5 41t16.5 41t39.5 17q24 0 40.5 -17t16.5 -41t-16.5 -41t-40.5 -17q-23 0 -39.5 17zM108 485h85l-49 -281q-5 -27 -5 -58
q0 -111 98 -111q140 0 179 224q10 53 10 104q0 63 -15 123h86q12 -60 12 -129q0 -60 -9 -111q-26 -146 -98.5 -218.5t-172.5 -72.5q-82 0 -129.5 44t-47.5 132q0 31 6 68z" />
    <glyph glyph-name="omicrontonos" unicode="&#x3cc;" horiz-adv-x="579" 
d="M373 558h-77l93 154h96zM94 379q41 57 99 87.5t121 30.5q62 0 111 -30.5t76.5 -84t27.5 -121.5q0 -24 -5 -57q-14 -77 -54.5 -133.5t-98 -86t-119.5 -29.5q-63 0 -112.5 30t-77 83t-27.5 120q0 24 5 57q13 77 54 134zM123 185q0 -69 36.5 -109.5t98.5 -40.5
q66 0 115 45.5t64 131.5q4 24 4 50q0 71 -35.5 113t-97.5 42q-65 0 -115 -46.5t-65 -133.5q-5 -30 -5 -52z" />
    <glyph glyph-name="upsilontonos" unicode="&#x3cd;" horiz-adv-x="553" 
d="M361 559h-77l93 154h96zM108 485h85l-49 -281q-5 -27 -5 -58q0 -111 98 -111q140 0 179 224q10 53 10 104q0 63 -15 123h86q12 -60 12 -129q0 -60 -9 -111q-26 -146 -98.5 -218.5t-172.5 -72.5q-82 0 -129.5 44t-47.5 132q0 31 6 68z" />
    <glyph glyph-name="omegatonos" unicode="&#x3ce;" horiz-adv-x="764" 
d="M468 559h-77l93 154h96zM657 486q60 -82 60 -200q0 -40 -7 -78q-14 -82 -50.5 -139.5t-84.5 -85.5t-99 -28q-48 0 -81.5 25t-47.5 74q-30 -50 -71 -74.5t-87 -24.5q-70 0 -115.5 49.5t-45.5 142.5q0 37 7 73q14 78 51 146t95 120h100q-64 -59 -104 -130t-54 -148
q-6 -33 -6 -60q0 -55 21.5 -84t59.5 -29q45 0 79 38.5t52 136.5l24 132h85l-30 -171q-3 -25 -3 -44q0 -52 19 -72t53 -20q49 0 89.5 49.5t55.5 135.5q6 35 6 69q0 110 -64 197h93z" />
    <glyph glyph-name="uni03D1" unicode="&#x3d1;" horiz-adv-x="596" 
d="M603 388l-13 -73h-79q-33 -181 -103.5 -270.5t-183.5 -89.5q-66 0 -111.5 29.5t-68 79.5t-20.5 111l89 24q-2 -73 25.5 -118.5t88.5 -45.5q71 0 118 68.5t76 211.5h-81q-135 0 -200 44.5t-65 126.5q0 14 4 42q17 93 81.5 151.5t156.5 58.5q101 0 154.5 -72.5t53.5 -202.5
q0 -40 -4 -75h82zM167 492q0 -49 42.5 -76.5t150.5 -27.5h73q5 48 5 82q0 91 -31 139.5t-94 48.5q-54 0 -93 -35t-50 -100q-3 -16 -3 -31z" />
    <glyph glyph-name="uni03D2" unicode="&#x3d2;" horiz-adv-x="633" 
d="M706 699l-14 -80h-9q-69 0 -139.5 -63t-123 -162.5t-70.5 -200.5l-40 -227h-89l43 240q8 48 8 89q0 114 -48 219.5t-139 183.5h116q57 -57 96.5 -133t50.5 -163q57 132 146 214.5t183 82.5h29z" />
    <glyph glyph-name="uni03D6" unicode="&#x3d6;" horiz-adv-x="802" 
d="M55 486h768l-13 -74h-112q34 -66 34 -148q0 -33 -6 -69q-14 -79 -49.5 -133t-83 -80.5t-97.5 -26.5q-49 0 -83 25t-48 74q-31 -50 -72 -74.5t-88 -24.5q-69 0 -114.5 47.5t-45.5 136.5q0 32 6 68q20 116 96 205h-105zM644 270q0 74 -35 142h-360q-89 -98 -110 -215
q-5 -32 -5 -53q0 -53 21.5 -81t60.5 -28q100 0 131 175l18 102h85l-22 -127q-4 -25 -4 -49q0 -101 74 -101q51 0 88.5 45.5t51.5 128.5q6 30 6 61z" />
    <glyph glyph-name="uni0400" unicode="&#x400;" horiz-adv-x="584" 
d="M342 776l-76 137h91l58 -137h-73zM157 698h445l-13 -79h-357l-41 -235h319l-14 -79h-319l-45 -260h367l-14 -79h-455z" />
    <glyph glyph-name="uni0401" unicode="&#x401;" horiz-adv-x="584" 
d="M256.5 812q-16.5 17 -16.5 41t16.5 41t39.5 17q24 0 40.5 -17t16.5 -41t-16.5 -41t-40.5 -17q-23 0 -39.5 17zM461.5 812q-16.5 17 -16.5 41t16.5 41t39.5 17q24 0 40.5 -17t16.5 -41t-16.5 -41t-40.5 -17q-23 0 -39.5 17zM157 698h445l-13 -79h-357l-41 -235h319
l-14 -79h-319l-45 -260h367l-14 -79h-455z" />
    <glyph glyph-name="uni0402" unicode="&#x402;" horiz-adv-x="818" 
d="M660.5 403q52.5 -26 82 -75t29.5 -114q0 -21 -5 -53q-19 -111 -100.5 -161.5t-198.5 -44.5l9 82q84 -2 134 26.5t64 106.5q4 19 4 41q0 61 -35.5 98.5t-106.5 37.5q-49 0 -98 -19t-85.5 -59t-46.5 -99l-36 -204h-90l115 653h-226l13 79h545l-13 -79h-229l-47 -269
q40 40 92.5 59.5t108.5 19.5q68 0 120.5 -26z" />
    <glyph glyph-name="uni0403" unicode="&#x403;" horiz-adv-x="577" 
d="M472 926h97l-128 -154h-78zM641 699l-14 -80h-389l-116 -653h-89l130 733h478z" />
    <glyph glyph-name="uni0404" unicode="&#x404;" horiz-adv-x="637" 
d="M255 562.5q-70 -65.5 -96 -183.5h310l-14 -80h-307q-4 -75 18.5 -134.5t70.5 -93.5t118 -34q54 0 94 22.5t74 72.5l66 -48q-41 -67 -101.5 -98t-133.5 -31q-90 0 -158 42t-104.5 115.5t-36.5 165.5q0 44 7 83q19 109 72.5 188t129 120t159.5 41q94 0 159 -49.5t84 -123.5
l-76 -36q-18 56 -60.5 91.5t-111.5 35.5q-93 0 -163 -65.5z" />
    <glyph glyph-name="uni0405" unicode="&#x405;" horiz-adv-x="569" 
d="M439 5q-66 -50 -169 -50q-76 0 -135 29t-94 79t-43 111l77 36q17 -79 68 -126t130 -47q73 0 113 36t40 89q0 33 -20 57.5t-49 41.5t-80 40q-61 28 -98.5 51t-63.5 59t-26 88q0 18 3 37q18 99 97 142q56 32 136 32q72 0 125 -26t82 -67.5t33 -85.5l-76 -36q-8 56 -51 95
t-114 39q-54 0 -92 -24.5t-47 -72.5q-2 -14 -2 -20q0 -33 20 -57.5t49.5 -42t80.5 -40.5q61 -28 98 -51t63 -59t26 -87q0 -16 -3 -36q-15 -85 -78 -134z" />
    <glyph glyph-name="uni0406" unicode="&#x406;" horiz-adv-x="254" 
d="M118 -34h-88l127 732h89z" />
    <glyph glyph-name="uni0407" unicode="&#x407;" horiz-adv-x="254" 
d="M86.5 812q-16.5 17 -16.5 41t16.5 41t39.5 17q24 0 40.5 -17t16.5 -41t-16.5 -41t-40.5 -17q-23 0 -39.5 17zM291.5 812q-16.5 17 -16.5 41t16.5 41t39.5 17q24 0 40.5 -17t16.5 -41t-16.5 -41t-40.5 -17q-23 0 -39.5 17zM118 -34h-88l127 732h89z" />
    <glyph glyph-name="uni0408" unicode="&#x408;" horiz-adv-x="451" 
d="M23.5 -7q-41.5 38 -52.5 110l76 36q10 -52 31 -77t66 -25q102 0 126 138l91 523h90l-94 -531q-21 -116 -80.5 -164t-137.5 -48q-74 0 -115.5 38z" />
    <glyph glyph-name="uni0409" unicode="&#x409;" horiz-adv-x="1121" 
d="M831 389q119 0 181.5 -51t62.5 -135q0 -14 -4 -42q-17 -96 -88.5 -145.5t-190.5 -49.5h-284l116 652h-317l-90 -419q-20 -95 -49.5 -147t-76.5 -74.5t-125 -22.5l9 82q46 0 74.5 17t47 55t32.5 105l104 484l494 1l-55 -310h159zM783 44q91 0 143.5 43t52.5 113
q0 52 -42 81.5t-131 29.5h-148l-47 -267h172z" />
    <glyph glyph-name="uni040A" unicode="&#x40a;" horiz-adv-x="1144" 
d="M844 386q113 0 173 -48t60 -129q0 -14 -4 -42q-17 -98 -92 -149.5t-206 -51.5h-266l60 340h-392l-60 -340h-89l129 732h89l-55 -312h392l55 312h90l-55 -312h171zM766 44q104 0 160 44t56 116q0 50 -40 77t-123 27h-160l-46 -264h153z" />
    <glyph glyph-name="uni040B" unicode="&#x40b;" horiz-adv-x="808" 
d="M692.5 382.5q56.5 -46.5 56.5 -143.5q0 -30 -6 -65l-36 -208h-89l36 205q6 32 6 57q0 61 -33 90t-100 29q-80 0 -141.5 -39.5t-75.5 -120.5l-39 -221h-90l115 653h-226l13 79h545l-13 -79h-229l-45 -259q73 69 197 69q98 0 154.5 -46.5z" />
    <glyph glyph-name="uni040C" unicode="&#x40c;" horiz-adv-x="659" 
d="M486 776h-77l106 137h97zM296 380l313 318h104l-343 -357l229 -375h-101l-205 334h-117l-59 -334h-89l129 732h89l-56 -318h106z" />
    <glyph glyph-name="uni040D" unicode="&#x40d;" horiz-adv-x="731" 
d="M424 772l-74 154h91l55 -154h-72zM648 699h76l-129 -732h-84l100 575l-506 -575h-76l129 732h84l-101 -575z" />
    <glyph glyph-name="uni040E" unicode="&#x40e;" horiz-adv-x="610" 
d="M306.5 807.5q-36.5 30.5 -36.5 81.5q0 9 2 25h78q-1 -5 -1 -14q0 -30 16 -47t49 -17q67 0 85 78h78q-12 -69 -55.5 -103t-111.5 -34q-67 0 -103.5 30.5zM314 275l269 424h100l-346 -535q-75 -115 -133.5 -162t-122.5 -47q-31 0 -55 8.5t-37 23.5l12 79q26 -29 78 -29
q31 0 55.5 13t51.5 43t67 88l-172 518h99z" />
    <glyph glyph-name="uni040F" unicode="&#x40f;" horiz-adv-x="733" 
d="M131 46h389l115 652h90l-129 -732h-241l-36 -172h-73l25 172h-243l129 732h89z" />
    <glyph glyph-name="uni0410" unicode="&#x410;" horiz-adv-x="658" 
d="M436 698l164 -732h-92l-44 210h-303l-114 -210h-97l411 732h75zM448 256l-67 324l-176 -324h243z" />
    <glyph glyph-name="uni0411" unicode="&#x411;" horiz-adv-x="645" 
d="M612 699l-14 -80h-365l-41 -230h159q119 0 181.5 -51t62.5 -135q0 -14 -4 -42q-17 -96 -88.5 -145.5t-190.5 -49.5h-284l130 733h454zM178 311l-47 -267h172q91 0 143.5 43t52.5 113q0 52 -42 81.5t-131 29.5h-148z" />
    <glyph glyph-name="uni0412" unicode="&#x412;" horiz-adv-x="639" 
d="M482 345q106 -41 106 -149q0 -13 -4 -41q-16 -92 -85 -140.5t-192 -48.5h-277l127 732h207q111 0 170.5 -48t59.5 -127q0 -18 -3 -38q-17 -103 -109 -140zM317 379q79 0 125 28t56 84q2 16 2 23q0 48 -39.5 76.5t-120.5 28.5h-108l-42 -240h127zM494 192q0 52 -41.5 82.5
t-132.5 30.5h-143l-45 -261h166q89 0 135.5 30t57.5 90q3 15 3 28z" />
    <glyph glyph-name="uni0413" unicode="&#x413;" horiz-adv-x="577" 
d="M163 699h478l-14 -80h-389l-116 -653h-89z" />
    <glyph glyph-name="uni0414" unicode="&#x414;" horiz-adv-x="778" 
d="M734 698l-115 -652h82l-53 -252h-73l25 172h-554l-36 -172h-73l37 252h38q68 0 113.5 66.5t82.5 220.5l87 365h439zM529 46l101 572h-263l-72 -300q-24 -102 -52.5 -168.5t-66.5 -103.5h353z" />
    <glyph glyph-name="uni0415" unicode="&#x415;" horiz-adv-x="584" 
d="M157 698h445l-13 -79h-357l-41 -235h319l-14 -79h-319l-45 -260h367l-14 -79h-455z" />
    <glyph glyph-name="uni0416" unicode="&#x416;" horiz-adv-x="1019" 
d="M670 380l291 318h109l-322 -357l208 -375h-111l-179 334h-111l-59 -334h-89l59 334h-104l-299 -334h-118l342 374l-192 358h101l173 -318h111l56 318h89l-56 -318h101z" />
    <glyph glyph-name="uni0417" unicode="&#x417;" horiz-adv-x="582" 
d="M406 351q56 -22 83.5 -63.5t27.5 -95.5q0 -13 -4 -41q-17 -94 -90 -145t-182 -51q-104 0 -167.5 46.5t-73.5 137.5l77 35q9 -70 52.5 -104t114.5 -34q69 0 117 33t59 95q2 9 2 26q0 54 -44.5 86t-139.5 32h-23l15 80h42q77 0 121 32t53 86q2 8 2 24q0 45 -31 72.5
t-86 27.5q-54 0 -101 -30.5t-80 -87.5l-66 47q41 79 107 115.5t148 36.5q100 0 152.5 -48t52.5 -124q0 -12 -4 -40q-20 -113 -134 -148z" />
    <glyph glyph-name="uni0418" unicode="&#x418;" horiz-adv-x="731" 
d="M648 699h76l-129 -732h-84l100 575l-506 -575h-76l129 732h84l-101 -575z" />
    <glyph glyph-name="uni0419" unicode="&#x419;" horiz-adv-x="731" 
d="M361.5 807.5q-36.5 30.5 -36.5 81.5q0 9 2 25h78q-1 -5 -1 -14q0 -30 16 -47t49 -17q67 0 85 78h78q-12 -69 -55.5 -103t-111.5 -34q-67 0 -103.5 30.5zM648 699h76l-129 -732h-84l100 575l-506 -575h-76l129 732h84l-101 -575z" />
    <glyph glyph-name="uni041A" unicode="&#x41a;" horiz-adv-x="659" 
d="M296 380l313 318h104l-343 -357l229 -375h-101l-205 334h-117l-59 -334h-89l129 732h89l-56 -318h106z" />
    <glyph glyph-name="uni041B" unicode="&#x41b;" horiz-adv-x="734" 
d="M726 698l-129 -732h-90l115 652h-315l-90 -419q-20 -95 -49.5 -147t-76.5 -74.5t-125 -22.5l9 82q46 0 74.5 17t47 55t32.5 105l104 484h493z" />
    <glyph glyph-name="uni041C" unicode="&#x41c;" horiz-adv-x="850" 
d="M767 698h74l-128 -732h-86l95 549l-285 -360h-53l-170 380l-99 -569h-85l127 732h77l192 -435z" />
    <glyph glyph-name="uni041D" unicode="&#x41d;" horiz-adv-x="732" 
d="M191 386h388l55 312h89l-128 -732h-89l59 340h-388l-59 -340h-88l127 732h89z" />
    <glyph glyph-name="uni041E" unicode="&#x41e;" horiz-adv-x="748" 
d="M134.5 546.5q53.5 79.5 130.5 121.5t164 42q85 0 150 -41t100.5 -114t35.5 -166q0 -40 -8 -88q-19 -105 -72.5 -183.5t-130 -120.5t-162.5 -42q-85 0 -150.5 40.5t-101.5 113.5t-36 166q0 38 8 86q19 106 72.5 185.5zM147 272q0 -106 52 -170.5t148 -64.5q101 0 173.5 74
t94.5 202q7 39 7 81q0 106 -52 170.5t-146 64.5q-102 0 -175 -74t-95 -202q-7 -39 -7 -81z" />
    <glyph glyph-name="uni041F" unicode="&#x41f;" horiz-adv-x="733" 
d="M157 698h568l-129 -732h-88l115 652h-393l-115 -652h-87z" />
    <glyph glyph-name="uni0420" unicode="&#x420;" horiz-adv-x="582" 
d="M367 698q71 0 122.5 -25.5t78.5 -71t27 -103.5q0 -25 -4 -46q-17 -97 -91.5 -152t-184.5 -55h-148l-49 -279h-88l127 732h210zM501 496q0 55 -37 89.5t-117 34.5h-115l-52 -297h132q81 0 127.5 37t58.5 104q3 17 3 32z" />
    <glyph glyph-name="uni0421" unicode="&#x421;" horiz-adv-x="637" 
d="M299.5 596q-54.5 -32 -92.5 -93.5t-53 -147.5q-7 -38 -7 -77q0 -108 54 -174.5t154 -66.5q54 0 94 22.5t74 72.5l66 -48q-41 -67 -101.5 -98t-133.5 -31q-90 0 -158 42t-104.5 115.5t-36.5 165.5q0 44 7 83q19 109 72.5 188t129 120t159.5 41q94 0 159 -49.5t84 -123.5
l-76 -36q-18 56 -60.5 91.5t-111.5 35.5q-64 0 -118.5 -32z" />
    <glyph glyph-name="uni0422" unicode="&#x422;" horiz-adv-x="557" 
d="M83 698h540l-13 -79h-227l-114 -653h-89l114 653h-224z" />
    <glyph glyph-name="uni0423" unicode="&#x423;" horiz-adv-x="610" 
d="M314 275l269 424h100l-346 -535q-75 -115 -133.5 -162t-122.5 -47q-31 0 -55 8.5t-37 23.5l12 79q26 -29 78 -29q31 0 55.5 13t51.5 43t67 88l-172 518h99z" />
    <glyph glyph-name="uni0424" unicode="&#x424;" horiz-adv-x="800" 
d="M506 618q78 -8 139 -40.5t96 -87t35 -126.5q0 -22 -5 -52q-14 -80 -67.5 -138.5t-131.5 -90.5t-167 -38l-14 -79h-89l14 81q-77 8 -138.5 40t-96.5 86.5t-35 126.5q0 22 5 54q14 80 67 138t131 90t168 38l14 78h89zM140 301q0 -78 51.5 -121.5t138.5 -51.5l73 410
q-104 -9 -173.5 -56t-85.5 -135q-4 -21 -4 -46zM682 365q0 78 -51.5 121.5t-138.5 51.5l-72 -410q103 9 172.5 56t85.5 135q4 21 4 46z" />
    <glyph glyph-name="uni0425" unicode="&#x425;" horiz-adv-x="645" 
d="M346 406l252 292h108l-322 -365l198 -367h-104l-156 301l-261 -301h-107l330 374l-192 358h104z" />
    <glyph glyph-name="uni0426" unicode="&#x426;" horiz-adv-x="769" 
d="M635 698h90l-115 -652h82l-53 -252h-73l25 172h-563l129 732h89l-115 -652h389z" />
    <glyph glyph-name="uni0427" unicode="&#x427;" horiz-adv-x="656" 
d="M558 698h90l-129 -732h-90l57 325q-74 -68 -197 -68q-98 0 -154.5 46.5t-56.5 143.5q0 31 6 65l38 220h89l-38 -217q-6 -31 -6 -57q0 -61 33 -90t100 -29q79 0 140 38t76 116z" />
    <glyph glyph-name="uni0428" unicode="&#x428;" horiz-adv-x="994" 
d="M503 46h279l115 652h89l-129 -732h-829l129 732h89l-115 -652h282l113 652h90z" />
    <glyph glyph-name="uni0429" unicode="&#x429;" horiz-adv-x="1021" 
d="M781 46l115 652h90l-115 -652h73l-53 -252h-73l25 172h-815l129 732h89l-115 -652h282l113 652h90l-113 -652h278z" />
    <glyph glyph-name="uni042A" unicode="&#x42a;" horiz-adv-x="772" 
d="M482 389q119 0 181.5 -51t62.5 -135q0 -14 -4 -42q-17 -96 -88.5 -145.5t-190.5 -49.5h-283l116 653h-202l14 80h291l-55 -310h158zM434 44q91 0 143.5 43t52.5 113q0 52 -42 81.5t-131 29.5h-147l-47 -267h171z" />
    <glyph glyph-name="uni042B" unicode="&#x42b;" horiz-adv-x="884" 
d="M351 389q119 0 181.5 -51t62.5 -135q0 -14 -4 -42q-17 -96 -88.5 -145.5t-190.5 -49.5h-284l130 733h89l-55 -310h159zM747 -34h-89l130 733h89zM303 44q91 0 143.5 43t52.5 113q0 52 -42 81.5t-131 29.5h-148l-47 -267h172z" />
    <glyph glyph-name="uni042C" unicode="&#x42c;" horiz-adv-x="641" 
d="M351 389q119 0 181.5 -53t62.5 -138q0 -14 -4 -42q-17 -96 -88 -143t-191 -47h-284l130 733h89l-55 -310h159zM303 44q172 0 194 125q2 9 2 26q0 53 -42 84.5t-131 31.5h-148l-47 -267h172z" />
    <glyph glyph-name="uni042D" unicode="&#x42d;" horiz-adv-x="638" 
d="M468.5 669q65.5 -41 100.5 -114.5t35 -167.5q0 -41 -8 -92q-19 -106 -68.5 -182.5t-122 -117t-158.5 -40.5q-65 0 -118.5 23t-88.5 62.5t-47 87.5l76 36q18 -55 64.5 -91t118.5 -36q96 0 160.5 65t88.5 184h-311l14 80h307l1 25q0 108 -51 172.5t-148 64.5
q-113 0 -177 -95l-66 48q40 67 104.5 98t139.5 31q89 0 154.5 -41z" />
    <glyph glyph-name="uni042E" unicode="&#x42e;" horiz-adv-x="992" 
d="M835 672q60 -38 92.5 -108t32.5 -162q0 -48 -9 -102q-20 -114 -72 -192t-124 -115.5t-152 -37.5q-82 0 -142 37t-92.5 105t-32.5 160q0 15 2 49h-161l-59 -340h-88l127 732h89l-55 -312h159q23 106 75 179t121.5 109t147.5 36q81 0 141 -38zM867 406q0 102 -45.5 162.5
t-130.5 60.5q-92 0 -161 -72.5t-93 -208.5q-9 -49 -9 -93q0 -101 45.5 -159.5t132.5 -58.5q93 0 160.5 70t91.5 205q9 50 9 94z" />
    <glyph glyph-name="uni042F" unicode="&#x42f;" horiz-adv-x="624" 
d="M616 698l-129 -732h-89l53 300h-123q-14 0 -20 1l-266 -301h-111l287 320q-57 23 -89 70t-32 107q0 20 3 39q17 94 92 145t187 51h237zM465 344l48 276h-130q-82 0 -129.5 -33t-58.5 -94q-3 -13 -3 -28q0 -54 39 -87.5t115 -33.5h119z" />
    <glyph glyph-name="uni0430" unicode="&#x430;" horiz-adv-x="586" 
d="M558 486l-91 -520h-73q5 41 8 70q-59 -81 -158 -81q-58 0 -106 29t-75.5 82t-27.5 123q0 31 6 64q13 77 52 132.5t92.5 83.5t110.5 28t99.5 -28.5t63.5 -77.5q17 59 25 95h74zM362 75q48 40 64 135q5 32 5 53q0 76 -40 114.5t-99 38.5q-62 0 -106 -43t-58 -126
q-5 -25 -5 -57q0 -72 35.5 -113.5t97.5 -41.5q58 0 106 40z" />
    <glyph glyph-name="uni0431" unicode="&#x431;" horiz-adv-x="586" 
d="M212.5 533q-24.5 -41 -43.5 -104q32 32 74 50t90 18q61 0 107 -27.5t71.5 -78.5t25.5 -119q0 -32 -6 -68q-22 -125 -98 -187t-178 -62q-99 0 -156.5 63t-57.5 190q0 61 11 121q20 113 61 199t102 137q48 36 98.5 48t112.5 12h51q31 0 53.5 3t40.5 11l-9 -83
q-26 -14 -87 -14h-34q-55 0 -95.5 -8t-74.5 -36q-34 -24 -58.5 -65zM192.5 370.5q-53.5 -45.5 -67.5 -129.5q-4 -21 -4 -46q0 -71 36.5 -115.5t103.5 -44.5t117.5 45t64.5 130q5 30 5 53q0 69 -33.5 111t-99.5 42q-69 0 -122.5 -45.5z" />
    <glyph glyph-name="uni0432" unicode="&#x432;" horiz-adv-x="524" 
d="M382 229q76 -28 76 -103q0 -13 -3 -28q-12 -68 -63.5 -100t-145.5 -32h-227l92 520h191q80 0 123.5 -36t43.5 -94q0 -17 -2 -26q-13 -75 -85 -101zM180 413l-26 -148h113q57 0 86 21.5t29 62.5q0 29 -23 46.5t-72 17.5h-107zM243 39q59 0 89.5 17t37.5 53q1 6 1 16
q0 68 -111 68h-119l-27 -154h129z" />
    <glyph glyph-name="uni0433" unicode="&#x433;" horiz-adv-x="430" 
d="M111 486h348l-13 -74h-263l-79 -446h-85z" />
    <glyph glyph-name="uni0434" unicode="&#x434;" horiz-adv-x="632" 
d="M554 486l-79 -446h82l-52 -246h-73l25 172h-403l-36 -172h-73l36 246h38q45 0 71 26t44 78t44 163l44 179h332zM390 40l66 372h-167l-29 -120q-26 -113 -43 -166t-45 -86h218z" />
    <glyph glyph-name="uni0435" unicode="&#x435;" horiz-adv-x="510" 
d="M332.5 51.5q34.5 18.5 65.5 59.5l60 -43q-34 -57 -89.5 -85t-120.5 -28q-64 0 -112.5 27t-75.5 77.5t-27 117.5q0 30 6 63q14 82 55 140t99 87.5t124 29.5q75 0 121 -37.5t46 -104.5q0 -80 -70 -116t-216 -36q-21 0 -75 2q-1 -9 -1 -25q0 -72 36 -109.5t98 -37.5
q42 0 76.5 18.5zM204 384q-48 -35 -69 -108q46 -3 86 -3q87 0 132 19t45 63q0 32 -22 48t-63 16q-61 0 -109 -35z" />
    <glyph glyph-name="uni0436" unicode="&#x436;" horiz-adv-x="755" 
d="M471 263l204 223h100l-231 -257l149 -263h-99l-122 223h-66l-39 -223h-85l39 223h-54l-203 -223h-110l245 262l-139 258h93l121 -223h61l39 223h85l-39 -223h51z" />
    <glyph glyph-name="uni0437" unicode="&#x437;" horiz-adv-x="456" 
d="M295 239q46 -12 71 -44.5t25 -75.5q0 -76 -58 -120t-152 -44q-86 0 -141.5 36.5t-68.5 102.5l71 33q14 -47 47.5 -69.5t89.5 -22.5q53 0 89 21t36 69q0 34 -30.5 55.5t-94.5 21.5h-49l13 74h45q124 0 137 68q1 4 1 10q0 28 -25.5 45.5t-70.5 17.5q-82 0 -124 -56l-62 45
q27 46 80 68.5t116 22.5q82 0 129.5 -36.5t47.5 -93.5q0 -101 -122 -128z" />
    <glyph glyph-name="uni0438" unicode="&#x438;" horiz-adv-x="578" 
d="M196 486l-66 -377l342 377h73l-92 -520h-85l67 378l-343 -378h-73l92 520h85z" />
    <glyph glyph-name="uni0439" unicode="&#x439;" horiz-adv-x="578" 
d="M247 591.5q-38 33.5 -38 90.5q0 14 3 30h78q-1 -6 -1 -18q0 -33 16.5 -51.5t51.5 -18.5q36 0 58 21t32 67h78q-13 -76 -59.5 -115t-115.5 -39q-65 0 -103 33.5zM196 486l-66 -377l342 377h73l-92 -520h-85l67 378l-343 -378h-73l92 520h85z" />
    <glyph glyph-name="uni043A" unicode="&#x43a;" horiz-adv-x="526" 
d="M220 263l218 222h106l-252 -255l172 -264h-102l-144 223h-75l-39 -223h-85l92 520h85l-39 -223h63z" />
    <glyph glyph-name="uni043B" unicode="&#x43b;" horiz-adv-x="558" 
d="M525 486l-92 -520h-85l79 446h-198l-55 -256q-24 -109 -72 -155t-141 -46l9 82q54 0 81.5 32.5t42.5 101.5l69 315h362z" />
    <glyph glyph-name="uni043C" unicode="&#x43c;" horiz-adv-x="691" 
d="M576 486h82l-92 -520h-83l63 361l-206 -265h-51l-122 274l-65 -370h-83l92 520h80l139 -318z" />
    <glyph glyph-name="uni043D" unicode="&#x43d;" horiz-adv-x="576" 
d="M157 266h262l39 220h85l-92 -520h-85l40 226h-262l-40 -226h-85l92 520h85z" />
    <glyph glyph-name="uni043E" unicode="&#x43e;" horiz-adv-x="579" 
d="M94 379q41 57 99 87.5t121 30.5q62 0 111 -30.5t76.5 -84t27.5 -121.5q0 -24 -5 -57q-14 -77 -54.5 -133.5t-98 -86t-119.5 -29.5q-63 0 -112.5 30t-77 83t-27.5 120q0 24 5 57q13 77 54 134zM123 185q0 -69 36.5 -109.5t98.5 -40.5q66 0 115 45.5t64 131.5q4 24 4 50
q0 71 -35.5 113t-97.5 42q-65 0 -115 -46.5t-65 -133.5q-5 -30 -5 -52z" />
    <glyph glyph-name="uni043F" unicode="&#x43f;" horiz-adv-x="576" 
d="M111 486h432l-92 -520h-85l79 446h-262l-79 -446h-85z" />
    <glyph glyph-name="uni0440" unicode="&#x440;" horiz-adv-x="593" 
d="M440 468q48 -29 75.5 -82t27.5 -123q0 -31 -6 -64q-13 -77 -52 -132.5t-92.5 -83.5t-110.5 -28q-56 0 -99 27.5t-63 76.5l-58 -332h-84l133 759h74q-6 -32 -9 -70q59 81 158 81q58 0 106 -29zM392 79q44 43 58 126q5 25 5 57q0 72 -35.5 113.5t-97.5 41.5q-58 0 -106 -40
t-64 -135q-5 -32 -5 -53q0 -76 40 -114.5t99 -38.5q62 0 106 43z" />
    <glyph glyph-name="uni0441" unicode="&#x441;" horiz-adv-x="482" 
d="M381 103l62 -45q-62 -103 -185 -103q-68 0 -118.5 30.5t-77.5 84.5t-27 121q0 30 6 61q13 78 54 133.5t97 83.5t116 28q65 0 113.5 -32t64.5 -85l-70 -33q-12 32 -42 51t-70 19q-62 0 -111.5 -43t-63.5 -128q-5 -30 -5 -53q0 -71 36.5 -114.5t100.5 -43.5q77 0 120 68z
" />
    <glyph glyph-name="uni0442" unicode="&#x442;" horiz-adv-x="461" 
d="M34 412l13 74h443l-13 -74h-179l-79 -446h-85l79 446h-179z" />
    <glyph glyph-name="uni0443" unicode="&#x443;" horiz-adv-x="509" 
d="M448 485h93l-349 -616q-43 -78 -92 -115.5t-109 -37.5q-58 0 -101 35l40 68q27 -23 63 -23q31 0 61.5 23t66.5 81l41 68l-120 517h92l88 -415z" />
    <glyph glyph-name="uni0444" unicode="&#x444;" horiz-adv-x="729" 
d="M449 493q100 -16 165 -78.5t65 -161.5q0 -20 -3 -41q-11 -79 -58.5 -135.5t-116.5 -86t-147 -34.5l-41 -229h-85l41 232q-102 15 -167.5 78t-65.5 162q0 20 3 41q11 80 59 136t117.5 86t148.5 34l28 157h85zM125 199q0 -68 43.5 -109t114.5 -52l67 377q-89 -8 -150.5 -54
t-72.5 -133q-2 -20 -2 -29zM590 253q0 68 -43 109t-112 52l-67 -377q88 8 148.5 54t71.5 133q2 20 2 29z" />
    <glyph glyph-name="uni0445" unicode="&#x445;" horiz-adv-x="486" 
d="M247 294l169 191h101l-233 -264l140 -255h-97l-101 192l-170 -192h-103l235 264l-141 255h98z" />
    <glyph glyph-name="uni0446" unicode="&#x446;" horiz-adv-x="606" 
d="M543 486l-79 -446h78l-51 -246h-70l26 172h-428l92 520h85l-79 -446h262l79 446h85z" />
    <glyph glyph-name="uni0447" unicode="&#x447;" horiz-adv-x="553" 
d="M435 486h85l-92 -520h-85l39 218q-58 -58 -151 -58q-76 0 -121.5 38t-45.5 111q0 24 4 45l29 166h86l-28 -161q-3 -18 -3 -32q0 -86 96 -86q60 0 104.5 32.5t54.5 90.5z" />
    <glyph glyph-name="uni0448" unicode="&#x448;" horiz-adv-x="781" 
d="M393 40h191l79 446h85l-92 -520h-637l92 520h85l-79 -446h191l79 446h85z" />
    <glyph glyph-name="uni0449" unicode="&#x449;" horiz-adv-x="811" 
d="M663 486h85l-79 -446h78l-51 -246h-70l26 172h-633l92 520h85l-79 -446h191l79 446h85l-79 -446h191z" />
    <glyph glyph-name="uni044A" unicode="&#x44a;" horiz-adv-x="618" 
d="M376 295q92 0 140.5 -41t48.5 -106q0 -14 -3 -31q-13 -70 -70 -110.5t-158 -40.5h-205l79 446h-168l13 74h253l-34 -191h104zM325 40q73 0 107.5 22.5t41.5 65.5q2 14 2 20q0 73 -125 73h-92l-32 -181h98z" />
    <glyph glyph-name="uni044B" unicode="&#x44b;" horiz-adv-x="725" 
d="M266 295q92 0 140.5 -41t48.5 -106q0 -14 -3 -31q-13 -70 -70 -110.5t-158 -40.5h-205l92 520h85l-34 -191h104zM600 -34h-85l92 520h85zM215 40q73 0 107.5 22.5t41.5 65.5q2 14 2 20q0 73 -125 73h-92l-32 -181h98z" />
    <glyph glyph-name="uni044C" unicode="&#x44c;" horiz-adv-x="508" 
d="M266 295q92 0 140.5 -41t48.5 -106q0 -14 -3 -31q-13 -70 -70 -110.5t-158 -40.5h-205l92 520h85l-34 -191h104zM215 40q73 0 107.5 22.5t41.5 65.5q2 14 2 20q0 73 -125 73h-92l-32 -181h98z" />
    <glyph glyph-name="uni044D" unicode="&#x44d;" horiz-adv-x="494" 
d="M334.5 466q49.5 -31 77 -86.5t27.5 -124.5q0 -30 -6 -63q-20 -113 -91 -175t-171 -62q-73 0 -125.5 33.5t-67.5 89.5l71 33q12 -36 46.5 -57t81.5 -21q64 0 108 41.5t59 122.5h-203l12 70h196q-4 69 -40 110.5t-95 41.5q-33 0 -64.5 -14.5t-53.5 -45.5l-59 43
q31 51 81.5 73t102.5 22q64 0 113.5 -31z" />
    <glyph glyph-name="uni044E" unicode="&#x44e;" horiz-adv-x="767" 
d="M625 468q45 -29 69 -80.5t24 -117.5q0 -31 -6 -66q-14 -77 -53 -133.5t-93.5 -86t-116.5 -29.5t-108 30.5t-69.5 85.5t-20.5 124h-106l-41 -229h-85l92 519h85l-38 -216h104q17 70 55.5 121.5t91.5 79t112 27.5t104 -29zM629 272q0 68 -30 106.5t-87 38.5
q-61 0 -106.5 -46.5t-60.5 -133.5q-5 -26 -5 -60q0 -67 30.5 -104.5t88.5 -37.5q61 0 105.5 45.5t59.5 131.5q5 35 5 60z" />
    <glyph glyph-name="uni044F" unicode="&#x44f;" horiz-adv-x="501" 
d="M468 486l-92 -520h-85l38 213h-76l-195 -213h-102l210 225q-44 16 -68.5 49t-24.5 76q0 14 3 29q12 67 66 104t132 37h194zM342 252l28 160h-90q-49 0 -79 -20t-37 -57q-1 -5 -1 -15q0 -31 23.5 -49.5t71.5 -18.5h84z" />
    <glyph glyph-name="uni0450" unicode="&#x450;" horiz-adv-x="510" 
d="M285 558l-74 154h91l55 -154h-72zM332.5 51.5q34.5 18.5 65.5 59.5l60 -43q-34 -57 -89.5 -85t-120.5 -28q-64 0 -112.5 27t-75.5 77.5t-27 117.5q0 30 6 63q14 82 55 140t99 87.5t124 29.5q75 0 121 -37.5t46 -104.5q0 -80 -70 -116t-216 -36q-21 0 -75 2q-1 -9 -1 -25
q0 -72 36 -109.5t98 -37.5q42 0 76.5 18.5zM204 384q-48 -35 -69 -108q46 -3 86 -3q87 0 132 19t45 63q0 32 -22 48t-63 16q-61 0 -109 -35z" />
    <glyph glyph-name="uni0451" unicode="&#x451;" horiz-adv-x="510" 
d="M185.5 594q-16.5 17 -16.5 41t16.5 41t39.5 17q24 0 40.5 -17t16.5 -41t-16.5 -41t-40.5 -17q-23 0 -39.5 17zM390.5 594q-16.5 17 -16.5 41t16.5 41t39.5 17q24 0 40.5 -17t16.5 -41t-16.5 -41t-40.5 -17q-23 0 -39.5 17zM332.5 51.5q34.5 18.5 65.5 59.5l60 -43
q-34 -57 -89.5 -85t-120.5 -28q-64 0 -112.5 27t-75.5 77.5t-27 117.5q0 30 6 63q14 82 55 140t99 87.5t124 29.5q75 0 121 -37.5t46 -104.5q0 -80 -70 -116t-216 -36q-21 0 -75 2q-1 -9 -1 -25q0 -72 36 -109.5t98 -37.5q42 0 76.5 18.5zM204 384q-48 -35 -69 -108
q46 -3 86 -3q87 0 132 19t45 63q0 32 -22 48t-63 16q-61 0 -109 -35z" />
    <glyph glyph-name="uni0452" unicode="&#x452;" horiz-adv-x="581" 
d="M474.5 451q45.5 -46 45.5 -129q0 -32 -5 -57l-67 -375q-17 -93 -63 -133.5t-105 -40.5q-55 0 -88 31l42 64q15 -15 45 -15q31 0 53.5 22.5t32.5 80.5l64 357q5 28 5 49q0 53 -26 82t-76 29q-54 0 -99 -34.5t-61 -100.5l-55 -315h-84l105 598h-72l12 72h72l16 91h85
l-16 -91h165l-12 -72h-166l-25 -142q30 38 70 56.5t87 18.5q75 0 120.5 -46z" />
    <glyph glyph-name="uni0453" unicode="&#x453;" horiz-adv-x="430" 
d="M342 559h-78l109 154h97zM111 486h348l-13 -74h-263l-79 -446h-85z" />
    <glyph glyph-name="uni0454" unicode="&#x454;" horiz-adv-x="482" 
d="M381 103l62 -45q-62 -103 -182 -103q-68 0 -119 31t-78.5 85t-27.5 121q0 35 5 60q13 78 54.5 133.5t98.5 83.5t117 28q64 0 111.5 -32t63.5 -85l-70 -33q-12 33 -40.5 51.5t-68.5 18.5q-58 0 -107 -37.5t-67 -112.5h203l-12 -70h-200q-1 -73 37 -117.5t103 -44.5
q74 0 117 68z" />
    <glyph glyph-name="uni0455" unicode="&#x455;" horiz-adv-x="445" 
d="M326.5 -9q-48.5 -36 -123.5 -36q-57 0 -101.5 20.5t-71 55.5t-31.5 79l68 31q12 -52 47 -80.5t89 -28.5q39 0 64 15t31 47q1 4 1 13q0 30 -25.5 48.5t-76.5 39.5q-46 20 -73 36t-46.5 42.5t-19.5 65.5q0 50 25.5 85.5t67.5 54t91 18.5q73 0 122 -37.5t54 -94.5l-69 -31
q-7 38 -37 61.5t-74 23.5q-38 0 -65 -17.5t-27 -53.5q0 -29 25 -47t76 -39q45 -19 73.5 -35t48.5 -43t20 -66q0 -14 -3 -29q-11 -62 -59.5 -98z" />
    <glyph glyph-name="uni0456" unicode="&#x456;" horiz-adv-x="231" 
d="M140.5 595.5q-16.5 17.5 -16.5 40.5q0 24 16 41t39 17q24 0 40.5 -17t16.5 -41t-16.5 -41t-40.5 -17q-22 0 -38.5 17.5zM104 -34h-84l91 519h84z" />
    <glyph glyph-name="uni0457" unicode="&#x457;" horiz-adv-x="230" 
d="M73.5 595.5q-16.5 17.5 -16.5 40.5t16.5 40.5t39.5 17.5q24 0 40.5 -17t16.5 -41q0 -23 -17 -40.5t-40 -17.5t-39.5 17.5zM205.5 595.5q-16.5 17.5 -16.5 40.5t16.5 40.5t39.5 17.5q24 0 40.5 -17t16.5 -41q0 -23 -17 -40.5t-40 -17.5t-39.5 17.5zM19 -34l92 519h86
l-92 -519h-86z" />
    <glyph glyph-name="uni0458" unicode="&#x458;" horiz-adv-x="228" 
d="M136.5 593.5q-14.5 15.5 -14.5 37.5q0 24 17.5 43.5t41.5 19.5q26 0 41 -19t10 -45q-3 -21 -20.5 -36.5t-39.5 -15.5q-21 0 -35.5 15.5zM-196 -247l40 68q28 -25 67 -25q38 0 63 28.5t37 97.5l98 563h84l-102 -584q-17 -96 -65.5 -140.5t-116.5 -44.5q-64 0 -105 37z" />
    <glyph glyph-name="uni0459" unicode="&#x459;" horiz-adv-x="837" 
d="M595 295q92 0 140.5 -41t48.5 -106q0 -14 -3 -31q-13 -70 -70 -110.5t-158 -40.5h-205l79 446h-198l-55 -256q-24 -109 -72 -155t-141 -46l9 82q54 0 81.5 32.5t42.5 101.5l69 315h362l-34 -191h104zM544 40q73 0 107.5 22.5t41.5 65.5q2 14 2 20q0 73 -125 73h-92
l-32 -181h98z" />
    <glyph glyph-name="uni045A" unicode="&#x45a;" horiz-adv-x="855" 
d="M612 278q92 0 140.5 -39.5t48.5 -100.5q0 -76 -60.5 -124t-170.5 -48h-204l42 238h-262l-42 -238h-85l92 520h85l-37 -208h262l37 208h85l-37 -208h106zM561 40q72 0 107 19.5t42 60.5q1 5 1 16q0 32 -28.5 50t-95.5 18h-94l-29 -164h97z" />
    <glyph glyph-name="uni045B" unicode="&#x45b;" horiz-adv-x="580" 
d="M474.5 451q45.5 -46 45.5 -129q0 -32 -5 -57l-53 -299h-84l51 290q5 28 5 49q0 53 -26 82t-76 29q-54 0 -99 -34.5t-61 -100.5l-55 -315h-84l105 598h-72l12 72h72l16 91h85l-16 -91h165l-12 -72h-166l-25 -142q30 38 70 56.5t87 18.5q75 0 120.5 -46z" />
    <glyph glyph-name="uni045C" unicode="&#x45c;" horiz-adv-x="526" 
d="M357 559h-78l109 154h97zM220 263l218 222h106l-252 -255l172 -264h-102l-144 223h-75l-39 -223h-85l92 520h85l-39 -223h63z" />
    <glyph glyph-name="uni045D" unicode="&#x45d;" horiz-adv-x="578" 
d="M311 559l-74 154h91l55 -154h-72zM196 486l-66 -377l342 377h73l-92 -520h-85l67 378l-343 -378h-73l92 520h85z" />
    <glyph glyph-name="uni045E" unicode="&#x45e;" horiz-adv-x="509" 
d="M210 591.5q-38 33.5 -38 90.5q0 14 3 30h78q-1 -6 -1 -18q0 -33 16.5 -51.5t51.5 -18.5q36 0 58 21t32 67h78q-13 -76 -59.5 -115t-115.5 -39q-65 0 -103 33.5zM448 485h93l-349 -616q-43 -78 -92 -115.5t-109 -37.5q-58 0 -101 35l40 68q27 -23 63 -23q31 0 61.5 23
t66.5 81l41 68l-120 517h92l88 -415z" />
    <glyph glyph-name="uni045F" unicode="&#x45f;" horiz-adv-x="576" 
d="M117 40h262l79 446h85l-92 -520h-175l-36 -172h-70l26 172h-177l92 520h85z" />
    <glyph glyph-name="uni0462" unicode="&#x462;" horiz-adv-x="723" 
d="M433 389q119 0 181.5 -51t62.5 -135q0 -14 -4 -42q-17 -96 -88.5 -145.5t-190.5 -49.5h-283l96 542h-165l14 78h165l20 113h89l-20 -113h219l-14 -78h-219l-21 -119h158zM385 44q91 0 143.5 43t52.5 113q0 52 -42 81.5t-131 29.5h-147l-47 -267h171z" />
    <glyph glyph-name="uni0463" unicode="&#x463;" horiz-adv-x="557" 
d="M315 295q92 0 140.5 -41t48.5 -106q0 -14 -3 -31q-13 -70 -70 -110.5t-158 -40.5h-205l79 446h-118l13 74h118l43 241h85l-43 -241h190l-13 -74h-190l-21 -117h104zM264 40q73 0 107.5 22.5t41.5 65.5q2 14 2 20q0 73 -125 73h-92l-32 -181h98z" />
    <glyph glyph-name="uni046B" unicode="&#x46b;" horiz-adv-x="627" 
d="M386 247q82 -2 125 -50.5t43 -140.5q0 -40 -9 -90h-83q9 53 9 89q0 64 -25.5 92t-76.5 28h-31l-37 -209h-83l37 209h-25q-136 0 -173 -209h-83q25 143 89.5 212t168.5 69h4l-128 239h489zM314 272l122 142h-196z" />
    <glyph glyph-name="uni0472" unicode="&#x472;" horiz-adv-x="748" 
d="M579 669q65 -41 100.5 -114t35.5 -166q0 -40 -8 -88q-19 -105 -72.5 -183.5t-130 -120.5t-162.5 -42q-85 0 -150.5 40.5t-101.5 113.5t-36 166q0 38 8 86q19 106 72.5 185.5t130.5 121.5t164 42q85 0 150 -41zM257 562.5q-71 -66.5 -98 -183.5h463q4 112 -48 181t-150 69
q-96 0 -167 -66.5zM516 107q71 70 96 192h-464q-1 -10 -1 -28q0 -106 52.5 -170t147.5 -64q98 0 169 70z" />
    <glyph glyph-name="uni0473" unicode="&#x473;" horiz-adv-x="579" 
d="M425 466.5q49 -30.5 76.5 -84t27.5 -121.5q0 -24 -5 -57q-14 -77 -54.5 -133.5t-98 -86t-119.5 -29.5q-63 0 -112.5 30t-77 83t-27.5 120q0 24 5 57q13 77 54 134t99 87.5t121 30.5q62 0 111 -30.5zM202 379q-47 -38 -67 -110h306q-2 68 -37 108t-96 40q-59 0 -106 -38z
M368.5 76q47.5 41 65.5 119h-311q-2 -74 34.5 -117t100.5 -43q63 0 110.5 41z" />
    <glyph glyph-name="uni0474" unicode="&#x474;" horiz-adv-x="699" 
d="M782.5 697.5q23.5 -12.5 32.5 -29.5l-39 -64q-19 25 -46 25q-24 0 -43.5 -15.5t-43.5 -57.5l-337 -590h-67l-160 732h96l123 -601l263 485q40 72 77.5 100t89.5 28q31 0 54.5 -12.5z" />
    <glyph glyph-name="uni0475" unicode="&#x475;" horiz-adv-x="557" 
d="M579 484.5q24 -12.5 34 -29.5l-40 -64q-20 26 -48 26q-18 0 -34.5 -15.5t-41.5 -58.5l-220 -377h-69l-114 519h95l77 -405l156 289q39 73 72 100.5t76 27.5q33 0 57 -12.5z" />
    <glyph glyph-name="uni0490" unicode="&#x490;" horiz-adv-x="538" 
d="M158 699h365l43 137h73l-52 -217h-354l-116 -653h-89z" />
    <glyph glyph-name="uni0491" unicode="&#x491;" horiz-adv-x="440" 
d="M111 486h281l36 118h71l-43 -192h-273l-79 -446h-85z" />
    <glyph glyph-name="uni0492" unicode="&#x492;" horiz-adv-x="548" 
d="M162 698h449l-13 -79h-361l-43 -247h132l-14 -79h-132l-58 -327h-89l58 327h-90l14 79h90z" />
    <glyph glyph-name="uni0493" unicode="&#x493;" horiz-adv-x="467" 
d="M142 486h358l-13 -74h-273l-28 -156h133l-14 -74h-132l-38 -216h-85l38 216h-94l14 74h93z" />
    <glyph glyph-name="uni0497" unicode="&#x497;" horiz-adv-x="746" 
d="M664 486h100l-231 -257l107 -189h68l-52 -246h-71l25 172h-27l-122 223h-66l-39 -223h-85l39 223h-54l-203 -223h-110l245 262l-139 258h93l121 -223h61l39 223h85l-39 -223h51z" />
    <glyph glyph-name="uni049A" unicode="&#x49a;" horiz-adv-x="652" 
d="M609 698h104l-343 -357l180 -295h80l-53 -252h-73l25 172h-31l-205 334h-117l-59 -334h-89l129 732h89l-56 -318h106z" />
    <glyph glyph-name="uni049B" unicode="&#x49b;" horiz-adv-x="516" 
d="M438 485h106l-252 -255l124 -190h75l-52 -246h-71l25 172h-31l-144 223h-75l-39 -223h-85l92 520h85l-39 -223h63z" />
    <glyph glyph-name="uni049C" unicode="&#x49c;" horiz-adv-x="665" 
d="M354 380l273 318h99l-303 -357l189 -375h-100l-166 334h-39l-25 -144h-75l25 144h-56l-59 -334h-89l129 732h89l-56 -318h57l25 144h75l-25 -144h32z" />
    <glyph glyph-name="uni049D" unicode="&#x49d;" horiz-adv-x="543" 
d="M271 263l204 222h98l-232 -256l150 -263h-96l-125 223h-19l-17 -97h-67l17 97h-41l-39 -223h-85l92 520h85l-39 -223h40l17 99h67l-17 -99h7z" />
    <glyph glyph-name="uni04A2" unicode="&#x4a2;" horiz-adv-x="772" 
d="M638 698h90l-115 -652h82l-53 -252h-73l25 172h-85l60 340h-392l-60 -340h-89l129 732h89l-55 -312h392z" />
    <glyph glyph-name="uni04A3" unicode="&#x4a3;" horiz-adv-x="611" 
d="M543 486l-79 -446h81l-52 -246h-71l25 172h-81l40 226h-262l-40 -226h-85l92 520h85l-39 -220h262l39 220h85z" />
    <glyph glyph-name="uni04AE" unicode="&#x4ae;" horiz-adv-x="604" 
d="M326 367l248 331h102l-325 -425l-53 -307h-88l55 314l-185 418h99z" />
    <glyph glyph-name="uni04AF" unicode="&#x4af;" horiz-adv-x="504" 
d="M227 79l216 406h93l-284 -501l-45 -257h-85l46 260l-122 498h90z" />
    <glyph glyph-name="uni04B0" unicode="&#x4b0;" horiz-adv-x="604" 
d="M326 367l248 331h102l-276 -361h140l-14 -80h-178l-50 -291h-88l51 291h-183l14 80h148l-160 361h99z" />
    <glyph glyph-name="uni04B1" unicode="&#x4b1;" horiz-adv-x="504" 
d="M227 79l216 406h93l-252 -445h134l-13 -74h-156l-42 -239h-85l42 239h-157l13 74h135l-109 445h90z" />
    <glyph glyph-name="uni04B2" unicode="&#x4b2;" horiz-adv-x="655" 
d="M601 698h105l-324 -363l157 -289h76l-53 -252h-73l25 172h-31l-157 303l-268 -303h-104l333 372l-195 360h99l152 -294z" />
    <glyph glyph-name="uni04B3" unicode="&#x4b3;" horiz-adv-x="490" 
d="M418 485h99l-235 -262l101 -183h72l-52 -246h-71l25 172h-22l-105 196l-176 -196h-101l237 262l-143 257h91l105 -195z" />
    <glyph glyph-name="uni04B8" unicode="&#x4b8;" horiz-adv-x="656" 
d="M558 698h90l-129 -732h-90l58 326q-58 -54 -144 -65l-25 -142h-75l24 139q-88 5 -138.5 51.5t-50.5 138.5q0 30 6 64l38 220h89l-38 -217q-6 -31 -6 -57q0 -57 28.5 -86t86.5 -32l26 147h75l-25 -142q61 12 104.5 50t54.5 104z" />
    <glyph glyph-name="uni04B9" unicode="&#x4b9;" horiz-adv-x="564" 
d="M446 486h85l-92 -520h-85l40 225q-41 -45 -103 -59l-18 -99h-75l17 94q-70 4 -111 40.5t-41 101.5q0 19 3 38l31 179h86l-28 -161q-4 -28 -4 -37q0 -37 18.5 -56.5t59.5 -23.5l21 119h75l-20 -113q45 12 75.5 41.5t38.5 74.5z" />
    <glyph glyph-name="uni04BA" unicode="&#x4ba;" horiz-adv-x="655" 
d="M118 -34h-90l129 732h90l-57 -325q74 68 197 68q98 0 154.5 -46.5t56.5 -143.5q0 -30 -6 -65l-38 -220h-89l38 217q6 32 6 57q0 61 -33 90t-100 29q-79 0 -140 -38t-76 -116z" />
    <glyph glyph-name="uni04BB" unicode="&#x4bb;" horiz-adv-x="569" 
d="M462.5 451q45.5 -46 45.5 -129q0 -32 -5 -57l-53 -299h-84l51 290q5 28 5 49q0 53 -26 82t-76 29q-54 0 -99 -34.5t-61 -100.5l-55 -315h-84l133 761h85l-54 -305q30 38 70 56.5t87 18.5q75 0 120.5 -46z" />
    <glyph glyph-name="uni04CA" unicode="&#x4ca;" horiz-adv-x="607" 
d="M543 486l-79 -446h81l-123 -246h-78l76 172h-54l40 226h-262l-40 -226h-85l92 520h85l-39 -220h262l39 220h85z" />
    <glyph glyph-name="uni04D8" unicode="&#x4d8;" horiz-adv-x="691" 
d="M591.5 630.5q69.5 -79.5 69.5 -218.5q0 -54 -10 -110q-30 -174 -128.5 -260.5t-242.5 -86.5q-110 0 -177 49.5t-67 149.5q0 220 357 220q81 0 171 -10q3 32 3 59q0 103 -46.5 154t-135.5 51q-66 0 -117.5 -29.5t-90.5 -89.5l-61 49q44 75 117.5 113.5t160.5 38.5
q128 0 197.5 -79.5zM455.5 96q67.5 59 95.5 187q-99 11 -167 11q-127 0 -190 -34t-63 -105q0 -57 39 -87.5t114 -30.5q104 0 171.5 59z" />
    <glyph glyph-name="uni04D9" unicode="&#x4d9;" horiz-adv-x="508" 
d="M161.5 400.5q-34.5 -18.5 -65.5 -59.5l-60 43q34 57 89.5 85t120.5 28q64 0 112.5 -27t75.5 -77.5t27 -117.5q0 -30 -6 -63q-14 -82 -55 -140t-99 -87.5t-124 -29.5q-75 0 -121 37.5t-46 104.5q0 80 70 116t216 36q21 0 75 -2q1 9 1 25q0 72 -36 109.5t-98 37.5
q-42 0 -76.5 -18.5zM290 68q48 35 69 108q-47 3 -86 3q-87 0 -132 -19t-45 -63q0 -32 22 -48t63 -16q61 0 109 35z" />
    <glyph glyph-name="uni04E8" unicode="&#x4e8;" horiz-adv-x="748" 
d="M579 669q65 -41 100.5 -114t35.5 -166q0 -40 -8 -88q-19 -105 -72.5 -183.5t-130 -120.5t-162.5 -42q-85 0 -150.5 40.5t-101.5 113.5t-36 166q0 38 8 86q19 106 72.5 185.5t130.5 121.5t164 42q85 0 150 -41zM257 562.5q-71 -66.5 -98 -183.5h463q4 112 -48 181t-150 69
q-96 0 -167 -66.5zM516 107q71 70 96 192h-464q-1 -10 -1 -28q0 -106 52.5 -170t147.5 -64q98 0 169 70z" />
    <glyph glyph-name="uni04E9" unicode="&#x4e9;" horiz-adv-x="579" 
d="M425 466.5q49 -30.5 76.5 -84t27.5 -121.5q0 -24 -5 -57q-14 -77 -54.5 -133.5t-98 -86t-119.5 -29.5q-63 0 -112.5 30t-77 83t-27.5 120q0 24 5 57q13 77 54 134t99 87.5t121 30.5q62 0 111 -30.5zM202 379q-47 -38 -67 -110h306q-2 68 -37 108t-96 40q-59 0 -106 -38z
M368.5 76q47.5 41 65.5 119h-311q-2 -74 34.5 -117t100.5 -43q63 0 110.5 41z" />
    <glyph glyph-name="uni1E00" unicode="&#x1e00;" horiz-adv-x="658" 
d="M436 698l164 -732h-92l-44 210h-303l-114 -210h-97l411 732h75zM448 256l-67 324l-176 -324h243zM192 -102q31 30 77 30q45 0 75 -30t30 -76t-30 -76t-75 -30q-46 0 -77 30t-31 76t31 76zM232 -217q14 -15 37 -15q22 0 35.5 15t13.5 39t-13.5 39t-35.5 15q-23 0 -37 -15
t-14 -39t14 -39z" />
    <glyph glyph-name="uni1E01" unicode="&#x1e01;" horiz-adv-x="594" 
d="M558 486l-91 -520h-73q5 41 8 70q-59 -81 -158 -81q-58 0 -106 29t-75.5 82t-27.5 123q0 31 6 64q13 77 52 132.5t92.5 83.5t110.5 28t99.5 -28.5t63.5 -77.5q17 59 25 95h74zM362 75q48 40 64 135q5 32 5 53q0 76 -40 114.5t-99 38.5q-62 0 -106 -43t-58 -126
q-5 -25 -5 -57q0 -72 35.5 -113.5t97.5 -41.5q58 0 106 40zM167 -102q31 30 77 30q45 0 75 -30t30 -76t-30 -76t-75 -30q-46 0 -77 30t-31 76t31 76zM207 -217q14 -15 37 -15q22 0 35.5 15t13.5 39t-13.5 39t-35.5 15q-23 0 -37 -15t-14 -39t14 -39z" />
    <glyph glyph-name="uni1E3E" unicode="&#x1e3e;" horiz-adv-x="850" 
d="M557 777h-77l106 137h97zM767 698h74l-128 -732h-86l95 549l-285 -360h-53l-170 380l-99 -569h-85l127 732h77l192 -435z" />
    <glyph glyph-name="uni1E3F" unicode="&#x1e3f;" horiz-adv-x="840" 
d="M508 559h-78l109 154h97zM780 326q0 -31 -5 -56l-54 -304h-83l53 296q4 21 4 45q0 50 -23 79.5t-67 29.5q-47 0 -86.5 -36.5t-52.5 -109.5l-54 -304h-83l53 296q4 21 4 45q0 50 -23 79.5t-67 29.5q-47 0 -86.5 -36t-52.5 -109l-53 -305h-84l91 519l73 -3q-5 -35 -8 -65
q57 80 145 80q37 0 67.5 -14.5t49.5 -42.5q13 -17 23 -45q32 53 75.5 77.5t92.5 24.5q38 0 68.5 -14.5t49.5 -42.5q33 -44 33 -114z" />
    <glyph glyph-name="Wgrave" unicode="&#x1e80;" horiz-adv-x="956" 
d="M525 777l-76 137h91l58 -137h-73zM592 699l76 -585l269 584h90l-350 -732h-71l-80 568l-272 -568h-70l-105 732h90l77 -584l271 585h75z" />
    <glyph glyph-name="wgrave" unicode="&#x1e81;" horiz-adv-x="765" 
d="M408 559l-74 154h91l55 -154h-72zM450 485l70 -391l190 391h87l-269 -519h-57l-72 379l-194 -379h-58l-101 519h81l69 -390l189 390h65z" />
    <glyph glyph-name="Wacute" unicode="&#x1e82;" horiz-adv-x="956" 
d="M613 777h-77l106 137h97zM592 699l76 -585l269 584h90l-350 -732h-71l-80 568l-272 -568h-70l-105 732h90l77 -584l271 585h75z" />
    <glyph glyph-name="wacute" unicode="&#x1e83;" horiz-adv-x="765" 
d="M470 559h-78l109 154h97zM450 485l70 -391l190 391h87l-269 -519h-57l-72 379l-194 -379h-58l-101 519h81l69 -390l189 390h65z" />
    <glyph glyph-name="Wdieresis" unicode="&#x1e84;" horiz-adv-x="956" 
d="M439.5 813q-16.5 17 -16.5 41t16.5 41t39.5 17q24 0 40.5 -17t16.5 -41t-16.5 -41t-40.5 -17q-23 0 -39.5 17zM644.5 813q-16.5 17 -16.5 41t16.5 41t39.5 17q24 0 40.5 -17t16.5 -41t-16.5 -41t-40.5 -17q-23 0 -39.5 17zM592 699l76 -585l269 584h90l-350 -732h-71
l-80 568l-272 -568h-70l-105 732h90l77 -584l271 585h75z" />
    <glyph glyph-name="wdieresis" unicode="&#x1e85;" horiz-adv-x="765" 
d="M308.5 595q-16.5 17 -16.5 41t16.5 41t39.5 17q24 0 40.5 -17t16.5 -41t-16.5 -41t-40.5 -17q-23 0 -39.5 17zM513.5 595q-16.5 17 -16.5 41t16.5 41t39.5 17q24 0 40.5 -17t16.5 -41t-16.5 -41t-40.5 -17q-23 0 -39.5 17zM450 485l70 -391l190 391h87l-269 -519h-57
l-72 379l-194 -379h-58l-101 519h81l69 -390l189 390h65z" />
    <glyph glyph-name="uni1EA0" unicode="&#x1ea0;" horiz-adv-x="658" 
d="M436 698l164 -732h-92l-44 210h-303l-114 -210h-97l411 732h75zM448 256l-67 324l-176 -324h243zM232.5 -204.5q-16.5 17.5 -16.5 40.5t16.5 40.5t39.5 17.5q24 0 40.5 -17t16.5 -41q0 -23 -17 -40.5t-40 -17.5t-39.5 17.5z" />
    <glyph glyph-name="uni1EA1" unicode="&#x1ea1;" horiz-adv-x="594" 
d="M558 486l-91 -520h-73q5 41 8 70q-59 -81 -158 -81q-58 0 -106 29t-75.5 82t-27.5 123q0 31 6 64q13 77 52 132.5t92.5 83.5t110.5 28t99.5 -28.5t63.5 -77.5q17 59 25 95h74zM362 75q48 40 64 135q5 32 5 53q0 76 -40 114.5t-99 38.5q-62 0 -106 -43t-58 -126
q-5 -25 -5 -57q0 -72 35.5 -113.5t97.5 -41.5q58 0 106 40zM207.5 -204.5q-16.5 17.5 -16.5 40.5t16.5 40.5t39.5 17.5q24 0 40.5 -17t16.5 -41q0 -23 -17 -40.5t-40 -17.5t-39.5 17.5z" />
    <glyph glyph-name="uni1EA2" unicode="&#x1ea2;" horiz-adv-x="658" 
d="M347 916q33 17 75 17t69 -19.5t27 -54.5q0 -44 -29.5 -68.5t-81.5 -39.5l-34 46q36 10 53.5 20.5t17.5 30.5q0 13 -9 21t-26 8q-24 0 -56 -16zM436 698l164 -732h-92l-44 210h-303l-114 -210h-97l411 732h75zM448 256l-67 324l-176 -324h243z" />
    <glyph glyph-name="uni1EA3" unicode="&#x1ea3;" horiz-adv-x="594" 
d="M272 715q32 18 75 18q42 0 69 -21.5t27 -58.5q0 -47 -29.5 -74t-81.5 -42l-34 49q33 10 50.5 20.5t20.5 29.5q2 15 -7 26t-28 11q-23 0 -56 -18zM558 486l-91 -520h-73q5 41 8 70q-59 -81 -158 -81q-58 0 -106 29t-75.5 82t-27.5 123q0 31 6 64q13 77 52 132.5t92.5 83.5
t110.5 28t99.5 -28.5t63.5 -77.5q17 59 25 95h74zM362 75q48 40 64 135q5 32 5 53q0 76 -40 114.5t-99 38.5q-62 0 -106 -43t-58 -126q-5 -25 -5 -57q0 -72 35.5 -113.5t97.5 -41.5q58 0 106 40z" />
    <glyph glyph-name="uni1EA4" unicode="&#x1ea4;" horiz-adv-x="658" 
d="M599 852h-85l98 80h105zM391 838h83l97 -81h-96l-50 42l-75 -42h-106zM436 698l164 -732h-92l-44 210h-303l-114 -210h-97l411 732h75zM448 256l-67 324l-176 -324h243z" />
    <glyph glyph-name="uni1EA5" unicode="&#x1ea5;" horiz-adv-x="594" 
d="M509 731h-77l97 137h96zM321 712h79l88 -154h-84l-53 93l-84 -93h-88zM558 486l-91 -520h-73q5 41 8 70q-59 -81 -158 -81q-58 0 -106 29t-75.5 82t-27.5 123q0 31 6 64q13 77 52 132.5t92.5 83.5t110.5 28t99.5 -28.5t63.5 -77.5q17 59 25 95h74zM362 75q48 40 64 135
q5 32 5 53q0 76 -40 114.5t-99 38.5q-62 0 -106 -43t-58 -126q-5 -25 -5 -57q0 -72 35.5 -113.5t97.5 -41.5q58 0 106 40z" />
    <glyph glyph-name="uni1EA6" unicode="&#x1ea6;" horiz-adv-x="658" 
d="M503 852l-76 80h91l58 -80h-73zM391 838h83l97 -81h-96l-50 42l-75 -42h-106zM436 698l164 -732h-92l-44 210h-303l-114 -210h-97l411 732h75zM448 256l-67 324l-176 -324h243z" />
    <glyph glyph-name="uni1EA7" unicode="&#x1ea7;" horiz-adv-x="594" 
d="M447 731l-68 137h92l49 -137h-73zM321 712h79l88 -154h-84l-53 93l-84 -93h-88zM558 486l-91 -520h-73q5 41 8 70q-59 -81 -158 -81q-58 0 -106 29t-75.5 82t-27.5 123q0 31 6 64q13 77 52 132.5t92.5 83.5t110.5 28t99.5 -28.5t63.5 -77.5q17 59 25 95h74zM362 75
q48 40 64 135q5 32 5 53q0 76 -40 114.5t-99 38.5q-62 0 -106 -43t-58 -126q-5 -25 -5 -57q0 -72 35.5 -113.5t97.5 -41.5q58 0 106 40z" />
    <glyph glyph-name="uni1EA8" unicode="&#x1ea8;" horiz-adv-x="658" 
d="M465 929q33 10 75 10t69 -12t27 -32q0 -26 -29.5 -40t-81.5 -23l-33 31q38 5 54 8.5t19 12.5q2 6 -7 10t-29 4q-27 0 -58 -8zM391 838h83l97 -81h-96l-50 42l-75 -42h-106zM436 698l164 -732h-92l-44 210h-303l-114 -210h-97l411 732h75zM448 256l-67 324l-176 -324h243z
" />
    <glyph glyph-name="uni1EA9" unicode="&#x1ea9;" horiz-adv-x="594" 
d="M417 868q32 18 75 18q42 0 69 -21.5t27 -58.5q0 -47 -29.5 -74t-81.5 -42l-34 49q33 10 50.5 20.5t20.5 29.5q2 15 -7 26t-28 11q-23 0 -56 -18zM321 712h79l88 -154h-84l-53 93l-84 -93h-88zM558 486l-91 -520h-73q5 41 8 70q-59 -81 -158 -81q-58 0 -106 29t-75.5 82
t-27.5 123q0 31 6 64q13 77 52 132.5t92.5 83.5t110.5 28t99.5 -28.5t63.5 -77.5q17 59 25 95h74zM362 75q48 40 64 135q5 32 5 53q0 76 -40 114.5t-99 38.5q-62 0 -106 -43t-58 -126q-5 -25 -5 -57q0 -72 35.5 -113.5t97.5 -41.5q58 0 106 40z" />
    <glyph glyph-name="uni1EAA" unicode="&#x1eaa;" horiz-adv-x="658" 
d="M278 861q11 33 43.5 51t77.5 18q27 0 42.5 -4.5t31.5 -13.5q10 -6 17.5 -9t19.5 -3q15 0 28 6t20 17h70q-11 -33 -43 -51t-78 -18q-27 0 -42.5 4.5t-31.5 13.5q-10 6 -17.5 9t-19.5 3q-16 0 -28.5 -6t-19.5 -17h-70zM391 838h83l97 -81h-96l-50 42l-75 -42h-106zM436 698
l164 -732h-92l-44 210h-303l-114 -210h-97l411 732h75zM448 256l-67 324l-176 -324h243z" />
    <glyph glyph-name="uni1EAB" unicode="&#x1eab;" horiz-adv-x="594" 
d="M551 865q-11 -60 -44 -93.5t-79 -33.5q-27 0 -42 10t-31 30q-9 13 -17 19.5t-19 6.5q-16 0 -28.5 -14t-19.5 -39h-70q11 60 44 93.5t79 33.5q27 0 42 -10t31 -30q9 -13 17 -19.5t19 -6.5q16 0 28.5 13.5t19.5 39.5h70zM320 712h79l88 -154h-84l-53 93l-84 -93h-88z
M558 486l-91 -520h-73q5 41 8 70q-59 -81 -158 -81q-58 0 -106 29t-75.5 82t-27.5 123q0 31 6 64q13 77 52 132.5t92.5 83.5t110.5 28t99.5 -28.5t63.5 -77.5q17 59 25 95h74zM362 75q48 40 64 135q5 32 5 53q0 76 -40 114.5t-99 38.5q-62 0 -106 -43t-58 -126
q-5 -25 -5 -57q0 -72 35.5 -113.5t97.5 -41.5q58 0 106 40z" />
    <glyph glyph-name="uni1EAC" unicode="&#x1eac;" horiz-adv-x="658" 
d="M394 914h83l97 -137h-89l-58 84l-87 -84h-93zM436 698l164 -732h-92l-44 210h-303l-114 -210h-97l411 732h75zM448 256l-67 324l-176 -324h243zM232.5 -204.5q-16.5 17.5 -16.5 40.5t16.5 40.5t39.5 17.5q24 0 40.5 -17t16.5 -41q0 -23 -17 -40.5t-40 -17.5t-39.5 17.5z
" />
    <glyph glyph-name="uni1EAD" unicode="&#x1ead;" horiz-adv-x="594" 
d="M323 712h79l88 -154h-83l-53 93l-84 -93h-89zM558 486l-91 -520h-73q5 41 8 70q-59 -81 -158 -81q-58 0 -106 29t-75.5 82t-27.5 123q0 31 6 64q13 77 52 132.5t92.5 83.5t110.5 28t99.5 -28.5t63.5 -77.5q17 59 25 95h74zM362 75q48 40 64 135q5 32 5 53q0 76 -40 114.5
t-99 38.5q-62 0 -106 -43t-58 -126q-5 -25 -5 -57q0 -72 35.5 -113.5t97.5 -41.5q58 0 106 40zM207.5 -204.5q-16.5 17.5 -16.5 40.5t16.5 40.5t39.5 17.5q24 0 40.5 -17t16.5 -41q0 -23 -17 -40.5t-40 -17.5t-39.5 17.5z" />
    <glyph glyph-name="uni1EAE" unicode="&#x1eae;" horiz-adv-x="658" 
d="M493 859h-85l98 80h105zM316.5 775q-36.5 18 -36.5 49q0 4 2 14h87q-4 -14 10 -23t46 -9q58 0 75 32h87q-12 -41 -55.5 -61t-111.5 -20q-67 0 -103.5 18zM436 698l164 -732h-92l-44 210h-303l-114 -210h-97l411 732h75zM448 256l-67 324l-176 -324h243z" />
    <glyph glyph-name="uni1EAF" unicode="&#x1eaf;" horiz-adv-x="594" 
d="M399 731h-77l97 137h96zM243 590.5q-38 33.5 -38 90.5q0 14 3 30h78q-1 -6 -1 -18q0 -33 16.5 -51.5t51.5 -18.5q36 0 58 21t32 67h78q-13 -76 -59.5 -115t-115.5 -39q-65 0 -103 33.5zM558 486l-91 -520h-73q5 41 8 70q-59 -81 -158 -81q-58 0 -106 29t-75.5 82
t-27.5 123q0 31 6 64q13 77 52 132.5t92.5 83.5t110.5 28t99.5 -28.5t63.5 -77.5q17 59 25 95h74zM362 75q48 40 64 135q5 32 5 53q0 76 -40 114.5t-99 38.5q-62 0 -106 -43t-58 -126q-5 -25 -5 -57q0 -72 35.5 -113.5t97.5 -41.5q58 0 106 40z" />
    <glyph glyph-name="uni1EB0" unicode="&#x1eb0;" horiz-adv-x="658" 
d="M397 859l-76 80h91l58 -80h-73zM316.5 775q-36.5 18 -36.5 49q0 4 2 14h87q-4 -14 10 -23t46 -9q58 0 75 32h87q-12 -41 -55.5 -61t-111.5 -20q-67 0 -103.5 18zM436 698l164 -732h-92l-44 210h-303l-114 -210h-97l411 732h75zM448 256l-67 324l-176 -324h243z" />
    <glyph glyph-name="uni1EB1" unicode="&#x1eb1;" horiz-adv-x="594" 
d="M337 731l-68 137h92l49 -137h-73zM243 590.5q-38 33.5 -38 90.5q0 14 3 30h78q-1 -6 -1 -18q0 -33 16.5 -51.5t51.5 -18.5q36 0 58 21t32 67h78q-13 -76 -59.5 -115t-115.5 -39q-65 0 -103 33.5zM558 486l-91 -520h-73q5 41 8 70q-59 -81 -158 -81q-58 0 -106 29
t-75.5 82t-27.5 123q0 31 6 64q13 77 52 132.5t92.5 83.5t110.5 28t99.5 -28.5t63.5 -77.5q17 59 25 95h74zM362 75q48 40 64 135q5 32 5 53q0 76 -40 114.5t-99 38.5q-62 0 -106 -43t-58 -126q-5 -25 -5 -57q0 -72 35.5 -113.5t97.5 -41.5q58 0 106 40z" />
    <glyph glyph-name="uni1EB2" unicode="&#x1eb2;" horiz-adv-x="658" 
d="M356 936q33 10 75 10t69 -12t27 -32q0 -26 -29.5 -40t-81.5 -23l-33 31q38 5 54 8.5t19 12.5q2 6 -7 10t-29 4q-27 0 -58 -8zM316.5 775q-36.5 18 -36.5 49q0 4 2 14h87q-4 -14 10 -23t46 -9q58 0 75 32h87q-12 -41 -55.5 -61t-111.5 -20q-67 0 -103.5 18zM436 698
l164 -732h-92l-44 210h-303l-114 -210h-97l411 732h75zM448 256l-67 324l-176 -324h243z" />
    <glyph glyph-name="uni1EB3" unicode="&#x1eb3;" horiz-adv-x="594" 
d="M302 888q32 18 75 18q42 0 69 -21.5t27 -58.5q0 -47 -29.5 -74t-81.5 -42l-34 49q33 10 50.5 20.5t20.5 29.5q2 15 -7 26t-28 11q-23 0 -56 -18zM243 590.5q-38 33.5 -38 90.5q0 14 3 30h78q-1 -6 -1 -18q0 -33 16.5 -51.5t51.5 -18.5q36 0 58 21t32 67h78
q-13 -76 -59.5 -115t-115.5 -39q-65 0 -103 33.5zM558 486l-91 -520h-73q5 41 8 70q-59 -81 -158 -81q-58 0 -106 29t-75.5 82t-27.5 123q0 31 6 64q13 77 52 132.5t92.5 83.5t110.5 28t99.5 -28.5t63.5 -77.5q17 59 25 95h74zM362 75q48 40 64 135q5 32 5 53
q0 76 -40 114.5t-99 38.5q-62 0 -106 -43t-58 -126q-5 -25 -5 -57q0 -72 35.5 -113.5t97.5 -41.5q58 0 106 40z" />
    </font>
</defs>
</svg>
