<?xml version="1.0" standalone="no"?>
<!DOCTYPE svg PUBLIC "-//W3C//DTD SVG 1.1//EN" "http://www.w3.org/Graphics/SVG/1.1/DTD/svg11.dtd" >
<svg xmlns="http://www.w3.org/2000/svg" xmlns:xlink="http://www.w3.org/1999/xlink" version="1.1">
<metadata>
Created by FontForge 20170731 at Fri May 28 14:00:02 2021
 By Aleksey,,,
Copyright 2021 Huawei Device Co., Ltd. All Rights Reserved.
</metadata>
<defs>
<font id="HarmonyOS_Sans_Black_Italic" horiz-adv-x="614" >
  <font-face 
    font-family="HarmonyOS Sans Black"
    font-weight="900"
    font-style="italic"
    font-stretch="normal"
    units-per-em="1000"
    panose-1="0 0 10 0 0 0 0 0 0 0"
    ascent="800"
    descent="-200"
    x-height="482"
    cap-height="698"
    bbox="-634 -296 1662 996"
    underline-thickness="50"
    underline-position="-150"
    slope="-10"
    unicode-range="U+0020-301E"
  />
<missing-glyph horiz-adv-x="500" 
d="M93 850h317v-1000h-317v1000zM333 750v33h-165v-33h65v-37h-66v-33h166v33h-66v37h66zM267 584v70h-100v-104h166v34h-66zM200 620h33v-36h-33v36zM333 490v33h-166v-33h66v-37h-66v-33h100v70h66zM333 363v100h-33v-66h-133v-34h166zM333 228v113h-100v-56h34v23h33v-47
h-100v80h-33v-113h166zM333 55v113h-166v-113h166zM200 135h100v-47h-100v47zM333 -1v33h-166v-33h70l-70 -47v-33h166v33h-102l70 47h32z" />
    <glyph glyph-name="f_b.liga" unicode="fb" horiz-adv-x="1018" 
d="M417 483l-24 -136h-129l-70 -395q-21 -123 -83 -182t-149 -59q-41 0 -75.5 13.5t-56.5 38.5l76 112q22 -25 51 -25q31 0 48.5 29.5t29.5 95.5l65 372h-87l24 136h87l3 18q22 123 86.5 181.5t157.5 58.5q32 0 57.5 -6.5t40.5 -17.5l-24 -134q-29 18 -60 18
q-39 0 -62.5 -29t-35.5 -89h130zM885 468q47 -29 73 -81t26 -121q0 -32 -6 -67q-14 -83 -54 -138t-94.5 -81.5t-114.5 -26.5q-56 0 -96 23.5t-60 69.5q-14 -31 -24 -79h-144l133 760h161l-50 -289q59 59 142 59q61 0 108 -29zM817 251q0 49 -24 79t-68 30q-43 0 -78.5 -29.5
t-45.5 -92.5q-3 -19 -3 -36q0 -49 26 -77.5t69 -28.5q44 0 77 30.5t44 88.5q3 20 3 36z" />
    <glyph glyph-name="f_f.liga" unicode="ff" horiz-adv-x="761" 
d="M833 723q38 -18 58 -45l-78 -110q-28 33 -66 33q-34 0 -55.5 -28.5t-32.5 -89.5h134l-24 -136h-135l-69 -395q-22 -123 -83.5 -182t-149.5 -59q-41 0 -75 13.5t-56 38.5l75 112q23 -24 51 -24q32 0 50 29t29 95l64 372h-206l-70 -395q-21 -122 -82.5 -181.5t-145.5 -59.5
q-90 0 -136 52l76 112q21 -24 51 -24q31 0 49 29t29 95l65 372h-85l24 136h85l3 18q19 123 84 181.5t158 58.5q54 0 88 -16.5t52 -39.5l-76 -107q-19 23 -54 23q-36 0 -58 -28.5t-34 -89.5h208l3 18q19 123 84 181.5t157 58.5q56 0 94 -18z" />
    <glyph glyph-name="f_f_b.liga" unicode="ffb" horiz-adv-x="1388" 
d="M787 483l-23 -136h-130l-69 -395q-21 -122 -83.5 -181.5t-149.5 -59.5q-41 0 -75 13.5t-56 38.5l75 112q24 -25 51 -25q32 0 49.5 29.5t29.5 95.5l64 372h-206l-70 -395q-21 -122 -82.5 -181.5t-145.5 -59.5q-90 0 -136 52l76 112q21 -24 51 -24q31 0 49 29t29 95l65 372
h-85l24 136h85l3 18q19 123 84 181.5t158 58.5q54 0 88 -16.5t52 -39.5l-76 -107q-19 23 -54 23q-36 0 -58 -28.5t-34 -89.5h208l3 18q19 123 84.5 181.5t158.5 58.5q63 0 98 -24l-24 -134q-28 18 -59 18q-39 0 -62.5 -29t-35.5 -89h129zM1255 468q47 -29 73 -81t26 -121
q0 -32 -6 -67q-14 -83 -54 -138t-94.5 -81.5t-114.5 -26.5q-56 0 -96 23.5t-60 69.5q-14 -31 -24 -79h-144l133 760h161l-50 -289q59 59 142 59q61 0 108 -29zM1187 251q0 49 -24 79t-68 30q-43 0 -78.5 -29.5t-45.5 -92.5q-3 -19 -3 -36q0 -49 26 -77.5t69 -28.5
q44 0 77 30.5t44 88.5q3 20 3 36z" />
    <glyph glyph-name="f_f_h.liga" unicode="ffh" horiz-adv-x="1362" 
d="M787 483l-23 -136h-130l-69 -395q-21 -122 -83.5 -181.5t-149.5 -59.5q-41 0 -75 13.5t-56 38.5l75 112q24 -25 51 -25q32 0 49.5 29.5t29.5 95.5l64 372h-206l-70 -395q-21 -122 -82.5 -181.5t-145.5 -59.5q-90 0 -136 52l76 112q21 -24 51 -24q31 0 49 29t29 95l65 372
h-85l24 136h85l3 18q19 123 84 181.5t158 58.5q54 0 88 -16.5t52 -39.5l-76 -107q-19 23 -54 23q-36 0 -58 -28.5t-34 -89.5h208l3 18q19 123 84.5 181.5t158.5 58.5q63 0 98 -24l-24 -134q-28 18 -59 18q-39 0 -62.5 -29t-35.5 -89h129zM1272.5 451.5
q44.5 -45.5 44.5 -133.5q0 -35 -7 -71l-49 -281h-163l43 250q5 30 5 55q0 83 -62 83q-40 0 -70.5 -31t-43.5 -86l-48 -271h-161l133 761h162l-52 -293q30 31 69.5 47t80.5 16q74 0 118.5 -45.5z" />
    <glyph glyph-name="f_f_i.liga" unicode="ffi" horiz-adv-x="1038" 
d="M787 483l-23 -136h-130l-69 -395q-21 -122 -83.5 -181.5t-149.5 -59.5q-41 0 -75 13.5t-56 38.5l75 112q24 -25 51 -25q32 0 49.5 29.5t29.5 95.5l64 372h-206l-70 -395q-21 -122 -82.5 -181.5t-145.5 -59.5q-90 0 -136 52l76 112q21 -24 51 -24q31 0 49 29t29 95l65 372
h-85l24 136h85l3 18q19 123 84 181.5t158 58.5q54 0 88 -16.5t52 -39.5l-76 -107q-19 23 -54 23q-36 0 -58 -28.5t-34 -89.5h208l3 18q19 123 84.5 181.5t158.5 58.5q63 0 98 -24l-24 -134q-28 18 -59 18q-39 0 -62.5 -29t-35.5 -89h129zM1030 702.5q28 -28.5 28 -68.5
q0 -39 -28 -68t-67 -29t-66.5 29t-27.5 68q0 40 27.5 68.5t66.5 28.5t67 -28.5zM927 -34h-163l92 517h163z" />
    <glyph glyph-name="f_f_k.liga" unicode="ffk" horiz-adv-x="1359" 
d="M787 483l-23 -136h-130l-69 -395q-21 -122 -83.5 -181.5t-149.5 -59.5q-41 0 -75 13.5t-56 38.5l75 112q24 -25 51 -25q32 0 49.5 29.5t29.5 95.5l64 372h-206l-70 -395q-21 -122 -82.5 -181.5t-145.5 -59.5q-90 0 -136 52l76 112q21 -24 51 -24q31 0 49 29t29 95l65 372
h-85l24 136h85l3 18q19 123 84 181.5t158 58.5q54 0 88 -16.5t52 -39.5l-76 -107q-19 23 -54 23q-36 0 -58 -28.5t-34 -89.5h208l3 18q19 123 84.5 181.5t158.5 58.5q63 0 98 -24l-24 -134q-28 18 -59 18q-39 0 -62.5 -29t-35.5 -89h129zM1189 483h193l-224 -201l152 -316
h-188l-93 200l-84 -75l-22 -125h-164l135 761h164l-78 -435z" />
    <glyph glyph-name="f_f_l.liga" unicode="ffl" horiz-adv-x="1031" 
d="M787 483l-23 -136h-130l-69 -395q-21 -122 -83.5 -181.5t-149.5 -59.5q-41 0 -75 13.5t-56 38.5l75 112q24 -25 51 -25q32 0 49.5 29.5t29.5 95.5l64 372h-206l-70 -395q-21 -122 -82.5 -181.5t-145.5 -59.5q-90 0 -136 52l76 112q21 -24 51 -24q31 0 49 29t29 95l65 372
h-85l24 136h85l3 18q19 123 84 181.5t158 58.5q54 0 88 -16.5t52 -39.5l-76 -107q-19 23 -54 23q-36 0 -58 -28.5t-34 -89.5h208l3 18q19 123 84.5 181.5t158.5 58.5q63 0 98 -24l-24 -134q-28 18 -59 18q-39 0 -62.5 -29t-35.5 -89h129zM761 -34l133 761h162l-134 -761
h-161z" />
    <glyph glyph-name="f_h.liga" unicode="fh" horiz-adv-x="991" 
d="M417 483l-24 -136h-129l-70 -395q-21 -123 -83 -182t-149 -59q-41 0 -75.5 13.5t-56.5 38.5l76 112q22 -25 51 -25q31 0 48.5 29.5t29.5 95.5l65 372h-87l24 136h87l3 18q22 123 86.5 181.5t157.5 58.5q32 0 57.5 -6.5t40.5 -17.5l-24 -134q-29 18 -60 18
q-39 0 -62.5 -29t-35.5 -89h130zM901.5 451.5q44.5 -45.5 44.5 -133.5q0 -35 -7 -71l-49 -281h-162l43 250q5 30 5 55q0 83 -62 83q-40 0 -71 -31t-44 -86l-48 -271h-161l134 761h161l-51 -293q30 31 69.5 47t80.5 16q73 0 117.5 -45.5z" />
    <glyph glyph-name="f_i.liga" unicode="fi" horiz-adv-x="667" 
d="M422 483l-23 -136h-135l-70 -395q-21 -122 -82.5 -181.5t-145.5 -59.5q-90 0 -136 52l76 112q21 -24 51 -24q31 0 49 29t29 95l65 372h-85l24 136h85l3 18q19 123 84.5 181.5t159.5 58.5q32 0 57.5 -6.5t40.5 -17.5l-24 -134q-29 18 -60 18q-39 0 -62.5 -28.5
t-35.5 -89.5h135zM659 702.5q28 -28.5 28 -68.5q0 -39 -28 -68t-67 -29q-38 0 -65.5 29t-27.5 68q0 40 27.5 68.5t65.5 28.5q39 0 67 -28.5zM557 -34h-163l92 517h163z" />
    <glyph glyph-name="f_k.liga" unicode="fk" horiz-adv-x="988" 
d="M417 483l-24 -136h-129l-70 -395q-21 -123 -83 -182t-149 -59q-41 0 -75.5 13.5t-56.5 38.5l76 112q22 -25 51 -25q31 0 48.5 29.5t29.5 95.5l65 372h-87l24 136h87l3 18q22 123 86.5 181.5t157.5 58.5q32 0 57.5 -6.5t40.5 -17.5l-24 -134q-29 18 -60 18
q-39 0 -62.5 -29t-35.5 -89h130zM818 483h193l-224 -201l153 -316h-189l-93 200l-84 -75l-22 -125h-163l135 761h163l-77 -435z" />
    <glyph glyph-name="f_l.liga" unicode="fl" horiz-adv-x="660" 
d="M417 483l-24 -136h-129l-70 -395q-21 -123 -83 -182t-149 -59q-41 0 -75.5 13.5t-56.5 38.5l76 112q22 -25 51 -25q31 0 48.5 29.5t29.5 95.5l65 372h-87l24 136h87l3 18q22 123 86.5 181.5t157.5 58.5q32 0 57.5 -6.5t40.5 -17.5l-24 -134q-29 18 -60 18
q-39 0 -62.5 -29t-35.5 -89h130zM390 -34l134 761h161l-134 -761h-161z" />
    <glyph glyph-name="r_f.liga" unicode="rf" horiz-adv-x="817" 
d="M889 723q38 -18 58 -45l-78 -110q-28 33 -66 33q-36 0 -57 -29.5t-32 -88.5h135l-25 -136h-134l-69 -395q-22 -123 -83.5 -182t-149.5 -59q-41 0 -75 13.5t-56 38.5l75 112q21 -24 51 -24q32 0 49.5 29t28.5 95l65 372h-85l24 136h86l3 18q19 123 84 181.5t157 58.5
q56 0 94 -18zM257.5 317q-39.5 -41 -51.5 -107l-43 -244h-161l91 517h142l-7 -74q54 88 153 88q33 0 53 -10l-26 -145q-23 16 -56 16q-55 0 -94.5 -41z" />
    <glyph glyph-name="r_t.liga" unicode="rt" horiz-adv-x="872" 
d="M885 483l-24 -137h-159l-27 -153q-4 -28 -4 -37q0 -63 60 -63q35 0 63 22l44 -123q-30 -21 -64 -30t-77 -9q-84 0 -138 37.5t-54 126.5q0 31 5 57l30 172h-89l24 137h89l28 166h163l-29 -166h159zM381 497q33 0 53 -10l-26 -145q-23 16 -56 16q-55 0 -94.5 -41
t-51.5 -107l-43 -244h-161l91 517h142l-7 -74q54 88 153 88z" />
    <glyph glyph-name="r_v.liga" unicode="rv" horiz-adv-x="1010" 
d="M441 487l-25 -145q-23 16 -58 16q-58 0 -99 -41t-53 -107l-43 -244h-161l91 517h142l-3 -33q-2 -13 -4 -41q56 88 158 88q35 0 55 -10zM642 483l70 -313l163 313h176l-307 -516h-132l-142 516h172z" />
    <glyph glyph-name="r_x.liga" unicode="rx" horiz-adv-x="973" 
d="M441 487l-25 -145q-23 16 -58 16q-58 0 -99 -41t-53 -107l-43 -244h-161l91 517h142l-3 -33q-2 -13 -4 -41q56 88 158 88q35 0 55 -10zM708 346l123 137h184l-239 -263l144 -254h-173l-71 139l-121 -139h-184l238 264l-143 253h173z" />
    <glyph glyph-name="r_y.liga" unicode="ry" horiz-adv-x="1014" 
d="M416 342q-23 16 -58 16q-58 0 -99 -41t-53 -107l-43 -244h-161l91 517h142l-3 -33q-2 -13 -4 -41q56 88 158 88q35 0 55 -10zM877 483h178l-322 -569q-59 -104 -127 -153.5t-152 -49.5q-49 0 -86 14t-61 39l73 117q14 -13 33.5 -20t41.5 -7q37 0 71 26t76 88l-131 515
h172l66 -326z" />
    <glyph glyph-name=".notdef" horiz-adv-x="500" 
d="M93 850h317v-1000h-317v1000zM333 750v33h-165v-33h65v-37h-66v-33h166v33h-66v37h66zM267 584v70h-100v-104h166v34h-66zM200 620h33v-36h-33v36zM333 490v33h-166v-33h66v-37h-66v-33h100v70h66zM333 363v100h-33v-66h-133v-34h166zM333 228v113h-100v-56h34v23h33v-47
h-100v80h-33v-113h166zM333 55v113h-166v-113h166zM200 135h100v-47h-100v47zM333 -1v33h-166v-33h70l-70 -47v-33h166v33h-102l70 47h32z" />
    <glyph glyph-name=".null" horiz-adv-x="0" 
 />
    <glyph glyph-name="nonmarkingreturn" horiz-adv-x="333" 
 />
    <glyph glyph-name="space" unicode=" " horiz-adv-x="270" 
 />
    <glyph glyph-name="exclam" unicode="!" horiz-adv-x="279" 
d="M67 215l67 512h172l-114 -512h-125zM32.5 -20.5q-27.5 28.5 -27.5 68.5t27.5 68.5t66.5 28.5q40 0 68 -28.5t28 -68.5t-28 -68.5t-68 -28.5q-39 0 -66.5 28.5z" />
    <glyph glyph-name="quotedbl" unicode="&#x22;" horiz-adv-x="490" 
d="M89 444l48 326h150l-64 -326h-134zM330 444l48 326h152l-66 -326h-134z" />
    <glyph glyph-name="numbersign" unicode="#" horiz-adv-x="714" 
d="M659 548h92l-25 -147h-128l-58 -140h92l-25 -148h-128l-61 -149h-145l62 149h-113l-62 -149h-145l62 149h-93l26 148h127l59 140h-93l25 147h128l62 151h145l-62 -151h113l62 151h145zM338 408l-65 -154h125l64 154h-124z" />
    <glyph glyph-name="dollar" unicode="$" 
d="M400 380q82 -32 129 -73t47 -112q0 -11 -4 -39q-17 -96 -84.5 -143t-158.5 -57l-23 -132h-140l24 138q-82 17 -135 66.5t-63 127.5l137 62q15 -44 37 -68t55 -33l31 169q-82 31 -129.5 72t-47.5 113q0 19 3 38q16 91 84 139.5t161 59.5l21 125h140l-22 -130
q77 -17 124 -63t52 -111l-140 -64q-10 32 -26.5 51.5t-42.5 28.5zM278 427l22 126q-33 -6 -52.5 -22t-19.5 -42q0 -36 50 -62zM410 213.5q-12 13.5 -35 26.5l-23 -126q70 15 70 68q0 18 -12 31.5z" />
    <glyph glyph-name="percent" unicode="%" horiz-adv-x="897" 
d="M409.5 422q-25.5 -43 -69 -66t-93.5 -23q-51 0 -94 23t-69 66t-26 100t26 100t69.5 66.5t93.5 23.5t93.5 -23.5t69 -66.5t25.5 -100t-25.5 -100zM658 698h168l-566 -732h-168zM287 567.5q-16 17.5 -40 17.5t-39.5 -17.5t-15.5 -44.5q0 -28 15.5 -45.5t39.5 -17.5t40 17.5
t16 45.5q0 27 -16 44.5zM835.5 43q-25.5 -43 -69 -66.5t-93.5 -23.5t-93.5 23.5t-69.5 66.5t-26 99q0 57 26 100t69.5 66.5t93.5 23.5t93.5 -23.5t69 -66.5t25.5 -100q0 -56 -25.5 -99zM713 188.5q-16 17.5 -40 17.5t-39.5 -17.5t-15.5 -45.5q0 -27 15.5 -44.5t39.5 -17.5
t40 17.5t16 44.5q0 28 -16 45.5z" />
    <glyph glyph-name="ampersand" unicode="&#x26;" horiz-adv-x="764" 
d="M747 374q-45 -141 -136 -246l133 -162h-195l-50 64q-117 -77 -253 -77q-74 0 -128.5 24.5t-83.5 68.5t-29 103q0 24 4 44q14 81 66 128.5t134 80.5q-40 65 -40 125q0 19 3 37q16 88 85 132.5t160 44.5q66 0 112 -22.5t69.5 -61.5t23.5 -88q0 -17 -3 -35
q-12 -66 -61.5 -107t-130.5 -73l92 -114q41 65 61 134h167zM350 452q48 19 75.5 40t33.5 52q1 4 1 11q0 22 -13.5 36t-39.5 14q-31 0 -54.5 -20t-23.5 -62q0 -35 21 -71zM412 139l-126 161q-54 -24 -83 -54t-29 -73q0 -35 25 -56.5t74 -21.5q68 0 139 44z" />
    <glyph glyph-name="quotesingle" unicode="'" horiz-adv-x="248" 
d="M89 444l48 326h150l-64 -326h-134z" />
    <glyph glyph-name="parenleft" unicode="(" horiz-adv-x="401" 
d="M156 597.5q64 110.5 155 183.5h176q-105 -100 -167 -202t-89 -251q-14 -81 -14 -145q0 -94 23.5 -174t68.5 -154h-146q-51 70 -79.5 161t-28.5 195q0 71 13 140q24 136 88 246.5z" />
    <glyph glyph-name="parenright" unicode=")" horiz-adv-x="402" 
d="M261.5 38.5q-64.5 -110.5 -155.5 -183.5h-175q105 100 167 202t89 251q13 75 13 144q0 95 -23.5 175.5t-68.5 153.5h147q51 -70 79.5 -161.5t28.5 -196.5q0 -69 -13 -138q-24 -136 -88.5 -246.5z" />
    <glyph glyph-name="asterisk" unicode="*" horiz-adv-x="474" 
d="M336 570l117 75l42 -101l-129 -55l113 -54l-75 -101l-98 78l-8 -132h-118l34 129l-114 -75l-44 101l128 55l-111 54l75 101l96 -77l11 131h118z" />
    <glyph glyph-name="plus" unicode="+" 
d="M439 592l-34 -192h192l-25 -144h-192l-34 -192h-143l34 192h-192l24 144h194l34 192h142z" />
    <glyph glyph-name="comma" unicode="," horiz-adv-x="293" 
d="M179.5 118q26.5 -29 26.5 -83q0 -17 -3 -38q-11 -60 -44.5 -110.5t-85 -83.5t-114.5 -39l6 88q47 7 80.5 34t48.5 67q-35 3 -57 28t-22 61q0 42 29 73.5t70 31.5q39 0 65.5 -29z" />
    <glyph glyph-name="hyphen" unicode="-" horiz-adv-x="492" 
d="M47 200l24 136h381l-24 -136h-381z" />
    <glyph glyph-name="period" unicode="." horiz-adv-x="278" 
d="M32.5 -18q-27.5 29 -27.5 68q0 40 27.5 68.5t66.5 28.5q40 0 68 -28.5t28 -68.5q0 -39 -28 -68t-68 -29q-39 0 -66.5 29z" />
    <glyph glyph-name="slash" unicode="/" horiz-adv-x="455" 
d="M-45 -34l404 732h162l-404 -732h-162z" />
    <glyph glyph-name="zero" unicode="0" 
d="M467 40.5q-79 -87.5 -196 -87.5q-108 0 -165.5 74.5t-57.5 206.5q0 60 12 129q30 172 110 260.5t197 88.5q108 0 164.5 -75t56.5 -208q0 -60 -12 -129q-30 -172 -109 -259.5zM224 218q0 -109 60 -109q41 0 69.5 52t47.5 162q13 76 13 123q0 109 -61 109q-40 0 -69 -51.5
t-48 -163.5q-12 -69 -12 -122z" />
    <glyph glyph-name="one" unicode="1" 
d="M109 411l26 160l251 128h136l-130 -733h-173l96 549z" />
    <glyph glyph-name="two" unicode="2" 
d="M542.5 393.5q-19.5 -35.5 -60.5 -80t-119 -118.5l-90 -81h268l-27 -148h-517l18 111l224 216q2 2 35 32q51 48 74 72t34.5 46.5t11.5 50.5q0 27 -15.5 44t-45.5 17q-72 0 -122 -108l-120 88q40 86 111 131.5t157 45.5q70 0 118.5 -27t72.5 -72.5t24 -100.5q0 -15 -4 -43
q-8 -40 -27.5 -75.5z" />
    <glyph glyph-name="three" unicode="3" 
d="M450 334q43 -23 66.5 -61t23.5 -89q0 -23 -4 -43q-16 -94 -89.5 -141t-177.5 -47q-105 0 -170.5 52t-80.5 140l143 67q5 -51 35 -79.5t75 -28.5q35 0 61 18t32 55q2 12 2 18q0 36 -30.5 55.5t-90.5 19.5h-40l25 138h47q56 0 87 25t31 69q0 25 -16 41.5t-47 16.5
q-36 0 -67 -22t-52 -67l-117 85q37 75 109 115.5t154 40.5q66 0 115 -25t75.5 -68.5t26.5 -98.5q0 -19 -3 -40q-17 -106 -123 -146z" />
    <glyph glyph-name="four" unicode="4" 
d="M534 410l-28 -155h97l-25 -146h-97l-26 -143h-166l26 143h-309l19 117l325 473h180l-308 -444h118l28 155h166z" />
    <glyph glyph-name="five" unicode="5" 
d="M606 699l-26 -144h-260l-35 -118q28 9 67 9q58 0 103.5 -26.5t71.5 -75t26 -110.5q0 -22 -5 -54q-19 -112 -95.5 -169.5t-182.5 -57.5q-92 0 -153.5 47t-74.5 133l146 60q5 -44 29 -66.5t61 -22.5q39 0 62 23.5t30 62.5q2 8 2 25q0 37 -20 60t-61 23q-56 0 -91 -54
l-112 73l115 382h403z" />
    <glyph glyph-name="six" unicode="6" 
d="M468.5 409q47.5 -27 73.5 -74.5t26 -106.5q0 -27 -4 -48q-12 -72 -54 -123.5t-103 -77.5t-130 -26q-68 0 -123.5 30t-87.5 84t-32 124q0 23 5 53q9 54 38.5 108t101.5 134l187 212h185l-175 -201l-55 -65q17 4 39 4q61 0 108.5 -27zM390 212q0 36 -21.5 59.5t-58.5 23.5
t-66.5 -23t-36.5 -65q-2 -14 -2 -20q0 -35 22.5 -58.5t60.5 -23.5q36 0 64 22.5t36 65.5q2 14 2 19z" />
    <glyph glyph-name="seven" unicode="7" 
d="M417 550h-314l26 149h507l-19 -107l-353 -626h-188z" />
    <glyph glyph-name="eight" unicode="8" 
d="M550.5 410.5q-29.5 -35.5 -74.5 -55.5q42 -26 65 -64t23 -88q0 -22 -4 -41q-18 -99 -95 -154t-194 -55q-78 0 -134 25t-85.5 69.5t-29.5 101.5q0 23 4 43q11 66 50.5 110.5t98.5 68.5q-69 45 -69 122q0 16 3 32q9 53 43.5 96t91.5 67.5t131 24.5q71 0 120 -24t73 -64.5
t24 -89.5q0 -18 -3 -38q-9 -51 -38.5 -86.5zM398.5 454.5q23.5 21.5 23.5 55.5q0 26 -17 44t-46 18q-33 0 -55 -22.5t-22 -56.5q0 -26 15.5 -43t45.5 -17q32 0 55.5 21.5zM365 268q-20 21 -56 21q-37 0 -65 -23t-35 -64q-2 -14 -2 -21q0 -35 21.5 -56t57.5 -21q42 0 70.5 29
t28.5 80q0 34 -20 55z" />
    <glyph glyph-name="nine" unicode="9" 
d="M484.5 683q55.5 -30 87.5 -84.5t32 -123.5q0 -23 -5 -53q-10 -54 -39.5 -108t-100.5 -134l-187 -212h-185l174 201q35 40 55 65q-16 -4 -39 -4q-61 0 -108.5 27t-73.5 74.5t-26 107.5q0 26 4 47q13 72 55 123.5t103 77.5t130 26q68 0 123.5 -30zM432 479q0 36 -22 59
t-60 23q-37 0 -65 -22.5t-35 -65.5q-2 -14 -2 -21q0 -35 21.5 -58t58.5 -23t66 23t36 65q2 14 2 20z" />
    <glyph glyph-name="colon" unicode=":" horiz-adv-x="299" 
d="M104.5 332q-27.5 29 -27.5 68q0 40 27.5 68.5t66.5 28.5q40 0 68 -28.5t28 -68.5q0 -39 -28 -68t-68 -29q-39 0 -66.5 29zM43 -18q-28 29 -28 68q0 41 27.5 69t67.5 28q39 0 67.5 -28.5t28.5 -68.5q0 -39 -28.5 -68t-67.5 -29t-67 29z" />
    <glyph glyph-name="semicolon" unicode=";" horiz-adv-x="310" 
d="M247.5 468.5q28.5 -28.5 28.5 -68.5q0 -39 -28.5 -68t-68.5 -29q-39 0 -66.5 29t-27.5 68q0 40 27.5 68.5t66.5 28.5q40 0 68.5 -28.5zM185.5 118q26.5 -29 26.5 -83q0 -17 -3 -38q-11 -60 -44.5 -110.5t-85 -83.5t-114.5 -39l6 88q47 7 80.5 34t48.5 67q-35 3 -57 28
t-22 61q0 43 29 74t70 31q39 0 65.5 -29z" />
    <glyph glyph-name="less" unicode="&#x3c;" 
d="M265 323l297 -122l-26 -148l-492 202l24 146l564 202l-26 -158z" />
    <glyph glyph-name="equal" unicode="=" 
d="M594 378h-528l25 143h527zM552 137h-528l25 143h527z" />
    <glyph glyph-name="greater" unicode="&#x3e;" 
d="M377 333l-297 122l25 148l493 -202l-25 -146l-563 -202l25 158z" />
    <glyph glyph-name="question" unicode="?" horiz-adv-x="510" 
d="M25 576q47 85 126 125t166 40q71 0 124 -24.5t81.5 -67.5t28.5 -96q0 -17 -3 -37q-8 -44 -30.5 -76t-50.5 -53t-72 -47q-56 -33 -83.5 -59t-31.5 -66h-128q-4 20 -4 43q0 46 19 79t45 53.5t68 46.5q47 28 68 47.5t21 49.5q0 23 -18.5 36.5t-52.5 13.5q-88 0 -151 -98z
M127.5 -18q-27.5 29 -27.5 68q0 40 27.5 68.5t66.5 28.5q40 0 68 -28.5t28 -68.5q0 -39 -28.5 -68t-67.5 -29t-66.5 29z" />
    <glyph glyph-name="at" unicode="@" horiz-adv-x="1002" 
d="M793.5 694q90.5 -47 139.5 -133t49 -201q0 -48 -9 -101q-20 -115 -75 -174t-152 -59q-54 0 -91.5 18.5t-52.5 55.5q-56 -73 -144 -73q-55 0 -98 25.5t-67 72t-24 108.5q0 33 5 59q13 76 49 128t84.5 78t99.5 26q44 0 78 -19t55 -54q12 30 21 67l113 -6l-52 -292
q-3 -19 -3 -33q0 -25 10.5 -35.5t29.5 -10.5q71 0 94 131q8 48 8 86q0 126 -74.5 197t-208.5 71q-102 0 -190 -40.5t-147.5 -116.5t-78.5 -180q-6 -34 -6 -68q0 -83 35 -148.5t101.5 -102.5t155.5 -37q58 0 112 15t97 41l47 -102q-47 -34 -114 -51.5t-143 -17.5
q-125 0 -218 51t-143 141.5t-50 205.5q0 47 9 96q23 131 100 228.5t191 149t246 51.5q121 0 211.5 -47zM558.5 185.5q33.5 25.5 42.5 84.5q3 20 3 35q0 43 -22 64t-57 21q-42 0 -74 -28t-41 -82q-4 -26 -4 -36q0 -40 20.5 -62t58.5 -22q40 0 73.5 25.5z" />
    <glyph glyph-name="A" unicode="A" horiz-adv-x="743" 
d="M519 698l167 -732h-173l-29 148h-278l-80 -148h-177l419 732h151zM454 257l-46 228l-124 -228h170z" />
    <glyph glyph-name="B" unicode="B" horiz-adv-x="680" 
d="M549 336q85 -46 85 -139q0 -17 -3 -35q-18 -98 -93.5 -147t-202.5 -49h-320l128 732h255q71 0 127.5 -22.5t88.5 -64.5t32 -100q0 -17 -3 -37q-17 -97 -94 -138zM357 407q46 0 75.5 19t35.5 53q1 4 1 12q0 28 -24.5 44t-75.5 16h-86l-26 -144h100zM459 199q0 30 -25 48.5
t-73 18.5h-128l-27 -152h136q103 0 116 70q1 5 1 15z" />
    <glyph glyph-name="C" unicode="C" horiz-adv-x="682" 
d="M299 503q-55 -52 -72 -153q-5 -26 -5 -60q0 -82 40.5 -131t107.5 -49q90 0 147 96l129 -95q-35 -71 -113 -114.5t-175 -43.5q-93 0 -164 42t-110 117t-39 171q0 44 7 85q20 112 77 189.5t138.5 116t173.5 38.5q81 0 139 -28t90 -72.5t40 -94.5l-152 -72q-27 110 -132 110
q-72 0 -127 -52z" />
    <glyph glyph-name="D" unicode="D" horiz-adv-x="746" 
d="M386 698q96 0 172 -39t119.5 -111.5t43.5 -168.5q0 -30 -7 -76q-19 -111 -79 -186.5t-148.5 -113t-193.5 -37.5h-278l128 732h243zM544 375q0 85 -48.5 132t-143.5 47h-66l-77 -444h81q105 0 167.5 52t81.5 156q5 33 5 57z" />
    <glyph glyph-name="E" unicode="E" horiz-adv-x="602" 
d="M143 698h485l-26 -147h-316l-25 -144h284l-25 -146h-284l-27 -147h329l-26 -148h-497z" />
    <glyph glyph-name="F" unicode="F" horiz-adv-x="573" 
d="M143 698h485l-26 -149h-317l-28 -160h284l-25 -148h-284l-48 -275h-169z" />
    <glyph glyph-name="G" unicode="G" horiz-adv-x="714" 
d="M507 240h-130l26 145h294l-56 -320q-40 -55 -112.5 -83.5t-153.5 -28.5q-98 0 -173 42t-116 117.5t-41 172.5q0 44 7 83q19 112 77 189.5t140.5 116t177.5 38.5q79 0 137.5 -26t92.5 -67t44 -86l-152 -71q-14 43 -47.5 69t-89.5 26q-79 0 -136 -55.5t-73 -151.5
q-5 -32 -5 -55q0 -85 47 -136.5t126 -51.5q59 0 98 30z" />
    <glyph glyph-name="H" unicode="H" horiz-adv-x="774" 
d="M263 421h299l49 277h169l-128 -732h-169l53 304h-300l-52 -304h-169l128 732h169z" />
    <glyph glyph-name="I" unicode="I" horiz-adv-x="306" 
d="M184 -34h-169l128 732h169z" />
    <glyph glyph-name="J" unicode="J" horiz-adv-x="543" 
d="M46 0q-58 47 -71 139l147 67q11 -48 28.5 -72.5t52.5 -24.5q43 0 69.5 34.5t37.5 98.5l79 456h169l-85 -487q-25 -142 -101 -200t-174 -58q-94 0 -152 47z" />
    <glyph glyph-name="K" unicode="K" horiz-adv-x="765" 
d="M261 402l326 296h218l-330 -289l230 -443h-207l-162 321l-112 -98l-40 -223h-170l129 732h170z" />
    <glyph glyph-name="L" unicode="L" horiz-adv-x="577" 
d="M144 698h170l-102 -580h321l-27 -152h-492z" />
    <glyph glyph-name="M" unicode="M" horiz-adv-x="870" 
d="M747 698h129l-128 -732h-160l72 417l-190 -219h-86l-133 254l-77 -452h-159l128 732h128l177 -353z" />
    <glyph glyph-name="N" unicode="N" horiz-adv-x="756" 
d="M276 698l251 -462l80 462h155l-128 -732h-134l-251 464l-80 -464h-154l128 732h133z" />
    <glyph glyph-name="O" unicode="O" horiz-adv-x="778" 
d="M128.5 550q58.5 79 142.5 120.5t178 41.5q91 0 160.5 -39.5t108 -111.5t38.5 -166q0 -38 -8 -86q-19 -110 -77.5 -190.5t-142 -123t-177.5 -42.5q-91 0 -160.5 40.5t-108 113.5t-38.5 169q0 43 7 85q19 110 77.5 189zM221 279q0 -77 37 -123.5t104 -46.5q49 0 93 26.5
t75 77t42 119.5q6 32 6 60q0 74 -36.5 118.5t-103.5 44.5q-49 0 -93 -25t-75.5 -74t-43.5 -117q-5 -26 -5 -60z" />
    <glyph glyph-name="P" unicode="P" horiz-adv-x="644" 
d="M394 698q83 0 143 -28t91.5 -78.5t31.5 -116.5q0 -21 -5 -51q-19 -109 -101.5 -165.5t-218.5 -56.5h-110l-41 -236h-169l128 732h251zM482 469q0 85 -123 85h-73l-36 -208h82q130 0 148 100q2 16 2 23z" />
    <glyph glyph-name="Q" unicode="Q" horiz-adv-x="781" 
d="M677.5 127q-53.5 -78 -131.5 -122l196 -212h-219l-151 161q-8 -1 -21 -1q-91 0 -160.5 40.5t-108 113.5t-38.5 169q0 43 7 85q19 110 77.5 189t142.5 120.5t178 41.5q91 0 160.5 -39.5t108 -111.5t38.5 -166q0 -38 -8 -86q-17 -104 -70.5 -182zM455 135.5q44 26.5 75 77
t42 119.5q6 32 6 60q0 74 -36.5 118.5t-103.5 44.5q-49 0 -93 -25t-75.5 -74t-43.5 -117q-5 -26 -5 -60q0 -77 37 -123.5t104 -46.5q49 0 93 26.5z" />
    <glyph glyph-name="R" unicode="R" horiz-adv-x="676" 
d="M602.5 316.5q-40.5 -48.5 -103.5 -74.5l140 -276l-187 1l-117 247h-108l-43 -248h-169l128 732h247q84 0 145 -28t92.5 -77.5t31.5 -112.5q0 -25 -4 -46q-12 -69 -52.5 -117.5zM481 473q0 45 -36 63t-87 18h-72l-34 -197h85q125 0 142 96q2 14 2 20z" />
    <glyph glyph-name="S" unicode="S" horiz-adv-x="597" 
d="M470 9q-39 -28 -88.5 -42t-99.5 -14q-75 0 -139 26.5t-106 76t-51 114.5l147 68q12 -59 54 -95.5t104 -36.5q38 0 61.5 14.5t28.5 44.5q1 4 1 10q0 32 -29 51t-93 45q-60 23 -98.5 44.5t-66.5 58.5t-28 93q0 22 4 42q19 111 114 164q70 39 163 39q69 0 125.5 -24.5
t91 -67.5t40.5 -97l-148 -67q-10 45 -42.5 74t-81.5 29q-40 0 -65 -17.5t-25 -48.5q0 -29 27.5 -47t88.5 -42q62 -25 101.5 -47.5t68.5 -61.5t29 -98q0 -23 -4 -44q-15 -90 -84 -144z" />
    <glyph glyph-name="T" unicode="T" 
d="M78 698h606l-26 -151h-218l-102 -581h-170l101 581h-217z" />
    <glyph glyph-name="U" unicode="U" horiz-adv-x="758" 
d="M603 698h169l-78 -451q-26 -145 -113.5 -219.5t-230.5 -74.5q-94 0 -160 33t-100 92t-34 135q0 31 6 64l73 421h169l-66 -384q-7 -44 -7 -67q0 -70 34 -104t97 -34q69 0 111.5 45t60.5 145z" />
    <glyph glyph-name="V" unicode="V" horiz-adv-x="739" 
d="M269 698l92 -490l259 490h190l-419 -732h-145l-167 732h190z" />
    <glyph glyph-name="W" unicode="W" horiz-adv-x="1020" 
d="M653 698l60 -450l209 450h169l-362 -732h-130l-65 437l-215 -437h-131l-109 732h171l56 -450l213 450h134z" />
    <glyph glyph-name="X" unicode="X" horiz-adv-x="728" 
d="M397 477l189 221h205l-317 -361l199 -371h-200l-119 239l-207 -239h-203l334 378l-190 354h198z" />
    <glyph glyph-name="Y" unicode="Y" horiz-adv-x="694" 
d="M375 411l202 287h190l-334 -457l-49 -275h-170l48 282l-183 450h190z" />
    <glyph glyph-name="Z" unicode="Z" horiz-adv-x="586" 
d="M89 547l26 151h519l-15 -97l-398 -483h325l-26 -152h-564l16 97l399 484h-282z" />
    <glyph glyph-name="bracketleft" unicode="[" horiz-adv-x="394" 
d="M161 781h305l-26 -148h-142l-110 -630h142l-27 -148h-305z" />
    <glyph glyph-name="backslash" unicode="\" horiz-adv-x="440" 
d="M84 698h149l144 -732h-149z" />
    <glyph glyph-name="bracketright" unicode="]" horiz-adv-x="394" 
d="M107 781h306l-163 -926h-306l27 148h142l110 630h-142z" />
    <glyph glyph-name="asciicircum" unicode="^" horiz-adv-x="560" 
d="M332 528l-151 -248h-155l254 418h152l106 -418h-146z" />
    <glyph glyph-name="underscore" unicode="_" horiz-adv-x="513" 
d="M-92 -253l24 136h513l-23 -136h-514z" />
    <glyph glyph-name="grave" unicode="`" horiz-adv-x="394" 
d="M315 545l-99 170h156l64 -170h-121z" />
    <glyph glyph-name="a" unicode="a" horiz-adv-x="630" 
d="M611 483l-91 -517h-141q4 33 6 65q-64 -78 -159 -78q-61 0 -108 29t-73 81.5t-26 120.5q0 33 6 67q14 83 54 138.5t94.5 81.5t114.5 26q56 0 95.5 -23t59.5 -68q12 32 23 77h145zM357 118q35 28 45 91q3 20 3 37q0 51 -26 79.5t-69 28.5q-44 0 -77 -30t-44 -89
q-3 -18 -3 -36q0 -49 24.5 -79t68.5 -30q43 0 78 28z" />
    <glyph glyph-name="b" unicode="b" horiz-adv-x="631" 
d="M497 468q47 -29 73.5 -81.5t26.5 -121.5q0 -31 -6 -66q-14 -83 -54 -138t-95 -81.5t-114 -26.5q-115 0 -156 93q-13 -27 -24 -79h-145l133 760h161l-50 -289q60 59 142 59q61 0 108 -29zM383 126.5q33 30.5 43 88.5q3 20 3 37q0 49 -24 78.5t-68 29.5q-43 0 -78.5 -29.5
t-45.5 -92.5q-3 -18 -3 -35q0 -50 26.5 -78.5t69.5 -28.5q44 0 77 30.5z" />
    <glyph glyph-name="c" unicode="c" horiz-adv-x="495" 
d="M359 145l113 -83q-30 -57 -88 -83t-122 -26q-68 0 -123.5 28t-87.5 82t-32 129q0 29 6 62q15 84 60.5 138.5t106.5 79.5t125 25q80 0 134 -37.5t66 -98.5l-130 -61q-11 27 -29.5 42t-49.5 15q-44 0 -76.5 -31.5t-42.5 -88.5q-4 -19 -4 -40q0 -46 22.5 -74.5t62.5 -28.5
q54 0 89 51z" />
    <glyph glyph-name="d" unicode="d" horiz-adv-x="630" 
d="M493 727h161l-133 -761h-141l3 34q2 20 2 31q-32 -40 -73 -59t-86 -19q-61 0 -108 29t-73 81.5t-26 120.5q0 33 6 67q14 83 54 138.5t94.5 81.5t114.5 26q107 0 150 -81zM357 118q35 28 45 91q3 20 3 37q0 51 -26 79.5t-69 28.5q-44 0 -77 -30t-44 -89q-3 -18 -3 -36
q0 -49 24.5 -79t68.5 -30q43 0 78 28z" />
    <glyph glyph-name="e" unicode="e" horiz-adv-x="533" 
d="M331.5 105.5q28.5 17.5 46.5 47.5l108 -82q-31 -58 -95 -88t-137 -30q-65 0 -118.5 28t-85 81t-31.5 125q0 33 5 59q15 86 61 142.5t109 82.5t132 26q65 0 109.5 -22t66.5 -58.5t22 -81.5q0 -78 -67 -118t-196 -40q-37 0 -81 3q3 -43 27 -67.5t63 -24.5q33 0 61.5 17.5z
M251 347q-30 -20 -49 -57q36 -3 63 -3q52 0 76 11.5t24 34.5q0 34 -48 34q-36 0 -66 -20z" />
    <glyph glyph-name="f" unicode="f" horiz-adv-x="390" 
d="M461.5 723q37.5 -18 58.5 -45l-78 -110q-28 33 -65 33q-36 0 -57 -29t-33 -89h135l-24 -136h-134l-70 -395q-22 -123 -83 -182t-149 -59q-41 0 -75.5 13.5t-56.5 38.5l76 112q21 -24 51 -24q31 0 49 29t29 95l65 372h-86l25 136h85l3 18q19 123 84 181.5t157 58.5
q56 0 93.5 -18z" />
    <glyph glyph-name="g" unicode="g" horiz-adv-x="623" 
d="M612 483l-84 -479q-18 -104 -67 -169.5t-114 -94.5t-136 -29q-91 0 -157 45t-83 119l129 62q28 -86 120 -86q64 0 98 41t50 121q-59 -60 -142 -60q-61 0 -108 29t-73 81.5t-26 120.5q0 33 6 67q14 83 54 138.5t94.5 81.5t114.5 26q114 0 156 -92q11 27 23 78h145z
M405 246q0 51 -26 79.5t-69 28.5q-44 0 -77 -30t-44 -89q-3 -18 -3 -36q0 -49 24.5 -79t68.5 -30q52 0 83.5 32t40.5 95q2 20 2 29z" />
    <glyph glyph-name="h" unicode="h" horiz-adv-x="604" 
d="M514 451.5q44 -45.5 44 -134.5q0 -32 -6 -70l-50 -281h-162l43 250q5 30 5 55q0 83 -62 83q-40 0 -71 -31t-43 -86l-48 -271h-162l134 761h162l-52 -293q30 31 69.5 47t80.5 16q74 0 118 -45.5z" />
    <glyph glyph-name="i" unicode="i" horiz-adv-x="277" 
d="M136.5 566q-27.5 29 -27.5 68q0 40 27.5 68.5t65.5 28.5q39 0 67 -28.5t28 -68.5q0 -39 -28 -68t-67 -29q-38 0 -65.5 29zM168 -34h-161l91 517h161z" />
    <glyph glyph-name="j" unicode="j" horiz-adv-x="272" 
d="M131.5 564q-24.5 26 -24.5 64q0 41 30 72t69 31q37 0 62 -25.5t25 -63.5q0 -5 -2 -19q-5 -35 -34 -60t-65 -25t-60.5 26zM-170.5 -272.5q-39.5 16.5 -60.5 44.5l76 111q27 -33 68 -33q36 0 57.5 28t31.5 86l91 519h163l-96 -547q-20 -118 -85 -171.5t-154 -53.5
q-52 0 -91.5 16.5z" />
    <glyph glyph-name="k" unicode="k" horiz-adv-x="601" 
d="M222 292l209 191h192l-223 -201l152 -316h-188l-94 200l-84 -75l-22 -125h-163l135 761h163z" />
    <glyph glyph-name="l" unicode="l" horiz-adv-x="273" 
d="M164 -34h-162l134 761h162z" />
    <glyph glyph-name="m" unicode="m" horiz-adv-x="867" 
d="M822 318q0 -36 -7 -74l-50 -278h-156l45 252q5 32 5 55q0 81 -54 81q-33 0 -58.5 -29t-35.5 -81l-49 -278h-157l45 252q6 30 6 56q0 80 -55 80q-34 0 -59.5 -29.5t-34.5 -81.5l-48 -277h-157l91 517h137l-3 -32q-2 -18 -2 -29q55 75 143 75q75 0 116 -55q15 -22 21 -42
q32 51 75 74t92 23q75 0 116 -55q34 -46 34 -124z" />
    <glyph glyph-name="n" unicode="n" horiz-adv-x="604" 
d="M514 451.5q44 -45.5 44 -134.5q0 -32 -6 -70l-50 -281h-162l43 250q5 30 5 55q0 83 -62 83q-43 0 -75.5 -35t-42.5 -97l-45 -256h-161l91 517h142l-2 -23q-2 -14 -4 -46q31 41 75 62t92 21q74 0 118 -45.5z" />
    <glyph glyph-name="o" unicode="o" horiz-adv-x="592" 
d="M82.5 387q44.5 55 105.5 82.5t126 27.5q70 0 125.5 -30.5t86.5 -86t31 -125.5q0 -24 -5 -56q-13 -80 -57 -135.5t-105 -83t-125 -27.5q-71 0 -126.5 30.5t-87 85t-31.5 125.5q0 33 5 58q13 80 57.5 135zM184 199q0 -47 23 -76.5t63 -29.5q42 0 74 30.5t43 91.5q4 26 4 38
q0 47 -22.5 76t-62.5 29q-41 0 -74 -31t-44 -91q-4 -26 -4 -37z" />
    <glyph glyph-name="p" unicode="p" horiz-adv-x="628" 
d="M494 468q47 -29 73.5 -81.5t26.5 -121.5q0 -31 -6 -66q-14 -83 -54 -138t-95 -81.5t-114 -26.5q-106 0 -150 79l-53 -309h-162l133 760h142q-4 -32 -6 -62q33 39 73.5 57.5t83.5 18.5q61 0 108 -29zM380 126.5q33 30.5 43 88.5q3 20 3 37q0 49 -24 78.5t-68 29.5
q-42 0 -77.5 -29.5t-45.5 -92.5q-4 -26 -4 -37q0 -48 27 -76.5t69 -28.5q44 0 77 30.5z" />
    <glyph glyph-name="q" unicode="q" horiz-adv-x="631" 
d="M612 483l-133 -760h-161l49 289q-58 -59 -141 -59q-61 0 -108 29t-73 81.5t-26 120.5q0 33 6 67q14 83 54 138.5t94.5 81.5t114.5 26q57 0 96.5 -23.5t59.5 -69.5q14 32 24 79h144zM357 118q35 28 45 91q3 20 3 37q0 51 -26 79.5t-69 28.5q-44 0 -77 -30t-44 -89
q-3 -18 -3 -36q0 -49 24.5 -79t68.5 -30q43 0 78 28z" />
    <glyph glyph-name="r" unicode="r" horiz-adv-x="445" 
d="M443.5 480.5q28.5 -16.5 43.5 -39.5l-83 -122q-24 32 -67 32q-50 0 -84.5 -37.5t-46.5 -103.5l-43 -244h-161l91 517h142l-7 -75q28 45 67 67t81 22q39 0 67.5 -16.5z" />
    <glyph glyph-name="s" unicode="s" horiz-adv-x="463" 
d="M350.5 -10.5q-57.5 -36.5 -144.5 -36.5q-92 0 -152.5 44t-72.5 117l123 54q10 -42 36.5 -63.5t66.5 -21.5q51 0 51 32q0 18 -19 30.5t-63 30.5t-72.5 34t-49.5 43t-21 65q0 7 2 25q13 75 76 114.5t145 39.5q57 0 100.5 -19.5t68.5 -52.5t29 -71l-124 -55q-9 32 -31 50
t-53 18q-21 0 -34 -8.5t-13 -24.5t18 -27.5t58 -27.5q45 -18 75 -35.5t52 -46t22 -70.5q0 -14 -3 -29q-13 -72 -70.5 -108.5z" />
    <glyph glyph-name="t" unicode="t" horiz-adv-x="437" 
d="M424 347h-157l-28 -154q-3 -19 -3 -37q0 -31 14 -47t46 -16t63 19l43 -120q-29 -21 -63 -30t-77 -9q-84 0 -138.5 38t-54.5 127q0 23 5 56l31 173h-93l24 136h92l29 166h163l-29 -166h156z" />
    <glyph glyph-name="u" unicode="u" horiz-adv-x="603" 
d="M423 483h162l-91 -517h-143q6 45 7 77q-60 -90 -167 -90q-77 0 -120.5 43.5t-43.5 124.5q0 30 6 64l52 298h162l-45 -254q-7 -40 -7 -64q0 -69 56 -69q47 0 83 40t47 102z" />
    <glyph glyph-name="v" unicode="v" horiz-adv-x="577" 
d="M209 483l70 -313l163 313h176l-308 -516h-132l-141 516h172z" />
    <glyph glyph-name="w" unicode="w" horiz-adv-x="830" 
d="M520 483l50 -293l136 293h163l-273 -516h-117l-63 285l-150 -285h-118l-111 516h157l48 -298l137 298h141z" />
    <glyph glyph-name="x" unicode="x" horiz-adv-x="545" 
d="M281 346l123 137h183l-239 -263l144 -254h-173l-71 139l-121 -139h-184l238 264l-143 253h174z" />
    <glyph glyph-name="y" unicode="y" horiz-adv-x="576" 
d="M440 483h177l-321 -569q-59 -104 -127 -153.5t-152 -49.5q-49 0 -86 14t-61 39l72 117q30 -27 76 -27q38 0 71.5 26t75.5 88l-131 515h172l66 -326z" />
    <glyph glyph-name="z" unicode="z" horiz-adv-x="451" 
d="M70 482h398l-15 -96l-257 -292h221l-23 -128h-437l16 98l256 290h-180z" />
    <glyph glyph-name="braceleft" unicode="{" horiz-adv-x="434" 
d="M507 781l-26 -148h-37q-37 0 -60 -27t-33 -85l-6 -39q-13 -73 -46 -114t-90 -50q81 -31 81 -125q0 -26 -6 -56l-7 -37q-4 -20 -4 -39q0 -34 18.5 -46t61.5 -12h17l-27 -148h-28q-112 0 -163 31t-51 111q0 34 7 70l11 60q4 20 4 38q0 39 -23 55t-77 24l30 166q45 2 71 12
t41 33t23 66l11 60q15 81 46.5 124.5t77 59.5t113.5 16h71z" />
    <glyph glyph-name="bar" unicode="|" horiz-adv-x="251" 
d="M-22 -145l164 926h148l-164 -926h-148z" />
    <glyph glyph-name="braceright" unicode="}" horiz-adv-x="434" 
d="M-56 -145l26 148h37q73 0 92 112l7 39q13 73 46 114t89 50q-80 31 -80 125q0 26 6 56l6 37q4 21 4 40q0 34 -18 45.5t-61 11.5h-17l27 148h28q112 0 163 -31t51 -111q0 -34 -7 -70l-11 -60q-4 -20 -4 -38q0 -39 23 -55t77 -24l-30 -166q-45 -2 -71 -12t-41 -33t-23 -66
l-11 -60q-15 -81 -46.5 -124.5t-77 -59.5t-113.5 -16h-71z" />
    <glyph glyph-name="asciitilde" unicode="~" 
d="M38 221q11 98 60.5 162.5t134.5 64.5q49 0 78 -19t57 -51q17 -19 26.5 -27t22.5 -8q20 0 32 23t16 66h138q-10 -98 -58.5 -162.5t-133.5 -64.5q-49 0 -77.5 18.5t-57.5 52.5q-17 19 -26.5 27t-22.5 8q-39 0 -50 -90h-139z" />
    <glyph glyph-name="uni00A0" unicode="&#xa0;" horiz-adv-x="270" 
 />
    <glyph glyph-name="exclamdown" unicode="&#xa1;" horiz-adv-x="280" 
d="M230.5 471q27.5 -29 27.5 -68q0 -40 -27.5 -68.5t-66.5 -28.5t-67.5 28.5t-28.5 68.5q0 39 28.5 68t67.5 29t66.5 -29zM196 236l-67 -513h-171l113 513h125z" />
    <glyph glyph-name="cent" unicode="&#xa2;" 
d="M403 211q44 11 72 40l107 -81q-34 -45 -84.5 -67.5t-118.5 -27.5l-19 -109h-145l22 122q-83 23 -130.5 78t-47.5 135q0 25 4 48q19 105 89 164t172 73l20 112h145l-21 -115q64 -12 104.5 -44.5t57.5 -82.5l-123 -62q-20 39 -62 54zM218 305q0 -57 43 -82l38 220
q-64 -26 -78 -105q-3 -18 -3 -33z" />
    <glyph glyph-name="sterling" unicode="&#xa3;" 
d="M341 529q-28 -26 -28 -82q0 -25 9 -59h168l-26 -144h-125l-1 -7q-12 -78 -78 -126h324l-26 -145h-561l19 134q74 45 109.5 75t47.5 69h-127l25 144h81q-10 33 -10 69q0 19 5 51q17 96 88 150t182 54q81 0 134.5 -29.5t78 -74.5t23.5 -94l-146 -63q-5 54 -25.5 79
t-66.5 25t-74 -26z" />
    <glyph glyph-name="currency" unicode="&#xa4;" 
d="M520 204l59 -71l-110 -97l-64 73q-51 -24 -110 -24q-74 0 -126 37l-88 -76l-84 97l93 81q-16 39 -16 88q0 26 4 47q10 53 40 100l-61 72l111 97l63 -73q53 24 110 24q72 0 126 -38l88 77l85 -97l-92 -81q17 -45 17 -92q0 -25 -4 -45q-13 -60 -41 -99zM237.5 250
q21.5 -26 63.5 -26q50 0 85.5 33.5t35.5 89.5q0 40 -22.5 66.5t-65.5 26.5q-50 0 -84 -34.5t-34 -90.5q0 -39 21.5 -65z" />
    <glyph glyph-name="yen" unicode="&#xa5;" 
d="M350 492l147 206h184l-219 -296h111l-22 -119h-151l-9 -46h152l-21 -120h-152l-27 -151h-173l28 151h-154l21 120h154l8 46h-154l22 119h112l-124 296h189z" />
    <glyph glyph-name="brokenbar" unicode="&#xa6;" horiz-adv-x="251" 
d="M77 414l65 367h148l-65 -367h-148zM-22 -145l65 367h148l-65 -367h-148z" />
    <glyph glyph-name="section" unicode="&#xa7;" horiz-adv-x="659" 
d="M332.5 442.5q28.5 -17.5 91.5 -42.5q62 -24 102 -45t68.5 -57t28.5 -89q0 -17 -3 -37q-19 -105 -132 -143q23 -38 23 -83q0 -10 -4 -38q-12 -71 -57 -115t-105 -63t-121 -19q-72 0 -131.5 26.5t-95.5 71.5t-40 99l149 57q6 -45 38.5 -73.5t83.5 -28.5q42 0 74 18.5
t32 52.5q0 28 -28.5 46t-91.5 42q-62 24 -102 45.5t-68.5 57.5t-28.5 89q0 18 3 37q19 105 132 143q-23 38 -23 83q0 10 4 38q12 70 57 114.5t105 63.5t122 19q72 0 131 -26.5t95 -71.5t40 -99l-148 -58q-7 46 -39.5 74.5t-83.5 28.5q-42 0 -74 -19t-32 -53
q0 -28 28.5 -45.5zM221.5 181q28.5 -18 88.5 -41l38 -15q40 2 68.5 18t28.5 52q0 28 -28.5 46t-88.5 41l-38 15q-39 -2 -68 -18t-29 -52q0 -28 28.5 -46z" />
    <glyph glyph-name="dieresis" unicode="&#xa8;" horiz-adv-x="568" 
d="M236 569.5q-24 25.5 -24 60.5t23.5 60t57.5 25q36 0 60.5 -25t24.5 -60t-24.5 -60.5t-60.5 -25.5q-33 0 -57 25.5zM468 569.5q-24 25.5 -24 60.5t24 60t59 25q34 0 58.5 -25t24.5 -60t-24.5 -60.5t-58.5 -25.5q-35 0 -59 25.5z" />
    <glyph glyph-name="copyright" unicode="&#xa9;" horiz-adv-x="832" 
d="M647 667q76 -45 117.5 -122.5t41.5 -172.5q0 -29 -7 -75q-18 -102 -79.5 -180.5t-150.5 -121t-189 -42.5q-101 0 -177 44t-117.5 120t-41.5 170q0 31 7 75q18 103 79.5 182.5t151 123.5t188.5 44q101 0 177 -45zM694 369q0 63 -28 116t-80 84t-120 31q-73 0 -138.5 -32.5
t-110 -91.5t-58.5 -136q-4 -21 -4 -48q0 -63 28 -115t80 -82.5t121 -30.5q72 0 137.5 31.5t110.5 89.5t58 135q4 23 4 49zM558 503q41 -30 50 -78l-99 -46q-7 22 -18.5 32.5t-33.5 10.5q-38 0 -65 -30.5t-27 -82.5q0 -30 14.5 -48.5t41.5 -18.5q34 0 63 29l88 -67
q-23 -38 -65 -55.5t-87 -17.5q-50 0 -91.5 21t-66 61t-24.5 94q0 13 4 41q11 64 45.5 105.5t80 60.5t90.5 19q59 0 100 -30z" />
    <glyph glyph-name="ordfeminine" unicode="&#xaa;" horiz-adv-x="501" 
d="M521 693l-69 -400h-111q4 31 5 49q-49 -59 -123 -59q-72 0 -116 49t-44 130q0 22 5 52q16 95 73 142t130 47q87 0 120 -69q13 33 18 59h112zM324.5 410.5q26.5 21.5 34.5 70.5q2 10 2 28q0 39 -20 61.5t-53 22.5t-58 -24t-34 -69q-2 -10 -2 -27q0 -38 18 -61t53 -23
q33 0 59.5 21.5z" />
    <glyph glyph-name="guillemotleft" unicode="&#xab;" horiz-adv-x="636" 
d="M229 457h175l-232 -235l141 -223h-165l-145 229zM489 457h175l-232 -235l141 -223h-165l-145 229z" />
    <glyph glyph-name="logicalnot" unicode="&#xac;" 
d="M435 291h-385l25 143h528l-60 -335h-142z" />
    <glyph glyph-name="uni00AD" unicode="&#xad;" horiz-adv-x="492" 
d="M57 260l24 136h381l-24 -136h-381z" />
    <glyph glyph-name="registered" unicode="&#xae;" horiz-adv-x="512" 
d="M487.5 373.5q-30.5 -51.5 -81.5 -81.5t-112 -30t-112 30.5t-81.5 82t-30.5 112.5t30.5 112.5t81.5 82t112 30.5t112.5 -31t81.5 -83t30 -113q0 -60 -30.5 -111.5zM374.5 349q35.5 21 56.5 57.5t21 80.5t-20.5 80.5t-56.5 57.5t-81 21q-43 0 -79 -21t-57 -57t-21 -79
q0 -35 13 -65.5t36 -52.5l42 239h91q44 0 65.5 -20t21.5 -52q0 -11 -1 -17q-5 -26 -20.5 -41t-41.5 -23l49 -91h-70l-41 87h-17l-15 -87h-58q43 -38 103 -38q45 0 80.5 21zM273 505h28q39 0 39 25q0 10 -8 16t-24 6h-26z" />
    <glyph glyph-name="macron" unicode="&#xaf;" horiz-adv-x="470" 
d="M527 575h-352l18 104h352z" />
    <glyph glyph-name="degree" unicode="&#xb0;" horiz-adv-x="377" 
d="M100 749.5q24 41.5 65.5 65t91.5 23.5q52 0 93 -23.5t64 -64.5t23 -92q0 -50 -23 -90.5t-64 -64t-93 -23.5q-50 0 -91.5 23.5t-65.5 64t-24 90.5t24 91.5zM208.5 608q18.5 -20 48.5 -20t49.5 20t19.5 50q0 31 -19.5 51.5t-49.5 20.5t-48.5 -20t-18.5 -52q0 -30 18.5 -50z
" />
    <glyph glyph-name="plusminus" unicode="&#xb1;" 
d="M308 656h143l-29 -161h193l-24 -143h-194l-29 -161h-142l29 161h-193l25 143h192zM553 141l-25 -142h-528l24 142h529z" />
    <glyph glyph-name="uni00B2" unicode="&#xb2;" horiz-adv-x="354" 
d="M364.5 629.5q-23.5 -37.5 -84.5 -81.5l-47 -35h139l-16 -87h-297l9 65l140 115q45 37 60.5 57t15.5 48q0 14 -8 23t-25 9q-41 0 -71 -57l-73 56q23 46 63.5 69t87.5 23q61 0 95.5 -35t34.5 -87q0 -45 -23.5 -82.5z" />
    <glyph glyph-name="uni00B3" unicode="&#xb3;" horiz-adv-x="344" 
d="M316 626q52 -32 52 -85q0 -5 -2 -19q-10 -53 -53 -78.5t-101 -25.5q-60 0 -99 28t-51 79l83 34q13 -52 64 -52q24 0 39.5 11t15.5 30q0 18 -18.5 28.5t-56.5 10.5h-14l15 83h20q34 0 53 13t19 33q0 13 -9.5 20.5t-25.5 7.5q-42 0 -71 -49l-72 55q24 41 65.5 62.5
t87.5 21.5q59 0 95.5 -32t36.5 -79q0 -72 -73 -97z" />
    <glyph glyph-name="acute" unicode="&#xb4;" horiz-adv-x="336" 
d="M279 545h-128l124 170h163z" />
    <glyph glyph-name="uni00B5" unicode="&#xb5;" horiz-adv-x="643" 
d="M588 102l5 -129q-18 -9 -42.5 -14.5t-51.5 -5.5q-50 0 -78 21t-37 66q-27 -45 -61 -66t-79 -21q-43 0 -78 21l-44 -251h-163l134 760h163l-50 -284q-1 -9 -1 -25q0 -40 16 -59t49 -19q48 0 79 39.5t43 110.5v-1l42 238h163l-60 -340q-3 -16 -3 -26q0 -14 5.5 -19t17.5 -5
q15 0 31 9z" />
    <glyph glyph-name="paragraph" unicode="&#xb6;" horiz-adv-x="674" 
d="M168.5 662.5q63.5 35.5 175.5 35.5h128l-129 -732h-124l72 376q-92 0 -147.5 44t-55.5 120q0 18 3 37q14 84 77.5 119.5zM548 -34h-125l130 732h125z" />
    <glyph glyph-name="periodcentered" unicode="&#xb7;" horiz-adv-x="500" 
d="M197.5 262q-27.5 29 -27.5 68q0 40 27.5 68.5t66.5 28.5t67.5 -28.5t28.5 -68.5q0 -39 -28.5 -68t-67.5 -29t-66.5 29z" />
    <glyph glyph-name="cedilla" unicode="&#xb8;" horiz-adv-x="342" 
d="M34 -94q42 -5 67.5 -29t25.5 -61q0 -105 -153 -105q-52 0 -92 14l4 75q36 -11 74 -11q56 0 61 24q1 10 -9 15.5t-29 5.5q-25 0 -61 -11l-8 56l69 114h105z" />
    <glyph glyph-name="uni00B9" unicode="&#xb9;" horiz-adv-x="294" 
d="M105 667l15 95l128 64h79l-70 -400h-102l50 290z" />
    <glyph glyph-name="ordmasculine" unicode="&#xba;" horiz-adv-x="467" 
d="M113.5 618q35.5 43 83.5 64t99 21q53 0 95.5 -23.5t67 -65t24.5 -94.5q0 -23 -4 -43q-11 -63 -46 -106t-83 -64t-98 -21q-54 0 -97 23t-67.5 65t-24.5 96q0 22 4 42q11 63 46.5 106zM193 472q0 -36 17 -57t48 -21q33 0 58 23.5t33 68.5q3 15 3 29q0 37 -17.5 59t-48.5 22
q-33 0 -57.5 -24.5t-32.5 -70.5q-3 -15 -3 -29z" />
    <glyph glyph-name="guillemotright" unicode="&#xbb;" horiz-adv-x="636" 
d="M48 456h166l144 -229l-226 -229h-175l232 235zM308 456h166l144 -229l-226 -229h-175l232 235z" />
    <glyph glyph-name="onequarter" unicode="&#xbc;" horiz-adv-x="836" 
d="M731 698l-492 -732h-111l492 732h111zM82 537l15 95l128 64h79l-70 -400h-102l50 290zM747 210l-14 -83h58l-15 -86h-58l-14 -74h-97l13 74h-181l11 69l186 258h108l-175 -241h66l15 83h97z" />
    <glyph glyph-name="onehalf" unicode="&#xbd;" horiz-adv-x="860" 
d="M731 698l-492 -732h-111l492 732h111zM82 537l15 95l128 64h79l-70 -400h-102l50 290zM780 158q-24 -32 -74 -68l-47 -35h139l-16 -88h-297l9 66l140 115q44 35 59.5 55.5t15.5 47.5q0 34 -32 34q-41 0 -71 -57l-73 56q23 46 63.5 69t87.5 23q61 0 95.5 -35t34.5 -87
q0 -14 -3 -28q-7 -36 -31 -68z" />
    <glyph glyph-name="threequarters" unicode="&#xbe;" horiz-adv-x="869" 
d="M293 496q52 -32 52 -85q0 -5 -2 -19q-10 -53 -53 -78.5t-101 -25.5q-60 0 -99 28t-51 79l83 34q13 -52 64 -52q24 0 39.5 11t15.5 30q0 18 -18.5 28.5t-56.5 10.5h-14l15 83h20q34 0 53 13t19 33q0 13 -9.5 20.5t-25.5 7.5q-42 0 -71 -49l-72 55q24 41 65.5 62.5
t87.5 21.5q59 0 95.5 -32t36.5 -79q0 -72 -73 -97zM764 698l-492 -732h-110l492 732h110zM781 210l-14 -83h58l-15 -86h-59l-13 -74h-97l13 74h-181l11 69l186 258h108l-175 -241h66l14 83h98z" />
    <glyph glyph-name="questiondown" unicode="&#xbf;" horiz-adv-x="510" 
d="M366.5 469q27.5 -29 27.5 -68q0 -40 -27.5 -68.5t-66.5 -28.5t-67.5 28.5t-28.5 68.5q0 39 28.5 68t67.5 29t66.5 -29zM469 -125q-47 -85 -125.5 -125t-165.5 -40q-71 0 -124.5 24.5t-82 67.5t-28.5 97q0 18 3 36q8 44 31 76.5t51 53t72 47.5q55 33 82.5 58.5t31.5 65.5
h129q4 -20 4 -43q0 -46 -19 -79t-45 -53.5t-69 -46.5q-45 -25 -67 -45.5t-22 -50.5q0 -23 18 -37t53 -14q89 0 151 98z" />
    <glyph glyph-name="Agrave" unicode="&#xc0;" horiz-adv-x="743" 
d="M387 761l-106 156h162l71 -156h-127zM519 698l167 -732h-173l-29 148h-278l-80 -148h-177l419 732h151zM454 257l-46 228l-124 -228h170z" />
    <glyph glyph-name="Aacute" unicode="&#xc1;" horiz-adv-x="743" 
d="M526 761h-134l125 156h171zM519 698l167 -732h-173l-29 148h-278l-80 -148h-177l419 732h151zM454 257l-46 228l-124 -228h170z" />
    <glyph glyph-name="Acircumflex" unicode="&#xc2;" horiz-adv-x="743" 
d="M420 917h120l109 -157h-131l-49 73l-75 -73h-139zM519 698l167 -732h-173l-29 148h-278l-80 -148h-177l419 732h151zM454 257l-46 228l-124 -228h170z" />
    <glyph glyph-name="Atilde" unicode="&#xc3;" horiz-adv-x="743" 
d="M252 772q14 72 55.5 109.5t100.5 37.5q34 0 53 -11t38 -31q12 -12 19 -17t16 -5q31 0 45 50h106q-13 -71 -55 -109t-102 -38q-34 0 -53 11t-37 30q-11 12 -18 17t-17 5q-15 0 -26 -12t-19 -37h-106zM519 698l167 -732h-173l-29 148h-278l-80 -148h-177l419 732h151z
M454 257l-46 228l-124 -228h170z" />
    <glyph glyph-name="Adieresis" unicode="&#xc4;" horiz-adv-x="743" 
d="M293.5 780.5q-23.5 25.5 -23.5 60.5t23.5 60t57.5 25q36 0 60.5 -25t24.5 -60q0 -36 -24.5 -61t-60.5 -25q-34 0 -57.5 25.5zM526 780.5q-24 25.5 -24 60.5t24 60t59 25q34 0 58.5 -25t24.5 -60t-24.5 -60.5t-58.5 -25.5q-35 0 -59 25.5zM519 698l167 -732h-173l-29 148
h-278l-80 -148h-177l419 732h151zM454 257l-46 228l-124 -228h170z" />
    <glyph glyph-name="Aring" unicode="&#xc5;" horiz-adv-x="743" 
d="M383.5 960.5q36.5 35.5 89.5 35.5q54 0 89.5 -35t35.5 -90q0 -54 -35.5 -89t-89.5 -35q-53 0 -89.5 35t-36.5 89t36.5 89.5zM441.5 838q12.5 -13 31.5 -13t30.5 13t11.5 33q0 21 -11.5 33.5t-30.5 12.5q-20 0 -32 -12.5t-12 -33.5q0 -20 12.5 -33zM519 698l167 -732h-173
l-29 148h-278l-80 -148h-177l419 732h151zM454 257l-46 228l-124 -228h170z" />
    <glyph glyph-name="AE" unicode="&#xc6;" horiz-adv-x="1081" 
d="M549 698h559l-25 -147h-319l-26 -144h287l-26 -146h-287l-26 -147h331l-26 -148h-502l27 149h-246l-117 -149h-204zM540 258l47 263l-206 -263h159z" />
    <glyph glyph-name="Ccedilla" unicode="&#xc7;" horiz-adv-x="682" 
d="M299 503q-55 -52 -72 -153q-5 -26 -5 -60q0 -82 40.5 -131t107.5 -49q90 0 147 96l129 -95q-33 -67 -105 -110t-163 -48h-5l-28 -47q42 -5 67 -28.5t25 -61.5q0 -105 -153 -105q-52 0 -91 14l4 75q35 -11 73 -11q61 0 61 27q0 8 -10 13t-28 5q-23 0 -61 -11l-8 56l51 84
q-106 25 -168 111.5t-62 209.5q0 43 7 84q20 112 77 189.5t138.5 116t173.5 38.5q81 0 139 -28t90 -72.5t40 -94.5l-152 -72q-27 110 -132 110q-72 0 -127 -52z" />
    <glyph glyph-name="Egrave" unicode="&#xc8;" horiz-adv-x="602" 
d="M314 761l-106 156h163l71 -156h-128zM143 698h485l-26 -147h-316l-25 -144h284l-25 -146h-284l-27 -147h329l-26 -148h-497z" />
    <glyph glyph-name="Eacute" unicode="&#xc9;" horiz-adv-x="602" 
d="M454 761h-135l126 156h170zM143 698h485l-26 -147h-316l-25 -144h284l-25 -146h-284l-27 -147h329l-26 -148h-497z" />
    <glyph glyph-name="Ecircumflex" unicode="&#xca;" horiz-adv-x="602" 
d="M347 917h121l109 -157h-131l-50 72l-74 -72h-139zM143 698h485l-26 -147h-316l-25 -144h284l-25 -146h-284l-27 -147h329l-26 -148h-497z" />
    <glyph glyph-name="Edieresis" unicode="&#xcb;" horiz-adv-x="602" 
d="M221 780.5q-24 25.5 -24 60.5t24 60t58 25q36 0 60.5 -25t24.5 -60q0 -36 -24.5 -61t-60.5 -25q-34 0 -58 25.5zM454 780.5q-24 25.5 -24 60.5t24 60t59 25q34 0 58.5 -25t24.5 -60t-24.5 -60.5t-58.5 -25.5q-35 0 -59 25.5zM143 698h485l-26 -147h-316l-25 -144h284
l-25 -146h-284l-27 -147h329l-26 -148h-497z" />
    <glyph glyph-name="Igrave" unicode="&#xcc;" horiz-adv-x="306" 
d="M171 761l-106 156h163l70 -156h-127zM184 -34h-169l128 732h169z" />
    <glyph glyph-name="Iacute" unicode="&#xcd;" horiz-adv-x="306" 
d="M311 761h-135l125 156h171zM184 -34h-169l128 732h169z" />
    <glyph glyph-name="Icircumflex" unicode="&#xce;" horiz-adv-x="306" 
d="M204 917h120l110 -157h-132l-49 72l-74 -72h-140zM184 -34h-169l128 732h169z" />
    <glyph glyph-name="Idieresis" unicode="&#xcf;" horiz-adv-x="306" 
d="M78 780.5q-24 25.5 -24 60.5t24 60t58 25q36 0 60 -25t24 -60q0 -36 -24 -61t-60 -25q-34 0 -58 25.5zM310.5 780.5q-23.5 25.5 -23.5 60.5t23.5 60t58.5 25q34 0 59 -25t25 -60t-25 -60.5t-59 -25.5q-35 0 -58.5 25.5zM184 -34h-169l128 732h169z" />
    <glyph glyph-name="Eth" unicode="&#xd0;" horiz-adv-x="790" 
d="M430 698q96 0 172 -39t119.5 -111t43.5 -168q0 -39 -7 -77q-19 -111 -79 -186.5t-148 -113t-193 -37.5h-279l52 297h-91l26 152h91l50 283h243zM588 375q0 85 -48.5 132t-143.5 47h-66l-24 -139h117l-27 -152h-116l-26 -153h80q212 0 249 208q5 33 5 57z" />
    <glyph glyph-name="Ntilde" unicode="&#xd1;" horiz-adv-x="756" 
d="M260 772q15 72 56 109.5t101 37.5q34 0 53 -11t38 -31q12 -12 19 -17t16 -5q31 0 45 50h106q-13 -71 -55 -109t-102 -38q-34 0 -52 10.5t-38 30.5q-10 11 -18 16.5t-18 5.5q-15 0 -25.5 -12t-18.5 -37h-107zM276 698l251 -462l80 462h155l-128 -732h-134l-251 464
l-80 -464h-154l128 732h133z" />
    <glyph glyph-name="Ograve" unicode="&#xd2;" horiz-adv-x="778" 
d="M406 761l-106 156h163l71 -156h-128zM128.5 550q58.5 79 142.5 120.5t178 41.5q91 0 160.5 -39.5t108 -111.5t38.5 -166q0 -38 -8 -86q-19 -110 -77.5 -190.5t-142 -123t-177.5 -42.5q-91 0 -160.5 40.5t-108 113.5t-38.5 169q0 43 7 85q19 110 77.5 189zM221 279
q0 -77 37 -123.5t104 -46.5q49 0 93 26.5t75 77t42 119.5q6 32 6 60q0 74 -36.5 118.5t-103.5 44.5q-49 0 -93 -25t-75.5 -74t-43.5 -117q-5 -26 -5 -60z" />
    <glyph glyph-name="Oacute" unicode="&#xd3;" horiz-adv-x="778" 
d="M546 761h-135l126 156h170zM128.5 550q58.5 79 142.5 120.5t178 41.5q91 0 160.5 -39.5t108 -111.5t38.5 -166q0 -38 -8 -86q-19 -110 -77.5 -190.5t-142 -123t-177.5 -42.5q-91 0 -160.5 40.5t-108 113.5t-38.5 169q0 43 7 85q19 110 77.5 189zM221 279q0 -77 37 -123.5
t104 -46.5q49 0 93 26.5t75 77t42 119.5q6 32 6 60q0 74 -36.5 118.5t-103.5 44.5q-49 0 -93 -25t-75.5 -74t-43.5 -117q-5 -26 -5 -60z" />
    <glyph glyph-name="Ocircumflex" unicode="&#xd4;" horiz-adv-x="778" 
d="M439 917h121l109 -157h-131l-50 72l-74 -72h-139zM128.5 550q58.5 79 142.5 120.5t178 41.5q91 0 160.5 -39.5t108 -111.5t38.5 -166q0 -38 -8 -86q-19 -110 -77.5 -190.5t-142 -123t-177.5 -42.5q-91 0 -160.5 40.5t-108 113.5t-38.5 169q0 43 7 85q19 110 77.5 189z
M221 279q0 -77 37 -123.5t104 -46.5q49 0 93 26.5t75 77t42 119.5q6 32 6 60q0 74 -36.5 118.5t-103.5 44.5q-49 0 -93 -25t-75.5 -74t-43.5 -117q-5 -26 -5 -60z" />
    <glyph glyph-name="Otilde" unicode="&#xd5;" horiz-adv-x="778" 
d="M271 771q15 73 56 110.5t101 37.5q34 0 54 -11.5t37 -30.5q10 -11 18 -16.5t17 -5.5q30 0 44 50h107q-13 -71 -55 -109t-102 -38q-34 0 -53 11t-37 30q-12 12 -19 17t-17 5q-15 0 -25.5 -12t-18.5 -38h-107zM128.5 550q58.5 79 142.5 120.5t178 41.5q91 0 160.5 -39.5
t108 -111.5t38.5 -166q0 -38 -8 -86q-19 -110 -77.5 -190.5t-142 -123t-177.5 -42.5q-91 0 -160.5 40.5t-108 113.5t-38.5 169q0 43 7 85q19 110 77.5 189zM221 279q0 -77 37 -123.5t104 -46.5q49 0 93 26.5t75 77t42 119.5q6 32 6 60q0 74 -36.5 118.5t-103.5 44.5
q-49 0 -93 -25t-75.5 -74t-43.5 -117q-5 -26 -5 -60z" />
    <glyph glyph-name="Odieresis" unicode="&#xd6;" horiz-adv-x="778" 
d="M313 780.5q-24 25.5 -24 60.5t24 60t58 25q36 0 60.5 -25t24.5 -60q0 -36 -24.5 -61t-60.5 -25q-34 0 -58 25.5zM546 780.5q-24 25.5 -24 60.5t24 60t59 25q34 0 58.5 -25t24.5 -60t-24.5 -60.5t-58.5 -25.5q-35 0 -59 25.5zM128.5 550q58.5 79 142.5 120.5t178 41.5
q91 0 160.5 -39.5t108 -111.5t38.5 -166q0 -38 -8 -86q-19 -110 -77.5 -190.5t-142 -123t-177.5 -42.5q-91 0 -160.5 40.5t-108 113.5t-38.5 169q0 43 7 85q19 110 77.5 189zM221 279q0 -77 37 -123.5t104 -46.5q49 0 93 26.5t75 77t42 119.5q6 32 6 60q0 74 -36.5 118.5
t-103.5 44.5q-49 0 -93 -25t-75.5 -74t-43.5 -117q-5 -26 -5 -60z" />
    <glyph glyph-name="multiply" unicode="&#xd7;" 
d="M335 428l180 154l87 -101l-182 -154l128 -152l-116 -101l-127 154l-179 -154l-87 101l181 155l-126 151l114 101z" />
    <glyph glyph-name="Oslash" unicode="&#xd8;" horiz-adv-x="792" 
d="M584 734h170l-93 -137q44 -50 68.5 -117.5t24.5 -146.5q0 -114 -48 -200.5t-130 -133t-180 -46.5q-81 0 -151 32l-37 -54h-170l93 137q-45 51 -69 118t-24 147q0 113 48 199t129.5 133t180.5 47q80 0 150 -32zM233 219l222 325q-25 11 -59 11q-54 0 -96 -27.5t-65.5 -78
t-23.5 -116.5q0 -64 22 -114zM558 445l-221 -325q25 -11 59 -11q54 0 96 27.5t65 78.5t23 118q0 62 -22 112z" />
    <glyph glyph-name="Ugrave" unicode="&#xd9;" horiz-adv-x="758" 
d="M397 761l-106 156h163l70 -156h-127zM603 698h169l-78 -451q-26 -145 -113.5 -219.5t-230.5 -74.5q-94 0 -160 33t-100 92t-34 135q0 31 6 64l73 421h169l-66 -384q-7 -44 -7 -67q0 -70 34 -104t97 -34q69 0 111.5 45t60.5 145z" />
    <glyph glyph-name="Uacute" unicode="&#xda;" horiz-adv-x="758" 
d="M536 761h-134l125 156h171zM603 698h169l-78 -451q-26 -145 -113.5 -219.5t-230.5 -74.5q-94 0 -160 33t-100 92t-34 135q0 31 6 64l73 421h169l-66 -384q-7 -44 -7 -67q0 -70 34 -104t97 -34q69 0 111.5 45t60.5 145z" />
    <glyph glyph-name="Ucircumflex" unicode="&#xdb;" horiz-adv-x="758" 
d="M430 917h120l110 -157h-132l-49 72l-75 -72h-139zM603 698h169l-78 -451q-26 -145 -113.5 -219.5t-230.5 -74.5q-94 0 -160 33t-100 92t-34 135q0 31 6 64l73 421h169l-66 -384q-7 -44 -7 -67q0 -70 34 -104t97 -34q69 0 111.5 45t60.5 145z" />
    <glyph glyph-name="Udieresis" unicode="&#xdc;" horiz-adv-x="758" 
d="M303.5 780.5q-23.5 25.5 -23.5 60.5t23.5 60t57.5 25q36 0 60.5 -25t24.5 -60q0 -36 -24.5 -61t-60.5 -25q-34 0 -57.5 25.5zM536 780.5q-24 25.5 -24 60.5t24 60t59 25q34 0 58.5 -25t24.5 -60t-24.5 -60.5t-58.5 -25.5q-35 0 -59 25.5zM603 698h169l-78 -451
q-26 -145 -113.5 -219.5t-230.5 -74.5q-94 0 -160 33t-100 92t-34 135q0 31 6 64l73 421h169l-66 -384q-7 -44 -7 -67q0 -70 34 -104t97 -34q69 0 111.5 45t60.5 145z" />
    <glyph glyph-name="Yacute" unicode="&#xdd;" horiz-adv-x="694" 
d="M506 761h-135l126 156h171zM375 411l202 287h190l-334 -457l-49 -275h-170l48 282l-183 450h190z" />
    <glyph glyph-name="Thorn" unicode="&#xde;" horiz-adv-x="651" 
d="M380 580q83 0 143 -28t91.5 -78.5t31.5 -116.5q0 -21 -5 -51q-19 -109 -101 -165t-218 -56h-117l-21 -119h-170l129 732h170l-20 -118h87zM468 352q0 85 -122 85h-79l-36 -208h88q131 0 147 100q2 16 2 23z" />
    <glyph glyph-name="germandbls" unicode="&#xdf;" horiz-adv-x="635" 
d="M487 340q49 -20 78.5 -58t29.5 -95q0 -21 -4 -41q-17 -100 -87 -146.5t-179 -46.5q-63 0 -107 18l15 137q12 -7 33 -11t45 -4q103 0 117 82q2 14 2 20q0 45 -34.5 63.5t-72.5 18.5h-43l25 136h18q49 0 79.5 20t39.5 71q2 18 2 26q0 67 -66 67q-102 0 -132 -177l-82 -454
h-163l86 481q28 154 108.5 223.5t189.5 69.5q69 0 120.5 -28t79 -75t27.5 -105q0 -23 -4 -43q-19 -110 -121 -149z" />
    <glyph glyph-name="agrave" unicode="&#xe0;" horiz-adv-x="630" 
d="M306 545l-100 170h157l64 -170h-121zM611 483l-91 -517h-141q4 33 6 65q-64 -78 -159 -78q-61 0 -108 29t-73 81.5t-26 120.5q0 33 6 67q14 83 54 138.5t94.5 81.5t114.5 26q56 0 95.5 -23t59.5 -68q12 32 23 77h145zM357 118q35 28 45 91q3 20 3 37q0 51 -26 79.5
t-69 28.5q-44 0 -77 -30t-44 -89q-3 -18 -3 -36q0 -49 24.5 -79t68.5 -30q43 0 78 28z" />
    <glyph glyph-name="aacute" unicode="&#xe1;" horiz-adv-x="630" 
d="M413 545h-128l124 170h163zM611 483l-91 -517h-141q4 33 6 65q-64 -78 -159 -78q-61 0 -108 29t-73 81.5t-26 120.5q0 33 6 67q14 83 54 138.5t94.5 81.5t114.5 26q56 0 95.5 -23t59.5 -68q12 32 23 77h145zM357 118q35 28 45 91q3 20 3 37q0 51 -26 79.5t-69 28.5
q-44 0 -77 -30t-44 -89q-3 -18 -3 -36q0 -49 24.5 -79t68.5 -30q43 0 78 28z" />
    <glyph glyph-name="acircumflex" unicode="&#xe2;" horiz-adv-x="630" 
d="M327 715h115l105 -170h-129l-44 73l-70 -73h-141zM611 483l-91 -517h-141q4 33 6 65q-64 -78 -159 -78q-61 0 -108 29t-73 81.5t-26 120.5q0 33 6 67q14 83 54 138.5t94.5 81.5t114.5 26q56 0 95.5 -23t59.5 -68q12 32 23 77h145zM357 118q35 28 45 91q3 20 3 37
q0 51 -26 79.5t-69 28.5q-44 0 -77 -30t-44 -89q-3 -18 -3 -36q0 -49 24.5 -79t68.5 -30q43 0 78 28z" />
    <glyph glyph-name="atilde" unicode="&#xe3;" horiz-adv-x="630" 
d="M156 558q15 78 56 118.5t101 40.5q34 0 53.5 -12t37.5 -33q10 -12 18 -18t17 -6q30 0 44 54h107q-13 -77 -55 -118t-102 -41q-34 0 -53 12t-37 33q-12 13 -19 18.5t-17 5.5q-15 0 -25.5 -13t-18.5 -41h-107zM611 483l-91 -517h-141q4 33 6 65q-64 -78 -159 -78
q-61 0 -108 29t-73 81.5t-26 120.5q0 33 6 67q14 83 54 138.5t94.5 81.5t114.5 26q56 0 95.5 -23t59.5 -68q12 32 23 77h145zM357 118q35 28 45 91q3 20 3 37q0 51 -26 79.5t-69 28.5q-44 0 -77 -30t-44 -89q-3 -18 -3 -36q0 -49 24.5 -79t68.5 -30q43 0 78 28z" />
    <glyph glyph-name="adieresis" unicode="&#xe4;" horiz-adv-x="630" 
d="M197 569.5q-24 25.5 -24 60.5t24 60t58 25q36 0 60.5 -25t24.5 -60q0 -36 -24.5 -61t-60.5 -25q-34 0 -58 25.5zM429.5 569.5q-23.5 25.5 -23.5 60.5t23.5 60t58.5 25t59.5 -25t24.5 -60t-24.5 -60.5t-59.5 -25.5t-58.5 25.5zM611 483l-91 -517h-141q4 33 6 65
q-64 -78 -159 -78q-61 0 -108 29t-73 81.5t-26 120.5q0 33 6 67q14 83 54 138.5t94.5 81.5t114.5 26q56 0 95.5 -23t59.5 -68q12 32 23 77h145zM357 118q35 28 45 91q3 20 3 37q0 51 -26 79.5t-69 28.5q-44 0 -77 -30t-44 -89q-3 -18 -3 -36q0 -49 24.5 -79t68.5 -30
q43 0 78 28z" />
    <glyph glyph-name="aring" unicode="&#xe5;" horiz-adv-x="630" 
d="M286.5 746q36.5 35 90.5 35t89.5 -35t35.5 -89q0 -55 -35.5 -90t-89.5 -35t-90.5 35t-36.5 90q0 54 36.5 89zM345.5 624q12.5 -13 31.5 -13t30.5 12.5t11.5 33.5t-11.5 33.5t-30.5 12.5t-31.5 -13t-12.5 -33t12.5 -33zM611 483l-91 -517h-141q4 33 6 65q-64 -78 -159 -78
q-61 0 -108 29t-73 81.5t-26 120.5q0 33 6 67q14 83 54 138.5t94.5 81.5t114.5 26q56 0 95.5 -23t59.5 -68q12 32 23 77h145zM357 118q35 28 45 91q3 20 3 37q0 51 -26 79.5t-69 28.5q-44 0 -77 -30t-44 -89q-3 -18 -3 -36q0 -49 24.5 -79t68.5 -30q43 0 78 28z" />
    <glyph glyph-name="ae" unicode="&#xe6;" horiz-adv-x="861" 
d="M780 213q-72 -41 -213 -41q-18 0 -64 2q6 -41 31.5 -63.5t63.5 -22.5q33 0 61 17.5t46 47.5l109 -82q-31 -58 -95 -88t-137 -30q-61 0 -108.5 24.5t-74.5 70.5q-35 -50 -77.5 -72.5t-106.5 -22.5q-62 0 -109 20.5t-72 56.5t-25 81q0 19 2 28q15 85 92 124t192 39
q18 0 56 -2q-3 67 -68 67q-33 0 -59 -17.5t-44 -46.5l-106 79q32 57 89 86t125 29q60 0 102.5 -21t65.5 -60q40 41 93 61t109 20q63 0 106.5 -22t65.5 -58.5t22 -81.5q0 -81 -72 -122zM575 346q-32 -21 -51 -60q38 -2 52 -2q61 0 89 12t28 37q0 34 -48 34q-38 0 -70 -21z
M337 193q-11 1 -31 1q-66 0 -101 -22.5t-35 -57.5q0 -19 13.5 -29.5t36.5 -10.5q37 0 71.5 24.5t40.5 61.5z" />
    <glyph glyph-name="ccedilla" unicode="&#xe7;" horiz-adv-x="495" 
d="M359 145l113 -83q-29 -53 -81.5 -79.5t-112.5 -29.5l-30 -47q42 -5 67.5 -29t25.5 -61q0 -105 -153 -105q-52 0 -92 14l4 75q36 -11 74 -11q61 0 61 27q0 8 -10 13t-28 5q-23 0 -61 -11l-8 56l52 86q-73 22 -117 80.5t-44 145.5q0 30 6 63q15 84 60.5 138.5t106.5 79.5
t125 25q80 0 134 -37.5t66 -98.5l-130 -61q-11 27 -29.5 42t-49.5 15q-44 0 -76.5 -31.5t-42.5 -88.5q-4 -19 -4 -40q0 -46 22.5 -74.5t62.5 -28.5q54 0 89 51z" />
    <glyph glyph-name="egrave" unicode="&#xe8;" horiz-adv-x="533" 
d="M271 545l-100 170h157l64 -170h-121zM331.5 105.5q28.5 17.5 46.5 47.5l108 -82q-31 -58 -95 -88t-137 -30q-65 0 -118.5 28t-85 81t-31.5 125q0 33 5 59q15 86 61 142.5t109 82.5t132 26q65 0 109.5 -22t66.5 -58.5t22 -81.5q0 -78 -67 -118t-196 -40q-37 0 -81 3
q3 -43 27 -67.5t63 -24.5q33 0 61.5 17.5zM251 347q-30 -20 -49 -57q36 -3 63 -3q52 0 76 11.5t24 34.5q0 34 -48 34q-36 0 -66 -20z" />
    <glyph glyph-name="eacute" unicode="&#xe9;" horiz-adv-x="533" 
d="M378 545h-129l125 170h163zM331.5 105.5q28.5 17.5 46.5 47.5l108 -82q-31 -58 -95 -88t-137 -30q-65 0 -118.5 28t-85 81t-31.5 125q0 33 5 59q15 86 61 142.5t109 82.5t132 26q65 0 109.5 -22t66.5 -58.5t22 -81.5q0 -78 -67 -118t-196 -40q-37 0 -81 3q3 -43 27 -67.5
t63 -24.5q33 0 61.5 17.5zM251 347q-30 -20 -49 -57q36 -3 63 -3q52 0 76 11.5t24 34.5q0 34 -48 34q-36 0 -66 -20z" />
    <glyph glyph-name="ecircumflex" unicode="&#xea;" horiz-adv-x="533" 
d="M292 715h115l105 -170h-130l-44 73l-70 -73h-140zM331.5 105.5q28.5 17.5 46.5 47.5l108 -82q-31 -58 -95 -88t-137 -30q-65 0 -118.5 28t-85 81t-31.5 125q0 33 5 59q15 86 61 142.5t109 82.5t132 26q65 0 109.5 -22t66.5 -58.5t22 -81.5q0 -78 -67 -118t-196 -40
q-37 0 -81 3q3 -43 27 -67.5t63 -24.5q33 0 61.5 17.5zM251 347q-30 -20 -49 -57q36 -3 63 -3q52 0 76 11.5t24 34.5q0 34 -48 34q-36 0 -66 -20z" />
    <glyph glyph-name="edieresis" unicode="&#xeb;" horiz-adv-x="533" 
d="M162 569.5q-24 25.5 -24 60.5t24 60t58 25q36 0 60 -25t24 -60q0 -36 -24 -61t-60 -25q-34 0 -58 25.5zM394 569.5q-24 25.5 -24 60.5t24 60t59 25q34 0 59 -25t25 -60t-25 -60.5t-59 -25.5q-35 0 -59 25.5zM331.5 105.5q28.5 17.5 46.5 47.5l108 -82q-31 -58 -95 -88
t-137 -30q-65 0 -118.5 28t-85 81t-31.5 125q0 33 5 59q15 86 61 142.5t109 82.5t132 26q65 0 109.5 -22t66.5 -58.5t22 -81.5q0 -78 -67 -118t-196 -40q-37 0 -81 3q3 -43 27 -67.5t63 -24.5q33 0 61.5 17.5zM251 347q-30 -20 -49 -57q36 -3 63 -3q52 0 76 11.5t24 34.5
q0 34 -48 34q-36 0 -66 -20z" />
    <glyph glyph-name="igrave" unicode="&#xec;" horiz-adv-x="273" 
d="M134 545l-99 170h156l64 -170h-121zM1 -34l92 517h163l-92 -517h-163z" />
    <glyph glyph-name="iacute" unicode="&#xed;" horiz-adv-x="273" 
d="M242 545h-129l124 170h164zM1 -34l92 517h163l-92 -517h-163z" />
    <glyph glyph-name="icircumflex" unicode="&#xee;" horiz-adv-x="273" 
d="M156 715h114l105 -170h-129l-44 73l-70 -73h-141zM1 -34l92 517h163l-92 -517h-163z" />
    <glyph glyph-name="idieresis" unicode="&#xef;" horiz-adv-x="273" 
d="M25 569.5q-24 25.5 -24 60.5t24 60t58 25q36 0 60.5 -25t24.5 -60t-24.5 -60.5t-60.5 -25.5q-34 0 -58 25.5zM258 569.5q-24 25.5 -24 60.5t24 60t59 25q34 0 58.5 -25t24.5 -60t-24.5 -60.5t-58.5 -25.5q-35 0 -59 25.5zM1 -34l92 517h163l-92 -517h-163z" />
    <glyph glyph-name="eth" unicode="&#xf0;" horiz-adv-x="599" 
d="M536 741l45 -84l-119 -60q53 -62 80 -138t27 -159q0 -42 -8 -92q-23 -133 -105 -194t-186 -61q-73 0 -130.5 28.5t-90 81.5t-32.5 122q0 23 5 53q13 75 58 128t107 80t126 27q45 0 80 -15q-23 43 -55 75l-154 -78l-42 84l114 59q-42 26 -89 43l85 98q76 -28 136 -73z
M396 243q0 44 -22 70t-61 26q-44 0 -80 -33t-47 -93q-3 -16 -3 -32q0 -43 22.5 -69.5t61.5 -26.5q43 0 79 33t47 93q3 17 3 32z" />
    <glyph glyph-name="ntilde" unicode="&#xf1;" horiz-adv-x="604" 
d="M144 559q15 77 56 118t101 41q34 0 53.5 -12.5t36.5 -33.5q12 -13 19 -18.5t17 -5.5q30 0 44 54h107q-13 -77 -55 -118t-102 -41q-34 0 -53 12t-37 33q-12 13 -19 18.5t-17 5.5q-29 0 -44 -53h-107zM514 451.5q44 -45.5 44 -134.5q0 -32 -6 -70l-50 -281h-162l43 250
q5 30 5 55q0 83 -62 83q-43 0 -75.5 -35t-42.5 -97l-45 -256h-161l91 517h142l-2 -23q-2 -14 -4 -46q31 41 75 62t92 21q74 0 118 -45.5z" />
    <glyph glyph-name="ograve" unicode="&#xf2;" horiz-adv-x="592" 
d="M293 545l-100 170h157l64 -170h-121zM82.5 387q44.5 55 105.5 82.5t126 27.5q70 0 125.5 -30.5t86.5 -86t31 -125.5q0 -24 -5 -56q-13 -80 -57 -135.5t-105 -83t-125 -27.5q-71 0 -126.5 30.5t-87 85t-31.5 125.5q0 33 5 58q13 80 57.5 135zM184 199q0 -47 23 -76.5
t63 -29.5q42 0 74 30.5t43 91.5q4 26 4 38q0 47 -22.5 76t-62.5 29q-41 0 -74 -31t-44 -91q-4 -26 -4 -37z" />
    <glyph glyph-name="oacute" unicode="&#xf3;" horiz-adv-x="592" 
d="M401 545h-129l124 170h164zM82.5 387q44.5 55 105.5 82.5t126 27.5q70 0 125.5 -30.5t86.5 -86t31 -125.5q0 -24 -5 -56q-13 -80 -57 -135.5t-105 -83t-125 -27.5q-71 0 -126.5 30.5t-87 85t-31.5 125.5q0 33 5 58q13 80 57.5 135zM184 199q0 -47 23 -76.5t63 -29.5
q42 0 74 30.5t43 91.5q4 26 4 38q0 47 -22.5 76t-62.5 29q-41 0 -74 -31t-44 -91q-4 -26 -4 -37z" />
    <glyph glyph-name="ocircumflex" unicode="&#xf4;" horiz-adv-x="592" 
d="M315 715h114l105 -170h-129l-44 73l-70 -73h-141zM82.5 387q44.5 55 105.5 82.5t126 27.5q70 0 125.5 -30.5t86.5 -86t31 -125.5q0 -24 -5 -56q-13 -80 -57 -135.5t-105 -83t-125 -27.5q-71 0 -126.5 30.5t-87 85t-31.5 125.5q0 33 5 58q13 80 57.5 135zM184 199
q0 -47 23 -76.5t63 -29.5q42 0 74 30.5t43 91.5q4 26 4 38q0 47 -22.5 76t-62.5 29q-41 0 -74 -31t-44 -91q-4 -26 -4 -37z" />
    <glyph glyph-name="otilde" unicode="&#xf5;" horiz-adv-x="592" 
d="M143 558q15 78 56 118.5t101 40.5q34 0 53.5 -12t37.5 -33q12 -13 19 -18.5t16 -5.5q15 0 26.5 14t18.5 40h106q-13 -77 -55 -118t-102 -41q-34 0 -52 11.5t-38 33.5q-10 12 -18 18t-18 6q-15 0 -25.5 -13t-18.5 -41h-107zM82.5 387q44.5 55 105.5 82.5t126 27.5
q70 0 125.5 -30.5t86.5 -86t31 -125.5q0 -24 -5 -56q-13 -80 -57 -135.5t-105 -83t-125 -27.5q-71 0 -126.5 30.5t-87 85t-31.5 125.5q0 33 5 58q13 80 57.5 135zM184 199q0 -47 23 -76.5t63 -29.5q42 0 74 30.5t43 91.5q4 26 4 38q0 47 -22.5 76t-62.5 29q-41 0 -74 -31
t-44 -91q-4 -26 -4 -37z" />
    <glyph glyph-name="odieresis" unicode="&#xf6;" horiz-adv-x="592" 
d="M184 569.5q-24 25.5 -24 60.5t24 60t58 25q36 0 60.5 -25t24.5 -60q0 -36 -24.5 -61t-60.5 -25q-34 0 -58 25.5zM417 569.5q-24 25.5 -24 60.5t24 60t59 25q34 0 58.5 -25t24.5 -60t-24.5 -60.5t-58.5 -25.5q-35 0 -59 25.5zM82.5 387q44.5 55 105.5 82.5t126 27.5
q70 0 125.5 -30.5t86.5 -86t31 -125.5q0 -24 -5 -56q-13 -80 -57 -135.5t-105 -83t-125 -27.5q-71 0 -126.5 30.5t-87 85t-31.5 125.5q0 33 5 58q13 80 57.5 135zM184 199q0 -47 23 -76.5t63 -29.5q42 0 74 30.5t43 91.5q4 26 4 38q0 47 -22.5 76t-62.5 29q-41 0 -74 -31
t-44 -91q-4 -26 -4 -37z" />
    <glyph glyph-name="divide" unicode="&#xf7;" 
d="M291 470q-28 29 -28 68q0 40 27.5 68.5t67.5 28.5q39 0 67.5 -28.5t28.5 -68.5q0 -39 -28.5 -68t-67.5 -29t-67 29zM572 256h-527l24 144h528zM216.5 51q-27.5 29 -27.5 68q0 40 27.5 68.5t66.5 28.5t67.5 -28.5t28.5 -68.5q0 -39 -28.5 -68t-67.5 -29t-66.5 29z" />
    <glyph glyph-name="oslash" unicode="&#xf8;" horiz-adv-x="593" 
d="M479 519h136l-103 -116q46 -63 46 -149q0 -23 -5 -55q-14 -80 -58 -135.5t-104.5 -83t-124.5 -27.5q-67 0 -122 29l-45 -51h-136l102 117q-45 61 -45 147q0 24 5 57q13 80 57.5 135t105.5 82.5t126 27.5q67 0 121 -28zM172 204q0 -16 3 -30l158 179q-13 5 -26 5
q-45 0 -83 -31t-49 -91q-3 -16 -3 -32zM404 249q0 15 -3 27l-156 -179q9 -4 26 -4q45 0 82 31t48 91q3 18 3 34z" />
    <glyph glyph-name="ugrave" unicode="&#xf9;" horiz-adv-x="603" 
d="M294 545l-100 170h157l64 -170h-121zM423 483h162l-91 -517h-143q6 45 7 77q-60 -90 -167 -90q-77 0 -120.5 43.5t-43.5 124.5q0 30 6 64l52 298h162l-45 -254q-7 -40 -7 -64q0 -69 56 -69q47 0 83 40t47 102z" />
    <glyph glyph-name="uacute" unicode="&#xfa;" horiz-adv-x="603" 
d="M401 545h-128l124 170h163zM423 483h162l-91 -517h-143q6 45 7 77q-60 -90 -167 -90q-77 0 -120.5 43.5t-43.5 124.5q0 30 6 64l52 298h162l-45 -254q-7 -40 -7 -64q0 -69 56 -69q47 0 83 40t47 102z" />
    <glyph glyph-name="ucircumflex" unicode="&#xfb;" horiz-adv-x="603" 
d="M315 715h115l105 -170h-129l-45 73l-69 -73h-141zM423 483h162l-91 -517h-143q6 45 7 77q-60 -90 -167 -90q-77 0 -120.5 43.5t-43.5 124.5q0 30 6 64l52 298h162l-45 -254q-7 -40 -7 -64q0 -69 56 -69q47 0 83 40t47 102z" />
    <glyph glyph-name="udieresis" unicode="&#xfc;" horiz-adv-x="603" 
d="M185 569.5q-24 25.5 -24 60.5t24 60t58 25q36 0 60 -25t24 -60t-24.5 -60.5t-59.5 -25.5q-34 0 -58 25.5zM417.5 569.5q-23.5 25.5 -23.5 60.5t23.5 60t58.5 25t59.5 -25t24.5 -60t-24.5 -60.5t-59.5 -25.5t-58.5 25.5zM423 483h162l-91 -517h-143q6 45 7 77
q-60 -90 -167 -90q-77 0 -120.5 43.5t-43.5 124.5q0 30 6 64l52 298h162l-45 -254q-7 -40 -7 -64q0 -69 56 -69q47 0 83 40t47 102z" />
    <glyph glyph-name="yacute" unicode="&#xfd;" horiz-adv-x="576" 
d="M385 715h163l-159 -170h-128zM440 483h177l-321 -569q-59 -104 -127 -153.5t-152 -49.5q-49 0 -86 14t-61 39l72 117q30 -27 76 -27q38 0 71.5 26t75.5 88l-131 515h172l66 -326z" />
    <glyph glyph-name="thorn" unicode="&#xfe;" horiz-adv-x="629" 
d="M495 468q47 -29 73.5 -81.5t26.5 -121.5q0 -31 -6 -66q-14 -83 -54 -138t-95 -81.5t-114 -26.5q-108 0 -150 80l-55 -310h-161l175 1004h161l-50 -288q59 58 141 58q61 0 108 -29zM381 126.5q33 30.5 43 88.5q3 20 3 37q0 49 -24 78.5t-68 29.5q-43 0 -78.5 -29.5
t-45.5 -92.5q-3 -18 -3 -35q0 -50 26.5 -78.5t69.5 -28.5q44 0 77 30.5z" />
    <glyph glyph-name="ydieresis" unicode="&#xff;" horiz-adv-x="576" 
d="M173 569.5q-24 25.5 -24 60.5t24 60t58 25q36 0 60 -25t24 -60t-24.5 -60.5t-59.5 -25.5q-34 0 -58 25.5zM405.5 569.5q-23.5 25.5 -23.5 60.5t23.5 60t58.5 25q34 0 59 -25t25 -60t-25 -60.5t-59 -25.5q-35 0 -58.5 25.5zM440 483h177l-321 -569q-59 -104 -127 -153.5
t-152 -49.5q-49 0 -86 14t-61 39l72 117q30 -27 76 -27q38 0 71.5 26t75.5 88l-131 515h172l66 -326z" />
    <glyph glyph-name="Amacron" unicode="&#x100;" horiz-adv-x="743" 
d="M635 789h-352l18 104h352zM519 698l167 -732h-173l-29 148h-278l-80 -148h-177l419 732h151zM454 257l-46 228l-124 -228h170z" />
    <glyph glyph-name="amacron" unicode="&#x101;" horiz-adv-x="630" 
d="M539 575h-352l18 104h352zM611 483l-91 -517h-141q4 33 6 65q-64 -78 -159 -78q-61 0 -108 29t-73 81.5t-26 120.5q0 33 6 67q14 83 54 138.5t94.5 81.5t114.5 26q56 0 95.5 -23t59.5 -68q12 32 23 77h145zM357 118q35 28 45 91q3 20 3 37q0 51 -26 79.5t-69 28.5
q-44 0 -77 -30t-44 -89q-3 -18 -3 -36q0 -49 24.5 -79t68.5 -30q43 0 78 28z" />
    <glyph glyph-name="Abreve" unicode="&#x102;" horiz-adv-x="743" 
d="M340 795q-46 36 -46 95q0 18 2 27h122q-2 -32 11.5 -50.5t44.5 -18.5q55 0 74 69h122q-14 -80 -68 -119t-135 -39t-127 36zM519 698l167 -732h-173l-29 148h-278l-80 -148h-177l419 732h151zM454 257l-46 228l-124 -228h170z" />
    <glyph glyph-name="abreve" unicode="&#x103;" horiz-adv-x="630" 
d="M244 583q-46 38 -46 102q0 15 3 30h122q-5 -74 56 -74q28 0 46 18t29 56h122q-15 -85 -69.5 -127.5t-136.5 -42.5q-80 0 -126 38zM611 483l-91 -517h-141q4 33 6 65q-64 -78 -159 -78q-61 0 -108 29t-73 81.5t-26 120.5q0 33 6 67q14 83 54 138.5t94.5 81.5t114.5 26
q56 0 95.5 -23t59.5 -68q12 32 23 77h145zM357 118q35 28 45 91q3 20 3 37q0 51 -26 79.5t-69 28.5q-44 0 -77 -30t-44 -89q-3 -18 -3 -36q0 -49 24.5 -79t68.5 -30q43 0 78 28z" />
    <glyph glyph-name="Aogonek" unicode="&#x104;" horiz-adv-x="743" 
d="M716 -236q-31 -26 -63.5 -38t-70.5 -12q-63 0 -102 29t-39 81q0 44 20.5 78t58.5 64h-7l-29 148h-278l-80 -148h-177l419 732h151l167 -732q-63 -28 -94.5 -54.5t-37.5 -59.5q-1 -4 -1 -11q0 -33 38 -33q37 0 81 35zM408 485l-124 -228h170z" />
    <glyph glyph-name="aogonek" unicode="&#x105;" horiz-adv-x="630" 
d="M506 -157l44 -79q-31 -26 -63.5 -38t-70.5 -12q-63 0 -102 29t-39 81t27.5 90t78.5 70q2 15 4 47q-64 -78 -159 -78q-61 0 -108 29t-73 81.5t-26 120.5q0 33 6 67q14 83 54 138.5t94.5 81.5t114.5 26q56 0 95.5 -23t59.5 -68q12 32 23 77h145l-91 -517
q-63 -28 -94.5 -54.5t-37.5 -59.5q-1 -4 -1 -11q0 -33 38 -33q37 0 81 35zM357 118q35 28 45 91q3 20 3 37q0 51 -26 79.5t-69 28.5q-44 0 -77 -30t-44 -89q-3 -18 -3 -36q0 -49 24.5 -79t68.5 -30q43 0 78 28z" />
    <glyph glyph-name="Cacute" unicode="&#x106;" horiz-adv-x="682" 
d="M528 761h-135l126 156h170zM299 503q-55 -52 -72 -153q-5 -26 -5 -60q0 -82 40.5 -131t107.5 -49q90 0 147 96l129 -95q-35 -71 -113 -114.5t-175 -43.5q-93 0 -164 42t-110 117t-39 171q0 44 7 85q20 112 77 189.5t138.5 116t173.5 38.5q81 0 139 -28t90 -72.5t40 -94.5
l-152 -72q-27 110 -132 110q-72 0 -127 -52z" />
    <glyph glyph-name="cacute" unicode="&#x107;" horiz-adv-x="495" 
d="M376 546h-129l124 170h164zM359 145l113 -83q-30 -57 -88 -83t-122 -26q-68 0 -123.5 28t-87.5 82t-32 129q0 29 6 62q15 84 60.5 138.5t106.5 79.5t125 25q80 0 134 -37.5t66 -98.5l-130 -61q-11 27 -29.5 42t-49.5 15q-44 0 -76.5 -31.5t-42.5 -88.5q-4 -19 -4 -40
q0 -46 22.5 -74.5t62.5 -28.5q54 0 89 51z" />
    <glyph glyph-name="Ccircumflex" unicode="&#x108;" horiz-adv-x="682" 
d="M421 917h121l109 -157h-131l-50 72l-74 -72h-139zM299 503q-55 -52 -72 -153q-5 -26 -5 -60q0 -82 40.5 -131t107.5 -49q90 0 147 96l129 -95q-35 -71 -113 -114.5t-175 -43.5q-93 0 -164 42t-110 117t-39 171q0 44 7 85q20 112 77 189.5t138.5 116t173.5 38.5
q81 0 139 -28t90 -72.5t40 -94.5l-152 -72q-27 110 -132 110q-72 0 -127 -52z" />
    <glyph glyph-name="ccircumflex" unicode="&#x109;" horiz-adv-x="495" 
d="M290 716h114l105 -170h-129l-44 73l-70 -73h-141zM359 145l113 -83q-30 -57 -88 -83t-122 -26q-68 0 -123.5 28t-87.5 82t-32 129q0 29 6 62q15 84 60.5 138.5t106.5 79.5t125 25q80 0 134 -37.5t66 -98.5l-130 -61q-11 27 -29.5 42t-49.5 15q-44 0 -76.5 -31.5
t-42.5 -88.5q-4 -19 -4 -40q0 -46 22.5 -74.5t62.5 -28.5q54 0 89 51z" />
    <glyph glyph-name="Cdotaccent" unicode="&#x10a;" horiz-adv-x="682" 
d="M411.5 780.5q-23.5 25.5 -23.5 60.5t23.5 60t57.5 25q36 0 60.5 -25t24.5 -60q0 -36 -24.5 -61t-60.5 -25q-34 0 -57.5 25.5zM299 503q-55 -52 -72 -153q-5 -26 -5 -60q0 -82 40.5 -131t107.5 -49q90 0 147 96l129 -95q-35 -71 -113 -114.5t-175 -43.5q-93 0 -164 42
t-110 117t-39 171q0 44 7 85q20 112 77 189.5t138.5 116t173.5 38.5q81 0 139 -28t90 -72.5t40 -94.5l-152 -72q-27 110 -132 110q-72 0 -127 -52z" />
    <glyph glyph-name="cdotaccent" unicode="&#x10b;" horiz-adv-x="495" 
d="M268.5 567.5q-27.5 28.5 -27.5 67.5q0 40 27.5 68.5t66.5 28.5q38 0 66.5 -28.5t28.5 -68.5q0 -39 -28 -67.5t-67 -28.5t-66.5 28.5zM359 145l113 -83q-30 -57 -88 -83t-122 -26q-68 0 -123.5 28t-87.5 82t-32 129q0 29 6 62q15 84 60.5 138.5t106.5 79.5t125 25
q80 0 134 -37.5t66 -98.5l-130 -61q-11 27 -29.5 42t-49.5 15q-44 0 -76.5 -31.5t-42.5 -88.5q-4 -19 -4 -40q0 -46 22.5 -74.5t62.5 -28.5q54 0 89 51z" />
    <glyph glyph-name="Ccaron" unicode="&#x10c;" horiz-adv-x="682" 
d="M420 917l49 -73l74 73h140l-165 -157h-120l-110 157h132zM299 503q-55 -52 -72 -153q-5 -26 -5 -60q0 -82 40.5 -131t107.5 -49q90 0 147 96l129 -95q-35 -71 -113 -114.5t-175 -43.5q-93 0 -164 42t-110 117t-39 171q0 44 7 85q20 112 77 189.5t138.5 116t173.5 38.5
q81 0 139 -28t90 -72.5t40 -94.5l-152 -72q-27 110 -132 110q-72 0 -127 -52z" />
    <glyph glyph-name="ccaron" unicode="&#x10d;" horiz-adv-x="495" 
d="M288 716l44 -74l70 74h140l-164 -170h-114l-105 170h129zM359 145l113 -83q-30 -57 -88 -83t-122 -26q-68 0 -123.5 28t-87.5 82t-32 129q0 29 6 62q15 84 60.5 138.5t106.5 79.5t125 25q80 0 134 -37.5t66 -98.5l-130 -61q-11 27 -29.5 42t-49.5 15q-44 0 -76.5 -31.5
t-42.5 -88.5q-4 -19 -4 -40q0 -46 22.5 -74.5t62.5 -28.5q54 0 89 51z" />
    <glyph glyph-name="Dcaron" unicode="&#x10e;" horiz-adv-x="745" 
d="M350 917l50 -73l74 73h139l-164 -157h-121l-109 157h131zM386 698q96 0 172 -39t119.5 -111.5t43.5 -168.5q0 -30 -7 -76q-19 -111 -79 -186.5t-148.5 -113t-193.5 -37.5h-278l128 732h243zM544 375q0 85 -48.5 132t-143.5 47h-66l-77 -444h81q105 0 167.5 52t81.5 156
q5 33 5 57z" />
    <glyph glyph-name="dcaron" unicode="&#x10f;" horiz-adv-x="703" 
d="M797 708.5q19 -19.5 19 -57.5q0 -8 -2 -26q-12 -68 -54 -105t-104 -45l2 66q51 7 72 42q-24 2 -39 20.5t-15 46.5q0 38 20.5 58t51.5 20q30 0 49 -19.5zM493 727h161l-133 -761h-141l3 34q2 20 2 31q-32 -40 -73 -59t-86 -19q-61 0 -108 29t-73 81.5t-26 120.5q0 33 6 67
q14 83 54 138.5t94.5 81.5t114.5 26q107 0 150 -81zM405 246q0 51 -26 79.5t-69 28.5q-44 0 -77 -30t-44 -89q-3 -18 -3 -36q0 -49 24.5 -79t68.5 -30q43 0 78 28t45 91q3 20 3 37z" />
    <glyph glyph-name="Dcroat" unicode="&#x110;" horiz-adv-x="790" 
d="M430 698q96 0 172 -39t119.5 -111t43.5 -168q0 -39 -7 -77q-19 -111 -79 -186.5t-148 -113t-193 -37.5h-279l52 297h-91l26 152h91l50 283h243zM588 375q0 85 -48.5 132t-143.5 47h-66l-24 -139h117l-27 -152h-116l-26 -153h80q212 0 249 208q5 33 5 57z" />
    <glyph glyph-name="dcroat" unicode="&#x111;" horiz-adv-x="639" 
d="M639 643h79l-20 -111h-78l-99 -566h-141l3 34q2 20 2 31q-32 -40 -73 -59t-86 -19q-61 0 -108 29t-73 81.5t-26 120.5q0 33 6 67q14 83 54 138.5t94.5 81.5t114.5 26q107 0 150 -81l21 116h-107l20 111h106l15 84h161zM405 246q0 51 -26 79.5t-69 28.5q-44 0 -77 -30
t-44 -89q-3 -18 -3 -36q0 -49 24.5 -79t68.5 -30q43 0 78 28t45 91q3 20 3 37z" />
    <glyph glyph-name="Emacron" unicode="&#x112;" horiz-adv-x="602" 
d="M563 788h-352l18 105h352zM143 698h485l-26 -147h-316l-25 -144h284l-25 -146h-284l-27 -147h329l-26 -148h-497z" />
    <glyph glyph-name="emacron" unicode="&#x113;" horiz-adv-x="533" 
d="M503 575h-352l19 104h352zM331.5 105.5q28.5 17.5 46.5 47.5l108 -82q-31 -58 -95 -88t-137 -30q-65 0 -118.5 28t-85 81t-31.5 125q0 33 5 59q15 86 61 142.5t109 82.5t132 26q65 0 109.5 -22t66.5 -58.5t22 -81.5q0 -78 -67 -118t-196 -40q-37 0 -81 3q3 -43 27 -67.5
t63 -24.5q33 0 61.5 17.5zM251 347q-30 -20 -49 -57q36 -3 63 -3q52 0 76 11.5t24 34.5q0 34 -48 34q-36 0 -66 -20z" />
    <glyph glyph-name="Ebreve" unicode="&#x114;" horiz-adv-x="602" 
d="M267 795.5q-46 36.5 -46 95.5q0 8 2 26h123q-2 -31 11.5 -50t44.5 -19q28 0 45.5 17t27.5 52h123q-14 -80 -68 -119t-136 -39q-81 0 -127 36.5zM143 698h485l-26 -147h-316l-25 -144h284l-25 -146h-284l-27 -147h329l-26 -148h-497z" />
    <glyph glyph-name="ebreve" unicode="&#x115;" horiz-adv-x="533" 
d="M209 583q-46 38 -46 102q0 15 3 30h122q-5 -74 55 -74q29 0 46.5 18t28.5 56h123q-15 -85 -69.5 -127.5t-136.5 -42.5q-80 0 -126 38zM331.5 105.5q28.5 17.5 46.5 47.5l108 -82q-31 -58 -95 -88t-137 -30q-65 0 -118.5 28t-85 81t-31.5 125q0 33 5 59q15 86 61 142.5
t109 82.5t132 26q65 0 109.5 -22t66.5 -58.5t22 -81.5q0 -78 -67 -118t-196 -40q-37 0 -81 3q3 -43 27 -67.5t63 -24.5q33 0 61.5 17.5zM251 347q-30 -20 -49 -57q36 -3 63 -3q52 0 76 11.5t24 34.5q0 34 -48 34q-36 0 -66 -20z" />
    <glyph glyph-name="Edotaccent" unicode="&#x116;" horiz-adv-x="602" 
d="M337.5 780.5q-23.5 25.5 -23.5 60.5t23.5 60t57.5 25q36 0 60.5 -25t24.5 -60q0 -36 -24.5 -61t-60.5 -25q-34 0 -57.5 25.5zM143 698h485l-26 -147h-316l-25 -144h284l-25 -146h-284l-27 -147h329l-26 -148h-497z" />
    <glyph glyph-name="edotaccent" unicode="&#x117;" horiz-adv-x="533" 
d="M271.5 566.5q-27.5 28.5 -27.5 67.5q0 40 27.5 68.5t66.5 28.5q38 0 66.5 -29t28.5 -68t-28 -67.5t-67 -28.5t-66.5 28.5zM331.5 105.5q28.5 17.5 46.5 47.5l108 -82q-31 -58 -95 -88t-137 -30q-65 0 -118.5 28t-85 81t-31.5 125q0 33 5 59q15 86 61 142.5t109 82.5
t132 26q65 0 109.5 -22t66.5 -58.5t22 -81.5q0 -78 -67 -118t-196 -40q-37 0 -81 3q3 -43 27 -67.5t63 -24.5q33 0 61.5 17.5zM251 347q-30 -20 -49 -57q36 -3 63 -3q52 0 76 11.5t24 34.5q0 34 -48 34q-36 0 -66 -20z" />
    <glyph glyph-name="Eogonek" unicode="&#x118;" horiz-adv-x="604" 
d="M628 698l-26 -147h-316l-25 -144h284l-25 -146h-284l-27 -147h329l-26 -148q-64 -28 -95.5 -54.5t-37.5 -59.5l-1 -10q0 -34 38 -34q37 0 81 35l44 -79q-30 -26 -62.5 -38t-70.5 -12q-64 0 -103 29t-39 81q0 44 20.5 78t59.5 64h-331l128 732h485z" />
    <glyph glyph-name="eogonek" unicode="&#x119;" horiz-adv-x="533" 
d="M457 217q-67 -40 -196 -40q-37 0 -81 3q3 -43 27 -67.5t63 -24.5q33 0 61.5 17.5t46.5 47.5l108 -82q-29 -53 -87 -84q-75 -49 -106 -78t-37 -62q-1 -4 -1 -10q0 -32 36 -32q20 0 40 9t43 27l44 -80q-31 -26 -64 -38t-74 -12q-61 0 -98.5 28t-37.5 80q0 41 17.5 73
t53.5 64q-88 13 -142 74.5t-54 156.5q0 33 5 59q15 86 61 142.5t109 82.5t132 26q65 0 109.5 -22t66.5 -58.5t22 -81.5q0 -78 -67 -118zM251 347q-30 -20 -49 -57q36 -3 63 -3q52 0 76 11.5t24 34.5q0 34 -48 34q-36 0 -66 -20z" />
    <glyph glyph-name="Ecaron" unicode="&#x11a;" horiz-adv-x="602" 
d="M346 917l49 -73l74 73h140l-165 -157h-120l-110 157h132zM143 698h485l-26 -147h-316l-25 -144h284l-25 -146h-284l-27 -147h329l-26 -148h-497z" />
    <glyph glyph-name="ecaron" unicode="&#x11b;" horiz-adv-x="533" 
d="M291 715l44 -74l69 74h141l-164 -170h-115l-105 170h130zM331.5 105.5q28.5 17.5 46.5 47.5l108 -82q-31 -58 -95 -88t-137 -30q-65 0 -118.5 28t-85 81t-31.5 125q0 33 5 59q15 86 61 142.5t109 82.5t132 26q65 0 109.5 -22t66.5 -58.5t22 -81.5q0 -78 -67 -118
t-196 -40q-37 0 -81 3q3 -43 27 -67.5t63 -24.5q33 0 61.5 17.5zM251 347q-30 -20 -49 -57q36 -3 63 -3q52 0 76 11.5t24 34.5q0 34 -48 34q-36 0 -66 -20z" />
    <glyph glyph-name="Gcircumflex" unicode="&#x11c;" horiz-adv-x="714" 
d="M411 918h120l110 -157h-132l-49 72l-75 -72h-139zM507 240h-130l26 145h294l-56 -320q-40 -55 -112.5 -83.5t-153.5 -28.5q-98 0 -173 42t-116 117.5t-41 172.5q0 44 7 83q19 112 77 189.5t140.5 116t177.5 38.5q79 0 137.5 -26t92.5 -67t44 -86l-152 -71
q-14 43 -47.5 69t-89.5 26q-79 0 -136 -55.5t-73 -151.5q-5 -32 -5 -55q0 -85 47 -136.5t126 -51.5q59 0 98 30z" />
    <glyph glyph-name="gcircumflex" unicode="&#x11d;" horiz-adv-x="623" 
d="M403 545l-44 73l-70 -73h-140l164 170h114l105 -170h-129zM612 483l-84 -479q-18 -104 -67 -169.5t-114 -94.5t-136 -29q-91 0 -157 45t-83 119l129 62q28 -86 120 -86q64 0 98 41t50 121q-59 -60 -142 -60q-61 0 -108 29t-73 81.5t-26 120.5q0 33 6 67q14 83 54 138.5
t94.5 81.5t114.5 26q114 0 156 -92q11 27 23 78h145zM405 246q0 51 -26 79.5t-69 28.5q-44 0 -77 -30t-44 -89q-3 -18 -3 -36q0 -49 24.5 -79t68.5 -30q52 0 83.5 32t40.5 95q2 20 2 29z" />
    <glyph glyph-name="Gbreve" unicode="&#x11e;" horiz-adv-x="714" 
d="M331 796q-46 36 -46 95q0 18 2 27h122q-2 -31 11.5 -50t44.5 -19q55 0 74 69h122q-14 -80 -67.5 -119t-135.5 -39q-81 0 -127 36zM507 240h-130l26 145h294l-56 -320q-40 -55 -112.5 -83.5t-153.5 -28.5q-98 0 -173 42t-116 117.5t-41 172.5q0 44 7 83q19 112 77 189.5
t140.5 116t177.5 38.5q79 0 137.5 -26t92.5 -67t44 -86l-152 -71q-14 43 -47.5 69t-89.5 26q-79 0 -136 -55.5t-73 -151.5q-5 -32 -5 -55q0 -85 47 -136.5t126 -51.5q59 0 98 30z" />
    <glyph glyph-name="gbreve" unicode="&#x11f;" horiz-adv-x="623" 
d="M229 583q-46 38 -46 102q0 15 3 30h123q-3 -34 10.5 -54t44.5 -20q28 0 46 18t29 56h122q-15 -85 -69 -127.5t-137 -42.5q-80 0 -126 38zM612 483l-84 -479q-18 -104 -67 -169.5t-114 -94.5t-136 -29q-91 0 -157 45t-83 119l129 62q28 -86 120 -86q64 0 98 41t50 121
q-59 -60 -142 -60q-61 0 -108 29t-73 81.5t-26 120.5q0 33 6 67q14 83 54 138.5t94.5 81.5t114.5 26q114 0 156 -92q11 27 23 78h145zM405 246q0 51 -26 79.5t-69 28.5q-44 0 -77 -30t-44 -89q-3 -18 -3 -36q0 -49 24.5 -79t68.5 -30q52 0 83.5 32t40.5 95q2 20 2 29z" />
    <glyph glyph-name="Gdotaccent" unicode="&#x120;" horiz-adv-x="714" 
d="M401 781.5q-24 25.5 -24 60.5t24 60t58 25q36 0 60.5 -25t24.5 -60q0 -36 -24.5 -61t-60.5 -25q-34 0 -58 25.5zM507 240h-130l26 145h294l-56 -320q-40 -55 -112.5 -83.5t-153.5 -28.5q-98 0 -173 42t-116 117.5t-41 172.5q0 44 7 83q19 112 77 189.5t140.5 116
t177.5 38.5q79 0 137.5 -26t92.5 -67t44 -86l-152 -71q-14 43 -47.5 69t-89.5 26q-79 0 -136 -55.5t-73 -151.5q-5 -32 -5 -55q0 -85 47 -136.5t126 -51.5q59 0 98 30z" />
    <glyph glyph-name="gdotaccent" unicode="&#x121;" horiz-adv-x="623" 
d="M291.5 566.5q-27.5 28.5 -27.5 67.5q0 40 27.5 68.5t66.5 28.5t67.5 -28.5t28.5 -68.5q0 -39 -28.5 -67.5t-67.5 -28.5t-66.5 28.5zM612 483l-84 -479q-18 -104 -67 -169.5t-114 -94.5t-136 -29q-91 0 -157 45t-83 119l129 62q28 -86 120 -86q64 0 98 41t50 121
q-59 -60 -142 -60q-61 0 -108 29t-73 81.5t-26 120.5q0 33 6 67q14 83 54 138.5t94.5 81.5t114.5 26q114 0 156 -92q11 27 23 78h145zM405 246q0 51 -26 79.5t-69 28.5q-44 0 -77 -30t-44 -89q-3 -18 -3 -36q0 -49 24.5 -79t68.5 -30q52 0 83.5 32t40.5 95q2 20 2 29z" />
    <glyph glyph-name="uni0122" unicode="&#x122;" horiz-adv-x="714" 
d="M377 240l26 145h294l-56 -320q-40 -55 -112.5 -83.5t-153.5 -28.5q-98 0 -173 42t-116 117.5t-41 172.5q0 44 7 83q19 112 77 189.5t140.5 116t177.5 38.5q79 0 137.5 -26t92.5 -67t44 -86l-152 -71q-14 43 -47.5 69t-89.5 26q-79 0 -136 -55.5t-73 -151.5q-5 -32 -5 -55
q0 -85 47 -136.5t126 -51.5q59 0 98 30l18 103h-130zM398 -86.5q24 -22.5 24 -61.5q0 -7 -2 -23q-21 -116 -194 -119l11 64q66 5 85 33q-36 1 -56 17t-20 43q0 8 1 12q6 29 29.5 43t54.5 14q43 0 67 -22.5z" />
    <glyph glyph-name="uni0123" unicode="&#x123;" horiz-adv-x="623" 
d="M290 565q-25 27 -25 75q0 8 2 26q14 78 68.5 127t131.5 59l-4 -82q-65 -8 -90 -53q32 -3 51 -26t19 -57q0 -38 -26 -67t-63 -29q-39 0 -64 27zM612 483l-84 -479q-18 -104 -67 -169.5t-114 -94.5t-136 -29q-91 0 -157 45t-83 119l129 62q28 -86 120 -86q64 0 98 41
t50 121q-59 -60 -142 -60q-61 0 -108 29t-73 81.5t-26 120.5q0 33 6 67q14 83 54 138.5t94.5 81.5t114.5 26q114 0 156 -92q11 27 23 78h145zM405 246q0 51 -26 79.5t-69 28.5q-44 0 -77 -30t-44 -89q-3 -18 -3 -36q0 -49 24.5 -79t68.5 -30q52 0 83.5 32t40.5 95q2 20 2 29
z" />
    <glyph glyph-name="Hcircumflex" unicode="&#x124;" horiz-adv-x="774" 
d="M438 917h120l109 -157h-131l-49 72l-75 -72h-139zM263 421h299l49 277h169l-128 -732h-169l53 304h-300l-52 -304h-169l128 732h169z" />
    <glyph glyph-name="hcircumflex" unicode="&#x125;" horiz-adv-x="604" 
d="M191 918h115l108 -144h-131l-46 62l-67 -62h-139zM514 451.5q44 -45.5 44 -134.5q0 -32 -6 -70l-50 -281h-162l43 250q5 30 5 55q0 83 -62 83q-40 0 -71 -31t-43 -86l-48 -271h-162l134 761h162l-52 -293q30 31 69.5 47t80.5 16q74 0 118 -45.5z" />
    <glyph glyph-name="Hbar" unicode="&#x126;" horiz-adv-x="831" 
d="M812 698l-16 -93h70l-21 -117h-69l-93 -522h-170l53 298h-303l-53 -298h-170l92 522h-70l21 117h69l17 93h170l-16 -93h302l17 93h170zM303 488l-13 -73h302l13 73h-302z" />
    <glyph glyph-name="hbar" unicode="&#x127;" horiz-adv-x="616" 
d="M526 451.5q44 -45.5 44 -134.5q0 -32 -6 -70l-50 -281h-162l43 250q5 30 5 55q0 83 -62 83q-40 0 -71 -31t-43 -86l-48 -271h-162l100 566h-68l19 111h68l15 84h162l-15 -84h138l-19 -111h-139l-17 -98q30 31 69.5 47t80.5 16q74 0 118 -45.5z" />
    <glyph glyph-name="Itilde" unicode="&#x128;" horiz-adv-x="306" 
d="M36 771q14 73 55.5 110.5t101.5 37.5q34 0 53 -11t37 -31q12 -12 19 -17t17 -5q30 0 44 50h106q-12 -71 -54 -109t-102 -38q-34 0 -53.5 11t-37.5 30q-11 12 -18 17t-17 5q-29 0 -45 -50h-106zM184 -34h-169l128 732h169z" />
    <glyph glyph-name="itilde" unicode="&#x129;" horiz-adv-x="273" 
d="M-15 559q14 77 55.5 118t100.5 41q34 0 53.5 -12t37.5 -34q12 -13 19 -18.5t16 -5.5q15 0 26.5 14t18.5 40h106q-13 -77 -55 -118t-102 -41q-34 0 -52 11.5t-38 33.5q-10 12 -18 18t-18 6q-15 0 -25.5 -13t-18.5 -40h-106zM1 -34l92 517h163l-92 -517h-163z" />
    <glyph glyph-name="Imacron" unicode="&#x12a;" horiz-adv-x="306" 
d="M419 788h-352l19 105h352zM184 -34h-169l128 732h169z" />
    <glyph glyph-name="imacron" unicode="&#x12b;" horiz-adv-x="273" 
d="M367 575h-352l18 104h352zM1 -34l92 517h163l-92 -517h-163z" />
    <glyph glyph-name="Ibreve" unicode="&#x12c;" horiz-adv-x="306" 
d="M124 795q-46 36 -46 95q0 18 2 27h122q-2 -31 11.5 -50t44.5 -19q55 0 74 69h122q-14 -80 -67.5 -119t-135.5 -39q-81 0 -127 36zM184 -34h-169l128 732h169z" />
    <glyph glyph-name="ibreve" unicode="&#x12d;" horiz-adv-x="273" 
d="M72 583q-46 38 -46 102q0 15 3 30h123q-3 -34 10.5 -54t44.5 -20q28 0 46 18t29 56h122q-15 -85 -69 -127.5t-137 -42.5q-80 0 -126 38zM1 -34l92 517h163l-92 -517h-163z" />
    <glyph glyph-name="Iogonek" unicode="&#x12e;" horiz-adv-x="306" 
d="M169 -157l44 -79q-30 -26 -62.5 -38t-70.5 -12q-64 0 -103 29t-39 81q0 13 3 27q12 66 77 115h-3l128 732h169l-128 -732q-64 -28 -95.5 -54.5t-37.5 -59.5l-1 -10q0 -34 38 -34q37 0 81 35z" />
    <glyph glyph-name="iogonek" unicode="&#x12f;" horiz-adv-x="273" 
d="M267.5 702.5q28.5 -28.5 28.5 -68.5q0 -39 -28 -67.5t-67 -28.5t-66.5 28.5t-27.5 67.5q0 40 27.5 68.5t66.5 28.5q38 0 66.5 -28.5zM164 -34q-63 -28 -94.5 -54.5t-37.5 -59.5l-1 -10q0 -34 38 -34q37 0 81 35l44 -79q-31 -26 -63.5 -38t-70.5 -12q-63 0 -102 29t-39 81
q0 83 83 144l91 515h163z" />
    <glyph glyph-name="Idotaccent" unicode="&#x130;" horiz-adv-x="306" 
d="M194 780.5q-24 25.5 -24 60.5t24 60t58 25q36 0 60.5 -25t24.5 -60q0 -36 -24.5 -61t-60.5 -25q-34 0 -58 25.5zM184 -34h-169l128 732h169z" />
    <glyph glyph-name="dotlessi" unicode="&#x131;" horiz-adv-x="274" 
d="M2 -34l92 517h163l-92 -517h-163z" />
    <glyph glyph-name="IJ" unicode="&#x132;" horiz-adv-x="850" 
d="M184 -34h-169l128 732h169zM351 0q-58 47 -71 139l148 67q11 -48 28.5 -72.5t52.5 -24.5q84 0 106 133l79 456h170l-85 -487q-25 -142 -101 -200t-174 -58q-95 0 -153 47z" />
    <glyph glyph-name="ij" unicode="&#x133;" horiz-adv-x="550" 
d="M136.5 566q-27.5 29 -27.5 68q0 40 27.5 68.5t65.5 28.5q39 0 67 -28.5t28 -68.5q0 -39 -28 -68t-67 -29q-38 0 -65.5 29zM408.5 564q-24.5 26 -24.5 64q0 41 30 72t69 31q37 0 62.5 -26t25.5 -64q0 -40 -31 -71.5t-71 -31.5q-36 0 -60.5 26zM168 -34h-161l91 517h161z
M107 -272.5q-39 16.5 -60 44.5l75 111q27 -33 68 -33q37 0 58 28t31 86l91 519h163l-96 -547q-20 -118 -85 -171.5t-154 -53.5q-52 0 -91 16.5z" />
    <glyph glyph-name="Jcircumflex" unicode="&#x134;" horiz-adv-x="544" 
d="M450 917h120l110 -157h-132l-49 73l-75 -73h-139zM46 0q-58 47 -71 139l147 67q11 -48 28.5 -72.5t52.5 -24.5q43 0 69.5 34.5t37.5 98.5l79 456h169l-85 -487q-25 -142 -101 -200t-174 -58q-94 0 -152 47z" />
    <glyph glyph-name="jcircumflex" unicode="&#x135;" horiz-adv-x="268" 
d="M150 715h114l105 -170h-129l-44 73l-70 -73h-141zM-176 -270.5q-41 18.5 -60 46.5l75 107q27 -33 68 -33q37 0 58 28t31 86l91 519h163l-96 -547q-20 -118 -84 -171.5t-150 -53.5q-55 0 -96 18.5z" />
    <glyph glyph-name="uni0136" unicode="&#x136;" horiz-adv-x="765" 
d="M587 698h218l-330 -289l230 -443h-207l-162 321l-112 -98l-40 -223h-170l129 732h170l-52 -296zM385.5 -86q23.5 -22 23.5 -60q0 -16 -2 -25q-21 -116 -193 -119l11 64q65 5 84 33q-35 1 -55 17t-20 43q0 35 24.5 52t60.5 17q43 0 66.5 -22z" />
    <glyph glyph-name="uni0137" unicode="&#x137;" horiz-adv-x="601" 
d="M431 483h192l-223 -201l152 -316h-188l-94 200l-84 -75l-22 -125h-163l135 761h163l-77 -435zM312 -86.5q24 -22.5 24 -61.5q0 -7 -2 -23q-21 -116 -194 -119l11 64q66 5 85 33q-35 1 -55.5 17.5t-20.5 42.5q0 8 1 12q6 29 29.5 43t54.5 14q43 0 67 -22.5z" />
    <glyph glyph-name="kgreenlandic" unicode="&#x138;" horiz-adv-x="602" 
d="M223 291l209 192h193l-224 -201l153 -316h-188l-94 200l-84 -75l-22 -125h-163l90 517h163z" />
    <glyph glyph-name="Lacute" unicode="&#x139;" horiz-adv-x="577" 
d="M313 762h-135l125 156h171zM144 698h170l-102 -580h321l-27 -152h-492z" />
    <glyph glyph-name="lacute" unicode="&#x13a;" horiz-adv-x="273" 
d="M297 775h-134l125 156h171zM164 -34h-162l134 761h162z" />
    <glyph glyph-name="uni013B" unicode="&#x13b;" horiz-adv-x="577" 
d="M314 698l-102 -580h321l-27 -152h-492l130 732h170zM321.5 -86q23.5 -22 23.5 -60q0 -16 -2 -25q-19 -116 -193 -119l11 64q66 5 85 33q-36 1 -56 17t-20 43q0 8 1 12q6 29 29 43t55 14q43 0 66.5 -22z" />
    <glyph glyph-name="uni013C" unicode="&#x13c;" horiz-adv-x="273" 
d="M2 -34l134 761h162l-134 -761h-162zM132 -86q24 -22 24 -62q0 -7 -2 -23q-21 -116 -193 -119l11 64q67 5 84 33q-39 1 -59.5 20.5t-15.5 51.5q6 29 29.5 43t54.5 14q43 0 67 -22z" />
    <glyph glyph-name="Lcaron" unicode="&#x13d;" horiz-adv-x="577" 
d="M546 686q25 -26 25 -73q0 -19 -2 -29q-13 -78 -68 -127t-133 -59l4 82q66 10 91 53q-31 3 -50.5 26t-19.5 56q0 39 26 68t63 29q39 0 64 -26zM144 698h170l-102 -580h321l-27 -152h-492z" />
    <glyph glyph-name="lcaron" unicode="&#x13e;" horiz-adv-x="346" 
d="M440 708.5q19 -19.5 19 -57.5q0 -8 -2 -26q-12 -68 -54 -105t-104 -45l2 66q51 7 72 42q-24 2 -39 20.5t-15 46.5q0 38 20.5 58t51.5 20q30 0 49 -19.5zM164 -34h-162l134 761h162z" />
    <glyph glyph-name="Ldot" unicode="&#x13f;" horiz-adv-x="577" 
d="M144 698h170l-102 -580h321l-27 -152h-492zM348.5 311q-27.5 29 -27.5 68q0 40 27.5 68.5t66.5 28.5t67.5 -28.5t28.5 -68.5q0 -39 -28.5 -68t-67.5 -29t-66.5 29z" />
    <glyph glyph-name="ldot" unicode="&#x140;" horiz-adv-x="378" 
d="M164 -34h-162l134 761h162zM269.5 284q-23.5 23 -23.5 64q0 42 23.5 65t59.5 23q37 0 61 -23t24 -65q0 -41 -24 -64t-61 -23q-36 0 -59.5 23z" />
    <glyph glyph-name="Lslash" unicode="&#x141;" 
d="M421 363l-141 -62l-32 -183h322l-28 -152h-492l45 251l-102 -45l29 165l103 45l55 316h171l-41 -233l140 63z" />
    <glyph glyph-name="lslash" unicode="&#x142;" horiz-adv-x="326" 
d="M324 727l-44 -247l81 45l-29 -165l-81 -45l-61 -349h-162l45 251l-82 -44l29 165l82 44l60 345h162z" />
    <glyph glyph-name="Nacute" unicode="&#x143;" horiz-adv-x="756" 
d="M535 761h-135l126 156h171zM276 698l251 -462l80 462h155l-128 -732h-134l-251 464l-80 -464h-154l128 732h133z" />
    <glyph glyph-name="nacute" unicode="&#x144;" horiz-adv-x="604" 
d="M401 545h-128l124 170h163zM514 451.5q44 -45.5 44 -134.5q0 -32 -6 -70l-50 -281h-162l43 250q5 30 5 55q0 83 -62 83q-43 0 -75.5 -35t-42.5 -97l-45 -256h-161l91 517h142l-2 -23q-2 -14 -4 -46q31 41 75 62t92 21q74 0 118 -45.5z" />
    <glyph glyph-name="uni0145" unicode="&#x145;" horiz-adv-x="756" 
d="M527 236l80 462h155l-128 -732h-134l-251 464l-80 -464h-154l128 732h133zM374 -86.5q24 -22.5 24 -61.5q0 -7 -2 -23q-21 -116 -194 -119l11 64q66 5 85 33q-36 1 -56 17t-20 43q0 8 1 12q6 29 29.5 43t54.5 14q43 0 67 -22.5z" />
    <glyph glyph-name="uni0146" unicode="&#x146;" horiz-adv-x="604" 
d="M514 451.5q44 -45.5 44 -134.5q0 -32 -6 -70l-50 -281h-162l43 250q5 30 5 55q0 83 -62 83q-43 0 -75.5 -35t-42.5 -97l-45 -256h-161l91 517h142l-2 -23q-2 -14 -4 -46q31 41 75 62t92 21q74 0 118 -45.5zM300.5 -86q23.5 -22 23.5 -60q0 -16 -2 -25q-21 -116 -193 -119
l11 64q66 5 85 33q-36 1 -56 17t-20 43q0 8 1 12q6 29 29 43t55 14q43 0 66.5 -22z" />
    <glyph glyph-name="Ncaron" unicode="&#x147;" horiz-adv-x="756" 
d="M427 917l49 -73l74 73h140l-165 -157h-120l-110 157h132zM276 698l251 -462l80 462h155l-128 -732h-134l-251 464l-80 -464h-154l128 732h133z" />
    <glyph glyph-name="ncaron" unicode="&#x148;" horiz-adv-x="604" 
d="M314 715l44 -74l70 74h140l-164 -170h-115l-105 170h130zM514 451.5q44 -45.5 44 -134.5q0 -32 -6 -70l-50 -281h-162l43 250q5 30 5 55q0 83 -62 83q-43 0 -75.5 -35t-42.5 -97l-45 -256h-161l91 517h142l-2 -23q-2 -14 -4 -46q31 41 75 62t92 21q74 0 118 -45.5z" />
    <glyph glyph-name="napostrophe" unicode="&#x149;" horiz-adv-x="616" 
d="M165.5 537.5q-48.5 -38.5 -119.5 -46.5l1 65q59 8 83 43q-30 3 -48 22t-18 46q0 30 23.5 52t56.5 22q36 0 60 -22.5t24 -61.5q0 -5 -2 -19q-12 -62 -60.5 -100.5zM514 451.5q44 -45.5 44 -134.5q0 -32 -6 -70l-50 -281h-162l43 250q5 30 5 55q0 83 -62 83
q-43 0 -75.5 -35t-42.5 -97l-45 -256h-161l91 517h142l-2 -23q-2 -14 -4 -46q31 41 75 62t92 21q74 0 118 -45.5z" />
    <glyph glyph-name="Eng" unicode="&#x14a;" horiz-adv-x="756" 
d="M629 -65q-21 -118 -83 -171t-147 -53q-93 0 -150 57l74 107q23 -25 63 -25q43 0 63.5 28.5t29.5 83.5l6 32l-236 436l-80 -464h-154l128 732h133l251 -462l80 462h155z" />
    <glyph glyph-name="eng" unicode="&#x14b;" horiz-adv-x="603" 
d="M514 451.5q44 -45.5 44 -134.5q0 -32 -6 -70l-56 -313q-22 -118 -84 -170.5t-147 -52.5q-93 0 -146 57l74 107q21 -25 58 -25q39 0 58 28t30 82l44 256q5 30 5 55q0 83 -62 83q-43 0 -75 -35t-43 -97l-45 -256h-161l91 517h142l-2 -23q-2 -14 -4 -46q31 41 75 62t92 21
q74 0 118 -45.5z" />
    <glyph glyph-name="Omacron" unicode="&#x14c;" horiz-adv-x="778" 
d="M655 788h-352l18 105h352zM128.5 550q58.5 79 142.5 120.5t178 41.5q91 0 160.5 -39.5t108 -111.5t38.5 -166q0 -38 -8 -86q-19 -110 -77.5 -190.5t-142 -123t-177.5 -42.5q-91 0 -160.5 40.5t-108 113.5t-38.5 169q0 43 7 85q19 110 77.5 189zM221 279q0 -77 37 -123.5
t104 -46.5q49 0 93 26.5t75 77t42 119.5q6 32 6 60q0 74 -36.5 118.5t-103.5 44.5q-49 0 -93 -25t-75.5 -74t-43.5 -117q-5 -26 -5 -60z" />
    <glyph glyph-name="omacron" unicode="&#x14d;" horiz-adv-x="592" 
d="M526 575h-352l18 104h352zM82.5 387q44.5 55 105.5 82.5t126 27.5q70 0 125.5 -30.5t86.5 -86t31 -125.5q0 -24 -5 -56q-13 -80 -57 -135.5t-105 -83t-125 -27.5q-71 0 -126.5 30.5t-87 85t-31.5 125.5q0 33 5 58q13 80 57.5 135zM184 199q0 -47 23 -76.5t63 -29.5
q42 0 74 30.5t43 91.5q4 26 4 38q0 47 -22.5 76t-62.5 29q-41 0 -74 -31t-44 -91q-4 -26 -4 -37z" />
    <glyph glyph-name="Obreve" unicode="&#x14e;" horiz-adv-x="778" 
d="M359 795.5q-46 36.5 -46 95.5q0 8 2 26h123q-2 -31 11.5 -50t44.5 -19q28 0 45.5 17t27.5 52h123q-14 -80 -68 -119t-136 -39q-81 0 -127 36.5zM128.5 550q58.5 79 142.5 120.5t178 41.5q91 0 160.5 -39.5t108 -111.5t38.5 -166q0 -38 -8 -86q-19 -110 -77.5 -190.5
t-142 -123t-177.5 -42.5q-91 0 -160.5 40.5t-108 113.5t-38.5 169q0 43 7 85q19 110 77.5 189zM221 279q0 -77 37 -123.5t104 -46.5q49 0 93 26.5t75 77t42 119.5q6 32 6 60q0 74 -36.5 118.5t-103.5 44.5q-49 0 -93 -25t-75.5 -74t-43.5 -117q-5 -26 -5 -60z" />
    <glyph glyph-name="obreve" unicode="&#x14f;" horiz-adv-x="592" 
d="M231 583q-46 38 -46 102q0 15 3 30h122q-5 -74 56 -74q28 0 46 18t29 56h122q-15 -85 -69 -127.5t-137 -42.5q-80 0 -126 38zM82.5 387q44.5 55 105.5 82.5t126 27.5q70 0 125.5 -30.5t86.5 -86t31 -125.5q0 -24 -5 -56q-13 -80 -57 -135.5t-105 -83t-125 -27.5
q-71 0 -126.5 30.5t-87 85t-31.5 125.5q0 33 5 58q13 80 57.5 135zM184 199q0 -47 23 -76.5t63 -29.5q42 0 74 30.5t43 91.5q4 26 4 38q0 47 -22.5 76t-62.5 29q-41 0 -74 -31t-44 -91q-4 -26 -4 -37z" />
    <glyph glyph-name="Ohungarumlaut" unicode="&#x150;" horiz-adv-x="778" 
d="M437 760h-116l121 157h152zM627 760h-116l121 157h152zM128.5 550q58.5 79 142.5 120.5t178 41.5q91 0 160.5 -39.5t108 -111.5t38.5 -166q0 -38 -8 -86q-19 -110 -77.5 -190.5t-142 -123t-177.5 -42.5q-91 0 -160.5 40.5t-108 113.5t-38.5 169q0 43 7 85
q19 110 77.5 189zM221 279q0 -77 37 -123.5t104 -46.5q49 0 93 26.5t75 77t42 119.5q6 32 6 60q0 74 -36.5 118.5t-103.5 44.5q-49 0 -93 -25t-75.5 -74t-43.5 -117q-5 -26 -5 -60z" />
    <glyph glyph-name="ohungarumlaut" unicode="&#x151;" horiz-adv-x="592" 
d="M307 545h-116l124 170h151zM497 545h-116l124 170h151zM82.5 387q44.5 55 105.5 82.5t126 27.5q70 0 125.5 -30.5t86.5 -86t31 -125.5q0 -24 -5 -56q-13 -80 -57 -135.5t-105 -83t-125 -27.5q-71 0 -126.5 30.5t-87 85t-31.5 125.5q0 33 5 58q13 80 57.5 135zM184 199
q0 -47 23 -76.5t63 -29.5q42 0 74 30.5t43 91.5q4 26 4 38q0 47 -22.5 76t-62.5 29q-41 0 -74 -31t-44 -91q-4 -26 -4 -37z" />
    <glyph glyph-name="OE" unicode="&#x152;" horiz-adv-x="1102" 
d="M1128 698l-25 -147h-316l-25 -144h283l-24 -146h-285l-26 -147h329l-27 -148h-496l8 49q-81 -62 -184 -62q-86 0 -153.5 40.5t-105.5 113.5t-38 168q0 38 8 86q19 110 77 189.5t140.5 120.5t176.5 41q123 0 188 -76l10 62h485zM455 135.5q44 26.5 75 77t42 119.5
q6 32 6 60q0 74 -36.5 118.5t-103.5 44.5q-49 0 -93 -25t-75.5 -74t-43.5 -117q-5 -26 -5 -60q0 -77 37 -123.5t104 -46.5q49 0 93 26.5z" />
    <glyph glyph-name="oe" unicode="&#x153;" horiz-adv-x="914" 
d="M712 105.5q28 17.5 46 47.5l109 -82q-31 -58 -95 -88t-137 -30q-61 0 -108 24t-74 70q-36 -46 -86 -70t-106 -24q-69 0 -124 30.5t-86 85.5t-31 125q0 33 5 58q13 80 57 135t104.5 82.5t123.5 27.5t110 -26t73 -74q41 50 97 75t119 25q64 0 108 -22t66 -58.5t22 -81.5
q0 -79 -68 -118.5t-200 -39.5q-38 0 -83 3q4 -43 30.5 -67.5t66.5 -24.5q33 0 61 17.5zM629 347q-32 -20 -51 -57q38 -3 66 -3q53 0 77.5 11t24.5 35q0 34 -48 34q-37 0 -69 -20zM391 253q0 47 -22.5 76t-62.5 29q-41 0 -74 -31t-44 -91q-4 -26 -4 -37q0 -47 23 -76.5
t63 -29.5q42 0 74 30.5t43 91.5q4 26 4 38z" />
    <glyph glyph-name="Racute" unicode="&#x154;" horiz-adv-x="676" 
d="M429 918h170l-161 -156h-135zM602.5 316.5q-40.5 -48.5 -103.5 -74.5l140 -276l-187 1l-117 247h-108l-43 -248h-169l128 732h247q84 0 145 -28t92.5 -77.5t31.5 -112.5q0 -25 -4 -46q-12 -69 -52.5 -117.5zM481 473q0 45 -36 63t-87 18h-72l-34 -197h85q125 0 142 96
q2 14 2 20z" />
    <glyph glyph-name="racute" unicode="&#x155;" horiz-adv-x="445" 
d="M334 545h-128l124 170h163zM443.5 480.5q28.5 -16.5 43.5 -39.5l-83 -122q-24 32 -67 32q-50 0 -84.5 -37.5t-46.5 -103.5l-43 -244h-161l91 517h142l-7 -75q28 45 67 67t81 22q39 0 67.5 -16.5z" />
    <glyph glyph-name="uni0156" unicode="&#x156;" horiz-adv-x="676" 
d="M602.5 316.5q-40.5 -48.5 -103.5 -74.5l140 -276l-187 1l-117 247h-108l-43 -248h-169l128 732h247q84 0 145 -28t92.5 -77.5t31.5 -112.5q0 -25 -4 -46q-12 -69 -52.5 -117.5zM481 473q0 45 -36 63t-87 18h-72l-34 -197h85q125 0 142 96q2 14 2 20zM366 -86
q24 -22 24 -62q0 -7 -2 -23q-21 -116 -193 -119l10 64q66 5 85 33q-35 1 -55.5 17.5t-20.5 42.5q0 8 1 12q6 29 29.5 43t54.5 14q43 0 67 -22z" />
    <glyph glyph-name="uni0157" unicode="&#x157;" horiz-adv-x="445" 
d="M443.5 480.5q28.5 -16.5 43.5 -39.5l-83 -122q-24 32 -67 32q-50 0 -84.5 -37.5t-46.5 -103.5l-43 -244h-161l91 517h142l-7 -75q28 45 67 67t81 22q39 0 67.5 -16.5zM132 -86q24 -22 24 -62q0 -7 -2 -23q-21 -116 -193 -119l11 64q67 5 84 33q-39 1 -59.5 20.5
t-15.5 51.5q6 29 29.5 43t54.5 14q43 0 67 -22z" />
    <glyph glyph-name="Rcaron" unicode="&#x158;" horiz-adv-x="676" 
d="M593 918l-165 -157h-121l-109 157h132l49 -73l74 73h140zM602.5 316.5q-40.5 -48.5 -103.5 -74.5l140 -276l-187 1l-117 247h-108l-43 -248h-169l128 732h247q84 0 145 -28t92.5 -77.5t31.5 -112.5q0 -25 -4 -46q-12 -69 -52.5 -117.5zM481 473q0 45 -36 63t-87 18h-72
l-34 -197h85q125 0 142 96q2 14 2 20z" />
    <glyph glyph-name="rcaron" unicode="&#x159;" horiz-adv-x="445" 
d="M247 715l44 -74l70 74h140l-164 -170h-115l-105 170h130zM443.5 480.5q28.5 -16.5 43.5 -39.5l-83 -122q-24 32 -67 32q-50 0 -84.5 -37.5t-46.5 -103.5l-43 -244h-161l91 517h142l-7 -75q28 45 67 67t81 22q39 0 67.5 -16.5z" />
    <glyph glyph-name="Sacute" unicode="&#x15a;" horiz-adv-x="597" 
d="M449 761h-135l126 156h170zM470 9q-39 -28 -88.5 -42t-99.5 -14q-75 0 -139 26.5t-106 76t-51 114.5l147 68q12 -59 54 -95.5t104 -36.5q42 0 66 17t24 52q0 32 -30 52t-91 45q-61 26 -99 47.5t-65.5 59t-27.5 93.5q0 21 4 41q18 107 113 160q70 39 163 39
q69 0 125.5 -24.5t91 -67.5t40.5 -97l-148 -67q-10 45 -42.5 74t-81.5 29q-36 0 -60 -14.5t-29 -40.5q-1 -3 -1 -10q0 -27 26.5 -44t86.5 -43q62 -26 102.5 -49t70 -62.5t29.5 -98.5q0 -23 -4 -44q-15 -90 -84 -144z" />
    <glyph glyph-name="sacute" unicode="&#x15b;" horiz-adv-x="463" 
d="M334 545h-129l124 170h164zM350.5 -10.5q-57.5 -36.5 -144.5 -36.5q-92 0 -152.5 44t-72.5 117l123 54q10 -42 36.5 -63.5t66.5 -21.5q51 0 51 32q0 18 -19 30.5t-63 30.5t-72.5 34t-49.5 43t-21 65q0 7 2 25q13 75 76 114.5t145 39.5q57 0 100.5 -19.5t68.5 -52.5
t29 -71l-124 -55q-9 32 -31 50t-53 18q-21 0 -34 -8.5t-13 -24.5t18 -27.5t58 -27.5q45 -18 75 -35.5t52 -46t22 -70.5q0 -14 -3 -29q-13 -72 -70.5 -108.5z" />
    <glyph glyph-name="Scircumflex" unicode="&#x15c;" horiz-adv-x="597" 
d="M342 917h121l109 -157h-131l-50 73l-74 -73h-139zM470 9q-39 -28 -88.5 -42t-99.5 -14q-75 0 -139 26.5t-106 76t-51 114.5l147 68q12 -59 54 -95.5t104 -36.5q42 0 66 17t24 52q0 32 -30 52t-91 45q-61 26 -99 47.5t-65.5 59t-27.5 93.5q0 21 4 41q18 107 113 160
q70 39 163 39q69 0 125.5 -24.5t91 -67.5t40.5 -97l-148 -67q-10 45 -42.5 74t-81.5 29q-36 0 -60 -14.5t-29 -40.5q-1 -3 -1 -10q0 -27 26.5 -44t86.5 -43q62 -26 102.5 -49t70 -62.5t29.5 -98.5q0 -23 -4 -44q-15 -90 -84 -144z" />
    <glyph glyph-name="scircumflex" unicode="&#x15d;" horiz-adv-x="463" 
d="M248 715h114l105 -170h-129l-44 73l-70 -73h-140zM350.5 -10.5q-57.5 -36.5 -144.5 -36.5q-92 0 -152.5 44t-72.5 117l123 54q10 -42 36.5 -63.5t66.5 -21.5q51 0 51 32q0 18 -19 30.5t-63 30.5t-72.5 34t-49.5 43t-21 65q0 7 2 25q13 75 76 114.5t145 39.5
q57 0 100.5 -19.5t68.5 -52.5t29 -71l-124 -55q-9 32 -31 50t-53 18q-21 0 -34 -8.5t-13 -24.5t18 -27.5t58 -27.5q45 -18 75 -35.5t52 -46t22 -70.5q0 -14 -3 -29q-13 -72 -70.5 -108.5z" />
    <glyph glyph-name="Scedilla" unicode="&#x15e;" horiz-adv-x="597" 
d="M243 494q0 -27 26.5 -44t86.5 -43q62 -26 102.5 -49t70 -62.5t29.5 -98.5q0 -23 -4 -44q-15 -90 -84 -144q-70 -52 -178 -56h-5l-29 -47q42 -5 67 -28.5t25 -61.5q0 -105 -153 -105q-51 0 -91 14l4 75q36 -11 73 -11q61 0 61 27q0 8 -10 13t-28 5q-24 0 -60 -11l-9 56
l53 86q-83 21 -138.5 75t-65.5 130l147 68q12 -59 54 -95.5t104 -36.5q42 0 66 17t24 52q0 32 -30 52t-91 45q-61 26 -99 47.5t-65.5 59t-27.5 93.5q0 21 4 41q18 107 113 160q70 39 163 39q69 0 125.5 -24.5t91 -67.5t40.5 -97l-148 -67q-10 45 -42.5 74t-81.5 29
q-36 0 -60 -14.5t-29 -40.5q-1 -3 -1 -10z" />
    <glyph glyph-name="scedilla" unicode="&#x15f;" horiz-adv-x="463" 
d="M217 306.5q18 -11.5 58 -27.5q45 -18 75 -35.5t52 -46t22 -70.5q0 -14 -3 -29q-12 -71 -66.5 -106.5t-139.5 -38.5l-29 -47q42 -5 67 -28.5t25 -61.5q0 -105 -153 -105q-51 0 -91 14l4 75q36 -11 73 -11q61 0 61 27q0 8 -10 13t-27 5q-23 0 -61 -11l-9 56l53 86
q-57 17 -92 56t-45 93l123 54q10 -42 36.5 -63.5t66.5 -21.5q51 0 51 32q0 18 -19 30.5t-63 30.5t-72.5 34t-49.5 43t-21 65q0 7 2 25q13 75 76 114.5t145 39.5q57 0 100.5 -19.5t68.5 -52.5t29 -71l-124 -55q-9 32 -31 50t-53 18q-21 0 -34 -8.5t-13 -24.5t18 -27.5z" />
    <glyph glyph-name="Scaron" unicode="&#x160;" horiz-adv-x="597" 
d="M341 917l49 -73l74 73h140l-165 -157h-120l-110 157h132zM470 9q-39 -28 -88.5 -42t-99.5 -14q-75 0 -139 26.5t-106 76t-51 114.5l147 68q12 -59 54 -95.5t104 -36.5q42 0 66 17t24 52q0 32 -30 52t-91 45q-61 26 -99 47.5t-65.5 59t-27.5 93.5q0 21 4 41
q18 107 113 160q70 39 163 39q69 0 125.5 -24.5t91 -67.5t40.5 -97l-148 -67q-10 45 -42.5 74t-81.5 29q-36 0 -60 -14.5t-29 -40.5q-1 -3 -1 -10q0 -27 26.5 -44t86.5 -43q62 -26 102.5 -49t70 -62.5t29.5 -98.5q0 -23 -4 -44q-15 -90 -84 -144z" />
    <glyph glyph-name="scaron" unicode="&#x161;" horiz-adv-x="463" 
d="M246 715l44 -74l70 74h141l-164 -170h-115l-105 170h129zM350.5 -10.5q-57.5 -36.5 -144.5 -36.5q-92 0 -152.5 44t-72.5 117l123 54q10 -42 36.5 -63.5t66.5 -21.5q51 0 51 32q0 18 -19 30.5t-63 30.5t-72.5 34t-49.5 43t-21 65q0 7 2 25q13 75 76 114.5t145 39.5
q57 0 100.5 -19.5t68.5 -52.5t29 -71l-124 -55q-9 32 -31 50t-53 18q-21 0 -34 -8.5t-13 -24.5t18 -27.5t58 -27.5q45 -18 75 -35.5t52 -46t22 -70.5q0 -14 -3 -29q-13 -72 -70.5 -108.5z" />
    <glyph glyph-name="uni0162" unicode="&#x162;" 
d="M78 698h606l-26 -151h-218l-102 -581h-29l-37 -60q42 -5 67 -28.5t25 -61.5q0 -105 -153 -105q-53 0 -91 14l4 75q35 -11 73 -11q61 0 61 27q0 8 -10 13t-28 5q-23 0 -61 -11l-8 56l54 87h-37l101 581h-217z" />
    <glyph glyph-name="uni0163" unicode="&#x163;" horiz-adv-x="437" 
d="M424 347h-157l-28 -154q-3 -19 -3 -37q0 -31 14 -47t46 -16t63 19l43 -120q-29 -21 -63 -30t-77 -9h-16l-29 -47q42 -5 67.5 -29t25.5 -61q0 -105 -153 -105q-52 0 -92 14l4 75q36 -11 74 -11q61 0 61 27q0 8 -10 13t-28 5q-23 0 -61 -11l-8 56l57 93q-85 39 -85 147
q0 22 5 55l31 173h-93l24 136h92l29 166h163l-29 -166h156z" />
    <glyph glyph-name="Tcaron" unicode="&#x164;" 
d="M356 918l49 -73l75 73h139l-165 -157h-120l-110 157h132zM78 698h606l-26 -151h-218l-102 -581h-170l101 581h-217z" />
    <glyph glyph-name="tcaron" unicode="&#x165;" horiz-adv-x="450" 
d="M539 820.5q25 -26.5 25 -74.5q0 -9 -2 -27q-15 -78 -69.5 -127t-132.5 -59l4 82q66 8 91 53q-31 3 -50 25.5t-19 54.5q0 39 26 69t63 30q39 0 64 -26.5zM320 649l-29 -166h156l-23 -136h-157l-28 -154q-3 -19 -3 -37q0 -31 14 -47t46 -16t63 19l43 -120q-29 -21 -63 -30
t-77 -9q-84 0 -138.5 38t-54.5 127q0 23 5 56l31 173h-93l24 136h92l29 166h163z" />
    <glyph glyph-name="Tbar" unicode="&#x166;" 
d="M78 698h606l-26 -151h-218l-30 -170h137l-27 -150h-136l-46 -261h-170l45 261h-136l26 150h137l29 170h-217z" />
    <glyph glyph-name="tbar" unicode="&#x167;" horiz-adv-x="437" 
d="M424 347h-157l-9 -52h158l-21 -123h-159q-1 -6 -1 -17q0 -62 61 -62q35 0 63 22l43 -123q-29 -21 -63 -30t-77 -9q-84 0 -138.5 39t-54.5 128q0 20 5 52h-92l21 123h93l9 52h-93l24 136h92l29 166h163l-29 -166h156z" />
    <glyph glyph-name="Utilde" unicode="&#x168;" horiz-adv-x="758" 
d="M262 771q14 73 55.5 110.5t100.5 37.5q34 0 53 -11t38 -31q12 -12 19 -17t16 -5q31 0 45 50h106q-13 -71 -55 -109t-102 -38q-34 0 -53 11t-37 30q-11 12 -18 17t-17 5q-15 0 -26 -12t-19 -38h-106zM603 698h169l-78 -451q-26 -145 -113.5 -219.5t-230.5 -74.5
q-94 0 -160 33t-100 92t-34 135q0 31 6 64l73 421h169l-66 -384q-7 -44 -7 -67q0 -70 34 -104t97 -34q69 0 111.5 45t60.5 145z" />
    <glyph glyph-name="utilde" unicode="&#x169;" horiz-adv-x="603" 
d="M144 559q15 77 56 118t101 41q34 0 53.5 -12.5t37.5 -33.5q10 -12 18 -18t17 -6q30 0 44 54h107q-13 -77 -55 -118t-102 -41q-34 0 -53 12t-37 33q-12 13 -19 18.5t-17 5.5q-29 0 -44 -53h-107zM423 483h162l-91 -517h-143q6 45 7 77q-60 -90 -167 -90q-77 0 -120.5 43.5
t-43.5 124.5q0 30 6 64l52 298h162l-45 -254q-7 -40 -7 -64q0 -69 56 -69q47 0 83 40t47 102z" />
    <glyph glyph-name="Umacron" unicode="&#x16a;" horiz-adv-x="758" 
d="M645 788h-352l18 105h352zM603 698h169l-78 -451q-26 -145 -113.5 -219.5t-230.5 -74.5q-94 0 -160 33t-100 92t-34 135q0 31 6 64l73 421h169l-66 -384q-7 -44 -7 -67q0 -70 34 -104t97 -34q69 0 111.5 45t60.5 145z" />
    <glyph glyph-name="umacron" unicode="&#x16b;" horiz-adv-x="603" 
d="M527 575h-352l18 104h352zM423 483h162l-91 -517h-143q6 45 7 77q-60 -90 -167 -90q-77 0 -120.5 43.5t-43.5 124.5q0 30 6 64l52 298h162l-45 -254q-7 -40 -7 -64q0 -69 56 -69q47 0 83 40t47 102z" />
    <glyph glyph-name="Ubreve" unicode="&#x16c;" horiz-adv-x="758" 
d="M350 795q-46 36 -46 95q0 18 2 27h122q-2 -32 11.5 -50.5t44.5 -18.5q55 0 74 69h122q-14 -80 -67.5 -119t-135.5 -39q-81 0 -127 36zM603 698h169l-78 -451q-26 -145 -113.5 -219.5t-230.5 -74.5q-94 0 -160 33t-100 92t-34 135q0 31 6 64l73 421h169l-66 -384
q-7 -44 -7 -67q0 -70 34 -104t97 -34q69 0 111.5 45t60.5 145z" />
    <glyph glyph-name="ubreve" unicode="&#x16d;" horiz-adv-x="603" 
d="M232 583q-46 38 -46 102q0 15 3 30h122q-2 -34 11 -54t45 -20q28 0 46 18t29 56h122q-15 -85 -69.5 -127.5t-136.5 -42.5q-80 0 -126 38zM423 483h162l-91 -517h-143q6 45 7 77q-60 -90 -167 -90q-77 0 -120.5 43.5t-43.5 124.5q0 30 6 64l52 298h162l-45 -254
q-7 -40 -7 -64q0 -69 56 -69q47 0 83 40t47 102z" />
    <glyph glyph-name="Uring" unicode="&#x16e;" horiz-adv-x="758" 
d="M393.5 960.5q36.5 35.5 89.5 35.5q54 0 89.5 -35t35.5 -90q0 -54 -35.5 -89t-89.5 -35q-53 0 -89.5 35t-36.5 89t36.5 89.5zM451.5 838q12.5 -13 31.5 -13t30.5 13t11.5 33q0 21 -11.5 33.5t-30.5 12.5q-20 0 -32 -12.5t-12 -33.5q0 -20 12.5 -33zM603 698h169l-78 -451
q-26 -145 -113.5 -219.5t-230.5 -74.5q-94 0 -160 33t-100 92t-34 135q0 31 6 64l73 421h169l-66 -384q-7 -44 -7 -67q0 -70 34 -104t97 -34q69 0 111.5 45t60.5 145z" />
    <glyph glyph-name="uring" unicode="&#x16f;" horiz-adv-x="603" 
d="M274.5 746q36.5 35 90.5 35t89.5 -35t35.5 -89q0 -55 -35.5 -90t-89.5 -35t-90.5 35t-36.5 90q0 54 36.5 89zM333 624q12 -13 32 -13q19 0 30.5 12.5t11.5 33.5t-11.5 33.5t-30.5 12.5q-20 0 -32 -13t-12 -33t12 -33zM423 483h162l-91 -517h-143q6 45 7 77
q-60 -90 -167 -90q-77 0 -120.5 43.5t-43.5 124.5q0 30 6 64l52 298h162l-45 -254q-7 -40 -7 -64q0 -69 56 -69q47 0 83 40t47 102z" />
    <glyph glyph-name="Uhungarumlaut" unicode="&#x170;" horiz-adv-x="758" 
d="M427 760h-116l121 157h152zM617 760h-116l121 157h152zM603 698h169l-78 -451q-26 -145 -113.5 -219.5t-230.5 -74.5q-94 0 -160 33t-100 92t-34 135q0 31 6 64l73 421h169l-66 -384q-7 -44 -7 -67q0 -70 34 -104t97 -34q69 0 111.5 45t60.5 145z" />
    <glyph glyph-name="uhungarumlaut" unicode="&#x171;" horiz-adv-x="603" 
d="M308 545h-116l124 170h151zM498 545h-116l124 170h151zM423 483h162l-91 -517h-143q6 45 7 77q-60 -90 -167 -90q-77 0 -120.5 43.5t-43.5 124.5q0 30 6 64l52 298h162l-45 -254q-7 -40 -7 -64q0 -69 56 -69q47 0 83 40t47 102z" />
    <glyph glyph-name="Uogonek" unicode="&#x172;" horiz-adv-x="758" 
d="M603 698h169l-78 -451q-34 -190 -173 -259q-107 -60 -119 -131q-1 -5 -1 -14q0 -19 10 -28.5t26 -9.5q38 0 79 41l46 -85q-31 -26 -63 -38t-69 -12q-65 0 -102.5 30.5t-37.5 87.5q0 15 3 33q9 52 42 91h-5q-131 6 -202.5 77t-71.5 183q0 31 6 64l73 421h169l-66 -384
q-7 -44 -7 -67q0 -70 34 -104t97 -34q69 0 111.5 45t60.5 145z" />
    <glyph glyph-name="uogonek" unicode="&#x173;" horiz-adv-x="603" 
d="M479 -157l44 -79q-30 -26 -62.5 -38t-70.5 -12q-64 0 -103 29t-39 81q0 51 27.5 89t77.5 70q3 24 5 60q-60 -90 -167 -90q-77 0 -120.5 43.5t-43.5 124.5q0 30 6 64l52 298h162l-45 -254q-7 -40 -7 -64q0 -69 56 -69q47 0 83 40t47 102l42 245h162l-91 -517
q-64 -28 -95.5 -54.5t-37.5 -59.5l-1 -10q0 -34 38 -34q37 0 81 35z" />
    <glyph glyph-name="Wcircumflex" unicode="&#x174;" horiz-adv-x="1020" 
d="M562 917h121l109 -157h-131l-50 73l-74 -73h-139zM653 698l60 -450l209 450h169l-362 -732h-130l-65 437l-215 -437h-131l-109 732h171l56 -450l213 450h134z" />
    <glyph glyph-name="wcircumflex" unicode="&#x175;" horiz-adv-x="830" 
d="M442 715h114l105 -170h-129l-44 73l-70 -73h-140zM520 483l50 -293l136 293h163l-273 -516h-117l-63 285l-150 -285h-118l-111 516h157l48 -298l137 298h141z" />
    <glyph glyph-name="Ycircumflex" unicode="&#x176;" horiz-adv-x="694" 
d="M400 917h120l109 -157h-131l-49 73l-75 -73h-139zM375 411l202 287h190l-334 -457l-49 -275h-170l48 282l-183 450h190z" />
    <glyph glyph-name="ycircumflex" unicode="&#x177;" horiz-adv-x="576" 
d="M394 545l-45 73l-69 -73h-141l164 170h115l105 -170h-129zM440 483h177l-321 -569q-59 -104 -127 -153.5t-152 -49.5q-49 0 -86 14t-61 39l72 117q30 -27 76 -27q38 0 71.5 26t75.5 88l-131 515h172l66 -326z" />
    <glyph glyph-name="Ydieresis" unicode="&#x178;" horiz-adv-x="694" 
d="M273 780.5q-24 25.5 -24 60.5t24 60t58 25q36 0 60.5 -25t24.5 -60q0 -36 -24.5 -61t-60.5 -25q-34 0 -58 25.5zM506 780.5q-24 25.5 -24 60.5t24 60t59 25q34 0 58.5 -25t24.5 -60t-24.5 -60.5t-58.5 -25.5q-35 0 -59 25.5zM375 411l202 287h190l-334 -457l-49 -275
h-170l48 282l-183 450h190z" />
    <glyph glyph-name="Zacute" unicode="&#x179;" horiz-adv-x="586" 
d="M458 762h-135l126 156h170zM89 547l26 151h519l-15 -97l-398 -483h325l-26 -152h-564l16 97l399 484h-282z" />
    <glyph glyph-name="zacute" unicode="&#x17a;" horiz-adv-x="446" 
d="M331 545h-129l124 170h164zM65 482h397l-14 -96l-257 -292h220l-22 -128h-437l16 98l256 290h-180z" />
    <glyph glyph-name="Zdotaccent" unicode="&#x17b;" horiz-adv-x="586" 
d="M341 781.5q-24 25.5 -24 60.5t24 60t58 25q36 0 60.5 -25t24.5 -60q0 -36 -24.5 -61t-60.5 -25q-34 0 -58 25.5zM89 547l26 151h519l-15 -97l-398 -483h325l-26 -152h-564l16 97l399 484h-282z" />
    <glyph glyph-name="zdotaccent" unicode="&#x17c;" horiz-adv-x="446" 
d="M223.5 566.5q-27.5 28.5 -27.5 67.5q0 40 27.5 68.5t66.5 28.5q38 0 66.5 -28.5t28.5 -68.5q0 -39 -28 -67.5t-67 -28.5t-66.5 28.5zM65 482h397l-14 -96l-257 -292h220l-22 -128h-437l16 98l256 290h-180z" />
    <glyph glyph-name="Zcaron" unicode="&#x17d;" horiz-adv-x="586" 
d="M349 918l50 -73l74 73h139l-164 -157h-121l-109 157h131zM89 547l26 151h519l-15 -97l-398 -483h325l-26 -152h-564l16 97l399 484h-282z" />
    <glyph glyph-name="zcaron" unicode="&#x17e;" horiz-adv-x="446" 
d="M243 715l44 -74l70 74h140l-164 -170h-114l-105 170h129zM65 482h397l-14 -96l-257 -292h220l-22 -128h-437l16 98l256 290h-180z" />
    <glyph glyph-name="longs" unicode="&#x17f;" horiz-adv-x="380" 
d="M511 674l-76 -106q-14 17 -28 25t-34 8q-36 0 -59.5 -31t-34.5 -96l-92 -522q-21 -122 -82.5 -181.5t-145.5 -59.5q-86 0 -129 51l74 107q18 -19 44 -19q32 0 50 29.5t30 95.5l65 372h-86l25 136h85l3 18q22 123 86 181.5t155 58.5q99 0 150 -67z" />
    <glyph glyph-name="uni018F" unicode="&#x18f;" horiz-adv-x="741" 
d="M566 673q71 -39 110.5 -112t39.5 -173q0 -49 -8 -92q-32 -178 -141.5 -260.5t-260.5 -82.5q-131 0 -206.5 56t-75.5 155q0 118 92 176t268 58q71 0 155 -9q2 81 -34.5 124.5t-112.5 43.5q-56 0 -100.5 -24.5t-75.5 -72.5l-114 97q44 78 126 116.5t176 38.5q91 0 162 -39z
M440.5 142q48.5 38 73.5 106q-88 10 -139 10q-174 0 -174 -83q0 -71 119 -71q72 0 120.5 38z" />
    <glyph glyph-name="florin" unicode="&#x192;" 
d="M502 550q-24 -22 -45 -67h145l-25 -136h-170l-57 -158q-44 -123 -109 -179.5t-151 -56.5q-59 0 -101 23t-60 55l88 98q22 -36 63 -36q35 0 60 31.5t48 99.5l44 123h-107l25 136h131q45 125 113 177t154 52q110 0 157 -80l-89 -97q-22 37 -60 37q-30 0 -54 -22z" />
    <glyph glyph-name="Ohorn" unicode="&#x1a0;" horiz-adv-x="784" 
d="M866 826q2 -32 2 -44q0 -97 -41 -141t-139 -48q33 -37 50.5 -87.5t17.5 -111.5q0 -37 -8 -85q-19 -110 -77.5 -190.5t-142 -123t-177.5 -42.5q-91 0 -160.5 40.5t-108 113.5t-38.5 169q0 43 7 85q20 110 79 189.5t145.5 120.5t187.5 41q28 0 57 -3t37 -4q49 -7 85 -7
q53 0 74 25t21 76q0 17 -1 27h130zM578 392q0 74 -36.5 118.5t-103.5 44.5q-49 0 -93 -25t-75.5 -74t-43.5 -117q-5 -26 -5 -60q0 -77 37 -123.5t104 -46.5q49 0 93 26.5t75 77t42 119.5q6 32 6 60z" />
    <glyph glyph-name="ohorn" unicode="&#x1a1;" horiz-adv-x="626" 
d="M680 611q1 -15 1 -44q0 -92 -35.5 -137.5t-124.5 -50.5q36 -52 36 -125q0 -23 -5 -55q-13 -80 -57 -135.5t-105 -83t-125 -27.5q-71 0 -126.5 30.5t-87 85t-31.5 125.5q0 33 5 58q13 80 58.5 135.5t110.5 82.5t139 27q27 0 53.5 -3.5t34.5 -4.5q38 -6 50 -6
q52 0 67.5 35.5t12.5 92.5h129zM391 253q0 47 -22.5 76t-62.5 29q-41 0 -74 -31t-44 -91q-4 -26 -4 -37q0 -47 23 -76.5t63 -29.5q42 0 74 30.5t43 91.5q4 26 4 38z" />
    <glyph glyph-name="Uhorn" unicode="&#x1af;" horiz-adv-x="758" 
d="M937 827q1 -14 1 -40q0 -99 -42.5 -142.5t-141.5 -50.5l-60 -347q-25 -145 -113 -219.5t-231 -74.5q-94 0 -160 33t-100 92t-34 135q0 31 6 64l73 421h169l-66 -384q-6 -36 -6 -65q0 -140 130 -140q69 0 112 45.5t60 144.5l69 399h69q56 0 85 8.5t40 29.5t11 61
q0 19 -1 30h130z" />
    <glyph glyph-name="uhorn" unicode="&#x1b0;" horiz-adv-x="603" 
d="M749 613q1 -14 1 -40q0 -100 -42.5 -143.5t-140.5 -49.5l-73 -414h-143q6 45 7 77q-60 -90 -167 -90q-77 0 -120.5 43.5t-43.5 124.5q0 30 6 64l52 298h162l-45 -254q-7 -40 -7 -64q0 -69 56 -69q47 0 83 40t47 102l42 245h62q63 0 91.5 11t37.5 37.5t6 81.5h129z" />
    <glyph glyph-name="uni01CD" unicode="&#x1cd;" horiz-adv-x="743" 
d="M418 917l49 -73l75 73h139l-165 -157h-120l-110 157h132zM519 698l167 -732h-173l-29 148h-278l-80 -148h-177l419 732h151zM454 257l-46 228l-124 -228h170z" />
    <glyph glyph-name="uni01CE" unicode="&#x1ce;" horiz-adv-x="630" 
d="M326 715l44 -74l70 74h140l-164 -170h-114l-105 170h129zM611 483l-91 -517h-141q4 33 6 65q-64 -78 -159 -78q-61 0 -108 29t-73 81.5t-26 120.5q0 33 6 67q14 83 54 138.5t94.5 81.5t114.5 26q56 0 95.5 -23t59.5 -68q12 32 23 77h145zM357 118q35 28 45 91q3 20 3 37
q0 51 -26 79.5t-69 28.5q-44 0 -77 -30t-44 -89q-3 -18 -3 -36q0 -49 24.5 -79t68.5 -30q43 0 78 28z" />
    <glyph glyph-name="uni01CF" unicode="&#x1cf;" horiz-adv-x="306" 
d="M202 917l50 -73l74 73h139l-164 -157h-121l-109 157h131zM184 -34h-169l128 732h169z" />
    <glyph glyph-name="uni01D0" unicode="&#x1d0;" horiz-adv-x="273" 
d="M154 715l44 -74l70 74h140l-164 -170h-114l-105 170h129zM1 -34l92 517h163l-92 -517h-163z" />
    <glyph glyph-name="uni01D1" unicode="&#x1d1;" horiz-adv-x="778" 
d="M438 917l49 -73l74 73h140l-165 -157h-120l-110 157h132zM128.5 550q58.5 79 142.5 120.5t178 41.5q91 0 160.5 -39.5t108 -111.5t38.5 -166q0 -38 -8 -86q-19 -110 -77.5 -190.5t-142 -123t-177.5 -42.5q-91 0 -160.5 40.5t-108 113.5t-38.5 169q0 43 7 85
q19 110 77.5 189zM221 279q0 -77 37 -123.5t104 -46.5q49 0 93 26.5t75 77t42 119.5q6 32 6 60q0 74 -36.5 118.5t-103.5 44.5q-49 0 -93 -25t-75.5 -74t-43.5 -117q-5 -26 -5 -60z" />
    <glyph glyph-name="uni01D2" unicode="&#x1d2;" horiz-adv-x="592" 
d="M313 715l44 -74l70 74h140l-164 -170h-114l-105 170h129zM82.5 387q44.5 55 105.5 82.5t126 27.5q70 0 125.5 -30.5t86.5 -86t31 -125.5q0 -24 -5 -56q-13 -80 -57 -135.5t-105 -83t-125 -27.5q-71 0 -126.5 30.5t-87 85t-31.5 125.5q0 33 5 58q13 80 57.5 135zM184 199
q0 -47 23 -76.5t63 -29.5q42 0 74 30.5t43 91.5q4 26 4 38q0 47 -22.5 76t-62.5 29q-41 0 -74 -31t-44 -91q-4 -26 -4 -37z" />
    <glyph glyph-name="uni01D3" unicode="&#x1d3;" horiz-adv-x="758" 
d="M428 917l49 -73l75 73h139l-165 -157h-120l-110 157h132zM603 698h169l-78 -451q-26 -145 -113.5 -219.5t-230.5 -74.5q-94 0 -160 33t-100 92t-34 135q0 31 6 64l73 421h169l-66 -384q-7 -44 -7 -67q0 -70 34 -104t97 -34q69 0 111.5 45t60.5 145z" />
    <glyph glyph-name="uni01D4" unicode="&#x1d4;" horiz-adv-x="603" 
d="M314 715l44 -74l70 74h140l-164 -170h-115l-104 170h129zM423 483h162l-91 -517h-143q6 45 7 77q-60 -90 -167 -90q-77 0 -120.5 43.5t-43.5 124.5q0 30 6 64l52 298h162l-45 -254q-7 -40 -7 -64q0 -69 56 -69q47 0 83 40t47 102z" />
    <glyph glyph-name="uni01D5" unicode="&#x1d5;" horiz-adv-x="758" 
d="M311 889l13 72h352l-13 -72h-352zM296 752.5q-24 19.5 -24 45.5q0 27 24 46.5t58 19.5q36 0 60.5 -19.5t24.5 -46.5t-24.5 -46t-60.5 -19q-34 0 -58 19.5zM529 752q-24 19 -24 46t24 46.5t59 19.5q34 0 58.5 -19.5t24.5 -46.5q0 -26 -24.5 -45.5t-58.5 -19.5
q-35 0 -59 19zM603 698h169l-78 -451q-25 -145 -113 -219.5t-231 -74.5q-94 0 -160 33t-100 92t-34 135q0 31 6 64l73 421h169l-66 -384q-6 -36 -6 -65q0 -140 130 -140q69 0 112 45.5t60 144.5z" />
    <glyph glyph-name="uni01D6" unicode="&#x1d6;" horiz-adv-x="603" 
d="M559 761h-352l19 104h352zM185 569.5q-24 25.5 -24 60.5t24 60t58 25q36 0 60 -25t24 -60t-24.5 -60.5t-59.5 -25.5q-34 0 -58 25.5zM417.5 569.5q-23.5 25.5 -23.5 60.5t23.5 60t58.5 25t59.5 -25t24.5 -60t-24.5 -60.5t-59.5 -25.5t-58.5 25.5zM423 483h162l-91 -517
h-143q6 45 7 77q-60 -90 -167 -90q-77 0 -120.5 43.5t-43.5 124.5q0 30 6 64l52 298h162l-45 -254q-7 -40 -7 -64q0 -69 56 -69q47 0 83 40t47 102z" />
    <glyph glyph-name="uni01D7" unicode="&#x1d7;" horiz-adv-x="758" 
d="M400 881l114 91h167l-150 -91h-131zM296 752.5q-24 19.5 -24 45.5q0 27 24 46.5t58 19.5q36 0 60.5 -19.5t24.5 -46.5t-24.5 -46t-60.5 -19q-34 0 -58 19.5zM529 752q-24 19 -24 46t24 46.5t59 19.5q34 0 58.5 -19.5t24.5 -46.5q0 -26 -24.5 -45.5t-58.5 -19.5
q-35 0 -59 19zM603 698h169l-78 -451q-25 -145 -113 -219.5t-231 -74.5q-94 0 -160 33t-100 92t-34 135q0 31 6 64l73 421h169l-66 -384q-6 -36 -6 -65q0 -140 130 -140q69 0 112 45.5t60 144.5z" />
    <glyph glyph-name="uni01D8" unicode="&#x1d8;" horiz-adv-x="603" 
d="M436 741h-129l111 144h160zM185 569.5q-24 25.5 -24 60.5t24 60t58 25q36 0 60 -25t24 -60t-24.5 -60.5t-59.5 -25.5q-34 0 -58 25.5zM417.5 569.5q-23.5 25.5 -23.5 60.5t23.5 60t58.5 25t59.5 -25t24.5 -60t-24.5 -60.5t-59.5 -25.5t-58.5 25.5zM423 483h162l-91 -517
h-143q6 45 7 77q-60 -90 -167 -90q-77 0 -120.5 43.5t-43.5 124.5q0 30 6 64l52 298h162l-45 -254q-7 -40 -7 -64q0 -69 56 -69q47 0 83 40t47 102z" />
    <glyph glyph-name="uni01D9" unicode="&#x1d9;" horiz-adv-x="758" 
d="M685 973l-154 -93h-120l-121 93h143l48 -37l61 37h143zM296 752.5q-24 19.5 -24 45.5q0 27 24 46.5t58 19.5q36 0 60.5 -19.5t24.5 -46.5t-24.5 -46t-60.5 -19q-34 0 -58 19.5zM529 752q-24 19 -24 46t24 46.5t59 19.5q34 0 58.5 -19.5t24.5 -46.5q0 -26 -24.5 -45.5
t-58.5 -19.5q-35 0 -59 19zM603 698h169l-78 -451q-25 -145 -113 -219.5t-231 -74.5q-94 0 -160 33t-100 92t-34 135q0 31 6 64l73 421h169l-66 -384q-6 -36 -6 -65q0 -140 130 -140q69 0 112 45.5t60 144.5z" />
    <glyph glyph-name="uni01DA" unicode="&#x1da;" horiz-adv-x="603" 
d="M347 885l45 -62l68 62h139l-160 -144h-115l-109 144h132zM185 569.5q-24 25.5 -24 60.5t24 60t58 25q36 0 60 -25t24 -60t-24.5 -60.5t-59.5 -25.5q-34 0 -58 25.5zM417.5 569.5q-23.5 25.5 -23.5 60.5t23.5 60t58.5 25t59.5 -25t24.5 -60t-24.5 -60.5t-59.5 -25.5
t-58.5 25.5zM423 483h162l-91 -517h-143q6 45 7 77q-60 -90 -167 -90q-77 0 -120.5 43.5t-43.5 124.5q0 30 6 64l52 298h162l-45 -254q-7 -40 -7 -64q0 -69 56 -69q47 0 83 40t47 102z" />
    <glyph glyph-name="uni01DB" unicode="&#x1db;" horiz-adv-x="758" 
d="M294 972h166l83 -91h-131zM296 752.5q-24 19.5 -24 45.5q0 27 24 46.5t58 19.5q36 0 60.5 -19.5t24.5 -46.5t-24.5 -46t-60.5 -19q-34 0 -58 19.5zM529 752q-24 19 -24 46t24 46.5t59 19.5q34 0 58.5 -19.5t24.5 -46.5q0 -26 -24.5 -45.5t-58.5 -19.5q-35 0 -59 19z
M603 698h169l-78 -451q-25 -145 -113 -219.5t-231 -74.5q-94 0 -160 33t-100 92t-34 135q0 31 6 64l73 421h169l-66 -384q-6 -36 -6 -65q0 -140 130 -140q69 0 112 45.5t60 144.5z" />
    <glyph glyph-name="uni01DC" unicode="&#x1dc;" horiz-adv-x="603" 
d="M328 741l-91 144h153l59 -144h-121zM185 569.5q-24 25.5 -24 60.5t24 60t58 25q36 0 60 -25t24 -60t-24.5 -60.5t-59.5 -25.5q-34 0 -58 25.5zM417.5 569.5q-23.5 25.5 -23.5 60.5t23.5 60t58.5 25t59.5 -25t24.5 -60t-24.5 -60.5t-59.5 -25.5t-58.5 25.5zM423 483h162
l-91 -517h-143q6 45 7 77q-60 -90 -167 -90q-77 0 -120.5 43.5t-43.5 124.5q0 30 6 64l52 298h162l-45 -254q-7 -40 -7 -64q0 -69 56 -69q47 0 83 40t47 102z" />
    <glyph glyph-name="uni01E5" unicode="&#x1e5;" horiz-adv-x="685" 
d="M578 286h96l-21 -122h-96l-29 -160q-18 -104 -67 -169.5t-114 -94.5t-136 -29q-91 0 -157 45t-83 119l129 62q28 -86 120 -86q64 0 98 41t50 121q-59 -60 -142 -60q-61 0 -108 29t-73 81.5t-26 120.5q0 33 6 67q14 83 54 138.5t94.5 81.5t114.5 26q114 0 156 -92
q11 27 23 78h145zM317 286h82q-9 33 -32.5 50.5t-56.5 17.5q-44 0 -77 -30t-44 -89q-3 -18 -3 -36q0 -49 24.5 -79t68.5 -30q80 0 109 74h-92z" />
    <glyph glyph-name="gcaron" unicode="&#x1e7;" horiz-adv-x="623" 
d="M566 715l-165 -170h-114l-105 170h129l44 -74l70 74h141zM612 483l-84 -479q-18 -104 -67 -169.5t-114 -94.5t-136 -29q-91 0 -157 45t-83 119l129 62q28 -86 120 -86q64 0 98 41t50 121q-59 -60 -142 -60q-61 0 -108 29t-73 81.5t-26 120.5q0 33 6 67q14 83 54 138.5
t94.5 81.5t114.5 26q114 0 156 -92q11 27 23 78h145zM405 246q0 51 -26 79.5t-69 28.5q-44 0 -77 -30t-44 -89q-3 -18 -3 -36q0 -49 24.5 -79t68.5 -30q52 0 83.5 32t40.5 95q2 20 2 29z" />
    <glyph glyph-name="uni01E9" unicode="&#x1e9;" horiz-adv-x="601" 
d="M192 918l45 -62l68 62h139l-160 -144h-115l-109 144h132zM222 292l209 191h192l-223 -201l152 -316h-188l-94 200l-84 -75l-22 -125h-163l135 761h163z" />
    <glyph glyph-name="uni01EF" unicode="&#x1ef;" horiz-adv-x="520" 
d="M268 715l45 -74l69 74h141l-164 -170h-115l-105 170h129zM519 483l-20 -119l-198 -182q71 -21 110 -73.5t39 -125.5q0 -22 -5 -52q-19 -111 -101.5 -165.5t-190.5 -54.5q-103 0 -168 49.5t-79 138.5l133 59q20 -108 118 -108q48 0 81 26t42 75q2 14 2 20q0 43 -33.5 67.5
t-94.5 24.5q-33 0 -68 -7l19 123l173 168h-246l24 136h463z" />
    <glyph glyph-name="uni01F0" unicode="&#x1f0;" horiz-adv-x="268" 
d="M148 715l44 -74l70 74h140l-164 -170h-114l-105 170h129zM-176 -270.5q-41 18.5 -60 46.5l75 107q27 -33 68 -33q37 0 58 28t31 86l91 519h163l-96 -547q-20 -118 -84 -171.5t-150 -53.5q-55 0 -96 18.5z" />
    <glyph glyph-name="uni01F9" unicode="&#x1f9;" horiz-adv-x="604" 
d="M294 545l-100 170h157l64 -170h-121zM514 451.5q44 -45.5 44 -134.5q0 -32 -6 -70l-50 -281h-162l43 250q5 30 5 55q0 83 -62 83q-43 0 -75.5 -35t-42.5 -97l-45 -256h-161l91 517h142l-2 -23q-2 -14 -4 -46q31 41 75 62t92 21q74 0 118 -45.5z" />
    <glyph glyph-name="Aringacute" unicode="&#x1fa;" horiz-adv-x="743" 
d="M556 884h-128l109 81h160zM386 842q33 19 83 19q49 0 81.5 -19t32.5 -48q0 -30 -32.5 -49t-81.5 -19q-50 0 -83 19t-33 49q0 29 33 48zM439.5 782.5q11.5 -4.5 29.5 -4.5t28.5 4.5t10.5 11.5t-10.5 11.5t-28.5 4.5t-29.5 -4.5t-11.5 -11.5t11.5 -11.5zM519 698l167 -732
h-173l-29 148h-278l-80 -148h-177l419 732h151zM454 257l-46 228l-124 -228h170z" />
    <glyph glyph-name="aringacute" unicode="&#x1fb;" horiz-adv-x="630" 
d="M462 799h-128l109 137h160zM291.5 727.5q33.5 32.5 83.5 32.5q49 0 81.5 -32.5t32.5 -81.5q0 -51 -32.5 -83t-81.5 -32q-50 0 -83.5 32.5t-33.5 82.5q0 49 33.5 81.5zM345 615.5q11 -11.5 30 -11.5q17 0 28 11.5t11 30.5t-11 31t-28 12q-19 0 -30 -12t-11 -31t11 -30.5z
M611 483l-91 -517h-141q4 33 6 65q-64 -78 -159 -78q-61 0 -108 29t-73 81.5t-26 120.5q0 33 6 67q14 83 54 138.5t94.5 81.5t114.5 26q56 0 95.5 -23t59.5 -68q12 32 23 77h145zM357 118q35 28 45 91q3 20 3 37q0 51 -26 79.5t-69 28.5q-44 0 -77 -30t-44 -89
q-3 -18 -3 -36q0 -49 24.5 -79t68.5 -30q43 0 78 28z" />
    <glyph glyph-name="AEacute" unicode="&#x1fc;" horiz-adv-x="1081" 
d="M833 762h-134l125 156h171zM549 698h559l-25 -147h-319l-26 -144h287l-26 -146h-287l-26 -147h331l-26 -148h-502l27 149h-246l-117 -149h-204zM540 258l47 263l-206 -263h159z" />
    <glyph glyph-name="aeacute" unicode="&#x1fd;" horiz-adv-x="861" 
d="M509 715h164l-159 -170h-129zM780 213q-72 -41 -213 -41q-18 0 -64 2q6 -41 31.5 -63.5t63.5 -22.5q33 0 61 17.5t46 47.5l109 -82q-31 -58 -95 -88t-137 -30q-61 0 -108.5 24.5t-74.5 70.5q-35 -50 -77.5 -72.5t-106.5 -22.5q-62 0 -109 20.5t-72 56.5t-25 81q0 19 2 28
q15 85 92 124t192 39q18 0 56 -2q-3 67 -68 67q-33 0 -59 -17.5t-44 -46.5l-106 79q32 57 89 86t125 29q60 0 102.5 -21t65.5 -60q40 41 93 61t109 20q63 0 106.5 -22t65.5 -58.5t22 -81.5q0 -81 -72 -122zM575 346q-32 -21 -51 -60q38 -2 52 -2q61 0 89 12t28 37
q0 34 -48 34q-38 0 -70 -21zM337 193q-11 1 -31 1q-66 0 -101 -22.5t-35 -57.5q0 -19 13.5 -29.5t36.5 -10.5q37 0 71.5 24.5t40.5 61.5z" />
    <glyph glyph-name="Oslashacute" unicode="&#x1fe;" horiz-adv-x="792" 
d="M479 761h-135l126 156h170zM584 734h170l-93 -137q44 -50 68.5 -117.5t24.5 -146.5q0 -114 -48 -200.5t-130 -133t-180 -46.5q-81 0 -151 32l-37 -54h-170l93 137q-45 51 -69 118t-24 147q0 113 48 199t129.5 133t180.5 47q80 0 150 -32zM233 219l222 325q-25 11 -59 11
q-54 0 -96 -27.5t-65.5 -78t-23.5 -116.5q0 -64 22 -114zM558 445l-221 -325q25 -11 59 -11q54 0 96 27.5t65 78.5t23 118q0 62 -22 112z" />
    <glyph glyph-name="oslashacute" unicode="&#x1ff;" horiz-adv-x="593" 
d="M403 545h-129l124 170h164zM479 519h136l-103 -116q46 -63 46 -149q0 -23 -5 -55q-14 -80 -58 -135.5t-104.5 -83t-124.5 -27.5q-67 0 -122 29l-45 -51h-136l102 117q-45 61 -45 147q0 24 5 57q13 80 57.5 135t105.5 82.5t126 27.5q67 0 121 -28zM172 204q0 -16 3 -30
l158 179q-13 5 -26 5q-45 0 -83 -31t-49 -91q-3 -16 -3 -32zM404 249q0 15 -3 27l-156 -179q9 -4 26 -4q45 0 82 31t48 91q3 18 3 34z" />
    <glyph glyph-name="uni0218" unicode="&#x218;" horiz-adv-x="597" 
d="M270.5 446q27.5 -18 88.5 -42q62 -25 101.5 -47.5t68.5 -61.5t29 -98q0 -23 -4 -44q-15 -90 -84 -144q-39 -28 -88.5 -42t-99.5 -14q-75 0 -139 26.5t-106 76t-51 114.5l147 68q12 -59 54 -95.5t104 -36.5q38 0 61.5 14.5t28.5 44.5q1 4 1 10q0 32 -29 51t-93 45
q-60 23 -98.5 44.5t-66.5 58.5t-28 93q0 22 4 42q19 111 114 164q70 39 163 39q69 0 125.5 -24.5t91 -67.5t40.5 -97l-148 -67q-10 45 -42.5 74t-81.5 29q-40 0 -65 -17.5t-25 -48.5q0 -29 27.5 -47zM303 -86.5q24 -22.5 24 -61.5q0 -7 -2 -23q-21 -116 -194 -119l11 64
q66 5 85 33q-35 1 -55.5 17.5t-20.5 42.5q0 8 1 12q6 29 29.5 43t54.5 14q43 0 67 -22.5z" />
    <glyph glyph-name="uni0219" unicode="&#x219;" horiz-adv-x="463" 
d="M217 306.5q18 -11.5 58 -27.5q45 -18 75 -35.5t52 -46t22 -70.5q0 -14 -3 -29q-13 -72 -70.5 -108.5t-144.5 -36.5q-92 0 -152.5 44t-72.5 117l123 54q10 -42 36.5 -63.5t66.5 -21.5q51 0 51 32q0 18 -19 30.5t-63 30.5t-72.5 34t-49.5 43t-21 65q0 7 2 25
q13 75 76 114.5t145 39.5q57 0 100.5 -19.5t68.5 -52.5t29 -71l-124 -55q-9 32 -31 50t-53 18q-21 0 -34 -8.5t-13 -24.5t18 -27.5zM231 -86q24 -22 24 -62q0 -7 -2 -23q-21 -116 -193 -119l10 64q66 5 85 33q-35 1 -55.5 17.5t-20.5 42.5q0 8 1 12q6 29 29.5 43t54.5 14
q43 0 67 -22z" />
    <glyph glyph-name="uni021A" unicode="&#x21a;" 
d="M52 547l26 151h606l-26 -151h-218l-102 -581h-170l101 581h-217zM302 -86q24 -22 24 -62q0 -7 -2 -23q-21 -116 -193 -119l11 64q67 5 84 33q-39 1 -59.5 20.5t-15.5 51.5q6 29 29.5 43t54.5 14q43 0 67 -22z" />
    <glyph glyph-name="uni021B" unicode="&#x21b;" horiz-adv-x="437" 
d="M267 347l-28 -154q-3 -19 -3 -37q0 -31 14 -47t46 -16t63 19l43 -120q-29 -21 -63 -30t-77 -9q-84 0 -138.5 38t-54.5 127q0 23 5 56l31 173h-93l24 136h92l29 166h163l-29 -166h156l-23 -136h-157zM262.5 -86q23.5 -22 23.5 -60q0 -16 -2 -25q-21 -116 -193 -119l11 64
q65 5 84 33q-35 1 -55 17t-20 43q0 35 24.5 52t60.5 17q43 0 66.5 -22z" />
    <glyph glyph-name="uni021F" unicode="&#x21f;" horiz-adv-x="604" 
d="M192 918l45 -62l68 62h139l-160 -144h-115l-109 144h132zM514 451.5q44 -45.5 44 -134.5q0 -32 -6 -70l-50 -281h-162l43 250q5 30 5 55q0 83 -62 83q-40 0 -71 -31t-43 -86l-48 -271h-162l134 761h162l-52 -293q30 31 69.5 47t80.5 16q74 0 118 -45.5z" />
    <glyph glyph-name="uni0237" unicode="&#x237;" horiz-adv-x="268" 
d="M-176 -270.5q-41 18.5 -60 46.5l75 107q27 -33 68 -33q37 0 58 28t31 86l91 519h163l-96 -547q-20 -118 -84 -171.5t-150 -53.5q-55 0 -96 18.5z" />
    <glyph glyph-name="uni0251" unicode="&#x251;" horiz-adv-x="630" 
d="M611 483l-91 -517h-141q4 33 6 65q-64 -78 -159 -78q-61 0 -108 29t-73 81.5t-26 120.5q0 33 6 67q14 83 54 138.5t94.5 81.5t114.5 26q56 0 95.5 -23t59.5 -68q12 32 23 77h145zM357 118q35 28 45 91q3 20 3 37q0 51 -26 79.5t-69 28.5q-44 0 -77 -30t-44 -89
q-3 -18 -3 -36q0 -49 24.5 -79t68.5 -30q43 0 78 28z" />
    <glyph glyph-name="uni0259" unicode="&#x259;" horiz-adv-x="532" 
d="M186.5 346.5q-28.5 -17.5 -46.5 -47.5l-108 82q31 58 95 88t137 30q65 0 118.5 -28t85 -81t31.5 -125q0 -33 -5 -59q-15 -86 -61 -142.5t-109 -82.5t-132 -26q-65 0 -109.5 22t-66.5 58.5t-22 81.5q0 78 67 118t196 40q38 0 81 -3q-3 43 -27 67.5t-63 24.5
q-33 0 -61.5 -17.5zM267 105q30 20 48 57q-36 3 -63 3q-51 0 -75 -11.5t-24 -34.5q0 -34 48 -34q36 0 66 20z" />
    <glyph glyph-name="uni0261" unicode="&#x261;" horiz-adv-x="623" 
d="M612 483l-84 -479q-18 -104 -67 -169.5t-114 -94.5t-136 -29q-91 0 -157 45t-83 119l129 62q28 -86 120 -86q64 0 98 41t50 121q-59 -60 -142 -60q-61 0 -108 29t-73 81.5t-26 120.5q0 33 6 67q14 83 54 138.5t94.5 81.5t114.5 26q114 0 156 -92q11 27 23 78h145z
M405 246q0 51 -26 79.5t-69 28.5q-44 0 -77 -30t-44 -89q-3 -18 -3 -36q0 -49 24.5 -79t68.5 -30q52 0 83.5 32t40.5 95q2 20 2 29z" />
    <glyph glyph-name="uni0292" unicode="&#x292;" horiz-adv-x="520" 
d="M519 483l-20 -119l-198 -182q71 -21 110 -73.5t39 -125.5q0 -22 -5 -52q-19 -111 -101.5 -165.5t-190.5 -54.5q-103 0 -168 49.5t-79 138.5l133 59q20 -108 118 -108q48 0 81 26t42 75q2 14 2 20q0 43 -33.5 67.5t-94.5 24.5q-33 0 -68 -7l19 123l173 168h-246l24 136
h463z" />
    <glyph glyph-name="uni02BB" unicode="&#x2bb;" horiz-adv-x="280" 
d="M323 708q-47 -7 -80.5 -34t-48.5 -67q35 -3 57 -28t22 -61q0 -43 -29 -74t-70 -31q-39 0 -65.5 29t-26.5 83q0 17 3 38q11 60 44.5 110.5t85 83.5t114.5 39z" />
    <glyph glyph-name="circumflex" unicode="&#x2c6;" horiz-adv-x="490" 
d="M312 715h115l104 -170h-129l-44 73l-70 -73h-140z" />
    <glyph glyph-name="caron" unicode="&#x2c7;" horiz-adv-x="490" 
d="M340 715l44 -74l70 74h140l-164 -170h-114l-105 170h129z" />
    <glyph glyph-name="breve" unicode="&#x2d8;" horiz-adv-x="494" 
d="M131 583.5q-46 38.5 -46 102.5q0 19 2 29h123q-2 -34 11 -54t44 -20q28 0 46 18t29 56h123q-15 -85 -69.5 -127.5t-136.5 -42.5q-80 0 -126 38.5z" />
    <glyph glyph-name="dotaccent" unicode="&#x2d9;" horiz-adv-x="274" 
d="M198.5 566.5q-27.5 28.5 -27.5 67.5q0 40 27.5 68.5t66.5 28.5q38 0 66.5 -28.5t28.5 -68.5q0 -39 -28 -67.5t-67 -28.5t-66.5 28.5z" />
    <glyph glyph-name="ring" unicode="&#x2da;" horiz-adv-x="358" 
d="M226.5 746q36.5 35 90.5 35q53 0 88.5 -35t35.5 -89q0 -55 -35 -90t-89 -35t-90.5 35t-36.5 90q0 54 36.5 89zM285 624q12 -13 32 -13q19 0 30.5 13t11.5 33t-11.5 33t-30.5 13q-20 0 -32 -13t-12 -33t12 -33z" />
    <glyph glyph-name="ogonek" unicode="&#x2db;" horiz-adv-x="384" 
d="M139 -239q-30 -26 -62.5 -38t-70.5 -12q-64 0 -103 29t-39 81q0 13 3 27q10 59 57 99.5t132 79.5l54 -64q-63 -28 -95 -54.5t-38 -59.5l-1 -10q0 -34 39 -34q36 0 80 35z" />
    <glyph glyph-name="tilde" unicode="&#x2dc;" horiz-adv-x="495" 
d="M40 559q15 77 56 118t101 41q34 0 53.5 -12.5t37.5 -33.5q10 -12 18 -18t17 -6q30 0 44 54h107q-13 -77 -55 -118t-102 -41q-34 0 -53 12t-37 33q-12 13 -19 18.5t-17 5.5q-15 0 -25.5 -13t-18.5 -40h-107z" />
    <glyph glyph-name="hungarumlaut" unicode="&#x2dd;" horiz-adv-x="551" 
d="M227 545h-116l124 170h151zM417 545h-116l124 170h151z" />
    <glyph glyph-name="dotbelowcomb" unicode="&#x323;" horiz-adv-x="0" 
d="M-376.5 -251.5q-27.5 28.5 -27.5 67.5q0 41 27.5 69.5t66.5 28.5q38 0 66.5 -29t28.5 -69q0 -39 -28 -67.5t-67 -28.5t-66.5 28.5z" />
    <glyph glyph-name="uni0326" unicode="&#x326;" horiz-adv-x="0" 
d="M-151.5 -86q23.5 -22 23.5 -60q0 -16 -2 -25q-21 -116 -193 -119l11 64q67 5 84 33q-35 1 -55 17t-20 43q0 35 24.5 52t60.5 17q43 0 66.5 -22z" />
    <glyph glyph-name="uni0338" unicode="&#x338;" horiz-adv-x="0" 
d="M-634 -277l538 975h162l-537 -975h-163z" />
    <glyph glyph-name="tonos" unicode="&#x384;" horiz-adv-x="344" 
d="M231 545h-129l102 170h164z" />
    <glyph glyph-name="dieresistonos" unicode="&#x385;" horiz-adv-x="600" 
d="M377 545h-101l63 170h129zM145.5 575.5q-21.5 22.5 -21.5 54.5t21.5 54t52.5 22t53 -22.5t22 -53.5q0 -32 -22 -54.5t-53 -22.5t-52.5 22.5zM479.5 575.5q-21.5 22.5 -21.5 54.5q0 31 21.5 53.5t51.5 22.5q31 0 53.5 -22.5t22.5 -53.5q0 -32 -22.5 -54.5t-53.5 -22.5
q-30 0 -51.5 22.5z" />
    <glyph glyph-name="Alphatonos" unicode="&#x386;" horiz-adv-x="743" 
d="M194 529h-110l70 170h146zM519 698l167 -732h-173l-29 148h-278l-80 -148h-177l419 732h151zM454 257l-46 228l-124 -228h170z" />
    <glyph glyph-name="Epsilontonos" unicode="&#x388;" horiz-adv-x="752" 
d="M155 528h-110l70 170h146zM293 698h485l-25 -147h-317l-25 -144h284l-25 -146h-284l-26 -147h328l-26 -148h-497z" />
    <glyph glyph-name="Etatonos" unicode="&#x389;" horiz-adv-x="924" 
d="M155 528h-110l70 170h146zM413 421h299l49 277h169l-128 -732h-169l53 304h-299l-53 -304h-169l128 732h169z" />
    <glyph glyph-name="Iotatonos" unicode="&#x38a;" horiz-adv-x="456" 
d="M155 528h-110l70 170h146zM334 -34h-169l128 732h169z" />
    <glyph glyph-name="Omicrontonos" unicode="&#x38c;" horiz-adv-x="880" 
d="M230.5 550q58.5 79 142 120.5t177.5 41.5q91 0 160.5 -39.5t108 -111.5t38.5 -166q0 -38 -8 -86q-18 -110 -76.5 -190.5t-142 -123t-177.5 -42.5q-91 0 -160.5 40.5t-108 113.5t-38.5 169q0 43 7 85q19 110 77.5 189zM150 528h-110l70 170h146zM323 279q0 -77 37 -123.5
t104 -46.5q49 0 92.5 26.5t74.5 77t43 119.5q6 32 6 60q0 74 -37 118.5t-103 44.5q-50 0 -94 -25t-75.5 -74t-42.5 -117q-5 -26 -5 -60z" />
    <glyph glyph-name="Upsilontonos" unicode="&#x38e;" horiz-adv-x="877" 
d="M558 411l202 287h190l-334 -457l-49 -275h-170l48 282l-182 448l-104 -167h-110l70 170h146l-1 -1h188z" />
    <glyph glyph-name="Omegatonos" unicode="&#x38f;" horiz-adv-x="881" 
d="M687 117h143l-27 -151h-315l27 171q62 32 105 92.5t56 136.5q4 21 4 46q0 67 -38 105t-103 38q-76 0 -130 -57t-71 -155q-4 -23 -4 -50q0 -54 20.5 -96t60.5 -65l-27 -166h-314l27 151h141q-83 78 -83 194q0 30 6 66q18 103 76 179t142 116t179 40q84 0 151.5 -34
t107 -98t39.5 -151q0 -39 -7 -75q-25 -141 -166 -237zM157 528h-111l70 170h146z" />
    <glyph glyph-name="iotadieresistonos" unicode="&#x390;" horiz-adv-x="325" 
d="M217 545h-100l62 170h129zM-13.5 575.5q-21.5 22.5 -21.5 54.5q0 31 21.5 53.5t51.5 22.5q31 0 53.5 -22.5t22.5 -53.5q0 -32 -22.5 -54.5t-53.5 -22.5q-30 0 -51.5 22.5zM319.5 575.5q-21.5 22.5 -21.5 54.5t21.5 54t52.5 22t53 -22.5t22 -53.5q0 -32 -22 -54.5
t-53 -22.5t-52.5 22.5zM280 -26q-46 -21 -116 -21q-71 0 -107 30.5t-36 95.5q0 30 5 55l61 349h164l-60 -335q-3 -15 -3 -24q0 -16 7.5 -22t23.5 -6q23 0 56 14z" />
    <glyph glyph-name="Alpha" unicode="&#x391;" horiz-adv-x="743" 
d="M519 698l167 -732h-173l-29 148h-278l-80 -148h-177l419 732h151zM454 257l-46 228l-124 -228h170z" />
    <glyph glyph-name="Beta" unicode="&#x392;" horiz-adv-x="680" 
d="M549 336q85 -46 85 -139q0 -17 -3 -35q-18 -98 -93.5 -147t-202.5 -49h-320l128 732h255q71 0 127.5 -22.5t88.5 -64.5t32 -100q0 -17 -3 -37q-17 -97 -94 -138zM357 407q46 0 75.5 19t35.5 53q1 4 1 12q0 28 -24.5 44t-75.5 16h-86l-26 -144h100zM459 199q0 30 -25 48.5
t-73 18.5h-128l-27 -152h136q103 0 116 70q1 5 1 15z" />
    <glyph glyph-name="Gamma" unicode="&#x393;" horiz-adv-x="559" 
d="M143 698h485l-27 -151h-316l-102 -581h-169z" />
    <glyph glyph-name="uni0394" unicode="&#x394;" horiz-adv-x="727" 
d="M360 698h151l169 -648l-15 -84h-711l16 84zM490 109l-92 382l-222 -382h314z" />
    <glyph glyph-name="Epsilon" unicode="&#x395;" horiz-adv-x="602" 
d="M143 698h485l-26 -147h-316l-25 -144h284l-25 -146h-284l-27 -147h329l-26 -148h-497z" />
    <glyph glyph-name="Zeta" unicode="&#x396;" horiz-adv-x="586" 
d="M89 547l26 151h519l-15 -97l-398 -483h325l-26 -152h-564l16 97l399 484h-282z" />
    <glyph glyph-name="Eta" unicode="&#x397;" horiz-adv-x="774" 
d="M263 421h299l49 277h169l-128 -732h-169l53 304h-300l-52 -304h-169l128 732h169z" />
    <glyph glyph-name="Theta" unicode="&#x398;" horiz-adv-x="802" 
d="M125 538.5q60 83.5 148 128.5t188 45q93 0 165.5 -39t113 -111t40.5 -168q0 -34 -6 -72q-17 -112 -74.5 -195.5t-143.5 -128.5t-186 -45q-94 0 -168.5 39t-117 111.5t-42.5 169.5q0 34 6 71q17 111 77 194.5zM222 289q0 -86 42.5 -133.5t113.5 -47.5q86 0 145.5 62
t73.5 165q3 23 3 43q0 84 -42.5 131t-113.5 47q-86 0 -145.5 -60.5t-73.5 -157.5q-3 -25 -3 -49zM499 261h-202l25 149h203z" />
    <glyph glyph-name="Iota" unicode="&#x399;" horiz-adv-x="306" 
d="M184 -34h-169l128 732h169z" />
    <glyph glyph-name="Kappa" unicode="&#x39a;" horiz-adv-x="765" 
d="M261 402l326 296h218l-330 -289l230 -443h-207l-162 321l-112 -98l-40 -223h-170l129 732h170z" />
    <glyph glyph-name="Lambda" unicode="&#x39b;" horiz-adv-x="739" 
d="M491 -34l-92 490l-259 -490h-190l419 732h145l167 -732h-190z" />
    <glyph glyph-name="Mu" unicode="&#x39c;" horiz-adv-x="870" 
d="M747 698h129l-128 -732h-160l72 417l-190 -219h-86l-133 254l-77 -452h-159l128 732h128l177 -353z" />
    <glyph glyph-name="Nu" unicode="&#x39d;" horiz-adv-x="756" 
d="M276 698l251 -462l80 462h155l-128 -732h-134l-251 464l-80 -464h-154l128 732h133z" />
    <glyph glyph-name="Xi" unicode="&#x39e;" horiz-adv-x="653" 
d="M654 547h-557l26 151h557zM561 258h-473l27 151h473zM551 -34h-557l28 151h556z" />
    <glyph glyph-name="Omicron" unicode="&#x39f;" horiz-adv-x="778" 
d="M128.5 550q58.5 79 142.5 120.5t178 41.5q91 0 160.5 -39.5t108 -111.5t38.5 -166q0 -38 -8 -86q-19 -110 -77.5 -190.5t-142 -123t-177.5 -42.5q-91 0 -160.5 40.5t-108 113.5t-38.5 169q0 43 7 85q19 110 77.5 189zM221 279q0 -77 37 -123.5t104 -46.5q49 0 93 26.5
t75 77t42 119.5q6 32 6 60q0 74 -36.5 118.5t-103.5 44.5q-49 0 -93 -25t-75.5 -74t-43.5 -117q-5 -26 -5 -60z" />
    <glyph glyph-name="Pi" unicode="&#x3a0;" horiz-adv-x="773" 
d="M143 698h637l-129 -732h-171l103 581h-296l-103 -581h-170z" />
    <glyph glyph-name="Rho" unicode="&#x3a1;" horiz-adv-x="644" 
d="M394 698q83 0 143 -28t91.5 -78.5t31.5 -116.5q0 -21 -5 -51q-19 -109 -101.5 -165.5t-218.5 -56.5h-110l-41 -236h-169l128 732h251zM482 469q0 85 -123 85h-73l-36 -208h82q130 0 148 100q2 16 2 23z" />
    <glyph glyph-name="Sigma" unicode="&#x3a3;" horiz-adv-x="592" 
d="M89 564l24 134h516l-27 -151h-309l161 -223l-224 -207h316l-28 -151h-549l25 134l257 238z" />
    <glyph glyph-name="Tau" unicode="&#x3a4;" 
d="M78 698h606l-26 -151h-218l-102 -581h-170l101 581h-217z" />
    <glyph glyph-name="Upsilon" unicode="&#x3a5;" horiz-adv-x="694" 
d="M375 411l202 287h190l-334 -457l-49 -275h-170l48 282l-183 450h190z" />
    <glyph glyph-name="Phi" unicode="&#x3a6;" horiz-adv-x="866" 
d="M578 623q121 -19 196 -87t75 -173q0 -22 -5 -52q-14 -75 -66.5 -133t-131.5 -93t-171 -46l-13 -73h-165l13 76q-122 18 -196.5 85.5t-74.5 174.5q0 21 5 53q13 75 65.5 132.5t132 93t171.5 45.5l13 72h165zM639.5 432.5q-31.5 28.5 -88.5 38.5l-48 -272q78 16 123 58
t45 102q0 45 -31.5 73.5zM249 233q31 -28 88 -38l48 272q-78 -18 -122.5 -59.5t-44.5 -100.5q0 -46 31 -74z" />
    <glyph glyph-name="Chi" unicode="&#x3a7;" horiz-adv-x="728" 
d="M397 477l189 221h205l-317 -361l199 -371h-200l-119 239l-207 -239h-203l334 378l-190 354h198z" />
    <glyph glyph-name="Psi" unicode="&#x3a8;" horiz-adv-x="880" 
d="M744 698h169l-42 -237q-25 -149 -123.5 -233.5t-249.5 -100.5l-29 -161h-167l28 164q-124 18 -191.5 84.5t-67.5 179.5q0 35 6 72l41 232h169l-34 -198q-7 -38 -7 -72q0 -65 29 -98.5t83 -43.5l73 412h167l-72 -409q73 15 120 66.5t65 150.5z" />
    <glyph glyph-name="uni03A9" unicode="&#x3a9;" horiz-adv-x="777" 
d="M583 117h143l-27 -151h-315l27 171q62 32 105 92.5t56 136.5q4 21 4 46q0 67 -38 105t-103 38q-76 0 -130 -57t-71 -155q-4 -23 -4 -50q0 -54 20.5 -96t60.5 -65l-27 -166h-314l27 151h141q-83 78 -83 194q0 30 6 66q18 103 76 179t142 116t179 40q84 0 152 -34.5
t107.5 -98.5t39.5 -151q0 -38 -7 -74q-27 -141 -167 -237z" />
    <glyph glyph-name="Iotadieresis" unicode="&#x3aa;" horiz-adv-x="306" 
d="M78 780.5q-24 25.5 -24 60.5t24 60t58 25q36 0 60 -25t24 -60q0 -36 -24 -61t-60 -25q-34 0 -58 25.5zM310.5 780.5q-23.5 25.5 -23.5 60.5t23.5 60t58.5 25q34 0 59 -25t25 -60t-25 -60.5t-59 -25.5q-35 0 -58.5 25.5zM184 -34h-169l128 732h169z" />
    <glyph glyph-name="Upsilondieresis" unicode="&#x3ab;" horiz-adv-x="694" 
d="M273 780.5q-24 25.5 -24 60.5t24 60t58 25q36 0 60.5 -25t24.5 -60q0 -36 -24.5 -61t-60.5 -25q-34 0 -58 25.5zM506 780.5q-24 25.5 -24 60.5t24 60t59 25q34 0 58.5 -25t24.5 -60t-24.5 -60.5t-58.5 -25.5q-35 0 -59 25.5zM375 411l202 287h190l-334 -457l-49 -275
h-170l48 282l-183 450h190z" />
    <glyph glyph-name="alphatonos" unicode="&#x3ac;" horiz-adv-x="660" 
d="M373 715h163l-136 -170h-129zM605 102l5 -129q-40 -20 -98 -20q-104 0 -124 83q-65 -83 -162 -83q-61 0 -108 29t-73 81.5t-26 120.5q0 33 6 67q14 83 54 138.5t94.5 81.5t114.5 26q107 0 150 -81l6 -10q16 39 26 77h141l-59 -348l-2 -20q0 -13 4.5 -17.5t14.5 -4.5
q16 0 36 9zM357 118q35 28 45 91q3 20 3 37q0 51 -26 79.5t-69 28.5q-44 0 -77 -30t-44 -89q-3 -18 -3 -36q0 -49 24.5 -79t68.5 -30q43 0 78 28z" />
    <glyph glyph-name="epsilontonos" unicode="&#x3ad;" horiz-adv-x="507" 
d="M362 547h-128l102 170h163zM372 140l103 -84q-27 -50 -88 -76.5t-152 -26.5q-107 0 -169 37.5t-62 99.5q0 56 39 96t106 54q-41 17 -63 44t-22 62q0 7 2 21q11 61 71 95.5t157 34.5q86 0 142 -31t76 -89l-127 -60q-8 22 -31 35t-56 13q-31 0 -51.5 -11t-20.5 -30t25 -29
t66 -10h55l-18 -117h-42q-140 0 -140 -48q0 -35 74 -35q84 0 126 55z" />
    <glyph glyph-name="etatonos" unicode="&#x3ae;" horiz-adv-x="632" 
d="M404 715h163l-136 -170h-129zM543.5 451.5q44.5 -45.5 44.5 -133.5q0 -35 -7 -71l-92 -524h-162l86 493q5 30 5 53q0 85 -62 85q-43 0 -75.5 -35t-42.5 -97l-45 -256h-162l63 360l1 9q0 12 -5 15.5t-15 3.5q-14 0 -37 -10l-4 133q40 20 99 20q106 0 123 -85q31 41 76 63
t93 22q74 0 118.5 -45.5z" />
    <glyph glyph-name="iotatonos" unicode="&#x3af;" horiz-adv-x="325" 
d="M236 545h-129l102 170h164zM280 -26q-46 -21 -116 -21q-71 0 -107 30.5t-36 95.5q0 30 5 55l61 349h164l-60 -335q-3 -15 -3 -24q0 -16 7.5 -22t23.5 -6q23 0 56 14z" />
    <glyph glyph-name="upsilondieresistonos" unicode="&#x3b0;" horiz-adv-x="595" 
d="M382 545h-100l62 170h129zM151.5 575.5q-21.5 22.5 -21.5 54.5t21.5 54t52.5 22q30 0 52.5 -22.5t22.5 -53.5q0 -32 -22 -54.5t-53 -22.5t-52.5 22.5zM484.5 575.5q-21.5 22.5 -21.5 54.5t21.5 54t52.5 22t53.5 -22.5t22.5 -53.5q0 -32 -22.5 -54.5t-53.5 -22.5
t-52.5 22.5zM89 483h163l-45 -253q-6 -33 -6 -56q0 -40 16.5 -59t49.5 -19q49 0 78.5 38.5t44.5 123.5q9 50 9 101q0 56 -11 124h164q14 -57 14 -127q0 -59 -10 -114q-25 -143 -103 -216t-203 -73q-105 0 -160 49t-55 142q0 32 6 66z" />
    <glyph glyph-name="alpha" unicode="&#x3b1;" horiz-adv-x="660" 
d="M605 102l5 -129q-40 -20 -98 -20q-104 0 -124 83q-65 -83 -162 -83q-61 0 -108 29t-73 81.5t-26 120.5q0 33 6 67q14 83 54 138.5t94.5 81.5t114.5 26q107 0 150 -81l6 -10q16 39 26 77h141l-59 -348l-2 -20q0 -13 4.5 -17.5t14.5 -4.5q16 0 36 9zM357 118q35 28 45 91
q3 20 3 37q0 51 -26 79.5t-69 28.5q-44 0 -77 -30t-44 -89q-3 -18 -3 -36q0 -49 24.5 -79t68.5 -30q43 0 78 28z" />
    <glyph glyph-name="beta" unicode="&#x3b2;" horiz-adv-x="639" 
d="M570 411.5q-35 -40.5 -88 -63.5q58 -21 89 -62.5t31 -99.5q0 -23 -4 -43q-17 -95 -84.5 -142.5t-159.5 -47.5q-58 0 -103.5 21t-68.5 59l-56 -310h-163l129 727q26 148 102.5 219t196.5 71q69 0 121 -24t79.5 -67t27.5 -98q0 -22 -4 -41q-10 -58 -45 -98.5zM321 413
q50 0 83 24t42 73q2 14 2 21q0 31 -19 48t-55 17q-49 0 -78.5 -42t-44.5 -129l-34 -187q-3 -18 -3 -34q0 -53 31 -82t83 -29q45 0 72.5 21.5t34.5 62.5q1 6 1 17q0 39 -27.5 61t-81.5 22h-34l25 136h3z" />
    <glyph glyph-name="gamma" unicode="&#x3b3;" horiz-adv-x="581" 
d="M567 483q0 -33 -2 -60t-6 -49q-17 -99 -74.5 -203t-172.5 -221l-40 -227h-164l37 213l-100 547h174l49 -377q56 80 87 150.5t43 139.5q7 35 7 87h162z" />
    <glyph glyph-name="delta" unicode="&#x3b4;" horiz-adv-x="604" 
d="M363 594l112 -113q48 -49 69 -98.5t21 -104.5q0 -27 -5 -60q-12 -83 -53.5 -143t-103.5 -91t-136 -31q-68 0 -123.5 28t-87 81t-31.5 125q0 26 4 49q15 107 83.5 170.5t168.5 75.5l-142 140l18 104h430l-24 -132h-200zM372.5 330.5q-22.5 27.5 -62.5 27.5
q-48 0 -80.5 -39t-36.5 -105q-3 -57 21 -89t67 -32q50 0 82 43.5t32 115.5q0 51 -22.5 78.5z" />
    <glyph glyph-name="epsilon" unicode="&#x3b5;" horiz-adv-x="507" 
d="M372 140l103 -84q-27 -50 -88 -76.5t-152 -26.5q-107 0 -169 37.5t-62 99.5q0 56 39 96t106 54q-41 17 -63 44t-22 62q0 7 2 21q11 61 71 95.5t157 34.5q86 0 142 -31t76 -89l-127 -60q-8 22 -31 35t-56 13q-31 0 -51.5 -11t-20.5 -30t25 -29t66 -10h55l-18 -117h-42
q-140 0 -140 -48q0 -35 74 -35q84 0 126 55z" />
    <glyph glyph-name="zeta" unicode="&#x3b6;" horiz-adv-x="549" 
d="M579 615q-336 -197 -369 -388q-3 -18 -3 -32q0 -32 14.5 -53t40.5 -36t73 -34q77 -26 109.5 -60t32.5 -83q0 -11 -4 -39q-9 -54 -44.5 -96t-111.5 -90l-78 106q38 26 53 43.5t15 39.5q0 19 -19.5 35t-62.5 31q-57 20 -97.5 42.5t-66.5 62.5t-26 100q0 21 5 54
q35 202 296 372h-206l25 136h444z" />
    <glyph glyph-name="eta" unicode="&#x3b7;" horiz-adv-x="632" 
d="M543.5 451.5q44.5 -45.5 44.5 -133.5q0 -35 -7 -71l-92 -524h-162l86 493q5 30 5 53q0 85 -62 85q-43 0 -75.5 -35t-42.5 -97l-45 -256h-162l63 360l1 9q0 12 -5 15.5t-15 3.5q-14 0 -37 -10l-4 133q40 20 99 20q106 0 123 -85q31 41 76 63t93 22q74 0 118.5 -45.5z" />
    <glyph glyph-name="theta" unicode="&#x3b8;" horiz-adv-x="604" 
d="M531.5 662q61.5 -77 61.5 -219q0 -46 -8 -107q-17 -122 -62.5 -208.5t-110.5 -130.5t-140 -44q-70 0 -122.5 35.5t-82 104t-29.5 165.5q0 43 8 101q17 121 62.5 207t111 129.5t141.5 43.5q109 0 170.5 -77zM273.5 557.5q-34.5 -48.5 -53.5 -138.5h207q2 34 2 48
q0 139 -73 139q-48 0 -82.5 -48.5zM358.5 142.5q34.5 52.5 53.5 148.5h-209q-2 -36 -2 -50q0 -151 76 -151q47 0 81.5 52.5z" />
    <glyph glyph-name="iota" unicode="&#x3b9;" horiz-adv-x="325" 
d="M280 -26q-46 -21 -116 -21q-71 0 -107 30.5t-36 95.5q0 30 5 55l61 349h164l-60 -335q-3 -15 -3 -24q0 -16 7.5 -22t23.5 -6q23 0 56 14z" />
    <glyph glyph-name="kappa" unicode="&#x3ba;" horiz-adv-x="575" 
d="M595 458l-62 -112q-6 5 -17.5 8.5t-20.5 3.5q-22 0 -39 -8.5t-42 -33.5l-38 -39l144 -311h-180l-83 190l-71 -72l-21 -118h-163l92 517h163l-35 -199l109 121q48 53 84.5 72.5t78.5 19.5q67 0 101 -39z" />
    <glyph glyph-name="lambda" unicode="&#x3bb;" horiz-adv-x="638" 
d="M607 -26q-48 -21 -111 -21q-76 0 -110.5 37t-44.5 113l-26 188l-195 -325h-174l336 511l-13 57q-8 39 -21 52.5t-32 13.5q-17 0 -34.5 -7t-31.5 -18l-36 119q28 20 67 32.5t79 12.5q64 0 104 -32t52 -104l74 -444q6 -35 19 -50.5t37 -15.5q13 0 24 3t28 11z" />
    <glyph glyph-name="uni03BC" unicode="&#x3bc;" horiz-adv-x="643" 
d="M588 102l5 -129q-18 -9 -42.5 -14.5t-51.5 -5.5q-50 0 -77.5 21t-37.5 66q-27 -45 -61 -66t-79 -21t-77 22l-45 -252h-163l134 760h163l-49 -282q-2 -22 -2 -31q0 -74 65 -74q48 0 78.5 39t43.5 109l42 239h163l-60 -340q-3 -16 -3 -26q0 -14 5.5 -19t17.5 -5q15 0 31 9z
" />
    <glyph glyph-name="nu" unicode="&#x3bd;" horiz-adv-x="575" 
d="M572 483q0 -61 -7 -102q-17 -97 -83 -206t-182 -209h-141l-119 517h178l59 -355q57 72 84.5 135t38.5 139q6 37 7 81h165z" />
    <glyph glyph-name="xi" unicode="&#x3be;" horiz-adv-x="513" 
d="M555 607q-289 -15 -289 -125q0 -33 29.5 -54t84.5 -21h109l-23 -126h-111q-82 0 -125.5 -28.5t-43.5 -74.5q0 -23 13.5 -38.5t38.5 -28.5t75 -34q151 -49 151 -159q0 -16 -3 -34q-9 -50 -44.5 -91.5t-110.5 -88.5l-78 106q34 24 49 40.5t19 37.5q3 22 -14 39t-58 31
q-103 36 -156 82t-53 112q0 16 3 34q12 62 61 101.5t123 54.5q-48 16 -75 46t-27 70q0 53 33.5 84t87.5 48h-116l22 126h447z" />
    <glyph glyph-name="omicron" unicode="&#x3bf;" horiz-adv-x="592" 
d="M82.5 387q44.5 55 105.5 82.5t126 27.5q70 0 125.5 -30.5t86.5 -86t31 -125.5q0 -24 -5 -56q-13 -80 -57 -135.5t-105 -83t-125 -27.5q-71 0 -126.5 30.5t-87 85t-31.5 125.5q0 33 5 58q13 80 57.5 135zM184 199q0 -47 23 -76.5t63 -29.5q42 0 74 30.5t43 91.5q4 26 4 38
q0 47 -22.5 76t-62.5 29q-41 0 -74 -31t-44 -91q-4 -26 -4 -37z" />
    <glyph glyph-name="pi" unicode="&#x3c0;" horiz-adv-x="678" 
d="M657 347h-95l-35 -199q-2 -18 -2 -23q0 -17 7 -23t23 -6q24 0 57 14l5 -136q-47 -21 -116 -21q-72 0 -108 30.5t-36 96.5q0 21 5 54l38 213h-113l-68 -383l-163 2l67 381h-97l25 136h631z" />
    <glyph glyph-name="rho" unicode="&#x3c1;" horiz-adv-x="638" 
d="M487 469q56 -28 87 -80.5t31 -122.5q0 -24 -5 -57q-20 -125 -93 -190.5t-172 -65.5q-109 0 -157 70l-52 -300h-163l84 480q27 153 107.5 223.5t203.5 70.5q73 0 129 -28zM390 129q34 33 44 92q3 18 3 35q0 47 -25.5 75.5t-69.5 28.5q-41 0 -76 -30t-50 -84l-6 -37
q-5 -58 24.5 -85.5t72.5 -27.5q49 0 83 33z" />
    <glyph glyph-name="uni03C2" unicode="&#x3c2;" horiz-adv-x="500" 
d="M386 -6q32 -36 32 -83q0 -16 -3 -32q-11 -54 -49 -95t-108 -80l-78 106q39 27 54 45t15 44q0 20 -14 34.5t-45 28.5q-73 32 -121.5 89.5t-48.5 145.5q0 32 5 57q15 84 60.5 138.5t106.5 79.5t125 25q80 0 134 -37.5t66 -98.5l-130 -61q-11 27 -29.5 42t-49.5 15
q-44 0 -76.5 -31.5t-42.5 -88.5q-3 -18 -3 -35q0 -92 97 -138q71 -34 103 -70z" />
    <glyph glyph-name="sigma" unicode="&#x3c3;" horiz-adv-x="635" 
d="M656 483l-25 -136h-113q33 -50 33 -116q0 -11 -2 -33q-8 -76 -48 -131.5t-100.5 -84.5t-130.5 -29q-72 0 -129.5 27.5t-90 79.5t-32.5 123q0 22 3 46q11 79 55.5 136.5t114.5 87.5t155 30h310zM364 317.5q-22 26.5 -63 26.5q-47 0 -79 -37.5t-37 -99.5q-4 -54 20 -84
t70 -30q48 0 79.5 41t31.5 108q0 49 -22 75.5z" />
    <glyph glyph-name="tau" unicode="&#x3c4;" horiz-adv-x="510" 
d="M515 347h-179l-35 -199q-2 -18 -2 -23q0 -17 7 -23t23 -6q24 0 57 14l4 -136q-46 -21 -115 -21q-72 0 -108 30.5t-36 96.5q0 21 5 54l38 213h-156l25 136h497z" />
    <glyph glyph-name="upsilon" unicode="&#x3c5;" horiz-adv-x="595" 
d="M89 483h163l-45 -253q-6 -33 -6 -56q0 -40 16.5 -59t49.5 -19q49 0 78.5 38.5t44.5 123.5q9 50 9 101q0 56 -11 124h164q14 -57 14 -127q0 -59 -10 -114q-25 -143 -103 -216t-203 -73q-105 0 -160 49t-55 142q0 32 6 66z" />
    <glyph glyph-name="phi" unicode="&#x3c6;" horiz-adv-x="790" 
d="M514 489q108 -20 174.5 -81t66.5 -156q0 -19 -3 -39q-16 -116 -107.5 -181.5t-225.5 -76.5l-41 -232h-156l43 240q-110 21 -178 81.5t-68 153.5q0 20 3 39q16 114 109.5 179.5t227.5 77.5l30 175h156zM183 203q0 -41 27 -68.5t77 -38.5l46 258q-64 -13 -103 -48t-46 -87
q-1 -6 -1 -16zM590 248q0 41 -26.5 68t-74.5 38l-46 -261q64 12 101.5 48t44.5 90q1 6 1 17z" />
    <glyph glyph-name="chi" unicode="&#x3c7;" horiz-adv-x="579" 
d="M284 253l161 230h173l-277 -384l145 -376h-167l-79 231l-157 -231h-173l274 387l-149 373h167z" />
    <glyph glyph-name="psi" unicode="&#x3c8;" horiz-adv-x="786" 
d="M740 483q16 -64 16 -137q0 -59 -9 -109q-21 -118 -95 -193t-234 -88l-41 -233h-156l42 235q-114 13 -167.5 66.5t-53.5 150.5q0 41 9 89l38 219h163l-35 -202q-8 -45 -8 -74q0 -46 18.5 -71.5t60.5 -35.5l101 569h156l-100 -567q61 16 94.5 58.5t45.5 113.5q7 44 7 84
q0 65 -15 125h163z" />
    <glyph glyph-name="omega" unicode="&#x3c9;" horiz-adv-x="791" 
d="M697 483q60 -94 60 -210q0 -37 -8 -85q-20 -113 -84 -174t-153 -61q-115 0 -151 90q-30 -45 -72.5 -67.5t-100.5 -22.5q-82 0 -129.5 49.5t-47.5 139.5q0 32 6 68q15 83 52.5 149.5t93.5 123.5l166 -1q-127 -133 -153 -286q-5 -28 -5 -45q0 -62 46 -62q68 0 94 146
l20 107h156l-27 -148q-3 -22 -3 -40q0 -35 11.5 -50t33.5 -15q33 0 57 33.5t35 96.5q6 36 6 70q0 101 -56 194h153z" />
    <glyph glyph-name="iotadieresis" unicode="&#x3ca;" horiz-adv-x="325" 
d="M20 569.5q-24 25.5 -24 60.5t23.5 60t57.5 25q36 0 60.5 -25t24.5 -60t-24.5 -60.5t-60.5 -25.5q-33 0 -57 25.5zM252 569.5q-24 25.5 -24 60.5t24 60t59 25q34 0 58.5 -25t24.5 -60t-24.5 -60.5t-58.5 -25.5q-35 0 -59 25.5zM280 -26q-46 -21 -116 -21q-71 0 -107 30.5
t-36 95.5q0 30 5 55l61 349h164l-60 -335q-3 -15 -3 -24q0 -16 7.5 -22t23.5 -6q23 0 56 14z" />
    <glyph glyph-name="upsilondieresis" unicode="&#x3cb;" horiz-adv-x="595" 
d="M185 569.5q-24 25.5 -24 60.5t24 60t58 25q36 0 60 -25t24 -60t-24.5 -60.5t-59.5 -25.5q-34 0 -58 25.5zM417 569.5q-24 25.5 -24 60.5t24 60t59 25q34 0 59 -25t25 -60t-25 -60.5t-59 -25.5q-35 0 -59 25.5zM89 483h163l-45 -253q-6 -33 -6 -56q0 -40 16.5 -59
t49.5 -19q49 0 78.5 38.5t44.5 123.5q9 50 9 101q0 56 -11 124h164q14 -57 14 -127q0 -59 -10 -114q-25 -143 -103 -216t-203 -73q-105 0 -160 49t-55 142q0 32 6 66z" />
    <glyph glyph-name="omicrontonos" unicode="&#x3cc;" horiz-adv-x="592" 
d="M401 545h-129l102 170h163zM82.5 387q44.5 55 105.5 82.5t126 27.5q70 0 125.5 -30.5t86.5 -86t31 -125.5q0 -24 -5 -56q-13 -80 -57 -135.5t-105 -83t-125 -27.5q-71 0 -126.5 30.5t-87 85t-31.5 125.5q0 33 5 58q13 80 57.5 135zM184 199q0 -47 23 -76.5t63 -29.5
q42 0 74 30.5t43 91.5q4 26 4 38q0 47 -22.5 76t-62.5 29q-41 0 -74 -31t-44 -91q-4 -26 -4 -37z" />
    <glyph glyph-name="upsilontonos" unicode="&#x3cd;" horiz-adv-x="595" 
d="M401 545h-129l102 170h164zM89 483h163l-45 -253q-6 -33 -6 -56q0 -40 16.5 -59t49.5 -19q49 0 78.5 38.5t44.5 123.5q9 50 9 101q0 56 -11 124h164q14 -57 14 -127q0 -59 -10 -114q-25 -143 -103 -216t-203 -73q-105 0 -160 49t-55 142q0 32 6 66z" />
    <glyph glyph-name="omegatonos" unicode="&#x3ce;" horiz-adv-x="791" 
d="M504 546h-129l102 170h163zM697 483q60 -94 60 -210q0 -37 -8 -85q-20 -113 -84 -174t-153 -61q-115 0 -151 90q-30 -45 -72.5 -67.5t-100.5 -22.5q-82 0 -129.5 49.5t-47.5 139.5q0 32 6 68q15 83 52.5 149.5t93.5 123.5l166 -1q-127 -133 -153 -286q-5 -28 -5 -45
q0 -62 46 -62q68 0 94 146l20 107h156l-27 -148q-3 -22 -3 -40q0 -35 11.5 -50t33.5 -15q33 0 57 33.5t35 96.5q6 36 6 70q0 101 -56 194h153z" />
    <glyph glyph-name="uni03D1" unicode="&#x3d1;" horiz-adv-x="636" 
d="M654 419l-23 -127h-90q-34 -175 -109 -257t-197 -82q-104 0 -164.5 59t-61.5 159l163 47q-1 -9 -1 -25q0 -50 17 -76.5t51 -26.5q46 0 79.5 49.5t55.5 152.5h-14q-149 0 -226.5 47t-77.5 138q0 24 4 44q11 62 48 112.5t94 79t126 28.5q114 0 174.5 -85.5t54.5 -236.5h97z
M222 495q0 -35 35 -55.5t128 -20.5h10q3 29 3 54q0 134 -77 134q-33 0 -61 -23.5t-36 -69.5q-2 -14 -2 -19z" />
    <glyph glyph-name="uni03D2" unicode="&#x3d2;" horiz-adv-x="740" 
d="M810 698l-27 -151h-17q-72 0 -136 -48.5t-111 -140.5t-70 -220l-31 -172h-170l32 182q11 66 11 119q0 135 -56 243t-150 188h221q101 -96 126 -222q59 110 146.5 166t193.5 56h38z" />
    <glyph glyph-name="uni03D6" unicode="&#x3d6;" horiz-adv-x="846" 
d="M54 483h813l-23 -133h-91q23 -56 23 -117q0 -31 -6 -69q-18 -102 -79.5 -156.5t-148.5 -54.5q-118 0 -154 90q-31 -45 -75.5 -67.5t-109.5 -22.5q-81 0 -125.5 41.5t-44.5 121.5q0 29 6 62q16 95 76 172h-85zM622 258q0 49 -21 92h-319q-66 -82 -82 -170q-4 -28 -4 -36
q0 -55 43 -55q71 0 99 146l8 42h156l-15 -85q-2 -24 -2 -33q0 -70 46 -70q30 0 53.5 32t33.5 91q4 21 4 46z" />
    <glyph glyph-name="uni0400" unicode="&#x400;" horiz-adv-x="602" 
d="M314 761l-106 156h163l71 -156h-128zM143 698h485l-26 -147h-316l-25 -144h284l-25 -146h-284l-27 -147h329l-26 -148h-497z" />
    <glyph glyph-name="uni0401" unicode="&#x401;" horiz-adv-x="602" 
d="M221 780.5q-24 25.5 -24 60.5t24 60t58 25q36 0 60.5 -25t24.5 -60q0 -36 -24.5 -61t-60.5 -25q-34 0 -58 25.5zM454 780.5q-24 25.5 -24 60.5t24 60t59 25q34 0 58.5 -25t24.5 -60t-24.5 -60.5t-58.5 -25.5q-35 0 -59 25.5zM143 698h485l-26 -147h-316l-25 -144h284
l-25 -146h-284l-27 -147h329l-26 -148h-497z" />
    <glyph glyph-name="uni0402" unicode="&#x402;" horiz-adv-x="895" 
d="M784 364q69 -57 69 -157q0 -23 -5 -53q-35 -201 -280 -201q-39 0 -72 4l16 144q10 -1 28 -1q136 0 136 97q0 33 -24 53t-76 20q-73 0 -135 -43t-78 -138l-22 -123h-172l102 581h-220l27 151h612l-26 -151h-220l-32 -178q80 52 187 52q116 0 185 -57z" />
    <glyph glyph-name="uni0403" unicode="&#x403;" horiz-adv-x="587" 
d="M467 930h163l-159 -170h-128zM655 698l-26 -151h-338l-102 -581h-171l129 732h508z" />
    <glyph glyph-name="uni0404" unicode="&#x404;" horiz-adv-x="682" 
d="M323 516.5q-51 -38.5 -78 -109.5h227l-25 -139h-226q4 -73 43.5 -115.5t102.5 -42.5q93 0 150 96l129 -95q-35 -71 -113 -114.5t-178 -43.5q-92 0 -162.5 41t-109.5 114.5t-39 169.5q0 42 7 83q20 112 79 191t141.5 119.5t174.5 40.5q78 0 135 -28t89 -72.5t40 -94.5
l-152 -72q-27 110 -125 110q-59 0 -110 -38.5z" />
    <glyph glyph-name="uni0405" unicode="&#x405;" horiz-adv-x="597" 
d="M470 9q-39 -28 -88.5 -42t-99.5 -14q-75 0 -139 26.5t-106 76t-51 114.5l147 68q12 -59 54 -95.5t104 -36.5q42 0 66 17t24 52q0 32 -30 52t-91 45q-61 26 -99 47.5t-65.5 59t-27.5 93.5q0 21 4 41q18 107 113 160q70 39 163 39q69 0 125.5 -24.5t91 -67.5t40.5 -97
l-148 -67q-10 45 -42.5 74t-81.5 29q-36 0 -60 -14.5t-29 -40.5q-1 -3 -1 -10q0 -27 26.5 -44t86.5 -43q62 -26 102.5 -49t70 -62.5t29.5 -98.5q0 -23 -4 -44q-15 -90 -84 -144z" />
    <glyph glyph-name="uni0406" unicode="&#x406;" horiz-adv-x="306" 
d="M184 -34h-169l128 732h169z" />
    <glyph glyph-name="uni0407" unicode="&#x407;" horiz-adv-x="306" 
d="M78 780.5q-24 25.5 -24 60.5t24 60t58 25q36 0 60 -25t24 -60q0 -36 -24 -61t-60 -25q-34 0 -58 25.5zM310.5 780.5q-23.5 25.5 -23.5 60.5t23.5 60t58.5 25q34 0 59 -25t25 -60t-25 -60.5t-59 -25.5q-35 0 -58.5 25.5zM184 -34h-169l128 732h169z" />
    <glyph glyph-name="uni0408" unicode="&#x408;" horiz-adv-x="544" 
d="M46 0q-58 47 -71 139l147 67q11 -48 28.5 -72.5t52.5 -24.5q43 0 69.5 34.5t37.5 98.5l79 456h169l-85 -487q-25 -142 -101 -200t-174 -58q-94 0 -152 47z" />
    <glyph glyph-name="uni0409" unicode="&#x409;" horiz-adv-x="1152" 
d="M858 433q80 0 137.5 -26.5t87.5 -74t30 -110.5q0 -23 -5 -51q-20 -110 -93 -157.5t-203 -47.5h-327l103 581h-222l-76 -320q-27 -114 -68 -173t-101 -80t-156 -21l18 156q45 0 72 14.5t43.5 46.5t30.5 90l105 438h551l-47 -265h120zM813 114q57 0 90.5 27t33.5 73
q0 33 -26.5 51.5t-79.5 18.5h-119l-30 -170h131z" />
    <glyph glyph-name="uni040A" unicode="&#x40a;" horiz-adv-x="1177" 
d="M861 432q120 0 187 -57.5t67 -152.5q0 -23 -5 -51q-20 -110 -93 -157.5t-205 -47.5h-325l54 304h-303l-54 -304h-170l129 732h170l-48 -277h302l49 277h171l-47 -266h121zM813 114q59 0 92.5 27t33.5 74q0 32 -26.5 50.5t-78.5 18.5h-120l-30 -170h129z" />
    <glyph glyph-name="uni040B" unicode="&#x40b;" horiz-adv-x="882" 
d="M759 363.5q65 -56.5 65 -169.5q0 -40 -7 -79l-27 -149h-170l25 142q6 33 6 59q0 52 -25.5 74.5t-80.5 22.5q-148 0 -176 -143l-28 -155h-172l102 581h-220l27 151h612l-26 -151h-220l-30 -167q71 40 165 40q115 0 180 -56.5z" />
    <glyph glyph-name="uni040C" unicode="&#x40c;" horiz-adv-x="746" 
d="M545 761h-135l125 156h171zM355 408l254 290h195l-312 -361l190 -371h-189l-144 290h-114l-51 -290h-170l129 732h170l-51 -290h93z" />
    <glyph glyph-name="uni040D" unicode="&#x40d;" horiz-adv-x="761" 
d="M415 760l-100 170h157l64 -170h-121zM629 698h139l-129 -732h-156l78 451l-408 -451h-139l129 732h156l-78 -451z" />
    <glyph glyph-name="uni040E" unicode="&#x40e;" horiz-adv-x="701" 
d="M327.5 795q-45.5 36 -45.5 95q0 18 2 27h122q-2 -32 11.5 -50.5t44.5 -18.5q55 0 73 69h123q-14 -80 -68 -119t-136 -39q-81 0 -126.5 36zM373 356l217 342h184l-351 -531q-49 -74 -86 -117.5t-85 -70t-111 -26.5q-39 0 -72 11t-53 34l25 145q40 -33 97 -33q36 0 63.5 16
t57.5 54l-180 518h190z" />
    <glyph glyph-name="uni040F" unicode="&#x40f;" horiz-adv-x="773" 
d="M211 117h296l102 581h171l-129 -732h-237l-37 -172h-148l24 172h-239l129 732h170z" />
    <glyph glyph-name="uni0410" unicode="&#x410;" horiz-adv-x="743" 
d="M519 698l167 -732h-173l-29 148h-278l-80 -148h-177l419 732h151zM454 257l-46 228l-124 -228h170z" />
    <glyph glyph-name="uni0411" unicode="&#x411;" horiz-adv-x="685" 
d="M669 698l-26 -147h-355l-25 -138h125q118 0 186.5 -52.5t68.5 -141.5q0 -24 -4 -44q-19 -105 -95.5 -157t-203.5 -52h-326l129 732h526zM237 267l-26 -153h134q54 0 86.5 23t32.5 65q0 31 -26 48t-76 17h-125z" />
    <glyph glyph-name="uni0412" unicode="&#x412;" horiz-adv-x="680" 
d="M549 336q85 -46 85 -139q0 -17 -3 -35q-18 -98 -93.5 -147t-202.5 -49h-320l128 732h255q71 0 127.5 -22.5t88.5 -64.5t32 -100q0 -17 -3 -37q-17 -97 -94 -138zM357 407q46 0 75.5 19t35.5 53q1 4 1 12q0 28 -24.5 44t-75.5 16h-86l-26 -144h100zM459 199q0 30 -25 48.5
t-73 18.5h-128l-27 -152h136q103 0 116 70q1 5 1 15z" />
    <glyph glyph-name="uni0413" unicode="&#x413;" horiz-adv-x="587" 
d="M147 698h508l-26 -151h-338l-102 -581h-171z" />
    <glyph glyph-name="uni0414" unicode="&#x414;" horiz-adv-x="835" 
d="M793 698l-102 -581h105l-69 -323h-148l25 172h-482l-37 -172h-147l46 323h40q46 0 78 22t57 74t50 146l90 339h494zM520 117l76 430h-170l-56 -210q-38 -150 -93 -220h243z" />
    <glyph glyph-name="uni0415" unicode="&#x415;" horiz-adv-x="602" 
d="M143 698h485l-26 -147h-316l-25 -144h284l-25 -146h-284l-27 -147h329l-26 -148h-497z" />
    <glyph glyph-name="uni0416" unicode="&#x416;" horiz-adv-x="1147" 
d="M763 408l233 290h194l-293 -361l171 -371h-193l-126 290h-105l-51 -290h-171l51 290h-95l-232 -290h-203l305 366l-161 366h184l127 -290h102l51 290h171l-52 -290h93z" />
    <glyph glyph-name="uni0417" unicode="&#x417;" horiz-adv-x="601" 
d="M452 335q46 -24 70.5 -62t24.5 -89q0 -22 -4 -41q-17 -95 -93.5 -142.5t-195.5 -47.5q-118 0 -184.5 50t-81.5 141l144 67q21 -107 126 -107q45 0 75.5 19t36.5 57q1 5 1 16q0 74 -137 74h-28l25 138h45q54 0 85.5 21t38.5 58q1 5 1 15q0 26 -18.5 42.5t-55.5 16.5
q-43 0 -78.5 -23.5t-62.5 -67.5l-118 85q41 81 113 119.5t166 38.5q73 0 126.5 -24.5t82 -68t28.5 -98.5q0 -13 -4 -39q-20 -109 -128 -148z" />
    <glyph glyph-name="uni0418" unicode="&#x418;" horiz-adv-x="761" 
d="M629 698h139l-129 -732h-156l78 451l-408 -451h-139l129 732h156l-78 -451z" />
    <glyph glyph-name="uni0419" unicode="&#x419;" horiz-adv-x="761" 
d="M352 795.5q-46 36.5 -46 95.5q0 8 2 26h123q-2 -31 11.5 -50t44.5 -19q28 0 45.5 17t27.5 52h123q-14 -80 -68 -119t-136 -39q-81 0 -127 36.5zM629 698h139l-129 -732h-156l78 451l-408 -451h-139l129 732h156l-78 -451z" />
    <glyph glyph-name="uni041A" unicode="&#x41a;" horiz-adv-x="746" 
d="M355 408l254 290h195l-312 -361l190 -371h-189l-144 290h-114l-51 -290h-170l129 732h170l-51 -290h93z" />
    <glyph glyph-name="uni041B" unicode="&#x41b;" horiz-adv-x="778" 
d="M785 698l-129 -732h-171l102 581h-221l-76 -320q-27 -114 -68 -173t-101 -80t-156 -21l18 156q45 0 72 14.5t43.5 46.5t30.5 90l105 438h551z" />
    <glyph glyph-name="uni041C" unicode="&#x41c;" horiz-adv-x="870" 
d="M747 698h129l-128 -732h-160l72 417l-190 -219h-86l-133 254l-77 -452h-159l128 732h128l177 -353z" />
    <glyph glyph-name="uni041D" unicode="&#x41d;" horiz-adv-x="774" 
d="M263 421h299l49 277h169l-128 -732h-169l53 304h-300l-52 -304h-169l128 732h169z" />
    <glyph glyph-name="uni041E" unicode="&#x41e;" horiz-adv-x="778" 
d="M128.5 550q58.5 79 142.5 120.5t178 41.5q91 0 160.5 -39.5t108 -111.5t38.5 -166q0 -38 -8 -86q-19 -110 -77.5 -190.5t-142 -123t-177.5 -42.5q-91 0 -160.5 40.5t-108 113.5t-38.5 169q0 43 7 85q19 110 77.5 189zM221 279q0 -77 37 -123.5t104 -46.5q49 0 93 26.5
t75 77t42 119.5q6 32 6 60q0 74 -36.5 118.5t-103.5 44.5q-49 0 -93 -25t-75.5 -74t-43.5 -117q-5 -26 -5 -60z" />
    <glyph glyph-name="uni041F" unicode="&#x41f;" horiz-adv-x="773" 
d="M143 698h637l-129 -732h-171l103 581h-296l-103 -581h-170z" />
    <glyph glyph-name="uni0420" unicode="&#x420;" horiz-adv-x="644" 
d="M394 698q83 0 143 -28t91.5 -78.5t31.5 -116.5q0 -21 -5 -51q-19 -109 -101.5 -165.5t-218.5 -56.5h-110l-41 -236h-169l128 732h251zM482 469q0 85 -123 85h-73l-36 -208h82q130 0 148 100q2 16 2 23z" />
    <glyph glyph-name="uni0421" unicode="&#x421;" horiz-adv-x="682" 
d="M299 503q-55 -52 -72 -153q-5 -26 -5 -60q0 -82 40.5 -131t107.5 -49q90 0 147 96l129 -95q-35 -71 -113 -114.5t-175 -43.5q-93 0 -164 42t-110 117t-39 171q0 44 7 85q20 112 77 189.5t138.5 116t173.5 38.5q81 0 139 -28t90 -72.5t40 -94.5l-152 -72q-27 110 -132 110
q-72 0 -127 -52z" />
    <glyph glyph-name="uni0422" unicode="&#x422;" 
d="M78 698h606l-26 -151h-218l-102 -581h-170l101 581h-217z" />
    <glyph glyph-name="uni0423" unicode="&#x423;" horiz-adv-x="701" 
d="M373 356l217 342h184l-351 -531q-49 -74 -86 -117.5t-85 -70t-111 -26.5q-39 0 -72 11t-53 34l25 145q40 -33 97 -33q36 0 63.5 16t57.5 54l-180 518h190z" />
    <glyph glyph-name="uni0424" unicode="&#x424;" horiz-adv-x="866" 
d="M578 623q121 -19 196 -87t75 -173q0 -22 -5 -52q-14 -75 -66.5 -133t-131.5 -93t-171 -46l-13 -73h-165l13 76q-122 18 -196.5 85.5t-74.5 174.5q0 21 5 53q13 75 65.5 132.5t132 93t171.5 45.5l13 72h165zM639.5 432.5q-31.5 28.5 -88.5 38.5l-48 -272q78 16 123 58
t45 102q0 45 -31.5 73.5zM249 233q31 -28 88 -38l48 272q-78 -18 -122.5 -59.5t-44.5 -100.5q0 -46 31 -74z" />
    <glyph glyph-name="uni0425" unicode="&#x425;" horiz-adv-x="728" 
d="M397 477l189 221h205l-317 -361l199 -371h-200l-119 239l-207 -239h-203l334 378l-190 354h198z" />
    <glyph glyph-name="uni0426" unicode="&#x426;" horiz-adv-x="840" 
d="M609 698h171l-103 -581h106l-69 -323h-147l24 172h-577l129 732h170l-102 -581h296z" />
    <glyph glyph-name="uni0427" unicode="&#x427;" horiz-adv-x="726" 
d="M562 698h171l-129 -732h-171l48 271q-67 -42 -165 -42q-115 0 -180.5 56.5t-65.5 168.5q0 34 8 80l34 198h171l-34 -190q-6 -33 -6 -58q0 -52 26 -75.5t81 -23.5q144 0 176 138z" />
    <glyph glyph-name="uni0428" unicode="&#x428;" horiz-adv-x="1048" 
d="M582 117h200l103 581h170l-129 -732h-912l129 732h170l-102 -581h200l103 581h170z" />
    <glyph glyph-name="uni0429" unicode="&#x429;" horiz-adv-x="1114" 
d="M782 117l102 581h171l-102 -581h105l-69 -323h-148l24 172h-851l129 732h170l-102 -581h200l103 581h170l-102 -581h200z" />
    <glyph glyph-name="uni042A" unicode="&#x42a;" horiz-adv-x="824" 
d="M530 433q121 0 188 -58t67 -155q0 -26 -4 -49q-20 -110 -93 -157.5t-203 -47.5h-329l104 585h-204l26 147h374l-47 -265h121zM486 114q50 0 82.5 21.5t39.5 60.5q1 6 1 17q0 33 -26.5 52t-79.5 19h-119l-30 -170h132z" />
    <glyph glyph-name="uni042B" unicode="&#x42b;" horiz-adv-x="980" 
d="M387 433q80 0 137.5 -26.5t87.5 -74t30 -110.5q0 -23 -5 -51q-20 -110 -93 -157.5t-203 -47.5h-327l129 732h171l-47 -265h120zM858 -34h-171l129 732h171zM342 114q57 0 90.5 27t33.5 73q0 33 -26.5 51.5t-79.5 18.5h-119l-30 -170h131z" />
    <glyph glyph-name="uni042C" unicode="&#x42c;" horiz-adv-x="681" 
d="M387 433q120 0 187 -57t67 -155q0 -21 -5 -53q-19 -106 -94 -154t-201 -48h-327l129 732h171l-47 -265h120zM342 114q57 0 90.5 25.5t33.5 72.5q0 33 -27 52.5t-79 19.5h-119l-30 -170h131z" />
    <glyph glyph-name="uni042D" unicode="&#x42d;" horiz-adv-x="684" 
d="M512 671.5q70 -40.5 108.5 -114.5t38.5 -172q0 -40 -8 -90q-19 -109 -73 -186t-132.5 -116.5t-171.5 -39.5q-80 0 -140.5 28t-96 73t-43.5 94l152 72q12 -50 47.5 -80t88.5 -30q61 0 108.5 38.5t71.5 109.5h-229l24 139h225q-4 75 -43 116.5t-101 41.5q-94 0 -150 -96
l-130 95q35 71 114 114.5t178 43.5q92 0 162 -40.5z" />
    <glyph glyph-name="uni042E" unicode="&#x42e;" horiz-adv-x="1073" 
d="M909 673.5q67 -38.5 104 -110t37 -168.5q0 -45 -9 -96q-21 -117 -76.5 -194.5t-132.5 -114.5t-162 -37q-89 0 -156.5 38t-104 109.5t-35.5 169.5h-138l-52 -304h-169l128 732h169l-49 -277h132q27 97 82.5 162.5t127 97t149.5 31.5q88 0 155 -38.5zM872 395
q0 74 -32.5 117t-92.5 43q-67 0 -119.5 -53.5t-71.5 -160.5q-7 -36 -7 -72q0 -75 33.5 -117.5t94.5 -42.5q67 0 118 52.5t70 160.5q7 36 7 73z" />
    <glyph glyph-name="uni042F" unicode="&#x42f;" horiz-adv-x="687" 
d="M694 698l-129 -732h-171l44 248h-66q-19 0 -28 1l-206 -248l-208 -1l254 293q-47 29 -71.5 74t-24.5 101q0 27 4 48q19 103 103 159.5t212 56.5h287zM463 357l35 197h-76q-135 0 -152 -95q-2 -14 -2 -20q0 -41 35 -61.5t93 -20.5h67z" />
    <glyph glyph-name="uni0430" unicode="&#x430;" horiz-adv-x="622" 
d="M611 483l-91 -517h-141q4 33 6 65q-64 -78 -159 -78q-61 0 -108 29t-73 81.5t-26 120.5q0 33 6 67q14 83 54 138.5t94.5 81.5t114.5 26q56 0 95.5 -23t59.5 -68q12 32 23 77h145zM357 118q35 28 45 91q3 20 3 37q0 51 -26 79.5t-69 28.5q-44 0 -77 -30t-44 -89
q-3 -18 -3 -36q0 -49 24.5 -79t68.5 -30q43 0 78 28z" />
    <glyph glyph-name="uni0431" unicode="&#x431;" horiz-adv-x="587" 
d="M225 445q59 36 128 36q91 0 145 -59.5t54 -159.5q0 -32 -6 -68q-21 -120 -100.5 -180.5t-187.5 -60.5q-106 0 -168 65.5t-62 198.5q0 55 12 124q38 224 157 324q53 38 110 48t138 11q52 1 83 4.5t55 15.5l-17 -145q-21 -12 -47 -15t-72 -4q-56 0 -91 -5.5t-63 -28.5
q-39 -24 -68 -101zM231 310.5q-35 -33.5 -46 -92.5q-3 -16 -3 -33q0 -43 20.5 -69.5t59.5 -26.5q42 0 74.5 32t43.5 92q4 19 4 40q0 41 -18.5 66t-55.5 25q-44 0 -79 -33.5z" />
    <glyph glyph-name="uni0432" unicode="&#x432;" horiz-adv-x="544" 
d="M435 225q64 -34 64 -99q0 -7 -2 -23q-25 -137 -225 -137h-271l92 517h228q84 0 138 -36.5t54 -99.5q0 -7 -2 -23q-13 -72 -76 -99zM232 365l-15 -81h59q35 0 53.5 12.5t18.5 34.5q0 15 -15 24.5t-46 9.5h-55zM260 84q40 0 58.5 12.5t18.5 37.5q0 37 -67 37h-73l-16 -87
h79z" />
    <glyph glyph-name="uni0433" unicode="&#x433;" horiz-adv-x="453" 
d="M94 483h391l-25 -136h-227l-68 -381h-163z" />
    <glyph glyph-name="uni0434" unicode="&#x434;" horiz-adv-x="665" 
d="M601 483l-69 -391h92l-64 -298h-140l23 167h-337l-35 -167h-142l41 298h36q41 0 68 25.5t47.5 77.5t46.5 148l38 140h395zM373 92l46 260h-93l-10 -41q-20 -79 -38.5 -131.5t-40.5 -87.5h136z" />
    <glyph glyph-name="uni0435" unicode="&#x435;" horiz-adv-x="533" 
d="M331.5 105.5q28.5 17.5 46.5 47.5l108 -82q-31 -58 -95 -88t-137 -30q-65 0 -118.5 28t-85 81t-31.5 125q0 33 5 59q15 86 61 142.5t109 82.5t132 26q65 0 109.5 -22t66.5 -58.5t22 -81.5q0 -78 -67 -118t-196 -40q-37 0 -81 3q3 -43 27 -67.5t63 -24.5q33 0 61.5 17.5z
M251 347q-30 -20 -49 -57q36 -3 63 -3q52 0 76 11.5t24 34.5q0 34 -48 34q-36 0 -66 -20z" />
    <glyph glyph-name="uni0436" unicode="&#x436;" horiz-adv-x="918" 
d="M593 292l165 191h175l-217 -251l123 -266h-174l-82 190h-62l-34 -190h-163l33 190h-50l-151 -190h-188l219 265l-122 252h168l92 -191h57l34 191h163l-34 -191h48z" />
    <glyph glyph-name="uni0437" unicode="&#x437;" horiz-adv-x="494" 
d="M436 277.5q-27 -30.5 -84 -45.5q43 -15 64.5 -45.5t21.5 -70.5q0 -78 -65 -120.5t-171 -42.5q-98 0 -159.5 37.5t-82.5 101.5l125 61q14 -32 41 -50t74 -18q32 0 53 10t21 30q0 39 -99 39h-44l23 125h35q54 0 79 10t25 32q0 15 -15.5 24.5t-44.5 9.5q-57 0 -92 -39
l-112 84q76 87 222 87q101 0 156.5 -39t55.5 -101q0 -49 -27 -79.5z" />
    <glyph glyph-name="uni0438" unicode="&#x438;" horiz-adv-x="622" 
d="M254 483l-49 -275l267 275h132l-92 -517h-160l48 277l-267 -277h-132l92 517h161z" />
    <glyph glyph-name="uni0439" unicode="&#x439;" horiz-adv-x="622" 
d="M246 583q-46 38 -46 102q0 15 3 30h123q-3 -34 10.5 -54t44.5 -20q28 0 46 18t29 56h122q-15 -85 -69 -127.5t-137 -42.5q-80 0 -126 38zM254 483l-49 -275l267 275h132l-92 -517h-160l48 277l-267 -277h-132l92 517h161z" />
    <glyph glyph-name="uni043A" unicode="&#x43a;" horiz-adv-x="610" 
d="M270 292l175 191h180l-229 -251l135 -266h-179l-90 190h-63l-34 -190h-163l92 517h163l-33 -191h46z" />
    <glyph glyph-name="uni043B" unicode="&#x43b;" horiz-adv-x="613" 
d="M596 483l-92 -517h-163l67 380h-119l-33 -144q-25 -104 -59 -157t-86.5 -72.5t-141.5 -19.5l18 156q54 0 79.5 29t42.5 97l59 248h428z" />
    <glyph glyph-name="uni043C" unicode="&#x43c;" horiz-adv-x="707" 
d="M560 483h130l-92 -517h-147l45 259l-143 -163h-61l-97 175l-47 -271h-147l92 517h126l129 -243z" />
    <glyph glyph-name="uni043D" unicode="&#x43d;" horiz-adv-x="610" 
d="M224 297h173l33 186h163l-92 -517h-163l34 195h-173l-35 -195h-163l92 517h163z" />
    <glyph glyph-name="uni043E" unicode="&#x43e;" horiz-adv-x="592" 
d="M82.5 387q44.5 55 105.5 82.5t126 27.5q70 0 125.5 -30.5t86.5 -86t31 -125.5q0 -24 -5 -56q-13 -80 -57 -135.5t-105 -83t-125 -27.5q-71 0 -126.5 30.5t-87 85t-31.5 125.5q0 33 5 58q13 80 57.5 135zM184 199q0 -47 23 -76.5t63 -29.5q42 0 74 30.5t43 91.5q4 26 4 38
q0 47 -22.5 76t-62.5 29q-41 0 -74 -31t-44 -91q-4 -26 -4 -37z" />
    <glyph glyph-name="uni043F" unicode="&#x43f;" horiz-adv-x="610" 
d="M93 483h500l-92 -517h-163l67 381h-173l-68 -381h-163z" />
    <glyph glyph-name="uni0440" unicode="&#x440;" horiz-adv-x="628" 
d="M494 468q47 -29 73.5 -81.5t26.5 -121.5q0 -31 -6 -66q-14 -83 -54 -138t-95 -81.5t-114 -26.5q-106 0 -150 79l-53 -309h-162l133 760h142q-4 -32 -6 -62q33 39 73.5 57.5t83.5 18.5q61 0 108 -29zM380 126.5q33 30.5 43 88.5q3 20 3 37q0 49 -24 78.5t-68 29.5
q-42 0 -77.5 -29.5t-45.5 -92.5q-4 -26 -4 -37q0 -48 27 -76.5t69 -28.5q44 0 77 30.5z" />
    <glyph glyph-name="uni0441" unicode="&#x441;" horiz-adv-x="495" 
d="M359 145l113 -83q-30 -57 -88 -83t-122 -26q-68 0 -123.5 28t-87.5 82t-32 129q0 29 6 62q15 84 60.5 138.5t106.5 79.5t125 25q80 0 134 -37.5t66 -98.5l-130 -61q-11 27 -29.5 42t-49.5 15q-44 0 -76.5 -31.5t-42.5 -88.5q-4 -19 -4 -40q0 -46 22.5 -74.5t62.5 -28.5
q54 0 89 51z" />
    <glyph glyph-name="uni0442" unicode="&#x442;" horiz-adv-x="506" 
d="M18 347l25 136h497l-25 -136h-167l-68 -381h-163l68 381h-167z" />
    <glyph glyph-name="uni0443" unicode="&#x443;" horiz-adv-x="576" 
d="M440 483h177l-321 -569q-59 -104 -127 -153.5t-152 -49.5q-49 0 -86 14t-61 39l72 117q30 -27 76 -27q38 0 71.5 26t75.5 88l-131 515h172l66 -326z" />
    <glyph glyph-name="uni0444" unicode="&#x444;" horiz-adv-x="789" 
d="M514 489q108 -20 174.5 -81t66.5 -156q0 -19 -3 -39q-16 -116 -107.5 -181.5t-225.5 -76.5l-41 -232h-156l43 240q-110 21 -178 81.5t-68 153.5q0 20 3 39q16 114 109.5 179.5t227.5 77.5l30 175h156zM183 203q0 -41 27 -68.5t77 -38.5l46 258q-64 -13 -103 -48t-46 -87
q-1 -6 -1 -16zM590 248q0 41 -26.5 68t-74.5 38l-46 -261q64 12 101.5 48t44.5 90q1 6 1 17z" />
    <glyph glyph-name="uni0445" unicode="&#x445;" horiz-adv-x="545" 
d="M281 346l123 137h183l-239 -263l144 -254h-173l-71 139l-121 -139h-184l238 264l-143 253h174z" />
    <glyph glyph-name="uni0446" unicode="&#x446;" horiz-adv-x="664" 
d="M593 483l-68 -381h100l-66 -308h-140l24 172h-442l92 517h163l-67 -381h173l68 381h163z" />
    <glyph glyph-name="uni0447" unicode="&#x447;" horiz-adv-x="600" 
d="M420 483h163l-92 -517h-163l29 162q-50 -34 -126 -34q-84 0 -134.5 40.5t-50.5 116.5q0 23 4 44l34 188h165l-28 -158q-3 -16 -3 -29q0 -29 15 -44t48 -15q46 0 75 27t38 72z" />
    <glyph glyph-name="uni0448" unicode="&#x448;" horiz-adv-x="834" 
d="M467 102h125l67 381h158l-92 -517h-724l92 517h158l-67 -381h125l67 381h158z" />
    <glyph glyph-name="uni0449" unicode="&#x449;" horiz-adv-x="888" 
d="M659 483h158l-67 -381h100l-66 -308h-140l24 172h-667l92 517h158l-67 -381h125l67 381h158l-67 -381h125z" />
    <glyph glyph-name="uni044A" unicode="&#x44a;" horiz-adv-x="690" 
d="M449 316q92 0 145.5 -42.5t53.5 -116.5q0 -17 -3 -35q-15 -81 -73 -118.5t-161 -37.5h-283l68 381h-173l25 136h342l-29 -167h88zM395 92q44 0 64 14.5t20 42.5q0 42 -69 42h-72l-18 -99h75z" />
    <glyph glyph-name="uni044B" unicode="&#x44b;" horiz-adv-x="840" 
d="M321 316q92 0 145.5 -42.5t53.5 -116.5q0 -17 -3 -35q-15 -81 -73 -118.5t-161 -37.5h-282l92 517h170l-29 -167h87zM731 -34h-170l92 517h170zM267 92q40 0 59.5 12t24.5 35q7 52 -69 52h-71l-18 -99h74z" />
    <glyph glyph-name="uni044C" unicode="&#x44c;" horiz-adv-x="562" 
d="M321 316q92 0 145.5 -42.5t53.5 -116.5q0 -17 -3 -35q-15 -81 -73 -118.5t-161 -37.5h-282l92 517h170l-29 -167h87zM267 92q40 0 59.5 12t24.5 35q7 52 -69 52h-71l-18 -99h74z" />
    <glyph glyph-name="uni044D" unicode="&#x44d;" horiz-adv-x="507" 
d="M348.5 469q55.5 -28 88.5 -81.5t33 -127.5q0 -29 -6 -62q-22 -127 -98.5 -186t-180.5 -59q-87 0 -147.5 37.5t-71.5 100.5l122 56q28 -63 96 -63q81 0 109 83h-151l22 121h143q-5 37 -27.5 58t-59.5 21q-28 0 -52.5 -12.5t-42.5 -38.5l-105 74q30 56 87 81.5t119 25.5
q67 0 122.5 -28z" />
    <glyph glyph-name="uni044E" unicode="&#x44e;" horiz-adv-x="832" 
d="M690 468.5q51 -28.5 79.5 -81t28.5 -123.5q0 -30 -6 -65q-15 -82 -56.5 -137.5t-98.5 -82t-118 -26.5q-93 0 -154.5 57t-68.5 154h-96l-36 -198h-163l92 517h163l-32 -183h90q31 97 103 147t157 50q65 0 116 -28.5zM635 268q0 43 -17 66.5t-50 23.5q-36 0 -65.5 -31.5
t-41.5 -96.5q-4 -21 -4 -45q0 -43 17 -67.5t50 -24.5q36 0 65.5 31.5t40.5 96.5q5 28 5 47z" />
    <glyph glyph-name="uni044F" unicode="&#x44f;" horiz-adv-x="589" 
d="M572 483l-92 -517h-163l29 164h-63l-141 -163l-189 -1l180 197q-34 21 -51.5 54.5t-17.5 74.5q0 17 3 35q14 75 75.5 115.5t163.5 40.5h266zM369 260l17 93h-80q-64 0 -74 -45q-1 -4 -1 -11q0 -18 15.5 -27.5t41.5 -9.5h81z" />
    <glyph glyph-name="uni0450" unicode="&#x450;" horiz-adv-x="533" 
d="M271 545l-100 170h157l64 -170h-121zM331.5 105.5q28.5 17.5 46.5 47.5l108 -82q-31 -58 -95 -88t-137 -30q-65 0 -118.5 28t-85 81t-31.5 125q0 33 5 59q15 86 61 142.5t109 82.5t132 26q65 0 109.5 -22t66.5 -58.5t22 -81.5q0 -78 -67 -118t-196 -40q-37 0 -81 3
q3 -43 27 -67.5t63 -24.5q33 0 61.5 17.5zM251 347q-30 -20 -49 -57q36 -3 63 -3q52 0 76 11.5t24 34.5q0 34 -48 34q-36 0 -66 -20z" />
    <glyph glyph-name="uni0451" unicode="&#x451;" horiz-adv-x="533" 
d="M162 569.5q-24 25.5 -24 60.5t24 60t58 25q36 0 60 -25t24 -60q0 -36 -24 -61t-60 -25q-34 0 -58 25.5zM394 569.5q-24 25.5 -24 60.5t24 60t59 25q34 0 59 -25t25 -60t-25 -60.5t-59 -25.5q-35 0 -59 25.5zM331.5 105.5q28.5 17.5 46.5 47.5l108 -82q-31 -58 -95 -88
t-137 -30q-65 0 -118.5 28t-85 81t-31.5 125q0 33 5 59q15 86 61 142.5t109 82.5t132 26q65 0 109.5 -22t66.5 -58.5t22 -81.5q0 -78 -67 -118t-196 -40q-37 0 -81 3q3 -43 27 -67.5t63 -24.5q33 0 61.5 17.5zM251 347q-30 -20 -49 -57q36 -3 63 -3q52 0 76 11.5t24 34.5
q0 34 -48 34q-36 0 -66 -20z" />
    <glyph glyph-name="uni0452" unicode="&#x452;" horiz-adv-x="615" 
d="M526 451.5q44 -45.5 44 -134.5q0 -32 -6 -70l-56 -313q-20 -118 -82.5 -170.5t-148.5 -52.5q-93 0 -146 57l74 107q21 -25 58 -25q39 0 58.5 28t29.5 82l44 256q5 30 5 55q0 83 -62 83q-40 0 -71 -31t-43 -86l-48 -271h-162l100 566h-68l19 111h68l15 84h162l-15 -84h138
l-19 -111h-139l-17 -98q30 31 69.5 47t80.5 16q74 0 118 -45.5z" />
    <glyph glyph-name="uni0453" unicode="&#x453;" horiz-adv-x="452" 
d="M362 547h-129l124 170h164zM93 483h391l-25 -136h-227l-68 -381h-163z" />
    <glyph glyph-name="uni0454" unicode="&#x454;" horiz-adv-x="495" 
d="M363 139l109 -77q-30 -57 -87.5 -83t-121.5 -26q-68 0 -123.5 28t-88 82t-32.5 129q0 29 6 62q15 84 60.5 138.5t106.5 79.5t125 25q80 0 134 -37.5t66 -98.5l-124 -56q-11 29 -30.5 45.5t-52.5 16.5q-37 0 -66 -19.5t-45 -59.5h149l-21 -121h-144q5 -39 27.5 -61.5
t58.5 -22.5q59 0 94 56z" />
    <glyph glyph-name="uni0455" unicode="&#x455;" horiz-adv-x="463" 
d="M350.5 -10.5q-57.5 -36.5 -144.5 -36.5q-92 0 -152.5 44t-72.5 117l123 54q10 -42 36.5 -63.5t66.5 -21.5q51 0 51 32q0 18 -19 30.5t-63 30.5t-72.5 34t-49.5 43t-21 65q0 7 2 25q13 75 76 114.5t145 39.5q57 0 100.5 -19.5t68.5 -52.5t29 -71l-124 -55q-9 32 -31 50
t-53 18q-21 0 -34 -8.5t-13 -24.5t18 -27.5t58 -27.5q45 -18 75 -35.5t52 -46t22 -70.5q0 -14 -3 -29q-13 -72 -70.5 -108.5z" />
    <glyph glyph-name="uni0456" unicode="&#x456;" horiz-adv-x="277" 
d="M136.5 566q-27.5 29 -27.5 68q0 40 27.5 68.5t65.5 28.5q39 0 67 -28.5t28 -68.5q0 -39 -28 -68t-67 -29q-38 0 -65.5 29zM168 -34h-161l91 517h161z" />
    <glyph glyph-name="uni0457" unicode="&#x457;" horiz-adv-x="281" 
d="M53 569.5q-24 25.5 -24 60.5t24 60t58 25q36 0 60.5 -25t24.5 -60t-24.5 -60.5t-60.5 -25.5q-34 0 -58 25.5zM236 570q-24 26 -24 60q0 35 24 60t59 25q34 0 58.5 -25t24.5 -60t-24.5 -60.5t-58.5 -25.5q-35 0 -59 26zM6 -34l92 517h161l-92 -517h-161z" />
    <glyph glyph-name="uni0458" unicode="&#x458;" horiz-adv-x="272" 
d="M131.5 564q-24.5 26 -24.5 64q0 41 30 72t69 31q37 0 62 -25.5t25 -63.5q0 -5 -2 -19q-5 -35 -34 -60t-65 -25t-60.5 26zM-170.5 -272.5q-39.5 16.5 -60.5 44.5l76 111q27 -33 68 -33q36 0 57.5 28t31.5 86l91 519h163l-96 -547q-20 -118 -85 -171.5t-154 -53.5
q-52 0 -91.5 16.5z" />
    <glyph glyph-name="uni0459" unicode="&#x459;" horiz-adv-x="895" 
d="M654 316q92 0 145 -42.5t53 -115.5q0 -16 -3 -36q-14 -81 -72 -118.5t-161 -37.5h-275l67 380h-119l-33 -144q-25 -104 -59 -157t-86.5 -72.5t-141.5 -19.5l18 156q54 0 79.5 29t42.5 97l59 248h428l-30 -167h88zM600 92q44 0 64 14.5t20 42.5q0 42 -70 42h-70l-18 -99
h74z" />
    <glyph glyph-name="uni045A" unicode="&#x45a;" horiz-adv-x="891" 
d="M650 310q92 0 145.5 -42t53.5 -114q0 -16 -3 -34q-14 -80 -72 -117t-161 -37h-275l36 208h-173l-37 -208h-163l92 517h163l-30 -173h173l31 173h163l-31 -173h88zM597 90q39 0 58.5 11.5t24.5 34.5q7 50 -69 50h-71l-17 -96h74z" />
    <glyph glyph-name="uni045B" unicode="&#x45b;" horiz-adv-x="616" 
d="M526 451.5q44 -45.5 44 -134.5q0 -32 -6 -70l-50 -281h-162l43 250q5 30 5 55q0 83 -62 83q-40 0 -71 -31t-43 -86l-48 -271h-162l100 566h-68l19 111h68l15 84h162l-15 -84h138l-19 -111h-139l-17 -98q30 31 69.5 47t80.5 16q74 0 118 -45.5z" />
    <glyph glyph-name="uni045C" unicode="&#x45c;" horiz-adv-x="610" 
d="M416 545h-129l124 170h164zM270 292l175 191h180l-229 -251l135 -266h-179l-90 190h-63l-34 -190h-163l92 517h163l-33 -191h46z" />
    <glyph glyph-name="uni045D" unicode="&#x45d;" horiz-adv-x="622" 
d="M308 545l-99 170h156l64 -170h-121zM254 483l-49 -275l267 275h132l-92 -517h-160l48 277l-267 -277h-132l92 517h161z" />
    <glyph glyph-name="uni045E" unicode="&#x45e;" horiz-adv-x="576" 
d="M220 583q-46 38 -46 102q0 15 3 30h122q-2 -34 11 -54t45 -20q28 0 46 18t29 56h122q-15 -85 -69.5 -127.5t-136.5 -42.5q-80 0 -126 38zM440 483h177l-321 -569q-59 -104 -127 -153.5t-152 -49.5q-49 0 -86 14t-61 39l72 117q30 -27 76 -27q38 0 71.5 26t75.5 88
l-131 515h172l66 -326z" />
    <glyph glyph-name="uni045F" unicode="&#x45f;" horiz-adv-x="610" 
d="M189 102h173l68 381h163l-92 -517h-173l-37 -172h-141l25 172h-174l92 517h163z" />
    <glyph glyph-name="uni0462" unicode="&#x462;" horiz-adv-x="774" 
d="M469 399q126 0 194 -51t68 -142q0 -21 -5 -49q-18 -104 -94 -147.5t-202 -43.5h-325l91 516h-164l23 129h164l16 87h170l-15 -87h226l-23 -129h-226l-15 -83h117zM435 107q54 0 86.5 22t32.5 66q0 33 -27.5 51t-80.5 18h-118l-28 -157h135z" />
    <glyph glyph-name="uni0463" unicode="&#x463;" horiz-adv-x="627" 
d="M385 307q92 0 145.5 -42t53.5 -113q0 -16 -3 -34q-15 -79 -72.5 -115.5t-160.5 -36.5h-282l70 399h-116l21 118h116l43 244h171l-43 -244h159l-21 -118h-159l-11 -58h89zM331 88q40 0 59.5 11.5t24.5 34.5q3 24 -12.5 37.5t-56.5 13.5h-71l-17 -97h73z" />
    <glyph glyph-name="uni046B" unicode="&#x46b;" horiz-adv-x="705" 
d="M477 263q75 -9 115 -60t40 -142q0 -42 -9 -95h-148q9 50 9 83q0 49 -20 70t-61 21l-31 -174h-148l31 174q-103 -8 -133 -174h-148q26 149 89 220t166 79l-133 218h592zM429 372h-120l47 -80z" />
    <glyph glyph-name="uni0472" unicode="&#x472;" horiz-adv-x="778" 
d="M609.5 672.5q69.5 -39.5 108 -111.5t38.5 -166q0 -38 -8 -86q-19 -110 -77.5 -190.5t-142 -123t-177.5 -42.5q-91 0 -160.5 40.5t-108 113.5t-38.5 169q0 43 7 85q19 110 77.5 189t142.5 120.5t178 41.5q91 0 160.5 -39.5zM324 516q-52 -39 -80 -110h334q-4 69 -40 109
t-100 40q-62 0 -114 -39zM474.5 149.5q51.5 40.5 78.5 112.5h-331q4 -70 40.5 -111.5t99.5 -41.5q61 0 112.5 40.5z" />
    <glyph glyph-name="uni0473" unicode="&#x473;" horiz-adv-x="592" 
d="M439.5 466.5q55.5 -30.5 86.5 -86t31 -125.5q0 -24 -5 -56q-13 -80 -57 -135.5t-105 -83t-125 -27.5q-71 0 -126.5 30.5t-87 85t-31.5 125.5q0 33 5 58q13 80 57.5 135t105.5 82.5t126 27.5q70 0 125.5 -30.5zM246 344.5q-28 -20.5 -44 -59.5h186q-6 37 -27.5 58.5
t-54.5 21.5q-32 0 -60 -20.5zM333 108q29 22 44 66h-190q5 -40 27 -64t56 -24t63 22z" />
    <glyph glyph-name="uni0474" unicode="&#x474;" horiz-adv-x="807" 
d="M839 699q29 -13 55 -35l-69 -126q-18 17 -47 17q-28 0 -50.5 -18.5t-45.5 -60.5l-301 -510h-132l-170 732h192l93 -474l160 298q61 110 116 150t123 40q47 0 76 -13z" />
    <glyph glyph-name="uni0475" unicode="&#x475;" horiz-adv-x="633" 
d="M672 449l-61 -109q-14 18 -36 18q-26 0 -47 -18t-40 -52l-197 -321h-133l-121 516h178l52 -307l93 172q34 60 63.5 92.5t59 44.5t67.5 12q79 0 122 -48z" />
    <glyph glyph-name="uni0490" unicode="&#x490;" horiz-adv-x="569" 
d="M143 698h338l49 155h148l-74 -306h-317l-103 -581h-170z" />
    <glyph glyph-name="uni0491" unicode="&#x491;" horiz-adv-x="459" 
d="M93 483h266l44 130h140l-67 -266h-244l-68 -381h-163z" />
    <glyph glyph-name="uni0492" unicode="&#x492;" horiz-adv-x="568" 
d="M147 698h490l-26 -149h-320l-28 -160h126l-25 -148h-127l-48 -275h-171l48 275h-75l26 148h76z" />
    <glyph glyph-name="uni0493" unicode="&#x493;" horiz-adv-x="495" 
d="M130 483h400l-24 -136h-238l-15 -83h130l-24 -136h-129l-29 -162h-163l29 162h-80l24 136h79z" />
    <glyph glyph-name="uni0497" unicode="&#x497;" horiz-adv-x="864" 
d="M730 483h175l-217 -251l61 -130h118l-66 -308h-141l25 172h-48l-82 190h-62l-34 -190h-163l34 190h-51l-151 -190h-188l220 265l-123 252h168l92 -191h57l34 191h163l-34 -191h48z" />
    <glyph glyph-name="uni049A" unicode="&#x49a;" horiz-adv-x="734" 
d="M609 698h195l-312 -361l113 -220h129l-69 -323h-148l24 172h-48l-144 290h-114l-51 -290h-170l129 732h170l-51 -290h93z" />
    <glyph glyph-name="uni049B" unicode="&#x49b;" horiz-adv-x="612" 
d="M444 483h180l-229 -251l67 -130h122l-66 -308h-140l24 172h-51l-90 190h-63l-34 -190h-163l92 517h163l-33 -191h46z" />
    <glyph glyph-name="uni049C" unicode="&#x49c;" horiz-adv-x="744" 
d="M421 408l219 290h175l-269 -362l147 -370h-177l-109 290h-30l-24 -136h-110l24 136h-45l-51 -290h-157l129 732h157l-51 -290h44l24 136h111l-24 -136h17z" />
    <glyph glyph-name="uni049D" unicode="&#x49d;" horiz-adv-x="600" 
d="M347 292l143 191h159l-187 -251l95 -266h-157l-66 190h-20l-15 -90h-101l15 90h-26l-34 -190h-152l92 517h152l-34 -191h27l15 90h101l-15 -90h8z" />
    <glyph glyph-name="uni04A2" unicode="&#x4a2;" horiz-adv-x="847" 
d="M616 698h171l-103 -581h106l-69 -323h-148l25 172h-111l54 304h-303l-54 -304h-170l129 732h170l-48 -277h302z" />
    <glyph glyph-name="uni04A3" unicode="&#x4a3;" horiz-adv-x="677" 
d="M593 483l-68 -381h102l-67 -308h-140l24 172h-106l34 195h-173l-35 -195h-163l92 517h163l-32 -186h173l33 186h163z" />
    <glyph glyph-name="uni04AE" unicode="&#x4ae;" horiz-adv-x="694" 
d="M375 411l202 287h190l-334 -457l-49 -275h-170l48 282l-183 450h190z" />
    <glyph glyph-name="uni04AF" unicode="&#x4af;" horiz-adv-x="577" 
d="M279 170l163 313h176l-287 -480l-49 -280h-163l50 280l-132 480h172z" />
    <glyph glyph-name="uni04B0" unicode="&#x4b0;" horiz-adv-x="694" 
d="M375 411l202 287h190l-252 -345h132l-26 -151h-195l-42 -236h-170l41 236h-191l26 151h130l-141 345h190z" />
    <glyph glyph-name="uni04B1" unicode="&#x4b1;" horiz-adv-x="577" 
d="M279 170l163 313h176l-227 -381h124l-25 -136h-165l-43 -243h-163l43 243h-162l24 136h117l-104 381h172z" />
    <glyph glyph-name="uni04B2" unicode="&#x4b2;" horiz-adv-x="731" 
d="M587 698h204l-319 -358l119 -223h127l-69 -323h-148l25 172h-53l-117 237l-209 -237h-203l335 376l-191 356h197l110 -219z" />
    <glyph glyph-name="uni04B3" unicode="&#x4b3;" horiz-adv-x="572" 
d="M404 483h183l-239 -263l67 -118h128l-66 -308h-141l25 172h-38l-73 141l-123 -141h-184l238 264l-143 253h170l71 -140z" />
    <glyph glyph-name="uni04B8" unicode="&#x4b8;" horiz-adv-x="726" 
d="M567 698h166l-129 -732h-171l48 270q-39 -24 -88 -33l-23 -133h-111l22 126q-100 9 -155 64.5t-55 159.5q0 39 7 80l34 198h166l-33 -190q-6 -33 -6 -58q0 -42 17.5 -65t53.5 -30l24 138h110l-23 -131q90 27 111 141z" />
    <glyph glyph-name="uni04B9" unicode="&#x4b9;" horiz-adv-x="621" 
d="M447 483h157l-92 -517h-163l28 165q-21 -16 -43 -23l-17 -93h-110l14 80q-81 4 -128.5 43t-47.5 107q0 18 3 37l36 201h158l-28 -158q-3 -18 -3 -32q0 -21 8.5 -33.5t27.5 -17.5l18 104h111l-17 -96q50 23 62 87z" />
    <glyph glyph-name="uni04BA" unicode="&#x4ba;" horiz-adv-x="726" 
d="M185 -34h-171l129 732h171l-48 -271q68 42 165 42q115 0 180.5 -56.5t65.5 -168.5q0 -34 -8 -80l-34 -198h-171l34 190q6 33 6 58q0 52 -26 75.5t-81 23.5q-144 0 -176 -138z" />
    <glyph glyph-name="uni04BB" unicode="&#x4bb;" horiz-adv-x="604" 
d="M514 451.5q44 -45.5 44 -134.5q0 -32 -6 -70l-50 -281h-162l43 250q5 30 5 55q0 83 -62 83q-40 0 -71 -31t-43 -86l-48 -271h-162l134 761h162l-52 -293q30 31 69.5 47t80.5 16q74 0 118 -45.5z" />
    <glyph glyph-name="uni04CA" unicode="&#x4ca;" horiz-adv-x="677" 
d="M593 483l-68 -381h111l-154 -308h-152l73 172h-65l34 195h-173l-35 -195h-163l92 517h163l-32 -186h173l33 186h163z" />
    <glyph glyph-name="uni04D8" unicode="&#x4d8;" horiz-adv-x="741" 
d="M566 673q71 -39 110.5 -112t39.5 -173q0 -49 -8 -92q-32 -178 -141.5 -260.5t-260.5 -82.5q-131 0 -206.5 56t-75.5 155q0 118 92 176t268 58q71 0 155 -9q2 81 -34.5 124.5t-112.5 43.5q-56 0 -100.5 -24.5t-75.5 -72.5l-114 97q44 78 126 116.5t176 38.5q91 0 162 -39z
M440.5 142q48.5 38 73.5 106q-88 10 -139 10q-174 0 -174 -83q0 -71 119 -71q72 0 120.5 38z" />
    <glyph glyph-name="uni04D9" unicode="&#x4d9;" horiz-adv-x="532" 
d="M186.5 346.5q-28.5 -17.5 -46.5 -47.5l-108 82q31 58 95 88t137 30q65 0 118.5 -28t85 -81t31.5 -125q0 -33 -5 -59q-15 -86 -61 -142.5t-109 -82.5t-132 -26q-65 0 -109.5 22t-66.5 58.5t-22 81.5q0 78 67 118t196 40q38 0 81 -3q-3 43 -27 67.5t-63 24.5
q-33 0 -61.5 -17.5zM267 105q30 20 48 57q-36 3 -63 3q-51 0 -75 -11.5t-24 -34.5q0 -34 48 -34q36 0 66 20z" />
    <glyph glyph-name="uni04E8" unicode="&#x4e8;" horiz-adv-x="778" 
d="M609.5 672.5q69.5 -39.5 108 -111.5t38.5 -166q0 -38 -8 -86q-19 -110 -77.5 -190.5t-142 -123t-177.5 -42.5q-91 0 -160.5 40.5t-108 113.5t-38.5 169q0 43 7 85q19 110 77.5 189t142.5 120.5t178 41.5q91 0 160.5 -39.5zM324 516q-52 -39 -80 -110h334q-4 69 -40 109
t-100 40q-62 0 -114 -39zM474.5 149.5q51.5 40.5 78.5 112.5h-331q4 -70 40.5 -111.5t99.5 -41.5q61 0 112.5 40.5z" />
    <glyph glyph-name="uni04E9" unicode="&#x4e9;" horiz-adv-x="592" 
d="M439.5 466.5q55.5 -30.5 86.5 -86t31 -125.5q0 -24 -5 -56q-13 -80 -57 -135.5t-105 -83t-125 -27.5q-71 0 -126.5 30.5t-87 85t-31.5 125.5q0 33 5 58q13 80 57.5 135t105.5 82.5t126 27.5q70 0 125.5 -30.5zM246 344.5q-28 -20.5 -44 -59.5h186q-6 37 -27.5 58.5
t-54.5 21.5q-32 0 -60 -20.5zM333 108q29 22 44 66h-190q5 -40 27 -64t56 -24t63 22z" />
    <glyph glyph-name="uni1E00" unicode="&#x1e00;" horiz-adv-x="743" 
d="M519 698l167 -732h-173l-29 148h-278l-80 -148h-177l419 732h151zM454 257l-46 228l-124 -228h170zM223.5 -96q35.5 31 89.5 31q55 0 90 -31t35 -81q0 -51 -35 -81.5t-90 -30.5q-54 0 -89.5 30.5t-35.5 81.5q0 50 35.5 81zM282 -204.5q12 -10.5 31 -10.5t31 10.5t12 27.5
t-11.5 27.5t-31.5 10.5t-31.5 -10.5t-11.5 -27.5t12 -27.5z" />
    <glyph glyph-name="uni1E01" unicode="&#x1e01;" horiz-adv-x="630" 
d="M611 483l-91 -517h-141q4 33 6 65q-64 -78 -159 -78q-61 0 -108 29t-73 81.5t-26 120.5q0 33 6 67q14 83 54 138.5t94.5 81.5t114.5 26q56 0 95.5 -23t59.5 -68q12 32 23 77h145zM357 118q35 28 45 91q3 20 3 37q0 51 -26 79.5t-69 28.5q-44 0 -77 -30t-44 -89
q-3 -18 -3 -36q0 -49 24.5 -79t68.5 -30q43 0 78 28zM166 -96q36 31 90 31t89 -31t35 -81q0 -51 -35 -81.5t-89 -30.5t-90 30.5t-36 81.5q0 50 36 81zM224.5 -204.5q11.5 -10.5 31.5 -10.5q19 0 30.5 10.5t11.5 27.5t-11.5 27.5t-30.5 10.5q-20 0 -31.5 -10.5t-11.5 -27.5
t11.5 -27.5z" />
    <glyph glyph-name="uni1E3E" unicode="&#x1e3e;" horiz-adv-x="870" 
d="M593 761h-135l125 156h171zM747 698h129l-128 -732h-160l72 417l-190 -219h-86l-133 254l-77 -452h-159l128 732h128l177 -353z" />
    <glyph glyph-name="uni1E3F" unicode="&#x1e3f;" horiz-adv-x="867" 
d="M542 545h-129l124 170h164zM822 318q0 -36 -7 -74l-50 -278h-156l45 252q5 32 5 55q0 81 -54 81q-33 0 -58.5 -29t-35.5 -81l-49 -278h-157l45 252q6 30 6 56q0 80 -55 80q-34 0 -59.5 -29.5t-34.5 -81.5l-48 -277h-157l91 517h137l-3 -32q-2 -18 -2 -29q55 75 143 75
q75 0 116 -55q15 -22 21 -42q32 51 75 74t92 23q75 0 116 -55q34 -46 34 -124z" />
    <glyph glyph-name="Wgrave" unicode="&#x1e80;" horiz-adv-x="1020" 
d="M529 761l-106 156h163l71 -156h-128zM653 698l60 -450l209 450h169l-362 -732h-130l-65 437l-215 -437h-131l-109 732h171l56 -450l213 450h134z" />
    <glyph glyph-name="wgrave" unicode="&#x1e81;" horiz-adv-x="830" 
d="M420 545l-99 170h156l64 -170h-121zM520 483l50 -293l136 293h163l-273 -516h-117l-63 285l-150 -285h-118l-111 516h157l48 -298l137 298h141z" />
    <glyph glyph-name="Wacute" unicode="&#x1e82;" horiz-adv-x="1020" 
d="M669 761h-135l126 156h170zM653 698l60 -450l209 450h169l-362 -732h-130l-65 437l-215 -437h-131l-109 732h171l56 -450l213 450h134z" />
    <glyph glyph-name="wacute" unicode="&#x1e83;" horiz-adv-x="830" 
d="M528 545h-129l124 170h164zM520 483l50 -293l136 293h163l-273 -516h-117l-63 285l-150 -285h-118l-111 516h157l48 -298l137 298h141z" />
    <glyph glyph-name="Wdieresis" unicode="&#x1e84;" horiz-adv-x="1020" 
d="M436 780.5q-24 25.5 -24 60.5t24 60t58 25q36 0 60.5 -25t24.5 -60q0 -36 -24.5 -61t-60.5 -25q-34 0 -58 25.5zM669 780.5q-24 25.5 -24 60.5t24 60t59 25q34 0 58.5 -25t24.5 -60t-24.5 -60.5t-58.5 -25.5q-35 0 -59 25.5zM653 698l60 -450l209 450h169l-362 -732h-130
l-65 437l-215 -437h-131l-109 732h171l56 -450l213 450h134z" />
    <glyph glyph-name="wdieresis" unicode="&#x1e85;" horiz-adv-x="830" 
d="M312 569.5q-24 25.5 -24 60.5t23.5 60t57.5 25q36 0 60.5 -25t24.5 -60t-24.5 -60.5t-60.5 -25.5q-33 0 -57 25.5zM544 569.5q-24 25.5 -24 60.5t24 60t59 25q34 0 58.5 -25t24.5 -60t-24.5 -60.5t-58.5 -25.5q-35 0 -59 25.5zM520 483l50 -293l136 293h163l-273 -516
h-117l-63 285l-150 -285h-118l-111 516h157l48 -298l137 298h141z" />
    <glyph glyph-name="uni1EA0" unicode="&#x1ea0;" horiz-adv-x="743" 
d="M519 698l167 -732h-173l-29 148h-278l-80 -148h-177l419 732h151zM454 257l-46 228l-124 -228h170zM245.5 -251.5q-27.5 28.5 -27.5 67.5q0 41 27.5 69.5t66.5 28.5q38 0 66.5 -29t28.5 -69q0 -39 -28 -67.5t-67 -28.5t-66.5 28.5z" />
    <glyph glyph-name="uni1EA1" unicode="&#x1ea1;" horiz-adv-x="630" 
d="M611 483l-91 -517h-141q4 33 6 65q-64 -78 -159 -78q-61 0 -108 29t-73 81.5t-26 120.5q0 33 6 67q14 83 54 138.5t94.5 81.5t114.5 26q56 0 95.5 -23t59.5 -68q12 32 23 77h145zM357 118q35 28 45 91q3 20 3 37q0 51 -26 79.5t-69 28.5q-44 0 -77 -30t-44 -89
q-3 -18 -3 -36q0 -49 24.5 -79t68.5 -30q43 0 78 28zM187.5 -251.5q-27.5 28.5 -27.5 67.5q0 41 27.5 69.5t66.5 28.5q38 0 66.5 -29t28.5 -69q0 -39 -28 -67.5t-67 -28.5t-66.5 28.5z" />
    <glyph glyph-name="uni1EA2" unicode="&#x1ea2;" horiz-adv-x="743" 
d="M347 920q43 25 111 25q57 0 93.5 -24.5t36.5 -68.5q0 -50 -36 -76t-107 -45l-51 70q41 10 61.5 19.5t20.5 24.5q0 8 -7.5 13t-23.5 5q-36 0 -83 -25zM519 698l167 -732h-173l-29 148h-278l-80 -148h-177l419 732h151zM454 257l-46 228l-124 -228h170z" />
    <glyph glyph-name="uni1EA3" unicode="&#x1ea3;" horiz-adv-x="630" 
d="M252 724q23 15 52.5 22t58.5 7q57 0 94 -28t37 -76q0 -55 -36.5 -83.5t-106.5 -49.5l-51 74q41 13 61 24t20 29q0 10 -7.5 16t-23.5 6q-37 0 -83 -30zM611 483l-91 -517h-141q4 33 6 65q-64 -78 -159 -78q-61 0 -108 29t-73 81.5t-26 120.5q0 33 6 67q14 83 54 138.5
t94.5 81.5t114.5 26q56 0 95.5 -23t59.5 -68q12 32 23 77h145zM357 118q35 28 45 91q3 20 3 37q0 51 -26 79.5t-69 28.5q-44 0 -77 -30t-44 -89q-3 -18 -3 -36q0 -49 24.5 -79t68.5 -30q43 0 78 28z" />
    <glyph glyph-name="uni1EA4" unicode="&#x1ea4;" horiz-adv-x="757" 
d="M716 848h-146l114 91h182zM417 833h120l109 -93h-138l-42 37l-64 -37h-150zM519 698l167 -732h-173l-29 148h-278l-80 -148h-177l419 732h151zM454 257l-46 228l-124 -228h170z" />
    <glyph glyph-name="uni1EA5" unicode="&#x1ea5;" horiz-adv-x="630" 
d="M579 741h-128l110 144h160zM324 715h114l105 -170h-131l-44 73l-70 -73h-139zM611 483l-91 -517h-141q4 33 6 65q-64 -78 -159 -78q-61 0 -108 29t-73 81.5t-26 120.5q0 33 6 67q14 83 54 138.5t94.5 81.5t114.5 26q56 0 95.5 -23t59.5 -68q12 32 23 77h145zM357 118
q35 28 45 91q3 20 3 37q0 51 -26 79.5t-69 28.5q-44 0 -77 -30t-44 -89q-3 -18 -3 -36q0 -49 24.5 -79t68.5 -30q43 0 78 28z" />
    <glyph glyph-name="uni1EA6" unicode="&#x1ea6;" horiz-adv-x="743" 
d="M565 848l-106 91h163l70 -91h-127zM417 833h120l109 -93h-138l-42 37l-64 -37h-150zM519 698l167 -732h-173l-29 148h-278l-80 -148h-177l419 732h151zM454 257l-46 228l-124 -228h170z" />
    <glyph glyph-name="uni1EA7" unicode="&#x1ea7;" horiz-adv-x="630" 
d="M471 741l-90 144h152l59 -144h-121zM324 715h114l105 -170h-131l-44 73l-70 -73h-139zM611 483l-91 -517h-141q4 33 6 65q-64 -78 -159 -78q-61 0 -108 29t-73 81.5t-26 120.5q0 33 6 67q14 83 54 138.5t94.5 81.5t114.5 26q56 0 95.5 -23t59.5 -68q12 32 23 77h145z
M357 118q35 28 45 91q3 20 3 37q0 51 -26 79.5t-69 28.5q-44 0 -77 -30t-44 -89q-3 -18 -3 -36q0 -49 24.5 -79t68.5 -30q43 0 78 28z" />
    <glyph glyph-name="uni1EA8" unicode="&#x1ea8;" horiz-adv-x="743" 
d="M507 932q50 15 110 15q58 0 94.5 -14.5t36.5 -40.5q0 -30 -36.5 -45.5t-106.5 -26.5l-49 43q43 6 63 9.5t22 8.5q3 10 -32 10q-40 0 -87 -11zM417 833h120l109 -93h-138l-42 37l-64 -37h-150zM519 698l167 -732h-173l-29 148h-278l-80 -148h-177l419 732h151zM454 257
l-46 228l-124 -228h170z" />
    <glyph glyph-name="uni1EA9" unicode="&#x1ea9;" horiz-adv-x="631" 
d="M426 888q23 15 52.5 22t57.5 7q58 0 94.5 -27.5t36.5 -75.5q0 -55 -36.5 -84t-106.5 -50l-51 74q41 13 61.5 24.5t20.5 28.5q0 23 -32 23q-36 0 -82 -31zM324 715h114l105 -170h-131l-44 73l-70 -73h-139zM611 483l-91 -517h-141q4 33 6 65q-64 -78 -159 -78
q-61 0 -108 29t-73 81.5t-26 120.5q0 33 6 67q14 83 54 138.5t94.5 81.5t114.5 26q56 0 95.5 -23t59.5 -68q12 32 23 77h145zM357 118q35 28 45 91q3 20 3 37q0 51 -26 79.5t-69 28.5q-44 0 -77 -30t-44 -89q-3 -18 -3 -36q0 -49 24.5 -79t68.5 -30q43 0 78 28z" />
    <glyph glyph-name="uni1EAA" unicode="&#x1eaa;" horiz-adv-x="743" 
d="M283 853q15 42 55.5 64.5t99.5 22.5q34 0 53.5 -5.5t38.5 -14.5q2 -1 13 -5.5t23 -4.5q30 0 44 22h107q-13 -43 -54 -65t-101 -22q-34 0 -53.5 5.5t-38.5 14.5q-8 4 -17 7t-19 3q-28 0 -44 -22h-107zM417 833h120l109 -93h-138l-42 37l-64 -37h-150zM519 698l167 -732
h-173l-29 148h-278l-80 -148h-177l419 732h151zM454 257l-46 228l-124 -228h170z" />
    <glyph glyph-name="uni1EAB" unicode="&#x1eab;" horiz-adv-x="630" 
d="M620 898q-12 -76 -54.5 -117.5t-101.5 -41.5q-34 0 -53.5 12t-37.5 33q-11 13 -18 18.5t-17 5.5q-28 0 -45 -53h-106q14 77 55.5 118t101.5 41q34 0 53 -12t37 -34q12 -13 19 -18.5t16 -5.5q15 0 26.5 14t18.5 40h106zM327 715h115l104 -170h-131l-44 73l-69 -73h-139z
M611 483l-91 -517h-141q4 33 6 65q-64 -78 -159 -78q-61 0 -108 29t-73 81.5t-26 120.5q0 33 6 67q14 83 54 138.5t94.5 81.5t114.5 26q56 0 95.5 -23t59.5 -68q12 32 23 77h145zM357 118q35 28 45 91q3 20 3 37q0 51 -26 79.5t-69 28.5q-44 0 -77 -30t-44 -89
q-3 -18 -3 -36q0 -49 24.5 -79t68.5 -30q43 0 78 28z" />
    <glyph glyph-name="uni1EAC" unicode="&#x1eac;" horiz-adv-x="743" 
d="M420 917h120l109 -157h-131l-49 73l-75 -73h-139zM519 698l167 -732h-173l-29 148h-278l-80 -148h-177l419 732h151zM454 257l-46 228l-124 -228h170zM245.5 -251.5q-27.5 28.5 -27.5 67.5q0 41 27.5 69.5t66.5 28.5q38 0 66.5 -29t28.5 -69q0 -39 -28 -67.5t-67 -28.5
t-66.5 28.5z" />
    <glyph glyph-name="uni1EAD" unicode="&#x1ead;" horiz-adv-x="630" 
d="M327 715h115l105 -170h-129l-44 73l-70 -73h-141zM611 483l-91 -517h-141q4 33 6 65q-64 -78 -159 -78q-61 0 -108 29t-73 81.5t-26 120.5q0 33 6 67q14 83 54 138.5t94.5 81.5t114.5 26q56 0 95.5 -23t59.5 -68q12 32 23 77h145zM357 118q35 28 45 91q3 20 3 37
q0 51 -26 79.5t-69 28.5q-44 0 -77 -30t-44 -89q-3 -18 -3 -36q0 -49 24.5 -79t68.5 -30q43 0 78 28zM187.5 -251.5q-27.5 28.5 -27.5 67.5q0 41 27.5 69.5t66.5 28.5q38 0 66.5 -29t28.5 -69q0 -39 -28 -67.5t-67 -28.5t-66.5 28.5z" />
    <glyph glyph-name="uni1EAE" unicode="&#x1eae;" horiz-adv-x="743" 
d="M571 861h-146l114 91h182zM337 760.5q-46 21.5 -46 55.5q0 11 2 16h130q-3 -26 49 -26q48 0 64 26h131q-14 -47 -68 -70t-135 -23t-127 21.5zM519 698l167 -732h-173l-29 148h-278l-80 -148h-177l419 732h151zM454 257l-46 228l-124 -228h170z" />
    <glyph glyph-name="uni1EAF" unicode="&#x1eaf;" horiz-adv-x="630" 
d="M450 750h-129l110 144h160zM244 583q-46 38 -46 102q0 15 3 30h122q-5 -74 56 -74q28 0 46 18t29 56h122q-15 -85 -69.5 -127.5t-136.5 -42.5q-80 0 -126 38zM611 483l-91 -517h-141q4 33 6 65q-64 -78 -159 -78q-61 0 -108 29t-73 81.5t-26 120.5q0 33 6 67
q14 83 54 138.5t94.5 81.5t114.5 26q56 0 95.5 -23t59.5 -68q12 32 23 77h145zM357 118q35 28 45 91q3 20 3 37q0 51 -26 79.5t-69 28.5q-44 0 -77 -30t-44 -89q-3 -18 -3 -36q0 -49 24.5 -79t68.5 -30q43 0 78 28z" />
    <glyph glyph-name="uni1EB0" unicode="&#x1eb0;" horiz-adv-x="743" 
d="M420 861l-106 91h163l70 -91h-127zM337 760.5q-46 21.5 -46 55.5q0 11 2 16h130q-3 -26 49 -26q48 0 64 26h131q-14 -47 -68 -70t-135 -23t-127 21.5zM519 698l167 -732h-173l-29 148h-278l-80 -148h-177l419 732h151zM454 257l-46 228l-124 -228h170z" />
    <glyph glyph-name="uni1EB1" unicode="&#x1eb1;" horiz-adv-x="630" 
d="M341 750l-90 144h153l58 -144h-121zM244 583q-46 38 -46 102q0 15 3 30h122q-5 -74 56 -74q28 0 46 18t29 56h122q-15 -85 -69.5 -127.5t-136.5 -42.5q-80 0 -126 38zM611 483l-91 -517h-141q4 33 6 65q-64 -78 -159 -78q-61 0 -108 29t-73 81.5t-26 120.5q0 33 6 67
q14 83 54 138.5t94.5 81.5t114.5 26q56 0 95.5 -23t59.5 -68q12 32 23 77h145zM357 118q35 28 45 91q3 20 3 37q0 51 -26 79.5t-69 28.5q-44 0 -77 -30t-44 -89q-3 -18 -3 -36q0 -49 24.5 -79t68.5 -30q43 0 78 28z" />
    <glyph glyph-name="uni1EB2" unicode="&#x1eb2;" horiz-adv-x="743" 
d="M358 950q48 16 110 16q58 0 94.5 -15t36.5 -41q0 -29 -36.5 -44.5t-106.5 -26.5l-49 43q85 9 85 19q0 8 -32 8q-44 0 -87 -10zM337 760.5q-46 21.5 -46 55.5q0 11 2 16h130q-3 -26 49 -26q48 0 64 26h131q-14 -47 -68 -70t-135 -23t-127 21.5zM519 698l167 -732h-173
l-29 148h-278l-80 -148h-177l419 732h151zM454 257l-46 228l-124 -228h170z" />
    <glyph glyph-name="uni1EB3" unicode="&#x1eb3;" horiz-adv-x="630" 
d="M289 929q22 15 52 22t58 7q58 0 94.5 -27.5t36.5 -75.5q0 -55 -36.5 -84t-106.5 -50l-51 74q38 12 58.5 23t23.5 27q1 11 -7 18t-25 7q-38 0 -82 -30zM244 583q-46 38 -46 102q0 15 3 30h122q-5 -74 56 -74q28 0 46 18t29 56h122q-15 -85 -69.5 -127.5t-136.5 -42.5
q-80 0 -126 38zM611 483l-91 -517h-141q4 33 6 65q-64 -78 -159 -78q-61 0 -108 29t-73 81.5t-26 120.5q0 33 6 67q14 83 54 138.5t94.5 81.5t114.5 26q56 0 95.5 -23t59.5 -68q12 32 23 77h145zM357 118q35 28 45 91q3 20 3 37q0 51 -26 79.5t-69 28.5q-44 0 -77 -30
t-44 -89q-3 -18 -3 -36q0 -49 24.5 -79t68.5 -30q43 0 78 28z" />
    <glyph glyph-name="uni1EB4" unicode="&#x1eb4;" horiz-adv-x="743" 
d="M285 867q14 42 55 64.5t100 22.5q34 0 53.5 -5.5t38.5 -14.5q8 -4 17 -7t19 -3q30 0 44 22h106q-13 -42 -54 -64.5t-100 -22.5q-34 0 -53.5 5t-38.5 15q-3 1 -13 5.5t-23 4.5q-29 0 -45 -22h-106zM337 760.5q-46 21.5 -46 55.5q0 11 2 16h130q-3 -26 49 -26q48 0 64 26
h131q-14 -47 -68 -70t-135 -23t-127 21.5zM519 698l167 -732h-173l-29 148h-278l-80 -148h-177l419 732h151zM454 257l-46 228l-124 -228h170z" />
    <glyph glyph-name="uni1EB5" unicode="&#x1eb5;" horiz-adv-x="630" 
d="M193 763q14 78 55.5 118.5t100.5 40.5q34 0 53.5 -12t37.5 -33q12 -13 19 -18.5t16 -5.5q15 0 26.5 14t18.5 40h106q-13 -77 -55 -118t-102 -41q-34 0 -52 11.5t-38 33.5q-10 12 -18 18t-18 6q-15 0 -25.5 -13t-18.5 -41h-106zM244 583q-46 38 -46 102q0 15 3 30h122
q-5 -74 56 -74q28 0 46 18t29 56h122q-15 -85 -69.5 -127.5t-136.5 -42.5q-80 0 -126 38zM611 483l-91 -517h-141q4 33 6 65q-64 -78 -159 -78q-61 0 -108 29t-73 81.5t-26 120.5q0 33 6 67q14 83 54 138.5t94.5 81.5t114.5 26q56 0 95.5 -23t59.5 -68q12 32 23 77h145z
M357 118q35 28 45 91q3 20 3 37q0 51 -26 79.5t-69 28.5q-44 0 -77 -30t-44 -89q-3 -18 -3 -36q0 -49 24.5 -79t68.5 -30q43 0 78 28z" />
    <glyph glyph-name="uni1EB6" unicode="&#x1eb6;" horiz-adv-x="743" 
d="M340 795q-46 36 -46 95q0 18 2 27h122q-2 -32 11.5 -50.5t44.5 -18.5q55 0 74 69h122q-14 -80 -68 -119t-135 -39t-127 36zM519 698l167 -732h-173l-29 148h-278l-80 -148h-177l419 732h151zM454 257l-46 228l-124 -228h170zM245.5 -251.5q-27.5 28.5 -27.5 67.5
q0 41 27.5 69.5t66.5 28.5q38 0 66.5 -29t28.5 -69q0 -39 -28 -67.5t-67 -28.5t-66.5 28.5z" />
    </font>
</defs>
</svg>
