<?xml version="1.0" standalone="no"?>
<!DOCTYPE svg PUBLIC "-//W3C//DTD SVG 1.1//EN" "http://www.w3.org/Graphics/SVG/1.1/DTD/svg11.dtd" >
<svg xmlns="http://www.w3.org/2000/svg" xmlns:xlink="http://www.w3.org/1999/xlink" version="1.1">
<metadata>
Created by FontForge 20170731 at Fri May 28 14:22:29 2021
 By Aleksey,,,
Copyright 2021 Huawei Device Co., Ltd. All Rights Reserved.
</metadata>
<defs>
<font id="HarmonyOS_Sans_Black" horiz-adv-x="614" >
  <font-face 
    font-family="HarmonyOS Sans Black"
    font-weight="900"
    font-stretch="normal"
    units-per-em="1000"
    panose-1="0 0 10 0 0 0 0 0 0 0"
    ascent="800"
    descent="-200"
    x-height="516"
    cap-height="732"
    bbox="-584 -244 1615 928"
    underline-thickness="50"
    underline-position="-150"
    unicode-range="U+0020-30FB"
  />
<missing-glyph horiz-adv-x="1000" 
 />
    <glyph glyph-name="f_b.liga" unicode="fb" horiz-adv-x="1032" 
d="M92 529q0 125 56 185.5t158 60.5q52 0 91 -15v-140q-27 15 -58 15q-41 0 -62 -26.5t-22 -91.5h129v-136h-129v-381h-163v381h-88v136h88v12zM885 499q53 -32 84.5 -93.5t31.5 -146.5q0 -84 -31 -146t-84.5 -94t-118.5 -32q-52 0 -93.5 21.5t-69.5 64.5q-7 -49 -8 -73
h-144v761h163v-301q54 71 152 71q65 0 118 -32zM803 161q30 37 30 98q0 60 -29.5 94.5t-78.5 34.5q-47 0 -78.5 -32.5t-31.5 -96.5q0 -65 32 -100t78 -35q48 0 78 37z" />
    <glyph glyph-name="f_f.liga" unicode="ff" horiz-adv-x="770" 
d="M625 523v-6h136v-136h-136v-381h-163v381h-207v-381h-163v381h-88v136h88v12q0 123 60.5 184.5t158.5 61.5q49 0 84 -14.5t54 -39.5l-62 -114q-25 28 -61 28q-34 0 -52 -28t-19 -90h207v12q0 122 60.5 184t157.5 62q49 0 87 -14.5t60 -39.5l-62 -114q-31 28 -69 28
q-71 0 -71 -112z" />
    <glyph glyph-name="f_f_b.liga" unicode="ffb" horiz-adv-x="1402" 
d="M462 529q0 125 56 185.5t158 60.5q52 0 91 -15v-140q-27 15 -58 15q-41 0 -62 -26.5t-22 -91.5h129v-136h-129v-381h-163v381h-207v-381h-163v381h-88v136h88v12q0 123 60.5 184.5t158.5 61.5q49 0 84 -14.5t54 -39.5l-62 -114q-25 28 -61 28q-34 0 -52 -28t-19 -90h207
v12zM1255 499q53 -32 84.5 -93.5t31.5 -146.5q0 -84 -31 -146t-84.5 -94t-118.5 -32q-52 0 -93.5 21.5t-69.5 64.5q-7 -49 -8 -73h-144v761h163v-301q54 71 152 71q65 0 118 -32zM1173 161q30 37 30 98q0 60 -29.5 94.5t-78.5 34.5q-47 0 -78.5 -32.5t-31.5 -96.5
q0 -65 32 -100t78 -35q48 0 78 37z" />
    <glyph glyph-name="f_f_h.liga" unicode="ffh" horiz-adv-x="1378" 
d="M462 529q0 125 56 185.5t158 60.5q52 0 91 -15v-140q-27 15 -58 15q-41 0 -62 -26.5t-22 -91.5h129v-136h-129v-381h-163v381h-207v-381h-163v381h-88v136h88v12q0 123 60.5 184.5t158.5 61.5q49 0 84 -14.5t54 -39.5l-62 -114q-25 28 -61 28q-34 0 -52 -28t-19 -90h207
v12zM1277 474q50 -57 50 -168v-306h-164v251q0 65 -19.5 101t-64.5 36q-44 0 -69 -38t-25 -106v-244h-163v761h163v-308q50 78 154 78q88 0 138 -57z" />
    <glyph glyph-name="f_f_i.liga" unicode="ffi" horiz-adv-x="1042" 
d="M462 529q0 125 56 185.5t158 60.5q52 0 91 -15v-140q-27 15 -58 15q-41 0 -62 -26.5t-22 -91.5h129v-136h-129v-381h-163v381h-207v-381h-163v381h-88v136h88v12q0 123 60.5 184.5t158.5 61.5q49 0 84 -14.5t54 -39.5l-62 -114q-25 28 -61 28q-34 0 -52 -28t-19 -90h207
v12zM835.5 600.5q-27.5 28.5 -27.5 67.5q0 40 27.5 68.5t66.5 28.5q38 0 66.5 -28.5t28.5 -68.5q0 -39 -28 -67.5t-67 -28.5t-66.5 28.5zM985 0h-163v517h163v-517z" />
    <glyph glyph-name="f_f_k.liga" unicode="ffk" horiz-adv-x="1369" 
d="M462 529q0 125 56 185.5t158 60.5q52 0 91 -15v-140q-27 15 -58 15q-41 0 -62 -26.5t-22 -91.5h129v-136h-129v-381h-163v381h-207v-381h-163v381h-88v136h88v12q0 123 60.5 184.5t158.5 61.5q49 0 84 -14.5t54 -39.5l-62 -114q-25 28 -61 28q-34 0 -52 -28t-19 -90h207
v12zM1351 517l-184 -203l207 -314h-194l-122 192l-73 -81v-111h-163v761h163v-454l178 210h188z" />
    <glyph glyph-name="f_f_l.liga" unicode="ffl" horiz-adv-x="1044" 
d="M462 529q0 125 56 185.5t158 60.5q52 0 91 -15v-140q-27 15 -58 15q-41 0 -62 -26.5t-22 -91.5h129v-136h-129v-381h-163v381h-207v-381h-163v381h-88v136h88v12q0 123 60.5 184.5t158.5 61.5q49 0 84 -14.5t54 -39.5l-62 -114q-25 28 -61 28q-34 0 -52 -28t-19 -90h207
v12zM822 0v761h163v-761h-163z" />
    <glyph glyph-name="f_h.liga" unicode="fh" horiz-adv-x="1008" 
d="M92 529q0 125 56 185.5t158 60.5q52 0 91 -15v-140q-27 15 -58 15q-41 0 -62.5 -28t-21.5 -90h129v-136h-129v-381h-163v381h-88v136h88v12zM907 474q50 -57 50 -168v-306h-163v251q0 65 -19.5 101t-65.5 36q-44 0 -69 -38t-25 -106v-244h-163v761h163v-308q50 78 154 78
q88 0 138 -57z" />
    <glyph glyph-name="f_i.liga" unicode="fi" horiz-adv-x="673" 
d="M92 529q0 125 56 185.5t158 60.5q52 0 91 -15v-140q-27 15 -58 15q-41 0 -62.5 -28t-21.5 -90h129v-136h-129v-381h-163v381h-88v136h88v12zM465.5 600.5q-27.5 28.5 -27.5 67.5q0 40 27.5 68.5t66.5 28.5q38 0 66.5 -28.5t28.5 -68.5q0 -39 -28 -67.5t-67 -28.5
t-66.5 28.5zM615 0h-163v517h163v-517z" />
    <glyph glyph-name="f_k.liga" unicode="fk" horiz-adv-x="999" 
d="M92 529q0 125 56 185.5t158 60.5q52 0 91 -15v-140q-27 15 -58 15q-41 0 -62.5 -28t-21.5 -90h129v-136h-129v-381h-163v381h-88v136h88v12zM981 517l-183 -203l207 -314h-194l-123 192l-73 -81v-111h-163v761h163v-454l178 210h188z" />
    <glyph glyph-name="f_l.liga" unicode="fl" horiz-adv-x="674" 
d="M92 529q0 125 56 185.5t158 60.5q52 0 91 -15v-140q-27 15 -58 15q-41 0 -62.5 -28t-21.5 -90h129v-136h-129v-381h-163v381h-88v136h88v12zM452 0v761h163v-761h-163z" />
    <glyph glyph-name="r_f.liga" unicode="rf" horiz-adv-x="831" 
d="M687 523v-6h136v-136h-136v-381h-163v381h-89v136h89v12q0 123 60 184.5t158 61.5q49 0 86.5 -14.5t59.5 -39.5l-61 -114q-31 28 -69 28q-71 0 -71 -112zM348 531q29 0 53 -12v-142q-26 15 -61 15q-61 0 -89.5 -41t-28.5 -122v-229h-163v517h145q2 -46 8 -77
q42 91 136 91z" />
    <glyph glyph-name="r_t.liga" unicode="rt" horiz-adv-x="882" 
d="M889 37q-56 -50 -158 -50q-91 0 -145.5 47.5t-54.5 168.5v177h-90v137h90v166h163v-166h158v-137h-158v-148q0 -50 15 -77.5t57 -27.5q18 0 33.5 5.5t32.5 17.5zM348 531q29 0 53 -12v-142q-26 15 -61 15q-61 0 -89.5 -41t-28.5 -122v-229h-163v517h145q2 -46 8 -77
q42 91 136 91z" />
    <glyph glyph-name="r_v.liga" unicode="rv" horiz-adv-x="1025" 
d="M415 519v-148q-28 21 -61 21q-66 0 -99 -43t-33 -120v-229h-163v517h145q2 -49 9 -80q23 46 61.5 70t86.5 24q30 0 54 -12zM618 517l122 -313l113 313h171l-223 -516h-133l-231 516h181z" />
    <glyph glyph-name="r_x.liga" unicode="rx" horiz-adv-x="990" 
d="M415 519v-148q-28 21 -61 21q-66 0 -99 -43t-33 -120v-229h-163v517h145q2 -49 9 -80q23 46 61.5 70t86.5 24q30 0 54 -12zM714 380l97 137h178l-192 -254l192 -263h-185l-97 138l-95 -138h-178l190 255l-190 262h185z" />
    <glyph glyph-name="r_y.liga" unicode="ry" horiz-adv-x="1028" 
d="M274.5 507q38.5 24 86.5 24q30 0 54 -12v-148q-28 21 -61 21q-66 0 -99 -43t-33 -120v-229h-163v517h145q2 -49 9 -80q23 46 61.5 70zM856 517h171l-229 -574q-39 -99 -94 -143t-133 -44q-40 0 -75 11.5t-59 31.5l64 123q32 -23 68 -23q32 0 52 18.5t45 71.5l-228 528
h181l125 -329z" />
    <glyph glyph-name=".notdef" horiz-adv-x="1000" 
 />
    <glyph glyph-name=".null" horiz-adv-x="0" 
 />
    <glyph glyph-name="nonmarkingreturn" horiz-adv-x="333" 
 />
    <glyph glyph-name="null" horiz-adv-x="600" 
 />
    <glyph glyph-name="null" horiz-adv-x="600" 
 />
    <glyph glyph-name="space" unicode=" " horiz-adv-x="270" 
 />
    <glyph glyph-name="exclam" unicode="!" horiz-adv-x="279" 
d="M77 249l-24 512h172l-23 -512h-125zM72.5 15.5q-27.5 28.5 -27.5 67.5q0 40 27.5 68.5t66.5 28.5t67 -28.5t28 -68.5q0 -39 -28 -67.5t-67 -28.5t-66.5 28.5z" />
    <glyph glyph-name="quotedbl" unicode="&#x22;" horiz-adv-x="490" 
d="M58 478l-9 326h150l-7 -326h-134zM299 478l-9 326h152l-9 -326h-134z" />
    <glyph glyph-name="numbersign" unicode="#" horiz-adv-x="713" 
d="M609 582h93v-147h-127l-33 -140h92v-148h-127l-35 -149h-145l35 149h-113l-35 -149h-145l35 149h-93v148h128l33 140h-93v147h128l35 151h145l-35 -151h113l35 151h145zM314 440l-36 -151h121l36 151h-121z" />
    <glyph glyph-name="dollar" unicode="$" 
d="M380 419q98 -28 155 -73t57 -133q0 -96 -59 -150t-148 -69v-136h-140v135q-83 14 -146 62.5t-87 127.5l128 73q22 -43 48.5 -68t61.5 -36v160q-63 18 -109 41t-75.5 63.5t-29.5 102.5q0 92 58.5 147.5t150.5 72.5v128h140v-127q79 -14 135 -58.5t73 -112.5l-131 -74
q-31 63 -82 82v-158zM250 460v125q-60 -15 -60 -59q0 -41 60 -66zM380 148q58 12 58 56q0 23 -15 38.5t-43 27.5v-122z" />
    <glyph glyph-name="percent" unicode="%" horiz-adv-x="893" 
d="M362.5 458q-25.5 -43 -68.5 -66t-93 -23t-92.5 23t-68.5 66t-26 99t26 99t69 66.5t92 23.5q50 0 93 -23.5t68.5 -66.5t25.5 -99t-25.5 -99zM583 732h164l-437 -732h-164zM244 606.5q-17 18.5 -43 18.5q-25 0 -41.5 -18.5t-16.5 -48.5t16.5 -48.5t41.5 -18.5q26 0 43 18.5
t17 48.5t-17 48.5zM853.5 76q-25.5 -43 -68.5 -66t-93 -23t-93 23t-69 66t-26 99q0 57 26 100t69 66t93 23t93 -23t68.5 -66t25.5 -100q0 -56 -25.5 -99zM735 224.5q-17 18.5 -43 18.5q-25 0 -42 -18.5t-17 -48.5t17 -48.5t42 -18.5q26 0 43 18.5t17 48.5t-17 48.5z" />
    <glyph glyph-name="ampersand" unicode="&#x26;" horiz-adv-x="764" 
d="M799 0h-199l-70 71q-110 -84 -248 -84q-118 0 -188.5 56.5t-70.5 157.5q0 82 44 134.5t119 90.5q-37 44 -51.5 78t-14.5 71q0 63 31.5 108t85 68.5t118.5 23.5q66 0 115 -24t75.5 -66t26.5 -95q0 -68 -42 -113t-117 -82l108 -111q32 62 44 150h163q-11 -70 -36 -136.5
t-64 -122.5zM290.5 536q8.5 -19 34.5 -49q41 20 63.5 42t22.5 51q0 27 -18 43t-45 16q-28 0 -47 -17t-19 -49q0 -18 8.5 -37zM430 174l-153 156q-42 -24 -64.5 -50.5t-22.5 -62.5q0 -41 30 -64.5t81 -23.5q69 0 129 45z" />
    <glyph glyph-name="quotesingle" unicode="'" horiz-adv-x="248" 
d="M58 478l-9 326h150l-7 -326h-134z" />
    <glyph glyph-name="parenleft" unicode="(" horiz-adv-x="401" 
d="M100 612.5q47 119.5 129 202.5h160q-83 -100 -125.5 -208.5t-42.5 -254.5q0 -147 42.5 -256t125.5 -207h-160q-82 83 -129 202t-47 261q0 141 47 260.5z" />
    <glyph glyph-name="parenright" unicode=")" horiz-adv-x="401" 
d="M301 91q-47 -119 -129 -202h-160q83 98 125.5 207t42.5 256q0 146 -42.5 254.5t-125.5 208.5h160q82 -83 129 -202.5t47 -260.5q0 -142 -47 -261z" />
    <glyph glyph-name="asterisk" unicode="*" horiz-adv-x="474" 
d="M283 603l107 76l58 -101l-121 -55l121 -54l-58 -101l-108 77l14 -131h-117l12 130l-106 -76l-59 101l119 54l-119 55l59 101l106 -76l-12 130h117z" />
    <glyph glyph-name="plus" unicode="+" 
d="M235 626h144v-192h192v-144h-192v-192h-144v192h-192v144h192v192z" />
    <glyph glyph-name="comma" unicode="," horiz-adv-x="293" 
d="M218.5 146q30.5 -35 30.5 -102q0 -62 -27.5 -114.5t-74.5 -87t-104 -43.5v85q47 10 75 36t34 67h-4q-39 0 -66.5 28.5t-27.5 68.5t25.5 68.5t64.5 28.5q44 0 74.5 -35z" />
    <glyph glyph-name="hyphen" unicode="-" horiz-adv-x="492" 
d="M56 234v136h381v-136h-381z" />
    <glyph glyph-name="period" unicode="." horiz-adv-x="278" 
d="M71.5 13.5q-27.5 28.5 -27.5 68.5t27.5 68.5t66.5 28.5q40 0 68 -28.5t28 -68.5t-28 -68.5t-68 -28.5q-39 0 -66.5 28.5z" />
    <glyph glyph-name="slash" unicode="/" horiz-adv-x="448" 
d="M9 0l274 732h156l-274 -732h-156z" />
    <glyph glyph-name="zero" unicode="0" 
d="M505.5 84q-69.5 -97 -197.5 -97t-198.5 96.5t-70.5 282.5t70.5 283t198.5 97t197.5 -97t69.5 -283q0 -185 -69.5 -282zM241.5 198q21.5 -55 66.5 -55q44 0 65 55.5t21 167.5t-21 167.5t-65 55.5q-45 0 -66.5 -54t-21.5 -169q0 -113 21.5 -168z" />
    <glyph glyph-name="one" unicode="1" 
d="M83 445v160l229 128h134v-733h-173v550z" />
    <glyph glyph-name="two" unicode="2" 
d="M294 148h276v-148h-522v111l214 241q53 60 74 93t21 67t-19 56t-53 22q-76 0 -110 -110l-132 77q28 92 97 141t161 49q75 0 128.5 -30t80.5 -81.5t27 -114.5t-30 -116.5t-107 -137.5z" />
    <glyph glyph-name="three" unicode="3" 
d="M530 311q32 -44 32 -108q0 -68 -35.5 -117t-96.5 -74t-136 -25q-96 0 -163.5 43.5t-96.5 127.5l134 78q14 -48 47 -73t74 -25q40 0 66.5 21.5t26.5 59.5q0 85 -142 85h-25v138h41q48 0 75.5 23.5t27.5 58.5q0 32 -22 51.5t-56 19.5q-38 0 -67 -26t-43 -73l-128 74
q26 86 93.5 131.5t160.5 45.5q71 0 126.5 -26t86 -73t30.5 -108q0 -56 -26 -97.5t-75 -64.5q59 -23 91 -67z" />
    <glyph glyph-name="four" unicode="4" 
d="M509 444v-155h98v-146h-98v-143h-166v143h-309v117l242 473h177l-229 -444h119v155h166z" />
    <glyph glyph-name="five" unicode="5" 
d="M449.5 450.5q52.5 -29.5 84 -84t31.5 -127.5q0 -78 -35 -135.5t-95 -87t-132 -29.5q-87 0 -149 39t-89 119l136 80q12 -44 38 -65.5t61 -21.5q41 0 62.5 27.5t21.5 68.5q0 43 -23 70.5t-67 27.5q-58 0 -90 -58l-125 60l49 399h402v-144h-260l-16 -122q36 13 80 13
q63 0 115.5 -29.5z" />
    <glyph glyph-name="six" unicode="6" 
d="M467.5 442q53.5 -29 83.5 -82t30 -124q0 -72 -36.5 -129t-98.5 -88.5t-134 -31.5q-73 0 -134.5 32t-97.5 91t-36 136q0 58 21.5 111t79.5 143l149 233h183l-138 -209q-34 -48 -42 -58q25 5 47 5q70 0 123.5 -29zM375 166q25 27 25 70q0 42 -25 68t-64 26q-40 0 -65 -26.5
t-25 -68.5t25.5 -69t64.5 -27t64 27z" />
    <glyph glyph-name="seven" unicode="7" 
d="M369 584h-316v149h507v-107l-244 -626h-185z" />
    <glyph glyph-name="eight" unicode="8" 
d="M546 324q31 -47 31 -113t-32.5 -117t-93 -79t-141.5 -28q-83 0 -144.5 28.5t-94.5 79t-33 116.5t31.5 113t86.5 73q-44 23 -68.5 61t-24.5 88q0 55 28.5 101t84.5 73t134 27t131.5 -26.5t80 -72t26.5 -102.5q0 -50 -23 -88t-65 -60q55 -27 86 -74zM259 586
q-19 -20 -19 -50t19 -49.5t51 -19.5q31 0 51 19.5t20 49.5q0 29 -20 49.5t-51 20.5q-32 0 -51 -20zM372.5 163q24.5 25 24.5 67t-23.5 67.5t-63.5 25.5q-41 0 -66 -25.5t-25 -67.5t25.5 -67t65.5 -25q38 0 62.5 25z" />
    <glyph glyph-name="nine" unicode="9" 
d="M437.5 715q61.5 -32 97.5 -91t36 -136q0 -59 -21.5 -111.5t-79.5 -142.5l-149 -233h-183l139 209q15 23 41 58q-25 -5 -47 -5q-70 0 -123.5 29t-83 82t-29.5 124q0 72 36.5 129t98 88.5t133.5 31.5q73 0 134.5 -32zM369 430.5q25 26.5 25 68.5t-25 69t-64 27
q-40 0 -65 -27t-25 -70q0 -42 25 -68t65 -26q39 0 64 26.5z" />
    <glyph glyph-name="colon" unicode=":" horiz-adv-x="299" 
d="M81.5 365.5q-27.5 28.5 -27.5 68.5t27.5 68.5t66.5 28.5q40 0 68 -28.5t28 -68.5t-28 -68.5t-68 -28.5q-39 0 -66.5 28.5zM81.5 15.5q-27.5 28.5 -27.5 68.5t27.5 68.5t66.5 28.5q40 0 68 -28t28 -69q0 -40 -28 -68.5t-68 -28.5q-39 0 -66.5 28.5z" />
    <glyph glyph-name="semicolon" unicode=";" horiz-adv-x="310" 
d="M89.5 365.5q-27.5 28.5 -27.5 68.5t27.5 68.5t67.5 28.5t68 -28.5t28 -68.5t-28 -68.5t-68 -28.5t-67.5 28.5zM225 146q31 -35 31 -102q0 -62 -27.5 -114.5t-75 -87t-104.5 -43.5v85q47 10 75 36t34 67h-4q-39 0 -66.5 28.5t-27.5 68.5t25.5 68.5t64.5 28.5q44 0 75 -35z
" />
    <glyph glyph-name="less" unicode="&#x3c;" 
d="M571 637v-153l-320 -122l320 -122v-153l-528 202v146z" />
    <glyph glyph-name="equal" unicode="=" 
d="M571 412h-528v143h528v-143zM571 171h-528v143h528v-143z" />
    <glyph glyph-name="greater" unicode="&#x3e;" 
d="M363 362l-320 122v153l528 -202v-146l-528 -202v153z" />
    <glyph glyph-name="question" unicode="?" horiz-adv-x="510" 
d="M-28 585q35 93 109.5 141t175.5 48q69 0 125.5 -22.5t89.5 -65.5t33 -104q0 -44 -17 -77t-40 -56t-63 -54q-36 -27 -55.5 -45.5t-31 -43.5t-7.5 -57h-132q-12 35 -12 63q0 48 26.5 81t75.5 71q37 29 55.5 49.5t18.5 46.5q0 27 -21.5 42.5t-58.5 15.5q-93 0 -137 -111z
M167 15.5q-27 28.5 -27 67.5q0 40 27.5 68.5t65.5 28.5q39 0 67.5 -28.5t28.5 -68.5q0 -39 -28.5 -67.5t-67.5 -28.5t-66 28.5z" />
    <glyph glyph-name="at" unicode="@" horiz-adv-x="1002" 
d="M756 720q103 -55 161.5 -157.5t58.5 -241.5q0 -121 -49 -191t-151 -70q-53 0 -93 19.5t-60 61.5q-49 -80 -143 -80q-58 0 -105.5 29t-76 85.5t-28.5 133.5t28.5 133.5t76.5 86t105 29.5q83 0 132 -65q4 27 6 53h113v-287q0 -45 13 -64.5t38 -19.5q38 0 55 38.5t17 102.5
q0 109 -42 186.5t-117.5 117.5t-175.5 40q-105 0 -187 -44t-128 -123t-46 -181q0 -101 45.5 -179.5t126 -122t183.5 -43.5q118 0 199 54l56 -96q-43 -35 -109 -54t-146 -19q-138 0 -246.5 58t-169 163t-60.5 239q0 135 62.5 240.5t173 164t249.5 58.5q131 0 234 -55z
M572.5 221.5q28.5 27.5 28.5 87.5t-28.5 87.5t-69.5 27.5q-43 0 -69 -30t-26 -85t26 -85t69 -30q41 0 69.5 27.5z" />
    <glyph glyph-name="A" unicode="A" horiz-adv-x="749" 
d="M446 732l297 -732h-180l-56 148h-277l-54 -148h-170l289 732h151zM453 291l-87 228l-83 -228h170z" />
    <glyph glyph-name="B" unicode="B" horiz-adv-x="693" 
d="M659 213q0 -100 -75 -156.5t-206 -56.5h-306v732h281q118 0 194 -53t76 -154q0 -98 -78 -146q114 -46 114 -166zM239 585v-144h100q49 0 78 21t29 56q0 33 -28 50t-79 17h-100zM368 148q54 0 84 19.5t30 55.5t-30.5 56.5t-84.5 20.5h-128v-152h129z" />
    <glyph glyph-name="C" unicode="C" horiz-adv-x="695" 
d="M537 248l143 -84q-16 -48 -55 -88.5t-97.5 -64.5t-130.5 -24q-99 0 -181 47t-130 133.5t-48 199.5t48 199t130 133t181 47q72 0 130.5 -24t97.5 -64.5t55 -88.5l-143 -84q-45 104 -144 104q-49 0 -88.5 -26.5t-63 -77t-23.5 -118.5t23.5 -119t63 -77.5t88.5 -26.5
q99 0 144 104z" />
    <glyph glyph-name="D" unicode="D" horiz-adv-x="757" 
d="M336 732q107 0 194 -43t137.5 -125.5t50.5 -196.5t-50.5 -197t-137 -126.5t-194.5 -43.5h-264v732h264zM317 144q109 0 165 58t56 165q0 106 -56.5 163.5t-164.5 57.5h-74v-444h74z" />
    <glyph glyph-name="E" unicode="E" 
d="M529 295h-286v-147h331v-148h-502v732h490v-147h-319v-144h286v-146z" />
    <glyph glyph-name="F" unicode="F" horiz-adv-x="585" 
d="M72 732h490v-149h-319v-160h286v-148h-286v-275h-171v732z" />
    <glyph glyph-name="G" unicode="G" horiz-adv-x="732" 
d="M396 271v146h296v-304q-35 -59 -112.5 -92.5t-170.5 -33.5q-109 0 -193.5 48t-131 134.5t-46.5 197.5q0 113 48.5 199.5t132.5 133t188 46.5q73 0 132.5 -23t99 -62t55.5 -87l-142 -82q-21 47 -58.5 73t-89.5 26q-53 0 -96 -27t-68 -77.5t-25 -119.5q0 -105 55.5 -165.5
t148.5 -60.5q70 0 107 37v93h-130z" />
    <glyph glyph-name="H" unicode="H" horiz-adv-x="789" 
d="M243 455h302v277h171v-732h-171v304h-302v-304h-171v732h171v-277z" />
    <glyph glyph-name="I" unicode="I" horiz-adv-x="315" 
d="M243 0h-171v732h171v-732z" />
    <glyph glyph-name="J" unicode="J" horiz-adv-x="553" 
d="M82 29q-63 42 -82 129l143 75q11 -45 32.5 -67.5t58.5 -22.5q46 0 65 35.5t19 112.5v441h171v-458q0 -153 -72.5 -220t-184.5 -67q-87 0 -150 42z" />
    <glyph glyph-name="K" unicode="K" horiz-adv-x="771" 
d="M460 440l305 -440h-220l-210 307l-92 -100v-207h-171v732h171v-320l279 320h211z" />
    <glyph glyph-name="L" unicode="L" horiz-adv-x="586" 
d="M72 732h171v-580h321v-152h-492v732z" />
    <glyph glyph-name="M" unicode="M" horiz-adv-x="884" 
d="M684 732h129v-732h-162v434l-165 -236h-87l-167 238v-436h-160v732h132l241 -353z" />
    <glyph glyph-name="N" unicode="N" horiz-adv-x="769" 
d="M209 732l332 -444v444h156v-732h-137l-332 445v-445h-156v732h137z" />
    <glyph glyph-name="O" unicode="O" horiz-adv-x="792" 
d="M85.5 569q47.5 86 129.5 131.5t181 45.5t180.5 -45.5t129.5 -131.5t48 -202q0 -117 -48 -203t-129.5 -131.5t-180.5 -45.5q-100 0 -181.5 45.5t-129 131.5t-47.5 203q0 116 47.5 202zM241.5 249q22.5 -51 62.5 -78.5t92 -27.5t92.5 27.5t63 78.5t22.5 118
q0 66 -22.5 116.5t-63 78t-92.5 27.5t-92 -27.5t-62.5 -78t-22.5 -116.5q0 -67 22.5 -118z" />
    <glyph glyph-name="P" unicode="P" horiz-adv-x="657" 
d="M337 732q92 0 160 -30.5t104.5 -86.5t36.5 -131t-36.5 -131t-104.5 -86.5t-160 -30.5h-94v-236h-171v732h265zM318 380q62 0 101 24t39 80q0 55 -39.5 79.5t-100.5 24.5h-75v-208h75z" />
    <glyph glyph-name="Q" unicode="Q" horiz-adv-x="795" 
d="M833 -173h-232l-180 161q-9 -1 -25 -1q-100 0 -181.5 45.5t-129 131.5t-47.5 203q0 116 47.5 202t129.5 131.5t181 45.5t180.5 -45.5t129.5 -131.5t48 -202q0 -110 -42.5 -193t-116.5 -131zM241.5 249q22.5 -51 62.5 -78.5t92 -27.5t92.5 27.5t63 78.5t22.5 118
q0 66 -22.5 116.5t-63 78t-92.5 27.5t-92 -27.5t-62.5 -78t-22.5 -116.5q0 -67 22.5 -118z" />
    <glyph glyph-name="R" unicode="R" horiz-adv-x="705" 
d="M705 0l-203 1l-162 247h-5h-92v-248h-171v732h266q91 0 158.5 -30t103.5 -85t36 -127q0 -69 -33 -122t-95 -84zM243 588v-197h75q57 0 97.5 22.5t40.5 76.5q0 98 -138 98h-75z" />
    <glyph glyph-name="S" unicode="S" horiz-adv-x="601" 
d="M539.5 83q-42.5 -51 -106.5 -73.5t-131 -22.5q-101 0 -185 46.5t-112 134.5l138 79q22 -51 64.5 -79t100.5 -28q43 0 69.5 16.5t26.5 48.5q0 26 -18 43t-45 28t-76 25q-72 21 -117.5 42t-78.5 63.5t-33 111.5q0 76 39.5 127t103 76t136.5 25q96 0 168 -44t93 -125
l-140 -79q-16 45 -49.5 70t-81.5 25q-41 0 -66.5 -19t-25.5 -49q0 -23 17.5 -39t43.5 -26t74 -25q74 -22 120 -43.5t80 -64.5t34 -112q0 -81 -42.5 -132z" />
    <glyph glyph-name="T" unicode="T" horiz-adv-x="624" 
d="M7 732h610v-151h-220v-581h-170v581h-220v151z" />
    <glyph glyph-name="U" unicode="U" horiz-adv-x="772" 
d="M537 732h171v-436q0 -94 -38.5 -164t-111 -107.5t-172.5 -37.5t-172.5 37.5t-111 107.5t-38.5 164v436h171v-391q0 -102 40 -150t111 -48t111 48t40 150v391z" />
    <glyph glyph-name="V" unicode="V" horiz-adv-x="743" 
d="M201 732l179 -490l172 490h185l-289 -732h-145l-297 732h195z" />
    <glyph glyph-name="W" unicode="W" horiz-adv-x="1025" 
d="M585 732l140 -450l129 450h164l-231 -732h-131l-142 437l-138 -437h-130l-240 732h176l137 -450l132 450h134z" />
    <glyph glyph-name="X" unicode="X" horiz-adv-x="741" 
d="M725 732l-256 -355l269 -377h-211l-163 238l-166 -238h-196l269 373l-256 359h209l151 -220l153 220h197z" />
    <glyph glyph-name="Y" unicode="Y" horiz-adv-x="707" 
d="M363 446l153 286h184l-256 -454v-278h-171v277l-267 455h199z" />
    <glyph glyph-name="Z" unicode="Z" horiz-adv-x="598" 
d="M568 732v-97l-317 -483h331v-152h-569v97l319 484h-288v151h524z" />
    <glyph glyph-name="bracketleft" unicode="[" horiz-adv-x="394" 
d="M71 815h305v-148h-142v-630h142v-148h-305v926z" />
    <glyph glyph-name="backslash" unicode="\" horiz-adv-x="448" 
d="M9 732h156l274 -732h-156z" />
    <glyph glyph-name="bracketright" unicode="]" horiz-adv-x="394" 
d="M17 667v148h306v-926h-306v148h143v630h-143z" />
    <glyph glyph-name="asciicircum" unicode="^" horiz-adv-x="560" 
d="M175 314h-151l180 418h152l180 -418h-150l-106 248z" />
    <glyph glyph-name="underscore" unicode="_" horiz-adv-x="513" 
d="M0 -214v135h513v-135h-513z" />
    <glyph glyph-name="grave" unicode="`" horiz-adv-x="364" 
d="M56 749h161l93 -170h-125z" />
    <glyph glyph-name="a" unicode="a" horiz-adv-x="572" 
d="M460 468.5q61 -62.5 61 -176.5v-292h-137q-5 42 -7 56q-24 -35 -58 -52t-86 -17q-55 0 -100.5 19.5t-72 56t-26.5 86.5q0 52 29.5 91.5t79.5 60.5t109 21q55 0 108 -19q-7 98 -89 98q-69 0 -100 -64l-115 67q29 59 89.5 93t141.5 34q112 0 173 -62.5zM360 202
q-39 10 -74 10q-41 0 -65 -15t-24 -40q0 -23 18 -36t46 -13q38 0 68.5 22t30.5 59v13z" />
    <glyph glyph-name="b" unicode="b" horiz-adv-x="640" 
d="M492.5 499q53.5 -32 85 -93.5t31.5 -146.5q0 -84 -31.5 -145.5t-85 -94t-117.5 -32.5q-52 0 -94 21.5t-70 64.5q-5 -38 -7 -73h-145v761h163v-301q55 71 153 71q64 0 117.5 -32zM411 161q30 37 30 98q0 60 -29.5 94.5t-78.5 34.5q-47 0 -79 -32.5t-32 -96.5
q0 -65 32 -100t79 -35q48 0 78 37z" />
    <glyph glyph-name="c" unicode="c" horiz-adv-x="505" 
d="M349.5 141.5q20.5 13.5 36.5 39.5l123 -71q-24 -60 -81 -91.5t-129 -31.5q-69 0 -130.5 30.5t-100 92t-38.5 149.5t38.5 149.5t100 92t130.5 30.5q72 0 129 -31.5t81 -90.5l-123 -72q-17 26 -37.5 40t-49.5 14q-46 0 -73.5 -36.5t-27.5 -95.5t27.5 -95t73.5 -36
q30 0 50.5 13.5z" />
    <glyph glyph-name="d" unicode="d" horiz-adv-x="639" 
d="M417 761h163v-761h-145q-2 43 -7 73q-29 -43 -70.5 -64.5t-92.5 -21.5q-65 0 -118.5 32.5t-85 94t-31.5 145.5q0 85 31.5 146.5t85 93.5t118.5 32q97 0 152 -71v301zM385 159q32 35 32 100q0 64 -31.5 96.5t-78.5 32.5q-49 0 -79 -34.5t-30 -94.5q0 -61 30 -98t79 -37
q46 0 78 35z" />
    <glyph glyph-name="e" unicode="e" horiz-adv-x="562" 
d="M422.5 500.5q54.5 -30.5 84.5 -87.5t30 -133q0 -32 -6 -68h-331q11 -43 38 -66.5t66 -23.5q32 0 57.5 15t37.5 44l119 -71q-22 -59 -83 -91t-137 -32q-70 0 -131.5 31t-99 93t-37.5 150q0 87 37.5 148t98.5 91.5t131 30.5q71 0 125.5 -30.5zM234.5 380.5
q-23.5 -20.5 -34.5 -57.5h172q-4 38 -26 58t-54 20q-34 0 -57.5 -20.5z" />
    <glyph glyph-name="f" unicode="f" horiz-adv-x="400" 
d="M255 523v-6h136v-136h-136v-381h-163v381h-88v136h88v12q0 123 60.5 184.5t158.5 61.5q49 0 86.5 -14.5t59.5 -39.5l-62 -114q-31 28 -69 28q-71 0 -71 -112z" />
    <glyph glyph-name="g" unicode="g" horiz-adv-x="632" 
d="M580 517v-455q0 -160 -82.5 -233t-207.5 -73q-89 0 -155 37.5t-95 102.5l123 72q38 -72 127 -72q70 0 97 38t30 120q-51 -67 -142 -67q-65 0 -121 32.5t-90 94t-34 145.5t34 146t90 94t121 32q102 0 153 -84q5 26 7 70h145zM385 159q32 35 32 100q0 64 -31.5 96.5
t-78.5 32.5q-49 0 -79 -34.5t-30 -94.5q0 -61 30 -98t79 -37q46 0 78 35z" />
    <glyph glyph-name="h" unicode="h" horiz-adv-x="616" 
d="M514.5 474q49.5 -57 49.5 -168v-306h-163v251q0 65 -19.5 101t-64.5 36t-70 -38t-25 -106v-244h-163v761h163v-308q50 78 155 78q88 0 137.5 -57z" />
    <glyph glyph-name="i" unicode="i" horiz-adv-x="280" 
d="M73 600.5q-28 28.5 -28 67.5q0 40 27.5 68.5t67.5 28.5q38 0 66.5 -29t28.5 -68t-28 -67.5t-67 -28.5t-67 28.5zM222 0h-163v517h163v-517z" />
    <glyph glyph-name="j" unicode="j" horiz-adv-x="279" 
d="M73.5 600.5q-27.5 28.5 -27.5 67.5q0 40 27.5 68.5t65.5 28.5q39 0 67.5 -28.5t28.5 -68.5q0 -39 -28.5 -67.5t-67.5 -28.5q-38 0 -65.5 28.5zM-89.5 -228.5q-43.5 15.5 -72.5 46.5l87 109q25 -32 61 -32q39 0 56 30t17 91v501h163v-517q0 -81 -30.5 -136t-80.5 -81.5
t-110 -26.5q-47 0 -90.5 15.5z" />
    <glyph glyph-name="k" unicode="k" horiz-adv-x="606" 
d="M405 314l207 -314h-194l-122 192l-74 -81v-111h-163v761h163v-454l179 210h187z" />
    <glyph glyph-name="l" unicode="l" horiz-adv-x="282" 
d="M222 0h-163v761h163v-761z" />
    <glyph glyph-name="m" unicode="m" horiz-adv-x="882" 
d="M784 473q47 -58 47 -167v-306h-158v251q0 63 -15.5 100t-54.5 37q-38 0 -58 -38t-20 -106v-244h-159v251q0 63 -15.5 100t-53.5 37t-58.5 -38t-20.5 -106v-244h-159v517h140q5 -53 9 -74q50 88 146 88q51 0 90.5 -27t60.5 -79q50 106 156 106q76 0 123 -58z" />
    <glyph glyph-name="n" unicode="n" horiz-adv-x="616" 
d="M514.5 474q49.5 -57 49.5 -168v-306h-163v251q0 65 -19.5 101t-64.5 36t-70 -38t-25 -106v-244h-163v517h145q2 -50 9 -80q50 94 164 94q88 0 137.5 -57z" />
    <glyph glyph-name="o" unicode="o" horiz-adv-x="605" 
d="M67.5 403q37.5 62 100.5 95t135 33t134.5 -33t99.5 -95t37 -144q0 -83 -37 -144.5t-99 -94.5t-135 -33t-135.5 33t-100 94.5t-37.5 144.5q0 82 37.5 144zM227.5 162.5q29.5 -35.5 74.5 -35.5q44 0 73.5 35.5t29.5 96.5t-29.5 97t-73.5 36q-45 0 -74.5 -36t-29.5 -97
t29.5 -96.5z" />
    <glyph glyph-name="p" unicode="p" horiz-adv-x="640" 
d="M492.5 499q53.5 -32 85 -93.5t31.5 -146.5q0 -84 -31.5 -145.5t-85 -94t-117.5 -32.5q-98 0 -153 71v-290h-163v749h145q4 -56 7 -73q28 44 70 65.5t94 21.5q64 0 117.5 -32zM411 164.5q30 34.5 30 94.5q0 61 -30 98t-78 37q-47 0 -79 -35t-32 -100t31.5 -97t79.5 -32
t78 34.5z" />
    <glyph glyph-name="q" unicode="q" horiz-adv-x="639" 
d="M580 517v-749h-163v290q-55 -71 -152 -71q-65 0 -118.5 32.5t-85 94t-31.5 145.5q0 85 31.5 146.5t85 93.5t118.5 32q52 0 93.5 -21.5t69.5 -64.5q6 42 7 72h145zM385.5 162q31.5 32 31.5 97t-31.5 100t-78.5 35q-48 0 -78.5 -37t-30.5 -98q0 -60 30 -94.5t79 -34.5
q47 0 78.5 32z" />
    <glyph glyph-name="r" unicode="r" horiz-adv-x="456" 
d="M421.5 521q28.5 -10 42.5 -26l-63 -124q-32 21 -64 21q-53 0 -84 -44t-31 -119v-229h-163v517h145q2 -49 9 -80q23 46 61.5 70t86.5 24q32 0 60.5 -10z" />
    <glyph glyph-name="s" unicode="s" horiz-adv-x="474" 
d="M396.5 31.5q-62.5 -44.5 -160.5 -44.5q-84 0 -146 36t-85 99l118 69q13 -35 43.5 -54.5t70.5 -19.5q25 0 40 8.5t15 24.5q0 19 -21.5 30t-70.5 26q-53 15 -87.5 30t-59.5 44.5t-25 76.5q0 54 30 93.5t80 60t109 20.5q82 0 138 -35t71 -92l-118 -66q-29 63 -92 63
q-24 0 -37.5 -9.5t-13.5 -24.5q0 -19 20.5 -29t67.5 -24q52 -14 88 -30t62 -47t26 -81q0 -80 -62.5 -124.5z" />
    <glyph glyph-name="t" unicode="t" horiz-adv-x="448" 
d="M455 37q-56 -50 -158 -50q-91 0 -146 47.5t-55 168.5v177h-95v137h95v166h163v-166h158v-137h-158v-148q0 -50 15 -77.5t57 -27.5q34 0 67 23z" />
    <glyph glyph-name="u" unicode="u" horiz-adv-x="615" 
d="M392 517h163v-517h-144l-2 22q-4 45 -7 58q-51 -93 -162 -93q-88 0 -138.5 57t-50.5 168v305h163v-250q0 -62 17.5 -99.5t64.5 -37.5q46 0 71 38t25 106v243z" />
    <glyph glyph-name="v" unicode="v" horiz-adv-x="589" 
d="M182 517l121 -313l114 313h171l-224 -516h-133l-230 516h181z" />
    <glyph glyph-name="w" unicode="w" horiz-adv-x="842" 
d="M495 517l96 -292l91 292h159l-191 -516h-118l-109 287l-105 -287h-119l-198 516h168l97 -298l90 298h139z" />
    <glyph glyph-name="x" unicode="x" horiz-adv-x="557" 
d="M281 380l97 137h178l-191 -254l191 -263h-185l-96 138l-96 -138h-178l190 255l-190 262h185z" />
    <glyph glyph-name="y" unicode="y" horiz-adv-x="591" 
d="M418 517h172l-229 -574q-39 -99 -94 -143t-133 -44q-40 0 -75 11.5t-59 31.5l63 123q34 -23 69 -23q32 0 52 18.5t45 71.5l-228 528h181l125 -329z" />
    <glyph glyph-name="z" unicode="z" horiz-adv-x="487" 
d="M449 516v-96l-216 -292h233v-128h-441v98l216 290h-200v128h408z" />
    <glyph glyph-name="braceleft" unicode="{" horiz-adv-x="434" 
d="M307 524q0 -73 -25.5 -115t-81.5 -57q56 -15 81.5 -57t25.5 -115v-38q0 -59 19 -82t64 -23h26v-148h-59q-74 0 -120 17t-70 62t-24 127v60q0 43 -11 66t-35.5 33.5t-68.5 14.5v166q45 4 69.5 15t35 34t10.5 65v60q0 82 24 127t70 62t120 17h59v-148h-26q-45 0 -64 -23
t-19 -82v-38z" />
    <glyph glyph-name="bar" unicode="|" horiz-adv-x="250" 
d="M51 -111v926h148v-926h-148z" />
    <glyph glyph-name="braceright" unicode="}" horiz-adv-x="434" 
d="M127 562q0 59 -19 82t-64 23h-26v148h59q74 0 119.5 -17t69.5 -62t24 -127v-60q0 -42 10.5 -65t35.5 -34t70 -15v-166q-45 -4 -69.5 -14.5t-35.5 -34t-11 -65.5v-60q0 -82 -24 -127t-69.5 -62t-119.5 -17h-59v148h26q45 0 64 23t19 82v38q0 73 25.5 115t80.5 57
q-55 15 -80.5 57t-25.5 115v38z" />
    <glyph glyph-name="asciitilde" unicode="~" 
d="M44 255q0 97 42 162t126 65q49 0 76 -18.5t55 -51.5q16 -19 25.5 -27t21.5 -8q19 0 29 22t14 67h138q-1 -98 -43 -162.5t-127 -64.5q-49 0 -76 18.5t-54 52.5q-16 19 -25 27t-22 8q-19 0 -29 -22.5t-13 -67.5h-138z" />
    <glyph glyph-name="uni00A0" unicode="&#xa0;" horiz-adv-x="270" 
 />
    <glyph glyph-name="exclamdown" unicode="&#xa1;" horiz-adv-x="279" 
d="M206.5 513q27.5 -29 27.5 -68q0 -40 -27.5 -68.5t-66.5 -28.5q-38 0 -66.5 28.5t-28.5 68.5t28 68.5t67 28.5t66.5 -29zM202 280l24 -512h-172l23 512h125z" />
    <glyph glyph-name="cent" unicode="&#xa2;" 
d="M415 248q46 15 69 47l116 -72q-52 -94 -185 -111v-112h-145v117q-101 20 -161 83.5t-60 165.5t60 165.5t161 83.5v117h145v-112q133 -17 185 -111l-116 -72q-23 32 -69 47v-236zM270 257v218q-61 -30 -61 -109q0 -78 61 -109z" />
    <glyph glyph-name="sterling" unicode="&#xa3;" 
d="M609 145v-145h-563v131q69 38 100 70.5t31 76.5h-131v144h72q-18 47 -18 94q0 67 30 119t88 81.5t138 29.5q74 0 127.5 -26t84 -66.5t39.5 -85.5l-143 -84q-15 52 -41 78.5t-68 26.5q-39 0 -59 -22t-20 -63q0 -20 5 -39t14 -43h170v-144h-124v-8q1 -80 -58 -125h326z" />
    <glyph glyph-name="currency" unicode="&#xa4;" horiz-adv-x="622" 
d="M528 247l80 -80l-98 -97l-79 79q-55 -30 -120 -30q-63 0 -118 30l-80 -79l-98 97l80 81q-30 54 -30 118t30 119l-80 80l98 97l80 -80q54 31 118 31q66 0 119 -30l80 79l98 -97l-80 -80q31 -54 31 -119t-31 -119zM385 289.5q30 31.5 30 76.5t-30 76.5t-75 31.5
q-44 0 -72.5 -31t-28.5 -77t28.5 -77t72.5 -31q45 0 75 31.5z" />
    <glyph glyph-name="yen" unicode="&#xa5;" 
d="M316 527l111 205h179l-168 -296h113v-119h-152v-46h152v-120h-152v-151h-173v151h-153v120h153v46h-153v119h110l-175 296h193z" />
    <glyph glyph-name="brokenbar" unicode="&#xa6;" horiz-adv-x="250" 
d="M51 448v367h148v-367h-148zM51 -111v367h148v-367h-148z" />
    <glyph glyph-name="section" unicode="&#xa7;" horiz-adv-x="658" 
d="M298.5 483q33.5 -18 105.5 -39q72 -20 119 -41t80.5 -61t33.5 -104q0 -56 -27 -95t-73 -62q33 -42 33 -108q0 -73 -40.5 -122t-104 -72t-133.5 -23q-62 0 -119.5 20.5t-98 60t-54.5 93.5l140 77q14 -44 53 -70.5t88 -26.5q40 0 66 14.5t26 42.5q0 34 -33.5 52t-105.5 39
q-72 20 -119 41t-80.5 61t-33.5 104q0 56 27 95t73 62q-33 42 -33 108q0 73 40.5 122t104 72t133.5 23q62 0 119.5 -21t98 -60.5t54.5 -92.5l-139 -78q-15 45 -54 71.5t-88 26.5q-40 0 -66 -14.5t-26 -42.5q0 -34 33.5 -52zM216.5 240q17.5 -17 44.5 -27.5t75 -24.5
q37 -10 67 -21q25 5 40.5 18.5t15.5 35.5q0 24 -17.5 41t-44.5 27.5t-75 24.5q-37 10 -67 21q-25 -5 -40.5 -18.5t-15.5 -35.5q0 -24 17.5 -41z" />
    <glyph glyph-name="dieresis" unicode="&#xa8;" horiz-adv-x="523" 
d="M86 603.5q-24 25.5 -24 60.5t24 60t58 25q36 0 60 -25t24 -60t-24.5 -60.5t-59.5 -25.5q-34 0 -58 25.5zM318.5 603.5q-23.5 25.5 -23.5 60.5t23.5 60t58.5 25q34 0 59 -25t25 -60t-25 -60.5t-59 -25.5q-35 0 -58.5 25.5z" />
    <glyph glyph-name="copyright" unicode="&#xa9;" horiz-adv-x="836" 
d="M610 696.5q87 -49.5 137 -136.5t50 -194q0 -106 -50 -193t-137 -136.5t-194 -49.5q-106 0 -192.5 49.5t-136 136.5t-49.5 193q0 107 49.5 194t136 136.5t192.5 49.5q107 0 194 -49.5zM552.5 133q61.5 35 96.5 96.5t35 136.5t-35 136.5t-96.5 96.5t-136.5 35t-136 -35
t-95.5 -96.5t-34.5 -136.5t35 -136.5t95.5 -96.5t135.5 -35t136.5 35zM378.5 431.5q-19.5 -24.5 -19.5 -65.5t19.5 -65.5t52.5 -24.5q36 0 58 36l94 -56q-15 -43 -58.5 -67t-96.5 -24q-50 0 -95 22.5t-73 68t-28 110.5t28 110.5t73 68t95 22.5q53 0 96.5 -24t58.5 -67
l-94 -56q-22 36 -58 36q-33 0 -52.5 -24.5z" />
    <glyph glyph-name="ordfeminine" unicode="&#xaa;" horiz-adv-x="449" 
d="M354.5 684.5q48.5 -52.5 48.5 -141.5v-213h-106l-6 42q-18 -26 -44.5 -39t-65.5 -13q-65 0 -108.5 33.5t-43.5 90.5q0 40 23 70.5t61 47t83 16.5q41 0 81 -15q-4 37 -22 55.5t-48 18.5q-49 0 -73 -49l-88 52q22 45 67 71t105 26q88 0 136.5 -52.5zM254.5 429
q23.5 16 24.5 43q-36 18 -68 18q-25 0 -40.5 -11.5t-15.5 -28.5t13.5 -27t34.5 -10q28 0 51.5 16z" />
    <glyph glyph-name="guillemotleft" unicode="&#xab;" horiz-adv-x="635" 
d="M195 33l-185 229l185 229h170l-185 -229l185 -229h-170zM455 33l-185 229l185 229h170l-185 -229l185 -229h-170z" />
    <glyph glyph-name="logicalnot" unicode="&#xac;" 
d="M429 133v192h-386v143h528v-335h-142z" />
    <glyph glyph-name="uni00AD" unicode="&#xad;" horiz-adv-x="492" 
d="M56 294v136h381v-136h-381z" />
    <glyph glyph-name="registered" unicode="&#xae;" horiz-adv-x="505" 
d="M446.5 407.5q-30.5 -51.5 -82 -81.5t-111.5 -30q-61 0 -112.5 30.5t-82 82t-30.5 112.5t30.5 112.5t82 82t112.5 30.5t112.5 -31t81.5 -83t30 -113q0 -60 -30.5 -111.5zM389.5 602q-20.5 36 -56.5 57t-80 21t-80 -21t-56.5 -57t-20.5 -79q0 -45 20.5 -81.5t56 -58
t80.5 -21.5q60 0 103 38h-57l-55 87h-16v-87h-63v244h102q43 0 67 -22t24 -58q0 -27 -14 -46t-37 -27l59 -82q21 21 32.5 51t11.5 63q0 43 -20.5 79zM282.5 579.5q-8.5 6.5 -25.5 6.5h-29v-47h29q17 0 25.5 6.5t8.5 17.5q0 10 -8.5 16.5z" />
    <glyph glyph-name="macron" unicode="&#xaf;" horiz-adv-x="452" 
d="M50 609v104h352v-104h-352z" />
    <glyph glyph-name="degree" unicode="&#xb0;" horiz-adv-x="371" 
d="M29 783.5q24 41.5 65.5 65t91.5 23.5q52 0 93 -23.5t64 -64.5t23 -92q0 -50 -23 -90.5t-64 -64t-93 -23.5q-50 0 -91.5 23.5t-65.5 64t-24 90.5t24 91.5zM137.5 642q18.5 -20 48.5 -20t49.5 20t19.5 50q0 31 -19.5 51.5t-49.5 20.5t-48.5 -20t-18.5 -52q0 -30 18.5 -50z
" />
    <glyph glyph-name="plusminus" unicode="&#xb1;" 
d="M235 529v161h144v-161h192v-143h-192v-161h-144v161h-192v143h192zM43 175h528v-142h-528v142z" />
    <glyph glyph-name="uni00B2" unicode="&#xb2;" horiz-adv-x="351" 
d="M178 547h148v-87h-298v65l116 117q33 34 46.5 53.5t13.5 40.5q0 19 -10 30t-27 11q-23 0 -39.5 -16.5t-24.5 -43.5l-79 45q15 51 56 78.5t96 27.5q62 0 97.5 -35.5t35.5 -91.5q0 -38 -18.5 -70.5t-68.5 -80.5z" />
    <glyph glyph-name="uni00B3" unicode="&#xb3;" horiz-adv-x="342" 
d="M320 571q0 -55 -45.5 -87t-110.5 -32q-54 0 -92.5 23t-55.5 69l80 46q9 -25 26.5 -37t40.5 -12q20 0 35 9.5t15 28.5q0 42 -84 42h-11v83h18q32 0 49.5 12.5t17.5 29.5q0 16 -11.5 24t-29.5 8q-22 0 -38.5 -14t-24.5 -38l-77 44q15 47 55 72.5t92 25.5q60 0 99.5 -32
t39.5 -83q0 -28 -14.5 -50.5t-42.5 -35.5q69 -29 69 -96z" />
    <glyph glyph-name="acute" unicode="&#xb4;" horiz-adv-x="366" 
d="M56 579l94 170h160l-129 -170h-125z" />
    <glyph glyph-name="uni00B5" unicode="&#xb5;" horiz-adv-x="647" 
d="M645 10q-40 -23 -97 -23q-51 0 -83 23.5t-44 73.5q-22 -48 -57 -72.5t-80 -24.5q-35 0 -62 14v-233h-163v749h163v-250q0 -62 17.5 -99.5t64.5 -37.5q46 0 71 38t25 106v243h163v-334q0 -31 8.5 -43.5t25.5 -12.5t30 6z" />
    <glyph glyph-name="paragraph" unicode="&#xb6;" horiz-adv-x="674" 
d="M103.5 687.5q60.5 44.5 169.5 44.5h124v-732h-124v376q-108 0 -169 45t-61 133q0 89 60.5 133.5zM602 0h-125v732h125v-732z" />
    <glyph glyph-name="periodcentered" unicode="&#xb7;" horiz-adv-x="500" 
d="M182.5 293q-27.5 29 -27.5 68q0 41 27.5 69.5t66.5 28.5q40 0 68 -28.5t28 -69.5q0 -39 -28.5 -68t-67.5 -29t-66.5 29z" />
    <glyph glyph-name="cedilla" unicode="&#xb8;" horiz-adv-x="340" 
d="M114 27h100l-37 -86q48 -1 79 -23.5t31 -64.5q0 -50 -43.5 -73.5t-106.5 -23.5q-38 0 -84 13v73q38 -11 79 -11q48 0 48 20q0 10 -12 16t-33 6q-30 0 -61 -10l-10 52z" />
    <glyph glyph-name="uni00B9" unicode="&#xb9;" horiz-adv-x="293" 
d="M33 700v95l118 65h77v-401h-101v292z" />
    <glyph glyph-name="ordmasculine" unicode="&#xba;" horiz-adv-x="467" 
d="M54 639.5q29 47.5 77 72.5t104 25q55 0 102.5 -25t76 -72.5t28.5 -110.5q0 -64 -28.5 -111.5t-76 -72.5t-102.5 -25q-56 0 -104 25t-77 72.5t-29 111.5q0 63 29 110.5zM177 455q22 -27 57 -27q33 0 55 27.5t22 73.5t-22 73.5t-55 27.5q-35 0 -57 -27.5t-22 -73.5
q0 -47 22 -74z" />
    <glyph glyph-name="guillemotright" unicode="&#xbb;" horiz-adv-x="635" 
d="M180 491l185 -229l-185 -229h-170l185 229l-185 229h170zM440 491l185 -229l-185 -229h-170l185 229l-185 229h170z" />
    <glyph glyph-name="onequarter" unicode="&#xbc;" horiz-adv-x="833" 
d="M707 732l-492 -732h-111l492 732h111zM33 571v95l118 64h77v-400h-101v292zM755 244v-83h58v-86h-58v-74h-98v74h-181v69l141 258h105l-133 -241h68v83h98z" />
    <glyph glyph-name="onehalf" unicode="&#xbd;" horiz-adv-x="857" 
d="M707 732l-492 -732h-111l492 732h111zM33 571v95l118 64h77v-400h-101v292zM684 89h148v-88h-298v66l116 117q34 34 47 53.5t13 40.5q0 19 -10 30t-28 11q-22 0 -38.5 -16.5t-25.5 -43.5l-78 45q15 50 56 78t94 28q61 0 97.5 -36t36.5 -93q0 -37 -18 -69t-68 -80z" />
    <glyph glyph-name="threequarters" unicode="&#xbe;" horiz-adv-x="866" 
d="M320 441q0 -55 -45.5 -87t-110.5 -32q-54 0 -92.5 23t-55.5 69l80 46q9 -25 26.5 -37t40.5 -12q20 0 35 9.5t15 28.5q0 42 -84 42h-11v83h18q32 0 49.5 12.5t17.5 29.5q0 16 -11.5 24t-29.5 8q-22 0 -38.5 -14t-24.5 -38l-77 44q15 47 55 72.5t92 25.5q60 0 99.5 -32
t39.5 -83q0 -28 -14.5 -50.5t-42.5 -35.5q69 -29 69 -96zM740 732l-492 -732h-111l492 732h111zM787 244v-83h59v-86h-59v-74h-97v74h-181v69l141 258h104l-132 -241h68v83h97z" />
    <glyph glyph-name="questiondown" unicode="&#xbf;" horiz-adv-x="510" 
d="M343 514.5q27 -28.5 27 -67.5q0 -40 -27 -68.5t-66 -28.5t-67.5 28.5t-28.5 68.5q0 39 28.5 67.5t67.5 28.5t66 -28.5zM538 -54q-35 -94 -109.5 -142t-175.5 -48q-69 0 -125.5 22.5t-89.5 66t-33 104.5q0 44 17 77t40 56t63 54q36 27 55.5 45.5t31 43.5t7.5 57h132
q12 -34 12 -63q0 -34 -14.5 -61t-34.5 -46.5t-53 -45.5q-38 -29 -56 -49.5t-18 -45.5q0 -27 22 -43t58 -16q93 0 137 112z" />
    <glyph glyph-name="Agrave" unicode="&#xc0;" horiz-adv-x="749" 
d="M178 928h167l98 -133h-131zM446 732l297 -732h-180l-56 148h-277l-54 -148h-170l289 732h151zM453 291l-87 228l-83 -228h170z" />
    <glyph glyph-name="Aacute" unicode="&#xc1;" horiz-adv-x="749" 
d="M321 795l98 133h167l-134 -133h-131zM446 732l297 -732h-180l-56 148h-277l-54 -148h-170l289 732h151zM453 291l-87 228l-83 -228h170z" />
    <glyph glyph-name="Acircumflex" unicode="&#xc2;" horiz-adv-x="749" 
d="M321 928h121l137 -134h-136l-61 62l-62 -62h-136zM446 732l297 -732h-180l-56 148h-277l-54 -148h-170l289 732h151zM453 291l-87 228l-83 -228h170z" />
    <glyph glyph-name="Atilde" unicode="&#xc3;" horiz-adv-x="749" 
d="M178 805q2 54 38 88.5t93 34.5q35 0 57 -10t43 -27q13 -10 20 -14t16 -4q25 0 35 42h106q-2 -54 -38 -88.5t-93 -34.5q-35 0 -57 10t-43 27q-13 10 -20 14t-16 4q-25 0 -35 -42h-106zM446 732l297 -732h-180l-56 148h-277l-54 -148h-170l289 732h151zM453 291l-87 228
l-83 -228h170z" />
    <glyph glyph-name="Adieresis" unicode="&#xc4;" horiz-adv-x="749" 
d="M206 782q-24 25 -24 60t24 60.5t58 25.5q36 0 60 -25t24 -61q0 -35 -24 -60t-60 -25q-34 0 -58 25zM438.5 782.5q-23.5 25.5 -23.5 59.5q0 36 23.5 61t58.5 25t59.5 -25.5t24.5 -60.5t-24.5 -60t-59.5 -25t-58.5 25.5zM446 732l297 -732h-180l-56 148h-277l-54 -148h-170
l289 732h151zM453 291l-87 228l-83 -228h170z" />
    <glyph glyph-name="Aring" unicode="&#xc5;" horiz-adv-x="749" 
d="M291.5 907q36.5 21 90.5 21t89 -20.5t35 -52.5q0 -33 -35 -53.5t-89 -20.5t-90.5 20.5t-36.5 53.5q0 31 36.5 52zM350 834.5q12 -7.5 32 -7.5q19 0 30.5 7.5t11.5 20.5q0 12 -11.5 19.5t-30.5 7.5t-31.5 -8t-12.5 -19q0 -13 12 -20.5zM446 732l297 -732h-180l-56 148
h-277l-54 -148h-170l289 732h151zM453 291l-87 228l-83 -228h170z" />
    <glyph glyph-name="AE" unicode="&#xc6;" horiz-adv-x="1073" 
d="M988 295h-286v-147h331v-148h-502v149h-248l-90 -149h-192l471 732h549v-147h-319v-144h286v-146zM531 292v268l-162 -268h162z" />
    <glyph glyph-name="Ccedilla" unicode="&#xc7;" horiz-adv-x="695" 
d="M537 248l143 -84q-23 -68 -89 -117.5t-160 -57.5l-21 -46q48 -1 79 -24t31 -65q0 -50 -44 -74t-106 -24q-41 0 -84 12v75q41 -12 79 -12q22 0 35 5t13 16t-13 17t-35 6q-26 0 -58 -9l-10 51l35 76q-84 15 -150.5 64.5t-105 129.5t-38.5 180q0 113 48 199t130 133t181 47
q72 0 130.5 -24t97.5 -64.5t55 -88.5l-143 -84q-45 104 -144 104q-49 0 -88.5 -26.5t-63 -77t-23.5 -118.5t23.5 -119t63 -77.5t88.5 -26.5q99 0 144 104z" />
    <glyph glyph-name="Egrave" unicode="&#xc8;" 
d="M110 928h167l98 -133h-131zM529 295h-286v-147h331v-148h-502v732h490v-147h-319v-144h286v-146z" />
    <glyph glyph-name="Eacute" unicode="&#xc9;" 
d="M253 795l98 133h166l-133 -133h-131zM529 295h-286v-147h331v-148h-502v732h490v-147h-319v-144h286v-146z" />
    <glyph glyph-name="Ecircumflex" unicode="&#xca;" 
d="M253 928h120l138 -134h-136l-61 62l-63 -62h-135zM529 295h-286v-147h331v-148h-502v732h490v-147h-319v-144h286v-146z" />
    <glyph glyph-name="Edieresis" unicode="&#xcb;" 
d="M138 809.5q-24 20.5 -24 49.5q0 28 24 48.5t58 20.5q35 0 59.5 -20.5t24.5 -48.5q0 -29 -24 -49.5t-60 -20.5q-34 0 -58 20.5zM370 810q-24 21 -24 49t24 48.5t59 20.5q34 0 59 -20.5t25 -48.5q0 -29 -25 -49.5t-59 -20.5q-35 0 -59 21zM529 295h-286v-147h331v-148h-502
v732h490v-147h-319v-144h286v-146z" />
    <glyph glyph-name="Igrave" unicode="&#xcc;" horiz-adv-x="315" 
d="M-46 928h167l98 -133h-131zM243 0h-171v732h171v-732z" />
    <glyph glyph-name="Iacute" unicode="&#xcd;" horiz-adv-x="315" 
d="M97 795l98 133h166l-133 -133h-131zM243 0h-171v732h171v-732z" />
    <glyph glyph-name="Icircumflex" unicode="&#xce;" horiz-adv-x="315" 
d="M97 928h120l137 -134h-135l-61 62l-63 -62h-135zM243 0h-171v732h171v-732z" />
    <glyph glyph-name="Idieresis" unicode="&#xcf;" horiz-adv-x="315" 
d="M-18 809.5q-24 20.5 -24 49.5q0 28 24 48.5t58 20.5q35 0 59.5 -20.5t24.5 -48.5q0 -29 -24 -49.5t-60 -20.5q-34 0 -58 20.5zM214 810q-24 21 -24 49t24 48.5t59 20.5q34 0 59 -20.5t25 -48.5q0 -29 -25 -49.5t-59 -20.5q-35 0 -59 21zM243 0h-171v732h171v-732z" />
    <glyph glyph-name="Eth" unicode="&#xd0;" horiz-adv-x="789" 
d="M368 732q107 0 194 -43t137.5 -125.5t50.5 -196.5t-50.5 -197t-137 -126.5t-194.5 -43.5h-264v297h-83v152h83v283h264zM349 144q109 0 165 57.5t56 165.5q0 106 -56.5 163.5t-164.5 57.5h-74v-139h123v-152h-123v-153h74z" />
    <glyph glyph-name="Ntilde" unicode="&#xd1;" horiz-adv-x="769" 
d="M181 805q2 54 38 88.5t93 34.5q35 0 57 -10t43 -27q13 -10 20 -14t16 -4q25 0 35 42h106q-2 -55 -37.5 -89t-93.5 -34q-35 0 -57 10t-43 27q-13 10 -20 14t-16 4q-25 0 -35 -42h-106zM209 732l332 -444v444h156v-732h-137l-332 445v-445h-156v732h137z" />
    <glyph glyph-name="Ograve" unicode="&#xd2;" horiz-adv-x="792" 
d="M192 928h167l98 -133h-131zM85.5 569q47.5 86 129.5 131.5t181 45.5t180.5 -45.5t129.5 -131.5t48 -202q0 -117 -48 -203t-129.5 -131.5t-180.5 -45.5q-100 0 -181.5 45.5t-129 131.5t-47.5 203q0 116 47.5 202zM241.5 249q22.5 -51 62.5 -78.5t92 -27.5t92.5 27.5
t63 78.5t22.5 118q0 66 -22.5 116.5t-63 78t-92.5 27.5t-92 -27.5t-62.5 -78t-22.5 -116.5q0 -67 22.5 -118z" />
    <glyph glyph-name="Oacute" unicode="&#xd3;" horiz-adv-x="792" 
d="M335 795l98 133h167l-134 -133h-131zM85.5 569q47.5 86 129.5 131.5t181 45.5t180.5 -45.5t129.5 -131.5t48 -202q0 -117 -48 -203t-129.5 -131.5t-180.5 -45.5q-100 0 -181.5 45.5t-129 131.5t-47.5 203q0 116 47.5 202zM241.5 249q22.5 -51 62.5 -78.5t92 -27.5
t92.5 27.5t63 78.5t22.5 118q0 66 -22.5 116.5t-63 78t-92.5 27.5t-92 -27.5t-62.5 -78t-22.5 -116.5q0 -67 22.5 -118z" />
    <glyph glyph-name="Ocircumflex" unicode="&#xd4;" horiz-adv-x="792" 
d="M335 928h121l137 -134h-136l-61 62l-62 -62h-136zM85.5 569q47.5 86 129.5 131.5t181 45.5t180.5 -45.5t129.5 -131.5t48 -202q0 -117 -48 -203t-129.5 -131.5t-180.5 -45.5q-100 0 -181.5 45.5t-129 131.5t-47.5 203q0 116 47.5 202zM241.5 249q22.5 -51 62.5 -78.5
t92 -27.5t92.5 27.5t63 78.5t22.5 118q0 66 -22.5 116.5t-63 78t-92.5 27.5t-92 -27.5t-62.5 -78t-22.5 -116.5q0 -67 22.5 -118z" />
    <glyph glyph-name="Otilde" unicode="&#xd5;" horiz-adv-x="792" 
d="M192 804q2 55 38 89.5t93 34.5q35 0 57 -10t43 -27q13 -10 20 -14t16 -4q25 0 35 42h106q-2 -55 -37.5 -89t-93.5 -34q-35 0 -57 10t-43 27q-13 10 -20 14t-16 4q-26 0 -35 -43h-106zM85.5 569q47.5 86 129.5 131.5t181 45.5t180.5 -45.5t129.5 -131.5t48 -202
q0 -117 -48 -203t-129.5 -131.5t-180.5 -45.5q-100 0 -181.5 45.5t-129 131.5t-47.5 203q0 116 47.5 202zM241.5 249q22.5 -51 62.5 -78.5t92 -27.5t92.5 27.5t63 78.5t22.5 118q0 66 -22.5 116.5t-63 78t-92.5 27.5t-92 -27.5t-62.5 -78t-22.5 -116.5q0 -67 22.5 -118z" />
    <glyph glyph-name="Odieresis" unicode="&#xd6;" horiz-adv-x="792" 
d="M220 809.5q-24 20.5 -24 49.5q0 28 24 48.5t58 20.5q36 0 60.5 -20.5t24.5 -48.5q0 -29 -24.5 -49.5t-60.5 -20.5q-34 0 -58 20.5zM452.5 810q-23.5 21 -23.5 49t23.5 48.5t58.5 20.5t59.5 -20.5t24.5 -48.5q0 -29 -24.5 -49.5t-59.5 -20.5t-58.5 21zM85.5 569
q47.5 86 129.5 131.5t181 45.5t180.5 -45.5t129.5 -131.5t48 -202q0 -117 -48 -203t-129.5 -131.5t-180.5 -45.5q-100 0 -181.5 45.5t-129 131.5t-47.5 203q0 116 47.5 202zM241.5 249q22.5 -51 62.5 -78.5t92 -27.5t92.5 27.5t63 78.5t22.5 118q0 66 -22.5 116.5t-63 78
t-92.5 27.5t-92 -27.5t-62.5 -78t-22.5 -116.5q0 -67 22.5 -118z" />
    <glyph glyph-name="multiply" unicode="&#xd7;" 
d="M154 616l153 -154l154 154l100 -101l-154 -153l154 -153l-100 -101l-154 154l-153 -154l-100 101l153 153l-153 153z" />
    <glyph glyph-name="Oslash" unicode="&#xd8;" horiz-adv-x="793" 
d="M584 768h170l-93 -137q44 -50 68.5 -117.5t24.5 -146.5q0 -114 -48 -200.5t-129.5 -133t-179.5 -46.5q-82 0 -152 32l-36 -54h-170l93 137q-45 51 -69 118t-24 147q0 113 48 199t129.5 133t180.5 47q80 0 150 -32zM234 253l221 325q-23 11 -58 11q-54 0 -96.5 -27.5
t-66 -78t-23.5 -116.5q0 -65 23 -114zM559 479l-222 -325q25 -11 60 -11q54 0 95.5 27.5t64.5 78.5t23 118q0 64 -21 112z" />
    <glyph glyph-name="Ugrave" unicode="&#xd9;" horiz-adv-x="772" 
d="M183 928h167l98 -133h-131zM537 732h171v-436q0 -94 -38.5 -164t-111 -107.5t-172.5 -37.5t-172.5 37.5t-111 107.5t-38.5 164v436h171v-391q0 -102 40 -150t111 -48t111 48t40 150v391z" />
    <glyph glyph-name="Uacute" unicode="&#xda;" horiz-adv-x="772" 
d="M325 795l98 133h167l-134 -133h-131zM537 732h171v-436q0 -94 -38.5 -164t-111 -107.5t-172.5 -37.5t-172.5 37.5t-111 107.5t-38.5 164v436h171v-391q0 -102 40 -150t111 -48t111 48t40 150v391z" />
    <glyph glyph-name="Ucircumflex" unicode="&#xdb;" horiz-adv-x="772" 
d="M326 928h120l137 -134h-135l-62 62l-62 -62h-135zM537 732h171v-436q0 -94 -38.5 -164t-111 -107.5t-172.5 -37.5t-172.5 37.5t-111 107.5t-38.5 164v436h171v-391q0 -102 40 -150t111 -48t111 48t40 150v391z" />
    <glyph glyph-name="Udieresis" unicode="&#xdc;" horiz-adv-x="772" 
d="M210 809.5q-24 20.5 -24 49.5q0 28 24 48.5t58 20.5q36 0 60.5 -20.5t24.5 -48.5q0 -29 -24.5 -49.5t-60.5 -20.5q-34 0 -58 20.5zM443 810q-24 21 -24 49t24 48.5t59 20.5q34 0 58.5 -20.5t24.5 -48.5q0 -29 -24.5 -49.5t-58.5 -20.5q-35 0 -59 21zM537 732h171v-436
q0 -94 -38.5 -164t-111 -107.5t-172.5 -37.5t-172.5 37.5t-111 107.5t-38.5 164v436h171v-391q0 -102 40 -150t111 -48t111 48t40 150v391z" />
    <glyph glyph-name="Yacute" unicode="&#xdd;" horiz-adv-x="707" 
d="M300 795l98 133h167l-134 -133h-131zM363 446l153 286h184l-256 -454v-278h-171v277l-267 455h199z" />
    <glyph glyph-name="Thorn" unicode="&#xde;" horiz-adv-x="657" 
d="M337 614q92 0 160 -30.5t104.5 -86.5t36.5 -131t-36.5 -131t-104.5 -86t-160 -30h-94v-119h-171v732h171v-118h94zM318 263q54 0 97 20t43 83q0 59 -40 82t-100 23h-75v-208h75z" />
    <glyph glyph-name="germandbls" unicode="&#xdf;" horiz-adv-x="639" 
d="M578 323q39 -44 39 -121q0 -103 -67 -159t-178 -56q-63 0 -102 17v141q13 -8 35 -13t44 -5q43 0 71.5 22.5t28.5 69.5q0 55 -40.5 73.5t-86.5 18.5h-39v136h18q50 0 76.5 21.5t26.5 70.5q0 44 -20.5 67.5t-59.5 23.5q-58 0 -80 -50.5t-22 -132.5v-447h-163v461
q0 106 35.5 176t96.5 103.5t138 33.5q71 0 126.5 -28.5t86.5 -79t31 -115.5q0 -116 -97 -165q63 -19 102 -63z" />
    <glyph glyph-name="agrave" unicode="&#xe0;" horiz-adv-x="572" 
d="M258 749l94 -170h-125l-129 170h160zM460 468.5q61 -62.5 61 -176.5v-292h-137q-5 42 -7 56q-24 -35 -58 -52t-86 -17q-55 0 -100.5 19.5t-72 56t-26.5 86.5q0 52 29.5 91.5t79.5 60.5t109 21q55 0 108 -19q-7 98 -89 98q-69 0 -100 -64l-115 67q29 59 89.5 93t141.5 34
q112 0 173 -62.5zM360 202q-39 10 -74 10q-41 0 -65 -15t-24 -40q0 -23 18 -36t46 -13q38 0 68.5 22t30.5 59v13z" />
    <glyph glyph-name="aacute" unicode="&#xe1;" horiz-adv-x="572" 
d="M304 749h161l-130 -170h-124zM460 468.5q61 -62.5 61 -176.5v-292h-137q-5 42 -7 56q-24 -35 -58 -52t-86 -17q-55 0 -100.5 19.5t-72 56t-26.5 86.5q0 52 29.5 91.5t79.5 60.5t109 21q55 0 108 -19q-7 98 -89 98q-69 0 -100 -64l-115 67q29 59 89.5 93t141.5 34
q112 0 173 -62.5zM360 202q-39 10 -74 10q-41 0 -65 -15t-24 -40q0 -23 18 -36t46 -13q38 0 68.5 22t30.5 59v13z" />
    <glyph glyph-name="acircumflex" unicode="&#xe2;" horiz-adv-x="572" 
d="M338 579l-57 73l-57 -73h-135l134 170h115l135 -170h-135zM460 468.5q61 -62.5 61 -176.5v-292h-137q-5 42 -7 56q-24 -35 -58 -52t-86 -17q-55 0 -100.5 19.5t-72 56t-26.5 86.5q0 52 29.5 91.5t79.5 60.5t109 21q55 0 108 -19q-7 98 -89 98q-69 0 -100 -64l-115 67
q29 59 89.5 93t141.5 34q112 0 173 -62.5zM360 202q-39 10 -74 10q-41 0 -65 -15t-24 -40q0 -23 18 -36t46 -13q38 0 68.5 22t30.5 59v13z" />
    <glyph glyph-name="atilde" unicode="&#xe3;" horiz-adv-x="572" 
d="M184 592h-107q2 71 38 115t94 44q34 0 56 -12.5t43 -33.5q12 -12 20 -17.5t17 -5.5q25 0 34 54h106q-2 -71 -37.5 -115t-93.5 -44q-34 0 -55.5 12t-44.5 34q-12 12 -19.5 17.5t-16.5 5.5q-25 0 -34 -54zM460 468.5q61 -62.5 61 -176.5v-292h-137q-5 42 -7 56
q-24 -35 -58 -52t-86 -17q-55 0 -100.5 19.5t-72 56t-26.5 86.5q0 52 29.5 91.5t79.5 60.5t109 21q55 0 108 -19q-7 98 -89 98q-69 0 -100 -64l-115 67q29 59 89.5 93t141.5 34q112 0 173 -62.5zM360 202q-39 10 -74 10q-41 0 -65 -15t-24 -40q0 -23 18 -36t46 -13
q38 0 68.5 22t30.5 59v13z" />
    <glyph glyph-name="adieresis" unicode="&#xe4;" horiz-adv-x="572" 
d="M106 603.5q-24 25.5 -24 60.5t24 60t58 25q36 0 60.5 -25t24.5 -60q0 -36 -24.5 -61t-60.5 -25q-34 0 -58 25.5zM339 603.5q-24 25.5 -24 60.5t24 60t59 25q34 0 58.5 -25t24.5 -60t-24.5 -60.5t-58.5 -25.5q-35 0 -59 25.5zM460 468.5q61 -62.5 61 -176.5v-292h-137
q-5 42 -7 56q-24 -35 -58 -52t-86 -17q-55 0 -100.5 19.5t-72 56t-26.5 86.5q0 52 29.5 91.5t79.5 60.5t109 21q55 0 108 -19q-7 98 -89 98q-69 0 -100 -64l-115 67q29 59 89.5 93t141.5 34q112 0 173 -62.5zM360 202q-39 10 -74 10q-41 0 -65 -15t-24 -40q0 -23 18 -36
t46 -13q38 0 68.5 22t30.5 59v13z" />
    <glyph glyph-name="aring" unicode="&#xe5;" horiz-adv-x="572" 
d="M191.5 601q-36.5 35 -36.5 90q0 53 36.5 88.5t89.5 35.5q54 0 89 -35t35 -89q0 -55 -35 -90t-89 -35q-53 0 -89.5 35zM249.5 724q-12.5 -13 -12.5 -33t12.5 -33t31.5 -13t30.5 12.5t11.5 33.5t-11.5 33.5t-30.5 12.5t-31.5 -13zM460 468.5q61 -62.5 61 -176.5v-292h-137
q-5 42 -7 56q-24 -35 -58 -52t-86 -17q-55 0 -100.5 19.5t-72 56t-26.5 86.5q0 52 29.5 91.5t79.5 60.5t109 21q55 0 108 -19q-7 98 -89 98q-69 0 -100 -64l-115 67q29 59 89.5 93t141.5 34q112 0 173 -62.5zM360 202q-39 10 -74 10q-41 0 -65 -15t-24 -40q0 -23 18 -36
t46 -13q38 0 68.5 22t30.5 59v13z" />
    <glyph glyph-name="ae" unicode="&#xe6;" horiz-adv-x="891" 
d="M754.5 500.5q52.5 -30.5 82 -86.5t29.5 -131q0 -33 -6 -71h-331q10 -43 37.5 -66.5t66.5 -23.5q32 0 57.5 15t37.5 44l119 -71q-21 -58 -82.5 -90.5t-137.5 -32.5q-59 0 -107 22t-79 66q-28 -45 -72 -66.5t-112 -21.5q-98 0 -160.5 43.5t-62.5 118.5q0 52 29 91.5
t78.5 60.5t108.5 21q57 0 111 -19q-5 50 -29 74t-64 24q-34 0 -58.5 -17.5t-38.5 -46.5l-115 67q22 59 80.5 93t136.5 34q120 0 176 -81q34 40 81.5 60.5t102.5 20.5q69 0 121.5 -30.5zM702 323q-5 38 -27 58t-54 20q-34 0 -57.5 -20.5t-33.5 -57.5h172zM362 202
q-43 10 -79 10q-41 0 -63.5 -14t-22.5 -39q0 -24 19.5 -37.5t49.5 -13.5q38 0 67 22t29 59v13z" />
    <glyph glyph-name="ccedilla" unicode="&#xe7;" horiz-adv-x="505" 
d="M349.5 141.5q20.5 13.5 36.5 39.5l123 -71q-20 -51 -66 -81.5t-107 -38.5l-20 -47q48 -1 79 -23.5t31 -65.5q0 -51 -43.5 -74.5t-106.5 -23.5q-43 0 -84 13v75q37 -13 79 -13q48 0 48 21q0 10 -13 16.5t-33 6.5q-25 0 -60 -11l-11 52l36 78q-89 18 -148.5 86t-59.5 179
q0 88 38.5 149.5t100 92t130.5 30.5q72 0 129 -31.5t81 -90.5l-123 -72q-17 26 -37.5 40t-49.5 14q-46 0 -73.5 -36.5t-27.5 -95.5t27.5 -95t73.5 -36q30 0 50.5 13.5z" />
    <glyph glyph-name="egrave" unicode="&#xe8;" horiz-adv-x="562" 
d="M108 749h160l94 -170h-125zM422.5 500.5q54.5 -30.5 84.5 -87.5t30 -133q0 -32 -6 -68h-331q11 -43 38 -66.5t66 -23.5q32 0 57.5 15t37.5 44l119 -71q-22 -59 -83 -91t-137 -32q-70 0 -131.5 31t-99 93t-37.5 150q0 87 37.5 148t98.5 91.5t131 30.5q71 0 125.5 -30.5z
M234.5 380.5q-23.5 -20.5 -34.5 -57.5h172q-4 38 -26 58t-54 20q-34 0 -57.5 -20.5z" />
    <glyph glyph-name="eacute" unicode="&#xe9;" horiz-adv-x="562" 
d="M221 579l93 170h161l-130 -170h-124zM422.5 500.5q54.5 -30.5 84.5 -87.5t30 -133q0 -32 -6 -68h-331q11 -43 38 -66.5t66 -23.5q32 0 57.5 15t37.5 44l119 -71q-22 -59 -83 -91t-137 -32q-70 0 -131.5 31t-99 93t-37.5 150q0 87 37.5 148t98.5 91.5t131 30.5
q71 0 125.5 -30.5zM234.5 380.5q-23.5 -20.5 -34.5 -57.5h172q-4 38 -26 58t-54 20q-34 0 -57.5 -20.5z" />
    <glyph glyph-name="ecircumflex" unicode="&#xea;" horiz-adv-x="562" 
d="M233 749h115l135 -170h-135l-57 73l-57 -73h-135zM422.5 500.5q54.5 -30.5 84.5 -87.5t30 -133q0 -32 -6 -68h-331q11 -43 38 -66.5t66 -23.5q32 0 57.5 15t37.5 44l119 -71q-22 -59 -83 -91t-137 -32q-70 0 -131.5 31t-99 93t-37.5 150q0 87 37.5 148t98.5 91.5
t131 30.5q71 0 125.5 -30.5zM234.5 380.5q-23.5 -20.5 -34.5 -57.5h172q-4 38 -26 58t-54 20q-34 0 -57.5 -20.5z" />
    <glyph glyph-name="edieresis" unicode="&#xeb;" horiz-adv-x="562" 
d="M116 603.5q-24 25.5 -24 60.5t24 60t58 25q36 0 60.5 -25t24.5 -60q0 -36 -24.5 -61t-60.5 -25q-34 0 -58 25.5zM348.5 603.5q-23.5 25.5 -23.5 60.5t23.5 60t58.5 25t59.5 -25t24.5 -60t-24.5 -60.5t-59.5 -25.5t-58.5 25.5zM422.5 500.5q54.5 -30.5 84.5 -87.5t30 -133
q0 -32 -6 -68h-331q11 -43 38 -66.5t66 -23.5q32 0 57.5 15t37.5 44l119 -71q-22 -59 -83 -91t-137 -32q-70 0 -131.5 31t-99 93t-37.5 150q0 87 37.5 148t98.5 91.5t131 30.5q71 0 125.5 -30.5zM234.5 380.5q-23.5 -20.5 -34.5 -57.5h172q-4 38 -26 58t-54 20
q-34 0 -57.5 -20.5z" />
    <glyph glyph-name="igrave" unicode="&#xec;" horiz-adv-x="282" 
d="M-42 749h160l94 -170h-125zM59 0v517h163v-517h-163z" />
    <glyph glyph-name="iacute" unicode="&#xed;" horiz-adv-x="282" 
d="M71 579l93 170h161l-130 -170h-124zM59 0v517h163v-517h-163z" />
    <glyph glyph-name="icircumflex" unicode="&#xee;" horiz-adv-x="282" 
d="M83 749h115l135 -170h-135l-57 73l-57 -73h-135zM59 0v517h163v-517h-163z" />
    <glyph glyph-name="idieresis" unicode="&#xef;" horiz-adv-x="282" 
d="M-34 603.5q-24 25.5 -24 60.5t24 60t58 25q36 0 60.5 -25t24.5 -60t-24.5 -60.5t-60.5 -25.5q-34 0 -58 25.5zM199 603.5q-24 25.5 -24 60.5t24 60t59 25q34 0 58.5 -25t24.5 -60t-24.5 -60.5t-58.5 -25.5q-35 0 -59 25.5zM59 0v517h163v-517h-163z" />
    <glyph glyph-name="eth" unicode="&#xf0;" horiz-adv-x="604" 
d="M412 639q80 -72 121 -164t41 -195q0 -95 -37.5 -161.5t-99 -99t-134.5 -32.5t-135.5 31t-100 90.5t-37.5 139.5q0 78 37.5 137t98.5 90.5t128 31.5q31 0 58 -9q-30 38 -70 68l-142 -78l-44 85l92 52q-35 18 -88 38l76 112q89 -32 152 -72l130 72l46 -85zM376 153.5
q29 34.5 29 92.5t-29 92.5t-73 34.5q-45 0 -75 -34.5t-30 -92.5t30 -92.5t75 -34.5q44 0 73 34.5z" />
    <glyph glyph-name="ntilde" unicode="&#xf1;" horiz-adv-x="616" 
d="M110 593q2 71 37.5 115t93.5 44q35 0 56.5 -12.5t43.5 -34.5q12 -12 19.5 -17.5t16.5 -5.5q26 0 35 54h106q-2 -71 -38 -115t-93 -44q-35 0 -57 12.5t-43 33.5q-12 12 -19.5 17.5t-16.5 5.5q-26 0 -35 -53h-106zM514.5 474q49.5 -57 49.5 -168v-306h-163v251
q0 65 -19.5 101t-64.5 36t-70 -38t-25 -106v-244h-163v517h145q2 -50 9 -80q50 94 164 94q88 0 137.5 -57z" />
    <glyph glyph-name="ograve" unicode="&#xf2;" horiz-adv-x="605" 
d="M120 749h160l94 -170h-125zM67.5 403q37.5 62 100.5 95t135 33t134.5 -33t99.5 -95t37 -144q0 -83 -37 -144.5t-99 -94.5t-135 -33t-135.5 33t-100 94.5t-37.5 144.5q0 82 37.5 144zM227.5 162.5q29.5 -35.5 74.5 -35.5q44 0 73.5 35.5t29.5 96.5t-29.5 97t-73.5 36
q-45 0 -74.5 -36t-29.5 -97t29.5 -96.5z" />
    <glyph glyph-name="oacute" unicode="&#xf3;" horiz-adv-x="605" 
d="M232 579l94 170h161l-130 -170h-125zM67.5 403q37.5 62 100.5 95t135 33t134.5 -33t99.5 -95t37 -144q0 -83 -37 -144.5t-99 -94.5t-135 -33t-135.5 33t-100 94.5t-37.5 144.5q0 82 37.5 144zM227.5 162.5q29.5 -35.5 74.5 -35.5q44 0 73.5 35.5t29.5 96.5t-29.5 97
t-73.5 36q-45 0 -74.5 -36t-29.5 -97t29.5 -96.5z" />
    <glyph glyph-name="ocircumflex" unicode="&#xf4;" horiz-adv-x="605" 
d="M245 749h115l134 -170h-134l-57 73l-57 -73h-135zM67.5 403q37.5 62 100.5 95t135 33t134.5 -33t99.5 -95t37 -144q0 -83 -37 -144.5t-99 -94.5t-135 -33t-135.5 33t-100 94.5t-37.5 144.5q0 82 37.5 144zM227.5 162.5q29.5 -35.5 74.5 -35.5q44 0 73.5 35.5t29.5 96.5
t-29.5 97t-73.5 36q-45 0 -74.5 -36t-29.5 -97t29.5 -96.5z" />
    <glyph glyph-name="otilde" unicode="&#xf5;" horiz-adv-x="605" 
d="M99 592q2 71 38 115t93 44q35 0 57 -12.5t43 -33.5q12 -12 19.5 -17.5t16.5 -5.5q26 0 35 54h106q-2 -71 -37.5 -115t-93.5 -44q-35 0 -57 12.5t-43 33.5q-12 12 -19.5 17.5t-16.5 5.5q-26 0 -35 -54h-106zM67.5 403q37.5 62 100.5 95t135 33t134.5 -33t99.5 -95t37 -144
q0 -83 -37 -144.5t-99 -94.5t-135 -33t-135.5 33t-100 94.5t-37.5 144.5q0 82 37.5 144zM227.5 162.5q29.5 -35.5 74.5 -35.5q44 0 73.5 35.5t29.5 96.5t-29.5 97t-73.5 36q-45 0 -74.5 -36t-29.5 -97t29.5 -96.5z" />
    <glyph glyph-name="odieresis" unicode="&#xf6;" horiz-adv-x="605" 
d="M128 603.5q-24 25.5 -24 60.5t24 60t58 25q36 0 60 -25t24 -60q0 -36 -24 -61t-60 -25q-34 0 -58 25.5zM360.5 603.5q-23.5 25.5 -23.5 60.5t23.5 60t58.5 25t59.5 -25t24.5 -60t-24.5 -60.5t-59.5 -25.5t-58.5 25.5zM67.5 403q37.5 62 100.5 95t135 33t134.5 -33
t99.5 -95t37 -144q0 -83 -37 -144.5t-99 -94.5t-135 -33t-135.5 33t-100 94.5t-37.5 144.5q0 82 37.5 144zM227.5 162.5q29.5 -35.5 74.5 -35.5q44 0 73.5 35.5t29.5 96.5t-29.5 97t-73.5 36q-45 0 -74.5 -36t-29.5 -97t29.5 -96.5z" />
    <glyph glyph-name="divide" unicode="&#xf7;" 
d="M239.5 504q-27.5 29 -27.5 68q0 40 27.5 68.5t66.5 28.5q40 0 68 -28.5t28 -68.5q0 -39 -28 -68t-68 -29q-39 0 -66.5 29zM571 290h-528v144h528v-144zM239.5 84q-27.5 29 -27.5 68q0 40 27.5 68.5t66.5 28.5q40 0 68 -28.5t28 -68.5q0 -39 -28 -68t-68 -29
q-39 0 -66.5 29z" />
    <glyph glyph-name="oslash" unicode="&#xf8;" horiz-adv-x="599" 
d="M443 553h131l-73 -104q73 -75 73 -190q0 -83 -37 -144.5t-99 -94.5t-135 -33q-57 0 -110 22l-31 -44h-132l73 104q-73 75 -73 190q0 82 37.5 144t100.5 95t135 33q53 0 110 -21zM196 202l131 186q-9 4 -24 4q-50 0 -83 -36t-33 -97q0 -26 9 -57zM407 315l-129 -184
q11 -4 25 -4q49 0 81.5 35.5t32.5 96.5q0 33 -10 56z" />
    <glyph glyph-name="ugrave" unicode="&#xf9;" horiz-adv-x="615" 
d="M122 749h160l94 -170h-125zM392 517h163v-517h-144l-2 22q-4 45 -7 58q-51 -93 -162 -93q-88 0 -138.5 57t-50.5 168v305h163v-250q0 -62 17.5 -99.5t64.5 -37.5q46 0 71 38t25 106v243z" />
    <glyph glyph-name="uacute" unicode="&#xfa;" horiz-adv-x="615" 
d="M234 579l94 170h161l-130 -170h-125zM392 517h163v-517h-144l-2 22q-4 45 -7 58q-51 -93 -162 -93q-88 0 -138.5 57t-50.5 168v305h163v-250q0 -62 17.5 -99.5t64.5 -37.5q46 0 71 38t25 106v243z" />
    <glyph glyph-name="ucircumflex" unicode="&#xfb;" horiz-adv-x="615" 
d="M247 749h115l134 -170h-134l-57 73l-57 -73h-135zM392 517h163v-517h-144l-2 22q-4 45 -7 58q-51 -93 -162 -93q-88 0 -138.5 57t-50.5 168v305h163v-250q0 -62 17.5 -99.5t64.5 -37.5q46 0 71 38t25 106v243z" />
    <glyph glyph-name="udieresis" unicode="&#xfc;" horiz-adv-x="615" 
d="M130 603.5q-24 25.5 -24 60.5t24 60t58 25q36 0 60 -25t24 -60t-24.5 -60.5t-59.5 -25.5q-34 0 -58 25.5zM362.5 603.5q-23.5 25.5 -23.5 60.5t23.5 60t58.5 25t59.5 -25t24.5 -60t-24.5 -60.5t-59.5 -25.5t-58.5 25.5zM392 517h163v-517h-144l-2 22q-4 45 -7 58
q-51 -93 -162 -93q-88 0 -138.5 57t-50.5 168v305h163v-250q0 -62 17.5 -99.5t64.5 -37.5q46 0 71 38t25 106v243z" />
    <glyph glyph-name="yacute" unicode="&#xfd;" horiz-adv-x="591" 
d="M321 749h160l-129 -170h-125zM418 517h172l-229 -574q-39 -99 -94 -143t-133 -44q-40 0 -75 11.5t-59 31.5l63 123q34 -23 69 -23q32 0 52 18.5t45 71.5l-228 528h181l125 -329z" />
    <glyph glyph-name="thorn" unicode="&#xfe;" horiz-adv-x="640" 
d="M492.5 499q53.5 -32 85 -93.5t31.5 -146.5q0 -84 -31.5 -145.5t-85 -94t-117.5 -32.5q-98 0 -153 71v-290h-163v993h163v-301q55 71 153 71q64 0 117.5 -32zM411 164.5q30 34.5 30 94.5q0 61 -30 98t-78 37q-47 0 -79 -35t-32 -100t31.5 -97t79.5 -32t78 34.5z" />
    <glyph glyph-name="ydieresis" unicode="&#xff;" horiz-adv-x="591" 
d="M123 603.5q-24 25.5 -24 60.5t23.5 60t57.5 25q36 0 60.5 -25t24.5 -60t-24.5 -60.5t-60.5 -25.5q-33 0 -57 25.5zM355 603.5q-24 25.5 -24 60.5t24 60t59 25q34 0 58.5 -25t24.5 -60t-24.5 -60.5t-58.5 -25.5q-35 0 -59 25.5zM418 517h172l-229 -574q-39 -99 -94 -143
t-133 -44q-40 0 -75 11.5t-59 31.5l63 123q34 -23 69 -23q32 0 52 18.5t45 71.5l-228 528h181l125 -329z" />
    <glyph glyph-name="Amacron" unicode="&#x100;" horiz-adv-x="749" 
d="M206 823v104h352v-104h-352zM446 732l297 -732h-180l-56 148h-277l-54 -148h-170l289 732h151zM453 291l-87 228l-83 -228h170z" />
    <glyph glyph-name="amacron" unicode="&#x101;" horiz-adv-x="572" 
d="M105 713h352v-104h-352v104zM460 468.5q61 -62.5 61 -176.5v-292h-137q-5 42 -7 56q-24 -35 -58 -52t-86 -17q-55 0 -100.5 19.5t-72 56t-26.5 86.5q0 52 29.5 91.5t79.5 60.5t109 21q55 0 108 -19q-7 98 -89 98q-69 0 -100 -64l-115 67q29 59 89.5 93t141.5 34
q112 0 173 -62.5zM360 202q-39 10 -74 10q-41 0 -65 -15t-24 -40q0 -23 18 -36t46 -13q38 0 68.5 22t30.5 59v13z" />
    <glyph glyph-name="Abreve" unicode="&#x102;" horiz-adv-x="749" 
d="M246 829.5q-51 36.5 -51 98.5h123q8 -58 64 -58q59 0 65 58h123q0 -63 -51 -99t-137 -36q-85 0 -136 36.5zM446 732l297 -732h-180l-56 148h-277l-54 -148h-170l289 732h151zM453 291l-87 228l-83 -228h170z" />
    <glyph glyph-name="abreve" unicode="&#x103;" horiz-adv-x="572" 
d="M145.5 625q-51.5 46 -51.5 124h123q6 -74 64 -74t66 74h122q0 -78 -51 -124t-137 -46q-84 0 -135.5 46zM460 468.5q61 -62.5 61 -176.5v-292h-137q-5 42 -7 56q-24 -35 -58 -52t-86 -17q-55 0 -100.5 19.5t-72 56t-26.5 86.5q0 52 29.5 91.5t79.5 60.5t109 21
q55 0 108 -19q-7 98 -89 98q-69 0 -100 -64l-115 67q29 59 89.5 93t141.5 34q112 0 173 -62.5zM360 202q-39 10 -74 10q-41 0 -65 -15t-24 -40q0 -23 18 -36t46 -13q38 0 68.5 22t30.5 59v13z" />
    <glyph glyph-name="Aogonek" unicode="&#x104;" horiz-adv-x="749" 
d="M809 -192q-28 -27 -60.5 -39.5t-78.5 -12.5q-64 0 -104 27.5t-40 83.5q0 73 75 133h-38l-56 148h-277l-54 -148h-170l289 732h151l297 -732q-55 -31 -81 -57t-26 -54q0 -22 13 -32.5t35 -10.5q39 0 73 35zM366 519l-83 -228h170z" />
    <glyph glyph-name="aogonek" unicode="&#x105;" horiz-adv-x="572" 
d="M586 -188q-27 -28 -59.5 -42t-78.5 -14q-64 0 -104.5 29.5t-40.5 86.5q0 75 80 135q-1 8 -2.5 23.5t-3.5 25.5q-24 -35 -58 -51.5t-86 -17.5q-55 0 -100.5 19.5t-72 56t-26.5 86.5q0 52 29.5 91.5t79 60.5t108.5 21q55 0 108 -19q-7 98 -88 98q-69 0 -100 -64l-115 67
q29 59 89.5 93t141.5 34q112 0 173 -62.5t61 -176.5v-292q-55 -27 -81.5 -53t-26.5 -55q0 -39 47 -39q41 0 77 35zM360 202q-39 10 -74 10q-41 0 -65 -15t-24 -40q0 -23 18 -36t46 -13q38 0 68.5 22t30.5 59v13z" />
    <glyph glyph-name="Cacute" unicode="&#x106;" horiz-adv-x="695" 
d="M308 795l98 133h167l-134 -133h-131zM537 248l143 -84q-16 -48 -55 -88.5t-97.5 -64.5t-130.5 -24q-99 0 -181 47t-130 133.5t-48 199.5t48 199t130 133t181 47q72 0 130.5 -24t97.5 -64.5t55 -88.5l-143 -84q-45 104 -144 104q-49 0 -88.5 -26.5t-63 -77t-23.5 -118.5
t23.5 -119t63 -77.5t88.5 -26.5q99 0 144 104z" />
    <glyph glyph-name="cacute" unicode="&#x107;" horiz-adv-x="505" 
d="M213 579l93 170h161l-129 -170h-125zM349.5 141.5q20.5 13.5 36.5 39.5l123 -71q-24 -60 -81 -91.5t-129 -31.5q-69 0 -130.5 30.5t-100 92t-38.5 149.5t38.5 149.5t100 92t130.5 30.5q72 0 129 -31.5t81 -90.5l-123 -72q-17 26 -37.5 40t-49.5 14q-46 0 -73.5 -36.5
t-27.5 -95.5t27.5 -95t73.5 -36q30 0 50.5 13.5z" />
    <glyph glyph-name="Ccircumflex" unicode="&#x108;" horiz-adv-x="695" 
d="M309 928h120l137 -134h-135l-62 62l-62 -62h-135zM537 248l143 -84q-16 -48 -55 -88.5t-97.5 -64.5t-130.5 -24q-99 0 -181 47t-130 133.5t-48 199.5t48 199t130 133t181 47q72 0 130.5 -24t97.5 -64.5t55 -88.5l-143 -84q-45 104 -144 104q-49 0 -88.5 -26.5t-63 -77
t-23.5 -118.5t23.5 -119t63 -77.5t88.5 -26.5q99 0 144 104z" />
    <glyph glyph-name="ccircumflex" unicode="&#x109;" horiz-adv-x="505" 
d="M226 749h114l135 -170h-135l-57 73l-57 -73h-135zM349.5 141.5q20.5 13.5 36.5 39.5l123 -71q-24 -60 -81 -91.5t-129 -31.5q-69 0 -130.5 30.5t-100 92t-38.5 149.5t38.5 149.5t100 92t130.5 30.5q72 0 129 -31.5t81 -90.5l-123 -72q-17 26 -37.5 40t-49.5 14
q-46 0 -73.5 -36.5t-27.5 -95.5t27.5 -95t73.5 -36q30 0 50.5 13.5z" />
    <glyph glyph-name="Cdotaccent" unicode="&#x10a;" horiz-adv-x="695" 
d="M310.5 809.5q-23.5 20.5 -23.5 49.5q0 28 24 48.5t57 20.5q36 0 60.5 -20.5t24.5 -48.5q0 -29 -24.5 -49.5t-60.5 -20.5q-34 0 -57.5 20.5zM537 248l143 -84q-16 -48 -55 -88.5t-97.5 -64.5t-130.5 -24q-99 0 -181 47t-130 133.5t-48 199.5t48 199t130 133t181 47
q72 0 130.5 -24t97.5 -64.5t55 -88.5l-143 -84q-45 104 -144 104q-49 0 -88.5 -26.5t-63 -77t-23.5 -118.5t23.5 -119t63 -77.5t88.5 -26.5q99 0 144 104z" />
    <glyph glyph-name="cdotaccent" unicode="&#x10b;" horiz-adv-x="505" 
d="M216.5 600.5q-27.5 28.5 -27.5 67.5q0 40 27.5 68.5t66.5 28.5t67.5 -28.5t28.5 -68.5q0 -39 -28.5 -67.5t-67.5 -28.5t-66.5 28.5zM349.5 141.5q20.5 13.5 36.5 39.5l123 -71q-24 -60 -81 -91.5t-129 -31.5q-69 0 -130.5 30.5t-100 92t-38.5 149.5t38.5 149.5t100 92
t130.5 30.5q72 0 129 -31.5t81 -90.5l-123 -72q-17 26 -37.5 40t-49.5 14q-46 0 -73.5 -36.5t-27.5 -95.5t27.5 -95t73.5 -36q30 0 50.5 13.5z" />
    <glyph glyph-name="Ccaron" unicode="&#x10c;" horiz-adv-x="695" 
d="M307 928l62 -62l62 62h135l-137 -134h-120l-137 134h135zM537 248l143 -84q-16 -48 -55 -88.5t-97.5 -64.5t-130.5 -24q-99 0 -181 47t-130 133.5t-48 199.5t48 199t130 133t181 47q72 0 130.5 -24t97.5 -64.5t55 -88.5l-143 -84q-45 104 -144 104q-49 0 -88.5 -26.5
t-63 -77t-23.5 -118.5t23.5 -119t63 -77.5t88.5 -26.5q99 0 144 104z" />
    <glyph glyph-name="ccaron" unicode="&#x10d;" horiz-adv-x="505" 
d="M226 749l57 -74l57 74h135l-135 -170h-114l-135 170h135zM349.5 141.5q20.5 13.5 36.5 39.5l123 -71q-24 -60 -81 -91.5t-129 -31.5q-69 0 -130.5 30.5t-100 92t-38.5 149.5t38.5 149.5t100 92t130.5 30.5q72 0 129 -31.5t81 -90.5l-123 -72q-17 26 -37.5 40t-49.5 14
q-46 0 -73.5 -36.5t-27.5 -95.5t27.5 -95t73.5 -36q30 0 50.5 13.5z" />
    <glyph glyph-name="Dcaron" unicode="&#x10e;" horiz-adv-x="757" 
d="M258 928l62 -62l62 62h135l-137 -134h-120l-137 134h135zM336 732q107 0 194 -43t137.5 -125.5t50.5 -196.5t-50.5 -197t-137 -126.5t-194.5 -43.5h-264v732h264zM317 144q109 0 165 58t56 165q0 106 -56.5 163.5t-164.5 57.5h-74v-444h74z" />
    <glyph glyph-name="dcaron" unicode="&#x10f;" horiz-adv-x="701" 
d="M729.5 739q20.5 -23 20.5 -74q0 -68 -37 -107.5t-98 -47.5v64q25 4 40 14t21 29h-2q-28 0 -47 20.5t-19 53.5t19.5 52t49.5 19q32 0 52.5 -23zM417 761h163v-761h-145q-2 43 -7 73q-29 -43 -70.5 -64.5t-92.5 -21.5q-65 0 -118.5 32.5t-85 94t-31.5 145.5
q0 85 31.5 146.5t85 93.5t118.5 32q97 0 152 -71v301zM385 159q32 35 32 100q0 64 -31.5 96.5t-78.5 32.5q-49 0 -79 -34.5t-30 -94.5q0 -61 30 -98t79 -37q46 0 78 35z" />
    <glyph glyph-name="Dcroat" unicode="&#x110;" horiz-adv-x="789" 
d="M368 732q107 0 194 -43t137.5 -125.5t50.5 -196.5t-50.5 -197t-137 -126.5t-194.5 -43.5h-264v297h-83v152h83v283h264zM349 144q109 0 165 57.5t56 165.5q0 106 -56.5 163.5t-164.5 57.5h-74v-139h123v-152h-123v-153h74z" />
    <glyph glyph-name="dcroat" unicode="&#x111;" horiz-adv-x="639" 
d="M580 677h72v-111h-72v-566h-145q-2 43 -7 73q-29 -43 -70.5 -64.5t-92.5 -21.5q-65 0 -118.5 32.5t-85 94t-31.5 145.5q0 85 31.5 146.5t85 93.5t118.5 32q97 0 152 -71v106h-111v111h111v84h163v-84zM385 159q32 35 32 100q0 64 -31.5 96.5t-78.5 32.5q-49 0 -79 -34.5
t-30 -94.5q0 -61 30 -98t79 -37q46 0 78 35z" />
    <glyph glyph-name="Emacron" unicode="&#x112;" 
d="M138 822v105h352v-105h-352zM529 295h-286v-147h331v-148h-502v732h490v-147h-319v-144h286v-146z" />
    <glyph glyph-name="emacron" unicode="&#x113;" horiz-adv-x="562" 
d="M115 609v104h352v-104h-352zM422.5 500.5q54.5 -30.5 84.5 -87.5t30 -133q0 -32 -6 -68h-331q11 -43 38 -66.5t66 -23.5q32 0 57.5 15t37.5 44l119 -71q-22 -59 -83 -91t-137 -32q-70 0 -131.5 31t-99 93t-37.5 150q0 87 37.5 148t98.5 91.5t131 30.5q71 0 125.5 -30.5z
M234.5 380.5q-23.5 -20.5 -34.5 -57.5h172q-4 38 -26 58t-54 20q-34 0 -57.5 -20.5z" />
    <glyph glyph-name="Ebreve" unicode="&#x114;" 
d="M178 829.5q-51 36.5 -51 98.5h123q6 -58 64 -58q57 0 65 58h122q0 -63 -50.5 -99t-136.5 -36q-85 0 -136 36.5zM529 295h-286v-147h331v-148h-502v732h490v-147h-319v-144h286v-146z" />
    <glyph glyph-name="ebreve" unicode="&#x115;" horiz-adv-x="562" 
d="M155.5 625q-51.5 46 -51.5 124h123q6 -74 64 -74t66 74h122q0 -78 -51 -124t-137 -46q-84 0 -135.5 46zM422.5 500.5q54.5 -30.5 84.5 -87.5t30 -133q0 -32 -6 -68h-331q11 -43 38 -66.5t66 -23.5q32 0 57.5 15t37.5 44l119 -71q-22 -59 -83 -91t-137 -32
q-70 0 -131.5 31t-99 93t-37.5 150q0 87 37.5 148t98.5 91.5t131 30.5q71 0 125.5 -30.5zM234.5 380.5q-23.5 -20.5 -34.5 -57.5h172q-4 38 -26 58t-54 20q-34 0 -57.5 -20.5z" />
    <glyph glyph-name="Edotaccent" unicode="&#x116;" 
d="M255 809.5q-24 20.5 -24 49.5q0 28 24 48.5t58 20.5q35 0 59.5 -20.5t24.5 -48.5q0 -29 -24 -49.5t-60 -20.5q-34 0 -58 20.5zM529 295h-286v-147h331v-148h-502v732h490v-147h-319v-144h286v-146z" />
    <glyph glyph-name="edotaccent" unicode="&#x117;" horiz-adv-x="562" 
d="M224.5 600.5q-27.5 28.5 -27.5 67.5q0 40 27.5 68.5t66.5 28.5q38 0 66.5 -28.5t28.5 -68.5q0 -39 -28 -67.5t-67 -28.5t-66.5 28.5zM422.5 500.5q54.5 -30.5 84.5 -87.5t30 -133q0 -32 -6 -68h-331q11 -43 38 -66.5t66 -23.5q32 0 57.5 15t37.5 44l119 -71
q-22 -59 -83 -91t-137 -32q-70 0 -131.5 31t-99 93t-37.5 150q0 87 37.5 148t98.5 91.5t131 30.5q71 0 125.5 -30.5zM234.5 380.5q-23.5 -20.5 -34.5 -57.5h172q-4 38 -26 58t-54 20q-34 0 -57.5 -20.5z" />
    <glyph glyph-name="Eogonek" unicode="&#x118;" 
d="M639 -192q-27 -26 -59.5 -39t-78.5 -13q-65 0 -105 27.5t-40 83.5q0 72 76 133h-360v732h490v-147h-319v-144h286v-146h-286v-147h331v-148q-55 -30 -81.5 -56.5t-26.5 -55.5q0 -21 13 -32t35 -11q38 0 74 36z" />
    <glyph glyph-name="eogonek" unicode="&#x119;" horiz-adv-x="562" 
d="M422.5 500.5q54.5 -30.5 84.5 -87.5t30 -133q0 -32 -6 -68h-331q11 -43 38 -66.5t66 -23.5q32 0 57.5 15t37.5 44l119 -71q-17 -45 -64 -80q-72 -53 -97 -79.5t-25 -54.5q0 -43 49 -43q36 0 73 34l51 -75q-28 -28 -60.5 -42t-77.5 -14q-65 0 -105 27.5t-40 85.5
q0 33 14.5 61.5t42.5 56.5q-66 4 -123 36t-91.5 93t-34.5 145q0 87 37.5 148t98.5 91.5t131 30.5q71 0 125.5 -30.5zM372 323q-4 38 -26 58t-54 20q-34 0 -57.5 -20.5t-34.5 -57.5h172z" />
    <glyph glyph-name="Ecaron" unicode="&#x11a;" 
d="M251 928l63 -62l61 62h136l-138 -134h-120l-137 134h135zM529 295h-286v-147h331v-148h-502v732h490v-147h-319v-144h286v-146z" />
    <glyph glyph-name="ecaron" unicode="&#x11b;" horiz-adv-x="562" 
d="M234 749l57 -74l57 74h135l-135 -170h-115l-134 170h135zM422.5 500.5q54.5 -30.5 84.5 -87.5t30 -133q0 -32 -6 -68h-331q11 -43 38 -66.5t66 -23.5q32 0 57.5 15t37.5 44l119 -71q-22 -59 -83 -91t-137 -32q-70 0 -131.5 31t-99 93t-37.5 150q0 87 37.5 148t98.5 91.5
t131 30.5q71 0 125.5 -30.5zM234.5 380.5q-23.5 -20.5 -34.5 -57.5h172q-4 38 -26 58t-54 20q-34 0 -57.5 -20.5z" />
    <glyph glyph-name="Gcircumflex" unicode="&#x11c;" horiz-adv-x="732" 
d="M338 928h121l137 -133h-136l-61 61l-62 -61h-136zM396 271v146h296v-304q-35 -59 -112.5 -92.5t-170.5 -33.5q-109 0 -193.5 48t-131 134.5t-46.5 197.5q0 113 48.5 199.5t132.5 133t188 46.5q73 0 132.5 -23t99 -62t55.5 -87l-142 -82q-21 47 -58.5 73t-89.5 26
q-53 0 -96 -27t-68 -77.5t-25 -119.5q0 -105 55.5 -165.5t148.5 -60.5q70 0 107 37v93h-130z" />
    <glyph glyph-name="gcircumflex" unicode="&#x11d;" horiz-adv-x="632" 
d="M360 579l-56 73l-58 -73h-135l135 170h115l134 -170h-135zM580 517v-455q0 -160 -82.5 -233t-207.5 -73q-89 0 -155 37.5t-95 102.5l123 72q38 -72 127 -72q70 0 97 38t30 120q-51 -67 -142 -67q-65 0 -121 32.5t-90 94t-34 145.5t34 146t90 94t121 32q102 0 153 -84
q5 26 7 70h145zM385 159q32 35 32 100q0 64 -31.5 96.5t-78.5 32.5q-49 0 -79 -34.5t-30 -94.5q0 -61 30 -98t79 -37q46 0 78 35z" />
    <glyph glyph-name="Gbreve" unicode="&#x11e;" horiz-adv-x="732" 
d="M263 829.5q-51 35.5 -51 97.5h123q8 -58 64 -58q59 0 65 58h123q0 -62 -51 -97.5t-137 -35.5q-85 0 -136 35.5zM396 271v146h296v-304q-35 -59 -112.5 -92.5t-170.5 -33.5q-109 0 -193.5 48t-131 134.5t-46.5 197.5q0 113 48.5 199.5t132.5 133t188 46.5q73 0 132.5 -23
t99 -62t55.5 -87l-142 -82q-21 47 -58.5 73t-89.5 26q-53 0 -96 -27t-68 -77.5t-25 -119.5q0 -105 55.5 -165.5t148.5 -60.5q70 0 107 37v93h-130z" />
    <glyph glyph-name="gbreve" unicode="&#x11f;" horiz-adv-x="632" 
d="M168 625q-51 46 -51 124h122q8 -74 65 -74q59 0 65 74h123q0 -78 -51.5 -124t-136.5 -46t-136 46zM580 517v-455q0 -160 -82.5 -233t-207.5 -73q-89 0 -155 37.5t-95 102.5l123 72q38 -72 127 -72q70 0 97 38t30 120q-51 -67 -142 -67q-65 0 -121 32.5t-90 94t-34 145.5
t34 146t90 94t121 32q102 0 153 -84q5 26 7 70h145zM385 159q32 35 32 100q0 64 -31.5 96.5t-78.5 32.5q-49 0 -79 -34.5t-30 -94.5q0 -61 30 -98t79 -37q46 0 78 35z" />
    <glyph glyph-name="Gdotaccent" unicode="&#x120;" horiz-adv-x="732" 
d="M340 810.5q-24 20.5 -24 48.5t24 48.5t58 20.5q36 0 60.5 -20.5t24.5 -48.5t-24.5 -48.5t-60.5 -20.5q-34 0 -58 20.5zM396 271v146h296v-304q-35 -59 -112.5 -92.5t-170.5 -33.5q-109 0 -193.5 48t-131 134.5t-46.5 197.5q0 113 48.5 199.5t132.5 133t188 46.5
q73 0 132.5 -23t99 -62t55.5 -87l-142 -82q-21 47 -58.5 73t-89.5 26q-53 0 -96 -27t-68 -77.5t-25 -119.5q0 -105 55.5 -165.5t148.5 -60.5q70 0 107 37v93h-130z" />
    <glyph glyph-name="gdotaccent" unicode="&#x121;" horiz-adv-x="632" 
d="M237.5 600.5q-27.5 28.5 -27.5 67.5q0 40 27.5 68.5t66.5 28.5q38 0 66.5 -29t28.5 -68t-28 -67.5t-67 -28.5t-66.5 28.5zM580 517v-455q0 -160 -82.5 -233t-207.5 -73q-89 0 -155 37.5t-95 102.5l123 72q38 -72 127 -72q70 0 97 38t30 120q-51 -67 -142 -67
q-65 0 -121 32.5t-90 94t-34 145.5t34 146t90 94t121 32q102 0 153 -84q5 26 7 70h145zM385 159q32 35 32 100q0 64 -31.5 96.5t-78.5 32.5q-49 0 -79 -34.5t-30 -94.5q0 -61 30 -98t79 -37q46 0 78 35z" />
    <glyph glyph-name="uni0122" unicode="&#x122;" horiz-adv-x="732" 
d="M526 271h-130v146h296v-304q-35 -59 -112.5 -92.5t-170.5 -33.5q-109 0 -193.5 48t-131 134.5t-46.5 197.5q0 113 48.5 199.5t132.5 133t188 46.5q73 0 132.5 -23t99 -62t55.5 -87l-142 -82q-21 47 -58.5 73t-89.5 26q-53 0 -96 -27t-68 -77.5t-25 -119.5
q0 -105 55.5 -165.5t148.5 -60.5q70 0 107 37v93zM466.5 -53q26.5 -23 26.5 -69q0 -56 -44.5 -88.5t-127.5 -33.5v61q64 3 78 30h-4q-38 1 -60.5 16t-22.5 43q0 29 23.5 46.5t60.5 17.5q44 0 70.5 -23z" />
    <glyph glyph-name="uni0123" unicode="&#x123;" horiz-adv-x="632" 
d="M237 603.5q-28 31.5 -28 90.5q0 78 48 129.5t124 61.5v-80q-32 -4 -51.5 -16.5t-27.5 -36.5h4q36 -1 60 -26.5t24 -62.5q0 -38 -24 -64.5t-60 -26.5q-41 0 -69 31.5zM580 517v-455q0 -160 -82.5 -233t-207.5 -73q-89 0 -155 37.5t-95 102.5l123 72q38 -72 127 -72
q70 0 97 38t30 120q-51 -67 -142 -67q-65 0 -121 32.5t-90 94t-34 145.5t34 146t90 94t121 32q102 0 153 -84q5 26 7 70h145zM385 159q32 35 32 100q0 64 -31.5 96.5t-78.5 32.5q-49 0 -79 -34.5t-30 -94.5q0 -61 30 -98t79 -37q46 0 78 35z" />
    <glyph glyph-name="Hcircumflex" unicode="&#x124;" horiz-adv-x="788" 
d="M334 928h120l137 -134h-135l-62 62l-62 -62h-136zM243 455h302v277h171v-732h-171v304h-302v-304h-171v732h171v-277z" />
    <glyph glyph-name="hcircumflex" unicode="&#x125;" horiz-adv-x="616" 
d="M84 928h114l135 -120h-135l-57 51l-57 -51h-135zM514.5 474q49.5 -57 49.5 -168v-306h-163v251q0 65 -19.5 101t-64.5 36t-70 -38t-25 -106v-244h-163v761h163v-308q50 78 155 78q88 0 137.5 -57z" />
    <glyph glyph-name="Hbar" unicode="&#x126;" horiz-adv-x="831" 
d="M737 732v-93h70v-117h-70v-522h-170v298h-303v-298h-170v522h-70v117h70v93h170v-93h303v93h170zM264 522v-73h303v73h-303z" />
    <glyph glyph-name="hbar" unicode="&#x127;" horiz-adv-x="628" 
d="M526.5 474q49.5 -57 49.5 -168v-306h-165v251q0 66 -18.5 101.5t-63.5 35.5t-70 -38t-25 -106v-244h-163v566h-72v111h72v84h163v-84h133v-111h-133v-113q50 78 155 78q88 0 137.5 -57z" />
    <glyph glyph-name="Itilde" unicode="&#x128;" horiz-adv-x="315" 
d="M-46 804q2 55 37.5 89.5t93.5 34.5q34 0 55.5 -10t44.5 -27q13 -10 20 -14t16 -4q26 0 34 42h107q-2 -54 -38 -88.5t-94 -34.5q-34 0 -56 10t-43 27q-12 9 -20 13.5t-17 4.5q-25 0 -34 -43h-106zM243 0h-171v732h171v-732z" />
    <glyph glyph-name="itilde" unicode="&#x129;" horiz-adv-x="282" 
d="M-63 593q2 70 38 114.5t94 44.5q35 0 56.5 -12.5t42.5 -34.5q13 -12 20.5 -17.5t16.5 -5.5q25 0 34 54h106q-2 -71 -37.5 -115t-93.5 -44q-34 0 -55.5 12t-44.5 34q-12 12 -19.5 17.5t-16.5 5.5q-25 0 -34 -53h-107zM59 0v517h163v-517h-163z" />
    <glyph glyph-name="Imacron" unicode="&#x12a;" horiz-adv-x="315" 
d="M-18 822v105h352v-105h-352zM243 0h-171v732h171v-732z" />
    <glyph glyph-name="imacron" unicode="&#x12b;" horiz-adv-x="282" 
d="M-35 609v104h352v-104h-352zM59 0v517h163v-517h-163z" />
    <glyph glyph-name="Ibreve" unicode="&#x12c;" horiz-adv-x="315" 
d="M22 829.5q-51 36.5 -51 98.5h123q6 -58 64 -58q57 0 65 58h122q0 -63 -50.5 -99t-136.5 -36q-85 0 -136 36.5zM243 0h-171v732h171v-732z" />
    <glyph glyph-name="ibreve" unicode="&#x12d;" horiz-adv-x="282" 
d="M5.5 625q-51.5 46 -51.5 124h123q6 -74 64 -74t66 74h122q0 -78 -51 -124t-137 -46q-84 0 -135.5 46zM59 0v517h163v-517h-163z" />
    <glyph glyph-name="Iogonek" unicode="&#x12e;" horiz-adv-x="315" 
d="M308 -192q-27 -26 -59.5 -39t-78.5 -13q-65 0 -105 27.5t-40 83.5q0 73 75 133h-28v732h171v-732q-55 -30 -81.5 -56.5t-26.5 -55.5q0 -21 13 -32t35 -11q38 0 74 36z" />
    <glyph glyph-name="iogonek" unicode="&#x12f;" horiz-adv-x="282" 
d="M74.5 600.5q-27.5 28.5 -27.5 67.5q0 40 27.5 68.5t66.5 28.5q38 0 66.5 -28.5t28.5 -68.5q0 -39 -28 -67.5t-67 -28.5t-66.5 28.5zM288 -188q-28 -28 -61 -42t-78 -14q-64 0 -104 29.5t-40 86.5q0 38 18.5 69t52.5 59h-17v517h163v-517q-54 -27 -80.5 -53t-26.5 -55
q0 -39 46 -39q21 0 39.5 8t38.5 27z" />
    <glyph glyph-name="Idotaccent" unicode="&#x130;" horiz-adv-x="315" 
d="M99 809.5q-24 20.5 -24 49.5q0 28 24 48.5t58 20.5q35 0 59.5 -20.5t24.5 -48.5q0 -29 -24 -49.5t-60 -20.5q-34 0 -58 20.5zM243 0h-171v732h171v-732z" />
    <glyph glyph-name="dotlessi" unicode="&#x131;" horiz-adv-x="282" 
d="M59 0v517h163v-517h-163z" />
    <glyph glyph-name="IJ" unicode="&#x132;" horiz-adv-x="864" 
d="M243 0h-171v732h171v-732zM394 29q-63 42 -82 129l142 75q12 -45 33.5 -67.5t58.5 -22.5q46 0 64.5 35.5t18.5 112.5v441h171v-458q0 -153 -72.5 -220t-183.5 -67q-87 0 -150 42z" />
    <glyph glyph-name="ij" unicode="&#x133;" horiz-adv-x="559" 
d="M73 600.5q-28 28.5 -28 67.5q0 40 27.5 68.5t67.5 28.5q38 0 66.5 -29t28.5 -68t-28 -67.5t-67 -28.5t-67 28.5zM352.5 600.5q-27.5 28.5 -27.5 67.5q0 40 27.5 68.5t65.5 28.5q39 0 67.5 -28.5t28.5 -68.5q0 -39 -28.5 -67.5t-67.5 -28.5q-38 0 -65.5 28.5zM222 0h-163
v517h163v-517zM189.5 -228.5q-43.5 15.5 -71.5 46.5l86 109q25 -32 61 -32q39 0 56 30t17 91v501h164v-517q0 -81 -30.5 -136t-81 -81.5t-110.5 -26.5q-47 0 -90.5 15.5z" />
    <glyph glyph-name="Jcircumflex" unicode="&#x134;" horiz-adv-x="550" 
d="M339 928h121l137 -134h-136l-61 62l-62 -62h-136zM79 29q-63 42 -82 129l143 75q11 -45 32.5 -67.5t58.5 -22.5q46 0 65 35.5t19 112.5v441h171v-458q0 -153 -72.5 -220t-184.5 -67q-87 0 -150 42z" />
    <glyph glyph-name="jcircumflex" unicode="&#x135;" horiz-adv-x="279" 
d="M83 749h114l135 -170h-135l-57 73l-57 -73h-135zM-89.5 -228.5q-43.5 15.5 -72.5 46.5l87 109q25 -32 61 -32q39 0 56 30t17 91v501h163v-517q0 -81 -30.5 -136t-80.5 -81.5t-110 -26.5q-47 0 -90.5 15.5z" />
    <glyph glyph-name="uni0136" unicode="&#x136;" horiz-adv-x="771" 
d="M522 732h211l-273 -292l305 -440h-220l-210 307l-92 -100v-207h-171v732h171v-320zM467.5 -53q26.5 -23 26.5 -69q0 -56 -44.5 -88.5t-127.5 -33.5v61q64 3 78 30h-4q-38 1 -60.5 16t-22.5 43q0 29 23.5 46.5t60.5 17.5q44 0 70.5 -23z" />
    <glyph glyph-name="uni0137" unicode="&#x137;" horiz-adv-x="608" 
d="M402 517h188l-184 -203l208 -314h-195l-123 192l-73 -81v-111h-164v761h164v-454zM389.5 -53q26.5 -23 26.5 -69q0 -56 -44.5 -88.5t-127.5 -33.5v61q64 3 78 30h-4q-38 1 -60.5 16t-22.5 43q0 29 23.5 46.5t60.5 17.5q44 0 70.5 -23z" />
    <glyph glyph-name="kgreenlandic" unicode="&#x138;" horiz-adv-x="606" 
d="M405 314l207 -314h-194l-122 192l-74 -81v-111h-163v517h163v-210l179 210h187z" />
    <glyph glyph-name="Lacute" unicode="&#x139;" horiz-adv-x="586" 
d="M97 796l98 132h166l-133 -132h-131zM72 732h171v-580h321v-152h-492v732z" />
    <glyph glyph-name="lacute" unicode="&#x13a;" horiz-adv-x="282" 
d="M80 809l98 119h167l-134 -119h-131zM222 0h-163v761h163v-761z" />
    <glyph glyph-name="uni013B" unicode="&#x13b;" horiz-adv-x="586" 
d="M72 732h171v-580h321v-152h-492v732zM398.5 -53q26.5 -23 26.5 -69q0 -56 -44.5 -88.5t-127.5 -33.5v61q64 3 78 30h-4q-38 1 -60.5 16t-22.5 43q0 29 23.5 46.5t60.5 17.5q44 0 70.5 -23z" />
    <glyph glyph-name="uni013C" unicode="&#x13c;" horiz-adv-x="282" 
d="M59 0v761h163v-761h-163zM208.5 -53q26.5 -23 26.5 -69q0 -57 -44 -89t-128 -33v61q64 3 78 30h-4q-38 1 -60.5 16t-22.5 43q0 29 23.5 46.5t60.5 17.5q44 0 70.5 -23z" />
    <glyph glyph-name="Lcaron" unicode="&#x13d;" horiz-adv-x="586" 
d="M464 494.5q-48 -51.5 -124 -61.5v80q32 5 51.5 17t26.5 36h-1q-37 1 -61.5 26.5t-24.5 62.5q0 38 24 64.5t60 26.5q41 0 69 -31.5t28 -90.5q0 -78 -48 -129.5zM72 732h171v-580h321v-152h-492v732z" />
    <glyph glyph-name="lcaron" unicode="&#x13e;" horiz-adv-x="344" 
d="M372.5 739q20.5 -23 20.5 -74q0 -68 -37 -107.5t-98 -47.5v64q25 4 40 14t21 29h-3q-28 0 -46.5 20.5t-18.5 53.5q0 34 19 52.5t50 18.5q32 0 52.5 -23zM222 0h-163v761h163v-761z" />
    <glyph glyph-name="Ldot" unicode="&#x13f;" horiz-adv-x="586" 
d="M72 732h171v-580h321v-152h-492v732zM345.5 342q-27.5 29 -27.5 68q0 41 27 69t67 28q39 0 67.5 -28.5t28.5 -68.5q0 -39 -28.5 -68t-67.5 -29t-66.5 29z" />
    <glyph glyph-name="ldot" unicode="&#x140;" horiz-adv-x="378" 
d="M222 0h-163v761h163v-761zM269.5 318q-23.5 23 -23.5 64q0 42 23.5 65t59.5 23q37 0 61 -23t24 -65q0 -41 -24 -64t-61 -23q-36 0 -59.5 23z" />
    <glyph glyph-name="Lslash" unicode="&#x141;" horiz-adv-x="608" 
d="M404 397l-140 -67v-178h321v-152h-491v246l-84 -40v165l84 40v321h170v-237l140 67v-165z" />
    <glyph glyph-name="lslash" unicode="&#x142;" horiz-adv-x="328" 
d="M246 761v-246l72 44v-165l-72 -44v-350h-163v250l-72 -43v165l72 43v346h163z" />
    <glyph glyph-name="Nacute" unicode="&#x143;" horiz-adv-x="769" 
d="M324 795l98 132h167l-134 -132h-131zM209 732l332 -444v444h156v-732h-137l-332 445v-445h-156v732h137z" />
    <glyph glyph-name="nacute" unicode="&#x144;" horiz-adv-x="616" 
d="M243 579l94 170h160l-129 -170h-125zM514.5 474q49.5 -57 49.5 -168v-306h-163v251q0 65 -19.5 101t-64.5 36t-70 -38t-25 -106v-244h-163v517h145q2 -50 9 -80q50 94 164 94q88 0 137.5 -57z" />
    <glyph glyph-name="uni0145" unicode="&#x145;" horiz-adv-x="769" 
d="M209 732l332 -444v444h156v-732h-137l-332 445v-445h-156v732h137zM452.5 -53q26.5 -23 26.5 -69q0 -56 -44.5 -88.5t-127.5 -33.5v61q64 3 78 30h-4q-38 1 -60.5 16t-22.5 43q0 29 23.5 46.5t60.5 17.5q44 0 70.5 -23z" />
    <glyph glyph-name="uni0146" unicode="&#x146;" horiz-adv-x="616" 
d="M514.5 474q49.5 -57 49.5 -168v-306h-163v251q0 65 -19.5 101t-64.5 36t-70 -38t-25 -106v-244h-163v517h145q2 -50 9 -80q50 94 164 94q88 0 137.5 -57zM379 -53q27 -23 27 -69q0 -56 -44.5 -88.5t-128.5 -33.5v60q66 5 79 31h-5q-37 1 -59.5 16t-22.5 43
q0 29 23.5 46.5t59.5 17.5q44 0 71 -23z" />
    <glyph glyph-name="Ncaron" unicode="&#x147;" horiz-adv-x="769" 
d="M323 928l62 -62l61 62h136l-137 -134h-121l-137 134h136zM209 732l332 -444v444h156v-732h-137l-332 445v-445h-156v732h137z" />
    <glyph glyph-name="ncaron" unicode="&#x148;" horiz-adv-x="616" 
d="M256 749l58 -74l56 74h135l-134 -170h-115l-134 170h134zM514.5 474q49.5 -57 49.5 -168v-306h-163v251q0 65 -19.5 101t-64.5 36t-70 -38t-25 -106v-244h-163v517h145q2 -50 9 -80q50 94 164 94q88 0 137.5 -57z" />
    <glyph glyph-name="napostrophe" unicode="&#x149;" horiz-adv-x="616" 
d="M1 589q30 4 47.5 14t25.5 29h-1q-34 0 -57 20.5t-23 50.5t22 51t55 21q38 0 64 -25t26 -72q0 -62 -44.5 -103t-114.5 -49v63zM514.5 474q49.5 -57 49.5 -168v-306h-165v251q0 66 -18.5 101.5t-63.5 35.5t-70 -38t-25 -106v-244h-163v517h145q2 -50 9 -80q50 94 164 94
q88 0 137.5 -57z" />
    <glyph glyph-name="Eng" unicode="&#x14a;" horiz-adv-x="769" 
d="M541 732h156v-733q0 -81 -28.5 -135.5t-76.5 -81t-108 -26.5q-81 0 -138 47l61 114q30 -22 62 -22q41 0 56.5 31.5t15.5 87.5v12l-313 419v-445h-156v732h137l332 -444v444z" />
    <glyph glyph-name="eng" unicode="&#x14b;" horiz-adv-x="616" 
d="M514.5 474q49.5 -57 49.5 -168v-307q0 -81 -28.5 -135.5t-77 -81t-108.5 -26.5q-80 0 -137 47l61 114q29 -22 59 -22q38 0 53 32t15 87v237q0 65 -19.5 101t-64.5 36t-70 -38t-25 -106v-244h-163v517h145q2 -50 9 -80q50 94 164 94q88 0 137.5 -57z" />
    <glyph glyph-name="Omacron" unicode="&#x14c;" horiz-adv-x="792" 
d="M220 822v105h352v-105h-352zM85.5 569q47.5 86 129.5 131.5t181 45.5t180.5 -45.5t129.5 -131.5t48 -202q0 -117 -48 -203t-129.5 -131.5t-180.5 -45.5q-100 0 -181.5 45.5t-129 131.5t-47.5 203q0 116 47.5 202zM241.5 249q22.5 -51 62.5 -78.5t92 -27.5t92.5 27.5
t63 78.5t22.5 118q0 66 -22.5 116.5t-63 78t-92.5 27.5t-92 -27.5t-62.5 -78t-22.5 -116.5q0 -67 22.5 -118z" />
    <glyph glyph-name="omacron" unicode="&#x14d;" horiz-adv-x="605" 
d="M127 609v104h352v-104h-352zM67.5 403q37.5 62 100.5 95t135 33t134.5 -33t99.5 -95t37 -144q0 -83 -37 -144.5t-99 -94.5t-135 -33t-135.5 33t-100 94.5t-37.5 144.5q0 82 37.5 144zM227.5 162.5q29.5 -35.5 74.5 -35.5q44 0 73.5 35.5t29.5 96.5t-29.5 97t-73.5 36
q-45 0 -74.5 -36t-29.5 -97t29.5 -96.5z" />
    <glyph glyph-name="Obreve" unicode="&#x14e;" horiz-adv-x="792" 
d="M260 829.5q-51 36.5 -51 98.5h123q8 -58 64 -58q59 0 65 58h123q0 -63 -51 -99t-137 -36q-85 0 -136 36.5zM85.5 569q47.5 86 129.5 131.5t181 45.5t180.5 -45.5t129.5 -131.5t48 -202q0 -117 -48 -203t-129.5 -131.5t-180.5 -45.5q-100 0 -181.5 45.5t-129 131.5
t-47.5 203q0 116 47.5 202zM241.5 249q22.5 -51 62.5 -78.5t92 -27.5t92.5 27.5t63 78.5t22.5 118q0 66 -22.5 116.5t-63 78t-92.5 27.5t-92 -27.5t-62.5 -78t-22.5 -116.5q0 -67 22.5 -118z" />
    <glyph glyph-name="obreve" unicode="&#x14f;" horiz-adv-x="605" 
d="M167 625q-51 46 -51 124h122q8 -74 65 -74q58 0 66 74h122q0 -78 -51 -124t-137 -46q-85 0 -136 46zM67.5 403q37.5 62 100.5 95t135 33t134.5 -33t99.5 -95t37 -144q0 -83 -37 -144.5t-99 -94.5t-135 -33t-135.5 33t-100 94.5t-37.5 144.5q0 82 37.5 144zM227.5 162.5
q29.5 -35.5 74.5 -35.5q44 0 73.5 35.5t29.5 96.5t-29.5 97t-73.5 36q-45 0 -74.5 -36t-29.5 -97t29.5 -96.5z" />
    <glyph glyph-name="Ohungarumlaut" unicode="&#x150;" horiz-adv-x="792" 
d="M245 794l93 134h148l-129 -134h-112zM435 794l93 134h148l-129 -134h-112zM85.5 569q47.5 86 129.5 131.5t181 45.5t180.5 -45.5t129.5 -131.5t48 -202q0 -117 -48 -203t-129.5 -131.5t-180.5 -45.5q-100 0 -181.5 45.5t-129 131.5t-47.5 203q0 116 47.5 202zM241.5 249
q22.5 -51 62.5 -78.5t92 -27.5t92.5 27.5t63 78.5t22.5 118q0 66 -22.5 116.5t-63 78t-92.5 27.5t-92 -27.5t-62.5 -78t-22.5 -116.5q0 -67 22.5 -118z" />
    <glyph glyph-name="ohungarumlaut" unicode="&#x151;" horiz-adv-x="605" 
d="M152 579l93 170h148l-129 -170h-112zM342 579l93 170h148l-129 -170h-112zM67.5 403q37.5 62 100.5 95t135 33t134.5 -33t99.5 -95t37 -144q0 -83 -37 -144.5t-99 -94.5t-135 -33t-135.5 33t-100 94.5t-37.5 144.5q0 82 37.5 144zM227.5 162.5q29.5 -35.5 74.5 -35.5
q44 0 73.5 35.5t29.5 96.5t-29.5 97t-73.5 36q-45 0 -74.5 -36t-29.5 -97t29.5 -96.5z" />
    <glyph glyph-name="OE" unicode="&#x152;" horiz-adv-x="1114" 
d="M743 295v-147h331v-148h-501v62q-40 -36 -90.5 -55.5t-105.5 -19.5q-90 0 -167.5 47t-124.5 133.5t-47 199.5q0 112 47 198.5t124.5 133.5t167.5 47q55 0 105.5 -19.5t90.5 -55.5v61h489v-147h-319v-144h287v-146h-287zM488 170.5q40 27.5 62.5 78.5t22.5 118
q0 66 -22.5 116.5t-62.5 78t-92 27.5t-92.5 -27.5t-63 -78t-22.5 -116.5q0 -67 22.5 -118t63 -78.5t92.5 -27.5t92 27.5z" />
    <glyph glyph-name="oe" unicode="&#x153;" horiz-adv-x="937" 
d="M798.5 500q53.5 -31 83.5 -87.5t30 -132.5q0 -32 -6 -68h-331q11 -43 38 -66.5t66 -23.5q32 0 57.5 15t37.5 44l119 -71q-22 -59 -81 -91t-131 -32q-62 0 -112.5 24.5t-83.5 74.5q-31 -48 -80.5 -73.5t-108.5 -25.5q-69 0 -130 33t-98.5 95t-37.5 144t37.5 144t98.5 95
t130 33q60 0 109 -25t80 -73q31 49 81 73.5t110 24.5q69 0 122.5 -31zM609.5 380.5q-23.5 -20.5 -34.5 -57.5h172q-4 38 -26 58t-54 20q-34 0 -57.5 -20.5zM376 162.5q29 35.5 29 96.5t-29 97t-73 36q-45 0 -75 -36t-30 -97t29.5 -96.5t75.5 -35.5q44 0 73 35.5z" />
    <glyph glyph-name="Racute" unicode="&#x154;" horiz-adv-x="689" 
d="M249 796l98 132h167l-134 -132h-131zM705 0l-203 1l-162 247h-5h-92v-248h-171v732h266q91 0 158.5 -30t103.5 -85t36 -127q0 -69 -33 -122t-95 -84zM243 588v-197h75q57 0 97.5 22.5t40.5 76.5q0 98 -138 98h-75z" />
    <glyph glyph-name="racute" unicode="&#x155;" horiz-adv-x="456" 
d="M182 579l94 170h160l-129 -170h-125zM421.5 521q28.5 -10 42.5 -26l-63 -124q-32 21 -64 21q-53 0 -84 -44t-31 -119v-229h-163v517h145q2 -49 9 -80q23 46 61.5 70t86.5 24q32 0 60.5 -10z" />
    <glyph glyph-name="uni0156" unicode="&#x156;" horiz-adv-x="689" 
d="M705 0l-203 1l-162 247h-5h-92v-248h-171v732h266q91 0 158.5 -30t103.5 -85t36 -127q0 -69 -33 -122t-95 -84zM318 391q57 0 97.5 22.5t40.5 76.5q0 98 -138 98h-75v-197h75zM445.5 -53q26.5 -23 26.5 -69q0 -57 -44 -89t-128 -33v61q64 3 78 30h-4q-38 1 -60.5 16
t-22.5 43q0 29 23.5 46.5t60.5 17.5q44 0 70.5 -23z" />
    <glyph glyph-name="uni0157" unicode="&#x157;" horiz-adv-x="456" 
d="M421.5 521q28.5 -10 42.5 -26l-63 -124q-32 21 -64 21q-53 0 -84 -44t-31 -119v-229h-163v517h145q2 -49 9 -80q23 46 61.5 70t86.5 24q32 0 60.5 -10zM208.5 -53q26.5 -23 26.5 -69q0 -56 -44 -88.5t-128 -33.5v60q32 2 51.5 9.5t26.5 21.5h-4q-38 1 -60.5 16t-22.5 43
q0 29 23.5 46.5t60.5 17.5q44 0 70.5 -23z" />
    <glyph glyph-name="Rcaron" unicode="&#x158;" horiz-adv-x="689" 
d="M248 928l62 -61l61 61h136l-137 -133h-121l-137 133h136zM705 0l-203 1l-162 247h-5h-92v-248h-171v732h266q91 0 158.5 -30t103.5 -85t36 -127q0 -69 -33 -122t-95 -84zM243 588v-197h75q57 0 97.5 22.5t40.5 76.5q0 98 -138 98h-75z" />
    <glyph glyph-name="rcaron" unicode="&#x159;" horiz-adv-x="456" 
d="M195 749l58 -74l56 74h135l-134 -170h-115l-135 170h135zM421.5 521q28.5 -10 42.5 -26l-63 -124q-32 21 -64 21q-53 0 -84 -44t-31 -119v-229h-163v517h145q2 -49 9 -80q23 46 61.5 70t86.5 24q32 0 60.5 -10z" />
    <glyph glyph-name="Sacute" unicode="&#x15a;" horiz-adv-x="601" 
d="M248 795l98 133h167l-134 -133h-131zM539.5 83q-42.5 -51 -106.5 -73.5t-131 -22.5q-101 0 -185 46.5t-112 134.5l138 79q22 -51 64.5 -79t100.5 -28q43 0 69.5 16.5t26.5 48.5q0 26 -18 43t-45 28t-76 25q-72 21 -117.5 42t-78.5 63.5t-33 111.5q0 76 39.5 127t103 76
t136.5 25q96 0 168 -44t93 -125l-140 -79q-16 45 -49.5 70t-81.5 25q-41 0 -66.5 -19t-25.5 -49q0 -23 17.5 -39t43.5 -26t74 -25q74 -22 120 -43.5t80 -64.5t34 -112q0 -81 -42.5 -132z" />
    <glyph glyph-name="sacute" unicode="&#x15b;" horiz-adv-x="474" 
d="M172 579l94 170h160l-129 -170h-125zM396.5 31.5q-62.5 -44.5 -160.5 -44.5q-84 0 -146 36t-85 99l118 69q13 -35 43.5 -54.5t70.5 -19.5q25 0 40 8.5t15 24.5q0 19 -21.5 30t-70.5 26q-53 15 -87.5 30t-59.5 44.5t-25 76.5q0 54 30 93.5t80 60t109 20.5q82 0 138 -35
t71 -92l-118 -66q-29 63 -92 63q-24 0 -37.5 -9.5t-13.5 -24.5q0 -19 20.5 -29t67.5 -24q52 -14 88 -30t62 -47t26 -81q0 -80 -62.5 -124.5z" />
    <glyph glyph-name="Scircumflex" unicode="&#x15c;" horiz-adv-x="601" 
d="M249 928h120l137 -134h-135l-61 62l-63 -62h-135zM539.5 83q-42.5 -51 -106.5 -73.5t-131 -22.5q-101 0 -185 46.5t-112 134.5l138 79q22 -51 64.5 -79t100.5 -28q43 0 69.5 16.5t26.5 48.5q0 26 -18 43t-45 28t-76 25q-72 21 -117.5 42t-78.5 63.5t-33 111.5
q0 76 39.5 127t103 76t136.5 25q96 0 168 -44t93 -125l-140 -79q-16 45 -49.5 70t-81.5 25q-41 0 -66.5 -19t-25.5 -49q0 -23 17.5 -39t43.5 -26t74 -25q74 -22 120 -43.5t80 -64.5t34 -112q0 -81 -42.5 -132z" />
    <glyph glyph-name="scircumflex" unicode="&#x15d;" horiz-adv-x="474" 
d="M185 749h114l135 -170h-135l-56 73l-58 -73h-135zM396.5 31.5q-62.5 -44.5 -160.5 -44.5q-84 0 -146 36t-85 99l118 69q13 -35 43.5 -54.5t70.5 -19.5q25 0 40 8.5t15 24.5q0 19 -21.5 30t-70.5 26q-53 15 -87.5 30t-59.5 44.5t-25 76.5q0 54 30 93.5t80 60t109 20.5
q82 0 138 -35t71 -92l-118 -66q-29 63 -92 63q-24 0 -37.5 -9.5t-13.5 -24.5q0 -19 20.5 -29t67.5 -24q52 -14 88 -30t62 -47t26 -81q0 -80 -62.5 -124.5z" />
    <glyph glyph-name="Scedilla" unicode="&#x15e;" horiz-adv-x="601" 
d="M543.5 88q-38.5 -50 -98 -73.5t-125.5 -26.5l-20 -44q48 -1 79 -24.5t31 -65.5q0 -51 -44 -74.5t-107 -23.5q-42 0 -83 12v76q37 -13 79 -13q21 0 34.5 5t13.5 16t-13 17t-35 6q-27 0 -58 -9l-11 51l36 78q-77 16 -135.5 60t-81.5 113l138 79q22 -51 64.5 -79t100.5 -28
q43 0 69.5 16.5t26.5 48.5q0 26 -18 43t-45 28t-76 25q-72 21 -117.5 42t-78.5 63.5t-33 111.5q0 76 39.5 127t103 76t136.5 25q96 0 168 -44t93 -125l-140 -79q-16 45 -49.5 70t-81.5 25q-41 0 -66.5 -19t-25.5 -49q0 -23 17.5 -39t43.5 -26t74 -25q74 -22 120 -43.5
t80 -64.5t34 -112q0 -77 -38.5 -127z" />
    <glyph glyph-name="scedilla" unicode="&#x15f;" horiz-adv-x="474" 
d="M406.5 39.5q-52.5 -43.5 -138.5 -50.5l-21 -46q48 -1 79 -24t31 -66q0 -50 -43.5 -73.5t-106.5 -23.5q-43 0 -84 13v74q41 -12 79 -12q49 0 49 21q0 10 -13 16t-34 6q-29 0 -60 -10l-10 52l35 78q-60 12 -103 45t-61 83l118 69q13 -35 43.5 -54.5t70.5 -19.5q25 0 40 8.5
t15 24.5q0 19 -21.5 30t-70.5 26q-53 15 -87.5 30t-59.5 44.5t-25 76.5q0 54 30 93.5t80 60t109 20.5q82 0 138 -35t71 -92l-118 -66q-29 63 -92 63q-24 0 -37.5 -9.5t-13.5 -24.5q0 -19 20.5 -29t67.5 -24q52 -14 88 -30t62 -47t26 -81q0 -73 -52.5 -116.5z" />
    <glyph glyph-name="Scaron" unicode="&#x160;" horiz-adv-x="601" 
d="M247 928l63 -62l61 62h135l-137 -134h-120l-137 134h135zM539.5 83q-42.5 -51 -106.5 -73.5t-131 -22.5q-101 0 -185 46.5t-112 134.5l138 79q22 -51 64.5 -79t100.5 -28q43 0 69.5 16.5t26.5 48.5q0 26 -18 43t-45 28t-76 25q-72 21 -117.5 42t-78.5 63.5t-33 111.5
q0 76 39.5 127t103 76t136.5 25q96 0 168 -44t93 -125l-140 -79q-16 45 -49.5 70t-81.5 25q-41 0 -66.5 -19t-25.5 -49q0 -23 17.5 -39t43.5 -26t74 -25q74 -22 120 -43.5t80 -64.5t34 -112q0 -81 -42.5 -132z" />
    <glyph glyph-name="scaron" unicode="&#x161;" horiz-adv-x="474" 
d="M185 749l58 -74l56 74h135l-135 -170h-114l-135 170h135zM396.5 31.5q-62.5 -44.5 -160.5 -44.5q-84 0 -146 36t-85 99l118 69q13 -35 43.5 -54.5t70.5 -19.5q25 0 40 8.5t15 24.5q0 19 -21.5 30t-70.5 26q-53 15 -87.5 30t-59.5 44.5t-25 76.5q0 54 30 93.5t80 60
t109 20.5q82 0 138 -35t71 -92l-118 -66q-29 63 -92 63q-24 0 -37.5 -9.5t-13.5 -24.5q0 -19 20.5 -29t67.5 -24q52 -14 88 -30t62 -47t26 -81q0 -80 -62.5 -124.5z" />
    <glyph glyph-name="uni0162" unicode="&#x162;" horiz-adv-x="626" 
d="M397 581v-581h-30l-26 -56q48 -1 79 -24.5t31 -65.5q0 -50 -44 -74t-106 -24q-41 0 -84 12v76q39 -13 79 -13q22 0 35 5t13 16t-13 17t-35 6q-26 0 -58 -9l-10 51l38 83h-39v581h-220v151h610v-151h-220z" />
    <glyph glyph-name="uni0163" unicode="&#x163;" horiz-adv-x="448" 
d="M281 -58q48 -2 79 -24.5t31 -64.5q0 -50 -43.5 -73.5t-106.5 -23.5q-43 0 -84 13v74q45 -13 79 -13q22 0 35 5t13 16q0 10 -12.5 16t-33.5 6q-29 0 -60 -10l-10 52l39 85q-111 40 -111 203v177h-95v137h95v166h163v-166h158v-137h-158v-148q0 -50 15 -77.5t57 -27.5
q34 0 67 23l57 -113q-55 -49 -154 -50z" />
    <glyph glyph-name="Tcaron" unicode="&#x164;" horiz-adv-x="624" 
d="M250 928l62 -62l62 62h135l-137 -134h-120l-137 134h135zM7 732h610v-151h-220v-581h-170v581h-220v151z" />
    <glyph glyph-name="tcaron" unicode="&#x165;" horiz-adv-x="448" 
d="M452.5 849.5q28.5 -31.5 28.5 -90.5q0 -78 -48 -129.5t-125 -61.5v80q64 8 79 53h-3q-36 1 -60 26.5t-24 62.5q0 38 23.5 64.5t59.5 26.5q41 0 69.5 -31.5zM398 150l57 -113q-56 -50 -158 -50q-91 0 -146 47.5t-55 168.5v177h-95v137h95v166h163v-166h158v-137h-158v-148
q0 -50 15 -77.5t57 -27.5q34 0 67 23z" />
    <glyph glyph-name="Tbar" unicode="&#x166;" horiz-adv-x="626" 
d="M7 732h610v-151h-220v-170h138v-150h-138v-261h-170v261h-136v150h136v170h-220v151z" />
    <glyph glyph-name="tbar" unicode="&#x167;" horiz-adv-x="448" 
d="M455 37q-56 -50 -158 -50q-91 0 -146.5 48t-55.5 171h-94v123h94v65h-94v123h94v166h164v-166h158v-123h-158v-65h158v-123h-157q3 -38 19 -58.5t52 -20.5q34 0 67 23z" />
    <glyph glyph-name="Utilde" unicode="&#x168;" horiz-adv-x="772" 
d="M182 804q2 55 38 89.5t94 34.5q34 0 56 -10t43 -27q12 -9 20 -13.5t17 -4.5q24 0 34 42h106q-2 -55 -37.5 -89t-93.5 -34q-34 0 -55.5 10t-44.5 27q-13 10 -20 14t-16 4q-25 0 -34 -43h-107zM537 732h171v-436q0 -94 -38.5 -164t-111 -107.5t-172.5 -37.5t-172.5 37.5
t-111 107.5t-38.5 164v436h171v-391q0 -102 40 -150t111 -48t111 48t40 150v391z" />
    <glyph glyph-name="utilde" unicode="&#x169;" horiz-adv-x="615" 
d="M101 593q2 70 38 114.5t93 44.5q35 0 56.5 -12.5t43.5 -34.5q12 -12 19.5 -17.5t16.5 -5.5q26 0 35 54h106q-2 -71 -37.5 -115t-93.5 -44q-35 0 -57 12.5t-43 33.5q-12 12 -19.5 17.5t-16.5 5.5q-26 0 -35 -53h-106zM392 517h163v-517h-144l-2 22q-4 45 -7 58
q-51 -93 -162 -93q-88 0 -138.5 57t-50.5 168v305h163v-250q0 -62 17.5 -99.5t64.5 -37.5q46 0 71 38t25 106v243z" />
    <glyph glyph-name="Umacron" unicode="&#x16a;" horiz-adv-x="772" 
d="M210 822v105h352v-105h-352zM537 732h171v-436q0 -94 -38.5 -164t-111 -107.5t-172.5 -37.5t-172.5 37.5t-111 107.5t-38.5 164v436h171v-391q0 -102 40 -150t111 -48t111 48t40 150v391z" />
    <glyph glyph-name="umacron" unicode="&#x16b;" horiz-adv-x="615" 
d="M129 609v104h352v-104h-352zM392 517h163v-517h-144l-2 22q-4 45 -7 58q-51 -93 -162 -93q-88 0 -138.5 57t-50.5 168v305h163v-250q0 -62 17.5 -99.5t64.5 -37.5q46 0 71 38t25 106v243z" />
    <glyph glyph-name="Ubreve" unicode="&#x16c;" horiz-adv-x="772" 
d="M251 829.5q-51 36.5 -51 98.5h122q8 -58 64 -58q58 0 66 58h122q0 -63 -51 -99t-137 -36q-84 0 -135 36.5zM537 732h171v-436q0 -94 -38.5 -164t-111 -107.5t-172.5 -37.5t-172.5 37.5t-111 107.5t-38.5 164v436h171v-391q0 -102 40 -150t111 -48t111 48t40 150v391z" />
    <glyph glyph-name="ubreve" unicode="&#x16d;" horiz-adv-x="615" 
d="M169 625q-51 46 -51 124h122q8 -74 65 -74q58 0 66 74h122q0 -78 -51 -124t-137 -46q-85 0 -136 46zM392 517h163v-517h-144l-2 22q-4 45 -7 58q-51 -93 -162 -93q-88 0 -138.5 57t-50.5 168v305h163v-250q0 -62 17.5 -99.5t64.5 -37.5q46 0 71 38t25 106v243z" />
    <glyph glyph-name="Uring" unicode="&#x16e;" horiz-adv-x="772" 
d="M296.5 907q36.5 21 89.5 21q54 0 89 -20.5t35 -52.5q0 -33 -35 -53.5t-89 -20.5q-53 0 -89.5 21t-36.5 53q0 31 36.5 52zM354 834.5q12 -7.5 32 -7.5q19 0 30.5 7.5t11.5 20.5q0 12 -11.5 19.5t-30.5 7.5t-31.5 -8t-12.5 -19q0 -13 12 -20.5zM537 732h171v-436
q0 -94 -38.5 -164t-111 -107.5t-172.5 -37.5t-172.5 37.5t-111 107.5t-38.5 164v436h171v-391q0 -102 40 -150t111 -48t111 48t40 150v391z" />
    <glyph glyph-name="uring" unicode="&#x16f;" horiz-adv-x="615" 
d="M214.5 780q36.5 35 90.5 35t89 -35t35 -89q0 -55 -35 -90t-89 -35t-90.5 35t-36.5 90q0 54 36.5 89zM273.5 658q12.5 -13 31.5 -13t30.5 12.5t11.5 33.5t-11.5 33.5t-30.5 12.5t-31.5 -13t-12.5 -33t12.5 -33zM392 517h163v-517h-144l-2 22q-4 45 -7 58q-51 -93 -162 -93
q-88 0 -138.5 57t-50.5 168v305h163v-250q0 -62 17.5 -99.5t64.5 -37.5q46 0 71 38t25 106v243z" />
    <glyph glyph-name="Uhungarumlaut" unicode="&#x170;" horiz-adv-x="772" 
d="M235 794l93 134h148l-129 -134h-112zM425 794l93 134h148l-129 -134h-112zM537 732h171v-436q0 -94 -38.5 -164t-111 -107.5t-172.5 -37.5t-172.5 37.5t-111 107.5t-38.5 164v436h171v-391q0 -102 40 -150t111 -48t111 48t40 150v391z" />
    <glyph glyph-name="uhungarumlaut" unicode="&#x171;" horiz-adv-x="615" 
d="M154 579l93 170h148l-129 -170h-112zM344 579l93 170h148l-129 -170h-112zM392 517h163v-517h-144l-2 22q-4 45 -7 58q-51 -93 -162 -93q-88 0 -138.5 57t-50.5 168v305h163v-250q0 -62 17.5 -99.5t64.5 -37.5q46 0 71 38t25 106v243z" />
    <glyph glyph-name="Uogonek" unicode="&#x172;" horiz-adv-x="772" 
d="M708 296q0 -90 -35 -157.5t-101 -106.5q-103 -64 -103 -132q0 -27 14.5 -40.5t37.5 -13.5q34 0 70 35l51 -73q-27 -26 -59 -39t-76 -13q-68 0 -108 29.5t-40 93.5q0 62 38 108h-11q-100 0 -172.5 37.5t-111 107.5t-38.5 164v436h171v-391q0 -102 40 -150t111 -48t111 48
t40 150v391h171v-436z" />
    <glyph glyph-name="uogonek" unicode="&#x173;" horiz-adv-x="615" 
d="M621 -188q-28 -28 -60.5 -42t-78.5 -14q-64 0 -104 29.5t-40 86.5q0 71 73 129l-2 21q-4 43 -7 58q-51 -93 -162 -93q-88 0 -138.5 57t-50.5 168v305h163v-250q0 -62 17.5 -99.5t64.5 -37.5q46 0 71 38t25 106v243h163v-517q-54 -27 -80.5 -53t-26.5 -55q0 -39 46 -39
q21 0 39.5 8t38.5 27z" />
    <glyph glyph-name="Wcircumflex" unicode="&#x174;" horiz-adv-x="1025" 
d="M458 928h120l137 -134h-135l-62 62l-62 -62h-136zM585 732l140 -450l129 450h164l-231 -732h-131l-142 437l-138 -437h-130l-240 732h176l137 -450l132 450h134z" />
    <glyph glyph-name="wcircumflex" unicode="&#x175;" horiz-adv-x="842" 
d="M380 749h115l134 -170h-134l-57 73l-57 -73h-135zM495 517l96 -292l91 292h159l-191 -516h-118l-109 287l-105 -287h-119l-198 516h168l97 -298l90 298h139z" />
    <glyph glyph-name="Ycircumflex" unicode="&#x176;" horiz-adv-x="707" 
d="M300 928h121l137 -134h-136l-61 62l-62 -62h-136zM363 446l153 286h184l-256 -454v-278h-171v277l-267 455h199z" />
    <glyph glyph-name="ycircumflex" unicode="&#x177;" horiz-adv-x="591" 
d="M354 579l-56 73l-58 -73h-135l135 170h114l135 -170h-135zM418 517h172l-229 -574q-39 -99 -94 -143t-133 -44q-40 0 -75 11.5t-59 31.5l63 123q34 -23 69 -23q32 0 52 18.5t45 71.5l-228 528h181l125 -329z" />
    <glyph glyph-name="Ydieresis" unicode="&#x178;" horiz-adv-x="707" 
d="M185 809.5q-24 20.5 -24 49.5q0 28 24 48.5t58 20.5q35 0 59.5 -20.5t24.5 -48.5q0 -29 -24 -49.5t-60 -20.5q-34 0 -58 20.5zM417.5 810q-23.5 21 -23.5 49t23.5 48.5t58.5 20.5t59.5 -20.5t24.5 -48.5q0 -29 -24.5 -49.5t-59.5 -20.5t-58.5 21zM363 446l153 286h184
l-256 -454v-278h-171v277l-267 455h199z" />
    <glyph glyph-name="Zacute" unicode="&#x179;" horiz-adv-x="598" 
d="M245 796l98 132h167l-134 -132h-131zM568 732v-97l-317 -483h331v-152h-569v97l319 484h-288v151h524z" />
    <glyph glyph-name="zacute" unicode="&#x17a;" horiz-adv-x="487" 
d="M180 579l94 170h160l-129 -170h-125zM449 516v-96l-216 -292h233v-128h-441v98l216 290h-193v128h401z" />
    <glyph glyph-name="Zdotaccent" unicode="&#x17b;" horiz-adv-x="598" 
d="M247 810.5q-24 20.5 -24 48.5t24 48.5t58 20.5q36 0 60.5 -20.5t24.5 -48.5t-24.5 -48.5t-60.5 -20.5q-34 0 -58 20.5zM568 732v-97l-317 -483h331v-152h-569v97l319 484h-288v151h524z" />
    <glyph glyph-name="zdotaccent" unicode="&#x17c;" horiz-adv-x="487" 
d="M184 600.5q-28 28.5 -28 67.5q0 40 27.5 68.5t67.5 28.5q38 0 66.5 -29t28.5 -68t-28 -67.5t-67 -28.5t-67 28.5zM449 516v-96l-216 -292h233v-128h-441v98l216 290h-193v128h401z" />
    <glyph glyph-name="Zcaron" unicode="&#x17d;" horiz-adv-x="598" 
d="M244 928l62 -61l61 61h136l-137 -133h-121l-137 133h136zM568 732v-97l-317 -483h331v-152h-569v97l319 484h-288v151h524z" />
    <glyph glyph-name="zcaron" unicode="&#x17e;" horiz-adv-x="487" 
d="M193 749l58 -74l56 74h135l-135 -170h-114l-135 170h135zM449 516v-96l-216 -292h233v-128h-441v98l216 290h-193v128h401z" />
    <glyph glyph-name="longs" unicode="&#x17f;" horiz-adv-x="400" 
d="M398.5 760.5q36.5 -14.5 58.5 -39.5l-62 -114q-30 28 -66 28q-35 0 -54.5 -30t-19.5 -92v-513h-165v381h-86v136h86v12q0 82 30.5 137.5t81.5 82t113 26.5q47 0 83.5 -14.5z" />
    <glyph glyph-name="uni018F" unicode="&#x18f;" horiz-adv-x="751" 
d="M542.5 703.5q78.5 -42.5 124 -128.5t45.5 -211q0 -122 -46.5 -207t-126 -127.5t-177.5 -42.5q-96 0 -167.5 40.5t-110.5 116t-39 177.5q0 50 9 104h475q-12 81 -54 125t-116 44q-57 0 -97 -28.5t-71 -82.5l-127 86q39 86 120 131.5t182 45.5q98 0 176.5 -42.5zM527 279
h-302q2 -73 38.5 -107t101.5 -34q136 0 162 141z" />
    <glyph glyph-name="florin" unicode="&#x192;" 
d="M450 584.5q-20 -21.5 -33 -67.5h148v-136h-173l-27 -153q-42 -241 -229 -241q-56 0 -100 19.5t-65 46.5l76 107q30 -33 70 -33q33 0 51.5 29t30.5 96l23 129h-109v136h133q24 123 86 176t153 53q107 0 156 -67l-76 -106q-14 16 -29 24.5t-35 8.5q-31 0 -51 -21.5z" />
    <glyph glyph-name="Ohorn" unicode="&#x1a0;" horiz-adv-x="792" 
d="M754 367q0 -114 -48 -200.5t-130 -133t-180 -46.5q-99 0 -180.5 46.5t-129.5 133t-48 200.5t48.5 200t133.5 132.5t191 46.5q27 0 52 -3t31 -4q46 -7 81 -7q42 0 59 13t17 53q0 34 -7 63h134q8 -32 8 -72q0 -79 -30 -115.5t-105 -44.5q103 -97 103 -262zM488 170.5
q40 27.5 62.5 78.5t22.5 118q0 66 -22.5 116.5t-62.5 78t-92 27.5t-92.5 -27.5t-63 -78t-22.5 -116.5q0 -67 22.5 -118t63 -78.5t92.5 -27.5t92 27.5z" />
    <glyph glyph-name="ohorn" unicode="&#x1a1;" horiz-adv-x="631" 
d="M608 456.5q-27 -36.5 -90 -42.5q56 -69 56 -163q0 -79 -37.5 -139t-99.5 -92.5t-134 -32.5q-73 0 -135.5 33t-100 94.5t-37.5 144.5t38.5 144.5t103.5 94.5t144 33q34 0 80 -8q38 -6 56 -6q27 0 37.5 12.5t10.5 52.5q0 33 -7 64h134q8 -32 8 -72q0 -81 -27 -117.5z
M376 162.5q29 35.5 29 96.5t-29 97t-73 36q-45 0 -75 -36t-30 -97t29.5 -96.5t75.5 -35.5q44 0 73 35.5z" />
    <glyph glyph-name="Uhorn" unicode="&#x1af;" horiz-adv-x="772" 
d="M846 701q-14 -33 -47 -50.5t-91 -22.5v-332q0 -94 -38.5 -164t-111 -107.5t-172.5 -37.5t-172.5 37.5t-111 107.5t-38.5 164v436h171v-391q0 -102 40 -150t111 -48t111 48t40 150v391h77q50 0 72 4t31 17.5t9 43.5q0 33 -7 64h133q8 -32 8 -72q0 -55 -14 -88z" />
    <glyph glyph-name="uhorn" unicode="&#x1b0;" horiz-adv-x="670" 
d="M694 486q-14 -33 -47.5 -50.5t-91.5 -22.5v-413h-144l-2 22q-4 45 -7 58q-51 -93 -162 -93q-88 0 -138.5 57t-50.5 168v305h163v-250q0 -62 17.5 -99.5t64.5 -37.5q46 0 71 38t25 106v243h73q48 1 69.5 5t30 17.5t8.5 42.5q0 33 -7 64h134q8 -32 8 -72q0 -55 -14 -88z
" />
    <glyph glyph-name="uni01CD" unicode="&#x1cd;" horiz-adv-x="749" 
d="M320 928l62 -62l61 62h136l-137 -134h-121l-137 134h136zM446 732l297 -732h-180l-56 148h-277l-54 -148h-170l289 732h151zM453 291l-87 228l-83 -228h170z" />
    <glyph glyph-name="uni01CE" unicode="&#x1ce;" horiz-adv-x="572" 
d="M473 749l-135 -170h-114l-135 170h135l57 -74l57 74h135zM460 468.5q61 -62.5 61 -176.5v-292h-137q-5 42 -7 56q-24 -35 -58 -52t-86 -17q-55 0 -100.5 19.5t-72 56t-26.5 86.5q0 52 29.5 91.5t79.5 60.5t109 21q55 0 108 -19q-7 98 -89 98q-69 0 -100 -64l-115 67
q29 59 89.5 93t141.5 34q112 0 173 -62.5zM360 202q-39 10 -74 10q-41 0 -65 -15t-24 -40q0 -23 18 -36t46 -13q38 0 68.5 22t30.5 59v13z" />
    <glyph glyph-name="uni01CF" unicode="&#x1cf;" horiz-adv-x="315" 
d="M95 928l63 -62l61 62h135l-137 -134h-120l-137 134h135zM243 0h-171v732h171v-732z" />
    <glyph glyph-name="uni01D0" unicode="&#x1d0;" horiz-adv-x="282" 
d="M84 749l57 -74l57 74h135l-135 -170h-114l-135 170h135zM59 0v517h163v-517h-163z" />
    <glyph glyph-name="uni01D1" unicode="&#x1d1;" horiz-adv-x="792" 
d="M334 928l62 -62l61 62h136l-137 -134h-121l-137 134h136zM85.5 569q47.5 86 129.5 131.5t181 45.5t180.5 -45.5t129.5 -131.5t48 -202q0 -117 -48 -203t-129.5 -131.5t-180.5 -45.5q-100 0 -181.5 45.5t-129 131.5t-47.5 203q0 116 47.5 202zM241.5 249
q22.5 -51 62.5 -78.5t92 -27.5t92.5 27.5t63 78.5t22.5 118q0 66 -22.5 116.5t-63 78t-92.5 27.5t-92 -27.5t-62.5 -78t-22.5 -116.5q0 -67 22.5 -118z" />
    <glyph glyph-name="uni01D2" unicode="&#x1d2;" horiz-adv-x="605" 
d="M246 749l57 -74l57 74h134l-134 -170h-115l-134 170h135zM67.5 403q37.5 62 100.5 95t135 33t134.5 -33t99.5 -95t37 -144q0 -83 -37 -144.5t-99 -94.5t-135 -33t-135.5 33t-100 94.5t-37.5 144.5q0 82 37.5 144zM227.5 162.5q29.5 -35.5 74.5 -35.5q44 0 73.5 35.5
t29.5 96.5t-29.5 97t-73.5 36q-45 0 -74.5 -36t-29.5 -97t29.5 -96.5z" />
    <glyph glyph-name="uni01D3" unicode="&#x1d3;" horiz-adv-x="772" 
d="M324 928l62 -62l62 62h135l-137 -134h-120l-137 134h135zM537 732h171v-436q0 -94 -38.5 -164t-111 -107.5t-172.5 -37.5t-172.5 37.5t-111 107.5t-38.5 164v436h171v-391q0 -102 40 -150t111 -48t111 48t40 150v391z" />
    <glyph glyph-name="uni01D4" unicode="&#x1d4;" horiz-adv-x="615" 
d="M248 749l57 -74l57 74h134l-134 -170h-115l-134 170h135zM392 517h163v-517h-144l-2 22q-4 45 -7 58q-51 -93 -162 -93q-88 0 -138.5 57t-50.5 168v305h163v-250q0 -62 17.5 -99.5t64.5 -37.5q46 0 71 38t25 106v243z" />
    <glyph glyph-name="uni01D5" unicode="&#x1d5;" horiz-adv-x="772" 
d="M209 877v51h352v-51h-352zM210 780.5q-24 13.5 -24 32.5t24 33t58 14q36 0 60.5 -13.5t24.5 -33.5q0 -19 -24.5 -32.5t-60.5 -13.5q-34 0 -58 13.5zM443 780.5q-24 13.5 -24 32.5q0 20 24 33.5t59 13.5q34 0 58.5 -13.5t24.5 -33.5q0 -19 -24.5 -32.5t-58.5 -13.5
q-35 0 -59 13.5zM537 732h171v-436q0 -94 -38.5 -164t-111 -107.5t-172.5 -37.5t-172.5 37.5t-111 107.5t-38.5 164v436h171v-391q0 -102 40 -150t111 -48t111 48t40 150v391z" />
    <glyph glyph-name="uni01D6" unicode="&#x1d6;" horiz-adv-x="615" 
d="M129 795v104h352v-104h-352zM130 603.5q-24 25.5 -24 60.5t24 60t58 25q36 0 60 -25t24 -60t-24.5 -60.5t-59.5 -25.5q-34 0 -58 25.5zM362.5 603.5q-23.5 25.5 -23.5 60.5t23.5 60t58.5 25t59.5 -25t24.5 -60t-24.5 -60.5t-59.5 -25.5t-58.5 25.5zM392 517h163v-517
h-144l-2 22q-4 45 -7 58q-51 -93 -162 -93q-88 0 -138.5 57t-50.5 168v305h163v-250q0 -62 17.5 -99.5t64.5 -37.5q46 0 71 38t25 106v243z" />
    <glyph glyph-name="uni01D7" unicode="&#x1d7;" horiz-adv-x="772" 
d="M324 866l98 62h167l-134 -62h-131zM210 780q-24 13 -24 30q0 19 24 32t58 13q36 0 60.5 -13t24.5 -32q0 -17 -24.5 -30t-60.5 -13q-34 0 -58 13zM443 780q-24 13 -24 30q0 19 24 32t59 13t59 -13t24 -32q0 -17 -24.5 -30t-58.5 -13q-35 0 -59 13zM537 732h171v-436
q0 -94 -38.5 -164t-111 -107.5t-172.5 -37.5t-172.5 37.5t-111 107.5t-38.5 164v436h171v-391q0 -102 40 -150t111 -48t111 48t40 150v391z" />
    <glyph glyph-name="uni01D8" unicode="&#x1d8;" horiz-adv-x="615" 
d="M234 775l85 144h156l-116 -144h-125zM130 603.5q-24 25.5 -24 60.5t24 60t58 25q36 0 60 -25t24 -60t-24.5 -60.5t-59.5 -25.5q-34 0 -58 25.5zM362.5 603.5q-23.5 25.5 -23.5 60.5t23.5 60t58.5 25t59.5 -25t24.5 -60t-24.5 -60.5t-59.5 -25.5t-58.5 25.5zM392 517h163
v-517h-144l-2 22q-4 45 -7 58q-51 -93 -162 -93q-88 0 -138.5 57t-50.5 168v305h163v-250q0 -62 17.5 -99.5t64.5 -37.5q46 0 71 38t25 106v243z" />
    <glyph glyph-name="uni01D9" unicode="&#x1d9;" horiz-adv-x="772" 
d="M582 928l-137 -63h-120l-137 63h143l54 -25l54 25h143zM210 780q-24 13 -24 30q0 19 24 32t58 13q36 0 60.5 -13t24.5 -32q0 -17 -24.5 -30t-60.5 -13q-34 0 -58 13zM443 780q-24 13 -24 30q0 19 24 32t59 13t59 -13t24 -32q0 -17 -24.5 -30t-58.5 -13q-35 0 -59 13z
M537 732h171v-436q0 -94 -38.5 -164t-111 -107.5t-172.5 -37.5t-172.5 37.5t-111 107.5t-38.5 164v436h171v-391q0 -102 40 -150t111 -48t111 48t40 150v391z" />
    <glyph glyph-name="uni01DA" unicode="&#x1da;" horiz-adv-x="615" 
d="M248 919l57 -62l56 62h135l-134 -144h-115l-134 144h135zM130 603.5q-24 25.5 -24 60.5t24 60t58 25q36 0 60 -25t24 -60t-24.5 -60.5t-59.5 -25.5q-34 0 -58 25.5zM362.5 603.5q-23.5 25.5 -23.5 60.5t23.5 60t58.5 25t59.5 -25t24.5 -60t-24.5 -60.5t-59.5 -25.5
t-58.5 25.5zM392 517h163v-517h-144l-2 22q-4 45 -7 58q-51 -93 -162 -93q-88 0 -138.5 57t-50.5 168v305h163v-250q0 -62 17.5 -99.5t64.5 -37.5q46 0 71 38t25 106v243z" />
    <glyph glyph-name="uni01DB" unicode="&#x1db;" horiz-adv-x="772" 
d="M182 928h167l98 -62h-131zM210 780q-24 13 -24 30q0 19 24 32t58 13q36 0 60.5 -13t24.5 -32q0 -17 -24.5 -30t-60.5 -13q-34 0 -58 13zM443 780q-24 13 -24 30q0 19 24 32t59 13t59 -13t24 -32q0 -17 -24.5 -30t-58.5 -13q-35 0 -59 13zM537 732h171v-436
q0 -94 -38.5 -164t-111 -107.5t-172.5 -37.5t-172.5 37.5t-111 107.5t-38.5 164v436h171v-391q0 -102 40 -150t111 -48t111 48t40 150v391z" />
    <glyph glyph-name="uni01DC" unicode="&#x1dc;" horiz-adv-x="615" 
d="M135 919h156l85 -144h-125zM130 603.5q-24 25.5 -24 60.5t24 60t58 25q36 0 60 -25t24 -60t-24.5 -60.5t-59.5 -25.5q-34 0 -58 25.5zM362.5 603.5q-23.5 25.5 -23.5 60.5t23.5 60t58.5 25t59.5 -25t24.5 -60t-24.5 -60.5t-59.5 -25.5t-58.5 25.5zM392 517h163v-517h-144
l-2 22q-4 45 -7 58q-51 -93 -162 -93q-88 0 -138.5 57t-50.5 168v305h163v-250q0 -62 17.5 -99.5t64.5 -37.5q46 0 71 38t25 106v243z" />
    <glyph glyph-name="uni01E5" unicode="&#x1e5;" horiz-adv-x="685" 
d="M580 320h90v-123h-90v-135q0 -160 -82.5 -233t-207.5 -73q-89 0 -155 37.5t-95 102.5l123 72q38 -72 127 -72q70 0 97 38t30 120q-51 -67 -142 -67q-65 0 -121 32.5t-90 94t-34 145.5t34 146t90 94t121 32q102 0 153 -84q5 26 7 70h145v-197zM367 142.5q27 18.5 40 55.5
h-94v123h93q-13 34 -39.5 50.5t-59.5 16.5q-49 0 -79 -34.5t-30 -94.5q0 -61 30 -98t79 -37q33 0 60 18.5z" />
    <glyph glyph-name="gcaron" unicode="&#x1e7;" horiz-adv-x="632" 
d="M495 749l-134 -170h-115l-135 170h135l58 -74l56 74h135zM580 517v-455q0 -160 -82.5 -233t-207.5 -73q-89 0 -155 37.5t-95 102.5l123 72q38 -72 127 -72q70 0 97 38t30 120q-51 -67 -142 -67q-65 0 -121 32.5t-90 94t-34 145.5t34 146t90 94t121 32q102 0 153 -84
q5 26 7 70h145zM385 159q32 35 32 100q0 64 -31.5 96.5t-78.5 32.5q-49 0 -79 -34.5t-30 -94.5q0 -61 30 -98t79 -37q46 0 78 35z" />
    <glyph glyph-name="uni01E9" unicode="&#x1e9;" horiz-adv-x="606" 
d="M84 928l57 -51l57 51h135l-135 -120h-114l-135 120h135zM405 314l207 -314h-194l-122 192l-74 -81v-111h-163v761h163v-454l179 210h187z" />
    <glyph glyph-name="uni01EF" unicode="&#x1ef;" horiz-adv-x="520" 
d="M194 749l58 -74l56 74h135l-135 -170h-114l-135 170h135zM313 227q90 -19 141 -78t51 -148q0 -78 -38 -133t-102 -83.5t-140 -28.5q-92 0 -158.5 43t-95.5 126l125 72q18 -49 52 -76t82 -27q50 0 78 28.5t28 74.5q0 51 -36.5 79t-101.5 28q-39 0 -76 -8v122l148 165h-252
v134h463v-117z" />
    <glyph glyph-name="uni01F0" unicode="&#x1f0;" horiz-adv-x="279" 
d="M83 749l57 -74l57 74h135l-135 -170h-114l-135 170h135zM-89.5 -228.5q-43.5 15.5 -72.5 46.5l87 109q25 -32 61 -32q39 0 56 30t17 91v501h163v-517q0 -81 -30.5 -136t-80.5 -81.5t-110 -26.5q-47 0 -90.5 15.5z" />
    <glyph glyph-name="uni01F9" unicode="&#x1f9;" horiz-adv-x="616" 
d="M130 749h161l94 -170h-125zM514.5 474q49.5 -57 49.5 -168v-306h-163v251q0 65 -19.5 101t-64.5 36t-70 -38t-25 -106v-244h-163v517h145q2 -50 9 -80q50 94 164 94q88 0 137.5 -57z" />
    <glyph glyph-name="Aringacute" unicode="&#x1fa;" horiz-adv-x="749" 
d="M315 871l86 57h156l-117 -57h-125zM298 841.5q32 13.5 84 13.5t83 -13.5t31 -34.5t-31 -34t-83 -13q-51 0 -83.5 13.5t-32.5 33.5q0 21 32 34.5zM352 797.5q10 -3.5 29 -3.5q18 0 28.5 4t10.5 9q0 6 -10.5 10t-28.5 4q-19 0 -29 -4t-10 -10t10 -9.5zM446 732l297 -732
h-180l-56 148h-277l-54 -148h-170l289 732h151zM453 291l-87 228l-83 -228h170z" />
    <glyph glyph-name="aringacute" unicode="&#x1fb;" horiz-adv-x="572" 
d="M300 928h156l-117 -123h-125zM198.5 594.5q-33.5 29.5 -33.5 73.5t33.5 73t82.5 29q50 0 82 -28.5t32 -73.5t-32 -74t-82 -29q-49 0 -82.5 29.5zM252 695q-11 -10 -11 -27t11 -28t29 -11t28.5 11t10.5 28t-10.5 27t-28.5 10t-29 -10zM460 468.5q61 -62.5 61 -176.5v-292
h-137q-5 42 -7 56q-24 -35 -58 -52t-86 -17q-55 0 -100.5 19.5t-72 56t-26.5 86.5q0 52 29.5 91.5t79.5 60.5t109 21q55 0 108 -19q-7 98 -89 98q-69 0 -100 -64l-115 67q29 59 89.5 93t141.5 34q112 0 173 -62.5zM360 202q-39 10 -74 10q-41 0 -65 -15t-24 -40
q0 -23 18 -36t46 -13q38 0 68.5 22t30.5 59v13z" />
    <glyph glyph-name="AEacute" unicode="&#x1fc;" horiz-adv-x="1073" 
d="M601 796l98 132h167l-134 -132h-131zM988 295h-286v-147h331v-148h-502v149h-248l-90 -149h-192l471 732h549v-147h-319v-144h286v-146zM531 292v268l-162 -268h162z" />
    <glyph glyph-name="aeacute" unicode="&#x1fd;" horiz-adv-x="891" 
d="M476 749h161l-130 -170h-124zM754.5 500.5q52.5 -30.5 82 -86.5t29.5 -131q0 -33 -6 -71h-331q10 -43 37.5 -66.5t66.5 -23.5q32 0 57.5 15t37.5 44l119 -71q-21 -58 -82.5 -90.5t-137.5 -32.5q-59 0 -107 22t-79 66q-28 -45 -72 -66.5t-112 -21.5q-98 0 -160.5 43.5
t-62.5 118.5q0 52 29 91.5t78.5 60.5t108.5 21q57 0 111 -19q-5 50 -29 74t-64 24q-34 0 -58.5 -17.5t-38.5 -46.5l-115 67q22 59 80.5 93t136.5 34q120 0 176 -81q34 40 81.5 60.5t102.5 20.5q69 0 121.5 -30.5zM702 323q-5 38 -27 58t-54 20q-34 0 -57.5 -20.5
t-33.5 -57.5h172zM362 202q-43 10 -79 10q-41 0 -63.5 -14t-22.5 -39q0 -24 19.5 -37.5t49.5 -13.5q38 0 67 22t29 59v13z" />
    <glyph glyph-name="Oslashacute" unicode="&#x1fe;" horiz-adv-x="793" 
d="M335 795l98 133h167l-134 -133h-131zM584 768h170l-93 -137q44 -50 68.5 -117.5t24.5 -146.5q0 -114 -48 -200.5t-129.5 -133t-179.5 -46.5q-82 0 -152 32l-36 -54h-170l93 137q-45 51 -69 118t-24 147q0 113 48 199t129.5 133t180.5 47q80 0 150 -32zM234 253l221 325
q-23 11 -58 11q-54 0 -96.5 -27.5t-66 -78t-23.5 -116.5q0 -65 23 -114zM559 479l-222 -325q25 -11 60 -11q54 0 95.5 27.5t64.5 78.5t23 118q0 64 -21 112z" />
    <glyph glyph-name="oslashacute" unicode="&#x1ff;" horiz-adv-x="599" 
d="M232 579l94 170h161l-130 -170h-125zM443 553h131l-73 -104q73 -75 73 -190q0 -83 -37 -144.5t-99 -94.5t-135 -33q-57 0 -110 22l-31 -44h-132l73 104q-73 75 -73 190q0 82 37.5 144t100.5 95t135 33q53 0 110 -21zM196 202l131 186q-9 4 -24 4q-50 0 -83 -36t-33 -97
q0 -26 9 -57zM407 315l-129 -184q11 -4 25 -4q49 0 81.5 35.5t32.5 96.5q0 33 -10 56z" />
    <glyph glyph-name="uni0218" unicode="&#x218;" horiz-adv-x="601" 
d="M539.5 83q-42.5 -51 -106.5 -73.5t-131 -22.5q-101 0 -185 46.5t-112 134.5l138 79q22 -51 64.5 -79t100.5 -28q43 0 69.5 16.5t26.5 48.5q0 26 -18 43t-45 28t-76 25q-72 21 -117.5 42t-78.5 63.5t-33 111.5q0 76 39.5 127t103 76t136.5 25q96 0 168 -44t93 -125
l-140 -79q-16 45 -49.5 70t-81.5 25q-41 0 -66.5 -19t-25.5 -49q0 -23 17.5 -39t43.5 -26t74 -25q74 -22 120 -43.5t80 -64.5t34 -112q0 -81 -42.5 -132zM354.5 -53q26.5 -23 26.5 -69q0 -56 -44.5 -88.5t-127.5 -33.5v61q64 3 78 30h-4q-38 1 -60.5 16t-22.5 43
q0 29 23.5 46.5t60.5 17.5q44 0 70.5 -23z" />
    <glyph glyph-name="uni0219" unicode="&#x219;" horiz-adv-x="474" 
d="M215.5 338q20.5 -10 67.5 -24q52 -14 88 -30t62 -47t26 -81q0 -80 -62.5 -124.5t-160.5 -44.5q-84 0 -146 36t-85 99l118 69q13 -35 43.5 -54.5t70.5 -19.5q25 0 40 8.5t15 24.5q0 19 -21.5 30t-70.5 26q-53 15 -87.5 30t-59.5 44.5t-25 76.5q0 54 30 93.5t80 60
t109 20.5q82 0 138 -35t71 -92l-118 -66q-29 63 -92 63q-24 0 -37.5 -9.5t-13.5 -24.5q0 -19 20.5 -29zM301.5 -53q26.5 -23 26.5 -69q0 -56 -44 -88.5t-128 -33.5v60q32 2 51.5 9.5t26.5 21.5h-4q-38 1 -60.5 16t-22.5 43q0 29 23.5 46.5t60.5 17.5q44 0 70.5 -23z" />
    <glyph glyph-name="uni021A" unicode="&#x21a;" horiz-adv-x="624" 
d="M227 581h-220v151h610v-151h-220v-581h-170v581zM379.5 -53q26.5 -23 26.5 -69q0 -57 -44 -89t-128 -33v61q63 3 79 30h-5q-38 1 -60.5 16t-22.5 43q0 29 23.5 46.5t60.5 17.5q44 0 70.5 -23z" />
    <glyph glyph-name="uni021B" unicode="&#x21b;" horiz-adv-x="448" 
d="M455 37q-56 -50 -158 -50q-91 0 -146 47.5t-55 168.5v177h-95v137h95v166h163v-166h158v-137h-158v-148q0 -50 15 -77.5t57 -27.5q34 0 67 23zM334.5 -53q26.5 -23 26.5 -69q0 -56 -44 -88.5t-128 -33.5v60q32 2 51.5 9.5t26.5 21.5h-4q-38 1 -60.5 16t-22.5 43
q0 29 23.5 46.5t60.5 17.5q44 0 70.5 -23z" />
    <glyph glyph-name="uni021F" unicode="&#x21f;" horiz-adv-x="616" 
d="M84 928l57 -51l57 51h135l-135 -120h-114l-135 120h135zM514.5 474q49.5 -57 49.5 -168v-306h-163v251q0 65 -19.5 101t-64.5 36t-70 -38t-25 -106v-244h-163v761h163v-308q50 78 155 78q88 0 137.5 -57z" />
    <glyph glyph-name="uni0237" unicode="&#x237;" horiz-adv-x="279" 
d="M-89.5 -228.5q-43.5 15.5 -72.5 46.5l87 109q25 -32 61 -32q39 0 56 30t17 91v501h163v-517q0 -81 -30.5 -136t-80.5 -81.5t-110 -26.5q-47 0 -90.5 15.5z" />
    <glyph glyph-name="uni0251" unicode="&#x251;" horiz-adv-x="639" 
d="M580 517v-517h-145q-2 43 -7 73q-29 -43 -70.5 -64.5t-92.5 -21.5q-65 0 -118.5 32.5t-85 94t-31.5 145.5q0 85 31.5 146.5t85 93.5t118.5 32q52 0 93.5 -21.5t69.5 -65.5q5 33 7 73h145zM385 159q32 35 32 100q0 64 -31.5 96.5t-78.5 32.5q-49 0 -79 -34.5t-30 -94.5
q0 -61 30 -98t79 -37q46 0 78 35z" />
    <glyph glyph-name="uni0259" unicode="&#x259;" horiz-adv-x="562" 
d="M395.5 500q61.5 -31 99 -93t37.5 -150q0 -87 -37.5 -148t-98 -91.5t-130.5 -30.5q-71 0 -125.5 30.5t-84.5 87t-30 131.5q0 34 6 70h330q-10 43 -37.5 66.5t-66.5 23.5q-31 0 -56.5 -15t-38.5 -43l-119 70q22 59 83 91t137 32q70 0 131.5 -31zM327.5 138q23.5 21 34.5 58
h-172q4 -39 26 -59t54 -20q34 0 57.5 21z" />
    <glyph glyph-name="uni0261" unicode="&#x261;" horiz-adv-x="632" 
d="M580 517v-455q0 -160 -82.5 -233t-207.5 -73q-89 0 -155 37.5t-95 102.5l123 72q38 -72 127 -72q70 0 97 38t30 120q-51 -67 -142 -67q-65 0 -121 32.5t-90 94t-34 145.5t34 146t90 94t121 32q102 0 153 -84q5 26 7 70h145zM385 159q32 35 32 100q0 64 -31.5 96.5
t-78.5 32.5q-49 0 -79 -34.5t-30 -94.5q0 -61 30 -98t79 -37q46 0 78 35z" />
    <glyph glyph-name="uni0292" unicode="&#x292;" horiz-adv-x="520" 
d="M313 227q90 -19 141 -78t51 -148q0 -78 -38 -133t-102 -83.5t-140 -28.5q-92 0 -158.5 43t-95.5 126l125 72q18 -49 52 -76t82 -27q50 0 78 28.5t28 74.5q0 51 -36.5 79t-101.5 28q-39 0 -76 -8v122l148 165h-252v134h463v-117z" />
    <glyph glyph-name="uni02BB" unicode="&#x2bb;" horiz-adv-x="273" 
d="M64 482q-31 35 -31 102q0 62 27.5 114.5t74.5 87t104 43.5v-85q-47 -10 -75 -36t-33 -67h4q39 0 66 -28.5t27 -68.5t-25.5 -68.5t-63.5 -28.5q-44 0 -75 35z" />
    <glyph glyph-name="uni02BC" unicode="&#x2bc;" horiz-adv-x="293" 
d="M219.5 794q30.5 -35 30.5 -102q0 -62 -27.5 -114.5t-74.5 -87t-104 -43.5v85q47 10 75 36.5t34 66.5h-4q-39 0 -66.5 28.5t-27.5 68.5q0 41 25.5 69t64.5 28q44 0 74.5 -35z" />
    <glyph glyph-name="circumflex" unicode="&#x2c6;" horiz-adv-x="490" 
d="M188 749h114l135 -170h-135l-57 73l-57 -73h-135z" />
    <glyph glyph-name="caron" unicode="&#x2c7;" horiz-adv-x="490" 
d="M188 749l57 -74l57 74h135l-135 -170h-114l-135 170h135z" />
    <glyph glyph-name="uni02C9" unicode="&#x2c9;" horiz-adv-x="452" 
d="M50 823v104h352v-104h-352z" />
    <glyph glyph-name="uni02CA" unicode="&#x2ca;" horiz-adv-x="396" 
d="M45 795l98 133h167l-134 -133h-131z" />
    <glyph glyph-name="uni02CB" unicode="&#x2cb;" horiz-adv-x="373" 
d="M52 928h166l98 -133h-131z" />
    <glyph glyph-name="breve" unicode="&#x2d8;" horiz-adv-x="491" 
d="M109 625q-51 46 -51 124h122q8 -74 65 -74q58 0 66 74h122q0 -78 -51 -124t-137 -46q-85 0 -136 46z" />
    <glyph glyph-name="dotaccent" unicode="&#x2d9;" horiz-adv-x="272" 
d="M68.5 600.5q-27.5 28.5 -27.5 67.5q0 40 27.5 68.5t66.5 28.5q38 0 66.5 -28.5t28.5 -68.5q0 -39 -28 -67.5t-67 -28.5t-66.5 28.5z" />
    <glyph glyph-name="ring" unicode="&#x2da;" horiz-adv-x="354" 
d="M88.5 780q36.5 35 90.5 35q53 0 88 -35t35 -89q0 -55 -34.5 -90t-88.5 -35t-90.5 35t-36.5 90q0 54 36.5 89zM147 658q12 -13 32 -13q19 0 30.5 13t11.5 33t-11.5 33t-30.5 13q-20 0 -32 -13t-12 -33t12 -33z" />
    <glyph glyph-name="ogonek" unicode="&#x2db;" horiz-adv-x="371" 
d="M302 -189q-28 -28 -60.5 -41.5t-78.5 -13.5q-64 0 -104.5 29.5t-40.5 85.5q0 58 42.5 101t121.5 86l54 -60q-54 -27 -80.5 -52.5t-26.5 -54.5q0 -39 46 -39q40 0 78 35z" />
    <glyph glyph-name="tilde" unicode="&#x2dc;" horiz-adv-x="514" 
d="M53 593q2 70 38 114.5t93 44.5q35 0 56.5 -12.5t43.5 -34.5q12 -12 19.5 -17.5t16.5 -5.5q26 0 35 54h106q-2 -71 -38 -115t-93 -44q-35 0 -57 12.5t-43 33.5q-12 12 -19.5 17.5t-16.5 5.5q-26 0 -35 -53h-106z" />
    <glyph glyph-name="hungarumlaut" unicode="&#x2dd;" horiz-adv-x="581" 
d="M16 579l94 170h148l-129 -170h-113zM207 579l93 170h148l-129 -170h-112z" />
    <glyph glyph-name="uni02F3" unicode="&#x2f3;" horiz-adv-x="600" 
d="M131 131.5q18 31.5 49 50t69 18.5q36 0 67 -18.5t49 -50.5t18 -69q0 -38 -17.5 -69t-48.5 -49.5t-68 -18.5q-38 0 -69 18.5t-49 49.5t-18 69t18 69.5zM191.5 2.5q22.5 -23.5 57.5 -23.5q34 0 55.5 23.5t21.5 59.5t-22 60t-55 24q-35 0 -57.5 -24t-22.5 -60t22.5 -59.5z
" />
    <glyph glyph-name="gravecomb" unicode="&#x300;" horiz-adv-x="0" 
d="M-308 749h161l93 -170h-125z" />
    <glyph glyph-name="acutecomb" unicode="&#x301;" horiz-adv-x="0" 
d="M-310 579l94 170h160l-129 -170h-125z" />
    <glyph glyph-name="uni0302" unicode="&#x302;" horiz-adv-x="0" 
d="M-302 749h114l135 -170h-135l-57 73l-57 -73h-135z" />
    <glyph glyph-name="tildecomb" unicode="&#x303;" horiz-adv-x="0" 
d="M-461 593q2 70 38 114.5t93 44.5q35 0 56.5 -12.5t43.5 -34.5q12 -12 19.5 -17.5t16.5 -5.5q26 0 35 54h106q-2 -71 -38 -115t-93 -44q-35 0 -57 12.5t-43 33.5q-12 12 -19.5 17.5t-16.5 5.5q-26 0 -35 -53h-106z" />
    <glyph glyph-name="uni0304" unicode="&#x304;" horiz-adv-x="0" 
d="M-402 609v104h352v-104h-352z" />
    <glyph glyph-name="uni0306" unicode="&#x306;" horiz-adv-x="0" 
d="M-382 625q-51 46 -51 124h122q8 -74 65 -74q58 0 66 74h122q0 -78 -51 -124t-137 -46q-85 0 -136 46z" />
    <glyph glyph-name="uni0307" unicode="&#x307;" horiz-adv-x="0" 
d="M-203.5 600.5q-27.5 28.5 -27.5 67.5q0 40 27.5 68.5t66.5 28.5q38 0 66.5 -28.5t28.5 -68.5q0 -39 -28 -67.5t-67 -28.5t-66.5 28.5z" />
    <glyph glyph-name="uni0308" unicode="&#x308;" horiz-adv-x="0" 
d="M-437 603.5q-24 25.5 -24 60.5t24 60t58 25q36 0 60 -25t24 -60t-24.5 -60.5t-59.5 -25.5q-34 0 -58 25.5zM-204.5 603.5q-23.5 25.5 -23.5 60.5t23.5 60t58.5 25q34 0 59 -25t25 -60t-25 -60.5t-59 -25.5q-35 0 -58.5 25.5z" />
    <glyph glyph-name="hookabovecomb" unicode="&#x309;" horiz-adv-x="0" 
d="M-547 757q21 16 51 24t63 8q60 0 98.5 -26t38.5 -78q0 -89 -127 -131l-53 70q67 23 67 51q0 12 -10.5 19.5t-28.5 7.5q-35 0 -78 -28z" />
    <glyph glyph-name="uni030A" unicode="&#x30a;" horiz-adv-x="0" 
d="M-265.5 780q36.5 35 90.5 35q53 0 88 -35t35 -89q0 -55 -34.5 -90t-88.5 -35t-90.5 35t-36.5 90q0 54 36.5 89zM-207 658q12 -13 32 -13q19 0 30.5 13t11.5 33t-11.5 33t-30.5 13q-20 0 -32 -13t-12 -33t12 -33z" />
    <glyph glyph-name="uni030C" unicode="&#x30c;" horiz-adv-x="0" 
d="M-302 749l57 -74l57 74h135l-135 -170h-114l-135 170h135z" />
    <glyph glyph-name="uni030F" unicode="&#x30f;" horiz-adv-x="0" 
d="M-584 749h148l94 -170h-112zM-393 749h147l94 -170h-112z" />
    <glyph glyph-name="dotbelowcomb" unicode="&#x323;" horiz-adv-x="0" 
d="M-214.5 -210.5q-27.5 27.5 -27.5 65.5t27.5 65.5t66.5 27.5q38 0 66.5 -28t28.5 -65q0 -38 -28 -65.5t-67 -27.5t-66.5 27.5z" />
    <glyph glyph-name="uni0326" unicode="&#x326;" horiz-adv-x="0" 
d="M-79 -53q27 -23 27 -69q0 -57 -44.5 -89t-128.5 -33v61q63 3 79 30h-5q-37 1 -59.5 16t-22.5 43q0 29 23.5 46.5t59.5 17.5q44 0 71 -23z" />
    <glyph glyph-name="uni0327" unicode="&#x327;" horiz-adv-x="0" 
d="M-226 27h100l-37 -86q48 -1 79 -23.5t31 -64.5q0 -50 -43.5 -73.5t-106.5 -23.5q-38 0 -84 13v73q38 -11 79 -11q48 0 48 20q0 10 -12 16t-33 6q-30 0 -61 -10l-10 52z" />
    <glyph glyph-name="uni0335" unicode="&#x335;" horiz-adv-x="0" 
d="M-402 599v104h352v-104h-352z" />
    <glyph glyph-name="uni0338" unicode="&#x338;" horiz-adv-x="0" 
d="M-530 -232l365 964h156l-365 -964h-156z" />
    <glyph glyph-name="uni037E" unicode="&#x37e;" horiz-adv-x="310" 
d="M89.5 365.5q-27.5 28.5 -27.5 68.5t27.5 68.5t67.5 28.5t68 -28.5t28 -68.5t-28 -68.5t-68 -28.5t-67.5 28.5zM225 146q31 -35 31 -102q0 -62 -27.5 -114.5t-75 -87t-104.5 -44.5v86q47 10 75 36t34 67h-4q-39 0 -66.5 28.5t-27.5 68.5t25.5 68.5t64.5 28.5q44 0 75 -35z
" />
    <glyph glyph-name="tonos" unicode="&#x384;" horiz-adv-x="344" 
d="M56 579l71 170h161l-107 -170h-125z" />
    <glyph glyph-name="dieresistonos" unicode="&#x385;" horiz-adv-x="600" 
d="M229 579l32 170h127l-62 -170h-97zM82.5 609.5q-21.5 22.5 -21.5 54.5t21.5 54t52.5 22t53 -22t22 -54t-22 -54.5t-53 -22.5t-52.5 22.5zM416 610q-22 23 -22 54q0 32 22 54t53 22q30 0 52 -22.5t22 -53.5t-22 -54t-52 -23q-31 0 -53 23z" />
    <glyph glyph-name="Alphatonos" unicode="&#x386;" horiz-adv-x="749" 
d="M43 563l40 170h143l-76 -170h-107zM446 732l297 -732h-180l-56 148h-277l-54 -148h-170l289 732h151zM453 291l-87 228l-83 -228h170z" />
    <glyph glyph-name="anoteleia" unicode="&#x387;" horiz-adv-x="278" 
d="M71.5 294q-27.5 29 -27.5 68q0 40 27.5 68.5t66.5 28.5q40 0 68 -28.5t28 -68.5q0 -39 -28.5 -68t-67.5 -29t-66.5 29z" />
    <glyph glyph-name="Epsilontonos" unicode="&#x388;" horiz-adv-x="764" 
d="M4 562l41 170h143l-76 -170h-108zM679 295h-286v-147h331v-148h-502v732h490v-147h-319v-144h286v-146z" />
    <glyph glyph-name="Etatonos" unicode="&#x389;" horiz-adv-x="938" 
d="M4 562l41 170h143l-76 -170h-108zM393 455h302v277h171v-732h-171v304h-302v-304h-171v732h171v-277z" />
    <glyph glyph-name="Iotatonos" unicode="&#x38a;" horiz-adv-x="465" 
d="M4 562l41 170h143l-76 -170h-108zM393 0h-171v732h171v-732z" />
    <glyph glyph-name="Omicrontonos" unicode="&#x38c;" horiz-adv-x="877" 
d="M170.5 569q47.5 86 129.5 131.5t181 45.5t180.5 -45.5t129 -131.5t47.5 -202q0 -117 -47.5 -203t-129 -131.5t-180.5 -45.5q-100 0 -181.5 45.5t-129 131.5t-47.5 203q0 116 47.5 202zM-7 563l40 170h144l-76 -170h-108zM324.5 249q22.5 -51 63.5 -78.5t93 -27.5t92 27.5
t62 78.5t22 118q0 66 -22 116.5t-62 78t-92 27.5t-92.5 -27.5t-63.5 -78t-23 -116.5q0 -67 22.5 -118z" />
    <glyph glyph-name="Upsilontonos" unicode="&#x38e;" horiz-adv-x="888" 
d="M4 563l40 170h143l-76 -170h-107zM544 446l154 286h184l-255 -453v-279h-173v278l-266 454h199z" />
    <glyph glyph-name="Omegatonos" unicode="&#x38f;" horiz-adv-x="873" 
d="M849 151v-151h-314v168q56 31 86.5 89t30.5 132q0 92 -46 146t-121 54q-76 0 -121.5 -54t-45.5 -146q0 -74 30 -132t87 -89v-168h-315v151h134q-55 44 -85.5 104.5t-30.5 144.5q0 105 47 183.5t126 120.5t174 42t174 -42t125.5 -120.5t46.5 -183.5q0 -84 -30.5 -144.5
t-85.5 -104.5h134zM5 563l40 170h143l-76 -170h-107z" />
    <glyph glyph-name="iotadieresistonos" unicode="&#x390;" horiz-adv-x="325" 
d="M69 579l32 170h127l-61 -170h-98zM-77.5 609.5q-21.5 22.5 -21.5 54.5t21.5 54t52.5 22q32 0 54 -22t22 -54t-22 -54.5t-54 -22.5q-31 0 -52.5 22.5zM256 610q-22 23 -22 54q0 32 22 54t54 22q30 0 51.5 -22.5t21.5 -53.5q0 -32 -21.5 -54.5t-51.5 -22.5q-32 0 -54 23z
M327 11q-48 -24 -117 -24q-82 0 -121.5 41t-39.5 134v355h164v-330q0 -31 11.5 -44t34.5 -13q24 0 49 12z" />
    <glyph glyph-name="Alpha" unicode="&#x391;" horiz-adv-x="749" 
d="M446 732l297 -732h-180l-56 148h-277l-54 -148h-170l289 732h151zM453 291l-87 228l-83 -228h170z" />
    <glyph glyph-name="Beta" unicode="&#x392;" horiz-adv-x="693" 
d="M659 213q0 -100 -75 -156.5t-206 -56.5h-306v732h281q118 0 194 -53t76 -154q0 -98 -78 -146q114 -46 114 -166zM239 585v-144h100q49 0 78 21t29 56q0 33 -28 50t-79 17h-100zM368 148q54 0 84 19.5t30 55.5t-30.5 56.5t-84.5 20.5h-128v-152h129z" />
    <glyph glyph-name="Gamma" unicode="&#x393;" horiz-adv-x="568" 
d="M72 732h490v-151h-319v-581h-171v732z" />
    <glyph glyph-name="uni0394" unicode="&#x394;" horiz-adv-x="739" 
d="M290 732h151l284 -648v-84h-711v84zM207 143h314l-160 382z" />
    <glyph glyph-name="Epsilon" unicode="&#x395;" 
d="M529 295h-286v-147h331v-148h-502v732h490v-147h-319v-144h286v-146z" />
    <glyph glyph-name="Zeta" unicode="&#x396;" horiz-adv-x="598" 
d="M568 732v-97l-317 -483h331v-152h-569v97l319 484h-288v151h524z" />
    <glyph glyph-name="Eta" unicode="&#x397;" horiz-adv-x="788" 
d="M243 455h302v277h171v-732h-171v304h-302v-304h-171v732h171v-277z" />
    <glyph glyph-name="Theta" unicode="&#x398;" horiz-adv-x="801" 
d="M86 566q48 86 131.5 133t185.5 47t185 -47t131.5 -133t48.5 -199q0 -114 -48.5 -200.5t-131.5 -133t-185 -46.5t-185.5 46.5t-131.5 133t-48 200.5q0 113 48 199zM240.5 249q23.5 -51 66 -79t96.5 -28t96 27.5t65.5 79t23.5 118.5t-23.5 117.5t-65.5 78t-96 27.5
t-96 -27.5t-66 -78t-24 -117.5t23.5 -118zM504 295h-203v149h203v-149z" />
    <glyph glyph-name="Iota" unicode="&#x399;" horiz-adv-x="315" 
d="M243 0h-171v732h171v-732z" />
    <glyph glyph-name="Kappa" unicode="&#x39a;" horiz-adv-x="771" 
d="M460 440l305 -440h-220l-210 307l-92 -100v-207h-171v732h171v-320l279 320h211z" />
    <glyph glyph-name="Lambda" unicode="&#x39b;" horiz-adv-x="743" 
d="M542 0l-179 490l-172 -490h-185l289 732h145l297 -732h-195z" />
    <glyph glyph-name="Mu" unicode="&#x39c;" horiz-adv-x="884" 
d="M684 732h129v-732h-162v434l-165 -236h-87l-167 238v-436h-160v732h132l241 -353z" />
    <glyph glyph-name="Nu" unicode="&#x39d;" horiz-adv-x="769" 
d="M209 732l332 -444v444h156v-732h-137l-332 445v-445h-156v732h137z" />
    <glyph glyph-name="Xi" unicode="&#x39e;" horiz-adv-x="653" 
d="M605 581h-557v151h557v-151zM563 292h-473v151h473v-151zM605 0h-557v151h557v-151z" />
    <glyph glyph-name="Omicron" unicode="&#x39f;" horiz-adv-x="792" 
d="M85.5 569q47.5 86 129.5 131.5t181 45.5t180.5 -45.5t129.5 -131.5t48 -202q0 -117 -48 -203t-129.5 -131.5t-180.5 -45.5q-100 0 -181.5 45.5t-129 131.5t-47.5 203q0 116 47.5 202zM240.5 249q22.5 -51 63 -78.5t92.5 -27.5t92 27.5t62.5 78.5t22.5 118
q0 66 -22.5 116.5t-62.5 78t-92 27.5t-92.5 -27.5t-63 -78t-22.5 -116.5q0 -67 22.5 -118z" />
    <glyph glyph-name="Pi" unicode="&#x3a0;" horiz-adv-x="781" 
d="M72 732h637v-732h-171v581h-295v-581h-171v732z" />
    <glyph glyph-name="Rho" unicode="&#x3a1;" horiz-adv-x="657" 
d="M337 732q92 0 160 -30.5t104.5 -86.5t36.5 -131t-36.5 -131t-104.5 -86.5t-160 -30.5h-94v-236h-171v732h265zM318 380q62 0 101 24t39 80q0 55 -39.5 79.5t-100.5 24.5h-75v-208h75z" />
    <glyph glyph-name="Sigma" unicode="&#x3a3;" horiz-adv-x="592" 
d="M259 581l185 -210l-200 -220h328v-151h-549v134l216 235l-201 229v134h515v-151h-294z" />
    <glyph glyph-name="Tau" unicode="&#x3a4;" horiz-adv-x="626" 
d="M7 732h612v-151h-220v-581h-172v581h-220v151z" />
    <glyph glyph-name="Upsilon" unicode="&#x3a5;" horiz-adv-x="707" 
d="M363 446l153 286h184l-255 -453v-279h-172v278l-267 454h199z" />
    <glyph glyph-name="Phi" unicode="&#x3a6;" horiz-adv-x="866" 
d="M794.5 225q-42.5 -62 -115.5 -100t-163 -51v-74h-165v74q-92 12 -164.5 50t-115 100t-42.5 143q0 80 42.5 142t115.5 100t164 50v73h165v-73q91 -13 163.5 -51t115 -99.5t42.5 -141.5t-42.5 -142zM244.5 279.5q38.5 -34.5 106.5 -46.5v268q-68 -12 -106.5 -46.5
t-38.5 -87.5t38.5 -87.5zM516 233q67 12 105 46.5t38 87.5t-38 87.5t-105 46.5v-268z" />
    <glyph glyph-name="Chi" unicode="&#x3a7;" horiz-adv-x="741" 
d="M725 732l-256 -355l269 -377h-211l-163 238l-166 -238h-196l269 373l-256 359h209l151 -220l153 220h197z" />
    <glyph glyph-name="Psi" unicode="&#x3a8;" horiz-adv-x="880" 
d="M669 732h169v-237q0 -147 -83.5 -230.5t-231.5 -102.5v-162h-167v162q-148 19 -230.5 102.5t-82.5 230.5v237h169v-198q0 -100 37 -149t107 -64v411h167v-411q70 14 108 63t38 150v198z" />
    <glyph glyph-name="uni03A9" unicode="&#x3a9;" horiz-adv-x="777" 
d="M753 151v-151h-315v168q56 31 86.5 89t30.5 132q0 92 -45.5 146t-121.5 54q-75 0 -121 -54t-46 -146q0 -74 30.5 -132t86.5 -89v-168h-314v151h134q-56 44 -86 104.5t-30 144.5q0 105 46.5 183.5t125.5 120.5t174 42t174 -42t126 -120.5t47 -183.5q0 -84 -30.5 -144.5
t-85.5 -104.5h134z" />
    <glyph glyph-name="Iotadieresis" unicode="&#x3aa;" horiz-adv-x="315" 
d="M-18 809.5q-24 20.5 -24 49.5q0 28 24 48.5t58 20.5q35 0 59.5 -20.5t24.5 -48.5q0 -29 -24 -49.5t-60 -20.5q-34 0 -58 20.5zM214 810q-24 21 -24 49t24 48.5t59 20.5q34 0 59 -20.5t25 -48.5q0 -29 -25 -49.5t-59 -20.5q-35 0 -59 21zM243 0h-171v732h171v-732z" />
    <glyph glyph-name="Upsilondieresis" unicode="&#x3ab;" horiz-adv-x="707" 
d="M185 809.5q-24 20.5 -24 49.5q0 28 24 48.5t58 20.5q35 0 59.5 -20.5t24.5 -48.5q0 -29 -24 -49.5t-60 -20.5q-34 0 -58 20.5zM417.5 810q-23.5 21 -23.5 49t23.5 48.5t58.5 20.5t59.5 -20.5t24.5 -48.5q0 -29 -24.5 -49.5t-59.5 -20.5t-58.5 21zM363 446l153 286h184
l-255 -453v-279h-172v278l-267 454h199z" />
    <glyph glyph-name="alphatonos" unicode="&#x3ac;" horiz-adv-x="664" 
d="M294 751h161l-107 -170h-125zM662 10q-42 -23 -101 -23q-51 0 -84 21t-48 67q-28 -44 -70 -66t-94 -22q-65 0 -118.5 32.5t-85 94t-31.5 145.5q0 85 31.5 146.5t85 93.5t118.5 32q52 0 93.5 -21.5t69.5 -64.5q5 30 7 72h145v-334q0 -31 8 -43.5t25 -12.5q18 0 31 6z
M385 159q32 35 32 100q0 64 -31.5 96.5t-78.5 32.5q-49 0 -79 -34.5t-30 -94.5q0 -61 30 -98t79 -37q46 0 78 35z" />
    <glyph glyph-name="epsilontonos" unicode="&#x3ad;" horiz-adv-x="498" 
d="M274 751h161l-107 -170h-125zM503 111q-60 -124 -239 -124q-69 0 -123 19.5t-84 53.5t-30 78q0 45 31.5 80.5t88.5 51.5q-103 30 -103 112q0 44 30 78t83 52.5t120 18.5q153 0 210 -103l-120 -73q-29 44 -91 44q-30 0 -47 -10.5t-17 -27.5q0 -19 21.5 -28.5t70.5 -9.5h41
v-125h-39q-111 0 -111 -42q0 -19 20 -28t51 -9q43 0 70.5 16.5t45.5 47.5z" />
    <glyph glyph-name="etatonos" unicode="&#x3ae;" horiz-adv-x="640" 
d="M340 749h160l-107 -170h-125zM539 474q50 -57 50 -168v-538h-164v483q0 56 -16 96.5t-66 40.5q-46 0 -71 -38t-25 -106v-244h-163v336q0 30 -8.5 41t-25.5 11q-14 0 -30 -7l-18 127q39 23 100 23q49 0 84 -25t51 -71q48 96 164 96q88 0 138 -57z" />
    <glyph glyph-name="iotatonos" unicode="&#x3af;" horiz-adv-x="325" 
d="M61 579l71 170h161l-107 -170h-125zM327 11q-48 -24 -117 -24q-82 0 -121.5 41t-39.5 134v355h164v-330q0 -31 11.5 -44t34.5 -13q24 0 49 12z" />
    <glyph glyph-name="upsilondieresistonos" unicode="&#x3b0;" horiz-adv-x="595" 
d="M235 579l32 170h127l-61 -170h-98zM88.5 609.5q-21.5 22.5 -21.5 54.5t21.5 54t52.5 22q32 0 54 -22t22 -54t-22 -54.5t-54 -22.5q-31 0 -52.5 22.5zM422 610q-22 23 -22 54q0 32 22 54t53 22q30 0 52 -22.5t22 -53.5t-22 -54t-52 -23q-31 0 -53 23zM51 517h163v-249
q0 -66 17.5 -102t66.5 -36t71.5 38t22.5 113q0 106 -44 236h169q23 -56 33.5 -116.5t10.5 -113.5q0 -131 -66.5 -215.5t-208.5 -84.5q-118 0 -176.5 62t-58.5 179v289z" />
    <glyph glyph-name="alpha" unicode="&#x3b1;" horiz-adv-x="664" 
d="M662 10q-42 -23 -101 -23q-51 0 -84.5 21t-48.5 67q-27 -44 -69 -66t-94 -22q-65 0 -118.5 32.5t-85 94t-31.5 145.5q0 85 31.5 146.5t85 93.5t118.5 32q52 0 93.5 -21.5t69.5 -65.5q5 33 7 73h145v-334q0 -31 8 -43.5t25 -12.5q18 0 31 6zM385 159q32 35 32 100
q0 64 -31.5 96.5t-78.5 32.5q-49 0 -79 -34.5t-30 -94.5q0 -61 30 -98t79 -37q46 0 78 35z" />
    <glyph glyph-name="beta" unicode="&#x3b2;" horiz-adv-x="639" 
d="M578 323.5q39 -44.5 39 -121.5q0 -68 -30 -116.5t-83 -73.5t-120 -25q-52 0 -94 15.5t-68 46.5v-281h-163v693q0 105 35.5 175.5t96 104t137.5 33.5q71 0 127 -28.5t87 -79t31 -115.5q0 -115 -97 -164q63 -19 102 -63.5zM422 149q27 22 27 67q0 58 -40 77t-87 19h-39v136
h18q50 0 76.5 21.5t26.5 69.5q0 44 -21 67.5t-59 23.5q-58 0 -80 -50.5t-22 -132.5v-161q0 -71 36 -115t96 -44q41 0 68 22z" />
    <glyph glyph-name="gamma" unicode="&#x3b3;" horiz-adv-x="581" 
d="M503.5 216q-41.5 -104 -135.5 -221v-227h-164v199l-203 550h181l116 -376q43 76 61 143.5t18 133.5q0 40 -10 99h168q10 -61 10 -98q0 -99 -41.5 -203z" />
    <glyph glyph-name="delta" unicode="&#x3b4;" horiz-adv-x="604" 
d="M442 519q72 -62 102 -124t30 -132q0 -84 -37 -147t-99 -96t-135 -33t-135.5 33t-100 94.5t-37.5 144.5q0 105 60 171.5t153 83.5l-167 142v104h429v-132h-191zM376 162.5q29 35.5 29 96.5t-29 97t-73 36q-45 0 -75 -36t-30 -97t29.5 -96.5t75.5 -35.5q44 0 73 35.5z" />
    <glyph glyph-name="epsilon" unicode="&#x3b5;" horiz-adv-x="498" 
d="M503 111q-60 -124 -239 -124q-69 0 -123 19.5t-84 53.5t-30 78q0 45 31 80t88 52q-102 30 -102 112q0 44 30 78t83 52.5t120 18.5q153 0 210 -103l-120 -73q-29 44 -91 44q-30 0 -47 -10.5t-17 -27.5q0 -19 21.5 -28.5t70.5 -9.5h41v-125h-39q-111 0 -111 -42
q0 -19 20 -28t51 -9q43 0 70.5 16.5t45.5 47.5z" />
    <glyph glyph-name="zeta" unicode="&#x3b6;" horiz-adv-x="550" 
d="M512.5 50.5q37.5 -39.5 37.5 -99.5q0 -57 -29.5 -99.5t-99.5 -90.5l-87 97q28 21 39 36t11 30q0 26 -25.5 44t-87.5 36q-102 29 -166.5 83.5t-64.5 162.5q0 102 62 197.5t185 180.5h-222v133h455v-108q-312 -191 -312 -372q0 -45 20.5 -73.5t56 -47t96.5 -38.5
q94 -32 131.5 -71.5z" />
    <glyph glyph-name="eta" unicode="&#x3b7;" horiz-adv-x="640" 
d="M539 474q50 -57 50 -168v-538h-164v483q0 56 -16 96.5t-66 40.5q-46 0 -71 -38t-25 -106v-244h-163v336q0 30 -8.5 41t-25.5 11q-14 0 -30 -7l-18 127q39 23 100 23q110 0 135 -96q49 96 164 96q88 0 138 -57z" />
    <glyph glyph-name="theta" unicode="&#x3b8;" horiz-adv-x="605" 
d="M442.5 729.5q61.5 -45.5 96.5 -134t35 -213.5t-35 -214t-96.5 -135t-139.5 -46q-79 0 -140.5 46t-97 135t-35.5 214q0 124 35.5 213t97.5 134.5t140 45.5t139.5 -45.5zM231.5 593q-26.5 -48 -33.5 -140h207q-7 92 -32.5 140t-69.5 48q-45 0 -71.5 -48zM374.5 176.5
q26.5 52.5 31.5 149.5h-209q6 -98 32.5 -150t73.5 -52q45 0 71.5 52.5z" />
    <glyph glyph-name="iota" unicode="&#x3b9;" horiz-adv-x="325" 
d="M327 11q-48 -24 -117 -24q-82 0 -121.5 41t-39.5 134v355h164v-330q0 -31 11.5 -44t34.5 -13q24 0 49 12z" />
    <glyph glyph-name="kappa" unicode="&#x3ba;" horiz-adv-x="582" 
d="M589 0h-184l-118 192l-65 -80v-112h-163v517h163v-205l93 122q40 53 78.5 75t83.5 22q67 0 99 -35l-48 -115q-16 11 -41 11q-19 0 -36 -8.5t-36 -33.5l-28 -35z" />
    <glyph glyph-name="lambda" unicode="&#x3bb;" horiz-adv-x="638" 
d="M655 11q-51 -24 -113 -24q-73 0 -112 35.5t-62 109.5l-62 201l-134 -333h-171l243 505l-23 59q-16 40 -33.5 55.5t-39.5 15.5q-31 0 -57 -21l-48 111q24 23 62 36.5t82 13.5q60 0 101 -30t67 -101l161 -446q13 -36 31 -53.5t45 -17.5q19 0 45 11z" />
    <glyph glyph-name="uni03BC" unicode="&#x3bc;" horiz-adv-x="647" 
d="M645 10q-40 -23 -97 -23q-51 0 -83 23.5t-44 73.5q-22 -48 -57 -72.5t-80 -24.5q-35 0 -62 14v-233h-163v749h163v-250q0 -62 17.5 -99.5t64.5 -37.5q46 0 71 38t25 106v243h163v-334q0 -31 8.5 -43.5t25.5 -12.5t30 6z" />
    <glyph glyph-name="nu" unicode="&#x3bd;" horiz-adv-x="575" 
d="M535 517q10 -57 10 -91q0 -98 -47.5 -202t-157.5 -224h-134l-205 517h181l116 -349q43 71 61 133t18 124q0 37 -10 92h168z" />
    <glyph glyph-name="xi" unicode="&#x3be;" horiz-adv-x="513" 
d="M488 54q41 -45 41 -108q0 -54 -30 -96t-99 -89l-87 97q28 22 39 37t11 32q0 25 -21.5 43t-71.5 33q-120 36 -178 83t-58 123q0 64 39.5 109t110.5 64q-58 14 -88 42t-30 75q0 49 28 80.5t72 48.5h-118v123h447v-108q-145 -6 -204 -38.5t-59 -76.5q0 -35 33.5 -57.5
t95.5 -22.5h104v-124h-117q-73 0 -109.5 -24.5t-36.5 -62.5q0 -37 34.5 -59t120.5 -50q90 -29 131 -74z" />
    <glyph glyph-name="omicron" unicode="&#x3bf;" horiz-adv-x="605" 
d="M67.5 403q37.5 62 100.5 95t135 33t134.5 -33t99.5 -95t37 -144q0 -83 -37 -144.5t-99 -94.5t-135 -33t-135.5 33t-100 94.5t-37.5 144.5q0 82 37.5 144zM227.5 162.5q29.5 -35.5 74.5 -35.5q44 0 73.5 35.5t29.5 96.5t-29.5 97t-73.5 36q-45 0 -74.5 -36t-29.5 -97
t29.5 -96.5z" />
    <glyph glyph-name="pi" unicode="&#x3c0;" horiz-adv-x="671" 
d="M657 11q-48 -24 -117 -24q-82 0 -121.5 41t-39.5 134v219h-115v-383l-163 2v381h-97v136h638v-136h-100v-194q0 -31 11.5 -44t35.5 -13q22 0 49 12z" />
    <glyph glyph-name="rho" unicode="&#x3c1;" horiz-adv-x="629" 
d="M526.5 459.5q71.5 -71.5 71.5 -200.5q0 -85 -29.5 -146.5t-82.5 -93.5t-121 -32q-90 0 -145 54v-273h-163v453q0 103 35.5 172.5t97.5 103.5t142 34q123 0 194.5 -71.5zM401.5 165q28.5 34 28.5 94t-28.5 96.5t-75.5 36.5t-76.5 -36.5t-29.5 -96.5q0 -61 29 -94.5
t77 -33.5q47 0 75.5 34z" />
    <glyph glyph-name="uni03C2" unicode="&#x3c2;" horiz-adv-x="501" 
d="M421 67q33 -23 47.5 -50.5t14.5 -67.5q0 -56 -30 -98.5t-100 -89.5l-87 96q29 22 39.5 37.5t10.5 36.5q0 23 -16.5 40t-63.5 34q-91 32 -148.5 89.5t-57.5 166.5q0 88 39 149t101 91t133 30q69 0 127 -31.5t79 -88.5l-123 -69q-33 52 -87 52q-46 0 -73.5 -35.5
t-27.5 -92.5q0 -59 31 -92t100 -60q59 -24 92 -47z" />
    <glyph glyph-name="sigma" unicode="&#x3c3;" horiz-adv-x="642" 
d="M638 517v-136h-106q42 -60 42 -138q0 -76 -37.5 -134.5t-99.5 -90t-134 -31.5q-73 0 -135.5 32t-100 92t-37.5 141t39.5 141t108.5 92t156 32h304zM376 161q29 34 29 91t-29 91.5t-73 34.5q-45 0 -75 -34.5t-30 -91.5t30 -91t75 -34q44 0 73 34z" />
    <glyph glyph-name="tau" unicode="&#x3c4;" horiz-adv-x="510" 
d="M502 517v-136h-179v-194q0 -31 11.5 -44t35.5 -13q22 0 49 12l19 -131q-48 -24 -118 -24q-81 0 -120.5 41t-39.5 134v219h-155v136h497z" />
    <glyph glyph-name="upsilon" unicode="&#x3c5;" horiz-adv-x="595" 
d="M51 517h163v-249q0 -66 17.5 -102t66.5 -36t71.5 38t22.5 113q0 106 -44 236h169q23 -56 33.5 -116.5t10.5 -113.5q0 -131 -66.5 -215.5t-208.5 -84.5q-118 0 -176.5 62t-58.5 179v289z" />
    <glyph glyph-name="phi" unicode="&#x3c6;" horiz-adv-x="795" 
d="M683.5 77.5q-80.5 -68.5 -207.5 -85.5v-224h-156v224q-128 17 -209 85t-81 182q0 113 81.5 181.5t209.5 85.5v177h156v-177q127 -17 207 -85.5t80 -181.5t-80.5 -181.5zM229.5 178.5q33.5 -31.5 90.5 -43.5l1 248q-58 -12 -91.5 -43.5t-33.5 -80.5t33.5 -80.5zM476 135
q56 12 88.5 43.5t32.5 80.5t-32.5 80.5t-87.5 43.5z" />
    <glyph glyph-name="chi" unicode="&#x3c7;" horiz-adv-x="568" 
d="M286 298l113 219h168l-203 -368l203 -381h-170l-114 226l-114 -226h-169l204 377l-204 372h171z" />
    <glyph glyph-name="psi" unicode="&#x3c8;" horiz-adv-x="786" 
d="M691.5 85q-61.5 -78 -216.5 -94v-223h-160v223q-139 14 -201.5 83.5t-62.5 207.5v235h163v-207q0 -75 23 -115.5t78 -55.5l1 564h160l-1 -565q58 12 83.5 50.5t25.5 107.5q0 49 -11.5 106t-35.5 115h169q25 -56 36 -117.5t11 -117.5q0 -119 -61.5 -197z" />
    <glyph glyph-name="omega" unicode="&#x3c9;" horiz-adv-x="797" 
d="M666 517q100 -123 100 -284q0 -119 -54 -182.5t-152 -63.5q-115 0 -162 90q-47 -90 -162 -90q-99 0 -152.5 63.5t-53.5 182.5q0 161 100 284h161q-100 -130 -100 -275q0 -59 18 -89t50 -30q31 0 46 32.5t15 107.5v113h156v-113q0 -75 15 -107.5t46 -32.5q32 0 50 30
t18 89q0 145 -100 275h161z" />
    <glyph glyph-name="iotadieresis" unicode="&#x3ca;" horiz-adv-x="325" 
d="M-44 603.5q-24 25.5 -24 60.5t24 60t58 25q36 0 60.5 -25t24.5 -60t-24.5 -60.5t-60.5 -25.5q-34 0 -58 25.5zM189 603.5q-24 25.5 -24 60.5t24 60t59 25q34 0 58.5 -25t24.5 -60t-24.5 -60.5t-58.5 -25.5q-35 0 -59 25.5zM327 11q-48 -24 -117 -24q-82 0 -121.5 41
t-39.5 134v355h164v-330q0 -31 11.5 -44t34.5 -13q24 0 49 12z" />
    <glyph glyph-name="upsilondieresis" unicode="&#x3cb;" horiz-adv-x="595" 
d="M122 603.5q-24 25.5 -24 60.5t24 60t58 25q36 0 60.5 -25t24.5 -60t-24.5 -60.5t-60.5 -25.5q-34 0 -58 25.5zM354.5 603.5q-23.5 25.5 -23.5 60.5t23.5 60t58.5 25t59.5 -25t24.5 -60t-24.5 -60.5t-59.5 -25.5t-58.5 25.5zM51 517h163v-249q0 -66 17.5 -102t66.5 -36
t71.5 38t22.5 113q0 106 -44 236h169q23 -56 33.5 -116.5t10.5 -113.5q0 -131 -66.5 -215.5t-208.5 -84.5q-118 0 -176.5 62t-58.5 179v289z" />
    <glyph glyph-name="omicrontonos" unicode="&#x3cc;" horiz-adv-x="605" 
d="M232 579l72 170h160l-107 -170h-125zM67.5 403q37.5 62 100.5 95t135 33t134.5 -33t99.5 -95t37 -144q0 -83 -37 -144.5t-99 -94.5t-135 -33t-135.5 33t-100 94.5t-37.5 144.5q0 82 37.5 144zM227.5 162.5q29.5 -35.5 74.5 -35.5q44 0 73.5 35.5t29.5 96.5t-29.5 97
t-73.5 36q-45 0 -74.5 -36t-29.5 -97t29.5 -96.5z" />
    <glyph glyph-name="upsilontonos" unicode="&#x3cd;" horiz-adv-x="595" 
d="M227 579l71 170h160l-107 -170h-124zM51 517h163v-249q0 -66 17.5 -102t66.5 -36t71.5 38t22.5 113q0 106 -44 236h169q23 -56 33.5 -116.5t10.5 -113.5q0 -131 -66.5 -215.5t-208.5 -84.5q-118 0 -176.5 62t-58.5 179v289z" />
    <glyph glyph-name="omegatonos" unicode="&#x3ce;" horiz-adv-x="797" 
d="M399 749h161l-107 -170h-125zM666 517q100 -123 100 -284q0 -119 -54 -182.5t-152 -63.5q-115 0 -162 90q-49 -90 -162 -90q-99 0 -152.5 63.5t-53.5 182.5q0 161 100 284h161q-100 -130 -100 -275q0 -59 18 -89t50 -30q31 0 46 32.5t15 107.5v113h156v-113
q0 -75 15 -107.5t46 -32.5q32 0 50 30t18 89q0 145 -100 275h161z" />
    <glyph glyph-name="uni03D1" unicode="&#x3d1;" horiz-adv-x="636" 
d="M627 453v-127h-91q-9 -166 -76.5 -252.5t-190.5 -86.5q-94 0 -159 52.5t-84 142.5l156 62q7 -57 30.5 -88.5t60.5 -31.5q88 0 97 202h-20q-168 0 -251 48.5t-83 155.5q0 66 30.5 122t87 89.5t130.5 33.5q113 0 184.5 -83.5t85.5 -238.5h93zM218 477.5q36 -24.5 137 -24.5
h13q-6 90 -33 139t-73 49q-35 0 -57.5 -26t-22.5 -69q0 -44 36 -68.5z" />
    <glyph glyph-name="uni03D2" unicode="&#x3d2;" horiz-adv-x="744" 
d="M739 732v-151h-22q-72 0 -126.5 -47t-84.5 -137.5t-30 -218.5v-178h-171v177q0 178 -82 316t-217 239h236q114 -92 161 -223q39 109 118.5 166t183.5 57h34z" />
    <glyph glyph-name="uni03D6" unicode="&#x3d6;" horiz-adv-x="846" 
d="M16 517h813v-133h-85q47 -86 47 -184q0 -107 -53 -160t-150 -53q-118 0 -165 90q-49 -90 -165 -90q-98 0 -150.5 53t-52.5 160q0 101 47 184h-86v133zM584 384h-322q-46 -78 -46 -159q0 -52 18 -77t47 -25q32 0 48 32.5t16 107.5v48h156v-48q0 -75 16.5 -107.5
t47.5 -32.5q28 0 46 25t18 77q0 83 -45 159z" />
    <glyph glyph-name="uni0400" unicode="&#x400;" 
d="M110 928h167l98 -133h-131zM529 295h-286v-147h331v-148h-502v732h490v-147h-319v-144h286v-146z" />
    <glyph glyph-name="uni0401" unicode="&#x401;" 
d="M138 809.5q-24 20.5 -24 49.5q0 28 24 48.5t58 20.5q35 0 59.5 -20.5t24.5 -48.5q0 -29 -24 -49.5t-60 -20.5q-34 0 -58 20.5zM370 810q-24 21 -24 49t24 48.5t59 20.5q34 0 59 -20.5t25 -48.5q0 -29 -25 -49.5t-59 -20.5q-35 0 -59 21zM529 295h-286v-147h331v-148h-502
v732h490v-147h-319v-144h286v-146z" />
    <glyph glyph-name="uni0402" unicode="&#x402;" horiz-adv-x="901" 
d="M797.5 393q76.5 -62 76.5 -179q0 -111 -69.5 -169t-192.5 -58q-29 0 -59 3v145q9 -1 25 -1q59 0 89 21t30 62t-29 64t-89 23q-74 0 -127 -40t-53 -135v-129h-172v581h-220v151h612v-151h-220v-185q77 59 197 59q125 0 201.5 -62z" />
    <glyph glyph-name="uni0403" unicode="&#x403;" horiz-adv-x="568" 
d="M258 794l94 134h160l-129 -134h-125zM72 732h490v-151h-319v-581h-171v732z" />
    <glyph glyph-name="uni0404" unicode="&#x404;" horiz-adv-x="694" 
d="M537 244l143 -80q-16 -48 -55 -88.5t-97.5 -64.5t-130.5 -24q-99 0 -181 47t-130 133.5t-48 199.5t48 199t130 133t181 47q72 0 130.5 -24t97.5 -64.5t55 -88.5l-143 -80q-45 107 -146 107q-62 0 -107 -39t-60 -116h227v-139h-228q13 -81 58.5 -123t109.5 -42
q101 0 146 107z" />
    <glyph glyph-name="uni0405" unicode="&#x405;" horiz-adv-x="601" 
d="M539.5 83q-42.5 -51 -106.5 -73.5t-131 -22.5q-101 0 -185 46.5t-112 134.5l138 79q22 -51 64.5 -79t100.5 -28q43 0 69.5 16.5t26.5 48.5q0 25 -18 42.5t-45.5 28.5t-75.5 26q-71 22 -117 43.5t-79 64t-33 110.5q0 75 39.5 126t103 75.5t136.5 24.5q96 0 168 -44
t93 -125l-140 -79q-16 45 -49.5 70t-81.5 25q-41 0 -66.5 -18t-25.5 -48q0 -33 32.5 -51t101.5 -39q73 -22 120 -44t81 -65t34 -113q0 -81 -42.5 -132z" />
    <glyph glyph-name="uni0406" unicode="&#x406;" horiz-adv-x="315" 
d="M243 0h-171v732h171v-732z" />
    <glyph glyph-name="uni0407" unicode="&#x407;" horiz-adv-x="315" 
d="M-18 809.5q-24 20.5 -24 49.5q0 28 24 48.5t58 20.5q35 0 59.5 -20.5t24.5 -48.5q0 -29 -24 -49.5t-60 -20.5q-34 0 -58 20.5zM214 810q-24 21 -24 49t24 48.5t59 20.5q34 0 59 -20.5t25 -48.5q0 -29 -25 -49.5t-59 -20.5q-35 0 -59 21zM243 0h-171v732h171v-732z" />
    <glyph glyph-name="uni0408" unicode="&#x408;" horiz-adv-x="553" 
d="M82 29q-63 42 -82 129l143 75q11 -45 32.5 -67.5t58.5 -22.5q46 0 64.5 35.5t18.5 112.5v441h172v-458q0 -153 -72.5 -220t-184.5 -67q-87 0 -150 42z" />
    <glyph glyph-name="uni0409" unicode="&#x409;" horiz-adv-x="1150" 
d="M843 467q132 0 206.5 -61t74.5 -174q0 -112 -74.5 -172t-206.5 -60h-307v581h-223l-18 -314q-7 -114 -38.5 -174.5t-89 -83t-153.5 -22.5v156q45 0 68.5 13t33 43.5t12.5 89.5l28 443h551v-265h136zM832 148q53 0 83.5 23t30.5 61q0 40 -30.5 63t-83.5 23h-125v-170h125z
" />
    <glyph glyph-name="uni040A" unicode="&#x40a;" horiz-adv-x="1163" 
d="M855 455q133 0 207 -58t74 -170t-74 -169.5t-207 -57.5h-310v304h-302v-304h-171v732h171v-277h302v277h171v-277h139zM844 148q53 0 83.5 21.5t30.5 57.5q0 37 -30.5 58t-83.5 21h-128v-158h128z" />
    <glyph glyph-name="uni040B" unicode="&#x40b;" horiz-adv-x="887" 
d="M775 385.5q74 -68.5 74 -206.5v-179h-170v143q0 84 -31.5 119.5t-101.5 35.5q-66 0 -106.5 -34.5t-40.5 -121.5v-142h-172v581h-220v151h612v-151h-220v-178q66 51 174 51q128 0 202 -68.5z" />
    <glyph glyph-name="uni040C" unicode="&#x40c;" horiz-adv-x="749" 
d="M320 795l98 133h167l-134 -133h-131zM484 373l258 -373h-204l-194 290h-101v-290h-171v732h171v-290h104l193 290h192z" />
    <glyph glyph-name="uni040D" unicode="&#x40d;" horiz-adv-x="769" 
d="M202 928h160l94 -134h-125zM560 732h137v-732h-156v455l-332 -455h-137v732h156v-455z" />
    <glyph glyph-name="uni040E" unicode="&#x40e;" horiz-adv-x="707" 
d="M224 829.5q-51 36.5 -51 98.5h123q8 -58 64 -58q59 0 65 58h123q0 -63 -51 -99t-137 -36q-85 0 -136 36.5zM366 386l154 346h180l-257 -527q-35 -72 -67.5 -117.5t-80.5 -73t-118 -27.5q-69 0 -119 28v158q55 -29 110 -29q38 0 63 14t48 50l-273 524h193z" />
    <glyph glyph-name="uni040F" unicode="&#x40f;" horiz-adv-x="781" 
d="M243 151h295v581h171v-732h-238l-6 -172h-148l-6 172h-239v732h171v-581z" />
    <glyph glyph-name="uni0410" unicode="&#x410;" horiz-adv-x="748" 
d="M446 732l297 -732h-180l-56 148h-277l-54 -148h-170l289 732h151zM453 291l-87 228l-83 -228h170z" />
    <glyph glyph-name="uni0411" unicode="&#x411;" horiz-adv-x="694" 
d="M378 447q131 0 206 -59t75 -165t-74.5 -164.5t-206.5 -58.5h-306v732h526v-147h-355v-138h135zM368 148q54 0 84 20t30 56q0 37 -30 57t-84 20h-125v-153h125z" />
    <glyph glyph-name="uni0412" unicode="&#x412;" horiz-adv-x="693" 
d="M659 213q0 -100 -75 -156.5t-206 -56.5h-306v732h281q118 0 194 -53t76 -154q0 -98 -78 -146q114 -46 114 -166zM239 585v-144h100q49 0 78 21t29 56q0 33 -28 50t-79 17h-100zM368 148q54 0 84 19.5t30 55.5t-30.5 56.5t-84.5 20.5h-128v-152h129z" />
    <glyph glyph-name="uni0413" unicode="&#x413;" horiz-adv-x="568" 
d="M72 732h490v-151h-319v-581h-171v732z" />
    <glyph glyph-name="uni0414" unicode="&#x414;" horiz-adv-x="837" 
d="M720 151h105l-12 -323h-147l-6 172h-482l-6 -172h-147l-12 323h41q46 0 74 22t44 74t24 145l30 340h494v-581zM549 151v430h-169l-19 -210q-12 -149 -55 -220h243z" />
    <glyph glyph-name="uni0415" unicode="&#x415;" 
d="M529 295h-286v-147h331v-148h-502v732h490v-147h-319v-144h286v-146z" />
    <glyph glyph-name="uni0416" unicode="&#x416;" horiz-adv-x="1130" 
d="M885 373l238 -373h-202l-178 290h-97v-290h-171v290h-97l-177 -290h-203l238 373l-227 359h191l177 -290h98v290h171v-290h99l177 290h190z" />
    <glyph glyph-name="uni0417" unicode="&#x417;" horiz-adv-x="611" 
d="M577 200q0 -101 -76 -157t-203 -56q-110 0 -178 43t-98 129l134 78q40 -99 139 -99q46 0 74 21.5t28 59.5q0 43 -38.5 64t-116.5 21h-24v138h40q57 0 86 23t29 60q0 32 -22 51t-62 19q-89 0 -130 -99l-128 74q27 86 97.5 131.5t174.5 45.5q75 0 132 -26t88 -73t31 -108
q0 -55 -26.5 -96.5t-77.5 -65.5q127 -49 127 -178z" />
    <glyph glyph-name="uni0418" unicode="&#x418;" horiz-adv-x="769" 
d="M560 732h137v-732h-156v455l-332 -455h-137v732h156v-455z" />
    <glyph glyph-name="uni0419" unicode="&#x419;" horiz-adv-x="769" 
d="M249 829.5q-51 36.5 -51 98.5h123q8 -58 64 -58q59 0 65 58h123q0 -63 -51 -99t-137 -36q-85 0 -136 36.5zM560 732h137v-732h-156v455l-332 -455h-137v732h156v-455z" />
    <glyph glyph-name="uni041A" unicode="&#x41a;" horiz-adv-x="749" 
d="M484 373l258 -373h-204l-194 290h-101v-290h-171v732h171v-290h104l193 290h192z" />
    <glyph glyph-name="uni041B" unicode="&#x41b;" horiz-adv-x="779" 
d="M707 732v-732h-171v581h-223l-18 -313q-7 -114 -38.5 -175t-89 -83.5t-153.5 -22.5v156q45 0 68.5 13t33 43.5t12.5 89.5l28 443h551z" />
    <glyph glyph-name="uni041C" unicode="&#x41c;" horiz-adv-x="884" 
d="M684 732h129v-732h-162v434l-165 -236h-87l-167 238v-436h-160v732h132l241 -353z" />
    <glyph glyph-name="uni041D" unicode="&#x41d;" horiz-adv-x="788" 
d="M243 455h302v277h171v-732h-171v304h-302v-304h-171v732h171v-277z" />
    <glyph glyph-name="uni041E" unicode="&#x41e;" horiz-adv-x="792" 
d="M85.5 569q47.5 86 129.5 131.5t181 45.5t180.5 -45.5t129.5 -131.5t48 -202q0 -117 -48 -203t-129.5 -131.5t-180.5 -45.5q-100 0 -181.5 45.5t-129 131.5t-47.5 203q0 116 47.5 202zM240.5 249q22.5 -51 63 -78.5t92.5 -27.5t92 27.5t62.5 78.5t22.5 118
q0 66 -22.5 116.5t-62.5 78t-92 27.5t-92.5 -27.5t-63 -78t-22.5 -116.5q0 -67 22.5 -118z" />
    <glyph glyph-name="uni041F" unicode="&#x41f;" horiz-adv-x="781" 
d="M72 732h637v-732h-171v581h-295v-581h-171v732z" />
    <glyph glyph-name="uni0420" unicode="&#x420;" horiz-adv-x="657" 
d="M337 732q92 0 160 -30.5t104.5 -86.5t36.5 -131t-36.5 -131t-104.5 -86.5t-160 -30.5h-94v-236h-171v732h265zM318 380q62 0 101 24t39 80q0 55 -39.5 79.5t-100.5 24.5h-75v-208h75z" />
    <glyph glyph-name="uni0421" unicode="&#x421;" horiz-adv-x="695" 
d="M537 248l143 -84q-16 -48 -55 -88.5t-97.5 -64.5t-130.5 -24q-99 0 -181 47t-130 133.5t-48 199.5t48 199t130 133t181 47q72 0 130.5 -24t97.5 -64.5t55 -88.5l-143 -84q-45 104 -144 104q-49 0 -88.5 -26.5t-63 -77t-23.5 -118.5t23.5 -119t63 -77.5t88.5 -26.5
q99 0 144 104z" />
    <glyph glyph-name="uni0422" unicode="&#x422;" horiz-adv-x="626" 
d="M7 732h612v-151h-220v-581h-172v581h-220v151z" />
    <glyph glyph-name="uni0423" unicode="&#x423;" horiz-adv-x="707" 
d="M366 386l154 346h180l-257 -527q-35 -72 -67.5 -117.5t-80.5 -73t-118 -27.5q-69 0 -119 28v158q55 -29 110 -29q38 0 63 14t48 50l-273 524h193z" />
    <glyph glyph-name="uni0424" unicode="&#x424;" horiz-adv-x="866" 
d="M794.5 225q-42.5 -62 -115.5 -100t-163 -51v-74h-165v74q-92 12 -164.5 50t-115 100t-42.5 143q0 80 42.5 142t115.5 100t164 50v73h165v-73q91 -13 163.5 -51t115 -99.5t42.5 -141.5t-42.5 -142zM244.5 279.5q38.5 -34.5 106.5 -46.5v268q-68 -12 -106.5 -46.5
t-38.5 -87.5t38.5 -87.5zM516 233q67 12 105 46.5t38 87.5t-38 87.5t-105 46.5v-268z" />
    <glyph glyph-name="uni0425" unicode="&#x425;" horiz-adv-x="741" 
d="M725 732l-256 -355l269 -377h-211l-163 238l-166 -238h-196l269 373l-256 359h209l151 -220l153 220h197z" />
    <glyph glyph-name="uni0426" unicode="&#x426;" horiz-adv-x="844" 
d="M709 732v-581h105l-11 -323h-148l-6 172h-577v732h171v-581h295v581h171z" />
    <glyph glyph-name="uni0427" unicode="&#x427;" horiz-adv-x="730" 
d="M487 732h171v-732h-171v281q-65 -52 -173 -52q-128 0 -202.5 68.5t-74.5 206.5v228h171v-192q0 -83 31.5 -119t101.5 -36q66 0 106 34.5t40 121.5v191z" />
    <glyph glyph-name="uni0428" unicode="&#x428;" horiz-adv-x="1056" 
d="M614 151h200v581h170v-732h-912v732h171v-581h200v581h170z" />
    <glyph glyph-name="uni0429" unicode="&#x429;" horiz-adv-x="1119" 
d="M814 732h170v-581h104l-11 -323h-148l-6 172h-851v732h171v-581h200v581h170l1 -581h200v581z" />
    <glyph glyph-name="uni042A" unicode="&#x42a;" horiz-adv-x="825" 
d="M517 467q132 0 206.5 -61t74.5 -174q0 -112 -74.5 -172t-206.5 -60h-307v585h-203v147h374v-265h136zM506 148q53 0 83.5 23t30.5 61q0 40 -30.5 63t-83.5 23h-125v-170h125z" />
    <glyph glyph-name="uni042B" unicode="&#x42b;" horiz-adv-x="988" 
d="M378 467q132 0 206.5 -61t74.5 -174q0 -112 -74.5 -172t-206.5 -60h-306v732h171v-265h135zM916 0h-171v732h171v-732zM368 148q53 0 83.5 23t30.5 61q0 40 -30.5 63t-83.5 23h-125v-170h125z" />
    <glyph glyph-name="uni042C" unicode="&#x42c;" horiz-adv-x="686" 
d="M378 467q132 0 206.5 -61t74.5 -174q0 -112 -74.5 -172t-206.5 -60h-306v732h171v-265h135zM368 148q53 0 83.5 23t30.5 61q0 40 -30.5 63t-83.5 23h-125v-170h125z" />
    <glyph glyph-name="uni042D" unicode="&#x42d;" horiz-adv-x="694" 
d="M492 699.5q78 -46.5 120.5 -132t42.5 -200.5t-42.5 -201t-120.5 -132.5t-182 -46.5q-76 0 -138 24t-102.5 64.5t-55.5 88.5l143 80q45 -107 154 -107q65 0 106.5 41t53.5 124h-228v139h227q-13 78 -54 116.5t-105 38.5q-109 0 -154 -107l-143 80q15 48 55.5 88.5
t102.5 64.5t138 24q104 0 182 -46.5z" />
    <glyph glyph-name="uni042E" unicode="&#x42e;" horiz-adv-x="1070" 
d="M866.5 702q76.5 -44 121 -129.5t44.5 -205.5q0 -121 -44.5 -207t-121 -129.5t-169.5 -43.5q-85 0 -156 36.5t-117.5 108t-57.5 172.5h-123v-304h-171v732h171v-277h127q15 93 61.5 158.5t115 99t150.5 33.5q93 0 169.5 -44zM810 201.5q42 58.5 42 165.5
q0 105 -42.5 163.5t-112.5 58.5q-71 0 -114 -58t-43 -164t43 -165t114 -59t113 58.5z" />
    <glyph glyph-name="uni042F" unicode="&#x42f;" horiz-adv-x="705" 
d="M197 284q-62 31 -95 84t-33 122q0 72 36 127t103.5 85t158.5 30h266v-732h-171v248h-92h-5l-162 -247l-203 -1zM387 588q-137 0 -137 -98q0 -54 40 -76.5t97 -22.5h75v197h-75z" />
    <glyph glyph-name="uni0430" unicode="&#x430;" horiz-adv-x="572" 
d="M460 468.5q61 -62.5 61 -176.5v-292h-137q-5 42 -7 56q-24 -35 -58 -52t-86 -17q-55 0 -100.5 19.5t-72 56t-26.5 86.5q0 52 29.5 91.5t79.5 60.5t109 21q55 0 108 -19q-7 98 -89 98q-69 0 -100 -64l-115 67q29 59 89.5 93t141.5 34q112 0 173 -62.5zM360 202
q-39 10 -74 10q-41 0 -65 -15t-24 -40q0 -23 18 -36t46 -13q38 0 68.5 22t30.5 59v13z" />
    <glyph glyph-name="uni0431" unicode="&#x431;" horiz-adv-x="594" 
d="M451 483.5q52 -31.5 82 -90.5t30 -140q0 -84 -34.5 -144t-94.5 -91t-135 -31q-121 0 -195 87t-74 277q0 111 26.5 197.5t82.5 136.5q46 40 100 52t136 16q48 2 79 6.5t53 16.5v-140q-19 -13 -45 -16t-73 -4q-56 -2 -89 -8t-58 -27q-36 -32 -47 -113q58 47 139 47
q65 0 117 -31.5zM367 157.5q26 34.5 26 91.5q0 58 -26 93.5t-69 35.5q-44 0 -71.5 -36t-27.5 -93q0 -58 27.5 -92t71.5 -34q43 0 69 34.5z" />
    <glyph glyph-name="uni0432" unicode="&#x432;" horiz-adv-x="550" 
d="M508.5 222q21.5 -29 21.5 -71q0 -71 -56 -111t-156 -40h-259v517h242q91 0 147 -37.5t56 -108.5q0 -72 -58 -105q41 -15 62.5 -44zM218 399v-81h60q63 0 63 42q0 18 -15.5 28.5t-47.5 10.5h-60zM295 118q71 0 71 43q0 20 -17.5 32t-53.5 12h-77v-87h77z" />
    <glyph glyph-name="uni0433" unicode="&#x433;" horiz-adv-x="456" 
d="M59 517h391v-136h-228v-381h-163v517z" />
    <glyph glyph-name="uni0434" unicode="&#x434;" horiz-adv-x="668" 
d="M567 126h93l-12 -298h-140l-6 167h-337l-6 -167h-142l-11 298h40q41 0 63 24t32.5 74.5t18.5 147.5l13 145h394v-391zM408 126v260h-93l-3 -36q-7 -80 -16.5 -134t-27.5 -90h140z" />
    <glyph glyph-name="uni0435" unicode="&#x435;" horiz-adv-x="562" 
d="M422.5 500.5q54.5 -30.5 84.5 -87.5t30 -133q0 -32 -6 -68h-331q11 -43 38 -66.5t66 -23.5q32 0 57.5 15t37.5 44l119 -71q-22 -59 -83 -91t-137 -32q-70 0 -131.5 31t-99 93t-37.5 150q0 87 37.5 148t98.5 91.5t131 30.5q71 0 125.5 -30.5zM234.5 380.5
q-23.5 -20.5 -34.5 -57.5h172q-4 38 -26 58t-54 20q-34 0 -57.5 -20.5z" />
    <glyph glyph-name="uni0436" unicode="&#x436;" horiz-adv-x="870" 
d="M571 326l126 191h172l-170 -248l171 -269h-184l-116 190h-53v-190h-163v190h-53l-117 -190h-184l171 269l-170 248h172l126 -191h55v191h163v-191h54z" />
    <glyph glyph-name="uni0437" unicode="&#x437;" horiz-adv-x="495" 
d="M438 218q31 -35 31 -80q0 -44 -28 -78t-80 -53.5t-122 -19.5q-90 0 -153.5 31.5t-93.5 92.5l111 66q18 -30 47 -44t72 -14q33 0 56 9t23 28q0 42 -111 42h-39v125h41q49 0 70 9.5t21 28.5q0 18 -16 28t-46 10q-63 0 -92 -44l-120 73q27 47 85 75t138 28q101 0 160.5 -41
t59.5 -108q0 -82 -102 -112q57 -17 88 -52z" />
    <glyph glyph-name="uni0438" unicode="&#x438;" horiz-adv-x="630" 
d="M216 517v-283l224 283h130v-517h-156v284l-225 -284h-130v517h157z" />
    <glyph glyph-name="uni0439" unicode="&#x439;" horiz-adv-x="630" 
d="M179.5 625q-51.5 46 -51.5 124h123q6 -74 64 -74t66 74h122q0 -78 -51 -124t-137 -46q-84 0 -135.5 46zM216 517v-283l224 283h130v-517h-156v284l-225 -284h-130v517h157z" />
    <glyph glyph-name="uni043A" unicode="&#x43a;" horiz-adv-x="589" 
d="M279 326l135 191h174l-182 -248l183 -269h-186l-126 190h-55v-190h-163v517h163v-191h57z" />
    <glyph glyph-name="uni043B" unicode="&#x43b;" horiz-adv-x="613" 
d="M553 517v-517h-163v380h-119l-8 -138q-7 -104 -32.5 -158.5t-76 -75.5t-139.5 -21v156q37 0 56.5 12t28 37t11.5 71l15 254h427z" />
    <glyph glyph-name="uni043C" unicode="&#x43c;" horiz-adv-x="715" 
d="M528 517h128v-517h-147v269l-120 -173h-62l-121 166v-262h-147v517h127l173 -243z" />
    <glyph glyph-name="uni043D" unicode="&#x43d;" horiz-adv-x="618" 
d="M222 331h174v186h163v-517h-163v195h-174v-195h-163v517h163v-186z" />
    <glyph glyph-name="uni043E" unicode="&#x43e;" horiz-adv-x="605" 
d="M67.5 403q37.5 62 100.5 95t135 33t134.5 -33t99.5 -95t37 -144q0 -83 -37 -144.5t-99 -94.5t-135 -33t-135.5 33t-100 94.5t-37.5 144.5q0 82 37.5 144zM227.5 162.5q29.5 -35.5 74.5 -35.5q44 0 73.5 35.5t29.5 96.5t-29.5 97t-73.5 36q-45 0 -74.5 -36t-29.5 -97
t29.5 -96.5z" />
    <glyph glyph-name="uni043F" unicode="&#x43f;" horiz-adv-x="618" 
d="M59 517h500v-517h-163v381h-174v-381h-163v517z" />
    <glyph glyph-name="uni0440" unicode="&#x440;" horiz-adv-x="640" 
d="M492.5 499q53.5 -32 85 -93.5t31.5 -146.5q0 -84 -31.5 -145.5t-85 -94t-117.5 -32.5q-98 0 -153 71v-290h-163v749h145q4 -56 7 -73q28 44 70 65.5t94 21.5q64 0 117.5 -32zM411 164.5q30 34.5 30 94.5q0 61 -30 98t-78 37q-47 0 -79 -35t-32 -100t31.5 -97t79.5 -32
t78 34.5z" />
    <glyph glyph-name="uni0441" unicode="&#x441;" horiz-adv-x="505" 
d="M349.5 141.5q20.5 13.5 36.5 39.5l123 -71q-24 -60 -81 -91.5t-129 -31.5q-69 0 -130.5 30.5t-100 92t-38.5 149.5t38.5 149.5t100 92t130.5 30.5q72 0 129 -31.5t81 -90.5l-123 -72q-17 26 -37.5 40t-49.5 14q-46 0 -73.5 -36.5t-27.5 -95.5t27.5 -95t73.5 -36
q30 0 50.5 13.5z" />
    <glyph glyph-name="uni0442" unicode="&#x442;" horiz-adv-x="506" 
d="M5 381v136h497v-136h-168v-381h-163v381h-166z" />
    <glyph glyph-name="uni0443" unicode="&#x443;" horiz-adv-x="591" 
d="M418 517h172l-229 -574q-39 -99 -94 -143t-133 -44q-40 0 -75 11.5t-59 31.5l63 123q34 -23 69 -23q32 0 52 18.5t45 71.5l-228 528h181l125 -329z" />
    <glyph glyph-name="uni0444" unicode="&#x444;" horiz-adv-x="795" 
d="M683.5 77.5q-80.5 -68.5 -207.5 -85.5v-224h-156v224q-128 17 -209 85t-81 182q0 113 81.5 181.5t209.5 85.5v177h156v-177q127 -17 207 -85.5t80 -181.5t-80.5 -181.5zM229.5 178.5q33.5 -31.5 90.5 -43.5l1 248q-58 -12 -91.5 -43.5t-33.5 -80.5t33.5 -80.5zM476 135
q56 12 88.5 43.5t32.5 80.5t-32.5 80.5t-87.5 43.5z" />
    <glyph glyph-name="uni0445" unicode="&#x445;" horiz-adv-x="557" 
d="M281 380l97 137h178l-191 -254l191 -263h-185l-96 138l-96 -138h-178l190 255l-190 262h185z" />
    <glyph glyph-name="uni0446" unicode="&#x446;" horiz-adv-x="665" 
d="M559 517v-381h100l-12 -308h-140l-7 172h-441v517h163v-381h174v381h163z" />
    <glyph glyph-name="uni0447" unicode="&#x447;" horiz-adv-x="604" 
d="M382 517h163v-517h-163v172q-48 -44 -133 -44q-91 0 -147 47t-56 135v207h165v-152q0 -94 83 -94q43 0 65.5 25.5t22.5 72.5v148z" />
    <glyph glyph-name="uni0448" unicode="&#x448;" horiz-adv-x="843" 
d="M500 136h125v381h158v-517h-724v517h158v-381h125v381h158v-381z" />
    <glyph glyph-name="uni0449" unicode="&#x449;" horiz-adv-x="889" 
d="M783 517v-381h100l-11 -308h-140l-7 172h-666v517h158v-381h125v381h158v-381h125v381h158z" />
    <glyph glyph-name="uni044A" unicode="&#x44a;" horiz-adv-x="689" 
d="M450 350q106 0 163 -45t57 -129q0 -85 -57.5 -130.5t-162.5 -45.5h-268v381h-172v136h342v-167h98zM422 126q79 0 79 50q0 49 -79 49h-70v-99h70z" />
    <glyph glyph-name="uni044B" unicode="&#x44b;" horiz-adv-x="849" 
d="M327 350q106 0 163 -45t57 -129q0 -85 -57.5 -130.5t-162.5 -45.5h-268v517h170v-167h98zM789 0h-170v517h170v-517zM300 126q78 0 78 50q0 49 -78 49h-71v-99h71z" />
    <glyph glyph-name="uni044C" unicode="&#x44c;" horiz-adv-x="566" 
d="M327 350q106 0 163 -45t57 -129q0 -85 -57.5 -130.5t-162.5 -45.5h-268v517h170v-167h98zM300 126q78 0 78 50q0 49 -78 49h-71v-99h71z" />
    <glyph glyph-name="uni044D" unicode="&#x44d;" horiz-adv-x="505" 
d="M345 501q60 -30 95 -91.5t35 -150.5t-35 -150.5t-95 -91.5t-135 -30q-73 0 -132.5 32t-80.5 91l116 65q16 -27 39.5 -42t57.5 -15q38 0 62.5 21.5t34.5 61.5h-149v121h148q-11 38 -35 58.5t-61 20.5q-62 0 -97 -58l-116 66q21 58 80.5 90t132.5 32q75 0 135 -30z" />
    <glyph glyph-name="uni044E" unicode="&#x44e;" horiz-adv-x="840" 
d="M683 499.5q57 -31.5 91.5 -93t34.5 -147.5t-34.5 -147.5t-91.5 -93t-124 -31.5q-59 0 -111 24t-87.5 72t-46.5 115h-92v-198h-163v517h163v-183h95q20 94 87.5 145.5t154.5 51.5q67 0 124 -31.5zM619.5 161q23.5 34 23.5 98t-23.5 98.5t-61.5 34.5t-62 -34.5t-24 -98.5
t24 -98t62 -34t61.5 34z" />
    <glyph glyph-name="uni044F" unicode="&#x44f;" horiz-adv-x="572" 
d="M513 517v-517h-155v164h-60l-117 -163l-180 -1l144 188q-47 22 -71.5 61.5t-24.5 91.5q0 80 57.5 128t159.5 48h247zM358 294v93h-81q-66 0 -66 -46q0 -24 18 -35.5t48 -11.5h81z" />
    <glyph glyph-name="uni0450" unicode="&#x450;" horiz-adv-x="562" 
d="M108 749h160l94 -170h-125zM422.5 500.5q54.5 -30.5 84.5 -87.5t30 -133q0 -32 -6 -68h-331q11 -43 38 -66.5t66 -23.5q32 0 57.5 15t37.5 44l119 -71q-22 -59 -83 -91t-137 -32q-70 0 -131.5 31t-99 93t-37.5 150q0 87 37.5 148t98.5 91.5t131 30.5q71 0 125.5 -30.5z
M234.5 380.5q-23.5 -20.5 -34.5 -57.5h172q-4 38 -26 58t-54 20q-34 0 -57.5 -20.5z" />
    <glyph glyph-name="uni0451" unicode="&#x451;" horiz-adv-x="562" 
d="M116 603.5q-24 25.5 -24 60.5t24 60t58 25q36 0 60.5 -25t24.5 -60q0 -36 -24.5 -61t-60.5 -25q-34 0 -58 25.5zM348.5 603.5q-23.5 25.5 -23.5 60.5t23.5 60t58.5 25t59.5 -25t24.5 -60t-24.5 -60.5t-59.5 -25.5t-58.5 25.5zM422.5 500.5q54.5 -30.5 84.5 -87.5t30 -133
q0 -32 -6 -68h-331q11 -43 38 -66.5t66 -23.5q32 0 57.5 15t37.5 44l119 -71q-22 -59 -83 -91t-137 -32q-70 0 -131.5 31t-99 93t-37.5 150q0 87 37.5 148t98.5 91.5t131 30.5q71 0 125.5 -30.5zM234.5 380.5q-23.5 -20.5 -34.5 -57.5h172q-4 38 -26 58t-54 20
q-34 0 -57.5 -20.5z" />
    <glyph glyph-name="uni0452" unicode="&#x452;" horiz-adv-x="630" 
d="M529 474q50 -57 50 -168v-307q0 -81 -28.5 -135.5t-77 -81t-108.5 -26.5q-79 0 -138 47l62 114q29 -22 59 -22q37 0 51.5 31.5t14.5 87.5v237q0 66 -18.5 101.5t-63.5 35.5t-70 -38t-25 -106v-244h-163v566h-73v111h73v84h163v-84h133v-111h-133v-113q50 78 155 78
q87 0 137 -57z" />
    <glyph glyph-name="uni0453" unicode="&#x453;" horiz-adv-x="456" 
d="M191 581l93 170h161l-130 -170h-124zM59 517h391v-136h-228v-381h-163v517z" />
    <glyph glyph-name="uni0454" unicode="&#x454;" horiz-adv-x="505" 
d="M353.5 133q22.5 15 39.5 42l116 -65q-21 -59 -79 -91t-127 -32q-71 0 -133 30.5t-101 92t-39 149.5t39 149.5t101 92t133 30.5q68 0 126 -32t80 -90l-116 -66q-37 58 -94 58q-36 0 -61.5 -21t-37.5 -58h147v-121h-148q11 -39 37 -61t63 -22q32 0 54.5 15z" />
    <glyph glyph-name="uni0455" unicode="&#x455;" horiz-adv-x="474" 
d="M396.5 31.5q-62.5 -44.5 -160.5 -44.5q-84 0 -146 36t-85 99l118 69q13 -35 43.5 -54.5t70.5 -19.5q25 0 40 8.5t15 24.5q0 19 -21.5 30t-70.5 26q-53 15 -87.5 30t-59.5 44.5t-25 76.5q0 54 30 93.5t80 60t109 20.5q82 0 138 -35t71 -92l-118 -66q-29 63 -92 63
q-24 0 -37.5 -9.5t-13.5 -24.5q0 -19 20.5 -29t67.5 -24q52 -14 88 -30t62 -47t26 -81q0 -80 -62.5 -124.5z" />
    <glyph glyph-name="uni0456" unicode="&#x456;" horiz-adv-x="280" 
d="M73 600.5q-28 28.5 -28 67.5q0 40 27.5 68.5t67.5 28.5q38 0 66.5 -29t28.5 -68t-28 -67.5t-67 -28.5t-67 28.5zM222 0h-163v517h163v-517z" />
    <glyph glyph-name="uni0457" unicode="&#x457;" horiz-adv-x="272" 
d="M-15 603.5q-24 25.5 -24 60.5t24 60t58 25q36 0 60 -25t24 -60t-24.5 -60.5t-59.5 -25.5q-34 0 -58 25.5zM168 604q-24 26 -24 60q0 35 24 60t59 25q34 0 59 -25t25 -60t-25 -60.5t-59 -25.5q-35 0 -59 26zM217 0h-163v517h163v-517z" />
    <glyph glyph-name="uni0458" unicode="&#x458;" horiz-adv-x="279" 
d="M73.5 600.5q-27.5 28.5 -27.5 67.5q0 40 27.5 68.5t65.5 28.5q39 0 67.5 -28.5t28.5 -68.5q0 -39 -28.5 -67.5t-67.5 -28.5q-38 0 -65.5 28.5zM-89.5 -228.5q-43.5 15.5 -72.5 46.5l87 109q25 -32 61 -32q39 0 56 30t17 91v501h163v-517q0 -81 -30.5 -136t-80.5 -81.5
t-110 -26.5q-47 0 -90.5 15.5z" />
    <glyph glyph-name="uni0459" unicode="&#x459;" horiz-adv-x="890" 
d="M651 350q106 0 163 -45t57 -129q0 -85 -57.5 -130.5t-162.5 -45.5h-261v380h-119l-8 -138q-7 -104 -32.5 -158.5t-76 -75.5t-139.5 -21v156q37 0 56.5 12t28 37t11.5 71l15 254h427v-167h98zM623 126q79 0 79 50q0 49 -79 49h-70v-99h70z" />
    <glyph glyph-name="uni045A" unicode="&#x45a;" horiz-adv-x="895" 
d="M656 344q106 0 163 -44t57 -128t-57 -128t-163 -44h-260v208h-174v-208h-163v517h163v-173h174v173h163v-173h97zM629 124q78 0 78 48q0 23 -18.5 35.5t-59.5 12.5h-70v-96h70z" />
    <glyph glyph-name="uni045B" unicode="&#x45b;" horiz-adv-x="630" 
d="M529 474q50 -57 50 -168v-306h-165v251q0 66 -18.5 101.5t-63.5 35.5t-70 -38t-25 -106v-244h-163v566h-73v111h73v84h163v-84h133v-111h-133v-113q50 78 155 78q87 0 137 -57z" />
    <glyph glyph-name="uni045C" unicode="&#x45c;" horiz-adv-x="589" 
d="M245 579l93 170h161l-130 -170h-124zM279 326l135 191h174l-182 -248l183 -269h-186l-126 190h-55v-190h-163v517h163v-191h57z" />
    <glyph glyph-name="uni045D" unicode="&#x45d;" horiz-adv-x="630" 
d="M132 749h160l94 -170h-125zM216 517v-283l224 283h130v-517h-156v284l-225 -284h-130v517h157z" />
    <glyph glyph-name="uni045E" unicode="&#x45e;" horiz-adv-x="588" 
d="M162 625q-51 46 -51 124h122q8 -74 65 -74q59 0 65 74h123q0 -78 -51.5 -124t-136.5 -46t-136 46zM418 517h172l-229 -574q-39 -99 -94 -143t-133 -44q-40 0 -75 11.5t-59 31.5l63 123q34 -23 69 -23q32 0 52 18.5t45 71.5l-228 528h181l125 -329z" />
    <glyph glyph-name="uni045F" unicode="&#x45f;" horiz-adv-x="618" 
d="M222 136h174v381h163v-517h-174l-6 -172h-141l-6 172h-173v517h163v-381z" />
    <glyph glyph-name="uni0462" unicode="&#x462;" horiz-adv-x="773" 
d="M465 433q134 0 207.5 -53.5t73.5 -161.5q0 -109 -73.5 -163.5t-207.5 -54.5h-306v516h-164v129h164v87h170v-87h227v-129h-227v-83h136zM454 141q55 0 85 19.5t30 57.5q0 39 -30 59.5t-85 20.5h-125v-157h125z" />
    <glyph glyph-name="uni0463" unicode="&#x463;" horiz-adv-x="627" 
d="M388 340q105 0 162.5 -44t57.5 -126t-57.5 -126t-162.5 -44h-268v399h-117v118h117v244h170v-244h159v-118h-159v-59h98zM360 121q79 0 79 49t-79 49h-70v-98h70z" />
    <glyph glyph-name="uni046B" unicode="&#x46b;" horiz-adv-x="698" 
d="M471 297q102 -11 152.5 -82t50.5 -215h-148q0 91 -25.5 132t-78.5 43v-175h-147v175q-53 -2 -78 -42.5t-25 -132.5h-148q0 145 50 215.5t151 81.5l-172 220h591zM408 406h-119l60 -80z" />
    <glyph glyph-name="uni0472" unicode="&#x472;" horiz-adv-x="792" 
d="M576 699q82 -47 130 -133t48 -199q0 -114 -48 -200.5t-130 -133t-180 -46.5q-99 0 -180.5 46.5t-129 133t-47.5 200.5q0 113 47.5 199t129 133t180.5 47q98 0 180 -47zM287.5 552q-45.5 -41 -61.5 -112h339q-17 71 -61.5 112t-107.5 41t-108.5 -41zM505 181q45 42 60 115
h-339q16 -73 61 -115t109 -42t109 42z" />
    <glyph glyph-name="uni0473" unicode="&#x473;" horiz-adv-x="604" 
d="M437.5 498q62.5 -33 99.5 -95t37 -144q0 -83 -37 -144.5t-99 -94.5t-135 -33t-135.5 33t-100 94.5t-37.5 144.5q0 82 37.5 144t100.5 95t135 33t134.5 -33zM242.5 378q-25.5 -21 -36.5 -59h192q-10 38 -35 59t-60 21t-60.5 -21zM364.5 143q25.5 23 35.5 65h-196
q10 -43 35.5 -65.5t63.5 -22.5q36 0 61.5 23z" />
    <glyph glyph-name="uni0474" unicode="&#x474;" horiz-adv-x="813" 
d="M773.5 733.5q30.5 -12.5 57.5 -32.5l-53 -132q-28 20 -56 20q-25 0 -41.5 -16t-33.5 -57l-210 -516h-132l-299 732h195l176 -475l108 293q42 112 92.5 154t121.5 42q44 0 74.5 -12.5z" />
    <glyph glyph-name="uni0475" unicode="&#x475;" horiz-adv-x="638" 
d="M645 487l-47 -116q-21 21 -46 21q-23 0 -38 -15t-30 -49l-138 -327h-133l-212 516h181l106 -309l63 168q34 90 73 122.5t99 32.5q76 0 122 -44z" />
    <glyph glyph-name="uni0490" unicode="&#x490;" horiz-adv-x="577" 
d="M72 732h344l22 155h147l-20 -306h-322v-581h-171v732z" />
    <glyph glyph-name="uni0491" unicode="&#x491;" horiz-adv-x="479" 
d="M59 517h273l21 130h140l-20 -266h-251v-381h-163v517z" />
    <glyph glyph-name="uni0492" unicode="&#x492;" horiz-adv-x="572" 
d="M76 732h490v-149h-320v-160h126v-148h-126v-275h-170v275h-76v148h76v309z" />
    <glyph glyph-name="uni0493" unicode="&#x493;" horiz-adv-x="495" 
d="M92 517h400v-136h-237v-83h129v-136h-129v-162h-163v162h-80v136h80v219z" />
    <glyph glyph-name="uni0497" unicode="&#x497;" horiz-adv-x="899" 
d="M869 517l-170 -248l85 -133h116l-11 -308h-141l-6 172h-56l-116 190h-53v-190h-163v190h-53l-117 -190h-184l171 269l-170 248h172l126 -191h55v191h163v-191h54l126 191h172z" />
    <glyph glyph-name="uni049A" unicode="&#x49a;" horiz-adv-x="741" 
d="M732 732l-248 -359l155 -222h126l-12 -323h-148l-5 172h-62l-194 290h-101v-290h-171v732h171v-290h104l193 290h192z" />
    <glyph glyph-name="uni049B" unicode="&#x49b;" 
d="M588 517l-182 -248l91 -133h118l-12 -308h-140l-7 172h-53l-126 190h-55v-190h-163v517h163v-191h57l135 191h174z" />
    <glyph glyph-name="uni049C" unicode="&#x49c;" horiz-adv-x="751" 
d="M538 373l215 -373h-190l-159 290h-21v-136h-110v136h-44v-290h-157v732h157v-290h44v136h110v-136h24l157 290h178z" />
    <glyph glyph-name="uni049D" unicode="&#x49d;" horiz-adv-x="608" 
d="M352 326l106 191h156l-141 -248l143 -269h-169l-97 190h-12v-90h-100v90h-27v-190h-152v517h152v-191h27v90h100v-90h14z" />
    <glyph glyph-name="uni04A2" unicode="&#x4a2;" horiz-adv-x="851" 
d="M716 732v-581h105l-12 -323h-147l-6 172h-111v304h-302v-304h-171v732h171v-277h302v277h171z" />
    <glyph glyph-name="uni04A3" unicode="&#x4a3;" horiz-adv-x="681" 
d="M559 517v-381h101l-12 -308h-140l-7 172h-105v195h-174v-195h-163v517h163v-186h174v186h163z" />
    <glyph glyph-name="uni04AE" unicode="&#x4ae;" horiz-adv-x="707" 
d="M363 446l153 286h184l-255 -453v-279h-172v278l-267 454h199z" />
    <glyph glyph-name="uni04AF" unicode="&#x4af;" horiz-adv-x="589" 
d="M303 204l114 313h171l-207 -477v-272h-163v262l-217 487h181z" />
    <glyph glyph-name="uni04B0" unicode="&#x4b0;" horiz-adv-x="707" 
d="M363 446l153 286h184l-194 -345h131v-151h-192v-236h-172v236h-193v151h129l-203 345h199z" />
    <glyph glyph-name="uni04B1" unicode="&#x4b1;" horiz-adv-x="589" 
d="M303 203l114 314h171l-165 -381h121v-136h-163v-232h-163v232h-164v136h117l-170 381h181z" />
    <glyph glyph-name="uni04B2" unicode="&#x4b2;" horiz-adv-x="741" 
d="M725 732l-257 -353l163 -228h123l-12 -323h-147l-6 172h-61l-163 237l-167 -237h-196l270 371l-257 361h209l150 -219l154 219h197z" />
    <glyph glyph-name="uni04B3" unicode="&#x4b3;" horiz-adv-x="580" 
d="M556 517l-193 -258l91 -123h126l-11 -308h-141l-6 172h-44l-100 142l-98 -142h-179l192 259l-192 258h179l98 -140l100 140h178z" />
    <glyph glyph-name="uni04B8" unicode="&#x4b8;" horiz-adv-x="730" 
d="M492 732h166v-732h-171v281q-36 -30 -82 -40v-137h-110v125q-120 5 -189 73.5t-69 201.5v228h166v-192q0 -67 22 -103t70 -46v136h110v-137q43 11 65 46t22 105v191z" />
    <glyph glyph-name="uni04B9" unicode="&#x4b9;" horiz-adv-x="625" 
d="M409 517h157v-517h-163v170q-18 -15 -41 -24v-97h-110v79q-93 2 -149.5 49t-56.5 133v207h158v-152q0 -35 11 -56.5t37 -30.5v102h110v-99q47 19 47 88v148z" />
    <glyph glyph-name="uni04BA" unicode="&#x4ba;" horiz-adv-x="730" 
d="M243 0h-171v732h171v-281q65 52 174 52q128 0 202 -68.5t74 -206.5v-228h-171v192q0 83 -31.5 119t-101.5 36q-66 0 -106 -34.5t-40 -121.5v-191z" />
    <glyph glyph-name="uni04BB" unicode="&#x4bb;" horiz-adv-x="616" 
d="M514.5 474q49.5 -57 49.5 -168v-306h-165v251q0 66 -18.5 101.5t-63.5 35.5t-70 -38t-25 -106v-244h-163v761h163v-308q50 78 155 78q88 0 137.5 -57z" />
    <glyph glyph-name="uni04CA" unicode="&#x4ca;" horiz-adv-x="681" 
d="M559 517v-381h110l-101 -308h-140l43 172h-75v195h-174v-195h-163v517h163v-186h174v186h163z" />
    <glyph glyph-name="uni04D8" unicode="&#x4d8;" horiz-adv-x="751" 
d="M542.5 703.5q78.5 -42.5 124 -128.5t45.5 -211q0 -122 -46.5 -207t-126 -127.5t-177.5 -42.5q-96 0 -167.5 40.5t-110.5 116t-39 177.5q0 50 9 104h475q-12 81 -54 125t-116 44q-57 0 -97 -28.5t-71 -82.5l-127 86q39 86 120 131.5t182 45.5q98 0 176.5 -42.5zM527 279
h-302q2 -73 38.5 -107t101.5 -34q136 0 162 141z" />
    <glyph glyph-name="uni04D9" unicode="&#x4d9;" horiz-adv-x="562" 
d="M395.5 500q61.5 -31 99 -93t37.5 -150q0 -87 -37.5 -148t-98 -91.5t-130.5 -30.5q-71 0 -125.5 30.5t-84.5 87t-30 131.5q0 34 6 70h330q-10 43 -37.5 66.5t-66.5 23.5q-31 0 -56.5 -15t-38.5 -43l-119 70q22 59 83 91t137 32q70 0 131.5 -31zM327.5 138q23.5 21 34.5 58
h-172q4 -39 26 -59t54 -20q34 0 57.5 21z" />
    <glyph glyph-name="uni04E8" unicode="&#x4e8;" horiz-adv-x="792" 
d="M576 699q82 -47 130 -133t48 -199q0 -114 -48 -200.5t-130 -133t-180 -46.5q-99 0 -180.5 46.5t-129 133t-47.5 200.5q0 113 47.5 199t129 133t180.5 47q98 0 180 -47zM287.5 552q-45.5 -41 -61.5 -112h339q-17 71 -61.5 112t-107.5 41t-108.5 -41zM505 181q45 42 60 115
h-339q16 -73 61 -115t109 -42t109 42z" />
    <glyph glyph-name="uni04E9" unicode="&#x4e9;" horiz-adv-x="604" 
d="M437.5 498q62.5 -33 99.5 -95t37 -144q0 -83 -37 -144.5t-99 -94.5t-135 -33t-135.5 33t-100 94.5t-37.5 144.5q0 82 37.5 144t100.5 95t135 33t134.5 -33zM242.5 378q-25.5 -21 -36.5 -59h192q-10 38 -35 59t-60 21t-60.5 -21zM364.5 143q25.5 23 35.5 65h-196
q10 -43 35.5 -65.5t63.5 -22.5q36 0 61.5 23z" />
    <glyph glyph-name="uni1E00" unicode="&#x1e00;" horiz-adv-x="749" 
d="M446 732l297 -732h-180l-56 148h-277l-54 -148h-170l289 732h151zM453 291l-87 228l-83 -228h170zM290 -51q36 31 90 31t89 -31t35 -81q0 -51 -35 -81.5t-89 -30.5t-90 30.5t-36 81.5q0 50 36 81zM348.5 -159.5q11.5 -10.5 31.5 -10.5q19 0 30.5 10.5t11.5 27.5
t-11.5 27.5t-30.5 10.5q-20 0 -31.5 -10.5t-11.5 -27.5t11.5 -27.5z" />
    <glyph glyph-name="uni1E01" unicode="&#x1e01;" horiz-adv-x="572" 
d="M460 468.5q61 -62.5 61 -176.5v-292h-137q-5 42 -7 56q-24 -35 -58 -52t-86 -17q-55 0 -100.5 19.5t-72 56t-26.5 86.5q0 52 29.5 91.5t79 60.5t108.5 21q55 0 108 -19q-7 98 -88 98q-69 0 -100 -64l-115 67q29 59 89.5 93t141.5 34q112 0 173 -62.5zM360 202
q-39 10 -74 10q-41 0 -65 -15t-24 -40q0 -23 18 -36t46 -13q38 0 68.5 22t30.5 59v13zM374 -60.5q35 -29.5 35 -76.5q0 -49 -35 -78t-90 -29q-54 0 -90 29t-36 78q0 47 36 76.5t90 29.5q55 0 90 -29.5zM315.5 -163q11.5 10 11.5 26t-11.5 26t-31.5 10t-31.5 -10t-11.5 -26
t11.5 -26t31.5 -10t31.5 10z" />
    <glyph glyph-name="uni1E3E" unicode="&#x1e3e;" horiz-adv-x="884" 
d="M381 795l98 133h167l-134 -133h-131zM684 732h129v-732h-162v434l-165 -236h-87l-167 238v-436h-160v732h132l241 -353z" />
    <glyph glyph-name="uni1E3F" unicode="&#x1e3f;" horiz-adv-x="882" 
d="M389 579l94 170h161l-130 -170h-125zM784 473q47 -58 47 -167v-306h-158v251q0 63 -15.5 100t-54.5 37q-38 0 -58 -38t-20 -106v-244h-159v251q0 63 -15.5 100t-53.5 37t-58.5 -38t-20.5 -106v-244h-159v517h140q5 -53 9 -74q50 88 146 88q51 0 90.5 -27t60.5 -79
q50 106 156 106q76 0 123 -58z" />
    <glyph glyph-name="Wgrave" unicode="&#x1e80;" horiz-adv-x="1025" 
d="M315 928h166l98 -133h-131zM585 732l140 -450l129 450h164l-231 -732h-131l-142 437l-138 -437h-130l-240 732h176l137 -450l132 450h134z" />
    <glyph glyph-name="wgrave" unicode="&#x1e81;" horiz-adv-x="842" 
d="M255 749h160l94 -170h-125zM495 517l96 -292l91 292h159l-191 -516h-118l-109 287l-105 -287h-119l-198 516h168l97 -298l90 298h139z" />
    <glyph glyph-name="Wacute" unicode="&#x1e82;" horiz-adv-x="1025" 
d="M457 795l98 133h167l-134 -133h-131zM585 732l140 -450l129 450h164l-231 -732h-131l-142 437l-138 -437h-130l-240 732h176l137 -450l132 450h134z" />
    <glyph glyph-name="wacute" unicode="&#x1e83;" horiz-adv-x="842" 
d="M368 579l93 170h161l-130 -170h-124zM495 517l96 -292l91 292h159l-191 -516h-118l-109 287l-105 -287h-119l-198 516h168l97 -298l90 298h139z" />
    <glyph glyph-name="Wdieresis" unicode="&#x1e84;" horiz-adv-x="1025" 
d="M342 809.5q-24 20.5 -24 49.5q0 28 24 48.5t58 20.5q36 0 60.5 -20.5t24.5 -48.5q0 -29 -24.5 -49.5t-60.5 -20.5q-34 0 -58 20.5zM575 810q-24 21 -24 49t24 48.5t59 20.5q34 0 58.5 -20.5t24.5 -48.5q0 -29 -24.5 -49.5t-58.5 -20.5q-35 0 -59 21zM585 732l140 -450
l129 450h164l-231 -732h-131l-142 437l-138 -437h-130l-240 732h176l137 -450l132 450h134z" />
    <glyph glyph-name="wdieresis" unicode="&#x1e85;" horiz-adv-x="842" 
d="M263 603.5q-24 25.5 -24 60.5t24 60t58 25q36 0 60.5 -25t24.5 -60t-24.5 -60.5t-60.5 -25.5q-34 0 -58 25.5zM495.5 603.5q-23.5 25.5 -23.5 60.5t23.5 60t58.5 25t59.5 -25t24.5 -60t-24.5 -60.5t-59.5 -25.5t-58.5 25.5zM495 517l96 -292l91 292h159l-191 -516h-118
l-109 287l-105 -287h-119l-198 516h168l97 -298l90 298h139z" />
    <glyph glyph-name="uni1EA0" unicode="&#x1ea0;" horiz-adv-x="749" 
d="M446 732l297 -732h-180l-56 148h-277l-54 -148h-170l289 732h151zM453 291l-87 228l-83 -228h170zM314 -210.5q-28 27.5 -28 65.5t28 65.5t67 27.5q38 0 66.5 -28t28.5 -65q0 -38 -28 -65.5t-67 -27.5t-67 27.5z" />
    <glyph glyph-name="uni1EA1" unicode="&#x1ea1;" horiz-adv-x="572" 
d="M460 468.5q61 -62.5 61 -176.5v-292h-137q-5 42 -7 56q-24 -35 -58 -52t-86 -17q-55 0 -100.5 19.5t-72 56t-26.5 86.5q0 52 29.5 91.5t79 60.5t108.5 21q55 0 108 -19q-7 98 -88 98q-69 0 -100 -64l-115 67q29 59 89.5 93t141.5 34q112 0 173 -62.5zM360 202
q-39 10 -74 10q-41 0 -65 -15t-24 -40q0 -23 18 -36t46 -13q38 0 68.5 22t30.5 59v13zM351.5 -80q28.5 -28 28.5 -65q0 -38 -28 -65.5t-67 -27.5t-66.5 27.5t-27.5 65.5t27.5 65.5t66.5 27.5q38 0 66.5 -28z" />
    <glyph glyph-name="uni1EA2" unicode="&#x1ea2;" horiz-adv-x="749" 
d="M249 906q22 10 52.5 16t62.5 6q59 0 98 -18t39 -54q0 -62 -127 -90l-53 52q33 7 50 14t17 16q0 8 -10.5 12.5t-28.5 4.5q-38 0 -79 -19zM446 732l297 -732h-180l-56 148h-277l-54 -148h-170l289 732h151zM453 291l-87 228l-83 -228h170z" />
    <glyph glyph-name="uni1EA3" unicode="&#x1ea3;" horiz-adv-x="572" 
d="M169 671l-20 83q22 16 52 24.5t62 8.5q60 0 98.5 -26.5t38.5 -78.5q0 -90 -127 -130l-53 70q33 11 50 23t17 27q0 13 -10.5 20t-29.5 7q-34 0 -78 -28zM460 468.5q61 -62.5 61 -176.5v-292h-137q-5 42 -7 56q-24 -35 -58 -52t-86 -17q-55 0 -100.5 19.5t-72 56
t-26.5 86.5q0 52 29.5 91.5t79.5 60.5t109 21q55 0 108 -19q-7 98 -89 98q-69 0 -100 -64l-115 67q29 59 89.5 93t141.5 34q112 0 173 -62.5zM360 202q-39 10 -74 10q-41 0 -65 -15t-24 -40q0 -23 18 -36t46 -13q38 0 68.5 22t30.5 59v13z" />
    <glyph glyph-name="uni1EA4" unicode="&#x1ea4;" horiz-adv-x="749" 
d="M470 857l98 71h167l-134 -71h-131zM321 846h121l137 -72h-143l-54 29l-55 -29h-143zM446 732l297 -732h-180l-56 148h-277l-54 -148h-170l289 732h151zM453 291l-87 228l-83 -228h170z" />
    <glyph glyph-name="uni1EA5" unicode="&#x1ea5;" horiz-adv-x="572" 
d="M426 919h157l-116 -144h-125zM334 579l-56 73l-58 -73h-135l135 170h114l135 -170h-135zM460 468.5q61 -62.5 61 -176.5v-292h-137q-5 42 -7 56q-24 -35 -58 -52t-86 -17q-55 0 -100.5 19.5t-72 56t-26.5 86.5q0 52 29.5 91.5t79.5 60.5t109 21q55 0 108 -19
q-7 98 -89 98q-69 0 -100 -64l-115 67q29 59 89.5 93t141.5 34q112 0 173 -62.5zM360 202q-39 10 -74 10q-41 0 -65 -15t-24 -40q0 -23 18 -36t46 -13q38 0 68.5 22t30.5 59v13z" />
    <glyph glyph-name="uni1EA6" unicode="&#x1ea6;" horiz-adv-x="749" 
d="M327 928h167l98 -71h-131zM321 846h121l137 -72h-137l-60 32l-61 -32h-137zM446 732l297 -732h-180l-56 148h-277l-54 -148h-170l289 732h151zM453 291l-87 228l-83 -228h170z" />
    <glyph glyph-name="uni1EA7" unicode="&#x1ea7;" horiz-adv-x="572" 
d="M399 919l84 -144h-125l-116 144h157zM334 579l-56 73l-58 -73h-135l135 170h114l135 -170h-135zM460 468.5q61 -62.5 61 -176.5v-292h-137q-5 42 -7 56q-24 -35 -58 -52t-86 -17q-55 0 -100.5 19.5t-72 56t-26.5 86.5q0 52 29.5 91.5t79.5 60.5t109 21q55 0 108 -19
q-7 98 -89 98q-69 0 -100 -64l-115 67q29 59 89.5 93t141.5 34q112 0 173 -62.5zM360 202q-39 10 -74 10q-41 0 -65 -15t-24 -40q0 -23 18 -36t46 -13q38 0 68.5 22t30.5 59v13z" />
    <glyph glyph-name="uni1EA8" unicode="&#x1ea8;" horiz-adv-x="749" 
d="M398 915q47 13 115 13q59 0 98 -10.5t39 -30.5q0 -37 -128 -52l-50 30q38 3 54.5 6t16.5 7q0 2 -11.5 4.5t-28.5 2.5q-39 0 -84 -8zM321 843h121l137 -69h-143l-54 27l-55 -27h-143zM446 732l297 -732h-180l-56 148h-277l-54 -148h-170l289 732h151zM453 291l-87 228
l-83 -228h170z" />
    <glyph glyph-name="uni1EA9" unicode="&#x1ea9;" horiz-adv-x="572" 
d="M313 820l-21 76q21 15 51.5 23t63.5 8q60 0 98.5 -24.5t38.5 -73.5q0 -45 -34.5 -74t-92.5 -48l-53 66q67 21 67 47q0 11 -11 18.5t-29 7.5q-33 0 -78 -26zM334 579l-56 69l-58 -69h-135l135 159h114l135 -159h-135zM460 468.5q61 -62.5 61 -176.5v-292h-137q-5 42 -7 56
q-24 -35 -58 -52t-86 -17q-55 0 -100.5 19.5t-72 56t-26.5 86.5q0 52 29.5 91.5t79.5 60.5t109 21q55 0 108 -19q-7 98 -89 98q-69 0 -100 -64l-115 67q29 59 89.5 93t141.5 34q112 0 173 -62.5zM360 202q-39 10 -74 10q-41 0 -65 -15t-24 -40q0 -23 18 -36t46 -13
q38 0 68.5 22t30.5 59v13z" />
    <glyph glyph-name="uni1EAA" unicode="&#x1eaa;" horiz-adv-x="749" 
d="M178 863q2 29 38 47t93 18q35 0 56 -4.5t44 -12.5q23 -9 36 -9q26 0 35 19h106q-2 -29 -37.5 -47t-93.5 -18q-35 0 -56 4.5t-44 12.5q-23 9 -36 9q-25 0 -35 -19h-106zM321 845h121l137 -71h-143l-54 28l-55 -28h-143zM446 732l297 -732h-180l-56 148h-277l-54 -148h-170
l289 732h151zM453 291l-87 228l-83 -228h170z" />
    <glyph glyph-name="uni1EAB" unicode="&#x1eab;" horiz-adv-x="572" 
d="M183 776h-107q2 67 38 108.5t94 41.5q34 0 56 -12t43 -32q12 -11 20 -16.5t17 -5.5q25 0 34 51h106q-2 -67 -37.5 -108.5t-93.5 -41.5q-34 0 -55.5 11.5t-44.5 32.5q-13 12 -20 17t-16 5q-27 0 -34 -51zM89 579l134 160h115l134 -160h-135l-56 69l-57 -69h-135z
M460 468.5q61 -62.5 61 -176.5v-292h-137q-5 42 -7 56q-24 -35 -58 -52t-86 -17q-55 0 -100.5 19.5t-72 56t-26.5 86.5q0 52 29.5 91.5t79.5 60.5t109 21q55 0 108 -19q-7 98 -89 98q-69 0 -100 -64l-115 67q29 59 89.5 93t141.5 34q112 0 173 -62.5zM360 202q-39 10 -74 10
q-41 0 -65 -15t-24 -40q0 -23 18 -36t46 -13q38 0 68.5 22t30.5 59v13z" />
    <glyph glyph-name="uni1EAC" unicode="&#x1eac;" horiz-adv-x="749" 
d="M321 928h121l137 -134h-136l-61 62l-62 -62h-136zM446 732l297 -732h-180l-56 148h-277l-54 -148h-170l289 732h151zM453 291l-87 228l-83 -228h170zM314 -210.5q-28 27.5 -28 65.5t28 65.5t67 27.5q38 0 66.5 -28t28.5 -65q0 -38 -28 -65.5t-67 -27.5t-67 27.5z" />
    <glyph glyph-name="uni1EAD" unicode="&#x1ead;" horiz-adv-x="572" 
d="M338 579l-57 73l-57 -73h-135l134 170h115l135 -170h-135zM460 468.5q61 -62.5 61 -176.5v-292h-137q-5 42 -7 56q-24 -35 -58 -52t-86 -17q-55 0 -100.5 19.5t-72 56t-26.5 86.5q0 52 29.5 91.5t79 60.5t108.5 21q55 0 108 -19q-7 98 -88 98q-69 0 -100 -64l-115 67
q29 59 89.5 93t141.5 34q112 0 173 -62.5zM360 202q-39 10 -74 10q-41 0 -65 -15t-24 -40q0 -23 18 -36t46 -13q38 0 68.5 22t30.5 59v13zM351.5 -80q28.5 -28 28.5 -65q0 -38 -28 -65.5t-67 -27.5t-66.5 27.5t-27.5 65.5t27.5 65.5t66.5 27.5q38 0 66.5 -28z" />
    <glyph glyph-name="uni1EAE" unicode="&#x1eae;" horiz-adv-x="749" 
d="M321 862l98 66h167l-134 -66h-131zM246.5 791q-51.5 18 -51.5 49h123q8 -20 64 -20q58 0 65 20h123q0 -31 -51 -49t-137 -18q-84 0 -135.5 18zM446 732l297 -732h-180l-56 148h-277l-54 -148h-170l289 732h151zM453 291l-87 228l-83 -228h170z" />
    <glyph glyph-name="uni1EAF" unicode="&#x1eaf;" horiz-adv-x="572" 
d="M295 925h156l-116 -143h-124zM145.5 624.5q-51.5 45.5 -51.5 123.5h123q6 -74 64 -74t66 74h122q0 -78 -51 -123.5t-137 -45.5q-84 0 -135.5 45.5zM460 468.5q61 -62.5 61 -176.5v-292h-137q-5 42 -7 56q-24 -35 -58 -52t-86 -17q-55 0 -100.5 19.5t-72 56t-26.5 86.5
q0 52 29.5 91.5t79.5 60.5t109 21q55 0 108 -19q-7 98 -89 98q-69 0 -100 -64l-115 67q29 59 89.5 93t141.5 34q112 0 173 -62.5zM360 202q-39 10 -74 10q-41 0 -65 -15t-24 -40q0 -23 18 -36t46 -13q38 0 68.5 22t30.5 59v13z" />
    <glyph glyph-name="uni1EB0" unicode="&#x1eb0;" horiz-adv-x="749" 
d="M178 928h167l98 -66h-131zM246.5 791q-51.5 18 -51.5 49h123q8 -20 64 -20q58 0 65 20h123q0 -31 -51 -49t-137 -18q-84 0 -135.5 18zM446 732l297 -732h-180l-56 148h-277l-54 -148h-170l289 732h151zM453 291l-87 228l-83 -228h170z" />
    <glyph glyph-name="uni1EB1" unicode="&#x1eb1;" horiz-adv-x="572" 
d="M267 925l85 -143h-125l-116 143h156zM145.5 624.5q-51.5 45.5 -51.5 123.5h123q6 -74 64 -74t66 74h122q0 -78 -51 -123.5t-137 -45.5q-84 0 -135.5 45.5zM460 468.5q61 -62.5 61 -176.5v-292h-137q-5 42 -7 56q-24 -35 -58 -52t-86 -17q-55 0 -100.5 19.5t-72 56
t-26.5 86.5q0 52 29.5 91.5t79.5 60.5t109 21q55 0 108 -19q-7 98 -89 98q-69 0 -100 -64l-115 67q29 59 89.5 93t141.5 34q112 0 173 -62.5zM360 202q-39 10 -74 10q-41 0 -65 -15t-24 -40q0 -23 18 -36t46 -13q38 0 68.5 22t30.5 59v13z" />
    <glyph glyph-name="uni1EB2" unicode="&#x1eb2;" horiz-adv-x="749" 
d="M249 915q50 12 115 12q59 0 98 -9.5t39 -27.5q0 -33 -127 -48l-50 28q70 5 70 11q0 3 -11 5t-29 2q-39 0 -84 -8zM246 790q-51 17 -51 46h123q8 -19 64 -19q59 0 65 19h123q0 -29 -51 -46t-137 -17q-85 0 -136 17zM446 732l297 -732h-180l-56 148h-277l-54 -148h-170
l289 732h151zM453 291l-87 228l-83 -228h170z" />
    <glyph glyph-name="uni1EB3" unicode="&#x1eb3;" horiz-adv-x="572" 
d="M169 831l-20 70q22 13 52 20t62 7q60 0 98.5 -22.5t38.5 -65.5q0 -77 -127 -111l-53 60q67 18 67 42q0 11 -10.5 17t-29.5 6q-34 0 -78 -23zM145.5 618q-51.5 39 -51.5 104h123q3 -30 19 -46.5t45 -16.5q58 0 66 63h122q0 -66 -51 -104.5t-137 -38.5q-84 0 -135.5 39z
M460 468.5q61 -62.5 61 -176.5v-292h-137q-5 42 -7 56q-24 -35 -58 -52t-86 -17q-55 0 -100.5 19.5t-72 56t-26.5 86.5q0 52 29.5 91.5t79.5 60.5t109 21q55 0 108 -19q-7 98 -89 98q-69 0 -100 -64l-115 67q29 59 89.5 93t141.5 34q112 0 173 -62.5zM360 202q-39 10 -74 10
q-41 0 -65 -15t-24 -40q0 -23 18 -36t46 -13q38 0 68.5 22t30.5 59v13z" />
    <glyph glyph-name="uni1EB4" unicode="&#x1eb4;" horiz-adv-x="749" 
d="M178 866q2 27 38 44.5t93 17.5q35 0 56 -4.5t44 -12.5q3 -1 14 -4.5t22 -3.5q26 0 35 19h106q-2 -28 -38 -45.5t-93 -17.5q-35 0 -56 4.5t-44 12.5q-23 9 -36 9q-24 0 -35 -19h-106zM246.5 791q-51.5 18 -51.5 49h123q8 -21 64 -21q59 0 65 21h123q0 -31 -51 -49
t-137 -18q-84 0 -135.5 18zM446 732l297 -732h-180l-56 148h-277l-54 -148h-170l289 732h151zM453 291l-87 228l-83 -228h170z" />
    <glyph glyph-name="uni1EB5" unicode="&#x1eb5;" horiz-adv-x="572" 
d="M184 780h-107q2 65 38 105.5t94 40.5q34 0 56 -11.5t43 -31.5q13 -11 20.5 -16t16.5 -5q25 0 34 49h106q-2 -64 -37.5 -104.5t-93.5 -40.5q-34 0 -56 11.5t-44 31.5q-12 11 -19.5 16t-16.5 5q-25 0 -34 -50zM347 735h122q0 -72 -51 -114t-137 -42q-84 0 -135.5 42
t-51.5 114h123q3 -32 19 -50t45 -18q58 0 66 68zM460 468.5q61 -62.5 61 -176.5v-292h-137q-5 42 -7 56q-24 -35 -58 -52t-86 -17q-55 0 -100.5 19.5t-72 56t-26.5 86.5q0 52 29.5 91.5t79.5 60.5t109 21q55 0 108 -19q-7 98 -89 98q-69 0 -100 -64l-115 67q29 59 89.5 93
t141.5 34q112 0 173 -62.5zM360 202q-39 10 -74 10q-41 0 -65 -15t-24 -40q0 -23 18 -36t46 -13q38 0 68.5 22t30.5 59v13z" />
    <glyph glyph-name="uni1EB6" unicode="&#x1eb6;" horiz-adv-x="749" 
d="M246 829.5q-51 36.5 -51 98.5h123q8 -59 64 -59q58 0 65 59h123q0 -63 -51 -99t-137 -36q-85 0 -136 36.5zM446 732l297 -732h-180l-56 148h-277l-54 -148h-170l289 732h151zM453 291l-87 228l-83 -228h170zM314 -210.5q-28 27.5 -28 65.5t28 65.5t67 27.5q38 0 66.5 -28
t28.5 -65q0 -38 -28 -65.5t-67 -27.5t-67 27.5z" />
    <glyph glyph-name="uni1EB7" unicode="&#x1eb7;" horiz-adv-x="572" 
d="M145.5 625q-51.5 46 -51.5 124h123q6 -74 64 -74t66 74h122q0 -78 -51 -124t-137 -46q-84 0 -135.5 46zM460 468.5q61 -62.5 61 -176.5v-292h-137q-5 42 -7 56q-24 -35 -58 -52t-86 -17q-55 0 -100.5 19.5t-72 56t-26.5 86.5q0 52 29.5 91.5t79 60.5t108.5 21
q55 0 108 -19q-7 98 -88 98q-69 0 -100 -64l-115 67q29 59 89.5 93t141.5 34q112 0 173 -62.5zM360 202q-39 10 -74 10q-41 0 -65 -15t-24 -40q0 -23 18 -36t46 -13q38 0 68.5 22t30.5 59v13zM351.5 -80q28.5 -28 28.5 -65q0 -38 -28 -65.5t-67 -27.5t-66.5 27.5t-27.5 65.5
t27.5 65.5t66.5 27.5q38 0 66.5 -28z" />
    <glyph glyph-name="uni1EB8" unicode="&#x1eb8;" 
d="M529 295h-286v-147h331v-148h-502v732h490v-147h-319v-144h286v-146zM247.5 -210.5q-27.5 27.5 -27.5 65.5t27.5 65.5t66.5 27.5q38 0 66.5 -28t28.5 -65q0 -38 -28 -65.5t-67 -27.5t-66.5 27.5z" />
    <glyph glyph-name="uni1EB9" unicode="&#x1eb9;" horiz-adv-x="562" 
d="M422.5 500.5q54.5 -30.5 84.5 -87.5t30 -133q0 -32 -6 -68h-331q11 -43 38 -66.5t66 -23.5q32 0 57.5 15t37.5 44l119 -71q-22 -59 -83 -91t-137 -32q-70 0 -131.5 31t-99 93t-37.5 150q0 87 37.5 148t98.5 91.5t131 30.5q71 0 125.5 -30.5zM234.5 380.5
q-23.5 -20.5 -34.5 -57.5h172q-4 38 -26 58t-54 20q-34 0 -57.5 -20.5zM231.5 -210.5q-27.5 27.5 -27.5 65.5t27.5 65.5t66.5 27.5q38 0 66.5 -28t28.5 -65q0 -38 -28 -65.5t-67 -27.5t-66.5 27.5z" />
    <glyph glyph-name="uni1EBA" unicode="&#x1eba;" 
d="M181 906q46 22 114 22q60 0 98.5 -18t38.5 -54q0 -63 -127 -90l-53 52q33 7 50 14t17 16q0 8 -10 12.5t-28 4.5q-38 0 -79 -19zM529 295h-286v-147h331v-148h-502v732h490v-147h-319v-144h286v-146z" />
    <glyph glyph-name="uni1EBB" unicode="&#x1ebb;" horiz-adv-x="562" 
d="M159 754q22 16 52 24.5t62 8.5q60 0 98.5 -26.5t38.5 -78.5q0 -90 -127 -130l-53 70q33 11 50 23t17 27q0 13 -11 20t-29 7q-34 0 -78 -28zM422.5 500.5q54.5 -30.5 84.5 -87.5t30 -133q0 -32 -6 -68h-331q11 -43 38 -66.5t66 -23.5q32 0 57.5 15t37.5 44l119 -71
q-22 -59 -83 -91t-137 -32q-70 0 -131.5 31t-99 93t-37.5 150q0 87 37.5 148t98.5 91.5t131 30.5q71 0 125.5 -30.5zM234.5 380.5q-23.5 -20.5 -34.5 -57.5h172q-4 38 -26 58t-54 20q-34 0 -57.5 -20.5z" />
    <glyph glyph-name="uni1EBC" unicode="&#x1ebc;" 
d="M110 804q2 55 37.5 89.5t93.5 34.5q34 0 55.5 -10t44.5 -27q13 -10 20 -14t16 -4q26 0 34 42h107q-2 -54 -38 -88.5t-94 -34.5q-34 0 -56 10t-43 27q-12 9 -20 13.5t-17 4.5q-25 0 -34 -43h-106zM529 295h-286v-147h331v-148h-502v732h490v-147h-319v-144h286v-146z" />
    <glyph glyph-name="uni1EBD" unicode="&#x1ebd;" horiz-adv-x="562" 
d="M87 592q2 71 38 115t94 44q34 0 56 -12.5t43 -33.5q12 -12 20 -17.5t17 -5.5q25 0 34 54h106q-2 -71 -37.5 -115t-93.5 -44q-34 0 -55.5 12t-44.5 34q-12 12 -19.5 17.5t-16.5 5.5q-27 0 -34 -54h-107zM422.5 500.5q54.5 -30.5 84.5 -87.5t30 -133q0 -32 -6 -68h-331
q11 -43 38 -66.5t66 -23.5q32 0 57.5 15t37.5 44l119 -71q-22 -59 -83 -91t-137 -32q-70 0 -131.5 31t-99 93t-37.5 150q0 87 37.5 148t98.5 91.5t131 30.5q71 0 125.5 -30.5zM234.5 380.5q-23.5 -20.5 -34.5 -57.5h172q-4 38 -26 58t-54 20q-34 0 -57.5 -20.5z" />
    <glyph glyph-name="uni1EBE" unicode="&#x1ebe;" 
d="M402 857l98 71h166l-134 -71h-130zM253 846h120l138 -72h-143l-54 29l-55 -29h-143zM529 295h-286v-147h331v-148h-502v732h490v-147h-319v-144h286v-146z" />
    <glyph glyph-name="uni1EBF" unicode="&#x1ebf;" horiz-adv-x="562" 
d="M352 765l93 162h161l-129 -162h-125zM230 741h114l135 -162h-135l-57 70l-57 -70h-135zM422.5 500.5q54.5 -30.5 84.5 -87.5t30 -133q0 -32 -6 -68h-331q11 -43 38 -66.5t66 -23.5q32 0 57.5 15t37.5 44l119 -71q-22 -59 -83 -91t-137 -32q-70 0 -131.5 31t-99 93
t-37.5 150q0 87 37.5 148t98.5 91.5t131 30.5q71 0 125.5 -30.5zM234.5 380.5q-23.5 -20.5 -34.5 -57.5h172q-4 38 -26 58t-54 20q-34 0 -57.5 -20.5z" />
    <glyph glyph-name="uni1EC0" unicode="&#x1ec0;" 
d="M259 928h167l98 -71h-131zM253 846h120l138 -72h-137l-60 32l-61 -32h-137zM529 295h-286v-147h331v-148h-502v732h490v-147h-319v-144h286v-146z" />
    <glyph glyph-name="uni1EC1" unicode="&#x1ec1;" horiz-adv-x="562" 
d="M239 927h161l93 -162h-125zM230 741h114l135 -162h-135l-57 70l-57 -70h-135zM422.5 500.5q54.5 -30.5 84.5 -87.5t30 -133q0 -32 -6 -68h-331q11 -43 38 -66.5t66 -23.5q32 0 57.5 15t37.5 44l119 -71q-22 -59 -83 -91t-137 -32q-70 0 -131.5 31t-99 93t-37.5 150
q0 87 37.5 148t98.5 91.5t131 30.5q71 0 125.5 -30.5zM234.5 380.5q-23.5 -20.5 -34.5 -57.5h172q-4 38 -26 58t-54 20q-34 0 -57.5 -20.5z" />
    <glyph glyph-name="uni1EC2" unicode="&#x1ec2;" horiz-adv-x="625" 
d="M330 915q47 13 114 13q59 0 98 -10.5t39 -30.5q0 -37 -127 -52l-50 30q38 4 54.5 6.5t16.5 6.5q0 2 -11.5 4.5t-29.5 2.5q-38 0 -83 -8zM253 843h120l138 -69h-143l-54 27l-55 -27h-143zM529 295h-286v-147h331v-148h-502v732h490v-147h-319v-144h286v-146z" />
    <glyph glyph-name="uni1EC3" unicode="&#x1ec3;" horiz-adv-x="562" 
d="M302 896q21 15 51.5 23t63.5 8q59 0 98 -24.5t39 -73.5q0 -45 -34.5 -74t-93.5 -48l-52 66q67 21 67 47q0 11 -11 18.5t-29 7.5q-33 0 -78 -26zM230 738h114l135 -159h-135l-57 69l-57 -69h-135zM422.5 500.5q54.5 -30.5 84.5 -87.5t30 -133q0 -32 -6 -68h-331
q11 -43 38 -66.5t66 -23.5q32 0 57.5 15t37.5 44l119 -71q-22 -59 -83 -91t-137 -32q-70 0 -131.5 31t-99 93t-37.5 150q0 87 37.5 148t98.5 91.5t131 30.5q71 0 125.5 -30.5zM234.5 380.5q-23.5 -20.5 -34.5 -57.5h172q-4 38 -26 58t-54 20q-34 0 -57.5 -20.5z" />
    <glyph glyph-name="uni1EC4" unicode="&#x1ec4;" 
d="M116 863q2 29 38 47t93 18q35 0 56 -4.5t44 -12.5q23 -9 36 -9q26 0 35 19h106q-2 -29 -37.5 -47t-93.5 -18q-35 0 -56 4.5t-44 12.5q-23 9 -36 9q-25 0 -35 -19h-106zM259 845h121l137 -71h-143l-54 28l-55 -28h-143zM529 295h-286v-147h331v-148h-502v732h490v-147
h-319v-144h286v-146z" />
    <glyph glyph-name="uni1EC5" unicode="&#x1ec5;" horiz-adv-x="562" 
d="M192 776h-106q2 66 38 108t93 42q35 0 57 -12t43 -32q13 -12 20 -17t16 -5q26 0 35 51h106q-2 -67 -37.5 -108.5t-93.5 -41.5q-35 0 -57 12t-43 32q-13 12 -20 17t-16 5q-26 0 -35 -51zM233 739h115l134 -160h-135l-56 69l-58 -69h-134zM422.5 500.5
q54.5 -30.5 84.5 -87.5t30 -133q0 -32 -6 -68h-331q11 -43 38 -66.5t66 -23.5q32 0 57.5 15t37.5 44l119 -71q-22 -59 -83 -91t-137 -32q-70 0 -131.5 31t-99 93t-37.5 150q0 87 37.5 148t98.5 91.5t131 30.5q71 0 125.5 -30.5zM234.5 380.5q-23.5 -20.5 -34.5 -57.5h172
q-4 38 -26 58t-54 20q-34 0 -57.5 -20.5z" />
    <glyph glyph-name="uni1EC6" unicode="&#x1ec6;" 
d="M253 928h120l138 -134h-136l-61 62l-63 -62h-135zM529 295h-286v-147h331v-148h-502v732h490v-147h-319v-144h286v-146zM247.5 -210.5q-27.5 27.5 -27.5 65.5t27.5 65.5t66.5 27.5q38 0 66.5 -28t28.5 -65q0 -38 -28 -65.5t-67 -27.5t-66.5 27.5z" />
    <glyph glyph-name="uni1EC7" unicode="&#x1ec7;" horiz-adv-x="562" 
d="M233 749h115l135 -170h-135l-57 73l-57 -73h-135zM422.5 500.5q54.5 -30.5 84.5 -87.5t30 -133q0 -32 -6 -68h-331q11 -43 38 -66.5t66 -23.5q32 0 57.5 15t37.5 44l119 -71q-22 -59 -83 -91t-137 -32q-70 0 -131.5 31t-99 93t-37.5 150q0 87 37.5 148t98.5 91.5
t131 30.5q71 0 125.5 -30.5zM234.5 380.5q-23.5 -20.5 -34.5 -57.5h172q-4 38 -26 58t-54 20q-34 0 -57.5 -20.5zM231.5 -210.5q-27.5 27.5 -27.5 65.5t27.5 65.5t66.5 27.5q38 0 66.5 -28t28.5 -65q0 -38 -28 -65.5t-67 -27.5t-66.5 27.5z" />
    <glyph glyph-name="uni1EC8" unicode="&#x1ec8;" horiz-adv-x="315" 
d="M25 906q46 22 114 22q60 0 98.5 -18t38.5 -54q0 -63 -127 -90l-53 52q33 7 50 14t17 16q0 8 -10 12.5t-28 4.5q-38 0 -79 -19zM243 0h-171v732h171v-732z" />
    <glyph glyph-name="uni1EC9" unicode="&#x1ec9;" horiz-adv-x="282" 
d="M9 754q22 16 52 24.5t62 8.5q60 0 98.5 -26.5t38.5 -78.5q0 -90 -127 -130l-53 70q33 11 50 23t17 27q0 13 -10.5 20t-29.5 7q-32 0 -78 -27zM59 0v517h163v-517h-163z" />
    <glyph glyph-name="uni1ECA" unicode="&#x1eca;" horiz-adv-x="315" 
d="M243 0h-171v732h171v-732zM91.5 -210.5q-27.5 27.5 -27.5 65.5t27.5 65.5t66.5 27.5q38 0 66.5 -28t28.5 -65q0 -38 -28 -65.5t-67 -27.5t-66.5 27.5z" />
    <glyph glyph-name="uni1ECB" unicode="&#x1ecb;" horiz-adv-x="280" 
d="M73 600.5q-28 28.5 -28 67.5q0 40 27.5 68.5t67.5 28.5q38 0 66.5 -29t28.5 -68t-28 -67.5t-67 -28.5t-67 28.5zM222 0h-163v517h163v-517zM74.5 -210.5q-27.5 27.5 -27.5 65.5t27.5 65.5t66.5 27.5q38 0 66.5 -28t28.5 -65q0 -38 -28 -65.5t-67 -27.5t-66.5 27.5z" />
    <glyph glyph-name="uni1ECC" unicode="&#x1ecc;" horiz-adv-x="792" 
d="M85.5 569q47.5 86 129.5 131.5t181 45.5t180.5 -45.5t129.5 -131.5t48 -202q0 -117 -48 -203t-129.5 -131.5t-180.5 -45.5q-100 0 -181.5 45.5t-129 131.5t-47.5 203q0 116 47.5 202zM241.5 249q22.5 -51 62.5 -78.5t92 -27.5t92.5 27.5t63 78.5t22.5 118
q0 66 -22.5 116.5t-63 78t-92.5 27.5t-92 -27.5t-62.5 -78t-22.5 -116.5q0 -67 22.5 -118zM329.5 -210.5q-27.5 27.5 -27.5 65.5t27.5 65.5t66.5 27.5q38 0 66.5 -28t28.5 -65q0 -38 -28 -65.5t-67 -27.5t-66.5 27.5z" />
    <glyph glyph-name="uni1ECD" unicode="&#x1ecd;" horiz-adv-x="605" 
d="M67.5 403q37.5 62 100.5 95t135 33t134.5 -33t99.5 -95t37 -144q0 -83 -37 -144.5t-99 -94.5t-135 -33t-135.5 33t-100 94.5t-37.5 144.5q0 82 37.5 144zM227.5 162.5q29.5 -35.5 74.5 -35.5q44 0 73.5 35.5t29.5 96.5t-29.5 97t-73.5 36q-45 0 -74.5 -36t-29.5 -97
t29.5 -96.5zM236.5 -210.5q-27.5 27.5 -27.5 65.5t27.5 65.5t66.5 27.5q38 0 66.5 -28t28.5 -65q0 -38 -28 -65.5t-67 -27.5t-66.5 27.5z" />
    <glyph glyph-name="uni1ECE" unicode="&#x1ece;" horiz-adv-x="792" 
d="M263 906q22 10 52.5 16t62.5 6q60 0 98.5 -18t38.5 -54q0 -62 -127 -90l-53 52q33 7 50 14t17 16q0 8 -10.5 12.5t-28.5 4.5q-38 0 -79 -19zM85.5 569q47.5 86 129.5 131.5t181 45.5t180.5 -45.5t129.5 -131.5t48 -202q0 -117 -48 -203t-129.5 -131.5t-180.5 -45.5
q-100 0 -181.5 45.5t-129 131.5t-47.5 203q0 116 47.5 202zM241.5 249q22.5 -51 62.5 -78.5t92 -27.5t92.5 27.5t63 78.5t22.5 118q0 66 -22.5 116.5t-63 78t-92.5 27.5t-92 -27.5t-62.5 -78t-22.5 -116.5q0 -67 22.5 -118z" />
    <glyph glyph-name="uni1ECF" unicode="&#x1ecf;" horiz-adv-x="605" 
d="M170 754q22 16 52.5 24.5t62.5 8.5q60 0 98.5 -26.5t38.5 -78.5q0 -90 -127 -130l-53 70q33 11 50 23t17 27q0 13 -11 20t-29 7q-35 0 -78 -28zM67.5 403q37.5 62 100.5 95t135 33t134.5 -33t99.5 -95t37 -144q0 -83 -37 -144.5t-99 -94.5t-135 -33t-135.5 33t-100 94.5
t-37.5 144.5q0 82 37.5 144zM227.5 162.5q29.5 -35.5 74.5 -35.5q44 0 73.5 35.5t29.5 96.5t-29.5 97t-73.5 36q-45 0 -74.5 -36t-29.5 -97t29.5 -96.5z" />
    <glyph glyph-name="uni1ED0" unicode="&#x1ed0;" horiz-adv-x="792" 
d="M484 857l98 71h167l-134 -71h-131zM335 846h121l137 -72h-143l-54 29l-55 -29h-143zM85.5 569q47.5 86 129.5 131.5t181 45.5t180.5 -45.5t129.5 -131.5t48 -202q0 -117 -48 -203t-129.5 -131.5t-180.5 -45.5q-100 0 -181.5 45.5t-129 131.5t-47.5 203q0 116 47.5 202z
M241.5 249q22.5 -51 62.5 -78.5t92 -27.5t92.5 27.5t63 78.5t22.5 118q0 66 -22.5 116.5t-63 78t-92.5 27.5t-92 -27.5t-62.5 -78t-22.5 -116.5q0 -67 22.5 -118z" />
    <glyph glyph-name="uni1ED1" unicode="&#x1ed1;" horiz-adv-x="605" 
d="M364 775l84 144h156l-116 -144h-124zM242 749h114l135 -170h-135l-57 73l-57 -73h-135zM67.5 403q37.5 62 100.5 95t135 33t134.5 -33t99.5 -95t37 -144q0 -83 -37 -144.5t-99 -94.5t-135 -33t-135.5 33t-100 94.5t-37.5 144.5q0 82 37.5 144zM227.5 162.5
q29.5 -35.5 74.5 -35.5q44 0 73.5 35.5t29.5 96.5t-29.5 97t-73.5 36q-45 0 -74.5 -36t-29.5 -97t29.5 -96.5z" />
    <glyph glyph-name="uni1ED2" unicode="&#x1ed2;" horiz-adv-x="792" 
d="M341 928h167l98 -71h-131zM335 846h121l137 -72h-137l-60 32l-61 -32h-137zM85.5 569q47.5 86 129.5 131.5t181 45.5t180.5 -45.5t129.5 -131.5t48 -202q0 -117 -48 -203t-129.5 -131.5t-180.5 -45.5q-100 0 -181.5 45.5t-129 131.5t-47.5 203q0 116 47.5 202zM241.5 249
q22.5 -51 62.5 -78.5t92 -27.5t92.5 27.5t63 78.5t22.5 118q0 66 -22.5 116.5t-63 78t-92.5 27.5t-92 -27.5t-62.5 -78t-22.5 -116.5q0 -67 22.5 -118z" />
    </font>
</defs>
</svg>
