<?xml version="1.0" standalone="no"?>
<!DOCTYPE svg PUBLIC "-//W3C//DTD SVG 1.1//EN" "http://www.w3.org/Graphics/SVG/1.1/DTD/svg11.dtd" >
<svg xmlns="http://www.w3.org/2000/svg" xmlns:xlink="http://www.w3.org/1999/xlink" version="1.1">
<metadata>
Created by FontForge 20170731 at Fri May 28 14:22:29 2021
 By Aleksey,,,
Copyright 2021 Huawei Device Co., Ltd. All Rights Reserved.
</metadata>
<defs>
<font id="HarmonyOS_Sans_Bold" horiz-adv-x="601" >
  <font-face 
    font-family="HarmonyOS Sans"
    font-weight="700"
    font-stretch="normal"
    units-per-em="1000"
    panose-1="0 0 8 0 0 0 0 0 0 0"
    ascent="800"
    descent="-200"
    x-height="517"
    cap-height="732"
    bbox="-572 -244 1536 928"
    underline-thickness="50"
    underline-position="-150"
    unicode-range="U+0020-30FB"
  />
<missing-glyph horiz-adv-x="1000" 
 />
    <glyph glyph-name="f_b.liga" unicode="fb" horiz-adv-x="1004" 
d="M98 543q0 118 53 174.5t145 56.5q47 0 85 -15v-121q-30 15 -60 15q-42 0 -63 -27t-21 -96v-12h129v-116h-129v-402h-139v402h-89v116h89v25zM851.5 499q53.5 -32 85 -94t31.5 -146t-31.5 -145.5t-85 -93.5t-116.5 -32q-52 0 -95.5 22t-70.5 68q-6 -46 -7 -78h-123v761
h139v-308q28 39 68.5 58.5t88.5 19.5q63 0 116.5 -32zM790.5 148q33.5 41 33.5 111t-33 109t-88 39q-53 0 -89 -36.5t-36 -111.5t36.5 -113.5t88.5 -38.5q54 0 87.5 41z" />
    <glyph glyph-name="f_f.liga" unicode="ff" horiz-adv-x="737" 
d="M591 538v-20h136v-116h-136v-402h-139v402h-215v-402h-139v402h-89v116h89v25q0 117 56 174t146 57q44 0 76.5 -13t50.5 -34l-53 -100q-28 26 -62 26q-37 0 -56 -28t-19 -94v-13h215v25q0 117 56.5 174t146.5 57q43 0 77.5 -13t54.5 -34l-53 -100q-31 26 -68 26
q-75 0 -75 -115z" />
    <glyph glyph-name="f_f_b.liga" unicode="ffb" horiz-adv-x="1358" 
d="M452 543q0 118 53 174.5t145 56.5q47 0 85 -15v-121q-28 15 -59 15q-42 0 -63.5 -27.5t-21.5 -95.5v-12h129v-116h-129v-402h-139v402h-215v-402h-139v402h-89v116h89v25q0 117 56 174t146 57q44 0 76.5 -13t50.5 -34l-53 -100q-28 26 -62 26q-37 0 -56 -28t-19 -94v-13
h215v25zM1206 499q53 -32 84.5 -94t31.5 -146t-31.5 -145.5t-84.5 -93.5t-116 -32q-52 0 -95.5 22t-71.5 68q-6 -46 -7 -78h-123v761h139v-308q28 39 68.5 58.5t89.5 19.5q63 0 116 -32zM1145.5 148q33.5 41 33.5 111t-33.5 109t-87.5 39q-53 0 -89.5 -36.5t-36.5 -111.5
t37 -113.5t89 -38.5q54 0 87.5 41z" />
    <glyph glyph-name="f_f_h.liga" unicode="ffh" horiz-adv-x="1333" 
d="M452 543q0 118 53 174.5t145 56.5q47 0 85 -15v-121q-28 15 -59 15q-42 0 -63.5 -27.5t-21.5 -95.5v-12h129v-116h-129v-402h-139v402h-215v-402h-139v402h-89v116h89v25q0 117 56 174t146 57q44 0 76.5 -13t50.5 -34l-53 -100q-28 26 -62 26q-37 0 -56 -28t-19 -94v-13
h215v25zM1226 474.5q50 -56.5 50 -164.5v-310h-138v265q0 142 -95 142q-50 0 -80.5 -38.5t-30.5 -108.5v-260h-139v761h139v-312q52 82 158 82q86 0 136 -56.5z" />
    <glyph glyph-name="f_f_i.liga" unicode="ffi" horiz-adv-x="997" 
d="M452 543q0 118 53 174.5t145 56.5q47 0 85 -15v-121q-28 15 -59 15q-42 0 -63.5 -27.5t-21.5 -95.5v-12h129v-116h-129v-402h-139v402h-215v-402h-139v402h-89v116h89v25q0 117 56 174t146 57q44 0 76.5 -13t50.5 -34l-53 -100q-28 26 -62 26q-37 0 -56 -28t-19 -94v-13
h215v25zM804 609.5q-24 25.5 -24 59.5q0 35 24 60t58 25t58.5 -25t24.5 -60q0 -34 -24.5 -59.5t-58.5 -25.5t-58 25.5zM932 0h-139v518h139v-518z" />
    <glyph glyph-name="f_f_k.liga" unicode="ffk" horiz-adv-x="1309" 
d="M452 543q0 118 53 174.5t145 56.5q47 0 85 -15v-121q-28 15 -59 15q-42 0 -63.5 -27.5t-21.5 -95.5v-12h129v-116h-129v-402h-139v402h-215v-402h-139v402h-89v116h89v25q0 117 56 174t146 57q44 0 76.5 -13t50.5 -34l-53 -100q-28 26 -62 26q-37 0 -56 -28t-19 -94v-13
h215v25zM1291 518l-186 -207l209 -311h-167l-136 206l-79 -86v-120h-139v761h139v-472l197 229h162z" />
    <glyph glyph-name="f_f_l.liga" unicode="ffl" horiz-adv-x="997" 
d="M452 543q0 118 53 174.5t145 56.5q47 0 85 -15v-121q-28 15 -59 15q-42 0 -63.5 -27.5t-21.5 -95.5v-12h129v-116h-129v-402h-139v402h-215v-402h-139v402h-89v116h89v25q0 117 56 174t146 57q44 0 76.5 -13t50.5 -34l-53 -100q-28 26 -62 26q-37 0 -56 -28t-19 -94v-13
h215v25zM793 0v761h139v-761h-139z" />
    <glyph glyph-name="f_h.liga" unicode="fh" horiz-adv-x="978" 
d="M98 543q0 118 53 174.5t145 56.5q47 0 85 -15v-121q-30 15 -60 15q-42 0 -63 -28t-21 -92v-15h129v-116h-129v-402h-139v402h-89v116h89v25zM871.5 474.5q50.5 -56.5 50.5 -164.5v-310h-139v265q0 142 -94 142q-50 0 -80.5 -38.5t-30.5 -108.5v-260h-139v761h139v-312
q50 82 158 82q85 0 135.5 -56.5z" />
    <glyph glyph-name="f_i.liga" unicode="fi" horiz-adv-x="642" 
d="M98 543q0 118 53 174.5t145 56.5q47 0 85 -15v-121q-30 15 -60 15q-42 0 -63 -28t-21 -92v-15h129v-116h-129v-402h-139v402h-89v116h89v25zM449.5 609.5q-24.5 25.5 -24.5 59.5q0 35 24 60t58 25t59 -25.5t25 -59.5t-25 -59.5t-59 -25.5q-33 0 -57.5 25.5zM578 0h-139
v518h139v-518z" />
    <glyph glyph-name="f_k.liga" unicode="fk" horiz-adv-x="955" 
d="M98 543q0 118 53 174.5t145 56.5q47 0 85 -15v-121q-30 15 -60 15q-42 0 -63 -28t-21 -92v-15h129v-116h-129v-402h-139v402h-89v116h89v25zM936 518l-186 -207l209 -311h-167l-136 206l-78 -86v-120h-139v761h139v-472l197 229h161z" />
    <glyph glyph-name="f_l.liga" unicode="fl" horiz-adv-x="642" 
d="M98 543q0 118 53 174.5t145 56.5q47 0 85 -15v-121q-30 15 -60 15q-42 0 -63 -28t-21 -92v-15h129v-116h-129v-402h-139v402h-89v116h89v25zM439 0v761h139v-761h-139z" />
    <glyph glyph-name="r_f.liga" unicode="rf" horiz-adv-x="790" 
d="M644 538v-20h136v-116h-136v-402h-139v402h-88v116h88v25q0 117 56.5 174t146.5 57q43 0 77.5 -13t54.5 -34l-53 -100q-31 26 -68 26q-75 0 -75 -115zM328 531q31 0 54 -12v-124q-25 15 -58 15q-120 0 -120 -169v-241h-139v518h122q5 -61 8 -79q42 92 133 92z" />
    <glyph glyph-name="r_t.liga" unicode="rt" horiz-adv-x="836" 
d="M838 30q-51 -42 -141 -42q-84 0 -135.5 44.5t-51.5 159.5v209h-88v117h88v159h139v-159h155v-117h-155v-186q0 -53 18 -79.5t57 -26.5q35 0 66 21zM328 531q31 0 54 -12v-124q-25 15 -58 15q-120 0 -120 -169v-241h-139v518h122q5 -61 8 -79q42 92 133 92z" />
    <glyph glyph-name="r_v.liga" unicode="rv" horiz-adv-x="980" 
d="M393 519v-127q-25 18 -58 18q-63 0 -97 -44t-34 -125v-241h-139v518h122q5 -60 9 -82q22 47 59 71t84 24q31 0 54 -12zM573 518l133 -342l125 342h145l-219 -517h-113l-226 517h155z" />
    <glyph glyph-name="r_x.liga" unicode="rx" horiz-adv-x="951" 
d="M393 519v-127q-25 18 -58 18q-63 0 -97 -44t-34 -125v-241h-139v518h122q5 -60 9 -82q22 47 59 71t84 24q31 0 54 -12zM684 364l110 154h152l-190 -256l190 -262h-159l-109 155l-108 -155h-154l190 256l-190 262h161z" />
    <glyph glyph-name="r_y.liga" unicode="ry" horiz-adv-x="984" 
d="M255 507q37 24 84 24q31 0 54 -12v-127q-25 18 -58 18q-63 0 -97 -44t-34 -125v-241h-139v518h122q5 -60 9 -82q22 47 59 71zM835 518h145l-233 -586q-37 -93 -86 -134.5t-123 -41.5q-37 0 -68.5 10.5t-53.5 28.5l54 106q32 -22 67 -22q23 0 39 9.5t31.5 33t34.5 69.5
l-224 527h155l137 -357z" />
    <glyph glyph-name=".notdef" horiz-adv-x="1000" 
 />
    <glyph glyph-name=".null" horiz-adv-x="0" 
 />
    <glyph glyph-name="nonmarkingreturn" horiz-adv-x="333" 
 />
    <glyph glyph-name="null" horiz-adv-x="600" 
 />
    <glyph glyph-name="null" horiz-adv-x="600" 
 />
    <glyph glyph-name="space" unicode=" " horiz-adv-x="270" 
 />
    <glyph glyph-name="exclam" unicode="!" horiz-adv-x="266" 
d="M79 235l-20 525h146l-20 -525h-106zM74 13q-24 25 -24 59q0 35 24 60t58 25t59 -25t25 -60q0 -34 -24.5 -59t-59.5 -25q-34 0 -58 25z" />
    <glyph glyph-name="quotedbl" unicode="&#x22;" horiz-adv-x="445" 
d="M59 503l-8 301h127l-6 -301h-113zM274 503l-8 301h127l-7 -301h-112z" />
    <glyph glyph-name="numbersign" unicode="#" horiz-adv-x="692" 
d="M584 571h96v-126h-126l-38 -161h96v-125h-126l-38 -161h-124l38 161h-128l-38 -161h-125l38 161h-97v125h127l38 161h-97v126h126l38 162h125l-38 -162h128l38 162h124zM299 449l-39 -168h133l40 168h-134z" />
    <glyph glyph-name="dollar" unicode="$" 
d="M366 412q63 -20 106.5 -42.5t72.5 -62.5t29 -100q0 -92 -57.5 -146.5t-147.5 -67.5v-135h-121v135q-84 12 -146 61.5t-85 128.5l110 64q21 -50 51 -79t73 -40v191q-64 20 -107.5 42.5t-72.5 62.5t-29 102q0 90 58 145t148 69v127h121v-127q78 -13 132.5 -58t69.5 -109
l-112 -64q-29 72 -93 93v-190zM194.5 484q19.5 -19 56.5 -35v159q-35 -6 -55.5 -26t-20.5 -50q0 -29 19.5 -48zM366 124q36 7 55.5 25.5t19.5 48.5q0 29 -19 48.5t-56 35.5v-158z" />
    <glyph glyph-name="percent" unicode="%" horiz-adv-x="855" 
d="M350 468.5q-24 -41.5 -65 -63.5t-90 -22q-48 0 -89 22t-65.5 63.5t-24.5 95.5t24.5 95t65.5 63.5t89 22.5q49 0 90 -22.5t65 -63.5t24 -95t-24 -95.5zM575 732h142l-437 -732h-142zM243 618.5q-19 20.5 -48 20.5q-28 0 -47 -20.5t-19 -54.5q0 -33 19 -54t47 -21
q29 0 48 21t19 54q0 34 -19 54.5zM815 73.5q-24 -41.5 -65 -63.5t-90 -22q-48 0 -89 22t-65.5 63.5t-24.5 95.5t24.5 95t65.5 63.5t89 22.5q49 0 90 -22.5t65 -63.5t24 -95t-24 -95.5zM707.5 223.5q-19.5 20.5 -47.5 20.5t-47 -20.5t-19 -54.5q0 -33 19 -54t47 -21t47.5 21
t19.5 54q0 34 -19.5 54.5z" />
    <glyph glyph-name="ampersand" unicode="&#x26;" horiz-adv-x="746" 
d="M774 0h-173l-76 80q-102 -92 -242 -92q-113 0 -182.5 56.5t-69.5 157.5q0 83 44 135t121 91q-39 45 -54.5 80.5t-15.5 74.5q0 60 30 103t80.5 65.5t111.5 22.5q63 0 110 -23t72 -63.5t25 -91.5q0 -68 -42.5 -111.5t-120.5 -82.5l125 -133q34 73 46 165h139
q-23 -149 -94 -260zM277 538.5q11 -22.5 39 -55.5q48 23 73 47.5t25 58.5q0 29 -19.5 47.5t-51.5 18.5q-34 0 -55.5 -19t-21.5 -54q0 -21 11 -43.5zM440 169l-166 176q-47 -27 -73 -58t-26 -73q0 -49 33.5 -76t88.5 -27q77 0 143 58z" />
    <glyph glyph-name="quotesingle" unicode="'" horiz-adv-x="229" 
d="M59 503l-8 301h127l-6 -301h-113z" />
    <glyph glyph-name="parenleft" unicode="(" horiz-adv-x="383" 
d="M105 612.5q47 119.5 129 202.5h135q-82 -99 -125 -209t-43 -254q0 -145 43 -255t125 -208h-135q-82 83 -129 202t-47 261q0 141 47 260.5z" />
    <glyph glyph-name="parenright" unicode=")" horiz-adv-x="383" 
d="M278 91q-47 -119 -129 -202h-135q82 98 125 208t43 255q0 144 -43 254t-125 209h135q82 -83 129 -202.5t47 -260.5q0 -142 -47 -261z" />
    <glyph glyph-name="asterisk" unicode="*" horiz-adv-x="461" 
d="M270 600l110 77l52 -90l-123 -57l123 -56l-52 -90l-110 78l13 -134h-104l11 133l-109 -77l-52 90l121 56l-121 57l52 90l109 -77l-11 133h104z" />
    <glyph glyph-name="plus" unicode="+" 
d="M239 617h123v-194h193v-122h-193v-194h-123v194h-194v122h194v194z" />
    <glyph glyph-name="comma" unicode="," horiz-adv-x="276" 
d="M204 125q27 -31 27 -92q0 -56 -24 -103.5t-65.5 -78t-92.5 -39.5v74q42 10 67.5 36t29.5 65h-5q-36 0 -59 24.5t-23 60.5q0 35 22 59.5t57 24.5q39 0 66 -31z" />
    <glyph glyph-name="hyphen" unicode="-" horiz-adv-x="491" 
d="M58 244v116h375v-116h-375z" />
    <glyph glyph-name="period" unicode="." horiz-adv-x="263" 
d="M73 11q-24 25 -24 60t24 60t58 25q35 0 59.5 -25t24.5 -60t-24.5 -60t-59.5 -25q-34 0 -58 25z" />
    <glyph glyph-name="slash" unicode="/" horiz-adv-x="430" 
d="M11 0l274 732h134l-274 -732h-134z" />
    <glyph glyph-name="zero" unicode="0" 
d="M492 84.5q-67 -96.5 -191 -96.5t-191.5 96.5t-67.5 281.5q0 186 67.5 283t191.5 97t191 -97t67 -283q0 -185 -67 -281.5zM221.5 181.5q25.5 -60.5 79.5 -60.5t79 60.5t25 184.5q0 125 -25 186t-79 61t-79.5 -60.5t-25.5 -186.5q0 -124 25.5 -184.5z" />
    <glyph glyph-name="one" unicode="1" 
d="M88 467v139l224 127h113v-733h-147v573z" />
    <glyph glyph-name="two" unicode="2" 
d="M261 127h293v-127h-505v94l221 248q57 64 79.5 100.5t22.5 75.5q0 43 -24 69t-65 26q-42 0 -74 -30.5t-49 -86.5l-114 66q26 89 94 136.5t157 47.5q70 0 121.5 -28.5t79 -78.5t27.5 -114q0 -63 -30.5 -117.5t-108.5 -141.5z" />
    <glyph glyph-name="three" unicode="3" 
d="M516 314.5q32 -44.5 32 -110.5q0 -68 -34.5 -116.5t-93 -74t-129.5 -25.5q-91 0 -158.5 43t-95.5 125l115 66q16 -52 53 -78.5t83 -26.5q45 0 75.5 26t30.5 72q0 101 -154 101h-27v120h39q57 0 87.5 27.5t30.5 68.5q0 38 -25 61t-65 23q-43 0 -74.5 -27.5t-48.5 -78.5
l-110 63q26 84 91 128.5t154 44.5q69 0 121.5 -25.5t81.5 -71.5t29 -106q0 -56 -25.5 -97t-75.5 -64q61 -23 93 -67.5z" />
    <glyph glyph-name="four" unicode="4" 
d="M491 444v-171h99v-124h-99v-149h-142v149h-314v99l252 485h152l-241 -460h151v171h142z" />
    <glyph glyph-name="five" unicode="5" 
d="M436 446.5q52 -29.5 82 -84t30 -125.5q0 -77 -33.5 -133.5t-91.5 -86t-128 -29.5q-83 0 -143.5 38t-85.5 115l117 67q13 -45 42 -68t68 -23q49 0 75.5 32.5t26.5 82.5t-27.5 83.5t-78.5 33.5q-66 0 -105 -65l-104 51l50 398h384v-124h-262l-20 -151q43 18 89 18
q63 0 115 -29.5z" />
    <glyph glyph-name="six" unicode="6" 
d="M453 436.5q53 -29.5 82 -82.5t29 -121q0 -71 -34.5 -127t-94 -87t-129.5 -31q-72 0 -131 31.5t-93 88.5t-34 132q0 56 21 107.5t74 135.5l158 250h157l-143 -220q-17 -27 -37 -54q24 7 54 7q68 0 121 -29.5zM381 149.5q29 31.5 29 81.5t-29 81.5t-76 31.5
q-48 0 -77 -31.5t-29 -81.5q0 -51 29.5 -82t76.5 -31t76 31.5z" />
    <glyph glyph-name="seven" unicode="7" 
d="M382 606h-328v127h491v-90l-253 -643h-158z" />
    <glyph glyph-name="eight" unicode="8" 
d="M528.5 323.5q31.5 -47.5 31.5 -113.5q0 -65 -31.5 -115.5t-90 -78.5t-135.5 -28q-79 0 -138.5 28t-91.5 78.5t-32 115.5q0 66 32 113.5t88 73.5q-45 24 -70 62.5t-25 88.5q0 54 28 99.5t82 72t127 26.5t124.5 -26.5t78 -71t26.5 -100.5q0 -50 -24 -88.5t-66 -61.5
q55 -27 86.5 -74.5zM240.5 601q-23.5 -24 -23.5 -60t23.5 -60t62.5 -24q38 0 62 24t24 60q0 35 -24 59.5t-62 24.5q-39 0 -62.5 -24zM378 145.5q29 28.5 29 77.5q0 50 -28.5 80t-75.5 30q-49 0 -78 -30t-29 -80q0 -49 29.5 -77.5t77.5 -28.5q46 0 75 28.5z" />
    <glyph glyph-name="nine" unicode="9" 
d="M427 714.5q59 -31.5 93 -88.5t34 -132q0 -56 -21 -107.5t-74 -135.5l-158 -250h-157l143 220q17 27 37 54q-24 -7 -54 -7q-68 0 -121 29.5t-82.5 82.5t-29.5 121q0 71 35 127t94.5 87t129.5 31q72 0 131 -31.5zM374 421.5q29 31.5 29 81.5q0 51 -29.5 82t-76.5 31
t-76 -31.5t-29 -81.5t29 -81.5t76 -31.5q48 0 77 31.5z" />
    <glyph glyph-name="colon" unicode=":" horiz-adv-x="285" 
d="M83.5 386q-24.5 25 -24.5 60t24.5 60t58.5 25q35 0 59.5 -25t24.5 -60t-24.5 -60t-59.5 -25q-34 0 -58.5 25zM83.5 13q-24.5 25 -24.5 60t24.5 60t58.5 25t59 -25t25 -60t-24.5 -60t-59.5 -25q-34 0 -58.5 25z" />
    <glyph glyph-name="semicolon" unicode=";" horiz-adv-x="296" 
d="M92 386q-24 25 -24 60t24 60t58 25q35 0 59.5 -25t24.5 -60t-24.5 -60t-59.5 -25q-34 0 -58 25zM211 125q27 -31 27 -92q0 -56 -24 -103t-65.5 -78t-92.5 -40v74q42 10 67.5 36t29.5 65h-6q-35 0 -58 24.5t-23 60.5q0 35 22 59.5t57 24.5q39 0 66 -31z" />
    <glyph glyph-name="less" unicode="&#x3c;" 
d="M555 625v-132l-329 -131l329 -131v-132l-510 202v122z" />
    <glyph glyph-name="equal" unicode="=" 
d="M555 417h-510v122h510v-122zM555 186h-510v122h510v-122z" />
    <glyph glyph-name="greater" unicode="&#x3e;" 
d="M375 362l-330 131v132l510 -202v-122l-510 -202v132z" />
    <glyph glyph-name="question" unicode="?" horiz-adv-x="486" 
d="M-20 595q33 86 102.5 132t163.5 46q66 0 119 -22.5t84 -64.5t31 -99q0 -41 -15.5 -72.5t-37 -53.5t-58.5 -52q-33 -28 -52 -46.5t-32 -44t-13 -56.5q0 -18 2 -27h-113q-12 39 -12 69q0 52 26 86.5t75 74.5q39 32 57 53.5t18 50.5q0 33 -25 52t-65 19q-96 0 -141 -112z
M168 13q-24 25 -24 59q0 35 24 60t58 25t58.5 -25t24.5 -60t-24.5 -59.5t-58.5 -24.5t-58 25z" />
    <glyph glyph-name="at" unicode="@" horiz-adv-x="993" 
d="M747.5 720q101.5 -54 159 -156t57.5 -240q0 -119 -47.5 -189.5t-143.5 -70.5q-52 0 -90.5 21.5t-56.5 64.5q-24 -43 -62.5 -64t-84.5 -21q-57 0 -104.5 29t-76 85t-28.5 132t28.5 132.5t76.5 86t104 29.5q41 0 76.5 -17.5t60.5 -52.5q4 27 6 58h101v-291q0 -48 14 -69
t41 -21q41 0 59 42.5t18 111.5q0 111 -42.5 190t-119.5 120t-179 41q-106 0 -189 -45t-129.5 -126t-46.5 -186q0 -104 46 -184.5t128 -125t186 -44.5q58 0 109.5 14t90.5 40l49 -84q-42 -35 -106.5 -53.5t-142.5 -18.5q-136 0 -242.5 57.5t-166 161.5t-59.5 237
q0 135 61 239.5t169.5 162.5t245.5 58q129 0 230.5 -54zM575 212.5q32 31.5 32 98.5q0 68 -32 99t-78 31q-48 0 -76.5 -34t-28.5 -96t28.5 -96t76.5 -34q46 0 78 31.5z" />
    <glyph glyph-name="A" unicode="A" horiz-adv-x="723" 
d="M420 732l296 -732h-154l-64 167h-285l-62 -167h-145l287 732h127zM451 291l-98 257l-95 -257h193z" />
    <glyph glyph-name="B" unicode="B" horiz-adv-x="680" 
d="M645 211q0 -99 -72.5 -155t-203.5 -56h-292v732h265q117 0 190.5 -53.5t73.5 -150.5q0 -101 -82 -148q121 -43 121 -169zM219 606v-173h109q59 0 93.5 24.5t34.5 65.5q0 40 -34 61.5t-94 21.5h-109zM357 126q66 0 101.5 24t35.5 68t-35.5 69t-102.5 25h-137v-186h138z
" />
    <glyph glyph-name="C" unicode="C" horiz-adv-x="681" 
d="M481.5 149q38.5 28 61.5 78l121 -70q-27 -74 -99 -121.5t-172 -47.5q-97 0 -177 47t-127 133.5t-47 198.5t46.5 198t127 133t177.5 47q100 0 172 -47.5t99 -121.5l-121 -70q-23 50 -61.5 78t-91.5 28q-56 0 -100 -30t-69.5 -85.5t-25.5 -129.5t25.5 -130t69.5 -86
t100 -30q53 0 91.5 28z" />
    <glyph glyph-name="D" unicode="D" horiz-adv-x="743" 
d="M321 732q107 0 193.5 -43t136.5 -125.5t50 -196.5t-50 -197t-136 -126.5t-194 -43.5h-244v732h244zM304 124q118 0 181 63t63 180q0 115 -63.5 178.5t-180.5 63.5h-82v-485h82z" />
    <glyph glyph-name="E" unicode="E" horiz-adv-x="608" 
d="M519 309h-297v-182h343v-127h-488v732h477v-126h-332v-172h297v-125z" />
    <glyph glyph-name="F" unicode="F" horiz-adv-x="579" 
d="M77 732h477v-127h-332v-187h297v-126h-297v-292h-145v732z" />
    <glyph glyph-name="G" unicode="G" horiz-adv-x="722" 
d="M400 281v125h280v-298q-34 -55 -108.5 -87.5t-164.5 -32.5q-107 0 -190 48t-129 134t-46 197q0 112 47.5 198t130.5 133t184 47t175.5 -45.5t100.5 -116.5l-120 -69q-22 46 -63 72.5t-97 26.5q-59 0 -106 -30t-74 -86t-27 -130q0 -76 27.5 -132t78 -86t117.5 -30
q78 0 122 43v119h-138z" />
    <glyph glyph-name="H" unicode="H" horiz-adv-x="775" 
d="M222 444h330v288h146v-732h-146v315h-330v-315h-145v732h145v-288z" />
    <glyph glyph-name="I" unicode="I" horiz-adv-x="298" 
d="M222 0h-145v732h145v-732z" />
    <glyph glyph-name="J" unicode="J" horiz-adv-x="523" 
d="M77 27q-58 39 -77 119l120 64q12 -45 35.5 -67t61.5 -22q50 0 71 36.5t21 113.5v461h145v-475q0 -143 -67 -206t-171 -63q-81 0 -139 39z" />
    <glyph glyph-name="K" unicode="K" horiz-adv-x="742" 
d="M426 433l311 -433h-187l-228 322l-100 -107v-215h-145v732h145v-341l304 341h181z" />
    <glyph glyph-name="L" unicode="L" horiz-adv-x="580" 
d="M77 732h145v-602h333v-130h-478v732z" />
    <glyph glyph-name="M" unicode="M" horiz-adv-x="878" 
d="M691 732h110v-732h-138v472l-186 -277h-76l-187 279v-474h-137v732h115l250 -379z" />
    <glyph glyph-name="N" unicode="N" horiz-adv-x="760" 
d="M194 732l355 -484v484h135v-732h-118l-356 485v-485h-133v732h117z" />
    <glyph glyph-name="O" unicode="O" horiz-adv-x="783" 
d="M88 568q46 86 125.5 131.5t177.5 45.5t177.5 -45.5t126 -131.5t46.5 -201q0 -116 -46.5 -202t-126 -131.5t-177.5 -45.5t-177.5 45.5t-125.5 131.5t-46 202q0 115 46 201zM219.5 238q24.5 -56 69 -86.5t102.5 -30.5t102.5 30.5t69 86.5t24.5 129t-24.5 128.5t-69 86
t-102.5 30.5t-102.5 -30.5t-69 -86t-24.5 -128.5t24.5 -129z" />
    <glyph glyph-name="P" unicode="P" horiz-adv-x="637" 
d="M329 732q87 0 152 -30t100.5 -84.5t35.5 -127.5q0 -72 -35.5 -126.5t-100.5 -84t-152 -29.5h-107v-250h-145v732h252zM313 373q68 0 109 29.5t41 87.5t-41 88.5t-109 30.5h-91v-236h91z" />
    <glyph glyph-name="Q" unicode="Q" horiz-adv-x="785" 
d="M813 -167h-201l-184 157q-24 -2 -37 -2q-98 0 -177.5 45.5t-125.5 131.5t-46 202q0 115 46 201t125.5 131.5t177.5 45.5t177.5 -45.5t126 -131.5t46.5 -201q0 -112 -44 -196.5t-119 -131.5zM219.5 238q24.5 -56 69 -86.5t102.5 -30.5t102.5 30.5t69 86.5t24.5 129
t-24.5 128.5t-69 86t-102.5 30.5t-102.5 -30.5t-69 -86t-24.5 -128.5t24.5 -129z" />
    <glyph glyph-name="R" unicode="R" horiz-adv-x="685" 
d="M685 0l-173 1l-178 263h-6h-106v-264h-145v732h253q86 0 151 -29t100 -82.5t35 -122.5q0 -70 -36 -123t-101 -81zM222 609v-222h91q64 0 106.5 27.5t42.5 83.5q0 57 -42 84t-107 27h-91z" />
    <glyph glyph-name="S" unicode="S" horiz-adv-x="592" 
d="M532.5 86.5q-38.5 -50.5 -100 -74.5t-131.5 -24q-102 0 -184 47.5t-109 134.5l118 67q24 -56 70 -87t110 -31q52 0 82.5 21t30.5 61q0 32 -20.5 53t-51 33t-83.5 28q-71 21 -116 41.5t-77 61.5t-32 108q0 71 37.5 120.5t99 74t132.5 24.5q97 0 166 -44t89 -119l-118 -67
q-18 47 -54 73.5t-90 26.5q-49 0 -79.5 -22.5t-30.5 -59.5q0 -28 19 -46.5t48.5 -30t79.5 -26.5q72 -21 119 -42.5t80.5 -64t33.5 -111.5q0 -75 -38.5 -125.5z" />
    <glyph glyph-name="T" unicode="T" horiz-adv-x="607" 
d="M8 732h590v-129h-222v-603h-146v603h-222v129z" />
    <glyph glyph-name="U" unicode="U" horiz-adv-x="759" 
d="M545 732h145v-436q0 -94 -37 -163.5t-107 -107t-166 -37.5q-97 0 -167 37.5t-107 107t-37 163.5v436h145v-401q0 -106 43.5 -158t122.5 -52q78 0 121.5 52t43.5 158v401z" />
    <glyph glyph-name="V" unicode="V" horiz-adv-x="717" 
d="M171 732l196 -529l188 529h155l-285 -732h-123l-296 732h165z" />
    <glyph glyph-name="W" unicode="W" horiz-adv-x="1006" 
d="M567 732l152 -492l140 492h140l-228 -732h-112l-154 478l-149 -478h-111l-238 732h150l150 -492l144 492h116z" />
    <glyph glyph-name="X" unicode="X" horiz-adv-x="715" 
d="M698 732l-257 -357l269 -375h-180l-178 257l-179 -257h-168l268 372l-256 360h177l168 -242l168 242h168z" />
    <glyph glyph-name="Y" unicode="Y" horiz-adv-x="678" 
d="M349 432l166 300h157l-255 -444v-288h-145v289l-266 443h171z" />
    <glyph glyph-name="Z" unicode="Z" horiz-adv-x="591" 
d="M559 732v-80l-340 -522h354v-130h-556v81l341 522h-310v129h511z" />
    <glyph glyph-name="bracketleft" unicode="[" horiz-adv-x="378" 
d="M76 815h284v-126h-145v-674h145v-126h-284v926z" />
    <glyph glyph-name="backslash" unicode="\" horiz-adv-x="430" 
d="M11 732h134l274 -732h-134z" />
    <glyph glyph-name="bracketright" unicode="]" horiz-adv-x="378" 
d="M18 689v126h284v-926h-284v126h145v674h-145z" />
    <glyph glyph-name="asciicircum" unicode="^" horiz-adv-x="533" 
d="M157 328h-131l176 404h128l176 -404h-130l-109 254z" />
    <glyph glyph-name="underscore" unicode="_" horiz-adv-x="483" 
d="M0 -196v116h483v-116h-483z" />
    <glyph glyph-name="grave" unicode="`" horiz-adv-x="345" 
d="M58 748h140l90 -165h-109z" />
    <glyph glyph-name="a" unicode="a" horiz-adv-x="564" 
d="M448 471.5q59 -59.5 59 -169.5v-302h-117q-1 8 -2.5 26.5t-4.5 32.5q-23 -36 -59.5 -53.5t-88.5 -17.5q-54 0 -98.5 19t-70.5 55.5t-26 86.5q0 52 29.5 90.5t79.5 59.5t110 21q54 0 111 -18q-3 115 -98 115q-76 0 -111 -68l-99 57q28 58 86 91.5t136 33.5
q105 0 164 -59.5zM370 210q-50 12 -87 12q-49 0 -76 -17.5t-27 -49.5q0 -29 21.5 -45t55.5 -16q45 0 79 25.5t34 70.5v20z" />
    <glyph glyph-name="b" unicode="b" horiz-adv-x="630" 
d="M477.5 499q53.5 -32 85 -94t31.5 -146t-31.5 -145.5t-85 -93.5t-116.5 -32q-52 0 -95.5 22t-70.5 68q-7 -57 -8 -78h-122v761h139v-308q28 39 68.5 58.5t88.5 19.5q63 0 116.5 -32zM416.5 148q33.5 41 33.5 111t-33 109t-88 39q-53 0 -89 -36.5t-36 -111.5t36.5 -113.5
t88.5 -38.5q54 0 87.5 41z" />
    <glyph glyph-name="c" unicode="c" horiz-adv-x="502" 
d="M394 168l106 -62q-25 -58 -79 -88t-123 -30t-129 31.5t-97 93t-37 146.5q0 86 37 147.5t97 93t129 31.5t123 -30t79 -88l-106 -62q-35 58 -96 58q-54 0 -86.5 -40.5t-32.5 -109.5q0 -68 33 -109t86 -41q60 0 96 59z" />
    <glyph glyph-name="d" unicode="d" horiz-adv-x="629" 
d="M425 761h139v-761h-122q-5 58 -8 78q-27 -45 -70.5 -67.5t-94.5 -22.5q-64 0 -117 32t-85 93.5t-32 145.5q0 85 32 146.5t85 93.5t117 32q47 0 87.5 -19t68.5 -58v307zM389 145q36 38 36 114q0 75 -36 111.5t-88 36.5q-55 0 -88.5 -39t-33.5 -109t33.5 -111t88.5 -41
q52 0 88 38z" />
    <glyph glyph-name="e" unicode="e" horiz-adv-x="557" 
d="M417.5 500.5q53.5 -30.5 83 -86t29.5 -127.5q0 -32 -6 -65h-344q9 -58 42 -87.5t82 -29.5q35 0 62.5 15.5t42.5 46.5l102 -60q-21 -57 -80.5 -88t-132.5 -31q-70 0 -130 31t-96.5 93t-36.5 149q0 86 36.5 147t95.5 92t128 31t122.5 -30.5zM221 392q-29 -26 -39 -73h206
q-4 48 -30.5 73.5t-66.5 25.5q-41 0 -70 -26z" />
    <glyph glyph-name="f" unicode="f" horiz-adv-x="383" 
d="M256 626q-19 -27 -19 -88v-20h135v-116h-135v-402h-139v402h-89v116h89v25q0 117 56 174t146 57q44 0 78 -13t54 -34l-53 -100q-31 26 -67 26q-37 0 -56 -27z" />
    <glyph glyph-name="g" unicode="g" horiz-adv-x="624" 
d="M564 518v-465q0 -157 -79 -227t-196 -70q-85 0 -149.5 36t-91.5 100l107 61q39 -75 134 -75q74 0 104.5 43.5t31.5 140.5q-52 -74 -150 -74q-63 0 -118 32.5t-88.5 94t-33.5 144.5q0 84 33.5 145.5t88.5 94t118 32.5q51 0 92 -22t67 -67q7 41 8 76h122zM389 145
q36 38 36 114q0 75 -36 111.5t-88 36.5q-55 0 -88.5 -39t-33.5 -109t33.5 -111t88.5 -41q52 0 88 38z" />
    <glyph glyph-name="h" unicode="h" horiz-adv-x="604" 
d="M497.5 474.5q50.5 -56.5 50.5 -164.5v-310h-139v265q0 142 -94 142q-50 0 -80.5 -38.5t-30.5 -108.5v-260h-139v761h139v-312q50 82 158 82q85 0 135.5 -56.5z" />
    <glyph glyph-name="i" unicode="i" horiz-adv-x="268" 
d="M75.5 609.5q-24.5 25.5 -24.5 59.5q0 35 24 60t58 25t59 -25.5t25 -59.5t-25 -59.5t-59 -25.5q-33 0 -57.5 25.5zM204 0h-139v518h139v-518z" />
    <glyph glyph-name="j" unicode="j" horiz-adv-x="267" 
d="M75 609.5q-24 25.5 -24 59.5q0 35 24 60t57 25q35 0 59.5 -25t24.5 -60q0 -34 -24.5 -59.5t-59.5 -25.5q-33 0 -57 25.5zM-83.5 -229.5q-39.5 14.5 -64.5 41.5l75 95q25 -30 60 -30q39 0 58.5 29t19.5 92v520h139v-531q0 -78 -28.5 -130t-75.5 -76.5t-102 -24.5
q-42 0 -81.5 14.5z" />
    <glyph glyph-name="k" unicode="k" horiz-adv-x="581" 
d="M376 311l209 -311h-167l-136 206l-78 -86v-120h-139v761h139v-472l197 229h161z" />
    <glyph glyph-name="l" unicode="l" horiz-adv-x="268" 
d="M204 0h-139v761h139v-761z" />
    <glyph glyph-name="m" unicode="m" horiz-adv-x="874" 
d="M770 474.5q47 -56.5 47 -162.5v-312h-136v265q0 142 -79 142q-43 0 -68.5 -39t-25.5 -108v-260h-135v265q0 142 -79 142q-43 0 -68 -39t-25 -108v-260h-136v518h119q5 -57 8 -76q51 89 148 89q52 0 91 -27t59 -80q25 55 66 81t92 26q75 0 122 -56.5z" />
    <glyph glyph-name="n" unicode="n" horiz-adv-x="604" 
d="M498 474.5q50 -56.5 50 -164.5v-310h-139v265q0 142 -94 142q-50 0 -80.5 -38.5t-30.5 -108.5v-260h-139v518h122q5 -61 9 -83q50 96 166 96q86 0 136 -56.5z" />
    <glyph glyph-name="o" unicode="o" 
d="M71.5 402q36.5 62 97.5 95.5t132 33.5q70 0 130.5 -33.5t97 -95.5t36.5 -143t-36.5 -143t-97 -95t-130.5 -33q-71 0 -132 33t-97.5 95t-36.5 143t36.5 143zM213.5 149.5q34.5 -40.5 86.5 -40.5t86 40.5t34 109.5t-34 110t-86 41t-86.5 -41t-34.5 -110t34.5 -109.5z" />
    <glyph glyph-name="p" unicode="p" horiz-adv-x="630" 
d="M477.5 499q53.5 -32 85 -94t31.5 -146t-31.5 -145.5t-85 -93.5t-116.5 -32q-48 0 -89 19t-68 58v-297h-139v750h122l3 -34q1 -10 2 -21t3 -23q27 46 70.5 68.5t95.5 22.5q63 0 116.5 -32zM416.5 150.5q33.5 39.5 33.5 108.5q0 71 -33 112t-88 41q-52 0 -88.5 -38.5
t-36.5 -114.5q0 -75 36 -111.5t89 -36.5q54 0 87.5 39.5z" />
    <glyph glyph-name="q" unicode="q" horiz-adv-x="629" 
d="M564 518v-750h-139v297q-27 -39 -68 -58t-88 -19q-64 0 -117 32t-85 93.5t-32 145.5q0 85 32 146.5t85 93.5t117 32q52 0 95 -22.5t70 -67.5q7 58 8 77h122zM389 147.5q36 36.5 36 111.5t-36.5 114t-87.5 39q-55 0 -88.5 -41.5t-33.5 -111.5q0 -69 33.5 -108.5
t88.5 -39.5q52 0 88 36.5z" />
    <glyph glyph-name="r" unicode="r" horiz-adv-x="430" 
d="M396 522q26 -9 40 -23l-54 -107q-26 18 -59 18q-54 0 -86.5 -45t-32.5 -124v-241h-139v518h122q5 -60 9 -82q23 47 60 71t84 24q30 0 56 -9z" />
    <glyph glyph-name="s" unicode="s" horiz-adv-x="468" 
d="M389.5 32.5q-59.5 -44.5 -154.5 -44.5q-82 0 -141.5 35t-80.5 97l101 59q15 -37 47 -57.5t75 -20.5q32 0 51 12t19 34q0 25 -25 38.5t-78 28.5q-53 16 -86.5 31t-58 43.5t-24.5 74.5q0 52 28.5 90t76.5 58t105 20q78 0 132 -33.5t68 -88.5l-101 -57q-30 65 -101 65
q-30 0 -48 -11.5t-18 -32.5q0 -24 24 -36.5t75 -26.5q54 -15 89 -30t60 -45.5t25 -80.5q0 -77 -59.5 -121.5z" />
    <glyph glyph-name="t" unicode="t" horiz-adv-x="423" 
d="M425 30q-51 -42 -142 -42q-84 0 -135.5 44.5t-51.5 159.5v209h-92v117h92v159h139v-159h156v-117h-156v-186q0 -52 18 -79t58 -27q35 0 66 21z" />
    <glyph glyph-name="u" unicode="u" horiz-adv-x="604" 
d="M400 518h139v-518h-123q-4 60 -8 81q-26 -47 -68 -70t-96 -23q-87 0 -137 56t-50 164v310h139v-264q0 -143 92 -143q50 0 81 39t31 109v259z" />
    <glyph glyph-name="v" unicode="v" horiz-adv-x="566" 
d="M158 518l134 -342l125 342h145l-219 -517h-113l-226 517h154z" />
    <glyph glyph-name="w" unicode="w" horiz-adv-x="822" 
d="M474 518l108 -323l102 323h135l-189 -517h-99l-118 315l-113 -315h-100l-196 517h143l109 -327l102 327h116z" />
    <glyph glyph-name="x" unicode="x" horiz-adv-x="539" 
d="M272 364l110 154h152l-190 -256l190 -262h-159l-109 155l-108 -155h-154l190 256l-190 262h161z" />
    <glyph glyph-name="y" unicode="y" horiz-adv-x="569" 
d="M420 518h145l-233 -586q-37 -93 -86.5 -134.5t-123.5 -41.5q-36 0 -67.5 10.5t-54.5 28.5l55 106q30 -22 66 -22q23 0 39.5 9.5t31.5 33t35 69.5l-225 527h156l137 -357z" />
    <glyph glyph-name="z" unicode="z" horiz-adv-x="483" 
d="M443 517v-80l-236 -326h251v-111h-431v81l236 326h-219v110h399z" />
    <glyph glyph-name="braceleft" unicode="{" horiz-adv-x="414" 
d="M285 521q0 -73 -25 -114.5t-78 -54.5q53 -13 78 -54.5t25 -114.5v-63q0 -59 19 -82t64 -23h27v-126h-48q-69 0 -113 16.5t-67 59.5t-23 120v79q0 45 -11 69t-35 34t-67 13v144q44 3 68 13.5t34.5 34.5t10.5 68v79q0 77 23 120t67 59.5t113 16.5h48v-126h-27
q-45 0 -64 -23t-19 -82v-63z" />
    <glyph glyph-name="bar" unicode="|" horiz-adv-x="230" 
d="M51 -111v926h128v-926h-128z" />
    <glyph glyph-name="braceright" unicode="}" horiz-adv-x="414" 
d="M129 584q0 59 -19 82t-64 23h-27v126h48q69 0 113 -16.5t67 -59.5t23 -120v-79q0 -44 10.5 -68t34 -34.5t67.5 -13.5v-144q-43 -3 -66.5 -13t-34.5 -34.5t-11 -68.5v-79q0 -77 -23 -120t-67 -59.5t-113 -16.5h-48v126h27q45 0 64 23t19 82v63q0 73 25 114.5t78 54.5
q-53 13 -78 54.5t-25 114.5v63z" />
    <glyph glyph-name="asciitilde" unicode="~" 
d="M48 264q1 89 41 149t118 60q44 0 70.5 -17.5t52.5 -49.5q18 -20 29 -29t26 -9q22 0 33.5 23t15.5 67h118q0 -89 -40 -149t-119 -60q-44 0 -70 17.5t-54 49.5q-16 20 -27 29t-26 9q-22 0 -33.5 -22.5t-15.5 -67.5h-119z" />
    <glyph glyph-name="uni00A0" unicode="&#xa0;" horiz-adv-x="270" 
 />
    <glyph glyph-name="exclamdown" unicode="&#xa1;" horiz-adv-x="266" 
d="M191.5 515q24.5 -25 24.5 -58q0 -35 -24.5 -60t-58.5 -25t-58.5 25t-24.5 60q0 34 24.5 58.5t58.5 24.5t58.5 -25zM186 293l20 -525h-145l19 525h106z" />
    <glyph glyph-name="cent" unicode="&#xa2;" 
d="M397 229q56 12 82 53l101 -62q-50 -96 -183 -110v-110h-125v115q-99 19 -159 84t-60 167t60 167t159 84v115h125v-110q133 -14 183 -110l-101 -62q-26 41 -82 53v-274zM212.5 284.5q21.5 -32.5 59.5 -47.5v258q-38 -15 -59.5 -47.5t-21.5 -81.5t21.5 -81.5z" />
    <glyph glyph-name="sterling" unicode="&#xa3;" 
d="M304.5 181.5q-17.5 -34.5 -48.5 -57.5h334v-124h-541v110q69 40 99.5 73.5t30.5 80.5q0 14 -3 26h-127v122h76q-22 49 -22 104q0 66 30.5 118t86.5 81.5t131 29.5q68 0 119 -24t81 -63t39 -82l-121 -71q-16 53 -44.5 80t-74.5 27t-71.5 -27t-25.5 -76q0 -39 23 -97h178
v-122h-136q4 -15 4 -32q0 -42 -17.5 -76.5z" />
    <glyph glyph-name="currency" unicode="&#xa4;" horiz-adv-x="609" 
d="M509 246l80 -80l-84 -84l-81 79q-56 -32 -119 -32q-62 0 -120 33l-81 -81l-84 84l81 81q-33 53 -33 120q0 69 33 120l-81 81l84 84l81 -81q55 33 120 33q64 0 120 -32l80 80l84 -84l-79 -80q33 -57 33 -121q0 -67 -34 -120zM385.5 283.5q32.5 33.5 32.5 82.5t-32.5 83
t-81.5 34q-48 0 -80 -34t-32 -83t32 -82.5t80 -33.5q49 0 81.5 33.5z" />
    <glyph glyph-name="yen" unicode="&#xa5;" 
d="M309 497l134 235h154l-184 -313h128v-104h-162v-56h162v-104h-162v-155h-146v155h-160v104h160v56h-160v104h122l-191 313h167z" />
    <glyph glyph-name="brokenbar" unicode="&#xa6;" horiz-adv-x="230" 
d="M51 448v367h128v-367h-128zM51 -111v367h128v-367h-128z" />
    <glyph glyph-name="section" unicode="&#xa7;" horiz-adv-x="636" 
d="M508 81q42 -47 42 -118q0 -68 -38 -115t-98 -69.5t-128 -22.5q-62 0 -116.5 21t-92 59t-49.5 87l118 68q15 -47 54 -75.5t93 -28.5q46 0 75.5 18t29.5 52q0 28 -19.5 46.5t-48.5 30t-82 28.5q-71 21 -116 41.5t-77 59t-32 99.5q0 56 28 95.5t77 62.5q-42 47 -42 118
q0 69 38 115.5t98 69t128 22.5q62 0 116.5 -21t92 -59t49.5 -87l-118 -67q-15 47 -54 75t-93 28q-46 0 -75.5 -18t-29.5 -52q0 -28 19.5 -46.5t48.5 -30t81 -27.5q72 -22 116.5 -42t76.5 -58.5t32 -100.5q0 -109 -104 -158zM195 230.5q19 -18.5 48 -30t80 -27.5
q40 -12 60 -19q34 5 55.5 22.5t21.5 47.5q0 28 -19.5 47t-48 30.5t-80.5 27.5q-10 3 -28 8.5t-30 9.5q-35 -5 -56.5 -22.5t-21.5 -47.5q0 -28 19 -46.5z" />
    <glyph glyph-name="dieresis" unicode="&#xa8;" horiz-adv-x="360" 
d="M14.5 611.5q-21.5 22.5 -21.5 54.5t21.5 54.5t52.5 22.5q32 0 54 -22.5t22 -54.5t-22 -54.5t-54 -22.5q-31 0 -52.5 22.5zM239 612q-22 23 -22 54q0 32 22 54.5t53 22.5t53 -22.5t22 -54.5t-22 -54.5t-53 -22.5t-53 23z" />
    <glyph glyph-name="copyright" unicode="&#xa9;" horiz-adv-x="842" 
d="M613 695.5q87 -49.5 136.5 -136t49.5 -193.5q0 -106 -49.5 -192.5t-136.5 -136t-194 -49.5q-106 0 -192 49.5t-135.5 136t-49.5 192.5q0 107 49.5 193.5t135.5 136t192 49.5q107 0 194 -49.5zM561.5 123q64.5 37 101.5 101t37 142q0 79 -37 143t-101.5 100.5t-142.5 36.5
t-141.5 -36.5t-100 -100.5t-36.5 -143q0 -78 36.5 -142.5t100 -101t141.5 -36.5t142.5 37zM370.5 443.5q-24.5 -29.5 -24.5 -77.5t24.5 -77.5t62.5 -29.5q44 0 67 41l83 -50q-17 -43 -58.5 -66.5t-92.5 -23.5t-96.5 24t-73.5 71t-28 111t28 111t73.5 71t96.5 24t92.5 -23.5
t58.5 -66.5l-83 -50q-23 41 -67 41q-38 0 -62.5 -29.5z" />
    <glyph glyph-name="ordfeminine" unicode="&#xaa;" horiz-adv-x="435" 
d="M340 689.5q46 -49.5 46 -134.5v-219h-91q-1 21 -6 42q-34 -51 -109 -51q-63 0 -105.5 32.5t-42.5 89.5q0 58 48 94t118 36q42 0 81 -13q-3 84 -75 84q-53 0 -79 -51l-77 44q21 44 65 70t100 26q81 0 127 -49.5zM254.5 427.5q25.5 18.5 25.5 51.5v7q-41 16 -73 16
q-30 0 -47.5 -13t-17.5 -35q0 -21 15.5 -33t38.5 -12q33 0 58.5 18.5z" />
    <glyph glyph-name="guillemotleft" unicode="&#xab;" 
d="M199 34l-187 228l187 227h148l-187 -227l187 -228h-148zM442 34l-188 228l188 227h148l-188 -227l188 -228h-148z" />
    <glyph glyph-name="logicalnot" unicode="&#xac;" 
d="M434 142v194h-389v121h510v-315h-121z" />
    <glyph glyph-name="uni00AD" unicode="&#xad;" horiz-adv-x="491" 
d="M58 304v116h375v-116h-375z" />
    <glyph glyph-name="registered" unicode="&#xae;" horiz-adv-x="494" 
d="M434 418.5q-29 -49.5 -78.5 -78t-108.5 -28.5t-108.5 29t-78.5 78.5t-29 108.5t29 109t78.5 79t108.5 29t109 -29.5t78.5 -79.5t28.5 -110q0 -58 -29 -107.5zM382.5 608.5q-20.5 35.5 -56.5 56t-79 20.5q-42 0 -78 -20.5t-56.5 -56t-20.5 -78.5t20.5 -79.5t56 -58
t78.5 -21.5q62 0 106 41h-59l-54 86h-18v-86h-58v235h97q41 0 63 -20.5t22 -55.5q0 -25 -12.5 -43t-35.5 -25l60 -86q21 21 33 50.5t12 62.5q0 43 -20.5 78.5zM277.5 588.5q-9.5 6.5 -26.5 6.5h-29v-49h29q18 0 27 6.5t9 18.5q0 11 -9.5 17.5z" />
    <glyph glyph-name="macron" unicode="&#xaf;" horiz-adv-x="430" 
d="M43 616v95h342v-95h-342z" />
    <glyph glyph-name="degree" unicode="&#xb0;" horiz-adv-x="350" 
d="M29 777.5q22 38.5 60.5 61t85.5 22.5q48 0 86.5 -22.5t60.5 -61t22 -85.5t-22 -85t-60.5 -60t-86.5 -22q-47 0 -85.5 22t-60.5 60.5t-22 84.5q0 47 22 85.5zM125.5 639q19.5 -21 49.5 -21q31 0 51.5 21t20.5 53q0 33 -20.5 54.5t-51.5 21.5t-50 -21.5t-19 -54.5
q0 -32 19.5 -53z" />
    <glyph glyph-name="plusminus" unicode="&#xb1;" 
d="M239 511v160h123v-160h193v-122h-193v-161h-123v161h-194v122h194zM45 179h510v-122h-510v122z" />
    <glyph glyph-name="uni00B2" unicode="&#xb2;" horiz-adv-x="341" 
d="M159 544h158v-78h-290v59l122 128q30 31 42.5 50.5t12.5 39.5t-10.5 32t-30.5 12q-22 0 -40.5 -16t-27.5 -44l-70 40q15 48 54.5 75t91.5 27q60 0 93.5 -34.5t33.5 -86.5q0 -34 -17 -65t-60 -74z" />
    <glyph glyph-name="uni00B3" unicode="&#xb3;" horiz-adv-x="335" 
d="M311 577q0 -54 -44 -86.5t-107 -32.5q-51 0 -89 23.5t-54 67.5l71 42q9 -27 28 -40.5t44 -13.5q23 0 39.5 12.5t16.5 33.5q0 24 -22.5 36t-62.5 12h-15v73h22q31 0 49 13.5t18 33.5q0 17 -13 27.5t-34 10.5q-22 0 -40 -14t-28 -39l-68 39q15 44 53.5 69.5t88.5 25.5
q58 0 97 -32t39 -81q0 -29 -15 -51t-43 -36q69 -26 69 -93z" />
    <glyph glyph-name="acute" unicode="&#xb4;" horiz-adv-x="346" 
d="M58 583l90 165h140l-120 -165h-110z" />
    <glyph glyph-name="uni00B5" unicode="&#xb5;" horiz-adv-x="631" 
d="M629 8q-32 -20 -84 -20q-51 0 -81 23.5t-40 73.5q-23 -48 -60 -72.5t-83 -24.5t-77 22v-242h-139v750h139v-264q0 -143 92 -143q50 0 81 39t31 109v259h139v-351q0 -32 9 -45t28 -13q17 0 30 6z" />
    <glyph glyph-name="paragraph" unicode="&#xb6;" horiz-adv-x="646" 
d="M105.5 689.5q57.5 42.5 163.5 42.5h109v-732h-109v392q-106 0 -163.5 42.5t-57.5 127.5t57.5 127.5zM569 0h-110v732h110v-732z" />
    <glyph glyph-name="periodcentered" unicode="&#xb7;" horiz-adv-x="500" 
d="M191 303q-24 25 -24 60t24 59.5t58 24.5q35 0 59.5 -24.5t24.5 -59.5t-24.5 -60t-59.5 -25q-34 0 -58 25z" />
    <glyph glyph-name="cedilla" unicode="&#xb8;" horiz-adv-x="333" 
d="M113 27h93l-36 -86q47 1 78.5 -22t31.5 -65q0 -50 -42 -74t-103 -24q-32 0 -82 12v70q36 -11 77 -11q54 0 54 24q0 13 -14.5 20t-38.5 7t-56 -8l-9 47z" />
    <glyph glyph-name="uni00B9" unicode="&#xb9;" horiz-adv-x="279" 
d="M32 716v83l112 62h70v-396h-90v301z" />
    <glyph glyph-name="ordmasculine" unicode="&#xba;" horiz-adv-x="456" 
d="M55 641q28 47 74 72.5t100 25.5q53 0 99 -25t73.5 -72t27.5 -110q0 -62 -27.5 -108.5t-73.5 -71.5t-99 -25q-54 0 -100 25t-74 71.5t-28 108.5t28 109zM165 450.5q25 -30.5 63 -30.5t62.5 30.5t24.5 81.5q0 53 -24.5 83.5t-62.5 30.5q-39 0 -63.5 -30.5t-24.5 -83.5
q0 -51 25 -81.5z" />
    <glyph glyph-name="guillemotright" unicode="&#xbb;" 
d="M160 489l187 -227l-187 -228h-148l187 228l-187 227h148zM402 489l188 -227l-188 -228h-148l188 228l-188 227h148z" />
    <glyph glyph-name="onequarter" unicode="&#xbc;" horiz-adv-x="798" 
d="M32 586v84l112 62h70v-396h-90v300zM684 732l-492 -732h-98l492 732h98zM721 241v-85h58v-77h-58v-77h-86v77h-180v61l143 257h93l-135 -241h79v85h86z" />
    <glyph glyph-name="onehalf" unicode="&#xbd;" horiz-adv-x="823" 
d="M32 586v84l112 62h70v-396h-90v300zM684 732l-492 -732h-98l492 732h98zM641 80h158v-78h-290v58l122 129q30 31 42.5 50.5t12.5 39.5t-10.5 32t-30.5 12q-23 0 -41 -16.5t-27 -44.5l-70 40q15 49 54.5 76t89.5 27q60 0 94.5 -35t34.5 -87q0 -34 -17 -65t-60 -74z" />
    <glyph glyph-name="threequarters" unicode="&#xbe;" horiz-adv-x="838" 
d="M311 447q0 -54 -44 -86.5t-107 -32.5q-51 0 -89 23.5t-54 67.5l71 42q9 -27 28 -40.5t44 -13.5q23 0 39.5 12.5t16.5 33.5q0 24 -22.5 36t-62.5 12h-15v73h22q31 0 49 13.5t18 33.5q0 17 -13 27.5t-34 10.5q-22 0 -40 -14t-28 -39l-68 39q15 44 53.5 69.5t88.5 25.5
q58 0 97 -32t39 -81q0 -29 -15 -51t-43 -36q69 -26 69 -93zM724 732l-492 -732h-98l492 732h98zM762 241v-85h57v-77h-57v-77h-87v77h-180v61l143 257h93l-135 -241h79v85h87z" />
    <glyph glyph-name="questiondown" unicode="&#xbf;" horiz-adv-x="486" 
d="M318 516q24 -25 24 -59q0 -35 -24 -60t-58 -25t-59 25t-25 60t25 59.5t59 24.5t58 -25zM506 -66q-33 -86 -102.5 -132t-163.5 -46q-66 0 -119 22.5t-84 64.5t-31 99q0 41 15.5 72.5t37 53.5t58.5 52q33 28 52 46.5t32 44t13 56.5q0 18 -2 27h113q12 -39 12 -69
q0 -51 -26 -85.5t-75 -74.5q-38 -31 -56.5 -53.5t-18.5 -51.5q0 -33 25 -52t65 -19q96 0 141 112z" />
    <glyph glyph-name="Agrave" unicode="&#xc0;" horiz-adv-x="723" 
d="M182 928h144l93 -128h-113zM420 732l296 -732h-154l-64 167h-285l-62 -167h-145l287 732h127zM451 291l-98 257l-95 -257h193z" />
    <glyph glyph-name="Aacute" unicode="&#xc1;" horiz-adv-x="723" 
d="M316 800l93 128h144l-124 -128h-113zM420 732l296 -732h-154l-64 167h-285l-62 -167h-145l287 732h127zM451 291l-98 257l-95 -257h193z" />
    <glyph glyph-name="Acircumflex" unicode="&#xc2;" horiz-adv-x="723" 
d="M313 928h108l133 -129h-122l-65 66l-65 -66h-122zM420 732l296 -732h-154l-64 167h-285l-62 -167h-145l287 732h127zM451 291l-98 257l-95 -257h193z" />
    <glyph glyph-name="Atilde" unicode="&#xc3;" horiz-adv-x="723" 
d="M176 811q2 52 35 84.5t87 32.5q32 0 52.5 -9.5t41.5 -26.5q12 -9 20 -13.5t17 -4.5q27 0 35 42h95q-2 -52 -35 -84.5t-87 -32.5q-32 0 -52.5 9.5t-41.5 26.5q-12 9 -20 13.5t-17 4.5q-27 0 -35 -42h-95zM420 732l296 -732h-154l-64 167h-285l-62 -167h-145l287 732h127z
M451 291l-98 257l-95 -257h193z" />
    <glyph glyph-name="Adieresis" unicode="&#xc4;" horiz-adv-x="723" 
d="M201.5 796.5q-21.5 22.5 -21.5 54.5t21.5 54.5t52.5 22.5q32 0 54 -22.5t22 -54.5t-22 -54.5t-54 -22.5q-31 0 -52.5 22.5zM426 797q-22 23 -22 54q0 32 22 54.5t53 22.5t53 -22.5t22 -54.5t-22 -54.5t-53 -22.5t-53 23zM420 732l296 -732h-154l-64 167h-285l-62 -167
h-145l287 732h127zM451 291l-98 257l-95 -257h193z" />
    <glyph glyph-name="Aring" unicode="&#xc5;" horiz-adv-x="723" 
d="M281.5 908q34.5 20 85.5 20t84.5 -20t33.5 -51t-33.5 -51.5t-84.5 -20.5t-85.5 20.5t-34.5 51.5t34.5 51zM333.5 835.5q12.5 -8.5 33.5 -8.5q20 0 32.5 8.5t12.5 21.5t-12.5 21t-32.5 8q-21 0 -33.5 -8t-12.5 -21t12.5 -21.5zM420 732l296 -732h-154l-64 167h-285
l-62 -167h-145l287 732h127zM451 291l-98 257l-95 -257h193z" />
    <glyph glyph-name="AE" unicode="&#xc6;" horiz-adv-x="1053" 
d="M964 309h-297v-182h343v-127h-489v169h-253l-105 -169h-162l472 732h526v-126h-332v-172h297v-125zM521 293v288l-177 -288h177z" />
    <glyph glyph-name="Ccedilla" unicode="&#xc7;" horiz-adv-x="681" 
d="M481.5 149q38.5 28 61.5 78l121 -70q-24 -68 -88 -114.5t-153 -53.5l-20 -46q48 0 79 -23t31 -66q0 -49 -43 -73.5t-104 -24.5q-37 0 -80 12v70q39 -12 77 -12q54 0 54 26q0 13 -14.5 19.5t-39.5 6.5t-55 -6l-9 47l33 74q-83 14 -149 64t-103.5 130t-37.5 180
q0 112 46.5 198t127 133t177.5 47q100 0 172 -47.5t99 -121.5l-121 -70q-23 50 -61.5 78t-91.5 28q-56 0 -100 -30t-69.5 -85.5t-25.5 -129.5t25.5 -130t69.5 -86t100 -30q53 0 91.5 28z" />
    <glyph glyph-name="Egrave" unicode="&#xc8;" horiz-adv-x="608" 
d="M128 928h144l93 -128h-114zM519 309h-297v-182h343v-127h-488v732h477v-126h-332v-172h297v-125z" />
    <glyph glyph-name="Eacute" unicode="&#xc9;" horiz-adv-x="608" 
d="M261 800l93 128h145l-124 -128h-114zM519 309h-297v-182h343v-127h-488v732h477v-126h-332v-172h297v-125z" />
    <glyph glyph-name="Ecircumflex" unicode="&#xca;" horiz-adv-x="608" 
d="M258 928h109l132 -129h-121l-65 65l-65 -65h-122zM519 309h-297v-182h343v-127h-488v732h477v-126h-332v-172h297v-125z" />
    <glyph glyph-name="Edieresis" unicode="&#xcb;" horiz-adv-x="608" 
d="M147.5 820q-21.5 19 -21.5 45t21.5 44.5t52.5 18.5q32 0 54 -18.5t22 -44.5t-22 -45t-54 -19q-31 0 -52.5 19zM371.5 820q-21.5 19 -21.5 45t21.5 44.5t52.5 18.5t53.5 -18.5t22.5 -44.5t-22.5 -45t-53.5 -19t-52.5 19zM519 309h-297v-182h343v-127h-488v732h477v-126
h-332v-172h297v-125z" />
    <glyph glyph-name="Igrave" unicode="&#xcc;" horiz-adv-x="298" 
d="M-36 928h145l93 -128h-114zM222 0h-145v732h145v-732z" />
    <glyph glyph-name="Iacute" unicode="&#xcd;" horiz-adv-x="298" 
d="M98 800l93 128h144l-124 -128h-113zM222 0h-145v732h145v-732z" />
    <glyph glyph-name="Icircumflex" unicode="&#xce;" horiz-adv-x="298" 
d="M95 928h109l132 -129h-122l-64 65l-66 -65h-122zM222 0h-145v732h145v-732z" />
    <glyph glyph-name="Idieresis" unicode="&#xcf;" horiz-adv-x="298" 
d="M-15.5 820q-21.5 19 -21.5 45t21.5 44.5t51.5 18.5q32 0 54 -18.5t22 -44.5t-22 -45t-54 -19q-30 0 -51.5 19zM208.5 820q-21.5 19 -21.5 45t21.5 44.5t52.5 18.5t53 -18.5t22 -44.5t-22 -45t-53 -19t-52.5 19zM222 0h-145v732h145v-732z" />
    <glyph glyph-name="Eth" unicode="&#xd0;" horiz-adv-x="772" 
d="M349 732q107 0 193.5 -43t136.5 -125.5t50 -196.5t-50 -197t-136 -126.5t-194 -43.5h-244v309h-84v128h84v295h244zM332 124q118 0 181 63t63 180q0 115 -63.5 178.5t-180.5 63.5h-82v-172h127v-128h-127v-185h82z" />
    <glyph glyph-name="Ntilde" unicode="&#xd1;" horiz-adv-x="760" 
d="M188 811q2 52 35.5 84.5t87.5 32.5q32 0 52.5 -9.5t41.5 -26.5q12 -9 20 -13.5t17 -4.5q27 0 35 42h95q-2 -52 -35 -84.5t-87 -32.5q-32 0 -52.5 9.5t-41.5 26.5q-12 9 -20 13.5t-17 4.5q-27 0 -35 -42h-96zM194 732l355 -484v484h135v-732h-118l-356 485v-485h-133v732
h117z" />
    <glyph glyph-name="Ograve" unicode="&#xd2;" horiz-adv-x="783" 
d="M206 928h144l93 -128h-113zM88 568q46 86 125.5 131.5t177.5 45.5t177.5 -45.5t126 -131.5t46.5 -201q0 -116 -46.5 -202t-126 -131.5t-177.5 -45.5t-177.5 45.5t-125.5 131.5t-46 202q0 115 46 201zM219.5 238q24.5 -56 69 -86.5t102.5 -30.5t102.5 30.5t69 86.5
t24.5 129t-24.5 128.5t-69 86t-102.5 30.5t-102.5 -30.5t-69 -86t-24.5 -128.5t24.5 -129z" />
    <glyph glyph-name="Oacute" unicode="&#xd3;" horiz-adv-x="783" 
d="M340 800l93 128h144l-124 -128h-113zM88 568q46 86 125.5 131.5t177.5 45.5t177.5 -45.5t126 -131.5t46.5 -201q0 -116 -46.5 -202t-126 -131.5t-177.5 -45.5t-177.5 45.5t-125.5 131.5t-46 202q0 115 46 201zM219.5 238q24.5 -56 69 -86.5t102.5 -30.5t102.5 30.5
t69 86.5t24.5 129t-24.5 128.5t-69 86t-102.5 30.5t-102.5 -30.5t-69 -86t-24.5 -128.5t24.5 -129z" />
    <glyph glyph-name="Ocircumflex" unicode="&#xd4;" horiz-adv-x="783" 
d="M337 928h108l133 -129h-122l-65 65l-65 -65h-122zM88 568q46 86 125.5 131.5t177.5 45.5t177.5 -45.5t126 -131.5t46.5 -201q0 -116 -46.5 -202t-126 -131.5t-177.5 -45.5t-177.5 45.5t-125.5 131.5t-46 202q0 115 46 201zM219.5 238q24.5 -56 69 -86.5t102.5 -30.5
t102.5 30.5t69 86.5t24.5 129t-24.5 128.5t-69 86t-102.5 30.5t-102.5 -30.5t-69 -86t-24.5 -128.5t24.5 -129z" />
    <glyph glyph-name="Otilde" unicode="&#xd5;" horiz-adv-x="783" 
d="M199 811q2 52 35.5 84.5t87.5 32.5q32 0 52.5 -9.5t41.5 -26.5q13 -10 20.5 -14.5t16.5 -4.5q28 0 35 43h95q-2 -53 -35 -85.5t-87 -32.5q-32 0 -52.5 9.5t-41.5 26.5q-13 10 -20.5 14.5t-16.5 4.5q-27 0 -35 -42h-96zM88 568q46 86 125.5 131.5t177.5 45.5t177.5 -45.5
t126 -131.5t46.5 -201q0 -116 -46.5 -202t-126 -131.5t-177.5 -45.5t-177.5 45.5t-125.5 131.5t-46 202q0 115 46 201zM219.5 238q24.5 -56 69 -86.5t102.5 -30.5t102.5 30.5t69 86.5t24.5 129t-24.5 128.5t-69 86t-102.5 30.5t-102.5 -30.5t-69 -86t-24.5 -128.5t24.5 -129
z" />
    <glyph glyph-name="Odieresis" unicode="&#xd6;" horiz-adv-x="783" 
d="M225.5 820q-21.5 19 -21.5 45t21.5 44.5t52.5 18.5q32 0 54 -18.5t22 -44.5t-22 -45t-54 -19q-31 0 -52.5 19zM450 820q-22 19 -22 45t22 44.5t53 18.5t53 -18.5t22 -44.5t-22 -45t-53 -19t-53 19zM88 568q46 86 125.5 131.5t177.5 45.5t177.5 -45.5t126 -131.5
t46.5 -201q0 -116 -46.5 -202t-126 -131.5t-177.5 -45.5t-177.5 45.5t-125.5 131.5t-46 202q0 115 46 201zM219.5 238q24.5 -56 69 -86.5t102.5 -30.5t102.5 30.5t69 86.5t24.5 129t-24.5 128.5t-69 86t-102.5 30.5t-102.5 -30.5t-69 -86t-24.5 -128.5t24.5 -129z" />
    <glyph glyph-name="multiply" unicode="&#xd7;" 
d="M146 602l154 -154l154 154l86 -86l-154 -154l154 -154l-86 -86l-154 154l-154 -154l-86 86l154 154l-154 154z" />
    <glyph glyph-name="Oslash" unicode="&#xd8;" horiz-adv-x="785" 
d="M596 768h147l-94 -136q44 -50 68.5 -117.5t24.5 -147.5q0 -113 -46.5 -199t-126 -133t-176.5 -47q-89 0 -161 40l-43 -63h-147l94 136q-44 50 -68 117.5t-24 148.5q0 112 46.5 198t126 133t176.5 47q86 0 160 -40zM222 228l253 363q-36 21 -82 21q-60 0 -105.5 -30.5
t-71 -86t-25.5 -128.5q0 -79 31 -139zM562 505l-252 -363q36 -21 83 -21q59 0 104.5 30.5t70.5 86.5t25 129q0 79 -31 138z" />
    <glyph glyph-name="Ugrave" unicode="&#xd9;" horiz-adv-x="759" 
d="M194 928h144l93 -128h-113zM545 732h145v-436q0 -94 -37 -163.5t-107 -107t-166 -37.5q-97 0 -167 37.5t-107 107t-37 163.5v436h145v-401q0 -106 43.5 -158t122.5 -52q78 0 121.5 52t43.5 158v401z" />
    <glyph glyph-name="Uacute" unicode="&#xda;" horiz-adv-x="759" 
d="M328 800l93 128h144l-124 -128h-113zM545 732h145v-436q0 -94 -37 -163.5t-107 -107t-166 -37.5q-97 0 -167 37.5t-107 107t-37 163.5v436h145v-401q0 -106 43.5 -158t122.5 -52q78 0 121.5 52t43.5 158v401z" />
    <glyph glyph-name="Ucircumflex" unicode="&#xdb;" horiz-adv-x="759" 
d="M325 928h109l132 -129h-122l-64 65l-66 -65h-122zM545 732h145v-436q0 -94 -37 -163.5t-107 -107t-166 -37.5q-97 0 -167 37.5t-107 107t-37 163.5v436h145v-401q0 -106 43.5 -158t122.5 -52q78 0 121.5 52t43.5 158v401z" />
    <glyph glyph-name="Udieresis" unicode="&#xdc;" horiz-adv-x="759" 
d="M214 820q-21 19 -21 45t21.5 44.5t51.5 18.5q32 0 54 -18.5t22 -44.5t-22 -45t-54 -19q-31 0 -52 19zM438.5 820q-21.5 19 -21.5 45t21.5 44.5t52.5 18.5t53 -18.5t22 -44.5t-22 -45t-53 -19t-52.5 19zM545 732h145v-436q0 -94 -37 -163.5t-107 -107t-166 -37.5
q-97 0 -167 37.5t-107 107t-37 163.5v436h145v-401q0 -106 43.5 -158t122.5 -52q78 0 121.5 52t43.5 158v401z" />
    <glyph glyph-name="Yacute" unicode="&#xdd;" horiz-adv-x="678" 
d="M295 800l93 128h144l-124 -128h-113zM349 432l166 300h157l-255 -444v-288h-145v289l-266 443h171z" />
    <glyph glyph-name="Thorn" unicode="&#xde;" horiz-adv-x="637" 
d="M329 608q87 0 152 -30t100.5 -84.5t35.5 -127.5q0 -72 -35.5 -126.5t-100.5 -84t-152 -29.5h-107v-126h-145v732h145v-124h107zM312 249q61 0 106 27t45 90q0 60 -42 89.5t-109 29.5h-90v-236h90z" />
    <glyph glyph-name="germandbls" unicode="&#xdf;" horiz-adv-x="624" 
d="M559.5 324.5q38.5 -45.5 38.5 -120.5q0 -100 -65.5 -158t-175.5 -58q-56 0 -96 14v123q38 -16 78 -16q51 0 83 27t32 80q0 58 -42 83.5t-98 25.5h-40v116h18q59 0 89 27t30 79q0 48 -24.5 75t-69.5 27q-60 0 -86.5 -50t-26.5 -132v-467h-139v478q0 98 33.5 164t91 98
t130.5 32q68 0 121.5 -27.5t83.5 -77t30 -112.5q0 -57 -25 -99t-73 -66q64 -20 102.5 -65.5z" />
    <glyph glyph-name="agrave" unicode="&#xe0;" horiz-adv-x="564" 
d="M252 748l90 -165h-109l-121 165h140zM448 471.5q59 -59.5 59 -169.5v-302h-117q-1 8 -2.5 26.5t-4.5 32.5q-23 -36 -59.5 -53.5t-88.5 -17.5q-54 0 -98.5 19t-70.5 55.5t-26 86.5q0 52 29.5 90.5t79.5 59.5t110 21q54 0 111 -18q-3 115 -98 115q-76 0 -111 -68l-99 57
q28 58 86 91.5t136 33.5q105 0 164 -59.5zM370 210q-50 12 -87 12q-49 0 -76 -17.5t-27 -49.5q0 -29 21.5 -45t55.5 -16q45 0 79 25.5t34 70.5v20z" />
    <glyph glyph-name="aacute" unicode="&#xe1;" horiz-adv-x="564" 
d="M307 748h140l-120 -165h-110zM448 471.5q59 -59.5 59 -169.5v-302h-117q-1 8 -2.5 26.5t-4.5 32.5q-23 -36 -59.5 -53.5t-88.5 -17.5q-54 0 -98.5 19t-70.5 55.5t-26 86.5q0 52 29.5 90.5t79.5 59.5t110 21q54 0 111 -18q-3 115 -98 115q-76 0 -111 -68l-99 57
q28 58 86 91.5t136 33.5q105 0 164 -59.5zM370 210q-50 12 -87 12q-49 0 -76 -17.5t-27 -49.5q0 -29 21.5 -45t55.5 -16q45 0 79 25.5t34 70.5v20z" />
    <glyph glyph-name="acircumflex" unicode="&#xe2;" horiz-adv-x="564" 
d="M340 583l-61 79l-61 -79h-119l128 165h104l128 -165h-119zM448 471.5q59 -59.5 59 -169.5v-302h-117q-1 8 -2.5 26.5t-4.5 32.5q-23 -36 -59.5 -53.5t-88.5 -17.5q-54 0 -98.5 19t-70.5 55.5t-26 86.5q0 52 29.5 90.5t79.5 59.5t110 21q54 0 111 -18q-3 115 -98 115
q-76 0 -111 -68l-99 57q28 58 86 91.5t136 33.5q105 0 164 -59.5zM370 210q-50 12 -87 12q-49 0 -76 -17.5t-27 -49.5q0 -29 21.5 -45t55.5 -16q45 0 79 25.5t34 70.5v20z" />
    <glyph glyph-name="atilde" unicode="&#xe3;" horiz-adv-x="564" 
d="M183 599h-95q2 66 35 107.5t87 41.5q33 0 53 -12t42 -34q12 -12 19.5 -17.5t16.5 -5.5q27 0 36 54h95q-2 -66 -35.5 -107.5t-87.5 -41.5q-32 0 -52.5 12t-40.5 32q-13 13 -21 18.5t-17 5.5q-27 0 -35 -53zM448 471.5q59 -59.5 59 -169.5v-302h-117q-1 8 -2.5 26.5
t-4.5 32.5q-23 -36 -59.5 -53.5t-88.5 -17.5q-54 0 -98.5 19t-70.5 55.5t-26 86.5q0 52 29.5 90.5t79.5 59.5t110 21q54 0 111 -18q-3 115 -98 115q-76 0 -111 -68l-99 57q28 58 86 91.5t136 33.5q105 0 164 -59.5zM370 210q-50 12 -87 12q-49 0 -76 -17.5t-27 -49.5
q0 -29 21.5 -45t55.5 -16q45 0 79 25.5t34 70.5v20z" />
    <glyph glyph-name="adieresis" unicode="&#xe4;" horiz-adv-x="564" 
d="M115 611q-22 23 -22 54q0 32 21.5 54.5t52.5 22.5q32 0 54 -22.5t22 -54.5q0 -31 -22 -54t-54 -23q-30 0 -52 23zM338.5 611q-21.5 23 -21.5 54q0 32 21.5 54.5t52.5 22.5t53.5 -22.5t22.5 -54.5q0 -31 -22.5 -54t-53.5 -23t-52.5 23zM448 471.5q59 -59.5 59 -169.5v-302
h-117q-1 8 -2.5 26.5t-4.5 32.5q-23 -36 -59.5 -53.5t-88.5 -17.5q-54 0 -98.5 19t-70.5 55.5t-26 86.5q0 52 29.5 90.5t79.5 59.5t110 21q54 0 111 -18q-3 115 -98 115q-76 0 -111 -68l-99 57q28 58 86 91.5t136 33.5q105 0 164 -59.5zM370 210q-50 12 -87 12
q-49 0 -76 -17.5t-27 -49.5q0 -29 21.5 -45t55.5 -16q45 0 79 25.5t34 70.5v20z" />
    <glyph glyph-name="aring" unicode="&#xe5;" horiz-adv-x="564" 
d="M193.5 604q-34.5 33 -34.5 85t34.5 85.5t86.5 33.5q51 0 84.5 -33.5t33.5 -85.5t-33.5 -85t-84.5 -33q-52 0 -86.5 33zM246.5 724.5q-12.5 -13.5 -12.5 -35.5q0 -21 12.5 -34.5t33.5 -13.5q20 0 32 13.5t12 34.5q0 22 -12 35.5t-32 13.5q-21 0 -33.5 -13.5zM448 471.5
q59 -59.5 59 -169.5v-302h-117q-1 8 -2.5 26.5t-4.5 32.5q-23 -36 -59.5 -53.5t-88.5 -17.5q-54 0 -98.5 19t-70.5 55.5t-26 86.5q0 52 29.5 90.5t79.5 59.5t110 21q54 0 111 -18q-3 115 -98 115q-76 0 -111 -68l-99 57q28 58 86 91.5t136 33.5q105 0 164 -59.5zM370 210
q-50 12 -87 12q-49 0 -76 -17.5t-27 -49.5q0 -29 21.5 -45t55.5 -16q45 0 79 25.5t34 70.5v20z" />
    <glyph glyph-name="ae" unicode="&#xe6;" horiz-adv-x="892" 
d="M755 500.5q52 -30.5 81 -86t29 -127.5q0 -32 -6 -65h-344q9 -58 42 -87.5t82 -29.5q35 0 62 15.5t42 46.5l103 -60q-22 -57 -81 -88t-132 -31q-61 0 -110 24t-81 70q-51 -94 -187 -94q-94 0 -154.5 43t-60.5 118q0 52 28.5 90.5t78.5 59.5t111 21q55 0 114 -18
q-6 115 -103 115q-73 0 -108 -69l-99 58q23 58 80 91.5t132 33.5q61 0 105 -22.5t70 -64.5q33 43 81.5 65t104.5 22q68 0 120 -30.5zM723 319q-4 48 -30.5 73.5t-66.5 25.5q-41 0 -70.5 -26t-39.5 -73h207zM373 210q-52 12 -92 12q-49 0 -75 -17.5t-26 -47.5t23 -46.5
t59 -16.5q46 0 78.5 25.5t32.5 70.5v20z" />
    <glyph glyph-name="ccedilla" unicode="&#xe7;" horiz-adv-x="502" 
d="M394 168l106 -62q-22 -50 -66 -79.5t-102 -36.5l-20 -47q48 0 79.5 -23t31.5 -66q0 -50 -42 -74t-104 -24q-39 0 -82 12v71q41 -12 77 -12q54 0 54 25q0 13 -14.5 20t-38.5 7q-23 0 -55 -8l-9 47l32 76q-58 11 -104.5 45.5t-74 90.5t-27.5 129q0 86 37 147.5t97 93
t129 31.5t123 -30t79 -88l-106 -62q-35 58 -96 58q-54 0 -86.5 -40.5t-32.5 -109.5q0 -68 33 -109t86 -41q60 0 96 59z" />
    <glyph glyph-name="egrave" unicode="&#xe8;" horiz-adv-x="557" 
d="M124 748h140l90 -165h-109zM417.5 500.5q53.5 -30.5 83 -86t29.5 -127.5q0 -32 -6 -65h-344q9 -58 42 -87.5t82 -29.5q35 0 62.5 15.5t42.5 46.5l102 -60q-21 -57 -80.5 -88t-132.5 -31q-70 0 -130 31t-96.5 93t-36.5 149q0 86 36.5 147t95.5 92t128 31t122.5 -30.5z
M221 392q-29 -26 -39 -73h206q-4 48 -30.5 73.5t-66.5 25.5q-41 0 -70 -26z" />
    <glyph glyph-name="eacute" unicode="&#xe9;" horiz-adv-x="557" 
d="M229 583l90 165h140l-120 -165h-110zM417.5 500.5q53.5 -30.5 83 -86t29.5 -127.5q0 -32 -6 -65h-344q9 -58 42 -87.5t82 -29.5q35 0 62.5 15.5t42.5 46.5l102 -60q-21 -57 -80.5 -88t-132.5 -31q-70 0 -130 31t-96.5 93t-36.5 149q0 86 36.5 147t95.5 92t128 31
t122.5 -30.5zM221 392q-29 -26 -39 -73h206q-4 48 -30.5 73.5t-66.5 25.5q-41 0 -70 -26z" />
    <glyph glyph-name="ecircumflex" unicode="&#xea;" horiz-adv-x="557" 
d="M239 748h104l128 -165h-119l-61 79l-61 -79h-119zM417.5 500.5q53.5 -30.5 83 -86t29.5 -127.5q0 -32 -6 -65h-344q9 -58 42 -87.5t82 -29.5q35 0 62.5 15.5t42.5 46.5l102 -60q-21 -57 -80.5 -88t-132.5 -31q-70 0 -130 31t-96.5 93t-36.5 149q0 86 36.5 147t95.5 92
t128 31t122.5 -30.5zM221 392q-29 -26 -39 -73h206q-4 48 -30.5 73.5t-66.5 25.5q-41 0 -70 -26z" />
    <glyph glyph-name="edieresis" unicode="&#xeb;" horiz-adv-x="557" 
d="M127 611q-22 23 -22 54q0 32 21.5 54.5t52.5 22.5q32 0 54 -22.5t22 -54.5q0 -31 -22 -54t-54 -23q-30 0 -52 23zM351 611q-22 23 -22 54q0 32 22 54.5t53 22.5t53 -22.5t22 -54.5q0 -31 -22 -54t-53 -23t-53 23zM417.5 500.5q53.5 -30.5 83 -86t29.5 -127.5
q0 -32 -6 -65h-344q9 -58 42 -87.5t82 -29.5q35 0 62.5 15.5t42.5 46.5l102 -60q-21 -57 -80.5 -88t-132.5 -31q-70 0 -130 31t-96.5 93t-36.5 149q0 86 36.5 147t95.5 92t128 31t122.5 -30.5zM221 392q-29 -26 -39 -73h206q-4 48 -30.5 73.5t-66.5 25.5q-41 0 -70 -26z" />
    <glyph glyph-name="igrave" unicode="&#xec;" horiz-adv-x="268" 
d="M-33 748h140l90 -165h-109zM65 0v518h139v-518h-139z" />
    <glyph glyph-name="iacute" unicode="&#xed;" horiz-adv-x="268" 
d="M72 583l90 165h140l-120 -165h-110zM65 0v518h139v-518h-139z" />
    <glyph glyph-name="icircumflex" unicode="&#xee;" horiz-adv-x="268" 
d="M82 748h104l128 -165h-119l-61 79l-61 -79h-119zM65 0v518h139v-518h-139z" />
    <glyph glyph-name="idieresis" unicode="&#xef;" horiz-adv-x="268" 
d="M-30.5 611.5q-21.5 22.5 -21.5 54.5t21.5 54.5t52.5 22.5q32 0 54 -22.5t22 -54.5t-22 -54.5t-54 -22.5q-31 0 -52.5 22.5zM193.5 612q-21.5 23 -21.5 54q0 32 21.5 54.5t52.5 22.5t53.5 -22.5t22.5 -54.5t-22.5 -54.5t-53.5 -22.5t-52.5 23zM65 0v518h139v-518h-139z
" />
    <glyph glyph-name="eth" unicode="&#xf0;" horiz-adv-x="600" 
d="M401 643q80 -74 122 -167t42 -195q0 -92 -36 -158.5t-96 -100.5t-132 -34t-133 32.5t-97 92.5t-36 139q0 78 36.5 138t96 92.5t125.5 32.5q42 0 75 -18q-30 44 -80 83l-140 -77l-41 79l96 53q-48 25 -94 41l66 98q84 -30 149 -72l130 72l43 -79zM387 143.5
q33 40.5 33 107.5t-33.5 107t-85.5 40q-53 0 -87.5 -40t-34.5 -107t34.5 -107.5t87.5 -40.5t86 40.5z" />
    <glyph glyph-name="ntilde" unicode="&#xf1;" horiz-adv-x="604" 
d="M114 599q2 66 35.5 107.5t87.5 41.5q32 0 52.5 -11.5t40.5 -32.5q13 -12 21 -18t17 -6q26 0 35 53h95q-2 -67 -35.5 -108t-87.5 -41q-32 0 -52.5 12t-40.5 33q-12 12 -20.5 18t-17.5 6q-26 0 -35 -54h-95zM498 474.5q50 -56.5 50 -164.5v-310h-139v265q0 142 -94 142
q-50 0 -80.5 -38.5t-30.5 -108.5v-260h-139v518h122q5 -61 9 -83q50 96 166 96q86 0 136 -56.5z" />
    <glyph glyph-name="ograve" unicode="&#xf2;" 
d="M133 748h140l90 -165h-109zM71.5 402q36.5 62 97.5 95.5t132 33.5q70 0 130.5 -33.5t97 -95.5t36.5 -143t-36.5 -143t-97 -95t-130.5 -33q-71 0 -132 33t-97.5 95t-36.5 143t36.5 143zM213.5 149.5q34.5 -40.5 86.5 -40.5t86 40.5t34 109.5t-34 110t-86 41t-86.5 -41
t-34.5 -110t34.5 -109.5z" />
    <glyph glyph-name="oacute" unicode="&#xf3;" 
d="M239 583l89 165h140l-120 -165h-109zM71.5 402q36.5 62 97.5 95.5t132 33.5q70 0 130.5 -33.5t97 -95.5t36.5 -143t-36.5 -143t-97 -95t-130.5 -33q-71 0 -132 33t-97.5 95t-36.5 143t36.5 143zM213.5 149.5q34.5 -40.5 86.5 -40.5t86 40.5t34 109.5t-34 110t-86 41
t-86.5 -41t-34.5 -110t34.5 -109.5z" />
    <glyph glyph-name="ocircumflex" unicode="&#xf4;" 
d="M248 748h104l129 -165h-120l-60 79l-62 -79h-119zM71.5 402q36.5 62 97.5 95.5t132 33.5q70 0 130.5 -33.5t97 -95.5t36.5 -143t-36.5 -143t-97 -95t-130.5 -33q-71 0 -132 33t-97.5 95t-36.5 143t36.5 143zM213.5 149.5q34.5 -40.5 86.5 -40.5t86 40.5t34 109.5t-34 110
t-86 41t-86.5 -41t-34.5 -110t34.5 -109.5z" />
    <glyph glyph-name="otilde" unicode="&#xf5;" 
d="M109 599q2 66 35.5 107.5t87.5 41.5q32 0 52.5 -12t40.5 -33q13 -13 21 -18.5t17 -5.5q26 0 35 54h95q-2 -66 -35.5 -107.5t-87.5 -41.5q-32 0 -52.5 12t-40.5 32q-13 13 -21 18.5t-17 5.5q-26 0 -35 -53h-95zM71.5 402q36.5 62 97.5 95.5t132 33.5q70 0 130.5 -33.5
t97 -95.5t36.5 -143t-36.5 -143t-97 -95t-130.5 -33q-71 0 -132 33t-97.5 95t-36.5 143t36.5 143zM213.5 149.5q34.5 -40.5 86.5 -40.5t86 40.5t34 109.5t-34 110t-86 41t-86.5 -41t-34.5 -110t34.5 -109.5z" />
    <glyph glyph-name="odieresis" unicode="&#xf6;" 
d="M136 611q-22 23 -22 54q0 32 21.5 54.5t52.5 22.5q32 0 54 -22.5t22 -54.5q0 -31 -22 -54t-54 -23q-30 0 -52 23zM360 611q-22 23 -22 54q0 32 22 54.5t53 22.5t53 -22.5t22 -54.5q0 -31 -22 -54t-53 -23t-53 23zM71.5 402q36.5 62 97.5 95.5t132 33.5q70 0 130.5 -33.5
t97 -95.5t36.5 -143t-36.5 -143t-97 -95t-130.5 -33q-71 0 -132 33t-97.5 95t-36.5 143t36.5 143zM213.5 149.5q34.5 -40.5 86.5 -40.5t86 40.5t34 109.5t-34 110t-86 41t-86.5 -41t-34.5 -110t34.5 -109.5z" />
    <glyph glyph-name="divide" unicode="&#xf7;" 
d="M241.5 504q-24.5 25 -24.5 60t24.5 60t58.5 25q35 0 59.5 -25t24.5 -60t-25 -60t-59 -25t-58.5 25zM555 301h-510v122h510v-122zM241.5 100q-24.5 25 -24.5 60t24.5 60t58.5 25q35 0 59.5 -25t24.5 -60t-25 -60t-59 -25t-58.5 25z" />
    <glyph glyph-name="oslash" unicode="&#xf8;" horiz-adv-x="597" 
d="M447 553h118l-72 -103q34 -36 53 -84.5t19 -106.5q0 -81 -36.5 -143t-97 -95t-130.5 -33q-59 0 -114 25l-34 -48h-118l73 104q-35 35 -54 83.5t-19 106.5q0 81 36.5 143t97.5 95.5t132 33.5q58 0 113 -25zM188 183l152 219q-18 8 -39 8q-56 0 -93 -41t-37 -110
q0 -44 17 -76zM412 336l-152 -218q18 -9 41 -9q55 0 91 40.5t36 109.5q0 46 -16 77z" />
    <glyph glyph-name="ugrave" unicode="&#xf9;" horiz-adv-x="604" 
d="M133 748h140l90 -165h-110zM400 518h139v-518h-123q-4 60 -8 81q-26 -47 -68 -70t-96 -23q-87 0 -137 56t-50 164v310h139v-264q0 -143 92 -143q50 0 81 39t31 109v259z" />
    <glyph glyph-name="uacute" unicode="&#xfa;" horiz-adv-x="604" 
d="M238 583l90 165h140l-121 -165h-109zM400 518h139v-518h-123q-4 60 -8 81q-26 -47 -68 -70t-96 -23q-87 0 -137 56t-50 164v310h139v-264q0 -143 92 -143q50 0 81 39t31 109v259z" />
    <glyph glyph-name="ucircumflex" unicode="&#xfb;" horiz-adv-x="604" 
d="M248 748h104l128 -165h-120l-60 79l-61 -79h-120zM400 518h139v-518h-123q-4 60 -8 81q-26 -47 -68 -70t-96 -23q-87 0 -137 56t-50 164v310h139v-264q0 -143 92 -143q50 0 81 39t31 109v259z" />
    <glyph glyph-name="udieresis" unicode="&#xfc;" horiz-adv-x="604" 
d="M135.5 611.5q-21.5 22.5 -21.5 54.5t21.5 54.5t52.5 22.5q32 0 54 -22.5t22 -54.5t-22 -54.5t-54 -22.5q-31 0 -52.5 22.5zM359.5 612q-21.5 23 -21.5 54q0 32 21.5 54.5t52.5 22.5t53.5 -22.5t22.5 -54.5t-22.5 -54.5t-53.5 -22.5t-52.5 23zM400 518h139v-518h-123
q-4 60 -8 81q-26 -47 -68 -70t-96 -23q-87 0 -137 56t-50 164v310h139v-264q0 -143 92 -143q50 0 81 39t31 109v259z" />
    <glyph glyph-name="yacute" unicode="&#xfd;" horiz-adv-x="569" 
d="M314 748h140l-120 -165h-109zM420 518h145l-233 -586q-37 -93 -86.5 -134.5t-123.5 -41.5q-36 0 -67.5 10.5t-54.5 28.5l55 106q30 -22 66 -22q23 0 39.5 9.5t31.5 33t35 69.5l-225 527h156l137 -357z" />
    <glyph glyph-name="thorn" unicode="&#xfe;" horiz-adv-x="630" 
d="M477.5 499q53.5 -32 85 -94t31.5 -146t-31.5 -145.5t-85 -93.5t-116.5 -32q-48 0 -89 19t-68 58v-297h-139v993h139v-308q28 39 68.5 58.5t88.5 19.5q63 0 116.5 -32zM416.5 150.5q33.5 39.5 33.5 108.5q0 71 -33 112t-88 41q-52 0 -88.5 -38.5t-36.5 -114.5
q0 -75 36 -111.5t89 -36.5q54 0 87.5 39.5z" />
    <glyph glyph-name="ydieresis" unicode="&#xff;" horiz-adv-x="569" 
d="M121.5 611.5q-21.5 22.5 -21.5 54.5t21.5 54.5t52.5 22.5q32 0 54 -22.5t22 -54.5t-22 -54.5t-54 -22.5q-31 0 -52.5 22.5zM346 612q-22 23 -22 54q0 32 22 54.5t53 22.5t53 -22.5t22 -54.5t-22 -54.5t-53 -22.5t-53 23zM420 518h145l-233 -586q-37 -93 -86.5 -134.5
t-123.5 -41.5q-36 0 -67.5 10.5t-54.5 28.5l55 106q30 -22 66 -22q23 0 39.5 9.5t31.5 33t35 69.5l-225 527h156l137 -357z" />
    <glyph glyph-name="Amacron" unicode="&#x100;" horiz-adv-x="723" 
d="M196 831v95h342v-95h-342zM420 732l296 -732h-154l-64 167h-285l-62 -167h-145l287 732h127zM451 291l-98 257l-95 -257h193z" />
    <glyph glyph-name="amacron" unicode="&#x101;" horiz-adv-x="564" 
d="M109 711h342v-95h-342v95zM448 471.5q59 -59.5 59 -169.5v-302h-117q-1 8 -2.5 26.5t-4.5 32.5q-23 -36 -59.5 -53.5t-88.5 -17.5q-54 0 -98.5 19t-70.5 55.5t-26 86.5q0 52 29.5 90.5t79.5 59.5t110 21q54 0 111 -18q-3 115 -98 115q-76 0 -111 -68l-99 57
q28 58 86 91.5t136 33.5q105 0 164 -59.5zM370 210q-50 12 -87 12q-49 0 -76 -17.5t-27 -49.5q0 -29 21.5 -45t55.5 -16q45 0 79 25.5t34 70.5v20z" />
    <glyph glyph-name="Abreve" unicode="&#x102;" horiz-adv-x="723" 
d="M239.5 833.5q-47.5 34.5 -47.5 94.5h108q3 -29 20 -45t47 -16q61 0 69 61h108q0 -60 -47.5 -94.5t-129.5 -34.5q-80 0 -127.5 34.5zM420 732l296 -732h-154l-64 167h-285l-62 -167h-145l287 732h127zM451 291l-98 257l-95 -257h193z" />
    <glyph glyph-name="abreve" unicode="&#x103;" horiz-adv-x="564" 
d="M151 626.5q-49 44.5 -49 120.5h109q7 -78 69 -78q63 0 69 78h109q0 -76 -48.5 -120.5t-129.5 -44.5q-80 0 -129 44.5zM448 471.5q59 -59.5 59 -169.5v-302h-117q-1 8 -2.5 26.5t-4.5 32.5q-23 -36 -59.5 -53.5t-88.5 -17.5q-54 0 -98.5 19t-70.5 55.5t-26 86.5
q0 52 29.5 90.5t79.5 59.5t110 21q54 0 111 -18q-3 115 -98 115q-76 0 -111 -68l-99 57q28 58 86 91.5t136 33.5q105 0 164 -59.5zM370 210q-50 12 -87 12q-49 0 -76 -17.5t-27 -49.5q0 -29 21.5 -45t55.5 -16q45 0 79 25.5t34 70.5v20z" />
    <glyph glyph-name="Aogonek" unicode="&#x104;" horiz-adv-x="723" 
d="M779 -193q-26 -26 -57 -38.5t-74 -12.5q-60 0 -99.5 27t-39.5 82q0 40 20.5 72.5t57.5 62.5h-25l-64 167h-285l-62 -167h-145l287 732h127l296 -732q-56 -31 -82 -58.5t-26 -57.5q0 -24 14 -35.5t37 -11.5q40 0 74 34zM353 548l-95 -257h193z" />
    <glyph glyph-name="aogonek" unicode="&#x105;" horiz-adv-x="564" 
d="M569 -189q-25 -27 -56.5 -41t-73.5 -14q-61 0 -100 29.5t-39 85.5q0 42 23.5 76t65.5 64q-1 24 -6 48q-23 -36 -59.5 -53.5t-88.5 -17.5q-54 0 -98.5 19t-70.5 55.5t-26 86.5q0 52 29.5 90.5t79.5 59.5t110 21q54 0 111 -18q-4 115 -98 115q-76 0 -111 -68l-99 57
q28 58 86 91.5t136 33.5q105 0 164 -59.5t59 -169.5v-302q-55 -29 -81.5 -55.5t-26.5 -57.5q0 -44 49 -44q42 0 77 35zM370 210q-50 12 -87 12q-49 0 -76 -17.5t-27 -49.5q0 -29 21.5 -45t55.5 -16q45 0 79 25.5t34 70.5v20z" />
    <glyph glyph-name="Cacute" unicode="&#x106;" horiz-adv-x="681" 
d="M313 800l93 128h145l-124 -128h-114zM481.5 149q38.5 28 61.5 78l121 -70q-27 -74 -99 -121.5t-172 -47.5q-97 0 -177 47t-127 133.5t-47 198.5t46.5 198t127 133t177.5 47q100 0 172 -47.5t99 -121.5l-121 -70q-23 50 -61.5 78t-91.5 28q-56 0 -100 -30t-69.5 -85.5
t-25.5 -129.5t25.5 -130t69.5 -86t100 -30q53 0 91.5 28z" />
    <glyph glyph-name="cacute" unicode="&#x107;" horiz-adv-x="502" 
d="M222 583l90 165h140l-121 -165h-109zM394 168l106 -62q-25 -58 -79 -88t-123 -30t-129 31.5t-97 93t-37 146.5q0 86 37 147.5t97 93t129 31.5t123 -30t79 -88l-106 -62q-35 58 -96 58q-54 0 -86.5 -40.5t-32.5 -109.5q0 -68 33 -109t86 -41q60 0 96 59z" />
    <glyph glyph-name="Ccircumflex" unicode="&#x108;" horiz-adv-x="681" 
d="M310 928h109l132 -129h-121l-65 65l-65 -65h-122zM481.5 149q38.5 28 61.5 78l121 -70q-27 -74 -99 -121.5t-172 -47.5q-97 0 -177 47t-127 133.5t-47 198.5t46.5 198t127 133t177.5 47q100 0 172 -47.5t99 -121.5l-121 -70q-23 50 -61.5 78t-91.5 28q-56 0 -100 -30
t-69.5 -85.5t-25.5 -129.5t25.5 -130t69.5 -86t100 -30q53 0 91.5 28z" />
    <glyph glyph-name="ccircumflex" unicode="&#x109;" horiz-adv-x="502" 
d="M232 748h104l128 -165h-119l-61 79l-61 -79h-120zM394 168l106 -62q-25 -58 -79 -88t-123 -30t-129 31.5t-97 93t-37 146.5q0 86 37 147.5t97 93t129 31.5t123 -30t79 -88l-106 -62q-35 58 -96 58q-54 0 -86.5 -40.5t-32.5 -109.5q0 -68 33 -109t86 -41q60 0 96 59z" />
    <glyph glyph-name="Cdotaccent" unicode="&#x10a;" horiz-adv-x="681" 
d="M313 820q-22 19 -22 45t21.5 44.5t52.5 18.5q32 0 54 -18.5t22 -44.5t-22.5 -45t-53.5 -19q-30 0 -52 19zM481.5 149q38.5 28 61.5 78l121 -70q-27 -74 -99 -121.5t-172 -47.5q-97 0 -177 47t-127 133.5t-47 198.5t46.5 198t127 133t177.5 47q100 0 172 -47.5t99 -121.5
l-121 -70q-23 50 -61.5 78t-91.5 28q-56 0 -100 -30t-69.5 -85.5t-25.5 -129.5t25.5 -130t69.5 -86t100 -30q53 0 91.5 28z" />
    <glyph glyph-name="cdotaccent" unicode="&#x10b;" horiz-adv-x="502" 
d="M226.5 609.5q-24.5 25.5 -24.5 59.5q0 35 24.5 60t58.5 25q33 0 58 -25.5t25 -59.5t-24.5 -59.5t-58.5 -25.5t-58.5 25.5zM394 168l106 -62q-25 -58 -79 -88t-123 -30t-129 31.5t-97 93t-37 146.5q0 86 37 147.5t97 93t129 31.5t123 -30t79 -88l-106 -62q-35 58 -96 58
q-54 0 -86.5 -40.5t-32.5 -109.5q0 -68 33 -109t86 -41q60 0 96 59z" />
    <glyph glyph-name="Ccaron" unicode="&#x10c;" horiz-adv-x="681" 
d="M300 928l65 -65l65 65h121l-132 -129h-109l-132 129h122zM481.5 149q38.5 28 61.5 78l121 -70q-27 -74 -99 -121.5t-172 -47.5q-97 0 -177 47t-127 133.5t-47 198.5t46.5 198t127 133t177.5 47q100 0 172 -47.5t99 -121.5l-121 -70q-23 50 -61.5 78t-91.5 28
q-56 0 -100 -30t-69.5 -85.5t-25.5 -129.5t25.5 -130t69.5 -86t100 -30q53 0 91.5 28z" />
    <glyph glyph-name="ccaron" unicode="&#x10d;" horiz-adv-x="502" 
d="M224 748l61 -79l60 79h119l-128 -165h-104l-128 165h120zM394 168l106 -62q-25 -58 -79 -88t-123 -30t-129 31.5t-97 93t-37 146.5q0 86 37 147.5t97 93t129 31.5t123 -30t79 -88l-106 -62q-35 58 -96 58q-54 0 -86.5 -40.5t-32.5 -109.5q0 -68 33 -109t86 -41
q60 0 96 59z" />
    <glyph glyph-name="Dcaron" unicode="&#x10e;" horiz-adv-x="743" 
d="M248 928l66 -65l65 65h121l-132 -129h-109l-132 129h121zM321 732q107 0 193.5 -43t136.5 -125.5t50 -196.5t-50 -197t-136 -126.5t-194 -43.5h-244v732h244zM304 124q118 0 181 63t63 180q0 115 -63.5 178.5t-180.5 63.5h-82v-485h82z" />
    <glyph glyph-name="dcaron" unicode="&#x10f;" horiz-adv-x="685" 
d="M712 743q19 -22 19 -68q0 -63 -35 -100t-93 -46v57q51 11 61 48h-4q-26 0 -42.5 19t-16.5 48q0 30 17.5 47t44.5 17q30 0 49 -22zM425 761h139v-761h-122q-5 58 -8 78q-27 -45 -70.5 -67.5t-94.5 -22.5q-64 0 -117 32t-85 93.5t-32 145.5q0 85 32 146.5t85 93.5t117 32
q47 0 87.5 -19t68.5 -58v307zM389 145q36 38 36 114q0 75 -36 111.5t-88 36.5q-55 0 -88.5 -39t-33.5 -109t33.5 -111t88.5 -41q52 0 88 38z" />
    <glyph glyph-name="Dcroat" unicode="&#x110;" horiz-adv-x="772" 
d="M349 732q107 0 193.5 -43t136.5 -125.5t50 -196.5t-50 -197t-136 -126.5t-194 -43.5h-244v309h-84v128h84v295h244zM332 124q118 0 181 63t63 180q0 115 -63.5 178.5t-180.5 63.5h-82v-172h127v-128h-127v-185h82z" />
    <glyph glyph-name="dcroat" unicode="&#x111;" horiz-adv-x="629" 
d="M564 675h74v-99h-74v-576h-122q-5 58 -8 78q-27 -45 -70.5 -67.5t-94.5 -22.5q-64 0 -117 32t-85 93.5t-32 145.5q0 85 32 146.5t85 93.5t117 32q47 0 87.5 -19t68.5 -58v122h-119v99h119v86h139v-86zM389 145q36 38 36 114q0 75 -36 111.5t-88 36.5q-55 0 -88.5 -39
t-33.5 -109t33.5 -111t88.5 -41q52 0 88 38z" />
    <glyph glyph-name="Emacron" unicode="&#x112;" horiz-adv-x="608" 
d="M142 831v95h342v-95h-342zM519 309h-297v-182h343v-127h-488v732h477v-126h-332v-172h297v-125z" />
    <glyph glyph-name="emacron" unicode="&#x113;" horiz-adv-x="557" 
d="M121 616v95h342v-95h-342zM417.5 500.5q53.5 -30.5 83 -86t29.5 -127.5q0 -32 -6 -65h-344q9 -58 42 -87.5t82 -29.5q35 0 62.5 15.5t42.5 46.5l102 -60q-21 -57 -80.5 -88t-132.5 -31q-70 0 -130 31t-96.5 93t-36.5 149q0 86 36.5 147t95.5 92t128 31t122.5 -30.5z
M221 392q-29 -26 -39 -73h206q-4 48 -30.5 73.5t-66.5 25.5q-41 0 -70 -26z" />
    <glyph glyph-name="Ebreve" unicode="&#x114;" horiz-adv-x="608" 
d="M185 833q-48 35 -48 95h109q3 -29 20 -45t47 -16q62 0 68 61h109q0 -60 -48 -95t-129 -35q-80 0 -128 35zM519 309h-297v-182h343v-127h-488v732h477v-126h-332v-172h297v-125z" />
    <glyph glyph-name="ebreve" unicode="&#x115;" horiz-adv-x="557" 
d="M163 626.5q-49 44.5 -49 120.5h109q3 -37 20.5 -57.5t48.5 -20.5q62 0 70 78h108q0 -76 -48.5 -120.5t-129.5 -44.5q-80 0 -129 44.5zM417.5 500.5q53.5 -30.5 83 -86t29.5 -127.5q0 -32 -6 -65h-344q9 -58 42 -87.5t82 -29.5q35 0 62.5 15.5t42.5 46.5l102 -60
q-21 -57 -80.5 -88t-132.5 -31q-70 0 -130 31t-96.5 93t-36.5 149q0 86 36.5 147t95.5 92t128 31t122.5 -30.5zM221 392q-29 -26 -39 -73h206q-4 48 -30.5 73.5t-66.5 25.5q-41 0 -70 -26z" />
    <glyph glyph-name="Edotaccent" unicode="&#x116;" horiz-adv-x="608" 
d="M261 820q-22 19 -22 45t21.5 44.5t52.5 18.5q32 0 54 -18.5t22 -44.5t-22.5 -45t-53.5 -19q-30 0 -52 19zM519 309h-297v-182h343v-127h-488v732h477v-126h-332v-172h297v-125z" />
    <glyph glyph-name="edotaccent" unicode="&#x117;" horiz-adv-x="557" 
d="M233.5 609q-24.5 25 -24.5 59q0 35 24.5 60t58.5 25t58.5 -25t24.5 -60q0 -34 -24.5 -59t-58.5 -25t-58.5 25zM417.5 500.5q53.5 -30.5 83 -86t29.5 -127.5q0 -32 -6 -65h-344q9 -58 42 -87.5t82 -29.5q35 0 62.5 15.5t42.5 46.5l102 -60q-21 -57 -80.5 -88t-132.5 -31
q-70 0 -130 31t-96.5 93t-36.5 149q0 86 36.5 147t95.5 92t128 31t122.5 -30.5zM221 392q-29 -26 -39 -73h206q-4 48 -30.5 73.5t-66.5 25.5q-41 0 -70 -26z" />
    <glyph glyph-name="Eogonek" unicode="&#x118;" horiz-adv-x="608" 
d="M628 -194q-26 -25 -57 -37.5t-74 -12.5q-60 0 -99.5 27t-39.5 82q0 75 79 135h-360v732h477v-126h-332v-172h297v-125h-297v-182h343v-127q-56 -31 -82 -58.5t-26 -58.5q0 -23 14 -34.5t37 -11.5q40 0 74 34z" />
    <glyph glyph-name="eogonek" unicode="&#x119;" horiz-adv-x="557" 
d="M417.5 500.5q53.5 -30.5 83 -86t29.5 -127.5q0 -32 -6 -65h-344q9 -58 42 -87.5t82 -29.5q35 0 62.5 15.5t42.5 46.5l102 -60q-17 -45 -62 -77q-72 -53 -98 -81t-26 -59q0 -46 53 -46q36 0 72 31l46 -66q-51 -53 -130 -53q-61 0 -100 27.5t-39 84.5q0 34 15 62.5t44 57.5
q-68 3 -125 35t-91.5 93t-34.5 145q0 86 36.5 147t95.5 92t128 31t122.5 -30.5zM388 319q-4 48 -30.5 73.5t-66.5 25.5q-41 0 -70 -26t-39 -73h206z" />
    <glyph glyph-name="Ecaron" unicode="&#x11a;" horiz-adv-x="608" 
d="M248 928l65 -65l65 65h121l-132 -129h-109l-132 129h122zM519 309h-297v-182h343v-127h-488v732h477v-126h-332v-172h297v-125z" />
    <glyph glyph-name="ecaron" unicode="&#x11b;" horiz-adv-x="557" 
d="M231 748l61 -80l60 80h119l-128 -165h-103l-129 165h120zM417.5 500.5q53.5 -30.5 83 -86t29.5 -127.5q0 -32 -6 -65h-344q9 -58 42 -87.5t82 -29.5q35 0 62.5 15.5t42.5 46.5l102 -60q-21 -57 -80.5 -88t-132.5 -31q-70 0 -130 31t-96.5 93t-36.5 149q0 86 36.5 147
t95.5 92t128 31t122.5 -30.5zM221 392q-29 -26 -39 -73h206q-4 48 -30.5 73.5t-66.5 25.5q-41 0 -70 -26z" />
    <glyph glyph-name="Gcircumflex" unicode="&#x11c;" horiz-adv-x="722" 
d="M342 928h109l132 -128h-121l-65 65l-66 -65h-121zM400 281v125h280v-298q-34 -55 -108.5 -87.5t-164.5 -32.5q-107 0 -190 48t-129 134t-46 197q0 112 47.5 198t130.5 133t184 47t175.5 -45.5t100.5 -116.5l-120 -69q-22 46 -63 72.5t-97 26.5q-59 0 -106 -30t-74 -86
t-27 -130q0 -76 27.5 -132t78 -86t117.5 -30q78 0 122 43v119h-138z" />
    <glyph glyph-name="gcircumflex" unicode="&#x11d;" horiz-adv-x="624" 
d="M358 583l-60 79l-61 -79h-120l129 165h103l129 -165h-120zM564 518v-465q0 -157 -79 -227t-196 -70q-85 0 -149.5 36t-91.5 100l107 61q39 -75 134 -75q74 0 104.5 43.5t31.5 140.5q-52 -74 -150 -74q-63 0 -118 32.5t-88.5 94t-33.5 144.5q0 84 33.5 145.5t88.5 94
t118 32.5q51 0 92 -22t67 -67q7 41 8 76h122zM389 145q36 38 36 114q0 75 -36 111.5t-88 36.5q-55 0 -88.5 -39t-33.5 -109t33.5 -111t88.5 -41q52 0 88 38z" />
    <glyph glyph-name="Gbreve" unicode="&#x11e;" horiz-adv-x="722" 
d="M269 833.5q-48 34.5 -48 93.5h109q6 -60 67 -60q62 0 68 60h109q0 -59 -48 -93.5t-129 -34.5q-80 0 -128 34.5zM400 281v125h280v-298q-34 -55 -108.5 -87.5t-164.5 -32.5q-107 0 -190 48t-129 134t-46 197q0 112 47.5 198t130.5 133t184 47t175.5 -45.5t100.5 -116.5
l-120 -69q-22 46 -63 72.5t-97 26.5q-59 0 -106 -30t-74 -86t-27 -130q0 -76 27.5 -132t78 -86t117.5 -30q78 0 122 43v119h-138z" />
    <glyph glyph-name="gbreve" unicode="&#x11f;" horiz-adv-x="624" 
d="M169.5 627.5q-48.5 44.5 -48.5 120.5h108q8 -78 69 -78q64 0 70 78h109q0 -76 -49 -120.5t-130 -44.5q-80 0 -128.5 44.5zM564 518v-465q0 -157 -79 -227t-196 -70q-85 0 -149.5 36t-91.5 100l107 61q39 -75 134 -75q74 0 104.5 43.5t31.5 140.5q-52 -74 -150 -74
q-63 0 -118 32.5t-88.5 94t-33.5 144.5q0 84 33.5 145.5t88.5 94t118 32.5q51 0 92 -22t67 -67q7 41 8 76h122zM389 145q36 38 36 114q0 75 -36 111.5t-88 36.5q-55 0 -88.5 -39t-33.5 -109t33.5 -111t88.5 -41q52 0 88 38z" />
    <glyph glyph-name="Gdotaccent" unicode="&#x120;" horiz-adv-x="722" 
d="M344.5 821q-21.5 19 -21.5 45q0 25 21.5 43.5t51.5 18.5q32 0 54 -18.5t22 -43.5q0 -26 -22 -45t-54 -19q-30 0 -51.5 19zM400 281v125h280v-298q-34 -55 -108.5 -87.5t-164.5 -32.5q-107 0 -190 48t-129 134t-46 197q0 112 47.5 198t130.5 133t184 47t175.5 -45.5
t100.5 -116.5l-120 -69q-22 46 -63 72.5t-97 26.5q-59 0 -106 -30t-74 -86t-27 -130q0 -76 27.5 -132t78 -86t117.5 -30q78 0 122 43v119h-138z" />
    <glyph glyph-name="gdotaccent" unicode="&#x121;" horiz-adv-x="624" 
d="M240.5 609.5q-24.5 25.5 -24.5 59.5q0 35 24 60t58 25t59 -25.5t25 -59.5t-25 -59.5t-59 -25.5q-33 0 -57.5 25.5zM564 518v-465q0 -157 -79 -227t-196 -70q-85 0 -149.5 36t-91.5 100l107 61q39 -75 134 -75q74 0 104.5 43.5t31.5 140.5q-52 -74 -150 -74
q-63 0 -118 32.5t-88.5 94t-33.5 144.5q0 84 33.5 145.5t88.5 94t118 32.5q51 0 92 -22t67 -67q7 41 8 76h122zM389 145q36 38 36 114q0 75 -36 111.5t-88 36.5q-55 0 -88.5 -39t-33.5 -109t33.5 -111t88.5 -41q52 0 88 38z" />
    <glyph glyph-name="uni0122" unicode="&#x122;" horiz-adv-x="722" 
d="M538 281h-138v125h280v-298q-34 -55 -108.5 -87.5t-164.5 -32.5q-107 0 -190 48t-129 134t-46 197q0 112 47.5 198t130.5 133t184 47t175.5 -45.5t100.5 -116.5l-120 -69q-22 46 -63 72.5t-97 26.5q-59 0 -106 -30t-74 -86t-27 -130q0 -76 27.5 -132t78 -86t117.5 -30
q78 0 122 43v119zM455.5 -55q23.5 -22 23.5 -65q0 -56 -40.5 -88t-115.5 -36v54q63 9 74 41h-5q-33 0 -52.5 15t-19.5 41q0 27 20.5 43.5t52.5 16.5q39 0 62.5 -22z" />
    <glyph glyph-name="uni0123" unicode="&#x123;" horiz-adv-x="624" 
d="M238 612q-25 28 -25 81q0 70 43.5 116t112.5 56v-68q-31 -5 -49.5 -18.5t-24.5 -38.5h4q32 0 52.5 -22.5t20.5 -55.5t-20.5 -55.5t-52.5 -22.5q-36 0 -61 28zM564 518v-465q0 -157 -79 -227t-196 -70q-85 0 -149.5 36t-91.5 100l107 61q39 -75 134 -75q74 0 104.5 43.5
t31.5 140.5q-52 -74 -150 -74q-63 0 -118 32.5t-88.5 94t-33.5 144.5q0 84 33.5 145.5t88.5 94t118 32.5q51 0 92 -22t67 -67q7 41 8 76h122zM389 145q36 38 36 114q0 75 -36 111.5t-88 36.5q-55 0 -88.5 -39t-33.5 -109t33.5 -111t88.5 -41q52 0 88 38z" />
    <glyph glyph-name="Hcircumflex" unicode="&#x124;" horiz-adv-x="774" 
d="M332 928h109l133 -129h-122l-65 65l-65 -65h-122zM222 444h330v288h146v-732h-146v315h-330v-315h-145v732h145v-288z" />
    <glyph glyph-name="hcircumflex" unicode="&#x125;" horiz-adv-x="604" 
d="M82 928h104l128 -115h-120l-59 54l-61 -54h-120zM497.5 474.5q50.5 -56.5 50.5 -164.5v-310h-139v265q0 142 -94 142q-50 0 -80.5 -38.5t-30.5 -108.5v-260h-139v761h139v-312q50 82 158 82q85 0 135.5 -56.5z" />
    <glyph glyph-name="Hbar" unicode="&#x126;" horiz-adv-x="812" 
d="M717 732v-101h68v-104h-68v-527h-146v311h-330v-311h-146v527h-69v104h69v101h146v-101h330v101h146zM241 527v-87h330v87h-330z" />
    <glyph glyph-name="hbar" unicode="&#x127;" horiz-adv-x="616" 
d="M509.5 474.5q50.5 -56.5 50.5 -164.5v-310h-141v265q0 68 -21.5 105t-70.5 37q-50 0 -80.5 -38.5t-30.5 -108.5v-260h-139v576h-74v99h74v86h139v-86h141v-99h-141v-127q50 82 158 82q85 0 135.5 -56.5z" />
    <glyph glyph-name="Itilde" unicode="&#x128;" horiz-adv-x="298" 
d="M-42 811q2 52 35 84.5t87 32.5q33 0 53.5 -9.5t41.5 -26.5q21 -19 36 -19q27 0 36 43h95q-2 -53 -35.5 -85.5t-87.5 -32.5q-32 0 -52.5 9.5t-40.5 26.5q-13 10 -21 14.5t-17 4.5q-25 0 -35 -42h-95zM222 0h-145v732h145v-732z" />
    <glyph glyph-name="itilde" unicode="&#x129;" horiz-adv-x="268" 
d="M-57 599q2 66 35 107.5t87 41.5q33 0 53.5 -12t41.5 -33q10 -11 18.5 -17t17.5 -6q27 0 36 53h95q-2 -66 -35.5 -107.5t-87.5 -41.5q-32 0 -52.5 12t-40.5 33q-13 13 -21 18.5t-17 5.5q-28 0 -35 -54h-95zM65 0v518h139v-518h-139z" />
    <glyph glyph-name="Imacron" unicode="&#x12a;" horiz-adv-x="298" 
d="M-21 831v95h342v-95h-342zM222 0h-145v732h145v-732z" />
    <glyph glyph-name="imacron" unicode="&#x12b;" horiz-adv-x="268" 
d="M-36 616v95h342v-95h-342zM65 0v518h139v-518h-139z" />
    <glyph glyph-name="Ibreve" unicode="&#x12c;" horiz-adv-x="298" 
d="M22 833q-48 35 -48 95h108q8 -61 68 -61q62 0 68 61h109q0 -60 -48 -95t-129 -35q-80 0 -128 35zM222 0h-145v732h145v-732z" />
    <glyph glyph-name="ibreve" unicode="&#x12d;" horiz-adv-x="268" 
d="M6 627.5q-49 44.5 -49 120.5h109q7 -78 69 -78t70 78h108q0 -76 -48.5 -120.5t-129.5 -44.5q-80 0 -129 44.5zM65 0v518h139v-518h-139z" />
    <glyph glyph-name="Iogonek" unicode="&#x12e;" horiz-adv-x="298" 
d="M284 -194q-50 -50 -130 -50q-61 0 -100 27t-39 82q0 40 20.5 73t57.5 62h-16v732h145v-732q-56 -31 -82 -58.5t-26 -58.5q0 -23 14 -34.5t37 -11.5q39 0 73 34z" />
    <glyph glyph-name="iogonek" unicode="&#x12f;" horiz-adv-x="268" 
d="M76.5 609.5q-24.5 25.5 -24.5 59.5q0 35 24.5 60t58.5 25t58.5 -25t24.5 -60q0 -34 -24.5 -59.5t-58.5 -25.5t-58.5 25.5zM266 -189q-25 -27 -56.5 -41t-73.5 -14q-61 0 -100 29.5t-39 85.5q0 71 75 129h-7v518h139v-518q-56 -29 -82.5 -55.5t-26.5 -57.5q0 -44 50 -44
q41 0 77 35z" />
    <glyph glyph-name="Idotaccent" unicode="&#x130;" horiz-adv-x="298" 
d="M97 820q-22 19 -22 45t21.5 44.5t52.5 18.5q32 0 54 -18.5t22 -44.5t-22 -45t-54 -19q-30 0 -52 19zM222 0h-145v732h145v-732z" />
    <glyph glyph-name="dotlessi" unicode="&#x131;" horiz-adv-x="268" 
d="M65 0v518h139v-518h-139z" />
    <glyph glyph-name="IJ" unicode="&#x132;" horiz-adv-x="819" 
d="M222 0h-145v732h145v-732zM372.5 26.5q-58.5 38.5 -77.5 119.5l121 64q11 -45 35 -67t62 -22q49 0 69.5 36.5t20.5 113.5v461h147v-475q0 -142 -67.5 -205.5t-170.5 -63.5q-81 0 -139.5 38.5z" />
    <glyph glyph-name="ij" unicode="&#x133;" horiz-adv-x="535" 
d="M75.5 609.5q-24.5 25.5 -24.5 59.5q0 35 24 60t58 25t59 -25.5t25 -59.5t-25 -59.5t-59 -25.5q-33 0 -57.5 25.5zM343 609.5q-24 25.5 -24 59.5q0 35 23.5 60t57.5 25t59 -25t25 -60q0 -34 -25 -59.5t-59 -25.5q-33 0 -57 25.5zM204 0h-139v518h139v-518zM184 -229.5
q-39 14.5 -65 41.5l75 95q25 -30 60 -30q40 0 59 29t19 92v520h139v-531q0 -78 -28.5 -130t-75.5 -76.5t-102 -24.5q-42 0 -81 14.5z" />
    <glyph glyph-name="Jcircumflex" unicode="&#x134;" horiz-adv-x="520" 
d="M323 928h109l132 -129h-121l-65 65l-66 -65h-121zM74 27q-58 39 -77 119l120 64q12 -45 35.5 -67t61.5 -22q50 0 71 36.5t21 113.5v461h145v-475q0 -143 -67 -206t-171 -63q-81 0 -139 39z" />
    <glyph glyph-name="jcircumflex" unicode="&#x135;" horiz-adv-x="267" 
d="M81 748h104l129 -165h-120l-60 79l-61 -79h-120zM-83.5 -229.5q-39.5 14.5 -64.5 41.5l75 95q25 -30 60 -30q39 0 58.5 29t19.5 92v520h139v-531q0 -78 -28.5 -130t-75.5 -76.5t-102 -24.5q-42 0 -81.5 14.5z" />
    <glyph glyph-name="uni0136" unicode="&#x136;" horiz-adv-x="742" 
d="M526 732h181l-281 -299l311 -433h-187l-228 322l-100 -107v-215h-145v732h145v-341zM448.5 -55q23.5 -22 23.5 -65q0 -56 -40.5 -88t-115.5 -36v54q63 9 74 41h-5q-33 0 -52.5 15t-19.5 41q0 27 20.5 43.5t52.5 16.5q39 0 62.5 -22z" />
    <glyph glyph-name="uni0137" unicode="&#x137;" horiz-adv-x="582" 
d="M401 518h162l-187 -207l211 -311h-168l-136 206l-79 -86v-120h-139v761h139v-472zM370.5 -55q23.5 -22 23.5 -65q0 -56 -40 -88t-115 -36v54q63 10 74 41h-5q-33 0 -53 15t-20 41q0 27 21 43.5t53 16.5q38 0 61.5 -22z" />
    <glyph glyph-name="kgreenlandic" unicode="&#x138;" horiz-adv-x="581" 
d="M376 311l209 -311h-167l-136 206l-78 -86v-120h-139v518h139v-229l197 229h161z" />
    <glyph glyph-name="Lacute" unicode="&#x139;" horiz-adv-x="580" 
d="M98 801l93 127h144l-124 -127h-113zM77 732h145v-602h333v-130h-478v732z" />
    <glyph glyph-name="lacute" unicode="&#x13a;" horiz-adv-x="268" 
d="M83 816l93 112h144l-124 -112h-113zM204 0h-139v761h139v-761z" />
    <glyph glyph-name="uni013B" unicode="&#x13b;" horiz-adv-x="580" 
d="M77 732h145v-602h333v-130h-478v732zM387.5 -55q23.5 -22 23.5 -65q0 -56 -40.5 -88t-115.5 -36v54q63 9 74 41h-5q-33 0 -52.5 15t-19.5 41q0 27 20.5 43.5t52.5 16.5q39 0 62.5 -22z" />
    <glyph glyph-name="uni013C" unicode="&#x13c;" horiz-adv-x="268" 
d="M65 0v761h139v-761h-139zM193 -55q24 -22 24 -65q0 -56 -40.5 -88t-115.5 -36v54q63 9 74 41h-5q-33 0 -52.5 15t-19.5 41q0 27 20.5 43.5t52.5 16.5q38 0 62 -22z" />
    <glyph glyph-name="Lcaron" unicode="&#x13d;" horiz-adv-x="580" 
d="M444.5 520q-43.5 -46 -112.5 -56v68q31 6 49.5 19.5t24.5 36.5h-3q-33 1 -53.5 23.5t-20.5 55.5t20.5 55.5t52.5 22.5q36 0 61 -28t25 -81q0 -70 -43.5 -116zM77 732h145v-602h333v-130h-478v732z" />
    <glyph glyph-name="lcaron" unicode="&#x13e;" horiz-adv-x="324" 
d="M352 743q19 -22 19 -68q0 -63 -35.5 -100t-93.5 -46v57q26 5 41.5 16.5t20.5 31.5h-4q-26 0 -43 19t-17 48t17.5 46.5t45.5 17.5q30 0 49 -22zM204 0h-139v761h139v-761z" />
    <glyph glyph-name="Ldot" unicode="&#x13f;" horiz-adv-x="580" 
d="M77 732h145v-602h333v-130h-478v732zM338.5 343.5q-24.5 25.5 -24.5 59.5q0 35 24 60t58 25q35 0 59.5 -25t24.5 -60q0 -34 -24.5 -59.5t-59.5 -25.5q-33 0 -57.5 25.5z" />
    <glyph glyph-name="ldot" unicode="&#x140;" horiz-adv-x="334" 
d="M204 0h-139v761h139v-761zM250 328q-21 21 -21 55q0 35 21 55.5t52 20.5q32 0 52.5 -20.5t20.5 -55.5q0 -34 -20.5 -55t-52.5 -21q-31 0 -52 21z" />
    <glyph glyph-name="Lslash" unicode="&#x141;" 
d="M386 405l-143 -71v-204h334v-130h-479v262l-84 -42v140l84 42v330h145v-258l143 71v-140z" />
    <glyph glyph-name="lslash" unicode="&#x142;" horiz-adv-x="307" 
d="M223 761v-266l72 43v-140l-72 -43v-355h-139v271l-72 -43v140l72 43v350h139z" />
    <glyph glyph-name="Nacute" unicode="&#x143;" horiz-adv-x="760" 
d="M329 800l93 127h144l-124 -127h-113zM194 732l355 -484v484h135v-732h-118l-356 485v-485h-133v732h117z" />
    <glyph glyph-name="nacute" unicode="&#x144;" horiz-adv-x="604" 
d="M244 583l90 165h140l-121 -165h-109zM498 474.5q50 -56.5 50 -164.5v-310h-139v265q0 142 -94 142q-50 0 -80.5 -38.5t-30.5 -108.5v-260h-139v518h122q5 -61 9 -83q50 96 166 96q86 0 136 -56.5z" />
    <glyph glyph-name="uni0145" unicode="&#x145;" horiz-adv-x="760" 
d="M194 732l355 -484v484h135v-732h-118l-356 485v-485h-133v732h117zM438.5 -55q23.5 -22 23.5 -65q0 -56 -40 -88t-115 -36v54q63 10 74 41h-5q-33 0 -53 15t-20 41q0 27 21 43.5t53 16.5q38 0 61.5 -22z" />
    <glyph glyph-name="uni0146" unicode="&#x146;" horiz-adv-x="604" 
d="M498 474.5q50 -56.5 50 -164.5v-310h-139v265q0 142 -94 142q-50 0 -80.5 -38.5t-30.5 -108.5v-260h-139v518h122q5 -61 9 -83q50 96 166 96q86 0 136 -56.5zM366.5 -55q23.5 -22 23.5 -65q0 -55 -40 -87.5t-115 -36.5v54q31 5 49.5 14.5t24.5 26.5h-5q-33 0 -53 15
t-20 41q0 27 21 43.5t53 16.5q38 0 61.5 -22z" />
    <glyph glyph-name="Ncaron" unicode="&#x147;" horiz-adv-x="760" 
d="M315 928l65 -65l65 65h122l-133 -129h-108l-133 129h122zM194 732l355 -484v484h135v-732h-118l-356 485v-485h-133v732h117z" />
    <glyph glyph-name="ncaron" unicode="&#x148;" horiz-adv-x="604" 
d="M245 748l61 -79l60 79h120l-129 -165h-103l-129 165h120zM498 474.5q50 -56.5 50 -164.5v-310h-139v265q0 142 -94 142q-50 0 -80.5 -38.5t-30.5 -108.5v-260h-139v518h122q5 -61 9 -83q50 96 166 96q86 0 136 -56.5z" />
    <glyph glyph-name="napostrophe" unicode="&#x149;" horiz-adv-x="604" 
d="M-5 593q31 6 48 17.5t23 32.5h-3q-31 0 -50.5 18.5t-19.5 46.5t19.5 47t49.5 19q33 0 56.5 -23.5t23.5 -68.5q0 -59 -40.5 -98t-106.5 -47v56zM498 474.5q50 -56.5 50 -164.5v-310h-140v265q0 142 -93 142q-50 0 -80.5 -38.5t-30.5 -108.5v-260h-139v518h122q5 -61 9 -83
q50 96 166 96q86 0 136 -56.5z" />
    <glyph glyph-name="Eng" unicode="&#x14a;" horiz-adv-x="760" 
d="M549 732h135v-752q0 -111 -55 -167.5t-139 -56.5q-71 0 -121 40l53 100q25 -19 57 -19q37 0 53.5 29.5t16.5 85.5v30l-339 463v-485h-133v732h117l355 -484v484z" />
    <glyph glyph-name="eng" unicode="&#x14b;" horiz-adv-x="604" 
d="M498 474.5q50 -56.5 50 -164.5v-330q0 -111 -55 -167.5t-139 -56.5q-71 0 -121 40l53 100q27 -19 55 -19q68 0 68 115v273q0 142 -94 142q-50 0 -80.5 -38.5t-30.5 -108.5v-260h-139v518h122q5 -61 9 -83q50 96 166 96q86 0 136 -56.5z" />
    <glyph glyph-name="Omacron" unicode="&#x14c;" horiz-adv-x="783" 
d="M220 831v95h342v-95h-342zM88 568q46 86 125.5 131.5t177.5 45.5t177.5 -45.5t126 -131.5t46.5 -201q0 -116 -46.5 -202t-126 -131.5t-177.5 -45.5t-177.5 45.5t-125.5 131.5t-46 202q0 115 46 201zM219.5 238q24.5 -56 69 -86.5t102.5 -30.5t102.5 30.5t69 86.5
t24.5 129t-24.5 128.5t-69 86t-102.5 30.5t-102.5 -30.5t-69 -86t-24.5 -128.5t24.5 -129z" />
    <glyph glyph-name="omacron" unicode="&#x14d;" 
d="M130 616v95h342v-95h-342zM71.5 402q36.5 62 97.5 95.5t132 33.5q70 0 130.5 -33.5t97 -95.5t36.5 -143t-36.5 -143t-97 -95t-130.5 -33q-71 0 -132 33t-97.5 95t-36.5 143t36.5 143zM213.5 149.5q34.5 -40.5 86.5 -40.5t86 40.5t34 109.5t-34 110t-86 41t-86.5 -41
t-34.5 -110t34.5 -109.5z" />
    <glyph glyph-name="Obreve" unicode="&#x14e;" horiz-adv-x="783" 
d="M263.5 833q-47.5 35 -47.5 95h108q3 -29 20 -45t47 -16q61 0 69 61h108q0 -61 -47.5 -95.5t-129.5 -34.5q-80 0 -127.5 35zM88 568q46 86 125.5 131.5t177.5 45.5t177.5 -45.5t126 -131.5t46.5 -201q0 -116 -46.5 -202t-126 -131.5t-177.5 -45.5t-177.5 45.5
t-125.5 131.5t-46 202q0 115 46 201zM219.5 238q24.5 -56 69 -86.5t102.5 -30.5t102.5 30.5t69 86.5t24.5 129t-24.5 128.5t-69 86t-102.5 30.5t-102.5 -30.5t-69 -86t-24.5 -128.5t24.5 -129z" />
    <glyph glyph-name="obreve" unicode="&#x14f;" 
d="M172 626.5q-49 44.5 -49 120.5h109q3 -37 20.5 -57.5t48.5 -20.5q62 0 70 78h108q0 -76 -48.5 -120.5t-129.5 -44.5q-80 0 -129 44.5zM71.5 402q36.5 62 97.5 95.5t132 33.5q70 0 130.5 -33.5t97 -95.5t36.5 -143t-36.5 -143t-97 -95t-130.5 -33q-71 0 -132 33t-97.5 95
t-36.5 143t36.5 143zM213.5 149.5q34.5 -40.5 86.5 -40.5t86 40.5t34 109.5t-34 110t-86 41t-86.5 -41t-34.5 -110t34.5 -109.5z" />
    <glyph glyph-name="Ohungarumlaut" unicode="&#x150;" horiz-adv-x="783" 
d="M251 799l90 129h130l-120 -129h-100zM429 799l90 129h130l-120 -129h-100zM88 568q46 86 125.5 131.5t177.5 45.5t177.5 -45.5t126 -131.5t46.5 -201q0 -116 -46.5 -202t-126 -131.5t-177.5 -45.5t-177.5 45.5t-125.5 131.5t-46 202q0 115 46 201zM219.5 238
q24.5 -56 69 -86.5t102.5 -30.5t102.5 30.5t69 86.5t24.5 129t-24.5 128.5t-69 86t-102.5 30.5t-102.5 -30.5t-69 -86t-24.5 -128.5t24.5 -129z" />
    <glyph glyph-name="ohungarumlaut" unicode="&#x151;" 
d="M160 583l90 165h131l-121 -165h-100zM338 583l90 165h131l-121 -165h-100zM71.5 402q36.5 62 97.5 95.5t132 33.5q70 0 130.5 -33.5t97 -95.5t36.5 -143t-36.5 -143t-97 -95t-130.5 -33q-71 0 -132 33t-97.5 95t-36.5 143t36.5 143zM213.5 149.5q34.5 -40.5 86.5 -40.5
t86 40.5t34 109.5t-34 110t-86 41t-86.5 -41t-34.5 -110t34.5 -109.5z" />
    <glyph glyph-name="OE" unicode="&#x152;" horiz-adv-x="1118" 
d="M732 309v-182h343v-127h-489v79q-39 -44 -92.5 -67.5t-115.5 -23.5q-91 0 -168 47t-122.5 133t-45.5 199q0 112 45.5 198t122.5 133t168 47q62 0 115.5 -23.5t92.5 -67.5v78h478v-126h-332v-172h297v-125h-297zM493.5 151.5q44.5 30.5 68.5 86.5t24 129t-24.5 128.5
t-68.5 86t-102 30.5t-102.5 -30.5t-69 -86t-24.5 -128.5t24.5 -129t69 -86.5t102.5 -30.5t102.5 30.5z" />
    <glyph glyph-name="oe" unicode="&#x153;" horiz-adv-x="942" 
d="M803.5 500.5q52.5 -30.5 82 -86t29.5 -127.5q0 -32 -6 -65h-344q9 -58 42 -87.5t82 -29.5q35 0 62.5 15.5t42.5 46.5l102 -60q-21 -57 -79 -88t-129 -31q-64 0 -116 26.5t-83 78.5q-31 -51 -81.5 -78t-110.5 -27q-69 0 -129 33.5t-96.5 95t-36.5 142.5t36.5 143
t96.5 95.5t129 33.5q60 0 110.5 -27t80.5 -78q31 52 82 78.5t113 26.5q68 0 120.5 -30.5zM606 392q-29 -26 -39 -73h206q-4 48 -30.5 73.5t-66.5 25.5q-41 0 -70 -26zM386.5 149.5q33.5 40.5 33.5 109.5q0 70 -33.5 110.5t-85.5 40.5q-53 0 -87.5 -41t-34.5 -110
t34.5 -109.5t87.5 -40.5q52 0 85.5 40.5z" />
    <glyph glyph-name="Racute" unicode="&#x154;" horiz-adv-x="670" 
d="M251 801l93 127h144l-124 -127h-113zM685 0l-173 1l-178 263h-6h-106v-264h-145v732h253q86 0 151 -29t100 -82.5t35 -122.5q0 -70 -36 -123t-101 -81zM222 609v-222h91q64 0 106.5 27.5t42.5 83.5q0 57 -42 84t-107 27h-91z" />
    <glyph glyph-name="racute" unicode="&#x155;" horiz-adv-x="430" 
d="M180 583l90 165h140l-121 -165h-109zM396 522q26 -9 40 -23l-54 -107q-26 18 -59 18q-54 0 -86.5 -45t-32.5 -124v-241h-139v518h122q5 -60 9 -82q23 47 60 71t84 24q30 0 56 -9z" />
    <glyph glyph-name="uni0156" unicode="&#x156;" horiz-adv-x="670" 
d="M685 0l-173 1l-178 263h-6h-106v-264h-145v732h253q86 0 151 -29t100 -82.5t35 -122.5q0 -70 -36 -123t-101 -81zM313 387q64 0 106.5 27.5t42.5 83.5q0 57 -42 84t-107 27h-91v-222h91zM430 -55q24 -22 24 -65q0 -56 -40.5 -88t-115.5 -36v54q63 9 74 41h-5
q-33 0 -52.5 15t-19.5 41q0 27 20.5 43.5t52.5 16.5q38 0 62 -22z" />
    <glyph glyph-name="uni0157" unicode="&#x157;" horiz-adv-x="430" 
d="M396 522q26 -9 40 -23l-54 -107q-26 18 -59 18q-54 0 -86.5 -45t-32.5 -124v-241h-139v518h122q5 -60 9 -82q23 47 60 71t84 24q30 0 56 -9zM193 -55q24 -22 24 -65q0 -55 -40.5 -87.5t-115.5 -36.5v54q32 5 50 14.5t24 26.5h-5q-33 0 -52.5 15t-19.5 41q0 27 20.5 43.5
t52.5 16.5q38 0 62 -22z" />
    <glyph glyph-name="Rcaron" unicode="&#x158;" horiz-adv-x="670" 
d="M237 928l66 -65l64 65h122l-133 -128h-108l-133 128h122zM685 0l-173 1l-178 263h-6h-106v-264h-145v732h253q86 0 151 -29t100 -82.5t35 -122.5q0 -70 -36 -123t-101 -81zM222 609v-222h91q64 0 106.5 27.5t42.5 83.5q0 57 -42 84t-107 27h-91z" />
    <glyph glyph-name="rcaron" unicode="&#x159;" horiz-adv-x="430" 
d="M181 748l61 -80l60 80h120l-129 -165h-103l-128 165h119zM396 522q26 -9 40 -23l-54 -107q-26 18 -59 18q-54 0 -86.5 -45t-32.5 -124v-241h-139v518h122q5 -60 9 -82q23 47 60 71t84 24q30 0 56 -9z" />
    <glyph glyph-name="Sacute" unicode="&#x15a;" horiz-adv-x="592" 
d="M255 800l93 128h144l-124 -128h-113zM532.5 86.5q-38.5 -50.5 -100 -74.5t-131.5 -24q-102 0 -184 47.5t-109 134.5l118 67q24 -56 70 -87t110 -31q52 0 82.5 21t30.5 61q0 32 -20.5 53t-51 33t-83.5 28q-71 21 -116 41.5t-77 61.5t-32 108q0 71 37.5 120.5t99 74
t132.5 24.5q97 0 166 -44t89 -119l-118 -67q-18 47 -54 73.5t-90 26.5q-49 0 -79.5 -22.5t-30.5 -59.5q0 -28 19 -46.5t48.5 -30t79.5 -26.5q72 -21 119 -42.5t80.5 -64t33.5 -111.5q0 -75 -38.5 -125.5z" />
    <glyph glyph-name="sacute" unicode="&#x15b;" horiz-adv-x="468" 
d="M179 583l90 165h140l-120 -165h-110zM389.5 32.5q-59.5 -44.5 -154.5 -44.5q-82 0 -141.5 35t-80.5 97l101 59q15 -37 47 -57.5t75 -20.5q32 0 51 12t19 34q0 25 -25 38.5t-78 28.5q-53 16 -86.5 31t-58 43.5t-24.5 74.5q0 52 28.5 90t76.5 58t105 20q78 0 132 -33.5
t68 -88.5l-101 -57q-30 65 -101 65q-30 0 -48 -11.5t-18 -32.5q0 -24 24 -36.5t75 -26.5q54 -15 89 -30t60 -45.5t25 -80.5q0 -77 -59.5 -121.5z" />
    <glyph glyph-name="Scircumflex" unicode="&#x15c;" horiz-adv-x="592" 
d="M251 928h109l133 -129h-122l-65 66l-65 -66h-122zM532.5 86.5q-38.5 -50.5 -100 -74.5t-131.5 -24q-102 0 -184 47.5t-109 134.5l118 67q24 -56 70 -87t110 -31q52 0 82.5 21t30.5 61q0 32 -20.5 53t-51 33t-83.5 28q-71 21 -116 41.5t-77 61.5t-32 108q0 71 37.5 120.5
t99 74t132.5 24.5q97 0 166 -44t89 -119l-118 -67q-18 47 -54 73.5t-90 26.5q-49 0 -79.5 -22.5t-30.5 -59.5q0 -28 19 -46.5t48.5 -30t79.5 -26.5q72 -21 119 -42.5t80.5 -64t33.5 -111.5q0 -75 -38.5 -125.5z" />
    <glyph glyph-name="scircumflex" unicode="&#x15d;" horiz-adv-x="468" 
d="M189 748h104l129 -165h-120l-61 79l-61 -79h-119zM389.5 32.5q-59.5 -44.5 -154.5 -44.5q-82 0 -141.5 35t-80.5 97l101 59q15 -37 47 -57.5t75 -20.5q32 0 51 12t19 34q0 25 -25 38.5t-78 28.5q-53 16 -86.5 31t-58 43.5t-24.5 74.5q0 52 28.5 90t76.5 58t105 20
q78 0 132 -33.5t68 -88.5l-101 -57q-30 65 -101 65q-30 0 -48 -11.5t-18 -32.5q0 -24 24 -36.5t75 -26.5q54 -15 89 -30t60 -45.5t25 -80.5q0 -77 -59.5 -121.5z" />
    <glyph glyph-name="Scedilla" unicode="&#x15e;" horiz-adv-x="592" 
d="M535 89.5q-36 -49.5 -93.5 -74t-125.5 -27.5l-20 -44q48 -1 79.5 -24t31.5 -66q0 -49 -43 -73.5t-104 -24.5q-38 0 -81 12v70q41 -12 77 -12q54 0 54 26q0 13 -14.5 19.5t-39.5 6.5q-24 0 -54 -6l-9 47l33 76q-79 15 -137 60t-81 115l118 67q24 -56 70 -87t110 -31
q52 0 82.5 21t30.5 61q0 32 -20.5 53t-51 33t-83.5 28q-71 21 -116 41.5t-77 61.5t-32 108q0 71 37.5 120.5t99 74t132.5 24.5q97 0 166 -44t89 -119l-118 -67q-18 47 -54 73.5t-90 26.5q-49 0 -79.5 -22.5t-30.5 -59.5q0 -28 19 -46.5t48.5 -30t79.5 -26.5
q72 -21 119 -42.5t80.5 -64t33.5 -111.5q0 -73 -36 -122.5z" />
    <glyph glyph-name="scedilla" unicode="&#x15f;" horiz-adv-x="468" 
d="M397.5 39q-51.5 -44 -135.5 -50l-20 -46q48 0 79.5 -23t31.5 -66q0 -50 -42 -74t-103 -24q-39 0 -82 12v71q39 -12 76 -12q55 0 55 25q0 12 -14.5 19t-38.5 7t-56 -8l-9 48l33 76q-59 11 -100.5 44t-58.5 82l101 59q15 -37 47 -57.5t75 -20.5q32 0 51 12t19 34
q0 25 -25 38.5t-78 28.5q-53 16 -86.5 31t-58 43.5t-24.5 74.5q0 52 28.5 90t76.5 58t105 20q78 0 132 -33.5t68 -88.5l-101 -57q-30 65 -101 65q-30 0 -48 -11.5t-18 -32.5q0 -24 24 -36.5t75 -26.5q54 -15 89 -30t60 -45.5t25 -80.5q0 -71 -51.5 -115z" />
    <glyph glyph-name="Scaron" unicode="&#x160;" horiz-adv-x="592" 
d="M241 928l65 -65l65 65h122l-133 -129h-109l-132 129h122zM532.5 86.5q-38.5 -50.5 -100 -74.5t-131.5 -24q-102 0 -184 47.5t-109 134.5l118 67q24 -56 70 -87t110 -31q52 0 82.5 21t30.5 61q0 32 -20.5 53t-51 33t-83.5 28q-71 21 -116 41.5t-77 61.5t-32 108
q0 71 37.5 120.5t99 74t132.5 24.5q97 0 166 -44t89 -119l-118 -67q-18 47 -54 73.5t-90 26.5q-49 0 -79.5 -22.5t-30.5 -59.5q0 -28 19 -46.5t48.5 -30t79.5 -26.5q72 -21 119 -42.5t80.5 -64t33.5 -111.5q0 -75 -38.5 -125.5z" />
    <glyph glyph-name="scaron" unicode="&#x161;" horiz-adv-x="468" 
d="M181 748l61 -79l60 79h120l-129 -165h-103l-129 165h120zM389.5 32.5q-59.5 -44.5 -154.5 -44.5q-82 0 -141.5 35t-80.5 97l101 59q15 -37 47 -57.5t75 -20.5q32 0 51 12t19 34q0 25 -25 38.5t-78 28.5q-53 16 -86.5 31t-58 43.5t-24.5 74.5q0 52 28.5 90t76.5 58t105 20
q78 0 132 -33.5t68 -88.5l-101 -57q-30 65 -101 65q-30 0 -48 -11.5t-18 -32.5q0 -24 24 -36.5t75 -26.5q54 -15 89 -30t60 -45.5t25 -80.5q0 -77 -59.5 -121.5z" />
    <glyph glyph-name="uni0162" unicode="&#x162;" horiz-adv-x="608" 
d="M376 603v-603h-23l-25 -56q48 -1 79.5 -24t31.5 -65q0 -50 -43 -74.5t-104 -24.5q-39 0 -80 12v70q39 -12 76 -12q55 0 55 26q0 13 -14.5 19.5t-40.5 6.5q-24 0 -54 -6l-9 47l36 81h-31v603h-222v129h590v-129h-222z" />
    <glyph glyph-name="uni0163" unicode="&#x163;" horiz-adv-x="423" 
d="M269 -58q48 0 79 -23t31 -65q0 -50 -42 -74t-103 -24q-39 0 -82 12v71q37 -13 77 -13q54 0 54 25q0 12 -14.5 19t-39.5 7q-27 0 -55 -7l-9 47l36 83q-105 37 -105 192v209h-92v117h92v159h139v-159h156v-117h-156v-186q0 -52 18 -79t58 -27q35 0 66 21l48 -100
q-50 -41 -137 -42z" />
    <glyph glyph-name="Tcaron" unicode="&#x164;" horiz-adv-x="607" 
d="M238 928l66 -65l64 65h122l-133 -129h-108l-133 129h122zM8 732h590v-129h-222v-603h-146v603h-222v129z" />
    <glyph glyph-name="tcaron" unicode="&#x165;" horiz-adv-x="423" 
d="M430 829q25 -28 25 -81q0 -70 -43.5 -116t-112.5 -56v68q31 6 49.5 19.5t24.5 37.5h-4q-32 0 -52.5 23t-20.5 55q0 33 20.5 55.5t52.5 22.5q36 0 61 -28zM377 130l48 -100q-51 -42 -142 -42q-84 0 -135.5 44.5t-51.5 159.5v209h-92v117h92v159h139v-159h156v-117h-156
v-186q0 -52 18 -79t58 -27q35 0 66 21z" />
    <glyph glyph-name="Tbar" unicode="&#x166;" horiz-adv-x="608" 
d="M8 732h590v-129h-222v-190h143v-129h-143v-284h-146v284h-141v129h141v190h-222v129z" />
    <glyph glyph-name="tbar" unicode="&#x167;" horiz-adv-x="423" 
d="M425 30q-51 -42 -142 -42q-84 0 -135.5 45t-51.5 161v21h-92v108h92v88h-92v107h92v159h140v-159h155v-107h-155v-88h155v-108h-155v-1q0 -53 17.5 -79t57.5 -26q35 0 66 21z" />
    <glyph glyph-name="Utilde" unicode="&#x168;" horiz-adv-x="759" 
d="M188 811q2 52 35 84.5t87 32.5q33 0 53.5 -9.5t41.5 -26.5q21 -19 36 -19q27 0 36 43h95q-2 -53 -35.5 -85.5t-87.5 -32.5q-32 0 -52.5 9.5t-40.5 26.5q-13 10 -21 14.5t-17 4.5q-27 0 -35 -42h-95zM545 732h145v-436q0 -94 -37 -163.5t-107 -107t-166 -37.5
q-97 0 -167 37.5t-107 107t-37 163.5v436h145v-401q0 -106 43.5 -158t122.5 -52q78 0 121.5 52t43.5 158v401z" />
    <glyph glyph-name="utilde" unicode="&#x169;" horiz-adv-x="604" 
d="M108 599q2 66 35.5 107.5t87.5 41.5q32 0 52.5 -12t41.5 -33q13 -12 20.5 -17.5t16.5 -5.5q27 0 35 53h95q-2 -66 -35 -107.5t-87 -41.5q-32 0 -52.5 12t-41.5 33q-12 13 -20 18.5t-17 5.5q-28 0 -35 -54h-96zM400 518h139v-518h-123q-4 60 -8 81q-26 -47 -68 -70
t-96 -23q-87 0 -137 56t-50 164v310h139v-264q0 -143 92 -143q50 0 81 39t31 109v259z" />
    <glyph glyph-name="Umacron" unicode="&#x16a;" horiz-adv-x="759" 
d="M209 831v95h342v-95h-342zM545 732h145v-436q0 -94 -37 -163.5t-107 -107t-166 -37.5q-97 0 -167 37.5t-107 107t-37 163.5v436h145v-401q0 -106 43.5 -158t122.5 -52q78 0 121.5 52t43.5 158v401z" />
    <glyph glyph-name="umacron" unicode="&#x16b;" horiz-adv-x="604" 
d="M129 616v95h342v-95h-342zM400 518h139v-518h-123q-4 60 -8 81q-26 -47 -68 -70t-96 -23q-87 0 -137 56t-50 164v310h139v-264q0 -143 92 -143q50 0 81 39t31 109v259z" />
    <glyph glyph-name="Ubreve" unicode="&#x16c;" horiz-adv-x="759" 
d="M251.5 833q-47.5 35 -47.5 95h108q8 -61 68 -61q62 0 68 61h109q0 -60 -48 -95t-129 -35t-128.5 35zM545 732h145v-436q0 -94 -37 -163.5t-107 -107t-166 -37.5q-97 0 -167 37.5t-107 107t-37 163.5v436h145v-401q0 -106 43.5 -158t122.5 -52q78 0 121.5 52t43.5 158v401
z" />
    <glyph glyph-name="ubreve" unicode="&#x16d;" horiz-adv-x="604" 
d="M171.5 627.5q-48.5 44.5 -48.5 120.5h109q7 -78 68 -78q64 0 70 78h109q0 -76 -49 -120.5t-130 -44.5q-80 0 -128.5 44.5zM400 518h139v-518h-123q-4 60 -8 81q-26 -47 -68 -70t-96 -23q-87 0 -137 56t-50 164v310h139v-264q0 -143 92 -143q50 0 81 39t31 109v259z" />
    <glyph glyph-name="Uring" unicode="&#x16e;" horiz-adv-x="759" 
d="M294 908q35 20 86 20t84.5 -20t33.5 -51t-33.5 -51.5t-84.5 -20.5t-86 20.5t-35 51.5t35 51zM346.5 835q12.5 -8 33.5 -8q20 0 32 8t12 22q0 13 -12 21t-32 8q-21 0 -33.5 -8t-12.5 -21q0 -14 12.5 -22zM545 732h145v-436q0 -94 -37 -163.5t-107 -107t-166 -37.5
q-97 0 -167 37.5t-107 107t-37 163.5v436h145v-401q0 -106 43.5 -158t122.5 -52q78 0 121.5 52t43.5 158v401z" />
    <glyph glyph-name="uring" unicode="&#x16f;" horiz-adv-x="604" 
d="M214.5 775q34.5 34 85.5 34t84.5 -33.5t33.5 -85.5t-33.5 -85.5t-84.5 -33.5t-85.5 33.5t-34.5 85.5q0 51 34.5 85zM266.5 655q12.5 -14 33.5 -14q20 0 32.5 14t12.5 35q0 22 -12.5 35t-32.5 13q-21 0 -33.5 -13t-12.5 -35q0 -21 12.5 -35zM400 518h139v-518h-123
q-4 60 -8 81q-26 -47 -68 -70t-96 -23q-87 0 -137 56t-50 164v310h139v-264q0 -143 92 -143q50 0 81 39t31 109v259z" />
    <glyph glyph-name="Uhungarumlaut" unicode="&#x170;" horiz-adv-x="759" 
d="M239 799l90 129h131l-121 -129h-100zM417 799l90 129h131l-121 -129h-100zM545 732h145v-436q0 -94 -37 -163.5t-107 -107t-166 -37.5q-97 0 -167 37.5t-107 107t-37 163.5v436h145v-401q0 -106 43.5 -158t122.5 -52q78 0 121.5 52t43.5 158v401z" />
    <glyph glyph-name="uhungarumlaut" unicode="&#x171;" horiz-adv-x="604" 
d="M160 583l90 165h130l-120 -165h-100zM338 583l90 165h130l-120 -165h-100zM400 518h139v-518h-123q-4 60 -8 81q-26 -47 -68 -70t-96 -23q-87 0 -137 56t-50 164v310h139v-264q0 -143 92 -143q50 0 81 39t31 109v259z" />
    <glyph glyph-name="Uogonek" unicode="&#x172;" horiz-adv-x="759" 
d="M690 296q0 -89 -33 -156t-95 -106q-62 -40 -85.5 -73.5t-23.5 -66.5q0 -29 14.5 -43t38.5 -14q35 0 71 34l46 -64q-49 -51 -128 -51q-63 0 -102 29t-39 91t41 112h-15q-97 0 -167 37.5t-107 107t-37 163.5v436h145v-401q0 -106 43.5 -158t122.5 -52q78 0 121 52t43 158
v401h146v-436z" />
    <glyph glyph-name="uogonek" unicode="&#x173;" horiz-adv-x="604" 
d="M601 -189q-25 -27 -56.5 -41t-73.5 -14q-61 0 -100 29.5t-39 85.5q0 75 84 135q-4 56 -8 75q-26 -47 -68 -70t-96 -23q-87 0 -137 56t-50 164v310h139v-264q0 -143 92 -143q50 0 81 39t31 109v259h139v-518q-55 -29 -81.5 -55.5t-26.5 -57.5q0 -44 50 -44q41 0 76 35z
" />
    <glyph glyph-name="Wcircumflex" unicode="&#x174;" horiz-adv-x="1006" 
d="M454 928h109l132 -129h-122l-64 65l-66 -65h-121zM567 732l152 -492l140 492h140l-228 -732h-112l-154 478l-149 -478h-111l-238 732h150l150 -492l144 492h116z" />
    <glyph glyph-name="wcircumflex" unicode="&#x175;" horiz-adv-x="822" 
d="M374 748h104l128 -165h-120l-60 79l-61 -79h-120zM474 518l108 -323l102 323h135l-189 -517h-99l-118 315l-113 -315h-100l-196 517h143l109 -327l102 327h116z" />
    <glyph glyph-name="Ycircumflex" unicode="&#x176;" horiz-adv-x="678" 
d="M292 928h108l133 -129h-122l-65 66l-65 -66h-122zM349 432l166 300h157l-255 -444v-288h-145v289l-266 443h171z" />
    <glyph glyph-name="ycircumflex" unicode="&#x177;" horiz-adv-x="569" 
d="M347 583l-61 79l-61 -79h-119l128 165h104l129 -165h-120zM420 518h145l-233 -586q-37 -93 -86.5 -134.5t-123.5 -41.5q-36 0 -67.5 10.5t-54.5 28.5l55 106q30 -22 66 -22q23 0 39.5 9.5t31.5 33t35 69.5l-225 527h156l137 -357z" />
    <glyph glyph-name="Ydieresis" unicode="&#x178;" horiz-adv-x="678" 
d="M180.5 820.5q-21.5 18.5 -21.5 44.5t21.5 44.5t52.5 18.5q32 0 54 -18.5t22 -44.5t-22 -44.5t-54 -18.5q-31 0 -52.5 18.5zM405 820.5q-22 18.5 -22 44.5t22 44.5t53 18.5t53 -18.5t22 -44.5t-22 -44.5t-53 -18.5t-53 18.5zM349 432l166 300h157l-255 -444v-288h-145v289
l-266 443h171z" />
    <glyph glyph-name="Zacute" unicode="&#x179;" horiz-adv-x="591" 
d="M252 801l93 127h144l-124 -127h-113zM559 732v-80l-340 -522h354v-130h-556v81l341 522h-310v129h511z" />
    <glyph glyph-name="zacute" unicode="&#x17a;" horiz-adv-x="483" 
d="M185 583l90 165h140l-121 -165h-109zM443 517v-80l-236 -326h251v-111h-431v81l236 326h-212v110h392z" />
    <glyph glyph-name="Zdotaccent" unicode="&#x17b;" horiz-adv-x="591" 
d="M251 821q-22 19 -22 45q0 25 22 43.5t52 18.5q32 0 54 -18.5t22 -43.5q0 -26 -22 -45t-54 -19q-30 0 -52 19zM559 732v-80l-340 -522h354v-130h-556v81l341 522h-310v129h511z" />
    <glyph glyph-name="zdotaccent" unicode="&#x17c;" horiz-adv-x="483" 
d="M189.5 609.5q-24.5 25.5 -24.5 59.5q0 35 24 60t58 25t59 -25.5t25 -59.5t-25 -59.5t-59 -25.5q-33 0 -57.5 25.5zM443 517v-80l-236 -326h251v-111h-431v81l236 326h-212v110h392z" />
    <glyph glyph-name="Zcaron" unicode="&#x17d;" horiz-adv-x="591" 
d="M238 928l66 -62l64 62h122l-133 -128h-108l-133 128h122zM559 732v-80l-340 -522h354v-130h-556v81l341 522h-310v129h511z" />
    <glyph glyph-name="zcaron" unicode="&#x17e;" horiz-adv-x="483" 
d="M186 748l61 -79l60 79h120l-128 -165h-104l-128 165h119zM443 517v-80l-236 -326h251v-111h-431v81l236 326h-212v110h392z" />
    <glyph glyph-name="longs" unicode="&#x17f;" horiz-adv-x="383" 
d="M379 761q33 -13 53 -34l-53 -100q-29 26 -64 26q-78 0 -78 -122v-531h-141v402h-87v116h87v25q0 78 28.5 130t76 76.5t103.5 24.5q42 0 75 -13z" />
    <glyph glyph-name="uni018F" unicode="&#x18f;" horiz-adv-x="739" 
d="M532.5 702q76.5 -43 120 -128.5t43.5 -208.5q0 -121 -44.5 -206t-121.5 -128t-173 -43q-94 0 -164.5 41t-108.5 115.5t-38 172.5q0 46 9 97h485q-10 99 -57 150t-131 51q-60 0 -102.5 -28.5t-74.5 -85.5l-108 75q37 82 115 125.5t176 43.5t174.5 -43zM482 161
q45 44 56 128h-338q1 -85 43.5 -128.5t116.5 -43.5q77 0 122 44z" />
    <glyph glyph-name="florin" unicode="&#x192;" 
d="M436 599.5q-21 -24.5 -34 -81.5h150v-116h-171l-32 -181q-21 -122 -75.5 -177.5t-139.5 -55.5q-50 0 -89.5 16t-60.5 40l65 95q31 -30 70 -30q36 0 55.5 30.5t33.5 105.5l27 157h-110v116h131v2q23 122 80.5 173.5t143.5 51.5q96 0 141 -57l-65 -93q-14 14 -29.5 21.5
t-35.5 7.5q-34 0 -55 -24.5z" />
    <glyph glyph-name="Ohorn" unicode="&#x1a0;" horiz-adv-x="783" 
d="M711.5 525.5q29.5 -69.5 29.5 -158.5q0 -113 -46.5 -199t-126.5 -133t-177 -47t-176.5 47t-126 133t-46.5 199t47 198.5t129.5 132.5t185.5 47q31 0 83 -6q44 -7 82 -7q43 0 61.5 13.5t18.5 54.5q0 31 -7 60h116q7 -32 7 -69q0 -77 -31.5 -110.5t-104.5 -38.5
q53 -47 82.5 -116.5zM493.5 151.5q44.5 30.5 68.5 86.5t24 129t-24.5 128.5t-68.5 86t-102 30.5t-102.5 -30.5t-69 -86t-24.5 -128.5t24.5 -129t69 -86.5t102.5 -30.5t102.5 30.5z" />
    <glyph glyph-name="ohorn" unicode="&#x1a1;" horiz-adv-x="618" 
d="M587.5 466q-26.5 -33 -87.5 -38q31 -32 48 -76.5t17 -97.5q0 -79 -36.5 -139.5t-97 -93.5t-130.5 -33q-71 0 -132 33t-97.5 95t-36.5 143q0 82 37.5 143.5t101 95t140.5 33.5q24 0 75 -7q38 -6 57 -6q28 0 40 13t12 53q0 31 -7 62h116q7 -34 7 -69q0 -78 -26.5 -111z
M386.5 149.5q33.5 40.5 33.5 109.5q0 70 -33.5 110.5t-85.5 40.5q-53 0 -87.5 -41t-34.5 -110t34.5 -109.5t87.5 -40.5q52 0 85.5 40.5z" />
    <glyph glyph-name="Uhorn" unicode="&#x1af;" horiz-adv-x="759" 
d="M799 681q-32 -33 -109 -40v-345q0 -94 -37 -163.5t-107 -107t-166 -37.5q-97 0 -167 37.5t-107 107t-37 163.5v436h145v-401q0 -106 43.5 -158t122.5 -52q78 0 121 52t43 158v401h65q44 0 65.5 4.5t30.5 18.5t9 43q0 31 -7 62h117q7 -34 7 -69q0 -77 -32 -110z" />
    <glyph glyph-name="uhorn" unicode="&#x1b0;" horiz-adv-x="650" 
d="M648 466q-32 -33 -109 -39v-427h-123q-4 60 -8 81q-26 -47 -68 -70t-96 -23q-87 0 -137 56t-50 164v310h139v-264q0 -143 92 -143q50 0 81 39t31 109v259h68q40 1 59.5 6t27.5 18.5t8 41.5q0 31 -7 62h117q7 -34 7 -70q0 -77 -32 -110z" />
    <glyph glyph-name="uni01CD" unicode="&#x1cd;" horiz-adv-x="723" 
d="M302 928l65 -65l65 65h122l-133 -129h-108l-133 129h122zM420 732l296 -732h-154l-64 167h-285l-62 -167h-145l287 732h127zM451 291l-98 257l-95 -257h193z" />
    <glyph glyph-name="uni01CE" unicode="&#x1ce;" horiz-adv-x="564" 
d="M459 748l-128 -165h-104l-128 165h120l61 -80l60 80h119zM448 471.5q59 -59.5 59 -169.5v-302h-117q-1 8 -2.5 26.5t-4.5 32.5q-23 -36 -59.5 -53.5t-88.5 -17.5q-54 0 -98.5 19t-70.5 55.5t-26 86.5q0 52 29.5 90.5t79.5 59.5t110 21q54 0 111 -18q-3 115 -98 115
q-76 0 -111 -68l-99 57q28 58 86 91.5t136 33.5q105 0 164 -59.5zM370 210q-50 12 -87 12q-49 0 -76 -17.5t-27 -49.5q0 -29 21.5 -45t55.5 -16q45 0 79 25.5t34 70.5v20z" />
    <glyph glyph-name="uni01CF" unicode="&#x1cf;" horiz-adv-x="298" 
d="M84 928l66 -65l64 65h122l-132 -129h-109l-133 129h122zM222 0h-145v732h145v-732z" />
    <glyph glyph-name="uni01D0" unicode="&#x1d0;" horiz-adv-x="268" 
d="M74 748l61 -79l60 79h119l-128 -165h-104l-128 165h120zM65 0v518h139v-518h-139z" />
    <glyph glyph-name="uni01D1" unicode="&#x1d1;" horiz-adv-x="783" 
d="M326 928l65 -65l65 65h122l-133 -129h-108l-133 129h122zM88 568q46 86 125.5 131.5t177.5 45.5t177.5 -45.5t126 -131.5t46.5 -201q0 -116 -46.5 -202t-126 -131.5t-177.5 -45.5t-177.5 45.5t-125.5 131.5t-46 202q0 115 46 201zM219.5 238q24.5 -56 69 -86.5
t102.5 -30.5t102.5 30.5t69 86.5t24.5 129t-24.5 128.5t-69 86t-102.5 30.5t-102.5 -30.5t-69 -86t-24.5 -128.5t24.5 -129z" />
    <glyph glyph-name="uni01D2" unicode="&#x1d2;" 
d="M240 748l61 -80l60 80h120l-129 -165h-103l-129 165h120zM71.5 402q36.5 62 97.5 95.5t132 33.5q70 0 130.5 -33.5t97 -95.5t36.5 -143t-36.5 -143t-97 -95t-130.5 -33q-71 0 -132 33t-97.5 95t-36.5 143t36.5 143zM213.5 149.5q34.5 -40.5 86.5 -40.5t86 40.5t34 109.5
t-34 110t-86 41t-86.5 -41t-34.5 -110t34.5 -109.5z" />
    <glyph glyph-name="uni01D3" unicode="&#x1d3;" horiz-adv-x="759" 
d="M314 928l66 -65l64 65h122l-132 -129h-109l-133 129h122zM545 732h145v-436q0 -94 -37 -163.5t-107 -107t-166 -37.5q-97 0 -167 37.5t-107 107t-37 163.5v436h145v-401q0 -106 43.5 -158t122.5 -52q78 0 121.5 52t43.5 158v401z" />
    <glyph glyph-name="uni01D4" unicode="&#x1d4;" horiz-adv-x="604" 
d="M239 748l61 -79l60 79h120l-128 -165h-104l-128 165h119zM400 518h139v-518h-123q-4 60 -8 81q-26 -47 -68 -70t-96 -23q-87 0 -137 56t-50 164v310h139v-264q0 -143 92 -143q50 0 81 39t31 109v259z" />
    <glyph glyph-name="uni01D5" unicode="&#x1d5;" horiz-adv-x="759" 
d="M208 881v47h342v-47h-342zM214 786.5q-21 12.5 -21 30.5q0 17 21 29.5t52 12.5q32 0 54 -12.5t22 -29.5q0 -18 -22 -30.5t-54 -12.5q-31 0 -52 12.5zM438.5 786.5q-21.5 12.5 -21.5 30.5q0 17 21.5 29.5t52.5 12.5t53 -12.5t22 -29.5q0 -18 -22 -30.5t-53 -12.5
t-52.5 12.5zM545 732h145v-436q0 -94 -37 -163.5t-107 -107t-166 -37.5q-97 0 -167 37.5t-107 107t-37 163.5v436h145v-401q0 -106 43.5 -158t122.5 -52q78 0 121.5 52t43.5 158v401z" />
    <glyph glyph-name="uni01D6" unicode="&#x1d6;" horiz-adv-x="604" 
d="M129 796v95h342v-95h-342zM135.5 611.5q-21.5 22.5 -21.5 54.5t21.5 54.5t52.5 22.5q32 0 54 -22.5t22 -54.5t-22 -54.5t-54 -22.5q-31 0 -52.5 22.5zM359.5 612q-21.5 23 -21.5 54q0 32 21.5 54.5t52.5 22.5t53.5 -22.5t22.5 -54.5t-22.5 -54.5t-53.5 -22.5t-52.5 23z
M400 518h139v-518h-123q-4 60 -8 81q-26 -47 -68 -70t-96 -23q-87 0 -137 56t-50 164v310h139v-264q0 -143 92 -143q50 0 81 39t31 109v259z" />
    <glyph glyph-name="uni01D7" unicode="&#x1d7;" horiz-adv-x="759" 
d="M327 867l93 61h144l-123 -61h-114zM214 785.5q-21 11.5 -21 28.5t21.5 29t51.5 12q32 0 54 -12t22 -29t-22 -28.5t-54 -11.5q-31 0 -52 11.5zM438.5 785.5q-21.5 11.5 -21.5 28.5t21.5 29t52.5 12t53 -12t22 -29t-22 -28.5t-53 -11.5t-52.5 11.5zM545 732h145v-436
q0 -94 -37 -163.5t-107 -107t-166 -37.5q-97 0 -167 37.5t-107 107t-37 163.5v436h145v-401q0 -106 43.5 -158t122.5 -52q78 0 121.5 52t43.5 158v401z" />
    <glyph glyph-name="uni01D8" unicode="&#x1d8;" horiz-adv-x="604" 
d="M238 772l81 142h137l-109 -142h-109zM135.5 611.5q-21.5 22.5 -21.5 54.5t21.5 54.5t52.5 22.5q32 0 54 -22.5t22 -54.5t-22 -54.5t-54 -22.5q-31 0 -52.5 22.5zM359.5 612q-21.5 23 -21.5 54q0 32 21.5 54.5t52.5 22.5t53.5 -22.5t22.5 -54.5t-22.5 -54.5t-53.5 -22.5
t-52.5 23zM400 518h139v-518h-123q-4 60 -8 81q-26 -47 -68 -70t-96 -23q-87 0 -137 56t-50 164v310h139v-264q0 -143 92 -143q50 0 81 39t31 109v259z" />
    <glyph glyph-name="uni01D9" unicode="&#x1d9;" horiz-adv-x="759" 
d="M565 928l-132 -61h-109l-132 61h130l57 -26l56 26h130zM214 785.5q-21 11.5 -21 28.5t21.5 29t51.5 12q32 0 54 -12t22 -29t-22 -28.5t-54 -11.5q-31 0 -52 11.5zM438.5 785.5q-21.5 11.5 -21.5 28.5t21.5 29t52.5 12t53 -12t22 -29t-22 -28.5t-53 -11.5t-52.5 11.5z
M545 732h145v-436q0 -94 -37 -163.5t-107 -107t-166 -37.5q-97 0 -167 37.5t-107 107t-37 163.5v436h145v-401q0 -106 43.5 -158t122.5 -52q78 0 121.5 52t43.5 158v401z" />
    <glyph glyph-name="uni01DA" unicode="&#x1da;" horiz-adv-x="604" 
d="M240 914l60 -68l60 68h120l-128 -142h-104l-128 142h120zM135.5 611.5q-21.5 22.5 -21.5 54.5t21.5 54.5t52.5 22.5q32 0 54 -22.5t22 -54.5t-22 -54.5t-54 -22.5q-31 0 -52.5 22.5zM359.5 612q-21.5 23 -21.5 54q0 32 21.5 54.5t52.5 22.5t53.5 -22.5t22.5 -54.5
t-22.5 -54.5t-53.5 -22.5t-52.5 23zM400 518h139v-518h-123q-4 60 -8 81q-26 -47 -68 -70t-96 -23q-87 0 -137 56t-50 164v310h139v-264q0 -143 92 -143q50 0 81 39t31 109v259z" />
    <glyph glyph-name="uni01DB" unicode="&#x1db;" horiz-adv-x="759" 
d="M194 928h144l93 -61h-114zM214 785.5q-21 11.5 -21 28.5t21.5 29t51.5 12q32 0 54 -12t22 -29t-22 -28.5t-54 -11.5q-31 0 -52 11.5zM438.5 785.5q-21.5 11.5 -21.5 28.5t21.5 29t52.5 12t53 -12t22 -29t-22 -28.5t-53 -11.5t-52.5 11.5zM545 732h145v-436
q0 -94 -37 -163.5t-107 -107t-166 -37.5q-97 0 -167 37.5t-107 107t-37 163.5v436h145v-401q0 -106 43.5 -158t122.5 -52q78 0 121.5 52t43.5 158v401z" />
    <glyph glyph-name="uni01DC" unicode="&#x1dc;" horiz-adv-x="604" 
d="M145 914h137l81 -142h-110zM135.5 611.5q-21.5 22.5 -21.5 54.5t21.5 54.5t52.5 22.5q32 0 54 -22.5t22 -54.5t-22 -54.5t-54 -22.5q-31 0 -52.5 22.5zM359.5 612q-21.5 23 -21.5 54q0 32 21.5 54.5t52.5 22.5t53.5 -22.5t22.5 -54.5t-22.5 -54.5t-53.5 -22.5t-52.5 23z
M400 518h139v-518h-123q-4 60 -8 81q-26 -47 -68 -70t-96 -23q-87 0 -137 56t-50 164v310h139v-264q0 -143 92 -143q50 0 81 39t31 109v259z" />
    <glyph glyph-name="uni01E5" unicode="&#x1e5;" horiz-adv-x="668" 
d="M564 313h90v-107h-90v-153q0 -157 -79 -227t-196 -70q-85 0 -149.5 36t-91.5 100l107 61q39 -75 134 -75q74 0 104.5 43.5t31.5 140.5q-52 -74 -150 -74q-63 0 -118 32.5t-88.5 94t-33.5 144.5q0 84 33.5 145.5t88.5 94t118 32.5q51 0 92 -22t67 -67q7 41 8 76h122v-205z
M374 131.5q33 24.5 44 74.5h-105v107h104q-11 48 -43.5 71t-72.5 23q-55 0 -88.5 -39t-33.5 -109t33.5 -111t88.5 -41q40 0 73 24.5z" />
    <glyph glyph-name="gcaron" unicode="&#x1e7;" horiz-adv-x="624" 
d="M478 748l-129 -165h-103l-128 165h119l61 -79l60 79h120zM564 518v-465q0 -157 -79 -227t-196 -70q-85 0 -149.5 36t-91.5 100l107 61q39 -75 134 -75q74 0 104.5 43.5t31.5 140.5q-52 -74 -150 -74q-63 0 -118 32.5t-88.5 94t-33.5 144.5q0 84 33.5 145.5t88.5 94
t118 32.5q51 0 92 -22t67 -67q7 41 8 76h122zM389 145q36 38 36 114q0 75 -36 111.5t-88 36.5q-55 0 -88.5 -39t-33.5 -109t33.5 -111t88.5 -41q52 0 88 38z" />
    <glyph glyph-name="uni01E9" unicode="&#x1e9;" horiz-adv-x="581" 
d="M74 928l61 -54l59 54h120l-128 -115h-104l-128 115h120zM376 311l209 -311h-167l-136 206l-78 -86v-120h-139v761h139v-472l197 229h161z" />
    <glyph glyph-name="uni01EF" unicode="&#x1ef;" horiz-adv-x="512" 
d="M184 748l61 -79l61 79h119l-128 -165h-104l-128 165h119zM288 228q98 -14 151.5 -75t53.5 -152q0 -77 -36.5 -132.5t-97.5 -84t-135 -28.5q-89 0 -154.5 42.5t-93.5 124.5l108 62q19 -53 56 -81t87 -28q56 0 89 34t33 89q0 57 -40 89t-116 32q-32 0 -70 -6v106l163 183
h-266v115h449v-98z" />
    <glyph glyph-name="uni01F0" unicode="&#x1f0;" horiz-adv-x="267" 
d="M73 748l61 -79l60 79h120l-129 -165h-103l-129 165h120zM-83.5 -229.5q-39.5 14.5 -64.5 41.5l75 95q25 -30 60 -30q39 0 58.5 29t19.5 92v520h139v-531q0 -78 -28.5 -130t-75.5 -76.5t-102 -24.5q-42 0 -81.5 14.5z" />
    <glyph glyph-name="uni01F9" unicode="&#x1f9;" horiz-adv-x="604" 
d="M139 748h140l89 -165h-109zM498 474.5q50 -56.5 50 -164.5v-310h-139v265q0 142 -94 142q-50 0 -80.5 -38.5t-30.5 -108.5v-260h-139v518h122q5 -61 9 -83q50 96 166 96q86 0 136 -56.5z" />
    <glyph glyph-name="Aringacute" unicode="&#x1fa;" horiz-adv-x="723" 
d="M308 872l84 56h137l-112 -56h-109zM288 842q31 13 79 13t78 -13t30 -33t-30 -33t-78 -13t-79 13t-31 33t31 33zM338 799q11 -4 29 -4q17 0 27.5 4t10.5 9q0 6 -10 10t-28 4t-29 -4t-11 -10q0 -5 11 -9zM420 732l296 -732h-154l-64 167h-285l-62 -167h-145l287 732h127z
M451 291l-98 257l-95 -257h193z" />
    <glyph glyph-name="aringacute" unicode="&#x1fb;" horiz-adv-x="564" 
d="M304 928h137l-112 -122h-109zM201 597q-32 28 -32 72q0 42 32 70.5t79 28.5q46 0 76.5 -28t30.5 -71q0 -44 -30 -72t-77 -28t-79 28zM249 698q-12 -11 -12 -29q0 -19 12 -30.5t31 -11.5q18 0 29 11.5t11 30.5q0 18 -11 29t-29 11q-19 0 -31 -11zM448 471.5
q59 -59.5 59 -169.5v-302h-117q-1 8 -2.5 26.5t-4.5 32.5q-23 -36 -59.5 -53.5t-88.5 -17.5q-54 0 -98.5 19t-70.5 55.5t-26 86.5q0 52 29.5 90.5t79.5 59.5t110 21q54 0 111 -18q-3 115 -98 115q-76 0 -111 -68l-99 57q28 58 86 91.5t136 33.5q105 0 164 -59.5zM370 210
q-50 12 -87 12q-49 0 -76 -17.5t-27 -49.5q0 -29 21.5 -45t55.5 -16q45 0 79 25.5t34 70.5v20z" />
    <glyph glyph-name="AEacute" unicode="&#x1fc;" horiz-adv-x="1053" 
d="M596 801l93 127h144l-123 -127h-114zM964 309h-297v-182h343v-127h-489v169h-253l-105 -169h-162l472 732h526v-126h-332v-172h297v-125zM521 293v288l-177 -288h177z" />
    <glyph glyph-name="aeacute" unicode="&#x1fd;" horiz-adv-x="892" 
d="M481 748h140l-120 -165h-110zM755 500.5q52 -30.5 81 -86t29 -127.5q0 -32 -6 -65h-344q9 -58 42 -87.5t82 -29.5q35 0 62 15.5t42 46.5l103 -60q-22 -57 -81 -88t-132 -31q-61 0 -110 24t-81 70q-51 -94 -187 -94q-94 0 -154.5 43t-60.5 118q0 52 28.5 90.5t78.5 59.5
t111 21q55 0 114 -18q-6 115 -103 115q-73 0 -108 -69l-99 58q23 58 80 91.5t132 33.5q61 0 105 -22.5t70 -64.5q33 43 81.5 65t104.5 22q68 0 120 -30.5zM723 319q-4 48 -30.5 73.5t-66.5 25.5q-41 0 -70.5 -26t-39.5 -73h207zM373 210q-52 12 -92 12q-49 0 -75 -17.5
t-26 -47.5t23 -46.5t59 -16.5q46 0 78.5 25.5t32.5 70.5v20z" />
    <glyph glyph-name="Oslashacute" unicode="&#x1fe;" horiz-adv-x="785" 
d="M341 800l93 128h144l-123 -128h-114zM596 768h147l-94 -136q44 -50 68.5 -117.5t24.5 -147.5q0 -113 -46.5 -199t-126 -133t-176.5 -47q-89 0 -161 40l-43 -63h-147l94 136q-44 50 -68 117.5t-24 148.5q0 112 46.5 198t126 133t176.5 47q86 0 160 -40zM222 228l253 363
q-36 21 -82 21q-60 0 -105.5 -30.5t-71 -86t-25.5 -128.5q0 -79 31 -139zM562 505l-252 -363q36 -21 83 -21q59 0 104.5 30.5t70.5 86.5t25 129q0 79 -31 138z" />
    <glyph glyph-name="oslashacute" unicode="&#x1ff;" horiz-adv-x="597" 
d="M239 583l89 165h140l-120 -165h-109zM447 553h118l-72 -103q34 -36 53 -84.5t19 -106.5q0 -81 -36.5 -143t-97 -95t-130.5 -33q-59 0 -114 25l-34 -48h-118l73 104q-35 35 -54 83.5t-19 106.5q0 81 36.5 143t97.5 95.5t132 33.5q58 0 113 -25zM188 183l152 219
q-18 8 -39 8q-56 0 -93 -41t-37 -110q0 -44 17 -76zM412 336l-152 -218q18 -9 41 -9q55 0 91 40.5t36 109.5q0 46 -16 77z" />
    <glyph glyph-name="uni0218" unicode="&#x218;" horiz-adv-x="592" 
d="M532.5 86.5q-38.5 -50.5 -100 -74.5t-131.5 -24q-102 0 -184 47.5t-109 134.5l118 67q24 -56 70 -87t110 -31q52 0 82.5 21t30.5 61q0 32 -20.5 53t-51 33t-83.5 28q-71 21 -116 41.5t-77 61.5t-32 108q0 71 37.5 120.5t99 74t132.5 24.5q97 0 166 -44t89 -119l-118 -67
q-18 47 -54 73.5t-90 26.5q-49 0 -79.5 -22.5t-30.5 -59.5q0 -28 19 -46.5t48.5 -30t79.5 -26.5q72 -21 119 -42.5t80.5 -64t33.5 -111.5q0 -75 -38.5 -125.5zM344.5 -55q23.5 -22 23.5 -65q0 -56 -40.5 -88t-115.5 -36v54q63 9 75 41h-6q-33 0 -52.5 15t-19.5 41
q0 27 20.5 43.5t52.5 16.5q39 0 62.5 -22z" />
    <glyph glyph-name="uni0219" unicode="&#x219;" horiz-adv-x="468" 
d="M200 336.5q24 -12.5 75 -26.5q54 -15 89 -30t60 -45.5t25 -80.5q0 -77 -59.5 -121.5t-154.5 -44.5q-82 0 -141.5 35t-80.5 97l101 59q15 -37 47 -57.5t75 -20.5q32 0 51 12t19 34q0 25 -25 38.5t-78 28.5q-53 16 -86.5 31t-58 43.5t-24.5 74.5q0 52 28.5 90t76.5 58
t105 20q78 0 132 -33.5t68 -88.5l-101 -57q-30 65 -101 65q-30 0 -48 -11.5t-18 -32.5q0 -24 24 -36.5zM291 -55q24 -22 24 -65q0 -55 -40.5 -87.5t-115.5 -36.5v54q31 5 49.5 14.5t24.5 26.5h-5q-33 0 -52.5 15t-19.5 41q0 27 20.5 43.5t52.5 16.5q38 0 62 -22z" />
    <glyph glyph-name="uni021A" unicode="&#x21a;" horiz-adv-x="607" 
d="M230 603h-222v129h590v-129h-222v-603h-146v603zM362 -55q24 -22 24 -65q0 -56 -40.5 -88t-115.5 -36v54q63 10 74 41h-5q-33 0 -52.5 15t-19.5 41q0 27 20.5 43.5t52.5 16.5q38 0 62 -22z" />
    <glyph glyph-name="uni021B" unicode="&#x21b;" horiz-adv-x="423" 
d="M425 30q-51 -42 -142 -42q-84 0 -135.5 44.5t-51.5 159.5v209h-92v117h92v159h139v-159h156v-117h-156v-186q0 -52 18 -79t58 -27q35 0 66 21zM316.5 -55q23.5 -22 23.5 -65q0 -55 -40.5 -87.5t-115.5 -36.5v54q32 5 50.5 14.5t24.5 26.5h-6q-33 0 -52.5 15t-19.5 41
q0 27 20.5 43.5t52.5 16.5q39 0 62.5 -22z" />
    <glyph glyph-name="uni021F" unicode="&#x21f;" horiz-adv-x="604" 
d="M74 928l61 -54l59 54h120l-128 -115h-104l-128 115h120zM497.5 474.5q50.5 -56.5 50.5 -164.5v-310h-139v265q0 142 -94 142q-50 0 -80.5 -38.5t-30.5 -108.5v-260h-139v761h139v-312q50 82 158 82q85 0 135.5 -56.5z" />
    <glyph glyph-name="uni0237" unicode="&#x237;" horiz-adv-x="267" 
d="M-83.5 -229.5q-39.5 14.5 -64.5 41.5l75 95q25 -30 60 -30q39 0 58.5 29t19.5 92v520h139v-531q0 -78 -28.5 -130t-75.5 -76.5t-102 -24.5q-42 0 -81.5 14.5z" />
    <glyph glyph-name="uni0251" unicode="&#x251;" horiz-adv-x="629" 
d="M564 518v-518h-122q-5 58 -8 78q-27 -45 -70.5 -67.5t-94.5 -22.5q-64 0 -117 32t-85 93.5t-32 145.5q0 85 32 146.5t85 93.5t117 32q52 0 95 -22.5t70 -67.5q3 21 8 77h122zM389 145q36 38 36 114q0 75 -36 111.5t-88 36.5q-55 0 -88.5 -39t-33.5 -109t33.5 -111
t88.5 -41q52 0 88 38z" />
    <glyph glyph-name="uni0259" unicode="&#x259;" horiz-adv-x="557" 
d="M389 500q60 -31 96.5 -93t36.5 -150q0 -85 -36.5 -146t-95.5 -92t-128 -31t-122.5 31t-83 86.5t-29.5 127.5q0 31 6 64h344q-9 57 -42 87t-82 30q-35 0 -62 -15.5t-42 -46.5l-103 60q22 57 81 88t132 31q70 0 130 -31zM336.5 126.5q29.5 25.5 39.5 72.5h-207
q4 -47 31 -72.5t66 -25.5q41 0 70.5 25.5z" />
    <glyph glyph-name="uni0261" unicode="&#x261;" horiz-adv-x="624" 
d="M564 518v-465q0 -157 -79 -227t-196 -70q-85 0 -149.5 36t-91.5 100l107 61q39 -75 134 -75q74 0 104.5 43.5t31.5 140.5q-52 -74 -150 -74q-63 0 -118 32.5t-88.5 94t-33.5 144.5q0 84 33.5 145.5t88.5 94t118 32.5q51 0 92 -22t67 -67q7 41 8 76h122zM389 145
q36 38 36 114q0 75 -36 111.5t-88 36.5q-55 0 -88.5 -39t-33.5 -109t33.5 -111t88.5 -41q52 0 88 38z" />
    <glyph glyph-name="uni0292" unicode="&#x292;" horiz-adv-x="512" 
d="M288 228q98 -14 151.5 -75t53.5 -152q0 -77 -36.5 -132.5t-97.5 -84t-135 -28.5q-89 0 -154.5 42.5t-93.5 124.5l108 62q19 -53 56 -81t87 -28q56 0 89 34t33 89q0 57 -40 89t-116 32q-32 0 -70 -6v106l163 183h-266v115h449v-98z" />
    <glyph glyph-name="uni02BB" unicode="&#x2bb;" horiz-adv-x="257" 
d="M62.5 510q-27.5 31 -27.5 92q0 57 24 104t66 77.5t93 39.5v-73q-88 -22 -97 -102q1 1 5 1q35 0 58.5 -25t23.5 -60q0 -36 -22.5 -60.5t-56.5 -24.5q-39 0 -66.5 31z" />
    <glyph glyph-name="uni02BC" unicode="&#x2bc;" horiz-adv-x="277" 
d="M204.5 792q27.5 -31 27.5 -92q0 -57 -24 -104t-66 -77.5t-93 -39.5v73q88 22 97 102q-1 -1 -5 -1q-35 0 -58 25t-23 60q0 36 22 60.5t56 24.5q39 0 66.5 -31z" />
    <glyph glyph-name="circumflex" unicode="&#x2c6;" horiz-adv-x="467" 
d="M181 748h104l129 -165h-120l-60 79l-61 -79h-120z" />
    <glyph glyph-name="caron" unicode="&#x2c7;" horiz-adv-x="466" 
d="M173 748l61 -79l60 79h119l-128 -165h-104l-128 165h120z" />
    <glyph glyph-name="uni02C9" unicode="&#x2c9;" horiz-adv-x="430" 
d="M43 831v95h342v-95h-342z" />
    <glyph glyph-name="uni02CA" unicode="&#x2ca;" horiz-adv-x="368" 
d="M44 800l93 128h144l-124 -128h-113z" />
    <glyph glyph-name="uni02CB" unicode="&#x2cb;" horiz-adv-x="352" 
d="M48 928h144l93 -128h-113z" />
    <glyph glyph-name="breve" unicode="&#x2d8;" horiz-adv-x="490" 
d="M116.5 627.5q-48.5 44.5 -48.5 120.5h108q3 -37 20.5 -57.5t48.5 -20.5q64 0 70 78h108q0 -76 -48.5 -120.5t-129.5 -44.5q-80 0 -128.5 44.5z" />
    <glyph glyph-name="dotaccent" unicode="&#x2d9;" horiz-adv-x="258" 
d="M70.5 609.5q-24.5 25.5 -24.5 59.5q0 35 24.5 60t58.5 25t58.5 -25t24.5 -60q0 -34 -24.5 -59.5t-58.5 -25.5t-58.5 25.5z" />
    <glyph glyph-name="ring" unicode="&#x2da;" horiz-adv-x="338" 
d="M84.5 775q34.5 34 85.5 34t84.5 -33.5t33.5 -85.5t-33.5 -85.5t-84.5 -33.5t-85.5 33.5t-34.5 85.5q0 51 34.5 85zM136.5 655q12.5 -14 33.5 -14q20 0 32 14t12 35q0 22 -12 35t-32 13q-21 0 -33.5 -13t-12.5 -35q0 -21 12.5 -35z" />
    <glyph glyph-name="ogonek" unicode="&#x2db;" horiz-adv-x="363" 
d="M298 -190q-25 -27 -56.5 -40.5t-73.5 -13.5q-61 0 -100 29t-39 85t40 97.5t111 80.5l56 -49q-55 -29 -81.5 -55.5t-26.5 -57.5q0 -22 13.5 -33t35.5 -11q40 0 77 35z" />
    <glyph glyph-name="tilde" unicode="&#x2dc;" horiz-adv-x="490" 
d="M53 599q2 67 35.5 108t87.5 41q32 0 52.5 -11.5t40.5 -32.5q13 -12 21 -18t17 -6q26 0 35 53h95q-2 -67 -35.5 -108t-87.5 -41q-32 0 -52.5 12t-40.5 33q-13 13 -21 18.5t-17 5.5q-26 0 -35 -54h-95z" />
    <glyph glyph-name="hungarumlaut" unicode="&#x2dd;" horiz-adv-x="534" 
d="M28 583l89 165h131l-121 -165h-99zM205 583l90 165h131l-121 -165h-100z" />
    <glyph glyph-name="uni02F3" unicode="&#x2f3;" horiz-adv-x="600" 
d="M131 131.5q18 31.5 49 50t69 18.5q36 0 67 -18.5t49 -50.5t18 -69q0 -38 -17.5 -69t-48.5 -49.5t-68 -18.5q-38 0 -69 18.5t-49 49.5t-18 69t18 69.5zM191.5 2.5q22.5 -23.5 57.5 -23.5q34 0 55.5 23.5t21.5 59.5t-22 60t-55 24q-35 0 -57.5 -24t-22.5 -60t22.5 -59.5z
" />
    <glyph glyph-name="gravecomb" unicode="&#x300;" horiz-adv-x="0" 
d="M-287 748h140l90 -165h-109z" />
    <glyph glyph-name="acutecomb" unicode="&#x301;" horiz-adv-x="0" 
d="M-288 583l90 165h140l-120 -165h-110z" />
    <glyph glyph-name="uni0302" unicode="&#x302;" horiz-adv-x="0" 
d="M-286 748h104l129 -165h-120l-60 79l-61 -79h-120z" />
    <glyph glyph-name="tildecomb" unicode="&#x303;" horiz-adv-x="0" 
d="M-437 599q2 67 35.5 108t87.5 41q32 0 52.5 -12t40.5 -32q13 -12 21 -18t17 -6q26 0 35 53h95q-2 -67 -35.5 -108t-87.5 -41q-32 0 -52.5 12t-40.5 33q-13 13 -21 18.5t-17 5.5q-26 0 -35 -54h-95z" />
    <glyph glyph-name="uni0304" unicode="&#x304;" horiz-adv-x="0" 
d="M-387 616v95h342v-95h-342z" />
    <glyph glyph-name="uni0306" unicode="&#x306;" horiz-adv-x="0" 
d="M-373.5 627.5q-48.5 44.5 -48.5 120.5h108q3 -37 20.5 -57.5t48.5 -20.5q63 0 70 78h108q0 -76 -48.5 -120.5t-129.5 -44.5q-80 0 -128.5 44.5z" />
    <glyph glyph-name="uni0307" unicode="&#x307;" horiz-adv-x="0" 
d="M-187.5 609.5q-24.5 25.5 -24.5 59.5q0 35 24.5 60t58.5 25t58.5 -25t24.5 -60q0 -34 -24.5 -59.5t-58.5 -25.5t-58.5 25.5z" />
    <glyph glyph-name="uni0308" unicode="&#x308;" horiz-adv-x="0" 
d="M-345.5 611.5q-21.5 22.5 -21.5 54.5t21.5 54.5t52.5 22.5q32 0 54 -22.5t22 -54.5t-22 -54.5t-54 -22.5q-31 0 -52.5 22.5zM-121 612q-22 23 -22 54q0 32 22 54.5t53 22.5t53 -22.5t22 -54.5t-22 -54.5t-53 -22.5t-53 23z" />
    <glyph glyph-name="hookabovecomb" unicode="&#x309;" horiz-adv-x="0" 
d="M-547 754q41 29 103 29q55 0 90.5 -25t35.5 -75q0 -85 -117 -123l-48 63q32 11 48.5 23t16.5 28q0 14 -11.5 22t-30.5 8q-31 0 -69 -24z" />
    <glyph glyph-name="uni030A" unicode="&#x30a;" horiz-adv-x="0" 
d="M-253.5 775q34.5 34 85.5 34t84.5 -33.5t33.5 -85.5t-33.5 -85.5t-84.5 -33.5t-85.5 33.5t-34.5 85.5q0 51 34.5 85zM-201.5 655q12.5 -14 33.5 -14q20 0 32 14t12 35q0 22 -12 35t-32 13q-21 0 -33.5 -13t-12.5 -35q0 -21 12.5 -35z" />
    <glyph glyph-name="uni030C" unicode="&#x30c;" horiz-adv-x="0" 
d="M-293 748l61 -79l60 79h119l-128 -165h-104l-128 165h120z" />
    <glyph glyph-name="uni030F" unicode="&#x30f;" horiz-adv-x="0" 
d="M-572 748h130l90 -165h-100zM-395 748h131l90 -165h-100z" />
    <glyph glyph-name="dotbelowcomb" unicode="&#x323;" horiz-adv-x="0" 
d="M-195 -197.5q-24 24.5 -24 57.5t24 57t58 24t59 -24t25 -57t-25 -57.5t-59 -24.5t-58 24.5z" />
    <glyph glyph-name="uni0326" unicode="&#x326;" horiz-adv-x="0" 
d="M-73.5 -55q23.5 -22 23.5 -65q0 -56 -40.5 -88t-115.5 -36v54q63 9 74 41h-5q-33 0 -52.5 15t-19.5 41q0 27 20.5 43.5t52.5 16.5q39 0 62.5 -22z" />
    <glyph glyph-name="uni0327" unicode="&#x327;" horiz-adv-x="0" 
d="M-220 27h93l-36 -86q48 0 79 -22.5t31 -64.5q0 -50 -42 -74t-103 -24q-39 0 -82 12v70q36 -11 77 -11q54 0 54 24q0 12 -14 19t-38 7q-29 0 -57 -8l-9 48z" />
    <glyph glyph-name="uni0335" unicode="&#x335;" horiz-adv-x="0" 
d="M-387 607v95h342v-95h-342z" />
    <glyph glyph-name="uni0338" unicode="&#x338;" horiz-adv-x="0" 
d="M-510 -232l365 964h134l-364 -964h-135z" />
    <glyph glyph-name="uni037E" unicode="&#x37e;" horiz-adv-x="296" 
d="M92 386q-24 25 -24 60t24 60t58 25q35 0 59.5 -25t24.5 -60t-24.5 -60t-59.5 -25q-34 0 -58 25zM211 125q27 -31 27 -92q0 -57 -24 -104t-65.5 -77.5t-92.5 -39.5v73q43 11 68 36.5t29 65.5q-2 -1 -6 -1q-35 0 -58 25t-23 60q0 36 22 60.5t57 24.5q39 0 66 -31z" />
    <glyph glyph-name="tonos" unicode="&#x384;" horiz-adv-x="327" 
d="M58 583l70 165h140l-100 -165h-110z" />
    <glyph glyph-name="dieresistonos" unicode="&#x385;" horiz-adv-x="600" 
d="M211 583l34 165h113l-60 -165h-87zM73.5 615.5q-19.5 20.5 -19.5 50.5q0 29 19.5 50t48.5 21t49.5 -21t20.5 -50t-20.5 -50t-49.5 -21t-48.5 20.5zM385.5 616q-20.5 21 -20.5 50t20.5 50t49.5 21q28 0 48.5 -21t20.5 -50t-20.5 -50t-48.5 -21q-29 0 -49.5 21z" />
    <glyph glyph-name="Alphatonos" unicode="&#x386;" horiz-adv-x="723" 
d="M53 568l38 165h126l-69 -165h-95zM420 732l296 -732h-154l-64 167h-285l-62 -167h-145l287 732h127zM451 291l-98 257l-95 -257h193z" />
    <glyph glyph-name="anoteleia" unicode="&#x387;" horiz-adv-x="263" 
d="M73 302q-24 25 -24 60t24 60t58 25q35 0 59.5 -25t24.5 -60t-24.5 -60t-59.5 -25q-34 0 -58 25z" />
    <glyph glyph-name="Epsilontonos" unicode="&#x388;" horiz-adv-x="741" 
d="M5 567l38 165h127l-69 -165h-96zM652 309h-298v-182h344v-127h-489v732h477v-126h-332v-172h298v-125z" />
    <glyph glyph-name="Etatonos" unicode="&#x389;" horiz-adv-x="908" 
d="M5 567l38 165h127l-69 -165h-96zM354 444h331v288h145v-732h-145v315h-331v-315h-145v732h145v-288z" />
    <glyph glyph-name="Iotatonos" unicode="&#x38a;" horiz-adv-x="432" 
d="M5 567l38 165h127l-69 -165h-96zM354 0h-145v732h145v-732z" />
    <glyph glyph-name="Omicrontonos" unicode="&#x38c;" horiz-adv-x="857" 
d="M162.5 568q46.5 86 126 131.5t177.5 45.5q97 0 176.5 -45.5t126 -131.5t46.5 -201q0 -116 -46.5 -202t-126 -131.5t-176.5 -45.5q-98 0 -177.5 45.5t-126 131.5t-46.5 202q0 115 46.5 201zM-4 568l39 165h126l-69 -165h-96zM293.5 238q24.5 -56 69.5 -86.5t103 -30.5
t102 30.5t68.5 86.5t24.5 129t-24.5 128.5t-68.5 86t-102 30.5t-102.5 -30.5t-69.5 -86t-25 -128.5t24.5 -129z" />
    <glyph glyph-name="Upsilontonos" unicode="&#x38e;" horiz-adv-x="845" 
d="M2 568l39 165h126l-69 -165h-96zM516 432l166 300h157l-254 -443v-289h-147v289l-265 443h170z" />
    <glyph glyph-name="Omegatonos" unicode="&#x38f;" horiz-adv-x="858" 
d="M828 129v-129h-305v145q65 35 100 97.5t35 145.5q0 103 -50.5 163.5t-136.5 60.5t-136.5 -60.5t-50.5 -163.5q0 -83 35.5 -145.5t99.5 -97.5v-145h-304v129h145q-128 96 -128 268q0 105 45 184t122.5 121.5t171.5 42.5q95 0 172.5 -42.5t122.5 -121.5t45 -184
q0 -172 -128 -268h145zM7 568l38 165h126l-69 -165h-95z" />
    <glyph glyph-name="iotadieresistonos" unicode="&#x390;" horiz-adv-x="307" 
d="M73 583l33 165h113l-60 -165h-86zM-65 616q-20 21 -20 50t20 50t48 21q30 0 50 -21t20 -50q0 -30 -20 -50.5t-50 -20.5q-28 0 -48 21zM247 616q-20 21 -20 50t20 50t49 21q28 0 48.5 -21t20.5 -50t-20.5 -50t-48.5 -21q-29 0 -49 21zM309 9q-42 -21 -104 -21
q-75 0 -111 39t-36 125v366h138v-345q0 -34 12.5 -48t37.5 -14q23 0 46 11z" />
    <glyph glyph-name="Alpha" unicode="&#x391;" horiz-adv-x="723" 
d="M420 732l296 -732h-154l-64 167h-285l-62 -167h-145l287 732h127zM451 291l-98 257l-95 -257h193z" />
    <glyph glyph-name="Beta" unicode="&#x392;" horiz-adv-x="680" 
d="M645 211q0 -99 -72.5 -155t-203.5 -56h-292v732h265q117 0 190.5 -53.5t73.5 -150.5q0 -101 -82 -148q121 -43 121 -169zM219 606v-173h109q59 0 93 24.5t34 65.5q0 40 -33.5 61.5t-93.5 21.5h-109zM356 126q67 0 102 24t35 68t-35 69t-102 25h-137v-186h137z" />
    <glyph glyph-name="Gamma" unicode="&#x393;" horiz-adv-x="562" 
d="M77 732h477v-129h-332v-603h-145v732z" />
    <glyph glyph-name="uni0394" unicode="&#x394;" horiz-adv-x="718" 
d="M290 732h127l286 -657v-75h-688v75zM179 123h349l-178 430z" />
    <glyph glyph-name="Epsilon" unicode="&#x395;" horiz-adv-x="608" 
d="M519 309h-297v-182h343v-127h-488v732h477v-126h-332v-172h297v-125z" />
    <glyph glyph-name="Zeta" unicode="&#x396;" horiz-adv-x="591" 
d="M559 732v-80l-340 -522h354v-130h-556v81l341 522h-310v129h511z" />
    <glyph glyph-name="Eta" unicode="&#x397;" horiz-adv-x="774" 
d="M222 444h330v288h146v-732h-146v315h-330v-315h-145v732h145v-288z" />
    <glyph glyph-name="Theta" unicode="&#x398;" horiz-adv-x="789" 
d="M88.5 565q46.5 86 127.5 133t180 47t180 -47t128 -133t47 -198q0 -113 -47 -199t-128 -133t-180 -47q-100 0 -180.5 46.5t-127 133t-46.5 199.5q0 112 46.5 198zM219.5 237q25.5 -56 71 -86.5t105.5 -30.5t105.5 30.5t70.5 86.5t25 130q0 73 -25 129t-71 86.5t-105 30.5
t-105 -30.5t-71.5 -86.5t-25.5 -129q0 -74 25.5 -130zM508 306h-225v128h225v-128z" />
    <glyph glyph-name="Iota" unicode="&#x399;" horiz-adv-x="298" 
d="M222 0h-145v732h145v-732z" />
    <glyph glyph-name="Kappa" unicode="&#x39a;" horiz-adv-x="742" 
d="M426 433l311 -433h-187l-228 322l-100 -107v-215h-145v732h145v-341l304 341h181z" />
    <glyph glyph-name="Lambda" unicode="&#x39b;" horiz-adv-x="717" 
d="M545 0l-195 529l-188 -529h-156l286 732h123l295 -732h-165z" />
    <glyph glyph-name="Mu" unicode="&#x39c;" horiz-adv-x="878" 
d="M691 732h110v-732h-138v472l-186 -277h-76l-187 279v-474h-137v732h115l250 -379z" />
    <glyph glyph-name="Nu" unicode="&#x39d;" horiz-adv-x="760" 
d="M194 732l355 -484v484h135v-732h-118l-356 485v-485h-133v732h117z" />
    <glyph glyph-name="Xi" unicode="&#x39e;" horiz-adv-x="639" 
d="M593 603h-547v129h547v-129zM551 307h-463v129h463v-129zM593 0h-547v130h547v-130z" />
    <glyph glyph-name="Omicron" unicode="&#x39f;" horiz-adv-x="783" 
d="M88 568q46 86 125.5 131.5t177.5 45.5t177.5 -45.5t126 -131.5t46.5 -201q0 -116 -46.5 -202t-126 -131.5t-177.5 -45.5t-177.5 45.5t-125.5 131.5t-46 202q0 115 46 201zM219.5 238q24.5 -56 69 -86.5t102.5 -30.5t102.5 30.5t68.5 86.5t24 129t-24.5 128.5t-68.5 86
t-102 30.5t-102.5 -30.5t-69 -86t-24.5 -128.5t24.5 -129z" />
    <glyph glyph-name="Pi" unicode="&#x3a0;" horiz-adv-x="769" 
d="M77 732h615v-732h-145v603h-325v-603h-145v732z" />
    <glyph glyph-name="Rho" unicode="&#x3a1;" horiz-adv-x="637" 
d="M329 732q87 0 152 -30t100.5 -84.5t35.5 -127.5q0 -72 -35.5 -126.5t-100.5 -84t-152 -29.5h-107v-250h-145v732h252zM312 373q68 0 109.5 29.5t41.5 87.5t-41.5 88.5t-109.5 30.5h-90v-236h90z" />
    <glyph glyph-name="Sigma" unicode="&#x3a3;" horiz-adv-x="584" 
d="M225 603l197 -232l-212 -241h352v-130h-539v114l226 255l-212 249v114h508v-129h-320z" />
    <glyph glyph-name="Tau" unicode="&#x3a4;" horiz-adv-x="608" 
d="M8 732h592v-129h-223v-603h-147v603h-222v129z" />
    <glyph glyph-name="Upsilon" unicode="&#x3a5;" horiz-adv-x="678" 
d="M349 432l166 300h157l-254 -443v-289h-147v289l-265 443h171z" />
    <glyph glyph-name="Phi" unicode="&#x3a6;" horiz-adv-x="845" 
d="M770.5 224q-42.5 -62 -114.5 -99.5t-162 -48.5v-76h-142v76q-90 10 -162.5 47t-115 99.5t-42.5 144.5q0 81 42.5 143t115 99.5t162.5 47.5v75h142v-75q90 -11 162.5 -48t114.5 -99t42 -143t-42.5 -143zM228 262q45 -39 124 -51v312q-78 -12 -123.5 -51t-45.5 -105
t45 -105zM494 211q78 12 122.5 51t44.5 105q0 65 -45 104.5t-122 51.5v-312z" />
    <glyph glyph-name="Chi" unicode="&#x3a7;" horiz-adv-x="715" 
d="M698 732l-257 -357l269 -375h-180l-178 257l-179 -257h-168l268 372l-256 360h177l168 -242l168 242h168z" />
    <glyph glyph-name="Psi" unicode="&#x3a8;" horiz-adv-x="850" 
d="M658 732h144v-241q0 -145 -82 -223.5t-225 -94.5v-173h-143v173q-142 16 -223.5 94.5t-81.5 223.5v241h144v-209q0 -104 42 -153.5t119 -61.5v424h143v-424q78 11 120.5 60.5t42.5 154.5v209z" />
    <glyph glyph-name="uni03A9" unicode="&#x3a9;" horiz-adv-x="773" 
d="M743 129v-129h-304v145q65 35 100 97.5t35 145.5q0 103 -50.5 163.5t-136.5 60.5t-136.5 -60.5t-50.5 -163.5q0 -83 35 -145.5t100 -97.5v-145h-305v129h145q-128 97 -128 268q0 105 45 184t122.5 121.5t172.5 42.5q94 0 171.5 -42.5t122.5 -121.5t45 -184
q0 -172 -128 -268h145z" />
    <glyph glyph-name="Iotadieresis" unicode="&#x3aa;" horiz-adv-x="298" 
d="M-15.5 820q-21.5 19 -21.5 45t21.5 44.5t51.5 18.5q32 0 54 -18.5t22 -44.5t-22 -45t-54 -19q-30 0 -51.5 19zM208.5 820q-21.5 19 -21.5 45t21.5 44.5t52.5 18.5t53 -18.5t22 -44.5t-22 -45t-53 -19t-52.5 19zM222 0h-145v732h145v-732z" />
    <glyph glyph-name="Upsilondieresis" unicode="&#x3ab;" horiz-adv-x="678" 
d="M180.5 820.5q-21.5 18.5 -21.5 44.5t21.5 44.5t52.5 18.5q32 0 54 -18.5t22 -44.5t-22 -44.5t-54 -18.5q-31 0 -52.5 18.5zM405 820.5q-22 18.5 -22 44.5t22 44.5t53 18.5t53 -18.5t22 -44.5t-22 -44.5t-53 -18.5t-53 18.5zM349 432l166 300h157l-254 -443v-289h-147v289
l-265 443h171z" />
    <glyph glyph-name="alphatonos" unicode="&#x3ac;" horiz-adv-x="649" 
d="M300 750h140l-101 -165h-109zM647 8q-33 -20 -88 -20q-51 0 -82 21.5t-44 66.5q-27 -45 -70 -66.5t-94 -21.5q-64 0 -117 32t-85 93.5t-32 145.5q0 85 32 146.5t85 93.5t117 32q52 0 94.5 -22t70.5 -67q3 17 8 76h122v-351q0 -32 9.5 -45t28.5 -13q16 0 29 6zM389 145
q36 38 36 114q0 75 -36 111.5t-88 36.5q-55 0 -88.5 -39t-33.5 -109t33.5 -111t88.5 -41q52 0 88 38z" />
    <glyph glyph-name="epsilontonos" unicode="&#x3ad;" horiz-adv-x="486" 
d="M276 750h139l-100 -165h-109zM489 111q-26 -60 -84.5 -91.5t-144.5 -31.5q-67 0 -119 19.5t-81 53.5t-29 78q0 47 32 82t89 50q-51 16 -77 45t-26 69q0 43 28.5 76.5t78.5 51.5t114 18q77 0 127.5 -27t74.5 -77l-104 -63q-13 25 -38.5 38.5t-60.5 13.5t-55.5 -13
t-20.5 -36q0 -48 101 -48h43v-109h-41q-121 0 -121 -56q0 -26 23.5 -38.5t60.5 -12.5q88 0 126 70z" />
    <glyph glyph-name="etatonos" unicode="&#x3ae;" horiz-adv-x="628" 
d="M337 748h140l-101 -165h-109zM521 474.5q50 -56.5 50 -164.5v-542h-140v497q0 142 -92 142q-50 0 -81 -38.5t-31 -108.5v-260h-139v352q0 32 -9.5 44t-28.5 12q-13 0 -29 -7l-16 110q36 20 88 20q49 0 81.5 -24t44.5 -69q26 47 68.5 70t97.5 23q86 0 136 -56.5z" />
    <glyph glyph-name="iotatonos" unicode="&#x3af;" horiz-adv-x="307" 
d="M65 583l70 165h140l-101 -165h-109zM309 9q-42 -21 -104 -21q-75 0 -111 39t-36 125v366h138v-345q0 -34 12.5 -48t37.5 -14q23 0 46 11z" />
    <glyph glyph-name="upsilondieresistonos" unicode="&#x3b0;" horiz-adv-x="582" 
d="M235 583l34 165h113l-60 -165h-87zM98 616q-20 21 -20 50t20 50t48 21q29 0 49.5 -21t20.5 -50t-20.5 -50t-49.5 -21q-28 0 -48 21zM410 616q-20 21 -20 50t20 50t49 21q28 0 48.5 -21t20.5 -50t-20.5 -50t-48.5 -21q-29 0 -49 21zM57 518h139v-261q0 -71 22 -108.5
t73 -37.5q109 0 109 172q0 110 -45 235h145q22 -58 32.5 -118t10.5 -113q0 -136 -66 -217.5t-196 -81.5q-111 0 -167.5 60.5t-56.5 177.5v292z" />
    <glyph glyph-name="alpha" unicode="&#x3b1;" horiz-adv-x="649" 
d="M647 8q-33 -20 -88 -20q-51 0 -81.5 22t-43.5 68q-27 -45 -70.5 -67.5t-94.5 -22.5q-64 0 -117 32t-85 93.5t-32 145.5q0 85 32 146.5t85 93.5t117 32q52 0 95 -22.5t70 -67.5q3 21 8 77h122v-351q0 -32 9.5 -45t28.5 -13q16 0 29 6zM389 145q36 38 36 114
q0 75 -36 111.5t-88 36.5q-55 0 -88.5 -39t-33.5 -109t33.5 -111t88.5 -41q52 0 88 38z" />
    <glyph glyph-name="beta" unicode="&#x3b2;" horiz-adv-x="625" 
d="M559.5 327.5q38.5 -46.5 38.5 -122.5q0 -67 -29.5 -116t-81.5 -75t-120 -26q-53 0 -95 17t-68 51v-288h-139v710q0 98 33.5 164t91 98t130.5 32q67 0 120 -27.5t83 -76.5t30 -112q0 -57 -24.5 -98.5t-71.5 -64.5q64 -19 102.5 -65.5zM423.5 136q30.5 27 30.5 78
q0 60 -42 87t-98 27h-40v116h18q116 0 116 104q0 48 -23.5 74.5t-67.5 26.5q-60 0 -86.5 -50t-26.5 -132v-186q0 -81 39 -126.5t103 -45.5q47 0 77.5 27z" />
    <glyph glyph-name="gamma" unicode="&#x3b3;" horiz-adv-x="560" 
d="M478 215.5q-42 -104.5 -138 -224.5v-223h-139v199l-197 551h154l124 -403q52 86 73.5 159t21.5 145q0 39 -10 99h143q10 -62 10 -98q0 -100 -42 -204.5z" />
    <glyph glyph-name="delta" unicode="&#x3b4;" horiz-adv-x="600" 
d="M439 512q67 -57 96.5 -118.5t29.5 -130.5q0 -83 -36.5 -145.5t-97 -96t-130.5 -33.5q-71 0 -132 33t-97.5 95t-36.5 143q0 72 29 127.5t79 89t112 42.5l-171 147v92h408v-114h-203zM386.5 149.5q33.5 40.5 33.5 109.5q0 70 -33.5 110.5t-85.5 40.5q-53 0 -87.5 -41
t-34.5 -110t34.5 -109.5t87.5 -40.5q52 0 85.5 40.5z" />
    <glyph glyph-name="epsilon" unicode="&#x3b5;" horiz-adv-x="486" 
d="M489 111q-26 -60 -84.5 -91.5t-144.5 -31.5q-67 0 -119 19.5t-81 53.5t-29 78q0 48 31.5 82.5t88.5 49.5q-50 16 -76 45t-26 69q0 43 28.5 76.5t78.5 51.5t114 18q77 0 127.5 -27t74.5 -77l-104 -63q-13 25 -38.5 38.5t-60.5 13.5t-55.5 -13t-20.5 -36q0 -48 101 -48h43
v-109h-41q-121 0 -121 -56q0 -26 23.5 -38.5t60.5 -12.5q88 0 126 70z" />
    <glyph glyph-name="zeta" unicode="&#x3b6;" horiz-adv-x="529" 
d="M489.5 38q39.5 -36 39.5 -94q0 -53 -28 -91.5t-90 -78.5l-74 81q28 20 39 35t11 31q0 26 -26 43.5t-87 34.5q-103 28 -167 81.5t-64 164.5q0 107 65.5 209.5t194.5 191.5h-235v115h435v-93q-316 -200 -316 -398q0 -50 21 -81t56 -48.5t95 -36.5q91 -30 130.5 -66z" />
    <glyph glyph-name="eta" unicode="&#x3b7;" horiz-adv-x="628" 
d="M521 474.5q50 -56.5 50 -164.5v-542h-140v497q0 142 -92 142q-50 0 -81 -38.5t-31 -108.5v-260h-139v352q0 32 -9.5 44t-28.5 12q-13 0 -29 -7l-16 110q36 20 88 20t83 -23t43 -72q25 48 67.5 71.5t98.5 23.5q86 0 136 -56.5z" />
    <glyph glyph-name="theta" unicode="&#x3b8;" horiz-adv-x="604" 
d="M438.5 728.5q59.5 -45.5 93 -134t33.5 -212.5t-33.5 -213t-93 -135t-137.5 -46t-138 46t-94 135t-34 213q0 123 34 211.5t94 134.5t138 46t137.5 -45.5zM217 601q-31 -56 -37 -157h240q-7 102 -37 157.5t-82 55.5q-53 0 -84 -56zM385.5 166.5q30.5 59.5 35.5 166.5h-242
q5 -107 36 -166.5t86 -59.5q54 0 84.5 59.5z" />
    <glyph glyph-name="iota" unicode="&#x3b9;" horiz-adv-x="307" 
d="M309 9q-42 -21 -104 -21q-75 0 -111 39t-36 125v366h138v-345q0 -34 12.5 -48t37.5 -14q23 0 46 11z" />
    <glyph glyph-name="kappa" unicode="&#x3ba;" horiz-adv-x="564" 
d="M566 0h-160l-130 210l-72 -87v-123h-139v518h139v-222l113 143q38 50 73 71t77 21q59 0 88 -31l-42 -99q-14 9 -37 9q-18 0 -34 -8.5t-37 -33.5l-43 -52z" />
    <glyph glyph-name="lambda" unicode="&#x3bb;" horiz-adv-x="613" 
d="M629 9q-43 -21 -101 -21q-65 0 -100 30.5t-55 95.5l-78 245l-146 -359h-145l238 507l-31 81q-14 36 -30 50.5t-37 14.5q-29 0 -58 -24l-42 97q24 22 58.5 35t74.5 13q56 0 92 -28.5t60 -94.5l170 -476q13 -35 29 -50.5t40 -15.5q22 0 45 11z" />
    <glyph glyph-name="uni03BC" unicode="&#x3bc;" horiz-adv-x="631" 
d="M629 8q-32 -20 -84 -20q-51 0 -81 23.5t-40 73.5q-23 -48 -60 -72.5t-83 -24.5t-77 22v-242h-139v750h139v-264q0 -143 92 -143q50 0 81 39t31 109v259h139v-351q0 -32 9 -45t28 -13q17 0 30 6z" />
    <glyph glyph-name="nu" unicode="&#x3bd;" horiz-adv-x="552" 
d="M510 518q10 -59 10 -92q0 -99 -47.5 -202.5t-157.5 -223.5h-113l-198 518h154l123 -374q52 80 74 147t22 134q0 37 -10 93h143z" />
    <glyph glyph-name="xi" unicode="&#x3be;" horiz-adv-x="496" 
d="M469.5 41.5q40.5 -39.5 40.5 -100.5q0 -50 -28.5 -88.5t-89.5 -78.5l-73 82q28 20 38.5 35t10.5 32q0 25 -22 43t-72 32q-119 34 -178 81t-59 127q0 65 40 112.5t111 68.5q-118 29 -118 122q0 50 28 84t73 53h-121v108h427v-94q-145 -7 -205.5 -43t-60.5 -84
q0 -39 36 -64t104 -25h100v-108h-100q-87 0 -128.5 -30.5t-41.5 -77.5q0 -31 18.5 -52t52 -36t93.5 -33q84 -26 124.5 -65.5z" />
    <glyph glyph-name="omicron" unicode="&#x3bf;" 
d="M71.5 402q36.5 62 97.5 95.5t132 33.5q70 0 130.5 -33.5t97 -95.5t36.5 -143t-36.5 -143t-97 -95t-130.5 -33q-71 0 -132 33t-97.5 95t-36.5 143t36.5 143zM213.5 149.5q34.5 -40.5 86.5 -40.5t86 40.5t34 109.5t-34 110t-86 41t-86.5 -41t-34.5 -110t34.5 -109.5z" />
    <glyph glyph-name="pi" unicode="&#x3c0;" horiz-adv-x="647" 
d="M633 9q-42 -21 -104 -21q-75 0 -111 39t-36 125v249h-142v-402l-139 1v401h-96v117h614v-117h-98v-228q0 -34 12.5 -48t36.5 -14t47 11z" />
    <glyph glyph-name="rho" unicode="&#x3c1;" horiz-adv-x="625" 
d="M464.5 499q58.5 -32 91.5 -93t33 -147q0 -85 -31 -146t-84 -93t-119 -32q-45 0 -84.5 15.5t-68.5 46.5v-282h-139v460q0 99 35.5 167.5t95.5 102t136 33.5t134.5 -32zM411.5 152q33.5 39 33.5 108t-33.5 109.5t-85.5 40.5q-53 0 -88.5 -40.5t-35.5 -109.5
q0 -72 34.5 -109.5t89.5 -37.5q52 0 85.5 39z" />
    <glyph glyph-name="uni03C2" unicode="&#x3c2;" horiz-adv-x="497" 
d="M437 33.5q35 -34.5 35 -90.5q0 -52 -28.5 -91t-89.5 -78l-73 81q28 20 38.5 35.5t10.5 34.5q0 24 -17.5 41t-63.5 32q-97 31 -155.5 91t-58.5 171q0 86 37.5 147t98.5 92.5t131 31.5q66 0 121 -30t77 -86l-106 -60q-33 57 -95 57q-52 0 -86 -40.5t-34 -107.5t33.5 -104
t107.5 -63q82 -29 117 -63.5z" />
    <glyph glyph-name="sigma" unicode="&#x3c3;" horiz-adv-x="634" 
d="M630 518v-117h-122q57 -64 57 -156q0 -76 -36.5 -134.5t-97 -90.5t-130.5 -32q-71 0 -132 32.5t-97.5 93t-36.5 139.5q0 80 38 140t104.5 92.5t149.5 32.5h303zM386.5 148q33.5 39 33.5 105q0 67 -33.5 105.5t-85.5 38.5q-53 0 -87.5 -39t-34.5 -105t34.5 -105t87.5 -39
q52 0 85.5 39z" />
    <glyph glyph-name="tau" unicode="&#x3c4;" horiz-adv-x="496" 
d="M486 518v-117h-180v-228q0 -34 12.5 -48t36.5 -14q23 0 46 11l17 -113q-42 -21 -104 -21q-75 0 -111 39t-36 125v249h-161v117h480z" />
    <glyph glyph-name="upsilon" unicode="&#x3c5;" horiz-adv-x="582" 
d="M57 518h139v-261q0 -71 22 -108.5t73 -37.5q109 0 109 172q0 110 -45 235h145q22 -58 32.5 -118t10.5 -113q0 -136 -66 -217.5t-196 -81.5q-111 0 -167.5 60.5t-56.5 177.5v292z" />
    <glyph glyph-name="phi" unicode="&#x3c6;" horiz-adv-x="776" 
d="M702 125q-38 -57 -102.5 -90t-144.5 -43v-224h-134v224q-125 15 -205.5 84t-80.5 183q0 77 38 134t103 90.5t146 43.5v171h134v-171q80 -10 144.5 -43.5t102 -90.5t37.5 -134t-38 -134zM216.5 163.5q39.5 -36.5 104.5 -48.5l1 289q-66 -12 -105.5 -48.5t-39.5 -96.5
q0 -59 39.5 -95.5zM455 115q65 12 103.5 48.5t38.5 95.5q0 60 -38.5 96.5t-102.5 47.5z" />
    <glyph glyph-name="chi" unicode="&#x3c7;" horiz-adv-x="545" 
d="M275 277l125 241h144l-202 -369l202 -381h-147l-125 247l-126 -247h-144l202 375l-202 375h147z" />
    <glyph glyph-name="psi" unicode="&#x3c8;" horiz-adv-x="760" 
d="M660 83.5q-63 -76.5 -207 -92.5v-223h-136v223q-134 11 -197 79t-63 206v242h139v-219q0 -84 28.5 -126.5t92.5 -54.5v580h137l-1 -580q66 13 97 56t31 121q0 49 -11.5 106.5t-36.5 116.5h144q46 -109 46 -233q0 -125 -63 -201.5z" />
    <glyph glyph-name="omega" unicode="&#x3c9;" horiz-adv-x="789" 
d="M653 518q100 -119 100 -280q0 -121 -54.5 -185.5t-148.5 -64.5q-55 0 -94 23.5t-61 69.5q-47 -93 -157 -93q-93 0 -148 64.5t-55 185.5q0 161 100 280h141q-102 -126 -102 -274q0 -67 21.5 -102.5t59.5 -35.5q35 0 53.5 34t18.5 116v120h134v-120q0 -82 18.5 -116
t53.5 -34q38 0 59.5 35.5t21.5 102.5q0 148 -102 274h141z" />
    <glyph glyph-name="iotadieresis" unicode="&#x3ca;" horiz-adv-x="307" 
d="M-37.5 611.5q-21.5 22.5 -21.5 54.5t21.5 54.5t52.5 22.5q32 0 54 -22.5t22 -54.5t-22 -54.5t-54 -22.5q-31 0 -52.5 22.5zM186.5 612q-21.5 23 -21.5 54q0 32 21.5 54.5t52.5 22.5t53.5 -22.5t22.5 -54.5t-22.5 -54.5t-53.5 -22.5t-52.5 23zM309 9q-42 -21 -104 -21
q-75 0 -111 39t-36 125v366h138v-345q0 -34 12.5 -48t37.5 -14q23 0 46 11z" />
    <glyph glyph-name="upsilondieresis" unicode="&#x3cb;" horiz-adv-x="582" 
d="M125.5 611.5q-21.5 22.5 -21.5 54.5t21.5 54.5t52.5 22.5q32 0 53.5 -22.5t21.5 -54.5t-21.5 -54.5t-53.5 -22.5q-31 0 -52.5 22.5zM349.5 612q-21.5 23 -21.5 54q0 32 21.5 54.5t52.5 22.5t53 -22.5t22 -54.5t-22 -54.5t-53 -22.5t-52.5 23zM57 518h139v-261
q0 -71 22 -108.5t73 -37.5q109 0 109 172q0 110 -45 235h145q22 -58 32.5 -118t10.5 -113q0 -136 -66 -217.5t-196 -81.5q-111 0 -167.5 60.5t-56.5 177.5v292z" />
    <glyph glyph-name="omicrontonos" unicode="&#x3cc;" 
d="M239 583l69 165h140l-100 -165h-109zM71.5 402q36.5 62 97.5 95.5t132 33.5q70 0 130.5 -33.5t97 -95.5t36.5 -143t-36.5 -143t-97 -95t-130.5 -33q-71 0 -132 33t-97.5 95t-36.5 143t36.5 143zM213.5 149.5q34.5 -40.5 86.5 -40.5t86 40.5t34 109.5t-34 110t-86 41
t-86.5 -41t-34.5 -110t34.5 -109.5z" />
    <glyph glyph-name="upsilontonos" unicode="&#x3cd;" horiz-adv-x="582" 
d="M228 583l70 165h140l-101 -165h-109zM57 518h139v-261q0 -71 22 -108.5t73 -37.5q109 0 109 172q0 110 -45 235h145q22 -58 32.5 -118t10.5 -113q0 -136 -66 -217.5t-196 -81.5q-111 0 -167.5 60.5t-56.5 177.5v292z" />
    <glyph glyph-name="omegatonos" unicode="&#x3ce;" horiz-adv-x="789" 
d="M402 748h140l-101 -165h-109zM653 518q100 -119 100 -280q0 -121 -54.5 -185.5t-148.5 -64.5q-109 0 -156 92q-47 -92 -156 -92q-93 0 -148 64.5t-55 185.5q0 161 100 280h141q-102 -126 -102 -274q0 -67 21.5 -102.5t59.5 -35.5q35 0 53.5 34t18.5 116v120h134v-120
q0 -82 18.5 -116t53.5 -34q38 0 59.5 35.5t21.5 102.5q0 148 -102 274h141z" />
    <glyph glyph-name="uni03D1" unicode="&#x3d1;" horiz-adv-x="624" 
d="M613 443v-110h-87q-8 -169 -73 -257t-185 -88q-94 0 -157.5 53.5t-80.5 144.5l134 52q8 -61 35.5 -96t70.5 -35q103 0 114 226h-40q-164 0 -243.5 48.5t-79.5 152.5q0 65 29.5 120t84 87.5t126.5 32.5q112 0 181.5 -86t81.5 -245h89zM203 470q39 -27 148 -27h31
q-6 104 -37 159t-87 55q-41 0 -67.5 -30t-26.5 -80t39 -77z" />
    <glyph glyph-name="uni03D2" unicode="&#x3d2;" horiz-adv-x="710" 
d="M705 732v-129h-18q-71 0 -126.5 -51.5t-87 -144.5t-31.5 -213v-194h-145v195q0 165 -79 302t-212 235h201q125 -102 173 -246q37 116 115.5 181t179.5 65h30z" />
    <glyph glyph-name="uni03D6" unicode="&#x3d6;" horiz-adv-x="832" 
d="M16 518h800v-115h-93q51 -84 51 -192q0 -110 -53.5 -166.5t-145.5 -56.5q-113 0 -159 93q-46 -93 -159 -93q-93 0 -146.5 56t-53.5 167q0 106 52 192h-93v115zM583 403h-334q-53 -80 -53 -174q0 -61 21.5 -92t57.5 -31q35 0 54.5 34t19.5 116v66h134v-66q0 -82 19.5 -116
t53.5 -34q36 0 58 31t22 92q0 91 -53 174z" />
    <glyph glyph-name="uni0400" unicode="&#x400;" horiz-adv-x="608" 
d="M128 928h144l93 -128h-114zM519 309h-297v-182h343v-127h-488v732h477v-126h-332v-172h297v-125z" />
    <glyph glyph-name="uni0401" unicode="&#x401;" horiz-adv-x="608" 
d="M147.5 820q-21.5 19 -21.5 45t21.5 44.5t52.5 18.5q32 0 54 -18.5t22 -44.5t-22 -45t-54 -19q-31 0 -52.5 19zM371.5 820q-21.5 19 -21.5 45t21.5 44.5t52.5 18.5t53.5 -18.5t22.5 -44.5t-22.5 -45t-53.5 -19t-52.5 19zM519 309h-297v-182h343v-127h-488v732h477v-126
h-332v-172h297v-125z" />
    <glyph glyph-name="uni0402" unicode="&#x402;" horiz-adv-x="877" 
d="M717 430q61 -27 96.5 -81.5t35.5 -132.5q0 -111 -69.5 -169.5t-189.5 -58.5q-14 0 -46 2v125q153 -8 153 102q0 52 -33 81.5t-99 29.5q-77 0 -132.5 -41t-55.5 -134v-153h-147v603h-222v129h592v-129h-223v-214q74 68 201 68q78 0 139 -27z" />
    <glyph glyph-name="uni0403" unicode="&#x403;" horiz-adv-x="561" 
d="M264 798l90 130h140l-121 -130h-109zM77 732h477v-129h-332v-603h-145v732z" />
    <glyph glyph-name="uni0404" unicode="&#x404;" horiz-adv-x="677" 
d="M543 225l121 -68q-27 -74 -99 -121.5t-172 -47.5q-97 0 -177 47t-127 133.5t-47 198.5t46.5 198t127 133t177.5 47q100 0 172 -47.5t99 -121.5l-121 -68q-49 109 -155 109q-72 0 -123 -48.5t-65 -136.5h252v-120h-253q12 -93 63.5 -144.5t125.5 -51.5q106 0 155 109z" />
    <glyph glyph-name="uni0405" unicode="&#x405;" horiz-adv-x="592" 
d="M532.5 85.5q-38.5 -49.5 -100 -73.5t-131.5 -24q-102 0 -184 47.5t-109 134.5l118 67q24 -56 70 -87t110 -31q52 0 82.5 20.5t30.5 60.5q0 31 -20 51.5t-50 33t-84 29.5q-73 23 -117.5 44t-76.5 62t-32 107q0 71 37.5 120t99 73.5t132.5 24.5q97 0 166 -44t89 -119
l-118 -67q-18 47 -54 73.5t-90 26.5q-50 0 -80 -22t-30 -59q0 -28 19 -46.5t47.5 -30.5t80.5 -28q73 -23 119.5 -44.5t80 -64t33.5 -110.5q0 -75 -38.5 -124.5z" />
    <glyph glyph-name="uni0406" unicode="&#x406;" horiz-adv-x="298" 
d="M222 0h-145v732h145v-732z" />
    <glyph glyph-name="uni0407" unicode="&#x407;" horiz-adv-x="298" 
d="M-15.5 820q-21.5 19 -21.5 45t21.5 44.5t51.5 18.5q32 0 54 -18.5t22 -44.5t-22 -45t-54 -19q-30 0 -51.5 19zM208.5 820q-21.5 19 -21.5 45t21.5 44.5t52.5 18.5t53 -18.5t22 -44.5t-22 -45t-53 -19t-52.5 19zM222 0h-145v732h145v-732z" />
    <glyph glyph-name="uni0408" unicode="&#x408;" horiz-adv-x="523" 
d="M77 27q-58 39 -77 119l120 64q12 -45 35.5 -67t61.5 -22q50 0 70.5 36.5t20.5 113.5v461h146v-475q0 -143 -67 -206t-171 -63q-81 0 -139 39z" />
    <glyph glyph-name="uni0409" unicode="&#x409;" horiz-adv-x="1142" 
d="M837 453q131 0 203.5 -59.5t72.5 -168.5q0 -108 -72 -166.5t-204 -58.5h-292v603h-252l-18 -346q-6 -107 -34.5 -165.5t-82 -81t-142.5 -22.5v133q45 0 69 14t34 46.5t13 93.5l25 457h533v-279h147zM825 126q66 0 101 26.5t35 72.5q0 47 -35.5 74.5t-100.5 27.5h-135
v-201h135z" />
    <glyph glyph-name="uni040A" unicode="&#x40a;" horiz-adv-x="1152" 
d="M848 444q131 0 203.5 -57.5t72.5 -165.5t-72 -164.5t-204 -56.5h-296v315h-330v-315h-145v732h145v-288h330v288h146v-288h150zM835 126q66 0 101.5 25.5t35.5 69.5t-36 70.5t-101 26.5h-137v-192h137z" />
    <glyph glyph-name="uni040B" unicode="&#x40b;" horiz-adv-x="863" 
d="M751.5 391.5q71.5 -65.5 71.5 -197.5v-194h-145v163q0 85 -33.5 123t-105.5 38q-71 0 -116.5 -37.5t-45.5 -124.5v-162h-147v603h-222v129h592v-129h-223v-207q67 61 181 61q122 0 193.5 -65.5z" />
    <glyph glyph-name="uni040C" unicode="&#x40c;" horiz-adv-x="722" 
d="M318 800l93 128h144l-124 -128h-113zM446 374l271 -374h-179l-213 304h-103v-304h-145v732h145v-299h107l209 299h165z" />
    <glyph glyph-name="uni040D" unicode="&#x40d;" horiz-adv-x="760" 
d="M213 928h140l90 -131h-110zM566 732h118v-732h-135v493l-355 -493h-117v732h133v-493z" />
    <glyph glyph-name="uni040E" unicode="&#x40e;" horiz-adv-x="678" 
d="M217.5 833.5q-47.5 34.5 -47.5 94.5h108q3 -29 20 -45t47 -16q61 0 69 61h108q0 -60 -47.5 -94.5t-129.5 -34.5q-80 0 -127.5 34.5zM352 361l166 371h154l-256 -528q-35 -73 -68.5 -119t-78.5 -71.5t-108 -25.5t-108 26v135q50 -28 101 -28q39 0 66.5 19t57.5 68
l-272 524h166z" />
    <glyph glyph-name="uni040F" unicode="&#x40f;" horiz-adv-x="769" 
d="M222 129h325v603h145v-732h-239l-6 -172h-124l-6 172h-240v732h145v-603z" />
    <glyph glyph-name="uni0410" unicode="&#x410;" horiz-adv-x="722" 
d="M420 732l296 -732h-154l-64 167h-285l-62 -167h-145l287 732h127zM451 291l-98 257l-95 -257h193z" />
    <glyph glyph-name="uni0411" unicode="&#x411;" horiz-adv-x="680" 
d="M369 440q130 0 203 -58.5t73 -162.5t-72.5 -161.5t-203.5 -57.5h-292v732h503v-126h-358v-166h147zM356 126q67 0 102 25t35 69t-35 69t-102 25h-134v-188h134z" />
    <glyph glyph-name="uni0412" unicode="&#x412;" horiz-adv-x="680" 
d="M645 211q0 -99 -72.5 -155t-203.5 -56h-292v732h265q117 0 190.5 -53.5t73.5 -150.5q0 -101 -82 -148q121 -43 121 -169zM219 606v-173h109q59 0 93 24.5t34 65.5q0 40 -33.5 61.5t-93.5 21.5h-109zM356 126q67 0 102 24t35 68t-35 69t-102 25h-137v-186h137z" />
    <glyph glyph-name="uni0413" unicode="&#x413;" horiz-adv-x="562" 
d="M77 732h477v-129h-332v-603h-145v732z" />
    <glyph glyph-name="uni0414" unicode="&#x414;" horiz-adv-x="818" 
d="M700 129h98l-10 -301h-125l-5 172h-505l-5 -172h-125l-10 301h41q46 0 74 24t44 79t24 152l28 348h476v-603zM555 129v474h-199l-18 -237q-6 -83 -20.5 -141.5t-40.5 -95.5h278z" />
    <glyph glyph-name="uni0415" unicode="&#x415;" horiz-adv-x="608" 
d="M519 309h-297v-182h343v-127h-488v732h477v-126h-332v-172h297v-125z" />
    <glyph glyph-name="uni0416" unicode="&#x416;" horiz-adv-x="1094" 
d="M840 374l249 -374h-177l-196 304h-99v-304h-145v304h-101l-196 -304h-175l249 374l-236 358h165l192 -299h102v299h145v-299h103l192 299h164z" />
    <glyph glyph-name="uni0417" unicode="&#x417;" horiz-adv-x="602" 
d="M532 313.5q34 -45.5 34 -111.5q0 -100 -74 -157t-198 -57q-212 0 -270 170l115 67q40 -108 152 -108q55 0 88 26t33 73q0 49 -42.5 74.5t-126.5 25.5h-27l1 120h39q64 0 96.5 27t32.5 69q0 38 -27 61t-73 23q-97 0 -141 -108l-110 64q27 86 95.5 130t166.5 44
q74 0 129 -25.5t84.5 -71.5t29.5 -105q0 -55 -26.5 -97t-79.5 -65q65 -23 99 -68.5z" />
    <glyph glyph-name="uni0418" unicode="&#x418;" horiz-adv-x="760" 
d="M566 732h118v-732h-135v493l-355 -493h-117v732h133v-493z" />
    <glyph glyph-name="uni0419" unicode="&#x419;" horiz-adv-x="760" 
d="M252.5 833.5q-47.5 34.5 -47.5 94.5h108q3 -29 20 -45t47 -16q61 0 69 61h108q0 -60 -47.5 -94.5t-129.5 -34.5q-80 0 -127.5 34.5zM566 732h118v-732h-135v493l-355 -493h-117v732h133v-493z" />
    <glyph glyph-name="uni041A" unicode="&#x41a;" horiz-adv-x="722" 
d="M446 374l271 -374h-179l-213 304h-103v-304h-145v732h145v-299h107l209 299h165z" />
    <glyph glyph-name="uni041B" unicode="&#x41b;" horiz-adv-x="766" 
d="M690 732v-732h-146v603h-251l-18 -343q-6 -109 -34.5 -167.5t-81.5 -81.5t-143 -23v133q45 0 69 14t34 47t13 95l25 455h533z" />
    <glyph glyph-name="uni041C" unicode="&#x41c;" horiz-adv-x="878" 
d="M691 732h110v-732h-138v472l-186 -277h-76l-187 279v-474h-137v732h115l250 -379z" />
    <glyph glyph-name="uni041D" unicode="&#x41d;" horiz-adv-x="774" 
d="M222 444h330v288h146v-732h-146v315h-330v-315h-145v732h145v-288z" />
    <glyph glyph-name="uni041E" unicode="&#x41e;" horiz-adv-x="783" 
d="M88 568q46 86 125.5 131.5t177.5 45.5t177.5 -45.5t126 -131.5t46.5 -201q0 -116 -46.5 -202t-126 -131.5t-177.5 -45.5t-177.5 45.5t-125.5 131.5t-46 202q0 115 46 201zM219.5 238q24.5 -56 69 -86.5t102.5 -30.5t102.5 30.5t68.5 86.5t24 129t-24.5 128.5t-68.5 86
t-102 30.5t-102.5 -30.5t-69 -86t-24.5 -128.5t24.5 -129z" />
    <glyph glyph-name="uni041F" unicode="&#x41f;" horiz-adv-x="769" 
d="M77 732h615v-732h-145v603h-325v-603h-145v732z" />
    <glyph glyph-name="uni0420" unicode="&#x420;" horiz-adv-x="637" 
d="M329 732q87 0 152 -30t100.5 -84.5t35.5 -127.5q0 -72 -35.5 -126.5t-100.5 -84t-152 -29.5h-107v-250h-145v732h252zM312 373q68 0 109.5 29.5t41.5 87.5t-41.5 88.5t-109.5 30.5h-90v-236h90z" />
    <glyph glyph-name="uni0421" unicode="&#x421;" horiz-adv-x="681" 
d="M481.5 149q38.5 28 61.5 78l121 -70q-27 -74 -99 -121.5t-172 -47.5q-97 0 -177 47t-127 133.5t-47 198.5t46.5 198t127 133t177.5 47q100 0 172 -47.5t99 -121.5l-121 -70q-23 50 -61.5 78t-91.5 28q-56 0 -100 -30t-69.5 -85.5t-25.5 -129.5t25.5 -130t69.5 -86
t100 -30q53 0 91.5 28z" />
    <glyph glyph-name="uni0422" unicode="&#x422;" horiz-adv-x="608" 
d="M8 732h592v-129h-223v-603h-147v603h-222v129z" />
    <glyph glyph-name="uni0423" unicode="&#x423;" horiz-adv-x="678" 
d="M352 361l166 371h154l-256 -528q-35 -73 -68.5 -119t-78.5 -71.5t-108 -25.5t-108 26v135q50 -28 101 -28q39 0 66.5 19t57.5 68l-272 524h166z" />
    <glyph glyph-name="uni0424" unicode="&#x424;" horiz-adv-x="845" 
d="M770.5 224q-42.5 -62 -114.5 -99.5t-162 -48.5v-76h-142v76q-90 10 -162.5 47t-115 99.5t-42.5 144.5q0 81 42.5 143t115 99.5t162.5 47.5v75h142v-75q90 -11 162.5 -48t114.5 -99t42 -143t-42.5 -143zM228 262q45 -39 124 -51v312q-78 -12 -123.5 -51t-45.5 -105
t45 -105zM494 211q78 12 122.5 51t44.5 105q0 65 -45 104.5t-122 51.5v-312z" />
    <glyph glyph-name="uni0425" unicode="&#x425;" horiz-adv-x="715" 
d="M698 732l-257 -357l269 -375h-180l-178 257l-179 -257h-168l268 372l-256 360h177l168 -242l168 242h168z" />
    <glyph glyph-name="uni0426" unicode="&#x426;" horiz-adv-x="822" 
d="M692 732v-603h98l-11 -301h-124l-6 172h-572v732h145v-603h325v603h145z" />
    <glyph glyph-name="uni0427" unicode="&#x427;" horiz-adv-x="708" 
d="M486 732h146v-732h-146v299q-67 -61 -181 -61q-122 0 -193.5 65.5t-71.5 197.5v231h146v-200q0 -85 33.5 -123t106.5 -38q71 0 115.5 37.5t44.5 124.5v199z" />
    <glyph glyph-name="uni0428" unicode="&#x428;" horiz-adv-x="1040" 
d="M593 129h225v603h145v-732h-886v732h145v-603h225v603h146v-603z" />
    <glyph glyph-name="uni0429" unicode="&#x429;" horiz-adv-x="1092" 
d="M817 732h146v-603h94l-10 -301h-125l-5 172h-840v732h145v-603h225v603h146v-603h224v603z" />
    <glyph glyph-name="uni042A" unicode="&#x42a;" horiz-adv-x="808" 
d="M504 453q131 0 203.5 -59.5t72.5 -168.5q0 -108 -72 -166.5t-204 -58.5h-292v606h-204v126h349v-279h147zM491 126q66 0 101.5 26.5t35.5 72.5q0 47 -35.5 74.5t-101.5 27.5h-134v-201h134z" />
    <glyph glyph-name="uni042B" unicode="&#x42b;" horiz-adv-x="958" 
d="M369 453q131 0 203.5 -59.5t72.5 -168.5q0 -108 -72 -166.5t-204 -58.5h-292v732h145v-279h147zM882 0h-145v732h145v-732zM356 126q66 0 101.5 26.5t35.5 72.5q0 47 -35.5 74.5t-101.5 27.5h-134v-201h134z" />
    <glyph glyph-name="uni042C" unicode="&#x42c;" horiz-adv-x="674" 
d="M369 453q131 0 203.5 -59.5t72.5 -168.5q0 -108 -72 -166.5t-204 -58.5h-292v732h145v-279h147zM356 126q66 0 101.5 26.5t35.5 72.5q0 47 -35.5 74.5t-101.5 27.5h-134v-201h134z" />
    <glyph glyph-name="uni042D" unicode="&#x42d;" horiz-adv-x="677" 
d="M477 698.5q76 -46.5 117 -132t41 -199.5t-41 -200t-117 -132.5t-178 -46.5q-107 0 -183 48t-102 121l121 68q22 -52 63.5 -80.5t100.5 -28.5q77 0 123.5 50.5t56.5 145.5h-253v120h252q-12 90 -58.5 137.5t-120.5 47.5q-59 0 -100.5 -28.5t-63.5 -80.5l-121 68
q26 73 102 121t183 48q102 0 178 -46.5z" />
    <glyph glyph-name="uni042E" unicode="&#x42e;" horiz-adv-x="1046" 
d="M842.5 701q74.5 -44 117.5 -129.5t43 -204.5q0 -120 -43 -205.5t-117 -129.5t-166 -44q-85 0 -155 38t-115 111.5t-54 177.5h-131v-315h-145v732h145v-288h134q13 96 58 163.5t113 102.5t150 35q91 0 165.5 -44zM803 186q47 65 47 181q0 115 -47 180t-126 65t-127 -65
t-48 -180q0 -116 47.5 -181t127.5 -65q79 0 126 65z" />
    <glyph glyph-name="uni042F" unicode="&#x42f;" horiz-adv-x="685" 
d="M206 294q-64 28 -100 81t-36 123t35 123t100 82t151 29h253v-732h-145v264h-106h-6l-178 -263l-174 -1zM373 609q-65 0 -106.5 -27t-41.5 -84q0 -56 42 -83.5t106 -27.5h91v222h-91z" />
    <glyph glyph-name="uni0430" unicode="&#x430;" horiz-adv-x="564" 
d="M448 471.5q59 -59.5 59 -169.5v-302h-117q-1 8 -2.5 26.5t-4.5 32.5q-23 -36 -59.5 -53.5t-88.5 -17.5q-54 0 -98.5 19t-70.5 55.5t-26 86.5q0 52 29.5 90.5t79.5 59.5t110 21q54 0 111 -18q-3 115 -98 115q-76 0 -111 -68l-99 57q28 58 86 91.5t136 33.5
q105 0 164 -59.5zM370 210q-50 12 -87 12q-49 0 -76 -17.5t-27 -49.5q0 -29 21.5 -45t55.5 -16q45 0 79 25.5t34 70.5v20z" />
    <glyph glyph-name="uni0431" unicode="&#x431;" horiz-adv-x="594" 
d="M445 489q52 -31 82.5 -90.5t30.5 -141.5q0 -85 -34 -146t-93 -92t-132 -31q-119 0 -191.5 87t-72.5 274q0 112 26.5 199.5t82.5 137.5q32 28 70.5 42.5t74.5 18.5t89 6q48 2 76.5 6t49.5 15l-1 -121q-18 -11 -43.5 -14.5t-68.5 -4.5q-56 -1 -93 -8t-65 -30
q-43 -39 -54 -135q27 28 65.5 43.5t84.5 15.5q64 0 116 -31zM380.5 146q30.5 40 30.5 106q0 68 -30.5 108t-82.5 40t-84.5 -41t-32.5 -107q0 -67 32.5 -106.5t84.5 -39.5t82.5 40z" />
    <glyph glyph-name="uni0432" unicode="&#x432;" horiz-adv-x="543" 
d="M517 149q0 -70 -54 -109.5t-153 -39.5h-245v518h228q90 0 144 -37.5t54 -107.5q0 -73 -62 -106q88 -30 88 -118zM200 414v-102h75q39 0 57.5 14t18.5 39q0 23 -18.5 36t-57.5 13h-75zM291 104q86 0 86 54t-86 54h-91v-108h91z" />
    <glyph glyph-name="uni0433" unicode="&#x433;" horiz-adv-x="449" 
d="M65 518h377v-117h-238v-401h-139v518z" />
    <glyph glyph-name="uni0434" unicode="&#x434;" horiz-adv-x="654" 
d="M550 110h89l-10 -282h-120l-6 168h-356l-6 -168h-121l-11 282h41q42 0 63.5 24t31.5 74.5t18 152.5l12 157h375v-408zM415 110v294h-117l-4 -60q-8 -94 -17 -146.5t-28 -87.5h166z" />
    <glyph glyph-name="uni0435" unicode="&#x435;" horiz-adv-x="557" 
d="M417.5 500.5q53.5 -30.5 83 -86t29.5 -127.5q0 -32 -6 -65h-344q9 -58 42 -87.5t82 -29.5q35 0 62.5 15.5t42.5 46.5l102 -60q-21 -57 -80.5 -88t-132.5 -31q-70 0 -130 31t-96.5 93t-36.5 149q0 86 36.5 147t95.5 92t128 31t122.5 -30.5zM221 392q-29 -26 -39 -73h206
q-4 48 -30.5 73.5t-66.5 25.5q-41 0 -70 -26z" />
    <glyph glyph-name="uni0436" unicode="&#x436;" horiz-adv-x="830" 
d="M540 317l136 201h149l-175 -251l180 -267h-161l-130 200h-55v-200h-139v200h-55l-130 -200h-160l179 267l-174 251h148l136 -201h56v201h139v-201h56z" />
    <glyph glyph-name="uni0437" unicode="&#x437;" horiz-adv-x="483" 
d="M422.5 221.5q31.5 -34.5 31.5 -82.5q0 -44 -27 -78t-77 -53.5t-117 -19.5q-87 0 -148.5 31t-88.5 92l97 58q36 -66 126 -66q40 0 65.5 12.5t25.5 38.5q0 56 -121 56h-41v109h43q101 0 101 48q0 23 -20 36t-55 13q-69 0 -100 -52l-104 63q25 49 81.5 76.5t132.5 27.5
q96 0 152.5 -40t56.5 -106q0 -41 -26 -70t-76 -44q57 -15 88.5 -49.5z" />
    <glyph glyph-name="uni0438" unicode="&#x438;" horiz-adv-x="617" 
d="M199 518v-314l241 314h112v-518h-134v314l-241 -314h-112v518h134z" />
    <glyph glyph-name="uni0439" unicode="&#x439;" horiz-adv-x="617" 
d="M180 627.5q-49 44.5 -49 120.5h109q7 -78 69 -78t70 78h108q0 -76 -48.5 -120.5t-129.5 -44.5q-80 0 -129 44.5zM199 518v-314l241 314h112v-518h-134v314l-241 -314h-112v518h134z" />
    <glyph glyph-name="uni043A" unicode="&#x43a;" horiz-adv-x="569" 
d="M264 317l148 201h152l-190 -251l195 -267h-164l-142 200h-59v-200h-139v518h139v-201h60z" />
    <glyph glyph-name="uni043B" unicode="&#x43b;" horiz-adv-x="596" 
d="M532 518v-518h-139v401h-144l-8 -174q-6 -94 -29.5 -145.5t-70 -72.5t-127.5 -21v133q37 0 57 12.5t28 38.5t11 72l15 274h407z" />
    <glyph glyph-name="uni043C" unicode="&#x43c;" horiz-adv-x="711" 
d="M533 518h113v-518h-127v300l-134 -204h-58l-135 197v-293h-127v518h113l179 -266z" />
    <glyph glyph-name="uni043D" unicode="&#x43d;" horiz-adv-x="608" 
d="M204 321h200v197h139v-518h-139v205h-200v-205h-139v518h139v-197z" />
    <glyph glyph-name="uni043E" unicode="&#x43e;" 
d="M71.5 402q36.5 62 97.5 95.5t132 33.5q70 0 130.5 -33.5t97 -95.5t36.5 -143t-36.5 -143t-97 -95t-130.5 -33q-71 0 -132 33t-97.5 95t-36.5 143t36.5 143zM213.5 149.5q34.5 -40.5 86.5 -40.5t86 40.5t34 109.5t-34 110t-86 41t-86.5 -41t-34.5 -110t34.5 -109.5z" />
    <glyph glyph-name="uni043F" unicode="&#x43f;" horiz-adv-x="608" 
d="M65 518h478v-518h-139v401h-200v-401h-139v518z" />
    <glyph glyph-name="uni0440" unicode="&#x440;" horiz-adv-x="630" 
d="M477.5 499q53.5 -32 85 -94t31.5 -146t-31.5 -145.5t-85 -93.5t-116.5 -32q-48 0 -89 19t-68 58v-297h-139v750h122l3 -34q1 -10 2 -21t3 -23q27 46 70.5 68.5t95.5 22.5q63 0 116.5 -32zM416.5 150.5q33.5 39.5 33.5 108.5q0 71 -33 112t-88 41q-52 0 -88.5 -38.5
t-36.5 -114.5q0 -75 36 -111.5t89 -36.5q54 0 87.5 39.5z" />
    <glyph glyph-name="uni0441" unicode="&#x441;" horiz-adv-x="502" 
d="M394 168l106 -62q-25 -58 -79 -88t-123 -30t-129 31.5t-97 93t-37 146.5q0 86 37 147.5t97 93t129 31.5t123 -30t79 -88l-106 -62q-35 58 -96 58q-54 0 -86.5 -40.5t-32.5 -109.5q0 -68 33 -109t86 -41q60 0 96 59z" />
    <glyph glyph-name="uni0442" unicode="&#x442;" horiz-adv-x="492" 
d="M6 401v117h480v-117h-171v-401h-139v401h-170z" />
    <glyph glyph-name="uni0443" unicode="&#x443;" horiz-adv-x="569" 
d="M420 518h145l-233 -586q-37 -93 -86.5 -134.5t-123.5 -41.5q-36 0 -67.5 10.5t-54.5 28.5l55 106q30 -22 66 -22q23 0 39.5 9.5t31.5 33t35 69.5l-225 527h156l137 -357z" />
    <glyph glyph-name="uni0444" unicode="&#x444;" horiz-adv-x="776" 
d="M702 125q-38 -57 -102.5 -90t-144.5 -43v-224h-134v224q-125 15 -205.5 84t-80.5 183q0 77 38 134t103 90.5t146 43.5v171h134v-171q80 -10 144.5 -43.5t102 -90.5t37.5 -134t-38 -134zM216.5 163.5q39.5 -36.5 104.5 -48.5l1 289q-66 -12 -105.5 -48.5t-39.5 -96.5
q0 -59 39.5 -95.5zM455 115q65 12 103.5 48.5t38.5 95.5q0 60 -38.5 96.5t-102.5 47.5z" />
    <glyph glyph-name="uni0445" unicode="&#x445;" horiz-adv-x="539" 
d="M272 364l110 154h152l-190 -256l190 -262h-159l-109 155l-108 -155h-154l190 256l-190 262h161z" />
    <glyph glyph-name="uni0446" unicode="&#x446;" horiz-adv-x="649" 
d="M543 518v-401h93l-10 -289h-118l-6 172h-437v518h139v-401h200v401h139z" />
    <glyph glyph-name="uni0447" unicode="&#x447;" horiz-adv-x="590" 
d="M387 518h138v-518h-138v189q-50 -51 -139 -51q-88 0 -143 46.5t-55 134.5v199h140v-154q0 -102 94 -102q48 0 75.5 27t27.5 78v151z" />
    <glyph glyph-name="uni0448" unicode="&#x448;" horiz-adv-x="826" 
d="M481 117h146v401h135v-518h-697v518h135v-401h146v401h135v-401z" />
    <glyph glyph-name="uni0449" unicode="&#x449;" horiz-adv-x="867" 
d="M762 518v-401h93l-10 -289h-119l-6 172h-655v518h135v-401h146v401h135v-401h146v401h135z" />
    <glyph glyph-name="uni044A" unicode="&#x44a;" horiz-adv-x="667" 
d="M428 344q105 0 161 -45.5t56 -125.5q0 -82 -56 -127.5t-161 -45.5h-246v401h-171v117h315v-174h102zM404 109q51 0 73.5 16.5t22.5 47.5q0 30 -22.5 45.5t-73.5 15.5h-78v-125h78z" />
    <glyph glyph-name="uni044B" unicode="&#x44b;" horiz-adv-x="813" 
d="M310 344q105 0 161 -45.5t56 -125.5q0 -82 -56 -127.5t-161 -45.5h-245v518h144v-174h101zM749 0h-144v518h144v-518zM286 109q52 0 74.5 16.5t22.5 47.5q0 30 -22.5 45.5t-74.5 15.5h-77v-125h77z" />
    <glyph glyph-name="uni044C" unicode="&#x44c;" horiz-adv-x="550" 
d="M310 344q105 0 161 -45.5t56 -125.5q0 -82 -56 -127.5t-161 -45.5h-245v518h144v-174h101zM286 109q52 0 74.5 16.5t22.5 47.5q0 30 -22.5 45.5t-74.5 15.5h-77v-125h77z" />
    <glyph glyph-name="uni044D" unicode="&#x44d;" horiz-adv-x="502" 
d="M339.5 499.5q58.5 -31.5 92.5 -92.5t34 -148q0 -86 -34 -147.5t-92.5 -92.5t-131.5 -31q-70 0 -127 30.5t-79 87.5l100 57q36 -61 106 -61q46 0 76 28.5t38 79.5h-165v106h164q-10 48 -39 74.5t-74 26.5q-70 0 -106 -62l-100 58q22 57 79 87.5t127 30.5q73 0 131.5 -31.5
z" />
    <glyph glyph-name="uni044E" unicode="&#x44e;" horiz-adv-x="820" 
d="M661.5 499.5q55.5 -31.5 89 -93t33.5 -147.5t-33.5 -147t-89 -92.5t-121.5 -31.5q-59 0 -110.5 25.5t-86 75t-44.5 119.5h-95v-208h-139v518h139v-194h97q18 99 84.5 153t154.5 54q66 0 121.5 -31.5zM613.5 148.5q28.5 39.5 28.5 110.5q0 72 -29 111.5t-74 39.5
t-74 -39.5t-29 -111.5t29 -111t74 -39q46 0 74.5 39.5z" />
    <glyph glyph-name="uni044F" unicode="&#x44f;" horiz-adv-x="560" 
d="M494 518v-518h-132v179h-73l-130 -178l-154 -1l151 199q-49 20 -75.5 59t-26.5 91q0 77 55.5 123t152.5 46h232zM362 292v114h-90q-37 0 -57.5 -14.5t-20.5 -42.5q0 -27 21 -42t57 -15h90z" />
    <glyph glyph-name="uni0450" unicode="&#x450;" horiz-adv-x="557" 
d="M124 748h140l90 -165h-109zM417.5 500.5q53.5 -30.5 83 -86t29.5 -127.5q0 -32 -6 -65h-344q9 -58 42 -87.5t82 -29.5q35 0 62.5 15.5t42.5 46.5l102 -60q-21 -57 -80.5 -88t-132.5 -31q-70 0 -130 31t-96.5 93t-36.5 149q0 86 36.5 147t95.5 92t128 31t122.5 -30.5z
M221 392q-29 -26 -39 -73h206q-4 48 -30.5 73.5t-66.5 25.5q-41 0 -70 -26z" />
    <glyph glyph-name="uni0451" unicode="&#x451;" horiz-adv-x="557" 
d="M127 611q-22 23 -22 54q0 32 21.5 54.5t52.5 22.5q32 0 54 -22.5t22 -54.5q0 -31 -22 -54t-54 -23q-30 0 -52 23zM351 611q-22 23 -22 54q0 32 22 54.5t53 22.5t53 -22.5t22 -54.5q0 -31 -22 -54t-53 -23t-53 23zM417.5 500.5q53.5 -30.5 83 -86t29.5 -127.5
q0 -32 -6 -65h-344q9 -58 42 -87.5t82 -29.5q35 0 62.5 15.5t42.5 46.5l102 -60q-21 -57 -80.5 -88t-132.5 -31q-70 0 -130 31t-96.5 93t-36.5 149q0 86 36.5 147t95.5 92t128 31t122.5 -30.5zM221 392q-29 -26 -39 -73h206q-4 48 -30.5 73.5t-66.5 25.5q-41 0 -70 -26z" />
    <glyph glyph-name="uni0452" unicode="&#x452;" horiz-adv-x="618" 
d="M511.5 474.5q50.5 -56.5 50.5 -164.5v-330q0 -111 -55 -167.5t-139 -56.5q-71 0 -121 40l53 100q25 -19 55 -19q35 0 50.5 29.5t15.5 85.5v273q0 68 -22 105t-71 37t-80 -38.5t-31 -108.5v-260h-138v576h-74v99h74v86h138v-86h142v-99h-142v-127q52 82 158 82
q86 0 136.5 -56.5z" />
    <glyph glyph-name="uni0453" unicode="&#x453;" horiz-adv-x="449" 
d="M199 585l90 165h140l-120 -165h-110zM65 518h377v-117h-238v-401h-139v518z" />
    <glyph glyph-name="uni0454" unicode="&#x454;" horiz-adv-x="502" 
d="M399 163l101 -57q-22 -57 -77 -87.5t-121 -30.5q-70 0 -131 31.5t-98.5 93t-37.5 146.5q0 86 37.5 147.5t98.5 93t131 31.5q66 0 121 -30.5t77 -87.5l-101 -58q-34 62 -100 62q-43 0 -74.5 -27t-42.5 -74h163v-106h-164q10 -50 42 -79t76 -29q65 0 100 61z" />
    <glyph glyph-name="uni0455" unicode="&#x455;" horiz-adv-x="468" 
d="M389.5 32.5q-59.5 -44.5 -154.5 -44.5q-82 0 -141.5 35t-80.5 97l101 59q15 -37 47 -57.5t75 -20.5q32 0 51 12t19 34q0 25 -25 38.5t-78 28.5q-53 16 -86.5 31t-58 43.5t-24.5 74.5q0 52 28.5 90t76.5 58t105 20q78 0 132 -33.5t68 -88.5l-101 -57q-30 65 -101 65
q-30 0 -48 -11.5t-18 -32.5q0 -24 24 -36.5t75 -26.5q54 -15 89 -30t60 -45.5t25 -80.5q0 -77 -59.5 -121.5z" />
    <glyph glyph-name="uni0456" unicode="&#x456;" horiz-adv-x="268" 
d="M75.5 609.5q-24.5 25.5 -24.5 59.5q0 35 24 60t58 25t59 -25.5t25 -59.5t-25 -59.5t-59 -25.5q-33 0 -57.5 25.5zM204 0h-139v518h139v-518z" />
    <glyph glyph-name="uni0457" unicode="&#x457;" horiz-adv-x="258" 
d="M-7.5 611.5q-21.5 22.5 -21.5 54.5q0 31 21.5 54t51.5 23q32 0 54 -23t22 -54q0 -32 -22 -54.5t-54 -22.5q-30 0 -51.5 22.5zM159.5 612q-21.5 23 -21.5 54t21.5 54t52.5 23t53.5 -23t22.5 -54q0 -32 -22.5 -54.5t-53.5 -22.5t-52.5 23zM199 0h-139v518h139v-518z" />
    <glyph glyph-name="uni0458" unicode="&#x458;" horiz-adv-x="267" 
d="M75 609.5q-24 25.5 -24 59.5q0 35 24 60t57 25q35 0 59.5 -25t24.5 -60q0 -34 -24.5 -59.5t-59.5 -25.5q-33 0 -57 25.5zM-83.5 -229.5q-39.5 14.5 -64.5 41.5l75 95q25 -30 60 -30q39 0 58.5 29t19.5 92v520h139v-531q0 -78 -28.5 -130t-75.5 -76.5t-102 -24.5
q-42 0 -81.5 14.5z" />
    <glyph glyph-name="uni0459" unicode="&#x459;" horiz-adv-x="873" 
d="M634 344q104 0 160 -45.5t56 -125.5q0 -82 -56 -127.5t-160 -45.5h-241v401h-144l-8 -174q-6 -94 -29.5 -145.5t-70 -72.5t-127.5 -21v133q37 0 57 12.5t28 38.5t11 72l15 274h407v-174h102zM609 109q52 0 74.5 16.5t22.5 47.5q0 30 -22.5 45.5t-74.5 15.5h-77v-125h77z
" />
    <glyph glyph-name="uni045A" unicode="&#x45a;" horiz-adv-x="884" 
d="M645 334q105 0 161 -44t56 -123t-56 -123t-161 -44h-241v217h-200v-217h-139v518h139v-184h200v184h139v-184h102zM621 108q96 0 96 59q0 29 -22 44t-74 15h-78v-118h78z" />
    <glyph glyph-name="uni045B" unicode="&#x45b;" horiz-adv-x="618" 
d="M511.5 474.5q50.5 -56.5 50.5 -164.5v-310h-141v265q0 68 -22 105t-71 37t-80 -38.5t-31 -108.5v-260h-138v576h-74v99h74v86h138v-86h142v-99h-142v-127q52 82 158 82q86 0 136.5 -56.5z" />
    <glyph glyph-name="uni045C" unicode="&#x45c;" horiz-adv-x="569" 
d="M243 583l90 165h140l-120 -165h-110zM264 317l148 201h152l-190 -251l195 -267h-164l-142 200h-59v-200h-139v518h139v-201h60z" />
    <glyph glyph-name="uni045D" unicode="&#x45d;" horiz-adv-x="617" 
d="M141 748h140l90 -165h-109zM199 518v-314l241 314h112v-518h-134v314l-241 -314h-112v518h134z" />
    <glyph glyph-name="uni045E" unicode="&#x45e;" horiz-adv-x="567" 
d="M158 627.5q-49 44.5 -49 120.5h109q3 -37 20.5 -57.5t48.5 -20.5q62 0 70 78h108q0 -76 -48.5 -120.5t-129.5 -44.5q-80 0 -129 44.5zM420 518h145l-233 -586q-37 -93 -86.5 -134.5t-123.5 -41.5q-36 0 -67.5 10.5t-54.5 28.5l55 106q30 -22 66 -22q23 0 39.5 9.5
t31.5 33t35 69.5l-225 527h156l137 -357z" />
    <glyph glyph-name="uni045F" unicode="&#x45f;" horiz-adv-x="608" 
d="M204 117h200v401h139v-518h-174l-6 -172h-118l-7 172h-173v518h139v-401z" />
    <glyph glyph-name="uni0462" unicode="&#x462;" horiz-adv-x="758" 
d="M453 430q132 0 204 -54.5t72 -159.5q0 -106 -72 -161t-204 -55h-292v524h-165v113h165v95h145v-95h224v-113h-224v-94h147zM441 121q66 0 101 24.5t35 70.5t-35 71.5t-101 25.5h-135v-192h135z" />
    <glyph glyph-name="uni0463" unicode="&#x463;" horiz-adv-x="605" 
d="M366 336q105 0 161 -44t56 -124q0 -79 -56 -123.5t-161 -44.5h-245v414h-118v104h118v243h144v-243h168v-104h-168v-78h101zM342 106q97 0 97 62q0 31 -22.5 46.5t-74.5 15.5h-77v-124h77z" />
    <glyph glyph-name="uni046B" unicode="&#x46b;" horiz-adv-x="676" 
d="M445 292q103 -7 154 -77.5t51 -214.5h-127q0 99 -29.5 142.5t-87.5 43.5h-4v-186h-128v186h-3q-60 0 -89 -43t-29 -143h-127q0 144 51 214.5t153 77.5l-172 226h559zM410 419h-144l72 -99z" />
    <glyph glyph-name="uni0472" unicode="&#x472;" horiz-adv-x="783" 
d="M569 698q80 -47 126.5 -133t46.5 -198q0 -113 -46.5 -199t-126.5 -133t-177 -47t-176.5 47t-126 133t-46.5 199q0 112 46.5 198t126 133t176.5 47t177 -47zM267 565.5q-51 -49.5 -65 -134.5h379q-14 85 -64.5 134.5t-124.5 49.5t-125 -49.5zM517.5 169q50.5 51 63.5 138
h-380q14 -87 65 -138t126 -51t125.5 51z" />
    <glyph glyph-name="uni0473" unicode="&#x473;" horiz-adv-x="600" 
d="M431.5 497.5q60.5 -33.5 97 -95.5t36.5 -143t-36.5 -143t-97 -95t-130.5 -33q-71 0 -132 33t-97.5 95t-36.5 143t36.5 143t97.5 95.5t132 33.5q70 0 130.5 -33.5zM227 388.5q-31 -26.5 -42 -74.5h229q-10 48 -40 74.5t-73 26.5t-74 -26.5zM376.5 133q30.5 29 39.5 81
h-232q9 -52 40.5 -81t76.5 -29t75.5 29z" />
    <glyph glyph-name="uni0474" unicode="&#x474;" horiz-adv-x="779" 
d="M806 702l-47 -113q-25 23 -55 23q-24 0 -40.5 -15.5t-33.5 -56.5l-216 -540h-112l-296 732h165l193 -514l130 352q37 99 82 137t111 38q72 0 119 -43z" />
    <glyph glyph-name="uni0475" unicode="&#x475;" horiz-adv-x="614" 
d="M581 518.5q28 -12.5 45 -30.5l-42 -101q-23 23 -49 23q-21 0 -35.5 -14.5t-30.5 -51.5l-142 -343h-113l-210 517h154l120 -339l76 204q32 85 68 116.5t91 31.5q40 0 68 -12.5z" />
    <glyph glyph-name="uni0490" unicode="&#x490;" horiz-adv-x="568" 
d="M77 732h352l20 150h125l-18 -279h-334v-603h-145v732z" />
    <glyph glyph-name="uni0491" unicode="&#x491;" horiz-adv-x="472" 
d="M65 518h278l19 126h119l-17 -243h-260v-401h-139v518z" />
    <glyph glyph-name="uni0492" unicode="&#x492;" horiz-adv-x="566" 
d="M80 732h477v-127h-331v-187h127v-126h-127v-292h-146v292h-80v126h80v314z" />
    <glyph glyph-name="uni0493" unicode="&#x493;" horiz-adv-x="486" 
d="M95 518h388v-117h-249v-105h130v-117h-130v-179h-139v179h-84v117h84v222z" />
    <glyph glyph-name="uni0497" unicode="&#x497;" horiz-adv-x="849" 
d="M825 518l-175 -251l103 -150h101l-10 -289h-119l-7 172h-49l-130 200h-55v-200h-139v200h-55l-130 -200h-160l179 267l-174 251h148l136 -201h56v201h139v-201h56l136 201h149z" />
    <glyph glyph-name="uni049A" unicode="&#x49a;" horiz-adv-x="716" 
d="M703 732l-257 -358l179 -245h111l-10 -301h-124l-6 172h-58l-213 304h-103v-304h-145v732h145v-299h107l209 299h165z" />
    <glyph glyph-name="uni049B" unicode="&#x49b;" horiz-adv-x="583" 
d="M564 518l-190 -251l112 -150h102l-10 -289h-119l-7 172h-47l-142 200h-59v-200h-139v518h139v-201h60l148 201h152z" />
    <glyph glyph-name="uni049C" unicode="&#x49c;" horiz-adv-x="727" 
d="M500 375l228 -375h-167l-178 304h-23v-138h-100v138h-47v-304h-136v732h136v-299h47v138h100v-138h27l174 299h154z" />
    <glyph glyph-name="uni049D" unicode="&#x49d;" horiz-adv-x="590" 
d="M330 317l123 201h138l-156 -251l160 -267h-149l-117 200h-12v-92h-91v92h-30v-200h-131v518h131v-201h30v93h91v-93h13z" />
    <glyph glyph-name="uni04A2" unicode="&#x4a2;" horiz-adv-x="828" 
d="M698 732v-603h97l-10 -301h-125l-5 172h-103v315h-330v-315h-145v732h145v-288h330v288h146z" />
    <glyph glyph-name="uni04A3" unicode="&#x4a3;" horiz-adv-x="660" 
d="M543 518v-401h95l-10 -289h-119l-7 172h-98v205h-200v-205h-139v518h139v-197h200v197h139z" />
    <glyph glyph-name="uni04AE" unicode="&#x4ae;" horiz-adv-x="678" 
d="M349 432l166 300h157l-254 -443v-289h-147v289l-265 443h171z" />
    <glyph glyph-name="uni04AF" unicode="&#x4af;" horiz-adv-x="566" 
d="M292 176l125 342h145l-204 -484v-266h-139v258l-215 492h154z" />
    <glyph glyph-name="uni04B0" unicode="&#x4b0;" horiz-adv-x="678" 
d="M349 432l166 300h157l-201 -350h135v-129h-188v-253h-147v253h-188v129h133l-210 350h171z" />
    <glyph glyph-name="uni04B1" unicode="&#x4b1;" horiz-adv-x="566" 
d="M292 172l125 346h145l-169 -401h126v-117h-161v-232h-139v232h-162v117h122l-175 401h154z" />
    <glyph glyph-name="uni04B2" unicode="&#x4b2;" horiz-adv-x="715" 
d="M698 732l-259 -355l178 -248h107l-11 -301h-124l-6 172h-51l-179 258l-182 -258h-166l270 370l-258 362h176l167 -243l172 243h166z" />
    <glyph glyph-name="uni04B3" unicode="&#x4b3;" horiz-adv-x="554" 
d="M534 518l-192 -259l105 -142h109l-10 -289h-119l-7 172h-38l-113 158l-111 -158h-154l192 259l-192 259h154l112 -157l112 157h152z" />
    <glyph glyph-name="uni04B8" unicode="&#x4b8;" horiz-adv-x="708" 
d="M489 732h143v-732h-146v299q-39 -39 -98 -51v-139h-99v129q-115 5 -182 70.5t-67 192.5v231h143v-200q0 -73 25.5 -111t80.5 -47v141h99v-138q101 23 101 156v199z" />
    <glyph glyph-name="uni04B9" unicode="&#x4b9;" horiz-adv-x="608" 
d="M409 518h134v-518h-139v189q-22 -25 -57 -37v-97h-99v83q-89 3 -143.5 49.5t-54.5 131.5v199h136v-154q0 -41 14 -64.5t48 -32.5v107h99v-104q62 20 62 97v151z" />
    <glyph glyph-name="uni04BA" unicode="&#x4ba;" horiz-adv-x="708" 
d="M222 0h-145v732h145v-299q67 61 181 61q122 0 193.5 -65.5t71.5 -197.5v-231h-145v200q0 85 -34 123t-107 38q-71 0 -115.5 -37.5t-44.5 -124.5v-199z" />
    <glyph glyph-name="uni04BB" unicode="&#x4bb;" horiz-adv-x="604" 
d="M497.5 474.5q50.5 -56.5 50.5 -164.5v-310h-141v265q0 68 -21.5 105t-70.5 37q-50 0 -80.5 -38.5t-30.5 -108.5v-260h-139v761h139v-312q50 82 158 82q85 0 135.5 -56.5z" />
    <glyph glyph-name="uni04CA" unicode="&#x4ca;" horiz-adv-x="660" 
d="M543 518v-401h101l-94 -289h-119l44 172h-71v205h-200v-205h-139v518h139v-197h200v197h139z" />
    <glyph glyph-name="uni04D8" unicode="&#x4d8;" horiz-adv-x="738" 
d="M532.5 702q76.5 -43 120 -128.5t43.5 -208.5q0 -121 -44.5 -206t-121.5 -128t-173 -43q-94 0 -164.5 41t-108.5 115.5t-38 172.5q0 46 9 97h485q-10 99 -57 150t-131 51q-60 0 -102.5 -28.5t-74.5 -85.5l-108 75q37 82 115 125.5t176 43.5t174.5 -43zM482 161
q45 44 56 128h-338q1 -85 43.5 -128.5t116.5 -43.5q77 0 122 44z" />
    <glyph glyph-name="uni04D9" unicode="&#x4d9;" horiz-adv-x="557" 
d="M389 500q60 -31 96.5 -93t36.5 -150q0 -85 -36.5 -146t-95.5 -92t-128 -31t-122.5 31t-83 86.5t-29.5 127.5q0 31 6 64h344q-9 57 -42 87t-82 30q-35 0 -62 -15.5t-42 -46.5l-103 60q22 57 81 88t132 31q70 0 130 -31zM336.5 126.5q29.5 25.5 39.5 72.5h-207
q4 -47 31 -72.5t66 -25.5q41 0 70.5 25.5z" />
    <glyph glyph-name="uni04E8" unicode="&#x4e8;" horiz-adv-x="783" 
d="M569 698q80 -47 126.5 -133t46.5 -198q0 -113 -46.5 -199t-126.5 -133t-177 -47t-176.5 47t-126 133t-46.5 199q0 112 46.5 198t126 133t176.5 47t177 -47zM267 565.5q-51 -49.5 -65 -134.5h379q-14 85 -64.5 134.5t-124.5 49.5t-125 -49.5zM517.5 169q50.5 51 63.5 138
h-380q14 -87 65 -138t126 -51t125.5 51z" />
    <glyph glyph-name="uni04E9" unicode="&#x4e9;" horiz-adv-x="600" 
d="M431.5 497.5q60.5 -33.5 97 -95.5t36.5 -143t-36.5 -143t-97 -95t-130.5 -33q-71 0 -132 33t-97.5 95t-36.5 143t36.5 143t97.5 95.5t132 33.5q70 0 130.5 -33.5zM227 388.5q-31 -26.5 -42 -74.5h229q-10 48 -40 74.5t-73 26.5t-74 -26.5zM376.5 133q30.5 29 39.5 81
h-232q9 -52 40.5 -81t76.5 -29t75.5 29z" />
    <glyph glyph-name="uni1E00" unicode="&#x1e00;" horiz-adv-x="723" 
d="M420 732l296 -732h-154l-64 167h-285l-62 -167h-145l287 732h127zM451 291l-98 257l-95 -257h193zM280.5 -56q34.5 30 85.5 30q52 0 85.5 -30t33.5 -79t-33.5 -79t-85.5 -30q-51 0 -85.5 30t-34.5 79t34.5 79zM333 -165q12 -12 33 -12q20 0 32.5 12t12.5 30
q0 19 -12.5 30.5t-32.5 11.5q-21 0 -33 -11t-12 -31q0 -18 12 -30z" />
    <glyph glyph-name="uni1E01" unicode="&#x1e01;" horiz-adv-x="564" 
d="M448 471.5q59 -59.5 59 -169.5v-302h-117q-1 8 -2.5 26.5t-4.5 32.5q-23 -36 -59.5 -53.5t-88.5 -17.5q-54 0 -98.5 19t-70.5 55.5t-26 86.5q0 52 29.5 90.5t79.5 59.5t110 21q54 0 111 -18q-4 115 -98 115q-76 0 -111 -68l-99 57q28 58 86 91.5t136 33.5
q105 0 164 -59.5zM370 210q-50 12 -87 12q-49 0 -76 -17.5t-27 -49.5q0 -29 21.5 -45t55.5 -16q45 0 79 25.5t34 70.5v20zM369.5 -62.5q33.5 -29.5 33.5 -76.5t-33.5 -76t-85.5 -29q-51 0 -85.5 29.5t-34.5 75.5q0 47 34.5 76.5t85.5 29.5q52 0 85.5 -29.5zM316.5 -168.5
q12.5 11.5 12.5 29.5q0 19 -12.5 30t-32.5 11q-21 0 -33 -11t-12 -30q0 -18 12 -29.5t33 -11.5q20 0 32.5 11.5z" />
    <glyph glyph-name="uni1E3E" unicode="&#x1e3e;" horiz-adv-x="878" 
d="M388 800l93 128h144l-124 -128h-113zM691 732h110v-732h-138v472l-186 -277h-76l-187 279v-474h-137v732h115l250 -379z" />
    <glyph glyph-name="uni1E3F" unicode="&#x1e3f;" horiz-adv-x="874" 
d="M388 583l90 165h140l-121 -165h-109zM770 474.5q47 -56.5 47 -162.5v-312h-136v265q0 142 -79 142q-43 0 -68.5 -39t-25.5 -108v-260h-135v265q0 142 -79 142q-43 0 -68 -39t-25 -108v-260h-136v518h119q5 -57 8 -76q51 89 148 89q52 0 91 -27t59 -80q25 55 66 81t92 26
q75 0 122 -56.5z" />
    <glyph glyph-name="Wgrave" unicode="&#x1e80;" horiz-adv-x="1006" 
d="M323 928h145l93 -128h-114zM567 732l152 -492l140 492h140l-228 -732h-112l-154 478l-149 -478h-111l-238 732h150l150 -492l144 492h116z" />
    <glyph glyph-name="wgrave" unicode="&#x1e81;" horiz-adv-x="822" 
d="M259 748h140l90 -165h-110zM474 518l108 -323l102 323h135l-189 -517h-99l-118 315l-113 -315h-100l-196 517h143l109 -327l102 327h116z" />
    <glyph glyph-name="Wacute" unicode="&#x1e82;" horiz-adv-x="1006" 
d="M457 800l93 128h144l-123 -128h-114zM567 732l152 -492l140 492h140l-228 -732h-112l-154 478l-149 -478h-111l-238 732h150l150 -492l144 492h116z" />
    <glyph glyph-name="wacute" unicode="&#x1e83;" horiz-adv-x="822" 
d="M364 583l90 165h140l-121 -165h-109zM474 518l108 -323l102 323h135l-189 -517h-99l-118 315l-113 -315h-100l-196 517h143l109 -327l102 327h116z" />
    <glyph glyph-name="Wdieresis" unicode="&#x1e84;" horiz-adv-x="1006" 
d="M343.5 820q-21.5 19 -21.5 45t21.5 44.5t51.5 18.5q32 0 54 -18.5t22 -44.5t-22 -45t-54 -19q-30 0 -51.5 19zM567.5 820q-21.5 19 -21.5 45t21.5 44.5t52.5 18.5t53 -18.5t22 -44.5t-22 -45t-53 -19t-52.5 19zM567 732l152 -492l140 492h140l-228 -732h-112l-154 478
l-149 -478h-111l-238 732h150l150 -492l144 492h116z" />
    <glyph glyph-name="wdieresis" unicode="&#x1e85;" horiz-adv-x="822" 
d="M261.5 611.5q-21.5 22.5 -21.5 54.5t21.5 54.5t52.5 22.5q32 0 53.5 -22.5t21.5 -54.5t-21.5 -54.5t-53.5 -22.5q-31 0 -52.5 22.5zM485.5 612q-21.5 23 -21.5 54q0 32 21.5 54.5t52.5 22.5t53 -22.5t22 -54.5t-22 -54.5t-53 -22.5t-52.5 23zM474 518l108 -323l102 323
h135l-189 -517h-99l-118 315l-113 -315h-100l-196 517h143l109 -327l102 327h116z" />
    <glyph glyph-name="uni1EA0" unicode="&#x1ea0;" horiz-adv-x="723" 
d="M420 732l296 -732h-154l-64 167h-285l-62 -167h-145l287 732h127zM451 291l-98 257l-95 -257h193zM309 -197.5q-24 24.5 -24 57.5t24 57t58 24t58.5 -24t24.5 -57t-24.5 -57.5t-58.5 -24.5t-58 24.5z" />
    <glyph glyph-name="uni1EA1" unicode="&#x1ea1;" horiz-adv-x="564" 
d="M448 471.5q59 -59.5 59 -169.5v-302h-117q-1 8 -2.5 26.5t-4.5 32.5q-23 -36 -59.5 -53.5t-88.5 -17.5q-54 0 -98.5 19t-70.5 55.5t-26 86.5q0 52 29.5 90.5t79.5 59.5t110 21q54 0 111 -18q-4 115 -98 115q-76 0 -111 -68l-99 57q28 58 86 91.5t136 33.5
q105 0 164 -59.5zM370 210q-50 12 -87 12q-49 0 -76 -17.5t-27 -49.5q0 -29 21.5 -45t55.5 -16q45 0 79 25.5t34 70.5v20zM343.5 -83q24.5 -24 24.5 -57t-24.5 -57.5t-58.5 -24.5t-58 24.5t-24 57.5t24 57t58 24t58.5 -24z" />
    <glyph glyph-name="uni1EA2" unicode="&#x1ea2;" horiz-adv-x="723" 
d="M248 908q42 20 103 20q55 0 90.5 -17t35.5 -52q0 -61 -117 -86l-48 46q65 15 65 33q0 9 -11 14t-30 5q-33 0 -70 -17zM420 732l296 -732h-154l-64 167h-285l-62 -167h-145l287 732h127zM451 291l-98 257l-95 -257h193z" />
    <glyph glyph-name="uni1EA3" unicode="&#x1ea3;" horiz-adv-x="564" 
d="M178 678l-18 74q20 13 47 20.5t56 7.5q55 0 91 -24.5t36 -74.5q0 -85 -118 -123l-47 63q64 22 64 51q0 13 -11 21t-30 8q-33 0 -70 -23zM448 471.5q59 -59.5 59 -169.5v-302h-117q-1 8 -2.5 26.5t-4.5 32.5q-23 -36 -59.5 -53.5t-88.5 -17.5q-54 0 -98.5 19t-70.5 55.5
t-26 86.5q0 52 29.5 90.5t79.5 59.5t110 21q54 0 111 -18q-3 115 -98 115q-76 0 -111 -68l-99 57q28 58 86 91.5t136 33.5q105 0 164 -59.5zM370 210q-50 12 -87 12q-49 0 -76 -17.5t-27 -49.5q0 -29 21.5 -45t55.5 -16q45 0 79 25.5t34 70.5v20z" />
    <glyph glyph-name="uni1EA4" unicode="&#x1ea4;" horiz-adv-x="723" 
d="M452 859l93 69h144l-123 -69h-114zM313 848h108l133 -69h-130l-57 29l-57 -29h-130zM420 732l296 -732h-154l-64 167h-285l-62 -167h-145l287 732h127zM451 291l-98 257l-95 -257h193z" />
    <glyph glyph-name="uni1EA5" unicode="&#x1ea5;" horiz-adv-x="564" 
d="M423 914h136l-108 -142h-109zM336 583l-60 79l-61 -79h-119l128 165h104l128 -165h-120zM448 471.5q59 -59.5 59 -169.5v-302h-117q-1 8 -2.5 26.5t-4.5 32.5q-23 -36 -59.5 -53.5t-88.5 -17.5q-54 0 -98.5 19t-70.5 55.5t-26 86.5q0 52 29.5 90.5t79.5 59.5t110 21
q54 0 111 -18q-3 115 -98 115q-76 0 -111 -68l-99 57q28 58 86 91.5t136 33.5q105 0 164 -59.5zM370 210q-50 12 -87 12q-49 0 -76 -17.5t-27 -49.5q0 -29 21.5 -45t55.5 -16q45 0 79 25.5t34 70.5v20z" />
    <glyph glyph-name="uni1EA6" unicode="&#x1ea6;" horiz-adv-x="723" 
d="M319 928h144l93 -69h-114zM313 848h108l133 -69h-126l-61 31l-61 -31h-126zM420 732l296 -732h-154l-64 167h-285l-62 -167h-145l287 732h127zM451 291l-98 257l-95 -257h193z" />
    <glyph glyph-name="uni1EA7" unicode="&#x1ea7;" horiz-adv-x="564" 
d="M385 914l81 -142h-109l-108 142h136zM336 583l-60 79l-61 -79h-119l128 165h104l128 -165h-120zM448 471.5q59 -59.5 59 -169.5v-302h-117q-1 8 -2.5 26.5t-4.5 32.5q-23 -36 -59.5 -53.5t-88.5 -17.5q-54 0 -98.5 19t-70.5 55.5t-26 86.5q0 52 29.5 90.5t79.5 59.5
t110 21q54 0 111 -18q-3 115 -98 115q-76 0 -111 -68l-99 57q28 58 86 91.5t136 33.5q105 0 164 -59.5zM370 210q-50 12 -87 12q-49 0 -76 -17.5t-27 -49.5q0 -29 21.5 -45t55.5 -16q45 0 79 25.5t34 70.5v20z" />
    <glyph glyph-name="uni1EA8" unicode="&#x1ea8;" horiz-adv-x="723" 
d="M385 916q45 12 102 12q56 0 91.5 -10t35.5 -30q0 -19 -31.5 -30.5t-85.5 -19.5l-45 27q68 7 68 15q0 4 -12 6.5t-31 2.5q-39 0 -75 -7zM313 846h108l133 -67h-130l-57 28l-57 -28h-130zM420 732l296 -732h-154l-64 167h-285l-62 -167h-145l287 732h127zM451 291l-98 257
l-95 -257h193z" />
    <glyph glyph-name="uni1EA9" unicode="&#x1ea9;" horiz-adv-x="564" 
d="M314 827l-18 71q43 27 103 27q55 0 90.5 -24t35.5 -70q0 -82 -117 -118l-48 60q32 11 48.5 22t16.5 26q0 13 -11 21t-30 8q-31 0 -70 -23zM336 583l-60 76l-61 -76h-119l128 157h104l128 -157h-120zM448 471.5q59 -59.5 59 -169.5v-302h-117q-1 8 -2.5 26.5t-4.5 32.5
q-23 -36 -59.5 -53.5t-88.5 -17.5q-54 0 -98.5 19t-70.5 55.5t-26 86.5q0 52 29.5 90.5t79.5 59.5t110 21q54 0 111 -18q-3 115 -98 115q-76 0 -111 -68l-99 57q28 58 86 91.5t136 33.5q105 0 164 -59.5zM370 210q-50 12 -87 12q-49 0 -76 -17.5t-27 -49.5q0 -29 21.5 -45
t55.5 -16q45 0 79 25.5t34 70.5v20z" />
    <glyph glyph-name="uni1EAA" unicode="&#x1eaa;" horiz-adv-x="723" 
d="M176 866q2 28 35 45t87 17q32 0 52 -4t42 -12q23 -9 37 -9q27 0 35 19h95q-2 -28 -35 -45t-87 -17q-32 0 -52 4t-42 12q-23 9 -37 9q-27 0 -35 -19h-95zM313 847h108l133 -68h-130l-57 28l-57 -28h-130zM420 732l296 -732h-154l-64 167h-285l-62 -167h-145l287 732h127z
M451 291l-98 257l-95 -257h193z" />
    <glyph glyph-name="uni1EAB" unicode="&#x1eab;" horiz-adv-x="564" 
d="M181 779h-95q2 63 35.5 103t87.5 40q32 0 52.5 -11.5t40.5 -31.5q12 -12 20 -17.5t18 -5.5q28 0 35 52h95q-2 -64 -35 -103.5t-87 -39.5q-33 0 -53.5 11.5t-41.5 32.5q-11 11 -19 16.5t-17 5.5q-27 0 -36 -52zM98 583l128 158h104l128 -158h-119l-60 76l-62 -76h-119z
M448 471.5q59 -59.5 59 -169.5v-302h-117q-1 8 -2.5 26.5t-4.5 32.5q-23 -36 -59.5 -53.5t-88.5 -17.5q-54 0 -98.5 19t-70.5 55.5t-26 86.5q0 52 29.5 90.5t79.5 59.5t110 21q54 0 111 -18q-3 115 -98 115q-76 0 -111 -68l-99 57q28 58 86 91.5t136 33.5q105 0 164 -59.5z
M370 210q-50 12 -87 12q-49 0 -76 -17.5t-27 -49.5q0 -29 21.5 -45t55.5 -16q45 0 79 25.5t34 70.5v20z" />
    <glyph glyph-name="uni1EAC" unicode="&#x1eac;" horiz-adv-x="723" 
d="M313 928h108l133 -129h-122l-65 66l-65 -66h-122zM420 732l296 -732h-154l-64 167h-285l-62 -167h-145l287 732h127zM451 291l-98 257l-95 -257h193zM309 -197.5q-24 24.5 -24 57.5t24 57t58 24t58.5 -24t24.5 -57t-24.5 -57.5t-58.5 -24.5t-58 24.5z" />
    <glyph glyph-name="uni1EAD" unicode="&#x1ead;" horiz-adv-x="564" 
d="M340 583l-61 79l-61 -79h-119l128 165h104l128 -165h-119zM448 471.5q59 -59.5 59 -169.5v-302h-117q-1 8 -2.5 26.5t-4.5 32.5q-23 -36 -59.5 -53.5t-88.5 -17.5q-54 0 -98.5 19t-70.5 55.5t-26 86.5q0 52 29.5 90.5t79.5 59.5t110 21q54 0 111 -18q-4 115 -98 115
q-76 0 -111 -68l-99 57q28 58 86 91.5t136 33.5q105 0 164 -59.5zM370 210q-50 12 -87 12q-49 0 -76 -17.5t-27 -49.5q0 -29 21.5 -45t55.5 -16q45 0 79 25.5t34 70.5v20zM343.5 -83q24.5 -24 24.5 -57t-24.5 -57.5t-58.5 -24.5t-58 24.5t-24 57.5t24 57t58 24t58.5 -24z
" />
    <glyph glyph-name="uni1EAE" unicode="&#x1eae;" horiz-adv-x="723" 
d="M316 864l93 64h144l-124 -64h-113zM239.5 796.5q-47.5 17.5 -47.5 47.5h108q6 -22 67 -22t69 22h108q0 -30 -47.5 -47.5t-129.5 -17.5q-80 0 -127.5 17.5zM420 732l296 -732h-154l-64 167h-285l-62 -167h-145l287 732h127zM451 291l-98 257l-95 -257h193z" />
    <glyph glyph-name="uni1EAF" unicode="&#x1eaf;" horiz-adv-x="564" 
d="M298 918h137l-108 -141h-110zM151 626.5q-49 44.5 -49 120.5h109q7 -78 69 -78q63 0 69 78h109q0 -76 -48.5 -120.5t-129.5 -44.5q-80 0 -129 44.5zM448 471.5q59 -59.5 59 -169.5v-302h-117q-1 8 -2.5 26.5t-4.5 32.5q-23 -36 -59.5 -53.5t-88.5 -17.5q-54 0 -98.5 19
t-70.5 55.5t-26 86.5q0 52 29.5 90.5t79.5 59.5t110 21q54 0 111 -18q-3 115 -98 115q-76 0 -111 -68l-99 57q28 58 86 91.5t136 33.5q105 0 164 -59.5zM370 210q-50 12 -87 12q-49 0 -76 -17.5t-27 -49.5q0 -29 21.5 -45t55.5 -16q45 0 79 25.5t34 70.5v20z" />
    <glyph glyph-name="uni1EB0" unicode="&#x1eb0;" horiz-adv-x="723" 
d="M182 928h144l93 -64h-113zM239.5 796.5q-47.5 17.5 -47.5 47.5h108q6 -22 67 -22t69 22h108q0 -30 -47.5 -47.5t-129.5 -17.5q-80 0 -127.5 17.5zM420 732l296 -732h-154l-64 167h-285l-62 -167h-145l287 732h127zM451 291l-98 257l-95 -257h193z" />
    <glyph glyph-name="uni1EB1" unicode="&#x1eb1;" horiz-adv-x="564" 
d="M261 918l81 -141h-109l-109 141h137zM151 626.5q-49 44.5 -49 120.5h109q7 -78 69 -78q63 0 69 78h109q0 -76 -48.5 -120.5t-129.5 -44.5q-80 0 -129 44.5zM448 471.5q59 -59.5 59 -169.5v-302h-117q-1 8 -2.5 26.5t-4.5 32.5q-23 -36 -59.5 -53.5t-88.5 -17.5
q-54 0 -98.5 19t-70.5 55.5t-26 86.5q0 52 29.5 90.5t79.5 59.5t110 21q54 0 111 -18q-3 115 -98 115q-76 0 -111 -68l-99 57q28 58 86 91.5t136 33.5q105 0 164 -59.5zM370 210q-50 12 -87 12q-49 0 -76 -17.5t-27 -49.5q0 -29 21.5 -45t55.5 -16q45 0 79 25.5t34 70.5v20z
" />
    <glyph glyph-name="uni1EB2" unicode="&#x1eb2;" horiz-adv-x="723" 
d="M248 916q42 11 103 11q56 0 91 -9t35 -27q0 -33 -117 -47l-45 26q68 5 68 13t-43 8q-35 0 -74 -6zM239.5 795.5q-47.5 16.5 -47.5 44.5h108q6 -20 67 -20t69 20h108q0 -28 -47.5 -44.5t-129.5 -16.5q-80 0 -127.5 16.5zM420 732l296 -732h-154l-64 167h-285l-62 -167
h-145l287 732h127zM451 291l-98 257l-95 -257h193z" />
    <glyph glyph-name="uni1EB3" unicode="&#x1eb3;" horiz-adv-x="564" 
d="M178 838l-18 65q20 12 47 18.5t56 6.5q55 0 91 -22t36 -65q0 -75 -118 -108l-47 54q64 20 64 45q0 13 -11 20t-30 7q-31 0 -70 -21zM151 621.5q-49 39.5 -49 106.5h109q7 -70 69 -70t69 70h109q0 -67 -48.5 -106.5t-129.5 -39.5q-80 0 -129 39.5zM448 471.5
q59 -59.5 59 -169.5v-302h-117q-1 8 -2.5 26.5t-4.5 32.5q-23 -36 -59.5 -53.5t-88.5 -17.5q-54 0 -98.5 19t-70.5 55.5t-26 86.5q0 52 29.5 90.5t79.5 59.5t110 21q54 0 111 -18q-3 115 -98 115q-76 0 -111 -68l-99 57q28 58 86 91.5t136 33.5q105 0 164 -59.5zM370 210
q-50 12 -87 12q-49 0 -76 -17.5t-27 -49.5q0 -29 21.5 -45t55.5 -16q45 0 79 25.5t34 70.5v20z" />
    <glyph glyph-name="uni1EB4" unicode="&#x1eb4;" horiz-adv-x="723" 
d="M176 869q2 26 35.5 42.5t86.5 16.5q32 0 52 -4t42 -12q26 -8 37 -8q27 0 35 18h95q-2 -26 -35 -42.5t-87 -16.5q-32 0 -52 4t-42 12q-26 8 -37 8q-27 0 -35 -18h-95zM239.5 796.5q-47.5 17.5 -47.5 47.5h108q6 -22 67 -22t69 22h108q0 -30 -47.5 -47.5t-129.5 -17.5
q-80 0 -127.5 17.5zM420 732l296 -732h-154l-64 167h-285l-62 -167h-145l287 732h127zM451 291l-98 257l-95 -257h193z" />
    <glyph glyph-name="uni1EB5" unicode="&#x1eb5;" horiz-adv-x="564" 
d="M183 781h-95q2 63 35 102t87 39q33 0 53.5 -11.5t41.5 -31.5q11 -11 19 -16.5t17 -5.5q27 0 36 51h95q-2 -62 -35.5 -101t-87.5 -39q-33 0 -53.5 11.5t-39.5 30.5q-12 11 -20.5 16.5t-17.5 5.5q-28 0 -35 -51zM349 738h109q0 -72 -48.5 -114t-129.5 -42q-80 0 -129 42.5
t-49 113.5h109q6 -74 69 -74t69 74zM448 471.5q59 -59.5 59 -169.5v-302h-117q-1 8 -2.5 26.5t-4.5 32.5q-23 -36 -59.5 -53.5t-88.5 -17.5q-54 0 -98.5 19t-70.5 55.5t-26 86.5q0 52 29.5 90.5t79.5 59.5t110 21q54 0 111 -18q-3 115 -98 115q-76 0 -111 -68l-99 57
q28 58 86 91.5t136 33.5q105 0 164 -59.5zM370 210q-50 12 -87 12q-49 0 -76 -17.5t-27 -49.5q0 -29 21.5 -45t55.5 -16q45 0 79 25.5t34 70.5v20z" />
    <glyph glyph-name="uni1EB6" unicode="&#x1eb6;" horiz-adv-x="723" 
d="M239.5 833.5q-47.5 34.5 -47.5 94.5h108q3 -29 20 -45t47 -16q61 0 69 61h108q0 -60 -47.5 -94.5t-129.5 -34.5q-80 0 -127.5 34.5zM420 732l296 -732h-154l-64 167h-285l-62 -167h-145l287 732h127zM451 291l-98 257l-95 -257h193zM309 -197.5q-24 24.5 -24 57.5t24 57
t58 24t58.5 -24t24.5 -57t-24.5 -57.5t-58.5 -24.5t-58 24.5z" />
    <glyph glyph-name="uni1EB7" unicode="&#x1eb7;" horiz-adv-x="564" 
d="M151 626.5q-49 44.5 -49 120.5h109q7 -78 69 -78q63 0 69 78h109q0 -76 -48.5 -120.5t-129.5 -44.5q-80 0 -129 44.5zM448 471.5q59 -59.5 59 -169.5v-302h-117q-1 8 -2.5 26.5t-4.5 32.5q-23 -36 -59.5 -53.5t-88.5 -17.5q-54 0 -98.5 19t-70.5 55.5t-26 86.5
q0 52 29.5 90.5t79.5 59.5t110 21q54 0 111 -18q-4 115 -98 115q-76 0 -111 -68l-99 57q28 58 86 91.5t136 33.5q105 0 164 -59.5zM370 210q-50 12 -87 12q-49 0 -76 -17.5t-27 -49.5q0 -29 21.5 -45t55.5 -16q45 0 79 25.5t34 70.5v20zM343.5 -83q24.5 -24 24.5 -57
t-24.5 -57.5t-58.5 -24.5t-58 24.5t-24 57.5t24 57t58 24t58.5 -24z" />
    <glyph glyph-name="uni1EB8" unicode="&#x1eb8;" horiz-adv-x="608" 
d="M519 309h-297v-182h343v-127h-488v732h477v-126h-332v-172h297v-125zM255 -197.5q-24 24.5 -24 57.5t24 57t58 24t59 -24t25 -57t-25 -57.5t-59 -24.5t-58 24.5z" />
    <glyph glyph-name="uni1EB9" unicode="&#x1eb9;" horiz-adv-x="557" 
d="M417.5 500.5q53.5 -30.5 83 -86t29.5 -127.5q0 -32 -6 -65h-344q9 -58 42 -87.5t82 -29.5q35 0 62.5 15.5t42.5 46.5l102 -60q-21 -57 -80.5 -88t-132.5 -31q-70 0 -130 31t-96.5 93t-36.5 149q0 86 36.5 147t95.5 92t128 31t122.5 -30.5zM221 392q-29 -26 -39 -73h206
q-4 48 -30.5 73.5t-66.5 25.5q-41 0 -70 -26zM240 -197.5q-24 24.5 -24 57.5t24 57t58 24t58.5 -24t24.5 -57t-24.5 -57.5t-58.5 -24.5t-58 24.5z" />
    <glyph glyph-name="uni1EBA" unicode="&#x1eba;" horiz-adv-x="608" 
d="M194 908q40 20 103 20q55 0 90.5 -17t35.5 -52q0 -61 -117 -87l-48 46q32 8 48.5 16t16.5 17t-11.5 14.5t-29.5 5.5q-33 0 -70 -17zM519 309h-297v-182h343v-127h-488v732h477v-126h-332v-172h297v-125z" />
    <glyph glyph-name="uni1EBB" unicode="&#x1ebb;" horiz-adv-x="557" 
d="M172 752q20 13 47 20.5t56 7.5q55 0 91 -24.5t36 -74.5q0 -85 -118 -123l-47 63q64 21 64 51q0 13 -11 21t-30 8q-33 0 -70 -23zM417.5 500.5q53.5 -30.5 83 -86t29.5 -127.5q0 -32 -6 -65h-344q9 -58 42 -87.5t82 -29.5q35 0 62.5 15.5t42.5 46.5l102 -60
q-21 -57 -80.5 -88t-132.5 -31q-70 0 -130 31t-96.5 93t-36.5 149q0 86 36.5 147t95.5 92t128 31t122.5 -30.5zM221 392q-29 -26 -39 -73h206q-4 48 -30.5 73.5t-66.5 25.5q-41 0 -70 -26z" />
    <glyph glyph-name="uni1EBC" unicode="&#x1ebc;" horiz-adv-x="608" 
d="M121 811q2 52 35.5 84.5t87.5 32.5q32 0 52.5 -9.5t40.5 -26.5q13 -10 21 -14.5t17 -4.5q26 0 35 43h95q-2 -53 -35 -85.5t-87 -32.5q-33 0 -53.5 9.5t-41.5 26.5q-21 19 -36 19q-26 0 -36 -42h-95zM519 309h-297v-182h343v-127h-488v732h477v-126h-332v-172h297v-125z
" />
    <glyph glyph-name="uni1EBD" unicode="&#x1ebd;" horiz-adv-x="557" 
d="M100 599q2 66 35 107.5t87 41.5q33 0 53 -12t42 -34q12 -12 19.5 -17.5t16.5 -5.5q27 0 36 54h95q-2 -66 -35.5 -107.5t-87.5 -41.5q-32 0 -52 11.5t-41 32.5q-12 13 -20.5 18.5t-17.5 5.5q-26 0 -35 -53h-95zM417.5 500.5q53.5 -30.5 83 -86t29.5 -127.5q0 -32 -6 -65
h-344q9 -58 42 -87.5t82 -29.5q35 0 62.5 15.5t42.5 46.5l102 -60q-21 -57 -80.5 -88t-132.5 -31q-70 0 -130 31t-96.5 93t-36.5 149q0 86 36.5 147t95.5 92t128 31t122.5 -30.5zM221 392q-29 -26 -39 -73h206q-4 48 -30.5 73.5t-66.5 25.5q-41 0 -70 -26z" />
    <glyph glyph-name="uni1EBE" unicode="&#x1ebe;" horiz-adv-x="608" 
d="M398 859l93 69h144l-123 -69h-114zM258 848h109l132 -69h-130l-56 29l-57 -29h-130zM519 309h-297v-182h343v-127h-488v732h477v-126h-332v-172h297v-125z" />
    <glyph glyph-name="uni1EBF" unicode="&#x1ebf;" horiz-adv-x="557" 
d="M354 765l90 160h140l-121 -160h-109zM236 742h104l128 -159h-119l-60 77l-61 -77h-120zM417.5 500.5q53.5 -30.5 83 -86t29.5 -127.5q0 -32 -6 -65h-344q9 -58 42 -87.5t82 -29.5q35 0 62.5 15.5t42.5 46.5l102 -60q-21 -57 -80.5 -88t-132.5 -31q-70 0 -130 31t-96.5 93
t-36.5 149q0 86 36.5 147t95.5 92t128 31t122.5 -30.5zM221 392q-29 -26 -39 -73h206q-4 48 -30.5 73.5t-66.5 25.5q-41 0 -70 -26z" />
    <glyph glyph-name="uni1EC0" unicode="&#x1ec0;" horiz-adv-x="608" 
d="M264 928h145l93 -69h-114zM258 848h109l132 -69h-125l-61 31l-61 -31h-126zM519 309h-297v-182h343v-127h-488v732h477v-126h-332v-172h297v-125z" />
    <glyph glyph-name="uni1EC1" unicode="&#x1ec1;" horiz-adv-x="557" 
d="M249 925h139l90 -160h-109zM236 742h104l128 -159h-119l-60 77l-61 -77h-120zM417.5 500.5q53.5 -30.5 83 -86t29.5 -127.5q0 -32 -6 -65h-344q9 -58 42 -87.5t82 -29.5q35 0 62.5 15.5t42.5 46.5l102 -60q-21 -57 -80.5 -88t-132.5 -31q-70 0 -130 31t-96.5 93
t-36.5 149q0 86 36.5 147t95.5 92t128 31t122.5 -30.5zM221 392q-29 -26 -39 -73h206q-4 48 -30.5 73.5t-66.5 25.5q-41 0 -70 -26z" />
    <glyph glyph-name="uni1EC2" unicode="&#x1ec2;" horiz-adv-x="616" 
d="M330 916q46 12 103 12q55 0 91 -10t36 -30q0 -19 -31.5 -30.5t-86.5 -19.5l-45 27q68 7 68 15q0 4 -12 6.5t-30 2.5q-39 0 -75 -7zM258 846h109l132 -67h-130l-56 28l-57 -28h-130zM519 309h-297v-182h343v-127h-488v732h477v-126h-332v-172h297v-125z" />
    <glyph glyph-name="uni1EC3" unicode="&#x1ec3;" horiz-adv-x="557" 
d="M308 898q43 27 103 27q55 0 90.5 -24t35.5 -70q0 -82 -117 -118l-48 60q32 11 48.5 22t16.5 26q0 13 -11 21t-30 8q-31 0 -70 -23zM236 740h104l128 -157h-119l-60 76l-61 -76h-120zM417.5 500.5q53.5 -30.5 83 -86t29.5 -127.5q0 -32 -6 -65h-344q9 -58 42 -87.5
t82 -29.5q35 0 62.5 15.5t42.5 46.5l102 -60q-21 -57 -80.5 -88t-132.5 -31q-70 0 -130 31t-96.5 93t-36.5 149q0 86 36.5 147t95.5 92t128 31t122.5 -30.5zM221 392q-29 -26 -39 -73h206q-4 48 -30.5 73.5t-66.5 25.5q-41 0 -70 -26z" />
    <glyph glyph-name="uni1EC4" unicode="&#x1ec4;" horiz-adv-x="608" 
d="M126 866q2 28 35.5 45t87.5 17q32 0 52.5 -4.5t40.5 -11.5q23 -9 38 -9q26 0 35 19h95q-2 -28 -35.5 -45t-87.5 -17q-32 0 -52.5 4.5t-40.5 11.5q-23 9 -38 9q-25 0 -35 -19h-95zM263 847h109l132 -68h-130l-56 28l-57 -28h-130zM519 309h-297v-182h343v-127h-488v732
h477v-126h-332v-172h297v-125z" />
    <glyph glyph-name="uni1EC5" unicode="&#x1ec5;" horiz-adv-x="557" 
d="M194 779h-96q2 63 35.5 103t87.5 40q32 0 52.5 -11.5t41.5 -31.5q12 -12 20 -17.5t17 -5.5q28 0 35 52h95q-2 -64 -35 -103.5t-87 -39.5q-32 0 -52.5 11.5t-41.5 31.5q-12 12 -20 17.5t-17 5.5q-28 0 -35 -52zM238 741h104l128 -158h-119l-60 76l-61 -76h-120z
M417.5 500.5q53.5 -30.5 83 -86t29.5 -127.5q0 -32 -6 -65h-344q9 -58 42 -87.5t82 -29.5q35 0 62.5 15.5t42.5 46.5l102 -60q-21 -57 -80.5 -88t-132.5 -31q-70 0 -130 31t-96.5 93t-36.5 149q0 86 36.5 147t95.5 92t128 31t122.5 -30.5zM221 392q-29 -26 -39 -73h206
q-4 48 -30.5 73.5t-66.5 25.5q-41 0 -70 -26z" />
    <glyph glyph-name="uni1EC6" unicode="&#x1ec6;" horiz-adv-x="608" 
d="M258 928h109l132 -129h-121l-65 66l-65 -66h-122zM519 309h-297v-182h343v-127h-488v732h477v-126h-332v-172h297v-125zM255 -197.5q-24 24.5 -24 57.5t24 57t58 24t59 -24t25 -57t-25 -57.5t-59 -24.5t-58 24.5z" />
    <glyph glyph-name="uni1EC7" unicode="&#x1ec7;" horiz-adv-x="557" 
d="M239 748h104l128 -165h-119l-61 79l-61 -79h-119zM417.5 500.5q53.5 -30.5 83 -86t29.5 -127.5q0 -32 -6 -65h-344q9 -58 42 -87.5t82 -29.5q35 0 62.5 15.5t42.5 46.5l102 -60q-21 -57 -80.5 -88t-132.5 -31q-70 0 -130 31t-96.5 93t-36.5 149q0 86 36.5 147t95.5 92
t128 31t122.5 -30.5zM221 392q-29 -26 -39 -73h206q-4 48 -30.5 73.5t-66.5 25.5q-41 0 -70 -26zM240 -197.5q-24 24.5 -24 57.5t24 57t58 24t58.5 -24t24.5 -57t-24.5 -57.5t-58.5 -24.5t-58 24.5z" />
    <glyph glyph-name="uni1EC8" unicode="&#x1ec8;" horiz-adv-x="298" 
d="M30 908q42 20 103 20q55 0 91 -17t36 -52q0 -62 -118 -87l-47 46q32 8 48 16t16 17t-11 14.5t-30 5.5q-33 0 -70 -17zM222 0h-145v732h145v-732z" />
    <glyph glyph-name="uni1EC9" unicode="&#x1ec9;" horiz-adv-x="268" 
d="M15 752q20 14 47 21.5t56 7.5q55 0 91 -25t36 -74q0 -86 -118 -124l-47 63q32 11 48 23t16 28q0 14 -11 22t-30 8q-32 0 -70 -24zM65 0v518h139v-518h-139z" />
    <glyph glyph-name="uni1ECA" unicode="&#x1eca;" horiz-adv-x="298" 
d="M222 0h-145v732h145v-732zM91.5 -197.5q-24.5 24.5 -24.5 57.5t24.5 57t58.5 24t58.5 -24t24.5 -57t-24.5 -57.5t-58.5 -24.5t-58.5 24.5z" />
    <glyph glyph-name="uni1ECB" unicode="&#x1ecb;" horiz-adv-x="268" 
d="M75.5 609.5q-24.5 25.5 -24.5 59.5q0 35 24 60t58 25t59 -25.5t25 -59.5t-25 -59.5t-59 -25.5q-33 0 -57.5 25.5zM204 0h-139v518h139v-518zM76.5 -197.5q-24.5 24.5 -24.5 57.5t24.5 57t58.5 24t58.5 -24t24.5 -57t-24.5 -57.5t-58.5 -24.5t-58.5 24.5z" />
    <glyph glyph-name="uni1ECC" unicode="&#x1ecc;" horiz-adv-x="783" 
d="M88 568q46 86 125.5 131.5t177.5 45.5t177.5 -45.5t126 -131.5t46.5 -201q0 -116 -46.5 -202t-126 -131.5t-177.5 -45.5t-177.5 45.5t-125.5 131.5t-46 202q0 115 46 201zM219.5 238q24.5 -56 69 -86.5t102.5 -30.5t102.5 30.5t69 86.5t24.5 129t-24.5 128.5t-69 86
t-102.5 30.5t-102.5 -30.5t-69 -86t-24.5 -128.5t24.5 -129zM333 -197.5q-24 24.5 -24 57.5t24 57t58 24t59 -24t25 -57t-25 -57.5t-59 -24.5t-58 24.5z" />
    <glyph glyph-name="uni1ECD" unicode="&#x1ecd;" 
d="M71.5 402q36.5 62 97.5 95.5t132 33.5q70 0 130.5 -33.5t97 -95.5t36.5 -143t-36.5 -143t-97 -95t-130.5 -33q-71 0 -132 33t-97.5 95t-36.5 143t36.5 143zM213.5 149.5q34.5 -40.5 86.5 -40.5t86 40.5t34 109.5t-34 110t-86 41t-86.5 -41t-34.5 -110t34.5 -109.5z
M243 -197.5q-24 24.5 -24 57.5t24 57t58 24t58.5 -24t24.5 -57t-24.5 -57.5t-58.5 -24.5t-58 24.5z" />
    <glyph glyph-name="uni1ECE" unicode="&#x1ece;" horiz-adv-x="783" 
d="M272 908q42 20 103 20q55 0 90.5 -17t35.5 -52q0 -62 -117 -87l-48 46q32 8 48.5 16t16.5 17t-11 14.5t-30 5.5q-33 0 -70 -17zM88 568q46 86 125.5 131.5t177.5 45.5t177.5 -45.5t126 -131.5t46.5 -201q0 -116 -46.5 -202t-126 -131.5t-177.5 -45.5t-177.5 45.5
t-125.5 131.5t-46 202q0 115 46 201zM219.5 238q24.5 -56 69 -86.5t102.5 -30.5t102.5 30.5t69 86.5t24.5 129t-24.5 128.5t-69 86t-102.5 30.5t-102.5 -30.5t-69 -86t-24.5 -128.5t24.5 -129z" />
    <glyph glyph-name="uni1ECF" unicode="&#x1ecf;" 
d="M182 752q19 13 46 20.5t56 7.5q55 0 91 -24.5t36 -74.5q0 -85 -118 -123l-47 63q64 21 64 51q0 13 -11 21t-30 8q-32 0 -70 -23zM71.5 402q36.5 62 97.5 95.5t132 33.5q70 0 130.5 -33.5t97 -95.5t36.5 -143t-36.5 -143t-97 -95t-130.5 -33q-71 0 -132 33t-97.5 95
t-36.5 143t36.5 143zM213.5 149.5q34.5 -40.5 86.5 -40.5t86 40.5t34 109.5t-34 110t-86 41t-86.5 -41t-34.5 -110t34.5 -109.5z" />
    <glyph glyph-name="uni1ED0" unicode="&#x1ed0;" horiz-adv-x="783" 
d="M476 859l93 69h144l-123 -69h-114zM337 848h108l133 -69h-130l-57 29l-57 -29h-130zM88 568q46 86 125.5 131.5t177.5 45.5t177.5 -45.5t126 -131.5t46.5 -201q0 -116 -46.5 -202t-126 -131.5t-177.5 -45.5t-177.5 45.5t-125.5 131.5t-46 202q0 115 46 201zM219.5 238
q24.5 -56 69 -86.5t102.5 -30.5t102.5 30.5t69 86.5t24.5 129t-24.5 128.5t-69 86t-102.5 30.5t-102.5 -30.5t-69 -86t-24.5 -128.5t24.5 -129z" />
    <glyph glyph-name="uni1ED1" unicode="&#x1ed1;" 
d="M363 772l81 142h137l-109 -142h-109zM245 748h104l128 -165h-119l-60 79l-61 -79h-120zM71.5 402q36.5 62 97.5 95.5t132 33.5q70 0 130.5 -33.5t97 -95.5t36.5 -143t-36.5 -143t-97 -95t-130.5 -33q-71 0 -132 33t-97.5 95t-36.5 143t36.5 143zM213.5 149.5
q34.5 -40.5 86.5 -40.5t86 40.5t34 109.5t-34 110t-86 41t-86.5 -41t-34.5 -110t34.5 -109.5z" />
    </font>
</defs>
</svg>
