<?xml version="1.0" standalone="no"?>
<!DOCTYPE svg PUBLIC "-//W3C//DTD SVG 1.1//EN" "http://www.w3.org/Graphics/SVG/1.1/DTD/svg11.dtd" >
<svg xmlns="http://www.w3.org/2000/svg" xmlns:xlink="http://www.w3.org/1999/xlink" version="1.1">
<metadata>
Created by FontForge 20170731 at Fri May 28 14:22:29 2021
 By Aleksey,,,
Copyright 2021 Huawei Device Co., Ltd. All Rights Reserved.
</metadata>
<defs>
<font id="HarmonyOS_Sans_Thin" horiz-adv-x="537" >
  <font-face 
    font-family="HarmonyOS Sans Thin"
    font-weight="250"
    font-stretch="normal"
    units-per-em="1000"
    panose-1="0 0 2 0 0 0 0 0 0 0"
    ascent="800"
    descent="-200"
    x-height="522"
    cap-height="732"
    bbox="-547 -244 1213 929"
    underline-thickness="50"
    underline-position="-150"
    unicode-range="U+0020-30FB"
  />
<missing-glyph horiz-adv-x="1000" 
 />
    <glyph glyph-name="f_b.liga" unicode="fb" horiz-adv-x="897" 
d="M124 590q0 92 36 136t96 44q42 0 66 -19v-29q-26 21 -65 21q-48 0 -76 -37t-28 -118v-66h140v-26h-140v-496h-29v496h-89v26h89v68zM726.5 499q49.5 -32 79 -92.5t29.5 -144.5t-29.5 -145.5t-79.5 -93.5t-109 -32q-69 0 -121 39.5t-72 111.5q-3 -35 -3 -142h-25v759h29
v-374q21 71 73.5 108.5t118.5 37.5q60 0 109.5 -32zM710.5 47.5q43.5 28.5 69 83.5t25.5 131t-25.5 130.5t-69 82.5t-96.5 28q-48 0 -90.5 -24t-70.5 -78t-28 -139t27.5 -139.5t70.5 -79t91 -24.5q53 0 96.5 28.5z" />
    <glyph glyph-name="f_f.liga" unicode="ff" horiz-adv-x="607" 
d="M449 588v-66h144v-26h-144v-496h-29v496h-267v-496h-29v496h-89v26h89v68q0 93 36 136.5t96 43.5q47 0 76 -22l-11 -25q-28 20 -64 20q-104 0 -104 -155v-66h267v68q0 93 36 136.5t96 43.5q47 0 76 -22l-11 -25q-28 20 -64 20q-104 0 -104 -155z" />
    <glyph glyph-name="f_f_b.liga" unicode="ffb" horiz-adv-x="1193" 
d="M420 590q0 92 36 136t96 44q42 0 66 -19v-29q-26 21 -65 21q-48 0 -76 -37t-28 -118v-66h140v-26h-140v-496h-29v496h-267v-496h-29v496h-89v26h89v68q0 93 36 136.5t96 43.5q47 0 76 -22l-11 -25q-28 20 -64 20q-104 0 -104 -155v-66h267v68zM1022.5 499
q49.5 -32 79 -92.5t29.5 -144.5t-29.5 -145.5t-79.5 -93.5t-109 -32q-69 0 -121 39.5t-72 111.5q-3 -35 -3 -142h-25v759h29v-374q21 71 73.5 108.5t118.5 37.5q60 0 109.5 -32zM1006.5 47.5q43.5 28.5 69 83.5t25.5 131t-25.5 130.5t-69 82.5t-96.5 28q-48 0 -90.5 -24
t-70.5 -78t-28 -139t27.5 -139.5t70.5 -79t91 -24.5q53 0 96.5 28.5z" />
    <glyph glyph-name="f_f_h.liga" unicode="ffh" horiz-adv-x="1157" 
d="M420 590q0 92 36 136t96 44q42 0 66 -19v-29q-26 21 -65 21q-48 0 -76 -37t-28 -118v-66h140v-26h-140v-496h-29v496h-267v-496h-29v496h-89v26h89v68q0 93 36 136.5t96 43.5q47 0 76 -22l-11 -25q-28 20 -64 20q-104 0 -104 -155v-66h267v68zM1024.5 479.5
q48.5 -51.5 48.5 -146.5v-333h-29v326q0 87 -41.5 132t-108.5 45q-47 0 -86.5 -21.5t-63 -64.5t-23.5 -103v-314h-29v761h29v-349q22 56 69.5 87.5t108.5 31.5q77 0 125.5 -51.5z" />
    <glyph glyph-name="f_f_i.liga" unicode="ffi" horiz-adv-x="815" 
d="M420 590q0 92 36 136t96 44q42 0 66 -19v-29q-26 21 -65 21q-48 0 -76 -37t-28 -118v-66h140v-26h-140v-496h-29v496h-267v-496h-29v496h-89v26h89v68q0 93 36 136.5t96 43.5q47 0 76 -22l-11 -25q-28 20 -64 20q-104 0 -104 -155v-66h267v68zM725.5 703q8.5 -8 8.5 -19
q0 -12 -8 -20t-19 -8t-19.5 8t-8.5 20q0 11 8 19t19 8t19.5 -8zM721 0h-29v522h29v-522z" />
    <glyph glyph-name="f_f_k.liga" unicode="ffk" horiz-adv-x="1078" 
d="M420 590q0 92 36 136t96 44q42 0 66 -19v-29q-26 21 -65 21q-48 0 -76 -37t-28 -118v-66h140v-26h-140v-496h-29v496h-267v-496h-29v496h-89v26h89v68q0 93 36 136.5t96 43.5q47 0 76 -22l-11 -25q-28 20 -64 20q-104 0 -104 -155v-66h267v68zM1048 522l-210 -224
l231 -298h-38l-213 276l-97 -103v-173h-29v761h29v-548l289 309h38z" />
    <glyph glyph-name="f_f_l.liga" unicode="ffl" horiz-adv-x="815" 
d="M420 590q0 92 36 136t96 44q42 0 66 -19v-29q-26 21 -65 21q-48 0 -76 -37t-28 -118v-66h140v-26h-140v-496h-29v496h-267v-496h-29v496h-89v26h89v68q0 93 36 136.5t96 43.5q47 0 76 -22l-11 -25q-28 20 -64 20q-104 0 -104 -155v-66h267v68zM692 0v761h29v-761h-29z
" />
    <glyph glyph-name="f_h.liga" unicode="fh" horiz-adv-x="861" 
d="M124 590q0 92 36 136t96 44q42 0 66 -19v-29q-26 21 -65 21q-48 0 -76 -37t-28 -118v-66h140v-26h-140v-496h-29v496h-89v26h89v68zM728.5 479.5q48.5 -51.5 48.5 -146.5v-333h-29v326q0 87 -41.5 132t-108.5 45q-47 0 -86.5 -21.5t-63 -64.5t-23.5 -103v-314h-29v761h29
v-349q22 56 69.5 87.5t108.5 31.5q77 0 125.5 -51.5z" />
    <glyph glyph-name="f_i.liga" unicode="fi" horiz-adv-x="519" 
d="M124 590q0 92 36 136t96 44q42 0 66 -19v-29q-26 21 -65 21q-48 0 -76 -37t-28 -118v-66h140v-26h-140v-496h-29v496h-89v26h89v68zM429.5 703q8.5 -8 8.5 -19q0 -12 -8 -20t-19 -8t-19.5 8t-8.5 20q0 11 8 19t19 8t19.5 -8zM425 0h-29v522h29v-522z" />
    <glyph glyph-name="f_k.liga" unicode="fk" horiz-adv-x="782" 
d="M124 590q0 92 36 136t96 44q42 0 66 -19v-29q-26 21 -65 21q-48 0 -76 -37t-28 -118v-66h140v-26h-140v-496h-29v496h-89v26h89v68zM752 522l-210 -224l231 -298h-38l-213 276l-97 -103v-173h-29v761h29v-548l289 309h38z" />
    <glyph glyph-name="f_l.liga" unicode="fl" horiz-adv-x="519" 
d="M124 590q0 92 36 136t96 44q42 0 66 -19v-29q-26 21 -65 21q-48 0 -76 -37t-28 -118v-66h140v-26h-140v-496h-29v496h-89v26h89v68zM396 0v761h29v-761h-29z" />
    <glyph glyph-name="r_f.liga" unicode="rf" horiz-adv-x="632" 
d="M474 588v-66h144v-26h-144v-496h-29v496h-89v26h89v68q0 93 36 136.5t96 43.5q23 0 43 -6t33 -16l-12 -25q-27 20 -63 20q-104 0 -104 -155zM176.5 499.5q38.5 31.5 88.5 31.5q24 0 46 -9v-31q-17 12 -46 12q-39 0 -71.5 -22.5t-51.5 -66.5t-19 -106v-308h-29v522h25
q0 -80 1 -110q18 56 56.5 87.5z" />
    <glyph glyph-name="r_t.liga" unicode="rt" horiz-adv-x="657" 
d="M638 15q-34 -24 -80 -24q-56 0 -85.5 32t-29.5 108v365h-83v26h83v142h29v-142h143v-26h-143v-361q0 -61 20.5 -88.5t66.5 -27.5q36 0 68 19zM176.5 499.5q38.5 31.5 88.5 31.5q24 0 46 -9v-31q-17 12 -46 12q-39 0 -71.5 -22.5t-51.5 -66.5t-19 -106v-308h-29v522h25
q0 -80 1 -110q18 56 56.5 87.5z" />
    <glyph glyph-name="r_v.liga" unicode="rv" horiz-adv-x="817" 
d="M312 522v-31q-17 12 -47 12q-39 0 -71.5 -22.5t-51.5 -66.5t-19 -106v-308h-29v522h25q0 -80 1 -110q19 56 57.5 87.5t88.5 31.5q24 0 46 -9zM389 522l198 -480l186 480h32l-208 -522h-23l-220 522h35z" />
    <glyph glyph-name="r_x.liga" unicode="rx" horiz-adv-x="786" 
d="M312 522v-31q-17 12 -47 12q-39 0 -71.5 -22.5t-51.5 -66.5t-19 -106v-308h-29v522h25q0 -80 1 -110q19 56 57.5 87.5t88.5 31.5q24 0 46 -9zM561 286l171 236h36l-191 -259l191 -263h-38l-172 236l-171 -236h-37l191 260l-191 262h39z" />
    <glyph glyph-name="r_y.liga" unicode="ry" horiz-adv-x="817" 
d="M177.5 499.5q38.5 31.5 88.5 31.5q24 0 46 -9v-31q-17 12 -47 12q-39 0 -71.5 -22.5t-51.5 -66.5t-19 -106v-308h-29v522h25q0 -80 1 -110q19 56 57.5 87.5zM772 522h33l-257 -644q-25 -64 -52.5 -93t-77.5 -29q-43 0 -67 20l12 25q10 -7 25 -12.5t30 -5.5
q36 0 60.5 25.5t46.5 81.5l40 102l-209 530h34l191 -490z" />
    <glyph glyph-name=".notdef" horiz-adv-x="1000" 
 />
    <glyph glyph-name=".null" horiz-adv-x="0" 
 />
    <glyph glyph-name="nonmarkingreturn" horiz-adv-x="333" 
 />
    <glyph glyph-name="null" horiz-adv-x="600" 
 />
    <glyph glyph-name="null" horiz-adv-x="600" 
 />
    <glyph glyph-name="space" unicode=" " horiz-adv-x="270" 
 />
    <glyph glyph-name="exclam" unicode="!" horiz-adv-x="219" 
d="M98 184l-3 575h30l-3 -575h-24zM91 -0.5q-8 8.5 -8 19.5q0 12 8 20t19 8t19 -8t8 -20t-7.5 -20t-19.5 -8q-11 0 -19 8.5z" />
    <glyph glyph-name="quotedbl" unicode="&#x22;" horiz-adv-x="265" 
d="M63 590l-2 213h28l-2 -213h-24zM178 590l-2 213h28l-2 -213h-24z" />
    <glyph glyph-name="numbersign" unicode="#" horiz-adv-x="598" 
d="M468 519h111v-28h-118l-60 -254h112v-28h-119l-49 -212h-29l50 212h-206l-50 -212h-28l50 212h-113v28h119l60 254h-112v28h119l50 213h28l-50 -213h206l50 213h29zM226 491l-60 -254h206l60 254h-206z" />
    <glyph glyph-name="dollar" unicode="$" 
d="M290 383q66 -25 107 -47t68.5 -60.5t27.5 -96.5q0 -83 -55 -134.5t-148 -52.5v-134h-29v135q-81 6 -142 52.5t-80 121.5l24 14q18 -67 72.5 -110t125.5 -50v342q-65 24 -104.5 45.5t-66.5 58t-27 93.5q0 85 58 131t140 50v126h29v-126q77 -4 129.5 -46t60.5 -103l-24 -15
q-8 57 -53 94t-113 41v-329zM116 484.5q22 -31.5 57 -51t88 -39.5v319q-70 -3 -118.5 -42t-48.5 -109q0 -46 22 -77.5zM290 20q78 1 125.5 44.5t47.5 112.5q0 49 -23 82t-59 53t-91 41v-333z" />
    <glyph glyph-name="percent" unicode="%" horiz-adv-x="735" 
d="M301.5 515.5q-19.5 -33.5 -53 -52t-73.5 -18.5t-73.5 18.5t-53 52t-19.5 76.5q0 44 19.5 78t53 53t73.5 19t73.5 -19t53 -53t19.5 -78q0 -43 -19.5 -76.5zM571 733h33l-437 -733h-33zM258 680.5q-33 33.5 -83 33.5q-49 0 -83 -34t-34 -88q0 -53 34 -86.5t83 -33.5
q50 0 83 33.5t33 86.5q0 55 -33 88.5zM686.5 62.5q-19.5 -33.5 -53 -52.5t-73.5 -19q-41 0 -74 19t-52.5 52.5t-19.5 76.5q0 66 42 107.5t104 41.5q40 0 73.5 -19t53 -53t19.5 -77t-19.5 -76.5zM642.5 227q-33.5 34 -82.5 34t-83 -34t-34 -88q0 -53 34 -86.5t83 -33.5
t82.5 33t33.5 87t-33.5 88z" />
    <glyph glyph-name="ampersand" unicode="&#x26;" horiz-adv-x="670" 
d="M668 0h-41l-115 129q-43 -66 -103.5 -102t-136.5 -36q-96 0 -156 55t-60 149q0 61 25 105.5t64 75t95 59.5q-52 59 -72.5 96.5t-20.5 80.5q0 50 23 85.5t61 54t83 18.5q70 0 113 -42.5t43 -105.5q0 -47 -24.5 -81t-59.5 -56.5t-100 -56.5l223 -249q57 106 66 255h31
q-16 -169 -77 -278zM198.5 539q19.5 -33 69.5 -90q62 32 94 52t54.5 50t22.5 70q0 50 -34 85t-92 35q-57 0 -95.5 -34t-38.5 -94q0 -41 19.5 -74zM397 53.5q56 34.5 96 97.5l-235 263q-81 -43 -125.5 -91.5t-44.5 -126.5q0 -81 50.5 -129t134.5 -48q68 0 124 34.5z" />
    <glyph glyph-name="quotesingle" unicode="'" horiz-adv-x="150" 
d="M63 590l-2 213h28l-2 -213h-24z" />
    <glyph glyph-name="parenleft" unicode="(" horiz-adv-x="298" 
d="M121.5 615.5q48.5 122.5 126.5 199.5h28q-80 -87 -126 -204.5t-46 -258.5t46 -259.5t126 -203.5h-28q-78 77 -126.5 199.5t-48.5 263.5t48.5 263.5z" />
    <glyph glyph-name="parenright" unicode=")" horiz-adv-x="298" 
d="M176.5 88.5q-48.5 -122.5 -126.5 -199.5h-28q80 85 126 203.5t46 259.5t-46 258.5t-126 204.5h28q78 -77 126.5 -199.5t48.5 -263.5t-48.5 -263.5z" />
    <glyph glyph-name="asterisk" unicode="*" horiz-adv-x="393" 
d="M206 576l135 80l13 -22l-137 -76l137 -76l-13 -23l-135 82l4 -158h-27l3 158l-134 -82l-14 23l138 76l-138 76l14 22l134 -80l-3 156h27z" />
    <glyph glyph-name="plus" unicode="+" 
d="M255 570h27v-194h195v-27h-195v-194l-27 -1v195h-195v27h195v194z" />
    <glyph glyph-name="comma" unicode="," horiz-adv-x="214" 
d="M133 35.5q9 -11.5 9 -38.5q0 -42 -19.5 -76t-60.5 -45v20q57 19 59 98q-5 -3 -11 -3q-11 0 -18.5 8.5t-7.5 19.5q0 12 7.5 20t19.5 8q13 0 22 -11.5z" />
    <glyph glyph-name="hyphen" unicode="-" horiz-adv-x="499" 
d="M73 289v27h353v-27h-353z" />
    <glyph glyph-name="period" unicode="." horiz-adv-x="208" 
d="M85 -0.5q-8 8.5 -8 20.5q0 11 7.5 19t18.5 8q12 0 20 -8t8 -19q0 -12 -7.5 -20.5t-19.5 -8.5q-11 0 -19 8.5z" />
    <glyph glyph-name="slash" unicode="/" horiz-adv-x="345" 
d="M20 0l274 732h31l-274 -732h-31z" />
    <glyph glyph-name="zero" unicode="0" 
d="M426.5 87q-56.5 -96 -158.5 -96q-101 0 -157.5 96t-56.5 279q0 184 56.5 280.5t157.5 96.5q102 0 158.5 -96t56.5 -281q0 -183 -56.5 -279zM132.5 106.5q46.5 -87.5 135.5 -87.5t136 87.5t47 259.5q0 173 -47 260.5t-136 87.5t-135.5 -87.5t-46.5 -260.5
q0 -172 46.5 -259.5z" />
    <glyph glyph-name="one" unicode="1" 
d="M111 589v33l191 111h23v-733h-30v695z" />
    <glyph glyph-name="two" unicode="2" 
d="M94 28h387v-28h-433v20l277 333q55 66 78.5 110.5t23.5 94.5q0 70 -42 113t-113 43q-62 0 -111.5 -36t-71.5 -108l-25 15q22 77 79.5 117.5t130.5 40.5q84 0 134.5 -51t50.5 -132q0 -57 -26.5 -107.5t-83.5 -118.5z" />
    <glyph glyph-name="three" unicode="3" 
d="M437 324.5q40 -49.5 40 -125.5q0 -60 -25.5 -107.5t-73 -74t-111.5 -26.5q-77 0 -137 39.5t-81 112.5l25 14q20 -66 73 -102t120 -36q82 0 130 51t48 129q0 80 -51.5 126.5t-141.5 46.5h-53v28h54q76 0 119 44t43 114q0 67 -41 111.5t-112 44.5q-60 0 -106 -33.5
t-67 -97.5l-25 15q24 71 76 107.5t123 36.5q86 0 135.5 -51t49.5 -132q0 -64 -32 -109.5t-90 -60.5q71 -15 111 -64.5z" />
    <glyph glyph-name="four" unicode="4" 
d="M404 442v-230h118v-27h-118v-185h-30v185h-332v19l300 529h33l-294 -521h293v230h30z" />
    <glyph glyph-name="five" unicode="5" 
d="M380.5 422.5q48.5 -28.5 76 -80t27.5 -118.5q0 -66 -27 -119t-77 -83.5t-116 -30.5q-68 0 -119.5 33.5t-77.5 100.5l25 14q24 -60 68 -90t104 -30q58 0 100.5 27t65 73.5t22.5 103.5t-22.5 102.5t-64 71.5t-98.5 26q-103 0 -163 -89l-17 8l55 391h306v-28h-280l-45 -314
q26 29 64.5 44.5t83.5 15.5q61 0 109.5 -28.5z" />
    <glyph glyph-name="six" unicode="6" 
d="M397 408.5q49 -29.5 74.5 -80t25.5 -111.5q0 -64 -28 -115.5t-78.5 -81t-114.5 -29.5t-114 29t-77 79t-27 110q0 56 19.5 103t62.5 115l196 305h35l-195 -305l-24 -35q54 46 130 46q66 0 115 -29.5zM374.5 43.5q42.5 25.5 66 70.5t23.5 102q0 55 -21.5 98.5t-63.5 69
t-99 25.5q-59 0 -102 -28t-65.5 -74t-22.5 -98q0 -55 23.5 -98.5t65.5 -68t97 -24.5q56 0 98.5 25.5z" />
    <glyph glyph-name="seven" unicode="7" 
d="M445 705h-387v28h425v-14l-281 -719h-34z" />
    <glyph glyph-name="eight" unicode="8" 
d="M447.5 325.5q40.5 -52.5 40.5 -124.5q0 -59 -28 -107t-78.5 -75.5t-113.5 -27.5t-113 27.5t-78 75.5t-28 107q0 71 40 123.5t107 71.5q-57 18 -89 62.5t-32 103.5q0 50 24 91.5t68 65.5t101 24t101 -24t68.5 -65.5t24.5 -91.5q0 -59 -33 -103.5t-90 -62.5
q68 -18 108.5 -70.5zM150.5 671q-44.5 -44 -44.5 -111q0 -66 43.5 -108t118.5 -42q76 0 119.5 42t43.5 108q0 43 -20 78.5t-57.5 56t-85.5 20.5q-73 0 -117.5 -44zM365.5 42.5q42.5 23.5 66.5 65t24 94.5q0 80 -51.5 130t-136.5 50q-84 0 -135.5 -50t-51.5 -130
q0 -53 23.5 -94.5t66 -65t97.5 -23.5t97.5 23.5z" />
    <glyph glyph-name="nine" unicode="9" 
d="M375 714q50 -29 77.5 -79t27.5 -111q0 -56 -19.5 -102.5t-63.5 -114.5l-196 -306h-35l195 305l24 35q-53 -45 -130 -45q-66 0 -114.5 29.5t-74 79.5t-25.5 112q0 64 28 115.5t78 81t114 29.5t114 -29zM359 352q43 28 65.5 74t22.5 99q0 54 -23.5 97.5t-65.5 68t-97 24.5
q-56 0 -98.5 -25.5t-66 -70.5t-23.5 -102q0 -55 21.5 -98.5t63.5 -69t99 -25.5q59 0 102 28z" />
    <glyph glyph-name="colon" unicode=":" horiz-adv-x="228" 
d="M95.5 484q-8.5 8 -8.5 20q0 11 8 19t19 8t19.5 -8t8.5 -19q0 -12 -8 -20t-19 -8t-19.5 8zM95.5 -0.5q-8.5 8.5 -8.5 20.5q0 11 8 19t19 8t19.5 -8t8.5 -19q0 -13 -8 -21t-19 -8t-19.5 8.5z" />
    <glyph glyph-name="semicolon" unicode=";" horiz-adv-x="235" 
d="M102 484q-8 8 -8 20q0 11 7.5 19t18.5 8q12 0 20 -8t8 -19q0 -12 -7.5 -20t-19.5 -8q-11 0 -19 8zM141 35.5q9 -11.5 9 -38.5q0 -42 -19.5 -76t-60.5 -45v20q57 19 59 98q-4 -3 -11 -3q-11 0 -18.5 8.5t-7.5 19.5q0 12 7.5 20t19.5 8q13 0 22 -11.5z" />
    <glyph glyph-name="less" unicode="&#x3c;" 
d="M477 555v-30l-379 -163l379 -162v-30l-417 179v26z" />
    <glyph glyph-name="equal" unicode="=" 
d="M477 439h-417v27h417v-27zM477 258h-417v27h417v-27z" />
    <glyph glyph-name="greater" unicode="&#x3e;" 
d="M439 362l-379 163v30l417 -180v-26l-417 -179v30z" />
    <glyph glyph-name="question" unicode="?" horiz-adv-x="402" 
d="M11 647q24 57 73 89t114 32q81 0 127 -46t46 -115q0 -52 -23.5 -90t-69.5 -87q-46 -48 -69 -85t-23 -88q0 -37 12 -73h-27q-14 41 -14 79q0 36 12.5 66.5t31 53.5t49.5 56q44 46 66.5 82t22.5 85q0 58 -38 96t-106 38q-111 0 -160 -107zM172.5 -0.5q-8.5 8.5 -8.5 19.5
q0 12 8 20t19 8t19.5 -8t8.5 -20q0 -11 -8 -19.5t-19 -8.5t-19.5 8.5z" />
    <glyph glyph-name="at" unicode="@" horiz-adv-x="1001" 
d="M739.5 716q97.5 -54 152.5 -153t55 -230q0 -109 -40 -180t-117 -71q-50 0 -81.5 33.5t-35.5 100.5q-18 -65 -65 -99.5t-108 -34.5q-54 0 -99 28t-72 81t-27 126q0 72 27 125t72 81t99 28q61 0 107.5 -34t63.5 -97q2 70 2 122h24v-293q0 -69 24 -104t71 -35
q65 0 95.5 62.5t30.5 158.5q0 125 -51 218.5t-142.5 143.5t-207.5 50q-123 0 -219 -53t-150.5 -149t-54.5 -221q0 -123 53.5 -219t149 -149t216.5 -53q68 0 125 17t98 49l13 -22q-40 -34 -101 -52.5t-135 -18.5q-130 0 -232 56.5t-159 158.5t-57 233q0 132 58.5 234.5
t162 159t233.5 56.5q124 0 221.5 -54zM582 131q38 21 62 67t24 119q0 72 -24 118t-62 67t-81 21q-47 0 -85.5 -24t-61 -70.5t-22.5 -111.5t22.5 -112t61 -71t85.5 -24q43 0 81 21z" />
    <glyph glyph-name="A" unicode="A" horiz-adv-x="634" 
d="M327 732l288 -732h-34l-97 250h-337l-96 -250h-32l282 732h26zM473 278l-159 409l-157 -409h316z" />
    <glyph glyph-name="B" unicode="B" horiz-adv-x="608" 
d="M516.5 319.5q45.5 -47.5 45.5 -124.5q0 -89 -63.5 -142t-189.5 -53h-209v732h191q72 0 124 -24.5t79 -67t27 -96.5q0 -60 -33.5 -102t-96.5 -60q80 -15 125.5 -62.5zM130 704v-313h158q97 0 149 42.5t52 110.5q0 70 -54 115t-151 45h-154zM302 28q115 0 171 46t56 121
q0 79 -58 124t-160 45h-181v-336h172z" />
    <glyph glyph-name="C" unicode="C" horiz-adv-x="630" 
d="M496.5 55q50.5 35 73.5 94l24 -15q-24 -64 -81.5 -103.5t-139.5 -39.5q-89 0 -160 47.5t-111 133t-40 195.5t40 195.5t111 132.5t160 47q82 0 139.5 -39.5t81.5 -103.5l-24 -15q-23 59 -73.5 94t-123.5 35q-81 0 -144.5 -44t-99 -122.5t-35.5 -179.5q0 -100 35.5 -179
t99 -123.5t144.5 -44.5q73 0 123.5 35z" />
    <glyph glyph-name="D" unicode="D" horiz-adv-x="700" 
d="M275 732q107 0 189 -43t128 -125.5t46 -196.5q0 -115 -45.5 -198t-127.5 -126t-190 -43h-175v732h175zM272 28q99 0 174.5 40t117.5 116.5t42 182.5q0 105 -42 181.5t-117.5 116t-174.5 39.5h-142v-676h142z" />
    <glyph glyph-name="E" unicode="E" horiz-adv-x="562" 
d="M461 366h-331v-338h376v-28h-406v732h395v-28h-365v-310h331v-28z" />
    <glyph glyph-name="F" unicode="F" horiz-adv-x="542" 
d="M100 732h395v-28h-365v-328h331v-28h-331v-348h-30v732z" />
    <glyph glyph-name="G" unicode="G" horiz-adv-x="674" 
d="M409 334v27h212v-252q-30 -55 -90.5 -86.5t-137.5 -31.5q-95 0 -170 47t-118 132.5t-43 196.5q0 110 43 195t117.5 132.5t166.5 47.5q82 0 142.5 -37t85.5 -97l-24 -14q-23 54 -77 86.5t-128 32.5q-83 0 -150 -44t-105.5 -123t-38.5 -179q0 -101 38.5 -180t107 -123.5
t155.5 -44.5q64 0 115.5 25t80.5 71v219h-182z" />
    <glyph glyph-name="H" unicode="H" horiz-adv-x="713" 
d="M130 395h452v337h31v-732h-31v367h-452v-367h-30v732h30v-337z" />
    <glyph glyph-name="I" unicode="I" horiz-adv-x="230" 
d="M130 0h-30v732h30v-732z" />
    <glyph glyph-name="J" unicode="J" horiz-adv-x="409" 
d="M74 18q-38 27 -54 80l24 15q15 -47 46.5 -70.5t75.5 -23.5q61 0 93.5 44t32.5 132v537h31v-540q0 -99 -42.5 -150t-115.5 -51q-53 0 -91 27z" />
    <glyph glyph-name="K" unicode="K" horiz-adv-x="622" 
d="M290 427l316 -427h-39l-298 403l-139 -142v-261h-30v732h30v-431l417 431h40z" />
    <glyph glyph-name="L" unicode="L" horiz-adv-x="536" 
d="M100 732h30v-704h366v-28h-396v732z" />
    <glyph glyph-name="M" unicode="M" horiz-adv-x="840" 
d="M714 732h26v-732h-29v672l-281 -440h-19l-282 441v-673h-29v732h27l294 -461z" />
    <glyph glyph-name="N" unicode="N" horiz-adv-x="710" 
d="M126 732l456 -675v675h29v-732h-26l-456 676v-676h-29v732h26z" />
    <glyph glyph-name="O" unicode="O" horiz-adv-x="744" 
d="M101.5 564q39.5 85 110 131.5t160.5 46.5t160.5 -46.5t110 -131.5t39.5 -197t-40 -197.5t-110.5 -132t-159.5 -46.5q-90 0 -160.5 46.5t-110 131.5t-39.5 198q0 112 39.5 197zM129 186q35 -79 98 -123t145 -44q81 0 144.5 44t99 123t35.5 181q0 101 -35.5 180t-99 122.5
t-144.5 43.5t-144.5 -43.5t-98.5 -122t-35 -180.5t35 -181z" />
    <glyph glyph-name="P" unicode="P" horiz-adv-x="553" 
d="M267 732q73 0 130 -25.5t88.5 -73t31.5 -110.5t-31.5 -111t-88.5 -73.5t-130 -25.5h-137v-313h-30v732h167zM264 341q99 0 160 48.5t61 133.5t-60.5 133t-160.5 48h-134v-363h134z" />
    <glyph glyph-name="Q" unicode="Q" horiz-adv-x="744" 
d="M709 -143h-46l-196 151q-45 -17 -95 -17q-90 0 -160.5 46.5t-110 131.5t-39.5 198q0 112 39.5 197t110 131.5t160.5 46.5t160.5 -46.5t110 -131.5t39.5 -197q0 -125 -49 -215.5t-133 -131.5zM129 186q35 -79 98 -123t145 -44q81 0 144.5 44t99 123t35.5 181
q0 101 -35.5 180t-99 122.5t-144.5 43.5t-144.5 -43.5t-98.5 -122t-35 -180.5t35 -181z" />
    <glyph glyph-name="R" unicode="R" horiz-adv-x="581" 
d="M575 0h-38l-231 331q-22 -3 -45 -3h-131v-328h-30v732h161q73 0 130 -24t89 -70t32 -108q0 -75 -47 -125.5t-127 -67.5zM130 704v-348h128q100 0 160.5 46t60.5 128t-60.5 128t-160.5 46h-128z" />
    <glyph glyph-name="S" unicode="S" horiz-adv-x="527" 
d="M432.5 43.5q-57.5 -52.5 -154.5 -52.5q-88 0 -156.5 43t-90.5 118l25 15q21 -68 82.5 -108t139.5 -40q81 0 130.5 45t49.5 121q0 56 -27 91.5t-66.5 55t-105.5 42.5t-105 42t-66 54t-27 91q0 59 29 99.5t77 61t105 20.5q82 0 138 -39.5t67 -98.5l-25 -15q-11 56 -59.5 90
t-121.5 34q-76 0 -127 -39t-51 -111q0 -47 24 -77.5t60.5 -47.5t97.5 -37q70 -24 112.5 -45t72.5 -62t30 -107q0 -91 -57.5 -143.5z" />
    <glyph glyph-name="T" unicode="T" horiz-adv-x="528" 
d="M18 732h493v-28h-231v-704h-31v704h-231v28z" />
    <glyph glyph-name="U" unicode="U" horiz-adv-x="685" 
d="M569 732h30v-455q0 -86 -30.5 -150.5t-88 -100t-137.5 -35.5t-138 35.5t-88.5 100t-30.5 150.5v455h31v-449q0 -123 59 -193.5t167 -70.5q107 0 166.5 70.5t59.5 193.5v449z" />
    <glyph glyph-name="V" unicode="V" horiz-adv-x="623" 
d="M54 732l261 -687l257 687h32l-277 -732h-26l-282 732h35z" />
    <glyph glyph-name="W" unicode="W" horiz-adv-x="942" 
d="M486 732l207 -679l199 679h31l-219 -732h-26l-206 673l-202 -673h-26l-225 732h34l205 -680l200 680h28z" />
    <glyph glyph-name="X" unicode="X" horiz-adv-x="619" 
d="M593 732l-265 -361l274 -371h-40l-254 347l-253 -347h-37l273 372l-265 360h39l246 -336l245 336h37z" />
    <glyph glyph-name="Y" unicode="Y" horiz-adv-x="577" 
d="M298 353l227 379h33l-246 -411v-321h-30v322l-263 410h37z" />
    <glyph glyph-name="Z" unicode="Z" horiz-adv-x="564" 
d="M523 732v-16l-446 -688h460v-28h-504v17l446 687h-416v28h460z" />
    <glyph glyph-name="bracketleft" unicode="[" horiz-adv-x="285" 
d="M94 815h171v-26h-142v-874h142v-26h-171v926z" />
    <glyph glyph-name="backslash" unicode="\" horiz-adv-x="345" 
d="M20 732h31l274 -732h-31z" />
    <glyph glyph-name="bracketright" unicode="]" horiz-adv-x="285" 
d="M20 789v26h171v-926h-171v26h142v874h-142z" />
    <glyph glyph-name="asciicircum" unicode="^" horiz-adv-x="424" 
d="M70 383h-30l161 349h22l161 -349h-31l-141 311z" />
    <glyph glyph-name="underscore" unicode="_" horiz-adv-x="387" 
d="M0 -118v26h387v-26h-387z" />
    <glyph glyph-name="grave" unicode="`" horiz-adv-x="223" 
d="M55 740h34l79 -141h-27z" />
    <glyph glyph-name="a" unicode="a" horiz-adv-x="534" 
d="M401 483q50 -48 50 -145v-338h-25q0 67 -1 96q-21 -48 -67 -76.5t-109 -28.5q-76 0 -128.5 41t-52.5 115q0 75 61.5 116.5t160.5 41.5q63 0 132 -18v47q0 87 -41 128t-107 41q-53 0 -93 -24t-59 -66l-24 13q19 48 67.5 76.5t109.5 28.5q76 0 126 -48zM422 262
q-73 19 -132 19q-85 0 -138 -35t-53 -99q0 -61 43.5 -95t107.5 -34q73 0 122.5 43t49.5 117v84z" />
    <glyph glyph-name="b" unicode="b" horiz-adv-x="595" 
d="M424.5 499q49.5 -32 79 -92.5t29.5 -144.5t-29.5 -145.5t-79.5 -93.5t-109 -32q-69 0 -121.5 39.5t-72.5 111.5q-2 -35 -2 -142h-25v759h29v-374q21 71 73 108.5t119 37.5q60 0 109.5 -32zM408.5 47.5q43.5 28.5 69 83.5t25.5 131t-25.5 130.5t-69 82.5t-96.5 28
q-48 0 -91 -24t-70.5 -78t-27.5 -139t27.5 -139.5t70.5 -79t91 -24.5q53 0 96.5 28.5z" />
    <glyph glyph-name="c" unicode="c" horiz-adv-x="483" 
d="M378 42q38 22 57 66l24 -14q-21 -51 -66.5 -77t-100.5 -26q-64 0 -116.5 34t-83 95.5t-30.5 141.5t30.5 141t83 94.5t116.5 33.5q55 0 100.5 -25.5t66.5 -76.5l-24 -14q-19 44 -57 66t-86 22q-57 0 -102.5 -29.5t-71 -84t-25.5 -127.5t25.5 -128t71 -84.5t102.5 -29.5
q48 0 86 22z" />
    <glyph glyph-name="d" unicode="d" horiz-adv-x="595" 
d="M473 759h29v-759h-25q0 90 -3 142q-20 -73 -73 -112t-120 -39q-60 0 -110 32t-79.5 93.5t-29.5 145.5q0 83 29.5 144t79.5 93t110 32q67 0 118.5 -37.5t73.5 -108.5v374zM374.5 43q42.5 24 70.5 78.5t28 140.5q0 85 -28 139t-70.5 78t-90.5 24q-53 0 -96.5 -28t-69 -82.5
t-25.5 -130.5t25.5 -131t69 -83.5t96.5 -28.5q48 0 90.5 24z" />
    <glyph glyph-name="e" unicode="e" horiz-adv-x="528" 
d="M392 500.5q45 -30.5 68.5 -82t23.5 -113.5q0 -13 -2 -37h-389q0 -77 26 -133t72 -85.5t105 -29.5q48 0 87.5 20.5t58.5 60.5l23 -13q-21 -47 -68 -72t-102 -25q-64 0 -117 33t-84.5 95.5t-31.5 146.5q0 81 30 141t81 92t113 32q61 0 106 -30.5zM153.5 448
q-52.5 -55 -59.5 -154h359q2 59 -17 106.5t-58 75t-94 27.5q-78 0 -130.5 -55z" />
    <glyph glyph-name="f" unicode="f" horiz-adv-x="311" 
d="M153 588v-66h144v-26h-144v-496h-29v496h-89v26h89v68q0 93 36 136.5t96 43.5q47 0 76 -22l-11 -25q-28 20 -64 20q-104 0 -104 -155z" />
    <glyph glyph-name="g" unicode="g" horiz-adv-x="595" 
d="M501 522v-512q0 -131 -62 -192.5t-158 -61.5q-67 0 -120 28t-79 83l24 14q25 -49 70.5 -73.5t104.5 -24.5q87 0 139.5 54t52.5 174v127q-22 -71 -73 -109t-116 -38q-60 0 -111 32.5t-81 93.5t-30 145q0 83 30 144t81 93t111 32q67 0 118.5 -39t71.5 -112q2 72 2 142h25z
M376.5 43q42.5 24 69.5 78.5t27 140.5q0 85 -27 139t-69.5 78t-90.5 24q-53 0 -97 -28t-70 -82.5t-26 -130.5t26 -131t70 -83.5t97 -28.5q48 0 90.5 24z" />
    <glyph glyph-name="h" unicode="h" horiz-adv-x="558" 
d="M426.5 479.5q48.5 -51.5 48.5 -146.5v-333h-29v326q0 87 -41.5 132t-108.5 45q-47 0 -86.5 -21.5t-63 -64.5t-23.5 -103v-314h-29v761h29v-349q22 56 69.5 87.5t108.5 31.5q77 0 125.5 -51.5z" />
    <glyph glyph-name="i" unicode="i" horiz-adv-x="218" 
d="M90 664q-8 8 -8 20q0 11 7.5 19t18.5 8q12 0 20 -8t8 -19q0 -12 -8 -20t-19 -8t-19 8zM124 0h-29v522h29v-522z" />
    <glyph glyph-name="j" unicode="j" horiz-adv-x="219" 
d="M90.5 664q-8.5 8 -8.5 20q0 11 8 19t19 8t19.5 -8t8.5 -19q0 -12 -8 -20t-19 -8t-19.5 8zM-55.5 -235q-21.5 9 -33.5 25l18 22q24 -29 65 -29q46 0 73.5 37t27.5 119v583h30v-585q0 -93 -36 -137t-95 -44q-28 0 -49.5 9z" />
    <glyph glyph-name="k" unicode="k" horiz-adv-x="480" 
d="M240 298l231 -298h-39l-212 276l-97 -103v-173h-29v761h29v-548l289 309h38z" />
    <glyph glyph-name="l" unicode="l" horiz-adv-x="217" 
d="M123 0h-29v761h29v-761z" />
    <glyph glyph-name="m" unicode="m" horiz-adv-x="830" 
d="M703.5 480q43.5 -51 43.5 -147v-333h-29v326q0 87 -36.5 132t-95.5 45q-41 0 -75 -21.5t-54.5 -64.5t-20.5 -103v-314h-29v326q0 87 -37 132t-95 45q-41 0 -75.5 -21.5t-55.5 -64.5t-21 -103v-314h-29v522h25q0 -83 2 -113q19 57 61.5 89.5t97.5 32.5t95.5 -34.5
t53.5 -100.5q17 63 61 99t102 36q68 0 111.5 -51z" />
    <glyph glyph-name="n" unicode="n" horiz-adv-x="558" 
d="M426.5 479.5q48.5 -51.5 48.5 -146.5v-333h-29v326q0 87 -41.5 132t-108.5 45q-47 0 -86.5 -21.5t-63 -64.5t-23.5 -103v-314h-29v522h25q0 -85 2 -115q21 58 69.5 91t110.5 33q77 0 125.5 -51.5z" />
    <glyph glyph-name="o" unicode="o" horiz-adv-x="584" 
d="M93.5 401q31.5 62 84 96t114.5 34t114.5 -34t84 -96t31.5 -140t-31.5 -140t-84 -96t-114.5 -34t-114.5 34t-84 96t-31.5 140t31.5 140zM120 135q27 -55 72.5 -85t99.5 -30t100 30t73 85t27 126t-27 126t-73 85.5t-100 30.5t-99.5 -30.5t-72.5 -85.5t-27 -126t27 -126z
" />
    <glyph glyph-name="p" unicode="p" horiz-adv-x="595" 
d="M424.5 499q49.5 -32 79 -93t29.5 -145t-29.5 -145t-79.5 -93t-109 -32q-67 0 -119.5 38.5t-72.5 108.5v-370h-29v754h25q0 -106 2 -142q21 74 73.5 112.5t120.5 38.5q60 0 109.5 -32zM408.5 47.5q43.5 28.5 69 83t25.5 130.5t-25.5 131t-69 83t-96.5 28q-48 0 -91 -24
t-70.5 -78.5t-27.5 -139.5t27.5 -139t70.5 -78.5t91 -24.5q53 0 96.5 28.5z" />
    <glyph glyph-name="q" unicode="q" horiz-adv-x="595" 
d="M502 522v-754h-29v370q-22 -71 -74 -109t-118 -38q-60 0 -110 32t-79.5 93.5t-29.5 144.5q0 84 29.5 145t79.5 93t110 32q68 0 120.5 -39t72.5 -112q2 72 2 142h26zM374.5 43q42.5 24 70.5 78.5t28 139.5t-28 139.5t-70.5 78.5t-90.5 24q-53 0 -96.5 -28t-69 -83
t-25.5 -131t25.5 -130.5t69 -83t96.5 -28.5q48 0 90.5 24z" />
    <glyph glyph-name="r" unicode="r" horiz-adv-x="336" 
d="M323 516l-12 -24q-18 11 -45 11q-39 0 -71.5 -22.5t-52 -66.5t-19.5 -106v-308h-29v522h25q0 -80 2 -110q18 56 56.5 87.5t89.5 31.5q33 0 56 -15z" />
    <glyph glyph-name="s" unicode="s" horiz-adv-x="438" 
d="M347.5 30q-46.5 -39 -117.5 -39q-64 0 -116 32t-68 89l23 14q16 -52 60.5 -79.5t100.5 -27.5q58 0 95.5 30.5t37.5 82.5q0 38 -20 62.5t-49 38t-78 30.5q-50 17 -80 31t-50.5 39t-20.5 65q0 61 45.5 97t113.5 36q58 0 102 -27.5t59 -73.5l-23 -14q-14 41 -52 64t-87 23
q-55 0 -91 -27.5t-36 -74.5q0 -32 18 -53t44.5 -33.5t72.5 -27.5q54 -18 86 -33t54.5 -44t22.5 -76q0 -65 -46.5 -104z" />
    <glyph glyph-name="t" unicode="t" horiz-adv-x="325" 
d="M306 15q-34 -24 -80 -24q-56 0 -85.5 32t-29.5 108v365h-86v26h86v142h29v-142h143v-26h-143v-361q0 -61 20.5 -88.5t66.5 -27.5q36 0 68 19z" />
    <glyph glyph-name="u" unicode="u" horiz-adv-x="560" 
d="M437 522h29v-522h-25q0 85 -2 115q-21 -58 -69.5 -91t-109.5 -33q-78 0 -126.5 51t-48.5 147v333h29v-326q0 -87 41.5 -132t108.5 -45q46 0 85.5 22t63.5 64.5t24 102.5v314z" />
    <glyph glyph-name="v" unicode="v" horiz-adv-x="474" 
d="M46 522l199 -480l185 480h33l-209 -522h-23l-219 522h34z" />
    <glyph glyph-name="w" unicode="w" horiz-adv-x="742" 
d="M384 522l164 -470l154 470h27l-171 -522h-21l-165 468l-154 -468h-20l-185 522h32l163 -470l153 470h23z" />
    <glyph glyph-name="x" unicode="x" horiz-adv-x="455" 
d="M230 286l171 236h36l-191 -259l191 -263h-38l-172 236l-171 -236h-37l191 260l-191 262h39z" />
    <glyph glyph-name="y" unicode="y" horiz-adv-x="472" 
d="M427 522h33l-257 -644q-25 -64 -52.5 -93t-77.5 -29q-43 0 -68 20l13 25q10 -7 25 -12.5t30 -5.5q36 0 60 25.5t47 81.5l40 102l-210 530h35l190 -490z" />
    <glyph glyph-name="z" unicode="z" horiz-adv-x="455" 
d="M403 522v-17l-321 -479h332v-26h-373v18l321 478h-299v26h340z" />
    <glyph glyph-name="braceleft" unicode="{" horiz-adv-x="309" 
d="M176 495q0 -73 -22 -105.5t-60 -37.5q38 -5 60 -37t22 -105v-170q0 -67 20.5 -96t65.5 -29h27v-26h-24q-61 0 -90 34.5t-29 112.5v171q0 52 -10.5 79.5t-34 38.5t-65.5 11v32q43 0 66.5 11.5t33.5 39t10 78.5v171q0 78 29 112.5t90 34.5h24v-26h-27q-45 0 -65.5 -29
t-20.5 -96v-169z" />
    <glyph glyph-name="bar" unicode="|" horiz-adv-x="130" 
d="M51 -111v926h28v-926h-28z" />
    <glyph glyph-name="braceright" unicode="}" horiz-adv-x="309" 
d="M133 664q0 67 -20.5 96t-65.5 29h-27v26h24q61 0 90 -34.5t29 -112.5v-171q0 -51 10 -78.5t33.5 -39t66.5 -11.5v-32q-42 0 -65.5 -11t-34 -38.5t-10.5 -79.5v-171q0 -78 -29 -112.5t-90 -34.5h-24v26h27q45 0 65.5 29t20.5 96v170q0 73 22 105t60 37q-38 5 -60 37.5
t-22 105.5v169z" />
    <glyph glyph-name="asciitilde" unicode="~" 
d="M80 308q6 53 32.5 87t71.5 34q29 0 48 -13t43 -39q23 -24 38.5 -35t38.5 -11q33 0 53 25.5t26 67.5h26q-6 -53 -32.5 -86.5t-71.5 -33.5q-29 0 -48.5 13t-43.5 39q-23 24 -38.5 35t-38.5 11q-32 0 -51.5 -25.5t-26.5 -68.5h-26z" />
    <glyph glyph-name="uni00A0" unicode="&#xa0;" horiz-adv-x="270" 
 />
    <glyph glyph-name="exclamdown" unicode="&#xa1;" horiz-adv-x="219" 
d="M128.5 528q8.5 -8 8.5 -20t-8 -19.5t-19 -7.5q-12 0 -20 7.5t-8 19.5t8 20t19 8t19.5 -8zM121 344l3 -576h-30l3 576h24z" />
    <glyph glyph-name="cent" unicode="&#xa2;" 
d="M319 133q50 1 91 23t59 65l24 -14q-20 -50 -68.5 -76t-105.5 -27v-104h-30v106q-58 6 -107.5 39.5t-79 90.5t-29.5 130t29.5 130t79 90t107.5 39v107h30v-105q57 -1 105.5 -27t68.5 -75l-24 -14q-18 43 -59 65t-91 23v-466zM129 249.5q25 -50.5 67 -79.5t93 -35v462
q-51 -6 -93 -35.5t-67 -79.5t-25 -116t25 -116.5z" />
    <glyph glyph-name="sterling" unicode="&#xa3;" 
d="M526 28v-28h-466v22q73 42 105.5 86.5t32.5 105.5q0 32 -8 62t-23 66h-107v27h96q-21 47 -31.5 82t-10.5 76q0 61 26 110t73.5 77t109.5 28q78 0 126.5 -42t62.5 -104l-25 -14q-15 59 -57.5 95.5t-108.5 36.5q-53 0 -92.5 -24.5t-61 -66.5t-21.5 -94q0 -40 10.5 -74
t32.5 -86h212v-27h-200q29 -71 29 -127q0 -117 -111 -187h407z" />
    <glyph glyph-name="currency" unicode="&#xa4;" horiz-adv-x="545" 
d="M420 238l79 -79l-20 -19l-80 79q-25 -23 -57.5 -35.5t-68.5 -12.5q-35 0 -68 12.5t-60 34.5l-79 -79l-20 20l80 79q-49 56 -49 127q0 72 49 128l-80 79l20 20l79 -80q56 48 128 48t128 -48l78 80l20 -20l-79 -79q47 -55 47 -128q0 -72 -47 -127zM355.5 221
q37.5 22 59.5 60.5t22 83.5t-22 83.5t-59.5 61t-83.5 22.5q-45 0 -83 -22.5t-60 -61t-22 -83.5t22 -83t60 -60.5t83 -22.5q46 0 83.5 22z" />
    <glyph glyph-name="yen" unicode="&#xa5;" 
d="M279 379l216 353h34l-226 -366h168v-27h-178v-101h178v-27h-178v-211h-31v211h-177v27h177v101h-177v27h166l-242 366h37z" />
    <glyph glyph-name="brokenbar" unicode="&#xa6;" horiz-adv-x="131" 
d="M51 448v367h29v-367h-29zM51 -111v367h29v-367h-29z" />
    <glyph glyph-name="section" unicode="&#xa7;" horiz-adv-x="548" 
d="M462 118.5q-44 -43.5 -116 -52.5q51 -25 78.5 -60t27.5 -89q0 -81 -59 -121t-143 -40q-79 0 -133 39t-63 98l25 15q9 -56 55 -89.5t116 -33.5q71 0 120.5 32t49.5 98q0 45 -24.5 75t-59.5 48t-96 41q-65 23 -104.5 43.5t-66.5 55.5t-27 90q0 68 44 111t117 52
q-51 25 -79 60t-28 90q0 81 59.5 121t142.5 40q79 0 133 -39t63 -99l-25 -15q-9 57 -55 90t-116 33q-72 0 -121 -31.5t-49 -97.5q0 -46 24.5 -76t59.5 -47.5t97 -40.5q65 -24 104 -44t66 -55.5t27 -89.5q0 -68 -44 -111.5zM429 125.5q46 37.5 46 102.5q0 46 -24.5 76
t-59.5 48.5t-97 41.5q-26 8 -43 16h-12q-74 0 -120 -37.5t-46 -102.5q0 -47 25 -77.5t61.5 -48.5t98.5 -41l36 -14q5 -1 15 -1q74 0 120 37.5z" />
    <glyph glyph-name="dieresis" unicode="&#xa8;" horiz-adv-x="277" 
d="M25.5 657q-8.5 8 -8.5 20q0 11 8 19t19 8t19.5 -8t8.5 -19q0 -12 -8 -20t-19 -8t-19.5 8zM213.5 657q-8.5 8 -8.5 20q0 11 8 19t19 8t19.5 -8t8.5 -19q0 -12 -8 -20t-19 -8t-19.5 8z" />
    <glyph glyph-name="copyright" unicode="&#xa9;" horiz-adv-x="874" 
d="M627 693q86 -49 135.5 -135t49.5 -191t-49.5 -191t-135.5 -135.5t-191 -49.5t-190.5 49.5t-134.5 135.5t-49 191t49 191t134.5 135t190.5 49t191 -49zM614 64q80 46 126 125.5t46 177.5q0 97 -46 177t-126 125.5t-178 45.5q-97 0 -176.5 -45.5t-125.5 -125t-46 -177.5
t46 -177.5t125.5 -125.5t176.5 -46q98 0 178 46zM328 502.5q-45 -50.5 -45 -135.5t45 -135.5t116 -50.5q39 0 70.5 16.5t47.5 50.5l22 -13q-19 -40 -57 -61t-83 -21q-52 0 -95.5 27t-69 75.5t-25.5 111.5t25.5 111.5t69 75t95.5 26.5q45 0 83 -20.5t57 -60.5l-22 -13
q-16 34 -47.5 50.5t-70.5 16.5q-71 0 -116 -50.5z" />
    <glyph glyph-name="ordfeminine" unicode="&#xaa;" horiz-adv-x="362" 
d="M267.5 703q34.5 -34 34.5 -98v-227h-23v61q-13 -30 -43 -48t-71 -18q-50 0 -85 27t-35 76q0 52 40.5 80.5t105.5 28.5q40 0 85 -12v29q0 57 -26 84.5t-70 27.5q-66 0 -94 -60l-21 11q13 33 45 52.5t71 19.5q52 0 86.5 -34zM244.5 422q31.5 27 31.5 77v53q-49 11 -85 11
q-55 0 -87 -22t-32 -65q0 -40 26.5 -60.5t67.5 -20.5q47 0 78.5 27z" />
    <glyph glyph-name="guillemotleft" unicode="&#xab;" horiz-adv-x="501" 
d="M234 54l-185 208l185 207h37l-185 -207l185 -208h-37zM415 54l-185 208l185 207h38l-186 -207l186 -208h-38z" />
    <glyph glyph-name="logicalnot" unicode="&#xac;" 
d="M450 186l-1 194h-389v27h417v-221h-27z" />
    <glyph glyph-name="uni00AD" unicode="&#xad;" horiz-adv-x="499" 
d="M73 349v27h353v-27h-353z" />
    <glyph glyph-name="registered" unicode="&#xae;" horiz-adv-x="450" 
d="M65 648.5q25 42.5 67 68t92 25.5q51 0 93.5 -25.5t67.5 -68t25 -92.5q0 -51 -25 -93t-67.5 -66.5t-93.5 -24.5q-50 0 -92 24.5t-67 66.5t-25 93q0 50 25 92.5zM84 473.5q22 -37.5 59 -59t81 -21.5q45 0 82.5 21.5t59.5 59t22 82.5t-22 83t-59.5 59.5t-82.5 21.5
q-44 0 -81 -22t-59 -59.5t-22 -82.5t22 -82.5zM165 448v218h71q32 0 50 -17.5t18 -45.5q0 -23 -13 -39.5t-35 -20.5l64 -95h-25l-62 93h-47v-93h-21zM232 559q25 0 37.5 12t12.5 32q0 22 -12.5 34t-37.5 12h-46v-90h46z" />
    <glyph glyph-name="macron" unicode="&#xaf;" horiz-adv-x="375" 
d="M54 661v29h267v-29h-267z" />
    <glyph glyph-name="degree" unicode="&#xb0;" horiz-adv-x="251" 
d="M44.5 779q33.5 33 80.5 33q48 0 81.5 -33t33.5 -86t-33.5 -86t-81.5 -33q-47 0 -80.5 33t-33.5 86t33.5 86zM63.5 626q25.5 -26 61.5 -26q37 0 62 26t25 67q0 42 -24.5 67.5t-62.5 25.5q-36 0 -61.5 -25.5t-25.5 -67.5q0 -41 25.5 -67z" />
    <glyph glyph-name="plusminus" unicode="&#xb1;" 
d="M255 421v170h27v-170h195v-27h-195v-170h-27v170h-195v27h195zM60 156h417v-27h-417v27z" />
    <glyph glyph-name="uni00B2" unicode="&#xb2;" horiz-adv-x="276" 
d="M60 531h189v-23h-226v17l138 153q26 28 38 50t12 45q0 31 -19.5 51t-53.5 20q-29 0 -53 -16.5t-35 -51.5l-20 12q12 38 42.5 58.5t67.5 20.5q44 0 70.5 -26.5t26.5 -65.5q0 -29 -14 -54t-42 -56z" />
    <glyph glyph-name="uni00B3" unicode="&#xb3;" horiz-adv-x="280" 
d="M230.5 663q20.5 -24 20.5 -60q0 -45 -32 -74t-83 -29q-39 0 -70 19.5t-43 55.5l20 12q10 -31 35 -47.5t58 -16.5q40 0 64.5 23t24.5 58q0 37 -27 58t-71 21h-26v21h27q35 0 60 21.5t25 51.5q0 28 -22 48t-55 20q-28 0 -52.5 -16t-35.5 -45l-19 11q12 35 42 54t66 19
q44 0 72.5 -26t28.5 -64q0 -28 -17.5 -50.5t-46.5 -32.5q36 -8 56.5 -32z" />
    <glyph glyph-name="acute" unicode="&#xb4;" horiz-adv-x="223" 
d="M55 599l79 141h34l-86 -141h-27z" />
    <glyph glyph-name="uni00B5" unicode="&#xb5;" horiz-adv-x="563" 
d="M553 0q-15 -9 -37 -9q-36 0 -52.5 22.5t-16.5 71.5v25q-22 -55 -69.5 -87t-107.5 -32q-52 0 -90 24t-57 72v-319h-29v754h29v-326q0 -87 41.5 -132t108.5 -45q46 0 85.5 22t63.5 64.5t24 102.5v314h29v-432q0 -39 11 -55t35 -16q14 0 25 6z" />
    <glyph glyph-name="paragraph" unicode="&#xb6;" horiz-adv-x="505" 
d="M259 732h29v-732h-29v465q-178 0 -178 134q0 133 178 133zM406 0h-29v732h29v-732z" />
    <glyph glyph-name="periodcentered" unicode="&#xb7;" horiz-adv-x="500" 
d="M240 343q-8 8 -8 20t7.5 20t18.5 8q12 0 20 -8t8 -20t-7.5 -20t-19.5 -8q-11 0 -19 8z" />
    <glyph glyph-name="cedilla" unicode="&#xb8;" horiz-adv-x="269" 
d="M107 5h27l-35 -92q7 1 20 1q45 0 71 -19t26 -56q0 -40 -30 -61.5t-76 -21.5q-30 0 -57 9v26q27 -9 56 -9q34 0 56.5 14t22.5 42q0 26 -20 38.5t-55 12.5q-18 0 -39 -3l-5 19z" />
    <glyph glyph-name="uni00B9" unicode="&#xb9;" horiz-adv-x="200" 
d="M25 784v25l92 51h19v-352h-25v324z" />
    <glyph glyph-name="ordmasculine" unicode="&#xba;" horiz-adv-x="389" 
d="M60 649q21 42 56.5 65t77.5 23t78 -23t57 -65t21 -95t-21 -94.5t-57 -64t-78 -22.5t-77.5 23t-56.5 64t-21 94t21 95zM83.5 470.5q17.5 -36.5 46.5 -56t64 -19.5q36 0 65 19.5t46 56t17 83.5t-17 83.5t-46.5 56.5t-64.5 20t-64 -20t-46.5 -56.5t-17.5 -83.5t17.5 -83.5z
" />
    <glyph glyph-name="guillemotright" unicode="&#xbb;" horiz-adv-x="501" 
d="M86 469l185 -207l-185 -208h-37l185 208l-185 207h37zM267 469l186 -207l-186 -208h-37l185 208l-185 207h37z" />
    <glyph glyph-name="onequarter" unicode="&#xbc;" horiz-adv-x="593" 
d="M549 732l-492 -732h-27l492 732h27zM25 654v25l92 51h19v-352h-25v324zM518 216v-106h60v-22h-60v-84h-24v84h-171v16l152 251h26l-148 -245h141v106h24z" />
    <glyph glyph-name="onehalf" unicode="&#xbd;" horiz-adv-x="628" 
d="M549 732l-492 -732h-27l492 732h27zM25 654v25l92 51h19v-352h-25v324zM412 26h190v-22h-226v16l138 153q25 30 37 51.5t12 44.5q0 31 -19.5 51t-52.5 20q-29 0 -53 -17t-36 -51l-19 11q12 39 42 59t67 20q45 0 71 -26t26 -66q0 -29 -14 -54.5t-41 -55.5z" />
    <glyph glyph-name="threequarters" unicode="&#xbe;" horiz-adv-x="649" 
d="M230.5 533q20.5 -24 20.5 -60q0 -45 -32 -74t-83 -29q-39 0 -70 19.5t-43 55.5l20 12q10 -31 35 -47.5t58 -16.5q40 0 64.5 23t24.5 58q0 37 -27 58t-71 21h-26v21h27q35 0 60 21.5t25 51.5q0 28 -22 48t-55 20q-28 0 -52.5 -16t-35.5 -45l-19 11q12 35 42 54t66 19
q44 0 72.5 -26t28.5 -64q0 -28 -17.5 -50.5t-46.5 -32.5q36 -8 56.5 -32zM605 732l-492 -732h-27l492 732h27zM574 216v-106h60v-22h-60v-84h-24v84h-171v16l152 251h26l-148 -245h141v106h24z" />
    <glyph glyph-name="questiondown" unicode="&#xbf;" horiz-adv-x="402" 
d="M230 524q8 -8 8 -20q0 -11 -8 -19t-19 -8t-19 8t-8 19q0 12 7.5 20t19.5 8q11 0 19 -8zM391 -123q-24 -58 -73 -89.5t-114 -31.5q-54 0 -93 21.5t-59.5 57.5t-20.5 81q0 53 23.5 91t70.5 87q31 33 49 55.5t30.5 52.5t12.5 65q0 37 -12 73h26q14 -41 14 -79
q0 -52 -23.5 -90t-69.5 -86q-45 -48 -67 -83.5t-22 -83.5q0 -58 37.5 -96t106.5 -38q57 0 96.5 26.5t63.5 80.5z" />
    <glyph glyph-name="Agrave" unicode="&#xc0;" horiz-adv-x="634" 
d="M208 928h33l83 -122h-26zM327 732l288 -732h-34l-97 250h-337l-96 -250h-32l282 732h26zM473 278l-159 409l-157 -409h316z" />
    <glyph glyph-name="Aacute" unicode="&#xc1;" horiz-adv-x="634" 
d="M307 806l84 122h33l-90 -122h-27zM327 732l288 -732h-34l-97 250h-337l-96 -250h-32l282 732h26zM473 278l-159 409l-157 -409h316z" />
    <glyph glyph-name="Acircumflex" unicode="&#xc2;" horiz-adv-x="634" 
d="M303 928h25l111 -122h-32l-91 102l-92 -102h-32zM327 732l288 -732h-34l-97 250h-337l-96 -250h-32l282 732h26zM473 278l-159 409l-157 -409h316z" />
    <glyph glyph-name="Atilde" unicode="&#xc3;" horiz-adv-x="634" 
d="M177 826q2 39 22 66t55 27q23 0 37.5 -10.5t32.5 -31.5q14 -17 26 -26t28 -9q43 0 51 69h26q-2 -39 -22 -66t-55 -27q-23 0 -37.5 10.5t-32.5 31.5q-14 17 -26 26t-28 9q-44 0 -51 -69h-26zM327 732l288 -732h-34l-97 250h-337l-96 -250h-32l282 732h26zM473 278
l-159 409l-157 -409h316z" />
    <glyph glyph-name="Adieresis" unicode="&#xc4;" horiz-adv-x="634" 
d="M202.5 859q-8.5 8 -8.5 20t8 19.5t19 7.5q12 0 20 -7.5t8 -19.5t-8 -20t-19 -8t-19.5 8zM391 859q-8 8 -8 20t8 19.5t19 7.5t19 -7.5t8 -19.5t-7.5 -20t-19.5 -8q-11 0 -19 8zM327 732l288 -732h-34l-97 250h-337l-96 -250h-32l282 732h26zM473 278l-159 409l-157 -409
h316z" />
    <glyph glyph-name="Aring" unicode="&#xc5;" horiz-adv-x="634" 
d="M258.5 911.5q23.5 16.5 57.5 16.5q32 0 54.5 -16.5t22.5 -40.5t-22.5 -40.5t-54.5 -16.5q-34 0 -57.5 16.5t-23.5 40.5t23.5 40.5zM275 842q16 -12 41 -12q24 0 39.5 12t15.5 29q0 19 -15.5 30.5t-39.5 11.5q-25 0 -41 -11.5t-16 -30.5q0 -17 16 -29zM327 732l288 -732
h-34l-97 250h-337l-96 -250h-32l282 732h26zM473 278l-159 409l-157 -409h316z" />
    <glyph glyph-name="AE" unicode="&#xc6;" horiz-adv-x="957" 
d="M855 366h-330v-338h376v-28h-407v254h-284l-166 -254h-35l480 732h401v-28h-365v-310h330v-28zM494 282v406l-266 -406h266z" />
    <glyph glyph-name="Ccedilla" unicode="&#xc7;" horiz-adv-x="630" 
d="M496.5 55q50.5 35 73.5 94l24 -15q-24 -63 -80.5 -102t-137.5 -40l-31 -79q6 1 19 1q44 0 71 -19.5t27 -55.5q0 -40 -30.5 -61.5t-76.5 -21.5q-27 0 -56 9v25q27 -9 56 -9q34 0 56.5 14.5t22.5 42.5q0 52 -79 52q-11 0 -35 -2l-4 18l33 87q-83 6 -148.5 55t-102 131.5
t-36.5 187.5q0 110 40 195.5t111 132.5t160 47q82 0 139.5 -39.5t81.5 -103.5l-24 -15q-23 59 -73.5 94t-123.5 35q-81 0 -144.5 -44t-99 -122.5t-35.5 -179.5q0 -100 35.5 -179t99 -123.5t144.5 -44.5q73 0 123.5 35z" />
    <glyph glyph-name="Egrave" unicode="&#xc8;" horiz-adv-x="562" 
d="M187 928h33l84 -122h-27zM461 366h-331v-338h376v-28h-406v732h395v-28h-365v-310h331v-28z" />
    <glyph glyph-name="Eacute" unicode="&#xc9;" horiz-adv-x="562" 
d="M287 806l84 122h33l-90 -122h-27zM461 366h-331v-338h376v-28h-406v732h395v-28h-365v-310h331v-28z" />
    <glyph glyph-name="Ecircumflex" unicode="&#xca;" horiz-adv-x="562" 
d="M283 928h24l111 -122h-31l-92 102l-92 -102h-32zM461 366h-331v-338h376v-28h-406v732h395v-28h-365v-310h331v-28z" />
    <glyph glyph-name="Edieresis" unicode="&#xcb;" horiz-adv-x="562" 
d="M182 861.5q-8 7.5 -8 19.5q0 10 8 17.5t19 7.5t19.5 -7.5t8.5 -17.5q0 -12 -8 -19.5t-19 -7.5q-12 0 -20 7.5zM370.5 861.5q-8.5 7.5 -8.5 19.5q0 10 8 17.5t19 7.5t19.5 -7.5t8.5 -17.5q0 -12 -8 -19.5t-19 -7.5t-19.5 7.5zM461 366h-331v-338h376v-28h-406v732h395v-28
h-365v-310h331v-28z" />
    <glyph glyph-name="Igrave" unicode="&#xcc;" horiz-adv-x="230" 
d="M7 928h33l84 -122h-27zM130 0h-30v732h30v-732z" />
    <glyph glyph-name="Iacute" unicode="&#xcd;" horiz-adv-x="230" 
d="M107 806l84 122h33l-90 -122h-27zM130 0h-30v732h30v-732z" />
    <glyph glyph-name="Icircumflex" unicode="&#xce;" horiz-adv-x="230" 
d="M103 928h24l111 -122h-31l-92 102l-92 -102h-32zM130 0h-30v732h30v-732z" />
    <glyph glyph-name="Idieresis" unicode="&#xcf;" horiz-adv-x="230" 
d="M2 861.5q-8 7.5 -8 19.5q0 10 8 17.5t19 7.5t19.5 -7.5t8.5 -17.5q0 -12 -8 -19.5t-19 -7.5q-12 0 -20 7.5zM190.5 861.5q-8.5 7.5 -8.5 19.5q0 10 8 17.5t19 7.5t19.5 -7.5t8.5 -17.5q0 -12 -8 -19.5t-19 -7.5t-19.5 7.5zM130 0h-30v732h30v-732z" />
    <glyph glyph-name="Eth" unicode="&#xd0;" horiz-adv-x="706" 
d="M281 732q107 0 189 -43t128 -125.5t46 -196.5q0 -115 -46 -198t-128 -126t-189 -43h-176v366h-85v28h85v338h176zM277 28q99 0 174.5 40t117.5 116.5t42 182.5t-42 182t-117.5 115.5t-174.5 39.5h-141v-310h161v-28h-161v-338h141z" />
    <glyph glyph-name="Ntilde" unicode="&#xd1;" horiz-adv-x="710" 
d="M216 826q2 39 22 66t55 27q23 0 37.5 -10.5t32.5 -31.5q14 -17 26 -26t28 -9q45 0 51 69h26q-2 -39 -22 -66t-55 -27q-23 0 -37.5 10.5t-32.5 31.5q-14 17 -26 26t-28 9q-43 0 -51 -69h-26zM126 732l456 -675v675h29v-732h-26l-456 676v-676h-29v732h26z" />
    <glyph glyph-name="Ograve" unicode="&#xd2;" horiz-adv-x="744" 
d="M264 928h33l83 -122h-26zM101.5 564q39.5 85 110 131.5t160.5 46.5t160.5 -46.5t110 -131.5t39.5 -197t-40 -197.5t-110.5 -132t-159.5 -46.5q-90 0 -160.5 46.5t-110 131.5t-39.5 198q0 112 39.5 197zM129 186q35 -79 98 -123t145 -44q81 0 144.5 44t99 123t35.5 181
q0 101 -35.5 180t-99 122.5t-144.5 43.5t-144.5 -43.5t-98.5 -122t-35 -180.5t35 -181z" />
    <glyph glyph-name="Oacute" unicode="&#xd3;" horiz-adv-x="744" 
d="M363 806l84 122h33l-90 -122h-27zM101.5 564q39.5 85 110 131.5t160.5 46.5t160.5 -46.5t110 -131.5t39.5 -197t-40 -197.5t-110.5 -132t-159.5 -46.5q-90 0 -160.5 46.5t-110 131.5t-39.5 198q0 112 39.5 197zM129 186q35 -79 98 -123t145 -44q81 0 144.5 44t99 123
t35.5 181q0 101 -35.5 180t-99 122.5t-144.5 43.5t-144.5 -43.5t-98.5 -122t-35 -180.5t35 -181z" />
    <glyph glyph-name="Ocircumflex" unicode="&#xd4;" horiz-adv-x="744" 
d="M359 924h25l111 -118h-32l-91 99l-92 -99h-32zM101.5 564q39.5 85 110 131.5t160.5 46.5t160.5 -46.5t110 -131.5t39.5 -197t-40 -197.5t-110.5 -132t-159.5 -46.5q-90 0 -160.5 46.5t-110 131.5t-39.5 198q0 112 39.5 197zM129 186q35 -79 98 -123t145 -44
q81 0 144.5 44t99 123t35.5 181q0 101 -35.5 180t-99 122.5t-144.5 43.5t-144.5 -43.5t-98.5 -122t-35 -180.5t35 -181z" />
    <glyph glyph-name="Otilde" unicode="&#xd5;" horiz-adv-x="744" 
d="M233 826q2 39 22 66t55 27q23 0 37.5 -10.5t32.5 -31.5q14 -17 26 -26t28 -9q43 0 51 69h26q-2 -39 -22 -66t-55 -27q-23 0 -37.5 10.5t-32.5 31.5q-14 17 -26 26t-28 9q-44 0 -51 -69h-26zM101.5 564q39.5 85 110 131.5t160.5 46.5t160.5 -46.5t110 -131.5t39.5 -197
t-40 -197.5t-110.5 -132t-159.5 -46.5q-90 0 -160.5 46.5t-110 131.5t-39.5 198q0 112 39.5 197zM129 186q35 -79 98 -123t145 -44q81 0 144.5 44t99 123t35.5 181q0 101 -35.5 180t-99 122.5t-144.5 43.5t-144.5 -43.5t-98.5 -122t-35 -180.5t35 -181z" />
    <glyph glyph-name="Odieresis" unicode="&#xd6;" horiz-adv-x="744" 
d="M258.5 861.5q-8.5 7.5 -8.5 19.5q0 10 8 17.5t19 7.5q12 0 20 -7t8 -18q0 -12 -8 -19.5t-19 -7.5t-19.5 7.5zM447 861.5q-8 7.5 -8 19.5q0 10 8 17.5t19 7.5t19 -7.5t8 -17.5q0 -12 -7.5 -19.5t-19.5 -7.5q-11 0 -19 7.5zM101.5 564q39.5 85 110 131.5t160.5 46.5
t160.5 -46.5t110 -131.5t39.5 -197t-40 -197.5t-110.5 -132t-159.5 -46.5q-90 0 -160.5 46.5t-110 131.5t-39.5 198q0 112 39.5 197zM129 186q35 -79 98 -123t145 -44q81 0 144.5 44t99 123t35.5 181q0 101 -35.5 180t-99 122.5t-144.5 43.5t-144.5 -43.5t-98.5 -122
t-35 -180.5t35 -181z" />
    <glyph glyph-name="multiply" unicode="&#xd7;" 
d="M120 530l148 -149l149 149l19 -19l-149 -148l149 -149l-19 -19l-149 149l-148 -149l-19 19l148 149l-148 148z" />
    <glyph glyph-name="Oslash" unicode="&#xd8;" horiz-adv-x="745" 
d="M648 765h35l-91 -124q43 -50 67 -120.5t24 -153.5q0 -110 -40 -195.5t-110.5 -133t-159.5 -47.5q-117 0 -200 80l-76 -103h-34l90 123q-43 50 -67 121t-24 155q0 110 40 195t111 132.5t160 47.5q57 0 107.5 -21t91.5 -60zM114.5 228q19.5 -64 56.5 -111l383 520
q-73 76 -181 76q-81 0 -144.5 -44t-98.5 -122.5t-35 -179.5q0 -75 19.5 -139zM631 505.5q-20 63.5 -57 109.5l-383 -519q74 -77 182 -77q81 0 144 44.5t98.5 124t35.5 179.5q0 75 -20 138.5z" />
    <glyph glyph-name="Ugrave" unicode="&#xd9;" horiz-adv-x="685" 
d="M235 928h33l84 -122h-27zM569 732h30v-455q0 -86 -30.5 -150.5t-88 -100t-137.5 -35.5t-138 35.5t-88.5 100t-30.5 150.5v455h31v-449q0 -123 59 -193.5t167 -70.5q107 0 166.5 70.5t59.5 193.5v449z" />
    <glyph glyph-name="Uacute" unicode="&#xda;" horiz-adv-x="685" 
d="M335 806l84 122h33l-90 -122h-27zM569 732h30v-455q0 -86 -30.5 -150.5t-88 -100t-137.5 -35.5t-138 35.5t-88.5 100t-30.5 150.5v455h31v-449q0 -123 59 -193.5t167 -70.5q107 0 166.5 70.5t59.5 193.5v449z" />
    <glyph glyph-name="Ucircumflex" unicode="&#xdb;" horiz-adv-x="685" 
d="M331 928h24l111 -122h-31l-92 102l-92 -102h-32zM569 732h30v-455q0 -86 -30.5 -150.5t-88 -100t-137.5 -35.5t-138 35.5t-88.5 100t-30.5 150.5v455h31v-449q0 -123 59 -193.5t167 -70.5q107 0 166.5 70.5t59.5 193.5v449z" />
    <glyph glyph-name="Udieresis" unicode="&#xdc;" horiz-adv-x="685" 
d="M230 861.5q-8 7.5 -8 19.5q0 10 8 17.5t19 7.5t19.5 -7.5t8.5 -17.5q0 -12 -8 -19.5t-19 -7.5q-12 0 -20 7.5zM418.5 861.5q-8.5 7.5 -8.5 19.5q0 10 8 17.5t19 7.5t19.5 -7.5t8.5 -17.5q0 -12 -8 -19.5t-19 -7.5t-19.5 7.5zM569 732h30v-455q0 -86 -30.5 -150.5
t-88 -100t-137.5 -35.5t-138 35.5t-88.5 100t-30.5 150.5v455h31v-449q0 -123 59 -193.5t167 -70.5q107 0 166.5 70.5t59.5 193.5v449z" />
    <glyph glyph-name="Yacute" unicode="&#xdd;" horiz-adv-x="577" 
d="M282 806l84 122h33l-90 -122h-27zM298 353l227 379h33l-246 -411v-321h-30v322l-263 410h37z" />
    <glyph glyph-name="Thorn" unicode="&#xde;" horiz-adv-x="553" 
d="M267 577q73 0 130 -25t88.5 -72.5t31.5 -110.5q0 -64 -31.5 -111.5t-88.5 -73t-130 -25.5h-137v-159h-30v732h30v-155h137zM263 187q100 0 161 48t61 134q0 85 -61 132.5t-161 47.5h-133v-362h133z" />
    <glyph glyph-name="germandbls" unicode="&#xdf;" horiz-adv-x="564" 
d="M470.5 341.5q45.5 -53.5 45.5 -135.5q0 -63 -25 -111.5t-71.5 -76t-109.5 -27.5q-48 0 -80 16v30q33 -19 77 -19q81 0 129.5 52t48.5 136q0 85 -52.5 134.5t-144.5 49.5h-36v26h15q86 0 131.5 45.5t45.5 119.5q0 68 -37.5 114.5t-111.5 46.5q-80 0 -126 -57.5t-46 -157.5
v-527h-29v529q0 73 25.5 127.5t71 84t105.5 29.5q56 0 96.5 -26t61.5 -69t21 -94q0 -65 -33 -111t-94 -63q77 -12 122.5 -65.5z" />
    <glyph glyph-name="agrave" unicode="&#xe0;" horiz-adv-x="534" 
d="M210 740l79 -141h-27l-86 141h34zM401 483q50 -48 50 -145v-338h-25q0 67 -1 96q-21 -48 -67 -76.5t-109 -28.5q-76 0 -128.5 41t-52.5 115q0 75 61.5 116.5t160.5 41.5q63 0 132 -18v47q0 87 -41 128t-107 41q-53 0 -93 -24t-59 -66l-24 13q19 48 67.5 76.5t109.5 28.5
q76 0 126 -48zM422 262q-73 19 -132 19q-85 0 -138 -35t-53 -99q0 -61 43.5 -95t107.5 -34q73 0 122.5 43t49.5 117v84z" />
    <glyph glyph-name="aacute" unicode="&#xe1;" horiz-adv-x="534" 
d="M334 740h34l-86 -141h-27zM401 483q50 -48 50 -145v-338h-25q0 67 -1 96q-21 -48 -67 -76.5t-109 -28.5q-76 0 -128.5 41t-52.5 115q0 75 61.5 116.5t160.5 41.5q63 0 132 -18v47q0 87 -41 128t-107 41q-53 0 -93 -24t-59 -66l-24 13q19 48 67.5 76.5t109.5 28.5
q76 0 126 -48zM422 262q-73 19 -132 19q-85 0 -138 -35t-53 -99q0 -61 43.5 -95t107.5 -34q73 0 122.5 43t49.5 117v84z" />
    <glyph glyph-name="acircumflex" unicode="&#xe2;" horiz-adv-x="534" 
d="M358 599l-86 117l-88 -117h-31l106 141h24l106 -141h-31zM401 483q50 -48 50 -145v-338h-25q0 67 -1 96q-21 -48 -67 -76.5t-109 -28.5q-76 0 -128.5 41t-52.5 115q0 75 61.5 116.5t160.5 41.5q63 0 132 -18v47q0 87 -41 128t-107 41q-53 0 -93 -24t-59 -66l-24 13
q19 48 67.5 76.5t109.5 28.5q76 0 126 -48zM422 262q-73 19 -132 19q-85 0 -138 -35t-53 -99q0 -61 43.5 -95t107.5 -34q73 0 122.5 43t49.5 117v84z" />
    <glyph glyph-name="atilde" unicode="&#xe3;" horiz-adv-x="534" 
d="M159 622h-26q2 43 22 71.5t55 28.5q23 0 37.5 -11.5t32.5 -34.5q14 -19 26 -29t28 -10q43 0 51 74h26q-2 -42 -22 -70.5t-55 -28.5q-23 0 -37.5 11.5t-32.5 34.5q-15 19 -26.5 28.5t-27.5 9.5q-44 0 -51 -74zM401 483q50 -48 50 -145v-338h-25q0 67 -1 96
q-21 -48 -67 -76.5t-109 -28.5q-76 0 -128.5 41t-52.5 115q0 75 61.5 116.5t160.5 41.5q63 0 132 -18v47q0 87 -41 128t-107 41q-53 0 -93 -24t-59 -66l-24 13q19 48 67.5 76.5t109.5 28.5q76 0 126 -48zM422 262q-73 19 -132 19q-85 0 -138 -35t-53 -99q0 -61 43.5 -95
t107.5 -34q73 0 122.5 43t49.5 117v84z" />
    <glyph glyph-name="adieresis" unicode="&#xe4;" horiz-adv-x="534" 
d="M158.5 657q-8.5 8 -8.5 20q0 11 8 19t19 8q12 0 20 -8t8 -19q0 -12 -7.5 -20t-19.5 -8q-11 0 -19.5 8zM347 657q-8 8 -8 20q0 11 8 19t19 8t19 -8t8 -19q0 -13 -7.5 -20.5t-19.5 -7.5q-11 0 -19 8zM401 483q50 -48 50 -145v-338h-25q0 67 -1 96q-21 -48 -67 -76.5
t-109 -28.5q-76 0 -128.5 41t-52.5 115q0 75 61.5 116.5t160.5 41.5q63 0 132 -18v47q0 87 -41 128t-107 41q-53 0 -93 -24t-59 -66l-24 13q19 48 67.5 76.5t109.5 28.5q76 0 126 -48zM422 262q-73 19 -132 19q-85 0 -138 -35t-53 -99q0 -61 43.5 -95t107.5 -34
q73 0 122.5 43t49.5 117v84z" />
    <glyph glyph-name="aring" unicode="&#xe5;" horiz-adv-x="534" 
d="M214.5 627q-23.5 23 -23.5 58t23.5 57.5t57.5 22.5q32 0 54.5 -22.5t22.5 -57.5t-22.5 -58t-54.5 -23q-34 0 -57.5 23zM231 726.5q-16 -16.5 -16 -41.5q0 -26 16 -42.5t41 -16.5q24 0 39.5 16.5t15.5 42.5q0 25 -15.5 41.5t-39.5 16.5q-25 0 -41 -16.5zM401 483
q50 -48 50 -145v-338h-25q0 67 -1 96q-21 -48 -67 -76.5t-109 -28.5q-76 0 -128.5 41t-52.5 115q0 75 61.5 116.5t160.5 41.5q63 0 132 -18v47q0 87 -41 128t-107 41q-53 0 -93 -24t-59 -66l-24 13q19 48 67.5 76.5t109.5 28.5q76 0 126 -48zM422 262q-73 19 -132 19
q-85 0 -138 -35t-53 -99q0 -61 43.5 -95t107.5 -34q73 0 122.5 43t49.5 117v84z" />
    <glyph glyph-name="ae" unicode="&#xe6;" horiz-adv-x="891" 
d="M754.5 500.5q45.5 -30.5 69 -82t23.5 -113.5q0 -13 -2 -37h-389q0 -77 26 -133t72 -85.5t105 -29.5q48 0 87 20.5t59 60.5l23 -13q-21 -47 -68 -72t-102 -25q-73 0 -130 43.5t-82 121.5q-10 -80 -63.5 -122.5t-132.5 -42.5q-76 0 -129 38.5t-53 114.5q0 77 55.5 120.5
t156.5 43.5q69 0 146 -20v44q0 84 -41.5 127.5t-111.5 43.5q-52 0 -92 -24t-59 -67l-24 14q19 48 67 76.5t109 28.5q70 0 117 -39.5t56 -115.5q24 73 78 114t123 41q61 0 106.5 -30.5zM816 294q3 59 -16.5 106.5t-58.5 75t-94 27.5q-78 0 -130.5 -55t-59.5 -154h359z
M426 262q-77 20 -144 20q-88 0 -135.5 -36t-47.5 -100t44.5 -96t108.5 -32q75 0 124.5 45.5t49.5 130.5v68z" />
    <glyph glyph-name="ccedilla" unicode="&#xe7;" horiz-adv-x="483" 
d="M378 42q38 22 57 66l24 -14q-21 -50 -64 -75t-96 -27l-31 -79q6 1 19 1q44 0 71 -19.5t27 -55.5q0 -39 -30 -61t-76 -22q-28 0 -57 9v26q26 -10 56 -10q34 0 56.5 14.5t22.5 43.5q0 26 -20.5 39t-57.5 13q-16 0 -36 -3l-4 18l33 86q-60 6 -108 40.5t-75 94t-27 135.5
q0 80 30.5 141t83 94.5t116.5 33.5q55 0 100.5 -25.5t66.5 -76.5l-24 -14q-19 44 -57 66t-86 22q-57 0 -102.5 -29.5t-71 -84t-25.5 -127.5t25.5 -128t71 -84.5t102.5 -29.5q48 0 86 22z" />
    <glyph glyph-name="egrave" unicode="&#xe8;" horiz-adv-x="528" 
d="M184 740h34l80 -141h-28zM392 500.5q45 -30.5 68.5 -82t23.5 -113.5q0 -13 -2 -37h-389q0 -77 26 -133t72 -85.5t105 -29.5q48 0 87.5 20.5t58.5 60.5l23 -13q-21 -47 -68 -72t-102 -25q-64 0 -117 33t-84.5 95.5t-31.5 146.5q0 81 30 141t81 92t113 32q61 0 106 -30.5z
M153.5 448q-52.5 -55 -59.5 -154h359q2 59 -17 106.5t-58 75t-94 27.5q-78 0 -130.5 -55z" />
    <glyph glyph-name="eacute" unicode="&#xe9;" horiz-adv-x="528" 
d="M263 599l80 141h34l-86 -141h-28zM392 500.5q45 -30.5 68.5 -82t23.5 -113.5q0 -13 -2 -37h-389q0 -77 26 -133t72 -85.5t105 -29.5q48 0 87.5 20.5t58.5 60.5l23 -13q-21 -47 -68 -72t-102 -25q-64 0 -117 33t-84.5 95.5t-31.5 146.5q0 81 30 141t81 92t113 32
q61 0 106 -30.5zM153.5 448q-52.5 -55 -59.5 -154h359q2 59 -17 106.5t-58 75t-94 27.5q-78 0 -130.5 -55z" />
    <glyph glyph-name="ecircumflex" unicode="&#xea;" horiz-adv-x="528" 
d="M268 740h24l106 -141h-31l-87 117l-87 -117h-31zM392 500.5q45 -30.5 68.5 -82t23.5 -113.5q0 -13 -2 -37h-389q0 -77 26 -133t72 -85.5t105 -29.5q48 0 87.5 20.5t58.5 60.5l23 -13q-21 -47 -68 -72t-102 -25q-64 0 -117 33t-84.5 95.5t-31.5 146.5q0 81 30 141t81 92
t113 32q61 0 106 -30.5zM153.5 448q-52.5 -55 -59.5 -154h359q2 59 -17 106.5t-58 75t-94 27.5q-78 0 -130.5 -55z" />
    <glyph glyph-name="edieresis" unicode="&#xeb;" horiz-adv-x="528" 
d="M167 657q-8 8 -8 20q0 11 8 19t19 8t19.5 -8t8.5 -19q0 -12 -7.5 -20t-19.5 -8t-20 8zM355.5 657q-8.5 8 -8.5 20q0 11 8 19t19 8q12 0 20 -8t8 -19q0 -12 -7.5 -20t-19.5 -8q-11 0 -19.5 8zM392 500.5q45 -30.5 68.5 -82t23.5 -113.5q0 -13 -2 -37h-389q0 -77 26 -133
t72 -85.5t105 -29.5q48 0 87.5 20.5t58.5 60.5l23 -13q-21 -47 -68 -72t-102 -25q-64 0 -117 33t-84.5 95.5t-31.5 146.5q0 81 30 141t81 92t113 32q61 0 106 -30.5zM153.5 448q-52.5 -55 -59.5 -154h359q2 59 -17 106.5t-58 75t-94 27.5q-78 0 -130.5 -55z" />
    <glyph glyph-name="igrave" unicode="&#xec;" horiz-adv-x="216" 
d="M12 740h34l80 -141h-28zM94 0v522h28v-522h-28z" />
    <glyph glyph-name="iacute" unicode="&#xed;" horiz-adv-x="216" 
d="M91 599l80 141h34l-86 -141h-28zM94 0v522h28v-522h-28z" />
    <glyph glyph-name="icircumflex" unicode="&#xee;" horiz-adv-x="216" 
d="M96 740h24l106 -141h-31l-87 117l-87 -117h-31zM94 0v522h28v-522h-28z" />
    <glyph glyph-name="idieresis" unicode="&#xef;" horiz-adv-x="216" 
d="M-4.5 657q-8.5 8 -8.5 20q0 11 8 19t19 8t19.5 -8t8.5 -19q0 -12 -8 -20t-19 -8t-19.5 8zM183.5 657q-8.5 8 -8.5 20q0 11 8 19t19 8t19.5 -8t8.5 -19q0 -12 -8 -20t-19 -8t-19.5 8zM94 0v522h28v-522h-28z" />
    <glyph glyph-name="eth" unicode="&#xf0;" horiz-adv-x="584" 
d="M343 679q94 -83 136.5 -193t42.5 -209q0 -86 -31 -151t-83.5 -100t-115.5 -35t-115.5 34.5t-83.5 96.5t-31 139q0 78 30.5 139.5t83 96t115.5 34.5q56 0 103 -28t77 -85q-44 153 -155 245l-138 -84l-13 24l128 78q-54 41 -113 65l16 24q67 -27 124 -72l119 72l14 -24z
M392.5 50q45.5 30 72.5 85t27 126q0 70 -27 125.5t-72.5 86t-100.5 30.5q-54 0 -99.5 -30.5t-72.5 -85.5t-27 -126t27 -126t72.5 -85t99.5 -30q55 0 100.5 30z" />
    <glyph glyph-name="ntilde" unicode="&#xf1;" horiz-adv-x="558" 
d="M138 622q2 43 22 71.5t55 28.5q24 0 39 -12t32 -35q15 -19 26.5 -28.5t27.5 -9.5q22 0 34.5 19.5t16.5 54.5h26q-2 -42 -22.5 -70.5t-55.5 -28.5q-23 0 -37.5 11.5t-32.5 34.5q-15 19 -26.5 28.5t-27.5 9.5q-43 0 -51 -74h-26zM426.5 479.5q48.5 -51.5 48.5 -146.5v-333
h-29v326q0 87 -41.5 132t-108.5 45q-47 0 -86.5 -21.5t-63 -64.5t-23.5 -103v-314h-29v522h25q0 -85 2 -115q21 58 69.5 91t110.5 33q77 0 125.5 -51.5z" />
    <glyph glyph-name="ograve" unicode="&#xf2;" horiz-adv-x="584" 
d="M196 740h34l79 -141h-27zM93.5 401q31.5 62 84 96t114.5 34t114.5 -34t84 -96t31.5 -140t-31.5 -140t-84 -96t-114.5 -34t-114.5 34t-84 96t-31.5 140t31.5 140zM120 135q27 -55 72.5 -85t99.5 -30t100 30t73 85t27 126t-27 126t-73 85.5t-100 30.5t-99.5 -30.5
t-72.5 -85.5t-27 -126t27 -126z" />
    <glyph glyph-name="oacute" unicode="&#xf3;" horiz-adv-x="584" 
d="M275 599l79 141h34l-86 -141h-27zM93.5 401q31.5 62 84 96t114.5 34t114.5 -34t84 -96t31.5 -140t-31.5 -140t-84 -96t-114.5 -34t-114.5 34t-84 96t-31.5 140t31.5 140zM120 135q27 -55 72.5 -85t99.5 -30t100 30t73 85t27 126t-27 126t-73 85.5t-100 30.5t-99.5 -30.5
t-72.5 -85.5t-27 -126t27 -126z" />
    <glyph glyph-name="ocircumflex" unicode="&#xf4;" horiz-adv-x="584" 
d="M279 740h24l106 -141h-31l-86 117l-88 -117h-31zM93.5 401q31.5 62 84 96t114.5 34t114.5 -34t84 -96t31.5 -140t-31.5 -140t-84 -96t-114.5 -34t-114.5 34t-84 96t-31.5 140t31.5 140zM120 135q27 -55 72.5 -85t99.5 -30t100 30t73 85t27 126t-27 126t-73 85.5
t-100 30.5t-99.5 -30.5t-72.5 -85.5t-27 -126t27 -126z" />
    <glyph glyph-name="otilde" unicode="&#xf5;" horiz-adv-x="584" 
d="M153 622q2 43 22 71.5t55 28.5q23 0 37.5 -11.5t32.5 -34.5q14 -19 26 -29t28 -10q43 0 51 74h26q-2 -42 -22 -70.5t-55 -28.5q-23 0 -37.5 11.5t-32.5 34.5q-15 19 -26.5 28.5t-27.5 9.5q-44 0 -51 -74h-26zM93.5 401q31.5 62 84 96t114.5 34t114.5 -34t84 -96
t31.5 -140t-31.5 -140t-84 -96t-114.5 -34t-114.5 34t-84 96t-31.5 140t31.5 140zM120 135q27 -55 72.5 -85t99.5 -30t100 30t73 85t27 126t-27 126t-73 85.5t-100 30.5t-99.5 -30.5t-72.5 -85.5t-27 -126t27 -126z" />
    <glyph glyph-name="odieresis" unicode="&#xf6;" horiz-adv-x="584" 
d="M178.5 657q-8.5 8 -8.5 20q0 11 8 19t19 8q12 0 20 -8t8 -19q0 -12 -7.5 -20t-19.5 -8q-11 0 -19.5 8zM367 657q-8 8 -8 20q0 11 8 19t19 8t19 -8t8 -19q0 -13 -7.5 -20.5t-19.5 -7.5q-11 0 -19 8zM93.5 401q31.5 62 84 96t114.5 34t114.5 -34t84 -96t31.5 -140
t-31.5 -140t-84 -96t-114.5 -34t-114.5 34t-84 96t-31.5 140t31.5 140zM120 135q27 -55 72.5 -85t99.5 -30t100 30t73 85t27 126t-27 126t-73 85.5t-100 30.5t-99.5 -30.5t-72.5 -85.5t-27 -126t27 -126z" />
    <glyph glyph-name="divide" unicode="&#xf7;" 
d="M250 523q-8 8 -8 20q0 11 7.5 19t18.5 8q12 0 20 -8t8 -19q0 -12 -7.5 -20t-19.5 -8q-11 0 -19 8zM477 349h-417v27h417v-27zM250 163q-8 8 -8 20q0 11 7.5 19t18.5 8q12 0 20 -8t8 -19q0 -12 -7.5 -20t-19.5 -8q-11 0 -19 8z" />
    <glyph glyph-name="oslash" unicode="&#xf8;" horiz-adv-x="599" 
d="M489 554h33l-70 -96q33 -36 51.5 -87t18.5 -110q0 -78 -31.5 -140t-84 -96t-114.5 -34q-39 0 -74.5 14.5t-65.5 40.5l-57 -78h-33l70 96q-33 37 -51.5 87t-18.5 110q0 78 31.5 140t84 96t114.5 34q39 0 75.5 -14t65.5 -41zM108 164q15 -44 42 -76l266 365q-26 24 -58 37
t-66 13q-54 0 -99.5 -30.5t-72.5 -85.5t-27 -126q0 -53 15 -97zM477 357.5q-15 44.5 -42 76.5l-267 -365q26 -24 58 -37t66 -13q54 0 100 30t73 85.5t27 126.5q0 52 -15 96.5z" />
    <glyph glyph-name="ugrave" unicode="&#xf9;" horiz-adv-x="560" 
d="M179 740h34l79 -141h-27zM437 522h29v-522h-25q0 85 -2 115q-21 -58 -69.5 -91t-109.5 -33q-78 0 -126.5 51t-48.5 147v333h29v-326q0 -87 41.5 -132t108.5 -45q46 0 85.5 22t63.5 64.5t24 102.5v314z" />
    <glyph glyph-name="uacute" unicode="&#xfa;" horiz-adv-x="560" 
d="M258 599l79 141h34l-86 -141h-27zM437 522h29v-522h-25q0 85 -2 115q-21 -58 -69.5 -91t-109.5 -33q-78 0 -126.5 51t-48.5 147v333h29v-326q0 -87 41.5 -132t108.5 -45q46 0 85.5 22t63.5 64.5t24 102.5v314z" />
    <glyph glyph-name="ucircumflex" unicode="&#xfb;" horiz-adv-x="560" 
d="M262 740h25l105 -141h-31l-86 117l-87 -117h-31zM437 522h29v-522h-25q0 85 -2 115q-21 -58 -69.5 -91t-109.5 -33q-78 0 -126.5 51t-48.5 147v333h29v-326q0 -87 41.5 -132t108.5 -45q46 0 85.5 22t63.5 64.5t24 102.5v314z" />
    <glyph glyph-name="udieresis" unicode="&#xfc;" horiz-adv-x="560" 
d="M162 657q-8 8 -8 20q0 11 7.5 19t18.5 8q12 0 20 -8t8 -19q0 -12 -7.5 -20t-19.5 -8q-11 0 -19 8zM350.5 657q-8.5 8 -8.5 20q0 11 8 19t19 8t19.5 -8t8.5 -19q0 -12 -8 -20t-19 -8t-19.5 8zM437 522h29v-522h-25q0 85 -2 115q-21 -58 -69.5 -91t-109.5 -33
q-78 0 -126.5 51t-48.5 147v333h29v-326q0 -87 41.5 -132t108.5 -45q46 0 85.5 22t63.5 64.5t24 102.5v314z" />
    <glyph glyph-name="yacute" unicode="&#xfd;" horiz-adv-x="472" 
d="M301 739h34l-86 -142h-27zM427 522h33l-257 -644q-25 -64 -52.5 -93t-77.5 -29q-43 0 -68 20l13 25q10 -7 25 -12.5t30 -5.5q36 0 60 25.5t47 81.5l40 102l-210 530h35l190 -490z" />
    <glyph glyph-name="thorn" unicode="&#xfe;" horiz-adv-x="595" 
d="M422.5 499q50.5 -32 80.5 -93t30 -145t-30 -145t-80.5 -93t-110.5 -32q-66 0 -117 38t-72 108v-369h-29v993h29v-376q21 72 72 109t117 37q60 0 110.5 -32zM406 47.5q44 28.5 70.5 83t26.5 130.5t-26 131t-70.5 83t-97.5 28q-47 0 -89.5 -24t-69.5 -78.5t-27 -139.5
t27 -139t69 -78.5t90 -24.5q53 0 97 28.5z" />
    <glyph glyph-name="ydieresis" unicode="&#xff;" horiz-adv-x="472" 
d="M125.5 655q-8.5 8 -8.5 20q0 11 8 19t19 8q12 0 20 -8t8 -19q0 -12 -8 -20t-19 -8t-19.5 8zM314 655q-8 8 -8 20q0 11 8 19t19 8t19 -8t8 -19q0 -12 -7.5 -20t-19.5 -8q-11 0 -19 8zM427 522h33l-257 -644q-25 -64 -52.5 -93t-77.5 -29q-43 0 -68 20l13 25
q10 -7 25 -12.5t30 -5.5q36 0 60 25.5t47 81.5l40 102l-210 530h35l190 -490z" />
    <glyph glyph-name="Amacron" unicode="&#x100;" horiz-adv-x="634" 
d="M183 869v28h266v-28h-266zM327 732l288 -732h-34l-97 250h-337l-96 -250h-32l282 732h26zM473 278l-159 409l-157 -409h316z" />
    <glyph glyph-name="amacron" unicode="&#x101;" horiz-adv-x="534" 
d="M139 689h266v-28h-266v28zM401 483q50 -48 50 -145v-338h-25q0 67 -1 96q-21 -48 -67 -76.5t-109 -28.5q-76 0 -128.5 41t-52.5 115q0 75 61.5 116.5t160.5 41.5q63 0 132 -18v47q0 87 -41 128t-107 41q-53 0 -93 -24t-59 -66l-24 13q19 48 67.5 76.5t109.5 28.5
q76 0 126 -48zM422 262q-73 19 -132 19q-85 0 -138 -35t-53 -99q0 -61 43.5 -95t107.5 -34q73 0 122.5 43t49.5 117v84z" />
    <glyph glyph-name="Abreve" unicode="&#x102;" horiz-adv-x="634" 
d="M223.5 839.5q-35.5 33.5 -35.5 88.5h27q1 -47 29 -73.5t72 -26.5q45 0 72.5 26.5t29.5 73.5h27q0 -55 -35 -88.5t-94 -33.5q-57 0 -92.5 33.5zM327 732l288 -732h-34l-97 250h-337l-96 -250h-32l282 732h26zM473 278l-159 409l-157 -409h316z" />
    <glyph glyph-name="abreve" unicode="&#x103;" horiz-adv-x="534" 
d="M179 640q-36 36 -36 94h28q1 -49 29 -77t72 -28q45 0 73 28t29 77h27q0 -58 -35.5 -94t-93.5 -36q-57 0 -93 36zM401 483q50 -48 50 -145v-338h-25q0 67 -1 96q-21 -48 -67 -76.5t-109 -28.5q-76 0 -128.5 41t-52.5 115q0 75 61.5 116.5t160.5 41.5q63 0 132 -18v47
q0 87 -41 128t-107 41q-53 0 -93 -24t-59 -66l-24 13q19 48 67.5 76.5t109.5 28.5q76 0 126 -48zM422 262q-73 19 -132 19q-85 0 -138 -35t-53 -99q0 -61 43.5 -95t107.5 -34q73 0 122.5 43t49.5 117v84z" />
    <glyph glyph-name="Aogonek" unicode="&#x104;" horiz-adv-x="634" 
d="M683 -194q-41 -50 -103 -50q-43 0 -73 24t-30 73q0 46 28.5 84t74.5 66l-96 247h-337l-96 -250h-32l282 732h26l288 -732q-55 -33 -82.5 -67t-27.5 -78q0 -39 21.5 -56.5t54.5 -17.5q27 0 47.5 11t38.5 31zM314 687l-157 -409h316z" />
    <glyph glyph-name="aogonek" unicode="&#x105;" horiz-adv-x="534" 
d="M519 -193q-40 -51 -103 -51q-43 0 -73.5 25t-30.5 74t32 88t82 67q0 60 -1 86q-21 -48 -67 -76.5t-109 -28.5q-76 0 -128.5 41t-52.5 115q0 75 61.5 116.5t160.5 41.5q63 0 132 -18v47q0 87 -41 128t-107 41q-53 0 -93 -24t-59 -66l-24 13q19 48 67.5 76.5t109.5 28.5
q76 0 126 -48t50 -145v-338q-55 -34 -83 -66.5t-28 -75.5q0 -38 22 -56.5t55 -18.5q50 0 86 43zM422 262q-73 19 -132 19q-85 0 -138 -35t-53 -99q0 -61 43.5 -95t107.5 -34q73 0 122.5 43t49.5 117v84z" />
    <glyph glyph-name="Cacute" unicode="&#x106;" horiz-adv-x="630" 
d="M338 806l83 122h33l-90 -122h-26zM496.5 55q50.5 35 73.5 94l24 -15q-24 -64 -81.5 -103.5t-139.5 -39.5q-89 0 -160 47.5t-111 133t-40 195.5t40 195.5t111 132.5t160 47q82 0 139.5 -39.5t81.5 -103.5l-24 -15q-23 59 -73.5 94t-123.5 35q-81 0 -144.5 -44t-99 -122.5
t-35.5 -179.5q0 -100 35.5 -179t99 -123.5t144.5 -44.5q73 0 123.5 35z" />
    <glyph glyph-name="cacute" unicode="&#x107;" horiz-adv-x="483" 
d="M266 599l80 141h34l-86 -141h-28zM378 42q38 22 57 66l24 -14q-21 -51 -66.5 -77t-100.5 -26q-64 0 -116.5 34t-83 95.5t-30.5 141.5t30.5 141t83 94.5t116.5 33.5q55 0 100.5 -25.5t66.5 -76.5l-24 -14q-19 44 -57 66t-86 22q-57 0 -102.5 -29.5t-71 -84t-25.5 -127.5
t25.5 -128t71 -84.5t102.5 -29.5q48 0 86 22z" />
    <glyph glyph-name="Ccircumflex" unicode="&#x108;" horiz-adv-x="630" 
d="M333 928h25l111 -122h-32l-91 102l-92 -102h-32zM496.5 55q50.5 35 73.5 94l24 -15q-24 -64 -81.5 -103.5t-139.5 -39.5q-89 0 -160 47.5t-111 133t-40 195.5t40 195.5t111 132.5t160 47q82 0 139.5 -39.5t81.5 -103.5l-24 -15q-23 59 -73.5 94t-123.5 35
q-81 0 -144.5 -44t-99 -122.5t-35.5 -179.5q0 -100 35.5 -179t99 -123.5t144.5 -44.5q73 0 123.5 35z" />
    <glyph glyph-name="ccircumflex" unicode="&#x109;" horiz-adv-x="483" 
d="M271 740h24l106 -141h-31l-86 117l-88 -117h-31zM378 42q38 22 57 66l24 -14q-21 -51 -66.5 -77t-100.5 -26q-64 0 -116.5 34t-83 95.5t-30.5 141.5t30.5 141t83 94.5t116.5 33.5q55 0 100.5 -25.5t66.5 -76.5l-24 -14q-19 44 -57 66t-86 22q-57 0 -102.5 -29.5t-71 -84
t-25.5 -127.5t25.5 -128t71 -84.5t102.5 -29.5q48 0 86 22z" />
    <glyph glyph-name="Cdotaccent" unicode="&#x10a;" horiz-adv-x="630" 
d="M326.5 861.5q-8.5 7.5 -8.5 19.5q0 10 8 17.5t19 7.5q12 0 20 -7t8 -18q0 -12 -8 -19.5t-19 -7.5t-19.5 7.5zM496.5 55q50.5 35 73.5 94l24 -15q-24 -64 -81.5 -103.5t-139.5 -39.5q-89 0 -160 47.5t-111 133t-40 195.5t40 195.5t111 132.5t160 47q82 0 139.5 -39.5
t81.5 -103.5l-24 -15q-23 59 -73.5 94t-123.5 35q-81 0 -144.5 -44t-99 -122.5t-35.5 -179.5q0 -100 35.5 -179t99 -123.5t144.5 -44.5q73 0 123.5 35z" />
    <glyph glyph-name="cdotaccent" unicode="&#x10b;" horiz-adv-x="483" 
d="M264.5 664.5q-8.5 8.5 -8.5 19.5t8.5 19t19.5 8t19 -8t8 -19t-8 -19.5t-19 -8.5t-19.5 8.5zM378 42q38 22 57 66l24 -14q-21 -51 -66.5 -77t-100.5 -26q-64 0 -116.5 34t-83 95.5t-30.5 141.5t30.5 141t83 94.5t116.5 33.5q55 0 100.5 -25.5t66.5 -76.5l-24 -14
q-19 44 -57 66t-86 22q-57 0 -102.5 -29.5t-71 -84t-25.5 -127.5t25.5 -128t71 -84.5t102.5 -29.5q48 0 86 22z" />
    <glyph glyph-name="Ccaron" unicode="&#x10c;" horiz-adv-x="630" 
d="M254 928l92 -102l91 102h32l-111 -122h-25l-111 122h32zM496.5 55q50.5 35 73.5 94l24 -15q-24 -64 -81.5 -103.5t-139.5 -39.5q-89 0 -160 47.5t-111 133t-40 195.5t40 195.5t111 132.5t160 47q82 0 139.5 -39.5t81.5 -103.5l-24 -15q-23 59 -73.5 94t-123.5 35
q-81 0 -144.5 -44t-99 -122.5t-35.5 -179.5q0 -100 35.5 -179t99 -123.5t144.5 -44.5q73 0 123.5 35z" />
    <glyph glyph-name="ccaron" unicode="&#x10d;" horiz-adv-x="483" 
d="M196 740l88 -117l86 117h31l-106 -141h-24l-106 141h31zM378 42q38 22 57 66l24 -14q-21 -51 -66.5 -77t-100.5 -26q-64 0 -116.5 34t-83 95.5t-30.5 141.5t30.5 141t83 94.5t116.5 33.5q55 0 100.5 -25.5t66.5 -76.5l-24 -14q-19 44 -57 66t-86 22q-57 0 -102.5 -29.5
t-71 -84t-25.5 -127.5t25.5 -128t71 -84.5t102.5 -29.5q48 0 86 22z" />
    <glyph glyph-name="Dcaron" unicode="&#x10e;" horiz-adv-x="700" 
d="M200 928l92 -102l91 102h32l-111 -122h-25l-111 122h32zM275 732q107 0 189 -43t128 -125.5t46 -196.5q0 -115 -45.5 -198t-127.5 -126t-190 -43h-175v732h175zM272 28q99 0 174.5 40t117.5 116.5t42 182.5q0 105 -42 181.5t-117.5 116t-174.5 39.5h-142v-676h142z" />
    <glyph glyph-name="dcaron" unicode="&#x10f;" horiz-adv-x="610" 
d="M629 760q8 -10 8 -33q0 -33 -17.5 -58.5t-55.5 -33.5v17q52 15 54 69l-9 -2q-11 0 -17.5 7.5t-6.5 18.5q0 10 7 17.5t17 7.5q12 0 20 -10zM473 759h29v-759h-25q0 90 -3 142q-20 -73 -73 -112t-120 -39q-60 0 -110 32t-79.5 93.5t-29.5 145.5q0 83 29.5 144t79.5 93
t110 32q67 0 118.5 -37.5t73.5 -108.5v374zM374.5 43q42.5 24 70.5 78.5t28 140.5q0 85 -28 139t-70.5 78t-90.5 24q-53 0 -96.5 -28t-69 -82.5t-25.5 -130.5t25.5 -131t69 -83.5t96.5 -28.5q48 0 90.5 24z" />
    <glyph glyph-name="Dcroat" unicode="&#x110;" horiz-adv-x="706" 
d="M281 732q107 0 189 -43t128 -125.5t46 -196.5q0 -115 -46 -198t-128 -126t-189 -43h-176v366h-85v28h85v338h176zM277 28q99 0 174.5 40t117.5 116.5t42 182.5t-42 182t-117.5 115.5t-174.5 39.5h-141v-310h161v-28h-161v-338h141z" />
    <glyph glyph-name="dcroat" unicode="&#x111;" horiz-adv-x="595" 
d="M502 650h82v-25h-82v-625h-25q0 90 -3 142q-20 -73 -73 -112t-120 -39q-60 0 -110 32t-79.5 93.5t-29.5 145.5q0 83 29.5 144t79.5 93t110 32q67 0 118.5 -37.5t73.5 -108.5v240h-145v25h145v109h29v-109zM374.5 43q42.5 24 70.5 78.5t28 140.5q0 85 -28 139t-70.5 78
t-90.5 24q-53 0 -96.5 -28t-69 -82.5t-25.5 -130.5t25.5 -131t69 -83.5t96.5 -28.5q48 0 90.5 24z" />
    <glyph glyph-name="Emacron" unicode="&#x112;" horiz-adv-x="562" 
d="M162 868v29h267v-29h-267zM461 366h-331v-338h376v-28h-406v732h395v-28h-365v-310h331v-28z" />
    <glyph glyph-name="emacron" unicode="&#x113;" horiz-adv-x="528" 
d="M147 661v28h267v-28h-267zM392 500.5q45 -30.5 68.5 -82t23.5 -113.5q0 -13 -2 -37h-389q0 -77 26 -133t72 -85.5t105 -29.5q48 0 87.5 20.5t58.5 60.5l23 -13q-21 -47 -68 -72t-102 -25q-64 0 -117 33t-84.5 95.5t-31.5 146.5q0 81 30 141t81 92t113 32q61 0 106 -30.5z
M153.5 448q-52.5 -55 -59.5 -154h359q2 59 -17 106.5t-58 75t-94 27.5q-78 0 -130.5 -55z" />
    <glyph glyph-name="Ebreve" unicode="&#x114;" horiz-adv-x="562" 
d="M203 839.5q-35 33.5 -35 88.5h27q1 -47 29 -73.5t71 -26.5q45 0 73 26.5t29 73.5h27q0 -55 -35 -88.5t-94 -33.5q-57 0 -92 33.5zM461 366h-331v-338h376v-28h-406v732h395v-28h-365v-310h331v-28z" />
    <glyph glyph-name="ebreve" unicode="&#x115;" horiz-adv-x="528" 
d="M188 640q-36 36 -36 94h27q1 -49 29 -77t73 -28t73 28t29 77h27q0 -58 -35.5 -94t-93.5 -36q-57 0 -93 36zM392 500.5q45 -30.5 68.5 -82t23.5 -113.5q0 -13 -2 -37h-389q0 -77 26 -133t72 -85.5t105 -29.5q48 0 87.5 20.5t58.5 60.5l23 -13q-21 -47 -68 -72t-102 -25
q-64 0 -117 33t-84.5 95.5t-31.5 146.5q0 81 30 141t81 92t113 32q61 0 106 -30.5zM153.5 448q-52.5 -55 -59.5 -154h359q2 59 -17 106.5t-58 75t-94 27.5q-78 0 -130.5 -55z" />
    <glyph glyph-name="Edotaccent" unicode="&#x116;" horiz-adv-x="562" 
d="M276 861.5q-8 7.5 -8 19.5q0 10 8 17.5t19 7.5t19 -7.5t8 -17.5q0 -12 -7.5 -19.5t-19.5 -7.5q-11 0 -19 7.5zM461 366h-331v-338h376v-28h-406v732h395v-28h-365v-310h331v-28z" />
    <glyph glyph-name="edotaccent" unicode="&#x117;" horiz-adv-x="528" 
d="M261 664.5q-8 8.5 -8 19.5t8 19t20 8q11 0 19 -8t8 -19t-8 -19.5t-19 -8.5q-12 0 -20 8.5zM392 500.5q45 -30.5 68.5 -82t23.5 -113.5q0 -13 -2 -37h-389q0 -77 26 -133t72 -85.5t105 -29.5q48 0 87.5 20.5t58.5 60.5l23 -13q-21 -47 -68 -72t-102 -25q-64 0 -117 33
t-84.5 95.5t-31.5 146.5q0 81 30 141t81 92t113 32q61 0 106 -30.5zM153.5 448q-52.5 -55 -59.5 -154h359q2 59 -17 106.5t-58 75t-94 27.5q-78 0 -130.5 -55z" />
    <glyph glyph-name="Eogonek" unicode="&#x118;" horiz-adv-x="562" 
d="M574 -194q-41 -50 -103 -50q-43 0 -73.5 24t-30.5 73q0 83 99 147h-366v732h395v-28h-365v-310h331v-28h-331v-338h376v-28q-55 -34 -83 -67.5t-28 -77.5q0 -39 21.5 -56.5t55.5 -17.5q27 0 47.5 11t38.5 31z" />
    <glyph glyph-name="eogonek" unicode="&#x119;" horiz-adv-x="528" 
d="M392 500.5q45 -30.5 68.5 -82t23.5 -113.5q0 -13 -2 -37h-389q0 -77 26 -133t72 -85.5t105 -29.5q48 0 87.5 20.5t58.5 60.5l23 -13q-19 -42 -62 -69q-72 -42 -103.5 -78t-31.5 -83q0 -40 21.5 -57.5t54.5 -17.5q27 0 47.5 11t39.5 33l15 -19q-41 -52 -103 -52
q-44 0 -73.5 24.5t-29.5 75.5q0 41 21 74t62 63q-18 -2 -28 -2q-64 0 -117 33t-84.5 95.5t-31.5 146.5q0 81 30 141t81 92t113 32q61 0 106 -30.5zM453 294q2 59 -17 106.5t-58 75t-94 27.5q-78 0 -130.5 -55t-59.5 -154h359z" />
    <glyph glyph-name="Ecaron" unicode="&#x11a;" horiz-adv-x="562" 
d="M203 928l92 -102l92 102h31l-111 -122h-24l-112 122h32zM461 366h-331v-338h376v-28h-406v732h395v-28h-365v-310h331v-28z" />
    <glyph glyph-name="ecaron" unicode="&#x11b;" horiz-adv-x="528" 
d="M193 740l88 -117l86 117h31l-106 -141h-24l-106 141h31zM392 500.5q45 -30.5 68.5 -82t23.5 -113.5q0 -13 -2 -37h-389q0 -77 26 -133t72 -85.5t105 -29.5q48 0 87.5 20.5t58.5 60.5l23 -13q-21 -47 -68 -72t-102 -25q-64 0 -117 33t-84.5 95.5t-31.5 146.5q0 81 30 141
t81 92t113 32q61 0 106 -30.5zM153.5 448q-52.5 -55 -59.5 -154h359q2 59 -17 106.5t-58 75t-94 27.5q-78 0 -130.5 -55z" />
    <glyph glyph-name="Gcircumflex" unicode="&#x11c;" horiz-adv-x="674" 
d="M373 928h24l111 -121h-31l-92 101l-92 -101h-32zM409 334v27h212v-252q-30 -55 -90.5 -86.5t-137.5 -31.5q-95 0 -170 47t-118 132.5t-43 196.5q0 110 43 195t117.5 132.5t166.5 47.5q82 0 142.5 -37t85.5 -97l-24 -14q-23 54 -77 86.5t-128 32.5q-83 0 -150 -44
t-105.5 -123t-38.5 -179q0 -101 38.5 -180t107 -123.5t155.5 -44.5q64 0 115.5 25t80.5 71v219h-182z" />
    <glyph glyph-name="gcircumflex" unicode="&#x11d;" horiz-adv-x="595" 
d="M273 740h24l106 -141h-31l-87 117l-87 -117h-31zM501 522v-512q0 -131 -62 -192.5t-158 -61.5q-67 0 -120 28t-79 83l24 14q25 -49 70.5 -73.5t104.5 -24.5q87 0 139.5 54t52.5 174v127q-22 -71 -73 -109t-116 -38q-60 0 -111 32.5t-81 93.5t-30 145q0 83 30 144t81 93
t111 32q67 0 118.5 -39t71.5 -112q2 72 2 142h25zM376.5 43q42.5 24 69.5 78.5t27 140.5q0 85 -27 139t-69.5 78t-90.5 24q-53 0 -97 -28t-70 -82.5t-26 -130.5t26 -131t70 -83.5t97 -28.5q48 0 90.5 24z" />
    <glyph glyph-name="Gbreve" unicode="&#x11e;" horiz-adv-x="674" 
d="M293 840.5q-35 33.5 -35 87.5h27q1 -46 29 -72.5t71 -26.5q45 0 73 26.5t29 72.5h27q0 -55 -35.5 -88t-93.5 -33q-57 0 -92 33.5zM409 334v27h212v-252q-30 -55 -90.5 -86.5t-137.5 -31.5q-95 0 -170 47t-118 132.5t-43 196.5q0 110 43 195t117.5 132.5t166.5 47.5
q82 0 142.5 -37t85.5 -97l-24 -14q-23 54 -77 86.5t-128 32.5q-83 0 -150 -44t-105.5 -123t-38.5 -179q0 -101 38.5 -180t107 -123.5t155.5 -44.5q64 0 115.5 25t80.5 71v219h-182z" />
    <glyph glyph-name="gbreve" unicode="&#x11f;" horiz-adv-x="595" 
d="M192.5 640.5q-35.5 35.5 -35.5 93.5h27q1 -48 29 -76.5t72 -28.5q46 0 73.5 28t29.5 77h27q0 -58 -35.5 -93.5t-94.5 -35.5q-57 0 -92.5 35.5zM501 522v-512q0 -131 -62 -192.5t-158 -61.5q-67 0 -120 28t-79 83l24 14q25 -49 70.5 -73.5t104.5 -24.5q87 0 139.5 54
t52.5 174v127q-22 -71 -73 -109t-116 -38q-60 0 -111 32.5t-81 93.5t-30 145q0 83 30 144t81 93t111 32q67 0 118.5 -39t71.5 -112q2 72 2 142h25zM376.5 43q42.5 24 69.5 78.5t27 140.5q0 85 -27 139t-69.5 78t-90.5 24q-53 0 -97 -28t-70 -82.5t-26 -130.5t26 -131
t70 -83.5t97 -28.5q48 0 90.5 24z" />
    <glyph glyph-name="Gdotaccent" unicode="&#x120;" horiz-adv-x="674" 
d="M366 862.5q-8 7.5 -8 19.5q0 10 8 17.5t19 7.5t19 -7.5t8 -17.5q0 -12 -7.5 -19.5t-19.5 -7.5q-11 0 -19 7.5zM409 334v27h212v-252q-30 -55 -90.5 -86.5t-137.5 -31.5q-95 0 -170 47t-118 132.5t-43 196.5q0 110 43 195t117.5 132.5t166.5 47.5q82 0 142.5 -37t85.5 -97
l-24 -14q-23 54 -77 86.5t-128 32.5q-83 0 -150 -44t-105.5 -123t-38.5 -179q0 -101 38.5 -180t107 -123.5t155.5 -44.5q64 0 115.5 25t80.5 71v219h-182z" />
    <glyph glyph-name="gdotaccent" unicode="&#x121;" horiz-adv-x="595" 
d="M266 664.5q-8 8.5 -8 19.5t8 19t19 8t19 -8t8 -19t-8 -19.5t-19 -8.5t-19 8.5zM501 522v-512q0 -131 -62 -192.5t-158 -61.5q-67 0 -120 28t-79 83l24 14q25 -49 70.5 -73.5t104.5 -24.5q87 0 139.5 54t52.5 174v127q-22 -71 -73 -109t-116 -38q-60 0 -111 32.5t-81 93.5
t-30 145q0 83 30 144t81 93t111 32q67 0 118.5 -39t71.5 -112q2 72 2 142h25zM376.5 43q42.5 24 69.5 78.5t27 140.5q0 85 -27 139t-69.5 78t-90.5 24q-53 0 -97 -28t-70 -82.5t-26 -130.5t26 -131t70 -83.5t97 -28.5q48 0 90.5 24z" />
    <glyph glyph-name="uni0122" unicode="&#x122;" horiz-adv-x="674" 
d="M591 334h-182v27h212v-252q-30 -55 -90.5 -86.5t-137.5 -31.5q-95 0 -170 47t-118 132.5t-43 196.5q0 110 43 195t117.5 132.5t166.5 47.5q82 0 142.5 -37t85.5 -97l-24 -14q-23 54 -77 86.5t-128 32.5q-83 0 -150 -44t-105.5 -123t-38.5 -179q0 -101 38.5 -180
t107 -123.5t155.5 -44.5q64 0 115.5 25t80.5 71v219zM404.5 -88.5q8.5 -10.5 8.5 -33.5q0 -33 -18 -59t-57 -34v18q53 15 55 69q-3 -2 -9 -2q-11 0 -17.5 7.5t-6.5 18.5t7 18.5t17 7.5q12 0 20.5 -10.5z" />
    <glyph glyph-name="uni0123" unicode="&#x123;" horiz-adv-x="595" 
d="M264.5 651.5q-8.5 10.5 -8.5 34.5q0 33 18 59t57 34v-18q-52 -15 -54 -68q3 1 9 1q10 0 17 -7.5t7 -18.5t-7 -19t-17 -8q-13 0 -21.5 10.5zM501 522v-512q0 -131 -62 -192.5t-158 -61.5q-67 0 -120 28t-79 83l24 14q25 -49 70.5 -73.5t104.5 -24.5q87 0 139.5 54
t52.5 174v127q-22 -71 -73 -109t-116 -38q-60 0 -111 32.5t-81 93.5t-30 145q0 83 30 144t81 93t111 32q67 0 118.5 -39t71.5 -112q2 72 2 142h25zM376.5 43q42.5 24 69.5 78.5t27 140.5q0 85 -27 139t-69.5 78t-90.5 24q-53 0 -97 -28t-70 -82.5t-26 -130.5t26 -131
t70 -83.5t97 -28.5q48 0 90.5 24z" />
    <glyph glyph-name="Hcircumflex" unicode="&#x124;" horiz-adv-x="713" 
d="M343 928h25l111 -122h-32l-91 102l-92 -102h-32zM130 395h452v337h31v-732h-31v367h-452v-367h-30v732h30v-337z" />
    <glyph glyph-name="hcircumflex" unicode="&#x125;" horiz-adv-x="558" 
d="M96 928h24l106 -100h-32l-86 83l-87 -83h-31zM426.5 479.5q48.5 -51.5 48.5 -146.5v-333h-29v326q0 87 -41.5 132t-108.5 45q-47 0 -86.5 -21.5t-63 -64.5t-23.5 -103v-314h-29v761h29v-349q22 56 69.5 87.5t108.5 31.5q77 0 125.5 -51.5z" />
    <glyph glyph-name="Hbar" unicode="&#x126;" horiz-adv-x="727" 
d="M620 732v-153h71v-27h-71v-552h-31v367h-452v-367h-30v552h-72v27h72v153h30v-153h452v153h31zM137 552v-157h452v157h-452z" />
    <glyph glyph-name="hbar" unicode="&#x127;" horiz-adv-x="563" 
d="M431 479.5q49 -51.5 49 -146.5v-333h-30v326q0 87 -41.5 132t-108.5 45q-46 0 -85.5 -21.5t-63.5 -64.5t-24 -103v-314h-29v625h-82v25h82v111h29v-111h161v-25h-161v-213q22 56 69.5 87.5t108.5 31.5q77 0 126 -51.5z" />
    <glyph glyph-name="Itilde" unicode="&#x128;" horiz-adv-x="230" 
d="M-24 826q2 39 22 66t55 27q24 0 38.5 -10.5t32.5 -31.5q14 -17 26 -26t28 -9q43 0 51 69h26q-2 -39 -22.5 -66t-55.5 -27q-23 0 -37.5 10.5t-32.5 31.5q-14 17 -26 26t-28 9q-43 0 -51 -69h-26zM130 0h-30v732h30v-732z" />
    <glyph glyph-name="itilde" unicode="&#x129;" horiz-adv-x="216" 
d="M-31 622q2 43 22 71.5t55 28.5q24 0 39 -12t32 -35q15 -19 26.5 -28.5t27.5 -9.5q22 0 34.5 19.5t16.5 54.5h26q-2 -42 -22.5 -70.5t-55.5 -28.5q-23 0 -37.5 11.5t-32.5 34.5q-15 19 -26.5 28.5t-27.5 9.5q-43 0 -51 -74h-26zM94 0v522h28v-522h-28z" />
    <glyph glyph-name="Imacron" unicode="&#x12a;" horiz-adv-x="230" 
d="M-18 868v29h267v-29h-267zM130 0h-30v732h30v-732z" />
    <glyph glyph-name="imacron" unicode="&#x12b;" horiz-adv-x="216" 
d="M-25 661v29h267v-29h-267zM94 0v522h28v-522h-28z" />
    <glyph glyph-name="Ibreve" unicode="&#x12c;" horiz-adv-x="230" 
d="M22.5 839.5q-35.5 33.5 -35.5 88.5h28q1 -47 29 -73.5t71 -26.5q45 0 73 26.5t29 73.5h27q0 -55 -35 -88.5t-94 -33.5q-57 0 -92.5 33.5zM130 0h-30v732h30v-732z" />
    <glyph glyph-name="ibreve" unicode="&#x12d;" horiz-adv-x="216" 
d="M15.5 640.5q-35.5 35.5 -35.5 93.5h27q1 -48 29 -76.5t72 -28.5q46 0 74 28t29 77h27q0 -58 -35.5 -93.5t-94.5 -35.5q-57 0 -92.5 35.5zM94 0v522h28v-522h-28z" />
    <glyph glyph-name="Iogonek" unicode="&#x12e;" horiz-adv-x="230" 
d="M198 -194q-41 -50 -103 -50q-43 0 -73.5 24t-30.5 73q0 47 30 86t79 68v725h30v-732q-55 -34 -83 -67.5t-28 -77.5q0 -39 21.5 -56.5t55.5 -17.5q27 0 47.5 11t38.5 31z" />
    <glyph glyph-name="iogonek" unicode="&#x12f;" horiz-adv-x="216" 
d="M89 664.5q-8 8.5 -8 19.5t8 19t19 8t19 -8t8 -19t-8 -19.5t-19 -8.5t-19 8.5zM190 -193q-40 -51 -105 -51q-43 0 -72.5 23t-29.5 74q0 89 111 155v514h28v-522q-56 -35 -83.5 -67.5t-27.5 -77.5q0 -39 21 -55.5t54 -16.5q28 0 49 11t39 32z" />
    <glyph glyph-name="Idotaccent" unicode="&#x130;" horiz-adv-x="230" 
d="M96 861.5q-8 7.5 -8 19.5q0 10 8 17.5t19 7.5t19 -7.5t8 -17.5q0 -12 -7.5 -19.5t-19.5 -7.5q-11 0 -19 7.5zM130 0h-30v732h30v-732z" />
    <glyph glyph-name="dotlessi" unicode="&#x131;" horiz-adv-x="216" 
d="M94 0v522h28v-522h-28z" />
    <glyph glyph-name="IJ" unicode="&#x132;" horiz-adv-x="638" 
d="M130 0h-30v732h30v-732zM303.5 18q-38.5 27 -54.5 80l24 15q15 -47 47 -70.5t78 -23.5q123 0 123 176v537h31v-540q0 -99 -40.5 -150t-114.5 -51q-55 0 -93.5 27z" />
    <glyph glyph-name="ij" unicode="&#x133;" horiz-adv-x="437" 
d="M90 664q-8 8 -8 20q0 11 7.5 19t18.5 8q12 0 20 -8t8 -19q0 -12 -8 -20t-19 -8t-19 8zM308.5 664q-8.5 8 -8.5 20q0 11 8 19t19 8t19.5 -8t8.5 -19q0 -12 -8 -20t-19 -8t-19.5 8zM124 0h-29v522h29v-522zM162.5 -235q-21.5 9 -33.5 25l17 22q24 -29 66 -29q46 0 73.5 37
t27.5 119v583h29v-585q0 -93 -35.5 -137t-95.5 -44q-27 0 -48.5 9z" />
    <glyph glyph-name="Jcircumflex" unicode="&#x134;" horiz-adv-x="408" 
d="M295 928h24l111 -122h-31l-92 102l-92 -102h-32zM74.5 18q-38.5 27 -54.5 80l24 15q14 -47 46 -70.5t78 -23.5q124 0 124 176v537h30v-540q0 -100 -40.5 -150.5t-114.5 -50.5q-54 0 -92.5 27z" />
    <glyph glyph-name="jcircumflex" unicode="&#x135;" horiz-adv-x="219" 
d="M97 740h25l105 -141h-31l-86 117l-87 -117h-32zM-55.5 -235q-21.5 9 -33.5 25l18 22q24 -29 65 -29q46 0 73.5 37t27.5 119v583h30v-585q0 -93 -36 -137t-95 -44q-28 0 -49.5 9z" />
    <glyph glyph-name="uni0136" unicode="&#x136;" horiz-adv-x="622" 
d="M547 732h40l-297 -305l316 -427h-39l-298 403l-139 -142v-261h-30v732h30v-431zM344.5 -88.5q8.5 -10.5 8.5 -33.5q0 -33 -18 -59t-57 -34v18q29 8 42 26.5t13 42.5q-3 -2 -9 -2q-11 0 -17.5 7.5t-6.5 18.5t7 18.5t17 7.5q12 0 20.5 -10.5z" />
    <glyph glyph-name="uni0137" unicode="&#x137;" horiz-adv-x="480" 
d="M412 522h38l-210 -224l231 -298h-39l-212 276l-97 -103v-173h-29v761h29v-548zM297 -88.5q8 -10.5 8 -33.5q0 -33 -18 -59t-57 -34v18q29 8 42 26.5t13 42.5q-2 -2 -9 -2q-11 0 -17.5 7.5t-6.5 18.5t7 18.5t17 7.5q13 0 21 -10.5z" />
    <glyph glyph-name="kgreenlandic" unicode="&#x138;" horiz-adv-x="480" 
d="M240 298l231 -298h-39l-212 276l-97 -103v-173h-29v522h29v-309l289 309h38z" />
    <glyph glyph-name="Lacute" unicode="&#x139;" horiz-adv-x="536" 
d="M107 807l84 121h33l-90 -121h-27zM100 732h30v-704h366v-28h-396v732z" />
    <glyph glyph-name="lacute" unicode="&#x13a;" horiz-adv-x="217" 
d="M100 825l84 103h33l-90 -103h-27zM123 0h-29v761h29v-761z" />
    <glyph glyph-name="uni013B" unicode="&#x13b;" horiz-adv-x="536" 
d="M100 732h30v-704h366v-28h-396v732zM327.5 -88.5q8.5 -10.5 8.5 -33.5q0 -33 -18 -59t-57 -34v18q53 16 55 69q-3 -2 -10 -2q-10 0 -17 7.5t-7 18.5t7 18.5t18 7.5q12 0 20.5 -10.5z" />
    <glyph glyph-name="uni013C" unicode="&#x13c;" horiz-adv-x="217" 
d="M94 0v761h29v-761h-29zM127.5 -88.5q8.5 -10.5 8.5 -33.5q0 -33 -18 -59t-57 -34v18q53 15 55 69q-3 -2 -9 -2q-11 0 -17.5 7.5t-6.5 18.5t7 18.5t17 7.5q12 0 20.5 -10.5z" />
    <glyph glyph-name="Lcaron" unicode="&#x13d;" horiz-adv-x="536" 
d="M348 638q-18 -26 -57 -34v18q53 16 55 69q-6 -2 -10 -2q-10 0 -17 7.5t-7 18.5t7 19t18 8q12 0 20.5 -11t8.5 -34q0 -33 -18 -59zM100 732h30v-704h366v-28h-396v732z" />
    <glyph glyph-name="lcaron" unicode="&#x13e;" horiz-adv-x="231" 
d="M250.5 760q8.5 -10 8.5 -33q0 -32 -18 -58t-56 -34v17q29 8 41.5 27t12.5 42q-6 -2 -9 -2q-10 0 -17 7.5t-7 18.5q0 10 7 17.5t17 7.5q12 0 20.5 -10zM123 0h-29v761h29v-761z" />
    <glyph glyph-name="Ldot" unicode="&#x13f;" horiz-adv-x="536" 
d="M100 732h30v-704h366v-28h-396v732zM313.5 357q-8.5 8 -8.5 20t8 19.5t19 7.5q12 0 20 -7.5t8 -19.5t-8 -20t-19 -8t-19.5 8z" />
    <glyph glyph-name="ldot" unicode="&#x140;" horiz-adv-x="217" 
d="M123 0h-29v761h29v-761zM197 367.5q-8 7.5 -8 19.5q0 10 7.5 17.5t18.5 7.5t18.5 -7.5t7.5 -17.5q0 -12 -7.5 -19.5t-18.5 -7.5q-10 0 -18 7.5z" />
    <glyph glyph-name="Lslash" unicode="&#x141;" horiz-adv-x="553" 
d="M303 425l-156 -79v-318h366v-28h-397v330l-94 -48v30l94 48v372h31v-356l156 80v-31z" />
    <glyph glyph-name="lslash" unicode="&#x142;" horiz-adv-x="228" 
d="M129 761v-350l78 51v-31l-78 -52v-379h-29v362l-78 -51v31l78 51v368h29z" />
    <glyph glyph-name="Nacute" unicode="&#x143;" horiz-adv-x="710" 
d="M347 806l83 122h33l-90 -122h-26zM126 732l456 -675v675h29v-732h-26l-456 676v-676h-29v732h26z" />
    <glyph glyph-name="nacute" unicode="&#x144;" horiz-adv-x="558" 
d="M260 599l80 141h34l-86 -141h-28zM426.5 479.5q48.5 -51.5 48.5 -146.5v-333h-29v326q0 87 -41.5 132t-108.5 45q-47 0 -86.5 -21.5t-63 -64.5t-23.5 -103v-314h-29v522h25q0 -85 2 -115q21 58 69.5 91t110.5 33q77 0 125.5 -51.5z" />
    <glyph glyph-name="uni0145" unicode="&#x145;" horiz-adv-x="710" 
d="M126 732l456 -675v675h29v-732h-26l-456 676v-676h-29v732h26zM374.5 -88.5q8.5 -10.5 8.5 -33.5q0 -33 -18 -59t-57 -34v18q53 16 55 69q-3 -2 -10 -2q-10 0 -17 7.5t-7 18.5t7 18.5t17 7.5q13 0 21.5 -10.5z" />
    <glyph glyph-name="uni0146" unicode="&#x146;" horiz-adv-x="558" 
d="M426.5 479.5q48.5 -51.5 48.5 -146.5v-333h-29v326q0 87 -41.5 132t-108.5 45q-47 0 -86.5 -21.5t-63 -64.5t-23.5 -103v-314h-29v522h25q0 -85 2 -115q21 58 69.5 91t110.5 33q77 0 125.5 -51.5zM314.5 -88.5q8.5 -10.5 8.5 -33.5q0 -33 -18 -59t-57 -34v18q53 16 55 69
q-3 -2 -10 -2q-10 0 -17 7.5t-7 18.5t7 18.5t18 7.5q12 0 20.5 -10.5z" />
    <glyph glyph-name="Ncaron" unicode="&#x147;" horiz-adv-x="710" 
d="M263 928l92 -102l91 102h32l-111 -122h-25l-111 122h32zM126 732l456 -675v675h29v-732h-26l-456 676v-676h-29v732h26z" />
    <glyph glyph-name="ncaron" unicode="&#x148;" horiz-adv-x="558" 
d="M190 740l87 -117l87 117h31l-106 -141h-24l-106 141h31zM426.5 479.5q48.5 -51.5 48.5 -146.5v-333h-29v326q0 87 -41.5 132t-108.5 45q-47 0 -86.5 -21.5t-63 -64.5t-23.5 -103v-314h-29v522h25q0 -85 2 -115q21 58 69.5 91t110.5 33q77 0 125.5 -51.5z" />
    <glyph glyph-name="napostrophe" unicode="&#x149;" horiz-adv-x="558" 
d="M69.5 759.5q8.5 -10.5 8.5 -33.5q0 -33 -18 -59t-57 -34v18q53 16 55 69q-6 -2 -9 -2q-11 0 -17.5 7.5t-6.5 18.5t7 18.5t17 7.5q12 0 20.5 -10.5zM426.5 479.5q48.5 -51.5 48.5 -146.5v-333h-29v326q0 87 -41.5 132t-108.5 45q-47 0 -86.5 -21.5t-63 -64.5t-23.5 -103
v-314h-29v522h25q0 -85 2 -115q21 58 69.5 91t110.5 33q77 0 125.5 -51.5z" />
    <glyph glyph-name="Eng" unicode="&#x14a;" horiz-adv-x="710" 
d="M582 732h29v-810q0 -88 -29 -127t-84 -39q-40 0 -63 19l12 25q20 -17 51 -17q41 0 62.5 32t21.5 109v81l-453 671v-676h-29v732h26l456 -675v675z" />
    <glyph glyph-name="eng" unicode="&#x14b;" horiz-adv-x="558" 
d="M426.5 479.5q48.5 -51.5 48.5 -146.5l1 -411q0 -88 -29 -127t-83 -39q-41 0 -64 19l12 25q20 -17 52 -17q40 0 61.5 32t21.5 109l-1 402q0 87 -41.5 132t-108.5 45q-47 0 -86.5 -21.5t-63 -64.5t-23.5 -103v-314h-29v522h25q0 -85 2 -115q21 58 69.5 91t110.5 33
q77 0 125.5 -51.5z" />
    <glyph glyph-name="Omacron" unicode="&#x14c;" horiz-adv-x="744" 
d="M239 868v29h266v-29h-266zM101.5 564q39.5 85 110 131.5t160.5 46.5t160.5 -46.5t110 -131.5t39.5 -197t-40 -197.5t-110.5 -132t-159.5 -46.5q-90 0 -160.5 46.5t-110 131.5t-39.5 198q0 112 39.5 197zM129 186q35 -79 98 -123t145 -44q81 0 144.5 44t99 123t35.5 181
q0 101 -35.5 180t-99 122.5t-144.5 43.5t-144.5 -43.5t-98.5 -122t-35 -180.5t35 -181z" />
    <glyph glyph-name="omacron" unicode="&#x14d;" horiz-adv-x="584" 
d="M159 661v28h266v-28h-266zM93.5 401q31.5 62 84 96t114.5 34t114.5 -34t84 -96t31.5 -140t-31.5 -140t-84 -96t-114.5 -34t-114.5 34t-84 96t-31.5 140t31.5 140zM120 135q27 -55 72.5 -85t99.5 -30t100 30t73 85t27 126t-27 126t-73 85.5t-100 30.5t-99.5 -30.5
t-72.5 -85.5t-27 -126t27 -126z" />
    <glyph glyph-name="Obreve" unicode="&#x14e;" horiz-adv-x="744" 
d="M279.5 839.5q-35.5 33.5 -35.5 88.5h27q1 -47 29 -73.5t72 -26.5q45 0 72.5 26.5t29.5 73.5h27q0 -55 -35 -88.5t-94 -33.5q-57 0 -92.5 33.5zM101.5 564q39.5 85 110 131.5t160.5 46.5t160.5 -46.5t110 -131.5t39.5 -197t-40 -197.5t-110.5 -132t-159.5 -46.5
q-90 0 -160.5 46.5t-110 131.5t-39.5 198q0 112 39.5 197zM129 186q35 -79 98 -123t145 -44q81 0 144.5 44t99 123t35.5 181q0 101 -35.5 180t-99 122.5t-144.5 43.5t-144.5 -43.5t-98.5 -122t-35 -180.5t35 -181z" />
    <glyph glyph-name="obreve" unicode="&#x14f;" horiz-adv-x="584" 
d="M199 640q-36 36 -36 94h28q1 -49 29 -77t72 -28q45 0 73 28t29 77h27q0 -58 -35.5 -94t-93.5 -36q-57 0 -93 36zM93.5 401q31.5 62 84 96t114.5 34t114.5 -34t84 -96t31.5 -140t-31.5 -140t-84 -96t-114.5 -34t-114.5 34t-84 96t-31.5 140t31.5 140zM120 135
q27 -55 72.5 -85t99.5 -30t100 30t73 85t27 126t-27 126t-73 85.5t-100 30.5t-99.5 -30.5t-72.5 -85.5t-27 -126t27 -126z" />
    <glyph glyph-name="Ohungarumlaut" unicode="&#x150;" horiz-adv-x="744" 
d="M298 806l80 122h34l-86 -122h-28zM409 806l80 122h34l-86 -122h-28zM101.5 564q39.5 85 110 131.5t160.5 46.5t160.5 -46.5t110 -131.5t39.5 -197t-40 -197.5t-110.5 -132t-159.5 -46.5q-90 0 -160.5 46.5t-110 131.5t-39.5 198q0 112 39.5 197zM129 186q35 -79 98 -123
t145 -44q81 0 144.5 44t99 123t35.5 181q0 101 -35.5 180t-99 122.5t-144.5 43.5t-144.5 -43.5t-98.5 -122t-35 -180.5t35 -181z" />
    <glyph glyph-name="ohungarumlaut" unicode="&#x151;" horiz-adv-x="584" 
d="M218 599l80 141h34l-86 -141h-28zM329 599l80 141h34l-86 -141h-28zM93.5 401q31.5 62 84 96t114.5 34t114.5 -34t84 -96t31.5 -140t-31.5 -140t-84 -96t-114.5 -34t-114.5 34t-84 96t-31.5 140t31.5 140zM120 135q27 -55 72.5 -85t99.5 -30t100 30t73 85t27 126t-27 126
t-73 85.5t-100 30.5t-99.5 -30.5t-72.5 -85.5t-27 -126t27 -126z" />
    <glyph glyph-name="OE" unicode="&#x152;" horiz-adv-x="1113" 
d="M681 366v-338h376v-28h-407v213q-31 -103 -105 -162.5t-173 -59.5q-89 0 -159.5 47t-110.5 132.5t-40 196.5q0 110 40 195t110.5 132.5t159.5 47.5q99 0 173 -59.5t105 -162.5v212h396v-28h-365v-310h330v-28h-330zM516 63.5q63 44.5 98.5 124t35.5 179.5t-35.5 179
t-98.5 123t-144 44t-144 -44t-98.5 -122.5t-35.5 -179.5t35 -180t98.5 -123.5t144.5 -44.5t144 44.5z" />
    <glyph glyph-name="oe" unicode="&#x153;" horiz-adv-x="957" 
d="M821 500.5q45 -30.5 68.5 -82t23.5 -113.5q0 -13 -2 -37h-389q1 -77 27 -133t71.5 -85.5t104.5 -29.5q49 0 88 20.5t58 60.5l24 -13q-21 -47 -68.5 -72t-102.5 -25q-76 0 -135.5 48t-81.5 132q-21 -83 -78 -131.5t-133 -48.5q-64 0 -117.5 34t-85 95.5t-31.5 140.5
t31.5 140.5t85 95.5t117.5 34q75 0 131.5 -47.5t78.5 -128.5q21 83 77.5 129.5t131.5 46.5q61 0 106 -30.5zM395 49q45 30 71 85t26 127q0 71 -25.5 126t-70.5 85.5t-101 30.5q-55 0 -101.5 -30.5t-73.5 -85.5t-27 -126q0 -72 27 -127t73.5 -85t101.5 -30t100 30zM583.5 448
q-52.5 -55 -59.5 -154h359q3 58 -16.5 106t-59 75.5t-93.5 27.5q-78 0 -130.5 -55z" />
    <glyph glyph-name="Racute" unicode="&#x154;" horiz-adv-x="579" 
d="M259 807l84 121h33l-90 -121h-27zM575 0h-38l-231 331q-22 -3 -45 -3h-131v-328h-30v732h161q73 0 130 -24t89 -70t32 -108q0 -75 -47 -125.5t-127 -67.5zM130 704v-348h128q100 0 160.5 46t60.5 128t-60.5 128t-160.5 46h-128z" />
    <glyph glyph-name="racute" unicode="&#x155;" horiz-adv-x="336" 
d="M178 599l79 141h34l-86 -141h-27zM323 516l-12 -24q-18 11 -45 11q-39 0 -71.5 -22.5t-52 -66.5t-19.5 -106v-308h-29v522h25q0 -80 2 -110q18 56 56.5 87.5t89.5 31.5q33 0 56 -15z" />
    <glyph glyph-name="uni0156" unicode="&#x156;" horiz-adv-x="579" 
d="M575 0h-38l-231 331q-22 -3 -45 -3h-131v-328h-30v732h161q73 0 130 -24t89 -70t32 -108q0 -75 -47 -125.5t-127 -67.5zM258 356q100 0 160.5 46t60.5 128t-60.5 128t-160.5 46h-128v-348h128zM353 -88.5q8 -10.5 8 -33.5q0 -33 -18 -59t-57 -34v18q29 8 42 26.5t13 42.5
q-2 -2 -9 -2q-11 0 -17.5 7.5t-6.5 18.5t7 18.5t17 7.5q13 0 21 -10.5z" />
    <glyph glyph-name="uni0157" unicode="&#x157;" horiz-adv-x="336" 
d="M323 516l-12 -24q-18 11 -45 11q-39 0 -71.5 -22.5t-52 -66.5t-19.5 -106v-308h-29v522h25q0 -80 2 -110q18 56 56.5 87.5t89.5 31.5q33 0 56 -15zM127.5 -88.5q8.5 -10.5 8.5 -33.5q0 -33 -18 -59t-57 -34v18q53 15 55 69q-3 -2 -9 -2q-11 0 -17.5 7.5t-6.5 18.5t7 18.5
t17 7.5q12 0 20.5 -10.5z" />
    <glyph glyph-name="Rcaron" unicode="&#x158;" horiz-adv-x="579" 
d="M176 928l92 -101l91 101h32l-111 -121h-25l-111 121h32zM575 0h-38l-231 331q-22 -3 -45 -3h-131v-328h-30v732h161q73 0 130 -24t89 -70t32 -108q0 -75 -47 -125.5t-127 -67.5zM130 704v-348h128q100 0 160.5 46t60.5 128t-60.5 128t-160.5 46h-128z" />
    <glyph glyph-name="rcaron" unicode="&#x159;" horiz-adv-x="336" 
d="M108 740l87 -117l86 117h31l-106 -141h-24l-105 141h31zM323 516l-12 -24q-18 11 -45 11q-39 0 -71.5 -22.5t-52 -66.5t-19.5 -106v-308h-29v522h25q0 -80 2 -110q18 56 56.5 87.5t89.5 31.5q33 0 56 -15z" />
    <glyph glyph-name="Sacute" unicode="&#x15a;" horiz-adv-x="527" 
d="M267 807l84 121h33l-90 -121h-27zM432.5 43.5q-57.5 -52.5 -154.5 -52.5q-88 0 -156.5 43t-90.5 118l25 15q21 -68 82.5 -108t139.5 -40q81 0 130.5 45t49.5 121q0 56 -27 91.5t-66.5 55t-105.5 42.5t-105 42t-66 54t-27 91q0 59 29 99.5t77 61t105 20.5q82 0 138 -39.5
t67 -98.5l-25 -15q-11 56 -59.5 90t-121.5 34q-76 0 -127 -39t-51 -111q0 -47 24 -77.5t60.5 -47.5t97.5 -37q70 -24 112.5 -45t72.5 -62t30 -107q0 -91 -57.5 -143.5z" />
    <glyph glyph-name="sacute" unicode="&#x15b;" horiz-adv-x="438" 
d="M209 599l80 141h34l-86 -141h-28zM347.5 30q-46.5 -39 -117.5 -39q-64 0 -116 32t-68 89l23 14q16 -52 60.5 -79.5t100.5 -27.5q58 0 95.5 30.5t37.5 82.5q0 38 -20 62.5t-49 38t-78 30.5q-50 17 -80 31t-50.5 39t-20.5 65q0 61 45.5 97t113.5 36q58 0 102 -27.5
t59 -73.5l-23 -14q-14 41 -52 64t-87 23q-55 0 -91 -27.5t-36 -74.5q0 -32 18 -53t44.5 -33.5t72.5 -27.5q54 -18 86 -33t54.5 -44t22.5 -76q0 -65 -46.5 -104z" />
    <glyph glyph-name="Scircumflex" unicode="&#x15c;" horiz-adv-x="527" 
d="M263 928h25l111 -121h-32l-91 101l-92 -101h-32zM432.5 43.5q-57.5 -52.5 -154.5 -52.5q-88 0 -156.5 43t-90.5 118l25 15q21 -68 82.5 -108t139.5 -40q81 0 130.5 45t49.5 121q0 56 -27 91.5t-66.5 55t-105.5 42.5t-105 42t-66 54t-27 91q0 59 29 99.5t77 61t105 20.5
q82 0 138 -39.5t67 -98.5l-25 -15q-11 56 -59.5 90t-121.5 34q-76 0 -127 -39t-51 -111q0 -47 24 -77.5t60.5 -47.5t97.5 -37q70 -24 112.5 -45t72.5 -62t30 -107q0 -91 -57.5 -143.5z" />
    <glyph glyph-name="scircumflex" unicode="&#x15d;" horiz-adv-x="438" 
d="M214 740h24l106 -141h-31l-86 117l-88 -117h-31zM347.5 30q-46.5 -39 -117.5 -39q-64 0 -116 32t-68 89l23 14q16 -52 60.5 -79.5t100.5 -27.5q58 0 95.5 30.5t37.5 82.5q0 38 -20 62.5t-49 38t-78 30.5q-50 17 -80 31t-50.5 39t-20.5 65q0 61 45.5 97t113.5 36
q58 0 102 -27.5t59 -73.5l-23 -14q-14 41 -52 64t-87 23q-55 0 -91 -27.5t-36 -74.5q0 -32 18 -53t44.5 -33.5t72.5 -27.5q54 -18 86 -33t54.5 -44t22.5 -76q0 -65 -46.5 -104z" />
    <glyph glyph-name="Scedilla" unicode="&#x15e;" horiz-adv-x="527" 
d="M263 -8l-31 -79q6 1 19 1q44 0 71 -19.5t27 -55.5q0 -40 -30.5 -61.5t-76.5 -21.5q-27 0 -56 9v25q27 -9 56 -9q34 0 56.5 14.5t22.5 42.5q0 52 -79 52q-11 0 -35 -2l-4 18l34 88q-75 9 -130.5 50.5t-75.5 107.5l25 15q21 -68 82.5 -108t139.5 -40q81 0 130.5 45
t49.5 121q0 56 -27 91.5t-66.5 55t-105.5 42.5t-105 42t-66 54t-27 91q0 59 29 99.5t77 61t105 20.5q82 0 138 -39.5t67 -98.5l-25 -15q-11 56 -59.5 90t-121.5 34q-76 0 -127 -39t-51 -111q0 -47 24 -77.5t60.5 -47.5t97.5 -37q70 -24 112.5 -45t72.5 -62t30 -107
q0 -91 -57.5 -143.5t-154.5 -52.5q-10 0 -15 1z" />
    <glyph glyph-name="scedilla" unicode="&#x15f;" horiz-adv-x="438" 
d="M349 31.5q-45 -38.5 -119 -39.5l-30 -79q7 1 21 1q44 0 70 -19.5t26 -54.5q0 -40 -30 -62t-76 -22q-25 0 -57 9v26q27 -9 56 -9q34 0 56.5 14t22.5 42q0 52 -77 52q-17 0 -38 -3l-4 19l33 87q-56 6 -99.5 37t-57.5 82l23 14q16 -52 60.5 -79.5t100.5 -27.5
q58 0 95.5 30.5t37.5 82.5q0 38 -20 62.5t-49 38t-78 30.5q-50 17 -80 31t-50.5 39t-20.5 65q0 61 45.5 97t113.5 36q58 0 102 -27.5t59 -73.5l-23 -14q-14 41 -52 64t-87 23q-55 0 -91 -27.5t-36 -74.5q0 -32 18 -53t44.5 -33.5t72.5 -27.5q54 -18 86 -33t54.5 -44
t22.5 -76q0 -64 -45 -102.5z" />
    <glyph glyph-name="Scaron" unicode="&#x160;" horiz-adv-x="527" 
d="M184 928l92 -101l91 101h32l-111 -121h-25l-111 121h32zM432.5 43.5q-57.5 -52.5 -154.5 -52.5q-88 0 -156.5 43t-90.5 118l25 15q21 -68 82.5 -108t139.5 -40q81 0 130.5 45t49.5 121q0 56 -27 91.5t-66.5 55t-105.5 42.5t-105 42t-66 54t-27 91q0 59 29 99.5t77 61
t105 20.5q82 0 138 -39.5t67 -98.5l-25 -15q-11 56 -59.5 90t-121.5 34q-76 0 -127 -39t-51 -111q0 -47 24 -77.5t60.5 -47.5t97.5 -37q70 -24 112.5 -45t72.5 -62t30 -107q0 -91 -57.5 -143.5z" />
    <glyph glyph-name="scaron" unicode="&#x161;" horiz-adv-x="438" 
d="M139 740l88 -117l86 117h31l-106 -141h-24l-106 141h31zM347.5 30q-46.5 -39 -117.5 -39q-64 0 -116 32t-68 89l23 14q16 -52 60.5 -79.5t100.5 -27.5q58 0 95.5 30.5t37.5 82.5q0 38 -20 62.5t-49 38t-78 30.5q-50 17 -80 31t-50.5 39t-20.5 65q0 61 45.5 97t113.5 36
q58 0 102 -27.5t59 -73.5l-23 -14q-14 41 -52 64t-87 23q-55 0 -91 -27.5t-36 -74.5q0 -32 18 -53t44.5 -33.5t72.5 -27.5q54 -18 86 -33t54.5 -44t22.5 -76q0 -65 -46.5 -104z" />
    <glyph glyph-name="uni0162" unicode="&#x162;" horiz-adv-x="528" 
d="M280 704v-704h-2l-33 -87q6 1 19 1q44 0 71 -19.5t27 -55.5q0 -40 -30.5 -61.5t-76.5 -21.5q-29 0 -56 9v25q27 -9 55 -9q35 0 57.5 14.5t22.5 42.5q0 52 -80 52q-10 0 -34 -2l-4 18l36 94h-3v704h-231v28h493v-28h-231z" />
    <glyph glyph-name="uni0163" unicode="&#x163;" horiz-adv-x="325" 
d="M181 -87q7 1 20 1q45 0 71 -19t26 -56q0 -40 -30 -61.5t-76 -21.5q-29 0 -57 9v26q27 -9 56 -9q34 0 56.5 14t22.5 42q0 26 -20 38.5t-55 12.5q-18 0 -39 -3l-4 19l33 91q-74 19 -74 135v365h-86v26h86v142h29v-142h143v-26h-143v-361q0 -61 20.5 -88.5t66.5 -27.5
q36 0 68 19l11 -23q-34 -24 -80 -24q-10 0 -14 1z" />
    <glyph glyph-name="Tcaron" unicode="&#x164;" horiz-adv-x="528" 
d="M173 928l92 -102l91 102h32l-111 -122h-25l-111 122h32zM18 732h493v-28h-231v-704h-31v704h-231v28z" />
    <glyph glyph-name="tcaron" unicode="&#x165;" horiz-adv-x="325" 
d="M333 728q0 -40 -19 -72t-59 -43v19q30 10 43.5 33t13.5 59q-4 -2 -10 -2q-10 0 -17.5 8t-7.5 19t7.5 19t18.5 8q30 0 30 -48zM295 38l11 -23q-34 -24 -80 -24q-56 0 -85.5 32t-29.5 108v365h-86v26h86v142h29v-142h143v-26h-143v-361q0 -61 20.5 -88.5t66.5 -27.5
q36 0 68 19z" />
    <glyph glyph-name="Tbar" unicode="&#x166;" horiz-adv-x="528" 
d="M18 732h493v-28h-231v-304h152v-28h-152v-372h-31v372h-152v28h152v304h-231v28z" />
    <glyph glyph-name="tbar" unicode="&#x167;" horiz-adv-x="325" 
d="M306 18q-34 -27 -81 -27q-114 0 -114 140v141h-86v25h86v199h-86v26h86v142h30v-142h142v-26h-142v-199h142v-25h-142v-137q0 -60 21 -88t65 -28q20 0 36 5t32 16z" />
    <glyph glyph-name="Utilde" unicode="&#x168;" horiz-adv-x="685" 
d="M204 826q2 39 22 66t55 27q24 0 38.5 -10.5t32.5 -31.5q14 -17 26 -26t28 -9q43 0 51 69h26q-2 -39 -22.5 -66t-55.5 -27q-23 0 -37.5 10.5t-32.5 31.5q-14 17 -26 26t-28 9q-43 0 -51 -69h-26zM569 732h30v-455q0 -86 -30.5 -150.5t-88 -100t-137.5 -35.5t-138 35.5
t-88.5 100t-30.5 150.5v455h31v-449q0 -123 59 -193.5t167 -70.5q107 0 166.5 70.5t59.5 193.5v449z" />
    <glyph glyph-name="utilde" unicode="&#x169;" horiz-adv-x="560" 
d="M136 622q2 43 22 71.5t55 28.5q23 0 37.5 -11.5t32.5 -34.5q14 -19 26 -29t28 -10q22 0 35 19.5t16 54.5h26q-2 -42 -22 -70.5t-55 -28.5q-23 0 -37.5 11.5t-32.5 34.5q-15 19 -26.5 28.5t-27.5 9.5q-43 0 -51 -74h-26zM437 522h29v-522h-25q0 85 -2 115
q-21 -58 -69.5 -91t-109.5 -33q-78 0 -126.5 51t-48.5 147v333h29v-326q0 -87 41.5 -132t108.5 -45q46 0 85.5 22t63.5 64.5t24 102.5v314z" />
    <glyph glyph-name="Umacron" unicode="&#x16a;" horiz-adv-x="685" 
d="M210 868v29h267v-29h-267zM569 732h30v-455q0 -86 -30.5 -150.5t-88 -100t-137.5 -35.5t-138 35.5t-88.5 100t-30.5 150.5v455h31v-449q0 -123 59 -193.5t167 -70.5q107 0 166.5 70.5t59.5 193.5v449z" />
    <glyph glyph-name="umacron" unicode="&#x16b;" horiz-adv-x="560" 
d="M142 661v29h266v-29h-266zM437 522h29v-522h-25q0 85 -2 115q-21 -58 -69.5 -91t-109.5 -33q-78 0 -126.5 51t-48.5 147v333h29v-326q0 -87 41.5 -132t108.5 -45q46 0 85.5 22t63.5 64.5t24 102.5v314z" />
    <glyph glyph-name="Ubreve" unicode="&#x16c;" horiz-adv-x="685" 
d="M251 839.5q-35 33.5 -35 88.5h27q1 -47 29 -73.5t71 -26.5q45 0 73 26.5t29 73.5h27q0 -55 -35 -88.5t-94 -33.5q-57 0 -92 33.5zM569 732h30v-455q0 -86 -30.5 -150.5t-88 -100t-137.5 -35.5t-138 35.5t-88.5 100t-30.5 150.5v455h31v-449q0 -123 59 -193.5t167 -70.5
q107 0 166.5 70.5t59.5 193.5v449z" />
    <glyph glyph-name="ubreve" unicode="&#x16d;" horiz-adv-x="560" 
d="M182.5 640.5q-35.5 35.5 -35.5 93.5h27q1 -48 29 -76.5t72 -28.5q45 0 73 28t29 77h28q0 -58 -35.5 -93.5t-94.5 -35.5q-57 0 -92.5 35.5zM437 522h29v-522h-25q0 85 -2 115q-21 -58 -69.5 -91t-109.5 -33q-78 0 -126.5 51t-48.5 147v333h29v-326q0 -87 41.5 -132
t108.5 -45q46 0 85.5 22t63.5 64.5t24 102.5v314z" />
    <glyph glyph-name="Uring" unicode="&#x16e;" horiz-adv-x="685" 
d="M286.5 911.5q23.5 16.5 56.5 16.5t55.5 -16.5t22.5 -40.5t-22.5 -40.5t-55.5 -16.5t-56.5 16.5t-23.5 40.5t23.5 40.5zM303 842q16 -12 40 -12t39.5 12t15.5 29q0 19 -15.5 30.5t-39.5 11.5t-40 -11.5t-16 -30.5q0 -17 16 -29zM569 732h30v-455q0 -86 -30.5 -150.5
t-88 -100t-137.5 -35.5t-138 35.5t-88.5 100t-30.5 150.5v455h31v-449q0 -123 59 -193.5t167 -70.5q107 0 166.5 70.5t59.5 193.5v449z" />
    <glyph glyph-name="uring" unicode="&#x16f;" horiz-adv-x="560" 
d="M218 742.5q23 22.5 57 22.5q33 0 55.5 -22.5t22.5 -57.5t-22.5 -58t-55.5 -23q-34 0 -57 23t-23 58t23 57.5zM234 642.5q16 -16.5 41 -16.5q24 0 39.5 16.5t15.5 42.5q0 25 -15.5 41.5t-39.5 16.5q-25 0 -41 -16.5t-16 -41.5q0 -26 16 -42.5zM437 522h29v-522h-25
q0 85 -2 115q-21 -58 -69.5 -91t-109.5 -33q-78 0 -126.5 51t-48.5 147v333h29v-326q0 -87 41.5 -132t108.5 -45q46 0 85.5 22t63.5 64.5t24 102.5v314z" />
    <glyph glyph-name="Uhungarumlaut" unicode="&#x170;" horiz-adv-x="685" 
d="M270 806l79 121h34l-86 -121h-27zM381 806l79 121h34l-86 -121h-27zM569 732h30v-455q0 -86 -30.5 -150.5t-88 -100t-137.5 -35.5t-138 35.5t-88.5 100t-30.5 150.5v455h31v-449q0 -123 59 -193.5t167 -70.5q107 0 166.5 70.5t59.5 193.5v449z" />
    <glyph glyph-name="uhungarumlaut" unicode="&#x171;" horiz-adv-x="560" 
d="M202 599l79 141h34l-86 -141h-27zM313 599l79 141h34l-86 -141h-27zM437 522h29v-522h-25q0 85 -2 115q-21 -58 -69.5 -91t-109.5 -33q-78 0 -126.5 51t-48.5 147v333h29v-326q0 -87 41.5 -132t108.5 -45q46 0 85.5 22t63.5 64.5t24 102.5v314z" />
    <glyph glyph-name="Uogonek" unicode="&#x172;" horiz-adv-x="685" 
d="M599 277q0 -85 -29 -148.5t-84 -98.5q-72 -48 -102 -85t-30 -85q0 -42 21.5 -60.5t55.5 -18.5q27 0 47.5 11t38.5 31l16 -17q-41 -50 -103 -50q-44 0 -74 24t-30 77q0 42 20 76t59 65q-33 -7 -62 -7q-80 0 -138 35.5t-88.5 100t-30.5 150.5v455h31v-449q0 -123 59 -193.5
t167 -70.5q107 0 166.5 70.5t59.5 193.5v449h30v-455z" />
    <glyph glyph-name="uogonek" unicode="&#x173;" horiz-adv-x="560" 
d="M534 -192q-40 -52 -105 -52q-42 0 -71.5 23.5t-29.5 73.5q0 92 113 156v39q0 49 -2 67q-21 -58 -69.5 -91t-109.5 -33q-78 0 -126.5 51t-48.5 147v333h29v-326q0 -87 41.5 -132t108.5 -45q46 0 85.5 22t63.5 64.5t24 102.5v314h29v-522q-56 -36 -83 -68.5t-27 -76.5
q0 -72 74 -72q28 0 49 11t39 32z" />
    <glyph glyph-name="Wcircumflex" unicode="&#x174;" horiz-adv-x="942" 
d="M459 928h25l111 -122h-32l-91 102l-92 -102h-32zM486 732l207 -687l199 687h31l-219 -740h-26l-206 681l-202 -681h-26l-225 740h34l205 -687l200 687h28z" />
    <glyph glyph-name="wcircumflex" unicode="&#x175;" horiz-adv-x="742" 
d="M368 740h24l106 -141h-31l-86 117l-88 -117h-31zM384 522l164 -470l154 470h27l-171 -522h-21l-165 468l-154 -468h-20l-185 522h32l163 -470l153 470h23z" />
    <glyph glyph-name="Ycircumflex" unicode="&#x176;" horiz-adv-x="577" 
d="M278 928h25l111 -122h-32l-91 102l-92 -102h-32zM298 353l227 379h33l-246 -411v-321h-30v322l-263 410h37z" />
    <glyph glyph-name="ycircumflex" unicode="&#x177;" horiz-adv-x="472" 
d="M325 597l-86 117l-88 -117h-31l106 142h24l106 -142h-31zM427 522h33l-257 -644q-25 -64 -52.5 -93t-77.5 -29q-43 0 -68 20l13 25q10 -7 25 -12.5t30 -5.5q36 0 60 25.5t47 81.5l40 102l-210 530h35l190 -490z" />
    <glyph glyph-name="Ydieresis" unicode="&#x178;" horiz-adv-x="577" 
d="M177.5 861.5q-8.5 7.5 -8.5 19.5q0 10 8 17.5t19 7.5t19.5 -7.5t8.5 -17.5q0 -12 -8 -19.5t-19 -7.5t-19.5 7.5zM366 861.5q-8 7.5 -8 19.5q0 10 7.5 17.5t18.5 7.5q12 0 20 -7t8 -18q0 -12 -7.5 -19.5t-19.5 -7.5q-11 0 -19 7.5zM298 353l227 379h33l-246 -411v-321h-30
v322l-263 410h37z" />
    <glyph glyph-name="Zacute" unicode="&#x179;" horiz-adv-x="564" 
d="M285 807l83 121h33l-90 -121h-26zM523 732v-16l-446 -688h460v-28h-504v17l446 687h-416v28h460z" />
    <glyph glyph-name="zacute" unicode="&#x17a;" horiz-adv-x="455" 
d="M213 597l79 142h34l-86 -142h-27zM403 522v-17l-321 -479h332v-26h-373v18l321 478h-297v26h338z" />
    <glyph glyph-name="Zdotaccent" unicode="&#x17b;" horiz-adv-x="564" 
d="M273.5 862.5q-8.5 7.5 -8.5 19.5q0 10 8 17.5t19 7.5q12 0 20 -7t8 -18q0 -12 -8 -19.5t-19 -7.5t-19.5 7.5zM523 732v-16l-446 -688h460v-28h-504v17l446 687h-416v28h460z" />
    <glyph glyph-name="zdotaccent" unicode="&#x17c;" horiz-adv-x="455" 
d="M210.5 663q-8.5 8 -8.5 20q0 11 8.5 19t19.5 8t19 -8t8 -19q0 -12 -8 -20t-19 -8t-19.5 8zM403 522v-17l-321 -479h332v-26h-373v18l321 478h-297v26h338z" />
    <glyph glyph-name="Zcaron" unicode="&#x17d;" horiz-adv-x="564" 
d="M201 928l92 -100l91 100h32l-111 -121h-25l-111 121h32zM523 732v-16l-446 -688h460v-28h-504v17l446 687h-416v28h460z" />
    <glyph glyph-name="zcaron" unicode="&#x17e;" horiz-adv-x="455" 
d="M143 739l87 -117l86 117h31l-105 -142h-24l-106 142h31zM403 522v-17l-321 -479h332v-26h-373v18l321 478h-297v26h338z" />
    <glyph glyph-name="longs" unicode="&#x17f;" horiz-adv-x="311" 
d="M332 748l-11 -25q-28 20 -61 20q-49 0 -78 -37t-29 -118v-588h-29v496h-89v26h89v68q0 92 37.5 136t97.5 44q44 0 73 -22z" />
    <glyph glyph-name="uni018F" unicode="&#x18f;" horiz-adv-x="682" 
d="M481.5 696.5q66.5 -45.5 102.5 -130.5t36 -203q0 -116 -35 -200t-99 -128t-149 -44t-147.5 42.5t-95.5 114.5t-33 158q0 27 3 52h524q-1 173 -69.5 264t-193.5 91q-74 0 -130 -33t-88 -99l-23 15q33 72 97.5 109t144.5 37q89 0 155.5 -45.5zM513.5 99.5
q66.5 80.5 73.5 229.5h-494q-1 -9 -1 -27q0 -79 29.5 -143.5t85 -102t130.5 -37.5q110 0 176.5 80.5z" />
    <glyph glyph-name="florin" unicode="&#x192;" 
d="M368 677.5q-32 -36.5 -46 -120.5l-7 -35h158v-26h-162l-62 -351q-15 -82 -48.5 -118t-88.5 -36q-50 0 -82 27l15 23q28 -22 65 -22q44 0 71 30t40 103l60 344h-119v26h124l6 40q17 96 57 138t102 42q25 0 44.5 -6.5t30.5 -17.5l-15 -24q-25 20 -62 20q-49 0 -81 -36.5z
" />
    <glyph glyph-name="Ohorn" unicode="&#x1a0;" horiz-adv-x="744" 
d="M632 581q50 -90 50 -214q0 -110 -40 -195.5t-110.5 -133t-159.5 -47.5t-159.5 47t-110.5 132.5t-40 196.5q0 110 40 195.5t111.5 132.5t163.5 47q37 0 80 -5q10 -1 35 -3t47 -2q34 0 52 6t26.5 22.5t8.5 49.5q0 26 -5 48h27q5 -24 5 -49q0 -42 -11 -64t-33.5 -29.5
t-62.5 -7.5q-19 0 -51 2q87 -39 137 -129zM516 63.5q63 44.5 98.5 124t35.5 179.5t-35.5 179t-98.5 123t-144 44t-144 -44t-98.5 -122.5t-35.5 -179.5t35 -180t98.5 -123.5t144.5 -44.5t144 44.5z" />
    <glyph glyph-name="ohorn" unicode="&#x1a1;" horiz-adv-x="582" 
d="M488.5 404q33.5 -62 33.5 -143q0 -78 -31.5 -140t-84 -96t-114.5 -34t-114.5 34t-84 96t-31.5 140q0 79 31.5 140.5t85.5 95.5t119 34q33 0 75 -7q44 -6 66 -6q38 0 53.5 16.5t15.5 64.5q0 25 -5 49h27q5 -24 5 -49q0 -61 -22.5 -82.5t-71.5 -21.5q-23 0 -41 3
q55 -32 88.5 -94zM392 49q46 30 73 85.5t27 126.5t-27 126t-73 85.5t-100 30.5t-99.5 -30.5t-72.5 -85.5t-27 -126t27 -126.5t72.5 -85.5t99.5 -30t100 30z" />
    <glyph glyph-name="Uhorn" unicode="&#x1af;" horiz-adv-x="685" 
d="M671.5 731q-20.5 -21 -72.5 -23v-431q0 -86 -30.5 -150.5t-88 -100t-137.5 -35.5t-138 35.5t-88.5 100t-30.5 150.5v455h31v-449q0 -123 59 -193.5t167 -70.5q107 0 166.5 70.5t59.5 193.5v449h8q34 0 52.5 6t27 22.5t8.5 48.5q0 27 -5 49h27q5 -24 5 -49
q0 -57 -20.5 -78z" />
    <glyph glyph-name="uhorn" unicode="&#x1b0;" horiz-adv-x="569" 
d="M538.5 521q-20.5 -21 -72.5 -23v-498h-25q0 85 -2 115q-21 -58 -69.5 -91t-109.5 -33q-78 0 -126.5 51t-48.5 147v333h29v-326q0 -87 41.5 -132t108.5 -45q46 0 85.5 22t63.5 64.5t24 102.5v314h12q47 0 65 15t18 62q0 25 -5 49h27q5 -24 5 -49q0 -57 -20.5 -78z" />
    <glyph glyph-name="uni01CD" unicode="&#x1cd;" horiz-adv-x="634" 
d="M224 928l92 -102l91 102h32l-111 -122h-25l-111 122h32zM327 732l288 -732h-34l-97 250h-337l-96 -250h-32l282 732h26zM473 278l-159 409l-157 -409h316z" />
    <glyph glyph-name="uni01CE" unicode="&#x1ce;" horiz-adv-x="534" 
d="M389 740l-106 -141h-24l-105 141h31l87 -117l86 117h31zM401 483q50 -48 50 -145v-338h-25q0 67 -1 96q-21 -48 -67 -76.5t-109 -28.5q-76 0 -128.5 41t-52.5 115q0 75 61.5 116.5t160.5 41.5q63 0 132 -18v47q0 87 -41 128t-107 41q-53 0 -93 -24t-59 -66l-24 13
q19 48 67.5 76.5t109.5 28.5q76 0 126 -48zM422 262q-73 19 -132 19q-85 0 -138 -35t-53 -99q0 -61 43.5 -95t107.5 -34q73 0 122.5 43t49.5 117v84z" />
    <glyph glyph-name="uni01CF" unicode="&#x1cf;" horiz-adv-x="230" 
d="M23 928l92 -102l92 102h31l-111 -122h-24l-112 122h32zM130 0h-30v732h30v-732z" />
    <glyph glyph-name="uni01D0" unicode="&#x1d0;" horiz-adv-x="216" 
d="M21 740l87 -117l87 117h31l-106 -141h-24l-106 141h31zM94 0v522h28v-522h-28z" />
    <glyph glyph-name="uni01D1" unicode="&#x1d1;" horiz-adv-x="744" 
d="M280 928l92 -102l91 102h32l-111 -122h-25l-111 122h32zM101.5 564q39.5 85 110 131.5t160.5 46.5t160.5 -46.5t110 -131.5t39.5 -197t-40 -197.5t-110.5 -132t-159.5 -46.5q-90 0 -160.5 46.5t-110 131.5t-39.5 198q0 112 39.5 197zM129 186q35 -79 98 -123t145 -44
q81 0 144.5 44t99 123t35.5 181q0 101 -35.5 180t-99 122.5t-144.5 43.5t-144.5 -43.5t-98.5 -122t-35 -180.5t35 -181z" />
    <glyph glyph-name="uni01D2" unicode="&#x1d2;" horiz-adv-x="584" 
d="M205 740l87 -117l86 117h31l-106 -141h-24l-105 141h31zM93.5 401q31.5 62 84 96t114.5 34t114.5 -34t84 -96t31.5 -140t-31.5 -140t-84 -96t-114.5 -34t-114.5 34t-84 96t-31.5 140t31.5 140zM120 135q27 -55 72.5 -85t99.5 -30t100 30t73 85t27 126t-27 126t-73 85.5
t-100 30.5t-99.5 -30.5t-72.5 -85.5t-27 -126t27 -126z" />
    <glyph glyph-name="uni01D3" unicode="&#x1d3;" horiz-adv-x="685" 
d="M251 928l92 -102l92 102h31l-111 -122h-24l-112 122h32zM569 732h30v-455q0 -86 -30.5 -150.5t-88 -100t-137.5 -35.5t-138 35.5t-88.5 100t-30.5 150.5v455h31v-449q0 -123 59 -193.5t167 -70.5q107 0 166.5 70.5t59.5 193.5v449z" />
    <glyph glyph-name="uni01D4" unicode="&#x1d4;" horiz-adv-x="560" 
d="M188 740l87 -117l86 117h31l-105 -141h-24l-106 141h31zM437 522h29v-522h-25q0 85 -2 115q-21 -58 -69.5 -91t-109.5 -33q-78 0 -126.5 51t-48.5 147v333h29v-326q0 -87 41.5 -132t108.5 -45q46 0 85.5 22t63.5 64.5t24 102.5v314z" />
    <glyph glyph-name="uni01D5" unicode="&#x1d5;" horiz-adv-x="685" 
d="M210 891v20h267v-20h-267zM230.5 809q-8.5 7 -8.5 17t8 16.5t19 6.5t19.5 -6.5t8.5 -16.5t-8 -17t-19 -7t-19.5 7zM418.5 809q-8.5 7 -8.5 17t8 16.5t19 6.5t19.5 -6.5t8.5 -16.5t-8 -17t-19 -7t-19.5 7zM569 732h30v-455q0 -86 -30.5 -150.5t-88 -100t-137.5 -35.5
t-138 35.5t-88.5 100t-30.5 150.5v455h31v-449q0 -123 59 -193.5t167 -70.5q107 0 166.5 70.5t59.5 193.5v449z" />
    <glyph glyph-name="uni01D6" unicode="&#x1d6;" horiz-adv-x="560" 
d="M142 808v28h266v-28h-266zM162 657q-8 8 -8 20q0 11 7.5 19t18.5 8q12 0 20 -8t8 -19q0 -12 -7.5 -20t-19.5 -8q-11 0 -19 8zM350.5 657q-8.5 8 -8.5 20q0 11 8 19t19 8t19.5 -8t8.5 -19q0 -12 -8 -20t-19 -8t-19.5 8zM437 522h29v-522h-25q0 85 -2 115
q-21 -58 -69.5 -91t-109.5 -33q-78 0 -126.5 51t-48.5 147v333h29v-326q0 -87 41.5 -132t108.5 -45q46 0 85.5 22t63.5 64.5t24 102.5v314z" />
    <glyph glyph-name="uni01D7" unicode="&#x1d7;" horiz-adv-x="685" 
d="M334 862l81 66h36l-88 -66h-29zM230 808q-8 6 -8 16q0 9 8 15.5t19 6.5t19.5 -6.5t8.5 -15.5q0 -10 -8 -16t-19 -6q-12 0 -20 6zM418.5 808.5q-8.5 6.5 -8.5 15.5t8 15.5t19 6.5t19.5 -6.5t8.5 -15.5q0 -10 -8 -16t-19 -6t-19.5 6.5zM569 732h30v-455q0 -86 -30.5 -150.5
t-88 -100t-137.5 -35.5t-138 35.5t-88.5 100t-30.5 150.5v455h31v-449q0 -123 59 -193.5t167 -70.5q107 0 166.5 70.5t59.5 193.5v449z" />
    <glyph glyph-name="uni01D8" unicode="&#x1d8;" horiz-adv-x="560" 
d="M258 758l78 128h34l-85 -128h-27zM162 657q-8 8 -8 20q0 11 7.5 19t18.5 8q12 0 20 -8t8 -19q0 -12 -7.5 -20t-19.5 -8q-11 0 -19 8zM350.5 657q-8.5 8 -8.5 20q0 11 8 19t19 8t19.5 -8t8.5 -19q0 -12 -8 -20t-19 -8t-19.5 8zM437 522h29v-522h-25q0 85 -2 115
q-21 -58 -69.5 -91t-109.5 -33q-78 0 -126.5 51t-48.5 147v333h29v-326q0 -87 41.5 -132t108.5 -45q46 0 85.5 22t63.5 64.5t24 102.5v314z" />
    <glyph glyph-name="uni01D9" unicode="&#x1d9;" horiz-adv-x="685" 
d="M466 928l-111 -66h-24l-112 66h41l83 -51l83 51h40zM230 808q-8 6 -8 16q0 9 8 15.5t19 6.5t19.5 -6.5t8.5 -15.5q0 -10 -8 -16t-19 -6q-12 0 -20 6zM418.5 808.5q-8.5 6.5 -8.5 15.5t8 15.5t19 6.5t19.5 -6.5t8.5 -15.5q0 -10 -8 -16t-19 -6t-19.5 6.5zM569 732h30v-455
q0 -86 -30.5 -150.5t-88 -100t-137.5 -35.5t-138 35.5t-88.5 100t-30.5 150.5v455h31v-449q0 -123 59 -193.5t167 -70.5q107 0 166.5 70.5t59.5 193.5v449z" />
    <glyph glyph-name="uni01DA" unicode="&#x1da;" horiz-adv-x="560" 
d="M188 886l87 -106l86 106h31l-105 -128h-24l-106 128h31zM162 657q-8 8 -8 20q0 11 7.5 19t18.5 8q12 0 20 -8t8 -19q0 -12 -7.5 -20t-19.5 -8q-11 0 -19 8zM350.5 657q-8.5 8 -8.5 20q0 11 8 19t19 8t19.5 -8t8.5 -19q0 -12 -8 -20t-19 -8t-19.5 8zM437 522h29v-522h-25
q0 85 -2 115q-21 -58 -69.5 -91t-109.5 -33q-78 0 -126.5 51t-48.5 147v333h29v-326q0 -87 41.5 -132t108.5 -45q46 0 85.5 22t63.5 64.5t24 102.5v314z" />
    <glyph glyph-name="uni01DB" unicode="&#x1db;" horiz-adv-x="685" 
d="M235 928h36l81 -66h-29zM230 808q-8 6 -8 16q0 9 8 15.5t19 6.5t19.5 -6.5t8.5 -15.5q0 -10 -8 -16t-19 -6q-12 0 -20 6zM418.5 808.5q-8.5 6.5 -8.5 15.5t8 15.5t19 6.5t19.5 -6.5t8.5 -15.5q0 -10 -8 -16t-19 -6t-19.5 6.5zM569 732h30v-455q0 -86 -30.5 -150.5
t-88 -100t-137.5 -35.5t-138 35.5t-88.5 100t-30.5 150.5v455h31v-449q0 -123 59 -193.5t167 -70.5q107 0 166.5 70.5t59.5 193.5v449z" />
    <glyph glyph-name="uni01DC" unicode="&#x1dc;" horiz-adv-x="560" 
d="M180 886h34l78 -128h-27zM162 657q-8 8 -8 20q0 11 7.5 19t18.5 8q12 0 20 -8t8 -19q0 -12 -7.5 -20t-19.5 -8q-11 0 -19 8zM350.5 657q-8.5 8 -8.5 20q0 11 8 19t19 8t19.5 -8t8.5 -19q0 -12 -8 -20t-19 -8t-19.5 8zM437 522h29v-522h-25q0 85 -2 115q-21 -58 -69.5 -91
t-109.5 -33q-78 0 -126.5 51t-48.5 147v333h29v-326q0 -87 41.5 -132t108.5 -45q46 0 85.5 22t63.5 64.5t24 102.5v314z" />
    <glyph glyph-name="uni01E5" unicode="&#x1e5;" horiz-adv-x="599" 
d="M92 406q30 61 81 93t111 32q67 0 118.5 -39t71.5 -112q2 72 2 142h25v-248h82v-26h-82v-238q0 -131 -62 -192.5t-158 -61.5q-67 0 -120 28t-79 83l24 14q25 -49 70.5 -73.5t104.5 -24.5q87 0 139.5 54t52.5 174v127q-22 -71 -73 -109t-116 -38q-60 0 -111 32.5t-81 93.5
t-30 145q0 83 30 144zM374.5 42q41.5 23 68.5 74t29 132h-150v26h150q-2 81 -29 132t-68.5 74t-88.5 23q-53 0 -97 -28t-70 -82.5t-26 -130.5t26 -131t70 -83.5t97 -28.5q47 0 88.5 23z" />
    <glyph glyph-name="gcaron" unicode="&#x1e7;" horiz-adv-x="595" 
d="M198 740l87 -117l87 117h31l-106 -141h-24l-106 141h31zM501 522v-512q0 -131 -62 -192.5t-158 -61.5q-67 0 -120 28t-79 83l24 14q25 -49 70.5 -73.5t104.5 -24.5q87 0 139.5 54t52.5 174v127q-22 -71 -73 -109t-116 -38q-60 0 -111 32.5t-81 93.5t-30 145q0 83 30 144
t81 93t111 32q67 0 118.5 -39t71.5 -112q2 72 2 142h25zM376.5 43q42.5 24 69.5 78.5t27 140.5q0 85 -27 139t-69.5 78t-90.5 24q-53 0 -97 -28t-70 -82.5t-26 -130.5t26 -131t70 -83.5t97 -28.5q48 0 90.5 24z" />
    <glyph glyph-name="uni01E9" unicode="&#x1e9;" horiz-adv-x="480" 
d="M21 928l87 -83l86 83h32l-106 -100h-24l-106 100h31zM240 298l231 -298h-39l-212 276l-97 -103v-173h-29v761h29v-548l289 309h38z" />
    <glyph glyph-name="uni01EF" unicode="&#x1ef;" horiz-adv-x="474" 
d="M137 740l88 -117l86 117h31l-106 -141h-24l-106 141h31zM172 215q28 2 39 2q76 0 129 -30t79 -81t26 -115q0 -68 -27.5 -121.5t-78.5 -83.5t-118 -30q-76 0 -135 39.5t-79 112.5l25 14q20 -66 72 -102.5t116 -36.5q56 0 100 27t69 74.5t25 106.5q0 87 -53.5 144
t-160.5 57q-32 0 -68 -6v23l247 287h-345v26h390v-16z" />
    <glyph glyph-name="uni01F0" unicode="&#x1f0;" horiz-adv-x="219" 
d="M23 740l87 -117l86 117h31l-105 -141h-24l-106 141h31zM-55.5 -235q-21.5 9 -33.5 25l18 22q24 -29 65 -29q46 0 73.5 37t27.5 119v583h30v-585q0 -93 -36 -137t-95 -44q-28 0 -49.5 9z" />
    <glyph glyph-name="uni01F9" unicode="&#x1f9;" horiz-adv-x="558" 
d="M181 740h34l80 -141h-28zM426.5 479.5q48.5 -51.5 48.5 -146.5v-333h-29v326q0 87 -41.5 132t-108.5 45q-47 0 -86.5 -21.5t-63 -64.5t-23.5 -103v-314h-29v522h25q0 -85 2 -115q21 58 69.5 91t110.5 33q77 0 125.5 -51.5z" />
    <glyph glyph-name="Aringacute" unicode="&#x1fa;" horiz-adv-x="634" 
d="M299 877l73 51h34l-80 -51h-27zM260.5 844q21.5 10 54.5 10q32 0 53 -10t21 -24q0 -15 -21 -25t-53 -10q-33 0 -54.5 10t-21.5 25q0 14 21.5 24zM277 803.5q14 -6.5 38 -6.5q23 0 37.5 6.5t14.5 16.5t-14.5 15.5t-37.5 5.5q-24 0 -38 -5.5t-14 -15.5t14 -16.5zM327 732
l288 -732h-34l-97 250h-337l-96 -250h-32l282 732h26zM473 278l-159 409l-157 -409h316z" />
    <glyph glyph-name="aringacute" unicode="&#x1fb;" horiz-adv-x="534" 
d="M328 911h34l-80 -112h-27zM217 616q-22 22 -22 56q0 33 22 54t55 21q31 0 52 -21t21 -54q0 -34 -21 -56t-52 -22q-33 0 -55 22zM233 711q-15 -15 -15 -39t15.5 -40.5t38.5 -16.5q22 0 37 16.5t15 40.5t-14.5 39t-37.5 15q-24 0 -39 -15zM401 483q50 -48 50 -145v-338h-25
q0 67 -1 96q-21 -48 -67 -76.5t-109 -28.5q-76 0 -128.5 41t-52.5 115q0 75 61.5 116.5t160.5 41.5q63 0 132 -18v47q0 87 -41 128t-107 41q-53 0 -93 -24t-59 -66l-24 13q19 48 67.5 76.5t109.5 28.5q76 0 126 -48zM422 262q-73 19 -132 19q-85 0 -138 -35t-53 -99
q0 -61 43.5 -95t107.5 -34q73 0 122.5 43t49.5 117v84z" />
    <glyph glyph-name="AEacute" unicode="&#x1fc;" horiz-adv-x="957" 
d="M590 807l84 121h33l-90 -121h-27zM855 366h-330v-338h376v-28h-407v254h-284l-166 -254h-35l480 732h401v-28h-365v-310h330v-28zM494 282v406l-266 -406h266z" />
    <glyph glyph-name="aeacute" unicode="&#x1fd;" horiz-adv-x="891" 
d="M521 740h34l-86 -141h-27zM754.5 500.5q45.5 -30.5 69 -82t23.5 -113.5q0 -13 -2 -37h-389q0 -77 26 -133t72 -85.5t105 -29.5q48 0 87 20.5t59 60.5l23 -13q-21 -47 -68 -72t-102 -25q-73 0 -130 43.5t-82 121.5q-10 -80 -63.5 -122.5t-132.5 -42.5q-76 0 -129 38.5
t-53 114.5q0 77 55.5 120.5t156.5 43.5q69 0 146 -20v44q0 84 -41.5 127.5t-111.5 43.5q-52 0 -92 -24t-59 -67l-24 14q19 48 67 76.5t109 28.5q70 0 117 -39.5t56 -115.5q24 73 78 114t123 41q61 0 106.5 -30.5zM816 294q3 59 -16.5 106.5t-58.5 75t-94 27.5
q-78 0 -130.5 -55t-59.5 -154h359zM426 262q-77 20 -144 20q-88 0 -135.5 -36t-47.5 -100t44.5 -96t108.5 -32q75 0 124.5 45.5t49.5 130.5v68z" />
    <glyph glyph-name="Oslashacute" unicode="&#x1fe;" horiz-adv-x="745" 
d="M364 806l84 122h33l-90 -122h-27zM648 765h35l-91 -124q43 -50 67 -120.5t24 -153.5q0 -110 -40 -195.5t-110.5 -133t-159.5 -47.5q-117 0 -200 80l-76 -103h-34l90 123q-43 50 -67 121t-24 155q0 110 40 195t111 132.5t160 47.5q57 0 107.5 -21t91.5 -60zM114.5 228
q19.5 -64 56.5 -111l383 520q-73 76 -181 76q-81 0 -144.5 -44t-98.5 -122.5t-35 -179.5q0 -75 19.5 -139zM631 505.5q-20 63.5 -57 109.5l-383 -519q74 -77 182 -77q81 0 144 44.5t98.5 124t35.5 179.5q0 75 -20 138.5z" />
    <glyph glyph-name="oslashacute" unicode="&#x1ff;" horiz-adv-x="599" 
d="M275 599l79 141h34l-86 -141h-27zM489 554h33l-70 -96q33 -36 51.5 -87t18.5 -110q0 -78 -31.5 -140t-84 -96t-114.5 -34q-39 0 -74.5 14.5t-65.5 40.5l-57 -78h-33l70 96q-33 37 -51.5 87t-18.5 110q0 78 31.5 140t84 96t114.5 34q39 0 75.5 -14t65.5 -41zM108 164
q15 -44 42 -76l266 365q-26 24 -58 37t-66 13q-54 0 -99.5 -30.5t-72.5 -85.5t-27 -126q0 -53 15 -97zM477 357.5q-15 44.5 -42 76.5l-267 -365q26 -24 58 -37t66 -13q54 0 100 30t73 85.5t27 126.5q0 52 -15 96.5z" />
    <glyph glyph-name="uni0218" unicode="&#x218;" horiz-adv-x="527" 
d="M432.5 43.5q-57.5 -52.5 -154.5 -52.5q-88 0 -156.5 43t-90.5 118l25 15q21 -68 82.5 -108t139.5 -40q81 0 130.5 45t49.5 121q0 56 -27 91.5t-66.5 55t-105.5 42.5t-105 42t-66 54t-27 91q0 59 29 99.5t77 61t105 20.5q82 0 138 -39.5t67 -98.5l-25 -15q-11 56 -59.5 90
t-121.5 34q-76 0 -127 -39t-51 -111q0 -47 24 -77.5t60.5 -47.5t97.5 -37q70 -24 112.5 -45t72.5 -62t30 -107q0 -91 -57.5 -143.5zM279.5 -88.5q8.5 -10.5 8.5 -33.5q0 -33 -18 -59t-57 -34v18q53 16 55 69q-3 -2 -10 -2q-10 0 -17 7.5t-7 18.5t7 18.5t17 7.5
q13 0 21.5 -10.5z" />
    <glyph glyph-name="uni0219" unicode="&#x219;" horiz-adv-x="438" 
d="M114 348q18 -21 44.5 -33.5t72.5 -27.5q54 -18 86 -33t54.5 -44t22.5 -76q0 -65 -46.5 -104t-117.5 -39q-64 0 -116 32t-68 89l23 14q16 -52 60.5 -79.5t100.5 -27.5q58 0 95.5 30.5t37.5 82.5q0 38 -20 62.5t-49 38t-78 30.5q-50 17 -80 31t-50.5 39t-20.5 65
q0 61 45.5 97t113.5 36q58 0 102 -27.5t59 -73.5l-23 -14q-14 41 -52 64t-87 23q-55 0 -91 -27.5t-36 -74.5q0 -32 18 -53zM246.5 -88.5q8.5 -10.5 8.5 -33.5q0 -33 -18 -59t-57 -34v18q53 15 55 69q-3 -2 -9 -2q-11 0 -17.5 7.5t-6.5 18.5t7 18.5t17 7.5q12 0 20.5 -10.5z
" />
    <glyph glyph-name="uni021A" unicode="&#x21a;" horiz-adv-x="528" 
d="M249 704h-231v28h493v-28h-231v-704h-31v704zM284 -88.5q8 -10.5 8 -33.5q0 -33 -18 -59t-56 -34v18q53 16 55 69q-3 -2 -10 -2q-10 0 -17 7.5t-7 18.5t7 18.5t17 7.5q13 0 21 -10.5z" />
    <glyph glyph-name="uni021B" unicode="&#x21b;" horiz-adv-x="325" 
d="M306 15q-34 -24 -80 -24q-56 0 -85.5 32t-29.5 108v365h-86v26h86v142h29v-142h143v-26h-143v-361q0 -61 20.5 -88.5t66.5 -27.5q36 0 68 19zM228 -88.5q8 -10.5 8 -33.5q0 -33 -18 -59t-56 -34v18q53 16 55 69q-3 -2 -10 -2q-10 0 -17 7.5t-7 18.5t7 18.5t17 7.5
q13 0 21 -10.5z" />
    <glyph glyph-name="uni021F" unicode="&#x21f;" horiz-adv-x="558" 
d="M21 928l87 -83l86 83h32l-106 -100h-24l-106 100h31zM426.5 479.5q48.5 -51.5 48.5 -146.5v-333h-29v326q0 87 -41.5 132t-108.5 45q-47 0 -86.5 -21.5t-63 -64.5t-23.5 -103v-314h-29v761h29v-349q22 56 69.5 87.5t108.5 31.5q77 0 125.5 -51.5z" />
    <glyph glyph-name="uni0237" unicode="&#x237;" horiz-adv-x="219" 
d="M-55.5 -235q-21.5 9 -33.5 25l18 22q24 -29 65 -29q46 0 73.5 37t27.5 119v583h30v-585q0 -93 -36 -137t-95 -44q-28 0 -49.5 9z" />
    <glyph glyph-name="uni0251" unicode="&#x251;" horiz-adv-x="595" 
d="M502 522v-522h-25q0 90 -3 142q-20 -73 -72 -112t-118 -39q-60 0 -111 32.5t-81 93.5t-30 145q0 83 30 144t81 93t111 32q67 0 118.5 -39t71.5 -112q3 54 3 142h25zM376.5 43q42.5 24 69.5 78.5t27 140.5q0 85 -27 139t-69.5 78t-90.5 24q-53 0 -97 -28t-70 -82.5
t-26 -130.5t26 -131t70 -83.5t97 -28.5q48 0 90.5 24z" />
    <glyph glyph-name="uni0259" unicode="&#x259;" horiz-adv-x="524" 
d="M346 498q53 -33 84.5 -95.5t31.5 -146.5q0 -81 -30 -141t-81 -92t-113 -32q-61 0 -106 30.5t-68.5 82.5t-23.5 114q0 11 2 37h389q0 77 -26 133t-72 85.5t-105 29.5q-49 0 -87.5 -20.5t-58.5 -61.5l-23 14q21 47 67.5 71.5t102.5 24.5q64 0 117 -33zM370.5 75
q52.5 55 59.5 154h-359q-3 -59 16.5 -106.5t58.5 -75t94 -27.5q78 0 130.5 55z" />
    <glyph glyph-name="uni0261" unicode="&#x261;" horiz-adv-x="595" 
d="M501 522v-512q0 -131 -62 -192.5t-158 -61.5q-67 0 -120 28t-79 83l24 14q25 -49 70.5 -73.5t104.5 -24.5q87 0 139.5 54t52.5 174v127q-22 -71 -73 -109t-116 -38q-60 0 -111 32.5t-81 93.5t-30 145q0 83 30 144t81 93t111 32q67 0 118.5 -39t71.5 -112q2 72 2 142h25z
M376.5 43q42.5 24 69.5 78.5t27 140.5q0 85 -27 139t-69.5 78t-90.5 24q-53 0 -97 -28t-70 -82.5t-26 -130.5t26 -131t70 -83.5t97 -28.5q48 0 90.5 24z" />
    <glyph glyph-name="uni0292" unicode="&#x292;" horiz-adv-x="474" 
d="M172 215q28 2 39 2q76 0 129 -30t79 -81t26 -115q0 -68 -27.5 -121.5t-78.5 -83.5t-118 -30q-76 0 -135 39.5t-79 112.5l25 14q20 -66 72 -102.5t116 -36.5q56 0 100 27t69 74.5t25 106.5q0 87 -53.5 144t-160.5 57q-32 0 -68 -6v23l247 287h-345v26h390v-16z" />
    <glyph glyph-name="uni02BB" unicode="&#x2bb;" horiz-adv-x="189" 
d="M67 649.5q-9 11.5 -9 38.5q0 42 19 76t61 45v-19q-59 -20 -59 -98q3 2 11 2q11 0 18 -8t7 -20q0 -11 -7.5 -19.5t-18.5 -8.5q-13 0 -22 11.5z" />
    <glyph glyph-name="uni02BC" unicode="&#x2bc;" horiz-adv-x="214" 
d="M133 797.5q9 -11.5 9 -37.5q0 -43 -19.5 -77t-60.5 -45v20q57 19 59 98q-5 -3 -11 -3q-11 0 -18.5 8.5t-7.5 19.5q0 12 7.5 20t19.5 8q13 0 22 -11.5z" />
    <glyph glyph-name="circumflex" unicode="&#x2c6;" horiz-adv-x="342" 
d="M159 740h24l106 -141h-31l-87 117l-87 -117h-31z" />
    <glyph glyph-name="caron" unicode="&#x2c7;" horiz-adv-x="342" 
d="M84 740l87 -117l87 117h31l-106 -141h-24l-106 141h31z" />
    <glyph glyph-name="uni02C9" unicode="&#x2c9;" horiz-adv-x="375" 
d="M54 869v28h267v-28h-267z" />
    <glyph glyph-name="uni02CA" unicode="&#x2ca;" horiz-adv-x="257" 
d="M49 806l84 122h33l-90 -122h-27z" />
    <glyph glyph-name="uni02CB" unicode="&#x2cb;" horiz-adv-x="257" 
d="M49 928h33l84 -122h-27z" />
    <glyph glyph-name="breve" unicode="&#x2d8;" horiz-adv-x="359" 
d="M86.5 640.5q-35.5 35.5 -35.5 93.5h27q1 -48 29 -76.5t72 -28.5q46 0 73.5 28t29.5 77h27q0 -58 -35.5 -93.5t-94.5 -35.5q-57 0 -92.5 35.5z" />
    <glyph glyph-name="dotaccent" unicode="&#x2d9;" horiz-adv-x="162" 
d="M62 664.5q-8 8.5 -8 19.5t8 19t20 8q11 0 19 -8t8 -19t-8 -19.5t-19 -8.5q-12 0 -20 8.5z" />
    <glyph glyph-name="ring" unicode="&#x2da;" horiz-adv-x="301" 
d="M95 740.5q23 22.5 57 22.5q33 0 55.5 -22.5t22.5 -57.5t-22.5 -58t-55.5 -23q-34 0 -57 23t-23 58t23 57.5zM111 641q16 -17 41 -17q24 0 39.5 17t15.5 42q0 26 -15.5 42t-39.5 16q-25 0 -41 -16t-16 -42q0 -25 16 -42z" />
    <glyph glyph-name="ogonek" unicode="&#x2db;" horiz-adv-x="313" 
d="M259 -192q-39 -52 -102 -52q-44 0 -74 25t-30 73q0 93 118 158l21 -12q-55 -34 -83 -67t-28 -76q0 -38 22 -56.5t55 -18.5q49 0 86 44z" />
    <glyph glyph-name="tilde" unicode="&#x2dc;" horiz-adv-x="384" 
d="M53 621q2 42 22 70.5t55 28.5q23 0 37.5 -11.5t32.5 -34.5q15 -19 26.5 -28.5t27.5 -9.5q44 0 52 74h25q-2 -42 -22 -71t-55 -29q-23 0 -37.5 11.5t-32.5 34.5q-15 19 -26.5 28.5t-27.5 9.5q-43 0 -51 -73h-26z" />
    <glyph glyph-name="hungarumlaut" unicode="&#x2dd;" horiz-adv-x="572" 
d="M53 599l79 141h34l-86 -141h-27zM164 599l79 141h34l-86 -141h-27z" />
    <glyph glyph-name="uni02F3" unicode="&#x2f3;" horiz-adv-x="600" 
d="M131 131.5q18 31.5 49 50t69 18.5q36 0 67 -18.5t49 -50.5t18 -69q0 -38 -17.5 -69t-48.5 -49.5t-68 -18.5q-38 0 -69 18.5t-49 49.5t-18 69t18 69.5zM191.5 2.5q22.5 -23.5 57.5 -23.5q34 0 55.5 23.5t21.5 59.5t-22 60t-55 24q-35 0 -57.5 -24t-22.5 -60t22.5 -59.5z
" />
    <glyph glyph-name="gravecomb" unicode="&#x300;" horiz-adv-x="0" 
d="M-168 740h34l79 -141h-27z" />
    <glyph glyph-name="acutecomb" unicode="&#x301;" horiz-adv-x="0" 
d="M-168 599l79 141h34l-86 -141h-27z" />
    <glyph glyph-name="uni0302" unicode="&#x302;" horiz-adv-x="0" 
d="M-183 740h24l106 -141h-31l-87 117l-87 -117h-31z" />
    <glyph glyph-name="tildecomb" unicode="&#x303;" horiz-adv-x="0" 
d="M-331 621q2 42 22 70.5t55 28.5q23 0 37.5 -11.5t32.5 -34.5q15 -19 26.5 -28.5t27.5 -9.5q44 0 52 74h25q-2 -42 -22 -71t-55 -29q-23 0 -37.5 11.5t-32.5 34.5q-15 19 -26.5 28.5t-27.5 9.5q-43 0 -51 -73h-26z" />
    <glyph glyph-name="uni0304" unicode="&#x304;" horiz-adv-x="0" 
d="M-321 661v29h267v-29h-267z" />
    <glyph glyph-name="uni0306" unicode="&#x306;" horiz-adv-x="0" 
d="M-272.5 640.5q-35.5 35.5 -35.5 93.5h27q1 -48 29 -76.5t72 -28.5q46 0 73.5 28t29.5 77h27q0 -58 -35.5 -93.5t-94.5 -35.5q-57 0 -92.5 35.5z" />
    <glyph glyph-name="uni0307" unicode="&#x307;" horiz-adv-x="0" 
d="M-100 664.5q-8 8.5 -8 19.5t8 19t20 8q11 0 19 -8t8 -19t-8 -19.5t-19 -8.5q-12 0 -20 8.5z" />
    <glyph glyph-name="uni0308" unicode="&#x308;" horiz-adv-x="0" 
d="M-251.5 657q-8.5 8 -8.5 20q0 11 8 19t19 8t19.5 -8t8.5 -19q0 -12 -8 -20t-19 -8t-19.5 8zM-63.5 657q-8.5 8 -8.5 20q0 11 8 19t19 8t19.5 -8t8.5 -19q0 -12 -8 -20t-19 -8t-19.5 8z" />
    <glyph glyph-name="hookabovecomb" unicode="&#x309;" horiz-adv-x="0" 
d="M-539 739q31 18 67 18q40 0 66.5 -21t26.5 -58q0 -35 -23.5 -58.5t-62.5 -35.5l-12 19q35 12 53 29t18 43q0 27 -19 43t-49 16q-31 0 -59 -17z" />
    <glyph glyph-name="uni030A" unicode="&#x30a;" horiz-adv-x="0" 
d="M-206 740.5q23 22.5 57 22.5q33 0 55.5 -22.5t22.5 -57.5t-22.5 -58t-55.5 -23q-34 0 -57 23t-23 58t23 57.5zM-190 641q16 -17 41 -17q24 0 39.5 17t15.5 42q0 26 -15.5 42t-39.5 16q-25 0 -41 -16t-16 -42q0 -25 16 -42z" />
    <glyph glyph-name="uni030C" unicode="&#x30c;" horiz-adv-x="0" 
d="M-258 740l87 -117l87 117h31l-106 -141h-24l-106 141h31z" />
    <glyph glyph-name="uni030F" unicode="&#x30f;" horiz-adv-x="0" 
d="M-547 740h34l79 -141h-27zM-436 740h34l79 -141h-27z" />
    <glyph glyph-name="dotbelowcomb" unicode="&#x323;" horiz-adv-x="0" 
d="M-99.5 -146.5q-8.5 8.5 -8.5 19.5t8.5 19t19.5 8t19 -8t8 -19t-8 -19.5t-19 -8.5t-19.5 8.5z" />
    <glyph glyph-name="uni0326" unicode="&#x326;" horiz-adv-x="0" 
d="M-60.5 -88.5q8.5 -10.5 8.5 -33.5q0 -33 -18 -59t-57 -34v18q53 15 55 69q-3 -2 -9 -2q-11 0 -17.5 7.5t-6.5 18.5t7 18.5t17 7.5q12 0 20.5 -10.5z" />
    <glyph glyph-name="uni0327" unicode="&#x327;" horiz-adv-x="0" 
d="M-162 5h27l-35 -92q7 1 20 1q45 0 71 -19t26 -56q0 -40 -30 -61.5t-76 -21.5q-30 0 -57 9v26q27 -9 56 -9q34 0 56.5 14t22.5 42q0 26 -20 38.5t-55 12.5q-18 0 -39 -3l-5 19z" />
    <glyph glyph-name="uni0335" unicode="&#x335;" horiz-adv-x="0" 
d="M-321 649v28h267v-28h-267z" />
    <glyph glyph-name="uni0338" unicode="&#x338;" horiz-adv-x="0" 
d="M-413 -235l362 967h31l-362 -967h-31z" />
    <glyph glyph-name="uni037E" unicode="&#x37e;" horiz-adv-x="235" 
d="M102 484q-8 8 -8 20q0 11 7.5 19t18.5 8q12 0 20 -8t8 -19q0 -12 -7.5 -20t-19.5 -8q-11 0 -19 8zM141 35.5q9 -11.5 9 -38.5q0 -42 -19.5 -76t-60.5 -45v20q57 19 59 97q-6 -2 -11 -2q-11 0 -18.5 8.5t-7.5 19.5q0 12 7.5 20t19.5 8q13 0 22 -11.5z" />
    <glyph glyph-name="tonos" unicode="&#x384;" horiz-adv-x="206" 
d="M55 599l62 141h34l-69 -141h-27z" />
    <glyph glyph-name="dieresistonos" unicode="&#x385;" horiz-adv-x="393" 
d="M150 599l41 141h31l-48 -141h-24zM56.5 657q-8.5 8 -8.5 20q0 11 8 19t19 8t19.5 -8t8.5 -19q0 -12 -8 -20t-19 -8t-19.5 8zM274 657q-8 8 -8 20q0 11 7.5 19t18.5 8q12 0 20 -8t8 -19q0 -12 -7.5 -20t-19.5 -8q-11 0 -19 8z" />
    <glyph glyph-name="Alphatonos" unicode="&#x386;" horiz-adv-x="634" 
d="M114 592l32 141h32l-39 -141h-25zM327 732l288 -732h-34l-97 250h-337l-96 -250h-32l282 732h26zM473 278l-159 409l-157 -409h316z" />
    <glyph glyph-name="anoteleia" unicode="&#x387;" horiz-adv-x="208" 
d="M85 343q-8 8 -8 20q0 11 7.5 19t18.5 8q12 0 20 -8t8 -19q0 -12 -7.5 -20t-19.5 -8q-11 0 -19 8z" />
    <glyph glyph-name="Epsilontonos" unicode="&#x388;" horiz-adv-x="615" 
d="M20 591l32 141h31l-38 -141h-25zM514 366h-331v-338h376v-28h-406v732h395v-28h-365v-310h331v-28z" />
    <glyph glyph-name="Etatonos" unicode="&#x389;" horiz-adv-x="766" 
d="M20 591l32 141h31l-38 -141h-25zM183 395h452v337h31v-732h-31v367h-452v-367h-30v732h30v-337z" />
    <glyph glyph-name="Iotatonos" unicode="&#x38a;" horiz-adv-x="283" 
d="M20 591l32 141h31l-38 -141h-25zM183 0h-30v732h30v-732z" />
    <glyph glyph-name="Omicrontonos" unicode="&#x38c;" horiz-adv-x="782" 
d="M139 564q40 85 110.5 131.5t160.5 46.5q89 0 159.5 -46.5t110.5 -132t40 -196.5q0 -112 -40 -197.5t-110.5 -132t-159.5 -46.5q-90 0 -160.5 46.5t-110.5 132t-40 197.5t40 197zM31 592l32 141h31l-38 -141h-25zM167 186q35 -79 98 -123t145 -44q81 0 144.5 44t98.5 123
t35 181q0 101 -35 180t-98.5 122.5t-144.5 43.5q-82 0 -145 -43.5t-98 -122t-35 -180.5t35 -181z" />
    <glyph glyph-name="Upsilontonos" unicode="&#x38e;" horiz-adv-x="672" 
d="M6 592l32 141h32l-39 -141h-25zM394 353l226 379h34l-246 -411v-321h-31v322l-263 410h37z" />
    <glyph glyph-name="Omegatonos" unicode="&#x38f;" horiz-adv-x="776" 
d="M718 28v-28h-249v33q96 46 151.5 134.5t55.5 215.5q0 100 -34.5 175t-96.5 115t-142 40t-142.5 -40t-97 -115t-34.5 -175q0 -127 56 -216t152 -134v-33h-250v28h208q-86 43 -142 134t-56 222q0 108 39.5 189t109 125t157.5 44t157.5 -44t109 -125t39.5 -189
q0 -131 -56 -222t-142 -134h207zM23 592l32 141h32l-39 -141h-25z" />
    <glyph glyph-name="iotadieresistonos" unicode="&#x390;" horiz-adv-x="224" 
d="M82 599l41 141h31l-48 -141h-24zM-11.5 657q-8.5 8 -8.5 20q0 11 8 19t19 8t19.5 -8t8.5 -19q0 -12 -8 -20t-19 -8t-19.5 8zM206 657q-8 8 -8 20q0 11 8 19t19 8t19 -8t8 -19q0 -12 -7.5 -20t-19.5 -8q-11 0 -19 8zM220 6q-27 -15 -54 -15q-40 0 -58 22.5t-18 72.5v436
h29v-431q0 -39 12 -55.5t39 -16.5q21 0 42 12z" />
    <glyph glyph-name="Alpha" unicode="&#x391;" horiz-adv-x="634" 
d="M327 732l288 -732h-34l-97 250h-337l-96 -250h-32l282 732h26zM473 278l-159 409l-157 -409h316z" />
    <glyph glyph-name="Beta" unicode="&#x392;" horiz-adv-x="608" 
d="M516.5 319.5q45.5 -47.5 45.5 -124.5q0 -89 -63.5 -142t-189.5 -53h-209v732h191q72 0 124 -24.5t79 -67t27 -96.5q0 -60 -33.5 -102t-96.5 -60q80 -15 125.5 -62.5zM130 704v-313h158q97 0 149 42.5t52 110.5q0 70 -54 115t-151 45h-154zM302 28q115 0 171 46t56 121
q0 79 -58 124t-161 45h-180v-336h172z" />
    <glyph glyph-name="Gamma" unicode="&#x393;" horiz-adv-x="513" 
d="M100 732h395v-28h-365v-704h-30v732z" />
    <glyph glyph-name="uni0394" unicode="&#x394;" horiz-adv-x="632" 
d="M300 732h26l286 -712v-20h-592v20zM56 28h517l-260 660z" />
    <glyph glyph-name="Epsilon" unicode="&#x395;" horiz-adv-x="562" 
d="M461 366h-331v-338h376v-28h-406v732h395v-28h-365v-310h331v-28z" />
    <glyph glyph-name="Zeta" unicode="&#x396;" horiz-adv-x="564" 
d="M523 732v-16l-446 -688h460v-28h-504v17l446 687h-416v28h460z" />
    <glyph glyph-name="Eta" unicode="&#x397;" horiz-adv-x="713" 
d="M130 395h452v337h31v-732h-31v367h-452v-367h-30v732h30v-337z" />
    <glyph glyph-name="Theta" unicode="&#x398;" horiz-adv-x="744" 
d="M102 562q40 85 110.5 132.5t159.5 47.5t159.5 -47.5t110.5 -132.5t40 -195t-40 -195.5t-110.5 -133t-159.5 -47.5t-159.5 47t-110.5 132.5t-40 196.5q0 110 40 195zM129 187q35 -79 98.5 -123.5t144.5 -44.5t144 44.5t98.5 124t35.5 179.5t-35.5 179t-98.5 123t-144 44
t-144 -44t-98.5 -122.5t-35.5 -179.5t35 -180zM538 358h-331v28h331v-28z" />
    <glyph glyph-name="Iota" unicode="&#x399;" horiz-adv-x="230" 
d="M130 0h-30v732h30v-732z" />
    <glyph glyph-name="Kappa" unicode="&#x39a;" horiz-adv-x="622" 
d="M290 427l316 -427h-39l-298 403l-139 -142v-261h-30v732h30v-431l417 431h40z" />
    <glyph glyph-name="Lambda" unicode="&#x39b;" horiz-adv-x="623" 
d="M570 0l-262 687l-257 -687h-32l277 732h26l282 -732h-34z" />
    <glyph glyph-name="Mu" unicode="&#x39c;" horiz-adv-x="840" 
d="M714 732h26v-732h-29v672l-281 -440h-19l-282 441v-673h-29v732h27l294 -461z" />
    <glyph glyph-name="Nu" unicode="&#x39d;" horiz-adv-x="710" 
d="M126 732l456 -675v675h29v-732h-26l-456 676v-676h-29v732h26z" />
    <glyph glyph-name="Xi" unicode="&#x39e;" horiz-adv-x="575" 
d="M534 704h-494v28h494v-28zM495 366h-415v28h415v-28zM534 0h-494v29h494v-29z" />
    <glyph glyph-name="Omicron" unicode="&#x39f;" horiz-adv-x="744" 
d="M101.5 564q39.5 85 110 131.5t160.5 46.5t160.5 -46.5t110 -131.5t39.5 -197t-40 -197.5t-110.5 -132t-159.5 -46.5q-90 0 -160.5 46.5t-110 131.5t-39.5 198q0 112 39.5 197zM129 186q35 -79 98 -123t145 -44q81 0 144.5 44t98.5 123t35 181q0 101 -35 180t-98.5 122.5
t-144.5 43.5t-144.5 -43.5t-98.5 -122t-35 -180.5t35 -181z" />
    <glyph glyph-name="Pi" unicode="&#x3a0;" horiz-adv-x="710" 
d="M100 732h510v-732h-31v704h-449v-704h-30v732z" />
    <glyph glyph-name="Rho" unicode="&#x3a1;" horiz-adv-x="553" 
d="M267 732q73 0 130 -25.5t88.5 -73t31.5 -110.5t-31.5 -111t-88.5 -73.5t-130 -25.5h-137v-313h-30v732h167zM263 341q100 0 161 48.5t61 133.5t-61 133t-161 48h-133v-363h133z" />
    <glyph glyph-name="Sigma" unicode="&#x3a3;" horiz-adv-x="541" 
d="M82 704l254 -333l-266 -342h446v-29h-486v24l269 346l-257 338v24h463v-28h-423z" />
    <glyph glyph-name="Tau" unicode="&#x3a4;" horiz-adv-x="528" 
d="M18 732h493v-28h-231v-704h-31v704h-231v28z" />
    <glyph glyph-name="Upsilon" unicode="&#x3a5;" horiz-adv-x="577" 
d="M298 353l227 379h33l-246 -411v-321h-30v322l-263 410h37z" />
    <glyph glyph-name="Phi" unicode="&#x3a6;" horiz-adv-x="767" 
d="M673 219.5q-42 -64.5 -114.5 -101t-160.5 -39.5v-79h-30v79q-89 3 -161 39.5t-114 101t-42 147.5q0 82 42 146.5t114 101t161 39.5v78h30v-78q89 -3 161.5 -39.5t114 -101t41.5 -146.5q0 -83 -42 -147.5zM120.5 234.5q36.5 -57.5 101 -90.5t146.5 -35v516
q-81 -3 -145.5 -35t-101.5 -89.5t-37 -133.5q0 -75 36.5 -132.5zM398 109q81 2 146 35t101.5 90.5t36.5 132.5q0 76 -37 133.5t-101.5 89.5t-145.5 35v-516z" />
    <glyph glyph-name="Chi" unicode="&#x3a7;" horiz-adv-x="619" 
d="M593 732l-265 -361l274 -371h-40l-254 347l-253 -347h-37l273 372l-265 360h39l246 -336l245 336h37z" />
    <glyph glyph-name="Psi" unicode="&#x3a8;" horiz-adv-x="724" 
d="M630 732h31v-242q0 -137 -79 -200.5t-205 -66.5v-223h-31v223q-126 3 -204.5 66.5t-78.5 200.5v242h31v-235q0 -128 69.5 -185t182.5 -60v480h31v-480q113 3 183 59.5t70 185.5v235z" />
    <glyph glyph-name="uni03A9" unicode="&#x3a9;" horiz-adv-x="746" 
d="M689 28v-28h-250v33q96 45 152 134t56 216q0 100 -34.5 175t-97 115t-142.5 40t-142 -40t-96.5 -115t-34.5 -175q0 -127 55.5 -215.5t151.5 -134.5v-33h-249v28h207q-86 43 -142 134t-56 222q0 108 39.5 189t109 125t157.5 44t157.5 -44t109 -125t39.5 -189
q0 -131 -56 -222t-142 -134h208z" />
    <glyph glyph-name="Iotadieresis" unicode="&#x3aa;" horiz-adv-x="230" 
d="M2 861.5q-8 7.5 -8 19.5q0 10 8 17.5t19 7.5t19.5 -7.5t8.5 -17.5q0 -12 -8 -19.5t-19 -7.5q-12 0 -20 7.5zM190.5 861.5q-8.5 7.5 -8.5 19.5q0 10 8 17.5t19 7.5t19.5 -7.5t8.5 -17.5q0 -12 -8 -19.5t-19 -7.5t-19.5 7.5zM130 0h-30v732h30v-732z" />
    <glyph glyph-name="Upsilondieresis" unicode="&#x3ab;" horiz-adv-x="577" 
d="M177.5 861.5q-8.5 7.5 -8.5 19.5q0 10 8 17.5t19 7.5t19.5 -7.5t8.5 -17.5q0 -12 -8 -19.5t-19 -7.5t-19.5 7.5zM366 861.5q-8 7.5 -8 19.5q0 10 7.5 17.5t18.5 7.5q12 0 20 -7t8 -18q0 -12 -7.5 -19.5t-19.5 -7.5q-11 0 -19 7.5zM298 353l227 379h33l-246 -411v-321h-30
v322l-263 410h37z" />
    <glyph glyph-name="alphatonos" unicode="&#x3ac;" horiz-adv-x="590" 
d="M340 739h34l-68 -142h-27zM580 0q-15 -9 -38 -9q-36 0 -52.5 22.5t-16.5 71.5v49q-22 -70 -73.5 -106.5t-115.5 -36.5q-60 0 -111 32.5t-81 93.5t-30 145q0 83 30 144t81 93t111 32q66 0 117.5 -38t72.5 -109q3 54 3 138h25v-432q0 -39 11 -55t35 -16q14 0 24 6z
M376.5 43q42.5 24 69.5 78.5t27 140.5q0 85 -27 139t-69.5 78t-90.5 24q-53 0 -97 -28t-70 -82.5t-26 -130.5t26 -131t70 -83.5t97 -28.5q48 0 90.5 24z" />
    <glyph glyph-name="epsilontonos" unicode="&#x3ad;" horiz-adv-x="456" 
d="M305 739h34l-69 -142h-27zM445 97q-19 -53 -69 -79.5t-119 -26.5q-59 0 -104 18.5t-69.5 52t-24.5 76.5q0 55 37 89.5t95 45.5q-48 11 -80.5 43t-32.5 79q0 39 23 70t63 48.5t91 17.5q67 0 114 -29.5t59 -77.5l-23 -14q-13 44 -53 68.5t-97 24.5q-64 0 -105 -30t-41 -78
q0 -49 42.5 -79.5t108.5 -30.5h48v-26h-46q-78 0 -125 -31.5t-47 -87.5q0 -55 44.5 -88t121.5 -33q128 0 165 92z" />
    <glyph glyph-name="etatonos" unicode="&#x3ae;" horiz-adv-x="569" 
d="M333 740h34l-69 -141h-27zM437.5 480q48.5 -51 48.5 -147v-565h-29v558q0 86 -42 131.5t-108 45.5q-47 0 -86.5 -21.5t-63 -64.5t-23.5 -103v-314h-29v433q0 38 -11 54.5t-35 16.5q-15 0 -25 -6l-7 24q12 9 37 9q36 0 53 -22.5t17 -70.5v-25q22 55 69.5 86.5t107.5 31.5
q78 0 126.5 -51z" />
    <glyph glyph-name="iotatonos" unicode="&#x3af;" horiz-adv-x="224" 
d="M88 599l61 141h34l-68 -141h-27zM220 6q-27 -15 -54 -15q-40 0 -58 22.5t-18 72.5v436h29v-431q0 -39 12 -55.5t39 -16.5q21 0 42 12z" />
    <glyph glyph-name="upsilondieresistonos" unicode="&#x3b0;" horiz-adv-x="539" 
d="M243 599l41 141h31l-48 -141h-24zM149.5 657q-8.5 8 -8.5 20q0 11 8 19t19 8t19.5 -8t8.5 -19q0 -12 -8 -20t-19 -8t-19.5 8zM367 657q-8 8 -8 20q0 11 8 19t19 8t19 -8t8 -19q0 -12 -7.5 -20t-19.5 -8q-11 0 -19 8zM85 522h29v-316q0 -94 42 -140.5t110 -46.5
q78 0 126.5 62t48.5 200q0 135 -51 241h31q51 -111 51 -240q0 -150 -58 -220.5t-150 -70.5q-81 0 -130 53.5t-49 157.5v320z" />
    <glyph glyph-name="alpha" unicode="&#x3b1;" horiz-adv-x="590" 
d="M580 0q-15 -9 -38 -9q-36 0 -52.5 22.5t-16.5 70.5v55q-21 -72 -72 -110t-117 -38q-60 0 -111 32.5t-81 93.5t-30 145q0 83 30 144t81 93t111 32q67 0 118.5 -39t71.5 -112q3 54 3 142h25v-432q0 -39 11 -55t35 -16q14 0 24 6zM376.5 43q42.5 24 69.5 78.5t27 140.5
q0 85 -27 139t-69.5 78t-90.5 24q-53 0 -97 -28t-70 -82.5t-26 -130.5t26 -131t70 -83.5t97 -28.5q48 0 90.5 24z" />
    <glyph glyph-name="beta" unicode="&#x3b2;" horiz-adv-x="564" 
d="M470.5 343.5q45.5 -54.5 45.5 -141.5q0 -94 -52.5 -152.5t-144.5 -58.5q-73 0 -126 39.5t-70 106.5v-369h-29v759q0 74 24.5 128.5t69 83.5t102.5 29q55 0 95.5 -25.5t62 -68.5t21.5 -96q0 -63 -31 -107.5t-89 -60.5q76 -12 121.5 -66.5zM441.5 69q43.5 50 43.5 133
q0 92 -52 142t-145 50h-36v26h15q86 0 128.5 43t42.5 115q0 69 -38 115.5t-111 46.5q-78 0 -122 -57.5t-44 -156.5v-268q0 -81 27 -134.5t71.5 -79t97.5 -25.5q79 0 122.5 50z" />
    <glyph glyph-name="gamma" unicode="&#x3b3;" horiz-adv-x="459" 
d="M375.5 233.5q-41.5 -100.5 -147.5 -236.5v-229h-29v224l-187 530h34l170 -497q98 131 134.5 224.5t36.5 182.5q0 39 -8 90h30q8 -53 8 -89q0 -99 -41.5 -199.5z" />
    <glyph glyph-name="delta" unicode="&#x3b4;" horiz-adv-x="584" 
d="M429 486q93 -89 93 -221q0 -80 -31.5 -142.5t-84 -97t-113.5 -34.5t-114 34.5t-85 96t-32 139.5t32 139.5t85 95.5t114 34q27 0 56 -8l-230 216v21h339v-25h-291zM392 49q46 30 73 85.5t27 126.5t-27 126t-73 85.5t-100 30.5t-99.5 -30.5t-72.5 -85.5t-27 -126t27 -126.5
t72.5 -85.5t99.5 -30t100 30z" />
    <glyph glyph-name="epsilon" unicode="&#x3b5;" horiz-adv-x="456" 
d="M445 97q-19 -53 -69 -79.5t-119 -26.5q-59 0 -104 18.5t-69.5 52t-24.5 76.5q0 56 37.5 90t95.5 45q-49 11 -81.5 43t-32.5 79q0 39 23 70t63 48.5t91 17.5q67 0 114 -29.5t59 -77.5l-23 -14q-13 44 -53 68.5t-97 24.5q-64 0 -105 -30t-41 -78q0 -49 42.5 -79.5
t108.5 -30.5h48v-26h-46q-78 0 -125 -31.5t-47 -87.5q0 -55 44.5 -88t121.5 -33q128 0 165 92z" />
    <glyph glyph-name="zeta" unicode="&#x3b6;" horiz-adv-x="426" 
d="M394 -17q32 -27 32 -68q0 -35 -20 -58.5t-55 -42.5l-15 19q31 17 45.5 35.5t14.5 43.5q0 33 -27 53.5t-89 34.5q-99 23 -163.5 78.5t-64.5 170.5q0 116 79 240t236 246h-290v26h338v-17q-172 -134 -252.5 -258.5t-80.5 -234.5q0 -103 57.5 -153t147.5 -70q75 -18 107 -45
z" />
    <glyph glyph-name="eta" unicode="&#x3b7;" horiz-adv-x="569" 
d="M437.5 480q48.5 -51 48.5 -147v-565h-29v558q0 86 -42 131.5t-108 45.5q-47 0 -86.5 -21.5t-63 -64.5t-23.5 -103v-314h-29v433q0 38 -11 54.5t-35 16.5q-15 0 -25 -6l-7 24q12 9 37 9q36 0 53 -22.5t17 -70.5v-25q22 55 69.5 86.5t107.5 31.5q78 0 126.5 -51z" />
    <glyph glyph-name="theta" unicode="&#x3b8;" horiz-adv-x="586" 
d="M414 721.5q52 -48.5 80 -137t28 -204.5t-28 -204t-80 -136.5t-122 -48.5t-122 48.5t-80 136.5t-28 204t28 204.5t80 137t122 48.5t122 -48.5zM190.5 699.5q-44.5 -42.5 -69.5 -118.5t-28 -174h398q-3 98 -28 174t-69 118.5t-102 42.5q-57 0 -101.5 -42.5zM397 63.5
q45 44.5 70 126.5t25 191h-399q0 -108 24.5 -190t69.5 -127t105 -45t105 44.5z" />
    <glyph glyph-name="iota" unicode="&#x3b9;" horiz-adv-x="224" 
d="M220 6q-27 -15 -54 -15q-40 0 -58 22.5t-18 72.5v436h29v-431q0 -39 12 -55.5t39 -16.5q21 0 42 12z" />
    <glyph glyph-name="kappa" unicode="&#x3ba;" horiz-adv-x="478" 
d="M462 0h-37l-208 299l-94 -115v-184h-29v520h29v-294l193 236q30 38 50.5 53.5t45.5 15.5t42 -17l-11 -23q-13 13 -32 13q-14 0 -29 -11t-41 -43l-106 -129z" />
    <glyph glyph-name="lambda" unicode="&#x3bb;" horiz-adv-x="508" 
d="M534 1q-16 -10 -41 -10q-35 0 -56 20.5t-38 68.5l-144 403l-211 -483h-32l231 515l-61 161q-16 39 -28.5 53t-35.5 14q-26 0 -51 -23l-10 21q29 29 65 29q32 0 52.5 -19.5t36.5 -64.5l218 -593q15 -40 30 -57t39 -17q15 0 28 7z" />
    <glyph glyph-name="uni03BC" unicode="&#x3bc;" horiz-adv-x="563" 
d="M553 0q-15 -9 -37 -9q-36 0 -52.5 22.5t-16.5 71.5v25q-22 -55 -69.5 -87t-107.5 -32q-52 0 -90 24t-57 72v-319h-29v754h29v-326q0 -87 41.5 -132t108.5 -45q46 0 85.5 22t63.5 64.5t24 102.5v314h29v-432q0 -39 11 -55t35 -16q14 0 25 6z" />
    <glyph glyph-name="nu" unicode="&#x3bd;" horiz-adv-x="457" 
d="M409 522q8 -53 8 -88q0 -98 -43 -196.5t-154 -237.5h-20l-188 522h34l170 -486q98 130 134.5 219.5t36.5 177.5q0 38 -8 89h30z" />
    <glyph glyph-name="xi" unicode="&#x3be;" horiz-adv-x="420" 
d="M399 -17q32 -27 32 -67q0 -35 -20 -59t-55 -43l-15 19q31 17 45 35.5t14 43.5q0 33 -26.5 53.5t-86.5 34.5q-102 24 -166 71.5t-64 139.5q0 77 48 129.5t123 71.5q-61 13 -101.5 49.5t-40.5 97.5q0 69 54 114t125 62h-200v26h342v-21q-92 -4 -157.5 -28.5t-99 -63.5
t-33.5 -87q0 -62 53.5 -99t140.5 -37h72v-26h-59q-77 0 -130 -25t-79.5 -67.5t-26.5 -93.5q0 -78 58 -121t149 -65q72 -17 104 -44z" />
    <glyph glyph-name="omicron" unicode="&#x3bf;" horiz-adv-x="584" 
d="M93.5 401q31.5 62 84 96t114.5 34t114.5 -34t84 -96t31.5 -140t-31.5 -140t-84 -96t-114.5 -34t-114.5 34t-84 96t-31.5 140t31.5 140zM120 135q27 -55 72.5 -85t99.5 -30t100 30t73 85t27 126t-27 126t-73 85.5t-100 30.5t-99.5 -30.5t-72.5 -85.5t-27 -126t27 -126z
" />
    <glyph glyph-name="pi" unicode="&#x3c0;" horiz-adv-x="576" 
d="M537 6q-27 -15 -54 -15q-39 0 -57.5 23t-18.5 72v410h-260v-496h-29v496h-103v26h529v-26h-107v-405q0 -39 11.5 -55.5t38.5 -16.5q23 0 42 12z" />
    <glyph glyph-name="rho" unicode="&#x3c1;" horiz-adv-x="596" 
d="M425 499q50 -32 79.5 -93t29.5 -145t-29.5 -145t-79.5 -93t-109 -32q-70 0 -124.5 41.5t-75.5 106.5v-371h-29v486q0 87 32 150t84 95t112 32t110 -32zM409.5 48q43.5 28 69 82.5t25.5 130.5t-26 131t-69.5 83t-94.5 28t-96.5 -28.5t-73.5 -83t-28 -130.5
q0 -77 27.5 -131.5t73 -82t97.5 -27.5t95.5 28z" />
    <glyph glyph-name="uni03C2" unicode="&#x3c2;" horiz-adv-x="472" 
d="M390.5 -17q30.5 -28 30.5 -68q0 -34 -20 -58t-55 -43l-15 19q31 17 45 36t14 44q0 33 -24 53t-81 35q-223 58 -223 262q0 79 32 140t85.5 94.5t116.5 33.5q54 0 98.5 -25.5t64.5 -76.5l-24 -14q-18 44 -55 66t-84 22q-56 0 -102.5 -29.5t-73.5 -84t-27 -126.5
q0 -182 199 -234q68 -18 98.5 -46z" />
    <glyph glyph-name="sigma" unicode="&#x3c3;" horiz-adv-x="602" 
d="M583 522v-26h-203q64 -27 103 -90.5t39 -150.5q0 -76 -31.5 -136.5t-84 -94t-114.5 -33.5t-114.5 33.5t-84 94t-31.5 137.5q0 78 31.5 138.5t85.5 94t118 33.5h286zM392 48.5q46 29.5 73 83.5t27 124t-27 124t-72.5 83.5t-100.5 29.5q-54 0 -99.5 -29.5t-72.5 -83.5
t-27 -124t27 -124t72.5 -83.5t99.5 -29.5t100 29.5z" />
    <glyph glyph-name="tau" unicode="&#x3c4;" horiz-adv-x="458" 
d="M441 522v-26h-201v-405q0 -39 12 -55.5t39 -16.5q21 0 42 12l8 -25q-27 -15 -54 -15q-40 0 -58 22.5t-18 72.5v410h-198v26h428z" />
    <glyph glyph-name="upsilon" unicode="&#x3c5;" horiz-adv-x="539" 
d="M85 522h29v-316q0 -94 42 -140.5t110 -46.5q78 0 126.5 62t48.5 200q0 135 -51 241h31q51 -111 51 -240q0 -150 -58 -220.5t-150 -70.5q-81 0 -130 53.5t-49 157.5v320z" />
    <glyph glyph-name="phi" unicode="&#x3c6;" horiz-adv-x="706" 
d="M607 123q-37 -60 -99.5 -94t-139.5 -37v-224h-30v224q-77 3 -140 36.5t-99.5 93.5t-36.5 139q0 78 37 138.5t100 94.5t139 37v147h30v-147q76 -3 139 -37t100 -94.5t37 -138.5t-37 -138zM126 136.5q33 -53.5 89 -84t123 -33.5v483q-67 -3 -123 -33t-89 -84t-33 -124
q0 -71 33 -124.5zM368 20q67 3 123.5 33t89.5 83.5t33 124.5q0 70 -33 124t-89 84t-124 33v-482z" />
    <glyph glyph-name="chi" unicode="&#x3c7;" horiz-adv-x="463" 
d="M233 175l182 347h33l-200 -376l200 -378h-34l-183 347l-183 -347h-33l201 376l-201 378h35z" />
    <glyph glyph-name="psi" unicode="&#x3c8;" horiz-adv-x="677" 
d="M548.5 66.5q-67.5 -70.5 -186.5 -74.5v-224h-29v224q-115 2 -181.5 62t-66.5 183v285h29v-281q0 -111 60 -165t159 -57v659h29v-658q223 9 223 266q0 130 -51 236h31q51 -111 51 -235q0 -150 -67.5 -220.5z" />
    <glyph glyph-name="omega" unicode="&#x3c9;" horiz-adv-x="737" 
d="M560 522q54 -55 84.5 -130t30.5 -165q0 -113 -47 -174.5t-123 -61.5q-55 0 -90 31.5t-46 84.5q-12 -53 -47 -84.5t-90 -31.5q-76 0 -123 61.5t-47 174.5q0 90 30.5 165t84.5 130h34q-118 -123 -118 -293q0 -100 39 -155t102 -55q55 0 87.5 42t32.5 124v177h29v-177
q0 -82 32.5 -124t87.5 -42q63 0 102 55t39 155q0 170 -118 293h34z" />
    <glyph glyph-name="iotadieresis" unicode="&#x3ca;" horiz-adv-x="224" 
d="M-8.5 657q-8.5 8 -8.5 20q0 11 8 19t19 8q12 0 20 -8t8 -19q0 -12 -8 -20t-19 -8t-19.5 8zM180 657q-8 8 -8 20q0 11 8 19t19 8t19 -8t8 -19q0 -12 -7.5 -20t-19.5 -8q-11 0 -19 8zM220 6q-27 -15 -54 -15q-40 0 -58 22.5t-18 72.5v436h29v-431q0 -39 12 -55.5t39 -16.5
q21 0 42 12z" />
    <glyph glyph-name="upsilondieresis" unicode="&#x3cb;" horiz-adv-x="539" 
d="M152.5 657q-8.5 8 -8.5 20q0 11 8 19t19 8q12 0 20 -8t8 -19q0 -12 -8 -20t-19 -8t-19.5 8zM341 657q-8 8 -8 20q0 11 8 19t19 8t19 -8t8 -19q0 -12 -7.5 -20t-19.5 -8q-11 0 -19 8zM85 522h29v-316q0 -94 42 -140.5t110 -46.5q78 0 126.5 62t48.5 200q0 135 -51 241h31
q51 -111 51 -240q0 -150 -58 -220.5t-150 -70.5q-81 0 -130 53.5t-49 157.5v320z" />
    <glyph glyph-name="omicrontonos" unicode="&#x3cc;" horiz-adv-x="584" 
d="M275 599l61 141h34l-68 -141h-27zM93.5 401q31.5 62 84 96t114.5 34t114.5 -34t84 -96t31.5 -140t-31.5 -140t-84 -96t-114.5 -34t-114.5 34t-84 96t-31.5 140t31.5 140zM120 135q27 -55 72.5 -85t99.5 -30t100 30t73 85t27 126t-27 126t-73 85.5t-100 30.5t-99.5 -30.5
t-72.5 -85.5t-27 -126t27 -126z" />
    <glyph glyph-name="upsilontonos" unicode="&#x3cd;" horiz-adv-x="539" 
d="M249 599l61 141h34l-68 -141h-27zM85 522h29v-316q0 -94 42 -140.5t110 -46.5q78 0 126.5 62t48.5 200q0 135 -51 241h31q51 -111 51 -240q0 -150 -58 -220.5t-150 -70.5q-81 0 -130 53.5t-49 157.5v320z" />
    <glyph glyph-name="omegatonos" unicode="&#x3ce;" horiz-adv-x="737" 
d="M413 740h34l-68 -141h-28zM560 522q54 -55 84.5 -130t30.5 -165q0 -113 -47 -174.5t-123 -61.5q-55 0 -89.5 30.5t-46.5 82.5q-12 -52 -47 -82.5t-90 -30.5q-76 0 -123 61.5t-47 174.5q0 90 30.5 165t84.5 130h34q-118 -123 -118 -293q0 -100 39 -155t102 -55
q55 0 87.5 42t32.5 124v177h29v-177q0 -82 32.5 -124t87.5 -42q63 0 102 55t39 155q0 170 -118 293h34z" />
    <glyph glyph-name="uni03D1" unicode="&#x3d1;" horiz-adv-x="574" 
d="M560 396v-25h-85q-2 -180 -56.5 -280t-161.5 -100q-81 0 -136.5 55.5t-65.5 147.5l29 9q10 -83 57.5 -133t116.5 -50q91 0 137.5 91.5t48.5 259.5h-147q-123 0 -185.5 45.5t-62.5 135.5q0 58 24.5 108t70 80t105.5 30q104 0 163.5 -99t62.5 -275h85zM134 435.5
q54 -39.5 168 -39.5h142q-2 165 -53 255.5t-142 90.5q-49 0 -87.5 -25.5t-60 -68.5t-21.5 -94q0 -79 54 -118.5z" />
    <glyph glyph-name="uni03D2" unicode="&#x3d2;" horiz-adv-x="602" 
d="M587 732v-28h-9q-73 0 -134 -66t-96 -168.5t-35 -206.5v-263h-31v259q0 91 -34.5 181.5t-95.5 167t-137 124.5h45q84 -55 150 -152.5t88 -203.5q15 92 54.5 174t97 132t122.5 50h15z" />
    <glyph glyph-name="uni03D6" unicode="&#x3d6;" horiz-adv-x="749" 
d="M30 522h689v-26h-136q46 -51 72 -118.5t26 -148.5q0 -113 -47.5 -175.5t-123.5 -62.5q-54 0 -89 31.5t-47 84.5q-12 -53 -46.5 -84.5t-89.5 -31.5q-76 0 -123 62.5t-47 175.5q0 81 26 148.5t72 118.5h-136v26zM549 496h-349q-101 -109 -101 -265q0 -100 39.5 -156
t102.5 -56q53 0 86 42t33 124v172h29v-172q0 -82 32.5 -124t86.5 -42q63 0 102.5 56t39.5 156q0 156 -101 265z" />
    <glyph glyph-name="uni0400" unicode="&#x400;" horiz-adv-x="562" 
d="M187 928h33l84 -122h-27zM461 366h-331v-338h376v-28h-406v732h395v-28h-365v-310h331v-28z" />
    <glyph glyph-name="uni0401" unicode="&#x401;" horiz-adv-x="562" 
d="M182 861.5q-8 7.5 -8 19.5q0 10 8 17.5t19 7.5t19.5 -7.5t8.5 -17.5q0 -12 -8 -19.5t-19 -7.5q-12 0 -20 7.5zM370.5 861.5q-8.5 7.5 -8.5 19.5q0 10 8 17.5t19 7.5t19.5 -7.5t8.5 -17.5q0 -12 -8 -19.5t-19 -7.5t-19.5 7.5zM461 366h-331v-338h376v-28h-406v732h395v-28
h-365v-310h331v-28z" />
    <glyph glyph-name="uni0402" unicode="&#x402;" horiz-adv-x="779" 
d="M625.5 437q53.5 -26 85 -79.5t31.5 -130.5q0 -78 -32 -132.5t-89.5 -81t-131.5 -22.5v28q100 -5 160.5 49t60.5 158q0 100 -57 154.5t-147 54.5q-58 0 -109.5 -23t-84 -74t-32.5 -131v-207h-31v704h-231v28h493v-28h-231v-384q24 67 84.5 105t141.5 38q66 0 119.5 -26z
" />
    <glyph glyph-name="uni0403" unicode="&#x403;" horiz-adv-x="513" 
d="M294 810l79 118h34l-86 -118h-27zM100 732h395v-28h-365v-704h-30v732z" />
    <glyph glyph-name="uni0404" unicode="&#x404;" horiz-adv-x="620" 
d="M496.5 55q50.5 35 73.5 94l24 -15q-24 -64 -81.5 -103.5t-139.5 -39.5q-89 0 -160 47.5t-111 133t-40 195.5t40 195.5t111 132.5t160 47q82 0 139.5 -39.5t81.5 -103.5l-24 -15q-23 59 -73.5 94t-123.5 35q-78 0 -140 -41t-98.5 -115t-40.5 -170h346v-28h-346
q1 -98 37 -175.5t99 -120.5t143 -43q73 0 123.5 35z" />
    <glyph glyph-name="uni0405" unicode="&#x405;" horiz-adv-x="527" 
d="M432 43q-58 -52 -154 -52q-88 0 -156.5 43t-90.5 118l25 15q21 -68 82.5 -108t139.5 -40q81 0 130.5 44.5t49.5 118.5q0 55 -26.5 90t-65.5 54.5t-105 43.5q-66 23 -106 43t-67 56t-27 92q0 59 29 99.5t77 61t105 20.5q82 0 138 -39.5t67 -98.5l-25 -15q-11 56 -59.5 90
t-121.5 34q-76 0 -127 -39t-51 -111q0 -48 24.5 -78.5t60 -48t99.5 -40.5q69 -24 111.5 -46t72 -62t29.5 -104q0 -89 -58 -141z" />
    <glyph glyph-name="uni0406" unicode="&#x406;" horiz-adv-x="230" 
d="M130 0h-30v732h30v-732z" />
    <glyph glyph-name="uni0407" unicode="&#x407;" horiz-adv-x="230" 
d="M2 861.5q-8 7.5 -8 19.5q0 10 8 17.5t19 7.5t19.5 -7.5t8.5 -17.5q0 -12 -8 -19.5t-19 -7.5q-12 0 -20 7.5zM190.5 861.5q-8.5 7.5 -8.5 19.5q0 10 8 17.5t19 7.5t19.5 -7.5t8.5 -17.5q0 -12 -8 -19.5t-19 -7.5t-19.5 7.5zM130 0h-30v732h30v-732z" />
    <glyph glyph-name="uni0408" unicode="&#x408;" horiz-adv-x="409" 
d="M74.5 18q-38.5 27 -54.5 80l24 15q15 -47 47 -70.5t77 -23.5q62 0 93 43.5t31 132.5v537h31v-540q0 -99 -40.5 -150t-114.5 -51q-55 0 -93.5 27z" />
    <glyph glyph-name="uni0409" unicode="&#x409;" horiz-adv-x="1081" 
d="M792 403q126 0 189 -54t63 -147t-63 -147.5t-189 -54.5h-210v704h-383l-20 -501q-3 -78 -16 -123t-46 -67t-95 -22v28q51 0 77 18.5t36 57.5t13 111l21 526h444v-329h179zM785 28q114 0 170.5 48t56.5 126q0 79 -56 126t-171 47h-172v-347h172z" />
    <glyph glyph-name="uni040A" unicode="&#x40a;" horiz-adv-x="1081" 
d="M792 395q127 0 189.5 -52t62.5 -145q0 -92 -63 -145t-189 -53h-210v367h-452v-367h-30v732h30v-337h452v337h31v-337h179zM785 28q115 0 171 46t56 124t-55.5 123.5t-171.5 45.5h-172v-339h172z" />
    <glyph glyph-name="uni040B" unicode="&#x40b;" horiz-adv-x="770" 
d="M655 404.5q61 -58.5 61 -176.5v-228h-31v222q0 106 -51.5 159.5t-140.5 53.5q-90 0 -151.5 -55t-61.5 -173v-207h-31v704h-231v28h493v-28h-231v-379q22 65 78.5 101.5t135.5 36.5q100 0 161 -58.5z" />
    <glyph glyph-name="uni040C" unicode="&#x40c;" horiz-adv-x="607" 
d="M317 806l84 122h33l-90 -122h-27zM291 370l300 -370h-42l-284 355h-135v-355h-30v732h30v-349h137l277 349h37z" />
    <glyph glyph-name="uni040D" unicode="&#x40d;" horiz-adv-x="710" 
d="M259 928h34l79 -119h-27zM585 732h26v-732h-29v676l-456 -676h-26v732h29v-677z" />
    <glyph glyph-name="uni040E" unicode="&#x40e;" horiz-adv-x="577" 
d="M198.5 839.5q-35.5 33.5 -35.5 88.5h27q1 -47 29 -73.5t72 -26.5q45 0 72.5 26.5t28.5 73.5h27q0 -55 -35 -88.5t-93 -33.5q-57 0 -92.5 33.5zM299 244l226 488h33l-247 -525q-41 -87 -69 -132t-58 -64.5t-71 -19.5q-47 0 -72 19v33q31 -23 72 -23q33 0 57 16.5t49 56
t63 118.5l-263 521h36z" />
    <glyph glyph-name="uni040F" unicode="&#x40f;" horiz-adv-x="710" 
d="M130 28h449v704h31v-732h-239l-4 -172h-24l-4 172h-239v732h30v-704z" />
    <glyph glyph-name="uni0410" unicode="&#x410;" horiz-adv-x="634" 
d="M327 732l288 -732h-34l-97 250h-337l-96 -250h-32l282 732h26zM473 278l-159 409l-157 -409h316z" />
    <glyph glyph-name="uni0411" unicode="&#x411;" horiz-adv-x="606" 
d="M309 403q126 0 189.5 -54t63.5 -147t-63.5 -147.5t-189.5 -54.5h-209v732h396v-28h-366v-301h179zM302 28q115 0 171 48t56 126q0 79 -56 126t-171 47h-172v-347h172z" />
    <glyph glyph-name="uni0412" unicode="&#x412;" horiz-adv-x="608" 
d="M516.5 319.5q45.5 -47.5 45.5 -124.5q0 -89 -63.5 -142t-189.5 -53h-209v732h191q72 0 124 -24.5t79 -67t27 -96.5q0 -60 -33.5 -102t-96.5 -60q80 -15 125.5 -62.5zM130 704v-313h158q97 0 149 42.5t52 110.5q0 70 -54 115t-151 45h-154zM302 28q115 0 171 46t56 121
q0 79 -58 124t-161 45h-180v-336h172z" />
    <glyph glyph-name="uni0413" unicode="&#x413;" horiz-adv-x="513" 
d="M100 732h395v-28h-365v-704h-30v732z" />
    <glyph glyph-name="uni0414" unicode="&#x414;" horiz-adv-x="720" 
d="M601 28h75l-4 -200h-25l-3 172h-597l-4 -172h-24l-4 200h27q53 0 83.5 33.5t44 95t20.5 160.5l26 415h385v-704zM570 28v676h-325l-24 -391q-8 -119 -28 -188.5t-67 -96.5h444z" />
    <glyph glyph-name="uni0415" unicode="&#x415;" horiz-adv-x="562" 
d="M461 366h-331v-338h376v-28h-406v732h395v-28h-365v-310h331v-28z" />
    <glyph glyph-name="uni0416" unicode="&#x416;" horiz-adv-x="905" 
d="M614 370l275 -370h-42l-260 355h-119v-355h-31v355h-119l-261 -355h-41l275 370l-265 362h37l255 -349h119v349h31v-349h120l255 349h36z" />
    <glyph glyph-name="uni0417" unicode="&#x417;" horiz-adv-x="550" 
d="M455.5 326.5q43.5 -50.5 43.5 -127.5q0 -93 -58.5 -150.5t-167.5 -57.5q-86 0 -149 39.5t-85 113.5l25 14q21 -67 77 -103t132 -36q93 0 143.5 51t50.5 130q0 81 -54.5 128t-147.5 47h-61v28h63q48 0 85 21t57 56.5t20 78.5t-20 78t-58 55.5t-90 20.5q-63 0 -113.5 -33.5
t-72.5 -97.5l-24 14q25 72 80.5 109t130.5 37q94 0 146.5 -51t52.5 -130q0 -61 -33.5 -107t-89.5 -63q74 -14 117.5 -64.5z" />
    <glyph glyph-name="uni0418" unicode="&#x418;" horiz-adv-x="710" 
d="M585 732h26v-732h-29v676l-456 -676h-26v732h29v-677z" />
    <glyph glyph-name="uni0419" unicode="&#x419;" horiz-adv-x="710" 
d="M262.5 839.5q-35.5 33.5 -35.5 88.5h27q2 -47 29.5 -73.5t71.5 -26.5q45 0 73 26.5t29 73.5h27q0 -55 -35 -88.5t-94 -33.5q-57 0 -92.5 33.5zM585 732h26v-732h-29v676l-456 -676h-26v732h29v-677z" />
    <glyph glyph-name="uni041A" unicode="&#x41a;" horiz-adv-x="607" 
d="M291 370l300 -370h-42l-284 355h-135v-355h-30v732h30v-349h137l277 349h37z" />
    <glyph glyph-name="uni041B" unicode="&#x41b;" horiz-adv-x="710" 
d="M610 732v-732h-31v704h-380l-20 -500q-3 -79 -16 -124t-46 -67t-95 -22v28q51 0 77 18.5t36 57.5t13 112l21 525h441z" />
    <glyph glyph-name="uni041C" unicode="&#x41c;" horiz-adv-x="840" 
d="M714 732h26v-732h-29v672l-281 -440h-19l-282 441v-673h-29v732h27l294 -461z" />
    <glyph glyph-name="uni041D" unicode="&#x41d;" horiz-adv-x="713" 
d="M130 395h452v337h31v-732h-31v367h-452v-367h-30v732h30v-337z" />
    <glyph glyph-name="uni041E" unicode="&#x41e;" horiz-adv-x="744" 
d="M101.5 564q39.5 85 110 131.5t160.5 46.5t160.5 -46.5t110 -131.5t39.5 -197t-40 -197.5t-110.5 -132t-159.5 -46.5q-90 0 -160.5 46.5t-110 131.5t-39.5 198q0 112 39.5 197zM129 186q35 -79 98 -123t145 -44q81 0 144.5 44t98.5 123t35 181q0 101 -35 180t-98.5 122.5
t-144.5 43.5t-144.5 -43.5t-98.5 -122t-35 -180.5t35 -181z" />
    <glyph glyph-name="uni041F" unicode="&#x41f;" horiz-adv-x="710" 
d="M100 732h510v-732h-31v704h-449v-704h-30v732z" />
    <glyph glyph-name="uni0420" unicode="&#x420;" horiz-adv-x="553" 
d="M267 732q73 0 130 -25.5t88.5 -73t31.5 -110.5t-31.5 -111t-88.5 -73.5t-130 -25.5h-137v-313h-30v732h167zM263 341q100 0 161 48.5t61 133.5t-61 133t-161 48h-133v-363h133z" />
    <glyph glyph-name="uni0421" unicode="&#x421;" horiz-adv-x="630" 
d="M496.5 55q50.5 35 73.5 94l24 -15q-24 -64 -81.5 -103.5t-139.5 -39.5q-89 0 -160 47.5t-111 133t-40 195.5t40 195.5t111 132.5t160 47q82 0 139.5 -39.5t81.5 -103.5l-24 -15q-23 59 -73.5 94t-123.5 35q-81 0 -144.5 -44t-99 -122.5t-35.5 -179.5q0 -100 35.5 -179
t99 -123.5t144.5 -44.5q73 0 123.5 35z" />
    <glyph glyph-name="uni0422" unicode="&#x422;" horiz-adv-x="528" 
d="M18 732h493v-28h-231v-704h-31v704h-231v28z" />
    <glyph glyph-name="uni0423" unicode="&#x423;" horiz-adv-x="577" 
d="M299 244l226 488h33l-247 -525q-41 -87 -69 -132t-58 -64.5t-71 -19.5q-47 0 -72 19v33q31 -23 72 -23q33 0 57 16.5t49 56t63 118.5l-263 521h36z" />
    <glyph glyph-name="uni0424" unicode="&#x424;" horiz-adv-x="767" 
d="M673 219.5q-42 -64.5 -114.5 -101t-160.5 -39.5v-79h-30v79q-89 3 -161 39.5t-114 101t-42 147.5q0 82 42 146.5t114 101t161 39.5v78h30v-78q89 -3 161.5 -39.5t114 -101t41.5 -146.5q0 -83 -42 -147.5zM120.5 234.5q36.5 -57.5 101 -90.5t146.5 -35v516
q-81 -3 -145.5 -35t-101.5 -89.5t-37 -133.5q0 -75 36.5 -132.5zM398 109q81 2 146 35t101.5 90.5t36.5 132.5q0 76 -37 133.5t-101.5 89.5t-145.5 35v-516z" />
    <glyph glyph-name="uni0425" unicode="&#x425;" horiz-adv-x="619" 
d="M593 732l-265 -361l274 -371h-40l-254 347l-253 -347h-37l273 372l-265 360h39l246 -336l245 336h37z" />
    <glyph glyph-name="uni0426" unicode="&#x426;" horiz-adv-x="729" 
d="M610 732v-704h74l-3 -200h-25l-3 172h-553v732h30v-704h449v704h31z" />
    <glyph glyph-name="uni0427" unicode="&#x427;" horiz-adv-x="621" 
d="M491 732h30v-732h-30v395q-23 -65 -79.5 -101.5t-134.5 -36.5q-100 0 -161 58.5t-61 176.5v240h30v-234q0 -106 52 -159.5t141 -53.5q90 0 151.5 55t61.5 173v219z" />
    <glyph glyph-name="uni0428" unicode="&#x428;" horiz-adv-x="992" 
d="M512 28h350v704h31v-732h-793v732h30v-704h351v704h31v-704z" />
    <glyph glyph-name="uni0429" unicode="&#x429;" horiz-adv-x="1011" 
d="M862 732h31v-704h73l-4 -200h-25l-3 172h-834v732h30v-704h351v704h31v-704h350v704z" />
    <glyph glyph-name="uni042A" unicode="&#x42a;" horiz-adv-x="732" 
d="M443 403q126 0 189 -54t63 -147t-63 -147.5t-189 -54.5h-210v704h-215v28h246v-329h179zM436 28q114 0 170.5 48t56.5 126q0 79 -56 126t-171 47h-172v-347h172z" />
    <glyph glyph-name="uni042B" unicode="&#x42b;" horiz-adv-x="826" 
d="M309 403q126 0 189.5 -54t63.5 -147t-63.5 -147.5t-189.5 -54.5h-209v732h30v-329h179zM726 0h-31v732h31v-732zM302 28q115 0 171 48t56 126q0 79 -56 126t-171 47h-172v-347h172z" />
    <glyph glyph-name="uni042C" unicode="&#x42c;" horiz-adv-x="599" 
d="M309 403q126 0 189.5 -54t63.5 -147t-63.5 -147.5t-189.5 -54.5h-209v732h30v-329h179zM302 28q115 0 171 48t56 126q0 79 -56 126t-171 47h-172v-347h172z" />
    <glyph glyph-name="uni042D" unicode="&#x42d;" horiz-adv-x="620" 
d="M420.5 695.5q67.5 -46.5 102.5 -131.5t35 -197t-35 -197t-102.5 -132t-161.5 -47q-88 0 -148.5 39.5t-84.5 103.5l24 15q22 -58 76 -93.5t133 -35.5q84 0 143.5 42.5t90.5 119.5t32 177h-345v28h345q-5 149 -74 237.5t-192 88.5q-79 0 -133 -35.5t-76 -93.5l-24 15
q24 64 84.5 103.5t148.5 39.5q94 0 161.5 -46.5z" />
    <glyph glyph-name="uni042E" unicode="&#x42e;" horiz-adv-x="950" 
d="M747.5 697.5q66.5 -44.5 104 -129t37.5 -201.5t-38 -202t-104.5 -129.5t-151.5 -44.5q-89 0 -155 45.5t-102.5 130.5t-36.5 200h-171v-367h-30v732h30v-337h171q5 109 43.5 187t103.5 119t147 41q86 0 152.5 -44.5zM731.5 61q59.5 42 92.5 120.5t33 185.5t-33 185
t-92 119.5t-137 41.5t-137 -41.5t-92 -119.5t-33 -185t33 -186t92 -120.5t137 -41.5q77 0 136.5 42z" />
    <glyph glyph-name="uni042F" unicode="&#x42f;" horiz-adv-x="581" 
d="M243 337q-80 17 -126.5 67.5t-46.5 125.5q0 62 32 108t88.5 70t129.5 24h162v-732h-31v328h-131q-22 0 -45 3l-231 -331h-38zM324 704q-100 0 -161 -46t-61 -128t61 -128t161 -46h127v348h-127z" />
    <glyph glyph-name="uni0430" unicode="&#x430;" horiz-adv-x="534" 
d="M401 483q50 -48 50 -145v-338h-25q0 67 -1 96q-21 -48 -67 -76.5t-109 -28.5q-76 0 -128.5 41t-52.5 115q0 75 61.5 116.5t160.5 41.5q63 0 132 -18v47q0 87 -41 128t-107 41q-53 0 -93 -24t-59 -66l-24 13q19 48 67.5 76.5t109.5 28.5q76 0 126 -48zM422 262
q-73 19 -132 19q-85 0 -138 -35t-53 -99q0 -61 43.5 -95t107.5 -34q73 0 122.5 43t49.5 117v84z" />
    <glyph glyph-name="uni0431" unicode="&#x431;" horiz-adv-x="578" 
d="M411 498.5q49 -32.5 77 -93t28 -143.5t-27.5 -144.5t-77.5 -94t-115 -32.5q-103 0 -168.5 83.5t-65.5 260.5q0 102 20.5 198t75.5 152q40 40 89.5 52t120.5 15q39 1 64 4.5t43 13.5v-28q-16 -10 -39.5 -13t-60.5 -4q-68 -3 -115 -14t-83 -47q-82 -82 -86 -316
q19 83 75 133t134 50q62 0 111 -32.5zM434 84.5q50 66.5 50 176.5q0 72 -23 127t-65.5 85t-99.5 30q-59 0 -104 -32.5t-69 -87.5t-24 -121t23.5 -121.5t68.5 -89t106 -33.5q87 0 137 66.5z" />
    <glyph glyph-name="uni0432" unicode="&#x432;" horiz-adv-x="513" 
d="M424 228q32 -34 32 -88q0 -65 -44.5 -102.5t-135.5 -37.5h-182v522h170q78 0 120.5 -38t42.5 -97q0 -43 -23.5 -73t-67.5 -42q56 -10 88 -44zM122 496v-215h141q68 0 100.5 29.5t32.5 76.5q0 49 -34 79t-102 30h-138zM271 26q81 0 117.5 31t36.5 83q0 54 -38 84.5
t-110 30.5h-155v-229h149z" />
    <glyph glyph-name="uni0433" unicode="&#x433;" horiz-adv-x="417" 
d="M94 522h311v-26h-282v-496h-29v522z" />
    <glyph glyph-name="uni0434" unicode="&#x434;" horiz-adv-x="575" 
d="M459 26h74l-4 -198h-24l-4 172h-448l-3 -172h-25l-4 198h30q40 0 63 29.5t33.5 86.5t16.5 155l14 225h281v-496zM430 26v470h-225l-12 -202q-7 -115 -22.5 -179t-49.5 -89h309z" />
    <glyph glyph-name="uni0435" unicode="&#x435;" horiz-adv-x="528" 
d="M392 500.5q45 -30.5 68.5 -82t23.5 -113.5q0 -13 -2 -37h-389q0 -77 26 -133t72 -85.5t105 -29.5q48 0 87.5 20.5t58.5 60.5l23 -13q-21 -47 -68 -72t-102 -25q-64 0 -117 33t-84.5 95.5t-31.5 146.5q0 81 30 141t81 92t113 32q61 0 106 -30.5zM153.5 448
q-52.5 -55 -59.5 -154h359q2 59 -17 106.5t-58 75t-94 27.5q-78 0 -130.5 -55z" />
    <glyph glyph-name="uni0436" unicode="&#x436;" horiz-adv-x="655" 
d="M418 275l186 247h34l-195 -259l197 -263h-37l-187 249h-74v-249h-29v249h-75l-187 -249h-36l197 263l-195 259h36l186 -247h74v247h29v-247h76z" />
    <glyph glyph-name="uni0437" unicode="&#x437;" horiz-adv-x="458" 
d="M367 228q38 -35 38 -91q0 -65 -51 -105.5t-140 -40.5q-68 0 -118.5 26t-75.5 80l23 14q47 -92 170 -92q77 0 119 32.5t42 86.5q0 57 -47 89t-125 32h-46v26h48q67 0 109 29t42 80q0 49 -40 79t-103 30q-56 0 -95.5 -24t-56.5 -69l-24 14q17 48 64 77.5t113 29.5
q76 0 124.5 -38t48.5 -98q0 -48 -31.5 -80t-82.5 -42q57 -10 95 -45z" />
    <glyph glyph-name="uni0438" unicode="&#x438;" horiz-adv-x="571" 
d="M123 522v-467l332 467h22v-522h-29v467l-332 -467h-22v522h29z" />
    <glyph glyph-name="uni0439" unicode="&#x439;" horiz-adv-x="571" 
d="M193 640.5q-36 35.5 -36 93.5h27q2 -49 30 -77t72 -28q45 0 73 28t29 77h27q0 -58 -35.5 -93.5t-93.5 -35.5q-57 0 -93 35.5zM123 522v-467l332 467h22v-522h-29v467l-332 -467h-22v522h29z" />
    <glyph glyph-name="uni043A" unicode="&#x43a;" horiz-adv-x="478" 
d="M216 275l208 247h37l-218 -259l220 -263h-39l-208 249h-93v-249h-29v522h29v-247h93z" />
    <glyph glyph-name="uni043B" unicode="&#x43b;" horiz-adv-x="542" 
d="M448 522v-522h-29v496h-261l-14 -325q-3 -64 -13 -101.5t-37.5 -58t-79.5 -20.5v28q42 0 63.5 17t29.5 49.5t10 89.5l13 347h318z" />
    <glyph glyph-name="uni043C" unicode="&#x43c;" horiz-adv-x="682" 
d="M562 522h26v-522h-29v463l-205 -352h-18l-213 354v-465h-29v522h27l225 -372z" />
    <glyph glyph-name="uni043D" unicode="&#x43d;" horiz-adv-x="566" 
d="M123 277h320v245h29v-522h-29v251h-320v-251h-29v522h29v-245z" />
    <glyph glyph-name="uni043E" unicode="&#x43e;" horiz-adv-x="584" 
d="M93.5 401q31.5 62 84 96t114.5 34t114.5 -34t84 -96t31.5 -140t-31.5 -140t-84 -96t-114.5 -34t-114.5 34t-84 96t-31.5 140t31.5 140zM120 135q27 -55 72.5 -85t99.5 -30t100 30t73 85t27 126t-27 126t-73 85.5t-100 30.5t-99.5 -30.5t-72.5 -85.5t-27 -126t27 -126z
" />
    <glyph glyph-name="uni043F" unicode="&#x43f;" horiz-adv-x="566" 
d="M94 522h378v-522h-29v496h-320v-496h-29v522z" />
    <glyph glyph-name="uni0440" unicode="&#x440;" horiz-adv-x="595" 
d="M424.5 499q49.5 -32 79 -93t29.5 -145t-29.5 -145t-79.5 -93t-109 -32q-67 0 -119.5 38.5t-72.5 108.5v-370h-29v754h25q0 -106 2 -142q21 74 73.5 112.5t120.5 38.5q60 0 109.5 -32zM408.5 47.5q43.5 28.5 69 83t25.5 130.5t-25.5 131t-69 83t-96.5 28q-48 0 -91 -24
t-70.5 -78.5t-27.5 -139.5t27.5 -139t70.5 -78.5t91 -24.5q53 0 96.5 28.5z" />
    <glyph glyph-name="uni0441" unicode="&#x441;" horiz-adv-x="483" 
d="M378 42q38 22 57 66l24 -14q-21 -51 -66.5 -77t-100.5 -26q-64 0 -116.5 34t-83 95.5t-30.5 141.5t30.5 141t83 94.5t116.5 33.5q55 0 100.5 -25.5t66.5 -76.5l-24 -14q-19 44 -57 66t-86 22q-57 0 -102.5 -29.5t-71 -84t-25.5 -127.5t25.5 -128t71 -84.5t102.5 -29.5
q48 0 86 22z" />
    <glyph glyph-name="uni0442" unicode="&#x442;" horiz-adv-x="454" 
d="M13 496v26h428v-26h-199v-496h-29v496h-200z" />
    <glyph glyph-name="uni0443" unicode="&#x443;" horiz-adv-x="472" 
d="M427 522h33l-257 -644q-25 -64 -52.5 -93t-77.5 -29q-43 0 -68 20l13 25q10 -7 25 -12.5t30 -5.5q36 0 60 25.5t47 81.5l40 102l-210 530h35l190 -490z" />
    <glyph glyph-name="uni0444" unicode="&#x444;" horiz-adv-x="706" 
d="M607 123q-37 -60 -99.5 -94t-139.5 -37v-224h-30v224q-77 3 -140 36.5t-99.5 93.5t-36.5 139q0 78 37 138.5t100 94.5t139 37v147h30v-147q76 -3 139 -37t100 -94.5t37 -138.5t-37 -138zM126 136.5q33 -53.5 89 -84t123 -33.5v483q-67 -3 -123 -33t-89 -84t-33 -124
q0 -71 33 -124.5zM368 20q67 3 123.5 33t89.5 83.5t33 124.5q0 70 -33 124t-89 84t-124 33v-482z" />
    <glyph glyph-name="uni0445" unicode="&#x445;" horiz-adv-x="455" 
d="M230 286l171 236h36l-191 -259l191 -263h-38l-172 236l-171 -236h-37l191 260l-191 262h39z" />
    <glyph glyph-name="uni0446" unicode="&#x446;" horiz-adv-x="582" 
d="M472 522v-496h72l-4 -198h-23l-4 172h-419v522h29v-496h320v496h29z" />
    <glyph glyph-name="uni0447" unicode="&#x447;" 
d="M414 522h29v-522h-29v280q-22 -48 -66 -74t-102 -26q-78 0 -126 45t-48 137v160h29v-153q0 -83 40.5 -121.5t107.5 -38.5q72 0 118.5 43t46.5 129v141z" />
    <glyph glyph-name="uni0448" unicode="&#x448;" horiz-adv-x="785" 
d="M407 26h255v496h30v-522h-598v522h29v-496h255v496h29v-496z" />
    <glyph glyph-name="uni0449" unicode="&#x449;" horiz-adv-x="801" 
d="M692 522v-496h71l-4 -198h-23l-4 172h-638v522h29v-496h255v496h29v-496h255v496h30z" />
    <glyph glyph-name="uni044A" unicode="&#x44a;" horiz-adv-x="581" 
d="M346 301q99 0 147.5 -40t48.5 -109q0 -70 -48.5 -111t-147.5 -41h-153v496h-167v26h196v-221h124zM345 26q84 0 125 33t41 93q0 123 -166 123h-123v-249h123z" />
    <glyph glyph-name="uni044B" unicode="&#x44b;" horiz-adv-x="681" 
d="M246 301q99 0 147.5 -40t48.5 -109q0 -70 -48.5 -111t-147.5 -41h-152v522h29v-221h123zM587 0h-29v522h29v-522zM245 26q85 0 125.5 33t40.5 93q0 123 -166 123h-122v-249h122z" />
    <glyph glyph-name="uni044C" unicode="&#x44c;" horiz-adv-x="481" 
d="M246 301q99 0 147.5 -40t48.5 -109q0 -70 -48.5 -111t-147.5 -41h-152v522h29v-221h123zM245 26q85 0 125.5 33t40.5 93q0 123 -166 123h-122v-249h122z" />
    <glyph glyph-name="uni044D" unicode="&#x44d;" horiz-adv-x="483" 
d="M314 497.5q51 -33.5 79 -94t28 -141.5t-28 -142.5t-79 -95t-118 -33.5q-58 0 -104.5 26t-66.5 77l23 14q18 -44 57.5 -66t90.5 -22q89 0 141 64t53 175h-238v25h238q-5 102 -57 160.5t-137 58.5q-51 0 -90.5 -22t-57.5 -66l-23 14q20 51 66.5 76.5t104.5 25.5
q67 0 118 -33.5z" />
    <glyph glyph-name="uni044E" unicode="&#x44e;" horiz-adv-x="739" 
d="M572 498q49 -33 77 -94t28 -143t-28 -143t-77 -94t-110 -33q-59 0 -107 31.5t-76.5 90.5t-29.5 138h-126v-251h-29v522h29v-246h126q3 77 31.5 135t75.5 89t106 31q61 0 110 -33zM556.5 48.5q41.5 29.5 65.5 84.5t24 128t-23.5 127.5t-65.5 84.5t-95 30
q-52 0 -93.5 -29.5t-65.5 -84.5t-24 -128t24 -128t65.5 -84.5t93.5 -29.5q53 0 94.5 29.5z" />
    <glyph glyph-name="uni044F" unicode="&#x44f;" horiz-adv-x="503" 
d="M409 522v-522h-29v234h-127q-14 0 -20 1l-170 -235h-37l175 239q-59 11 -94 47.5t-35 91.5q0 67 49.5 105.5t129.5 38.5h158zM380 259v237h-125q-70 0 -111 -30.5t-41 -87.5q0 -56 41.5 -87.5t110.5 -31.5h125z" />
    <glyph glyph-name="uni0450" unicode="&#x450;" horiz-adv-x="528" 
d="M184 740h34l80 -141h-28zM392 500.5q45 -30.5 68.5 -82t23.5 -113.5q0 -13 -2 -37h-389q0 -77 26 -133t72 -85.5t105 -29.5q48 0 87.5 20.5t58.5 60.5l23 -13q-21 -47 -68 -72t-102 -25q-64 0 -117 33t-84.5 95.5t-31.5 146.5q0 81 30 141t81 92t113 32q61 0 106 -30.5z
M153.5 448q-52.5 -55 -59.5 -154h359q2 59 -17 106.5t-58 75t-94 27.5q-78 0 -130.5 -55z" />
    <glyph glyph-name="uni0451" unicode="&#x451;" horiz-adv-x="528" 
d="M167 657q-8 8 -8 20q0 11 8 19t19 8t19.5 -8t8.5 -19q0 -12 -7.5 -20t-19.5 -8t-20 8zM355.5 657q-8.5 8 -8.5 20q0 11 8 19t19 8q12 0 20 -8t8 -19q0 -12 -7.5 -20t-19.5 -8q-11 0 -19.5 8zM392 500.5q45 -30.5 68.5 -82t23.5 -113.5q0 -13 -2 -37h-389q0 -77 26 -133
t72 -85.5t105 -29.5q48 0 87.5 20.5t58.5 60.5l23 -13q-21 -47 -68 -72t-102 -25q-64 0 -117 33t-84.5 95.5t-31.5 146.5q0 81 30 141t81 92t113 32q61 0 106 -30.5zM153.5 448q-52.5 -55 -59.5 -154h359q2 59 -17 106.5t-58 75t-94 27.5q-78 0 -130.5 -55z" />
    <glyph glyph-name="uni0452" unicode="&#x452;" horiz-adv-x="564" 
d="M431 479.5q49 -51.5 49 -146.5l1 -411q0 -88 -29 -127t-84 -39q-40 0 -63 19l12 25q20 -17 51 -17q40 0 61.5 32t21.5 109l-1 402q0 87 -41.5 132t-108.5 45q-46 0 -85.5 -21.5t-63.5 -64.5t-24 -103v-314h-29v625h-82v25h82v111h29v-111h161v-25h-161v-213
q22 56 69.5 87.5t108.5 31.5q77 0 126 -51.5z" />
    <glyph glyph-name="uni0453" unicode="&#x453;" horiz-adv-x="417" 
d="M238 597l80 142h34l-86 -142h-28zM94 522h311v-26h-282v-496h-29v522z" />
    <glyph glyph-name="uni0454" unicode="&#x454;" horiz-adv-x="483" 
d="M380 42q37 22 55 66l24 -14q-20 -51 -64.5 -77t-98.5 -26q-63 0 -116.5 34t-85.5 96t-32 141t32 140.5t85.5 95t116.5 33.5q54 0 98.5 -25.5t64.5 -76.5l-24 -14q-18 44 -55 66t-84 22q-53 0 -97.5 -26.5t-72.5 -76.5t-33 -116h238v-25h-238q1 -70 27.5 -124.5
t72.5 -84.5t103 -30q47 0 84 22z" />
    <glyph glyph-name="uni0455" unicode="&#x455;" horiz-adv-x="438" 
d="M347.5 30q-46.5 -39 -117.5 -39q-64 0 -116 32t-68 89l23 14q16 -52 60.5 -79.5t100.5 -27.5q58 0 95.5 30.5t37.5 82.5q0 38 -20 62.5t-49 38t-78 30.5q-50 17 -80 31t-50.5 39t-20.5 65q0 61 45.5 97t113.5 36q58 0 102 -27.5t59 -73.5l-23 -14q-14 41 -52 64t-87 23
q-55 0 -91 -27.5t-36 -74.5q0 -32 18 -53t44.5 -33.5t72.5 -27.5q54 -18 86 -33t54.5 -44t22.5 -76q0 -65 -46.5 -104z" />
    <glyph glyph-name="uni0456" unicode="&#x456;" horiz-adv-x="218" 
d="M90 664q-8 8 -8 20q0 11 7.5 19t18.5 8q12 0 20 -8t8 -19q0 -12 -8 -20t-19 -8t-19 8zM124 0h-29v522h29v-522z" />
    <glyph glyph-name="uni0457" unicode="&#x457;" horiz-adv-x="200" 
d="M26.5 657q-8.5 8 -8.5 20q0 11 8 19t19 8t19.5 -8t8.5 -19q0 -12 -8 -20t-19 -8t-19.5 8zM135.5 657q-8.5 8 -8.5 20q0 11 8 19t19 8q12 0 20 -8t8 -19q0 -12 -8 -20t-19 -8t-19.5 8zM115 0h-29v522h29v-522z" />
    <glyph glyph-name="uni0458" unicode="&#x458;" horiz-adv-x="219" 
d="M90.5 664q-8.5 8 -8.5 20q0 11 8 19t19 8t19.5 -8t8.5 -19q0 -12 -8 -20t-19 -8t-19.5 8zM-55.5 -235q-21.5 9 -33.5 25l18 22q24 -29 65 -29q46 0 73.5 37t27.5 119v583h30v-585q0 -93 -36 -137t-95 -44q-28 0 -49.5 9z" />
    <glyph glyph-name="uni0459" unicode="&#x459;" horiz-adv-x="807" 
d="M572 301q99 0 147.5 -40t48.5 -109q0 -70 -48.5 -111t-147.5 -41h-153v496h-261l-14 -325q-3 -64 -13 -101.5t-37.5 -58t-79.5 -20.5v28q42 0 63.5 17t29.5 49.5t10 89.5l13 347h318v-221h124zM571 26q84 0 125 33t41 93q0 123 -166 123h-123v-249h123z" />
    <glyph glyph-name="uni045A" unicode="&#x45a;" horiz-adv-x="831" 
d="M596 289q99 0 147.5 -37.5t48.5 -101.5q0 -69 -48.5 -109.5t-147.5 -40.5h-153v263h-320v-263h-29v522h29v-233h320v233h29v-233h124zM595 26q84 0 125 33t41 91q0 113 -166 113h-123v-237h123z" />
    <glyph glyph-name="uni045B" unicode="&#x45b;" horiz-adv-x="562" 
d="M431 479.5q49 -51.5 49 -146.5v-333h-30v326q0 87 -41.5 132t-108.5 45q-46 0 -85.5 -21.5t-63.5 -64.5t-24 -103v-314h-29v625h-82v25h82v111h29v-111h161v-25h-161v-213q22 56 69.5 87.5t108.5 31.5q77 0 126 -51.5z" />
    <glyph glyph-name="uni045C" unicode="&#x45c;" horiz-adv-x="478" 
d="M256 599l80 141h34l-86 -141h-28zM216 275l208 247h37l-218 -259l220 -263h-39l-208 249h-93v-249h-29v522h29v-247h93z" />
    <glyph glyph-name="uni045D" unicode="&#x45d;" horiz-adv-x="571" 
d="M190 740h34l79 -141h-27zM123 522v-467l332 467h22v-522h-29v467l-332 -467h-22v522h29z" />
    <glyph glyph-name="uni045E" unicode="&#x45e;" horiz-adv-x="472" 
d="M146 638.5q-36 35.5 -36 94.5h28q1 -49 29 -77.5t72 -28.5q45 0 73 28.5t29 77.5h27q0 -59 -35.5 -94.5t-93.5 -35.5q-57 0 -93 35.5zM427 522h33l-257 -644q-25 -64 -52.5 -93t-77.5 -29q-43 0 -68 20l13 25q10 -7 25 -12.5t30 -5.5q36 0 60 25.5t47 81.5l40 102
l-210 530h35l190 -490z" />
    <glyph glyph-name="uni045F" unicode="&#x45f;" horiz-adv-x="566" 
d="M123 26h320v496h29v-522h-174l-3 -172h-24l-3 172h-174v522h29v-496z" />
    <glyph glyph-name="uni0462" unicode="&#x462;" horiz-adv-x="682" 
d="M392 403q126 0 189.5 -54t63.5 -147t-63.5 -147.5t-189.5 -54.5h-209v580h-169v28h169v124h30v-124h220v-28h-220v-177h179zM385 28q115 0 171 48t56 126q0 79 -56 126t-171 47h-172v-347h172z" />
    <glyph glyph-name="uni0463" unicode="&#x463;" horiz-adv-x="513" 
d="M278 301q99 0 147.5 -40t48.5 -109q0 -70 -48.5 -111t-147.5 -41h-153v496h-118v26h118v239h30v-239h185v-26h-185v-195h123zM277 26q84 0 125 33t41 93q0 123 -166 123h-122v-249h122z" />
    <glyph glyph-name="uni046B" unicode="&#x46b;" horiz-adv-x="605" 
d="M373 281q93 0 141 -73.5t48 -207.5h-29q0 121 -42 188.5t-123 67.5h-51v-256h-29v256h-51q-81 0 -123 -67.5t-42 -188.5h-29q0 134 48 207.5t140 73.5h41l-185 241h431l-185 -241h40zM465 496h-325l163 -211z" />
    <glyph glyph-name="uni0472" unicode="&#x472;" horiz-adv-x="744" 
d="M531.5 694.5q70.5 -47.5 110.5 -132.5t40 -195t-40 -195.5t-110.5 -133t-159.5 -47.5t-159.5 47t-110.5 132.5t-40 196.5q0 110 40 195t110.5 132.5t159.5 47.5t159.5 -47.5zM232 672q-62 -41 -98 -114.5t-39 -168.5h555q-4 95 -40 168.5t-98 114.5t-140 41t-140 -41z
M515.5 62.5q63.5 43.5 99 121.5t36.5 177h-556q0 -99 35.5 -177t98.5 -121.5t143 -43.5t143.5 43.5z" />
    <glyph glyph-name="uni0473" unicode="&#x473;" horiz-adv-x="584" 
d="M406.5 497q52.5 -34 84 -96t31.5 -140t-31.5 -140t-84 -96t-114.5 -34t-114.5 34t-84 96t-31.5 140t31.5 140t84 96t114.5 34t114.5 -34zM198 476q-44 -27 -72 -76.5t-32 -113.5h396q-4 64 -31.5 113t-71.5 76.5t-95 27.5q-50 0 -94 -27zM393 49.5q45 30.5 71.5 85.5
t26.5 125h-398q1 -71 27.5 -125.5t71.5 -85t100 -30.5q56 0 101 30.5z" />
    <glyph glyph-name="uni0474" unicode="&#x474;" horiz-adv-x="671" 
d="M713 714l-14 -24q-22 23 -50 23q-21 0 -35 -15t-30 -56l-254 -642h-25l-286 732h35l265 -686l235 605q20 52 41 71.5t53 19.5q37 0 65 -28z" />
    <glyph glyph-name="uni0475" unicode="&#x475;" horiz-adv-x="500" 
d="M538 502l-13 -24q-22 25 -48 25q-18 0 -31.5 -15t-29.5 -56l-168 -432h-23l-213 522h34l193 -479l150 398q19 52 38.5 71t49.5 19q41 0 61 -29z" />
    <glyph glyph-name="uni0490" unicode="&#x490;" horiz-adv-x="512" 
d="M100 732h365l18 151h25l-14 -179h-364v-704h-30v732z" />
    <glyph glyph-name="uni0491" unicode="&#x491;" horiz-adv-x="428" 
d="M94 522h293l13 125h24l-7 -151h-294v-496h-29v522z" />
    <glyph glyph-name="uni0492" unicode="&#x492;" horiz-adv-x="514" 
d="M100 732h396v-28h-365v-320h150v-28h-150v-356h-31v356h-97v28h97v348z" />
    <glyph glyph-name="uni0493" unicode="&#x493;" horiz-adv-x="436" 
d="M107 522h322v-26h-292v-218h151v-25h-151v-253h-30v253h-97v25h97v244z" />
    <glyph glyph-name="uni0497" unicode="&#x497;" horiz-adv-x="655" 
d="M638 522l-195 -259l178 -237h24l-4 -198h-25l-3 172h-10l-187 249h-74v-249h-29v249h-75l-187 -249h-36l197 263l-195 259h36l186 -247h74v247h29v-247h76l186 247h34z" />
    <glyph glyph-name="uni049A" unicode="&#x49a;" horiz-adv-x="588" 
d="M556 732l-280 -362l268 -342h28l-4 -200h-25l-3 172h-16l-274 355h-120v-355h-30v732h30v-349h122l267 349h37z" />
    <glyph glyph-name="uni049B" unicode="&#x49b;" horiz-adv-x="477" 
d="M461 522l-218 -259l199 -237h23l-4 -198h-24l-4 172h-9l-208 249h-93v-249h-29v522h29v-247h93l208 247h37z" />
    <glyph glyph-name="uni049C" unicode="&#x49c;" horiz-adv-x="600" 
d="M338 370l240 -370h-39l-228 355h-62v-152h-29v152h-90v-355h-30v732h30v-349h90v153h29v-153h63l221 349h35z" />
    <glyph glyph-name="uni049D" unicode="&#x49d;" horiz-adv-x="473" 
d="M244 275l176 247h36l-184 -259l186 -263h-38l-176 249h-35v-113h-25v113h-61v-249h-29v522h29v-247h61v113h25v-113h35z" />
    <glyph glyph-name="uni04A2" unicode="&#x4a2;" horiz-adv-x="730" 
d="M613 732v-704h30l-4 -200h-24l-4 172h-29v367h-452v-367h-30v732h30v-337h452v337h31z" />
    <glyph glyph-name="uni04A3" unicode="&#x4a3;" horiz-adv-x="583" 
d="M472 522v-496h30l-3 -198h-25l-3 172h-28v251h-320v-251h-29v522h29v-245h320v245h29z" />
    <glyph glyph-name="uni04AE" unicode="&#x4ae;" horiz-adv-x="577" 
d="M298 353l227 379h33l-246 -411v-321h-30v322l-263 410h37z" />
    <glyph glyph-name="uni04AF" unicode="&#x4af;" horiz-adv-x="474" 
d="M245 42l185 480h33l-205 -512v-242h-30v239l-216 515h34z" />
    <glyph glyph-name="uni04B0" unicode="&#x4b0;" horiz-adv-x="577" 
d="M298 353l227 379h33l-231 -386h174v-28h-189v-318h-30v318h-190v28h174l-247 386h37z" />
    <glyph glyph-name="uni04B1" unicode="&#x4b1;" horiz-adv-x="474" 
d="M245 40l185 482h33l-199 -496h150v-26h-156v-232h-30v232h-156v26h148l-208 496h34z" />
    <glyph glyph-name="uni04B2" unicode="&#x4b2;" horiz-adv-x="619" 
d="M593 732l-267 -360l255 -344h27l-4 -200h-25l-3 172h-12l-255 349l-256 -349h-35l275 371l-266 361h36l247 -337l248 337h35z" />
    <glyph glyph-name="uni04B3" unicode="&#x4b3;" horiz-adv-x="455" 
d="M437 522l-192 -260l173 -236h27l-4 -198h-24l-4 172h-12l-173 238l-172 -238h-37l191 261l-191 261h37l172 -237l173 237h36z" />
    <glyph glyph-name="uni04B8" unicode="&#x4b8;" horiz-adv-x="621" 
d="M491 732h30v-732h-30v394q-19 -59 -64.5 -94t-114.5 -41v-151h-28v149q-111 1 -170 61.5t-59 173.5v240h30v-234q0 -104 51 -158t148 -55v161h28v-159q80 7 129.5 62t49.5 164v219z" />
    <glyph glyph-name="uni04B9" unicode="&#x4b9;" horiz-adv-x="538" 
d="M416 522h29v-522h-29v280q-18 -42 -53.5 -66.5t-83.5 -31.5v-110h-28v108q-87 1 -133 47.5t-46 134.5v160h29v-153q0 -78 37.5 -118.5t112.5 -41.5v137h28v-136q62 9 99.5 51.5t37.5 119.5v141z" />
    <glyph glyph-name="uni04BA" unicode="&#x4ba;" horiz-adv-x="621" 
d="M130 0h-30v732h30v-395q23 65 79.5 101.5t134.5 36.5q100 0 161 -58.5t61 -176.5v-240h-30v234q0 106 -52 159.5t-141 53.5q-90 0 -151.5 -55t-61.5 -173v-219z" />
    <glyph glyph-name="uni04BB" unicode="&#x4bb;" horiz-adv-x="558" 
d="M426.5 479.5q48.5 -51.5 48.5 -146.5v-333h-29v326q0 87 -41.5 132t-108.5 45q-47 0 -86.5 -21.5t-63 -64.5t-23.5 -103v-314h-29v761h29v-349q22 56 69.5 87.5t108.5 31.5q77 0 125.5 -51.5z" />
    <glyph glyph-name="uni04CA" unicode="&#x4ca;" horiz-adv-x="583" 
d="M472 522v-496h30l-64 -198h-24l49 172h-20v251h-320v-251h-29v522h29v-245h320v245h29z" />
    <glyph glyph-name="uni04D8" unicode="&#x4d8;" horiz-adv-x="682" 
d="M481.5 696.5q66.5 -45.5 102.5 -130.5t36 -203q0 -116 -35 -200t-99 -128t-149 -44t-147.5 42.5t-95.5 114.5t-33 158q0 27 3 52h524q-1 173 -69.5 264t-193.5 91q-74 0 -130 -33t-88 -99l-23 15q33 72 97.5 109t144.5 37q89 0 155.5 -45.5zM513.5 99.5
q66.5 80.5 73.5 229.5h-494q-1 -9 -1 -27q0 -79 29.5 -143.5t85 -102t130.5 -37.5q110 0 176.5 80.5z" />
    <glyph glyph-name="uni04D9" unicode="&#x4d9;" horiz-adv-x="524" 
d="M346 498q53 -33 84.5 -95.5t31.5 -146.5q0 -81 -30 -141t-81 -92t-113 -32q-61 0 -106 30.5t-68.5 82.5t-23.5 114q0 11 2 37h389q0 77 -26 133t-72 85.5t-105 29.5q-49 0 -87.5 -20.5t-58.5 -61.5l-23 14q21 47 67.5 71.5t102.5 24.5q64 0 117 -33zM370.5 75
q52.5 55 59.5 154h-359q-3 -59 16.5 -106.5t58.5 -75t94 -27.5q78 0 130.5 55z" />
    <glyph glyph-name="uni04E8" unicode="&#x4e8;" horiz-adv-x="744" 
d="M531.5 694.5q70.5 -47.5 110.5 -132.5t40 -195t-40 -195.5t-110.5 -133t-159.5 -47.5t-159.5 47t-110.5 132.5t-40 196.5q0 110 40 195t110.5 132.5t159.5 47.5t159.5 -47.5zM232 672q-62 -41 -98 -114.5t-39 -168.5h555q-4 95 -40 168.5t-98 114.5t-140 41t-140 -41z
M515.5 62.5q63.5 43.5 99 121.5t36.5 177h-556q0 -99 35.5 -177t98.5 -121.5t143 -43.5t143.5 43.5z" />
    <glyph glyph-name="uni04E9" unicode="&#x4e9;" horiz-adv-x="584" 
d="M406.5 497q52.5 -34 84 -96t31.5 -140t-31.5 -140t-84 -96t-114.5 -34t-114.5 34t-84 96t-31.5 140t31.5 140t84 96t114.5 34t114.5 -34zM198 476q-44 -27 -72 -76.5t-32 -113.5h396q-4 64 -31.5 113t-71.5 76.5t-95 27.5q-50 0 -94 -27zM393 49.5q45 30.5 71.5 85.5
t26.5 125h-398q1 -71 27.5 -125.5t71.5 -85t100 -30.5q56 0 101 30.5z" />
    <glyph glyph-name="uni1E00" unicode="&#x1e00;" horiz-adv-x="634" 
d="M327 732l288 -732h-34l-97 250h-337l-96 -250h-32l282 732h26zM473 278l-159 409l-157 -409h316zM267.5 -70.5q23.5 22.5 57.5 22.5q32 0 54.5 -22.5t22.5 -57.5t-22.5 -57.5t-54.5 -22.5q-34 0 -57.5 22.5t-23.5 57.5t23.5 57.5zM284 -169.5q16 -16.5 41 -16.5
q23 0 38.5 16.5t15.5 41.5q0 26 -15 42t-39 16q-25 0 -41 -16t-16 -42q0 -25 16 -41.5z" />
    <glyph glyph-name="uni1E01" unicode="&#x1e01;" horiz-adv-x="534" 
d="M401 483q50 -48 50 -145v-338h-25q0 67 -1 96q-21 -48 -67 -76.5t-109 -28.5q-76 0 -128.5 41t-52.5 115q0 75 61.5 116.5t160.5 41.5q63 0 132 -18v47q0 87 -41 128t-107 41q-53 0 -93 -24t-59 -66l-24 13q19 48 67.5 76.5t109.5 28.5q76 0 126 -48zM422 262
q-73 19 -132 19q-85 0 -138 -35t-53 -99q0 -61 43.5 -95t107.5 -34q73 0 122.5 43t49.5 117v84zM337.5 -70.5q22.5 -22.5 22.5 -57.5t-22.5 -57.5t-54.5 -22.5q-34 0 -57.5 22.5t-23.5 57.5t23.5 57.5t57.5 22.5q32 0 54.5 -22.5zM321.5 -169.5q15.5 16.5 15.5 41.5
q0 26 -15 42t-39 16q-25 0 -41 -16t-16 -42q0 -25 16 -41.5t41 -16.5q23 0 38.5 16.5z" />
    <glyph glyph-name="uni1E3E" unicode="&#x1e3e;" horiz-adv-x="840" 
d="M412 806l84 122h33l-90 -122h-27zM714 732h26v-732h-29v672l-281 -440h-19l-282 441v-673h-29v732h27l294 -461z" />
    <glyph glyph-name="uni1E3F" unicode="&#x1e3f;" horiz-adv-x="830" 
d="M403 599l80 141h34l-86 -141h-28zM703.5 480q43.5 -51 43.5 -147v-333h-29v326q0 87 -36.5 132t-95.5 45q-41 0 -75 -21.5t-54.5 -64.5t-20.5 -103v-314h-29v326q0 87 -37 132t-95 45q-41 0 -75.5 -21.5t-55.5 -64.5t-21 -103v-314h-29v522h25q0 -83 2 -113
q19 57 61.5 89.5t97.5 32.5t95.5 -34.5t53.5 -100.5q17 63 61 99t102 36q68 0 111.5 -51z" />
    <glyph glyph-name="Wgrave" unicode="&#x1e80;" horiz-adv-x="942" 
d="M364 928h33l84 -122h-27zM486 732l207 -687l199 687h31l-219 -740h-26l-206 681l-202 -681h-26l-225 740h34l205 -687l200 687h28z" />
    <glyph glyph-name="wgrave" unicode="&#x1e81;" horiz-adv-x="742" 
d="M285 740h34l79 -141h-27zM384 522l164 -470l154 470h27l-171 -522h-21l-165 468l-154 -468h-20l-185 522h32l163 -470l153 470h23z" />
    <glyph glyph-name="Wacute" unicode="&#x1e82;" horiz-adv-x="942" 
d="M464 806l83 122h34l-91 -122h-26zM486 732l207 -687l199 687h31l-219 -740h-26l-206 681l-202 -681h-26l-225 740h34l205 -687l200 687h28z" />
    <glyph glyph-name="wacute" unicode="&#x1e83;" horiz-adv-x="742" 
d="M364 599l79 141h34l-86 -141h-27zM384 522l164 -470l154 470h27l-171 -522h-21l-165 468l-154 -468h-20l-185 522h32l163 -470l153 470h23z" />
    <glyph glyph-name="Wdieresis" unicode="&#x1e84;" horiz-adv-x="942" 
d="M359 861.5q-8 7.5 -8 19.5q0 10 8 17.5t19 7.5t19 -7.5t8 -17.5q0 -12 -7.5 -19.5t-19.5 -7.5q-11 0 -19 7.5zM547 861.5q-8 7.5 -8 19.5q0 10 8 17.5t19 7.5t19.5 -7.5t8.5 -17.5q0 -12 -8 -19.5t-19 -7.5q-12 0 -20 7.5zM486 732l207 -687l199 687h31l-219 -740h-26
l-206 681l-202 -681h-26l-225 740h34l205 -687l200 687h28z" />
    <glyph glyph-name="wdieresis" unicode="&#x1e85;" horiz-adv-x="742" 
d="M267.5 657q-8.5 8 -8.5 20q0 11 8 19t19 8q12 0 20 -8t8 -19q0 -12 -8 -20t-19 -8t-19.5 8zM456 657q-8 8 -8 20q0 11 8 19t19 8t19 -8t8 -19q0 -12 -7.5 -20t-19.5 -8q-11 0 -19 8zM384 522l164 -470l154 470h27l-171 -522h-21l-165 468l-154 -468h-20l-185 522h32
l163 -470l153 470h23z" />
    <glyph glyph-name="uni1EA0" unicode="&#x1ea0;" horiz-adv-x="634" 
d="M327 732l288 -732h-34l-97 250h-337l-96 -250h-32l282 732h26zM473 278l-159 409l-157 -409h316zM305 -146.5q-8 8.5 -8 19.5t8 19t20 8q11 0 19 -8t8 -19t-8 -19.5t-19 -8.5q-12 0 -20 8.5z" />
    <glyph glyph-name="uni1EA1" unicode="&#x1ea1;" horiz-adv-x="534" 
d="M401 483q50 -48 50 -145v-338h-25q0 67 -1 96q-21 -48 -67 -76.5t-109 -28.5q-76 0 -128.5 41t-52.5 115q0 75 61.5 116.5t160.5 41.5q63 0 132 -18v47q0 87 -41 128t-107 41q-53 0 -93 -24t-59 -66l-24 13q19 48 67.5 76.5t109.5 28.5q76 0 126 -48zM422 262
q-73 19 -132 19q-85 0 -138 -35t-53 -99q0 -61 43.5 -95t107.5 -34q73 0 122.5 43t49.5 117v84zM302 -108q8 -8 8 -19t-8 -19.5t-19 -8.5q-12 0 -20 8.5t-8 19.5t8 19t20 8q11 0 19 -8z" />
    <glyph glyph-name="uni1EA2" unicode="&#x1ea2;" horiz-adv-x="634" 
d="M234 914q30 14 67 14q40 0 66.5 -16.5t26.5 -45.5q0 -51 -86 -73l-12 15q71 18 71 57q0 21 -19 33t-49 12q-34 0 -60 -13zM327 732l288 -732h-34l-97 250h-337l-96 -250h-32l282 732h26zM473 278l-159 409l-157 -409h316z" />
    <glyph glyph-name="uni1EA3" unicode="&#x1ea3;" horiz-adv-x="534" 
d="M195 719l-5 21q30 19 67 19q39 0 66 -21.5t27 -58.5q0 -65 -86 -94l-12 20q35 12 53 29t18 43q0 27 -18.5 42.5t-49.5 15.5q-33 0 -60 -16zM401 483q50 -48 50 -145v-338h-25q0 67 -1 96q-21 -48 -67 -76.5t-109 -28.5q-76 0 -128.5 41t-52.5 115q0 75 61.5 116.5
t160.5 41.5q63 0 132 -18v47q0 87 -41 128t-107 41q-53 0 -93 -24t-59 -66l-24 13q19 48 67.5 76.5t109.5 28.5q76 0 126 -48zM422 262q-73 19 -132 19q-85 0 -138 -35t-53 -99q0 -61 43.5 -95t107.5 -34q73 0 122.5 43t49.5 117v84z" />
    <glyph glyph-name="uni1EA4" unicode="&#x1ea4;" horiz-adv-x="634" 
d="M406 864l82 64h35l-87 -64h-30zM303 850h25l111 -64h-40l-83 48l-84 -48h-40zM327 732l288 -732h-34l-97 250h-337l-96 -250h-32l282 732h26zM473 278l-159 409l-157 -409h316z" />
    <glyph glyph-name="uni1EA5" unicode="&#x1ea5;" horiz-adv-x="534" 
d="M430 891h34l-85 -128h-27zM355 599l-86 117l-87 -117h-31l106 141h24l105 -141h-31zM401 483q50 -48 50 -145v-338h-25q0 67 -1 96q-21 -48 -67 -76.5t-109 -28.5q-76 0 -128.5 41t-52.5 115q0 75 61.5 116.5t160.5 41.5q63 0 132 -18v47q0 87 -41 128t-107 41
q-53 0 -93 -24t-59 -66l-24 13q19 48 67.5 76.5t109.5 28.5q76 0 126 -48zM422 262q-73 19 -132 19q-85 0 -138 -35t-53 -99q0 -61 43.5 -95t107.5 -34q73 0 122.5 43t49.5 117v84z" />
    <glyph glyph-name="uni1EA6" unicode="&#x1ea6;" horiz-adv-x="634" 
d="M307 928h35l81 -64h-29zM303 850h25l111 -64h-40l-83 48l-84 -48h-40zM327 732l288 -732h-34l-97 250h-337l-96 -250h-32l282 732h26zM473 278l-159 409l-157 -409h316z" />
    <glyph glyph-name="uni1EA7" unicode="&#x1ea7;" horiz-adv-x="534" 
d="M309 891l78 -128h-28l-84 128h34zM355 599l-86 117l-87 -117h-31l106 141h24l105 -141h-31zM401 483q50 -48 50 -145v-338h-25q0 67 -1 96q-21 -48 -67 -76.5t-109 -28.5q-76 0 -128.5 41t-52.5 115q0 75 61.5 116.5t160.5 41.5q63 0 132 -18v47q0 87 -41 128t-107 41
q-53 0 -93 -24t-59 -66l-24 13q19 48 67.5 76.5t109.5 28.5q76 0 126 -48zM422 262q-73 19 -132 19q-85 0 -138 -35t-53 -99q0 -61 43.5 -95t107.5 -34q73 0 122.5 43t49.5 117v84z" />
    <glyph glyph-name="uni1EA8" unicode="&#x1ea8;" horiz-adv-x="634" 
d="M340 921q29 8 67 8q39 0 65.5 -9.5t26.5 -26.5q0 -16 -24 -26.5t-62 -16.5l-11 13q72 8 72 29q0 10 -19 15.5t-50 5.5q-37 0 -60 -7zM303 852h25l111 -66h-40l-83 50l-84 -50h-40zM327 732l288 -732h-34l-97 250h-337l-96 -250h-32l282 732h26zM473 278l-159 409
l-157 -409h316z" />
    <glyph glyph-name="uni1EA9" unicode="&#x1ea9;" horiz-adv-x="534" 
d="M294 860l-5 23q29 20 68 20q38 0 64.5 -21t26.5 -58q0 -65 -86 -94l-11 20q35 11 53 28t18 44t-18.5 42.5t-48.5 15.5q-32 0 -61 -20zM355 599l-86 117l-87 -117h-31l106 141h24l105 -141h-31zM401 483q50 -48 50 -145v-338h-25q0 67 -1 96q-21 -48 -67 -76.5t-109 -28.5
q-76 0 -128.5 41t-52.5 115q0 75 61.5 116.5t160.5 41.5q63 0 132 -18v47q0 87 -41 128t-107 41q-53 0 -93 -24t-59 -66l-24 13q19 48 67.5 76.5t109.5 28.5q76 0 126 -48zM422 262q-73 19 -132 19q-85 0 -138 -35t-53 -99q0 -61 43.5 -95t107.5 -34q73 0 122.5 43t49.5 117
v84z" />
    <glyph glyph-name="uni1EAA" unicode="&#x1eaa;" horiz-adv-x="634" 
d="M183 877q2 22 22 36.5t56 14.5q23 0 37.5 -5.5t32.5 -15.5q14 -8 26 -12.5t28 -4.5q43 0 51 34h26q-2 -21 -22 -36t-55 -15q-24 0 -38.5 5.5t-32.5 15.5q-14 8 -26 12.5t-28 4.5q-43 0 -51 -34h-26zM303 855h25l111 -69h-40l-83 51l-84 -51h-40zM327 732l288 -732h-34
l-97 250h-337l-96 -250h-32l282 732h26zM473 278l-159 409l-157 -409h316z" />
    <glyph glyph-name="uni1EAB" unicode="&#x1eab;" horiz-adv-x="534" 
d="M174.5 841.5q-12.5 -19.5 -16.5 -54.5h-26q2 42 22.5 70.5t55.5 28.5q23 0 37.5 -11.5t32.5 -34.5q15 -19 26.5 -28.5t27.5 -9.5q43 0 51 74h26q-2 -43 -22 -71.5t-55 -28.5q-24 0 -39 12t-32 35q-15 19 -26.5 28.5t-27.5 9.5q-22 0 -34.5 -19.5zM153 599l106 141h24
l106 -141h-31l-87 117l-87 -117h-31zM401 483q50 -48 50 -145v-338h-25q0 67 -1 96q-21 -48 -67 -76.5t-109 -28.5q-76 0 -128.5 41t-52.5 115q0 75 61.5 116.5t160.5 41.5q63 0 132 -18v47q0 87 -41 128t-107 41q-53 0 -93 -24t-59 -66l-24 13q19 48 67.5 76.5t109.5 28.5
q76 0 126 -48zM422 262q-73 19 -132 19q-85 0 -138 -35t-53 -99q0 -61 43.5 -95t107.5 -34q73 0 122.5 43t49.5 117v84z" />
    <glyph glyph-name="uni1EAC" unicode="&#x1eac;" horiz-adv-x="634" 
d="M303 928h25l111 -122h-32l-91 103l-92 -103h-32zM327 732l288 -732h-34l-97 250h-337l-96 -250h-32l282 732h26zM473 278l-159 409l-157 -409h316zM305 -146.5q-8 8.5 -8 19.5t8 19t20 8q11 0 19 -8t8 -19t-8 -19.5t-19 -8.5q-12 0 -20 8.5z" />
    <glyph glyph-name="uni1EAD" unicode="&#x1ead;" horiz-adv-x="534" 
d="M358 599l-86 117l-88 -117h-31l106 141h24l106 -141h-31zM401 483q50 -48 50 -145v-338h-25q0 67 -1 96q-21 -48 -67 -76.5t-109 -28.5q-76 0 -128.5 41t-52.5 115q0 75 61.5 116.5t160.5 41.5q63 0 132 -18v47q0 87 -41 128t-107 41q-53 0 -93 -24t-59 -66l-24 13
q19 48 67.5 76.5t109.5 28.5q76 0 126 -48zM422 262q-73 19 -132 19q-85 0 -138 -35t-53 -99q0 -61 43.5 -95t107.5 -34q73 0 122.5 43t49.5 117v84zM302 -108q8 -8 8 -19t-8 -19.5t-19 -8.5q-12 0 -20 8.5t-8 19.5t8 19t20 8q11 0 19 -8z" />
    <glyph glyph-name="uni1EAE" unicode="&#x1eae;" horiz-adv-x="634" 
d="M307 866l82 62h35l-87 -62h-30zM223.5 803q-35.5 17 -35.5 45h27q1 -21 29 -33t72 -12q45 0 72.5 12t29.5 33h27q0 -28 -35 -45t-94 -17q-57 0 -92.5 17zM327 732l288 -732h-34l-97 250h-337l-96 -250h-32l282 732h26zM473 278l-159 409l-157 -409h316z" />
    <glyph glyph-name="uni1EAF" unicode="&#x1eaf;" horiz-adv-x="534" 
d="M333 891h34l-85 -128h-27zM179 640q-36 36 -36 94h28q1 -49 29 -77t72 -28q45 0 73 28t29 77h27q0 -58 -35.5 -94t-93.5 -36q-57 0 -93 36zM401 483q50 -48 50 -145v-338h-25q0 67 -1 96q-21 -48 -67 -76.5t-109 -28.5q-76 0 -128.5 41t-52.5 115q0 75 61.5 116.5
t160.5 41.5q63 0 132 -18v47q0 87 -41 128t-107 41q-53 0 -93 -24t-59 -66l-24 13q19 48 67.5 76.5t109.5 28.5q76 0 126 -48zM422 262q-73 19 -132 19q-85 0 -138 -35t-53 -99q0 -61 43.5 -95t107.5 -34q73 0 122.5 43t49.5 117v84z" />
    <glyph glyph-name="uni1EB0" unicode="&#x1eb0;" horiz-adv-x="634" 
d="M208 928h35l81 -62h-29zM223.5 803q-35.5 17 -35.5 45h27q1 -21 29 -33t72 -12q45 0 72.5 12t29.5 33h27q0 -28 -35 -45t-94 -17q-57 0 -92.5 17zM327 732l288 -732h-34l-97 250h-337l-96 -250h-32l282 732h26zM473 278l-159 409l-157 -409h316z" />
    <glyph glyph-name="uni1EB1" unicode="&#x1eb1;" horiz-adv-x="534" 
d="M211 891l78 -128h-27l-85 128h34zM179 640q-36 36 -36 94h28q1 -49 29 -77t72 -28q45 0 73 28t29 77h27q0 -58 -35.5 -94t-93.5 -36q-57 0 -93 36zM401 483q50 -48 50 -145v-338h-25q0 67 -1 96q-21 -48 -67 -76.5t-109 -28.5q-76 0 -128.5 41t-52.5 115q0 75 61.5 116.5
t160.5 41.5q63 0 132 -18v47q0 87 -41 128t-107 41q-53 0 -93 -24t-59 -66l-24 13q19 48 67.5 76.5t109.5 28.5q76 0 126 -48zM422 262q-73 19 -132 19q-85 0 -138 -35t-53 -99q0 -61 43.5 -95t107.5 -34q73 0 122.5 43t49.5 117v84z" />
    <glyph glyph-name="uni1EB2" unicode="&#x1eb2;" horiz-adv-x="634" 
d="M241 920q29 8 67 8q39 0 65.5 -9t26.5 -25q0 -26 -86 -41l-11 13q72 8 72 27q0 10 -19 15t-50 5q-36 0 -60 -6zM223.5 803q-35.5 17 -35.5 45h27q1 -21 29 -33t72 -12q45 0 72.5 12t29.5 33h27q0 -28 -35.5 -45t-93.5 -17q-57 0 -92.5 17zM327 732l288 -732h-34l-97 250
h-337l-96 -250h-32l282 732h26zM473 278l-159 409l-157 -409h316z" />
    <glyph glyph-name="uni1EB3" unicode="&#x1eb3;" horiz-adv-x="534" 
d="M195 882l-5 21q31 18 67 18q40 0 66.5 -21t26.5 -58q0 -64 -86 -93l-12 19q35 12 53 29t18 43q0 27 -18.5 42.5t-49.5 15.5q-33 0 -60 -16zM179 639.5q-36 35.5 -36 93.5h28q1 -48 29 -76.5t72 -28.5q45 0 73 28t29 77h27q0 -58 -35.5 -93.5t-93.5 -35.5q-57 0 -93 35.5z
M401 483q50 -48 50 -145v-338h-25q0 67 -1 96q-21 -48 -67 -76.5t-109 -28.5q-76 0 -128.5 41t-52.5 115q0 75 61.5 116.5t160.5 41.5q63 0 132 -18v47q0 87 -41 128t-107 41q-53 0 -93 -24t-59 -66l-24 13q19 48 67.5 76.5t109.5 28.5q76 0 126 -48zM422 262
q-73 19 -132 19q-85 0 -138 -35t-53 -99q0 -61 43.5 -95t107.5 -34q73 0 122.5 43t49.5 117v84z" />
    <glyph glyph-name="uni1EB4" unicode="&#x1eb4;" horiz-adv-x="634" 
d="M177 879q2 21 22 35t55 14q23 0 38 -5t32 -15q15 -8 26.5 -12t27.5 -4q43 0 51 32h26q-2 -20 -22 -34t-55 -14q-23 0 -38 5t-32 15q-15 8 -26.5 12t-27.5 4q-44 0 -51 -33h-26zM223.5 804q-35.5 18 -35.5 47h27q1 -22 29 -35t72 -13q45 0 72.5 13t29.5 35h27
q0 -29 -35.5 -47t-93.5 -18q-57 0 -92.5 18zM327 732l288 -732h-34l-97 250h-337l-96 -250h-32l282 732h26zM473 278l-159 409l-157 -409h316z" />
    <glyph glyph-name="uni1EB5" unicode="&#x1eb5;" horiz-adv-x="534" 
d="M175 841.5q-13 -19.5 -16 -54.5h-26q2 42 22 70.5t55 28.5q23 0 37.5 -11.5t32.5 -34.5q15 -19 26.5 -28.5t27.5 -9.5q43 0 51 74h26q-2 -43 -22 -71.5t-55 -28.5q-23 0 -37.5 11.5t-32.5 34.5q-14 19 -26 29t-28 10q-22 0 -35 -19.5zM345 657q28 28 29 77h27
q0 -58 -35.5 -94t-93.5 -36q-57 0 -93 36t-36 94h28q1 -49 29 -77t72 -28q45 0 73 28zM401 483q50 -48 50 -145v-338h-25q0 67 -1 96q-21 -48 -67 -76.5t-109 -28.5q-76 0 -128.5 41t-52.5 115q0 75 61.5 116.5t160.5 41.5q63 0 132 -18v47q0 87 -41 128t-107 41
q-53 0 -93 -24t-59 -66l-24 13q19 48 67.5 76.5t109.5 28.5q76 0 126 -48zM422 262q-73 19 -132 19q-85 0 -138 -35t-53 -99q0 -61 43.5 -95t107.5 -34q73 0 122.5 43t49.5 117v84z" />
    <glyph glyph-name="uni1EB6" unicode="&#x1eb6;" horiz-adv-x="634" 
d="M223.5 839.5q-35.5 33.5 -35.5 88.5h27q1 -47 29 -74t72 -27q45 0 72.5 27t29.5 74h27q0 -55 -35 -88.5t-94 -33.5q-57 0 -92.5 33.5zM327 732l288 -732h-34l-97 250h-337l-96 -250h-32l282 732h26zM473 278l-159 409l-157 -409h316zM305 -146.5q-8 8.5 -8 19.5t8 19
t20 8q11 0 19 -8t8 -19t-8 -19.5t-19 -8.5q-12 0 -20 8.5z" />
    <glyph glyph-name="uni1EB7" unicode="&#x1eb7;" horiz-adv-x="534" 
d="M179 640q-36 36 -36 94h28q1 -49 29 -77t72 -28q45 0 73 28t29 77h27q0 -58 -35.5 -94t-93.5 -36q-57 0 -93 36zM401 483q50 -48 50 -145v-338h-25q0 67 -1 96q-21 -48 -67 -76.5t-109 -28.5q-76 0 -128.5 41t-52.5 115q0 75 61.5 116.5t160.5 41.5q63 0 132 -18v47
q0 87 -41 128t-107 41q-53 0 -93 -24t-59 -66l-24 13q19 48 67.5 76.5t109.5 28.5q76 0 126 -48zM422 262q-73 19 -132 19q-85 0 -138 -35t-53 -99q0 -61 43.5 -95t107.5 -34q73 0 122.5 43t49.5 117v84zM302 -108q8 -8 8 -19t-8 -19.5t-19 -8.5q-12 0 -20 8.5t-8 19.5t8 19
t20 8q11 0 19 -8z" />
    <glyph glyph-name="uni1EB8" unicode="&#x1eb8;" horiz-adv-x="562" 
d="M461 366h-331v-338h376v-28h-406v732h395v-28h-365v-310h331v-28zM276 -146.5q-8 8.5 -8 19.5t8 19t19 8t19 -8t8 -19t-8 -19.5t-19 -8.5t-19 8.5z" />
    <glyph glyph-name="uni1EB9" unicode="&#x1eb9;" horiz-adv-x="528" 
d="M392 500.5q45 -30.5 68.5 -82t23.5 -113.5q0 -13 -2 -37h-389q0 -77 26 -133t72 -85.5t105 -29.5q48 0 87.5 20.5t58.5 60.5l23 -13q-21 -47 -68 -72t-102 -25q-64 0 -117 33t-84.5 95.5t-31.5 146.5q0 81 30 141t81 92t113 32q61 0 106 -30.5zM153.5 448
q-52.5 -55 -59.5 -154h359q2 59 -17 106.5t-58 75t-94 27.5q-78 0 -130.5 -55zM275.5 -146.5q-8.5 8.5 -8.5 19.5t8.5 19t19.5 8t19 -8t8 -19t-8 -19.5t-19 -8.5t-19.5 8.5z" />
    <glyph glyph-name="uni1EBA" unicode="&#x1eba;" horiz-adv-x="562" 
d="M214 914q28 14 67 14t65.5 -16.5t26.5 -45.5q0 -51 -86 -73l-12 14q35 10 53.5 23.5t18.5 34.5t-19 33t-50 12q-33 0 -59 -13zM461 366h-331v-338h376v-28h-406v732h395v-28h-365v-310h331v-28z" />
    <glyph glyph-name="uni1EBB" unicode="&#x1ebb;" horiz-adv-x="528" 
d="M199 740q28 19 67 19t65.5 -21.5t26.5 -58.5q0 -65 -86 -94l-12 20q35 12 53.5 29t18.5 43q0 27 -18.5 42.5t-49.5 15.5q-33 0 -60 -16zM392 500.5q45 -30.5 68.5 -82t23.5 -113.5q0 -13 -2 -37h-389q0 -77 26 -133t72 -85.5t105 -29.5q48 0 87.5 20.5t58.5 60.5l23 -13
q-21 -47 -68 -72t-102 -25q-64 0 -117 33t-84.5 95.5t-31.5 146.5q0 81 30 141t81 92t113 32q61 0 106 -30.5zM153.5 448q-52.5 -55 -59.5 -154h359q2 59 -17 106.5t-58 75t-94 27.5q-78 0 -130.5 -55z" />
    <glyph glyph-name="uni1EBC" unicode="&#x1ebc;" horiz-adv-x="562" 
d="M156 826q2 39 22 66t55 27q24 0 38.5 -10.5t32.5 -31.5q14 -17 26 -26t28 -9q43 0 51 69h26q-2 -39 -22.5 -66t-55.5 -27q-23 0 -37.5 10.5t-32.5 31.5q-14 17 -26 26t-28 9q-43 0 -51 -69h-26zM461 366h-331v-338h376v-28h-406v732h395v-28h-365v-310h331v-28z" />
    <glyph glyph-name="uni1EBD" unicode="&#x1ebd;" horiz-adv-x="528" 
d="M141 622q2 43 22 71.5t56 28.5q23 0 37.5 -11.5t32.5 -34.5q14 -19 26 -29t28 -10q43 0 51 74h26q-2 -42 -22 -70.5t-55 -28.5q-24 0 -38.5 11.5t-32.5 34.5q-14 19 -26 28.5t-28 9.5q-43 0 -51 -74h-26zM392 500.5q45 -30.5 68.5 -82t23.5 -113.5q0 -13 -2 -37h-389
q0 -77 26 -133t72 -85.5t105 -29.5q48 0 87.5 20.5t58.5 60.5l23 -13q-21 -47 -68 -72t-102 -25q-64 0 -117 33t-84.5 95.5t-31.5 146.5q0 81 30 141t81 92t113 32q61 0 106 -30.5zM153.5 448q-52.5 -55 -59.5 -154h359q2 59 -17 106.5t-58 75t-94 27.5q-78 0 -130.5 -55z
" />
    <glyph glyph-name="uni1EBE" unicode="&#x1ebe;" horiz-adv-x="562" 
d="M386 864l81 64h36l-88 -64h-29zM283 850h24l111 -64h-40l-83 48l-83 -48h-41zM461 366h-331v-338h376v-28h-406v732h395v-28h-365v-310h331v-28z" />
    <glyph glyph-name="uni1EBF" unicode="&#x1ebf;" horiz-adv-x="528" 
d="M361 763l79 142h34l-86 -142h-27zM265 740h24l106 -141h-31l-86 117l-88 -117h-31zM392 500.5q45 -30.5 68.5 -82t23.5 -113.5q0 -13 -2 -37h-389q0 -77 26 -133t72 -85.5t105 -29.5q48 0 87.5 20.5t58.5 60.5l23 -13q-21 -47 -68 -72t-102 -25q-64 0 -117 33t-84.5 95.5
t-31.5 146.5q0 81 30 141t81 92t113 32q61 0 106 -30.5zM153.5 448q-52.5 -55 -59.5 -154h359q2 59 -17 106.5t-58 75t-94 27.5q-78 0 -130.5 -55z" />
    <glyph glyph-name="uni1EC0" unicode="&#x1ec0;" horiz-adv-x="562" 
d="M286 928h36l81 -64h-29zM283 850h24l111 -64h-40l-83 48l-83 -48h-41zM461 366h-331v-338h376v-28h-406v732h395v-28h-365v-310h331v-28z" />
    <glyph glyph-name="uni1EC1" unicode="&#x1ec1;" horiz-adv-x="528" 
d="M282 905h34l79 -142h-27zM265 740h24l106 -141h-31l-86 117l-88 -117h-31zM392 500.5q45 -30.5 68.5 -82t23.5 -113.5q0 -13 -2 -37h-389q0 -77 26 -133t72 -85.5t105 -29.5q48 0 87.5 20.5t58.5 60.5l23 -13q-21 -47 -68 -72t-102 -25q-64 0 -117 33t-84.5 95.5
t-31.5 146.5q0 81 30 141t81 92t113 32q61 0 106 -30.5zM153.5 448q-52.5 -55 -59.5 -154h359q2 59 -17 106.5t-58 75t-94 27.5q-78 0 -130.5 -55z" />
    <glyph glyph-name="uni1EC2" unicode="&#x1ec2;" horiz-adv-x="562" 
d="M319 920q30 8 67 8q39 0 66 -9.5t27 -26.5q0 -29 -86 -42l-12 12q72 10 72 29q0 10 -19 15.5t-49 5.5q-40 0 -60 -6zM283 852h24l111 -66h-40l-83 50l-83 -50h-41zM461 366h-331v-338h376v-28h-406v732h395v-28h-365v-310h331v-28z" />
    <glyph glyph-name="uni1EC3" unicode="&#x1ec3;" horiz-adv-x="528" 
d="M298 883q28 20 68 20q38 0 64.5 -21t26.5 -58q0 -65 -86 -94l-12 20q35 11 53.5 28.5t18.5 43.5q0 27 -18.5 42.5t-49.5 15.5t-60 -20zM265 740h24l106 -141h-31l-86 117l-88 -117h-31zM392 500.5q45 -30.5 68.5 -82t23.5 -113.5q0 -13 -2 -37h-389q0 -77 26 -133
t72 -85.5t105 -29.5q48 0 87.5 20.5t58.5 60.5l23 -13q-21 -47 -68 -72t-102 -25q-64 0 -117 33t-84.5 95.5t-31.5 146.5q0 81 30 141t81 92t113 32q61 0 106 -30.5zM153.5 448q-52.5 -55 -59.5 -154h359q2 59 -17 106.5t-58 75t-94 27.5q-78 0 -130.5 -55z" />
    <glyph glyph-name="uni1EC4" unicode="&#x1ec4;" horiz-adv-x="562" 
d="M163 877q2 22 22 36.5t55 14.5q23 0 37.5 -5.5t32.5 -15.5q14 -8 26 -12.5t28 -4.5q44 0 52 34h25q-2 -21 -22 -36t-55 -15q-23 0 -37.5 5.5t-32.5 15.5q-14 8 -26 12.5t-28 4.5q-43 0 -51 -34h-26zM283 855h24l112 -69h-41l-82 51l-84 -51h-40zM461 366h-331v-338h376
v-28h-406v732h395v-28h-365v-310h331v-28z" />
    <glyph glyph-name="uni1EC5" unicode="&#x1ec5;" horiz-adv-x="528" 
d="M183.5 841.5q-12.5 -19.5 -16.5 -54.5h-26q2 42 22 70.5t55 28.5q23 0 37.5 -11.5t32.5 -34.5q15 -19 26.5 -28.5t27.5 -9.5q44 0 52 74h25q-2 -42 -22 -71t-55 -29q-23 0 -37.5 11.5t-32.5 34.5q-14 19 -26 29t-28 10q-22 0 -34.5 -19.5zM268 740h24l105 -141h-31
l-86 117l-87 -117h-31zM392 500.5q45 -30.5 68.5 -82t23.5 -113.5q0 -13 -2 -37h-389q0 -77 26 -133t72 -85.5t105 -29.5q48 0 87.5 20.5t58.5 60.5l23 -13q-21 -47 -68 -72t-102 -25q-64 0 -117 33t-84.5 95.5t-31.5 146.5q0 81 30 141t81 92t113 32q61 0 106 -30.5z
M153.5 448q-52.5 -55 -59.5 -154h359q2 59 -17 106.5t-58 75t-94 27.5q-78 0 -130.5 -55z" />
    <glyph glyph-name="uni1EC6" unicode="&#x1ec6;" horiz-adv-x="562" 
d="M283 928h24l111 -122h-31l-92 103l-92 -103h-32zM461 366h-331v-338h376v-28h-406v732h395v-28h-365v-310h331v-28zM276 -146.5q-8 8.5 -8 19.5t8 19t19 8t19 -8t8 -19t-8 -19.5t-19 -8.5t-19 8.5z" />
    <glyph glyph-name="uni1EC7" unicode="&#x1ec7;" horiz-adv-x="528" 
d="M268 740h24l106 -141h-31l-87 117l-87 -117h-31zM392 500.5q45 -30.5 68.5 -82t23.5 -113.5q0 -13 -2 -37h-389q0 -77 26 -133t72 -85.5t105 -29.5q48 0 87.5 20.5t58.5 60.5l23 -13q-21 -47 -68 -72t-102 -25q-64 0 -117 33t-84.5 95.5t-31.5 146.5q0 81 30 141t81 92
t113 32q61 0 106 -30.5zM153.5 448q-52.5 -55 -59.5 -154h359q2 59 -17 106.5t-58 75t-94 27.5q-78 0 -130.5 -55zM275.5 -146.5q-8.5 8.5 -8.5 19.5t8.5 19t19.5 8t19 -8t8 -19t-8 -19.5t-19 -8.5t-19.5 8.5z" />
    <glyph glyph-name="uni1EC8" unicode="&#x1ec8;" horiz-adv-x="230" 
d="M34 914q28 14 67 14t65.5 -16.5t26.5 -45.5q0 -51 -86 -73l-12 14q35 10 53.5 23.5t18.5 34.5t-19 33t-50 12q-33 0 -59 -13zM130 0h-30v732h30v-732z" />
    <glyph glyph-name="uni1EC9" unicode="&#x1ec9;" horiz-adv-x="216" 
d="M27 741q29 18 67 18q39 0 65.5 -21.5t26.5 -58.5q0 -34 -23.5 -57.5t-62.5 -35.5l-12 19q35 12 53.5 29t18.5 43q0 27 -19 43t-50 16t-59 -17zM94 0v522h28v-522h-28z" />
    <glyph glyph-name="uni1ECA" unicode="&#x1eca;" horiz-adv-x="230" 
d="M130 0h-30v732h30v-732zM96 -146.5q-8 8.5 -8 19.5t8 19t19 8t19 -8t8 -19t-8 -19.5t-19 -8.5t-19 8.5z" />
    <glyph glyph-name="uni1ECB" unicode="&#x1ecb;" horiz-adv-x="218" 
d="M90 664q-8 8 -8 20q0 11 7.5 19t18.5 8q12 0 20 -8t8 -19q0 -12 -8 -20t-19 -8t-19 8zM124 0h-29v522h29v-522zM89 -146.5q-8 8.5 -8 19.5t8 19t19 8t19 -8t8 -19t-8 -19.5t-19 -8.5t-19 8.5z" />
    </font>
</defs>
</svg>
