<?xml version="1.0" standalone="no"?>
<!DOCTYPE svg PUBLIC "-//W3C//DTD SVG 1.1//EN" "http://www.w3.org/Graphics/SVG/1.1/DTD/svg11.dtd" >
<svg xmlns="http://www.w3.org/2000/svg" xmlns:xlink="http://www.w3.org/1999/xlink" version="1.1">
<metadata>
Created by FontForge 20170731 at Fri May 28 14:22:29 2021
 By Aleksey,,,
Copyright 2021 Huawei Device Co., Ltd. All Rights Reserved.
</metadata>
<defs>
<font id="HarmonyOS_Sans_Medium" horiz-adv-x="580" >
  <font-face 
    font-family="HarmonyOS Sans Medium"
    font-weight="500"
    font-stretch="normal"
    units-per-em="1000"
    panose-1="0 0 6 0 0 0 0 0 0 0"
    ascent="800"
    descent="-200"
    x-height="518"
    cap-height="732"
    bbox="-556 -244 1417 928"
    underline-thickness="50"
    underline-position="-150"
    unicode-range="U+0020-30FB"
  />
<missing-glyph horiz-adv-x="1000" 
 />
    <glyph glyph-name="f_b.liga" unicode="fb" horiz-adv-x="961" 
d="M106 562q0 109 48.5 160t125.5 51q44 0 76 -15v-94q-28 15 -63 15q-41 0 -62.5 -27t-21.5 -95v-38h130v-87h-130v-432h-103v432h-90v87h90v43zM800.5 498.5q52.5 -32.5 84.5 -94t32 -144.5q0 -84 -31.5 -145.5t-84 -93.5t-113.5 -32q-52 0 -98 24t-74 72q-4 -39 -6 -85
h-91v761h103v-318q28 44 72 66t94 22q60 0 112.5 -32.5zM772 128.5q39 47.5 39 131.5q0 83 -38.5 129.5t-102.5 46.5q-61 0 -104.5 -43t-43.5 -133q0 -91 43.5 -135t104.5 -44q63 0 102 47.5z" />
    <glyph glyph-name="f_f.liga" unicode="ff" horiz-adv-x="689" 
d="M561.5 652q-20.5 -27 -20.5 -93v-40h135v-87h-135v-432h-103v432h-229v-432h-103v432h-90v87h90v43q0 108 50 159.5t128 51.5q36 0 64.5 -10t44.5 -26l-40 -78q-27 20 -63 20q-40 0 -60.5 -27.5t-20.5 -94.5v-38h229v43q0 108 50 159.5t128 51.5q36 0 65 -10t46 -26
l-40 -78q-29 20 -65 20q-40 0 -60.5 -27z" />
    <glyph glyph-name="f_f_b.liga" unicode="ffb" horiz-adv-x="1293" 
d="M438 562q0 109 48.5 160t125.5 51q44 0 76 -15v-94q-28 15 -63 15q-41 0 -62.5 -27t-21.5 -95v-38h130v-87h-130v-432h-103v432h-229v-432h-103v432h-90v87h90v43q0 108 50 159.5t128 51.5q36 0 64.5 -10t44.5 -26l-40 -78q-27 20 -63 20q-40 0 -60.5 -27.5t-20.5 -94.5
v-38h229v43zM1132.5 498.5q52.5 -32.5 84.5 -94t32 -144.5q0 -84 -31.5 -145.5t-84 -93.5t-113.5 -32q-52 0 -98 24t-74 72q-4 -39 -6 -85h-91v761h103v-318q28 44 72 66t94 22q60 0 112.5 -32.5zM1104 128.5q39 47.5 39 131.5q0 83 -38.5 129.5t-102.5 46.5
q-61 0 -104.5 -43t-43.5 -133q0 -91 43.5 -135t104.5 -44q63 0 102 47.5z" />
    <glyph glyph-name="f_f_h.liga" unicode="ffh" horiz-adv-x="1266" 
d="M438 562q0 109 48.5 160t125.5 51q44 0 76 -15v-94q-28 15 -63 15q-41 0 -62.5 -27t-21.5 -95v-38h130v-87h-130v-432h-103v432h-229v-432h-103v432h-90v87h90v43q0 108 50 159.5t128 51.5q36 0 64.5 -10t44.5 -26l-40 -78q-27 20 -63 20q-40 0 -60.5 -27.5t-20.5 -94.5
v-38h229v43zM1150.5 475.5q50.5 -55.5 50.5 -158.5v-317h-102v286q0 72 -27 111t-83 39t-95.5 -39.5t-39.5 -112.5v-284h-103v761h103v-317q26 43 68.5 65t94.5 22q83 0 133.5 -55.5z" />
    <glyph glyph-name="f_f_i.liga" unicode="ffi" horiz-adv-x="928" 
d="M438 562q0 109 48.5 160t125.5 51q44 0 76 -15v-94q-28 15 -63 15q-41 0 -62.5 -27t-21.5 -95v-38h130v-87h-130v-432h-103v432h-229v-432h-103v432h-90v87h90v43q0 108 50 159.5t128 51.5q36 0 64.5 -10t44.5 -26l-40 -78q-27 20 -63 20q-40 0 -60.5 -27.5t-20.5 -94.5
v-38h229v43zM757 623q-19 20 -19 47t19 46.5t46 19.5t46 -19.5t19 -46.5t-19 -47t-46 -20t-46 20zM854 0h-103v519h103v-519z" />
    <glyph glyph-name="f_f_k.liga" unicode="ffk" horiz-adv-x="1220" 
d="M438 562q0 109 48.5 160t125.5 51q44 0 76 -15v-94q-28 15 -63 15q-41 0 -62.5 -27t-21.5 -95v-38h130v-87h-130v-432h-103v432h-229v-432h-103v432h-90v87h90v43q0 108 50 159.5t128 51.5q36 0 64.5 -10t44.5 -26l-40 -78q-27 20 -63 20q-40 0 -60.5 -27.5t-20.5 -94.5
v-38h229v43zM1201 519l-190 -213l213 -306h-127l-157 228l-86 -96v-132h-103v761h103v-500l225 258h122z" />
    <glyph glyph-name="f_f_l.liga" unicode="ffl" horiz-adv-x="927" 
d="M438 562q0 109 48.5 160t125.5 51q44 0 76 -15v-94q-28 15 -63 15q-41 0 -62.5 -27t-21.5 -95v-38h130v-87h-130v-432h-103v432h-229v-432h-103v432h-90v87h90v43q0 108 50 159.5t128 51.5q36 0 64.5 -10t44.5 -26l-40 -78q-27 20 -63 20q-40 0 -60.5 -27.5t-20.5 -94.5
v-38h229v43zM751 0v761h103v-761h-103z" />
    <glyph glyph-name="f_h.liga" unicode="fh" horiz-adv-x="934" 
d="M106 562q0 109 48.5 160t125.5 51q44 0 76 -15v-94q-28 15 -63 15q-41 0 -62.5 -27t-21.5 -94v-39h130v-87h-130v-432h-103v432h-90v87h90v43zM818.5 475.5q50.5 -55.5 50.5 -158.5v-317h-102v286q0 72 -27 111t-83 39t-95.5 -39.5t-39.5 -112.5v-284h-103v761h103v-317
q26 43 68.5 65t94.5 22q83 0 133.5 -55.5z" />
    <glyph glyph-name="f_i.liga" unicode="fi" horiz-adv-x="596" 
d="M106 562q0 109 48.5 160t125.5 51q44 0 76 -15v-94q-28 15 -63 15q-41 0 -62.5 -27t-21.5 -94v-39h130v-87h-130v-432h-103v432h-90v87h90v43zM425 623q-19 20 -19 47t19 46.5t46 19.5t46 -19.5t19 -46.5t-19 -47t-46 -20t-46 20zM522 0h-103v519h103v-519z" />
    <glyph glyph-name="f_k.liga" unicode="fk" horiz-adv-x="888" 
d="M106 562q0 109 48.5 160t125.5 51q44 0 76 -15v-94q-28 15 -63 15q-41 0 -62.5 -27t-21.5 -94v-39h130v-87h-130v-432h-103v432h-90v87h90v43zM869 519l-190 -213l213 -306h-127l-157 228l-86 -96v-132h-103v761h103v-500l225 258h122z" />
    <glyph glyph-name="f_l.liga" unicode="fl" horiz-adv-x="595" 
d="M106 562q0 109 48.5 160t125.5 51q44 0 76 -15v-94q-28 15 -63 15q-41 0 -62.5 -27t-21.5 -94v-39h130v-87h-130v-432h-103v432h-90v87h90v43zM419 0v761h103v-761h-103z" />
    <glyph glyph-name="r_f.liga" unicode="rf" horiz-adv-x="729" 
d="M602 652q-21 -27 -21 -93v-40h135v-87h-135v-432h-103v432h-89v87h89v43q0 108 50 159.5t128 51.5q36 0 65 -10t46 -26l-40 -78q-29 20 -64 20q-40 0 -61 -27zM299 531q29 0 54 -11v-97q-20 15 -54 15q-58 0 -90.5 -46t-32.5 -135v-257h-103v519h91q1 -36 5 -81
q43 93 130 93z" />
    <glyph glyph-name="r_t.liga" unicode="rt" horiz-adv-x="767" 
d="M762 21q-44 -32 -117 -32q-74 0 -120 41t-46 146v255h-85v88h85v150h103v-150h151v-88h-151v-241q0 -108 79 -108q35 0 66 19zM299 531q29 0 54 -11v-97q-20 15 -54 15q-58 0 -90.5 -46t-32.5 -135v-257h-103v519h91q1 -36 5 -81q43 93 130 93z" />
    <glyph glyph-name="r_v.liga" unicode="rv" horiz-adv-x="913" 
d="M360 520v-98q-22 16 -54 16q-59 0 -94.5 -46.5t-35.5 -134.5v-257h-103v519h91q2 -48 6 -84q44 96 136 96q29 0 54 -11zM506 519l151 -385l142 385h106l-212 -519h-83l-220 519h116z" />
    <glyph glyph-name="r_x.liga" unicode="rx" horiz-adv-x="892" 
d="M360 520v-98q-22 16 -54 16q-59 0 -94.5 -46.5t-35.5 -134.5v-257h-103v519h91q2 -48 6 -84q44 96 136 96q29 0 54 -11zM640 339l128 180h115l-189 -258l189 -261h-122l-126 180l-128 -180h-117l190 257l-190 262h124z" />
    <glyph glyph-name="r_y.liga" unicode="ry" horiz-adv-x="919" 
d="M306 531q29 0 54 -11v-98q-22 16 -54 16q-59 0 -94.5 -46.5t-35.5 -134.5v-257h-103v519h91q2 -48 6 -84q44 96 136 96zM804 519h107l-240 -605q-33 -85 -73.5 -121.5t-108.5 -36.5q-32 0 -59.5 9t-45.5 25l40 81q13 -9 30 -15t34 -6q32 0 54 21.5t48 83.5l16 38
l-218 526h116l155 -398z" />
    <glyph glyph-name=".notdef" horiz-adv-x="1000" 
 />
    <glyph glyph-name=".null" horiz-adv-x="0" 
 />
    <glyph glyph-name="nonmarkingreturn" horiz-adv-x="333" 
 />
    <glyph glyph-name="null" horiz-adv-x="600" 
 />
    <glyph glyph-name="null" horiz-adv-x="600" 
 />
    <glyph glyph-name="space" unicode=" " horiz-adv-x="270" 
 />
    <glyph glyph-name="exclam" unicode="!" horiz-adv-x="245" 
d="M83 216l-15 543h107l-15 -543h-77zM76 8.5q-19 19.5 -19 45.5q0 28 19 47.5t46 19.5t46.5 -19.5t19.5 -47.5q0 -26 -19 -45.5t-47 -19.5q-27 0 -46 19.5z" />
    <glyph glyph-name="quotedbl" unicode="&#x22;" horiz-adv-x="376" 
d="M60 540l-6 263h92l-4 -263h-82zM235 540l-5 263h92l-5 -263h-82z" />
    <glyph glyph-name="numbersign" unicode="#" horiz-adv-x="660" 
d="M545 554h102v-93h-124l-45 -192h102v-94h-124l-42 -178h-95l42 178h-150l-42 -178h-95l42 178h-103v94h125l46 192h-103v93h124l42 179h95l-42 -179h150l42 179h95zM278 462l-46 -195h152l46 195h-152z" />
    <glyph glyph-name="dollar" unicode="$" 
d="M345 402q62 -21 104.5 -44t70.5 -62t28 -98q0 -85 -54.5 -140.5t-147.5 -65.5v-134h-94v134q-85 12 -146.5 62.5t-81.5 129.5l82 49q40 -118 147 -141v238q-62 20 -104 43t-70 62.5t-28 99.5q0 88 56.5 141.5t144.5 64.5v126h94v-126q76 -12 128 -57.5t64 -105.5l-83 -50
q-12 41 -40 70t-70 41v-237zM179 477.5q26 -25.5 74 -43.5v210q-46 -8 -73 -34.5t-27 -67.5q0 -39 26 -64.5zM345 90q48 7 74 33t26 66t-26 65t-74 44v-208z" />
    <glyph glyph-name="percent" unicode="%" horiz-adv-x="798" 
d="M330.5 484.5q-22.5 -38.5 -60.5 -59.5t-84 -21t-84 21t-60.5 59.5t-22.5 89.5t22.5 89.5t60.5 59.5t84 21t84 -21t60.5 -59.5t22.5 -89.5t-22.5 -89.5zM564 733h108l-437 -733h-108zM241 636.5q-22 24.5 -55 24.5t-54.5 -24t-21.5 -63q0 -38 21.5 -62t54.5 -24t55 24
t22 62t-22 62.5zM757.5 69.5q-22.5 -38.5 -61 -59.5t-84.5 -21t-84 21t-60.5 59.5t-22.5 89.5t22.5 89.5t60.5 59.5t84 21t84.5 -21t61 -59.5t22.5 -89.5t-22.5 -89.5zM667 221q-22 24 -55 24q-32 0 -54 -24t-22 -62q0 -39 22 -62.5t54 -23.5q33 0 55 23.5t22 62.5
q0 38 -22 62z" />
    <glyph glyph-name="ampersand" unicode="&#x26;" horiz-adv-x="719" 
d="M737 0h-135l-84 93q-96 -104 -233 -104q-69 0 -124 25t-87 73.5t-32 115.5q0 84 45 136.5t123 91.5q-41 50 -58.5 86.5t-17.5 77.5q0 56 27.5 96t74 61t101.5 21q58 0 101.5 -22t67 -60.5t23.5 -86.5q0 -47 -22.5 -81.5t-58 -59t-88.5 -50.5l150 -165q38 82 49 186h103
q-21 -153 -84 -261zM256 542.5q14 -27.5 47 -66.5q58 28 87.5 56t29.5 69q0 35 -22 57t-63 22t-67 -22.5t-26 -62.5q0 -25 14 -52.5zM454 162l-186 205q-56 -32 -86 -68t-30 -90q0 -61 39.5 -93.5t100.5 -32.5q94 0 162 79z" />
    <glyph glyph-name="quotesingle" unicode="'" horiz-adv-x="201" 
d="M60 540l-6 263h92l-4 -263h-82z" />
    <glyph glyph-name="parenleft" unicode="(" horiz-adv-x="357" 
d="M112 612.5q47 119.5 129 202.5h99q-81 -98 -124.5 -210.5t-43.5 -252.5q0 -141 43.5 -254t124.5 -209h-99q-82 83 -129 202t-47 261q0 141 47 260.5z" />
    <glyph glyph-name="parenright" unicode=")" horiz-adv-x="357" 
d="M244 91q-47 -119 -129 -202h-98q81 96 124.5 209t43.5 254q0 140 -43.5 252.5t-124.5 210.5h98q82 -83 129 -202.5t47 -260.5q0 -142 -47 -261z" />
    <glyph glyph-name="asterisk" unicode="*" horiz-adv-x="440" 
d="M251 596l114 78l42 -73l-124 -60l124 -60l-42 -72l-114 78l11 -137h-84l11 137l-114 -78l-42 72l124 60l-124 60l42 73l114 -78l-11 137h84z" />
    <glyph glyph-name="plus" unicode="+" 
d="M244 603h92v-195h195v-92h-195v-195h-92v195h-195v92h195v195z" />
    <glyph glyph-name="comma" unicode="," horiz-adv-x="253" 
d="M182 94.5q21 -25.5 21 -76.5q0 -74 -40.5 -123.5t-105.5 -61.5v56q74 20 80 98q-2 -1 -8 -1q-28 0 -45.5 19.5t-17.5 47.5t18 47.5t45 19.5q32 0 53 -25.5z" />
    <glyph glyph-name="hyphen" unicode="-" horiz-adv-x="489" 
d="M61 259v86h367v-86h-367z" />
    <glyph glyph-name="period" unicode="." horiz-adv-x="242" 
d="M74.5 8q-18.5 20 -18.5 47q0 28 18.5 47.5t45.5 19.5q28 0 47 -19.5t19 -47.5q0 -27 -19.5 -47t-46.5 -20t-45.5 20z" />
    <glyph glyph-name="slash" unicode="/" horiz-adv-x="403" 
d="M14 0l274 732h101l-274 -732h-101z" />
    <glyph glyph-name="zero" unicode="0" 
d="M471.5 85q-63.5 -96 -181.5 -96q-117 0 -180.5 96t-63.5 281q0 186 63.5 282.5t180.5 96.5q118 0 181.5 -96t63.5 -283q0 -185 -63.5 -281zM192 156.5q32 -69.5 98 -69.5q67 0 98.5 69t31.5 210q0 142 -31.5 211.5t-98.5 69.5q-66 0 -98 -69.5t-32 -211.5
q0 -140 32 -209.5z" />
    <glyph glyph-name="one" unicode="1" 
d="M95 501v107l217 125h83v-733h-109v609z" />
    <glyph glyph-name="two" unicode="2" 
d="M210 95h319v-95h-479v69l231 259q63 70 87.5 110.5t24.5 87.5q0 58 -31 89.5t-80 31.5q-50 0 -88.5 -34t-55.5 -93l-86 49q23 84 89.5 130t148.5 46q62 0 111.5 -25.5t77.5 -74t28 -114.5q0 -65 -31.5 -122t-111.5 -144z" />
    <glyph glyph-name="three" unicode="3" 
d="M494.5 320q32.5 -46 32.5 -114t-32.5 -117t-87.5 -74.5t-121 -25.5q-83 0 -150.5 41.5t-92.5 121.5l86 49q19 -57 62 -86.5t94 -29.5q55 0 91.5 33.5t36.5 91.5q0 123 -174 123h-29v94h37q68 0 104 33t36 84q0 48 -30.5 76t-78.5 28q-51 0 -86.5 -30.5t-53.5 -88.5
l-85 49q25 82 86.5 124.5t145.5 42.5q64 0 113 -24.5t76 -69t27 -102.5q0 -55 -25.5 -97t-77.5 -64q64 -22 96.5 -68z" />
    <glyph glyph-name="four" unicode="4" 
d="M463 444v-194h104v-92h-104v-158h-106v158h-321v74l268 501h115l-259 -483h197v194h106z" />
    <glyph glyph-name="five" unicode="5" 
d="M415.5 440q51.5 -30 80.5 -84t29 -123q0 -73 -32 -128.5t-87.5 -85.5t-122.5 -30q-76 0 -134 37t-81 109l87 50q16 -50 48.5 -75t78.5 -25q61 0 95 40.5t34 103.5q0 61 -33.5 103t-96.5 42q-79 0 -126 -74l-72 36l50 398h358v-93h-266l-26 -196q45 25 101 25
q64 0 115.5 -30z" />
    <glyph glyph-name="six" unicode="6" 
d="M431.5 428.5q51.5 -30.5 80.5 -83.5t29 -118q0 -68 -32 -122.5t-88 -85t-124 -30.5q-70 0 -125.5 30.5t-87 85.5t-31.5 126q0 54 20 102t67 124l170 276h119l-148 -238l-31 -45q26 9 64 9q66 0 117.5 -30.5zM390.5 124.5q35.5 38.5 35.5 99.5q0 63 -35.5 101.5
t-94.5 38.5t-94.5 -39t-35.5 -101t35.5 -100t94.5 -38t94.5 38.5z" />
    <glyph glyph-name="seven" unicode="7" 
d="M402 640h-347v93h468v-67l-267 -666h-118z" />
    <glyph glyph-name="eight" unicode="8" 
d="M502 322.5q32 -49.5 32 -114.5q0 -63 -30 -113t-85 -78t-127 -28q-73 0 -129 28t-86.5 78t-30.5 113q0 66 32.5 115t89.5 75q-46 24 -71.5 63.5t-25.5 90.5q0 53 27.5 97t77.5 70t116 26q65 0 114 -25.5t75 -69.5t26 -98q0 -51 -24.5 -90.5t-68.5 -63.5q56 -26 88 -75.5z
M212 623.5q-29 -29.5 -29 -75.5t29 -75.5t80 -29.5q49 0 78.5 29.5t29.5 75.5t-29.5 75.5t-78.5 29.5q-51 0 -80 -29.5zM386.5 119.5q35.5 34.5 35.5 94.5q0 61 -35 97t-95 36q-61 0 -96.5 -36t-35.5 -97q0 -60 36 -94.5t96 -34.5q59 0 94.5 34.5z" />
    <glyph glyph-name="nine" unicode="9" 
d="M410.5 714.5q55.5 -30.5 87 -85.5t31.5 -126q0 -54 -20 -101.5t-68 -124.5l-169 -276h-119l148 238q19 30 31 45q-26 -9 -64 -9q-66 0 -118 30.5t-80.5 83t-28.5 118.5q0 68 32 122.5t88 85t124 30.5q70 0 125.5 -30.5zM380.5 409q35.5 39 35.5 101t-35.5 100t-94.5 38
t-94.5 -38.5t-35.5 -99.5q0 -63 35.5 -101.5t94.5 -38.5t94.5 39z" />
    <glyph glyph-name="colon" unicode=":" horiz-adv-x="265" 
d="M86 416.5q-19 19.5 -19 47.5t19 47.5t46 19.5q28 0 47 -19.5t19 -47.5t-19 -47.5t-47 -19.5q-27 0 -46 19.5zM86 8.5q-19 19.5 -19 46.5q0 28 19 47.5t46 19.5q28 0 47 -19.5t19 -47.5q0 -27 -19 -46.5t-47 -19.5q-27 0 -46 19.5z" />
    <glyph glyph-name="semicolon" unicode=";" horiz-adv-x="275" 
d="M96 416.5q-19 19.5 -19 47.5t19 47.5t45 19.5q28 0 47 -19.5t19 -47.5t-19 -47.5t-47 -19.5q-26 0 -45 19.5zM190 94.5q21 -25.5 21 -76.5q0 -74 -41 -123.5t-105 -61.5v56q74 20 80 98q-3 -1 -8 -1q-28 0 -45.5 19.5t-17.5 47.5t17.5 47.5t45.5 19.5q32 0 53 -25.5z" />
    <glyph glyph-name="less" unicode="&#x3c;" 
d="M531 606v-100l-344 -144l344 -144v-100l-482 200v88z" />
    <glyph glyph-name="equal" unicode="=" 
d="M531 425h-482v91h482v-91zM531 209h-482v91h482v-91z" />
    <glyph glyph-name="greater" unicode="&#x3e;" 
d="M393 362l-344 144v100l482 -200v-88l-482 -200v100z" />
    <glyph glyph-name="question" unicode="?" horiz-adv-x="450" 
d="M-8 609q27 77 91 119.5t148 42.5q61 0 108.5 -22.5t74.5 -63t27 -91.5q0 -36 -13.5 -65t-33 -50t-52.5 -50t-52.5 -50t-33 -50.5t-13.5 -66.5q0 -18 5 -46h-84q-12 39 -12 78q0 40 13.5 70.5t33 52t51.5 48.5q39 34 57.5 59t18.5 59q0 41 -29 65.5t-76 24.5
q-48 0 -85 -28t-60 -85zM169 8.5q-19 19.5 -19 45.5q0 28 19 47.5t45 19.5q28 0 47 -19.5t19 -47.5q0 -26 -19 -45.5t-47 -19.5q-26 0 -45 19.5z" />
    <glyph glyph-name="at" unicode="@" horiz-adv-x="981" 
d="M735 720q99 -53 155 -153t56 -237q0 -117 -45 -188.5t-133 -71.5q-50 0 -85.5 23.5t-50.5 70.5q-24 -47 -66 -70t-90 -23q-55 0 -102 29t-75.5 84t-28.5 131q0 75 28.5 130.5t75.5 85t102 29.5q43 0 82 -19.5t65 -58.5q3 18 5 66h81v-298q0 -96 63 -96q46 0 66 48t20 123
q0 115 -44.5 197t-123.5 124.5t-183 42.5q-108 0 -192.5 -46.5t-132 -131t-47.5 -193.5q0 -108 46.5 -191.5t130 -130t190.5 -46.5q60 0 111.5 14.5t90.5 40.5l40 -68q-41 -34 -103.5 -52.5t-138.5 -18.5q-132 0 -235 57t-161 160t-58 235q0 133 59.5 236.5t164.5 161
t238 57.5q126 0 225 -53zM578.5 198.5q37.5 36.5 37.5 116.5q0 79 -37.5 115.5t-90.5 36.5q-55 0 -87 -39.5t-32 -112.5t32 -113t87 -40q53 0 90.5 36.5z" />
    <glyph glyph-name="A" unicode="A" horiz-adv-x="683" 
d="M382 732l294 -732h-117l-75 196h-297l-72 -196h-108l283 732h92zM448 290l-116 302l-110 -302h226z" />
    <glyph glyph-name="B" unicode="B" horiz-adv-x="660" 
d="M624 208q0 -99 -69 -153.5t-199 -54.5h-272v732h242q117 0 187 -53.5t70 -146.5q0 -103 -91 -149q132 -41 132 -175zM190 638v-219h121q75 0 117 30t42 81t-42 79.5t-117 28.5h-121zM341 94q85 0 127.5 30.5t42.5 86.5t-42.5 87.5t-127.5 31.5h-151v-236h151z" />
    <glyph glyph-name="C" unicode="C" horiz-adv-x="661" 
d="M485 116q42 29 67 81l88 -52q-29 -71 -97 -113.5t-157 -42.5q-94 0 -171.5 47.5t-122.5 133.5t-45 197t45 197t122.5 133t171.5 47q89 0 157 -42.5t97 -113.5l-88 -52q-25 52 -67 81t-101 29q-65 0 -116 -34.5t-79 -98t-28 -146.5t28 -146.5t79 -98.5t116 -35
q59 0 101 29z" />
    <glyph glyph-name="D" unicode="D" horiz-adv-x="724" 
d="M298 732q107 0 193 -43t135 -126t49 -196q0 -115 -49 -197.5t-134.5 -126t-193.5 -43.5h-214v732h214zM284 94q131 0 204.5 71.5t73.5 201.5q0 129 -73.5 200.5t-204.5 71.5h-93v-545h93z" />
    <glyph glyph-name="E" unicode="E" horiz-adv-x="600" 
d="M505 329h-314v-234h362v-95h-469v733h458v-95h-351v-215h314v-94z" />
    <glyph glyph-name="F" unicode="F" horiz-adv-x="570" 
d="M84 732h458v-95h-351v-227h314v-95h-314v-315h-107v732z" />
    <glyph glyph-name="G" unicode="G" horiz-adv-x="707" 
d="M406 296v95h256v-290q-33 -49 -102.5 -80.5t-155.5 -31.5q-103 0 -184 47.5t-127 134t-46 197.5t46.5 196.5t127 132.5t178.5 47q92 0 161.5 -39.5t98.5 -107.5l-88 -51q-23 45 -69 72.5t-107 27.5q-68 0 -121.5 -34.5t-83.5 -98t-30 -145.5q0 -84 31 -147.5t88 -98.5
t132 -35q96 0 144 51v158h-149z" />
    <glyph glyph-name="H" unicode="H" horiz-adv-x="755" 
d="M191 428h373v304h107v-732h-107v332h-373v-332h-107v732h107v-304z" />
    <glyph glyph-name="I" unicode="I" horiz-adv-x="275" 
d="M191 0h-107v732h107v-732z" />
    <glyph glyph-name="J" unicode="J" horiz-adv-x="479" 
d="M69 23q-52 34 -69 105l86 48q26 -89 106 -89q54 0 78.5 39.5t24.5 115.5v490h107v-501q0 -126 -59 -184t-151 -58q-71 0 -123 34z" />
    <glyph glyph-name="K" unicode="K" horiz-adv-x="699" 
d="M377 424l318 -424h-138l-256 343l-110 -116v-227h-107v732h107v-373l340 373h138z" />
    <glyph glyph-name="L" unicode="L" horiz-adv-x="571" 
d="M84 732h107v-636h352v-96h-459v732z" />
    <glyph glyph-name="M" unicode="M" horiz-adv-x="869" 
d="M700 732h85v-732h-104v530l-216 -339h-61l-218 341v-532h-102v732h90l263 -417z" />
    <glyph glyph-name="N" unicode="N" horiz-adv-x="747" 
d="M173 732l390 -544v544h100v-732h-89l-390 545v-545h-100v732h89z" />
    <glyph glyph-name="O" unicode="O" horiz-adv-x="770" 
d="M91 566.5q44 85.5 121 131.5t172 46t172 -46t121 -131.5t44 -199.5q0 -115 -44.5 -200.5t-121 -131.5t-171.5 -46t-172 45.5t-121 131.5t-44 201q0 114 44 199.5zM188.5 220.5q27.5 -63.5 77.5 -98.5t118 -35t118.5 35t78 98.5t27.5 146.5t-27.5 146t-78.5 98t-118 35
t-117.5 -35t-78 -98t-27.5 -146t27.5 -146.5z" />
    <glyph glyph-name="P" unicode="P" horiz-adv-x="608" 
d="M318 732q78 0 139 -29t94.5 -82t33.5 -121t-33.5 -120.5t-94 -81.5t-139.5 -29h-127v-269h-107v732h234zM305 362q79 0 122.5 37.5t43.5 100.5t-43.5 101t-122.5 38h-114v-277h114z" />
    <glyph glyph-name="Q" unicode="Q" horiz-adv-x="770" 
d="M784 -157h-156l-189 150q-24 -4 -55 -4q-95 0 -172 45.5t-121 131.5t-44 201q0 114 44 199.5t121 131.5t172 46t172 -46t121 -131.5t44 -199.5q0 -116 -45 -203t-124 -132zM188.5 220.5q27.5 -63.5 77.5 -98.5t118 -35t118.5 35t78 98.5t27.5 146.5t-27.5 146t-78.5 98
t-118 35t-117.5 -35t-78 -98t-27.5 -146t27.5 -146.5z" />
    <glyph glyph-name="R" unicode="R" horiz-adv-x="656" 
d="M656 0h-130l-201 288h-8h-126v-288h-107v732h234q78 0 138.5 -28t94 -78.5t33.5 -116.5q0 -71 -39.5 -124t-108.5 -77zM191 639v-258h114q78 0 122 34t44 94t-44 95t-122 35h-114z" />
    <glyph glyph-name="S" unicode="S" horiz-adv-x="579" 
d="M522.5 90q-32.5 -49 -90 -75t-132.5 -26q-105 0 -183 49.5t-103 132.5l87 50q26 -64 77 -99t125 -35q66 0 102.5 28.5t36.5 79.5q0 41 -23.5 67.5t-58.5 41t-95 32.5q-73 22 -116 41.5t-73.5 58t-30.5 101.5q0 66 34 113t91.5 70.5t128.5 23.5q98 0 161 -43t84 -112
l-87 -51q-45 109 -162 109q-62 0 -99.5 -27.5t-37.5 -74.5q0 -35 21.5 -57t54 -35.5t88.5 -29.5q74 -22 120.5 -43t79.5 -63t33 -111q0 -67 -32.5 -116z" />
    <glyph glyph-name="T" unicode="T" horiz-adv-x="581" 
d="M11 732h559v-95h-226v-637h-108v637h-225v95z" />
    <glyph glyph-name="U" unicode="U" horiz-adv-x="740" 
d="M556 732h108v-436q0 -94 -35 -163.5t-101 -106.5t-158 -37t-158 37t-101 106.5t-35 163.5v436h108v-415q0 -113 48 -171.5t138 -58.5t138 58.5t48 171.5v415z" />
    <glyph glyph-name="V" unicode="V" horiz-adv-x="677" 
d="M127 732l221 -585l211 585h111l-280 -732h-91l-292 732h120z" />
    <glyph glyph-name="W" unicode="W" horiz-adv-x="979" 
d="M539 733l171 -556l157 555h104l-224 -732h-84l-171 538l-165 -538h-83l-236 732h113l170 -555l159 556h89z" />
    <glyph glyph-name="X" unicode="X" horiz-adv-x="677" 
d="M658 732l-258 -360l267 -372h-132l-201 285l-200 -285h-124l266 371l-258 361h132l192 -275l192 275h124z" />
    <glyph glyph-name="Y" unicode="Y" horiz-adv-x="636" 
d="M329 410l184 323h117l-253 -430v-303h-107v305l-263 428h127z" />
    <glyph glyph-name="Z" unicode="Z" horiz-adv-x="581" 
d="M546 732v-55l-375 -581h389v-96h-538v56l376 581h-345v95h493z" />
    <glyph glyph-name="bracketleft" unicode="[" horiz-adv-x="355" 
d="M84 815h252v-94h-150v-738h150v-94h-252v926z" />
    <glyph glyph-name="backslash" unicode="\" horiz-adv-x="403" 
d="M14 732h101l274 -732h-101z" />
    <glyph glyph-name="bracketright" unicode="]" horiz-adv-x="355" 
d="M19 721v94h252v-926h-252v94h150v738h-150z" />
    <glyph glyph-name="asciicircum" unicode="^" horiz-adv-x="492" 
d="M130 350h-101l170 383h93l170 -383h-100l-116 262z" />
    <glyph glyph-name="underscore" unicode="_" horiz-adv-x="436" 
d="M0 -168v86h436v-86h-436z" />
    <glyph glyph-name="grave" unicode="`" horiz-adv-x="316" 
d="M62 747h109l85 -157h-86z" />
    <glyph glyph-name="a" unicode="a" horiz-adv-x="552" 
d="M429.5 476q57.5 -55 57.5 -158v-318h-89q-2 45 -5 64q-48 -75 -154 -75q-52 0 -95.5 19t-69.5 55t-26 87q0 77 63 122t161 45q55 0 113 -15v2q0 71 -28 104.5t-84 33.5q-45 0 -75.5 -19.5t-51.5 -56.5l-76 44q25 55 81 88t128 33q93 0 150.5 -55zM385 224q-60 15 -105 15
q-60 0 -93 -23t-33 -64q0 -37 27 -58.5t71 -21.5q55 0 94 31.5t39 87.5v33z" />
    <glyph glyph-name="b" unicode="b" horiz-adv-x="614" 
d="M454.5 498.5q52.5 -32.5 84.5 -94t32 -144.5q0 -84 -32 -145.5t-84.5 -93.5t-112.5 -32q-52 0 -98 24t-74 72q-4 -39 -6 -85h-91v761h103v-318q28 44 71.5 66t94.5 22q60 0 112.5 -32.5zM425.5 128.5q38.5 47.5 38.5 131.5q0 83 -38 129.5t-102 46.5q-61 0 -104.5 -43
t-43.5 -133q0 -91 43.5 -135t104.5 -44q63 0 101.5 47.5z" />
    <glyph glyph-name="c" unicode="c" horiz-adv-x="496" 
d="M408 147l79 -46q-27 -56 -76.5 -84t-113.5 -28q-70 0 -128 33t-92 94.5t-34 143.5t34 143.5t92 94.5t128 33q64 0 113.5 -28t76.5 -84l-79 -46q-42 64 -112 64q-65 0 -105 -47.5t-40 -129.5q0 -83 40 -130.5t105 -47.5q70 0 112 65z" />
    <glyph glyph-name="d" unicode="d" horiz-adv-x="614" 
d="M439 761h102v-761h-90q-5 68 -7 85q-28 -48 -73.5 -72t-96.5 -24q-61 0 -114 32t-85 93.5t-32 145.5q0 83 32 144.5t85 94t114 32.5q49 0 92.5 -22t72.5 -65v317zM395.5 125q43.5 44 43.5 135q0 90 -43.5 133t-104.5 43q-64 0 -102.5 -46t-38.5 -130q0 -85 38.5 -132
t102.5 -47q61 0 104.5 44z" />
    <glyph glyph-name="e" unicode="e" horiz-adv-x="550" 
d="M413 499.5q51 -31.5 79 -86t28 -122.5q0 -23 -5 -55h-364q6 -78 48 -117.5t105 -39.5q82 0 119 68l77 -45q-20 -54 -76 -83.5t-125 -29.5q-71 0 -129 31.5t-92.5 93.5t-34.5 148q0 84 34.5 145t92 92.5t124.5 31.5q68 0 119 -31.5zM201.5 408.5q-37.5 -32.5 -47.5 -94.5
h258q-4 60 -37 93.5t-85 33.5q-51 0 -88.5 -32.5z" />
    <glyph glyph-name="f" unicode="f" horiz-adv-x="357" 
d="M229.5 652q-20.5 -27 -20.5 -93v-40h135v-87h-135v-432h-103v432h-90v87h90v43q0 108 50 159.5t128 51.5q36 0 65 -10t46 -26l-40 -78q-29 20 -65 20q-40 0 -60.5 -27z" />
    <glyph glyph-name="g" unicode="g" horiz-adv-x="613" 
d="M541 519v-479q0 -153 -74.5 -218.5t-178.5 -65.5q-80 0 -141.5 34t-84.5 95l81 47q39 -82 145 -82q73 0 112 44.5t39 150.5l3 35q-28 -46 -71.5 -68.5t-94.5 -22.5q-61 0 -114.5 32.5t-86 94t-32.5 144.5q0 84 32.5 145.5t86 93.5t114.5 32q51 0 96 -24t72 -72q6 58 7 84
h90zM395.5 125q43.5 44 43.5 135q0 90 -43.5 133t-104.5 43q-64 0 -102.5 -46t-38.5 -130q0 -85 38.5 -132t102.5 -47q61 0 104.5 44z" />
    <glyph glyph-name="h" unicode="h" horiz-adv-x="588" 
d="M472.5 475.5q50.5 -55.5 50.5 -158.5v-317h-103v286q0 72 -27 111t-82 39q-56 0 -95.5 -39.5t-39.5 -112.5v-284h-103v761h103v-317q26 43 68.5 65t94.5 22q83 0 133.5 -55.5z" />
    <glyph glyph-name="i" unicode="i" horiz-adv-x="250" 
d="M79 623q-19 20 -19 47t19 46.5t45 19.5q28 0 47 -19.5t19 -46.5t-19.5 -47t-46.5 -20q-26 0 -45 20zM176 0h-103v519h103v-519z" />
    <glyph glyph-name="j" unicode="j" horiz-adv-x="249" 
d="M78 623q-19 20 -19 47t19 46.5t45 19.5q28 0 47 -19.5t19 -46.5t-19.5 -47t-46.5 -20q-26 0 -45 20zM-74.5 -232q-33.5 12 -54.5 36l59 73q14 -15 28 -21.5t31 -6.5q84 0 84 123v547h103v-553q0 -72 -26 -119t-67 -69t-89 -22q-35 0 -68.5 12z" />
    <glyph glyph-name="k" unicode="k" horiz-adv-x="542" 
d="M332 306l213 -306h-126l-157 228l-86 -96v-132h-103v761h103v-500l224 258h123z" />
    <glyph glyph-name="l" unicode="l" horiz-adv-x="249" 
d="M176 0h-103v761h103v-761z" />
    <glyph glyph-name="m" unicode="m" horiz-adv-x="860" 
d="M748.5 476.5q46.5 -54.5 46.5 -156.5v-320h-100v286q0 71 -24 110.5t-72 39.5q-49 0 -81.5 -39.5t-32.5 -112.5v-284h-101v286q0 72 -23.5 111t-71.5 39q-49 0 -81.5 -40t-32.5 -112v-284h-102v519h90q1 -32 5 -78q26 45 65 67.5t86 22.5q52 0 91.5 -27.5t58.5 -80.5
q25 54 66.5 81t92.5 27q74 0 120.5 -54.5z" />
    <glyph glyph-name="n" unicode="n" horiz-adv-x="588" 
d="M473 476q50 -55 50 -159v-317h-103v286q0 72 -27 111t-82 39q-56 0 -95.5 -39.5t-39.5 -112.5v-284h-103v519h91q2 -49 6 -85q26 48 69.5 72.5t99.5 24.5q84 0 134 -55z" />
    <glyph glyph-name="o" unicode="o" horiz-adv-x="594" 
d="M78 401q35 62 93.5 96t126.5 34q67 0 125 -34t93 -96t35 -141t-35 -141t-93 -96t-125 -34q-68 0 -126.5 34t-93.5 96t-35 141t35 141zM192.5 130q41.5 -48 104.5 -48q64 0 105 48t41 130t-41.5 130t-104.5 48t-104.5 -48t-41.5 -130t41.5 -130z" />
    <glyph glyph-name="p" unicode="p" horiz-adv-x="614" 
d="M454.5 498.5q52.5 -32.5 84.5 -94t32 -144.5q0 -84 -32 -145.5t-84.5 -93.5t-112.5 -32q-50 0 -94 22t-72 66v-309h-103v751h91q2 -50 6 -85q28 48 73.5 72.5t98.5 24.5q60 0 112.5 -32.5zM426 129.5q38 46.5 38 130.5q0 83 -38.5 130.5t-101.5 47.5q-61 0 -104.5 -44
t-43.5 -134q0 -91 43.5 -134t104.5 -43q64 0 102 46.5z" />
    <glyph glyph-name="q" unicode="q" horiz-adv-x="614" 
d="M541 519v-751h-102v308q-29 -44 -73 -65.5t-92 -21.5q-61 0 -114 32t-85 93.5t-32 145.5q0 83 32 144.5t85 94t114 32.5q52 0 97.5 -24t72.5 -72q6 59 7 84h90zM395.5 126q43.5 43 43.5 134q0 90 -43.5 134t-104.5 44q-64 0 -102.5 -47t-38.5 -131t38.5 -130.5
t102.5 -46.5q61 0 104.5 43z" />
    <glyph glyph-name="r" unicode="r" horiz-adv-x="392" 
d="M358.5 524q22.5 -7 35.5 -19l-39 -81q-23 14 -51 14q-57 0 -92.5 -47t-35.5 -134v-257h-103v519h91q2 -48 6 -84q23 48 58.5 72t81.5 24q26 0 48.5 -7z" />
    <glyph glyph-name="s" unicode="s" horiz-adv-x="459" 
d="M378.5 33q-55.5 -44 -144.5 -44q-79 0 -135 34t-75 94l77 45q17 -42 51 -63.5t82 -21.5q43 0 68.5 17.5t25.5 48.5q0 24 -15.5 39.5t-39 24.5t-64.5 21q-54 15 -86.5 29t-56 41.5t-23.5 73.5q0 48 26.5 84.5t71 55.5t98.5 19q71 0 121.5 -31t67.5 -84l-77 -44
q-15 33 -44.5 51t-70.5 18q-39 0 -63 -15.5t-24 -44.5q0 -22 14.5 -35.5t36.5 -22t62 -19.5q54 -15 88.5 -30t59 -45t24.5 -79q0 -73 -55.5 -117z" />
    <glyph glyph-name="t" unicode="t" horiz-adv-x="386" 
d="M381 21q-44 -32 -117 -32q-74 0 -120.5 41t-46.5 146v255h-88v88h88v150h102v-150h153v-88h-153v-241q0 -108 80 -108q36 0 67 19z" />
    <glyph glyph-name="u" unicode="u" horiz-adv-x="589" 
d="M412 519h103v-519h-91q-2 50 -7 84q-25 -48 -69 -71.5t-98 -23.5q-84 0 -134 55t-50 159v316h102v-286q0 -71 27 -110.5t82 -39.5q56 0 95.5 40t39.5 113v283z" />
    <glyph glyph-name="v" unicode="v" horiz-adv-x="532" 
d="M124 519l151 -385l142 385h107l-213 -519h-83l-220 519h116z" />
    <glyph glyph-name="w" unicode="w" horiz-adv-x="793" 
d="M442 519l127 -368l118 368h98l-185 -519h-70l-132 359l-126 -359h-71l-193 519h107l127 -370l117 370h83z" />
    <glyph glyph-name="x" unicode="x" horiz-adv-x="511" 
d="M259 339l128 180h115l-189 -258l189 -261h-122l-126 180l-128 -180h-117l190 257l-190 262h124z" />
    <glyph glyph-name="y" unicode="y" horiz-adv-x="536" 
d="M421 519h107l-240 -605q-33 -85 -73.5 -121.5t-108.5 -36.5q-65 0 -105 34l40 81q28 -21 65 -21q32 0 53.5 21.5t47.5 83.5l17 39l-219 525h117l154 -398z" />
    <glyph glyph-name="z" unicode="z" horiz-adv-x="477" 
d="M434 518v-56l-265 -377h277v-85h-415v58l266 376h-249v84h386z" />
    <glyph glyph-name="braceleft" unicode="{" horiz-adv-x="384" 
d="M251 515q0 -72 -24 -111t-73 -52q49 -13 73 -52t24 -111v-101q0 -59 19 -82t64 -23h29v-94h-32q-94 0 -140 39t-46 142v107q0 48 -10.5 73.5t-33.5 36t-64 11.5v108q42 1 65 12t33 36.5t10 72.5v107q0 103 46 142t140 39h32v-94h-29q-45 0 -64 -23t-19 -82v-101z" />
    <glyph glyph-name="bar" unicode="|" horiz-adv-x="198" 
d="M51 -111v926h96v-926h-96z" />
    <glyph glyph-name="braceright" unicode="}" horiz-adv-x="384" 
d="M132 616q0 59 -19 82t-64 23h-28v94h31q95 0 140.5 -39t45.5 -142v-107q0 -47 10 -72.5t33 -36.5t65 -12v-108q-41 -1 -64 -11.5t-33.5 -36.5t-10.5 -73v-107q0 -103 -45.5 -142t-140.5 -39h-31v94h28q45 0 64 23t19 82v101q0 72 24 111t73 52q-49 13 -73 52t-24 111v101
z" />
    <glyph glyph-name="asciitilde" unicode="~" 
d="M54 277q2 78 39.5 130t105.5 52q39 0 62.5 -15.5t50.5 -45.5q20 -22 33.5 -32t32.5 -10q26 0 39.5 23t18.5 68h89q-1 -78 -38 -130t-105 -52q-39 0 -63.5 15.5t-51.5 45.5q-19 21 -33 31t-32 10q-26 0 -39.5 -22.5t-18.5 -67.5h-90z" />
    <glyph glyph-name="uni00A0" unicode="&#xa0;" horiz-adv-x="270" 
 />
    <glyph glyph-name="exclamdown" unicode="&#xa1;" horiz-adv-x="245" 
d="M169 519.5q19 -19.5 19 -46.5q0 -28 -19 -47.5t-46 -19.5t-46.5 19.5t-19.5 47.5q0 27 19.5 46.5t46.5 19.5t46 -19.5zM162 312l15 -544h-107l15 544h77z" />
    <glyph glyph-name="cent" unicode="&#xa2;" 
d="M370 200q70 9 102 62l78 -46q-24 -50 -70.5 -77t-109.5 -32v-107h-95v112q-97 17 -157 84t-60 170t60 170t157 84v113h95v-108q63 -5 109.5 -32t70.5 -77l-78 -46q-32 53 -102 62v-332zM193.5 262q29.5 -40 81.5 -55v318q-52 -15 -81.5 -55t-29.5 -104t29.5 -104z" />
    <glyph glyph-name="sterling" unicode="&#xa3;" 
d="M272 157.5q-21 -38.5 -56 -64.5h347v-93h-510v80q69 41 99.5 76t30.5 87q0 30 -12 66h-118v88h81q-27 63 -27 120q0 66 30.5 117.5t84.5 80.5t122 29q89 0 146.5 -46t73.5 -111l-88 -51q-18 54 -50 82t-84 28q-57 0 -90 -34t-33 -95q0 -30 7.5 -58t21.5 -62h190v-88h-157
q12 -38 12 -67q0 -46 -21 -84.5z" />
    <glyph glyph-name="currency" unicode="&#xa4;" horiz-adv-x="588" 
d="M481 245l81 -82l-64 -64l-83 81q-53 -35 -120 -35t-122 36l-82 -82l-64 63l82 83q-37 52 -37 122t37 122l-82 81l64 64l82 -81q56 35 122 35t122 -35l81 81l64 -64l-80 -82q36 -55 36 -121q0 -70 -37 -122zM385 274q37 38 37 93q0 54 -37 91.5t-91 37.5t-90.5 -37.5
t-36.5 -91.5q0 -55 36.5 -93t90.5 -38t91 38z" />
    <glyph glyph-name="yen" unicode="&#xa5;" 
d="M300 453l166 279h117l-207 -338h151v-82h-178v-69h178v-83h-178v-160h-107v160h-170v83h170v69h-170v82h142l-217 338h127z" />
    <glyph glyph-name="brokenbar" unicode="&#xa6;" horiz-adv-x="198" 
d="M51 448v367h96v-367h-96zM51 -111v367h96v-367h-96z" />
    <glyph glyph-name="section" unicode="&#xa7;" horiz-adv-x="603" 
d="M545.5 141.5q-30.5 -41.5 -85.5 -63.5q58 -48 58 -129q0 -63 -33 -106.5t-88 -65t-120 -21.5q-61 0 -111.5 21.5t-83.5 57.5t-43 79l87 52q15 -51 55 -82t100 -31q56 0 90 23t34 66q0 34 -22 57t-54.5 37t-87.5 32q-70 23 -112 42.5t-72 56t-30 94.5q0 57 30.5 98
t85.5 63q-58 48 -58 129q0 63 33 106.5t88 65t120 21.5q61 0 111.5 -21.5t83.5 -57.5t43 -79l-87 -52q-15 51 -55 82t-100 31q-56 0 -90 -23t-34 -66q0 -34 21.5 -57t53.5 -36.5t89 -32.5q69 -22 111.5 -41.5t72.5 -56t30 -94.5q0 -57 -30.5 -98.5zM430 161.5
q31 24.5 31 66.5q0 34 -21 56t-52 35.5t-85 30.5q-38 12 -49 16q-51 -3 -81.5 -27t-30.5 -67q0 -34 21 -56t52.5 -35.5t85.5 -30.5l46 -15q52 2 83 26.5z" />
    <glyph glyph-name="dieresis" unicode="&#xa8;" horiz-adv-x="118" 
d="M-91 623q-18 19 -18 46q0 26 18 45t44 19t44.5 -19t18.5 -45q0 -27 -18.5 -46t-44.5 -19t-44 19zM120 623q-18 19 -18 46q0 26 18 45t44 19t44.5 -19t18.5 -45q0 -27 -18.5 -46t-44.5 -19t-44 19z" />
    <glyph glyph-name="copyright" unicode="&#xa9;" horiz-adv-x="851" 
d="M617.5 694.5q86.5 -49.5 136 -136t49.5 -192.5t-49.5 -192t-136.5 -135.5t-193 -49.5t-192 49.5t-135.5 135.5t-49.5 192t49.5 192.5t135.5 136t192 49.5q107 0 193.5 -49.5zM576.5 106q68.5 39 107.5 107.5t39 152.5t-39 152.5t-107.5 107.5t-152.5 39t-152 -39
t-106.5 -107.5t-38.5 -152.5t39 -152.5t106.5 -107.5t151.5 -39t152.5 39zM358 460.5q-32 -35.5 -32 -94.5t32 -94.5t79 -35.5q53 0 79 47l68 -42q-18 -43 -57.5 -65.5t-89.5 -22.5q-53 0 -98.5 26.5t-73.5 75t-28 111.5t28 111.5t73.5 75t98.5 26.5q50 0 89.5 -22.5
t57.5 -65.5l-68 -42q-26 47 -79 47q-47 0 -79 -35.5z" />
    <glyph glyph-name="ordfeminine" unicode="&#xaa;" horiz-adv-x="416" 
d="M319.5 695.5q43.5 -44.5 43.5 -121.5v-229h-71q-2 28 -4 42q-36 -50 -110 -50q-59 0 -100.5 32t-41.5 88q0 57 46.5 90.5t117.5 33.5q42 0 81 -11q-1 52 -19.5 76.5t-61.5 24.5q-58 0 -88 -56l-60 34q19 42 60.5 66.5t93.5 24.5q70 0 113.5 -44.5zM253 424q28 22 28 63
v23q-39 11 -75 11q-40 0 -62 -16.5t-22 -45.5q0 -28 18 -42.5t47 -14.5q38 0 66 22z" />
    <glyph glyph-name="guillemotleft" unicode="&#xab;" horiz-adv-x="551" 
d="M204 37l-189 225l189 224h115l-189 -224l189 -225h-115zM421 37l-190 225l190 224h115l-190 -224l190 -225h-115z" />
    <glyph glyph-name="logicalnot" unicode="&#xac;" 
d="M441 156v195h-392v91h482v-286h-90z" />
    <glyph glyph-name="uni00AD" unicode="&#xad;" horiz-adv-x="489" 
d="M61 319v86h367v-86h-367z" />
    <glyph glyph-name="registered" unicode="&#xae;" horiz-adv-x="479" 
d="M62.5 642q27.5 47 74 74.5t102.5 27.5t103 -27.5t74.5 -74.5t27.5 -103t-27.5 -102.5t-74.5 -74t-103 -27.5t-102.5 27.5t-74 74t-27.5 102.5t27.5 103zM107 462.5q20 -35.5 55 -56.5t77 -21t77 20.5t55.5 56t20.5 77.5q0 43 -20.5 78t-55.5 55.5t-77 20.5q-41 0 -76 -20
t-55.5 -55t-20.5 -77q0 -43 20 -78.5zM163 430v221h89q38 0 58 -18.5t20 -49.5q0 -24 -11.5 -40.5t-32.5 -23.5l59 -89h-58l-52 85h-22v-85h-50zM243 557q18 0 27.5 6.5t9.5 18.5q0 26 -37 26h-30v-51h30z" />
    <glyph glyph-name="macron" unicode="&#xaf;" horiz-adv-x="396" 
d="M34 628v80h328v-80h-328z" />
    <glyph glyph-name="degree" unicode="&#xb0;" horiz-adv-x="318" 
d="M28 769q20 35 54.5 55.5t76.5 20.5q43 0 77.5 -20t54 -55t19.5 -78q0 -42 -19.5 -76.5t-54 -54.5t-77.5 -20q-42 0 -76.5 20t-54.5 54.5t-20 76.5t20 77zM105.5 635q20.5 -22 53.5 -22q34 0 55 22t21 57q0 36 -21 58.5t-55 22.5q-33 0 -53.5 -22.5t-20.5 -58.5
q0 -35 20.5 -57z" />
    <glyph glyph-name="plusminus" unicode="&#xb1;" 
d="M244 484v159h92v-159h195v-91h-195v-159h-92v159h-195v91h195zM49 184h482v-91h-482v91z" />
    <glyph glyph-name="uni00B2" unicode="&#xb2;" horiz-adv-x="327" 
d="M131 540h172v-65h-278v49l132 145q27 29 37.5 48t10.5 38q0 21 -11.5 34.5t-35.5 13.5t-44 -15.5t-31 -46.5l-57 33q15 45 52 70.5t85 25.5q57 0 88.5 -32.5t31.5 -78.5q0 -30 -14.5 -58t-50.5 -65z" />
    <glyph glyph-name="uni00B3" unicode="&#xb3;" horiz-adv-x="324" 
d="M298 586q0 -52 -41.5 -85.5t-101.5 -33.5q-49 0 -85 23.5t-52 66.5l58 35q10 -29 31 -44.5t48 -15.5q28 0 46.5 15.5t18.5 40.5q0 29 -23.5 43.5t-61.5 14.5h-22v57h26q31 0 50 16t19 39q0 20 -14.5 33.5t-40.5 13.5q-24 0 -44.5 -14t-31.5 -41l-54 32q14 42 50 65.5
t84 23.5q55 0 92 -30.5t37 -78.5q0 -58 -56 -86q68 -25 68 -90z" />
    <glyph glyph-name="acute" unicode="&#xb4;" horiz-adv-x="316" 
d="M62 590l85 157h109l-108 -157h-86z" />
    <glyph glyph-name="uni00B5" unicode="&#xb5;" horiz-adv-x="607" 
d="M605 4q-27 -15 -66 -15q-49 0 -75.5 23.5t-34.5 71.5q-24 -47 -64 -71t-89 -24q-62 0 -100 34v-255h-103v751h103v-286q0 -71 26.5 -110.5t81.5 -39.5q56 0 95.5 40t39.5 113v283h103v-376q0 -34 10.5 -47.5t32.5 -13.5q17 0 28 5z" />
    <glyph glyph-name="paragraph" unicode="&#xb6;" horiz-adv-x="603" 
d="M108 693.5q53 39.5 154 39.5h88v-733h-88v416q-101 0 -154 39t-53 118q0 81 53 120.5zM519 0h-88v733h88v-733z" />
    <glyph glyph-name="periodcentered" unicode="&#xb7;" horiz-adv-x="500" 
d="M204 317q-19 20 -19 47q0 28 19 47.5t46 19.5t46.5 -19.5t19.5 -47.5q0 -27 -19.5 -47t-46.5 -20t-46 20z" />
    <glyph glyph-name="cedilla" unicode="&#xb8;" horiz-adv-x="323" 
d="M112 27h80l-34 -85q48 1 80 -22t32 -65q0 -50 -39 -74.5t-99 -24.5q-33 0 -79 11v64q35 -11 73 -11q63 0 63 31q0 16 -17 25t-46 9q-23 0 -50 -6l-7 41z" />
    <glyph glyph-name="uni00B9" unicode="&#xb9;" horiz-adv-x="258" 
d="M30 739v67l105 57h58v-388h-74v312z" />
    <glyph glyph-name="ordmasculine" unicode="&#xba;" horiz-adv-x="439" 
d="M57 645q26 46 69 70.5t94 24.5q50 0 93 -24.5t69 -70.5t26 -107t-26 -106.5t-69 -70t-93 -24.5q-51 0 -94 24.5t-69 70t-26 106.5t26 107zM147.5 443q28.5 -35 72.5 -35t72 35t28 95q0 61 -28.5 96.5t-71.5 35.5q-44 0 -72.5 -35.5t-28.5 -96.5q0 -60 28.5 -95z" />
    <glyph glyph-name="guillemotright" unicode="&#xbb;" horiz-adv-x="551" 
d="M130 486l189 -224l-189 -225h-115l189 225l-189 224h115zM346 486l190 -224l-190 -225h-115l190 225l-190 224h115z" />
    <glyph glyph-name="onequarter" unicode="&#xbc;" horiz-adv-x="745" 
d="M30 609v67l105 57h58v-388h-74v313zM650 733l-492 -733h-79l492 733h79zM672 236v-88h55v-64h-55v-81h-71v81h-178v49l146 257h76l-137 -242h93v88h71z" />
    <glyph glyph-name="onehalf" unicode="&#xbd;" horiz-adv-x="774" 
d="M30 609v67l105 57h58v-388h-74v313zM650 733l-492 -733h-79l492 733h79zM578 67h172v-64h-278v48l132 145q27 29 37.5 48t10.5 38q0 21 -11.5 34.5t-35.5 13.5t-44 -15.5t-31 -46.5l-57 33q15 46 52 71.5t84 25.5q57 0 89 -33t32 -79q0 -29 -15 -57.5t-50 -65.5z" />
    <glyph glyph-name="threequarters" unicode="&#xbe;" horiz-adv-x="796" 
d="M298 456q0 -52 -41.5 -85.5t-101.5 -33.5q-49 0 -85 23.5t-52 66.5l58 35q10 -29 31 -44.5t48 -15.5q28 0 46.5 15.5t18.5 40.5q0 29 -23.5 43.5t-61.5 14.5h-22v57h26q31 0 50 16t19 39q0 20 -14.5 33.5t-40.5 13.5q-24 0 -44.5 -14t-31.5 -41l-54 32q14 42 50 65.5
t84 23.5q55 0 92 -30.5t37 -78.5q0 -58 -56 -86q68 -25 68 -90zM700 733l-492 -733h-78l492 733h78zM723 236v-88h55v-64h-55v-81h-71v81h-178v49l146 257h76l-138 -242h94v88h71z" />
    <glyph glyph-name="questiondown" unicode="&#xbf;" horiz-adv-x="450" 
d="M281 518.5q19 -19.5 19 -45.5q0 -28 -19 -47.5t-46 -19.5t-46.5 19.5t-19.5 47.5q0 26 19.5 45.5t46.5 19.5t46 -19.5zM457 -82q-27 -77 -90.5 -119.5t-147.5 -42.5q-61 0 -109 22.5t-74.5 63t-26.5 91.5q0 36 13.5 65t33 50t52.5 50t52.5 50t33 50.5t13.5 66.5
q0 18 -5 46h83q13 -42 13 -78q0 -57 -25.5 -93.5t-73.5 -77.5q-39 -35 -57.5 -59.5t-18.5 -58.5q0 -41 29 -65.5t76 -24.5q99 0 146 113z" />
    <glyph glyph-name="Agrave" unicode="&#xc0;" horiz-adv-x="683" 
d="M187 928h111l85 -121h-87zM382 732l294 -732h-117l-75 196h-297l-72 -196h-108l283 732h92zM448 290l-116 302l-110 -302h226z" />
    <glyph glyph-name="Aacute" unicode="&#xc1;" horiz-adv-x="683" 
d="M308 807l85 121h111l-109 -121h-87zM382 732l294 -732h-117l-75 196h-297l-72 -196h-108l283 732h92zM448 290l-116 302l-110 -302h226z" />
    <glyph glyph-name="Acircumflex" unicode="&#xc2;" horiz-adv-x="683" 
d="M299 928h92l125 -121h-101l-69 70l-71 -70h-101zM382 732l294 -732h-117l-75 196h-297l-72 -196h-108l283 732h92zM448 290l-116 302l-110 -302h226z" />
    <glyph glyph-name="Atilde" unicode="&#xc3;" horiz-adv-x="683" 
d="M172 820q2 48 31.5 78t77.5 30q29 0 48 -9t38 -25q12 -10 20 -14.5t18 -4.5q15 0 24 12t12 30h78q-2 -48 -31.5 -78t-77.5 -30q-29 0 -47 8.5t-38 24.5q-12 10 -20.5 15t-18.5 5q-28 0 -36 -42h-78zM382 732l294 -732h-117l-75 196h-297l-72 -196h-108l283 732h92z
M448 290l-116 302l-110 -302h226z" />
    <glyph glyph-name="Adieresis" unicode="&#xc4;" horiz-adv-x="683" 
d="M195.5 819q-18.5 19 -18.5 45t18.5 45t43.5 19q27 0 45 -18.5t18 -45.5t-18 -45.5t-45 -18.5q-25 0 -43.5 19zM407 819q-18 19 -18 45t18 45t44 19t44.5 -19t18.5 -45t-18.5 -45t-44.5 -19t-44 19zM382 732l294 -732h-117l-75 196h-297l-72 -196h-108l283 732h92z
M448 290l-116 302l-110 -302h226z" />
    <glyph glyph-name="Aring" unicode="&#xc5;" horiz-adv-x="683" 
d="M265.5 908.5q32.5 19.5 80.5 19.5q47 0 78 -19.5t31 -48.5q0 -30 -31 -49t-78 -19q-48 0 -80.5 19t-32.5 49q0 29 32.5 48.5zM310 837q14 -9 36 -9t34.5 9t12.5 23t-12.5 23t-34.5 9t-36 -9t-14 -23t14 -23zM382 732l294 -732h-117l-75 196h-297l-72 -196h-108l283 732
h92zM448 290l-116 302l-110 -302h226z" />
    <glyph glyph-name="AE" unicode="&#xc6;" horiz-adv-x="1023" 
d="M928 329h-314v-234h362v-95h-469v201h-260l-128 -201h-118l473 733h491v-95h-351v-215h314v-94zM507 295v318l-201 -318h201z" />
    <glyph glyph-name="Ccedilla" unicode="&#xc7;" horiz-adv-x="661" 
d="M485 116q42 29 67 81l88 -52q-27 -66 -87.5 -108t-141.5 -47l-20 -47q48 1 80 -22t32 -66q0 -49 -41.5 -74t-100.5 -25q-37 0 -75 11v63q35 -11 73 -11q63 0 63 32q0 33 -68 33q-20 0 -45 -3l-7 41l30 71q-81 13 -146 63.5t-102 130.5t-37 180q0 111 45 197t122.5 133
t171.5 47q89 0 157 -42.5t97 -113.5l-88 -52q-25 52 -67 81t-101 29q-65 0 -116 -34.5t-79 -98t-28 -146.5t28 -146.5t79 -98.5t116 -35q59 0 101 29z" />
    <glyph glyph-name="Egrave" unicode="&#xc8;" horiz-adv-x="600" 
d="M154 928h111l85 -121h-87zM505 329h-314v-234h362v-95h-469v733h458v-95h-351v-215h314v-94z" />
    <glyph glyph-name="Eacute" unicode="&#xc9;" horiz-adv-x="600" 
d="M275 807l85 121h111l-109 -121h-87zM505 329h-314v-234h362v-95h-469v733h458v-95h-351v-215h314v-94z" />
    <glyph glyph-name="Ecircumflex" unicode="&#xca;" horiz-adv-x="600" 
d="M266 928h92l125 -122h-101l-70 70l-70 -70h-101zM505 329h-314v-234h362v-95h-469v733h458v-95h-351v-215h314v-94z" />
    <glyph glyph-name="Edieresis" unicode="&#xcb;" horiz-adv-x="600" 
d="M162 836q-18 16 -18 38t18 38t44 16q27 0 45 -15.5t18 -38.5t-18 -38.5t-45 -15.5q-26 0 -44 16zM373 836q-18 16 -18 38t18 38t44 16q27 0 45 -15.5t18 -38.5t-18 -38.5t-45 -15.5q-26 0 -44 16zM505 329h-314v-234h362v-95h-469v733h458v-95h-351v-215h314v-94z" />
    <glyph glyph-name="Igrave" unicode="&#xcc;" horiz-adv-x="275" 
d="M-20 928h110l86 -121h-88zM191 0h-107v732h107v-732z" />
    <glyph glyph-name="Iacute" unicode="&#xcd;" horiz-adv-x="275" 
d="M100 807l86 121h110l-108 -121h-88zM191 0h-107v732h107v-732z" />
    <glyph glyph-name="Icircumflex" unicode="&#xce;" horiz-adv-x="275" 
d="M92 928h91l125 -122h-101l-69 70l-71 -70h-101zM191 0h-107v732h107v-732z" />
    <glyph glyph-name="Idieresis" unicode="&#xcf;" horiz-adv-x="275" 
d="M-12 835.5q-18 15.5 -18 38.5t18 38.5t43 15.5q27 0 45.5 -15.5t18.5 -38.5t-18.5 -38.5t-45.5 -15.5q-25 0 -43 15.5zM199 835.5q-18 15.5 -18 38.5t18 38.5t44 15.5t44.5 -15.5t18.5 -38.5q0 -22 -18.5 -38t-44.5 -16t-44 15.5zM191 0h-107v732h107v-732z" />
    <glyph glyph-name="Eth" unicode="&#xd0;" horiz-adv-x="746" 
d="M320 732q107 0 193 -43t135 -126t49 -196q0 -115 -49 -197.5t-134.5 -126t-193.5 -43.5h-214v325h-84v96h84v311h214zM306 94q131 0 204.5 71.5t73.5 201.5q0 129 -73.5 200.5t-204.5 71.5h-93v-218h134v-96h-134v-231h93z" />
    <glyph glyph-name="Ntilde" unicode="&#xd1;" horiz-adv-x="747" 
d="M200 820q2 48 31.5 78t77.5 30q29 0 47 -8.5t38 -24.5q12 -10 20.5 -15t18.5 -5q15 0 24 12t12 30h78q-2 -48 -31.5 -78t-77.5 -30q-29 0 -48 9t-38 25q-12 10 -20 14.5t-18 4.5q-28 0 -36 -42h-78zM173 732l390 -544v544h100v-732h-89l-390 545v-545h-100v732h89z" />
    <glyph glyph-name="Ograve" unicode="&#xd2;" horiz-adv-x="770" 
d="M226 928h111l85 -121h-87zM91 566.5q44 85.5 121 131.5t172 46t172 -46t121 -131.5t44 -199.5q0 -115 -44.5 -200.5t-121 -131.5t-171.5 -46t-172 45.5t-121 131.5t-44 201q0 114 44 199.5zM188.5 220.5q27.5 -63.5 77.5 -98.5t118 -35t118.5 35t78 98.5t27.5 146.5
t-27.5 146t-78.5 98t-118 35t-117.5 -35t-78 -98t-27.5 -146t27.5 -146.5z" />
    <glyph glyph-name="Oacute" unicode="&#xd3;" horiz-adv-x="770" 
d="M347 807l85 121h111l-109 -121h-87zM91 566.5q44 85.5 121 131.5t172 46t172 -46t121 -131.5t44 -199.5q0 -115 -44.5 -200.5t-121 -131.5t-171.5 -46t-172 45.5t-121 131.5t-44 201q0 114 44 199.5zM188.5 220.5q27.5 -63.5 77.5 -98.5t118 -35t118.5 35t78 98.5
t27.5 146.5t-27.5 146t-78.5 98t-118 35t-117.5 -35t-78 -98t-27.5 -146t27.5 -146.5z" />
    <glyph glyph-name="Ocircumflex" unicode="&#xd4;" horiz-adv-x="770" 
d="M338 928h92l125 -122h-101l-70 70l-70 -70h-101zM91 566.5q44 85.5 121 131.5t172 46t172 -46t121 -131.5t44 -199.5q0 -115 -44.5 -200.5t-121 -131.5t-171.5 -46t-172 45.5t-121 131.5t-44 201q0 114 44 199.5zM188.5 220.5q27.5 -63.5 77.5 -98.5t118 -35t118.5 35
t78 98.5t27.5 146.5t-27.5 146t-78.5 98t-118 35t-117.5 -35t-78 -98t-27.5 -146t27.5 -146.5z" />
    <glyph glyph-name="Otilde" unicode="&#xd5;" horiz-adv-x="770" 
d="M211 820q2 48 31.5 78t77.5 30q29 0 46.5 -8.5t38.5 -25.5q12 -10 20.5 -15t18.5 -5q15 0 24 12t12 31h78q-2 -49 -31.5 -79t-77.5 -30q-29 0 -47 9t-39 25q-11 10 -19.5 15t-18.5 5q-28 0 -36 -42h-78zM91 566.5q44 85.5 121 131.5t172 46t172 -46t121 -131.5t44 -199.5
q0 -115 -44.5 -200.5t-121 -131.5t-171.5 -46t-172 45.5t-121 131.5t-44 201q0 114 44 199.5zM188.5 220.5q27.5 -63.5 77.5 -98.5t118 -35t118.5 35t78 98.5t27.5 146.5t-27.5 146t-78.5 98t-118 35t-117.5 -35t-78 -98t-27.5 -146t27.5 -146.5z" />
    <glyph glyph-name="Odieresis" unicode="&#xd6;" horiz-adv-x="770" 
d="M234 836q-18 16 -18 38t18 38t44 16q27 0 45 -15.5t18 -38.5t-18 -38.5t-45 -15.5q-26 0 -44 16zM445 836q-18 16 -18 38t18 38t44 16q27 0 45 -15.5t18 -38.5t-18 -38.5t-45 -15.5q-26 0 -44 16zM91 566.5q44 85.5 121 131.5t172 46t172 -46t121 -131.5t44 -199.5
q0 -115 -44.5 -200.5t-121 -131.5t-171.5 -46t-172 45.5t-121 131.5t-44 201q0 114 44 199.5zM188.5 220.5q27.5 -63.5 77.5 -98.5t118 -35t118.5 35t78 98.5t27.5 146.5t-27.5 146t-78.5 98t-118 35t-117.5 -35t-78 -98t-27.5 -146t27.5 -146.5z" />
    <glyph glyph-name="multiply" unicode="&#xd7;" 
d="M135 582l155 -156l155 156l65 -65l-156 -155l156 -155l-65 -65l-155 156l-155 -156l-65 65l156 155l-156 155z" />
    <glyph glyph-name="Oslash" unicode="&#xd8;" horiz-adv-x="774" 
d="M615 767h110l-93 -132q44 -51 68.5 -119t24.5 -149q0 -111 -44.5 -197t-121.5 -133.5t-171 -47.5q-98 0 -177 51l-52 -74h-111l94 133q-44 51 -67.5 118.5t-23.5 149.5q0 111 44.5 196.5t121 133t171.5 47.5q97 0 174 -51zM206 190l299 421q-50 35 -117 35
q-68 0 -119 -35t-79 -98t-28 -146q0 -105 44 -177zM568 543l-298 -419q49 -37 118 -37q68 0 118.5 35t78 98.5t27.5 146.5q0 104 -44 176z" />
    <glyph glyph-name="Ugrave" unicode="&#xd9;" horiz-adv-x="740" 
d="M212 928h110l86 -121h-88zM556 732h108v-436q0 -94 -35 -163.5t-101 -106.5t-158 -37t-158 37t-101 106.5t-35 163.5v436h108v-415q0 -113 48 -171.5t138 -58.5t138 58.5t48 171.5v415z" />
    <glyph glyph-name="Uacute" unicode="&#xda;" horiz-adv-x="740" 
d="M332 807l86 121h110l-108 -121h-88zM556 732h108v-436q0 -94 -35 -163.5t-101 -106.5t-158 -37t-158 37t-101 106.5t-35 163.5v436h108v-415q0 -113 48 -171.5t138 -58.5t138 58.5t48 171.5v415z" />
    <glyph glyph-name="Ucircumflex" unicode="&#xdb;" horiz-adv-x="740" 
d="M324 928h91l125 -122h-101l-69 70l-71 -70h-101zM556 732h108v-436q0 -94 -35 -163.5t-101 -106.5t-158 -37t-158 37t-101 106.5t-35 163.5v436h108v-415q0 -113 48 -171.5t138 -58.5t138 58.5t48 171.5v415z" />
    <glyph glyph-name="Udieresis" unicode="&#xdc;" horiz-adv-x="740" 
d="M220 835.5q-18 15.5 -18 38.5t18 38.5t43 15.5q27 0 45.5 -15.5t18.5 -38.5t-18.5 -38.5t-45.5 -15.5q-25 0 -43 15.5zM431 835.5q-18 15.5 -18 38.5t18 38.5t44 15.5t44.5 -15.5t18.5 -38.5q0 -22 -18.5 -38t-44.5 -16t-44 15.5zM556 732h108v-436q0 -94 -35 -163.5
t-101 -106.5t-158 -37t-158 37t-101 106.5t-35 163.5v436h108v-415q0 -113 48 -171.5t138 -58.5t138 58.5t48 171.5v415z" />
    <glyph glyph-name="Yacute" unicode="&#xdd;" horiz-adv-x="636" 
d="M287 807l85 121h111l-109 -121h-87zM329 410l184 323h117l-253 -430v-303h-107v305l-263 428h127z" />
    <glyph glyph-name="Thorn" unicode="&#xde;" horiz-adv-x="608" 
d="M318 599q78 0 139 -29t94.5 -82t33.5 -121t-33.5 -120.5t-94 -81.5t-139.5 -29h-127v-136h-107v732h107v-133h127zM304 229q76 0 121 37t45 101q0 63 -44 101t-122 38h-113v-277h113z" />
    <glyph glyph-name="germandbls" unicode="&#xdf;" horiz-adv-x="602" 
d="M532 327.5q37 -48.5 37 -120.5q0 -64 -28 -113.5t-81 -77t-124 -27.5q-45 0 -87 12v95q20 -7 36 -10.5t39 -3.5q64 0 100.5 34t36.5 95q0 64 -42.5 100t-116.5 36h-41v85h19q71 0 105.5 34.5t34.5 91.5q0 55 -30 86.5t-83 31.5q-64 0 -97.5 -47.5t-33.5 -129.5v-499h-103
v504q0 85 30.5 145t83.5 91t121 31q63 0 113 -27t78 -74.5t28 -107.5q0 -57 -25 -99t-74 -67q67 -20 104 -68.5z" />
    <glyph glyph-name="agrave" unicode="&#xe0;" horiz-adv-x="552" 
d="M243 747l84 -158h-86l-107 158h109zM429.5 476q57.5 -55 57.5 -158v-318h-89q-2 45 -5 64q-48 -75 -154 -75q-52 0 -95.5 19t-69.5 55t-26 87q0 77 63 122t161 45q55 0 113 -15v2q0 71 -28 104.5t-84 33.5q-45 0 -75.5 -19.5t-51.5 -56.5l-76 44q25 55 81 88t128 33
q93 0 150.5 -55zM385 224q-60 15 -105 15q-60 0 -93 -23t-33 -64q0 -37 27 -58.5t71 -21.5q55 0 94 31.5t39 87.5v33z" />
    <glyph glyph-name="aacute" unicode="&#xe1;" horiz-adv-x="552" 
d="M312 747h109l-108 -158h-86zM429.5 476q57.5 -55 57.5 -158v-318h-89q-2 45 -5 64q-48 -75 -154 -75q-52 0 -95.5 19t-69.5 55t-26 87q0 77 63 122t161 45q55 0 113 -15v2q0 71 -28 104.5t-84 33.5q-45 0 -75.5 -19.5t-51.5 -56.5l-76 44q25 55 81 88t128 33
q93 0 150.5 -55zM385 224q-60 15 -105 15q-60 0 -93 -23t-33 -64q0 -37 27 -58.5t71 -21.5q55 0 94 31.5t39 87.5v33z" />
    <glyph glyph-name="acircumflex" unicode="&#xe2;" horiz-adv-x="552" 
d="M343 589l-67 88l-66 -88h-97l119 158h88l120 -158h-97zM429.5 476q57.5 -55 57.5 -158v-318h-89q-2 45 -5 64q-48 -75 -154 -75q-52 0 -95.5 19t-69.5 55t-26 87q0 77 63 122t161 45q55 0 113 -15v2q0 71 -28 104.5t-84 33.5q-45 0 -75.5 -19.5t-51.5 -56.5l-76 44
q25 55 81 88t128 33q93 0 150.5 -55zM385 224q-60 15 -105 15q-60 0 -93 -23t-33 -64q0 -37 27 -58.5t71 -21.5q55 0 94 31.5t39 87.5v33z" />
    <glyph glyph-name="atilde" unicode="&#xe3;" horiz-adv-x="552" 
d="M182 608h-79q2 60 32 97t78 37q29 0 48 -11.5t37 -31.5q13 -13 20.5 -18.5t17.5 -5.5q15 0 24.5 15t12.5 38h78q-2 -60 -31.5 -97t-77.5 -37q-29 0 -48 11.5t-38 31.5q-11 12 -19.5 18t-18.5 6q-28 0 -36 -53zM429.5 476q57.5 -55 57.5 -158v-318h-89q-2 45 -5 64
q-48 -75 -154 -75q-52 0 -95.5 19t-69.5 55t-26 87q0 77 63 122t161 45q55 0 113 -15v2q0 71 -28 104.5t-84 33.5q-45 0 -75.5 -19.5t-51.5 -56.5l-76 44q25 55 81 88t128 33q93 0 150.5 -55zM385 224q-60 15 -105 15q-60 0 -93 -23t-33 -64q0 -37 27 -58.5t71 -21.5
q55 0 94 31.5t39 87.5v33z" />
    <glyph glyph-name="adieresis" unicode="&#xe4;" horiz-adv-x="552" 
d="M127.5 623q-18.5 19 -18.5 45t18.5 45t43.5 19q27 0 45 -18.5t18 -45.5t-18 -45.5t-45 -18.5q-25 0 -43.5 19zM338.5 623q-18.5 19 -18.5 45t18.5 45t43.5 19q27 0 45 -18.5t18 -45.5t-18 -45.5t-45 -18.5q-25 0 -43.5 19zM429.5 476q57.5 -55 57.5 -158v-318h-89
q-2 45 -5 64q-48 -75 -154 -75q-52 0 -95.5 19t-69.5 55t-26 87q0 77 63 122t161 45q55 0 113 -15v2q0 71 -28 104.5t-84 33.5q-45 0 -75.5 -19.5t-51.5 -56.5l-76 44q25 55 81 88t128 33q93 0 150.5 -55zM385 224q-60 15 -105 15q-60 0 -93 -23t-33 -64q0 -37 27 -58.5
t71 -21.5q55 0 94 31.5t39 87.5v33z" />
    <glyph glyph-name="aring" unicode="&#xe5;" horiz-adv-x="552" 
d="M197 609q-32 31 -32 79t32 79t80 31q47 0 78 -31t31 -79t-30.5 -79t-78.5 -31t-80 31zM241.5 725.5q-13.5 -14.5 -13.5 -37.5t13.5 -37.5t35.5 -14.5t35 14.5t13 37.5t-13 37.5t-35 14.5t-35.5 -14.5zM429.5 476q57.5 -55 57.5 -158v-318h-89q-2 45 -5 64
q-48 -75 -154 -75q-52 0 -95.5 19t-69.5 55t-26 87q0 77 63 122t161 45q55 0 113 -15v2q0 71 -28 104.5t-84 33.5q-45 0 -75.5 -19.5t-51.5 -56.5l-76 44q25 55 81 88t128 33q93 0 150.5 -55zM385 224q-60 15 -105 15q-60 0 -93 -23t-33 -64q0 -37 27 -58.5t71 -21.5
q55 0 94 31.5t39 87.5v33z" />
    <glyph glyph-name="ae" unicode="&#xe6;" horiz-adv-x="893" 
d="M756.5 499.5q51.5 -31.5 79 -85.5t27.5 -122q0 -24 -5 -56h-364q6 -78 48 -117.5t105 -39.5q82 0 119 68l77 -45q-20 -54 -76 -83.5t-125 -29.5q-64 0 -115.5 26.5t-82.5 77.5q-23 -51 -72.5 -77.5t-119.5 -26.5q-88 0 -146 42.5t-58 118.5q0 77 62 122t161 45
q58 0 119 -16q-3 141 -120 141q-44 0 -74 -19.5t-50 -57.5l-76 44q24 57 78.5 89.5t126.5 32.5q61 0 106 -24.5t69 -71.5q32 47 81 71.5t107 24.5q67 0 118.5 -31.5zM755 314q-4 60 -37 93.5t-85 33.5q-51 0 -88.5 -32.5t-47.5 -94.5h258zM390 224q-63 15 -111 15
q-61 0 -93 -23t-32 -63q0 -38 28 -59.5t75 -21.5q56 0 94.5 31.5t38.5 87.5v33z" />
    <glyph glyph-name="ccedilla" unicode="&#xe7;" horiz-adv-x="496" 
d="M408 147l79 -46q-23 -49 -65 -77t-96 -34l-19 -47q48 1 79.5 -22t31.5 -66q0 -49 -39.5 -74t-98.5 -25q-33 0 -79 11v65q39 -12 73 -12q64 0 64 32q0 16 -17 24.5t-47 8.5q-26 0 -49 -5l-7 41l29 72q-58 11 -104.5 46.5t-73 92t-26.5 128.5q0 82 34 143.5t92 94.5t128 33
q64 0 113.5 -28t76.5 -84l-79 -46q-42 64 -112 64q-65 0 -105 -47.5t-40 -129.5q0 -83 40 -130.5t105 -47.5q70 0 112 65z" />
    <glyph glyph-name="egrave" unicode="&#xe8;" horiz-adv-x="550" 
d="M149 747h109l85 -158h-87zM413 499.5q51 -31.5 79 -86t28 -122.5q0 -23 -5 -55h-364q6 -78 48 -117.5t105 -39.5q82 0 119 68l77 -45q-20 -54 -76 -83.5t-125 -29.5q-71 0 -129 31.5t-92.5 93.5t-34.5 148q0 84 34.5 145t92 92.5t124.5 31.5q68 0 119 -31.5zM201.5 408.5
q-37.5 -32.5 -47.5 -94.5h258q-4 60 -37 93.5t-85 33.5q-51 0 -88.5 -32.5z" />
    <glyph glyph-name="eacute" unicode="&#xe9;" horiz-adv-x="550" 
d="M243 589l84 158h109l-107 -158h-86zM413 499.5q51 -31.5 79 -86t28 -122.5q0 -23 -5 -55h-364q6 -78 48 -117.5t105 -39.5q82 0 119 68l77 -45q-20 -54 -76 -83.5t-125 -29.5q-71 0 -129 31.5t-92.5 93.5t-34.5 148q0 84 34.5 145t92 92.5t124.5 31.5q68 0 119 -31.5z
M201.5 408.5q-37.5 -32.5 -47.5 -94.5h258q-4 60 -37 93.5t-85 33.5q-51 0 -88.5 -32.5z" />
    <glyph glyph-name="ecircumflex" unicode="&#xea;" horiz-adv-x="550" 
d="M248 747h88l119 -158h-97l-66 88l-67 -88h-97zM413 499.5q51 -31.5 79 -86t28 -122.5q0 -23 -5 -55h-364q6 -78 48 -117.5t105 -39.5q82 0 119 68l77 -45q-20 -54 -76 -83.5t-125 -29.5q-71 0 -129 31.5t-92.5 93.5t-34.5 148q0 84 34.5 145t92 92.5t124.5 31.5
q68 0 119 -31.5zM201.5 408.5q-37.5 -32.5 -47.5 -94.5h258q-4 60 -37 93.5t-85 33.5q-51 0 -88.5 -32.5z" />
    <glyph glyph-name="edieresis" unicode="&#xeb;" horiz-adv-x="550" 
d="M143 623q-18 19 -18 45t18 45t43 19q27 0 45.5 -19t18.5 -45t-18.5 -45t-45.5 -19q-25 0 -43 19zM354 623q-18 19 -18 45t18 45t44 19t44.5 -19t18.5 -45t-18.5 -45t-44.5 -19t-44 19zM413 499.5q51 -31.5 79 -86t28 -122.5q0 -23 -5 -55h-364q6 -78 48 -117.5t105 -39.5
q82 0 119 68l77 -45q-20 -54 -76 -83.5t-125 -29.5q-71 0 -129 31.5t-92.5 93.5t-34.5 148q0 84 34.5 145t92 92.5t124.5 31.5q68 0 119 -31.5zM201.5 408.5q-37.5 -32.5 -47.5 -94.5h258q-4 60 -37 93.5t-85 33.5q-51 0 -88.5 -32.5z" />
    <glyph glyph-name="igrave" unicode="&#xec;" horiz-adv-x="249" 
d="M-19 747h109l85 -157h-86zM73 0v519h103v-519h-103z" />
    <glyph glyph-name="iacute" unicode="&#xed;" horiz-adv-x="249" 
d="M75 590l84 157h109l-107 -157h-86zM73 0v519h103v-519h-103z" />
    <glyph glyph-name="icircumflex" unicode="&#xee;" horiz-adv-x="249" 
d="M80 747h88l119 -157h-97l-66 88l-66 -88h-97zM73 0v519h103v-519h-103z" />
    <glyph glyph-name="idieresis" unicode="&#xef;" horiz-adv-x="249" 
d="M-25 623q-18 19 -18 46q0 26 18 45t44 19t44.5 -19t18.5 -45q0 -27 -18.5 -46t-44.5 -19t-44 19zM186 623q-18 19 -18 46q0 26 18 45t44 19t44.5 -19t18.5 -45q0 -27 -18.5 -46t-44.5 -19t-44 19zM73 0v519h103v-519h-103z" />
    <glyph glyph-name="eth" unicode="&#xf0;" horiz-adv-x="594" 
d="M384 648q81 -75 124 -170.5t43 -194.5q0 -88 -33.5 -155t-91 -103t-128.5 -36t-129.5 34t-92 95.5t-33.5 139.5t35 139t92.5 95t121.5 34q61 0 100 -30q-36 58 -95 104l-138 -75l-35 69l100 55q-44 28 -101 48l51 76q81 -30 143 -72l132 72l37 -70zM402.5 128.5
q40.5 48.5 40.5 129.5q0 80 -40.5 128t-104.5 48q-66 0 -106.5 -48t-40.5 -128q0 -81 40.5 -129.5t106.5 -48.5q64 0 104.5 48.5z" />
    <glyph glyph-name="ntilde" unicode="&#xf1;" horiz-adv-x="588" 
d="M121 608q2 60 31.5 97.5t77.5 37.5q29 0 48 -11.5t38 -31.5q11 -12 19.5 -18t18.5 -6q15 0 24 15t12 38h78q-2 -60 -31.5 -97t-77.5 -37q-29 0 -47 11t-38 31q-12 13 -20.5 19t-18.5 6q-29 0 -36 -54h-78zM473 476q50 -55 50 -159v-317h-103v286q0 72 -27 111t-82 39
q-56 0 -95.5 -39.5t-39.5 -112.5v-284h-103v519h91q2 -49 6 -85q26 48 69.5 72.5t99.5 24.5q84 0 134 -55z" />
    <glyph glyph-name="ograve" unicode="&#xf2;" horiz-adv-x="594" 
d="M154 747h109l85 -158h-87zM78 401q35 62 93.5 96t126.5 34q67 0 125 -34t93 -96t35 -141t-35 -141t-93 -96t-125 -34q-68 0 -126.5 34t-93.5 96t-35 141t35 141zM192.5 130q41.5 -48 104.5 -48q64 0 105 48t41 130t-41.5 130t-104.5 48t-104.5 -48t-41.5 -130t41.5 -130z
" />
    <glyph glyph-name="oacute" unicode="&#xf3;" horiz-adv-x="594" 
d="M248 589l84 158h109l-107 -158h-86zM78 401q35 62 93.5 96t126.5 34q67 0 125 -34t93 -96t35 -141t-35 -141t-93 -96t-125 -34q-68 0 -126.5 34t-93.5 96t-35 141t35 141zM192.5 130q41.5 -48 104.5 -48q64 0 105 48t41 130t-41.5 130t-104.5 48t-104.5 -48t-41.5 -130
t41.5 -130z" />
    <glyph glyph-name="ocircumflex" unicode="&#xf4;" horiz-adv-x="594" 
d="M253 747h88l119 -158h-97l-66 88l-67 -88h-97zM78 401q35 62 93.5 96t126.5 34q67 0 125 -34t93 -96t35 -141t-35 -141t-93 -96t-125 -34q-68 0 -126.5 34t-93.5 96t-35 141t35 141zM192.5 130q41.5 -48 104.5 -48q64 0 105 48t41 130t-41.5 130t-104.5 48t-104.5 -48
t-41.5 -130t41.5 -130z" />
    <glyph glyph-name="otilde" unicode="&#xf5;" horiz-adv-x="594" 
d="M124 608q2 60 31.5 97t77.5 37q29 0 48 -11.5t38 -31.5q11 -12 19.5 -18t18.5 -6q15 0 24 15t12 38h78q-2 -60 -31.5 -97t-77.5 -37q-29 0 -47 11t-38 31q-12 13 -20.5 19t-18.5 6q-28 0 -36 -53h-78zM78 401q35 62 93.5 96t126.5 34q67 0 125 -34t93 -96t35 -141
t-35 -141t-93 -96t-125 -34q-68 0 -126.5 34t-93.5 96t-35 141t35 141zM192.5 130q41.5 -48 104.5 -48q64 0 105 48t41 130t-41.5 130t-104.5 48t-104.5 -48t-41.5 -130t41.5 -130z" />
    <glyph glyph-name="odieresis" unicode="&#xf6;" horiz-adv-x="594" 
d="M148 623q-18 19 -18 45t18 45t43 19q27 0 45.5 -19t18.5 -45t-18.5 -45t-45.5 -19q-25 0 -43 19zM359 623q-18 19 -18 45t18 45t44 19t44.5 -19t18.5 -45t-18.5 -45t-44.5 -19t-44 19zM78 401q35 62 93.5 96t126.5 34q67 0 125 -34t93 -96t35 -141t-35 -141t-93 -96
t-125 -34q-68 0 -126.5 34t-93.5 96t-35 141t35 141zM192.5 130q41.5 -48 104.5 -48q64 0 105 48t41 130t-41.5 130t-104.5 48t-104.5 -48t-41.5 -130t41.5 -130z" />
    <glyph glyph-name="divide" unicode="&#xf7;" 
d="M244 506q-19 20 -19 47t19 46.5t46 19.5t46.5 -19.5t19.5 -46.5t-19.5 -47t-46.5 -20t-46 20zM531 316h-482v92h482v-92zM244 124.5q-19 19.5 -19 46.5q0 28 19 47.5t46 19.5t46.5 -19.5t19.5 -47.5q0 -27 -19.5 -46.5t-46.5 -19.5t-46 19.5z" />
    <glyph glyph-name="oslash" unicode="&#xf8;" horiz-adv-x="593" 
d="M453 554h98l-72 -103q34 -36 53 -84.5t19 -106.5q0 -79 -35 -141t-93 -96t-125 -34q-62 0 -120 30l-37 -53h-98l72 102q-34 36 -53 85t-19 107q0 79 35 141t93.5 96t126.5 34q61 0 118 -30zM174 154l187 268q-30 16 -63 16q-42 0 -76.5 -21.5t-54 -61.5t-19.5 -95
q0 -60 26 -106zM419 366l-186 -268q32 -16 65 -16q65 0 106.5 48t41.5 130q0 63 -27 106z" />
    <glyph glyph-name="ugrave" unicode="&#xf9;" horiz-adv-x="588" 
d="M150 747h109l84 -157h-86zM412 519h103v-519h-91q-2 50 -7 84q-25 -48 -69 -71.5t-98 -23.5q-84 0 -134 55t-50 159v316h102v-286q0 -71 27 -110.5t82 -39.5q56 0 95.5 40t39.5 113v283z" />
    <glyph glyph-name="uacute" unicode="&#xfa;" horiz-adv-x="588" 
d="M243 590l85 157h109l-107 -157h-87zM412 519h103v-519h-91q-2 50 -7 84q-25 -48 -69 -71.5t-98 -23.5q-84 0 -134 55t-50 159v316h102v-286q0 -71 27 -110.5t82 -39.5q56 0 95.5 40t39.5 113v283z" />
    <glyph glyph-name="ucircumflex" unicode="&#xfb;" horiz-adv-x="588" 
d="M249 747h87l120 -157h-97l-66 88l-67 -88h-97zM412 519h103v-519h-91q-2 50 -7 84q-25 -48 -69 -71.5t-98 -23.5q-84 0 -134 55t-50 159v316h102v-286q0 -71 27 -110.5t82 -39.5q56 0 95.5 40t39.5 113v283z" />
    <glyph glyph-name="udieresis" unicode="&#xfc;" horiz-adv-x="588" 
d="M143 623q-18 19 -18 46q0 26 18.5 45t43.5 19q27 0 45 -18.5t18 -45.5t-18 -46t-45 -19q-26 0 -44 19zM355 623q-18 19 -18 46q0 26 18 45t44 19t44.5 -19t18.5 -45q0 -27 -18.5 -46t-44.5 -19t-44 19zM412 519h103v-519h-91q-2 50 -7 84q-25 -48 -69 -71.5t-98 -23.5
q-84 0 -134 55t-50 159v316h102v-286q0 -71 27 -110.5t82 -39.5q56 0 95.5 40t39.5 113v283z" />
    <glyph glyph-name="yacute" unicode="&#xfd;" horiz-adv-x="536" 
d="M305 747h109l-107 -157h-86zM421 519h107l-240 -605q-33 -85 -73.5 -121.5t-108.5 -36.5q-65 0 -105 34l40 81q28 -21 65 -21q32 0 53.5 21.5t47.5 83.5l17 39l-219 525h117l154 -398z" />
    <glyph glyph-name="thorn" unicode="&#xfe;" horiz-adv-x="614" 
d="M454.5 498.5q52.5 -32.5 84.5 -94t32 -144.5q0 -84 -32 -145.5t-84.5 -93.5t-112.5 -32q-50 0 -94 22t-72 66v-309h-103v993h103v-318q28 44 71.5 66t94.5 22q60 0 112.5 -32.5zM426 129.5q38 46.5 38 130.5q0 83 -38.5 130.5t-101.5 47.5q-61 0 -104.5 -44t-43.5 -134
q0 -91 43.5 -134t104.5 -43q64 0 102 46.5z" />
    <glyph glyph-name="ydieresis" unicode="&#xff;" horiz-adv-x="536" 
d="M121 623q-18 19 -18 46q0 26 18 45t44 19t44.5 -19t18.5 -45q0 -27 -18.5 -46t-44.5 -19t-44 19zM332 623q-18 19 -18 46q0 26 18 45t44 19t44.5 -19t18.5 -45q0 -27 -18.5 -46t-44.5 -19t-44 19zM421 519h107l-240 -605q-33 -85 -73.5 -121.5t-108.5 -36.5
q-65 0 -105 34l40 81q28 -21 65 -21q32 0 53.5 21.5t47.5 83.5l17 39l-219 525h117l154 -398z" />
    <glyph glyph-name="Amacron" unicode="&#x100;" horiz-adv-x="683" 
d="M182 845v80h327v-80h-327zM382 732l294 -732h-117l-75 196h-297l-72 -196h-108l283 732h92zM448 290l-116 302l-110 -302h226z" />
    <glyph glyph-name="amacron" unicode="&#x101;" horiz-adv-x="552" 
d="M114 708h327v-81h-327v81zM429.5 476q57.5 -55 57.5 -158v-318h-89q-2 45 -5 64q-48 -75 -154 -75q-52 0 -95.5 19t-69.5 55t-26 87q0 77 63 122t161 45q55 0 113 -15v2q0 71 -28 104.5t-84 33.5q-45 0 -75.5 -19.5t-51.5 -56.5l-76 44q25 55 81 88t128 33
q93 0 150.5 -55zM385 224q-60 15 -105 15q-60 0 -93 -23t-33 -64q0 -37 27 -58.5t71 -21.5q55 0 94 31.5t39 87.5v33z" />
    <glyph glyph-name="Abreve" unicode="&#x102;" horiz-adv-x="683" 
d="M229 839.5q-43 32.5 -43 88.5h88q2 -31 20.5 -48t51.5 -17q67 0 72 65h88q0 -56 -42.5 -88.5t-117.5 -32.5q-74 0 -117 32.5zM382 732l294 -732h-117l-75 196h-297l-72 -196h-108l283 732h92zM448 290l-116 302l-110 -302h226z" />
    <glyph glyph-name="abreve" unicode="&#x103;" horiz-adv-x="552" 
d="M159 630.5q-45 42.5 -45 115.5h88q6 -85 75 -85q71 0 76 85h88q0 -73 -44.5 -115.5t-119.5 -42.5q-73 0 -118 42.5zM429.5 476q57.5 -55 57.5 -158v-318h-89q-2 45 -5 64q-48 -75 -154 -75q-52 0 -95.5 19t-69.5 55t-26 87q0 77 63 122t161 45q55 0 113 -15v2
q0 71 -28 104.5t-84 33.5q-45 0 -75.5 -19.5t-51.5 -56.5l-76 44q25 55 81 88t128 33q93 0 150.5 -55zM385 224q-60 15 -105 15q-60 0 -93 -23t-33 -64q0 -37 27 -58.5t71 -21.5q55 0 94 31.5t39 87.5v33z" />
    <glyph glyph-name="Aogonek" unicode="&#x104;" horiz-adv-x="683" 
d="M734 -195q-46 -49 -118 -49q-55 0 -92.5 26.5t-37.5 81.5q0 74 82 136h-9l-75 196h-297l-72 -196h-108l283 732h92l294 -732q-56 -33 -82.5 -62t-26.5 -62q0 -27 15 -39.5t40 -12.5q40 0 75 32zM332 592l-110 -302h226z" />
    <glyph glyph-name="aogonek" unicode="&#x105;" horiz-adv-x="552" 
d="M544 -192q-44 -52 -118 -52q-55 0 -92.5 29t-37.5 84q0 46 27.5 81t73.5 64q-2 36 -4 50q-48 -75 -154 -75q-52 0 -95.5 19t-69.5 55t-26 87q0 77 63 122t161 45q55 0 113 -15v2q0 71 -28 104.5t-84 33.5q-45 0 -75.5 -19.5t-51.5 -56.5l-76 44q25 55 81 88t128 33
q93 0 150.5 -55t57.5 -158v-318q-57 -31 -83.5 -59t-26.5 -61q0 -27 15 -39.5t40 -12.5q40 0 76 34zM385 224q-60 15 -105 15q-60 0 -93 -23t-33 -64q0 -37 27 -58.5t71 -21.5q55 0 94 31.5t39 87.5v33z" />
    <glyph glyph-name="Cacute" unicode="&#x106;" horiz-adv-x="661" 
d="M321 807l86 121h110l-108 -121h-88zM485 116q42 29 67 81l88 -52q-29 -71 -97 -113.5t-157 -42.5q-94 0 -171.5 47.5t-122.5 133.5t-45 197t45 197t122.5 133t171.5 47q89 0 157 -42.5t97 -113.5l-88 -52q-25 52 -67 81t-101 29q-65 0 -116 -34.5t-79 -98t-28 -146.5
t28 -146.5t79 -98.5t116 -35q59 0 101 29z" />
    <glyph glyph-name="cacute" unicode="&#x107;" horiz-adv-x="496" 
d="M236 590l85 157h109l-108 -157h-86zM408 147l79 -46q-27 -56 -76.5 -84t-113.5 -28q-70 0 -128 33t-92 94.5t-34 143.5t34 143.5t92 94.5t128 33q64 0 113.5 -28t76.5 -84l-79 -46q-42 64 -112 64q-65 0 -105 -47.5t-40 -129.5q0 -83 40 -130.5t105 -47.5q70 0 112 65z
" />
    <glyph glyph-name="Ccircumflex" unicode="&#x108;" horiz-adv-x="661" 
d="M313 928h91l126 -122h-101l-70 70l-71 -70h-101zM485 116q42 29 67 81l88 -52q-29 -71 -97 -113.5t-157 -42.5q-94 0 -171.5 47.5t-122.5 133.5t-45 197t45 197t122.5 133t171.5 47q89 0 157 -42.5t97 -113.5l-88 -52q-25 52 -67 81t-101 29q-65 0 -116 -34.5t-79 -98
t-28 -146.5t28 -146.5t79 -98.5t116 -35q59 0 101 29z" />
    <glyph glyph-name="ccircumflex" unicode="&#x109;" horiz-adv-x="496" 
d="M241 747h88l120 -157h-97l-67 88l-66 -88h-97zM408 147l79 -46q-27 -56 -76.5 -84t-113.5 -28q-70 0 -128 33t-92 94.5t-34 143.5t34 143.5t92 94.5t128 33q64 0 113.5 -28t76.5 -84l-79 -46q-42 64 -112 64q-65 0 -105 -47.5t-40 -129.5q0 -83 40 -130.5t105 -47.5
q70 0 112 65z" />
    <glyph glyph-name="Cdotaccent" unicode="&#x10a;" horiz-adv-x="661" 
d="M315.5 836q-18.5 16 -18.5 38t18.5 38t43.5 16q26 0 44.5 -16t18.5 -38t-18.5 -38t-44.5 -16q-25 0 -43.5 16zM485 116q42 29 67 81l88 -52q-29 -71 -97 -113.5t-157 -42.5q-94 0 -171.5 47.5t-122.5 133.5t-45 197t45 197t122.5 133t171.5 47q89 0 157 -42.5t97 -113.5
l-88 -52q-25 52 -67 81t-101 29q-65 0 -116 -34.5t-79 -98t-28 -146.5t28 -146.5t79 -98.5t116 -35q59 0 101 29z" />
    <glyph glyph-name="cdotaccent" unicode="&#x10b;" horiz-adv-x="496" 
d="M240.5 623q-18.5 20 -18.5 47t18.5 46.5t45.5 19.5t46.5 -19.5t19.5 -46.5t-19.5 -47t-46.5 -20t-45.5 20zM408 147l79 -46q-27 -56 -76.5 -84t-113.5 -28q-70 0 -128 33t-92 94.5t-34 143.5t34 143.5t92 94.5t128 33q64 0 113.5 -28t76.5 -84l-79 -46q-42 64 -112 64
q-65 0 -105 -47.5t-40 -129.5q0 -83 40 -130.5t105 -47.5q70 0 112 65z" />
    <glyph glyph-name="Ccaron" unicode="&#x10c;" horiz-adv-x="661" 
d="M288 928l71 -70l70 70h101l-126 -122h-91l-126 122h101zM485 116q42 29 67 81l88 -52q-29 -71 -97 -113.5t-157 -42.5q-94 0 -171.5 47.5t-122.5 133.5t-45 197t45 197t122.5 133t171.5 47q89 0 157 -42.5t97 -113.5l-88 -52q-25 52 -67 81t-101 29q-65 0 -116 -34.5
t-79 -98t-28 -146.5t28 -146.5t79 -98.5t116 -35q59 0 101 29z" />
    <glyph glyph-name="ccaron" unicode="&#x10d;" horiz-adv-x="496" 
d="M220 747l66 -88l66 88h97l-120 -157h-87l-119 157h97zM408 147l79 -46q-27 -56 -76.5 -84t-113.5 -28q-70 0 -128 33t-92 94.5t-34 143.5t34 143.5t92 94.5t128 33q64 0 113.5 -28t76.5 -84l-79 -46q-42 64 -112 64q-65 0 -105 -47.5t-40 -129.5q0 -83 40 -130.5
t105 -47.5q70 0 112 65z" />
    <glyph glyph-name="Dcaron" unicode="&#x10e;" horiz-adv-x="724" 
d="M234 928l71 -70l69 70h101l-125 -122h-92l-125 122h101zM298 732q107 0 193 -43t135 -126t49 -196q0 -115 -49 -197.5t-134.5 -126t-193.5 -43.5h-214v732h214zM284 94q131 0 204.5 71.5t73.5 201.5q0 129 -73.5 200.5t-204.5 71.5h-93v-545h93z" />
    <glyph glyph-name="dcaron" unicode="&#x10f;" horiz-adv-x="661" 
d="M685.5 750q17.5 -20 17.5 -61q0 -54 -32.5 -88t-85.5 -43v46q28 8 43 21t19 35h-6q-23 0 -37 16t-14 39q0 24 14.5 39.5t37.5 15.5q26 0 43.5 -20zM439 761h102v-761h-90q-5 68 -7 85q-28 -48 -73.5 -72t-96.5 -24q-61 0 -114 32t-85 93.5t-32 145.5q0 83 32 144.5t85 94
t114 32.5q49 0 92.5 -22t72.5 -65v317zM395.5 125q43.5 44 43.5 135q0 90 -43.5 133t-104.5 43q-64 0 -102.5 -46t-38.5 -130q0 -85 38.5 -132t102.5 -47q61 0 104.5 44z" />
    <glyph glyph-name="Dcroat" unicode="&#x110;" horiz-adv-x="746" 
d="M320 732q107 0 193 -43t135 -126t49 -196q0 -115 -49 -197.5t-134.5 -126t-193.5 -43.5h-214v325h-84v96h84v311h214zM306 94q131 0 204.5 71.5t73.5 201.5q0 129 -73.5 200.5t-204.5 71.5h-93v-218h134v-96h-134v-231h93z" />
    <glyph glyph-name="dcroat" unicode="&#x111;" horiz-adv-x="614" 
d="M541 672h75v-81h-75v-591h-90q-5 68 -7 85q-28 -48 -73.5 -72t-96.5 -24q-61 0 -114 32t-85 93.5t-32 145.5q0 83 32 144.5t85 94t114 32.5q49 0 92.5 -22t72.5 -65v147h-134v81h134v89h102v-89zM395.5 125q43.5 44 43.5 135q0 90 -43.5 133t-104.5 43q-64 0 -102.5 -46
t-38.5 -130q0 -85 38.5 -132t102.5 -47q61 0 104.5 44z" />
    <glyph glyph-name="Emacron" unicode="&#x112;" horiz-adv-x="600" 
d="M149 844v81h327v-81h-327zM505 329h-314v-234h362v-95h-469v733h458v-95h-351v-215h314v-94z" />
    <glyph glyph-name="emacron" unicode="&#x113;" horiz-adv-x="550" 
d="M129 627v81h327v-81h-327zM413 499.5q51 -31.5 79 -86t28 -122.5q0 -23 -5 -55h-364q6 -78 48 -117.5t105 -39.5q82 0 119 68l77 -45q-20 -54 -76 -83.5t-125 -29.5q-71 0 -129 31.5t-92.5 93.5t-34.5 148q0 84 34.5 145t92 92.5t124.5 31.5q68 0 119 -31.5zM201.5 408.5
q-37.5 -32.5 -47.5 -94.5h258q-4 60 -37 93.5t-85 33.5q-51 0 -88.5 -32.5z" />
    <glyph glyph-name="Ebreve" unicode="&#x114;" horiz-adv-x="600" 
d="M195.5 838.5q-42.5 32.5 -42.5 89.5h88q2 -31 20 -48t51 -17q68 0 73 65h88q0 -57 -43 -89.5t-118 -32.5q-74 0 -116.5 32.5zM505 329h-314v-234h362v-95h-469v733h458v-95h-351v-215h314v-94z" />
    <glyph glyph-name="ebreve" unicode="&#x115;" horiz-adv-x="550" 
d="M174.5 630.5q-44.5 42.5 -44.5 115.5h88q2 -41 21 -63t54 -22q70 0 76 85h88q0 -73 -44.5 -115.5t-119.5 -42.5q-74 0 -118.5 42.5zM413 499.5q51 -31.5 79 -86t28 -122.5q0 -23 -5 -55h-364q6 -78 48 -117.5t105 -39.5q82 0 119 68l77 -45q-20 -54 -76 -83.5t-125 -29.5
q-71 0 -129 31.5t-92.5 93.5t-34.5 148q0 84 34.5 145t92 92.5t124.5 31.5q68 0 119 -31.5zM201.5 408.5q-37.5 -32.5 -47.5 -94.5h258q-4 60 -37 93.5t-85 33.5q-51 0 -88.5 -32.5z" />
    <glyph glyph-name="Edotaccent" unicode="&#x116;" horiz-adv-x="600" 
d="M268.5 836q-18.5 16 -18.5 38t18.5 38t43.5 16q27 0 45 -16t18 -38t-18.5 -38t-44.5 -16q-25 0 -43.5 16zM505 329h-314v-234h362v-95h-469v733h458v-95h-351v-215h314v-94z" />
    <glyph glyph-name="edotaccent" unicode="&#x117;" horiz-adv-x="550" 
d="M247 622q-19 20 -19 47t19 47t46 20t46 -20t19 -47t-19.5 -47t-45.5 -20q-27 0 -46 20zM413 499.5q51 -31.5 79 -86t28 -122.5q0 -23 -5 -55h-364q6 -78 48 -117.5t105 -39.5q82 0 119 68l77 -45q-20 -54 -76 -83.5t-125 -29.5q-71 0 -129 31.5t-92.5 93.5t-34.5 148
q0 84 34.5 145t92 92.5t124.5 31.5q68 0 119 -31.5zM201.5 408.5q-37.5 -32.5 -47.5 -94.5h258q-4 60 -37 93.5t-85 33.5q-51 0 -88.5 -32.5z" />
    <glyph glyph-name="Eogonek" unicode="&#x118;" horiz-adv-x="600" 
d="M610 -195q-44 -49 -118 -49q-55 0 -92.5 26.5t-37.5 81.5q0 75 83 136h-361v733h458v-95h-351v-215h314v-94h-314v-234h362v-95q-56 -33 -82.5 -62t-26.5 -62q0 -28 15 -40.5t40 -12.5q39 0 74 33z" />
    <glyph glyph-name="eogonek" unicode="&#x119;" horiz-adv-x="550" 
d="M413 499.5q51 -31.5 79 -86t28 -122.5q0 -23 -5 -55h-364q6 -78 48 -117.5t105 -39.5q82 0 119 68l77 -45q-15 -40 -58 -72q-72 -52 -99.5 -83.5t-27.5 -64.5q0 -28 15.5 -39.5t42.5 -11.5q41 0 72 28l38 -55q-45 -48 -118 -48q-56 0 -93.5 27t-37.5 84q0 36 15 65.5
t45 56.5q-69 1 -126 33t-91 93.5t-34 146.5q0 84 34.5 145t92 92.5t124.5 31.5q68 0 119 -31.5zM412 314q-4 60 -37 93.5t-85 33.5q-51 0 -88.5 -32.5t-47.5 -94.5h258z" />
    <glyph glyph-name="Ecaron" unicode="&#x11a;" horiz-adv-x="600" 
d="M242 928l70 -70l70 70h101l-125 -122h-92l-125 122h101zM505 329h-314v-234h362v-95h-469v733h458v-95h-351v-215h314v-94z" />
    <glyph glyph-name="ecaron" unicode="&#x11b;" horiz-adv-x="550" 
d="M226 747l67 -89l65 89h97l-119 -158h-87l-120 158h97zM413 499.5q51 -31.5 79 -86t28 -122.5q0 -23 -5 -55h-364q6 -78 48 -117.5t105 -39.5q82 0 119 68l77 -45q-20 -54 -76 -83.5t-125 -29.5q-71 0 -129 31.5t-92.5 93.5t-34.5 148q0 84 34.5 145t92 92.5t124.5 31.5
q68 0 119 -31.5zM201.5 408.5q-37.5 -32.5 -47.5 -94.5h258q-4 60 -37 93.5t-85 33.5q-51 0 -88.5 -32.5z" />
    <glyph glyph-name="Gcircumflex" unicode="&#x11c;" horiz-adv-x="707" 
d="M347 928h92l125 -121h-101l-69 70l-71 -70h-101zM406 296v95h256v-290q-33 -49 -102.5 -80.5t-155.5 -31.5q-103 0 -184 47.5t-127 134t-46 197.5t46.5 196.5t127 132.5t178.5 47q92 0 161.5 -39.5t98.5 -107.5l-88 -51q-23 45 -69 72.5t-107 27.5q-68 0 -121.5 -34.5
t-83.5 -98t-30 -145.5q0 -84 31 -147.5t88 -98.5t132 -35q96 0 144 51v158h-149z" />
    <glyph glyph-name="gcircumflex" unicode="&#x11d;" horiz-adv-x="613" 
d="M245 747h88l119 -157h-97l-66 88l-66 -88h-97zM541 519v-479q0 -153 -74.5 -218.5t-178.5 -65.5q-80 0 -141.5 34t-84.5 95l81 47q39 -82 145 -82q73 0 112 44.5t39 150.5l3 35q-28 -46 -71.5 -68.5t-94.5 -22.5q-61 0 -114.5 32.5t-86 94t-32.5 144.5q0 84 32.5 145.5
t86 93.5t114.5 32q51 0 96 -24t72 -72q6 58 7 84h90zM395.5 125q43.5 44 43.5 135q0 90 -43.5 133t-104.5 43q-64 0 -102.5 -46t-38.5 -130q0 -85 38.5 -132t102.5 -47q61 0 104.5 44z" />
    <glyph glyph-name="Gbreve" unicode="&#x11e;" horiz-adv-x="707" 
d="M277 839.5q-43 32.5 -43 88.5h88q2 -31 20.5 -48t51.5 -17q67 0 72 65h88q0 -56 -42.5 -88.5t-117.5 -32.5q-74 0 -117 32.5zM406 296v95h256v-290q-33 -49 -102.5 -80.5t-155.5 -31.5q-103 0 -184 47.5t-127 134t-46 197.5t46.5 196.5t127 132.5t178.5 47
q92 0 161.5 -39.5t98.5 -107.5l-88 -51q-23 45 -69 72.5t-107 27.5q-68 0 -121.5 -34.5t-83.5 -98t-30 -145.5q0 -84 31 -147.5t88 -98.5t132 -35q96 0 144 51v158h-149z" />
    <glyph glyph-name="gbreve" unicode="&#x11f;" horiz-adv-x="613" 
d="M172 631.5q-45 42.5 -45 115.5h88q2 -41 21 -63t54 -22q71 0 76 85h88q0 -73 -44.5 -115.5t-119.5 -42.5q-73 0 -118 42.5zM541 519v-479q0 -153 -74.5 -218.5t-178.5 -65.5q-80 0 -141.5 34t-84.5 95l81 47q39 -82 145 -82q73 0 112 44.5t39 150.5l3 35
q-28 -46 -71.5 -68.5t-94.5 -22.5q-61 0 -114.5 32.5t-86 94t-32.5 144.5q0 84 32.5 145.5t86 93.5t114.5 32q51 0 96 -24t72 -72q6 58 7 84h90zM395.5 125q43.5 44 43.5 135q0 90 -43.5 133t-104.5 43q-64 0 -102.5 -46t-38.5 -130q0 -85 38.5 -132t102.5 -47
q61 0 104.5 44z" />
    <glyph glyph-name="Gdotaccent" unicode="&#x120;" horiz-adv-x="707" 
d="M350 837q-18 16 -18 38q0 21 18 37t43 16q27 0 45.5 -16t18.5 -37q0 -22 -19 -38t-45 -16q-25 0 -43 16zM406 296v95h256v-290q-33 -49 -102.5 -80.5t-155.5 -31.5q-103 0 -184 47.5t-127 134t-46 197.5t46.5 196.5t127 132.5t178.5 47q92 0 161.5 -39.5t98.5 -107.5
l-88 -51q-23 45 -69 72.5t-107 27.5q-68 0 -121.5 -34.5t-83.5 -98t-30 -145.5q0 -84 31 -147.5t88 -98.5t132 -35q96 0 144 51v158h-149z" />
    <glyph glyph-name="gdotaccent" unicode="&#x121;" horiz-adv-x="613" 
d="M244 623q-19 20 -19 47t19 46.5t46 19.5t46.5 -19.5t19.5 -46.5t-19.5 -47t-46.5 -20t-46 20zM541 519v-479q0 -153 -74.5 -218.5t-178.5 -65.5q-80 0 -141.5 34t-84.5 95l81 47q39 -82 145 -82q73 0 112 44.5t39 150.5l3 35q-28 -46 -71.5 -68.5t-94.5 -22.5
q-61 0 -114.5 32.5t-86 94t-32.5 144.5q0 84 32.5 145.5t86 93.5t114.5 32q51 0 96 -24t72 -72q6 58 7 84h90zM395.5 125q43.5 44 43.5 135q0 90 -43.5 133t-104.5 43q-64 0 -102.5 -46t-38.5 -130q0 -85 38.5 -132t102.5 -47q61 0 104.5 44z" />
    <glyph glyph-name="uni0122" unicode="&#x122;" horiz-adv-x="707" 
d="M555 296h-149v95h256v-290q-33 -49 -102.5 -80.5t-155.5 -31.5q-103 0 -184 47.5t-127 134t-46 197.5t46.5 196.5t127 132.5t178.5 47q92 0 161.5 -39.5t98.5 -107.5l-88 -51q-23 45 -69 72.5t-107 27.5q-68 0 -121.5 -34.5t-83.5 -98t-30 -145.5q0 -84 31 -147.5
t88 -98.5t132 -35q96 0 144 51v158zM438 -58q19 -20 19 -61q0 -52 -35 -84.5t-96 -40.5v45q31 8 47.5 21t20.5 34h-6q-26 0 -41.5 15t-15.5 37q0 24 16 39t42 15q30 0 49 -20z" />
    <glyph glyph-name="uni0123" unicode="&#x123;" horiz-adv-x="613" 
d="M239.5 622.5q-19.5 22.5 -19.5 67.5q0 59 36 97t95 48v-52q-61 -16 -68 -60h7q25 -1 40.5 -18.5t15.5 -43.5t-16.5 -43.5t-41.5 -17.5q-29 0 -48.5 22.5zM541 519v-479q0 -153 -74.5 -218.5t-178.5 -65.5q-80 0 -141.5 34t-84.5 95l81 47q39 -82 145 -82q73 0 112 44.5
t39 150.5l3 35q-28 -46 -71.5 -68.5t-94.5 -22.5q-61 0 -114.5 32.5t-86 94t-32.5 144.5q0 84 32.5 145.5t86 93.5t114.5 32q51 0 96 -24t72 -72q6 58 7 84h90zM395.5 125q43.5 44 43.5 135q0 90 -43.5 133t-104.5 43q-64 0 -102.5 -46t-38.5 -130q0 -85 38.5 -132
t102.5 -47q61 0 104.5 44z" />
    <glyph glyph-name="Hcircumflex" unicode="&#x124;" horiz-adv-x="755" 
d="M331 928h91l126 -122h-101l-70 70l-71 -70h-101zM191 428h373v304h107v-732h-107v332h-373v-332h-107v732h107v-304z" />
    <glyph glyph-name="hcircumflex" unicode="&#x125;" horiz-adv-x="588" 
d="M81 928h87l119 -108h-98l-64 59l-65 -59h-99zM472.5 475.5q50.5 -55.5 50.5 -158.5v-317h-103v286q0 72 -27 111t-82 39q-56 0 -95.5 -39.5t-39.5 -112.5v-284h-103v761h103v-317q26 43 68.5 65t94.5 22q83 0 133.5 -55.5z" />
    <glyph glyph-name="Hbar" unicode="&#x126;" horiz-adv-x="783" 
d="M685 732v-115h68v-82h-68v-535h-108v331h-372v-331h-107v535h-68v82h68v115h107v-115h372v115h108zM205 535v-108h372v108h-372z" />
    <glyph glyph-name="hbar" unicode="&#x127;" horiz-adv-x="600" 
d="M484.5 475.5q50.5 -55.5 50.5 -158.5v-317h-104v286q0 72 -26.5 111t-81.5 39q-56 0 -95.5 -39.5t-39.5 -112.5v-284h-103v591h-75v81h75v89h103v-89h154v-81h-154v-147q26 43 68.5 65t94.5 22q83 0 133.5 -55.5z" />
    <glyph glyph-name="Itilde" unicode="&#x128;" horiz-adv-x="275" 
d="M-36 820q2 48 31.5 78t77.5 30q29 0 47 -9t39 -25q11 -10 19.5 -15t18.5 -5q29 0 36 43h79q-2 -49 -32 -79t-78 -30q-29 0 -47.5 9t-37.5 25q-13 11 -20.5 15.5t-17.5 4.5q-29 0 -37 -42h-78zM191 0h-107v732h107v-732z" />
    <glyph glyph-name="itilde" unicode="&#x129;" horiz-adv-x="249" 
d="M-49 608q2 60 31.5 97.5t77.5 37.5q29 0 48 -11.5t38 -31.5q11 -12 19.5 -18t18.5 -6q28 0 36 53h79q-2 -60 -32 -97t-78 -37q-29 0 -48 11.5t-37 31.5q-13 13 -20.5 18.5t-17.5 5.5q-30 0 -37 -54h-78zM73 0v519h103v-519h-103z" />
    <glyph glyph-name="Imacron" unicode="&#x12a;" horiz-adv-x="275" 
d="M-26 844v81h327v-81h-327zM191 0h-107v732h107v-732z" />
    <glyph glyph-name="imacron" unicode="&#x12b;" horiz-adv-x="249" 
d="M-39 628v80h327v-80h-327zM73 0v519h103v-519h-103z" />
    <glyph glyph-name="Ibreve" unicode="&#x12c;" horiz-adv-x="275" 
d="M21 838.5q-43 32.5 -43 89.5h88q2 -31 20.5 -48t51.5 -17q67 0 73 65h88q0 -57 -43 -89.5t-118 -32.5q-74 0 -117 32.5zM191 0h-107v732h107v-732z" />
    <glyph glyph-name="ibreve" unicode="&#x12d;" horiz-adv-x="249" 
d="M7 631.5q-45 42.5 -45 115.5h88q2 -41 21 -63t54 -22q70 0 76 85h88q0 -73 -44.5 -115.5t-119.5 -42.5q-73 0 -118 42.5zM73 0v519h103v-519h-103z" />
    <glyph glyph-name="Iogonek" unicode="&#x12e;" horiz-adv-x="275" 
d="M248 -195q-44 -49 -118 -49q-55 0 -92.5 26.5t-37.5 81.5q0 76 84 137v731h107v-732q-56 -33 -82.5 -62t-26.5 -62q0 -28 15 -40.5t40 -12.5q39 0 74 33z" />
    <glyph glyph-name="iogonek" unicode="&#x12f;" horiz-adv-x="249" 
d="M79 623q-19 20 -19 47t19 46.5t46 19.5t46 -19.5t19 -46.5t-19 -47t-46 -20t-46 20zM233 -192q-44 -52 -118 -52q-55 0 -92.5 29t-37.5 84q0 76 88 137v513h103v-519q-57 -31 -83.5 -59t-26.5 -61q0 -27 15 -39.5t40 -12.5q41 0 75 34z" />
    <glyph glyph-name="Idotaccent" unicode="&#x130;" horiz-adv-x="275" 
d="M94 836q-18 16 -18 38t18 38t44 16t44.5 -16t18.5 -38t-19 -38t-44 -16q-26 0 -44 16zM191 0h-107v732h107v-732z" />
    <glyph glyph-name="dotlessi" unicode="&#x131;" horiz-adv-x="249" 
d="M73 0v519h103v-519h-103z" />
    <glyph glyph-name="IJ" unicode="&#x132;" horiz-adv-x="750" 
d="M191 0h-107v732h107v-732zM340.5 23q-51.5 34 -68.5 105l86 48q25 -89 106 -89q54 0 77.5 39t23.5 116v490h109v-501q0 -126 -59.5 -184t-151.5 -58q-71 0 -122.5 34z" />
    <glyph glyph-name="ij" unicode="&#x133;" horiz-adv-x="499" 
d="M79 623q-19 20 -19 47t19 46.5t45 19.5q28 0 47 -19.5t19 -46.5t-19.5 -47t-46.5 -20q-26 0 -45 20zM328 623q-19 20 -19 47t19 46.5t45 19.5q28 0 47 -19.5t19 -46.5t-19.5 -47t-46.5 -20q-26 0 -45 20zM176 0h-103v519h103v-519zM175.5 -232q-32.5 12 -54.5 36l59 73
q14 -15 28 -21.5t31 -6.5q84 0 84 123v547h102v-553q0 -72 -25.5 -119t-66.5 -69t-89 -22q-36 0 -68.5 12z" />
    <glyph glyph-name="Jcircumflex" unicode="&#x134;" horiz-adv-x="476" 
d="M299 928h91l126 -122h-101l-70 70l-71 -70h-101zM66 23q-52 34 -69 105l86 48q26 -89 106 -89q54 0 78.5 39.5t24.5 115.5v490h107v-501q0 -126 -59 -184t-151 -58q-71 0 -123 34z" />
    <glyph glyph-name="jcircumflex" unicode="&#x135;" horiz-adv-x="249" 
d="M80 747h88l119 -157h-97l-66 88l-67 -88h-97zM-74.5 -232q-33.5 12 -54.5 36l59 73q14 -15 28 -21.5t31 -6.5q84 0 84 123v547h103v-553q0 -72 -26 -119t-67 -69t-89 -22q-35 0 -68.5 12z" />
    <glyph glyph-name="uni0136" unicode="&#x136;" horiz-adv-x="699" 
d="M531 732h138l-292 -308l318 -424h-138l-256 343l-110 -116v-227h-107v732h107v-373zM420 -58q19 -20 19 -61q0 -52 -35 -84.5t-96 -40.5v45q30 8 47 21t21 34h-6q-26 0 -41.5 15t-15.5 37q0 24 16 39t42 15q30 0 49 -20z" />
    <glyph glyph-name="uni0137" unicode="&#x137;" horiz-adv-x="542" 
d="M400 519h123l-191 -213l214 -306h-127l-157 228l-86 -96v-132h-103v761h103v-500zM343 -58q19 -20 19 -61q0 -52 -35 -84.5t-96 -40.5v45q30 8 47 21t21 34h-7q-26 0 -41 15t-15 37q0 24 16 39t41 15q31 0 50 -20z" />
    <glyph glyph-name="kgreenlandic" unicode="&#x138;" horiz-adv-x="542" 
d="M332 306l213 -306h-126l-157 228l-86 -96v-132h-103v519h103v-258l224 258h123z" />
    <glyph glyph-name="Lacute" unicode="&#x139;" horiz-adv-x="571" 
d="M100 808l86 120h110l-108 -120h-88zM84 732h107v-636h352v-96h-459v732z" />
    <glyph glyph-name="lacute" unicode="&#x13a;" horiz-adv-x="249" 
d="M87 825l86 103h110l-108 -103h-88zM176 0h-103v761h103v-761z" />
    <glyph glyph-name="uni013B" unicode="&#x13b;" horiz-adv-x="571" 
d="M84 732h107v-636h352v-96h-459v732zM370 -58q19 -20 19 -61q0 -52 -35 -84.5t-96 -40.5v45q31 8 47.5 21t20.5 34h-6q-26 0 -41.5 15t-15.5 37q0 24 16 39t42 15q30 0 49 -20z" />
    <glyph glyph-name="uni013C" unicode="&#x13c;" horiz-adv-x="249" 
d="M73 0v761h103v-761h-103zM170 -58q19 -20 19 -61q0 -52 -35 -84.5t-96 -40.5v45q30 8 47 21t21 34h-7q-26 0 -41 15t-15 37q0 24 16 39t41 15q31 0 50 -20z" />
    <glyph glyph-name="Lcaron" unicode="&#x13d;" horiz-adv-x="571" 
d="M416 557q-36 -38 -95 -47v51q30 8 47 23t21 38h-6q-26 0 -41.5 17.5t-15.5 43.5t16 43.5t41 17.5q30 0 49.5 -22.5t19.5 -67.5q0 -59 -36 -97zM84 732h107v-636h352v-96h-459v732z" />
    <glyph glyph-name="lcaron" unicode="&#x13e;" horiz-adv-x="295" 
d="M320 750q17 -20 17 -61q0 -55 -32 -88.5t-86 -42.5v46q28 8 43 21t19 35h-6q-23 0 -36.5 16t-13.5 39q0 24 14.5 39.5t37.5 15.5q26 0 43 -20zM176 0h-103v761h103v-761z" />
    <glyph glyph-name="Ldot" unicode="&#x13f;" horiz-adv-x="571" 
d="M84 732h107v-636h352v-96h-459v732zM327.5 346q-18.5 20 -18.5 47q0 28 18.5 47.5t45.5 19.5q28 0 47 -19.5t19 -47.5q0 -27 -19.5 -47t-46.5 -20t-45.5 20z" />
    <glyph glyph-name="ldot" unicode="&#x140;" horiz-adv-x="270" 
d="M176 0h-103v761h103v-761zM222 342q-16 17 -16 42t16 41.5t40 16.5t40.5 -16.5t16.5 -41.5t-16.5 -42t-40.5 -17t-40 17z" />
    <glyph glyph-name="Lslash" unicode="&#x141;" horiz-adv-x="591" 
d="M360 416l-149 -76v-244h352v-96h-459v285l-84 -43v103l84 43v344h107v-289l149 76v-103z" />
    <glyph glyph-name="lslash" unicode="&#x142;" horiz-adv-x="275" 
d="M189 761v-296l72 43v-103l-72 -43v-362h-103v302l-72 -42v103l72 42v356h103z" />
    <glyph glyph-name="Nacute" unicode="&#x143;" horiz-adv-x="747" 
d="M336 807l85 121h111l-109 -121h-87zM173 732l390 -544v544h100v-732h-89l-390 545v-545h-100v732h89z" />
    <glyph glyph-name="nacute" unicode="&#x144;" horiz-adv-x="588" 
d="M245 590l84 157h109l-107 -157h-86zM473 476q50 -55 50 -159v-317h-103v286q0 72 -27 111t-82 39q-56 0 -95.5 -39.5t-39.5 -112.5v-284h-103v519h91q2 -49 6 -85q26 48 69.5 72.5t99.5 24.5q84 0 134 -55z" />
    <glyph glyph-name="uni0145" unicode="&#x145;" horiz-adv-x="747" 
d="M173 732l390 -544v544h100v-732h-89l-390 545v-545h-100v732h89zM418 -58q19 -20 19 -61q0 -52 -35 -84.5t-96 -40.5v45q30 8 47 21t21 34h-6q-26 0 -41.5 15t-15.5 37q0 24 16 39t42 15q30 0 49 -20z" />
    <glyph glyph-name="uni0146" unicode="&#x146;" horiz-adv-x="588" 
d="M473 476q50 -55 50 -159v-317h-103v286q0 72 -27 111t-82 39q-56 0 -95.5 -39.5t-39.5 -112.5v-284h-103v519h91q2 -49 6 -85q26 48 69.5 72.5t99.5 24.5q84 0 134 -55zM348 -58q19 -20 19 -61q0 -52 -35 -84.5t-96 -40.5v45q30 8 47 21t21 34h-6q-26 0 -41.5 15
t-15.5 37q0 24 16 39t42 15q30 0 49 -20z" />
    <glyph glyph-name="Ncaron" unicode="&#x147;" horiz-adv-x="747" 
d="M303 928l70 -70l70 70h101l-125 -121h-92l-125 121h101zM173 732l390 -544v544h100v-732h-89l-390 545v-545h-100v732h89z" />
    <glyph glyph-name="ncaron" unicode="&#x148;" horiz-adv-x="588" 
d="M228 747l67 -88l65 88h97l-119 -157h-87l-120 157h97zM473 476q50 -55 50 -159v-317h-103v286q0 72 -27 111t-82 39q-56 0 -95.5 -39.5t-39.5 -112.5v-284h-103v519h91q2 -49 6 -85q26 48 69.5 72.5t99.5 24.5q84 0 134 -55z" />
    <glyph glyph-name="napostrophe" unicode="&#x149;" horiz-adv-x="588" 
d="M80 596.5q-35 -35.5 -93 -44.5v48q31 9 47 22.5t20 36.5q-2 -1 -6 -1q-25 0 -40.5 16.5t-15.5 40.5q0 25 15.5 41.5t40.5 16.5q29 0 48 -21t19 -64q0 -56 -35 -91.5zM473 476q50 -55 50 -159v-317h-103v286q0 72 -27 111t-82 39q-56 0 -95.5 -39.5t-39.5 -112.5v-284
h-103v519h91q2 -49 6 -85q26 48 69.5 72.5t99.5 24.5q84 0 134 -55z" />
    <glyph glyph-name="Eng" unicode="&#x14a;" horiz-adv-x="747" 
d="M563 732h100v-779q0 -100 -47 -148.5t-117 -48.5q-56 0 -94 29l40 79q21 -15 48 -15q33 0 51.5 26.5t18.5 83.5v57l-379 529v-545h-100v732h89l390 -544v544z" />
    <glyph glyph-name="eng" unicode="&#x14b;" horiz-adv-x="588" 
d="M473 476q50 -55 50 -159v-364q0 -100 -47 -148.5t-117 -48.5q-56 0 -94 29l40 79q21 -15 47 -15q68 0 68 110v327q0 72 -27 111t-82 39q-56 0 -95.5 -39.5t-39.5 -112.5v-284h-103v519h91q2 -49 6 -85q26 48 69.5 72.5t99.5 24.5q84 0 134 -55z" />
    <glyph glyph-name="Omacron" unicode="&#x14c;" horiz-adv-x="770" 
d="M221 844v81h327v-81h-327zM91 566.5q44 85.5 121 131.5t172 46t172 -46t121 -131.5t44 -199.5q0 -115 -44.5 -200.5t-121 -131.5t-171.5 -46t-172 45.5t-121 131.5t-44 201q0 114 44 199.5zM188.5 220.5q27.5 -63.5 77.5 -98.5t118 -35t118.5 35t78 98.5t27.5 146.5
t-27.5 146t-78.5 98t-118 35t-117.5 -35t-78 -98t-27.5 -146t27.5 -146.5z" />
    <glyph glyph-name="omacron" unicode="&#x14d;" horiz-adv-x="594" 
d="M134 627v81h327v-81h-327zM78 401q35 62 93.5 96t126.5 34q67 0 125 -34t93 -96t35 -141t-35 -141t-93 -96t-125 -34q-68 0 -126.5 34t-93.5 96t-35 141t35 141zM192.5 130q41.5 -48 104.5 -48q64 0 105 48t41 130t-41.5 130t-104.5 48t-104.5 -48t-41.5 -130t41.5 -130z
" />
    <glyph glyph-name="Obreve" unicode="&#x14e;" horiz-adv-x="770" 
d="M267.5 838.5q-42.5 32.5 -42.5 89.5h88q2 -31 20 -48t51 -17q68 0 73 65h88q0 -57 -43 -89.5t-118 -32.5q-74 0 -116.5 32.5zM91 566.5q44 85.5 121 131.5t172 46t172 -46t121 -131.5t44 -199.5q0 -115 -44.5 -200.5t-121 -131.5t-171.5 -46t-172 45.5t-121 131.5
t-44 201q0 114 44 199.5zM188.5 220.5q27.5 -63.5 77.5 -98.5t118 -35t118.5 35t78 98.5t27.5 146.5t-27.5 146t-78.5 98t-118 35t-117.5 -35t-78 -98t-27.5 -146t27.5 -146.5z" />
    <glyph glyph-name="obreve" unicode="&#x14f;" horiz-adv-x="594" 
d="M179.5 630.5q-44.5 42.5 -44.5 115.5h88q2 -41 21 -63t54 -22q70 0 76 85h88q0 -73 -44.5 -115.5t-119.5 -42.5q-74 0 -118.5 42.5zM78 401q35 62 93.5 96t126.5 34q67 0 125 -34t93 -96t35 -141t-35 -141t-93 -96t-125 -34q-68 0 -126.5 34t-93.5 96t-35 141t35 141z
M192.5 130q41.5 -48 104.5 -48q64 0 105 48t41 130t-41.5 130t-104.5 48t-104.5 -48t-41.5 -130t41.5 -130z" />
    <glyph glyph-name="Ohungarumlaut" unicode="&#x150;" horiz-adv-x="770" 
d="M260 806l85 122h105l-108 -122h-82zM420 806l85 122h104l-107 -122h-82zM91 566.5q44 85.5 121 131.5t172 46t172 -46t121 -131.5t44 -199.5q0 -115 -44.5 -200.5t-121 -131.5t-171.5 -46t-172 45.5t-121 131.5t-44 201q0 114 44 199.5zM188.5 220.5
q27.5 -63.5 77.5 -98.5t118 -35t118.5 35t78 98.5t27.5 146.5t-27.5 146t-78.5 98t-118 35t-117.5 -35t-78 -98t-27.5 -146t27.5 -146.5z" />
    <glyph glyph-name="ohungarumlaut" unicode="&#x151;" horiz-adv-x="594" 
d="M174 589l84 158h105l-108 -158h-81zM333 589l85 158h105l-108 -158h-82zM78 401q35 62 93.5 96t126.5 34q67 0 125 -34t93 -96t35 -141t-35 -141t-93 -96t-125 -34q-68 0 -126.5 34t-93.5 96t-35 141t35 141zM192.5 130q41.5 -48 104.5 -48q64 0 105 48t41 130t-41.5 130
t-104.5 48t-104.5 -48t-41.5 -130t41.5 -130z" />
    <glyph glyph-name="OE" unicode="&#x152;" horiz-adv-x="1123" 
d="M714 329v-234h362v-95h-469v105q-39 -56 -97 -86t-130 -30q-93 0 -169 47.5t-120 133.5t-44 197t44 196.5t120 133t169 47.5q72 0 130 -30t97 -86v105h458v-95h-351v-215h314v-94h-314zM502 122q50 35 77.5 98.5t27.5 146.5t-27.5 146t-78 98t-117.5 35t-117.5 -35
t-78 -98t-27.5 -146t27.5 -146.5t77.5 -98.5t118 -35t118 35z" />
    <glyph glyph-name="oe" unicode="&#x153;" horiz-adv-x="950" 
d="M812.5 499.5q51.5 -31.5 79.5 -86t28 -122.5q0 -23 -5 -55h-364q6 -78 48 -117.5t105 -39.5q82 0 119 68l77 -45q-20 -54 -76 -83.5t-125 -29.5q-68 0 -121 29t-84 86q-30 -55 -82 -85t-114 -30q-68 0 -126.5 34t-93.5 96t-35 141t35 141t93.5 96t126.5 34q62 0 114 -30
t82 -85q30 57 82 86t117 29q68 0 119.5 -31.5zM601.5 408.5q-37.5 -32.5 -48.5 -94.5h258q-3 60 -36 93.5t-85 33.5q-51 0 -88.5 -32.5zM402 130q41 48 41 130q0 55 -19 95t-52 61.5t-74 21.5q-64 0 -105.5 -48t-41.5 -130q0 -83 41.5 -130.5t105.5 -47.5q63 0 104 48z" />
    <glyph glyph-name="Racute" unicode="&#x154;" horiz-adv-x="641" 
d="M254 808l85 120h111l-109 -120h-87zM656 0h-130l-201 288h-8h-126v-288h-107v732h234q78 0 138.5 -28t94 -78.5t33.5 -116.5q0 -71 -39.5 -124t-108.5 -77zM191 639v-258h114q78 0 122 34t44 94t-44 95t-122 35h-114z" />
    <glyph glyph-name="racute" unicode="&#x155;" horiz-adv-x="392" 
d="M177 589l84 158h109l-107 -158h-86zM358.5 524q22.5 -7 35.5 -19l-39 -81q-23 14 -51 14q-57 0 -92.5 -47t-35.5 -134v-257h-103v519h91q2 -48 6 -84q23 48 58.5 72t81.5 24q26 0 48.5 -7z" />
    <glyph glyph-name="uni0156" unicode="&#x156;" horiz-adv-x="641" 
d="M656 0h-130l-201 288h-8h-126v-288h-107v732h234q78 0 138.5 -28t94 -78.5t33.5 -116.5q0 -71 -39.5 -124t-108.5 -77zM305 381q78 0 122 34t44 94t-44 95t-122 35h-114v-258h114zM407 -58q19 -20 19 -61q0 -52 -35 -84.5t-96 -40.5v45q30 8 47 21t21 34h-7q-26 0 -41 15
t-15 37q0 24 16 39t41 15q31 0 50 -20z" />
    <glyph glyph-name="uni0157" unicode="&#x157;" horiz-adv-x="392" 
d="M358.5 524q22.5 -7 35.5 -19l-39 -81q-23 14 -51 14q-57 0 -92.5 -47t-35.5 -134v-257h-103v519h91q2 -48 6 -84q23 48 58.5 72t81.5 24q26 0 48.5 -7zM170 -58q19 -20 19 -61q0 -52 -35 -84.5t-96 -40.5v45q30 8 47 21t21 34h-7q-26 0 -41 15t-15 37q0 24 16 39t41 15
q31 0 50 -20z" />
    <glyph glyph-name="Rcaron" unicode="&#x158;" horiz-adv-x="641" 
d="M221 928l70 -70l70 70h101l-125 -121h-92l-125 121h101zM656 0h-130l-201 288h-8h-126v-288h-107v732h234q78 0 138.5 -28t94 -78.5t33.5 -116.5q0 -71 -39.5 -124t-108.5 -77zM191 639v-258h114q78 0 122 34t44 94t-44 95t-122 35h-114z" />
    <glyph glyph-name="rcaron" unicode="&#x159;" horiz-adv-x="392" 
d="M160 747l67 -89l65 89h97l-119 -158h-87l-120 158h97zM358.5 524q22.5 -7 35.5 -19l-39 -81q-23 14 -51 14q-57 0 -92.5 -47t-35.5 -134v-257h-103v519h91q2 -48 6 -84q23 48 58.5 72t81.5 24q26 0 48.5 -7z" />
    <glyph glyph-name="Sacute" unicode="&#x15a;" horiz-adv-x="579" 
d="M264 807l85 121h111l-109 -121h-87zM522.5 90q-32.5 -49 -90 -75t-132.5 -26q-105 0 -183 49.5t-103 132.5l87 50q26 -64 77 -99t125 -35q66 0 102.5 28.5t36.5 79.5q0 41 -23.5 67.5t-58.5 41t-95 32.5q-73 22 -116 41.5t-73.5 58t-30.5 101.5q0 66 34 113t91.5 70.5
t128.5 23.5q98 0 161 -43t84 -112l-87 -51q-45 109 -162 109q-62 0 -99.5 -27.5t-37.5 -74.5q0 -35 21.5 -57t54 -35.5t88.5 -29.5q74 -22 120.5 -43t79.5 -63t33 -111q0 -67 -32.5 -116z" />
    <glyph glyph-name="sacute" unicode="&#x15b;" horiz-adv-x="459" 
d="M191 590l84 157h109l-107 -157h-86zM378.5 33q-55.5 -44 -144.5 -44q-79 0 -135 34t-75 94l77 45q17 -42 51 -63.5t82 -21.5q43 0 68.5 17.5t25.5 48.5q0 24 -15.5 39.5t-39 24.5t-64.5 21q-54 15 -86.5 29t-56 41.5t-23.5 73.5q0 48 26.5 84.5t71 55.5t98.5 19
q71 0 121.5 -31t67.5 -84l-77 -44q-15 33 -44.5 51t-70.5 18q-39 0 -63 -15.5t-24 -44.5q0 -22 14.5 -35.5t36.5 -22t62 -19.5q54 -15 88.5 -30t59 -45t24.5 -79q0 -73 -55.5 -117z" />
    <glyph glyph-name="Scircumflex" unicode="&#x15c;" horiz-adv-x="579" 
d="M255 928h92l125 -121h-101l-70 70l-70 -70h-101zM522.5 90q-32.5 -49 -90 -75t-132.5 -26q-105 0 -183 49.5t-103 132.5l87 50q26 -64 77 -99t125 -35q66 0 102.5 28.5t36.5 79.5q0 41 -23.5 67.5t-58.5 41t-95 32.5q-73 22 -116 41.5t-73.5 58t-30.5 101.5q0 66 34 113
t91.5 70.5t128.5 23.5q98 0 161 -43t84 -112l-87 -51q-45 109 -162 109q-62 0 -99.5 -27.5t-37.5 -74.5q0 -35 21.5 -57t54 -35.5t88.5 -29.5q74 -22 120.5 -43t79.5 -63t33 -111q0 -67 -32.5 -116z" />
    <glyph glyph-name="scircumflex" unicode="&#x15d;" horiz-adv-x="459" 
d="M196 747h88l119 -157h-97l-66 88l-67 -88h-97zM378.5 33q-55.5 -44 -144.5 -44q-79 0 -135 34t-75 94l77 45q17 -42 51 -63.5t82 -21.5q43 0 68.5 17.5t25.5 48.5q0 24 -15.5 39.5t-39 24.5t-64.5 21q-54 15 -86.5 29t-56 41.5t-23.5 73.5q0 48 26.5 84.5t71 55.5
t98.5 19q71 0 121.5 -31t67.5 -84l-77 -44q-15 33 -44.5 51t-70.5 18q-39 0 -63 -15.5t-24 -44.5q0 -22 14.5 -35.5t36.5 -22t62 -19.5q54 -15 88.5 -30t59 -45t24.5 -79q0 -73 -55.5 -117z" />
    <glyph glyph-name="Scedilla" unicode="&#x15e;" horiz-adv-x="579" 
d="M487.5 49.5q-67.5 -57.5 -177.5 -60.5l-19 -46q48 1 79.5 -22t31.5 -66q0 -48 -41.5 -73.5t-99.5 -25.5q-38 0 -76 11v63q36 -11 73 -11q64 0 64 32q0 33 -69 33q-20 0 -44 -3l-7 41l29 72q-81 14 -138.5 61t-78.5 116l87 50q26 -64 77 -99t125 -35q66 0 102.5 28
t36.5 80q0 41 -23.5 67.5t-58.5 41t-95 32.5q-73 22 -116 41.5t-73.5 58t-30.5 101.5q0 66 34 113t91.5 70.5t128.5 23.5q98 0 161 -43t84 -112l-87 -51q-45 109 -162 109q-62 0 -99.5 -27.5t-37.5 -74.5q0 -35 21.5 -57t54 -35.5t88.5 -29.5q74 -22 120.5 -43t79.5 -63
t33 -111q0 -99 -67.5 -156.5z" />
    <glyph glyph-name="scedilla" unicode="&#x15f;" horiz-adv-x="459" 
d="M384.5 38q-49.5 -43 -130.5 -48l-19 -46q48 0 80 -23t32 -66q0 -49 -39.5 -74t-98.5 -25q-33 0 -79 11v65q38 -12 73 -12q63 0 63 32q0 16 -16.5 24.5t-44.5 8.5q-23 0 -52 -6l-7 42l30 73q-57 11 -96.5 43t-55.5 80l77 45q17 -42 51 -63.5t82 -21.5q43 0 68.5 17.5
t25.5 48.5q0 24 -15.5 39.5t-39 24.5t-64.5 21q-54 15 -86.5 29t-56 41.5t-23.5 73.5q0 48 26.5 84.5t71 55.5t98.5 19q71 0 121.5 -31t67.5 -84l-77 -44q-15 33 -44.5 51t-70.5 18q-39 0 -63 -15.5t-24 -44.5q0 -22 14.5 -35.5t36.5 -22t62 -19.5q54 -15 88.5 -30t59 -45
t24.5 -79q0 -69 -49.5 -112z" />
    <glyph glyph-name="Scaron" unicode="&#x160;" horiz-adv-x="579" 
d="M231 928l70 -70l70 70h101l-125 -121h-92l-125 121h101zM522.5 90q-32.5 -49 -90 -75t-132.5 -26q-105 0 -183 49.5t-103 132.5l87 50q26 -64 77 -99t125 -35q66 0 102.5 28.5t36.5 79.5q0 41 -23.5 67.5t-58.5 41t-95 32.5q-73 22 -116 41.5t-73.5 58t-30.5 101.5
q0 66 34 113t91.5 70.5t128.5 23.5q98 0 161 -43t84 -112l-87 -51q-45 109 -162 109q-62 0 -99.5 -27.5t-37.5 -74.5q0 -35 21.5 -57t54 -35.5t88.5 -29.5q74 -22 120.5 -43t79.5 -63t33 -111q0 -67 -32.5 -116z" />
    <glyph glyph-name="scaron" unicode="&#x161;" horiz-adv-x="459" 
d="M174 747l67 -88l65 88h97l-119 -157h-87l-120 157h97zM378.5 33q-55.5 -44 -144.5 -44q-79 0 -135 34t-75 94l77 45q17 -42 51 -63.5t82 -21.5q43 0 68.5 17.5t25.5 48.5q0 24 -15.5 39.5t-39 24.5t-64.5 21q-54 15 -86.5 29t-56 41.5t-23.5 73.5q0 48 26.5 84.5t71 55.5
t98.5 19q71 0 121.5 -31t67.5 -84l-77 -44q-15 33 -44.5 51t-70.5 18q-39 0 -63 -15.5t-24 -44.5q0 -22 14.5 -35.5t36.5 -22t62 -19.5q54 -15 88.5 -30t59 -45t24.5 -79q0 -73 -55.5 -117z" />
    <glyph glyph-name="uni0162" unicode="&#x162;" horiz-adv-x="582" 
d="M344 637v-637h-11l-24 -57q48 1 80 -22t32 -65q0 -49 -41.5 -74.5t-100.5 -25.5q-37 0 -75 11v63q35 -11 73 -11q63 0 63 32q0 33 -69 33q-20 0 -44 -3l-7 41l33 78h-17v637h-225v95h559v-95h-226z" />
    <glyph glyph-name="uni0163" unicode="&#x163;" horiz-adv-x="386" 
d="M250 -57q48 0 80 -23t32 -65q0 -49 -39.5 -74t-99.5 -25q-32 0 -78 11v65q33 -12 72 -12q64 0 64 31q0 16 -17 24.5t-46 8.5q-28 0 -50 -5l-7 41l32 79q-96 34 -96 177v255h-88v88h88v150h102v-150h153v-88h-153v-241q0 -108 80 -108q36 0 67 19l35 -80q-42 -30 -112 -32
z" />
    <glyph glyph-name="Tcaron" unicode="&#x164;" horiz-adv-x="581" 
d="M220 928l70 -70l70 70h101l-125 -122h-92l-125 122h101zM11 732h559v-95h-226v-637h-108v637h-225v95z" />
    <glyph glyph-name="tcaron" unicode="&#x165;" horiz-adv-x="386" 
d="M397 800.5q20 -22.5 20 -67.5q0 -59 -36 -97.5t-95 -47.5v51q30 8 47 23t21 38h-6q-26 0 -41.5 18t-15.5 43q0 27 16 44.5t41 17.5q29 0 49 -22.5zM346 101l35 -80q-44 -32 -117 -32q-74 0 -120.5 41t-46.5 146v255h-88v88h88v150h102v-150h153v-88h-153v-241
q0 -108 80 -108q36 0 67 19z" />
    <glyph glyph-name="Tbar" unicode="&#x166;" horiz-adv-x="582" 
d="M11 732h559v-95h-226v-223h151v-95h-151v-319h-108v319h-150v95h150v223h-225v95z" />
    <glyph glyph-name="tbar" unicode="&#x167;" horiz-adv-x="386" 
d="M381 21q-44 -32 -117 -32q-74 0 -120.5 41t-46.5 147v51h-88v85h88v121h-88v85h88v150h103v-150h152v-85h-152v-121h152v-85h-152v-38q0 -108 79 -108q36 0 67 19z" />
    <glyph glyph-name="Utilde" unicode="&#x168;" horiz-adv-x="740" 
d="M196 820q2 48 31.5 78t77.5 30q29 0 47 -9t39 -25q11 -10 19.5 -15t18.5 -5q29 0 36 43h79q-2 -49 -32 -79t-78 -30q-29 0 -47.5 9t-37.5 25q-13 11 -20.5 15.5t-17.5 4.5q-29 0 -37 -42h-78zM556 732h108v-436q0 -94 -35 -163.5t-101 -106.5t-158 -37t-158 37
t-101 106.5t-35 163.5v436h108v-415q0 -113 48 -171.5t138 -58.5t138 58.5t48 171.5v415z" />
    <glyph glyph-name="utilde" unicode="&#x169;" horiz-adv-x="588" 
d="M120 608q2 60 31.5 97.5t77.5 37.5q29 0 47 -11t38 -31q12 -13 20.5 -19t18.5 -6q15 0 24 15t12 38h78q-2 -60 -31.5 -97t-77.5 -37q-29 0 -48 11.5t-38 31.5q-11 12 -19.5 18t-18.5 6q-29 0 -36 -54h-78zM412 519h103v-519h-91q-2 50 -7 84q-25 -48 -69 -71.5t-98 -23.5
q-84 0 -134 55t-50 159v316h102v-286q0 -71 27 -110.5t82 -39.5q56 0 95.5 40t39.5 113v283z" />
    <glyph glyph-name="Umacron" unicode="&#x16a;" horiz-adv-x="740" 
d="M206 844v81h327v-81h-327zM556 732h108v-436q0 -94 -35 -163.5t-101 -106.5t-158 -37t-158 37t-101 106.5t-35 163.5v436h108v-415q0 -113 48 -171.5t138 -58.5t138 58.5t48 171.5v415z" />
    <glyph glyph-name="umacron" unicode="&#x16b;" horiz-adv-x="588" 
d="M130 628v80h327v-80h-327zM412 519h103v-519h-91q-2 50 -7 84q-25 -48 -69 -71.5t-98 -23.5q-84 0 -134 55t-50 159v316h102v-286q0 -71 27 -110.5t82 -39.5q56 0 95.5 40t39.5 113v283z" />
    <glyph glyph-name="Ubreve" unicode="&#x16c;" horiz-adv-x="740" 
d="M253 838.5q-43 32.5 -43 89.5h88q2 -31 20.5 -48t51.5 -17q67 0 73 65h88q0 -57 -43 -89.5t-118 -32.5q-74 0 -117 32.5zM556 732h108v-436q0 -94 -35 -163.5t-101 -106.5t-158 -37t-158 37t-101 106.5t-35 163.5v436h108v-415q0 -113 48 -171.5t138 -58.5t138 58.5
t48 171.5v415z" />
    <glyph glyph-name="ubreve" unicode="&#x16d;" horiz-adv-x="588" 
d="M175 631.5q-45 42.5 -45 115.5h88q3 -41 22 -63t53 -22q71 0 76 85h88q0 -73 -44.5 -115.5t-119.5 -42.5q-73 0 -118 42.5zM412 519h103v-519h-91q-2 50 -7 84q-25 -48 -69 -71.5t-98 -23.5q-84 0 -134 55t-50 159v316h102v-286q0 -71 27 -110.5t82 -39.5q56 0 95.5 40
t39.5 113v283z" />
    <glyph glyph-name="Uring" unicode="&#x16e;" horiz-adv-x="740" 
d="M290.5 908.5q32.5 19.5 79.5 19.5t78 -19.5t31 -48.5q0 -30 -31 -49.5t-78 -19.5q-48 0 -80 19.5t-32 49.5q0 29 32.5 48.5zM333.5 836q13.5 -9 36.5 -9q22 0 34.5 9t12.5 24q0 14 -12.5 23t-34.5 9t-36 -9t-14 -23q0 -15 13.5 -24zM556 732h108v-436q0 -94 -35 -163.5
t-101 -106.5t-158 -37t-158 37t-101 106.5t-35 163.5v436h108v-415q0 -113 48 -171.5t138 -58.5t138 58.5t48 171.5v415z" />
    <glyph glyph-name="uring" unicode="&#x16f;" horiz-adv-x="588" 
d="M213 768q32 31 80 31q47 0 78.5 -31t31.5 -79t-31 -79.5t-79 -31.5t-80 31.5t-32 79.5t32 79zM257.5 651q13.5 -15 35.5 -15q21 0 34.5 15t13.5 38t-13 37.5t-35 14.5t-35.5 -14.5t-13.5 -37.5t13.5 -38zM412 519h103v-519h-91q-2 50 -7 84q-25 -48 -69 -71.5t-98 -23.5
q-84 0 -134 55t-50 159v316h102v-286q0 -71 27 -110.5t82 -39.5q56 0 95.5 40t39.5 113v283z" />
    <glyph glyph-name="Uhungarumlaut" unicode="&#x170;" horiz-adv-x="740" 
d="M246 806l84 122h105l-107 -122h-82zM406 806l84 122h105l-108 -122h-81zM556 732h108v-436q0 -94 -35 -163.5t-101 -106.5t-158 -37t-158 37t-101 106.5t-35 163.5v436h108v-415q0 -113 48 -171.5t138 -58.5t138 58.5t48 171.5v415z" />
    <glyph glyph-name="uhungarumlaut" unicode="&#x171;" horiz-adv-x="588" 
d="M169 590l85 157h105l-108 -157h-82zM329 590l85 157h104l-107 -157h-82zM412 519h103v-519h-91q-2 50 -7 84q-25 -48 -69 -71.5t-98 -23.5q-84 0 -134 55t-50 159v316h102v-286q0 -71 27 -110.5t82 -39.5q56 0 95.5 40t39.5 113v283z" />
    <glyph glyph-name="Uogonek" unicode="&#x172;" horiz-adv-x="740" 
d="M664 296q0 -87 -30 -153t-87 -105q-69 -48 -94 -83t-25 -71q0 -31 16 -45.5t41 -14.5q37 0 73 31l37 -50q-44 -49 -117 -49q-57 0 -94 27.5t-37 88.5q0 64 47 117h-24q-92 0 -158 37t-101 106.5t-35 163.5v436h108v-415q0 -113 48 -171.5t138 -58.5t138 58.5t48 171.5
v415h108v-436z" />
    <glyph glyph-name="uogonek" unicode="&#x173;" horiz-adv-x="588" 
d="M572 -192q-44 -52 -118 -52q-55 0 -92.5 29t-37.5 84q0 45 27 80t72 64q-2 39 -6 71q-25 -48 -69 -71.5t-98 -23.5q-84 0 -134 55t-50 159v316h102v-286q0 -71 27 -110.5t82 -39.5q56 0 95.5 40t39.5 113v283h103v-519q-57 -31 -83.5 -59t-26.5 -61q0 -27 15 -39.5
t40 -12.5q40 0 76 34z" />
    <glyph glyph-name="Wcircumflex" unicode="&#x174;" horiz-adv-x="979" 
d="M449 928h91l125 -122h-101l-69 70l-71 -70h-101zM539 733l171 -556l157 555h104l-224 -732h-84l-171 538l-165 -538h-83l-236 732h113l170 -555l159 556h89z" />
    <glyph glyph-name="wcircumflex" unicode="&#x175;" horiz-adv-x="793" 
d="M364 747h88l119 -157h-97l-66 88l-67 -88h-97zM442 519l127 -368l118 368h98l-185 -519h-70l-132 359l-126 -359h-71l-193 519h107l127 -370l117 370h83z" />
    <glyph glyph-name="Ycircumflex" unicode="&#x176;" horiz-adv-x="636" 
d="M278 928h92l125 -121h-101l-69 70l-71 -70h-101zM329 410l184 323h117l-253 -430v-303h-107v305l-263 428h127z" />
    <glyph glyph-name="ycircumflex" unicode="&#x177;" horiz-adv-x="536" 
d="M336 590l-66 88l-66 -88h-97l119 157h88l119 -157h-97zM421 519h107l-240 -605q-33 -85 -73.5 -121.5t-108.5 -36.5q-65 0 -105 34l40 81q28 -21 65 -21q32 0 53.5 21.5t47.5 83.5l17 39l-219 525h117l154 -398z" />
    <glyph glyph-name="Ydieresis" unicode="&#x178;" horiz-adv-x="636" 
d="M174.5 836.5q-18.5 15.5 -18.5 37.5t18 38t44 16q27 0 45 -15.5t18 -38.5q0 -22 -18 -37.5t-45 -15.5q-25 0 -43.5 15.5zM386 836.5q-18 15.5 -18 37.5q0 23 18 38.5t44 15.5t44.5 -16t18.5 -38t-18.5 -37.5t-44.5 -15.5t-44 15.5zM329 410l184 323h117l-253 -430v-303
h-107v305l-263 428h127z" />
    <glyph glyph-name="Zacute" unicode="&#x179;" horiz-adv-x="581" 
d="M262 808l86 120h110l-108 -120h-88zM546 732v-55l-375 -581h389v-96h-538v56l376 581h-345v95h493z" />
    <glyph glyph-name="zacute" unicode="&#x17a;" horiz-adv-x="477" 
d="M192 590l85 157h109l-107 -157h-87zM434 518v-56l-265 -377h277v-85h-415v58l266 376h-242v84h379z" />
    <glyph glyph-name="Zdotaccent" unicode="&#x17b;" horiz-adv-x="581" 
d="M256 837q-18 16 -18 38q0 21 18 37t44 16t44.5 -16t18.5 -37q0 -22 -19 -38t-44 -16q-26 0 -44 16zM546 732v-55l-375 -581h389v-96h-538v56l376 581h-345v95h493z" />
    <glyph glyph-name="zdotaccent" unicode="&#x17c;" horiz-adv-x="477" 
d="M197 623q-19 20 -19 47t19 46.5t45 19.5q28 0 47 -19.5t19 -46.5t-19.5 -47t-46.5 -20q-26 0 -45 20zM434 518v-56l-265 -377h277v-85h-415v58l266 376h-242v84h379z" />
    <glyph glyph-name="Zcaron" unicode="&#x17d;" horiz-adv-x="581" 
d="M229 928l71 -65l69 65h101l-125 -121h-91l-126 121h101zM546 732v-55l-375 -581h389v-96h-538v56l376 581h-345v95h493z" />
    <glyph glyph-name="zcaron" unicode="&#x17e;" horiz-adv-x="477" 
d="M176 747l66 -88l66 88h97l-120 -157h-87l-119 157h97zM434 518v-56l-265 -377h277v-85h-415v58l266 376h-242v84h379z" />
    <glyph glyph-name="longs" unicode="&#x17f;" horiz-adv-x="357" 
d="M350 763q28 -10 45 -26l-40 -78q-27 20 -62 20q-84 0 -84 -122v-557h-104v432h-89v87h89v43q0 73 26 120.5t67.5 69t89.5 21.5q34 0 62 -10z" />
    <glyph glyph-name="uni018F" unicode="&#x18f;" horiz-adv-x="720" 
d="M517.5 700.5q73.5 -43.5 114 -128.5t40.5 -206q0 -119 -41.5 -204t-114.5 -129t-166 -44t-161 42t-104 116t-36 167q0 43 7 84h501q-14 249 -215 249q-65 0 -110.5 -28.5t-80.5 -89.5l-79 56q35 78 108.5 118.5t166.5 40.5q97 0 170.5 -43.5zM492 140q52 54 63 163h-392
q-2 -104 49 -160.5t141 -56.5q87 0 139 54z" />
    <glyph glyph-name="florin" unicode="&#x192;" 
d="M417 624q-23 -27 -35 -98l-1 -7h152v-87h-167l-40 -221q-21 -120 -69 -171t-126 -51q-41 0 -74 11.5t-53 30.5l48 76q33 -25 70 -25q40 0 62 33t37 118l35 199h-114v87h129l4 19q20 113 70.5 159.5t126.5 46.5q79 0 120 -43l-49 -74q-27 24 -66 24q-37 0 -60 -27z" />
    <glyph glyph-name="Ohorn" unicode="&#x1a0;" horiz-adv-x="770" 
d="M688 538.5q33 -74.5 33 -171.5q0 -111 -44.5 -197t-121.5 -133.5t-171 -47.5q-95 0 -172 47t-121 133t-44 198q0 111 45 197t124 133t179 47q21 0 45 -2t34 -3q54 -6 86 -6q45 0 65 13.5t20 54.5q0 29 -7 58h90q7 -32 7 -65q0 -75 -34.5 -104t-105.5 -31
q60 -46 93 -120.5zM502 122q50 35 77.5 98.5t27.5 146.5t-27.5 146t-78 98t-117.5 35t-117.5 -35t-78 -98t-27.5 -146t27.5 -146.5t77.5 -98.5t118 -35t118 35z" />
    <glyph glyph-name="ohorn" unicode="&#x1a1;" horiz-adv-x="598" 
d="M556.5 479q-27.5 -28 -84.5 -30q37 -35 58 -83t21 -108q0 -78 -35 -139.5t-93 -95.5t-125 -34q-68 0 -126.5 34t-93.5 96t-35 141q0 80 35.5 141.5t97 95.5t134.5 34q25 0 69 -6q38 -6 58 -6q30 0 43.5 13.5t13.5 54.5q0 30 -7 59h90q7 -32 7 -65q0 -74 -27.5 -102z
M402 130q41 48 41 130q0 55 -19 95t-52 61.5t-74 21.5q-64 0 -105.5 -48t-41.5 -130q0 -83 41.5 -130.5t105.5 -47.5q63 0 104 48z" />
    <glyph glyph-name="Uhorn" unicode="&#x1af;" horiz-adv-x="740" 
d="M758.5 695q-29.5 -29 -94.5 -34v-365q0 -94 -35 -163.5t-101 -106.5t-158 -37t-158 37t-101 106.5t-35 163.5v436h108v-415q0 -113 48 -171.5t138 -58.5t138 58.5t48 171.5v415h46q54 0 75 13t21 55q0 28 -7 59h90q7 -34 7 -65q0 -70 -29.5 -99z" />
    <glyph glyph-name="uhorn" unicode="&#x1b0;" horiz-adv-x="620" 
d="M609.5 482q-29.5 -29 -94.5 -35v-447h-91q-2 50 -7 84q-25 -48 -69 -71.5t-98 -23.5q-84 0 -134 55t-50 159v316h102v-286q0 -71 27 -110.5t82 -39.5q56 0 95.5 40t39.5 113v283h62q42 3 58.5 17t16.5 51q0 29 -7 58h90q7 -32 7 -65q0 -69 -29.5 -98z" />
    <glyph glyph-name="uni01CD" unicode="&#x1cd;" horiz-adv-x="683" 
d="M275 928l71 -70l69 70h101l-125 -121h-92l-125 121h101zM382 732l294 -732h-117l-75 196h-297l-72 -196h-108l283 732h92zM448 290l-116 302l-110 -302h226z" />
    <glyph glyph-name="uni01CE" unicode="&#x1ce;" horiz-adv-x="552" 
d="M440 747l-120 -158h-87l-119 158h97l66 -89l66 89h97zM429.5 476q57.5 -55 57.5 -158v-318h-89q-2 45 -5 64q-48 -75 -154 -75q-52 0 -95.5 19t-69.5 55t-26 87q0 77 63 122t161 45q55 0 113 -15v2q0 71 -28 104.5t-84 33.5q-45 0 -75.5 -19.5t-51.5 -56.5l-76 44
q25 55 81 88t128 33q93 0 150.5 -55zM385 224q-60 15 -105 15q-60 0 -93 -23t-33 -64q0 -37 27 -58.5t71 -21.5q55 0 94 31.5t39 87.5v33z" />
    <glyph glyph-name="uni01CF" unicode="&#x1cf;" horiz-adv-x="275" 
d="M67 928l71 -70l69 70h101l-125 -122h-91l-126 122h101zM191 0h-107v732h107v-732z" />
    <glyph glyph-name="uni01D0" unicode="&#x1d0;" horiz-adv-x="249" 
d="M58 747l67 -88l65 88h97l-119 -157h-87l-120 157h97zM73 0v519h103v-519h-103z" />
    <glyph glyph-name="uni01D1" unicode="&#x1d1;" horiz-adv-x="770" 
d="M314 928l70 -70l70 70h101l-125 -122h-92l-125 122h101zM91 566.5q44 85.5 121 131.5t172 46t172 -46t121 -131.5t44 -199.5q0 -115 -44.5 -200.5t-121 -131.5t-171.5 -46t-172 45.5t-121 131.5t-44 201q0 114 44 199.5zM188.5 220.5q27.5 -63.5 77.5 -98.5t118 -35
t118.5 35t78 98.5t27.5 146.5t-27.5 146t-78.5 98t-118 35t-117.5 -35t-78 -98t-27.5 -146t27.5 -146.5z" />
    <glyph glyph-name="uni01D2" unicode="&#x1d2;" horiz-adv-x="594" 
d="M231 747l67 -89l65 89h97l-119 -158h-87l-120 158h97zM78 401q35 62 93.5 96t126.5 34q67 0 125 -34t93 -96t35 -141t-35 -141t-93 -96t-125 -34q-68 0 -126.5 34t-93.5 96t-35 141t35 141zM192.5 130q41.5 -48 104.5 -48q64 0 105 48t41 130t-41.5 130t-104.5 48
t-104.5 -48t-41.5 -130t41.5 -130z" />
    <glyph glyph-name="uni01D3" unicode="&#x1d3;" horiz-adv-x="740" 
d="M299 928l71 -70l69 70h101l-125 -122h-91l-126 122h101zM556 732h108v-436q0 -94 -35 -163.5t-101 -106.5t-158 -37t-158 37t-101 106.5t-35 163.5v436h108v-415q0 -113 48 -171.5t138 -58.5t138 58.5t48 171.5v415z" />
    <glyph glyph-name="uni01D4" unicode="&#x1d4;" horiz-adv-x="588" 
d="M227 747l66 -88l66 88h97l-120 -157h-87l-119 157h97zM412 519h103v-519h-91q-2 50 -7 84q-25 -48 -69 -71.5t-98 -23.5q-84 0 -134 55t-50 159v316h102v-286q0 -71 27 -110.5t82 -39.5q56 0 95.5 40t39.5 113v283z" />
    <glyph glyph-name="uni01D5" unicode="&#x1d5;" horiz-adv-x="740" 
d="M206 886v42h327v-42h-327zM220 795q-18 11 -18 27q0 15 18 25.5t43 10.5q27 0 45.5 -10.5t18.5 -25.5q0 -16 -18.5 -27t-45.5 -11q-25 0 -43 11zM431 795q-18 11 -18 27q0 15 18 25.5t44 10.5t44.5 -10.5t18.5 -25.5q0 -16 -18.5 -27t-44.5 -11t-44 11zM556 732h108v-436
q0 -94 -35 -163.5t-101 -106.5t-158 -37t-158 37t-101 106.5t-35 163.5v436h108v-415q0 -113 48 -171.5t138 -58.5t138 58.5t48 171.5v415z" />
    <glyph glyph-name="uni01D6" unicode="&#x1d6;" horiz-adv-x="588" 
d="M130 797v80h327v-80h-327zM143 623q-18 19 -18 46q0 26 18.5 45t43.5 19q27 0 45 -18.5t18 -45.5t-18 -46t-45 -19q-26 0 -44 19zM355 623q-18 19 -18 46q0 26 18 45t44 19t44.5 -19t18.5 -45q0 -27 -18.5 -46t-44.5 -19t-44 19zM412 519h103v-519h-91q-2 50 -7 84
q-25 -48 -69 -71.5t-98 -23.5q-84 0 -134 55t-50 159v316h102v-286q0 -71 27 -110.5t82 -39.5q56 0 95.5 40t39.5 113v283z" />
    <glyph glyph-name="uni01D7" unicode="&#x1d7;" horiz-adv-x="740" 
d="M332 868l85 60h111l-109 -60h-87zM220 794.5q-18 10.5 -18 24.5q0 15 17.5 25t43.5 10q27 0 45.5 -10t18.5 -25q0 -14 -18.5 -24.5t-45.5 -10.5q-25 0 -43 10.5zM431 794.5q-18 10.5 -18 24.5q0 15 18 25t44 10t44.5 -10t18.5 -25q0 -14 -18.5 -24.5t-44.5 -10.5
t-44 10.5zM556 732h108v-436q0 -94 -35 -163.5t-101 -106.5t-158 -37t-158 37t-101 106.5t-35 163.5v436h108v-415q0 -113 48 -171.5t138 -58.5t138 58.5t48 171.5v415z" />
    <glyph glyph-name="uni01D8" unicode="&#x1d8;" horiz-adv-x="588" 
d="M243 768l76 139h108l-97 -139h-87zM143 623q-18 19 -18 46q0 26 18.5 45t43.5 19q27 0 45 -18.5t18 -45.5t-18 -46t-45 -19q-26 0 -44 19zM355 623q-18 19 -18 46q0 26 18 45t44 19t44.5 -19t18.5 -45q0 -27 -18.5 -46t-44.5 -19t-44 19zM412 519h103v-519h-91
q-2 50 -7 84q-25 -48 -69 -71.5t-98 -23.5q-84 0 -134 55t-50 159v316h102v-286q0 -71 27 -110.5t82 -39.5q56 0 95.5 40t39.5 113v283z" />
    <glyph glyph-name="uni01D9" unicode="&#x1d9;" horiz-adv-x="740" 
d="M540 928l-125 -60h-92l-125 60h111l61 -27l59 27h111zM220 794.5q-18 10.5 -18 24.5t18 24.5t43 10.5q27 0 45.5 -10.5t18.5 -24.5t-18.5 -24.5t-45.5 -10.5q-25 0 -43 10.5zM431 794.5q-18 10.5 -18 24.5t18 24.5t44 10.5t44.5 -10.5t18.5 -24.5t-18.5 -24.5
t-44.5 -10.5t-44 10.5zM556 732h108v-436q0 -94 -35 -163.5t-101 -106.5t-158 -37t-158 37t-101 106.5t-35 163.5v436h108v-415q0 -113 48 -171.5t138 -58.5t138 58.5t48 171.5v415z" />
    <glyph glyph-name="uni01DA" unicode="&#x1da;" horiz-adv-x="588" 
d="M229 907l64 -76l64 76h99l-120 -139h-87l-119 139h99zM143 623q-18 19 -18 46q0 26 18.5 45t43.5 19q27 0 45 -18.5t18 -45.5t-18 -46t-45 -19q-26 0 -44 19zM355 623q-18 19 -18 46q0 26 18 45t44 19t44.5 -19t18.5 -45q0 -27 -18.5 -46t-44.5 -19t-44 19zM412 519h103
v-519h-91q-2 50 -7 84q-25 -48 -69 -71.5t-98 -23.5q-84 0 -134 55t-50 159v316h102v-286q0 -71 27 -110.5t82 -39.5q56 0 95.5 40t39.5 113v283z" />
    <glyph glyph-name="uni01DB" unicode="&#x1db;" horiz-adv-x="740" 
d="M211 928h111l85 -60h-87zM220 794.5q-18 10.5 -18 24.5q0 15 17.5 25t43.5 10q27 0 45.5 -10t18.5 -25q0 -14 -18.5 -24.5t-45.5 -10.5q-25 0 -43 10.5zM431 794.5q-18 10.5 -18 24.5q0 15 18 25t44 10t44.5 -10t18.5 -25q0 -14 -18.5 -24.5t-44.5 -10.5t-44 10.5z
M556 732h108v-436q0 -94 -35 -163.5t-101 -106.5t-158 -37t-158 37t-101 106.5t-35 163.5v436h108v-415q0 -113 48 -171.5t138 -58.5t138 58.5t48 171.5v415z" />
    <glyph glyph-name="uni01DC" unicode="&#x1dc;" horiz-adv-x="588" 
d="M160 907h108l75 -139h-86zM143 623q-18 19 -18 46q0 26 18.5 45t43.5 19q27 0 45 -18.5t18 -45.5t-18 -46t-45 -19q-26 0 -44 19zM355 623q-18 19 -18 46q0 26 18 45t44 19t44.5 -19t18.5 -45q0 -27 -18.5 -46t-44.5 -19t-44 19zM412 519h103v-519h-91q-2 50 -7 84
q-25 -48 -69 -71.5t-98 -23.5q-84 0 -134 55t-50 159v316h102v-286q0 -71 27 -110.5t82 -39.5q56 0 95.5 40t39.5 113v283z" />
    <glyph glyph-name="uni01E5" unicode="&#x1e5;" horiz-adv-x="642" 
d="M75.5 405.5q32.5 61.5 86 93.5t114.5 32q51 0 96 -24t72 -72q6 58 7 84h90v-218h90v-83h-90v-178q0 -153 -74.5 -218.5t-178.5 -65.5q-80 0 -141.5 34t-84.5 95l81 47q39 -82 145 -82q73 0 112 44.5t39 150.5l3 35q-28 -46 -71.5 -68.5t-94.5 -22.5q-61 0 -114.5 32.5
t-86 94t-32.5 144.5q0 84 32.5 145.5zM384 114.5q41 33.5 51 103.5h-122v84h122q-10 69 -50.5 101.5t-93.5 32.5q-64 0 -102.5 -46t-38.5 -130q0 -85 38.5 -132t102.5 -47q52 0 93 33.5z" />
    <glyph glyph-name="gcaron" unicode="&#x1e7;" horiz-adv-x="613" 
d="M224 747l66 -88l65 88h97l-119 -157h-87l-119 157h97zM541 519v-479q0 -153 -74.5 -218.5t-178.5 -65.5q-80 0 -141.5 34t-84.5 95l81 47q39 -82 145 -82q73 0 112 44.5t39 150.5l3 35q-28 -46 -71.5 -68.5t-94.5 -22.5q-61 0 -114.5 32.5t-86 94t-32.5 144.5
q0 84 32.5 145.5t86 93.5t114.5 32q51 0 96 -24t72 -72q6 58 7 84h90zM395.5 125q43.5 44 43.5 135q0 90 -43.5 133t-104.5 43q-64 0 -102.5 -46t-38.5 -130q0 -85 38.5 -132t102.5 -47q61 0 104.5 44z" />
    <glyph glyph-name="uni01E9" unicode="&#x1e9;" horiz-adv-x="542" 
d="M60 928l65 -59l64 59h98l-119 -108h-87l-120 108h99zM332 306l213 -306h-126l-157 228l-86 -96v-132h-103v761h103v-500l224 258h123z" />
    <glyph glyph-name="uni01EF" unicode="&#x1ef;" horiz-adv-x="501" 
d="M170 747l66 -88l66 88h97l-120 -157h-87l-119 157h97zM249 231q112 -7 169.5 -71.5t57.5 -159.5q0 -75 -34 -130t-92 -84.5t-129 -29.5q-84 0 -148 42t-89 124l84 47q19 -59 60 -89.5t95 -30.5q65 0 105 41t40 110q0 65 -44.5 105t-135.5 40q-26 0 -64 -5v83l185 210
h-285v86h426v-70z" />
    <glyph glyph-name="uni01F0" unicode="&#x1f0;" horiz-adv-x="249" 
d="M58 747l67 -88l65 88h97l-119 -157h-87l-120 157h97zM-74.5 -232q-33.5 12 -54.5 36l59 73q14 -15 28 -21.5t31 -6.5q84 0 84 123v547h103v-553q0 -72 -26 -119t-67 -69t-89 -22q-35 0 -68.5 12z" />
    <glyph glyph-name="uni01F9" unicode="&#x1f9;" horiz-adv-x="588" 
d="M151 747h109l85 -157h-87zM473 476q50 -55 50 -159v-317h-103v286q0 72 -27 111t-82 39q-56 0 -95.5 -39.5t-39.5 -112.5v-284h-103v519h91q2 -49 6 -85q26 48 69.5 72.5t99.5 24.5q84 0 134 -55z" />
    <glyph glyph-name="Aringacute" unicode="&#x1fa;" horiz-adv-x="683" 
d="M296 873l83 55h108l-104 -55h-87zM273 841.5q29 12.5 73 12.5q43 0 70.5 -12.5t27.5 -31.5t-27.5 -30.5t-70.5 -11.5q-45 0 -73.5 11.5t-28.5 30.5t29 31.5zM316.5 800q10.5 -4 28.5 -4t28.5 4t10.5 10q0 7 -10.5 11t-28.5 4t-28.5 -4t-10.5 -11q0 -6 10.5 -10zM382 732
l294 -732h-117l-75 196h-297l-72 -196h-108l283 732h92zM448 290l-116 302l-110 -302h226z" />
    <glyph glyph-name="aringacute" unicode="&#x1fb;" horiz-adv-x="552" 
d="M311 928h108l-105 -121h-86zM205 601q-29 27 -29 69q0 41 29 67.5t72 26.5t71 -26.5t28 -67.5q0 -42 -28 -69t-71 -27t-72 27zM244.5 702q-12.5 -12 -12.5 -32t12.5 -33.5t32.5 -13.5q19 0 31 13t12 34q0 20 -12 32t-31 12q-20 0 -32.5 -12zM429.5 476
q57.5 -55 57.5 -158v-318h-89q-2 45 -5 64q-48 -75 -154 -75q-52 0 -95.5 19t-69.5 55t-26 87q0 77 63 122t161 45q55 0 113 -15v2q0 71 -28 104.5t-84 33.5q-45 0 -75.5 -19.5t-51.5 -56.5l-76 44q25 55 81 88t128 33q93 0 150.5 -55zM385 224q-60 15 -105 15
q-60 0 -93 -23t-33 -64q0 -37 27 -58.5t71 -21.5q55 0 94 31.5t39 87.5v33z" />
    <glyph glyph-name="AEacute" unicode="&#x1fc;" horiz-adv-x="1023" 
d="M589 808l85 120h111l-109 -120h-87zM928 329h-314v-234h362v-95h-469v201h-260l-128 -201h-118l473 733h491v-95h-351v-215h314v-94zM507 295v318l-201 -318h201z" />
    <glyph glyph-name="aeacute" unicode="&#x1fd;" horiz-adv-x="893" 
d="M489 747h109l-107 -158h-86zM756.5 499.5q51.5 -31.5 79 -85.5t27.5 -122q0 -24 -5 -56h-364q6 -78 48 -117.5t105 -39.5q82 0 119 68l77 -45q-20 -54 -76 -83.5t-125 -29.5q-64 0 -115.5 26.5t-82.5 77.5q-23 -51 -72.5 -77.5t-119.5 -26.5q-88 0 -146 42.5t-58 118.5
q0 77 62 122t161 45q58 0 119 -16q-3 141 -120 141q-44 0 -74 -19.5t-50 -57.5l-76 44q24 57 78.5 89.5t126.5 32.5q61 0 106 -24.5t69 -71.5q32 47 81 71.5t107 24.5q67 0 118.5 -31.5zM755 314q-4 60 -37 93.5t-85 33.5q-51 0 -88.5 -32.5t-47.5 -94.5h258zM390 224
q-63 15 -111 15q-61 0 -93 -23t-32 -63q0 -38 28 -59.5t75 -21.5q56 0 94.5 31.5t38.5 87.5v33z" />
    <glyph glyph-name="Oslashacute" unicode="&#x1fe;" horiz-adv-x="774" 
d="M350 807l85 121h111l-109 -121h-87zM615 767h110l-93 -132q44 -51 68.5 -119t24.5 -149q0 -111 -44.5 -197t-121.5 -133.5t-171 -47.5q-98 0 -177 51l-52 -74h-111l94 133q-44 51 -67.5 118.5t-23.5 149.5q0 111 44.5 196.5t121 133t171.5 47.5q97 0 174 -51zM206 190
l299 421q-50 35 -117 35q-68 0 -119 -35t-79 -98t-28 -146q0 -105 44 -177zM568 543l-298 -419q49 -37 118 -37q68 0 118.5 35t78 98.5t27.5 146.5q0 104 -44 176z" />
    <glyph glyph-name="oslashacute" unicode="&#x1ff;" horiz-adv-x="593" 
d="M248 589l84 158h109l-107 -158h-86zM453 554h98l-72 -103q34 -36 53 -84.5t19 -106.5q0 -79 -35 -141t-93 -96t-125 -34q-62 0 -120 30l-37 -53h-98l72 102q-34 36 -53 85t-19 107q0 79 35 141t93.5 96t126.5 34q61 0 118 -30zM174 154l187 268q-30 16 -63 16
q-42 0 -76.5 -21.5t-54 -61.5t-19.5 -95q0 -60 26 -106zM419 366l-186 -268q32 -16 65 -16q65 0 106.5 48t41.5 130q0 63 -27 106z" />
    <glyph glyph-name="uni0218" unicode="&#x218;" horiz-adv-x="579" 
d="M522.5 90q-32.5 -49 -90 -75t-132.5 -26q-105 0 -183 49.5t-103 132.5l87 50q26 -64 77 -99t125 -35q66 0 102.5 28.5t36.5 79.5q0 41 -23.5 67.5t-58.5 41t-95 32.5q-73 22 -116 41.5t-73.5 58t-30.5 101.5q0 66 34 113t91.5 70.5t128.5 23.5q98 0 161 -43t84 -112
l-87 -51q-45 109 -162 109q-62 0 -99.5 -27.5t-37.5 -74.5q0 -35 21.5 -57t54 -35.5t88.5 -29.5q74 -22 120.5 -43t79.5 -63t33 -111q0 -67 -32.5 -116zM330 -58q19 -20 19 -61q0 -52 -35 -84.5t-96 -40.5v45q30 8 47 21t21 34h-6q-26 0 -41.5 15t-15.5 37q0 24 16 39t42 15
q30 0 49 -20z" />
    <glyph glyph-name="uni0219" unicode="&#x219;" horiz-adv-x="459" 
d="M163.5 345.5q14.5 -13.5 36.5 -22t62 -19.5q54 -15 88.5 -30t59 -45t24.5 -79q0 -73 -55.5 -117t-144.5 -44q-79 0 -135 34t-75 94l77 45q17 -42 51 -63.5t82 -21.5q43 0 68.5 17.5t25.5 48.5q0 24 -15.5 39.5t-39 24.5t-64.5 21q-54 15 -86.5 29t-56 41.5t-23.5 73.5
q0 48 26.5 84.5t71 55.5t98.5 19q71 0 121.5 -31t67.5 -84l-77 -44q-15 33 -44.5 51t-70.5 18q-39 0 -63 -15.5t-24 -44.5q0 -22 14.5 -35.5zM275 -58q19 -20 19 -61q0 -52 -35 -84.5t-96 -40.5v45q30 8 47 21t21 34h-6q-26 0 -41.5 15t-15.5 37q0 24 16 39t42 15
q30 0 49 -20z" />
    <glyph glyph-name="uni021A" unicode="&#x21a;" horiz-adv-x="581" 
d="M236 637h-225v95h559v-95h-226v-637h-108v637zM335 -58q19 -20 19 -61q0 -52 -35 -84.5t-96 -40.5v45q30 8 47 21t21 34h-6q-26 0 -41.5 15t-15.5 37q0 24 16 39t42 15q30 0 49 -20z" />
    <glyph glyph-name="uni021B" unicode="&#x21b;" horiz-adv-x="386" 
d="M381 21q-44 -32 -117 -32q-74 0 -120.5 41t-46.5 146v255h-88v88h88v150h102v-150h153v-88h-153v-241q0 -108 80 -108q36 0 67 19zM289 -58q19 -20 19 -61q0 -52 -35 -84.5t-96 -40.5v45q31 8 47.5 21t20.5 34h-6q-26 0 -41.5 15t-15.5 37q0 24 16 39t42 15q30 0 49 -20z
" />
    <glyph glyph-name="uni021F" unicode="&#x21f;" horiz-adv-x="588" 
d="M60 928l65 -59l64 59h98l-119 -108h-87l-120 108h99zM472.5 475.5q50.5 -55.5 50.5 -158.5v-317h-103v286q0 72 -27 111t-82 39q-56 0 -95.5 -39.5t-39.5 -112.5v-284h-103v761h103v-317q26 43 68.5 65t94.5 22q83 0 133.5 -55.5z" />
    <glyph glyph-name="uni0237" unicode="&#x237;" horiz-adv-x="249" 
d="M-74.5 -232q-33.5 12 -54.5 36l59 73q14 -15 28 -21.5t31 -6.5q84 0 84 123v547h103v-553q0 -72 -26 -119t-67 -69t-89 -22q-35 0 -68.5 12z" />
    <glyph glyph-name="uni0251" unicode="&#x251;" horiz-adv-x="614" 
d="M541 519v-519h-90q-5 68 -7 85q-28 -48 -73.5 -72t-96.5 -24q-61 0 -114 32t-85 93.5t-32 145.5q0 83 32 144.5t85 94t114 32.5q52 0 97.5 -24t72.5 -72q2 14 7 84h90zM395.5 125q43.5 44 43.5 135q0 90 -43.5 133t-104.5 43q-64 0 -102.5 -46t-38.5 -130
q0 -85 38.5 -132t102.5 -47q61 0 104.5 44z" />
    <glyph glyph-name="uni0259" unicode="&#x259;" horiz-adv-x="550" 
d="M380 499.5q58 -31.5 92.5 -93.5t34.5 -148q0 -84 -34.5 -145t-91.5 -92.5t-124 -31.5q-68 0 -119.5 31.5t-79.5 86t-28 122.5q0 23 5 55h364q-6 78 -47.5 117t-105.5 39q-82 0 -119 -67l-77 44q21 55 77 84.5t125 29.5q70 0 128 -31.5zM348.5 111q37.5 33 48.5 94h-258
q3 -60 36 -93.5t85 -33.5q51 0 88.5 33z" />
    <glyph glyph-name="uni0261" unicode="&#x261;" horiz-adv-x="613" 
d="M541 519v-479q0 -153 -74.5 -218.5t-178.5 -65.5q-80 0 -141.5 34t-84.5 95l81 47q39 -82 145 -82q73 0 112 44.5t39 150.5l3 35q-28 -46 -71.5 -68.5t-94.5 -22.5q-61 0 -114.5 32.5t-86 94t-32.5 144.5q0 84 32.5 145.5t86 93.5t114.5 32q51 0 96 -24t72 -72q6 58 7 84
h90zM395.5 125q43.5 44 43.5 135q0 90 -43.5 133t-104.5 43q-64 0 -102.5 -46t-38.5 -130q0 -85 38.5 -132t102.5 -47q61 0 104.5 44z" />
    <glyph glyph-name="uni0292" unicode="&#x292;" horiz-adv-x="501" 
d="M249 231q112 -7 169.5 -71.5t57.5 -159.5q0 -75 -34 -130t-92 -84.5t-129 -29.5q-84 0 -148 42t-89 124l84 47q19 -59 60 -89.5t95 -30.5q65 0 105 41t40 110q0 65 -44.5 105t-135.5 40q-26 0 -64 -5v83l185 210h-285v86h426v-70z" />
    <glyph glyph-name="uni02BB" unicode="&#x2bb;" horiz-adv-x="233" 
d="M60 552.5q-21 25.5 -21 76.5q0 73 41 123t106 62v-56q-75 -21 -81 -98h8q28 0 45.5 -19t17.5 -47t-17.5 -47.5t-45.5 -19.5q-32 0 -53 25.5z" />
    <glyph glyph-name="uni02BC" unicode="&#x2bc;" horiz-adv-x="253" 
d="M183 788.5q21 -25.5 21 -77.5q0 -73 -41 -122.5t-106 -61.5v55q74 21 80 99q-2 -1 -7 -1q-28 0 -45.5 19.5t-17.5 47.5t17.5 47.5t44.5 19.5q33 0 54 -25.5z" />
    <glyph glyph-name="circumflex" unicode="&#x2c6;" horiz-adv-x="433" 
d="M172 747h88l120 -157h-97l-67 88l-66 -88h-97z" />
    <glyph glyph-name="caron" unicode="&#x2c7;" horiz-adv-x="432" 
d="M150 747l66 -88l66 88h97l-120 -157h-87l-119 157h97z" />
    <glyph glyph-name="uni02C9" unicode="&#x2c9;" horiz-adv-x="396" 
d="M34 845v80h328v-80h-328z" />
    <glyph glyph-name="uni02CA" unicode="&#x2ca;" horiz-adv-x="326" 
d="M41 807l86 121h110l-108 -121h-88z" />
    <glyph glyph-name="uni02CB" unicode="&#x2cb;" horiz-adv-x="320" 
d="M43 928h110l86 -121h-88z" />
    <glyph glyph-name="breve" unicode="&#x2d8;" horiz-adv-x="489" 
d="M127 631.5q-45 42.5 -45 115.5h88q2 -41 21 -63t54 -22q71 0 76 85h88q0 -73 -44.5 -115.5t-119.5 -42.5q-73 0 -118 42.5z" />
    <glyph glyph-name="dotaccent" unicode="&#x2d9;" horiz-adv-x="239" 
d="M73 623q-19 20 -19 47t19 46.5t46 19.5t46 -19.5t19 -46.5t-19 -47t-46 -20t-46 20z" />
    <glyph glyph-name="ring" unicode="&#x2da;" horiz-adv-x="313" 
d="M78 768q32 31 80 31q47 0 78 -31t31 -79q0 -49 -31 -80t-78 -31q-48 0 -80 31.5t-32 79.5t32 79zM122.5 651q13.5 -15 35.5 -15q21 0 34 15t13 38t-12.5 37.5t-34.5 14.5t-35.5 -14.5t-13.5 -37.5t13.5 -38z" />
    <glyph glyph-name="ogonek" unicode="&#x2db;" horiz-adv-x="351" 
d="M293 -193q-43 -51 -118 -51q-55 0 -92.5 28.5t-37.5 83.5q0 54 36.5 92.5t97.5 72.5l57 -33q-57 -32 -83 -60t-26 -61q0 -26 14.5 -38.5t39.5 -12.5q40 0 76 33z" />
    <glyph glyph-name="tilde" unicode="&#x2dc;" horiz-adv-x="454" 
d="M53 608q2 60 31.5 97.5t77.5 37.5q29 0 48 -11.5t38 -31.5q11 -12 19.5 -18t18.5 -6q28 0 36 53h79q-2 -60 -32 -97t-78 -37q-29 0 -48 11.5t-37 31.5q-13 13 -20.5 18.5t-17.5 5.5q-30 0 -37 -54h-78z" />
    <glyph glyph-name="hungarumlaut" unicode="&#x2dd;" horiz-adv-x="464" 
d="M44 590l85 157h104l-107 -157h-82zM204 590l84 157h105l-107 -157h-82z" />
    <glyph glyph-name="uni02F3" unicode="&#x2f3;" horiz-adv-x="600" 
d="M131 131.5q18 31.5 49 50t69 18.5q36 0 67 -18.5t49 -50.5t18 -69q0 -38 -17.5 -69t-48.5 -49.5t-68 -18.5q-38 0 -69 18.5t-49 49.5t-18 69t18 69.5zM191.5 2.5q22.5 -23.5 57.5 -23.5q34 0 55.5 23.5t21.5 59.5t-22 60t-55 24q-35 0 -57.5 -24t-22.5 -60t22.5 -59.5z
" />
    <glyph glyph-name="gravecomb" unicode="&#x300;" horiz-adv-x="0" 
d="M-254 747h109l85 -157h-86z" />
    <glyph glyph-name="acutecomb" unicode="&#x301;" horiz-adv-x="0" 
d="M-254 590l85 157h109l-108 -157h-86z" />
    <glyph glyph-name="uni0302" unicode="&#x302;" horiz-adv-x="0" 
d="M-261 747h88l120 -157h-97l-67 88l-66 -88h-97z" />
    <glyph glyph-name="tildecomb" unicode="&#x303;" horiz-adv-x="0" 
d="M-401 608q2 60 31.5 97.5t77.5 37.5q29 0 48 -11.5t38 -31.5q11 -12 19.5 -18t18.5 -6q28 0 36 53h79q-2 -60 -32 -97t-78 -37q-29 0 -48 11.5t-37 31.5q-13 13 -20.5 18.5t-17.5 5.5q-30 0 -37 -54h-78z" />
    <glyph glyph-name="uni0304" unicode="&#x304;" horiz-adv-x="0" 
d="M-362 628v80h328v-80h-328z" />
    <glyph glyph-name="uni0306" unicode="&#x306;" horiz-adv-x="0" 
d="M-362 631.5q-45 42.5 -45 115.5h88q2 -41 21 -63t54 -22q71 0 76 85h88q0 -73 -44.5 -115.5t-119.5 -42.5q-73 0 -118 42.5z" />
    <glyph glyph-name="uni0307" unicode="&#x307;" horiz-adv-x="0" 
d="M-166 623q-19 20 -19 47t19 46.5t46 19.5t46 -19.5t19 -46.5t-19 -47t-46 -20t-46 20z" />
    <glyph glyph-name="uni0308" unicode="&#x308;" horiz-adv-x="0" 
d="M-209 623q-18 19 -18 46q0 26 18 45t44 19t44.5 -19t18.5 -45q0 -27 -18.5 -46t-44.5 -19t-44 19zM2 623q-18 19 -18 46q0 26 18 45t44 19t44.5 -19t18.5 -45q0 -27 -18.5 -46t-44.5 -19t-44 19z" />
    <glyph glyph-name="hookabovecomb" unicode="&#x309;" horiz-adv-x="0" 
d="M-547 750q35 23 85 23q49 0 80.5 -23t31.5 -68q0 -79 -103 -113l-40 52q30 11 45.5 23t15.5 29q0 15 -12.5 24.5t-31.5 9.5q-26 0 -58 -19z" />
    <glyph glyph-name="uni030A" unicode="&#x30a;" horiz-adv-x="0" 
d="M-235 768q32 31 80 31q47 0 78 -31t31 -79q0 -49 -31 -80t-78 -31q-48 0 -80 31.5t-32 79.5t32 79zM-190.5 651q13.5 -15 35.5 -15q21 0 34 15t13 38t-12.5 37.5t-34.5 14.5t-35.5 -14.5t-13.5 -37.5t13.5 -38z" />
    <glyph glyph-name="uni030C" unicode="&#x30c;" horiz-adv-x="0" 
d="M-282 747l66 -88l66 88h97l-120 -157h-87l-119 157h97z" />
    <glyph glyph-name="uni030F" unicode="&#x30f;" horiz-adv-x="0" 
d="M-556 747h105l84 -157h-82zM-396 747h104l85 -157h-82z" />
    <glyph glyph-name="dotbelowcomb" unicode="&#x323;" horiz-adv-x="0" 
d="M-164 -179.5q-19 19.5 -19 46.5q0 26 19 45.5t46 19.5t46 -19.5t19 -45.5q0 -27 -19.5 -46.5t-45.5 -19.5q-27 0 -46 19.5z" />
    <glyph glyph-name="uni0326" unicode="&#x326;" horiz-adv-x="0" 
d="M-65 -58q19 -20 19 -61q0 -52 -35 -84.5t-96 -40.5v45q30 8 47 21t21 34h-7q-26 0 -41 15t-15 37q0 24 16 39t41 15q31 0 50 -20z" />
    <glyph glyph-name="uni0327" unicode="&#x327;" horiz-adv-x="0" 
d="M-211 27h80l-34 -85q48 0 80 -22.5t32 -64.5q0 -50 -39 -74.5t-99 -24.5q-40 0 -79 11v64q35 -11 73 -11q63 0 63 31q0 16 -16.5 24.5t-44.5 8.5q-24 0 -52 -6l-7 42z" />
    <glyph glyph-name="uni0335" unicode="&#x335;" horiz-adv-x="0" 
d="M-362 618v81h328v-81h-328z" />
    <glyph glyph-name="uni0338" unicode="&#x338;" horiz-adv-x="0" 
d="M-479 -232l364 964h101l-363 -964h-102z" />
    <glyph glyph-name="uni037E" unicode="&#x37e;" horiz-adv-x="275" 
d="M96 416.5q-19 19.5 -19 46.5q0 28 19 47.5t45 19.5q28 0 47 -19.5t19 -47.5q0 -27 -19 -46.5t-47 -19.5q-26 0 -45 19.5zM190 93.5q21 -25.5 21 -76.5q0 -74 -41 -123.5t-105 -61.5v56q74 22 80 98q-3 -1 -8 -1q-28 0 -45.5 19.5t-17.5 47.5t17.5 47.5t45.5 19.5
q32 0 53 -25.5z" />
    <glyph glyph-name="tonos" unicode="&#x384;" horiz-adv-x="301" 
d="M62 590l67 157h109l-90 -157h-86z" />
    <glyph glyph-name="dieresistonos" unicode="&#x385;" horiz-adv-x="600" 
d="M185 590l36 157h92l-58 -157h-70zM59.5 624.5q-17.5 18.5 -17.5 44.5t17.5 44t42.5 18q26 0 44 -18t18 -44t-18 -44.5t-44 -18.5q-25 0 -42.5 18.5zM341 624.5q-18 18.5 -18 44.5t18 44t43 18t43 -18t18 -44t-18 -44.5t-43 -18.5t-43 18.5z" />
    <glyph glyph-name="Alphatonos" unicode="&#x386;" horiz-adv-x="683" 
d="M67 575l35 158h102l-59 -158h-78zM382 732l294 -732h-117l-75 196h-297l-72 -196h-108l283 732h92zM448 290l-116 302l-110 -302h226z" />
    <glyph glyph-name="anoteleia" unicode="&#x387;" horiz-adv-x="242" 
d="M74.5 315q-18.5 20 -18.5 47q0 28 18.5 47.5t45.5 19.5q28 0 47 -19.5t19 -47.5q0 -27 -19.5 -47t-46.5 -20t-45.5 20z" />
    <glyph glyph-name="Epsilontonos" unicode="&#x388;" horiz-adv-x="707" 
d="M6 575l36 158h101l-58 -158h-79zM612 329h-314v-234h362v-95h-470v733h458v-95h-350v-215h314v-94z" />
    <glyph glyph-name="Etatonos" unicode="&#x389;" horiz-adv-x="861" 
d="M6 575l36 158h101l-58 -158h-79zM298 428h371v304h109v-732h-109v332h-371v-332h-108v732h108v-304z" />
    <glyph glyph-name="Iotatonos" unicode="&#x38a;" horiz-adv-x="381" 
d="M6 575l36 158h101l-58 -158h-79zM298 0h-108v732h108v-732z" />
    <glyph glyph-name="Omicrontonos" unicode="&#x38c;" horiz-adv-x="828" 
d="M150 566.5q44 85.5 121 131.5t172 46t172 -46t121 -131.5t44 -199.5q0 -115 -44.5 -200.5t-121 -131.5t-171.5 -46t-172 45.5t-121 131.5t-44 201q0 114 44 199.5zM1 575l35 158h101l-58 -158h-78zM246.5 220.5q27.5 -63.5 78 -98.5t118.5 -35t118 35t77.5 98.5
t27.5 146.5t-27.5 146t-78 98t-117.5 35t-118 -35t-78.5 -98t-27.5 -146t27.5 -146.5z" />
    <glyph glyph-name="Upsilontonos" unicode="&#x38e;" horiz-adv-x="780" 
d="M1 575l35 158h101l-58 -158h-78zM473 410l184 323h117l-252 -430v-303h-108v305l-263 428h127z" />
    <glyph glyph-name="Omegatonos" unicode="&#x38f;" horiz-adv-x="836" 
d="M796 96v-96h-289v109q78 41 119.5 110.5t41.5 167.5q0 119 -57.5 189t-158.5 70t-159 -70t-58 -189q0 -98 41.5 -167.5t119.5 -110.5v-109h-288v96h160q-146 103 -146 296q0 105 43 185t118 123.5t169 43.5t169 -43.5t117.5 -123.5t42.5 -185q0 -193 -146 -296h161z
M10 575l35 158h101l-58 -158h-78z" />
    <glyph glyph-name="iotadieresistonos" unicode="&#x390;" horiz-adv-x="279" 
d="M78 590l36 157h92l-58 -157h-70zM-47.5 624.5q-17.5 18.5 -17.5 44.5t17.5 44t42.5 18q26 0 43.5 -18t17.5 -44t-17.5 -44.5t-43.5 -18.5q-25 0 -42.5 18.5zM234 624.5q-18 18.5 -18 44.5t18 44t43 18t42.5 -18t17.5 -44t-17.5 -44.5t-42.5 -18.5t-43 18.5zM281 6
q-37 -17 -84 -17q-66 0 -96.5 36t-30.5 111v383h103v-368q0 -38 13 -53t39 -15q24 0 43 9z" />
    <glyph glyph-name="Alpha" unicode="&#x391;" horiz-adv-x="683" 
d="M382 732l294 -732h-117l-75 196h-297l-72 -196h-108l283 732h92zM448 290l-116 302l-110 -302h226z" />
    <glyph glyph-name="Beta" unicode="&#x392;" horiz-adv-x="660" 
d="M624 208q0 -99 -69 -153.5t-199 -54.5h-272v732h242q117 0 187 -53.5t70 -146.5q0 -103 -91 -149q132 -41 132 -175zM190 638v-219h120q75 0 117 30t42 81t-42 79.5t-117 28.5h-120zM340 94q85 0 128 30.5t43 86.5t-43 87.5t-128 31.5h-150v-236h150z" />
    <glyph glyph-name="Gamma" unicode="&#x393;" horiz-adv-x="553" 
d="M84 733h458v-96h-351v-637h-107v733z" />
    <glyph glyph-name="uni0394" unicode="&#x394;" horiz-adv-x="686" 
d="M291 733h92l287 -672v-61h-654v61zM137 94h402l-206 501z" />
    <glyph glyph-name="Epsilon" unicode="&#x395;" horiz-adv-x="600" 
d="M505 329h-314v-234h362v-95h-469v733h458v-95h-351v-215h314v-94z" />
    <glyph glyph-name="Zeta" unicode="&#x396;" horiz-adv-x="581" 
d="M546 732v-55l-375 -581h389v-96h-538v56l376 581h-345v95h493z" />
    <glyph glyph-name="Eta" unicode="&#x397;" horiz-adv-x="755" 
d="M191 428h372v304h108v-732h-108v332h-372v-332h-107v732h107v-304z" />
    <glyph glyph-name="Theta" unicode="&#x398;" horiz-adv-x="771" 
d="M91.5 563.5q44.5 85.5 121.5 133t173 47.5q95 0 172.5 -47.5t122 -133.5t44.5 -196q0 -111 -44.5 -197t-122 -133.5t-172.5 -47.5q-96 0 -173 47t-121.5 133t-44.5 198q0 111 44.5 196.5zM188 220.5q28 -63.5 79 -98.5t119 -35t118.5 35t78 98.5t27.5 146.5t-27.5 146.5
t-78 98.5t-118.5 35t-119 -35t-79 -98.5t-28 -146.5t28 -146.5zM514 324h-257v95h257v-95z" />
    <glyph glyph-name="Iota" unicode="&#x399;" horiz-adv-x="275" 
d="M191 0h-107v732h107v-732z" />
    <glyph glyph-name="Kappa" unicode="&#x39a;" horiz-adv-x="699" 
d="M377 424l318 -424h-138l-256 343l-110 -116v-227h-107v732h107v-373l340 373h138z" />
    <glyph glyph-name="Lambda" unicode="&#x39b;" horiz-adv-x="677" 
d="M550 0l-221 585l-211 -585h-111l280 732h91l292 -732h-120z" />
    <glyph glyph-name="Mu" unicode="&#x39c;" horiz-adv-x="869" 
d="M700 732h85v-732h-104v530l-216 -339h-61l-218 341v-532h-102v732h90l263 -417z" />
    <glyph glyph-name="Nu" unicode="&#x39d;" horiz-adv-x="747" 
d="M173 732l390 -544v544h100v-732h-89l-390 545v-545h-100v732h89z" />
    <glyph glyph-name="Xi" unicode="&#x39e;" horiz-adv-x="617" 
d="M574 635h-531v98h531v-98zM532 328h-447v98h447v-98zM574 0h-531v98h531v-98z" />
    <glyph glyph-name="Omicron" unicode="&#x39f;" horiz-adv-x="770" 
d="M91 566.5q44 85.5 121 131.5t172 46t172 -46t121 -131.5t44 -199.5q0 -115 -44.5 -200.5t-121 -131.5t-171.5 -46t-172 45.5t-121 131.5t-44 201q0 114 44 199.5zM188.5 220.5q27.5 -63.5 77.5 -98.5t118 -35t118 35t77.5 98.5t27.5 146.5t-27.5 146t-78 98t-117.5 35
t-117.5 -35t-78 -98t-27.5 -146t27.5 -146.5z" />
    <glyph glyph-name="Pi" unicode="&#x3a0;" horiz-adv-x="751" 
d="M84 732h583v-732h-108v636h-368v-636h-107v732z" />
    <glyph glyph-name="Rho" unicode="&#x3a1;" horiz-adv-x="608" 
d="M318 732q78 0 139 -29t94.5 -82t33.5 -121t-33.5 -120.5t-94 -81.5t-139.5 -29h-127v-269h-107v732h234zM304 362q79 0 122.5 37.5t43.5 100.5t-43.5 101t-122.5 38h-113v-277h113z" />
    <glyph glyph-name="Sigma" unicode="&#x3a3;" horiz-adv-x="570" 
d="M174 635l216 -264l-229 -273h387v-98h-524v85l239 285l-227 278v85h495v-98h-357z" />
    <glyph glyph-name="Tau" unicode="&#x3a4;" horiz-adv-x="582" 
d="M11 732h560v-95h-226v-637h-109v637h-225v95z" />
    <glyph glyph-name="Upsilon" unicode="&#x3a5;" horiz-adv-x="636" 
d="M329 410l184 323h117l-252 -430v-303h-108v305l-263 428h127z" />
    <glyph glyph-name="Phi" unicode="&#x3a6;" horiz-adv-x="815" 
d="M736.5 222.5q-42.5 -62.5 -115 -98.5t-160.5 -45v-79h-106v79q-89 8 -161.5 44t-115 98t-42.5 146q0 83 42.5 145t115 98t161.5 44v78h106v-78q89 -9 161 -45t114.5 -98t42.5 -144t-42.5 -144.5zM205 234.5q56 -47.5 150 -56.5v378q-94 -10 -150 -57t-56 -132t56 -132.5z
M461 178q93 9 148.5 56.5t55.5 132.5t-55.5 132t-148.5 57v-378z" />
    <glyph glyph-name="Chi" unicode="&#x3a7;" horiz-adv-x="677" 
d="M658 732l-258 -360l267 -372h-132l-201 285l-200 -285h-124l266 371l-258 361h132l192 -275l192 275h124z" />
    <glyph glyph-name="Psi" unicode="&#x3a8;" horiz-adv-x="803" 
d="M642 732h108v-246q0 -142 -80 -214t-216 -84v-188h-107v189q-134 11 -213.5 82.5t-79.5 214.5v246h107v-227q0 -109 49.5 -158.5t136.5 -58.5v444h107v-444q88 9 138 58.5t50 158.5v227z" />
    <glyph glyph-name="uni03A9" unicode="&#x3a9;" horiz-adv-x="768" 
d="M728 96v-96h-288v109q78 41 119.5 110.5t41.5 167.5q0 119 -58 189t-159 70t-158.5 -70t-57.5 -189q0 -194 161 -278v-109h-289v96h161q-147 104 -147 296q0 105 43 185t118 123.5t169 43.5t169 -43.5t118 -123.5t43 -185q0 -192 -146 -296h160z" />
    <glyph glyph-name="Iotadieresis" unicode="&#x3aa;" horiz-adv-x="275" 
d="M-12 835.5q-18 15.5 -18 38.5t18 38.5t43 15.5q27 0 45.5 -15.5t18.5 -38.5t-18.5 -38.5t-45.5 -15.5q-25 0 -43 15.5zM199 835.5q-18 15.5 -18 38.5t18 38.5t44 15.5t44.5 -15.5t18.5 -38.5q0 -22 -18.5 -38t-44.5 -16t-44 15.5zM191 0h-107v732h107v-732z" />
    <glyph glyph-name="Upsilondieresis" unicode="&#x3ab;" horiz-adv-x="636" 
d="M174.5 836.5q-18.5 15.5 -18.5 37.5t18 38t44 16q27 0 45 -15.5t18 -38.5q0 -22 -18 -37.5t-45 -15.5q-25 0 -43.5 15.5zM386 836.5q-18 15.5 -18 37.5q0 23 18 38.5t44 15.5t44.5 -16t18.5 -38t-18.5 -37.5t-44.5 -15.5t-44 15.5zM329 410l184 323h117l-252 -430v-303
h-108v305l-263 428h127z" />
    <glyph glyph-name="alphatonos" unicode="&#x3ac;" horiz-adv-x="626" 
d="M308 748h109l-90 -158h-86zM624 4q-27 -15 -68 -15q-51 0 -78 23t-35 70q-29 -47 -74 -70t-95 -23q-61 0 -114 32t-85 93.5t-32 145.5q0 83 32 144.5t85 94t114 32.5q52 0 97 -24t73 -72q2 14 7 84h90v-376q0 -34 10.5 -47.5t32.5 -13.5q17 0 28 5zM395.5 125
q43.5 44 43.5 135q0 90 -43.5 133t-104.5 43q-64 0 -102.5 -46t-38.5 -130q0 -85 38.5 -132t102.5 -47q61 0 104.5 44z" />
    <glyph glyph-name="epsilontonos" unicode="&#x3ad;" horiz-adv-x="467" 
d="M277 748h109l-90 -158h-86zM468 112q-22 -59 -78.5 -91t-136.5 -32q-63 0 -112 19.5t-76 54t-27 79.5q0 49 31.5 83.5t89.5 47.5q-49 16 -76 46.5t-27 70.5q0 41 26.5 73t73.5 50t105 18q71 0 120.5 -27.5t68.5 -78.5l-79 -47q-28 61 -111 61q-43 0 -69.5 -16.5
t-26.5 -45.5q0 -28 28 -46t86 -18h47v-86h-45q-70 0 -102.5 -20t-32.5 -56t29.5 -53.5t75.5 -17.5q101 0 139 78z" />
    <glyph glyph-name="etatonos" unicode="&#x3ae;" horiz-adv-x="609" 
d="M332 747h109l-90 -157h-86zM494 476q50 -55 50 -159v-549h-104v518q0 69 -26 109.5t-82 40.5t-95.5 -39.5t-39.5 -112.5v-284h-103v376q0 34 -10.5 47.5t-32.5 13.5q-14 0 -28 -6l-12 85q27 15 69 15q96 0 113 -93q26 46 69.5 69.5t97.5 23.5q84 0 134 -55z" />
    <glyph glyph-name="iotatonos" unicode="&#x3af;" horiz-adv-x="279" 
d="M72 590l67 157h109l-90 -157h-86zM281 6q-37 -17 -84 -17q-66 0 -96.5 36t-30.5 111v383h103v-368q0 -38 13 -53t39 -15q24 0 43 9z" />
    <glyph glyph-name="upsilondieresistonos" unicode="&#x3b0;" horiz-adv-x="562" 
d="M236 590l36 157h92l-58 -157h-70zM110.5 624.5q-17.5 18.5 -17.5 44.5t17.5 44t42.5 18q26 0 44 -18t18 -44t-18 -44.5t-44 -18.5q-25 0 -42.5 18.5zM392 624.5q-18 18.5 -18 44.5t18 44t43 18t43 -18t18 -44t-18 -44.5t-43 -18.5t-43 18.5zM66 519h102v-280
q0 -156 111 -156q133 0 133 203q0 118 -45 233h107q43 -117 43 -233q0 -143 -66 -220t-178 -77q-99 0 -153 58.5t-54 174.5v297z" />
    <glyph glyph-name="alpha" unicode="&#x3b1;" horiz-adv-x="626" 
d="M624 4q-27 -15 -68 -15q-51 0 -78 23t-35 70q-29 -47 -73.5 -70t-95.5 -23q-61 0 -114 32t-85 93.5t-32 145.5q0 83 32 144.5t85 94t114 32.5q52 0 97.5 -24t72.5 -72q2 14 7 84h90v-376q0 -34 10.5 -47.5t32.5 -13.5q17 0 28 5zM395.5 125q43.5 44 43.5 135
q0 90 -43.5 133t-104.5 43q-64 0 -102.5 -46t-38.5 -130q0 -85 38.5 -132t102.5 -47q61 0 104.5 44z" />
    <glyph glyph-name="beta" unicode="&#x3b2;" horiz-adv-x="604" 
d="M532 332.5q37 -49.5 37 -123.5q0 -65 -28 -115t-79 -77.5t-120 -27.5q-55 0 -98 18.5t-68 57.5v-297h-103v736q0 85 30.5 145t83 91t119.5 31q62 0 111.5 -26.5t77.5 -74t28 -107.5q0 -55 -24 -96.5t-71 -64.5q67 -20 104 -69.5zM426 116.5q35 34.5 35 96.5
q0 66 -42.5 103t-116.5 37h-41v86h19q71 0 103 32.5t32 88.5q0 54 -28.5 85t-81.5 31q-64 0 -96.5 -47t-32.5 -130v-225q0 -95 44 -143.5t112 -48.5q59 0 94 34.5z" />
    <glyph glyph-name="gamma" unicode="&#x3b3;" horiz-adv-x="530" 
d="M438.5 213.5q-42.5 -105.5 -139.5 -227.5v-218h-103v198l-188 553h116l135 -443q64 99 91 181.5t27 162.5q0 39 -10 99h104q10 -62 10 -98q0 -102 -42.5 -207.5z" />
    <glyph glyph-name="delta" unicode="&#x3b4;" horiz-adv-x="594" 
d="M435 503q116 -101 116 -240q0 -81 -35 -143.5t-93 -96.5t-125 -34q-68 0 -126.5 34t-93.5 96t-35 141q0 74 31 132t84 91.5t116 38.5l-179 156v74h377v-87h-221zM402 130q41 48 41 130q0 55 -19 95t-52 61.5t-74 21.5q-64 0 -105.5 -48t-41.5 -130q0 -83 41.5 -130.5
t105.5 -47.5q63 0 104 48z" />
    <glyph glyph-name="epsilon" unicode="&#x3b5;" horiz-adv-x="467" 
d="M468 112q-22 -59 -78.5 -91t-136.5 -32q-63 0 -112 19.5t-76 54t-27 79.5q0 49 31 83.5t89 47.5q-48 15 -75 46t-27 71q0 41 26.5 73t73.5 50t105 18q71 0 120.5 -27.5t68.5 -78.5l-79 -47q-28 61 -111 61q-43 0 -69.5 -16.5t-26.5 -45.5q0 -28 28 -46t86 -18h47v-86h-45
q-70 0 -102.5 -20t-32.5 -56t29.5 -53.5t75.5 -17.5q101 0 139 78z" />
    <glyph glyph-name="zeta" unicode="&#x3b6;" horiz-adv-x="497" 
d="M456 20.5q41 -31.5 41 -87.5q0 -46 -26 -78.5t-76 -61.5l-52 58q27 17 37.5 32t10.5 32q0 28 -26.5 45t-85.5 32q-66 16 -116 41.5t-83 75.5t-33 129q0 113 71.5 226.5t208.5 209.5h-255v87h405v-71q-322 -214 -322 -437q0 -58 22.5 -92t57 -50.5t90.5 -32.5
q90 -26 131 -57.5z" />
    <glyph glyph-name="eta" unicode="&#x3b7;" horiz-adv-x="609" 
d="M494 476q50 -55 50 -159v-549h-104v518q0 69 -26 109.5t-82 40.5t-95.5 -39.5t-39.5 -112.5v-284h-103v376q0 34 -10.5 47.5t-32.5 13.5q-14 0 -28 -6l-12 85q27 15 69 15q50 0 77.5 -23.5t35.5 -70.5q26 47 69.5 70.5t97.5 23.5q84 0 134 -55z" />
    <glyph glyph-name="theta" unicode="&#x3b8;" horiz-adv-x="601" 
d="M432 726.5q57 -46.5 88 -134.5t31 -211t-31 -211t-88 -134.5t-134 -46.5t-134.5 46.5t-89 134.5t-31.5 211q0 122 31.5 210.5t89 135t134.5 46.5t134 -46.5zM195 614.5q-37 -66.5 -43 -183.5h290q-6 117 -42.5 183.5t-101.5 66.5q-66 0 -103 -66.5zM402 151.5
q36 70.5 41 193.5h-292q5 -123 42 -193.5t105 -70.5t104 70.5z" />
    <glyph glyph-name="iota" unicode="&#x3b9;" horiz-adv-x="279" 
d="M281 6q-37 -17 -84 -17q-66 0 -96.5 36t-30.5 111v383h103v-368q0 -38 13 -53t39 -15q24 0 43 9z" />
    <glyph glyph-name="kappa" unicode="&#x3ba;" horiz-adv-x="538" 
d="M532 0h-125l-149 238l-82 -98v-140h-103v519h103v-248l144 176q36 44 66 64t67 20q45 0 70 -25l-33 -76q-14 8 -32 8q-16 0 -31 -9t-37 -35l-66 -77z" />
    <glyph glyph-name="lambda" unicode="&#x3bb;" horiz-adv-x="575" 
d="M591 6q-37 -17 -83 -17q-54 0 -83 23.5t-45 75.5l-101 311l-164 -399h-107l231 508l-43 116q-12 31 -25 43t-32 12q-30 0 -61 -28l-33 76q49 46 116 46q51 0 79 -27t49 -85l185 -521q12 -32 26 -45t34 -13q17 0 45 10z" />
    <glyph glyph-name="uni03BC" unicode="&#x3bc;" horiz-adv-x="607" 
d="M605 4q-27 -15 -66 -15q-49 0 -75.5 23.5t-34.5 71.5q-24 -47 -64 -71t-89 -24q-62 0 -100 34v-255h-103v751h103v-286q0 -71 26.5 -110.5t81.5 -39.5q56 0 95.5 40t39.5 113v283h103v-376q0 -34 10.5 -47.5t32.5 -13.5q17 0 28 5z" />
    <glyph glyph-name="nu" unicode="&#x3bd;" horiz-adv-x="516" 
d="M471 519q10 -59 10 -93q0 -99 -47.5 -202t-157.5 -224h-79l-189 519h116l134 -411q65 93 92 168t27 149q0 38 -10 94h104z" />
    <glyph glyph-name="xi" unicode="&#x3be;" horiz-adv-x="470" 
d="M442.5 24q39.5 -33 39.5 -90q0 -46 -26 -79t-75 -62l-53 59q27 17 37.5 32t10.5 32q0 27 -24 44.5t-72 30.5q-119 31 -178.5 78t-59.5 131q0 69 40.5 119.5t110.5 74.5q-118 31 -118 130q0 50 28 88t75 62h-127v85h398v-76q-144 -5 -206 -46t-62 -97q0 -46 39 -74
t117 -28h94v-86h-75q-107 0 -157 -38t-50 -98q0 -41 21.5 -66.5t57.5 -41t98 -31.5q77 -20 116.5 -53z" />
    <glyph glyph-name="omicron" unicode="&#x3bf;" horiz-adv-x="594" 
d="M78 401q35 62 93.5 96t126.5 34q67 0 125 -34t93 -96t35 -141t-35 -141t-93 -96t-125 -34q-68 0 -126.5 34t-93.5 96t-35 141t35 141zM192.5 130q41.5 -48 104.5 -48q64 0 105 48t41 130t-41.5 130t-104.5 48t-104.5 -48t-41.5 -130t41.5 -130z" />
    <glyph glyph-name="pi" unicode="&#x3c0;" horiz-adv-x="611" 
d="M597 6q-36 -17 -83 -17q-66 0 -96.5 36t-30.5 111v295h-183v-431h-102v431h-94v88h577v-88h-96v-280q0 -38 13.5 -53t39.5 -15q24 0 43 9z" />
    <glyph glyph-name="rho" unicode="&#x3c1;" horiz-adv-x="618" 
d="M451.5 499q56.5 -32 90 -93.5t33.5 -145.5t-32.5 -145.5t-86 -93.5t-116.5 -32q-47 0 -91 19t-74 56v-296h-103v469q0 94 35 160.5t93 100t127 33.5q68 0 124.5 -32zM397.5 107.5q32.5 20.5 51.5 60t19 93.5q0 55 -19 95t-51.5 61t-72.5 21t-74 -21t-55 -61.5t-21 -94.5
q0 -89 42.5 -131.5t107.5 -42.5q40 0 72.5 20.5z" />
    <glyph glyph-name="uni03C2" unicode="&#x3c2;" horiz-adv-x="490" 
d="M419 18.5q37 -32.5 37 -85.5q0 -46 -26 -78.5t-75 -61.5l-53 58q27 17 37.5 32.5t10.5 33.5q0 27 -19 43.5t-63 28.5q-107 29 -166 91t-59 178q0 82 35.5 144t95 95.5t127.5 33.5q62 0 112.5 -28t73.5 -83l-79 -46q-17 32 -45 48t-63 16q-41 0 -75 -21.5t-54 -61.5
t-20 -94q0 -81 37.5 -122.5t118.5 -64.5q75 -23 112 -55.5z" />
    <glyph glyph-name="sigma" unicode="&#x3c3;" horiz-adv-x="620" 
d="M616 519v-88h-142q36 -33 56.5 -79t20.5 -103q0 -75 -35 -134.5t-93 -92.5t-125 -33q-68 0 -126.5 33.5t-93.5 93.5t-35 138t36 138.5t99 93.5t140 33h298zM402 128q41 46 41 126t-41 126t-104 46q-64 0 -105.5 -46t-41.5 -126t41.5 -126t105.5 -46q63 0 104 46z" />
    <glyph glyph-name="tau" unicode="&#x3c4;" horiz-adv-x="475" 
d="M463 519v-88h-183v-280q0 -38 13 -53t39 -15q24 0 43 9l13 -86q-37 -17 -84 -17q-66 0 -96.5 36t-30.5 111v295h-169v88h455z" />
    <glyph glyph-name="upsilon" unicode="&#x3c5;" horiz-adv-x="562" 
d="M66 519h102v-280q0 -156 111 -156q133 0 133 203q0 118 -45 233h107q43 -117 43 -233q0 -143 -66 -220t-178 -77q-99 0 -153 58.5t-54 174.5v297z" />
    <glyph glyph-name="phi" unicode="&#x3c6;" horiz-adv-x="747" 
d="M666.5 124.5q-37.5 -57.5 -101 -91t-140.5 -42.5v-223h-101v223q-78 9 -141.5 42t-101.5 91t-38 136t38 135.5t101.5 91t141.5 41.5v163h101v-163q77 -8 140.5 -41.5t101 -91t37.5 -135.5t-37.5 -135.5zM198 139.5q48 -44.5 126 -54.5v349q-77 -10 -125.5 -54t-48.5 -120
t48 -120.5zM425 86q77 10 124 54t47 120t-47.5 119.5t-123.5 53.5v-347z" />
    <glyph glyph-name="chi" unicode="&#x3c7;" horiz-adv-x="511" 
d="M259 245l142 274h107l-200 -371l200 -380h-111l-143 277l-142 -277h-109l201 374l-201 377h113z" />
    <glyph glyph-name="psi" unicode="&#x3c8;" horiz-adv-x="721" 
d="M613.5 81q-65.5 -75 -193.5 -89v-224h-102v222q-126 9 -189 74t-63 203v252h102v-238q0 -97 37 -142t113 -53v605h102v-603q76 12 115.5 61.5t39.5 143.5q0 49 -11 107.5t-36 118.5h107q44 -116 44 -230q0 -133 -65.5 -208z" />
    <glyph glyph-name="omega" unicode="&#x3c9;" horiz-adv-x="777" 
d="M633 519q48 -53 74 -123t26 -151q0 -83 -26 -140.5t-71 -86.5t-100 -29q-50 0 -88 24.5t-59 72.5q-22 -49 -60 -73t-88 -24q-55 0 -100 29t-71.5 86.5t-26.5 140.5q0 81 26 150.5t74 123.5h112q-52 -59 -79 -128t-27 -144q0 -78 28 -122t73 -44q41 0 64.5 36.5
t23.5 128.5v130h101v-130q0 -92 23.5 -128.5t63.5 -36.5q46 0 73.5 43.5t27.5 122.5q0 75 -26.5 144t-78.5 128h111z" />
    <glyph glyph-name="iotadieresis" unicode="&#x3ca;" horiz-adv-x="279" 
d="M-28 623q-18 19 -18 46q0 26 18 45t44 19t44.5 -19t18.5 -45q0 -27 -18.5 -46t-44.5 -19t-44 19zM183 623q-18 19 -18 46q0 26 18 45t44 19t44.5 -19t18.5 -45q0 -27 -18.5 -46t-44.5 -19t-44 19zM281 6q-37 -17 -84 -17q-66 0 -96.5 36t-30.5 111v383h103v-368
q0 -38 13 -53t39 -15q24 0 43 9z" />
    <glyph glyph-name="upsilondieresis" unicode="&#x3cb;" horiz-adv-x="562" 
d="M130 623q-18 19 -18 46q0 26 18.5 45t43.5 19q26 0 44.5 -19t18.5 -45q0 -27 -18.5 -46t-44.5 -19t-44 19zM341.5 623.5q-18.5 19.5 -18.5 45.5t18.5 45t43.5 19q26 0 44.5 -19t18.5 -45q0 -27 -18.5 -46t-44.5 -19q-25 0 -43.5 19.5zM66 519h102v-280q0 -156 111 -156
q133 0 133 203q0 118 -45 233h107q43 -117 43 -233q0 -143 -66 -220t-178 -77q-99 0 -153 58.5t-54 174.5v297z" />
    <glyph glyph-name="omicrontonos" unicode="&#x3cc;" horiz-adv-x="594" 
d="M248 589l67 158h109l-90 -158h-86zM78 401q35 62 93.5 96t126.5 34q67 0 125 -34t93 -96t35 -141t-35 -141t-93 -96t-125 -34q-68 0 -126.5 34t-93.5 96t-35 141t35 141zM192.5 130q41.5 -48 104.5 -48q64 0 105 48t41 130t-41.5 130t-104.5 48t-104.5 -48t-41.5 -130
t41.5 -130z" />
    <glyph glyph-name="upsilontonos" unicode="&#x3cd;" horiz-adv-x="562" 
d="M230 590l67 157h109l-90 -157h-86zM66 519h102v-280q0 -156 111 -156q133 0 133 203q0 118 -45 233h107q43 -117 43 -233q0 -143 -66 -220t-178 -77q-99 0 -153 58.5t-54 174.5v297z" />
    <glyph glyph-name="omegatonos" unicode="&#x3ce;" horiz-adv-x="777" 
d="M406 747h109l-90 -157h-86zM633 519q48 -53 74 -123t26 -151q0 -83 -26 -140.5t-71 -86.5t-100 -29q-50 0 -88 24t-60 72q-21 -47 -59 -71.5t-88 -24.5q-55 0 -100 29t-71.5 86.5t-26.5 140.5q0 81 26 150.5t74 123.5h112q-52 -59 -79 -128t-27 -144q0 -78 28 -122
t73 -44q41 0 64.5 36.5t23.5 128.5v130h101v-130q0 -92 23.5 -128.5t63.5 -36.5q46 0 73.5 43.5t27.5 122.5q0 75 -26.5 144t-78.5 128h111z" />
    <glyph glyph-name="uni03D1" unicode="&#x3d1;" horiz-adv-x="605" 
d="M592 429v-85h-82q-5 -173 -66 -264t-179 -91q-93 0 -153 56t-75 146l101 37q9 -67 41.5 -107t86.5 -40q129 0 137 263h-69q-157 0 -231 49t-74 148q0 64 27.5 117t79 84t119.5 31q112 0 178.5 -89.5t75.5 -254.5h83zM154 485.5q17 -26.5 62.5 -41.5t128.5 -15h57
q-5 124 -42.5 188t-106.5 64q-52 0 -84 -35.5t-32 -95.5q0 -38 17 -64.5z" />
    <glyph glyph-name="uni03D2" unicode="&#x3d2;" horiz-adv-x="660" 
d="M656 733v-96h-13q-70 0 -128 -59t-91 -155.5t-33 -204.5v-218h-108v223q0 146 -74 280t-204 230h150q65 -55 115 -126.5t75 -154.5q23 83 65 146.5t98.5 99t119.5 35.5h28z" />
    <glyph glyph-name="uni03D6" unicode="&#x3d6;" horiz-adv-x="812" 
d="M17 519h778v-87h-103q59 -91 59 -205q0 -78 -26 -132t-70.5 -80t-99.5 -26q-51 0 -89.5 24t-59.5 73q-22 -49 -60.5 -73t-89.5 -24q-55 0 -99.5 26t-70.5 80t-26 132q0 114 59 205h-102v87zM582 432h-353q-63 -91 -63 -198q0 -73 28 -113t73 -40q88 0 88 165v92h101v-92
q0 -165 88 -165q45 0 73 40t28 113q0 107 -63 198z" />
    <glyph glyph-name="uni0400" unicode="&#x400;" horiz-adv-x="600" 
d="M154 928h111l85 -121h-87zM505 329h-314v-234h362v-95h-469v733h458v-95h-351v-215h314v-94z" />
    <glyph glyph-name="uni0401" unicode="&#x401;" horiz-adv-x="600" 
d="M162 836q-18 16 -18 38t18 38t44 16q27 0 45 -15.5t18 -38.5t-18 -38.5t-45 -15.5q-26 0 -44 16zM373 836q-18 16 -18 38t18 38t44 16q27 0 45 -15.5t18 -38.5t-18 -38.5t-45 -15.5q-26 0 -44 16zM505 329h-314v-234h362v-95h-469v733h458v-95h-351v-215h314v-94z" />
    <glyph glyph-name="uni0402" unicode="&#x402;" horiz-adv-x="841" 
d="M682 433.5q59 -27.5 93.5 -82t34.5 -132.5t-36 -132t-99 -78.5t-143 -19.5v96q78 -2 121.5 30t43.5 103q0 68 -39 107t-114 39q-50 0 -95 -17.5t-74.5 -57t-29.5 -100.5v-189h-109v637h-225v95h560v-95h-226v-257q36 41 89.5 61t115.5 20q73 0 132 -27.5z" />
    <glyph glyph-name="uni0403" unicode="&#x403;" horiz-adv-x="552" 
d="M272 803l85 125h109l-108 -125h-86zM84 733h458v-96h-351v-637h-107v733z" />
    <glyph glyph-name="uni0404" unicode="&#x404;" horiz-adv-x="654" 
d="M552 196l88 -51q-29 -71 -97 -113.5t-157 -42.5q-94 0 -171.5 47.5t-122.5 133.5t-45 197t45 197t122.5 133t171.5 47q89 0 157 -42.5t97 -113.5l-88 -51q-53 110 -169 110q-88 0 -147.5 -61.5t-71.5 -166.5h290v-93h-291q10 -110 69.5 -175t150.5 -65q116 0 169 110z
" />
    <glyph glyph-name="uni0405" unicode="&#x405;" horiz-adv-x="579" 
d="M522.5 88.5q-32.5 -48.5 -90 -74t-132.5 -25.5q-105 0 -183 49.5t-103 132.5l87 50q26 -64 77 -99t125 -35q65 0 101 27.5t36 77.5q0 40 -23 65.5t-57 40.5t-94 34q-72 22 -115.5 42.5t-74.5 60t-31 103.5q0 66 34 112.5t91.5 70t128.5 23.5q98 0 161 -43t84 -112
l-87 -51q-45 109 -162 109q-62 0 -99 -27.5t-37 -73.5q0 -35 22 -58t54 -36.5t90 -32.5q74 -23 119.5 -44.5t78 -63t32.5 -108.5q0 -66 -32.5 -114.5z" />
    <glyph glyph-name="uni0406" unicode="&#x406;" horiz-adv-x="275" 
d="M191 0h-107v732h107v-732z" />
    <glyph glyph-name="uni0407" unicode="&#x407;" horiz-adv-x="275" 
d="M-12 835.5q-18 15.5 -18 38.5t18 38.5t43 15.5q27 0 45.5 -15.5t18.5 -38.5t-18.5 -38.5t-45.5 -15.5q-25 0 -43 15.5zM199 835.5q-18 15.5 -18 38.5t18 38.5t44 15.5t44.5 -15.5t18.5 -38.5q0 -22 -18.5 -38t-44.5 -16t-44 15.5zM191 0h-107v732h107v-732z" />
    <glyph glyph-name="uni0408" unicode="&#x408;" horiz-adv-x="479" 
d="M69 23q-52 34 -69 105l86 48q26 -89 106 -89q54 0 78 39t24 116v490h108v-501q0 -126 -59 -184t-151 -58q-71 0 -123 34z" />
    <glyph glyph-name="uni0409" unicode="&#x409;" horiz-adv-x="1128" 
d="M829 433q130 0 199.5 -58t69.5 -160t-69.5 -158.5t-199.5 -56.5h-272v636h-296l-16 -393q-5 -99 -28 -153.5t-70 -77.5t-128 -23v98q45 0 69.5 15.5t35 51t13.5 101.5l21 477l506 1v-300h165zM813 94q85 0 128 32.5t43 88.5q0 57 -43.5 90.5t-127.5 33.5h-149v-245h149z
" />
    <glyph glyph-name="uni040A" unicode="&#x40a;" horiz-adv-x="1136" 
d="M836 428q130 0 199.5 -56.5t69.5 -158.5t-69 -157.5t-200 -55.5h-273v332h-372v-332h-107v732h107v-304h372v304h108v-304h165zM821 94q85 0 127.5 31.5t42.5 87.5t-43 88.5t-127 32.5h-150v-240h150z" />
    <glyph glyph-name="uni040B" unicode="&#x40b;" horiz-adv-x="829" 
d="M717 400q67 -61 67 -183v-217h-107v193q0 87 -36.5 128t-113.5 41q-78 0 -130 -41t-52 -129v-192h-109v637h-225v95h560v-95h-226v-252q33 39 82 57.5t110 18.5q113 0 180 -61z" />
    <glyph glyph-name="uni040C" unicode="&#x40c;" horiz-adv-x="682" 
d="M314 807l85 121h111l-109 -121h-87zM390 375l288 -375h-140l-241 324h-106v-324h-107v732h107v-312h111l235 312h124z" />
    <glyph glyph-name="uni040D" unicode="&#x40d;" horiz-adv-x="747" 
d="M230 928h109l84 -125h-86zM574 733h89v-732h-100v549l-390 -549h-89v732h100v-550z" />
    <glyph glyph-name="uni040E" unicode="&#x40e;" horiz-adv-x="636" 
d="M207 839.5q-43 32.5 -43 88.5h88q2 -31 20.5 -48t51.5 -17q67 0 72 65h88q0 -56 -42.5 -88.5t-117.5 -32.5q-74 0 -117 32.5zM331 324l184 409h115l-254 -531q-53 -114 -108 -163.5t-131 -49.5q-58 0 -92 24v100q40 -26 87 -26q44 0 74.5 25.5t68.5 95.5l-268 525h124z
" />
    <glyph glyph-name="uni040F" unicode="&#x40f;" horiz-adv-x="751" 
d="M191 96h368v636h108v-732h-241l-5 -172h-90l-5 172h-242v732h107v-636z" />
    <glyph glyph-name="uni0410" unicode="&#x410;" horiz-adv-x="683" 
d="M382 732l294 -732h-117l-75 196h-297l-72 -196h-108l283 732h92zM448 290l-116 302l-110 -302h226z" />
    <glyph glyph-name="uni0411" unicode="&#x411;" horiz-adv-x="660" 
d="M356 428q129 0 198.5 -57.5t69.5 -157.5t-69 -156.5t-199 -56.5h-272v733h470v-95h-363v-210h165zM340 94q85 0 128 31.5t43 87.5t-43.5 89t-127.5 33h-149v-241h149z" />
    <glyph glyph-name="uni0412" unicode="&#x412;" horiz-adv-x="660" 
d="M624 208q0 -99 -69 -153.5t-199 -54.5h-272v732h242q117 0 187 -53.5t70 -146.5q0 -103 -91 -149q132 -41 132 -175zM190 638v-219h120q75 0 117 30t42 81t-42 79.5t-117 28.5h-120zM340 94q85 0 128 30.5t43 86.5t-43 87.5t-128 31.5h-150v-236h150z" />
    <glyph glyph-name="uni0413" unicode="&#x413;" horiz-adv-x="553" 
d="M84 733h458v-96h-351v-637h-107v733z" />
    <glyph glyph-name="uni0414" unicode="&#x414;" horiz-adv-x="790" 
d="M671 96h87l-9 -268h-90l-5 172h-537l-5 -172h-90l-9 268h41q46 0 74.5 27t45 86.5t23.5 160.5l24 362h450v-636zM563 96v540h-241l-19 -277q-6 -96 -22.5 -160.5t-46.5 -102.5h329z" />
    <glyph glyph-name="uni0415" unicode="&#x415;" horiz-adv-x="600" 
d="M505 329h-314v-234h362v-95h-469v733h458v-95h-351v-215h314v-94z" />
    <glyph glyph-name="uni0416" unicode="&#x416;" horiz-adv-x="1042" 
d="M771 375l267 -375h-139l-223 324h-103v-324h-107v324h-106l-223 -324h-136l267 375l-250 357h126l217 -312h105v312h107v-312h108l217 312h123z" />
    <glyph glyph-name="uni0417" unicode="&#x417;" horiz-adv-x="589" 
d="M513 319.5q35 -47.5 35 -114.5q0 -66 -32 -114.5t-91 -75t-138 -26.5q-98 0 -165 41.5t-95 126.5l86 49q22 -62 67 -91.5t106 -29.5q68 0 108 34t40 91q0 59 -47.5 91t-142.5 32h-29l1 94h36q76 0 113 33.5t37 83.5q0 48 -33.5 76t-88.5 28q-111 0 -157 -122l-85 49
q28 85 92.5 127.5t156.5 42.5q72 0 124 -25t79 -69t27 -100q0 -53 -27 -96t-83 -67q71 -21 106 -68.5z" />
    <glyph glyph-name="uni0418" unicode="&#x418;" horiz-adv-x="747" 
d="M574 733h89v-732h-100v549l-390 -549h-89v732h100v-550z" />
    <glyph glyph-name="uni0419" unicode="&#x419;" horiz-adv-x="747" 
d="M256.5 839.5q-42.5 32.5 -42.5 88.5h88q2 -31 20 -48t51 -17q68 0 73 65h88q0 -56 -43 -88.5t-118 -32.5q-74 0 -116.5 32.5zM574 733h89v-732h-100v549l-390 -549h-89v732h100v-550z" />
    <glyph glyph-name="uni041A" unicode="&#x41a;" horiz-adv-x="682" 
d="M390 375l288 -375h-140l-241 324h-106v-324h-107v732h107v-312h111l235 312h124z" />
    <glyph glyph-name="uni041B" unicode="&#x41b;" horiz-adv-x="747" 
d="M664 732v-732h-109v636h-294l-16 -388q-5 -101 -28 -157t-70 -79t-128 -23v98q45 0 69.5 16t35 52.5t13.5 104.5l21 472h506z" />
    <glyph glyph-name="uni041C" unicode="&#x41c;" horiz-adv-x="869" 
d="M700 732h85v-732h-104v530l-216 -339h-61l-218 341v-532h-102v732h90l263 -417z" />
    <glyph glyph-name="uni041D" unicode="&#x41d;" horiz-adv-x="755" 
d="M191 428h372v304h108v-732h-108v332h-372v-332h-107v732h107v-304z" />
    <glyph glyph-name="uni041E" unicode="&#x41e;" horiz-adv-x="770" 
d="M91 566.5q44 85.5 121 131.5t172 46t172 -46t121 -131.5t44 -199.5q0 -115 -44.5 -200.5t-121 -131.5t-171.5 -46t-172 45.5t-121 131.5t-44 201q0 114 44 199.5zM188.5 220.5q27.5 -63.5 77.5 -98.5t118 -35t118 35t77.5 98.5t27.5 146.5t-27.5 146t-78 98t-117.5 35
t-117.5 -35t-78 -98t-27.5 -146t27.5 -146.5z" />
    <glyph glyph-name="uni041F" unicode="&#x41f;" horiz-adv-x="751" 
d="M84 732h583v-732h-108v636h-368v-636h-107v732z" />
    <glyph glyph-name="uni0420" unicode="&#x420;" horiz-adv-x="608" 
d="M318 732q78 0 139 -29t94.5 -82t33.5 -121t-33.5 -120.5t-94 -81.5t-139.5 -29h-127v-269h-107v732h234zM304 362q79 0 122.5 37.5t43.5 100.5t-43.5 101t-122.5 38h-113v-277h113z" />
    <glyph glyph-name="uni0421" unicode="&#x421;" horiz-adv-x="661" 
d="M485 116q42 29 67 81l88 -52q-29 -71 -97 -113.5t-157 -42.5q-94 0 -171.5 47.5t-122.5 133.5t-45 197t45 197t122.5 133t171.5 47q89 0 157 -42.5t97 -113.5l-88 -52q-25 52 -67 81t-101 29q-65 0 -116 -34.5t-79 -98t-28 -146.5t28 -146.5t79 -98.5t116 -35
q59 0 101 29z" />
    <glyph glyph-name="uni0422" unicode="&#x422;" horiz-adv-x="582" 
d="M11 732h560v-95h-226v-637h-109v637h-225v95z" />
    <glyph glyph-name="uni0423" unicode="&#x423;" horiz-adv-x="636" 
d="M331 324l184 409h115l-254 -531q-53 -114 -108 -163.5t-131 -49.5q-58 0 -92 24v100q40 -26 87 -26q44 0 74.5 25.5t68.5 95.5l-268 525h124z" />
    <glyph glyph-name="uni0424" unicode="&#x424;" horiz-adv-x="815" 
d="M736.5 222.5q-42.5 -62.5 -115 -98.5t-160.5 -45v-79h-106v79q-89 8 -161.5 44t-115 98t-42.5 146q0 83 42.5 145t115 98t161.5 44v78h106v-78q89 -9 161 -45t114.5 -98t42.5 -144t-42.5 -144.5zM205 234.5q56 -47.5 150 -56.5v378q-94 -10 -150 -57t-56 -132t56 -132.5z
M461 178q93 9 148.5 56.5t55.5 132.5t-55.5 132t-148.5 57v-378z" />
    <glyph glyph-name="uni0425" unicode="&#x425;" horiz-adv-x="677" 
d="M658 732l-258 -360l267 -372h-132l-201 285l-200 -285h-124l266 371l-258 361h132l192 -275l192 275h124z" />
    <glyph glyph-name="uni0426" unicode="&#x426;" horiz-adv-x="790" 
d="M667 732v-636h87l-9 -268h-90l-5 172h-566v732h107v-636h368v636h108z" />
    <glyph glyph-name="uni0427" unicode="&#x427;" horiz-adv-x="676" 
d="M484 732h108v-732h-108v327q-66 -76 -192 -76q-113 0 -180 61t-67 183v237h107v-214q0 -87 37.5 -128t114.5 -41t128.5 41t51.5 129v213z" />
    <glyph glyph-name="uni0428" unicode="&#x428;" horiz-adv-x="1015" 
d="M562 96h262v636h107v-732h-847v732h107v-636h263l-1 636h108z" />
    <glyph glyph-name="uni0429" unicode="&#x429;" horiz-adv-x="1051" 
d="M823 732h108v-636h80l-9 -268h-90l-5 172h-823v732h107v-636h263l-1 636h108l1 -636h261v636z" />
    <glyph glyph-name="uni042A" unicode="&#x42a;" horiz-adv-x="785" 
d="M485 433q130 0 199.5 -58t69.5 -160t-69.5 -158.5t-199.5 -56.5h-272v638h-202v95h310v-300h164zM470 94q85 0 127.5 32t42.5 89t-43 90.5t-127 33.5h-149v-245h149z" />
    <glyph glyph-name="uni042B" unicode="&#x42b;" horiz-adv-x="914" 
d="M356 433q129 0 198.5 -58t69.5 -160t-69 -158.5t-199 -56.5h-272v733h107v-300h165zM831 0h-108v733h108v-733zM340 94q85 0 128 32.5t43 88.5q0 57 -43.5 90.5t-127.5 33.5h-149v-245h149z" />
    <glyph glyph-name="uni042C" unicode="&#x42c;" horiz-adv-x="655" 
d="M356 433q129 0 198.5 -58t69.5 -160t-69 -158.5t-199 -56.5h-272v733h107v-300h165zM340 94q85 0 128 32.5t43 88.5q0 57 -43.5 90.5t-127.5 33.5h-149v-245h149z" />
    <glyph glyph-name="uni042D" unicode="&#x42d;" horiz-adv-x="654" 
d="M455 697.5q73 -46.5 112 -132t39 -198.5t-39 -198.5t-112 -132.5t-173 -47q-97 0 -168 42.5t-101 113.5l88 51q26 -52 71 -81t109 -29q94 0 148 64t62 176h-291v93h290q-10 107 -64 167.5t-145 60.5q-64 0 -109 -29t-71 -81l-88 51q30 71 101 113.5t168 42.5
q100 0 173 -46.5z" />
    <glyph glyph-name="uni042E" unicode="&#x42e;" horiz-adv-x="1010" 
d="M807.5 699.5q71.5 -44.5 112.5 -130t41 -202.5q0 -118 -41 -203.5t-112.5 -130t-160.5 -44.5q-85 0 -154 40t-111 117.5t-48 185.5h-143v-332h-107v732h107v-304h145q10 99 53 170.5t109.5 108.5t148.5 37q89 0 160.5 -44.5zM793 162q54 75 54 205t-54 204.5t-146 74.5
q-61 0 -106.5 -33.5t-70.5 -96.5t-25 -149q0 -130 54.5 -205t147.5 -75q92 0 146 75z" />
    <glyph glyph-name="uni042F" unicode="&#x42f;" horiz-adv-x="656" 
d="M220 308q-69 24 -108.5 77t-39.5 124q0 66 33.5 116.5t94 78.5t138.5 28h235v-732h-108v288h-126h-8l-201 -288h-130zM352 639q-78 0 -121.5 -34.5t-43.5 -95.5q0 -60 43.5 -94t121.5 -34h113v258h-113z" />
    <glyph glyph-name="uni0430" unicode="&#x430;" horiz-adv-x="552" 
d="M429.5 476q57.5 -55 57.5 -158v-318h-89q-2 45 -5 64q-48 -75 -154 -75q-52 0 -95.5 19t-69.5 55t-26 87q0 77 63 122t161 45q55 0 113 -15v2q0 71 -28 104.5t-84 33.5q-45 0 -75.5 -19.5t-51.5 -56.5l-76 44q25 55 81 88t128 33q93 0 150.5 -55zM385 224q-60 15 -105 15
q-60 0 -93 -23t-33 -64q0 -37 27 -58.5t71 -21.5q55 0 94 31.5t39 87.5v33z" />
    <glyph glyph-name="uni0431" unicode="&#x431;" horiz-adv-x="594" 
d="M437 496q52 -31 83 -91t31 -143q0 -86 -33 -148t-90.5 -93.5t-128.5 -31.5q-115 0 -185.5 86t-70.5 271q0 114 26.5 202.5t81.5 138.5q32 29 70 43.5t72.5 18.5t87.5 6q45 1 71.5 4t45.5 14v-94q-16 -10 -39.5 -13t-64.5 -4q-64 -2 -103.5 -9.5t-70.5 -35.5
q-54 -47 -65 -168q28 36 71 57t96 21q63 0 115 -31zM400 129q38 48 38 128q0 81 -37.5 129t-101.5 48t-104 -49t-40 -128q0 -80 40 -128t104 -48q63 0 101 48z" />
    <glyph glyph-name="uni0432" unicode="&#x432;" horiz-adv-x="533" 
d="M498 148q0 -71 -51 -109.5t-149 -38.5h-225v519h209q88 0 138 -37.5t50 -104.5q0 -77 -67 -109q95 -27 95 -120zM172 436v-133h98q49 0 72.5 19t23.5 50q0 64 -96 64h-98zM285 83q109 0 109 71q0 68 -109 68h-113v-139h113z" />
    <glyph glyph-name="uni0433" unicode="&#x433;" horiz-adv-x="439" 
d="M73 519h358v-88h-255v-431h-103v519z" />
    <glyph glyph-name="uni0434" unicode="&#x434;" horiz-adv-x="632" 
d="M525 86h84l-9 -258h-88l-6 171h-387l-6 -171h-89l-9 258h41q44 0 65 25t30 76t16 159l12 173h346v-433zM424 86v346h-151l-7 -98q-7 -106 -15.5 -160t-29.5 -88h203z" />
    <glyph glyph-name="uni0435" unicode="&#x435;" horiz-adv-x="550" 
d="M413 499.5q51 -31.5 79 -86t28 -122.5q0 -23 -5 -55h-364q6 -78 48 -117.5t105 -39.5q82 0 119 68l77 -45q-20 -54 -76 -83.5t-125 -29.5q-71 0 -129 31.5t-92.5 93.5t-34.5 148q0 84 34.5 145t92 92.5t124.5 31.5q68 0 119 -31.5zM201.5 408.5q-37.5 -32.5 -47.5 -94.5
h258q-4 60 -37 93.5t-85 33.5q-51 0 -88.5 -32.5z" />
    <glyph glyph-name="uni0436" unicode="&#x436;" horiz-adv-x="769" 
d="M494 304l150 215h115l-182 -253l192 -266h-125l-150 216h-58v-216h-103v216h-58l-151 -216h-124l191 266l-181 253h114l151 -215h58v215h103v-215h58z" />
    <glyph glyph-name="uni0437" unicode="&#x437;" horiz-adv-x="465" 
d="M400 225.5q31 -34.5 31 -84.5q0 -68 -56 -110t-152 -42q-81 0 -139.5 31t-82.5 92l76 45q39 -77 138 -77q48 0 78 17.5t30 53.5q0 35 -32.5 55.5t-102.5 20.5h-44v86h46q59 0 87 18t28 46q0 29 -25.5 45.5t-67.5 16.5q-81 0 -114 -61l-79 47q21 50 75 78t126 28
q87 0 139.5 -39t52.5 -102q0 -43 -26 -73t-76 -44q59 -13 90 -47.5z" />
    <glyph glyph-name="uni0438" unicode="&#x438;" horiz-adv-x="597" 
d="M173 519v-359l266 359h85v-519h-100v359l-266 -359h-85v519h100z" />
    <glyph glyph-name="uni0439" unicode="&#x439;" horiz-adv-x="597" 
d="M181 631.5q-45 42.5 -45 115.5h88q2 -41 21 -63t54 -22q70 0 76 85h88q0 -73 -44.5 -115.5t-119.5 -42.5q-73 0 -118 42.5zM173 519v-359l266 359h85v-519h-100v359l-266 -359h-85v519h100z" />
    <glyph glyph-name="uni043A" unicode="&#x43a;" horiz-adv-x="537" 
d="M242 304l167 215h119l-201 -253l210 -266h-129l-166 216h-66v-216h-103v519h103v-215h66z" />
    <glyph glyph-name="uni043B" unicode="&#x43b;" horiz-adv-x="573" 
d="M500 519v-519h-103v431h-180l-10 -227q-4 -80 -24 -126.5t-61 -67.5t-110 -21v98q54 0 74 30t23 99l14 303h377z" />
    <glyph glyph-name="uni043C" unicode="&#x43c;" horiz-adv-x="704" 
d="M540 519h91v-519h-97v346l-154 -250h-54l-156 243v-339h-97v519h91l190 -301z" />
    <glyph glyph-name="uni043D" unicode="&#x43d;" horiz-adv-x="593" 
d="M176 307h242v212h102v-519h-102v219h-242v-219h-103v519h103v-212z" />
    <glyph glyph-name="uni043E" unicode="&#x43e;" horiz-adv-x="594" 
d="M78 401q35 62 93.5 96t126.5 34q67 0 125 -34t93 -96t35 -141t-35 -141t-93 -96t-125 -34q-68 0 -126.5 34t-93.5 96t-35 141t35 141zM192.5 130q41.5 -48 104.5 -48q64 0 105 48t41 130t-41.5 130t-104.5 48t-104.5 -48t-41.5 -130t41.5 -130z" />
    <glyph glyph-name="uni043F" unicode="&#x43f;" horiz-adv-x="593" 
d="M73 519h447v-519h-102v431h-242v-431h-103v519z" />
    <glyph glyph-name="uni0440" unicode="&#x440;" horiz-adv-x="614" 
d="M454.5 498.5q52.5 -32.5 84.5 -94t32 -144.5q0 -84 -32 -145.5t-84.5 -93.5t-112.5 -32q-50 0 -94 22t-72 66v-309h-103v751h91q2 -50 6 -85q28 48 73.5 72.5t98.5 24.5q60 0 112.5 -32.5zM426 129.5q38 46.5 38 130.5q0 83 -38.5 130.5t-101.5 47.5q-61 0 -104.5 -44
t-43.5 -134q0 -91 43.5 -134t104.5 -43q64 0 102 46.5z" />
    <glyph glyph-name="uni0441" unicode="&#x441;" horiz-adv-x="496" 
d="M408 147l79 -46q-27 -56 -76.5 -84t-113.5 -28q-70 0 -128 33t-92 94.5t-34 143.5t34 143.5t92 94.5t128 33q64 0 113.5 -28t76.5 -84l-79 -46q-42 64 -112 64q-65 0 -105 -47.5t-40 -129.5q0 -83 40 -130.5t105 -47.5q70 0 112 65z" />
    <glyph glyph-name="uni0442" unicode="&#x442;" horiz-adv-x="471" 
d="M8 431v88h455v-88h-176v-431h-103v431h-176z" />
    <glyph glyph-name="uni0443" unicode="&#x443;" horiz-adv-x="536" 
d="M421 519h107l-240 -605q-33 -85 -73.5 -121.5t-108.5 -36.5q-65 0 -105 34l40 81q28 -21 65 -21q32 0 53.5 21.5t47.5 83.5l17 39l-219 525h117l154 -398z" />
    <glyph glyph-name="uni0444" unicode="&#x444;" horiz-adv-x="747" 
d="M666.5 124.5q-37.5 -57.5 -101 -91t-140.5 -42.5v-223h-101v223q-78 9 -141.5 42t-101.5 91t-38 136t38 135.5t101.5 91t141.5 41.5v163h101v-163q77 -8 140.5 -41.5t101 -91t37.5 -135.5t-37.5 -135.5zM198 139.5q48 -44.5 126 -54.5v349q-77 -10 -125.5 -54t-48.5 -120
t48 -120.5zM425 86q77 10 124 54t47 120t-47.5 119.5t-123.5 53.5v-347z" />
    <glyph glyph-name="uni0445" unicode="&#x445;" horiz-adv-x="511" 
d="M259 339l128 180h115l-189 -258l189 -261h-122l-126 180l-128 -180h-117l190 257l-190 262h124z" />
    <glyph glyph-name="uni0446" unicode="&#x446;" horiz-adv-x="625" 
d="M520 519v-431h82l-8 -260h-85l-6 172h-430v519h103v-431h242v431h102z" />
    <glyph glyph-name="uni0447" unicode="&#x447;" horiz-adv-x="569" 
d="M394 519h102v-519h-102v215q-50 -62 -147 -62q-85 0 -138 46.5t-53 132.5v187h104v-156q0 -56 26.5 -85.5t81.5 -29.5t90.5 30t35.5 86v155z" />
    <glyph glyph-name="uni0448" unicode="&#x448;" horiz-adv-x="803" 
d="M452 88h176v431h102v-519h-657v519h101v-431h177v431h101v-431z" />
    <glyph glyph-name="uni0449" unicode="&#x449;" horiz-adv-x="835" 
d="M730 519v-431h82l-8 -260h-86l-5 172h-640v519h101v-431h177v431h101v-431h176v431h102z" />
    <glyph glyph-name="uni044A" unicode="&#x44a;" horiz-adv-x="634" 
d="M395 334q103 0 157.5 -45.5t54.5 -120.5q0 -76 -54.5 -122t-157.5 -46h-212v431h-169v88h273v-185h108zM376 86q66 0 94.5 21t28.5 61t-28 60t-95 20h-89v-162h89z" />
    <glyph glyph-name="uni044B" unicode="&#x44b;" horiz-adv-x="761" 
d="M285 334q103 0 157.5 -45.5t54.5 -120.5q0 -76 -54.5 -122t-157.5 -46h-212v519h104v-185h108zM688 0h-105v519h105v-519zM266 86q67 0 95.5 21t28.5 61t-28.5 60t-95.5 20h-89v-162h89z" />
    <glyph glyph-name="uni044C" unicode="&#x44c;" horiz-adv-x="525" 
d="M285 334q103 0 157.5 -45.5t54.5 -120.5q0 -76 -54.5 -122t-157.5 -46h-212v519h104v-185h108zM266 86q67 0 95.5 21t28.5 61t-28.5 60t-95.5 20h-89v-162h89z" />
    <glyph glyph-name="uni044D" unicode="&#x44d;" horiz-adv-x="496" 
d="M332 498q56 -33 88.5 -94.5t32.5 -143.5t-32.5 -143.5t-88.5 -94.5t-127 -33q-65 0 -119 28.5t-77 83.5l78 45q17 -33 48.5 -50.5t69.5 -17.5q58 0 94.5 38.5t44.5 107.5h-190v82h189q-9 64 -45.5 99.5t-92.5 35.5q-38 0 -69.5 -17.5t-48.5 -49.5l-78 45q23 55 77 83.5
t119 28.5q71 0 127 -33z" />
    <glyph glyph-name="uni044E" unicode="&#x44e;" horiz-adv-x="790" 
d="M628.5 500q53.5 -31 85.5 -92.5t32 -147.5t-32 -147t-85.5 -92.5t-117.5 -31.5q-59 0 -110 26.5t-84 79.5t-40 127h-101v-222h-103v519h103v-209h102q10 70 43.5 120t83 75.5t106.5 25.5q64 0 117.5 -31zM603.5 129q35.5 47 35.5 131t-35.5 131t-92.5 47t-93.5 -47
t-36.5 -131t36.5 -131t93.5 -47t92.5 47z" />
    <glyph glyph-name="uni044F" unicode="&#x44f;" horiz-adv-x="541" 
d="M467 519v-519h-100v202h-91l-150 -202h-116l164 214q-53 17 -83 55t-30 91q0 72 53 115.5t141 43.5h212zM367 288v145h-102q-48 0 -72.5 -19.5t-24.5 -53.5q0 -33 25 -52.5t72 -19.5h102z" />
    <glyph glyph-name="uni0450" unicode="&#x450;" horiz-adv-x="550" 
d="M149 747h109l85 -158h-87zM413 499.5q51 -31.5 79 -86t28 -122.5q0 -23 -5 -55h-364q6 -78 48 -117.5t105 -39.5q82 0 119 68l77 -45q-20 -54 -76 -83.5t-125 -29.5q-71 0 -129 31.5t-92.5 93.5t-34.5 148q0 84 34.5 145t92 92.5t124.5 31.5q68 0 119 -31.5zM201.5 408.5
q-37.5 -32.5 -47.5 -94.5h258q-4 60 -37 93.5t-85 33.5q-51 0 -88.5 -32.5z" />
    <glyph glyph-name="uni0451" unicode="&#x451;" horiz-adv-x="550" 
d="M143 623q-18 19 -18 45t18 45t43 19q27 0 45.5 -19t18.5 -45t-18.5 -45t-45.5 -19q-25 0 -43 19zM354 623q-18 19 -18 45t18 45t44 19t44.5 -19t18.5 -45t-18.5 -45t-44.5 -19t-44 19zM413 499.5q51 -31.5 79 -86t28 -122.5q0 -23 -5 -55h-364q6 -78 48 -117.5t105 -39.5
q82 0 119 68l77 -45q-20 -54 -76 -83.5t-125 -29.5q-71 0 -129 31.5t-92.5 93.5t-34.5 148q0 84 34.5 145t92 92.5t124.5 31.5q68 0 119 -31.5zM201.5 408.5q-37.5 -32.5 -47.5 -94.5h258q-4 60 -37 93.5t-85 33.5q-51 0 -88.5 -32.5z" />
    <glyph glyph-name="uni0452" unicode="&#x452;" horiz-adv-x="601" 
d="M485.5 475.5q50.5 -55.5 50.5 -158.5v-364q0 -100 -47 -148.5t-117 -48.5q-57 0 -95 29l41 79q21 -15 47 -15q67 0 67 110v327q0 72 -27 111t-82 39q-56 0 -95.5 -39.5t-39.5 -112.5v-284h-102v591h-76v81h76v89h102v-89h155v-81h-155v-147q26 43 68.5 65t95.5 22
q83 0 133.5 -55.5z" />
    <glyph glyph-name="uni0453" unicode="&#x453;" horiz-adv-x="439" 
d="M213 590l84 158h109l-107 -158h-86zM73 519h358v-88h-255v-431h-103v519z" />
    <glyph glyph-name="uni0454" unicode="&#x454;" horiz-adv-x="496" 
d="M363.5 95.5q28.5 17.5 45.5 50.5l78 -45q-23 -55 -73.5 -83.5t-112.5 -28.5q-68 0 -127.5 33.5t-95 95t-35.5 142.5t35.5 142.5t95 95t127.5 33.5q62 0 112.5 -28.5t73.5 -83.5l-78 -45q-17 33 -45 50t-64 17q-54 0 -94.5 -36t-51.5 -99h188v-82h-189q8 -67 49 -106.5
t98 -39.5q35 0 63.5 17.5z" />
    <glyph glyph-name="uni0455" unicode="&#x455;" horiz-adv-x="459" 
d="M378.5 33q-55.5 -44 -144.5 -44q-79 0 -135 34t-75 94l77 45q17 -42 51 -63.5t82 -21.5q43 0 68.5 17.5t25.5 48.5q0 24 -15.5 39.5t-39 24.5t-64.5 21q-54 15 -86.5 29t-56 41.5t-23.5 73.5q0 48 26.5 84.5t71 55.5t98.5 19q71 0 121.5 -31t67.5 -84l-77 -44
q-15 33 -44.5 51t-70.5 18q-39 0 -63 -15.5t-24 -44.5q0 -22 14.5 -35.5t36.5 -22t62 -19.5q54 -15 88.5 -30t59 -45t24.5 -79q0 -73 -55.5 -117z" />
    <glyph glyph-name="uni0456" unicode="&#x456;" horiz-adv-x="250" 
d="M79 623q-19 20 -19 47t19 46.5t45 19.5q28 0 47 -19.5t19 -46.5t-19.5 -47t-46.5 -20q-26 0 -45 20zM176 0h-103v519h103v-519z" />
    <glyph glyph-name="uni0457" unicode="&#x457;" horiz-adv-x="239" 
d="M3.5 623.5q-18.5 19.5 -18.5 45.5t18.5 45t43.5 19q26 0 44.5 -19t18.5 -45t-18.5 -45.5t-44.5 -19.5q-25 0 -43.5 19.5zM147 623q-18 19 -18 46q0 26 18 45t44 19t44.5 -19t18.5 -45t-19 -45.5t-44 -19.5q-26 0 -44 19zM171 0h-103v519h103v-519z" />
    <glyph glyph-name="uni0458" unicode="&#x458;" horiz-adv-x="249" 
d="M78 623q-19 20 -19 47t19 46.5t45 19.5q28 0 47 -19.5t19 -46.5t-19.5 -47t-46.5 -20q-26 0 -45 20zM-74.5 -232q-33.5 12 -54.5 36l59 73q14 -15 28 -21.5t31 -6.5q84 0 84 123v547h103v-553q0 -72 -26 -119t-67 -69t-89 -22q-35 0 -68.5 12z" />
    <glyph glyph-name="uni0459" unicode="&#x459;" horiz-adv-x="847" 
d="M608 334q103 0 157.5 -45.5t54.5 -120.5q0 -76 -55 -122t-157 -46h-211v431h-180l-10 -227q-4 -80 -24 -126.5t-61 -67.5t-110 -21v98q54 0 74 30t23 99l14 303h377v-185h108zM588 86q67 0 95.5 21t28.5 61t-28.5 60t-95.5 20h-88v-162h88z" />
    <glyph glyph-name="uni045A" unicode="&#x45a;" horiz-adv-x="867" 
d="M628 319q103 0 157.5 -43.5t54.5 -115.5t-54.5 -116t-157.5 -44h-210v231h-242v-231h-103v519h103v-200h242v200h102v-200h108zM609 85q67 0 95.5 19t28.5 56t-28.5 55.5t-95.5 18.5h-89v-149h89z" />
    <glyph glyph-name="uni045B" unicode="&#x45b;" horiz-adv-x="601" 
d="M485.5 475.5q50.5 -55.5 50.5 -158.5v-317h-104v286q0 72 -27 111t-82 39q-56 0 -95.5 -39.5t-39.5 -112.5v-284h-102v591h-76v81h76v89h102v-89h155v-81h-155v-147q26 43 68.5 65t95.5 22q83 0 133.5 -55.5z" />
    <glyph glyph-name="uni045C" unicode="&#x45c;" horiz-adv-x="537" 
d="M242 590l84 157h109l-107 -157h-86zM242 304l167 215h119l-201 -253l210 -266h-129l-166 216h-66v-216h-103v519h103v-215h66z" />
    <glyph glyph-name="uni045D" unicode="&#x45d;" horiz-adv-x="597" 
d="M155 747h109l85 -157h-86zM173 519v-359l266 359h85v-519h-100v359l-266 -359h-85v519h100z" />
    <glyph glyph-name="uni045E" unicode="&#x45e;" horiz-adv-x="535" 
d="M153 631.5q-45 42.5 -45 115.5h88q2 -41 21 -63t54 -22q70 0 76 85h88q0 -73 -44.5 -115.5t-119.5 -42.5q-73 0 -118 42.5zM421 519h107l-240 -605q-33 -85 -73.5 -121.5t-108.5 -36.5q-65 0 -105 34l40 81q28 -21 65 -21q32 0 53.5 21.5t47.5 83.5l17 39l-219 525h117
l154 -398z" />
    <glyph glyph-name="uni045F" unicode="&#x45f;" horiz-adv-x="593" 
d="M176 88h242v431h102v-519h-175l-6 -172h-85l-6 172h-175v519h103v-431z" />
    <glyph glyph-name="uni0462" unicode="&#x462;" horiz-adv-x="735" 
d="M436 425q129 0 198.5 -56.5t69.5 -156.5q0 -101 -68.5 -156.5t-199.5 -55.5h-272v536h-165v90h165v107h107v-107h221v-90h-221v-111h165zM420 92q85 0 128 32t43 88q0 57 -43 89.5t-128 32.5h-149v-242h149z" />
    <glyph glyph-name="uni0463" unicode="&#x463;" horiz-adv-x="573" 
d="M334 331q103 0 157.5 -45t54.5 -119q0 -75 -55 -121t-157 -46h-212v435h-118v84h118v242h104v-242h183v-84h-183v-104h108zM314 85q67 0 95.5 21t28.5 61t-28.5 60t-95.5 20h-88v-162h88z" />
    <glyph glyph-name="uni046B" unicode="&#x46b;" horiz-adv-x="643" 
d="M406 285q210 -5 210 -285h-98q0 106 -32 153.5t-96 47.5h-20v-201h-97v201h-20q-64 0 -96 -47t-32 -154h-98q0 279 208 285l-170 234h512zM411 439h-179l90 -129z" />
    <glyph glyph-name="uni0472" unicode="&#x472;" horiz-adv-x="769" 
d="M557.5 696.5q76.5 -47.5 121 -133.5t44.5 -196q0 -111 -44.5 -197t-121.5 -133.5t-171 -47.5q-95 0 -172 47t-121 133t-44 198q0 111 44.5 196.5t121 133t171.5 47.5t171.5 -47.5zM237 585q-59 -62 -71 -166h439q-12 104 -70.5 166t-148.5 62t-149 -62zM537.5 151
q58.5 65 68.5 174h-441q10 -109 69 -174t152 -65t151.5 65z" />
    <glyph glyph-name="uni0473" unicode="&#x473;" horiz-adv-x="594" 
d="M423 497q58 -34 93 -96t35 -141t-35 -141t-93 -96t-125 -34q-68 0 -126.5 34t-93.5 96t-35 141t35 141t93.5 96t126.5 34q67 0 125 -34zM205 404q-39 -35 -50 -97h284q-11 62 -49.5 97t-91.5 35q-54 0 -93 -35zM394 118.5q39 38.5 46 105.5h-286q8 -68 47.5 -106
t96.5 -38t96 38.5z" />
    <glyph glyph-name="uni0474" unicode="&#x474;" horiz-adv-x="729" 
d="M728 732q26 -12 40 -29l-36 -82q-25 25 -54 25q-23 0 -39 -14t-32 -56l-227 -576h-82l-291 732h120l217 -573l163 440q31 82 68 113.5t94 31.5q33 0 59 -12z" />
    <glyph glyph-name="uni0475" unicode="&#x475;" horiz-adv-x="578" 
d="M558.5 519q25.5 -12 39.5 -29l-35 -79q-25 27 -54 27q-18 0 -31.5 -14.5t-29.5 -55.5l-149 -368h-84l-207 519h116l139 -384l96 260q28 76 59.5 106t79.5 30q35 0 60.5 -12z" />
    <glyph glyph-name="uni0490" unicode="&#x490;" horiz-adv-x="554" 
d="M84 733h364l19 141h89l-14 -237h-351v-637h-107v733z" />
    <glyph glyph-name="uni0491" unicode="&#x491;" horiz-adv-x="460" 
d="M73 519h287l16 121h87l-12 -209h-275v-431h-103v519z" />
    <glyph glyph-name="uni0492" unicode="&#x492;" horiz-adv-x="556" 
d="M87 732h458v-95h-351v-227h131v-95h-131v-315h-107v315h-87v95h87v322z" />
    <glyph glyph-name="uni0493" unicode="&#x493;" horiz-adv-x="473" 
d="M101 519h368v-88h-265v-139h131v-88h-131v-204h-103v204h-91v88h91v227z" />
    <glyph glyph-name="uni0497" unicode="&#x497;" horiz-adv-x="775" 
d="M759 519l-182 -253l130 -178h78l-8 -260h-87l-6 172h-40l-150 216h-58v-216h-103v216h-58l-151 -216h-124l191 266l-181 253h114l151 -215h58v215h103v-215h58l150 215h115z" />
    <glyph glyph-name="uni049A" unicode="&#x49a;" horiz-adv-x="679" 
d="M661 732l-271 -357l216 -279h88l-8 -268h-90l-5 172h-53l-241 324h-106v-324h-107v732h107v-312h111l235 312h124z" />
    <glyph glyph-name="uni049B" unicode="&#x49b;" horiz-adv-x="537" 
d="M528 519l-201 -253l142 -178h79l-9 -260h-87l-6 172h-38l-166 216h-66v-216h-103v519h103v-215h66l167 215h119z" />
    <glyph glyph-name="uni049C" unicode="&#x49c;" horiz-adv-x="691" 
d="M443 376l247 -376h-130l-208 324h-28v-142h-83v142h-53v-324h-104v732h104v-312h53v142h83v-142h33l199 312h118z" />
    <glyph glyph-name="uni049D" unicode="&#x49d;" horiz-adv-x="563" 
d="M297 304l149 215h109l-176 -253l186 -266h-120l-148 216h-12v-96h-75v96h-37v-216h-100v519h100v-215h37v97h75v-97h12z" />
    <glyph glyph-name="uni04A2" unicode="&#x4a2;" horiz-adv-x="794" 
d="M671 732v-636h86l-8 -268h-90l-5 172h-91v332h-372v-332h-107v732h107v-304h372v304h108z" />
    <glyph glyph-name="uni04A3" unicode="&#x4a3;" horiz-adv-x="629" 
d="M520 519v-431h85l-9 -260h-86l-7 172h-85v219h-242v-219h-103v519h103v-212h242v212h102z" />
    <glyph glyph-name="uni04AE" unicode="&#x4ae;" horiz-adv-x="636" 
d="M329 410l184 323h117l-252 -430v-303h-108v305l-263 428h127z" />
    <glyph glyph-name="uni04AF" unicode="&#x4af;" horiz-adv-x="532" 
d="M275 134l142 385h107l-202 -493v-258h-102v252l-212 499h116z" />
    <glyph glyph-name="uni04B0" unicode="&#x4b0;" horiz-adv-x="636" 
d="M329 410l184 323h117l-211 -358h141v-96h-182v-279h-108v279h-183v96h141l-221 358h127z" />
    <glyph glyph-name="uni04B1" unicode="&#x4b1;" horiz-adv-x="532" 
d="M275 125l142 394h107l-176 -431h132v-88h-158v-232h-102v232h-159v88h129l-182 431h116z" />
    <glyph glyph-name="uni04B2" unicode="&#x4b2;" horiz-adv-x="677" 
d="M658 732l-261 -358l201 -278h81l-9 -268h-90l-5 172h-37l-202 288l-205 -288h-121l269 369l-261 363h129l194 -277l196 277h121z" />
    <glyph glyph-name="uni04B3" unicode="&#x4b3;" horiz-adv-x="516" 
d="M502 519l-190 -259l125 -172h83l-8 -260h-87l-6 172h-31l-132 183l-132 -183h-115l191 260l-191 259h115l132 -182l132 182h114z" />
    <glyph glyph-name="uni04B8" unicode="&#x4b8;" horiz-adv-x="676" 
d="M485 732h107v-732h-108v327q-44 -53 -121 -69v-142h-83v135q-108 3 -171.5 64t-63.5 180v237h106v-214q0 -80 31.5 -121t97.5 -46v145h83v-140q56 13 89 53t33 110v213z" />
    <glyph glyph-name="uni04B9" unicode="&#x4b9;" horiz-adv-x="582" 
d="M408 519h101v-519h-102v216q-29 -38 -81 -54v-99h-83v90q-84 3 -135.5 49t-51.5 130v187h102v-156q0 -50 20 -78t65 -35v115h83v-111q39 11 60.5 38.5t21.5 71.5v155z" />
    <glyph glyph-name="uni04BA" unicode="&#x4ba;" horiz-adv-x="676" 
d="M192 0h-108v732h108v-327q33 39 82 57.5t110 18.5q113 0 180 -61t67 -183v-237h-107v214q0 87 -37.5 128t-114.5 41t-128.5 -41t-51.5 -129v-213z" />
    <glyph glyph-name="uni04BB" unicode="&#x4bb;" horiz-adv-x="588" 
d="M472.5 475.5q50.5 -55.5 50.5 -158.5v-317h-104v286q0 72 -26.5 111t-81.5 39q-56 0 -95.5 -39.5t-39.5 -112.5v-284h-103v761h103v-317q26 43 68.5 65t94.5 22q83 0 133.5 -55.5z" />
    <glyph glyph-name="uni04CA" unicode="&#x4ca;" horiz-adv-x="629" 
d="M520 519v-431h87l-85 -260h-86l44 172h-62v219h-242v-219h-103v519h103v-212h242v212h102z" />
    <glyph glyph-name="uni04D8" unicode="&#x4d8;" horiz-adv-x="719" 
d="M517.5 700.5q73.5 -43.5 114 -128.5t40.5 -206q0 -119 -41.5 -204t-114.5 -129t-166 -44t-161 42t-104 116t-36 167q0 43 7 84h501q-14 249 -215 249q-65 0 -110.5 -28.5t-80.5 -89.5l-79 56q35 78 108.5 118.5t166.5 40.5q97 0 170.5 -43.5zM492 140q52 54 63 163h-392
q-2 -104 49 -160.5t141 -56.5q87 0 139 54z" />
    <glyph glyph-name="uni04D9" unicode="&#x4d9;" horiz-adv-x="550" 
d="M380 499.5q58 -31.5 92.5 -93.5t34.5 -148q0 -84 -34.5 -145t-91.5 -92.5t-124 -31.5q-68 0 -119.5 31.5t-79.5 86t-28 122.5q0 23 5 55h364q-6 78 -47.5 117t-105.5 39q-82 0 -119 -67l-77 44q21 55 77 84.5t125 29.5q70 0 128 -31.5zM348.5 111q37.5 33 48.5 94h-258
q3 -60 36 -93.5t85 -33.5q51 0 88.5 33z" />
    <glyph glyph-name="uni04E8" unicode="&#x4e8;" horiz-adv-x="769" 
d="M557.5 696.5q76.5 -47.5 121 -133.5t44.5 -196q0 -111 -44.5 -197t-121.5 -133.5t-171 -47.5q-95 0 -172 47t-121 133t-44 198q0 111 44.5 196.5t121 133t171.5 47.5t171.5 -47.5zM237 585q-59 -62 -71 -166h439q-12 104 -70.5 166t-148.5 62t-149 -62zM537.5 151
q58.5 65 68.5 174h-441q10 -109 69 -174t152 -65t151.5 65z" />
    <glyph glyph-name="uni04E9" unicode="&#x4e9;" horiz-adv-x="594" 
d="M423 497q58 -34 93 -96t35 -141t-35 -141t-93 -96t-125 -34q-68 0 -126.5 34t-93.5 96t-35 141t35 141t93.5 96t126.5 34q67 0 125 -34zM205 404q-39 -35 -50 -97h284q-11 62 -49.5 97t-91.5 35q-54 0 -93 -35zM394 118.5q39 38.5 46 105.5h-286q8 -68 47.5 -106
t96.5 -38t96 38.5z" />
    <glyph glyph-name="uni1E00" unicode="&#x1e00;" horiz-adv-x="683" 
d="M382 732l294 -732h-117l-75 196h-297l-72 -196h-108l283 732h92zM448 290l-116 302l-110 -302h226zM267 -63.5q32 29.5 80 29.5q47 0 78 -29.5t31 -75.5t-31 -75.5t-78 -29.5q-48 0 -80 29.5t-32 75.5t32 75.5zM311 -174q14 -14 36 -14q21 0 34 14t13 35q0 22 -12.5 35.5
t-34.5 13.5t-36 -13.5t-14 -35.5q0 -21 14 -35z" />
    <glyph glyph-name="uni1E01" unicode="&#x1e01;" horiz-adv-x="552" 
d="M429.5 476q57.5 -55 57.5 -158v-318h-89q-2 45 -5 64q-48 -75 -154 -75q-52 0 -95.5 19t-69.5 55t-26 87q0 77 63 122t161 45q55 0 113 -15v2q0 71 -28 104.5t-84 33.5q-45 0 -75.5 -19.5t-51.5 -56.5l-76 44q25 55 81 88t128 33q93 0 150.5 -55zM385 224q-60 15 -105 15
q-60 0 -93 -23t-33 -64q0 -37 27 -58.5t71 -21.5q55 0 94 31.5t39 87.5v33zM363 -65.5q31 -29.5 31 -74.5t-31 -74.5t-78 -29.5q-48 0 -80 29.5t-32 74.5t32 74.5t80 29.5q47 0 78 -29.5zM319 -175q13 14 13 35q0 22 -12.5 35t-34.5 13t-35.5 -13t-13.5 -35q0 -21 13.5 -35
t35.5 -14q21 0 34 14z" />
    <glyph glyph-name="uni1E3E" unicode="&#x1e3e;" horiz-adv-x="869" 
d="M397 807l85 121h111l-109 -121h-87zM700 732h85v-732h-104v530l-216 -339h-61l-218 341v-532h-102v732h90l263 -417z" />
    <glyph glyph-name="uni1E3F" unicode="&#x1e3f;" horiz-adv-x="860" 
d="M386 590l85 157h109l-108 -157h-86zM748.5 476.5q46.5 -54.5 46.5 -156.5v-320h-100v286q0 71 -24 110.5t-72 39.5q-49 0 -81.5 -39.5t-32.5 -112.5v-284h-101v286q0 72 -23.5 111t-71.5 39q-49 0 -81.5 -40t-32.5 -112v-284h-102v519h90q1 -32 5 -78q26 45 65 67.5
t86 22.5q52 0 91.5 -27.5t58.5 -80.5q25 54 66.5 81t92.5 27q74 0 120.5 -54.5z" />
    <glyph glyph-name="Wgrave" unicode="&#x1e80;" horiz-adv-x="979" 
d="M337 928h110l86 -121h-88zM539 733l171 -556l157 555h104l-224 -732h-84l-171 538l-165 -538h-83l-236 732h113l170 -555l159 556h89z" />
    <glyph glyph-name="wgrave" unicode="&#x1e81;" horiz-adv-x="793" 
d="M265 747h109l85 -157h-87zM442 519l127 -368l118 368h98l-185 -519h-70l-132 359l-126 -359h-71l-193 519h107l127 -370l117 370h83z" />
    <glyph glyph-name="Wacute" unicode="&#x1e82;" horiz-adv-x="979" 
d="M457 807l86 121h110l-108 -121h-88zM539 733l171 -556l157 555h104l-224 -732h-84l-171 538l-165 -538h-83l-236 732h113l170 -555l159 556h89z" />
    <glyph glyph-name="wacute" unicode="&#x1e83;" horiz-adv-x="793" 
d="M359 590l84 157h109l-107 -157h-86zM442 519l127 -368l118 368h98l-185 -519h-70l-132 359l-126 -359h-71l-193 519h107l127 -370l117 370h83z" />
    <glyph glyph-name="Wdieresis" unicode="&#x1e84;" horiz-adv-x="979" 
d="M345 835.5q-18 15.5 -18 38.5t18 38.5t43 15.5q27 0 45.5 -15.5t18.5 -38.5t-18.5 -38.5t-45.5 -15.5q-25 0 -43 15.5zM556 835.5q-18 15.5 -18 38.5t18 38.5t44 15.5t44.5 -15.5t18.5 -38.5q0 -22 -18.5 -38t-44.5 -16t-44 15.5zM539 733l171 -556l157 555h104
l-224 -732h-84l-171 538l-165 -538h-83l-236 732h113l170 -555l159 556h89z" />
    <glyph glyph-name="wdieresis" unicode="&#x1e85;" horiz-adv-x="793" 
d="M259 623q-18 19 -18 46q0 26 18 45t43 19q27 0 45.5 -19t18.5 -45q0 -27 -18.5 -46t-45.5 -19q-25 0 -43 19zM470 623q-18 19 -18 46q0 26 18 45t44 19t44.5 -19t18.5 -45q0 -27 -18.5 -46t-44.5 -19t-44 19zM442 519l127 -368l118 368h98l-185 -519h-70l-132 359
l-126 -359h-71l-193 519h107l127 -370l117 370h83z" />
    <glyph glyph-name="uni1EA0" unicode="&#x1ea0;" horiz-adv-x="683" 
d="M382 732l294 -732h-117l-75 196h-297l-72 -196h-108l283 732h92zM448 290l-116 302l-110 -302h226zM301 -179.5q-19 19.5 -19 46.5q0 26 19 45.5t46 19.5t46 -19.5t19 -45.5q0 -27 -19 -46.5t-46 -19.5t-46 19.5z" />
    <glyph glyph-name="uni1EA1" unicode="&#x1ea1;" horiz-adv-x="552" 
d="M429.5 476q57.5 -55 57.5 -158v-318h-89q-2 45 -5 64q-48 -75 -154 -75q-52 0 -95.5 19t-69.5 55t-26 87q0 77 63 122t161 45q55 0 113 -15v2q0 71 -28 104.5t-84 33.5q-45 0 -75.5 -19.5t-51.5 -56.5l-76 44q25 55 81 88t128 33q93 0 150.5 -55zM385 224q-60 15 -105 15
q-60 0 -93 -23t-33 -64q0 -37 27 -58.5t71 -21.5q55 0 94 31.5t39 87.5v33zM331.5 -87.5q19.5 -19.5 19.5 -45.5q0 -27 -19.5 -46.5t-46.5 -19.5t-46 19.5t-19 46.5q0 26 19 45.5t46 19.5t46.5 -19.5z" />
    <glyph glyph-name="uni1EA2" unicode="&#x1ea2;" horiz-adv-x="683" 
d="M246 912q37 16 85 16q49 0 80.5 -16t31.5 -49q0 -30 -28 -50t-75 -31l-40 38q30 8 45.5 16t15.5 21q0 10 -12 16.5t-32 6.5q-30 0 -58 -14zM382 732l294 -732h-117l-75 196h-297l-72 -196h-108l283 732h92zM448 290l-116 302l-110 -302h226z" />
    <glyph glyph-name="uni1EA3" unicode="&#x1ea3;" horiz-adv-x="552" 
d="M191 687l-13 62q16 10 39 16t46 6q48 0 79.5 -23t31.5 -68q0 -42 -28 -69.5t-75 -43.5l-39 53q30 11 45 22.5t15 28.5q0 16 -11.5 25t-31.5 9q-29 0 -58 -18zM429.5 476q57.5 -55 57.5 -158v-318h-89q-2 45 -5 64q-48 -75 -154 -75q-52 0 -95.5 19t-69.5 55t-26 87
q0 77 63 122t161 45q55 0 113 -15v2q0 71 -28 104.5t-84 33.5q-45 0 -75.5 -19.5t-51.5 -56.5l-76 44q25 55 81 88t128 33q93 0 150.5 -55zM385 224q-60 15 -105 15q-60 0 -93 -23t-33 -64q0 -37 27 -58.5t71 -21.5q55 0 94 31.5t39 87.5v33z" />
    <glyph glyph-name="uni1EA4" unicode="&#x1ea4;" horiz-adv-x="683" 
d="M426 863l85 65h111l-109 -65h-87zM299 852h92l125 -65h-111l-59 29l-61 -29h-111zM382 732l294 -732h-117l-75 196h-297l-72 -196h-108l283 732h92zM448 290l-116 302l-110 -302h226z" />
    <glyph glyph-name="uni1EA5" unicode="&#x1ea5;" horiz-adv-x="552" 
d="M417 906h108l-98 -139h-86zM340 589l-65 89l-67 -89h-97l120 158h87l119 -158h-97zM429.5 476q57.5 -55 57.5 -158v-318h-89q-2 45 -5 64q-48 -75 -154 -75q-52 0 -95.5 19t-69.5 55t-26 87q0 77 63 122t161 45q55 0 113 -15v2q0 71 -28 104.5t-84 33.5
q-45 0 -75.5 -19.5t-51.5 -56.5l-76 44q25 55 81 88t128 33q93 0 150.5 -55zM385 224q-60 15 -105 15q-60 0 -93 -23t-33 -64q0 -37 27 -58.5t71 -21.5q55 0 94 31.5t39 87.5v33z" />
    <glyph glyph-name="uni1EA6" unicode="&#x1ea6;" horiz-adv-x="683" 
d="M305 928h111l85 -65h-87zM299 852h92l125 -65h-110l-60 30l-62 -30h-110zM382 732l294 -732h-117l-75 196h-297l-72 -196h-108l283 732h92zM448 290l-116 302l-110 -302h226z" />
    <glyph glyph-name="uni1EA7" unicode="&#x1ea7;" horiz-adv-x="552" 
d="M366 906l75 -139h-86l-97 139h108zM340 589l-65 89l-67 -89h-97l120 158h87l119 -158h-97zM429.5 476q57.5 -55 57.5 -158v-318h-89q-2 45 -5 64q-48 -75 -154 -75q-52 0 -95.5 19t-69.5 55t-26 87q0 77 63 122t161 45q55 0 113 -15v2q0 71 -28 104.5t-84 33.5
q-45 0 -75.5 -19.5t-51.5 -56.5l-76 44q25 55 81 88t128 33q93 0 150.5 -55zM385 224q-60 15 -105 15q-60 0 -93 -23t-33 -64q0 -37 27 -58.5t71 -21.5q55 0 94 31.5t39 87.5v33z" />
    <glyph glyph-name="uni1EA8" unicode="&#x1ea8;" horiz-adv-x="683" 
d="M364 918q35 9 85 9q49 0 80.5 -9t31.5 -27q0 -33 -103 -47l-38 22q64 7 64 18q0 5 -12.5 8.5t-32.5 3.5q-30 0 -62 -7zM299 850h92l125 -63h-111l-59 28l-61 -28h-111zM382 732l294 -732h-117l-75 196h-297l-72 -196h-108l283 732h92zM448 290l-116 302l-110 -302h226z
" />
    <glyph glyph-name="uni1EA9" unicode="&#x1ea9;" horiz-adv-x="552" 
d="M315 839l-14 60q35 23 86 23q48 0 79.5 -22.5t31.5 -67.5q0 -77 -103 -111l-40 51q30 11 45.5 22.5t15.5 28.5q0 16 -12 25t-32 9q-25 0 -57 -18zM340 589l-65 88l-67 -88h-97l120 155h87l119 -155h-97zM429.5 476q57.5 -55 57.5 -158v-318h-89q-2 45 -5 64
q-48 -75 -154 -75q-52 0 -95.5 19t-69.5 55t-26 87q0 77 63 122t161 45q55 0 113 -15v2q0 71 -28 104.5t-84 33.5q-45 0 -75.5 -19.5t-51.5 -56.5l-76 44q25 55 81 88t128 33q93 0 150.5 -55zM385 224q-60 15 -105 15q-60 0 -93 -23t-33 -64q0 -37 27 -58.5t71 -21.5
q55 0 94 31.5t39 87.5v33z" />
    <glyph glyph-name="uni1EAA" unicode="&#x1eaa;" horiz-adv-x="683" 
d="M172 872q1 25 31 40.5t78 15.5q29 0 48 -4t38 -11q24 -8 38 -8q29 0 36 18h78q-1 -25 -31 -40.5t-78 -15.5q-29 0 -46 3.5t-39 10.5q-23 9 -39 9q-29 0 -36 -18h-78zM299 851h92l125 -64h-111l-59 28l-61 -28h-111zM382 732l294 -732h-117l-75 196h-297l-72 -196h-108
l283 732h92zM448 290l-116 302l-110 -302h226z" />
    <glyph glyph-name="uni1EAB" unicode="&#x1eab;" horiz-adv-x="552" 
d="M180 783h-78q2 59 31.5 95.5t77.5 36.5q29 0 47 -11t38 -31q12 -12 20.5 -18t18.5 -6q15 0 24 15t12 38h78q-2 -59 -31.5 -95.5t-77.5 -36.5q-29 0 -47.5 11t-38.5 31q-11 12 -19.5 18t-18.5 6q-28 0 -36 -53zM111 589l120 155h87l119 -155h-97l-65 88l-67 -88h-97z
M429.5 476q57.5 -55 57.5 -158v-318h-89q-2 45 -5 64q-48 -75 -154 -75q-52 0 -95.5 19t-69.5 55t-26 87q0 77 63 122t161 45q55 0 113 -15v2q0 71 -28 104.5t-84 33.5q-45 0 -75.5 -19.5t-51.5 -56.5l-76 44q25 55 81 88t128 33q93 0 150.5 -55zM385 224q-60 15 -105 15
q-60 0 -93 -23t-33 -64q0 -37 27 -58.5t71 -21.5q55 0 94 31.5t39 87.5v33z" />
    <glyph glyph-name="uni1EAC" unicode="&#x1eac;" horiz-adv-x="683" 
d="M299 928h92l125 -121h-101l-69 70l-71 -70h-101zM382 732l294 -732h-117l-75 196h-297l-72 -196h-108l283 732h92zM448 290l-116 302l-110 -302h226zM301 -179.5q-19 19.5 -19 46.5q0 26 19 45.5t46 19.5t46 -19.5t19 -45.5q0 -27 -19 -46.5t-46 -19.5t-46 19.5z" />
    <glyph glyph-name="uni1EAD" unicode="&#x1ead;" horiz-adv-x="552" 
d="M343 589l-67 88l-66 -88h-97l119 158h88l120 -158h-97zM429.5 476q57.5 -55 57.5 -158v-318h-89q-2 45 -5 64q-48 -75 -154 -75q-52 0 -95.5 19t-69.5 55t-26 87q0 77 63 122t161 45q55 0 113 -15v2q0 71 -28 104.5t-84 33.5q-45 0 -75.5 -19.5t-51.5 -56.5l-76 44
q25 55 81 88t128 33q93 0 150.5 -55zM385 224q-60 15 -105 15q-60 0 -93 -23t-33 -64q0 -37 27 -58.5t71 -21.5q55 0 94 31.5t39 87.5v33zM331.5 -87.5q19.5 -19.5 19.5 -45.5q0 -27 -19.5 -46.5t-46.5 -19.5t-46 19.5t-19 46.5q0 26 19 45.5t46 19.5t46.5 -19.5z" />
    <glyph glyph-name="uni1EAE" unicode="&#x1eae;" horiz-adv-x="683" 
d="M308 867l85 61h111l-109 -61h-87zM229 804q-43 17 -43 45h88q5 -24 72 -24t72 24h88q0 -29 -42.5 -45.5t-117.5 -16.5q-74 0 -117 17zM382 732l294 -732h-117l-75 196h-297l-72 -196h-108l283 732h92zM448 290l-116 302l-110 -302h226z" />
    <glyph glyph-name="uni1EAF" unicode="&#x1eaf;" horiz-adv-x="552" 
d="M303 907h108l-98 -138h-86zM159 630.5q-45 42.5 -45 115.5h88q6 -85 75 -85q71 0 76 85h88q0 -73 -44.5 -115.5t-119.5 -42.5q-73 0 -118 42.5zM429.5 476q57.5 -55 57.5 -158v-318h-89q-2 45 -5 64q-48 -75 -154 -75q-52 0 -95.5 19t-69.5 55t-26 87q0 77 63 122t161 45
q55 0 113 -15v2q0 71 -28 104.5t-84 33.5q-45 0 -75.5 -19.5t-51.5 -56.5l-76 44q25 55 81 88t128 33q93 0 150.5 -55zM385 224q-60 15 -105 15q-60 0 -93 -23t-33 -64q0 -37 27 -58.5t71 -21.5q55 0 94 31.5t39 87.5v33z" />
    <glyph glyph-name="uni1EB0" unicode="&#x1eb0;" horiz-adv-x="683" 
d="M187 928h111l85 -61h-87zM229 804q-43 17 -43 45h88q5 -24 72 -24t72 24h88q0 -29 -42.5 -45.5t-117.5 -16.5q-74 0 -117 17zM382 732l294 -732h-117l-75 196h-297l-72 -196h-108l283 732h92zM448 290l-116 302l-110 -302h226z" />
    <glyph glyph-name="uni1EB1" unicode="&#x1eb1;" horiz-adv-x="552" 
d="M252 907l75 -138h-86l-97 138h108zM159 630.5q-45 42.5 -45 115.5h88q6 -85 75 -85q71 0 76 85h88q0 -73 -44.5 -115.5t-119.5 -42.5q-73 0 -118 42.5zM429.5 476q57.5 -55 57.5 -158v-318h-89q-2 45 -5 64q-48 -75 -154 -75q-52 0 -95.5 19t-69.5 55t-26 87q0 77 63 122
t161 45q55 0 113 -15v2q0 71 -28 104.5t-84 33.5q-45 0 -75.5 -19.5t-51.5 -56.5l-76 44q25 55 81 88t128 33q93 0 150.5 -55zM385 224q-60 15 -105 15q-60 0 -93 -23t-33 -64q0 -37 27 -58.5t71 -21.5q55 0 94 31.5t39 87.5v33z" />
    <glyph glyph-name="uni1EB2" unicode="&#x1eb2;" horiz-adv-x="683" 
d="M246 919q41 9 85 9q49 0 80.5 -8.5t31.5 -26.5q0 -31 -103 -45l-38 21q64 7 64 17q0 5 -12 8t-33 3q-33 0 -62 -5zM229 803q-43 16 -43 44h88q5 -23 72 -23t72 23h88q0 -28 -42.5 -44t-117.5 -16q-74 0 -117 16zM382 732l294 -732h-117l-75 196h-297l-72 -196h-108
l283 732h92zM448 290l-116 302l-110 -302h226z" />
    <glyph glyph-name="uni1EB3" unicode="&#x1eb3;" horiz-adv-x="552" 
d="M191 850l-13 57q17 10 39.5 15.5t45.5 5.5q49 0 80 -21t31 -64q0 -74 -103 -105l-39 48q29 10 44.5 21.5t15.5 26.5t-11.5 23.5t-31.5 8.5q-27 0 -58 -16zM158.5 628q-44.5 40 -44.5 108h88q6 -80 75 -80q71 0 76 80h88q0 -69 -44.5 -108.5t-119.5 -39.5q-74 0 -118.5 40
zM429.5 476q57.5 -55 57.5 -158v-318h-89q-2 45 -5 64q-48 -75 -154 -75q-52 0 -95.5 19t-69.5 55t-26 87q0 77 63 122t161 45q55 0 113 -15v2q0 71 -28 104.5t-84 33.5q-45 0 -75.5 -19.5t-51.5 -56.5l-76 44q25 55 81 88t128 33q93 0 150.5 -55zM385 224q-60 15 -105 15
q-60 0 -93 -23t-33 -64q0 -37 27 -58.5t71 -21.5q55 0 94 31.5t39 87.5v33z" />
    <glyph glyph-name="uni1EB4" unicode="&#x1eb4;" horiz-adv-x="683" 
d="M172 873q2 25 31.5 40t77.5 15q29 0 48 -4t38 -11q24 -8 38 -8q28 0 36 18h78q-2 -25 -31.5 -40t-77.5 -15q-29 0 -46 3.5t-39 10.5q-2 1 -14 4.5t-25 3.5q-29 0 -36 -17h-78zM229 804q-43 17 -43 46h88q5 -24 72 -24t72 24h88q0 -29 -42.5 -46t-117.5 -17q-74 0 -117 17
zM382 732l294 -732h-117l-75 196h-297l-72 -196h-108l283 732h92zM448 290l-116 302l-110 -302h226z" />
    <glyph glyph-name="uni1EB5" unicode="&#x1eb5;" horiz-adv-x="552" 
d="M182 784h-79q2 58 32 94.5t78 36.5q29 0 47.5 -11t37.5 -30q13 -13 20.5 -18.5t17.5 -5.5q15 0 24.5 14.5t12.5 37.5h78q-2 -59 -31.5 -95t-77.5 -36q-29 0 -47 10.5t-39 30.5q-11 12 -19.5 18t-18.5 6q-29 0 -36 -52zM353 743h88q0 -72 -44.5 -113.5t-119.5 -41.5
q-73 0 -118 42t-45 113h88q6 -84 75 -84q71 0 76 84zM429.5 476q57.5 -55 57.5 -158v-318h-89q-2 45 -5 64q-48 -75 -154 -75q-52 0 -95.5 19t-69.5 55t-26 87q0 77 63 122t161 45q55 0 113 -15v2q0 71 -28 104.5t-84 33.5q-45 0 -75.5 -19.5t-51.5 -56.5l-76 44
q25 55 81 88t128 33q93 0 150.5 -55zM385 224q-60 15 -105 15q-60 0 -93 -23t-33 -64q0 -37 27 -58.5t71 -21.5q55 0 94 31.5t39 87.5v33z" />
    <glyph glyph-name="uni1EB6" unicode="&#x1eb6;" horiz-adv-x="683" 
d="M229 839q-43 32 -43 89h88q2 -31 20.5 -47.5t51.5 -16.5q67 0 72 64h88q0 -57 -42.5 -89t-117.5 -32q-74 0 -117 32zM382 732l294 -732h-117l-75 196h-297l-72 -196h-108l283 732h92zM448 290l-116 302l-110 -302h226zM301 -179.5q-19 19.5 -19 46.5q0 26 19 45.5
t46 19.5t46 -19.5t19 -45.5q0 -27 -19 -46.5t-46 -19.5t-46 19.5z" />
    <glyph glyph-name="uni1EB7" unicode="&#x1eb7;" horiz-adv-x="552" 
d="M159 630.5q-45 42.5 -45 115.5h88q6 -85 75 -85q71 0 76 85h88q0 -73 -44.5 -115.5t-119.5 -42.5q-73 0 -118 42.5zM429.5 476q57.5 -55 57.5 -158v-318h-89q-2 45 -5 64q-48 -75 -154 -75q-52 0 -95.5 19t-69.5 55t-26 87q0 77 63 122t161 45q55 0 113 -15v2
q0 71 -28 104.5t-84 33.5q-45 0 -75.5 -19.5t-51.5 -56.5l-76 44q25 55 81 88t128 33q93 0 150.5 -55zM385 224q-60 15 -105 15q-60 0 -93 -23t-33 -64q0 -37 27 -58.5t71 -21.5q55 0 94 31.5t39 87.5v33zM331.5 -87.5q19.5 -19.5 19.5 -45.5q0 -27 -19.5 -46.5t-46.5 -19.5
t-46 19.5t-19 46.5q0 26 19 45.5t46 19.5t46.5 -19.5z" />
    <glyph glyph-name="uni1EB8" unicode="&#x1eb8;" horiz-adv-x="600" 
d="M505 329h-314v-234h362v-95h-469v733h458v-95h-351v-215h314v-94zM267 -179.5q-19 19.5 -19 46.5q0 26 19 45.5t45 19.5q28 0 47 -19.5t19 -45.5q0 -27 -19.5 -46.5t-46.5 -19.5q-26 0 -45 19.5z" />
    <glyph glyph-name="uni1EB9" unicode="&#x1eb9;" horiz-adv-x="550" 
d="M413 499.5q51 -31.5 79 -86t28 -122.5q0 -23 -5 -55h-364q6 -78 48 -117.5t105 -39.5q82 0 119 68l77 -45q-20 -54 -76 -83.5t-125 -29.5q-71 0 -129 31.5t-92.5 93.5t-34.5 148q0 84 34.5 145t92 92.5t124.5 31.5q68 0 119 -31.5zM201.5 408.5q-37.5 -32.5 -47.5 -94.5
h258q-4 60 -37 93.5t-85 33.5q-51 0 -88.5 -32.5zM252 -179.5q-19 19.5 -19 46.5q0 26 19 45.5t46 19.5t46.5 -19.5t19.5 -45.5q0 -27 -19.5 -46.5t-46.5 -19.5t-46 19.5z" />
    <glyph glyph-name="uni1EBA" unicode="&#x1eba;" horiz-adv-x="600" 
d="M213 912q37 16 85 16q49 0 80.5 -16t31.5 -49q0 -31 -28.5 -51t-74.5 -31l-40 38q30 9 45.5 17t15.5 20q0 11 -12.5 17.5t-31.5 6.5q-29 0 -58 -14zM505 329h-314v-234h362v-95h-469v733h458v-95h-351v-215h314v-94z" />
    <glyph glyph-name="uni1EBB" unicode="&#x1ebb;" horiz-adv-x="550" 
d="M193 749q36 22 85 22t80.5 -23t31.5 -68q0 -42 -28 -69.5t-75 -43.5l-40 53q30 11 45.5 22.5t15.5 28.5q0 16 -12 25t-32 9q-28 0 -58 -18zM413 499.5q51 -31.5 79 -86t28 -122.5q0 -23 -5 -55h-364q6 -78 48 -117.5t105 -39.5q82 0 119 68l77 -45q-20 -54 -76 -83.5
t-125 -29.5q-71 0 -129 31.5t-92.5 93.5t-34.5 148q0 84 34.5 145t92 92.5t124.5 31.5q68 0 119 -31.5zM201.5 408.5q-37.5 -32.5 -47.5 -94.5h258q-4 60 -37 93.5t-85 33.5q-51 0 -88.5 -32.5z" />
    <glyph glyph-name="uni1EBC" unicode="&#x1ebc;" horiz-adv-x="600" 
d="M139 820q2 48 31.5 78t77.5 30q29 0 46.5 -8.5t38.5 -25.5q12 -10 20.5 -15t18.5 -5q15 0 24 12t12 31h78q-2 -49 -31.5 -79t-77.5 -30q-29 0 -47 9t-39 25q-11 10 -19.5 15t-18.5 5q-28 0 -36 -42h-78zM505 329h-314v-234h362v-95h-469v733h458v-95h-351v-215h314v-94z
" />
    <glyph glyph-name="uni1EBD" unicode="&#x1ebd;" horiz-adv-x="550" 
d="M119 608q2 60 31.5 97t77.5 37q29 0 48 -11.5t38 -31.5q11 -12 19.5 -18t18.5 -6q15 0 24 15t12 38h78q-2 -60 -31.5 -97t-77.5 -37q-29 0 -47 11t-38 31q-12 13 -20.5 19t-18.5 6q-28 0 -36 -53h-78zM413 499.5q51 -31.5 79 -86t28 -122.5q0 -23 -5 -55h-364
q6 -78 48 -117.5t105 -39.5q82 0 119 68l77 -45q-20 -54 -76 -83.5t-125 -29.5q-71 0 -129 31.5t-92.5 93.5t-34.5 148q0 84 34.5 145t92 92.5t124.5 31.5q68 0 119 -31.5zM201.5 408.5q-37.5 -32.5 -47.5 -94.5h258q-4 60 -37 93.5t-85 33.5q-51 0 -88.5 -32.5z" />
    <glyph glyph-name="uni1EBE" unicode="&#x1ebe;" horiz-adv-x="600" 
d="M393 863l85 65h111l-109 -65h-87zM266 852h92l125 -65h-111l-60 29l-60 -29h-111zM505 329h-314v-234h362v-95h-469v733h458v-95h-351v-215h314v-94z" />
    <glyph glyph-name="uni1EBF" unicode="&#x1ebf;" horiz-adv-x="550" 
d="M357 765l84 156h109l-107 -156h-86zM246 745h87l120 -156h-97l-66 88l-66 -88h-97zM413 499.5q51 -31.5 79 -86t28 -122.5q0 -23 -5 -55h-364q6 -78 48 -117.5t105 -39.5q82 0 119 68l77 -45q-20 -54 -76 -83.5t-125 -29.5q-71 0 -129 31.5t-92.5 93.5t-34.5 148
q0 84 34.5 145t92 92.5t124.5 31.5q68 0 119 -31.5zM201.5 408.5q-37.5 -32.5 -47.5 -94.5h258q-4 60 -37 93.5t-85 33.5q-51 0 -88.5 -32.5z" />
    <glyph glyph-name="uni1EC0" unicode="&#x1ec0;" horiz-adv-x="600" 
d="M272 928h111l85 -65h-87zM266 852h92l125 -65h-110l-61 30l-61 -30h-110zM505 329h-314v-234h362v-95h-469v733h458v-95h-351v-215h314v-94z" />
    <glyph glyph-name="uni1EC1" unicode="&#x1ec1;" horiz-adv-x="550" 
d="M263 921h109l85 -156h-87zM246 745h87l120 -156h-97l-66 88l-66 -88h-97zM413 499.5q51 -31.5 79 -86t28 -122.5q0 -23 -5 -55h-364q6 -78 48 -117.5t105 -39.5q82 0 119 68l77 -45q-20 -54 -76 -83.5t-125 -29.5q-71 0 -129 31.5t-92.5 93.5t-34.5 148q0 84 34.5 145
t92 92.5t124.5 31.5q68 0 119 -31.5zM201.5 408.5q-37.5 -32.5 -47.5 -94.5h258q-4 60 -37 93.5t-85 33.5q-51 0 -88.5 -32.5z" />
    <glyph glyph-name="uni1EC2" unicode="&#x1ec2;" horiz-adv-x="603" 
d="M331 918q34 9 85 9q49 0 80.5 -9t31.5 -27q0 -32 -103 -47l-38 22q64 7 64 18q0 5 -13 8.5t-33 3.5q-29 0 -61 -7zM266 850h92l125 -63h-111l-60 28l-60 -28h-111zM505 329h-314v-234h362v-95h-469v733h458v-95h-351v-215h314v-94z" />
    <glyph glyph-name="uni1EC3" unicode="&#x1ec3;" horiz-adv-x="550" 
d="M317 899q35 23 85 23q49 0 80.5 -22.5t31.5 -67.5q0 -76 -103 -111l-40 51q30 11 45.5 22.5t15.5 28.5q0 16 -12 25t-32 9q-26 0 -58 -18zM246 744h87l120 -155h-97l-66 88l-66 -88h-97zM413 499.5q51 -31.5 79 -86t28 -122.5q0 -23 -5 -55h-364q6 -78 48 -117.5
t105 -39.5q82 0 119 68l77 -45q-20 -54 -76 -83.5t-125 -29.5q-71 0 -129 31.5t-92.5 93.5t-34.5 148q0 84 34.5 145t92 92.5t124.5 31.5q68 0 119 -31.5zM201.5 408.5q-37.5 -32.5 -47.5 -94.5h258q-4 60 -37 93.5t-85 33.5q-51 0 -88.5 -32.5z" />
    <glyph glyph-name="uni1EC4" unicode="&#x1ec4;" horiz-adv-x="600" 
d="M141 872q1 25 31 40.5t78 15.5q29 0 48 -4t38 -11q24 -8 38 -8q29 0 36 18h78q-1 -25 -31 -40.5t-78 -15.5q-29 0 -46 3.5t-39 10.5q-23 9 -39 9q-29 0 -36 -18h-78zM268 851h92l125 -64h-111l-59 28l-61 -28h-111zM505 329h-314v-234h362v-95h-469v733h458v-95h-351
v-215h314v-94z" />
    <glyph glyph-name="uni1EC5" unicode="&#x1ec5;" horiz-adv-x="550" 
d="M195 783h-78q2 59 31.5 95.5t77.5 36.5q29 0 47.5 -11t38.5 -31q11 -12 19.5 -18t18.5 -6q28 0 36 53h79q-2 -59 -32 -95.5t-78 -36.5q-29 0 -47.5 11t-37.5 31q-13 13 -20.5 18.5t-17.5 5.5q-29 0 -37 -53zM246 744h87l120 -155h-97l-66 88l-66 -88h-97zM413 499.5
q51 -31.5 79 -86t28 -122.5q0 -23 -5 -55h-364q6 -78 48 -117.5t105 -39.5q82 0 119 68l77 -45q-20 -54 -76 -83.5t-125 -29.5q-71 0 -129 31.5t-92.5 93.5t-34.5 148q0 84 34.5 145t92 92.5t124.5 31.5q68 0 119 -31.5zM201.5 408.5q-37.5 -32.5 -47.5 -94.5h258
q-4 60 -37 93.5t-85 33.5q-51 0 -88.5 -32.5z" />
    <glyph glyph-name="uni1EC6" unicode="&#x1ec6;" horiz-adv-x="600" 
d="M266 928h92l125 -122h-101l-70 71l-70 -71h-101zM505 329h-314v-234h362v-95h-469v733h458v-95h-351v-215h314v-94zM267 -179.5q-19 19.5 -19 46.5q0 26 19 45.5t45 19.5q28 0 47 -19.5t19 -45.5q0 -27 -19.5 -46.5t-46.5 -19.5q-26 0 -45 19.5z" />
    <glyph glyph-name="uni1EC7" unicode="&#x1ec7;" horiz-adv-x="550" 
d="M248 747h88l119 -158h-97l-66 88l-67 -88h-97zM413 499.5q51 -31.5 79 -86t28 -122.5q0 -23 -5 -55h-364q6 -78 48 -117.5t105 -39.5q82 0 119 68l77 -45q-20 -54 -76 -83.5t-125 -29.5q-71 0 -129 31.5t-92.5 93.5t-34.5 148q0 84 34.5 145t92 92.5t124.5 31.5
q68 0 119 -31.5zM201.5 408.5q-37.5 -32.5 -47.5 -94.5h258q-4 60 -37 93.5t-85 33.5q-51 0 -88.5 -32.5zM252 -179.5q-19 19.5 -19 46.5q0 26 19 45.5t46 19.5t46.5 -19.5t19.5 -45.5q0 -27 -19.5 -46.5t-46.5 -19.5t-46 19.5z" />
    <glyph glyph-name="uni1EC8" unicode="&#x1ec8;" horiz-adv-x="275" 
d="M38 912q37 16 86 16t80 -16t31 -49q0 -59 -103 -82l-40 38q30 8 45.5 16.5t15.5 20.5q0 11 -12 17.5t-32 6.5q-27 0 -58 -14zM191 0h-107v732h107v-732z" />
    <glyph glyph-name="uni1EC9" unicode="&#x1ec9;" horiz-adv-x="249" 
d="M25 749q35 23 86 23q48 0 79.5 -23t31.5 -68q0 -79 -103 -113l-40 52q30 12 45.5 23.5t15.5 28.5q0 16 -12 25t-32 9q-26 0 -58 -19zM73 0v519h103v-519h-103z" />
    <glyph glyph-name="uni1ECA" unicode="&#x1eca;" horiz-adv-x="275" 
d="M191 0h-107v732h107v-732zM92 -179.5q-19 19.5 -19 46.5q0 26 19 45.5t46 19.5t46 -19.5t19 -45.5q0 -27 -19 -46.5t-46 -19.5t-46 19.5z" />
    <glyph glyph-name="uni1ECB" unicode="&#x1ecb;" horiz-adv-x="250" 
d="M79 623q-19 20 -19 47t19 46.5t45 19.5q28 0 47 -19.5t19 -46.5t-19.5 -47t-46.5 -20q-26 0 -45 20zM176 0h-103v519h103v-519zM79 -179.5q-19 19.5 -19 46.5q0 26 19 45.5t46 19.5t46 -19.5t19 -45.5q0 -27 -19 -46.5t-46 -19.5t-46 19.5z" />
    <glyph glyph-name="uni1ECC" unicode="&#x1ecc;" horiz-adv-x="770" 
d="M91 566.5q44 85.5 121 131.5t172 46t172 -46t121 -131.5t44 -199.5q0 -115 -44.5 -200.5t-121 -131.5t-171.5 -46t-172 45.5t-121 131.5t-44 201q0 114 44 199.5zM188.5 220.5q27.5 -63.5 77.5 -98.5t118 -35t118.5 35t78 98.5t27.5 146.5t-27.5 146t-78.5 98t-118 35
t-117.5 -35t-78 -98t-27.5 -146t27.5 -146.5zM339 -179.5q-19 19.5 -19 46.5q0 26 19 45.5t45 19.5q28 0 47 -19.5t19 -45.5q0 -27 -19.5 -46.5t-46.5 -19.5q-26 0 -45 19.5z" />
    <glyph glyph-name="uni1ECD" unicode="&#x1ecd;" horiz-adv-x="594" 
d="M78 401q35 62 93.5 96t126.5 34q67 0 125 -34t93 -96t35 -141t-35 -141t-93 -96t-125 -34q-68 0 -126.5 34t-93.5 96t-35 141t35 141zM192.5 130q41.5 -48 104.5 -48q64 0 105 48t41 130t-41.5 130t-104.5 48t-104.5 -48t-41.5 -130t41.5 -130zM252 -179.5
q-19 19.5 -19 46.5q0 26 19 45.5t46 19.5t46 -19.5t19 -45.5q0 -27 -19.5 -46.5t-45.5 -19.5q-27 0 -46 19.5z" />
    <glyph glyph-name="uni1ECE" unicode="&#x1ece;" horiz-adv-x="770" 
d="M285 912q37 16 85 16q49 0 80.5 -16t31.5 -49q0 -31 -28.5 -51t-74.5 -31l-40 38q30 9 45.5 17t15.5 20q0 11 -12.5 17.5t-31.5 6.5q-29 0 -58 -14zM91 566.5q44 85.5 121 131.5t172 46t172 -46t121 -131.5t44 -199.5q0 -115 -44.5 -200.5t-121 -131.5t-171.5 -46
t-172 45.5t-121 131.5t-44 201q0 114 44 199.5zM188.5 220.5q27.5 -63.5 77.5 -98.5t118 -35t118.5 35t78 98.5t27.5 146.5t-27.5 146t-78.5 98t-118 35t-117.5 -35t-78 -98t-27.5 -146t27.5 -146.5z" />
    <glyph glyph-name="uni1ECF" unicode="&#x1ecf;" horiz-adv-x="594" 
d="M198 749q36 22 85 22t80.5 -23t31.5 -68q0 -42 -28 -69.5t-75 -43.5l-40 53q30 11 45.5 22.5t15.5 28.5q0 16 -12 25t-32 9q-28 0 -58 -18zM78 401q35 62 93.5 96t126.5 34q67 0 125 -34t93 -96t35 -141t-35 -141t-93 -96t-125 -34q-68 0 -126.5 34t-93.5 96t-35 141
t35 141zM192.5 130q41.5 -48 104.5 -48q64 0 105 48t41 130t-41.5 130t-104.5 48t-104.5 -48t-41.5 -130t41.5 -130z" />
    <glyph glyph-name="uni1ED0" unicode="&#x1ed0;" horiz-adv-x="770" 
d="M465 863l85 65h111l-109 -65h-87zM338 852h92l125 -65h-111l-60 29l-60 -29h-111zM91 566.5q44 85.5 121 131.5t172 46t172 -46t121 -131.5t44 -199.5q0 -115 -44.5 -200.5t-121 -131.5t-171.5 -46t-172 45.5t-121 131.5t-44 201q0 114 44 199.5zM188.5 220.5
q27.5 -63.5 77.5 -98.5t118 -35t118.5 35t78 98.5t27.5 146.5t-27.5 146t-78.5 98t-118 35t-117.5 -35t-78 -98t-27.5 -146t27.5 -146.5z" />
    <glyph glyph-name="uni1ED1" unicode="&#x1ed1;" horiz-adv-x="594" 
d="M362 767l75 139h108l-97 -139h-86zM251 747h87l120 -158h-97l-66 89l-66 -89h-97zM78 401q35 62 93.5 96t126.5 34q67 0 125 -34t93 -96t35 -141t-35 -141t-93 -96t-125 -34q-68 0 -126.5 34t-93.5 96t-35 141t35 141zM192.5 130q41.5 -48 104.5 -48q64 0 105 48t41 130
t-41.5 130t-104.5 48t-104.5 -48t-41.5 -130t41.5 -130z" />
    <glyph glyph-name="uni1ED2" unicode="&#x1ed2;" horiz-adv-x="770" 
d="M344 928h111l85 -65h-87zM338 852h92l125 -65h-110l-61 30l-61 -30h-110zM91 566.5q44 85.5 121 131.5t172 46t172 -46t121 -131.5t44 -199.5q0 -115 -44.5 -200.5t-121 -131.5t-171.5 -46t-172 45.5t-121 131.5t-44 201q0 114 44 199.5zM188.5 220.5
q27.5 -63.5 77.5 -98.5t118 -35t118.5 35t78 98.5t27.5 146.5t-27.5 146t-78.5 98t-118 35t-117.5 -35t-78 -98t-27.5 -146t27.5 -146.5z" />
    <glyph glyph-name="uni1ED3" unicode="&#x1ed3;" horiz-adv-x="594" 
d="M278 906h108l76 -139h-87zM251 747h87l120 -158h-97l-66 89l-66 -89h-97zM78 401q35 62 93.5 96t126.5 34q67 0 125 -34t93 -96t35 -141t-35 -141t-93 -96t-125 -34q-68 0 -126.5 34t-93.5 96t-35 141t35 141zM192.5 130q41.5 -48 104.5 -48q64 0 105 48t41 130
t-41.5 130t-104.5 48t-104.5 -48t-41.5 -130t41.5 -130z" />
    <glyph glyph-name="uni1ED4" unicode="&#x1ed4;" horiz-adv-x="769" 
d="M403 919q41 9 85 9q48 0 80 -9.5t32 -27.5q0 -17 -28.5 -28.5t-74.5 -18.5l-38 22q64 7 64 19q0 5 -12.5 8t-33.5 3q-29 0 -61 -7zM338 850h92l125 -63h-111l-60 28l-60 -28h-111zM91 566.5q44 85.5 121 131.5t172 46t172 -46t121 -131.5t44 -199.5q0 -115 -44.5 -200.5
t-121 -131.5t-171.5 -46t-172 45.5t-121 131.5t-44 201q0 114 44 199.5zM188.5 220.5q27.5 -63.5 77.5 -98.5t118 -35t118.5 35t78 98.5t27.5 146.5t-27.5 146t-78.5 98t-118 35t-117.5 -35t-78 -98t-27.5 -146t27.5 -146.5z" />
    </font>
</defs>
</svg>
