<?xml version="1.0" standalone="no"?>
<!DOCTYPE svg PUBLIC "-//W3C//DTD SVG 1.1//EN" "http://www.w3.org/Graphics/SVG/1.1/DTD/svg11.dtd" >
<svg xmlns="http://www.w3.org/2000/svg" xmlns:xlink="http://www.w3.org/1999/xlink" version="1.1">
<metadata>
Created by FontForge 20170731 at Fri May 28 14:22:29 2021
 By Aleksey,,,
Copyright 2021 Huawei Device Co., Ltd. All Rights Reserved.
</metadata>
<defs>
<font id="HarmonyOS_Sans_Light" horiz-adv-x="553" >
  <font-face 
    font-family="HarmonyOS Sans Light"
    font-weight="300"
    font-stretch="normal"
    units-per-em="1000"
    panose-1="0 0 4 0 0 0 0 0 0 0"
    ascent="800"
    descent="-200"
    x-height="520"
    cap-height="732"
    bbox="-548 -244 1285 928"
    underline-thickness="50"
    underline-position="-150"
    unicode-range="U+0020-30FB"
  />
<missing-glyph horiz-adv-x="1000" 
 />
    <glyph glyph-name="f_b.liga" unicode="fb" horiz-adv-x="918" 
d="M117 581q0 98 41 144t106 46q42 0 69 -17v-54q-28 18 -65 18q-45 0 -69.5 -32t-24.5 -107v-58h135v-49h-135v-472h-57v472h-89v49h89v60zM751 499q51 -32 81.5 -93.5t30.5 -144.5q0 -84 -30.5 -145.5t-81.5 -93.5t-111 -32t-109.5 32t-73.5 94q-3 -31 -5 -116h-49v760h56
v-349q25 59 74 89.5t107 30.5q60 0 111 -32zM721.5 69q38.5 25 60.5 74t22 118q0 68 -22 117t-60.5 74t-87.5 25q-45 0 -84.5 -21.5t-65 -70t-25.5 -124.5t25.5 -125t65 -70.5t84.5 -21.5q49 0 87.5 25z" />
    <glyph glyph-name="f_f.liga" unicode="ff" horiz-adv-x="635" 
d="M506.5 686q-24.5 -32 -24.5 -107v-58h139v-49h-139v-472h-57v472h-251v-472h-57v472h-89v49h89v60q0 98 41.5 144t107.5 46q28 0 51 -7.5t37 -18.5l-22 -46q-28 19 -64 19q-45 0 -69.5 -32t-24.5 -107v-58h251v60q0 98 41.5 144t107.5 46q28 0 51 -7.5t37 -18.5l-22 -46
q-28 19 -64 19q-45 0 -69.5 -32z" />
    <glyph glyph-name="f_f_b.liga" unicode="ffb" horiz-adv-x="1226" 
d="M425 581q0 98 41 144t106 46q42 0 69 -17v-54q-26 18 -65 18q-94 0 -94 -139v-58h135v-49h-135v-472h-57v472h-251v-472h-57v472h-89v49h89v60q0 98 41.5 144t107.5 46q28 0 51 -7.5t37 -18.5l-22 -46q-28 19 -64 19q-45 0 -69.5 -32t-24.5 -107v-58h251v60zM1059 499
q51 -32 82 -93.5t31 -144.5q0 -84 -31 -145.5t-82 -93.5t-110 -32q-60 0 -110 32.5t-74 93.5q-4 -43 -4 -116h-50v760h57v-349q25 59 73.5 89.5t107.5 30.5t110 -32zM1030 69q39 25 61 74t22 118q0 68 -22.5 117t-61 74t-87.5 25q-45 0 -84.5 -21.5t-64.5 -70t-25 -124.5
t25 -125t64.5 -70.5t84.5 -21.5q49 0 88 25z" />
    <glyph glyph-name="f_f_h.liga" unicode="ffh" horiz-adv-x="1194" 
d="M425 581q0 98 41 144t106 46q42 0 69 -17v-54q-26 18 -65 18q-94 0 -94 -139v-58h135v-49h-135v-472h-57v472h-251v-472h-57v472h-89v49h89v60q0 98 41.5 144t107.5 46q28 0 51 -7.5t37 -18.5l-22 -46q-28 19 -64 19q-45 0 -69.5 -32t-24.5 -107v-58h251v60zM1068.5 478
q49.5 -53 49.5 -152v-326h-56v311q0 80 -35.5 123t-98.5 43q-42 0 -78.5 -19.5t-59 -58.5t-22.5 -94v-305h-57v761h57v-335q24 50 69.5 77.5t102.5 27.5q79 0 128.5 -53z" />
    <glyph glyph-name="f_f_i.liga" unicode="ffi" horiz-adv-x="854" 
d="M425 581q0 98 41 144t106 46q42 0 69 -17v-54q-26 18 -65 18q-94 0 -94 -139v-58h135v-49h-135v-472h-57v472h-251v-472h-57v472h-89v49h89v60q0 98 41.5 144t107.5 46q28 0 51 -7.5t37 -18.5l-22 -46q-28 19 -64 19q-45 0 -69.5 -32t-24.5 -107v-58h251v60zM769 707.5
q12 -12.5 12 -30.5q0 -17 -12 -29.5t-29 -12.5t-29.5 12.5t-12.5 29.5t12.5 30t28.5 13q18 0 30 -12.5zM768 0h-57v520h57v-520z" />
    <glyph glyph-name="f_f_k.liga" unicode="ffk" horiz-adv-x="1126" 
d="M425 581q0 98 41 144t106 46q42 0 69 -17v-54q-26 18 -65 18q-94 0 -94 -139v-58h135v-49h-135v-472h-57v472h-251v-472h-57v472h-89v49h89v60q0 98 41.5 144t107.5 46q28 0 51 -7.5t37 -18.5l-22 -46q-28 19 -64 19q-45 0 -69.5 -32t-24.5 -107v-58h251v60zM1102 520
l-202 -219l223 -301h-72l-190 258l-93 -102v-156h-57v761h57v-531l263 290h71z" />
    <glyph glyph-name="f_f_l.liga" unicode="ffl" horiz-adv-x="853" 
d="M425 581q0 98 41 144t106 46q42 0 69 -17v-54q-26 18 -65 18q-94 0 -94 -139v-58h135v-49h-135v-472h-57v472h-251v-472h-57v472h-89v49h89v60q0 98 41.5 144t107.5 46q28 0 51 -7.5t37 -18.5l-22 -46q-28 19 -64 19q-45 0 -69.5 -32t-24.5 -107v-58h251v60zM711 0v761
h57v-761h-57z" />
    <glyph glyph-name="f_h.liga" unicode="fh" horiz-adv-x="886" 
d="M117 581q0 98 41 144t106 46q42 0 69 -17v-54q-28 18 -65 18q-45 0 -69.5 -32t-24.5 -107v-58h135v-49h-135v-472h-57v472h-89v49h89v60zM760 478q50 -53 50 -152v-326h-57v311q0 80 -35.5 123t-98.5 43q-42 0 -78.5 -19.5t-59 -58.5t-22.5 -94v-305h-56v761h56v-335
q24 50 69.5 77.5t102.5 27.5q79 0 129 -53z" />
    <glyph glyph-name="f_i.liga" unicode="fi" horiz-adv-x="546" 
d="M117 581q0 98 41 144t106 46q42 0 69 -17v-54q-28 18 -65 18q-45 0 -69.5 -32t-24.5 -107v-58h135v-49h-135v-472h-57v472h-89v49h89v60zM460.5 707q12.5 -13 12.5 -30t-12.5 -29.5t-29.5 -12.5t-29 12.5t-12 29.5t12 30t29 13t29.5 -13zM459 0h-56v520h56v-520z" />
    <glyph glyph-name="f_k.liga" unicode="fk" horiz-adv-x="818" 
d="M117 581q0 98 41 144t106 46q42 0 69 -17v-54q-28 18 -65 18q-45 0 -69.5 -32t-24.5 -107v-58h135v-49h-135v-472h-57v472h-89v49h89v60zM794 520l-202 -219l223 -301h-72l-190 258l-94 -102v-156h-56v761h56v-531l264 290h71z" />
    <glyph glyph-name="f_l.liga" unicode="fl" horiz-adv-x="545" 
d="M117 581q0 98 41 144t106 46q42 0 69 -17v-54q-28 18 -65 18q-45 0 -69.5 -32t-24.5 -107v-58h135v-49h-135v-472h-57v472h-89v49h89v60zM403 0v761h56v-761h-56z" />
    <glyph glyph-name="r_f.liga" unicode="rf" horiz-adv-x="665" 
d="M536 686q-25 -32 -25 -107v-58h140v-49h-140v-472h-56v472h-90v49h90v60q0 98 41 144t107 46q28 0 51 -7.5t38 -18.5l-23 -46q-26 19 -63 19q-45 0 -70 -32zM193 503.5q35 27.5 82 27.5q27 0 50 -10v-56q-18 12 -49 12q-59 0 -96.5 -49t-37.5 -141v-287h-56v520h49l3 -96
q20 52 55 79.5z" />
    <glyph glyph-name="r_t.liga" unicode="rt" horiz-adv-x="694" 
d="M680 16q-36 -26 -92 -26q-62 0 -98.5 35.5t-36.5 123.5v323h-83v49h83v144h57v-144h146v-49h-146v-316q0 -61 21.5 -86.5t62.5 -25.5q36 0 67 18zM193 503.5q35 27.5 82 27.5q27 0 50 -10v-56q-18 12 -49 12q-59 0 -96.5 -49t-37.5 -141v-287h-56v520h49l3 -96
q20 52 55 79.5z" />
    <glyph glyph-name="r_v.liga" unicode="rv" horiz-adv-x="848" 
d="M327 521v-56q-17 12 -49 12q-59 0 -97.5 -49.5t-38.5 -140.5v-287h-56v520h49l3 -97q20 52 56.5 80t83.5 28q27 0 49 -10zM430 520l180 -443l168 443h59l-208 -520h-46l-218 520h65z" />
    <glyph glyph-name="r_x.liga" unicode="rx" horiz-adv-x="824" 
d="M327 521v-56q-17 12 -49 12q-59 0 -97.5 -49.5t-38.5 -140.5v-287h-56v520h49l3 -97q20 52 56.5 80t83.5 28q27 0 49 -10zM589 306l154 214h66l-189 -258l189 -262h-70l-153 215l-155 -215h-68l191 259l-191 261h72z" />
    <glyph glyph-name="r_y.liga" unicode="ry" horiz-adv-x="851" 
d="M194.5 503q36.5 28 83.5 28q27 0 49 -10v-56q-17 12 -49 12q-59 0 -97.5 -49.5t-38.5 -140.5v-287h-56v520h49l3 -97q20 52 56.5 80zM781 520h59l-250 -628q-28 -72 -60 -104t-89 -32q-52 0 -82 25l23 47q10 -8 26.5 -13.5t32.5 -5.5q34 0 57 23t46 81l33 80l-213 527h66
l177 -454z" />
    <glyph glyph-name=".notdef" horiz-adv-x="1000" 
 />
    <glyph glyph-name=".null" horiz-adv-x="0" 
 />
    <glyph glyph-name="nonmarkingreturn" horiz-adv-x="333" 
 />
    <glyph glyph-name="null" horiz-adv-x="600" 
 />
    <glyph glyph-name="null" horiz-adv-x="600" 
 />
    <glyph glyph-name="space" unicode=" " horiz-adv-x="270" 
 />
    <glyph glyph-name="exclam" unicode="!" horiz-adv-x="227" 
d="M92 195l-8 564h59l-8 -564h-43zM84.5 2.5q-12.5 12.5 -12.5 29.5q0 18 12 30.5t29 12.5q18 0 30 -12.5t12 -30.5q0 -17 -12 -29.5t-29 -12.5t-29.5 12.5z" />
    <glyph glyph-name="quotedbl" unicode="&#x22;" horiz-adv-x="303" 
d="M61 574l-2 229h50l-2 -229h-46zM196 574l-2 229h51l-3 -229h-46z" />
    <glyph glyph-name="numbersign" unicode="#" horiz-adv-x="621" 
d="M496 532h109v-52h-121l-55 -231h109v-53h-121l-47 -199h-53l47 199h-184l-47 -199h-54l47 199h-109v53h121l55 231h-109v52h121l47 201h54l-47 -201h184l47 201h53zM246 480l-54 -231h184l54 231h-184z" />
    <glyph glyph-name="dollar" unicode="$" 
d="M312 390q64 -23 105.5 -45.5t69 -61t27.5 -97.5q0 -83 -54.5 -136.5t-147.5 -58.5v-133h-55v134q-83 9 -144.5 57.5t-79.5 125.5l46 28q19 -66 66.5 -106.5t111.5 -49.5v302q-64 23 -104 45t-67 60t-27 96q0 85 57 135t141 57v125h55v-126q76 -8 127.5 -52t61.5 -103
l-46 -28q-11 51 -48.5 85.5t-94.5 41.5v-295zM153 467.5q36 -31.5 104 -58.5v278q-61 -6 -100.5 -40t-39.5 -92q0 -56 36 -87.5zM312 46q66 4 104.5 41t38.5 94t-36.5 89.5t-106.5 59.5v-284z" />
    <glyph glyph-name="percent" unicode="%" horiz-adv-x="753" 
d="M311.5 504.5q-20.5 -35.5 -55.5 -55t-78 -19.5t-77.5 19.5t-55 55t-20.5 81.5t20.5 82t55.5 55.5t77 19.5q43 0 78 -19.5t55.5 -55.5t20.5 -82t-20.5 -81.5zM565 733h62l-437 -733h-62zM248.5 663q-28.5 30 -70.5 30t-70.5 -30t-28.5 -77q0 -48 28.5 -77.5t70.5 -29.5
t70.5 29.5t28.5 77.5q0 47 -28.5 77zM707.5 64.5q-20.5 -35.5 -56 -55t-77.5 -19.5t-77 19.5t-55.5 55t-20.5 81.5q0 47 20.5 82.5t55 55t77.5 19.5t78 -19.5t55.5 -55t20.5 -82.5q0 -46 -20.5 -81.5zM645 224q-29 30 -71 30t-70.5 -30t-28.5 -78q0 -47 28.5 -76.5
t70.5 -29.5t71 29.5t29 76.5q0 48 -29 78z" />
    <glyph glyph-name="ampersand" unicode="&#x26;" horiz-adv-x="688" 
d="M693 0h-78l-102 114q-44 -59 -102.5 -91.5t-131.5 -32.5q-65 0 -116.5 25t-81 72t-29.5 112q0 86 47 139t130 96q-48 55 -67 92.5t-19 80.5q0 52 24.5 89t65.5 56t90 19q77 0 123.5 -44t46.5 -112q0 -47 -24 -81t-59 -57t-96 -54l194 -216q49 98 58 227h58
q-18 -161 -78 -270zM222.5 541.5q17.5 -31.5 59.5 -80.5q50 26 80 45t49.5 45.5t19.5 62.5q0 44 -28.5 73.5t-80.5 29.5t-84.5 -29t-32.5 -80q0 -35 17.5 -66.5zM477 155l-215 241q-71 -39 -109.5 -82.5t-38.5 -112.5q0 -74 46.5 -115.5t120.5 -41.5q119 0 196 111z" />
    <glyph glyph-name="quotesingle" unicode="'" horiz-adv-x="168" 
d="M61 574l-2 229h50l-2 -229h-46z" />
    <glyph glyph-name="parenleft" unicode="(" horiz-adv-x="321" 
d="M119 614.5q48 121.5 128 200.5h54q-171 -196 -171 -463q0 -140 45 -256t126 -207h-54q-80 79 -128 200t-48 263q0 141 48 262.5z" />
    <glyph glyph-name="parenright" unicode=")" horiz-adv-x="321" 
d="M202 89q-48 -121 -128 -200h-54q80 91 125 207t45 256q0 268 -170 463h54q80 -79 128 -200.5t48 -262.5q0 -142 -48 -263z" />
    <glyph glyph-name="asterisk" unicode="*" horiz-adv-x="411" 
d="M224 585l125 79l25 -43l-131 -69l131 -69l-25 -42l-125 79l6 -148h-49l6 148l-125 -79l-25 42l131 69l-131 69l25 43l125 -79l-6 148h49z" />
    <glyph glyph-name="plus" unicode="+" 
d="M251 583h51v-195h195v-51h-195v-195l-51 -1v196h-195v51h195v195z" />
    <glyph glyph-name="comma" unicode="," horiz-adv-x="227" 
d="M152 57q13 -17 13 -53q0 -55 -27.5 -94t-76.5 -50v33q63 20 66 97q-3 -1 -10 -1q-18 0 -29 12t-11 30t11.5 30.5t29.5 12.5q21 0 34 -17z" />
    <glyph glyph-name="hyphen" unicode="-" horiz-adv-x="494" 
d="M68 278v49h358v-49h-358z" />
    <glyph glyph-name="period" unicode="." horiz-adv-x="219" 
d="M80.5 3q-12.5 13 -12.5 30t12 29.5t29 12.5q18 0 30 -12.5t12 -29.5q0 -18 -12 -30.5t-30 -12.5q-16 0 -28.5 13z" />
    <glyph glyph-name="slash" unicode="/" horiz-adv-x="367" 
d="M18 0l274 732h58l-274 -732h-58z" />
    <glyph glyph-name="zero" unicode="0" 
d="M444 86q-59 -96 -168 -96q-108 0 -166.5 96t-58.5 280q0 185 58.5 281.5t166.5 96.5q109 0 168 -96t59 -282q0 -184 -59 -280zM276 45q163 0 163 321q0 324 -163 324q-162 0 -162 -324q0 -321 162 -321z" />
    <glyph glyph-name="one" unicode="1" 
d="M105 554v61l202 118h45v-733h-59v661z" />
    <glyph glyph-name="two" unicode="2" 
d="M139 53h360v-53h-450v38l258 299q60 68 84 112.5t24 94.5q0 67 -38.5 106.5t-100.5 39.5q-58 0 -103 -36.5t-66 -102.5l-47 27q22 80 82.5 123t137.5 43q57 0 102 -24t70.5 -68.5t25.5 -104.5q0 -62 -29 -116t-98 -131z" />
    <glyph glyph-name="three" unicode="3" 
d="M460.5 323q36.5 -48 36.5 -120q0 -64 -28.5 -112.5t-79 -74.5t-113.5 -26q-78 0 -142 40.5t-86 115.5l47 28q20 -63 70 -96.5t111 -33.5q70 0 113.5 44t43.5 115q0 73 -48.5 113.5t-139.5 40.5h-42l1 54h45q75 0 115.5 40t40.5 103q0 60 -37 97.5t-99 37.5
q-57 0 -98.5 -32.5t-62.5 -94.5l-48 27q24 76 80.5 115t131.5 39q90 0 143 -52t53 -136q0 -59 -28.5 -103t-84.5 -62q69 -19 105.5 -67z" />
    <glyph glyph-name="four" unicode="4" 
d="M427 443v-218h111v-52h-111v-173h-59v173h-328v41l287 519h65l-282 -508h258v218h59z" />
    <glyph glyph-name="five" unicode="5" 
d="M392.5 429.5q49.5 -29.5 77.5 -82.5t28 -120q0 -69 -29 -123t-81 -84t-118 -30q-70 0 -124 35t-78 103l48 28q21 -55 60.5 -83.5t93.5 -28.5q77 0 121.5 51t44.5 130q0 78 -43.5 129t-120.5 51q-93 0 -150 -84l-36 18l52 395h326v-53h-275l-37 -267q51 45 128 45
q63 0 112.5 -29.5z" />
    <glyph glyph-name="six" unicode="6" 
d="M408.5 416.5q49.5 -30.5 76.5 -82t27 -114.5q0 -65 -29 -117.5t-81 -82.5t-118 -30q-67 0 -119 29.5t-80.5 81.5t-28.5 117q0 54 19.5 100t63.5 118l186 297h67l-173 -277l-26 -38q43 29 100 29q66 0 115.5 -30.5zM403.5 92.5q45.5 48.5 45.5 125.5t-43.5 125.5
t-119.5 48.5q-51 0 -89 -24t-58 -64.5t-20 -88.5q0 -75 45.5 -123t119.5 -48t119.5 48.5z" />
    <glyph glyph-name="seven" unicode="7" 
d="M428 681h-371v52h440v-34l-277 -699h-66z" />
    <glyph glyph-name="eight" unicode="8" 
d="M468.5 323.5q36.5 -51.5 36.5 -119.5q0 -61 -29 -109.5t-81 -76.5t-118 -28q-67 0 -119 28t-81 76.5t-29 109.5q0 68 36.5 119t99.5 74q-51 20 -80.5 63t-29.5 98q0 51 25.5 93.5t72 67.5t105.5 25t105 -25t71 -67.5t25 -93.5q0 -55 -29 -98t-80 -63q63 -22 99.5 -73.5z
M173.5 653q-38.5 -38 -38.5 -97t38 -96t104 -37t104 37t38 96t-39 97t-103 38q-65 0 -103.5 -38zM397 88.5q46 44.5 46 117.5t-45.5 117.5t-120.5 44.5t-120.5 -44.5t-45.5 -117.5t45.5 -117.5t120.5 -44.5q74 0 120 44.5z" />
    <glyph glyph-name="nine" unicode="9" 
d="M389 714.5q52 -29.5 80.5 -81.5t28.5 -117q0 -55 -19.5 -101t-63.5 -117l-186 -297h-67l173 276l26 38q-44 -28 -100 -28q-66 0 -115.5 30t-76.5 81.5t-27 114.5q0 65 29 117.5t81 83t118 30.5q67 0 119 -29.5zM357 366q38 24 58 64t20 89q0 76 -45.5 123.5t-119.5 47.5
t-119.5 -49t-45.5 -126q0 -76 43.5 -124.5t119.5 -48.5q51 0 89 24z" />
    <glyph glyph-name="colon" unicode=":" horiz-adv-x="241" 
d="M91.5 458.5q-12.5 12.5 -12.5 30.5q0 17 12 29.5t29 12.5q18 0 30 -12.5t12 -29.5q0 -18 -12 -30.5t-29 -12.5t-29.5 12.5zM91.5 2.5q-12.5 12.5 -12.5 30.5q0 17 12 29.5t29 12.5q18 0 30 -12.5t12 -29.5q0 -18 -12 -30.5t-29 -12.5t-29.5 12.5z" />
    <glyph glyph-name="semicolon" unicode=";" horiz-adv-x="250" 
d="M99.5 458.5q-12.5 12.5 -12.5 30.5q0 17 12.5 29.5t29.5 12.5t29.5 -12.5t12.5 -29.5q0 -18 -12.5 -30.5t-29.5 -12.5t-29.5 12.5zM160 57q13 -17 13 -53q0 -55 -27.5 -94t-76.5 -50v33q63 20 66 97q-3 -1 -10 -1q-18 0 -29 12t-11 30t11.5 30.5t29.5 12.5q21 0 34 -17z
" />
    <glyph glyph-name="less" unicode="&#x3c;" 
d="M497 575v-57l-365 -156l365 -156v-57l-441 189v48z" />
    <glyph glyph-name="equal" unicode="=" 
d="M497 434h-441v51h441v-51zM497 240h-441v50h441v-50z" />
    <glyph glyph-name="greater" unicode="&#x3e;" 
d="M421 362l-365 156v57l441 -189v-48l-441 -189v57z" />
    <glyph glyph-name="question" unicode="?" horiz-adv-x="417" 
d="M5 632q25 65 79 101t126 36q56 0 98.5 -22t65 -60t22.5 -85q0 -51 -23.5 -87t-69.5 -81q-32 -31 -51 -53.5t-32 -53t-13 -67.5q0 -29 9 -65h-47q-13 43 -13 81q0 39 13 70t31.5 53.5t49.5 53.5q42 41 62.5 72t20.5 73q0 52 -34.5 84.5t-93.5 32.5q-106 0 -154 -110z
M171.5 2.5q-12.5 12.5 -12.5 29.5q0 18 12 30.5t29 12.5t29.5 -12.5t12.5 -30.5q0 -17 -12 -29.5t-30 -12.5q-16 0 -28.5 12.5z" />
    <glyph glyph-name="at" unicode="@" horiz-adv-x="988" 
d="M734.5 718q97.5 -53 152.5 -152.5t55 -232.5q0 -112 -41.5 -183.5t-122.5 -71.5q-50 0 -82.5 29t-41.5 87q-21 -57 -66 -86.5t-100 -29.5q-54 0 -100 28.5t-74 82.5t-28 128q0 73 28 127t74 82.5t100 28.5q53 0 96 -27t65 -79q3 44 3 96h48v-297q0 -60 20.5 -90t60.5 -30
q57 0 82.5 57t25.5 144q0 121 -48 209.5t-133.5 135t-196.5 46.5q-116 0 -207.5 -50t-142.5 -141t-51 -209q0 -117 50.5 -207.5t140.5 -140.5t204 -50q65 0 120 16t94 45l24 -41q-40 -34 -102 -52.5t-136 -18.5q-130 0 -231.5 56.5t-158.5 158.5t-57 234t58 235t161.5 159.5
t234.5 56.5q125 0 222.5 -53zM600 176q45 45 45 141q0 95 -45 140t-107 45q-66 0 -107 -48.5t-41 -136.5t41 -137t107 -49q62 0 107 45z" />
    <glyph glyph-name="A" unicode="A" horiz-adv-x="649" 
d="M345 732l291 -732h-67l-89 230h-320l-86 -230h-61l282 732h50zM460 284l-142 367l-138 -367h280z" />
    <glyph glyph-name="B" unicode="B" horiz-adv-x="629" 
d="M547 320q40 -46 40 -119q0 -94 -65 -147.5t-193 -53.5h-236v732h211q74 0 129 -24.5t84 -68t29 -100.5q0 -56 -29 -96t-84 -60q74 -17 114 -63zM153 679v-277h142q90 0 139 37.5t49 99.5q0 63 -50 101.5t-140 38.5h-140zM317 52q105 0 156.5 40.5t51.5 108.5
q0 70 -52.5 110.5t-150.5 40.5h-169v-300h164z" />
    <glyph glyph-name="C" unicode="C" horiz-adv-x="640" 
d="M491.5 77.5q46.5 32.5 71.5 87.5l48 -28q-27 -67 -88.5 -107t-144.5 -40q-91 0 -164.5 47.5t-115.5 133.5t-42 196t42 195.5t115.5 133t164.5 47.5q83 0 144.5 -40t88.5 -107l-48 -28q-25 55 -71.5 87.5t-114.5 32.5q-76 0 -134.5 -40.5t-91 -113.5t-32.5 -167t32.5 -167
t91 -114t134.5 -41q68 0 114.5 32.5z" />
    <glyph glyph-name="D" unicode="D" horiz-adv-x="707" 
d="M281 732q107 0 190.5 -43t131 -125.5t47.5 -196.5q0 -115 -47 -198t-130.5 -126t-191.5 -43h-188v732h188zM273 53q95 0 166 37t110 107.5t39 169.5q0 98 -39 168.5t-110 107.5t-166 37h-120v-627h120z" />
    <glyph glyph-name="E" unicode="E" horiz-adv-x="579" 
d="M479 353h-326v-300h373v-53h-433v733h422v-53h-362v-274h326v-53z" />
    <glyph glyph-name="F" unicode="F" 
d="M93 732h422v-53h-362v-288h326v-53h-326v-338h-60v732z" />
    <glyph glyph-name="G" unicode="G" horiz-adv-x="687" 
d="M409 319v53h227v-268q-31 -51 -94.5 -82.5t-143.5 -31.5q-98 0 -176 47.5t-122 133.5t-44 197q0 110 44.5 195t121.5 132.5t171 47.5q84 0 148 -37t92 -100l-48 -28q-23 50 -74.5 80t-120.5 30q-78 0 -140 -40.5t-96.5 -113.5t-34.5 -166q0 -95 35.5 -168.5t99.5 -114
t148 -40.5q56 0 102 19t74 57v198h-169z" />
    <glyph glyph-name="H" unicode="H" horiz-adv-x="728" 
d="M153 407h423v325h59v-732h-59v354h-423v-354h-60v732h60v-325z" />
    <glyph glyph-name="I" unicode="I" horiz-adv-x="246" 
d="M153 0h-60v732h60v-732z" />
    <glyph glyph-name="J" unicode="J" horiz-adv-x="432" 
d="M70.5 19.5q-43.5 29.5 -60.5 88.5l47 28q14 -46 44 -68.5t72 -22.5q117 0 117 166v521h59v-527q0 -109 -48.5 -162t-128.5 -53q-58 0 -101.5 29.5z" />
    <glyph glyph-name="K" unicode="K" horiz-adv-x="650" 
d="M321 423l319 -423h-76l-284 379l-127 -132v-247h-60v732h60v-411l387 411h78z" />
    <glyph glyph-name="L" unicode="L" horiz-adv-x="551" 
d="M93 732h60v-678h363v-54h-423v732z" />
    <glyph glyph-name="M" unicode="M" horiz-adv-x="852" 
d="M709 732h49v-732h-57v616l-257 -405h-35l-259 406v-617h-57v732h52l283 -448z" />
    <glyph glyph-name="N" unicode="N" horiz-adv-x="725" 
d="M144 732l431 -625v625h56v-732h-50l-432 626v-626h-56v732h51z" />
    <glyph glyph-name="O" unicode="O" horiz-adv-x="753" 
d="M97.5 564.5q41.5 85.5 114.5 132t164 46.5q92 0 165 -46.5t114.5 -132t41.5 -197.5q0 -113 -41.5 -198.5t-114.5 -132t-165 -46.5q-91 0 -164 46.5t-114.5 132t-41.5 198.5q0 112 41.5 197.5zM151 199q32 -73 90 -113.5t135 -40.5t136 40.5t91 113.5t32 168t-32.5 168
t-91 113.5t-135.5 40.5q-76 0 -134.5 -40.5t-90.5 -113.5t-32 -168t32 -168z" />
    <glyph glyph-name="P" unicode="P" horiz-adv-x="573" 
d="M289 732q74 0 131.5 -27t90 -76.5t32.5 -114.5t-32 -114.5t-90 -76.5t-132 -27h-136v-296h-60v732h196zM282 349q92 0 145 44.5t53 120.5q0 75 -53 120.5t-145 45.5h-129v-331h129z" />
    <glyph glyph-name="Q" unicode="Q" horiz-adv-x="753" 
d="M739 -147h-89l-194 148q-39 -11 -80 -11q-91 0 -164 46.5t-114.5 132t-41.5 198.5q0 112 41.5 197.5t114.5 132t164 46.5q92 0 165 -46.5t114.5 -132t41.5 -197.5q0 -121 -48 -210.5t-130 -132.5zM151 199q32 -73 90 -113.5t135 -40.5t136 40.5t91 113.5t32 168
t-32.5 168t-91 113.5t-135.5 40.5q-76 0 -134.5 -40.5t-90.5 -113.5t-32 -168t32 -168z" />
    <glyph glyph-name="R" unicode="R" horiz-adv-x="611" 
d="M608 0h-73l-222 316q-18 -2 -27 -2h-133v-314h-60v732h193q74 0 132 -25.5t90 -73t32 -110.5q0 -74 -44 -125.5t-120 -71.5zM153 680v-313h126q92 0 145 42t53 114t-53 114.5t-145 42.5h-126z" />
    <glyph glyph-name="S" unicode="S" horiz-adv-x="550" 
d="M456.5 45.5q-61.5 -55.5 -167.5 -55.5q-98 0 -170 46.5t-95 125.5l48 28q24 -68 81.5 -106.5t135.5 -38.5t122.5 38.5t44.5 105.5q0 51 -26 83t-64.5 50t-103.5 38q-69 22 -110 41.5t-69.5 56t-28.5 94.5q0 61 30.5 104t83 65t115.5 22q90 0 148.5 -41.5t73.5 -103.5
l-48 -28q-17 54 -61.5 86.5t-114.5 32.5q-72 0 -118 -35t-46 -97q0 -43 23.5 -70t58.5 -42.5t95 -34.5q72 -22 117 -43.5t76 -62.5t31 -109q0 -94 -61.5 -149.5z" />
    <glyph glyph-name="T" unicode="T" horiz-adv-x="548" 
d="M15 732h518v-53h-230v-679h-59v679h-229v53z" />
    <glyph glyph-name="U" unicode="U" horiz-adv-x="708" 
d="M565 732h60v-446q0 -90 -32 -156.5t-93.5 -103t-145.5 -36.5t-145.5 36.5t-93.5 103t-32 156.5v446h59v-436q0 -119 55 -185t157 -66q101 0 156 66t55 185v436z" />
    <glyph glyph-name="V" unicode="V" horiz-adv-x="640" 
d="M79 732l248 -651l240 651h60l-277 -732h-50l-287 732h66z" />
    <glyph glyph-name="W" unicode="W" horiz-adv-x="954" 
d="M505 733l194 -634l183 633h58l-220 -732h-49l-193 621l-187 -621h-48l-229 732h64l192 -633l184 634h51z" />
    <glyph glyph-name="X" unicode="X" horiz-adv-x="638" 
d="M616 732l-263 -361l270 -371h-73l-234 324l-232 -324h-69l270 371l-263 361h74l226 -314l224 314h70z" />
    <glyph glyph-name="Y" unicode="Y" horiz-adv-x="596" 
d="M308 376l210 357h65l-248 -417v-316h-60v318l-262 415h71z" />
    <glyph glyph-name="Z" unicode="Z" horiz-adv-x="570" 
d="M532 732v-29l-420 -649h433v-54h-516v30l419 649h-389v53h473z" />
    <glyph glyph-name="bracketleft" unicode="[" horiz-adv-x="314" 
d="M91 815h203v-52h-147v-822h147v-52h-203v926z" />
    <glyph glyph-name="backslash" unicode="\" horiz-adv-x="367" 
d="M18 732h58l274 -732h-58z" />
    <glyph glyph-name="bracketright" unicode="]" horiz-adv-x="314" 
d="M20 763v52h203v-926h-203v52h147v822h-147z" />
    <glyph glyph-name="asciicircum" unicode="^" horiz-adv-x="447" 
d="M93 372h-57l163 361h49l164 -361h-58l-130 289z" />
    <glyph glyph-name="underscore" unicode="_" horiz-adv-x="400" 
d="M0 -136v48h400v-48h-400z" />
    <glyph glyph-name="grave" unicode="`" horiz-adv-x="262" 
d="M59 744h64l80 -148h-50z" />
    <glyph glyph-name="a" unicode="a" horiz-adv-x="540" 
d="M411 480.5q53 -50.5 53 -148.5v-332h-50q0 31 -2 81q-23 -43 -66.5 -67t-100.5 -24q-50 0 -92 18.5t-67.5 54t-25.5 85.5q0 76 62 119.5t161 43.5q58 0 124 -17v28q0 80 -35.5 118.5t-98.5 38.5q-50 0 -86 -22t-57 -63l-44 25q22 51 73.5 81.5t116.5 30.5q82 0 135 -50.5
zM407 246q-68 18 -124 18q-75 0 -119.5 -30t-44.5 -85q0 -52 37.5 -81t92.5 -29q66 0 112 39t46 107v61z" />
    <glyph glyph-name="b" unicode="b" horiz-adv-x="601" 
d="M434 499q51 -32 81.5 -93.5t30.5 -144.5q0 -84 -30.5 -145.5t-81.5 -93.5t-111 -32t-110 32.5t-74 93.5q-2 -29 -4 -116h-49v760h56v-349q25 59 73.5 89.5t107.5 30.5q60 0 111 -32zM404 69q39 25 61 74t22 118q0 68 -22 117t-61 74t-88 25q-44 0 -83.5 -21.5t-65 -70
t-25.5 -124.5t25.5 -125t65 -70.5t83.5 -21.5q49 0 88 25z" />
    <glyph glyph-name="c" unicode="c" horiz-adv-x="488" 
d="M425 122l45 -26q-25 -53 -71.5 -79.5t-104.5 -26.5q-67 0 -121.5 34t-86 95.5t-31.5 141.5t31.5 141.5t86 95t121.5 33.5q58 0 105 -26.5t71 -79.5l-45 -26q-41 78 -132 78q-52 0 -92.5 -26t-63.5 -75t-23 -115t23 -115t63.5 -75.5t92.5 -26.5q91 0 132 78z" />
    <glyph glyph-name="d" unicode="d" horiz-adv-x="601" 
d="M459 760h57v-760h-50q-2 90 -4 116q-24 -62 -74 -94t-109 -32q-60 0 -111.5 32t-82 93.5t-30.5 145.5q0 83 30.5 144t82 93.5t111.5 32.5q59 0 107 -30.5t73 -89.5v349zM368.5 65.5q39.5 21.5 65 70t25.5 125.5q0 76 -25.5 124.5t-65 70t-83.5 21.5q-49 0 -88 -25
t-61 -74t-22 -117q0 -69 22.5 -118t61 -74t87.5 -25q44 0 83.5 21.5z" />
    <glyph glyph-name="e" unicode="e" horiz-adv-x="537" 
d="M400.5 500q47.5 -31 73 -83.5t25.5 -116.5q0 -21 -3 -44h-382q4 -103 54.5 -158t131.5 -55q45 0 80.5 19t55.5 57l44 -25q-21 -50 -71.5 -77t-111.5 -27q-67 0 -122 32.5t-87.5 94.5t-32.5 147q0 82 31.5 142.5t85 92.5t117.5 32t111.5 -31zM173 433q-47 -46 -56 -130
h321q0 79 -40.5 127.5t-110.5 48.5q-67 0 -114 -46z" />
    <glyph glyph-name="f" unicode="f" horiz-adv-x="327" 
d="M198.5 686q-24.5 -32 -24.5 -107v-58h139v-49h-139v-472h-57v472h-89v49h89v60q0 98 41.5 144t107.5 46q28 0 51 -7.5t37 -18.5l-22 -46q-28 19 -64 19q-45 0 -69.5 -32z" />
    <glyph glyph-name="g" unicode="g" horiz-adv-x="601" 
d="M515 521v-500q0 -141 -67 -203t-164 -62q-72 0 -128.5 30.5t-80.5 87.5l46 27q45 -92 164 -92q174 0 174 214v86q-25 -59 -72.5 -89t-106.5 -30q-60 0 -111.5 32.5t-82.5 94t-31 144.5t31 144.5t82.5 93.5t111.5 32q59 0 108 -32t74 -93q2 28 4 115h49zM369.5 65.5
q39.5 21.5 64.5 70t25 125.5q0 76 -25 124.5t-64.5 70t-83.5 21.5q-49 0 -88 -25t-61.5 -74t-22.5 -117q0 -69 22.5 -118t61.5 -74t88 -25q44 0 83.5 21.5z" />
    <glyph glyph-name="h" unicode="h" horiz-adv-x="569" 
d="M443 478q50 -53 50 -152v-326h-57v311q0 80 -35.5 123t-98.5 43q-42 0 -78.5 -19.5t-59 -58.5t-22.5 -94v-305h-56v761h56v-335q24 50 69.5 77.5t102.5 27.5q79 0 129 -53z" />
    <glyph glyph-name="i" unicode="i" horiz-adv-x="229" 
d="M85 647.5q-12 12.5 -12 29.5t12.5 30t28.5 13q18 0 30 -12.5t12 -30.5q0 -17 -12.5 -29.5t-29.5 -12.5t-29 12.5zM142 0h-56v520h56v-520z" />
    <glyph glyph-name="j" unicode="j" horiz-adv-x="229" 
d="M85 647.5q-12 12.5 -12 29.5t12 30t29 13t29.5 -13t12.5 -30t-12 -29.5t-30 -12.5q-17 0 -29 12.5zM-62 -234q-26 10 -42 29l34 41q25 -27 62 -27q94 0 94 140v571h57v-574q0 -97 -42.5 -143.5t-107.5 -46.5q-29 0 -55 10z" />
    <glyph glyph-name="k" unicode="k" horiz-adv-x="501" 
d="M275 301l223 -301h-72l-191 258l-93 -102v-156h-56v761h56v-531l264 290h70z" />
    <glyph glyph-name="l" unicode="l" horiz-adv-x="228" 
d="M142 0h-56v761h56v-761z" />
    <glyph glyph-name="m" unicode="m" horiz-adv-x="842" 
d="M720.5 479q44.5 -52 44.5 -150v-329h-55v311q0 81 -31.5 123.5t-86.5 42.5q-37 0 -68.5 -19.5t-50.5 -58.5t-19 -94v-305h-56v311q0 81 -31.5 123.5t-85.5 42.5q-37 0 -69 -19.5t-51 -58.5t-19 -94v-305h-56v520h49q3 -80 4 -96q22 51 63 79t92 28q54 0 94 -31t55 -91
q21 59 64.5 90.5t97.5 31.5q71 0 115.5 -52z" />
    <glyph glyph-name="n" unicode="n" horiz-adv-x="569" 
d="M443.5 478q49.5 -53 49.5 -152v-326h-57v311q0 80 -35.5 123t-98.5 43q-42 0 -78.5 -19.5t-59 -58.5t-22.5 -94v-305h-56v520h49q3 -82 4 -100q23 53 69.5 82t105.5 29q80 0 129.5 -53z" />
    <glyph glyph-name="o" unicode="o" horiz-adv-x="588" 
d="M87.5 400q32.5 62 87.5 96.5t119 34.5t118.5 -34t87.5 -96t33 -141q0 -78 -33 -139.5t-87.5 -96t-118.5 -34.5t-119 34t-87.5 96t-32.5 140t32.5 140zM138 146q24 -49 65.5 -75.5t90.5 -26.5q50 0 90.5 26.5t64.5 75.5t24 114t-24 114.5t-64.5 76t-90.5 26.5
q-49 0 -90.5 -26.5t-65.5 -76t-24 -114.5t24 -114z" />
    <glyph glyph-name="p" unicode="p" horiz-adv-x="601" 
d="M434 499q51 -32 81.5 -93.5t30.5 -145.5q0 -83 -30.5 -144.5t-81.5 -93.5t-111 -32q-58 0 -107 31t-74 89v-342h-56v752h49q2 -90 4 -115q24 62 74 94t110 32t111 -32zM404 69q39 25 61 74t22 117q0 69 -22 118t-61 74t-88 25q-44 0 -83.5 -21.5t-65 -70.5t-25.5 -125
t25.5 -124.5t65 -70t83.5 -21.5q49 0 88 25z" />
    <glyph glyph-name="q" unicode="q" horiz-adv-x="601" 
d="M516 520v-752h-57v342q-25 -59 -73.5 -89.5t-106.5 -30.5q-60 0 -111.5 32t-82 93.5t-30.5 144.5t30.5 144.5t82 94t111.5 32.5q59 0 108.5 -32t74.5 -93q2 29 4 114h50zM368.5 65.5q39.5 21.5 65 70t25.5 124.5t-25.5 125t-65 70.5t-83.5 21.5q-49 0 -88 -25t-61 -74
t-22 -118q0 -68 22.5 -117t61 -74t87.5 -25q44 0 83.5 21.5z" />
    <glyph glyph-name="r" unicode="r" horiz-adv-x="354" 
d="M348 512l-22 -46q-17 11 -46 11q-59 0 -98.5 -49.5t-39.5 -140.5v-287h-56v520h49q3 -79 4 -97q20 52 57 80t85 28q43 0 67 -19z" />
    <glyph glyph-name="s" unicode="s" horiz-adv-x="447" 
d="M360 31.5q-50 -41.5 -129 -41.5q-70 0 -123 32.5t-70 91.5l44 25q17 -48 56.5 -72.5t92.5 -24.5q54 0 87 25.5t33 68.5q0 33 -18.5 54t-46 32.5t-73.5 25.5q-52 16 -83 30.5t-52.5 41t-21.5 68.5q0 65 50 104t124 39q63 0 109 -28.5t63 -77.5l-44 -26q-14 37 -49 58.5
t-81 21.5q-49 0 -80.5 -23t-31.5 -63q0 -28 17 -46.5t42.5 -29t68.5 -23.5q53 -16 86 -31.5t56.5 -45t23.5 -76.5q0 -68 -50 -109.5z" />
    <glyph glyph-name="t" unicode="t" horiz-adv-x="346" 
d="M332 16q-38 -26 -92 -26q-62 0 -99 35.5t-37 123.5v323h-86v49h86v144h57v-144h147v-49h-147v-316q0 -61 22 -86.5t62 -25.5q35 0 68 18z" />
    <glyph glyph-name="u" unicode="u" horiz-adv-x="570" 
d="M428 521h56v-521h-49q0 13 -1 20q0 49 -3 80q-23 -53 -70 -81.5t-105 -28.5q-79 0 -128.5 53t-49.5 151v327h56v-312q0 -80 36 -122.5t98 -42.5q42 0 78.5 19.5t59 59t22.5 94.5v304z" />
    <glyph glyph-name="v" unicode="v" horiz-adv-x="494" 
d="M76 520l180 -443l168 443h59l-208 -520h-46l-218 520h65z" />
    <glyph glyph-name="w" unicode="w" horiz-adv-x="760" 
d="M405 520l150 -431l140 431h54l-178 -520h-38l-152 425l-143 -425h-39l-188 520h60l150 -431l139 431h45z" />
    <glyph glyph-name="x" unicode="x" horiz-adv-x="476" 
d="M241 306l154 214h66l-189 -258l189 -262h-70l-154 215l-155 -215h-67l191 259l-191 261h72z" />
    <glyph glyph-name="y" unicode="y" horiz-adv-x="495" 
d="M425 520h60l-251 -628q-28 -72 -60 -104t-89 -32q-52 0 -82 25l23 47q10 -8 26.5 -13.5t32.5 -5.5q34 0 57 23t46 81l33 80l-213 527h66l177 -454z" />
    <glyph glyph-name="z" unicode="z" horiz-adv-x="464" 
d="M416 520v-30l-300 -441h311v-49h-390v32l301 440h-281v48h359z" />
    <glyph glyph-name="braceleft" unicode="{" horiz-adv-x="338" 
d="M205 503q0 -72 -22.5 -107t-65.5 -44q43 -9 65.5 -44t22.5 -107v-145q0 -63 20 -89t65 -26h27v-52h-23q-75 0 -111.5 36.5t-36.5 123.5v147q0 50 -10.5 77t-33.5 37.5t-64 10.5v62q42 0 65 11t33 37.5t10 76.5v147q0 87 36.5 123.5t111.5 36.5h23v-52h-27q-45 0 -65 -26
t-20 -89v-145z" />
    <glyph glyph-name="bar" unicode="|" horiz-adv-x="156" 
d="M51 -111v926h54v-926h-54z" />
    <glyph glyph-name="braceright" unicode="}" horiz-adv-x="338" 
d="M134 648q0 63 -20 89t-65 26h-28v52h24q75 0 111 -36t36 -124v-147q0 -50 10 -76.5t33.5 -37.5t65.5 -11v-62q-42 0 -65 -10.5t-33.5 -37.5t-10.5 -77v-147q0 -88 -36 -124t-111 -36h-24v52h28q45 0 65 26t20 89v145q0 72 22.5 107t64.5 44q-42 9 -64.5 44t-22.5 107v145
z" />
    <glyph glyph-name="asciitilde" unicode="~" 
d="M69 296q3 62 35 103t85 41q32 0 53.5 -14t46.5 -41q20 -22 36.5 -33.5t37.5 -11.5q57 0 71 93h50q-4 -63 -35 -104t-85 -41q-32 0 -53.5 14t-47.5 41q-20 22 -35.5 33.5t-37.5 11.5q-58 0 -71 -92h-50z" />
    <glyph glyph-name="uni00A0" unicode="&#xa0;" horiz-adv-x="270" 
 />
    <glyph glyph-name="exclamdown" unicode="&#xa1;" horiz-adv-x="227" 
d="M142.5 524.5q12.5 -12.5 12.5 -29.5q0 -18 -12 -30.5t-29 -12.5q-18 0 -30 12.5t-12 30.5q0 17 12 29.5t29 12.5t29.5 -12.5zM135 332l8 -564h-59l8 564h43z" />
    <glyph glyph-name="cent" unicode="&#xa2;" 
d="M337 159q45 2 80 21.5t51 55.5l45 -26q-21 -50 -68.5 -76.5t-107.5 -28.5v-105h-54v108q-60 9 -109.5 42.5t-78 89t-28.5 126.5t28.5 126.5t78 89t109.5 42.5v109h54v-107q59 -2 106.5 -28.5t69.5 -76.5l-45 -26q-16 37 -51.5 56.5t-79.5 21.5v-414zM171 228.5
q44 -53.5 112 -65.5v406q-68 -12 -112 -65.5t-44 -137.5t44 -137.5z" />
    <glyph glyph-name="sterling" unicode="&#xa3;" 
d="M538 52v-52h-480v43q71 41 102 81.5t31 98.5q0 44 -23 107h-110v49h89q-17 38 -26 71.5t-9 71.5q0 63 28 113.5t78 79t114 28.5q80 0 132 -43t67 -106l-48 -27q-17 57 -54.5 89t-98.5 32q-72 0 -114 -44.5t-42 -118.5q0 -36 9.5 -68t27.5 -78h204v-49h-184
q23 -58 23 -106q0 -55 -26 -98t-71 -74h381z" />
    <glyph glyph-name="currency" unicode="&#xa4;" horiz-adv-x="561" 
d="M443 241l81 -81l-38 -36l-81 80q-53 -42 -124 -42q-68 0 -125 42l-81 -81l-37 37l81 81q-43 54 -43 125q0 72 43 126l-80 79l36 38l81 -81q57 42 125 42q69 0 126 -42l80 81l37 -38l-81 -80q43 -54 43 -125t-43 -125zM357 234q34 20 54 55t20 77q0 41 -20 76t-54 55.5
t-76 20.5q-41 0 -76 -20.5t-55 -55.5t-20 -76q0 -42 20 -77t55 -55t76 -20q42 0 76 20z" />
    <glyph glyph-name="yen" unicode="&#xa5;" 
d="M287 405l199 327h66l-222 -358h165v-49h-182v-88h182v-49h-182v-188h-59v188h-175v49h175v88h-175v49h158l-235 358h72z" />
    <glyph glyph-name="brokenbar" unicode="&#xa6;" horiz-adv-x="156" 
d="M51 448v367h54v-367h-54zM51 -111v367h54v-367h-54z" />
    <glyph glyph-name="section" unicode="&#xa7;" horiz-adv-x="567" 
d="M495 130q-37 -43 -102 -59q40 -24 62 -58.5t22 -83.5q0 -85 -62.5 -129t-153.5 -44q-57 0 -102.5 19.5t-73.5 52.5t-35 73l47 30q12 -54 55 -87t110 -33t110 28.5t43 85.5q0 42 -23.5 69.5t-58.5 44t-94 36.5q-67 23 -107.5 42.5t-68.5 55.5t-28 91q0 62 37 105t102 59
q-40 24 -62 57.5t-22 83.5q0 85 62.5 129.5t153.5 44.5q57 0 102.5 -20t73.5 -53t35 -73l-47 -29q-12 54 -55 87t-110 33q-66 0 -109 -28.5t-43 -85.5q0 -42 23.5 -69.5t58.5 -44t94 -36.5q67 -24 107 -43.5t68 -55t28 -90.5q0 -62 -37 -105zM427 139q41 33 41 90
q0 41 -23 68t-57.5 43.5t-93.5 36.5l-41 15h-4q-68 0 -109 -32.5t-41 -89.5q0 -42 23.5 -69t57.5 -43t94 -37l42 -15h2q68 0 109 33z" />
    <glyph glyph-name="dieresis" unicode="&#xa8;" horiz-adv-x="141" 
d="M-57 643q-12 12 -12 30t12 30.5t29 12.5t29.5 -12.5t12.5 -30.5t-12 -30t-30 -12q-17 0 -29 12zM139.5 643q-12.5 12 -12.5 30t12 30.5t29 12.5q18 0 30 -12.5t12 -30.5t-12 -30t-29 -12t-29.5 12z" />
    <glyph glyph-name="copyright" unicode="&#xa9;" horiz-adv-x="865" 
d="M623 693.5q86 -49.5 135.5 -135.5t49.5 -192t-49.5 -191.5t-135.5 -135t-192 -49.5q-105 0 -191 49.5t-135 135.5t-49 191q0 106 49 192t135 135.5t191 49.5q106 0 192 -49.5zM598.5 81q75.5 43 118.5 118t43 167t-43 167.5t-118.5 118.5t-167.5 43t-167 -43t-118 -118.5
t-43 -167.5t43 -167t118 -118t167 -43t167.5 43zM340.5 486.5q-40.5 -44.5 -40.5 -120.5q0 -75 40.5 -119.5t101.5 -44.5q32 0 59 14.5t42 44.5l41 -25q-19 -42 -57 -63t-85 -21q-53 0 -98 27t-71.5 75.5t-26.5 111.5t26.5 112t71.5 76t98 27q47 0 85 -21t57 -63l-41 -25
q-15 30 -42 44.5t-59 14.5q-61 0 -101.5 -44.5z" />
    <glyph glyph-name="ordfeminine" unicode="&#xaa;" horiz-adv-x="383" 
d="M288 701q38 -38 38 -107v-230h-42q0 36 -1 52q-15 -27 -44.5 -42.5t-67.5 -15.5q-54 0 -92 29.5t-38 81.5q0 54 43.5 84.5t111.5 30.5q37 0 83 -11v14q0 111 -90 111q-63 0 -94 -59l-35 20q16 37 51.5 58.5t79.5 21.5q59 0 97 -38zM248.5 422.5q30.5 25.5 30.5 72.5v41
q-49 11 -82 11q-50 0 -77.5 -20t-27.5 -58q0 -36 23 -54t59 -18q44 0 74.5 25.5z" />
    <glyph glyph-name="guillemotleft" unicode="&#xab;" horiz-adv-x="513" 
d="M221 46l-188 216l188 215h67l-188 -215l188 -216h-67zM413 46l-188 216l188 215h68l-188 -215l188 -216h-68z" />
    <glyph glyph-name="logicalnot" unicode="&#xac;" 
d="M447 174v196h-391v50h441v-246h-50z" />
    <glyph glyph-name="uni00AD" unicode="&#xad;" horiz-adv-x="494" 
d="M68 338v49h358v-49h-358z" />
    <glyph glyph-name="registered" unicode="&#xae;" horiz-adv-x="460" 
d="M64.5 646.5q25.5 44.5 69 70.5t95.5 26q53 0 97 -26t70 -70.5t26 -96.5t-25.5 -96t-70 -69.5t-97.5 -25.5q-52 0 -95.5 25.5t-69 69.5t-25.5 96t25.5 96.5zM94 470.5q21 -36.5 57 -57.5t78 -21q44 0 80 21t57 57.5t21 79.5q0 44 -21 80.5t-57 57.5t-80 21q-42 0 -78 -21
t-57 -57.5t-21 -80.5q0 -43 21 -79.5zM164 444v216h78q34 0 52.5 -17.5t18.5 -46.5q0 -23 -12 -39.5t-33 -21.5l60 -91h-38l-57 88h-36v-88h-33zM236 560q21 0 32.5 10t11.5 26q0 17 -11.5 26.5t-32.5 9.5h-39v-72h39z" />
    <glyph glyph-name="macron" unicode="&#xaf;" horiz-adv-x="377" 
d="M42 647v51h293v-51h-293z" />
    <glyph glyph-name="degree" unicode="&#xb0;" horiz-adv-x="276" 
d="M47.5 786.5q37.5 37.5 90.5 37.5q54 0 91 -37.5t37 -94.5q0 -56 -36.5 -93t-91.5 -37q-53 0 -90.5 37t-37.5 93q0 57 37.5 94.5zM79.5 629.5q23.5 -24.5 58.5 -24.5q36 0 59.5 24t23.5 63q0 40 -23.5 64.5t-59.5 24.5q-35 0 -58.5 -24.5t-23.5 -64.5q0 -38 23.5 -62.5z
" />
    <glyph glyph-name="plusminus" unicode="&#xb1;" 
d="M251 446v163h51v-163h195v-51h-195v-165h-51v165h-195v51h195zM56 171h441v-51h-441v51z" />
    <glyph glyph-name="uni00B2" unicode="&#xb2;" horiz-adv-x="297" 
d="M88 534h184v-40h-248v30l137 153q25 29 36 49t11 41q0 26 -16 43t-45 17q-28 0 -50.5 -16t-33.5 -49l-34 21q13 41 46 63.5t74 22.5q50 0 78 -29.5t28 -69.5q0 -28 -13.5 -54.5t-42.5 -58.5z" />
    <glyph glyph-name="uni00B3" unicode="&#xb3;" horiz-adv-x="299" 
d="M251.5 655q19.5 -23 19.5 -58q0 -48 -36 -79.5t-90 -31.5q-44 0 -77.5 21.5t-46.5 60.5l35 21q11 -30 34.5 -46.5t54.5 -16.5q35 0 57 20.5t22 50.5q0 34 -26 52.5t-66 18.5h-26v35h28q33 0 55 19.5t22 46.5q0 25 -18.5 42.5t-49.5 17.5q-26 0 -49.5 -15t-34.5 -43
l-33 19q13 38 45.5 59t74.5 21q48 0 80.5 -28t32.5 -71q0 -29 -16.5 -51t-43.5 -33q33 -9 52.5 -32z" />
    <glyph glyph-name="acute" unicode="&#xb4;" horiz-adv-x="262" 
d="M59 596l81 148h63l-93 -148h-51z" />
    <glyph glyph-name="uni00B5" unicode="&#xb5;" horiz-adv-x="579" 
d="M573 1q-19 -11 -47 -11q-45 0 -65.5 26t-21.5 80q-24 -51 -68 -78.5t-99 -27.5q-43 0 -76.5 17.5t-53.5 51.5v-291h-56v753h56v-312q0 -80 36 -122.5t97 -42.5q42 0 79 19.5t59.5 59t22.5 94.5v303h56v-410q0 -36 11 -51t35 -15q15 0 26 5z" />
    <glyph glyph-name="paragraph" unicode="&#xb6;" horiz-adv-x="543" 
d="M259 733h52v-733h-52v447q-189 0 -189 142q0 144 189 144zM450 0h-53v733h53v-733z" />
    <glyph glyph-name="periodcentered" unicode="&#xb7;" horiz-adv-x="500" 
d="M225.5 334q-12.5 13 -12.5 30q0 18 12 30t29 12q18 0 30 -12t12 -30q0 -17 -12 -30t-29 -13t-29.5 13z" />
    <glyph glyph-name="cedilla" unicode="&#xb8;" horiz-adv-x="293" 
d="M109 16h51l-35 -89q51 3 83 -17.5t32 -62.5q0 -44 -34 -67.5t-86 -23.5q-30 0 -67 10v43q33 -10 63 -10q34 0 54 11t20 35q0 21 -19.5 32.5t-52.5 11.5q-23 0 -43 -4l-5 28z" />
    <glyph glyph-name="uni00B9" unicode="&#xb9;" horiz-adv-x="223" 
d="M27 767v42l97 53h35v-368h-45v321z" />
    <glyph glyph-name="ordmasculine" unicode="&#xba;" horiz-adv-x="409" 
d="M59 648.5q23 43.5 62 67t84 23.5t83.5 -23.5t61.5 -67t23 -100.5t-23 -100t-61.5 -66.5t-83.5 -23.5t-84 23.5t-62 66.5t-23 100t23 100.5zM121 439.5q34 -40.5 84 -40.5q51 0 84.5 41t33.5 108t-34 108.5t-84 41.5t-84 -41t-34 -109t34 -108.5z" />
    <glyph glyph-name="guillemotright" unicode="&#xbb;" horiz-adv-x="513" 
d="M100 477l188 -215l-188 -216h-67l188 216l-188 215h67zM293 477l188 -215l-188 -216h-68l188 216l-188 215h68z" />
    <glyph glyph-name="onequarter" unicode="&#xbc;" horiz-adv-x="655" 
d="M590 733l-492 -733h-48l492 733h48zM27 637v42l97 53h35v-368h-45v321zM582 225v-98h57v-40h-57v-84h-43v84h-174v30l149 254h47l-144 -244h122v98h43z" />
    <glyph glyph-name="onehalf" unicode="&#xbd;" horiz-adv-x="688" 
d="M590 733l-492 -733h-48l492 733h48zM27 637v42l97 53h35v-368h-45v321zM478 43h185v-40h-249v30l137 153q25 29 36 49t11 41q0 26 -16 43t-45 17q-27 0 -49.5 -16t-34.5 -49l-34 21q13 41 46.5 63.5t74.5 22.5q50 0 78 -29.5t28 -69.5q0 -28 -13.5 -54.5t-43.5 -58.5z
" />
    <glyph glyph-name="threequarters" unicode="&#xbe;" horiz-adv-x="711" 
d="M251.5 525q19.5 -23 19.5 -58q0 -48 -36 -79.5t-90 -31.5q-44 0 -77.5 21.5t-46.5 60.5l35 21q11 -30 34.5 -46.5t54.5 -16.5q35 0 57 20.5t22 50.5q0 34 -26 52.5t-66 18.5h-26v35h28q33 0 55 19.5t22 46.5q0 25 -18.5 42.5t-49.5 17.5q-26 0 -49.5 -15t-34.5 -43
l-33 19q13 38 45.5 59t74.5 21q48 0 80.5 -28t32.5 -71q0 -29 -16.5 -51t-43.5 -33q33 -9 52.5 -32zM646 733l-492 -733h-48l492 733h48zM638 225v-98h57v-40h-57v-84h-43v84h-174v30l149 254h47l-144 -244h122v98h43z" />
    <glyph glyph-name="questiondown" unicode="&#xbf;" horiz-adv-x="417" 
d="M246 521.5q12 -12.5 12 -29.5t-12 -29.5t-29 -12.5t-29.5 12.5t-12.5 29.5t12 29.5t30 12.5q17 0 29 -12.5zM412 -107q-25 -65 -79.5 -101t-126.5 -36q-56 0 -98 22t-64.5 60t-22.5 85q0 51 23.5 87t69.5 81q32 31 51 53.5t32 53t13 67.5q0 29 -9 65h47q13 -43 13 -81
q0 -39 -13 -70t-31.5 -53.5t-49.5 -53.5q-42 -41 -62.5 -72t-20.5 -73q0 -52 34 -84.5t94 -32.5q106 0 154 110z" />
    <glyph glyph-name="Agrave" unicode="&#xc0;" horiz-adv-x="649" 
d="M199 928h63l83 -120h-51zM345 732l291 -732h-67l-89 230h-320l-86 -230h-61l282 732h50zM460 284l-142 367l-138 -367h280z" />
    <glyph glyph-name="Aacute" unicode="&#xc1;" horiz-adv-x="649" 
d="M306 808l83 120h63l-96 -120h-50zM345 732l291 -732h-67l-89 230h-320l-86 -230h-61l282 732h50zM460 284l-142 367l-138 -367h280z" />
    <glyph glyph-name="Acircumflex" unicode="&#xc2;" horiz-adv-x="649" 
d="M298 928h53l117 -120h-61l-82 88l-83 -88h-60zM345 732l291 -732h-67l-89 230h-320l-86 -230h-61l282 732h50zM460 284l-142 367l-138 -367h280z" />
    <glyph glyph-name="Atilde" unicode="&#xc3;" horiz-adv-x="649" 
d="M173 825q2 43 26.5 70.5t63.5 27.5q25 0 41 -9.5t35 -28.5q14 -14 23.5 -20.5t22.5 -6.5q37 0 45 56h47q-2 -43 -26 -70.5t-64 -27.5q-25 0 -41.5 10t-33.5 28q-14 14 -24 20.5t-23 6.5q-37 0 -44 -56h-48zM345 732l291 -732h-67l-89 230h-320l-86 -230h-61l282 732h50z
M460 284l-142 367l-138 -367h280z" />
    <glyph glyph-name="Adieresis" unicode="&#xc4;" horiz-adv-x="649" 
d="M197.5 844.5q-12.5 12.5 -12.5 30.5q0 17 12 29.5t29 12.5q18 0 30.5 -12.5t12.5 -29.5q0 -18 -12.5 -30.5t-29.5 -12.5t-29.5 12.5zM394 844.5q-12 12.5 -12 30.5q0 17 12 29.5t29 12.5t29.5 -12.5t12.5 -29.5q0 -18 -12 -30.5t-30 -12.5q-17 0 -29 12.5zM345 732
l291 -732h-67l-89 230h-320l-86 -230h-61l282 732h50zM460 284l-142 367l-138 -367h280z" />
    <glyph glyph-name="Aring" unicode="&#xc5;" horiz-adv-x="649" 
d="M258.5 910.5q27.5 17.5 66.5 17.5q38 0 64.5 -17.5t26.5 -43.5q0 -27 -26 -44.5t-65 -17.5t-66.5 17.5t-27.5 44.5q0 26 27.5 43.5zM286 839.5q15 -10.5 39 -10.5q23 0 37.5 10.5t14.5 27.5t-14.5 27t-37.5 10q-24 0 -39 -10.5t-15 -26.5q0 -17 15 -27.5zM345 732
l291 -732h-67l-89 230h-320l-86 -230h-61l282 732h50zM460 284l-142 367l-138 -367h280z" />
    <glyph glyph-name="AE" unicode="&#xc6;" horiz-adv-x="982" 
d="M883 353h-327v-300h374v-53h-433v236h-274l-153 -236h-65l477 733h437v-53h-363v-274h327v-53zM497 289v370l-240 -370h240z" />
    <glyph glyph-name="Ccedilla" unicode="&#xc7;" horiz-adv-x="640" 
d="M491.5 77.5q46.5 32.5 71.5 87.5l48 -28q-26 -65 -84 -104.5t-137 -41.5l-25 -63q50 2 82.5 -19t32.5 -62q0 -43 -36 -67t-87 -24q-29 0 -64 10v42q29 -10 63 -10q33 0 53.5 11.5t20.5 35.5q0 22 -21 33t-59 11q-9 0 -35 -2l-5 27l31 79q-82 9 -146.5 58.5t-101.5 131.5
t-37 184q0 110 42 195.5t115.5 133t164.5 47.5q83 0 144.5 -40t88.5 -107l-48 -28q-25 55 -71.5 87.5t-114.5 32.5q-76 0 -134.5 -40.5t-91 -113.5t-32.5 -167t32.5 -167t91 -114t134.5 -41q68 0 114.5 32.5z" />
    <glyph glyph-name="Egrave" unicode="&#xc8;" horiz-adv-x="579" 
d="M177 928h63l83 -120h-50zM479 353h-326v-300h373v-53h-433v733h422v-53h-362v-274h326v-53z" />
    <glyph glyph-name="Eacute" unicode="&#xc9;" horiz-adv-x="579" 
d="M284 808l83 120h63l-96 -120h-50zM479 353h-326v-300h373v-53h-433v733h422v-53h-362v-274h326v-53z" />
    <glyph glyph-name="Ecircumflex" unicode="&#xca;" horiz-adv-x="579" 
d="M276 928h54l116 -120h-61l-81 87l-83 -87h-61zM479 353h-326v-300h373v-53h-433v733h422v-53h-362v-274h326v-53z" />
    <glyph glyph-name="Edieresis" unicode="&#xcb;" horiz-adv-x="579" 
d="M176 853q-12 11 -12 27q0 15 12 26t29 11t29.5 -11t12.5 -26q0 -16 -12 -27t-30 -11q-17 0 -29 11zM372.5 853q-12.5 11 -12.5 27q0 15 12 26t29 11q18 0 30 -11t12 -26q0 -16 -12 -27t-29 -11t-29.5 11zM479 353h-326v-300h373v-53h-433v733h422v-53h-362v-274h326v-53z
" />
    <glyph glyph-name="Igrave" unicode="&#xcc;" horiz-adv-x="246" 
d="M-3 928h63l83 -120h-50zM153 0h-60v732h60v-732z" />
    <glyph glyph-name="Iacute" unicode="&#xcd;" horiz-adv-x="246" 
d="M104 808l83 120h63l-96 -120h-50zM153 0h-60v732h60v-732z" />
    <glyph glyph-name="Icircumflex" unicode="&#xce;" horiz-adv-x="246" 
d="M96 928h54l116 -120h-61l-81 87l-83 -87h-61zM153 0h-60v732h60v-732z" />
    <glyph glyph-name="Idieresis" unicode="&#xcf;" horiz-adv-x="246" 
d="M-4 853q-12 11 -12 27q0 15 12 26t29 11t29.5 -11t12.5 -26q0 -16 -12 -27t-30 -11q-17 0 -29 11zM192.5 853q-12.5 11 -12.5 27q0 15 12 26t29 11q18 0 30 -11t12 -26q0 -16 -12 -27t-29 -11t-29.5 11zM153 0h-60v732h60v-732z" />
    <glyph glyph-name="Eth" unicode="&#xd0;" horiz-adv-x="719" 
d="M293 732q107 0 190.5 -43t131 -125.5t47.5 -196.5q0 -115 -47 -198t-130.5 -126t-191.5 -43h-187v350h-85v53h85v329h187zM286 53q95 0 166 37t109.5 107.5t38.5 169.5q0 98 -39 168.5t-109.5 107.5t-165.5 37h-121v-277h149v-53h-149v-297h121z" />
    <glyph glyph-name="Ntilde" unicode="&#xd1;" horiz-adv-x="725" 
d="M211 825q2 43 26 70.5t63 27.5q25 0 41.5 -10t34.5 -28q14 -14 23.5 -20.5t22.5 -6.5q37 0 45 56h47q-2 -43 -26 -70.5t-64 -27.5q-25 0 -41.5 10t-33.5 28q-14 14 -24 20.5t-23 6.5q-37 0 -44 -56h-47zM144 732l431 -625v625h56v-732h-50l-432 626v-626h-56v732h51z" />
    <glyph glyph-name="Ograve" unicode="&#xd2;" horiz-adv-x="753" 
d="M250 928h63l83 -120h-50zM97.5 564.5q41.5 85.5 114.5 132t164 46.5q92 0 165 -46.5t114.5 -132t41.5 -197.5q0 -113 -41.5 -198.5t-114.5 -132t-165 -46.5q-91 0 -164 46.5t-114.5 132t-41.5 198.5q0 112 41.5 197.5zM151 199q32 -73 90 -113.5t135 -40.5t136 40.5
t91 113.5t32 168t-32.5 168t-91 113.5t-135.5 40.5q-76 0 -134.5 -40.5t-90.5 -113.5t-32 -168t32 -168z" />
    <glyph glyph-name="Oacute" unicode="&#xd3;" horiz-adv-x="753" 
d="M357 808l83 120h63l-96 -120h-50zM97.5 564.5q41.5 85.5 114.5 132t164 46.5q92 0 165 -46.5t114.5 -132t41.5 -197.5q0 -113 -41.5 -198.5t-114.5 -132t-165 -46.5q-91 0 -164 46.5t-114.5 132t-41.5 198.5q0 112 41.5 197.5zM151 199q32 -73 90 -113.5t135 -40.5
t136 40.5t91 113.5t32 168t-32.5 168t-91 113.5t-135.5 40.5q-76 0 -134.5 -40.5t-90.5 -113.5t-32 -168t32 -168z" />
    <glyph glyph-name="Ocircumflex" unicode="&#xd4;" horiz-adv-x="753" 
d="M349 926h53l117 -118h-61l-82 85l-82 -85h-61zM97.5 564.5q41.5 85.5 114.5 132t164 46.5q92 0 165 -46.5t114.5 -132t41.5 -197.5q0 -113 -41.5 -198.5t-114.5 -132t-165 -46.5q-91 0 -164 46.5t-114.5 132t-41.5 198.5q0 112 41.5 197.5zM151 199q32 -73 90 -113.5
t135 -40.5t136 40.5t91 113.5t32 168t-32.5 168t-91 113.5t-135.5 40.5q-76 0 -134.5 -40.5t-90.5 -113.5t-32 -168t32 -168z" />
    <glyph glyph-name="Otilde" unicode="&#xd5;" horiz-adv-x="753" 
d="M225 825q2 43 26 70.5t63 27.5q25 0 41.5 -10t34.5 -29q14 -14 23.5 -20.5t22.5 -6.5q36 0 45 57h47q-2 -43 -26 -70.5t-64 -27.5q-25 0 -41.5 10t-33.5 28q-14 14 -24 20.5t-23 6.5q-37 0 -44 -56h-47zM97.5 564.5q41.5 85.5 114.5 132t164 46.5q92 0 165 -46.5
t114.5 -132t41.5 -197.5q0 -113 -41.5 -198.5t-114.5 -132t-165 -46.5q-91 0 -164 46.5t-114.5 132t-41.5 198.5q0 112 41.5 197.5zM151 199q32 -73 90 -113.5t135 -40.5t136 40.5t91 113.5t32 168t-32.5 168t-91 113.5t-135.5 40.5q-76 0 -134.5 -40.5t-90.5 -113.5
t-32 -168t32 -168z" />
    <glyph glyph-name="Odieresis" unicode="&#xd6;" horiz-adv-x="753" 
d="M248.5 853q-12.5 11 -12.5 27q0 15 12.5 26t29.5 11t29.5 -11t12.5 -26q0 -16 -12 -27t-30 -11q-17 0 -29.5 11zM445.5 853q-12.5 11 -12.5 27q0 15 12 26t29 11q18 0 30 -11t12 -26q0 -16 -12 -27t-29 -11t-29.5 11zM97.5 564.5q41.5 85.5 114.5 132t164 46.5
q92 0 165 -46.5t114.5 -132t41.5 -197.5q0 -113 -41.5 -198.5t-114.5 -132t-165 -46.5q-91 0 -164 46.5t-114.5 132t-41.5 198.5q0 112 41.5 197.5zM151 199q32 -73 90 -113.5t135 -40.5t136 40.5t91 113.5t32 168t-32.5 168t-91 113.5t-135.5 40.5q-76 0 -134.5 -40.5
t-90.5 -113.5t-32 -168t32 -168z" />
    <glyph glyph-name="multiply" unicode="&#xd7;" 
d="M124 550l153 -152l152 152l36 -36l-152 -152l152 -152l-36 -36l-152 152l-153 -152l-36 36l152 152l-152 152z" />
    <glyph glyph-name="Oslash" unicode="&#xd8;" horiz-adv-x="756" 
d="M636 766h64l-93 -127q44 -51 68 -120.5t24 -151.5q0 -110 -41.5 -196t-114.5 -133.5t-164 -47.5q-110 0 -192 69l-67 -92h-63l92 128q-44 51 -67.5 120t-23.5 152q0 110 41.5 195.5t115 133t164.5 47.5q108 0 191 -69zM137.5 243.5q16.5 -56.5 46.5 -99.5l353 485
q-66 60 -158 60q-76 0 -135 -40.5t-91 -114t-32 -167.5q0 -67 16.5 -123.5zM619.5 490.5q-16.5 56.5 -47.5 98.5l-352 -484q66 -60 159 -60q76 0 134.5 41t90.5 114t32 167q0 67 -16.5 123.5z" />
    <glyph glyph-name="Ugrave" unicode="&#xd9;" horiz-adv-x="708" 
d="M228 928h63l82 -120h-50zM565 732h60v-446q0 -90 -32 -156.5t-93.5 -103t-145.5 -36.5t-145.5 36.5t-93.5 103t-32 156.5v446h59v-436q0 -119 55 -185t157 -66q101 0 156 66t55 185v436z" />
    <glyph glyph-name="Uacute" unicode="&#xda;" horiz-adv-x="708" 
d="M334 808l83 120h63l-95 -120h-51zM565 732h60v-446q0 -90 -32 -156.5t-93.5 -103t-145.5 -36.5t-145.5 36.5t-93.5 103t-32 156.5v446h59v-436q0 -119 55 -185t157 -66q101 0 156 66t55 185v436z" />
    <glyph glyph-name="Ucircumflex" unicode="&#xdb;" horiz-adv-x="708" 
d="M327 928h53l117 -120h-61l-82 87l-83 -87h-61zM565 732h60v-446q0 -90 -32 -156.5t-93.5 -103t-145.5 -36.5t-145.5 36.5t-93.5 103t-32 156.5v446h59v-436q0 -119 55 -185t157 -66q101 0 156 66t55 185v436z" />
    <glyph glyph-name="Udieresis" unicode="&#xdc;" horiz-adv-x="708" 
d="M226.5 853q-12.5 11 -12.5 27q0 15 12 26t29 11q18 0 30 -11t12 -26q0 -16 -12 -27t-29 -11t-29.5 11zM423 853q-12 11 -12 27q0 15 12 26t29 11t29.5 -11t12.5 -26q0 -16 -12 -27t-30 -11q-17 0 -29 11zM565 732h60v-446q0 -90 -32 -156.5t-93.5 -103t-145.5 -36.5
t-145.5 36.5t-93.5 103t-32 156.5v446h59v-436q0 -119 55 -185t157 -66q101 0 156 66t55 185v436z" />
    <glyph glyph-name="Yacute" unicode="&#xdd;" horiz-adv-x="596" 
d="M283 808l82 120h63l-95 -120h-50zM308 376l210 357h65l-248 -417v-316h-60v318l-262 415h71z" />
    <glyph glyph-name="Thorn" unicode="&#xde;" horiz-adv-x="573" 
d="M289 586q73 0 131 -27t90.5 -77t32.5 -114q0 -65 -32 -114.5t-90 -76.5t-132 -27h-136v-150h-60v732h60v-146h136zM281 202q92 0 145 45t53 121q0 75 -53 120t-145 45h-128v-331h128z" />
    <glyph glyph-name="germandbls" unicode="&#xdf;" horiz-adv-x="577" 
d="M494 335.5q41 -51.5 41 -128.5q0 -63 -26.5 -112.5t-75.5 -77t-116 -27.5q-44 0 -81 13v56q37 -16 76 -16q75 0 119 44.5t44 119.5q0 77 -47.5 122t-135.5 45h-39v48h17q82 0 123 42t41 109q0 62 -35 102.5t-100 40.5q-74 0 -115.5 -51.5t-41.5 -143.5v-521h-56v522
q0 77 27 133t75.5 85.5t110.5 29.5q59 0 103 -26t68 -71t24 -100q0 -61 -29 -105t-85 -65q73 -16 114 -67.5z" />
    <glyph glyph-name="agrave" unicode="&#xe0;" horiz-adv-x="540" 
d="M224 743l80 -148h-50l-94 148h64zM411 480.5q53 -50.5 53 -148.5v-332h-50q0 31 -2 81q-23 -43 -66.5 -67t-100.5 -24q-50 0 -92 18.5t-67.5 54t-25.5 85.5q0 76 62 119.5t161 43.5q58 0 124 -17v28q0 80 -35.5 118.5t-98.5 38.5q-50 0 -86 -22t-57 -63l-44 25
q22 51 73.5 81.5t116.5 30.5q82 0 135 -50.5zM407 246q-68 18 -124 18q-75 0 -119.5 -30t-44.5 -85q0 -52 37.5 -81t92.5 -29q66 0 112 39t46 107v61z" />
    <glyph glyph-name="aacute" unicode="&#xe1;" horiz-adv-x="540" 
d="M324 743h64l-94 -148h-51zM411 480.5q53 -50.5 53 -148.5v-332h-50q0 31 -2 81q-23 -43 -66.5 -67t-100.5 -24q-50 0 -92 18.5t-67.5 54t-25.5 85.5q0 76 62 119.5t161 43.5q58 0 124 -17v28q0 80 -35.5 118.5t-98.5 38.5q-50 0 -86 -22t-57 -63l-44 25q22 51 73.5 81.5
t116.5 30.5q82 0 135 -50.5zM407 246q-68 18 -124 18q-75 0 -119.5 -30t-44.5 -85q0 -52 37.5 -81t92.5 -29q66 0 112 39t46 107v61z" />
    <glyph glyph-name="acircumflex" unicode="&#xe2;" horiz-adv-x="540" 
d="M351 595l-78 105l-78 -105h-58l110 148h52l110 -148h-58zM411 480.5q53 -50.5 53 -148.5v-332h-50q0 31 -2 81q-23 -43 -66.5 -67t-100.5 -24q-50 0 -92 18.5t-67.5 54t-25.5 85.5q0 76 62 119.5t161 43.5q58 0 124 -17v28q0 80 -35.5 118.5t-98.5 38.5q-50 0 -86 -22
t-57 -63l-44 25q22 51 73.5 81.5t116.5 30.5q82 0 135 -50.5zM407 246q-68 18 -124 18q-75 0 -119.5 -30t-44.5 -85q0 -52 37.5 -81t92.5 -29q66 0 112 39t46 107v61z" />
    <glyph glyph-name="atilde" unicode="&#xe3;" horiz-adv-x="540" 
d="M170 617h-48q2 49 26 81t64 32q25 0 41.5 -11t33.5 -32q13 -16 23.5 -24t23.5 -8q19 0 30 17t14 46h48q-2 -49 -26.5 -81t-63.5 -32q-25 0 -41.5 11.5t-34.5 32.5q-14 17 -23.5 24.5t-22.5 7.5q-37 0 -44 -64zM411 480.5q53 -50.5 53 -148.5v-332h-50q0 31 -2 81
q-23 -43 -66.5 -67t-100.5 -24q-50 0 -92 18.5t-67.5 54t-25.5 85.5q0 76 62 119.5t161 43.5q58 0 124 -17v28q0 80 -35.5 118.5t-98.5 38.5q-50 0 -86 -22t-57 -63l-44 25q22 51 73.5 81.5t116.5 30.5q82 0 135 -50.5zM407 246q-68 18 -124 18q-75 0 -119.5 -30t-44.5 -85
q0 -52 37.5 -81t92.5 -29q66 0 112 39t46 107v61z" />
    <glyph glyph-name="adieresis" unicode="&#xe4;" horiz-adv-x="540" 
d="M146.5 642.5q-12.5 12.5 -12.5 30.5q0 17 12 29.5t29 12.5q18 0 30 -12.5t12 -29.5q0 -18 -12 -30.5t-29 -12.5t-29.5 12.5zM343 642.5q-12 12.5 -12 30.5q0 17 12 29.5t29 12.5t29.5 -12.5t12.5 -29.5q0 -18 -12 -30.5t-30 -12.5q-17 0 -29 12.5zM411 480.5
q53 -50.5 53 -148.5v-332h-50q0 31 -2 81q-23 -43 -66.5 -67t-100.5 -24q-50 0 -92 18.5t-67.5 54t-25.5 85.5q0 76 62 119.5t161 43.5q58 0 124 -17v28q0 80 -35.5 118.5t-98.5 38.5q-50 0 -86 -22t-57 -63l-44 25q22 51 73.5 81.5t116.5 30.5q82 0 135 -50.5zM407 246
q-68 18 -124 18q-75 0 -119.5 -30t-44.5 -85q0 -52 37.5 -81t92.5 -29q66 0 112 39t46 107v61z" />
    <glyph glyph-name="aring" unicode="&#xe5;" horiz-adv-x="540" 
d="M207 618.5q-27 26.5 -27 67.5q0 40 27 66.5t67 26.5q39 0 65 -26.5t26 -66.5q0 -41 -26 -67.5t-65 -26.5q-40 0 -67 26.5zM235 726.5q-15 -15.5 -15 -40.5t15 -41t39 -16q23 0 37.5 16t14.5 41t-14.5 40.5t-37.5 15.5q-24 0 -39 -15.5zM411 480.5q53 -50.5 53 -148.5
v-332h-50q0 31 -2 81q-23 -43 -66.5 -67t-100.5 -24q-50 0 -92 18.5t-67.5 54t-25.5 85.5q0 76 62 119.5t161 43.5q58 0 124 -17v28q0 80 -35.5 118.5t-98.5 38.5q-50 0 -86 -22t-57 -63l-44 25q22 51 73.5 81.5t116.5 30.5q82 0 135 -50.5zM407 246q-68 18 -124 18
q-75 0 -119.5 -30t-44.5 -85q0 -52 37.5 -81t92.5 -29q66 0 112 39t46 107v61z" />
    <glyph glyph-name="ae" unicode="&#xe6;" horiz-adv-x="892" 
d="M755.5 500.5q47.5 -30.5 73 -83t25.5 -116.5q0 -22 -3 -45h-381q3 -103 54 -158t131 -55q45 0 80.5 19t55.5 57l44 -25q-21 -50 -71.5 -77t-111.5 -27q-69 0 -124 36t-83 101q-15 -66 -67.5 -101.5t-126.5 -35.5q-81 0 -136 40.5t-55 116.5t59.5 120t160.5 44
q64 0 132 -17v22q0 80 -36 121.5t-104 41.5q-50 0 -85.5 -22t-56.5 -64l-44 25q22 52 72.5 82.5t116.5 30.5q65 0 111.5 -33t61.5 -96q27 62 79 95.5t117 33.5q64 0 111.5 -30.5zM793 303q1 78 -40 127t-111 49q-67 0 -114 -46t-56 -130h321zM412 246q-73 19 -133 19
q-77 0 -118.5 -31t-41.5 -86q0 -53 38 -81t96 -28q68 0 113.5 40t45.5 114v53z" />
    <glyph glyph-name="ccedilla" unicode="&#xe7;" horiz-adv-x="488" 
d="M425 122l45 -26q-23 -49 -65 -75.5t-94 -29.5l-25 -63q50 2 82 -19t32 -62q0 -44 -34 -67.5t-86 -23.5q-30 0 -67 10v43q33 -10 63 -10q34 0 54 11t20 35q0 22 -19.5 33t-53.5 11q-18 0 -41 -3l-5 28l30 79q-59 8 -106 43.5t-73.5 93.5t-26.5 131q0 80 31.5 141.5t86 95
t121.5 33.5q58 0 105 -26.5t71 -79.5l-45 -26q-41 78 -132 78q-52 0 -92.5 -26t-63.5 -75t-23 -115t23 -115t63.5 -75.5t92.5 -26.5q91 0 132 78z" />
    <glyph glyph-name="egrave" unicode="&#xe8;" horiz-adv-x="537" 
d="M173 743h63l81 -148h-51zM400.5 500q47.5 -31 73 -83.5t25.5 -116.5q0 -21 -3 -44h-382q4 -103 54.5 -158t131.5 -55q45 0 80.5 19t55.5 57l44 -25q-21 -50 -71.5 -77t-111.5 -27q-67 0 -122 32.5t-87.5 94.5t-32.5 147q0 82 31.5 142.5t85 92.5t117.5 32t111.5 -31z
M173 433q-47 -46 -56 -130h321q0 79 -40.5 127.5t-110.5 48.5q-67 0 -114 -46z" />
    <glyph glyph-name="eacute" unicode="&#xe9;" horiz-adv-x="537" 
d="M256 595l81 148h63l-93 -148h-51zM400.5 500q47.5 -31 73 -83.5t25.5 -116.5q0 -21 -3 -44h-382q4 -103 54.5 -158t131.5 -55q45 0 80.5 19t55.5 57l44 -25q-21 -50 -71.5 -77t-111.5 -27q-67 0 -122 32.5t-87.5 94.5t-32.5 147q0 82 31.5 142.5t85 92.5t117.5 32
t111.5 -31zM173 433q-47 -46 -56 -130h321q0 79 -40.5 127.5t-110.5 48.5q-67 0 -114 -46z" />
    <glyph glyph-name="ecircumflex" unicode="&#xea;" horiz-adv-x="537" 
d="M260 743h52l110 -148h-58l-78 105l-78 -105h-58zM400.5 500q47.5 -31 73 -83.5t25.5 -116.5q0 -21 -3 -44h-382q4 -103 54.5 -158t131.5 -55q45 0 80.5 19t55.5 57l44 -25q-21 -50 -71.5 -77t-111.5 -27q-67 0 -122 32.5t-87.5 94.5t-32.5 147q0 82 31.5 142.5t85 92.5
t117.5 32t111.5 -31zM173 433q-47 -46 -56 -130h321q0 79 -40.5 127.5t-110.5 48.5q-67 0 -114 -46z" />
    <glyph glyph-name="edieresis" unicode="&#xeb;" horiz-adv-x="537" 
d="M159 642.5q-12 12.5 -12 30.5q0 17 12 29.5t29 12.5t29.5 -12.5t12.5 -29.5q0 -18 -12 -30.5t-30 -12.5q-17 0 -29 12.5zM355.5 642.5q-12.5 12.5 -12.5 30.5q0 17 12 29.5t29 12.5q18 0 30.5 -12.5t12.5 -29.5q0 -18 -12.5 -30.5t-29.5 -12.5t-29.5 12.5zM400.5 500
q47.5 -31 73 -83.5t25.5 -116.5q0 -21 -3 -44h-382q4 -103 54.5 -158t131.5 -55q45 0 80.5 19t55.5 57l44 -25q-21 -50 -71.5 -77t-111.5 -27q-67 0 -122 32.5t-87.5 94.5t-32.5 147q0 82 31.5 142.5t85 92.5t117.5 32t111.5 -31zM173 433q-47 -46 -56 -130h321
q0 79 -40.5 127.5t-110.5 48.5q-67 0 -114 -46z" />
    <glyph glyph-name="igrave" unicode="&#xec;" horiz-adv-x="227" 
d="M0 744h64l80 -148h-50zM86 0v520h56v-520h-56z" />
    <glyph glyph-name="iacute" unicode="&#xed;" horiz-adv-x="227" 
d="M84 596l80 148h64l-94 -148h-50zM86 0v520h56v-520h-56z" />
    <glyph glyph-name="icircumflex" unicode="&#xee;" horiz-adv-x="227" 
d="M88 744h51l110 -148h-58l-78 105l-78 -105h-58zM86 0v520h56v-520h-56z" />
    <glyph glyph-name="idieresis" unicode="&#xef;" horiz-adv-x="227" 
d="M-13.5 643q-12.5 12 -12.5 30t12 30.5t29 12.5q18 0 30 -12.5t12 -30.5t-12 -30t-29 -12t-29.5 12zM183 643q-12 12 -12 30t12 30.5t29 12.5t29.5 -12.5t12.5 -30.5t-12 -30t-30 -12q-17 0 -29 12zM86 0v520h56v-520h-56z" />
    <glyph glyph-name="eth" unicode="&#xf0;" horiz-adv-x="588" 
d="M359 665q87 -79 130.5 -182.5t43.5 -201.5q0 -86 -31.5 -152t-86.5 -102.5t-121 -36.5q-67 0 -121.5 34.5t-86 96.5t-31.5 140t32.5 140t87 96.5t117.5 34.5q45 0 83 -19.5t63 -56.5q-40 106 -129 181l-137 -79l-23 44l115 67q-50 35 -108 58l29 44q67 -26 132 -72
l126 72l24 -44zM385.5 71q40.5 27 64 76t23.5 114q0 64 -23.5 113.5t-64 76.5t-91.5 27q-50 0 -91.5 -27t-65 -76.5t-23.5 -113.5q0 -65 23.5 -114t65 -76t91.5 -27q51 0 91.5 27z" />
    <glyph glyph-name="ntilde" unicode="&#xf1;" horiz-adv-x="569" 
d="M131 618q2 49 26.5 81t63.5 32q25 0 41.5 -11.5t34.5 -32.5q14 -17 23.5 -24.5t22.5 -7.5q19 0 30 17.5t14 46.5h48q-2 -50 -26 -81.5t-64 -31.5q-25 0 -41.5 11t-33.5 32q-13 16 -23.5 24t-23.5 8q-37 0 -44 -63h-48zM443.5 478q49.5 -53 49.5 -152v-326h-57v311
q0 80 -35.5 123t-98.5 43q-42 0 -78.5 -19.5t-59 -58.5t-22.5 -94v-305h-56v520h49q3 -82 4 -100q23 53 69.5 82t105.5 29q80 0 129.5 -53z" />
    <glyph glyph-name="ograve" unicode="&#xf2;" horiz-adv-x="588" 
d="M180 743h64l80 -148h-50zM87.5 400q32.5 62 87.5 96.5t119 34.5t118.5 -34t87.5 -96t33 -141q0 -78 -33 -139.5t-87.5 -96t-118.5 -34.5t-119 34t-87.5 96t-32.5 140t32.5 140zM138 146q24 -49 65.5 -75.5t90.5 -26.5q50 0 90.5 26.5t64.5 75.5t24 114t-24 114.5
t-64.5 76t-90.5 26.5q-49 0 -90.5 -26.5t-65.5 -76t-24 -114.5t24 -114z" />
    <glyph glyph-name="oacute" unicode="&#xf3;" horiz-adv-x="588" 
d="M263 595l81 148h64l-94 -148h-51zM87.5 400q32.5 62 87.5 96.5t119 34.5t118.5 -34t87.5 -96t33 -141q0 -78 -33 -139.5t-87.5 -96t-118.5 -34.5t-119 34t-87.5 96t-32.5 140t32.5 140zM138 146q24 -49 65.5 -75.5t90.5 -26.5q50 0 90.5 26.5t64.5 75.5t24 114t-24 114.5
t-64.5 76t-90.5 26.5q-49 0 -90.5 -26.5t-65.5 -76t-24 -114.5t24 -114z" />
    <glyph glyph-name="ocircumflex" unicode="&#xf4;" horiz-adv-x="588" 
d="M267 743h52l110 -148h-58l-78 105l-78 -105h-58zM87.5 400q32.5 62 87.5 96.5t119 34.5t118.5 -34t87.5 -96t33 -141q0 -78 -33 -139.5t-87.5 -96t-118.5 -34.5t-119 34t-87.5 96t-32.5 140t32.5 140zM138 146q24 -49 65.5 -75.5t90.5 -26.5q50 0 90.5 26.5t64.5 75.5
t24 114t-24 114.5t-64.5 76t-90.5 26.5q-49 0 -90.5 -26.5t-65.5 -76t-24 -114.5t24 -114z" />
    <glyph glyph-name="otilde" unicode="&#xf5;" horiz-adv-x="588" 
d="M142 617q2 49 26 81t64 32q25 0 41.5 -11t33.5 -32q13 -16 23.5 -24t23.5 -8q19 0 30 17t14 46h48q-2 -49 -26.5 -81t-63.5 -32q-25 0 -41.5 11.5t-34.5 32.5q-14 17 -23.5 24.5t-22.5 7.5q-37 0 -44 -64h-48zM87.5 400q32.5 62 87.5 96.5t119 34.5t118.5 -34t87.5 -96
t33 -141q0 -78 -33 -139.5t-87.5 -96t-118.5 -34.5t-119 34t-87.5 96t-32.5 140t32.5 140zM138 146q24 -49 65.5 -75.5t90.5 -26.5q50 0 90.5 26.5t64.5 75.5t24 114t-24 114.5t-64.5 76t-90.5 26.5q-49 0 -90.5 -26.5t-65.5 -76t-24 -114.5t24 -114z" />
    <glyph glyph-name="odieresis" unicode="&#xf6;" horiz-adv-x="588" 
d="M166.5 642.5q-12.5 12.5 -12.5 30.5q0 17 12 29.5t29 12.5q18 0 30 -12.5t12 -29.5q0 -18 -12 -30.5t-29 -12.5t-29.5 12.5zM363 642.5q-12 12.5 -12 30.5q0 17 12 29.5t29 12.5t29.5 -12.5t12.5 -29.5q0 -18 -12 -30.5t-30 -12.5q-17 0 -29 12.5zM87.5 400
q32.5 62 87.5 96.5t119 34.5t118.5 -34t87.5 -96t33 -141q0 -78 -33 -139.5t-87.5 -96t-118.5 -34.5t-119 34t-87.5 96t-32.5 140t32.5 140zM138 146q24 -49 65.5 -75.5t90.5 -26.5q50 0 90.5 26.5t64.5 75.5t24 114t-24 114.5t-64.5 76t-90.5 26.5q-49 0 -90.5 -26.5
t-65.5 -76t-24 -114.5t24 -114z" />
    <glyph glyph-name="divide" unicode="&#xf7;" 
d="M247.5 515q-12.5 13 -12.5 30t12.5 29.5t29.5 12.5t29.5 -12.5t12.5 -29.5t-12.5 -30t-29.5 -13t-29.5 13zM497 337h-441v51h441v-51zM247.5 150q-12.5 13 -12.5 30t12.5 29.5t29.5 12.5t29.5 -12.5t12.5 -29.5t-12.5 -30t-29.5 -13t-29.5 13z" />
    <glyph glyph-name="oslash" unicode="&#xf8;" horiz-adv-x="595" 
d="M473 554h60l-71 -99q33 -36 52 -86t19 -109q0 -78 -33 -139.5t-87.5 -96t-118.5 -34.5q-71 0 -131 44l-48 -67h-60l70 99q-33 36 -51.5 85.5t-18.5 108.5q0 78 32.5 140t87.5 96.5t119 34.5q71 0 131 -44zM159 114l235 329q-43 34 -100 34q-49 0 -90.5 -26.5t-65.5 -76
t-24 -114.5q0 -88 45 -146zM429 408l-235 -329q43 -35 100 -35q50 0 90.5 26.5t64.5 75.5t24 114q0 90 -44 148z" />
    <glyph glyph-name="ugrave" unicode="&#xf9;" horiz-adv-x="570" 
d="M169 744h63l81 -148h-51zM428 521h56v-521h-49q0 13 -1 20q0 49 -3 80q-23 -53 -70 -81.5t-105 -28.5q-79 0 -128.5 53t-49.5 151v327h56v-312q0 -80 36 -122.5t98 -42.5q42 0 78.5 19.5t59 59t22.5 94.5v304z" />
    <glyph glyph-name="uacute" unicode="&#xfa;" horiz-adv-x="570" 
d="M252 596l81 148h63l-93 -148h-51zM428 521h56v-521h-49q0 13 -1 20q0 49 -3 80q-23 -53 -70 -81.5t-105 -28.5q-79 0 -128.5 53t-49.5 151v327h56v-312q0 -80 36 -122.5t98 -42.5q42 0 78.5 19.5t59 59t22.5 94.5v304z" />
    <glyph glyph-name="ucircumflex" unicode="&#xfb;" horiz-adv-x="570" 
d="M256 744h51l111 -148h-58l-78 105l-79 -105h-58zM428 521h56v-521h-49q0 13 -1 20q0 49 -3 80q-23 -53 -70 -81.5t-105 -28.5q-79 0 -128.5 53t-49.5 151v327h56v-312q0 -80 36 -122.5t98 -42.5q42 0 78.5 19.5t59 59t22.5 94.5v304z" />
    <glyph glyph-name="udieresis" unicode="&#xfc;" horiz-adv-x="570" 
d="M154.5 643q-12.5 12 -12.5 30t12.5 30.5t29.5 12.5t29.5 -12.5t12.5 -30.5t-12 -30t-30 -12q-17 0 -29.5 12zM351.5 643q-12.5 12 -12.5 30t12 30.5t29 12.5q18 0 30 -12.5t12 -30.5t-12 -30t-29 -12t-29.5 12zM428 521h56v-521h-49q0 13 -1 20q0 49 -3 80
q-23 -53 -70 -81.5t-105 -28.5q-79 0 -128.5 53t-49.5 151v327h56v-312q0 -80 36 -122.5t98 -42.5q42 0 78.5 19.5t59 59t22.5 94.5v304z" />
    <glyph glyph-name="yacute" unicode="&#xfd;" horiz-adv-x="495" 
d="M301 743h63l-93 -148h-51zM425 520h60l-251 -628q-28 -72 -60 -104t-89 -32q-52 0 -82 25l23 47q10 -8 26.5 -13.5t32.5 -5.5q34 0 57 23t46 81l33 80l-213 527h66l177 -454z" />
    <glyph glyph-name="thorn" unicode="&#xfe;" horiz-adv-x="601" 
d="M433 499q51 -32 82 -93.5t31 -145.5t-31 -145t-82 -93t-111 -32q-58 0 -106.5 31t-73.5 89v-342h-56v993h56v-350q25 59 73 89.5t107 30.5q60 0 111 -32zM403 69q39 25 61.5 74t22.5 117t-22.5 117t-61.5 74.5t-88 25.5q-44 0 -83.5 -21.5t-64.5 -70.5t-25 -125
t25 -124.5t64 -70t84 -21.5q49 0 88 25z" />
    <glyph glyph-name="ydieresis" unicode="&#xff;" horiz-adv-x="495" 
d="M123 642.5q-12 12.5 -12 30.5q0 17 12 29.5t29 12.5t29.5 -12.5t12.5 -29.5q0 -18 -12 -30.5t-30 -12.5q-17 0 -29 12.5zM319.5 642.5q-12.5 12.5 -12.5 30.5q0 17 12 29.5t29 12.5q18 0 30.5 -12.5t12.5 -29.5q0 -18 -12.5 -30.5t-29.5 -12.5t-29.5 12.5zM425 520h60
l-251 -628q-28 -72 -60 -104t-89 -32q-52 0 -82 25l23 47q10 -8 26.5 -13.5t32.5 -5.5q34 0 57 23t46 81l33 80l-213 527h66l177 -454z" />
    <glyph glyph-name="Amacron" unicode="&#x100;" horiz-adv-x="649" 
d="M179 860v51h293v-51h-293zM345 732l291 -732h-67l-89 230h-320l-86 -230h-61l282 732h50zM460 284l-142 367l-138 -367h280z" />
    <glyph glyph-name="amacron" unicode="&#x101;" horiz-adv-x="540" 
d="M127 698h293v-51h-293v51zM411 480.5q53 -50.5 53 -148.5v-332h-50q0 31 -2 81q-23 -43 -66.5 -67t-100.5 -24q-50 0 -92 18.5t-67.5 54t-25.5 85.5q0 76 62 119.5t161 43.5q58 0 124 -17v28q0 80 -35.5 118.5t-98.5 38.5q-50 0 -86 -22t-57 -63l-44 25q22 51 73.5 81.5
t116.5 30.5q82 0 135 -50.5zM407 246q-68 18 -124 18q-75 0 -119.5 -30t-44.5 -85q0 -52 37.5 -81t92.5 -29q66 0 112 39t46 107v61z" />
    <glyph glyph-name="Abreve" unicode="&#x102;" horiz-adv-x="649" 
d="M224 840.5q-38 32.5 -38 87.5h52q1 -40 24.5 -62t62.5 -22q40 0 63.5 22t25.5 62h52q0 -55 -38 -87.5t-103 -32.5q-63 0 -101 32.5zM345 732l291 -732h-67l-89 230h-320l-86 -230h-61l282 732h50zM460 284l-142 367l-138 -367h280z" />
    <glyph glyph-name="abreve" unicode="&#x103;" horiz-adv-x="540" 
d="M171 636q-39 38 -39 103h52q2 -45 26 -70.5t64 -25.5q42 0 65.5 25.5t25.5 70.5h52q0 -65 -39 -103t-104 -38q-64 0 -103 38zM411 480.5q53 -50.5 53 -148.5v-332h-50q0 31 -2 81q-23 -43 -66.5 -67t-100.5 -24q-50 0 -92 18.5t-67.5 54t-25.5 85.5q0 76 62 119.5
t161 43.5q58 0 124 -17v28q0 80 -35.5 118.5t-98.5 38.5q-50 0 -86 -22t-57 -63l-44 25q22 51 73.5 81.5t116.5 30.5q82 0 135 -50.5zM407 246q-68 18 -124 18q-75 0 -119.5 -30t-44.5 -85q0 -52 37.5 -81t92.5 -29q66 0 112 39t46 107v61z" />
    <glyph glyph-name="Aogonek" unicode="&#x104;" horiz-adv-x="649" 
d="M697 -195q-42 -49 -107 -49q-47 0 -81 25.5t-34 76.5q0 78 93 143l-88 229h-320l-86 -230h-61l282 732h50l291 -732q-56 -34 -83.5 -66t-27.5 -71q0 -34 19 -49t48 -15q44 0 81 37zM318 651l-138 -367h280z" />
    <glyph glyph-name="aogonek" unicode="&#x105;" horiz-adv-x="540" 
d="M525 -193q-41 -51 -107 -51q-48 0 -81.5 26.5t-33.5 78.5q0 88 111 152q0 26 -2 68q-23 -43 -66.5 -67t-100.5 -24q-50 0 -92 18.5t-67.5 54t-25.5 85.5q0 76 62 119.5t161 43.5q58 0 124 -17v28q0 80 -35.5 118.5t-98.5 38.5q-50 0 -86 -22t-57 -63l-44 25
q22 51 73.5 81.5t116.5 30.5q82 0 135 -50.5t53 -148.5v-332q-56 -33 -83.5 -64t-27.5 -69q0 -33 19 -49.5t49 -16.5q43 0 80 39zM407 246q-68 18 -124 18q-75 0 -119.5 -30t-44.5 -85q0 -52 37.5 -81t92.5 -29q66 0 112 39t46 107v61z" />
    <glyph glyph-name="Cacute" unicode="&#x106;" horiz-adv-x="640" 
d="M331 808l83 120h63l-95 -120h-51zM491.5 77.5q46.5 32.5 71.5 87.5l48 -28q-27 -67 -88.5 -107t-144.5 -40q-91 0 -164.5 47.5t-115.5 133.5t-42 196t42 195.5t115.5 133t164.5 47.5q83 0 144.5 -40t88.5 -107l-48 -28q-25 55 -71.5 87.5t-114.5 32.5q-76 0 -134.5 -40.5
t-91 -113.5t-32.5 -167t32.5 -167t91 -114t134.5 -41q68 0 114.5 32.5z" />
    <glyph glyph-name="cacute" unicode="&#x107;" horiz-adv-x="488" 
d="M255 596l81 148h63l-93 -148h-51zM425 122l45 -26q-25 -53 -71.5 -79.5t-104.5 -26.5q-67 0 -121.5 34t-86 95.5t-31.5 141.5t31.5 141.5t86 95t121.5 33.5q58 0 105 -26.5t71 -79.5l-45 -26q-41 78 -132 78q-52 0 -92.5 -26t-63.5 -75t-23 -115t23 -115t63.5 -75.5
t92.5 -26.5q91 0 132 78z" />
    <glyph glyph-name="Ccircumflex" unicode="&#x108;" horiz-adv-x="640" 
d="M324 928h53l117 -120h-61l-82 87l-83 -87h-61zM491.5 77.5q46.5 32.5 71.5 87.5l48 -28q-27 -67 -88.5 -107t-144.5 -40q-91 0 -164.5 47.5t-115.5 133.5t-42 196t42 195.5t115.5 133t164.5 47.5q83 0 144.5 -40t88.5 -107l-48 -28q-25 55 -71.5 87.5t-114.5 32.5
q-76 0 -134.5 -40.5t-91 -113.5t-32.5 -167t32.5 -167t91 -114t134.5 -41q68 0 114.5 32.5z" />
    <glyph glyph-name="ccircumflex" unicode="&#x109;" horiz-adv-x="488" 
d="M259 744h51l111 -148h-58l-78 105l-79 -105h-58zM425 122l45 -26q-25 -53 -71.5 -79.5t-104.5 -26.5q-67 0 -121.5 34t-86 95.5t-31.5 141.5t31.5 141.5t86 95t121.5 33.5q58 0 105 -26.5t71 -79.5l-45 -26q-41 78 -132 78q-52 0 -92.5 -26t-63.5 -75t-23 -115t23 -115
t63.5 -75.5t92.5 -26.5q91 0 132 78z" />
    <glyph glyph-name="Cdotaccent" unicode="&#x10a;" horiz-adv-x="640" 
d="M321.5 853q-12.5 11 -12.5 27q0 15 12 26t29 11q18 0 30.5 -11t12.5 -26q0 -16 -12.5 -27t-29.5 -11t-29.5 11zM491.5 77.5q46.5 32.5 71.5 87.5l48 -28q-27 -67 -88.5 -107t-144.5 -40q-91 0 -164.5 47.5t-115.5 133.5t-42 196t42 195.5t115.5 133t164.5 47.5
q83 0 144.5 -40t88.5 -107l-48 -28q-25 55 -71.5 87.5t-114.5 32.5q-76 0 -134.5 -40.5t-91 -113.5t-32.5 -167t32.5 -167t91 -114t134.5 -41q68 0 114.5 32.5z" />
    <glyph glyph-name="cdotaccent" unicode="&#x10b;" horiz-adv-x="488" 
d="M256 647.5q-12 12.5 -12 29.5t12 30t29 13t29.5 -13t12.5 -30t-12.5 -29.5t-29.5 -12.5t-29 12.5zM425 122l45 -26q-25 -53 -71.5 -79.5t-104.5 -26.5q-67 0 -121.5 34t-86 95.5t-31.5 141.5t31.5 141.5t86 95t121.5 33.5q58 0 105 -26.5t71 -79.5l-45 -26
q-41 78 -132 78q-52 0 -92.5 -26t-63.5 -75t-23 -115t23 -115t63.5 -75.5t92.5 -26.5q91 0 132 78z" />
    <glyph glyph-name="Ccaron" unicode="&#x10c;" horiz-adv-x="640" 
d="M268 928l83 -87l82 87h61l-117 -120h-53l-117 120h61zM491.5 77.5q46.5 32.5 71.5 87.5l48 -28q-27 -67 -88.5 -107t-144.5 -40q-91 0 -164.5 47.5t-115.5 133.5t-42 196t42 195.5t115.5 133t164.5 47.5q83 0 144.5 -40t88.5 -107l-48 -28q-25 55 -71.5 87.5t-114.5 32.5
q-76 0 -134.5 -40.5t-91 -113.5t-32.5 -167t32.5 -167t91 -114t134.5 -41q68 0 114.5 32.5z" />
    <glyph glyph-name="ccaron" unicode="&#x10d;" horiz-adv-x="488" 
d="M207 744l78 -106l78 106h58l-111 -148h-51l-110 148h58zM425 122l45 -26q-25 -53 -71.5 -79.5t-104.5 -26.5q-67 0 -121.5 34t-86 95.5t-31.5 141.5t31.5 141.5t86 95t121.5 33.5q58 0 105 -26.5t71 -79.5l-45 -26q-41 78 -132 78q-52 0 -92.5 -26t-63.5 -75t-23 -115
t23 -115t63.5 -75.5t92.5 -26.5q91 0 132 78z" />
    <glyph glyph-name="Dcaron" unicode="&#x10e;" horiz-adv-x="707" 
d="M213 928l83 -87l82 87h60l-116 -120h-53l-117 120h61zM281 732q107 0 190.5 -43t131 -125.5t47.5 -196.5q0 -115 -47 -198t-130.5 -126t-191.5 -43h-188v732h188zM273 53q95 0 166 37t110 107.5t39 169.5q0 98 -39 168.5t-110 107.5t-166 37h-120v-627h120z" />
    <glyph glyph-name="dcaron" unicode="&#x10f;" horiz-adv-x="629" 
d="M650.5 756.5q12.5 -14.5 12.5 -44.5q0 -41 -24.5 -70.5t-68.5 -37.5v29q55 15 58 64q-3 -1 -8 -1q-16 0 -25.5 11t-9.5 26q0 16 10 27t25 11q18 0 30.5 -14.5zM459 760h57v-760h-50q-2 90 -4 116q-24 -62 -74 -94t-109 -32q-60 0 -111.5 32t-82 93.5t-30.5 145.5
q0 83 30.5 144t82 93.5t111.5 32.5q59 0 107 -30.5t73 -89.5v349zM368.5 65.5q39.5 21.5 65 70t25.5 125.5q0 76 -25.5 124.5t-65 70t-83.5 21.5q-49 0 -88 -25t-61 -74t-22 -117q0 -69 22.5 -118t61 -74t87.5 -25q44 0 83.5 21.5z" />
    <glyph glyph-name="Dcroat" unicode="&#x110;" horiz-adv-x="719" 
d="M293 732q107 0 190.5 -43t131 -125.5t47.5 -196.5q0 -115 -47 -198t-130.5 -126t-191.5 -43h-187v350h-85v53h85v329h187zM286 53q95 0 166 37t109.5 107.5t38.5 169.5q0 98 -39 168.5t-109.5 107.5t-165.5 37h-121v-277h149v-53h-149v-297h121z" />
    <glyph glyph-name="dcroat" unicode="&#x111;" horiz-adv-x="601" 
d="M516 660h79v-48h-79v-612h-50q-2 90 -4 116q-24 -62 -74 -94t-109 -32q-60 0 -111.5 32t-82 93.5t-30.5 145.5q0 83 30.5 144t82 93.5t111.5 32.5q59 0 107 -30.5t73 -89.5v201h-143v48h143v100h57v-100zM368.5 65.5q39.5 21.5 65 70t25.5 125.5q0 76 -25.5 124.5t-65 70
t-83.5 21.5q-49 0 -88 -25t-61 -74t-22 -117q0 -69 22.5 -118t61 -74t87.5 -25q44 0 83.5 21.5z" />
    <glyph glyph-name="Emacron" unicode="&#x112;" horiz-adv-x="579" 
d="M157 859v51h293v-51h-293zM479 353h-326v-300h373v-53h-433v733h422v-53h-362v-274h326v-53z" />
    <glyph glyph-name="emacron" unicode="&#x113;" horiz-adv-x="537" 
d="M140 647v51h293v-51h-293zM400.5 500q47.5 -31 73 -83.5t25.5 -116.5q0 -21 -3 -44h-382q4 -103 54.5 -158t131.5 -55q45 0 80.5 19t55.5 57l44 -25q-21 -50 -71.5 -77t-111.5 -27q-67 0 -122 32.5t-87.5 94.5t-32.5 147q0 82 31.5 142.5t85 92.5t117.5 32t111.5 -31z
M173 433q-47 -46 -56 -130h321q0 79 -40.5 127.5t-110.5 48.5q-67 0 -114 -46z" />
    <glyph glyph-name="Ebreve" unicode="&#x114;" horiz-adv-x="579" 
d="M202 840.5q-38 32.5 -38 87.5h52q1 -39 25 -61.5t63 -22.5q40 0 63.5 22t24.5 62h52q0 -55 -37.5 -87.5t-102.5 -32.5q-64 0 -102 32.5zM479 353h-326v-300h373v-53h-433v733h422v-53h-362v-274h326v-53z" />
    <glyph glyph-name="ebreve" unicode="&#x115;" horiz-adv-x="537" 
d="M184 636q-39 38 -39 103h52q2 -45 25.5 -70.5t64.5 -25.5q42 0 65.5 25.5t25.5 70.5h52q0 -65 -39 -103t-104 -38q-64 0 -103 38zM400.5 500q47.5 -31 73 -83.5t25.5 -116.5q0 -21 -3 -44h-382q4 -103 54.5 -158t131.5 -55q45 0 80.5 19t55.5 57l44 -25
q-21 -50 -71.5 -77t-111.5 -27q-67 0 -122 32.5t-87.5 94.5t-32.5 147q0 82 31.5 142.5t85 92.5t117.5 32t111.5 -31zM173 433q-47 -46 -56 -130h321q0 79 -40.5 127.5t-110.5 48.5q-67 0 -114 -46z" />
    <glyph glyph-name="Edotaccent" unicode="&#x116;" horiz-adv-x="579" 
d="M274.5 853q-12.5 11 -12.5 27q0 15 12 26t29 11q18 0 30 -11t12 -26q0 -16 -12 -27t-29 -11t-29.5 11zM479 353h-326v-300h373v-53h-433v733h422v-53h-362v-274h326v-53z" />
    <glyph glyph-name="edotaccent" unicode="&#x117;" horiz-adv-x="537" 
d="M257.5 647q-12.5 13 -12.5 30t12.5 29.5t29.5 12.5t29 -12.5t12 -29.5t-12.5 -30t-28.5 -13q-17 0 -29.5 13zM400.5 500q47.5 -31 73 -83.5t25.5 -116.5q0 -21 -3 -44h-382q4 -103 54.5 -158t131.5 -55q45 0 80.5 19t55.5 57l44 -25q-21 -50 -71.5 -77t-111.5 -27
q-67 0 -122 32.5t-87.5 94.5t-32.5 147q0 82 31.5 142.5t85 92.5t117.5 32t111.5 -31zM173 433q-47 -46 -56 -130h321q0 79 -40.5 127.5t-110.5 48.5q-67 0 -114 -46z" />
    <glyph glyph-name="Eogonek" unicode="&#x118;" horiz-adv-x="579" 
d="M588 -195q-42 -49 -108 -49q-47 0 -80.5 25t-33.5 77q0 81 92 142h-365v733h422v-53h-362v-274h326v-53h-326v-300h373v-53q-56 -33 -83 -65.5t-27 -71.5q0 -34 19 -49t48 -15q45 0 80 37z" />
    <glyph glyph-name="eogonek" unicode="&#x119;" horiz-adv-x="537" 
d="M400.5 500q47.5 -31 73 -83.5t25.5 -116.5q0 -21 -3 -44h-382q4 -103 54.5 -158t131.5 -55q45 0 80.5 19t55.5 57l44 -25q-19 -43 -60 -70q-72 -47 -102 -81t-30 -75q0 -65 69 -65q44 0 80 36l24 -34q-19 -23 -46.5 -36t-60.5 -13q-49 0 -82.5 25.5t-33.5 79.5
q0 38 18.5 69t53.5 61q-4 -1 -13 -1q-67 0 -122 32.5t-87.5 94.5t-32.5 147q0 82 31.5 142.5t85 92.5t117.5 32t111.5 -31zM438 303q0 79 -40.5 127.5t-110.5 48.5q-67 0 -114 -46t-56 -130h321z" />
    <glyph glyph-name="Ecaron" unicode="&#x11a;" horiz-adv-x="579" 
d="M221 928l83 -87l81 87h61l-116 -120h-54l-116 120h61zM479 353h-326v-300h373v-53h-433v733h422v-53h-362v-274h326v-53z" />
    <glyph glyph-name="ecaron" unicode="&#x11b;" horiz-adv-x="537" 
d="M208 743l79 -105l77 105h58l-110 -148h-51l-111 148h58zM400.5 500q47.5 -31 73 -83.5t25.5 -116.5q0 -21 -3 -44h-382q4 -103 54.5 -158t131.5 -55q45 0 80.5 19t55.5 57l44 -25q-21 -50 -71.5 -77t-111.5 -27q-67 0 -122 32.5t-87.5 94.5t-32.5 147q0 82 31.5 142.5
t85 92.5t117.5 32t111.5 -31zM173 433q-47 -46 -56 -130h321q0 79 -40.5 127.5t-110.5 48.5q-67 0 -114 -46z" />
    <glyph glyph-name="Gcircumflex" unicode="&#x11c;" horiz-adv-x="687" 
d="M361 928h54l116 -119h-61l-81 87l-83 -87h-61zM409 319v53h227v-268q-31 -51 -94.5 -82.5t-143.5 -31.5q-98 0 -176 47.5t-122 133.5t-44 197q0 110 44.5 195t121.5 132.5t171 47.5q84 0 148 -37t92 -100l-48 -28q-23 50 -74.5 80t-120.5 30q-78 0 -140 -40.5
t-96.5 -113.5t-34.5 -166q0 -95 35.5 -168.5t99.5 -114t148 -40.5q56 0 102 19t74 57v198h-169z" />
    <glyph glyph-name="gcircumflex" unicode="&#x11d;" horiz-adv-x="601" 
d="M259 744h52l110 -148h-58l-78 105l-78 -105h-58zM515 521v-500q0 -141 -67 -203t-164 -62q-72 0 -128.5 30.5t-80.5 87.5l46 27q45 -92 164 -92q174 0 174 214v86q-25 -59 -72.5 -89t-106.5 -30q-60 0 -111.5 32.5t-82.5 94t-31 144.5t31 144.5t82.5 93.5t111.5 32
q59 0 108 -32t74 -93q2 28 4 115h49zM369.5 65.5q39.5 21.5 64.5 70t25 125.5q0 76 -25 124.5t-64.5 70t-83.5 21.5q-49 0 -88 -25t-61.5 -74t-22.5 -117q0 -69 22.5 -118t61.5 -74t88 -25q44 0 83.5 21.5z" />
    <glyph glyph-name="Gbreve" unicode="&#x11e;" horiz-adv-x="687" 
d="M287 841q-38 32 -38 87h52q2 -39 25.5 -61.5t62.5 -22.5q40 0 63 22.5t25 61.5h52q0 -55 -38 -87t-102 -32t-102 32zM409 319v53h227v-268q-31 -51 -94.5 -82.5t-143.5 -31.5q-98 0 -176 47.5t-122 133.5t-44 197q0 110 44.5 195t121.5 132.5t171 47.5q84 0 148 -37
t92 -100l-48 -28q-23 50 -74.5 80t-120.5 30q-78 0 -140 -40.5t-96.5 -113.5t-34.5 -166q0 -95 35.5 -168.5t99.5 -114t148 -40.5q56 0 102 19t74 57v198h-169z" />
    <glyph glyph-name="gbreve" unicode="&#x11f;" horiz-adv-x="601" 
d="M183 636.5q-39 38.5 -39 103.5h52q2 -45 25.5 -71t64.5 -26q42 0 65 26t25 71h53q0 -65 -39 -103.5t-104 -38.5q-64 0 -103 38.5zM515 521v-500q0 -141 -67 -203t-164 -62q-72 0 -128.5 30.5t-80.5 87.5l46 27q45 -92 164 -92q174 0 174 214v86q-25 -59 -72.5 -89
t-106.5 -30q-60 0 -111.5 32.5t-82.5 94t-31 144.5t31 144.5t82.5 93.5t111.5 32q59 0 108 -32t74 -93q2 28 4 115h49zM369.5 65.5q39.5 21.5 64.5 70t25 125.5q0 76 -25 124.5t-64.5 70t-83.5 21.5q-49 0 -88 -25t-61.5 -74t-22.5 -117q0 -69 22.5 -118t61.5 -74t88 -25
q44 0 83.5 21.5z" />
    <glyph glyph-name="Gdotaccent" unicode="&#x120;" horiz-adv-x="687" 
d="M359.5 854q-12.5 11 -12.5 26t12 26t29 11q18 0 30 -11t12 -26t-12 -26t-29 -11t-29.5 11zM409 319v53h227v-268q-31 -51 -94.5 -82.5t-143.5 -31.5q-98 0 -176 47.5t-122 133.5t-44 197q0 110 44.5 195t121.5 132.5t171 47.5q84 0 148 -37t92 -100l-48 -28
q-23 50 -74.5 80t-120.5 30q-78 0 -140 -40.5t-96.5 -113.5t-34.5 -166q0 -95 35.5 -168.5t99.5 -114t148 -40.5q56 0 102 19t74 57v198h-169z" />
    <glyph glyph-name="gdotaccent" unicode="&#x121;" horiz-adv-x="601" 
d="M256.5 647.5q-12.5 12.5 -12.5 29.5t12.5 30t29.5 13t29 -13t12 -30t-12 -29.5t-29 -12.5t-29.5 12.5zM515 521v-500q0 -141 -67 -203t-164 -62q-72 0 -128.5 30.5t-80.5 87.5l46 27q45 -92 164 -92q174 0 174 214v86q-25 -59 -72.5 -89t-106.5 -30q-60 0 -111.5 32.5
t-82.5 94t-31 144.5t31 144.5t82.5 93.5t111.5 32q59 0 108 -32t74 -93q2 28 4 115h49zM369.5 65.5q39.5 21.5 64.5 70t25 125.5q0 76 -25 124.5t-64.5 70t-83.5 21.5q-49 0 -88 -25t-61.5 -74t-22.5 -117q0 -69 22.5 -118t61.5 -74t88 -25q44 0 83.5 21.5z" />
    <glyph glyph-name="uni0122" unicode="&#x122;" horiz-adv-x="687" 
d="M578 319h-169v53h227v-268q-31 -51 -94.5 -82.5t-143.5 -31.5q-98 0 -176 47.5t-122 133.5t-44 197q0 110 44.5 195t121.5 132.5t171 47.5q84 0 148 -37t92 -100l-48 -28q-23 50 -74.5 80t-120.5 30q-78 0 -140 -40.5t-96.5 -113.5t-34.5 -166q0 -95 35.5 -168.5
t99.5 -114t148 -40.5q56 0 102 19t74 57v198zM417 -74.5q13 -14.5 13 -45.5q0 -41 -25.5 -70.5t-71.5 -38.5v29q57 17 60 65q-2 -1 -8 -1q-17 0 -27 11t-10 27q0 17 10.5 27.5t26.5 10.5q19 0 32 -14.5z" />
    <glyph glyph-name="uni0123" unicode="&#x123;" horiz-adv-x="601" 
d="M252.5 640q-12.5 15 -12.5 47q0 43 25 73t71 39v-30q-29 -9 -43 -25t-16 -41q3 1 9 1q16 0 25.5 -11.5t9.5 -28.5t-10.5 -28t-26.5 -11q-19 0 -31.5 15zM515 521v-500q0 -141 -67 -203t-164 -62q-72 0 -128.5 30.5t-80.5 87.5l46 27q45 -92 164 -92q174 0 174 214v86
q-25 -59 -72.5 -89t-106.5 -30q-60 0 -111.5 32.5t-82.5 94t-31 144.5t31 144.5t82.5 93.5t111.5 32q59 0 108 -32t74 -93q2 28 4 115h49zM369.5 65.5q39.5 21.5 64.5 70t25 125.5q0 76 -25 124.5t-64.5 70t-83.5 21.5q-49 0 -88 -25t-61.5 -74t-22.5 -117q0 -69 22.5 -118
t61.5 -74t88 -25q44 0 83.5 21.5z" />
    <glyph glyph-name="Hcircumflex" unicode="&#x124;" horiz-adv-x="728" 
d="M337 928h53l117 -120h-61l-82 87l-83 -87h-61zM153 407h423v325h59v-732h-59v354h-423v-354h-60v732h60v-325z" />
    <glyph glyph-name="hcircumflex" unicode="&#x125;" horiz-adv-x="569" 
d="M88 928h51l110 -102h-59l-76 72l-77 -72h-59zM443 478q50 -53 50 -152v-326h-57v311q0 80 -35.5 123t-98.5 43q-42 0 -78.5 -19.5t-59 -58.5t-22.5 -94v-305h-56v761h56v-335q24 50 69.5 77.5t102.5 27.5q79 0 129 -53z" />
    <glyph glyph-name="Hbar" unicode="&#x126;" horiz-adv-x="747" 
d="M645 732v-138h69v-48h-69v-546h-60v354h-423v-354h-59v546h-69v48h69v138h59v-138h423v138h60zM162 546v-139h423v139h-423z" />
    <glyph glyph-name="hbar" unicode="&#x127;" horiz-adv-x="577" 
d="M451 478q50 -53 50 -152v-326h-57v311q0 80 -35.5 123t-98.5 43q-42 0 -78.5 -19.5t-59 -58.5t-22.5 -94v-305h-56v612h-80v48h80v101h56v-101h161v-48h-161v-186q24 50 69.5 77.5t102.5 27.5q79 0 129 -53z" />
    <glyph glyph-name="Itilde" unicode="&#x128;" horiz-adv-x="246" 
d="M-28 825q2 43 26 70.5t64 27.5q25 0 41.5 -10t33.5 -28q13 -14 23.5 -21t23.5 -7q35 0 44 57h47q-2 -43 -26 -70.5t-63 -27.5q-26 0 -42.5 10t-33.5 28q-14 14 -24 20.5t-23 6.5q-36 0 -44 -56h-47zM153 0h-60v732h60v-732z" />
    <glyph glyph-name="itilde" unicode="&#x129;" horiz-adv-x="227" 
d="M-38 618q2 49 26.5 81t63.5 32q25 0 41.5 -11.5t34.5 -32.5q14 -17 23.5 -24.5t22.5 -7.5q19 0 30 17.5t14 46.5h48q-2 -50 -26 -81.5t-64 -31.5q-25 0 -41.5 11t-33.5 32q-13 16 -23.5 24t-23.5 8q-37 0 -44 -63h-48zM86 0v520h56v-520h-56z" />
    <glyph glyph-name="Imacron" unicode="&#x12a;" horiz-adv-x="246" 
d="M-23 859v51h293v-51h-293zM153 0h-60v732h60v-732z" />
    <glyph glyph-name="imacron" unicode="&#x12b;" horiz-adv-x="227" 
d="M-32 647v51h292v-51h-292zM86 0v520h56v-520h-56z" />
    <glyph glyph-name="Ibreve" unicode="&#x12c;" horiz-adv-x="246" 
d="M22 840.5q-38 32.5 -38 87.5h52q1 -39 25 -61.5t63 -22.5q40 0 63.5 22t24.5 62h52q0 -55 -37.5 -87.5t-102.5 -32.5q-64 0 -102 32.5zM153 0h-60v732h60v-732z" />
    <glyph glyph-name="ibreve" unicode="&#x12d;" horiz-adv-x="227" 
d="M11 636.5q-39 38.5 -39 103.5h52q2 -45 26 -71t64 -26q42 0 65.5 25.5t25.5 71.5h52q0 -65 -39 -103.5t-104 -38.5q-64 0 -103 38.5zM86 0v520h56v-520h-56z" />
    <glyph glyph-name="Iogonek" unicode="&#x12e;" horiz-adv-x="246" 
d="M214 -195q-42 -49 -107 -49q-47 0 -81 25.5t-34 76.5q0 82 101 149v725h60v-732q-56 -34 -83.5 -66t-27.5 -71q0 -34 19 -49t48 -15q44 0 81 37z" />
    <glyph glyph-name="iogonek" unicode="&#x12f;" horiz-adv-x="227" 
d="M85 647.5q-12 12.5 -12 29.5t12 30t29 13t29.5 -13t12.5 -30t-12.5 -29.5t-29.5 -12.5t-29 12.5zM203 -193q-41 -51 -108 -51q-48 0 -81 26t-33 78q0 85 105 150v510h56v-520q-56 -33 -83.5 -64t-27.5 -71q0 -34 18.5 -49t47.5 -15q45 0 82 39z" />
    <glyph glyph-name="Idotaccent" unicode="&#x130;" horiz-adv-x="246" 
d="M94.5 853q-12.5 11 -12.5 27q0 15 12 26t29 11q18 0 30 -11t12 -26q0 -16 -12 -27t-29 -11t-29.5 11zM153 0h-60v732h60v-732z" />
    <glyph glyph-name="dotlessi" unicode="&#x131;" horiz-adv-x="227" 
d="M86 0v520h56v-520h-56z" />
    <glyph glyph-name="IJ" unicode="&#x132;" horiz-adv-x="677" 
d="M153 0h-60v732h60v-732zM314.5 19.5q-43.5 29.5 -60.5 88.5l47 28q27 -91 117 -91q59 0 87.5 41.5t28.5 124.5v521h60v-527q0 -109 -48 -162t-128 -53q-60 0 -103.5 29.5z" />
    <glyph glyph-name="ij" unicode="&#x133;" horiz-adv-x="458" 
d="M85 647.5q-12 12.5 -12 29.5t12.5 30t28.5 13q18 0 30 -12.5t12 -30.5q0 -17 -12.5 -29.5t-29.5 -12.5t-29 12.5zM314.5 647.5q-12.5 12.5 -12.5 29.5t12.5 30t28.5 13q18 0 30 -12.5t12 -30.5q0 -17 -12 -29.5t-30 -12.5q-16 0 -28.5 12.5zM142 0h-56v520h56v-520z
M167 -234q-26 10 -42 29l34 41q26 -27 62 -27q94 0 94 140v571h57v-574q0 -97 -42.5 -143.5t-107.5 -46.5q-29 0 -55 10z" />
    <glyph glyph-name="Jcircumflex" unicode="&#x134;" horiz-adv-x="431" 
d="M291 928h53l117 -120h-61l-82 87l-83 -87h-61zM68.5 19.5q-43.5 29.5 -60.5 88.5l47 28q27 -91 117 -91q59 0 87.5 41.5t28.5 124.5v521h60v-527q0 -109 -48 -162t-128 -53q-60 0 -103.5 29.5z" />
    <glyph glyph-name="jcircumflex" unicode="&#x135;" horiz-adv-x="229" 
d="M88 744h52l110 -148h-58l-78 105l-78 -105h-58zM-62 -234q-26 10 -42 29l34 41q25 -27 62 -27q94 0 94 140v571h57v-574q0 -97 -42.5 -143.5t-107.5 -46.5q-29 0 -55 10z" />
    <glyph glyph-name="uni0136" unicode="&#x136;" horiz-adv-x="650" 
d="M540 732h78l-297 -309l319 -423h-76l-284 379l-127 -132v-247h-60v732h60v-411zM374.5 -74.5q12.5 -14.5 12.5 -45.5q0 -42 -25 -71t-71 -38v29q55 17 60 65q-3 -1 -9 -1q-17 0 -26.5 11t-9.5 27q0 17 10.5 27.5t26.5 10.5q19 0 31.5 -14.5z" />
    <glyph glyph-name="uni0137" unicode="&#x137;" horiz-adv-x="501" 
d="M406 520h70l-201 -219l223 -301h-72l-191 258l-93 -102v-156h-56v761h56v-531zM312.5 -74.5q12.5 -14.5 12.5 -45.5q0 -41 -25 -70.5t-71 -38.5v29q55 17 60 65q-3 -1 -9 -1q-17 0 -26.5 11t-9.5 27q0 17 10.5 27.5t26.5 10.5q19 0 31.5 -14.5z" />
    <glyph glyph-name="kgreenlandic" unicode="&#x138;" horiz-adv-x="501" 
d="M275 301l223 -301h-72l-191 258l-93 -102v-156h-56v521h56v-291l264 290h70z" />
    <glyph glyph-name="Lacute" unicode="&#x139;" horiz-adv-x="551" 
d="M104 809l83 119h63l-96 -119h-50zM93 732h60v-678h363v-54h-423v732z" />
    <glyph glyph-name="lacute" unicode="&#x13a;" horiz-adv-x="228" 
d="M95 827l82 101h63l-95 -101h-50zM142 0h-56v761h56v-761z" />
    <glyph glyph-name="uni013B" unicode="&#x13b;" horiz-adv-x="551" 
d="M93 732h60v-678h363v-54h-423v732zM344.5 -74.5q12.5 -14.5 12.5 -45.5q0 -41 -25.5 -70.5t-71.5 -38.5v29q57 17 60 65q-2 -1 -8 -1q-17 0 -26.5 11t-9.5 27q0 17 10.5 27.5t26.5 10.5q19 0 31.5 -14.5z" />
    <glyph glyph-name="uni013C" unicode="&#x13c;" horiz-adv-x="228" 
d="M86 0v761h56v-761h-56zM142.5 -74.5q12.5 -14.5 12.5 -45.5q0 -41 -25 -70.5t-71 -38.5v29q56 17 59 65q-2 -1 -8 -1q-17 0 -26.5 11t-9.5 27q0 17 10.5 27.5t26.5 10.5q19 0 31.5 -14.5z" />
    <glyph glyph-name="Lcaron" unicode="&#x13d;" horiz-adv-x="551" 
d="M374 608q-25 -30 -71 -39v30q55 17 60 66q-3 -1 -9 -1q-16 0 -26 11.5t-10 27.5q0 17 10.5 28.5t26.5 11.5q19 0 31.5 -15.5t12.5 -47.5q0 -42 -25 -72zM93 732h60v-678h363v-54h-423v732z" />
    <glyph glyph-name="lcaron" unicode="&#x13e;" horiz-adv-x="256" 
d="M277 756.5q12 -14.5 12 -44.5q0 -42 -24 -71t-69 -37v29q55 15 58 64q-2 -1 -8 -1q-16 0 -25.5 11t-9.5 26q0 16 10 27t26 11q18 0 30 -14.5zM142 0h-56v761h56v-761z" />
    <glyph glyph-name="Ldot" unicode="&#x13f;" horiz-adv-x="551" 
d="M93 732h60v-678h363v-54h-423v732zM318 352.5q-12 12.5 -12 29.5q0 18 12 30.5t29 12.5t29.5 -12.5t12.5 -30.5q0 -17 -12 -29.5t-30 -12.5q-17 0 -29 12.5z" />
    <glyph glyph-name="ldot" unicode="&#x140;" horiz-adv-x="228" 
d="M142 0h-56v761h56v-761zM202 358q-11 11 -11 27t11 27t26 11q16 0 27 -11t11 -27t-11 -27t-27 -11q-15 0 -26 11z" />
    <glyph glyph-name="Lslash" unicode="&#x141;" horiz-adv-x="569" 
d="M324 424l-153 -80v-290h363v-54h-422v313l-89 -46v57l89 46v362h59v-330l153 79v-57z" />
    <glyph glyph-name="lslash" unicode="&#x142;" horiz-adv-x="243" 
d="M150 761v-330l75 46v-58l-75 -46v-373h-57v340l-75 -47v58l75 46v364h57z" />
    <glyph glyph-name="Nacute" unicode="&#x143;" horiz-adv-x="725" 
d="M343 808l83 120h63l-96 -120h-50zM144 732l431 -625v625h56v-732h-50l-432 626v-626h-56v732h51z" />
    <glyph glyph-name="nacute" unicode="&#x144;" horiz-adv-x="569" 
d="M253 596l80 148h64l-94 -148h-50zM443.5 478q49.5 -53 49.5 -152v-326h-57v311q0 80 -35.5 123t-98.5 43q-42 0 -78.5 -19.5t-59 -58.5t-22.5 -94v-305h-56v520h49q3 -82 4 -100q23 53 69.5 82t105.5 29q80 0 129.5 -53z" />
    <glyph glyph-name="uni0145" unicode="&#x145;" horiz-adv-x="725" 
d="M144 732l431 -625v625h56v-732h-50l-432 626v-626h-56v732h51zM390.5 -74.5q12.5 -14.5 12.5 -45.5q0 -42 -25 -71t-71 -38v29q55 17 60 65q-3 -1 -9 -1q-17 0 -26.5 11t-9.5 27q0 17 10.5 27.5t26.5 10.5q19 0 31.5 -14.5z" />
    <glyph glyph-name="uni0146" unicode="&#x146;" horiz-adv-x="569" 
d="M443.5 478q49.5 -53 49.5 -152v-326h-57v311q0 80 -35.5 123t-98.5 43q-42 0 -78.5 -19.5t-59 -58.5t-22.5 -94v-305h-56v520h49q3 -82 4 -100q23 53 69.5 82t105.5 29q80 0 129.5 -53zM326.5 -74.5q12.5 -14.5 12.5 -45.5q0 -41 -25 -70.5t-71 -38.5v29q56 17 59 65
q-2 -1 -8 -1q-17 0 -26.5 11t-9.5 27q0 17 10.5 27.5t26.5 10.5q19 0 31.5 -14.5z" />
    <glyph glyph-name="Ncaron" unicode="&#x147;" horiz-adv-x="725" 
d="M280 928l82 -87l82 87h61l-117 -120h-53l-116 120h61zM144 732l431 -625v625h56v-732h-50l-432 626v-626h-56v732h51z" />
    <glyph glyph-name="ncaron" unicode="&#x148;" horiz-adv-x="569" 
d="M205 744l78 -106l77 106h58l-110 -148h-51l-110 148h58zM443.5 478q49.5 -53 49.5 -152v-326h-57v311q0 80 -35.5 123t-98.5 43q-42 0 -78.5 -19.5t-59 -58.5t-22.5 -94v-305h-56v520h49q3 -82 4 -100q23 53 69.5 82t105.5 29q80 0 129.5 -53z" />
    <glyph glyph-name="napostrophe" unicode="&#x149;" horiz-adv-x="569" 
d="M77 756q13 -15 13 -47q0 -43 -25.5 -73t-71.5 -39v30q57 17 60 67q-4 -2 -8 -2q-17 0 -26.5 11.5t-9.5 28.5t10 28t26 11q19 0 32 -15zM443.5 478q49.5 -53 49.5 -152v-326h-57v311q0 80 -35.5 123t-98.5 43q-42 0 -78.5 -19.5t-59 -58.5t-22.5 -94v-305h-56v520h49
q3 -82 4 -100q23 53 69.5 82t105.5 29q80 0 129.5 -53z" />
    <glyph glyph-name="Eng" unicode="&#x14a;" horiz-adv-x="725" 
d="M575 732h56v-801q0 -91 -35.5 -133t-94.5 -42q-44 0 -73 21l23 46q20 -14 48 -14q36 0 56 28t20 96v76l-426 617v-626h-56v732h51l431 -625v625z" />
    <glyph glyph-name="eng" unicode="&#x14b;" horiz-adv-x="569" 
d="M443.5 478q49.5 -53 49.5 -152v-395q0 -91 -35.5 -133t-94.5 -42q-44 0 -73 21l23 46q20 -14 48 -14q36 0 56 28t20 96l-1 378q0 80 -35.5 123t-98.5 43q-42 0 -78.5 -19.5t-59 -58.5t-22.5 -94v-305h-56v520h49q3 -82 4 -100q23 53 69.5 82t105.5 29q80 0 129.5 -53z
" />
    <glyph glyph-name="Omacron" unicode="&#x14c;" horiz-adv-x="753" 
d="M230 859v51h293v-51h-293zM97.5 564.5q41.5 85.5 114.5 132t164 46.5q92 0 165 -46.5t114.5 -132t41.5 -197.5q0 -113 -41.5 -198.5t-114.5 -132t-165 -46.5q-91 0 -164 46.5t-114.5 132t-41.5 198.5q0 112 41.5 197.5zM151 199q32 -73 90 -113.5t135 -40.5t136 40.5
t91 113.5t32 168t-32.5 168t-91 113.5t-135.5 40.5q-76 0 -134.5 -40.5t-90.5 -113.5t-32 -168t32 -168z" />
    <glyph glyph-name="omacron" unicode="&#x14d;" horiz-adv-x="588" 
d="M147 647v51h293v-51h-293zM87.5 400q32.5 62 87.5 96.5t119 34.5t118.5 -34t87.5 -96t33 -141q0 -78 -33 -139.5t-87.5 -96t-118.5 -34.5t-119 34t-87.5 96t-32.5 140t32.5 140zM138 146q24 -49 65.5 -75.5t90.5 -26.5q50 0 90.5 26.5t64.5 75.5t24 114t-24 114.5
t-64.5 76t-90.5 26.5q-49 0 -90.5 -26.5t-65.5 -76t-24 -114.5t24 -114z" />
    <glyph glyph-name="Obreve" unicode="&#x14e;" horiz-adv-x="753" 
d="M275 840.5q-38 32.5 -38 87.5h52q1 -40 24.5 -62t62.5 -22q40 0 63.5 22t25.5 62h52q0 -56 -38 -88t-103 -32q-63 0 -101 32.5zM97.5 564.5q41.5 85.5 114.5 132t164 46.5q92 0 165 -46.5t114.5 -132t41.5 -197.5q0 -113 -41.5 -198.5t-114.5 -132t-165 -46.5
q-91 0 -164 46.5t-114.5 132t-41.5 198.5q0 112 41.5 197.5zM151 199q32 -73 90 -113.5t135 -40.5t136 40.5t91 113.5t32 168t-32.5 168t-91 113.5t-135.5 40.5q-76 0 -134.5 -40.5t-90.5 -113.5t-32 -168t32 -168z" />
    <glyph glyph-name="obreve" unicode="&#x14f;" horiz-adv-x="588" 
d="M191 636q-39 38 -39 103h52q2 -45 26 -70.5t64 -25.5q42 0 65.5 25.5t25.5 70.5h52q0 -65 -39 -103t-104 -38q-64 0 -103 38zM87.5 400q32.5 62 87.5 96.5t119 34.5t118.5 -34t87.5 -96t33 -141q0 -78 -33 -139.5t-87.5 -96t-118.5 -34.5t-119 34t-87.5 96t-32.5 140
t32.5 140zM138 146q24 -49 65.5 -75.5t90.5 -26.5q50 0 90.5 26.5t64.5 75.5t24 114t-24 114.5t-64.5 76t-90.5 26.5q-49 0 -90.5 -26.5t-65.5 -76t-24 -114.5t24 -114z" />
    <glyph glyph-name="Ohungarumlaut" unicode="&#x150;" horiz-adv-x="753" 
d="M282 808l81 120h62l-93 -120h-50zM413 808l80 120h63l-94 -120h-49zM97.5 564.5q41.5 85.5 114.5 132t164 46.5q92 0 165 -46.5t114.5 -132t41.5 -197.5q0 -113 -41.5 -198.5t-114.5 -132t-165 -46.5q-91 0 -164 46.5t-114.5 132t-41.5 198.5q0 112 41.5 197.5zM151 199
q32 -73 90 -113.5t135 -40.5t136 40.5t91 113.5t32 168t-32.5 168t-91 113.5t-135.5 40.5q-76 0 -134.5 -40.5t-90.5 -113.5t-32 -168t32 -168z" />
    <glyph glyph-name="ohungarumlaut" unicode="&#x151;" horiz-adv-x="588" 
d="M200 595l80 148h63l-94 -148h-49zM330 595l81 148h62l-93 -148h-50zM87.5 400q32.5 62 87.5 96.5t119 34.5t118.5 -34t87.5 -96t33 -141q0 -78 -33 -139.5t-87.5 -96t-118.5 -34.5t-119 34t-87.5 96t-32.5 140t32.5 140zM138 146q24 -49 65.5 -75.5t90.5 -26.5
q50 0 90.5 26.5t64.5 75.5t24 114t-24 114.5t-64.5 76t-90.5 26.5q-49 0 -90.5 -26.5t-65.5 -76t-24 -114.5t24 -114z" />
    <glyph glyph-name="OE" unicode="&#x152;" horiz-adv-x="1119" 
d="M693 353v-300h374v-53h-433v166q-35 -83 -102.5 -129.5t-155.5 -46.5q-91 0 -164 47.5t-114.5 133t-41.5 196.5q0 110 41.5 195.5t114.5 133t164 47.5q89 0 156 -46.5t102 -129.5v166h422v-53h-363v-274h327v-53h-327zM511.5 86q58.5 41 90.5 114t32 167t-32 167.5
t-91 114t-135 40.5t-134.5 -41t-90.5 -114t-32 -167t32 -167.5t90 -114t135 -40.5t135.5 41z" />
    <glyph glyph-name="oe" unicode="&#x153;" horiz-adv-x="956" 
d="M819.5 500q47.5 -31 73 -83.5t25.5 -116.5q0 -21 -3 -44h-382q3 -103 54 -158t131 -55q46 0 81 18.5t55 57.5l44 -25q-20 -50 -71 -77t-113 -27q-72 0 -128.5 39t-83.5 111q-25 -70 -80 -110t-125 -40q-65 0 -120.5 34t-88.5 96t-33 140t33 140t88.5 96.5t120.5 34.5
q69 0 124 -39.5t81 -108.5q24 71 79.5 109.5t125.5 38.5q65 0 112.5 -31zM591.5 433q-47.5 -46 -56.5 -130h322q0 78 -40.5 127t-110.5 49q-67 0 -114.5 -46zM386.5 70.5q40.5 26.5 63.5 75.5t23 114t-23 114.5t-63.5 76t-90.5 26.5t-91.5 -26.5t-66 -76t-24.5 -114.5
t24.5 -114t66 -75.5t91.5 -26.5t90.5 26.5z" />
    <glyph glyph-name="Racute" unicode="&#x154;" horiz-adv-x="602" 
d="M257 809l83 119h63l-96 -119h-50zM608 0h-73l-222 316q-18 -2 -27 -2h-133v-314h-60v732h193q74 0 132 -25.5t90 -73t32 -110.5q0 -74 -44 -125.5t-120 -71.5zM153 680v-313h126q92 0 145 42t53 114t-53 114.5t-145 42.5h-126z" />
    <glyph glyph-name="racute" unicode="&#x155;" horiz-adv-x="354" 
d="M176 595l81 148h63l-93 -148h-51zM348 512l-22 -46q-17 11 -46 11q-59 0 -98.5 -49.5t-39.5 -140.5v-287h-56v520h49q3 -79 4 -97q20 52 57 80t85 28q43 0 67 -19z" />
    <glyph glyph-name="uni0156" unicode="&#x156;" horiz-adv-x="602" 
d="M608 0h-73l-222 316q-18 -2 -27 -2h-133v-314h-60v732h193q74 0 132 -25.5t90 -73t32 -110.5q0 -74 -44 -125.5t-120 -71.5zM279 367q92 0 145 42t53 114t-53 114.5t-145 42.5h-126v-313h126zM373.5 -74.5q12.5 -14.5 12.5 -45.5q0 -41 -25 -70.5t-71 -38.5v29
q55 17 60 65q-3 -1 -9 -1q-17 0 -26.5 11t-9.5 27q0 17 10.5 27.5t26.5 10.5q19 0 31.5 -14.5z" />
    <glyph glyph-name="uni0157" unicode="&#x157;" horiz-adv-x="354" 
d="M348 512l-22 -46q-17 11 -46 11q-59 0 -98.5 -49.5t-39.5 -140.5v-287h-56v520h49q3 -79 4 -97q20 52 57 80t85 28q43 0 67 -19zM142.5 -74.5q12.5 -14.5 12.5 -45.5q0 -41 -25 -70.5t-71 -38.5v29q56 17 59 65q-2 -1 -8 -1q-17 0 -26.5 11t-9.5 27q0 17 10.5 27.5
t26.5 10.5q19 0 31.5 -14.5z" />
    <glyph glyph-name="Rcaron" unicode="&#x158;" horiz-adv-x="602" 
d="M194 928l83 -87l81 87h61l-116 -119h-53l-117 119h61zM608 0h-73l-222 316q-18 -2 -27 -2h-133v-314h-60v732h193q74 0 132 -25.5t90 -73t32 -110.5q0 -74 -44 -125.5t-120 -71.5zM153 680v-313h126q92 0 145 42t53 114t-53 114.5t-145 42.5h-126z" />
    <glyph glyph-name="rcaron" unicode="&#x159;" horiz-adv-x="354" 
d="M128 743l79 -105l77 105h58l-110 -148h-51l-111 148h58zM348 512l-22 -46q-17 11 -46 11q-59 0 -98.5 -49.5t-39.5 -140.5v-287h-56v520h49q3 -79 4 -97q20 52 57 80t85 28q43 0 67 -19z" />
    <glyph glyph-name="Sacute" unicode="&#x15a;" horiz-adv-x="550" 
d="M268 809l82 119h63l-95 -119h-50zM456.5 45.5q-61.5 -55.5 -167.5 -55.5q-98 0 -170 46.5t-95 125.5l48 28q24 -68 81.5 -106.5t135.5 -38.5t122.5 38.5t44.5 105.5q0 51 -26 83t-64.5 50t-103.5 38q-69 22 -110 41.5t-69.5 56t-28.5 94.5q0 61 30.5 104t83 65t115.5 22
q90 0 148.5 -41.5t73.5 -103.5l-48 -28q-17 54 -61.5 86.5t-114.5 32.5q-72 0 -118 -35t-46 -97q0 -43 23.5 -70t58.5 -42.5t95 -34.5q72 -22 117 -43.5t76 -62.5t31 -109q0 -94 -61.5 -149.5z" />
    <glyph glyph-name="sacute" unicode="&#x15b;" horiz-adv-x="447" 
d="M203 596l81 148h63l-93 -148h-51zM360 31.5q-50 -41.5 -129 -41.5q-70 0 -123 32.5t-70 91.5l44 25q17 -48 56.5 -72.5t92.5 -24.5q54 0 87 25.5t33 68.5q0 33 -18.5 54t-46 32.5t-73.5 25.5q-52 16 -83 30.5t-52.5 41t-21.5 68.5q0 65 50 104t124 39q63 0 109 -28.5
t63 -77.5l-44 -26q-14 37 -49 58.5t-81 21.5q-49 0 -80.5 -23t-31.5 -63q0 -28 17 -46.5t42.5 -29t68.5 -23.5q53 -16 86 -31.5t56.5 -45t23.5 -76.5q0 -68 -50 -109.5z" />
    <glyph glyph-name="Scircumflex" unicode="&#x15c;" horiz-adv-x="550" 
d="M260 928h53l117 -119h-61l-82 87l-83 -87h-60zM456.5 45.5q-61.5 -55.5 -167.5 -55.5q-98 0 -170 46.5t-95 125.5l48 28q24 -68 81.5 -106.5t135.5 -38.5t122.5 38.5t44.5 105.5q0 51 -26 83t-64.5 50t-103.5 38q-69 22 -110 41.5t-69.5 56t-28.5 94.5q0 61 30.5 104
t83 65t115.5 22q90 0 148.5 -41.5t73.5 -103.5l-48 -28q-17 54 -61.5 86.5t-114.5 32.5q-72 0 -118 -35t-46 -97q0 -43 23.5 -70t58.5 -42.5t95 -34.5q72 -22 117 -43.5t76 -62.5t31 -109q0 -94 -61.5 -149.5z" />
    <glyph glyph-name="scircumflex" unicode="&#x15d;" horiz-adv-x="447" 
d="M207 744h51l111 -148h-58l-78 105l-79 -105h-58zM360 31.5q-50 -41.5 -129 -41.5q-70 0 -123 32.5t-70 91.5l44 25q17 -48 56.5 -72.5t92.5 -24.5q54 0 87 25.5t33 68.5q0 33 -18.5 54t-46 32.5t-73.5 25.5q-52 16 -83 30.5t-52.5 41t-21.5 68.5q0 65 50 104t124 39
q63 0 109 -28.5t63 -77.5l-44 -26q-14 37 -49 58.5t-81 21.5q-49 0 -80.5 -23t-31.5 -63q0 -28 17 -46.5t42.5 -29t68.5 -23.5q53 -16 86 -31.5t56.5 -45t23.5 -76.5q0 -68 -50 -109.5z" />
    <glyph glyph-name="Scedilla" unicode="&#x15e;" horiz-adv-x="550" 
d="M284 -10l-24 -62q50 2 82 -19t32 -62q0 -43 -36 -67t-87 -24q-29 0 -64 10v42q29 -10 63 -10q33 0 53.5 11.5t20.5 35.5q0 44 -79 44q-10 0 -36 -2l-5 27l31 80q-78 12 -134.5 56.5t-76.5 111.5l48 28q24 -68 81.5 -106.5t135.5 -38.5t122.5 38t44.5 106q0 51 -26 83
t-64.5 50t-103.5 38q-69 22 -110 41.5t-69.5 56t-28.5 94.5q0 61 30.5 104t83 65t115.5 22q90 0 148.5 -41.5t73.5 -103.5l-48 -28q-17 54 -61.5 86.5t-114.5 32.5q-72 0 -118 -35t-46 -97q0 -43 23.5 -70t58.5 -42.5t95 -34.5q72 -22 117 -43.5t76 -62.5t31 -109
q0 -94 -61.5 -149.5t-167.5 -55.5h-5z" />
    <glyph glyph-name="scedilla" unicode="&#x15f;" horiz-adv-x="447" 
d="M363.5 34.5q-46.5 -41.5 -123.5 -43.5l-25 -63q51 3 83 -18t32 -63q0 -44 -34 -67.5t-86 -23.5q-23 0 -67 10v44q31 -11 63 -11q34 0 54 11t20 35q0 22 -19.5 33t-54.5 11q-18 0 -41 -3l-5 28l31 80q-56 8 -97 39t-56 81l44 25q17 -48 56.5 -72.5t92.5 -24.5
q54 0 87 25.5t33 68.5q0 33 -18.5 54t-46 32.5t-73.5 25.5q-52 16 -83 30.5t-52.5 41t-21.5 68.5q0 65 50 104t124 39q63 0 109 -28.5t63 -77.5l-44 -26q-14 37 -49 58.5t-81 21.5q-49 0 -80.5 -23t-31.5 -63q0 -28 17 -46.5t42.5 -29t68.5 -23.5q53 -16 86 -31.5t56.5 -45
t23.5 -76.5q0 -65 -46.5 -106.5z" />
    <glyph glyph-name="Scaron" unicode="&#x160;" horiz-adv-x="550" 
d="M204 928l83 -87l82 87h61l-117 -119h-53l-116 119h60zM456.5 45.5q-61.5 -55.5 -167.5 -55.5q-98 0 -170 46.5t-95 125.5l48 28q24 -68 81.5 -106.5t135.5 -38.5t122.5 38.5t44.5 105.5q0 51 -26 83t-64.5 50t-103.5 38q-69 22 -110 41.5t-69.5 56t-28.5 94.5
q0 61 30.5 104t83 65t115.5 22q90 0 148.5 -41.5t73.5 -103.5l-48 -28q-17 54 -61.5 86.5t-114.5 32.5q-72 0 -118 -35t-46 -97q0 -43 23.5 -70t58.5 -42.5t95 -34.5q72 -22 117 -43.5t76 -62.5t31 -109q0 -94 -61.5 -149.5z" />
    <glyph glyph-name="scaron" unicode="&#x161;" horiz-adv-x="447" 
d="M155 744l78 -106l78 106h58l-111 -148h-51l-110 148h58zM360 31.5q-50 -41.5 -129 -41.5q-70 0 -123 32.5t-70 91.5l44 25q17 -48 56.5 -72.5t92.5 -24.5q54 0 87 25.5t33 68.5q0 33 -18.5 54t-46 32.5t-73.5 25.5q-52 16 -83 30.5t-52.5 41t-21.5 68.5q0 65 50 104
t124 39q63 0 109 -28.5t63 -77.5l-44 -26q-14 37 -49 58.5t-81 21.5q-49 0 -80.5 -23t-31.5 -63q0 -28 17 -46.5t42.5 -29t68.5 -23.5q53 -16 86 -31.5t56.5 -45t23.5 -76.5q0 -68 -50 -109.5z" />
    <glyph glyph-name="uni0162" unicode="&#x162;" horiz-adv-x="548" 
d="M303 679v-679h-3l-28 -72q50 2 82.5 -19t32.5 -62q0 -43 -36 -67t-87 -24q-29 0 -64 10v42q27 -10 63 -10q33 0 53 11.5t20 35.5q0 44 -79 44q-9 0 -35 -2l-5 27l33 86h-6v679h-229v53h518v-53h-230z" />
    <glyph glyph-name="uni0163" unicode="&#x163;" horiz-adv-x="346" 
d="M210 -72q51 2 83 -19t32 -62q0 -44 -34 -67.5t-86 -23.5q-30 0 -67 10v44q31 -11 63 -11q34 0 54 11t20 35q0 22 -19.5 32.5t-53.5 10.5q-19 0 -42 -3l-5 28l33 84q-84 26 -84 152v323h-86v49h86v144h57v-144h147v-49h-147v-316q0 -61 22 -86.5t62 -25.5q35 0 68 18
l19 -46q-38 -26 -92 -26h-5z" />
    <glyph glyph-name="Tcaron" unicode="&#x164;" horiz-adv-x="548" 
d="M191 928l83 -87l82 87h61l-117 -120h-53l-116 120h60zM15 732h518v-53h-230v-679h-59v679h-229v53z" />
    <glyph glyph-name="tcaron" unicode="&#x165;" horiz-adv-x="346" 
d="M352 775.5q13 -15.5 13 -48.5q0 -46 -25.5 -79.5t-72.5 -43.5v30q58 19 61 78q-3 -1 -9 -1q-17 0 -27 12t-10 28q0 17 11 28.5t27 11.5q19 0 32 -15.5zM313 62l19 -46q-38 -26 -92 -26q-62 0 -99 35.5t-37 123.5v323h-86v49h86v144h57v-144h147v-49h-147v-316
q0 -61 22 -86.5t62 -25.5q35 0 68 18z" />
    <glyph glyph-name="Tbar" unicode="&#x166;" horiz-adv-x="548" 
d="M15 732h518v-53h-230v-272h155v-53h-155v-354h-59v354h-153v53h153v272h-229v53z" />
    <glyph glyph-name="tbar" unicode="&#x167;" horiz-adv-x="346" 
d="M332 17q-37 -27 -93 -27q-135 0 -135 159v104h-86v49h86v170h-86v49h86v144h57v-144h147v-49h-147v-170h147v-49h-147v-97q0 -112 84 -112q37 0 68 19z" />
    <glyph glyph-name="Utilde" unicode="&#x168;" horiz-adv-x="708" 
d="M202 825q2 43 26 70.5t64 27.5q25 0 41.5 -10t33.5 -28q13 -14 23.5 -21t23.5 -7q19 0 30 15.5t14 41.5h48q-2 -43 -26.5 -70.5t-63.5 -27.5q-25 0 -41.5 9.5t-34.5 28.5q-14 14 -23.5 20.5t-22.5 6.5q-37 0 -44 -56h-48zM565 732h60v-446q0 -90 -32 -156.5t-93.5 -103
t-145.5 -36.5t-145.5 36.5t-93.5 103t-32 156.5v446h59v-436q0 -119 55 -185t157 -66q101 0 156 66t55 185v436z" />
    <glyph glyph-name="utilde" unicode="&#x169;" horiz-adv-x="570" 
d="M131 618q2 49 26 81t63 32q25 0 41.5 -11.5t34.5 -32.5q14 -17 23.5 -24.5t22.5 -7.5q36 0 45 64h47q-2 -49 -26 -81t-64 -32q-25 0 -41.5 11t-33.5 32q-13 16 -23.5 24t-23.5 8q-37 0 -44 -63h-47zM428 521h56v-521h-49q0 13 -1 20q0 49 -3 80q-23 -53 -70 -81.5
t-105 -28.5q-79 0 -128.5 53t-49.5 151v327h56v-312q0 -80 36 -122.5t98 -42.5q42 0 78.5 19.5t59 59t22.5 94.5v304z" />
    <glyph glyph-name="Umacron" unicode="&#x16a;" horiz-adv-x="708" 
d="M208 859v51h292v-51h-292zM565 732h60v-446q0 -90 -32 -156.5t-93.5 -103t-145.5 -36.5t-145.5 36.5t-93.5 103t-32 156.5v446h59v-436q0 -119 55 -185t157 -66q101 0 156 66t55 185v436z" />
    <glyph glyph-name="umacron" unicode="&#x16b;" horiz-adv-x="570" 
d="M136 647v51h293v-51h-293zM428 521h56v-521h-49q0 13 -1 20q0 49 -3 80q-23 -53 -70 -81.5t-105 -28.5q-79 0 -128.5 53t-49.5 151v327h56v-312q0 -80 36 -122.5t98 -42.5q42 0 78.5 19.5t59 59t22.5 94.5v304z" />
    <glyph glyph-name="Ubreve" unicode="&#x16c;" horiz-adv-x="708" 
d="M252 840.5q-38 32.5 -38 87.5h52q2 -40 25.5 -62t62.5 -22q40 0 63.5 22t25.5 62h52q0 -56 -38 -88t-103 -32q-64 0 -102 32.5zM565 732h60v-446q0 -90 -32 -156.5t-93.5 -103t-145.5 -36.5t-145.5 36.5t-93.5 103t-32 156.5v446h59v-436q0 -119 55 -185t157 -66
q101 0 156 66t55 185v436z" />
    <glyph glyph-name="ubreve" unicode="&#x16d;" horiz-adv-x="570" 
d="M179 636.5q-39 38.5 -39 103.5h52q2 -45 26 -71t64 -26q42 0 65.5 25.5t25.5 71.5h52q0 -65 -39 -103.5t-104 -38.5q-64 0 -103 38.5zM428 521h56v-521h-49q0 13 -1 20q0 49 -3 80q-23 -53 -70 -81.5t-105 -28.5q-79 0 -128.5 53t-49.5 151v327h56v-312q0 -80 36 -122.5
t98 -42.5q42 0 78.5 19.5t59 59t22.5 94.5v304z" />
    <glyph glyph-name="Uring" unicode="&#x16e;" horiz-adv-x="708" 
d="M287 910.5q27 17.5 67 17.5q39 0 65 -17.5t26 -44.5t-26 -44.5t-65 -17.5q-40 0 -67 17.5t-27 44.5t27 44.5zM315 838.5q15 -10.5 39 -10.5q23 0 37.5 10.5t14.5 27.5t-14.5 27.5t-37.5 10.5q-24 0 -39 -10.5t-15 -27.5t15 -27.5zM565 732h60v-446q0 -90 -32 -156.5
t-93.5 -103t-145.5 -36.5t-145.5 36.5t-93.5 103t-32 156.5v446h59v-436q0 -119 55 -185t157 -66q101 0 156 66t55 185v436z" />
    <glyph glyph-name="uring" unicode="&#x16f;" horiz-adv-x="570" 
d="M215 753q27 26 67 26q39 0 65 -26t26 -67q0 -40 -26 -66.5t-65 -26.5t-66.5 26.5t-27.5 66.5q0 41 27 67zM243.5 646q15.5 -16 38.5 -16t37.5 16t14.5 40q0 25 -14.5 40.5t-37.5 15.5q-24 0 -39 -15.5t-15 -40.5q0 -24 15.5 -40zM428 521h56v-521h-49q0 13 -1 20
q0 49 -3 80q-23 -53 -70 -81.5t-105 -28.5q-79 0 -128.5 53t-49.5 151v327h56v-312q0 -80 36 -122.5t98 -42.5q42 0 78.5 19.5t59 59t22.5 94.5v304z" />
    <glyph glyph-name="Uhungarumlaut" unicode="&#x170;" horiz-adv-x="708" 
d="M260 808l80 120h63l-94 -120h-49zM390 808l81 120h62l-93 -120h-50zM565 732h60v-446q0 -90 -32 -156.5t-93.5 -103t-145.5 -36.5t-145.5 36.5t-93.5 103t-32 156.5v446h59v-436q0 -119 55 -185t157 -66q101 0 156 66t55 185v436z" />
    <glyph glyph-name="uhungarumlaut" unicode="&#x171;" horiz-adv-x="570" 
d="M188 596l81 148h62l-93 -148h-50zM319 596l80 148h63l-94 -148h-49zM428 521h56v-521h-49q0 13 -1 20q0 49 -3 80q-23 -53 -70 -81.5t-105 -28.5q-79 0 -128.5 53t-49.5 151v327h56v-312q0 -80 36 -122.5t98 -42.5q42 0 78.5 19.5t59 59t22.5 94.5v304z" />
    <glyph glyph-name="Uogonek" unicode="&#x172;" horiz-adv-x="708" 
d="M625 286q0 -85 -29 -149.5t-84 -101.5q-72 -49 -99.5 -86t-27.5 -80q0 -37 19 -53.5t48 -16.5q44 0 80 36l24 -30q-18 -23 -45 -36t-62 -13q-48 0 -81 26t-33 82q0 38 16 69.5t48 60.5q-28 -4 -45 -4q-84 0 -145.5 36.5t-93.5 103t-32 156.5v446h59v-436q0 -119 55 -185
t157 -66q101 0 156 66t55 185v436h60v-446z" />
    <glyph glyph-name="uogonek" unicode="&#x173;" horiz-adv-x="570" 
d="M546 -193q-41 -51 -108 -51q-48 0 -81 26t-33 78q0 89 111 153q0 15 -1 24q0 36 -3 63q-23 -53 -70 -81.5t-105 -28.5q-79 0 -128.5 53t-49.5 151v327h56v-312q0 -80 36 -122.5t98 -42.5q42 0 78.5 19.5t59 59t22.5 94.5v304h56v-521q-56 -34 -83 -65t-27 -70
q0 -34 18 -49t48 -15q45 0 82 39z" />
    <glyph glyph-name="Wcircumflex" unicode="&#x174;" horiz-adv-x="954" 
d="M453 928h53l117 -120h-61l-82 87l-83 -87h-61zM505 733l194 -638l183 637h58l-220 -736h-49l-193 625l-187 -625h-48l-229 736h64l192 -637l184 638h51z" />
    <glyph glyph-name="wcircumflex" unicode="&#x175;" horiz-adv-x="760" 
d="M364 744h51l111 -148h-58l-78 105l-79 -105h-58zM405 520l150 -431l140 431h54l-178 -520h-38l-152 425l-143 -425h-39l-188 520h60l150 -431l139 431h45z" />
    <glyph glyph-name="Ycircumflex" unicode="&#x176;" horiz-adv-x="596" 
d="M275 928h53l117 -120h-61l-82 88l-83 -88h-60zM308 376l210 357h65l-248 -417v-316h-60v318l-262 415h71z" />
    <glyph glyph-name="ycircumflex" unicode="&#x177;" horiz-adv-x="495" 
d="M328 595l-78 105l-78 -105h-58l110 148h52l110 -148h-58zM425 520h60l-251 -628q-28 -72 -60 -104t-89 -32q-52 0 -82 25l23 47q10 -8 26.5 -13.5t32.5 -5.5q34 0 57 23t46 81l33 80l-213 527h66l177 -454z" />
    <glyph glyph-name="Ydieresis" unicode="&#x178;" horiz-adv-x="596" 
d="M174.5 853q-12.5 11 -12.5 27q0 15 12 26t29 11q18 0 30 -11t12 -26q0 -16 -12 -27t-29 -11t-29.5 11zM371 853q-12 11 -12 27q0 15 12 26t29 11t29.5 -11t12.5 -26q0 -16 -12 -27t-30 -11q-17 0 -29 11zM308 376l210 357h65l-248 -417v-316h-60v318l-262 415h71z" />
    <glyph glyph-name="Zacute" unicode="&#x179;" horiz-adv-x="570" 
d="M276 809l83 119h63l-96 -119h-50zM532 732v-29l-420 -649h433v-54h-516v30l419 649h-389v53h473z" />
    <glyph glyph-name="zacute" unicode="&#x17a;" horiz-adv-x="464" 
d="M205 595l80 148h64l-94 -148h-50zM416 520v-30l-300 -441h311v-49h-390v32l301 440h-277v48h355z" />
    <glyph glyph-name="Zdotaccent" unicode="&#x17b;" horiz-adv-x="570" 
d="M266 854q-12 11 -12 26t12 26t29 11q18 0 30 -11t12 -26t-12.5 -26t-29.5 -11t-29 11zM532 732v-29l-420 -649h433v-54h-516v30l419 649h-389v53h473z" />
    <glyph glyph-name="zdotaccent" unicode="&#x17c;" horiz-adv-x="464" 
d="M205.5 646.5q-12.5 12.5 -12.5 29.5t12.5 30t29.5 13t29.5 -13t12.5 -30t-12.5 -29.5t-29.5 -12.5t-29.5 12.5zM416 520v-30l-300 -441h311v-49h-390v32l301 440h-277v48h355z" />
    <glyph glyph-name="Zcaron" unicode="&#x17d;" horiz-adv-x="570" 
d="M213 928l82 -83l82 83h61l-116 -119h-54l-116 119h61zM532 732v-29l-420 -649h433v-54h-516v30l419 649h-389v53h473z" />
    <glyph glyph-name="zcaron" unicode="&#x17e;" horiz-adv-x="464" 
d="M157 743l78 -106l77 106h58l-110 -148h-51l-110 148h58zM416 520v-30l-300 -441h311v-49h-390v32l301 440h-277v48h355z" />
    <glyph glyph-name="longs" unicode="&#x17f;" horiz-adv-x="327" 
d="M317.5 763.5q22.5 -7.5 36.5 -18.5l-22 -46q-26 19 -61 19q-44 0 -70.5 -32.5t-26.5 -106.5v-579h-57v472h-89v49h89v60q0 97 44 143.5t108 46.5q26 0 48.5 -7.5z" />
    <glyph glyph-name="uni018F" unicode="&#x18f;" horiz-adv-x="696" 
d="M495.5 698.5q69.5 -44.5 107 -130t37.5 -203.5q0 -117 -37.5 -201.5t-105 -129t-156.5 -44.5q-88 0 -152.5 42.5t-98.5 115t-34 161.5q0 35 4 64h517q-4 157 -67.5 236t-178.5 79q-142 0 -208 -126l-44 30q34 74 101.5 112.5t152.5 38.5q93 0 162.5 -44.5zM505.5 115
q61.5 70 69.5 205h-456q-4 -80 22 -142.5t78 -97.5t124 -35q101 0 162.5 70z" />
    <glyph glyph-name="florin" unicode="&#x192;" 
d="M388.5 658q-27.5 -32 -41.5 -110l-4 -27h155v-49h-164l-53 -297q-17 -100 -56.5 -142.5t-104.5 -42.5q-60 0 -98 31l27 45q30 -22 68 -22q43 0 67.5 32t39.5 113l50 283h-117v49h125l6 34q18 102 61.5 145t109.5 43q31 0 54.5 -8.5t37.5 -21.5l-28 -44q-26 21 -64 21
q-43 0 -70.5 -32z" />
    <glyph glyph-name="Ohorn" unicode="&#x1a0;" horiz-adv-x="753" 
d="M655.5 561.5q41.5 -83.5 41.5 -194.5t-41.5 -196.5t-115 -133t-164.5 -47.5t-164 47.5t-114.5 133t-41.5 196.5q0 110 42 195.5t116.5 133t169.5 47.5q36 0 79 -5q65 -5 84 -5q49 0 68.5 14t19.5 59q0 25 -7 53h52q6 -31 6 -56q0 -47 -15 -72t-42 -33.5t-71 -8.5h-18
q74 -44 115.5 -127.5zM511.5 86q58.5 41 90.5 114t32 167t-32 167.5t-91 114t-135 40.5t-134.5 -41t-90.5 -114t-32 -167t32 -167.5t90 -114t135 -40.5t135.5 41z" />
    <glyph glyph-name="ohorn" unicode="&#x1a1;" horiz-adv-x="586" 
d="M505.5 387.5q27.5 -55.5 27.5 -127.5q0 -78 -33 -139.5t-87.5 -96t-118.5 -34.5t-119 34t-87.5 96t-32.5 140q0 79 33 140.5t90 96t125 34.5q26 0 70 -6q42 -6 63 -6q35 0 49.5 15t14.5 60q0 29 -6 53h51q7 -29 7 -56q0 -47 -13 -72t-36.5 -33.5t-60.5 -8.5h-11
q47 -34 74.5 -89.5zM384.5 70.5q40.5 26.5 64.5 75.5t24 114t-24 114.5t-64.5 76t-90.5 26.5q-49 0 -90.5 -26.5t-65.5 -76t-24 -114.5t24 -114t65.5 -75.5t90.5 -26.5q50 0 90.5 26.5z" />
    <glyph glyph-name="Uhorn" unicode="&#x1af;" horiz-adv-x="708" 
d="M704 717q-25 -24 -79 -27v-404q0 -90 -32 -156.5t-93.5 -103t-145.5 -36.5t-145.5 36.5t-93.5 103t-32 156.5v446h59v-436q0 -119 55 -185t157 -66q101 0 156 66t55 185v436h22q50 0 70 14.5t20 58.5q0 29 -6 53h52q6 -31 6 -56q0 -61 -25 -85z" />
    <glyph glyph-name="uhorn" unicode="&#x1b0;" horiz-adv-x="587" 
d="M563.5 505q-24.5 -24 -79.5 -27v-478h-49q0 13 -1 20q0 49 -3 80q-23 -53 -70 -81.5t-105 -28.5q-79 0 -128.5 53t-49.5 151v327h56v-312q0 -80 36 -122.5t98 -42.5q42 0 78.5 19.5t59 59t22.5 94.5v304h35q41 2 57.5 17t16.5 56q0 24 -6 52h51q6 -25 6 -55
q0 -62 -24.5 -86z" />
    <glyph glyph-name="uni01CD" unicode="&#x1cd;" horiz-adv-x="649" 
d="M242 928l83 -87l82 87h61l-117 -120h-53l-116 120h60zM345 732l291 -732h-67l-89 230h-320l-86 -230h-61l282 732h50zM460 284l-142 367l-138 -367h280z" />
    <glyph glyph-name="uni01CE" unicode="&#x1ce;" horiz-adv-x="540" 
d="M409 743l-110 -148h-51l-110 148h58l78 -105l77 105h58zM411 480.5q53 -50.5 53 -148.5v-332h-50q0 31 -2 81q-23 -43 -66.5 -67t-100.5 -24q-50 0 -92 18.5t-67.5 54t-25.5 85.5q0 76 62 119.5t161 43.5q58 0 124 -17v28q0 80 -35.5 118.5t-98.5 38.5q-50 0 -86 -22
t-57 -63l-44 25q22 51 73.5 81.5t116.5 30.5q82 0 135 -50.5zM407 246q-68 18 -124 18q-75 0 -119.5 -30t-44.5 -85q0 -52 37.5 -81t92.5 -29q66 0 112 39t46 107v61z" />
    <glyph glyph-name="uni01CF" unicode="&#x1cf;" horiz-adv-x="246" 
d="M41 928l83 -87l81 87h61l-116 -120h-54l-116 120h61zM153 0h-60v732h60v-732z" />
    <glyph glyph-name="uni01D0" unicode="&#x1d0;" horiz-adv-x="227" 
d="M36 744l78 -106l77 106h58l-110 -148h-51l-110 148h58zM86 0v520h56v-520h-56z" />
    <glyph glyph-name="uni01D1" unicode="&#x1d1;" horiz-adv-x="753" 
d="M294 928l82 -87l82 87h61l-117 -120h-53l-116 120h61zM97.5 564.5q41.5 85.5 114.5 132t164 46.5q92 0 165 -46.5t114.5 -132t41.5 -197.5q0 -113 -41.5 -198.5t-114.5 -132t-165 -46.5q-91 0 -164 46.5t-114.5 132t-41.5 198.5q0 112 41.5 197.5zM151 199
q32 -73 90 -113.5t135 -40.5t136 40.5t91 113.5t32 168t-32.5 168t-91 113.5t-135.5 40.5q-76 0 -134.5 -40.5t-90.5 -113.5t-32 -168t32 -168z" />
    <glyph glyph-name="uni01D2" unicode="&#x1d2;" horiz-adv-x="588" 
d="M216 743l78 -105l77 105h58l-110 -148h-51l-110 148h58zM87.5 400q32.5 62 87.5 96.5t119 34.5t118.5 -34t87.5 -96t33 -141q0 -78 -33 -139.5t-87.5 -96t-118.5 -34.5t-119 34t-87.5 96t-32.5 140t32.5 140zM138 146q24 -49 65.5 -75.5t90.5 -26.5q50 0 90.5 26.5
t64.5 75.5t24 114t-24 114.5t-64.5 76t-90.5 26.5q-49 0 -90.5 -26.5t-65.5 -76t-24 -114.5t24 -114z" />
    <glyph glyph-name="uni01D3" unicode="&#x1d3;" horiz-adv-x="708" 
d="M271 928l83 -87l82 87h61l-117 -120h-53l-117 120h61zM565 732h60v-446q0 -90 -32 -156.5t-93.5 -103t-145.5 -36.5t-145.5 36.5t-93.5 103t-32 156.5v446h59v-436q0 -119 55 -185t157 -66q101 0 156 66t55 185v436z" />
    <glyph glyph-name="uni01D4" unicode="&#x1d4;" horiz-adv-x="570" 
d="M204 744l78 -106l78 106h58l-111 -148h-51l-110 148h58zM428 521h56v-521h-49q0 13 -1 20q0 49 -3 80q-23 -53 -70 -81.5t-105 -28.5q-79 0 -128.5 53t-49.5 151v327h56v-312q0 -80 36 -122.5t98 -42.5q42 0 78.5 19.5t59 59t22.5 94.5v304z" />
    <glyph glyph-name="uni01D5" unicode="&#x1d5;" horiz-adv-x="708" 
d="M208 890v29h292v-29h-292zM226.5 803.5q-12.5 8.5 -12.5 21.5q0 12 12 20t29 8q18 0 30 -8t12 -20q0 -13 -12 -21.5t-29 -8.5t-29.5 8.5zM423 803.5q-12 8.5 -12 21.5q0 12 12 20t29 8t29.5 -8t12.5 -20q0 -13 -12 -21.5t-30 -8.5q-17 0 -29 8.5zM565 732h60v-446
q0 -90 -32 -156.5t-93.5 -103t-145.5 -36.5t-145.5 36.5t-93.5 103t-32 156.5v446h59v-436q0 -119 55 -185t157 -66q101 0 156 66t55 185v436z" />
    <glyph glyph-name="uni01D6" unicode="&#x1d6;" horiz-adv-x="570" 
d="M136 803v50h293v-50h-293zM154.5 643q-12.5 12 -12.5 30t12.5 30.5t29.5 12.5t29.5 -12.5t12.5 -30.5t-12 -30t-30 -12q-17 0 -29.5 12zM351.5 643q-12.5 12 -12.5 30t12 30.5t29 12.5q18 0 30 -12.5t12 -30.5t-12 -30t-29 -12t-29.5 12zM428 521h56v-521h-49q0 13 -1 20
q0 49 -3 80q-23 -53 -70 -81.5t-105 -28.5q-79 0 -128.5 53t-49.5 151v327h56v-312q0 -80 36 -122.5t98 -42.5q42 0 78.5 19.5t59 59t22.5 94.5v304z" />
    <glyph glyph-name="uni01D7" unicode="&#x1d7;" horiz-adv-x="708" 
d="M334 865l82 63h64l-94 -63h-52zM226.5 803q-12.5 8 -12.5 20q0 11 12 19t29 8q18 0 30 -8t12 -19q0 -12 -12 -20t-29 -8t-29.5 8zM423 803q-12 8 -12 20q0 11 12 19t29 8t29.5 -8t12.5 -19q0 -12 -12 -20t-30 -8q-17 0 -29 8zM565 732h60v-446q0 -90 -32 -156.5
t-93.5 -103t-145.5 -36.5t-145.5 36.5t-93.5 103t-32 156.5v446h59v-436q0 -119 55 -185t157 -66q101 0 156 66t55 185v436z" />
    <glyph glyph-name="uni01D8" unicode="&#x1d8;" horiz-adv-x="570" 
d="M252 762l76 132h63l-88 -132h-51zM154.5 643q-12.5 12 -12.5 30t12.5 30.5t29.5 12.5t29.5 -12.5t12.5 -30.5t-12 -30t-30 -12q-17 0 -29.5 12zM351.5 643q-12.5 12 -12.5 30t12 30.5t29 12.5q18 0 30 -12.5t12 -30.5t-12 -30t-29 -12t-29.5 12zM428 521h56v-521h-49
q0 13 -1 20q0 49 -3 80q-23 -53 -70 -81.5t-105 -28.5q-79 0 -128.5 53t-49.5 151v327h56v-312q0 -80 36 -122.5t98 -42.5q42 0 78.5 19.5t59 59t22.5 94.5v304z" />
    <glyph glyph-name="uni01D9" unicode="&#x1d9;" horiz-adv-x="708" 
d="M497 928l-117 -63h-53l-117 63h71l73 -39l72 39h71zM226.5 803q-12.5 8 -12.5 20q0 11 12.5 19t28.5 8q18 0 30 -8t12 -19q0 -12 -12 -20t-29 -8t-29.5 8zM423 803q-12 8 -12 20q0 11 12 19t29 8t29.5 -8t12.5 -19q0 -12 -12 -20t-30 -8q-17 0 -29 8zM565 732h60v-446
q0 -90 -32 -156.5t-93.5 -103t-145.5 -36.5t-145.5 36.5t-93.5 103t-32 156.5v446h59v-436q0 -119 55 -185t157 -66q101 0 156 66t55 185v436z" />
    <glyph glyph-name="uni01DA" unicode="&#x1da;" horiz-adv-x="570" 
d="M205 894l77 -93l77 93h59l-111 -132h-51l-110 132h59zM154.5 643q-12.5 12 -12.5 30t12.5 30.5t29.5 12.5t29.5 -12.5t12.5 -30.5t-12 -30t-30 -12q-17 0 -29.5 12zM351.5 643q-12.5 12 -12.5 30t12 30.5t29 12.5q18 0 30 -12.5t12 -30.5t-12 -30t-29 -12t-29.5 12z
M428 521h56v-521h-49q0 13 -1 20q0 49 -3 80q-23 -53 -70 -81.5t-105 -28.5q-79 0 -128.5 53t-49.5 151v327h56v-312q0 -80 36 -122.5t98 -42.5q42 0 78.5 19.5t59 59t22.5 94.5v304z" />
    <glyph glyph-name="uni01DB" unicode="&#x1db;" horiz-adv-x="708" 
d="M228 928h64l81 -63h-51zM226.5 803q-12.5 8 -12.5 20q0 11 12 19t29 8q18 0 30 -8t12 -19q0 -12 -12 -20t-29 -8t-29.5 8zM423 803q-12 8 -12 20q0 11 12 19t29 8t29.5 -8t12.5 -19q0 -12 -12 -20t-30 -8q-17 0 -29 8zM565 732h60v-446q0 -90 -32 -156.5t-93.5 -103
t-145.5 -36.5t-145.5 36.5t-93.5 103t-32 156.5v446h59v-436q0 -119 55 -185t157 -66q101 0 156 66t55 185v436z" />
    <glyph glyph-name="uni01DC" unicode="&#x1dc;" horiz-adv-x="570" 
d="M174 894h63l76 -132h-51zM154.5 643q-12.5 12 -12.5 30t12.5 30.5t29.5 12.5t29.5 -12.5t12.5 -30.5t-12 -30t-30 -12q-17 0 -29.5 12zM351.5 643q-12.5 12 -12.5 30t12 30.5t29 12.5q18 0 30 -12.5t12 -30.5t-12 -30t-29 -12t-29.5 12zM428 521h56v-521h-49q0 13 -1 20
q0 49 -3 80q-23 -53 -70 -81.5t-105 -28.5q-79 0 -128.5 53t-49.5 151v327h56v-312q0 -80 36 -122.5t98 -42.5q42 0 78.5 19.5t59 59t22.5 94.5v304z" />
    <glyph glyph-name="uni01E5" unicode="&#x1e5;" horiz-adv-x="614" 
d="M86 405.5q31 61.5 82.5 93.5t111.5 32q59 0 108 -32t74 -93q2 28 4 115h49v-236h86v-49h-86v-215q0 -141 -67 -203t-164 -62q-72 0 -128.5 30.5t-80.5 87.5l46 27q45 -92 164 -92q174 0 174 214v86q-25 -59 -72.5 -89t-106.5 -30q-60 0 -111.5 32.5t-82.5 94t-31 144.5
t31 144.5zM402 90.5q50 46.5 56 145.5h-140v49h140q-6 99 -56 145.5t-116 46.5q-49 0 -88 -25t-61.5 -74t-22.5 -117q0 -69 22.5 -118t61.5 -74t88 -25q66 0 116 46.5z" />
    <glyph glyph-name="gcaron" unicode="&#x1e7;" horiz-adv-x="601" 
d="M207 744l79 -106l77 106h58l-110 -148h-51l-111 148h58zM515 521v-500q0 -141 -67 -203t-164 -62q-72 0 -128.5 30.5t-80.5 87.5l46 27q45 -92 164 -92q174 0 174 214v86q-25 -59 -72.5 -89t-106.5 -30q-60 0 -111.5 32.5t-82.5 94t-31 144.5t31 144.5t82.5 93.5
t111.5 32q59 0 108 -32t74 -93q2 28 4 115h49zM369.5 65.5q39.5 21.5 64.5 70t25 125.5q0 76 -25 124.5t-64.5 70t-83.5 21.5q-49 0 -88 -25t-61.5 -74t-22.5 -117q0 -69 22.5 -118t61.5 -74t88 -25q44 0 83.5 21.5z" />
    <glyph glyph-name="uni01E9" unicode="&#x1e9;" horiz-adv-x="501" 
d="M37 928l77 -72l76 72h59l-110 -102h-51l-110 102h59zM275 301l223 -301h-72l-191 258l-93 -102v-156h-56v761h56v-531l264 290h70z" />
    <glyph glyph-name="uni01EF" unicode="&#x1ef;" horiz-adv-x="484" 
d="M150 744l78 -106l78 106h57l-110 -148h-51l-110 148h58zM200 224q85 2 142.5 -28t85.5 -82.5t28 -118.5q0 -70 -30 -124.5t-84 -84.5t-122 -30q-79 0 -139.5 40.5t-82.5 117.5l48 27q20 -64 67 -98t108 -34q51 0 91 24t62 66.5t22 96.5q0 78 -50 128.5t-153 50.5
q-27 0 -65 -5v46l222 256h-320v49h403v-36z" />
    <glyph glyph-name="uni01F0" unicode="&#x1f0;" horiz-adv-x="229" 
d="M37 744l78 -106l77 106h58l-110 -148h-51l-110 148h58zM-62 -234q-26 10 -42 29l34 41q25 -27 62 -27q94 0 94 140v571h57v-574q0 -97 -42.5 -143.5t-107.5 -46.5q-29 0 -55 10z" />
    <glyph glyph-name="uni01F9" unicode="&#x1f9;" horiz-adv-x="569" 
d="M169 744h64l80 -148h-50zM443.5 478q49.5 -53 49.5 -152v-326h-57v311q0 80 -35.5 123t-98.5 43q-42 0 -78.5 -19.5t-59 -58.5t-22.5 -94v-305h-56v520h49q3 -82 4 -100q23 53 69.5 82t105.5 29q80 0 129.5 -53z" />
    <glyph glyph-name="Aringacute" unicode="&#x1fa;" horiz-adv-x="649" 
d="M295 876l78 52h63l-90 -52h-51zM262.5 843q24.5 11 62.5 11q36 0 60 -11t24 -27q0 -17 -23.5 -27.5t-60.5 -10.5q-38 0 -62.5 10.5t-24.5 27.5q0 16 24.5 27zM291 802.5q13 -5.5 34 -5.5q20 0 32.5 5.5t12.5 13.5t-12.5 13t-32.5 5q-21 0 -34 -5t-13 -13t13 -13.5z
M345 732l291 -732h-67l-89 230h-320l-86 -230h-61l282 732h50zM460 284l-142 367l-138 -367h280z" />
    <glyph glyph-name="aringacute" unicode="&#x1fb;" horiz-adv-x="540" 
d="M321 920h64l-91 -117h-51zM212 609q-25 24 -25 62q0 36 25 59.5t62 23.5q36 0 59.5 -23.5t23.5 -59.5q0 -38 -23.5 -62t-59.5 -24q-37 0 -62 24zM238 708q-14 -14 -14 -37t14 -38t36 -15q21 0 34.5 15t13.5 38t-13 37t-35 14t-36 -14zM411 480.5q53 -50.5 53 -148.5v-332
h-50q0 31 -2 81q-23 -43 -66.5 -67t-100.5 -24q-50 0 -92 18.5t-67.5 54t-25.5 85.5q0 76 62 119.5t161 43.5q58 0 124 -17v28q0 80 -35.5 118.5t-98.5 38.5q-50 0 -86 -22t-57 -63l-44 25q22 51 73.5 81.5t116.5 30.5q82 0 135 -50.5zM407 246q-68 18 -124 18
q-75 0 -119.5 -30t-44.5 -85q0 -52 37.5 -81t92.5 -29q66 0 112 39t46 107v61z" />
    <glyph glyph-name="AEacute" unicode="&#x1fc;" horiz-adv-x="982" 
d="M588 809l82 119h63l-95 -119h-50zM883 353h-327v-300h374v-53h-433v236h-274l-153 -236h-65l477 733h437v-53h-363v-274h327v-53zM497 289v370l-240 -370h240z" />
    <glyph glyph-name="aeacute" unicode="&#x1fd;" horiz-adv-x="892" 
d="M507 743h64l-93 -148h-51zM755.5 500.5q47.5 -30.5 73 -83t25.5 -116.5q0 -22 -3 -45h-381q3 -103 54 -158t131 -55q45 0 80.5 19t55.5 57l44 -25q-21 -50 -71.5 -77t-111.5 -27q-69 0 -124 36t-83 101q-15 -66 -67.5 -101.5t-126.5 -35.5q-81 0 -136 40.5t-55 116.5
t59.5 120t160.5 44q64 0 132 -17v22q0 80 -36 121.5t-104 41.5q-50 0 -85.5 -22t-56.5 -64l-44 25q22 52 72.5 82.5t116.5 30.5q65 0 111.5 -33t61.5 -96q27 62 79 95.5t117 33.5q64 0 111.5 -30.5zM793 303q1 78 -40 127t-111 49q-67 0 -114 -46t-56 -130h321zM412 246
q-73 19 -133 19q-77 0 -118.5 -31t-41.5 -86q0 -53 38 -81t96 -28q68 0 113.5 40t45.5 114v53z" />
    <glyph glyph-name="Oslashacute" unicode="&#x1fe;" horiz-adv-x="756" 
d="M359 808l83 120h63l-96 -120h-50zM636 766h64l-93 -127q44 -51 68 -120.5t24 -151.5q0 -110 -41.5 -196t-114.5 -133.5t-164 -47.5q-110 0 -192 69l-67 -92h-63l92 128q-44 51 -67.5 120t-23.5 152q0 110 41.5 195.5t115 133t164.5 47.5q108 0 191 -69zM137.5 243.5
q16.5 -56.5 46.5 -99.5l353 485q-66 60 -158 60q-76 0 -135 -40.5t-91 -114t-32 -167.5q0 -67 16.5 -123.5zM619.5 490.5q-16.5 56.5 -47.5 98.5l-352 -484q66 -60 159 -60q76 0 134.5 41t90.5 114t32 167q0 67 -16.5 123.5z" />
    <glyph glyph-name="oslashacute" unicode="&#x1ff;" horiz-adv-x="595" 
d="M263 595l81 148h64l-94 -148h-51zM473 554h60l-71 -99q33 -36 52 -86t19 -109q0 -78 -33 -139.5t-87.5 -96t-118.5 -34.5q-71 0 -131 44l-48 -67h-60l70 99q-33 36 -51.5 85.5t-18.5 108.5q0 78 32.5 140t87.5 96.5t119 34.5q71 0 131 -44zM159 114l235 329
q-43 34 -100 34q-49 0 -90.5 -26.5t-65.5 -76t-24 -114.5q0 -88 45 -146zM429 408l-235 -329q43 -35 100 -35q50 0 90.5 26.5t64.5 75.5t24 114q0 90 -44 148z" />
    <glyph glyph-name="uni0218" unicode="&#x218;" horiz-adv-x="550" 
d="M456.5 45.5q-61.5 -55.5 -167.5 -55.5q-98 0 -170 46.5t-95 125.5l48 28q24 -68 81.5 -106.5t135.5 -38.5t122.5 38.5t44.5 105.5q0 51 -26 83t-64.5 50t-103.5 38q-69 22 -110 41.5t-69.5 56t-28.5 94.5q0 61 30.5 104t83 65t115.5 22q90 0 148.5 -41.5t73.5 -103.5
l-48 -28q-17 54 -61.5 86.5t-114.5 32.5q-72 0 -118 -35t-46 -97q0 -43 23.5 -70t58.5 -42.5t95 -34.5q72 -22 117 -43.5t76 -62.5t31 -109q0 -94 -61.5 -149.5zM300.5 -74.5q12.5 -14.5 12.5 -45.5q0 -42 -25 -71t-71 -38v29q55 17 60 65q-3 -1 -9 -1q-17 0 -26.5 11
t-9.5 27q0 17 10.5 27.5t26.5 10.5q19 0 31.5 -14.5z" />
    <glyph glyph-name="uni0219" unicode="&#x219;" horiz-adv-x="447" 
d="M133 346.5q17 -18.5 42.5 -29t68.5 -23.5q53 -16 86 -31.5t56.5 -45t23.5 -76.5q0 -68 -50 -109.5t-129 -41.5q-70 0 -123 32.5t-70 91.5l44 25q17 -48 56.5 -72.5t92.5 -24.5q54 0 87 25.5t33 68.5q0 33 -18.5 54t-46 32.5t-73.5 25.5q-52 16 -83 30.5t-52.5 41
t-21.5 68.5q0 65 50 104t124 39q63 0 109 -28.5t63 -77.5l-44 -26q-14 37 -49 58.5t-81 21.5q-49 0 -80.5 -23t-31.5 -63q0 -28 17 -46.5zM256.5 -74.5q12.5 -14.5 12.5 -45.5q0 -41 -25 -70.5t-71 -38.5v29q55 17 60 65q-3 -1 -9 -1q-17 0 -26.5 11t-9.5 27q0 17 10.5 27.5
t26.5 10.5q19 0 31.5 -14.5z" />
    <glyph glyph-name="uni021A" unicode="&#x21a;" horiz-adv-x="548" 
d="M244 679h-229v53h518v-53h-230v-679h-59v679zM302.5 -74.5q12.5 -14.5 12.5 -45.5q0 -42 -25 -71t-71 -38v29q55 17 60 65q-3 -1 -9 -1q-17 0 -26.5 11t-9.5 27q0 17 10.5 27.5t26.5 10.5q19 0 31.5 -14.5z" />
    <glyph glyph-name="uni021B" unicode="&#x21b;" horiz-adv-x="346" 
d="M332 16q-38 -26 -92 -26q-62 0 -99 35.5t-37 123.5v323h-86v49h86v144h57v-144h147v-49h-147v-316q0 -61 22 -86.5t62 -25.5q35 0 68 18zM251.5 -74.5q12.5 -14.5 12.5 -45.5q0 -41 -25 -70.5t-71 -38.5v29q55 17 60 65q-3 -1 -9 -1q-17 0 -26.5 11t-9.5 27
q0 17 10.5 27.5t26.5 10.5q19 0 31.5 -14.5z" />
    <glyph glyph-name="uni021F" unicode="&#x21f;" horiz-adv-x="569" 
d="M37 928l77 -72l76 72h59l-110 -102h-51l-110 102h59zM443 478q50 -53 50 -152v-326h-57v311q0 80 -35.5 123t-98.5 43q-42 0 -78.5 -19.5t-59 -58.5t-22.5 -94v-305h-56v761h56v-335q24 50 69.5 77.5t102.5 27.5q79 0 129 -53z" />
    <glyph glyph-name="uni0237" unicode="&#x237;" horiz-adv-x="229" 
d="M-62 -234q-26 10 -42 29l34 41q25 -27 62 -27q94 0 94 140v571h57v-574q0 -97 -42.5 -143.5t-107.5 -46.5q-29 0 -55 10z" />
    <glyph glyph-name="uni0251" unicode="&#x251;" horiz-adv-x="601" 
d="M516 521v-521h-50q-2 90 -4 116q-24 -62 -73.5 -94t-108.5 -32q-60 0 -111.5 32t-82.5 93.5t-31 145.5q0 83 31 144t82.5 93.5t111.5 32.5q59 0 108 -32t74 -94q2 26 4 116h50zM369.5 65.5q39.5 21.5 64.5 70t25 125.5q0 76 -25 124.5t-64.5 70t-83.5 21.5q-49 0 -88 -25
t-61.5 -74t-22.5 -117q0 -69 22.5 -118t61.5 -74t88 -25q44 0 83.5 21.5z" />
    <glyph glyph-name="uni0259" unicode="&#x259;" horiz-adv-x="535" 
d="M360 498.5q55 -32.5 87.5 -94.5t32.5 -147q0 -82 -31.5 -142.5t-85 -92.5t-117.5 -32t-111.5 31t-73 84t-25.5 117q0 22 3 44h382q-3 102 -54 157.5t-132 55.5q-45 0 -80.5 -19t-55.5 -57l-44 25q21 50 71.5 76.5t111.5 26.5q67 0 122 -32.5zM362 88.5q47 45.5 56 130.5
h-321q-1 -79 40 -127.5t111 -48.5q67 0 114 45.5z" />
    <glyph glyph-name="uni0261" unicode="&#x261;" horiz-adv-x="601" 
d="M515 521v-500q0 -141 -67 -203t-164 -62q-72 0 -128.5 30.5t-80.5 87.5l46 27q45 -92 164 -92q174 0 174 214v86q-25 -59 -72.5 -89t-106.5 -30q-60 0 -111.5 32.5t-82.5 94t-31 144.5t31 144.5t82.5 93.5t111.5 32q59 0 108 -32t74 -93q2 28 4 115h49zM369.5 65.5
q39.5 21.5 64.5 70t25 125.5q0 76 -25 124.5t-64.5 70t-83.5 21.5q-49 0 -88 -25t-61.5 -74t-22.5 -117q0 -69 22.5 -118t61.5 -74t88 -25q44 0 83.5 21.5z" />
    <glyph glyph-name="uni0292" unicode="&#x292;" horiz-adv-x="484" 
d="M200 224q85 2 142.5 -28t85.5 -82.5t28 -118.5q0 -70 -30 -124.5t-84 -84.5t-122 -30q-79 0 -139.5 40.5t-82.5 117.5l48 27q20 -64 67 -98t108 -34q51 0 91 24t62 66.5t22 96.5q0 78 -50 128.5t-153 50.5q-27 0 -65 -5v46l222 256h-320v49h403v-36z" />
    <glyph glyph-name="uni02BB" unicode="&#x2bb;" horiz-adv-x="205" 
d="M63 612q-13 17 -13 53q0 55 27 94t76 50v-33q-62 -20 -65 -97q3 1 10 1q18 0 29 -12t11 -30t-11.5 -30.5t-29.5 -12.5q-21 0 -34 17z" />
    <glyph glyph-name="uni02BC" unicode="&#x2bc;" horiz-adv-x="227" 
d="M152 792q13 -17 13 -53q0 -55 -27.5 -94t-76.5 -50v33q63 20 66 97q-3 -1 -10 -1q-18 0 -29 12t-11 30t11.5 30.5t29.5 12.5q21 0 34 -17z" />
    <glyph glyph-name="circumflex" unicode="&#x2c6;" horiz-adv-x="378" 
d="M163 744h52l110 -148h-58l-78 105l-78 -105h-58z" />
    <glyph glyph-name="caron" unicode="&#x2c7;" horiz-adv-x="378" 
d="M111 744l78 -106l78 106h58l-111 -148h-51l-110 148h58z" />
    <glyph glyph-name="uni02C9" unicode="&#x2c9;" horiz-adv-x="377" 
d="M42 860v51h293v-51h-293z" />
    <glyph glyph-name="uni02CA" unicode="&#x2ca;" horiz-adv-x="280" 
d="M45 808l83 120h63l-96 -120h-50z" />
    <glyph glyph-name="uni02CB" unicode="&#x2cb;" horiz-adv-x="280" 
d="M45 928h63l83 -120h-51z" />
    <glyph glyph-name="breve" unicode="&#x2d8;" horiz-adv-x="423" 
d="M108 636.5q-39 38.5 -39 103.5h53q2 -45 25.5 -71t63.5 -26q42 0 65.5 25.5t25.5 71.5h52q0 -65 -39 -103.5t-104 -38.5q-64 0 -103 38.5z" />
    <glyph glyph-name="dotaccent" unicode="&#x2d9;" horiz-adv-x="195" 
d="M68 647.5q-12 12.5 -12 29.5t12.5 30t28.5 13q18 0 30 -12.5t12 -30.5q0 -17 -12.5 -29.5t-29.5 -12.5t-29 12.5z" />
    <glyph glyph-name="ring" unicode="&#x2da;" horiz-adv-x="301" 
d="M85 752q27 26 67 26q39 0 65 -26t26 -67q0 -40 -26 -66.5t-65 -26.5t-66.5 26.5t-27.5 66.5q0 41 27 67zM113 645q15 -16 39 -16q23 0 37.5 16t14.5 40q0 25 -14.5 41t-37.5 16q-24 0 -39 -16t-15 -41q0 -24 15 -40z" />
    <glyph glyph-name="ogonek" unicode="&#x2db;" horiz-adv-x="328" 
d="M275 -193q-41 -51 -107 -51q-48 0 -81.5 26.5t-33.5 78.5q0 51 33.5 89.5t87.5 68.5l39 -19q-56 -34 -83 -64.5t-27 -69.5q0 -33 18.5 -49t48.5 -16q44 0 81 39z" />
    <glyph glyph-name="tilde" unicode="&#x2dc;" horiz-adv-x="410" 
d="M53 617q2 49 26 81t64 32q25 0 41.5 -11.5t33.5 -32.5q13 -16 23.5 -24t23.5 -8q19 0 30 17.5t14 46.5h48q-2 -49 -26.5 -81t-63.5 -32q-25 0 -41.5 11.5t-34.5 32.5q-14 16 -23.5 23.5t-22.5 7.5q-36 0 -45 -63h-47z" />
    <glyph glyph-name="hungarumlaut" unicode="&#x2dd;" horiz-adv-x="502" 
d="M52 596l81 148h62l-93 -148h-50zM183 596l81 148h62l-93 -148h-50z" />
    <glyph glyph-name="uni02F3" unicode="&#x2f3;" horiz-adv-x="600" 
d="M131 131.5q18 31.5 49 50t69 18.5q36 0 67 -18.5t49 -50.5t18 -69q0 -38 -17.5 -69t-48.5 -49.5t-68 -18.5q-38 0 -69 18.5t-49 49.5t-18 69t18 69.5zM191.5 2.5q22.5 -23.5 57.5 -23.5q34 0 55.5 23.5t21.5 59.5t-22 60t-55 24q-35 0 -57.5 -24t-22.5 -60t22.5 -59.5z
" />
    <glyph glyph-name="gravecomb" unicode="&#x300;" horiz-adv-x="0" 
d="M-203 744h64l80 -148h-50z" />
    <glyph glyph-name="acutecomb" unicode="&#x301;" horiz-adv-x="0" 
d="M-203 596l81 148h63l-93 -148h-51z" />
    <glyph glyph-name="uni0302" unicode="&#x302;" horiz-adv-x="0" 
d="M-215 744h52l110 -148h-58l-78 105l-78 -105h-58z" />
    <glyph glyph-name="tildecomb" unicode="&#x303;" horiz-adv-x="0" 
d="M-357 617q2 49 26 81t64 32q25 0 41.5 -11.5t33.5 -32.5q13 -16 23.5 -24t23.5 -8q19 0 30 17.5t14 46.5h48q-2 -49 -26.5 -81t-63.5 -32q-25 0 -41.5 11.5t-34.5 32.5q-14 16 -23.5 23.5t-22.5 7.5q-36 0 -45 -63h-47z" />
    <glyph glyph-name="uni0304" unicode="&#x304;" horiz-adv-x="0" 
d="M-335 647v51h293v-51h-293z" />
    <glyph glyph-name="uni0306" unicode="&#x306;" horiz-adv-x="0" 
d="M-315 636.5q-39 38.5 -39 103.5h53q2 -45 25.5 -71t63.5 -26q42 0 65.5 25.5t25.5 71.5h52q0 -65 -39 -103.5t-104 -38.5q-64 0 -103 38.5z" />
    <glyph glyph-name="uni0307" unicode="&#x307;" horiz-adv-x="0" 
d="M-127 647.5q-12 12.5 -12 29.5t12.5 30t28.5 13q18 0 30 -12.5t12 -30.5q0 -17 -12.5 -29.5t-29.5 -12.5t-29 12.5z" />
    <glyph glyph-name="uni0308" unicode="&#x308;" horiz-adv-x="0" 
d="M-198 643q-12 12 -12 30t12 30.5t29 12.5t29.5 -12.5t12.5 -30.5t-12 -30t-30 -12q-17 0 -29 12zM-1.5 643q-12.5 12 -12.5 30t12 30.5t29 12.5q18 0 30 -12.5t12 -30.5t-12 -30t-29 -12t-29.5 12z" />
    <glyph glyph-name="hookabovecomb" unicode="&#x309;" horiz-adv-x="0" 
d="M-543 743q32 19 72 19q42 0 70 -21t28 -62q0 -37 -25 -62t-66 -38l-23 33q31 10 48 25t17 37t-15.5 34.5t-41.5 12.5q-29 0 -56 -16z" />
    <glyph glyph-name="uni030A" unicode="&#x30a;" horiz-adv-x="0" 
d="M-216 752q27 26 67 26q39 0 65 -26t26 -67q0 -40 -26 -66.5t-65 -26.5t-66.5 26.5t-27.5 66.5q0 41 27 67zM-188 645q15 -16 39 -16q23 0 37.5 16t14.5 40q0 25 -14.5 41t-37.5 16q-24 0 -39 -16t-15 -41q0 -24 15 -40z" />
    <glyph glyph-name="uni030C" unicode="&#x30c;" horiz-adv-x="0" 
d="M-267 744l78 -106l78 106h58l-111 -148h-51l-110 148h58z" />
    <glyph glyph-name="uni030F" unicode="&#x30f;" horiz-adv-x="0" 
d="M-548 744h63l80 -148h-49zM-417 744h62l81 -148h-50z" />
    <glyph glyph-name="dotbelowcomb" unicode="&#x323;" horiz-adv-x="0" 
d="M-123.5 -158q-12.5 13 -12.5 30t12.5 29.5t29.5 12.5t29 -12.5t12 -29.5t-12.5 -30t-28.5 -13q-17 0 -29.5 13z" />
    <glyph glyph-name="uni0326" unicode="&#x326;" horiz-adv-x="0" 
d="M-61.5 -74.5q12.5 -14.5 12.5 -45.5q0 -41 -25 -70.5t-71 -38.5v29q55 17 60 65q-3 -1 -9 -1q-17 0 -26.5 11t-9.5 27q0 17 10.5 27.5t26.5 10.5q19 0 31.5 -14.5z" />
    <glyph glyph-name="uni0327" unicode="&#x327;" horiz-adv-x="0" 
d="M-184 16h51l-35 -89q51 3 83 -17.5t32 -62.5q0 -44 -34 -67.5t-86 -23.5q-30 0 -67 10v43q33 -10 63 -10q34 0 54 11t20 35q0 21 -19 32t-52 11q-23 0 -44 -4l-5 29z" />
    <glyph glyph-name="uni0335" unicode="&#x335;" horiz-adv-x="0" 
d="M-335 637v50h293v-50h-293z" />
    <glyph glyph-name="uni0338" unicode="&#x338;" horiz-adv-x="0" 
d="M-438 -233l363 965h58l-363 -965h-58z" />
    <glyph glyph-name="uni037E" unicode="&#x37e;" horiz-adv-x="250" 
d="M99.5 457.5q-12.5 12.5 -12.5 30.5t12.5 30t29.5 12t29.5 -12t12.5 -30t-12.5 -30.5t-29.5 -12.5t-29.5 12.5zM160 56q13 -17 13 -53q0 -54 -27.5 -93.5t-76.5 -50.5v33q63 20 66 98q-3 -2 -10 -2q-18 0 -29 12.5t-11 30.5t11.5 30t29.5 12q21 0 34 -17z" />
    <glyph glyph-name="tonos" unicode="&#x384;" horiz-adv-x="246" 
d="M59 596l64 148h64l-77 -148h-51z" />
    <glyph glyph-name="dieresistonos" unicode="&#x385;" horiz-adv-x="494" 
d="M161 596l39 148h56l-53 -148h-42zM55 643q-12 12 -12 30t12 30.5t29 12.5t29.5 -12.5t12.5 -30.5t-12 -30t-30 -12q-17 0 -29 12zM296 643q-12 12 -12 30t12 30.5t29 12.5q18 0 30 -12.5t12 -30.5t-12 -30t-30 -12q-17 0 -29 12z" />
    <glyph glyph-name="Alphatonos" unicode="&#x386;" horiz-adv-x="649" 
d="M94 585l34 148h59l-46 -148h-47zM345 732l291 -732h-67l-89 230h-320l-86 -230h-61l282 732h50zM460 284l-142 367l-138 -367h280z" />
    <glyph glyph-name="anoteleia" unicode="&#x387;" horiz-adv-x="219" 
d="M80 332.5q-12 12.5 -12 29.5q0 18 12 30.5t29 12.5q18 0 30 -12.5t12 -30.5q0 -17 -12 -29.5t-30 -12.5q-17 0 -29 12.5z" />
    <glyph glyph-name="Epsilontonos" unicode="&#x388;" horiz-adv-x="652" 
d="M13 585l34 148h59l-46 -148h-47zM552 353h-326v-300h373v-53h-432v733h421v-53h-362v-274h326v-53z" />
    <glyph glyph-name="Etatonos" unicode="&#x389;" horiz-adv-x="802" 
d="M13 585l34 148h59l-46 -148h-47zM226 407h422v325h60v-732h-60v354h-422v-354h-59v732h59v-325z" />
    <glyph glyph-name="Iotatonos" unicode="&#x38a;" horiz-adv-x="319" 
d="M13 585l34 148h59l-46 -148h-47zM226 0h-59v732h59v-732z" />
    <glyph glyph-name="Omicrontonos" unicode="&#x38c;" horiz-adv-x="797" 
d="M141.5 564.5q41.5 85.5 114.5 132t165 46.5q91 0 164 -46.5t114.5 -132t41.5 -197.5q0 -113 -41.5 -198.5t-114.5 -132t-164 -46.5q-92 0 -165 46.5t-114.5 132t-41.5 198.5q0 112 41.5 197.5zM17 585l33 148h60l-46 -148h-47zM195 199q32 -73 90.5 -113.5t135.5 -40.5
t135 40.5t90 113.5t32 168t-32 168t-90.5 113.5t-134.5 40.5q-77 0 -135.5 -40.5t-90.5 -113.5t-32 -168t32 -168z" />
    <glyph glyph-name="Upsilontonos" unicode="&#x38e;" horiz-adv-x="710" 
d="M3 585l33 148h60l-46 -148h-47zM422 376l210 357h65l-248 -417v-316h-60v318l-262 415h71z" />
    <glyph glyph-name="Omegatonos" unicode="&#x38f;" horiz-adv-x="800" 
d="M749 54v-54h-265v62q90 44 140.5 125.5t50.5 197.5q0 92 -31.5 161t-88.5 106t-133 37t-133 -37t-88.5 -106t-31.5 -161q0 -116 50.5 -197t140.5 -126v-62h-264v54h187q-79 46 -127.5 129.5t-48.5 203.5q0 106 40.5 187t112 125t162.5 44t162.5 -44t112 -125t40.5 -187
q0 -120 -48.5 -203.5t-127.5 -129.5h188zM17 585l33 148h60l-46 -148h-47z" />
    <glyph glyph-name="iotadieresistonos" unicode="&#x390;" horiz-adv-x="244" 
d="M81 596l40 148h55l-52 -148h-43zM-25 643q-12 12 -12 30t12 30.5t29 12.5t29.5 -12.5t12.5 -30.5t-12 -30t-30 -12q-17 0 -29 12zM216.5 643q-12.5 12 -12.5 30t12 30.5t29 12.5q18 0 30 -12.5t12 -30.5t-12 -30t-29 -12t-29.5 12zM243 5q-30 -15 -64 -15q-50 0 -73 29
t-23 88v414h57v-405q0 -40 12.5 -56t39.5 -16q24 0 41 10z" />
    <glyph glyph-name="Alpha" unicode="&#x391;" horiz-adv-x="649" 
d="M345 732l291 -732h-67l-89 230h-320l-86 -230h-61l282 732h50zM460 284l-142 367l-138 -367h280z" />
    <glyph glyph-name="Beta" unicode="&#x392;" horiz-adv-x="629" 
d="M547 320q40 -46 40 -119q0 -94 -65 -147.5t-193 -53.5h-236v732h211q74 0 129 -24.5t84 -68t29 -100.5q0 -56 -29 -96t-84 -60q74 -17 114 -63zM153 679v-277h142q90 0 138.5 37.5t48.5 99.5q0 63 -49.5 101.5t-139.5 38.5h-140zM317 52q104 0 155.5 40t51.5 109
q0 70 -52.5 110.5t-150.5 40.5h-168v-300h164z" />
    <glyph glyph-name="Gamma" unicode="&#x393;" horiz-adv-x="530" 
d="M93 733h422v-54h-362v-679h-60v733z" />
    <glyph glyph-name="uni0394" unicode="&#x394;" horiz-adv-x="650" 
d="M296 733h50l286 -696v-37h-614v37zM85 53h474l-240 599z" />
    <glyph glyph-name="Epsilon" unicode="&#x395;" horiz-adv-x="579" 
d="M479 353h-326v-300h373v-53h-433v733h422v-53h-362v-274h326v-53z" />
    <glyph glyph-name="Zeta" unicode="&#x396;" horiz-adv-x="570" 
d="M532 732v-29l-420 -649h433v-54h-516v30l419 649h-389v53h473z" />
    <glyph glyph-name="Eta" unicode="&#x397;" horiz-adv-x="728" 
d="M153 407h422v325h60v-732h-60v354h-422v-354h-60v732h60v-325z" />
    <glyph glyph-name="Theta" unicode="&#x398;" horiz-adv-x="753" 
d="M97.5 562.5q41.5 85.5 114.5 133t164 47.5t164.5 -47.5t115 -133t41.5 -195.5q0 -111 -41.5 -196.5t-115 -133t-164.5 -47.5t-164 47.5t-114.5 133t-41.5 196.5q0 110 41.5 195.5zM151 199.5q32 -73.5 90 -114t135 -40.5t135.5 41t90.5 114t32 167t-32 167.5t-91 114
t-135 40.5t-134.5 -41t-90.5 -114t-32 -167t32 -167.5zM528 345h-303v54h303v-54z" />
    <glyph glyph-name="Iota" unicode="&#x399;" horiz-adv-x="246" 
d="M153 0h-60v732h60v-732z" />
    <glyph glyph-name="Kappa" unicode="&#x39a;" horiz-adv-x="650" 
d="M321 423l319 -423h-76l-284 379l-127 -132v-247h-60v732h60v-411l387 411h78z" />
    <glyph glyph-name="Lambda" unicode="&#x39b;" horiz-adv-x="640" 
d="M561 0l-248 651l-239 -651h-61l278 732h49l287 -732h-66z" />
    <glyph glyph-name="Mu" unicode="&#x39c;" horiz-adv-x="852" 
d="M709 732h49v-732h-57v616l-257 -405h-35l-259 406v-617h-57v732h52l283 -448z" />
    <glyph glyph-name="Nu" unicode="&#x39d;" horiz-adv-x="725" 
d="M144 732l431 -625v625h56v-732h-50l-432 626v-626h-56v732h51z" />
    <glyph glyph-name="Xi" unicode="&#x39e;" horiz-adv-x="590" 
d="M549 678h-508v55h508v-55zM509 353h-427v54h427v-54zM549 0h-508v55h508v-55z" />
    <glyph glyph-name="Omicron" unicode="&#x39f;" horiz-adv-x="753" 
d="M97.5 564.5q41.5 85.5 114.5 132t164 46.5q92 0 165 -46.5t114.5 -132t41.5 -197.5q0 -113 -41.5 -198.5t-114.5 -132t-165 -46.5q-91 0 -164 46.5t-114.5 132t-41.5 198.5q0 112 41.5 197.5zM151 199q32 -73 90 -113.5t135 -40.5t135.5 40.5t90.5 113.5t32 168t-32 168
t-90.5 113.5t-135.5 40.5q-76 0 -134.5 -40.5t-90.5 -113.5t-32 -168t32 -168z" />
    <glyph glyph-name="Pi" unicode="&#x3a0;" horiz-adv-x="725" 
d="M93 732h539v-732h-60v678h-419v-678h-60v732z" />
    <glyph glyph-name="Rho" unicode="&#x3a1;" horiz-adv-x="573" 
d="M289 732q74 0 131.5 -27t90 -76.5t32.5 -114.5t-32 -114.5t-90 -76.5t-132 -27h-136v-296h-60v732h196zM281 349q92 0 145 44.5t53 120.5q0 75 -53 120.5t-145 45.5h-128v-331h128z" />
    <glyph glyph-name="Sigma" unicode="&#x3a3;" horiz-adv-x="552" 
d="M115 678l239 -307l-251 -316h425v-55h-501v47l258 323l-247 315v48h477v-55h-400z" />
    <glyph glyph-name="Tau" unicode="&#x3a4;" horiz-adv-x="548" 
d="M15 732h519v-53h-230v-679h-60v679h-229v53z" />
    <glyph glyph-name="Upsilon" unicode="&#x3a5;" horiz-adv-x="596" 
d="M308 376l210 357h65l-248 -417v-316h-60v318l-262 415h71z" />
    <glyph glyph-name="Phi" unicode="&#x3a6;" horiz-adv-x="783" 
d="M696 220.5q-42 -63.5 -114.5 -99.5t-160.5 -41v-80h-59v80q-88 5 -160.5 41t-114.5 99t-42 147q0 83 42 146.5t114.5 99t160.5 40.5v79h59v-79q88 -5 160.5 -41.5t114.5 -99.5t42 -145q0 -83 -42 -146.5zM178 202.5q71 -61.5 184 -67.5v464q-113 -6 -184 -67t-71 -165
q0 -103 71 -164.5zM421 135q73 4 130.5 32.5t90.5 79.5t33 120q0 70 -33 120.5t-90.5 79t-130.5 32.5v-464z" />
    <glyph glyph-name="Chi" unicode="&#x3a7;" horiz-adv-x="638" 
d="M616 732l-263 -361l270 -371h-73l-234 324l-232 -324h-69l270 371l-263 361h74l226 -314l224 314h70z" />
    <glyph glyph-name="Psi" unicode="&#x3a8;" horiz-adv-x="752" 
d="M632 732h60v-246q0 -138 -79 -203.5t-208 -72.5v-210h-60v210q-128 7 -206.5 72.5t-78.5 203.5v246h59v-235q0 -221 226 -232v467h60v-467q227 11 227 232v235z" />
    <glyph glyph-name="uni03A9" unicode="&#x3a9;" horiz-adv-x="756" 
d="M704 54v-54h-264v62q90 45 140.5 126t50.5 197q0 92 -31.5 161t-88.5 106t-133 37t-133 -37t-88.5 -106t-31.5 -161q0 -116 50.5 -197.5t140.5 -125.5v-62h-265v54h188q-79 46 -127.5 129.5t-48.5 203.5q0 106 40.5 187t112 125t162.5 44t162.5 -44t112 -125t40.5 -187
q0 -120 -48.5 -204t-128.5 -129h188z" />
    <glyph glyph-name="Iotadieresis" unicode="&#x3aa;" horiz-adv-x="246" 
d="M-4 853q-12 11 -12 27q0 15 12 26t29 11t29.5 -11t12.5 -26q0 -16 -12 -27t-30 -11q-17 0 -29 11zM192.5 853q-12.5 11 -12.5 27q0 15 12 26t29 11q18 0 30 -11t12 -26q0 -16 -12 -27t-29 -11t-29.5 11zM153 0h-60v732h60v-732z" />
    <glyph glyph-name="Upsilondieresis" unicode="&#x3ab;" horiz-adv-x="596" 
d="M174.5 853q-12.5 11 -12.5 27q0 15 12 26t29 11q18 0 30 -11t12 -26q0 -16 -12 -27t-29 -11t-29.5 11zM371 853q-12 11 -12 27q0 15 12 26t29 11t29.5 -11t12.5 -26q0 -16 -12 -27t-30 -11q-17 0 -29 11zM308 376l210 357h65l-248 -417v-316h-60v318l-262 415h71z" />
    <glyph glyph-name="alphatonos" unicode="&#x3ac;" horiz-adv-x="602" 
d="M326 743h64l-77 -148h-50zM596 1q-19 -11 -48 -11q-48 0 -68.5 28t-20.5 85q-27 -56 -75 -84.5t-104 -28.5q-60 0 -111.5 32t-82.5 93.5t-31 145.5q0 83 31 144t82.5 93.5t111.5 32.5q59 0 108 -31t74 -90q2 27 4 111h50v-411q0 -36 11 -51t35 -15q15 0 25 5zM369.5 65.5
q39.5 21.5 64.5 70t25 125.5q0 76 -25 124.5t-64.5 70t-83.5 21.5q-49 0 -88 -25t-61.5 -74t-22.5 -117q0 -69 22.5 -118t61.5 -74t88 -25q44 0 83.5 21.5z" />
    <glyph glyph-name="epsilontonos" unicode="&#x3ad;" horiz-adv-x="457" 
d="M292 743h63l-76 -148h-51zM451 104q-19 -56 -71.5 -85t-126.5 -29q-60 0 -106 19t-71.5 53t-25.5 78q0 53 34.5 87.5t93.5 45.5q-50 13 -79.5 44.5t-29.5 76.5q0 40 24.5 71t67 48.5t95.5 17.5q68 0 116 -29t61 -78l-44 -26q-14 39 -49 59t-84 20q-56 0 -91.5 -24
t-35.5 -64q0 -41 36 -66.5t100 -25.5h48v-49h-46q-76 0 -116.5 -27.5t-40.5 -76.5q0 -47 38.5 -73.5t102.5 -26.5q119 0 155 87z" />
    <glyph glyph-name="etatonos" unicode="&#x3ae;" horiz-adv-x="584" 
d="M331 744h64l-77 -148h-51zM458.5 478q49.5 -53 49.5 -152v-558h-57v543q0 81 -35.5 123.5t-97.5 42.5q-42 0 -79 -19.5t-59.5 -58.5t-22.5 -94v-305h-56v411q0 37 -11 52t-35 15q-15 0 -26 -6l-9 48q19 11 48 11q46 0 66.5 -25.5t22.5 -78.5q24 50 70 77t102 27
q80 0 129.5 -53z" />
    <glyph glyph-name="iotatonos" unicode="&#x3af;" horiz-adv-x="244" 
d="M81 596l64 148h64l-77 -148h-51zM243 5q-30 -15 -64 -15q-50 0 -73 29t-23 88v414h57v-405q0 -40 12.5 -56t39.5 -16q24 0 41 10z" />
    <glyph glyph-name="upsilondieresistonos" unicode="&#x3b0;" horiz-adv-x="546" 
d="M239 596l40 148h56l-53 -148h-43zM133.5 643q-12.5 12 -12.5 30t12.5 30.5t29.5 12.5t29.5 -12.5t12.5 -30.5t-12.5 -30t-29.5 -12t-29.5 12zM375 643q-12 12 -12 30t12 30.5t29 12.5t29.5 -12.5t12.5 -30.5t-12 -30t-30 -12q-17 0 -29 12zM78 520h56v-302
q0 -89 36 -131.5t100 -42.5q73 0 116.5 57t43.5 183t-49 236h60q46 -114 46 -236q0 -149 -61.5 -221.5t-159.5 -72.5q-87 0 -137.5 55.5t-50.5 165.5v309z" />
    <glyph glyph-name="alpha" unicode="&#x3b1;" horiz-adv-x="602" 
d="M596 1q-19 -11 -48 -11q-47 0 -67.5 27.5t-21.5 84.5v6q-25 -58 -73 -88t-106 -30q-60 0 -111.5 32t-82.5 93.5t-31 145.5q0 83 31 144t82.5 93.5t111.5 32.5q59 0 108 -32t74 -94q2 26 4 116h50v-411q0 -36 11 -51t35 -15q15 0 25 5zM369.5 65.5q39.5 21.5 64.5 70
t25 125.5q0 76 -25 124.5t-64.5 70t-83.5 21.5q-49 0 -88 -25t-61.5 -74t-22.5 -117q0 -69 22.5 -118t61.5 -74t88 -25q44 0 83.5 21.5z" />
    <glyph glyph-name="beta" unicode="&#x3b2;" horiz-adv-x="579" 
d="M494 339q41 -53 41 -133q0 -63 -25 -112t-73 -76.5t-113 -27.5q-64 0 -112.5 29.5t-69.5 84.5v-336h-56v754q0 76 26.5 132t74 85.5t108.5 29.5q57 0 101 -25.5t68 -70.5t24 -100q0 -59 -27 -102t-80 -62q72 -17 113 -70zM434.5 88.5q40.5 44.5 40.5 118.5q0 81 -47 127
t-136 46h-39v48h17q82 0 120 39.5t38 104.5q0 64 -34.5 103.5t-99.5 39.5q-72 0 -112 -51.5t-40 -143.5v-256q0 -111 51.5 -165.5t129.5 -54.5q71 0 111.5 44.5z" />
    <glyph glyph-name="gamma" unicode="&#x3b3;" horiz-adv-x="487" 
d="M397 223.5q-42 -103.5 -144 -232.5v-223h-56v211l-186 541h65l156 -479q84 118 117 208.5t33 176.5q0 39 -9 94h57q9 -58 9 -93q0 -100 -42 -203.5z" />
    <glyph glyph-name="delta" unicode="&#x3b4;" horiz-adv-x="588" 
d="M431 492q102 -92 102 -228q0 -80 -33 -142.5t-88 -97t-118 -34.5q-64 0 -118.5 34.5t-87.5 96t-33 139.5t33 139t87.5 95t118.5 34q12 0 17 -1l-201 185v43h350v-50h-261zM384.5 70.5q40.5 26.5 64.5 75.5t24 114t-24 114.5t-64.5 76t-90.5 26.5q-49 0 -90.5 -26.5
t-65.5 -76t-24 -114.5t24 -114t65.5 -75.5t90.5 -26.5q50 0 90.5 26.5z" />
    <glyph glyph-name="epsilon" unicode="&#x3b5;" horiz-adv-x="457" 
d="M451 104q-19 -56 -71.5 -85t-126.5 -29q-60 0 -106 19t-71.5 53t-25.5 78q0 53 34.5 87.5t92.5 46.5q-48 12 -78 44t-30 76q0 40 24.5 71t67 48.5t95.5 17.5q68 0 116 -29t61 -78l-44 -26q-14 39 -49 59t-84 20q-56 0 -91.5 -24t-35.5 -64q0 -41 36 -66.5t100 -25.5h48
v-49h-46q-76 0 -116.5 -27.5t-40.5 -76.5q0 -47 38.5 -73.5t102.5 -26.5q119 0 155 87z" />
    <glyph glyph-name="zeta" unicode="&#x3b6;" horiz-adv-x="453" 
d="M415.5 -2.5q37.5 -28.5 37.5 -75.5q0 -39 -22.5 -66t-61.5 -48l-28 33q28 16 40.5 33t12.5 38q0 31 -26.5 49.5t-86.5 33.5q-102 23 -166.5 77.5t-64.5 169.5q0 116 76.5 237.5t226.5 232.5h-278v49h365v-38q-176 -128 -253 -247.5t-77 -227.5q0 -66 26.5 -107
t66.5 -61.5t95 -33.5q80 -20 117.5 -48.5z" />
    <glyph glyph-name="eta" unicode="&#x3b7;" horiz-adv-x="584" 
d="M458.5 478q49.5 -53 49.5 -152v-558h-57v543q0 81 -35.5 123.5t-97.5 42.5q-42 0 -79 -19.5t-59.5 -58.5t-22.5 -94v-305h-56v411q0 37 -11 52t-35 15q-15 0 -26 -6l-9 48q19 11 48 11q46 0 66.5 -25.5t22.5 -78.5q24 50 70 77t102 27q80 0 129.5 -53z" />
    <glyph glyph-name="theta" unicode="&#x3b8;" horiz-adv-x="593" 
d="M421 723.5q54 -47.5 83 -135.5t29 -207q0 -120 -29 -208t-83 -135.5t-127 -47.5t-127 47.5t-83 135.5t-29 208q0 118 29 206t83 136t127 48t127 -47.5zM167.5 635q-47.5 -83 -52.5 -220h358q-6 138 -52.5 220.5t-126.5 82.5q-79 0 -126.5 -83zM424 131q47 87 49 235h-358
q2 -147 49 -234.5t130 -87.5t130 87z" />
    <glyph glyph-name="iota" unicode="&#x3b9;" horiz-adv-x="244" 
d="M243 5q-30 -15 -64 -15q-50 0 -73 29t-23 88v414h57v-405q0 -40 12.5 -56t39.5 -16q24 0 41 10z" />
    <glyph glyph-name="kappa" unicode="&#x3ba;" horiz-adv-x="501" 
d="M488 0h-71l-184 275l-91 -109v-166h-56v520h56v-278l176 215q33 40 57 57t54 17t51 -19l-19 -44q-12 10 -31 10q-15 0 -30 -10t-38 -39l-92 -110z" />
    <glyph glyph-name="lambda" unicode="&#x3bb;" horiz-adv-x="532" 
d="M553 3q-26 -13 -58 -13q-41 0 -64.5 21t-39.5 67l-128 373l-193 -451h-59l230 512l-56 147q-13 34 -25 46.5t-33 12.5q-29 0 -57 -27l-18 44q39 36 86 36q40 0 62 -23t40 -72l205 -568q12 -36 26.5 -50t35.5 -14q20 0 37 8z" />
    <glyph glyph-name="uni03BC" unicode="&#x3bc;" horiz-adv-x="579" 
d="M573 1q-19 -11 -47 -11q-45 0 -65.5 26t-21.5 80q-24 -51 -68 -78.5t-99 -27.5q-43 0 -76.5 17.5t-53.5 51.5v-291h-56v753h56v-312q0 -80 36 -122.5t97 -42.5q42 0 79 19.5t59.5 59t22.5 94.5v303h56v-410q0 -36 11 -51t35 -15q15 0 26 5z" />
    <glyph glyph-name="nu" unicode="&#x3bd;" horiz-adv-x="477" 
d="M430 520q9 -55 9 -90q0 -99 -45 -199.5t-156 -230.5h-41l-186 520h65l155 -457q85 114 118 198.5t33 167.5q0 38 -9 91h57z" />
    <glyph glyph-name="xi" unicode="&#x3be;" horiz-adv-x="438" 
d="M414 -1q35 -28 35 -76q0 -39 -22.5 -66.5t-61.5 -48.5l-28 33q28 17 40.5 34t12.5 38q0 31 -25.5 49.5t-79.5 30.5q-110 27 -172 74.5t-62 136.5q0 74 44 126.5t117 74.5q-59 15 -94.5 49.5t-35.5 90.5q0 60 41 102.5t101 64.5h-165v49h362v-43q-95 -4 -158 -27.5
t-92.5 -59.5t-29.5 -79q0 -55 47 -88.5t132 -33.5h81v-50h-60q-115 0 -172.5 -47.5t-57.5 -120.5q0 -72 51.5 -109t143.5 -59q73 -17 108 -45z" />
    <glyph glyph-name="omicron" unicode="&#x3bf;" horiz-adv-x="588" 
d="M87.5 400q32.5 62 87.5 96.5t119 34.5t118.5 -34t87.5 -96t33 -141q0 -78 -33 -139.5t-87.5 -96t-118.5 -34.5t-119 34t-87.5 96t-32.5 140t32.5 140zM138 146q24 -49 65.5 -75.5t90.5 -26.5q50 0 90.5 26.5t64.5 75.5t24 114t-24 114.5t-64.5 76t-90.5 26.5
q-49 0 -90.5 -26.5t-65.5 -76t-24 -114.5t24 -114z" />
    <glyph glyph-name="pi" unicode="&#x3c0;" horiz-adv-x="584" 
d="M558 5q-30 -15 -64 -15q-50 0 -73 29t-23 88v365h-231v-472h-57v472h-98v49h544v-49h-101v-356q0 -40 12.5 -56t39.5 -16q23 0 42 10z" />
    <glyph glyph-name="rho" unicode="&#x3c1;" horiz-adv-x="605" 
d="M435 499q53 -32 84.5 -93.5t31.5 -145.5q0 -83 -31.5 -144.5t-83.5 -93.5t-112 -32q-59 0 -109 31t-76 84v-337h-57v479q0 90 33 154.5t87.5 97t117.5 32.5q62 0 115 -32zM405.5 71.5q39.5 25.5 63 74t23.5 116.5t-23.5 116.5t-63 73.5t-86.5 25t-88 -25t-66.5 -74
t-25.5 -116q0 -72 25 -120.5t66 -72t89 -23.5q47 0 86.5 25.5z" />
    <glyph glyph-name="uni03C2" unicode="&#x3c2;" horiz-adv-x="479" 
d="M399.5 -3q34.5 -30 34.5 -75q0 -39 -22.5 -66t-61.5 -48l-28 33q28 16 40.5 33.5t12.5 38.5q0 31 -21.5 49t-72.5 31q-101 26 -163.5 87.5t-62.5 179.5q0 80 33 141.5t89 95.5t121 34q57 0 103.5 -26.5t68.5 -79.5l-45 -26q-18 40 -51.5 59t-75.5 19q-50 0 -92 -26
t-67 -75t-25 -114q0 -97 49 -146t133 -71q69 -18 103.5 -48z" />
    <glyph glyph-name="sigma" unicode="&#x3c3;" horiz-adv-x="608" 
d="M596 521v-49h-178q53 -31 84 -88t31 -131q0 -76 -33 -136t-87.5 -93.5t-118.5 -33.5t-119 33.5t-87.5 94t-32.5 137.5q0 78 33.5 138.5t90.5 94t127 33.5h290zM384.5 69.5q40.5 25.5 64.5 73.5t24 112t-24 112t-64.5 74t-90.5 26q-49 0 -90.5 -26t-65.5 -74t-24 -112
t24 -111.5t65.5 -73.5t90.5 -26q50 0 90.5 25.5z" />
    <glyph glyph-name="tau" unicode="&#x3c4;" horiz-adv-x="462" 
d="M446 521v-49h-193v-356q0 -40 13 -56t40 -16q24 0 41 10l9 -49q-28 -15 -63 -15q-50 0 -73 29t-23 88v365h-186v49h435z" />
    <glyph glyph-name="upsilon" unicode="&#x3c5;" horiz-adv-x="546" 
d="M78 520h56v-302q0 -89 36 -131.5t100 -42.5q73 0 116.5 57t43.5 183t-49 236h60q46 -114 46 -236q0 -149 -61.5 -221.5t-159.5 -72.5q-87 0 -137.5 55.5t-50.5 165.5v309z" />
    <glyph glyph-name="phi" unicode="&#x3c6;" horiz-adv-x="719" 
d="M628 123q-37 -59 -100.5 -92.5t-139.5 -39.5v-223h-56v223q-76 6 -139.5 39.5t-100.5 92.5t-37 137q0 79 37 138.5t100.5 93t139.5 38.5v152h56v-152q76 -5 139.5 -38.5t100.5 -93t37 -138.5q0 -78 -37 -137zM143 149q29 -47 79 -73.5t110 -30.5v431q-60 -4 -109.5 -30.5
t-79 -74t-29.5 -111.5t29 -111zM388 45q61 5 110 31.5t78 73.5t29 110q0 64 -29 111t-78 73.5t-110 31.5v-431z" />
    <glyph glyph-name="chi" unicode="&#x3c7;" horiz-adv-x="478" 
d="M242 201l167 319h60l-200 -373l200 -379h-63l-168 320l-167 -320h-61l200 375l-200 377h65z" />
    <glyph glyph-name="psi" unicode="&#x3c8;" horiz-adv-x="689" 
d="M569 73q-67 -72 -186 -81v-224h-57v223q-248 10 -248 258v271h56v-263q0 -203 192 -213v638h57v-636q196 17 196 243q0 121 -49 231h60q46 -114 46 -231q0 -144 -67 -216z" />
    <glyph glyph-name="omega" unicode="&#x3c9;" horiz-adv-x="754" 
d="M591 521q51 -54 79.5 -126.5t28.5 -157.5q0 -79 -24.5 -135t-65.5 -84t-92 -28t-87 28t-53 80q-17 -52 -53 -80t-87 -28t-92.5 28t-65.5 84t-24 135q0 85 28 157.5t79 126.5h65q-113 -121 -113 -283q0 -92 35 -143t92 -51q49 0 78.5 39.5t29.5 129.5v156h56v-156
q0 -90 29.5 -129.5t78.5 -39.5q56 0 91 51t35 143q0 162 -112 283h64z" />
    <glyph glyph-name="iotadieresis" unicode="&#x3ca;" horiz-adv-x="244" 
d="M-16 643q-12 12 -12 30t12 30.5t29 12.5q18 0 30 -12.5t12 -30.5t-12 -30t-30 -12q-17 0 -29 12zM180.5 643q-12.5 12 -12.5 30t12.5 30.5t29.5 12.5t29.5 -12.5t12.5 -30.5t-12.5 -30t-29.5 -12t-29.5 12zM243 5q-30 -15 -64 -15q-50 0 -73 29t-23 88v414h57v-405
q0 -40 12.5 -56t39.5 -16q24 0 41 10z" />
    <glyph glyph-name="upsilondieresis" unicode="&#x3cb;" horiz-adv-x="546" 
d="M142.5 643q-12.5 12 -12.5 30t12.5 30.5t29.5 12.5t29.5 -12.5t12.5 -30.5t-12 -30t-30 -12q-17 0 -29.5 12zM339.5 643q-12.5 12 -12.5 30t12 30.5t29 12.5q18 0 30 -12.5t12 -30.5t-12 -30t-29 -12t-29.5 12zM78 520h56v-302q0 -89 36 -131.5t100 -42.5q73 0 116.5 57
t43.5 183t-49 236h60q46 -114 46 -236q0 -149 -61.5 -221.5t-159.5 -72.5q-87 0 -137.5 55.5t-50.5 165.5v309z" />
    <glyph glyph-name="omicrontonos" unicode="&#x3cc;" horiz-adv-x="588" 
d="M263 595l64 148h64l-77 -148h-51zM87.5 400q32.5 62 87.5 96.5t119 34.5t118.5 -34t87.5 -96t33 -141q0 -78 -33 -139.5t-87.5 -96t-118.5 -34.5t-119 34t-87.5 96t-32.5 140t32.5 140zM138 146q24 -49 65.5 -75.5t90.5 -26.5q50 0 90.5 26.5t64.5 75.5t24 114t-24 114.5
t-64.5 76t-90.5 26.5q-49 0 -90.5 -26.5t-65.5 -76t-24 -114.5t24 -114z" />
    <glyph glyph-name="upsilontonos" unicode="&#x3cd;" horiz-adv-x="546" 
d="M240 596l64 148h63l-76 -148h-51zM78 520h56v-302q0 -89 36 -131.5t100 -42.5q73 0 116.5 57t43.5 183t-49 236h60q46 -114 46 -236q0 -149 -61.5 -221.5t-159.5 -72.5q-87 0 -137.5 55.5t-50.5 165.5v309z" />
    <glyph glyph-name="omegatonos" unicode="&#x3ce;" horiz-adv-x="754" 
d="M411 744h63l-77 -148h-50zM591 521q51 -54 79.5 -126.5t28.5 -157.5q0 -79 -24.5 -135t-65.5 -84t-92 -28t-87 27t-53 78q-17 -50 -53.5 -77.5t-86.5 -27.5q-51 0 -92.5 28t-65.5 84t-24 135q0 85 28 157.5t79 126.5h65q-113 -121 -113 -283q0 -92 35 -143t92 -51
q49 0 78.5 39.5t29.5 129.5v156h56v-156q0 -90 29.5 -129.5t78.5 -39.5q56 0 91 51t35 143q0 162 -112 283h64z" />
    <glyph glyph-name="uni03D1" unicode="&#x3d1;" horiz-adv-x="585" 
d="M571 409v-49h-82q-3 -177 -60 -273.5t-168 -96.5q-87 0 -144.5 56t-68.5 147l56 20q10 -76 51.5 -122.5t105.5 -46.5q82 0 123.5 81t44.5 235h-116q-139 0 -205.5 47.5t-66.5 140.5q0 60 25.5 111.5t73 81.5t110.5 30q108 0 170.5 -95t67.5 -267h83zM151.5 445
q50.5 -36 170.5 -36h106q-4 149 -49.5 229t-128.5 80q-66 0 -107.5 -47.5t-41.5 -118.5t50.5 -107z" />
    <glyph glyph-name="uni03D2" unicode="&#x3d2;" horiz-adv-x="618" 
d="M609 733v-54h-10q-71 0 -131 -64t-94.5 -164.5t-34.5 -203.5v-247h-59v248q0 136 -73.5 268t-196.5 217h84q76 -56 135.5 -143.5t83.5 -184.5q18 89 58 164t97 119.5t121 44.5h20z" />
    <glyph glyph-name="uni03D6" unicode="&#x3d6;" horiz-adv-x="775" 
d="M23 521h728v-49h-122q38 -48 59 -108.5t21 -131.5q0 -78 -24 -132.5t-65 -82t-92 -27.5q-52 0 -88 28t-53 80q-17 -52 -53 -80t-87 -28t-92 27.5t-65.5 82t-24.5 132.5q0 71 21 131.5t59 108.5h-122v49zM564 472h-354q-85 -103 -85 -238q0 -90 35 -140t92 -50
q48 0 77.5 40t29.5 129v139h56v-139q0 -89 30 -129t78 -40q56 0 91 50.5t35 139.5q0 137 -85 238z" />
    <glyph glyph-name="uni0400" unicode="&#x400;" horiz-adv-x="579" 
d="M177 928h63l83 -120h-50zM479 353h-326v-300h373v-53h-433v733h422v-53h-362v-274h326v-53z" />
    <glyph glyph-name="uni0401" unicode="&#x401;" horiz-adv-x="579" 
d="M176 853q-12 11 -12 27q0 15 12 26t29 11t29.5 -11t12.5 -26q0 -16 -12 -27t-30 -11q-17 0 -29 11zM372.5 853q-12.5 11 -12.5 27q0 15 12 26t29 11q18 0 30 -11t12 -26q0 -16 -12 -27t-29 -11t-29.5 11zM479 353h-326v-300h373v-53h-433v733h422v-53h-362v-274h326v-53z
" />
    <glyph glyph-name="uni0402" unicode="&#x402;" horiz-adv-x="800" 
d="M644.5 436q55.5 -27 88.5 -81t33 -131q0 -78 -33.5 -132t-92 -80t-133.5 -22v55q90 -4 143.5 41t53.5 136q0 88 -50 137.5t-134 49.5q-55 0 -104 -20.5t-80.5 -66t-31.5 -115.5v-207h-60v679h-229v53h519v-53h-230v-331q30 55 88 85t129 30q68 0 123.5 -27z" />
    <glyph glyph-name="uni0403" unicode="&#x403;" horiz-adv-x="530" 
d="M285 808l81 120h63l-93 -120h-51zM93 733h422v-54h-362v-679h-60v733z" />
    <glyph glyph-name="uni0404" unicode="&#x404;" horiz-adv-x="631" 
d="M491.5 77.5q46.5 32.5 71.5 87.5l48 -28q-27 -67 -88.5 -107t-144.5 -40q-91 0 -164.5 47.5t-115.5 133.5t-42 196t42 195.5t115.5 133t164.5 47.5q83 0 144.5 -40t88.5 -107l-48 -28q-25 55 -71.5 87.5t-114.5 32.5q-71 0 -127.5 -36t-90.5 -101.5t-39 -150.5h327v-54
h-328q3 -88 36.5 -156.5t91 -106.5t130.5 -38q68 0 114.5 32.5z" />
    <glyph glyph-name="uni0405" unicode="&#x405;" horiz-adv-x="550" 
d="M490.5 85.5q-27.5 -45.5 -79.5 -70.5t-122 -25q-98 0 -170 46.5t-95 125.5l48 28q24 -68 81.5 -106.5t135.5 -38.5q77 0 121 37.5t44 102.5q0 49 -25.5 80.5t-63.5 49.5t-102 40q-69 23 -110.5 43.5t-70 57.5t-28.5 96q0 61 30.5 104t83 65t115.5 22q90 0 148.5 -41.5
t73.5 -103.5l-48 -28q-17 54 -61.5 86.5t-114.5 32.5q-72 0 -117.5 -35t-45.5 -97q0 -43 23.5 -71t59 -44.5t96.5 -36.5q72 -25 115.5 -46.5t74.5 -62t31 -105.5q0 -60 -27.5 -105.5z" />
    <glyph glyph-name="uni0406" unicode="&#x406;" horiz-adv-x="246" 
d="M153 0h-60v732h60v-732z" />
    <glyph glyph-name="uni0407" unicode="&#x407;" horiz-adv-x="246" 
d="M-4 853q-12 11 -12 27q0 15 12 26t29 11t29.5 -11t12.5 -26q0 -16 -12 -27t-30 -11q-17 0 -29 11zM192.5 853q-12.5 11 -12.5 27q0 15 12 26t29 11q18 0 30 -11t12 -26q0 -16 -12 -27t-29 -11t-29.5 11zM153 0h-60v732h60v-732z" />
    <glyph glyph-name="uni0408" unicode="&#x408;" horiz-adv-x="432" 
d="M70.5 19.5q-43.5 29.5 -60.5 88.5l47 28q27 -91 117 -91q59 0 87.5 41.5t28.5 124.5v521h59v-527q0 -109 -47.5 -162t-127.5 -53q-60 0 -103.5 29.5z" />
    <glyph glyph-name="uni0409" unicode="&#x409;" horiz-adv-x="1101" 
d="M808 413q127 0 193 -56t66 -151q0 -96 -65.5 -151t-193.5 -55h-235v678h-351l-18 -459q-3 -86 -20 -135t-55.5 -71.5t-107.5 -22.5v55q49 0 74.5 17.5t35.5 55t13 107.5l20 507l468 1v-320h176zM796 52q104 0 156 42t52 112t-52 112t-156 42h-164v-308h164z" />
    <glyph glyph-name="uni040A" unicode="&#x40a;" horiz-adv-x="1104" 
d="M811 407q128 0 193.5 -54t65.5 -150q0 -95 -65 -149t-194 -54h-236v354h-422v-354h-60v732h60v-325h422v325h60v-325h176zM799 52q105 0 156.5 41t51.5 110q0 71 -51.5 111.5t-156.5 40.5h-164v-303h164z" />
    <glyph glyph-name="uni040B" unicode="&#x40b;" horiz-adv-x="791" 
d="M677 404.5q63 -58.5 63 -176.5v-228h-59v215q0 97 -45 145.5t-129 48.5q-86 0 -144.5 -49.5t-58.5 -152.5v-207h-60v679h-229v53h519v-53h-230v-327q27 53 81 82t124 29q105 0 168 -58.5z" />
    <glyph glyph-name="uni040C" unicode="&#x40c;" horiz-adv-x="634" 
d="M315 808l82 120h63l-95 -120h-50zM326 373l298 -373h-80l-270 345h-121v-345h-60v732h60v-334h125l262 334h70z" />
    <glyph glyph-name="uni040D" unicode="&#x40d;" horiz-adv-x="725" 
d="M249 928h63l81 -120h-51zM581 733h50v-732h-56v627l-431 -627h-51v732h56v-628z" />
    <glyph glyph-name="uni040E" unicode="&#x40e;" horiz-adv-x="596" 
d="M200 840.5q-38 32.5 -38 87.5h52q2 -40 25.5 -62t62.5 -22q40 0 63.5 22t24.5 62h52q0 -55 -38 -87.5t-102 -32.5t-102 32.5zM310 275l210 458h63l-249 -529q-39 -82 -71 -128t-66 -66t-78 -20q-50 0 -78 21v57q32 -23 76 -23q32 0 56 14t48 49t57 101l-265 524h70z" />
    <glyph glyph-name="uni040F" unicode="&#x40f;" horiz-adv-x="725" 
d="M153 54h419v678h60v-732h-241l-4 -172h-48l-4 172h-242v732h60v-678z" />
    <glyph glyph-name="uni0410" unicode="&#x410;" horiz-adv-x="649" 
d="M345 732l291 -732h-67l-89 230h-320l-86 -230h-61l282 732h50zM460 284l-142 367l-138 -367h280z" />
    <glyph glyph-name="uni0411" unicode="&#x411;" horiz-adv-x="627" 
d="M329 413q127 0 192.5 -56t65.5 -151q0 -96 -65 -151t-193 -55h-236v733h425v-54h-365v-266h176zM317 52q104 0 155.5 42t51.5 112t-51.5 112t-155.5 42h-164v-308h164z" />
    <glyph glyph-name="uni0412" unicode="&#x412;" horiz-adv-x="629" 
d="M547 320q40 -46 40 -119q0 -94 -65 -147.5t-193 -53.5h-236v732h211q74 0 129 -24.5t84 -68t29 -100.5q0 -56 -29 -96t-84 -60q74 -17 114 -63zM153 679v-277h142q90 0 138.5 37.5t48.5 99.5q0 63 -49.5 101.5t-139.5 38.5h-140zM317 52q104 0 155.5 40t51.5 109
q0 70 -52.5 110.5t-150.5 40.5h-168v-300h164z" />
    <glyph glyph-name="uni0413" unicode="&#x413;" horiz-adv-x="530" 
d="M93 733h422v-54h-362v-679h-60v733z" />
    <glyph glyph-name="uni0414" unicode="&#x414;" horiz-adv-x="748" 
d="M629 54h77l-6 -226h-48l-4 172h-576l-4 -172h-48l-6 226h34q49 0 78.5 31t45 92.5t21.5 162.5l25 392h411v-678zM569 54v624h-295l-21 -344q-7 -112 -26 -180t-58 -100h400z" />
    <glyph glyph-name="uni0415" unicode="&#x415;" horiz-adv-x="579" 
d="M479 353h-326v-300h373v-53h-433v733h422v-53h-362v-274h326v-53z" />
    <glyph glyph-name="uni0416" unicode="&#x416;" horiz-adv-x="959" 
d="M675 373l275 -373h-80l-249 345h-112v-345h-59v345h-114l-248 -345h-79l275 373l-261 359h72l242 -334h113v334h59v-334h115l242 334h70z" />
    <glyph glyph-name="uni0417" unicode="&#x417;" horiz-adv-x="565" 
d="M479.5 324.5q39.5 -49.5 39.5 -121.5q0 -63 -28.5 -111t-83 -75t-129.5 -27q-90 0 -155 40.5t-89 119.5l48 27q22 -66 74 -99.5t122 -33.5q84 0 131 44t47 115q0 73 -52 114.5t-149 41.5h-46v53h50q77 0 119 41t42 101q0 59 -41.5 97t-108.5 38q-61 0 -107.5 -33.5
t-69.5 -96.5l-47 27q26 78 85 117.5t141 39.5q67 0 114.5 -24t72 -66.5t24.5 -95.5q0 -57 -30 -101.5t-87 -64.5q74 -17 113.5 -66.5z" />
    <glyph glyph-name="uni0418" unicode="&#x418;" horiz-adv-x="725" 
d="M581 733h50v-732h-56v627l-431 -627h-51v732h56v-628z" />
    <glyph glyph-name="uni0419" unicode="&#x419;" horiz-adv-x="725" 
d="M261 840.5q-38 32.5 -38 87.5h52q1 -40 24.5 -62t62.5 -22q40 0 63.5 22t25.5 62h52q0 -55 -38 -87.5t-103 -32.5q-63 0 -101 32.5zM581 733h50v-732h-56v627l-431 -627h-51v732h56v-628z" />
    <glyph glyph-name="uni041A" unicode="&#x41a;" horiz-adv-x="634" 
d="M326 373l298 -373h-80l-270 345h-121v-345h-60v732h60v-334h125l262 334h70z" />
    <glyph glyph-name="uni041B" unicode="&#x41b;" horiz-adv-x="724" 
d="M630 732v-732h-60v678h-348l-18 -456q-3 -88 -20 -137.5t-55 -72t-108 -22.5v55q49 0 74.5 17.5t35.5 56t13 109.5l20 504h466z" />
    <glyph glyph-name="uni041C" unicode="&#x41c;" horiz-adv-x="852" 
d="M709 732h49v-732h-57v616l-257 -405h-35l-259 406v-617h-57v732h52l283 -448z" />
    <glyph glyph-name="uni041D" unicode="&#x41d;" horiz-adv-x="728" 
d="M153 407h422v325h60v-732h-60v354h-422v-354h-60v732h60v-325z" />
    <glyph glyph-name="uni041E" unicode="&#x41e;" horiz-adv-x="753" 
d="M97.5 564.5q41.5 85.5 114.5 132t164 46.5q92 0 165 -46.5t114.5 -132t41.5 -197.5q0 -113 -41.5 -198.5t-114.5 -132t-165 -46.5q-91 0 -164 46.5t-114.5 132t-41.5 198.5q0 112 41.5 197.5zM151 199q32 -73 90 -113.5t135 -40.5t135.5 40.5t90.5 113.5t32 168t-32 168
t-90.5 113.5t-135.5 40.5q-76 0 -134.5 -40.5t-90.5 -113.5t-32 -168t32 -168z" />
    <glyph glyph-name="uni041F" unicode="&#x41f;" horiz-adv-x="725" 
d="M93 732h539v-732h-60v678h-419v-678h-60v732z" />
    <glyph glyph-name="uni0420" unicode="&#x420;" horiz-adv-x="573" 
d="M289 732q74 0 131.5 -27t90 -76.5t32.5 -114.5t-32 -114.5t-90 -76.5t-132 -27h-136v-296h-60v732h196zM281 349q92 0 145 44.5t53 120.5q0 75 -53 120.5t-145 45.5h-128v-331h128z" />
    <glyph glyph-name="uni0421" unicode="&#x421;" horiz-adv-x="640" 
d="M491.5 77.5q46.5 32.5 71.5 87.5l48 -28q-27 -67 -88.5 -107t-144.5 -40q-91 0 -164.5 47.5t-115.5 133.5t-42 196t42 195.5t115.5 133t164.5 47.5q83 0 144.5 -40t88.5 -107l-48 -28q-25 55 -71.5 87.5t-114.5 32.5q-76 0 -134.5 -40.5t-91 -113.5t-32.5 -167t32.5 -167
t91 -114t134.5 -41q68 0 114.5 32.5z" />
    <glyph glyph-name="uni0422" unicode="&#x422;" horiz-adv-x="548" 
d="M15 732h519v-53h-230v-679h-60v679h-229v53z" />
    <glyph glyph-name="uni0423" unicode="&#x423;" horiz-adv-x="596" 
d="M310 275l210 458h63l-249 -529q-39 -82 -71 -128t-66 -66t-78 -20q-50 0 -78 21v57q32 -23 76 -23q32 0 56 14t48 49t57 101l-265 524h70z" />
    <glyph glyph-name="uni0424" unicode="&#x424;" horiz-adv-x="783" 
d="M696 220.5q-42 -63.5 -114.5 -99.5t-160.5 -41v-80h-59v80q-88 5 -160.5 41t-114.5 99t-42 147q0 83 42 146.5t114.5 99t160.5 40.5v79h59v-79q88 -5 160.5 -41.5t114.5 -99.5t42 -145q0 -83 -42 -146.5zM178 202.5q71 -61.5 184 -67.5v464q-113 -6 -184 -67t-71 -165
q0 -103 71 -164.5zM421 135q73 4 130.5 32.5t90.5 79.5t33 120q0 70 -33 120.5t-90.5 79t-130.5 32.5v-464z" />
    <glyph glyph-name="uni0425" unicode="&#x425;" horiz-adv-x="638" 
d="M616 732l-263 -361l270 -371h-73l-234 324l-232 -324h-69l270 371l-263 361h74l226 -314l224 314h70z" />
    <glyph glyph-name="uni0426" unicode="&#x426;" horiz-adv-x="751" 
d="M632 732v-678h78l-6 -226h-49l-4 172h-558v732h60v-678h419v678h60z" />
    <glyph glyph-name="uni0427" unicode="&#x427;" horiz-adv-x="640" 
d="M487 732h60v-732h-60v368q-28 -54 -82 -82.5t-124 -28.5q-104 0 -167 58.5t-63 176.5v240h59v-227q0 -97 45.5 -145.5t129.5 -48.5q86 0 144 49.5t58 152.5v219z" />
    <glyph glyph-name="uni0428" unicode="&#x428;" horiz-adv-x="997" 
d="M529 54h316v678h59v-732h-811v732h60v-678h316v678h60v-678z" />
    <glyph glyph-name="uni0429" unicode="&#x429;" horiz-adv-x="1021" 
d="M844 732h60v-678h73l-6 -226h-49l-4 172h-825v732h60v-678h316v678h60v-678h315v678z" />
    <glyph glyph-name="uni042A" unicode="&#x42a;" horiz-adv-x="752" 
d="M459 413q127 0 193 -56t66 -151q0 -96 -65.5 -151t-193.5 -55h-235v679h-209v54h268v-320h176zM447 52q104 0 156 42t52 112t-52 112t-156 42h-164v-308h164z" />
    <glyph glyph-name="uni042B" unicode="&#x42b;" horiz-adv-x="859" 
d="M329 413q127 0 192.5 -56t65.5 -151q0 -96 -65 -151t-193 -55h-236v733h60v-320h176zM765 0h-59v733h59v-733zM317 52q104 0 155.5 42t51.5 112t-51.5 112t-155.5 42h-164v-308h164z" />
    <glyph glyph-name="uni042C" unicode="&#x42c;" horiz-adv-x="622" 
d="M329 413q127 0 192.5 -56t65.5 -151q0 -96 -65 -151t-193 -55h-236v733h60v-320h176zM317 52q104 0 155.5 42t51.5 112t-51.5 112t-155.5 42h-164v-308h164z" />
    <glyph glyph-name="uni042D" unicode="&#x42d;" horiz-adv-x="631" 
d="M432 696.5q70 -46.5 106.5 -131.5t36.5 -198t-36.5 -198t-106.5 -132t-166 -47q-90 0 -154.5 40t-92.5 107l48 28q24 -55 75 -87.5t123 -32.5q114 0 178 82t68 219h-328v54h328q-7 133 -70.5 210.5t-175.5 77.5q-72 0 -123 -32.5t-75 -87.5l-48 28q28 67 92.5 107
t154.5 40q96 0 166 -46.5z" />
    <glyph glyph-name="uni042E" unicode="&#x42e;" horiz-adv-x="971" 
d="M768 698.5q68 -44.5 107 -129.5t39 -202q0 -118 -39 -203t-107 -129.5t-155 -44.5t-154 43.5t-105.5 125.5t-40.5 195h-160v-354h-60v732h60v-325h160q7 105 47 181t105.5 115.5t147.5 39.5q87 0 155 -44.5zM739 84q54 39 83.5 111.5t29.5 171.5t-30 172t-84 111.5
t-125 38.5t-125 -38.5t-83.5 -111.5t-29.5 -172t29 -172t83 -111.5t126 -38.5t126 39z" />
    <glyph glyph-name="uni042F" unicode="&#x42f;" horiz-adv-x="611" 
d="M235 326q-76 20 -120 71.5t-44 125.5q0 63 32 110.5t90 73t132 25.5h193v-732h-60v314h-133q-9 0 -27 2l-222 -316h-73zM333 680q-92 0 -145 -42.5t-53 -114.5t52.5 -114t145.5 -42h125v313h-125z" />
    <glyph glyph-name="uni0430" unicode="&#x430;" horiz-adv-x="540" 
d="M411 480.5q53 -50.5 53 -148.5v-332h-50q0 31 -2 81q-23 -43 -66.5 -67t-100.5 -24q-50 0 -92 18.5t-67.5 54t-25.5 85.5q0 76 62 119.5t161 43.5q58 0 124 -17v28q0 80 -35.5 118.5t-98.5 38.5q-50 0 -86 -22t-57 -63l-44 25q22 51 73.5 81.5t116.5 30.5q82 0 135 -50.5
zM407 246q-68 18 -124 18q-75 0 -119.5 -30t-44.5 -85q0 -52 37.5 -81t92.5 -29q66 0 112 39t46 107v61z" />
    <glyph glyph-name="uni0431" unicode="&#x431;" horiz-adv-x="586" 
d="M421.5 499q50.5 -32 80 -92.5t29.5 -143.5q0 -85 -30 -146.5t-83 -94t-121 -32.5q-107 0 -174.5 84.5t-67.5 264.5q0 108 23.5 201t78.5 146q30 29 65.5 43.5t68.5 18.5t84 6q42 1 67 4t43 13v-53q-16 -10 -39.5 -13t-61.5 -4q-68 -3 -111 -12.5t-78 -42.5
q-70 -66 -79 -251q24 62 75 99t118 37q62 0 112.5 -32zM422 102.5q46 59.5 46 157.5q0 99 -46.5 158t-124.5 59q-52 0 -92.5 -28t-62.5 -77.5t-22 -111.5t21.5 -111t62 -77.5t94.5 -28.5q78 0 124 59.5z" />
    <glyph glyph-name="uni0432" unicode="&#x432;" horiz-adv-x="520" 
d="M443.5 226.5q28.5 -32.5 28.5 -83.5q0 -67 -47 -105t-141 -38h-198v521h184q82 0 127.5 -38t45.5 -100q0 -41 -20.5 -70t-59.5 -43q52 -11 80.5 -43.5zM140 472v-182h125q61 0 90.5 25t29.5 67q0 41 -30 65.5t-91 24.5h-124zM276 49q138 0 138 97q0 46 -33 70.5
t-102 24.5h-139v-192h136z" />
    <glyph glyph-name="uni0433" unicode="&#x433;" horiz-adv-x="425" 
d="M86 521h329v-49h-273v-472h-56v521z" />
    <glyph glyph-name="uni0434" unicode="&#x434;" horiz-adv-x="598" 
d="M485 49h78l-6 -221h-48l-5 172h-425l-5 -172h-48l-6 221h35q42 0 64 27.5t31.5 82t15.5 158.5l13 204h306v-472zM429 49v423h-196l-11 -161q-7 -111 -19 -171.5t-40 -90.5h266z" />
    <glyph glyph-name="uni0435" unicode="&#x435;" horiz-adv-x="537" 
d="M400.5 500q47.5 -31 73 -83.5t25.5 -116.5q0 -21 -3 -44h-382q4 -103 54.5 -158t131.5 -55q45 0 80.5 19t55.5 57l44 -25q-21 -50 -71.5 -77t-111.5 -27q-67 0 -122 32.5t-87.5 94.5t-32.5 147q0 82 31.5 142.5t85 92.5t117.5 32t111.5 -31zM173 433q-47 -46 -56 -130
h321q0 79 -40.5 127.5t-110.5 48.5q-67 0 -114 -46z" />
    <glyph glyph-name="uni0436" unicode="&#x436;" horiz-adv-x="696" 
d="M444 286l172 235h66l-191 -257l197 -264h-71l-173 236h-68v-236h-56v236h-68l-173 -236h-71l197 264l-190 257h66l172 -235h67v235h56v-235h68z" />
    <glyph glyph-name="uni0437" unicode="&#x437;" horiz-adv-x="457" 
d="M377.5 227.5q34.5 -35.5 34.5 -88.5q0 -67 -52.5 -108t-143.5 -41q-73 0 -127 28.5t-77 85.5l44 27q44 -87 157 -87q65 0 102.5 26t37.5 73q0 49 -41.5 77t-116.5 28h-46v49h48q64 0 100.5 25t36.5 66t-34.5 65t-89.5 24q-49 0 -83.5 -20t-52.5 -59l-45 26q18 49 68 78
t118 29q79 0 128.5 -38t49.5 -99q0 -45 -29 -76.5t-79 -43.5q58 -11 92.5 -46.5z" />
    <glyph glyph-name="uni0438" unicode="&#x438;" horiz-adv-x="579" 
d="M141 521v-425l306 425h47v-521h-56v425l-306 -425h-46v521h55z" />
    <glyph glyph-name="uni0439" unicode="&#x439;" horiz-adv-x="579" 
d="M187 636.5q-39 38.5 -39 103.5h52q2 -45 26 -71t64 -26q42 0 65.5 25.5t25.5 71.5h52q0 -65 -39 -103.5t-104 -38.5q-64 0 -103 38.5zM141 521v-425l306 425h47v-521h-56v425l-306 -425h-46v521h55z" />
    <glyph glyph-name="uni043A" unicode="&#x43a;" horiz-adv-x="499" 
d="M223 286l193 234h69l-212 -256l219 -264h-75l-193 236h-82v-236h-56v521h56v-235h81z" />
    <glyph glyph-name="uni043B" unicode="&#x43b;" horiz-adv-x="551" 
d="M466 521v-521h-57v472h-230l-12 -290q-3 -68 -17.5 -109.5t-47 -62t-89.5 -20.5v55q39 0 60 15.5t29.5 46t10.5 81.5l13 333h340z" />
    <glyph glyph-name="uni043C" unicode="&#x43c;" horiz-adv-x="691" 
d="M553 521h53v-521h-56v417l-185 -313h-34l-190 310v-414h-55v521h53l210 -346z" />
    <glyph glyph-name="uni043D" unicode="&#x43d;" horiz-adv-x="576" 
d="M142 288h292v233h56v-521h-56v239h-292v-239h-56v521h56v-233z" />
    <glyph glyph-name="uni043E" unicode="&#x43e;" horiz-adv-x="588" 
d="M87.5 400q32.5 62 87.5 96.5t119 34.5t118.5 -34t87.5 -96t33 -141q0 -78 -33 -139.5t-87.5 -96t-118.5 -34.5t-119 34t-87.5 96t-32.5 140t32.5 140zM138 146q24 -49 65.5 -75.5t90.5 -26.5q50 0 90.5 26.5t64.5 75.5t24 114t-24 114.5t-64.5 76t-90.5 26.5
q-49 0 -90.5 -26.5t-65.5 -76t-24 -114.5t24 -114z" />
    <glyph glyph-name="uni043F" unicode="&#x43f;" horiz-adv-x="576" 
d="M86 521h404v-521h-56v472h-292v-472h-56v521z" />
    <glyph glyph-name="uni0440" unicode="&#x440;" horiz-adv-x="601" 
d="M434 499q51 -32 81.5 -93.5t30.5 -145.5q0 -83 -30.5 -144.5t-81.5 -93.5t-111 -32q-58 0 -107 31t-74 89v-342h-56v752h49q2 -90 4 -115q24 62 74 94t110 32t111 -32zM404 69q39 25 61 74t22 117q0 69 -22 118t-61 74t-88 25q-44 0 -83.5 -21.5t-65 -70.5t-25.5 -125
t25.5 -124.5t65 -70t83.5 -21.5q49 0 88 25z" />
    <glyph glyph-name="uni0441" unicode="&#x441;" horiz-adv-x="488" 
d="M425 122l45 -26q-25 -53 -71.5 -79.5t-104.5 -26.5q-67 0 -121.5 34t-86 95.5t-31.5 141.5t31.5 141.5t86 95t121.5 33.5q58 0 105 -26.5t71 -79.5l-45 -26q-41 78 -132 78q-52 0 -92.5 -26t-63.5 -75t-23 -115t23 -115t63.5 -75.5t92.5 -26.5q91 0 132 78z" />
    <glyph glyph-name="uni0442" unicode="&#x442;" horiz-adv-x="458" 
d="M11 472v49h435v-49h-189v-472h-56v472h-190z" />
    <glyph glyph-name="uni0443" unicode="&#x443;" horiz-adv-x="495" 
d="M425 520h60l-251 -628q-28 -72 -60 -104t-89 -32q-52 0 -82 25l23 47q10 -8 26.5 -13.5t32.5 -5.5q34 0 57 23t46 81l33 80l-213 527h66l177 -454z" />
    <glyph glyph-name="uni0444" unicode="&#x444;" horiz-adv-x="719" 
d="M628 123q-37 -59 -100.5 -92.5t-139.5 -39.5v-223h-56v223q-76 6 -139.5 39.5t-100.5 92.5t-37 137q0 79 37 138.5t100.5 93t139.5 38.5v152h56v-152q76 -5 139.5 -38.5t100.5 -93t37 -138.5q0 -78 -37 -137zM143 149q29 -47 79 -73.5t110 -30.5v431q-60 -4 -109.5 -30.5
t-79 -74t-29.5 -111.5t29 -111zM388 45q61 5 110 31.5t78 73.5t29 110q0 64 -29 111t-78 73.5t-110 31.5v-431z" />
    <glyph glyph-name="uni0445" unicode="&#x445;" horiz-adv-x="476" 
d="M241 306l154 214h66l-189 -258l189 -262h-70l-154 215l-155 -215h-67l191 259l-191 261h72z" />
    <glyph glyph-name="uni0446" unicode="&#x446;" horiz-adv-x="597" 
d="M490 521v-472h74l-5 -221h-46l-4 172h-423v521h56v-472h292v472h56z" />
    <glyph glyph-name="uni0447" unicode="&#x447;" horiz-adv-x="548" 
d="M406 521h56v-521h-56v254q-23 -41 -64.5 -62.5t-94.5 -21.5q-81 0 -131.5 45.5t-50.5 134.5v171h57v-156q0 -71 35 -106t98 -35q65 0 108 37.5t43 110.5v149z" />
    <glyph glyph-name="uni0448" unicode="&#x448;" horiz-adv-x="788" 
d="M422 49h224v472h57v-521h-617v521h56v-472h224v472h56v-472z" />
    <glyph glyph-name="uni0449" unicode="&#x449;" horiz-adv-x="810" 
d="M703 521v-472h74l-6 -221h-46l-4 172h-635v521h56v-472h224v472h56v-472h224v472h57z" />
    <glyph glyph-name="uni044A" unicode="&#x44a;" horiz-adv-x="599" 
d="M362 315q100 0 151.5 -43t51.5 -113q0 -71 -51.5 -115t-151.5 -44h-174v472h-167v49h224v-206h117zM353 49q152 0 152 110q0 52 -36 79t-116 27h-108v-216h108z" />
    <glyph glyph-name="uni044B" unicode="&#x44b;" horiz-adv-x="707" 
d="M259 315q101 0 152 -43t51 -113q0 -71 -51 -115t-152 -44h-173v521h56v-206h117zM622 0h-57v521h57v-521zM250 49q152 0 152 110q0 52 -36 79t-116 27h-108v-216h108z" />
    <glyph glyph-name="uni044C" unicode="&#x44c;" horiz-adv-x="497" 
d="M259 315q101 0 152 -43t51 -113q0 -71 -51 -115t-152 -44h-173v521h56v-206h117zM250 49q152 0 152 110q0 52 -36 79t-116 27h-108v-216h108z" />
    <glyph glyph-name="uni044D" unicode="&#x44d;" horiz-adv-x="488" 
d="M321 497.5q53 -33.5 82.5 -95t29.5 -141.5t-29.5 -141.5t-83 -95.5t-121.5 -34q-60 0 -109.5 27t-71.5 79l45 26q18 -40 54.5 -59.5t82.5 -19.5q77 0 123 54t50 148h-220v47h219q-7 87 -53 137t-119 50q-46 0 -82.5 -20t-54.5 -60l-45 26q22 53 71.5 79.5t109.5 26.5
q69 0 122 -33.5z" />
    <glyph glyph-name="uni044E" unicode="&#x44e;" horiz-adv-x="757" 
d="M591.5 499q50.5 -32 80.5 -93.5t30 -145.5q0 -83 -30 -144.5t-80.5 -93.5t-112.5 -32q-59 0 -108 29.5t-79.5 86t-34.5 134.5h-115v-240h-56v520h56v-231h116q5 75 35.5 129.5t79 83.5t106.5 29q62 0 112.5 -32zM563 70q37 26 58 75t21 115t-21 115.5t-58 75.5t-84 26
q-46 0 -83 -26t-58.5 -75t-21.5 -116q0 -66 21.5 -115t58.5 -75t83 -26q47 0 84 26z" />
    <glyph glyph-name="uni044F" unicode="&#x44f;" horiz-adv-x="517" 
d="M431 521v-521h-56v224h-116h-8l-165 -224h-66l172 231q-57 13 -90.5 50t-33.5 91q0 68 51 108.5t133 40.5h179zM375 272v200h-117q-61 0 -95.5 -26.5t-34.5 -73.5q0 -46 34.5 -73t95.5 -27h117z" />
    <glyph glyph-name="uni0450" unicode="&#x450;" horiz-adv-x="537" 
d="M173 743h63l81 -148h-51zM400.5 500q47.5 -31 73 -83.5t25.5 -116.5q0 -21 -3 -44h-382q4 -103 54.5 -158t131.5 -55q45 0 80.5 19t55.5 57l44 -25q-21 -50 -71.5 -77t-111.5 -27q-67 0 -122 32.5t-87.5 94.5t-32.5 147q0 82 31.5 142.5t85 92.5t117.5 32t111.5 -31z
M173 433q-47 -46 -56 -130h321q0 79 -40.5 127.5t-110.5 48.5q-67 0 -114 -46z" />
    <glyph glyph-name="uni0451" unicode="&#x451;" horiz-adv-x="537" 
d="M159 642.5q-12 12.5 -12 30.5q0 17 12 29.5t29 12.5t29.5 -12.5t12.5 -29.5q0 -18 -12 -30.5t-30 -12.5q-17 0 -29 12.5zM355.5 642.5q-12.5 12.5 -12.5 30.5q0 17 12 29.5t29 12.5q18 0 30.5 -12.5t12.5 -29.5q0 -18 -12.5 -30.5t-29.5 -12.5t-29.5 12.5zM400.5 500
q47.5 -31 73 -83.5t25.5 -116.5q0 -21 -3 -44h-382q4 -103 54.5 -158t131.5 -55q45 0 80.5 19t55.5 57l44 -25q-21 -50 -71.5 -77t-111.5 -27q-67 0 -122 32.5t-87.5 94.5t-32.5 147q0 82 31.5 142.5t85 92.5t117.5 32t111.5 -31zM173 433q-47 -46 -56 -130h321
q0 79 -40.5 127.5t-110.5 48.5q-67 0 -114 -46z" />
    <glyph glyph-name="uni0452" unicode="&#x452;" horiz-adv-x="578" 
d="M451 478q50 -53 50 -152v-395q0 -91 -35.5 -133t-94.5 -42q-44 0 -73 21l23 46q20 -14 48 -14q35 0 55 28t20 96v378q0 80 -35.5 123t-98.5 43q-42 0 -78.5 -19.5t-59 -58.5t-22.5 -94v-305h-56v612h-80v48h80v101h56v-101h161v-48h-161v-186q24 50 69.5 77.5t102.5 27.5
q79 0 129 -53z" />
    <glyph glyph-name="uni0453" unicode="&#x453;" horiz-adv-x="425" 
d="M229 595l81 148h63l-93 -148h-51zM86 521h329v-49h-273v-472h-56v521z" />
    <glyph glyph-name="uni0454" unicode="&#x454;" horiz-adv-x="488" 
d="M373.5 62.5q33.5 19.5 51.5 59.5l45 -26q-22 -52 -68.5 -79t-103.5 -27q-65 0 -121 34t-89 96t-33 141t33 140.5t89 95.5t121 34q57 0 103.5 -26.5t68.5 -79.5l-45 -26q-18 40 -51.5 60t-75.5 20q-46 0 -85.5 -23t-65 -65t-31.5 -99h219v-47h-219q2 -60 27 -106t65.5 -71
t89.5 -25q42 0 75.5 19.5z" />
    <glyph glyph-name="uni0455" unicode="&#x455;" horiz-adv-x="447" 
d="M360 31.5q-50 -41.5 -129 -41.5q-70 0 -123 32.5t-70 91.5l44 25q17 -48 56.5 -72.5t92.5 -24.5q54 0 87 25.5t33 68.5q0 33 -18.5 54t-46 32.5t-73.5 25.5q-52 16 -83 30.5t-52.5 41t-21.5 68.5q0 65 50 104t124 39q63 0 109 -28.5t63 -77.5l-44 -26q-14 37 -49 58.5
t-81 21.5q-49 0 -80.5 -23t-31.5 -63q0 -28 17 -46.5t42.5 -29t68.5 -23.5q53 -16 86 -31.5t56.5 -45t23.5 -76.5q0 -68 -50 -109.5z" />
    <glyph glyph-name="uni0456" unicode="&#x456;" horiz-adv-x="229" 
d="M85 647.5q-12 12.5 -12 29.5t12.5 30t28.5 13q18 0 30 -12.5t12 -30.5q0 -17 -12.5 -29.5t-29.5 -12.5t-29 12.5zM142 0h-56v520h56v-520z" />
    <glyph glyph-name="uni0457" unicode="&#x457;" horiz-adv-x="214" 
d="M17.5 643.5q-12.5 12.5 -12.5 29.5t12.5 30t28.5 13q18 0 30 -12.5t12 -30.5q0 -17 -12 -29.5t-29 -12.5t-29.5 12.5zM138 643.5q-12 12.5 -12 29.5t12 30t29 13t29.5 -13t12.5 -30t-12.5 -29.5t-29.5 -12.5t-29 12.5zM136 0h-57v520h57v-520z" />
    <glyph glyph-name="uni0458" unicode="&#x458;" horiz-adv-x="229" 
d="M85 647.5q-12 12.5 -12 29.5t12 30t29 13t29.5 -13t12.5 -30t-12 -29.5t-30 -12.5q-17 0 -29 12.5zM-62 -234q-26 10 -42 29l34 41q25 -27 62 -27q94 0 94 140v571h57v-574q0 -97 -42.5 -143.5t-107.5 -46.5q-29 0 -55 10z" />
    <glyph glyph-name="uni0459" unicode="&#x459;" horiz-adv-x="820" 
d="M583 315q101 0 152 -43t51 -113q0 -71 -51 -115t-152 -44h-174v472h-230l-12 -290q-3 -68 -17.5 -109.5t-47 -62t-89.5 -20.5v55q39 0 60 15.5t29.5 46t10.5 81.5l13 333h340v-206h117zM574 49q152 0 152 110q0 52 -36 79t-116 27h-108v-216h108z" />
    <glyph glyph-name="uni045A" unicode="&#x45a;" horiz-adv-x="845" 
d="M608 300q100 0 151 -40t51 -106q0 -69 -51 -111.5t-151 -42.5h-174v251h-292v-251h-56v521h56v-221h292v221h56v-221h118zM599 49q152 0 152 105q0 48 -36 72.5t-116 24.5h-109v-202h109z" />
    <glyph glyph-name="uni045B" unicode="&#x45b;" horiz-adv-x="577" 
d="M451 478q50 -53 50 -152v-326h-57v311q0 80 -35.5 123t-98.5 43q-42 0 -78.5 -19.5t-59 -58.5t-22.5 -94v-305h-56v612h-80v48h80v101h56v-101h161v-48h-161v-186q24 50 69.5 77.5t102.5 27.5q79 0 129 -53z" />
    <glyph glyph-name="uni045C" unicode="&#x45c;" horiz-adv-x="499" 
d="M249 596l80 148h64l-94 -148h-50zM223 286l193 234h69l-212 -256l219 -264h-75l-193 236h-82v-236h-56v521h56v-235h81z" />
    <glyph glyph-name="uni045D" unicode="&#x45d;" horiz-adv-x="579" 
d="M176 744h63l81 -148h-51zM141 521v-425l306 425h47v-521h-56v425l-306 -425h-46v521h55z" />
    <glyph glyph-name="uni045E" unicode="&#x45e;" horiz-adv-x="495" 
d="M148 636q-39 38 -39 103h52q2 -45 25.5 -71t64.5 -26q42 0 65.5 25.5t25.5 71.5h52q0 -65 -39 -103t-104 -38q-64 0 -103 38zM425 520h60l-251 -628q-28 -72 -60 -104t-89 -32q-52 0 -82 25l23 47q10 -8 26.5 -13.5t32.5 -5.5q34 0 57 23t46 81l33 80l-213 527h66
l177 -454z" />
    <glyph glyph-name="uni045F" unicode="&#x45f;" horiz-adv-x="576" 
d="M142 49h292v472h56v-521h-175l-4 -172h-46l-4 172h-175v521h56v-472z" />
    <glyph glyph-name="uni0462" unicode="&#x462;" horiz-adv-x="702" 
d="M409 413q127 0 193 -56t66 -151q0 -96 -65.5 -151t-193.5 -55h-235v561h-167v53h167v119h59v-119h220v-53h-220v-148h176zM397 52q104 0 156 42t52 112t-52 112t-156 42h-164v-308h164z" />
    <glyph glyph-name="uni0463" unicode="&#x463;" horiz-adv-x="534" 
d="M298 315q100 0 151 -43t51 -113q0 -71 -51 -115t-151 -44h-174v472h-118v49h118v240h56v-240h188v-49h-188v-157h118zM289 49q152 0 152 110q0 52 -36.5 79t-115.5 27h-109v-216h109z" />
    <glyph glyph-name="uni046B" unicode="&#x46b;" horiz-adv-x="616" 
d="M380 281q99 0 149.5 -72t50.5 -209h-55q0 116 -38 174.5t-112 58.5h-40v-233h-55v233h-40q-73 0 -111 -58.5t-38 -174.5h-55q0 137 50.5 209t148.5 72h20l-177 240h460l-179 -240h21zM439 473h-262l131 -178z" />
    <glyph glyph-name="uni0472" unicode="&#x472;" horiz-adv-x="753" 
d="M541.5 695.5q73.5 -47.5 115 -133t41.5 -195.5q0 -111 -41.5 -196.5t-115 -133t-164.5 -47.5t-164 47.5t-114.5 133t-41.5 196.5q0 110 41.5 195.5t114.5 133t164 47.5t164.5 -47.5zM249 653q-56 -36 -89.5 -101.5t-38.5 -150.5h513q-6 85 -39.5 150.5t-89.5 101.5
t-128 36t-128 -36zM508 83q57 38 90.5 106.5t36.5 157.5h-515q3 -89 36 -157.5t90 -106.5t131 -38t131 38z" />
    <glyph glyph-name="uni0473" unicode="&#x473;" horiz-adv-x="588" 
d="M412.5 497q54.5 -34 87.5 -96t33 -141q0 -78 -33 -139.5t-87.5 -96t-118.5 -34.5t-119 34t-87.5 96t-32.5 140t32.5 140t87.5 96.5t119 34.5t118.5 -34zM175.5 427q-49.5 -50 -58.5 -133h354q-9 83 -58.5 133t-118.5 50t-118.5 -50zM382.5 69q39.5 25 63 70.5t26.5 105.5
h-356q3 -61 27 -106.5t63.5 -70t87.5 -24.5q49 0 88.5 25z" />
    <glyph glyph-name="uni0474" unicode="&#x474;" horiz-adv-x="687" 
d="M699 733q20 -10 32 -24l-22 -45q-25 25 -52 25q-21 0 -36 -14.5t-32 -56.5l-243 -618h-45l-288 732h66l248 -645l207 546q24 62 51 86t69 24q25 0 45 -10z" />
    <glyph glyph-name="uni0475" unicode="&#x475;" horiz-adv-x="530" 
d="M530 521q20 -10 31 -24l-22 -46q-23 26 -53 26q-17 0 -30 -14.5t-30 -56.5l-160 -406h-45l-210 520h65l171 -442l128 343q23 62 47.5 86t61.5 24q26 0 46 -10z" />
    <glyph glyph-name="uni0490" unicode="&#x490;" horiz-adv-x="529" 
d="M93 733h368l18 144h49l-14 -198h-361v-679h-60v733z" />
    <glyph glyph-name="uni0491" unicode="&#x491;" horiz-adv-x="441" 
d="M86 521h292l14 122h47l-8 -171h-289v-472h-56v521z" />
    <glyph glyph-name="uni0492" unicode="&#x492;" horiz-adv-x="532" 
d="M95 732h422v-53h-363v-284h142v-53h-142v-342h-59v342h-93v53h93v337z" />
    <glyph glyph-name="uni0493" unicode="&#x493;" horiz-adv-x="451" 
d="M106 521h339v-49h-283v-188h142v-49h-142v-235h-56v235h-96v49h96v237z" />
    <glyph glyph-name="uni0497" unicode="&#x497;" horiz-adv-x="696" 
d="M682 521l-191 -257l161 -215h45l-6 -221h-47l-5 172h-22l-173 236h-68v-236h-56v236h-68l-173 -236h-71l197 264l-190 257h66l172 -235h67v235h56v-235h68l172 235h66z" />
    <glyph glyph-name="uni049A" unicode="&#x49a;" horiz-adv-x="624" 
d="M598 732l-279 -359l250 -319h53l-6 -226h-48l-5 172h-32l-265 345h-113v-345h-60v732h60v-334h117l258 334h70z" />
    <glyph glyph-name="uni049B" unicode="&#x49b;" horiz-adv-x="495" 
d="M485 520l-212 -256l178 -215h45l-6 -221h-47l-5 172h-21l-193 236h-82v-236h-56v521h56v-235h81l193 234h69z" />
    <glyph glyph-name="uni049C" unicode="&#x49c;" horiz-adv-x="636" 
d="M376 373l248 -373h-75l-225 345h-47v-149h-51v149h-73v-345h-60v732h60v-334h73v149h51v-149h50l216 334h67z" />
    <glyph glyph-name="uni049D" unicode="&#x49d;" horiz-adv-x="510" 
d="M262 286l169 234h65l-185 -256l192 -264h-71l-170 236h-24v-105h-45v105h-51v-236h-56v521h56v-235h51v106h45v-106h24z" />
    <glyph glyph-name="uni04A2" unicode="&#x4a2;" horiz-adv-x="753" 
d="M635 732v-678h55l-6 -226h-48l-4 172h-57v354h-422v-354h-60v732h60v-325h422v325h60z" />
    <glyph glyph-name="uni04A3" unicode="&#x4a3;" horiz-adv-x="598" 
d="M490 521v-472h55l-6 -221h-47l-5 172h-53v239h-292v-239h-56v521h56v-233h292v233h56z" />
    <glyph glyph-name="uni04AE" unicode="&#x4ae;" horiz-adv-x="596" 
d="M308 376l210 357h65l-248 -417v-316h-60v318l-262 415h71z" />
    <glyph glyph-name="uni04AF" unicode="&#x4af;" horiz-adv-x="494" 
d="M256 77l168 443h59l-202 -504v-248h-57v244l-213 508h65z" />
    <glyph glyph-name="uni04B0" unicode="&#x4b0;" horiz-adv-x="596" 
d="M308 376l210 357h65l-223 -375h159v-53h-184v-305h-60v305h-184v53h159l-237 375h71z" />
    <glyph glyph-name="uni04B1" unicode="&#x4b1;" horiz-adv-x="494" 
d="M256 71l168 449h59l-188 -471h142v-49h-156v-232h-57v232h-156v49h140l-197 471h65z" />
    <glyph glyph-name="uni04B2" unicode="&#x4b2;" horiz-adv-x="638" 
d="M616 732l-265 -359l233 -319h48l-6 -226h-48l-4 172h-22l-234 326l-236 -326h-67l272 370l-264 362h71l226 -316l229 316h67z" />
    <glyph glyph-name="uni04B3" unicode="&#x4b3;" horiz-adv-x="476" 
d="M461 520l-190 -259l154 -212h48l-6 -221h-47l-5 172h-19l-158 217l-157 -217h-66l191 260l-191 260h66l158 -215l157 215h65z" />
    <glyph glyph-name="uni04B8" unicode="&#x4b8;" horiz-adv-x="640" 
d="M487 732h60v-732h-60v368q-22 -46 -61.5 -73t-94.5 -34v-148h-51v144q-107 2 -168 61.5t-61 173.5v240h59v-227q0 -94 42.5 -143t127.5 -51v155h51v-150q70 11 113 59t43 138v219z" />
    <glyph glyph-name="uni04B9" unicode="&#x4b9;" horiz-adv-x="554" 
d="M412 521h56v-521h-56v255q-18 -33 -47.5 -53t-67.5 -27v-105h-51v100q-85 2 -133 48.5t-48 131.5v171h57v-156q0 -133 124 -140v128h51v-125q52 10 83.5 46t31.5 98v149z" />
    <glyph glyph-name="uni04BA" unicode="&#x4ba;" horiz-adv-x="640" 
d="M153 0h-60v732h60v-368q28 54 82 82.5t124 28.5q104 0 167 -58.5t63 -176.5v-240h-59v227q0 97 -45.5 145.5t-129.5 48.5q-86 0 -144 -49.5t-58 -152.5v-219z" />
    <glyph glyph-name="uni04BB" unicode="&#x4bb;" horiz-adv-x="569" 
d="M443 478q50 -53 50 -152v-326h-57v311q0 80 -35.5 123t-98.5 43q-42 0 -78.5 -19.5t-59 -58.5t-22.5 -94v-305h-56v761h56v-335q24 50 69.5 77.5t102.5 27.5q79 0 129 -53z" />
    <glyph glyph-name="uni04CA" unicode="&#x4ca;" horiz-adv-x="598" 
d="M490 521v-472h55l-72 -221h-47l47 172h-39v239h-292v-239h-56v521h56v-233h292v233h56z" />
    <glyph glyph-name="uni04D8" unicode="&#x4d8;" horiz-adv-x="696" 
d="M495.5 698.5q69.5 -44.5 107 -130t37.5 -203.5q0 -117 -37.5 -201.5t-105 -129t-156.5 -44.5q-88 0 -152.5 42.5t-98.5 115t-34 161.5q0 35 4 64h517q-4 157 -67.5 236t-178.5 79q-142 0 -208 -126l-44 30q34 74 101.5 112.5t152.5 38.5q93 0 162.5 -44.5zM505.5 115
q61.5 70 69.5 205h-456q-4 -80 22 -142.5t78 -97.5t124 -35q101 0 162.5 70z" />
    <glyph glyph-name="uni04D9" unicode="&#x4d9;" horiz-adv-x="535" 
d="M360 498.5q55 -32.5 87.5 -94.5t32.5 -147q0 -82 -31.5 -142.5t-85 -92.5t-117.5 -32t-111.5 31t-73 84t-25.5 117q0 22 3 44h382q-3 102 -54 157.5t-132 55.5q-45 0 -80.5 -19t-55.5 -57l-44 25q21 50 71.5 76.5t111.5 26.5q67 0 122 -32.5zM362 88.5q47 45.5 56 130.5
h-321q-1 -79 40 -127.5t111 -48.5q67 0 114 45.5z" />
    <glyph glyph-name="uni04E8" unicode="&#x4e8;" horiz-adv-x="753" 
d="M541.5 695.5q73.5 -47.5 115 -133t41.5 -195.5q0 -111 -41.5 -196.5t-115 -133t-164.5 -47.5t-164 47.5t-114.5 133t-41.5 196.5q0 110 41.5 195.5t114.5 133t164 47.5t164.5 -47.5zM249 653q-56 -36 -89.5 -101.5t-38.5 -150.5h513q-6 85 -39.5 150.5t-89.5 101.5
t-128 36t-128 -36zM508 83q57 38 90.5 106.5t36.5 157.5h-515q3 -89 36 -157.5t90 -106.5t131 -38t131 38z" />
    <glyph glyph-name="uni04E9" unicode="&#x4e9;" horiz-adv-x="588" 
d="M412.5 497q54.5 -34 87.5 -96t33 -141q0 -78 -33 -139.5t-87.5 -96t-118.5 -34.5t-119 34t-87.5 96t-32.5 140t32.5 140t87.5 96.5t119 34.5t118.5 -34zM175.5 427q-49.5 -50 -58.5 -133h354q-9 83 -58.5 133t-118.5 50t-118.5 -50zM382.5 69q39.5 25 63 70.5t26.5 105.5
h-356q3 -61 27 -106.5t63.5 -70t87.5 -24.5q49 0 88.5 25z" />
    <glyph glyph-name="uni1E00" unicode="&#x1e00;" horiz-adv-x="649" 
d="M345 732l291 -732h-67l-89 230h-320l-86 -230h-61l282 732h50zM460 284l-142 367l-138 -367h280zM264 -69q27 26 67 26q39 0 65 -26t26 -65q0 -40 -26 -66t-65 -26q-40 0 -67 26t-27 66q0 39 27 65zM292 -174q15 -16 39 -16q22 0 37 16t15 40t-14.5 39.5t-37.5 15.5
q-24 0 -39 -15.5t-15 -39.5t15 -40z" />
    <glyph glyph-name="uni1E01" unicode="&#x1e01;" horiz-adv-x="540" 
d="M411 480.5q53 -50.5 53 -148.5v-332h-50q0 31 -2 81q-23 -43 -66.5 -67t-100.5 -24q-50 0 -92 18.5t-67.5 54t-25.5 85.5q0 76 62 119.5t161 43.5q58 0 124 -17v28q0 80 -35.5 118.5t-98.5 38.5q-50 0 -86 -22t-57 -63l-44 25q22 51 73.5 81.5t116.5 30.5q82 0 135 -50.5
zM407 246q-68 18 -124 18q-75 0 -119.5 -30t-44.5 -85q0 -52 37.5 -81t92.5 -29q66 0 112 39t46 107v61zM349 -69q26 -26 26 -65q0 -40 -26 -66t-65 -26q-40 0 -67 26t-27 66q0 39 27 65t67 26q39 0 65 -26zM321.5 -174q14.5 16 14.5 40t-14.5 39.5t-37.5 15.5
q-24 0 -39 -15.5t-15 -39.5t15 -40t39 -16q23 0 37.5 16z" />
    <glyph glyph-name="uni1E3E" unicode="&#x1e3e;" horiz-adv-x="852" 
d="M407 808l82 120h63l-95 -120h-50zM709 732h49v-732h-57v616l-257 -405h-35l-259 406v-617h-57v732h52l283 -448z" />
    <glyph glyph-name="uni1E3F" unicode="&#x1e3f;" horiz-adv-x="842" 
d="M394 596l81 148h63l-93 -148h-51zM720.5 479q44.5 -52 44.5 -150v-329h-55v311q0 81 -31.5 123.5t-86.5 42.5q-37 0 -68.5 -19.5t-50.5 -58.5t-19 -94v-305h-56v311q0 81 -31.5 123.5t-85.5 42.5q-37 0 -69 -19.5t-51 -58.5t-19 -94v-305h-56v520h49q3 -80 4 -96
q22 51 63 79t92 28q54 0 94 -31t55 -91q21 59 64.5 90.5t97.5 31.5q71 0 115.5 -52z" />
    <glyph glyph-name="Wgrave" unicode="&#x1e80;" horiz-adv-x="954" 
d="M354 928h63l82 -120h-50zM505 733l194 -638l183 637h58l-220 -736h-49l-193 625l-187 -625h-48l-229 736h64l192 -637l184 638h51z" />
    <glyph glyph-name="wgrave" unicode="&#x1e81;" horiz-adv-x="760" 
d="M277 744h63l81 -148h-51zM405 520l150 -431l140 431h54l-178 -520h-38l-152 425l-143 -425h-39l-188 520h60l150 -431l139 431h45z" />
    <glyph glyph-name="Wacute" unicode="&#x1e82;" horiz-adv-x="954" 
d="M460 808l83 120h63l-95 -120h-51zM505 733l194 -638l183 637h58l-220 -736h-49l-193 625l-187 -625h-48l-229 736h64l192 -637l184 638h51z" />
    <glyph glyph-name="wacute" unicode="&#x1e83;" horiz-adv-x="760" 
d="M360 596l81 148h63l-93 -148h-51zM405 520l150 -431l140 431h54l-178 -520h-38l-152 425l-143 -425h-39l-188 520h60l150 -431l139 431h45z" />
    <glyph glyph-name="Wdieresis" unicode="&#x1e84;" horiz-adv-x="954" 
d="M352.5 853q-12.5 11 -12.5 27q0 15 12 26t29 11q18 0 30 -11t12 -26q0 -16 -12 -27t-29 -11t-29.5 11zM549 853q-12 11 -12 27q0 15 12 26t29 11t29.5 -11t12.5 -26q0 -16 -12 -27t-30 -11q-17 0 -29 11zM505 733l194 -638l183 637h58l-220 -736h-49l-193 625l-187 -625
h-48l-229 736h64l192 -637l184 638h51z" />
    <glyph glyph-name="wdieresis" unicode="&#x1e85;" horiz-adv-x="760" 
d="M262.5 643q-12.5 12 -12.5 30t12 30.5t29 12.5q18 0 30.5 -12.5t12.5 -30.5t-12.5 -30t-29.5 -12t-29.5 12zM459 643q-12 12 -12 30t12 30.5t29 12.5t29.5 -12.5t12.5 -30.5t-12 -30t-30 -12q-17 0 -29 12zM405 520l150 -431l140 431h54l-178 -520h-38l-152 425
l-143 -425h-39l-188 520h60l150 -431l139 431h45z" />
    <glyph glyph-name="uni1EA0" unicode="&#x1ea0;" horiz-adv-x="649" 
d="M345 732l291 -732h-67l-89 230h-320l-86 -230h-61l282 732h50zM460 284l-142 367l-138 -367h280zM301.5 -158q-12.5 13 -12.5 30t12.5 29.5t29.5 12.5t29 -12.5t12 -29.5t-12.5 -30t-28.5 -13q-17 0 -29.5 13z" />
    <glyph glyph-name="uni1EA1" unicode="&#x1ea1;" horiz-adv-x="540" 
d="M411 480.5q53 -50.5 53 -148.5v-332h-50q0 31 -2 81q-23 -43 -66.5 -67t-100.5 -24q-50 0 -92 18.5t-67.5 54t-25.5 85.5q0 76 62 119.5t161 43.5q58 0 124 -17v28q0 80 -35.5 118.5t-98.5 38.5q-50 0 -86 -22t-57 -63l-44 25q22 51 73.5 81.5t116.5 30.5q82 0 135 -50.5
zM407 246q-68 18 -124 18q-75 0 -119.5 -30t-44.5 -85q0 -52 37.5 -81t92.5 -29q66 0 112 39t46 107v61zM313 -98.5q12 -12.5 12 -29.5t-12.5 -30t-28.5 -13q-17 0 -29.5 13t-12.5 30t12.5 29.5t29.5 12.5t29 -12.5z" />
    <glyph glyph-name="uni1EA2" unicode="&#x1ea2;" horiz-adv-x="649" 
d="M239 914q31 14 72 14q42 0 70 -16t28 -47q0 -53 -90 -76l-24 25q65 17 65 48q0 16 -15.5 26t-41.5 10q-29 0 -55 -13zM345 732l291 -732h-67l-89 230h-320l-86 -230h-61l282 732h50zM460 284l-142 367l-138 -367h280z" />
    <glyph glyph-name="uni1EA3" unicode="&#x1ea3;" horiz-adv-x="540" 
d="M196 705l-8 39q32 19 72 19q42 0 70 -21.5t28 -61.5q0 -70 -91 -101l-23 33q32 11 48.5 25.5t16.5 36.5t-15.5 34.5t-41.5 12.5q-29 0 -56 -16zM411 480.5q53 -50.5 53 -148.5v-332h-50q0 31 -2 81q-23 -43 -66.5 -67t-100.5 -24q-50 0 -92 18.5t-67.5 54t-25.5 85.5
q0 76 62 119.5t161 43.5q58 0 124 -17v28q0 80 -35.5 118.5t-98.5 38.5q-50 0 -86 -22t-57 -63l-44 25q22 51 73.5 81.5t116.5 30.5q82 0 135 -50.5zM407 246q-68 18 -124 18q-75 0 -119.5 -30t-44.5 -85q0 -52 37.5 -81t92.5 -29q66 0 112 39t46 107v61z" />
    <glyph glyph-name="uni1EA4" unicode="&#x1ea4;" horiz-adv-x="649" 
d="M410 865l81 63h64l-94 -63h-51zM298 852h53l117 -64h-71l-72 39l-73 -39h-70zM345 732l291 -732h-67l-89 230h-320l-86 -230h-61l282 732h50zM460 284l-142 367l-138 -367h280z" />
    <glyph glyph-name="uni1EA5" unicode="&#x1ea5;" horiz-adv-x="540" 
d="M422 896h63l-88 -132h-50zM349 595l-78 106l-78 -106h-58l110 148h51l111 -148h-58zM411 480.5q53 -50.5 53 -148.5v-332h-50q0 31 -2 81q-23 -43 -66.5 -67t-100.5 -24q-50 0 -92 18.5t-67.5 54t-25.5 85.5q0 76 62 119.5t161 43.5q58 0 124 -17v28q0 80 -35.5 118.5
t-98.5 38.5q-50 0 -86 -22t-57 -63l-44 25q22 51 73.5 81.5t116.5 30.5q82 0 135 -50.5zM407 246q-68 18 -124 18q-75 0 -119.5 -30t-44.5 -85q0 -52 37.5 -81t92.5 -29q66 0 112 39t46 107v61z" />
    <glyph glyph-name="uni1EA6" unicode="&#x1ea6;" horiz-adv-x="649" 
d="M303 928h64l82 -63h-52zM298 852h53l117 -64h-71l-72 39l-73 -39h-70zM345 732l291 -732h-67l-89 230h-320l-86 -230h-61l282 732h50zM460 284l-142 367l-138 -367h280z" />
    <glyph glyph-name="uni1EA7" unicode="&#x1ea7;" horiz-adv-x="540" 
d="M332 896l75 -132h-50l-89 132h64zM349 595l-78 106l-78 -106h-58l110 148h51l111 -148h-58zM411 480.5q53 -50.5 53 -148.5v-332h-50q0 31 -2 81q-23 -43 -66.5 -67t-100.5 -24q-50 0 -92 18.5t-67.5 54t-25.5 85.5q0 76 62 119.5t161 43.5q58 0 124 -17v28
q0 80 -35.5 118.5t-98.5 38.5q-50 0 -86 -22t-57 -63l-44 25q22 51 73.5 81.5t116.5 30.5q82 0 135 -50.5zM407 246q-68 18 -124 18q-75 0 -119.5 -30t-44.5 -85q0 -52 37.5 -81t92.5 -29q66 0 112 39t46 107v61z" />
    <glyph glyph-name="uni1EA8" unicode="&#x1ea8;" horiz-adv-x="649" 
d="M347 920q32 8 72 8q42 0 70 -9t28 -27q0 -29 -91 -44l-23 16q67 8 67 25q0 8 -16 12.5t-42 4.5q-33 0 -57 -6zM298 852h53l117 -64h-71l-72 40l-73 -40h-70zM345 732l291 -732h-67l-89 230h-320l-86 -230h-61l282 732h50zM460 284l-142 367l-138 -367h280z" />
    <glyph glyph-name="uni1EA9" unicode="&#x1ea9;" horiz-adv-x="540" 
d="M304 852l-8 39q32 21 73 21q42 0 69.5 -21.5t27.5 -62.5q0 -37 -25 -62t-66 -38l-23 33q31 10 48 25t17 37t-15.5 34.5t-40.5 12.5q-29 0 -57 -18zM349 595l-78 106l-78 -106h-58l110 148h51l111 -148h-58zM411 480.5q53 -50.5 53 -148.5v-332h-50q0 31 -2 81
q-23 -43 -66.5 -67t-100.5 -24q-50 0 -92 18.5t-67.5 54t-25.5 85.5q0 76 62 119.5t161 43.5q58 0 124 -17v28q0 80 -35.5 118.5t-98.5 38.5q-50 0 -86 -22t-57 -63l-44 25q22 51 73.5 81.5t116.5 30.5q82 0 135 -50.5zM407 246q-68 18 -124 18q-75 0 -119.5 -30t-44.5 -85
q0 -52 37.5 -81t92.5 -29q66 0 112 39t46 107v61z" />
    <glyph glyph-name="uni1EAA" unicode="&#x1eaa;" horiz-adv-x="649" 
d="M177 876q2 23 26 37.5t64 14.5q25 0 41.5 -4.5t33.5 -12.5q13 -7 23 -10t24 -3q37 0 44 25h47q-2 -22 -26 -37t-63 -15q-25 0 -40.5 4.5t-35.5 13.5q-14 7 -23.5 10t-22.5 3q-37 0 -45 -26h-47zM298 854h53l117 -66h-71l-72 40l-73 -40h-70zM345 732l291 -732h-67
l-89 230h-320l-86 -230h-61l282 732h50zM460 284l-142 367l-138 -367h280z" />
    <glyph glyph-name="uni1EAB" unicode="&#x1eab;" horiz-adv-x="540" 
d="M168 786h-47q2 49 26 81t64 32q25 0 41.5 -11.5t33.5 -32.5q13 -16 23.5 -24t23.5 -8q19 0 30 17.5t14 46.5h48q-2 -49 -26.5 -81t-63.5 -32q-25 0 -41.5 11.5t-34.5 32.5q-14 16 -23.5 23.5t-22.5 7.5q-36 0 -45 -63zM136 595l110 148h51l110 -148h-57l-78 106l-78 -106
h-58zM411 480.5q53 -50.5 53 -148.5v-332h-50q0 31 -2 81q-23 -43 -66.5 -67t-100.5 -24q-50 0 -92 18.5t-67.5 54t-25.5 85.5q0 76 62 119.5t161 43.5q58 0 124 -17v28q0 80 -35.5 118.5t-98.5 38.5q-50 0 -86 -22t-57 -63l-44 25q22 51 73.5 81.5t116.5 30.5
q82 0 135 -50.5zM407 246q-68 18 -124 18q-75 0 -119.5 -30t-44.5 -85q0 -52 37.5 -81t92.5 -29q66 0 112 39t46 107v61z" />
    <glyph glyph-name="uni1EAC" unicode="&#x1eac;" horiz-adv-x="649" 
d="M298 928h53l117 -120h-61l-82 88l-83 -88h-60zM345 732l291 -732h-67l-89 230h-320l-86 -230h-61l282 732h50zM460 284l-142 367l-138 -367h280zM301.5 -158q-12.5 13 -12.5 30t12.5 29.5t29.5 12.5t29 -12.5t12 -29.5t-12.5 -30t-28.5 -13q-17 0 -29.5 13z" />
    <glyph glyph-name="uni1EAD" unicode="&#x1ead;" horiz-adv-x="540" 
d="M351 595l-78 105l-78 -105h-58l110 148h52l110 -148h-58zM411 480.5q53 -50.5 53 -148.5v-332h-50q0 31 -2 81q-23 -43 -66.5 -67t-100.5 -24q-50 0 -92 18.5t-67.5 54t-25.5 85.5q0 76 62 119.5t161 43.5q58 0 124 -17v28q0 80 -35.5 118.5t-98.5 38.5q-50 0 -86 -22
t-57 -63l-44 25q22 51 73.5 81.5t116.5 30.5q82 0 135 -50.5zM407 246q-68 18 -124 18q-75 0 -119.5 -30t-44.5 -85q0 -52 37.5 -81t92.5 -29q66 0 112 39t46 107v61zM313 -98.5q12 -12.5 12 -29.5t-12.5 -30t-28.5 -13q-17 0 -29.5 13t-12.5 30t12.5 29.5t29.5 12.5
t29 -12.5z" />
    <glyph glyph-name="uni1EAE" unicode="&#x1eae;" horiz-adv-x="649" 
d="M306 867l81 61h65l-95 -61h-51zM224 805q-38 17 -38 45h52q1 -16 24.5 -25.5t62.5 -9.5q40 0 63.5 9t25.5 26h52q0 -29 -38 -45.5t-103 -16.5q-63 0 -101 17zM345 732l291 -732h-67l-89 230h-320l-86 -230h-61l282 732h50zM460 284l-142 367l-138 -367h280z" />
    <glyph glyph-name="uni1EAF" unicode="&#x1eaf;" horiz-adv-x="540" 
d="M319 896h63l-88 -132h-51zM171 636q-39 38 -39 103h52q2 -45 26 -70.5t64 -25.5q42 0 65.5 25.5t25.5 70.5h52q0 -65 -39 -103t-104 -38q-64 0 -103 38zM411 480.5q53 -50.5 53 -148.5v-332h-50q0 31 -2 81q-23 -43 -66.5 -67t-100.5 -24q-50 0 -92 18.5t-67.5 54
t-25.5 85.5q0 76 62 119.5t161 43.5q58 0 124 -17v28q0 80 -35.5 118.5t-98.5 38.5q-50 0 -86 -22t-57 -63l-44 25q22 51 73.5 81.5t116.5 30.5q82 0 135 -50.5zM407 246q-68 18 -124 18q-75 0 -119.5 -30t-44.5 -85q0 -52 37.5 -81t92.5 -29q66 0 112 39t46 107v61z" />
    <glyph glyph-name="uni1EB0" unicode="&#x1eb0;" horiz-adv-x="649" 
d="M199 928h64l82 -61h-52zM224 805q-38 17 -38 45h52q1 -16 24.5 -25.5t62.5 -9.5q40 0 63.5 9t25.5 26h52q0 -29 -38 -45.5t-103 -16.5q-63 0 -101 17zM345 732l291 -732h-67l-89 230h-320l-86 -230h-61l282 732h50zM460 284l-142 367l-138 -367h280z" />
    <glyph glyph-name="uni1EB1" unicode="&#x1eb1;" horiz-adv-x="540" 
d="M229 896l75 -132h-50l-89 132h64zM171 636q-39 38 -39 103h52q2 -45 26 -70.5t64 -25.5q42 0 65.5 25.5t25.5 70.5h52q0 -65 -39 -103t-104 -38q-64 0 -103 38zM411 480.5q53 -50.5 53 -148.5v-332h-50q0 31 -2 81q-23 -43 -66.5 -67t-100.5 -24q-50 0 -92 18.5t-67.5 54
t-25.5 85.5q0 76 62 119.5t161 43.5q58 0 124 -17v28q0 80 -35.5 118.5t-98.5 38.5q-50 0 -86 -22t-57 -63l-44 25q22 51 73.5 81.5t116.5 30.5q82 0 135 -50.5zM407 246q-68 18 -124 18q-75 0 -119.5 -30t-44.5 -85q0 -52 37.5 -81t92.5 -29q66 0 112 39t46 107v61z" />
    <glyph glyph-name="uni1EB2" unicode="&#x1eb2;" horiz-adv-x="649" 
d="M243 920q32 8 72 8q42 0 70 -9t28 -25q0 -29 -91 -42l-23 15q68 8 68 24q0 7 -16 11.5t-43 4.5q-33 0 -57 -6zM224 804.5q-38 16.5 -38 44.5h52q1 -16 24.5 -25.5t62.5 -9.5q40 0 63.5 9t25.5 26h52q0 -28 -38 -44.5t-103 -16.5q-63 0 -101 16.5zM345 732l291 -732h-67
l-89 230h-320l-86 -230h-61l282 732h50zM460 284l-142 367l-138 -367h280z" />
    <glyph glyph-name="uni1EB3" unicode="&#x1eb3;" horiz-adv-x="540" 
d="M196 869l-8 37q32 19 72 19q42 0 70 -21.5t28 -60.5q0 -37 -25 -61t-66 -37l-23 32q32 11 48.5 25t16.5 36q0 21 -15.5 33.5t-41.5 12.5q-29 0 -56 -15zM171 635.5q-39 37.5 -39 101.5h52q2 -45 26 -70.5t64 -25.5q42 0 65.5 25.5t25.5 70.5h52q0 -64 -39 -101.5
t-104 -37.5q-64 0 -103 37.5zM411 480.5q53 -50.5 53 -148.5v-332h-50q0 31 -2 81q-23 -43 -66.5 -67t-100.5 -24q-50 0 -92 18.5t-67.5 54t-25.5 85.5q0 76 62 119.5t161 43.5q58 0 124 -17v28q0 80 -35.5 118.5t-98.5 38.5q-50 0 -86 -22t-57 -63l-44 25q22 51 73.5 81.5
t116.5 30.5q82 0 135 -50.5zM407 246q-68 18 -124 18q-75 0 -119.5 -30t-44.5 -85q0 -52 37.5 -81t92.5 -29q66 0 112 39t46 107v61z" />
    <glyph glyph-name="uni1EB4" unicode="&#x1eb4;" horiz-adv-x="649" 
d="M173 877q2 22 26.5 36.5t63.5 14.5q25 0 41 -4.5t35 -12.5q10 -5 21.5 -8.5t24.5 -3.5q36 0 45 24h47q-2 -22 -26 -36t-64 -14q-25 0 -41.5 4.5t-33.5 12.5q-15 6 -24.5 9t-22.5 3q-37 0 -44 -25h-48zM224 805.5q-38 17.5 -38 46.5h52q1 -17 24.5 -27t62.5 -10
q40 0 63.5 10t25.5 27h52q0 -29 -38 -46.5t-103 -17.5q-63 0 -101 17.5zM345 732l291 -732h-67l-89 230h-320l-86 -230h-61l282 732h50zM460 284l-142 367l-138 -367h280z" />
    <glyph glyph-name="uni1EB5" unicode="&#x1eb5;" horiz-adv-x="540" 
d="M170 786h-48q2 49 26 81t64 32q25 0 41.5 -11.5t33.5 -32.5q13 -16 23.5 -24t23.5 -8q19 0 30 17.5t14 46.5h48q-2 -49 -26.5 -81t-63.5 -32q-25 0 -41.5 11.5t-34.5 32.5q-14 16 -23.5 23.5t-22.5 7.5q-37 0 -44 -63zM339.5 668.5q23.5 25.5 25.5 70.5h52
q0 -65 -39 -103t-104 -38q-64 0 -103 38t-39 103h52q2 -45 26 -70.5t64 -25.5q42 0 65.5 25.5zM411 480.5q53 -50.5 53 -148.5v-332h-50q0 31 -2 81q-23 -43 -66.5 -67t-100.5 -24q-50 0 -92 18.5t-67.5 54t-25.5 85.5q0 76 62 119.5t161 43.5q58 0 124 -17v28
q0 80 -35.5 118.5t-98.5 38.5q-50 0 -86 -22t-57 -63l-44 25q22 51 73.5 81.5t116.5 30.5q82 0 135 -50.5zM407 246q-68 18 -124 18q-75 0 -119.5 -30t-44.5 -85q0 -52 37.5 -81t92.5 -29q66 0 112 39t46 107v61z" />
    <glyph glyph-name="uni1EB6" unicode="&#x1eb6;" horiz-adv-x="649" 
d="M224 840.5q-38 32.5 -38 87.5h52q1 -40 24.5 -62t62.5 -22q40 0 63.5 22t25.5 62h52q0 -56 -38 -88t-103 -32q-63 0 -101 32.5zM345 732l291 -732h-67l-89 230h-320l-86 -230h-61l282 732h50zM460 284l-142 367l-138 -367h280zM301.5 -158q-12.5 13 -12.5 30t12.5 29.5
t29.5 12.5t29 -12.5t12 -29.5t-12.5 -30t-28.5 -13q-17 0 -29.5 13z" />
    <glyph glyph-name="uni1EB7" unicode="&#x1eb7;" horiz-adv-x="540" 
d="M171 636q-39 38 -39 103h52q2 -45 26 -70.5t64 -25.5q42 0 65.5 25.5t25.5 70.5h52q0 -65 -39 -103t-104 -38q-64 0 -103 38zM411 480.5q53 -50.5 53 -148.5v-332h-50q0 31 -2 81q-23 -43 -66.5 -67t-100.5 -24q-50 0 -92 18.5t-67.5 54t-25.5 85.5q0 76 62 119.5
t161 43.5q58 0 124 -17v28q0 80 -35.5 118.5t-98.5 38.5q-50 0 -86 -22t-57 -63l-44 25q22 51 73.5 81.5t116.5 30.5q82 0 135 -50.5zM407 246q-68 18 -124 18q-75 0 -119.5 -30t-44.5 -85q0 -52 37.5 -81t92.5 -29q66 0 112 39t46 107v61zM313 -98.5q12 -12.5 12 -29.5
t-12.5 -30t-28.5 -13q-17 0 -29.5 13t-12.5 30t12.5 29.5t29.5 12.5t29 -12.5z" />
    <glyph glyph-name="uni1EB8" unicode="&#x1eb8;" horiz-adv-x="579" 
d="M479 353h-326v-300h373v-53h-433v733h422v-53h-362v-274h326v-53zM274.5 -158q-12.5 13 -12.5 30t12.5 29.5t29.5 12.5t29 -12.5t12 -29.5t-12.5 -30t-28.5 -13q-17 0 -29.5 13z" />
    <glyph glyph-name="uni1EB9" unicode="&#x1eb9;" horiz-adv-x="537" 
d="M400.5 500q47.5 -31 73 -83.5t25.5 -116.5q0 -21 -3 -44h-382q4 -103 54.5 -158t131.5 -55q45 0 80.5 19t55.5 57l44 -25q-21 -50 -71.5 -77t-111.5 -27q-67 0 -122 32.5t-87.5 94.5t-32.5 147q0 82 31.5 142.5t85 92.5t117.5 32t111.5 -31zM173 433q-47 -46 -56 -130
h321q0 79 -40.5 127.5t-110.5 48.5q-67 0 -114 -46zM267 -158q-12 13 -12 30t12 29.5t29 12.5t29.5 -12.5t12.5 -29.5t-12.5 -30t-29.5 -13t-29 13z" />
    <glyph glyph-name="uni1EBA" unicode="&#x1eba;" horiz-adv-x="579" 
d="M218 914q30 14 72 14t70 -16t28 -47q0 -28 -25 -47t-66 -29l-24 24q32 9 49 20.5t17 27.5t-16 26.5t-41 10.5q-27 0 -56 -13zM479 353h-326v-300h373v-53h-433v733h422v-53h-362v-274h326v-53z" />
    <glyph glyph-name="uni1EBB" unicode="&#x1ebb;" horiz-adv-x="537" 
d="M201 744q32 19 72 19q42 0 70 -21.5t28 -61.5q0 -70 -91 -101l-24 33q32 12 49 26t17 36t-15.5 34.5t-41.5 12.5q-29 0 -56 -16zM400.5 500q47.5 -31 73 -83.5t25.5 -116.5q0 -21 -3 -44h-382q4 -103 54.5 -158t131.5 -55q45 0 80.5 19t55.5 57l44 -25q-21 -50 -71.5 -77
t-111.5 -27q-67 0 -122 32.5t-87.5 94.5t-32.5 147q0 82 31.5 142.5t85 92.5t117.5 32t111.5 -31zM173 433q-47 -46 -56 -130h321q0 79 -40.5 127.5t-110.5 48.5q-67 0 -114 -46z" />
    <glyph glyph-name="uni1EBC" unicode="&#x1ebc;" horiz-adv-x="579" 
d="M152 825q2 43 26 70.5t64 27.5q25 0 41.5 -10t33.5 -28q13 -14 23.5 -21t23.5 -7q35 0 44 57h47q-2 -43 -26 -70.5t-63 -27.5q-26 0 -42.5 10t-33.5 28q-14 14 -24 20.5t-23 6.5q-36 0 -44 -56h-47zM479 353h-326v-300h373v-53h-433v733h422v-53h-362v-274h326v-53z" />
    <glyph glyph-name="uni1EBD" unicode="&#x1ebd;" horiz-adv-x="537" 
d="M135 617q2 49 26 81t64 32q25 0 41.5 -11t33.5 -32q13 -16 23.5 -24t23.5 -8q19 0 30 17t14 46h47q-2 -49 -26 -81t-63 -32q-25 0 -41.5 11.5t-34.5 32.5q-14 17 -23.5 24.5t-22.5 7.5q-36 0 -45 -64h-47zM400.5 500q47.5 -31 73 -83.5t25.5 -116.5q0 -21 -3 -44h-382
q4 -103 54.5 -158t131.5 -55q45 0 80.5 19t55.5 57l44 -25q-21 -50 -71.5 -77t-111.5 -27q-67 0 -122 32.5t-87.5 94.5t-32.5 147q0 82 31.5 142.5t85 92.5t117.5 32t111.5 -31zM173 433q-47 -46 -56 -130h321q0 79 -40.5 127.5t-110.5 48.5q-67 0 -114 -46z" />
    <glyph glyph-name="uni1EBE" unicode="&#x1ebe;" horiz-adv-x="579" 
d="M388 865l81 63h65l-94 -63h-52zM276 852h54l116 -64h-70l-72 39l-74 -39h-70zM479 353h-326v-300h373v-53h-433v733h422v-53h-362v-274h326v-53z" />
    <glyph glyph-name="uni1EBF" unicode="&#x1ebf;" horiz-adv-x="537" 
d="M359 764l81 148h63l-93 -148h-51zM258 743h51l111 -148h-58l-78 106l-78 -106h-58zM400.5 500q47.5 -31 73 -83.5t25.5 -116.5q0 -21 -3 -44h-382q4 -103 54.5 -158t131.5 -55q45 0 80.5 19t55.5 57l44 -25q-21 -50 -71.5 -77t-111.5 -27q-67 0 -122 32.5t-87.5 94.5
t-32.5 147q0 82 31.5 142.5t85 92.5t117.5 32t111.5 -31zM173 433q-47 -46 -56 -130h321q0 79 -40.5 127.5t-110.5 48.5q-67 0 -114 -46z" />
    <glyph glyph-name="uni1EC0" unicode="&#x1ec0;" horiz-adv-x="579" 
d="M281 928h64l82 -63h-52zM276 852h54l116 -64h-70l-72 39l-74 -39h-70zM479 353h-326v-300h373v-53h-433v733h422v-53h-362v-274h326v-53z" />
    <glyph glyph-name="uni1EC1" unicode="&#x1ec1;" horiz-adv-x="537" 
d="M276 912h63l81 -148h-51zM258 743h51l111 -148h-58l-78 106l-78 -106h-58zM400.5 500q47.5 -31 73 -83.5t25.5 -116.5q0 -21 -3 -44h-382q4 -103 54.5 -158t131.5 -55q45 0 80.5 19t55.5 57l44 -25q-21 -50 -71.5 -77t-111.5 -27q-67 0 -122 32.5t-87.5 94.5t-32.5 147
q0 82 31.5 142.5t85 92.5t117.5 32t111.5 -31zM173 433q-47 -46 -56 -130h321q0 79 -40.5 127.5t-110.5 48.5q-67 0 -114 -46z" />
    <glyph glyph-name="uni1EC2" unicode="&#x1ec2;" horiz-adv-x="579" 
d="M325 919q32 8 72 8q42 0 70 -9t28 -26q0 -29 -91 -44l-22 16q67 8 67 25q0 7 -16 12t-42 5q-34 0 -58 -7zM276 852h54l116 -64h-70l-72 40l-74 -40h-70zM479 353h-326v-300h373v-53h-433v733h422v-53h-362v-274h326v-53z" />
    <glyph glyph-name="uni1EC3" unicode="&#x1ec3;" horiz-adv-x="537" 
d="M309 891q32 21 72 21q42 0 70 -21.5t28 -62.5q0 -37 -25 -62t-66 -38l-24 33q32 10 49 25t17 37t-15.5 34.5t-41.5 12.5q-28 0 -56 -18zM258 743h51l111 -148h-58l-78 106l-78 -106h-58zM400.5 500q47.5 -31 73 -83.5t25.5 -116.5q0 -21 -3 -44h-382q4 -103 54.5 -158
t131.5 -55q45 0 80.5 19t55.5 57l44 -25q-21 -50 -71.5 -77t-111.5 -27q-67 0 -122 32.5t-87.5 94.5t-32.5 147q0 82 31.5 142.5t85 92.5t117.5 32t111.5 -31zM173 433q-47 -46 -56 -130h321q0 79 -40.5 127.5t-110.5 48.5q-67 0 -114 -46z" />
    <glyph glyph-name="uni1EC4" unicode="&#x1ec4;" horiz-adv-x="579" 
d="M156 876q2 22 26 37t63 15q26 0 42.5 -4.5t33.5 -12.5q13 -7 23 -10t24 -3q36 0 44 25h47q-2 -23 -26 -37.5t-64 -14.5q-26 0 -42.5 4.5t-32.5 13.5q-13 7 -23 10t-24 3q-36 0 -44 -26h-47zM277 854h53l117 -66h-71l-72 40l-73 -40h-71zM479 353h-326v-300h373v-53h-433
v733h422v-53h-362v-274h326v-53z" />
    <glyph glyph-name="uni1EC5" unicode="&#x1ec5;" horiz-adv-x="537" 
d="M181 786h-47q2 49 26 81t63 32q26 0 42.5 -11.5t33.5 -32.5q13 -16 23.5 -24t23.5 -8q35 0 44 64h47q-2 -49 -26 -81t-64 -32q-25 0 -41.5 11t-33.5 32q-13 16 -23.5 24t-23.5 8q-35 0 -44 -63zM259 743h51l110 -148h-58l-77 106l-78 -106h-58zM400.5 500
q47.5 -31 73 -83.5t25.5 -116.5q0 -21 -3 -44h-382q4 -103 54.5 -158t131.5 -55q45 0 80.5 19t55.5 57l44 -25q-21 -50 -71.5 -77t-111.5 -27q-67 0 -122 32.5t-87.5 94.5t-32.5 147q0 82 31.5 142.5t85 92.5t117.5 32t111.5 -31zM173 433q-47 -46 -56 -130h321
q0 79 -40.5 127.5t-110.5 48.5q-67 0 -114 -46z" />
    <glyph glyph-name="uni1EC6" unicode="&#x1ec6;" horiz-adv-x="579" 
d="M276 928h54l116 -120h-61l-81 88l-83 -88h-61zM479 353h-326v-300h373v-53h-433v733h422v-53h-362v-274h326v-53zM274.5 -158q-12.5 13 -12.5 30t12.5 29.5t29.5 12.5t29 -12.5t12 -29.5t-12.5 -30t-28.5 -13q-17 0 -29.5 13z" />
    <glyph glyph-name="uni1EC7" unicode="&#x1ec7;" horiz-adv-x="537" 
d="M260 743h52l110 -148h-58l-78 105l-78 -105h-58zM400.5 500q47.5 -31 73 -83.5t25.5 -116.5q0 -21 -3 -44h-382q4 -103 54.5 -158t131.5 -55q45 0 80.5 19t55.5 57l44 -25q-21 -50 -71.5 -77t-111.5 -27q-67 0 -122 32.5t-87.5 94.5t-32.5 147q0 82 31.5 142.5t85 92.5
t117.5 32t111.5 -31zM173 433q-47 -46 -56 -130h321q0 79 -40.5 127.5t-110.5 48.5q-67 0 -114 -46zM267 -158q-12 13 -12 30t12 29.5t29 12.5t29.5 -12.5t12.5 -29.5t-12.5 -30t-29.5 -13t-29 13z" />
    </font>
</defs>
</svg>
