<?xml version="1.0" standalone="no"?>
<!DOCTYPE svg PUBLIC "-//W3C//DTD SVG 1.1//EN" "http://www.w3.org/Graphics/SVG/1.1/DTD/svg11.dtd" >
<svg xmlns="http://www.w3.org/2000/svg" xmlns:xlink="http://www.w3.org/1999/xlink" version="1.1">
<metadata>
Created by FontForge 20170731 at Fri May 28 14:17:41 2021
 By Aleksey,,,
Copyright 2021 Huawei Device Co., Ltd. All Rights Reserved.
</metadata>
<defs>
<font id="HarmonyOS_Sans_Condensed_Thin_Italic" horiz-adv-x="459" >
  <font-face 
    font-family="HarmonyOS Sans Condensed Thin"
    font-weight="250"
    font-style="italic"
    font-stretch="normal"
    units-per-em="1000"
    panose-1="0 0 2 0 0 0 0 0 0 0"
    ascent="800"
    descent="-200"
    x-height="488"
    cap-height="699"
    bbox="-458 -279 1157 941"
    underline-thickness="50"
    underline-position="-150"
    slope="-10"
    unicode-range="U+0020-301E"
  />
<missing-glyph horiz-adv-x="500" 
d="M93 850h317v-1000h-317v1000zM333 750v33h-165v-33h65v-37h-66v-33h166v33h-66v37h66zM267 584v70h-100v-104h166v34h-66zM200 620h33v-36h-33v36zM333 490v33h-166v-33h66v-37h-66v-33h100v70h66zM333 363v100h-33v-66h-133v-34h166zM333 228v113h-100v-56h34v23h33v-47
h-100v80h-33v-113h166zM333 55v113h-166v-113h166zM200 135h100v-47h-100v47zM333 -1v33h-166v-33h70l-70 -47v-33h166v33h-102l70 47h32z" />
    <glyph glyph-name="f_b.liga" unicode="fb" horiz-adv-x="785" 
d="M230 679q-27 -31 -40 -110l-14 -81h118l-4 -25h-119l-108 -614q-13 -67 -37.5 -97.5t-64.5 -30.5q-38 0 -57 20l15 23q19 -16 43 -16q28 0 46 25t28 83l107 607h-74l4 25h75l15 85q28 163 132 163q39 0 60 -19l-4 -26q-22 19 -55 19q-39 0 -66 -31zM691.5 445.5
q40.5 -51.5 40.5 -144.5q0 -46 -8 -87q-15 -87 -49.5 -144.5t-80 -85t-94.5 -27.5q-59 0 -96 39.5t-41 114.5q-9 -43 -26 -144h-25l133 758h28l-63 -358q28 62 74.5 96t100.5 34q66 0 106.5 -51.5zM622 42q54 57 74 174q8 48 8 82q0 83 -34.5 128t-90.5 45q-61 0 -115 -55.5
t-77 -180.5q-8 -43 -8 -85q0 -84 35 -124.5t88 -40.5q66 0 120 57z" />
    <glyph glyph-name="f_f.liga" unicode="ff" horiz-adv-x="546" 
d="M502.5 678.5q-26.5 -31.5 -39.5 -109.5l-14 -81h118l-4 -25h-119l-108 -614q-13 -67 -37.5 -97.5t-64.5 -30.5q-38 0 -57 20l15 23q19 -16 43 -16q28 0 46 25t28 83l107 607h-245l-108 -614q-13 -67 -37.5 -97.5t-64.5 -30.5q-38 0 -57 20l15 23q19 -16 43 -16
q28 0 46 25t28 83l107 607h-74l4 25h75l15 85q28 163 132 163q23 0 41 -7.5t26 -19.5l-14 -24q-22 25 -55 25q-37 0 -63.5 -31.5t-39.5 -109.5l-14 -81h245l15 85q28 163 133 163q24 0 41.5 -7.5t25.5 -19.5l-13 -24q-22 25 -56 25q-38 0 -64.5 -31.5z" />
    <glyph glyph-name="f_f_b.liga" unicode="ffb" horiz-adv-x="1058" 
d="M503 679q-27 -31 -40 -110l-14 -81h118l-4 -25h-119l-108 -614q-13 -67 -37.5 -97.5t-64.5 -30.5q-38 0 -57 20l15 23q19 -16 43 -16q28 0 46 25t28 83l107 607h-245l-108 -614q-13 -67 -37.5 -97.5t-64.5 -30.5q-38 0 -57 20l15 23q19 -16 43 -16q28 0 46 25t28 83
l107 607h-74l4 25h75l15 85q28 163 132 163q23 0 41 -7.5t26 -19.5l-14 -24q-22 25 -55 25q-37 0 -63.5 -31.5t-39.5 -109.5l-14 -81h245l15 85q28 163 132 163q39 0 60 -19l-4 -26q-22 19 -55 19q-39 0 -66 -31zM964.5 445.5q40.5 -51.5 40.5 -144.5q0 -46 -8 -87
q-15 -87 -49.5 -144.5t-80 -85t-94.5 -27.5q-59 0 -96 39.5t-41 114.5q-9 -43 -26 -144h-25l133 758h28l-63 -358q28 62 74.5 96t100.5 34q66 0 106.5 -51.5zM895 42q54 57 74 174q8 48 8 82q0 83 -34.5 128t-90.5 45q-61 0 -115 -55.5t-77 -180.5q-8 -43 -8 -85
q0 -84 35 -124.5t88 -40.5q66 0 120 57z" />
    <glyph glyph-name="f_f_h.liga" unicode="ffh" horiz-adv-x="1033" 
d="M449 488h118l-4 -25h-119l-108 -614q-13 -67 -37.5 -97.5t-64.5 -30.5q-38 0 -57 20l15 23q19 -16 43 -16q28 0 46 25t28 83l107 607h-245l-108 -614q-13 -67 -37.5 -97.5t-64.5 -30.5q-38 0 -57 20l15 23q19 -16 43 -16q28 0 46 25t28 83l107 607h-74l4 25h75l15 85
q28 163 132 163q23 0 41 -7.5t26 -19.5l-14 -24q-22 25 -55 25q-37 0 -63.5 -31.5t-39.5 -109.5l-14 -81h245l15 85q28 163 132 163q39 0 60 -19l-4 -26q-22 19 -55 19q-39 0 -66 -31t-40 -110zM935.5 460.5q33.5 -36.5 33.5 -107.5q0 -28 -6 -61l-58 -326h-28l57 324
q6 32 6 58q0 61 -27.5 91.5t-74.5 30.5q-57 0 -104 -43.5t-63 -125.5l-60 -335h-27l135 761h27l-59 -331q26 48 68.5 74.5t90.5 26.5q56 0 89.5 -36.5z" />
    <glyph glyph-name="f_f_i.liga" unicode="ffi" horiz-adv-x="746" 
d="M449 488h118l-4 -25h-119l-108 -614q-13 -67 -37.5 -97.5t-64.5 -30.5q-38 0 -57 20l15 23q19 -16 43 -16q28 0 46 25t28 83l107 607h-245l-108 -614q-13 -67 -37.5 -97.5t-64.5 -30.5q-38 0 -57 20l15 23q19 -16 43 -16q28 0 46 25t28 83l107 607h-74l4 25h75l15 85
q28 163 132 163q23 0 41 -7.5t26 -19.5l-14 -24q-22 25 -55 25q-37 0 -63.5 -31.5t-39.5 -109.5l-14 -81h245l15 85q28 163 132 163q39 0 60 -19l-4 -26q-22 19 -55 19q-39 0 -66 -31t-40 -110zM736 669q8 -8 8 -19q0 -12 -7.5 -20t-19.5 -8q-11 0 -19 8t-8 19q0 12 8 20
t19 8t19 -8zM701 488l-92 -522h-27l92 522h27z" />
    <glyph glyph-name="f_f_k.liga" unicode="ffk" horiz-adv-x="972" 
d="M449 488h118l-4 -25h-119l-108 -614q-13 -67 -37.5 -97.5t-64.5 -30.5q-38 0 -57 20l15 23q19 -16 43 -16q28 0 46 25t28 83l107 607h-245l-108 -614q-13 -67 -37.5 -97.5t-64.5 -30.5q-38 0 -57 20l15 23q19 -16 43 -16q28 0 46 25t28 83l107 607h-74l4 25h75l15 85
q28 163 132 163q23 0 41 -7.5t26 -19.5l-14 -24q-22 25 -55 25q-37 0 -63.5 -31.5t-39.5 -109.5l-14 -81h245l15 85q28 163 132 163q39 0 60 -19l-4 -26q-22 19 -55 19q-39 0 -66 -31t-40 -110zM951 488h36l-218 -221l144 -301h-33l-132 280l-105 -108l-30 -172h-28l134 761
h28l-78 -441q-12 -67 -18 -104l89 90z" />
    <glyph glyph-name="f_f_l.liga" unicode="ffl" horiz-adv-x="749" 
d="M503 679q-27 -31 -40 -110l-14 -81h118l-4 -25h-119l-108 -614q-13 -67 -37.5 -97.5t-64.5 -30.5q-38 0 -57 20l15 23q19 -16 43 -16q28 0 46 25t28 83l107 607h-245l-108 -614q-13 -67 -37.5 -97.5t-64.5 -30.5q-38 0 -57 20l15 23q19 -16 43 -16q28 0 46 25t28 83
l107 607h-74l4 25h75l15 85q28 163 132 163q23 0 41 -7.5t26 -19.5l-14 -24q-22 25 -55 25q-37 0 -63.5 -31.5t-39.5 -109.5l-14 -81h245l15 85q28 163 132 163q39 0 60 -19l-4 -26q-22 19 -55 19q-39 0 -66 -31zM612 -34h-28l135 761h28z" />
    <glyph glyph-name="f_h.liga" unicode="fh" horiz-adv-x="760" 
d="M230 679q-27 -31 -40 -110l-14 -81h118l-4 -25h-119l-108 -614q-13 -67 -37.5 -97.5t-64.5 -30.5q-38 0 -57 20l15 23q19 -16 43 -16q28 0 46 25t28 83l107 607h-74l4 25h75l15 85q28 163 132 163q39 0 60 -19l-4 -26q-22 19 -55 19q-39 0 -66 -31zM662.5 460.5
q33.5 -36.5 33.5 -107.5q0 -28 -6 -61l-58 -326h-28l57 324q6 32 6 58q0 61 -27.5 91.5t-74.5 30.5q-57 0 -104 -43.5t-63 -125.5l-60 -335h-27l135 761h27l-59 -331q26 48 68.5 74.5t90.5 26.5q56 0 89.5 -36.5z" />
    <glyph glyph-name="f_i.liga" unicode="fi" horiz-adv-x="473" 
d="M294 488l-4 -25h-119l-108 -614q-13 -67 -37.5 -97.5t-64.5 -30.5q-38 0 -57 20l15 23q19 -16 43 -16q28 0 46 25t28 83l107 607h-74l4 25h75l15 85q28 163 132 163q39 0 60 -19l-4 -26q-22 19 -55 19q-39 0 -66 -31t-40 -110l-14 -81h118zM463 669q8 -8 8 -19
q0 -12 -7.5 -20t-19.5 -8q-11 0 -19 8t-8 19q0 12 8 20t19 8t19 -8zM428 488l-92 -522h-27l92 522h27z" />
    <glyph glyph-name="f_k.liga" unicode="fk" horiz-adv-x="699" 
d="M230 679q-27 -31 -40 -110l-14 -81h118l-4 -25h-119l-108 -614q-13 -67 -37.5 -97.5t-64.5 -30.5q-38 0 -57 20l15 23q19 -16 43 -16q28 0 46 25t28 83l107 607h-74l4 25h75l15 85q28 163 132 163q39 0 60 -19l-4 -26q-22 19 -55 19q-39 0 -66 -31zM678 488h36l-218 -221
l144 -301h-33l-132 280l-105 -108l-30 -172h-28l134 761h28l-78 -441q-12 -67 -18 -104l89 90z" />
    <glyph glyph-name="f_l.liga" unicode="fl" horiz-adv-x="476" 
d="M230 679q-27 -31 -40 -110l-14 -81h118l-4 -25h-119l-108 -614q-13 -67 -37.5 -97.5t-64.5 -30.5q-38 0 -57 20l15 23q19 -16 43 -16q28 0 46 25t28 83l107 607h-74l4 25h75l15 85q28 163 132 163q39 0 60 -19l-4 -26q-22 19 -55 19q-39 0 -66 -31zM339 -34h-28l135 761
h28z" />
    <glyph glyph-name="r_f.liga" unicode="rf" horiz-adv-x="553" 
d="M618 728.5q18 -7.5 25 -19.5l-13 -24q-22 25 -56 25q-37 0 -63.5 -31.5t-40.5 -109.5l-14 -81h118l-4 -25h-118l-109 -614q-12 -67 -36.5 -97.5t-64.5 -30.5q-39 0 -58 20l15 23q19 -16 43 -16q28 0 46 25t28 83l107 607h-73l3 25h75l15 85q29 163 133 163q24 0 42 -7.5z
M309 484l-6 -30q-16 16 -40 16q-31 0 -61 -21.5t-54 -64.5t-35 -103l-56 -315h-27l92 522h24q-4 -19 -5 -33l-12 -67q25 51 61 80t76 29q24 0 43 -13z" />
    <glyph glyph-name="r_t.liga" unicode="rt" horiz-adv-x="577" 
d="M570 463h-120l-64 -367q-4 -21 -4 -43q0 -70 59 -70q15 0 28 4.5t29 14.5l8 -22q-18 -12 -34.5 -17.5t-36.5 -5.5q-82 0 -82 89q0 18 5 50l64 367h-71l4 25h72l25 142h27l-25 -142h119zM309 484l-6 -30q-16 16 -40 16q-31 0 -61 -21.5t-54 -64.5t-35 -103l-56 -315h-27
l92 522h24q-4 -19 -5 -33l-12 -67q25 51 61 80t76 29q24 0 43 -13z" />
    <glyph glyph-name="r_v.liga" unicode="rv" horiz-adv-x="717" 
d="M309 484l-6 -30q-16 16 -40 16q-31 0 -61 -21.5t-54 -64.5t-35 -103l-56 -315h-27l92 522h24q-4 -19 -5 -33l-12 -67q25 51 61 80t76 29q24 0 43 -13zM388 488l81 -474l237 474h33l-267 -522h-22l-91 522h29z" />
    <glyph glyph-name="r_x.liga" unicode="rx" horiz-adv-x="693" 
d="M309 484l-6 -30q-16 16 -40 16q-31 0 -61 -21.5t-54 -64.5t-35 -103l-56 -315h-27l92 522h24q-4 -19 -5 -33l-12 -67q25 51 61 80t76 29q24 0 43 -13zM492 252l183 236h35l-206 -262l114 -260h-34l-100 237l-184 -237h-35l207 263l-115 259h34z" />
    <glyph glyph-name="r_y.liga" unicode="ry" horiz-adv-x="715" 
d="M309 484l-6 -30q-16 16 -40 16q-31 0 -61 -21.5t-54 -64.5t-35 -103l-56 -315h-27l92 522h24q-4 -19 -5 -33l-12 -67q25 51 61 80t76 29q24 0 43 -13zM465 -2l240 490h31l-326 -654q-30 -60 -58 -86.5t-70 -26.5q-46 0 -66 27l16 24q17 -24 52 -24q32 0 54 22.5t49 73.5
l58 116l-88 528h31z" />
    <glyph glyph-name=".notdef" horiz-adv-x="500" 
d="M93 850h317v-1000h-317v1000zM333 750v33h-165v-33h65v-37h-66v-33h166v33h-66v37h66zM267 584v70h-100v-104h166v34h-66zM200 620h33v-36h-33v36zM333 490v33h-166v-33h66v-37h-66v-33h100v70h66zM333 363v100h-33v-66h-133v-34h166zM333 228v113h-100v-56h34v23h33v-47
h-100v80h-33v-113h166zM333 55v113h-166v-113h166zM200 135h100v-47h-100v47zM333 -1v33h-166v-33h70l-70 -47v-33h166v33h-102l70 47h32z" />
    <glyph glyph-name=".null" horiz-adv-x="0" 
 />
    <glyph glyph-name="nonmarkingreturn" horiz-adv-x="333" 
 />
    <glyph glyph-name="space" unicode=" " horiz-adv-x="230" 
 />
    <glyph glyph-name="exclam" unicode="!" horiz-adv-x="179" 
d="M57 150l98 575h30l-104 -575h-24zM20.5 -35q-8.5 8 -8.5 20t8 20t19 8t19.5 -8t8.5 -20t-8 -20t-19 -8t-19.5 8z" />
    <glyph glyph-name="quotedbl" unicode="&#x22;" horiz-adv-x="246" 
d="M109 556l36 213h27l-39 -213h-24zM213 556l36 213h27l-39 -213h-24z" />
    <glyph glyph-name="numbersign" unicode="#" horiz-adv-x="521" 
d="M452 514h97l-5 -28h-102l-100 -269h98l-5 -28h-104l-84 -226h-27l83 226h-177l-84 -226h-29l84 226h-97l5 28h102l100 269h-97l5 28h103l84 227h28l-84 -227h178l85 227h28zM236 486l-100 -269h178l100 269h-178z" />
    <glyph glyph-name="dollar" unicode="$" 
d="M264 348q45 -26 73 -47.5t47 -54t19 -77.5q0 -21 -4 -40q-14 -80 -68.5 -125t-135.5 -46l-24 -134h-28l24 135q-69 9 -111.5 58.5t-46.5 130.5l28 12q4 -73 40 -119t95 -55l61 345q-45 27 -72 48t-45.5 52t-18.5 74q0 11 4 39q14 77 67 119.5t131 43.5l22 126h28
l-22 -127q67 -9 102.5 -55t31.5 -111l-28 -11q2 60 -26.5 100.5t-84.5 47.5zM129 510q0 -50 28 -82.5t81 -64.5l56 316q-64 -1 -107.5 -37.5t-54.5 -99.5q-3 -18 -3 -32zM371 166q0 52 -29 84.5t-84 66.5l-59 -332q68 2 113.5 41t55.5 105q3 20 3 35z" />
    <glyph glyph-name="percent" unicode="%" horiz-adv-x="645" 
d="M277 446.5q-42 -38.5 -94 -38.5q-49 0 -80 34.5t-31 88.5q0 16 3 34q12 65 54 104t94 39q49 0 79.5 -35t30.5 -89q0 -16 -3 -34q-11 -65 -53 -103.5zM568 699h33l-504 -733h-33zM304 580q0 44 -23.5 72t-61.5 28q-39 0 -72 -32t-43 -86q-2 -10 -2 -28q0 -44 23 -71
t61 -27q40 0 73 30.5t42 84.5q3 15 3 29zM538 -4.5q-42 -38.5 -94 -38.5q-49 0 -80 35t-31 91q0 16 3 32q12 65 54.5 103.5t94.5 38.5q49 0 79.5 -34.5t30.5 -89.5q0 -16 -3 -34q-12 -65 -54 -103.5zM565 132q0 44 -23.5 71t-60.5 27q-40 0 -73 -32t-42 -86q-3 -15 -3 -29
q0 -44 23.5 -71t60.5 -27q41 0 73.5 31t41.5 85q3 17 3 31z" />
    <glyph glyph-name="ampersand" unicode="&#x26;" horiz-adv-x="561" 
d="M529 382q-41 -159 -109 -265l87 -151h-35l-71 124q-46 -64 -101.5 -98.5t-117.5 -34.5q-74 0 -116 45.5t-42 121.5q0 27 4 50q16 88 65.5 138t130.5 91q-25 46 -37 80.5t-12 69.5q0 18 3 36q12 72 57.5 109.5t100.5 37.5q56 0 86.5 -36t30.5 -90q0 -15 -3 -32
q-8 -47 -35 -80t-61 -54t-91 -50l143 -251q63 104 93 239h30zM206 552q0 -31 10.5 -63.5t33.5 -72.5q56 29 85.5 48t53 47.5t30.5 68.5q2 9 2 28q0 43 -22.5 71.5t-65.5 28.5t-78.5 -31t-45.5 -90q-3 -18 -3 -35zM291.5 18q51.5 34 95.5 97l-150 264q-74 -39 -119 -84.5
t-59 -123.5q-4 -21 -4 -45q0 -64 34 -103t95 -39q56 0 107.5 34z" />
    <glyph glyph-name="quotesingle" unicode="'" horiz-adv-x="142" 
d="M109 556l36 213h27l-39 -213h-24z" />
    <glyph glyph-name="parenleft" unicode="(" horiz-adv-x="279" 
d="M171 599.5q66 115.5 150 181.5h28q-88 -78 -151 -189.5t-87 -252.5q-13 -74 -13 -147q0 -190 88 -337h-28q-42 63 -66.5 151.5t-24.5 190.5q0 73 13 145q25 142 91 257.5z" />
    <glyph glyph-name="parenright" unicode=")" horiz-adv-x="279" 
d="M125.5 37q-66.5 -116 -150.5 -182h-28q88 77 151 189t88 253q13 74 13 145q0 97 -23.5 183t-65.5 156h28q42 -63 66.5 -151.5t24.5 -190.5q0 -73 -13 -145q-24 -141 -90.5 -257z" />
    <glyph glyph-name="asterisk" unicode="*" horiz-adv-x="377" 
d="M246 542l149 80l10 -22l-152 -76l125 -76l-18 -23l-120 82l-24 -158h-27l31 158l-148 -82l-10 23l151 76l-124 76l18 22l119 -80l24 156h27z" />
    <glyph glyph-name="plus" unicode="+" 
d="M289 513l-30 -171h171l-5 -27h-170l-30 -172h-27l30 172h-172l5 27h172l29 171h27z" />
    <glyph glyph-name="comma" unicode="," horiz-adv-x="174" 
d="M68 -20q0 -43 -25 -84t-76 -54l2 21q34 10 52.5 36t23.5 59q-3 -1 -8 -1q-10 0 -17 7t-7 18q0 13 8.5 22t21.5 9q25 0 25 -33z" />
    <glyph glyph-name="hyphen" unicode="-" horiz-adv-x="415" 
d="M62 255l4 27h295l-5 -27h-294z" />
    <glyph glyph-name="period" unicode="." horiz-adv-x="168" 
d="M14.5 -35q-8.5 8 -8.5 20t8 20t19 8q12 0 20 -8t8 -20t-8 -20t-19 -8t-19.5 8z" />
    <glyph glyph-name="slash" unicode="/" horiz-adv-x="300" 
d="M-39 -34l368 732h31l-368 -732h-31z" />
    <glyph glyph-name="zero" unicode="0" 
d="M325.5 38q-59.5 -81 -141.5 -81q-140 0 -140 211q0 74 18 179q35 200 94 280.5t142 80.5q68 0 104 -50t36 -159q0 -83 -18 -181q-35 -199 -94.5 -280zM73 163q0 -93 28.5 -136t84.5 -43q70 0 121 75t83 261q19 108 19 184q0 92 -29 134t-84 42q-71 0 -121 -74.5
t-83 -260.5q-19 -107 -19 -182z" />
    <glyph glyph-name="one" unicode="1" 
d="M138 542l6 33l199 124h22l-130 -733h-29l122 693z" />
    <glyph glyph-name="two" unicode="2" 
d="M401.5 436.5q-23.5 -39.5 -86.5 -114.5l-276 -329h321l-6 -27h-364l4 19l301 358q57 68 78.5 102t29.5 78q4 21 4 45q0 54 -27 83t-78 29t-96 -31.5t-77 -100.5l-20 13q32 75 84 111t112 36q63 0 98 -37.5t35 -103.5q0 -13 -4 -43q-9 -48 -32.5 -87.5z" />
    <glyph glyph-name="three" unicode="3" 
d="M372.5 412.5q-33.5 -42.5 -81.5 -56.5q46 -13 71.5 -53.5t25.5 -99.5q0 -22 -5 -54q-16 -92 -69 -142t-131 -50q-71 0 -115.5 42.5t-47.5 116.5l25 14q4 -67 41 -106.5t99 -39.5q65 0 110 44t58 123q5 30 5 50q0 66 -33.5 103.5t-95.5 37.5h-52l5 26h53q58 0 98.5 40.5
t52.5 107.5q4 19 4 41q0 54 -28 88.5t-80 34.5q-46 0 -85.5 -29.5t-64.5 -91.5l-22 14q58 135 175 135q66 0 101 -41.5t35 -106.5q0 -24 -4 -44q-11 -61 -44.5 -103.5z" />
    <glyph glyph-name="four" unicode="4" 
d="M362 407l-41 -229h108l-5 -27h-107l-34 -185h-28l33 185h-283l3 19l349 528h34l-342 -520h243l41 229h29z" />
    <glyph glyph-name="five" unicode="5" 
d="M457 698l-5 -26h-238l-92 -306q25 23 57.5 36t67.5 13q72 0 114 -51t42 -133q0 -24 -5 -56q-17 -100 -74.5 -159t-139.5 -59q-62 0 -104.5 37t-53.5 107l26 14q10 -63 45 -97t89 -34q70 0 118 52.5t63 139.5q5 32 5 54q0 71 -34 115t-96 44q-40 0 -78 -19.5t-67 -58.5
l-16 8l113 379h263z" />
    <glyph glyph-name="six" unicode="6" 
d="M371 352.5q40 -50.5 40 -129.5q0 -24 -5 -56q-11 -63 -42.5 -110.5t-77 -73.5t-96.5 -26q-74 0 -116.5 51.5t-42.5 131.5q0 23 5 53q9 52 32.5 95.5t71.5 108.5l219 301h35l-224 -308l-10 -15q41 28 95 28q76 0 116 -50.5zM381 221q0 68 -34 111.5t-97 43.5
q-69 0 -119.5 -53t-65.5 -134q-4 -23 -4 -48q0 -70 34.5 -113.5t96.5 -43.5q66 0 117.5 50.5t66.5 134.5q5 30 5 52z" />
    <glyph glyph-name="seven" unicode="7" 
d="M451 672h-335l4 27h371l-2 -13l-373 -719h-34z" />
    <glyph glyph-name="eight" unicode="8" 
d="M397.5 414q-36.5 -41 -88.5 -56q46 -18 72.5 -61t26.5 -100q0 -24 -4 -44q-10 -59 -42 -103.5t-78.5 -68.5t-100.5 -24q-78 0 -123 48.5t-45 124.5q0 25 4 45q13 74 57 123.5t108 65.5q-39 17 -60 52.5t-21 81.5q0 19 3 38q13 77 67 124.5t126 47.5q68 0 108 -45t40 -112
q0 -18 -3 -36q-10 -60 -46.5 -101zM419 548q0 58 -32.5 95.5t-89.5 37.5q-61 0 -105.5 -41t-55.5 -107q-3 -18 -3 -36q0 -54 31.5 -88.5t90.5 -34.5q62 0 105.5 38t55.5 102q3 18 3 34zM378 198q0 67 -37 108t-103 41q-70 0 -123 -46.5t-67 -125.5q-4 -28 -4 -41
q0 -67 37.5 -108.5t103.5 -41.5q70 0 123 47t66 124q4 20 4 43z" />
    <glyph glyph-name="nine" unicode="9" 
d="M407.5 656q42.5 -51 42.5 -130q0 -22 -5 -54q-8 -51 -31 -94t-72 -110l-220 -301h-34l223 308l11 15q-43 -28 -95 -28q-76 0 -116.5 51t-40.5 130q0 23 5 55q11 63 42.5 110.5t77 73t96.5 25.5q74 0 116.5 -51zM420 525q0 69 -34.5 112.5t-96.5 43.5q-66 0 -117 -50.5
t-67 -134.5q-4 -23 -4 -50q0 -69 33.5 -113t96.5 -44q69 0 120.5 53t64.5 134q4 23 4 49z" />
    <glyph glyph-name="colon" unicode=":" horiz-adv-x="188" 
d="M110.5 450q-8.5 8 -8.5 20q0 11 8 19t19 8t19.5 -8t8.5 -19q0 -12 -8 -20t-19 -8t-19.5 8zM25.5 -35q-8.5 8 -8.5 20t8 20t19 8t19.5 -8t8.5 -20t-8 -20t-19 -8t-19.5 8z" />
    <glyph glyph-name="semicolon" unicode=";" horiz-adv-x="195" 
d="M155 489q8 -8 8 -19q0 -12 -7.5 -20t-19.5 -8q-11 0 -19 8t-8 20q0 11 7.5 19t18.5 8q12 0 20 -8zM76 -20q0 -43 -25 -84t-76 -54l2 21q34 10 52.5 36t23.5 59q-3 -1 -8 -1q-10 0 -17 7t-7 18q0 13 8.5 22t21.5 9q25 0 25 -33z" />
    <glyph glyph-name="less" unicode="&#x3c;" 
d="M462 521l-6 -30l-364 -163l307 -162l-5 -30l-338 179l5 26z" />
    <glyph glyph-name="equal" unicode="=" 
d="M442 405h-369l4 27h370zM410 224h-369l4 27h370z" />
    <glyph glyph-name="greater" unicode="&#x3e;" 
d="M395 328l-307 163l5 30l337 -180l-4 -26l-401 -179l6 30z" />
    <glyph glyph-name="question" unicode="?" horiz-adv-x="337" 
d="M70 623q27 54 72 82.5t96 28.5q62 0 95.5 -37.5t33.5 -95.5q0 -16 -3 -34q-9 -51 -35 -87.5t-71 -81.5q-40 -39 -63.5 -69.5t-38.5 -75t-11 -103.5h-25q-2 24 -2 35q0 52 15.5 91.5t38 68t59.5 66.5q45 46 68.5 79t31.5 80q3 17 3 32q0 46 -25 75t-74 29
q-44 0 -80.5 -24.5t-62.5 -72.5zM93 -35q-8 8 -8 20t8 20t19 8t19 -8t8 -20t-7.5 -20t-19.5 -8q-11 0 -19 8z" />
    <glyph glyph-name="at" unicode="@" horiz-adv-x="805" 
d="M634.5 695q67.5 -41 104 -118t36.5 -182q0 -62 -11 -120q-39 -227 -159 -227q-43 0 -65.5 31t-17.5 93q-26 -62 -67.5 -93t-86.5 -31q-57 0 -92.5 48.5t-35.5 130.5q0 32 6 68q13 72 43 122t69 75t80 25q50 0 82.5 -34.5t36.5 -96.5l24 122h23l-52 -293q-6 -31 -6 -57
q0 -82 60 -82q50 0 82.5 54t48.5 148q11 64 11 116q0 99 -33.5 170t-96 108t-145.5 37q-93 0 -173 -47.5t-135.5 -140t-78.5 -222.5q-10 -54 -10 -109q0 -99 34.5 -172.5t97.5 -113t146 -39.5q110 0 190 66l12 -21q-40 -35 -92.5 -53.5t-111.5 -18.5q-89 0 -158 43.5
t-107 123t-38 185.5q0 56 10 112q24 138 84.5 235.5t147 148t187.5 50.5q89 0 156.5 -41zM474.5 128q43.5 52 61.5 148q7 36 7 70q0 71 -30 107t-76 36q-55 0 -100.5 -51t-62.5 -146q-6 -36 -6 -67q0 -70 28 -109.5t76 -39.5q59 0 102.5 52z" />
    <glyph glyph-name="A" unicode="A" horiz-adv-x="551" 
d="M362 698l117 -732h-32l-37 245h-289l-123 -245h-33l372 732h25zM405 238l-63 413l-207 -413h270z" />
    <glyph glyph-name="B" unicode="B" horiz-adv-x="514" 
d="M427.5 403q-33.5 -40 -87.5 -56q55 -13 85 -53.5t30 -100.5q0 -25 -4 -46q-32 -181 -236 -181h-183l129 732h151q79 0 121 -43t42 -112q0 -23 -4 -42q-10 -58 -43.5 -98zM257 357q79 0 125 39.5t58 107.5q3 20 3 37q0 58 -34.5 94t-102.5 36h-121l-56 -314h128zM424 191
q0 64 -38 102t-108 38h-153l-60 -338h149q180 0 206 156q4 20 4 42z" />
    <glyph glyph-name="C" unicode="C" horiz-adv-x="524" 
d="M205 598q-73 -82 -103 -249q-11 -62 -11 -122q0 -117 47.5 -179.5t132.5 -62.5q59 0 105.5 30.5t74.5 88.5l22 -14q-32 -65 -84 -99t-120 -34q-97 0 -153 68t-56 197q0 58 12 128q33 182 114.5 270t187.5 88q78 0 120 -46t44 -117l-25 -11q-2 63 -37 104.5t-105 41.5
q-93 0 -166 -82z" />
    <glyph glyph-name="D" unicode="D" horiz-adv-x="593" 
d="M311 698q118 0 180 -72t62 -201q0 -50 -11 -113q-30 -172 -117.5 -259t-218.5 -87h-174l129 732h150zM521 422q0 118 -55 183.5t-160 65.5h-121l-120 -678h140q118 0 198 81t108 241q10 54 10 107z" />
    <glyph glyph-name="E" unicode="E" horiz-adv-x="475" 
d="M161 698h331l-5 -27h-302l-55 -312h274l-5 -27h-274l-60 -339h312l-5 -27h-340z" />
    <glyph glyph-name="F" unicode="F" horiz-adv-x="450" 
d="M161 698h331l-5 -27h-302l-58 -330h274l-6 -27h-273l-61 -348h-29z" />
    <glyph glyph-name="G" unicode="G" horiz-adv-x="567" 
d="M495 300h-141l5 26h170l-46 -261q-34 -51 -86 -79.5t-117 -28.5q-101 0 -160 69.5t-59 201.5q0 57 12 124q22 122 69 202t109 117t131 37q56 0 96 -23t60 -60.5t21 -81.5l-25 -14q-1 62 -40.5 106.5t-113.5 44.5q-61 0 -116.5 -35t-98 -109t-62.5 -185q-11 -68 -11 -118
q0 -120 50.5 -184.5t139.5 -64.5q55 0 99.5 24.5t74.5 69.5z" />
    <glyph glyph-name="H" unicode="H" horiz-adv-x="601" 
d="M130 361h373l59 337h29l-129 -732h-29l65 367h-372l-65 -367h-29l129 732h29z" />
    <glyph glyph-name="I" unicode="I" horiz-adv-x="200" 
d="M61 -34h-29l129 732h29z" />
    <glyph glyph-name="J" unicode="J" horiz-adv-x="354" 
d="M22.5 -14q-30.5 29 -34.5 85l26 15q3 -50 26.5 -76t64.5 -26q50 0 79.5 38.5t43.5 118.5l98 557h29l-98 -560q-16 -90 -51.5 -135.5t-100.5 -45.5q-52 0 -82.5 29z" />
    <glyph glyph-name="K" unicode="K" horiz-adv-x="530" 
d="M536 698h39l-301 -302l190 -430h-35l-178 407l-144 -145l-46 -262h-29l129 732h29l-64 -363l-11 -61l61 62z" />
    <glyph glyph-name="L" unicode="L" horiz-adv-x="452" 
d="M161 698h29l-125 -705h302l-5 -27h-330z" />
    <glyph glyph-name="M" unicode="M" horiz-adv-x="706" 
d="M671 698h25l-129 -732h-28l117 665l-306 -431h-17l-155 435l-119 -669h-27l129 732h25l162 -459z" />
    <glyph glyph-name="N" unicode="N" horiz-adv-x="599" 
d="M186 698l257 -671l118 671h27l-129 -732h-24l-257 673l-119 -673h-27l129 732h25z" />
    <glyph glyph-name="O" unicode="O" horiz-adv-x="618" 
d="M185.5 619q81.5 89 187.5 89q95 0 151 -70t56 -199q0 -57 -12 -126q-32 -180 -113 -268t-188 -88q-95 0 -150.5 68.5t-55.5 197.5q0 58 12 127q31 180 112.5 269zM91 227q0 -117 47.5 -180t130.5 -63q94 0 166.5 82.5t101.5 246.5q12 68 12 123q0 117 -47.5 180.5
t-130.5 63.5q-60 0 -114 -36t-94.5 -110t-59.5 -184q-12 -67 -12 -123z" />
    <glyph glyph-name="P" unicode="P" horiz-adv-x="469" 
d="M305 698q82 0 128 -46.5t46 -124.5q0 -22 -5 -50q-16 -94 -78.5 -145.5t-158.5 -51.5h-121l-55 -314h-29l129 732h144zM447 526q0 68 -39.5 106.5t-108.5 38.5h-114l-64 -364h117q81 0 135.5 44.5t69.5 128.5q4 21 4 46z" />
    <glyph glyph-name="Q" unicode="Q" horiz-adv-x="619" 
d="M496 103q-49 -82 -115 -117l136 -163h-38l-127 151q-42 -17 -85 -17q-95 0 -150.5 68.5t-55.5 197.5q0 58 12 127q31 180 112.5 269t187.5 89q95 0 151 -70t56 -199q0 -57 -12 -126q-23 -128 -72 -210zM435.5 66.5q72.5 82.5 101.5 246.5q12 68 12 123q0 117 -47.5 180.5
t-130.5 63.5q-60 0 -114 -36t-94.5 -110t-59.5 -184q-12 -67 -12 -123q0 -117 47.5 -180t130.5 -63q94 0 166.5 82.5z" />
    <glyph glyph-name="R" unicode="R" horiz-adv-x="491" 
d="M411 362q-46 -47 -117 -61l137 -335h-32l-133 330q-9 -1 -29 -1h-118l-58 -329h-29l129 732h140q82 0 127.5 -45t45.5 -121q0 -25 -4 -48q-13 -75 -59 -122zM237 322q82 0 134.5 42t66.5 124q4 21 4 45q0 65 -38.5 101.5t-107.5 36.5h-111l-62 -349h114z" />
    <glyph glyph-name="S" unicode="S" horiz-adv-x="444" 
d="M324 1q-52 -44 -127 -44q-52 0 -95 20.5t-69 58t-28 85.5l26 12q4 -65 52 -107t116 -42q36 0 67 13.5t53 39.5q29 35 38 89q3 20 3 37q0 41 -17.5 72.5t-43 53.5t-69.5 53q-43 31 -69 53.5t-44 54.5t-18 74q0 17 3 36q12 73 69 114q25 17 55 25.5t60 8.5q48 0 83 -18.5
t53.5 -49.5t18.5 -68l-24 -12q-2 52 -36.5 86t-96.5 34q-60 0 -102 -33q-39 -33 -49 -90q-3 -16 -3 -30q0 -36 16.5 -64t40.5 -49t65 -49q46 -33 73.5 -57t46.5 -59t19 -82q0 -23 -4 -44q-14 -78 -63 -122z" />
    <glyph glyph-name="T" unicode="T" horiz-adv-x="448" 
d="M93 698h412l-4 -27h-192l-124 -705h-29l124 705h-191z" />
    <glyph glyph-name="U" unicode="U" horiz-adv-x="577" 
d="M550 698h29l-86 -488q-22 -125 -86.5 -189t-163.5 -64q-89 0 -135.5 50.5t-46.5 146.5q0 36 8 86l80 458h28l-79 -453q-8 -50 -8 -85q0 -87 39 -131.5t116 -44.5q85 0 142 56.5t78 172.5z" />
    <glyph glyph-name="V" unicode="V" horiz-adv-x="543" 
d="M126 698l97 -683l336 683h33l-364 -732h-25l-109 732h32z" />
    <glyph glyph-name="W" unicode="W" horiz-adv-x="831" 
d="M503 698l59 -680l294 680h31l-320 -731h-27l-60 667l-294 -667h-25l-67 731h31l57 -680l295 680h26z" />
    <glyph glyph-name="X" unicode="X" horiz-adv-x="525" 
d="M280 364l260 334h36l-285 -361l162 -371h-35l-148 345l-270 -345h-36l294 373l-158 359h35z" />
    <glyph glyph-name="Y" unicode="Y" horiz-adv-x="490" 
d="M260 319l253 379h33l-277 -412l-56 -320h-30l58 323l-147 409h33z" />
    <glyph glyph-name="Z" unicode="Z" horiz-adv-x="476" 
d="M125 671l5 27h384l-2 -16l-491 -689h381l-6 -27h-420l3 16l491 689h-345z" />
    <glyph glyph-name="bracketleft" unicode="[" horiz-adv-x="267" 
d="M177 781h161l-5 -26h-132l-153 -874h132l-5 -26h-161z" />
    <glyph glyph-name="backslash" unicode="\" horiz-adv-x="297" 
d="M90 698h29l110 -732h-29z" />
    <glyph glyph-name="bracketright" unicode="]" horiz-adv-x="267" 
d="M105 755l4 26h161l-163 -926h-161l4 26h131l156 874h-132z" />
    <glyph glyph-name="asciicircum" unicode="^" horiz-adv-x="384" 
d="M261 658l-182 -309h-29l207 349h20l85 -349h-28z" />
    <glyph glyph-name="underscore" unicode="_" horiz-adv-x="353" 
d="M-74 -152l4 26h354l-5 -26h-353z" />
    <glyph glyph-name="grave" unicode="`" horiz-adv-x="183" 
d="M134 706h30l38 -141h-22z" />
    <glyph glyph-name="a" unicode="a" horiz-adv-x="503" 
d="M458 488l-92 -522h-24q17 95 22 129q-29 -67 -76.5 -102.5t-102.5 -35.5q-66 0 -106.5 52t-40.5 146q0 35 8 85q15 87 49.5 144.5t80 85t94.5 27.5q59 0 96 -39.5t41 -114.5q16 72 27 145h24zM307.5 40.5q53.5 56.5 76.5 181.5q8 50 8 82q0 85 -35 125.5t-88 40.5
q-66 0 -120.5 -57t-74.5 -174q-8 -48 -8 -81q0 -83 34.5 -128.5t90.5 -45.5q63 0 116.5 56.5z" />
    <glyph glyph-name="b" unicode="b" horiz-adv-x="504" 
d="M410.5 445.5q40.5 -51.5 40.5 -144.5q0 -46 -8 -87q-15 -87 -49.5 -144.5t-80 -85t-94.5 -27.5q-59 0 -96 39.5t-41 114.5q-9 -43 -26 -144h-25l133 758h28l-63 -358q28 62 74.5 96t100.5 34q66 0 106.5 -51.5zM341 42q54 57 74 174q8 48 8 82q0 83 -34.5 128t-90.5 45
q-61 0 -115 -55.5t-77 -180.5q-8 -43 -8 -85q0 -84 35 -124.5t88 -40.5q66 0 120 57z" />
    <glyph glyph-name="c" unicode="c" horiz-adv-x="402" 
d="M273.5 3.5q33.5 18.5 54.5 58.5l20 -13q-25 -47 -65 -69.5t-85 -22.5q-72 0 -116.5 53.5t-44.5 148.5q0 35 8 81q14 79 44.5 134.5t72.5 86.5q51 36 107 36q54 0 88 -32t39 -86l-24 -14q-5 49 -32 77t-73 28q-65 0 -119 -57.5t-74 -174.5q-7 -39 -7 -77q0 -84 36.5 -130
t98.5 -46q38 0 71.5 18.5z" />
    <glyph glyph-name="d" unicode="d" horiz-adv-x="504" 
d="M472 727h28l-134 -761h-24l8 49q11 61 13 80q-28 -67 -75.5 -102.5t-102.5 -35.5q-66 0 -107 52t-41 146q0 35 8 85q15 87 50 144.5t80.5 85t94.5 27.5q57 0 93.5 -37.5t42.5 -109.5zM311 45q51 61 73 179q7 42 7 80q0 85 -35 125.5t-88 40.5q-66 0 -120 -57t-74 -174
q-8 -48 -8 -83q0 -82 34 -127t90 -45q70 0 121 61z" />
    <glyph glyph-name="e" unicode="e" horiz-adv-x="404" 
d="M275 9q35 24 57 69l20 -16q-24 -51 -66 -78t-94 -27q-75 0 -118 53.5t-43 149.5q0 36 8 84q15 85 50 142t81 84t95 27q59 0 90 -35t31 -91q0 -71 -52 -107.5t-168 -36.5q-43 0 -99 6q-6 -40 -6 -74q0 -84 35.5 -129t98.5 -45q45 0 80 24zM145 418q-52 -52 -74 -160
q56 -6 99 -6q98 0 143 29.5t45 89.5q0 44 -24 71.5t-73 27.5q-64 0 -116 -52z" />
    <glyph glyph-name="f" unicode="f" horiz-adv-x="273" 
d="M337.5 728.5q17.5 -7.5 25.5 -19.5l-13 -24q-22 25 -56 25q-38 0 -64.5 -31.5t-39.5 -109.5l-14 -81h118l-4 -25h-119l-108 -614q-13 -67 -37.5 -97.5t-64.5 -30.5q-38 0 -57 20l15 23q19 -16 43 -16q28 0 46 25t28 83l107 607h-74l4 25h75l15 85q28 163 133 163
q24 0 41.5 -7.5z" />
    <glyph glyph-name="g" unicode="g" horiz-adv-x="503" 
d="M457 488l-94 -534q-21 -125 -78.5 -179t-131.5 -54q-63 0 -107.5 34.5t-51.5 99.5l23 13q10 -59 46 -89.5t92 -30.5q144 0 181 207l24 130q-29 -62 -75.5 -95t-99.5 -33q-66 0 -107 52t-41 146q0 35 8 85q15 87 50 144.5t80.5 85t94.5 27.5q59 0 95.5 -39t40.5 -114
l27 144h24zM391 305q0 84 -35 124.5t-88 40.5q-66 0 -120 -57t-74 -174q-8 -48 -8 -83q0 -82 34 -127t90 -45q62 0 116 55.5t77 180.5q8 43 8 85z" />
    <glyph glyph-name="h" unicode="h" horiz-adv-x="479" 
d="M381.5 460.5q33.5 -36.5 33.5 -107.5q0 -28 -6 -61l-58 -326h-28l57 324q6 32 6 58q0 61 -27.5 91.5t-74.5 30.5q-57 0 -104 -43.5t-63 -125.5l-60 -335h-27l135 761h27l-59 -331q26 48 68.5 74.5t90.5 26.5q56 0 89.5 -36.5z" />
    <glyph glyph-name="i" unicode="i" horiz-adv-x="192" 
d="M144.5 630q-8.5 8 -8.5 19q0 12 8.5 20t19.5 8t18.5 -8t7.5 -19q0 -12 -7.5 -20t-18.5 -8t-19.5 8zM56 -34h-28l92 522h28z" />
    <glyph glyph-name="j" unicode="j" horiz-adv-x="182" 
d="M140.5 630q-8.5 8 -8.5 19q0 12 8.5 20t19.5 8t18.5 -8t7.5 -19q0 -12 -7.5 -20t-18.5 -8t-19.5 8zM-135.5 -271q-18.5 8 -27.5 21l16 24q19 -26 54 -26q36 0 63.5 33t42.5 117l103 590h28l-103 -593q-17 -95 -52 -134.5t-83 -39.5q-23 0 -41.5 8z" />
    <glyph glyph-name="k" unicode="k" horiz-adv-x="417" 
d="M396 488h36l-217 -221l143 -301h-33l-131 280l-106 -108l-30 -172h-28l134 761h28l-78 -441q-12 -67 -18 -104l89 90z" />
    <glyph glyph-name="l" unicode="l" horiz-adv-x="196" 
d="M58 -34h-28l135 761h28z" />
    <glyph glyph-name="m" unicode="m" horiz-adv-x="706" 
d="M613.5 462.5q29.5 -34.5 29.5 -102.5q0 -24 -7 -68l-58 -326h-28l57 325q6 38 6 66q0 57 -22.5 85t-62.5 28q-55 0 -96 -47.5t-56 -131.5l-58 -325h-28l58 325q6 36 6 64q0 57 -22.5 86t-62.5 29q-51 0 -94.5 -43t-58.5 -130l-58 -331h-28l92 522h25l-6 -38
q-2 -10 -4.5 -23.5t-4.5 -29.5q24 49 62 74.5t81 25.5q46 0 74.5 -30.5t31.5 -89.5q23 58 64.5 89t88.5 31q50 0 79.5 -34.5z" />
    <glyph glyph-name="n" unicode="n" horiz-adv-x="480" 
d="M382.5 460.5q33.5 -36.5 33.5 -107.5q0 -28 -6 -61l-58 -326h-28l57 324q5 26 5 57q0 61 -27.5 92t-73.5 31q-58 0 -106 -45t-63 -129l-58 -330h-28l92 522h25q-4 -17 -13 -76l-3 -22q25 51 68.5 79t93.5 28q56 0 89.5 -36.5z" />
    <glyph glyph-name="o" unicode="o" horiz-adv-x="479" 
d="M129 433.5q61 63.5 141 63.5q72 0 114 -52t42 -146q0 -45 -8 -88q-23 -129 -84 -191.5t-140 -62.5q-72 0 -114.5 51.5t-42.5 145.5q0 35 8 85q23 131 84 194.5zM66 156q0 -83 35 -127.5t96 -44.5q67 0 119.5 56t72.5 174q8 48 8 83q0 83 -34.5 128t-94.5 45
q-66 0 -120 -57.5t-74 -174.5q-8 -48 -8 -82z" />
    <glyph glyph-name="p" unicode="p" horiz-adv-x="504" 
d="M411 445q41 -52 41 -146q0 -35 -8 -85q-16 -87 -50.5 -144.5t-80 -85t-94.5 -27.5q-58 0 -94.5 38.5t-41.5 110.5l-66 -377h-29l134 759h25q-12 -66 -21 -127q29 66 76 101t102 35q66 0 107 -52zM341 42q54 57 74 174q8 48 8 82q0 83 -34.5 128t-90.5 45
q-61 0 -115 -55.5t-77 -180.5q-8 -43 -8 -85q0 -84 35 -124.5t88 -40.5q66 0 120 57z" />
    <glyph glyph-name="q" unicode="q" horiz-adv-x="504" 
d="M458 488l-133 -759h-28l63 359q-29 -63 -75.5 -97t-99.5 -34q-66 0 -107 52t-41 146q0 35 8 85q15 87 50 144.5t80.5 85t94.5 27.5q59 0 95.5 -39t40.5 -114q-1 -4 18 93l9 51h25zM306 39.5q54 55.5 77 180.5q8 43 8 85q0 84 -35 124.5t-88 40.5q-66 0 -120 -57t-74 -174
q-8 -48 -8 -83q0 -82 34 -127t90 -45q62 0 116 55.5z" />
    <glyph glyph-name="r" unicode="r" horiz-adv-x="298" 
d="M318 475l-15 -23q-14 18 -41 18q-30 0 -60.5 -22t-54 -65.5t-34.5 -103.5l-55 -313h-28l92 522h25l-17 -100q24 51 60.5 80t75.5 29q34 0 52 -22z" />
    <glyph glyph-name="s" unicode="s" horiz-adv-x="377" 
d="M292.5 41.5q-14.5 -31.5 -39.5 -51.5q-42 -33 -101 -33t-98.5 32t-43.5 93l24 13q4 -55 37 -83t82 -28q47 0 80 25t42 74q2 9 2 25q0 42 -25 67.5t-74 55.5q-34 21 -54 36.5t-34 38t-14 53.5q0 16 2 25q10 55 48 83q40 30 97 30q55 0 89 -30t38 -81l-25 -14
q-2 47 -30 72.5t-74 25.5q-42 0 -74 -22t-40 -66q-2 -14 -2 -19q0 -37 23.5 -60.5t70.5 -50.5q36 -22 57 -38.5t36 -41.5t15 -59q0 -40 -14.5 -71.5z" />
    <glyph glyph-name="t" unicode="t" horiz-adv-x="287" 
d="M281 463h-121l-64 -367q-4 -21 -4 -43q0 -70 59 -70q16 0 29 4.5t29 14.5l7 -22q-18 -12 -34 -17.5t-37 -5.5q-82 0 -82 90q0 19 5 49l65 367h-71l3 25h73l25 142h27l-25 -142h119z" />
    <glyph glyph-name="u" unicode="u" horiz-adv-x="480" 
d="M82 -7q-33 36 -33 106q0 29 6 63l57 326h28l-57 -325q-5 -26 -5 -57q0 -61 27.5 -91.5t73.5 -30.5q58 0 106 45t63 129l58 330h29l-92 -522h-25l15 98q-25 -51 -68.5 -79t-93.5 -28q-56 0 -89 36z" />
    <glyph glyph-name="v" unicode="v" horiz-adv-x="412" 
d="M84 488l81 -474l236 474h33l-266 -522h-23l-91 522h30z" />
    <glyph glyph-name="w" unicode="w" horiz-adv-x="649" 
d="M374 488l55 -467l211 467h30l-239 -522h-20l-58 462l-211 -462h-21l-66 522h28l57 -465l210 465h24z" />
    <glyph glyph-name="x" unicode="x" horiz-adv-x="395" 
d="M194 252l183 236h35l-206 -262l114 -260h-33l-101 237l-184 -237h-35l207 263l-115 259h34z" />
    <glyph glyph-name="y" unicode="y" horiz-adv-x="410" 
d="M161 -2l239 490h32l-327 -654q-30 -60 -57.5 -86.5t-70.5 -26.5q-47 0 -65 27l15 24q19 -24 52 -24q32 0 54.5 22.5t48.5 73.5l59 116l-88 528h30z" />
    <glyph glyph-name="z" unicode="z" horiz-adv-x="374" 
d="M93 488h283l-3 -16l-349 -481h274l-4 -25h-313l3 17l350 480h-245z" />
    <glyph glyph-name="braceleft" unicode="{" horiz-adv-x="290" 
d="M361 781l-5 -26h-19q-44 0 -70.5 -30t-37.5 -97l-29 -166q-12 -72 -39 -101t-66 -34q27 -4 44 -26.5t17 -67.5q0 -24 -6 -56l-31 -172q-6 -30 -6 -51q0 -39 17.5 -56t55.5 -17h16l-5 -26h-11q-52 0 -77 23t-25 74q0 19 5 52l31 175q6 33 6 58q0 41 -20 58t-65 18l5 32
q40 -1 63.5 9t38 36.5t23.5 77.5l29 168q14 78 47.5 111.5t90.5 33.5h23z" />
    <glyph glyph-name="bar" unicode="|" horiz-adv-x="128" 
d="M-23 -145l164 926h26l-164 -926h-26z" />
    <glyph glyph-name="braceright" unicode="}" horiz-adv-x="290" 
d="M-54 -145l5 26h18q45 0 71.5 30t37.5 97l29 166q12 72 39 101t66 34q-27 4 -44 27t-17 68q0 24 6 55l31 172q6 30 6 51q0 39 -17.5 56t-55.5 17h-16l5 26h11q52 0 77 -23t25 -74q0 -19 -5 -52l-31 -174q-6 -34 -6 -58q0 -42 20 -59t65 -18l-5 -32q-40 1 -63.5 -9
t-38 -36.5t-23.5 -77.5l-29 -168q-14 -78 -47.5 -111.5t-90.5 -33.5h-23z" />
    <glyph glyph-name="asciitilde" unicode="~" 
d="M55 274q15 54 46 87.5t74 33.5q27 0 43 -13t34 -39q16 -22 30 -34t35 -12q59 0 93 93h24q-15 -53 -46.5 -86.5t-74.5 -33.5q-27 0 -43 13t-35 39q-17 24 -30.5 35t-34.5 11q-31 0 -53.5 -25.5t-37.5 -68.5h-24z" />
    <glyph glyph-name="uni00A0" unicode="&#xa0;" horiz-adv-x="230" 
 />
    <glyph glyph-name="exclamdown" unicode="&#xa1;" horiz-adv-x="179" 
d="M144 490q8 -8 8 -20q0 -11 -7.5 -19t-18.5 -8q-12 0 -20 8t-8 19q0 12 7.5 20t19.5 8q11 0 19 -8zM107 306l-98 -576h-30l104 576h24z" />
    <glyph glyph-name="cent" unicode="&#xa2;" 
d="M242 98q5 -1 15 -1q37 0 71.5 20t51.5 54l20 -14q-22 -46 -69 -69.5t-94 -17.5l-18 -104h-28l19 108q-62 12 -98.5 61t-36.5 132q0 34 8 79q22 124 82 182.5t137 64.5l18 105h28l-18 -105q53 -3 87 -33t39 -85l-24 -13q-4 49 -32.5 74.5t-74.5 28.5zM105 269
q0 -72 30 -114t80 -53l82 462q-65 -6 -115.5 -58t-69.5 -162q-7 -38 -7 -75z" />
    <glyph glyph-name="sterling" unicode="&#xa3;" 
d="M452 662.5q36 -45.5 34 -114.5l-26 -13q2 67 -28 106t-92 39q-63 0 -105 -41t-56 -121q-5 -27 -5 -63q0 -39 9 -95l3 -25h168l-4 -26h-160q5 -35 5 -63q0 -31 -5 -56q-21 -119 -130 -197h340l-5 -27h-391l5 21q68 45 104 94.5t47 111.5q5 33 5 56q0 28 -5 60h-95l4 26h87
q-14 74 -14 117q0 31 6 67q16 94 67.5 141.5t125.5 47.5q75 0 111 -45.5z" />
    <glyph glyph-name="currency" unicode="&#xa4;" 
d="M389 458q21 -36 21 -89q0 -25 -4 -48q-14 -74 -57 -124l50 -72l-23 -19l-49 71q-50 -40 -113 -40q-67 0 -108 47l-71 -69l-16 20l73 70q-22 39 -22 91q0 26 4 47q15 79 58 123l-50 72l23 20l49 -71q48 39 113 39q34 0 61.5 -12t46.5 -35l71 69l16 -20zM381 369
q0 60 -32 95t-85 35q-57 0 -102 -41.5t-59 -117.5q-4 -20 -4 -44q0 -60 31 -95.5t86 -35.5q58 0 103 41t58 118q4 21 4 45z" />
    <glyph glyph-name="yen" unicode="&#xa5;" 
d="M251 349l242 349h34l-256 -366h143l-5 -26h-150l-18 -102h150l-4 -26h-151l-37 -212h-31l38 212h-149l4 26h149l18 102h-149l5 26h140l-141 366h35z" />
    <glyph glyph-name="brokenbar" unicode="&#xa6;" horiz-adv-x="128" 
d="M76 414l65 367h26l-65 -367h-26zM-23 -145l65 367h26l-65 -367h-26z" />
    <glyph glyph-name="section" unicode="&#xa7;" horiz-adv-x="469" 
d="M161 528q0 -36 17 -62t42 -44t66 -42q46 -27 72.5 -46.5t45 -49.5t18.5 -71q0 -15 -3 -35q-12 -70 -59.5 -107t-116.5 -42q37 -26 57 -56.5t20 -74.5q0 -16 -3 -34q-14 -77 -64.5 -110t-112.5 -33q-75 0 -119 42t-49 110l27 13q5 -64 42 -100.5t101 -36.5q51 0 91 26.5
t52 90.5q3 15 3 30q0 36 -17 62.5t-42 45t-67 41.5q-44 26 -70.5 45.5t-45 49t-18.5 70.5q0 17 3 36q12 68 58.5 107t110.5 45q-33 25 -51.5 55t-18.5 71q0 16 3 34q14 79 68 114.5t120 35.5q75 0 115.5 -43t36.5 -111l-27 -13q4 64 -29 101.5t-98 37.5q-55 0 -99 -29
t-56 -94q-3 -15 -3 -29zM390 209q0 36 -17 63t-42 45.5t-67 41.5l-31 18h-10q-60 0 -104.5 -34.5t-55.5 -96.5q-3 -15 -3 -29q0 -36 17 -63t42.5 -46t67.5 -43l21 -12q12 -2 18 -2q62 1 106 33.5t55 94.5q3 17 3 30z" />
    <glyph glyph-name="dieresis" unicode="&#xa8;" horiz-adv-x="268" 
d="M108.5 614q-8.5 8 -8.5 20t8 20t19 8t19.5 -8t8.5 -20t-8 -20t-19 -8t-19.5 8zM250.5 614q-8.5 8 -8.5 20t8 20t19 8q12 0 20 -8t8 -20t-8 -20t-19 -8t-19.5 8z" />
    <glyph glyph-name="copyright" unicode="&#xa9;" horiz-adv-x="748" 
d="M579.5 671.5q60.5 -36.5 93.5 -103.5t33 -157q0 -46 -9 -97q-20 -115 -74 -195.5t-130.5 -121t-162.5 -40.5q-81 0 -141 36.5t-92.5 104t-32.5 158.5q0 47 9 98q20 115 74 194.5t129.5 119.5t161.5 40q81 0 141.5 -36.5zM679 411q0 83 -30 144t-84.5 93.5t-128.5 32.5
q-79 0 -148 -37t-119 -111.5t-69 -182.5q-9 -49 -9 -95q0 -83 29.5 -144.5t84 -94.5t127.5 -33q79 0 149 37.5t120 113t69 183.5q9 50 9 94zM494 524q30 -22 39 -67l-24 -13q-6 39 -30.5 57.5t-61.5 18.5q-57 0 -100 -43.5t-59 -134.5q-6 -33 -6 -59q0 -66 29 -101.5
t79 -35.5q31 0 59.5 14.5t47.5 45.5l19 -14q-23 -36 -57.5 -54.5t-71.5 -18.5q-58 0 -94.5 44t-36.5 120q0 29 6 62q18 100 70 150.5t118 50.5q44 0 74 -22z" />
    <glyph glyph-name="ordfeminine" unicode="&#xaa;" horiz-adv-x="339" 
d="M359 697l-62 -353h-23l6 39l5 27q-21 -35 -49.5 -53t-60.5 -18q-45 0 -72.5 32.5t-27.5 96.5q0 28 6 62q16 90 57.5 131.5t93.5 41.5q35 0 59.5 -21.5t31.5 -61.5l5 28q2 19 8 49h23zM253 396.5q34 35.5 49 119.5q6 33 6 59q0 54 -21.5 79.5t-55.5 25.5q-41 0 -75 -37
t-47 -115q-6 -33 -6 -60q0 -53 21 -80t56 -27q39 0 73 35.5z" />
    <glyph glyph-name="guillemotleft" unicode="&#xab;" horiz-adv-x="448" 
d="M229 435h36l-192 -209l115 -206h-33l-116 208zM398 435h35l-192 -209l116 -206h-33l-117 208z" />
    <glyph glyph-name="logicalnot" unicode="&#xac;" 
d="M403 346h-341l5 27h369l-40 -221h-26z" />
    <glyph glyph-name="uni00AD" unicode="&#xad;" horiz-adv-x="415" 
d="M72 315l4 27h295l-5 -27h-294z" />
    <glyph glyph-name="registered" unicode="&#xae;" horiz-adv-x="441" 
d="M104.5 614.5q24.5 42.5 67 68t92.5 25.5q51 0 93.5 -25.5t67.5 -68t25 -92.5q0 -51 -25 -93t-67.5 -66.5t-93.5 -24.5q-50 0 -92.5 24.5t-67 66.5t-24.5 93q0 50 24.5 92.5zM123.5 439.5q21.5 -37.5 59 -59t81.5 -21.5q45 0 82.5 21.5t59.5 59t22 82.5t-22 83t-59.5 59.5
t-82.5 21.5q-44 0 -81 -22t-59 -59.5t-22 -82.5t21.5 -82.5zM184 414l38 218h65q31 0 47.5 -14.5t16.5 -38.5q0 -28 -16 -46.5t-43 -23.5l47 -95h-23l-44 93h-52l-15 -93h-21zM273 525q26 0 41 14.5t15 38.5q0 17 -11.5 27t-33.5 10h-44l-16 -90h49z" />
    <glyph glyph-name="macron" unicode="&#xaf;" horiz-adv-x="345" 
d="M187 627l4 26h204l-5 -26h-203z" />
    <glyph glyph-name="degree" unicode="&#xb0;" horiz-adv-x="256" 
d="M115.5 745q33.5 33 80.5 33q48 0 81.5 -33t33.5 -86t-33.5 -86t-81.5 -33q-47 0 -80.5 33t-33.5 86t33.5 86zM134.5 592q25.5 -26 61.5 -26q37 0 62 26t25 67q0 42 -24.5 67.5t-62.5 25.5q-36 0 -61.5 -25.5t-25.5 -67.5q0 -41 25.5 -67z" />
    <glyph glyph-name="plusminus" unicode="&#xb1;" 
d="M270 556h28l-30 -169h170l-5 -27h-170l-30 -169h-27l30 169h-172l5 27h172zM391 122l-4 -27h-369l4 27h369z" />
    <glyph glyph-name="uni00B2" unicode="&#xb2;" horiz-adv-x="238" 
d="M272 703.5q-16 -27.5 -52 -69.5l-124 -143h156l-4 -20h-189l3 15l141 162q30 35 42.5 55.5t16.5 41.5q1 6 1 16q0 24 -13 37.5t-37 13.5q-51 0 -81 -65l-16 12q33 74 100 74q34 0 53 -19t19 -51t-16 -59.5z" />
    <glyph glyph-name="uni00B3" unicode="&#xb3;" horiz-adv-x="237" 
d="M263 695q-18 -26 -46 -34q47 -17 47 -76q0 -16 -2 -25q-8 -45 -36 -69.5t-68 -24.5q-38 0 -61 22t-24 62l19 7q1 -33 19 -51.5t47 -18.5q31 0 52 20t28 55q2 14 2 20q0 31 -17 49t-48 18h-24l4 21h25q33 0 54 24t21 60q0 26 -12.5 42t-36.5 16q-22 0 -41.5 -14t-32.5 -42
l-16 14q15 31 38.5 47t52.5 16q35 0 54.5 -21.5t19.5 -54.5q0 -36 -18 -62z" />
    <glyph glyph-name="acute" unicode="&#xb4;" horiz-adv-x="170" 
d="M100 565l87 141h33l-95 -141h-25z" />
    <glyph glyph-name="uni00B5" unicode="&#xb5;" horiz-adv-x="491" 
d="M416 -10l2 -24q-15 -9 -34 -9q-47 0 -47 56q0 15 3 33l4 20q-27 -51 -69 -80t-90 -29q-43 0 -71.5 22.5t-37.5 68.5l-56 -318h-27l133 758h27l-57 -331q-5 -25 -5 -55q0 -59 26 -88.5t71 -29.5q55 0 103 44.5t67 124.5l59 335h27l-75 -433q-4 -26 -4 -34q0 -37 29 -37
q11 0 22 6z" />
    <glyph glyph-name="paragraph" unicode="&#xb6;" horiz-adv-x="434" 
d="M176 668q44 30 110 30h37l-129 -732h-27l82 466q-62 0 -96.5 28.5t-34.5 81.5q0 16 3 32q11 64 55 94zM298 -34h-26l129 732h27z" />
    <glyph glyph-name="periodcentered" unicode="&#xb7;" horiz-adv-x="208" 
d="M99 309q-8 8 -8 20t7.5 20t18.5 8q12 0 20 -8t8 -20t-7.5 -20t-19.5 -8q-11 0 -19 8z" />
    <glyph glyph-name="cedilla" unicode="&#xb8;" horiz-adv-x="206" 
d="M5 -124q38 -1 60.5 -18.5t22.5 -47.5q0 -42 -29.5 -65.5t-70.5 -23.5q-28 0 -48 8l4 24q26 -9 45 -9q26 0 45.5 13.5t25.5 39.5q1 4 1 12q0 26 -23.5 37t-59.5 8l-1 18l54 98h27z" />
    <glyph glyph-name="uni00B9" unicode="&#xb9;" horiz-adv-x="179" 
d="M111 750l4 27l86 51h18l-63 -357h-24l58 325z" />
    <glyph glyph-name="ordmasculine" unicode="&#xba;" horiz-adv-x="327" 
d="M137.5 661q40.5 42 93.5 42q50 0 79 -36.5t29 -102.5q0 -24 -5 -57q-15 -86 -56.5 -127t-93.5 -41q-50 0 -79 35t-29 99q0 28 6 59q15 87 55.5 129zM103 473q0 -54 22 -83t60 -29q41 0 74.5 36.5t47.5 113.5q5 32 5 53q0 55 -22.5 85.5t-60.5 30.5q-41 0 -74 -36.5
t-46 -113.5q-6 -31 -6 -57z" />
    <glyph glyph-name="guillemotright" unicode="&#xbb;" horiz-adv-x="448" 
d="M77 435h33l116 -208l-190 -207h-36l192 209zM245 435h33l116 -208l-190 -207h-36l192 210z" />
    <glyph glyph-name="onequarter" unicode="&#xbc;" horiz-adv-x="518" 
d="M536 698l-549 -732h-28l547 732h30zM88 620l4 27l86 51h18l-63 -357h-24l58 325zM438 182l-19 -107h52l-3 -21h-53l-16 -88h-22l16 88h-142l3 15l170 254h25l-167 -248h115l19 107h22z" />
    <glyph glyph-name="onehalf" unicode="&#xbd;" horiz-adv-x="533" 
d="M536 698l-549 -732h-28l547 732h30zM88 620l4 27l86 51h18l-63 -357h-24l58 325zM478.5 200q-15.5 -27 -52.5 -71l-124 -142h156l-4 -21h-189l3 15l141 163q30 34 42.5 54.5t16.5 41.5q1 6 1 16q0 24 -13 37.5t-37 13.5q-51 0 -81 -64l-16 12q34 73 100 73q34 0 53 -19
t19 -50q0 -32 -15.5 -59z" />
    <glyph glyph-name="threequarters" unicode="&#xbe;" horiz-adv-x="575" 
d="M240 565q-18 -26 -46 -34q47 -17 47 -76q0 -16 -2 -25q-8 -45 -36 -69.5t-68 -24.5q-38 0 -61 22t-24 62l19 7q1 -33 19 -51.5t47 -18.5q31 0 52 20t28 55q2 14 2 20q0 31 -17 49t-48 18h-24l4 21h25q33 0 54 24t21 60q0 26 -12.5 42t-36.5 16q-22 0 -41.5 -14t-32.5 -42
l-16 14q15 31 38.5 47t52.5 16q35 0 54.5 -21.5t19.5 -54.5q0 -36 -18 -62zM593 698l-548 -732h-28l547 732h29zM496 182l-20 -107h53l-3 -21h-53l-16 -88h-22l16 88h-142l2 15l171 254h25l-167 -248h114l20 107h22z" />
    <glyph glyph-name="questiondown" unicode="&#xbf;" horiz-adv-x="337" 
d="M228.5 489q8.5 -8 8.5 -20q0 -11 -8 -19t-19 -8t-19.5 8t-8.5 19q0 12 8 20t19 8t19.5 -8zM251 -169q-26 -53 -71 -81.5t-96 -28.5q-62 0 -95.5 37t-33.5 94q0 17 3 35q9 51 34 86.5t72 83.5q41 41 64 71t37.5 74t10.5 103h25q2 -26 2 -37q0 -51 -15.5 -90.5t-37.5 -67.5
t-59 -66q-45 -45 -69 -78.5t-32 -80.5q-3 -17 -3 -32q0 -46 25 -75t75 -29q44 0 80.5 24t62.5 72z" />
    <glyph glyph-name="Agrave" unicode="&#xc0;" horiz-adv-x="551" 
d="M297 892h29l44 -128h-22zM362 698l117 -732h-32l-37 245h-289l-123 -245h-33l372 732h25zM405 238l-63 413l-207 -413h270z" />
    <glyph glyph-name="Aacute" unicode="&#xc1;" horiz-adv-x="551" 
d="M351 764l90 128h32l-96 -128h-26zM362 698l117 -732h-32l-37 245h-289l-123 -245h-33l372 732h25zM405 238l-63 413l-207 -413h270z" />
    <glyph glyph-name="Acircumflex" unicode="&#xc2;" horiz-adv-x="551" 
d="M374 892h21l59 -128h-28l-46 103l-83 -103h-31zM362 698l117 -732h-32l-37 245h-289l-123 -245h-33l372 732h25zM405 238l-63 413l-207 -413h270z" />
    <glyph glyph-name="Atilde" unicode="&#xc3;" horiz-adv-x="551" 
d="M261 784q24 94 73 94q18 0 26.5 -10.5t18.5 -32.5q7 -17 12.5 -25t16.5 -8q29 0 47 71h25q-10 -42 -28.5 -68t-45.5 -26q-17 0 -26 11t-17 31q-7 17 -13 25t-17 8q-16 0 -27.5 -17.5t-20.5 -52.5h-24zM362 698l117 -732h-32l-37 245h-289l-123 -245h-33l372 732h25z
M405 238l-63 413l-207 -413h270z" />
    <glyph glyph-name="Adieresis" unicode="&#xc4;" horiz-adv-x="551" 
d="M284 821q-8 8 -8 20q0 11 8 19t19 8t19 -8t8 -19q0 -12 -7.5 -20t-19.5 -8q-11 0 -19 8zM426.5 821q-8.5 8 -8.5 20q0 11 8 19t19 8t19.5 -8t8.5 -19q0 -12 -8 -20t-19 -8t-19.5 8zM362 698l117 -732h-32l-37 245h-289l-123 -245h-33l372 732h25zM405 238l-63 413
l-207 -413h270z" />
    <glyph glyph-name="Aring" unicode="&#xc5;" horiz-adv-x="551" 
d="M321 910.5q23 22.5 57 22.5q33 0 56 -22.5t23 -57.5t-23.5 -58t-55.5 -23q-34 0 -57 23t-23 58t23 57.5zM338 811q16 -17 40 -17t39 17t15 42q0 26 -15 42t-39 16t-40 -16t-16 -42q0 -25 16 -42zM362 698l117 -732h-32l-37 245h-289l-123 -245h-33l372 732h25zM405 238
l-63 413l-207 -413h270z" />
    <glyph glyph-name="AE" unicode="&#xc6;" horiz-adv-x="816" 
d="M832 698l-4 -27h-302l-55 -311h274l-5 -28h-274l-60 -339h312l-6 -27h-340l45 255h-233l-186 -255h-33l531 732h336zM203 248h219l71 398z" />
    <glyph glyph-name="Ccedilla" unicode="&#xc7;" horiz-adv-x="525" 
d="M206 598q-73 -82 -103 -249q-12 -67 -12 -123q0 -116 48 -178.5t133 -62.5q59 0 105.5 30.5t74.5 88.5l22 -14q-66 -131 -206 -133l-47 -81q38 -1 60.5 -18.5t22.5 -47.5q0 -42 -29.5 -65.5t-70.5 -23.5q-28 0 -48 8l4 24q25 -9 45 -9q26 0 45.5 13.5t25.5 39.5q1 4 1 12
q0 26 -23.5 37t-59.5 8l-1 18l48 87q-85 10 -133 77t-48 185q0 61 13 129q32 182 114 270t188 88q78 0 120 -46t44 -117l-25 -11q-2 62 -37.5 104t-104.5 42q-93 0 -166 -82z" />
    <glyph glyph-name="Egrave" unicode="&#xc8;" horiz-adv-x="475" 
d="M275 900h29l43 -128h-21zM161 698h331l-5 -27h-302l-55 -312h274l-5 -27h-274l-60 -339h312l-5 -27h-340z" />
    <glyph glyph-name="Eacute" unicode="&#xc9;" horiz-adv-x="475" 
d="M329 772l90 128h32l-96 -128h-26zM161 698h331l-5 -27h-302l-55 -312h274l-5 -27h-274l-60 -339h312l-5 -27h-340z" />
    <glyph glyph-name="Ecircumflex" unicode="&#xca;" horiz-adv-x="475" 
d="M351 900h21l59 -128h-28l-45 102l-84 -102h-30zM161 698h331l-5 -27h-302l-55 -312h274l-5 -27h-274l-60 -339h312l-5 -27h-340z" />
    <glyph glyph-name="Edieresis" unicode="&#xcb;" horiz-adv-x="475" 
d="M261.5 828q-8.5 8 -8.5 20q0 11 8 19t19 8q12 0 20 -8t8 -19q0 -12 -8 -20t-19 -8t-19.5 8zM404 828q-8 8 -8 20q0 11 8 19t19 8t19 -8t8 -19q0 -12 -7.5 -20t-19.5 -8q-11 0 -19 8zM161 698h331l-5 -27h-302l-55 -312h274l-5 -27h-274l-60 -339h312l-5 -27h-340z" />
    <glyph glyph-name="Igrave" unicode="&#xcc;" horiz-adv-x="200" 
d="M124 900h29l44 -128h-22zM61 -34h-29l129 732h29z" />
    <glyph glyph-name="Iacute" unicode="&#xcd;" horiz-adv-x="200" 
d="M179 772l89 128h32l-96 -128h-25zM61 -34h-29l129 732h29z" />
    <glyph glyph-name="Icircumflex" unicode="&#xce;" horiz-adv-x="200" 
d="M201 900h21l59 -128h-28l-46 103l-83 -103h-31zM61 -34h-29l129 732h29z" />
    <glyph glyph-name="Idieresis" unicode="&#xcf;" horiz-adv-x="200" 
d="M111.5 828q-8.5 8 -8.5 20t8 19.5t19 7.5q12 0 20 -7.5t8 -19.5t-8 -20t-19 -8t-19.5 8zM253.5 828q-8.5 8 -8.5 20t8 19.5t19 7.5q12 0 20 -7.5t8 -19.5t-8 -20t-19 -8t-19.5 8zM61 -34h-29l129 732h29z" />
    <glyph glyph-name="Eth" unicode="&#xd0;" horiz-adv-x="608" 
d="M326 698q117 0 179 -72.5t62 -201.5q0 -55 -10 -112q-30 -172 -117.5 -259t-219.5 -87h-173l65 367h-79l5 28h78l60 337h150zM536 422q0 118 -55 183.5t-160 65.5h-121l-55 -310h133l-5 -28h-133l-60 -340h139q119 0 199 81t108 241q10 54 10 107z" />
    <glyph glyph-name="Ntilde" unicode="&#xd1;" horiz-adv-x="599" 
d="M286 792q24 93 73 93q18 0 27 -10.5t18 -31.5q7 -17 12.5 -25t16.5 -8q30 0 47 70h25q-10 -41 -28.5 -67t-44.5 -26q-18 0 -27 11t-17 31q-7 17 -13 25t-17 8q-16 0 -27.5 -17.5t-20.5 -52.5h-24zM186 698l257 -671l118 671h27l-129 -732h-24l-257 673l-119 -673h-27
l129 732h25z" />
    <glyph glyph-name="Ograve" unicode="&#xd2;" horiz-adv-x="618" 
d="M333 900h29l44 -128h-22zM185.5 619q81.5 89 187.5 89q95 0 151 -70t56 -199q0 -57 -12 -126q-32 -180 -113 -268t-188 -88q-95 0 -150.5 68.5t-55.5 197.5q0 58 12 127q31 180 112.5 269zM91 227q0 -117 47.5 -180t130.5 -63q94 0 166.5 82.5t101.5 246.5q12 68 12 123
q0 117 -47.5 180.5t-130.5 63.5q-60 0 -114 -36t-94.5 -110t-59.5 -184q-12 -67 -12 -123z" />
    <glyph glyph-name="Oacute" unicode="&#xd3;" horiz-adv-x="618" 
d="M387 772l90 128h32l-96 -128h-26zM185.5 619q81.5 89 187.5 89q95 0 151 -70t56 -199q0 -57 -12 -126q-32 -180 -113 -268t-188 -88q-95 0 -150.5 68.5t-55.5 197.5q0 58 12 127q31 180 112.5 269zM91 227q0 -117 47.5 -180t130.5 -63q94 0 166.5 82.5t101.5 246.5
q12 68 12 123q0 117 -47.5 180.5t-130.5 63.5q-60 0 -114 -36t-94.5 -110t-59.5 -184q-12 -67 -12 -123z" />
    <glyph glyph-name="Ocircumflex" unicode="&#xd4;" horiz-adv-x="618" 
d="M410 900h21l59 -128h-28l-46 102l-83 -102h-31zM185.5 619q81.5 89 187.5 89q95 0 151 -70t56 -199q0 -57 -12 -126q-32 -180 -113 -268t-188 -88q-95 0 -150.5 68.5t-55.5 197.5q0 58 12 127q31 180 112.5 269zM91 227q0 -117 47.5 -180t130.5 -63q94 0 166.5 82.5
t101.5 246.5q12 68 12 123q0 117 -47.5 180.5t-130.5 63.5q-60 0 -114 -36t-94.5 -110t-59.5 -184q-12 -67 -12 -123z" />
    <glyph glyph-name="Otilde" unicode="&#xd5;" horiz-adv-x="618" 
d="M297 792q24 93 73 93q18 0 27 -10.5t18 -31.5q7 -17 12.5 -25t16.5 -8q30 0 47 70h25q-10 -42 -28.5 -68t-45.5 -26q-17 0 -26 11t-17 31q-7 17 -13 25t-17 8q-16 0 -27.5 -17t-20.5 -52h-24zM185.5 619q81.5 89 187.5 89q95 0 151 -70t56 -199q0 -57 -12 -126
q-32 -180 -113 -268t-188 -88q-95 0 -150.5 68.5t-55.5 197.5q0 58 12 127q31 180 112.5 269zM91 227q0 -117 47.5 -180t130.5 -63q94 0 166.5 82.5t101.5 246.5q12 68 12 123q0 117 -47.5 180.5t-130.5 63.5q-60 0 -114 -36t-94.5 -110t-59.5 -184q-12 -67 -12 -123z" />
    <glyph glyph-name="Odieresis" unicode="&#xd6;" horiz-adv-x="618" 
d="M320 828q-8 8 -8 20q0 11 8 19t19 8t19 -8t8 -19q0 -12 -7.5 -20t-19.5 -8q-11 0 -19 8zM462.5 828q-8.5 8 -8.5 20q0 11 8 19t19 8t19.5 -8t8.5 -19q0 -12 -8 -20t-19 -8t-19.5 8zM185.5 619q81.5 89 187.5 89q95 0 151 -70t56 -199q0 -57 -12 -126q-32 -180 -113 -268
t-188 -88q-95 0 -150.5 68.5t-55.5 197.5q0 58 12 127q31 180 112.5 269zM91 227q0 -117 47.5 -180t130.5 -63q94 0 166.5 82.5t101.5 246.5q12 68 12 123q0 117 -47.5 180.5t-130.5 63.5q-60 0 -114 -36t-94.5 -110t-59.5 -184q-12 -67 -12 -123z" />
    <glyph glyph-name="multiply" unicode="&#xd7;" 
d="M247 348l154 130l15 -19l-154 -131l107 -130l-22 -19l-107 131l-154 -131l-15 19l154 131l-107 130l22 19z" />
    <glyph glyph-name="Oslash" unicode="&#xd8;" horiz-adv-x="618" 
d="M615 731h34l-102 -130q33 -66 33 -162q0 -57 -12 -126q-32 -180 -113 -268t-188 -88q-51 0 -92 21t-68 63l-84 -107h-34l103 131q-31 61 -31 157q0 58 12 128q31 180 112.5 269t187.5 89q51 0 91.5 -21t67.5 -62zM92 230q0 -79 22 -136l398 506q-23 40 -59 60t-82 20
q-60 0 -114 -36t-94.5 -110t-59.5 -184q-11 -60 -11 -120zM548 436q0 81 -23 136l-398 -505q23 -41 59.5 -62t82.5 -21q94 0 166.5 82.5t101.5 246.5q11 62 11 123z" />
    <glyph glyph-name="Ugrave" unicode="&#xd9;" horiz-adv-x="577" 
d="M313 900h29l44 -128h-22zM550 698h29l-86 -488q-22 -125 -86.5 -189t-163.5 -64q-89 0 -135.5 50.5t-46.5 146.5q0 36 8 86l80 458h28l-79 -453q-8 -50 -8 -85q0 -87 39 -131.5t116 -44.5q85 0 142 56.5t78 172.5z" />
    <glyph glyph-name="Uacute" unicode="&#xda;" horiz-adv-x="577" 
d="M367 772l90 128h32l-96 -128h-26zM550 698h29l-86 -488q-22 -125 -86.5 -189t-163.5 -64q-89 0 -135.5 50.5t-46.5 146.5q0 36 8 86l80 458h28l-79 -453q-8 -50 -8 -85q0 -87 39 -131.5t116 -44.5q85 0 142 56.5t78 172.5z" />
    <glyph glyph-name="Ucircumflex" unicode="&#xdb;" horiz-adv-x="577" 
d="M390 900h21l59 -128h-28l-46 102l-83 -102h-31zM550 698h29l-86 -488q-22 -125 -86.5 -189t-163.5 -64q-89 0 -135.5 50.5t-46.5 146.5q0 36 8 86l80 458h28l-79 -453q-8 -50 -8 -85q0 -87 39 -131.5t116 -44.5q85 0 142 56.5t78 172.5z" />
    <glyph glyph-name="Udieresis" unicode="&#xdc;" horiz-adv-x="577" 
d="M300 828q-8 8 -8 20q0 11 8 19t19 8t19 -8t8 -19q0 -12 -7.5 -20t-19.5 -8q-11 0 -19 8zM442.5 828q-8.5 8 -8.5 20q0 11 8 19t19 8t19.5 -8t8.5 -19q0 -12 -8 -20t-19 -8t-19.5 8zM550 698h29l-86 -488q-22 -125 -86.5 -189t-163.5 -64q-89 0 -135.5 50.5t-46.5 146.5
q0 36 8 86l80 458h28l-79 -453q-8 -50 -8 -85q0 -87 39 -131.5t116 -44.5q85 0 142 56.5t78 172.5z" />
    <glyph glyph-name="Yacute" unicode="&#xdd;" horiz-adv-x="490" 
d="M323 772l90 128h32l-96 -128h-26zM260 319l253 379h33l-277 -412l-56 -320h-30l58 323l-147 409h33z" />
    <glyph glyph-name="Thorn" unicode="&#xde;" horiz-adv-x="473" 
d="M281 543q82 0 128 -46t46 -124q0 -21 -5 -51q-17 -93 -79 -145t-158 -52h-124l-28 -159h-29l129 732h29l-27 -155h118zM424 371q0 68 -39.5 106.5t-108.5 38.5h-118l-64 -364h120q82 0 136.5 44.5t69.5 128.5q4 21 4 46z" />
    <glyph glyph-name="germandbls" unicode="&#xdf;" horiz-adv-x="508" 
d="M407.5 428.5q-36.5 -43.5 -89.5 -58.5q52 -13 80.5 -58.5t28.5 -109.5q0 -23 -5 -53q-16 -92 -70 -142t-133 -50q-48 0 -73 17l5 28q25 -19 70 -19q66 0 111.5 44t60.5 126q5 30 5 52q0 69 -36 110.5t-103 41.5h-27l5 25h21q68 0 112 42.5t57 115.5q4 20 4 44
q0 56 -27 91t-86 35q-128 0 -161 -181l-100 -563h-27l100 565q18 103 66.5 154t123.5 51q71 0 105.5 -42t34.5 -108q0 -21 -5 -49q-11 -65 -47.5 -108.5z" />
    <glyph glyph-name="agrave" unicode="&#xe0;" horiz-adv-x="503" 
d="M266 706h30l38 -141h-22zM458 488l-92 -522h-24q17 95 22 129q-29 -67 -76.5 -102.5t-102.5 -35.5q-66 0 -106.5 52t-40.5 146q0 35 8 85q15 87 49.5 144.5t80 85t94.5 27.5q59 0 96 -39.5t41 -114.5q16 72 27 145h24zM307.5 40.5q53.5 56.5 76.5 181.5q8 50 8 82
q0 85 -35 125.5t-88 40.5q-66 0 -120.5 -57t-74.5 -174q-8 -48 -8 -81q0 -83 34.5 -128.5t90.5 -45.5q63 0 116.5 56.5z" />
    <glyph glyph-name="aacute" unicode="&#xe1;" horiz-adv-x="503" 
d="M305 565l88 141h32l-94 -141h-26zM458 488l-92 -522h-24q17 95 22 129q-29 -67 -76.5 -102.5t-102.5 -35.5q-66 0 -106.5 52t-40.5 146q0 35 8 85q15 87 49.5 144.5t80 85t94.5 27.5q59 0 96 -39.5t41 -114.5q16 72 27 145h24zM307.5 40.5q53.5 56.5 76.5 181.5
q8 50 8 82q0 85 -35 125.5t-88 40.5q-66 0 -120.5 -57t-74.5 -174q-8 -48 -8 -81q0 -83 34.5 -128.5t90.5 -45.5q63 0 116.5 56.5z" />
    <glyph glyph-name="acircumflex" unicode="&#xe2;" horiz-adv-x="503" 
d="M336 706h21l57 -141h-27l-45 114l-84 -114h-30zM458 488l-92 -522h-24q17 95 22 129q-29 -67 -76.5 -102.5t-102.5 -35.5q-66 0 -106.5 52t-40.5 146q0 35 8 85q15 87 49.5 144.5t80 85t94.5 27.5q59 0 96 -39.5t41 -114.5q16 72 27 145h24zM307.5 40.5
q53.5 56.5 76.5 181.5q8 50 8 82q0 85 -35 125.5t-88 40.5q-66 0 -120.5 -57t-74.5 -174q-8 -48 -8 -81q0 -83 34.5 -128.5t90.5 -45.5q63 0 116.5 56.5z" />
    <glyph glyph-name="atilde" unicode="&#xe3;" horiz-adv-x="503" 
d="M222 585q24 94 73 94q18 0 26.5 -10.5t18.5 -32.5q7 -17 12.5 -25t16.5 -8q29 0 47 71h25q-10 -42 -28.5 -68t-45.5 -26q-17 0 -26 11t-17 31q-7 17 -13 25t-17 8q-16 0 -27.5 -17.5t-20.5 -52.5h-24zM458 488l-92 -522h-24q17 95 22 129q-29 -67 -76.5 -102.5
t-102.5 -35.5q-66 0 -106.5 52t-40.5 146q0 35 8 85q15 87 49.5 144.5t80 85t94.5 27.5q59 0 96 -39.5t41 -114.5q16 72 27 145h24zM307.5 40.5q53.5 56.5 76.5 181.5q8 50 8 82q0 85 -35 125.5t-88 40.5q-66 0 -120.5 -57t-74.5 -174q-8 -48 -8 -81q0 -83 34.5 -128.5
t90.5 -45.5q63 0 116.5 56.5z" />
    <glyph glyph-name="adieresis" unicode="&#xe4;" horiz-adv-x="503" 
d="M243.5 614q-8.5 8 -8.5 20t8 19.5t19 7.5q12 0 20 -7.5t8 -19.5t-8 -20t-19 -8t-19.5 8zM385.5 614q-8.5 8 -8.5 20t8 19.5t19 7.5q12 0 20 -7.5t8 -19.5t-8 -20t-19 -8t-19.5 8zM458 488l-92 -522h-24q17 95 22 129q-29 -67 -76.5 -102.5t-102.5 -35.5q-66 0 -106.5 52
t-40.5 146q0 35 8 85q15 87 49.5 144.5t80 85t94.5 27.5q59 0 96 -39.5t41 -114.5q16 72 27 145h24zM307.5 40.5q53.5 56.5 76.5 181.5q8 50 8 82q0 85 -35 125.5t-88 40.5q-66 0 -120.5 -57t-74.5 -174q-8 -48 -8 -81q0 -83 34.5 -128.5t90.5 -45.5q63 0 116.5 56.5z" />
    <glyph glyph-name="aring" unicode="&#xe5;" horiz-adv-x="503" 
d="M264.5 708q23.5 23 57.5 23q32 0 55 -22.5t23 -57.5t-23 -58t-55 -23q-34 0 -57.5 22.5t-23.5 57.5t23.5 58zM281.5 608.5q15.5 -16.5 40.5 -16.5q23 0 38.5 17t15.5 42t-15.5 41.5t-38.5 16.5q-25 0 -40.5 -16t-15.5 -42t15.5 -42.5zM458 488l-92 -522h-24q17 95 22 129
q-29 -67 -76.5 -102.5t-102.5 -35.5q-66 0 -106.5 52t-40.5 146q0 35 8 85q15 87 49.5 144.5t80 85t94.5 27.5q59 0 96 -39.5t41 -114.5q16 72 27 145h24zM307.5 40.5q53.5 56.5 76.5 181.5q8 50 8 82q0 85 -35 125.5t-88 40.5q-66 0 -120.5 -57t-74.5 -174q-8 -48 -8 -81
q0 -83 34.5 -128.5t90.5 -45.5q63 0 116.5 56.5z" />
    <glyph glyph-name="ae" unicode="&#xe6;" horiz-adv-x="714" 
d="M585 9q35 24 57 69l20 -16q-24 -51 -66 -78t-94 -27q-65 0 -105 41t-49 116q-20 -75 -67.5 -116t-108.5 -41q-58 0 -95.5 35t-37.5 97q0 10 4 38q25 145 197 145q49 0 114 -13l8 46q5 32 5 52q0 57 -28 85t-77 28q-85 0 -125 -80l-20 13q22 49 62.5 71.5t86.5 22.5
q56 0 90.5 -33.5t35.5 -99.5q32 67 80 100t103 33q59 0 90 -35t31 -91q0 -70 -49 -111.5t-153 -41.5q-56 0 -117 11q-6 -39 -6 -73q0 -82 35 -126.5t98 -44.5q46 0 81 24zM453.5 417q-52.5 -53 -72.5 -163q59 -11 114 -11q88 0 130 33.5t42 93.5q0 45 -23.5 72.5t-72.5 27.5
q-65 0 -117.5 -53zM350 234q-65 13 -111 13q-146 0 -168 -122q-3 -18 -3 -33q0 -51 29.5 -80t74.5 -29q35 0 69 19t58.5 54.5t33.5 83.5z" />
    <glyph glyph-name="ccedilla" unicode="&#xe7;" horiz-adv-x="402" 
d="M273.5 3.5q33.5 18.5 54.5 58.5l20 -13q-25 -47 -64.5 -69t-83.5 -23l-47 -81q38 -1 60.5 -18.5t22.5 -47.5q0 -42 -29.5 -65.5t-70.5 -23.5q-28 0 -48 8l4 24q25 -9 45 -9q26 0 45.5 13.5t25.5 39.5q1 4 1 12q0 26 -23.5 37t-59.5 8l-1 18l48 87q-62 9 -99 61.5
t-37 138.5q0 35 8 81q14 79 44.5 134.5t72.5 86.5q51 36 107 36q54 0 88 -32t39 -86l-24 -14q-5 49 -32 77t-73 28q-65 0 -119 -57.5t-74 -174.5q-7 -39 -7 -77q0 -84 36.5 -130t98.5 -46q38 0 71.5 18.5z" />
    <glyph glyph-name="egrave" unicode="&#xe8;" horiz-adv-x="404" 
d="M197 706h30l37 -141h-21zM275 9q35 24 57 69l20 -16q-24 -51 -66 -78t-94 -27q-75 0 -118 53.5t-43 149.5q0 36 8 84q15 85 50 142t81 84t95 27q59 0 90 -35t31 -91q0 -71 -52 -107.5t-168 -36.5q-43 0 -99 6q-6 -40 -6 -74q0 -84 35.5 -129t98.5 -45q45 0 80 24z
M145 418q-52 -52 -74 -160q56 -6 99 -6q98 0 143 29.5t45 89.5q0 44 -24 71.5t-73 27.5q-64 0 -116 -52z" />
    <glyph glyph-name="eacute" unicode="&#xe9;" horiz-adv-x="404" 
d="M236 565l87 141h33l-95 -141h-25zM275 9q35 24 57 69l20 -16q-24 -51 -66 -78t-94 -27q-75 0 -118 53.5t-43 149.5q0 36 8 84q15 85 50 142t81 84t95 27q59 0 90 -35t31 -91q0 -71 -52 -107.5t-168 -36.5q-43 0 -99 6q-6 -40 -6 -74q0 -84 35.5 -129t98.5 -45q45 0 80 24
zM145 418q-52 -52 -74 -160q56 -6 99 -6q98 0 143 29.5t45 89.5q0 44 -24 71.5t-73 27.5q-64 0 -116 -52z" />
    <glyph glyph-name="ecircumflex" unicode="&#xea;" horiz-adv-x="404" 
d="M266 706h21l57 -141h-26l-46 114l-83 -114h-31zM275 9q35 24 57 69l20 -16q-24 -51 -66 -78t-94 -27q-75 0 -118 53.5t-43 149.5q0 36 8 84q15 85 50 142t81 84t95 27q59 0 90 -35t31 -91q0 -71 -52 -107.5t-168 -36.5q-43 0 -99 6q-6 -40 -6 -74q0 -84 35.5 -129
t98.5 -45q45 0 80 24zM145 418q-52 -52 -74 -160q56 -6 99 -6q98 0 143 29.5t45 89.5q0 44 -24 71.5t-73 27.5q-64 0 -116 -52z" />
    <glyph glyph-name="edieresis" unicode="&#xeb;" horiz-adv-x="404" 
d="M173.5 614q-8.5 8 -8.5 20t8 19.5t19 7.5q12 0 20 -7.5t8 -19.5t-8 -20t-19 -8t-19.5 8zM316 614q-8 8 -8 20t8 19.5t19 7.5t19 -7.5t8 -19.5t-7.5 -20t-19.5 -8q-11 0 -19 8zM275 9q35 24 57 69l20 -16q-24 -51 -66 -78t-94 -27q-75 0 -118 53.5t-43 149.5q0 36 8 84
q15 85 50 142t81 84t95 27q59 0 90 -35t31 -91q0 -71 -52 -107.5t-168 -36.5q-43 0 -99 6q-6 -40 -6 -74q0 -84 35.5 -129t98.5 -45q45 0 80 24zM145 418q-52 -52 -74 -160q56 -6 99 -6q98 0 143 29.5t45 89.5q0 44 -24 71.5t-73 27.5q-64 0 -116 -52z" />
    <glyph glyph-name="igrave" unicode="&#xec;" horiz-adv-x="192" 
d="M93 706h30l38 -141h-22zM28 -34l92 522h27l-92 -522h-27z" />
    <glyph glyph-name="iacute" unicode="&#xed;" horiz-adv-x="192" 
d="M132 565l88 141h32l-95 -141h-25zM28 -34l92 522h27l-92 -522h-27z" />
    <glyph glyph-name="icircumflex" unicode="&#xee;" horiz-adv-x="192" 
d="M162 706h21l57 -141h-26l-46 114l-83 -114h-30zM28 -34l92 522h27l-92 -522h-27z" />
    <glyph glyph-name="idieresis" unicode="&#xef;" horiz-adv-x="192" 
d="M70 614q-8 8 -8 20t8 20t19 8t19 -8t8 -20t-7.5 -20t-19.5 -8q-11 0 -19 8zM212.5 614q-8.5 8 -8.5 20t8 20t19 8t19.5 -8t8.5 -20t-8 -20t-19 -8t-19.5 8zM28 -34l92 522h27l-92 -522h-27z" />
    <glyph glyph-name="eth" unicode="&#xf0;" horiz-adv-x="491" 
d="M450 736l11 -23l-108 -69q86 -110 86 -286q0 -65 -11 -128q-25 -141 -88 -207t-143 -66q-72 0 -113.5 52.5t-41.5 147.5q0 44 8 87q23 128 84.5 190.5t140.5 62.5q49 0 83.5 -24.5t50.5 -71.5q-8 139 -79 228l-134 -87l-12 23l128 83q-35 38 -83 67l15 21q51 -27 92 -72z
M404 301q0 81 -35 124.5t-96 43.5q-67 0 -120 -56.5t-74 -172.5q-8 -50 -8 -84q0 -83 34.5 -127.5t92.5 -44.5q69 0 123 60.5t75 175.5q8 46 8 81z" />
    <glyph glyph-name="ntilde" unicode="&#xf1;" horiz-adv-x="480" 
d="M190 585q24 94 73 94q18 0 26.5 -10.5t18.5 -32.5q7 -17 12.5 -25t16.5 -8q30 0 48 71h24q-10 -42 -28 -68t-45 -26q-17 0 -26 10.5t-17 30.5q-7 17 -13.5 25.5t-17.5 8.5q-16 0 -27.5 -17.5t-20.5 -52.5h-24zM382.5 460.5q33.5 -36.5 33.5 -107.5q0 -28 -6 -61l-58 -326
h-28l57 324q5 26 5 57q0 61 -27.5 92t-73.5 31q-58 0 -106 -45t-63 -129l-58 -330h-28l92 522h25q-4 -17 -13 -76l-3 -22q25 51 68.5 79t93.5 28q56 0 89.5 -36.5z" />
    <glyph glyph-name="ograve" unicode="&#xf2;" horiz-adv-x="479" 
d="M236 706h30l38 -141h-22zM129 433.5q61 63.5 141 63.5q72 0 114 -52t42 -146q0 -45 -8 -88q-23 -129 -84 -191.5t-140 -62.5q-72 0 -114.5 51.5t-42.5 145.5q0 35 8 85q23 131 84 194.5zM66 156q0 -83 35 -127.5t96 -44.5q67 0 119.5 56t72.5 174q8 48 8 83
q0 83 -34.5 128t-94.5 45q-66 0 -120 -57.5t-74 -174.5q-8 -48 -8 -82z" />
    <glyph glyph-name="oacute" unicode="&#xf3;" horiz-adv-x="479" 
d="M275 565l88 141h32l-95 -141h-25zM129 433.5q61 63.5 141 63.5q72 0 114 -52t42 -146q0 -45 -8 -88q-23 -129 -84 -191.5t-140 -62.5q-72 0 -114.5 51.5t-42.5 145.5q0 35 8 85q23 131 84 194.5zM66 156q0 -83 35 -127.5t96 -44.5q67 0 119.5 56t72.5 174q8 48 8 83
q0 83 -34.5 128t-94.5 45q-66 0 -120 -57.5t-74 -174.5q-8 -48 -8 -82z" />
    <glyph glyph-name="ocircumflex" unicode="&#xf4;" horiz-adv-x="479" 
d="M305 706h21l57 -141h-26l-46 114l-83 -114h-30zM129 433.5q61 63.5 141 63.5q72 0 114 -52t42 -146q0 -45 -8 -88q-23 -129 -84 -191.5t-140 -62.5q-72 0 -114.5 51.5t-42.5 145.5q0 35 8 85q23 131 84 194.5zM66 156q0 -83 35 -127.5t96 -44.5q67 0 119.5 56t72.5 174
q8 48 8 83q0 83 -34.5 128t-94.5 45q-66 0 -120 -57.5t-74 -174.5q-8 -48 -8 -82z" />
    <glyph glyph-name="otilde" unicode="&#xf5;" horiz-adv-x="479" 
d="M192 585q24 94 73 94q18 0 26.5 -10.5t18.5 -32.5q7 -17 12.5 -25t16.5 -8q29 0 47 71h24q-9 -42 -27.5 -68t-45.5 -26q-17 0 -26 10.5t-17 30.5q-7 17 -13.5 25.5t-17.5 8.5q-15 0 -26.5 -17.5t-21.5 -52.5h-23zM129 433.5q61 63.5 141 63.5q72 0 114 -52t42 -146
q0 -45 -8 -88q-23 -129 -84 -191.5t-140 -62.5q-72 0 -114.5 51.5t-42.5 145.5q0 35 8 85q23 131 84 194.5zM66 156q0 -83 35 -127.5t96 -44.5q67 0 119.5 56t72.5 174q8 48 8 83q0 83 -34.5 128t-94.5 45q-66 0 -120 -57.5t-74 -174.5q-8 -48 -8 -82z" />
    <glyph glyph-name="odieresis" unicode="&#xf6;" horiz-adv-x="479" 
d="M213 614q-8 8 -8 20t8 19.5t19 7.5t19 -7.5t8 -19.5t-7.5 -20t-19.5 -8q-11 0 -19 8zM355.5 614q-8.5 8 -8.5 20t8 19.5t19 7.5q12 0 20 -7.5t8 -19.5t-8 -20t-19 -8t-19.5 8zM129 433.5q61 63.5 141 63.5q72 0 114 -52t42 -146q0 -45 -8 -88q-23 -129 -84 -191.5
t-140 -62.5q-72 0 -114.5 51.5t-42.5 145.5q0 35 8 85q23 131 84 194.5zM66 156q0 -83 35 -127.5t96 -44.5q67 0 119.5 56t72.5 174q8 48 8 83q0 83 -34.5 128t-94.5 45q-66 0 -120 -57.5t-74 -174.5q-8 -48 -8 -82z" />
    <glyph glyph-name="divide" unicode="&#xf7;" 
d="M256.5 489q-8.5 8 -8.5 20q0 11 8 19t19 8t19.5 -8t8.5 -19q0 -12 -8 -20t-19 -8t-19.5 8zM425 315h-369l5 27h369zM193 129q-8 8 -8 20q0 11 7.5 19t18.5 8q12 0 20 -8t8 -19q0 -12 -7.5 -20t-19.5 -8q-11 0 -19 8z" />
    <glyph glyph-name="oslash" unicode="&#xf8;" horiz-adv-x="479" 
d="M449 520h31l-80 -100q26 -49 26 -122q0 -46 -8 -87q-23 -129 -84 -191.5t-140 -62.5q-74 0 -116 56l-63 -79h-31l79 100q-26 47 -26 120q0 44 8 85q23 131 84 194.5t141 63.5q36 0 66 -14t50 -42zM66 158q0 -58 17 -98l285 357q-35 53 -100 53q-66 0 -120 -57.5
t-75 -174.5q-7 -41 -7 -80zM397 295q0 58 -18 98l-283 -357q35 -52 100 -52q67 0 120 56t73 174q8 46 8 81z" />
    <glyph glyph-name="ugrave" unicode="&#xf9;" horiz-adv-x="480" 
d="M232 706h30l38 -141h-22zM82 -7q-33 36 -33 106q0 29 6 63l57 326h28l-57 -325q-5 -26 -5 -57q0 -61 27.5 -91.5t73.5 -30.5q58 0 106 45t63 129l58 330h29l-92 -522h-25l15 98q-25 -51 -68.5 -79t-93.5 -28q-56 0 -89 36z" />
    <glyph glyph-name="uacute" unicode="&#xfa;" horiz-adv-x="480" 
d="M271 565l88 141h32l-94 -141h-26zM82 -7q-33 36 -33 106q0 29 6 63l57 326h28l-57 -325q-5 -26 -5 -57q0 -61 27.5 -91.5t73.5 -30.5q58 0 106 45t63 129l58 330h29l-92 -522h-25l15 98q-25 -51 -68.5 -79t-93.5 -28q-56 0 -89 36z" />
    <glyph glyph-name="ucircumflex" unicode="&#xfb;" horiz-adv-x="480" 
d="M302 706h21l57 -141h-27l-45 114l-84 -114h-30zM82 -7q-33 36 -33 106q0 29 6 63l57 326h28l-57 -325q-5 -26 -5 -57q0 -61 27.5 -91.5t73.5 -30.5q58 0 106 45t63 129l58 330h29l-92 -522h-25l15 98q-25 -51 -68.5 -79t-93.5 -28q-56 0 -89 36z" />
    <glyph glyph-name="udieresis" unicode="&#xfc;" horiz-adv-x="480" 
d="M209.5 614q-8.5 8 -8.5 20t8 20t19 8t19.5 -8t8.5 -20t-8 -20t-19 -8t-19.5 8zM351.5 614q-8.5 8 -8.5 20t8 20t19 8t19.5 -8t8.5 -20t-8 -20t-19 -8t-19.5 8zM82 -7q-33 36 -33 106q0 29 6 63l57 326h28l-57 -325q-5 -26 -5 -57q0 -61 27.5 -91.5t73.5 -30.5
q58 0 106 45t63 129l58 330h29l-92 -522h-25l15 98q-25 -51 -68.5 -79t-93.5 -28q-56 0 -89 36z" />
    <glyph glyph-name="yacute" unicode="&#xfd;" horiz-adv-x="410" 
d="M266 563l88 142h32l-94 -142h-26zM161 -2l239 490h32l-327 -654q-30 -60 -57.5 -86.5t-70.5 -26.5q-47 0 -65 27l15 24q19 -24 52 -24q32 0 54.5 22.5t48.5 73.5l59 116l-88 528h30z" />
    <glyph glyph-name="thorn" unicode="&#xfe;" horiz-adv-x="503" 
d="M409.5 445.5q40.5 -51.5 40.5 -144.5q0 -46 -8 -87q-15 -87 -50 -144.5t-80 -85t-94 -27.5q-57 0 -93.5 37.5t-42.5 108.5l-66 -374h-28l176 998h27l-63 -358q29 62 75 95t100 33q66 0 106.5 -51.5zM339.5 41.5q54.5 56.5 74.5 174.5q8 48 8 82q0 83 -34.5 128t-90.5 45
q-61 0 -115 -55t-77 -181q-8 -43 -8 -85q0 -84 34.5 -124.5t87.5 -40.5q66 0 120.5 56.5z" />
    <glyph glyph-name="ydieresis" unicode="&#xff;" horiz-adv-x="410" 
d="M175 613q-8 8 -8 20q0 11 8 19t19 8t19 -8t8 -19q0 -12 -7.5 -20t-19.5 -8q-11 0 -19 8zM317.5 613q-8.5 8 -8.5 20q0 11 8 19t19 8t19.5 -8t8.5 -19q0 -12 -8 -20t-19 -8t-19.5 8zM161 -2l239 490h32l-327 -654q-30 -60 -57.5 -86.5t-70.5 -26.5q-47 0 -65 27l15 24
q19 -24 52 -24q32 0 54.5 22.5t48.5 73.5l59 116l-88 528h30z" />
    <glyph glyph-name="Amacron" unicode="&#x100;" horiz-adv-x="551" 
d="M271 827l4 26h204l-5 -26h-203zM362 698l117 -732h-32l-37 245h-289l-123 -245h-33l372 732h25zM405 238l-63 413l-207 -413h270z" />
    <glyph glyph-name="amacron" unicode="&#x101;" horiz-adv-x="502" 
d="M230 627l5 26h203l-5 -26h-203zM457 488l-92 -522h-23q17 94 21 129q-28 -67 -75.5 -102.5t-102.5 -35.5q-66 0 -107 52t-41 146q0 35 8 85q15 87 50 144.5t80.5 85t94.5 27.5q59 0 95.5 -39.5t40.5 -114.5q13 61 28 145h23zM307.5 40.5q53.5 56.5 75.5 181.5q8 41 8 84
q0 83 -35 123.5t-88 40.5q-66 0 -120 -57t-74 -174q-8 -48 -8 -83q0 -82 34 -127t90 -45q64 0 117.5 56.5z" />
    <glyph glyph-name="Abreve" unicode="&#x102;" horiz-adv-x="551" 
d="M301 790q-22 26 -22 69q0 16 3 32h25q-2 -18 -2 -26q0 -37 16 -57t45 -20q33 0 57.5 27t35.5 76h26q-11 -59 -43 -93t-80 -34q-39 0 -61 26zM362 698l117 -732h-32l-37 245h-289l-123 -245h-33l372 732h25zM405 238l-63 413l-207 -413h270z" />
    <glyph glyph-name="abreve" unicode="&#x103;" horiz-adv-x="503" 
d="M263 596q-22 26 -22 70q0 16 3 34h25q-2 -11 -2 -30q0 -36 15.5 -56t43.5 -20q34 0 58.5 28t35.5 78h27q-12 -60 -44 -95t-80 -35q-38 0 -60 26zM458 488l-92 -522h-24q17 95 22 129q-29 -67 -76.5 -102.5t-102.5 -35.5q-66 0 -106.5 52t-40.5 146q0 35 8 85
q15 87 49.5 144.5t80 85t94.5 27.5q59 0 96 -39.5t41 -114.5q16 72 27 145h24zM307.5 40.5q53.5 56.5 76.5 181.5q8 50 8 82q0 85 -35 125.5t-88 40.5q-66 0 -120.5 -57t-74.5 -174q-8 -48 -8 -81q0 -83 34.5 -128.5t90.5 -45.5q63 0 116.5 56.5z" />
    <glyph glyph-name="Aogonek" unicode="&#x104;" horiz-adv-x="551" 
d="M500 -228q-18 -23 -40.5 -37t-48.5 -14q-31 0 -53.5 20t-22.5 59q0 50 32 94.5t79 75.5l-36 241h-289l-123 -245h-33l372 732h25l117 -732q-100 -66 -115 -142q-2 -14 -2 -19q0 -30 16 -45t38 -15q36 0 72 43zM342 651l-207 -413h270z" />
    <glyph glyph-name="aogonek" unicode="&#x105;" horiz-adv-x="503" 
d="M375 -212l12 -16q-17 -23 -40 -37t-49 -14q-31 0 -53.5 20t-22.5 59q0 53 36 99.5t86 77.5q4 23 7 38q11 61 13 80q-29 -67 -76.5 -102.5t-102.5 -35.5q-66 0 -106.5 52t-40.5 146q0 35 8 85q15 87 49.5 144.5t80 85t94.5 27.5q59 0 96 -39.5t41 -114.5q16 72 27 145h24
l-92 -522q-100 -66 -115 -142q-2 -14 -2 -19q0 -30 16 -45t38 -15q36 0 72 43zM307.5 40.5q53.5 56.5 76.5 181.5q8 50 8 82q0 85 -35 125.5t-88 40.5q-66 0 -120.5 -57t-74.5 -174q-8 -48 -8 -81q0 -83 34.5 -128.5t90.5 -45.5q63 0 116.5 56.5z" />
    <glyph glyph-name="Cacute" unicode="&#x106;" horiz-adv-x="525" 
d="M383 772l90 128h32l-96 -128h-26zM206 598q-73 -82 -103 -249q-12 -67 -12 -123q0 -116 48 -178.5t133 -62.5q59 0 105.5 30.5t74.5 88.5l22 -14q-32 -65 -84.5 -99t-119.5 -34q-97 0 -153 68t-56 197q0 58 12 128q32 182 114 270t188 88q78 0 120 -46t44 -117l-25 -11
q-2 62 -37.5 104t-104.5 42q-93 0 -166 -82z" />
    <glyph glyph-name="cacute" unicode="&#x107;" horiz-adv-x="402" 
d="M266 565l88 141h32l-94 -141h-26zM273.5 3.5q33.5 18.5 54.5 58.5l20 -13q-25 -47 -65 -69.5t-85 -22.5q-72 0 -116.5 53.5t-44.5 148.5q0 35 8 81q14 79 44.5 134.5t72.5 86.5q51 36 107 36q54 0 88 -32t39 -86l-24 -14q-5 49 -32 77t-73 28q-65 0 -119 -57.5
t-74 -174.5q-7 -39 -7 -77q0 -84 36.5 -130t98.5 -46q38 0 71.5 18.5z" />
    <glyph glyph-name="Ccircumflex" unicode="&#x108;" horiz-adv-x="525" 
d="M406 900h21l59 -128h-28l-46 103l-83 -103h-31zM206 598q-73 -82 -103 -249q-12 -67 -12 -123q0 -116 48 -178.5t133 -62.5q59 0 105.5 30.5t74.5 88.5l22 -14q-32 -65 -84.5 -99t-119.5 -34q-97 0 -153 68t-56 197q0 58 12 128q32 182 114 270t188 88q78 0 120 -46
t44 -117l-25 -11q-2 62 -37.5 104t-104.5 42q-93 0 -166 -82z" />
    <glyph glyph-name="ccircumflex" unicode="&#x109;" horiz-adv-x="402" 
d="M297 706h21l57 -141h-27l-45 114l-84 -114h-30zM273.5 3.5q33.5 18.5 54.5 58.5l20 -13q-25 -47 -65 -69.5t-85 -22.5q-72 0 -116.5 53.5t-44.5 148.5q0 35 8 81q14 79 44.5 134.5t72.5 86.5q51 36 107 36q54 0 88 -32t39 -86l-24 -14q-5 49 -32 77t-73 28
q-65 0 -119 -57.5t-74 -174.5q-7 -39 -7 -77q0 -84 36.5 -130t98.5 -46q38 0 71.5 18.5z" />
    <glyph glyph-name="Cdotaccent" unicode="&#x10a;" horiz-adv-x="525" 
d="M387.5 828q-8.5 8 -8.5 20t8 19.5t19 7.5q12 0 20 -7.5t8 -19.5t-8 -20t-19 -8t-19.5 8zM206 598q-73 -82 -103 -249q-12 -67 -12 -123q0 -116 48 -178.5t133 -62.5q59 0 105.5 30.5t74.5 88.5l22 -14q-32 -65 -84.5 -99t-119.5 -34q-97 0 -153 68t-56 197q0 58 12 128
q32 182 114 270t188 88q78 0 120 -46t44 -117l-25 -11q-2 62 -37.5 104t-104.5 42q-93 0 -166 -82z" />
    <glyph glyph-name="cdotaccent" unicode="&#x10b;" horiz-adv-x="402" 
d="M272.5 614q-8.5 8 -8.5 20t8 20t19 8t19.5 -8t8.5 -20t-8 -20t-19 -8t-19.5 8zM273.5 3.5q33.5 18.5 54.5 58.5l20 -13q-25 -47 -65 -69.5t-85 -22.5q-72 0 -116.5 53.5t-44.5 148.5q0 35 8 81q14 79 44.5 134.5t72.5 86.5q51 36 107 36q54 0 88 -32t39 -86l-24 -14
q-5 49 -32 77t-73 28q-65 0 -119 -57.5t-74 -174.5q-7 -39 -7 -77q0 -84 36.5 -130t98.5 -46q38 0 71.5 18.5z" />
    <glyph glyph-name="Ccaron" unicode="&#x10c;" horiz-adv-x="525" 
d="M351 900l46 -103l83 103h31l-108 -128h-21l-59 128h28zM206 598q-73 -82 -103 -249q-12 -67 -12 -123q0 -116 48 -178.5t133 -62.5q59 0 105.5 30.5t74.5 88.5l22 -14q-32 -65 -84.5 -99t-119.5 -34q-97 0 -153 68t-56 197q0 58 12 128q32 182 114 270t188 88
q78 0 120 -46t44 -117l-25 -11q-2 62 -37.5 104t-104.5 42q-93 0 -166 -82z" />
    <glyph glyph-name="ccaron" unicode="&#x10d;" horiz-adv-x="402" 
d="M241 706l45 -114l83 114h31l-108 -141h-21l-57 141h27zM273.5 3.5q33.5 18.5 54.5 58.5l20 -13q-25 -47 -65 -69.5t-85 -22.5q-72 0 -116.5 53.5t-44.5 148.5q0 35 8 81q14 79 44.5 134.5t72.5 86.5q51 36 107 36q54 0 88 -32t39 -86l-24 -14q-5 49 -32 77t-73 28
q-65 0 -119 -57.5t-74 -174.5q-7 -39 -7 -77q0 -84 36.5 -130t98.5 -46q38 0 71.5 18.5z" />
    <glyph glyph-name="Dcaron" unicode="&#x10e;" horiz-adv-x="593" 
d="M272 900l46 -103l84 103h30l-108 -128h-21l-58 128h27zM311 698q118 0 180 -72t62 -201q0 -50 -11 -113q-30 -172 -117.5 -259t-218.5 -87h-174l129 732h150zM521 422q0 118 -55 183.5t-160 65.5h-121l-120 -678h140q118 0 198 81t108 241q10 54 10 107z" />
    <glyph glyph-name="dcaron" unicode="&#x10f;" horiz-adv-x="523" 
d="M629 706q0 -8 -1 -13q-6 -33 -28.5 -58.5t-62.5 -33.5l3 17q55 15 67 68l-10 -1q-9 0 -14 6t-5 15q0 12 8 21t20 9q23 0 23 -30zM472 727h28l-134 -761h-24l8 49q11 61 13 80q-28 -67 -75.5 -102.5t-102.5 -35.5q-66 0 -107 52t-41 146q0 35 8 85q15 87 50 144.5t80.5 85
t94.5 27.5q57 0 93.5 -37.5t42.5 -109.5zM311 45q51 61 73 179q7 42 7 80q0 85 -35 125.5t-88 40.5q-66 0 -120 -57t-74 -174q-8 -48 -8 -83q0 -82 34 -127t90 -45q70 0 121 61z" />
    <glyph glyph-name="Dcroat" unicode="&#x110;" horiz-adv-x="607" 
d="M326 698q117 0 179 -72.5t62 -201.5q0 -55 -10 -112q-30 -172 -117.5 -259t-219.5 -87h-173l65 367h-79l5 28h78l60 337h150zM536 422q0 118 -55 183.5t-160 65.5h-121l-55 -310h133l-5 -28h-133l-60 -340h139q119 0 199 81t108 241q10 54 10 107z" />
    <glyph glyph-name="dcroat" unicode="&#x111;" horiz-adv-x="464" 
d="M486 616h77l-5 -25h-77l-110 -625h-24q6 36 10 54q10 55 12 75q-29 -67 -76.5 -102.5t-102.5 -35.5q-66 0 -107 52t-41 146q0 35 8 85q16 87 50.5 144.5t80 85t94.5 27.5q57 0 94 -38t42 -109l42 241h-112l5 25h112l19 111h28zM396 304q0 85 -35 125.5t-88 40.5
q-66 0 -120 -57t-74 -174q-8 -48 -8 -82q0 -83 34.5 -128t90.5 -45q70 0 120.5 61t72.5 179q7 42 7 80z" />
    <glyph glyph-name="Emacron" unicode="&#x112;" horiz-adv-x="475" 
d="M248 834l5 26h203l-4 -26h-204zM161 698h331l-5 -27h-302l-55 -312h274l-5 -27h-274l-60 -339h312l-5 -27h-340z" />
    <glyph glyph-name="emacron" unicode="&#x113;" horiz-adv-x="404" 
d="M161 627l5 26h203l-4 -26h-204zM275 9q35 24 57 69l20 -16q-24 -51 -66 -78t-94 -27q-75 0 -118 53.5t-43 149.5q0 36 8 84q15 85 50 142t81 84t95 27q59 0 90 -35t31 -91q0 -71 -52 -107.5t-168 -36.5q-43 0 -99 6q-6 -40 -6 -74q0 -84 35.5 -129t98.5 -45q45 0 80 24z
M145 418q-52 -52 -74 -160q56 -6 99 -6q98 0 143 29.5t45 89.5q0 44 -24 71.5t-73 27.5q-64 0 -116 -52z" />
    <glyph glyph-name="Ebreve" unicode="&#x114;" horiz-adv-x="475" 
d="M279 798q-22 26 -22 69q0 16 3 32h25q-2 -20 -2 -27q0 -37 15.5 -57t44.5 -20q34 0 58 27.5t35 76.5h27q-11 -59 -43 -93t-81 -34q-38 0 -60 26zM161 698h331l-5 -27h-302l-55 -312h274l-5 -27h-274l-60 -339h312l-5 -27h-340z" />
    <glyph glyph-name="ebreve" unicode="&#x115;" horiz-adv-x="404" 
d="M193.5 595.5q-21.5 25.5 -21.5 69.5q0 17 3 35h24q-2 -20 -2 -28q0 -37 15.5 -57.5t44.5 -20.5q33 0 57.5 28t36.5 78h26q-11 -60 -43 -95t-81 -35q-38 0 -59.5 25.5zM275 9q35 24 57 69l20 -16q-24 -51 -66 -78t-94 -27q-75 0 -118 53.5t-43 149.5q0 36 8 84
q15 85 50 142t81 84t95 27q59 0 90 -35t31 -91q0 -71 -52 -107.5t-168 -36.5q-43 0 -99 6q-6 -40 -6 -74q0 -84 35.5 -129t98.5 -45q45 0 80 24zM145 418q-52 -52 -74 -160q56 -6 99 -6q98 0 143 29.5t45 89.5q0 44 -24 71.5t-73 27.5q-64 0 -116 -52z" />
    <glyph glyph-name="Edotaccent" unicode="&#x116;" horiz-adv-x="475" 
d="M333.5 828q-8.5 8 -8.5 20q0 11 8 19t19 8t19.5 -8t8.5 -19q0 -12 -8 -20t-19 -8t-19.5 8zM161 698h331l-5 -27h-302l-55 -312h274l-5 -27h-274l-60 -339h312l-5 -27h-340z" />
    <glyph glyph-name="edotaccent" unicode="&#x117;" horiz-adv-x="404" 
d="M242 614q-8 8 -8 20t7.5 19.5t18.5 7.5q12 0 20 -7.5t8 -19.5t-7.5 -20t-19.5 -8q-11 0 -19 8zM275 9q35 24 57 69l20 -16q-24 -51 -66 -78t-94 -27q-75 0 -118 53.5t-43 149.5q0 36 8 84q15 85 50 142t81 84t95 27q59 0 90 -35t31 -91q0 -71 -52 -107.5t-168 -36.5
q-43 0 -99 6q-6 -40 -6 -74q0 -84 35.5 -129t98.5 -45q45 0 80 24zM145 418q-52 -52 -74 -160q56 -6 99 -6q98 0 143 29.5t45 89.5q0 44 -24 71.5t-73 27.5q-64 0 -116 -52z" />
    <glyph glyph-name="Eogonek" unicode="&#x118;" horiz-adv-x="475" 
d="M492 698l-5 -27h-302l-55 -312h274l-5 -27h-274l-60 -339h312l-5 -27q-100 -66 -115 -142q-2 -14 -2 -19q0 -30 16 -45t38 -15q36 0 72 43l12 -16q-18 -23 -40.5 -37t-48.5 -14q-31 0 -53.5 20t-22.5 59q0 49 30 92.5t75 73.5h-301l129 732h331z" />
    <glyph glyph-name="eogonek" unicode="&#x119;" horiz-adv-x="410" 
d="M338 78l21 -16q-21 -44 -55 -70q-63 -49 -95.5 -87.5t-40.5 -82.5q-2 -16 -2 -21q0 -28 15 -41.5t37 -13.5q21 0 38.5 11t35.5 31l12 -16q-40 -51 -90 -51q-31 0 -53 19.5t-22 57.5q0 43 23.5 82t68.5 80q-15 -3 -32 -3q-75 0 -118 53.5t-43 149.5q0 36 8 84
q15 86 49.5 142.5t80.5 83.5t95 27q59 0 90 -35t31 -91q0 -71 -52 -107.5t-167 -36.5q-44 0 -100 6q-6 -39 -6 -72q0 -85 35 -130.5t99 -45.5q92 0 137 93zM151.5 418q-51.5 -52 -73.5 -160q56 -6 98 -6q98 0 143 29.5t45 89.5q0 44 -24 71.5t-73 27.5q-64 0 -115.5 -52z
" />
    <glyph glyph-name="Ecaron" unicode="&#x11a;" horiz-adv-x="475" 
d="M297 900l46 -103l83 103h30l-107 -128h-21l-59 128h28zM161 698h331l-5 -27h-302l-55 -312h274l-5 -27h-274l-60 -339h312l-5 -27h-340z" />
    <glyph glyph-name="ecaron" unicode="&#x11b;" horiz-adv-x="404" 
d="M210 706l46 -114l83 114h30l-107 -141h-21l-57 141h26zM275 9q35 24 57 69l20 -16q-24 -51 -66 -78t-94 -27q-75 0 -118 53.5t-43 149.5q0 36 8 84q15 85 50 142t81 84t95 27q59 0 90 -35t31 -91q0 -71 -52 -107.5t-168 -36.5q-43 0 -99 6q-6 -40 -6 -74q0 -84 35.5 -129
t98.5 -45q45 0 80 24zM145 418q-52 -52 -74 -160q56 -6 99 -6q98 0 143 29.5t45 89.5q0 44 -24 71.5t-73 27.5q-64 0 -116 -52z" />
    <glyph glyph-name="Gcircumflex" unicode="&#x11c;" horiz-adv-x="567" 
d="M404 899h21l59 -128h-28l-45 103l-84 -103h-30zM496 300h-142l5 26h170l-46 -261q-34 -51 -86 -79.5t-117 -28.5q-101 0 -160 69.5t-59 201.5q0 57 12 124q22 122 69 202t109 117t131 37q57 0 96.5 -23t59.5 -60.5t21 -81.5l-25 -14q-1 62 -40.5 106.5t-113.5 44.5
q-61 0 -116.5 -35t-98 -109t-62.5 -185q-11 -68 -11 -118q0 -120 51 -184.5t139 -64.5q55 0 100 25t75 69z" />
    <glyph glyph-name="gcircumflex" unicode="&#x11d;" horiz-adv-x="502" 
d="M354 565l-46 114l-83 -114h-30l107 141h21l57 -141h-26zM457 488l-94 -534q-21 -125 -78.5 -179t-131.5 -54q-63 0 -107.5 34.5t-52.5 99.5l24 13q10 -59 46 -89.5t92 -30.5q144 0 181 207l23 129q-29 -62 -75.5 -94.5t-98.5 -32.5q-66 0 -107 52t-41 146q0 35 8 85
q15 87 50 144.5t80.5 85t94.5 27.5q58 0 95 -39t41 -114l27 144h24zM391 305q0 84 -35 124.5t-88 40.5q-66 0 -120.5 -57t-74.5 -174q-8 -48 -8 -81q0 -83 34.5 -128.5t90.5 -45.5q62 0 116 55.5t77 180.5q8 43 8 85z" />
    <glyph glyph-name="Gbreve" unicode="&#x11e;" horiz-adv-x="567" 
d="M332 797q-22 26 -22 69q0 16 3 32h25q-2 -20 -2 -27q0 -37 15.5 -56.5t44.5 -19.5q34 0 58 27t35 76h27q-11 -59 -43 -93t-81 -34q-38 0 -60 26zM496 300h-142l5 26h170l-46 -261q-34 -51 -86 -79.5t-117 -28.5q-101 0 -160 69.5t-59 201.5q0 57 12 124q22 122 69 202
t109 117t131 37q57 0 96.5 -23t59.5 -60.5t21 -81.5l-25 -14q-1 62 -40.5 106.5t-113.5 44.5q-61 0 -116.5 -35t-98 -109t-62.5 -185q-11 -68 -11 -118q0 -120 51 -184.5t139 -64.5q55 0 100 25t75 69z" />
    <glyph glyph-name="gbreve" unicode="&#x11f;" horiz-adv-x="502" 
d="M229.5 597q-21.5 26 -21.5 69q0 16 3 34h25q-2 -11 -2 -30q0 -36 15.5 -56t43.5 -20q34 0 58.5 28t35.5 78h26q-11 -60 -43 -94.5t-81 -34.5q-38 0 -59.5 26zM457 488l-94 -534q-21 -125 -78.5 -179t-131.5 -54q-63 0 -107.5 34.5t-52.5 99.5l24 13q10 -59 46 -89.5
t92 -30.5q144 0 181 207l23 129q-29 -62 -75.5 -94.5t-98.5 -32.5q-66 0 -107 52t-41 146q0 35 8 85q15 87 50 144.5t80.5 85t94.5 27.5q58 0 95 -39t41 -114l27 144h24zM391 305q0 84 -35 124.5t-88 40.5q-66 0 -120.5 -57t-74.5 -174q-8 -48 -8 -81q0 -83 34.5 -128.5
t90.5 -45.5q62 0 116 55.5t77 180.5q8 43 8 85z" />
    <glyph glyph-name="Gdotaccent" unicode="&#x120;" horiz-adv-x="567" 
d="M386.5 827q-8.5 8 -8.5 20t8 20t19 8t19.5 -8t8.5 -20t-8 -20t-19 -8t-19.5 8zM496 300h-142l5 26h170l-46 -261q-34 -51 -86 -79.5t-117 -28.5q-101 0 -160 69.5t-59 201.5q0 57 12 124q22 122 69 202t109 117t131 37q57 0 96.5 -23t59.5 -60.5t21 -81.5l-25 -14
q-1 62 -40.5 106.5t-113.5 44.5q-61 0 -116.5 -35t-98 -109t-62.5 -185q-11 -68 -11 -118q0 -120 51 -184.5t139 -64.5q55 0 100 25t75 69z" />
    <glyph glyph-name="gdotaccent" unicode="&#x121;" horiz-adv-x="502" 
d="M278.5 614q-8.5 8 -8.5 20t8 20t19 8t19.5 -8t8.5 -20t-8 -20t-19 -8t-19.5 8zM457 488l-94 -534q-21 -125 -78.5 -179t-131.5 -54q-63 0 -107.5 34.5t-52.5 99.5l24 13q10 -59 46 -89.5t92 -30.5q144 0 181 207l23 129q-29 -62 -75.5 -94.5t-98.5 -32.5q-66 0 -107 52
t-41 146q0 35 8 85q15 87 50 144.5t80.5 85t94.5 27.5q58 0 95 -39t41 -114l27 144h24zM391 305q0 84 -35 124.5t-88 40.5q-66 0 -120.5 -57t-74.5 -174q-8 -48 -8 -81q0 -83 34.5 -128.5t90.5 -45.5q62 0 116 55.5t77 180.5q8 43 8 85z" />
    <glyph glyph-name="uni0122" unicode="&#x122;" horiz-adv-x="567" 
d="M495 300h-141l5 26h170l-46 -261q-34 -51 -86 -79.5t-117 -28.5q-101 0 -160 69.5t-59 201.5q0 57 12 124q22 122 69 202t109 117t131 37q56 0 96 -23t60 -60.5t21 -81.5l-25 -14q-1 62 -40.5 106.5t-113.5 44.5q-61 0 -116.5 -35t-98 -109t-62.5 -185q-11 -68 -11 -118
q0 -120 50.5 -184.5t139.5 -64.5q55 0 99.5 24.5t74.5 69.5zM288 -141q0 -36 -23.5 -67.5t-69.5 -41.5l3 18q57 15 68 69q-6 -2 -11 -2q-9 0 -14 6t-5 15q0 12 8.5 22t20.5 10q23 0 23 -29z" />
    <glyph glyph-name="uni0123" unicode="&#x123;" horiz-adv-x="502" 
d="M279.5 614q-6.5 7 -6.5 22q0 4 2 16q6 33 28.5 59t62.5 34l-3 -18q-56 -16 -67 -69q6 2 9 2q9 0 14.5 -6t5.5 -15q0 -12 -8.5 -22t-20.5 -10q-10 0 -16.5 7zM457 488l-94 -534q-21 -125 -78.5 -179t-131.5 -54q-63 0 -107.5 34.5t-52.5 99.5l24 13q10 -59 46 -89.5
t92 -30.5q144 0 181 207l23 129q-29 -62 -75.5 -94.5t-98.5 -32.5q-66 0 -107 52t-41 146q0 35 8 85q15 87 50 144.5t80.5 85t94.5 27.5q58 0 95 -39t41 -114l27 144h24zM391 305q0 84 -35 124.5t-88 40.5q-66 0 -120.5 -57t-74.5 -174q-8 -48 -8 -81q0 -83 34.5 -128.5
t90.5 -45.5q62 0 116 55.5t77 180.5q8 43 8 85z" />
    <glyph glyph-name="Hcircumflex" unicode="&#x124;" horiz-adv-x="601" 
d="M402 900h21l59 -128h-28l-46 103l-83 -103h-31zM130 361h373l59 337h29l-129 -732h-29l65 367h-372l-65 -367h-29l129 732h29z" />
    <glyph glyph-name="hcircumflex" unicode="&#x125;" horiz-adv-x="479" 
d="M201 922h22l63 -128h-31l-48 104l-83 -104h-30zM381.5 460.5q33.5 -36.5 33.5 -107.5q0 -28 -6 -61l-58 -326h-28l57 324q6 32 6 58q0 61 -27.5 91.5t-74.5 30.5q-57 0 -104 -43.5t-63 -125.5l-60 -335h-27l135 761h27l-59 -331q26 48 68.5 74.5t90.5 26.5
q56 0 89.5 -36.5z" />
    <glyph glyph-name="Hbar" unicode="&#x126;" horiz-adv-x="617" 
d="M599 698l-27 -153h54l-5 -28h-55l-97 -551h-30l65 367h-371l-65 -367h-30l98 551h-54l5 28h54l27 153h29l-26 -153h371l27 153h30zM165 517l-28 -156h372l28 156h-372z" />
    <glyph glyph-name="hbar" unicode="&#x127;" horiz-adv-x="482" 
d="M384.5 460.5q33.5 -36.5 33.5 -107.5q0 -28 -6 -61l-58 -326h-28l57 324q6 32 6 58q0 61 -27.5 91.5t-74.5 30.5q-57 0 -104 -43.5t-63 -125.5l-60 -335h-28l111 625h-67l4 25h68l19 111h28l-20 -111h124l-5 -25h-123l-35 -195q26 48 68.5 74.5t90.5 26.5
q56 0 89.5 -36.5z" />
    <glyph glyph-name="Itilde" unicode="&#x128;" horiz-adv-x="200" 
d="M88 792q24 93 73 93q18 0 27 -10.5t18 -31.5q7 -17 12.5 -25t16.5 -8q30 0 47 70h25q-10 -41 -28.5 -67t-44.5 -26q-18 0 -27 11t-17 31q-7 17 -13 25t-17 8q-16 0 -27.5 -17.5t-20.5 -52.5h-24zM61 -34h-29l129 732h29z" />
    <glyph glyph-name="itilde" unicode="&#x129;" horiz-adv-x="192" 
d="M49 585q24 94 73 94q18 0 26.5 -10.5t18.5 -32.5q7 -17 12.5 -25t16.5 -8q29 0 47 71h24q-9 -42 -27.5 -68t-45.5 -26q-17 0 -26 10.5t-17 30.5q-7 17 -13.5 25.5t-17.5 8.5q-15 0 -26.5 -17.5t-21.5 -52.5h-23zM28 -34l92 522h27l-92 -522h-27z" />
    <glyph glyph-name="Imacron" unicode="&#x12a;" horiz-adv-x="200" 
d="M98 835l4 25h204l-5 -25h-203zM61 -34h-29l129 732h29z" />
    <glyph glyph-name="imacron" unicode="&#x12b;" horiz-adv-x="192" 
d="M58 627l4 26h204l-5 -26h-203zM28 -34l92 522h27l-92 -522h-27z" />
    <glyph glyph-name="Ibreve" unicode="&#x12c;" horiz-adv-x="200" 
d="M128 798q-22 26 -22 69q0 16 3 32h25q-2 -18 -2 -27q0 -37 16 -56.5t45 -19.5q33 0 57.5 27t35.5 76h26q-11 -59 -43 -93t-80 -34q-39 0 -61 26zM61 -34h-29l129 732h29z" />
    <glyph glyph-name="ibreve" unicode="&#x12d;" horiz-adv-x="192" 
d="M89.5 597q-21.5 26 -21.5 69q0 16 3 34h25q-2 -11 -2 -30q0 -36 15.5 -56t43.5 -20q34 0 58.5 28t35.5 78h26q-11 -60 -43 -94.5t-81 -34.5q-38 0 -59.5 26zM28 -34l92 522h27l-92 -522h-27z" />
    <glyph glyph-name="Iogonek" unicode="&#x12e;" horiz-adv-x="200" 
d="M70 -212l12 -16q-18 -23 -40.5 -37t-48.5 -14q-32 0 -54 20t-22 58q0 52 33.5 98t82.5 76l128 725h29l-129 -732q-100 -66 -115 -142q-2 -14 -2 -19q0 -30 16 -45t38 -15q36 0 72 43z" />
    <glyph glyph-name="iogonek" unicode="&#x12f;" horiz-adv-x="192" 
d="M176.5 654q8.5 -8 8.5 -20t-8 -20t-19 -8t-19.5 8t-8.5 20t8 20t19 8t19.5 -8zM55 -34q-116 -75 -116 -162q0 -29 15.5 -44t37.5 -15q37 0 73 43l11 -16q-17 -23 -39.5 -37t-48.5 -14q-32 0 -54 20t-22 58q0 53 34.5 99t82.5 76l91 514h27z" />
    <glyph glyph-name="Idotaccent" unicode="&#x130;" horiz-adv-x="200" 
d="M183 828q-8 8 -8 20t7.5 19.5t18.5 7.5q12 0 20 -7.5t8 -19.5t-7.5 -20t-19.5 -8q-11 0 -19 8zM61 -34h-29l129 732h29z" />
    <glyph glyph-name="dotlessi" unicode="&#x131;" horiz-adv-x="192" 
d="M28 -34l92 522h27l-92 -522h-27z" />
    <glyph glyph-name="IJ" unicode="&#x132;" horiz-adv-x="562" 
d="M61 -34h-29l129 732h29zM230.5 -14q-30.5 29 -34.5 85l26 15q4 -50 27.5 -76t63.5 -26q50 0 80 38.5t44 118.5l98 557h29l-98 -560q-17 -90 -52.5 -135.5t-100.5 -45.5q-52 0 -82.5 29z" />
    <glyph glyph-name="ij" unicode="&#x133;" horiz-adv-x="383" 
d="M144.5 630q-8.5 8 -8.5 19q0 12 8.5 20t19.5 8t18.5 -8t7.5 -19q0 -12 -7.5 -20t-18.5 -8t-19.5 8zM341 630q-8 8 -8 19q0 12 8 20t19 8t19 -8t8 -19q0 -12 -8 -20t-19 -8t-19 8zM56 -34h-28l92 522h28zM65 -271q-18 8 -28 21l17 24q17 -26 54 -26q79 0 105 150l104 590
h28l-104 -593q-16 -95 -51 -134.5t-83 -39.5q-24 0 -42 8z" />
    <glyph glyph-name="Jcircumflex" unicode="&#x134;" horiz-adv-x="354" 
d="M367 900h21l58 -128h-27l-46 103l-84 -103h-30zM22.5 -14q-30.5 29 -34.5 85l26 15q3 -50 26.5 -76t64.5 -26q50 0 79.5 38.5t43.5 118.5l98 557h29l-98 -560q-16 -90 -51.5 -135.5t-100.5 -45.5q-52 0 -82.5 29z" />
    <glyph glyph-name="jcircumflex" unicode="&#x135;" horiz-adv-x="180" 
d="M158 706h21l57 -141h-26l-46 114l-83 -114h-30zM-135.5 -271q-18.5 8 -27.5 21l16 24q19 -26 54 -26q36 0 63.5 33t42.5 117l103 590h27l-103 -593q-17 -95 -51.5 -134.5t-82.5 -39.5q-23 0 -41.5 8z" />
    <glyph glyph-name="uni0136" unicode="&#x136;" horiz-adv-x="530" 
d="M536 698h39l-301 -302l190 -430h-35l-178 407l-144 -145l-46 -262h-29l129 732h29l-64 -363l-11 -61l61 62zM253 -141q0 -36 -23.5 -67.5t-69.5 -41.5l3 18q57 16 67 69q-4 -2 -10 -2q-9 0 -14 6t-5 15q0 12 8.5 22t20.5 10q23 0 23 -29z" />
    <glyph glyph-name="uni0137" unicode="&#x137;" horiz-adv-x="417" 
d="M396 488h36l-217 -221l143 -301h-33l-131 280l-106 -108l-30 -172h-28l134 761h28l-78 -441q-12 -67 -18 -104l89 90zM200 -141q0 -35 -23.5 -67t-69.5 -42l3 18q58 16 67 70q-3 -3 -10 -3q-9 0 -14 6.5t-5 15.5q0 13 9 22t20 9q23 0 23 -29z" />
    <glyph glyph-name="kgreenlandic" unicode="&#x138;" horiz-adv-x="417" 
d="M396 488h36l-217 -221l143 -301h-33l-131 280l-106 -108l-30 -172h-28l93 522h28l-37 -202q-3 -13 -11 -64l-7 -40l89 90z" />
    <glyph glyph-name="Lacute" unicode="&#x139;" horiz-adv-x="472" 
d="M174 772l90 128h32l-96 -128h-26zM161 698h29l-125 -705h302l-5 -27h-330z" />
    <glyph glyph-name="lacute" unicode="&#x13a;" horiz-adv-x="196" 
d="M180 791l89 128h33l-97 -128h-25zM58 -34h-28l135 761h28z" />
    <glyph glyph-name="uni013B" unicode="&#x13b;" horiz-adv-x="452" 
d="M161 698h29l-125 -705h302l-5 -27h-330zM210 -141q0 -36 -23.5 -67.5t-69.5 -41.5l3 18q57 15 68 69q-6 -2 -11 -2q-9 0 -14 6t-5 15q0 12 8.5 22t20.5 10q23 0 23 -29z" />
    <glyph glyph-name="uni013C" unicode="&#x13c;" horiz-adv-x="196" 
d="M58 -34h-28l135 761h28zM52 -141q0 -36 -23.5 -67.5t-69.5 -41.5l3 18q57 15 68 69q-6 -2 -11 -2q-9 0 -14 6t-5 15q0 12 8.5 22t20.5 10q23 0 23 -29z" />
    <glyph glyph-name="Lcaron" unicode="&#x13d;" horiz-adv-x="472" 
d="M399.5 700.5q6.5 -7.5 6.5 -22.5q0 -9 -1 -15q-6 -33 -29 -59t-63 -34l4 18q56 15 67 69q-6 -2 -10 -2q-9 0 -14.5 6.5t-5.5 15.5q0 11 9 21t20 10q10 0 16.5 -7.5zM166 698h28l-124 -705h302l-6 -27h-329z" />
    <glyph glyph-name="lcaron" unicode="&#x13e;" horiz-adv-x="215" 
d="M321 706q0 -8 -1 -13q-6 -33 -28.5 -58.5t-62.5 -33.5l3 17q55 15 67 68q-3 -1 -10 -1q-9 0 -14 6t-5 15q0 12 8 21t20 9q23 0 23 -30zM58 -34h-28l135 761h28z" />
    <glyph glyph-name="Ldot" unicode="&#x13f;" horiz-adv-x="452" 
d="M161 698h29l-125 -705h302l-5 -27h-330zM260.5 323q-8.5 8 -8.5 20t8 19.5t19 7.5q12 0 20 -7.5t8 -19.5t-8 -20t-19 -8t-19.5 8z" />
    <glyph glyph-name="ldot" unicode="&#x140;" horiz-adv-x="193" 
d="M60 -34h-28l135 761h28zM191 333.5q-8 7.5 -8 19.5q0 10 7.5 17.5t18.5 7.5t18.5 -7.5t7.5 -17.5q0 -12 -7.5 -19.5t-18.5 -7.5q-10 0 -18 7.5z" />
    <glyph glyph-name="Lslash" unicode="&#x141;" horiz-adv-x="471" 
d="M298 390l-157 -75l-57 -322h302l-6 -27h-329l58 333l-106 -51l5 30l106 52l66 368h28l-62 -353l157 76z" />
    <glyph glyph-name="lslash" unicode="&#x142;" horiz-adv-x="204" 
d="M198 727l-62 -349l81 50l-6 -31l-81 -51l-67 -380h-28l64 362l-82 -51l5 31l82 51l66 368h28z" />
    <glyph glyph-name="Nacute" unicode="&#x143;" horiz-adv-x="599" 
d="M377 772l89 128h32l-96 -128h-25zM186 698l257 -671l118 671h27l-129 -732h-24l-257 673l-119 -673h-27l129 732h25z" />
    <glyph glyph-name="nacute" unicode="&#x144;" horiz-adv-x="480" 
d="M274 565l87 141h33l-95 -141h-25zM382.5 460.5q33.5 -36.5 33.5 -107.5q0 -28 -6 -61l-58 -326h-28l57 324q5 26 5 57q0 61 -27.5 92t-73.5 31q-58 0 -106 -45t-63 -129l-58 -330h-28l92 522h25q-4 -17 -13 -76l-3 -22q25 51 68.5 79t93.5 28q56 0 89.5 -36.5z" />
    <glyph glyph-name="uni0145" unicode="&#x145;" horiz-adv-x="599" 
d="M186 698l257 -671l118 671h27l-129 -732h-24l-257 673l-119 -673h-27l129 732h25zM254 -141q0 -36 -23.5 -67.5t-69.5 -41.5l3 18q57 15 68 69q-6 -2 -11 -2q-9 0 -14 6t-5 15q0 12 8.5 22t20.5 10q23 0 23 -29z" />
    <glyph glyph-name="uni0146" unicode="&#x146;" horiz-adv-x="480" 
d="M382.5 460.5q33.5 -36.5 33.5 -107.5q0 -28 -6 -61l-58 -326h-28l57 324q5 26 5 57q0 61 -27.5 92t-73.5 31q-58 0 -106 -45t-63 -129l-58 -330h-28l92 522h25q-4 -17 -13 -76l-3 -22q25 51 68.5 79t93.5 28q56 0 89.5 -36.5zM193.5 -119q6.5 -7 6.5 -22
q0 -36 -23.5 -67.5t-69.5 -41.5l3 18q57 16 67 69q-6 -2 -10 -2q-9 0 -14.5 5.5t-5.5 14.5q0 12 9 22.5t21 10.5q10 0 16.5 -7z" />
    <glyph glyph-name="Ncaron" unicode="&#x147;" horiz-adv-x="599" 
d="M344 900l46 -103l83 103h31l-108 -128h-21l-59 128h28zM186 698l257 -671l118 671h27l-129 -732h-24l-257 673l-119 -673h-27l129 732h25z" />
    <glyph glyph-name="ncaron" unicode="&#x148;" horiz-adv-x="480" 
d="M248 706l46 -114l83 114h30l-107 -141h-21l-57 141h26zM382.5 460.5q33.5 -36.5 33.5 -107.5q0 -28 -6 -61l-58 -326h-28l57 324q5 26 5 57q0 61 -27.5 92t-73.5 31q-58 0 -106 -45t-63 -129l-58 -330h-28l92 522h25q-4 -17 -13 -76l-3 -22q25 51 68.5 79t93.5 28
q56 0 89.5 -36.5z" />
    <glyph glyph-name="napostrophe" unicode="&#x149;" horiz-adv-x="474" 
d="M150 707q0 -3 -2 -15q-6 -33 -28.5 -59t-63.5 -34l4 18q55 15 67 68l-9 -1q-9 0 -14.5 6t-5.5 15q0 12 8.5 21.5t20.5 9.5q23 0 23 -29zM375.5 460.5q33.5 -36.5 33.5 -107.5q0 -28 -6 -61l-58 -326h-28l58 324q5 26 5 57q0 62 -27.5 92.5t-74.5 30.5q-58 0 -106 -45
t-62 -129l-59 -330h-28l92 522h25l-4 -29l-12 -69q26 51 69 79t93 28q56 0 89.5 -36.5z" />
    <glyph glyph-name="Eng" unicode="&#x14a;" horiz-adv-x="599" 
d="M561 698h27l-148 -842q-24 -135 -118 -135q-20 0 -38.5 6t-30.5 17l16 24q23 -21 56 -21q68 0 88 112l20 112l-255 668l-119 -673h-27l129 732h25l257 -671z" />
    <glyph glyph-name="eng" unicode="&#x14b;" horiz-adv-x="480" 
d="M382.5 460.5q33.5 -36.5 33.5 -107.5q0 -28 -6 -61l-78 -437q-13 -73 -41 -103.5t-70 -30.5q-23 0 -41.5 6.5t-30.5 18.5l15 23q22 -22 57 -22q31 0 52 25t32 89l76 429q5 26 5 57q0 61 -27.5 92t-73.5 31q-58 0 -106 -45t-63 -129l-58 -330h-28l92 522h25
q-4 -17 -13 -76l-3 -22q25 51 68.5 79t93.5 28q56 0 89.5 -36.5z" />
    <glyph glyph-name="Omacron" unicode="&#x14c;" horiz-adv-x="618" 
d="M307 834l4 26h204l-5 -26h-203zM185.5 619q81.5 89 187.5 89q95 0 151 -70t56 -199q0 -57 -12 -126q-32 -180 -113 -268t-188 -88q-95 0 -150.5 68.5t-55.5 197.5q0 58 12 127q31 180 112.5 269zM91 227q0 -117 47.5 -180t130.5 -63q94 0 166.5 82.5t101.5 246.5
q12 68 12 123q0 117 -47.5 180.5t-130.5 63.5q-60 0 -114 -36t-94.5 -110t-59.5 -184q-12 -67 -12 -123z" />
    <glyph glyph-name="omacron" unicode="&#x14d;" horiz-adv-x="479" 
d="M201 627l4 26h204l-5 -26h-203zM129 433.5q61 63.5 141 63.5q72 0 114 -52t42 -146q0 -45 -8 -88q-23 -129 -84 -191.5t-140 -62.5q-72 0 -114.5 51.5t-42.5 145.5q0 35 8 85q23 131 84 194.5zM66 156q0 -83 35 -127.5t96 -44.5q67 0 119.5 56t72.5 174q8 48 8 83
q0 83 -34.5 128t-94.5 45q-66 0 -120 -57.5t-74 -174.5q-8 -48 -8 -82z" />
    <glyph glyph-name="Obreve" unicode="&#x14e;" horiz-adv-x="618" 
d="M337 798q-22 26 -22 69q0 16 3 32h25q-2 -18 -2 -27q0 -37 16 -57t45 -20q33 0 57.5 27.5t35.5 76.5h26q-11 -59 -43 -93t-80 -34q-39 0 -61 26zM185.5 619q81.5 89 187.5 89q95 0 151 -70t56 -199q0 -57 -12 -126q-32 -180 -113 -268t-188 -88q-95 0 -150.5 68.5
t-55.5 197.5q0 58 12 127q31 180 112.5 269zM91 227q0 -117 47.5 -180t130.5 -63q94 0 166.5 82.5t101.5 246.5q12 68 12 123q0 117 -47.5 180.5t-130.5 63.5q-60 0 -114 -36t-94.5 -110t-59.5 -184q-12 -67 -12 -123z" />
    <glyph glyph-name="obreve" unicode="&#x14f;" horiz-adv-x="479" 
d="M232.5 596q-21.5 26 -21.5 70q0 16 3 34h25q-2 -11 -2 -30q0 -36 15.5 -56t43.5 -20q34 0 58.5 28t35.5 78h26q-11 -60 -43 -95t-81 -35q-38 0 -59.5 26zM129 433.5q61 63.5 141 63.5q72 0 114 -52t42 -146q0 -45 -8 -88q-23 -129 -84 -191.5t-140 -62.5
q-72 0 -114.5 51.5t-42.5 145.5q0 35 8 85q23 131 84 194.5zM66 156q0 -83 35 -127.5t96 -44.5q67 0 119.5 56t72.5 174q8 48 8 83q0 83 -34.5 128t-94.5 45q-66 0 -120 -57.5t-74 -174.5q-8 -48 -8 -82z" />
    <glyph glyph-name="Ohungarumlaut" unicode="&#x150;" horiz-adv-x="618" 
d="M338 772l87 139h32l-95 -139h-24zM421 772l87 139h32l-95 -139h-24zM185.5 619q81.5 89 187.5 89q95 0 151 -70t56 -199q0 -57 -12 -126q-32 -180 -113 -268t-188 -88q-95 0 -150.5 68.5t-55.5 197.5q0 58 12 127q31 180 112.5 269zM91 227q0 -117 47.5 -180t130.5 -63
q94 0 166.5 82.5t101.5 246.5q12 68 12 123q0 117 -47.5 180.5t-130.5 63.5q-60 0 -114 -36t-94.5 -110t-59.5 -184q-12 -67 -12 -123z" />
    <glyph glyph-name="ohungarumlaut" unicode="&#x151;" horiz-adv-x="479" 
d="M232 565l88 141h31l-95 -141h-24zM315 565l88 141h31l-95 -141h-24zM129 433.5q61 63.5 141 63.5q72 0 114 -52t42 -146q0 -45 -8 -88q-23 -129 -84 -191.5t-140 -62.5q-72 0 -114.5 51.5t-42.5 145.5q0 35 8 85q23 131 84 194.5zM66 156q0 -83 35 -127.5t96 -44.5
q67 0 119.5 56t72.5 174q8 48 8 83q0 83 -34.5 128t-94.5 45q-66 0 -120 -57.5t-74 -174.5q-8 -48 -8 -82z" />
    <glyph glyph-name="OE" unicode="&#x152;" horiz-adv-x="919" 
d="M936 698l-5 -27h-302l-54 -312h273l-4 -27h-275l-59 -339h311l-5 -27h-340l32 180q-41 -96 -103 -142.5t-138 -46.5q-95 0 -150.5 68.5t-55.5 197.5q0 58 12 127q31 180 112.5 269t187.5 89q85 0 136 -57.5t58 -166.5l38 214h331zM435.5 66.5q72.5 82.5 101.5 246.5
q12 68 12 123q0 117 -47.5 180.5t-130.5 63.5q-60 0 -114 -36t-94.5 -110t-59.5 -184q-12 -67 -12 -123q0 -117 47.5 -180t130.5 -63q94 0 166.5 82.5z" />
    <glyph glyph-name="oe" unicode="&#x153;" horiz-adv-x="760" 
d="M631 9q35 24 57 69l20 -16q-24 -51 -66 -78t-94 -27q-69 0 -110 46.5t-45 130.5q-29 -90 -82 -133.5t-117 -43.5q-72 0 -114.5 51.5t-42.5 145.5q0 35 8 85q23 131 84 194.5t141 63.5q66 0 106 -45t44 -129q30 87 84 130.5t117 43.5q59 0 90 -35t31 -91
q0 -71 -52.5 -107.5t-168.5 -36.5q-44 0 -100 6q-6 -37 -6 -71q0 -85 36 -131t99 -46q46 0 81 24zM397 297q0 83 -34.5 128t-94.5 45q-66 0 -120 -57.5t-75 -174.5q-8 -48 -8 -81q0 -84 35.5 -128.5t95.5 -44.5q67 0 120 56t73 174q8 48 8 83zM500 418q-52 -52 -74 -160
q56 -6 99 -6q98 0 143 29.5t45 89.5q0 44 -24 71.5t-72 27.5q-65 0 -117 -52z" />
    <glyph glyph-name="Racute" unicode="&#x154;" horiz-adv-x="491" 
d="M383 900h33l-97 -128h-25zM411 362q-46 -47 -117 -61l137 -335h-32l-133 330q-9 -1 -29 -1h-118l-58 -329h-29l129 732h140q82 0 127.5 -45t45.5 -121q0 -25 -4 -48q-13 -75 -59 -122zM237 322q82 0 134.5 42t66.5 124q4 21 4 45q0 65 -38.5 101.5t-107.5 36.5h-111
l-62 -349h114z" />
    <glyph glyph-name="racute" unicode="&#x155;" horiz-adv-x="298" 
d="M213 565l88 141h32l-95 -141h-25zM318 475l-15 -23q-14 18 -41 18q-30 0 -60.5 -22t-54 -65.5t-34.5 -103.5l-55 -313h-28l92 522h25l-17 -100q24 51 60.5 80t75.5 29q34 0 52 -22z" />
    <glyph glyph-name="uni0156" unicode="&#x156;" horiz-adv-x="491" 
d="M411 362q-46 -47 -117 -61l137 -335h-32l-133 330q-9 -1 -29 -1h-118l-58 -329h-29l129 732h140q82 0 127.5 -45t45.5 -121q0 -25 -4 -48q-13 -75 -59 -122zM237 322q82 0 134.5 42t66.5 124q4 21 4 45q0 65 -38.5 101.5t-107.5 36.5h-111l-62 -349h114zM235.5 -119
q6.5 -7 6.5 -22q0 -36 -23.5 -67.5t-69.5 -41.5l3 18q57 16 67 69q-6 -2 -10 -2q-9 0 -14.5 5.5t-5.5 14.5q0 12 9 22.5t21 10.5q10 0 16.5 -7z" />
    <glyph glyph-name="uni0157" unicode="&#x157;" horiz-adv-x="298" 
d="M318 475l-15 -23q-14 18 -41 18q-30 0 -60.5 -22t-54 -65.5t-34.5 -103.5l-55 -313h-28l92 522h25l-17 -100q24 51 60.5 80t75.5 29q34 0 52 -22zM53 -141q0 -36 -23.5 -67.5t-69.5 -41.5l3 18q57 15 68 69q-6 -2 -11 -2q-9 0 -14 6t-5 15q0 12 8.5 22t20.5 10
q23 0 23 -29z" />
    <glyph glyph-name="Rcaron" unicode="&#x158;" horiz-adv-x="491" 
d="M421 900l-107 -128h-21l-59 128h28l45 -103l84 103h30zM411 362q-46 -47 -117 -61l137 -335h-32l-133 330q-9 -1 -29 -1h-118l-58 -329h-29l129 732h140q82 0 127.5 -45t45.5 -121q0 -25 -4 -48q-13 -75 -59 -122zM237 322q82 0 134.5 42t66.5 124q4 21 4 45
q0 65 -38.5 101.5t-107.5 36.5h-111l-62 -349h114z" />
    <glyph glyph-name="rcaron" unicode="&#x159;" horiz-adv-x="298" 
d="M187 706l46 -114l83 114h31l-108 -141h-21l-57 141h26zM318 475l-15 -23q-14 18 -41 18q-30 0 -60.5 -22t-54 -65.5t-34.5 -103.5l-55 -313h-28l92 522h25l-17 -100q24 51 60.5 80t75.5 29q34 0 52 -22z" />
    <glyph glyph-name="Sacute" unicode="&#x15a;" horiz-adv-x="444" 
d="M305 772l89 128h33l-97 -128h-25zM324 1q-52 -44 -127 -44q-52 0 -95 20.5t-69 58t-28 85.5l26 12q4 -65 52 -107t116 -42q36 0 67 13.5t53 39.5q29 35 38 89q3 20 3 37q0 41 -17.5 72.5t-43 53.5t-69.5 53q-43 31 -69 53.5t-44 54.5t-18 74q0 17 3 36q12 73 69 114
q25 17 55 25.5t60 8.5q48 0 83 -18.5t53.5 -49.5t18.5 -68l-24 -12q-2 52 -36.5 86t-96.5 34q-60 0 -102 -33q-39 -33 -49 -90q-3 -16 -3 -30q0 -36 16.5 -64t40.5 -49t65 -49q46 -33 73.5 -57t46.5 -59t19 -82q0 -23 -4 -44q-14 -78 -63 -122z" />
    <glyph glyph-name="sacute" unicode="&#x15b;" horiz-adv-x="377" 
d="M228 566l87 141h33l-95 -141h-25zM292.5 41.5q-14.5 -31.5 -39.5 -51.5q-42 -33 -101 -33t-98.5 32t-43.5 93l24 13q4 -55 37 -83t82 -28q47 0 80 25t42 74q2 9 2 25q0 42 -25 67.5t-74 55.5q-34 21 -54 36.5t-34 38t-14 53.5q0 16 2 25q10 55 48 83q40 30 97 30
q55 0 89 -30t38 -81l-25 -14q-2 47 -30 72.5t-74 25.5q-42 0 -74 -22t-40 -66q-2 -14 -2 -19q0 -37 23.5 -60.5t70.5 -50.5q36 -22 57 -38.5t36 -41.5t15 -59q0 -40 -14.5 -71.5z" />
    <glyph glyph-name="Scircumflex" unicode="&#x15c;" horiz-adv-x="444" 
d="M327 900h21l59 -128h-28l-46 103l-83 -103h-30zM324 1q-52 -44 -127 -44q-52 0 -95 20.5t-69 58t-28 85.5l26 12q4 -65 52 -107t116 -42q36 0 67 13.5t53 39.5q29 35 38 89q3 20 3 37q0 41 -17.5 72.5t-43 53.5t-69.5 53q-43 31 -69 53.5t-44 54.5t-18 74q0 17 3 36
q12 73 69 114q25 17 55 25.5t60 8.5q48 0 83 -18.5t53.5 -49.5t18.5 -68l-24 -12q-2 52 -36.5 86t-96.5 34q-60 0 -102 -33q-39 -33 -49 -90q-3 -16 -3 -30q0 -36 16.5 -64t40.5 -49t65 -49q46 -33 73.5 -57t46.5 -59t19 -82q0 -23 -4 -44q-14 -78 -63 -122z" />
    <glyph glyph-name="scircumflex" unicode="&#x15d;" horiz-adv-x="377" 
d="M258 707h21l57 -141h-26l-46 114l-83 -114h-30zM292.5 41.5q-14.5 -31.5 -39.5 -51.5q-42 -33 -101 -33t-98.5 32t-43.5 93l24 13q4 -55 37 -83t82 -28q47 0 80 25t42 74q2 9 2 25q0 42 -25 67.5t-74 55.5q-34 21 -54 36.5t-34 38t-14 53.5q0 16 2 25q10 55 48 83
q40 30 97 30q55 0 89 -30t38 -81l-25 -14q-2 47 -30 72.5t-74 25.5q-42 0 -74 -22t-40 -66q-2 -14 -2 -19q0 -37 23.5 -60.5t70.5 -50.5q36 -22 57 -38.5t36 -41.5t15 -59q0 -40 -14.5 -71.5z" />
    <glyph glyph-name="Scedilla" unicode="&#x15e;" horiz-adv-x="444" 
d="M130 527q0 -36 16.5 -64t40.5 -49t65 -49q46 -33 73.5 -57t46.5 -59t19 -82q0 -23 -4 -44q-14 -78 -63 -122q-47 -41 -116 -44l-46 -81q38 -1 60.5 -18.5t22.5 -47.5q0 -42 -29.5 -65.5t-70.5 -23.5q-28 0 -48 8l4 24q26 -9 45 -9q26 0 45.5 13.5t24.5 39.5q1 5 1 13
q0 26 -23 36.5t-59 7.5l-2 18l49 86q-75 5 -124 49t-53 114l26 12q4 -65 52 -107t116 -42q36 0 67 13.5t53 39.5q29 35 38 89q3 20 3 37q0 41 -17.5 72.5t-43 53.5t-69.5 53q-43 31 -69 53.5t-44 54.5t-18 74q0 17 3 36q12 73 69 114q25 17 55 25.5t60 8.5q48 0 83 -18.5
t53.5 -49.5t18.5 -68l-24 -12q-2 52 -36.5 86t-96.5 34q-60 0 -102 -33q-39 -33 -49 -90q-3 -16 -3 -30z" />
    <glyph glyph-name="scedilla" unicode="&#x15f;" horiz-adv-x="377" 
d="M105 363q0 -37 23.5 -60.5t70.5 -50.5q36 -22 57 -38.5t36 -41.5t15 -59q0 -40 -14.5 -71.5t-39.5 -51.5q-40 -32 -100 -32l-46 -82q38 0 60.5 -17.5t22.5 -47.5q0 -42 -29.5 -65.5t-70.5 -23.5q-27 0 -48 7l4 25q22 -9 45 -9q27 0 46 13t25 40q1 4 1 12q0 25 -23.5 36
t-59.5 9l-1 18l47 86q-49 7 -80.5 38.5t-35.5 84.5l24 13q4 -55 37 -83t82 -28q47 0 80 25t42 74q2 9 2 25q0 42 -25 67.5t-74 55.5q-34 21 -54 36.5t-34 38t-14 53.5q0 16 2 25q10 55 48 83q40 30 97 30q55 0 89 -30t38 -81l-25 -14q-2 47 -30 72.5t-74 25.5q-42 0 -74 -22
t-40 -66q-2 -14 -2 -19z" />
    <glyph glyph-name="Scaron" unicode="&#x160;" horiz-adv-x="444" 
d="M273 900l45 -103l84 103h30l-107 -128h-21l-59 128h28zM324 1q-52 -44 -127 -44q-52 0 -95 20.5t-69 58t-28 85.5l26 12q4 -65 52 -107t116 -42q36 0 67 13.5t53 39.5q29 35 38 89q3 20 3 37q0 41 -17.5 72.5t-43 53.5t-69.5 53q-43 31 -69 53.5t-44 54.5t-18 74
q0 17 3 36q12 73 69 114q25 17 55 25.5t60 8.5q48 0 83 -18.5t53.5 -49.5t18.5 -68l-24 -12q-2 52 -36.5 86t-96.5 34q-60 0 -102 -33q-39 -33 -49 -90q-3 -16 -3 -30q0 -36 16.5 -64t40.5 -49t65 -49q46 -33 73.5 -57t46.5 -59t19 -82q0 -23 -4 -44q-14 -78 -63 -122z" />
    <glyph glyph-name="scaron" unicode="&#x161;" horiz-adv-x="377" 
d="M202 707l46 -114l83 114h31l-108 -141h-21l-57 141h26zM292.5 41.5q-14.5 -31.5 -39.5 -51.5q-42 -33 -101 -33t-98.5 32t-43.5 93l24 13q4 -55 37 -83t82 -28q47 0 80 25t42 74q2 9 2 25q0 42 -25 67.5t-74 55.5q-34 21 -54 36.5t-34 38t-14 53.5q0 16 2 25q10 55 48 83
q40 30 97 30q55 0 89 -30t38 -81l-25 -14q-2 47 -30 72.5t-74 25.5q-42 0 -74 -22t-40 -66q-2 -14 -2 -19q0 -37 23.5 -60.5t70.5 -50.5q36 -22 57 -38.5t36 -41.5t15 -59q0 -40 -14.5 -71.5z" />
    <glyph glyph-name="uni0162" unicode="&#x162;" horiz-adv-x="448" 
d="M89 671l4 27h412l-4 -27h-192l-124 -705l-59 -89q37 -1 58.5 -19t21.5 -49q0 -5 -2 -17q-6 -36 -31.5 -53.5t-60.5 -17.5q-30 0 -55 11l5 24q26 -12 49 -12q56 0 65 49q1 4 1 12q0 27 -23.5 40t-57.5 9l-2 18l64 94h-2l124 705h-191z" />
    <glyph glyph-name="uni0163" unicode="&#x163;" horiz-adv-x="287" 
d="M281 463h-121l-64 -367q-4 -21 -4 -43q0 -70 59 -70q16 0 29 4.5t29 14.5l7 -22q-41 -28 -84 -23l-45 -81q38 -1 60.5 -18.5t22.5 -47.5q0 -42 -29.5 -65.5t-70.5 -23.5q-28 0 -48 8l4 24q26 -9 45 -9q26 0 45.5 13.5t24.5 39.5q1 5 1 13q0 26 -23 36.5t-59 7.5l-2 18
l51 91q-46 16 -46 85q0 18 5 48l65 367h-71l3 25h73l25 142h27l-25 -142h119z" />
    <glyph glyph-name="Tcaron" unicode="&#x164;" horiz-adv-x="448" 
d="M269 900l46 -103l84 103h30l-108 -128h-21l-58 128h27zM93 698h412l-4 -27h-192l-124 -705h-29l124 705h-191z" />
    <glyph glyph-name="tcaron" unicode="&#x165;" horiz-adv-x="285" 
d="M367.5 735q6.5 -7 6.5 -23q0 -4 -2 -18q-7 -40 -31.5 -72t-66.5 -43l4 19q31 11 49.5 35t23.5 57q-8 -2 -11 -2q-10 0 -15.5 6t-5.5 15q0 13 9.5 23t22.5 10q10 0 16.5 -7zM281 463h-121l-64 -367q-4 -21 -4 -43q0 -70 59 -70q16 0 29 4.5t29 14.5l7 -22
q-18 -12 -34 -17.5t-37 -5.5q-82 0 -82 90q0 19 5 49l65 367h-71l3 25h73l25 142h27l-25 -142h119z" />
    <glyph glyph-name="Tbar" unicode="&#x166;" horiz-adv-x="448" 
d="M93 698h412l-4 -27h-192l-54 -305h123l-6 -27h-121l-66 -373h-29l66 373h-123l6 27h121l54 305h-191z" />
    <glyph glyph-name="tbar" unicode="&#x167;" horiz-adv-x="287" 
d="M281 463h-121l-35 -199h121l-4 -25h-121l-25 -143q-4 -21 -4 -43q0 -70 59 -70q16 0 29 4.5t29 14.5l7 -22q-18 -12 -34 -17.5t-37 -5.5q-82 0 -82 89q0 18 5 50l26 143h-72l5 25h71l35 199h-71l3 25h73l25 142h27l-25 -142h119z" />
    <glyph glyph-name="Utilde" unicode="&#x168;" horiz-adv-x="577" 
d="M277 792q24 93 73 93q18 0 27 -10.5t18 -31.5q7 -17 12.5 -25t16.5 -8q30 0 47 70h25q-10 -42 -28.5 -68t-45.5 -26q-17 0 -26 11t-17 31q-7 17 -13 25t-17 8q-16 0 -27.5 -17t-20.5 -52h-24zM550 698h29l-86 -488q-22 -125 -86.5 -189t-163.5 -64q-89 0 -135.5 50.5
t-46.5 146.5q0 36 8 86l80 458h28l-79 -453q-8 -50 -8 -85q0 -87 39 -131.5t116 -44.5q85 0 142 56.5t78 172.5z" />
    <glyph glyph-name="utilde" unicode="&#x169;" horiz-adv-x="480" 
d="M188 585q24 94 73 94q18 0 26.5 -10.5t18.5 -32.5q7 -17 12.5 -25t16.5 -8q29 0 47 71h25q-10 -42 -28.5 -68t-45.5 -26q-17 0 -26 11t-17 31q-7 17 -13 25t-17 8q-16 0 -27.5 -17.5t-20.5 -52.5h-24zM82 -7q-33 36 -33 106q0 29 6 63l57 326h28l-57 -325q-5 -26 -5 -57
q0 -61 27.5 -91.5t73.5 -30.5q58 0 106 45t63 129l58 330h29l-92 -522h-25l15 98q-25 -51 -68.5 -79t-93.5 -28q-56 0 -89 36z" />
    <glyph glyph-name="Umacron" unicode="&#x16a;" horiz-adv-x="577" 
d="M287 834l4 26h204l-5 -26h-203zM550 698h29l-86 -488q-22 -125 -86.5 -189t-163.5 -64q-89 0 -135.5 50.5t-46.5 146.5q0 36 8 86l80 458h28l-79 -453q-8 -50 -8 -85q0 -87 39 -131.5t116 -44.5q85 0 142 56.5t78 172.5z" />
    <glyph glyph-name="umacron" unicode="&#x16b;" horiz-adv-x="480" 
d="M197 627l4 26h204l-5 -26h-203zM82 -7q-33 36 -33 106q0 29 6 63l57 326h28l-57 -325q-5 -26 -5 -57q0 -61 27.5 -91.5t73.5 -30.5q58 0 106 45t63 129l58 330h29l-92 -522h-25l15 98q-25 -51 -68.5 -79t-93.5 -28q-56 0 -89 36z" />
    <glyph glyph-name="Ubreve" unicode="&#x16c;" horiz-adv-x="577" 
d="M317 798q-22 26 -22 69q0 16 3 32h25q-2 -18 -2 -27q0 -37 16 -57t45 -20q33 0 57.5 27.5t35.5 76.5h26q-11 -59 -43 -93t-80 -34q-39 0 -61 26zM550 698h29l-86 -488q-22 -125 -86.5 -189t-163.5 -64q-89 0 -135.5 50.5t-46.5 146.5q0 36 8 86l80 458h28l-79 -453
q-8 -50 -8 -85q0 -87 39 -131.5t116 -44.5q85 0 142 56.5t78 172.5z" />
    <glyph glyph-name="ubreve" unicode="&#x16d;" horiz-adv-x="480" 
d="M229 597q-22 26 -22 69q0 16 3 34h25q-2 -11 -2 -30q0 -36 15.5 -56t43.5 -20q34 0 58.5 28t35.5 78h27q-11 -60 -43.5 -94.5t-80.5 -34.5q-38 0 -60 26zM82 -7q-33 36 -33 106q0 29 6 63l57 326h28l-57 -325q-5 -26 -5 -57q0 -61 27.5 -91.5t73.5 -30.5q58 0 106 45
t63 129l58 330h29l-92 -522h-25l15 98q-25 -51 -68.5 -79t-93.5 -28q-56 0 -89 36z" />
    <glyph glyph-name="Uring" unicode="&#x16e;" horiz-adv-x="577" 
d="M337.5 918q23.5 23 56.5 23t56 -22.5t23 -57.5t-23.5 -58t-55.5 -23q-34 0 -57 23t-23 58q0 34 23.5 57zM354 819q16 -17 40 -17t39 16.5t15 42.5t-15 42t-39 16t-40 -16.5t-16 -41.5t16 -42zM550 698h29l-86 -488q-22 -125 -86.5 -189t-163.5 -64q-89 0 -135.5 50.5
t-46.5 146.5q0 36 8 86l80 458h28l-79 -453q-8 -50 -8 -85q0 -87 39 -131.5t116 -44.5q85 0 142 56.5t78 172.5z" />
    <glyph glyph-name="uring" unicode="&#x16f;" horiz-adv-x="480" 
d="M231 708q24 23 57 23q32 0 55 -22.5t23 -57.5t-23 -58t-55 -23q-34 0 -57.5 23t-23.5 58q0 34 24 57zM247.5 608.5q15.5 -16.5 40.5 -16.5q23 0 38.5 17t15.5 42t-15.5 41.5t-38.5 16.5q-25 0 -40.5 -16t-15.5 -42t15.5 -42.5zM82 -7q-33 36 -33 106q0 29 6 63l57 326h28
l-57 -325q-5 -26 -5 -57q0 -61 27.5 -91.5t73.5 -30.5q58 0 106 45t63 129l58 330h29l-92 -522h-25l15 98q-25 -51 -68.5 -79t-93.5 -28q-56 0 -89 36z" />
    <glyph glyph-name="Uhungarumlaut" unicode="&#x170;" horiz-adv-x="577" 
d="M318 772l87 139h32l-95 -139h-24zM401 772l87 139h32l-95 -139h-24zM550 698h29l-86 -488q-22 -125 -86.5 -189t-163.5 -64q-89 0 -135.5 50.5t-46.5 146.5q0 36 8 86l80 458h28l-79 -453q-8 -50 -8 -85q0 -87 39 -131.5t116 -44.5q85 0 142 56.5t78 172.5z" />
    <glyph glyph-name="uhungarumlaut" unicode="&#x171;" horiz-adv-x="480" 
d="M228 565l88 141h31l-94 -141h-25zM311 565l88 141h31l-94 -141h-25zM82 -7q-33 36 -33 106q0 29 6 63l57 326h28l-57 -325q-5 -26 -5 -57q0 -61 27.5 -91.5t73.5 -30.5q58 0 106 45t63 129l58 330h29l-92 -522h-25l15 98q-25 -51 -68.5 -79t-93.5 -28q-56 0 -89 36z" />
    <glyph glyph-name="Uogonek" unicode="&#x172;" horiz-adv-x="577" 
d="M550 698h29l-86 -488q-30 -168 -133 -224q-65 -44 -98.5 -82t-40.5 -78q-2 -16 -2 -21q0 -30 16.5 -45t40.5 -15q35 0 69 34l12 -18q-38 -40 -83 -40q-35 0 -58.5 21.5t-23.5 60.5q0 43 24.5 81t75.5 78q-27 -5 -49 -5q-89 0 -135.5 50.5t-46.5 146.5q0 36 8 86l80 458
h28l-79 -453q-8 -50 -8 -85q0 -87 39 -131.5t116 -44.5q85 0 142 56.5t78 172.5z" />
    <glyph glyph-name="uogonek" unicode="&#x173;" horiz-adv-x="480" 
d="M352 -212l12 -16q-18 -23 -40.5 -37t-48.5 -14q-31 0 -53.5 20t-22.5 59q0 52 35.5 98.5t85.5 77.5l13 88q-25 -51 -68.5 -79t-93.5 -28q-56 0 -89 36t-33 106q0 29 6 63l57 326h28l-57 -325q-5 -26 -5 -57q0 -61 27.5 -91.5t73.5 -30.5q58 0 106 45t63 129l58 330h29
l-92 -522q-100 -66 -115 -142q-2 -14 -2 -19q0 -30 16 -45t38 -15q36 0 72 43z" />
    <glyph glyph-name="Wcircumflex" unicode="&#x174;" horiz-adv-x="831" 
d="M516 900h21l59 -128h-28l-46 102l-83 -102h-31zM503 698l58 -689l295 689h31l-321 -740h-27l-59 676l-294 -676h-26l-66 740h31l56 -688l296 688h26z" />
    <glyph glyph-name="wcircumflex" unicode="&#x175;" horiz-adv-x="649" 
d="M392 706h21l57 -141h-26l-46 114l-83 -114h-30zM374 488l55 -467l211 467h30l-239 -522h-20l-58 462l-211 -462h-21l-66 522h28l57 -465l210 465h24z" />
    <glyph glyph-name="Ycircumflex" unicode="&#x176;" horiz-adv-x="490" 
d="M345 900h21l59 -128h-28l-45 103l-84 -103h-30zM260 319l253 379h33l-277 -412l-56 -320h-30l58 323l-147 409h33z" />
    <glyph glyph-name="ycircumflex" unicode="&#x177;" horiz-adv-x="410" 
d="M297 705h21l57 -142h-27l-45 114l-84 -114h-30zM161 -2l239 490h32l-327 -654q-30 -60 -57.5 -86.5t-70.5 -26.5q-47 0 -65 27l15 24q19 -24 52 -24q32 0 54.5 22.5t48.5 73.5l59 116l-88 528h30z" />
    <glyph glyph-name="Ydieresis" unicode="&#x178;" horiz-adv-x="490" 
d="M255.5 828q-8.5 8 -8.5 20t8 19.5t19 7.5q12 0 20 -7.5t8 -19.5t-8 -20t-19 -8t-19.5 8zM398 828q-8 8 -8 20t8 19.5t19 7.5t19 -7.5t8 -19.5t-7.5 -20t-19.5 -8q-11 0 -19 8zM260 319l253 379h33l-277 -412l-56 -320h-30l58 323l-147 409h33z" />
    <glyph glyph-name="Zacute" unicode="&#x179;" horiz-adv-x="476" 
d="M325 772l89 128h33l-97 -128h-25zM125 671l5 27h384l-2 -16l-491 -689h381l-6 -27h-420l3 16l491 689h-345z" />
    <glyph glyph-name="zacute" unicode="&#x17a;" horiz-adv-x="374" 
d="M229 563l88 142h32l-94 -142h-26zM93 488h283l-3 -16l-349 -481h274l-4 -25h-313l3 17l350 480h-245z" />
    <glyph glyph-name="Zdotaccent" unicode="&#x17b;" horiz-adv-x="476" 
d="M329.5 828q-8.5 8 -8.5 20q0 11 8 19t19 8t19.5 -8t8.5 -19q0 -12 -8 -20t-19 -8t-19.5 8zM125 671l5 27h384l-2 -16l-491 -689h381l-6 -27h-420l3 16l491 689h-345z" />
    <glyph glyph-name="zdotaccent" unicode="&#x17c;" horiz-adv-x="374" 
d="M235.5 613q-8.5 8 -8.5 20q0 11 8 19t19 8t19.5 -8t8.5 -19q0 -12 -8 -20t-19 -8t-19.5 8zM93 488h283l-3 -16l-349 -481h274l-4 -25h-313l3 17l350 480h-245z" />
    <glyph glyph-name="Zcaron" unicode="&#x17d;" horiz-adv-x="476" 
d="M293 900l45 -103l84 103h30l-107 -128h-21l-59 128h28zM125 671l5 27h384l-2 -16l-491 -689h381l-6 -27h-420l3 16l491 689h-345z" />
    <glyph glyph-name="zcaron" unicode="&#x17e;" horiz-adv-x="374" 
d="M204 705l45 -114l84 114h30l-108 -142h-21l-57 142h27zM93 488h283l-3 -16l-349 -481h274l-4 -25h-313l3 17l350 480h-245z" />
    <glyph glyph-name="longs" unicode="&#x17f;" horiz-adv-x="273" 
d="M337.5 728.5q17.5 -7.5 25.5 -19.5l-13 -24q-22 25 -56 25q-38 0 -64.5 -31.5t-39.5 -109.5l-127 -720q-13 -67 -37.5 -97.5t-64.5 -30.5q-38 0 -57 20l15 23q19 -16 43 -16q28 0 46 25t28 83l107 607h-74l4 25h75l15 85q28 163 133 163q24 0 41.5 -7.5z" />
    <glyph glyph-name="uni018F" unicode="&#x18f;" horiz-adv-x="564" 
d="M476 638.5q49 -69.5 49 -194.5q0 -67 -13 -139q-32 -176 -108 -262t-190 -86q-85 0 -132 43t-47 122q0 103 77.5 165.5t235.5 62.5q58 0 138 -11q8 61 8 106q0 114 -42.5 174.5t-120.5 60.5q-49 0 -95 -26.5t-82 -86.5l-23 17q38 65 92.5 94.5t112.5 29.5q91 0 140 -69.5
zM390.5 73.5q62.5 88.5 91.5 238.5q-69 10 -131 10q-144 0 -214 -53.5t-70 -143.5q0 -67 38.5 -103.5t110.5 -36.5q112 0 174.5 88.5z" />
    <glyph glyph-name="florin" unicode="&#x192;" 
d="M497 698.5q18 -9.5 26 -23.5l-17 -21q-19 27 -57 27q-42 0 -72 -33.5t-52 -105.5l-17 -54h136l-4 -25h-140l-115 -366q-24 -77 -56.5 -108.5t-79.5 -31.5q-56 0 -74 33l18 21q20 -27 58 -27t62 27t45 93l112 359h-99l4 25h103l19 59q28 91 67 126t86 35q29 0 47 -9.5z
" />
    <glyph glyph-name="Ohorn" unicode="&#x1a0;" horiz-adv-x="623" 
d="M640 824q0 -17 -4 -49q-11 -60 -35.5 -80.5t-73.5 -20.5q-20 0 -54 4q51 -28 79 -89t28 -150q0 -57 -12 -126q-32 -180 -113 -268t-188 -88q-95 0 -150.5 68.5t-55.5 197.5q0 58 12 127q32 181 114.5 269.5t196.5 88.5q29 0 69 -5q10 -1 33 -3t41 -2q39 0 57 15t26 61
q5 28 4 50h26zM549 436q0 117 -47.5 180.5t-130.5 63.5q-60 0 -114 -36t-94.5 -110t-59.5 -184q-12 -67 -12 -123q0 -117 47.5 -180t130.5 -63q94 0 166.5 82.5t101.5 246.5q12 68 12 123z" />
    <glyph glyph-name="ohorn" unicode="&#x1a1;" horiz-adv-x="495" 
d="M502 614q-2 -30 -5 -53q-11 -58 -34 -79.5t-64 -21.5q-15 0 -39 4q32 -24 49 -66t17 -101q0 -45 -8 -86q-23 -129 -84 -191.5t-140 -62.5q-72 0 -114.5 51.5t-42.5 145.5q0 35 8 85q24 132 85.5 195t146.5 63q28 0 65 -7q38 -6 57 -6q31 0 46.5 16t23.5 62q5 28 5 52h28z
M397 297q0 83 -34.5 128t-94.5 45q-66 0 -120 -57.5t-75 -174.5q-8 -48 -8 -81q0 -84 35.5 -128.5t95.5 -44.5q67 0 120 56t73 174q8 48 8 83z" />
    <glyph glyph-name="Uhorn" unicode="&#x1af;" horiz-adv-x="577" 
d="M684 824q0 -28 -4 -49q-9 -55 -34 -76.5t-72 -24.5l-81 -464q-22 -125 -86.5 -189t-163.5 -64q-89 0 -135.5 50.5t-46.5 146.5q0 36 8 86l80 458h28l-79 -453q-8 -50 -8 -85q0 -87 39 -131.5t116 -44.5q85 0 142 56.5t78 172.5l85 485h8q44 0 65 16t29 61q4 20 4 49h28z
" />
    <glyph glyph-name="uhorn" unicode="&#x1b0;" horiz-adv-x="492" 
d="M540 614q0 -28 -4 -49q-10 -55 -34 -76.5t-71 -24.5l-88 -498h-25l15 98q-25 -51 -68.5 -79t-93.5 -28q-56 0 -89 36t-33 106q0 29 6 63l57 326h28l-57 -325q-5 -26 -5 -57q0 -61 27.5 -91.5t73.5 -30.5q58 0 106 45t63 129l58 330h8q44 0 65 16t29 61q4 19 4 49h28z" />
    <glyph glyph-name="uni01CD" unicode="&#x1cd;" horiz-adv-x="551" 
d="M319 892l46 -102l83 102h31l-108 -128h-21l-59 128h28zM362 698l117 -732h-32l-37 245h-289l-123 -245h-33l372 732h25zM405 238l-63 413l-207 -413h270z" />
    <glyph glyph-name="uni01CE" unicode="&#x1ce;" horiz-adv-x="503" 
d="M280 706l45 -114l83 114h31l-108 -141h-21l-57 141h27zM458 488l-92 -522h-24q17 95 22 129q-29 -67 -76.5 -102.5t-102.5 -35.5q-66 0 -106.5 52t-40.5 146q0 35 8 85q15 87 49.5 144.5t80 85t94.5 27.5q59 0 96 -39.5t41 -114.5q16 72 27 145h24zM307.5 40.5
q53.5 56.5 76.5 181.5q8 50 8 82q0 85 -35 125.5t-88 40.5q-66 0 -120.5 -57t-74.5 -174q-8 -48 -8 -81q0 -83 34.5 -128.5t90.5 -45.5q63 0 116.5 56.5z" />
    <glyph glyph-name="uni01CF" unicode="&#x1cf;" horiz-adv-x="200" 
d="M146 900l46 -103l83 103h31l-108 -128h-21l-59 128h28zM61 -34h-29l129 732h29z" />
    <glyph glyph-name="uni01D0" unicode="&#x1d0;" horiz-adv-x="192" 
d="M106 706l46 -114l83 114h31l-108 -141h-21l-57 141h26zM28 -34l92 522h27l-92 -522h-27z" />
    <glyph glyph-name="uni01D1" unicode="&#x1d1;" horiz-adv-x="618" 
d="M355 900l46 -103l83 103h31l-108 -128h-21l-59 128h28zM185.5 619q81.5 89 187.5 89q95 0 151 -70t56 -199q0 -57 -12 -126q-32 -180 -113 -268t-188 -88q-95 0 -150.5 68.5t-55.5 197.5q0 58 12 127q31 180 112.5 269zM91 227q0 -117 47.5 -180t130.5 -63
q94 0 166.5 82.5t101.5 246.5q12 68 12 123q0 117 -47.5 180.5t-130.5 63.5q-60 0 -114 -36t-94.5 -110t-59.5 -184q-12 -67 -12 -123z" />
    <glyph glyph-name="uni01D2" unicode="&#x1d2;" horiz-adv-x="479" 
d="M249 706l46 -114l83 114h31l-108 -141h-21l-57 141h26zM129 433.5q61 63.5 141 63.5q72 0 114 -52t42 -146q0 -45 -8 -88q-23 -129 -84 -191.5t-140 -62.5q-72 0 -114.5 51.5t-42.5 145.5q0 35 8 85q23 131 84 194.5zM66 156q0 -83 35 -127.5t96 -44.5q67 0 119.5 56
t72.5 174q8 48 8 83q0 83 -34.5 128t-94.5 45q-66 0 -120 -57.5t-74 -174.5q-8 -48 -8 -82z" />
    <glyph glyph-name="uni01D3" unicode="&#x1d3;" horiz-adv-x="577" 
d="M335 900l46 -103l83 103h31l-108 -128h-21l-59 128h28zM550 698h29l-86 -488q-22 -125 -86.5 -189t-163.5 -64q-89 0 -135.5 50.5t-46.5 146.5q0 36 8 86l80 458h28l-79 -453q-8 -50 -8 -85q0 -87 39 -131.5t116 -44.5q85 0 142 56.5t78 172.5z" />
    <glyph glyph-name="uni01D4" unicode="&#x1d4;" horiz-adv-x="480" 
d="M246 706l45 -114l83 114h31l-108 -141h-21l-57 141h27zM82 -7q-33 36 -33 106q0 29 6 63l57 326h28l-57 -325q-5 -26 -5 -57q0 -61 27.5 -91.5t73.5 -30.5q58 0 106 45t63 129l58 330h29l-92 -522h-25l15 98q-25 -51 -68.5 -79t-93.5 -28q-56 0 -89 36z" />
    <glyph glyph-name="uni01D5" unicode="&#x1d5;" horiz-adv-x="577" 
d="M291 862l4 21h203l-4 -21h-203zM290 775q-8 7 -8 18q0 10 8 17.5t19 7.5t19.5 -7.5t8.5 -17.5q0 -11 -8 -18t-19 -7q-12 0 -20 7zM432 775q-8 7 -8 18q0 10 7.5 17.5t18.5 7.5q12 0 20 -7t8 -18t-7.5 -18t-19.5 -7q-11 0 -19 7zM550 698h29l-86 -488q-22 -125 -86.5 -189
t-163.5 -64q-89 0 -135.5 50.5t-46.5 146.5q0 36 8 86l80 458h28l-79 -453q-8 -50 -8 -86q0 -86 39 -130.5t116 -44.5q85 0 142.5 56.5t77.5 172.5z" />
    <glyph glyph-name="uni01D6" unicode="&#x1d6;" horiz-adv-x="480" 
d="M221 766l5 25h203l-4 -25h-204zM209.5 614q-8.5 8 -8.5 20t8 20t19 8t19.5 -8t8.5 -20t-8 -20t-19 -8t-19.5 8zM351.5 614q-8.5 8 -8.5 20t8 20t19 8t19.5 -8t8.5 -20t-8 -20t-19 -8t-19.5 8zM82 -7q-33 36 -33 106q0 29 6 63l57 326h28l-57 -325q-5 -26 -5 -57
q0 -61 27.5 -91.5t73.5 -30.5q58 0 106 45t63 129l58 330h29l-92 -522h-25l15 98q-25 -51 -68.5 -79t-93.5 -28q-56 0 -89 36z" />
    <glyph glyph-name="uni01D7" unicode="&#x1d7;" horiz-adv-x="577" 
d="M375 836l81 75h34l-88 -75h-27zM290 775q-8 7 -8 18q0 10 8 17.5t19 7.5t19.5 -7.5t8.5 -17.5q0 -11 -8 -18t-19 -7q-12 0 -20 7zM432 775q-8 7 -8 18q0 10 7.5 17.5t18.5 7.5q12 0 20 -7t8 -18t-7.5 -18t-19.5 -7q-11 0 -19 7zM550 698h29l-86 -488q-22 -125 -86.5 -189
t-163.5 -64q-89 0 -135.5 50.5t-46.5 146.5q0 36 8 86l80 458h28l-79 -453q-8 -50 -8 -86q0 -86 39 -130.5t116 -44.5q85 0 142.5 56.5t77.5 172.5z" />
    <glyph glyph-name="uni01D8" unicode="&#x1d8;" horiz-adv-x="480" 
d="M300 715l84 127h32l-91 -127h-25zM209.5 614q-8.5 8 -8.5 20t8 20t19 8t19.5 -8t8.5 -20t-8 -20t-19 -8t-19.5 8zM351.5 614q-8.5 8 -8.5 20t8 20t19 8t19.5 -8t8.5 -20t-8 -20t-19 -8t-19.5 8zM82 -7q-33 36 -33 106q0 29 6 63l57 326h28l-57 -325q-5 -26 -5 -57
q0 -61 27.5 -91.5t73.5 -30.5q58 0 106 45t63 129l58 330h29l-92 -522h-25l15 98q-25 -51 -68.5 -79t-93.5 -28q-56 0 -89 36z" />
    <glyph glyph-name="uni01D9" unicode="&#x1d9;" horiz-adv-x="577" 
d="M334 911l50 -55l68 55h34l-96 -75h-21l-69 75h34zM290 775q-8 7 -8 18q0 10 8 17.5t19 7.5t19.5 -7.5t8.5 -17.5q0 -11 -8 -18t-19 -7q-12 0 -20 7zM432 775q-8 7 -8 18q0 10 7.5 17.5t18.5 7.5q12 0 20 -7t8 -18t-7.5 -18t-19.5 -7q-11 0 -19 7zM550 698h29l-86 -488
q-22 -125 -86.5 -189t-163.5 -64q-89 0 -135.5 50.5t-46.5 146.5q0 36 8 86l80 458h28l-79 -453q-8 -50 -8 -86q0 -86 39 -130.5t116 -44.5q85 0 142.5 56.5t77.5 172.5z" />
    <glyph glyph-name="uni01DA" unicode="&#x1da;" horiz-adv-x="480" 
d="M272 843l46 -103l82 103h29l-105 -128h-21l-60 128h29zM209.5 614q-8.5 8 -8.5 20t8 20t19 8t19.5 -8t8.5 -20t-8 -20t-19 -8t-19.5 8zM351.5 614q-8.5 8 -8.5 20t8 20t19 8t19.5 -8t8.5 -20t-8 -20t-19 -8t-19.5 8zM82 -7q-33 36 -33 106q0 29 6 63l57 326h28l-57 -325
q-5 -26 -5 -57q0 -61 27.5 -91.5t73.5 -30.5q58 0 106 45t63 129l58 330h29l-92 -522h-25l15 98q-25 -51 -68.5 -79t-93.5 -28q-56 0 -89 36z" />
    <glyph glyph-name="uni01DB" unicode="&#x1db;" horiz-adv-x="577" 
d="M307 911h34l55 -75h-28zM290 775q-8 7 -8 18t8 18t20 7q11 0 19 -7.5t8 -17.5q0 -11 -8.5 -18t-19.5 -7t-19 7zM431.5 775q-7.5 7 -7.5 18q0 10 8 17.5t19 7.5t19 -7.5t8 -17.5q0 -11 -8 -18t-19 -7q-12 0 -19.5 7zM550 698h29l-86 -488q-22 -125 -86.5 -189t-163.5 -64
q-89 0 -135.5 50.5t-46.5 146.5q0 36 8 86l80 458h28l-79 -453q-8 -50 -8 -86q0 -86 39 -130.5t116 -44.5q85 0 142.5 56.5t77.5 172.5z" />
    <glyph glyph-name="uni01DC" unicode="&#x1dc;" horiz-adv-x="480" 
d="M261 842h29l40 -127h-21zM209.5 614q-8.5 8 -8.5 20t8 20t19 8t19.5 -8t8.5 -20t-8 -20t-19 -8t-19.5 8zM351.5 614q-8.5 8 -8.5 20t8 20t19 8t19.5 -8t8.5 -20t-8 -20t-19 -8t-19.5 8zM82 -7q-33 36 -33 106q0 29 6 63l57 326h28l-57 -325q-5 -26 -5 -57
q0 -61 27.5 -91.5t73.5 -30.5q58 0 106 45t63 129l58 330h29l-92 -522h-25l15 98q-25 -51 -68.5 -79t-93.5 -28q-56 0 -89 36z" />
    <glyph glyph-name="uni01E5" unicode="&#x1e5;" horiz-adv-x="515" 
d="M414 240h77l-5 -26h-77l-46 -260q-21 -125 -78.5 -179t-131.5 -54q-63 0 -107.5 34.5t-51.5 99.5l23 13q10 -59 46 -89.5t92 -30.5q144 0 181 207l24 130q-29 -62 -75.5 -95t-99.5 -33q-66 0 -107 52t-41 146q0 35 8 85q15 87 50 144.5t80.5 85t94.5 27.5q59 0 95.5 -39
t40.5 -114l27 144h24zM385 240q5 31 5 67q0 83 -34.5 123t-87.5 40q-66 0 -120 -57t-74 -174q-8 -48 -8 -83q0 -82 34 -127t90 -45q61 0 115 54t77 176h-111l5 26h109z" />
    <glyph glyph-name="gcaron" unicode="&#x1e7;" horiz-adv-x="502" 
d="M406 706l-108 -141h-21l-57 141h26l46 -114l83 114h31zM457 488l-94 -534q-21 -125 -78.5 -179t-131.5 -54q-63 0 -107.5 34.5t-52.5 99.5l24 13q10 -59 46 -89.5t92 -30.5q144 0 181 207l23 129q-29 -62 -75.5 -94.5t-98.5 -32.5q-66 0 -107 52t-41 146q0 35 8 85
q15 87 50 144.5t80.5 85t94.5 27.5q58 0 95 -39t41 -114l27 144h24zM391 305q0 84 -35 124.5t-88 40.5q-66 0 -120.5 -57t-74.5 -174q-8 -48 -8 -81q0 -83 34.5 -128.5t90.5 -45.5q62 0 116 55.5t77 180.5q8 43 8 85z" />
    <glyph glyph-name="uni01E9" unicode="&#x1e9;" horiz-adv-x="418" 
d="M148 922l46 -103l82 103h29l-105 -128h-21l-60 128h29zM397 488h36l-217 -221l143 -301h-33l-131 280l-106 -108l-30 -172h-28l134 761h28l-78 -441q-12 -67 -18 -104l89 90z" />
    <glyph glyph-name="uni01EF" unicode="&#x1ef;" horiz-adv-x="392" 
d="M192 706l46 -114l83 114h30l-107 -141h-21l-57 141h26zM60 488h327l-2 -18l-259 -288q8 1 24 1q82 0 123 -48.5t41 -130.5q0 -31 -6 -65q-19 -106 -76 -162t-136 -56q-72 0 -117 45t-46 125l25 10q2 -72 40.5 -112.5t98.5 -40.5q66 0 115.5 50.5t66.5 144.5q5 33 5 58
q0 72 -35.5 114.5t-109.5 42.5q-26 0 -56 -6l4 24l255 287h-286z" />
    <glyph glyph-name="uni01F0" unicode="&#x1f0;" horiz-adv-x="180" 
d="M102 706l46 -114l83 114h31l-108 -141h-21l-57 141h26zM-135.5 -271q-18.5 8 -27.5 21l16 24q19 -26 54 -26q36 0 63.5 33t42.5 117l103 590h27l-103 -593q-17 -95 -51.5 -134.5t-82.5 -39.5q-23 0 -41.5 8z" />
    <glyph glyph-name="uni01F9" unicode="&#x1f9;" horiz-adv-x="480" 
d="M235 706h30l37 -141h-21zM382.5 460.5q33.5 -36.5 33.5 -107.5q0 -28 -6 -61l-58 -326h-28l57 324q5 26 5 57q0 61 -27.5 92t-73.5 31q-58 0 -106 -45t-63 -129l-58 -330h-28l92 522h25q-4 -17 -13 -76l-3 -22q25 51 68.5 79t93.5 28q56 0 89.5 -36.5z" />
    <glyph glyph-name="Aringacute" unicode="&#x1fa;" horiz-adv-x="551" 
d="M379 864l82 65h33l-89 -65h-26zM319 821q22 13 54 13q31 0 52 -13t21 -32q0 -20 -21 -33t-52 -13q-32 0 -54 13t-22 33q0 19 22 32zM335 767.5q15 -8.5 38 -8.5q22 0 36 8.5t14 21.5t-13.5 20.5t-36.5 7.5t-38 -7.5t-15 -20.5t15 -21.5zM362 698l117 -732h-32l-37 245
h-289l-123 -245h-33l372 732h25zM405 238l-63 413l-207 -413h270z" />
    <glyph glyph-name="aringacute" unicode="&#x1fb;" horiz-adv-x="503" 
d="M327 765l81 112h32l-87 -112h-26zM267 692q22 22 54 22q31 0 52 -21.5t21 -54.5q0 -34 -21 -56t-52 -22q-32 0 -54 22t-22 56q0 32 22 54zM283 597.5q15 -16.5 38 -16.5q22 0 36 16.5t14 40.5t-14 39.5t-36 15.5q-23 0 -38 -15.5t-15 -39.5t15 -40.5zM458 488l-92 -522
h-24q17 95 22 129q-29 -67 -76.5 -102.5t-102.5 -35.5q-66 0 -106.5 52t-40.5 146q0 35 8 85q15 87 49.5 144.5t80 85t94.5 27.5q59 0 96 -39.5t41 -114.5q16 72 27 145h24zM307.5 40.5q53.5 56.5 76.5 181.5q8 50 8 82q0 85 -35 125.5t-88 40.5q-66 0 -120.5 -57
t-74.5 -174q-8 -48 -8 -81q0 -83 34.5 -128.5t90.5 -45.5q63 0 116.5 56.5z" />
    <glyph glyph-name="AEacute" unicode="&#x1fc;" horiz-adv-x="815" 
d="M700 900h32l-96 -128h-26zM832 698l-4 -27h-302l-55 -311h274l-5 -28h-274l-60 -339h312l-6 -27h-340l45 255h-233l-186 -255h-33l531 732h336zM203 248h219l69 396z" />
    <glyph glyph-name="aeacute" unicode="&#x1fd;" horiz-adv-x="714" 
d="M503 706h32l-95 -141h-25zM585 9q35 24 57 69l20 -16q-24 -51 -66 -78t-94 -27q-65 0 -105 41t-49 116q-20 -75 -67.5 -116t-108.5 -41q-58 0 -95.5 35t-37.5 97q0 10 4 38q25 145 197 145q49 0 114 -13l8 46q5 32 5 52q0 57 -28 85t-77 28q-85 0 -125 -80l-20 13
q22 49 62.5 71.5t86.5 22.5q56 0 90.5 -33.5t35.5 -99.5q32 67 80 100t103 33q59 0 90 -35t31 -91q0 -70 -49 -111.5t-153 -41.5q-56 0 -117 11q-6 -39 -6 -73q0 -82 35 -126.5t98 -44.5q46 0 81 24zM453.5 417q-52.5 -53 -72.5 -163q59 -11 114 -11q88 0 130 33.5t42 93.5
q0 45 -23.5 72.5t-72.5 27.5q-65 0 -117.5 -53zM350 234q-65 13 -111 13q-146 0 -168 -122q-3 -18 -3 -33q0 -51 29.5 -80t74.5 -29q35 0 69 19t58.5 54.5t33.5 83.5z" />
    <glyph glyph-name="Oslashacute" unicode="&#x1fe;" horiz-adv-x="618" 
d="M387 772l90 128h32l-96 -128h-26zM615 731h34l-102 -130q33 -66 33 -162q0 -57 -12 -126q-32 -180 -113 -268t-188 -88q-51 0 -92 21t-68 63l-84 -107h-34l103 131q-31 61 -31 157q0 58 12 128q31 180 112.5 269t187.5 89q51 0 91.5 -21t67.5 -62zM92 230q0 -79 22 -136
l398 506q-23 40 -59 60t-82 20q-60 0 -114 -36t-94.5 -110t-59.5 -184q-11 -60 -11 -120zM548 436q0 81 -23 136l-398 -505q23 -41 59.5 -62t82.5 -21q94 0 166.5 82.5t101.5 246.5q11 62 11 123z" />
    <glyph glyph-name="oslashacute" unicode="&#x1ff;" horiz-adv-x="479" 
d="M275 565l88 141h32l-95 -141h-25zM449 520h31l-80 -100q26 -49 26 -122q0 -46 -8 -87q-23 -129 -84 -191.5t-140 -62.5q-74 0 -116 56l-63 -79h-31l79 100q-26 47 -26 120q0 44 8 85q23 131 84 194.5t141 63.5q36 0 66 -14t50 -42zM66 158q0 -58 17 -98l285 357
q-35 53 -100 53q-66 0 -120 -57.5t-75 -174.5q-7 -41 -7 -80zM397 295q0 58 -18 98l-283 -357q35 -52 100 -52q67 0 120 56t73 174q8 46 8 81z" />
    <glyph glyph-name="uni0218" unicode="&#x218;" horiz-adv-x="444" 
d="M324 1q-52 -44 -127 -44q-52 0 -95 20.5t-69 58t-28 85.5l26 12q4 -65 52 -107t116 -42q36 0 67 13.5t53 39.5q29 35 38 89q3 20 3 37q0 41 -17.5 72.5t-43 53.5t-69.5 53q-43 31 -69 53.5t-44 54.5t-18 74q0 17 3 36q12 73 69 114q25 17 55 25.5t60 8.5q48 0 83 -18.5
t53.5 -49.5t18.5 -68l-24 -12q-2 52 -36.5 86t-96.5 34q-60 0 -102 -33q-39 -33 -49 -90q-3 -16 -3 -30q0 -36 16.5 -64t40.5 -49t65 -49q46 -33 73.5 -57t46.5 -59t19 -82q0 -23 -4 -44q-14 -78 -63 -122zM215 -141q0 -36 -23.5 -67.5t-69.5 -41.5l3 18q57 16 67 69
q-4 -2 -10 -2q-9 0 -14 6t-5 15q0 12 8.5 22t20.5 10q23 0 23 -29z" />
    <glyph glyph-name="uni0219" unicode="&#x219;" horiz-adv-x="377" 
d="M292.5 41.5q-14.5 -31.5 -39.5 -51.5q-42 -33 -101 -33t-98.5 32t-43.5 93l24 13q4 -55 37 -83t82 -28q47 0 80 25t42 74q2 9 2 25q0 42 -25 67.5t-74 55.5q-34 21 -54 36.5t-34 38t-14 53.5q0 16 2 25q10 55 48 83q40 30 97 30q55 0 89 -30t38 -81l-25 -14
q-2 47 -30 72.5t-74 25.5q-42 0 -74 -22t-40 -66q-2 -14 -2 -19q0 -37 23.5 -60.5t70.5 -50.5q36 -22 57 -38.5t36 -41.5t15 -59q0 -40 -14.5 -71.5zM160 -140q0 -36 -23.5 -68t-69.5 -42l3 18q57 15 68 70q-3 -2 -11 -2q-9 0 -14 6t-5 15q0 12 8.5 21.5t20.5 9.5
q23 0 23 -28z" />
    <glyph glyph-name="uni021A" unicode="&#x21a;" horiz-adv-x="448" 
d="M93 698h412l-4 -27h-192l-124 -705h-29l124 705h-191zM179 -143q0 -9 -1 -14q-6 -33 -29 -59t-63 -34l3 18q56 15 68 69l-10 -2q-9 0 -14.5 5.5t-5.5 14.5q0 12 9 22.5t21 10.5q22 0 22 -31z" />
    <glyph glyph-name="uni021B" unicode="&#x21b;" horiz-adv-x="287" 
d="M281 463h-121l-64 -367q-4 -21 -4 -43q0 -70 59 -70q16 0 29 4.5t29 14.5l7 -22q-18 -12 -34 -17.5t-37 -5.5q-82 0 -82 90q0 19 5 49l65 367h-71l3 25h73l25 142h27l-25 -142h119zM140 -141q0 -36 -23.5 -67.5t-69.5 -41.5l3 18q57 16 67 69q-4 -2 -10 -2q-9 0 -14 6
t-5 15q0 12 8.5 22t20.5 10q23 0 23 -29z" />
    <glyph glyph-name="uni021F" unicode="&#x21f;" horiz-adv-x="479" 
d="M148 922l46 -103l82 103h29l-105 -128h-21l-60 128h29zM381.5 460.5q33.5 -36.5 33.5 -107.5q0 -28 -6 -61l-58 -326h-28l57 324q6 32 6 58q0 61 -27.5 91.5t-74.5 30.5q-57 0 -104 -43.5t-63 -125.5l-60 -335h-27l135 761h27l-59 -331q26 48 68.5 74.5t90.5 26.5
q56 0 89.5 -36.5z" />
    <glyph glyph-name="uni0237" unicode="&#x237;" horiz-adv-x="180" 
d="M-135.5 -271q-18.5 8 -27.5 21l16 24q19 -26 54 -26q36 0 63.5 33t42.5 117l103 590h27l-103 -593q-17 -95 -51.5 -134.5t-82.5 -39.5q-23 0 -41.5 8z" />
    <glyph glyph-name="uni0251" unicode="&#x251;" horiz-adv-x="502" 
d="M457 488l-92 -522h-23q17 94 21 129q-28 -67 -75.5 -102.5t-102.5 -35.5q-66 0 -107 52t-41 146q0 35 8 85q15 87 50 144.5t80.5 85t94.5 27.5q59 0 95.5 -39.5t40.5 -114.5q13 61 28 145h23zM307.5 40.5q53.5 56.5 75.5 181.5q8 41 8 84q0 83 -35 123.5t-88 40.5
q-66 0 -120 -57t-74 -174q-8 -48 -8 -83q0 -82 34 -127t90 -45q64 0 117.5 56.5z" />
    <glyph glyph-name="uni0259" unicode="&#x259;" horiz-adv-x="411" 
d="M57 376l-20 16q24 52 65.5 78.5t94.5 26.5q75 0 118 -53.5t43 -148.5q0 -36 -8 -84q-15 -86 -50 -143t-81 -84t-95 -27q-59 0 -90 35t-31 91q0 71 52.5 108t168.5 37q44 0 98 -6q6 39 6 73q0 84 -35.5 129.5t-98.5 45.5q-92 0 -137 -94zM243.5 36.5q51.5 51.5 74.5 159.5
q-55 6 -100 6q-97 0 -142 -29t-45 -89q0 -44 24 -71.5t73 -27.5q64 0 115.5 51.5z" />
    <glyph glyph-name="uni0261" unicode="&#x261;" horiz-adv-x="502" 
d="M457 488l-94 -534q-21 -125 -78.5 -179t-131.5 -54q-63 0 -107.5 34.5t-52.5 99.5l24 13q10 -59 46 -89.5t92 -30.5q144 0 181 207l23 129q-29 -62 -75.5 -94.5t-98.5 -32.5q-66 0 -107 52t-41 146q0 35 8 85q15 87 50 144.5t80.5 85t94.5 27.5q58 0 95 -39t41 -114
l27 144h24zM391 305q0 84 -35 124.5t-88 40.5q-66 0 -120.5 -57t-74.5 -174q-8 -48 -8 -81q0 -83 34.5 -128.5t90.5 -45.5q62 0 116 55.5t77 180.5q8 43 8 85z" />
    <glyph glyph-name="uni0292" unicode="&#x292;" horiz-adv-x="392" 
d="M60 488h327l-2 -18l-259 -288q8 1 24 1q82 0 123 -48.5t41 -130.5q0 -31 -6 -65q-19 -106 -76 -162t-136 -56q-72 0 -117 45t-46 125l25 10q2 -72 40.5 -112.5t98.5 -40.5q66 0 115.5 50.5t66.5 144.5q5 33 5 58q0 72 -35.5 114.5t-109.5 42.5q-26 0 -56 -6l4 24l255 287
h-286z" />
    <glyph glyph-name="uni02BB" unicode="&#x2bb;" horiz-adv-x="194" 
d="M162.5 732.5q24.5 32.5 67.5 42.5l-2 -20q-63 -21 -76 -96q3 1 8 1q11 0 17.5 -7.5t6.5 -18.5q0 -13 -9 -21.5t-21 -8.5q-25 0 -25 34q0 13 2 21q7 41 31.5 73.5z" />
    <glyph glyph-name="circumflex" unicode="&#x2c6;" horiz-adv-x="256" 
d="M195 706h21l57 -141h-27l-45 114l-84 -114h-30z" />
    <glyph glyph-name="caron" unicode="&#x2c7;" horiz-adv-x="256" 
d="M139 706l45 -114l83 114h31l-108 -141h-21l-57 141h27z" />
    <glyph glyph-name="breve" unicode="&#x2d8;" horiz-adv-x="264" 
d="M124.5 597q-21.5 26 -21.5 70q0 15 3 33h25q-2 -11 -2 -30q0 -36 15.5 -56t44.5 -20q33 0 57.5 28t35.5 78h27q-11 -60 -43.5 -94.5t-80.5 -34.5q-39 0 -60.5 26z" />
    <glyph glyph-name="dotaccent" unicode="&#x2d9;" horiz-adv-x="125" 
d="M111 614q-8 8 -8 20t7.5 20t18.5 8q12 0 20 -8t8 -20t-7.5 -20t-19.5 -8q-11 0 -19 8z" />
    <glyph glyph-name="ring" unicode="&#x2da;" horiz-adv-x="230" 
d="M126.5 706q23.5 23 56.5 23t55.5 -22.5t22.5 -57.5t-23 -58t-55 -23q-34 0 -57 23t-23 58q0 34 23.5 57zM143 607q16 -17 40 -17t39 17t15 42q0 26 -15 42t-39 16t-40 -16.5t-16 -41.5t16 -42z" />
    <glyph glyph-name="ogonek" unicode="&#x2db;" horiz-adv-x="242" 
d="M119 -228q-17 -23 -39.5 -37t-48.5 -14q-32 0 -54.5 20t-22.5 59q0 54 37.5 101.5t88.5 77.5l18 -13q-116 -75 -116 -162q0 -29 15.5 -44t37.5 -15q36 0 72 43z" />
    <glyph glyph-name="tilde" unicode="&#x2dc;" horiz-adv-x="274" 
d="M91 584q24 93 73 93q18 0 27 -10.5t18 -31.5q7 -17 12.5 -25t16.5 -8q30 0 47 70h24q-9 -42 -27.5 -68t-45.5 -26q-17 0 -26 10.5t-17 30.5q-7 17 -13.5 25.5t-17.5 8.5q-15 0 -26.5 -17t-21.5 -52h-23z" />
    <glyph glyph-name="hungarumlaut" unicode="&#x2dd;" horiz-adv-x="295" 
d="M167 565l88 141h31l-95 -141h-24zM250 565l88 141h31l-95 -141h-24z" />
    <glyph glyph-name="dotbelowcomb" unicode="&#x323;" horiz-adv-x="0" 
d="M-157.5 -181q-8.5 8 -8.5 20t8 19.5t19 7.5q12 0 20 -7.5t8 -19.5t-8 -20t-19 -8t-19.5 8z" />
    <glyph glyph-name="uni0326" unicode="&#x326;" horiz-adv-x="0" 
d="M-206 -141q0 -36 -23.5 -67.5t-69.5 -41.5l3 18q57 15 68 69q-6 -2 -11 -2q-9 0 -14 6t-5 15q0 12 8.5 22t20.5 10q23 0 23 -29z" />
    <glyph glyph-name="uni0338" unicode="&#x338;" horiz-adv-x="0" 
d="M-458 -270l487 968h31l-486 -968h-32z" />
    <glyph glyph-name="tonos" unicode="&#x384;" horiz-adv-x="221" 
d="M160 565l73 141h31l-80 -141h-24z" />
    <glyph glyph-name="dieresistonos" unicode="&#x385;" horiz-adv-x="383" 
d="M202 565l59 141h28l-65 -141h-22zM130 623.5q-8 8.5 -8 21.5q0 10 8 17.5t18 7.5q12 0 20 -8t8 -19q0 -12 -7.5 -20t-19.5 -8q-11 0 -19 8.5zM327.5 623q-8.5 8 -8.5 20q0 11 8 19t19 8q12 0 20 -8t8 -19q0 -12 -8 -20t-19 -8t-19.5 8z" />
    <glyph glyph-name="Alphatonos" unicode="&#x386;" horiz-adv-x="551" 
d="M362 698l117 -732h-32l-37 245h-289l-123 -245h-33l372 732h25zM159 557l48 141h28l-54 -141h-22zM405 238l-63 413l-207 -413h270z" />
    <glyph glyph-name="Epsilontonos" unicode="&#x388;" horiz-adv-x="540" 
d="M84 557l48 141h29l-55 -141h-22zM226 698h331l-4 -27h-302l-55 -312h274l-5 -27h-275l-59 -339h312l-6 -27h-340z" />
    <glyph glyph-name="Etatonos" unicode="&#x389;" horiz-adv-x="667" 
d="M84 557l48 141h29l-55 -141h-22zM196 361h372l60 337h28l-129 -732h-28l65 367h-373l-65 -367h-29l129 732h29z" />
    <glyph glyph-name="Iotatonos" unicode="&#x38a;" horiz-adv-x="266" 
d="M84 557l48 141h29l-55 -141h-22zM126 -34h-29l129 732h29z" />
    <glyph glyph-name="Omicrontonos" unicode="&#x38c;" horiz-adv-x="662" 
d="M228.5 619q81.5 89 188.5 89q95 0 150.5 -70t55.5 -199q0 -57 -12 -126q-32 -181 -113 -268.5t-188 -87.5q-95 0 -150.5 68.5t-55.5 197.5q0 58 12 127q31 180 112.5 269zM76 557l48 141h29l-55 -141h-22zM135 228q0 -118 47.5 -181t130.5 -63q93 0 166 82.5t102 246.5
q11 61 11 121q0 118 -47.5 182t-130.5 64q-60 0 -114 -36t-94.5 -110t-59.5 -184q-11 -60 -11 -122z" />
    <glyph glyph-name="Upsilontonos" unicode="&#x38e;" horiz-adv-x="564" 
d="M56 557l48 141h28l-54 -141h-22zM335 319l252 379h34l-277 -412l-57 -320h-29l57 323l-147 409h33z" />
    <glyph glyph-name="Omegatonos" unicode="&#x38f;" horiz-adv-x="671" 
d="M540.5 134.5q-62.5 -96.5 -144.5 -141.5h173l-5 -27h-209l6 32q88 50 149.5 143t81.5 208q9 53 9 98q0 113 -52.5 173t-139.5 60q-94 0 -164.5 -81t-96.5 -230q-9 -55 -9 -103q0 -96 32 -165.5t81 -102.5l-6 -32h-208l5 27h172q-44 31 -75.5 102t-31.5 171q0 49 9 104
q27 163 105.5 250.5t190.5 87.5q100 0 160 -66.5t60 -191.5q0 -45 -9 -98q-21 -121 -83.5 -217.5zM78 557l48 141h29l-55 -141h-22z" />
    <glyph glyph-name="iotadieresistonos" unicode="&#x390;" horiz-adv-x="202" 
d="M126 565l59 141h27l-65 -141h-21zM53.5 623q-8.5 8 -8.5 20q0 11 8 19t19 8t19.5 -8t8.5 -19q0 -12 -8 -20t-19 -8t-19.5 8zM251 623q-8 8 -8 20q0 11 8 19t19 8t19 -8t8 -19q0 -12 -7.5 -20t-19.5 -8q-11 0 -19 8zM138 -28q-20 -15 -45 -15q-54 0 -54 61q0 15 3 33
l76 437h28l-76 -432q-4 -26 -4 -33q0 -19 8 -29t26 -10q19 0 36 11z" />
    <glyph glyph-name="Alpha" unicode="&#x391;" horiz-adv-x="551" 
d="M362 698l117 -732h-32l-37 245h-289l-123 -245h-33l372 732h25zM405 238l-63 413l-207 -413h270z" />
    <glyph glyph-name="Beta" unicode="&#x392;" horiz-adv-x="514" 
d="M427.5 403q-33.5 -40 -87.5 -56q55 -13 85 -53.5t30 -100.5q0 -25 -4 -46q-32 -181 -236 -181h-183l129 732h151q79 0 121 -43t42 -112q0 -23 -4 -42q-10 -58 -43.5 -98zM257 357q79 0 125 39.5t58 107.5q3 20 3 37q0 58 -34.5 94t-102.5 36h-121l-56 -314h128zM424 191
q0 64 -38 102t-108 38h-153l-60 -338h149q180 0 206 156q4 20 4 42z" />
    <glyph glyph-name="Gamma" unicode="&#x393;" horiz-adv-x="432" 
d="M61 -34h-29l129 732h331l-5 -27h-302z" />
    <glyph glyph-name="uni0394" unicode="&#x394;" horiz-adv-x="549" 
d="M338 698h25l111 -713l-4 -19h-498l4 19zM443 -7l-102 659l-329 -659h431z" />
    <glyph glyph-name="Epsilon" unicode="&#x395;" horiz-adv-x="475" 
d="M161 698h331l-5 -27h-302l-55 -312h274l-5 -27h-274l-60 -339h312l-5 -27h-340z" />
    <glyph glyph-name="Zeta" unicode="&#x396;" horiz-adv-x="476" 
d="M125 671l5 27h384l-2 -16l-491 -689h381l-6 -27h-420l3 16l491 689h-345z" />
    <glyph glyph-name="Eta" unicode="&#x397;" horiz-adv-x="601" 
d="M130 361h373l59 337h29l-129 -732h-29l65 367h-372l-65 -367h-29l129 732h29z" />
    <glyph glyph-name="Theta" unicode="&#x398;" horiz-adv-x="632" 
d="M183 615q82 93 201 93q97 0 153.5 -68t56.5 -200q0 -51 -11 -120q-30 -179 -112 -271t-201 -92q-96 0 -153 67t-57 199q0 51 11 122q30 177 112 270zM91 228q0 -121 49 -182.5t135 -61.5q102 0 176.5 87t101.5 249q10 61 10 116q0 120 -49 182t-135 62q-102 0 -176.5 -87
t-101.5 -248q-10 -61 -10 -117zM462 324h-271l4 28h271z" />
    <glyph glyph-name="Iota" unicode="&#x399;" horiz-adv-x="200" 
d="M61 -34h-29l129 732h29z" />
    <glyph glyph-name="Kappa" unicode="&#x39a;" horiz-adv-x="530" 
d="M536 698h39l-301 -302l190 -430h-35l-178 407l-144 -145l-46 -262h-29l129 732h29l-64 -363l-11 -61l61 62z" />
    <glyph glyph-name="Lambda" unicode="&#x39b;" horiz-adv-x="536" 
d="M431 -34l-97 683l-336 -683h-33l364 732h25l109 -732h-32z" />
    <glyph glyph-name="Mu" unicode="&#x39c;" horiz-adv-x="706" 
d="M671 698h25l-129 -732h-28l117 665l-306 -431h-17l-155 435l-119 -669h-27l129 732h25l162 -459z" />
    <glyph glyph-name="Nu" unicode="&#x39d;" horiz-adv-x="599" 
d="M186 698l257 -671l118 671h27l-129 -732h-24l-257 673l-119 -673h-27l129 732h25z" />
    <glyph glyph-name="Xi" unicode="&#x39e;" horiz-adv-x="490" 
d="M519 670h-408l5 28h409zM427 332h-343l5 28h343zM395 -34h-409l6 28h408z" />
    <glyph glyph-name="Omicron" unicode="&#x39f;" horiz-adv-x="618" 
d="M185.5 619q81.5 89 187.5 89q95 0 151 -70t56 -199q0 -57 -12 -126q-32 -180 -113 -268t-188 -88q-95 0 -150.5 68.5t-55.5 197.5q0 58 12 127q31 180 112.5 269zM91 227q0 -117 47.5 -180t130.5 -63q94 0 166.5 82.5t101.5 246.5q12 68 12 123q0 117 -47.5 180.5
t-130.5 63.5q-60 0 -114 -36t-94.5 -110t-59.5 -184q-12 -67 -12 -123z" />
    <glyph glyph-name="Pi" unicode="&#x3a0;" horiz-adv-x="600" 
d="M162 699h428l-130 -733h-29l125 706h-370l-125 -706h-29z" />
    <glyph glyph-name="Rho" unicode="&#x3a1;" horiz-adv-x="469" 
d="M305 698q82 0 128 -46.5t46 -124.5q0 -22 -5 -50q-16 -94 -78.5 -145.5t-158.5 -51.5h-121l-55 -314h-29l129 732h144zM447 526q0 68 -39.5 106.5t-108.5 38.5h-114l-64 -364h117q81 0 135.5 44.5t69.5 128.5q4 21 4 46z" />
    <glyph glyph-name="Sigma" unicode="&#x3a3;" horiz-adv-x="463" 
d="M112 675l4 23h386l-5 -27h-350l152 -338l-279 -340h367l-5 -27h-405l4 23l284 347z" />
    <glyph glyph-name="Tau" unicode="&#x3a4;" horiz-adv-x="448" 
d="M93 698h412l-4 -27h-192l-124 -705h-29l124 705h-191z" />
    <glyph glyph-name="Upsilon" unicode="&#x3a5;" horiz-adv-x="490" 
d="M260 319l253 379h33l-277 -412l-56 -320h-30l58 323l-147 409h33z" />
    <glyph glyph-name="Phi" unicode="&#x3a6;" horiz-adv-x="653" 
d="M403 619q95 -10 154.5 -73.5t59.5 -168.5q0 -24 -5 -59q-19 -128 -100 -200t-210 -73l-14 -79h-29l14 81q-60 7 -109 38t-78 83.5t-29 122.5q0 29 6 62q22 124 103.5 195t207.5 72l14 78h29zM89 294q0 -62 25 -109t68.5 -75t96.5 -34l90 516q-111 -1 -183.5 -65
t-91.5 -176q-5 -25 -5 -57zM585 374q0 96 -51.5 152t-135.5 65l-91 -517q114 1 185.5 65.5t88.5 178.5q4 27 4 56z" />
    <glyph glyph-name="Chi" unicode="&#x3a7;" horiz-adv-x="525" 
d="M280 364l260 334h36l-285 -361l162 -371h-35l-148 345l-270 -345h-36l294 373l-158 359h35z" />
    <glyph glyph-name="Psi" unicode="&#x3a8;" horiz-adv-x="616" 
d="M604 698h29l-44 -251q-24 -139 -90.5 -197.5t-191.5 -59.5l-39 -224h-29l40 224q-90 4 -143 48t-53 140q0 32 6 69l44 251h29l-43 -243q-6 -37 -6 -69q0 -88 45.5 -126t124.5 -43l85 481h29l-85 -481q74 1 123.5 24.5t80 75t45.5 138.5z" />
    <glyph glyph-name="uni03A9" unicode="&#x3a9;" horiz-adv-x="633" 
d="M502.5 134.5q-62.5 -96.5 -144.5 -141.5h173l-5 -27h-209l6 32q88 50 149.5 143t81.5 208q9 53 9 98q0 113 -52.5 173t-139.5 60q-94 0 -164.5 -81t-96.5 -230q-9 -55 -9 -103q0 -96 32 -165.5t81 -102.5l-6 -32h-209l6 27h172q-44 31 -75.5 102t-31.5 171q0 49 9 104
q27 163 105.5 250.5t190.5 87.5q100 0 160 -66.5t60 -191.5q0 -45 -9 -98q-21 -121 -83.5 -217.5z" />
    <glyph glyph-name="Iotadieresis" unicode="&#x3aa;" horiz-adv-x="200" 
d="M111.5 828q-8.5 8 -8.5 20t8 19.5t19 7.5q12 0 20 -7.5t8 -19.5t-8 -20t-19 -8t-19.5 8zM253.5 828q-8.5 8 -8.5 20t8 19.5t19 7.5q12 0 20 -7.5t8 -19.5t-8 -20t-19 -8t-19.5 8zM61 -34h-29l129 732h29z" />
    <glyph glyph-name="Upsilondieresis" unicode="&#x3ab;" horiz-adv-x="490" 
d="M255.5 828q-8.5 8 -8.5 20t8 19.5t19 7.5q12 0 20 -7.5t8 -19.5t-8 -20t-19 -8t-19.5 8zM398 828q-8 8 -8 20t8 19.5t19 7.5t19 -7.5t8 -19.5t-7.5 -20t-19.5 -8q-11 0 -19 8zM260 319l253 379h33l-277 -412l-56 -320h-30l58 323l-147 409h33z" />
    <glyph glyph-name="alphatonos" unicode="&#x3ac;" horiz-adv-x="499" 
d="M344 706h30l-79 -141h-24zM427 -10l3 -24q-15 -9 -34 -9q-48 0 -48 55q0 18 4 37l6 34q-29 -61 -75 -93.5t-98 -32.5q-66 0 -107 52t-41 146q0 35 8 85q15 87 50 144.5t80.5 85t94.5 27.5q58 0 95 -38.5t41 -112.5q16 76 27 142h23l-76 -435q-3 -18 -3 -32q0 -37 29 -37
q11 0 21 6zM306 39.5q54 55.5 77 180.5q8 43 8 85q0 84 -35 124.5t-88 40.5q-66 0 -120.5 -57t-74.5 -174q-8 -48 -8 -81q0 -83 34.5 -128.5t90.5 -45.5q62 0 116 55.5z" />
    <glyph glyph-name="epsilontonos" unicode="&#x3ad;" horiz-adv-x="387" 
d="M255 565l73 141h31l-80 -141h-24zM326 77l20 -14q-26 -54 -72 -80t-104 -26q-67 0 -104 34.5t-37 91.5q0 8 2 26q9 57 46 89t90 41q-35 8 -55.5 34.5t-20.5 64.5q0 48 22.5 84t61 55.5t84.5 19.5q59 0 94 -29.5t37 -77.5l-25 -14q-4 45 -32.5 69.5t-77.5 24.5
q-58 0 -96.5 -35.5t-38.5 -94.5q0 -41 28 -65t78 -24h40l-5 -25h-38q-71 0 -117.5 -34.5t-46.5 -104.5q0 -46 30 -74.5t85 -28.5q104 0 152 93z" />
    <glyph glyph-name="etatonos" unicode="&#x3ae;" horiz-adv-x="490" 
d="M356 706h30l-79 -141h-24zM391 461q33 -36 33 -106q0 -28 -6 -63l-98 -562h-28l98 560q5 35 5 56q0 62 -27.5 93t-73.5 31q-59 0 -106.5 -45.5t-62.5 -130.5l-58 -328h-28l77 434q3 20 3 33q0 19 -7 28t-22 9q-13 0 -21 -5l-2 23q14 9 33 9q48 0 48 -55q0 -15 -3 -35
l-2 -11q26 48 68 74.5t91 26.5q56 0 89 -36z" />
    <glyph glyph-name="iotatonos" unicode="&#x3af;" horiz-adv-x="202" 
d="M131 565l73 141h30l-79 -141h-24zM138 -28q-20 -15 -45 -15q-54 0 -54 61q0 15 3 33l76 437h28l-76 -432q-4 -26 -4 -33q0 -19 8 -29t26 -10q19 0 36 11z" />
    <glyph glyph-name="upsilondieresistonos" unicode="&#x3b0;" horiz-adv-x="462" 
d="M261 565l59 141h28l-65 -141h-22zM189 623.5q-8 8.5 -8 21.5q0 10 8 17.5t18 7.5q12 0 20 -8t8 -19q0 -12 -7.5 -20t-19.5 -8q-11 0 -19 8.5zM386.5 623q-8.5 8 -8.5 20q0 11 8 19t19 8q12 0 20 -8t8 -19q0 -12 -8 -20t-19 -8t-19.5 8zM114 488h28l-55 -316
q-7 -38 -7 -71q0 -117 96 -117q73 0 119.5 67.5t69.5 183.5q13 69 13 134q0 64 -12 119h30q11 -58 11 -118q0 -64 -13 -135q-52 -278 -221 -278q-57 0 -89.5 34t-32.5 105q0 34 7 72z" />
    <glyph glyph-name="alpha" unicode="&#x3b1;" horiz-adv-x="499" 
d="M428 -10l2 -24q-15 -9 -34 -9q-48 0 -48 56q0 10 4 36l6 35q-29 -62 -74.5 -94.5t-98.5 -32.5q-66 0 -107 52t-41 146q0 35 8 85q15 87 50 144.5t80.5 85t94.5 27.5q58 0 95 -38.5t41 -112.5q13 51 27 142h23l-76 -435q-3 -18 -3 -31q0 -19 7 -28.5t22 -9.5q11 0 22 6z
M306 39.5q54 55.5 77 180.5q8 43 8 85q0 84 -35 124.5t-88 40.5q-66 0 -120 -57t-74 -174q-8 -48 -8 -83q0 -82 34 -127t90 -45q62 0 116 55.5z" />
    <glyph glyph-name="beta" unicode="&#x3b2;" horiz-adv-x="485" 
d="M401 433.5q-33 -41.5 -84 -57.5q50 -11 78 -53.5t28 -109.5q0 -30 -6 -65q-16 -91 -62 -141t-123 -50q-65 0 -105.5 36t-47.5 99l-64 -362h-27l138 783q20 113 69.5 167t121.5 54q62 0 97.5 -37.5t35.5 -104.5q0 -21 -5 -51q-11 -66 -44 -107.5zM249 386q68 0 111.5 42
t56.5 116q4 21 4 44q0 56 -27.5 88t-78.5 32q-62 0 -103.5 -50t-58.5 -149l-50 -285q-7 -38 -7 -74q0 -82 37.5 -124t98.5 -42t102 43.5t55 124.5q6 33 6 60q0 71 -35 110t-98 39h-30l5 25h12z" />
    <glyph glyph-name="gamma" unicode="&#x3b3;" horiz-adv-x="397" 
d="M387 488q-3 -58 -9 -89q-17 -99 -69 -199t-163 -236l-42 -234h-27l40 227l-63 531h32l54 -491q101 129 147.5 222t61.5 179q8 47 9 90h29z" />
    <glyph glyph-name="delta" unicode="&#x3b4;" horiz-adv-x="497" 
d="M466 725l-4 -24h-241l164 -231q28 -40 40.5 -79t12.5 -85q0 -35 -8 -85q-21 -133 -82 -198.5t-143 -65.5q-72 0 -117 51t-45 147q0 34 8 82q22 126 82.5 192.5t146.5 66.5q34 0 57 -10l-156 219l4 20h281zM409 295q0 84 -36 129t-97 45q-70 0 -123 -60t-73 -174
q-7 -39 -7 -77q0 -85 37.5 -129.5t96.5 -44.5q69 0 122 60.5t73 174.5q7 39 7 76z" />
    <glyph glyph-name="epsilon" unicode="&#x3b5;" horiz-adv-x="387" 
d="M326 77l20 -14q-26 -54 -72 -80t-104 -26q-67 0 -104 34.5t-37 91.5q0 8 2 26q9 57 46 89t90 41q-35 8 -55.5 34.5t-20.5 64.5q0 48 22.5 84t61 55.5t84.5 19.5q59 0 94 -29.5t37 -77.5l-25 -14q-4 45 -32.5 69.5t-77.5 24.5q-58 0 -96.5 -35.5t-38.5 -94.5q0 -41 28 -65
t78 -24h40l-5 -25h-38q-71 0 -117.5 -34.5t-46.5 -104.5q0 -46 30 -74.5t85 -28.5q104 0 152 93z" />
    <glyph glyph-name="zeta" unicode="&#x3b6;" horiz-adv-x="369" 
d="M430 710q-167 -133 -255.5 -258t-107.5 -235q-5 -26 -5 -56q0 -51 19.5 -84t49.5 -52t75 -37t67 -39.5t22 -51.5q0 -5 -2 -17q-6 -35 -27 -58t-54 -41l-13 19q29 17 45 35.5t20 42.5q1 5 1 14q0 24 -19.5 40.5t-61.5 33.5q-45 18 -77 39t-53.5 58t-21.5 94q0 28 6 61
q22 118 107.5 241t236.5 243h-237l5 25h283z" />
    <glyph glyph-name="eta" unicode="&#x3b7;" horiz-adv-x="491" 
d="M391 461q33 -36 33 -106q0 -28 -6 -63l-98 -562h-28l98 560q5 35 5 56q0 62 -27.5 93t-73.5 31q-59 0 -106.5 -45.5t-62.5 -130.5l-58 -328h-28l77 434q3 20 3 33q0 19 -7 28t-22 9q-13 0 -21 -5l-2 23q14 9 33 9q48 0 48 -55q0 -15 -3 -35l-2 -11q26 48 68 74.5t91 26.5
q56 0 89 -36z" />
    <glyph glyph-name="theta" unicode="&#x3b8;" horiz-adv-x="499" 
d="M472 524q0 -75 -18 -179q-35 -201 -98.5 -294.5t-159.5 -93.5q-143 0 -143 211q0 74 18 177q69 390 258 390q143 0 143 -211zM104 371h326q14 90 14 150q0 186 -118 186q-155 0 -222 -336zM337 74q55 90 88 273h-325q-18 -103 -18 -177q0 -186 117 -186q83 0 138 90z" />
    <glyph glyph-name="iota" unicode="&#x3b9;" horiz-adv-x="202" 
d="M138 -28q-20 -15 -45 -15q-54 0 -54 61q0 15 3 33l76 437h28l-76 -432q-4 -26 -4 -33q0 -19 8 -29t26 -10q19 0 36 11z" />
    <glyph glyph-name="kappa" unicode="&#x3ba;" horiz-adv-x="406" 
d="M413 480l-13 -22q-10 12 -25 12q-16 0 -28.5 -11.5t-38.5 -43.5l-106 -129l127 -320h-30l-116 297l-94 -114l-32 -183h-27l92 520h27l-51 -291l188 233q31 38 50 53.5t44 15.5q23 0 33 -17z" />
    <glyph glyph-name="lambda" unicode="&#x3bb;" horiz-adv-x="438" 
d="M397 -9l2 -24q-17 -10 -38 -10q-32 0 -44.5 22t-17.5 67l-48 395l-258 -475h-31l284 515l-22 160q-6 37 -14 52t-27 15q-21 0 -48 -23l-6 23q30 27 63 27q28 0 41.5 -20.5t19.5 -63.5l74 -593q5 -39 14 -56.5t30 -17.5q13 0 26 7z" />
    <glyph glyph-name="uni03BC" unicode="&#x3bc;" horiz-adv-x="483" 
d="M411 -10l3 -24q-15 -9 -34 -9q-47 0 -47 55q0 16 3 34l4 20q-27 -52 -69.5 -80.5t-90.5 -28.5q-43 0 -71 22.5t-37 68.5l-56 -318h-28l134 758h27l-58 -331q-5 -25 -5 -55q0 -59 26.5 -88.5t71.5 -29.5q55 0 103 44.5t67 124.5l59 335h27l-76 -433q-3 -19 -3 -33
q0 -19 7 -28.5t22 -9.5q11 0 21 6z" />
    <glyph glyph-name="nu" unicode="&#x3bd;" horiz-adv-x="394" 
d="M386 488q-1 -49 -9 -88q-17 -99 -69.5 -197t-169.5 -237h-19l-65 522h32l54 -483q103 130 148.5 219t60.5 175q8 48 9 89h28z" />
    <glyph glyph-name="xi" unicode="&#x3be;" horiz-adv-x="364" 
d="M423 707q-128 -7 -200 -61.5t-72 -140.5q0 -54 35.5 -84t98.5 -30h63l-5 -25h-52q-93 0 -152 -52t-73 -134q-3 -18 -3 -33q0 -43 19.5 -71.5t48 -46t74.5 -37.5q52 -23 73 -42t21 -49q0 -43 -22 -71t-60 -49l-12 19q29 17 44 35.5t19 43.5q1 5 1 13q0 23 -18 39.5
t-60 34.5q-48 20 -81 40.5t-54.5 53.5t-21.5 82q0 17 3 38q12 79 60 130.5t117 68.5q-40 12 -66.5 42.5t-26.5 79.5q0 15 3 31q12 70 63 112.5t115 57.5h-165l5 25h285z" />
    <glyph glyph-name="omicron" unicode="&#x3bf;" horiz-adv-x="479" 
d="M129 433.5q61 63.5 141 63.5q72 0 114 -52t42 -146q0 -45 -8 -88q-23 -129 -84 -191.5t-140 -62.5q-72 0 -114.5 51.5t-42.5 145.5q0 35 8 85q23 131 84 194.5zM66 156q0 -83 35 -127.5t96 -44.5q67 0 119.5 56t72.5 174q8 48 8 83q0 83 -34.5 128t-94.5 45
q-66 0 -120 -57.5t-74 -174.5q-8 -48 -8 -82z" />
    <glyph glyph-name="pi" unicode="&#x3c0;" horiz-adv-x="481" 
d="M494 463h-90l-71 -407q-4 -24 -4 -33q0 -19 8 -29t26 -10t36 12l2 -24q-23 -15 -48 -15q-52 0 -52 56q0 19 4 38l72 412h-213l-87 -497h-27l87 497h-84l4 25h441z" />
    <glyph glyph-name="rho" unicode="&#x3c1;" horiz-adv-x="502" 
d="M406.5 448q42.5 -49 42.5 -144q0 -46 -8 -89q-24 -133 -80.5 -195.5t-139.5 -62.5q-61 0 -96 38t-44 102l-64 -368h-28l91 523q22 121 75.5 183t134.5 62q74 0 116.5 -49zM343 42q49 58 70 175q8 48 8 82q0 83 -36 127t-95 44q-142 0 -183 -226q-8 -51 -8 -89
q0 -80 31 -125.5t93 -45.5q71 0 120 58z" />
    <glyph glyph-name="uni03C2" unicode="&#x3c2;" horiz-adv-x="398" 
d="M359 471.5q37 -25.5 44 -76.5l-25 -14q-7 45 -37.5 67t-72.5 22q-68 0 -121.5 -58.5t-72.5 -173.5q-7 -36 -7 -69q0 -79 35 -116.5t91 -58.5q50 -18 70 -39t20 -51q0 -79 -83 -123l-12 19q34 20 50 42.5t16 55.5q0 23 -16 38t-57 31t-71 36t-51 59t-21 101q0 37 7 76
q21 127 84 192.5t143 65.5q50 0 87 -25.5z" />
    <glyph glyph-name="sigma" unicode="&#x3c3;" horiz-adv-x="503" 
d="M519 488l-4 -25h-170q38 -21 59.5 -66t21.5 -110q0 -39 -7 -78q-21 -120 -81.5 -186t-143.5 -66q-77 0 -117 54.5t-40 143.5q0 41 7 79q22 126 82.5 190t148.5 64h244zM397 284q0 83 -36 130t-94 47q-69 0 -122 -58t-72 -170q-7 -39 -7 -77q0 -81 35 -126.5t94 -45.5
q70 0 123.5 59t71.5 167q7 38 7 74z" />
    <glyph glyph-name="tau" unicode="&#x3c4;" horiz-adv-x="394" 
d="M407 463h-166l-70 -407q-4 -17 -4 -35q0 -37 32 -37q20 0 36 12l3 -24q-23 -15 -49 -15q-52 0 -52 57q0 11 4 37l72 412h-162l4 25h356z" />
    <glyph glyph-name="upsilon" unicode="&#x3c5;" horiz-adv-x="462" 
d="M114 488h28l-55 -316q-7 -38 -7 -71q0 -117 96 -117q73 0 119.5 67.5t69.5 183.5q13 69 13 134q0 64 -12 119h30q11 -58 11 -118q0 -64 -13 -135q-52 -278 -221 -278q-57 0 -89.5 34t-32.5 105q0 34 7 72z" />
    <glyph glyph-name="phi" unicode="&#x3c6;" horiz-adv-x="592" 
d="M349 496q85 -8 136.5 -65.5t51.5 -151.5q0 -31 -6 -64q-21 -124 -95.5 -190t-181.5 -67l-40 -228h-27l40 229q-85 8 -136.5 65.5t-51.5 151.5q0 30 6 63q21 119 95.5 187.5t181.5 70.5l26 147h28zM69 179q0 -84 45 -136t118 -59l86 486q-96 -1 -161 -65t-83 -168
q-5 -25 -5 -58zM507 274q0 85 -44.5 136.5t-117.5 58.5l-86 -485q97 2 161 65t82 167q5 25 5 58z" />
    <glyph glyph-name="chi" unicode="&#x3c7;" horiz-adv-x="406" 
d="M180 143l210 345h32l-233 -380l99 -378h-31l-88 345l-211 -345h-32l233 380l-100 378h32z" />
    <glyph glyph-name="psi" unicode="&#x3c8;" horiz-adv-x="576" 
d="M516 488q12 -55 12 -111t-11 -124q-48 -292 -262 -295l-40 -228h-29l40 228q-80 5 -124.5 49t-44.5 128q0 24 7 68l50 285h28l-49 -281q-6 -37 -6 -67q0 -145 144 -156l117 660h28l-117 -660q182 3 229 268q11 64 11 120q0 63 -13 116h30z" />
    <glyph glyph-name="omega" unicode="&#x3c9;" horiz-adv-x="614" 
d="M505 488q24 -39 37.5 -91.5t13.5 -113.5q0 -53 -8 -98q-20 -112 -69 -170t-114 -58q-46 0 -69.5 31.5t-24.5 83.5q-19 -53 -54 -84t-80 -31q-50 0 -79 39.5t-29 113.5q0 42 8 83q15 90 53.5 165t92.5 130h31q-119 -125 -148 -293q-8 -48 -8 -80q0 -63 23 -97t63 -34
q44 0 78.5 42.5t48.5 124.5l31 177h28l-35 -197q-3 -22 -3 -42q0 -51 20 -78t55 -27q52 0 93 51.5t59 150.5q8 44 8 95q0 121 -53 207h31z" />
    <glyph glyph-name="iotadieresis" unicode="&#x3ca;" horiz-adv-x="202" 
d="M68.5 614q-8.5 8 -8.5 20t8 20t19 8t19.5 -8t8.5 -20t-8 -20t-19 -8t-19.5 8zM210.5 614q-8.5 8 -8.5 20t8 20t19 8t19.5 -8t8.5 -20t-8 -20t-19 -8t-19.5 8zM138 -28q-20 -15 -45 -15q-54 0 -54 61q0 15 3 33l76 437h28l-76 -432q-4 -26 -4 -33q0 -19 8 -29t26 -10
q19 0 36 11z" />
    <glyph glyph-name="upsilondieresis" unicode="&#x3cb;" horiz-adv-x="462" 
d="M204 614q-8 8 -8 20t7.5 20t18.5 8q12 0 20 -8t8 -20t-7.5 -20t-19.5 -8q-11 0 -19 8zM346.5 614q-8.5 8 -8.5 20t8 20t19 8t19.5 -8t8.5 -20t-8 -20t-19 -8t-19.5 8zM114 488h28l-55 -316q-7 -38 -7 -71q0 -117 96 -117q73 0 119.5 67.5t69.5 183.5q13 69 13 134
q0 64 -12 119h30q11 -58 11 -118q0 -64 -13 -135q-52 -278 -221 -278q-57 0 -89.5 34t-32.5 105q0 34 7 72z" />
    <glyph glyph-name="omicrontonos" unicode="&#x3cc;" horiz-adv-x="479" 
d="M275 565l74 141h30l-80 -141h-24zM129 433.5q61 63.5 141 63.5q72 0 114 -52t42 -146q0 -45 -8 -88q-23 -129 -84 -191.5t-140 -62.5q-72 0 -114.5 51.5t-42.5 145.5q0 35 8 85q23 131 84 194.5zM66 156q0 -83 35 -127.5t96 -44.5q67 0 119.5 56t72.5 174q8 48 8 83
q0 83 -34.5 128t-94.5 45q-66 0 -120 -57.5t-74 -174.5q-8 -48 -8 -82z" />
    <glyph glyph-name="upsilontonos" unicode="&#x3cd;" horiz-adv-x="462" 
d="M266 565l73 141h31l-80 -141h-24zM114 488h28l-55 -316q-7 -38 -7 -71q0 -117 96 -117q73 0 119.5 67.5t69.5 183.5q13 69 13 134q0 64 -12 119h30q11 -58 11 -118q0 -64 -13 -135q-52 -278 -221 -278q-57 0 -89.5 34t-32.5 105q0 34 7 72z" />
    <glyph glyph-name="omegatonos" unicode="&#x3ce;" horiz-adv-x="614" 
d="M342 565l73 141h31l-80 -141h-24zM505 488q24 -39 37.5 -92t13.5 -115q0 -52 -8 -96q-20 -112 -69 -170t-114 -58q-46 0 -69.5 31.5t-24.5 83.5q-19 -53 -54 -84t-80 -31q-50 0 -79 39.5t-29 113.5q0 42 8 83q15 90 53.5 165t92.5 130h31q-119 -125 -148 -293
q-8 -48 -8 -80q0 -63 23 -97t63 -34q44 0 78 42t49 125l31 177h28l-35 -197q-3 -24 -3 -44q0 -51 20 -77t55 -26q52 0 93 51.5t59 150.5q8 43 8 94q0 122 -54 208h32z" />
    <glyph glyph-name="uni03D1" unicode="&#x3d1;" horiz-adv-x="506" 
d="M513 362l-4 -24h-85q-24 -136 -56 -219.5t-77.5 -122.5t-108.5 -39q-75 0 -113 54t-33 142l29 8q-3 -80 27 -128t93 -48q79 0 128 84t82 269h-123q-90 0 -137.5 40.5t-47.5 112.5q0 24 4 44q16 87 70.5 144t127.5 57q75 0 112 -64t37 -177q0 -64 -10 -133h85zM398 362
q12 78 12 141q0 98 -30.5 152t-91.5 54t-107.5 -50.5t-60.5 -127.5q-4 -28 -4 -39q0 -62 40.5 -96t121.5 -34h120z" />
    <glyph glyph-name="uni03D2" unicode="&#x3d2;" horiz-adv-x="494" 
d="M560 698l-5 -28h-8q-65 0 -127 -66.5t-107.5 -169t-63.5 -205.5l-47 -263h-30l46 259q8 43 8 96q0 112 -39.5 213.5t-102.5 163.5h38q56 -58 93.5 -155t35.5 -199q26 88 71.5 169t103.5 133t119 52h15z" />
    <glyph glyph-name="uni03D6" unicode="&#x3d6;" horiz-adv-x="648" 
d="M78 488h576l-4 -25h-115q44 -74 44 -185q0 -41 -8 -92q-20 -111 -70 -170t-115 -59q-44 0 -67.5 30.5t-25.5 81.5q-20 -51 -54.5 -81.5t-78.5 -30.5q-50 0 -79 40t-29 114q0 43 8 84q14 82 47 149.5t80 118.5h-112zM550 277q0 106 -46 186h-285q-102 -108 -130 -266
q-8 -46 -8 -79q0 -64 23 -99t63 -35q43 0 77.5 42.5t48.5 124.5l31 172h28l-35 -192q-3 -22 -3 -42q0 -52 20 -78.5t54 -26.5q53 0 95 52.5t59 151.5q8 50 8 89z" />
    <glyph glyph-name="uni0400" unicode="&#x400;" horiz-adv-x="475" 
d="M275 900h29l43 -128h-21zM161 698h331l-5 -27h-302l-55 -312h274l-5 -27h-274l-60 -339h312l-5 -27h-340z" />
    <glyph glyph-name="uni0401" unicode="&#x401;" horiz-adv-x="475" 
d="M261.5 828q-8.5 8 -8.5 20q0 11 8 19t19 8q12 0 20 -8t8 -19q0 -12 -8 -20t-19 -8t-19.5 8zM404 828q-8 8 -8 20q0 11 8 19t19 8t19 -8t8 -19q0 -12 -7.5 -20t-19.5 -8q-11 0 -19 8zM161 698h331l-5 -27h-302l-55 -312h274l-5 -27h-274l-60 -339h312l-5 -27h-340z" />
    <glyph glyph-name="uni0402" unicode="&#x402;" horiz-adv-x="662" 
d="M573.5 379q47.5 -50 47.5 -140q0 -30 -6 -63q-20 -114 -88.5 -169t-167.5 -50l5 27q85 -5 144.5 44.5t76.5 151.5q5 26 5 58q0 78 -38.5 121t-105.5 43q-53 0 -99.5 -26t-78.5 -74t-43 -114l-39 -222h-30l124 705h-191l4 27h413l-5 -27h-191l-65 -367q32 57 86 91t117 34
q78 0 125.5 -50z" />
    <glyph glyph-name="uni0403" unicode="&#x403;" horiz-adv-x="432" 
d="M327 776l87 142h33l-95 -142h-25zM61 -34h-29l129 732h331l-5 -27h-302z" />
    <glyph glyph-name="uni0404" unicode="&#x404;" horiz-adv-x="524" 
d="M206 599q-73 -81 -103 -246h279l-4 -28h-279q-8 -58 -8 -100q0 -116 47.5 -178t132.5 -62q59 0 105.5 30.5t74.5 88.5l22 -14q-32 -65 -84 -99t-120 -34q-97 0 -153 68t-56 197q0 58 12 128q33 182 114.5 270t187.5 88q78 0 120 -46t44 -117l-26 -14q0 64 -35.5 106.5
t-105.5 42.5q-92 0 -165 -81z" />
    <glyph glyph-name="uni0405" unicode="&#x405;" horiz-adv-x="444" 
d="M324 1q-52 -44 -127 -44q-52 0 -95 20.5t-69 58t-28 85.5l26 12q4 -65 52 -107t116 -42q36 0 67 13.5t53 39.5q29 35 38 89q3 20 3 37q0 41 -17.5 72.5t-43 53.5t-69.5 53q-43 31 -69 53.5t-44 54.5t-18 74q0 17 3 36q12 73 69 114q25 17 55 25.5t60 8.5q48 0 83 -18.5
t53.5 -49.5t18.5 -68l-24 -12q-2 52 -36.5 86t-96.5 34q-60 0 -102 -33q-39 -33 -49 -90q-3 -16 -3 -30q0 -36 16.5 -64t40.5 -49t65 -49q46 -33 73.5 -57t46.5 -59t19 -82q0 -23 -4 -44q-14 -78 -63 -122z" />
    <glyph glyph-name="uni0406" unicode="&#x406;" horiz-adv-x="200" 
d="M61 -34h-29l129 732h29z" />
    <glyph glyph-name="uni0407" unicode="&#x407;" horiz-adv-x="200" 
d="M111.5 828q-8.5 8 -8.5 20t8 19.5t19 7.5q12 0 20 -7.5t8 -19.5t-8 -20t-19 -8t-19.5 8zM253.5 828q-8.5 8 -8.5 20t8 19.5t19 7.5q12 0 20 -7.5t8 -19.5t-8 -20t-19 -8t-19.5 8zM61 -34h-29l129 732h29z" />
    <glyph glyph-name="uni0408" unicode="&#x408;" horiz-adv-x="354" 
d="M22.5 -14q-30.5 29 -34.5 85l26 15q3 -50 26.5 -76t64.5 -26q50 0 79.5 38.5t43.5 118.5l98 557h29l-98 -560q-16 -90 -51.5 -135.5t-100.5 -45.5q-52 0 -82.5 29z" />
    <glyph glyph-name="uni0409" unicode="&#x409;" horiz-adv-x="921" 
d="M683 369q92 0 139 -47t47 -123q0 -26 -4 -47q-16 -89 -76 -137.5t-160 -48.5h-190l124 705h-321l-105 -503q-16 -76 -34.5 -120.5t-51.5 -67.5t-88 -23l5 27q46 0 72 21t40 59t28 107l110 527h379l-59 -329h145zM628 -7q90 0 142 43t66 120q4 28 4 41q0 65 -40 105
t-122 40h-144l-62 -349h156z" />
    <glyph glyph-name="uni040A" unicode="&#x40a;" horiz-adv-x="923" 
d="M684 361q92 0 139.5 -46t47.5 -122q0 -25 -4 -45q-16 -89 -75.5 -135.5t-160.5 -46.5h-192l65 368h-377l-66 -368h-29l129 732h29l-59 -337h377l60 337h29l-59 -337h146zM630 -7q90 0 142 41.5t65 116.5q4 19 4 42q0 64 -39.5 102.5t-121.5 38.5h-147l-60 -341h157z" />
    <glyph glyph-name="uni040B" unicode="&#x40b;" horiz-adv-x="654" 
d="M555.5 386q43.5 -43 43.5 -132q0 -37 -7 -76l-37 -212h-29l37 213q7 36 7 72q0 75 -35 113t-98 38q-70 0 -128 -47.5t-81 -145.5l-42 -243h-30l124 705h-191l4 27h413l-5 -27h-191l-64 -360q30 54 80.5 86t113.5 32q72 0 115.5 -43z" />
    <glyph glyph-name="uni040C" unicode="&#x40c;" horiz-adv-x="506" 
d="M356 772l90 128h32l-96 -128h-26zM227 349l289 349h35l-298 -362l177 -370h-35l-169 355h-103l-62 -355h-29l129 732h29l-62 -349h99z" />
    <glyph glyph-name="uni040D" unicode="&#x40d;" horiz-adv-x="607" 
d="M338 917h30l37 -142h-21zM572 698h25l-129 -732h-28l118 668l-501 -668h-25l129 732h29l-118 -667z" />
    <glyph glyph-name="uni040E" unicode="&#x40e;" horiz-adv-x="490" 
d="M275 798q-22 26 -22 69q0 16 3 32h25q-2 -20 -2 -27q0 -37 15.5 -56.5t44.5 -19.5q34 0 58 27t35 76h27q-11 -59 -43 -93t-81 -34q-38 0 -60 26zM239 215l274 483h34l-301 -525q-49 -86 -79 -129t-60 -65t-68 -22q-40 0 -59 19l5 30q25 -21 58 -21q27 0 50 16.5t51.5 57
t74.5 120.5l-125 519h32z" />
    <glyph glyph-name="uni040F" unicode="&#x40f;" horiz-adv-x="599" 
d="M66 -6h369l124 705h30l-129 -733h-199l-34 -172h-25l28 172h-198l129 733h29z" />
    <glyph glyph-name="uni0410" unicode="&#x410;" horiz-adv-x="551" 
d="M362 698l117 -732h-32l-37 245h-289l-123 -245h-33l372 732h25zM405 238l-63 413l-207 -413h270z" />
    <glyph glyph-name="uni0411" unicode="&#x411;" horiz-adv-x="521" 
d="M500 698l-5 -27h-310l-54 -302h135q101 0 149 -46t48 -122q0 -27 -4 -48q-16 -90 -76.5 -138.5t-162.5 -48.5h-188l129 732h339zM127 342l-62 -349h155q91 0 143 43t66 120q4 28 4 41q0 65 -41.5 105t-129.5 40h-135z" />
    <glyph glyph-name="uni0412" unicode="&#x412;" horiz-adv-x="514" 
d="M427.5 403q-33.5 -40 -87.5 -56q55 -13 85 -53.5t30 -100.5q0 -25 -4 -46q-32 -181 -236 -181h-183l129 732h151q79 0 121 -43t42 -112q0 -23 -4 -42q-10 -58 -43.5 -98zM257 357q79 0 125 39.5t58 107.5q3 20 3 37q0 58 -34.5 94t-102.5 36h-121l-56 -314h128zM424 191
q0 64 -38 102t-108 38h-153l-60 -338h149q180 0 206 156q4 20 4 42z" />
    <glyph glyph-name="uni0413" unicode="&#x413;" horiz-adv-x="432" 
d="M61 -34h-29l129 732h331l-5 -27h-302z" />
    <glyph glyph-name="uni0414" unicode="&#x414;" horiz-adv-x="611" 
d="M462 -7h64l-39 -199h-25l28 172h-500l-34 -172h-24l32 199h24q61 0 99 75t71 214l96 416h332zM432 -7l120 678h-274l-90 -392q-26 -113 -56.5 -185.5t-74.5 -100.5h375z" />
    <glyph glyph-name="uni0415" unicode="&#x415;" horiz-adv-x="475" 
d="M161 698h331l-5 -27h-302l-55 -312h274l-5 -27h-274l-60 -339h312l-5 -27h-340z" />
    <glyph glyph-name="uni0416" unicode="&#x416;" horiz-adv-x="792" 
d="M521 349l277 349h36l-288 -363l167 -369h-36l-158 355h-102l-62 -355h-30l63 355h-99l-283 -355h-39l297 371l-160 361h35l154 -349h99l62 349h30l-62 -349h99z" />
    <glyph glyph-name="uni0417" unicode="&#x417;" horiz-adv-x="464" 
d="M384.5 407q-36.5 -41 -86.5 -53q50 -15 78 -57t28 -101q0 -22 -5 -50q-15 -89 -71.5 -139t-144.5 -50q-78 0 -126.5 40t-55.5 115l26 14q5 -67 47.5 -104.5t109.5 -37.5q75 0 123 44.5t62 121.5q4 20 4 45q0 66 -38 106t-106 40h-47l5 28h57q59 0 102.5 39.5t53.5 103.5
q3 18 3 36q0 57 -31 94.5t-91 37.5q-52 0 -98 -29.5t-73 -92.5l-23 14q32 69 84 102.5t113 33.5q74 0 112 -43.5t38 -110.5q0 -25 -4 -45q-9 -61 -45.5 -102z" />
    <glyph glyph-name="uni0418" unicode="&#x418;" horiz-adv-x="607" 
d="M572 698h24l-129 -732h-27l118 668l-501 -668h-25l129 732h28l-117 -667z" />
    <glyph glyph-name="uni0419" unicode="&#x419;" horiz-adv-x="607" 
d="M332 798q-22 26 -22 69q0 16 3 32h25q-2 -18 -2 -27q0 -37 16 -56.5t45 -19.5q33 0 57.5 27t35.5 76h26q-11 -59 -43 -93t-80 -34q-39 0 -61 26zM572 698h25l-129 -732h-28l118 668l-501 -668h-25l129 732h29l-118 -667z" />
    <glyph glyph-name="uni041A" unicode="&#x41a;" horiz-adv-x="506" 
d="M227 349l289 349h35l-298 -362l177 -370h-35l-169 355h-103l-62 -355h-29l129 732h29l-62 -349h99z" />
    <glyph glyph-name="uni041B" unicode="&#x41b;" horiz-adv-x="607" 
d="M597 698l-129 -732h-29l124 705h-321l-105 -503q-16 -76 -34.5 -120.5t-51.5 -67.5t-88 -23l5 27q46 0 72 21t40 59t28 107l110 527h379z" />
    <glyph glyph-name="uni041C" unicode="&#x41c;" horiz-adv-x="706" 
d="M671 698h25l-129 -732h-28l117 665l-306 -431h-17l-155 435l-119 -669h-27l129 732h25l162 -459z" />
    <glyph glyph-name="uni041D" unicode="&#x41d;" horiz-adv-x="601" 
d="M130 361h373l59 337h29l-129 -732h-29l65 367h-372l-65 -367h-29l129 732h29z" />
    <glyph glyph-name="uni041E" unicode="&#x41e;" horiz-adv-x="618" 
d="M185.5 619q81.5 89 187.5 89q95 0 151 -70t56 -199q0 -57 -12 -126q-32 -180 -113 -268t-188 -88q-95 0 -150.5 68.5t-55.5 197.5q0 58 12 127q31 180 112.5 269zM91 227q0 -117 47.5 -180t130.5 -63q94 0 166.5 82.5t101.5 246.5q12 68 12 123q0 117 -47.5 180.5
t-130.5 63.5q-60 0 -114 -36t-94.5 -110t-59.5 -184q-12 -67 -12 -123z" />
    <glyph glyph-name="uni041F" unicode="&#x41f;" horiz-adv-x="600" 
d="M162 699h428l-130 -733h-29l125 706h-370l-125 -706h-29z" />
    <glyph glyph-name="uni0420" unicode="&#x420;" horiz-adv-x="469" 
d="M305 698q82 0 128 -46.5t46 -124.5q0 -22 -5 -50q-16 -94 -78.5 -145.5t-158.5 -51.5h-121l-55 -314h-29l129 732h144zM447 526q0 68 -39.5 106.5t-108.5 38.5h-114l-64 -364h117q81 0 135.5 44.5t69.5 128.5q4 21 4 46z" />
    <glyph glyph-name="uni0421" unicode="&#x421;" horiz-adv-x="525" 
d="M206 598q-73 -82 -103 -249q-12 -67 -12 -123q0 -116 48 -178.5t133 -62.5q59 0 105.5 30.5t74.5 88.5l22 -14q-32 -65 -84.5 -99t-119.5 -34q-97 0 -153 68t-56 197q0 58 12 128q32 182 114 270t188 88q78 0 120 -46t44 -117l-25 -11q-2 62 -37.5 104t-104.5 42
q-93 0 -166 -82z" />
    <glyph glyph-name="uni0422" unicode="&#x422;" horiz-adv-x="448" 
d="M93 698h412l-4 -27h-192l-124 -705h-29l124 705h-191z" />
    <glyph glyph-name="uni0423" unicode="&#x423;" horiz-adv-x="490" 
d="M239 215l274 483h34l-301 -525q-49 -86 -79 -129t-60 -65t-68 -22q-40 0 -59 19l5 30q25 -21 58 -21q27 0 50 16.5t51.5 57t74.5 120.5l-125 519h32z" />
    <glyph glyph-name="uni0424" unicode="&#x424;" horiz-adv-x="653" 
d="M403 619q95 -10 154.5 -73.5t59.5 -168.5q0 -24 -5 -59q-19 -128 -100 -200t-210 -73l-14 -79h-29l14 81q-60 7 -109 38t-78 83.5t-29 122.5q0 29 6 62q22 124 103.5 195t207.5 72l14 78h29zM89 294q0 -62 25 -109t68.5 -75t96.5 -34l90 516q-111 -1 -183.5 -65
t-91.5 -176q-5 -25 -5 -57zM585 374q0 96 -51.5 152t-135.5 65l-91 -517q114 1 185.5 65.5t88.5 178.5q4 27 4 56z" />
    <glyph glyph-name="uni0425" unicode="&#x425;" horiz-adv-x="525" 
d="M280 364l260 334h36l-285 -361l162 -371h-35l-148 345l-270 -345h-36l294 373l-158 359h35z" />
    <glyph glyph-name="uni0426" unicode="&#x426;" horiz-adv-x="620" 
d="M435 -6l124 705h30l-125 -705h65l-39 -200h-25l28 172h-461l129 733h29l-124 -705h369z" />
    <glyph glyph-name="uni0427" unicode="&#x427;" horiz-adv-x="536" 
d="M497 698h29l-129 -732h-29l63 357q-28 -47 -75.5 -73.5t-111.5 -26.5q-77 0 -122.5 38t-45.5 119q0 27 6 60l45 258h29l-45 -257q-5 -25 -5 -55q0 -70 37 -103t103 -33q72 0 126.5 39.5t74.5 126.5z" />
    <glyph glyph-name="uni0428" unicode="&#x428;" horiz-adv-x="847" 
d="M389 -7h293l125 705h30l-130 -732h-675l130 732h29l-126 -705h295l125 705h29z" />
    <glyph glyph-name="uni0429" unicode="&#x429;" horiz-adv-x="866" 
d="M836 698l-124 -705h63l-39 -199h-25l28 172h-707l129 732h29l-124 -705h293l125 705h29l-124 -705h293l124 705h30z" />
    <glyph glyph-name="uni042A" unicode="&#x42a;" horiz-adv-x="627" 
d="M389 369q92 0 139 -47t47 -124q0 -25 -4 -46q-16 -89 -76 -137.5t-160 -48.5h-191l124 705h-182l4 27h212l-58 -329h145zM334 -7q89 0 141 43t66 120q4 28 4 41q0 65 -39.5 105t-121.5 40h-145l-61 -349h156z" />
    <glyph glyph-name="uni042B" unicode="&#x42b;" horiz-adv-x="706" 
d="M276 369q92 0 139 -47t47 -123q0 -26 -4 -47q-16 -89 -76 -137.5t-160 -48.5h-190l129 732h29l-59 -329h145zM566 -34h-29l129 732h29zM127 342l-62 -349h156q90 0 142 43t66 120q4 28 4 41q0 65 -40 105t-122 40h-144z" />
    <glyph glyph-name="uni042C" unicode="&#x42c;" horiz-adv-x="514" 
d="M276 369q92 0 139 -47t47 -123q0 -26 -4 -47q-16 -89 -76 -137.5t-160 -48.5h-190l129 732h29l-59 -329h145zM221 -7q90 0 142 43t66 120q4 28 4 41q0 65 -40 105t-122 40h-144l-62 -349h156z" />
    <glyph glyph-name="uni042D" unicode="&#x42d;" horiz-adv-x="520" 
d="M429 641.5q54 -66.5 54 -193.5q0 -63 -13 -132q-33 -185 -109.5 -272t-181.5 -87q-80 0 -130 46.5t-55 119.5l26 14q5 -66 47.5 -109t113.5 -43q93 0 161.5 83.5t97.5 255.5v1h-277l4 28h278q7 58 7 92q0 114 -46 174.5t-130 60.5q-57 0 -103 -30t-75 -86l-22 14
q31 62 83 96t119 34q97 0 151 -66.5z" />
    <glyph glyph-name="uni042E" unicode="&#x42e;" horiz-adv-x="770" 
d="M681.5 641.5q50.5 -66.5 50.5 -191.5q0 -66 -13 -138q-33 -183 -109 -269t-176 -86q-90 0 -141 67t-51 192q0 57 10 117h-126l-65 -367h-29l129 732h29l-60 -337h126q32 180 108.5 263.5t175.5 83.5q91 0 141.5 -66.5zM702 448q0 112 -43.5 172t-120.5 60q-87 0 -155 -80
t-98 -248q-12 -73 -12 -132q0 -114 42.5 -174.5t119.5 -60.5q87 0 155.5 81.5t98.5 249.5q13 69 13 132z" />
    <glyph glyph-name="uni042F" unicode="&#x42f;" horiz-adv-x="496" 
d="M485 698l-129 -732h-29l58 329h-113q-11 0 -29 2l-248 -331h-39l257 337q-55 13 -84 52.5t-29 98.5q0 25 4 46q17 93 80 145.5t154 52.5h147zM390 322l61 349h-113q-81 0 -135 -45t-68 -128q-4 -20 -4 -42q0 -64 38.5 -99t107.5 -35h113z" />
    <glyph glyph-name="uni0430" unicode="&#x430;" horiz-adv-x="503" 
d="M458 488l-92 -522h-24q17 95 22 129q-29 -67 -76.5 -102.5t-102.5 -35.5q-66 0 -106.5 52t-40.5 146q0 35 8 85q15 87 49.5 144.5t80 85t94.5 27.5q59 0 96 -39.5t41 -114.5q16 72 27 145h24zM307.5 40.5q53.5 56.5 76.5 181.5q8 50 8 82q0 85 -35 125.5t-88 40.5
q-66 0 -120.5 -57t-74.5 -174q-8 -48 -8 -81q0 -83 34.5 -128.5t90.5 -45.5q63 0 116.5 56.5z" />
    <glyph glyph-name="uni0431" unicode="&#x431;" horiz-adv-x="488" 
d="M143 520q-30 -77 -51 -180q30 76 80.5 116.5t111.5 40.5q70 0 110.5 -52t40.5 -146q0 -47 -8 -90q-23 -131 -82 -191.5t-138 -60.5q-161 0 -161 216q0 63 15 150q17 101 51 192.5t89 146.5q28 28 59.5 41t59.5 16t70 4q37 0 58 2.5t38 12.5l-6 -28q-15 -9 -34.5 -11.5
t-53.5 -2.5q-56 0 -97 -9.5t-77 -44.5q-45 -45 -75 -122zM154.5 406q-54.5 -63 -73.5 -169q-7 -36 -7 -76q0 -80 34 -129t100 -49q69 0 118.5 57.5t69.5 171.5q9 48 9 89q0 79 -32 123.5t-92 44.5q-72 0 -126.5 -63z" />
    <glyph glyph-name="uni0432" unicode="&#x432;" horiz-adv-x="439" 
d="M283 235q39 -11 59.5 -40.5t20.5 -72.5q0 -20 -2 -30q-11 -62 -53 -94t-113 -32h-165l92 522h133q63 0 95 -32.5t32 -83.5q0 -15 -3 -32q-15 -85 -96 -105zM144 463l-37 -217h121q53 0 84 26.5t39 72.5q2 18 2 25q0 41 -24.5 67t-75.5 26h-109zM192 -10q63 0 97 28.5
t43 79.5q3 15 3 28q0 44 -28 70t-81 26h-124l-41 -232h131z" />
    <glyph glyph-name="uni0433" unicode="&#x433;" horiz-adv-x="357" 
d="M122 488h263l-4 -25h-236l-87 -497h-28z" />
    <glyph glyph-name="uni0434" unicode="&#x434;" horiz-adv-x="489" 
d="M427 488l-87 -497h63l-38 -197h-24l27 172h-373l-33 -172h-24l31 197h25q36 0 61.5 32t43.5 88.5t39 151.5l51 225h238zM166 258q-25 -112 -49.5 -177t-60.5 -90h257l82 472h-183z" />
    <glyph glyph-name="uni0435" unicode="&#x435;" horiz-adv-x="404" 
d="M275 9q35 24 57 69l20 -16q-24 -51 -66 -78t-94 -27q-75 0 -118 53.5t-43 149.5q0 36 8 84q15 85 50 142t81 84t95 27q59 0 90 -35t31 -91q0 -71 -52 -107.5t-168 -36.5q-43 0 -99 6q-6 -40 -6 -74q0 -84 35.5 -129t98.5 -45q45 0 80 24zM145 418q-52 -52 -74 -160
q56 -6 99 -6q98 0 143 29.5t45 89.5q0 44 -24 71.5t-73 27.5q-64 0 -116 -52z" />
    <glyph glyph-name="uni0436" unicode="&#x436;" horiz-adv-x="542" 
d="M341 240l201 248h32l-210 -259l119 -263h-32l-112 249h-64l-44 -249h-28l44 249h-59l-203 -249h-34l213 262l-120 260h31l115 -248h61l44 248h28l-43 -248h61z" />
    <glyph glyph-name="uni0437" unicode="&#x437;" horiz-adv-x="377" 
d="M301 280.5q-32 -31.5 -78 -41.5q40 -8 66 -36t26 -72q0 -50 -24 -89.5t-67 -62t-98 -22.5q-59 0 -98 26.5t-51 81.5l25 13q23 -94 127 -94q63 0 104 32.5t50 86.5q2 9 2 25q0 46 -33 72t-90 26h-39l4 25h40q56 0 96.5 28.5t49.5 79.5q2 14 2 21q0 41 -28.5 65.5
t-75.5 24.5q-46 0 -82 -24t-59 -68l-21 14q23 47 67.5 76t99.5 29q58 0 93 -31t35 -81q0 -16 -2 -25q-9 -48 -41 -79.5z" />
    <glyph glyph-name="uni0438" unicode="&#x438;" horiz-adv-x="495" 
d="M150 488l-81 -456l359 456h21l-92 -522h-27l80 457l-359 -457h-21l92 522h28z" />
    <glyph glyph-name="uni0439" unicode="&#x439;" horiz-adv-x="495" 
d="M241.5 596.5q-21.5 25.5 -21.5 68.5q0 17 3 35h24q-2 -20 -2 -28q0 -37 15.5 -57.5t44.5 -20.5q33 0 57.5 28t36.5 78h26q-11 -60 -43 -94.5t-81 -34.5q-38 0 -59.5 25.5zM150 488l-81 -456l359 456h21l-92 -522h-27l80 457l-359 -457h-21l92 522h28z" />
    <glyph glyph-name="uni043A" unicode="&#x43a;" horiz-adv-x="419" 
d="M190 240l221 248h34l-231 -259l140 -263h-32l-134 250h-86l-44 -250h-28l92 522h28l-43 -248h83z" />
    <glyph glyph-name="uni043B" unicode="&#x43b;" horiz-adv-x="467" 
d="M421 488l-92 -522h-28l87 497h-215l-70 -326q-13 -62 -28 -99.5t-43 -59t-74 -21.5l4 27q36 0 57.5 18.5t33.5 51t23 86.5l73 348h272z" />
    <glyph glyph-name="uni043C" unicode="&#x43c;" horiz-adv-x="589" 
d="M519 488h25l-92 -522h-28l81 456l-232 -346h-18l-116 354l-82 -464h-27l92 522h26l123 -372z" />
    <glyph glyph-name="uni043D" unicode="&#x43d;" horiz-adv-x="491" 
d="M107 242h267l43 246h28l-92 -522h-28l44 252h-267l-44 -252h-28l92 522h28z" />
    <glyph glyph-name="uni043E" unicode="&#x43e;" horiz-adv-x="479" 
d="M129 433.5q61 63.5 141 63.5q72 0 114 -52t42 -146q0 -45 -8 -88q-23 -129 -84 -191.5t-140 -62.5q-72 0 -114.5 51.5t-42.5 145.5q0 35 8 85q23 131 84 194.5zM66 156q0 -83 35 -127.5t96 -44.5q67 0 119.5 56t72.5 174q8 48 8 83q0 83 -34.5 128t-94.5 45
q-66 0 -120 -57.5t-74 -174.5q-8 -48 -8 -82z" />
    <glyph glyph-name="uni043F" unicode="&#x43f;" horiz-adv-x="491" 
d="M122 488h323l-92 -522h-28l87 497h-267l-87 -497h-28z" />
    <glyph glyph-name="uni0440" unicode="&#x440;" horiz-adv-x="505" 
d="M411 445q41 -52 41 -146q0 -35 -8 -85q-16 -87 -50.5 -144.5t-80 -85t-94.5 -27.5q-58 0 -94.5 38.5t-41.5 110.5l-66 -377h-29l134 759h25q-12 -66 -21 -127q29 66 76 101t102 35q66 0 107 -52zM341 42q54 57 74 174q8 48 8 82q0 83 -34.5 128t-90.5 45
q-61 0 -115 -55.5t-77 -180.5q-8 -43 -8 -85q0 -84 35 -124.5t88 -40.5q66 0 120 57z" />
    <glyph glyph-name="uni0441" unicode="&#x441;" horiz-adv-x="402" 
d="M273.5 3.5q33.5 18.5 54.5 58.5l20 -13q-25 -47 -65 -69.5t-85 -22.5q-72 0 -116.5 53.5t-44.5 148.5q0 35 8 81q14 79 44.5 134.5t72.5 86.5q51 36 107 36q54 0 88 -32t39 -86l-24 -14q-5 49 -32 77t-73 28q-65 0 -119 -57.5t-74 -174.5q-7 -39 -7 -77q0 -84 36.5 -130
t98.5 -46q38 0 71.5 18.5z" />
    <glyph glyph-name="uni0442" unicode="&#x442;" horiz-adv-x="388" 
d="M46 463l4 25h365l-4 -25h-168l-89 -497h-27l88 497h-169z" />
    <glyph glyph-name="uni0443" unicode="&#x443;" horiz-adv-x="410" 
d="M161 -2l239 490h32l-327 -654q-30 -60 -57.5 -86.5t-70.5 -26.5q-47 0 -65 27l15 24q19 -24 52 -24q32 0 54.5 22.5t48.5 73.5l59 116l-88 528h30z" />
    <glyph glyph-name="uni0444" unicode="&#x444;" horiz-adv-x="591" 
d="M349 496q85 -8 136 -65.5t51 -151.5q0 -31 -6 -64q-21 -124 -95.5 -190t-180.5 -67l-40 -228h-28l40 229q-85 8 -136.5 65.5t-51.5 151.5q0 30 6 63q21 119 96 187.5t181 70.5l27 147h27zM68 179q0 -84 45 -136t118 -59l86 486q-96 -1 -161 -65t-83 -168q-5 -25 -5 -58z
M506 274q0 85 -44.5 136.5t-117.5 58.5l-86 -485q97 2 161 65t82 167q5 25 5 58z" />
    <glyph glyph-name="uni0445" unicode="&#x445;" horiz-adv-x="395" 
d="M194 252l183 236h35l-206 -262l114 -260h-33l-101 237l-184 -237h-35l207 263l-115 259h34z" />
    <glyph glyph-name="uni0446" unicode="&#x446;" horiz-adv-x="506" 
d="M445 488l-87 -497h61l-38 -197h-23l27 172h-355l92 522h28l-88 -497h267l88 497h28z" />
    <glyph glyph-name="uni0447" unicode="&#x447;" horiz-adv-x="461" 
d="M387 488h28l-92 -522h-28l44 251q-24 -34 -61 -52.5t-83 -18.5q-58 0 -94.5 31t-36.5 96q0 23 4 46l30 169h28l-29 -169q-4 -20 -4 -42q0 -54 29 -78.5t77 -24.5q58 0 101 34t55 100z" />
    <glyph glyph-name="uni0448" unicode="&#x448;" horiz-adv-x="677" 
d="M303 -9h213l88 497h27l-92 -522h-509l92 522h28l-88 -497h214l87 497h27z" />
    <glyph glyph-name="uni0449" unicode="&#x449;" horiz-adv-x="692" 
d="M631 488l-88 -497h62l-38 -197h-24l28 172h-541l92 522h28l-88 -497h214l87 497h27l-87 -497h213l88 497h27z" />
    <glyph glyph-name="uni044A" unicode="&#x44a;" horiz-adv-x="494" 
d="M283 266q78 0 115.5 -35t37.5 -92q0 -17 -3 -34q-12 -67 -57.5 -103t-121.5 -36h-145l88 497h-141l4 25h169l-39 -222h93zM255 -9q62 0 100 29t48 88q3 17 3 32q0 48 -31 75t-95 27h-94l-44 -251h113z" />
    <glyph glyph-name="uni044B" unicode="&#x44b;" horiz-adv-x="590" 
d="M204 266q78 0 115.5 -35t37.5 -92q0 -17 -3 -34q-12 -67 -57.5 -103t-121.5 -36h-145l92 522h28l-39 -222h93zM453 -34h-28l92 522h28zM175 -9q127 0 149 117q3 17 3 31q0 49 -31.5 76t-95.5 27h-94l-44 -251h113z" />
    <glyph glyph-name="uni044C" unicode="&#x44c;" horiz-adv-x="415" 
d="M204 266q78 0 115.5 -35t37.5 -92q0 -17 -3 -34q-12 -67 -57.5 -103t-121.5 -36h-145l92 522h28l-39 -222h93zM175 -9q127 0 149 117q3 17 3 31q0 49 -31.5 76t-95.5 27h-94l-44 -251h113z" />
    <glyph glyph-name="uni044D" unicode="&#x44d;" horiz-adv-x="398" 
d="M266 473q36 -24 57 -70.5t21 -111.5q0 -38 -7 -77q-22 -129 -80 -193t-136 -64q-58 0 -97 32.5t-43 86.5l24 13q5 -48 36 -76t81 -28q66 0 115 54t70 169h-197l4 24h197q5 37 5 61q0 84 -37.5 130.5t-97.5 46.5q-36 0 -68.5 -18.5t-53.5 -58.5l-21 13q25 47 64 69t82 22
q46 0 82 -24z" />
    <glyph glyph-name="uni044E" unicode="&#x44e;" horiz-adv-x="631" 
d="M539 446q40 -51 40 -145q0 -42 -9 -92q-23 -129 -82 -190.5t-134 -61.5q-70 0 -110 52t-40 146q0 33 4 62h-106l-44 -251h-28l92 522h28l-43 -246h104q23 131 82.5 193t134.5 62q71 0 111 -51zM550 300q0 81 -33 125.5t-91 44.5q-63 0 -114 -55.5t-72 -171.5
q-8 -50 -8 -86q0 -83 33 -128t91 -45q63 0 114 56t71 173q9 48 9 87z" />
    <glyph glyph-name="uni044F" unicode="&#x44f;" horiz-adv-x="424" 
d="M379 488l-92 -522h-28l42 234h-89q-12 0 -17 1l-192 -235h-35l198 240q-45 11 -69.5 42.5t-24.5 76.5q0 15 3 30q12 66 58 99.5t112 33.5h134zM305 225l42 238h-102q-55 0 -93 -27.5t-48 -83.5q-2 -9 -2 -26q0 -46 30 -73.5t83 -27.5h90z" />
    <glyph glyph-name="uni0450" unicode="&#x450;" horiz-adv-x="404" 
d="M197 706h30l37 -141h-21zM275 9q35 24 57 69l20 -16q-24 -51 -66 -78t-94 -27q-75 0 -118 53.5t-43 149.5q0 36 8 84q15 85 50 142t81 84t95 27q59 0 90 -35t31 -91q0 -71 -52 -107.5t-168 -36.5q-43 0 -99 6q-6 -40 -6 -74q0 -84 35.5 -129t98.5 -45q45 0 80 24z
M145 418q-52 -52 -74 -160q56 -6 99 -6q98 0 143 29.5t45 89.5q0 44 -24 71.5t-73 27.5q-64 0 -116 -52z" />
    <glyph glyph-name="uni0451" unicode="&#x451;" horiz-adv-x="404" 
d="M173.5 614q-8.5 8 -8.5 20t8 19.5t19 7.5q12 0 20 -7.5t8 -19.5t-8 -20t-19 -8t-19.5 8zM316 614q-8 8 -8 20t8 19.5t19 7.5t19 -7.5t8 -19.5t-7.5 -20t-19.5 -8q-11 0 -19 8zM275 9q35 24 57 69l20 -16q-24 -51 -66 -78t-94 -27q-75 0 -118 53.5t-43 149.5q0 36 8 84
q15 85 50 142t81 84t95 27q59 0 90 -35t31 -91q0 -71 -52 -107.5t-168 -36.5q-43 0 -99 6q-6 -40 -6 -74q0 -84 35.5 -129t98.5 -45q45 0 80 24zM145 418q-52 -52 -74 -160q56 -6 99 -6q98 0 143 29.5t45 89.5q0 44 -24 71.5t-73 27.5q-64 0 -116 -52z" />
    <glyph glyph-name="uni0452" unicode="&#x452;" horiz-adv-x="482" 
d="M384.5 460.5q33.5 -36.5 33.5 -107.5q0 -28 -6 -61l-76 -428q-13 -76 -41 -109.5t-72 -33.5q-41 0 -62 23l16 23q19 -19 47 -19q31 0 52 26.5t32 91.5l75 424q6 32 6 58q0 61 -27.5 91.5t-74.5 30.5q-57 0 -104 -43.5t-63 -125.5l-60 -335h-28l111 625h-67l4 25h68
l19 111h28l-20 -111h124l-5 -25h-123l-35 -195q26 48 68.5 74.5t90.5 26.5q56 0 89.5 -36.5z" />
    <glyph glyph-name="uni0453" unicode="&#x453;" horiz-adv-x="357" 
d="M257 563l88 142h32l-94 -142h-26zM122 488h263l-4 -25h-236l-87 -497h-28z" />
    <glyph glyph-name="uni0454" unicode="&#x454;" horiz-adv-x="402" 
d="M273.5 3.5q33.5 18.5 54.5 58.5l20 -13q-25 -47 -65 -69.5t-85 -22.5q-72 0 -116.5 53.5t-44.5 148.5q0 35 8 81q15 86 50.5 144t81.5 85.5t95 27.5q54 0 86.5 -32t37.5 -86l-24 -14q-5 49 -31 77t-72 28q-64 0 -118 -55t-76 -166h197l-4 -24h-197q-5 -29 -5 -64
q0 -84 37 -130t99 -46q38 0 71.5 18.5z" />
    <glyph glyph-name="uni0455" unicode="&#x455;" horiz-adv-x="377" 
d="M292.5 41.5q-14.5 -31.5 -39.5 -51.5q-42 -33 -101 -33t-98.5 32t-43.5 93l24 13q4 -55 37 -83t82 -28q47 0 80 25t42 74q2 9 2 25q0 42 -25 67.5t-74 55.5q-34 21 -54 36.5t-34 38t-14 53.5q0 16 2 25q10 55 48 83q40 30 97 30q55 0 89 -30t38 -81l-25 -14
q-2 47 -30 72.5t-74 25.5q-42 0 -74 -22t-40 -66q-2 -14 -2 -19q0 -37 23.5 -60.5t70.5 -50.5q36 -22 57 -38.5t36 -41.5t15 -59q0 -40 -14.5 -71.5z" />
    <glyph glyph-name="uni0456" unicode="&#x456;" horiz-adv-x="192" 
d="M144.5 630q-8.5 8 -8.5 19q0 12 8.5 20t19.5 8t18.5 -8t7.5 -19q0 -12 -7.5 -20t-18.5 -8t-19.5 8zM56 -34h-28l92 522h28z" />
    <glyph glyph-name="uni0457" unicode="&#x457;" horiz-adv-x="191" 
d="M88 623q-8 8 -8 20q0 11 7.5 19t18.5 8t19.5 -8t8.5 -19q0 -12 -8 -20t-19 -8t-19 8zM197.5 623q-8.5 8 -8.5 20q0 11 8 19t19 8t19 -8t8 -19q0 -12 -7.5 -20t-18.5 -8t-19.5 8zM28 -34l92 522h29l-92 -522h-29z" />
    <glyph glyph-name="uni0458" unicode="&#x458;" horiz-adv-x="182" 
d="M140.5 630q-8.5 8 -8.5 19q0 12 8.5 20t19.5 8t18.5 -8t7.5 -19q0 -12 -7.5 -20t-18.5 -8t-19.5 8zM-135.5 -271q-18.5 8 -27.5 21l16 24q19 -26 54 -26q36 0 63.5 33t42.5 117l103 590h28l-103 -593q-17 -95 -52 -134.5t-83 -39.5q-23 0 -41.5 8z" />
    <glyph glyph-name="uni0459" unicode="&#x459;" horiz-adv-x="686" 
d="M475 266q78 0 115.5 -35t37.5 -92q0 -17 -3 -34q-12 -67 -57.5 -103t-121.5 -36h-145l87 497h-216l-69 -326q-14 -64 -28 -100.5t-41.5 -58t-75.5 -21.5l4 27q36 0 57.5 18.5t33 50.5t23.5 87l73 348h272l-39 -222h93zM446 -9q127 0 149 117q3 17 3 31q0 49 -31.5 76
t-95.5 27h-93l-44 -251h112z" />
    <glyph glyph-name="uni045A" unicode="&#x45a;" horiz-adv-x="710" 
d="M501 257q76 0 113.5 -33.5t37.5 -88.5q0 -15 -3 -30q-12 -67 -58 -103t-124 -36h-142l46 264h-267l-46 -264h-28l92 522h28l-41 -234h267l41 234h28l-41 -231h97zM469 -9q64 0 103 29t49 88q3 14 3 27q0 46 -32 71.5t-95 25.5h-97l-42 -241h111z" />
    <glyph glyph-name="uni045B" unicode="&#x45b;" horiz-adv-x="482" 
d="M384.5 460.5q33.5 -36.5 33.5 -107.5q0 -28 -6 -61l-58 -326h-28l57 324q6 32 6 58q0 61 -27.5 91.5t-74.5 30.5q-57 0 -104 -43.5t-63 -125.5l-60 -335h-28l111 625h-67l4 25h68l19 111h28l-20 -111h124l-5 -25h-123l-35 -195q26 48 68.5 74.5t90.5 26.5
q56 0 89.5 -36.5z" />
    <glyph glyph-name="uni045C" unicode="&#x45c;" horiz-adv-x="419" 
d="M278 565l88 141h32l-94 -141h-26zM190 240l221 248h34l-231 -259l140 -263h-32l-134 250h-86l-44 -250h-28l92 522h28l-43 -248h83z" />
    <glyph glyph-name="uni045D" unicode="&#x45d;" horiz-adv-x="495" 
d="M245 706h30l37 -141h-21zM150 488l-81 -456l359 456h21l-92 -522h-27l80 457l-359 -457h-21l92 522h28z" />
    <glyph glyph-name="uni045E" unicode="&#x45e;" horiz-adv-x="410" 
d="M224 595q-22 26 -22 70q0 16 3 34h25q-2 -11 -2 -30q0 -37 15 -56.5t44 -19.5q34 0 58.5 28t35.5 78h27q-11 -60 -43.5 -95t-80.5 -35q-38 0 -60 26zM161 -2l239 490h32l-327 -654q-30 -60 -57.5 -86.5t-70.5 -26.5q-47 0 -65 27l15 24q19 -24 52 -24q32 0 54.5 22.5
t48.5 73.5l59 116l-88 528h30z" />
    <glyph glyph-name="uni045F" unicode="&#x45f;" horiz-adv-x="491" 
d="M62 -9h267l88 497h28l-92 -522h-147l-33 -172h-22l26 172h-147l92 522h28z" />
    <glyph glyph-name="uni0462" unicode="&#x462;" horiz-adv-x="576" 
d="M339 369q92 0 139.5 -47.5t47.5 -124.5q0 -25 -4 -45q-16 -89 -76 -137.5t-161 -48.5h-191l102 580h-141l4 28h143l21 124h29l-22 -124h186l-4 -28h-187l-31 -177h145zM284 -7q90 0 142.5 43t65.5 120q4 28 4 41q0 65 -40 105t-122 40h-145l-61 -349h156z" />
    <glyph glyph-name="uni0463" unicode="&#x463;" horiz-adv-x="438" 
d="M227 266q78 0 115.5 -35t37.5 -92q0 -17 -3 -34q-12 -67 -57.5 -103t-121.5 -36h-145l87 497h-99l4 25h100l38 215h28l-38 -215h157l-4 -25h-157l-35 -197h93zM198 -9q127 0 149 117q3 17 3 31q0 49 -31.5 76t-95.5 27h-93l-44 -251h112z" />
    <glyph glyph-name="uni046B" unicode="&#x46b;" horiz-adv-x="517" 
d="M296 247q74 0 107.5 -43t33.5 -125q0 -47 -11 -113h-28q12 72 12 111q0 72 -29 108.5t-93 36.5h-24l-46 -256h-28l46 256h-25q-84 0 -130.5 -64t-69.5 -192h-28q25 138 77.5 209.5t147.5 71.5h22l-119 241h371l-204 -241h18zM255 257l172 206h-272z" />
    <glyph glyph-name="uni0472" unicode="&#x472;" horiz-adv-x="618" 
d="M524 638q56 -70 56 -199q0 -57 -12 -126q-32 -180 -113 -268t-188 -88q-95 0 -150.5 68.5t-55.5 197.5q0 58 12 127q31 180 112.5 269t187.5 89q95 0 151 -70zM257.5 644.5q-53.5 -35.5 -94 -108.5t-59.5 -182h440q5 35 5 80q0 118 -47.5 182t-130.5 64
q-60 0 -113.5 -35.5zM439.5 72q69.5 88 99.5 255h-440q-8 -58 -8 -99q0 -117 48 -180.5t130 -63.5q101 0 170.5 88z" />
    <glyph glyph-name="uni0473" unicode="&#x473;" horiz-adv-x="479" 
d="M384 445q42 -52 42 -146q0 -45 -8 -88q-23 -129 -84 -191.5t-140 -62.5q-72 0 -114.5 51.5t-42.5 145.5q0 35 8 85q23 131 84 194.5t141 63.5q72 0 114 -52zM151 415.5q-53 -54.5 -75 -163.5h318q3 24 3 46q0 82 -34.5 127t-94.5 45q-64 0 -117 -54.5zM319.5 45
q49.5 61 71.5 181h-319q-6 -37 -6 -69q0 -84 35 -128.5t95 -44.5q74 0 123.5 61z" />
    <glyph glyph-name="uni0474" unicode="&#x474;" horiz-adv-x="592" 
d="M680 680l-19 -24q-12 23 -37 23q-20 0 -36 -16t-35 -55l-321 -642h-25l-113 732h32l102 -682l296 601q24 50 48 70.5t54 20.5q39 0 54 -28z" />
    <glyph glyph-name="uni0475" unicode="&#x475;" horiz-adv-x="434" 
d="M500 468l-16 -23q-12 25 -35 25q-16 0 -30.5 -16t-34.5 -55l-218 -433h-23l-89 522h31l77 -476l196 396q25 51 45 70t46 19q38 0 51 -29z" />
    <glyph glyph-name="uni0490" unicode="&#x490;" horiz-adv-x="429" 
d="M161 698h300l45 151h24l-45 -178h-300l-124 -705h-29z" />
    <glyph glyph-name="uni0491" unicode="&#x491;" horiz-adv-x="366" 
d="M122 488h244l35 125h24l-34 -150h-246l-87 -497h-28z" />
    <glyph glyph-name="uni0492" unicode="&#x492;" horiz-adv-x="430" 
d="M159 698h337l-5 -27h-307l-56 -320h127l-5 -27h-127l-63 -358h-30l63 358h-81l5 27h81z" />
    <glyph glyph-name="uni0493" unicode="&#x493;" horiz-adv-x="370" 
d="M124 488h274l-3 -25h-247l-38 -219h127l-4 -24h-128l-44 -254h-29l45 254h-82l5 24h82z" />
    <glyph glyph-name="uni0497" unicode="&#x497;" horiz-adv-x="546" 
d="M542 488h32l-210 -259l108 -238h24l-38 -197h-24l27 172h-10l-112 249h-64l-44 -249h-28l44 249h-59l-203 -249h-34l213 262l-120 260h31l115 -248h61l44 248h28l-43 -248h61z" />
    <glyph glyph-name="uni049A" unicode="&#x49a;" horiz-adv-x="510" 
d="M516 698h35l-298 -362l164 -343h25l-39 -199h-25l28 172h-11l-169 355h-103l-62 -355h-29l129 732h29l-62 -349h99z" />
    <glyph glyph-name="uni049B" unicode="&#x49b;" horiz-adv-x="423" 
d="M411 488h34l-231 -259l127 -238h23l-39 -197h-23l27 172h-7l-134 250h-86l-44 -250h-28l92 522h28l-43 -248h83z" />
    <glyph glyph-name="uni049C" unicode="&#x49c;" horiz-adv-x="517" 
d="M280 349l249 349h34l-258 -362l137 -370h-32l-130 355h-55l-26 -152h-26l27 152h-77l-62 -355h-29l129 732h29l-62 -349h76l27 152h26l-27 -152h50z" />
    <glyph glyph-name="uni049D" unicode="&#x49d;" horiz-adv-x="400" 
d="M207 240l191 248h34l-201 -259l110 -263h-32l-103 249h-30l-20 -113h-23l19 113h-50l-44 -249h-28l92 522h28l-43 -248h50l20 114h23l-20 -114h27z" />
    <glyph glyph-name="uni04A2" unicode="&#x4a2;" horiz-adv-x="615" 
d="M562 698h29l-125 -705h29l-40 -199h-24l28 172h-26l65 367h-372l-65 -367h-29l129 732h29l-60 -337h373z" />
    <glyph glyph-name="uni04A3" unicode="&#x4a3;" horiz-adv-x="502" 
d="M417 488h28l-87 -497h27l-39 -197h-23l27 172h-25l44 252h-267l-44 -252h-28l92 522h28l-43 -246h267z" />
    <glyph glyph-name="uni04AE" unicode="&#x4ae;" horiz-adv-x="490" 
d="M260 319l253 379h33l-277 -412l-56 -320h-30l58 323l-147 409h33z" />
    <glyph glyph-name="uni04AF" unicode="&#x4af;" horiz-adv-x="412" 
d="M165 14l236 474h33l-262 -513l-42 -245h-29l43 245l-90 513h30z" />
    <glyph glyph-name="uni04B0" unicode="&#x4b0;" horiz-adv-x="490" 
d="M260 319l253 379h33l-260 -386h139l-4 -28h-152l-56 -318h-30l57 318h-161l5 28h148l-138 386h33z" />
    <glyph glyph-name="uni04B1" unicode="&#x4b1;" horiz-adv-x="412" 
d="M165 14l236 474h33l-254 -497h129l-5 -25h-133l-41 -236h-29l41 236h-132l4 25h127l-87 497h30z" />
    <glyph glyph-name="uni04B2" unicode="&#x4b2;" horiz-adv-x="522" 
d="M540 698h36l-285 -361l150 -344h24l-39 -199h-25l28 172h-11l-148 345l-270 -345h-36l294 373l-158 359h35l145 -334z" />
    <glyph glyph-name="uni04B3" unicode="&#x4b3;" horiz-adv-x="392" 
d="M377 488h35l-206 -262l103 -235h24l-38 -197h-25l28 172h-11l-101 237l-184 -237h-35l207 263l-115 259h34l101 -236z" />
    <glyph glyph-name="uni04B8" unicode="&#x4b8;" horiz-adv-x="536" 
d="M496 698h29l-129 -732h-29l63 357q-24 -44 -66 -69.5t-99 -29.5l-27 -150h-26l27 149q-75 2 -118.5 40t-43.5 118q0 32 5 59l45 258h28l-44 -257q-5 -25 -5 -55q0 -68 36.5 -101.5t100.5 -34.5l29 162h26l-29 -161q67 6 116 48.5t64 127.5z" />
    <glyph glyph-name="uni04B9" unicode="&#x4b9;" horiz-adv-x="462" 
d="M389 488h27l-92 -522h-27l45 253q-20 -31 -53 -49.5t-73 -21.5l-19 -110h-26l19 108q-56 2 -91 33t-35 95q0 24 4 45l30 169h28l-29 -169q-4 -21 -4 -42q0 -54 27.5 -78t74.5 -25l24 138h26l-24 -137q51 5 87.5 37.5t48.5 89.5z" />
    <glyph glyph-name="uni04BA" unicode="&#x4ba;" horiz-adv-x="536" 
d="M61 -34h-29l129 732h29l-63 -356q27 46 75 72.5t112 26.5q76 0 121.5 -38.5t45.5 -120.5q0 -32 -5 -58l-45 -258h-29l44 258q5 25 5 54q0 70 -37 103t-103 33q-72 0 -126.5 -39.5t-74.5 -126.5z" />
    <glyph glyph-name="uni04BB" unicode="&#x4bb;" horiz-adv-x="479" 
d="M381.5 460.5q33.5 -36.5 33.5 -107.5q0 -28 -6 -61l-58 -326h-28l57 324q6 32 6 58q0 61 -27.5 91.5t-74.5 30.5q-57 0 -104 -43.5t-63 -125.5l-60 -335h-27l135 761h27l-59 -331q26 48 68.5 74.5t90.5 26.5q56 0 89.5 -36.5z" />
    <glyph glyph-name="uni04CA" unicode="&#x4ca;" horiz-adv-x="502" 
d="M417 488h28l-87 -497h27l-91 -197h-25l73 172h-17l44 252h-267l-44 -252h-28l92 522h28l-43 -246h267z" />
    <glyph glyph-name="uni04D8" unicode="&#x4d8;" horiz-adv-x="564" 
d="M476 638.5q49 -69.5 49 -194.5q0 -67 -13 -139q-32 -176 -108 -262t-190 -86q-85 0 -132 43t-47 122q0 103 77 165.5t235 62.5q59 0 139 -11q8 52 8 107q0 114 -42.5 174t-120.5 60q-49 0 -95 -26.5t-82 -86.5l-23 17q38 65 92.5 94.5t112.5 29.5q91 0 140 -69.5z
M481 308q0 2 1 3q-77 11 -134 11q-141 0 -211 -53.5t-70 -143.5q0 -67 38.5 -103.5t110.5 -36.5q205 0 265 323z" />
    <glyph glyph-name="uni04D9" unicode="&#x4d9;" horiz-adv-x="411" 
d="M57 376l-20 16q24 52 65.5 78.5t94.5 26.5q75 0 118 -53.5t43 -148.5q0 -36 -8 -84q-15 -86 -50 -143t-81 -84t-95 -27q-59 0 -90 35t-31 91q0 71 52.5 108t168.5 37q44 0 98 -6q6 39 6 73q0 84 -35.5 129.5t-98.5 45.5q-92 0 -137 -94zM243.5 36.5q51.5 51.5 74.5 159.5
q-55 6 -100 6q-97 0 -142 -29t-45 -89q0 -44 24 -71.5t73 -27.5q64 0 115.5 51.5z" />
    <glyph glyph-name="uni04E8" unicode="&#x4e8;" horiz-adv-x="618" 
d="M524 638q56 -70 56 -199q0 -57 -12 -126q-32 -180 -113 -268t-188 -88q-95 0 -150.5 68.5t-55.5 197.5q0 58 12 127q31 180 112.5 269t187.5 89q95 0 151 -70zM257.5 644.5q-53.5 -35.5 -94 -108.5t-59.5 -182h440q5 35 5 80q0 118 -47.5 182t-130.5 64
q-60 0 -113.5 -35.5zM439.5 72q69.5 88 99.5 255h-440q-8 -58 -8 -99q0 -117 48 -180.5t130 -63.5q101 0 170.5 88z" />
    <glyph glyph-name="uni04E9" unicode="&#x4e9;" horiz-adv-x="479" 
d="M384 445q42 -52 42 -146q0 -45 -8 -88q-23 -129 -84 -191.5t-140 -62.5q-72 0 -114.5 51.5t-42.5 145.5q0 35 8 85q23 131 84 194.5t141 63.5q72 0 114 -52zM151 415.5q-53 -54.5 -75 -163.5h318q3 24 3 46q0 82 -34.5 127t-94.5 45q-64 0 -117 -54.5zM319.5 45
q49.5 61 71.5 181h-319q-6 -37 -6 -69q0 -84 35 -128.5t95 -44.5q74 0 123.5 61z" />
    <glyph glyph-name="uni1E00" unicode="&#x1e00;" horiz-adv-x="551" 
d="M362 698l117 -732h-32l-37 245h-289l-123 -245h-33l372 732h25zM405 238l-63 413l-207 -413h270zM167.5 -104.5q23.5 22.5 57.5 22.5q32 0 55 -22.5t23 -57.5t-23 -58t-55 -23q-34 0 -57.5 23t-23.5 58t23.5 57.5zM184.5 -204.5q15.5 -16.5 40.5 -16.5q23 0 38.5 17
t15.5 42t-15.5 41.5t-38.5 16.5q-25 0 -40.5 -16t-15.5 -42t15.5 -42.5z" />
    <glyph glyph-name="uni1E01" unicode="&#x1e01;" horiz-adv-x="503" 
d="M458 488l-92 -522h-24q17 95 22 129q-29 -67 -76.5 -102.5t-102.5 -35.5q-66 0 -106.5 52t-40.5 146q0 35 8 85q15 87 49.5 144.5t80 85t94.5 27.5q59 0 96 -39.5t41 -114.5q16 72 27 145h24zM307.5 40.5q53.5 56.5 76.5 181.5q8 50 8 82q0 85 -35 125.5t-88 40.5
q-66 0 -120.5 -57t-74.5 -174q-8 -48 -8 -81q0 -83 34.5 -128.5t90.5 -45.5q63 0 116.5 56.5zM126.5 -104.5q23.5 22.5 57.5 22.5q32 0 55 -22.5t23 -57.5t-23 -58t-55 -23q-34 0 -57.5 23t-23.5 58t23.5 57.5zM143.5 -204.5q15.5 -16.5 40.5 -16.5q23 0 38.5 17t15.5 42
t-15.5 41.5t-38.5 16.5q-25 0 -40.5 -16t-15.5 -42t15.5 -42.5z" />
    <glyph glyph-name="uni1E3E" unicode="&#x1e3e;" horiz-adv-x="706" 
d="M432 772l89 128h33l-97 -128h-25zM671 698h25l-129 -732h-28l117 665l-306 -431h-17l-155 435l-119 -669h-27l129 732h25l162 -459z" />
    <glyph glyph-name="uni1E3F" unicode="&#x1e3f;" horiz-adv-x="706" 
d="M397 565l88 141h32l-95 -141h-25zM613.5 462.5q29.5 -34.5 29.5 -102.5q0 -24 -7 -68l-58 -326h-28l57 325q6 38 6 66q0 57 -22.5 85t-62.5 28q-55 0 -96 -47.5t-56 -131.5l-58 -325h-28l58 325q6 36 6 64q0 57 -22.5 86t-62.5 29q-51 0 -94.5 -43t-58.5 -130l-58 -331
h-28l92 522h25l-6 -38q-2 -10 -4.5 -23.5t-4.5 -29.5q24 49 62 74.5t81 25.5q46 0 74.5 -30.5t31.5 -89.5q23 58 64.5 89t88.5 31q50 0 79.5 -34.5z" />
    <glyph glyph-name="Wgrave" unicode="&#x1e80;" horiz-adv-x="831" 
d="M439 900h30l43 -128h-22zM503 698l58 -689l295 689h31l-321 -740h-27l-59 676l-294 -676h-26l-66 740h31l56 -688l296 688h26z" />
    <glyph glyph-name="wgrave" unicode="&#x1e81;" horiz-adv-x="649" 
d="M323 706h30l37 -141h-21zM374 488l55 -467l211 467h30l-239 -522h-20l-58 462l-211 -462h-21l-66 522h28l57 -465l210 465h24z" />
    <glyph glyph-name="Wacute" unicode="&#x1e82;" horiz-adv-x="831" 
d="M494 772l89 128h33l-97 -128h-25zM503 698l58 -689l295 689h31l-321 -740h-27l-59 676l-294 -676h-26l-66 740h31l56 -688l296 688h26z" />
    <glyph glyph-name="wacute" unicode="&#x1e83;" horiz-adv-x="649" 
d="M362 565l87 141h33l-95 -141h-25zM374 488l55 -467l211 467h30l-239 -522h-20l-58 462l-211 -462h-21l-66 522h28l57 -465l210 465h24z" />
    <glyph glyph-name="Wdieresis" unicode="&#x1e84;" horiz-adv-x="831" 
d="M426.5 828q-8.5 8 -8.5 20q0 11 8 19t19 8t19.5 -8t8.5 -19q0 -12 -8 -20t-19 -8t-19.5 8zM568.5 828q-8.5 8 -8.5 20q0 11 8 19t19 8q12 0 20 -8t8 -19q0 -12 -8 -20t-19 -8t-19.5 8zM503 698l58 -689l295 689h31l-321 -740h-27l-59 676l-294 -676h-26l-66 740h31
l56 -688l296 688h26z" />
    <glyph glyph-name="wdieresis" unicode="&#x1e85;" horiz-adv-x="649" 
d="M300 614q-8 8 -8 20t7.5 20t18.5 8q12 0 20 -8t8 -20t-7.5 -20t-19.5 -8q-11 0 -19 8zM442.5 614q-8.5 8 -8.5 20t8 20t19 8t19.5 -8t8.5 -20t-8 -20t-19 -8t-19.5 8zM374 488l55 -467l211 467h30l-239 -522h-20l-58 462l-211 -462h-21l-66 522h28l57 -465l210 465h24z
" />
    <glyph glyph-name="uni1EA0" unicode="&#x1ea0;" horiz-adv-x="551" 
d="M362 698l117 -732h-32l-37 245h-289l-123 -245h-33l372 732h25zM405 238l-63 413l-207 -413h270zM191.5 -181q-8.5 8 -8.5 20t8 19.5t19 7.5q12 0 20 -7.5t8 -19.5t-8 -20t-19 -8t-19.5 8z" />
    <glyph glyph-name="uni1EA1" unicode="&#x1ea1;" horiz-adv-x="503" 
d="M458 488l-92 -522h-24q17 95 22 129q-29 -67 -76.5 -102.5t-102.5 -35.5q-66 0 -106.5 52t-40.5 146q0 35 8 85q15 87 49.5 144.5t80 85t94.5 27.5q59 0 96 -39.5t41 -114.5q16 72 27 145h24zM307.5 40.5q53.5 56.5 76.5 181.5q8 50 8 82q0 85 -35 125.5t-88 40.5
q-66 0 -120.5 -57t-74.5 -174q-8 -48 -8 -81q0 -83 34.5 -128.5t90.5 -45.5q63 0 116.5 56.5zM150 -181q-8 8 -8 20t8 19.5t19 7.5t19 -7.5t8 -19.5t-7.5 -20t-19.5 -8q-11 0 -19 8z" />
    <glyph glyph-name="uni1EA2" unicode="&#x1ea2;" horiz-adv-x="551" 
d="M317 891q31 14 65 14q28 0 45 -15t17 -41q0 -37 -27 -62t-66 -36l-8 21q35 9 55 27.5t20 44.5q0 17 -10.5 27.5t-31.5 10.5q-28 0 -56 -16zM362 698l117 -732h-32l-37 245h-289l-123 -245h-33l372 732h25zM405 238l-63 413l-207 -413h270z" />
    <glyph glyph-name="uni1EA3" unicode="&#x1ea3;" horiz-adv-x="503" 
d="M280 710q31 15 62 15q29 0 46.5 -16t17.5 -44q0 -39 -27.5 -66t-65.5 -37l-8 20q35 9 54.5 30.5t19.5 49.5q0 40 -43 40q-23 0 -55 -15zM458 488l-92 -522h-24q17 95 22 129q-29 -67 -76.5 -102.5t-102.5 -35.5q-66 0 -106.5 52t-40.5 146q0 35 8 85q15 87 49.5 144.5
t80 85t94.5 27.5q59 0 96 -39.5t41 -114.5q16 72 27 145h24zM307.5 40.5q53.5 56.5 76.5 181.5q8 50 8 82q0 85 -35 125.5t-88 40.5q-66 0 -120.5 -57t-74.5 -174q-8 -48 -8 -81q0 -83 34.5 -128.5t90.5 -45.5q63 0 116.5 56.5z" />
    <glyph glyph-name="uni1EA4" unicode="&#x1ea4;" horiz-adv-x="551" 
d="M452 837l86 75h36l-93 -75h-29zM371 820h21l59 -76h-30l-43 57l-80 -57h-35zM362 698l117 -732h-32l-37 245h-289l-123 -245h-33l372 732h25zM405 238l-63 413l-207 -413h270z" />
    <glyph glyph-name="uni1EA5" unicode="&#x1ea5;" horiz-adv-x="503" 
d="M409 729l84 127h32l-91 -127h-25zM336 706h21l57 -141h-27l-45 114l-84 -114h-30zM458 488l-92 -522h-24q17 95 22 129q-29 -67 -76.5 -102.5t-102.5 -35.5q-66 0 -106.5 52t-40.5 146q0 35 8 85q15 87 49.5 144.5t80 85t94.5 27.5q59 0 96 -39.5t41 -114.5q16 72 27 145
h24zM307.5 40.5q53.5 56.5 76.5 181.5q8 50 8 82q0 85 -35 125.5t-88 40.5q-66 0 -120.5 -57t-74.5 -174q-8 -48 -8 -81q0 -83 34.5 -128.5t90.5 -45.5q63 0 116.5 56.5z" />
    <glyph glyph-name="uni1EA6" unicode="&#x1ea6;" horiz-adv-x="551" 
d="M398 912h29l43 -75h-21zM371 820h21l59 -76h-30l-43 57l-80 -57h-35zM362 698l117 -732h-32l-37 245h-289l-123 -245h-33l372 732h25zM405 238l-63 413l-207 -413h270z" />
    <glyph glyph-name="uni1EA7" unicode="&#x1ea7;" horiz-adv-x="503" 
d="M370 856h29l40 -127h-22zM336 706h21l57 -141h-27l-45 114l-84 -114h-30zM458 488l-92 -522h-24q17 95 22 129q-29 -67 -76.5 -102.5t-102.5 -35.5q-66 0 -106.5 52t-40.5 146q0 35 8 85q15 87 49.5 144.5t80 85t94.5 27.5q59 0 96 -39.5t41 -114.5q16 72 27 145h24z
M307.5 40.5q53.5 56.5 76.5 181.5q8 50 8 82q0 85 -35 125.5t-88 40.5q-66 0 -120.5 -57t-74.5 -174q-8 -48 -8 -81q0 -83 34.5 -128.5t90.5 -45.5q63 0 116.5 56.5z" />
    <glyph glyph-name="uni1EA8" unicode="&#x1ea8;" horiz-adv-x="551" 
d="M418 911q28 8 64 8q32 0 49.5 -11t12.5 -29q-6 -19 -32 -32t-60 -18l-8 16q30 4 50 12.5t24 20.5q3 9 -7.5 16.5t-33.5 7.5q-27 0 -57 -8zM371 820h21l59 -76h-30l-43 57l-80 -57h-35zM362 698l117 -732h-32l-37 245h-289l-123 -245h-33l372 732h25zM405 238l-63 413
l-207 -413h270z" />
    <glyph glyph-name="uni1EA9" unicode="&#x1ea9;" horiz-adv-x="503" 
d="M371 853q31 16 62 16q30 0 47.5 -15t17.5 -43q0 -10 -1 -16q-6 -34 -32 -56.5t-62 -33.5l-6 20q34 9 54 31t20 51q0 18 -11.5 29t-33.5 11q-24 0 -53 -16zM336 706h21l57 -141h-27l-45 114l-84 -114h-30zM458 488l-92 -522h-24q17 95 22 129q-29 -67 -76.5 -102.5
t-102.5 -35.5q-66 0 -106.5 52t-40.5 146q0 35 8 85q15 87 49.5 144.5t80 85t94.5 27.5q59 0 96 -39.5t41 -114.5q16 72 27 145h24zM307.5 40.5q53.5 56.5 76.5 181.5q8 50 8 82q0 85 -35 125.5t-88 40.5q-66 0 -120.5 -57t-74.5 -174q-8 -48 -8 -81q0 -83 34.5 -128.5
t90.5 -45.5q63 0 116.5 56.5z" />
    <glyph glyph-name="uni1EAA" unicode="&#x1eaa;" horiz-adv-x="551" 
d="M286 846q24 55 72 55q18 0 27 -5.5t18 -17.5q7 -8 13 -12.5t17 -4.5q29 0 47 37h25q-21 -55 -73 -55q-17 0 -25.5 5.5t-17.5 16.5q-7 9 -13.5 13.5t-17.5 4.5q-16 0 -27 -9.5t-21 -27.5h-24zM371 820h21l59 -76h-30l-43 57l-80 -57h-35zM362 698l117 -732h-32l-37 245
h-289l-123 -245h-33l372 732h25zM405 238l-63 413l-207 -413h270z" />
    <glyph glyph-name="uni1EAB" unicode="&#x1eab;" horiz-adv-x="503" 
d="M469 840q-10 -42 -28 -68t-45 -26q-17 0 -26 10.5t-17 30.5q-7 17 -13.5 25.5t-17.5 8.5q-16 0 -27.5 -17.5t-20.5 -52.5h-24q24 94 73 94q18 0 26.5 -10.5t18.5 -32.5q7 -17 12.5 -25t16.5 -8q31 0 48 71h24zM336 706h21l57 -141h-27l-45 114l-84 -114h-30zM458 488
l-92 -522h-24q17 95 22 129q-29 -67 -76.5 -102.5t-102.5 -35.5q-66 0 -106.5 52t-40.5 146q0 35 8 85q15 87 49.5 144.5t80 85t94.5 27.5q59 0 96 -39.5t41 -114.5q16 72 27 145h24zM307.5 40.5q53.5 56.5 76.5 181.5q8 50 8 82q0 85 -35 125.5t-88 40.5q-66 0 -120.5 -57
t-74.5 -174q-8 -48 -8 -81q0 -83 34.5 -128.5t90.5 -45.5q63 0 116.5 56.5z" />
    <glyph glyph-name="uni1EAC" unicode="&#x1eac;" horiz-adv-x="551" 
d="M374 892h21l59 -128h-28l-46 103l-83 -103h-31zM362 698l117 -732h-32l-37 245h-289l-123 -245h-33l372 732h25zM405 238l-63 413l-207 -413h270zM191.5 -181q-8.5 8 -8.5 20t8 19.5t19 7.5q12 0 20 -7.5t8 -19.5t-8 -20t-19 -8t-19.5 8z" />
    <glyph glyph-name="uni1EAD" unicode="&#x1ead;" horiz-adv-x="503" 
d="M336 706h21l57 -141h-27l-45 114l-84 -114h-30zM458 488l-92 -522h-24q17 95 22 129q-29 -67 -76.5 -102.5t-102.5 -35.5q-66 0 -106.5 52t-40.5 146q0 35 8 85q15 87 49.5 144.5t80 85t94.5 27.5q59 0 96 -39.5t41 -114.5q16 72 27 145h24zM307.5 40.5
q53.5 56.5 76.5 181.5q8 50 8 82q0 85 -35 125.5t-88 40.5q-66 0 -120.5 -57t-74.5 -174q-8 -48 -8 -81q0 -83 34.5 -128.5t90.5 -45.5q63 0 116.5 56.5zM150 -181q-8 8 -8 20t8 19.5t19 7.5t19 -7.5t8 -19.5t-7.5 -20t-19.5 -8q-11 0 -19 8z" />
    <glyph glyph-name="uni1EAE" unicode="&#x1eae;" horiz-adv-x="551" 
d="M378 841l86 75h36l-94 -75h-28zM298 759.5q-22 15.5 -22 41.5q0 9 3 19h26q-2 -10 -2 -15q0 -19 15.5 -30t44.5 -11q33 0 56.5 15t35.5 41h27q-11 -35 -42.5 -55.5t-80.5 -20.5q-39 0 -61 15.5zM362 698l117 -732h-32l-37 245h-289l-123 -245h-33l372 732h25zM405 238
l-63 413l-207 -413h270z" />
    <glyph glyph-name="uni1EAF" unicode="&#x1eaf;" horiz-adv-x="503" 
d="M336 729l85 127h31l-90 -127h-26zM263 596q-22 26 -22 70q0 16 3 34h25q-2 -11 -2 -30q0 -36 15.5 -56t43.5 -20q34 0 58.5 28t35.5 78h27q-12 -60 -44 -95t-80 -35q-38 0 -60 26zM458 488l-92 -522h-24q17 95 22 129q-29 -67 -76.5 -102.5t-102.5 -35.5q-66 0 -106.5 52
t-40.5 146q0 35 8 85q15 87 49.5 144.5t80 85t94.5 27.5q59 0 96 -39.5t41 -114.5q16 72 27 145h24zM307.5 40.5q53.5 56.5 76.5 181.5q8 50 8 82q0 85 -35 125.5t-88 40.5q-66 0 -120.5 -57t-74.5 -174q-8 -48 -8 -81q0 -83 34.5 -128.5t90.5 -45.5q63 0 116.5 56.5z" />
    <glyph glyph-name="uni1EB0" unicode="&#x1eb0;" horiz-adv-x="551" 
d="M323 916h30l43 -75h-22zM298 759.5q-22 15.5 -22 41.5q0 9 3 19h26q-2 -10 -2 -15q0 -19 15.5 -30t44.5 -11q33 0 56.5 15t35.5 41h27q-11 -35 -42.5 -55.5t-80.5 -20.5q-39 0 -61 15.5zM362 698l117 -732h-32l-37 245h-289l-123 -245h-33l372 732h25zM405 238l-63 413
l-207 -413h270z" />
    <glyph glyph-name="uni1EB1" unicode="&#x1eb1;" horiz-adv-x="503" 
d="M298 856h29l40 -127h-22zM263 596q-22 26 -22 70q0 16 3 34h25q-2 -11 -2 -30q0 -36 15.5 -56t43.5 -20q34 0 58.5 28t35.5 78h27q-12 -60 -44 -95t-80 -35q-38 0 -60 26zM458 488l-92 -522h-24q17 95 22 129q-29 -67 -76.5 -102.5t-102.5 -35.5q-66 0 -106.5 52
t-40.5 146q0 35 8 85q15 87 49.5 144.5t80 85t94.5 27.5q59 0 96 -39.5t41 -114.5q16 72 27 145h24zM307.5 40.5q53.5 56.5 76.5 181.5q8 50 8 82q0 85 -35 125.5t-88 40.5q-66 0 -120.5 -57t-74.5 -174q-8 -48 -8 -81q0 -83 34.5 -128.5t90.5 -45.5q63 0 116.5 56.5z" />
    <glyph glyph-name="uni1EB2" unicode="&#x1eb2;" horiz-adv-x="551" 
d="M329 920q32 9 64 9q29 0 45.5 -8.5t16.5 -23.5q0 -22 -26.5 -37t-65.5 -22l-8 17q66 8 73 33q4 9 -6.5 16t-34.5 7q-23 0 -56 -7zM298 759.5q-22 15.5 -22 41.5q0 9 3 19h26q-2 -10 -2 -15q0 -19 15.5 -30t44.5 -11q33 0 56.5 15t35.5 41h27q-11 -35 -42.5 -55.5
t-80.5 -20.5q-39 0 -61 15.5zM362 698l117 -732h-32l-37 245h-289l-123 -245h-33l372 732h25zM405 238l-63 413l-207 -413h270z" />
    <glyph glyph-name="uni1EB3" unicode="&#x1eb3;" horiz-adv-x="503" 
d="M310 874q27 15 61 15q29 0 46.5 -15.5t17.5 -42.5q0 -40 -27 -67t-66 -38l-7 21q34 9 54 30.5t20 48.5q0 18 -11 29.5t-33 11.5q-24 0 -55 -15v22zM263 596q-22 26 -22 70q0 16 3 34h25q-2 -11 -2 -30q0 -36 15.5 -56t43.5 -20q34 0 58.5 28t35.5 78h27q-12 -60 -44 -95
t-80 -35q-38 0 -60 26zM458 488l-92 -522h-24q17 95 22 129q-29 -67 -76.5 -102.5t-102.5 -35.5q-66 0 -106.5 52t-40.5 146q0 35 8 85q15 87 49.5 144.5t80 85t94.5 27.5q59 0 96 -39.5t41 -114.5q16 72 27 145h24zM307.5 40.5q53.5 56.5 76.5 181.5q8 50 8 82
q0 85 -35 125.5t-88 40.5q-66 0 -120.5 -57t-74.5 -174q-8 -48 -8 -81q0 -83 34.5 -128.5t90.5 -45.5q63 0 116.5 56.5z" />
    <glyph glyph-name="uni1EB4" unicode="&#x1eb4;" horiz-adv-x="551" 
d="M287 853q24 55 72 55q18 0 27 -5.5t18 -17.5q7 -8 13 -12.5t17 -4.5q29 0 47 37h25q-10 -25 -28 -40t-44 -15q-17 0 -26 5.5t-17 16.5q-8 9 -14.5 13.5t-17.5 4.5q-16 0 -27 -9.5t-21 -27.5h-24zM298 759.5q-22 15.5 -22 41.5q0 9 3 19h26q-2 -10 -2 -15q0 -19 15.5 -30
t44.5 -11q33 0 56.5 15t35.5 41h27q-11 -35 -42.5 -55.5t-80.5 -20.5q-39 0 -61 15.5zM362 698l117 -732h-32l-37 245h-289l-123 -245h-33l372 732h25zM405 238l-63 413l-207 -413h270z" />
    <glyph glyph-name="uni1EB5" unicode="&#x1eb5;" horiz-adv-x="503" 
d="M251 750q24 93 73 93q18 0 27 -10.5t18 -31.5q7 -17 12.5 -25t16.5 -8q30 0 47 70h25q-10 -41 -28.5 -67t-44.5 -26q-18 0 -27 11t-17 31q-6 16 -12.5 24.5t-17.5 8.5q-16 0 -27.5 -17.5t-20.5 -52.5h-24zM263 596q-22 26 -22 70q0 16 3 34h25q-2 -11 -2 -30
q0 -36 15.5 -56t43.5 -20q34 0 58.5 28t35.5 78h27q-12 -60 -44 -95t-80 -35q-38 0 -60 26zM458 488l-92 -522h-24q17 95 22 129q-29 -67 -76.5 -102.5t-102.5 -35.5q-66 0 -106.5 52t-40.5 146q0 35 8 85q15 87 49.5 144.5t80 85t94.5 27.5q59 0 96 -39.5t41 -114.5
q16 72 27 145h24zM307.5 40.5q53.5 56.5 76.5 181.5q8 50 8 82q0 85 -35 125.5t-88 40.5q-66 0 -120.5 -57t-74.5 -174q-8 -48 -8 -81q0 -83 34.5 -128.5t90.5 -45.5q63 0 116.5 56.5z" />
    <glyph glyph-name="uni1EB6" unicode="&#x1eb6;" horiz-adv-x="551" 
d="M301 790q-22 26 -22 69q0 16 3 32h25q-2 -18 -2 -26q0 -37 16 -57t45 -20q33 0 57.5 27t35.5 76h26q-11 -59 -43 -93t-80 -34q-39 0 -61 26zM362 698l117 -732h-32l-37 245h-289l-123 -245h-33l372 732h25zM405 238l-63 413l-207 -413h270zM191.5 -181q-8.5 8 -8.5 20
t8 19.5t19 7.5q12 0 20 -7.5t8 -19.5t-8 -20t-19 -8t-19.5 8z" />
    <glyph glyph-name="uni1EB7" unicode="&#x1eb7;" horiz-adv-x="503" 
d="M263 596q-22 26 -22 70q0 16 3 34h25q-2 -11 -2 -30q0 -36 15.5 -56t43.5 -20q34 0 58.5 28t35.5 78h27q-12 -60 -44 -95t-80 -35q-38 0 -60 26zM458 488l-92 -522h-24q17 95 22 129q-29 -67 -76.5 -102.5t-102.5 -35.5q-66 0 -106.5 52t-40.5 146q0 35 8 85
q15 87 49.5 144.5t80 85t94.5 27.5q59 0 96 -39.5t41 -114.5q16 72 27 145h24zM307.5 40.5q53.5 56.5 76.5 181.5q8 50 8 82q0 85 -35 125.5t-88 40.5q-66 0 -120.5 -57t-74.5 -174q-8 -48 -8 -81q0 -83 34.5 -128.5t90.5 -45.5q63 0 116.5 56.5zM150 -181q-8 8 -8 20
t8 19.5t19 7.5t19 -7.5t8 -19.5t-7.5 -20t-19.5 -8q-11 0 -19 8z" />
    <glyph glyph-name="uni1EB8" unicode="&#x1eb8;" horiz-adv-x="475" 
d="M161 698h331l-5 -27h-302l-55 -312h274l-5 -27h-274l-60 -339h312l-5 -27h-340zM160 -181q-8 8 -8 20t8 19.5t19 7.5t19 -7.5t8 -19.5t-7.5 -20t-19.5 -8q-11 0 -19 8z" />
    <glyph glyph-name="uni1EB9" unicode="&#x1eb9;" horiz-adv-x="404" 
d="M275 9q35 24 57 69l20 -16q-24 -51 -66 -78t-94 -27q-75 0 -118 53.5t-43 149.5q0 36 8 84q15 85 50 142t81 84t95 27q59 0 90 -35t31 -91q0 -71 -52 -107.5t-168 -36.5q-43 0 -99 6q-6 -40 -6 -74q0 -84 35.5 -129t98.5 -45q45 0 80 24zM145 418q-52 -52 -74 -160
q56 -6 99 -6q98 0 143 29.5t45 89.5q0 44 -24 71.5t-73 27.5q-64 0 -116 -52zM115.5 -183q-8.5 8 -8.5 20t8 20t19 8t19.5 -8t8.5 -20t-8 -20t-19 -8t-19.5 8z" />
    </font>
</defs>
</svg>
