<?xml version="1.0" standalone="no"?>
<!DOCTYPE svg PUBLIC "-//W3C//DTD SVG 1.1//EN" "http://www.w3.org/Graphics/SVG/1.1/DTD/svg11.dtd" >
<svg xmlns="http://www.w3.org/2000/svg" xmlns:xlink="http://www.w3.org/1999/xlink" version="1.1">
<metadata>
Created by FontForge 20170731 at Fri May 28 14:17:41 2021
 By Aleksey,,,
Copyright 2021 Huawei Device Co., Ltd. All Rights Reserved.
</metadata>
<defs>
<font id="HarmonyOS_Sans_Condensed_Medium_Italic" horiz-adv-x="484" >
  <font-face 
    font-family="HarmonyOS Sans Condensed Medium"
    font-weight="500"
    font-style="italic"
    font-stretch="normal"
    units-per-em="1000"
    panose-1="0 0 6 0 0 0 0 0 0 0"
    ascent="800"
    descent="-200"
    x-height="485"
    cap-height="698"
    bbox="-524 -287 1308 978"
    underline-thickness="50"
    underline-position="-150"
    slope="-10"
    unicode-range="U+0020-301E"
  />
<missing-glyph horiz-adv-x="500" 
d="M93 850h317v-1000h-317v1000zM333 750v33h-165v-33h65v-37h-66v-33h166v33h-66v37h66zM267 584v70h-100v-104h166v34h-66zM200 620h33v-36h-33v36zM333 490v33h-166v-33h66v-37h-66v-33h100v70h66zM333 363v100h-33v-66h-133v-34h166zM333 228v113h-100v-56h34v23h33v-47
h-100v80h-33v-113h166zM333 55v113h-166v-113h166zM200 135h100v-47h-100v47zM333 -1v33h-166v-33h70l-70 -47v-33h166v33h-102l70 47h32z" />
    <glyph glyph-name="f_b.liga" unicode="fb" horiz-adv-x="808" 
d="M260.5 624q-22.5 -28 -34.5 -92l-8 -46h109l-15 -81h-108l-89 -500q-18 -99 -58 -144.5t-105 -45.5q-62 0 -96 36l49 78q13 -10 23 -14.5t21 -4.5q30 0 47 27t29 93l83 475h-72l15 81h72l10 58q18 103 66.5 148.5t111.5 45.5q40 0 67 -18l-15 -82q-22 14 -45 14
q-35 0 -57.5 -28zM726.5 444q43.5 -53 43.5 -149q0 -45 -8 -86q-23 -132 -86.5 -193t-144.5 -61q-101 0 -126 93q-6 -20 -20 -81h-85l134 758h95l-53 -301q53 73 136 73q71 0 114.5 -53zM612.5 84q36.5 43 52.5 134q7 36 7 70q0 59 -23 90t-66 31q-47 0 -85.5 -39.5
t-55.5 -137.5q-7 -38 -7 -71q0 -63 25.5 -91.5t66.5 -28.5q49 0 85.5 43z" />
    <glyph glyph-name="f_f.liga" unicode="ff" horiz-adv-x="578" 
d="M541.5 624.5q-20.5 -27.5 -32.5 -92.5l-8 -46h109l-15 -81h-108l-89 -500q-18 -99 -58 -144.5t-105 -45.5q-62 0 -96 36l49 78q13 -10 23 -14.5t21 -4.5q30 0 47 27t29 93l83 475h-187l-89 -500q-18 -99 -58 -144.5t-105 -45.5q-62 0 -96 36l49 78q13 -10 23 -14.5
t21 -4.5q30 0 47 27t29 93l83 475h-72l15 81h72l10 58q18 103 65.5 148.5t109.5 45.5q33 0 58.5 -11t36.5 -28l-48 -69q-22 22 -50 22q-29 0 -48 -27t-30 -90l-9 -49h188l10 58q18 103 67 148.5t115 45.5q36 0 61.5 -11.5t37.5 -29.5l-48 -70q-24 25 -55 25
q-32 0 -52.5 -27.5z" />
    <glyph glyph-name="f_f_b.liga" unicode="ffb" horiz-adv-x="1091" 
d="M543.5 624q-22.5 -28 -34.5 -92l-8 -46h109l-15 -81h-108l-89 -500q-18 -99 -58 -144.5t-105 -45.5q-62 0 -96 36l49 78q13 -10 23 -14.5t21 -4.5q30 0 47 27t29 93l83 475h-187l-89 -500q-18 -99 -58 -144.5t-105 -45.5q-62 0 -96 36l49 78q13 -10 23 -14.5t21 -4.5
q30 0 47 27t29 93l83 475h-72l15 81h72l10 58q18 103 65.5 148.5t109.5 45.5q33 0 58.5 -11t36.5 -28l-48 -69q-22 22 -50 22q-29 0 -48 -27t-30 -90l-9 -49h188l10 58q18 103 66.5 148.5t111.5 45.5q40 0 67 -18l-15 -82q-22 14 -45 14q-35 0 -57.5 -28zM1009.5 444
q43.5 -53 43.5 -149q0 -45 -8 -86q-23 -132 -86.5 -193t-144.5 -61q-101 0 -126 93q-6 -20 -20 -81h-85l134 758h95l-53 -301q53 73 136 73q71 0 114.5 -53zM895.5 84q36.5 43 52.5 134q7 36 7 70q0 59 -23 90t-66 31q-47 0 -85.5 -39.5t-55.5 -137.5q-7 -38 -7 -71
q0 -63 25.5 -91.5t66.5 -28.5q49 0 85.5 43z" />
    <glyph glyph-name="f_f_h.liga" unicode="ffh" horiz-adv-x="1068" 
d="M501 486h109l-15 -81h-108l-89 -500q-18 -99 -58 -144.5t-105 -45.5q-62 0 -96 36l49 78q13 -10 23 -14.5t21 -4.5q30 0 47 27t29 93l83 475h-187l-89 -500q-18 -99 -58 -144.5t-105 -45.5q-62 0 -96 36l49 78q13 -10 23 -14.5t21 -4.5q30 0 47 27t29 93l83 475h-72
l15 81h72l10 58q18 103 65.5 148.5t109.5 45.5q33 0 58.5 -11t36.5 -28l-48 -69q-22 22 -50 22q-29 0 -48 -27t-30 -90l-9 -49h188l10 58q18 103 66.5 148.5t111.5 45.5q40 0 67 -18l-15 -82q-22 14 -45 14q-35 0 -57.5 -28t-34.5 -92zM991.5 459q33.5 -38 33.5 -112
q0 -35 -7 -71l-55 -310h-95l53 297q6 33 6 58q0 86 -67 86q-45 0 -81 -36t-49 -108l-53 -297h-95l135 761h95l-53 -299q28 34 64 51.5t76 17.5q59 0 92.5 -38z" />
    <glyph glyph-name="f_f_i.liga" unicode="ffi" horiz-adv-x="790" 
d="M501 486h109l-15 -81h-108l-89 -500q-18 -99 -58 -144.5t-105 -45.5q-62 0 -96 36l49 78q13 -10 23 -14.5t21 -4.5q30 0 47 27t29 93l83 475h-187l-89 -500q-18 -99 -58 -144.5t-105 -45.5q-62 0 -96 36l49 78q13 -10 23 -14.5t21 -4.5q30 0 47 27t29 93l83 475h-72
l15 81h72l10 58q18 103 65.5 148.5t109.5 45.5q33 0 58.5 -11t36.5 -28l-48 -69q-22 22 -50 22q-29 0 -48 -27t-30 -90l-9 -49h188l10 58q18 103 66.5 148.5t111.5 45.5q40 0 67 -18l-15 -82q-22 14 -45 14q-35 0 -57.5 -28t-34.5 -92zM791.5 680.5q18.5 -18.5 18.5 -44.5
t-18 -45t-44 -19q-25 0 -43 19t-18 45t18 44.5t43 18.5t43.5 -18.5zM770 485l-92 -519h-95l92 519h95z" />
    <glyph glyph-name="f_f_k.liga" unicode="ffk" horiz-adv-x="1045" 
d="M501 486h109l-15 -81h-108l-89 -500q-18 -99 -58 -144.5t-105 -45.5q-62 0 -96 36l49 78q13 -10 23 -14.5t21 -4.5q30 0 47 27t29 93l83 475h-187l-89 -500q-18 -99 -58 -144.5t-105 -45.5q-62 0 -96 36l49 78q13 -10 23 -14.5t21 -4.5q30 0 47 27t29 93l83 475h-72
l15 81h72l10 58q18 103 65.5 148.5t109.5 45.5q33 0 58.5 -11t36.5 -28l-48 -69q-22 22 -50 22q-29 0 -48 -27t-30 -90l-9 -49h188l10 58q18 103 66.5 148.5t111.5 45.5q40 0 67 -18l-15 -82q-22 14 -45 14q-35 0 -57.5 -28t-34.5 -92zM952 485h113l-196 -211l122 -308h-107
l-88 231l-96 -102l-22 -129h-95l134 761h95l-63 -355q-19 -112 -27 -146q47 53 107 122z" />
    <glyph glyph-name="f_f_l.liga" unicode="ffl" horiz-adv-x="789" 
d="M543.5 624q-22.5 -28 -34.5 -92l-8 -46h109l-15 -81h-108l-89 -500q-18 -99 -58 -144.5t-105 -45.5q-62 0 -96 36l49 78q13 -10 23 -14.5t21 -4.5q30 0 47 27t29 93l83 475h-187l-89 -500q-18 -99 -58 -144.5t-105 -45.5q-62 0 -96 36l49 78q13 -10 23 -14.5t21 -4.5
q30 0 47 27t29 93l83 475h-72l15 81h72l10 58q18 103 65.5 148.5t109.5 45.5q33 0 58.5 -11t36.5 -28l-48 -69q-22 22 -50 22q-29 0 -48 -27t-30 -90l-9 -49h188l10 58q18 103 66.5 148.5t111.5 45.5q40 0 67 -18l-15 -82q-22 14 -45 14q-35 0 -57.5 -28zM677 -34h-95
l135 761h95z" />
    <glyph glyph-name="f_h.liga" unicode="fh" horiz-adv-x="785" 
d="M260.5 624q-22.5 -28 -34.5 -92l-8 -46h109l-15 -81h-108l-89 -500q-18 -99 -58 -144.5t-105 -45.5q-62 0 -96 36l49 78q13 -10 23 -14.5t21 -4.5q30 0 47 27t29 93l83 475h-72l15 81h72l10 58q18 103 66.5 148.5t111.5 45.5q40 0 67 -18l-15 -82q-22 14 -45 14
q-35 0 -57.5 -28zM708.5 459q33.5 -38 33.5 -112q0 -35 -7 -71l-55 -310h-95l53 297q6 33 6 58q0 86 -67 86q-45 0 -81 -36t-49 -108l-53 -297h-95l135 761h95l-53 -299q28 34 64 51.5t76 17.5q59 0 92.5 -38z" />
    <glyph glyph-name="f_i.liga" unicode="fi" horiz-adv-x="507" 
d="M327 486l-15 -81h-108l-89 -500q-18 -99 -58 -144.5t-105 -45.5q-62 0 -96 36l49 78q13 -10 23 -14.5t21 -4.5q30 0 47 27t29 93l83 475h-72l15 81h72l10 58q18 103 66.5 148.5t111.5 45.5q40 0 67 -18l-15 -82q-22 14 -45 14q-35 0 -57.5 -28t-34.5 -92l-8 -46h109z
M508.5 680.5q18.5 -18.5 18.5 -44.5t-18 -45t-44 -19q-25 0 -43 19t-18 45t18 44.5t43 18.5t43.5 -18.5zM487 485l-92 -519h-95l92 519h95z" />
    <glyph glyph-name="f_k.liga" unicode="fk" horiz-adv-x="762" 
d="M260.5 624q-22.5 -28 -34.5 -92l-8 -46h109l-15 -81h-108l-89 -500q-18 -99 -58 -144.5t-105 -45.5q-62 0 -96 36l49 78q13 -10 23 -14.5t21 -4.5q30 0 47 27t29 93l83 475h-72l15 81h72l10 58q18 103 66.5 148.5t111.5 45.5q40 0 67 -18l-15 -82q-22 14 -45 14
q-35 0 -57.5 -28zM669 485h113l-196 -211l122 -308h-107l-88 231l-96 -102l-22 -129h-95l134 761h95l-63 -355q-19 -112 -27 -146q47 53 107 122z" />
    <glyph glyph-name="f_l.liga" unicode="fl" horiz-adv-x="506" 
d="M260.5 624q-22.5 -28 -34.5 -92l-8 -46h109l-15 -81h-108l-89 -500q-18 -99 -58 -144.5t-105 -45.5q-62 0 -96 36l49 78q13 -10 23 -14.5t21 -4.5q30 0 47 27t29 93l83 475h-72l15 81h72l10 58q18 103 66.5 148.5t111.5 45.5q40 0 67 -18l-15 -82q-22 14 -45 14
q-35 0 -57.5 -28zM394 -34h-95l135 761h95z" />
    <glyph glyph-name="r_f.liga" unicode="rf" horiz-adv-x="630" 
d="M711 726.5q26 -11.5 37 -29.5l-47 -70q-24 25 -55 25q-33 0 -53.5 -27.5t-31.5 -92.5l-8 -47h109l-15 -81h-109l-88 -499q-18 -99 -58 -144.5t-105 -45.5q-62 0 -96 36l49 78q13 -10 23 -14.5t21 -4.5q30 0 47 27.5t28 92.5l84 474h-72l15 81h72l10 59q18 103 67 148.5
t115 45.5q35 0 61 -11.5zM351 486l-16 -89q-22 13 -48 13q-47 0 -83.5 -39t-51.5 -111l-53 -294h-95l92 519h83l-3 -27q-4 -29 -5 -45q25 41 59 62.5t73 21.5q28 0 48 -11z" />
    <glyph glyph-name="r_t.liga" unicode="rt" horiz-adv-x="670" 
d="M667 404h-127l-45 -250q-5 -32 -5 -49q0 -32 12.5 -48t39.5 -16t58 19l21 -74q-45 -31 -104 -31q-55 0 -89.5 30t-34.5 102q0 27 6 61l46 256h-74l14 82h74l26 148h96l-27 -148h126zM351 486l-16 -89q-22 13 -48 13q-47 0 -83.5 -39t-51.5 -111l-53 -294h-95l92 519h83
l-3 -27q-4 -29 -5 -45q25 41 59 62.5t73 21.5q28 0 48 -11z" />
    <glyph glyph-name="r_v.liga" unicode="rv" horiz-adv-x="788" 
d="M353 485l-16 -89q-23 14 -50 14q-47 0 -83.5 -39t-51.5 -111l-53 -294h-95l92 519h83l-3 -27q-4 -29 -5 -45q25 41 59 62.5t72 21.5q30 0 51 -12zM480 485l55 -372l181 372h104l-269 -519h-79l-92 519h100z" />
    <glyph glyph-name="r_x.liga" unicode="rx" horiz-adv-x="762" 
d="M353 485l-16 -89q-23 14 -50 14q-47 0 -83.5 -39t-51.5 -111l-53 -294h-95l92 519h83l-3 -27q-4 -29 -5 -45q25 41 59 62.5t72 21.5q30 0 51 -12zM555 306l133 179h107l-206 -261l114 -258h-107l-72 180l-133 -180h-107l206 263l-114 256h106z" />
    <glyph glyph-name="r_y.liga" unicode="ry" horiz-adv-x="789" 
d="M353 485l-16 -89q-23 14 -50 14q-47 0 -83.5 -39t-51.5 -111l-53 -294h-95l92 519h83l-3 -27q-4 -29 -5 -45q25 41 59 62.5t72 21.5q30 0 51 -12zM535 94l186 391h101l-305 -608q-42 -84 -84 -123t-109 -39q-33 0 -58 10t-39 28l49 75q22 -24 56 -24q30 0 52 21t51 77
l32 60l-90 523h100z" />
    <glyph glyph-name=".notdef" horiz-adv-x="500" 
d="M93 850h317v-1000h-317v1000zM333 750v33h-165v-33h65v-37h-66v-33h166v33h-66v37h66zM267 584v70h-100v-104h166v34h-66zM200 620h33v-36h-33v36zM333 490v33h-166v-33h66v-37h-66v-33h100v70h66zM333 363v100h-33v-66h-133v-34h166zM333 228v113h-100v-56h34v23h33v-47
h-100v80h-33v-113h166zM333 55v113h-166v-113h166zM200 135h100v-47h-100v47zM333 -1v33h-166v-33h70l-70 -47v-33h166v33h-102l70 47h32z" />
    <glyph glyph-name=".null" horiz-adv-x="0" 
 />
    <glyph glyph-name="nonmarkingreturn" horiz-adv-x="333" 
 />
    <glyph glyph-name="space" unicode=" " horiz-adv-x="230" 
 />
    <glyph glyph-name="exclam" unicode="!" horiz-adv-x="205" 
d="M48 182l80 543h108l-111 -543h-77zM12.5 -26q-18.5 20 -18.5 47q0 28 18.5 47.5t45.5 19.5q28 0 47 -19.5t19 -47.5q0 -27 -19.5 -47t-46.5 -20t-45.5 20z" />
    <glyph glyph-name="quotedbl" unicode="&#x22;" horiz-adv-x="345" 
d="M99 506l41 263h87l-51 -263h-77zM252 506l42 263h87l-51 -263h-78z" />
    <glyph glyph-name="numbersign" unicode="#" horiz-adv-x="561" 
d="M518 547h80l-15 -93h-98l-74 -205h81l-16 -93h-99l-70 -193h-95l71 193h-115l-70 -193h-95l70 193h-82l16 93h99l74 205h-82l16 93h99l70 194h95l-70 -194h115l70 194h95zM274 456l-75 -209h117l75 209h-117z" />
    <glyph glyph-name="dollar" unicode="$" 
d="M310 357q66 -36 102 -75.5t36 -105.5q0 -18 -3 -39q-15 -83 -71 -128.5t-132 -52.5l-24 -132h-88l25 137q-70 16 -112 69.5t-46 135.5l89 38q7 -62 27.5 -99.5t59.5 -49.5l43 244q-43 26 -72 48.5t-48 56.5t-19 80q0 21 4 41q16 87 74 132.5t132 51.5l21 124h88l-22 -131
q63 -16 99 -63.5t37 -108.5l-91 -41q-11 94 -64 118zM193.5 445q14.5 -22 41.5 -41l37 212q-42 -8 -67.5 -41.5t-25.5 -78.5q0 -29 14.5 -51zM292 252l-36 -202q44 9 67 38.5t23 70.5q0 53 -54 93z" />
    <glyph glyph-name="percent" unicode="%" horiz-adv-x="729" 
d="M305 397.5q-49 -42.5 -112 -42.5q-60 0 -97.5 39t-37.5 106q0 23 4 43q15 83 63.5 125t111.5 42q60 0 97.5 -38t37.5 -104q0 -24 -4 -45q-14 -83 -63 -125.5zM570 699h105l-504 -733h-105zM278 556q0 32 -14 49t-37 17q-25 0 -45 -21.5t-27 -64.5q-3 -16 -3 -29
q0 -31 13.5 -47.5t36.5 -16.5q26 0 45.5 21t27.5 64q3 15 3 28zM625 -2.5q-49 -42.5 -111 -42.5q-60 0 -97.5 38.5t-37.5 105.5q0 23 4 44q15 83 63.5 125t111.5 42q60 0 97.5 -38t37.5 -104q0 -24 -4 -45q-15 -83 -64 -125.5zM598 155q0 32 -13.5 49.5t-36.5 17.5
q-26 0 -45.5 -21.5t-26.5 -64.5q-3 -16 -3 -29q0 -31 13.5 -47.5t36.5 -16.5q25 0 45 21t28 64q2 10 2 27z" />
    <glyph glyph-name="ampersand" unicode="&#x26;" horiz-adv-x="585" 
d="M569 378q-43 -147 -112 -248l95 -164h-118l-46 82q-93 -93 -202 -93q-82 0 -130 49t-48 130q0 20 5 50q14 81 59 129.5t117 86.5q-35 73 -35 139q0 20 3 39q15 81 67 121t119 40q70 0 108 -42t38 -105q0 -18 -3 -36q-8 -46 -32 -79.5t-56.5 -56.5t-80.5 -48l87 -153
q37 66 63 159h102zM255 535q0 -42 22 -92q54 30 82 61.5t28 80.5q0 27 -13.5 44.5t-41.5 17.5q-26 0 -46.5 -18t-27.5 -60q-3 -16 -3 -34zM341 129l-111 196q-47 -29 -76 -64t-38 -86q-4 -26 -4 -36q0 -44 23.5 -68t63.5 -24q71 0 142 82z" />
    <glyph glyph-name="quotesingle" unicode="'" horiz-adv-x="191" 
d="M99 506l41 263h87l-51 -263h-77z" />
    <glyph glyph-name="parenleft" unicode="(" horiz-adv-x="339" 
d="M160 595.5q63 111.5 153 185.5h101q-91 -89 -151.5 -199t-85.5 -251q-13 -75 -13 -145q0 -92 22.5 -172.5t64.5 -158.5h-101q-44 67 -67.5 154t-23.5 186q0 74 13 148q25 141 88 252.5z" />
    <glyph glyph-name="parenright" unicode=")" horiz-adv-x="339" 
d="M195.5 41q-63.5 -112 -153.5 -186h-100q91 90 151.5 199.5t85.5 250.5q13 74 13 143q0 92 -22.5 173.5t-64.5 159.5h100q44 -67 68 -155t24 -187q0 -74 -13 -146q-25 -140 -88.5 -252z" />
    <glyph glyph-name="asterisk" unicode="*" horiz-adv-x="427" 
d="M297 562l127 78l29 -73l-135 -60l114 -60l-54 -72l-101 78l-13 -137h-84l34 137l-127 -78l-29 72l134 60l-113 60l55 73l100 -79l14 138h84z" />
    <glyph glyph-name="plus" unicode="+" 
d="M339 542l-29 -168h167l-16 -92h-168l-30 -168h-91l30 168h-168l15 92h169l30 168h91z" />
    <glyph glyph-name="comma" unicode="," horiz-adv-x="213" 
d="M118 66.5q18 -19.5 18 -58.5q0 -14 -3 -30q-14 -74 -60 -122t-115 -58l2 61q78 18 98 93q-26 1 -41.5 18t-15.5 42q0 30 20.5 52t49.5 22t47 -19.5z" />
    <glyph glyph-name="hyphen" unicode="-" horiz-adv-x="385" 
d="M41 225l15 86h295l-15 -86h-295z" />
    <glyph glyph-name="period" unicode="." horiz-adv-x="202" 
d="M10 -26q-19 20 -19 47q0 28 19 47.5t46 19.5t46 -19.5t19 -47.5q0 -27 -19 -47t-46 -20t-46 20z" />
    <glyph glyph-name="slash" unicode="/" horiz-adv-x="358" 
d="M-46 -34l369 732h102l-368 -732h-103z" />
    <glyph glyph-name="zero" unicode="0" 
d="M356.5 37.5q-63.5 -82.5 -160.5 -82.5q-81 0 -122 52.5t-41 163.5q0 73 18 175q35 200 99 282t162 82q81 0 121.5 -51.5t40.5 -163.5q0 -73 -18 -175q-36 -200 -99.5 -282.5zM134 165q0 -61 17.5 -90.5t54.5 -29.5q50 0 84.5 63.5t61.5 215.5q20 115 20 178
q0 62 -17 90.5t-53 28.5q-52 0 -87 -64t-62 -218q-19 -105 -19 -174z" />
    <glyph glyph-name="one" unicode="1" 
d="M110 458l18 107l212 134h79l-130 -733h-103l106 605z" />
    <glyph glyph-name="two" unicode="2" 
d="M423.5 396q-31.5 -49 -115.5 -148l-166 -196h263l-15 -86h-402l12 63l238 279q68 79 91.5 116t31.5 81q4 20 4 40q0 76 -67 76q-76 0 -134 -117l-71 46q34 79 92 119.5t127 40.5q72 0 115 -43t43 -117q0 -22 -5 -50q-10 -55 -41.5 -104z" />
    <glyph glyph-name="three" unicode="3" 
d="M417 411q-30 -40 -79 -60q41 -21 62.5 -61t21.5 -92q0 -21 -5 -51q-16 -92 -73.5 -142t-146.5 -50q-80 0 -129.5 41.5t-58.5 123.5l85 43q5 -58 33 -89t75 -31q45 0 74 30t39 87q3 20 3 36q0 51 -28 80t-84 29h-36l15 85h40q54 0 86 33t42 88q3 15 3 30q0 37 -17.5 59
t-53.5 22q-38 0 -69 -26.5t-52 -79.5l-69 45q30 76 83.5 112.5t120.5 36.5q78 0 119.5 -46t41.5 -116q0 -23 -4 -43q-9 -54 -39 -94z" />
    <glyph glyph-name="four" unicode="4" 
d="M411 410l-35 -197h95l-15 -86h-95l-29 -161h-97l28 161h-275l13 69l320 503h106l-310 -486h162l35 197h97z" />
    <glyph glyph-name="five" unicode="5" 
d="M487 699l-15 -85h-228l-59 -203q36 19 80 19q78 0 122 -51.5t44 -136.5q0 -34 -5 -60q-19 -107 -83.5 -167t-151.5 -60q-71 0 -117.5 41.5t-55.5 115.5l87 41q5 -51 29.5 -80.5t64.5 -29.5q45 0 78.5 39t44.5 103q5 28 5 50q0 50 -22 80t-65 30q-32 0 -60.5 -17
t-49.5 -48l-64 32l111 387h310z" />
    <glyph glyph-name="six" unicode="6" 
d="M404 368q43 -53 43 -136q0 -24 -5 -56q-19 -107 -85.5 -164t-154.5 -57q-85 0 -133 52t-48 141q0 34 5 60q8 43 23.5 79t36 67.5t62.5 89.5l181 254h109l-182 -254q-5 -8 -10.5 -15.5t-10.5 -15.5q26 8 50 8q76 0 119 -53zM341 227q0 50 -22 78.5t-65 28.5
q-48 0 -81.5 -36.5t-44.5 -101.5q-4 -21 -4 -46q0 -50 22 -78.5t65 -28.5q47 0 81 36.5t45 100.5q4 21 4 47z" />
    <glyph glyph-name="seven" unicode="7" 
d="M393 611h-290l14 87h403l-10 -60l-338 -672h-111z" />
    <glyph glyph-name="eight" unicode="8" 
d="M437.5 414.5q-30.5 -38.5 -75.5 -57.5q38 -22 59 -61.5t21 -90.5q0 -21 -5 -49q-16 -93 -81 -147t-157 -54q-91 0 -141.5 50t-50.5 130q0 26 4 47q12 70 51 117t95 69q-32 20 -49 53.5t-17 75.5q0 17 3 35q13 81 72.5 129.5t144.5 48.5q81 0 125.5 -46t44.5 -116
q0 -18 -3 -38q-10 -57 -40.5 -95.5zM383 534q0 40 -21 65.5t-60 25.5q-41 0 -70.5 -28.5t-37.5 -76.5q-2 -9 -2 -27q0 -40 21 -64.5t59 -24.5q40 0 70 27.5t39 75.5q2 9 2 27zM341 209q0 49 -24.5 79t-69.5 30q-47 0 -83.5 -35t-47.5 -97q-3 -19 -3 -38q0 -50 25 -78t70 -28
q47 0 83 34t47 95q3 20 3 38z" />
    <glyph glyph-name="nine" unicode="9" 
d="M438.5 658q47.5 -52 47.5 -141q0 -35 -5 -61q-8 -43 -23.5 -78.5t-34.5 -65t-63 -92.5l-182 -254h-109l182 254l22 31q-26 -8 -50 -8q-76 0 -119 53t-43 136q0 24 5 56q19 107 85.5 164.5t154.5 57.5q85 0 132.5 -52zM384 515q0 50 -22 78t-65 28q-48 0 -82 -36t-45 -101
q-4 -21 -4 -46q0 -50 22 -79t66 -29q47 0 80.5 36.5t45.5 101.5q4 23 4 47z" />
    <glyph glyph-name="colon" unicode=":" horiz-adv-x="225" 
d="M94.5 383q-18.5 20 -18.5 47q0 28 18.5 47.5t45.5 19.5q28 0 47 -19.5t19 -47.5q0 -27 -19.5 -47t-46.5 -20t-45.5 20zM22.5 -25.5q-18.5 19.5 -18.5 46.5q0 28 18.5 47.5t45.5 19.5q28 0 47 -19.5t19 -47.5q0 -27 -19.5 -46.5t-46.5 -19.5t-45.5 19.5z" />
    <glyph glyph-name="semicolon" unicode=";" horiz-adv-x="235" 
d="M196.5 477.5q19.5 -19.5 19.5 -47.5q0 -27 -19.5 -47t-46.5 -20t-46 20t-19 47q0 28 19 47.5t46 19.5t46.5 -19.5zM125 66.5q18 -19.5 18 -58.5q0 -14 -3 -30q-14 -74 -60 -122t-115 -58l3 61q78 18 97 93q-26 1 -41.5 18t-15.5 42q0 30 20.5 52t49.5 22t47 -19.5z" />
    <glyph glyph-name="less" unicode="&#x3c;" 
d="M512 572l-18 -100l-331 -144l280 -144l-17 -100l-392 200l14 88z" />
    <glyph glyph-name="equal" unicode="=" 
d="M480 391h-427l16 91h428zM443 175h-428l16 91h427z" />
    <glyph glyph-name="greater" unicode="&#x3e;" 
d="M349 328l-281 144l18 100l392 -200l-16 -88l-463 -200l19 100z" />
    <glyph glyph-name="question" unicode="?" horiz-adv-x="391" 
d="M45 588q34 74 95 111.5t128 37.5q76 0 121.5 -44t45.5 -113q0 -12 -4 -38q-7 -39 -23.5 -68t-36.5 -48.5t-53 -46.5q-37 -30 -59 -53t-38 -58.5t-18 -85.5h-84q-1 8 -1 24q0 57 16 97t38 65.5t59 57.5q38 33 58 58.5t27 62.5q2 16 2 23q0 32 -18 50.5t-51 18.5
q-35 0 -68.5 -23.5t-59.5 -76.5zM94 -26q-19 20 -19 47q0 28 19 47.5t46 19.5q28 0 47 -19.5t19 -47.5q0 -27 -19.5 -47t-46.5 -20t-46 20z" />
    <glyph glyph-name="at" unicode="@" horiz-adv-x="792" 
d="M635.5 698q69.5 -41 107 -119t37.5 -186q0 -63 -11 -124q-20 -118 -64 -175.5t-116 -57.5q-44 0 -73 21.5t-38 64.5q-26 -44 -59 -64.5t-68 -20.5q-59 0 -96.5 51.5t-37.5 138.5q0 34 6 71q13 75 44 126t70.5 76.5t80.5 25.5q36 0 63.5 -19.5t41.5 -56.5q8 26 17 64h78
l-52 -298q-4 -21 -4 -42q0 -52 37 -52q32 0 52.5 40t34.5 115q10 57 10 110q0 130 -62 199t-171 69q-84 0 -154 -42t-118.5 -123t-68.5 -196q-9 -51 -9 -97q0 -86 30 -149.5t84.5 -97.5t127.5 -34q49 0 92 15t77 41l39 -64q-95 -76 -213 -76q-95 0 -167.5 44t-112.5 125.5
t-40 190.5q0 55 10 111q24 140 86.5 238t152 148t194.5 50q93 0 162.5 -41zM442 163.5q31 33.5 45 110.5q5 26 5 56q0 51 -19.5 76t-50.5 25q-37 0 -65 -35.5t-40 -106.5q-6 -33 -6 -60q0 -47 17 -73t48 -26q35 0 66 33.5z" />
    <glyph glyph-name="A" unicode="A" horiz-adv-x="596" 
d="M415 699l116 -733h-107l-26 195h-239l-92 -195h-110l369 733h89zM386 252l-40 304l-144 -304h184z" />
    <glyph glyph-name="B" unicode="B" horiz-adv-x="551" 
d="M414 344q42 -20 64 -58t22 -89q0 -24 -4 -45q-17 -94 -80 -140t-165 -46h-235l129 732h187q87 0 137.5 -47.5t50.5 -123.5q0 -23 -4 -42q-17 -100 -102 -141zM281 382q53 0 87.5 27.5t44.5 79.5q2 18 2 25q0 44 -27.5 70.5t-77.5 26.5h-82l-40 -229h93zM394 192
q0 48 -28.5 78t-83.5 30h-109l-43 -247h119q62 0 97 25.5t45 80.5q3 17 3 33z" />
    <glyph glyph-name="C" unicode="C" horiz-adv-x="543" 
d="M245 554.5q-54 -64.5 -78 -200.5q-11 -64 -11 -112q0 -94 36 -145t100 -51q87 0 141 104l73 -47q-36 -74 -93 -111t-130 -37q-110 0 -171.5 72t-61.5 207q0 57 12 124q31 180 116.5 266t202.5 86q87 0 138 -45t57 -124l-85 -44q-6 57 -38 89.5t-84 32.5q-70 0 -124 -64.5
z" />
    <glyph glyph-name="D" unicode="D" horiz-adv-x="602" 
d="M324 698q119 0 184 -75t65 -206q0 -54 -10 -110q-30 -169 -120 -255t-233 -86h-194l129 732h179zM467 416q0 196 -167 196h-71l-98 -559h72q103 0 166.5 61t87.5 197q10 54 10 105z" />
    <glyph glyph-name="E" unicode="E" horiz-adv-x="498" 
d="M145 698h377l-15 -87h-278l-40 -224h249l-15 -88h-249l-43 -246h287l-16 -87h-386z" />
    <glyph glyph-name="F" unicode="F" horiz-adv-x="473" 
d="M145 698h377l-15 -87h-278l-42 -238h249l-16 -87h-248l-57 -320h-99z" />
    <glyph glyph-name="G" unicode="G" horiz-adv-x="587" 
d="M446 262h-114l16 88h212l-53 -299q-72 -96 -203 -96q-116 0 -184.5 74.5t-68.5 214.5q0 51 11 115q32 176 120 263.5t207 87.5q89 0 141.5 -47t57.5 -123l-89 -47q-3 54 -33 90t-87 36q-75 0 -132 -65.5t-81 -197.5q-10 -56 -10 -105q0 -101 42 -153.5t114 -52.5
q62 0 103 41z" />
    <glyph glyph-name="H" unicode="H" horiz-adv-x="627" 
d="M190 390h289l54 308h100l-129 -732h-100l59 335h-289l-59 -335h-99l129 732h99z" />
    <glyph glyph-name="I" unicode="I" horiz-adv-x="239" 
d="M115 -34h-99l129 732h99z" />
    <glyph glyph-name="J" unicode="J" horiz-adv-x="417" 
d="M-21 89l89 50q7 -50 23.5 -71.5t48.5 -21.5q42 0 64.5 35.5t35.5 107.5l90 509h101l-92 -522q-21 -113 -66.5 -167t-134.5 -54q-142 0 -159 134z" />
    <glyph glyph-name="K" unicode="K" horiz-adv-x="584" 
d="M509 698h124l-274 -290l168 -442h-117l-130 358l-125 -131l-40 -227h-99l129 732h99l-48 -276l-8 -41l-8 -40l87 95z" />
    <glyph glyph-name="L" unicode="L" horiz-adv-x="471" 
d="M145 698h99l-113 -643h277l-16 -89h-376z" />
    <glyph glyph-name="M" unicode="M" horiz-adv-x="716" 
d="M644 698h78l-129 -732h-97l89 502l-215 -305h-54l-113 325l-93 -522h-94l129 732h81l136 -413z" />
    <glyph glyph-name="N" unicode="N" horiz-adv-x="619" 
d="M226 698l211 -539l95 539h92l-129 -732h-81l-211 534l-95 -534h-92l129 732h81z" />
    <glyph glyph-name="O" unicode="O" horiz-adv-x="631" 
d="M175 624q82 86 200 86q109 0 169 -71t60 -203q0 -57 -12 -126q-33 -186 -114.5 -270.5t-199.5 -84.5q-110 0 -169.5 69.5t-59.5 201.5q0 58 12 128q32 184 114 270zM154 230q0 -90 34 -137t100 -47q75 0 124.5 63t74.5 204q12 66 12 118q0 91 -34 139.5t-100 48.5
q-74 0 -124 -64t-75 -204q-12 -67 -12 -121z" />
    <glyph glyph-name="P" unicode="P" horiz-adv-x="513" 
d="M325 698q97 0 149.5 -52.5t52.5 -140.5q0 -23 -5 -53q-18 -98 -84.5 -154.5t-171.5 -56.5h-102l-49 -275h-99l129 732h180zM421 495q0 54 -31 85.5t-85 31.5h-76l-50 -285h89q62 0 100.5 36t49.5 97q3 18 3 35z" />
    <glyph glyph-name="Q" unicode="Q" horiz-adv-x="634" 
d="M422 -7l146 -184h-125l-120 149q-15 -3 -45 -3q-110 0 -169.5 69.5t-59.5 201.5q0 58 12 128q32 184 114 270t200 86q109 0 169 -71t60 -203q0 -57 -12 -126q-43 -239 -170 -317zM412.5 109q49.5 63 74.5 204q12 66 12 118q0 91 -34 139.5t-100 48.5q-74 0 -124 -64
t-75 -204q-12 -67 -12 -121q0 -90 34 -137t100 -47q75 0 124.5 63z" />
    <glyph glyph-name="R" unicode="R" horiz-adv-x="538" 
d="M469 345q-42 -49 -106 -70l129 -309h-111l-117 293h-98l-51 -293h-99l129 732h179q96 0 150 -50t54 -135q0 -25 -4 -48q-13 -71 -55 -120zM422 505q0 50 -31.5 78.5t-88.5 28.5h-74l-46 -266h86q62 0 101 33.5t50 92.5q3 17 3 33z" />
    <glyph glyph-name="S" unicode="S" horiz-adv-x="481" 
d="M368 4q-59 -49 -150 -49q-96 0 -157 52.5t-68 139.5l87 46q8 -72 46.5 -110t96.5 -38q53 0 83 36q19 22 25 58q2 16 2 24q0 32 -15 57t-37 43t-61 45q-44 29 -71.5 52.5t-46.5 58t-19 80.5q0 22 4 42q16 85 78 129q57 40 139 40q86 0 136.5 -45.5t52.5 -117.5l-85 -45
q-16 118 -110 118q-43 0 -73 -24q-36 -29 -36 -84q0 -41 26.5 -68.5t81.5 -63.5q46 -30 74 -54t48 -60t20 -86q0 -21 -5 -49q-16 -82 -66 -127z" />
    <glyph glyph-name="T" unicode="T" horiz-adv-x="489" 
d="M88 698h463l-14 -88h-183l-113 -644h-100l113 644h-182z" />
    <glyph glyph-name="U" unicode="U" horiz-adv-x="614" 
d="M527 698h99l-81 -471q-25 -143 -94 -207.5t-184 -64.5q-213 0 -213 213q0 45 9 99l74 431h100l-73 -420q-9 -51 -9 -90q0 -72 30 -107t91 -35q66 0 109 46.5t63 159.5z" />
    <glyph glyph-name="V" unicode="V" horiz-adv-x="586" 
d="M194 698l74 -577l269 577h114l-362 -732h-93l-110 732h108z" />
    <glyph glyph-name="W" unicode="W" horiz-adv-x="852" 
d="M545 698l38 -562l228 562h104l-317 -733h-88l-44 527l-226 -527h-87l-66 733h103l37 -559l230 559h88z" />
    <glyph glyph-name="X" unicode="X" horiz-adv-x="574" 
d="M314 432l198 266h118l-277 -363l156 -369h-114l-112 281l-210 -281h-116l286 377l-149 355h113z" />
    <glyph glyph-name="Y" unicode="Y" horiz-adv-x="540" 
d="M292 376l201 322h112l-281 -431l-54 -301h-100l54 305l-140 427h113z" />
    <glyph glyph-name="Z" unicode="Z" horiz-adv-x="483" 
d="M105 610l16 88h407l-9 -53l-405 -590h314l-17 -89h-444l10 54l405 590h-277z" />
    <glyph glyph-name="bracketleft" unicode="[" horiz-adv-x="335" 
d="M166 781h242l-17 -94h-138l-129 -738h138l-17 -94h-242z" />
    <glyph glyph-name="backslash" unicode="\" horiz-adv-x="353" 
d="M83 698h97l110 -732h-96z" />
    <glyph glyph-name="bracketright" unicode="]" horiz-adv-x="335" 
d="M92 687l15 94h242l-163 -926h-242l16 94h138l132 738h-138z" />
    <glyph glyph-name="asciicircum" unicode="^" horiz-adv-x="439" 
d="M273 570l-146 -254h-94l220 383h84l85 -383h-94z" />
    <glyph glyph-name="underscore" unicode="_" horiz-adv-x="343" 
d="M-83 -203l15 86h343l-16 -86h-342z" />
    <glyph glyph-name="grave" unicode="`" horiz-adv-x="322" 
d="M215 713h96l34 -157h-66z" />
    <glyph glyph-name="a" unicode="a" horiz-adv-x="513" 
d="M493 485l-92 -519h-85q1 13 5 41l4 31q-55 -83 -145 -83q-71 0 -114.5 53t-43.5 149q0 36 8 86q23 132 86.5 193t145.5 61q47 0 80 -22.5t46 -71.5q6 21 20 82h85zM300.5 87.5q34.5 45.5 51.5 139.5q6 36 6 63q0 63 -26 91.5t-66 28.5q-49 0 -86 -42.5t-53 -134.5
q-6 -37 -6 -68q0 -60 23 -91.5t66 -31.5q56 0 90.5 45.5z" />
    <glyph glyph-name="b" unicode="b" horiz-adv-x="512" 
d="M430.5 444q43.5 -53 43.5 -149q0 -45 -8 -86q-23 -132 -86.5 -193t-144.5 -61q-101 0 -126 93q-6 -20 -20 -81h-85l134 758h95l-53 -301q53 73 136 73q71 0 114.5 -53zM316.5 84q36.5 43 52.5 134q7 36 7 70q0 59 -23 90t-66 31q-47 0 -85.5 -39.5t-55.5 -137.5
q-7 -38 -7 -71q0 -63 25.5 -91.5t66.5 -28.5q49 0 85.5 43z" />
    <glyph glyph-name="c" unicode="c" horiz-adv-x="410" 
d="M264 56q25 14 43 46l66 -43q-27 -55 -72.5 -79.5t-98.5 -24.5q-82 0 -130.5 53.5t-48.5 153.5q0 39 7 80q26 150 116 214q55 41 126 41q60 0 99 -32.5t47 -93.5l-78 -40q-8 41 -26.5 60t-49.5 19q-46 0 -82.5 -42t-53.5 -135q-6 -36 -6 -66q0 -61 24 -93t66 -32
q27 0 52 14z" />
    <glyph glyph-name="d" unicode="d" horiz-adv-x="513" 
d="M441 727h95l-135 -761h-85l3 20l3 24t3 28q-54 -83 -144 -83q-71 0 -114.5 53t-43.5 149q0 36 8 86q23 132 86.5 193t145.5 61q45 0 77 -20t46 -63zM295.5 82q38.5 40 55.5 138q7 38 7 71q0 63 -25.5 91t-65.5 28q-49 0 -86 -42.5t-53 -134.5q-7 -36 -7 -70
q0 -59 23.5 -90t66.5 -31q46 0 84.5 40z" />
    <glyph glyph-name="e" unicode="e" horiz-adv-x="435" 
d="M275 60.5q27 17.5 49 56.5l66 -49q-28 -57 -79 -85t-109 -28q-82 0 -132 54.5t-50 154.5q0 39 7 78q22 130 92.5 192.5t158.5 62.5q69 0 107.5 -36.5t38.5 -101.5q0 -82 -59.5 -121t-179.5 -39q-41 0 -64 2q-2 -24 -2 -33q0 -125 95 -125q34 0 61 17.5zM185.5 381
q-34.5 -30 -51.5 -103q35 -3 64 -3q65 0 96.5 18t31.5 60q0 58 -63 58q-43 0 -77.5 -30z" />
    <glyph glyph-name="f" unicode="f" horiz-adv-x="295" 
d="M376.5 726.5q25.5 -11.5 37.5 -29.5l-48 -70q-24 25 -55 25q-32 0 -52.5 -27.5t-32.5 -92.5l-8 -47h109l-15 -81h-108l-89 -499q-18 -99 -58 -144.5t-105 -45.5q-62 0 -96 36l49 78q13 -10 23 -14.5t21 -4.5q30 0 47 27t29 93l83 474h-72l15 81h72l10 59q18 103 67 148.5
t115 45.5q36 0 61.5 -11.5z" />
    <glyph glyph-name="g" unicode="g" horiz-adv-x="509" 
d="M493 485l-91 -513q-25 -141 -92 -199t-153 -58q-73 0 -123 38.5t-58 115.5l80 41q10 -57 37 -82t72 -25q57 0 92 41.5t51 134.5l9 47q-53 -71 -136 -71q-71 0 -114.5 53t-43.5 149q0 36 8 86q23 132 86.5 193t145.5 61q47 0 79.5 -22.5t46.5 -70.5q7 25 19 81h85z
M358 291q0 63 -25.5 91t-65.5 28q-49 0 -86 -42.5t-53 -134.5q-7 -36 -7 -70q0 -59 23.5 -90t66.5 -31q46 0 84.5 40t55.5 138q7 38 7 71z" />
    <glyph glyph-name="h" unicode="h" horiz-adv-x="490" 
d="M413.5 459q33.5 -38 33.5 -112q0 -35 -7 -71l-55 -310h-95l53 297q6 33 6 58q0 86 -67 86q-45 0 -81 -36t-49 -108l-53 -297h-95l135 761h95l-53 -299q28 34 64 51.5t76 17.5q59 0 92.5 -38z" />
    <glyph glyph-name="i" unicode="i" horiz-adv-x="212" 
d="M127 591q-18 19 -18 45t18 44.5t43 18.5t43.5 -18.5t18.5 -44.5t-18 -45t-44 -19q-25 0 -43 19zM100 -34h-95l92 519h95z" />
    <glyph glyph-name="j" unicode="j" horiz-adv-x="202" 
d="M123 591q-18 19 -18 45t18 44.5t43 18.5q26 0 44.5 -18.5t18.5 -44.5t-18.5 -45t-44.5 -19q-25 0 -43 19zM-154.5 -274q-27.5 11 -40.5 29l50 74q21 -25 55 -25q33 0 52 26.5t31 95.5l100 559h95l-101 -570q-19 -108 -64.5 -154t-113.5 -46q-36 0 -63.5 11z" />
    <glyph glyph-name="k" unicode="k" horiz-adv-x="466" 
d="M373 485h113l-196 -211l122 -308h-107l-88 231l-96 -102l-22 -129h-95l134 761h95l-63 -355q-19 -111 -27 -146q47 53 107 122z" />
    <glyph glyph-name="l" unicode="l" horiz-adv-x="211" 
d="M99 -34h-95l135 761h95z" />
    <glyph glyph-name="m" unicode="m" horiz-adv-x="711" 
d="M639.5 461.5q29.5 -35.5 29.5 -104.5q0 -35 -7 -71l-56 -320h-94l53 294q7 46 7 67q0 79 -55 79q-37 0 -68 -33.5t-42 -97.5l-55 -309h-94l52 294q7 46 7 70q0 76 -54 76q-39 0 -69 -34t-42 -101l-55 -305h-93l92 519h84q-5 -28 -8 -66q28 39 62 58.5t71 19.5
q41 0 69 -23t38 -66q29 45 66 67t79 22q53 0 82.5 -35.5z" />
    <glyph glyph-name="n" unicode="n" horiz-adv-x="490" 
d="M413.5 459q33.5 -38 33.5 -112q0 -35 -7 -71l-55 -310h-95l53 297q6 33 6 59q0 85 -67 85q-44 0 -80 -34t-49 -104l-54 -303h-95l92 520h84q-4 -24 -8 -70q29 40 67.5 60.5t81.5 20.5q59 0 92.5 -38z" />
    <glyph glyph-name="o" unicode="o" horiz-adv-x="490" 
d="M120.5 435.5q66.5 61.5 153.5 61.5q83 0 131 -53t48 -152q0 -35 -8 -85q-23 -131 -90 -191.5t-154 -60.5q-83 0 -131 53t-48 151q0 35 8 83q24 132 90.5 193.5zM121 164q0 -61 24.5 -91.5t65.5 -30.5q46 0 83 41t53 133q7 39 7 74q0 60 -23.5 90t-64.5 30
q-46 0 -83.5 -41t-54.5 -137q-7 -45 -7 -68z" />
    <glyph glyph-name="p" unicode="p" horiz-adv-x="513" 
d="M431.5 444q43.5 -53 43.5 -150q0 -35 -8 -85q-23 -132 -86.5 -193t-145.5 -61q-94 0 -122 83l-56 -312h-95l134 759h83l-7 -73q29 45 66.5 65t78.5 20q71 0 114.5 -53zM317 84q37 43 53 134q7 36 7 70q0 59 -23 90t-66 31q-47 0 -85.5 -39.5t-55.5 -137.5q-7 -38 -7 -71
q0 -63 25.5 -91.5t66.5 -28.5q48 0 85 43z" />
    <glyph glyph-name="q" unicode="q" horiz-adv-x="513" 
d="M493 485l-134 -759h-95l53 301q-53 -72 -136 -72q-71 0 -114.5 53t-43.5 149q0 36 8 86q23 132 86.5 193t145.5 61q47 0 79.5 -22.5t46.5 -70.5q11 42 19 81h85zM295.5 82q38.5 40 55.5 138q7 38 7 71q0 63 -25.5 91t-65.5 28q-49 0 -86 -42.5t-53 -134.5q-7 -36 -7 -70
q0 -59 23.5 -90t66.5 -31q46 0 84.5 40z" />
    <glyph glyph-name="r" unicode="r" horiz-adv-x="340" 
d="M345.5 486q19.5 -11 27.5 -25l-49 -76q-21 23 -48 23q-42 0 -77.5 -42t-49.5 -120l-50 -280h-95l92 519h83l-3 -29q-4 -26 -5 -43q25 41 58.5 62.5t69.5 21.5q27 0 46.5 -11z" />
    <glyph glyph-name="s" unicode="s" horiz-adv-x="382" 
d="M276 -7q-49 -38 -122 -38q-71 0 -116.5 37t-50.5 103l77 40q5 -49 30.5 -72.5t63.5 -23.5q31 0 50 14t24 42q1 5 1 15q0 29 -19.5 47.5t-59.5 43.5q-50 29 -77 57.5t-27 77.5q0 15 3 31q10 60 54 94q46 36 118 36q66 0 106.5 -35.5t44.5 -91.5l-78 -39q-4 37 -24.5 60
t-54.5 23q-30 0 -49.5 -16.5t-19.5 -47.5q0 -25 18.5 -43t57.5 -41q35 -21 56.5 -38t37 -43t15.5 -61q0 -14 -3 -31q-10 -62 -56 -100z" />
    <glyph glyph-name="t" unicode="t" horiz-adv-x="329" 
d="M326 404h-126l-45 -250q-5 -32 -5 -49q0 -32 12.5 -48t39.5 -16q28 0 57 19l22 -74q-45 -31 -104 -31q-55 0 -89.5 30t-34.5 101q0 28 6 62l45 256h-73l14 82h74l26 148h95l-26 -148h126z" />
    <glyph glyph-name="u" unicode="u" horiz-adv-x="490" 
d="M60.5 -6.5q-33.5 38.5 -33.5 112.5q0 34 7 70l55 310h95l-52 -297q-6 -34 -6 -60q0 -85 67 -85q43 0 79 34t49 104l54 304h95l-92 -520h-84q7 38 8 70q-28 -41 -66.5 -61t-81.5 -20q-60 0 -93.5 38.5z" />
    <glyph glyph-name="v" unicode="v" horiz-adv-x="451" 
d="M144 485l55 -372l181 372h104l-270 -519h-78l-93 519h101z" />
    <glyph glyph-name="w" unicode="w" horiz-adv-x="681" 
d="M418 485l38 -363l160 363h98l-249 -519h-69l-48 337l-162 -337h-71l-72 519h96l39 -365l160 365h80z" />
    <glyph glyph-name="x" unicode="x" horiz-adv-x="430" 
d="M223 306l133 179h107l-206 -261l114 -258h-106l-72 180l-134 -180h-107l206 263l-114 256h106z" />
    <glyph glyph-name="y" unicode="y" horiz-adv-x="453" 
d="M199 94l186 391h101l-305 -608q-42 -84 -84 -123t-109 -39q-66 0 -98 38l49 75q24 -24 56 -24q30 0 52 21t52 77l32 60l-91 523h101z" />
    <glyph glyph-name="z" unicode="z" horiz-adv-x="369" 
d="M71 485h317l-9 -53l-281 -386h225l-15 -80h-347l10 54l282 386h-196z" />
    <glyph glyph-name="braceleft" unicode="{" horiz-adv-x="363" 
d="M434 781l-17 -94h-26q-39 0 -62.5 -26t-33.5 -84l-18 -102q-12 -71 -42 -107t-80 -48q70 -23 70 -114q0 -31 -5 -57l-18 -101q-4 -21 -4 -41q0 -33 16.5 -45.5t53.5 -12.5h19l-17 -94h-10q-86 0 -128.5 29t-42.5 99q0 26 6 59l19 107q5 32 5 48q0 41 -20 57t-65 18
l19 109q40 0 63.5 10.5t37 35.5t22.5 72l18 107q18 101 67.5 138t131.5 37h41z" />
    <glyph glyph-name="bar" unicode="|" horiz-adv-x="190" 
d="M-23 -145l164 926h88l-164 -926h-88z" />
    <glyph glyph-name="braceright" unicode="}" horiz-adv-x="364" 
d="M-53 -145l17 94h26q40 0 63.5 26t33.5 84l17 102q12 71 42 107t80 48q-70 23 -70 114q0 31 5 57l18 101q4 21 4 41q0 33 -16.5 45.5t-52.5 12.5h-20l17 94h10q86 0 128.5 -29t42.5 -99q0 -26 -6 -59l-18 -107q-5 -32 -5 -50q0 -39 20 -55t64 -18l-19 -109
q-39 0 -62.5 -10.5t-37.5 -35.5t-22 -72l-19 -107q-18 -101 -67.5 -138t-131.5 -37h-41z" />
    <glyph glyph-name="asciitilde" unicode="~" 
d="M20 243q15 78 59 130t108 52q36 0 56 -16t40 -45q15 -21 26 -31.5t28 -10.5q46 0 70 91h84q-15 -78 -59 -130t-108 -52q-37 0 -57 16t-39 45q-14 21 -25.5 31t-28.5 10q-24 0 -40.5 -22t-29.5 -68h-84z" />
    <glyph glyph-name="uni00A0" unicode="&#xa0;" horiz-adv-x="230" 
 />
    <glyph glyph-name="exclamdown" unicode="&#xa1;" horiz-adv-x="205" 
d="M177 478q19 -20 19 -47q0 -28 -19 -47.5t-45 -19.5q-28 0 -47 19.5t-19 47.5q0 27 19.5 47t46.5 20q26 0 45 -20zM142 270l-80 -544h-108l111 544h77z" />
    <glyph glyph-name="cent" unicode="&#xa2;" 
d="M293 164q54 9 83 54l60 -53q-51 -88 -157 -92l-20 -107h-89l21 116q-62 18 -96.5 68.5t-34.5 127.5q0 26 7 70q20 111 77 170t136 71l20 110h89l-20 -111q102 -17 121 -123l-78 -43q-12 60 -61 75zM157 286q0 -83 53 -111l56 320q-83 -28 -104 -153q-5 -26 -5 -56z" />
    <glyph glyph-name="sterling" unicode="&#xa3;" 
d="M238 505q-5 -29 -5 -64q0 -30 6 -80h144l-15 -84h-121q1 -25 -3 -52q-8 -51 -31.5 -94.5t-56.5 -74.5h275l-16 -90h-420l13 75q62 44 95 88.5t42 99.5q3 17 3 48h-100l15 84h75q-8 52 -8 85q0 30 6 66q18 100 74 149t135 49q59 0 97.5 -25t56.5 -65.5t16 -86.5l-88 -41
q-2 60 -23 92t-67 32q-80 0 -99 -111z" />
    <glyph glyph-name="currency" unicode="&#xa4;" 
d="M433 451q15 -36 15 -80q0 -22 -5 -50q-12 -67 -48 -116l53 -76l-77 -64l-50 72q-46 -26 -97 -26q-60 0 -100 35l-74 -71l-54 63l78 75q-15 36 -15 82q0 22 5 52q10 63 47 115l-53 74l77 64l49 -72q47 26 98 26q59 0 101 -34l74 70l53 -64zM353 364q0 46 -21.5 73
t-59.5 27q-41 0 -73.5 -32.5t-42.5 -91.5q-4 -28 -4 -39q0 -46 21.5 -73t59.5 -27q41 0 73.5 33t43.5 93q3 20 3 37z" />
    <glyph glyph-name="yen" unicode="&#xa5;" 
d="M277 429l171 269h113l-229 -340h124l-15 -79h-140l-12 -71h140l-13 -78h-141l-29 -164h-106l29 164h-136l14 78h135l13 71h-136l15 79h117l-118 340h119z" />
    <glyph glyph-name="brokenbar" unicode="&#xa6;" horiz-adv-x="190" 
d="M76 414l65 367h88l-65 -367h-88zM-23 -145l65 367h88l-65 -367h-88z" />
    <glyph glyph-name="section" unicode="&#xa7;" horiz-adv-x="522" 
d="M226 513q0 -41 29 -66.5t88 -56.5q47 -25 76 -45t49 -51.5t20 -75.5q0 -11 -4 -37q-10 -59 -46.5 -96.5t-92.5 -52.5q41 -46 41 -105q0 -20 -4 -39q-16 -89 -80.5 -131t-144.5 -42q-59 0 -103.5 23.5t-68.5 64t-25 88.5l92 38q3 -54 32 -87.5t82 -33.5q40 0 69.5 20.5
t37.5 64.5q2 14 2 20q0 29 -15.5 50t-38.5 36t-62 35q-47 24 -76 44t-49 51t-20 76q0 18 3 37q9 58 45 95.5t93 55.5q-39 42 -39 103q0 17 3 38q16 90 82 133t146 43q88 0 140 -49.5t53 -129.5l-91 -37q-4 58 -31 90.5t-79 32.5q-41 0 -72 -20.5t-39 -64.5q-2 -14 -2 -19z
M377 201q0 29 -15 49.5t-37.5 35.5t-60.5 34q-8 5 -24 13h-4q-41 -2 -71 -24.5t-38 -65.5q-2 -14 -2 -20q0 -40 28.5 -65t86.5 -54q6 -4 11 -6.5l9 -4.5h4q42 2 72 24t39 65q2 14 2 19z" />
    <glyph glyph-name="dieresis" unicode="&#xa8;" horiz-adv-x="382" 
d="M118.5 590q-18.5 19 -18.5 45t18.5 45t43.5 19q26 0 44.5 -19t18.5 -45t-18.5 -45t-44.5 -19q-25 0 -43.5 19zM304 590q-18 19 -18 45t18 45t44 19t44.5 -19t18.5 -45t-18.5 -45t-44.5 -19t-44 19z" />
    <glyph glyph-name="copyright" unicode="&#xa9;" horiz-adv-x="731" 
d="M572 673.5q62 -36.5 96 -105t34 -160.5q0 -45 -9 -95q-20 -116 -74 -196.5t-130.5 -121t-164.5 -40.5q-82 0 -143.5 37t-95 105t-33.5 159q0 45 9 96q20 116 74 196.5t130 121t162 40.5q83 0 145 -36.5zM620 403q0 107 -53.5 169t-146.5 62q-66 0 -124 -33.5t-98.5 -98.5
t-57.5 -158q-8 -46 -8 -83q0 -107 53 -169t147 -62q66 0 124 33t99 98t57 157q8 48 8 85zM496.5 521q32.5 -24 37.5 -70l-69 -40q-9 54 -56 54q-37 0 -65 -30.5t-39 -96.5q-5 -30 -5 -48q0 -45 18 -68t49 -23q42 0 68 44l55 -42q-21 -42 -57.5 -62t-76.5 -20
q-60 0 -99.5 44.5t-39.5 123.5q0 32 5 58q18 101 73 150.5t123 49.5q46 0 78.5 -24z" />
    <glyph glyph-name="ordfeminine" unicode="&#xaa;" horiz-adv-x="385" 
d="M415 698l-68 -387h-74l6 38q-21 -24 -47 -35t-52 -11q-53 0 -84 38t-31 108q0 24 7 68q17 99 63 144t108 45q65 0 89 -53l10 45h73zM262 403q25 28 38 99q5 33 5 51q0 44 -16.5 63t-40.5 19q-69 0 -91 -128q-5 -26 -5 -54q0 -78 55 -78q30 0 55 28z" />
    <glyph glyph-name="guillemotleft" unicode="&#xab;" horiz-adv-x="496" 
d="M207 452h110l-204 -229l118 -220h-103l-120 225zM408 452h110l-205 -229l119 -220h-103l-121 225z" />
    <glyph glyph-name="logicalnot" unicode="&#xac;" 
d="M375 317h-336l15 91h428l-50 -286h-91z" />
    <glyph glyph-name="uni00AD" unicode="&#xad;" horiz-adv-x="385" 
d="M51 285l15 86h295l-15 -86h-295z" />
    <glyph glyph-name="registered" unicode="&#xae;" horiz-adv-x="471" 
d="M100.5 608q27.5 47 74 74.5t102.5 27.5t103 -27.5t74.5 -74.5t27.5 -103t-27.5 -102.5t-74.5 -74t-103 -27.5t-102.5 27.5t-74 74t-27.5 102.5t27.5 103zM145.5 427.5q20.5 -35.5 55 -56t76.5 -20.5q43 0 78 21t55 56.5t20 78.5q0 42 -20.5 77t-55.5 55t-77 20t-77 -20.5
t-55 -55.5t-20 -78q0 -42 20.5 -77.5zM180 396l39 221h82q36 0 55 -16.5t19 -43.5q0 -55 -56 -72l43 -89h-55l-37 85h-25l-15 -85h-50zM284 523q41 0 41 28q0 23 -34 23h-30l-9 -51h32z" />
    <glyph glyph-name="macron" unicode="&#xaf;" horiz-adv-x="345" 
d="M171 594l14 80h245l-14 -80h-245z" />
    <glyph glyph-name="degree" unicode="&#xb0;" horiz-adv-x="324" 
d="M99 735q20 35 54.5 55.5t76.5 20.5q43 0 77.5 -20t54 -55t19.5 -78q0 -42 -19.5 -76.5t-54 -54.5t-77.5 -20q-42 0 -76.5 20t-54.5 54.5t-20 76.5t20 77zM176.5 601q20.5 -22 53.5 -22q34 0 55 22t21 57q0 36 -21 58.5t-55 22.5q-33 0 -53.5 -22.5t-20.5 -58.5
q0 -35 20.5 -57z" />
    <glyph glyph-name="plusminus" unicode="&#xb1;" 
d="M261 609h91l-29 -159h168l-16 -91h-168l-28 -159h-90l28 159h-169l16 91h168zM438 150l-15 -91h-427l15 91h427z" />
    <glyph glyph-name="uni00B2" unicode="&#xb2;" horiz-adv-x="273" 
d="M299 674.5q-15 -27.5 -47 -64.5l-92 -110h132l-10 -61h-225l8 47l131 157q31 38 41.5 57.5t10.5 41.5q0 30 -27 30q-33 0 -62 -61l-48 36q40 89 123 89q44 0 65.5 -24.5t21.5 -60.5q0 -7 -2 -23q-5 -26 -20 -53.5z" />
    <glyph glyph-name="uni00B3" unicode="&#xb3;" horiz-adv-x="272" 
d="M253 641q43 -24 43 -75q0 -13 -3 -28q-9 -53 -43 -79t-81 -26q-48 0 -76.5 26.5t-28.5 70.5l55 23q3 -58 51 -58q42 0 52 48q1 6 1 16q0 24 -14.5 37.5t-43.5 13.5h-15l10 58h19q29 0 47 20t18 49q0 17 -8 27t-24 10q-35 0 -59 -52l-47 35q18 39 49 59t69 20q43 0 68 -25
t25 -66q0 -16 -2 -24q-12 -61 -62 -80z" />
    <glyph glyph-name="acute" unicode="&#xb4;" horiz-adv-x="255" 
d="M154 556l83 157h98l-107 -157h-74z" />
    <glyph glyph-name="uni00B5" unicode="&#xb5;" horiz-adv-x="514" 
d="M413 107q-3 -16 -3 -28q0 -18 7 -26t22 -8q12 0 24 5l-3 -81q-26 -14 -63 -14q-77 0 -82 76q-50 -76 -132 -76q-52 0 -79 31l-46 -260h-96l134 759h96l-56 -317q-4 -21 -4 -43q0 -80 71 -80q42 0 75.5 30.5t49.5 95.5l56 314h95z" />
    <glyph glyph-name="paragraph" unicode="&#xb6;" horiz-adv-x="528" 
d="M290 699h92l-130 -733h-82l74 419q-74 0 -113.5 33t-39.5 94q0 20 4 39q25 148 195 148zM405 -34h-81l130 733h81z" />
    <glyph glyph-name="periodcentered" unicode="&#xb7;" horiz-adv-x="242" 
d="M88.5 283q-18.5 20 -18.5 47q0 28 18.5 47.5t45.5 19.5q28 0 47 -19.5t19 -47.5q0 -27 -19.5 -47t-46.5 -20t-45.5 20z" />
    <glyph glyph-name="cedilla" unicode="&#xb8;" horiz-adv-x="259" 
d="M63 -98q37 -6 58.5 -28.5t21.5 -54.5q0 -11 -1 -16q-7 -42 -43 -65t-84 -23q-39 0 -76 11l12 64q31 -11 58 -11q24 0 37.5 9t13.5 26q0 18 -23.5 25.5t-61.5 4.5v41l57 108h79z" />
    <glyph glyph-name="uni00B9" unicode="&#xb9;" horiz-adv-x="231" 
d="M107 697l14 76l95 57h56l-69 -391h-70l53 303z" />
    <glyph glyph-name="ordmasculine" unicode="&#xba;" horiz-adv-x="374" 
d="M139.5 661.5q49.5 44.5 113.5 44.5q62 0 99.5 -41t37.5 -116q0 -28 -6 -60q-17 -98 -66 -142t-112 -44t-101 41t-38 117q0 28 6 59q17 97 66.5 141.5zM153 458q0 -42 15 -62.5t41 -20.5q67 0 89 122q5 25 5 54q0 42 -15 63t-42 21q-30 0 -53 -28.5t-35 -94.5
q-5 -25 -5 -54z" />
    <glyph glyph-name="guillemotright" unicode="&#xbb;" horiz-adv-x="496" 
d="M50 452h103l121 -225l-200 -224h-110l205 229zM251 452h103l120 -225l-199 -224h-110l204 229z" />
    <glyph glyph-name="onequarter" unicode="&#xbc;" horiz-adv-x="649" 
d="M84 567l14 76l95 57h56l-69 -391h-70l53 303zM640 699l-548 -733h-78l547 733h79zM576 202l-16 -91h48l-11 -59h-47l-15 -86h-64l15 86h-146l8 47l164 258h70l-157 -246h72l15 91h64z" />
    <glyph glyph-name="onehalf" unicode="&#xbd;" horiz-adv-x="674" 
d="M84 567l14 76l95 57h56l-69 -391h-70l53 303zM640 699l-548 -733h-78l547 733h79zM624.5 215.5q-14.5 -30.5 -54.5 -77.5l-93 -111h132l-10 -61h-224l8 47l130 158q32 37 42.5 56t10.5 43q0 30 -27 30q-33 0 -63 -61l-47 35q40 89 123 89q44 0 65.5 -24.5t21.5 -60.5
q0 -32 -14.5 -62.5z" />
    <glyph glyph-name="threequarters" unicode="&#xbe;" horiz-adv-x="687" 
d="M230 511q43 -24 43 -75q0 -13 -3 -28q-9 -53 -43 -79t-81 -26q-48 0 -76.5 26.5t-28.5 70.5l55 23q3 -58 51 -58q42 0 52 48q1 6 1 16q0 24 -14.5 37.5t-43.5 13.5h-15l10 58h19q29 0 47 20t18 49q0 17 -8 27t-24 10q-35 0 -59 -52l-47 35q18 39 49 59t69 20q43 0 68 -25
t25 -66q0 -16 -2 -24q-12 -61 -62 -80zM679 699l-549 -733h-78l548 733h79zM614 202l-15 -91h47l-10 -59h-48l-15 -86h-64l15 86h-146l8 47l165 258h70l-157 -246h71l16 91h63z" />
    <glyph glyph-name="questiondown" unicode="&#xbf;" horiz-adv-x="391" 
d="M281 478q19 -20 19 -47q0 -28 -19 -47.5t-46 -19.5q-28 0 -47 19.5t-19 47.5q0 27 19.5 47t46.5 20t46 -20zM330 -136q-34 -75 -94.5 -112t-128.5 -37q-76 0 -121.5 43.5t-45.5 112.5q0 12 4 38q10 56 37.5 90t75.5 73q37 30 59 53t38 59t18 86h84q1 -8 1 -24
q0 -57 -16 -97.5t-38 -66t-59 -57.5q-39 -34 -58.5 -58.5t-26.5 -61.5q-2 -16 -2 -23q0 -32 18 -50.5t51 -18.5q35 0 68.5 23.5t59.5 76.5z" />
    <glyph glyph-name="Agrave" unicode="&#xc0;" horiz-adv-x="596" 
d="M286 914h93l34 -141h-66zM415 699l116 -733h-107l-26 195h-239l-92 -195h-110l369 733h89zM386 252l-40 304l-144 -304h184z" />
    <glyph glyph-name="Aacute" unicode="&#xc1;" horiz-adv-x="596" 
d="M353 773l80 141h97l-102 -141h-75zM415 699l116 -733h-107l-26 195h-239l-92 -195h-110l369 733h89zM386 252l-40 304l-144 -304h184z" />
    <glyph glyph-name="Acircumflex" unicode="&#xc2;" horiz-adv-x="596" 
d="M371 914h77l76 -142h-81l-43 82l-71 -82h-88zM415 699l116 -733h-107l-26 195h-239l-92 -195h-110l369 733h89zM386 252l-40 304l-144 -304h184z" />
    <glyph glyph-name="Atilde" unicode="&#xc3;" horiz-adv-x="596" 
d="M247 785q28 121 98 121q18 0 31 -7.5t33 -24.5q8 -7 16 -13t14 -6q22 0 33 49h69q-13 -58 -38.5 -89.5t-60.5 -31.5q-18 0 -31.5 7.5t-29.5 21.5q-11 10 -18 14.5t-14 4.5q-12 0 -19.5 -11t-13.5 -35h-69zM415 699l116 -733h-107l-26 195h-239l-92 -195h-110l369 733h89z
M386 252l-40 304l-144 -304h184z" />
    <glyph glyph-name="Adieresis" unicode="&#xc4;" horiz-adv-x="596" 
d="M261.5 805q-18.5 19 -18.5 45q0 27 18 45.5t44 18.5t44.5 -18.5t18.5 -45.5q0 -26 -18.5 -45t-44.5 -19q-25 0 -43.5 19zM443 805q-18 19 -18 45q0 27 18 45.5t44 18.5t44.5 -18.5t18.5 -45.5q0 -26 -18.5 -45t-44.5 -19t-44 19zM415 699l116 -733h-107l-26 195h-239
l-92 -195h-110l369 733h89zM386 252l-40 304l-144 -304h184z" />
    <glyph glyph-name="Aring" unicode="&#xc5;" horiz-adv-x="596" 
d="M321.5 943.5q32.5 32.5 79.5 32.5q48 0 78.5 -31t30.5 -79q0 -47 -32 -78.5t-78 -31.5t-78.5 31t-32.5 78q0 46 32.5 78.5zM365.5 828q13.5 -15 35.5 -15q21 0 34.5 15t13.5 38t-13 37.5t-35 14.5t-35.5 -14.5t-13.5 -37.5t13.5 -38zM415 699l116 -733h-107l-26 195h-239
l-92 -195h-110l369 733h89zM386 252l-40 304l-144 -304h184z" />
    <glyph glyph-name="AE" unicode="&#xc6;" horiz-adv-x="851" 
d="M874 698l-15 -89h-278l-39 -222h248l-15 -89h-249l-42 -242h287l-17 -90h-387l36 204h-196l-141 -204h-109l510 732h407zM471 557l-202 -297h150z" />
    <glyph glyph-name="Ccedilla" unicode="&#xc7;" horiz-adv-x="543" 
d="M244.5 555q-53.5 -64 -77.5 -201q-11 -64 -11 -112q0 -94 36 -145t100 -51q87 0 140 104l74 -47q-35 -71 -89 -108t-123 -40l-28 -53q37 -6 58.5 -28.5t21.5 -54.5q0 -11 -1 -16q-7 -42 -43 -65t-84 -23q-39 0 -76 11l12 64q31 -11 58 -11q24 0 37.5 9t13.5 26
q0 18 -23.5 25.5t-61.5 4.5v41l41 77q-81 20 -125 89t-44 182q0 58 12 125q31 180 116.5 266t202.5 86q87 0 138 -45t57 -124l-85 -44q-6 57 -38 89.5t-84 32.5q-71 0 -124.5 -64z" />
    <glyph glyph-name="Egrave" unicode="&#xc8;" horiz-adv-x="498" 
d="M250 914h93l34 -141h-65zM145 698h377l-15 -87h-278l-40 -224h249l-15 -88h-249l-43 -246h287l-16 -87h-386z" />
    <glyph glyph-name="Eacute" unicode="&#xc9;" horiz-adv-x="498" 
d="M317 773l80 141h97l-102 -141h-75zM145 698h377l-15 -87h-278l-40 -224h249l-15 -88h-249l-43 -246h287l-16 -87h-386z" />
    <glyph glyph-name="Ecircumflex" unicode="&#xca;" horiz-adv-x="498" 
d="M336 914h76l76 -142h-81l-43 82l-71 -82h-88zM145 698h377l-15 -87h-278l-40 -224h249l-15 -88h-249l-43 -246h287l-16 -87h-386z" />
    <glyph glyph-name="Edieresis" unicode="&#xcb;" horiz-adv-x="498" 
d="M225.5 805q-18.5 19 -18.5 45q0 27 18 45.5t44 18.5t44.5 -18.5t18.5 -45.5q0 -26 -18 -45t-45 -19q-25 0 -43.5 19zM407.5 805q-18.5 19 -18.5 45q0 27 18 45.5t44 18.5t44.5 -18.5t18.5 -45.5q0 -26 -18.5 -45t-44.5 -19q-25 0 -43.5 19zM145 698h377l-15 -87h-278
l-40 -224h249l-15 -88h-249l-43 -246h287l-16 -87h-386z" />
    <glyph glyph-name="Igrave" unicode="&#xcc;" horiz-adv-x="239" 
d="M111 915h93l34 -142h-66zM115 -34h-99l129 732h99z" />
    <glyph glyph-name="Iacute" unicode="&#xcd;" horiz-adv-x="239" 
d="M178 773l80 142h97l-102 -142h-75zM115 -34h-99l129 732h99z" />
    <glyph glyph-name="Icircumflex" unicode="&#xce;" horiz-adv-x="239" 
d="M196 915h77l76 -142h-81l-43 81l-71 -81h-88zM115 -34h-99l129 732h99z" />
    <glyph glyph-name="Idieresis" unicode="&#xcf;" horiz-adv-x="239" 
d="M86.5 806q-18.5 19 -18.5 45t18.5 45t43.5 19q26 0 44.5 -19t18.5 -45t-18.5 -45t-44.5 -19q-25 0 -43.5 19zM268 806q-18 19 -18 45t18 45t44 19t44.5 -19t18.5 -45t-18.5 -45t-44.5 -19t-44 19zM115 -34h-99l129 732h99z" />
    <glyph glyph-name="Eth" unicode="&#xd0;" horiz-adv-x="619" 
d="M341 698q119 0 184 -75t65 -206q0 -54 -10 -110q-30 -169 -119.5 -255t-233.5 -86h-194l59 334h-78l17 92h77l54 306h179zM484 417q0 93 -40.5 144t-125.5 51h-72l-38 -220h106l-16 -92h-106l-44 -247h73q103 0 166 61t87 197q10 54 10 106z" />
    <glyph glyph-name="Ntilde" unicode="&#xd1;" horiz-adv-x="619" 
d="M255 786q30 121 99 121q18 0 31 -7.5t33 -24.5q8 -7 16 -13t14 -6q12 0 19.5 13t13.5 36h69q-13 -58 -38.5 -89.5t-60.5 -31.5q-19 0 -32.5 8t-28.5 22q-3 2 -10 7.5t-12 8t-10 2.5q-12 0 -20 -11t-14 -35h-69zM226 698l211 -539l95 539h92l-129 -732h-81l-211 534
l-95 -534h-92l129 732h81z" />
    <glyph glyph-name="Ograve" unicode="&#xd2;" horiz-adv-x="631" 
d="M306 914h93l34 -141h-65zM175 624q82 86 200 86q109 0 169 -71t60 -203q0 -57 -12 -126q-33 -186 -114.5 -270.5t-199.5 -84.5q-110 0 -169.5 69.5t-59.5 201.5q0 58 12 128q32 184 114 270zM154 230q0 -90 34 -137t100 -47q75 0 124.5 63t74.5 204q12 66 12 118
q0 91 -34 139.5t-100 48.5q-74 0 -124 -64t-75 -204q-12 -67 -12 -121z" />
    <glyph glyph-name="Oacute" unicode="&#xd3;" horiz-adv-x="631" 
d="M373 773l80 141h97l-102 -141h-75zM175 624q82 86 200 86q109 0 169 -71t60 -203q0 -57 -12 -126q-33 -186 -114.5 -270.5t-199.5 -84.5q-110 0 -169.5 69.5t-59.5 201.5q0 58 12 128q32 184 114 270zM154 230q0 -90 34 -137t100 -47q75 0 124.5 63t74.5 204
q12 66 12 118q0 91 -34 139.5t-100 48.5q-74 0 -124 -64t-75 -204q-12 -67 -12 -121z" />
    <glyph glyph-name="Ocircumflex" unicode="&#xd4;" horiz-adv-x="631" 
d="M392 914h76l76 -142h-81l-43 82l-71 -82h-88zM175 624q82 86 200 86q109 0 169 -71t60 -203q0 -57 -12 -126q-33 -186 -114.5 -270.5t-199.5 -84.5q-110 0 -169.5 69.5t-59.5 201.5q0 58 12 128q32 184 114 270zM154 230q0 -90 34 -137t100 -47q75 0 124.5 63t74.5 204
q12 66 12 118q0 91 -34 139.5t-100 48.5q-74 0 -124 -64t-75 -204q-12 -67 -12 -121z" />
    <glyph glyph-name="Otilde" unicode="&#xd5;" horiz-adv-x="631" 
d="M267 785q28 121 99 121q19 0 33.5 -9t30.5 -24q8 -7 15.5 -12.5t13.5 -5.5q21 0 34 49h68q-13 -58 -38 -89.5t-60 -31.5q-19 0 -33 8t-29 22q-20 18 -31 18q-12 0 -20 -11t-14 -35h-69zM175 624q82 86 200 86q109 0 169 -71t60 -203q0 -57 -12 -126
q-33 -186 -114.5 -270.5t-199.5 -84.5q-110 0 -169.5 69.5t-59.5 201.5q0 58 12 128q32 184 114 270zM154 230q0 -90 34 -137t100 -47q75 0 124.5 63t74.5 204q12 66 12 118q0 91 -34 139.5t-100 48.5q-74 0 -124 -64t-75 -204q-12 -67 -12 -121z" />
    <glyph glyph-name="Odieresis" unicode="&#xd6;" horiz-adv-x="631" 
d="M281.5 805q-18.5 19 -18.5 45q0 27 18 45.5t44 18.5t44.5 -18.5t18.5 -45.5q0 -26 -18 -45t-45 -19q-25 0 -43.5 19zM463.5 805q-18.5 19 -18.5 45q0 27 18 45.5t44 18.5t44.5 -18.5t18.5 -45.5q0 -26 -18.5 -45t-44.5 -19q-25 0 -43.5 19zM175 624q82 86 200 86
q109 0 169 -71t60 -203q0 -57 -12 -126q-33 -186 -114.5 -270.5t-199.5 -84.5q-110 0 -169.5 69.5t-59.5 201.5q0 58 12 128q32 184 114 270zM154 230q0 -90 34 -137t100 -47q75 0 124.5 63t74.5 204q12 66 12 118q0 91 -34 139.5t-100 48.5q-74 0 -124 -64t-75 -204
q-12 -67 -12 -121z" />
    <glyph glyph-name="multiply" unicode="&#xd7;" 
d="M267 393l157 133l53 -65l-157 -133l110 -133l-76 -65l-110 133l-157 -133l-53 65l157 133l-110 133l75 65z" />
    <glyph glyph-name="Oslash" unicode="&#xd8;" horiz-adv-x="633" 
d="M564 733h95l-91 -127q37 -68 37 -171q0 -57 -12 -125q-34 -186 -115.5 -270.5t-199.5 -84.5q-89 0 -144 45l-50 -68h-96l94 131q-33 66 -33 163q0 59 12 128q32 184 114 270t200 86q86 0 141 -44zM154 237q0 -37 6 -67l296 412q-34 37 -91 37q-74 0 -124.5 -64
t-75.5 -204q-11 -66 -11 -114zM499 424q0 40 -8 75l-296 -413q33 -40 94 -40q75 0 124.5 63t74.5 204q11 64 11 111z" />
    <glyph glyph-name="Ugrave" unicode="&#xd9;" horiz-adv-x="614" 
d="M298 914h93l34 -141h-66zM527 698h99l-81 -471q-25 -143 -94 -207.5t-184 -64.5q-213 0 -213 213q0 45 9 99l74 431h100l-73 -420q-9 -51 -9 -90q0 -72 30 -107t91 -35q66 0 109 46.5t63 159.5z" />
    <glyph glyph-name="Uacute" unicode="&#xda;" horiz-adv-x="614" 
d="M365 773l80 141h97l-103 -141h-74zM527 698h99l-81 -471q-25 -143 -94 -207.5t-184 -64.5q-213 0 -213 213q0 45 9 99l74 431h100l-73 -420q-9 -51 -9 -90q0 -72 30 -107t91 -35q66 0 109 46.5t63 159.5z" />
    <glyph glyph-name="Ucircumflex" unicode="&#xdb;" horiz-adv-x="614" 
d="M383 914h77l76 -142h-82l-42 82l-71 -82h-88zM527 698h99l-81 -471q-25 -143 -94 -207.5t-184 -64.5q-213 0 -213 213q0 45 9 99l74 431h100l-73 -420q-9 -51 -9 -90q0 -72 30 -107t91 -35q66 0 109 46.5t63 159.5z" />
    <glyph glyph-name="Udieresis" unicode="&#xdc;" horiz-adv-x="614" 
d="M273.5 805q-18.5 19 -18.5 45q0 27 18 45.5t44 18.5t44.5 -18.5t18.5 -45.5q0 -26 -18.5 -45t-44.5 -19q-25 0 -43.5 19zM455 805q-18 19 -18 45q0 27 18 45.5t44 18.5t44.5 -18.5t18.5 -45.5q0 -26 -18.5 -45t-44.5 -19t-44 19zM527 698h99l-81 -471
q-25 -143 -94 -207.5t-184 -64.5q-213 0 -213 213q0 45 9 99l74 431h100l-73 -420q-9 -51 -9 -90q0 -72 30 -107t91 -35q66 0 109 46.5t63 159.5z" />
    <glyph glyph-name="Yacute" unicode="&#xdd;" horiz-adv-x="540" 
d="M328 773l80 142h97l-102 -142h-75zM292 376l201 322h112l-281 -431l-54 -301h-100l54 305l-140 427h113z" />
    <glyph glyph-name="Thorn" unicode="&#xde;" horiz-adv-x="516" 
d="M305 563q97 0 149.5 -52.5t52.5 -140.5q0 -23 -5 -53q-18 -98 -84.5 -155t-171.5 -57h-103l-24 -139h-103l129 732h103l-24 -135h81zM401 361q0 54 -30.5 84.5t-85.5 30.5h-76l-50 -284h89q62 0 100 36t49 96q4 26 4 37z" />
    <glyph glyph-name="germandbls" unicode="&#xdf;" horiz-adv-x="505" 
d="M373 356q43 -21 65 -61t22 -95q0 -28 -4 -52q-17 -94 -75 -143.5t-143 -49.5q-58 0 -89 19l16 84q28 -16 68 -16q104 0 125 121q3 20 3 37q0 52 -28.5 82.5t-81.5 30.5h-32l15 84h24q106 0 128 120q4 20 4 43q0 42 -18 67t-58 25q-94 0 -122 -159l-93 -527h-95l97 545
q20 113 76.5 170t145.5 57q83 0 124.5 -48.5t41.5 -124.5q0 -23 -5 -53q-20 -115 -111 -156z" />
    <glyph glyph-name="agrave" unicode="&#xe0;" horiz-adv-x="513" 
d="M216 713h95l35 -158h-66zM493 485l-92 -519h-85q1 13 5 41l4 31q-55 -83 -145 -83q-71 0 -114.5 53t-43.5 149q0 36 8 86q23 132 86.5 193t145.5 61q47 0 80 -22.5t46 -71.5q6 21 20 82h85zM300.5 87.5q34.5 45.5 51.5 139.5q6 36 6 63q0 63 -26 91.5t-66 28.5
q-49 0 -86 -42.5t-53 -134.5q-6 -37 -6 -68q0 -60 23 -91.5t66 -31.5q56 0 90.5 45.5z" />
    <glyph glyph-name="aacute" unicode="&#xe1;" horiz-adv-x="513" 
d="M269 555l83 158h98l-107 -158h-74zM493 485l-92 -519h-85q1 13 5 41l4 31q-55 -83 -145 -83q-71 0 -114.5 53t-43.5 149q0 36 8 86q23 132 86.5 193t145.5 61q47 0 80 -22.5t46 -71.5q6 21 20 82h85zM300.5 87.5q34.5 45.5 51.5 139.5q6 36 6 63q0 63 -26 91.5t-66 28.5
q-49 0 -86 -42.5t-53 -134.5q-6 -37 -6 -68q0 -60 23 -91.5t66 -31.5q56 0 90.5 45.5z" />
    <glyph glyph-name="acircumflex" unicode="&#xe2;" horiz-adv-x="513" 
d="M299 713h76l76 -158h-83l-42 90l-70 -90h-88zM493 485l-92 -519h-85q1 13 5 41l4 31q-55 -83 -145 -83q-71 0 -114.5 53t-43.5 149q0 36 8 86q23 132 86.5 193t145.5 61q47 0 80 -22.5t46 -71.5q6 21 20 82h85zM300.5 87.5q34.5 45.5 51.5 139.5q6 36 6 63q0 63 -26 91.5
t-66 28.5q-49 0 -86 -42.5t-53 -134.5q-6 -37 -6 -68q0 -60 23 -91.5t66 -31.5q56 0 90.5 45.5z" />
    <glyph glyph-name="atilde" unicode="&#xe3;" horiz-adv-x="513" 
d="M176 571q28 121 99 121q19 0 33.5 -9t30.5 -24q8 -7 15.5 -12.5t13.5 -5.5q21 0 34 49h68q-13 -58 -38 -89.5t-60 -31.5q-19 0 -33 8t-29 22q-20 18 -31 18q-12 0 -20 -11t-14 -35h-69zM493 485l-92 -519h-85q1 13 5 41l4 31q-55 -83 -145 -83q-71 0 -114.5 53t-43.5 149
q0 36 8 86q23 132 86.5 193t145.5 61q47 0 80 -22.5t46 -71.5q6 21 20 82h85zM300.5 87.5q34.5 45.5 51.5 139.5q6 36 6 63q0 63 -26 91.5t-66 28.5q-49 0 -86 -42.5t-53 -134.5q-6 -37 -6 -68q0 -60 23 -91.5t66 -31.5q56 0 90.5 45.5z" />
    <glyph glyph-name="adieresis" unicode="&#xe4;" horiz-adv-x="513" 
d="M188 589q-18 19 -18 45t18 45t44 19t44.5 -19t18.5 -45t-18.5 -45t-44.5 -19t-44 19zM373.5 589q-18.5 19 -18.5 45t18.5 45t43.5 19q26 0 44.5 -19t18.5 -45t-18 -45t-45 -19q-25 0 -43.5 19zM493 485l-92 -519h-85q1 13 5 41l4 31q-55 -83 -145 -83q-71 0 -114.5 53
t-43.5 149q0 36 8 86q23 132 86.5 193t145.5 61q47 0 80 -22.5t46 -71.5q6 21 20 82h85zM300.5 87.5q34.5 45.5 51.5 139.5q6 36 6 63q0 63 -26 91.5t-66 28.5q-49 0 -86 -42.5t-53 -134.5q-6 -37 -6 -68q0 -60 23 -91.5t66 -31.5q56 0 90.5 45.5z" />
    <glyph glyph-name="aring" unicode="&#xe5;" horiz-adv-x="513" 
d="M231.5 731.5q32.5 32.5 79.5 32.5t78 -31t31 -79q0 -47 -32 -78.5t-78 -31.5t-78.5 31t-32.5 78q0 46 32.5 78.5zM275.5 616.5q13.5 -14.5 35.5 -14.5q21 0 34 14.5t13 37.5t-12.5 37.5t-34.5 14.5t-35.5 -14.5t-13.5 -37.5t13.5 -37.5zM493 485l-92 -519h-85q1 13 5 41
l4 31q-55 -83 -145 -83q-71 0 -114.5 53t-43.5 149q0 36 8 86q23 132 86.5 193t145.5 61q47 0 80 -22.5t46 -71.5q6 21 20 82h85zM300.5 87.5q34.5 45.5 51.5 139.5q6 36 6 63q0 63 -26 91.5t-66 28.5q-49 0 -86 -42.5t-53 -134.5q-6 -37 -6 -68q0 -60 23 -91.5t66 -31.5
q56 0 90.5 45.5z" />
    <glyph glyph-name="ae" unicode="&#xe6;" horiz-adv-x="719" 
d="M608 117l67 -49q-29 -57 -80 -85.5t-108 -28.5t-96 27.5t-56 80.5q-30 -53 -75.5 -80t-100.5 -27q-65 0 -105.5 36t-40.5 101q0 11 4 39q14 81 72.5 121t146.5 40q38 0 84 -8q3 23 3 42q0 44 -18.5 65t-56.5 21q-33 0 -58.5 -16.5t-44.5 -54.5l-66 43q27 55 75.5 84
t109.5 29q104 0 133 -84q63 84 166 84q68 0 106.5 -37t38.5 -102q0 -82 -58.5 -125t-172.5 -43q-37 0 -72 4q-1 -9 -1 -27q0 -65 25 -95t69 -30q68 0 110 75zM468 379q-35 -32 -52 -108q31 -4 63 -4q64 0 97.5 21.5t33.5 63.5q0 59 -63 59q-44 0 -79 -32zM307 208
q-36 6 -66 6q-110 0 -126 -91q-2 -16 -2 -22q0 -31 17 -48t44 -17q41 0 77 31.5t47 88.5z" />
    <glyph glyph-name="ccedilla" unicode="&#xe7;" horiz-adv-x="410" 
d="M264 56q25 14 43 46l66 -43q-25 -50 -64.5 -75t-86.5 -29l-29 -53q38 -6 59 -28t21 -55q0 -50 -37.5 -77t-90.5 -27q-39 0 -76 11l12 64q31 -11 58 -11q24 0 37.5 9t13.5 26q0 18 -23.5 25.5t-61.5 4.5v41l41 77q-58 17 -90.5 68.5t-32.5 132.5q0 40 7 79q26 150 116 214
q55 41 126 41q60 0 99 -32.5t47 -93.5l-78 -40q-8 41 -26.5 60t-49.5 19q-46 0 -82.5 -42t-53.5 -135q-6 -36 -6 -66q0 -61 24 -93t66 -32q27 0 52 14z" />
    <glyph glyph-name="egrave" unicode="&#xe8;" horiz-adv-x="435" 
d="M180 713h95l35 -158h-66zM275 60.5q27 17.5 49 56.5l66 -49q-28 -57 -79 -85t-109 -28q-82 0 -132 54.5t-50 154.5q0 39 7 78q22 130 92.5 192.5t158.5 62.5q69 0 107.5 -36.5t38.5 -101.5q0 -82 -59.5 -121t-179.5 -39q-41 0 -64 2q-2 -24 -2 -33q0 -125 95 -125
q34 0 61 17.5zM185.5 381q-34.5 -30 -51.5 -103q35 -3 64 -3q65 0 96.5 18t31.5 60q0 58 -63 58q-43 0 -77.5 -30z" />
    <glyph glyph-name="eacute" unicode="&#xe9;" horiz-adv-x="435" 
d="M233 555l83 158h98l-107 -158h-74zM275 60.5q27 17.5 49 56.5l66 -49q-28 -57 -79 -85t-109 -28q-82 0 -132 54.5t-50 154.5q0 39 7 78q22 130 92.5 192.5t158.5 62.5q69 0 107.5 -36.5t38.5 -101.5q0 -82 -59.5 -121t-179.5 -39q-41 0 -64 2q-2 -24 -2 -33
q0 -125 95 -125q34 0 61 17.5zM185.5 381q-34.5 -30 -51.5 -103q35 -3 64 -3q65 0 96.5 18t31.5 60q0 58 -63 58q-43 0 -77.5 -30z" />
    <glyph glyph-name="ecircumflex" unicode="&#xea;" horiz-adv-x="435" 
d="M263 713h76l76 -158h-83l-42 90l-70 -90h-88zM275 60.5q27 17.5 49 56.5l66 -49q-28 -57 -79 -85t-109 -28q-82 0 -132 54.5t-50 154.5q0 39 7 78q22 130 92.5 192.5t158.5 62.5q69 0 107.5 -36.5t38.5 -101.5q0 -82 -59.5 -121t-179.5 -39q-41 0 -64 2q-2 -24 -2 -33
q0 -125 95 -125q34 0 61 17.5zM185.5 381q-34.5 -30 -51.5 -103q35 -3 64 -3q65 0 96.5 18t31.5 60q0 58 -63 58q-43 0 -77.5 -30z" />
    <glyph glyph-name="edieresis" unicode="&#xeb;" horiz-adv-x="435" 
d="M152 589q-18 19 -18 45t18 45t44 19t44.5 -19t18.5 -45t-18.5 -45t-44.5 -19t-44 19zM337.5 589q-18.5 19 -18.5 45t18.5 45t43.5 19q26 0 44.5 -19t18.5 -45t-18 -45t-45 -19q-25 0 -43.5 19zM275 60.5q27 17.5 49 56.5l66 -49q-28 -57 -79 -85t-109 -28
q-82 0 -132 54.5t-50 154.5q0 39 7 78q22 130 92.5 192.5t158.5 62.5q69 0 107.5 -36.5t38.5 -101.5q0 -82 -59.5 -121t-179.5 -39q-41 0 -64 2q-2 -24 -2 -33q0 -125 95 -125q34 0 61 17.5zM185.5 381q-34.5 -30 -51.5 -103q35 -3 64 -3q65 0 96.5 18t31.5 60q0 58 -63 58
q-43 0 -77.5 -30z" />
    <glyph glyph-name="igrave" unicode="&#xec;" horiz-adv-x="212" 
d="M62 713h95l34 -157h-65zM5 -34l92 519h95l-92 -519h-95z" />
    <glyph glyph-name="iacute" unicode="&#xed;" horiz-adv-x="212" 
d="M115 556l83 157h97l-106 -157h-74zM5 -34l92 519h95l-92 -519h-95z" />
    <glyph glyph-name="icircumflex" unicode="&#xee;" horiz-adv-x="212" 
d="M144 713h77l75 -157h-82l-42 90l-70 -90h-88zM5 -34l92 519h95l-92 -519h-95z" />
    <glyph glyph-name="idieresis" unicode="&#xef;" horiz-adv-x="212" 
d="M34 590q-18 19 -18 45t18 45t44 19t44.5 -19t18.5 -45t-18.5 -45t-44.5 -19t-44 19zM219.5 590q-18.5 19 -18.5 45t18.5 45t43.5 19q26 0 44.5 -19t18.5 -45t-18.5 -45t-44.5 -19q-25 0 -43.5 19zM5 -34l92 519h95l-92 -519h-95z" />
    <glyph glyph-name="eth" unicode="&#xf0;" horiz-adv-x="503" 
d="M450 739l33 -65l-102 -57q86 -111 86 -274q0 -62 -12 -128q-24 -137 -90.5 -198.5t-154.5 -61.5q-86 0 -135.5 53t-49.5 152q0 35 8 81q24 130 92 190.5t151 60.5q53 0 85 -23q-23 63 -58 104l-129 -72l-31 65l105 59q-24 21 -69 47l51 67q54 -28 99 -68zM357 285
q0 59 -22.5 88.5t-62.5 29.5q-47 0 -84 -41t-53 -131q-6 -37 -6 -67q0 -60 23.5 -90t63.5 -30q47 0 82.5 41t51.5 131q7 46 7 69z" />
    <glyph glyph-name="ntilde" unicode="&#xf1;" horiz-adv-x="490" 
d="M156 572q28 120 98 120q19 0 32.5 -8t31.5 -24q20 -18 30 -18q22 0 33 49h69q-13 -58 -38.5 -89.5t-60.5 -31.5q-18 0 -31.5 7.5t-29.5 21.5q-11 10 -18 14.5t-14 4.5q-12 0 -19.5 -11t-13.5 -35h-69zM413.5 459q33.5 -38 33.5 -112q0 -35 -7 -71l-55 -310h-95l53 297
q6 33 6 59q0 85 -67 85q-44 0 -80 -34t-49 -104l-54 -303h-95l92 520h84q-4 -24 -8 -70q29 40 67.5 60.5t81.5 20.5q59 0 92.5 -38z" />
    <glyph glyph-name="ograve" unicode="&#xf2;" horiz-adv-x="490" 
d="M200 713h96l34 -158h-66zM120.5 435.5q66.5 61.5 153.5 61.5q83 0 131 -53t48 -152q0 -35 -8 -85q-23 -131 -90 -191.5t-154 -60.5q-83 0 -131 53t-48 151q0 35 8 83q24 132 90.5 193.5zM121 164q0 -61 24.5 -91.5t65.5 -30.5q46 0 83 41t53 133q7 39 7 74q0 60 -23.5 90
t-64.5 30q-46 0 -83.5 -41t-54.5 -137q-7 -45 -7 -68z" />
    <glyph glyph-name="oacute" unicode="&#xf3;" horiz-adv-x="490" 
d="M253 555l83 158h98l-107 -158h-74zM120.5 435.5q66.5 61.5 153.5 61.5q83 0 131 -53t48 -152q0 -35 -8 -85q-23 -131 -90 -191.5t-154 -60.5q-83 0 -131 53t-48 151q0 35 8 83q24 132 90.5 193.5zM121 164q0 -61 24.5 -91.5t65.5 -30.5q46 0 83 41t53 133q7 39 7 74
q0 60 -23.5 90t-64.5 30q-46 0 -83.5 -41t-54.5 -137q-7 -45 -7 -68z" />
    <glyph glyph-name="ocircumflex" unicode="&#xf4;" horiz-adv-x="490" 
d="M283 713h76l76 -158h-83l-41 90l-70 -90h-89zM120.5 435.5q66.5 61.5 153.5 61.5q83 0 131 -53t48 -152q0 -35 -8 -85q-23 -131 -90 -191.5t-154 -60.5q-83 0 -131 53t-48 151q0 35 8 83q24 132 90.5 193.5zM121 164q0 -61 24.5 -91.5t65.5 -30.5q46 0 83 41t53 133
q7 39 7 74q0 60 -23.5 90t-64.5 30q-46 0 -83.5 -41t-54.5 -137q-7 -45 -7 -68z" />
    <glyph glyph-name="otilde" unicode="&#xf5;" horiz-adv-x="490" 
d="M160 571q30 121 99 121q18 0 31 -7.5t33 -24.5q8 -7 16 -13t14 -6q20 0 33 49h69q-14 -58 -39 -89.5t-60 -31.5q-19 0 -32.5 8t-28.5 22q-3 2 -10 7.5t-12 8t-10 2.5q-12 0 -20 -11t-14 -35h-69zM120.5 435.5q66.5 61.5 153.5 61.5q83 0 131 -53t48 -152q0 -35 -8 -85
q-23 -131 -90 -191.5t-154 -60.5q-83 0 -131 53t-48 151q0 35 8 83q24 132 90.5 193.5zM121 164q0 -61 24.5 -91.5t65.5 -30.5q46 0 83 41t53 133q7 39 7 74q0 60 -23.5 90t-64.5 30q-46 0 -83.5 -41t-54.5 -137q-7 -45 -7 -68z" />
    <glyph glyph-name="odieresis" unicode="&#xf6;" horiz-adv-x="490" 
d="M172.5 589q-18.5 19 -18.5 45t18.5 45t43.5 19q26 0 44.5 -19t18.5 -45t-18.5 -45t-44.5 -19q-25 0 -43.5 19zM358 589q-18 19 -18 45t18 45t44 19t44.5 -19t18.5 -45t-18.5 -45t-44.5 -19t-44 19zM120.5 435.5q66.5 61.5 153.5 61.5q83 0 131 -53t48 -152q0 -35 -8 -85
q-23 -131 -90 -191.5t-154 -60.5q-83 0 -131 53t-48 151q0 35 8 83q24 132 90.5 193.5zM121 164q0 -61 24.5 -91.5t65.5 -30.5q46 0 83 41t53 133q7 39 7 74q0 60 -23.5 90t-64.5 30q-46 0 -83.5 -41t-54.5 -137q-7 -45 -7 -68z" />
    <glyph glyph-name="divide" unicode="&#xf7;" 
d="M243 472q-19 20 -19 47t19 46.5t46 19.5t46 -19.5t19 -46.5t-19 -47t-46 -20t-46 20zM461 282h-427l15 92h428zM176 90.5q-19 19.5 -19 46.5q0 28 19 47.5t46 19.5t46 -19.5t19 -47.5q0 -27 -19 -46.5t-46 -19.5t-46 19.5z" />
    <glyph glyph-name="oslash" unicode="&#xf8;" horiz-adv-x="491" 
d="M416 520h85l-77 -103q29 -50 29 -126q0 -36 -8 -84q-23 -131 -90 -191.5t-154 -60.5q-62 0 -102 28l-38 -51h-85l76 100q-30 52 -30 127q0 35 8 83q24 132 90.5 193.5t153.5 61.5q61 0 103 -30zM118 171q0 -28 4 -45l198 266q-22 20 -55 20q-47 0 -86 -41.5t-56 -138.5
q-5 -27 -5 -61zM356 284q0 21 -3 39l-197 -264q21 -18 54 -18q48 0 86 41t54 134q6 39 6 68z" />
    <glyph glyph-name="ugrave" unicode="&#xf9;" horiz-adv-x="490" 
d="M198 714h96l34 -158h-66zM60.5 -6.5q-33.5 38.5 -33.5 112.5q0 34 7 70l55 310h95l-52 -297q-6 -34 -6 -60q0 -85 67 -85q43 0 79 34t49 104l54 304h95l-92 -520h-84q7 38 8 70q-28 -41 -66.5 -61t-81.5 -20q-60 0 -93.5 38.5z" />
    <glyph glyph-name="uacute" unicode="&#xfa;" horiz-adv-x="490" 
d="M252 556l82 158h98l-106 -158h-74zM60.5 -6.5q-33.5 38.5 -33.5 112.5q0 34 7 70l55 310h95l-52 -297q-6 -34 -6 -60q0 -85 67 -85q43 0 79 34t49 104l54 304h95l-92 -520h-84q7 38 8 70q-28 -41 -66.5 -61t-81.5 -20q-60 0 -93.5 38.5z" />
    <glyph glyph-name="ucircumflex" unicode="&#xfb;" horiz-adv-x="490" 
d="M281 714h77l75 -158h-83l-41 90l-70 -90h-88zM60.5 -6.5q-33.5 38.5 -33.5 112.5q0 34 7 70l55 310h95l-52 -297q-6 -34 -6 -60q0 -85 67 -85q43 0 79 34t49 104l54 304h95l-92 -520h-84q7 38 8 70q-28 -41 -66.5 -61t-81.5 -20q-60 0 -93.5 38.5z" />
    <glyph glyph-name="udieresis" unicode="&#xfc;" horiz-adv-x="490" 
d="M170.5 590q-18.5 19 -18.5 45t18.5 45t43.5 19q26 0 44.5 -19t18.5 -45t-18 -45t-45 -19q-25 0 -43.5 19zM356.5 590q-18.5 19 -18.5 45t18.5 45t43.5 19q26 0 44.5 -19t18.5 -45t-18.5 -45t-44.5 -19q-25 0 -43.5 19zM60.5 -6.5q-33.5 38.5 -33.5 112.5q0 34 7 70
l55 310h95l-52 -297q-6 -34 -6 -60q0 -85 67 -85q43 0 79 34t49 104l54 304h95l-92 -520h-84q7 38 8 70q-28 -41 -66.5 -61t-81.5 -20q-60 0 -93.5 38.5z" />
    <glyph glyph-name="yacute" unicode="&#xfd;" horiz-adv-x="453" 
d="M236 556l83 158h98l-107 -158h-74zM199 94l186 391h101l-305 -608q-42 -84 -84 -123t-109 -39q-66 0 -98 38l49 75q24 -24 56 -24q30 0 52 21t52 77l32 60l-91 523h101z" />
    <glyph glyph-name="thorn" unicode="&#xfe;" horiz-adv-x="511" 
d="M430 443.5q44 -53.5 44 -149.5q0 -35 -8 -85q-24 -133 -87.5 -193.5t-144.5 -60.5q-94 0 -123 81l-55 -311h-95l177 1002h96l-53 -299q53 69 135 69q70 0 114 -53.5zM315 84q37 42 54 134q6 38 6 68q0 61 -23.5 92t-66.5 31q-45 0 -84 -38t-56 -139q-7 -38 -7 -70
q0 -63 25.5 -91.5t65.5 -28.5q49 0 86 42z" />
    <glyph glyph-name="ydieresis" unicode="&#xff;" horiz-adv-x="453" 
d="M155 590q-18 19 -18 45t18 45t44 19t44.5 -19t18.5 -45t-18.5 -45t-44.5 -19t-44 19zM340.5 590q-18.5 19 -18.5 45t18.5 45t43.5 19q26 0 44.5 -19t18.5 -45t-18 -45t-45 -19q-25 0 -43.5 19zM199 94l186 391h101l-305 -608q-42 -84 -84 -123t-109 -39q-66 0 -98 38
l49 75q24 -24 56 -24q30 0 52 21t52 77l32 60l-91 523h101z" />
    <glyph glyph-name="Amacron" unicode="&#x100;" horiz-adv-x="596" 
d="M267 810l14 81h245l-14 -81h-245zM415 699l116 -733h-107l-26 195h-239l-92 -195h-110l369 733h89zM386 252l-40 304l-144 -304h184z" />
    <glyph glyph-name="amacron" unicode="&#x101;" horiz-adv-x="513" 
d="M196 593l15 81h245l-14 -81h-246zM493 485l-92 -519h-85l3 20l3 24t3 28q-54 -83 -144 -83q-71 0 -114.5 53t-43.5 149q0 36 8 86q23 132 86.5 193t145.5 61q47 0 80 -22.5t46 -71.5q10 36 19 82h85zM300.5 87.5q34.5 45.5 52.5 139.5q6 36 6 63q0 63 -26 91.5t-66 28.5
q-49 0 -86 -42.5t-53 -134.5q-7 -36 -7 -70q0 -59 23.5 -90t66.5 -31q55 0 89.5 45.5z" />
    <glyph glyph-name="Abreve" unicode="&#x102;" horiz-adv-x="596" 
d="M303 802.5q-30 30.5 -30 81.5q0 15 3 30h80q-1 -7 -1 -19q0 -54 40 -54q26 0 39 18.5t19 54.5h83q-9 -67 -46 -104.5t-103 -37.5q-54 0 -84 30.5zM415 699l116 -733h-107l-26 195h-239l-92 -195h-110l369 733h89zM386 252l-40 304l-144 -304h184z" />
    <glyph glyph-name="abreve" unicode="&#x103;" horiz-adv-x="513" 
d="M235.5 585.5q-28.5 31.5 -28.5 87.5q0 18 3 39h78q-2 -22 -2 -31q0 -56 37 -56q26 0 40 21.5t23 65.5h82q-12 -76 -50.5 -117t-102.5 -41q-51 0 -79.5 31.5zM493 485l-92 -519h-85q1 13 5 41l4 31q-55 -83 -145 -83q-71 0 -114.5 53t-43.5 149q0 36 8 86q23 132 86.5 193
t145.5 61q47 0 80 -22.5t46 -71.5q6 21 20 82h85zM300.5 87.5q34.5 45.5 51.5 139.5q6 36 6 63q0 63 -26 91.5t-66 28.5q-49 0 -86 -42.5t-53 -134.5q-6 -37 -6 -68q0 -60 23 -91.5t66 -31.5q56 0 90.5 45.5z" />
    <glyph glyph-name="Aogonek" unicode="&#x104;" horiz-adv-x="596" 
d="M545 -233q-49 -52 -106 -52q-44 0 -72 25t-28 69q0 46 24.5 85.5t66.5 71.5h-6l-26 195h-239l-92 -195h-110l369 733h89l116 -733q-110 -75 -110 -146q0 -17 9.5 -26t24.5 -9q27 0 61 31zM346 556l-144 -304h184z" />
    <glyph glyph-name="aogonek" unicode="&#x105;" horiz-adv-x="513" 
d="M386 -184l28 -49q-25 -27 -51 -39.5t-55 -12.5q-43 0 -71.5 25t-28.5 69q0 93 109 170q6 38 8 59q-55 -83 -145 -83q-71 0 -114.5 53t-43.5 149q0 36 8 86q23 132 86.5 193t145.5 61q47 0 80 -22.5t46 -71.5q6 21 20 82h85l-92 -519q-110 -75 -110 -145q0 -18 9 -27
t25 -9q27 0 61 31zM300.5 87.5q34.5 45.5 51.5 139.5q6 36 6 63q0 63 -26 91.5t-66 28.5q-49 0 -86 -42.5t-53 -134.5q-6 -37 -6 -68q0 -60 23 -91.5t66 -31.5q56 0 90.5 45.5z" />
    <glyph glyph-name="Cacute" unicode="&#x106;" horiz-adv-x="543" 
d="M364 773l81 142h97l-103 -142h-75zM244.5 555q-53.5 -64 -77.5 -201q-11 -64 -11 -112q0 -94 36 -145t100 -51q87 0 140 104l74 -47q-36 -74 -93 -111t-131 -37q-109 0 -170.5 71.5t-61.5 206.5q0 58 12 125q31 180 116.5 266t202.5 86q87 0 138 -45t57 -124l-85 -44
q-6 57 -38 89.5t-84 32.5q-71 0 -124.5 -64z" />
    <glyph glyph-name="cacute" unicode="&#x107;" horiz-adv-x="410" 
d="M242 556l83 158h98l-107 -158h-74zM264 56q25 14 43 46l66 -43q-27 -55 -72.5 -79.5t-98.5 -24.5q-82 0 -130.5 53.5t-48.5 153.5q0 39 7 80q26 150 116 214q55 41 126 41q60 0 99 -32.5t47 -93.5l-78 -40q-8 41 -26.5 60t-49.5 19q-46 0 -82.5 -42t-53.5 -135
q-6 -36 -6 -66q0 -61 24 -93t66 -32q27 0 52 14z" />
    <glyph glyph-name="Ccircumflex" unicode="&#x108;" horiz-adv-x="543" 
d="M383 915h76l77 -142h-82l-43 81l-71 -81h-88zM244.5 555q-53.5 -64 -77.5 -201q-11 -64 -11 -112q0 -94 36 -145t100 -51q87 0 140 104l74 -47q-36 -74 -93 -111t-131 -37q-109 0 -170.5 71.5t-61.5 206.5q0 58 12 125q31 180 116.5 266t202.5 86q87 0 138 -45t57 -124
l-85 -44q-6 57 -38 89.5t-84 32.5q-71 0 -124.5 -64z" />
    <glyph glyph-name="ccircumflex" unicode="&#x109;" horiz-adv-x="410" 
d="M272 714h76l76 -158h-83l-41 90l-70 -90h-89zM264 56q25 14 43 46l66 -43q-27 -55 -72.5 -79.5t-98.5 -24.5q-82 0 -130.5 53.5t-48.5 153.5q0 39 7 80q26 150 116 214q55 41 126 41q60 0 99 -32.5t47 -93.5l-78 -40q-8 41 -26.5 60t-49.5 19q-46 0 -82.5 -42t-53.5 -135
q-6 -36 -6 -66q0 -61 24 -93t66 -32q27 0 52 14z" />
    <glyph glyph-name="Cdotaccent" unicode="&#x10a;" horiz-adv-x="543" 
d="M362 804q-19 20 -19 47q0 28 19 47.5t46 19.5t46.5 -19.5t19.5 -47.5q0 -27 -19.5 -47t-46.5 -20t-46 20zM244.5 555q-53.5 -64 -77.5 -201q-11 -64 -11 -112q0 -94 36 -145t100 -51q87 0 140 104l74 -47q-36 -74 -93 -111t-131 -37q-109 0 -170.5 71.5t-61.5 206.5
q0 58 12 125q31 180 116.5 266t202.5 86q87 0 138 -45t57 -124l-85 -44q-6 57 -38 89.5t-84 32.5q-71 0 -124.5 -64z" />
    <glyph glyph-name="cdotaccent" unicode="&#x10b;" horiz-adv-x="410" 
d="M238 589q-19 20 -19 47q0 28 19 47.5t45 19.5q28 0 47 -19.5t19 -47.5q0 -27 -19.5 -47t-46.5 -20q-26 0 -45 20zM264 56q25 14 43 46l66 -43q-27 -55 -72.5 -79.5t-98.5 -24.5q-82 0 -130.5 53.5t-48.5 153.5q0 39 7 80q26 150 116 214q55 41 126 41q60 0 99 -32.5
t47 -93.5l-78 -40q-8 41 -26.5 60t-49.5 19q-46 0 -82.5 -42t-53.5 -135q-6 -36 -6 -66q0 -61 24 -93t66 -32q27 0 52 14z" />
    <glyph glyph-name="Ccaron" unicode="&#x10c;" horiz-adv-x="543" 
d="M361 915l42 -82l71 82h88l-130 -142h-77l-76 142h82zM244.5 555q-53.5 -64 -77.5 -201q-11 -64 -11 -112q0 -94 36 -145t100 -51q87 0 140 104l74 -47q-36 -74 -93 -111t-131 -37q-109 0 -170.5 71.5t-61.5 206.5q0 58 12 125q31 180 116.5 266t202.5 86q87 0 138 -45
t57 -124l-85 -44q-6 57 -38 89.5t-84 32.5q-71 0 -124.5 -64z" />
    <glyph glyph-name="ccaron" unicode="&#x10d;" horiz-adv-x="410" 
d="M253 714l42 -90l70 90h88l-130 -158h-77l-75 158h82zM264 56q25 14 43 46l66 -43q-27 -55 -72.5 -79.5t-98.5 -24.5q-82 0 -130.5 53.5t-48.5 153.5q0 39 7 80q26 150 116 214q55 41 126 41q60 0 99 -32.5t47 -93.5l-78 -40q-8 41 -26.5 60t-49.5 19q-46 0 -82.5 -42
t-53.5 -135q-6 -36 -6 -66q0 -61 24 -93t66 -32q27 0 52 14z" />
    <glyph glyph-name="Dcaron" unicode="&#x10e;" horiz-adv-x="601" 
d="M291 914l42 -81l71 81h88l-130 -142h-77l-76 142h82zM324 698q119 0 184 -75t65 -206q0 -54 -10 -110q-30 -169 -120 -255t-233 -86h-194l129 732h179zM467 416q0 196 -167 196h-71l-98 -559h72q103 0 166.5 61t87.5 197q10 54 10 105z" />
    <glyph glyph-name="dcaron" unicode="&#x10f;" horiz-adv-x="588" 
d="M681 722.5q13 -13.5 13 -42.5q0 -16 -2 -25q-9 -54 -47.5 -88t-93.5 -43l8 46q30 8 47.5 21t24.5 35h-6q-20 0 -31 11.5t-11 30.5q0 29 18.5 48.5t44.5 19.5q22 0 35 -13.5zM441 727h95l-135 -761h-85l3 20l3 24t3 28q-54 -83 -144 -83q-71 0 -114.5 53t-43.5 149
q0 36 8 86q23 132 86.5 193t145.5 61q45 0 77 -20t46 -63zM295.5 82q38.5 40 55.5 138q7 38 7 71q0 63 -25.5 91t-65.5 28q-49 0 -86 -42.5t-53 -134.5q-7 -36 -7 -70q0 -59 23.5 -90t66.5 -31q46 0 84.5 40z" />
    <glyph glyph-name="Dcroat" unicode="&#x110;" horiz-adv-x="619" 
d="M341 698q119 0 184 -75t65 -206q0 -54 -10 -110q-30 -169 -119.5 -255t-233.5 -86h-194l59 334h-78l17 92h77l54 306h179zM484 417q0 93 -40.5 144t-125.5 51h-72l-38 -220h106l-16 -92h-106l-44 -247h73q103 0 166 61t87 197q10 54 10 106z" />
    <glyph glyph-name="dcroat" unicode="&#x111;" horiz-adv-x="479" 
d="M523 636h73l-13 -79h-74l-105 -591h-85l9 72q-54 -83 -145 -83q-71 0 -114.5 53t-43.5 149q0 36 8 86q24 132 87.5 193t144.5 61q95 0 123 -83l26 143h-105l14 79h104l17 91h95zM361 290q0 63 -26 91.5t-66 28.5q-49 0 -86 -42.5t-53 -134.5q-6 -37 -6 -68
q0 -60 23 -91.5t66 -31.5q47 0 85.5 40t55.5 138q7 38 7 70z" />
    <glyph glyph-name="Emacron" unicode="&#x112;" horiz-adv-x="498" 
d="M231 810l14 81h245l-14 -81h-245zM145 698h377l-15 -87h-278l-40 -224h249l-15 -88h-249l-43 -246h287l-16 -87h-386z" />
    <glyph glyph-name="emacron" unicode="&#x113;" horiz-adv-x="435" 
d="M160 593l14 81h245l-14 -81h-245zM275 60.5q27 17.5 49 56.5l66 -49q-28 -57 -79 -85t-109 -28q-82 0 -132 54.5t-50 154.5q0 39 7 78q22 130 92.5 192.5t158.5 62.5q69 0 107.5 -36.5t38.5 -101.5q0 -82 -59.5 -121t-179.5 -39q-41 0 -64 2q-2 -24 -2 -33
q0 -125 95 -125q34 0 61 17.5zM185.5 381q-34.5 -30 -51.5 -103q35 -3 64 -3q65 0 96.5 18t31.5 60q0 58 -63 58q-43 0 -77.5 -30z" />
    <glyph glyph-name="Ebreve" unicode="&#x114;" horiz-adv-x="498" 
d="M267.5 802.5q-29.5 30.5 -29.5 80.5q0 15 3 31h79q-1 -6 -1 -18q0 -26 10 -40.5t30 -14.5q25 0 38.5 18.5t20.5 54.5h82q-9 -67 -46 -104.5t-103 -37.5q-54 0 -83.5 30.5zM145 698h377l-15 -87h-278l-40 -224h249l-15 -88h-249l-43 -246h287l-16 -87h-386z" />
    <glyph glyph-name="ebreve" unicode="&#x115;" horiz-adv-x="435" 
d="M199.5 585.5q-28.5 31.5 -28.5 87.5q0 18 3 39h78q-2 -22 -2 -31q0 -56 37 -56q26 0 40 21.5t23 65.5h82q-12 -76 -50.5 -117t-102.5 -41q-51 0 -79.5 31.5zM275 60.5q27 17.5 49 56.5l66 -49q-28 -57 -79 -85t-109 -28q-82 0 -132 54.5t-50 154.5q0 39 7 78
q22 130 92.5 192.5t158.5 62.5q69 0 107.5 -36.5t38.5 -101.5q0 -82 -59.5 -121t-179.5 -39q-41 0 -64 2q-2 -24 -2 -33q0 -125 95 -125q34 0 61 17.5zM185.5 381q-34.5 -30 -51.5 -103q35 -3 64 -3q65 0 96.5 18t31.5 60q0 58 -63 58q-43 0 -77.5 -30z" />
    <glyph glyph-name="Edotaccent" unicode="&#x116;" horiz-adv-x="498" 
d="M315 803.5q-19 19.5 -19 46.5q0 28 19 47.5t46 19.5t46 -19.5t19 -47.5q0 -27 -19 -46.5t-46 -19.5t-46 19.5zM145 698h377l-15 -87h-278l-40 -224h249l-15 -88h-249l-43 -246h287l-16 -87h-386z" />
    <glyph glyph-name="edotaccent" unicode="&#x117;" horiz-adv-x="435" 
d="M228.5 588q-18.5 20 -18.5 47q0 28 18.5 47.5t45.5 19.5q28 0 47 -19.5t19 -47.5q0 -27 -19.5 -47t-46.5 -20t-45.5 20zM275 60.5q27 17.5 49 56.5l66 -49q-28 -57 -79 -85t-109 -28q-82 0 -132 54.5t-50 154.5q0 39 7 78q22 130 92.5 192.5t158.5 62.5q69 0 107.5 -36.5
t38.5 -101.5q0 -82 -59.5 -121t-179.5 -39q-41 0 -64 2q-2 -24 -2 -33q0 -125 95 -125q34 0 61 17.5zM185.5 381q-34.5 -30 -51.5 -103q35 -3 64 -3q65 0 96.5 18t31.5 60q0 58 -63 58q-43 0 -77.5 -30z" />
    <glyph glyph-name="Eogonek" unicode="&#x118;" horiz-adv-x="498" 
d="M522 698l-15 -87h-278l-40 -224h249l-15 -88h-249l-43 -246h287l-16 -87q-110 -75 -110 -146q0 -17 9.5 -26t25.5 -9q27 0 60 31l29 -49q-49 -52 -106 -52q-43 0 -71.5 25t-28.5 69q0 85 92 157h-286l129 732h377z" />
    <glyph glyph-name="eogonek" unicode="&#x119;" horiz-adv-x="438" 
d="M278 60.5q27 17.5 50 56.5l66 -49q-25 -47 -65 -75q-55 -44 -83 -81t-35 -72q-1 -6 -1 -16q0 -39 33 -39q15 0 29.5 8t32.5 23l28 -49q-52 -52 -111 -52q-40 0 -67.5 24t-27.5 70q0 40 17.5 73.5t53.5 72.5q-80 3 -127.5 57.5t-47.5 153.5q0 38 7 76q23 130 93 192.5
t158 62.5q69 0 108 -36.5t39 -101.5q0 -82 -59.5 -121t-179.5 -39q-41 0 -64 2q-2 -26 -2 -35q0 -123 94 -123q34 0 61 17.5zM188.5 381q-34.5 -30 -51.5 -103q35 -3 64 -3q65 0 97 18t32 60q0 58 -64 58q-43 0 -77.5 -30z" />
    <glyph glyph-name="Ecaron" unicode="&#x11a;" horiz-adv-x="498" 
d="M313 914l43 -81l71 81h88l-130 -142h-77l-76 142h81zM145 698h377l-15 -87h-278l-40 -224h249l-15 -88h-249l-43 -246h287l-16 -87h-386z" />
    <glyph glyph-name="ecaron" unicode="&#x11b;" horiz-adv-x="435" 
d="M244 713l42 -90l70 90h88l-131 -158h-76l-76 158h83zM275 60.5q27 17.5 49 56.5l66 -49q-28 -57 -79 -85t-109 -28q-82 0 -132 54.5t-50 154.5q0 39 7 78q22 130 92.5 192.5t158.5 62.5q69 0 107.5 -36.5t38.5 -101.5q0 -82 -59.5 -121t-179.5 -39q-41 0 -64 2
q-2 -24 -2 -33q0 -125 95 -125q34 0 61 17.5zM185.5 381q-34.5 -30 -51.5 -103q35 -3 64 -3q65 0 96.5 18t31.5 60q0 58 -63 58q-43 0 -77.5 -30z" />
    <glyph glyph-name="Gcircumflex" unicode="&#x11c;" horiz-adv-x="587" 
d="M388 915h77l76 -142h-81l-43 81l-71 -81h-88zM447 262h-114l15 88h213l-53 -299q-73 -96 -204 -96q-115 0 -183.5 75t-68.5 216q0 54 10 113q21 118 69.5 197t115 116.5t143.5 37.5q89 0 141.5 -47t56.5 -123l-89 -47q-2 54 -32 90t-88 36q-74 0 -131.5 -65.5
t-81.5 -197.5q-10 -63 -10 -103q0 -103 42.5 -155.5t114.5 -52.5q62 0 103 41z" />
    <glyph glyph-name="gcircumflex" unicode="&#x11d;" horiz-adv-x="508" 
d="M348 556l-42 90l-70 -90h-88l130 157h77l75 -157h-82zM492 485l-91 -513q-25 -141 -92 -199t-152 -58q-74 0 -124 38.5t-57 115.5l79 41q10 -57 37 -82t72 -25q58 0 93 41.5t51 134.5l8 47q-53 -71 -136 -71q-71 0 -114.5 53t-43.5 149q0 36 8 86q23 132 86.5 193
t145.5 61q47 0 80 -22.5t46 -70.5q13 45 19 81h85zM358 289q0 64 -26 92.5t-66 28.5q-49 0 -86 -42.5t-53 -134.5q-6 -37 -6 -68q0 -60 23 -91.5t66 -31.5q46 0 84.5 40t56.5 138q7 46 7 69z" />
    <glyph glyph-name="Gbreve" unicode="&#x11e;" horiz-adv-x="587" 
d="M320 803.5q-30 30.5 -30 80.5q0 15 3 31h80q-1 -7 -1 -19q0 -54 40 -54q26 0 39 18.5t19 54.5h83q-9 -67 -46 -104.5t-103 -37.5q-54 0 -84 30.5zM447 262h-114l15 88h213l-53 -299q-73 -96 -204 -96q-115 0 -183.5 75t-68.5 216q0 54 10 113q21 118 69.5 197t115 116.5
t143.5 37.5q89 0 141.5 -47t56.5 -123l-89 -47q-2 54 -32 90t-88 36q-74 0 -131.5 -65.5t-81.5 -197.5q-10 -63 -10 -103q0 -103 42.5 -155.5t114.5 -52.5q62 0 103 41z" />
    <glyph glyph-name="gbreve" unicode="&#x11f;" horiz-adv-x="508" 
d="M215.5 586.5q-28.5 31.5 -28.5 87.5q0 18 3 39h78q-3 -18 -3 -32q0 -56 38 -56q25 0 39.5 22t23.5 66h82q-12 -76 -50.5 -117t-102.5 -41q-51 0 -79.5 31.5zM492 485l-91 -513q-25 -141 -92 -199t-152 -58q-74 0 -124 38.5t-57 115.5l79 41q10 -57 37 -82t72 -25
q58 0 93 41.5t51 134.5l8 47q-53 -71 -136 -71q-71 0 -114.5 53t-43.5 149q0 36 8 86q23 132 86.5 193t145.5 61q47 0 80 -22.5t46 -70.5q13 45 19 81h85zM358 289q0 64 -26 92.5t-66 28.5q-49 0 -86 -42.5t-53 -134.5q-6 -37 -6 -68q0 -60 23 -91.5t66 -31.5q46 0 84.5 40
t56.5 138q7 46 7 69z" />
    <glyph glyph-name="Gdotaccent" unicode="&#x120;" horiz-adv-x="587" 
d="M368 804q-19 20 -19 47q0 28 19 47.5t45 19.5q28 0 47 -19.5t19 -47.5q0 -27 -19.5 -47t-46.5 -20q-26 0 -45 20zM447 262h-114l15 88h213l-53 -299q-73 -96 -204 -96q-115 0 -183.5 75t-68.5 216q0 54 10 113q21 118 69.5 197t115 116.5t143.5 37.5q89 0 141.5 -47
t56.5 -123l-89 -47q-2 54 -32 90t-88 36q-74 0 -131.5 -65.5t-81.5 -197.5q-10 -63 -10 -103q0 -103 42.5 -155.5t114.5 -52.5q62 0 103 41z" />
    <glyph glyph-name="gdotaccent" unicode="&#x121;" horiz-adv-x="508" 
d="M244 589q-19 20 -19 47t19 46.5t46 19.5q28 0 47 -19.5t19 -46.5t-19.5 -47t-46.5 -20t-46 20zM492 485l-91 -513q-25 -141 -92 -199t-152 -58q-74 0 -124 38.5t-57 115.5l79 41q10 -57 37 -82t72 -25q58 0 93 41.5t51 134.5l8 47q-53 -71 -136 -71q-71 0 -114.5 53
t-43.5 149q0 36 8 86q23 132 86.5 193t145.5 61q47 0 80 -22.5t46 -70.5q13 45 19 81h85zM358 289q0 64 -26 92.5t-66 28.5q-49 0 -86 -42.5t-53 -134.5q-6 -37 -6 -68q0 -60 23 -91.5t66 -31.5q46 0 84.5 40t56.5 138q7 46 7 69z" />
    <glyph glyph-name="uni0122" unicode="&#x122;" horiz-adv-x="587" 
d="M446 262h-114l16 88h212l-53 -299q-72 -96 -203 -96q-116 0 -184.5 74.5t-68.5 214.5q0 51 11 115q32 176 120 263.5t207 87.5q89 0 141.5 -47t57.5 -123l-89 -47q-3 54 -33 90t-87 36q-75 0 -132 -65.5t-81 -197.5q-10 -56 -10 -105q0 -101 42 -153.5t114 -52.5
q62 0 103 41zM336.5 -87.5q15.5 -15.5 15.5 -46.5q0 -6 -2 -24q-10 -55 -51 -88t-103 -41l8 48q64 16 78 56h-6q-23 0 -35.5 12.5t-12.5 32.5q0 29 19.5 47.5t47.5 18.5q26 0 41.5 -15.5z" />
    <glyph glyph-name="uni0123" unicode="&#x123;" horiz-adv-x="508" 
d="M252 582q-15 16 -15 48q0 17 2 26q10 59 52.5 97t103.5 48l-9 -52q-62 -14 -79 -60h6q22 0 35 -14t13 -35q0 -30 -20.5 -52t-48.5 -22q-25 0 -40 16zM492 485l-91 -513q-25 -141 -92 -199t-152 -58q-74 0 -124 38.5t-57 115.5l79 41q10 -57 37 -82t72 -25q58 0 93 41.5
t51 134.5l8 47q-53 -71 -136 -71q-71 0 -114.5 53t-43.5 149q0 36 8 86q23 132 86.5 193t145.5 61q47 0 80 -22.5t46 -70.5q13 45 19 81h85zM358 289q0 64 -26 92.5t-66 28.5q-49 0 -86 -42.5t-53 -134.5q-6 -37 -6 -68q0 -60 23 -91.5t66 -31.5q46 0 84.5 40t56.5 138
q7 46 7 69z" />
    <glyph glyph-name="Hcircumflex" unicode="&#x124;" horiz-adv-x="627" 
d="M390 915h77l76 -142h-82l-42 81l-72 -81h-87zM190 390h289l54 308h100l-129 -732h-100l59 335h-289l-59 -335h-99l129 732h99z" />
    <glyph glyph-name="hcircumflex" unicode="&#x125;" horiz-adv-x="490" 
d="M177 925h83l92 -138h-97l-48 74l-73 -74h-97zM413.5 459q33.5 -38 33.5 -112q0 -35 -7 -71l-55 -310h-95l53 297q6 33 6 58q0 86 -67 86q-45 0 -81 -36t-49 -108l-53 -297h-95l135 761h95l-53 -299q28 34 64 51.5t76 17.5q59 0 92.5 -38z" />
    <glyph glyph-name="Hbar" unicode="&#x126;" horiz-adv-x="664" 
d="M653 698l-20 -112h63l-15 -85h-63l-94 -535h-105l59 334h-284l-59 -334h-103l95 535h-63l15 85h63l19 112h103l-19 -112h283l20 112h105zM230 501l-19 -109h283l20 109h-284z" />
    <glyph glyph-name="hbar" unicode="&#x127;" horiz-adv-x="503" 
d="M426.5 458.5q33.5 -38.5 33.5 -112.5q0 -34 -7 -70l-55 -310h-95l52 297q6 33 6 60q0 84 -67 84q-44 0 -80.5 -36t-49.5 -108l-52 -297h-95l105 591h-64l14 79h64l16 91h95l-17 -91h123l-14 -79h-122l-24 -129q29 34 65 51.5t75 17.5q60 0 93.5 -38.5z" />
    <glyph glyph-name="Itilde" unicode="&#x128;" horiz-adv-x="239" 
d="M72 786q28 121 98 121q18 0 31 -7.5t33 -24.5q8 -7 16 -13t14 -6q22 0 33 49h69q-13 -58 -38.5 -89.5t-60.5 -31.5q-18 0 -31.5 7.5t-29.5 21.5q-11 10 -18 14.5t-14 4.5q-12 0 -19.5 -11t-13.5 -35h-69zM115 -34h-99l129 732h99z" />
    <glyph glyph-name="itilde" unicode="&#x129;" horiz-adv-x="212" 
d="M22 572q28 120 98 120q19 0 32.5 -8t31.5 -24q20 -18 30 -18q22 0 33 49h69q-13 -58 -38.5 -89.5t-60.5 -31.5q-18 0 -31.5 7.5t-29.5 21.5q-11 10 -18 14.5t-14 4.5q-12 0 -19.5 -11t-13.5 -35h-69zM5 -34l92 519h95l-92 -519h-95z" />
    <glyph glyph-name="Imacron" unicode="&#x12a;" horiz-adv-x="239" 
d="M92 811l14 80h245l-14 -80h-245zM115 -34h-99l129 732h99z" />
    <glyph glyph-name="imacron" unicode="&#x12b;" horiz-adv-x="212" 
d="M41 594l15 80h245l-14 -80h-246zM5 -34l92 519h95l-92 -519h-95z" />
    <glyph glyph-name="Ibreve" unicode="&#x12c;" horiz-adv-x="239" 
d="M128 803.5q-30 30.5 -30 80.5q0 15 3 31h80q-1 -7 -1 -19q0 -54 40 -54q26 0 39 18.5t19 54.5h83q-9 -67 -46 -104.5t-103 -37.5q-54 0 -84 30.5zM115 -34h-99l129 732h99z" />
    <glyph glyph-name="ibreve" unicode="&#x12d;" horiz-adv-x="212" 
d="M81.5 586.5q-28.5 31.5 -28.5 87.5q0 18 3 39h78q-3 -18 -3 -32q0 -56 38 -56q25 0 39.5 22t23.5 66h82q-12 -76 -50.5 -117t-102.5 -41q-51 0 -79.5 31.5zM5 -34l92 519h95l-92 -519h-95z" />
    <glyph glyph-name="Iogonek" unicode="&#x12e;" horiz-adv-x="239" 
d="M100 -184l29 -49q-49 -52 -106 -52q-43 0 -71.5 25t-28.5 69q0 88 93 158l129 731h99l-129 -732q-110 -75 -110 -146q0 -17 9.5 -26t25.5 -9q27 0 60 31z" />
    <glyph glyph-name="iogonek" unicode="&#x12f;" horiz-adv-x="212" 
d="M203 682.5q19 -19.5 19 -46.5t-19.5 -47t-46.5 -20t-46 20t-19 47t19 46.5t46 19.5q28 0 47 -19.5zM100 -34q-110 -75 -110 -144q0 -19 9 -28t25 -9q27 0 61 31l29 -49q-26 -27 -51.5 -39.5t-54.5 -12.5q-44 0 -72.5 25t-28.5 70q0 89 99 161l91 514h95z" />
    <glyph glyph-name="Idotaccent" unicode="&#x130;" horiz-adv-x="239" 
d="M176 804q-19 20 -19 47q0 28 19 47.5t45 19.5q28 0 47 -19.5t19 -47.5q0 -27 -19.5 -47t-46.5 -20q-26 0 -45 20zM115 -34h-99l129 732h99z" />
    <glyph glyph-name="dotlessi" unicode="&#x131;" horiz-adv-x="212" 
d="M5 -34l92 519h95l-92 -519h-95z" />
    <glyph glyph-name="IJ" unicode="&#x132;" horiz-adv-x="657" 
d="M115 -34h-99l129 732h99zM267.5 -12q-40.5 33 -49.5 101l89 50q7 -50 23.5 -71.5t48.5 -21.5q42 0 64.5 35.5t35.5 107.5l90 509h101l-92 -522q-20 -113 -66.5 -167t-135.5 -54q-68 0 -108.5 33z" />
    <glyph glyph-name="ij" unicode="&#x133;" horiz-adv-x="414" 
d="M127 591q-18 19 -18 45t18 44.5t43 18.5t43.5 -18.5t18.5 -44.5t-18 -45t-44 -19q-25 0 -43 19zM335 591q-18 19 -18 45t18 44.5t43 18.5q26 0 44.5 -18.5t18.5 -44.5t-18.5 -45t-44.5 -19q-25 0 -43 19zM100 -34h-95l92 519h95zM57.5 -274q-27.5 11 -40.5 29l50 74
q21 -25 55 -25q33 0 52 26.5t31 95.5l100 559h95l-101 -570q-19 -108 -64.5 -154t-113.5 -46q-36 0 -63.5 11z" />
    <glyph glyph-name="Jcircumflex" unicode="&#x134;" horiz-adv-x="418" 
d="M382 915h77l76 -142h-82l-42 81l-71 -81h-88zM-21 89l89 50q7 -50 23.5 -71.5t48.5 -21.5q42 0 64.5 35.5t35.5 107.5l90 509h101l-92 -522q-21 -113 -66.5 -167t-134.5 -54q-142 0 -159 134z" />
    <glyph glyph-name="jcircumflex" unicode="&#x135;" horiz-adv-x="189" 
d="M140 713h76l76 -158h-83l-41 90l-70 -90h-89zM-154.5 -274q-27.5 11 -40.5 29l50 74q21 -25 55 -25q33 0 52 26.5t31 95.5l99 559h96l-101 -570q-19 -108 -64.5 -154t-113.5 -46q-36 0 -63.5 11z" />
    <glyph glyph-name="uni0136" unicode="&#x136;" horiz-adv-x="584" 
d="M509 698h124l-274 -290l168 -442h-117l-130 358l-125 -131l-40 -227h-99l129 732h99l-48 -276l-8 -41l-8 -40l87 95zM291.5 -87.5q15.5 -15.5 15.5 -46.5q0 -6 -2 -24q-10 -55 -51 -88t-103 -41l8 48q64 16 78 56h-6q-23 0 -35.5 12.5t-12.5 32.5q0 29 19.5 47.5
t47.5 18.5q26 0 41.5 -15.5z" />
    <glyph glyph-name="uni0137" unicode="&#x137;" horiz-adv-x="466" 
d="M373 485h113l-196 -211l122 -308h-107l-88 231l-96 -102l-22 -129h-95l134 761h95l-63 -355q-19 -111 -27 -146q47 53 107 122zM231.5 -86.5q15.5 -15.5 15.5 -46.5q0 -6 -2 -24q-10 -55 -51 -88t-103 -41l8 48q32 8 51.5 21t26.5 35h-6q-23 0 -35.5 12.5t-12.5 32.5
q0 29 19.5 47.5t47.5 18.5q26 0 41.5 -15.5z" />
    <glyph glyph-name="kgreenlandic" unicode="&#x138;" horiz-adv-x="467" 
d="M374 485h113l-196 -211l122 -308h-107l-88 231l-96 -102l-22 -129h-95l91 519h95l-21 -122q-4 -20 -5 -29q-13 -75 -21 -108q47 53 107 122z" />
    <glyph glyph-name="Lacute" unicode="&#x139;" horiz-adv-x="493" 
d="M177 773l80 141h97l-103 -141h-74zM145 698h99l-113 -643h277l-16 -89h-376z" />
    <glyph glyph-name="lacute" unicode="&#x13a;" horiz-adv-x="211" 
d="M166 791l80 141h97l-103 -141h-74zM99 -34h-95l135 761h95z" />
    <glyph glyph-name="uni013B" unicode="&#x13b;" horiz-adv-x="471" 
d="M145 698h99l-113 -643h277l-16 -89h-376zM237.5 -87.5q15.5 -15.5 15.5 -46.5q0 -6 -2 -24q-10 -55 -50.5 -88t-103.5 -41l8 48q64 16 78 56h-6q-22 0 -34.5 12t-12.5 32q0 29 19.5 48t47.5 19q25 0 40.5 -15.5z" />
    <glyph glyph-name="uni013C" unicode="&#x13c;" horiz-adv-x="211" 
d="M99 -34h-95l135 761h95zM80.5 -87.5q15.5 -15.5 15.5 -45.5q0 -16 -2 -25q-10 -54 -50.5 -87.5t-102.5 -41.5l8 48q63 16 77 56h-6q-23 0 -35 12t-12 32q0 29 19.5 48t47.5 19q25 0 40.5 -15.5z" />
    <glyph glyph-name="Lcaron" unicode="&#x13d;" horiz-adv-x="491" 
d="M458 694.5q15 -15.5 15 -46.5q0 -13 -3 -28q-10 -59 -52.5 -97t-103.5 -47l9 51q32 9 51.5 23.5t27.5 37.5h-6q-23 0 -35.5 14t-12.5 35q0 30 20.5 51.5t49.5 21.5q25 0 40 -15.5zM149 698h99l-113 -643h277l-16 -89h-376z" />
    <glyph glyph-name="lcaron" unicode="&#x13e;" horiz-adv-x="286" 
d="M379 722.5q13 -13.5 13 -41.5q0 -11 -3 -26q-9 -55 -47.5 -88.5t-93.5 -42.5l8 46q30 8 48 21t25 35h-7q-19 0 -30 12t-11 30q0 29 18.5 48.5t44.5 19.5q22 0 35 -13.5zM99 -34h-95l135 761h95z" />
    <glyph glyph-name="Ldot" unicode="&#x13f;" horiz-adv-x="471" 
d="M145 698h99l-113 -643h277l-16 -89h-376zM275 312q-19 20 -19 47q0 28 19 47.5t46 19.5t46 -19.5t19 -47.5q0 -27 -19 -47t-46 -20t-46 20z" />
    <glyph glyph-name="ldot" unicode="&#x140;" horiz-adv-x="248" 
d="M111 -34h-95l135 761h95zM211.5 308q-16.5 17 -16.5 42t16 41.5t40 16.5t40.5 -16.5t16.5 -41.5t-16.5 -42t-40.5 -17q-23 0 -39.5 17z" />
    <glyph glyph-name="Lslash" unicode="&#x141;" horiz-adv-x="496" 
d="M343 374l-143 -69l-44 -250h277l-16 -89h-376l50 287l-93 -45l18 103l93 45l61 342h99l-51 -290l143 69z" />
    <glyph glyph-name="lslash" unicode="&#x142;" horiz-adv-x="247" 
d="M252 727l-53 -296l76 43l-18 -103l-76 -43l-64 -362h-95l53 302l-75 -42l18 103l75 42l64 356h95z" />
    <glyph glyph-name="Nacute" unicode="&#x143;" horiz-adv-x="619" 
d="M362 773l80 142h97l-103 -142h-74zM226 698l211 -539l95 539h92l-129 -732h-81l-211 534l-95 -534h-92l129 732h81z" />
    <glyph glyph-name="nacute" unicode="&#x144;" horiz-adv-x="490" 
d="M249 556l83 157h97l-106 -157h-74zM413.5 459q33.5 -38 33.5 -112q0 -35 -7 -71l-55 -310h-95l53 297q6 33 6 59q0 85 -67 85q-44 0 -80 -34t-49 -104l-54 -303h-95l92 520h84q-4 -24 -8 -70q29 40 67.5 60.5t81.5 20.5q59 0 92.5 -38z" />
    <glyph glyph-name="uni0145" unicode="&#x145;" horiz-adv-x="619" 
d="M226 698l211 -539l95 539h92l-129 -732h-81l-211 534l-95 -534h-92l129 732h81zM290.5 -87.5q15.5 -15.5 15.5 -46.5q0 -6 -2 -24q-10 -55 -50.5 -88t-103.5 -41l8 48q64 16 78 56h-6q-23 0 -35.5 12.5t-12.5 32.5q0 29 19.5 47.5t47.5 18.5q26 0 41.5 -15.5z" />
    <glyph glyph-name="uni0146" unicode="&#x146;" horiz-adv-x="490" 
d="M413.5 459q33.5 -38 33.5 -112q0 -35 -7 -71l-55 -310h-95l53 297q6 33 6 59q0 85 -67 85q-44 0 -80 -34t-49 -104l-54 -303h-95l92 520h84q-4 -24 -8 -70q29 40 67.5 60.5t81.5 20.5q59 0 92.5 -38zM223.5 -87.5q15.5 -15.5 15.5 -46.5q0 -6 -2 -24q-10 -55 -50.5 -88
t-103.5 -41l8 48q64 16 78 56h-6q-22 0 -34.5 12t-12.5 32q0 29 19.5 48t47.5 19q25 0 40.5 -15.5z" />
    <glyph glyph-name="Ncaron" unicode="&#x147;" horiz-adv-x="619" 
d="M358 915l42 -82l72 82h87l-130 -142h-77l-76 142h82zM226 698l211 -539l95 539h92l-129 -732h-81l-211 534l-95 -534h-92l129 732h81z" />
    <glyph glyph-name="ncaron" unicode="&#x148;" horiz-adv-x="490" 
d="M260 713l41 -90l70 90h89l-131 -157h-76l-76 157h83zM413.5 459q33.5 -38 33.5 -112q0 -35 -7 -71l-55 -310h-95l53 297q6 33 6 59q0 85 -67 85q-44 0 -80 -34t-49 -104l-54 -303h-95l92 520h84q-4 -24 -8 -70q29 40 67.5 60.5t81.5 20.5q59 0 92.5 -38z" />
    <glyph glyph-name="napostrophe" unicode="&#x149;" horiz-adv-x="491" 
d="M170.5 724q14.5 -15 14.5 -46q0 -6 -2 -24q-10 -55 -51.5 -91t-100.5 -45l8 48q61 15 77 58h-6q-22 1 -34 13.5t-12 32.5q0 28 19.5 48.5t47.5 20.5q25 0 39.5 -15zM414.5 459q33.5 -38 33.5 -112q0 -35 -7 -71l-55 -310h-95l53 297q6 33 6 59q0 85 -67 85q-44 0 -80 -34
t-49 -104l-54 -303h-95l92 520h84q-4 -24 -8 -70q29 40 67.5 60.5t81.5 20.5q59 0 92.5 -38z" />
    <glyph glyph-name="Eng" unicode="&#x14a;" horiz-adv-x="619" 
d="M532 698h92l-139 -793q-33 -190 -175 -190q-27 0 -55.5 9.5t-46.5 22.5l49 79q26 -18 54 -18q31 0 50.5 23t30.5 84l13 73l-202 512l-95 -534h-92l129 732h81l211 -538z" />
    <glyph glyph-name="eng" unicode="&#x14b;" horiz-adv-x="490" 
d="M413.5 459q33.5 -38 33.5 -112q0 -35 -7 -71l-67 -380q-17 -99 -57.5 -140t-105.5 -41q-72 0 -105 40l50 74q21 -26 51 -26q22 0 35.5 11t23 37t18.5 75l60 337q6 33 6 59q0 85 -67 85q-44 0 -80 -34t-49 -104l-54 -303h-95l92 520h84q-4 -24 -8 -70q29 40 67.5 60.5
t81.5 20.5q59 0 92.5 -38z" />
    <glyph glyph-name="Omacron" unicode="&#x14c;" horiz-adv-x="631" 
d="M287 810l14 81h245l-14 -81h-245zM175 624q82 86 200 86q109 0 169 -71t60 -203q0 -57 -12 -126q-33 -186 -114.5 -270.5t-199.5 -84.5q-110 0 -169.5 69.5t-59.5 201.5q0 58 12 128q32 184 114 270zM154 230q0 -90 34 -137t100 -47q75 0 124.5 63t74.5 204q12 66 12 118
q0 91 -34 139.5t-100 48.5q-74 0 -124 -64t-75 -204q-12 -67 -12 -121z" />
    <glyph glyph-name="omacron" unicode="&#x14d;" horiz-adv-x="490" 
d="M180 593l14 81h245l-14 -81h-245zM120.5 435.5q66.5 61.5 153.5 61.5q83 0 131 -53t48 -152q0 -35 -8 -85q-23 -131 -90 -191.5t-154 -60.5q-83 0 -131 53t-48 151q0 35 8 83q24 132 90.5 193.5zM121 164q0 -61 24.5 -91.5t65.5 -30.5q46 0 83 41t53 133q7 39 7 74
q0 60 -23.5 90t-64.5 30q-46 0 -83.5 -41t-54.5 -137q-7 -45 -7 -68z" />
    <glyph glyph-name="Obreve" unicode="&#x14e;" horiz-adv-x="631" 
d="M323.5 802.5q-29.5 30.5 -29.5 80.5q0 15 3 31h79q-1 -6 -1 -18q0 -26 10 -40.5t30 -14.5q25 0 38.5 18.5t20.5 54.5h82q-9 -67 -46 -104.5t-103 -37.5q-54 0 -83.5 30.5zM175 624q82 86 200 86q109 0 169 -71t60 -203q0 -57 -12 -126q-33 -186 -114.5 -270.5
t-199.5 -84.5q-110 0 -169.5 69.5t-59.5 201.5q0 58 12 128q32 184 114 270zM154 230q0 -90 34 -137t100 -47q75 0 124.5 63t74.5 204q12 66 12 118q0 91 -34 139.5t-100 48.5q-74 0 -124 -64t-75 -204q-12 -67 -12 -121z" />
    <glyph glyph-name="obreve" unicode="&#x14f;" horiz-adv-x="490" 
d="M220 585q-29 31 -29 86q0 22 4 41h77q-2 -22 -2 -31q0 -56 37 -56q26 0 40 21.5t23 65.5h83q-13 -76 -51.5 -117t-102.5 -41q-50 0 -79 31zM120.5 435.5q66.5 61.5 153.5 61.5q83 0 131 -53t48 -152q0 -35 -8 -85q-23 -131 -90 -191.5t-154 -60.5q-83 0 -131 53t-48 151
q0 35 8 83q24 132 90.5 193.5zM121 164q0 -61 24.5 -91.5t65.5 -30.5q46 0 83 41t53 133q7 39 7 74q0 60 -23.5 90t-64.5 30q-46 0 -83.5 -41t-54.5 -137q-7 -45 -7 -68z" />
    <glyph glyph-name="Ohungarumlaut" unicode="&#x150;" horiz-adv-x="631" 
d="M295 772l82 142h100l-108 -142h-74zM431 772l82 142h99l-108 -142h-73zM175 624q82 86 200 86q109 0 169 -71t60 -203q0 -57 -12 -126q-33 -186 -114.5 -270.5t-199.5 -84.5q-110 0 -169.5 69.5t-59.5 201.5q0 58 12 128q32 184 114 270zM154 230q0 -90 34 -137t100 -47
q75 0 124.5 63t74.5 204q12 66 12 118q0 91 -34 139.5t-100 48.5q-74 0 -124 -64t-75 -204q-12 -67 -12 -121z" />
    <glyph glyph-name="ohungarumlaut" unicode="&#x151;" horiz-adv-x="490" 
d="M188 555l84 158h100l-110 -158h-74zM324 555l84 158h99l-110 -158h-73zM120.5 435.5q66.5 61.5 153.5 61.5q83 0 131 -53t48 -152q0 -35 -8 -85q-23 -131 -90 -191.5t-154 -60.5q-83 0 -131 53t-48 151q0 35 8 83q24 132 90.5 193.5zM121 164q0 -61 24.5 -91.5
t65.5 -30.5q46 0 83 41t53 133q7 39 7 74q0 60 -23.5 90t-64.5 30q-46 0 -83.5 -41t-54.5 -137q-7 -45 -7 -68z" />
    <glyph glyph-name="OE" unicode="&#x152;" horiz-adv-x="907" 
d="M931 698l-15 -87h-278l-39 -224h249l-16 -88h-249l-43 -246h287l-15 -87h-387l10 53q-64 -64 -163 -64q-107 0 -165.5 69t-58.5 200q0 54 13 130q32 184 113 270t197 86q124 0 168 -95l15 83h377zM412 109.5q49 63.5 74 203.5q11 59 11 118q0 91 -33 139.5t-99 48.5
q-153 0 -199 -268q-12 -67 -12 -120q0 -91 34 -138t100 -47q75 0 124 63.5z" />
    <glyph glyph-name="oe" unicode="&#x153;" horiz-adv-x="764" 
d="M653 117l66 -49q-28 -57 -79 -85.5t-108 -28.5q-56 0 -96.5 26.5t-59.5 77.5q-60 -103 -176 -103q-83 0 -130.5 52.5t-47.5 151.5q0 35 8 83q24 132 90 193.5t153 61.5q57 0 95.5 -26.5t54.5 -77.5q34 53 82 78.5t103 25.5q68 0 106.5 -37t38.5 -102q0 -82 -60.5 -121
t-183.5 -39q-18 0 -62 2q-1 -11 -1 -31q0 -66 26 -96.5t71 -30.5q68 0 110 75zM513 380.5q-36 -30.5 -54 -102.5q36 -3 66 -3q66 0 98 18t32 59q0 59 -63 59q-43 0 -79 -30.5zM352 291q0 60 -23 89.5t-64 29.5q-46 0 -83.5 -41t-54.5 -137q-7 -45 -7 -68q0 -61 24.5 -91.5
t65.5 -30.5q46 0 83 41t52 133q7 39 7 75z" />
    <glyph glyph-name="Racute" unicode="&#x154;" horiz-adv-x="538" 
d="M376 914h97l-103 -141h-74zM469 345q-42 -49 -106 -70l129 -309h-111l-117 293h-98l-51 -293h-99l129 732h179q96 0 150 -50t54 -135q0 -25 -4 -48q-13 -71 -55 -120zM422 505q0 50 -31.5 78.5t-88.5 28.5h-74l-46 -266h86q62 0 101 33.5t50 92.5q3 17 3 33z" />
    <glyph glyph-name="racute" unicode="&#x155;" horiz-adv-x="340" 
d="M197 555l83 158h97l-106 -158h-74zM345.5 486q19.5 -11 27.5 -25l-49 -76q-21 23 -48 23q-42 0 -77.5 -42t-49.5 -120l-50 -280h-95l92 519h83l-3 -29q-4 -26 -5 -43q25 41 58.5 62.5t69.5 21.5q27 0 46.5 -11z" />
    <glyph glyph-name="uni0156" unicode="&#x156;" horiz-adv-x="538" 
d="M469 345q-42 -49 -106 -70l129 -309h-111l-117 293h-98l-51 -293h-99l129 732h179q96 0 150 -50t54 -135q0 -25 -4 -48q-13 -71 -55 -120zM422 505q0 50 -31.5 78.5t-88.5 28.5h-74l-46 -266h86q62 0 101 33.5t50 92.5q3 17 3 33zM276.5 -87.5q15.5 -15.5 15.5 -45.5
q0 -16 -2 -25q-10 -54 -50.5 -87.5t-102.5 -41.5l8 48q63 16 77 56h-6q-22 0 -34.5 12t-12.5 32q0 29 19.5 48t47.5 19q25 0 40.5 -15.5z" />
    <glyph glyph-name="uni0157" unicode="&#x157;" horiz-adv-x="340" 
d="M345.5 486q19.5 -11 27.5 -25l-49 -76q-21 23 -48 23q-42 0 -77.5 -42t-49.5 -120l-50 -280h-95l92 519h83l-3 -29q-4 -26 -5 -43q25 41 58.5 62.5t69.5 21.5q27 0 46.5 -11zM80.5 -87.5q15.5 -15.5 15.5 -45.5q0 -16 -2 -25q-10 -54 -50.5 -87.5t-102.5 -41.5l8 48
q63 16 77 56h-6q-23 0 -35 12t-12 32q0 29 19.5 48t47.5 19q25 0 40.5 -15.5z" />
    <glyph glyph-name="Rcaron" unicode="&#x158;" horiz-adv-x="538" 
d="M494 914l-131 -142h-76l-77 142h82l43 -81l71 81h88zM469 345q-42 -49 -106 -70l129 -309h-111l-117 293h-98l-51 -293h-99l129 732h179q96 0 150 -50t54 -135q0 -25 -4 -48q-13 -71 -55 -120zM422 505q0 50 -31.5 78.5t-88.5 28.5h-74l-46 -266h86q62 0 101 33.5
t50 92.5q3 17 3 33z" />
    <glyph glyph-name="rcaron" unicode="&#x159;" horiz-adv-x="340" 
d="M208 713l41 -90l70 90h89l-131 -158h-76l-76 158h83zM345.5 486q19.5 -11 27.5 -25l-49 -76q-21 23 -48 23q-42 0 -77.5 -42t-49.5 -120l-50 -280h-95l92 519h83l-3 -29q-4 -26 -5 -43q25 41 58.5 62.5t69.5 21.5q27 0 46.5 -11z" />
    <glyph glyph-name="Sacute" unicode="&#x15a;" horiz-adv-x="481" 
d="M303 773l81 142h97l-103 -142h-75zM368 4q-59 -49 -150 -49q-96 0 -157 52.5t-68 139.5l87 46q8 -72 46.5 -110t96.5 -38q53 0 83 36q19 22 25 58q2 16 2 24q0 32 -15 57t-37 43t-61 45q-44 29 -71.5 52.5t-46.5 58t-19 80.5q0 22 4 42q16 85 78 129q57 40 139 40
q86 0 136.5 -45.5t52.5 -117.5l-85 -45q-16 118 -110 118q-43 0 -73 -24q-36 -29 -36 -84q0 -41 26.5 -68.5t81.5 -63.5q46 -30 74 -54t48 -60t20 -86q0 -21 -5 -49q-16 -82 -66 -127z" />
    <glyph glyph-name="sacute" unicode="&#x15b;" horiz-adv-x="382" 
d="M194 559l83 158h98l-107 -158h-74zM276 -7q-49 -38 -122 -38q-71 0 -116.5 37t-50.5 103l77 40q5 -49 30.5 -72.5t63.5 -23.5q31 0 50 14t24 42q1 5 1 15q0 29 -19.5 47.5t-59.5 43.5q-50 29 -77 57.5t-27 77.5q0 15 3 31q10 60 54 94q46 36 118 36q66 0 106.5 -35.5
t44.5 -91.5l-78 -39q-4 37 -24.5 60t-54.5 23q-30 0 -49.5 -16.5t-19.5 -47.5q0 -25 18.5 -43t57.5 -41q35 -21 56.5 -38t37 -43t15.5 -61q0 -14 -3 -31q-10 -62 -56 -100z" />
    <glyph glyph-name="Scircumflex" unicode="&#x15c;" horiz-adv-x="481" 
d="M322 915h76l77 -142h-82l-43 81l-71 -81h-88zM368 4q-59 -49 -150 -49q-96 0 -157 52.5t-68 139.5l87 46q8 -72 46.5 -110t96.5 -38q53 0 83 36q19 22 25 58q2 16 2 24q0 32 -15 57t-37 43t-61 45q-44 29 -71.5 52.5t-46.5 58t-19 80.5q0 22 4 42q16 85 78 129
q57 40 139 40q86 0 136.5 -45.5t52.5 -117.5l-85 -45q-16 118 -110 118q-43 0 -73 -24q-36 -29 -36 -84q0 -41 26.5 -68.5t81.5 -63.5q46 -30 74 -54t48 -60t20 -86q0 -21 -5 -49q-16 -82 -66 -127z" />
    <glyph glyph-name="scircumflex" unicode="&#x15d;" horiz-adv-x="382" 
d="M224 717h76l76 -158h-83l-42 90l-70 -90h-88zM276 -7q-49 -38 -122 -38q-71 0 -116.5 37t-50.5 103l77 40q5 -49 30.5 -72.5t63.5 -23.5q31 0 50 14t24 42q1 5 1 15q0 29 -19.5 47.5t-59.5 43.5q-50 29 -77 57.5t-27 77.5q0 15 3 31q10 60 54 94q46 36 118 36
q66 0 106.5 -35.5t44.5 -91.5l-78 -39q-4 37 -24.5 60t-54.5 23q-30 0 -49.5 -16.5t-19.5 -47.5q0 -25 18.5 -43t57.5 -41q35 -21 56.5 -38t37 -43t15.5 -61q0 -14 -3 -31q-10 -62 -56 -100z" />
    <glyph glyph-name="Scedilla" unicode="&#x15e;" horiz-adv-x="481" 
d="M215.5 443.5q26.5 -27.5 81.5 -63.5q46 -30 74 -54t48 -60t20 -86q0 -21 -5 -49q-16 -82 -66 -127q-52 -44 -131 -49l-28 -53q37 -6 58.5 -28.5t21.5 -54.5q0 -11 -1 -16q-8 -42 -43.5 -65t-83.5 -23q-39 0 -76 11l11 64q33 -11 59 -11q23 0 36.5 9t13.5 25
q0 18 -22.5 26t-61.5 5v41l39 75q-73 15 -117 64.5t-50 122.5l87 46q8 -72 46.5 -110t96.5 -38q53 0 83 36q19 22 25 58q2 16 2 24q0 32 -15 57t-37 43t-61 45q-44 29 -71.5 52.5t-46.5 58t-19 80.5q0 22 4 42q16 85 78 129q57 40 139 40q86 0 136.5 -45.5t52.5 -117.5
l-85 -45q-16 118 -110 118q-43 0 -73 -24q-36 -29 -36 -84q0 -41 26.5 -68.5z" />
    <glyph glyph-name="scedilla" unicode="&#x15f;" horiz-adv-x="382" 
d="M168.5 307q18.5 -18 57.5 -41q35 -21 56.5 -38t37 -43t15.5 -61q0 -14 -3 -31q-10 -62 -56 -100q-42 -33 -100 -37l-26 -51q37 -5 58.5 -27.5t21.5 -55.5q0 -10 -1 -15q-8 -43 -43.5 -66t-83.5 -23q-36 0 -76 12l11 64q33 -11 59 -11q23 0 36.5 9t13.5 25q0 15 -16 23
t-44 8q-16 0 -24 -1v42l38 72q-49 12 -79 47t-34 87l77 40q5 -49 30.5 -72.5t63.5 -23.5q31 0 50 14t24 42q1 5 1 15q0 29 -19.5 47.5t-59.5 43.5q-50 29 -77 57.5t-27 77.5q0 15 3 31q10 60 54 94q46 36 118 36q66 0 106.5 -35.5t44.5 -91.5l-78 -39q-4 37 -24.5 60
t-54.5 23q-30 0 -49.5 -16.5t-19.5 -47.5q0 -25 18.5 -43z" />
    <glyph glyph-name="Scaron" unicode="&#x160;" horiz-adv-x="481" 
d="M300 915l42 -82l71 82h88l-130 -142h-77l-76 142h82zM368 4q-59 -49 -150 -49q-96 0 -157 52.5t-68 139.5l87 46q8 -72 46.5 -110t96.5 -38q53 0 83 36q19 22 25 58q2 16 2 24q0 32 -15 57t-37 43t-61 45q-44 29 -71.5 52.5t-46.5 58t-19 80.5q0 22 4 42q16 85 78 129
q57 40 139 40q86 0 136.5 -45.5t52.5 -117.5l-85 -45q-16 118 -110 118q-43 0 -73 -24q-36 -29 -36 -84q0 -41 26.5 -68.5t81.5 -63.5q46 -30 74 -54t48 -60t20 -86q0 -21 -5 -49q-16 -82 -66 -127z" />
    <glyph glyph-name="scaron" unicode="&#x161;" horiz-adv-x="382" 
d="M205 717l42 -90l70 90h88l-131 -158h-76l-76 158h83zM276 -7q-49 -38 -122 -38q-71 0 -116.5 37t-50.5 103l77 40q5 -49 30.5 -72.5t63.5 -23.5q31 0 50 14t24 42q1 5 1 15q0 29 -19.5 47.5t-59.5 43.5q-50 29 -77 57.5t-27 77.5q0 15 3 31q10 60 54 94q46 36 118 36
q66 0 106.5 -35.5t44.5 -91.5l-78 -39q-4 37 -24.5 60t-54.5 23q-30 0 -49.5 -16.5t-19.5 -47.5q0 -25 18.5 -43t57.5 -41q35 -21 56.5 -38t37 -43t15.5 -61q0 -14 -3 -31q-10 -62 -56 -100z" />
    <glyph glyph-name="uni0162" unicode="&#x162;" horiz-adv-x="489" 
d="M72 610l16 88h463l-14 -88h-183l-113 -644h-9l-36 -64q38 -7 59 -28.5t21 -53.5q0 -50 -37.5 -77.5t-90.5 -27.5q-40 0 -77 11l12 64q31 -11 58 -11q24 0 37.5 9t13.5 25q0 18 -23 26t-62 5v41l46 81h-12l113 644h-182z" />
    <glyph glyph-name="uni0163" unicode="&#x163;" horiz-adv-x="329" 
d="M326 404h-126l-45 -250q-5 -32 -5 -49q0 -32 12.5 -48t39.5 -16q28 0 57 19l22 -74q-44 -31 -100 -31l-28 -53q38 -6 59 -28t21 -54q0 -11 -1 -16q-7 -43 -42.5 -66t-84.5 -23q-39 0 -76 11l12 64q33 -10 58 -10q51 0 51 35q0 17 -23.5 24.5t-61.5 4.5v41l45 85
q-57 28 -57 117q0 27 6 61l45 256h-73l14 82h74l26 148h95l-26 -148h126z" />
    <glyph glyph-name="Tcaron" unicode="&#x164;" horiz-adv-x="489" 
d="M299 915l42 -82l71 82h88l-130 -142h-77l-76 142h82zM88 698h463l-14 -88h-183l-113 -644h-100l113 644h-182z" />
    <glyph glyph-name="tcaron" unicode="&#x165;" horiz-adv-x="327" 
d="M430 773.5q15 -15.5 15 -47.5q0 -12 -3 -27q-10 -59 -52.5 -97.5t-103.5 -47.5l9 51q32 9 51.5 23.5t27.5 37.5h-6q-22 1 -34.5 14.5t-12.5 33.5q0 31 20.5 53t48.5 22q25 0 40 -15.5zM326 404h-126l-45 -250q-5 -32 -5 -49q0 -32 12.5 -48t39.5 -16q28 0 57 19l22 -74
q-45 -31 -104 -31q-55 0 -89.5 30t-34.5 101q0 28 6 62l45 256h-73l14 82h74l26 148h95l-26 -148h126z" />
    <glyph glyph-name="Tbar" unicode="&#x166;" horiz-adv-x="489" 
d="M88 698h463l-14 -88h-183l-40 -229h124l-17 -91h-123l-57 -324h-100l57 324h-123l17 91h122l40 229h-182z" />
    <glyph glyph-name="tbar" unicode="&#x167;" horiz-adv-x="329" 
d="M327 406h-127l-22 -124h130l-14 -82h-131l-8 -44q-5 -32 -5 -50q0 -33 12.5 -49t39.5 -16q30 0 57 19l22 -74q-45 -31 -104 -31q-55 0 -89.5 30t-34.5 102q0 27 6 61l9 52h-73l14 82h74l22 124h-74l14 80h74l26 148h95l-26 -148h126z" />
    <glyph glyph-name="Utilde" unicode="&#x168;" horiz-adv-x="614" 
d="M259 785q28 121 98 121q18 0 31 -7.5t33 -24.5q8 -7 16 -13t14 -6q22 0 33 49h69q-13 -58 -38.5 -89.5t-60.5 -31.5q-18 0 -31.5 7.5t-29.5 21.5q-11 10 -18 14.5t-14 4.5q-23 0 -33 -46h-69zM527 698h99l-81 -471q-25 -143 -94 -207.5t-184 -64.5q-213 0 -213 213
q0 45 9 99l74 431h100l-73 -420q-9 -51 -9 -90q0 -72 30 -107t91 -35q66 0 109 46.5t63 159.5z" />
    <glyph glyph-name="utilde" unicode="&#x169;" horiz-adv-x="490" 
d="M159 572q28 121 98 121q18 0 31 -7.5t33 -24.5q8 -7 16 -13t14 -6q22 0 33 49h69q-13 -58 -38.5 -89.5t-60.5 -31.5q-18 0 -31.5 7.5t-29.5 21.5q-11 10 -18 14.5t-14 4.5q-23 0 -33 -46h-69zM60.5 -6.5q-33.5 38.5 -33.5 112.5q0 34 7 70l55 310h95l-52 -297
q-6 -34 -6 -60q0 -85 67 -85q43 0 79 34t49 104l54 304h95l-92 -520h-84q7 38 8 70q-28 -41 -66.5 -61t-81.5 -20q-60 0 -93.5 38.5z" />
    <glyph glyph-name="Umacron" unicode="&#x16a;" horiz-adv-x="614" 
d="M278 810l15 81h245l-14 -81h-246zM527 698h99l-81 -471q-25 -143 -94 -207.5t-184 -64.5q-213 0 -213 213q0 45 9 99l74 431h100l-73 -420q-9 -51 -9 -90q0 -72 30 -107t91 -35q66 0 109 46.5t63 159.5z" />
    <glyph glyph-name="umacron" unicode="&#x16b;" horiz-adv-x="490" 
d="M178 594l14 81h246l-15 -81h-245zM60.5 -6.5q-33.5 38.5 -33.5 112.5q0 34 7 70l55 310h95l-52 -297q-6 -34 -6 -60q0 -85 67 -85q43 0 79 34t49 104l54 304h95l-92 -520h-84q7 38 8 70q-28 -41 -66.5 -61t-81.5 -20q-60 0 -93.5 38.5z" />
    <glyph glyph-name="Ubreve" unicode="&#x16c;" horiz-adv-x="614" 
d="M315 803q-30 31 -30 81q0 15 3 30h79q-1 -6 -1 -18q0 -26 10 -40.5t31 -14.5q25 0 38.5 19t19.5 54h83q-9 -67 -46 -104.5t-104 -37.5q-53 0 -83 31zM527 698h99l-81 -471q-25 -143 -94 -207.5t-184 -64.5q-213 0 -213 213q0 45 9 99l74 431h100l-73 -420q-9 -51 -9 -90
q0 -72 30 -107t91 -35q66 0 109 46.5t63 159.5z" />
    <glyph glyph-name="ubreve" unicode="&#x16d;" horiz-adv-x="490" 
d="M218.5 586.5q-28.5 31.5 -28.5 87.5q0 18 3 39h78q-3 -18 -3 -32q0 -55 38 -55q26 0 40 22t22 65h83q-12 -76 -50.5 -117t-102.5 -41q-51 0 -79.5 31.5zM60.5 -6.5q-33.5 38.5 -33.5 112.5q0 34 7 70l55 310h95l-52 -297q-6 -34 -6 -60q0 -85 67 -85q43 0 79 34t49 104
l54 304h95l-92 -520h-84q7 38 8 70q-28 -41 -66.5 -61t-81.5 -20q-60 0 -93.5 38.5z" />
    <glyph glyph-name="Uring" unicode="&#x16e;" horiz-adv-x="614" 
d="M333.5 943.5q32.5 32.5 79.5 32.5t78 -31t31 -79q0 -47 -32 -78.5t-78 -31.5t-78.5 31t-32.5 78q0 46 32.5 78.5zM377.5 828q13.5 -15 35.5 -15q21 0 34 15t13 38t-12.5 37.5t-34.5 14.5t-35.5 -14.5t-13.5 -37.5t13.5 -38zM527 698h99l-81 -471q-25 -143 -94 -207.5
t-184 -64.5q-213 0 -213 213q0 45 9 99l74 431h100l-73 -420q-9 -51 -9 -90q0 -72 30 -107t91 -35q66 0 109 46.5t63 159.5z" />
    <glyph glyph-name="uring" unicode="&#x16f;" horiz-adv-x="490" 
d="M214 732.5q33 32.5 80 32.5t78 -31t31 -79q0 -47 -32 -78.5t-78 -31.5q-47 0 -79.5 31t-32.5 78q0 46 33 78.5zM258 617.5q14 -14.5 36 -14.5q21 0 34 14.5t13 37.5t-12.5 37.5t-34.5 14.5t-36 -14.5t-14 -37.5t14 -37.5zM60.5 -6.5q-33.5 38.5 -33.5 112.5q0 34 7 70
l55 310h95l-52 -297q-6 -34 -6 -60q0 -85 67 -85q43 0 79 34t49 104l54 304h95l-92 -520h-84q7 38 8 70q-28 -41 -66.5 -61t-81.5 -20q-60 0 -93.5 38.5z" />
    <glyph glyph-name="Uhungarumlaut" unicode="&#x170;" horiz-adv-x="614" 
d="M287 772l82 142h99l-108 -142h-73zM422 772l82 142h100l-108 -142h-74zM527 698h99l-81 -471q-25 -143 -94 -207.5t-184 -64.5q-213 0 -213 213q0 45 9 99l74 431h100l-73 -420q-9 -51 -9 -90q0 -72 30 -107t91 -35q66 0 109 46.5t63 159.5z" />
    <glyph glyph-name="uhungarumlaut" unicode="&#x171;" horiz-adv-x="490" 
d="M187 556l84 158h99l-110 -158h-73zM322 556l84 158h99l-110 -158h-73zM60.5 -6.5q-33.5 38.5 -33.5 112.5q0 34 7 70l55 310h95l-52 -297q-6 -34 -6 -60q0 -85 67 -85q43 0 79 34t49 104l54 304h95l-92 -520h-84q7 38 8 70q-28 -41 -66.5 -61t-81.5 -20q-60 0 -93.5 38.5
z" />
    <glyph glyph-name="Uogonek" unicode="&#x172;" horiz-adv-x="614" 
d="M527 698h99l-81 -471q-29 -166 -121 -229q-54 -45 -80.5 -82t-32.5 -74q-2 -8 -2 -21q0 -36 33 -36q31 0 60 28l31 -53q-45 -45 -105 -45q-45 0 -73 25.5t-28 72.5q0 42 16.5 76t46.5 66h-23q-213 0 -213 213q0 45 9 99l74 431h100l-73 -420q-9 -51 -9 -90q0 -72 30 -107
t91 -35q66 0 109 46.5t63 159.5z" />
    <glyph glyph-name="uogonek" unicode="&#x173;" horiz-adv-x="490" 
d="M363 -184l29 -49q-49 -52 -106 -52q-44 0 -72 25t-28 69q0 51 30.5 92.5t79.5 77.5q6 51 6 57q-28 -41 -66.5 -61t-81.5 -20q-60 0 -93.5 38.5t-33.5 112.5q0 34 7 70l55 310h95l-52 -297q-6 -34 -6 -60q0 -85 67 -85q43 0 79 34t49 104l54 304h95l-92 -520
q-110 -75 -110 -146q0 -17 9.5 -26t24.5 -9q27 0 61 31z" />
    <glyph glyph-name="Wcircumflex" unicode="&#x174;" horiz-adv-x="852" 
d="M502 914h77l76 -142h-81l-43 82l-71 -82h-88zM545 698l38 -562l228 562h104l-317 -733h-88l-44 527l-226 -527h-87l-66 733h103l37 -559l230 559h88z" />
    <glyph glyph-name="wcircumflex" unicode="&#x175;" horiz-adv-x="681" 
d="M379 714h77l75 -158h-82l-42 90l-70 -90h-88zM418 485l38 -363l160 363h98l-249 -519h-69l-48 337l-162 -337h-71l-72 519h96l39 -365l160 365h80z" />
    <glyph glyph-name="Ycircumflex" unicode="&#x176;" horiz-adv-x="540" 
d="M346 915h77l76 -142h-81l-43 81l-71 -81h-88zM292 376l201 322h112l-281 -431l-54 -301h-100l54 305l-140 427h113z" />
    <glyph glyph-name="ycircumflex" unicode="&#x177;" horiz-adv-x="453" 
d="M266 714h76l76 -158h-83l-42 90l-70 -90h-88zM199 94l186 391h101l-305 -608q-42 -84 -84 -123t-109 -39q-66 0 -98 38l49 75q24 -24 56 -24q30 0 52 21t52 77l32 60l-91 523h101z" />
    <glyph glyph-name="Ydieresis" unicode="&#x178;" horiz-adv-x="540" 
d="M236.5 806q-18.5 19 -18.5 45t18.5 45t43.5 19q26 0 44.5 -19t18.5 -45t-18.5 -45t-44.5 -19q-25 0 -43.5 19zM418 806q-18 19 -18 45t18 45t44 19t44.5 -19t18.5 -45t-18.5 -45t-44.5 -19t-44 19zM292 376l201 322h112l-281 -431l-54 -301h-100l54 305l-140 427h113z
" />
    <glyph glyph-name="Zacute" unicode="&#x179;" horiz-adv-x="483" 
d="M307 773l80 141h97l-102 -141h-75zM105 610l16 88h407l-9 -53l-405 -590h314l-17 -89h-444l10 54l405 590h-277z" />
    <glyph glyph-name="zacute" unicode="&#x17a;" horiz-adv-x="369" 
d="M199 556l82 158h98l-106 -158h-74zM71 485h317l-9 -53l-281 -386h225l-15 -80h-347l10 54l282 386h-196z" />
    <glyph glyph-name="Zdotaccent" unicode="&#x17b;" horiz-adv-x="483" 
d="M305 804q-19 20 -19 46q0 28 19 47.5t45 19.5q28 0 47 -19.5t19 -47.5q0 -27 -19.5 -46.5t-46.5 -19.5q-26 0 -45 20zM105 610l16 88h407l-9 -53l-405 -590h314l-17 -89h-444l10 54l405 590h-277z" />
    <glyph glyph-name="zdotaccent" unicode="&#x17c;" horiz-adv-x="369" 
d="M194 589q-19 20 -19 47q0 28 19 47.5t46 19.5t46.5 -19.5t19.5 -47.5q0 -27 -19.5 -47t-46.5 -20t-46 20zM71 485h317l-9 -53l-281 -386h225l-15 -80h-347l10 54l282 386h-196z" />
    <glyph glyph-name="Zcaron" unicode="&#x17d;" horiz-adv-x="483" 
d="M303 914l43 -81l71 81h88l-131 -142h-76l-76 142h81zM105 610l16 88h407l-9 -53l-405 -590h314l-17 -89h-444l10 54l405 590h-277z" />
    <glyph glyph-name="zcaron" unicode="&#x17e;" horiz-adv-x="369" 
d="M210 714l41 -90l70 90h88l-130 -158h-77l-75 158h83zM71 485h317l-9 -53l-281 -386h225l-15 -80h-347l10 54l282 386h-196z" />
    <glyph glyph-name="longs" unicode="&#x17f;" horiz-adv-x="295" 
d="M376.5 726.5q25.5 -11.5 37.5 -29.5l-48 -70q-24 25 -55 25q-32 0 -52.5 -27.5t-32.5 -92.5l-111 -627q-18 -99 -58 -144.5t-105 -45.5q-62 0 -96 36l49 78q13 -10 23 -14.5t21 -4.5q30 0 47 27t29 93l83 474h-72l15 81h72l10 59q18 103 67 148.5t115 45.5
q36 0 61.5 -11.5z" />
    <glyph glyph-name="uni018F" unicode="&#x18f;" horiz-adv-x="588" 
d="M507 639.5q53 -70.5 53 -197.5q0 -68 -13 -140q-30 -173 -112 -260t-202 -87q-93 0 -149.5 48t-56.5 139q0 71 35.5 124.5t104.5 83.5t167 30q56 0 116 -10q4 33 4 69q0 88 -30.5 134t-86.5 46q-42 0 -81 -27.5t-69 -81.5l-74 56q44 78 106 111t130 33q105 0 158 -70.5z
M436 279q-59 8 -100 8q-102 0 -153.5 -36.5t-51.5 -102.5q0 -50 29 -76t78 -26q149 0 198 233z" />
    <glyph glyph-name="florin" unicode="&#x192;" 
d="M527.5 693.5q27.5 -16.5 39.5 -39.5l-59 -67q-18 34 -57 34q-29 0 -50.5 -25t-41.5 -95l-5 -16h128l-15 -84h-139l-73 -240q-33 -109 -82 -157.5t-119 -48.5q-40 0 -68.5 13.5t-41.5 34.5l56 71q24 -30 59 -30q31 0 53.5 28.5t47.5 110.5l66 218h-96l14 84h106l11 35
q33 109 82.5 149.5t109.5 40.5q47 0 74.5 -16.5z" />
    <glyph glyph-name="Ohorn" unicode="&#x1a0;" horiz-adv-x="632" 
d="M687 825q0 -28 -5 -65q-13 -74 -46 -103t-89 -32q57 -65 57 -189q0 -57 -12 -126q-33 -186 -114.5 -270.5t-199.5 -84.5q-110 0 -169.5 69.5t-59.5 201.5q0 58 12 128q63 356 326 356q34 0 86 -6q35 -5 56 -5q30 0 45.5 14t21.5 54q5 27 5 58h86zM498 432
q0 90 -33.5 138.5t-99.5 48.5q-74 0 -124.5 -64t-74.5 -204q-12 -67 -12 -121q0 -90 34 -137t100 -47q75 0 124 63t74 204q12 66 12 119z" />
    <glyph glyph-name="ohorn" unicode="&#x1a1;" horiz-adv-x="502" 
d="M544 612q0 -39 -5 -67q-13 -71 -42 -99t-77 -31q33 -47 33 -125q0 -33 -8 -83q-23 -131 -90 -191.5t-154 -60.5q-83 0 -131 53t-48 151q0 35 8 83q24 133 91.5 194t161.5 61q23 0 77 -7q27 -5 40 -5q19 0 32.5 14t20.5 52q5 32 4 61h87zM352 291q0 60 -23 89.5t-64 29.5
q-46 0 -83.5 -41t-54.5 -137q-7 -45 -7 -68q0 -61 24.5 -91.5t65.5 -30.5q46 0 83 41t52 133q7 39 7 75z" />
    <glyph glyph-name="Uhorn" unicode="&#x1af;" horiz-adv-x="614" 
d="M754 825q0 -39 -5 -65q-12 -70 -44.5 -99t-90.5 -35l-69 -399q-25 -143 -94 -207.5t-184 -64.5q-213 0 -213 213q0 45 9 99l74 431h100l-73 -420q-9 -51 -9 -90q0 -72 30 -107t91 -35q66 0 109 46.5t63 159.5l79 446h48q39 0 59 13.5t27 54.5q5 27 5 59h88z" />
    <glyph glyph-name="uhorn" unicode="&#x1b0;" horiz-adv-x="511" 
d="M598 611q0 -37 -5 -65q-12 -70 -45 -99t-91 -35l-79 -446h-84q7 38 8 70q-28 -41 -66.5 -61t-81.5 -20q-60 0 -93.5 38.5t-33.5 112.5q0 34 7 70l55 310h95l-52 -297q-6 -34 -6 -60q0 -85 67 -85q43 0 79 34t49 104l54 304h67q27 3 42 17.5t21 49.5q5 27 5 58h88z" />
    <glyph glyph-name="uni01CD" unicode="&#x1cd;" horiz-adv-x="596" 
d="M349 914l43 -81l71 81h88l-131 -142h-76l-76 142h81zM415 699l116 -733h-107l-26 195h-239l-92 -195h-110l369 733h89zM386 252l-40 304l-144 -304h184z" />
    <glyph glyph-name="uni01CE" unicode="&#x1ce;" horiz-adv-x="513" 
d="M280 713l42 -90l70 90h88l-131 -158h-76l-76 158h83zM493 485l-92 -519h-85q1 13 5 41l4 31q-55 -83 -145 -83q-71 0 -114.5 53t-43.5 149q0 36 8 86q23 132 86.5 193t145.5 61q47 0 80 -22.5t46 -71.5q6 21 20 82h85zM300.5 87.5q34.5 45.5 51.5 139.5q6 36 6 63
q0 63 -26 91.5t-66 28.5q-49 0 -86 -42.5t-53 -134.5q-6 -37 -6 -68q0 -60 23 -91.5t66 -31.5q56 0 90.5 45.5z" />
    <glyph glyph-name="uni01CF" unicode="&#x1cf;" horiz-adv-x="239" 
d="M174 915l43 -82l71 82h88l-131 -142h-76l-76 142h81zM115 -34h-99l129 732h99z" />
    <glyph glyph-name="uni01D0" unicode="&#x1d0;" horiz-adv-x="212" 
d="M126 713l41 -90l70 90h89l-131 -157h-76l-76 157h83zM5 -34l92 519h95l-92 -519h-95z" />
    <glyph glyph-name="uni01D1" unicode="&#x1d1;" horiz-adv-x="631" 
d="M369 914l43 -81l71 81h88l-130 -142h-77l-76 142h81zM175 624q82 86 200 86q109 0 169 -71t60 -203q0 -57 -12 -126q-33 -186 -114.5 -270.5t-199.5 -84.5q-110 0 -169.5 69.5t-59.5 201.5q0 58 12 128q32 184 114 270zM154 230q0 -90 34 -137t100 -47q75 0 124.5 63
t74.5 204q12 66 12 118q0 91 -34 139.5t-100 48.5q-74 0 -124 -64t-75 -204q-12 -67 -12 -121z" />
    <glyph glyph-name="uni01D2" unicode="&#x1d2;" horiz-adv-x="490" 
d="M264 713l42 -90l70 90h88l-130 -158h-77l-75 158h82zM120.5 435.5q66.5 61.5 153.5 61.5q83 0 131 -53t48 -152q0 -35 -8 -85q-23 -131 -90 -191.5t-154 -60.5q-83 0 -131 53t-48 151q0 35 8 83q24 132 90.5 193.5zM121 164q0 -61 24.5 -91.5t65.5 -30.5q46 0 83 41
t53 133q7 39 7 74q0 60 -23.5 90t-64.5 30q-46 0 -83.5 -41t-54.5 -137q-7 -45 -7 -68z" />
    <glyph glyph-name="uni01D3" unicode="&#x1d3;" horiz-adv-x="614" 
d="M361 914l43 -81l71 81h88l-131 -142h-76l-77 142h82zM527 698h99l-81 -471q-25 -143 -94 -207.5t-184 -64.5q-213 0 -213 213q0 45 9 99l74 431h100l-73 -420q-9 -51 -9 -90q0 -72 30 -107t91 -35q66 0 109 46.5t63 159.5z" />
    <glyph glyph-name="uni01D4" unicode="&#x1d4;" horiz-adv-x="490" 
d="M263 714l41 -90l70 90h88l-130 -158h-77l-75 158h83zM60.5 -6.5q-33.5 38.5 -33.5 112.5q0 34 7 70l55 310h95l-52 -297q-6 -34 -6 -60q0 -85 67 -85q43 0 79 34t49 104l54 304h95l-92 -520h-84q7 38 8 70q-28 -41 -66.5 -61t-81.5 -20q-60 0 -93.5 38.5z" />
    <glyph glyph-name="uni01D5" unicode="&#x1d5;" horiz-adv-x="614" 
d="M292 884l9 56h246l-10 -56h-245zM264 764.5q-18 14.5 -18 35.5q0 20 18.5 34.5t43.5 14.5q27 0 45 -14.5t18 -34.5q0 -21 -18 -35.5t-45 -14.5q-26 0 -44 14.5zM443 764.5q-18 14.5 -18 35.5q0 20 18 34.5t44 14.5t44.5 -14.5t18.5 -34.5q0 -21 -18.5 -35.5t-44.5 -14.5
t-44 14.5zM527 698h99l-81 -471q-25 -143 -94 -207.5t-184 -64.5q-213 0 -213 213q0 45 9 99l74 431h100l-73 -420q-9 -51 -9 -90q0 -72 30 -107t91 -35q66 0 109 46.5t63 159.5z" />
    <glyph glyph-name="uni01D6" unicode="&#x1d6;" horiz-adv-x="490" 
d="M207 763l15 81h245l-15 -81h-245zM170.5 590q-18.5 19 -18.5 45t18.5 45t43.5 19q26 0 44.5 -19t18.5 -45t-18 -45t-45 -19q-25 0 -43.5 19zM356.5 590q-18.5 19 -18.5 45t18.5 45t43.5 19q26 0 44.5 -19t18.5 -45t-18.5 -45t-44.5 -19q-25 0 -43.5 19zM60.5 -6.5
q-33.5 38.5 -33.5 112.5q0 34 7 70l55 310h95l-52 -297q-6 -34 -6 -60q0 -85 67 -85q43 0 79 34t49 104l54 304h95l-92 -520h-84q7 38 8 70q-28 -41 -66.5 -61t-81.5 -20q-60 0 -93.5 38.5z" />
    <glyph glyph-name="uni01D7" unicode="&#x1d7;" horiz-adv-x="614" 
d="M366 868l90 82h107l-112 -82h-85zM264 764.5q-18 14.5 -18 35.5q0 20 18.5 34.5t43.5 14.5q27 0 45 -14.5t18 -34.5q0 -21 -18 -35.5t-45 -14.5q-26 0 -44 14.5zM443 764.5q-18 14.5 -18 35.5q0 20 18 34.5t44 14.5t44.5 -14.5t18.5 -34.5q0 -21 -18.5 -35.5t-44.5 -14.5
t-44 14.5zM527 698h99l-81 -471q-25 -143 -94 -207.5t-184 -64.5q-213 0 -213 213q0 45 9 99l74 431h100l-73 -420q-9 -51 -9 -90q0 -72 30 -107t91 -35q66 0 109 46.5t63 159.5z" />
    <glyph glyph-name="uni01D8" unicode="&#x1d8;" horiz-adv-x="490" 
d="M283 734l80 139h95l-99 -139h-76zM170.5 590q-18.5 19 -18.5 45t18.5 45t43.5 19q26 0 44.5 -19t18.5 -45t-18 -45t-45 -19q-25 0 -43.5 19zM356.5 590q-18.5 19 -18.5 45t18.5 45t43.5 19q26 0 44.5 -19t18.5 -45t-18.5 -45t-44.5 -19q-25 0 -43.5 19zM60.5 -6.5
q-33.5 38.5 -33.5 112.5q0 34 7 70l55 310h95l-52 -297q-6 -34 -6 -60q0 -85 67 -85q43 0 79 34t49 104l54 304h95l-92 -520h-84q7 38 8 70q-28 -41 -66.5 -61t-81.5 -20q-60 0 -93.5 38.5z" />
    <glyph glyph-name="uni01D9" unicode="&#x1d9;" horiz-adv-x="614" 
d="M372 951l34 -34l45 34h102l-117 -83h-77l-88 83h101zM264 764.5q-18 14.5 -18 35.5q0 20 18.5 34.5t43.5 14.5q27 0 45 -14.5t18 -34.5q0 -21 -18 -35.5t-45 -14.5q-26 0 -44 14.5zM443 764.5q-18 14.5 -18 35.5q0 20 18 34.5t44 14.5t44.5 -14.5t18.5 -34.5
q0 -21 -18.5 -35.5t-44.5 -14.5t-44 14.5zM527 698h99l-81 -471q-25 -143 -94 -207.5t-184 -64.5q-213 0 -213 213q0 45 9 99l74 431h100l-73 -420q-9 -51 -9 -90q0 -72 30 -107t91 -35q66 0 109 46.5t63 159.5z" />
    <glyph glyph-name="uni01DA" unicode="&#x1da;" horiz-adv-x="490" 
d="M296 873l40 -74l66 74h88l-127 -139h-77l-78 139h88zM170.5 590q-18.5 19 -18.5 45t18.5 45t43.5 19q26 0 44.5 -19t18.5 -45t-18 -45t-45 -19q-25 0 -43.5 19zM356.5 590q-18.5 19 -18.5 45t18.5 45t43.5 19q26 0 44.5 -19t18.5 -45t-18.5 -45t-44.5 -19q-25 0 -43.5 19
zM60.5 -6.5q-33.5 38.5 -33.5 112.5q0 34 7 70l55 310h95l-52 -297q-6 -34 -6 -60q0 -85 67 -85q43 0 79 34t49 104l54 304h95l-92 -520h-84q7 38 8 70q-28 -41 -66.5 -61t-81.5 -20q-60 0 -93.5 38.5z" />
    <glyph glyph-name="uni01DB" unicode="&#x1db;" horiz-adv-x="614" 
d="M274 950h107l61 -82h-84zM264.5 764.5q-18.5 14.5 -18.5 35.5q0 20 18.5 34.5t44.5 14.5t44 -14.5t18 -34.5q0 -21 -18 -35.5t-44 -14.5t-44.5 14.5zM443 764.5q-18 14.5 -18 35.5q0 20 18 34.5t45 14.5q25 0 43.5 -14.5t18.5 -34.5q0 -21 -18 -35.5t-44 -14.5
q-27 0 -45 14.5zM527 698h99l-81 -471q-25 -143 -94 -207.5t-184 -64.5q-213 0 -213 213q0 45 9 99l74 431h100l-73 -420q-9 -51 -9 -90q0 -72 30 -107t91 -35q66 0 109 46.5t63 159.5z" />
    <glyph glyph-name="uni01DC" unicode="&#x1dc;" horiz-adv-x="490" 
d="M238 873h91l34 -139h-63zM170.5 590q-18.5 19 -18.5 45t18.5 45t43.5 19q26 0 44.5 -19t18.5 -45t-18 -45t-45 -19q-25 0 -43.5 19zM356.5 590q-18.5 19 -18.5 45t18.5 45t43.5 19q26 0 44.5 -19t18.5 -45t-18.5 -45t-44.5 -19q-25 0 -43.5 19zM60.5 -6.5
q-33.5 38.5 -33.5 112.5q0 34 7 70l55 310h95l-52 -297q-6 -34 -6 -60q0 -85 67 -85q43 0 79 34t49 104l54 304h95l-92 -520h-84q7 38 8 70q-28 -41 -66.5 -61t-81.5 -20q-60 0 -93.5 38.5z" />
    <glyph glyph-name="uni01E5" unicode="&#x1e5;" horiz-adv-x="531" 
d="M454 267h71l-15 -85h-72l-36 -210q-25 -141 -92 -199t-153 -58q-73 0 -123 38.5t-58 115.5l80 41q10 -57 37 -82t72 -25q58 0 93 43t52 140l7 40q-53 -71 -136 -71q-71 0 -114.5 53t-43.5 149q0 36 8 86q23 132 86.5 193t145.5 61q47 0 79.5 -22.5t46.5 -70.5q7 25 19 81
h85zM357 267q1 9 1 26q0 62 -25.5 89.5t-65.5 27.5q-49 0 -86 -42.5t-53 -134.5q-7 -36 -7 -70q0 -59 23.5 -90t66.5 -31q41 0 76.5 31.5t55.5 108.5h-92l15 85h91z" />
    <glyph glyph-name="gcaron" unicode="&#x1e7;" horiz-adv-x="508" 
d="M460 713l-131 -157h-76l-76 157h83l41 -90l70 90h89zM492 485l-91 -513q-25 -141 -92 -199t-152 -58q-74 0 -124 38.5t-57 115.5l79 41q10 -57 37 -82t72 -25q58 0 93 41.5t51 134.5l8 47q-53 -71 -136 -71q-71 0 -114.5 53t-43.5 149q0 36 8 86q23 132 86.5 193
t145.5 61q47 0 80 -22.5t46 -70.5q13 45 19 81h85zM358 289q0 64 -26 92.5t-66 28.5q-49 0 -86 -42.5t-53 -134.5q-6 -37 -6 -68q0 -60 23 -91.5t66 -31.5q46 0 84.5 40t56.5 138q7 46 7 69z" />
    <glyph glyph-name="uni01E9" unicode="&#x1e9;" horiz-adv-x="467" 
d="M166 925l40 -73l65 73h89l-127 -138h-77l-79 138h89zM374 485h113l-196 -211l122 -308h-107l-88 231l-96 -102l-22 -129h-95l134 761h95l-63 -355q-19 -111 -27 -146q47 53 107 122z" />
    <glyph glyph-name="uni01EF" unicode="&#x1ef;" horiz-adv-x="423" 
d="M218 714l42 -90l70 90h88l-131 -158h-76l-76 158h83zM58 486h361l-12 -68l-204 -225q72 -12 108.5 -63.5t36.5 -129.5q0 -32 -6 -65q-21 -115 -86 -167.5t-152 -52.5q-82 0 -131.5 45.5t-54.5 136.5l88 37q2 -67 30 -98.5t74 -31.5q49 0 83 35.5t46 107.5q5 27 5 47
q0 55 -30 86.5t-91 31.5q-25 0 -48 -4l13 77l188 216h-232z" />
    <glyph glyph-name="uni01F0" unicode="&#x1f0;" horiz-adv-x="189" 
d="M121 713l42 -90l70 90h88l-130 -158h-77l-75 158h82zM-154.5 -274q-27.5 11 -40.5 29l50 74q21 -25 55 -25q33 0 52 26.5t31 95.5l99 559h96l-101 -570q-19 -108 -64.5 -154t-113.5 -46q-36 0 -63.5 11z" />
    <glyph glyph-name="uni01F9" unicode="&#x1f9;" horiz-adv-x="490" 
d="M196 713h95l34 -157h-65zM413.5 459q33.5 -38 33.5 -112q0 -35 -7 -71l-55 -310h-95l53 297q6 33 6 59q0 85 -67 85q-44 0 -80 -34t-49 -104l-54 -303h-95l92 520h84q-4 -24 -8 -70q29 40 67.5 60.5t81.5 20.5q59 0 92.5 -38z" />
    <glyph glyph-name="Aringacute" unicode="&#x1fa;" horiz-adv-x="596" 
d="M378 875l80 74h97l-102 -74h-75zM323.5 832.5q29.5 16.5 71.5 16.5q44 0 71.5 -16.5t27.5 -41.5t-29 -41.5t-70 -16.5q-43 0 -72 16.5t-29 41.5t29.5 41.5zM363 775q12 -6 32 -6t31.5 6t11.5 16t-11.5 16t-31.5 6t-32 -6t-12 -16t12 -16zM415 699l116 -733h-107l-26 195
h-239l-92 -195h-110l369 733h89zM386 252l-40 304l-144 -304h184z" />
    <glyph glyph-name="aringacute" unicode="&#x1fb;" horiz-adv-x="513" 
d="M292 782l76 125h97l-97 -125h-76zM239.5 708.5q29.5 29.5 71.5 29.5q43 0 70.5 -28t27.5 -72q0 -43 -29 -70.5t-70 -27.5q-42 0 -71 27.5t-29 69.5t29.5 71.5zM278.5 604.5q12.5 -13.5 32.5 -13.5q19 0 31 13t12 34t-12 34.5t-31 13.5q-20 0 -32.5 -13.5t-12.5 -34.5
q0 -20 12.5 -33.5zM493 485l-92 -519h-85q1 13 5 41l4 31q-55 -83 -145 -83q-71 0 -114.5 53t-43.5 149q0 36 8 86q23 132 86.5 193t145.5 61q47 0 80 -22.5t46 -71.5q6 21 20 82h85zM300.5 87.5q34.5 45.5 51.5 139.5q6 36 6 63q0 63 -26 91.5t-66 28.5q-49 0 -86 -42.5
t-53 -134.5q-6 -37 -6 -68q0 -60 23 -91.5t66 -31.5q56 0 90.5 45.5z" />
    <glyph glyph-name="AEacute" unicode="&#x1fc;" horiz-adv-x="850" 
d="M690 914h97l-102 -141h-75zM874 698l-15 -89h-278l-39 -222h248l-15 -89h-249l-42 -242h287l-17 -90h-387l36 204h-196l-141 -204h-109l510 732h407zM471 557l-202 -297h150z" />
    <glyph glyph-name="aeacute" unicode="&#x1fd;" horiz-adv-x="719" 
d="M468 713h98l-107 -158h-74zM608 117l67 -49q-29 -57 -80 -85.5t-108 -28.5t-96 27.5t-56 80.5q-30 -53 -75.5 -80t-100.5 -27q-65 0 -105.5 36t-40.5 101q0 11 4 39q14 81 72.5 121t146.5 40q38 0 84 -8q3 23 3 42q0 44 -18.5 65t-56.5 21q-33 0 -58.5 -16.5t-44.5 -54.5
l-66 43q27 55 75.5 84t109.5 29q104 0 133 -84q63 84 166 84q68 0 106.5 -37t38.5 -102q0 -82 -58.5 -125t-172.5 -43q-37 0 -72 4q-1 -9 -1 -27q0 -65 25 -95t69 -30q68 0 110 75zM468 379q-35 -32 -52 -108q31 -4 63 -4q64 0 97.5 21.5t33.5 63.5q0 59 -63 59
q-44 0 -79 -32zM307 208q-36 6 -66 6q-110 0 -126 -91q-2 -16 -2 -22q0 -31 17 -48t44 -17q41 0 77 31.5t47 88.5z" />
    <glyph glyph-name="Oslashacute" unicode="&#x1fe;" horiz-adv-x="633" 
d="M373 773l80 141h97l-102 -141h-75zM564 733h95l-91 -127q37 -68 37 -171q0 -57 -12 -125q-34 -186 -115.5 -270.5t-199.5 -84.5q-89 0 -144 45l-50 -68h-96l94 131q-33 66 -33 163q0 59 12 128q32 184 114 270t200 86q86 0 141 -44zM154 237q0 -37 6 -67l296 412
q-34 37 -91 37q-74 0 -124.5 -64t-75.5 -204q-11 -66 -11 -114zM499 424q0 40 -8 75l-296 -413q33 -40 94 -40q75 0 124.5 63t74.5 204q11 64 11 111z" />
    <glyph glyph-name="oslashacute" unicode="&#x1ff;" horiz-adv-x="491" 
d="M253 555l83 158h98l-107 -158h-74zM416 520h85l-77 -103q29 -50 29 -126q0 -36 -8 -84q-23 -131 -90 -191.5t-154 -60.5q-62 0 -102 28l-38 -51h-85l76 100q-30 52 -30 127q0 35 8 83q24 132 90.5 193.5t153.5 61.5q61 0 103 -30zM118 171q0 -28 4 -45l198 266
q-22 20 -55 20q-47 0 -86 -41.5t-56 -138.5q-5 -27 -5 -61zM356 284q0 21 -3 39l-197 -264q21 -18 54 -18q48 0 86 41t54 134q6 39 6 68z" />
    <glyph glyph-name="uni0218" unicode="&#x218;" horiz-adv-x="481" 
d="M368 4q-59 -49 -150 -49q-96 0 -157 52.5t-68 139.5l87 46q8 -72 46.5 -110t96.5 -38q53 0 83 36q19 22 25 58q2 16 2 24q0 32 -15 57t-37 43t-61 45q-44 29 -71.5 52.5t-46.5 58t-19 80.5q0 22 4 42q16 85 78 129q57 40 139 40q86 0 136.5 -45.5t52.5 -117.5l-85 -45
q-16 118 -110 118q-43 0 -73 -24q-36 -29 -36 -84q0 -41 26.5 -68.5t81.5 -63.5q46 -30 74 -54t48 -60t20 -86q0 -21 -5 -49q-16 -82 -66 -127zM242.5 -87.5q15.5 -15.5 15.5 -46.5q0 -6 -2 -24q-10 -55 -50.5 -88t-103.5 -41l8 48q64 16 78 56h-6q-23 0 -35.5 12.5
t-12.5 32.5q0 29 19.5 47.5t47.5 18.5q26 0 41.5 -15.5z" />
    <glyph glyph-name="uni0219" unicode="&#x219;" horiz-adv-x="382" 
d="M276 -7q-49 -38 -122 -38q-71 0 -116.5 37t-50.5 103l77 40q5 -49 30.5 -72.5t63.5 -23.5q31 0 50 14t24 42q1 5 1 15q0 29 -19.5 47.5t-59.5 43.5q-50 29 -77 57.5t-27 77.5q0 15 3 31q10 60 54 94q46 36 118 36q66 0 106.5 -35.5t44.5 -91.5l-78 -39q-4 37 -24.5 60
t-54.5 23q-30 0 -49.5 -16.5t-19.5 -47.5q0 -25 18.5 -43t57.5 -41q35 -21 56.5 -38t37 -43t15.5 -61q0 -14 -3 -31q-10 -62 -56 -100zM183.5 -84q15.5 -16 15.5 -46q0 -6 -2 -24q-10 -55 -50.5 -88.5t-103.5 -40.5l8 47q64 16 78 56h-6q-23 1 -35.5 13.5t-12.5 32.5
q0 28 19.5 47t47.5 19q26 0 41.5 -16z" />
    <glyph glyph-name="uni021A" unicode="&#x21a;" horiz-adv-x="489" 
d="M88 698h463l-14 -88h-183l-113 -644h-100l113 644h-182zM219.5 -87.5q15.5 -15.5 15.5 -46.5q0 -6 -2 -24q-10 -55 -51 -88t-103 -41l8 48q64 16 78 56h-6q-23 0 -35.5 12.5t-12.5 32.5q0 29 19.5 47.5t47.5 18.5q26 0 41.5 -15.5z" />
    <glyph glyph-name="uni021B" unicode="&#x21b;" horiz-adv-x="329" 
d="M326 404h-126l-45 -250q-5 -32 -5 -49q0 -32 12.5 -48t39.5 -16q28 0 57 19l22 -74q-45 -31 -104 -31q-55 0 -89.5 30t-34.5 101q0 28 6 62l45 256h-73l14 82h74l26 148h95l-26 -148h126zM186.5 -87.5q15.5 -15.5 15.5 -45.5q0 -16 -2 -25q-10 -54 -50.5 -87.5
t-102.5 -41.5l8 48q63 15 78 56h-7q-22 0 -34.5 13t-12.5 32q0 28 19.5 47t47.5 19q25 0 40.5 -15.5z" />
    <glyph glyph-name="uni021F" unicode="&#x21f;" horiz-adv-x="490" 
d="M166 925l40 -73l65 73h89l-127 -138h-77l-78 138h88zM413.5 459q33.5 -38 33.5 -112q0 -35 -7 -71l-55 -310h-95l53 297q6 33 6 58q0 86 -67 86q-45 0 -81 -36t-49 -108l-53 -297h-95l135 761h95l-53 -299q28 34 64 51.5t76 17.5q59 0 92.5 -38z" />
    <glyph glyph-name="uni0237" unicode="&#x237;" horiz-adv-x="189" 
d="M-154.5 -274q-27.5 11 -40.5 29l50 74q21 -25 55 -25q33 0 52 26.5t31 95.5l99 559h96l-101 -570q-19 -108 -64.5 -154t-113.5 -46q-36 0 -63.5 11z" />
    <glyph glyph-name="uni0251" unicode="&#x251;" horiz-adv-x="513" 
d="M493 485l-92 -519h-85l3 20l3 24t3 28q-54 -83 -144 -83q-71 0 -114.5 53t-43.5 149q0 36 8 86q23 132 86.5 193t145.5 61q47 0 80 -22.5t46 -71.5q10 36 19 82h85zM300.5 87.5q34.5 45.5 52.5 139.5q6 36 6 63q0 63 -26 91.5t-66 28.5q-49 0 -86 -42.5t-53 -134.5
q-7 -36 -7 -70q0 -59 23.5 -90t66.5 -31q55 0 89.5 45.5z" />
    <glyph glyph-name="uni0259" unicode="&#x259;" horiz-adv-x="437" 
d="M144 391.5q-27 -17.5 -49 -56.5l-67 48q29 57 80 85.5t108 28.5q82 0 132.5 -54.5t50.5 -154.5q0 -39 -7 -78q-23 -130 -93 -192.5t-158 -62.5q-69 0 -107.5 36.5t-38.5 101.5q0 82 60 121t182 39q19 0 61 -2q2 24 2 33q0 65 -25.5 95t-69.5 30q-34 0 -61 -17.5z
M233.5 71q34.5 30 51.5 102q-50 4 -67 4q-63 0 -94 -18.5t-31 -59.5q0 -58 63 -58q43 0 77.5 30z" />
    <glyph glyph-name="uni0261" unicode="&#x261;" horiz-adv-x="508" 
d="M492 485l-91 -513q-25 -141 -92 -199t-152 -58q-74 0 -124 38.5t-57 115.5l79 41q10 -57 37 -82t72 -25q58 0 93 41.5t51 134.5l8 47q-53 -71 -136 -71q-71 0 -114.5 53t-43.5 149q0 36 8 86q23 132 86.5 193t145.5 61q47 0 80 -22.5t46 -70.5q13 45 19 81h85zM358 289
q0 64 -26 92.5t-66 28.5q-49 0 -86 -42.5t-53 -134.5q-6 -37 -6 -68q0 -60 23 -91.5t66 -31.5q46 0 84.5 40t56.5 138q7 46 7 69z" />
    <glyph glyph-name="uni0292" unicode="&#x292;" horiz-adv-x="423" 
d="M58 486h361l-12 -68l-204 -225q72 -12 108.5 -63.5t36.5 -129.5q0 -32 -6 -65q-21 -115 -86 -167.5t-152 -52.5q-82 0 -131.5 45.5t-54.5 136.5l88 37q2 -67 30 -98.5t74 -31.5q49 0 83 35.5t46 107.5q5 27 5 47q0 55 -30 86.5t-91 31.5q-25 0 -48 -4l13 77l188 216h-232
z" />
    <glyph glyph-name="uni02BB" unicode="&#x2bb;" horiz-adv-x="237" 
d="M270 720q-79 -18 -99 -94q27 -1 42.5 -17.5t15.5 -42.5q0 -30 -20 -51.5t-50 -21.5q-29 0 -47 19.5t-18 57.5q0 14 3 30q14 74 60 122.5t115 58.5z" />
    <glyph glyph-name="circumflex" unicode="&#x2c6;" horiz-adv-x="352" 
d="M216 713h76l76 -157h-83l-41 90l-70 -90h-89z" />
    <glyph glyph-name="caron" unicode="&#x2c7;" horiz-adv-x="352" 
d="M196 713l41 -90l70 90h88l-130 -157h-77l-75 157h83z" />
    <glyph glyph-name="breve" unicode="&#x2d8;" horiz-adv-x="288" 
d="M117.5 586.5q-28.5 31.5 -28.5 87.5q0 18 3 39h78q-2 -22 -2 -31q0 -57 37 -57q25 0 39.5 22t23.5 66h82q-12 -76 -50.5 -117t-102.5 -41q-51 0 -79.5 31.5z" />
    <glyph glyph-name="dotaccent" unicode="&#x2d9;" horiz-adv-x="202" 
d="M119 589q-19 20 -19 47t19 46.5t46 19.5t46.5 -19.5t19.5 -46.5t-19.5 -47t-46.5 -20t-46 20z" />
    <glyph glyph-name="ring" unicode="&#x2da;" horiz-adv-x="295" 
d="M137.5 732.5q32.5 32.5 79.5 32.5q48 0 78.5 -31t30.5 -79q0 -47 -32 -78.5t-78 -31.5t-78.5 31t-32.5 78q0 46 32.5 78.5zM181.5 617q13.5 -15 35.5 -15q21 0 34.5 15t13.5 38t-13 37.5t-35 14.5t-35.5 -14.5t-13.5 -37.5t13.5 -38z" />
    <glyph glyph-name="ogonek" unicode="&#x2db;" horiz-adv-x="286" 
d="M163 -233q-26 -27 -51.5 -39.5t-54.5 -12.5q-44 0 -72.5 25t-28.5 70q0 107 141 189l52 -33q-110 -75 -110 -144q0 -19 9 -28t25 -9q27 0 61 31z" />
    <glyph glyph-name="tilde" unicode="&#x2dc;" horiz-adv-x="343" 
d="M88 572q30 120 99 120q19 0 32.5 -8t31.5 -24q20 -18 30 -18q12 0 19.5 13t13.5 36h69q-13 -58 -38.5 -89.5t-60.5 -31.5q-19 0 -32.5 8t-28.5 22q-3 2 -10 7.5t-12 8t-10 2.5q-12 0 -20 -11t-14 -35h-69z" />
    <glyph glyph-name="hungarumlaut" unicode="&#x2dd;" horiz-adv-x="373" 
d="M155 556l84 157h100l-110 -157h-74zM291 556l84 157h99l-110 -157h-73z" />
    <glyph glyph-name="dotbelowcomb" unicode="&#x323;" horiz-adv-x="0" 
d="M-225 -215q-19 20 -19 47t19 46.5t46 19.5q28 0 47 -19.5t19 -46.5t-19.5 -47t-46.5 -20t-46 20z" />
    <glyph glyph-name="uni0326" unicode="&#x326;" horiz-adv-x="0" 
d="M-219.5 -87.5q15.5 -15.5 15.5 -45.5q0 -16 -2 -25q-10 -54 -50.5 -87.5t-102.5 -41.5l8 48q63 16 77 56h-6q-23 0 -35 12t-12 32q0 29 19.5 48t47.5 19q25 0 40.5 -15.5z" />
    <glyph glyph-name="uni0338" unicode="&#x338;" horiz-adv-x="0" 
d="M-524 -274l489 972h102l-489 -972h-102z" />
    <glyph glyph-name="tonos" unicode="&#x384;" horiz-adv-x="296" 
d="M169 556l75 157h102l-98 -157h-79z" />
    <glyph glyph-name="dieresistonos" unicode="&#x385;" horiz-adv-x="600" 
d="M240 556l59 157h87l-81 -157h-65zM136.5 591q-17.5 19 -17.5 46q0 24 18 42t42 18q26 0 43.5 -18t17.5 -44t-17.5 -44.5t-43.5 -18.5q-25 0 -42.5 19zM393.5 590.5q-17.5 18.5 -17.5 44.5t17.5 44t42.5 18t43 -18t18 -44t-18 -44.5t-43 -18.5t-42.5 18.5z" />
    <glyph glyph-name="Alphatonos" unicode="&#x386;" horiz-adv-x="596" 
d="M415 699l116 -733h-107l-26 195h-239l-92 -195h-110l369 733h89zM93 541l54 158h97l-77 -158h-74zM386 252l-40 304l-144 -304h184z" />
    <glyph glyph-name="Epsilontonos" unicode="&#x388;" horiz-adv-x="607" 
d="M61 540l54 158h96l-77 -158h-73zM253 698h378l-16 -87h-278l-39 -224h249l-16 -88h-249l-42 -246h287l-16 -87h-387z" />
    <glyph glyph-name="Etatonos" unicode="&#x389;" horiz-adv-x="736" 
d="M61 540l54 158h96l-77 -158h-73zM298 390h289l55 308h100l-129 -732h-100l59 335h-289l-59 -335h-100l129 732h100z" />
    <glyph glyph-name="Iotatonos" unicode="&#x38a;" horiz-adv-x="347" 
d="M61 540l54 158h96l-77 -158h-73zM224 -34h-100l129 732h100z" />
    <glyph glyph-name="Omicrontonos" unicode="&#x38c;" horiz-adv-x="704" 
d="M248 624q82 86 200 86q109 0 169 -71t60 -203q0 -57 -12 -126q-33 -186 -114.5 -270.5t-199.5 -84.5q-110 0 -169.5 69.5t-59.5 201.5q0 58 12 128q32 184 114 270zM57 540l54 158h96l-77 -158h-73zM227 230q0 -90 34 -137t100 -47q75 0 124.5 63t74.5 204q12 66 12 118
q0 91 -34 139.5t-100 48.5q-74 0 -124 -64t-75 -204q-12 -67 -12 -121z" />
    <glyph glyph-name="Upsilontonos" unicode="&#x38e;" horiz-adv-x="652" 
d="M46 540l54 158h96l-77 -158h-73zM405 376l201 322h112l-281 -431l-54 -301h-100l54 305l-140 427h112z" />
    <glyph glyph-name="Omegatonos" unicode="&#x38f;" horiz-adv-x="728" 
d="M522 55h137l-16 -89h-250l19 102q142 83 180 286q8 41 8 85q0 86 -37.5 132.5t-105.5 46.5q-82 0 -137 -65.5t-75 -182.5q-10 -53 -10 -100q0 -136 86 -202l-18 -102h-249l16 89h138q-79 82 -79 221q0 49 10 102q27 155 114 243.5t217 88.5q112 0 175.5 -67.5
t63.5 -189.5q0 -42 -7 -84q-34 -205 -180 -314zM61 540l54 158h96l-77 -158h-73z" />
    <glyph glyph-name="iotadieresistonos" unicode="&#x390;" horiz-adv-x="241" 
d="M114 556l59 157h87l-81 -157h-65zM10.5 591q-17.5 19 -17.5 46q0 24 18 42t42 18q25 0 43 -18t18 -44t-18 -44.5t-43 -18.5t-42.5 19zM267.5 590.5q-17.5 18.5 -17.5 44.5t17.5 44t42.5 18t43 -18t18 -44t-18 -44.5t-43 -18.5t-42.5 18.5zM191 -28q-31 -17 -73 -17
q-96 0 -96 99q0 19 5 47l67 384h95l-65 -372q-3 -18 -3 -31q0 -21 8.5 -30.5t25.5 -9.5q18 0 38 9z" />
    <glyph glyph-name="Alpha" unicode="&#x391;" horiz-adv-x="596" 
d="M415 699l116 -733h-107l-26 195h-239l-92 -195h-110l369 733h89zM386 252l-40 304l-144 -304h184z" />
    <glyph glyph-name="Beta" unicode="&#x392;" horiz-adv-x="551" 
d="M414 344q42 -20 64 -58t22 -89q0 -24 -4 -45q-17 -94 -80 -140t-165 -46h-235l129 732h187q87 0 137.5 -47.5t50.5 -123.5q0 -23 -4 -42q-17 -100 -102 -141zM281 382q53 0 87.5 27.5t44.5 79.5q2 18 2 25q0 44 -27.5 70.5t-77.5 26.5h-82l-40 -229h93zM394 192
q0 48 -28.5 78t-83.5 30h-109l-43 -247h119q62 0 97 25.5t45 80.5q3 17 3 33z" />
    <glyph glyph-name="Gamma" unicode="&#x393;" horiz-adv-x="458" 
d="M115 -34h-99l129 732h377l-16 -89h-277z" />
    <glyph glyph-name="uni0394" unicode="&#x394;" horiz-adv-x="585" 
d="M329 698h89l106 -672l-12 -60h-547l11 60zM417 58l-72 491l-248 -491h320z" />
    <glyph glyph-name="Epsilon" unicode="&#x395;" horiz-adv-x="499" 
d="M145 698h377l-15 -87h-278l-40 -224h249l-15 -88h-249l-43 -246h287l-16 -87h-386z" />
    <glyph glyph-name="Zeta" unicode="&#x396;" horiz-adv-x="483" 
d="M105 610l16 88h407l-9 -53l-405 -590h314l-17 -89h-444l10 54l405 590h-277z" />
    <glyph glyph-name="Eta" unicode="&#x397;" horiz-adv-x="627" 
d="M190 390h289l54 308h100l-129 -732h-100l59 335h-289l-59 -335h-99l129 732h99z" />
    <glyph glyph-name="Theta" unicode="&#x398;" horiz-adv-x="670" 
d="M180.5 618q89.5 92 222.5 92q112 0 176.5 -68.5t64.5 -205.5q0 -55 -12 -123q-32 -177 -118 -267.5t-224 -90.5q-113 0 -177.5 68t-64.5 204q0 57 12 124q31 175 120.5 267zM154 233q0 -187 150 -187q84 0 140.5 67.5t80.5 201.5q11 61 11 117q0 187 -148 187
q-84 0 -141.5 -67t-80.5 -201q-12 -67 -12 -118zM441 293h-206l16 89h206z" />
    <glyph glyph-name="Iota" unicode="&#x399;" horiz-adv-x="239" 
d="M115 -34h-99l129 732h99z" />
    <glyph glyph-name="Kappa" unicode="&#x39a;" horiz-adv-x="584" 
d="M509 698h124l-274 -290l168 -442h-117l-130 358l-125 -131l-40 -227h-99l129 732h99l-48 -276l-8 -41l-8 -40l87 95z" />
    <glyph glyph-name="Lambda" unicode="&#x39b;" horiz-adv-x="586" 
d="M413 -34l-74 577l-268 -577h-114l361 732h93l111 -732h-109z" />
    <glyph glyph-name="Mu" unicode="&#x39c;" horiz-adv-x="716" 
d="M644 698h78l-129 -732h-97l89 502l-215 -305h-54l-113 325l-93 -522h-94l129 732h81l136 -413z" />
    <glyph glyph-name="Nu" unicode="&#x39d;" horiz-adv-x="619" 
d="M226 698l211 -539l95 539h92l-129 -732h-81l-211 534l-95 -534h-92l129 732h81z" />
    <glyph glyph-name="Xi" unicode="&#x39e;" horiz-adv-x="518" 
d="M539 606h-443l17 93h443zM449 297h-371l16 94h371zM426 -34h-443l17 93h443z" />
    <glyph glyph-name="Omicron" unicode="&#x39f;" horiz-adv-x="631" 
d="M175 624q82 86 200 86q109 0 169 -71t60 -203q0 -57 -12 -126q-33 -186 -114.5 -270.5t-199.5 -84.5q-110 0 -169.5 69.5t-59.5 201.5q0 58 12 128q32 184 114 270zM154 230q0 -90 34 -137t100 -47q75 0 124.5 63t74.5 204q12 66 12 118q0 91 -34 139.5t-100 48.5
q-74 0 -124 -64t-75 -204q-12 -67 -12 -121z" />
    <glyph glyph-name="Pi" unicode="&#x3a0;" horiz-adv-x="627" 
d="M145 698h488l-129 -732h-100l113 643h-288l-114 -643h-99z" />
    <glyph glyph-name="Rho" unicode="&#x3a1;" horiz-adv-x="513" 
d="M325 698q97 0 149.5 -52.5t52.5 -140.5q0 -23 -5 -53q-18 -98 -84.5 -154.5t-171.5 -56.5h-102l-49 -275h-99l129 732h180zM421 495q0 54 -31 85.5t-85 31.5h-76l-50 -285h89q62 0 100.5 36t49.5 97q3 18 3 35z" />
    <glyph glyph-name="Sigma" unicode="&#x3a3;" horiz-adv-x="485" 
d="M91 618l14 81h423l-15 -89h-310l146 -283l-247 -272h327l-16 -89h-447l14 81l257 289z" />
    <glyph glyph-name="Tau" unicode="&#x3a4;" horiz-adv-x="489" 
d="M88 698h463l-14 -88h-183l-113 -644h-100l113 644h-182z" />
    <glyph glyph-name="Upsilon" unicode="&#x3a5;" horiz-adv-x="540" 
d="M292 376l201 322h112l-281 -431l-54 -301h-100l54 305l-140 427h113z" />
    <glyph glyph-name="Phi" unicode="&#x3a6;" horiz-adv-x="697" 
d="M460 617q98 -15 159.5 -77t61.5 -165q0 -34 -5 -60q-20 -117 -106.5 -188.5t-210.5 -81.5l-14 -79h-100l15 82q-99 14 -161 75.5t-62 164.5q0 30 6 63q21 118 105 189t212 80l14 78h100zM143 298q0 -67 35.5 -106.5t97.5 -52.5l69 390q-79 -9 -131.5 -56t-66.5 -130
q-4 -21 -4 -45zM576 367q0 69 -36 108t-97 51l-68 -390q80 9 131 55.5t65 125.5q5 30 5 50z" />
    <glyph glyph-name="Chi" unicode="&#x3a7;" horiz-adv-x="574" 
d="M314 432l198 266h118l-277 -363l156 -369h-114l-112 281l-210 -281h-116l286 377l-149 355h113z" />
    <glyph glyph-name="Psi" unicode="&#x3a8;" horiz-adv-x="691" 
d="M622 698h100l-42 -247q-26 -149 -102.5 -215.5t-203.5 -75.5l-34 -194h-100l35 195q-98 9 -152.5 58t-54.5 151q0 33 8 81l43 247h99l-40 -230q-7 -38 -7 -73q0 -72 31.5 -104t88.5 -39l78 446h100l-78 -446q74 8 122.5 55.5t68.5 160.5z" />
    <glyph glyph-name="uni03A9" unicode="&#x3a9;" horiz-adv-x="651" 
d="M445 55h138l-17 -89h-249l18 102q142 83 180 286q8 41 8 85q0 86 -37.5 132.5t-105.5 46.5q-82 0 -137 -65.5t-75 -182.5q-10 -53 -10 -100q0 -136 87 -202l-19 -102h-249l17 89h137q-79 82 -79 221q0 49 10 102q27 155 114 243.5t218 88.5q112 0 175.5 -67.5
t63.5 -187.5q0 -38 -8 -86q-34 -205 -180 -314z" />
    <glyph glyph-name="Iotadieresis" unicode="&#x3aa;" horiz-adv-x="239" 
d="M86.5 806q-18.5 19 -18.5 45t18.5 45t43.5 19q26 0 44.5 -19t18.5 -45t-18.5 -45t-44.5 -19q-25 0 -43.5 19zM268 806q-18 19 -18 45t18 45t44 19t44.5 -19t18.5 -45t-18.5 -45t-44.5 -19t-44 19zM115 -34h-99l129 732h99z" />
    <glyph glyph-name="Upsilondieresis" unicode="&#x3ab;" horiz-adv-x="540" 
d="M236.5 806q-18.5 19 -18.5 45t18.5 45t43.5 19q26 0 44.5 -19t18.5 -45t-18.5 -45t-44.5 -19q-25 0 -43.5 19zM418 806q-18 19 -18 45t18 45t44 19t44.5 -19t18.5 -45t-18.5 -45t-44.5 -19t-44 19zM292 376l201 322h112l-281 -431l-54 -301h-100l54 305l-140 427h113z
" />
    <glyph glyph-name="alphatonos" unicode="&#x3ac;" horiz-adv-x="529" 
d="M325 714h102l-98 -157h-79zM425 99q-2 -16 -2 -21q0 -34 29 -34q13 0 24 5l-1 -80q-28 -14 -65 -14q-43 0 -63 21t-22 62q-55 -83 -145 -83q-71 0 -114.5 53t-43.5 149q0 36 8 86q23 132 86.5 193t145.5 61q103 0 128 -98q16 62 20 86h83zM358 289q0 64 -26 92.5
t-66 28.5q-49 0 -86 -42.5t-53 -134.5q-6 -37 -6 -68q0 -60 23 -91.5t66 -31.5q46 0 84.5 40t56.5 138q7 46 7 69z" />
    <glyph glyph-name="epsilontonos" unicode="&#x3ad;" horiz-adv-x="399" 
d="M224 556l75 157h101l-98 -157h-78zM305 121l66 -44q-30 -60 -82 -91t-124 -31q-76 0 -119.5 33t-43.5 92q0 15 3 30q9 51 42.5 84.5t87.5 45.5q-34 12 -52 38t-18 60q0 16 2 25q11 62 63.5 98t126.5 36q65 0 105 -29t48 -78l-80 -43q-5 31 -27.5 48t-54.5 17
q-35 0 -60.5 -19.5t-25.5 -54.5q0 -27 20 -43.5t62 -16.5h40l-14 -83h-42q-51 0 -83 -20.5t-39 -58.5q-1 -5 -1 -13q0 -29 20 -45.5t54 -16.5q81 0 126 80z" />
    <glyph glyph-name="etatonos" unicode="&#x3ae;" horiz-adv-x="513" 
d="M345 713h101l-98 -157h-78zM436.5 458.5q33.5 -38.5 33.5 -112.5q0 -34 -7 -70l-98 -550h-95l95 537q6 35 6 60q0 84 -67 84q-44 0 -80 -35t-49 -108l-53 -298h-96l68 381q3 17 3 27q0 19 -7 27t-22 8q-14 0 -24 -5l2 79q26 14 65 14q41 0 62 -19.5t23 -59.5q29 39 67 59
t80 20q60 0 93.5 -38.5z" />
    <glyph glyph-name="iotatonos" unicode="&#x3af;" horiz-adv-x="241" 
d="M109 556l75 157h102l-98 -157h-79zM191 -28q-31 -17 -73 -17q-96 0 -96 99q0 19 5 47l67 384h95l-65 -372q-3 -18 -3 -31q0 -21 8.5 -30.5t25.5 -9.5q18 0 38 9z" />
    <glyph glyph-name="upsilondieresistonos" unicode="&#x3b0;" horiz-adv-x="478" 
d="M249 556l59 157h87l-80 -157h-66zM145.5 590.5q-17.5 18.5 -17.5 44.5q0 25 17.5 43.5t42.5 18.5q26 0 44 -18t18 -44t-18 -44.5t-44 -18.5q-25 0 -42.5 18.5zM402.5 590.5q-17.5 18.5 -17.5 44.5t17.5 44t42.5 18t43 -18t18 -44t-18 -44.5t-43 -18.5t-42.5 18.5zM92 485
h95l-51 -289q-7 -38 -7 -70q0 -43 16.5 -63.5t51.5 -20.5q106 0 142 206q12 74 12 131q0 47 -8 106h101q6 -51 6 -100q0 -73 -12 -136q-26 -148 -87.5 -221t-163.5 -73q-155 0 -155 157q0 37 7 75z" />
    <glyph glyph-name="alpha" unicode="&#x3b1;" horiz-adv-x="530" 
d="M426 99q-2 -16 -2 -21q0 -34 29 -34q13 0 24 5l-1 -80q-28 -14 -66 -14q-43 0 -63 21t-21 62q-55 -83 -145 -83q-71 0 -114.5 53t-43.5 149q0 36 8 86q23 132 86.5 193t145.5 61q103 0 128 -98q16 62 20 86h82zM358 291q0 63 -25.5 91t-65.5 28q-49 0 -86 -42.5
t-53 -134.5q-7 -36 -7 -70q0 -59 23.5 -90t66.5 -31q46 0 84.5 40t55.5 138q7 38 7 71z" />
    <glyph glyph-name="beta" unicode="&#x3b2;" horiz-adv-x="519" 
d="M383 369q46 -18 69.5 -57.5t23.5 -97.5q0 -24 -5 -57q-17 -98 -73.5 -150t-145.5 -52q-104 0 -141 70l-52 -299h-95l138 778q22 124 82 179t146 55q80 0 124 -43t44 -117q0 -25 -4 -48q-17 -113 -111 -161zM263 404q56 0 88.5 34.5t42.5 92.5q4 19 4 38q0 40 -19.5 61.5
t-56.5 21.5q-101 0 -130 -170l-43 -250q-6 -31 -6 -60q0 -62 27.5 -96t80.5 -34q99 0 122 124q4 21 4 44q0 55 -29 84t-84 29h-32l15 81h16z" />
    <glyph glyph-name="gamma" unicode="&#x3b3;" horiz-adv-x="455" 
d="M444 485q-3 -61 -9 -97q-18 -101 -72 -206t-158 -226l-40 -230h-95l38 215l-64 544h102l38 -426q68 93 104 172t50 154q7 50 8 100h98z" />
    <glyph glyph-name="delta" unicode="&#x3b4;" horiz-adv-x="495" 
d="M473 718l-14 -82h-189l132 -172q56 -73 56 -169q0 -40 -7 -76q-21 -129 -84.5 -196.5t-156.5 -67.5q-92 0 -141 54t-49 150q0 39 7 75q21 118 83 183t152 72l-121 158l13 71h319zM357 284q0 61 -24.5 92t-66.5 31q-51 0 -89.5 -47t-51.5 -134q-5 -35 -5 -57q0 -61 24 -94
t69 -33q54 0 89.5 47.5t49.5 136.5q5 35 5 58z" />
    <glyph glyph-name="epsilon" unicode="&#x3b5;" horiz-adv-x="399" 
d="M305 121l66 -44q-30 -60 -82 -91t-124 -31q-76 0 -119.5 33t-43.5 92q0 15 3 30q9 51 42.5 84.5t87.5 45.5q-34 12 -52 38t-18 60q0 16 2 25q11 62 63.5 98t126.5 36q65 0 105 -29t48 -78l-80 -43q-5 31 -27.5 48t-54.5 17q-35 0 -60.5 -19.5t-25.5 -54.5q0 -27 20 -43.5
t62 -16.5h40l-14 -83h-42q-51 0 -83 -20.5t-39 -58.5q-1 -5 -1 -13q0 -29 20 -45.5t54 -16.5q81 0 126 80z" />
    <glyph glyph-name="zeta" unicode="&#x3b6;" horiz-adv-x="425" 
d="M476 658q-172 -119 -254 -228.5t-99 -212.5q-5 -30 -5 -48q0 -41 15.5 -67t40.5 -41t65 -29q62 -22 91.5 -50.5t29.5 -71.5q0 -16 -2 -25q-8 -44 -36 -73t-77 -53l-43 57q31 21 43.5 37t12.5 36q0 22 -20 37.5t-62 28.5q-72 23 -115.5 69t-43.5 133q0 29 6 63
q20 112 99 222.5t212 202.5h-213l16 82h351z" />
    <glyph glyph-name="eta" unicode="&#x3b7;" horiz-adv-x="513" 
d="M436.5 458.5q33.5 -38.5 33.5 -112.5q0 -34 -7 -70l-98 -550h-95l95 537q6 35 6 60q0 84 -67 84q-44 0 -80 -35t-49 -108l-53 -298h-96l68 381q3 17 3 27q0 19 -7 27t-22 8q-14 0 -24 -5l2 79q26 14 65 14q41 0 62 -19.5t23 -59.5q29 39 67 59t80 20q60 0 93.5 -38.5z
" />
    <glyph glyph-name="theta" unicode="&#x3b8;" horiz-adv-x="507" 
d="M455 675q44 -54 44 -170q0 -71 -16 -163q-37 -208 -104 -297.5t-172 -89.5q-85 0 -129 52.5t-44 168.5q0 75 17 166q67 387 274 387q86 0 130 -54zM224 582q-39 -62 -65 -192h232q10 75 10 117q0 70 -20.5 103.5t-61.5 33.5q-56 0 -95 -62zM310.5 106q38.5 64 66.5 203
h-233q-13 -84 -13 -132q0 -135 83 -135q58 0 96.5 64z" />
    <glyph glyph-name="iota" unicode="&#x3b9;" horiz-adv-x="241" 
d="M191 -28q-31 -17 -73 -17q-96 0 -96 99q0 19 5 47l67 384h95l-65 -372q-3 -18 -3 -31q0 -21 8.5 -30.5t25.5 -9.5q18 0 38 9z" />
    <glyph glyph-name="kappa" unicode="&#x3ba;" horiz-adv-x="456" 
d="M483 473l-43 -71q-12 8 -26 8q-16 0 -30.5 -10.5t-35.5 -33.5l-73 -81l126 -319h-104l-90 241l-83 -93l-26 -148h-94l92 519h94l-41 -228l141 160q34 40 65 60t66 20q44 0 62 -24z" />
    <glyph glyph-name="lambda" unicode="&#x3bb;" horiz-adv-x="496" 
d="M459 53l-3 -82q-38 -16 -77 -16q-33 0 -50.5 10.5t-25 30.5t-11.5 54l-34 290l-202 -374h-104l288 512l-15 108q-7 54 -40 54q-27 0 -57 -27l-18 73q51 43 113 43q48 0 67.5 -28t25.5 -80l61 -520q4 -32 13.5 -44.5t29.5 -12.5q14 0 39 9z" />
    <glyph glyph-name="uni03BC" unicode="&#x3bc;" horiz-adv-x="514" 
d="M412 107q-2 -10 -2 -26q0 -19 7 -27.5t22 -8.5q12 0 23 5l-2 -81q-28 -14 -63 -14q-40 0 -60 20.5t-22 54.5q-51 -75 -132 -75q-52 0 -79 31l-46 -260h-96l134 759h96l-56 -317q-4 -21 -4 -43q0 -80 71 -80q42 0 75.5 30.5t49.5 95.5l56 314h95z" />
    <glyph glyph-name="nu" unicode="&#x3bd;" horiz-adv-x="442" 
d="M442 485q-3 -56 -8 -93q-18 -100 -75 -202.5t-170 -223.5h-77l-68 519h102l41 -410q69 91 102.5 164.5t47.5 150.5q5 31 8 95h97z" />
    <glyph glyph-name="xi" unicode="&#x3be;" horiz-adv-x="406" 
d="M456 653q-123 -6 -182.5 -46t-69.5 -99q-2 -12 -2 -18q0 -39 29.5 -63t82.5 -24h81l-15 -83h-69q-87 0 -135 -37t-59 -98q-2 -10 -2 -27q0 -47 31 -73.5t96 -49.5q54 -20 82 -47.5t28 -72.5q0 -8 -2 -26q-8 -44 -36 -73t-77 -57l-43 57q26 17 38 32t16 33q1 4 1 12
q0 22 -16.5 36.5t-52.5 26.5q-82 28 -124.5 73t-42.5 113q0 13 4 41q12 70 54.5 115.5t108.5 66.5q-37 16 -57.5 46.5t-20.5 71.5q0 110 124 163h-116l15 81h344z" />
    <glyph glyph-name="omicron" unicode="&#x3bf;" horiz-adv-x="490" 
d="M120.5 435.5q66.5 61.5 153.5 61.5q83 0 131 -53t48 -152q0 -35 -8 -85q-23 -131 -90 -191.5t-154 -60.5q-83 0 -131 53t-48 151q0 35 8 83q24 132 90.5 193.5zM121 164q0 -61 24.5 -91.5t65.5 -30.5q46 0 83 41t53 133q7 39 7 74q0 60 -23.5 90t-64.5 30
q-46 0 -83.5 -41t-54.5 -137q-7 -45 -7 -68z" />
    <glyph glyph-name="pi" unicode="&#x3c0;" horiz-adv-x="520" 
d="M523 404h-80l-51 -289q-2 -10 -2 -28q0 -42 33 -42q20 0 38 9l-2 -82q-36 -17 -79 -17q-92 0 -92 91q0 15 6 53l53 305h-143l-78 -438h-95l78 438h-80l15 81h494z" />
    <glyph glyph-name="rho" unicode="&#x3c1;" horiz-adv-x="514" 
d="M428.5 445.5q47.5 -51.5 47.5 -151.5q0 -36 -8 -87q-24 -130 -84.5 -191t-145.5 -61q-87 0 -126 62l-51 -292h-97l90 510q46 262 242 262q85 0 132.5 -51.5zM319 90q35 44 50 129q7 38 7 73q0 118 -89 118q-54 0 -87.5 -45.5t-50.5 -137.5q-6 -34 -6 -62q0 -58 23 -88.5
t67 -30.5q51 0 86 44z" />
    <glyph glyph-name="uni03C2" unicode="&#x3c2;" horiz-adv-x="418" 
d="M383 467.5q42 -29.5 51 -87.5l-82 -41q-12 71 -83 71q-46 0 -84.5 -43.5t-55.5 -137.5q-6 -31 -6 -57q0 -54 25 -87.5t77 -53.5q50 -19 76 -46t26 -67q0 -8 -2 -24q-17 -89 -114 -135l-43 57q26 17 38.5 32.5t16.5 35.5q1 4 1 11q0 19 -13.5 32t-44.5 26q-68 27 -106 75
t-38 131q0 38 7 77q17 94 57.5 152.5t91 83.5t103.5 25q60 0 102 -29.5z" />
    <glyph glyph-name="sigma" unicode="&#x3c3;" horiz-adv-x="519" 
d="M554 485l-14 -82h-130q41 -52 41 -141q0 -32 -6 -70q-20 -114 -83.5 -175.5t-154.5 -61.5q-89 0 -136.5 53t-47.5 149q0 35 8 83q43 245 261 245h262zM353 273q0 60 -23.5 93t-67.5 33q-104 0 -133 -165q-7 -36 -7 -73q0 -57 22 -88t67 -31q51 0 86 41t49 121q7 44 7 69z
" />
    <glyph glyph-name="tau" unicode="&#x3c4;" horiz-adv-x="406" 
d="M420 403h-154l-51 -288q-3 -15 -3 -28q0 -42 35 -42q19 0 38 9l-3 -82q-34 -17 -79 -17q-93 0 -93 94q0 22 5 50l54 304h-139l14 82h390z" />
    <glyph glyph-name="upsilon" unicode="&#x3c5;" horiz-adv-x="478" 
d="M92 485h95l-51 -289q-7 -38 -7 -70q0 -43 16.5 -63.5t51.5 -20.5q106 0 142 206q12 74 12 131q0 47 -8 106h101q6 -51 6 -100q0 -73 -12 -136q-26 -148 -87.5 -221t-163.5 -73q-155 0 -155 157q0 37 7 75z" />
    <glyph glyph-name="phi" unicode="&#x3c6;" horiz-adv-x="646" 
d="M408 493q89 -14 143 -72t54 -156q0 -25 -5 -58q-20 -121 -96.5 -182.5t-190.5 -68.5l-40 -230h-94l41 233q-88 15 -141 71.5t-53 152.5q0 34 5 61q19 117 96.5 179.5t186.5 71.5l28 160h94zM124 192q0 -62 30 -98t81 -49l64 364q-146 -18 -171 -172q-4 -32 -4 -45z
M504 259q0 64 -30.5 100.5t-81.5 47.5l-64 -366q147 16 172 171q4 23 4 47z" />
    <glyph glyph-name="chi" unicode="&#x3c7;" horiz-adv-x="449" 
d="M213 215l164 270h104l-239 -382l105 -377h-102l-67 273l-163 -273h-105l240 384l-106 375h103z" />
    <glyph glyph-name="psi" unicode="&#x3c8;" horiz-adv-x="616" 
d="M584 485q8 -58 8 -104q0 -56 -11 -126q-25 -139 -92.5 -212.5t-182.5 -85.5l-41 -231h-94l41 231q-91 9 -132.5 56.5t-41.5 131.5q0 36 8 84l46 256h94l-43 -242q-9 -46 -9 -81q0 -52 22 -80.5t72 -35.5l107 609h94l-107 -610q68 10 105 59t56 153q10 57 10 118
q0 53 -9 110h100z" />
    <glyph glyph-name="omega" unicode="&#x3c9;" horiz-adv-x="663" 
d="M582 485q43 -78 43 -186q0 -46 -9 -96q-21 -122 -77 -185t-133 -63q-46 0 -74.5 24.5t-39.5 68.5q-28 -46 -65 -69.5t-78 -23.5q-60 0 -96 45t-36 129q0 34 8 82q14 79 48.5 149.5t83.5 124.5h103q-107 -118 -135 -274q-7 -38 -7 -71q0 -47 15 -72.5t43 -25.5
q31 0 55.5 36t41.5 127l24 136h94l-29 -168q-4 -27 -4 -52q0 -42 12.5 -60.5t37.5 -18.5q37 0 66 41.5t43 119.5q8 40 8 89q0 107 -46 193h103z" />
    <glyph glyph-name="iotadieresis" unicode="&#x3ca;" horiz-adv-x="241" 
d="M29.5 590q-18.5 19 -18.5 45t18.5 45t43.5 19q26 0 44.5 -19t18.5 -45q0 -27 -18 -45.5t-45 -18.5q-25 0 -43.5 19zM215.5 590q-18.5 19 -18.5 45t18.5 45t43.5 19q26 0 44.5 -19t18.5 -45t-18.5 -45t-44.5 -19q-25 0 -43.5 19zM191 -28q-31 -17 -73 -17q-96 0 -96 99
q0 19 5 47l67 384h95l-65 -372q-3 -18 -3 -31q0 -21 8.5 -30.5t25.5 -9.5q18 0 38 9z" />
    <glyph glyph-name="upsilondieresis" unicode="&#x3cb;" horiz-adv-x="478" 
d="M165 590q-18 19 -18 45t18 45t44 19t44.5 -19t18.5 -45t-18.5 -45t-44.5 -19t-44 19zM350.5 590q-18.5 19 -18.5 45t18.5 45t43.5 19q26 0 44.5 -19t18.5 -45q0 -27 -18 -45.5t-45 -18.5q-25 0 -43.5 19zM92 485h95l-51 -289q-7 -38 -7 -70q0 -43 16.5 -63.5t51.5 -20.5
q106 0 142 206q12 74 12 131q0 47 -8 106h101q6 -51 6 -100q0 -73 -12 -136q-26 -148 -87.5 -221t-163.5 -73q-155 0 -155 157q0 37 7 75z" />
    <glyph glyph-name="omicrontonos" unicode="&#x3cc;" horiz-adv-x="490" 
d="M252 555l75 158h101l-98 -158h-78zM120.5 435.5q66.5 61.5 153.5 61.5q83 0 131 -53t48 -152q0 -35 -8 -85q-23 -131 -90 -191.5t-154 -60.5q-83 0 -131 53t-48 151q0 35 8 83q24 132 90.5 193.5zM121 164q0 -61 24.5 -91.5t65.5 -30.5q46 0 83 41t53 133q7 39 7 74
q0 60 -23.5 90t-64.5 30q-46 0 -83.5 -41t-54.5 -137q-7 -45 -7 -68z" />
    <glyph glyph-name="upsilontonos" unicode="&#x3cd;" horiz-adv-x="478" 
d="M244 556l76 157h101l-98 -157h-79zM92 485h95l-51 -289q-7 -38 -7 -70q0 -43 16.5 -63.5t51.5 -20.5q106 0 142 206q12 74 12 131q0 47 -8 106h101q6 -51 6 -100q0 -73 -12 -136q-26 -148 -87.5 -221t-163.5 -73q-155 0 -155 157q0 37 7 75z" />
    <glyph glyph-name="omegatonos" unicode="&#x3ce;" horiz-adv-x="662" 
d="M337 556l75 157h102l-98 -157h-79zM581 485q43 -78 43 -186q0 -46 -9 -96q-21 -122 -77 -185t-133 -63q-46 0 -74.5 24.5t-39.5 68.5q-28 -46 -65 -69.5t-78 -23.5q-60 0 -96 45t-36 129q0 34 8 82q14 79 48.5 149.5t83.5 124.5h103q-107 -118 -135 -274q-7 -38 -7 -71
q0 -47 15 -72.5t43 -25.5q31 0 55.5 36t41.5 127l24 136h94l-29 -168q-4 -27 -4 -52q0 -42 12.5 -60.5t37.5 -18.5q37 0 66 41.5t43 119.5q8 40 8 89q0 107 -46 193h103z" />
    <glyph glyph-name="uni03D1" unicode="&#x3d1;" horiz-adv-x="536" 
d="M545 394l-15 -82h-73q-34 -185 -96.5 -271t-166.5 -86q-88 0 -133.5 56.5t-40.5 150.5l93 25q-2 -66 19 -105.5t70 -39.5q58 0 93.5 64t61.5 206h-85q-99 0 -150.5 47.5t-51.5 128.5q0 25 4 48q17 94 76 148.5t141 54.5q90 0 136.5 -68t46.5 -192q0 -35 -5 -85h76z
M369 394q7 52 7 101q0 157 -91 157q-42 0 -72.5 -32.5t-40.5 -93.5q-4 -26 -4 -40q0 -92 113 -92h88z" />
    <glyph glyph-name="uni03D2" unicode="&#x3d2;" horiz-adv-x="546" 
d="M618 698l-16 -93h-12q-62 0 -117.5 -55.5t-97 -151.5t-62.5 -214l-39 -218h-105l40 223q11 64 11 123q0 112 -36 211.5t-104 174.5h120q40 -46 67 -113.5t36 -147.5q48 118 122 189.5t161 71.5h32z" />
    <glyph glyph-name="uni03D6" unicode="&#x3d6;" horiz-adv-x="713" 
d="M68 485h666l-14 -81h-89q22 -56 22 -131q0 -44 -7 -83q-20 -117 -76.5 -176t-133.5 -59q-43 0 -72 23.5t-40 70.5q-28 -47 -65 -70.5t-81 -23.5q-59 0 -95 42t-36 123q0 36 7 75q19 116 88 209h-89zM553 267q0 75 -25 137h-283q-72 -93 -91 -205q-6 -34 -6 -61
q0 -46 15.5 -71t42.5 -25q68 0 98 163l19 101h95l-24 -134q-4 -25 -4 -49q0 -44 14 -62.5t36 -18.5q37 0 66 39.5t41 112.5q6 38 6 73z" />
    <glyph glyph-name="uni0400" unicode="&#x400;" horiz-adv-x="498" 
d="M250 914h93l34 -141h-65zM145 698h377l-15 -87h-278l-40 -224h249l-15 -88h-249l-43 -246h287l-16 -87h-386z" />
    <glyph glyph-name="uni0401" unicode="&#x401;" horiz-adv-x="498" 
d="M225.5 805q-18.5 19 -18.5 45q0 27 18 45.5t44 18.5t44.5 -18.5t18.5 -45.5q0 -26 -18 -45t-45 -19q-25 0 -43.5 19zM407.5 805q-18.5 19 -18.5 45q0 27 18 45.5t44 18.5t44.5 -18.5t18.5 -45.5q0 -26 -18.5 -45t-44.5 -19q-25 0 -43.5 19zM145 698h377l-15 -87h-278
l-40 -224h249l-15 -88h-249l-43 -246h287l-16 -87h-386z" />
    <glyph glyph-name="uni0402" unicode="&#x402;" horiz-adv-x="712" 
d="M618.5 374q53.5 -54 53.5 -147q0 -29 -6 -61q-19 -114 -94.5 -166t-186.5 -45l17 91l17 -1q59 0 94.5 31.5t47.5 98.5q4 20 4 44q0 54 -26.5 85.5t-80.5 31.5q-61 0 -113 -40t-68 -121l-37 -209h-99l113 643h-182l16 89h463l-16 -89h-181l-43 -241q67 60 163 60
q91 0 144.5 -54z" />
    <glyph glyph-name="uni0403" unicode="&#x403;" horiz-adv-x="458" 
d="M320 769l83 158h98l-107 -158h-74zM115 -34h-99l129 732h377l-16 -89h-277z" />
    <glyph glyph-name="uni0404" unicode="&#x404;" horiz-adv-x="543" 
d="M249 562q-52 -58 -77 -179h224l-16 -89h-223q-2 -34 -2 -48q0 -96 36 -148.5t101 -52.5q88 0 142 105l72 -47q-36 -74 -93 -111t-130 -37q-110 0 -171.5 72t-61.5 207q0 57 12 124q31 180 116.5 266t202.5 86q87 0 137.5 -45t55.5 -125l-87 -47q-5 61 -36.5 94t-83.5 33
q-66 0 -118 -58z" />
    <glyph glyph-name="uni0405" unicode="&#x405;" horiz-adv-x="481" 
d="M368 4q-59 -49 -150 -49q-96 0 -157 52.5t-68 139.5l87 46q8 -72 46.5 -110t96.5 -38q53 0 83 36q19 22 25 58q2 16 2 24q0 32 -15 57t-37 43t-61 45q-44 29 -71.5 52.5t-46.5 58t-19 80.5q0 22 4 42q16 85 78 129q57 40 139 40q86 0 136.5 -45.5t52.5 -117.5l-85 -45
q-16 118 -110 118q-43 0 -73 -24q-36 -29 -36 -84q0 -41 26.5 -68.5t81.5 -63.5q46 -30 74 -54t48 -60t20 -86q0 -21 -5 -49q-16 -82 -66 -127z" />
    <glyph glyph-name="uni0406" unicode="&#x406;" horiz-adv-x="239" 
d="M115 -34h-99l129 732h99z" />
    <glyph glyph-name="uni0407" unicode="&#x407;" horiz-adv-x="239" 
d="M86.5 806q-18.5 19 -18.5 45t18.5 45t43.5 19q26 0 44.5 -19t18.5 -45t-18.5 -45t-44.5 -19q-25 0 -43.5 19zM268 806q-18 19 -18 45t18 45t44 19t44.5 -19t18.5 -45t-18.5 -45t-44.5 -19t-44 19zM115 -34h-99l129 732h99z" />
    <glyph glyph-name="uni0408" unicode="&#x408;" horiz-adv-x="418" 
d="M-21 89l89 50q7 -50 23.5 -71.5t48.5 -21.5q42 0 64.5 35.5t35.5 107.5l90 509h101l-92 -522q-21 -113 -66.5 -167t-134.5 -54q-142 0 -159 134z" />
    <glyph glyph-name="uni0409" unicode="&#x409;" horiz-adv-x="944" 
d="M696 397q101 0 154 -53t53 -137q0 -22 -5 -50q-17 -96 -81.5 -143.5t-165.5 -47.5h-243l114 643h-232l-87 -404q-17 -82 -40.5 -134.5t-71.5 -84t-131 -31.5l17 92q39 0 63 18t38 53.5t27 97.5l104 482h428l-54 -301h113zM646 55q62 0 99.5 28.5t47.5 84.5q3 15 3 30
q0 49 -30 79t-90 30h-108l-45 -252h123z" />
    <glyph glyph-name="uni040A" unicode="&#x40a;" horiz-adv-x="940" 
d="M691 394q102 0 154.5 -52t52.5 -136q0 -22 -5 -50q-16 -96 -80.5 -143t-166.5 -47h-242l59 339h-288l-60 -339h-99l129 732h99l-53 -304h288l54 304h99l-54 -304h113zM641 55q63 0 100 28t47 84q3 17 3 31q0 48 -30 77.5t-89 29.5h-109l-44 -250h122z" />
    <glyph glyph-name="uni040B" unicode="&#x40b;" horiz-adv-x="700" 
d="M604 382q47 -45 47 -139q0 -33 -8 -81l-35 -196h-99l34 189q6 35 6 66q0 115 -98 115q-60 0 -108.5 -40t-65.5 -121l-37 -209h-99l113 643h-182l16 89h463l-16 -89h-181l-43 -240q66 58 163 58q83 0 130 -45z" />
    <glyph glyph-name="uni040C" unicode="&#x40c;" horiz-adv-x="577" 
d="M368 773l80 141h97l-102 -141h-75zM268 383l246 315h120l-281 -357l164 -375h-116l-139 326h-89l-58 -326h-99l129 732h99l-55 -315h79z" />
    <glyph glyph-name="uni040D" unicode="&#x40d;" horiz-adv-x="631" 
d="M308 927h96l34 -158h-66zM553 699h85l-129 -732h-97l95 535l-406 -535h-84l129 732h96l-95 -535z" />
    <glyph glyph-name="uni040E" unicode="&#x40e;" horiz-adv-x="542" 
d="M284.5 803q-29.5 30 -29.5 81q0 15 3 31h79q-1 -6 -1 -18q0 -26 10 -40.5t30 -14.5q25 0 38.5 18.5t20.5 54.5h82q-9 -67 -46 -104.5t-103 -37.5q-54 0 -83.5 30zM285 298l212 401h112l-299 -531q-45 -80 -78 -124t-70 -66.5t-87 -22.5q-52 0 -78 27l16 95q30 -27 67 -27
q36 0 63.5 25t70.5 96l-129 528h113z" />
    <glyph glyph-name="uni040F" unicode="&#x40f;" horiz-adv-x="625" 
d="M136 58h278l114 640h103l-129 -732h-193l-36 -172h-89l26 172h-194l129 732h104z" />
    <glyph glyph-name="uni0410" unicode="&#x410;" horiz-adv-x="596" 
d="M415 699l116 -733h-107l-26 195h-239l-92 -195h-110l369 733h89zM386 252l-40 304l-144 -304h184z" />
    <glyph glyph-name="uni0411" unicode="&#x411;" horiz-adv-x="561" 
d="M547 698l-16 -89h-302l-39 -216h116q101 0 154 -50.5t53 -132.5q0 -26 -4 -47q-17 -96 -83.5 -146.5t-169.5 -50.5h-240l129 732h402zM176 305l-45 -251h129q60 0 97 30.5t47 87.5q3 17 3 30q0 47 -29 75t-89 28h-113z" />
    <glyph glyph-name="uni0412" unicode="&#x412;" horiz-adv-x="551" 
d="M414 344q42 -20 64 -58t22 -89q0 -24 -4 -45q-17 -94 -80 -140t-165 -46h-235l129 732h187q87 0 137.5 -47.5t50.5 -123.5q0 -23 -4 -42q-17 -100 -102 -141zM281 382q53 0 87.5 27.5t44.5 79.5q2 18 2 25q0 44 -27.5 70.5t-77.5 26.5h-82l-40 -229h93zM394 192
q0 48 -28.5 78t-83.5 30h-109l-43 -247h119q62 0 97 25.5t45 80.5q3 17 3 33z" />
    <glyph glyph-name="uni0413" unicode="&#x413;" horiz-adv-x="458" 
d="M115 -34h-99l129 732h377l-16 -89h-277z" />
    <glyph glyph-name="uni0414" unicode="&#x414;" horiz-adv-x="669" 
d="M532 58h77l-54 -264h-89l26 172h-432l-36 -172h-88l39 264h33q41 0 70 29.5t51.5 88t45.5 156.5l87 366h383zM428 58l97 548h-185l-67 -285q-24 -98 -48 -161t-63 -102h266z" />
    <glyph glyph-name="uni0415" unicode="&#x415;" horiz-adv-x="498" 
d="M145 698h377l-15 -87h-278l-40 -224h249l-15 -88h-249l-43 -246h287l-16 -87h-386z" />
    <glyph glyph-name="uni0416" unicode="&#x416;" horiz-adv-x="913" 
d="M603 383l236 315h117l-265 -358l148 -374h-119l-124 325h-87l-57 -325h-103l57 325h-77l-240 -325h-128l281 380l-140 352h115l124 -315h81l56 315h103l-56 -315h78z" />
    <glyph glyph-name="uni0417" unicode="&#x417;" horiz-adv-x="494" 
d="M434.5 405.5q-29.5 -39.5 -76.5 -58.5q41 -22 62.5 -62t21.5 -92q0 -25 -4 -48q-15 -92 -77 -141t-154 -49q-87 0 -143.5 46t-63.5 134l86 46q5 -66 40 -100.5t87 -34.5q48 0 79.5 29t40.5 82q3 17 3 33q0 52 -33.5 82.5t-98.5 30.5h-21l17 89h35q56 0 90.5 30.5
t42.5 82.5q3 15 3 28q0 38 -21 62t-63 24q-86 0 -134 -110l-75 47q34 80 92 117.5t131 37.5q86 0 131 -48t45 -121q0 -23 -4 -43q-9 -54 -38.5 -93.5z" />
    <glyph glyph-name="uni0418" unicode="&#x418;" horiz-adv-x="631" 
d="M552 699h85l-129 -732h-96l94 535l-406 -535h-84l129 732h96l-95 -535z" />
    <glyph glyph-name="uni0419" unicode="&#x419;" horiz-adv-x="631" 
d="M325 803.5q-30 30.5 -30 80.5q0 15 3 31h79q-1 -6 -1 -18q0 -26 10 -40.5t30 -14.5q25 0 38.5 18.5t20.5 54.5h82q-9 -67 -46 -104.5t-103 -37.5q-53 0 -83 30.5zM553 699h85l-129 -732h-97l95 535l-406 -535h-84l129 732h96l-95 -535z" />
    <glyph glyph-name="uni041A" unicode="&#x41a;" horiz-adv-x="577" 
d="M268 383l246 315h120l-281 -357l164 -375h-116l-139 326h-89l-58 -326h-99l129 732h99l-55 -315h79z" />
    <glyph glyph-name="uni041B" unicode="&#x41b;" horiz-adv-x="632" 
d="M638 698l-129 -732h-101l114 643h-232l-87 -404q-17 -82 -40.5 -134.5t-71.5 -84t-131 -31.5l17 92q39 0 63 18t38 53.5t27 97.5l104 482h429z" />
    <glyph glyph-name="uni041C" unicode="&#x41c;" horiz-adv-x="716" 
d="M644 698h78l-129 -732h-97l89 502l-215 -305h-54l-113 325l-93 -522h-94l129 732h81l136 -413z" />
    <glyph glyph-name="uni041D" unicode="&#x41d;" horiz-adv-x="627" 
d="M190 390h289l54 308h100l-129 -732h-100l59 335h-289l-59 -335h-99l129 732h99z" />
    <glyph glyph-name="uni041E" unicode="&#x41e;" horiz-adv-x="631" 
d="M175 624q82 86 200 86q109 0 169 -71t60 -203q0 -57 -12 -126q-33 -186 -114.5 -270.5t-199.5 -84.5q-110 0 -169.5 69.5t-59.5 201.5q0 58 12 128q32 184 114 270zM154 230q0 -90 34 -137t100 -47q75 0 124.5 63t74.5 204q12 66 12 118q0 91 -34 139.5t-100 48.5
q-74 0 -124 -64t-75 -204q-12 -67 -12 -121z" />
    <glyph glyph-name="uni041F" unicode="&#x41f;" horiz-adv-x="627" 
d="M145 698h488l-129 -732h-100l113 643h-288l-114 -643h-99z" />
    <glyph glyph-name="uni0420" unicode="&#x420;" horiz-adv-x="513" 
d="M325 698q97 0 149.5 -52.5t52.5 -140.5q0 -23 -5 -53q-18 -98 -84.5 -154.5t-171.5 -56.5h-102l-49 -275h-99l129 732h180zM421 495q0 54 -31 85.5t-85 31.5h-76l-50 -285h89q62 0 100.5 36t49.5 97q3 18 3 35z" />
    <glyph glyph-name="uni0421" unicode="&#x421;" horiz-adv-x="543" 
d="M244.5 555q-53.5 -64 -77.5 -201q-11 -64 -11 -112q0 -94 36 -145t100 -51q87 0 140 104l74 -47q-36 -74 -93 -111t-131 -37q-109 0 -170.5 71.5t-61.5 206.5q0 58 12 125q31 180 116.5 266t202.5 86q87 0 138 -45t57 -124l-85 -44q-6 57 -38 89.5t-84 32.5
q-71 0 -124.5 -64z" />
    <glyph glyph-name="uni0422" unicode="&#x422;" horiz-adv-x="489" 
d="M88 698h463l-14 -88h-183l-113 -644h-100l113 644h-182z" />
    <glyph glyph-name="uni0423" unicode="&#x423;" horiz-adv-x="542" 
d="M284 298l212 401h112l-299 -531q-44 -79 -77 -123.5t-70.5 -67t-87.5 -22.5q-52 0 -78 27l16 95q16 -14 32 -20.5t36 -6.5q35 0 62.5 25t70.5 96l-129 528h113z" />
    <glyph glyph-name="uni0424" unicode="&#x424;" horiz-adv-x="697" 
d="M460 617q98 -15 159.5 -77t61.5 -165q0 -34 -5 -60q-20 -117 -106.5 -188.5t-210.5 -81.5l-14 -79h-100l15 82q-99 14 -161 75.5t-62 164.5q0 30 6 63q21 118 105 189t212 80l14 78h100zM143 298q0 -67 35.5 -106.5t97.5 -52.5l69 390q-79 -9 -131.5 -56t-66.5 -130
q-4 -21 -4 -45zM576 367q0 69 -36 108t-97 51l-68 -390q80 9 131 55.5t65 125.5q5 30 5 50z" />
    <glyph glyph-name="uni0425" unicode="&#x425;" horiz-adv-x="574" 
d="M314 432l198 266h118l-277 -363l156 -369h-114l-112 281l-210 -281h-116l286 377l-149 355h113z" />
    <glyph glyph-name="uni0426" unicode="&#x426;" horiz-adv-x="666" 
d="M416 57l113 641h102l-113 -641h77l-55 -263h-89l26 172h-461l129 732h103l-113 -641h281z" />
    <glyph glyph-name="uni0427" unicode="&#x427;" horiz-adv-x="576" 
d="M481 698h100l-129 -732h-100l52 294q-59 -42 -147 -42q-89 0 -141.5 41.5t-52.5 130.5q0 29 6 62l44 246h100l-41 -238q-5 -30 -5 -50q0 -51 26 -76t81 -25q60 0 104.5 32.5t57.5 100.5z" />
    <glyph glyph-name="uni0428" unicode="&#x428;" horiz-adv-x="858" 
d="M440 56h210l114 642h100l-130 -732h-718l130 732h99l-114 -642h209l113 642h100z" />
    <glyph glyph-name="uni0429" unicode="&#x429;" horiz-adv-x="897" 
d="M865 698l-113 -642h73l-55 -262h-88l27 172h-693l129 732h103l-113 -642h205l113 642h104l-113 -642h205l114 642h102z" />
    <glyph glyph-name="uni042A" unicode="&#x42a;" horiz-adv-x="666" 
d="M418 397q101 0 154 -53t53 -137q0 -22 -5 -50q-17 -96 -81.5 -143.5t-165.5 -47.5h-247l114 642h-170l16 91h274l-54 -302h112zM369 55q123 0 143 113q3 17 3 31q0 48 -29 78t-87 30h-109l-44 -252h123z" />
    <glyph glyph-name="uni042B" unicode="&#x42b;" horiz-adv-x="774" 
d="M304 397q101 0 154 -53t53 -137q0 -22 -5 -50q-17 -96 -81.5 -143.5t-166.5 -47.5h-242l129 732h99l-53 -301h113zM651 -34h-101l129 732h101zM175 307l-44 -252h122q62 0 100 28.5t48 84.5q3 15 3 30q0 49 -30.5 79t-90.5 30h-108z" />
    <glyph glyph-name="uni042C" unicode="&#x42c;" horiz-adv-x="552" 
d="M304 397q101 0 154 -53t53 -137q0 -22 -5 -50q-17 -96 -81.5 -143.5t-166.5 -47.5h-242l129 732h99l-53 -301h113zM253 55q62 0 100 28.5t48 84.5q3 15 3 30q0 49 -30.5 79t-90.5 30h-108l-44 -252h122z" />
    <glyph glyph-name="uni042D" unicode="&#x42d;" horiz-adv-x="539" 
d="M452.5 639.5q59.5 -70.5 59.5 -204.5q0 -57 -12 -128q-32 -181 -113.5 -266.5t-197.5 -85.5q-88 0 -143.5 47t-59.5 128l86 44q5 -59 39.5 -94t85.5 -35q68 0 119.5 60.5t76.5 188.5h-223l16 89h220q2 30 2 43q0 94 -34.5 144t-98.5 50q-92 0 -142 -103l-74 47
q36 74 94 110t132 36q108 0 167.5 -70.5z" />
    <glyph glyph-name="uni042E" unicode="&#x42e;" horiz-adv-x="815" 
d="M737.5 642q52.5 -68 52.5 -195q0 -61 -14 -140q-32 -184 -108.5 -268t-186.5 -84q-100 0 -152.5 67.5t-52.5 193.5q0 48 5 85h-107l-59 -335h-99l129 732h99l-54 -308h105q35 167 110 243.5t179 76.5q101 0 153.5 -68zM686 446q0 84 -28 127.5t-82 43.5q-136 0 -184 -271
q-13 -71 -13 -130q0 -83 27.5 -125t82.5 -42q137 0 185 270q12 72 12 127z" />
    <glyph glyph-name="uni042F" unicode="&#x42f;" horiz-adv-x="545" 
d="M550 698l-129 -732h-101l52 293h-77h-19l-210 -293h-124l237 320q-44 25 -67 67.5t-23 96.5q0 21 5 51q17 95 84.5 146t165.5 51h206zM387 347l47 263h-86q-62 0 -101.5 -31.5t-49.5 -89.5q-3 -16 -3 -32q0 -50 30 -80t83 -30h80z" />
    <glyph glyph-name="uni0430" unicode="&#x430;" horiz-adv-x="513" 
d="M493 485l-92 -519h-85q1 13 5 41l4 31q-55 -83 -145 -83q-71 0 -114.5 53t-43.5 149q0 36 8 86q23 132 86.5 193t145.5 61q47 0 80 -22.5t46 -71.5q6 21 20 82h85zM300.5 87.5q34.5 45.5 51.5 139.5q6 36 6 63q0 63 -26 91.5t-66 28.5q-49 0 -86 -42.5t-53 -134.5
q-6 -37 -6 -68q0 -60 23 -91.5t66 -31.5q56 0 90.5 45.5z" />
    <glyph glyph-name="uni0431" unicode="&#x431;" horiz-adv-x="496" 
d="M168 435q53 59 130 59q71 0 115.5 -52.5t44.5 -148.5q0 -44 -8 -85q-23 -137 -89.5 -195t-152.5 -58q-177 0 -177 227q0 64 15 151q20 117 54 196t90 130q32 29 66 42.5t65 17t75 4.5q39 0 62 2.5t42 13.5l-17 -91q-13 -8 -30 -11t-41 -3h-37q-41 0 -73 -8t-58 -33
q-47 -45 -76 -158zM185.5 361.5q-37.5 -42.5 -52.5 -130.5q-7 -35 -7 -67q0 -59 23.5 -90t63.5 -31q47 0 82.5 42t51.5 130q7 46 7 69q0 59 -22.5 89.5t-61.5 30.5q-47 0 -84.5 -42.5z" />
    <glyph glyph-name="uni0432" unicode="&#x432;" horiz-adv-x="450" 
d="M391.5 278q-21.5 -32 -58.5 -49q63 -29 63 -98q0 -14 -3 -31q-12 -67 -60 -100.5t-125 -33.5h-204l92 520h167q71 0 110.5 -35t39.5 -92q0 -49 -21.5 -81zM176 408l-25 -140h80q67 0 80 66q1 5 1 16q0 26 -15.5 42t-50.5 16h-70zM204 44q79 0 90 70q2 12 2 18
q0 27 -17.5 43t-55.5 16h-85l-26 -147h92z" />
    <glyph glyph-name="uni0433" unicode="&#x433;" horiz-adv-x="366" 
d="M96 486h299l-15 -84h-204l-77 -436h-95z" />
    <glyph glyph-name="uni0434" unicode="&#x434;" horiz-adv-x="538" 
d="M483 485l-77 -438h72l-53 -253h-85l25 171h-307l-35 -171h-87l37 253h34q37 0 59.5 26t37 71.5t35.5 134.5q2 7 7 28l41 178h296zM236 289q-23 -100 -40 -154.5t-40 -87.5h156l62 356h-112z" />
    <glyph glyph-name="uni0435" unicode="&#x435;" horiz-adv-x="435" 
d="M275 60.5q27 17.5 49 56.5l66 -49q-28 -57 -79 -85t-109 -28q-82 0 -132 54.5t-50 154.5q0 39 7 78q22 130 92.5 192.5t158.5 62.5q69 0 107.5 -36.5t38.5 -101.5q0 -82 -59.5 -121t-179.5 -39q-41 0 -64 2q-2 -24 -2 -33q0 -125 95 -125q34 0 61 17.5zM185.5 381
q-34.5 -30 -51.5 -103q35 -3 64 -3q65 0 96.5 18t31.5 60q0 58 -63 58q-43 0 -77.5 -30z" />
    <glyph glyph-name="uni0436" unicode="&#x436;" horiz-adv-x="649" 
d="M411 267l165 219h106l-194 -254l108 -266h-107l-85 219h-47l-39 -219h-94l38 219h-39l-163 -219h-113l200 265l-103 255h101l87 -219h45l39 219h94l-39 -219h40z" />
    <glyph glyph-name="uni0437" unicode="&#x437;" horiz-adv-x="397" 
d="M256 239q41 -12 63 -42.5t22 -72.5q0 -18 -2 -27q-12 -66 -65 -104t-131 -38q-73 0 -119 33.5t-56 97.5l78 44q10 -45 35 -66t66 -21q35 0 60.5 16t31.5 52q1 5 1 16q0 31 -21.5 50t-64.5 19h-42l14 81h34q52 0 79 20t27 57q0 26 -18 40.5t-49 14.5q-59 0 -94 -55l-67 46
q27 47 75 72t107 25q70 0 110 -34t40 -88q0 -17 -2 -26q-15 -83 -112 -110z" />
    <glyph glyph-name="uni0438" unicode="&#x438;" horiz-adv-x="503" 
d="M189 486l-60 -340l276 340h78l-92 -520h-94l60 339l-275 -339h-78l92 520h93z" />
    <glyph glyph-name="uni0439" unicode="&#x439;" horiz-adv-x="503" 
d="M226 586q-29 31 -29 86q0 22 4 41h77q-2 -22 -2 -31q0 -56 37 -56q26 0 40 21.5t23 65.5h83q-13 -76 -51.5 -117t-102.5 -41q-50 0 -79 31zM189 486l-60 -340l276 340h78l-92 -520h-94l60 339l-275 -339h-78l92 520h93z" />
    <glyph glyph-name="uni043A" unicode="&#x43a;" horiz-adv-x="463" 
d="M213 268l173 217h107l-203 -253l117 -266h-105l-95 219h-69l-39 -219h-95l92 520h95l-38 -218h60z" />
    <glyph glyph-name="uni043B" unicode="&#x43b;" horiz-adv-x="486" 
d="M465 485l-92 -519h-95l77 436h-133l-51 -235q-15 -68 -36 -112.5t-64 -72t-115 -27.5l17 92q45 0 66.5 30.5t36.5 99.5l67 308h322z" />
    <glyph glyph-name="uni043C" unicode="&#x43c;" horiz-adv-x="589" 
d="M485 486h84l-92 -520h-90l59 330l-158 -238h-55l-81 242l-59 -334h-89l92 520h83l100 -311z" />
    <glyph glyph-name="uni043D" unicode="&#x43d;" horiz-adv-x="497" 
d="M154 271h189l38 215h95l-92 -520h-95l39 221h-189l-40 -221h-95l92 520h95z" />
    <glyph glyph-name="uni043E" unicode="&#x43e;" horiz-adv-x="490" 
d="M120.5 435.5q66.5 61.5 153.5 61.5q83 0 131 -53t48 -152q0 -35 -8 -85q-23 -131 -90 -191.5t-154 -60.5q-83 0 -131 53t-48 151q0 35 8 83q24 132 90.5 193.5zM121 164q0 -61 24.5 -91.5t65.5 -30.5q46 0 83 41t53 133q7 39 7 74q0 60 -23.5 90t-64.5 30
q-46 0 -83.5 -41t-54.5 -137q-7 -45 -7 -68z" />
    <glyph glyph-name="uni043F" unicode="&#x43f;" horiz-adv-x="496" 
d="M96 485h380l-92 -519h-95l77 436h-190l-77 -436h-95z" />
    <glyph glyph-name="uni0440" unicode="&#x440;" horiz-adv-x="513" 
d="M431.5 444q43.5 -53 43.5 -149q0 -45 -8 -86q-23 -132 -86.5 -193t-144.5 -61q-95 0 -123 83l-56 -312h-95l134 759h84q-7 -61 -8 -73q29 45 66.5 65t78.5 20q71 0 114.5 -53zM317.5 84q36.5 43 52.5 134q7 36 7 70q0 59 -23 90t-66 31q-47 0 -85.5 -39.5t-55.5 -137.5
q-7 -38 -7 -71q0 -63 25.5 -91.5t66.5 -28.5q49 0 85.5 43z" />
    <glyph glyph-name="uni0441" unicode="&#x441;" horiz-adv-x="410" 
d="M264 56q25 14 43 46l66 -43q-27 -55 -72.5 -79.5t-98.5 -24.5q-82 0 -130.5 53.5t-48.5 153.5q0 39 7 80q26 150 116 214q55 41 126 41q60 0 99 -32.5t47 -93.5l-78 -40q-8 41 -26.5 60t-49.5 19q-46 0 -82.5 -42t-53.5 -135q-6 -36 -6 -66q0 -61 24 -93t66 -32
q27 0 52 14z" />
    <glyph glyph-name="uni0442" unicode="&#x442;" horiz-adv-x="407" 
d="M32 402l15 84h390l-15 -84h-147l-77 -436h-96l77 436h-147z" />
    <glyph glyph-name="uni0443" unicode="&#x443;" horiz-adv-x="453" 
d="M199 94l186 391h101l-305 -608q-42 -84 -84 -123t-109 -39q-66 0 -98 38l49 75q24 -24 56 -24q30 0 52 21t52 77l32 60l-91 523h101z" />
    <glyph glyph-name="uni0444" unicode="&#x444;" horiz-adv-x="645" 
d="M408 493q89 -14 143 -72t54 -156q0 -25 -5 -58q-20 -121 -96.5 -182.5t-190.5 -68.5l-40 -230h-94l41 233q-88 15 -141 71.5t-53 152.5q0 34 5 61q19 117 96.5 179.5t186.5 71.5l28 160h94zM124 192q0 -62 30 -98t81 -49l64 364q-146 -18 -171 -172q-4 -32 -4 -45z
M504 259q0 64 -30.5 100.5t-81.5 47.5l-64 -366q147 16 172 171q4 23 4 47z" />
    <glyph glyph-name="uni0445" unicode="&#x445;" horiz-adv-x="430" 
d="M223 306l133 179h107l-206 -261l114 -258h-106l-72 180l-134 -180h-107l206 263l-114 256h106z" />
    <glyph glyph-name="uni0446" unicode="&#x446;" horiz-adv-x="542" 
d="M476 485l-77 -436h74l-54 -255h-84l26 172h-357l92 519h95l-77 -436h190l77 436h95z" />
    <glyph glyph-name="uni0447" unicode="&#x447;" horiz-adv-x="478" 
d="M362 486h96l-92 -520h-96l34 189q-42 -34 -110 -34q-69 0 -109 32t-40 100q0 19 5 49l32 184h96l-30 -170q-3 -18 -3 -33q0 -73 75 -73q42 0 71.5 23.5t39.5 71.5z" />
    <glyph glyph-name="uni0448" unicode="&#x448;" horiz-adv-x="674" 
d="M344 49h140l77 437h93l-92 -520h-558l92 520h93l-77 -437h139l77 437h93z" />
    <glyph glyph-name="uni0449" unicode="&#x449;" horiz-adv-x="720" 
d="M654 486l-77 -437h73l-53 -255h-84l27 172h-536l92 520h93l-77 -437h139l77 437h93l-77 -437h140l77 437h93z" />
    <glyph glyph-name="uni044A" unicode="&#x44a;" horiz-adv-x="542" 
d="M329 297q82 0 123 -41.5t41 -105.5q0 -18 -3 -36q-12 -72 -63.5 -110t-133.5 -38h-193l78 436h-141l14 83h237l-34 -188h75zM291 47q38 0 65 16.5t36 63.5q2 16 2 21q0 68 -86 68h-68l-30 -169h81z" />
    <glyph glyph-name="uni044B" unicode="&#x44b;" horiz-adv-x="644" 
d="M233 297q81 0 122.5 -41.5t41.5 -105.5q0 -18 -3 -36q-13 -72 -64 -110t-133 -38h-193l92 519h95l-33 -188h75zM531 -34h-95l92 519h95zM195 47q37 0 64.5 16.5t35.5 63.5q2 16 2 23q0 66 -85 66h-68l-31 -169h82z" />
    <glyph glyph-name="uni044C" unicode="&#x44c;" horiz-adv-x="444" 
d="M233 297q81 0 122.5 -41.5t41.5 -105.5q0 -18 -3 -36q-13 -72 -64 -110t-133 -38h-193l92 519h95l-33 -188h75zM195 47q37 0 64.5 16.5t35.5 63.5q2 16 2 23q0 66 -85 66h-68l-31 -169h82z" />
    <glyph glyph-name="uni044D" unicode="&#x44d;" horiz-adv-x="406" 
d="M317.5 442.5q49.5 -54.5 49.5 -154.5q0 -39 -7 -78q-23 -132 -88 -193.5t-148 -61.5q-61 0 -104 32.5t-51 91.5l80 42q7 -40 29.5 -60.5t54.5 -20.5q41 0 75.5 36t51.5 117h-153l13 79h151q4 68 -21.5 103.5t-70.5 35.5q-60 0 -92 -61l-66 44q27 53 71.5 78t95.5 25
q80 0 129.5 -54.5z" />
    <glyph glyph-name="uni044E" unicode="&#x44e;" horiz-adv-x="665" 
d="M582.5 444q45.5 -53 45.5 -151q0 -36 -8 -86q-23 -131 -87 -191.5t-145 -60.5q-77 0 -121 52.5t-44 150.5q0 21 1 32h-85l-40 -224h-95l92 519h95l-38 -211h83q27 116 87.5 169.5t136.5 53.5q77 0 122.5 -53zM531 291q0 59 -21.5 88.5t-58.5 29.5q-42 0 -75.5 -41
t-49.5 -132q-7 -39 -7 -76q0 -58 20.5 -88t57.5 -30q42 0 76.5 42t50.5 133q7 39 7 74z" />
    <glyph glyph-name="uni044F" unicode="&#x44f;" horiz-adv-x="459" 
d="M439 486l-92 -520h-95l36 204h-63h-2l-155 -204h-113l174 224q-34 17 -51.5 48t-17.5 70q0 18 3 34q13 69 63.5 106.5t128.5 37.5h184zM303 251l26 153h-82q-39 0 -64 -24t-25 -65q0 -29 17.5 -46.5t50.5 -17.5h77z" />
    <glyph glyph-name="uni0450" unicode="&#x450;" horiz-adv-x="435" 
d="M180 713h95l35 -158h-66zM275 60.5q27 17.5 49 56.5l66 -49q-28 -57 -79 -85t-109 -28q-82 0 -132 54.5t-50 154.5q0 39 7 78q22 130 92.5 192.5t158.5 62.5q69 0 107.5 -36.5t38.5 -101.5q0 -82 -59.5 -121t-179.5 -39q-41 0 -64 2q-2 -24 -2 -33q0 -125 95 -125
q34 0 61 17.5zM185.5 381q-34.5 -30 -51.5 -103q35 -3 64 -3q65 0 96.5 18t31.5 60q0 58 -63 58q-43 0 -77.5 -30z" />
    <glyph glyph-name="uni0451" unicode="&#x451;" horiz-adv-x="435" 
d="M152 589q-18 19 -18 45t18 45t44 19t44.5 -19t18.5 -45t-18.5 -45t-44.5 -19t-44 19zM337.5 589q-18.5 19 -18.5 45t18.5 45t43.5 19q26 0 44.5 -19t18.5 -45t-18 -45t-45 -19q-25 0 -43.5 19zM275 60.5q27 17.5 49 56.5l66 -49q-28 -57 -79 -85t-109 -28
q-82 0 -132 54.5t-50 154.5q0 39 7 78q22 130 92.5 192.5t158.5 62.5q69 0 107.5 -36.5t38.5 -101.5q0 -82 -59.5 -121t-179.5 -39q-41 0 -64 2q-2 -24 -2 -33q0 -125 95 -125q34 0 61 17.5zM185.5 381q-34.5 -30 -51.5 -103q35 -3 64 -3q65 0 96.5 18t31.5 60q0 58 -63 58
q-43 0 -77.5 -30z" />
    <glyph glyph-name="uni0452" unicode="&#x452;" horiz-adv-x="505" 
d="M428.5 459q33.5 -38 33.5 -112q0 -35 -7 -71l-69 -389q-30 -172 -158 -172q-61 0 -93 35l52 74q18 -20 44 -20q24 0 38 19t23 69l66 371q6 33 6 58q0 86 -67 86q-45 0 -81 -36t-49 -108l-53 -297h-95l105 591h-64l14 79h64l16 91h95l-17 -91h123l-13 -79h-123l-23 -129
q28 34 64 51.5t76 17.5q59 0 92.5 -38z" />
    <glyph glyph-name="uni0453" unicode="&#x453;" horiz-adv-x="366" 
d="M227 556l83 158h97l-106 -158h-74zM96 486h299l-15 -84h-204l-77 -436h-95z" />
    <glyph glyph-name="uni0454" unicode="&#x454;" horiz-adv-x="410" 
d="M265 55q25 14 43 46l64 -43q-27 -54 -72 -78.5t-98 -24.5q-82 0 -130.5 53.5t-48.5 153.5q0 39 7 80q24 131 92 193t152 62q60 0 98 -32t46 -93l-79 -41q-8 40 -26 60t-49 20q-41 0 -76.5 -33.5t-54.5 -107.5h151l-14 -78h-150q-1 -10 -1 -27q0 -61 25.5 -92.5
t67.5 -31.5q28 0 53 14z" />
    <glyph glyph-name="uni0455" unicode="&#x455;" horiz-adv-x="382" 
d="M276 -7q-49 -38 -122 -38q-71 0 -116.5 37t-50.5 103l77 40q5 -49 30.5 -72.5t63.5 -23.5q31 0 50 14t24 42q1 5 1 15q0 29 -19.5 47.5t-59.5 43.5q-50 29 -77 57.5t-27 77.5q0 15 3 31q10 60 54 94q46 36 118 36q66 0 106.5 -35.5t44.5 -91.5l-78 -39q-4 37 -24.5 60
t-54.5 23q-30 0 -49.5 -16.5t-19.5 -47.5q0 -25 18.5 -43t57.5 -41q35 -21 56.5 -38t37 -43t15.5 -61q0 -14 -3 -31q-10 -62 -56 -100z" />
    <glyph glyph-name="uni0456" unicode="&#x456;" horiz-adv-x="212" 
d="M127 591q-18 19 -18 45t18 44.5t43 18.5t43.5 -18.5t18.5 -44.5t-18 -45t-44 -19q-25 0 -43 19zM100 -34h-95l92 519h95z" />
    <glyph glyph-name="uni0457" unicode="&#x457;" horiz-adv-x="238" 
d="M69 590.5q-18 18.5 -18 44.5t18 44t43 18t43 -18.5t18 -43.5q0 -26 -18 -44.5t-43 -18.5t-43 18.5zM211 590.5q-18 18.5 -18 44.5q0 25 18 43.5t43 18.5t43 -18t18 -44t-17.5 -44.5t-43.5 -18.5q-25 0 -43 18.5zM17 -34l92 519h95l-92 -519h-95z" />
    <glyph glyph-name="uni0458" unicode="&#x458;" horiz-adv-x="202" 
d="M123 591q-18 19 -18 45t18 44.5t43 18.5q26 0 44.5 -18.5t18.5 -44.5t-18.5 -45t-44.5 -19q-25 0 -43 19zM-154.5 -274q-27.5 11 -40.5 29l50 74q21 -25 55 -25q33 0 52 26.5t31 95.5l100 559h95l-101 -570q-19 -108 -64.5 -154t-113.5 -46q-36 0 -63.5 11z" />
    <glyph glyph-name="uni0459" unicode="&#x459;" horiz-adv-x="719" 
d="M507 297q81 0 122.5 -41.5t41.5 -105.5q0 -18 -3 -36q-13 -72 -64 -110t-133 -38h-193l78 437h-134l-51 -236q-15 -68 -36 -112.5t-64 -72t-115 -27.5l17 92q45 0 66.5 30.5t36.5 99.5l67 308h322l-33 -188h75zM469 47q37 0 64.5 16.5t35.5 63.5q2 16 2 23q0 66 -85 66
h-68l-31 -169h82z" />
    <glyph glyph-name="uni045A" unicode="&#x45a;" horiz-adv-x="729" 
d="M517 297q82 0 123.5 -41.5t41.5 -105.5q0 -18 -3 -36q-13 -72 -64 -110t-133 -38h-193l42 236h-190l-42 -236h-95l92 520h95l-35 -203h189l36 202h95l-33 -188h74zM479 47q38 0 65.5 16.5t35.5 63.5q2 16 2 23q0 66 -85 66h-68l-31 -169h81z" />
    <glyph glyph-name="uni045B" unicode="&#x45b;" horiz-adv-x="503" 
d="M426.5 458.5q33.5 -38.5 33.5 -112.5q0 -34 -7 -70l-55 -310h-95l52 297q6 33 6 60q0 84 -67 84q-44 0 -80.5 -36t-49.5 -108l-52 -297h-95l105 591h-64l14 79h64l16 91h95l-17 -91h123l-14 -79h-122l-24 -129q29 34 65 51.5t75 17.5q60 0 93.5 -38.5z" />
    <glyph glyph-name="uni045C" unicode="&#x45c;" horiz-adv-x="463" 
d="M259 556l82 157h98l-106 -157h-74zM213 268l173 217h107l-203 -253l117 -266h-105l-95 219h-69l-39 -219h-95l92 520h95l-38 -218h60z" />
    <glyph glyph-name="uni045D" unicode="&#x45d;" horiz-adv-x="503" 
d="M206 714h96l34 -158h-66zM189 486l-60 -340l276 340h78l-92 -520h-94l60 339l-275 -339h-78l92 520h93z" />
    <glyph glyph-name="uni045E" unicode="&#x45e;" horiz-adv-x="453" 
d="M202.5 586.5q-28.5 31.5 -28.5 87.5q0 18 3 39h78q-2 -22 -2 -31q0 -56 37 -56q26 0 40 21.5t23 65.5h82q-12 -76 -50.5 -117t-102.5 -41q-51 0 -79.5 31.5zM199 94l186 391h101l-305 -608q-42 -84 -84 -123t-109 -39q-66 0 -98 38l49 75q24 -24 56 -24q30 0 52 21t52 77
l32 60l-91 523h101z" />
    <glyph glyph-name="uni045F" unicode="&#x45f;" horiz-adv-x="497" 
d="M114 49h189l78 437h95l-92 -520h-141l-35 -172h-84l26 172h-146l92 520h95z" />
    <glyph glyph-name="uni0462" unicode="&#x462;" horiz-adv-x="620" 
d="M371 390q102 0 154.5 -51.5t52.5 -134.5q0 -22 -5 -50q-16 -95 -80.5 -141.5t-166.5 -46.5h-242l95 540h-132l15 84h131l20 108h99l-19 -108h181l-15 -84h-181l-20 -116h113zM322 55q62 0 99.5 28t47.5 82q3 15 3 29q0 48 -30 78t-90 30h-110l-43 -247h123z" />
    <glyph glyph-name="uni0463" unicode="&#x463;" horiz-adv-x="493" 
d="M281 295q82 0 123 -41t41 -105q0 -18 -3 -36q-12 -71 -63.5 -109t-133.5 -38h-193l79 442h-102l14 77h101l43 242h96l-43 -242h149l-14 -77h-149l-20 -113h75zM243 46q38 0 65 16.5t36 63.5q2 16 2 21q0 67 -86 67h-68l-30 -168h81z" />
    <glyph glyph-name="uni046B" unicode="&#x46b;" horiz-adv-x="553" 
d="M339 250q147 -2 147 -177q0 -44 -11 -107h-92q10 57 10 100q0 58 -20.5 80.5t-58.5 22.5h-11l-36 -203h-90l37 203h-12q-51 1 -85 -42t-56 -161h-91q27 147 83.5 215t147.5 69h6l-115 235l444 1zM370 408h-145l54 -115z" />
    <glyph glyph-name="uni0472" unicode="&#x472;" horiz-adv-x="631" 
d="M544 639q60 -71 60 -203q0 -57 -12 -126q-33 -186 -114.5 -270.5t-199.5 -84.5q-110 0 -169.5 69.5t-59.5 201.5q0 58 12 128q32 184 114 270t200 86q109 0 169 -71zM171 383h325q2 17 2 49q0 90 -33.5 138.5t-99.5 48.5q-143 0 -194 -236zM409 104.5q49 58.5 74 188.5
h-326q-4 -44 -4 -62q0 -90 34.5 -137.5t100.5 -47.5q72 0 121 58.5z" />
    <glyph glyph-name="uni0473" unicode="&#x473;" horiz-adv-x="490" 
d="M405 444q48 -53 48 -152q0 -35 -8 -85q-23 -131 -90 -191.5t-154 -60.5q-83 0 -131 53t-48 151q0 35 8 83q24 132 90.5 193.5t153.5 61.5q83 0 131 -53zM190 378q-34 -32 -53 -104h215q4 68 -19.5 102t-67.5 34q-41 0 -75 -32zM287.5 77q34.5 35 52.5 112h-218
q-1 -9 -1 -26q0 -61 23.5 -91t65.5 -30q43 0 77.5 35z" />
    <glyph glyph-name="uni0474" unicode="&#x474;" horiz-adv-x="639" 
d="M709.5 698.5q24.5 -11.5 35.5 -28.5l-49 -81q-19 25 -50 25q-22 0 -40.5 -16t-37.5 -54l-289 -578h-80l-113 732h114l71 -559l199 427q36 77 76 110.5t101 33.5q38 0 62.5 -11.5z" />
    <glyph glyph-name="uni0475" unicode="&#x475;" horiz-adv-x="497" 
d="M511 485.5q21 -11.5 30 -28.5l-44 -74q-15 27 -37 27q-16 0 -31.5 -16.5t-34.5 -53.5l-188 -374h-80l-83 519h105l43 -370l121 249q35 73 67 103t79 30q32 0 53 -11.5z" />
    <glyph glyph-name="uni0490" unicode="&#x490;" horiz-adv-x="459" 
d="M145 698h284l46 142h85l-55 -230h-276l-114 -644h-99z" />
    <glyph glyph-name="uni0491" unicode="&#x491;" horiz-adv-x="372" 
d="M96 486h221l38 120h82l-47 -204h-214l-77 -436h-95z" />
    <glyph glyph-name="uni0492" unicode="&#x492;" horiz-adv-x="468" 
d="M147 698h385l-16 -89h-285l-41 -231h111l-17 -89h-110l-57 -323h-99l56 323h-71l16 89h71z" />
    <glyph glyph-name="uni0493" unicode="&#x493;" horiz-adv-x="396" 
d="M120 486h308l-14 -84h-214l-25 -144h109l-15 -83h-109l-37 -209h-95l37 209h-73l15 83h72z" />
    <glyph glyph-name="uni0497" unicode="&#x497;" horiz-adv-x="679" 
d="M576 486h106l-194 -254l75 -183h77l-52 -255h-85l25 172h-39l-85 219h-47l-39 -219h-94l38 219h-39l-163 -219h-113l200 265l-103 255h101l87 -219h45l39 219h94l-39 -219h40z" />
    <glyph glyph-name="uni049A" unicode="&#x49a;" horiz-adv-x="580" 
d="M514 698h120l-281 -357l126 -285h69l-54 -262h-88l26 172h-31l-139 326h-89l-58 -326h-99l129 732h99l-55 -315h79z" />
    <glyph glyph-name="uni049B" unicode="&#x49b;" horiz-adv-x="469" 
d="M386 485h107l-203 -253l82 -183h64l-52 -255h-85l25 172h-22l-95 219h-69l-39 -219h-95l92 520h95l-38 -218h60z" />
    <glyph glyph-name="uni049C" unicode="&#x49c;" horiz-adv-x="593" 
d="M321 383l218 315h110l-247 -357l131 -375h-105l-111 326h-31l-25 -142h-73l24 142h-41l-58 -326h-97l129 732h97l-56 -315h42l26 143h73l-25 -143h19z" />
    <glyph glyph-name="uni049D" unicode="&#x49d;" horiz-adv-x="479" 
d="M253 268l155 217h104l-182 -253l96 -266h-103l-77 218h-15l-16 -96h-67l17 96h-28l-38 -218h-95l92 520h95l-39 -218h27l18 98h66l-17 -98h7z" />
    <glyph glyph-name="uni04A2" unicode="&#x4a2;" horiz-adv-x="661" 
d="M533 698h100l-113 -642h75l-54 -262h-88l26 172h-75l59 335h-289l-59 -335h-99l129 732h99l-54 -308h289z" />
    <glyph glyph-name="uni04A3" unicode="&#x4a3;" horiz-adv-x="535" 
d="M381 486h95l-77 -437h73l-54 -255h-84l26 172h-71l39 221h-189l-40 -221h-95l92 520h95l-37 -215h189z" />
    <glyph glyph-name="uni04AE" unicode="&#x4ae;" horiz-adv-x="540" 
d="M292 376l201 322h112l-281 -431l-54 -301h-100l54 305l-140 427h113z" />
    <glyph glyph-name="uni04AF" unicode="&#x4af;" horiz-adv-x="451" 
d="M199 113l181 372h104l-255 -492l-48 -267h-99l48 273l-87 486h101z" />
    <glyph glyph-name="uni04B0" unicode="&#x4b0;" horiz-adv-x="540" 
d="M292 376l201 322h112l-235 -361h123l-14 -89h-158l-51 -282h-100l50 282h-160l16 89h127l-119 361h113z" />
    <glyph glyph-name="uni04B1" unicode="&#x4b1;" horiz-adv-x="451" 
d="M199 113l181 372h104l-227 -436h117l-15 -83h-135l-43 -240h-99l43 240h-131l14 83h113l-78 436h101z" />
    <glyph glyph-name="uni04B2" unicode="&#x4b2;" horiz-adv-x="572" 
d="M512 698h118l-277 -363l118 -279h65l-54 -262h-88l25 172h-24l-112 281l-210 -281h-116l286 377l-149 355h113l107 -266z" />
    <glyph glyph-name="uni04B3" unicode="&#x4b3;" horiz-adv-x="443" 
d="M356 485h107l-206 -261l78 -175h67l-52 -255h-85l25 172h-25l-72 180l-134 -180h-107l206 263l-114 256h106l73 -179z" />
    <glyph glyph-name="uni04B8" unicode="&#x4b8;" horiz-adv-x="575" 
d="M481 698h100l-129 -732h-102l52 293q-42 -31 -99 -37l-24 -141h-74l24 138q-77 6 -121.5 48t-44.5 123q0 29 6 62l44 246h98l-41 -238q-5 -30 -5 -50q0 -44 19 -68t61 -31l26 147h75l-26 -145q89 18 114 113z" />
    <glyph glyph-name="uni04B9" unicode="&#x4b9;" horiz-adv-x="492" 
d="M378 486h93l-92 -520h-94l34 192q-28 -24 -69 -32l-17 -96h-74l16 92q-60 6 -94.5 38.5t-34.5 95.5q0 23 4 46l32 184h94l-31 -171q-3 -19 -3 -34q0 -57 49 -67l21 116h74l-21 -115q66 15 80 88z" />
    <glyph glyph-name="uni04BA" unicode="&#x4ba;" horiz-adv-x="576" 
d="M116 -34h-100l129 732h100l-52 -294q59 42 147 42q89 0 141.5 -41.5t52.5 -130.5q0 -29 -6 -62l-44 -246h-100l42 238q5 30 5 48q0 103 -108 103q-60 0 -104.5 -32.5t-57.5 -100.5z" />
    <glyph glyph-name="uni04BB" unicode="&#x4bb;" horiz-adv-x="490" 
d="M413.5 459q33.5 -38 33.5 -112q0 -35 -7 -71l-55 -310h-95l53 297q6 33 6 58q0 86 -67 86q-45 0 -81 -36t-49 -108l-53 -297h-95l135 761h95l-53 -299q28 34 64 51.5t76 17.5q59 0 92.5 -38z" />
    <glyph glyph-name="uni04CA" unicode="&#x4ca;" horiz-adv-x="534" 
d="M381 486h95l-77 -437h76l-120 -255h-90l70 172h-46l39 221h-189l-40 -221h-95l92 520h95l-37 -215h189z" />
    <glyph glyph-name="uni04D8" unicode="&#x4d8;" horiz-adv-x="587" 
d="M507 639.5q53 -70.5 53 -197.5q0 -68 -13 -140q-30 -173 -112 -260t-202 -87q-93 0 -149.5 48t-56.5 139q0 71 35.5 124.5t104.5 83.5t167 30q57 0 117 -10q4 46 4 65q0 90 -30.5 137t-87.5 47q-42 0 -81 -27.5t-69 -81.5l-74 56q44 78 106 111t130 33q105 0 158 -70.5z
M436 279q-59 8 -99 8q-102 0 -154 -36.5t-52 -102.5q0 -50 29 -76t78 -26q148 0 198 233z" />
    <glyph glyph-name="uni04D9" unicode="&#x4d9;" horiz-adv-x="437" 
d="M144 391.5q-27 -17.5 -49 -56.5l-67 48q29 57 80 85.5t108 28.5q82 0 132.5 -54.5t50.5 -154.5q0 -39 -7 -78q-23 -130 -93 -192.5t-158 -62.5q-69 0 -107.5 36.5t-38.5 101.5q0 82 60 121t182 39q19 0 61 -2q2 24 2 33q0 65 -25.5 95t-69.5 30q-34 0 -61 -17.5z
M233.5 71q34.5 30 51.5 102q-50 4 -67 4q-63 0 -94 -18.5t-31 -59.5q0 -58 63 -58q43 0 77.5 30z" />
    <glyph glyph-name="uni04E8" unicode="&#x4e8;" horiz-adv-x="631" 
d="M544 639q60 -71 60 -203q0 -57 -12 -126q-33 -186 -114.5 -270.5t-199.5 -84.5q-110 0 -169.5 69.5t-59.5 201.5q0 58 12 128q32 184 114 270t200 86q109 0 169 -71zM171 383h325q2 17 2 49q0 90 -33.5 138.5t-99.5 48.5q-143 0 -194 -236zM409 104.5q49 58.5 74 188.5
h-326q-4 -44 -4 -62q0 -90 34.5 -137.5t100.5 -47.5q72 0 121 58.5z" />
    <glyph glyph-name="uni04E9" unicode="&#x4e9;" horiz-adv-x="490" 
d="M405 444q48 -53 48 -152q0 -35 -8 -85q-23 -131 -90 -191.5t-154 -60.5q-83 0 -131 53t-48 151q0 35 8 83q24 132 90.5 193.5t153.5 61.5q83 0 131 -53zM190 378q-34 -32 -53 -104h215q4 68 -19.5 102t-67.5 34q-41 0 -75 -32zM287.5 77q34.5 35 52.5 112h-218
q-1 -9 -1 -26q0 -61 23.5 -91t65.5 -30q43 0 77.5 35z" />
    <glyph glyph-name="uni1E00" unicode="&#x1e00;" horiz-adv-x="596" 
d="M415 699l116 -733h-107l-26 195h-239l-92 -195h-110l369 733h89zM386 252l-40 304l-144 -304h184zM159 -100.5q32 30.5 80 30.5t78.5 -30t30.5 -78q0 -47 -31 -77t-78 -30q-48 0 -80 30t-32 77t32 77.5zM203.5 -214q13.5 -14 35.5 -14t35 14t13 36q0 23 -13 37t-35 14
t-35.5 -14t-13.5 -37q0 -22 13.5 -36z" />
    <glyph glyph-name="uni1E01" unicode="&#x1e01;" horiz-adv-x="513" 
d="M493 485l-92 -519h-85q1 13 5 41l4 31q-55 -83 -145 -83q-71 0 -114.5 53t-43.5 149q0 36 8 86q23 132 86.5 193t145.5 61q47 0 80 -22.5t46 -71.5q6 21 20 82h85zM300.5 87.5q34.5 45.5 51.5 139.5q6 36 6 63q0 63 -26 91.5t-66 28.5q-49 0 -86 -42.5t-53 -134.5
q-6 -37 -6 -68q0 -60 23 -91.5t66 -31.5q56 0 90.5 45.5zM98 -100.5q32 30.5 80 30.5t78.5 -30t30.5 -78q0 -47 -31 -77t-78 -30q-48 0 -80 30t-32 77t32 77.5zM142.5 -214q13.5 -14 35.5 -14t35 14t13 36q0 23 -13 37t-35 14t-35.5 -14t-13.5 -37q0 -22 13.5 -36z" />
    <glyph glyph-name="uni1E3E" unicode="&#x1e3e;" horiz-adv-x="716" 
d="M417 773l80 141h97l-102 -141h-75zM644 698h78l-129 -732h-97l89 502l-215 -305h-54l-113 325l-93 -522h-94l129 732h81l136 -413z" />
    <glyph glyph-name="uni1E3F" unicode="&#x1e3f;" horiz-adv-x="712" 
d="M393 555l83 158h98l-107 -158h-74zM639.5 461.5q29.5 -35.5 29.5 -104.5q0 -35 -7 -71l-56 -320h-94l53 294q7 46 7 67q0 79 -55 79q-37 0 -68 -33.5t-42 -97.5l-55 -309h-94l52 294q7 46 7 70q0 76 -54 76q-39 0 -69 -34t-42 -101l-55 -305h-93l92 519h84q-5 -28 -8 -66
q28 39 62 58.5t71 19.5q41 0 69 -23t38 -66q29 45 66 67t79 22q53 0 82.5 -35.5z" />
    <glyph glyph-name="Wgrave" unicode="&#x1e80;" horiz-adv-x="852" 
d="M417 914h93l34 -141h-66zM545 698l38 -562l228 562h104l-317 -733h-88l-44 527l-226 -527h-87l-66 733h103l37 -559l230 559h88z" />
    <glyph glyph-name="wgrave" unicode="&#x1e81;" horiz-adv-x="681" 
d="M297 714h95l34 -158h-65zM418 485l38 -363l160 363h98l-249 -519h-69l-48 337l-162 -337h-71l-72 519h96l39 -365l160 365h80z" />
    <glyph glyph-name="Wacute" unicode="&#x1e82;" horiz-adv-x="852" 
d="M484 773l80 141h97l-102 -141h-75zM545 698l38 -562l228 562h104l-317 -733h-88l-44 527l-226 -527h-87l-66 733h103l37 -559l230 559h88z" />
    <glyph glyph-name="wacute" unicode="&#x1e83;" horiz-adv-x="681" 
d="M350 556l83 158h97l-106 -158h-74zM418 485l38 -363l160 363h98l-249 -519h-69l-48 337l-162 -337h-71l-72 519h96l39 -365l160 365h80z" />
    <glyph glyph-name="Wdieresis" unicode="&#x1e84;" horiz-adv-x="852" 
d="M392.5 805q-18.5 19 -18.5 45q0 27 18 45.5t44 18.5t44.5 -18.5t18.5 -45.5q0 -26 -18.5 -45t-44.5 -19q-25 0 -43.5 19zM574 805q-18 19 -18 45q0 27 18 45.5t44 18.5t44.5 -18.5t18.5 -45.5q0 -26 -18.5 -45t-44.5 -19t-44 19zM545 698l38 -562l228 562h104l-317 -733
h-88l-44 527l-226 -527h-87l-66 733h103l37 -559l230 559h88z" />
    <glyph glyph-name="wdieresis" unicode="&#x1e85;" horiz-adv-x="681" 
d="M269 590q-18 19 -18 45t18 45t44 19t44.5 -19t18.5 -45t-18.5 -45t-44.5 -19t-44 19zM454.5 590q-18.5 19 -18.5 45t18.5 45t43.5 19q26 0 44.5 -19t18.5 -45t-18.5 -45t-44.5 -19q-25 0 -43.5 19zM418 485l38 -363l160 363h98l-249 -519h-69l-48 337l-162 -337h-71
l-72 519h96l39 -365l160 365h80z" />
    <glyph glyph-name="uni1EA0" unicode="&#x1ea0;" horiz-adv-x="596" 
d="M415 699l116 -733h-107l-26 195h-239l-92 -195h-110l369 733h89zM386 252l-40 304l-144 -304h184zM179 -215q-19 20 -19 47t19 46.5t46 19.5t46 -19.5t19 -46.5t-19 -47t-46 -20t-46 20z" />
    <glyph glyph-name="uni1EA1" unicode="&#x1ea1;" horiz-adv-x="513" 
d="M493 485l-92 -519h-85q1 13 5 41l4 31q-55 -83 -145 -83q-71 0 -114.5 53t-43.5 149q0 36 8 86q23 132 86.5 193t145.5 61q47 0 80 -22.5t46 -71.5q6 21 20 82h85zM300.5 87.5q34.5 45.5 51.5 139.5q6 36 6 63q0 63 -26 91.5t-66 28.5q-49 0 -86 -42.5t-53 -134.5
q-6 -37 -6 -68q0 -60 23 -91.5t66 -31.5q56 0 90.5 45.5zM118 -215q-19 20 -19 47t19 46.5t46 19.5t46 -19.5t19 -46.5t-19 -47t-46 -20t-46 20z" />
    <glyph glyph-name="uni1EA2" unicode="&#x1ea2;" horiz-adv-x="596" 
d="M321 919q43 18 83 18q33 0 55 -17.5t22 -50.5q0 -42 -31.5 -73t-76.5 -49l-25 53q27 11 41 22.5t14 26.5q0 22 -26 22t-55 -17zM415 699l116 -733h-107l-26 195h-239l-92 -195h-110l369 733h89zM386 252l-40 304l-144 -304h184z" />
    <glyph glyph-name="uni1EA3" unicode="&#x1ea3;" horiz-adv-x="513" 
d="M253 723q36 14 74 14t61 -21t23 -57q0 -43 -31 -73t-75 -47l-27 52q27 11 40.5 24t13.5 30q0 11 -8 18.5t-22 7.5q-22 0 -48 -14zM493 485l-92 -519h-85q1 13 5 41l4 31q-55 -83 -145 -83q-71 0 -114.5 53t-43.5 149q0 36 8 86q23 132 86.5 193t145.5 61q47 0 80 -22.5
t46 -71.5q6 21 20 82h85zM300.5 87.5q34.5 45.5 51.5 139.5q6 36 6 63q0 63 -26 91.5t-66 28.5q-49 0 -86 -42.5t-53 -134.5q-6 -37 -6 -68q0 -60 23 -91.5t66 -31.5q56 0 90.5 45.5z" />
    <glyph glyph-name="uni1EA4" unicode="&#x1ea4;" horiz-adv-x="596" 
d="M474 850l76 83h102l-98 -83h-80zM368 836h77l76 -84h-90l-35 39l-57 -39h-101zM415 699l116 -733h-107l-26 195h-239l-92 -195h-110l369 733h89zM386 252l-40 304l-144 -304h184z" />
    <glyph glyph-name="uni1EA5" unicode="&#x1ea5;" horiz-adv-x="513" 
d="M391 733l80 139h95l-99 -139h-76zM299 713h76l76 -158h-83l-42 90l-70 -90h-88zM493 485l-92 -519h-85q1 13 5 41l4 31q-55 -83 -145 -83q-71 0 -114.5 53t-43.5 149q0 36 8 86q23 132 86.5 193t145.5 61q47 0 80 -22.5t46 -71.5q6 21 20 82h85zM300.5 87.5
q34.5 45.5 51.5 139.5q6 36 6 63q0 63 -26 91.5t-66 28.5q-49 0 -86 -42.5t-53 -134.5q-6 -37 -6 -68q0 -60 23 -91.5t66 -31.5q56 0 90.5 45.5z" />
    <glyph glyph-name="uni1EA6" unicode="&#x1ea6;" horiz-adv-x="596" 
d="M407 933h93l35 -83h-66zM368 836h77l76 -84h-90l-35 39l-57 -39h-101zM415 699l116 -733h-107l-26 195h-239l-92 -195h-110l369 733h89zM386 252l-40 304l-144 -304h184z" />
    <glyph glyph-name="uni1EA7" unicode="&#x1ea7;" horiz-adv-x="513" 
d="M346 872h91l34 -139h-63zM299 713h76l76 -158h-83l-42 90l-70 -90h-88zM493 485l-92 -519h-85q1 13 5 41l4 31q-55 -83 -145 -83q-71 0 -114.5 53t-43.5 149q0 36 8 86q23 132 86.5 193t145.5 61q47 0 80 -22.5t46 -71.5q6 21 20 82h85zM300.5 87.5q34.5 45.5 51.5 139.5
q6 36 6 63q0 63 -26 91.5t-66 28.5q-49 0 -86 -42.5t-53 -134.5q-6 -37 -6 -68q0 -60 23 -91.5t66 -31.5q56 0 90.5 45.5z" />
    <glyph glyph-name="uni1EA8" unicode="&#x1ea8;" horiz-adv-x="596" 
d="M442 936q42 11 84 11q32 0 54 -11t22 -30q0 -24 -31.5 -42t-76.5 -29l-25 37q50 8 55 20v2q0 9 -26 9q-20 0 -55 -7zM368 836h77l76 -84h-90l-35 39l-57 -39h-101zM415 699l116 -733h-107l-26 195h-239l-92 -195h-110l369 733h89zM386 252l-40 304l-144 -304h184z" />
    <glyph glyph-name="uni1EA9" unicode="&#x1ea9;" horiz-adv-x="513" 
d="M381 871q19 10 41.5 16t41.5 6q34 0 54.5 -20t20.5 -55q0 -48 -30 -78t-79 -51l-25 54q57 22 57 58q0 13 -7.5 20t-19.5 7q-24 0 -53 -20zM299 713h76l76 -158h-83l-42 90l-70 -90h-88zM493 485l-92 -519h-85q1 13 5 41l4 31q-55 -83 -145 -83q-71 0 -114.5 53t-43.5 149
q0 36 8 86q23 132 86.5 193t145.5 61q47 0 80 -22.5t46 -71.5q6 21 20 82h85zM300.5 87.5q34.5 45.5 51.5 139.5q6 36 6 63q0 63 -26 91.5t-66 28.5q-49 0 -86 -42.5t-53 -134.5q-6 -37 -6 -68q0 -60 23 -91.5t66 -31.5q56 0 90.5 45.5z" />
    <glyph glyph-name="uni1EAA" unicode="&#x1eaa;" horiz-adv-x="596" 
d="M275 857q29 71 99 71q19 0 32.5 -4t31.5 -11q20 -9 30 -9q20 0 33 23h69q-14 -34 -39 -52t-60 -18q-19 0 -32.5 4t-28.5 11q-22 9 -32 9q-22 0 -34 -24h-69zM368 836h77l76 -84h-90l-35 39l-57 -39h-101zM415 699l116 -733h-107l-26 195h-239l-92 -195h-110l369 733h89z
M386 252l-40 304l-144 -304h184z" />
    <glyph glyph-name="uni1EAB" unicode="&#x1eab;" horiz-adv-x="513" 
d="M502 874q-13 -58 -38.5 -89.5t-60.5 -31.5q-18 0 -31.5 7.5t-29.5 21.5q-11 10 -18 14.5t-14 4.5q-23 0 -33 -46h-69q28 120 98 120q19 0 32.5 -8t31.5 -24q20 -18 30 -18q22 0 33 49h69zM299 713h76l76 -158h-83l-42 90l-70 -90h-88zM493 485l-92 -519h-85q1 13 5 41
l4 31q-55 -83 -145 -83q-71 0 -114.5 53t-43.5 149q0 36 8 86q23 132 86.5 193t145.5 61q47 0 80 -22.5t46 -71.5q6 21 20 82h85zM300.5 87.5q34.5 45.5 51.5 139.5q6 36 6 63q0 63 -26 91.5t-66 28.5q-49 0 -86 -42.5t-53 -134.5q-6 -37 -6 -68q0 -60 23 -91.5t66 -31.5
q56 0 90.5 45.5z" />
    <glyph glyph-name="uni1EAC" unicode="&#x1eac;" horiz-adv-x="596" 
d="M371 914h77l76 -142h-81l-43 82l-71 -82h-88zM415 699l116 -733h-107l-26 195h-239l-92 -195h-110l369 733h89zM386 252l-40 304l-144 -304h184zM179 -215q-19 20 -19 47t19 46.5t46 19.5t46 -19.5t19 -46.5t-19 -47t-46 -20t-46 20z" />
    <glyph glyph-name="uni1EAD" unicode="&#x1ead;" horiz-adv-x="513" 
d="M299 713h76l76 -158h-83l-42 90l-70 -90h-88zM493 485l-92 -519h-85q1 13 5 41l4 31q-55 -83 -145 -83q-71 0 -114.5 53t-43.5 149q0 36 8 86q23 132 86.5 193t145.5 61q47 0 80 -22.5t46 -71.5q6 21 20 82h85zM300.5 87.5q34.5 45.5 51.5 139.5q6 36 6 63q0 63 -26 91.5
t-66 28.5q-49 0 -86 -42.5t-53 -134.5q-6 -37 -6 -68q0 -60 23 -91.5t66 -31.5q56 0 90.5 45.5zM118 -215q-19 20 -19 47t19 46.5t46 19.5t46 -19.5t19 -46.5t-19 -47t-46 -20t-46 20z" />
    <glyph glyph-name="uni1EAE" unicode="&#x1eae;" horiz-adv-x="596" 
d="M381 859l75 82h102l-98 -82h-79zM300 770q-30 18 -30 48q0 9 3 18h84q-7 -30 36 -30q42 0 52 30h88q-9 -40 -46 -62t-103 -22q-54 0 -84 18zM415 699l116 -733h-107l-26 195h-239l-92 -195h-110l369 733h89zM386 252l-40 304l-144 -304h184z" />
    <glyph glyph-name="uni1EAF" unicode="&#x1eaf;" horiz-adv-x="513" 
d="M300 735l79 139h96l-99 -139h-76zM235.5 585.5q-28.5 31.5 -28.5 87.5q0 18 3 39h78q-2 -22 -2 -31q0 -56 37 -56q26 0 40 21.5t23 65.5h82q-12 -76 -50.5 -117t-102.5 -41q-51 0 -79.5 31.5zM493 485l-92 -519h-85q1 13 5 41l4 31q-55 -83 -145 -83q-71 0 -114.5 53
t-43.5 149q0 36 8 86q23 132 86.5 193t145.5 61q47 0 80 -22.5t46 -71.5q6 21 20 82h85zM300.5 87.5q34.5 45.5 51.5 139.5q6 36 6 63q0 63 -26 91.5t-66 28.5q-49 0 -86 -42.5t-53 -134.5q-6 -37 -6 -68q0 -60 23 -91.5t66 -31.5q56 0 90.5 45.5z" />
    <glyph glyph-name="uni1EB0" unicode="&#x1eb0;" horiz-adv-x="596" 
d="M314 941h93l34 -82h-66zM300 770q-30 18 -30 48q0 9 3 18h84q-7 -30 36 -30q42 0 52 30h88q-9 -40 -46 -62t-103 -22q-54 0 -84 18zM415 699l116 -733h-107l-26 195h-239l-92 -195h-110l369 733h89zM386 252l-40 304l-144 -304h184z" />
    <glyph glyph-name="uni1EB1" unicode="&#x1eb1;" horiz-adv-x="513" 
d="M255 874h90l35 -139h-64zM235.5 585.5q-28.5 31.5 -28.5 87.5q0 18 3 39h78q-2 -22 -2 -31q0 -56 37 -56q26 0 40 21.5t23 65.5h82q-12 -76 -50.5 -117t-102.5 -41q-51 0 -79.5 31.5zM493 485l-92 -519h-85q1 13 5 41l4 31q-55 -83 -145 -83q-71 0 -114.5 53t-43.5 149
q0 36 8 86q23 132 86.5 193t145.5 61q47 0 80 -22.5t46 -71.5q6 21 20 82h85zM300.5 87.5q34.5 45.5 51.5 139.5q6 36 6 63q0 63 -26 91.5t-66 28.5q-49 0 -86 -42.5t-53 -134.5q-6 -37 -6 -68q0 -60 23 -91.5t66 -31.5q56 0 90.5 45.5z" />
    <glyph glyph-name="uni1EB2" unicode="&#x1eb2;" horiz-adv-x="596" 
d="M333 941q42 11 84 11q33 0 54.5 -10.5t21.5 -29.5q0 -25 -31.5 -43t-76.5 -29l-25 38q50 7 56 19v2q0 5 -7 7.5t-19 2.5q-16 0 -56 -8zM300 770q-30 18 -30 48q0 9 3 18h84q-7 -30 36 -30q42 0 52 30h88q-9 -40 -46 -62t-103 -22q-54 0 -84 18zM415 699l116 -733h-107
l-26 195h-239l-92 -195h-110l369 733h89zM386 252l-40 304l-144 -304h184z" />
    <glyph glyph-name="uni1EB3" unicode="&#x1eb3;" horiz-adv-x="513" 
d="M283 903q39 15 75 15q37 0 60 -21t23 -56q0 -44 -31 -74.5t-75 -47.5l-27 53q27 11 40.5 23.5t13.5 29.5q0 12 -7.5 19t-22.5 7q-22 0 -48 -14zM235.5 585.5q-28.5 31.5 -28.5 87.5q0 18 3 39h78q-2 -22 -2 -31q0 -56 37 -56q26 0 40 21.5t23 65.5h82q-12 -76 -50.5 -117
t-102.5 -41q-51 0 -79.5 31.5zM493 485l-92 -519h-85q1 13 5 41l4 31q-55 -83 -145 -83q-71 0 -114.5 53t-43.5 149q0 36 8 86q23 132 86.5 193t145.5 61q47 0 80 -22.5t46 -71.5q6 21 20 82h85zM300.5 87.5q34.5 45.5 51.5 139.5q6 36 6 63q0 63 -26 91.5t-66 28.5
q-49 0 -86 -42.5t-53 -134.5q-6 -37 -6 -68q0 -60 23 -91.5t66 -31.5q56 0 90.5 45.5z" />
    <glyph glyph-name="uni1EB4" unicode="&#x1eb4;" horiz-adv-x="596" 
d="M275 866q28 71 98 71q19 0 32.5 -4t31.5 -11q20 -9 30 -9q22 0 33 23h69q-13 -34 -38.5 -52.5t-60.5 -18.5q-19 0 -32.5 4t-28.5 11q-20 9 -32 9q-22 0 -33 -23h-69zM300 770q-30 18 -30 48q0 9 3 18h84q-7 -30 36 -30q42 0 52 30h88q-9 -40 -46 -62t-103 -22
q-54 0 -84 18zM415 699l116 -733h-107l-26 195h-239l-92 -195h-110l369 733h89zM386 252l-40 304l-144 -304h184z" />
    <glyph glyph-name="uni1EB5" unicode="&#x1eb5;" horiz-adv-x="513" 
d="M206 751q30 121 99 121q18 0 31 -7.5t33 -24.5q8 -7 16 -13t14 -6q20 0 33 49h69q-14 -58 -39 -89.5t-60 -31.5q-19 0 -32.5 8t-28.5 22q-3 2 -10 7.5t-12 8t-10 2.5q-12 0 -20 -11t-14 -35h-69zM235.5 585.5q-28.5 31.5 -28.5 87.5q0 18 3 39h78q-2 -22 -2 -31
q0 -56 37 -56q26 0 40 21.5t23 65.5h82q-12 -76 -50.5 -117t-102.5 -41q-51 0 -79.5 31.5zM493 485l-92 -519h-85q1 13 5 41l4 31q-55 -83 -145 -83q-71 0 -114.5 53t-43.5 149q0 36 8 86q23 132 86.5 193t145.5 61q47 0 80 -22.5t46 -71.5q6 21 20 82h85zM300.5 87.5
q34.5 45.5 51.5 139.5q6 36 6 63q0 63 -26 91.5t-66 28.5q-49 0 -86 -42.5t-53 -134.5q-6 -37 -6 -68q0 -60 23 -91.5t66 -31.5q56 0 90.5 45.5z" />
    <glyph glyph-name="uni1EB6" unicode="&#x1eb6;" horiz-adv-x="596" 
d="M303 802.5q-30 30.5 -30 81.5q0 15 3 30h80q-1 -7 -1 -19q0 -54 40 -54q26 0 39 18.5t19 54.5h83q-9 -67 -46 -104.5t-103 -37.5q-54 0 -84 30.5zM415 699l116 -733h-107l-26 195h-239l-92 -195h-110l369 733h89zM386 252l-40 304l-144 -304h184zM179 -215q-19 20 -19 47
t19 46.5t46 19.5t46 -19.5t19 -46.5t-19 -47t-46 -20t-46 20z" />
    <glyph glyph-name="uni1EB7" unicode="&#x1eb7;" horiz-adv-x="513" 
d="M235.5 585.5q-28.5 31.5 -28.5 87.5q0 18 3 39h78q-2 -22 -2 -31q0 -56 37 -56q26 0 40 21.5t23 65.5h82q-12 -76 -50.5 -117t-102.5 -41q-51 0 -79.5 31.5zM493 485l-92 -519h-85q1 13 5 41l4 31q-55 -83 -145 -83q-71 0 -114.5 53t-43.5 149q0 36 8 86q23 132 86.5 193
t145.5 61q47 0 80 -22.5t46 -71.5q6 21 20 82h85zM300.5 87.5q34.5 45.5 51.5 139.5q6 36 6 63q0 63 -26 91.5t-66 28.5q-49 0 -86 -42.5t-53 -134.5q-6 -37 -6 -68q0 -60 23 -91.5t66 -31.5q56 0 90.5 45.5zM118 -215q-19 20 -19 47t19 46.5t46 19.5t46 -19.5t19 -46.5
t-19 -47t-46 -20t-46 20z" />
    <glyph glyph-name="uni1EB8" unicode="&#x1eb8;" horiz-adv-x="498" 
d="M145 698h377l-15 -87h-278l-40 -224h249l-15 -88h-249l-43 -246h287l-16 -87h-386zM139 -215q-19 20 -19 47t19 46.5t46 19.5t46 -19.5t19 -46.5t-19 -47t-46 -20t-46 20z" />
    <glyph glyph-name="uni1EB9" unicode="&#x1eb9;" horiz-adv-x="435" 
d="M275 60.5q27 17.5 49 56.5l66 -49q-28 -57 -79 -85t-109 -28q-82 0 -132 54.5t-50 154.5q0 39 7 78q22 130 92.5 192.5t158.5 62.5q69 0 107.5 -36.5t38.5 -101.5q0 -82 -59.5 -121t-179.5 -39q-41 0 -64 2q-2 -24 -2 -33q0 -125 95 -125q34 0 61 17.5zM185.5 381
q-34.5 -30 -51.5 -103q35 -3 64 -3q65 0 96.5 18t31.5 60q0 58 -63 58q-43 0 -77.5 -30zM108 -224q-19 20 -19 47q0 28 19 47.5t46 19.5q28 0 47 -19.5t19 -47.5q0 -27 -19.5 -47t-46.5 -20t-46 20z" />
    <glyph glyph-name="uni1EBA" unicode="&#x1eba;" horiz-adv-x="498" 
d="M285 919q44 18 83 18q33 0 55 -17.5t22 -50.5q0 -42 -31.5 -73t-76.5 -49l-25 53q27 11 41 22.5t14 28.5q0 20 -26 20t-55 -17zM145 698h377l-15 -87h-278l-40 -224h249l-15 -88h-249l-43 -246h287l-16 -87h-386z" />
    <glyph glyph-name="uni1EBB" unicode="&#x1ebb;" horiz-adv-x="435" 
d="M217 723q36 14 74 14t61 -21t23 -57q0 -43 -31 -73t-75 -47l-27 52q27 11 40.5 24t13.5 30q0 11 -8 18.5t-22 7.5q-22 0 -48 -14zM275 60.5q27 17.5 49 56.5l66 -49q-28 -57 -79 -85t-109 -28q-82 0 -132 54.5t-50 154.5q0 39 7 78q22 130 92.5 192.5t158.5 62.5
q69 0 107.5 -36.5t38.5 -101.5q0 -82 -59.5 -121t-179.5 -39q-41 0 -64 2q-2 -24 -2 -33q0 -125 95 -125q34 0 61 17.5zM185.5 381q-34.5 -30 -51.5 -103q35 -3 64 -3q65 0 96.5 18t31.5 60q0 58 -63 58q-43 0 -77.5 -30z" />
    <glyph glyph-name="uni1EBC" unicode="&#x1ebc;" horiz-adv-x="498" 
d="M211 785q28 121 99 121q19 0 33.5 -9t30.5 -24q8 -7 15.5 -12.5t13.5 -5.5q21 0 34 49h68q-13 -58 -38 -89.5t-60 -31.5q-19 0 -33 8t-29 22q-20 18 -31 18q-12 0 -20 -11t-14 -35h-69zM145 698h377l-15 -87h-278l-40 -224h249l-15 -88h-249l-43 -246h287l-16 -87h-386z
" />
    <glyph glyph-name="uni1EBD" unicode="&#x1ebd;" horiz-adv-x="435" 
d="M140 571q28 121 99 121q19 0 33.5 -9t30.5 -24q8 -7 15.5 -12.5t13.5 -5.5q21 0 34 49h68q-13 -58 -38 -89.5t-60 -31.5q-19 0 -33 8t-29 22q-20 18 -31 18q-12 0 -20 -11t-14 -35h-69zM275 60.5q27 17.5 49 56.5l66 -49q-28 -57 -79 -85t-109 -28q-82 0 -132 54.5
t-50 154.5q0 39 7 78q22 130 92.5 192.5t158.5 62.5q69 0 107.5 -36.5t38.5 -101.5q0 -82 -59.5 -121t-179.5 -39q-41 0 -64 2q-2 -24 -2 -33q0 -125 95 -125q34 0 61 17.5zM185.5 381q-34.5 -30 -51.5 -103q35 -3 64 -3q65 0 96.5 18t31.5 60q0 58 -63 58q-43 0 -77.5 -30z
" />
    <glyph glyph-name="uni1EBE" unicode="&#x1ebe;" horiz-adv-x="498" 
d="M439 850l75 83h102l-98 -83h-79zM333 836h76l76 -84h-90l-35 39l-57 -39h-101zM145 698h377l-15 -87h-278l-40 -224h249l-15 -88h-249l-43 -246h287l-16 -87h-386z" />
    </font>
</defs>
</svg>
