<?xml version="1.0" standalone="no"?>
<!DOCTYPE svg PUBLIC "-//W3C//DTD SVG 1.1//EN" "http://www.w3.org/Graphics/SVG/1.1/DTD/svg11.dtd" >
<svg xmlns="http://www.w3.org/2000/svg" xmlns:xlink="http://www.w3.org/1999/xlink" version="1.1">
<metadata>
Created by FontForge 20170731 at Fri May 28 14:17:41 2021
 By Aleksey,,,
Copyright 2021 Huawei Device Co., Ltd. All Rights Reserved.
</metadata>
<defs>
<font id="HarmonyOS_Sans_Condensed_Bold_Italic" horiz-adv-x="503" >
  <font-face 
    font-family="HarmonyOS Sans Condensed"
    font-weight="700"
    font-style="italic"
    font-stretch="normal"
    units-per-em="1000"
    panose-1="0 0 8 0 0 0 0 0 0 0"
    ascent="800"
    descent="-200"
    x-height="484"
    cap-height="698"
    bbox="-554 -288 1392 989"
    underline-thickness="50"
    underline-position="-150"
    slope="-10"
    unicode-range="U+0020-301E"
  />
<missing-glyph horiz-adv-x="500" 
d="M93 850h317v-1000h-317v1000zM333 750v33h-165v-33h65v-37h-66v-33h166v33h-66v37h66zM267 584v70h-100v-104h166v34h-66zM200 620h33v-36h-33v36zM333 490v33h-166v-33h66v-37h-66v-33h100v70h66zM333 363v100h-33v-66h-133v-34h166zM333 228v113h-100v-56h34v23h33v-47
h-100v80h-33v-113h166zM333 55v113h-166v-113h166zM200 135h100v-47h-100v47zM333 -1v33h-166v-33h70l-70 -47v-33h166v33h-102l70 47h32z" />
    <glyph glyph-name="f_b.liga" unicode="fb" horiz-adv-x="834" 
d="M280.5 599q-20.5 -26 -29.5 -81l-6 -33h104l-19 -110h-105l-78 -445q-21 -114 -66 -166t-120 -52q-76 0 -117 46l66 99q21 -18 41 -18q28 0 44.5 27.5t28.5 93.5l73 415h-70l20 110h69l9 48q19 109 73 157.5t126 48.5q44 0 75 -19l-20 -108q-23 13 -44 13
q-34 0 -54.5 -26zM763.5 445.5q41.5 -51.5 41.5 -147.5q0 -41 -9 -92q-23 -132 -86 -192t-143 -60q-95 0 -122 83q-6 -19 -18 -70h-115l134 759h128l-51 -291q52 62 129 62q70 0 111.5 -51.5zM622.5 104.5q29.5 36.5 43.5 114.5q6 36 6 63q0 49 -18.5 74t-52.5 25
q-87 0 -114 -150q-6 -36 -6 -63q0 -52 20 -76t52 -24q40 0 69.5 36.5z" />
    <glyph glyph-name="f_f.liga" unicode="ff" horiz-adv-x="619" 
d="M582.5 599q-18.5 -26 -28.5 -81l-6 -33h105l-20 -110h-104l-79 -445q-20 -114 -64.5 -166t-120.5 -52t-117 46l65 99q21 -18 42 -18q28 0 44.5 27.5t27.5 93.5l73 415h-175l-78 -445q-21 -114 -66 -166t-120 -52q-76 0 -117 46l66 99q21 -18 41 -18q28 0 44.5 27.5
t28.5 93.5l73 415h-70l20 110h69l9 48q19 109 71.5 157.5t123.5 48.5q39 0 68.5 -13t42.5 -31l-62 -90q-20 20 -46 20q-28 0 -45 -23.5t-25 -73.5l-8 -43h175l8 48q20 109 74.5 157.5t129.5 48.5q43 0 73 -14t44 -36l-64 -93q-23 29 -53 29q-31 0 -49.5 -26z" />
    <glyph glyph-name="f_f_b.liga" unicode="ffb" horiz-adv-x="1138" 
d="M584.5 599q-20.5 -26 -30.5 -81l-6 -33h105l-20 -110h-104l-79 -445q-20 -114 -64.5 -166t-120.5 -52t-117 46l65 99q21 -18 42 -18q28 0 44.5 27.5t27.5 93.5l73 415h-175l-78 -445q-21 -114 -66 -166t-120 -52q-76 0 -117 46l66 99q21 -18 41 -18q28 0 44.5 27.5
t28.5 93.5l73 415h-70l20 110h69l9 48q19 109 71.5 157.5t123.5 48.5q39 0 68.5 -13t42.5 -31l-62 -90q-20 20 -46 20q-28 0 -45 -23.5t-25 -73.5l-8 -43h175l8 48q20 109 74 157.5t126 48.5q44 0 75 -19l-21 -108q-22 13 -43 13q-34 0 -54.5 -26zM1067 445.5
q41 -51.5 41 -148.5q0 -47 -8 -91q-24 -132 -87 -192t-143 -60q-94 0 -121 83q-10 -29 -19 -70h-114l134 759h128l-51 -291q52 62 129 62q70 0 111 -51.5zM926.5 104q29.5 36 43.5 115q6 36 6 63q0 49 -18.5 74t-52.5 25q-88 0 -114 -150q-6 -36 -6 -63q0 -52 20 -76t52 -24
q40 0 69.5 36z" />
    <glyph glyph-name="f_f_h.liga" unicode="ffh" horiz-adv-x="1119" 
d="M548 485h105l-20 -110h-104l-79 -445q-20 -114 -64.5 -166t-120.5 -52t-117 46l65 99q21 -18 42 -18q28 0 44.5 27.5t27.5 93.5l73 415h-175l-78 -445q-21 -114 -66 -166t-120 -52q-76 0 -117 46l66 99q21 -18 41 -18q28 0 44.5 27.5t28.5 93.5l73 415h-70l20 110h69
l9 48q19 109 71.5 157.5t123.5 48.5q39 0 68.5 -13t42.5 -31l-62 -90q-20 20 -46 20q-28 0 -45 -23.5t-25 -73.5l-8 -43h175l8 48q20 109 74 157.5t126 48.5q44 0 75 -19l-21 -108q-22 13 -43 13q-34 0 -54.5 -26t-30.5 -81zM1050 458q32 -39 32 -113q0 -34 -8 -80l-53 -299
h-128l49 278q6 33 6 60q0 71 -52 71q-36 0 -64 -31.5t-39 -96.5l-50 -281h-128l135 761h128l-52 -293q54 63 132 63q60 0 92 -39z" />
    <glyph glyph-name="f_f_i.liga" unicode="ffi" horiz-adv-x="850" 
d="M548 485h105l-20 -110h-104l-79 -445q-20 -114 -64.5 -166t-120.5 -52t-117 46l65 99q21 -18 42 -18q28 0 44.5 27.5t27.5 93.5l73 415h-175l-78 -445q-21 -114 -66 -166t-120 -52q-76 0 -117 46l66 99q21 -18 41 -18q28 0 44.5 27.5t28.5 93.5l73 415h-70l20 110h69
l9 48q19 109 71.5 157.5t123.5 48.5q39 0 68.5 -13t42.5 -31l-62 -90q-20 20 -46 20q-28 0 -45 -23.5t-25 -73.5l-8 -43h175l8 48q20 109 74 157.5t126 48.5q44 0 75 -19l-21 -108q-22 13 -43 13q-34 0 -54.5 -26t-30.5 -81zM851.5 690q22.5 -23 22.5 -55q0 -31 -22.5 -54
t-53.5 -23t-53 23t-22 54q0 32 22 55t53 23t53.5 -23zM838 484l-92 -518h-128l92 518h128z" />
    <glyph glyph-name="f_f_k.liga" unicode="ffk" horiz-adv-x="1112" 
d="M548 485h105l-20 -110h-104l-79 -445q-20 -114 -64.5 -166t-120.5 -52t-117 46l65 99q21 -18 42 -18q28 0 44.5 27.5t27.5 93.5l73 415h-175l-78 -445q-21 -114 -66 -166t-120 -52q-76 0 -117 46l66 99q21 -18 41 -18q28 0 44.5 27.5t28.5 93.5l73 415h-70l20 110h69
l9 48q19 109 71.5 157.5t123.5 48.5q39 0 68.5 -13t42.5 -31l-62 -90q-20 20 -46 20q-28 0 -45 -23.5t-25 -73.5l-8 -43h175l8 48q20 109 74 157.5t126 48.5q44 0 75 -19l-21 -108q-22 13 -43 13q-34 0 -54.5 -26t-30.5 -81zM986 484h146l-185 -205l109 -313h-141l-65 206
l-87 -95l-19 -111h-128l134 761h128l-52 -296l-4 -23q-4 -22 -14.5 -79t-18.5 -89q25 34 93 118z" />
    <glyph glyph-name="f_f_l.liga" unicode="ffl" horiz-adv-x="847" 
d="M584.5 599q-20.5 -26 -30.5 -81l-6 -33h105l-20 -110h-104l-79 -445q-20 -114 -64.5 -166t-120.5 -52t-117 46l65 99q21 -18 42 -18q28 0 44.5 27.5t27.5 93.5l73 415h-175l-78 -445q-21 -114 -66 -166t-120 -52q-76 0 -117 46l66 99q21 -18 41 -18q28 0 44.5 27.5
t28.5 93.5l73 415h-70l20 110h69l9 48q19 109 71.5 157.5t123.5 48.5q39 0 68.5 -13t42.5 -31l-62 -90q-20 20 -46 20q-28 0 -45 -23.5t-25 -73.5l-8 -43h175l8 48q20 109 74 157.5t126 48.5q44 0 75 -19l-21 -108q-22 13 -43 13q-34 0 -54.5 -26zM743 -34h-128l135 761h128
z" />
    <glyph glyph-name="f_h.liga" unicode="fh" horiz-adv-x="815" 
d="M280.5 599q-20.5 -26 -29.5 -81l-6 -33h104l-19 -110h-105l-78 -445q-21 -114 -66 -166t-120 -52q-76 0 -117 46l66 99q21 -18 41 -18q28 0 44.5 27.5t28.5 93.5l73 415h-70l20 110h69l9 48q19 109 73 157.5t126 48.5q44 0 75 -19l-20 -108q-23 13 -44 13
q-34 0 -54.5 -26zM746.5 457.5q31.5 -39.5 31.5 -113.5q0 -38 -7 -79l-53 -299h-129l50 278q6 33 6 58q0 73 -53 73q-36 0 -63.5 -31.5t-39.5 -96.5l-50 -281h-128l135 761h128l-52 -293q54 63 132 63q61 0 92.5 -39.5z" />
    <glyph glyph-name="f_i.liga" unicode="fi" horiz-adv-x="546" 
d="M349 485l-19 -110h-105l-78 -445q-21 -114 -66 -166t-120 -52q-76 0 -117 46l66 99q21 -18 41 -18q28 0 44.5 27.5t28.5 93.5l73 415h-70l20 110h69l9 48q19 109 73 157.5t126 48.5q44 0 75 -19l-20 -108q-23 13 -44 13q-34 0 -54.5 -26t-29.5 -81l-6 -33h104zM548 690
q23 -23 23 -55q0 -31 -23 -54t-54 -23t-53 23t-22 54q0 32 22 55t53 23t54 -23zM534 484l-92 -518h-128l92 518h128z" />
    <glyph glyph-name="f_k.liga" unicode="fk" horiz-adv-x="808" 
d="M280.5 599q-20.5 -26 -29.5 -81l-6 -33h104l-19 -110h-105l-78 -445q-21 -114 -66 -166t-120 -52q-76 0 -117 46l66 99q21 -18 41 -18q28 0 44.5 27.5t28.5 93.5l73 415h-70l20 110h69l9 48q19 109 73 157.5t126 48.5q44 0 75 -19l-20 -108q-23 13 -44 13
q-34 0 -54.5 -26zM682 484h147l-186 -205l109 -313h-141l-65 206l-87 -95l-19 -111h-128l134 761h128l-52 -296q-22 -132 -37 -191q38 50 93 118z" />
    <glyph glyph-name="f_l.liga" unicode="fl" horiz-adv-x="543" 
d="M280.5 599q-20.5 -26 -29.5 -81l-6 -33h104l-19 -110h-105l-78 -445q-21 -114 -66 -166t-120 -52q-76 0 -117 46l66 99q21 -18 41 -18q28 0 44.5 27.5t28.5 93.5l73 415h-70l20 110h69l9 48q19 109 73 157.5t126 48.5q44 0 75 -19l-20 -108q-23 13 -44 13
q-34 0 -54.5 -26zM439 -34h-128l135 761h128z" />
    <glyph glyph-name="r_f.liga" unicode="rf" horiz-adv-x="679" 
d="M764.5 725.5q29.5 -13.5 44.5 -36.5l-64 -93q-23 29 -54 29q-30 0 -48.5 -26t-28.5 -81l-6 -34h104l-19 -110h-104l-79 -444q-21 -114 -65.5 -166t-119.5 -52t-118 46l66 99q21 -18 41 -18q28 0 44.5 27.5t28.5 93.5l73 414h-70l20 110h69l9 49q19 109 74 157.5t130 48.5
q43 0 72.5 -13.5zM376 487l-21 -120q-24 15 -54 15q-47 0 -81 -38.5t-49 -110.5l-47 -267h-128l92 518h113l-2 -21q-4 -27 -5 -49q25 41 59.5 62t73.5 21q27 0 49 -10z" />
    <glyph glyph-name="r_t.liga" unicode="rt" horiz-adv-x="731" 
d="M723 375h-128l-35 -197q-5 -32 -5 -51q0 -59 48 -59q27 0 58 21l28 -99q-48 -36 -122 -36q-65 0 -104.5 34t-39.5 112q0 28 6 62l37 213h-75l19 110h76l27 155h129l-28 -155h128zM376 487l-21 -120q-24 15 -54 15q-47 0 -81 -38.5t-49 -110.5l-47 -267h-128l92 518h113
l-2 -21q-4 -27 -5 -49q25 41 59.5 62t73.5 21q27 0 49 -10z" />
    <glyph glyph-name="r_v.liga" unicode="rv" horiz-adv-x="844" 
d="M382 482l-20 -118q-28 18 -59 18q-48 0 -82.5 -38.5t-49.5 -110.5l-47 -267h-128l92 518h113l-2 -21q-4 -27 -5 -49q25 41 59 62t73 21q31 0 56 -15zM543 484l45 -321l155 321h137l-273 -517h-104l-95 517h135z" />
    <glyph glyph-name="r_x.liga" unicode="rx" horiz-adv-x="814" 
d="M382 482l-20 -118q-28 18 -59 18q-48 0 -82.5 -38.5t-49.5 -110.5l-47 -267h-128l92 518h113l-2 -21q-4 -27 -5 -49q25 41 59 62t73 21q31 0 56 -15zM600 336l108 148h141l-204 -261l112 -257h-139l-58 149l-108 -149h-141l203 263l-111 255h139z" />
    <glyph glyph-name="r_y.liga" unicode="ry" horiz-adv-x="846" 
d="M382 482l-20 -118q-28 18 -59 18q-48 0 -82.5 -38.5t-49.5 -110.5l-47 -267h-128l92 518h113l-2 -21q-4 -27 -5 -49q25 41 59 62t73 21q31 0 56 -15zM589 146l161 338h132l-295 -588q-47 -94 -96 -138.5t-125 -44.5q-34 0 -63 10.5t-46 29.5l63 101q24 -24 54 -24
q28 0 50.5 22t54.5 82l20 37l-92 513h134z" />
    <glyph glyph-name=".notdef" horiz-adv-x="500" 
d="M93 850h317v-1000h-317v1000zM333 750v33h-165v-33h65v-37h-66v-33h166v33h-66v37h66zM267 584v70h-100v-104h166v34h-66zM200 620h33v-36h-33v36zM333 490v33h-166v-33h66v-37h-66v-33h100v70h66zM333 363v100h-33v-66h-133v-34h166zM333 228v113h-100v-56h34v23h33v-47
h-100v80h-33v-113h166zM333 55v113h-166v-113h166zM200 135h100v-47h-100v47zM333 -1v33h-166v-33h70l-70 -47v-33h166v33h-102l70 47h32z" />
    <glyph glyph-name=".null" horiz-adv-x="0" 
 />
    <glyph glyph-name="nonmarkingreturn" horiz-adv-x="333" 
 />
    <glyph glyph-name="space" unicode=" " horiz-adv-x="230" 
 />
    <glyph glyph-name="exclam" unicode="!" horiz-adv-x="226" 
d="M47 201l73 525h146l-113 -525h-106zM13 -23q-24 25 -24 60t24 60t58 25q35 0 59.5 -25t24.5 -60t-24.5 -60t-59.5 -25q-34 0 -58 25z" />
    <glyph glyph-name="quotedbl" unicode="&#x22;" horiz-adv-x="401" 
d="M90 469l46 301h119l-59 -301h-106zM276 469l46 301h119l-59 -301h-106z" />
    <glyph glyph-name="numbersign" unicode="#" horiz-adv-x="597" 
d="M561 562h77l-21 -122h-100l-64 -177h78l-21 -122h-101l-64 -178h-121l64 178h-101l-63 -178h-122l64 178h-78l21 122h101l64 177h-79l21 122h102l64 179h121l-64 -179h100l65 179h121zM294 446l-68 -189h107l67 189h-106z" />
    <glyph glyph-name="dollar" unicode="$" 
d="M330 373q68 -36 106.5 -77.5t38.5 -109.5q0 -12 -4 -40q-16 -88 -74 -134t-134 -55l-24 -133h-114l25 138q-67 19 -109.5 71.5t-48.5 133.5l113 50q7 -51 24 -83.5t48 -45.5l36 202q-69 37 -107.5 78.5t-38.5 109.5q0 22 4 42q17 90 75.5 135t135.5 54l21 124h114
l-23 -132q63 -18 100 -64.5t40 -111.5l-115 -54q-12 77 -54 102zM196 498q0 -39 41 -71l28 159q-27 -7 -45 -26t-23 -46q-1 -6 -1 -16zM305 236l-27 -156q32 8 49.5 30.5t17.5 54.5q0 39 -40 71z" />
    <glyph glyph-name="percent" unicode="%" horiz-adv-x="772" 
d="M313.5 384q-52.5 -43 -117.5 -43q-63 0 -102.5 41t-39.5 112q0 24 4 45q16 88 68 130t118 42q63 0 102 -39.5t39 -109.5q0 -24 -4 -47q-15 -88 -67.5 -131zM578 698h137l-504 -732h-138zM268 546q0 26 -10.5 40t-28.5 14q-19 0 -34 -17.5t-21 -52.5q-3 -15 -3 -26
q0 -24 10 -37.5t28 -13.5q20 0 35.5 17.5t21.5 52.5q2 16 2 23zM669 -3q-52 -43 -117 -43q-63 0 -102.5 40t-39.5 110q0 24 4 47q15 88 67 130.5t118 42.5q63 0 102.5 -39.5t39.5 -108.5q0 -20 -5 -48q-15 -88 -67 -131zM623 160q0 25 -10.5 38.5t-28.5 13.5q-19 0 -34 -17
t-21 -52q-3 -13 -3 -26q0 -24 10 -37.5t28 -13.5q20 0 35.5 17t21.5 52q2 9 2 25z" />
    <glyph glyph-name="ampersand" unicode="&#x26;" horiz-adv-x="615" 
d="M607 380q-44 -144 -120 -248l102 -166h-156l-40 68q-94 -80 -202 -80q-89 0 -140 51t-51 134q0 22 5 50q14 80 58 127.5t113 82.5q-31 65 -31 125q0 25 4 45q16 86 71.5 128.5t132.5 42.5t119.5 -45t42.5 -113q0 -18 -3 -38q-12 -66 -53.5 -106t-111.5 -75l71 -119
q34 63 54 136h135zM276 526q0 -36 17 -73q44 25 67.5 51.5t23.5 67.5q0 22 -11.5 34.5t-32.5 12.5q-50 0 -61 -63q-3 -13 -3 -30zM271.5 92.5q30.5 14.5 59.5 42.5l-100 168q-77 -49 -91 -122q-3 -15 -3 -27q0 -36 20.5 -56t55.5 -20q28 0 58.5 14.5z" />
    <glyph glyph-name="quotesingle" unicode="'" horiz-adv-x="214" 
d="M90 469l46 301h119l-59 -301h-106z" />
    <glyph glyph-name="parenleft" unicode="(" horiz-adv-x="365" 
d="M153 597q63 111 153 184h137q-92 -91 -151.5 -199.5t-85.5 -253.5q-14 -84 -14 -148q0 -91 22.5 -168.5t65.5 -156.5h-137q-44 67 -67.5 154.5t-23.5 187.5q0 74 13 148q25 141 88 252z" />
    <glyph glyph-name="parenright" unicode=")" horiz-adv-x="365" 
d="M228.5 38.5q-62.5 -110.5 -152.5 -183.5h-137q92 91 151.5 199.5t85.5 253.5q14 82 14 147q0 91 -22.5 169t-65.5 157h137q44 -67 67.5 -154.5t23.5 -187.5q0 -74 -13 -148q-26 -142 -88.5 -252.5z" />
    <glyph glyph-name="asterisk" unicode="*" horiz-adv-x="450" 
d="M318 566l122 77l37 -90l-133 -56l113 -57l-68 -90l-96 77l-11 -133h-104l35 134l-123 -78l-36 90l130 57l-110 56l68 90l95 -77l12 133h104z" />
    <glyph glyph-name="plus" unicode="+" 
d="M367 554l-29 -165h164l-21 -122h-165l-29 -165h-123l30 165h-165l21 122h165l29 165h123z" />
    <glyph glyph-name="comma" unicode="," horiz-adv-x="236" 
d="M143 97q23 -25 23 -73q0 -16 -3 -34q-15 -85 -73.5 -144t-143.5 -69l5 78q45 8 74.5 33.5t42.5 64.5q-32 3 -51.5 24.5t-19.5 51.5q0 38 25.5 65.5t62.5 27.5q35 0 58 -25z" />
    <glyph glyph-name="hyphen" unicode="-" horiz-adv-x="384" 
d="M35 210l20 116h301l-20 -116h-301z" />
    <glyph glyph-name="period" unicode="." horiz-adv-x="223" 
d="M11 -23q-24 25 -24 60t24 60t58 25q35 0 59.5 -25t24.5 -60t-24.5 -60t-59.5 -25q-34 0 -58 25z" />
    <glyph glyph-name="slash" unicode="/" horiz-adv-x="386" 
d="M-47 -34l369 732h132l-369 -732h-132z" />
    <glyph glyph-name="zero" unicode="0" 
d="M371 37.5q-68 -83.5 -170 -83.5q-83 0 -125.5 51t-42.5 165q0 76 17 169q36 204 105.5 288t170.5 84q81 0 123.5 -51t42.5 -166q0 -75 -17 -169q-36 -204 -104 -287.5zM168 161q0 -45 12.5 -64.5t38.5 -19.5t45.5 23t36.5 77t34 150q21 119 21 177q0 44 -11.5 63.5
t-36.5 19.5q-27 0 -47 -22.5t-37.5 -77t-34.5 -152.5q-21 -115 -21 -174z" />
    <glyph glyph-name="one" unicode="1" 
d="M101 422l25 144l213 133h108l-130 -733h-140l100 565z" />
    <glyph glyph-name="two" unicode="2" 
d="M442.5 389.5q-31.5 -51.5 -108.5 -142.5l-137 -163h234l-22 -118h-415l16 89l217 257q64 76 85.5 109.5t28.5 72.5q4 19 4 36q0 57 -48 57q-31 0 -56.5 -26t-49.5 -80l-98 62q35 84 95 126t136 42q80 0 122 -44t42 -120q0 -26 -4 -50q-10 -56 -41.5 -107.5z" />
    <glyph glyph-name="three" unicode="3" 
d="M439.5 406q-29.5 -40 -74.5 -61q37 -21 56.5 -59.5t19.5 -90.5q0 -27 -4 -51q-16 -91 -75.5 -140.5t-151.5 -49.5q-87 0 -138 43.5t-61 127.5l114 53q4 -50 27 -76.5t60 -26.5q71 0 86 89q3 15 3 30q0 44 -25 69t-72 25h-31l19 112h33q50 0 77.5 27.5t35.5 73.5q2 9 2 26
q0 30 -13.5 46.5t-41.5 16.5q-62 0 -100 -95l-93 63q29 78 86.5 115.5t130.5 37.5q83 0 128.5 -48t45.5 -122q0 -14 -4 -42q-10 -53 -39.5 -93z" />
    <glyph glyph-name="four" unicode="4" 
d="M436 409l-31 -173h87l-20 -117h-88l-27 -153h-127l27 153h-266l17 95l298 484h140l-286 -462h118l31 173h127z" />
    <glyph glyph-name="five" unicode="5" 
d="M501 698l-20 -115h-216l-46 -160q30 13 67 13q76 0 119.5 -51t43.5 -135q0 -30 -6 -63q-20 -116 -87.5 -174.5t-155.5 -58.5q-77 0 -125 44t-55 125l117 49q3 -49 22 -73t50 -24q34 0 58 29.5t34 83.5q5 28 5 46q0 40 -16.5 62.5t-48.5 22.5q-25 0 -47.5 -14t-37.5 -40
l-91 44l109 389h327z" />
    <glyph glyph-name="six" unicode="6" 
d="M423.5 377.5q41.5 -49.5 41.5 -133.5q0 -31 -6 -64q-20 -115 -89.5 -170.5t-157.5 -55.5q-87 0 -139 52t-52 145q0 30 6 63q8 44 22 78t33.5 64.5t64.5 94.5l172 247h145l-168 -239q-5 -7 -11 -16l-14 -21q20 5 38 5q73 0 114.5 -49.5zM323 230q0 39 -16 61t-47 22
q-36 0 -61 -29t-35 -84q-4 -21 -4 -43q0 -39 16.5 -60.5t47.5 -21.5q36 0 61 28.5t34 84.5q4 20 4 42z" />
    <glyph glyph-name="seven" unicode="7" 
d="M370 579h-270l20 119h419l-15 -85l-316 -647h-146z" />
    <glyph glyph-name="eight" unicode="8" 
d="M458.5 413q-29.5 -37 -73.5 -57q37 -23 57.5 -61.5t20.5 -88.5q0 -21 -5 -49q-16 -95 -83.5 -149t-163.5 -54q-98 0 -150.5 51.5t-52.5 132.5q0 26 4 47q12 70 50 115.5t93 68.5q-31 21 -48 54.5t-17 75.5q0 17 3 35q14 79 75 128t152 49q90 0 135.5 -46.5t45.5 -117.5
q0 -23 -4 -42q-9 -55 -38.5 -92zM351.5 577.5q-15.5 19.5 -44.5 19.5q-36 0 -59.5 -30t-23.5 -80q0 -32 15 -51.5t44 -19.5q35 0 59.5 29t24.5 81q0 32 -15.5 51.5zM327 218q0 40 -18.5 63.5t-52.5 23.5q-36 0 -64.5 -28t-37.5 -82q-4 -26 -4 -36q0 -41 19.5 -63t53.5 -22
q36 0 64 27.5t37 80.5q3 20 3 36z" />
    <glyph glyph-name="nine" unicode="9" 
d="M454 659q52 -52 52 -145q0 -30 -6 -63q-10 -58 -31 -98.5t-73 -115.5l-16 -23l-173 -247h-144l168 239l14 21t11 16q-20 -5 -38 -5q-73 0 -115 50t-42 134q0 30 6 63q21 115 90.5 170.5t157.5 55.5q87 0 139 -52zM367 508q0 39 -16.5 60.5t-47.5 21.5q-36 0 -61 -28.5
t-34 -84.5q-4 -20 -4 -43q0 -38 16.5 -59.5t46.5 -21.5q36 0 61 28.5t35 83.5q4 21 4 43z" />
    <glyph glyph-name="colon" unicode=":" horiz-adv-x="245" 
d="M88.5 352q-24.5 25 -24.5 60t24.5 60t58.5 25q35 0 59.5 -25t24.5 -60t-25 -60t-59 -25t-58.5 25zM23 -21q-24 25 -24 60t24 60t58 25t59 -25t25 -60t-24.5 -60t-59.5 -25q-34 0 -58 25z" />
    <glyph glyph-name="semicolon" unicode=";" horiz-adv-x="256" 
d="M214.5 472q24.5 -25 24.5 -60t-24.5 -60t-58.5 -25t-58.5 25t-24.5 60t24.5 60t58.5 25t58.5 -25zM149.5 97.5q22.5 -24.5 22.5 -72.5q0 -15 -3 -35q-15 -85 -73 -144t-143 -69l5 78q45 8 74.5 33.5t41.5 64.5q-31 2 -51 24t-20 53q0 38 26 65t63 27q35 0 57.5 -24.5z
" />
    <glyph glyph-name="less" unicode="&#x3c;" 
d="M537 591l-24 -132l-315 -131l269 -131l-23 -132l-416 202l21 122z" />
    <glyph glyph-name="equal" unicode="=" 
d="M501 383h-452l21 122h453zM461 152h-452l21 122h452z" />
    <glyph glyph-name="greater" unicode="&#x3e;" 
d="M333 328l-269 131l23 132l416 -202l-22 -122l-487 -202l24 132z" />
    <glyph glyph-name="question" unicode="?" horiz-adv-x="416" 
d="M33 575q41 82 107.5 123t141.5 41q82 0 133.5 -47t51.5 -122q0 -13 -4 -39q-7 -41 -25 -71t-39.5 -50.5t-56.5 -47.5q-34 -26 -55 -45.5t-36.5 -48t-19.5 -67.5h-113q-1 9 -1 25q0 52 16 89.5t38 61.5t58 54q37 31 55.5 52.5t23.5 52.5q1 6 1 17q0 25 -14 39t-41 14
q-32 0 -62.5 -23t-55.5 -74zM94 -23q-24 25 -24 60t24 60t58 25q35 0 59.5 -25t24.5 -60t-24.5 -60t-59.5 -25q-34 0 -58 25z" />
    <glyph glyph-name="at" unicode="@" horiz-adv-x="806" 
d="M648 698.5q72 -41.5 111.5 -121t39.5 -189.5q0 -62 -11 -123q-21 -121 -67.5 -178t-124.5 -57q-46 0 -78 19t-44 57q-46 -75 -118 -75q-61 0 -100 52t-39 139q0 38 7 74q13 75 44 126.5t71 77t82 25.5q34 0 60 -17.5t41 -50.5q7 21 15 56h98l-52 -291q-4 -30 -4 -39
q0 -24 7.5 -34.5t23.5 -10.5q27 0 44 33.5t29 101.5q10 56 10 109q0 125 -59.5 190t-164.5 65q-82 0 -150 -40t-115.5 -118t-67.5 -189q-8 -43 -8 -92q0 -83 29 -144.5t82 -94.5t124 -33q47 0 89 15t75 41l45 -81q-95 -77 -217 -77q-98 0 -173 44.5t-116.5 127t-41.5 192.5
q0 56 10 112q25 142 89 241t156 149t200 50q97 0 169 -41.5zM444 180q25 27 37 90q4 23 4 46q0 43 -16 64t-42 21q-30 0 -53 -28.5t-34 -86.5q-5 -28 -5 -48q0 -40 14.5 -62.5t40.5 -22.5q29 0 54 27z" />
    <glyph glyph-name="A" unicode="A" horiz-adv-x="624" 
d="M449 698l113 -732h-143l-20 167h-222l-78 -167h-145l367 732h128zM385 254l-31 264l-122 -264h153z" />
    <glyph glyph-name="B" unicode="B" horiz-adv-x="562" 
d="M439 341q37 -21 56.5 -56.5t19.5 -82.5q0 -24 -4 -45q-17 -95 -84 -143t-171 -48h-249l129 732h206q88 0 142 -49t54 -129q0 -22 -4 -42q-18 -96 -95 -137zM290 396q43 0 70 21t35 65q2 8 2 23q0 35 -21 55t-60 20h-69l-33 -184h76zM376 196q0 39 -23 62.5t-67 23.5h-92
l-34 -197h97q51 0 79.5 19t36.5 65q3 14 3 27z" />
    <glyph glyph-name="C" unicode="C" horiz-adv-x="549" 
d="M260.5 531q-44.5 -56 -67.5 -182q-11 -64 -11 -109q0 -80 28.5 -121t81.5 -41q37 0 67 22.5t56 72.5l102 -63q-33 -76 -95.5 -116t-141.5 -40q-112 0 -175 73.5t-63 209.5q0 62 11 122q32 183 119.5 267.5t207.5 84.5q95 0 148 -49t56 -131l-117 -60q-7 56 -33 86t-71 30
q-58 0 -102.5 -56z" />
    <glyph glyph-name="D" unicode="D" horiz-adv-x="614" 
d="M345 698q117 0 184 -73t67 -204q0 -42 -10 -102q-30 -169 -126 -261t-236 -92h-217l129 732h209zM454 415q0 167 -141 167h-63l-88 -499h64q88 0 143 57.5t76 179.5q9 53 9 95z" />
    <glyph glyph-name="E" unicode="E" horiz-adv-x="500" 
d="M136 698h393l-21 -118h-259l-32 -182h233l-21 -118h-233l-34 -195h268l-21 -119h-402z" />
    <glyph glyph-name="F" unicode="F" horiz-adv-x="476" 
d="M136 698h393l-21 -119h-259l-35 -197h233l-21 -118h-233l-52 -298h-134z" />
    <glyph glyph-name="G" unicode="G" horiz-adv-x="594" 
d="M423 249h-105l21 117h237l-55 -305q-34 -49 -91.5 -78t-130.5 -29q-77 0 -134.5 34t-89.5 100t-32 160q0 55 10 112q22 122 73 200.5t119.5 114.5t146.5 36q94 0 148.5 -50t59.5 -130l-120 -61q-5 54 -30.5 85.5t-75.5 31.5q-63 0 -112.5 -57t-71.5 -180q-10 -60 -10 -97
q0 -88 36 -132t97 -44q52 0 86 33z" />
    <glyph glyph-name="H" unicode="H" horiz-adv-x="638" 
d="M218 406h248l52 292h134l-129 -732h-134l56 319h-248l-56 -319h-134l129 732h134z" />
    <glyph glyph-name="I" unicode="I" horiz-adv-x="256" 
d="M141 -34h-134l129 732h134z" />
    <glyph glyph-name="J" unicode="J" horiz-adv-x="449" 
d="M32 -9.5q-47 36.5 -56 114.5l117 66q7 -49 23 -71t45 -22q37 0 57 33.5t34 109.5l83 477h135l-88 -499q-23 -129 -78 -187t-150 -58q-75 0 -122 36.5z" />
    <glyph glyph-name="K" unicode="K" horiz-adv-x="617" 
d="M502 698h163l-266 -287l160 -445h-153l-112 330l-117 -125l-36 -205h-134l129 732h134l-42 -237q-10 -58 -20 -98q39 47 91 106z" />
    <glyph glyph-name="L" unicode="L" horiz-adv-x="474" 
d="M136 698h134l-107 -611h258l-22 -121h-392z" />
    <glyph glyph-name="M" unicode="M" horiz-adv-x="717" 
d="M630 698h101l-129 -732h-128l77 437l-173 -242h-69l-95 263l-81 -458h-126l129 732h104l129 -375z" />
    <glyph glyph-name="N" unicode="N" horiz-adv-x="624" 
d="M241 698l190 -477l83 477h124l-129 -732h-106l-190 469l-83 -469h-123l129 732h105z" />
    <glyph glyph-name="O" unicode="O" horiz-adv-x="635" 
d="M171.5 626q86.5 85 205.5 85q112 0 176 -73t64 -209q0 -61 -11 -120q-33 -186 -120.5 -270.5t-206.5 -84.5q-113 0 -176 72.5t-63 208.5q0 56 12 122q33 184 119.5 269zM181 235q0 -78 28.5 -117.5t83.5 -39.5q63 0 106.5 55t66.5 185q10 59 10 109q0 79 -27.5 119.5
t-82.5 40.5q-64 0 -108 -56.5t-66 -184.5q-11 -66 -11 -111z" />
    <glyph glyph-name="P" unicode="P" horiz-adv-x="532" 
d="M328 698q107 0 164.5 -55.5t57.5 -146.5q0 -24 -5 -54q-19 -104 -91 -161t-187 -57h-80l-46 -258h-134l129 732h192zM408 484q0 47 -28 72.5t-74 25.5h-56l-43 -241h66q53 0 87.5 27.5t44.5 84.5q3 17 3 31z" />
    <glyph glyph-name="Q" unicode="Q" horiz-adv-x="638" 
d="M438 -1l146 -200h-157l-118 156q-9 -1 -30 -1q-113 0 -176 72.5t-63 208.5q0 56 12 122q33 184 119.5 269t205.5 85q112 0 176 -73t64 -209q0 -61 -11 -120q-42 -227 -168 -310zM399.5 133q43.5 55 66.5 185q10 59 10 109q0 79 -27.5 119.5t-82.5 40.5q-64 0 -108 -56.5
t-66 -184.5q-11 -66 -11 -111q0 -78 28.5 -117.5t83.5 -39.5q63 0 106.5 55z" />
    <glyph glyph-name="R" unicode="R" horiz-adv-x="558" 
d="M493.5 335.5q-39.5 -49.5 -101.5 -73.5l121 -296l-144 1l-106 273h-76l-48 -274h-132l129 732h197q104 0 160.5 -52.5t56.5 -139.5q0 -21 -5 -51q-12 -70 -51.5 -119.5zM409 492q0 45 -28 67.5t-76 22.5h-57l-40 -226h64q54 0 89.5 26t45.5 82q2 10 2 28z" />
    <glyph glyph-name="S" unicode="S" horiz-adv-x="485" 
d="M373 7q-63 -53 -163 -53q-96 0 -157.5 50t-68.5 141l118 60q8 -64 39.5 -96t78.5 -32q43 0 67 27q15 20 19 47q2 14 2 21q0 40 -25.5 67t-77.5 62q-43 29 -69.5 52t-45 57t-18.5 80q0 22 4 42q16 89 83 137q61 42 148 42q61 0 105.5 -22t68 -59.5t25.5 -83.5l-117 -59
q-16 101 -92 101q-35 0 -56 -18q-28 -23 -28 -65q0 -34 23 -57.5t73 -55.5q45 -30 72.5 -53.5t47.5 -60.5t20 -88q0 -19 -5 -49q-17 -87 -71 -134z" />
    <glyph glyph-name="T" unicode="T" horiz-adv-x="506" 
d="M84 698h489l-21 -120h-177l-108 -612h-134l108 612h-178z" />
    <glyph glyph-name="U" unicode="U" horiz-adv-x="625" 
d="M511 698h134l-81 -466q-25 -147 -99.5 -212.5t-192.5 -65.5q-111 0 -168 56.5t-57 167.5q0 44 9 95l73 425h135l-71 -405q-9 -51 -9 -89q0 -65 25.5 -95.5t77.5 -30.5q56 0 93.5 42t55.5 150z" />
    <glyph glyph-name="V" unicode="V" horiz-adv-x="610" 
d="M228 698l60 -531l238 531h151l-357 -732h-134l-103 732h145z" />
    <glyph glyph-name="W" unicode="W" horiz-adv-x="868" 
d="M567 698l30 -500l199 500h139l-320 -732h-114l-38 466l-200 -466h-114l-65 732h138l27 -500l202 500h116z" />
    <glyph glyph-name="X" unicode="X" horiz-adv-x="601" 
d="M334 464l169 234h157l-276 -360l158 -372h-154l-97 251l-184 -252l-155 1l288 376l-149 356h152z" />
    <glyph glyph-name="Y" unicode="Y" horiz-adv-x="564" 
d="M307 397l181 301h147l-283 -443l-52 -289h-136l52 291l-137 441h150z" />
    <glyph glyph-name="Z" unicode="Z" horiz-adv-x="484" 
d="M94 578l21 120h419l-14 -79l-363 -532h283l-23 -121h-456l15 80l363 532h-245z" />
    <glyph glyph-name="bracketleft" unicode="[" horiz-adv-x="359" 
d="M159 781h274l-23 -126h-134l-118 -674h134l-22 -126h-274z" />
    <glyph glyph-name="backslash" unicode="\" horiz-adv-x="381" 
d="M82 698h127l110 -732h-126z" />
    <glyph glyph-name="bracketright" unicode="]" horiz-adv-x="359" 
d="M85 655l21 126h274l-163 -926h-274l22 126h134l119 674h-133z" />
    <glyph glyph-name="asciicircum" unicode="^" horiz-adv-x="481" 
d="M288 537l-138 -243h-124l231 404h118l89 -404h-123z" />
    <glyph glyph-name="underscore" unicode="_" horiz-adv-x="381" 
d="M-88 -233l20 116h381l-20 -116h-381z" />
    <glyph glyph-name="grave" unicode="`" horiz-adv-x="306" 
d="M162 714h120l42 -165h-88z" />
    <glyph glyph-name="a" unicode="a" horiz-adv-x="519" 
d="M506 484l-92 -518h-114q6 40 7 64q-28 -40 -64.5 -58t-76.5 -18q-70 0 -111 51.5t-41 147.5q0 47 8 91q24 133 87 193t143 60q95 0 122 -85q10 34 18 72h114zM288.5 105.5q28.5 36.5 43.5 117.5q6 35 6 60q0 52 -20 75.5t-53 23.5q-86 0 -113 -150q-6 -34 -6 -62
q0 -50 18.5 -75.5t53.5 -25.5q42 0 70.5 36.5z" />
    <glyph glyph-name="b" unicode="b" horiz-adv-x="518" 
d="M447 445.5q41 -51.5 41 -148.5q0 -47 -8 -91q-24 -132 -87 -192t-143 -60q-94 0 -122 83q-11 -41 -18 -70h-114l134 759h128l-51 -291q52 62 129 62q70 0 111 -51.5zM306.5 104q29.5 36 43.5 115q6 35 6 62q0 100 -72 100q-38 0 -68.5 -33.5t-44.5 -116.5q-6 -36 -6 -64
q0 -52 19.5 -75.5t52.5 -23.5q40 0 69.5 36z" />
    <glyph glyph-name="c" unicode="c" horiz-adv-x="411" 
d="M295 123l87 -59q-27 -58 -76.5 -84t-104.5 -26q-84 0 -135 54t-51 156q0 39 7 80q26 145 114 209q59 44 137 44q65 0 106 -34.5t45 -104.5l-104 -50q-4 38 -18 56t-41 18q-37 0 -65.5 -36t-42.5 -114q-6 -34 -6 -63q0 -49 18 -74.5t52 -25.5q49 0 78 54z" />
    <glyph glyph-name="d" unicode="d" horiz-adv-x="518" 
d="M422 727h128l-135 -761h-114l3 26l4 38q-28 -40 -64.5 -58t-76.5 -18q-70 0 -111.5 51.5t-41.5 146.5q0 43 9 92q23 133 86 193t143 60q87 0 116 -70zM332 220q6 36 6 63q0 52 -19.5 75.5t-52.5 23.5q-40 0 -69.5 -36t-43.5 -114q-6 -36 -6 -63q0 -50 18.5 -75t52.5 -25
q87 0 114 151z" />
    <glyph glyph-name="e" unicode="e" horiz-adv-x="439" 
d="M312 133l85 -64q-28 -57 -82 -86t-114 -29q-84 0 -136 54.5t-52 157.5q0 39 7 78q24 132 95.5 192.5t162.5 60.5q76 0 116.5 -39t40.5 -106q0 -167 -235 -167q-18 0 -58 2q-7 -118 76 -118q60 0 94 64zM157 285q30 -3 55 -3q49 0 72.5 14t23.5 45q0 45 -49 45
q-74 0 -102 -101z" />
    <glyph glyph-name="f" unicode="f" horiz-adv-x="316" 
d="M401 725q30 -14 45 -36l-64 -93q-13 15 -25.5 22t-28.5 7q-31 0 -49.5 -26t-27.5 -81l-6 -34h104l-19 -110h-105l-78 -444q-21 -114 -66 -166t-120 -52q-76 0 -117 46l66 99q21 -18 41 -18q28 0 44.5 27.5t28.5 93.5l73 414h-70l20 110h69l9 49q19 109 73.5 157.5
t130.5 48.5q42 0 72 -14z" />
    <glyph glyph-name="g" unicode="g" horiz-adv-x="508" 
d="M504 484l-89 -499q-26 -150 -95.5 -211.5t-161.5 -61.5q-79 0 -131.5 39.5t-61.5 118.5l105 54q10 -49 33.5 -72t62.5 -23q52 0 81.5 39t45.5 132l3 15q-53 -61 -129 -61q-70 0 -111.5 51.5t-41.5 146.5q0 43 9 92q23 133 86 193t143 60q95 0 122 -83q14 50 18 70h112z
M338 283q0 52 -19.5 75.5t-52.5 23.5q-40 0 -69.5 -36t-43.5 -114q-6 -36 -6 -63q0 -50 18.5 -75t52.5 -25q87 0 114 151q6 36 6 63z" />
    <glyph glyph-name="h" unicode="h" horiz-adv-x="499" 
d="M431 458q32 -39 32 -113q0 -34 -8 -80l-53 -299h-128l49 278q6 33 6 60q0 71 -52 71q-36 0 -64 -31.5t-40 -96.5l-49 -281h-128l135 761h128l-52 -293q27 31 60.5 47t70.5 16q61 0 93 -39z" />
    <glyph glyph-name="i" unicode="i" horiz-adv-x="231" 
d="M126 581q-22 23 -22 54q0 32 22 55t53 23t53.5 -23t22.5 -55q0 -31 -22.5 -54t-53.5 -23t-53 23zM127 -34h-128l92 518h128z" />
    <glyph glyph-name="j" unicode="j" horiz-adv-x="220" 
d="M121 581q-22 23 -22 54q0 32 22.5 55t52.5 23q32 0 54.5 -23t22.5 -55t-22.5 -54.5t-54.5 -22.5q-31 0 -53 23zM-160 -274q-31 13 -47 34l66 97q22 -27 54 -27q31 0 48.5 26t28.5 89l96 539h128l-99 -557q-20 -116 -72.5 -165t-129.5 -49q-42 0 -73 13z" />
    <glyph glyph-name="k" unicode="k" horiz-adv-x="492" 
d="M365 484h147l-186 -205l110 -313h-141l-66 206l-86 -95l-19 -111h-128l134 761h128l-52 -296q-11 -64 -20.5 -112.5t-17.5 -78.5q26 35 94 118z" />
    <glyph glyph-name="l" unicode="l" horiz-adv-x="227" 
d="M124 -34h-128l135 761h128z" />
    <glyph glyph-name="m" unicode="m" horiz-adv-x="710" 
d="M649.5 464.5q27.5 -32.5 27.5 -98.5q0 -32 -8 -80l-56 -320h-124l48 269q8 46 8 72q0 65 -42 65q-29 0 -52.5 -28t-32.5 -83l-52 -295h-123l47 269q8 46 8 74q0 32 -10 47.5t-32 15.5q-30 0 -52.5 -29.5t-33.5 -89.5l-51 -287h-123l92 518h113q-1 -8 -3.5 -29t-3.5 -37
q55 79 131 79q42 0 68.5 -21.5t36.5 -63.5q58 85 141 85q51 0 78.5 -32.5z" />
    <glyph glyph-name="n" unicode="n" horiz-adv-x="499" 
d="M431 458q32 -39 32 -113q0 -34 -8 -80l-53 -299h-128l49 278q6 33 6 59q0 72 -52 72q-35 0 -63 -30t-39 -93l-51 -286h-128l92 519h113q-1 -7 -3.5 -29t-3.5 -39q55 80 144 80q61 0 93 -39z" />
    <glyph glyph-name="o" unicode="o" horiz-adv-x="491" 
d="M115 437.5q69 59.5 158 59.5q86 0 137 -53t51 -155q0 -36 -8 -84q-23 -135 -92 -193t-157 -58t-139 53t-51 154q0 35 8 83q24 134 93 193.5zM146 165q0 -96 69 -96q82 0 107 148q7 38 7 70q0 95 -68 95q-82 0 -108 -151q-7 -35 -7 -66z" />
    <glyph glyph-name="p" unicode="p" horiz-adv-x="518" 
d="M447.5 445.5q41.5 -51.5 41.5 -147.5q0 -41 -9 -92q-24 -132 -87 -192t-142 -60q-86 0 -117 69l-52 -298h-129l134 759h114q-4 -30 -6 -64q28 40 64.5 58.5t76.5 18.5q70 0 111.5 -51.5zM306.5 104q29.5 36 43.5 115q6 36 6 63q0 49 -18.5 74t-52.5 25q-87 0 -114 -150
q-6 -36 -6 -63q0 -52 20 -76t52 -24q40 0 69.5 36z" />
    <glyph glyph-name="q" unicode="q" horiz-adv-x="518" 
d="M507 484l-134 -759h-128l51 291q-51 -62 -129 -62q-70 0 -111.5 51.5t-41.5 146.5q0 43 9 92q23 133 86 193t143 60q95 0 122 -83q7 22 18 70h115zM332 220q6 36 6 63q0 52 -19.5 75.5t-52.5 23.5q-40 0 -69.5 -36t-43.5 -114q-6 -36 -6 -63q0 -50 18.5 -75t52.5 -25
q87 0 114 151z" />
    <glyph glyph-name="r" unicode="r" horiz-adv-x="374" 
d="M376.5 485q21.5 -12 30.5 -30l-71 -106q-19 26 -52 26q-40 0 -70.5 -37.5t-43.5 -110.5l-46 -261h-128l92 518h113l-2 -21q-4 -31 -5 -49q26 41 60.5 62t71.5 21q29 0 50.5 -12z" />
    <glyph glyph-name="s" unicode="s" horiz-adv-x="385" 
d="M284 -6q-50 -40 -131 -40q-74 0 -121 39t-54 107l102 51q4 -45 24.5 -67t51.5 -22q26 0 41 14t15 38q0 23 -17 39t-53 39q-33 21 -53.5 37t-35 41.5t-14.5 59.5q0 41 16.5 74.5t44.5 54.5q50 38 125 38q74 0 116 -38.5t45 -94.5l-102 -50q-4 35 -20.5 55.5t-43.5 20.5
q-22 0 -36 -12t-14 -33t16 -36t51 -36q34 -22 55 -39t36.5 -43.5t15.5 -62.5q0 -15 -3 -32q-10 -63 -57 -102z" />
    <glyph glyph-name="t" unicode="t" horiz-adv-x="361" 
d="M354 375h-128l-35 -197q-6 -28 -6 -51q0 -59 49 -59q27 0 57 21l29 -99q-49 -36 -122 -36q-65 0 -104.5 33.5t-39.5 110.5q0 28 6 64l37 213h-75l19 110h75l28 155h128l-27 -155h128z" />
    <glyph glyph-name="u" unicode="u" horiz-adv-x="499" 
d="M52 -7q-32 39 -32 113q0 34 8 80l53 299h128l-49 -279q-6 -33 -6 -59q0 -71 52 -71q35 0 63 30t39 93l51 286h128l-92 -519h-113l7 67q-56 -79 -144 -79q-61 0 -93 39z" />
    <glyph glyph-name="v" unicode="v" horiz-adv-x="477" 
d="M176 484l44 -321l156 321h137l-273 -517h-105l-95 517h136z" />
    <glyph glyph-name="w" unicode="w" horiz-adv-x="703" 
d="M441 484l28 -320l138 320h132l-251 -517h-95l-42 293l-141 -293h-97l-73 517h129l28 -326l139 326h105z" />
    <glyph glyph-name="x" unicode="x" horiz-adv-x="451" 
d="M238 336l108 148h141l-204 -261l112 -257h-139l-58 149l-108 -149h-142l204 263l-112 255h140z" />
    <glyph glyph-name="y" unicode="y" horiz-adv-x="478" 
d="M221 146l161 338h132l-294 -588q-47 -94 -96.5 -138.5t-124.5 -44.5q-35 0 -63.5 10.5t-46.5 29.5l64 101q22 -24 54 -24q28 0 50.5 22t54.5 82l20 37l-93 513h135z" />
    <glyph glyph-name="z" unicode="z" horiz-adv-x="369" 
d="M62 484h327l-13 -77l-244 -335h198l-19 -106h-356l14 78l244 335h-170z" />
    <glyph glyph-name="braceleft" unicode="{" horiz-adv-x="394" 
d="M467 781l-23 -126h-27q-38 0 -61 -27t-33 -85l-12 -64q-13 -72 -44 -111t-85 -49q76 -29 76 -120q0 -25 -6 -57l-11 -63q-4 -21 -4 -40q0 -34 17.5 -46t57.5 -12h14l-23 -126h-17q-101 0 -149 30.5t-48 106.5q0 23 7 65l15 79q4 21 4 42q0 39 -20.5 55t-68.5 22l26 143
q42 0 66 10.5t37 34.5t22 69l14 79q14 76 44 117.5t72.5 57t105.5 15.5h54z" />
    <glyph glyph-name="bar" unicode="|" horiz-adv-x="220" 
d="M-23 -145l164 926h118l-164 -926h-118z" />
    <glyph glyph-name="braceright" unicode="}" horiz-adv-x="396" 
d="M-54 -145l22 126h28q38 0 61 27t33 85l11 64q13 72 44.5 111t85.5 49q-76 28 -76 121q0 31 5 56l11 63q5 27 5 41q0 33 -18 45t-58 12h-13l23 126h16q101 0 149 -30.5t48 -106.5q0 -31 -7 -65l-14 -79q-5 -28 -5 -44q0 -38 21 -54t69 -21l-26 -143q-42 0 -66 -10.5
t-37.5 -34.5t-21.5 -69l-15 -79q-14 -76 -43.5 -117.5t-72.5 -57t-105 -15.5h-54z" />
    <glyph glyph-name="asciitilde" unicode="~" 
d="M11 230q17 90 65.5 149.5t121.5 59.5q41 0 62.5 -17.5t41.5 -49.5q13 -20 22 -29t22 -9q21 0 35.5 22.5t26.5 67.5h111q-16 -89 -64.5 -149t-121.5 -60q-42 0 -64 18t-41 49q-12 20 -21 29t-23 9q-20 0 -34.5 -22.5t-26.5 -67.5h-112z" />
    <glyph glyph-name="uni00A0" unicode="&#xa0;" horiz-adv-x="230" 
 />
    <glyph glyph-name="exclamdown" unicode="&#xa1;" horiz-adv-x="226" 
d="M197 474q24 -25 24 -60t-24 -60t-58 -25q-35 0 -59.5 25t-24.5 60t24.5 60t59.5 25q34 0 58 -25zM163 249l-73 -524h-146l113 524h106z" />
    <glyph glyph-name="cent" unicode="&#xa2;" 
d="M320 198q44 11 70 50l76 -74q-55 -88 -161 -98l-20 -110h-116l21 119q-65 20 -101 71t-36 128q0 31 6 65q19 106 77.5 164.5t142.5 72.5l20 112h115l-20 -113q101 -19 124 -119l-100 -61q-12 45 -51 58zM177 298q0 -63 42 -89l44 252q-65 -25 -82 -121q-4 -20 -4 -42z
" />
    <glyph glyph-name="sterling" unicode="&#xa3;" 
d="M270 494q-4 -25 -4 -52q0 -30 5 -65h129l-21 -119h-100q-1 -2 -1 -5q-12 -101 -73 -163h259l-22 -124h-447l18 104q65 44 96.5 85t36.5 94l1 9h-101l21 119h68q-5 33 -5 67q0 35 5 62q18 103 77.5 154t148.5 51q95 0 139 -53.5t41 -130.5l-118 -56q-2 56 -18.5 84
t-53.5 28q-65 0 -81 -89z" />
    <glyph glyph-name="currency" unicode="&#xa4;" 
d="M456 448q13 -41 13 -81q0 -21 -5 -51q-10 -58 -43 -110l52 -74l-100 -84l-49 70q-44 -23 -91 -23q-55 0 -98 32l-73 -70l-70 84l79 75q-13 41 -13 82q0 23 5 53q10 60 42 108l-52 74l99 84l50 -70q44 22 91 22q56 0 99 -30l72 68l69 -84zM345 359q0 39 -17.5 62t-48.5 23
q-35 0 -60.5 -27.5t-34.5 -77.5q-3 -18 -3 -35q0 -39 17 -61.5t48 -22.5q35 0 61 27t35 79q3 18 3 33z" />
    <glyph glyph-name="yen" unicode="&#xa5;" 
d="M293 471l138 227h144l-207 -317h107l-18 -100h-128l-10 -59h128l-18 -99h-128l-28 -157h-141l28 157h-128l18 99h127l10 59h-127l18 100h103l-103 317h152z" />
    <glyph glyph-name="brokenbar" unicode="&#xa6;" horiz-adv-x="220" 
d="M76 414l65 367h118l-65 -367h-118zM-23 -145l65 367h118l-65 -367h-118z" />
    <glyph glyph-name="section" unicode="&#xa7;" horiz-adv-x="545" 
d="M259 499q0 -34 26 -55t81 -49q48 -24 78 -43.5t51 -51.5t21 -78q0 -21 -4 -40q-19 -110 -130 -149q30 -40 30 -93q0 -21 -4 -41q-17 -97 -87 -142t-157 -45q-59 0 -107 24t-76 67t-29 97l122 46q5 -49 32.5 -77.5t73.5 -28.5q33 0 55.5 16.5t28.5 50.5q1 5 1 16
q0 35 -26.5 56.5t-80.5 47.5q-49 24 -78 43.5t-50 51.5t-21 78q0 11 4 39q18 110 129 150q-29 39 -29 91q0 12 4 40q17 99 88 145t158 46q92 0 149.5 -51.5t59.5 -136.5l-122 -46q-4 51 -29.5 78.5t-69.5 27.5q-34 0 -59.5 -17.5t-31.5 -51.5q-1 -5 -1 -15zM369 199
q0 27 -16 46t-36.5 30.5t-66.5 34.5h-3q-31 -1 -57 -18t-32 -53q-2 -12 -2 -16q0 -25 15.5 -43.5t35.5 -30.5t65 -35h6q33 2 58 18t32 52q1 5 1 15z" />
    <glyph glyph-name="dieresis" unicode="&#xa8;" horiz-adv-x="421" 
d="M122 578q-22 23 -22 54q0 32 21.5 54.5t52.5 22.5t53.5 -22.5t22.5 -54.5q0 -31 -22.5 -54t-53.5 -23q-30 0 -52 23zM321 578q-22 23 -22 54q0 32 22 54.5t53 22.5t53 -22.5t22 -54.5q0 -31 -22 -54t-53 -23t-53 23z" />
    <glyph glyph-name="copyright" unicode="&#xa9;" horiz-adv-x="719" 
d="M565.5 674.5q63.5 -36.5 99 -105t35.5 -162.5q0 -45 -9 -95q-21 -119 -76 -199.5t-131 -119.5t-163 -39q-83 0 -146 37t-97.5 105.5t-34.5 162.5q0 45 9 96q21 119 75.5 199t130 118.5t161.5 38.5q83 0 146.5 -36.5zM598 400q0 102 -50.5 159.5t-137.5 57.5
q-60 0 -113 -30t-91.5 -91.5t-53.5 -150.5q-8 -46 -8 -83q0 -100 49.5 -157.5t135.5 -57.5q61 0 114 30.5t92 91.5t55 150q8 46 8 81zM492 513.5q33 -25.5 36 -72.5l-86 -49q-4 46 -42 46q-59 0 -77 -101q-4 -21 -4 -43q0 -34 12.5 -51t35.5 -17q33 0 52 39l68 -58
q-19 -41 -56 -61.5t-79 -20.5q-59 0 -99 41t-40 119q0 27 6 60q18 103 71.5 148.5t119.5 45.5q49 0 82 -25.5z" />
    <glyph glyph-name="ordfeminine" unicode="&#xaa;" horiz-adv-x="399" 
d="M433 695l-70 -393h-97l4 34q-39 -43 -95 -43q-52 0 -83 39t-31 112q0 32 6 69q18 101 65 146.5t108 45.5q62 0 86 -49q4 13 10 39h97zM261 414q19 26 30 87q4 21 4 43q0 65 -44 65q-56 0 -75 -107q-4 -24 -4 -47q0 -67 44 -67q26 0 45 26z" />
    <glyph glyph-name="guillemotleft" unicode="&#xab;" horiz-adv-x="542" 
d="M200 455h142l-199 -232l112 -223h-135l-115 228zM424 455h143l-200 -232l112 -223h-135l-115 228z" />
    <glyph glyph-name="logicalnot" unicode="&#xac;" 
d="M363 302h-329l21 121h452l-55 -315h-122z" />
    <glyph glyph-name="uni00AD" unicode="&#xad;" horiz-adv-x="384" 
d="M45 270l20 116h301l-20 -116h-301z" />
    <glyph glyph-name="registered" unicode="&#xae;" horiz-adv-x="487" 
d="M470.5 384.5q-29.5 -49.5 -79 -78t-107.5 -28.5q-59 0 -108.5 29t-79 78.5t-29.5 108.5t29.5 109t79 79t108.5 29t108.5 -29.5t78.5 -79.5t29 -110q0 -58 -29.5 -107.5zM418.5 574.5q-20.5 35.5 -56 56t-78.5 20.5t-78.5 -20.5t-56 -56t-20.5 -78.5q0 -35 13 -65.5
t36 -51.5l42 234h87q41 0 62 -17.5t21 -46.5q0 -63 -62 -80l47 -91h-64l-39 86h-21l-15 -86h-57q21 -19 48 -30t57 -11q44 0 79.5 21.5t55.5 57.5t20 80q0 43 -20.5 78.5zM260 512h31q38 0 38 27q0 10 -8 16t-25 6h-28z" />
    <glyph glyph-name="macron" unicode="&#xaf;" horiz-adv-x="368" 
d="M175 582l16 95h256l-17 -95h-255z" />
    <glyph glyph-name="degree" unicode="&#xb0;" horiz-adv-x="356" 
d="M100 743.5q22 38.5 60.5 61t85.5 22.5q48 0 86.5 -22.5t60.5 -61t22 -85.5t-22 -85t-60.5 -60t-86.5 -22q-47 0 -85.5 22t-60.5 60.5t-22 84.5q0 47 22 85.5zM196.5 605q19.5 -21 49.5 -21q31 0 51.5 21t20.5 53q0 33 -20.5 54.5t-51.5 21.5t-50 -21.5t-19 -54.5
q0 -32 19.5 -53z" />
    <glyph glyph-name="plusminus" unicode="&#xb1;" 
d="M260 637h122l-29 -160h165l-21 -122h-165l-29 -161h-121l28 161h-165l22 122h164zM459 145l-21 -122h-451l21 122h451z" />
    <glyph glyph-name="uni00B2" unicode="&#xb2;" horiz-adv-x="282" 
d="M306.5 658q-16.5 -29 -55.5 -74l-70 -81h123l-13 -73h-238l10 55l124 145q36 42 47 62t11 43q0 24 -21 24q-15 0 -29 -15t-30 -48l-60 45q21 46 55 70t77 24q45 0 69.5 -26t24.5 -66q0 -13 -3 -27q-5 -29 -21.5 -58z" />
    <glyph glyph-name="uni00B3" unicode="&#xb3;" horiz-adv-x="276" 
d="M308 675.5q-17 -27.5 -48 -41.5q20 -11 31.5 -31t11.5 -46q0 -13 -3 -27q-9 -52 -43.5 -79t-83.5 -27q-51 0 -81.5 26.5t-30.5 73.5l68 28q3 -54 42 -54q21 0 33 14.5t12 40.5q0 21 -14 32.5t-42 11.5h-12l11 68h15q28 0 45.5 19t17.5 45q0 14 -7 22.5t-20 8.5
q-16 0 -28.5 -12.5t-23.5 -38.5l-57 44q19 40 52 61t73 21q46 0 72.5 -26.5t26.5 -67.5q0 -38 -17 -65.5z" />
    <glyph glyph-name="acute" unicode="&#xb4;" horiz-adv-x="269" 
d="M113 549l88 165h125l-114 -165h-99z" />
    <glyph glyph-name="uni00B5" unicode="&#xb5;" horiz-adv-x="533" 
d="M436 134q-3 -15 -3 -27q0 -32 26 -32q13 0 23 5l-3 -107q-33 -19 -81 -19q-40 0 -63 19.5t-29 54.5q-43 -74 -120 -74q-37 0 -59 19l-44 -248h-129l134 759h129l-54 -305q-3 -21 -3 -38q0 -32 13 -48t42 -16q34 0 61 25.5t41 81.5l53 300h129z" />
    <glyph glyph-name="paragraph" unicode="&#xb6;" horiz-adv-x="562" 
d="M152 659.5q55 38.5 141 38.5h111l-129 -732h-103l71 398q-78 0 -120.5 35.5t-42.5 100.5q0 18 3 39q14 82 69 120.5zM447 -34h-102l129 732h103z" />
    <glyph glyph-name="periodcentered" unicode="&#xb7;" horiz-adv-x="264" 
d="M87 269q-24 25 -24 60t24 59.5t58 24.5q35 0 59.5 -24.5t24.5 -59.5t-24.5 -60t-59.5 -25q-34 0 -58 25z" />
    <glyph glyph-name="cedilla" unicode="&#xb8;" horiz-adv-x="266" 
d="M76 -102q34 -8 54 -30t20 -53q0 -5 -2 -17q-8 -44 -44.5 -65t-85.5 -21q-38 0 -79 13l13 70q30 -11 57 -11q19 0 30.5 7.5t11.5 20.5q0 12 -13.5 18t-35.5 6q-7 0 -27 -2v47l59 112h92z" />
    <glyph glyph-name="uni00B9" unicode="&#xb9;" horiz-adv-x="243" 
d="M101 675l17 92l103 60h65l-69 -397h-85l51 293z" />
    <glyph glyph-name="ordmasculine" unicode="&#xba;" horiz-adv-x="384" 
d="M138 660.5q52 44.5 119 44.5q66 0 106 -42t40 -120q0 -27 -6 -60q-18 -103 -69.5 -146.5t-118.5 -43.5q-66 0 -106.5 41.5t-40.5 120.5q0 28 6 59q18 102 70 146.5zM172 455q0 -34 12 -50.5t32 -16.5q52 0 70 104q5 32 5 50q0 34 -12 50.5t-32 16.5q-51 0 -70 -105
q-5 -32 -5 -49z" />
    <glyph glyph-name="guillemotright" unicode="&#xbb;" horiz-adv-x="542" 
d="M48 455h135l115 -228l-195 -227h-143l200 232zM272 455h136l115 -228l-196 -227h-142l200 232z" />
    <glyph glyph-name="onequarter" unicode="&#xbc;" horiz-adv-x="687" 
d="M666 698l-548 -732h-97l547 732h98zM78 545l17 92l103 60h65l-69 -397h-85l51 293zM616 205l-16 -87h48l-13 -71h-47l-14 -81h-78l14 81h-149l10 58l165 258h84l-157 -245h60l15 87h78z" />
    <glyph glyph-name="onehalf" unicode="&#xbd;" horiz-adv-x="706" 
d="M666 698l-548 -732h-97l547 732h98zM78 545l17 92l103 60h65l-69 -397h-85l51 293zM647.5 193q-16.5 -29 -54.5 -73l-70 -81h122l-12 -73h-238l9 55l125 145q36 41 47 61.5t11 42.5q0 25 -22 25q-30 0 -59 -63l-59 45q21 46 54.5 69.5t77.5 23.5q46 0 69.5 -26t23.5 -67
q0 -17 -2 -26q-6 -29 -22.5 -58z" />
    <glyph glyph-name="threequarters" unicode="&#xbe;" horiz-adv-x="719" 
d="M285 545.5q-17 -27.5 -48 -41.5q20 -11 31.5 -31t11.5 -46q0 -13 -3 -27q-9 -52 -43.5 -79t-83.5 -27q-51 0 -81.5 26.5t-30.5 73.5l68 28q3 -54 42 -54q21 0 33 14.5t12 40.5q0 21 -14 32.5t-42 11.5h-12l11 68h15q28 0 45.5 19t17.5 45q0 14 -7 22.5t-20 8.5
q-16 0 -28.5 -12.5t-23.5 -38.5l-57 44q19 40 52 61t73 21q46 0 72.5 -26.5t26.5 -67.5q0 -38 -17 -65.5zM698 698l-547 -732h-98l548 732h97zM648 205l-15 -87h47l-12 -71h-48l-14 -81h-78l15 81h-150l11 58l164 258h85l-157 -245h59l15 87h78z" />
    <glyph glyph-name="questiondown" unicode="&#xbf;" horiz-adv-x="415" 
d="M305.5 474q24.5 -25 24.5 -59q0 -35 -24.5 -60t-58.5 -25q-35 0 -59.5 25t-24.5 60q0 34 25 59t59 25t58.5 -25zM366 -124q-40 -82 -106.5 -123t-141.5 -41q-82 0 -133.5 47t-51.5 123q0 11 4 39q11 59 40 94t81 74q35 27 55.5 46t36 47.5t19.5 67.5h113q1 -8 1 -24
q0 -52 -16 -90t-38 -62t-58 -54q-37 -31 -55.5 -52.5t-23.5 -52.5q-1 -6 -1 -17q0 -25 14 -39t40 -14q33 0 63.5 23.5t55.5 74.5z" />
    <glyph glyph-name="Agrave" unicode="&#xc0;" horiz-adv-x="624" 
d="M275 915h118l43 -149h-88zM449 698l113 -732h-143l-20 167h-222l-78 -167h-145l367 732h128zM385 254l-31 264l-122 -264h153z" />
    <glyph glyph-name="Aacute" unicode="&#xc1;" horiz-adv-x="624" 
d="M353 766l87 149h124l-113 -149h-98zM449 698l113 -732h-143l-20 167h-222l-78 -167h-145l367 732h128zM385 254l-31 264l-122 -264h153z" />
    <glyph glyph-name="Acircumflex" unicode="&#xc2;" horiz-adv-x="624" 
d="M380 915h89l82 -150h-101l-38 73l-63 -73h-108zM449 698l113 -732h-143l-20 167h-222l-78 -167h-145l367 732h128zM385 254l-31 264l-122 -264h153z" />
    <glyph glyph-name="Atilde" unicode="&#xc3;" horiz-adv-x="624" 
d="M240 778q29 138 110 138q20 0 35.5 -9t33.5 -25q12 -10 20 -15t15 -5q20 0 34 49h82q-14 -67 -42.5 -102t-65.5 -35q-21 0 -36 8.5t-33 24.5q-13 11 -20 15.5t-15 4.5q-23 0 -34 -49h-84zM449 698l113 -732h-143l-20 167h-222l-78 -167h-145l367 732h128zM385 254
l-31 264l-122 -264h153z" />
    <glyph glyph-name="Adieresis" unicode="&#xc4;" horiz-adv-x="624" 
d="M264 791q-22 23 -22 53q0 32 21.5 54.5t52.5 22.5t53 -22.5t22 -54.5q0 -30 -22 -53t-53 -23q-30 0 -52 23zM450.5 790.5q-21.5 22.5 -21.5 53.5q0 32 21.5 54.5t52.5 22.5t53 -22.5t22 -54.5q0 -30 -22 -53t-53 -23t-52.5 22.5zM449 698l113 -732h-143l-20 167h-222
l-78 -167h-145l367 732h128zM385 254l-31 264l-122 -264h153z" />
    <glyph glyph-name="Aring" unicode="&#xc5;" horiz-adv-x="624" 
d="M330 954q35 34 86 34t84.5 -33.5t33.5 -85.5t-34 -85.5t-84 -33.5q-51 0 -86 33.5t-35 85.5q0 51 35 85zM382.5 834q12.5 -14 33.5 -14q20 0 32 14t12 35q0 22 -12 35t-32 13q-21 0 -33.5 -13.5t-12.5 -34.5t12.5 -35zM449 698l113 -732h-143l-20 167h-222l-78 -167h-145
l367 732h128zM385 254l-31 264l-122 -264h153z" />
    <glyph glyph-name="AE" unicode="&#xc6;" horiz-adv-x="866" 
d="M895 698l-21 -119h-259l-32 -180h232l-21 -120h-232l-34 -193h269l-22 -120h-400l31 174h-188l-120 -174h-144l512 732h429zM469 505l-168 -246h125z" />
    <glyph glyph-name="Ccedilla" unicode="&#xc7;" horiz-adv-x="549" 
d="M260 531q-45 -56 -67 -182q-11 -64 -11 -109q0 -80 28.5 -121t80.5 -41q37 0 67.5 22.5t56.5 72.5l101 -63q-31 -70 -86.5 -109.5t-126.5 -45.5l-30 -57q34 -8 54 -30t20 -53q0 -5 -2 -17q-8 -44 -44.5 -65t-86.5 -21q-37 0 -78 13l13 70q30 -11 57 -11q19 0 30.5 7.5
t11.5 20.5q0 12 -13.5 18t-35.5 6q-7 0 -27 -2v47l42 80q-82 20 -127 90.5t-45 185.5q0 62 11 122q32 183 119 267.5t207 84.5q95 0 148.5 -49t55.5 -131l-117 -60q-6 56 -32.5 86t-70.5 30q-58 0 -103 -56z" />
    <glyph glyph-name="Egrave" unicode="&#xc8;" horiz-adv-x="500" 
d="M225 915h119l42 -149h-88zM136 698h393l-21 -118h-259l-32 -182h233l-21 -118h-233l-34 -195h268l-21 -119h-402z" />
    <glyph glyph-name="Eacute" unicode="&#xc9;" horiz-adv-x="500" 
d="M303 766l87 149h124l-112 -149h-99zM136 698h393l-21 -118h-259l-32 -182h233l-21 -118h-233l-34 -195h268l-21 -119h-402z" />
    <glyph glyph-name="Ecircumflex" unicode="&#xca;" horiz-adv-x="500" 
d="M331 915h88l83 -150h-102l-37 73l-64 -73h-108zM136 698h393l-21 -118h-259l-32 -182h233l-21 -118h-233l-34 -195h268l-21 -119h-402z" />
    <glyph glyph-name="Edieresis" unicode="&#xcb;" horiz-adv-x="500" 
d="M214 791q-22 23 -22 53q0 32 21.5 54.5t52.5 22.5t53 -22.5t22 -54.5q0 -30 -22 -53t-53 -23q-30 0 -52 23zM401 791q-22 23 -22 53q0 32 21.5 54.5t52.5 22.5t53 -22.5t22 -54.5q0 -30 -22 -53t-53 -23q-30 0 -52 23zM136 698h393l-21 -118h-259l-32 -182h233l-21 -118
h-233l-34 -195h268l-21 -119h-402z" />
    <glyph glyph-name="Igrave" unicode="&#xcc;" horiz-adv-x="256" 
d="M94 916h118l43 -150h-88zM141 -34h-134l129 732h134z" />
    <glyph glyph-name="Iacute" unicode="&#xcd;" horiz-adv-x="256" 
d="M172 766l87 150h123l-112 -150h-98zM141 -34h-134l129 732h134z" />
    <glyph glyph-name="Icircumflex" unicode="&#xce;" horiz-adv-x="256" 
d="M199 916h88l83 -151h-101l-38 74l-63 -74h-108zM141 -34h-134l129 732h134z" />
    <glyph glyph-name="Idieresis" unicode="&#xcf;" horiz-adv-x="256" 
d="M82 791q-22 23 -22 54q0 32 22 54.5t53 22.5t53 -22.5t22 -54.5q0 -31 -22 -54t-53 -23t-53 23zM269 791q-22 23 -22 54q0 32 22 54.5t53 22.5t53 -22.5t22 -54.5q0 -31 -22 -54t-53 -23t-53 23zM141 -34h-134l129 732h134z" />
    <glyph glyph-name="Eth" unicode="&#xd0;" horiz-adv-x="638" 
d="M370 698q117 0 184 -73t67 -204q0 -42 -10 -102q-30 -169 -126 -261t-236 -92h-217l55 318h-75l23 123h74l52 291h209zM478 416q0 166 -141 166h-63l-30 -175h90l-23 -123h-89l-36 -201h65q88 0 142.5 57.5t75.5 179.5q9 53 9 96z" />
    <glyph glyph-name="Ntilde" unicode="&#xd1;" horiz-adv-x="624" 
d="M234 778q29 138 110 138q20 0 35.5 -9t33.5 -25q22 -20 34 -20t19.5 12.5t14.5 37.5h83q-15 -67 -43.5 -102.5t-65.5 -35.5q-21 0 -36 8.5t-33 24.5q-22 20 -34 20q-24 0 -35 -49h-83zM241 698l190 -477l83 477h124l-129 -732h-106l-190 469l-83 -469h-123l129 732h105z
" />
    <glyph glyph-name="Ograve" unicode="&#xd2;" horiz-adv-x="635" 
d="M283 915h119l43 -149h-89zM171.5 626q86.5 85 205.5 85q112 0 176 -73t64 -209q0 -61 -11 -120q-33 -186 -120.5 -270.5t-206.5 -84.5q-113 0 -176 72.5t-63 208.5q0 56 12 122q33 184 119.5 269zM181 235q0 -78 28.5 -117.5t83.5 -39.5q63 0 106.5 55t66.5 185
q10 59 10 109q0 79 -27.5 119.5t-82.5 40.5q-64 0 -108 -56.5t-66 -184.5q-11 -66 -11 -111z" />
    <glyph glyph-name="Oacute" unicode="&#xd3;" horiz-adv-x="635" 
d="M361 766l87 149h124l-112 -149h-99zM171.5 626q86.5 85 205.5 85q112 0 176 -73t64 -209q0 -61 -11 -120q-33 -186 -120.5 -270.5t-206.5 -84.5q-113 0 -176 72.5t-63 208.5q0 56 12 122q33 184 119.5 269zM181 235q0 -78 28.5 -117.5t83.5 -39.5q63 0 106.5 55t66.5 185
q10 59 10 109q0 79 -27.5 119.5t-82.5 40.5q-64 0 -108 -56.5t-66 -184.5q-11 -66 -11 -111z" />
    <glyph glyph-name="Ocircumflex" unicode="&#xd4;" horiz-adv-x="635" 
d="M389 915h88l83 -150h-102l-37 73l-64 -73h-108zM171.5 626q86.5 85 205.5 85q112 0 176 -73t64 -209q0 -61 -11 -120q-33 -186 -120.5 -270.5t-206.5 -84.5q-113 0 -176 72.5t-63 208.5q0 56 12 122q33 184 119.5 269zM181 235q0 -78 28.5 -117.5t83.5 -39.5
q63 0 106.5 55t66.5 185q10 59 10 109q0 79 -27.5 119.5t-82.5 40.5q-64 0 -108 -56.5t-66 -184.5q-11 -66 -11 -111z" />
    <glyph glyph-name="Otilde" unicode="&#xd5;" horiz-adv-x="635" 
d="M248 778q30 138 111 138q20 0 35.5 -9t33.5 -25q22 -20 34 -20t19.5 12.5t14.5 36.5h83q-15 -67 -43.5 -102t-65.5 -35q-21 0 -36 8.5t-33 24.5q-22 20 -34 20q-24 0 -35 -49h-84zM171.5 626q86.5 85 205.5 85q112 0 176 -73t64 -209q0 -61 -11 -120
q-33 -186 -120.5 -270.5t-206.5 -84.5q-113 0 -176 72.5t-63 208.5q0 56 12 122q33 184 119.5 269zM181 235q0 -78 28.5 -117.5t83.5 -39.5q63 0 106.5 55t66.5 185q10 59 10 109q0 79 -27.5 119.5t-82.5 40.5q-64 0 -108 -56.5t-66 -184.5q-11 -66 -11 -111z" />
    <glyph glyph-name="Odieresis" unicode="&#xd6;" horiz-adv-x="635" 
d="M272 791q-22 23 -22 53q0 32 21.5 54.5t52.5 22.5t53.5 -22.5t22.5 -54.5q0 -30 -22.5 -53t-53.5 -23q-30 0 -52 23zM459 791q-22 23 -22 53q0 32 21.5 54.5t52.5 22.5t53 -22.5t22 -54.5q0 -30 -22 -53t-53 -23q-30 0 -52 23zM171.5 626q86.5 85 205.5 85q112 0 176 -73
t64 -209q0 -61 -11 -120q-33 -186 -120.5 -270.5t-206.5 -84.5q-113 0 -176 72.5t-63 208.5q0 56 12 122q33 184 119.5 269zM181 235q0 -78 28.5 -117.5t83.5 -39.5q63 0 106.5 55t66.5 185q10 59 10 109q0 79 -27.5 119.5t-82.5 40.5q-64 0 -108 -56.5t-66 -184.5
q-11 -66 -11 -111z" />
    <glyph glyph-name="multiply" unicode="&#xd7;" 
d="M280 414l154 131l71 -87l-153 -130l107 -130l-102 -87l-107 131l-153 -131l-71 87l153 130l-107 130l101 87z" />
    <glyph glyph-name="Oslash" unicode="&#xd8;" horiz-adv-x="638" 
d="M558 734h121l-98 -135q37 -71 37 -170q0 -55 -12 -120q-32 -186 -119.5 -270.5t-206.5 -84.5q-81 0 -137 38l-44 -61h-121l98 137q-35 68 -35 166q0 57 12 123q33 184 119.5 269t205.5 85q80 0 136 -38zM179 247q0 -12 2 -34l253 350q-29 24 -68 24q-65 0 -110 -56.5
t-67 -184.5q-10 -62 -10 -99zM478 411q0 22 -3 41l-251 -349q25 -25 70 -25q64 0 107.5 55t66.5 185q10 49 10 93z" />
    <glyph glyph-name="Ugrave" unicode="&#xd9;" horiz-adv-x="625" 
d="M278 915h119l42 -149h-88zM511 698h134l-81 -466q-25 -147 -99.5 -212.5t-192.5 -65.5q-111 0 -168 56.5t-57 167.5q0 44 9 95l73 425h135l-71 -405q-9 -51 -9 -89q0 -65 25.5 -95.5t77.5 -30.5q56 0 93.5 42t55.5 150z" />
    <glyph glyph-name="Uacute" unicode="&#xda;" horiz-adv-x="625" 
d="M356 766l87 149h124l-112 -149h-99zM511 698h134l-81 -466q-25 -147 -99.5 -212.5t-192.5 -65.5q-111 0 -168 56.5t-57 167.5q0 44 9 95l73 425h135l-71 -405q-9 -51 -9 -89q0 -65 25.5 -95.5t77.5 -30.5q56 0 93.5 42t55.5 150z" />
    <glyph glyph-name="Ucircumflex" unicode="&#xdb;" horiz-adv-x="625" 
d="M384 915h88l83 -150h-102l-37 73l-64 -73h-108zM511 698h134l-81 -466q-25 -147 -99.5 -212.5t-192.5 -65.5q-111 0 -168 56.5t-57 167.5q0 44 9 95l73 425h135l-71 -405q-9 -51 -9 -89q0 -65 25.5 -95.5t77.5 -30.5q56 0 93.5 42t55.5 150z" />
    <glyph glyph-name="Udieresis" unicode="&#xdc;" horiz-adv-x="625" 
d="M267 791q-22 23 -22 53q0 32 21.5 54.5t52.5 22.5t53 -22.5t22 -54.5q0 -30 -22 -53t-53 -23q-30 0 -52 23zM454 791q-22 23 -22 53q0 32 21.5 54.5t52.5 22.5t53 -22.5t22 -54.5q0 -30 -22 -53t-53 -23q-30 0 -52 23zM511 698h134l-81 -466q-25 -147 -99.5 -212.5
t-192.5 -65.5q-111 0 -168 56.5t-57 167.5q0 44 9 95l73 425h135l-71 -405q-9 -51 -9 -89q0 -65 25.5 -95.5t77.5 -30.5q56 0 93.5 42t55.5 150z" />
    <glyph glyph-name="Yacute" unicode="&#xdd;" horiz-adv-x="564" 
d="M328 766l87 150h124l-113 -150h-98zM307 397l181 301h147l-283 -443l-52 -289h-136l52 291l-137 441h150z" />
    <glyph glyph-name="Thorn" unicode="&#xde;" horiz-adv-x="535" 
d="M309 570q107 0 164 -55.5t57 -145.5q0 -23 -5 -55q-18 -104 -90 -161t-187 -57h-80l-23 -130h-138l129 732h138l-22 -128h57zM389 356q0 47 -28 72.5t-74 25.5h-56l-42 -241h65q53 0 87.5 27.5t44.5 84.5q3 17 3 31z" />
    <glyph glyph-name="germandbls" unicode="&#xdf;" horiz-adv-x="530" 
d="M401 347q42 -20 64.5 -58.5t22.5 -94.5q0 -27 -4 -51q-17 -97 -76 -143t-145 -46q-63 0 -100 22l21 111q11 -8 29 -13t37 -5q42 0 69 24.5t35 74.5q3 15 3 29q0 45 -26.5 70t-70.5 25h-29l20 114h20q89 0 108 104q4 26 4 39q0 35 -15.5 55.5t-48.5 20.5q-39 0 -65 -35
t-40 -118l-90 -506h-128l95 535q42 238 241 238q90 0 136.5 -51.5t46.5 -131.5q0 -23 -5 -53q-20 -115 -109 -156z" />
    <glyph glyph-name="agrave" unicode="&#xe0;" horiz-adv-x="519" 
d="M191 714h119l43 -165h-88zM506 484l-92 -518h-114q6 40 7 64q-28 -40 -64.5 -58t-76.5 -18q-70 0 -111 51.5t-41 147.5q0 47 8 91q24 133 87 193t143 60q95 0 122 -85q10 34 18 72h114zM288.5 105.5q28.5 36.5 43.5 117.5q6 35 6 60q0 52 -20 75.5t-53 23.5
q-86 0 -113 -150q-6 -34 -6 -62q0 -50 18.5 -75.5t53.5 -25.5q42 0 70.5 36.5z" />
    <glyph glyph-name="aacute" unicode="&#xe1;" horiz-adv-x="519" 
d="M255 549l88 165h124l-114 -165h-98zM506 484l-92 -518h-114q6 40 7 64q-28 -40 -64.5 -58t-76.5 -18q-70 0 -111 51.5t-41 147.5q0 47 8 91q24 133 87 193t143 60q95 0 122 -85q10 34 18 72h114zM288.5 105.5q28.5 36.5 43.5 117.5q6 35 6 60q0 52 -20 75.5t-53 23.5
q-86 0 -113 -150q-6 -34 -6 -62q0 -50 18.5 -75.5t53.5 -25.5q42 0 70.5 36.5z" />
    <glyph glyph-name="acircumflex" unicode="&#xe2;" horiz-adv-x="519" 
d="M290 714h88l82 -165h-103l-36 80l-62 -80h-109zM506 484l-92 -518h-114q6 40 7 64q-28 -40 -64.5 -58t-76.5 -18q-70 0 -111 51.5t-41 147.5q0 47 8 91q24 133 87 193t143 60q95 0 122 -85q10 34 18 72h114zM288.5 105.5q28.5 36.5 43.5 117.5q6 35 6 60q0 52 -20 75.5
t-53 23.5q-86 0 -113 -150q-6 -34 -6 -62q0 -50 18.5 -75.5t53.5 -25.5q42 0 70.5 36.5z" />
    <glyph glyph-name="atilde" unicode="&#xe3;" horiz-adv-x="519" 
d="M155 563q30 138 111 138q20 0 35.5 -9t33.5 -25q22 -20 34 -20t19.5 12.5t14.5 37.5h83q-15 -67 -43.5 -102.5t-65.5 -35.5q-21 0 -36 8.5t-33 24.5q-22 20 -34 20q-24 0 -35 -49h-84zM506 484l-92 -518h-114q6 40 7 64q-28 -40 -64.5 -58t-76.5 -18q-70 0 -111 51.5
t-41 147.5q0 47 8 91q24 133 87 193t143 60q95 0 122 -85q10 34 18 72h114zM288.5 105.5q28.5 36.5 43.5 117.5q6 35 6 60q0 52 -20 75.5t-53 23.5q-86 0 -113 -150q-6 -34 -6 -62q0 -50 18.5 -75.5t53.5 -25.5q42 0 70.5 36.5z" />
    <glyph glyph-name="adieresis" unicode="&#xe4;" horiz-adv-x="519" 
d="M173 578q-22 23 -22 53q0 32 21.5 54.5t52.5 22.5t53.5 -22.5t22.5 -54.5q0 -30 -22.5 -53t-53.5 -23q-30 0 -52 23zM372 578q-22 23 -22 53q0 32 21.5 54.5t52.5 22.5q32 0 54 -22.5t22 -54.5q0 -30 -22.5 -53t-53.5 -23q-30 0 -52 23zM506 484l-92 -518h-114q6 40 7 64
q-28 -40 -64.5 -58t-76.5 -18q-70 0 -111 51.5t-41 147.5q0 47 8 91q24 133 87 193t143 60q95 0 122 -85q10 34 18 72h114zM288.5 105.5q28.5 36.5 43.5 117.5q6 35 6 60q0 52 -20 75.5t-53 23.5q-86 0 -113 -150q-6 -34 -6 -62q0 -50 18.5 -75.5t53.5 -25.5q42 0 70.5 36.5
z" />
    <glyph glyph-name="aring" unicode="&#xe5;" horiz-adv-x="519" 
d="M227 740q35 34 86 34t84.5 -33.5t33.5 -85.5q0 -51 -34 -84.5t-84 -33.5q-51 0 -86 33t-35 85q0 51 35 85zM279.5 620.5q12.5 -13.5 33.5 -13.5q20 0 32 13.5t12 34.5q0 22 -12 35.5t-32 13.5t-33 -13.5t-13 -35.5q0 -21 12.5 -34.5zM506 484l-92 -518h-114q6 40 7 64
q-28 -40 -64.5 -58t-76.5 -18q-70 0 -111 51.5t-41 147.5q0 47 8 91q24 133 87 193t143 60q95 0 122 -85q10 34 18 72h114zM288.5 105.5q28.5 36.5 43.5 117.5q6 35 6 60q0 52 -20 75.5t-53 23.5q-86 0 -113 -150q-6 -34 -6 -62q0 -50 18.5 -75.5t53.5 -25.5q42 0 70.5 36.5
z" />
    <glyph glyph-name="ae" unicode="&#xe6;" horiz-adv-x="713" 
d="M545 83.5q23 15.5 42 49.5l85 -64q-29 -58 -82.5 -87t-112.5 -29q-51 0 -89 22.5t-59 67.5q-30 -44 -74 -66.5t-98 -22.5q-69 0 -110 37.5t-41 104.5q0 12 4 40q15 83 76 122t151 39q28 0 65 -5q1 7 1 21q0 73 -61 73q-56 0 -87 -61l-86 58q27 56 77 85t112 29
q48 0 82 -19t50 -56q63 74 164 74q75 0 115 -39t40 -106q0 -84 -57.5 -127t-170.5 -43q-31 0 -65 3q-5 -116 76 -116q30 0 53 15.5zM431 281q28 -3 52 -3q99 0 99 63q0 44 -49 44q-75 0 -102 -104zM286 198q-21 3 -40 3q-92 0 -106 -75q-2 -12 -2 -18q0 -24 13 -36.5
t35 -12.5q31 0 57.5 24.5t34.5 70.5z" />
    <glyph glyph-name="ccedilla" unicode="&#xe7;" horiz-adv-x="411" 
d="M295 123l87 -59q-22 -50 -62.5 -76t-88.5 -32l-31 -58q34 -8 54 -30t20 -54q0 -10 -1 -16q-8 -44 -45 -65t-86 -21q-38 0 -79 13l13 70q30 -11 57 -11q19 0 31 7t12 20q0 12 -13.5 18.5t-36.5 6.5q-7 0 -27 -2v47l43 80q-59 17 -93 68.5t-34 135.5q0 38 7 79
q26 145 114 209q59 44 137 44q65 0 106 -34.5t45 -104.5l-104 -50q-4 38 -18 56t-41 18q-37 0 -65.5 -36t-42.5 -114q-6 -34 -6 -63q0 -49 18 -74.5t52 -25.5q49 0 78 54z" />
    <glyph glyph-name="egrave" unicode="&#xe8;" horiz-adv-x="439" 
d="M167 714h120l42 -165h-88zM312 133l85 -64q-28 -57 -82 -86t-114 -29q-84 0 -136 54.5t-52 157.5q0 39 7 78q24 132 95.5 192.5t162.5 60.5q76 0 116.5 -39t40.5 -106q0 -167 -235 -167q-18 0 -58 2q-7 -118 76 -118q60 0 94 64zM157 285q30 -3 55 -3q49 0 72.5 14
t23.5 45q0 45 -49 45q-74 0 -102 -101z" />
    <glyph glyph-name="eacute" unicode="&#xe9;" horiz-adv-x="439" 
d="M232 549l88 165h124l-114 -165h-98zM312 133l85 -64q-28 -57 -82 -86t-114 -29q-84 0 -136 54.5t-52 157.5q0 39 7 78q24 132 95.5 192.5t162.5 60.5q76 0 116.5 -39t40.5 -106q0 -167 -235 -167q-18 0 -58 2q-7 -118 76 -118q60 0 94 64zM157 285q30 -3 55 -3
q49 0 72.5 14t23.5 45q0 45 -49 45q-74 0 -102 -101z" />
    <glyph glyph-name="ecircumflex" unicode="&#xea;" horiz-adv-x="439" 
d="M266 714h88l82 -165h-103l-36 80l-61 -80h-110zM312 133l85 -64q-28 -57 -82 -86t-114 -29q-84 0 -136 54.5t-52 157.5q0 39 7 78q24 132 95.5 192.5t162.5 60.5q76 0 116.5 -39t40.5 -106q0 -167 -235 -167q-18 0 -58 2q-7 -118 76 -118q60 0 94 64zM157 285
q30 -3 55 -3q49 0 72.5 14t23.5 45q0 45 -49 45q-74 0 -102 -101z" />
    <glyph glyph-name="edieresis" unicode="&#xeb;" horiz-adv-x="439" 
d="M149 578q-22 23 -22 53q0 32 22 54.5t53 22.5t53 -22.5t22 -54.5q0 -30 -22.5 -53t-52.5 -23q-31 0 -53 23zM348 578q-22 23 -22 53q0 32 22 54.5t53 22.5t53 -22.5t22 -54.5q0 -30 -22 -53t-53 -23t-53 23zM312 133l85 -64q-28 -57 -82 -86t-114 -29q-84 0 -136 54.5
t-52 157.5q0 39 7 78q24 132 95.5 192.5t162.5 60.5q76 0 116.5 -39t40.5 -106q0 -167 -235 -167q-18 0 -58 2q-7 -118 76 -118q60 0 94 64zM157 285q30 -3 55 -3q49 0 72.5 14t23.5 45q0 45 -49 45q-74 0 -102 -101z" />
    <glyph glyph-name="igrave" unicode="&#xec;" horiz-adv-x="231" 
d="M46 714h120l43 -165h-88zM-1 -34l92 518h128l-92 -518h-128z" />
    <glyph glyph-name="iacute" unicode="&#xed;" horiz-adv-x="231" 
d="M111 549l88 165h124l-114 -165h-98zM-1 -34l92 518h128l-92 -518h-128z" />
    <glyph glyph-name="icircumflex" unicode="&#xee;" horiz-adv-x="231" 
d="M145 714h88l83 -165h-103l-36 80l-62 -80h-109zM-1 -34l92 518h128l-92 -518h-128z" />
    <glyph glyph-name="idieresis" unicode="&#xef;" horiz-adv-x="231" 
d="M28.5 578q-21.5 23 -21.5 54q0 32 21.5 54.5t52.5 22.5t53 -22.5t22 -54.5q0 -31 -22 -54t-53 -23t-52.5 23zM228 578q-22 23 -22 54q0 32 21.5 54.5t52.5 22.5t53 -22.5t22 -54.5q0 -31 -22 -54t-53 -23q-30 0 -52 23zM-1 -34l92 518h128l-92 -518h-128z" />
    <glyph glyph-name="eth" unicode="&#xf0;" horiz-adv-x="502" 
d="M456 741l39 -79l-102 -57q80 -108 80 -267q0 -65 -11 -124q-25 -145 -93.5 -202.5t-156.5 -57.5q-90 0 -142.5 52.5t-52.5 152.5q0 38 7 77q16 88 55 143t88 78.5t100 23.5q44 0 72 -17q-17 48 -47 85l-130 -71l-37 77l102 57q-34 24 -67 41l69 87q56 -29 103 -68z
M329 270q0 46 -16.5 69.5t-47.5 23.5q-37 0 -65 -33t-41 -106q-6 -33 -6 -59q0 -95 68 -95q37 0 63 32t39 107q6 35 6 61z" />
    <glyph glyph-name="ntilde" unicode="&#xf1;" horiz-adv-x="499" 
d="M143 564q29 137 110 137q20 0 35 -8.5t33 -24.5q24 -20 36 -20q21 0 33 49h83q-14 -67 -42.5 -102t-65.5 -35q-21 0 -36 8.5t-33 24.5q-13 11 -20 15.5t-15 4.5q-23 0 -35 -49h-83zM431 458q32 -39 32 -113q0 -34 -8 -80l-53 -299h-128l49 278q6 33 6 59q0 72 -52 72
q-35 0 -63 -30t-39 -93l-51 -286h-128l92 519h113q-1 -7 -3.5 -29t-3.5 -39q55 80 144 80q61 0 93 -39z" />
    <glyph glyph-name="ograve" unicode="&#xf2;" horiz-adv-x="491" 
d="M175 714h120l43 -165h-88zM115 437.5q69 59.5 158 59.5q86 0 137 -53t51 -155q0 -36 -8 -84q-23 -135 -92 -193t-157 -58t-139 53t-51 154q0 35 8 83q24 134 93 193.5zM146 165q0 -96 69 -96q82 0 107 148q7 38 7 70q0 95 -68 95q-82 0 -108 -151q-7 -35 -7 -66z" />
    <glyph glyph-name="oacute" unicode="&#xf3;" horiz-adv-x="491" 
d="M240 549l88 165h124l-114 -165h-98zM115 437.5q69 59.5 158 59.5q86 0 137 -53t51 -155q0 -36 -8 -84q-23 -135 -92 -193t-157 -58t-139 53t-51 154q0 35 8 83q24 134 93 193.5zM146 165q0 -96 69 -96q82 0 107 148q7 38 7 70q0 95 -68 95q-82 0 -108 -151q-7 -35 -7 -66
z" />
    <glyph glyph-name="ocircumflex" unicode="&#xf4;" horiz-adv-x="491" 
d="M274 714h88l83 -165h-103l-36 80l-62 -80h-109zM115 437.5q69 59.5 158 59.5q86 0 137 -53t51 -155q0 -36 -8 -84q-23 -135 -92 -193t-157 -58t-139 53t-51 154q0 35 8 83q24 134 93 193.5zM146 165q0 -96 69 -96q82 0 107 148q7 38 7 70q0 95 -68 95q-82 0 -108 -151
q-7 -35 -7 -66z" />
    <glyph glyph-name="otilde" unicode="&#xf5;" horiz-adv-x="491" 
d="M140 563q29 138 110 138q20 0 35 -8.5t33 -24.5q13 -11 21 -16t15 -5q21 0 33 50h83q-14 -67 -42.5 -102.5t-65.5 -35.5q-21 0 -36 8.5t-33 24.5q-13 11 -20 15.5t-15 4.5q-23 0 -35 -49h-83zM115 437.5q69 59.5 158 59.5q86 0 137 -53t51 -155q0 -36 -8 -84
q-23 -135 -92 -193t-157 -58t-139 53t-51 154q0 35 8 83q24 134 93 193.5zM146 165q0 -96 69 -96q82 0 107 148q7 38 7 70q0 95 -68 95q-82 0 -108 -151q-7 -35 -7 -66z" />
    <glyph glyph-name="odieresis" unicode="&#xf6;" horiz-adv-x="491" 
d="M157 578q-22 23 -22 53q0 32 22 54.5t53 22.5t53 -22.5t22 -54.5q0 -30 -22 -53t-53 -23t-53 23zM357 578q-22 23 -22 53q0 32 21.5 54.5t52.5 22.5t53 -22.5t22 -54.5q0 -30 -22 -53t-53 -23q-30 0 -52 23zM115 437.5q69 59.5 158 59.5q86 0 137 -53t51 -155
q0 -36 -8 -84q-23 -135 -92 -193t-157 -58t-139 53t-51 154q0 35 8 83q24 134 93 193.5zM146 165q0 -96 69 -96q82 0 107 148q7 38 7 70q0 95 -68 95q-82 0 -108 -151q-7 -35 -7 -66z" />
    <glyph glyph-name="divide" unicode="&#xf7;" 
d="M242 470q-24 25 -24 60t24 60t58 25q35 0 59.5 -25t24.5 -60t-24.5 -60t-59.5 -25q-34 0 -58 25zM481 267h-452l21 122h452zM171 66q-24 25 -24 60t24 60t58 25q35 0 59.5 -25t24.5 -60t-24.5 -60t-59.5 -25q-34 0 -58 25z" />
    <glyph glyph-name="oslash" unicode="&#xf8;" horiz-adv-x="492" 
d="M409 519h100l-78 -103q30 -52 30 -127q0 -44 -8 -84q-23 -135 -92 -193t-157 -58q-59 0 -101 24l-35 -47h-100l77 102q-31 51 -31 127q0 36 8 84q24 134 93 193.5t158 59.5q56 0 100 -25zM136 181q0 -16 1 -23l163 216q-15 12 -39 12q-94 0 -120 -155q-5 -24 -5 -50z
M339 293l-162 -218q14 -10 37 -10q42 0 74 34.5t46 117.5q8 41 5 76z" />
    <glyph glyph-name="ugrave" unicode="&#xf9;" horiz-adv-x="499" 
d="M177 715h119l43 -165h-88zM52 -7q-32 39 -32 113q0 34 8 80l53 299h128l-49 -279q-6 -33 -6 -59q0 -71 52 -71q35 0 63 30t39 93l51 286h128l-92 -519h-113l7 67q-56 -79 -144 -79q-61 0 -93 39z" />
    <glyph glyph-name="uacute" unicode="&#xfa;" horiz-adv-x="499" 
d="M241 550l88 165h124l-114 -165h-98zM52 -7q-32 39 -32 113q0 34 8 80l53 299h128l-49 -279q-6 -33 -6 -59q0 -71 52 -71q35 0 63 30t39 93l51 286h128l-92 -519h-113l7 67q-56 -79 -144 -79q-61 0 -93 39z" />
    <glyph glyph-name="ucircumflex" unicode="&#xfb;" horiz-adv-x="499" 
d="M275 715h89l82 -165h-103l-36 80l-62 -80h-109zM52 -7q-32 39 -32 113q0 34 8 80l53 299h128l-49 -279q-6 -33 -6 -59q0 -71 52 -71q35 0 63 30t39 93l51 286h128l-92 -519h-113l7 67q-56 -79 -144 -79q-61 0 -93 39z" />
    <glyph glyph-name="udieresis" unicode="&#xfc;" horiz-adv-x="499" 
d="M159 579q-22 23 -22 53q0 32 21.5 54.5t52.5 22.5t53 -22.5t22 -54.5q0 -30 -22 -53t-53 -23q-30 0 -52 23zM358 579q-22 23 -22 53q0 32 21.5 54.5t52.5 22.5t53.5 -22.5t22.5 -54.5q0 -30 -22.5 -53t-53.5 -23q-30 0 -52 23zM52 -7q-32 39 -32 113q0 34 8 80l53 299
h128l-49 -279q-6 -33 -6 -59q0 -71 52 -71q35 0 63 30t39 93l51 286h128l-92 -519h-113l7 67q-56 -79 -144 -79q-61 0 -93 39z" />
    <glyph glyph-name="yacute" unicode="&#xfd;" horiz-adv-x="478" 
d="M235 550l88 165h124l-114 -165h-98zM221 146l161 338h132l-294 -588q-47 -94 -96.5 -138.5t-124.5 -44.5q-35 0 -63.5 10.5t-46.5 29.5l64 101q22 -24 54 -24q28 0 50.5 22t54.5 82l20 37l-93 513h135z" />
    <glyph glyph-name="thorn" unicode="&#xfe;" horiz-adv-x="517" 
d="M446.5 445.5q41.5 -51.5 41.5 -147.5q0 -41 -9 -92q-24 -133 -87 -192.5t-142 -59.5q-87 0 -116 68l-53 -298h-128l177 1003h129l-51 -290q50 60 127 60q70 0 111.5 -51.5zM349 219q6 35 6 62q0 50 -18.5 75t-52.5 25q-37 0 -68 -32.5t-46 -117.5q-6 -36 -6 -63
q0 -52 19.5 -75.5t52.5 -23.5q86 0 113 150z" />
    <glyph glyph-name="ydieresis" unicode="&#xff;" horiz-adv-x="478" 
d="M152 579q-22 23 -22 53q0 32 22 54.5t53 22.5t53 -22.5t22 -54.5q0 -30 -22.5 -53t-52.5 -23q-31 0 -53 23zM351 579q-22 23 -22 53q0 32 22 54.5t53 22.5t53 -22.5t22 -54.5q0 -30 -22 -53t-53 -23t-53 23zM221 146l161 338h132l-294 -588q-47 -94 -96.5 -138.5
t-124.5 -44.5q-35 0 -63.5 10.5t-46.5 29.5l64 101q22 -24 54 -24q28 0 50.5 22t54.5 82l20 37l-93 513h135z" />
    <glyph glyph-name="Amacron" unicode="&#x100;" horiz-adv-x="624" 
d="M274 797l17 95h256l-17 -95h-256zM449 698l113 -732h-143l-20 167h-222l-78 -167h-145l367 732h128zM385 254l-31 264l-122 -264h153z" />
    <glyph glyph-name="amacron" unicode="&#x101;" horiz-adv-x="518" 
d="M189 582l17 95h256l-17 -95h-256zM507 484l-92 -518h-114l3 26l4 38q-28 -40 -64.5 -58t-76.5 -18q-70 0 -111.5 51.5t-41.5 146.5q0 43 9 92q23 133 86 193t143 60q95 0 123 -85l18 72h114zM289 105.5q29 36.5 43 117.5q6 35 6 60q0 52 -19.5 75.5t-52.5 23.5
q-40 0 -69.5 -36t-43.5 -114q-6 -36 -6 -63q0 -50 18.5 -75t52.5 -25q42 0 71 36.5z" />
    <glyph glyph-name="Abreve" unicode="&#x102;" horiz-adv-x="624" 
d="M307 798q-34 34 -34 88q0 19 2 29h98q-1 -5 -1 -15q0 -24 10 -37.5t27 -13.5q22 0 33 17t16 49h103q-10 -72 -49.5 -111.5t-111.5 -39.5q-59 0 -93 34zM449 698l113 -732h-143l-20 167h-222l-78 -167h-145l367 732h128zM385 254l-31 264l-122 -264h153z" />
    <glyph glyph-name="abreve" unicode="&#x103;" horiz-adv-x="519" 
d="M223.5 583q-33.5 35 -33.5 95q0 17 3 35h97q-2 -18 -2 -24q0 -27 9.5 -41t26.5 -14q22 0 33.5 19.5t17.5 59.5h102q-11 -80 -51.5 -122.5t-110.5 -42.5q-58 0 -91.5 35zM506 484l-92 -518h-114q6 40 7 64q-28 -40 -64.5 -58t-76.5 -18q-70 0 -111 51.5t-41 147.5
q0 47 8 91q24 133 87 193t143 60q95 0 122 -85q10 34 18 72h114zM288.5 105.5q28.5 36.5 43.5 117.5q6 35 6 60q0 52 -20 75.5t-53 23.5q-86 0 -113 -150q-6 -34 -6 -62q0 -50 18.5 -75.5t53.5 -25.5q42 0 70.5 36.5z" />
    <glyph glyph-name="Aogonek" unicode="&#x104;" horiz-adv-x="624" 
d="M581 -229q-55 -59 -116 -59q-46 0 -76.5 27t-30.5 76q0 81 81 151h-20l-20 167h-222l-78 -167h-145l367 732h128l113 -732q-104 -74 -104 -136q0 -16 8 -24.5t23 -8.5q13 0 26 7t30 24zM354 518l-122 -264h153z" />
    <glyph glyph-name="aogonek" unicode="&#x105;" horiz-adv-x="519" 
d="M367 -196q13 7 30 24l36 -57q-29 -31 -57 -45t-59 -14q-46 0 -76.5 27t-30.5 75q0 45 24 85.5t67 74.5q5 27 6 56q-28 -40 -64.5 -58t-76.5 -18q-70 0 -111 51.5t-41 147.5q0 47 8 91q24 133 87 193t143 60q95 0 122 -85q10 34 18 72h114l-92 -518q-104 -75 -104 -137
q0 -16 8.5 -24t22.5 -8q13 0 26 7zM288.5 105.5q28.5 36.5 43.5 117.5q6 35 6 60q0 52 -20 75.5t-53 23.5q-86 0 -113 -150q-6 -34 -6 -62q0 -50 18.5 -75.5t53.5 -25.5q42 0 70.5 36.5z" />
    <glyph glyph-name="Cacute" unicode="&#x106;" horiz-adv-x="549" 
d="M353 766l87 150h123l-112 -150h-98zM260 531q-45 -56 -67 -182q-11 -64 -11 -109q0 -80 28.5 -121t80.5 -41q37 0 67.5 22.5t56.5 72.5l101 -63q-33 -76 -95.5 -116t-141.5 -40q-111 0 -174 73.5t-63 209.5q0 62 11 122q32 183 119 267.5t207 84.5q95 0 148.5 -49
t55.5 -131l-117 -60q-6 56 -32.5 86t-70.5 30q-58 0 -103 -56z" />
    <glyph glyph-name="cacute" unicode="&#x107;" horiz-adv-x="411" 
d="M233 550l88 165h124l-114 -165h-98zM295 123l87 -59q-27 -58 -76.5 -84t-104.5 -26q-84 0 -135 54t-51 156q0 39 7 80q26 145 114 209q59 44 137 44q65 0 106 -34.5t45 -104.5l-104 -50q-4 38 -18 56t-41 18q-37 0 -65.5 -36t-42.5 -114q-6 -34 -6 -63q0 -49 18 -74.5
t52 -25.5q49 0 78 54z" />
    <glyph glyph-name="Ccircumflex" unicode="&#x108;" horiz-adv-x="549" 
d="M380 916h88l83 -151h-101l-38 74l-63 -74h-108zM260 531q-45 -56 -67 -182q-11 -64 -11 -109q0 -80 28.5 -121t80.5 -41q37 0 67.5 22.5t56.5 72.5l101 -63q-33 -76 -95.5 -116t-141.5 -40q-111 0 -174 73.5t-63 209.5q0 62 11 122q32 183 119 267.5t207 84.5
q95 0 148.5 -49t55.5 -131l-117 -60q-6 56 -32.5 86t-70.5 30q-58 0 -103 -56z" />
    <glyph glyph-name="ccircumflex" unicode="&#x109;" horiz-adv-x="411" 
d="M267 715h88l83 -165h-103l-36 80l-62 -80h-109zM295 123l87 -59q-27 -58 -76.5 -84t-104.5 -26q-84 0 -135 54t-51 156q0 39 7 80q26 145 114 209q59 44 137 44q65 0 106 -34.5t45 -104.5l-104 -50q-4 38 -18 56t-41 18q-37 0 -65.5 -36t-42.5 -114q-6 -34 -6 -63
q0 -49 18 -74.5t52 -25.5q49 0 78 54z" />
    <glyph glyph-name="Cdotaccent" unicode="&#x10a;" horiz-adv-x="549" 
d="M351 786q-24 25 -24 59q0 35 24 60t58 25q35 0 59.5 -25t24.5 -60q0 -34 -24.5 -59t-59.5 -25q-34 0 -58 25zM260 531q-45 -56 -67 -182q-11 -64 -11 -109q0 -80 28.5 -121t80.5 -41q37 0 67.5 22.5t56.5 72.5l101 -63q-33 -76 -95.5 -116t-141.5 -40q-111 0 -174 73.5
t-63 209.5q0 62 11 122q32 183 119 267.5t207 84.5q95 0 148.5 -49t55.5 -131l-117 -60q-6 56 -32.5 86t-70.5 30q-58 0 -103 -56z" />
    <glyph glyph-name="cdotaccent" unicode="&#x10b;" horiz-adv-x="411" 
d="M232.5 575.5q-24.5 25.5 -24.5 59.5q0 35 24 60t58 25q35 0 59.5 -25t24.5 -60q0 -34 -24.5 -59.5t-59.5 -25.5q-33 0 -57.5 25.5zM295 123l87 -59q-27 -58 -76.5 -84t-104.5 -26q-84 0 -135 54t-51 156q0 39 7 80q26 145 114 209q59 44 137 44q65 0 106 -34.5t45 -104.5
l-104 -50q-4 38 -18 56t-41 18q-37 0 -65.5 -36t-42.5 -114q-6 -34 -6 -63q0 -49 18 -74.5t52 -25.5q49 0 78 54z" />
    <glyph glyph-name="Ccaron" unicode="&#x10c;" horiz-adv-x="549" 
d="M370 916l38 -74l63 74h108l-139 -151h-89l-82 151h101zM260 531q-45 -56 -67 -182q-11 -64 -11 -109q0 -80 28.5 -121t80.5 -41q37 0 67.5 22.5t56.5 72.5l101 -63q-33 -76 -95.5 -116t-141.5 -40q-111 0 -174 73.5t-63 209.5q0 62 11 122q32 183 119 267.5t207 84.5
q95 0 148.5 -49t55.5 -131l-117 -60q-6 56 -32.5 86t-70.5 30q-58 0 -103 -56z" />
    <glyph glyph-name="ccaron" unicode="&#x10d;" horiz-adv-x="411" 
d="M265 715l36 -80l61 80h110l-140 -165h-88l-82 165h103zM295 123l87 -59q-27 -58 -76.5 -84t-104.5 -26q-84 0 -135 54t-51 156q0 39 7 80q26 145 114 209q59 44 137 44q65 0 106 -34.5t45 -104.5l-104 -50q-4 38 -18 56t-41 18q-37 0 -65.5 -36t-42.5 -114q-6 -34 -6 -63
q0 -49 18 -74.5t52 -25.5q49 0 78 54z" />
    <glyph glyph-name="Dcaron" unicode="&#x10e;" horiz-adv-x="614" 
d="M314 915l38 -73l64 73h108l-140 -150h-88l-83 150h101zM345 698q117 0 184 -73t67 -204q0 -42 -10 -102q-30 -169 -126 -261t-236 -92h-217l129 732h209zM454 415q0 167 -141 167h-63l-88 -499h64q88 0 143 57.5t76 179.5q9 53 9 95z" />
    <glyph glyph-name="dcaron" unicode="&#x10f;" horiz-adv-x="609" 
d="M693.5 716q15.5 -15 15.5 -46q0 -12 -3 -29q-11 -63 -52.5 -100t-101.5 -46l10 57q54 11 70 48h-4q-22 0 -35.5 14.5t-13.5 37.5q0 36 22 57.5t53 21.5q24 0 39.5 -15zM422 727h128l-135 -761h-114l3 26l4 38q-28 -40 -64.5 -58t-76.5 -18q-70 0 -111.5 51.5t-41.5 146.5
q0 43 9 92q23 133 86 193t143 60q87 0 116 -70zM332 220q6 36 6 63q0 52 -19.5 75.5t-52.5 23.5q-40 0 -69.5 -36t-43.5 -114q-6 -36 -6 -63q0 -50 18.5 -75t52.5 -25q87 0 114 151z" />
    <glyph glyph-name="Dcroat" unicode="&#x110;" horiz-adv-x="638" 
d="M370 698q117 0 184 -73t67 -204q0 -42 -10 -102q-30 -169 -126 -261t-236 -92h-217l55 318h-75l23 123h74l52 291h209zM478 416q0 166 -141 166h-63l-30 -175h90l-23 -123h-89l-36 -201h65q88 0 142.5 57.5t75.5 179.5q9 53 9 96z" />
    <glyph glyph-name="dcroat" unicode="&#x111;" horiz-adv-x="486" 
d="M537 640h71l-18 -98h-70l-102 -576h-114l3 26l4 38q-28 -40 -64.5 -58t-76.5 -18q-70 0 -111.5 51.5t-41.5 146.5q0 43 9 92q24 133 86.5 193t142.5 60q88 0 117 -70l20 115h-100l17 98h100l16 87h128zM341 283q0 52 -19.5 75.5t-52.5 23.5q-86 0 -113 -150
q-6 -36 -6 -63q0 -50 18.5 -75t52.5 -25q87 0 114 151q6 36 6 63z" />
    <glyph glyph-name="Emacron" unicode="&#x112;" horiz-adv-x="500" 
d="M224 797l17 95h256l-17 -95h-256zM136 698h393l-21 -118h-259l-32 -182h233l-21 -118h-233l-34 -195h268l-21 -119h-402z" />
    <glyph glyph-name="emacron" unicode="&#x113;" horiz-adv-x="439" 
d="M165 582l17 95h256l-17 -95h-256zM312 133l85 -64q-28 -57 -82 -86t-114 -29q-84 0 -136 54.5t-52 157.5q0 39 7 78q24 132 95.5 192.5t162.5 60.5q76 0 116.5 -39t40.5 -106q0 -167 -235 -167q-18 0 -58 2q-7 -118 76 -118q60 0 94 64zM157 285q30 -3 55 -3
q49 0 72.5 14t23.5 45q0 45 -49 45q-74 0 -102 -101z" />
    <glyph glyph-name="Ebreve" unicode="&#x114;" horiz-adv-x="500" 
d="M257 798q-34 34 -34 88q0 19 2 29h99q-1 -6 -1 -16q0 -23 9.5 -36.5t26.5 -13.5q22 0 33 17t17 49h102q-10 -72 -49.5 -111.5t-111.5 -39.5q-59 0 -93 34zM136 698h393l-21 -118h-259l-32 -182h233l-21 -118h-233l-34 -195h268l-21 -119h-402z" />
    <glyph glyph-name="ebreve" unicode="&#x115;" horiz-adv-x="439" 
d="M199.5 583.5q-33.5 35.5 -33.5 95.5q0 16 3 34h97q-1 -8 -1 -23q0 -27 9 -41.5t26 -14.5q22 0 33.5 19.5t17.5 59.5h103q-24 -165 -163 -165q-58 0 -91.5 35.5zM312 133l85 -64q-28 -57 -82 -86t-114 -29q-84 0 -136 54.5t-52 157.5q0 39 7 78q24 132 95.5 192.5
t162.5 60.5q76 0 116.5 -39t40.5 -106q0 -167 -235 -167q-18 0 -58 2q-7 -118 76 -118q60 0 94 64zM157 285q30 -3 55 -3q49 0 72.5 14t23.5 45q0 45 -49 45q-74 0 -102 -101z" />
    <glyph glyph-name="Edotaccent" unicode="&#x116;" horiz-adv-x="500" 
d="M301.5 785q-24.5 25 -24.5 60t24.5 60t58.5 25q35 0 59.5 -25t24.5 -60t-25 -60t-59 -25t-58.5 25zM136 698h393l-21 -118h-259l-32 -182h233l-21 -118h-233l-34 -195h268l-21 -119h-402z" />
    <glyph glyph-name="edotaccent" unicode="&#x117;" horiz-adv-x="439" 
d="M231 574.5q-24 25.5 -24 59.5q0 35 24 60t58 25q35 0 59.5 -25t24.5 -60q0 -34 -24.5 -59.5t-59.5 -25.5q-34 0 -58 25.5zM312 133l85 -64q-28 -57 -82 -86t-114 -29q-84 0 -136 54.5t-52 157.5q0 39 7 78q24 132 95.5 192.5t162.5 60.5q76 0 116.5 -39t40.5 -106
q0 -167 -235 -167q-18 0 -58 2q-7 -118 76 -118q60 0 94 64zM157 285q30 -3 55 -3q49 0 72.5 14t23.5 45q0 45 -49 45q-74 0 -102 -101z" />
    <glyph glyph-name="Eogonek" unicode="&#x118;" horiz-adv-x="500" 
d="M529 698l-21 -118h-259l-32 -182h233l-21 -118h-233l-34 -195h268l-21 -119q-104 -75 -104 -136q0 -16 8 -24.5t23 -8.5q13 0 26 7t30 24l36 -57q-55 -59 -116 -59q-46 0 -76.5 27t-30.5 75q0 81 81 152h-279l129 732h393z" />
    <glyph glyph-name="eogonek" unicode="&#x119;" horiz-adv-x="441" 
d="M273 84.5q23 15.5 41 48.5l86 -64q-23 -45 -64 -74q-59 -45 -87.5 -80.5t-34.5 -67.5q-1 -5 -1 -14q0 -18 8 -27t21 -9q26 0 58 31l36 -57q-29 -30 -61 -44.5t-62 -14.5q-42 0 -71.5 24.5t-29.5 72.5q0 41 16.5 75t53.5 71q-76 7 -121.5 61.5t-45.5 150.5q0 39 7 77
q24 132 95.5 192.5t162.5 60.5q76 0 116.5 -39t40.5 -106q0 -167 -235 -167q-18 0 -58 2q-7 -118 76 -118q30 0 53 15.5zM160 285q30 -3 54 -3q49 0 72.5 14t23.5 45q0 45 -49 45q-74 0 -101 -101z" />
    <glyph glyph-name="Ecaron" unicode="&#x11a;" horiz-adv-x="500" 
d="M320 915l38 -73l63 73h108l-139 -150h-88l-83 150h101zM136 698h393l-21 -118h-259l-32 -182h233l-21 -118h-233l-34 -195h268l-21 -119h-402z" />
    <glyph glyph-name="ecaron" unicode="&#x11b;" horiz-adv-x="439" 
d="M263 714l36 -80l62 80h109l-139 -165h-88l-83 165h103zM312 133l85 -64q-28 -57 -82 -86t-114 -29q-84 0 -136 54.5t-52 157.5q0 39 7 78q24 132 95.5 192.5t162.5 60.5q76 0 116.5 -39t40.5 -106q0 -167 -235 -167q-18 0 -58 2q-7 -118 76 -118q60 0 94 64zM157 285
q30 -3 55 -3q49 0 72.5 14t23.5 45q0 45 -49 45q-74 0 -102 -101z" />
    <glyph glyph-name="Gcircumflex" unicode="&#x11c;" horiz-adv-x="594" 
d="M393 916h88l83 -151h-101l-38 74l-63 -74h-108zM423 249h-105l20 117h237l-54 -305q-34 -49 -91.5 -78t-130.5 -29q-77 0 -134.5 34t-89.5 100t-32 160q0 55 10 112q22 122 73 200.5t119.5 114.5t145.5 36q94 0 149 -49.5t60 -130.5l-120 -61q-5 54 -31 85.5t-75 31.5
q-63 0 -112.5 -57t-71.5 -180q-10 -53 -10 -98q0 -88 36 -131.5t97 -43.5q50 0 86 33z" />
    <glyph glyph-name="gcircumflex" unicode="&#x11d;" horiz-adv-x="507" 
d="M345 549l-36 80l-62 -80h-109l139 165h88l83 -165h-103zM504 484l-89 -499q-27 -150 -96 -211.5t-161 -61.5q-80 0 -132.5 39.5t-61.5 118.5l105 54q10 -49 33.5 -72t63.5 -23q52 0 81 39t45 132l2 14q-52 -60 -128 -60q-70 0 -111 51.5t-41 147.5q0 47 8 91
q24 133 87 193t143 60q94 0 122 -83l18 70h112zM337 283q0 52 -19.5 75.5t-52.5 23.5q-86 0 -113 -150q-6 -34 -6 -62q0 -50 18.5 -75.5t53.5 -25.5q38 0 68.5 33.5t44.5 117.5q6 36 6 63z" />
    <glyph glyph-name="Gbreve" unicode="&#x11e;" horiz-adv-x="594" 
d="M320 799q-34 34 -34 88q0 19 2 29h98q-1 -5 -1 -15q0 -24 10 -37.5t27 -13.5q22 0 33 17t16 49h103q-10 -72 -50 -111.5t-111 -39.5q-59 0 -93 34zM423 249h-105l20 117h237l-54 -305q-34 -49 -91.5 -78t-130.5 -29q-77 0 -134.5 34t-89.5 100t-32 160q0 55 10 112
q22 122 73 200.5t119.5 114.5t145.5 36q94 0 149 -49.5t60 -130.5l-120 -61q-5 54 -31 85.5t-75 31.5q-63 0 -112.5 -57t-71.5 -180q-10 -53 -10 -98q0 -88 36 -131.5t97 -43.5q50 0 86 33z" />
    <glyph glyph-name="gbreve" unicode="&#x11f;" horiz-adv-x="507" 
d="M211 584q-34 35 -34 96q0 16 3 34h98q-2 -18 -2 -24q0 -27 9 -41.5t26 -14.5q23 0 34 19.5t18 60.5h102q-11 -80 -51.5 -122.5t-110.5 -42.5q-58 0 -92 35zM504 484l-89 -499q-27 -150 -96 -211.5t-161 -61.5q-80 0 -132.5 39.5t-61.5 118.5l105 54q10 -49 33.5 -72
t63.5 -23q52 0 81 39t45 132l2 14q-52 -60 -128 -60q-70 0 -111 51.5t-41 147.5q0 47 8 91q24 133 87 193t143 60q94 0 122 -83l18 70h112zM337 283q0 52 -19.5 75.5t-52.5 23.5q-86 0 -113 -150q-6 -34 -6 -62q0 -50 18.5 -75.5t53.5 -25.5q38 0 68.5 33.5t44.5 117.5
q6 36 6 63z" />
    <glyph glyph-name="Gdotaccent" unicode="&#x120;" horiz-adv-x="594" 
d="M364 786q-24 25 -24 59q0 35 24 60t58 25q35 0 59.5 -25t24.5 -60q0 -34 -24.5 -59t-59.5 -25q-34 0 -58 25zM423 249h-105l20 117h237l-54 -305q-34 -49 -91.5 -78t-130.5 -29q-77 0 -134.5 34t-89.5 100t-32 160q0 55 10 112q22 122 73 200.5t119.5 114.5t145.5 36
q94 0 149 -49.5t60 -130.5l-120 -61q-5 54 -31 85.5t-75 31.5q-63 0 -112.5 -57t-71.5 -180q-10 -53 -10 -98q0 -88 36 -131.5t97 -43.5q50 0 86 33z" />
    <glyph glyph-name="gdotaccent" unicode="&#x121;" horiz-adv-x="507" 
d="M242 575q-24 25 -24 60t24 60t58 25t59 -25t25 -60t-24.5 -60t-59.5 -25q-34 0 -58 25zM504 484l-89 -499q-27 -150 -96 -211.5t-161 -61.5q-80 0 -132.5 39.5t-61.5 118.5l105 54q10 -49 33.5 -72t63.5 -23q52 0 81 39t45 132l2 14q-52 -60 -128 -60q-70 0 -111 51.5
t-41 147.5q0 47 8 91q24 133 87 193t143 60q94 0 122 -83l18 70h112zM337 283q0 52 -19.5 75.5t-52.5 23.5q-86 0 -113 -150q-6 -34 -6 -62q0 -50 18.5 -75.5t53.5 -25.5q38 0 68.5 33.5t44.5 117.5q6 36 6 63z" />
    <glyph glyph-name="uni0122" unicode="&#x122;" horiz-adv-x="594" 
d="M423 249h-105l21 117h237l-55 -305q-34 -49 -91.5 -78t-130.5 -29q-77 0 -134.5 34t-89.5 100t-32 160q0 55 10 112q22 122 73 200.5t119.5 114.5t146.5 36q94 0 148.5 -50t59.5 -130l-120 -61q-5 54 -30.5 85.5t-75.5 31.5q-63 0 -112.5 -57t-71.5 -180q-10 -60 -10 -97
q0 -88 36 -132t97 -44q52 0 86 33zM347.5 -86q19.5 -19 19.5 -54q0 -6 -2 -24q-10 -57 -55.5 -89t-121.5 -35l10 57q65 10 81 42h-4q-29 0 -46 14t-17 37q0 33 24 52t58 19t53.5 -19z" />
    <glyph glyph-name="uni0123" unicode="&#x123;" horiz-adv-x="507" 
d="M249.5 570q-19.5 20 -19.5 59q0 14 3 30q12 70 63.5 116t122.5 56l-12 -68q-32 -6 -53 -19.5t-31 -37.5h2q29 0 46 -17.5t17 -44.5q0 -38 -26.5 -66t-61.5 -28q-31 0 -50.5 20zM504 484l-89 -499q-27 -150 -96 -211.5t-161 -61.5q-80 0 -132.5 39.5t-61.5 118.5l105 54
q10 -49 33.5 -72t63.5 -23q52 0 81 39t45 132l2 14q-52 -60 -128 -60q-70 0 -111 51.5t-41 147.5q0 47 8 91q24 133 87 193t143 60q94 0 122 -83l18 70h112zM337 283q0 52 -19.5 75.5t-52.5 23.5q-86 0 -113 -150q-6 -34 -6 -62q0 -50 18.5 -75.5t53.5 -25.5q38 0 68.5 33.5
t44.5 117.5q6 36 6 63z" />
    <glyph glyph-name="Hcircumflex" unicode="&#x124;" horiz-adv-x="638" 
d="M390 916h88l83 -151h-101l-38 74l-63 -74h-108zM218 406h248l52 292h134l-129 -732h-134l56 319h-248l-56 -319h-134l129 732h134z" />
    <glyph glyph-name="hcircumflex" unicode="&#x125;" horiz-adv-x="499" 
d="M182 921h92l91 -141h-114l-38 62l-59 -62h-114zM431 458q32 -39 32 -113q0 -34 -8 -80l-53 -299h-128l49 278q6 33 6 60q0 71 -52 71q-36 0 -64 -31.5t-40 -96.5l-49 -281h-128l135 761h128l-52 -293q27 31 60.5 47t70.5 16q61 0 93 -39z" />
    <glyph glyph-name="Hbar" unicode="&#x126;" horiz-adv-x="685" 
d="M677 698l-17 -99h68l-18 -101h-68l-94 -532h-139l56 318h-242l-56 -318h-138l94 532h-69l18 101h69l17 99h138l-17 -99h242l17 99h139zM261 498l-16 -91h242l16 91h-242z" />
    <glyph glyph-name="hbar" unicode="&#x127;" horiz-adv-x="506" 
d="M437 458q32 -39 32 -113q0 -34 -8 -80l-53 -299h-128l49 278q6 33 6 60q0 71 -52 71q-36 0 -64 -31.5t-39 -96.5l-50 -281h-128l102 576h-60l18 98h60l15 87h128l-16 -87h115l-18 -98h-114l-19 -108q54 63 132 63q60 0 92 -39z" />
    <glyph glyph-name="Itilde" unicode="&#x128;" horiz-adv-x="256" 
d="M59 778q29 138 110 138q20 0 35 -8.5t33 -24.5q13 -11 21 -16t15 -5q21 0 33 50h83q-14 -67 -42.5 -102.5t-65.5 -35.5q-21 0 -36 8.5t-33 24.5q-13 11 -20 15.5t-15 4.5q-23 0 -35 -49h-83zM141 -34h-134l129 732h134z" />
    <glyph glyph-name="itilde" unicode="&#x129;" horiz-adv-x="231" 
d="M11 564q29 137 110 137q20 0 35 -8.5t33 -24.5q24 -20 36 -20q20 0 34 49h82q-14 -67 -42.5 -102t-65.5 -35q-21 0 -36 8.5t-33 24.5q-13 11 -20 15.5t-15 4.5q-23 0 -34 -49h-84zM-1 -34l92 518h128l-92 -518h-128z" />
    <glyph glyph-name="Imacron" unicode="&#x12a;" horiz-adv-x="256" 
d="M93 797l17 95h255l-16 -95h-256zM141 -34h-134l129 732h134z" />
    <glyph glyph-name="imacron" unicode="&#x12b;" horiz-adv-x="231" 
d="M44 582l17 95h256l-17 -95h-256zM-1 -34l92 518h128l-92 -518h-128z" />
    <glyph glyph-name="Ibreve" unicode="&#x12c;" horiz-adv-x="256" 
d="M126 799q-34 34 -34 88q0 19 2 29h98q-1 -5 -1 -15q0 -24 10 -37.5t27 -13.5q22 0 33 17t16 49h103q-10 -72 -50 -111.5t-111 -39.5q-59 0 -93 34zM141 -34h-134l129 732h134z" />
    <glyph glyph-name="ibreve" unicode="&#x12d;" horiz-adv-x="231" 
d="M79 584q-34 35 -34 96q0 16 3 34h98q-2 -18 -2 -24q0 -27 9 -41.5t26 -14.5q23 0 34 19.5t18 60.5h102q-11 -80 -51.5 -122.5t-110.5 -42.5q-58 0 -92 35zM-1 -34l92 518h128l-92 -518h-128z" />
    <glyph glyph-name="Iogonek" unicode="&#x12e;" horiz-adv-x="256" 
d="M94 -196q13 7 30 24l36 -57q-29 -31 -57 -45t-59 -14q-46 0 -77 27t-31 75q0 81 82 152h-11l129 732h134l-129 -732q-92 -66 -104 -124q-1 -4 -1 -12q0 -33 32 -33q13 0 26 7z" />
    <glyph glyph-name="iogonek" unicode="&#x12f;" horiz-adv-x="231" 
d="M227 695q25 -25 25 -60t-24.5 -60t-59.5 -25q-34 0 -58 25t-24 60t24 60t58 25t59 -25zM127 -34q-105 -74 -105 -136q0 -16 8 -24.5t23 -8.5q13 0 26.5 7t30.5 24l36 -57q-29 -31 -57 -45t-60 -14q-46 0 -76.5 26.5t-30.5 74.5q0 82 82 153h-5l92 518h128z" />
    <glyph glyph-name="Idotaccent" unicode="&#x130;" horiz-adv-x="256" 
d="M170 786q-24 25 -24 59q0 35 24 60t58 25q35 0 59.5 -25t24.5 -60q0 -34 -24.5 -59t-59.5 -25q-34 0 -58 25zM141 -34h-134l129 732h134z" />
    <glyph glyph-name="dotlessi" unicode="&#x131;" horiz-adv-x="231" 
d="M-1 -34l92 518h128l-92 -518h-128z" />
    <glyph glyph-name="IJ" unicode="&#x132;" horiz-adv-x="705" 
d="M141 -34h-134l129 732h134zM288.5 -9.5q-47.5 36.5 -56.5 114.5l118 66q7 -50 22.5 -71.5t44.5 -21.5q37 0 57.5 34t33.5 109l84 477h134l-87 -499q-23 -129 -78 -187t-151 -58q-74 0 -121.5 36.5z" />
    <glyph glyph-name="ij" unicode="&#x133;" horiz-adv-x="450" 
d="M126 581q-22 23 -22 54q0 32 22 55t53 23t53.5 -23t22.5 -55q0 -31 -22.5 -54t-53.5 -23t-53 23zM352 581q-22 23 -22 54q0 32 22 55t53 23q32 0 54.5 -23t22.5 -55q0 -31 -22.5 -54t-54.5 -23q-31 0 -53 23zM127 -34h-128l92 518h128zM71 -274q-31 13 -47 34l66 97
q23 -27 54 -27q30 0 47.5 25.5t29.5 89.5l95 539h129l-99 -557q-21 -116 -73.5 -165t-128.5 -49q-42 0 -73 13z" />
    <glyph glyph-name="Jcircumflex" unicode="&#x134;" horiz-adv-x="449" 
d="M399 916h88l83 -151h-101l-38 74l-63 -74h-108zM32 -9.5q-47 36.5 -56 114.5l117 66q7 -49 23 -71t45 -22q37 0 57 33.5t34 109.5l83 477h135l-88 -499q-23 -129 -78 -187t-150 -58q-75 0 -122 36.5z" />
    <glyph glyph-name="jcircumflex" unicode="&#x135;" horiz-adv-x="213" 
d="M139 714h89l82 -165h-103l-36 80l-62 -80h-109zM-160 -274q-31 13 -47 34l66 97q22 -27 54 -27q30 0 47.5 25.5t28.5 89.5l95 539h130l-99 -557q-20 -116 -72.5 -165t-129.5 -49q-42 0 -73 13z" />
    <glyph glyph-name="uni0136" unicode="&#x136;" horiz-adv-x="617" 
d="M502 698h163l-266 -287l160 -445h-153l-112 330l-117 -125l-36 -205h-134l129 732h134l-42 -237q-10 -58 -20 -98q39 47 91 106zM315 -86q20 -19 20 -54q0 -6 -2 -24q-11 -57 -56.5 -89t-121.5 -35l10 57q64 9 82 42h-5q-29 0 -46 14.5t-17 37.5q0 32 24.5 51t57.5 19
q34 0 54 -19z" />
    <glyph glyph-name="uni0137" unicode="&#x137;" horiz-adv-x="492" 
d="M365 484h147l-186 -205l110 -313h-141l-66 206l-86 -95l-19 -111h-128l134 761h128l-52 -296q-11 -64 -20.5 -112.5t-17.5 -78.5q26 35 94 118zM251 -85.5q20 -18.5 20 -52.5q0 -12 -3 -25q-10 -57 -55.5 -89t-121.5 -36l10 57q64 10 82 42h-5q-30 1 -46.5 15t-16.5 38
q0 32 24 50.5t58 18.5t54 -18.5z" />
    <glyph glyph-name="kgreenlandic" unicode="&#x138;" horiz-adv-x="493" 
d="M366 484h147l-186 -205l110 -313h-141l-66 206l-86 -95l-19 -111h-129l91 518h129l-14 -80q-21 -122 -33 -164q26 35 94 118z" />
    <glyph glyph-name="Lacute" unicode="&#x139;" horiz-adv-x="496" 
d="M168 766l86 149h124l-112 -149h-98zM136 698h134l-107 -611h258l-22 -121h-392z" />
    <glyph glyph-name="lacute" unicode="&#x13a;" horiz-adv-x="227" 
d="M161 782l86 150h124l-112 -150h-98zM124 -34h-128l135 761h128z" />
    <glyph glyph-name="uni013B" unicode="&#x13b;" horiz-adv-x="474" 
d="M136 698h134l-107 -611h258l-22 -121h-392zM248 -85.5q20 -18.5 20 -53.5q0 -12 -3 -25q-10 -57 -55.5 -89t-121.5 -35l10 57q65 10 81 42h-4q-29 0 -46 14t-17 37q0 32 24 51.5t58 19.5t54 -18.5z" />
    <glyph glyph-name="uni013C" unicode="&#x13c;" horiz-adv-x="227" 
d="M124 -34h-128l135 761h128zM102 -85.5q20 -18.5 20 -53.5q0 -12 -3 -25q-10 -57 -55.5 -89t-121.5 -35l10 57q65 10 81 42h-4q-29 0 -46 14t-17 37q0 33 24 52t58 19t54 -18.5z" />
    <glyph glyph-name="Lcaron" unicode="&#x13d;" horiz-adv-x="494" 
d="M487.5 691.5q19.5 -19.5 19.5 -58.5q0 -14 -3 -31q-12 -70 -63.5 -116t-122.5 -56l12 68q65 13 84 56h-4q-28 1 -44.5 19t-16.5 45q0 38 26.5 65.5t62.5 27.5q30 0 49.5 -19.5zM140 698h134l-107 -611h258l-22 -121h-392z" />
    <glyph glyph-name="lcaron" unicode="&#x13e;" horiz-adv-x="318" 
d="M402.5 716q15.5 -15 15.5 -46q0 -12 -3 -29q-11 -63 -52.5 -100t-101.5 -46l10 57q55 10 71 48h-5q-22 0 -35.5 13.5t-13.5 36.5q0 37 21.5 59t53.5 22q24 0 39.5 -15zM124 -34h-128l135 761h128z" />
    <glyph glyph-name="Ldot" unicode="&#x13f;" horiz-adv-x="474" 
d="M136 698h134l-107 -611h258l-22 -121h-392zM286.5 309.5q-24.5 25.5 -24.5 59.5q0 35 24 60t58 25q35 0 59.5 -25t24.5 -60q0 -34 -24.5 -59.5t-59.5 -25.5q-33 0 -57.5 25.5z" />
    <glyph glyph-name="ldot" unicode="&#x140;" horiz-adv-x="319" 
d="M135 -34h-128l135 761h128zM241 294q-21 21 -21 55q0 35 21 55.5t52 20.5q32 0 52.5 -20.5t20.5 -55.5q0 -34 -20.5 -55t-52.5 -21q-31 0 -52 21z" />
    <glyph glyph-name="Lslash" unicode="&#x141;" 
d="M370 367l-141 -68l-37 -212h258l-21 -121h-393l47 265l-93 -45l25 140l93 44l57 328h134l-45 -258l141 67z" />
    <glyph glyph-name="lslash" unicode="&#x142;" horiz-adv-x="275" 
d="M282 727l-47 -267l77 44l-24 -140l-78 -44l-63 -354h-128l48 272l-77 -44l25 140l77 44l62 349h128z" />
    <glyph glyph-name="Nacute" unicode="&#x143;" horiz-adv-x="624" 
d="M346 766l87 150h124l-112 -150h-99zM241 698l190 -477l83 477h124l-129 -732h-106l-190 469l-83 -469h-123l129 732h105z" />
    <glyph glyph-name="nacute" unicode="&#x144;" horiz-adv-x="499" 
d="M243 549l88 165h124l-114 -165h-98zM431 458q32 -39 32 -113q0 -34 -8 -80l-53 -299h-128l49 278q6 33 6 59q0 72 -52 72q-35 0 -63 -30t-39 -93l-51 -286h-128l92 519h113q-1 -7 -3.5 -29t-3.5 -39q55 80 144 80q61 0 93 -39z" />
    <glyph glyph-name="uni0145" unicode="&#x145;" horiz-adv-x="624" 
d="M241 698l190 -477l83 477h124l-129 -732h-106l-190 469l-83 -469h-123l129 732h105zM308 -86q20 -19 20 -54q0 -6 -2 -24q-10 -57 -56 -89t-121 -35l10 57q63 10 81 42h-4q-29 0 -46 14t-17 37q0 33 23.5 52t57.5 19t54 -19z" />
    <glyph glyph-name="uni0146" unicode="&#x146;" horiz-adv-x="499" 
d="M431 458q32 -39 32 -113q0 -34 -8 -80l-53 -299h-128l49 278q6 33 6 59q0 72 -52 72q-35 0 -63 -30t-39 -93l-51 -286h-128l92 519h113q-1 -7 -3.5 -29t-3.5 -39q55 80 144 80q61 0 93 -39zM240 -86q20 -19 20 -54q0 -6 -2 -24q-11 -57 -56.5 -89t-121.5 -35l10 57
q64 9 82 42h-5q-30 0 -46.5 14t-16.5 38q0 32 24 51t58 19t54 -19z" />
    <glyph glyph-name="Ncaron" unicode="&#x147;" horiz-adv-x="624" 
d="M364 916l37 -74l64 74h108l-140 -151h-88l-83 151h102zM241 698l190 -477l83 477h124l-129 -732h-106l-190 469l-83 -469h-123l129 732h105z" />
    <glyph glyph-name="ncaron" unicode="&#x148;" horiz-adv-x="499" 
d="M274 714l36 -79l62 79h109l-139 -165h-88l-83 165h103zM431 458q32 -39 32 -113q0 -34 -8 -80l-53 -299h-128l49 278q6 33 6 59q0 72 -52 72q-35 0 -63 -30t-39 -93l-51 -286h-128l92 519h113q-1 -7 -3.5 -29t-3.5 -39q55 80 144 80q61 0 93 -39z" />
    <glyph glyph-name="napostrophe" unicode="&#x149;" 
d="M192.5 722q18.5 -18 18.5 -52q0 -6 -2 -22q-11 -59 -58.5 -98t-114.5 -47l10 56q31 6 50.5 17.5t28.5 32.5h-5q-26 1 -41.5 16t-15.5 39q0 32 24 54t58 22q29 0 47.5 -18zM434 458q32 -39 32 -113q0 -34 -8 -80l-53 -299h-128l49 278q6 33 6 59q0 72 -52 72
q-35 0 -63 -30t-39 -93l-51 -286h-128l92 519h113q-1 -7 -3.5 -29t-3.5 -39q55 80 144 80q61 0 93 -39z" />
    <glyph glyph-name="Eng" unicode="&#x14a;" horiz-adv-x="624" 
d="M514 698h124l-137 -774q-35 -211 -197 -211q-36 0 -67 12t-50 29l69 105q24 -21 50 -21q28 0 44 21t27 82l11 61l-175 433l-83 -469h-123l129 732h105l190 -476z" />
    <glyph glyph-name="eng" unicode="&#x14b;" horiz-adv-x="499" 
d="M431 458q32 -39 32 -113q0 -34 -8 -80l-63 -357q-18 -106 -67 -151t-122 -45q-42 0 -73 12.5t-49 34.5l66 97q23 -27 52 -27t43.5 24.5t26.5 91.5l54 299q6 33 6 59q0 72 -52 72q-35 0 -63 -30t-39 -93l-51 -286h-128l92 519h113q-1 -7 -3.5 -29t-3.5 -39q55 80 144 80
q61 0 93 -39z" />
    <glyph glyph-name="Omacron" unicode="&#x14c;" horiz-adv-x="635" 
d="M282 797l17 95h256l-17 -95h-256zM171.5 626q86.5 85 205.5 85q112 0 176 -73t64 -209q0 -61 -11 -120q-33 -186 -120.5 -270.5t-206.5 -84.5q-113 0 -176 72.5t-63 208.5q0 56 12 122q33 184 119.5 269zM181 235q0 -78 28.5 -117.5t83.5 -39.5q63 0 106.5 55t66.5 185
q10 59 10 109q0 79 -27.5 119.5t-82.5 40.5q-64 0 -108 -56.5t-66 -184.5q-11 -66 -11 -111z" />
    <glyph glyph-name="omacron" unicode="&#x14d;" horiz-adv-x="491" 
d="M173 582l17 95h256l-17 -95h-256zM115 437.5q69 59.5 158 59.5q86 0 137 -53t51 -155q0 -36 -8 -84q-23 -135 -92 -193t-157 -58t-139 53t-51 154q0 35 8 83q24 134 93 193.5zM146 165q0 -96 69 -96q82 0 107 148q7 38 7 70q0 95 -68 95q-82 0 -108 -151q-7 -35 -7 -66z
" />
    <glyph glyph-name="Obreve" unicode="&#x14e;" horiz-adv-x="635" 
d="M315 798q-34 34 -34 88q0 19 2 29h99q-1 -6 -1 -16q0 -23 9.5 -36.5t26.5 -13.5q22 0 33 17t17 49h102q-10 -72 -49.5 -111.5t-111.5 -39.5q-59 0 -93 34zM171.5 626q86.5 85 205.5 85q112 0 176 -73t64 -209q0 -61 -11 -120q-33 -186 -120.5 -270.5t-206.5 -84.5
q-113 0 -176 72.5t-63 208.5q0 56 12 122q33 184 119.5 269zM181 235q0 -78 28.5 -117.5t83.5 -39.5q63 0 106.5 55t66.5 185q10 59 10 109q0 79 -27.5 119.5t-82.5 40.5q-64 0 -108 -56.5t-66 -184.5q-11 -66 -11 -111z" />
    <glyph glyph-name="obreve" unicode="&#x14f;" horiz-adv-x="491" 
d="M208 583.5q-34 35.5 -34 95.5q0 16 3 34h98q-2 -18 -2 -24q0 -27 9 -41t26 -14q22 0 34 19.5t18 59.5h102q-11 -80 -51.5 -122.5t-110.5 -42.5q-58 0 -92 35.5zM115 437.5q69 59.5 158 59.5q86 0 137 -53t51 -155q0 -36 -8 -84q-23 -135 -92 -193t-157 -58t-139 53
t-51 154q0 35 8 83q24 134 93 193.5zM146 165q0 -96 69 -96q82 0 107 148q7 38 7 70q0 95 -68 95q-82 0 -108 -151q-7 -35 -7 -66z" />
    <glyph glyph-name="Ohungarumlaut" unicode="&#x150;" horiz-adv-x="635" 
d="M277 765l90 150h123l-122 -150h-91zM438 765l90 150h123l-122 -150h-91zM171.5 626q86.5 85 205.5 85q112 0 176 -73t64 -209q0 -61 -11 -120q-33 -186 -120.5 -270.5t-206.5 -84.5q-113 0 -176 72.5t-63 208.5q0 56 12 122q33 184 119.5 269zM181 235q0 -78 28.5 -117.5
t83.5 -39.5q63 0 106.5 55t66.5 185q10 59 10 109q0 79 -27.5 119.5t-82.5 40.5q-64 0 -108 -56.5t-66 -184.5q-11 -66 -11 -111z" />
    <glyph glyph-name="ohungarumlaut" unicode="&#x151;" horiz-adv-x="491" 
d="M168 549l92 165h123l-124 -165h-91zM329 549l92 165h123l-124 -165h-91zM115 437.5q69 59.5 158 59.5q86 0 137 -53t51 -155q0 -36 -8 -84q-23 -135 -92 -193t-157 -58t-139 53t-51 154q0 35 8 83q24 134 93 193.5zM146 165q0 -96 69 -96q82 0 107 148q7 38 7 70
q0 95 -68 95q-82 0 -108 -151q-7 -35 -7 -66z" />
    <glyph glyph-name="OE" unicode="&#x152;" horiz-adv-x="895" 
d="M924 698l-20 -118h-260l-32 -182h233l-21 -118h-233l-34 -195h269l-21 -119h-403l8 40q-62 -52 -148 -52q-104 0 -163 71.5t-59 204.5q0 58 12 127q32 184 116.5 269t197.5 85q105 0 154 -73l11 60h393zM399 134q43 56 65 184q11 64 11 109q0 78 -28 119t-82 41
q-63 0 -107 -57t-66 -184q-11 -64 -11 -109q0 -78 29 -118.5t83 -40.5q63 0 106 56z" />
    <glyph glyph-name="oe" unicode="&#x153;" horiz-adv-x="755" 
d="M588 83.5q23 15.5 41 49.5l85 -64q-28 -58 -81.5 -87t-113.5 -29q-51 0 -90.5 22.5t-60.5 65.5q-59 -87 -167 -87q-87 0 -137 52.5t-50 154.5q0 35 8 83q24 134 93 193.5t156 59.5q108 0 147 -88q34 45 80.5 66t97.5 21q75 0 115.5 -39t40.5 -106q0 -166 -236 -166
q-17 0 -59 2q-5 -119 78 -119q30 0 53 15.5zM473 285q31 -3 56 -3q49 0 72.5 14t23.5 45q0 44 -49 44q-76 0 -103 -100zM329 286q0 96 -68 96q-37 0 -65.5 -33.5t-43.5 -117.5q-6 -37 -6 -65q0 -50 18 -73.5t50 -23.5q81 0 108 148q7 36 7 69z" />
    <glyph glyph-name="Racute" unicode="&#x154;" horiz-adv-x="558" 
d="M378 915h124l-112 -149h-99zM493.5 335.5q-39.5 -49.5 -101.5 -73.5l121 -296l-144 1l-106 273h-76l-48 -274h-132l129 732h197q104 0 160.5 -52.5t56.5 -139.5q0 -21 -5 -51q-12 -70 -51.5 -119.5zM409 492q0 45 -28 67.5t-76 22.5h-57l-40 -226h64q54 0 89.5 26
t45.5 82q2 10 2 28z" />
    <glyph glyph-name="racute" unicode="&#x155;" horiz-adv-x="374" 
d="M195 549l88 165h124l-114 -165h-98zM376.5 485q21.5 -12 30.5 -30l-71 -106q-19 26 -52 26q-40 0 -70.5 -37.5t-43.5 -110.5l-46 -261h-128l92 518h113l-2 -21q-4 -31 -5 -49q26 41 60.5 62t71.5 21q29 0 50.5 -12z" />
    <glyph glyph-name="uni0156" unicode="&#x156;" horiz-adv-x="558" 
d="M493.5 335.5q-39.5 -49.5 -101.5 -73.5l121 -296l-144 1l-106 273h-76l-48 -274h-132l129 732h197q104 0 160.5 -52.5t56.5 -139.5q0 -21 -5 -51q-12 -70 -51.5 -119.5zM409 492q0 45 -28 67.5t-76 22.5h-57l-40 -226h64q54 0 89.5 26t45.5 82q2 10 2 28zM295.5 -86
q19.5 -19 19.5 -54q0 -6 -2 -24q-10 -57 -55.5 -89t-121.5 -35l10 57q65 10 81 42h-4q-29 0 -46 14t-17 37q0 33 24 52t58 19t53.5 -19z" />
    <glyph glyph-name="uni0157" unicode="&#x157;" horiz-adv-x="374" 
d="M376.5 485q21.5 -12 30.5 -30l-71 -106q-19 26 -52 26q-40 0 -70.5 -37.5t-43.5 -110.5l-46 -261h-128l92 518h113l-2 -21q-4 -31 -5 -49q26 41 60.5 62t71.5 21q29 0 50.5 -12zM102 -85.5q20 -18.5 20 -53.5q0 -12 -3 -25q-10 -57 -55.5 -89t-121.5 -35l10 57
q65 10 81 42h-4q-29 0 -46 14t-17 37q0 33 24 52t58 19t54 -18.5z" />
    <glyph glyph-name="Rcaron" unicode="&#x158;" horiz-adv-x="558" 
d="M517 915l-139 -150h-88l-83 150h101l38 -73l64 73h107zM493.5 335.5q-39.5 -49.5 -101.5 -73.5l121 -296l-144 1l-106 273h-76l-48 -274h-132l129 732h197q104 0 160.5 -52.5t56.5 -139.5q0 -21 -5 -51q-12 -70 -51.5 -119.5zM409 492q0 45 -28 67.5t-76 22.5h-57
l-40 -226h64q54 0 89.5 26t45.5 82q2 10 2 28z" />
    <glyph glyph-name="rcaron" unicode="&#x159;" horiz-adv-x="374" 
d="M227 714l36 -80l61 80h110l-140 -165h-88l-82 165h103zM376.5 485q21.5 -12 30.5 -30l-71 -106q-19 26 -52 26q-40 0 -70.5 -37.5t-43.5 -110.5l-46 -261h-128l92 518h113l-2 -21q-4 -31 -5 -49q26 41 60.5 62t71.5 21q29 0 50.5 -12z" />
    <glyph glyph-name="Sacute" unicode="&#x15a;" horiz-adv-x="485" 
d="M292 766l87 150h123l-112 -150h-98zM373 7q-63 -53 -163 -53q-96 0 -157.5 50t-68.5 141l118 60q8 -64 39.5 -96t78.5 -32q43 0 67 27q15 20 19 47q2 14 2 21q0 40 -25.5 67t-77.5 62q-43 29 -69.5 52t-45 57t-18.5 80q0 22 4 42q16 89 83 137q61 42 148 42
q61 0 105.5 -22t68 -59.5t25.5 -83.5l-117 -59q-16 101 -92 101q-35 0 -56 -18q-28 -23 -28 -65q0 -34 23 -57.5t73 -55.5q45 -30 72.5 -53.5t47.5 -60.5t20 -88q0 -19 -5 -49q-17 -87 -71 -134z" />
    <glyph glyph-name="sacute" unicode="&#x15b;" horiz-adv-x="385" 
d="M188 551l88 165h125l-114 -165h-99zM284 -6q-50 -40 -131 -40q-74 0 -121 39t-54 107l102 51q4 -45 24.5 -67t51.5 -22q26 0 41 14t15 38q0 23 -17 39t-53 39q-33 21 -53.5 37t-35 41.5t-14.5 59.5q0 41 16.5 74.5t44.5 54.5q50 38 125 38q74 0 116 -38.5t45 -94.5
l-102 -50q-4 35 -20.5 55.5t-43.5 20.5q-22 0 -36 -12t-14 -33t16 -36t51 -36q34 -22 55 -39t36.5 -43.5t15.5 -62.5q0 -15 -3 -32q-10 -63 -57 -102z" />
    <glyph glyph-name="Scircumflex" unicode="&#x15c;" horiz-adv-x="485" 
d="M319 916h88l83 -151h-101l-38 74l-63 -74h-108zM373 7q-63 -53 -163 -53q-96 0 -157.5 50t-68.5 141l118 60q8 -64 39.5 -96t78.5 -32q43 0 67 27q15 20 19 47q2 14 2 21q0 40 -25.5 67t-77.5 62q-43 29 -69.5 52t-45 57t-18.5 80q0 22 4 42q16 89 83 137q61 42 148 42
q61 0 105.5 -22t68 -59.5t25.5 -83.5l-117 -59q-16 101 -92 101q-35 0 -56 -18q-28 -23 -28 -65q0 -34 23 -57.5t73 -55.5q45 -30 72.5 -53.5t47.5 -60.5t20 -88q0 -19 -5 -49q-17 -87 -71 -134z" />
    <glyph glyph-name="scircumflex" unicode="&#x15d;" horiz-adv-x="385" 
d="M223 716h88l82 -165h-103l-36 80l-61 -80h-110zM284 -6q-50 -40 -131 -40q-74 0 -121 39t-54 107l102 51q4 -45 24.5 -67t51.5 -22q26 0 41 14t15 38q0 23 -17 39t-53 39q-33 21 -53.5 37t-35 41.5t-14.5 59.5q0 41 16.5 74.5t44.5 54.5q50 38 125 38q74 0 116 -38.5
t45 -94.5l-102 -50q-4 35 -20.5 55.5t-43.5 20.5q-22 0 -36 -12t-14 -33t16 -36t51 -36q34 -22 55 -39t36.5 -43.5t15.5 -62.5q0 -15 -3 -32q-10 -63 -57 -102z" />
    <glyph glyph-name="Scedilla" unicode="&#x15e;" horiz-adv-x="485" 
d="M236 447.5q23 -23.5 73 -55.5q45 -30 72.5 -53.5t47.5 -60.5t20 -88q0 -19 -5 -49q-17 -87 -71 -134q-52 -45 -130 -51l-30 -58q34 -8 53.5 -30t19.5 -54q0 -10 -1 -16q-8 -44 -44.5 -65t-86.5 -21q-39 0 -78 13l12 70q31 -11 58 -11q19 0 30.5 7t11.5 20
q0 12 -13.5 18.5t-36.5 6.5q-8 0 -26 -2v47l40 78q-72 14 -116.5 62t-51.5 124l118 60q8 -64 39.5 -96t78.5 -32q43 0 67 27q15 20 19 47q2 14 2 21q0 40 -25.5 67t-77.5 62q-43 29 -69.5 52t-45 57t-18.5 80q0 22 4 42q16 89 83 137q61 42 148 42q61 0 105.5 -22t68 -59.5
t25.5 -83.5l-117 -59q-16 101 -92 101q-35 0 -56 -18q-28 -23 -28 -65q0 -34 23 -57.5z" />
    <glyph glyph-name="scedilla" unicode="&#x15f;" horiz-adv-x="385" 
d="M186 309q16 -15 51 -36q34 -22 55 -39t36.5 -43.5t15.5 -62.5q0 -15 -3 -32q-10 -63 -57 -102q-40 -31 -101 -39l-29 -55q34 -7 53.5 -29.5t19.5 -54.5q0 -10 -1 -16q-8 -44 -44.5 -65t-86.5 -21q-39 0 -78 13l12 70q33 -10 58 -10q42 0 42 27q0 12 -12.5 18t-34.5 6
q-19 0 -29 -2v48l41 78q-50 14 -80.5 49.5t-35.5 88.5l102 51q4 -45 24.5 -67t51.5 -22q26 0 41 14t15 38q0 23 -17 39t-53 39q-33 21 -53.5 37t-35 41.5t-14.5 59.5q0 41 16.5 74.5t44.5 54.5q50 38 125 38q74 0 116 -38.5t45 -94.5l-102 -50q-4 35 -20.5 55.5t-43.5 20.5
q-22 0 -36 -12t-14 -33t16 -36z" />
    <glyph glyph-name="Scaron" unicode="&#x160;" horiz-adv-x="485" 
d="M309 916l38 -74l63 74h108l-139 -151h-89l-82 151h101zM373 7q-63 -53 -163 -53q-96 0 -157.5 50t-68.5 141l118 60q8 -64 39.5 -96t78.5 -32q43 0 67 27q15 20 19 47q2 14 2 21q0 40 -25.5 67t-77.5 62q-43 29 -69.5 52t-45 57t-18.5 80q0 22 4 42q16 89 83 137
q61 42 148 42q61 0 105.5 -22t68 -59.5t25.5 -83.5l-117 -59q-16 101 -92 101q-35 0 -56 -18q-28 -23 -28 -65q0 -34 23 -57.5t73 -55.5q45 -30 72.5 -53.5t47.5 -60.5t20 -88q0 -19 -5 -49q-17 -87 -71 -134z" />
    <glyph glyph-name="scaron" unicode="&#x161;" horiz-adv-x="385" 
d="M220 716l36 -79l62 79h109l-139 -165h-89l-82 165h103zM284 -6q-50 -40 -131 -40q-74 0 -121 39t-54 107l102 51q4 -45 24.5 -67t51.5 -22q26 0 41 14t15 38q0 23 -17 39t-53 39q-33 21 -53.5 37t-35 41.5t-14.5 59.5q0 41 16.5 74.5t44.5 54.5q50 38 125 38
q74 0 116 -38.5t45 -94.5l-102 -50q-4 35 -20.5 55.5t-43.5 20.5q-22 0 -36 -12t-14 -33t16 -36t51 -36q34 -22 55 -39t36.5 -43.5t15.5 -62.5q0 -15 -3 -32q-10 -63 -57 -102z" />
    <glyph glyph-name="uni0162" unicode="&#x162;" horiz-adv-x="508" 
d="M63 578l21 120h489l-21 -120h-177l-108 -612h-17l-36 -68q34 -8 53.5 -30t19.5 -54q0 -10 -1 -16q-8 -44 -45 -65t-86 -21q-38 0 -79 13l13 70q30 -11 57 -11q19 0 31 7t12 20q0 12 -13.5 18.5t-36.5 6.5q-7 0 -27 -2v47l46 85h-25l108 612h-178z" />
    <glyph glyph-name="uni0163" unicode="&#x163;" horiz-adv-x="361" 
d="M354 375h-128l-35 -197q-6 -28 -6 -51q0 -59 49 -59q27 0 57 21l29 -99q-46 -34 -114 -36l-29 -56q33 -7 53.5 -29t20.5 -53q0 -5 -2 -17q-8 -44 -44 -65t-86 -21q-41 0 -79 12l13 70q32 -10 57 -10q42 0 42 28q0 11 -13 17t-34 6q-18 0 -29 -2v48l46 87q-68 32 -68 130
q0 29 6 63l37 213h-75l19 110h75l28 155h128l-27 -155h128z" />
    <glyph glyph-name="Tcaron" unicode="&#x164;" horiz-adv-x="506" 
d="M314 916l38 -74l63 74h108l-139 -151h-88l-83 151h101zM84 698h489l-21 -120h-177l-108 -612h-134l108 612h-178z" />
    <glyph glyph-name="tcaron" unicode="&#x165;" horiz-adv-x="368" 
d="M474.5 803q19.5 -20 19.5 -59q0 -13 -3 -30q-12 -70 -63.5 -116t-122.5 -56l12 68q32 6 52.5 19.5t31.5 37.5h-5q-27 1 -44 18.5t-17 43.5q0 38 26.5 66t62.5 28q31 0 50.5 -20zM354 375h-128l-35 -197q-6 -28 -6 -51q0 -59 49 -59q27 0 57 21l29 -99q-49 -36 -122 -36
q-65 0 -104.5 33.5t-39.5 110.5q0 28 6 64l37 213h-75l19 110h75l28 155h128l-27 -155h128z" />
    <glyph glyph-name="Tbar" unicode="&#x166;" horiz-adv-x="506" 
d="M84 698h489l-21 -120h-177l-35 -196h117l-22 -124h-117l-51 -292h-134l51 292h-117l23 124h116l35 196h-178z" />
    <glyph glyph-name="tbar" unicode="&#x167;" horiz-adv-x="361" 
d="M355 381h-129l-16 -91h133l-19 -107h-133q-6 -31 -6 -55q0 -30 11.5 -45.5t37.5 -15.5q29 0 57 21l29 -98q-49 -36 -122 -36q-65 0 -105 34t-40 112q0 28 6 62l4 21h-75l18 107h76l16 91h-75l18 104h75l28 155h128l-27 -155h128z" />
    <glyph glyph-name="Utilde" unicode="&#x168;" horiz-adv-x="625" 
d="M243 778q30 138 110 138q20 0 35 -9t35 -25q22 -20 34 -20t19.5 12.5t14.5 36.5h83q-15 -67 -43.5 -102t-65.5 -35q-21 0 -36 8.5t-33 24.5q-22 20 -34 20q-24 0 -35 -49h-84zM511 698h134l-81 -466q-25 -147 -99.5 -212.5t-192.5 -65.5q-111 0 -168 56.5t-57 167.5
q0 44 9 95l73 425h135l-71 -405q-9 -51 -9 -89q0 -65 25.5 -95.5t77.5 -30.5q56 0 93.5 42t55.5 150z" />
    <glyph glyph-name="utilde" unicode="&#x169;" horiz-adv-x="499" 
d="M141 564q30 138 110 138q20 0 35 -9t35 -25q22 -20 34 -20t19.5 12.5t14.5 37.5h83q-15 -67 -43.5 -102.5t-65.5 -35.5q-21 0 -36 8.5t-33 24.5q-22 20 -34 20q-24 0 -35 -49h-84zM52 -7q-32 39 -32 113q0 34 8 80l53 299h128l-49 -279q-6 -33 -6 -59q0 -71 52 -71
q35 0 63 30t39 93l51 286h128l-92 -519h-113l7 67q-56 -79 -144 -79q-61 0 -93 39z" />
    <glyph glyph-name="Umacron" unicode="&#x16a;" horiz-adv-x="625" 
d="M277 797l17 95h256l-17 -95h-256zM511 698h134l-81 -466q-25 -147 -99.5 -212.5t-192.5 -65.5q-111 0 -168 56.5t-57 167.5q0 44 9 95l73 425h135l-71 -405q-9 -51 -9 -89q0 -65 25.5 -95.5t77.5 -30.5q56 0 93.5 42t55.5 150z" />
    <glyph glyph-name="umacron" unicode="&#x16b;" horiz-adv-x="499" 
d="M174 583l17 95h256l-17 -95h-256zM52 -7q-32 39 -32 113q0 34 8 80l53 299h128l-49 -279q-6 -33 -6 -59q0 -71 52 -71q35 0 63 30t39 93l51 286h128l-92 -519h-113l7 67q-56 -79 -144 -79q-61 0 -93 39z" />
    <glyph glyph-name="Ubreve" unicode="&#x16c;" horiz-adv-x="625" 
d="M310 798q-34 34 -34 88q0 19 2 29h98q-1 -5 -1 -15q0 -24 10 -37.5t27 -13.5q22 0 33 17t16 49h103q-10 -72 -49.5 -111.5t-111.5 -39.5q-59 0 -93 34zM511 698h134l-81 -466q-25 -147 -99.5 -212.5t-192.5 -65.5q-111 0 -168 56.5t-57 167.5q0 44 9 95l73 425h135
l-71 -405q-9 -51 -9 -89q0 -65 25.5 -95.5t77.5 -30.5q56 0 93.5 42t55.5 150z" />
    <glyph glyph-name="ubreve" unicode="&#x16d;" horiz-adv-x="499" 
d="M209.5 583.5q-33.5 34.5 -33.5 94.5q0 18 3 36h97q-2 -18 -2 -24q0 -27 9.5 -41t26.5 -14q22 0 33.5 19.5t17.5 59.5h102q-11 -80 -51.5 -122.5t-110.5 -42.5q-58 0 -91.5 34.5zM52 -7q-32 39 -32 113q0 34 8 80l53 299h128l-49 -279q-6 -33 -6 -59q0 -71 52 -71
q35 0 63 30t39 93l51 286h128l-92 -519h-113l7 67q-56 -79 -144 -79q-61 0 -93 39z" />
    <glyph glyph-name="Uring" unicode="&#x16e;" horiz-adv-x="625" 
d="M333 954q35 34 86 34q52 0 85 -33.5t33 -85.5t-33.5 -85.5t-84.5 -33.5t-86 33.5t-35 85.5q0 51 35 85zM385.5 834q12.5 -14 33.5 -14q20 0 32 14t12 35q0 22 -12 35t-32 13t-33 -13.5t-13 -34.5t12.5 -35zM511 698h134l-81 -466q-25 -147 -99.5 -212.5t-192.5 -65.5
q-111 0 -168 56.5t-57 167.5q0 44 9 95l73 425h135l-71 -405q-9 -51 -9 -89q0 -65 25.5 -95.5t77.5 -30.5q56 0 93.5 42t55.5 150z" />
    <glyph glyph-name="uring" unicode="&#x16f;" horiz-adv-x="499" 
d="M213 741q35 34 86 34t84.5 -33.5t33.5 -85.5q0 -51 -34 -84.5t-84 -33.5q-51 0 -86 33t-35 85q0 51 35 85zM265.5 621.5q12.5 -13.5 33.5 -13.5q20 0 32 13.5t12 34.5q0 22 -12 35.5t-32 13.5q-21 0 -33.5 -13.5t-12.5 -35.5q0 -21 12.5 -34.5zM52 -7q-32 39 -32 113
q0 34 8 80l53 299h128l-49 -279q-6 -33 -6 -59q0 -71 52 -71q35 0 63 30t39 93l51 286h128l-92 -519h-113l7 67q-56 -79 -144 -79q-61 0 -93 39z" />
    <glyph glyph-name="Uhungarumlaut" unicode="&#x170;" horiz-adv-x="625" 
d="M272 765l90 150h123l-122 -150h-91zM433 765l90 150h123l-122 -150h-91zM511 698h134l-81 -466q-25 -147 -99.5 -212.5t-192.5 -65.5q-111 0 -168 56.5t-57 167.5q0 44 9 95l73 425h135l-71 -405q-9 -51 -9 -89q0 -65 25.5 -95.5t77.5 -30.5q56 0 93.5 42t55.5 150z" />
    <glyph glyph-name="uhungarumlaut" unicode="&#x171;" horiz-adv-x="499" 
d="M169 550l93 165h122l-124 -165h-91zM330 550l92 165h123l-124 -165h-91zM52 -7q-32 39 -32 113q0 34 8 80l53 299h128l-49 -279q-6 -33 -6 -59q0 -71 52 -71q35 0 63 30t39 93l51 286h128l-92 -519h-113l7 67q-56 -79 -144 -79q-61 0 -93 39z" />
    <glyph glyph-name="Uogonek" unicode="&#x172;" horiz-adv-x="625" 
d="M511 698h134l-81 -466q-27 -162 -119 -228q-96 -82 -111 -155q-2 -12 -2 -17q0 -18 8 -26.5t22 -8.5q25 0 55 27l39 -61q-52 -51 -116 -51q-48 0 -78 27.5t-30 76.5q0 14 3 29q6 31 19.5 57t36.5 52h-19q-111 0 -168 56.5t-57 167.5q0 44 9 95l73 425h135l-71 -405
q-9 -51 -9 -89q0 -65 25.5 -95.5t77.5 -30.5q56 0 93.5 42t55.5 150z" />
    <glyph glyph-name="uogonek" unicode="&#x173;" horiz-adv-x="499" 
d="M378 -172l36 -57q-29 -31 -57 -45t-59 -14q-46 0 -77 27t-31 75q0 86 93 160q6 50 6 59q-56 -79 -144 -79q-61 0 -93 39t-32 113q0 34 8 80l53 299h128l-49 -279q-6 -33 -6 -59q0 -71 52 -71q35 0 63 30t39 93l51 286h128l-92 -519q-92 -66 -104 -124q-1 -4 -1 -11
q0 -17 8.5 -25.5t23.5 -8.5q25 0 56 31z" />
    <glyph glyph-name="Wcircumflex" unicode="&#x174;" horiz-adv-x="868" 
d="M505 915h88l83 -150h-101l-38 73l-63 -73h-108zM567 698l30 -500l199 500h139l-320 -732h-114l-38 466l-200 -466h-114l-65 732h138l27 -500l202 500h116z" />
    <glyph glyph-name="wcircumflex" unicode="&#x175;" horiz-adv-x="703" 
d="M382 715h88l83 -165h-103l-36 80l-62 -80h-109zM441 484l28 -320l138 320h132l-251 -517h-95l-42 293l-141 -293h-97l-73 517h129l28 -326l139 326h105z" />
    <glyph glyph-name="Ycircumflex" unicode="&#x176;" horiz-adv-x="564" 
d="M355 916h89l82 -151h-101l-38 74l-63 -74h-108zM307 397l181 301h147l-283 -443l-52 -289h-136l52 291l-137 441h150z" />
    <glyph glyph-name="ycircumflex" unicode="&#x177;" horiz-adv-x="478" 
d="M269 715h88l82 -165h-103l-36 80l-61 -80h-110zM221 146l161 338h132l-294 -588q-47 -94 -96.5 -138.5t-124.5 -44.5q-35 0 -63.5 10.5t-46.5 29.5l64 101q22 -24 54 -24q28 0 50.5 22t54.5 82l20 37l-93 513h135z" />
    <glyph glyph-name="Ydieresis" unicode="&#x178;" horiz-adv-x="564" 
d="M239 791q-22 23 -22 54q0 32 21.5 54.5t52.5 22.5t53 -22.5t22 -54.5q0 -31 -22 -54t-53 -23q-30 0 -52 23zM425.5 791q-21.5 23 -21.5 54q0 32 21.5 54.5t52.5 22.5t53 -22.5t22 -54.5q0 -31 -22 -54t-53 -23t-52.5 23zM307 397l181 301h147l-283 -443l-52 -289h-136
l52 291l-137 441h150z" />
    <glyph glyph-name="Zacute" unicode="&#x179;" horiz-adv-x="484" 
d="M293 766l86 149h124l-112 -149h-98zM94 578l21 120h419l-14 -79l-363 -532h283l-23 -121h-456l15 80l363 532h-245z" />
    <glyph glyph-name="zacute" unicode="&#x17a;" horiz-adv-x="369" 
d="M184 550l88 165h124l-114 -165h-98zM62 484h327l-13 -77l-244 -335h198l-19 -106h-356l14 78l244 335h-170z" />
    <glyph glyph-name="Zdotaccent" unicode="&#x17b;" horiz-adv-x="484" 
d="M291 785q-24 25 -24 60t24 60t58 25q35 0 59.5 -25t24.5 -60t-24.5 -60t-59.5 -25q-34 0 -58 25zM94 578l21 120h419l-14 -79l-363 -532h283l-23 -121h-456l15 80l363 532h-245z" />
    <glyph glyph-name="zdotaccent" unicode="&#x17c;" horiz-adv-x="369" 
d="M183.5 575.5q-24.5 25.5 -24.5 59.5q0 35 24 60t58 25q35 0 59.5 -25t24.5 -60q0 -34 -24.5 -59.5t-59.5 -25.5q-33 0 -57.5 25.5zM62 484h327l-13 -77l-244 -335h198l-19 -106h-356l14 78l244 335h-170z" />
    <glyph glyph-name="Zcaron" unicode="&#x17d;" horiz-adv-x="484" 
d="M310 915l37 -73l64 73h108l-140 -150h-88l-83 150h102zM94 578l21 120h419l-14 -79l-363 -532h283l-23 -121h-456l15 80l363 532h-245z" />
    <glyph glyph-name="zcaron" unicode="&#x17e;" horiz-adv-x="369" 
d="M216 715l36 -80l61 80h110l-140 -165h-88l-82 165h103zM62 484h327l-13 -77l-244 -335h198l-19 -106h-356l14 78l244 335h-170z" />
    <glyph glyph-name="longs" unicode="&#x17f;" horiz-adv-x="316" 
d="M401 725q30 -14 45 -36l-64 -93q-13 15 -25.5 22t-28.5 7q-31 0 -49.5 -26t-27.5 -81l-104 -588q-21 -114 -66 -166t-120 -52q-76 0 -117 46l66 99q21 -18 41 -18q28 0 44.5 27.5t28.5 93.5l73 414h-70l20 110h69l9 49q19 109 73.5 157.5t130.5 48.5q42 0 72 -14z" />
    <glyph glyph-name="uni018F" unicode="&#x18f;" horiz-adv-x="591" 
d="M516 637.5q57 -73.5 57 -205.5q0 -60 -12 -131q-32 -177 -117 -262t-206 -85q-100 0 -159 51.5t-59 145.5q0 73 35.5 126.5t102.5 82.5t159 29q55 0 112 -10q3 29 3 52q0 76 -26 116t-75 40q-38 0 -72.5 -26t-62.5 -78l-98 71q44 84 110.5 120.5t139.5 36.5
q111 0 168 -73.5zM348 122.5q39 44.5 60 135.5q-54 8 -92 8q-78 0 -117.5 -27.5t-39.5 -78.5q0 -41 24 -61.5t66 -20.5q60 0 99 44.5z" />
    <glyph glyph-name="florin" unicode="&#x192;" 
d="M547.5 691.5q31.5 -19.5 45.5 -47.5l-75 -89q-19 39 -55 39q-29 0 -48.5 -23.5t-38.5 -86.5h126l-21 -116h-139l-59 -195q-35 -116 -88.5 -167.5t-128.5 -51.5q-49 0 -83 18t-48 44l72 90q25 -35 59 -35q29 0 48.5 26t41.5 98l51 173h-93l21 116h106l2 6q35 125 91 173
t129 48q53 0 84.5 -19.5z" />
    <glyph glyph-name="Ohorn" unicode="&#x1a0;" horiz-adv-x="635" 
d="M708 826q0 -31 -6 -69q-13 -76 -44 -109.5t-91 -39.5q51 -65 51 -180q0 -53 -12 -119q-33 -186 -120.5 -270.5t-206.5 -84.5q-113 0 -176 72.5t-63 208.5q0 56 12 122q33 185 121.5 269.5t216.5 84.5q35 0 85 -8q9 -1 26 -3t28 -2q28 0 43 14.5t22 55.5q6 34 4 58h110z
M475 427q0 79 -27.5 119.5t-82.5 40.5q-63 0 -107 -56.5t-66 -184.5q-11 -64 -11 -110q0 -78 29 -118t83 -40q63 0 106 55t66 185q10 59 10 109z" />
    <glyph glyph-name="ohorn" unicode="&#x1a1;" horiz-adv-x="518" 
d="M571 612q0 -38 -6 -70q-13 -75 -44.5 -108.5t-82.5 -39.5q23 -41 23 -106q0 -35 -8 -83q-23 -135 -92 -193t-157 -58t-139 53t-51 154q0 35 8 83q24 135 94.5 194t166.5 59q26 0 51 -3.5t32 -4.5q27 -5 39 -5q18 0 31 13.5t20 51.5q6 38 6 63h109zM329 286q0 96 -68 96
q-37 0 -65.5 -33.5t-43.5 -117.5q-6 -37 -6 -65q0 -50 18 -73.5t50 -23.5q81 0 108 148q7 36 7 69z" />
    <glyph glyph-name="Uhorn" unicode="&#x1af;" horiz-adv-x="625" 
d="M788 826q1 -6 1 -18q0 -22 -6 -51q-13 -78 -49.5 -111.5t-104.5 -38.5l-65 -375q-25 -147 -99.5 -212.5t-192.5 -65.5q-111 0 -168 56.5t-57 167.5q0 44 9 95l73 425h135l-71 -405q-9 -51 -9 -89q0 -65 25.5 -95.5t77.5 -30.5q56 0 93.5 42t55.5 150l75 428h71
q41 0 60.5 12.5t26.5 53.5q4 24 4 62h115z" />
    <glyph glyph-name="uhorn" unicode="&#x1b0;" horiz-adv-x="553" 
d="M630 612q1 -6 1 -18q0 -23 -6 -52q-13 -77 -49.5 -111t-104.5 -39l-76 -426h-113l7 67q-56 -79 -144 -79q-61 0 -93 39t-32 113q0 34 8 80l53 299h128l-49 -279q-6 -33 -6 -59q0 -71 52 -71q35 0 63 30t39 93l51 286h90q27 2 41.5 16.5t20.5 48.5q4 24 4 62h115z" />
    <glyph glyph-name="uni01CD" unicode="&#x1cd;" horiz-adv-x="624" 
d="M370 915l38 -73l63 73h108l-139 -150h-88l-83 150h101zM449 698l113 -732h-143l-20 167h-222l-78 -167h-145l367 732h128zM385 254l-31 264l-122 -264h153z" />
    <glyph glyph-name="uni01CE" unicode="&#x1ce;" horiz-adv-x="519" 
d="M287 714l36 -80l62 80h109l-140 -165h-88l-82 165h103zM506 484l-92 -518h-114q6 40 7 64q-28 -40 -64.5 -58t-76.5 -18q-70 0 -111 51.5t-41 147.5q0 47 8 91q24 133 87 193t143 60q95 0 122 -85q10 34 18 72h114zM288.5 105.5q28.5 36.5 43.5 117.5q6 35 6 60
q0 52 -20 75.5t-53 23.5q-86 0 -113 -150q-6 -34 -6 -62q0 -50 18.5 -75.5t53.5 -25.5q42 0 70.5 36.5z" />
    <glyph glyph-name="uni01CF" unicode="&#x1cf;" horiz-adv-x="256" 
d="M189 916l38 -74l63 74h108l-139 -151h-89l-82 151h101zM141 -34h-134l129 732h134z" />
    <glyph glyph-name="uni01D0" unicode="&#x1d0;" horiz-adv-x="231" 
d="M142 714l37 -79l61 79h109l-139 -165h-88l-83 165h103zM-1 -34l92 518h128l-92 -518h-128z" />
    <glyph glyph-name="uni01D1" unicode="&#x1d1;" horiz-adv-x="635" 
d="M378 915l38 -73l63 73h108l-139 -150h-88l-83 150h101zM171.5 626q86.5 85 205.5 85q112 0 176 -73t64 -209q0 -61 -11 -120q-33 -186 -120.5 -270.5t-206.5 -84.5q-113 0 -176 72.5t-63 208.5q0 56 12 122q33 184 119.5 269zM181 235q0 -78 28.5 -117.5t83.5 -39.5
q63 0 106.5 55t66.5 185q10 59 10 109q0 79 -27.5 119.5t-82.5 40.5q-64 0 -108 -56.5t-66 -184.5q-11 -66 -11 -111z" />
    <glyph glyph-name="uni01D2" unicode="&#x1d2;" horiz-adv-x="491" 
d="M271 714l36 -80l62 80h109l-139 -165h-88l-83 165h103zM115 437.5q69 59.5 158 59.5q86 0 137 -53t51 -155q0 -36 -8 -84q-23 -135 -92 -193t-157 -58t-139 53t-51 154q0 35 8 83q24 134 93 193.5zM146 165q0 -96 69 -96q82 0 107 148q7 38 7 70q0 95 -68 95
q-82 0 -108 -151q-7 -35 -7 -66z" />
    <glyph glyph-name="uni01D3" unicode="&#x1d3;" horiz-adv-x="625" 
d="M373 915l38 -73l63 73h108l-139 -150h-88l-83 150h101zM511 698h134l-81 -466q-25 -147 -99.5 -212.5t-192.5 -65.5q-111 0 -168 56.5t-57 167.5q0 44 9 95l73 425h135l-71 -405q-9 -51 -9 -89q0 -65 25.5 -95.5t77.5 -30.5q56 0 93.5 42t55.5 150z" />
    <glyph glyph-name="uni01D4" unicode="&#x1d4;" horiz-adv-x="499" 
d="M273 715l36 -80l61 80h110l-140 -165h-88l-82 165h103zM52 -7q-32 39 -32 113q0 34 8 80l53 299h128l-49 -279q-6 -33 -6 -59q0 -71 52 -71q35 0 63 30t39 93l51 286h128l-92 -519h-113l7 67q-56 -79 -144 -79q-61 0 -93 39z" />
    <glyph glyph-name="uni01D5" unicode="&#x1d5;" horiz-adv-x="625" 
d="M293 887l11 65h256l-11 -65h-256zM258.5 757.5q-21.5 17.5 -21.5 41.5t21.5 41.5t52.5 17.5q32 0 54 -17.5t22 -41.5t-22 -41.5t-54 -17.5q-31 0 -52.5 17.5zM444 757.5q-22 17.5 -22 41.5t22 41.5t53 17.5t53 -17.5t22 -41.5t-22 -41.5t-53 -17.5t-53 17.5zM511 698h134
l-81 -466q-25 -147 -99.5 -212.5t-192.5 -65.5q-111 0 -168 56.5t-57 167.5q0 44 9 95l73 425h135l-71 -405q-9 -52 -9 -90q0 -64 25.5 -94.5t77.5 -30.5q56 0 93 42t56 150z" />
    <glyph glyph-name="uni01D6" unicode="&#x1d6;" horiz-adv-x="499" 
d="M206 762l17 95h256l-18 -95h-255zM159 579q-22 23 -22 53q0 32 21.5 54.5t52.5 22.5t53 -22.5t22 -54.5q0 -30 -22 -53t-53 -23q-30 0 -52 23zM358 579q-22 23 -22 53q0 32 21.5 54.5t52.5 22.5t53.5 -22.5t22.5 -54.5q0 -30 -22.5 -53t-53.5 -23q-30 0 -52 23zM52 -7
q-32 39 -32 113q0 34 8 80l53 299h128l-49 -279q-6 -33 -6 -59q0 -71 52 -71q35 0 63 30t39 93l51 286h128l-92 -519h-113l7 67q-56 -79 -144 -79q-61 0 -93 39z" />
    <glyph glyph-name="uni01D7" unicode="&#x1d7;" horiz-adv-x="625" 
d="M363 876l100 88h134l-131 -88h-103zM258.5 757.5q-21.5 17.5 -21.5 41.5t21.5 41.5t52.5 17.5q32 0 54 -17.5t22 -41.5t-22 -41.5t-54 -17.5q-31 0 -52.5 17.5zM444 757.5q-22 17.5 -22 41.5t22 41.5t53 17.5t53 -17.5t22 -41.5t-22 -41.5t-53 -17.5t-53 17.5zM511 698
h134l-81 -466q-25 -147 -99.5 -212.5t-192.5 -65.5q-111 0 -168 56.5t-57 167.5q0 44 9 95l73 425h135l-71 -405q-9 -52 -9 -90q0 -64 25.5 -94.5t77.5 -30.5q56 0 93 42t56 150z" />
    <glyph glyph-name="uni01D8" unicode="&#x1d8;" horiz-adv-x="499" 
d="M274 739l88 142h125l-111 -142h-102zM159 579q-22 23 -22 53q0 32 21.5 54.5t52.5 22.5t53 -22.5t22 -54.5q0 -30 -22 -53t-53 -23q-30 0 -52 23zM358 579q-22 23 -22 53q0 32 21.5 54.5t52.5 22.5t53.5 -22.5t22.5 -54.5q0 -30 -22.5 -53t-53.5 -23q-30 0 -52 23zM52 -7
q-32 39 -32 113q0 34 8 80l53 299h128l-49 -279q-6 -33 -6 -59q0 -71 52 -71q35 0 63 30t39 93l51 286h128l-92 -519h-113l7 67q-56 -79 -144 -79q-61 0 -93 39z" />
    <glyph glyph-name="uni01D9" unicode="&#x1d9;" horiz-adv-x="625" 
d="M383 964l30 -32l41 32h120l-126 -89h-88l-96 89h119zM258.5 757.5q-21.5 17.5 -21.5 41.5t21.5 41.5t52.5 17.5q32 0 54 -17.5t22 -41.5t-22 -41.5t-54 -17.5q-31 0 -52.5 17.5zM444 757.5q-22 17.5 -22 41.5t22 41.5t53 17.5t53 -17.5t22 -41.5t-22 -41.5t-53 -17.5
t-53 17.5zM511 698h134l-81 -466q-25 -147 -99.5 -212.5t-192.5 -65.5q-111 0 -168 56.5t-57 167.5q0 44 9 95l73 425h135l-71 -405q-9 -52 -9 -90q0 -64 25.5 -94.5t77.5 -30.5q56 0 93 42t56 150z" />
    <glyph glyph-name="uni01DA" unicode="&#x1da;" horiz-adv-x="499" 
d="M310 881l33 -62l56 62h110l-136 -142h-88l-86 142h111zM159 579q-22 23 -22 53q0 32 21.5 54.5t52.5 22.5t53 -22.5t22 -54.5q0 -30 -22 -53t-53 -23q-30 0 -52 23zM358 579q-22 23 -22 53q0 32 21.5 54.5t52.5 22.5t53.5 -22.5t22.5 -54.5q0 -30 -22.5 -53t-53.5 -23
q-30 0 -52 23zM52 -7q-32 39 -32 113q0 34 8 80l53 299h128l-49 -279q-6 -33 -6 -59q0 -71 52 -71q35 0 63 30t39 93l51 286h128l-92 -519h-113l7 67q-56 -79 -144 -79q-61 0 -93 39z" />
    <glyph glyph-name="uni01DB" unicode="&#x1db;" horiz-adv-x="625" 
d="M255 964h134l69 -88h-103zM259 757.5q-22 17.5 -22 41.5t22 41.5t53 17.5t53 -17.5t22 -41.5t-22 -41.5t-53 -17.5t-53 17.5zM444 757.5q-22 17.5 -22 41.5t22 41.5t54 17.5q31 0 52.5 -17.5t21.5 -41.5t-21.5 -41.5t-52.5 -17.5q-32 0 -54 17.5zM511 698h134l-81 -466
q-25 -147 -99.5 -212.5t-192.5 -65.5q-111 0 -168 56.5t-57 167.5q0 44 9 95l73 425h135l-71 -405q-9 -52 -9 -90q0 -64 25.5 -94.5t77.5 -30.5q56 0 93 42t56 150z" />
    <glyph glyph-name="uni01DC" unicode="&#x1dc;" horiz-adv-x="499" 
d="M221 881h115l44 -142h-83zM159 579q-22 23 -22 53q0 32 21.5 54.5t52.5 22.5t53 -22.5t22 -54.5q0 -30 -22 -53t-53 -23q-30 0 -52 23zM358 579q-22 23 -22 53q0 32 21.5 54.5t52.5 22.5t53.5 -22.5t22.5 -54.5q0 -30 -22.5 -53t-53.5 -23q-30 0 -52 23zM52 -7
q-32 39 -32 113q0 34 8 80l53 299h128l-49 -279q-6 -33 -6 -59q0 -71 52 -71q35 0 63 30t39 93l51 286h128l-92 -519h-113l7 67q-56 -79 -144 -79q-61 0 -93 39z" />
    <glyph glyph-name="uni01E5" unicode="&#x1e5;" horiz-adv-x="540" 
d="M467 276h67l-19 -109h-68l-32 -182q-26 -150 -95.5 -211.5t-161.5 -61.5q-79 0 -131.5 39.5t-61.5 118.5l105 54q10 -49 33.5 -72t62.5 -23q54 0 83 42t47 144q-27 -32 -60.5 -46.5t-68.5 -14.5q-70 0 -111.5 51.5t-41.5 146.5q0 43 9 92q23 133 86 193t143 60
q95 0 122 -83q14 50 18 70h112zM337 276q3 55 -17 80.5t-54 25.5q-40 0 -69.5 -36t-43.5 -114q-6 -36 -6 -63q0 -50 18.5 -75t52.5 -25q31 0 57 22t43 76h-76l19 109h76z" />
    <glyph glyph-name="gcaron" unicode="&#x1e7;" horiz-adv-x="507" 
d="M481 714l-139 -165h-88l-83 165h103l36 -79l62 79h109zM504 484l-89 -499q-27 -150 -96 -211.5t-161 -61.5q-80 0 -132.5 39.5t-61.5 118.5l105 54q10 -49 33.5 -72t63.5 -23q52 0 81 39t45 132l2 14q-52 -60 -128 -60q-70 0 -111 51.5t-41 147.5q0 47 8 91
q24 133 87 193t143 60q94 0 122 -83l18 70h112zM337 283q0 52 -19.5 75.5t-52.5 23.5q-86 0 -113 -150q-6 -34 -6 -62q0 -50 18.5 -75.5t53.5 -25.5q38 0 68.5 33.5t44.5 117.5q6 36 6 63z" />
    <glyph glyph-name="uni01E9" unicode="&#x1e9;" horiz-adv-x="493" 
d="M182 921l34 -61l56 61h110l-136 -141h-88l-86 141h110zM366 484h147l-186 -205l110 -313h-141l-66 206l-86 -95l-19 -111h-128l134 761h128l-52 -296q-11 -64 -20.5 -112.5t-17.5 -78.5q26 35 94 118z" />
    <glyph glyph-name="uni01EF" unicode="&#x1ef;" horiz-adv-x="435" 
d="M231 715l36 -80l62 80h109l-139 -165h-89l-82 165h103zM54 485h380l-17 -97l-185 -202q64 -15 97.5 -65t33.5 -123q0 -32 -6 -66q-20 -117 -89 -168.5t-159 -51.5q-89 0 -141 47.5t-56 141.5l115 49q6 -120 91 -120q84 0 104 113q3 19 3 38q0 49 -26 76t-78 27
q-23 0 -53 -6l19 104l163 189h-215z" />
    <glyph glyph-name="uni01F0" unicode="&#x1f0;" horiz-adv-x="213" 
d="M137 714l36 -80l61 80h110l-140 -165h-88l-82 165h103zM-160 -274q-31 13 -47 34l66 97q22 -27 54 -27q30 0 47.5 25.5t28.5 89.5l95 539h130l-99 -557q-20 -116 -72.5 -165t-129.5 -49q-42 0 -73 13z" />
    <glyph glyph-name="uni01F9" unicode="&#x1f9;" horiz-adv-x="499" 
d="M178 714h120l43 -165h-88zM431 458q32 -39 32 -113q0 -34 -8 -80l-53 -299h-128l49 278q6 33 6 59q0 72 -52 72q-35 0 -63 -30t-39 -93l-51 -286h-128l92 519h113q-1 -7 -3.5 -29t-3.5 -39q55 80 144 80q61 0 93 -39z" />
    <glyph glyph-name="Aringacute" unicode="&#x1fa;" horiz-adv-x="624" 
d="M383 880l87 78h124l-112 -78h-99zM332 838q32 18 79 18t77 -18t30 -46t-31 -45.5t-77 -17.5t-78 18t-32 45q0 28 32 46zM380 777q12 -6 31 -6q18 0 29 6t11 15q0 10 -11 16t-29 6q-20 0 -31.5 -6t-11.5 -16q0 -9 12 -15zM449 698l113 -732h-143l-20 167h-222l-78 -167
h-145l367 732h128zM385 254l-31 264l-122 -264h153z" />
    <glyph glyph-name="aringacute" unicode="&#x1fb;" horiz-adv-x="519" 
d="M285 792l85 133h124l-110 -133h-99zM235 720q32 31 78 31q47 0 77.5 -30.5t30.5 -77.5t-31 -77.5t-77 -30.5t-78 30t-32 77t32 78zM282.5 610.5q11.5 -12.5 30.5 -12.5q18 0 29 12.5t11 32.5t-10.5 32t-29.5 12t-30.5 -12t-11.5 -32t11.5 -32.5zM506 484l-92 -518h-114
q6 40 7 64q-28 -40 -64.5 -58t-76.5 -18q-70 0 -111 51.5t-41 147.5q0 47 8 91q24 133 87 193t143 60q95 0 122 -85q10 34 18 72h114zM288.5 105.5q28.5 36.5 43.5 117.5q6 35 6 60q0 52 -20 75.5t-53 23.5q-86 0 -113 -150q-6 -34 -6 -62q0 -50 18.5 -75.5t53.5 -25.5
q42 0 70.5 36.5z" />
    <glyph glyph-name="AEacute" unicode="&#x1fc;" horiz-adv-x="866" 
d="M695 915h124l-112 -149h-98zM895 698l-21 -119h-259l-32 -180h232l-21 -120h-232l-34 -193h269l-22 -120h-400l31 174h-188l-120 -174h-144l512 732h429zM469 505l-168 -246h125z" />
    <glyph glyph-name="aeacute" unicode="&#x1fd;" horiz-adv-x="713" 
d="M454 714h124l-114 -165h-98zM545 83.5q23 15.5 42 49.5l85 -64q-29 -58 -82.5 -87t-112.5 -29q-51 0 -89 22.5t-59 67.5q-30 -44 -74 -66.5t-98 -22.5q-69 0 -110 37.5t-41 104.5q0 12 4 40q15 83 76 122t151 39q28 0 65 -5q1 7 1 21q0 73 -61 73q-56 0 -87 -61l-86 58
q27 56 77 85t112 29q48 0 82 -19t50 -56q63 74 164 74q75 0 115 -39t40 -106q0 -84 -57.5 -127t-170.5 -43q-31 0 -65 3q-5 -116 76 -116q30 0 53 15.5zM431 281q28 -3 52 -3q99 0 99 63q0 44 -49 44q-75 0 -102 -104zM286 198q-21 3 -40 3q-92 0 -106 -75q-2 -12 -2 -18
q0 -24 13 -36.5t35 -12.5q31 0 57.5 24.5t34.5 70.5z" />
    <glyph glyph-name="Oslashacute" unicode="&#x1fe;" horiz-adv-x="638" 
d="M361 766l86 149h124l-112 -149h-98zM558 734h121l-98 -135q37 -71 37 -170q0 -55 -12 -120q-32 -186 -119.5 -270.5t-206.5 -84.5q-81 0 -137 38l-44 -61h-121l98 137q-35 68 -35 166q0 57 12 123q33 184 119.5 269t205.5 85q80 0 136 -38zM179 247q0 -12 2 -34l253 350
q-29 24 -68 24q-65 0 -110 -56.5t-67 -184.5q-10 -62 -10 -99zM478 411q0 22 -3 41l-251 -349q25 -25 70 -25q64 0 107.5 55t66.5 185q10 49 10 93z" />
    <glyph glyph-name="oslashacute" unicode="&#x1ff;" horiz-adv-x="492" 
d="M240 549l88 165h124l-114 -165h-98zM409 519h100l-78 -103q30 -52 30 -127q0 -44 -8 -84q-23 -135 -92 -193t-157 -58q-59 0 -101 24l-35 -47h-100l77 102q-31 51 -31 127q0 36 8 84q24 134 93 193.5t158 59.5q56 0 100 -25zM136 181q0 -16 1 -23l163 216q-15 12 -39 12
q-94 0 -120 -155q-5 -24 -5 -50zM339 293l-162 -218q14 -10 37 -10q42 0 74 34.5t46 117.5q8 41 5 76z" />
    <glyph glyph-name="uni0218" unicode="&#x218;" horiz-adv-x="485" 
d="M373 7q-63 -53 -163 -53q-96 0 -157.5 50t-68.5 141l118 60q8 -64 39.5 -96t78.5 -32q43 0 67 27q15 20 19 47q2 14 2 21q0 40 -25.5 67t-77.5 62q-43 29 -69.5 52t-45 57t-18.5 80q0 22 4 42q16 89 83 137q61 42 148 42q61 0 105.5 -22t68 -59.5t25.5 -83.5l-117 -59
q-16 101 -92 101q-35 0 -56 -18q-28 -23 -28 -65q0 -34 23 -57.5t73 -55.5q45 -30 72.5 -53.5t47.5 -60.5t20 -88q0 -19 -5 -49q-17 -87 -71 -134zM254 -86q20 -19 20 -54q0 -6 -2 -24q-11 -57 -56.5 -89t-121.5 -35l10 57q64 9 82 42h-5q-28 0 -45 14t-17 37q0 33 23.5 52
t57.5 19t54 -19z" />
    <glyph glyph-name="uni0219" unicode="&#x219;" horiz-adv-x="385" 
d="M284 -6q-50 -40 -131 -40q-74 0 -121 39t-54 107l102 51q4 -45 24.5 -67t51.5 -22q26 0 41 14t15 38q0 23 -17 39t-53 39q-33 21 -53.5 37t-35 41.5t-14.5 59.5q0 41 16.5 74.5t44.5 54.5q50 38 125 38q74 0 116 -38.5t45 -94.5l-102 -50q-4 35 -20.5 55.5t-43.5 20.5
q-22 0 -36 -12t-14 -33t16 -36t51 -36q34 -22 55 -39t36.5 -43.5t15.5 -62.5q0 -15 -3 -32q-10 -63 -57 -102zM195 -83.5q20 -18.5 20 -53.5q0 -6 -2 -24q-10 -58 -56 -90t-122 -35l10 57q64 9 82 42h-5q-28 1 -45 14.5t-17 36.5q0 33 23.5 52t57.5 19t54 -18.5z" />
    <glyph glyph-name="uni021A" unicode="&#x21a;" horiz-adv-x="506" 
d="M84 698h489l-21 -120h-177l-108 -612h-134l108 612h-178zM241 -86q20 -19 20 -54q0 -6 -2 -24q-11 -57 -56.5 -89t-121.5 -35l10 57q64 9 82 42h-5q-30 0 -46.5 14t-16.5 38q0 32 24 51t58 19t54 -19z" />
    <glyph glyph-name="uni021B" unicode="&#x21b;" horiz-adv-x="361" 
d="M354 375h-128l-35 -197q-6 -28 -6 -51q0 -59 49 -59q27 0 57 21l29 -99q-49 -36 -122 -36q-65 0 -104.5 33.5t-39.5 110.5q0 28 6 64l37 213h-75l19 110h75l28 155h128l-27 -155h128zM218.5 -85.5q19.5 -18.5 19.5 -53.5q0 -6 -2 -24q-10 -57 -55.5 -89t-121.5 -36l10 57
q65 10 81 42h-4q-29 1 -46 15t-17 37q0 33 23.5 51.5t58.5 18.5q34 0 53.5 -18.5z" />
    <glyph glyph-name="uni021F" unicode="&#x21f;" horiz-adv-x="499" 
d="M183 921l34 -61l55 61h111l-136 -141h-88l-86 141h110zM431 458q32 -39 32 -113q0 -34 -8 -80l-53 -299h-128l49 278q6 33 6 60q0 71 -52 71q-36 0 -64 -31.5t-40 -96.5l-49 -281h-128l135 761h128l-52 -293q27 31 60.5 47t70.5 16q61 0 93 -39z" />
    <glyph glyph-name="uni0237" unicode="&#x237;" horiz-adv-x="213" 
d="M-160 -274q-31 13 -47 34l66 97q22 -27 54 -27q30 0 47.5 25.5t28.5 89.5l95 539h130l-99 -557q-20 -116 -72.5 -165t-129.5 -49q-42 0 -73 13z" />
    <glyph glyph-name="uni0251" unicode="&#x251;" horiz-adv-x="518" 
d="M507 484l-92 -518h-114l3 26l4 38q-28 -40 -64.5 -58t-76.5 -18q-70 0 -111.5 51.5t-41.5 146.5q0 43 9 92q23 133 86 193t143 60q95 0 123 -85l18 72h114zM289 105.5q29 36.5 43 117.5q6 35 6 60q0 52 -19.5 75.5t-52.5 23.5q-40 0 -69.5 -36t-43.5 -114q-6 -36 -6 -63
q0 -50 18.5 -75t52.5 -25q42 0 71 36.5z" />
    <glyph glyph-name="uni0259" unicode="&#x259;" horiz-adv-x="440" 
d="M151 366.5q-23 -15.5 -41 -49.5l-85 65q28 57 82 86t114 29q84 0 136 -54.5t52 -157.5q0 -39 -7 -78q-24 -132 -95 -192.5t-162 -60.5q-76 0 -116.5 38.5t-40.5 106.5q0 167 232 167q29 0 60 -3q7 119 -76 119q-30 0 -53 -15.5zM265 165q-31 3 -57 3q-48 0 -71 -14
t-23 -45q0 -44 50 -44q74 0 101 100z" />
    <glyph glyph-name="uni0261" unicode="&#x261;" horiz-adv-x="507" 
d="M504 484l-89 -499q-27 -150 -96 -211.5t-161 -61.5q-80 0 -132.5 39.5t-61.5 118.5l105 54q10 -49 33.5 -72t63.5 -23q52 0 81 39t45 132l2 14q-52 -60 -128 -60q-70 0 -111 51.5t-41 147.5q0 47 8 91q24 133 87 193t143 60q94 0 122 -83l18 70h112zM337 283
q0 52 -19.5 75.5t-52.5 23.5q-86 0 -113 -150q-6 -34 -6 -62q0 -50 18.5 -75.5t53.5 -25.5q38 0 68.5 33.5t44.5 117.5q6 36 6 63z" />
    <glyph glyph-name="uni0292" unicode="&#x292;" horiz-adv-x="435" 
d="M54 485h380l-17 -97l-185 -202q64 -15 97.5 -65t33.5 -123q0 -32 -6 -66q-20 -117 -89 -168.5t-159 -51.5q-89 0 -141 47.5t-56 141.5l115 49q6 -120 91 -120q84 0 104 113q3 19 3 38q0 49 -26 76t-78 27q-23 0 -53 -6l19 104l163 189h-215z" />
    <glyph glyph-name="uni02BB" unicode="&#x2bb;" horiz-adv-x="263" 
d="M302 713q-44 -7 -74 -33t-42 -65q31 -3 50.5 -24.5t19.5 -52.5q0 -38 -26 -65.5t-62 -27.5q-35 0 -58 25t-23 73q0 16 3 35q14 84 73 143t143 69z" />
    <glyph glyph-name="circumflex" unicode="&#x2c6;" horiz-adv-x="380" 
d="M224 714h88l82 -165h-103l-36 80l-62 -80h-109z" />
    <glyph glyph-name="caron" unicode="&#x2c7;" horiz-adv-x="380" 
d="M216 714l36 -79l62 79h109l-139 -165h-89l-82 165h103z" />
    <glyph glyph-name="breve" unicode="&#x2d8;" horiz-adv-x="340" 
d="M134.5 583.5q-33.5 34.5 -33.5 94.5q0 17 3 36h97q-2 -18 -2 -24q0 -27 9 -41.5t26 -14.5q23 0 34 19.5t18 60.5h102q-11 -80 -51.5 -122.5t-110.5 -42.5q-58 0 -91.5 34.5z" />
    <glyph glyph-name="dotaccent" unicode="&#x2d9;" horiz-adv-x="238" 
d="M125 575q-24 25 -24 60t24 60t58 25t59 -25t25 -60t-24.5 -60t-59.5 -25q-34 0 -58 25z" />
    <glyph glyph-name="ring" unicode="&#x2da;" horiz-adv-x="313" 
d="M140 740.5q35 34.5 86 34.5t84.5 -33.5t33.5 -85.5t-34 -85.5t-85 -33.5q-50 0 -85 33.5t-35 84.5t35 85.5zM192.5 621q12.5 -14 33.5 -14q20 0 32 14t12 35q0 22 -12 35t-32 13q-21 0 -33.5 -13.5t-12.5 -34.5t12.5 -35z" />
    <glyph glyph-name="ogonek" unicode="&#x2db;" horiz-adv-x="303" 
d="M180 -229q-55 -59 -116 -59q-46 0 -76.5 27t-30.5 75q0 60 41 111t112 89l51 -48q-104 -74 -104 -136q0 -16 8 -24.5t23 -8.5q13 0 26 7t30 24z" />
    <glyph glyph-name="tilde" unicode="&#x2dc;" horiz-adv-x="377" 
d="M87 564q29 137 110 137q20 0 35 -8.5t33 -24.5q24 -20 36 -20q20 0 34 49h82q-14 -67 -42.5 -102t-65.5 -35q-21 0 -36 8.5t-33 24.5q-13 11 -20 15.5t-15 4.5q-23 0 -34 -49h-84z" />
    <glyph glyph-name="hungarumlaut" unicode="&#x2dd;" horiz-adv-x="426" 
d="M152 549l92 165h123l-124 -165h-91zM313 549l92 165h123l-124 -165h-91z" />
    <glyph glyph-name="dotbelowcomb" unicode="&#x323;" horiz-adv-x="0" 
d="M-257 -237q-24 25 -24 60t24 59.5t58 24.5q35 0 59.5 -24.5t24.5 -59.5t-24.5 -60t-59.5 -25q-34 0 -58 25z" />
    <glyph glyph-name="uni0326" unicode="&#x326;" horiz-adv-x="0" 
d="M-231 -86q20 -19 20 -54q0 -6 -2 -24q-11 -57 -56.5 -89t-121.5 -35l10 57q64 9 82 42h-5q-28 0 -45 14t-17 37q0 33 23.5 52t57.5 19t54 -19z" />
    <glyph glyph-name="uni0338" unicode="&#x338;" horiz-adv-x="0" 
d="M-554 -275l490 973h132l-490 -973h-132z" />
    <glyph glyph-name="tonos" unicode="&#x384;" horiz-adv-x="338" 
d="M164 549l78 165h130l-109 -165h-99z" />
    <glyph glyph-name="dieresistonos" unicode="&#x385;" horiz-adv-x="600" 
d="M264 549l60 165h108l-87 -165h-81zM150 582q-20 21 -20 50t20 50t48 21q29 0 49.5 -21t20.5 -50t-20.5 -50t-49.5 -21q-28 0 -48 21zM437 582q-20 21 -20 50t20 50t49 21q28 0 48.5 -21t20.5 -50t-20.5 -50t-48.5 -21q-29 0 -49 21z" />
    <glyph glyph-name="Alphatonos" unicode="&#x386;" horiz-adv-x="624" 
d="M449 698l113 -732h-143l-20 167h-222l-78 -167h-145l367 732h128zM74 533l56 165h120l-87 -165h-89zM385 254l-31 264l-122 -264h153z" />
    <glyph glyph-name="Epsilontonos" unicode="&#x388;" horiz-adv-x="628" 
d="M52 533l56 165h120l-87 -165h-89zM265 698h392l-20 -118h-260l-32 -182h233l-21 -118h-233l-34 -195h269l-21 -119h-402z" />
    <glyph glyph-name="Etatonos" unicode="&#x389;" horiz-adv-x="766" 
d="M52 533l56 165h120l-87 -165h-89zM347 406h247l52 292h134l-129 -732h-134l56 319h-247l-57 -319h-133l129 732h133z" />
    <glyph glyph-name="Iotatonos" unicode="&#x38a;" horiz-adv-x="385" 
d="M52 533l56 165h120l-87 -165h-89zM269 -34h-133l129 732h133z" />
    <glyph glyph-name="Omicrontonos" unicode="&#x38c;" horiz-adv-x="724" 
d="M261.5 626q86.5 85 205.5 85q112 0 175.5 -73t63.5 -209q0 -61 -11 -120q-33 -186 -120 -270.5t-206 -84.5q-113 0 -176 72t-63 208q0 56 12 123q33 184 119.5 269zM46 533l56 165h120l-87 -165h-89zM271 235q0 -78 28.5 -117.5t82.5 -39.5q63 0 106.5 55t66.5 185
q11 64 11 110q0 78 -28 118.5t-83 40.5q-63 0 -107 -56.5t-66 -184.5q-11 -66 -11 -111z" />
    <glyph glyph-name="Upsilontonos" unicode="&#x38e;" horiz-adv-x="699" 
d="M441 397l181 301h148l-284 -443l-51 -289h-136l52 291l-135 431l-81 -155h-90l56 165h262z" />
    <glyph glyph-name="Omegatonos" unicode="&#x38f;" horiz-adv-x="743" 
d="M569 87h120l-21 -121h-261l24 136q117 75 149 254q7 39 7 76q0 75 -31 114.5t-88 39.5q-69 0 -115 -57t-64 -165q-8 -43 -8 -88q0 -119 66 -174l-24 -136h-261l22 121h120q-62 77 -62 199q0 45 9 99q27 156 116 241t219 85q114 0 180.5 -65.5t66.5 -188.5q0 -37 -8 -87
q-31 -178 -156 -283zM52 533l56 165h119l-86 -165h-89z" />
    <glyph glyph-name="iotadieresistonos" unicode="&#x390;" horiz-adv-x="264" 
d="M105 549l60 165h107l-86 -165h-81zM-10 582q-20 21 -20 50t20 50t49 21t49 -21t20 -50t-20 -50t-49 -21t-49 21zM277.5 582q-20.5 21 -20.5 50t20.5 50t48.5 21t48.5 -21t20.5 -50t-20.5 -50t-48.5 -21t-48.5 21zM214 -25q-36 -21 -89 -21q-112 0 -112 113q0 21 5 53
l64 364h128l-63 -352q-2 -18 -2 -24q0 -40 34 -40q20 0 39 11z" />
    <glyph glyph-name="Alpha" unicode="&#x391;" horiz-adv-x="624" 
d="M449 698l113 -732h-143l-20 167h-222l-78 -167h-145l367 732h128zM385 254l-31 264l-122 -264h153z" />
    <glyph glyph-name="Beta" unicode="&#x392;" horiz-adv-x="562" 
d="M439 341q37 -21 56.5 -56.5t19.5 -82.5q0 -24 -4 -45q-17 -95 -84 -143t-171 -48h-249l129 732h206q88 0 142 -49t54 -129q0 -22 -4 -42q-18 -96 -95 -137zM290 396q43 0 70 21t35 65q2 8 2 23q0 35 -21 55t-60 20h-69l-33 -184h76zM376 196q0 39 -23 62.5t-67 23.5h-92
l-34 -197h97q51 0 79.5 19t36.5 65q3 14 3 27z" />
    <glyph glyph-name="Gamma" unicode="&#x393;" horiz-adv-x="464" 
d="M141 -34h-134l129 732h393l-22 -121h-258z" />
    <glyph glyph-name="uni0394" unicode="&#x394;" horiz-adv-x="614" 
d="M325 698h127l104 -655l-14 -77h-578l15 77zM410 90l-57 417l-212 -417h269z" />
    <glyph glyph-name="Epsilon" unicode="&#x395;" horiz-adv-x="500" 
d="M136 698h393l-21 -118h-259l-32 -182h233l-21 -118h-233l-34 -195h268l-21 -119h-402z" />
    <glyph glyph-name="Zeta" unicode="&#x396;" horiz-adv-x="484" 
d="M94 578l21 120h419l-14 -79l-363 -532h283l-23 -121h-456l15 80l363 532h-245z" />
    <glyph glyph-name="Eta" unicode="&#x397;" horiz-adv-x="638" 
d="M218 406h248l52 292h134l-129 -732h-134l56 319h-248l-56 -319h-134l129 732h134z" />
    <glyph glyph-name="Theta" unicode="&#x398;" horiz-adv-x="674" 
d="M122 546q51 82 124 123.5t160 41.5q116 0 183 -70t67 -208q0 -59 -11 -120q-31 -175 -123 -267t-231 -92q-117 0 -184.5 69t-67.5 207q0 49 11 117q21 117 72 199zM181 239q0 -161 126 -161q73 0 123 59t72 182q11 64 11 108q0 160 -126 160q-71 0 -122.5 -59t-72.5 -181
q-11 -58 -11 -108zM424 277h-173l21 120h173z" />
    <glyph glyph-name="Iota" unicode="&#x399;" horiz-adv-x="256" 
d="M141 -34h-134l129 732h134z" />
    <glyph glyph-name="Kappa" unicode="&#x39a;" horiz-adv-x="617" 
d="M502 698h163l-266 -287l160 -445h-153l-112 330l-117 -125l-36 -205h-134l129 732h134l-42 -237q-10 -58 -20 -98q39 47 91 106z" />
    <glyph glyph-name="Lambda" unicode="&#x39b;" horiz-adv-x="610" 
d="M403 -34l-60 531l-238 -531h-151l357 732h134l103 -732h-145z" />
    <glyph glyph-name="Mu" unicode="&#x39c;" horiz-adv-x="717" 
d="M630 698h101l-129 -732h-128l77 437l-173 -242h-69l-95 263l-81 -458h-126l129 732h104l129 -375z" />
    <glyph glyph-name="Nu" unicode="&#x39d;" horiz-adv-x="624" 
d="M241 698l190 -477l83 477h124l-129 -732h-106l-190 469l-83 -469h-123l129 732h105z" />
    <glyph glyph-name="Xi" unicode="&#x39e;" horiz-adv-x="537" 
d="M551 572h-458l23 126h457zM463 276h-387l22 126h387zM443 -34h-457l23 127h457z" />
    <glyph glyph-name="Omicron" unicode="&#x39f;" horiz-adv-x="635" 
d="M171.5 626q86.5 85 205.5 85q112 0 176 -73t64 -209q0 -61 -11 -120q-33 -186 -120.5 -270.5t-206.5 -84.5q-113 0 -176 72.5t-63 208.5q0 56 12 122q33 184 119.5 269zM181 235q0 -78 28.5 -117.5t83.5 -39.5q63 0 106.5 55t66.5 185q10 59 10 109q0 79 -27.5 119.5
t-82.5 40.5q-64 0 -108 -56.5t-66 -184.5q-11 -66 -11 -111z" />
    <glyph glyph-name="Pi" unicode="&#x3a0;" horiz-adv-x="638" 
d="M136 698h516l-129 -732h-135l108 611h-247l-108 -611h-134z" />
    <glyph glyph-name="Rho" unicode="&#x3a1;" horiz-adv-x="532" 
d="M328 698q107 0 164.5 -55.5t57.5 -146.5q0 -24 -5 -54q-19 -104 -91 -161t-187 -57h-80l-46 -258h-134l129 732h192zM408 484q0 47 -28 72.5t-74 25.5h-56l-43 -241h66q53 0 87.5 27.5t44.5 84.5q3 17 3 31z" />
    <glyph glyph-name="Sigma" unicode="&#x3a3;" horiz-adv-x="492" 
d="M86 586l20 112h429l-21 -120h-276l139 -252l-228 -239h293l-21 -121h-456l20 112l240 257z" />
    <glyph glyph-name="Tau" unicode="&#x3a4;" horiz-adv-x="506" 
d="M84 698h489l-21 -120h-177l-108 -612h-134l108 612h-178z" />
    <glyph glyph-name="Upsilon" unicode="&#x3a5;" horiz-adv-x="564" 
d="M307 397l181 301h147l-283 -443l-52 -289h-136l52 291l-137 441h150z" />
    <glyph glyph-name="Phi" unicode="&#x3a6;" horiz-adv-x="717" 
d="M487 620q98 -17 158.5 -80t60.5 -165q0 -33 -5 -61q-21 -117 -106 -188t-210 -84l-14 -76h-132l15 79q-99 17 -160 79t-61 165q0 30 6 63q21 116 105.5 187t210.5 84l13 75h132zM171 301q0 -53 27.5 -85.5t76.5 -44.5l58 328q-64 -11 -105 -49.5t-53 -106.5
q-4 -20 -4 -42zM568 365q0 105 -104 131l-57 -328q64 11 104 49t53 104q4 21 4 44z" />
    <glyph glyph-name="Chi" unicode="&#x3a7;" horiz-adv-x="601" 
d="M334 464l169 234h157l-276 -360l158 -372h-154l-97 251l-184 -252l-155 1l288 376l-149 356h152z" />
    <glyph glyph-name="Psi" unicode="&#x3a8;" horiz-adv-x="727" 
d="M630 698h134l-41 -242q-27 -151 -106.5 -224.5t-210.5 -85.5l-31 -180h-134l33 181q-212 28 -212 226q0 35 8 83l42 242h134l-38 -216q-8 -50 -8 -80q0 -62 24.5 -92t70.5 -38l75 426h134l-75 -426q66 11 105.5 57t57.5 153z" />
    <glyph glyph-name="uni03A9" unicode="&#x3a9;" horiz-adv-x="648" 
d="M474 87h120l-21 -121h-261l24 136q117 75 149 254q7 39 7 76q0 75 -31 114.5t-88 39.5q-69 0 -115 -57t-64 -165q-8 -51 -8 -88q0 -119 66 -174l-24 -136h-261l22 121h121q-63 76 -63 199q0 45 9 99q27 156 116 241t219 85q114 0 180.5 -65.5t66.5 -188.5q0 -37 -8 -87
q-31 -178 -156 -283z" />
    <glyph glyph-name="Iotadieresis" unicode="&#x3aa;" horiz-adv-x="256" 
d="M82 791q-22 23 -22 54q0 32 22 54.5t53 22.5t53 -22.5t22 -54.5q0 -31 -22 -54t-53 -23t-53 23zM269 791q-22 23 -22 54q0 32 22 54.5t53 22.5t53 -22.5t22 -54.5q0 -31 -22 -54t-53 -23t-53 23zM141 -34h-134l129 732h134z" />
    <glyph glyph-name="Upsilondieresis" unicode="&#x3ab;" horiz-adv-x="564" 
d="M239 791q-22 23 -22 54q0 32 21.5 54.5t52.5 22.5t53 -22.5t22 -54.5q0 -31 -22 -54t-53 -23q-30 0 -52 23zM425.5 791q-21.5 23 -21.5 54q0 32 21.5 54.5t52.5 22.5t53 -22.5t22 -54.5q0 -31 -22 -54t-53 -23t-52.5 23zM307 397l181 301h147l-283 -443l-52 -289h-136
l52 291l-137 441h150z" />
    <glyph glyph-name="alphatonos" unicode="&#x3ac;" horiz-adv-x="541" 
d="M319 717h129l-108 -165h-99zM444 128q-2 -9 -2 -23q0 -32 26 -32q11 0 22 5l-2 -105q-34 -19 -83 -19q-43 0 -66.5 19t-29.5 59q-55 -78 -143 -78q-70 0 -111 51.5t-41 147.5q0 47 8 91q24 133 87 193t143 60q96 0 123 -86q12 39 19 73h112zM337 283q0 52 -19.5 75.5
t-52.5 23.5q-86 0 -113 -150q-6 -34 -6 -62q0 -50 18.5 -75.5t53.5 -25.5q38 0 68.5 33.5t44.5 117.5q6 36 6 63z" />
    <glyph glyph-name="epsilontonos" unicode="&#x3ad;" horiz-adv-x="411" 
d="M212 549l78 165h130l-109 -165h-99zM298 135l88 -58q-34 -62 -86.5 -92.5t-131.5 -30.5q-83 0 -128 33t-45 92q0 15 3 30q9 51 42.5 84t87.5 46q-35 14 -53 39t-18 59q0 75 56 117.5t145 42.5q69 0 111.5 -28t54.5 -78l-103 -57q-6 26 -24.5 39.5t-45.5 13.5
q-28 0 -46.5 -15t-18.5 -42q0 -21 17 -32.5t50 -11.5h40l-18 -108h-47q-84 0 -94 -57q-1 -4 -1 -11q0 -22 15.5 -34t42.5 -12q65 0 107 71z" />
    <glyph glyph-name="etatonos" unicode="&#x3ae;" horiz-adv-x="523" 
d="M344 714h130l-108 -165h-99zM454.5 457.5q31.5 -39.5 31.5 -114.5q0 -37 -7 -78l-97 -540h-129l93 519q6 33 6 59q0 72 -52 72q-34 0 -61.5 -30t-40.5 -94l-50 -285h-129l64 359q3 17 3 28q0 29 -23 29q-14 0 -26 -5l2 102q32 18 83 18q86 0 96 -79q56 79 144 79
q61 0 92.5 -39.5z" />
    <glyph glyph-name="iotatonos" unicode="&#x3af;" horiz-adv-x="264" 
d="M101 549l77 165h130l-108 -165h-99zM214 -25q-36 -21 -89 -21q-112 0 -112 113q0 21 5 53l64 364h128l-63 -352q-2 -18 -2 -24q0 -40 34 -40q20 0 39 11z" />
    <glyph glyph-name="upsilondieresistonos" unicode="&#x3b0;" horiz-adv-x="489" 
d="M243 549l60 165h108l-87 -165h-81zM128.5 582.5q-19.5 21.5 -19.5 51.5q0 28 20 48.5t48 20.5q29 0 49.5 -21t20.5 -50t-20.5 -50t-49.5 -21t-48.5 21.5zM415.5 582q-20.5 21 -20.5 50t20.5 50t49.5 21q28 0 48 -21t20 -50t-20 -50t-48 -21q-29 0 -49.5 21zM83 484h128
l-50 -285q-7 -36 -7 -65q0 -34 13 -49.5t42 -15.5q43 0 70 40t43 127q12 77 12 148q0 43 -5 100h133q6 -48 6 -95q0 -72 -13 -147q-25 -138 -84.5 -213t-175.5 -75q-171 0 -171 165q0 36 7 72z" />
    <glyph glyph-name="alpha" unicode="&#x3b1;" horiz-adv-x="542" 
d="M444 128q-2 -9 -2 -23q0 -32 26 -32q12 0 22 5l-2 -105q-34 -19 -83 -19q-86 0 -95 79q-29 -42 -66 -60.5t-77 -18.5q-70 0 -111.5 51.5t-41.5 146.5q0 43 9 92q23 133 86 193t143 60q98 0 123 -86q11 35 20 73h112zM338 283q0 52 -19.5 75.5t-52.5 23.5q-40 0 -69.5 -36
t-43.5 -114q-6 -36 -6 -63q0 -50 18.5 -75t52.5 -25q87 0 114 151q6 36 6 63z" />
    <glyph glyph-name="beta" unicode="&#x3b2;" horiz-adv-x="532" 
d="M409 358q88 -38 88 -152q0 -22 -5 -55q-18 -98 -76 -147.5t-146 -49.5q-99 0 -135 60l-51 -289h-127l137 776q22 126 82.5 182t156.5 56q90 0 138.5 -47.5t48.5 -127.5q0 -22 -5 -50q-17 -111 -106 -156zM275 411q88 0 108 108q3 18 3 33q0 35 -16 54t-47 19
q-41 0 -67 -35.5t-40 -115.5l-42 -246q-5 -30 -5 -48q0 -54 25 -82.5t71 -28.5q38 0 62.5 22.5t33.5 73.5q3 20 3 36q0 47 -25.5 72.5t-74.5 25.5h-24l20 112h15z" />
    <glyph glyph-name="gamma" unicode="&#x3b3;" horiz-adv-x="478" 
d="M474 484q-1 -56 -7 -97q-18 -101 -71.5 -205t-154.5 -222l-42 -235h-128l40 225l-71 534h136l37 -382q55 78 83.5 144.5t40.5 135.5q5 42 8 102h129z" />
    <glyph glyph-name="delta" unicode="&#x3b4;" horiz-adv-x="496" 
d="M487 722l-19 -111h-172l117 -150q54 -72 54 -164q0 -39 -7 -78q-22 -131 -88.5 -198t-164.5 -67q-90 0 -142 53t-52 152q0 38 7 76q19 111 77 174.5t145 75.5l-116 145l16 92h345zM332 278q0 51 -18 77t-52 26q-43 0 -72 -42.5t-39 -113.5q-4 -25 -4 -53q0 -50 18 -76.5
t53 -26.5q42 0 70.5 40t39.5 116q4 27 4 53z" />
    <glyph glyph-name="epsilon" unicode="&#x3b5;" horiz-adv-x="411" 
d="M298 135l88 -58q-34 -62 -86.5 -92.5t-131.5 -30.5q-83 0 -128 33t-45 92q0 15 3 30q9 51 42.5 84t87.5 46q-35 14 -53 39t-18 59q0 75 56 117.5t145 42.5q69 0 111.5 -28t54.5 -78l-103 -57q-6 26 -24.5 39.5t-45.5 13.5q-28 0 -46.5 -15t-18.5 -42q0 -21 17 -32.5
t50 -11.5h40l-18 -108h-47q-84 0 -94 -57q-1 -4 -1 -11q0 -22 15.5 -34t42.5 -12q65 0 107 71z" />
    <glyph glyph-name="zeta" unicode="&#x3b6;" horiz-adv-x="455" 
d="M495 632q-165 -113 -243.5 -213t-94.5 -193q-4 -20 -4 -42q0 -37 15 -61.5t39.5 -39.5t65.5 -32q62 -23 90 -56t28 -78q0 -15 -3 -31q-9 -52 -42.5 -89t-90.5 -63l-57 77q31 24 43.5 40.5t12.5 36.5q0 21 -19 35.5t-63 31.5q-74 27 -114.5 76.5t-40.5 129.5q0 29 6 62
q38 214 292 393h-199l20 110h375z" />
    <glyph glyph-name="eta" unicode="&#x3b7;" horiz-adv-x="523" 
d="M454.5 457.5q31.5 -39.5 31.5 -114.5q0 -37 -7 -78l-97 -540h-129l93 519q6 33 6 59q0 72 -52 72q-34 0 -61.5 -30t-40.5 -94l-50 -285h-129l64 359q3 17 3 28q0 29 -23 29q-14 0 -26 -5l2 102q32 18 83 18q86 0 96 -79q56 79 144 79q61 0 92.5 -39.5z" />
    <glyph glyph-name="theta" unicode="&#x3b8;" horiz-adv-x="505" 
d="M460.5 680q46.5 -54 46.5 -173q0 -72 -16 -162q-38 -210 -108.5 -300.5t-178.5 -90.5q-86 0 -132.5 54t-46.5 173q0 67 17 164q67 389 284 389q88 0 134.5 -54zM239 572q-30 -50 -54 -166h183q9 66 9 110q0 56 -15 81t-47 25q-46 0 -76 -50zM294.5 122q30.5 53 54.5 176
h-184q-11 -75 -11 -120q0 -57 16 -83t49 -26q45 0 75.5 53z" />
    <glyph glyph-name="iota" unicode="&#x3b9;" horiz-adv-x="264" 
d="M214 -25q-36 -21 -89 -21q-112 0 -112 113q0 21 5 53l64 364h128l-63 -352q-2 -18 -2 -24q0 -40 34 -40q20 0 39 11z" />
    <glyph glyph-name="kappa" unicode="&#x3ba;" horiz-adv-x="478" 
d="M475.5 489q19.5 -8 30.5 -22l-56 -92q-14 10 -30 10q-30 0 -67 -43l-46 -52l119 -324h-137l-74 217l-71 -82l-24 -135h-124l92 518h124l-35 -197l106 125q35 44 71 64.5t76 20.5q26 0 45.5 -8z" />
    <glyph glyph-name="lambda" unicode="&#x3bb;" horiz-adv-x="525" 
d="M491 83l-5 -109q-47 -20 -91 -20q-57 0 -78.5 28t-28.5 91l-25 218l-174 -325h-141l292 511l-10 76q-9 63 -46 63q-24 0 -53 -24l-22 96q24 22 57.5 34t69.5 12q51 0 78 -29.5t34 -89.5l55 -478q4 -34 14.5 -49t32.5 -15q18 0 41 10z" />
    <glyph glyph-name="uni03BC" unicode="&#x3bc;" horiz-adv-x="532" 
d="M436 134q-3 -16 -3 -28q0 -16 6 -23.5t19 -7.5t24 5l-3 -107q-15 -9 -36.5 -14t-44.5 -5q-40 0 -63 19.5t-29 54.5q-44 -74 -120 -74q-38 0 -60 19l-44 -248h-129l134 759h129l-54 -305q-3 -19 -3 -37q0 -65 56 -65q34 0 61 25.5t40 81.5l54 300h128z" />
    <glyph glyph-name="nu" unicode="&#x3bd;" horiz-adv-x="470" 
d="M474 484q-3 -57 -8 -92q-18 -100 -75.5 -203.5t-168.5 -222.5h-107l-75 518h136l38 -366q56 76 83 138.5t39 130.5q5 37 8 97h130z" />
    <glyph glyph-name="xi" unicode="&#x3be;" horiz-adv-x="425" 
d="M474 631q-224 -11 -243 -128q-1 -6 -1 -17q0 -34 25 -54t72 -20h84l-20 -110h-90q-69 0 -106 -28t-46 -77q-2 -16 -2 -24q0 -39 27.5 -64t86.5 -47q113 -43 113 -139q0 -16 -3 -34q-8 -48 -38 -82t-93 -73l-57 77q31 24 42.5 41.5t11.5 41.5q0 20 -15 34.5t-50 28.5
q-81 32 -121.5 77t-40.5 111q0 13 4 41q12 67 51.5 110.5t100.5 63.5q-34 16 -52.5 44.5t-18.5 65.5q0 18 2 27q16 87 113 122h-107l19 108h369z" />
    <glyph glyph-name="omicron" unicode="&#x3bf;" horiz-adv-x="491" 
d="M115 437.5q69 59.5 158 59.5q86 0 137 -53t51 -155q0 -36 -8 -84q-23 -135 -92 -193t-157 -58t-139 53t-51 154q0 35 8 83q24 134 93 193.5zM146 165q0 -96 69 -96q82 0 107 148q7 38 7 70q0 95 -68 95q-82 0 -108 -151q-7 -35 -7 -66z" />
    <glyph glyph-name="pi" unicode="&#x3c0;" horiz-adv-x="545" 
d="M542 375h-80l-42 -237q-3 -15 -3 -26q0 -37 32 -37q20 0 41 11l-4 -111q-42 -21 -98 -21t-81.5 26.5t-25.5 76.5q0 26 6 56l46 262h-103l-73 -410l-128 1l73 409h-81l20 109h520z" />
    <glyph glyph-name="rho" unicode="&#x3c1;" horiz-adv-x="512" 
d="M433.5 444.5q48.5 -52.5 48.5 -151.5q0 -35 -8 -85q-45 -254 -225 -254q-79 0 -116 50l-49 -280h-129l88 503q25 139 86 204.5t164 65.5q92 0 140.5 -52.5zM343 222q6 39 6 67q0 93 -67 93q-43 0 -69.5 -38t-40.5 -118q-6 -33 -6 -58q0 -92 68 -92q83 0 109 146z" />
    <glyph glyph-name="uni03C2" unicode="&#x3c2;" horiz-adv-x="417" 
d="M384.5 464q42.5 -33 46.5 -102l-105 -50q-4 35 -19 52.5t-44 17.5q-37 0 -66.5 -37t-42.5 -115q-5 -32 -5 -52q0 -47 22 -77.5t71 -52.5q48 -22 71 -51.5t23 -69.5q0 -16 -3 -32q-10 -54 -44.5 -95t-88.5 -66l-57 77q27 20 39 36t16 38q1 4 1 11q0 17 -12 31t-42 29
q-60 28 -95 76t-35 131q0 37 7 78q24 137 97 196.5t158 59.5q65 0 107.5 -33z" />
    <glyph glyph-name="sigma" unicode="&#x3c3;" horiz-adv-x="525" 
d="M561 484l-19 -110h-110q26 -44 26 -113q0 -32 -6 -70q-20 -115 -84.5 -176t-160.5 -61q-90 0 -141.5 51.5t-51.5 150.5q0 34 8 80q21 124 93 186t184 62h262zM328 275q0 95 -67 95q-82 0 -108 -142q-6 -36 -6 -64q0 -95 67 -95q41 0 68.5 36t39.5 106q6 36 6 64z" />
    <glyph glyph-name="tau" unicode="&#x3c4;" horiz-adv-x="420" 
d="M431 374h-149l-41 -236q-3 -13 -3 -25q0 -38 32 -38q19 0 42 11l-5 -111q-20 -10 -46 -15.5t-52 -5.5q-108 0 -108 105q0 22 5 54l46 261h-129l19 110h408z" />
    <glyph glyph-name="upsilon" unicode="&#x3c5;" horiz-adv-x="489" 
d="M83 484h128l-50 -285q-7 -36 -7 -65q0 -34 13 -49.5t42 -15.5q43 0 70 40t43 127q12 77 12 148q0 43 -5 100h133q6 -48 6 -95q0 -72 -13 -147q-25 -138 -84.5 -213t-175.5 -75q-171 0 -171 165q0 36 7 72z" />
    <glyph glyph-name="phi" unicode="&#x3c6;" horiz-adv-x="663" 
d="M431 491q90 -16 145 -74.5t55 -152.5q0 -23 -5 -56q-21 -120 -97.5 -180.5t-191.5 -71.5l-41 -231h-124l41 235q-89 17 -142.5 73t-53.5 149q0 24 5 57q19 116 96.5 179.5t188.5 75.5l30 168h125zM149 194q0 -94 85 -119l53 304q-113 -20 -135 -145q-3 -21 -3 -40z
M498 253q0 51 -23 81.5t-64 42.5l-54 -307q56 8 91 41t46 100q4 20 4 42z" />
    <glyph glyph-name="chi" unicode="&#x3c7;" horiz-adv-x="471" 
d="M231 251l138 233h138l-239 -380l105 -379h-135l-55 238l-139 -238h-138l241 386l-107 373h135z" />
    <glyph glyph-name="psi" unicode="&#x3c8;" horiz-adv-x="645" 
d="M618 484q8 -45 8 -102q0 -59 -11 -131q-23 -130 -87.5 -205t-194.5 -89l-41 -232h-124l41 233q-95 11 -137 58.5t-42 130.5q0 42 9 91l44 246h126l-41 -227q-9 -48 -9 -82q0 -42 16.5 -66t54.5 -33l104 586h123l-103 -588q57 11 86.5 53t45.5 131q9 61 9 115q0 50 -8 111
h131z" />
    <glyph glyph-name="omega" unicode="&#x3c9;" horiz-adv-x="666" 
d="M595 484q41 -80 41 -184q0 -46 -9 -99q-22 -122 -76.5 -184.5t-137.5 -62.5q-96 0 -120 89q-56 -89 -149 -89q-65 0 -100.5 43t-35.5 125q0 35 8 83q14 82 48.5 152.5t82.5 126.5h132q-106 -125 -133 -278q-6 -36 -6 -64q0 -73 44 -73q26 0 43.5 30t31.5 107l25 136h125
l-30 -166q-4 -24 -4 -46q0 -61 38 -61q61 0 85 133q8 50 8 91q0 104 -42 191h131z" />
    <glyph glyph-name="iotadieresis" unicode="&#x3ca;" horiz-adv-x="264" 
d="M18 578q-22 23 -22 54q0 32 21.5 54.5t52.5 22.5t53 -22.5t22 -54.5q0 -31 -22 -54t-53 -23q-30 0 -52 23zM217 578q-22 23 -22 54q0 32 21.5 54.5t52.5 22.5t53.5 -23t22.5 -54t-22.5 -54t-53.5 -23q-30 0 -52 23zM214 -25q-36 -21 -89 -21q-112 0 -112 113q0 21 5 53
l64 364h128l-63 -352q-2 -18 -2 -24q0 -40 34 -40q20 0 39 11z" />
    <glyph glyph-name="upsilondieresis" unicode="&#x3cb;" horiz-adv-x="489" 
d="M156 578q-22 23 -22 54q0 32 21.5 54.5t52.5 22.5t53.5 -22.5t22.5 -54.5q0 -31 -22.5 -54t-53.5 -23q-30 0 -52 23zM355 578q-22 23 -22 54q0 32 22 54.5t53 22.5t53 -22.5t22 -54.5q0 -31 -22 -54t-53 -23t-53 23zM83 484h128l-50 -285q-7 -36 -7 -65q0 -34 13 -49.5
t42 -15.5q43 0 70 40t43 127q12 77 12 148q0 43 -5 100h133q6 -48 6 -95q0 -72 -13 -147q-25 -138 -84.5 -213t-175.5 -75q-171 0 -171 165q0 36 7 72z" />
    <glyph glyph-name="omicrontonos" unicode="&#x3cc;" horiz-adv-x="491" 
d="M240 549l78 165h130l-109 -165h-99zM115 437.5q69 59.5 158 59.5q86 0 137 -53t51 -155q0 -36 -8 -84q-23 -135 -92 -193t-157 -58t-139 53t-51 154q0 35 8 83q24 134 93 193.5zM146 165q0 -96 69 -96q82 0 107 148q7 38 7 70q0 95 -68 95q-82 0 -108 -151q-7 -35 -7 -66
z" />
    <glyph glyph-name="upsilontonos" unicode="&#x3cd;" horiz-adv-x="489" 
d="M239 549l78 165h129l-108 -165h-99zM83 484h128l-50 -285q-7 -36 -7 -65q0 -34 13 -49.5t42 -15.5q43 0 70 40t43 127q12 77 12 148q0 43 -5 100h133q6 -48 6 -95q0 -72 -13 -147q-25 -138 -84.5 -213t-175.5 -75q-171 0 -171 165q0 36 7 72z" />
    <glyph glyph-name="omegatonos" unicode="&#x3ce;" horiz-adv-x="665" 
d="M327 549l77 165h130l-108 -165h-99zM594 484q41 -80 41 -184q0 -46 -9 -99q-22 -122 -76.5 -184.5t-137.5 -62.5q-96 0 -120 89q-56 -89 -149 -89q-65 0 -100.5 43t-35.5 125q0 35 8 83q14 82 48.5 152.5t82.5 126.5h132q-106 -125 -133 -278q-6 -36 -6 -64q0 -73 44 -73
q26 0 43.5 30t31.5 107l25 136h125l-30 -166q-4 -24 -4 -46q0 -61 38 -61q61 0 85 133q8 50 8 91q0 104 -42 191h131z" />
    <glyph glyph-name="uni03D1" unicode="&#x3d1;" horiz-adv-x="545" 
d="M558 406l-20 -110h-76q-35 -181 -99.5 -261.5t-169.5 -80.5q-89 0 -137 53.5t-45 148.5l124 36q-6 -123 68 -123q47 0 75.5 53t51.5 174h-52q-104 0 -159.5 50.5t-55.5 137.5q0 27 4 50q17 96 78.5 151t146.5 55q93 0 142 -68t49 -195q0 -21 -4 -71h79zM348 406
q7 49 7 94q0 125 -71 125q-34 0 -57 -27t-32 -77q-3 -18 -3 -34q0 -38 23 -59.5t79 -21.5h54z" />
    <glyph glyph-name="uni03D2" unicode="&#x3d2;" horiz-adv-x="600" 
d="M670 698l-22 -127h-15q-60 0 -113.5 -50t-93.5 -143t-62 -218l-35 -194h-140l34 195q12 63 12 134q0 123 -40.5 224.5t-113.5 178.5h160q39 -43 66 -106t37 -136q48 111 124.5 176.5t166.5 65.5h35z" />
    <glyph glyph-name="uni03D6" unicode="&#x3d6;" horiz-adv-x="727" 
d="M65 484h681l-20 -109h-77q17 -51 17 -113q0 -38 -8 -84q-20 -112 -74.5 -168t-135.5 -56q-96 0 -119 90q-57 -90 -152 -90q-65 0 -101 39t-36 115q0 35 7 73q17 104 77 194h-78zM537 258q0 60 -19 117h-262q-62 -90 -77 -183q-5 -33 -5 -53q0 -70 44 -70q25 0 43.5 30
t32.5 107l16 86h125l-21 -119q-3 -24 -3 -42q0 -62 38 -62q29 0 50 30t32 90q6 36 6 69z" />
    <glyph glyph-name="uni0400" unicode="&#x400;" horiz-adv-x="500" 
d="M225 915h119l42 -149h-88zM136 698h393l-21 -118h-259l-32 -182h233l-21 -118h-233l-34 -195h268l-21 -119h-402z" />
    <glyph glyph-name="uni0401" unicode="&#x401;" horiz-adv-x="500" 
d="M214 791q-22 23 -22 53q0 32 21.5 54.5t52.5 22.5t53 -22.5t22 -54.5q0 -30 -22 -53t-53 -23q-30 0 -52 23zM401 791q-22 23 -22 53q0 32 21.5 54.5t52.5 22.5t53 -22.5t22 -54.5q0 -30 -22 -53t-53 -23q-30 0 -52 23zM136 698h393l-21 -118h-259l-32 -182h233l-21 -118
h-233l-34 -195h268l-21 -119h-402z" />
    <glyph glyph-name="uni0402" unicode="&#x402;" horiz-adv-x="742" 
d="M646 369.5q56 -55.5 56 -149.5q0 -33 -5 -59q-18 -106 -84.5 -156.5t-169.5 -50.5q-30 0 -46 2l21 122q7 -1 20 -1q51 0 80 23.5t39 74.5q3 17 3 33q0 42 -23 67t-70 25q-56 0 -105.5 -36t-63.5 -114l-33 -184h-133l108 611h-177l21 121h488l-21 -121h-178l-36 -202
q69 50 158 50q95 0 151 -55.5z" />
    <glyph glyph-name="uni0403" unicode="&#x403;" horiz-adv-x="464" 
d="M302 764l88 165h124l-114 -165h-98zM141 -34h-134l129 732h393l-22 -121h-258z" />
    <glyph glyph-name="uni0404" unicode="&#x404;" horiz-adv-x="549" 
d="M266 544q-42 -46 -66 -147h201l-21 -118h-199q-1 -13 -1 -36q0 -82 29.5 -125t83.5 -43q77 0 125 98l99 -63q-33 -76 -95.5 -116t-141.5 -40q-112 0 -175 73.5t-63 209.5q0 62 11 122q32 183 119.5 267.5t207.5 84.5q95 0 148 -49.5t55 -131.5l-118 -62q-15 122 -103 122
q-54 0 -96 -46z" />
    <glyph glyph-name="uni0405" unicode="&#x405;" horiz-adv-x="485" 
d="M373 7q-63 -53 -163 -53q-96 0 -157.5 50t-68.5 141l118 60q8 -64 39.5 -96t78.5 -32q43 0 67 27q15 20 19 47q2 14 2 21q0 40 -25.5 67t-77.5 62q-43 29 -69.5 52t-45 57t-18.5 80q0 22 4 42q16 89 83 137q61 42 148 42q61 0 105.5 -22t68 -59.5t25.5 -83.5l-117 -59
q-16 101 -92 101q-35 0 -56 -18q-28 -23 -28 -65q0 -34 23 -57.5t73 -55.5q45 -30 72.5 -53.5t47.5 -60.5t20 -88q0 -19 -5 -49q-17 -87 -71 -134z" />
    <glyph glyph-name="uni0406" unicode="&#x406;" horiz-adv-x="256" 
d="M141 -34h-134l129 732h134z" />
    <glyph glyph-name="uni0407" unicode="&#x407;" horiz-adv-x="256" 
d="M82 791q-22 23 -22 54q0 32 22 54.5t53 22.5t53 -22.5t22 -54.5q0 -31 -22 -54t-53 -23t-53 23zM269 791q-22 23 -22 54q0 32 22 54.5t53 22.5t53 -22.5t22 -54.5q0 -31 -22 -54t-53 -23t-53 23zM141 -34h-134l129 732h134z" />
    <glyph glyph-name="uni0408" unicode="&#x408;" horiz-adv-x="449" 
d="M32 -9.5q-47 36.5 -56 114.5l117 66q7 -49 23 -71t45 -22q37 0 57 33.5t34 109.5l83 477h135l-88 -499q-23 -129 -78 -187t-150 -58q-75 0 -122 36.5z" />
    <glyph glyph-name="uni0409" unicode="&#x409;" horiz-adv-x="964" 
d="M715 414q101 0 156 -54.5t55 -142.5q0 -24 -5 -54q-18 -102 -85.5 -149.5t-171.5 -47.5h-264l108 611h-193l-80 -358q-19 -85 -45 -140.5t-81 -90t-150 -34.5l22 123q39 0 62 16.5t36.5 49t26.5 92.5l102 463h455l-50 -284h102zM661 87q52 0 81.5 22t38.5 70q2 18 2 25
q0 42 -25.5 66t-76.5 24h-89l-37 -207h106z" />
    <glyph glyph-name="uni040A" unicode="&#x40a;" horiz-adv-x="952" 
d="M703 408q101 0 156 -53.5t55 -141.5q0 -23 -5 -53q-18 -100 -85.5 -147t-171.5 -47h-264l57 321h-247l-57 -321h-134l129 732h134l-51 -290h247l51 290h134l-51 -290h103zM649 87q53 0 82 20.5t38 68.5q2 9 2 26q0 40 -24.5 62.5t-75.5 22.5h-92l-36 -200h106z" />
    <glyph glyph-name="uni040B" unicode="&#x40b;" horiz-adv-x="729" 
d="M630 377q49 -47 49 -147q0 -44 -8 -87l-31 -177h-131l29 162q7 42 7 67q0 105 -90 105q-56 0 -99.5 -39.5t-59.5 -123.5l-31 -171h-133l108 611h-177l21 121h488l-21 -121h-178l-35 -200q62 47 154 47q89 0 138 -47z" />
    <glyph glyph-name="uni040C" unicode="&#x40c;" horiz-adv-x="605" 
d="M368 766l87 149h124l-113 -149h-98zM291 397l223 301h154l-269 -358l150 -374h-150l-119 306h-85l-54 -306h-134l129 732h134l-53 -301h74z" />
    <glyph glyph-name="uni040D" unicode="&#x40d;" horiz-adv-x="642" 
d="M287 928h120l43 -165h-88zM545 698h111l-129 -732h-126l84 479l-367 -479h-110l129 732h126l-84 -475z" />
    <glyph glyph-name="uni040E" unicode="&#x40e;" horiz-adv-x="565" 
d="M286.5 798.5q-33.5 33.5 -33.5 87.5q0 20 2 30h98q-1 -6 -1 -16q0 -23 9.5 -36.5t26.5 -13.5q23 0 34 17t16 49h102q-9 -72 -49 -111.5t-111 -39.5q-60 0 -93.5 33.5zM303 338l189 360h145l-300 -529q-46 -81 -78.5 -124.5t-72.5 -67t-96 -23.5q-58 0 -87 25l23 132
q33 -27 74 -27q31 0 54.5 18t55.5 68l-131 528h149z" />
    <glyph glyph-name="uni040F" unicode="&#x40f;" horiz-adv-x="635" 
d="M168 90h235l107 608h138l-129 -732h-191l-36 -172h-118l25 172h-192l129 732h139z" />
    <glyph glyph-name="uni0410" unicode="&#x410;" horiz-adv-x="624" 
d="M449 698l113 -732h-143l-20 167h-222l-78 -167h-145l367 732h128zM385 254l-31 264l-122 -264h153z" />
    <glyph glyph-name="uni0411" unicode="&#x411;" horiz-adv-x="579" 
d="M570 698l-20 -119h-301l-31 -176h104q103 0 158 -50t55 -135q0 -21 -5 -49q-17 -99 -86.5 -151t-173.5 -52h-263l129 732h434zM197 284l-35 -199h117q94 0 111 94q2 18 2 25q0 38 -24 59t-70 21h-101z" />
    <glyph glyph-name="uni0412" unicode="&#x412;" horiz-adv-x="562" 
d="M439 341q37 -21 56.5 -56.5t19.5 -82.5q0 -24 -4 -45q-17 -95 -84 -143t-171 -48h-249l129 732h206q88 0 142 -49t54 -129q0 -22 -4 -42q-18 -96 -95 -137zM290 396q43 0 70 21t35 65q2 8 2 23q0 35 -21 55t-60 20h-69l-33 -184h76zM376 196q0 39 -23 62.5t-67 23.5h-92
l-34 -197h97q51 0 79.5 19t36.5 65q3 14 3 27z" />
    <glyph glyph-name="uni0413" unicode="&#x413;" horiz-adv-x="464" 
d="M141 -34h-134l129 732h393l-22 -121h-258z" />
    <glyph glyph-name="uni0414" unicode="&#x414;" horiz-adv-x="697" 
d="M566 92h85l-62 -298h-119l26 172h-404l-36 -172h-119l44 298h34q42 0 70.5 26.5t50 80.5t43.5 146l87 353h406zM429 92l84 480h-145l-59 -243q-22 -84 -44 -141t-55 -96h219z" />
    <glyph glyph-name="uni0415" unicode="&#x415;" horiz-adv-x="500" 
d="M136 698h393l-21 -118h-259l-32 -182h233l-21 -118h-233l-34 -195h268l-21 -119h-402z" />
    <glyph glyph-name="uni0416" unicode="&#x416;" horiz-adv-x="965" 
d="M640 397l215 301h152l-256 -359l137 -373h-153l-107 306h-83l-54 -306h-136l54 306h-72l-218 -306h-164l269 376l-129 356h149l107 -301h80l53 301h136l-54 -301h74z" />
    <glyph glyph-name="uni0417" unicode="&#x417;" horiz-adv-x="512" 
d="M458 401q-29 -38 -74 -58q38 -23 58 -61.5t20 -88.5q0 -25 -4 -48q-17 -95 -81.5 -143t-159.5 -48q-92 0 -152 48t-70 134l118 63q13 -121 109 -121q38 0 63 21t33 64q2 9 2 25q0 45 -30.5 70.5t-88.5 25.5h-19l22 119h28q57 0 91 31t34 84q0 31 -17.5 50t-51.5 19
q-71 0 -116 -97l-98 62q35 80 96 120t139 40q61 0 104.5 -24t65.5 -64.5t22 -90.5q0 -13 -4 -41q-10 -53 -39 -91z" />
    <glyph glyph-name="uni0418" unicode="&#x418;" horiz-adv-x="642" 
d="M545 698h111l-129 -732h-127l85 479l-367 -479h-111l129 732h126l-84 -475z" />
    <glyph glyph-name="uni0419" unicode="&#x419;" horiz-adv-x="642" 
d="M319 799q-34 34 -34 88q0 19 2 29h98q-1 -5 -1 -15q0 -24 10 -37.5t27 -13.5q22 0 33 17t16 49h103q-21 -151 -161 -151q-59 0 -93 34zM545 698h111l-129 -732h-126l84 479l-367 -479h-110l129 732h126l-84 -475z" />
    <glyph glyph-name="uni041A" unicode="&#x41a;" horiz-adv-x="605" 
d="M291 397l223 301h154l-269 -358l150 -374h-150l-119 306h-85l-54 -306h-134l129 732h134l-53 -301h74z" />
    <glyph glyph-name="uni041B" unicode="&#x41b;" horiz-adv-x="651" 
d="M664 698l-129 -732h-135l108 611h-193l-80 -358q-19 -85 -45 -140.5t-81 -90t-150 -34.5l22 123q39 0 62 16.5t36.5 49t26.5 92.5l102 463h456z" />
    <glyph glyph-name="uni041C" unicode="&#x41c;" horiz-adv-x="717" 
d="M630 698h101l-129 -732h-128l77 437l-173 -242h-69l-95 263l-81 -458h-126l129 732h104l129 -375z" />
    <glyph glyph-name="uni041D" unicode="&#x41d;" horiz-adv-x="638" 
d="M218 406h248l52 292h134l-129 -732h-134l56 319h-248l-56 -319h-134l129 732h134z" />
    <glyph glyph-name="uni041E" unicode="&#x41e;" horiz-adv-x="635" 
d="M171.5 626q86.5 85 205.5 85q112 0 176 -73t64 -209q0 -61 -11 -120q-33 -186 -120.5 -270.5t-206.5 -84.5q-113 0 -176 72.5t-63 208.5q0 56 12 122q33 184 119.5 269zM181 235q0 -78 28.5 -117.5t83.5 -39.5q63 0 106.5 55t66.5 185q10 59 10 109q0 79 -27.5 119.5
t-82.5 40.5q-64 0 -108 -56.5t-66 -184.5q-11 -66 -11 -111z" />
    <glyph glyph-name="uni041F" unicode="&#x41f;" horiz-adv-x="638" 
d="M136 698h516l-129 -732h-135l108 611h-247l-108 -611h-134z" />
    <glyph glyph-name="uni0420" unicode="&#x420;" horiz-adv-x="532" 
d="M328 698q107 0 164.5 -55.5t57.5 -146.5q0 -24 -5 -54q-19 -104 -91 -161t-187 -57h-80l-46 -258h-134l129 732h192zM408 484q0 47 -28 72.5t-74 25.5h-56l-43 -241h66q53 0 87.5 27.5t44.5 84.5q3 17 3 31z" />
    <glyph glyph-name="uni0421" unicode="&#x421;" horiz-adv-x="549" 
d="M260 531q-45 -56 -67 -182q-11 -64 -11 -109q0 -80 28.5 -121t80.5 -41q37 0 67.5 22.5t56.5 72.5l101 -63q-33 -76 -95.5 -116t-141.5 -40q-111 0 -174 73.5t-63 209.5q0 62 11 122q32 183 119 267.5t207 84.5q95 0 148.5 -49t55.5 -131l-117 -60q-6 56 -32.5 86
t-70.5 30q-58 0 -103 -56z" />
    <glyph glyph-name="uni0422" unicode="&#x422;" horiz-adv-x="506" 
d="M84 698h489l-21 -120h-177l-108 -612h-134l108 612h-178z" />
    <glyph glyph-name="uni0423" unicode="&#x423;" horiz-adv-x="565" 
d="M303 338l188 360h145l-300 -529q-45 -81 -77.5 -124.5t-72 -67t-96.5 -23.5t-88 25l24 132q33 -27 73 -27q32 0 55.5 18t55.5 68l-131 528h149z" />
    <glyph glyph-name="uni0424" unicode="&#x424;" horiz-adv-x="717" 
d="M487 620q98 -17 158.5 -80t60.5 -165q0 -33 -5 -61q-21 -117 -106 -188t-210 -84l-14 -76h-132l15 79q-99 17 -160 79t-61 165q0 30 6 63q21 116 105.5 187t210.5 84l13 75h132zM171 301q0 -53 27.5 -85.5t76.5 -44.5l58 328q-64 -11 -105 -49.5t-53 -106.5
q-4 -20 -4 -42zM568 365q0 105 -104 131l-57 -328q64 11 104 49t53 104q4 21 4 44z" />
    <glyph glyph-name="uni0425" unicode="&#x425;" horiz-adv-x="601" 
d="M334 464l169 234h157l-276 -360l158 -372h-154l-97 251l-184 -252l-155 1l288 376l-149 356h152z" />
    <glyph glyph-name="uni0426" unicode="&#x426;" horiz-adv-x="691" 
d="M408 87l108 611h135l-108 -611h86l-62 -293h-119l25 172h-466l129 732h136l-108 -611h244z" />
    <glyph glyph-name="uni0427" unicode="&#x427;" horiz-adv-x="606" 
d="M485 698h134l-129 -732h-134l49 273q-57 -31 -136 -31q-97 0 -152.5 43.5t-55.5 138.5q0 25 7 69l42 239h135l-39 -223q-5 -32 -5 -51q0 -46 23 -69t74 -23q52 0 91 28t53 93z" />
    <glyph glyph-name="uni0428" unicode="&#x428;" horiz-adv-x="876" 
d="M471 87h178l108 611h133l-130 -732h-753l130 732h133l-109 -611h177l108 611h133z" />
    <glyph glyph-name="uni0429" unicode="&#x429;" horiz-adv-x="931" 
d="M890 698l-108 -611h87l-63 -293h-118l26 172h-707l130 732h134l-108 -611h175l108 611h134l-107 -611h175l108 611h134z" />
    <glyph glyph-name="uni042A" unicode="&#x42a;" horiz-adv-x="692" 
d="M443 414q101 0 156 -54.5t55 -142.5q0 -24 -5 -54q-18 -102 -85.5 -149.5t-171.5 -47.5h-267l108 608h-170l22 124h307l-50 -284h101zM393 89q99 0 115 90q2 18 2 25q0 39 -25 63t-73 24h-92l-36 -202h109z" />
    <glyph glyph-name="uni042B" unicode="&#x42b;" horiz-adv-x="813" 
d="M321 414q101 0 156 -54.5t55 -142.5q0 -24 -5 -54q-17 -102 -84.5 -149.5t-171.5 -47.5h-264l129 732h134l-50 -284h101zM698 -34h-134l129 732h134zM199 294l-37 -207h106q52 0 81.5 22t37.5 70q3 14 3 27q0 41 -25.5 64.5t-76.5 23.5h-89z" />
    <glyph glyph-name="uni042C" unicode="&#x42c;" horiz-adv-x="571" 
d="M321 414q101 0 156 -54.5t55 -142.5q0 -24 -5 -54q-17 -102 -84.5 -149.5t-171.5 -47.5h-264l129 732h134l-50 -284h101zM268 87q52 0 81.5 22t37.5 70q3 14 3 27q0 41 -25.5 64.5t-76.5 23.5h-89l-37 -207h106z" />
    <glyph glyph-name="uni042D" unicode="&#x42d;" horiz-adv-x="544" 
d="M466 639q61 -72 61 -207q0 -57 -12 -126q-32 -184 -116 -268t-202 -84q-97 0 -153.5 51t-58.5 138l114 55q7 -59 36 -91t73 -32q117 0 163 204h-201l21 118h197q1 12 1 34q0 79 -27.5 119t-79.5 40q-37 0 -69.5 -23.5t-56.5 -74.5l-101 63q34 77 97 116.5t143 39.5
q110 0 171 -72z" />
    <glyph glyph-name="uni042E" unicode="&#x42e;" horiz-adv-x="842" 
d="M770.5 641.5q55.5 -69.5 55.5 -199.5q0 -65 -13 -136q-33 -185 -113 -268.5t-192 -83.5q-104 0 -159.5 69.5t-55.5 200.5q0 30 3 61h-99l-56 -319h-134l129 732h134l-52 -292h97q36 161 113 233t183 72q104 0 159.5 -69.5zM687 444q0 139 -88 139q-54 0 -93.5 -55.5
t-61.5 -183.5q-13 -76 -13 -122q0 -70 23 -105.5t67 -35.5q54 0 93 56.5t61 184.5q12 71 12 122z" />
    <glyph glyph-name="uni042F" unicode="&#x42f;" horiz-adv-x="566" 
d="M580 698l-129 -732h-135l49 273h-58q-10 0 -15 1l-190 -273l-161 -1l226 309q-41 26 -62 68.5t-21 94.5q0 22 5 52q18 101 89 154.5t176 53.5h226zM385 356l40 225h-67q-52 0 -86.5 -25t-44.5 -80q-3 -15 -3 -28q0 -46 28 -69t76 -23h57z" />
    <glyph glyph-name="uni0430" unicode="&#x430;" horiz-adv-x="519" 
d="M506 484l-92 -518h-114q6 40 7 64q-28 -40 -64.5 -58t-76.5 -18q-70 0 -111 51.5t-41 147.5q0 47 8 91q24 133 87 193t143 60q95 0 122 -85q10 34 18 72h114zM288.5 105.5q28.5 36.5 43.5 117.5q6 35 6 60q0 52 -20 75.5t-53 23.5q-86 0 -113 -150q-6 -34 -6 -62
q0 -50 18.5 -75.5t53.5 -25.5q42 0 70.5 36.5z" />
    <glyph glyph-name="uni0431" unicode="&#x431;" horiz-adv-x="498" 
d="M189 444q47 44 114 44q75 0 119.5 -54t44.5 -151q0 -36 -8 -84q-24 -133 -89.5 -189t-155.5 -56q-190 0 -190 233q0 64 15 151q20 116 54 194t90 128q30 27 64.5 40t65.5 16.5t79 4.5q44 1 70 4.5t46 14.5l-22 -120q-23 -15 -73 -15l-48 1q-35 0 -62.5 -7.5t-50.5 -28.5
q-38 -35 -63 -126zM197 335.5q-29 -34.5 -42 -107.5q-6 -33 -6 -58q0 -49 18.5 -74t50.5 -25q80 0 106 141q6 35 6 62q0 47 -17.5 71.5t-48.5 24.5q-38 0 -67 -34.5z" />
    <glyph glyph-name="uni0432" unicode="&#x432;" horiz-adv-x="464" 
d="M412.5 277q-20.5 -32 -54.5 -49q58 -30 58 -96q0 -15 -3 -30q-12 -68 -63 -102t-130 -34h-224l92 519h187q73 0 115.5 -35t42.5 -94q0 -47 -20.5 -79zM195 384l-18 -106h60q53 0 62 50q1 5 1 14q0 19 -12.5 30.5t-38.5 11.5h-54zM214 67q32 0 48.5 13t21.5 40q1 4 1 13
q0 46 -58 46h-68l-19 -112h74z" />
    <glyph glyph-name="uni0433" unicode="&#x433;" horiz-adv-x="380" 
d="M88 485h321l-21 -115h-192l-72 -404h-128z" />
    <glyph glyph-name="uni0434" unicode="&#x434;" horiz-adv-x="561" 
d="M509 484l-73 -410h77l-59 -280h-113l25 169h-284l-36 -169h-114l40 280h34q37 0 59.5 25.5t38.5 74t41 149.5l39 161h325zM262 302q-22 -92 -38 -142.5t-38 -85.5h127l52 297h-87z" />
    <glyph glyph-name="uni0435" unicode="&#x435;" horiz-adv-x="439" 
d="M312 133l85 -64q-28 -57 -82 -86t-114 -29q-84 0 -136 54.5t-52 157.5q0 39 7 78q24 132 95.5 192.5t162.5 60.5q76 0 116.5 -39t40.5 -106q0 -167 -235 -167q-18 0 -58 2q-7 -118 76 -118q60 0 94 64zM157 285q30 -3 55 -3q49 0 72.5 14t23.5 45q0 45 -49 45
q-74 0 -102 -101z" />
    <glyph glyph-name="uni0436" unicode="&#x436;" horiz-adv-x="712" 
d="M456 280l152 205h137l-188 -252l99 -267h-139l-73 204h-42l-36 -204h-127l37 204h-35l-145 -204h-148l194 267l-99 252h130l78 -205h44l36 205h127l-36 -205h34z" />
    <glyph glyph-name="uni0437" unicode="&#x437;" horiz-adv-x="417" 
d="M364.5 288.5q-29.5 -34.5 -85.5 -50.5q41 -13 63 -42.5t22 -69.5q0 -7 -2 -25q-11 -66 -69 -106.5t-142 -40.5q-76 0 -124.5 32.5t-61.5 94.5l100 61q9 -38 32.5 -55.5t61.5 -17.5q27 0 47 11t25 38q1 4 1 10q0 23 -18.5 36t-53.5 13h-47l19 108h37q40 0 63 14.5t23 43.5
q0 18 -12.5 29t-36.5 11q-51 0 -84 -50l-87 64q31 47 83.5 73.5t118.5 26.5q73 0 115 -33.5t42 -89.5q0 -51 -29.5 -85.5z" />
    <glyph glyph-name="uni0438" unicode="&#x438;" horiz-adv-x="521" 
d="M210 485l-52 -299l246 299h105l-92 -519h-124l53 300l-247 -300h-103l92 519h122z" />
    <glyph glyph-name="uni0439" unicode="&#x439;" horiz-adv-x="521" 
d="M222.5 583.5q-33.5 34.5 -33.5 94.5q0 18 3 36h97q-2 -18 -2 -24q0 -27 9 -41t26 -14q23 0 34.5 19.5t17.5 59.5h102q-11 -80 -51.5 -122.5t-110.5 -42.5q-58 0 -91.5 34.5zM210 485l-52 -299l246 299h105l-92 -519h-124l53 300l-247 -300h-103l92 519h122z" />
    <glyph glyph-name="uni043A" unicode="&#x43a;" horiz-adv-x="493" 
d="M236 282l149 202h140l-190 -251l100 -267h-137l-73 202h-65l-36 -202h-128l92 519h128l-35 -203h55z" />
    <glyph glyph-name="uni043B" unicode="&#x43b;" horiz-adv-x="507" 
d="M495 484l-92 -518h-129l71 403h-98l-41 -183q-18 -79 -42 -127.5t-73 -76.5t-134 -28l22 123q45 0 66 29t36 96l63 282h351z" />
    <glyph glyph-name="uni043C" unicode="&#x43c;" horiz-adv-x="597" 
d="M479 485h105l-92 -519h-114l51 289l-134 -195h-61l-71 201l-52 -295h-115l92 519h104l96 -278z" />
    <glyph glyph-name="uni043D" unicode="&#x43d;" horiz-adv-x="512" 
d="M182 286h153l35 199h130l-92 -519h-130l37 206h-153l-37 -206h-129l92 519h129z" />
    <glyph glyph-name="uni043E" unicode="&#x43e;" horiz-adv-x="491" 
d="M115 437.5q69 59.5 158 59.5q86 0 137 -53t51 -155q0 -36 -8 -84q-23 -135 -92 -193t-157 -58t-139 53t-51 154q0 35 8 83q24 134 93 193.5zM146 165q0 -96 69 -96q82 0 107 148q7 38 7 70q0 95 -68 95q-82 0 -108 -151q-7 -35 -7 -66z" />
    <glyph glyph-name="uni043F" unicode="&#x43f;" horiz-adv-x="512" 
d="M88 484h411l-92 -518h-129l72 404h-154l-72 -404h-128z" />
    <glyph glyph-name="uni0440" unicode="&#x440;" horiz-adv-x="519" 
d="M448 445.5q41 -51.5 41 -148.5q0 -47 -8 -91q-24 -132 -87 -192t-143 -60q-86 0 -116 69l-53 -298h-128l134 759h113l-6 -64q54 77 142 77q70 0 111 -51.5zM307.5 104q29.5 36 43.5 115q6 35 6 62q0 100 -72 100q-38 0 -68.5 -33.5t-44.5 -116.5q-6 -36 -6 -64
q0 -52 19.5 -75.5t52.5 -23.5q40 0 69.5 36z" />
    <glyph glyph-name="uni0441" unicode="&#x441;" horiz-adv-x="411" 
d="M295 123l87 -59q-27 -58 -76.5 -84t-104.5 -26q-84 0 -135 54t-51 156q0 39 7 80q26 145 114 209q59 44 137 44q65 0 106 -34.5t45 -104.5l-104 -50q-4 38 -18 56t-41 18q-37 0 -65.5 -36t-42.5 -114q-6 -34 -6 -63q0 -49 18 -74.5t52 -25.5q49 0 78 54z" />
    <glyph glyph-name="uni0442" unicode="&#x442;" horiz-adv-x="427" 
d="M25 370l21 115h412l-21 -115h-142l-71 -404h-129l71 404h-141z" />
    <glyph glyph-name="uni0443" unicode="&#x443;" horiz-adv-x="478" 
d="M221 146l161 338h132l-294 -588q-47 -94 -96.5 -138.5t-124.5 -44.5q-35 0 -63.5 10.5t-46.5 29.5l64 101q22 -24 54 -24q28 0 50.5 22t54.5 82l20 37l-93 513h135z" />
    <glyph glyph-name="uni0444" unicode="&#x444;" horiz-adv-x="663" 
d="M431 491q90 -16 145 -74.5t55 -152.5q0 -23 -5 -56q-21 -120 -97.5 -180.5t-191.5 -71.5l-41 -231h-124l41 235q-89 17 -142.5 73t-53.5 149q0 24 5 57q19 116 96.5 179.5t188.5 75.5l30 168h125zM149 194q0 -94 85 -119l53 304q-113 -20 -135 -145q-3 -21 -3 -40z
M498 253q0 51 -23 81.5t-64 42.5l-54 -307q56 8 91 41t46 100q4 20 4 42z" />
    <glyph glyph-name="uni0445" unicode="&#x445;" horiz-adv-x="451" 
d="M238 336l108 148h141l-204 -261l112 -257h-139l-58 149l-108 -149h-142l204 263l-112 255h140z" />
    <glyph glyph-name="uni0446" unicode="&#x446;" horiz-adv-x="571" 
d="M499 484l-71 -403h81l-60 -287h-113l26 172h-366l92 518h128l-71 -403h154l71 403h129z" />
    <glyph glyph-name="uni0447" unicode="&#x447;" horiz-adv-x="497" 
d="M355 485h129l-92 -519h-129l30 170q-42 -28 -105 -28q-71 0 -111.5 32.5t-40.5 103.5q0 29 5 54l33 187h130l-28 -161q-3 -18 -3 -34q0 -30 14.5 -45.5t45.5 -15.5q73 0 91 81z" />
    <glyph glyph-name="uni0448" unicode="&#x448;" horiz-adv-x="695" 
d="M376 81h111l71 404h124l-92 -519h-594l92 519h124l-72 -404h112l71 404h124z" />
    <glyph glyph-name="uni0449" unicode="&#x449;" horiz-adv-x="754" 
d="M682 485l-71 -404h81l-60 -287h-112l26 172h-550l92 519h124l-72 -404h112l71 404h124l-71 -404h111l71 404h124z" />
    <glyph glyph-name="uni044A" unicode="&#x44a;" horiz-adv-x="574" 
d="M358 307q84 0 128 -41.5t44 -108.5q0 -21 -4 -40q-13 -76 -65.5 -113.5t-137.5 -37.5h-222l72 404h-143l20 114h272l-32 -177h68zM320 73q30 0 49.5 12.5t25.5 46.5q2 12 2 17q0 27 -18 38.5t-50 11.5h-57l-23 -126h71z" />
    <glyph glyph-name="uni044B" unicode="&#x44b;" horiz-adv-x="688" 
d="M252 307q85 0 128.5 -42t43.5 -109q0 -19 -3 -39q-13 -76 -66 -113.5t-137 -37.5h-222l92 518h128l-31 -177h67zM584 -34h-129l92 518h129zM214 73q31 0 50.5 12.5t24.5 46.5q2 14 2 18q0 49 -67 49h-58l-23 -126h71z" />
    <glyph glyph-name="uni044C" unicode="&#x44c;" horiz-adv-x="468" 
d="M252 307q85 0 128.5 -42t43.5 -109q0 -19 -3 -39q-13 -76 -66 -113.5t-137 -37.5h-222l92 518h128l-31 -177h67zM214 73q31 0 50.5 12.5t24.5 46.5q2 14 2 18q0 49 -67 49h-58l-23 -126h71z" />
    <glyph glyph-name="uni044D" unicode="&#x44d;" horiz-adv-x="407" 
d="M324.5 443q51.5 -54 51.5 -157q0 -40 -7 -79q-24 -134 -93 -193.5t-153 -59.5q-66 0 -111 34.5t-48 101.5l104 50q4 -37 22 -56t48 -19q69 0 97 114h-135l19 105h131q1 50 -18 75.5t-54 25.5q-51 0 -78 -54l-87 59q27 56 75.5 81.5t101.5 25.5q83 0 134.5 -54z" />
    <glyph glyph-name="uni044E" unicode="&#x44e;" horiz-adv-x="692" 
d="M614 444q48 -53 48 -153q0 -44 -8 -85q-23 -134 -89 -193t-150 -59t-132 57t-44 164h-79l-37 -209h-127l92 518h127l-35 -195h77q29 109 91 158.5t137 49.5q81 0 129 -53zM532 288q0 46 -16 68.5t-44 22.5q-72 0 -98 -146q-7 -38 -7 -69q0 -46 16 -69t43 -23
q33 0 59.5 34t39.5 112q7 38 7 70z" />
    <glyph glyph-name="uni044F" unicode="&#x44f;" horiz-adv-x="488" 
d="M476 485l-92 -519h-128l33 185h-47h-2l-140 -184l-148 -1l166 212q-31 18 -47 48.5t-16 69.5q0 18 3 36q13 73 67.5 113t141.5 40h209zM309 260l19 114h-69q-29 0 -48 -13.5t-24 -40.5q-1 -4 -1 -12q0 -22 14.5 -35t41.5 -13h67z" />
    <glyph glyph-name="uni0450" unicode="&#x450;" horiz-adv-x="439" 
d="M167 714h120l42 -165h-88zM312 133l85 -64q-28 -57 -82 -86t-114 -29q-84 0 -136 54.5t-52 157.5q0 39 7 78q24 132 95.5 192.5t162.5 60.5q76 0 116.5 -39t40.5 -106q0 -167 -235 -167q-18 0 -58 2q-7 -118 76 -118q60 0 94 64zM157 285q30 -3 55 -3q49 0 72.5 14
t23.5 45q0 45 -49 45q-74 0 -102 -101z" />
    <glyph glyph-name="uni0451" unicode="&#x451;" horiz-adv-x="439" 
d="M149 578q-22 23 -22 53q0 32 22 54.5t53 22.5t53 -22.5t22 -54.5q0 -30 -22.5 -53t-52.5 -23q-31 0 -53 23zM348 578q-22 23 -22 53q0 32 22 54.5t53 22.5t53 -22.5t22 -54.5q0 -30 -22 -53t-53 -23t-53 23zM312 133l85 -64q-28 -57 -82 -86t-114 -29q-84 0 -136 54.5
t-52 157.5q0 39 7 78q24 132 95.5 192.5t162.5 60.5q76 0 116.5 -39t40.5 -106q0 -167 -235 -167q-18 0 -58 2q-7 -118 76 -118q60 0 94 64zM157 285q30 -3 55 -3q49 0 72.5 14t23.5 45q0 45 -49 45q-74 0 -102 -101z" />
    <glyph glyph-name="uni0452" unicode="&#x452;" horiz-adv-x="512" 
d="M444 458q32 -39 32 -113q0 -34 -8 -80l-63 -354q-18 -105 -65.5 -152t-120.5 -47q-76 0 -118 45l67 96q20 -23 49 -23q24 0 38 20t23 72l58 322q6 33 6 60q0 71 -52 71q-36 0 -64 -31.5t-40 -96.5l-49 -281h-128l102 576h-60l17 98h60l16 87h128l-16 -87h115l-18 -98
h-114l-20 -108q56 63 132 63q61 0 93 -39z" />
    <glyph glyph-name="uni0453" unicode="&#x453;" horiz-adv-x="380" 
d="M213 551l88 165h124l-114 -165h-98zM88 485h321l-21 -115h-192l-72 -404h-128z" />
    <glyph glyph-name="uni0454" unicode="&#x454;" horiz-adv-x="411" 
d="M299 120l82 -59q-26 -57 -75.5 -82t-104.5 -25q-84 0 -135 54t-51 156q0 39 7 80q24 134 95.5 193.5t156.5 59.5q64 0 105 -34t45 -102l-100 -51q-7 38 -22 56.5t-44 18.5q-71 0 -99 -106h130l-18 -105h-129q-3 -54 17 -81t57 -27q51 0 83 54z" />
    <glyph glyph-name="uni0455" unicode="&#x455;" horiz-adv-x="385" 
d="M284 -6q-50 -40 -131 -40q-74 0 -121 39t-54 107l102 51q4 -45 24.5 -67t51.5 -22q26 0 41 14t15 38q0 23 -17 39t-53 39q-33 21 -53.5 37t-35 41.5t-14.5 59.5q0 41 16.5 74.5t44.5 54.5q50 38 125 38q74 0 116 -38.5t45 -94.5l-102 -50q-4 35 -20.5 55.5t-43.5 20.5
q-22 0 -36 -12t-14 -33t16 -36t51 -36q34 -22 55 -39t36.5 -43.5t15.5 -62.5q0 -15 -3 -32q-10 -63 -57 -102z" />
    <glyph glyph-name="uni0456" unicode="&#x456;" horiz-adv-x="231" 
d="M126 581q-22 23 -22 54q0 32 22 55t53 23t53.5 -23t22.5 -55q0 -31 -22.5 -54t-53.5 -23t-53 23zM127 -34h-128l92 518h128z" />
    <glyph glyph-name="uni0457" unicode="&#x457;" horiz-adv-x="260" 
d="M60 578.5q-21 22.5 -21 53.5t21 53t51 22q31 0 52.5 -22t21.5 -53t-21.5 -53.5t-52.5 -22.5q-30 0 -51 22.5zM223.5 578.5q-21.5 22.5 -21.5 53.5t21.5 53t51.5 22q31 0 52.5 -22t21.5 -53t-21.5 -53.5t-52.5 -22.5q-30 0 -51.5 22.5zM12 -34l92 518h128l-92 -518h-128z
" />
    <glyph glyph-name="uni0458" unicode="&#x458;" horiz-adv-x="220" 
d="M121 581q-22 23 -22 54q0 32 22.5 55t52.5 23q32 0 54.5 -23t22.5 -55t-22.5 -54.5t-54.5 -22.5q-31 0 -53 23zM-160 -274q-31 13 -47 34l66 97q22 -27 54 -27q31 0 48.5 26t28.5 89l96 539h128l-99 -557q-20 -116 -72.5 -165t-129.5 -49q-42 0 -73 13z" />
    <glyph glyph-name="uni0459" unicode="&#x459;" horiz-adv-x="746" 
d="M530 307q85 0 128.5 -42t43.5 -109q0 -19 -3 -39q-13 -76 -65.5 -113.5t-137.5 -37.5h-222l73 409h-99l-42 -189q-18 -79 -42 -127.5t-73 -76.5t-134 -28l22 123q45 0 66 29t36 96l63 282h350l-31 -177h67zM492 73q31 0 50.5 12.5t25.5 46.5q2 12 2 17q0 27 -18 38.5
t-50 11.5h-58l-23 -126h71z" />
    <glyph glyph-name="uni045A" unicode="&#x45a;" horiz-adv-x="750" 
d="M535 307q84 0 128 -41.5t44 -108.5q0 -21 -4 -40q-13 -76 -65.5 -113.5t-137.5 -37.5h-222l40 226h-153l-40 -226h-129l92 519h129l-33 -185h153l33 184h129l-32 -177h68zM497 73q30 0 49.5 12.5t25.5 46.5q2 12 2 17q0 27 -18 38.5t-50 11.5h-58l-23 -126h72z" />
    <glyph glyph-name="uni045B" unicode="&#x45b;" horiz-adv-x="506" 
d="M437 458q32 -39 32 -113q0 -34 -8 -80l-53 -299h-128l49 278q6 33 6 60q0 71 -52 71q-36 0 -64 -31.5t-39 -96.5l-50 -281h-128l102 576h-60l18 98h60l15 87h128l-16 -87h115l-18 -98h-114l-19 -108q54 63 132 63q60 0 92 -39z" />
    <glyph glyph-name="uni045C" unicode="&#x45c;" horiz-adv-x="493" 
d="M256 549l88 165h124l-114 -165h-98zM236 282l149 202h140l-190 -251l100 -267h-137l-73 202h-65l-36 -202h-128l92 519h128l-35 -203h55z" />
    <glyph glyph-name="uni045D" unicode="&#x45d;" horiz-adv-x="521" 
d="M190 715h119l43 -165h-88zM210 485l-52 -299l246 299h105l-92 -519h-124l53 300l-247 -300h-103l92 519h122z" />
    <glyph glyph-name="uni045E" unicode="&#x45e;" horiz-adv-x="478" 
d="M202.5 584.5q-33.5 35.5 -33.5 95.5q0 16 3 34h97q-1 -8 -1 -23q0 -27 9 -41.5t26 -14.5q22 0 33.5 19.5t17.5 59.5h103q-24 -165 -163 -165q-58 0 -91.5 35.5zM221 146l161 338h132l-294 -588q-47 -94 -96.5 -138.5t-124.5 -44.5q-35 0 -63.5 10.5t-46.5 29.5l64 101
q22 -24 54 -24q28 0 50.5 22t54.5 82l20 37l-93 513h135z" />
    <glyph glyph-name="uni045F" unicode="&#x45f;" horiz-adv-x="512" 
d="M145 80h153l72 405h130l-92 -519h-143l-36 -172h-113l26 172h-146l92 519h129z" />
    <glyph glyph-name="uni0462" unicode="&#x462;" horiz-adv-x="645" 
d="M395 395q101 0 156 -52t55 -137q0 -22 -5 -52q-17 -98 -84.5 -143t-171.5 -45h-264l93 529h-128l18 104h128l18 99h134l-18 -99h180l-19 -104h-180l-17 -100h105zM345 85q101 0 117 85q2 16 2 24q0 38 -25 60t-75 22h-95l-34 -191h110z" />
    <glyph glyph-name="uni0463" unicode="&#x463;" horiz-adv-x="526" 
d="M310 300q84 0 128 -41t44 -106q0 -22 -4 -39q-13 -75 -65.5 -111.5t-137.5 -36.5h-222l75 420h-102l18 98h101l43 243h129l-43 -243h140l-17 -98h-141l-15 -86h69zM272 71q30 0 49.5 12t25.5 46q2 12 2 17q0 27 -18 37.5t-50 10.5h-59l-21 -123h71z" />
    <glyph glyph-name="uni046B" unicode="&#x46b;" horiz-adv-x="580" 
d="M377 255q63 -5 100.5 -48t37.5 -137q0 -47 -10 -104h-118q9 46 9 89q0 55 -18.5 74t-51.5 21l-32 -184h-116l33 183q-44 1 -75.5 -36t-50.5 -147h-118q28 157 88.5 222t143.5 69l-114 227l486 1zM293 299l70 87l-112 1z" />
    <glyph glyph-name="uni0472" unicode="&#x472;" horiz-adv-x="635" 
d="M553 638q64 -73 64 -209q0 -61 -11 -120q-33 -186 -120.5 -270.5t-206.5 -84.5q-113 0 -176 72.5t-63 208.5q0 56 12 122q33 184 119.5 269t205.5 85q112 0 176 -73zM200 396h276q1 11 1 31q0 78 -28.5 119t-83.5 41q-119 0 -165 -191zM392 124q41 46 65 151h-276
q-1 -13 -1 -37q0 -79 29 -119.5t84 -40.5q58 0 99 46z" />
    <glyph glyph-name="uni0473" unicode="&#x473;" horiz-adv-x="491" 
d="M410 444q51 -53 51 -155q0 -36 -8 -84q-23 -135 -92 -193t-157 -58t-139 53t-51 154q0 35 8 83q24 134 93 193.5t158 59.5q86 0 137 -53zM165 283h164q1 51 -17 75t-51 24q-68 0 -96 -99zM313 177h-166q-3 -55 15 -81.5t52 -26.5q71 0 99 108z" />
    <glyph glyph-name="uni0474" unicode="&#x474;" horiz-adv-x="675" 
d="M721.5 699.5q25.5 -11.5 43.5 -30.5l-63 -107q-17 22 -44 22q-22 0 -40 -17t-37 -55l-274 -546h-108l-116 732h155l58 -497l155 339q43 91 87.5 131t115.5 40q42 0 67.5 -11.5z" />
    <glyph glyph-name="uni0475" unicode="&#x475;" horiz-adv-x="529" 
d="M568 455l-55 -95q-13 24 -35 24q-19 0 -35.5 -16.5t-32.5 -50.5l-178 -350h-107l-85 517h139l34 -322l92 191q36 76 73.5 110t95.5 34q64 0 94 -42z" />
    <glyph glyph-name="uni0490" unicode="&#x490;" horiz-adv-x="466" 
d="M136 698h270l47 150h119l-66 -270h-258l-107 -612h-134z" />
    <glyph glyph-name="uni0491" unicode="&#x491;" horiz-adv-x="388" 
d="M88 485h219l41 125h112l-59 -240h-205l-72 -404h-128z" />
    <glyph glyph-name="uni0492" unicode="&#x492;" horiz-adv-x="481" 
d="M142 698h406l-22 -121h-272l-34 -192h107l-22 -121h-106l-53 -298h-133l52 298h-66l21 121h66z" />
    <glyph glyph-name="uni0493" unicode="&#x493;" horiz-adv-x="408" 
d="M117 485h331l-21 -115h-202l-18 -107h107l-20 -114h-108l-32 -183h-129l33 183h-69l21 114h68z" />
    <glyph glyph-name="uni0497" unicode="&#x497;" horiz-adv-x="748" 
d="M608 485h137l-188 -252l60 -158h97l-59 -281h-113l25 172h-50l-73 204h-42l-36 -204h-127l37 204h-35l-145 -204h-148l194 267l-99 252h130l78 -205h44l36 205h127l-36 -205h34z" />
    <glyph glyph-name="uni049A" unicode="&#x49a;" horiz-adv-x="609" 
d="M514 698h154l-269 -358l103 -254h86l-61 -292h-118l25 172h-35l-119 306h-85l-54 -306h-134l129 732h134l-53 -301h74z" />
    <glyph glyph-name="uni049B" unicode="&#x49b;" horiz-adv-x="513" 
d="M385 484h140l-190 -251l62 -158h82l-59 -281h-112l24 172h-34l-73 202h-65l-36 -202h-128l92 519h128l-35 -203h55z" />
    <glyph glyph-name="uni049C" unicode="&#x49c;" horiz-adv-x="623" 
d="M346 397l198 301h141l-237 -358l119 -374h-138l-93 306h-22l-24 -136h-90l24 136h-36l-54 -306h-127l129 732h127l-53 -301h36l24 138h90l-24 -138h10z" />
    <glyph glyph-name="uni049D" unicode="&#x49d;" horiz-adv-x="514" 
d="M285 282l132 202h130l-168 -251l79 -267h-127l-59 202h-14l-15 -91h-83l16 91h-22l-36 -202h-122l92 519h122l-35 -203h22l16 92h82l-16 -92h6z" />
    <glyph glyph-name="uni04A2" unicode="&#x4a2;" horiz-adv-x="684" 
d="M518 698h134l-109 -612h89l-61 -292h-118l25 172h-89l56 319h-248l-56 -319h-134l129 732h134l-52 -292h248z" />
    <glyph glyph-name="uni04A3" unicode="&#x4a3;" horiz-adv-x="565" 
d="M370 485h130l-73 -410h85l-60 -281h-112l25 172h-87l37 206h-153l-37 -206h-129l92 519h129l-35 -199h153z" />
    <glyph glyph-name="uni04AE" unicode="&#x4ae;" horiz-adv-x="564" 
d="M307 397l181 301h147l-283 -443l-52 -289h-136l52 291l-137 441h150z" />
    <glyph glyph-name="uni04AF" unicode="&#x4af;" horiz-adv-x="477" 
d="M220 163l156 321h137l-254 -482l-49 -277h-131l50 280l-89 479h136z" />
    <glyph glyph-name="uni04B0" unicode="&#x4b0;" horiz-adv-x="564" 
d="M307 397l181 301h147l-226 -354h118l-20 -121h-161l-46 -257h-136l46 257h-161l21 121h119l-110 354h150z" />
    <glyph glyph-name="uni04B1" unicode="&#x4b1;" horiz-adv-x="477" 
d="M220 163l156 321h137l-214 -405h111l-21 -113h-136l-43 -241h-131l43 241h-135l20 113h107l-74 405h136z" />
    <glyph glyph-name="uni04B2" unicode="&#x4b2;" horiz-adv-x="602" 
d="M503 698h157l-276 -360l107 -252h85l-61 -292h-118l24 172h-33l-97 251l-184 -252l-155 1l288 376l-149 356h152l91 -234z" />
    <glyph glyph-name="uni04B3" unicode="&#x4b3;" horiz-adv-x="470" 
d="M346 484h141l-204 -261l65 -148h86l-58 -281h-114l25 172h-31l-58 149l-108 -149h-142l204 263l-112 255h140l58 -148z" />
    <glyph glyph-name="uni04B8" unicode="&#x4b8;" horiz-adv-x="606" 
d="M488 698h132l-129 -732h-136l48 273q-35 -22 -76 -26l-24 -137h-91l24 133q-175 15 -175 181q0 25 7 69l42 239h131l-39 -223q-5 -32 -5 -52q0 -37 14.5 -58t46.5 -28l25 138h91l-25 -139q36 9 59.5 34t35.5 72z" />
    <glyph glyph-name="uni04B9" unicode="&#x4b9;" horiz-adv-x="513" 
d="M378 485h123l-92 -519h-127l31 175q-18 -15 -45 -22l-17 -96h-91l15 86q-65 5 -102 38.5t-37 99.5q0 20 5 50l33 188h124l-29 -164q-4 -26 -4 -34q0 -41 33 -51l18 101h91l-19 -101q47 14 58 71z" />
    <glyph glyph-name="uni04BA" unicode="&#x4ba;" horiz-adv-x="605" 
d="M141 -34h-134l129 732h134l-48 -273q56 31 136 31q97 0 152 -43t55 -138q0 -35 -7 -70l-42 -239h-134l39 223q5 32 5 51q0 46 -23.5 69t-74.5 23q-52 0 -90.5 -28t-53.5 -93z" />
    <glyph glyph-name="uni04BB" unicode="&#x4bb;" horiz-adv-x="499" 
d="M431 458q32 -39 32 -113q0 -34 -8 -80l-53 -299h-128l49 278q6 33 6 60q0 71 -52 71q-36 0 -64 -31.5t-40 -96.5l-49 -281h-128l135 761h128l-52 -293q27 31 60.5 47t70.5 16q61 0 93 -39z" />
    <glyph glyph-name="uni04CA" unicode="&#x4ca;" horiz-adv-x="565" 
d="M370 485h130l-73 -410h92l-134 -281h-122l70 172h-55l37 206h-153l-37 -206h-129l92 519h129l-35 -199h153z" />
    <glyph glyph-name="uni04D8" unicode="&#x4d8;" horiz-adv-x="591" 
d="M516 637.5q57 -73.5 57 -205.5q0 -60 -12 -131q-32 -177 -117 -262t-206 -85q-100 0 -159 51.5t-59 145.5q0 73 35 126.5t101.5 82.5t158.5 29q56 0 113 -10q3 29 3 53q0 75 -25.5 115t-74.5 40q-38 0 -72.5 -26t-62.5 -78l-98 71q44 84 110.5 120.5t139.5 36.5
q111 0 168 -73.5zM348 122.5q38 44.5 60 136.5q-46 7 -89 7q-80 0 -120 -27t-40 -79q0 -41 24 -61.5t66 -20.5q61 0 99 44.5z" />
    <glyph glyph-name="uni04D9" unicode="&#x4d9;" horiz-adv-x="440" 
d="M151 366.5q-23 -15.5 -41 -49.5l-85 65q28 57 82 86t114 29q84 0 136 -54.5t52 -157.5q0 -39 -7 -78q-24 -132 -95 -192.5t-162 -60.5q-76 0 -116.5 38.5t-40.5 106.5q0 167 232 167q29 0 60 -3q7 119 -76 119q-30 0 -53 -15.5zM265 165q-31 3 -57 3q-48 0 -71 -14
t-23 -45q0 -44 50 -44q74 0 101 100z" />
    <glyph glyph-name="uni04E8" unicode="&#x4e8;" horiz-adv-x="635" 
d="M553 638q64 -73 64 -209q0 -61 -11 -120q-33 -186 -120.5 -270.5t-206.5 -84.5q-113 0 -176 72.5t-63 208.5q0 56 12 122q33 184 119.5 269t205.5 85q112 0 176 -73zM200 396h276q1 11 1 31q0 78 -28.5 119t-83.5 41q-119 0 -165 -191zM392 124q41 46 65 151h-276
q-1 -13 -1 -37q0 -79 29 -119.5t84 -40.5q58 0 99 46z" />
    <glyph glyph-name="uni04E9" unicode="&#x4e9;" horiz-adv-x="491" 
d="M410 444q51 -53 51 -155q0 -36 -8 -84q-23 -135 -92 -193t-157 -58t-139 53t-51 154q0 35 8 83q24 134 93 193.5t158 59.5q86 0 137 -53zM165 283h164q1 51 -17 75t-51 24q-68 0 -96 -99zM313 177h-166q-3 -55 15 -81.5t52 -26.5q71 0 99 108z" />
    <glyph glyph-name="uni1E00" unicode="&#x1e00;" horiz-adv-x="624" 
d="M449 698l113 -732h-143l-20 167h-222l-78 -167h-145l367 732h128zM385 254l-31 264l-122 -264h153zM165.5 -97.5q34.5 30.5 85.5 30.5q52 0 85.5 -30.5t33.5 -79.5q0 -50 -33.5 -80.5t-85.5 -30.5q-51 0 -85.5 31t-34.5 80t34.5 79.5zM218 -208q12 -12 33 -12
q20 0 32.5 12t12.5 31t-12.5 31t-32.5 12q-21 0 -33 -12t-12 -31t12 -31z" />
    <glyph glyph-name="uni1E01" unicode="&#x1e01;" horiz-adv-x="519" 
d="M506 484l-92 -518h-114q6 40 7 64q-28 -40 -64.5 -58t-76.5 -18q-70 0 -111 51.5t-41 147.5q0 47 8 91q24 133 87 193t143 60q95 0 122 -85q10 34 18 72h114zM288.5 105.5q28.5 36.5 43.5 117.5q6 35 6 60q0 52 -20 75.5t-53 23.5q-86 0 -113 -150q-6 -34 -6 -62
q0 -50 18.5 -75.5t53.5 -25.5q42 0 70.5 36.5zM96 -97.5q34 30.5 86 30.5t85.5 -30.5t33.5 -79.5q0 -50 -33.5 -80.5t-85.5 -30.5t-86 30.5t-34 80.5q0 49 34 79.5zM149 -208q12 -12 33 -12q20 0 32.5 12t12.5 31t-12.5 31t-32.5 12q-21 0 -33 -12t-12 -31t12 -31z" />
    <glyph glyph-name="uni1E3E" unicode="&#x1e3e;" horiz-adv-x="717" 
d="M401 766l86 149h124l-112 -149h-98zM630 698h101l-129 -732h-128l77 437l-173 -242h-69l-95 263l-81 -458h-126l129 732h104l129 -375z" />
    <glyph glyph-name="uni1E3F" unicode="&#x1e3f;" horiz-adv-x="711" 
d="M396 549l88 165h124l-114 -165h-98zM649.5 464.5q27.5 -32.5 27.5 -98.5q0 -32 -8 -80l-56 -320h-124l48 269q8 46 8 72q0 65 -42 65q-29 0 -52.5 -28t-32.5 -83l-52 -295h-123l47 269q8 46 8 74q0 32 -10 47.5t-32 15.5q-30 0 -52.5 -29.5t-33.5 -89.5l-51 -287h-123
l92 518h113q-1 -8 -3.5 -29t-3.5 -37q55 79 131 79q42 0 68.5 -21.5t36.5 -63.5q58 85 141 85q51 0 78.5 -32.5z" />
    <glyph glyph-name="Wgrave" unicode="&#x1e80;" horiz-adv-x="868" 
d="M400 915h118l43 -149h-88zM567 698l30 -500l199 500h139l-320 -732h-114l-38 466l-200 -466h-114l-65 732h138l27 -500l202 500h116z" />
    <glyph glyph-name="wgrave" unicode="&#x1e81;" horiz-adv-x="703" 
d="M283 715h120l43 -165h-88zM441 484l28 -320l138 320h132l-251 -517h-95l-42 293l-141 -293h-97l-73 517h129l28 -326l139 326h105z" />
    <glyph glyph-name="Wacute" unicode="&#x1e82;" horiz-adv-x="868" 
d="M478 766l87 149h123l-112 -149h-98zM567 698l30 -500l199 500h139l-320 -732h-114l-38 466l-200 -466h-114l-65 732h138l27 -500l202 500h116z" />
    <glyph glyph-name="wacute" unicode="&#x1e83;" horiz-adv-x="703" 
d="M348 550l88 165h124l-114 -165h-98zM441 484l28 -320l138 320h132l-251 -517h-95l-42 293l-141 -293h-97l-73 517h129l28 -326l139 326h105z" />
    <glyph glyph-name="Wdieresis" unicode="&#x1e84;" horiz-adv-x="868" 
d="M388 791q-22 23 -22 53q0 32 22 54.5t53 22.5t53 -22.5t22 -54.5q0 -30 -22 -53t-53 -23t-53 23zM575 791q-22 23 -22 53q0 32 22 54.5t53 22.5t53 -22.5t22 -54.5q0 -30 -22.5 -53t-52.5 -23q-31 0 -53 23zM567 698l30 -500l199 500h139l-320 -732h-114l-38 466
l-200 -466h-114l-65 732h138l27 -500l202 500h116z" />
    <glyph glyph-name="wdieresis" unicode="&#x1e85;" horiz-adv-x="703" 
d="M266 579q-22 23 -22 53q0 32 21.5 54.5t52.5 22.5t53 -22.5t22 -54.5q0 -30 -22 -53t-53 -23q-30 0 -52 23zM465 579q-22 23 -22 53q0 32 21.5 54.5t52.5 22.5t53.5 -22.5t22.5 -54.5q0 -30 -22.5 -53t-53.5 -23q-30 0 -52 23zM441 484l28 -320l138 320h132l-251 -517
h-95l-42 293l-141 -293h-97l-73 517h129l28 -326l139 326h105z" />
    <glyph glyph-name="uni1EA0" unicode="&#x1ea0;" horiz-adv-x="624" 
d="M449 698l113 -732h-143l-20 167h-222l-78 -167h-145l367 732h128zM385 254l-31 264l-122 -264h153zM180 -237q-24 25 -24 60t24 59.5t58 24.5q35 0 59.5 -25t24.5 -59q0 -35 -24.5 -60t-59.5 -25q-34 0 -58 25z" />
    <glyph glyph-name="uni1EA1" unicode="&#x1ea1;" horiz-adv-x="519" 
d="M506 484l-92 -518h-114q6 40 7 64q-28 -40 -64.5 -58t-76.5 -18q-70 0 -111 51.5t-41 147.5q0 47 8 91q24 133 87 193t143 60q95 0 122 -85q10 34 18 72h114zM288.5 105.5q28.5 36.5 43.5 117.5q6 35 6 60q0 52 -20 75.5t-53 23.5q-86 0 -113 -150q-6 -34 -6 -62
q0 -50 18.5 -75.5t53.5 -25.5q42 0 70.5 36.5zM111 -237q-24 25 -24 60t24 59.5t58 24.5q35 0 59.5 -25t24.5 -59q0 -35 -24.5 -60t-59.5 -25q-34 0 -58 25z" />
    <glyph glyph-name="uni1EA2" unicode="&#x1ea2;" horiz-adv-x="624" 
d="M314 920q50 22 101 22q40 0 64.5 -19.5t24.5 -55.5q0 -43 -35 -77.5t-85 -51.5l-31 62q26 9 40.5 19.5t14.5 26.5q0 9 -7 14t-20 5q-29 0 -62 -19zM449 698l113 -732h-143l-20 167h-222l-78 -167h-145l367 732h128zM385 254l-31 264l-122 -264h153z" />
    <glyph glyph-name="uni1EA3" unicode="&#x1ea3;" horiz-adv-x="519" 
d="M234 725q46 21 96 21q42 0 67.5 -22.5t25.5 -60.5q0 -47 -34.5 -82t-84.5 -53l-33 64q53 20 53 51q0 10 -7 16.5t-21 6.5q-27 0 -58 -18zM506 484l-92 -518h-114q6 40 7 64q-28 -40 -64.5 -58t-76.5 -18q-70 0 -111 51.5t-41 147.5q0 47 8 91q24 133 87 193t143 60
q95 0 122 -85q10 34 18 72h114zM288.5 105.5q28.5 36.5 43.5 117.5q6 35 6 60q0 52 -20 75.5t-53 23.5q-86 0 -113 -150q-6 -34 -6 -62q0 -50 18.5 -75.5t53.5 -25.5q42 0 70.5 36.5z" />
    <glyph glyph-name="uni1EA4" unicode="&#x1ea4;" horiz-adv-x="624" 
d="M490 849l80 88h130l-105 -88h-105zM377 834h89l82 -89h-109l-30 34l-51 -34h-120zM449 698l113 -732h-143l-20 167h-222l-78 -167h-145l367 732h128zM385 254l-31 264l-122 -264h153z" />
    <glyph glyph-name="uni1EA5" unicode="&#x1ea5;" horiz-adv-x="519" 
d="M382 738l88 142h125l-111 -142h-102zM290 714h88l82 -165h-103l-36 80l-62 -80h-109zM506 484l-92 -518h-114q6 40 7 64q-28 -40 -64.5 -58t-76.5 -18q-70 0 -111 51.5t-41 147.5q0 47 8 91q24 133 87 193t143 60q95 0 122 -85q10 34 18 72h114zM288.5 105.5
q28.5 36.5 43.5 117.5q6 35 6 60q0 52 -20 75.5t-53 23.5q-86 0 -113 -150q-6 -34 -6 -62q0 -50 18.5 -75.5t53.5 -25.5q42 0 70.5 36.5z" />
    <glyph glyph-name="uni1EA6" unicode="&#x1ea6;" horiz-adv-x="624" 
d="M412 937h118l43 -88h-88zM377 834h89l82 -89h-109l-30 34l-51 -34h-120zM449 698l113 -732h-143l-20 167h-222l-78 -167h-145l367 732h128zM385 254l-31 264l-122 -264h153z" />
    <glyph glyph-name="uni1EA7" unicode="&#x1ea7;" horiz-adv-x="519" 
d="M329 880h115l44 -142h-83zM290 714h88l82 -165h-103l-36 80l-62 -80h-109zM506 484l-92 -518h-114q6 40 7 64q-28 -40 -64.5 -58t-76.5 -18q-70 0 -111 51.5t-41 147.5q0 47 8 91q24 133 87 193t143 60q95 0 122 -85q10 34 18 72h114zM288.5 105.5q28.5 36.5 43.5 117.5
q6 35 6 60q0 52 -20 75.5t-53 23.5q-86 0 -113 -150q-6 -34 -6 -62q0 -50 18.5 -75.5t53.5 -25.5q42 0 70.5 36.5z" />
    <glyph glyph-name="uni1EA8" unicode="&#x1ea8;" horiz-adv-x="624" 
d="M451 940q55 13 101 13q39 0 64 -12t25 -33q0 -26 -35 -46t-85 -30l-31 41q48 6 54 17l1 2q0 3 -7.5 5.5t-19.5 2.5q-22 0 -62 -8zM377 834h89l82 -89h-109l-30 34l-51 -34h-120zM449 698l113 -732h-143l-20 167h-222l-78 -167h-145l367 732h128zM385 254l-31 264
l-122 -264h153z" />
    <glyph glyph-name="uni1EA9" unicode="&#x1ea9;" horiz-adv-x="519" 
d="M370 879q23 13 51 20.5t50 7.5q39 0 62 -20.5t23 -57.5q0 -52 -36 -89t-87 -55l-29 64q23 10 38 24.5t15 31.5q0 11 -7 17.5t-19 6.5q-27 0 -57 -25zM290 714h88l82 -165h-103l-36 80l-62 -80h-109zM506 484l-92 -518h-114q6 40 7 64q-28 -40 -64.5 -58t-76.5 -18
q-70 0 -111 51.5t-41 147.5q0 47 8 91q24 133 87 193t143 60q95 0 122 -85q10 34 18 72h114zM288.5 105.5q28.5 36.5 43.5 117.5q6 35 6 60q0 52 -20 75.5t-53 23.5q-86 0 -113 -150q-6 -34 -6 -62q0 -50 18.5 -75.5t53.5 -25.5q42 0 70.5 36.5z" />
    <glyph glyph-name="uni1EAA" unicode="&#x1eaa;" horiz-adv-x="624" 
d="M274 853q29 82 110 82q20 0 34 -4t35 -12q24 -10 34 -10q12 0 19.5 5.5t14.5 17.5h83q-15 -40 -43 -60t-66 -20q-21 0 -35.5 4t-33.5 12q-20 10 -34 10q-24 0 -35 -25h-83zM377 834h89l82 -89h-109l-30 34l-51 -34h-120zM449 698l113 -732h-143l-20 167h-222l-78 -167
h-145l367 732h128zM385 254l-31 264l-122 -264h153z" />
    <glyph glyph-name="uni1EAB" unicode="&#x1eab;" horiz-adv-x="519" 
d="M518 888q-14 -67 -42.5 -102t-65.5 -35q-21 0 -36 8.5t-33 24.5q-13 11 -20 15.5t-15 4.5q-23 0 -34 -48l-84 -1q29 138 110 138q20 0 35.5 -9t33.5 -25q12 -10 20 -15t15 -5q21 0 34 50zM290 714h88l82 -165h-103l-36 80l-62 -80h-109zM506 484l-92 -518h-114q6 40 7 64
q-28 -40 -64.5 -58t-76.5 -18q-70 0 -111 51.5t-41 147.5q0 47 8 91q24 133 87 193t143 60q95 0 122 -85q10 34 18 72h114zM288.5 105.5q28.5 36.5 43.5 117.5q6 35 6 60q0 52 -20 75.5t-53 23.5q-86 0 -113 -150q-6 -34 -6 -62q0 -50 18.5 -75.5t53.5 -25.5q42 0 70.5 36.5
z" />
    <glyph glyph-name="uni1EAC" unicode="&#x1eac;" horiz-adv-x="624" 
d="M380 915h89l82 -150h-101l-38 73l-63 -73h-108zM449 698l113 -732h-143l-20 167h-222l-78 -167h-145l367 732h128zM385 254l-31 264l-122 -264h153zM180 -237q-24 25 -24 60t24 59.5t58 24.5q35 0 59.5 -25t24.5 -59q0 -35 -24.5 -60t-59.5 -25q-34 0 -58 25z" />
    <glyph glyph-name="uni1EAD" unicode="&#x1ead;" horiz-adv-x="519" 
d="M290 714h88l82 -165h-103l-36 80l-62 -80h-109zM506 484l-92 -518h-114q6 40 7 64q-28 -40 -64.5 -58t-76.5 -18q-70 0 -111 51.5t-41 147.5q0 47 8 91q24 133 87 193t143 60q95 0 122 -85q10 34 18 72h114zM288.5 105.5q28.5 36.5 43.5 117.5q6 35 6 60q0 52 -20 75.5
t-53 23.5q-86 0 -113 -150q-6 -34 -6 -62q0 -50 18.5 -75.5t53.5 -25.5q42 0 70.5 36.5zM111 -237q-24 25 -24 60t24 59.5t58 24.5q35 0 59.5 -25t24.5 -59q0 -35 -24.5 -60t-59.5 -25q-34 0 -58 25z" />
    <glyph glyph-name="uni1EAE" unicode="&#x1eae;" horiz-adv-x="624" 
d="M380 860l81 88h130l-106 -88h-105zM303.5 764q-33.5 20 -33.5 52q0 11 2 17h103q-3 -12 5.5 -19t25.5 -7q20 0 30 6.5t14 19.5h108q-10 -42 -49.5 -65.5t-111.5 -23.5q-60 0 -93.5 20zM449 698l113 -732h-143l-20 167h-222l-78 -167h-145l367 732h128zM385 254l-31 264
l-122 -264h153z" />
    <glyph glyph-name="uni1EAF" unicode="&#x1eaf;" horiz-adv-x="519" 
d="M284 744l87 142h126l-111 -142h-102zM223.5 583q-33.5 35 -33.5 95q0 17 3 35h97q-2 -18 -2 -24q0 -27 9.5 -41t26.5 -14q22 0 33.5 19.5t17.5 59.5h102q-11 -80 -51.5 -122.5t-110.5 -42.5q-58 0 -91.5 35zM506 484l-92 -518h-114q6 40 7 64q-28 -40 -64.5 -58
t-76.5 -18q-70 0 -111 51.5t-41 147.5q0 47 8 91q24 133 87 193t143 60q95 0 122 -85q10 34 18 72h114zM288.5 105.5q28.5 36.5 43.5 117.5q6 35 6 60q0 52 -20 75.5t-53 23.5q-86 0 -113 -150q-6 -34 -6 -62q0 -50 18.5 -75.5t53.5 -25.5q42 0 70.5 36.5z" />
    <glyph glyph-name="uni1EB0" unicode="&#x1eb0;" horiz-adv-x="624" 
d="M302 948h119l43 -88h-88zM303.5 764q-33.5 20 -33.5 52q0 11 2 17h103q-3 -12 5.5 -19t25.5 -7q20 0 30 6.5t14 19.5h108q-10 -42 -49.5 -65.5t-111.5 -23.5q-60 0 -93.5 20zM449 698l113 -732h-143l-20 167h-222l-78 -167h-145l367 732h128zM385 254l-31 264l-122 -264
h153z" />
    <glyph glyph-name="uni1EB1" unicode="&#x1eb1;" horiz-adv-x="519" 
d="M230 886h116l44 -142h-84zM223.5 583q-33.5 35 -33.5 95q0 17 3 35h97q-2 -18 -2 -24q0 -27 9.5 -41t26.5 -14q22 0 33.5 19.5t17.5 59.5h102q-11 -80 -51.5 -122.5t-110.5 -42.5q-58 0 -91.5 35zM506 484l-92 -518h-114q6 40 7 64q-28 -40 -64.5 -58t-76.5 -18
q-70 0 -111 51.5t-41 147.5q0 47 8 91q24 133 87 193t143 60q95 0 122 -85q10 34 18 72h114zM288.5 105.5q28.5 36.5 43.5 117.5q6 35 6 60q0 52 -20 75.5t-53 23.5q-86 0 -113 -150q-6 -34 -6 -62q0 -50 18.5 -75.5t53.5 -25.5q42 0 70.5 36.5z" />
    <glyph glyph-name="uni1EB2" unicode="&#x1eb2;" horiz-adv-x="624" 
d="M334 949q49 13 101 13q40 0 65 -12t25 -33q0 -26 -35.5 -45.5t-85.5 -29.5l-31 41q48 6 54 17l1 2q0 3 -7.5 5.5t-19.5 2.5q-20 0 -62 -8zM303.5 764q-33.5 20 -33.5 52q0 11 2 17h103q-3 -12 5.5 -19t25.5 -7q20 0 30 6.5t14 19.5h108q-10 -42 -49.5 -65.5t-111.5 -23.5
q-60 0 -93.5 20zM449 698l113 -732h-143l-20 167h-222l-78 -167h-145l367 732h128zM385 254l-31 264l-122 -264h153z" />
    <glyph glyph-name="uni1EB3" unicode="&#x1eb3;" horiz-adv-x="519" 
d="M262 920q48 21 97 21q42 0 67.5 -22.5t25.5 -61.5q0 -47 -35 -81.5t-85 -52.5l-33 64q54 20 54 51q0 10 -7.5 16.5t-21.5 6.5q-26 0 -57 -18zM223.5 583q-33.5 35 -33.5 95q0 17 3 35h97q-2 -18 -2 -24q0 -27 9.5 -41t26.5 -14q22 0 33.5 19.5t17.5 59.5h102
q-11 -80 -51.5 -122.5t-110.5 -42.5q-58 0 -91.5 35zM506 484l-92 -518h-114q6 40 7 64q-28 -40 -64.5 -58t-76.5 -18q-70 0 -111 51.5t-41 147.5q0 47 8 91q24 133 87 193t143 60q95 0 122 -85q10 34 18 72h114zM288.5 105.5q28.5 36.5 43.5 117.5q6 35 6 60q0 52 -20 75.5
t-53 23.5q-86 0 -113 -150q-6 -34 -6 -62q0 -50 18.5 -75.5t53.5 -25.5q42 0 70.5 36.5z" />
    <glyph glyph-name="uni1EB4" unicode="&#x1eb4;" horiz-adv-x="624" 
d="M268 867q29 81 110 81q20 0 34 -4t35 -12q24 -10 34 -10q12 0 19.5 6t14.5 18h83q-15 -40 -43.5 -60.5t-65.5 -20.5q-21 0 -35.5 4t-33.5 12q-20 10 -34 10q-24 0 -35 -24h-83zM303.5 764q-33.5 20 -33.5 52q0 11 2 17h103q-3 -12 5.5 -19t25.5 -7q20 0 30 6.5t14 19.5
h108q-10 -42 -49.5 -65.5t-111.5 -23.5q-60 0 -93.5 20zM449 698l113 -732h-143l-20 167h-222l-78 -167h-145l367 732h128zM385 254l-31 264l-122 -264h153z" />
    <glyph glyph-name="uni1EB5" unicode="&#x1eb5;" horiz-adv-x="519" 
d="M184 758q29 138 110 138q20 0 35 -8.5t33 -24.5q13 -11 21 -16t15 -5q21 0 33 50h83q-14 -67 -42.5 -102.5t-65.5 -35.5q-21 0 -36 8.5t-33 24.5q-13 11 -20 15.5t-15 4.5q-23 0 -35 -49h-83zM223.5 583q-33.5 35 -33.5 95q0 17 3 35h97q-2 -18 -2 -24q0 -27 9.5 -41
t26.5 -14q22 0 33.5 19.5t17.5 59.5h102q-11 -80 -51.5 -122.5t-110.5 -42.5q-58 0 -91.5 35zM506 484l-92 -518h-114q6 40 7 64q-28 -40 -64.5 -58t-76.5 -18q-70 0 -111 51.5t-41 147.5q0 47 8 91q24 133 87 193t143 60q95 0 122 -85q10 34 18 72h114zM288.5 105.5
q28.5 36.5 43.5 117.5q6 35 6 60q0 52 -20 75.5t-53 23.5q-86 0 -113 -150q-6 -34 -6 -62q0 -50 18.5 -75.5t53.5 -25.5q42 0 70.5 36.5z" />
    <glyph glyph-name="uni1EB6" unicode="&#x1eb6;" horiz-adv-x="624" 
d="M307 798q-34 34 -34 88q0 19 2 29h98q-1 -5 -1 -15q0 -24 10 -37.5t27 -13.5q22 0 33 17t16 49h103q-10 -72 -49.5 -111.5t-111.5 -39.5q-59 0 -93 34zM449 698l113 -732h-143l-20 167h-222l-78 -167h-145l367 732h128zM385 254l-31 264l-122 -264h153zM180 -237
q-24 25 -24 60t24 59.5t58 24.5q35 0 59.5 -25t24.5 -59q0 -35 -24.5 -60t-59.5 -25q-34 0 -58 25z" />
    <glyph glyph-name="uni1EB7" unicode="&#x1eb7;" horiz-adv-x="519" 
d="M223.5 583q-33.5 35 -33.5 95q0 17 3 35h97q-2 -18 -2 -24q0 -27 9.5 -41t26.5 -14q22 0 33.5 19.5t17.5 59.5h102q-11 -80 -51.5 -122.5t-110.5 -42.5q-58 0 -91.5 35zM506 484l-92 -518h-114q6 40 7 64q-28 -40 -64.5 -58t-76.5 -18q-70 0 -111 51.5t-41 147.5
q0 47 8 91q24 133 87 193t143 60q95 0 122 -85q10 34 18 72h114zM288.5 105.5q28.5 36.5 43.5 117.5q6 35 6 60q0 52 -20 75.5t-53 23.5q-86 0 -113 -150q-6 -34 -6 -62q0 -50 18.5 -75.5t53.5 -25.5q42 0 70.5 36.5zM111 -237q-24 25 -24 60t24 59.5t58 24.5q35 0 59.5 -25
t24.5 -59q0 -35 -24.5 -60t-59.5 -25q-34 0 -58 25z" />
    <glyph glyph-name="uni1EB8" unicode="&#x1eb8;" horiz-adv-x="500" 
d="M136 698h393l-21 -118h-259l-32 -182h233l-21 -118h-233l-34 -195h268l-21 -119h-402zM123.5 -237q-24.5 25 -24.5 60t24.5 59.5t58.5 24.5q35 0 59.5 -25t24.5 -59q0 -35 -25 -60t-59 -25t-58.5 25z" />
    <glyph glyph-name="uni1EB9" unicode="&#x1eb9;" horiz-adv-x="439" 
d="M312 133l85 -64q-28 -57 -82 -86t-114 -29q-84 0 -136 54.5t-52 157.5q0 39 7 78q24 132 95.5 192.5t162.5 60.5q76 0 116.5 -39t40.5 -106q0 -167 -235 -167q-18 0 -58 2q-7 -118 76 -118q60 0 94 64zM157 285q30 -3 55 -3q49 0 72.5 14t23.5 45q0 45 -49 45
q-74 0 -102 -101zM100 -241.5q-24 25.5 -24 59.5q0 35 24 60t58 25q35 0 59.5 -25t24.5 -60q0 -34 -24.5 -59.5t-59.5 -25.5q-34 0 -58 25.5z" />
    <glyph glyph-name="uni1EBA" unicode="&#x1eba;" horiz-adv-x="500" 
d="M264 920q50 22 101 22q40 0 65 -20t25 -56q0 -43 -35.5 -76.5t-85.5 -51.5l-31 62q55 18 55 47q0 8 -7 13t-20 5q-29 0 -61 -19zM136 698h393l-21 -118h-259l-32 -182h233l-21 -118h-233l-34 -195h268l-21 -119h-402z" />
    <glyph glyph-name="uni1EBB" unicode="&#x1ebb;" horiz-adv-x="439" 
d="M210 725q48 21 97 21q42 0 67.5 -22.5t25.5 -61.5q0 -47 -35 -81.5t-85 -52.5l-33 64q54 20 54 51q0 10 -7.5 16.5t-21.5 6.5q-26 0 -57 -18zM312 133l85 -64q-28 -57 -82 -86t-114 -29q-84 0 -136 54.5t-52 157.5q0 39 7 78q24 132 95.5 192.5t162.5 60.5
q76 0 116.5 -39t40.5 -106q0 -167 -235 -167q-18 0 -58 2q-7 -118 76 -118q60 0 94 64zM157 285q30 -3 55 -3q49 0 72.5 14t23.5 45q0 45 -49 45q-74 0 -102 -101z" />
    <glyph glyph-name="uni1EBC" unicode="&#x1ebc;" horiz-adv-x="500" 
d="M190 778q30 138 111 138q20 0 35.5 -9t33.5 -25q22 -20 34 -20t19.5 12.5t14.5 36.5h83q-15 -67 -43.5 -102t-65.5 -35q-21 0 -36 8.5t-33 24.5q-22 20 -34 20q-24 0 -35 -49h-84zM136 698h393l-21 -118h-259l-32 -182h233l-21 -118h-233l-34 -195h268l-21 -119h-402z
" />
    <glyph glyph-name="uni1EBD" unicode="&#x1ebd;" horiz-adv-x="439" 
d="M132 563q29 138 110 138q20 0 35 -8.5t33 -24.5q13 -11 21 -16t15 -5q11 0 18.5 13t14.5 37h83q-15 -67 -43.5 -102.5t-65.5 -35.5q-21 0 -36 8.5t-33 24.5q-22 20 -34 20t-20.5 -12t-14.5 -37h-83zM312 133l85 -64q-28 -57 -82 -86t-114 -29q-84 0 -136 54.5t-52 157.5
q0 39 7 78q24 132 95.5 192.5t162.5 60.5q76 0 116.5 -39t40.5 -106q0 -167 -235 -167q-18 0 -58 2q-7 -118 76 -118q60 0 94 64zM157 285q30 -3 55 -3q49 0 72.5 14t23.5 45q0 45 -49 45q-74 0 -102 -101z" />
    <glyph glyph-name="uni1EBE" unicode="&#x1ebe;" horiz-adv-x="500" 
d="M440 849l80 88h130l-105 -88h-105zM328 834h88l83 -89h-110l-30 34l-50 -34h-121zM136 698h393l-21 -118h-259l-32 -182h233l-21 -118h-233l-34 -195h268l-21 -119h-402z" />
    <glyph glyph-name="uni1EBF" unicode="&#x1ebf;" horiz-adv-x="439" 
d="M359 738l87 165h125l-114 -165h-98zM266 714h88l82 -165h-103l-36 80l-61 -80h-110zM312 133l85 -64q-28 -57 -82 -86t-114 -29q-84 0 -136 54.5t-52 157.5q0 39 7 78q24 132 95.5 192.5t162.5 60.5q76 0 116.5 -39t40.5 -106q0 -167 -235 -167q-18 0 -58 2
q-7 -118 76 -118q60 0 94 64zM157 285q30 -3 55 -3q49 0 72.5 14t23.5 45q0 45 -49 45q-74 0 -102 -101z" />
    <glyph glyph-name="uni1EC0" unicode="&#x1ec0;" horiz-adv-x="500" 
d="M362 937h118l43 -88h-88zM328 834h88l83 -89h-110l-30 34l-50 -34h-121zM136 698h393l-21 -118h-259l-32 -182h233l-21 -118h-233l-34 -195h268l-21 -119h-402z" />
    <glyph glyph-name="uni1EC1" unicode="&#x1ec1;" horiz-adv-x="439" 
d="M294 903h119l43 -165h-88zM266 714h88l82 -165h-103l-36 80l-61 -80h-110zM312 133l85 -64q-28 -57 -82 -86t-114 -29q-84 0 -136 54.5t-52 157.5q0 39 7 78q24 132 95.5 192.5t162.5 60.5q76 0 116.5 -39t40.5 -106q0 -167 -235 -167q-18 0 -58 2q-7 -118 76 -118
q60 0 94 64zM157 285q30 -3 55 -3q49 0 72.5 14t23.5 45q0 45 -49 45q-74 0 -102 -101z" />
    <glyph glyph-name="uni1EC2" unicode="&#x1ec2;" horiz-adv-x="520" 
d="M401 940q55 13 101 13q39 0 64 -12t25 -32q0 -27 -35 -47t-85 -30l-31 41q48 6 54 17l1 2q0 3 -7.5 5.5t-19.5 2.5q-22 0 -62 -8zM328 834h88l83 -89h-110l-30 34l-50 -34h-121zM136 698h393l-21 -118h-259l-32 -182h233l-21 -118h-233l-34 -195h268l-21 -119h-402z" />
    <glyph glyph-name="uni1EC3" unicode="&#x1ec3;" horiz-adv-x="439" 
d="M346 879q23 13 51 20.5t50 7.5q39 0 62 -20.5t23 -57.5q0 -8 -2 -24q-7 -43 -41.5 -73t-79.5 -47l-29 64q24 10 38.5 24.5t14.5 32.5q0 11 -7 17t-19 6q-26 0 -57 -25zM266 714h88l82 -165h-103l-36 80l-61 -80h-110zM312 133l85 -64q-28 -57 -82 -86t-114 -29
q-84 0 -136 54.5t-52 157.5q0 39 7 78q24 132 95.5 192.5t162.5 60.5q76 0 116.5 -39t40.5 -106q0 -167 -235 -167q-18 0 -58 2q-7 -118 76 -118q60 0 94 64zM157 285q30 -3 55 -3q49 0 72.5 14t23.5 45q0 45 -49 45q-74 0 -102 -101z" />
    <glyph glyph-name="uni1EC4" unicode="&#x1ec4;" horiz-adv-x="500" 
d="M224 853q29 82 110 82q20 0 34.5 -4t33.5 -12q26 -10 36 -10q11 0 18.5 6t14.5 17h83q-15 -40 -43 -60t-66 -20q-21 0 -35.5 4t-33.5 12q-20 10 -34 10q-22 0 -35 -25h-83zM328 834h88l83 -89h-110l-30 34l-50 -34h-121zM136 698h393l-21 -118h-259l-32 -182h233
l-21 -118h-233l-34 -195h268l-21 -119h-402z" />
    </font>
</defs>
</svg>
