<?xml version="1.0" standalone="no"?>
<!DOCTYPE svg PUBLIC "-//W3C//DTD SVG 1.1//EN" "http://www.w3.org/Graphics/SVG/1.1/DTD/svg11.dtd" >
<svg xmlns="http://www.w3.org/2000/svg" xmlns:xlink="http://www.w3.org/1999/xlink" version="1.1">
<metadata>
Created by FontForge 20170731 at Fri May 28 14:17:41 2021
 By Aleksey,,,
Copyright 2021 Huawei Device Co., Ltd. All Rights Reserved.
</metadata>
<defs>
<font id="HarmonyOS_Sans_Condensed_Light_Italic" horiz-adv-x="466" >
  <font-face 
    font-family="HarmonyOS Sans Condensed Light"
    font-weight="300"
    font-style="italic"
    font-stretch="normal"
    units-per-em="1000"
    panose-1="0 0 4 0 0 0 0 0 0 0"
    ascent="800"
    descent="-200"
    x-height="486"
    cap-height="698"
    bbox="-483 -281 1211 957"
    underline-thickness="50"
    underline-position="-150"
    slope="-10"
    unicode-range="U+0020-301E"
  />
<missing-glyph horiz-adv-x="500" 
d="M93 850h317v-1000h-317v1000zM333 750v33h-165v-33h65v-37h-66v-33h166v33h-66v37h66zM267 584v70h-100v-104h166v34h-66zM200 620h33v-36h-33v36zM333 490v33h-166v-33h66v-37h-66v-33h100v70h66zM333 363v100h-33v-66h-133v-34h166zM333 228v113h-100v-56h34v23h33v-47
h-100v80h-33v-113h166zM333 55v113h-166v-113h166zM200 135h100v-47h-100v47zM333 -1v33h-166v-33h70l-70 -47v-33h166v33h-102l70 47h32z" />
    <glyph glyph-name="f_b.liga" unicode="fb" horiz-adv-x="790" 
d="M240 658q-25 -30 -38 -104l-12 -67h115l-8 -45h-115l-101 -572q-14 -78 -45 -114.5t-81 -36.5q-46 0 -72 26l28 45q19 -18 44 -18q30 0 47.5 26t28.5 87l98 557h-74l8 45h74l13 74q17 95 57 135.5t93 40.5q39 0 61 -19l-8 -47q-22 17 -51 17q-37 0 -62 -30zM700.5 444.5
q42.5 -52.5 42.5 -148.5q0 -36 -8 -84q-23 -130 -86 -193t-143 -63q-53 0 -88 31.5t-44 94.5q-9 -37 -23 -115h-48l134 758h53l-59 -333q29 53 70.5 79t87.5 26q69 0 111.5 -52.5zM614.5 57.5q47.5 51.5 66.5 159.5q7 39 7 77q0 74 -30 113.5t-81 39.5q-57 0 -105.5 -49
t-68.5 -165q-8 -48 -8 -79q0 -76 32 -112t81 -36q59 0 106.5 51.5z" />
    <glyph glyph-name="f_f.liga" unicode="ff" horiz-adv-x="552" 
d="M512 658q-24 -30 -37 -104l-12 -67h115l-8 -45h-115l-101 -572q-14 -78 -45 -114.5t-81 -36.5q-46 0 -72 26l28 45q19 -18 44 -18q30 0 47.5 26t28.5 87l98 557h-220l-101 -572q-14 -78 -45 -114.5t-81 -36.5q-46 0 -72 26l28 45q19 -18 44 -18q30 0 47.5 26t28.5 87
l98 557h-74l8 45h74l13 74q17 95 56.5 135.5t91.5 40.5q27 0 47.5 -9t29.5 -23l-26 -41q-22 24 -55 24t-56 -30t-36 -104l-12 -67h220l13 74q17 95 57.5 135.5t94.5 40.5q28 0 48.5 -9t29.5 -23l-26 -41q-22 24 -56 24q-35 0 -59 -30z" />
    <glyph glyph-name="f_f_b.liga" unicode="ffb" horiz-adv-x="1063" 
d="M513 658q-25 -30 -38 -104l-12 -67h115l-8 -45h-115l-101 -572q-14 -78 -45 -114.5t-81 -36.5q-46 0 -72 26l28 45q19 -18 44 -18q30 0 47.5 26t28.5 87l98 557h-220l-101 -572q-14 -78 -45 -114.5t-81 -36.5q-46 0 -72 26l28 45q19 -18 44 -18q30 0 47.5 26t28.5 87
l98 557h-74l8 45h74l13 74q17 95 56.5 135.5t91.5 40.5q27 0 47.5 -9t29.5 -23l-26 -41q-22 24 -55 24t-56 -30t-36 -104l-12 -67h220l13 74q17 95 57 135.5t93 40.5q39 0 61 -19l-8 -47q-22 17 -51 17q-37 0 -62 -30zM973.5 444.5q42.5 -52.5 42.5 -148.5q0 -36 -8 -84
q-23 -130 -86 -193t-143 -63q-53 0 -88 31.5t-44 94.5q-9 -37 -23 -115h-48l134 758h53l-59 -333q29 53 70.5 79t87.5 26q69 0 111.5 -52.5zM887.5 57.5q47.5 51.5 66.5 159.5q7 39 7 77q0 74 -30 113.5t-81 39.5q-57 0 -105.5 -49t-68.5 -165q-8 -48 -8 -79q0 -76 32 -112
t81 -36q59 0 106.5 51.5z" />
    <glyph glyph-name="f_f_h.liga" unicode="ffh" horiz-adv-x="1038" 
d="M463 487h115l-8 -45h-115l-101 -572q-14 -78 -45 -114.5t-81 -36.5q-46 0 -72 26l28 45q19 -18 44 -18q30 0 47.5 26t28.5 87l98 557h-220l-101 -572q-14 -78 -45 -114.5t-81 -36.5q-46 0 -72 26l28 45q19 -18 44 -18q30 0 47.5 26t28.5 87l98 557h-74l8 45h74l13 74
q17 95 56.5 135.5t91.5 40.5q27 0 47.5 -9t29.5 -23l-26 -41q-22 24 -55 24t-56 -30t-36 -104l-12 -67h220l13 74q17 95 57 135.5t93 40.5q39 0 61 -19l-8 -47q-22 17 -51 17q-37 0 -62 -30t-38 -104zM949 459.5q34 -37.5 34 -109.5q0 -28 -6 -63l-57 -321h-53l55 315
q6 33 6 59q0 53 -23 80t-65 27q-53 0 -97 -41t-58 -120l-57 -320h-53l135 761h53l-57 -317q27 42 67.5 64.5t84.5 22.5q57 0 91 -37.5z" />
    <glyph glyph-name="f_f_i.liga" unicode="ffi" horiz-adv-x="753" 
d="M463 487h115l-8 -45h-115l-101 -572q-14 -78 -45 -114.5t-81 -36.5q-46 0 -72 26l28 45q19 -18 44 -18q30 0 47.5 26t28.5 87l98 557h-220l-101 -572q-14 -78 -45 -114.5t-81 -36.5q-46 0 -72 26l28 45q19 -18 44 -18q30 0 47.5 26t28.5 87l98 557h-74l8 45h74l13 74
q17 95 56.5 135.5t91.5 40.5q27 0 47.5 -9t29.5 -23l-26 -41q-22 24 -55 24t-56 -30t-36 -104l-12 -67h220l13 74q17 95 57 135.5t93 40.5q39 0 61 -19l-8 -47q-22 17 -51 17q-37 0 -62 -30t-38 -104zM749.5 672q11.5 -12 11.5 -29t-11.5 -29.5t-28.5 -12.5t-29 12.5
t-12 29.5t12 29t29 12t28.5 -12zM719 486l-92 -520h-53l92 520h53z" />
    <glyph glyph-name="f_f_k.liga" unicode="ffk" horiz-adv-x="992" 
d="M463 487h115l-8 -45h-115l-101 -572q-14 -78 -45 -114.5t-81 -36.5q-46 0 -72 26l28 45q19 -18 44 -18q30 0 47.5 26t28.5 87l98 557h-220l-101 -572q-14 -78 -45 -114.5t-81 -36.5q-46 0 -72 26l28 45q19 -18 44 -18q30 0 47.5 26t28.5 87l98 557h-74l8 45h74l13 74
q17 95 56.5 135.5t91.5 40.5q27 0 47.5 -9t29.5 -23l-26 -41q-22 24 -55 24t-56 -30t-36 -104l-12 -67h220l13 74q17 95 57 135.5t93 40.5q39 0 61 -19l-8 -47q-22 17 -51 17q-37 0 -62 -30t-38 -104zM944 486h65l-209 -217l136 -303h-61l-116 262l-103 -107l-27 -155h-53
l134 761h53l-73 -413q-3 -18 -16 -93q-2 -7 -4 -21q52 53 101 107z" />
    <glyph glyph-name="f_f_l.liga" unicode="ffl" horiz-adv-x="755" 
d="M513 658q-25 -30 -38 -104l-12 -67h115l-8 -45h-115l-101 -572q-14 -78 -45 -114.5t-81 -36.5q-46 0 -72 26l28 45q19 -18 44 -18q30 0 47.5 26t28.5 87l98 557h-220l-101 -572q-14 -78 -45 -114.5t-81 -36.5q-46 0 -72 26l28 45q19 -18 44 -18q30 0 47.5 26t28.5 87
l98 557h-74l8 45h74l13 74q17 95 56.5 135.5t91.5 40.5q27 0 47.5 -9t29.5 -23l-26 -41q-22 24 -55 24t-56 -30t-36 -104l-12 -67h220l13 74q17 95 57 135.5t93 40.5q39 0 61 -19l-8 -47q-22 17 -51 17q-37 0 -62 -30zM628 -34h-53l135 761h53z" />
    <glyph glyph-name="f_h.liga" unicode="fh" horiz-adv-x="765" 
d="M240 658q-25 -30 -38 -104l-12 -67h115l-8 -45h-115l-101 -572q-14 -78 -45 -114.5t-81 -36.5q-46 0 -72 26l28 45q19 -18 44 -18q30 0 47.5 26t28.5 87l98 557h-74l8 45h74l13 74q17 95 57 135.5t93 40.5q39 0 61 -19l-8 -47q-22 17 -51 17q-37 0 -62 -30zM676 459.5
q34 -37.5 34 -109.5q0 -28 -6 -63l-57 -321h-53l55 315q6 33 6 59q0 53 -23 80t-65 27q-53 0 -97 -41t-58 -120l-57 -320h-53l135 761h53l-57 -317q27 42 67.5 64.5t84.5 22.5q57 0 91 -37.5z" />
    <glyph glyph-name="f_i.liga" unicode="fi" horiz-adv-x="480" 
d="M305 487l-8 -45h-115l-101 -572q-14 -78 -45 -114.5t-81 -36.5q-46 0 -72 26l28 45q19 -18 44 -18q30 0 47.5 26t28.5 87l98 557h-74l8 45h74l13 74q17 95 57 135.5t93 40.5q39 0 61 -19l-8 -47q-22 17 -51 17q-37 0 -62 -30t-38 -104l-12 -67h115zM476.5 672
q11.5 -12 11.5 -29t-11.5 -29.5t-28.5 -12.5t-29 12.5t-12 29.5t12 29t29 12t28.5 -12zM446 486l-92 -520h-53l92 520h53z" />
    <glyph glyph-name="f_k.liga" unicode="fk" horiz-adv-x="719" 
d="M240 658q-25 -30 -38 -104l-12 -67h115l-8 -45h-115l-101 -572q-14 -78 -45 -114.5t-81 -36.5q-46 0 -72 26l28 45q19 -18 44 -18q30 0 47.5 26t28.5 87l98 557h-74l8 45h74l13 74q17 95 57 135.5t93 40.5q39 0 61 -19l-8 -47q-22 17 -51 17q-37 0 -62 -30zM671 486h65
l-209 -217l136 -303h-61l-116 262l-103 -107l-27 -155h-53l134 761h53l-73 -413q-3 -18 -16 -93q-2 -7 -4 -21q52 53 101 107z" />
    <glyph glyph-name="f_l.liga" unicode="fl" horiz-adv-x="482" 
d="M240 658q-25 -30 -38 -104l-12 -67h115l-8 -45h-115l-101 -572q-14 -78 -45 -114.5t-81 -36.5q-46 0 -72 26l28 45q19 -18 44 -18q30 0 47.5 26t28.5 87l98 557h-74l8 45h74l13 74q17 95 57 135.5t93 40.5q39 0 61 -19l-8 -47q-22 17 -51 17q-37 0 -62 -30zM355 -34h-53
l135 761h53z" />
    <glyph glyph-name="r_f.liga" unicode="rf" horiz-adv-x="579" 
d="M650.5 728q20.5 -9 29.5 -23l-26 -41q-23 24 -55 24q-36 0 -60 -30t-37 -104l-12 -67h115l-8 -45h-115l-101 -572q-14 -78 -45 -114.5t-81 -36.5q-46 0 -72 26l28 45q19 -18 44 -18q30 0 47.5 26t28.5 87l98 557h-73l7 45h74l13 74q17 95 57.5 135.5t94.5 40.5
q28 0 48.5 -9zM324 485l-10 -52q-17 14 -43 14q-47 0 -87 -44.5t-57 -125.5l-55 -311h-53l92 520h46l-13 -86q25 46 60 71.5t74 25.5q27 0 46 -12z" />
    <glyph glyph-name="r_t.liga" unicode="rt" horiz-adv-x="608" 
d="M604 441h-123l-57 -322q-5 -30 -5 -47q0 -67 57 -67q27 0 57 18l13 -41q-37 -26 -83 -26q-97 0 -97 107q0 29 5 55l57 323h-72l8 46h72l25 144h53l-25 -144h122zM324 485l-10 -52q-17 14 -43 14q-47 0 -87 -44.5t-57 -125.5l-55 -311h-53l92 520h46l-13 -86
q25 46 60 71.5t74 25.5q27 0 46 -12z" />
    <glyph glyph-name="r_v.liga" unicode="rv" horiz-adv-x="738" 
d="M324 485l-10 -52q-17 14 -43 14q-47 0 -87 -44.5t-57 -125.5l-55 -311h-53l92 520h46l-13 -86q25 46 60 71.5t74 25.5q27 0 46 -12zM419 486l70 -435l215 435h60l-267 -520h-44l-91 520h57z" />
    <glyph glyph-name="r_x.liga" unicode="rx" horiz-adv-x="714" 
d="M324 485l-10 -52q-17 14 -43 14q-47 0 -87 -44.5t-57 -125.5l-55 -311h-53l92 520h46l-13 -86q25 46 60 71.5t74 25.5q27 0 46 -12zM512 272l164 214h62l-206 -261l114 -259h-61l-90 216l-165 -216h-62l207 263l-115 257h61z" />
    <glyph glyph-name="r_y.liga" unicode="ry" horiz-adv-x="738" 
d="M324 485l-10 -52q-17 14 -43 14q-47 0 -87 -44.5t-57 -125.5l-55 -311h-53l92 520h46l-13 -86q25 46 60 71.5t74 25.5q27 0 46 -12zM486 32l220 454h58l-318 -635q-35 -69 -68 -100.5t-85 -31.5q-55 0 -79 31l29 43q21 -24 54 -24q31 0 53.5 21.5t49.5 74.5l49 94
l-90 527h57z" />
    <glyph glyph-name=".notdef" horiz-adv-x="500" 
d="M93 850h317v-1000h-317v1000zM333 750v33h-165v-33h65v-37h-66v-33h166v33h-66v37h66zM267 584v70h-100v-104h166v34h-66zM200 620h33v-36h-33v36zM333 490v33h-166v-33h66v-37h-66v-33h100v70h66zM333 363v100h-33v-66h-133v-34h166zM333 228v113h-100v-56h34v23h33v-47
h-100v80h-33v-113h166zM333 55v113h-166v-113h166zM200 135h100v-47h-100v47zM333 -1v33h-166v-33h70l-70 -47v-33h166v33h-102l70 47h32z" />
    <glyph glyph-name=".null" horiz-adv-x="0" 
 />
    <glyph glyph-name="nonmarkingreturn" horiz-adv-x="333" 
 />
    <glyph glyph-name="space" unicode=" " horiz-adv-x="230" 
 />
    <glyph glyph-name="exclam" unicode="!" horiz-adv-x="187" 
d="M53 161l91 564h59l-107 -564h-43zM16.5 -31q-12.5 13 -12.5 30t12 29.5t29 12.5q18 0 30 -12.5t12 -29.5t-12 -30t-29 -13t-29.5 13z" />
    <glyph glyph-name="quotedbl" unicode="&#x22;" horiz-adv-x="281" 
d="M106 540l38 229h48l-43 -229h-43zM227 540l38 229h48l-43 -229h-43z" />
    <glyph glyph-name="numbersign" unicode="#" horiz-adv-x="532" 
d="M474 526h90l-9 -52h-100l-90 -245h91l-9 -52h-101l-78 -214h-55l79 214h-151l-78 -214h-55l79 214h-91l10 52h100l89 245h-90l9 52h100l79 215h55l-79 -215h151l79 215h54zM250 474l-89 -245h150l90 245h-151z" />
    <glyph glyph-name="dollar" unicode="$" 
d="M282 349q44 -26 72 -47.5t46.5 -54t18.5 -77.5q0 -12 -4 -40q-15 -80 -69.5 -125t-132.5 -48l-24 -133h-51l24 136q-69 11 -111.5 63t-46.5 134l53 21q5 -69 34 -112.5t80 -53.5l55 305q-45 27 -72 48.5t-45.5 53.5t-18.5 76q0 21 4 41q14 81 69.5 125.5t131.5 46.5
l21 125h51l-22 -129q64 -12 100 -58.5t34 -109.5l-53 -23q-1 53 -23.5 90t-66.5 48zM149 503q0 -41 22.5 -69t64.5 -56l49 277q-53 -4 -88 -37.5t-45 -86.5q-3 -15 -3 -28zM359 162q0 42 -22.5 70.5t-65.5 56.5l-49 -280q55 4 90.5 37.5t43.5 85.5q3 17 3 30z" />
    <glyph glyph-name="percent" unicode="%" horiz-adv-x="676" 
d="M288.5 425q-44.5 -40 -101.5 -40q-54 0 -87.5 36t-33.5 96q0 12 4 38q12 73 57 113.5t101 40.5q54 0 88 -36t34 -96q0 -13 -4 -39q-13 -73 -57.5 -113zM567 699h61l-504 -733h-61zM294 570q0 39 -19.5 63t-51.5 24q-34 0 -61.5 -28t-36.5 -78q-3 -16 -3 -31
q0 -38 19.5 -60.5t50.5 -22.5q35 0 62.5 26.5t36.5 77.5q3 15 3 29zM570.5 -3.5q-44.5 -40.5 -100.5 -40.5q-54 0 -88 36.5t-34 96.5q0 12 4 38q13 73 57.5 113t101.5 40q54 0 87.5 -36t33.5 -95q0 -13 -4 -39q-13 -73 -57.5 -113.5zM576 141q0 39 -19.5 63t-51.5 24
q-34 0 -61.5 -27.5t-36.5 -78.5q-3 -15 -3 -29q0 -39 19.5 -62t51.5 -23q35 0 62 26.5t36 77.5q3 15 3 29z" />
    <glyph glyph-name="ampersand" unicode="&#x26;" horiz-adv-x="566" 
d="M540 380q-42 -154 -109 -257l89 -157h-66l-61 107q-93 -117 -210 -117q-76 0 -120.5 46t-44.5 124q0 22 5 52q15 85 62.5 134t124.5 90q-21 40 -32 75.5t-11 71.5q0 19 3 37q13 75 60.5 113t106.5 38q61 0 94.5 -38t33.5 -96q0 -16 -3 -33q-8 -47 -34 -80t-59 -54.5
t-87 -50.5l120 -211q52 92 80 206h58zM225 547q0 -52 34 -120q49 26 78.5 47t48.5 51.5t19 74.5q0 37 -18.5 61t-55.5 24t-65.5 -25t-37.5 -78q-3 -18 -3 -35zM281.5 37q45.5 29 85.5 83l-134 238q-63 -36 -101.5 -77.5t-50.5 -108.5q-4 -20 -4 -42q0 -57 29.5 -89.5
t81.5 -32.5q48 0 93.5 29z" />
    <glyph glyph-name="quotesingle" unicode="'" horiz-adv-x="160" 
d="M106 540l38 229h48l-43 -229h-43z" />
    <glyph glyph-name="parenleft" unicode="(" horiz-adv-x="302" 
d="M167.5 597q64.5 114 151.5 184h55q-89 -82 -151 -193.5t-87 -251.5q-13 -72 -13 -143q0 -185 88 -338h-55q-43 65 -67 153t-24 188q0 74 13 146q25 141 89.5 255z" />
    <glyph glyph-name="parenright" unicode=")" horiz-adv-x="302" 
d="M152 39q-65 -114 -152 -184h-55q90 83 152 194t86 251q13 74 13 145q0 183 -88 336h55q44 -65 68 -153t24 -189q0 -73 -13 -145q-25 -141 -90 -255z" />
    <glyph glyph-name="asterisk" unicode="*" horiz-adv-x="396" 
d="M266 551l139 79l18 -43l-144 -69l119 -69l-32 -42l-111 79l-20 -148h-50l33 148l-139 -79l-18 42l144 69l-120 69l33 43l111 -80l20 149h49z" />
    <glyph glyph-name="plus" unicode="+" 
d="M307 524l-30 -170h170l-9 -51h-170l-30 -171h-51l30 171h-171l9 51h171l30 170h51z" />
    <glyph glyph-name="comma" unicode="," horiz-adv-x="187" 
d="M82.5 27q11.5 -13 11.5 -39q0 -5 -2 -23q-10 -54 -42.5 -91.5t-84.5 -48.5l2 37q69 18 82 93h-3q-20 0 -30.5 13.5t-6.5 33.5q2 16 15 27t29 11q18 0 29.5 -13z" />
    <glyph glyph-name="hyphen" unicode="-" horiz-adv-x="401" 
d="M53 244l9 49h293l-9 -49h-293z" />
    <glyph glyph-name="period" unicode="." horiz-adv-x="179" 
d="M12.5 -31q-12.5 13 -12.5 30t12 29.5t29 12.5t29.5 -12.5t12.5 -29.5q0 -18 -12 -30.5t-30 -12.5q-16 0 -28.5 13z" />
    <glyph glyph-name="slash" unicode="/" horiz-adv-x="322" 
d="M-42 -34l368 732h59l-368 -732h-59z" />
    <glyph glyph-name="zero" unicode="0" 
d="M336.5 37.5q-60.5 -81.5 -148.5 -81.5q-149 0 -149 213q0 74 18 179q35 199 95 280t149 81q74 0 112 -51t38 -160q0 -74 -18 -181q-36 -198 -96.5 -279.5zM95 166q0 -82 24 -121t73 -39q62 0 107.5 72t75.5 243q19 108 19 182q0 81 -24 118.5t-73 37.5q-64 0 -109 -72
t-75 -244q-18 -106 -18 -177z" />
    <glyph glyph-name="one" unicode="1" 
d="M126 509l11 61l205 129h43l-130 -733h-57l116 660z" />
    <glyph glyph-name="two" unicode="2" 
d="M408.5 418.5q-27.5 -43.5 -102.5 -132.5l-229 -272h299l-9 -48h-379l7 35l275 324q63 74 86 110.5t31 81.5q4 21 4 43q0 48 -23 73.5t-67 25.5q-48 0 -89 -31.5t-72 -95.5l-39 25q33 76 87.5 114t117.5 38q66 0 104.5 -40.5t38.5 -110.5q0 -24 -4 -45q-9 -51 -36.5 -94.5
z" />
    <glyph glyph-name="three" unicode="3" 
d="M388.5 412.5q-31.5 -41.5 -80.5 -57.5q45 -17 68.5 -57.5t23.5 -96.5q0 -23 -5 -53q-16 -92 -71 -142t-137 -50q-74 0 -120.5 41.5t-52.5 119.5l48 25q5 -65 38.5 -101t90.5 -36q58 0 96.5 39t51.5 110q4 21 4 45q0 60 -32 94.5t-93 34.5h-45l8 49h49q58 0 95 38t48 101
q4 26 4 38q0 47 -24 76t-70 29q-43 0 -79.5 -29t-60.5 -87l-40 25q31 72 78.5 106.5t107.5 34.5q71 0 108.5 -43.5t37.5 -110.5q0 -23 -4 -43q-11 -58 -42.5 -99.5z" />
    <glyph glyph-name="four" unicode="4" 
d="M380 408l-39 -218h103l-8 -49h-104l-31 -175h-55l31 175h-281l7 38l340 520h61l-332 -509h214l39 218h55z" />
    <glyph glyph-name="five" unicode="5" 
d="M468 699l-8 -48h-236l-79 -266q21 17 48.5 26.5t57.5 9.5q75 0 118 -51.5t43 -134.5q0 -33 -5 -58q-17 -101 -77 -161t-145 -60q-65 0 -109 38.5t-54 109.5l48 25q8 -58 39.5 -91t80.5 -33q60 0 103 48t57 127q5 30 5 53q0 63 -29 101.5t-85 38.5q-38 0 -73 -19t-61 -55
l-33 17l112 383h282z" />
    <glyph glyph-name="six" unicode="6" 
d="M382 357.5q42 -52.5 42 -132.5q0 -23 -5 -55q-11 -66 -43.5 -114t-80 -74t-101.5 -26q-79 0 -123.5 52t-44.5 135q0 24 5 56q10 57 35 102t78 117l203 280h62l-206 -285l-15 -21q35 18 76 18q76 0 118 -52.5zM366 223q0 61 -29.5 99.5t-85.5 38.5q-61 0 -105.5 -47
t-58.5 -123q-4 -23 -4 -48q0 -62 30 -100t85 -38q60 0 105 45.5t58 121.5q5 30 5 51z" />
    <glyph glyph-name="seven" unicode="7" 
d="M428 650h-318l8 48h383l-5 -30l-361 -702h-63z" />
    <glyph glyph-name="eight" unicode="8" 
d="M412.5 415q-33.5 -40 -82.5 -57q42 -20 65.5 -61t23.5 -96q0 -26 -4 -47q-16 -90 -78.5 -144t-148.5 -54q-82 0 -129.5 49t-47.5 127q0 25 4 46q12 71 54 119.5t102 67.5q-36 19 -55 53.5t-19 79.5q0 18 3 36q14 79 70.5 127t132.5 48q73 0 114.5 -45t41.5 -114
q0 -17 -3 -37q-10 -58 -43.5 -98zM405 544q0 51 -28 83.5t-79 32.5q-53 0 -92 -36.5t-50 -95.5q-3 -15 -3 -31q0 -49 28 -80t79 -31q54 0 93 34t49 92q3 17 3 32zM363 203q0 60 -32.5 96.5t-90.5 36.5q-61 0 -108 -42.5t-59 -115.5q-4 -19 -4 -41q0 -60 32.5 -96t90.5 -36
q61 0 108 42t59 113q4 20 4 43z" />
    <glyph glyph-name="nine" unicode="9" 
d="M419 656.5q44 -51.5 44 -134.5q0 -32 -5 -57q-9 -56 -34 -100t-78 -119l-203 -280h-63l207 285l15 22q-35 -19 -76 -19q-77 0 -119 53t-42 134q0 23 5 53q18 99 80.5 156.5t145.5 57.5q79 0 123 -51.5zM407 522q0 62 -30.5 99.5t-85.5 37.5q-60 0 -105 -45.5t-58 -121.5
q-4 -23 -4 -49q0 -62 29.5 -100.5t85.5 -38.5q61 0 105.5 47t57.5 122q5 28 5 49z" />
    <glyph glyph-name="colon" unicode=":" horiz-adv-x="201" 
d="M104 424.5q-12 12.5 -12 30.5q0 17 12 29.5t29 12.5t29.5 -12.5t12.5 -29.5q0 -18 -12 -30.5t-30 -12.5q-17 0 -29 12.5zM24.5 -31q-12.5 13 -12.5 30t12 29.5t29 12.5t29.5 -12.5t12.5 -29.5q0 -18 -12 -30.5t-30 -12.5q-16 0 -28.5 13z" />
    <glyph glyph-name="semicolon" unicode=";" horiz-adv-x="210" 
d="M171 484.5q12 -12.5 12 -29.5q0 -18 -12 -30.5t-30 -12.5q-17 0 -29 12.5t-12 30.5q0 17 12 29.5t29 12.5q18 0 30 -12.5zM90.5 27q11.5 -13 11.5 -39q0 -5 -2 -23q-10 -54 -42.5 -91.5t-84.5 -48.5l2 37q69 18 82 93h-3q-20 0 -30.5 13.5t-6.5 33.5q2 16 15 27t29 11
q18 0 29.5 -13z" />
    <glyph glyph-name="less" unicode="&#x3c;" 
d="M480 541l-10 -57l-352 -156l296 -156l-9 -57l-358 189l8 48z" />
    <glyph glyph-name="equal" unicode="=" 
d="M456 400h-392l9 51h392zM422 206h-393l10 50h391z" />
    <glyph glyph-name="greater" unicode="&#x3e;" 
d="M376 328l-297 156l10 57l359 -189l-9 -48l-426 -189l11 57z" />
    <glyph glyph-name="question" unicode="?" horiz-adv-x="357" 
d="M61 609q29 62 80 94t109 32q66 0 104.5 -39.5t38.5 -100.5q0 -11 -4 -37q-9 -53 -35 -88t-73 -78q-39 -36 -62 -63.5t-38 -69t-14 -98.5h-47q-1 11 -1 31q0 55 15.5 95.5t37.5 67.5t59 62q42 40 64.5 70.5t30.5 73.5q2 10 2 28q0 42 -22 67t-65 25q-41 0 -76.5 -24
t-61.5 -75zM93.5 -31q-12.5 13 -12.5 30t12.5 29.5t29.5 12.5t29.5 -12.5t12.5 -29.5t-12.5 -30t-29.5 -13t-29.5 13z" />
    <glyph glyph-name="at" unicode="@" horiz-adv-x="795" 
d="M631.5 696q67.5 -41 104.5 -118t37 -183q0 -63 -11 -122q-41 -229 -166 -229q-43 0 -68.5 27t-26.5 80q-26 -54 -64 -80.5t-78 -26.5q-57 0 -93.5 50t-36.5 133q0 33 6 70q13 73 43 123.5t69.5 75.5t80.5 25q43 0 73.5 -27.5t39.5 -78.5q11 50 20 96h46l-53 -297
q-5 -30 -5 -49q0 -35 13 -53t38 -18q80 0 113 185q11 63 11 113q0 93 -31.5 159t-89.5 100.5t-136 34.5q-90 0 -165 -45t-127.5 -132.5t-74.5 -210.5q-10 -62 -10 -104q0 -93 33 -162.5t92 -106.5t137 -37q52 0 99 16t83 45l23 -38q-43 -36 -95.5 -55t-111.5 -19
q-91 0 -161 43.5t-109 124t-39 187.5q0 55 10 111q24 138 85 236t148.5 148t189.5 50q90 0 157.5 -41zM458 141.5q39 44.5 55 134.5q7 42 7 66q0 63 -26.5 94.5t-65.5 31.5q-47 0 -85 -45.5t-54 -131.5q-6 -36 -6 -65q0 -61 23.5 -95t64.5 -34q48 0 87 44.5z" />
    <glyph glyph-name="A" unicode="A" horiz-adv-x="566" 
d="M380 699l117 -733h-60l-34 227h-267l-112 -227h-63l372 733h47zM396 244l-54 370l-182 -370h236z" />
    <glyph glyph-name="B" unicode="B" horiz-adv-x="529" 
d="M449 401q-30 -38 -78 -55q50 -17 76 -56t26 -95q0 -26 -4 -47q-32 -182 -237 -182h-206l129 732h164q83 0 128.5 -45t45.5 -117q0 -22 -4 -41q-10 -56 -40 -94zM267 366q68 0 110.5 35t53.5 98q3 17 3 32q0 53 -33 85.5t-94 32.5h-105l-50 -283h115zM414 190
q0 58 -35 93.5t-100 35.5h-136l-53 -304h139q81 0 125.5 34.5t55.5 101.5q4 26 4 39z" />
    <glyph glyph-name="C" unicode="C" horiz-adv-x="532" 
d="M220.5 582.5q-65.5 -75.5 -92.5 -229.5q-11 -59 -11 -118q0 -109 43.5 -168.5t120.5 -59.5q53 0 95.5 28.5t69.5 85.5l41 -27q-70 -138 -211 -138q-102 0 -160.5 69.5t-58.5 201.5q0 57 12 126q32 182 115 269t194 87q80 0 126 -44.5t51 -118.5l-47 -24q-4 61 -39 98.5
t-97 37.5q-86 0 -151.5 -75.5z" />
    <glyph glyph-name="D" unicode="D" horiz-adv-x="594" 
d="M312 698q119 0 182 -73.5t63 -203.5q0 -51 -11 -114q-30 -171 -117 -256t-225 -85h-178l129 732h157zM498 418q0 109 -49.5 170t-148.5 61h-98l-112 -634h108q238 0 290 296q10 54 10 107z" />
    <glyph glyph-name="E" unicode="E" horiz-adv-x="486" 
d="M155 698h350l-9 -49h-294l-49 -279h265l-9 -50h-266l-53 -305h304l-9 -49h-359z" />
    <glyph glyph-name="F" unicode="F" horiz-adv-x="461" 
d="M155 698h350l-9 -49h-294l-52 -295h266l-10 -49h-265l-60 -339h-55z" />
    <glyph glyph-name="G" unicode="G" horiz-adv-x="575" 
d="M477 285h-130l8 49h186l-50 -278q-33 -47 -83 -73.5t-115 -26.5q-108 0 -171.5 72t-63.5 209q0 50 11 118q22 120 69 199t110.5 117t136.5 38q85 0 134 -47t51 -118l-49 -27q-2 58 -37 99.5t-103 41.5q-88 0 -157 -76t-96 -227q-11 -64 -11 -113q0 -114 48.5 -174.5
t131.5 -60.5q44 0 80.5 18t62.5 51z" />
    <glyph glyph-name="H" unicode="H" horiz-adv-x="611" 
d="M153 372h341l58 326h55l-129 -732h-55l62 355h-341l-63 -355h-55l129 732h55z" />
    <glyph glyph-name="I" unicode="I" horiz-adv-x="215" 
d="M81 -34h-55l129 732h55z" />
    <glyph glyph-name="J" unicode="J" horiz-adv-x="377" 
d="M25 -14q-34 30 -41 90l50 28q5 -50 25.5 -73.5t57.5 -23.5q47 0 74 37.5t41 112.5l95 541h56l-96 -547q-18 -97 -56.5 -146t-113.5 -49q-58 0 -92 30z" />
    <glyph glyph-name="K" unicode="K" horiz-adv-x="548" 
d="M524 698h72l-290 -297l181 -435h-66l-159 389l-137 -139l-44 -250h-55l129 732h55l-58 -330l-11 -66l48 51q12 11 24 24z" />
    <glyph glyph-name="L" unicode="L" horiz-adv-x="461" 
d="M155 698h55l-120 -682h294l-9 -50h-349z" />
    <glyph glyph-name="M" unicode="M" horiz-adv-x="711" 
d="M661 698h46l-129 -732h-55l107 601l-272 -385h-32l-139 396l-108 -612h-53l129 732h47l151 -445z" />
    <glyph glyph-name="N" unicode="N" horiz-adv-x="607" 
d="M201 698l240 -621l110 621h52l-129 -732h-47l-239 620l-111 -620h-51l129 732h46z" />
    <glyph glyph-name="O" unicode="O" horiz-adv-x="623" 
d="M181.5 621q80.5 88 192.5 88q101 0 158 -70t57 -200q0 -58 -12 -127q-33 -184 -113 -270t-192 -86q-102 0 -158.5 68t-56.5 198q0 59 12 129q32 182 112.5 270zM116 228q0 -107 42 -164t120 -57q87 0 150 75t90 230q11 61 11 121q0 108 -41.5 166.5t-119.5 58.5
q-87 0 -150 -76t-90 -231q-12 -67 -12 -123z" />
    <glyph glyph-name="P" unicode="P" horiz-adv-x="486" 
d="M314 698q86 0 134.5 -49t48.5 -131q0 -21 -5 -51q-17 -94 -80 -148t-161 -54h-117l-53 -299h-55l129 732h159zM438 514q0 62 -36 98.5t-100 36.5h-100l-59 -335h109q75 0 122 42t60 116q4 20 4 42z" />
    <glyph glyph-name="Q" unicode="Q" horiz-adv-x="625" 
d="M397 -12l141 -169h-73l-124 148q-30 -11 -69 -11q-102 0 -158.5 68t-56.5 198q0 59 12 129q32 182 112.5 270t192.5 88q101 0 158 -70t57 -200q0 -58 -12 -127q-45 -248 -180 -324zM428 82q63 75 90 230q11 61 11 121q0 108 -41.5 166.5t-119.5 58.5q-87 0 -150 -76
t-90 -231q-12 -67 -12 -123q0 -107 42 -164t120 -57q87 0 150 75z" />
    <glyph glyph-name="R" unicode="R" horiz-adv-x="509" 
d="M433.5 356q-44.5 -48 -112.5 -65l135 -325h-64l-127 316h-12h-116l-56 -316h-55l129 732h155q87 0 136 -46.5t49 -126.5q0 -25 -4 -48q-13 -73 -57.5 -121zM251 331q74 0 121 40t60 111q4 26 4 38q0 60 -36.5 94.5t-101.5 34.5h-96l-56 -318h105z" />
    <glyph glyph-name="S" unicode="S" horiz-adv-x="461" 
d="M344 2q-53 -46 -135 -46q-58 0 -104 22.5t-73.5 63t-30.5 92.5l48 25q6 -69 51.5 -110.5t110.5 -41.5q69 0 106 46q26 30 33 76q3 17 3 31q0 37 -17 66.5t-41.5 50.5t-66.5 50q-45 31 -71.5 54t-45 56t-18.5 77q0 11 4 39q14 77 72 119q53 37 126 37q76 0 121.5 -42
t47.5 -107l-47 -24q-6 55 -37 88.5t-89 33.5q-55 0 -91 -30q-46 -37 -46 -107q0 -34 15.5 -60t38.5 -44.5t63 -46.5q47 -32 74.5 -56t47 -60t19.5 -84q0 -25 -4 -46q-15 -79 -64 -122z" />
    <glyph glyph-name="T" unicode="T" horiz-adv-x="464" 
d="M92 698h431l-8 -49h-189l-120 -683h-55l120 683h-188z" />
    <glyph glyph-name="U" unicode="U" horiz-adv-x="593" 
d="M542 698h55l-83 -481q-24 -133 -89 -197t-171 -64q-97 0 -146.5 51.5t-49.5 151.5q0 42 9 93l78 446h55l-76 -441q-9 -48 -9 -88q0 -162 143 -162q162 0 202 221z" />
    <glyph glyph-name="V" unicode="V" horiz-adv-x="558" 
d="M151 698l90 -643l310 643h64l-364 -732h-49l-112 732h61z" />
    <glyph glyph-name="W" unicode="W" horiz-adv-x="837" 
d="M518 698l51 -637l269 637h58l-318 -732h-50l-54 613l-267 -613h-49l-67 732h59l49 -635l270 635h49z" />
    <glyph glyph-name="X" unicode="X" horiz-adv-x="543" 
d="M292 390l236 308h68l-282 -363l159 -369h-65l-134 321l-246 -321h-66l289 375l-153 357h64z" />
    <glyph glyph-name="Y" unicode="Y" horiz-adv-x="508" 
d="M272 342l233 356h63l-278 -418l-56 -314h-56l56 318l-144 414h63z" />
    <glyph glyph-name="Z" unicode="Z" horiz-adv-x="479" 
d="M118 649l9 49h392l-4 -28l-459 -654h356l-10 -50h-429l5 28l459 655h-319z" />
    <glyph glyph-name="bracketleft" unicode="[" horiz-adv-x="295" 
d="M173 781h193l-9 -52h-136l-144 -822h136l-10 -52h-193z" />
    <glyph glyph-name="backslash" unicode="\" horiz-adv-x="318" 
d="M87 698h55l110 -732h-55z" />
    <glyph glyph-name="bracketright" unicode="]" horiz-adv-x="295" 
d="M100 729l8 52h193l-163 -926h-193l9 52h136l146 822h-136z" />
    <glyph glyph-name="asciicircum" unicode="^" horiz-adv-x="401" 
d="M263 623l-166 -285h-54l211 361h44l84 -361h-54z" />
    <glyph glyph-name="underscore" unicode="_" horiz-adv-x="339" 
d="M-78 -170l9 48h339l-9 -48h-339z" />
    <glyph glyph-name="grave" unicode="`" horiz-adv-x="255" 
d="M187 710h56l34 -148h-38z" />
    <glyph glyph-name="a" unicode="a" horiz-adv-x="507" 
d="M472 487l-92 -521h-47l7 46q6 30 9 57q-30 -57 -72.5 -85t-90.5 -28q-69 0 -111.5 52.5t-42.5 148.5q0 36 8 84q23 130 86 193t143 63q53 0 88 -31.5t44 -94.5q11 41 24 116h47zM306.5 59.5q45.5 53.5 66.5 165.5q7 39 7 74q0 76 -32 112t-81 36q-60 0 -107 -51.5
t-66 -158.5q-7 -39 -7 -77q0 -74 30 -114t81 -40q63 0 108.5 53.5z" />
    <glyph glyph-name="b" unicode="b" horiz-adv-x="506" 
d="M417 444q43 -53 43 -149q0 -35 -8 -83q-23 -130 -86.5 -193t-142.5 -63q-53 0 -88.5 31.5t-43.5 94.5q-3 -10 -15 -69l-9 -46h-48l134 758h53l-59 -333q29 53 70.5 79t87.5 26q69 0 112 -53zM331.5 57.5q47.5 51.5 65.5 159.5q8 46 8 78q0 73 -30.5 112.5t-81.5 39.5
q-56 0 -104.5 -49t-68.5 -165q-8 -40 -8 -80q0 -76 32 -111.5t80 -35.5q60 0 107.5 51.5z" />
    <glyph glyph-name="c" unicode="c" horiz-adv-x="405" 
d="M269.5 23q30.5 17 50.5 54l38 -25q-26 -50 -68 -73t-90 -23q-76 0 -121.5 53.5t-45.5 150.5q0 40 7 81q27 153 117 218q51 38 113 38q56 0 92 -31.5t43 -87.5l-44 -24q-7 45 -31 69t-64 24q-57 0 -104.5 -51t-67.5 -160q-7 -36 -7 -72q0 -77 32.5 -117.5t86.5 -40.5
q33 0 63.5 17z" />
    <glyph glyph-name="d" unicode="d" horiz-adv-x="507" 
d="M462 727h53l-135 -761h-47l7 46q6 30 9 57q-29 -57 -72 -85t-91 -28q-69 0 -111.5 53t-42.5 149q0 35 8 83q23 130 86 193t143 63q52 0 87 -30t44 -89zM305.5 58.5q46.5 52.5 66.5 163.5q8 48 8 79q0 76 -32 111t-81 35q-59 0 -106.5 -51.5t-66.5 -158.5q-7 -39 -7 -77
q0 -74 30 -114t82 -40q60 0 106.5 52.5z" />
    <glyph glyph-name="e" unicode="e" horiz-adv-x="418" 
d="M331 93l38 -28q-27 -54 -72.5 -81.5t-99.5 -27.5q-78 0 -124 53.5t-46 150.5q0 36 8 82q15 87 51 144t84.5 84t100.5 27q62 0 96.5 -35.5t34.5 -94.5q0 -76 -56.5 -113.5t-175.5 -37.5q-24 0 -82 4q-4 -27 -4 -56q0 -78 31.5 -117.5t87.5 -39.5q82 0 128 86zM161.5 404
q-45.5 -43 -65.5 -137q53 -5 87 -5q83 0 123 25t40 77q0 39 -20.5 61t-62.5 22q-56 0 -101.5 -43z" />
    <glyph glyph-name="f" unicode="f" horiz-adv-x="279" 
d="M350.5 728q20.5 -9 29.5 -23l-26 -41q-23 24 -56 24q-35 0 -59 -30t-37 -104l-12 -67h115l-8 -45h-115l-101 -572q-14 -78 -45 -114.5t-81 -36.5q-46 0 -72 26l28 45q19 -18 44 -18q30 0 47.5 26t28.5 87l98 557h-74l8 45h74l13 74q17 95 57.5 135.5t94.5 40.5
q28 0 48.5 -9z" />
    <glyph glyph-name="g" unicode="g" horiz-adv-x="506" 
d="M472 487l-93 -527q-23 -131 -84.5 -186t-139.5 -55q-67 0 -113.5 36.5t-53.5 106.5l45 23q20 -116 126 -116q133 0 167 193l18 97q-29 -52 -70.5 -77.5t-87.5 -25.5q-69 0 -111.5 53t-42.5 149q0 35 8 83q23 130 86 193t143 63q53 0 88 -31.5t44 -94.5q7 31 24 116h47z
M380 299q0 76 -32 112t-81 36q-59 0 -106.5 -51.5t-66.5 -158.5q-7 -39 -7 -77q0 -74 30 -114t82 -40q56 0 104.5 49.5t68.5 164.5q8 48 8 79z" />
    <glyph glyph-name="h" unicode="h" horiz-adv-x="483" 
d="M393 459.5q34 -37.5 34 -109.5q0 -28 -6 -63l-57 -321h-53l55 315q6 33 6 59q0 53 -23 80t-65 27q-53 0 -97 -41t-58 -120l-57 -320h-53l135 761h53l-57 -317q28 42 68 64.5t84 22.5q57 0 91 -37.5z" />
    <glyph glyph-name="i" unicode="i" horiz-adv-x="197" 
d="M136 613.5q-12 12.5 -12 29.5t12 29t29 12t28.5 -12t11.5 -29t-11.5 -29.5t-28.5 -12.5t-29 12.5zM71 -34h-53l92 520h53z" />
    <glyph glyph-name="j" unicode="j" horiz-adv-x="188" 
d="M132 613.5q-12 12.5 -12 29.5t12 29t29 12t29 -12t12 -29t-12 -29.5t-29 -12.5t-29 12.5zM-143.5 -272q-21.5 9 -32.5 24l29 43q19 -26 55 -26q35 0 59 30t37 108l102 579h53l-103 -584q-17 -100 -55 -141.5t-94 -41.5q-29 0 -50.5 9z" />
    <glyph glyph-name="k" unicode="k" horiz-adv-x="435" 
d="M387 486h65l-209 -217l136 -303h-61l-116 262l-103 -107l-27 -155h-53l134 761h53l-73 -413q-3 -18 -16 -93q-2 -7 -4 -21q52 53 101 107z" />
    <glyph glyph-name="l" unicode="l" horiz-adv-x="199" 
d="M72 -34h-53l135 761h53z" />
    <glyph glyph-name="m" unicode="m" horiz-adv-x="708" 
d="M624 461q30 -36 30 -104q0 -24 -7 -68l-57 -323h-53l56 316q6 36 6 65q0 50 -19 75t-54 25q-48 0 -86 -42t-52 -118l-57 -321h-53l56 316q6 36 6 66q0 99 -73 99q-47 0 -85.5 -40t-52.5 -119l-57 -322h-53l92 520h47l-4 -27q-6 -32 -8 -51q26 44 62.5 66.5t76.5 22.5
q44 0 72 -27t35 -79q25 52 65.5 79t84.5 27q52 0 82 -36z" />
    <glyph glyph-name="n" unicode="n" horiz-adv-x="483" 
d="M393 459.5q34 -37.5 34 -108.5q0 -29 -6 -64l-57 -321h-53l56 315q6 32 6 58q0 54 -23.5 81t-65.5 27q-53 0 -97 -40.5t-58 -119.5l-57 -321h-53l92 521h47q-8 -51 -12 -85q27 46 68.5 70.5t87.5 24.5q57 0 91 -37.5z" />
    <glyph glyph-name="o" unicode="o" horiz-adv-x="484" 
d="M126 434q63 63 146 63q77 0 121 -52t44 -149q0 -46 -8 -87q-23 -129 -86.5 -191t-145.5 -62q-77 0 -121 52t-44 147q0 37 8 85q23 131 86 194zM87 160q0 -75 31 -114.5t85 -39.5q59 0 106 51t65 158q8 46 8 79q0 75 -30.5 114t-83.5 39q-59 0 -106.5 -51t-67.5 -160
q-7 -39 -7 -76z" />
    <glyph glyph-name="p" unicode="p" horiz-adv-x="507" 
d="M417.5 444.5q42.5 -52.5 42.5 -148.5q0 -36 -8 -84q-23 -130 -86 -193t-143 -63q-51 0 -86 30t-45 90l-61 -348h-54l134 758h47q-10 -59 -15 -102q29 57 72 85t91 28q69 0 111.5 -52.5zM332 57.5q47 51.5 66 159.5q7 39 7 77q0 74 -30 113.5t-81 39.5q-57 0 -105.5 -49
t-68.5 -165q-8 -48 -8 -79q0 -76 32 -112t81 -36q60 0 107 51.5z" />
    <glyph glyph-name="q" unicode="q" horiz-adv-x="507" 
d="M472 486l-133 -758h-54l59 333q-29 -53 -70.5 -79t-87.5 -26q-69 0 -111.5 53t-42.5 149q0 35 8 83q23 130 86 193t143 63q53 0 88 -31.5t44 -94.5l24 115h47zM303.5 55.5q48.5 49.5 68.5 164.5q8 48 8 79q0 76 -32 112t-81 36q-59 0 -106.5 -51.5t-66.5 -158.5
q-7 -39 -7 -77q0 -74 30 -114t82 -40q56 0 104.5 49.5z" />
    <glyph glyph-name="r" unicode="r" horiz-adv-x="311" 
d="M314 489q16 -8 23 -19l-27 -42q-17 19 -43 19q-29 0 -57.5 -20.5t-51 -61.5t-32.5 -98l-54 -301h-53l92 520h47q-10 -55 -13 -86q25 46 59 71.5t72 25.5q22 0 38 -8z" />
    <glyph glyph-name="s" unicode="s" horiz-adv-x="378" 
d="M262 -8q-43 -36 -109 -36q-64 0 -106 34t-46 97l44 24q4 -54 35 -80t76 -26q41 0 68.5 21t34.5 61q2 16 2 21q0 37 -23 59.5t-69 50.5q-34 21 -54.5 37t-34.5 39.5t-14 56.5q0 73 53 114q41 32 105 32q59 0 95.5 -32t40.5 -86l-45 -23q-3 42 -28 67t-67 25
q-36 0 -63 -18.5t-33 -54.5q-2 -12 -2 -17q0 -33 22 -54.5t67 -47.5q35 -21 56.5 -37.5t36.5 -42t15 -59.5q0 -13 -3 -30q-10 -62 -54 -95z" />
    <glyph glyph-name="t" unicode="t" horiz-adv-x="300" 
d="M296 441h-123l-56 -322q-5 -30 -5 -47q0 -67 57 -67q27 0 57 18l13 -41q-38 -26 -83 -26q-97 0 -97 107q0 29 5 55l57 323h-72l7 46h73l25 144h53l-25 -144h122z" />
    <glyph glyph-name="u" unicode="u" horiz-adv-x="483" 
d="M74 -6.5q-34 37.5 -34 108.5q0 30 6 64l57 321h53l-56 -315q-6 -31 -6 -58q0 -54 23.5 -81t65.5 -27q53 0 97 40.5t58 119.5l57 321h53l-92 -521h-47q8 51 12 85q-27 -46 -68.5 -70.5t-87.5 -24.5q-57 0 -91 37.5z" />
    <glyph glyph-name="v" unicode="v" horiz-adv-x="425" 
d="M106 486l71 -435l215 435h60l-267 -520h-44l-91 520h56z" />
    <glyph glyph-name="w" unicode="w" horiz-adv-x="660" 
d="M390 486l49 -425l192 425h54l-243 -520h-38l-55 411l-192 -411h-38l-69 520h54l50 -424l191 424h45z" />
    <glyph glyph-name="x" unicode="x" horiz-adv-x="407" 
d="M205 272l164 214h62l-206 -261l114 -259h-61l-90 216l-165 -216h-62l207 263l-115 257h61z" />
    <glyph glyph-name="y" unicode="y" horiz-adv-x="425" 
d="M174 32l219 454h59l-319 -635q-35 -69 -68 -100.5t-85 -31.5q-28 0 -48 8.5t-30 22.5l28 43q21 -24 54 -24q31 0 53.5 21.5t49.5 74.5l49 94l-89 527h57z" />
    <glyph glyph-name="z" unicode="z" horiz-adv-x="372" 
d="M84 486h297l-4 -28l-325 -446h256l-8 -46h-328l6 30l325 446h-227z" />
    <glyph glyph-name="braceleft" unicode="{" horiz-adv-x="318" 
d="M389 781l-10 -52h-21q-43 0 -68 -27.5t-36 -90.5l-25 -144q-12 -71 -39.5 -103t-71.5 -41q64 -13 64 -101q0 -24 -6 -57l-26 -146q-5 -30 -5 -46q0 -36 17 -51t53 -15h19l-9 -52h-9q-66 0 -98 26t-32 85q0 21 5 53l27 148q5 26 5 53q0 42 -19.5 59t-64.5 18l11 61
q39 0 62 10.5t37.5 36.5t23.5 75l25 144q16 87 56 122t107 35h28z" />
    <glyph glyph-name="bar" unicode="|" horiz-adv-x="151" 
d="M-23 -145l164 926h49l-164 -926h-49z" />
    <glyph glyph-name="braceright" unicode="}" horiz-adv-x="319" 
d="M-53 -145l9 52h22q43 0 68 27.5t36 90.5l24 144q13 71 40.5 103t71.5 41q-64 15 -64 103q0 20 5 55l27 146q5 28 5 45q0 36 -17.5 51.5t-53.5 15.5h-19l10 52h9q65 0 97 -26t32 -84q0 -29 -5 -54l-26 -148q-6 -31 -6 -55q0 -41 20 -57.5t65 -17.5l-11 -61
q-39 0 -62.5 -10.5t-37.5 -36.5t-23 -75l-25 -144q-16 -87 -56.5 -122t-106.5 -35h-28z" />
    <glyph glyph-name="asciitilde" unicode="~" 
d="M40 262q14 62 51 103t87 41q30 0 48 -14t37 -41q16 -22 29 -33.5t33 -11.5q54 0 83 93h47q-15 -63 -51.5 -104t-87.5 -41q-30 0 -48 14t-37 41q-16 22 -29 33.5t-33 11.5q-54 0 -82 -92h-47z" />
    <glyph glyph-name="uni00A0" unicode="&#xa0;" horiz-adv-x="230" 
 />
    <glyph glyph-name="exclamdown" unicode="&#xa1;" horiz-adv-x="187" 
d="M155.5 484.5q12.5 -12.5 12.5 -29.5q0 -18 -12 -30.5t-29 -12.5q-18 0 -30 12.5t-12 30.5q0 17 12 29.5t29 12.5t29.5 -12.5zM119 293l-91 -564h-59l107 564h43z" />
    <glyph glyph-name="cent" unicode="&#xa2;" 
d="M260 123q34 -2 65.5 15t49.5 49l36 -28q-26 -48 -69.5 -69.5t-90.5 -18.5l-18 -105h-52l20 111q-61 15 -96 64.5t-35 129.5q0 38 7 76q21 119 79 178t136 66l19 108h51l-19 -108q52 -5 84 -36t39 -85l-46 -23q-4 41 -26.5 64t-59.5 28zM125 274q0 -59 22.5 -95t62.5 -49
l72 408q-54 -10 -94.5 -56t-55.5 -139q-7 -35 -7 -69z" />
    <glyph glyph-name="sterling" unicode="&#xa3;" 
d="M457.5 660.5q39.5 -48.5 37.5 -118.5l-50 -23q-1 65 -27 101.5t-82 36.5q-52 0 -87.5 -34.5t-48.5 -108.5q-5 -29 -5 -65q0 -46 9 -105h160l-8 -47h-146q2 -28 2 -44q0 -29 -4 -53q-9 -56 -39 -103t-74 -81h312l-9 -50h-398l7 41q64 44 99.5 92t45.5 107q5 32 5 53
q0 14 -2 38h-98l8 47h83q-12 66 -12 107q0 30 6 66q17 97 70 144.5t127 47.5q79 0 118.5 -48.5z" />
    <glyph glyph-name="currency" unicode="&#xa4;" 
d="M405 455q18 -36 18 -84q0 -26 -4 -49q-13 -73 -53 -121l51 -75l-44 -36l-50 72q-47 -34 -106 -34q-66 0 -105 42l-73 -71l-30 37l75 72q-19 40 -19 89q0 26 4 47q13 72 54 121l-51 72l43 38l50 -73q47 34 106 34q66 0 106 -42l72 71l31 -38zM370 367q0 55 -28 87t-76 32
q-51 0 -91.5 -38t-52.5 -108q-4 -20 -4 -42q0 -55 27.5 -87.5t75.5 -32.5q52 0 92.5 38.5t52.5 109.5q4 19 4 41z" />
    <glyph glyph-name="yen" unicode="&#xa5;" 
d="M260 378l215 320h65l-248 -359h138l-9 -47h-148l-16 -89h149l-8 -47h-149l-33 -190h-60l34 190h-145l9 47h144l16 89h-145l9 47h132l-133 359h68z" />
    <glyph glyph-name="brokenbar" unicode="&#xa6;" horiz-adv-x="151" 
d="M76 414l65 367h49l-65 -367h-49zM-23 -145l65 367h49l-65 -367h-49z" />
    <glyph glyph-name="section" unicode="&#xa7;" horiz-adv-x="490" 
d="M185 524q0 -34 16.5 -58.5t40.5 -42t66 -40.5q45 -25 73 -45t47 -50.5t19 -72.5q0 -16 -3 -36q-11 -65 -53.5 -102.5t-106.5 -46.5q29 -24 45.5 -53t16.5 -69q0 -16 -3 -35q-14 -81 -70.5 -117.5t-126.5 -36.5q-81 0 -128.5 45.5t-49.5 115.5l52 23q4 -60 37.5 -96.5
t93.5 -36.5q47 0 83.5 25t46.5 81q2 9 2 25q0 34 -16.5 58.5t-40.5 41.5t-66 40q-46 26 -73 45.5t-46 50t-19 72.5q0 17 3 36q11 63 53 101.5t104 50.5q-28 23 -43.5 51.5t-15.5 67.5q0 16 3 34q15 83 73.5 121t130.5 38q80 0 125.5 -46t43.5 -118l-52 -23q0 62 -30.5 98.5
t-90.5 36.5q-50 0 -89.5 -25.5t-49.5 -82.5q-2 -18 -2 -25zM385 205q0 34 -16.5 58.5t-40.5 42t-66 40.5l-28 15h-7q-53 -2 -91.5 -32t-48.5 -84q-2 -9 -2 -26q0 -34 16.5 -58.5t41 -41.5t66.5 -40l22 -12l11 -1q54 2 92.5 31t48.5 83q2 18 2 25z" />
    <glyph glyph-name="dieresis" unicode="&#xa8;" horiz-adv-x="315" 
d="M112.5 605q-12.5 13 -12.5 30q0 18 12 30t29 12q18 0 30 -12t12 -30q0 -17 -12 -30t-29 -13t-29.5 13zM272.5 605q-12.5 13 -12.5 30q0 18 12 30t29 12q18 0 30.5 -12t12.5 -30q0 -17 -12.5 -30t-29.5 -13t-29.5 13z" />
    <glyph glyph-name="copyright" unicode="&#xa9;" horiz-adv-x="743" 
d="M578 672q61 -37 94 -104.5t33 -158.5q0 -45 -9 -95q-20 -115 -74 -195.5t-130.5 -121.5t-163.5 -41q-81 0 -141.5 36.5t-93.5 104.5t-33 158q0 46 9 97q20 115 74 195.5t129.5 121t161.5 40.5q83 0 144 -37zM655 407q0 118 -60.5 187t-163.5 69q-75 0 -139.5 -36
t-110.5 -107.5t-64 -172.5q-8 -43 -8 -90q0 -118 59.5 -186.5t164.5 -68.5q74 0 139 36t111 107t64 173q8 41 8 89zM496.5 524.5q30.5 -22.5 38.5 -68.5l-42 -24q-12 67 -78 67q-49 0 -86.5 -38.5t-52.5 -119.5q-5 -33 -5 -55q0 -58 25 -89t68 -31q26 0 50 12.5t41 40.5
l33 -24q-22 -39 -57 -58t-73 -19q-60 0 -98 44.5t-38 122.5q0 29 6 60q18 101 71.5 151.5t121.5 50.5q45 0 75.5 -22.5z" />
    <glyph glyph-name="ordfeminine" unicode="&#xaa;" horiz-adv-x="359" 
d="M382 698l-65 -368h-42l9 54q-21 -30 -48.5 -45t-57.5 -15q-49 0 -78 35.5t-29 102.5q0 29 6 63q17 94 60.5 137t100.5 43q33 0 57 -17t34 -52l11 62h42zM257.5 397q31.5 32 45.5 112q6 33 6 58q0 51 -20 74t-51 23q-38 0 -68 -35t-43 -110q-5 -26 -5 -57
q0 -48 18.5 -72.5t50.5 -24.5q35 0 66.5 32z" />
    <glyph glyph-name="guillemotleft" unicode="&#xab;" horiz-adv-x="461" 
d="M220 443h65l-199 -219l118 -212h-60l-120 216zM399 443h64l-198 -219l117 -212h-60l-119 216z" />
    <glyph glyph-name="logicalnot" unicode="&#xac;" 
d="M392 336h-340l8 50h393l-44 -246h-51z" />
    <glyph glyph-name="uni00AD" unicode="&#xad;" horiz-adv-x="401" 
d="M63 304l9 49h293l-9 -49h-293z" />
    <glyph glyph-name="registered" unicode="&#xae;" horiz-adv-x="452" 
d="M103.5 612.5q25.5 44.5 69.5 70.5t96 26q53 0 97 -26t69.5 -70.5t25.5 -96.5t-25.5 -96t-69.5 -69.5t-97 -25.5q-52 0 -96 25.5t-69.5 69.5t-25.5 96t25.5 96.5zM133.5 436.5q21.5 -36.5 57 -57.5t78.5 -21t79 21t57.5 57.5t21.5 79.5q0 44 -21.5 80.5t-57.5 57.5t-79 21
t-78.5 -21t-57 -57.5t-21.5 -80.5q0 -43 21.5 -79.5zM183 410l38 216h71q33 0 50 -15t17 -40q0 -28 -15 -46t-41 -24l44 -91h-36l-41 88h-39l-15 -88h-33zM277 526q23 0 36 11t13 31q0 30 -40 30h-37l-13 -72h41z" />
    <glyph glyph-name="macron" unicode="&#xaf;" horiz-adv-x="339" 
d="M178 613l9 50h221l-9 -50h-221z" />
    <glyph glyph-name="degree" unicode="&#xb0;" horiz-adv-x="281" 
d="M118.5 752.5q37.5 37.5 90.5 37.5q54 0 91 -37.5t37 -94.5q0 -56 -36.5 -93t-91.5 -37q-53 0 -90.5 37t-37.5 93q0 57 37.5 94.5zM150.5 595.5q23.5 -24.5 58.5 -24.5q36 0 59.5 24t23.5 63q0 40 -23.5 64.5t-59.5 24.5q-35 0 -58.5 -24.5t-23.5 -64.5q0 -38 23.5 -62.5z
" />
    <glyph glyph-name="plusminus" unicode="&#xb1;" 
d="M266 575h51l-29 -163h170l-9 -51h-170l-29 -164h-51l29 164h-171l9 51h171zM409 137l-8 -51h-392l8 51h392z" />
    <glyph glyph-name="uni00B2" unicode="&#xb2;" horiz-adv-x="253" 
d="M287 700q-15 -29 -51 -71l-114 -134h147l-7 -38h-203l5 29l138 163q33 39 44 59.5t11 46.5q0 19 -10.5 30t-29.5 11q-43 0 -73 -63l-29 22q37 80 110 80q38 0 57.5 -21t19.5 -54q0 -31 -15 -60z" />
    <glyph glyph-name="uni00B3" unicode="&#xb3;" horiz-adv-x="253" 
d="M279 688q-17 -25 -46 -35q21 -9 33 -29t12 -48q0 -16 -2 -25q-9 -49 -40 -74t-74 -25q-42 0 -67 24t-26 66l34 14q2 -31 17 -48t43 -17q31 0 50.5 21t19.5 61q0 28 -16 44t-46 16h-20l6 36h24q27 0 45.5 18t23.5 47q1 5 1 16q0 21 -10.5 34t-31.5 13q-43 0 -68 -55
l-29 23q16 34 43 52t60 18q37 0 59 -23t22 -59q0 -40 -17 -65z" />
    <glyph glyph-name="acute" unicode="&#xb4;" horiz-adv-x="208" 
d="M136 562l84 148h58l-99 -148h-43z" />
    <glyph glyph-name="uni00B5" unicode="&#xb5;" horiz-adv-x="498" 
d="M384 74q-3 -16 -3 -30q0 -37 30 -37q12 0 23 5v-45q-19 -11 -44 -11q-61 0 -61 66q0 15 1 23q-27 -43 -65 -66t-82 -23q-76 0 -98 65l-52 -292h-53l133 758h53l-57 -328q-5 -32 -5 -51q0 -50 23 -75.5t65 -25.5q51 0 93.5 38.5t60.5 113.5l58 327h53z" />
    <glyph glyph-name="paragraph" unicode="&#xb6;" horiz-adv-x="472" 
d="M169 667q46 32 118 32h59l-129 -733h-49l79 448q-67 0 -103.5 30t-36.5 86q0 10 4 36q12 69 58 101zM341 -34h-49l130 733h48z" />
    <glyph glyph-name="periodcentered" unicode="&#xb7;" horiz-adv-x="219" 
d="M94.5 300q-12.5 13 -12.5 30q0 18 12 30t29 12q18 0 30 -12t12 -30t-12 -30.5t-30 -12.5q-16 0 -28.5 13z" />
    <glyph glyph-name="cedilla" unicode="&#xb8;" horiz-adv-x="231" 
d="M31 -110q38 -4 60.5 -24t22.5 -51q0 -44 -33 -70t-80 -26q-34 0 -62 9l8 42q32 -10 52 -10q28 0 45.5 13.5t17.5 39.5q0 22 -23.5 31.5t-61.5 7.5l-1 27l55 103h50z" />
    <glyph glyph-name="uni00B9" unicode="&#xb9;" horiz-adv-x="202" 
d="M110 729l9 47l88 53h35l-66 -372h-43l56 318z" />
    <glyph glyph-name="ordmasculine" unicode="&#xba;" horiz-adv-x="348" 
d="M138.5 662q44.5 43 102.5 43q55 0 87.5 -38.5t32.5 -107.5q0 -27 -6 -59q-16 -91 -60 -133.5t-101 -42.5q-56 0 -88.5 38.5t-32.5 107.5q0 32 5 58q16 91 60.5 134zM123 466q0 -49 19.5 -75t52.5 -26q37 0 67 33t43 107q6 32 6 56q0 50 -20 76.5t-53 26.5
q-37 0 -66.5 -34t-42.5 -107q-6 -31 -6 -57z" />
    <glyph glyph-name="guillemotright" unicode="&#xbb;" horiz-adv-x="461" 
d="M64 443h60l120 -216l-196 -215h-65l199 219zM243 443h60l119 -216l-196 -215h-64l198 219z" />
    <glyph glyph-name="onequarter" unicode="&#xbc;" horiz-adv-x="573" 
d="M581 699l-549 -733h-48l548 733h49zM87 599l9 47l88 53h35l-66 -372h-43l56 318zM496 191l-17 -100h50l-7 -37h-50l-15 -88h-40l16 88h-143l5 28l167 256h43l-162 -247h96l18 100h39z" />
    <glyph glyph-name="onehalf" unicode="&#xbd;" horiz-adv-x="595" 
d="M581 699l-549 -733h-48l548 733h49zM87 599l9 47l88 53h35l-66 -372h-43l56 318zM542 209q-15 -29 -51 -71l-114 -134h147l-7 -38h-203l5 29l138 163q33 39 44 59.5t11 46.5q0 19 -10.5 30t-29.5 11q-43 0 -73 -63l-29 22q37 80 110 80q38 0 57.5 -21t19.5 -54
q0 -31 -15 -60z" />
    <glyph glyph-name="threequarters" unicode="&#xbe;" horiz-adv-x="623" 
d="M256 558q-17 -25 -46 -35q21 -9 33 -29t12 -48q0 -16 -2 -25q-9 -49 -40 -74t-74 -25q-42 0 -67 24t-26 66l34 14q2 -31 17 -48t43 -17q31 0 50.5 21t19.5 61q0 28 -16 44t-46 16h-20l6 36h24q27 0 45.5 18t23.5 47q1 5 1 16q0 21 -10.5 34t-31.5 13q-43 0 -68 -55
l-29 23q16 34 43 52t60 18q37 0 59 -23t22 -59q0 -40 -17 -65zM630 699l-548 -733h-48l547 733h49zM546 191l-18 -100h50l-6 -37h-51l-15 -88h-39l15 88h-143l5 28l167 256h44l-162 -247h96l18 100h39z" />
    <glyph glyph-name="questiondown" unicode="&#xbf;" horiz-adv-x="357" 
d="M248 484.5q12 -12.5 12 -30.5q0 -17 -12 -29.5t-29 -12.5t-29.5 12.5t-12.5 29.5q0 18 12 30.5t30 12.5q17 0 29 -12.5zM281 -156q-29 -62 -80 -93.5t-109 -31.5q-67 0 -105 39t-38 100q0 11 4 37q9 53 35 88t73 78q39 36 62 63.5t38 69t14 99.5h47q1 -11 1 -30
q0 -56 -15.5 -97t-38 -68t-59.5 -63q-42 -40 -64 -70t-30 -73q-3 -15 -3 -29q0 -41 22.5 -66t65.5 -25q41 0 76.5 24t61.5 75z" />
    <glyph glyph-name="Agrave" unicode="&#xc0;" horiz-adv-x="566" 
d="M294 902h55l36 -132h-38zM380 699l117 -733h-60l-34 227h-267l-112 -227h-63l372 733h47zM396 244l-54 370l-182 -370h236z" />
    <glyph glyph-name="Aacute" unicode="&#xc1;" horiz-adv-x="566" 
d="M352 770l84 132h57l-97 -132h-44zM380 699l117 -733h-60l-34 227h-267l-112 -227h-63l372 733h47zM396 244l-54 370l-182 -370h236z" />
    <glyph glyph-name="Acircumflex" unicode="&#xc2;" horiz-adv-x="566" 
d="M370 902h46l66 -132h-50l-45 94l-79 -94h-54zM380 699l117 -733h-60l-34 227h-267l-112 -227h-63l372 733h47zM396 244l-54 370l-182 -370h236z" />
    <glyph glyph-name="Atilde" unicode="&#xc3;" horiz-adv-x="566" 
d="M256 786q25 103 82 103q18 0 28.5 -9.5t23.5 -27.5q9 -13 15 -19t15 -6q25 0 40 60h43q-11 -48 -32.5 -76t-51.5 -28q-17 0 -27 9t-22 26q-9 13 -15.5 19.5t-15.5 6.5q-14 0 -23.5 -14.5t-17.5 -43.5h-42zM380 699l117 -733h-60l-34 227h-267l-112 -227h-63l372 733h47z
M396 244l-54 370l-182 -370h236z" />
    <glyph glyph-name="Adieresis" unicode="&#xc4;" horiz-adv-x="566" 
d="M272.5 816.5q-12.5 12.5 -12.5 30.5q0 17 12 29.5t29 12.5q18 0 30 -12.5t12 -29.5q0 -18 -12 -30.5t-29 -12.5t-29.5 12.5zM432.5 816.5q-12.5 12.5 -12.5 30.5q0 17 12.5 29.5t29.5 12.5t29.5 -12.5t12.5 -29.5q0 -18 -12 -30.5t-30 -12.5q-17 0 -29.5 12.5zM380 699
l117 -733h-60l-34 227h-267l-112 -227h-63l372 733h47zM396 244l-54 370l-182 -370h236z" />
    <glyph glyph-name="Aring" unicode="&#xc5;" horiz-adv-x="566" 
d="M319.5 924q27.5 27 66.5 27t65 -26t26 -67q0 -40 -27 -66t-65 -26q-39 0 -66 26t-27 66q0 39 27.5 66zM347 818q15 -16 39 -16q23 0 37 16t14 40q0 26 -14 41.5t-37 15.5t-38.5 -16t-15.5 -41q0 -24 15 -40zM380 699l117 -733h-60l-34 227h-267l-112 -227h-63l372 733h47
zM396 244l-54 370l-182 -370h236z" />
    <glyph glyph-name="AE" unicode="&#xc6;" horiz-adv-x="829" 
d="M848 698l-9 -51h-294l-49 -276h265l-9 -51h-265l-53 -303h304l-10 -51h-360l42 237h-218l-168 -237h-63l521 732h366zM228 254h190l64 362z" />
    <glyph glyph-name="Ccedilla" unicode="&#xc7;" horiz-adv-x="532" 
d="M221 582.5q-66 -75.5 -93 -229.5q-11 -59 -11 -118q0 -109 43.5 -168.5t121.5 -59.5q53 0 95 28.5t70 85.5l40 -27q-70 -136 -208 -138l-37 -66q38 -4 60.5 -24t22.5 -51q0 -44 -33 -70t-80 -26q-34 0 -61 9l7 42q32 -10 52 -10q28 0 45.5 13.5t17.5 39.5
q0 22 -23.5 31.5t-61.5 7.5l-1 27l44 82q-83 15 -128.5 82.5t-45.5 183.5q0 57 12 126q32 182 115 269t194 87q80 0 126 -44.5t51 -118.5l-46 -24q-4 61 -39 98.5t-98 37.5q-85 0 -151 -75.5z" />
    <glyph glyph-name="Egrave" unicode="&#xc8;" horiz-adv-x="486" 
d="M268 906h55l37 -132h-38zM155 698h350l-9 -49h-294l-49 -279h265l-9 -50h-266l-53 -305h304l-9 -49h-359z" />
    <glyph glyph-name="Eacute" unicode="&#xc9;" horiz-adv-x="486" 
d="M327 774l83 132h58l-98 -132h-43zM155 698h350l-9 -49h-294l-49 -279h265l-9 -50h-266l-53 -305h304l-9 -49h-359z" />
    <glyph glyph-name="Ecircumflex" unicode="&#xca;" horiz-adv-x="486" 
d="M345 906h45l66 -132h-49l-46 94l-79 -94h-54zM155 698h350l-9 -49h-294l-49 -279h265l-9 -50h-266l-53 -305h304l-9 -49h-359z" />
    <glyph glyph-name="Edieresis" unicode="&#xcb;" horiz-adv-x="486" 
d="M247 820.5q-12 12.5 -12 29.5q0 18 12 30.5t29 12.5t29.5 -12.5t12.5 -30.5q0 -17 -12 -29.5t-30 -12.5q-17 0 -29 12.5zM407 820.5q-12 12.5 -12 29.5q0 18 12 30.5t29 12.5t29.5 -12.5t12.5 -30.5q0 -17 -12 -29.5t-30 -12.5q-17 0 -29 12.5zM155 698h350l-9 -49h-294
l-49 -279h265l-9 -50h-266l-53 -305h304l-9 -49h-359z" />
    <glyph glyph-name="Igrave" unicode="&#xcc;" horiz-adv-x="215" 
d="M122 907h54l37 -133h-38zM81 -34h-55l129 732h55z" />
    <glyph glyph-name="Iacute" unicode="&#xcd;" horiz-adv-x="215" 
d="M180 774l83 133h58l-97 -133h-44zM81 -34h-55l129 732h55z" />
    <glyph glyph-name="Icircumflex" unicode="&#xce;" horiz-adv-x="215" 
d="M198 907h45l66 -133h-49l-46 94l-79 -94h-54zM81 -34h-55l129 732h55z" />
    <glyph glyph-name="Idieresis" unicode="&#xcf;" horiz-adv-x="215" 
d="M100.5 821q-12.5 13 -12.5 30q0 18 12 30t29 12t29.5 -12t12.5 -30t-12 -30.5t-30 -12.5q-16 0 -28.5 13zM260.5 821q-12.5 13 -12.5 30q0 18 12 30t29 12q18 0 30 -12t12 -30q0 -17 -12 -30t-29 -13t-29.5 13zM81 -34h-55l129 732h55z" />
    <glyph glyph-name="Eth" unicode="&#xd0;" horiz-adv-x="609" 
d="M327 698q119 0 181.5 -73.5t62.5 -204.5q0 -56 -10 -113q-30 -171 -117 -256t-225 -85h-179l63 355h-79l10 51h78l57 326h158zM512 419q0 108 -49.5 169t-148.5 61h-98l-48 -277h123l-9 -51h-124l-53 -306h108q237 0 289 296q10 56 10 108z" />
    <glyph glyph-name="Ntilde" unicode="&#xd1;" horiz-adv-x="607" 
d="M276 791q27 103 83 103q18 0 29.5 -10t22.5 -28q9 -13 15 -19t14 -6q26 0 41 60h42q-10 -48 -31.5 -75.5t-51.5 -27.5q-18 0 -28.5 9t-21.5 26q-9 13 -15.5 19t-15.5 6q-14 0 -23 -13.5t-17 -43.5h-43zM201 698l240 -621l110 621h52l-129 -732h-47l-239 620l-111 -620
h-51l129 732h46z" />
    <glyph glyph-name="Ograve" unicode="&#xd2;" horiz-adv-x="623" 
d="M325 906h55l37 -132h-38zM181.5 621q80.5 88 192.5 88q101 0 158 -70t57 -200q0 -58 -12 -127q-33 -184 -113 -270t-192 -86q-102 0 -158.5 68t-56.5 198q0 59 12 129q32 182 112.5 270zM116 228q0 -107 42 -164t120 -57q87 0 150 75t90 230q11 61 11 121
q0 108 -41.5 166.5t-119.5 58.5q-87 0 -150 -76t-90 -231q-12 -67 -12 -123z" />
    <glyph glyph-name="Oacute" unicode="&#xd3;" horiz-adv-x="623" 
d="M383 774l84 132h57l-97 -132h-44zM181.5 621q80.5 88 192.5 88q101 0 158 -70t57 -200q0 -58 -12 -127q-33 -184 -113 -270t-192 -86q-102 0 -158.5 68t-56.5 198q0 59 12 129q32 182 112.5 270zM116 228q0 -107 42 -164t120 -57q87 0 150 75t90 230q11 61 11 121
q0 108 -41.5 166.5t-119.5 58.5q-87 0 -150 -76t-90 -231q-12 -67 -12 -123z" />
    <glyph glyph-name="Ocircumflex" unicode="&#xd4;" horiz-adv-x="623" 
d="M402 906h45l66 -132h-50l-45 94l-79 -94h-54zM181.5 621q80.5 88 192.5 88q101 0 158 -70t57 -200q0 -58 -12 -127q-33 -184 -113 -270t-192 -86q-102 0 -158.5 68t-56.5 198q0 59 12 129q32 182 112.5 270zM116 228q0 -107 42 -164t120 -57q87 0 150 75t90 230
q11 61 11 121q0 108 -41.5 166.5t-119.5 58.5q-87 0 -150 -76t-90 -231q-12 -67 -12 -123z" />
    <glyph glyph-name="Otilde" unicode="&#xd5;" horiz-adv-x="623" 
d="M287 790q25 103 82 103q18 0 29.5 -10t23.5 -28q9 -13 15 -19t14 -6q24 0 40 60h43q-11 -47 -32 -75t-51 -28q-18 0 -28.5 9t-21.5 26q-9 13 -15.5 19t-15.5 6q-14 0 -23.5 -14t-17.5 -43h-42zM181.5 621q80.5 88 192.5 88q101 0 158 -70t57 -200q0 -58 -12 -127
q-33 -184 -113 -270t-192 -86q-102 0 -158.5 68t-56.5 198q0 59 12 129q32 182 112.5 270zM116 228q0 -107 42 -164t120 -57q87 0 150 75t90 230q11 61 11 121q0 108 -41.5 166.5t-119.5 58.5q-87 0 -150 -76t-90 -231q-12 -67 -12 -123z" />
    <glyph glyph-name="Odieresis" unicode="&#xd6;" horiz-adv-x="623" 
d="M303.5 820.5q-12.5 12.5 -12.5 29.5q0 18 12 30.5t29 12.5q18 0 30.5 -12.5t12.5 -30.5q0 -17 -12.5 -29.5t-29.5 -12.5t-29.5 12.5zM464 820.5q-12 12.5 -12 29.5q0 18 12 30.5t29 12.5t29.5 -12.5t12.5 -30.5q0 -17 -12 -29.5t-30 -12.5q-17 0 -29 12.5zM181.5 621
q80.5 88 192.5 88q101 0 158 -70t57 -200q0 -58 -12 -127q-33 -184 -113 -270t-192 -86q-102 0 -158.5 68t-56.5 198q0 59 12 129q32 182 112.5 270zM116 228q0 -107 42 -164t120 -57q87 0 150 75t90 230q11 61 11 121q0 108 -41.5 166.5t-119.5 58.5q-87 0 -150 -76
t-90 -231q-12 -67 -12 -123z" />
    <glyph glyph-name="multiply" unicode="&#xd7;" 
d="M253 365l157 132l29 -36l-156 -133l109 -132l-42 -37l-109 133l-157 -133l-29 37l156 132l-109 133l42 36z" />
    <glyph glyph-name="Oslash" unicode="&#xd8;" horiz-adv-x="624" 
d="M592 732h58l-96 -127q35 -65 35 -166q0 -58 -12 -127q-33 -184 -113 -270t-192 -86q-99 0 -154 67l-69 -90h-58l97 130q-31 61 -31 158q0 60 12 130q32 182 112.5 270t192.5 88q97 0 151 -66zM116 231q0 -63 15 -110l358 475q-41 62 -121 62q-87 0 -150 -76t-90 -231
q-12 -66 -12 -120zM529 432q0 67 -17 116l-359 -476q42 -65 125 -65q86 0 149 75t90 230q12 66 12 120z" />
    <glyph glyph-name="Ugrave" unicode="&#xd9;" horiz-adv-x="593" 
d="M310 906h55l36 -132h-38zM542 698h55l-83 -481q-24 -133 -89 -197t-171 -64q-97 0 -146.5 51.5t-49.5 151.5q0 42 9 93l78 446h55l-76 -441q-9 -48 -9 -88q0 -162 143 -162q162 0 202 221z" />
    <glyph glyph-name="Uacute" unicode="&#xda;" horiz-adv-x="593" 
d="M368 774l84 132h57l-97 -132h-44zM542 698h55l-83 -481q-24 -133 -89 -197t-171 -64q-97 0 -146.5 51.5t-49.5 151.5q0 42 9 93l78 446h55l-76 -441q-9 -48 -9 -88q0 -162 143 -162q162 0 202 221z" />
    <glyph glyph-name="Ucircumflex" unicode="&#xdb;" horiz-adv-x="593" 
d="M386 906h46l66 -132h-50l-45 94l-79 -94h-54zM542 698h55l-83 -481q-24 -133 -89 -197t-171 -64q-97 0 -146.5 51.5t-49.5 151.5q0 42 9 93l78 446h55l-76 -441q-9 -48 -9 -88q0 -162 143 -162q162 0 202 221z" />
    <glyph glyph-name="Udieresis" unicode="&#xdc;" horiz-adv-x="593" 
d="M288.5 820.5q-12.5 12.5 -12.5 29.5q0 18 12 30.5t29 12.5q18 0 30 -12.5t12 -30.5q0 -17 -12 -29.5t-29 -12.5t-29.5 12.5zM448.5 820.5q-12.5 12.5 -12.5 29.5q0 18 12.5 30.5t29.5 12.5t29.5 -12.5t12.5 -30.5q0 -17 -12 -29.5t-30 -12.5q-17 0 -29.5 12.5zM542 698
h55l-83 -481q-24 -133 -89 -197t-171 -64q-97 0 -146.5 51.5t-49.5 151.5q0 42 9 93l78 446h55l-76 -441q-9 -48 -9 -88q0 -162 143 -162q162 0 202 221z" />
    <glyph glyph-name="Yacute" unicode="&#xdd;" horiz-adv-x="508" 
d="M325 774l84 133h57l-97 -133h-44zM272 342l233 356h63l-278 -418l-56 -314h-56l56 318l-144 414h63z" />
    <glyph glyph-name="Thorn" unicode="&#xde;" horiz-adv-x="489" 
d="M292 551q86 0 134.5 -49t48.5 -131q0 -21 -5 -51q-17 -94 -80 -148t-161 -54h-119l-27 -152h-57l129 732h57l-26 -147h106zM416 366q0 63 -36 99.5t-100 36.5h-102l-59 -335h110q75 0 122.5 42t60.5 115q4 20 4 42z" />
    <glyph glyph-name="germandbls" unicode="&#xdf;" horiz-adv-x="501" 
d="M420 424.5q-33 -41.5 -81 -59.5q48 -18 73 -61t25 -102q0 -22 -5 -52q-16 -93 -72 -143.5t-137 -50.5q-52 0 -79 17l9 50q25 -17 69 -17q61 0 101.5 38.5t53.5 112.5q4 21 4 46q0 62 -33 100t-95 38h-30l9 46h22q64 0 103 38.5t51 105.5q4 20 4 45q0 50 -23 81t-74 31
q-116 0 -146 -172l-97 -550h-53l99 558q19 105 70 159t131 54q76 0 112.5 -45t36.5 -114q0 -23 -5 -51q-10 -61 -43 -102.5z" />
    <glyph glyph-name="agrave" unicode="&#xe0;" horiz-adv-x="507" 
d="M248 709h56l34 -148h-38zM472 487l-92 -521h-47l7 46q6 30 9 57q-30 -57 -72.5 -85t-90.5 -28q-69 0 -111.5 52.5t-42.5 148.5q0 36 8 84q23 130 86 193t143 63q53 0 88 -31.5t44 -94.5q11 41 24 116h47zM306.5 59.5q45.5 53.5 66.5 165.5q7 39 7 74q0 76 -32 112t-81 36
q-60 0 -107 -51.5t-66 -158.5q-7 -39 -7 -77q0 -74 30 -114t81 -40q63 0 108.5 53.5z" />
    <glyph glyph-name="aacute" unicode="&#xe1;" horiz-adv-x="507" 
d="M291 561l84 148h58l-99 -148h-43zM472 487l-92 -521h-47l7 46q6 30 9 57q-30 -57 -72.5 -85t-90.5 -28q-69 0 -111.5 52.5t-42.5 148.5q0 36 8 84q23 130 86 193t143 63q53 0 88 -31.5t44 -94.5q11 41 24 116h47zM306.5 59.5q45.5 53.5 66.5 165.5q7 39 7 74
q0 76 -32 112t-81 36q-60 0 -107 -51.5t-66 -158.5q-7 -39 -7 -77q0 -74 30 -114t81 -40q63 0 108.5 53.5z" />
    <glyph glyph-name="acircumflex" unicode="&#xe2;" horiz-adv-x="507" 
d="M320 709h45l64 -148h-49l-45 105l-78 -105h-54zM472 487l-92 -521h-47l7 46q6 30 9 57q-30 -57 -72.5 -85t-90.5 -28q-69 0 -111.5 52.5t-42.5 148.5q0 36 8 84q23 130 86 193t143 63q53 0 88 -31.5t44 -94.5q11 41 24 116h47zM306.5 59.5q45.5 53.5 66.5 165.5
q7 39 7 74q0 76 -32 112t-81 36q-60 0 -107 -51.5t-66 -158.5q-7 -39 -7 -77q0 -74 30 -114t81 -40q63 0 108.5 53.5z" />
    <glyph glyph-name="atilde" unicode="&#xe3;" horiz-adv-x="507" 
d="M204 580q27 103 83 103q18 0 29.5 -10t22.5 -28q9 -13 15 -19t14 -6q26 0 41 60h43q-11 -47 -32.5 -75t-51.5 -28q-18 0 -28.5 9t-21.5 26q-9 13 -15.5 19t-15.5 6q-14 0 -23 -13.5t-17 -43.5h-43zM472 487l-92 -521h-47l7 46q6 30 9 57q-30 -57 -72.5 -85t-90.5 -28
q-69 0 -111.5 52.5t-42.5 148.5q0 36 8 84q23 130 86 193t143 63q53 0 88 -31.5t44 -94.5q11 41 24 116h47zM306.5 59.5q45.5 53.5 66.5 165.5q7 39 7 74q0 76 -32 112t-81 36q-60 0 -107 -51.5t-66 -158.5q-7 -39 -7 -77q0 -74 30 -114t81 -40q63 0 108.5 53.5z" />
    <glyph glyph-name="adieresis" unicode="&#xe4;" horiz-adv-x="507" 
d="M219.5 604.5q-12.5 12.5 -12.5 30.5q0 17 12.5 29.5t29.5 12.5t29.5 -12.5t12.5 -29.5q0 -18 -12 -30.5t-30 -12.5q-17 0 -29.5 12.5zM380 604.5q-12 12.5 -12 30.5q0 17 12 29.5t29 12.5t29.5 -12.5t12.5 -29.5q0 -18 -12 -30.5t-30 -12.5q-17 0 -29 12.5zM472 487
l-92 -521h-47l7 46q6 30 9 57q-30 -57 -72.5 -85t-90.5 -28q-69 0 -111.5 52.5t-42.5 148.5q0 36 8 84q23 130 86 193t143 63q53 0 88 -31.5t44 -94.5q11 41 24 116h47zM306.5 59.5q45.5 53.5 66.5 165.5q7 39 7 74q0 76 -32 112t-81 36q-60 0 -107 -51.5t-66 -158.5
q-7 -39 -7 -77q0 -74 30 -114t81 -40q63 0 108.5 53.5z" />
    <glyph glyph-name="aring" unicode="&#xe5;" horiz-adv-x="507" 
d="M249.5 718q27.5 27 66.5 27t65 -26.5t26 -66.5t-27 -66.5t-65 -26.5q-39 0 -66 26t-27 66t27.5 67zM277 611q15 -16 39 -16q23 0 37.5 16t14.5 41t-14.5 40.5t-37.5 15.5t-38.5 -16t-15.5 -40q0 -25 15 -41zM472 487l-92 -521h-47l7 46q6 30 9 57q-30 -57 -72.5 -85
t-90.5 -28q-69 0 -111.5 52.5t-42.5 148.5q0 36 8 84q23 130 86 193t143 63q53 0 88 -31.5t44 -94.5q11 41 24 116h47zM306.5 59.5q45.5 53.5 66.5 165.5q7 39 7 74q0 76 -32 112t-81 36q-60 0 -107 -51.5t-66 -158.5q-7 -39 -7 -77q0 -74 30 -114t81 -40q63 0 108.5 53.5z
" />
    <glyph glyph-name="ae" unicode="&#xe6;" horiz-adv-x="718" 
d="M630 93l39 -28q-27 -54 -72.5 -81.5t-99.5 -27.5q-62 0 -102 35.5t-52 101.5q-25 -66 -71.5 -101.5t-105.5 -35.5q-60 0 -99 35.5t-39 99.5q0 18 3 37q14 79 69 116t140 37q45 0 102 -11l3 19q5 33 5 54q0 104 -93 104q-78 0 -119 -77l-37 24q25 51 69 77t97 26
q54 0 88 -28t41 -83q32 56 77 83.5t98 27.5q62 0 96.5 -35.5t34.5 -94.5q0 -75 -53.5 -117.5t-162.5 -42.5q-48 0 -98 7q-4 -25 -4 -54q0 -75 31.5 -114t87.5 -39q83 0 127 86zM460 402.5q-46 -44.5 -65 -142.5q47 -8 93 -8q79 0 118.5 29t39.5 83q0 38 -20.5 60.5
t-62.5 22.5q-57 0 -103 -44.5zM334 224q-49 10 -93 10q-134 0 -155 -111q-2 -10 -2 -28q0 -44 24 -67.5t63 -23.5q32 0 63 17t54.5 50t31.5 78z" />
    <glyph glyph-name="ccedilla" unicode="&#xe7;" horiz-adv-x="405" 
d="M269.5 23q30.5 17 50.5 54l38 -25q-25 -48 -64.5 -71t-85.5 -25l-37 -66q38 -4 60.5 -24t22.5 -51q0 -45 -33 -70.5t-80 -25.5q-33 0 -61 9l8 42q32 -10 51 -10q25 0 42 11t21 32q1 3 1 9q0 23 -24 32.5t-62 7.5v27l44 82q-59 12 -94 63.5t-35 135.5q0 35 8 81
q27 153 117 218q51 38 113 38q56 0 92 -31.5t43 -87.5l-44 -24q-7 45 -31 69t-64 24q-57 0 -104.5 -51t-67.5 -160q-7 -36 -7 -72q0 -77 32.5 -117.5t86.5 -40.5q33 0 63.5 17z" />
    <glyph glyph-name="egrave" unicode="&#xe8;" horiz-adv-x="418" 
d="M192 709h56l34 -148h-38zM331 93l38 -28q-27 -54 -72.5 -81.5t-99.5 -27.5q-78 0 -124 53.5t-46 150.5q0 36 8 82q15 87 51 144t84.5 84t100.5 27q62 0 96.5 -35.5t34.5 -94.5q0 -76 -56.5 -113.5t-175.5 -37.5q-24 0 -82 4q-4 -27 -4 -56q0 -78 31.5 -117.5t87.5 -39.5
q82 0 128 86zM161.5 404q-45.5 -43 -65.5 -137q53 -5 87 -5q83 0 123 25t40 77q0 39 -20.5 61t-62.5 22q-56 0 -101.5 -43z" />
    <glyph glyph-name="eacute" unicode="&#xe9;" horiz-adv-x="418" 
d="M235 561l84 148h58l-99 -148h-43zM331 93l38 -28q-27 -54 -72.5 -81.5t-99.5 -27.5q-78 0 -124 53.5t-46 150.5q0 36 8 82q15 87 51 144t84.5 84t100.5 27q62 0 96.5 -35.5t34.5 -94.5q0 -76 -56.5 -113.5t-175.5 -37.5q-24 0 -82 4q-4 -27 -4 -56q0 -78 31.5 -117.5
t87.5 -39.5q82 0 128 86zM161.5 404q-45.5 -43 -65.5 -137q53 -5 87 -5q83 0 123 25t40 77q0 39 -20.5 61t-62.5 22q-56 0 -101.5 -43z" />
    <glyph glyph-name="ecircumflex" unicode="&#xea;" horiz-adv-x="418" 
d="M264 709h45l64 -148h-49l-45 105l-78 -105h-54zM331 93l38 -28q-27 -54 -72.5 -81.5t-99.5 -27.5q-78 0 -124 53.5t-46 150.5q0 36 8 82q15 87 51 144t84.5 84t100.5 27q62 0 96.5 -35.5t34.5 -94.5q0 -76 -56.5 -113.5t-175.5 -37.5q-24 0 -82 4q-4 -27 -4 -56
q0 -78 31.5 -117.5t87.5 -39.5q82 0 128 86zM161.5 404q-45.5 -43 -65.5 -137q53 -5 87 -5q83 0 123 25t40 77q0 39 -20.5 61t-62.5 22q-56 0 -101.5 -43z" />
    <glyph glyph-name="edieresis" unicode="&#xeb;" horiz-adv-x="418" 
d="M163.5 604.5q-12.5 12.5 -12.5 30.5q0 17 12.5 29.5t29.5 12.5t29.5 -12.5t12.5 -29.5q0 -18 -12 -30.5t-30 -12.5q-17 0 -29.5 12.5zM324 604.5q-12 12.5 -12 30.5q0 17 12 29.5t29 12.5t29.5 -12.5t12.5 -29.5q0 -18 -12 -30.5t-30 -12.5q-17 0 -29 12.5zM331 93
l38 -28q-27 -54 -72.5 -81.5t-99.5 -27.5q-78 0 -124 53.5t-46 150.5q0 36 8 82q15 87 51 144t84.5 84t100.5 27q62 0 96.5 -35.5t34.5 -94.5q0 -76 -56.5 -113.5t-175.5 -37.5q-24 0 -82 4q-4 -27 -4 -56q0 -78 31.5 -117.5t87.5 -39.5q82 0 128 86zM161.5 404
q-45.5 -43 -65.5 -137q53 -5 87 -5q83 0 123 25t40 77q0 39 -20.5 61t-62.5 22q-56 0 -101.5 -43z" />
    <glyph glyph-name="igrave" unicode="&#xec;" horiz-adv-x="197" 
d="M81 710h57l34 -148h-38zM18 -34l92 520h53l-92 -520h-53z" />
    <glyph glyph-name="iacute" unicode="&#xed;" horiz-adv-x="197" 
d="M125 562l83 148h59l-99 -148h-43zM18 -34l92 520h53l-92 -520h-53z" />
    <glyph glyph-name="icircumflex" unicode="&#xee;" horiz-adv-x="197" 
d="M153 710h46l64 -148h-49l-45 105l-79 -105h-53zM18 -34l92 520h53l-92 -520h-53z" />
    <glyph glyph-name="idieresis" unicode="&#xef;" horiz-adv-x="197" 
d="M53.5 605q-12.5 13 -12.5 30q0 18 12 30t29 12q18 0 30.5 -12t12.5 -30q0 -17 -12.5 -30t-29.5 -13t-29.5 13zM214.5 605q-12.5 13 -12.5 30q0 18 12 30t29 12t29.5 -12t12.5 -30t-12 -30.5t-30 -12.5q-16 0 -28.5 13zM18 -34l92 520h53l-92 -520h-53z" />
    <glyph glyph-name="eth" unicode="&#xf0;" horiz-adv-x="497" 
d="M448 737l21 -41l-105 -63q87 -110 87 -280q0 -58 -12 -130q-24 -137 -88 -202t-148 -65q-78 0 -122.5 53t-44.5 150q0 35 8 85q23 129 87.5 191.5t145.5 62.5q39 0 68 -16t46 -46q-16 102 -71 171l-132 -80l-20 41l118 72q-29 29 -77 58l29 39q52 -28 94 -70zM387 297
q0 73 -30.5 111t-82.5 38q-60 0 -107 -51t-66 -158q-7 -39 -7 -77q0 -75 30.5 -114t81.5 -39q60 0 107.5 53t66.5 160q7 39 7 77z" />
    <glyph glyph-name="ntilde" unicode="&#xf1;" horiz-adv-x="483" 
d="M176 581q27 102 83 102q18 0 28.5 -9.5t23.5 -27.5q9 -13 15 -19t15 -6q25 0 40 60h43q-11 -48 -32.5 -75.5t-51.5 -27.5q-17 0 -27.5 9t-21.5 26q-9 13 -15.5 19t-15.5 6q-14 0 -23.5 -14t-17.5 -43h-43zM393 459.5q34 -37.5 34 -108.5q0 -29 -6 -64l-57 -321h-53
l56 315q6 32 6 58q0 54 -23.5 81t-65.5 27q-53 0 -97 -40.5t-58 -119.5l-57 -321h-53l92 521h47q-8 -51 -12 -85q27 46 68.5 70.5t87.5 24.5q57 0 91 -37.5z" />
    <glyph glyph-name="ograve" unicode="&#xf2;" horiz-adv-x="484" 
d="M224 709h57l34 -148h-38zM126 434q63 63 146 63q77 0 121 -52t44 -149q0 -46 -8 -87q-23 -129 -86.5 -191t-145.5 -62q-77 0 -121 52t-44 147q0 37 8 85q23 131 86 194zM87 160q0 -75 31 -114.5t85 -39.5q59 0 106 51t65 158q8 46 8 79q0 75 -30.5 114t-83.5 39
q-59 0 -106.5 -51t-67.5 -160q-7 -39 -7 -76z" />
    <glyph glyph-name="oacute" unicode="&#xf3;" horiz-adv-x="484" 
d="M268 561l83 148h59l-99 -148h-43zM126 434q63 63 146 63q77 0 121 -52t44 -149q0 -46 -8 -87q-23 -129 -86.5 -191t-145.5 -62q-77 0 -121 52t-44 147q0 37 8 85q23 131 86 194zM87 160q0 -75 31 -114.5t85 -39.5q59 0 106 51t65 158q8 46 8 79q0 75 -30.5 114t-83.5 39
q-59 0 -106.5 -51t-67.5 -160q-7 -39 -7 -76z" />
    <glyph glyph-name="ocircumflex" unicode="&#xf4;" horiz-adv-x="484" 
d="M296 709h46l64 -148h-49l-45 105l-79 -105h-53zM126 434q63 63 146 63q77 0 121 -52t44 -149q0 -46 -8 -87q-23 -129 -86.5 -191t-145.5 -62q-77 0 -121 52t-44 147q0 37 8 85q23 131 86 194zM87 160q0 -75 31 -114.5t85 -39.5q59 0 106 51t65 158q8 46 8 79
q0 75 -30.5 114t-83.5 39q-59 0 -106.5 -51t-67.5 -160q-7 -39 -7 -76z" />
    <glyph glyph-name="otilde" unicode="&#xf5;" horiz-adv-x="484" 
d="M181 580q27 103 83 103q18 0 29 -9.5t23 -28.5q9 -13 15 -19t14 -6q26 0 40 60h43q-11 -48 -32 -75.5t-51 -27.5q-18 0 -28.5 9t-21.5 26q-9 13 -15.5 19t-15.5 6q-14 0 -23 -13.5t-17 -43.5h-43zM126 434q63 63 146 63q77 0 121 -52t44 -149q0 -46 -8 -87
q-23 -129 -86.5 -191t-145.5 -62q-77 0 -121 52t-44 147q0 37 8 85q23 131 86 194zM87 160q0 -75 31 -114.5t85 -39.5q59 0 106 51t65 158q8 46 8 79q0 75 -30.5 114t-83.5 39q-59 0 -106.5 -51t-67.5 -160q-7 -39 -7 -76z" />
    <glyph glyph-name="odieresis" unicode="&#xf6;" horiz-adv-x="484" 
d="M196.5 604.5q-12.5 12.5 -12.5 30.5q0 17 12 29.5t29 12.5q18 0 30.5 -12.5t12.5 -29.5q0 -18 -12.5 -30.5t-29.5 -12.5t-29.5 12.5zM357 604.5q-12 12.5 -12 30.5q0 17 12 29.5t29 12.5t29.5 -12.5t12.5 -29.5q0 -18 -12 -30.5t-30 -12.5q-17 0 -29 12.5zM126 434
q63 63 146 63q77 0 121 -52t44 -149q0 -46 -8 -87q-23 -129 -86.5 -191t-145.5 -62q-77 0 -121 52t-44 147q0 37 8 85q23 131 86 194zM87 160q0 -75 31 -114.5t85 -39.5q59 0 106 51t65 158q8 46 8 79q0 75 -30.5 114t-83.5 39q-59 0 -106.5 -51t-67.5 -160q-7 -39 -7 -76z
" />
    <glyph glyph-name="divide" unicode="&#xf7;" 
d="M250.5 481q-12.5 13 -12.5 30t12 29.5t29 12.5t29.5 -12.5t12.5 -29.5q0 -18 -12 -30.5t-30 -12.5q-16 0 -28.5 13zM438 303h-392l9 51h392zM185.5 116q-12.5 13 -12.5 30t12.5 29.5t29.5 12.5t29.5 -12.5t12.5 -29.5q0 -18 -12 -30.5t-30 -12.5q-17 0 -29.5 13z" />
    <glyph glyph-name="oslash" unicode="&#xf8;" horiz-adv-x="485" 
d="M435 520h54l-79 -101q27 -48 27 -123q0 -46 -8 -87q-23 -129 -86.5 -191t-145.5 -62q-69 0 -110 43l-51 -66h-54l77 100q-27 47 -27 122q0 44 8 85q23 131 86 194t146 63q69 0 110 -44zM87 162q0 -44 11 -77l251 324q-29 38 -82 38q-59 0 -106.5 -51t-66.5 -160
q-7 -38 -7 -74zM380 292q0 44 -10 74l-249 -323q14 -18 35 -27.5t46 -9.5q59 0 106 51t65 158q7 39 7 77z" />
    <glyph glyph-name="ugrave" unicode="&#xf9;" horiz-adv-x="483" 
d="M221 710h56l34 -148h-38zM74 -6.5q-34 37.5 -34 108.5q0 30 6 64l57 321h53l-56 -315q-6 -31 -6 -58q0 -54 23.5 -81t65.5 -27q53 0 97 40.5t58 119.5l57 321h53l-92 -521h-47q8 51 12 85q-27 -46 -68.5 -70.5t-87.5 -24.5q-57 0 -91 37.5z" />
    <glyph glyph-name="uacute" unicode="&#xfa;" horiz-adv-x="483" 
d="M264 562l84 148h58l-98 -148h-44zM74 -6.5q-34 37.5 -34 108.5q0 30 6 64l57 321h53l-56 -315q-6 -31 -6 -58q0 -54 23.5 -81t65.5 -27q53 0 97 40.5t58 119.5l57 321h53l-92 -521h-47q8 51 12 85q-27 -46 -68.5 -70.5t-87.5 -24.5q-57 0 -91 37.5z" />
    <glyph glyph-name="ucircumflex" unicode="&#xfb;" horiz-adv-x="483" 
d="M293 710h45l65 -148h-49l-45 105l-79 -105h-54zM74 -6.5q-34 37.5 -34 108.5q0 30 6 64l57 321h53l-56 -315q-6 -31 -6 -58q0 -54 23.5 -81t65.5 -27q53 0 97 40.5t58 119.5l57 321h53l-92 -521h-47q8 51 12 85q-27 -46 -68.5 -70.5t-87.5 -24.5q-57 0 -91 37.5z" />
    <glyph glyph-name="udieresis" unicode="&#xfc;" horiz-adv-x="483" 
d="M193.5 605q-12.5 13 -12.5 30q0 18 12 30t29 12t29.5 -12t12.5 -30t-12 -30.5t-30 -12.5q-16 0 -28.5 13zM353.5 605q-12.5 13 -12.5 30q0 18 12 30t29 12q18 0 30 -12t12 -30q0 -17 -12 -30t-29 -13t-29.5 13zM74 -6.5q-34 37.5 -34 108.5q0 30 6 64l57 321h53l-56 -315
q-6 -31 -6 -58q0 -54 23.5 -81t65.5 -27q53 0 97 40.5t58 119.5l57 321h53l-92 -521h-47q8 51 12 85q-27 -46 -68.5 -70.5t-87.5 -24.5q-57 0 -91 37.5z" />
    <glyph glyph-name="yacute" unicode="&#xfd;" horiz-adv-x="425" 
d="M252 561l84 148h58l-99 -148h-43zM174 32l219 454h59l-319 -635q-35 -69 -68 -100.5t-85 -31.5q-28 0 -48 8.5t-30 22.5l28 43q21 -24 54 -24q31 0 53.5 21.5t49.5 74.5l49 94l-89 527h57z" />
    <glyph glyph-name="thorn" unicode="&#xfe;" horiz-adv-x="505" 
d="M416 443.5q43 -53.5 43 -149.5q0 -34 -8 -82q-24 -131 -87.5 -193.5t-141.5 -62.5q-51 0 -86 29.5t-45 88.5l-61 -347h-53l176 1000h53l-58 -332q29 51 69.5 76.5t86.5 25.5q69 0 112 -53.5zM329.5 57.5q47.5 51.5 66.5 159.5q7 41 7 78q0 74 -29.5 113t-81.5 39
q-55 0 -104 -48t-69 -166q-8 -40 -8 -80q0 -76 32 -111.5t80 -35.5q59 0 106.5 51.5z" />
    <glyph glyph-name="ydieresis" unicode="&#xff;" horiz-adv-x="425" 
d="M166 604.5q-12 12.5 -12 29.5q0 18 12 30.5t29 12.5t29.5 -12.5t12.5 -30.5q0 -17 -12 -29.5t-30 -12.5q-17 0 -29 12.5zM326 604.5q-12 12.5 -12 29.5q0 18 12 30.5t29 12.5q18 0 30 -12.5t12 -30.5q0 -17 -12 -29.5t-30 -12.5q-17 0 -29 12.5zM174 32l219 454h59
l-319 -635q-35 -69 -68 -100.5t-85 -31.5q-28 0 -48 8.5t-30 22.5l28 43q21 -24 54 -24q31 0 53.5 21.5t49.5 74.5l49 94l-89 527h57z" />
    <glyph glyph-name="Amacron" unicode="&#x100;" horiz-adv-x="566" 
d="M267 822l9 49h221l-9 -49h-221zM380 699l117 -733h-60l-34 227h-267l-112 -227h-63l372 733h47zM396 244l-54 370l-182 -370h236z" />
    <glyph glyph-name="amacron" unicode="&#x101;" horiz-adv-x="506" 
d="M215 613l9 49h221l-8 -49h-222zM472 487l-92 -521h-47l7 46q6 30 9 57q-29 -57 -72 -85t-91 -28q-69 0 -111.5 53t-42.5 149q0 35 8 83q23 130 86 193t143 63q53 0 88 -31.5t44 -94.5q11 41 24 116h47zM306.5 59.5q45.5 53.5 66.5 165.5q7 39 7 75q0 76 -31.5 111.5
t-81.5 35.5q-59 0 -106.5 -51.5t-66.5 -158.5q-7 -39 -7 -77q0 -74 30 -114t82 -40q62 0 107.5 53.5z" />
    <glyph glyph-name="Abreve" unicode="&#x102;" horiz-adv-x="566" 
d="M302 797.5q-25 27.5 -25 72.5q0 16 3 32h47q-2 -18 -2 -25q0 -31 13.5 -48t38.5 -17q58 0 78 90h49q-10 -62 -43.5 -97t-89.5 -35q-44 0 -69 27.5zM380 699l117 -733h-60l-34 227h-267l-112 -227h-63l372 733h47zM396 244l-54 370l-182 -370h236z" />
    <glyph glyph-name="abreve" unicode="&#x103;" horiz-adv-x="507" 
d="M252.5 591.5q-24.5 27.5 -24.5 74.5q0 20 4 39h46q-3 -16 -3 -31q0 -32 13 -49.5t37 -17.5q58 0 81 98h49q-12 -67 -47 -104t-89 -37q-42 0 -66.5 27.5zM472 487l-92 -521h-47l7 46q6 30 9 57q-30 -57 -72.5 -85t-90.5 -28q-69 0 -111.5 52.5t-42.5 148.5q0 36 8 84
q23 130 86 193t143 63q53 0 88 -31.5t44 -94.5q11 41 24 116h47zM306.5 59.5q45.5 53.5 66.5 165.5q7 39 7 74q0 76 -32 112t-81 36q-60 0 -107 -51.5t-66 -158.5q-7 -39 -7 -77q0 -74 30 -114t81 -40q63 0 108.5 53.5z" />
    <glyph glyph-name="Aogonek" unicode="&#x104;" horiz-adv-x="566" 
d="M513 -232q-41 -49 -95 -49q-37 0 -61.5 21.5t-24.5 62.5q0 89 105 166l-34 224h-267l-112 -227h-63l372 733h47l117 -733q-115 -77 -115 -155q0 -25 13 -37t32 -12q33 0 68 38zM342 614l-182 -370h236z" />
    <glyph glyph-name="aogonek" unicode="&#x105;" horiz-adv-x="507" 
d="M377 -200l19 -32q-43 -49 -95 -49q-37 0 -61.5 21.5t-24.5 62.5q0 53 34.5 98t85.5 79l5 28q2 12 4.5 27.5t4.5 33.5q-30 -57 -72.5 -85t-90.5 -28q-69 0 -111.5 52.5t-42.5 148.5q0 36 8 84q23 130 86 193t143 63q53 0 88 -31.5t44 -94.5q11 41 24 116h47l-92 -521
q-115 -76 -115 -156q0 -24 12.5 -36t32.5 -12q32 0 67 38zM306.5 59.5q45.5 53.5 66.5 165.5q7 39 7 74q0 76 -32 112t-81 36q-60 0 -107 -51.5t-66 -158.5q-7 -39 -7 -77q0 -74 30 -114t81 -40q63 0 108.5 53.5z" />
    <glyph glyph-name="Cacute" unicode="&#x106;" horiz-adv-x="532" 
d="M377 774l83 133h58l-97 -133h-44zM221 582.5q-66 -75.5 -93 -229.5q-11 -59 -11 -118q0 -109 43.5 -168.5t121.5 -59.5q53 0 95 28.5t70 85.5l40 -27q-70 -138 -210 -138q-103 0 -161.5 69.5t-58.5 201.5q0 57 12 126q32 182 115 269t194 87q80 0 126 -44.5t51 -118.5
l-46 -24q-4 61 -39 98.5t-98 37.5q-85 0 -151 -75.5z" />
    <glyph glyph-name="cacute" unicode="&#x107;" horiz-adv-x="405" 
d="M257 562l84 148h58l-99 -148h-43zM269.5 23q30.5 17 50.5 54l38 -25q-26 -50 -68 -73t-90 -23q-76 0 -121.5 53.5t-45.5 150.5q0 40 7 81q27 153 117 218q51 38 113 38q56 0 92 -31.5t43 -87.5l-44 -24q-7 45 -31 69t-64 24q-57 0 -104.5 -51t-67.5 -160q-7 -36 -7 -72
q0 -77 32.5 -117.5t86.5 -40.5q33 0 63.5 17z" />
    <glyph glyph-name="Ccircumflex" unicode="&#x108;" horiz-adv-x="532" 
d="M395 907h46l65 -133h-49l-46 94l-79 -94h-54zM221 582.5q-66 -75.5 -93 -229.5q-11 -59 -11 -118q0 -109 43.5 -168.5t121.5 -59.5q53 0 95 28.5t70 85.5l40 -27q-70 -138 -210 -138q-103 0 -161.5 69.5t-58.5 201.5q0 57 12 126q32 182 115 269t194 87q80 0 126 -44.5
t51 -118.5l-46 -24q-4 61 -39 98.5t-98 37.5q-85 0 -151 -75.5z" />
    <glyph glyph-name="ccircumflex" unicode="&#x109;" horiz-adv-x="405" 
d="M285 710h46l64 -148h-49l-45 105l-78 -105h-54zM269.5 23q30.5 17 50.5 54l38 -25q-26 -50 -68 -73t-90 -23q-76 0 -121.5 53.5t-45.5 150.5q0 40 7 81q27 153 117 218q51 38 113 38q56 0 92 -31.5t43 -87.5l-44 -24q-7 45 -31 69t-64 24q-57 0 -104.5 -51t-67.5 -160
q-7 -36 -7 -72q0 -77 32.5 -117.5t86.5 -40.5q33 0 63.5 17z" />
    <glyph glyph-name="Cdotaccent" unicode="&#x10a;" horiz-adv-x="532" 
d="M377.5 821q-12.5 13 -12.5 30q0 18 12.5 30t29.5 12t29.5 -12t12.5 -30t-12 -30.5t-30 -12.5q-17 0 -29.5 13zM221 582.5q-66 -75.5 -93 -229.5q-11 -59 -11 -118q0 -109 43.5 -168.5t121.5 -59.5q53 0 95 28.5t70 85.5l40 -27q-70 -138 -210 -138q-103 0 -161.5 69.5
t-58.5 201.5q0 57 12 126q32 182 115 269t194 87q80 0 126 -44.5t51 -118.5l-46 -24q-4 61 -39 98.5t-98 37.5q-85 0 -151 -75.5z" />
    <glyph glyph-name="cdotaccent" unicode="&#x10b;" horiz-adv-x="405" 
d="M256.5 605q-12.5 13 -12.5 30q0 18 12.5 30t29.5 12t29.5 -12t12.5 -30q0 -17 -12.5 -30t-29.5 -13t-29.5 13zM269.5 23q30.5 17 50.5 54l38 -25q-26 -50 -68 -73t-90 -23q-76 0 -121.5 53.5t-45.5 150.5q0 40 7 81q27 153 117 218q51 38 113 38q56 0 92 -31.5t43 -87.5
l-44 -24q-7 45 -31 69t-64 24q-57 0 -104.5 -51t-67.5 -160q-7 -36 -7 -72q0 -77 32.5 -117.5t86.5 -40.5q33 0 63.5 17z" />
    <glyph glyph-name="Ccaron" unicode="&#x10c;" horiz-adv-x="532" 
d="M353 907l46 -94l79 94h54l-117 -133h-45l-66 133h49zM221 582.5q-66 -75.5 -93 -229.5q-11 -59 -11 -118q0 -109 43.5 -168.5t121.5 -59.5q53 0 95 28.5t70 85.5l40 -27q-70 -138 -210 -138q-103 0 -161.5 69.5t-58.5 201.5q0 57 12 126q32 182 115 269t194 87
q80 0 126 -44.5t51 -118.5l-46 -24q-4 61 -39 98.5t-98 37.5q-85 0 -151 -75.5z" />
    <glyph glyph-name="ccaron" unicode="&#x10d;" horiz-adv-x="405" 
d="M244 710l45 -105l79 105h53l-116 -148h-46l-64 148h49zM269.5 23q30.5 17 50.5 54l38 -25q-26 -50 -68 -73t-90 -23q-76 0 -121.5 53.5t-45.5 150.5q0 40 7 81q27 153 117 218q51 38 113 38q56 0 92 -31.5t43 -87.5l-44 -24q-7 45 -31 69t-64 24q-57 0 -104.5 -51
t-67.5 -160q-7 -36 -7 -72q0 -77 32.5 -117.5t86.5 -40.5q33 0 63.5 17z" />
    <glyph glyph-name="Dcaron" unicode="&#x10e;" horiz-adv-x="594" 
d="M276 906l45 -94l79 94h54l-117 -132h-45l-66 132h50zM312 698q119 0 182 -73.5t63 -203.5q0 -51 -11 -114q-30 -171 -117 -256t-225 -85h-178l129 732h157zM498 418q0 109 -49.5 170t-148.5 61h-98l-112 -634h108q238 0 290 296q10 54 10 107z" />
    <glyph glyph-name="dcaron" unicode="&#x10f;" horiz-adv-x="550" 
d="M648.5 727q9.5 -10 9.5 -30q0 -5 -2 -19q-8 -42 -37.5 -71t-75.5 -37l6 29q57 15 69 64q-2 -1 -8 -1q-14 0 -21.5 8t-7.5 21q0 18 12.5 32t30.5 14q15 0 24.5 -10zM462 727h53l-135 -761h-47l7 46q6 30 9 57q-29 -57 -72 -85t-91 -28q-69 0 -111.5 53t-42.5 149
q0 35 8 83q23 130 86 193t143 63q52 0 87 -30t44 -89zM305.5 58.5q46.5 52.5 66.5 163.5q8 48 8 79q0 76 -32 111t-81 35q-59 0 -106.5 -51.5t-66.5 -158.5q-7 -39 -7 -77q0 -74 30 -114t82 -40q60 0 106.5 52.5z" />
    <glyph glyph-name="Dcroat" unicode="&#x110;" horiz-adv-x="608" 
d="M327 698q119 0 181.5 -73.5t62.5 -204.5q0 -56 -10 -113q-30 -171 -117 -256t-225 -85h-179l63 355h-79l10 51h78l57 326h158zM512 419q0 108 -49.5 169t-148.5 61h-98l-48 -277h123l-9 -51h-124l-53 -306h108q237 0 289 296q10 56 10 108z" />
    <glyph glyph-name="dcroat" unicode="&#x111;" horiz-adv-x="470" 
d="M501 625h76l-9 -47h-76l-108 -612h-47l7 46q6 30 9 57q-29 -57 -72.5 -85t-90.5 -28q-69 0 -111.5 52.5t-42.5 147.5q0 35 8 85q23 130 86 193t143 63q52 0 87 -30t44 -89l35 200h-109l8 47h109l18 102h53zM383 299q0 77 -31.5 112.5t-80.5 35.5q-60 0 -107 -51.5
t-66 -158.5q-7 -39 -7 -77q0 -74 30 -114t81 -40q60 0 107 52.5t67 163.5q7 41 7 77z" />
    <glyph glyph-name="Emacron" unicode="&#x112;" horiz-adv-x="486" 
d="M241 825l9 50h221l-8 -50h-222zM155 698h350l-9 -49h-294l-49 -279h265l-9 -50h-266l-53 -305h304l-9 -49h-359z" />
    <glyph glyph-name="emacron" unicode="&#x113;" horiz-adv-x="418" 
d="M159 613l9 49h221l-9 -49h-221zM331 93l38 -28q-27 -54 -72.5 -81.5t-99.5 -27.5q-78 0 -124 53.5t-46 150.5q0 36 8 82q15 87 51 144t84.5 84t100.5 27q62 0 96.5 -35.5t34.5 -94.5q0 -76 -56.5 -113.5t-175.5 -37.5q-24 0 -82 4q-4 -27 -4 -56q0 -78 31.5 -117.5
t87.5 -39.5q82 0 128 86zM161.5 404q-45.5 -43 -65.5 -137q53 -5 87 -5q83 0 123 25t40 77q0 39 -20.5 61t-62.5 22q-56 0 -101.5 -43z" />
    <glyph glyph-name="Ebreve" unicode="&#x114;" horiz-adv-x="486" 
d="M276 801q-25 27 -25 73q0 16 3 32h47q-2 -16 -2 -23q0 -32 13.5 -49.5t38.5 -17.5q60 0 78 90h49q-9 -61 -43 -96.5t-90 -35.5q-44 0 -69 27zM155 698h350l-9 -49h-294l-49 -279h265l-9 -50h-266l-53 -305h304l-9 -49h-359z" />
    <glyph glyph-name="ebreve" unicode="&#x115;" horiz-adv-x="418" 
d="M196.5 591.5q-24.5 27.5 -24.5 74.5q0 20 4 39h46q-3 -16 -3 -31q0 -32 13 -49.5t37 -17.5q58 0 81 98h49q-12 -67 -47 -104t-89 -37q-42 0 -66.5 27.5zM331 93l38 -28q-27 -54 -72.5 -81.5t-99.5 -27.5q-78 0 -124 53.5t-46 150.5q0 36 8 82q15 87 51 144t84.5 84
t100.5 27q62 0 96.5 -35.5t34.5 -94.5q0 -76 -56.5 -113.5t-175.5 -37.5q-24 0 -82 4q-4 -27 -4 -56q0 -78 31.5 -117.5t87.5 -39.5q82 0 128 86zM161.5 404q-45.5 -43 -65.5 -137q53 -5 87 -5q83 0 123 25t40 77q0 39 -20.5 61t-62.5 22q-56 0 -101.5 -43z" />
    <glyph glyph-name="Edotaccent" unicode="&#x116;" horiz-adv-x="486" 
d="M327.5 820.5q-12.5 12.5 -12.5 29.5q0 18 12 30.5t29 12.5q18 0 30 -12.5t12 -30.5q0 -17 -12 -29.5t-29 -12.5t-29.5 12.5zM155 698h350l-9 -49h-294l-49 -279h265l-9 -50h-266l-53 -305h304l-9 -49h-359z" />
    <glyph glyph-name="edotaccent" unicode="&#x117;" horiz-adv-x="418" 
d="M234.5 604.5q-12.5 12.5 -12.5 30.5q0 17 12.5 29.5t29.5 12.5t29.5 -12.5t12.5 -29.5q0 -18 -12 -30.5t-30 -12.5q-17 0 -29.5 12.5zM331 93l38 -28q-27 -54 -72.5 -81.5t-99.5 -27.5q-78 0 -124 53.5t-46 150.5q0 36 8 82q15 87 51 144t84.5 84t100.5 27
q62 0 96.5 -35.5t34.5 -94.5q0 -76 -56.5 -113.5t-175.5 -37.5q-24 0 -82 4q-4 -27 -4 -56q0 -78 31.5 -117.5t87.5 -39.5q82 0 128 86zM161.5 404q-45.5 -43 -65.5 -137q53 -5 87 -5q83 0 123 25t40 77q0 39 -20.5 61t-62.5 22q-56 0 -101.5 -43z" />
    <glyph glyph-name="Eogonek" unicode="&#x118;" horiz-adv-x="486" 
d="M505 698l-9 -49h-294l-49 -279h265l-9 -50h-266l-53 -305h304l-9 -49q-99 -66 -113 -138q-2 -12 -2 -17q0 -25 13 -37t32 -12q33 0 68 38l18 -32q-41 -49 -95 -49q-37 0 -61.5 21.5t-24.5 62.5q0 88 101 163h-295l129 732h350z" />
    <glyph glyph-name="eogonek" unicode="&#x119;" horiz-adv-x="423" 
d="M336 93l38 -28q-22 -45 -59 -73q-59 -47 -89 -85t-37 -78q-2 -14 -2 -19q0 -24 11.5 -36t31.5 -12q19 0 35 10t34 28l19 -32q-44 -49 -98 -49q-34 0 -58.5 21.5t-24.5 63.5q0 41 20.5 77.5t60.5 75.5q-5 -1 -15 -1q-78 0 -124.5 54t-46.5 151q0 35 8 81q15 87 51.5 144
t84.5 84t100 27q62 0 96.5 -35.5t34.5 -94.5q0 -76 -56 -113.5t-175 -37.5q-24 0 -82 4q-4 -28 -4 -58q0 -77 31.5 -116t86.5 -39q82 0 128 86zM166.5 404q-45.5 -43 -65.5 -137q53 -5 87 -5q84 0 124 25t40 77q0 39 -20.5 61t-63.5 22q-56 0 -101.5 -43z" />
    <glyph glyph-name="Ecaron" unicode="&#x11a;" horiz-adv-x="486" 
d="M303 906l46 -94l79 94h54l-117 -132h-45l-66 132h49zM155 698h350l-9 -49h-294l-49 -279h265l-9 -50h-266l-53 -305h304l-9 -49h-359z" />
    <glyph glyph-name="ecaron" unicode="&#x11b;" horiz-adv-x="418" 
d="M222 709l45 -105l79 105h54l-117 -148h-46l-64 148h49zM331 93l38 -28q-27 -54 -72.5 -81.5t-99.5 -27.5q-78 0 -124 53.5t-46 150.5q0 36 8 82q15 87 51 144t84.5 84t100.5 27q62 0 96.5 -35.5t34.5 -94.5q0 -76 -56.5 -113.5t-175.5 -37.5q-24 0 -82 4q-4 -27 -4 -56
q0 -78 31.5 -117.5t87.5 -39.5q82 0 128 86zM161.5 404q-45.5 -43 -65.5 -137q53 -5 87 -5q83 0 123 25t40 77q0 39 -20.5 61t-62.5 22q-56 0 -101.5 -43z" />
    <glyph glyph-name="Gcircumflex" unicode="&#x11c;" horiz-adv-x="576" 
d="M395 906h46l66 -132h-50l-45 94l-80 -94h-53zM477 285h-130l9 49h185l-49 -278q-73 -100 -199 -100q-107 0 -170.5 71.5t-63.5 207.5q0 61 11 120q21 120 68 199t111 117t137 38q57 0 98.5 -22t63 -59.5t23.5 -83.5l-49 -27q-2 58 -37.5 99.5t-103.5 41.5q-88 0 -157 -76
t-95 -227q-11 -66 -11 -114q0 -114 48 -174t131 -60q89 0 144 69z" />
    <glyph glyph-name="gcircumflex" unicode="&#x11d;" horiz-adv-x="506" 
d="M352 562l-45 105l-79 -105h-54l117 148h45l65 -148h-49zM471 487l-93 -527q-23 -131 -84.5 -186t-139.5 -55q-67 0 -113.5 36.5t-53.5 106.5l45 23q20 -116 127 -116q63 0 105.5 45t61.5 148l17 96q-30 -51 -71 -76.5t-86 -25.5q-69 0 -111.5 52.5t-42.5 147.5q0 35 8 85
q23 130 86 193t142 63q53 0 88.5 -31.5t44.5 -94.5q12 53 23 116h47zM379 301q0 76 -31.5 111t-80.5 35q-60 0 -107.5 -51.5t-65.5 -158.5q-8 -46 -8 -78q0 -73 30.5 -113t81.5 -40q56 0 104.5 49.5t68.5 164.5q8 41 8 81z" />
    <glyph glyph-name="Gbreve" unicode="&#x11e;" horiz-adv-x="576" 
d="M327 801q-25 27 -25 73q0 16 3 32h47q-2 -18 -2 -25q0 -31 13 -48t38 -17q59 0 79 90h49q-10 -62 -43.5 -97t-89.5 -35q-44 0 -69 27zM477 285h-130l9 49h185l-49 -278q-73 -100 -199 -100q-107 0 -170.5 71.5t-63.5 207.5q0 61 11 120q21 120 68 199t111 117t137 38
q57 0 98.5 -22t63 -59.5t23.5 -83.5l-49 -27q-2 58 -37.5 99.5t-103.5 41.5q-88 0 -157 -76t-95 -227q-11 -66 -11 -114q0 -114 48 -174t131 -60q89 0 144 69z" />
    <glyph glyph-name="gbreve" unicode="&#x11f;" horiz-adv-x="506" 
d="M224 592q-24 28 -24 76q0 19 3 38h46q-3 -16 -3 -32q0 -32 13 -49.5t37 -17.5q60 0 81 99h49q-11 -67 -46.5 -104.5t-89.5 -37.5q-42 0 -66 28zM471 487l-93 -527q-23 -131 -84.5 -186t-139.5 -55q-67 0 -113.5 36.5t-53.5 106.5l45 23q20 -116 127 -116q63 0 105.5 45
t61.5 148l17 96q-30 -51 -71 -76.5t-86 -25.5q-69 0 -111.5 52.5t-42.5 147.5q0 35 8 85q23 130 86 193t142 63q53 0 88.5 -31.5t44.5 -94.5q12 53 23 116h47zM379 301q0 76 -31.5 111t-80.5 35q-60 0 -107.5 -51.5t-65.5 -158.5q-8 -46 -8 -78q0 -73 30.5 -113t81.5 -40
q56 0 104.5 49.5t68.5 164.5q8 41 8 81z" />
    <glyph glyph-name="Gdotaccent" unicode="&#x120;" horiz-adv-x="576" 
d="M378 820.5q-12 12.5 -12 30.5q0 17 12 29.5t29 12.5t29.5 -12.5t12.5 -29.5q0 -18 -12 -30.5t-30 -12.5q-17 0 -29 12.5zM477 285h-130l9 49h185l-49 -278q-73 -100 -199 -100q-107 0 -170.5 71.5t-63.5 207.5q0 61 11 120q21 120 68 199t111 117t137 38q57 0 98.5 -22
t63 -59.5t23.5 -83.5l-49 -27q-2 58 -37.5 99.5t-103.5 41.5q-88 0 -157 -76t-95 -227q-11 -66 -11 -114q0 -114 48 -174t131 -60q89 0 144 69z" />
    <glyph glyph-name="gdotaccent" unicode="&#x121;" horiz-adv-x="506" 
d="M262.5 605q-12.5 13 -12.5 30q0 18 12 30t29 12t29.5 -12t12.5 -30t-12 -30.5t-30 -12.5q-16 0 -28.5 13zM471 487l-93 -527q-23 -131 -84.5 -186t-139.5 -55q-67 0 -113.5 36.5t-53.5 106.5l45 23q20 -116 127 -116q63 0 105.5 45t61.5 148l17 96q-30 -51 -71 -76.5
t-86 -25.5q-69 0 -111.5 52.5t-42.5 147.5q0 35 8 85q23 130 86 193t142 63q53 0 88.5 -31.5t44.5 -94.5q12 53 23 116h47zM379 301q0 76 -31.5 111t-80.5 35q-60 0 -107.5 -51.5t-65.5 -158.5q-8 -46 -8 -78q0 -73 30.5 -113t81.5 -40q56 0 104.5 49.5t68.5 164.5
q8 41 8 81z" />
    <glyph glyph-name="uni0122" unicode="&#x122;" horiz-adv-x="575" 
d="M477 285h-130l8 49h186l-50 -278q-33 -47 -83 -73.5t-115 -26.5q-108 0 -171.5 72t-63.5 209q0 50 11 118q22 120 69 199t110.5 117t136.5 38q85 0 134 -47t51 -118l-49 -27q-2 58 -37 99.5t-103 41.5q-88 0 -157 -76t-96 -227q-11 -64 -11 -113q0 -114 48.5 -174.5
t131.5 -60.5q44 0 80.5 18t62.5 51zM306 -104.5q10 -10.5 10 -32.5q0 -5 -2 -19q-8 -42 -38.5 -72.5t-78.5 -39.5l5 31q61 17 72 66q-2 -1 -9 -1q-14 0 -21.5 8.5t-7.5 21.5q0 20 12.5 34t31.5 14q16 0 26 -10.5z" />
    <glyph glyph-name="uni0123" unicode="&#x123;" horiz-adv-x="506" 
d="M267 601.5q-10 10.5 -10 31.5q0 6 2 20q8 43 38 73t78 39l-6 -30q-60 -18 -71 -66q2 1 8 1q14 0 22.5 -9.5t8.5 -23.5q0 -19 -13.5 -32.5t-31.5 -13.5q-15 0 -25 10.5zM471 487l-93 -527q-23 -131 -84.5 -186t-139.5 -55q-67 0 -113.5 36.5t-53.5 106.5l45 23
q20 -116 127 -116q63 0 105.5 45t61.5 148l17 96q-30 -51 -71 -76.5t-86 -25.5q-69 0 -111.5 52.5t-42.5 147.5q0 35 8 85q23 130 86 193t142 63q53 0 88.5 -31.5t44.5 -94.5q12 53 23 116h47zM379 301q0 76 -31.5 111t-80.5 35q-60 0 -107.5 -51.5t-65.5 -158.5
q-8 -46 -8 -78q0 -73 30.5 -113t81.5 -40q56 0 104.5 49.5t68.5 164.5q8 41 8 81z" />
    <glyph glyph-name="Hcircumflex" unicode="&#x124;" horiz-adv-x="611" 
d="M396 907h45l66 -133h-49l-46 94l-79 -94h-54zM153 372h341l58 326h55l-129 -732h-55l62 355h-341l-63 -355h-55l129 732h55z" />
    <glyph glyph-name="hcircumflex" unicode="&#x125;" horiz-adv-x="483" 
d="M188 924h50l77 -132h-59l-50 92l-82 -92h-59zM393 459.5q34 -37.5 34 -109.5q0 -28 -6 -63l-57 -321h-53l55 315q6 33 6 59q0 53 -23 80t-65 27q-53 0 -97 -41t-58 -120l-57 -320h-53l135 761h53l-57 -317q28 42 68 64.5t84 22.5q57 0 91 -37.5z" />
    <glyph glyph-name="Hbar" unicode="&#x126;" horiz-adv-x="635" 
d="M619 698l-24 -136h57l-8 -52h-58l-96 -544h-58l62 355h-338l-63 -355h-57l96 544h-56l9 52h57l24 136h57l-24 -136h338l24 136h58zM190 510l-25 -138h339l24 138h-338z" />
    <glyph glyph-name="hbar" unicode="&#x127;" horiz-adv-x="492" 
d="M402 459.5q34 -37.5 34 -109.5q0 -28 -6 -63l-57 -321h-53l56 315q5 26 5 57q0 54 -22.5 81.5t-65.5 27.5q-53 0 -96.5 -41t-58.5 -120l-57 -320h-53l109 612h-66l8 47h67l17 102h53l-18 -102h125l-8 -47h-126l-30 -168q28 42 68 64.5t84 22.5q57 0 91 -37.5z" />
    <glyph glyph-name="Itilde" unicode="&#x128;" horiz-adv-x="215" 
d="M83 791q27 103 83 103q18 0 29 -9.5t23 -28.5q9 -13 15 -19t14 -6q26 0 40 60h43q-11 -48 -32 -75.5t-51 -27.5q-18 0 -28.5 9t-21.5 26q-9 13 -15.5 19t-15.5 6q-14 0 -23 -13.5t-17 -43.5h-43zM81 -34h-55l129 732h55z" />
    <glyph glyph-name="itilde" unicode="&#x129;" horiz-adv-x="197" 
d="M38 581q27 102 83 102q18 0 28.5 -9.5t23.5 -27.5q9 -13 15 -19t14 -6q26 0 40 60h43q-11 -48 -32 -75.5t-51 -27.5q-18 0 -28.5 9t-21.5 26q-9 13 -15.5 19t-15.5 6q-14 0 -23 -14t-17 -43h-43zM18 -34l92 520h53l-92 -520h-53z" />
    <glyph glyph-name="Imacron" unicode="&#x12a;" horiz-adv-x="215" 
d="M94 826l9 49h221l-8 -49h-222zM81 -34h-55l129 732h55z" />
    <glyph glyph-name="imacron" unicode="&#x12b;" horiz-adv-x="197" 
d="M49 613l9 50h221l-9 -50h-221zM18 -34l92 520h53l-92 -520h-53z" />
    <glyph glyph-name="Ibreve" unicode="&#x12c;" horiz-adv-x="215" 
d="M129 801.5q-25 27.5 -25 73.5q0 15 3 31h47q-2 -16 -2 -23q0 -31 13.5 -49t38.5 -18q60 0 78 90h50q-10 -61 -44 -96.5t-90 -35.5q-44 0 -69 27.5zM81 -34h-55l129 732h55z" />
    <glyph glyph-name="ibreve" unicode="&#x12d;" horiz-adv-x="197" 
d="M86 591.5q-24 27.5 -24 75.5q0 20 4 39h45q-2 -22 -2 -29q0 -34 12.5 -52t36.5 -18q59 0 82 99h49q-12 -67 -47 -104.5t-89 -37.5q-43 0 -67 27.5zM18 -34l92 520h53l-92 -520h-53z" />
    <glyph glyph-name="Iogonek" unicode="&#x12e;" horiz-adv-x="215" 
d="M79 -200l18 -32q-41 -49 -94 -49q-37 0 -62 22t-25 63q0 50 31.5 93.5t79.5 76.5l128 724h55l-129 -732q-114 -77 -114 -157q0 -23 13 -35t32 -12q32 0 67 38z" />
    <glyph glyph-name="iogonek" unicode="&#x12f;" horiz-adv-x="197" 
d="M183.5 665q12.5 -12 12.5 -30q0 -17 -12.5 -30t-29.5 -13t-29.5 13t-12.5 30q0 18 12 30t29 12q18 0 30.5 -12zM71 -34q-115 -77 -115 -155q0 -25 13 -37t32 -12q33 0 68 38l18 -32q-43 -49 -95 -49q-37 0 -61.5 21.5t-24.5 62.5q0 52 32.5 95.5t81.5 76.5l90 511h53z
" />
    <glyph glyph-name="Idotaccent" unicode="&#x130;" horiz-adv-x="215" 
d="M180.5 821q-12.5 13 -12.5 30q0 18 12.5 30t29.5 12t29.5 -12t12.5 -30q0 -17 -12.5 -30t-29.5 -13t-29.5 13zM81 -34h-55l129 732h55z" />
    <glyph glyph-name="dotlessi" unicode="&#x131;" horiz-adv-x="197" 
d="M18 -34l92 520h53l-92 -520h-53z" />
    <glyph glyph-name="IJ" unicode="&#x132;" horiz-adv-x="597" 
d="M81 -34h-55l129 732h55zM244 -14q-34 30 -41 90l50 28q5 -50 25.5 -73.5t57.5 -23.5q47 0 74 37.5t41 112.5l95 541h56l-96 -547q-18 -97 -56.5 -146t-113.5 -49q-58 0 -92 30z" />
    <glyph glyph-name="ij" unicode="&#x133;" horiz-adv-x="390" 
d="M136 613.5q-12 12.5 -12 29.5t12 29t29 12t28.5 -12t11.5 -29t-11.5 -29.5t-28.5 -12.5t-29 12.5zM334 613.5q-12 12.5 -12 29.5t12 29t28 12q17 0 29.5 -12t12.5 -29t-12.5 -29.5t-29.5 -12.5q-16 0 -28 12.5zM71 -34h-53l92 520h53zM58.5 -272q-21.5 9 -32.5 24l29 43
q19 -26 55 -26q35 0 59 30t37 108l102 579h53l-103 -584q-18 -100 -55.5 -141.5t-94.5 -41.5q-28 0 -49.5 9z" />
    <glyph glyph-name="Jcircumflex" unicode="&#x134;" horiz-adv-x="378" 
d="M370 907h46l65 -133h-49l-45 94l-80 -94h-53zM25 -14q-34 30 -41 90l50 28q5 -50 25.5 -73.5t57.5 -23.5q47 0 74 37.5t41 112.5l95 541h56l-96 -547q-18 -97 -56.5 -146t-113.5 -49q-58 0 -92 30z" />
    <glyph glyph-name="jcircumflex" unicode="&#x135;" horiz-adv-x="178" 
d="M149 709h46l64 -148h-49l-45 105l-79 -105h-53zM-143.5 -272q-21.5 9 -32.5 24l29 43q19 -26 55 -26q35 0 59 30t37 108l102 579h53l-103 -584q-18 -100 -55.5 -141.5t-93.5 -41.5q-29 0 -50.5 9z" />
    <glyph glyph-name="uni0136" unicode="&#x136;" horiz-adv-x="548" 
d="M524 698h72l-290 -297l181 -435h-66l-159 389l-137 -139l-44 -250h-55l129 732h55l-58 -330l-11 -66l48 51q12 11 24 24zM263 -104.5q10 -10.5 10 -32.5q0 -5 -2 -19q-8 -42 -38.5 -72.5t-77.5 -39.5l4 31q61 17 72 66q-2 -1 -9 -1q-14 0 -21.5 8.5t-7.5 21.5
q0 20 12.5 34t31.5 14q16 0 26 -10.5z" />
    <glyph glyph-name="uni0137" unicode="&#x137;" horiz-adv-x="435" 
d="M387 486h65l-209 -217l136 -303h-61l-116 262l-103 -107l-27 -155h-53l134 761h53l-73 -413q-3 -18 -16 -93q-2 -7 -4 -21q52 53 101 107zM207 -103.5q10 -10.5 10 -31.5q0 -49 -32 -85.5t-86 -46.5l5 30q59 16 72 66l-9 -1q-14 0 -22 9t-8 22q0 20 13 34t32 14
q15 0 25 -10.5z" />
    <glyph glyph-name="kgreenlandic" unicode="&#x138;" horiz-adv-x="435" 
d="M387 486h66l-210 -217l136 -303h-61l-115 262l-103 -107l-27 -155h-53l91 521h54l-31 -173q-3 -18 -16 -93q-2 -7 -4 -21l101 107z" />
    <glyph glyph-name="Lacute" unicode="&#x139;" horiz-adv-x="481" 
d="M178 774l83 132h58l-98 -132h-43zM155 698h55l-120 -682h294l-9 -50h-349z" />
    <glyph glyph-name="lacute" unicode="&#x13a;" horiz-adv-x="199" 
d="M174 793l83 132h58l-97 -132h-44zM72 -34h-53l135 761h53z" />
    <glyph glyph-name="uni013B" unicode="&#x13b;" horiz-adv-x="461" 
d="M155 698h55l-120 -682h294l-9 -50h-349zM228 -136q0 -48 -32.5 -85t-85.5 -47l5 31q60 17 71 66q-2 -1 -8 -1q-14 0 -22 8.5t-8 21.5q0 20 13 34t31 14q36 0 36 -42z" />
    <glyph glyph-name="uni013C" unicode="&#x13c;" horiz-adv-x="199" 
d="M72 -34h-53l135 761h53zM58.5 -104q9.5 -10 9.5 -32q0 -4 -2 -20q-8 -42 -38 -72.5t-78 -39.5l5 31q60 17 71 66q-2 -1 -8 -1q-14 0 -22 8.5t-8 21.5q0 20 13 34t32 14q16 0 25.5 -10z" />
    <glyph glyph-name="Lcaron" unicode="&#x13d;" horiz-adv-x="480" 
d="M421 698.5q10 -10.5 10 -32.5q0 -4 -2 -20q-8 -42 -38.5 -72t-78.5 -39l6 30q59 17 72 66q-3 -1 -9 -1q-14 0 -22 8.5t-8 21.5q0 20 13 34.5t32 14.5q15 0 25 -10.5zM159 698h56l-120 -682h294l-10 -50h-349z" />
    <glyph glyph-name="lcaron" unicode="&#x13e;" horiz-adv-x="242" 
d="M340.5 727q9.5 -10 9.5 -30q0 -5 -2 -19q-8 -42 -37.5 -71t-75.5 -37l6 29q57 15 70 64q-3 -1 -9 -1q-14 0 -21.5 8t-7.5 21q0 18 12.5 32t30.5 14q15 0 24.5 -10zM72 -34h-53l135 761h53z" />
    <glyph glyph-name="Ldot" unicode="&#x13f;" horiz-adv-x="461" 
d="M155 698h55l-120 -682h294l-9 -50h-349zM265 318.5q-12 12.5 -12 29.5q0 18 12 30.5t29 12.5t29.5 -12.5t12.5 -30.5q0 -17 -12 -29.5t-30 -12.5q-17 0 -29 12.5z" />
    <glyph glyph-name="ldot" unicode="&#x140;" horiz-adv-x="203" 
d="M79 -34h-53l135 761h53zM194 324q-11 11 -11 27t10.5 27t26.5 11t26.5 -11t10.5 -27t-10.5 -27t-26.5 -11q-15 0 -26 11z" />
    <glyph glyph-name="Lslash" unicode="&#x141;" horiz-adv-x="482" 
d="M313 384l-150 -73l-52 -295h294l-9 -50h-349l55 316l-100 -49l10 57l100 49l64 359h55l-58 -330l151 73z" />
    <glyph glyph-name="lslash" unicode="&#x142;" horiz-adv-x="219" 
d="M217 727l-58 -330l78 46l-11 -58l-78 -46l-66 -373h-53l60 340l-78 -47l10 58l78 46l65 364h53z" />
    <glyph glyph-name="Nacute" unicode="&#x143;" horiz-adv-x="607" 
d="M373 774l83 133h58l-97 -133h-44zM201 698l240 -621l110 621h52l-129 -732h-47l-239 620l-111 -620h-51l129 732h46z" />
    <glyph glyph-name="nacute" unicode="&#x144;" horiz-adv-x="483" 
d="M263 562l84 148h58l-99 -148h-43zM393 459.5q34 -37.5 34 -108.5q0 -29 -6 -64l-57 -321h-53l56 315q6 32 6 58q0 54 -23.5 81t-65.5 27q-53 0 -97 -40.5t-58 -119.5l-57 -321h-53l92 521h47q-8 -51 -12 -85q27 46 68.5 70.5t87.5 24.5q57 0 91 -37.5z" />
    <glyph glyph-name="uni0145" unicode="&#x145;" horiz-adv-x="607" 
d="M201 698l240 -621l110 621h52l-129 -732h-47l-239 620l-111 -620h-51l129 732h46zM264.5 -104q9.5 -10 9.5 -32q0 -48 -32 -85t-86 -47l5 31q59 16 72 66q-3 -1 -9 -1q-14 0 -22 9t-8 22q0 19 13.5 33t31.5 14q16 0 25.5 -10z" />
    <glyph glyph-name="uni0146" unicode="&#x146;" horiz-adv-x="483" 
d="M393 459.5q34 -37.5 34 -108.5q0 -29 -6 -64l-57 -321h-53l56 315q6 32 6 58q0 54 -23.5 81t-65.5 27q-53 0 -97 -40.5t-58 -119.5l-57 -321h-53l92 521h47q-8 -51 -12 -85q27 46 68.5 70.5t87.5 24.5q57 0 91 -37.5zM204.5 -104q9.5 -10 9.5 -32q0 -48 -32 -85t-86 -47
l5 31q59 16 72 66q-3 -1 -9 -1q-14 0 -22 8.5t-8 21.5q0 20 13 34t32 14q16 0 25.5 -10z" />
    <glyph glyph-name="Ncaron" unicode="&#x147;" horiz-adv-x="607" 
d="M349 907l46 -94l79 94h54l-117 -133h-45l-66 133h49zM201 698l240 -621l110 621h52l-129 -732h-47l-239 620l-111 -620h-51l129 732h46z" />
    <glyph glyph-name="ncaron" unicode="&#x148;" horiz-adv-x="483" 
d="M250 710l45 -105l79 105h54l-117 -148h-45l-65 148h49zM393 459.5q34 -37.5 34 -108.5q0 -29 -6 -64l-57 -321h-53l56 315q6 32 6 58q0 54 -23.5 81t-65.5 27q-53 0 -97 -40.5t-58 -119.5l-57 -321h-53l92 521h47q-8 -51 -12 -85q27 46 68.5 70.5t87.5 24.5
q57 0 91 -37.5z" />
    <glyph glyph-name="napostrophe" unicode="&#x149;" horiz-adv-x="480" 
d="M151.5 727q9.5 -10 9.5 -32q0 -4 -2 -20q-8 -43 -38.5 -73t-78.5 -39l6 30q59 17 72 66l-9 -1q-14 0 -22 9t-8 22q0 20 13 34t32 14q16 0 25.5 -10zM390 459.5q34 -37.5 34 -109.5q0 -28 -6 -63l-57 -321h-53l55 315q6 33 6 59q0 54 -23 80.5t-65 26.5q-53 0 -97 -40.5
t-58 -119.5l-57 -321h-53l92 521h47q-4 -18 -13 -85q27 46 68.5 70.5t88.5 24.5q57 0 91 -37.5z" />
    <glyph glyph-name="Eng" unicode="&#x14a;" horiz-adv-x="608" 
d="M551 698h52l-145 -822q-27 -157 -140 -157q-22 0 -45 7t-37 18l28 45q22 -19 56 -19q32 0 53.5 25t32.5 85l17 96l-235 610l-111 -620h-51l129 732h46l240 -621z" />
    <glyph glyph-name="eng" unicode="&#x14b;" horiz-adv-x="483" 
d="M393 459.5q34 -37.5 34 -108.5q0 -29 -6 -64l-73 -415q-15 -84 -47 -118.5t-84 -34.5q-56 0 -84 31l29 42q21 -24 54 -24q32 0 50.5 26t30.5 95l70 392q6 32 6 58q0 54 -23.5 81t-65.5 27q-53 0 -97 -40.5t-58 -119.5l-57 -321h-53l92 521h47q-8 -51 -12 -85
q27 46 68.5 70.5t87.5 24.5q57 0 91 -37.5z" />
    <glyph glyph-name="Omacron" unicode="&#x14c;" horiz-adv-x="623" 
d="M298 825l9 50h221l-9 -50h-221zM181.5 621q80.5 88 192.5 88q101 0 158 -70t57 -200q0 -58 -12 -127q-33 -184 -113 -270t-192 -86q-102 0 -158.5 68t-56.5 198q0 59 12 129q32 182 112.5 270zM116 228q0 -107 42 -164t120 -57q87 0 150 75t90 230q11 61 11 121
q0 108 -41.5 166.5t-119.5 58.5q-87 0 -150 -76t-90 -231q-12 -67 -12 -123z" />
    <glyph glyph-name="omacron" unicode="&#x14d;" horiz-adv-x="484" 
d="M192 613l9 49h221l-9 -49h-221zM126 434q63 63 146 63q77 0 121 -52t44 -149q0 -46 -8 -87q-23 -129 -86.5 -191t-145.5 -62q-77 0 -121 52t-44 147q0 37 8 85q23 131 86 194zM87 160q0 -75 31 -114.5t85 -39.5q59 0 106 51t65 158q8 46 8 79q0 75 -30.5 114t-83.5 39
q-59 0 -106.5 -51t-67.5 -160q-7 -39 -7 -76z" />
    <glyph glyph-name="Obreve" unicode="&#x14e;" horiz-adv-x="623" 
d="M333 801q-25 27 -25 73q0 16 3 32h47q-2 -16 -2 -23q0 -32 13.5 -49.5t38.5 -17.5q30 0 50 23.5t28 66.5h49q-10 -62 -43.5 -97t-89.5 -35q-44 0 -69 27zM181.5 621q80.5 88 192.5 88q101 0 158 -70t57 -200q0 -58 -12 -127q-33 -184 -113 -270t-192 -86
q-102 0 -158.5 68t-56.5 198q0 59 12 129q32 182 112.5 270zM116 228q0 -107 42 -164t120 -57q87 0 150 75t90 230q11 61 11 121q0 108 -41.5 166.5t-119.5 58.5q-87 0 -150 -76t-90 -231q-12 -67 -12 -123z" />
    <glyph glyph-name="obreve" unicode="&#x14f;" horiz-adv-x="484" 
d="M229 591.5q-24 27.5 -24 74.5q0 20 4 39h45q-2 -22 -2 -29q0 -69 49 -69q59 0 82 98h49q-12 -67 -47 -104t-89 -37q-43 0 -67 27.5zM126 434q63 63 146 63q77 0 121 -52t44 -149q0 -46 -8 -87q-23 -129 -86.5 -191t-145.5 -62q-77 0 -121 52t-44 147q0 37 8 85
q23 131 86 194zM87 160q0 -75 31 -114.5t85 -39.5q59 0 106 51t65 158q8 46 8 79q0 75 -30.5 114t-83.5 39q-59 0 -106.5 -51t-67.5 -160q-7 -39 -7 -76z" />
    <glyph glyph-name="Ohungarumlaut" unicode="&#x150;" horiz-adv-x="623" 
d="M321 774l83 138h59l-97 -138h-45zM424 774l83 138h59l-98 -138h-44zM181.5 621q80.5 88 192.5 88q101 0 158 -70t57 -200q0 -58 -12 -127q-33 -184 -113 -270t-192 -86q-102 0 -158.5 68t-56.5 198q0 59 12 129q32 182 112.5 270zM116 228q0 -107 42 -164t120 -57
q87 0 150 75t90 230q11 61 11 121q0 108 -41.5 166.5t-119.5 58.5q-87 0 -150 -76t-90 -231q-12 -67 -12 -123z" />
    <glyph glyph-name="ohungarumlaut" unicode="&#x151;" horiz-adv-x="484" 
d="M215 561l84 148h59l-98 -148h-45zM318 561l84 148h59l-99 -148h-44zM126 434q63 63 146 63q77 0 121 -52t44 -149q0 -46 -8 -87q-23 -129 -86.5 -191t-145.5 -62q-77 0 -121 52t-44 147q0 37 8 85q23 131 86 194zM87 160q0 -75 31 -114.5t85 -39.5q59 0 106 51t65 158
q8 46 8 79q0 75 -30.5 114t-83.5 39q-59 0 -106.5 -51t-67.5 -160q-7 -39 -7 -76z" />
    <glyph glyph-name="OE" unicode="&#x152;" horiz-adv-x="916" 
d="M935 698l-8 -49h-295l-49 -279h266l-9 -50h-266l-53 -305h304l-10 -49h-359l22 121q-72 -131 -206 -131q-102 0 -158.5 68t-56.5 198q0 59 12 129q32 182 112.5 270t192.5 88q76 0 123.5 -42.5t60.5 -123.5l27 155h350zM427 82q63 75 90 230q12 68 12 122
q0 107 -42 165.5t-119 58.5q-87 0 -150 -76t-90 -231q-12 -67 -12 -123q0 -107 42 -164t120 -57q86 0 149 75z" />
    <glyph glyph-name="oe" unicode="&#x153;" horiz-adv-x="764" 
d="M676 93l39 -28q-27 -54 -72.5 -81.5t-99.5 -27.5q-64 0 -105 37.5t-52 107.5q-30 -74 -79 -109.5t-110 -35.5q-77 0 -121 52t-44 147q0 37 8 85q23 131 86 194t146 63q63 0 102 -37t48 -107q32 73 84 108.5t111 35.5q62 0 96.5 -35.5t34.5 -94.5q0 -76 -56.5 -113.5
t-177.5 -37.5q-23 0 -83 4q-4 -38 -4 -54q0 -78 32.5 -118.5t89.5 -40.5q83 0 127 86zM381 295q0 74 -30 113t-84 39q-59 0 -106.5 -51t-66.5 -160q-7 -39 -7 -77q0 -75 31 -114t84 -39q59 0 106 51t65 158q8 46 8 80zM506.5 404q-46.5 -43 -67.5 -137q55 -5 88 -5
q85 0 125 25t40 77q0 38 -20.5 60.5t-62.5 22.5q-56 0 -102.5 -43z" />
    <glyph glyph-name="Racute" unicode="&#x154;" horiz-adv-x="509" 
d="M379 906h58l-97 -132h-44zM433.5 356q-44.5 -48 -112.5 -65l135 -325h-64l-127 316h-12h-116l-56 -316h-55l129 732h155q87 0 136 -46.5t49 -126.5q0 -25 -4 -48q-13 -73 -57.5 -121zM251 331q74 0 121 40t60 111q4 26 4 38q0 60 -36.5 94.5t-101.5 34.5h-96l-56 -318
h105z" />
    <glyph glyph-name="racute" unicode="&#x155;" horiz-adv-x="311" 
d="M206 561l83 148h59l-99 -148h-43zM314 489q16 -8 23 -19l-27 -42q-17 19 -43 19q-29 0 -57.5 -20.5t-51 -61.5t-32.5 -98l-54 -301h-53l92 520h47q-10 -55 -13 -86q25 46 59 71.5t72 25.5q22 0 38 -8z" />
    <glyph glyph-name="uni0156" unicode="&#x156;" horiz-adv-x="509" 
d="M433.5 356q-44.5 -48 -112.5 -65l135 -325h-64l-127 316h-12h-116l-56 -316h-55l129 732h155q87 0 136 -46.5t49 -126.5q0 -25 -4 -48q-13 -73 -57.5 -121zM251 331q74 0 121 40t60 111q4 26 4 38q0 60 -36.5 94.5t-101.5 34.5h-96l-56 -318h105zM251.5 -104
q9.5 -10 9.5 -32q0 -4 -2 -20q-8 -42 -38 -72.5t-78 -39.5l5 31q59 16 72 66q-3 -1 -9 -1q-14 0 -22 8.5t-8 21.5q0 20 13 34t32 14q16 0 25.5 -10z" />
    <glyph glyph-name="uni0157" unicode="&#x157;" horiz-adv-x="311" 
d="M314 489q16 -8 23 -19l-27 -42q-17 19 -43 19q-29 0 -57.5 -20.5t-51 -61.5t-32.5 -98l-54 -301h-53l92 520h47q-10 -55 -13 -86q25 46 59 71.5t72 25.5q22 0 38 -8zM58.5 -104q9.5 -10 9.5 -32q0 -48 -32 -85t-86 -47l5 31q61 17 72 66q-3 -1 -9 -1q-14 0 -22 9t-8 22
q0 19 13.5 33t31.5 14q16 0 25.5 -10z" />
    <glyph glyph-name="Rcaron" unicode="&#x158;" horiz-adv-x="509" 
d="M451 906l-117 -132h-45l-66 132h50l45 -94l79 94h54zM433.5 356q-44.5 -48 -112.5 -65l135 -325h-64l-127 316h-12h-116l-56 -316h-55l129 732h155q87 0 136 -46.5t49 -126.5q0 -25 -4 -48q-13 -73 -57.5 -121zM251 331q74 0 121 40t60 111q4 26 4 38q0 60 -36.5 94.5
t-101.5 34.5h-96l-56 -318h105z" />
    <glyph glyph-name="rcaron" unicode="&#x159;" horiz-adv-x="311" 
d="M193 709l45 -105l79 105h53l-116 -148h-46l-64 148h49zM314 489q16 -8 23 -19l-27 -42q-17 19 -43 19q-29 0 -57.5 -20.5t-51 -61.5t-32.5 -98l-54 -301h-53l92 520h47q-10 -55 -13 -86q25 46 59 71.5t72 25.5q22 0 38 -8z" />
    <glyph glyph-name="Sacute" unicode="&#x15a;" horiz-adv-x="461" 
d="M307 774l83 133h58l-97 -133h-44zM344 2q-53 -46 -135 -46q-58 0 -104 22.5t-73.5 63t-30.5 92.5l48 25q6 -69 51.5 -110.5t110.5 -41.5q69 0 106 46q26 30 33 76q3 17 3 31q0 37 -17 66.5t-41.5 50.5t-66.5 50q-45 31 -71.5 54t-45 56t-18.5 77q0 11 4 39q14 77 72 119
q53 37 126 37q76 0 121.5 -42t47.5 -107l-47 -24q-6 55 -37 88.5t-89 33.5q-55 0 -91 -30q-46 -37 -46 -107q0 -34 15.5 -60t38.5 -44.5t63 -46.5q47 -32 74.5 -56t47 -60t19.5 -84q0 -25 -4 -46q-15 -79 -64 -122z" />
    <glyph glyph-name="sacute" unicode="&#x15b;" horiz-adv-x="378" 
d="M213 564l84 148h58l-99 -148h-43zM262 -8q-43 -36 -109 -36q-64 0 -106 34t-46 97l44 24q4 -54 35 -80t76 -26q41 0 68.5 21t34.5 61q2 16 2 21q0 37 -23 59.5t-69 50.5q-34 21 -54.5 37t-34.5 39.5t-14 56.5q0 73 53 114q41 32 105 32q59 0 95.5 -32t40.5 -86l-45 -23
q-3 42 -28 67t-67 25q-36 0 -63 -18.5t-33 -54.5q-2 -12 -2 -17q0 -33 22 -54.5t67 -47.5q35 -21 56.5 -37.5t36.5 -42t15 -59.5q0 -13 -3 -30q-10 -62 -54 -95z" />
    <glyph glyph-name="Scircumflex" unicode="&#x15c;" horiz-adv-x="461" 
d="M325 907h46l65 -133h-49l-45 94l-80 -94h-54zM344 2q-53 -46 -135 -46q-58 0 -104 22.5t-73.5 63t-30.5 92.5l48 25q6 -69 51.5 -110.5t110.5 -41.5q69 0 106 46q26 30 33 76q3 17 3 31q0 37 -17 66.5t-41.5 50.5t-66.5 50q-45 31 -71.5 54t-45 56t-18.5 77q0 11 4 39
q14 77 72 119q53 37 126 37q76 0 121.5 -42t47.5 -107l-47 -24q-6 55 -37 88.5t-89 33.5q-55 0 -91 -30q-46 -37 -46 -107q0 -34 15.5 -60t38.5 -44.5t63 -46.5q47 -32 74.5 -56t47 -60t19.5 -84q0 -25 -4 -46q-15 -79 -64 -122z" />
    <glyph glyph-name="scircumflex" unicode="&#x15d;" horiz-adv-x="378" 
d="M241 712h46l64 -148h-49l-45 105l-78 -105h-54zM262 -8q-43 -36 -109 -36q-64 0 -106 34t-46 97l44 24q4 -54 35 -80t76 -26q41 0 68.5 21t34.5 61q2 16 2 21q0 37 -23 59.5t-69 50.5q-34 21 -54.5 37t-34.5 39.5t-14 56.5q0 73 53 114q41 32 105 32q59 0 95.5 -32
t40.5 -86l-45 -23q-3 42 -28 67t-67 25q-36 0 -63 -18.5t-33 -54.5q-2 -12 -2 -17q0 -33 22 -54.5t67 -47.5q35 -21 56.5 -37.5t36.5 -42t15 -59.5q0 -13 -3 -30q-10 -62 -54 -95z" />
    <glyph glyph-name="Scedilla" unicode="&#x15e;" horiz-adv-x="461" 
d="M169.5 461q15.5 -26 38.5 -44.5t63 -46.5q47 -32 74.5 -56t47 -60t19.5 -84q0 -25 -4 -46q-15 -79 -64 -122t-123 -46l-37 -66q38 -4 60.5 -24t22.5 -51q0 -44 -33 -70t-80 -26q-34 0 -61 9l7 42q32 -10 52 -10q25 0 42 11t21 32q1 3 1 9q0 23 -24 32.5t-62 7.5l-1 27
l44 81q-73 9 -120 56t-52 118l48 25q6 -69 51.5 -110.5t110.5 -41.5q69 0 106 46q26 30 33 76q3 17 3 31q0 37 -17 66.5t-41.5 50.5t-66.5 50q-45 31 -71.5 54t-45 56t-18.5 77q0 11 4 39q14 77 72 119q53 37 126 37q76 0 121.5 -42t47.5 -107l-47 -24q-6 55 -37 88.5
t-89 33.5q-55 0 -91 -30q-46 -37 -46 -107q0 -34 15.5 -60z" />
    <glyph glyph-name="scedilla" unicode="&#x15f;" horiz-adv-x="378" 
d="M122 358q0 -33 22 -54.5t67 -47.5q35 -21 56.5 -37.5t36.5 -42t15 -59.5q0 -13 -3 -30q-10 -62 -54 -95q-40 -32 -99 -35l-36 -65q38 -3 60.5 -23t22.5 -51q0 -9 -1 -14q-7 -39 -38 -61t-74 -22q-33 0 -61 9l8 42q27 -9 51 -9q25 0 42 10.5t21 31.5q1 3 1 9
q0 23 -24 32.5t-62 7.5l-1 28l43 78q-49 9 -79.5 42t-34.5 85l44 24q4 -54 35 -80t76 -26q41 0 68.5 21t34.5 61q2 16 2 21q0 37 -23 59.5t-69 50.5q-34 21 -54.5 37t-34.5 39.5t-14 56.5q0 73 53 114q41 32 105 32q59 0 95.5 -32t40.5 -86l-45 -23q-3 42 -28 67t-67 25
q-36 0 -63 -18.5t-33 -54.5q-2 -12 -2 -17z" />
    <glyph glyph-name="Scaron" unicode="&#x160;" horiz-adv-x="461" 
d="M284 907l45 -94l79 94h54l-117 -133h-45l-66 133h50zM344 2q-53 -46 -135 -46q-58 0 -104 22.5t-73.5 63t-30.5 92.5l48 25q6 -69 51.5 -110.5t110.5 -41.5q69 0 106 46q26 30 33 76q3 17 3 31q0 37 -17 66.5t-41.5 50.5t-66.5 50q-45 31 -71.5 54t-45 56t-18.5 77
q0 11 4 39q14 77 72 119q53 37 126 37q76 0 121.5 -42t47.5 -107l-47 -24q-6 55 -37 88.5t-89 33.5q-55 0 -91 -30q-46 -37 -46 -107q0 -34 15.5 -60t38.5 -44.5t63 -46.5q47 -32 74.5 -56t47 -60t19.5 -84q0 -25 -4 -46q-15 -79 -64 -122z" />
    <glyph glyph-name="scaron" unicode="&#x161;" horiz-adv-x="378" 
d="M200 712l45 -105l79 105h53l-116 -148h-46l-64 148h49zM262 -8q-43 -36 -109 -36q-64 0 -106 34t-46 97l44 24q4 -54 35 -80t76 -26q41 0 68.5 21t34.5 61q2 16 2 21q0 37 -23 59.5t-69 50.5q-34 21 -54.5 37t-34.5 39.5t-14 56.5q0 73 53 114q41 32 105 32
q59 0 95.5 -32t40.5 -86l-45 -23q-3 42 -28 67t-67 25q-36 0 -63 -18.5t-33 -54.5q-2 -12 -2 -17q0 -33 22 -54.5t67 -47.5q35 -21 56.5 -37.5t36.5 -42t15 -59.5q0 -13 -3 -30q-10 -62 -54 -95z" />
    <glyph glyph-name="uni0162" unicode="&#x162;" horiz-adv-x="464" 
d="M83 649l9 49h431l-8 -49h-189l-120 -683h-2l-48 -76q38 -3 59.5 -23.5t21.5 -51.5q0 -11 -1 -16q-7 -39 -37 -59.5t-71 -20.5q-33 0 -65 11l8 42q29 -12 54 -12q52 0 60 41q1 3 1 9q0 23 -24 34t-62 8l-1 27l55 87h-3l120 683h-188z" />
    <glyph glyph-name="uni0163" unicode="&#x163;" horiz-adv-x="300" 
d="M296 441h-123l-56 -322q-5 -30 -5 -47q0 -67 57 -67q27 0 57 18l13 -41q-40 -28 -89 -26l-36 -66q38 -4 60.5 -24t22.5 -51q0 -44 -33 -70t-80 -26q-34 0 -61 9l7 42q32 -10 52 -10q25 0 42 11t21 32q1 3 1 9q0 23 -24 32.5t-62 7.5l-1 27l48 88q-48 20 -48 96q0 29 5 55
l57 323h-72l7 46h73l25 144h53l-25 -144h122z" />
    <glyph glyph-name="Tcaron" unicode="&#x164;" horiz-adv-x="464" 
d="M280 907l45 -94l80 94h53l-116 -133h-46l-66 133h50zM92 698h431l-8 -49h-189l-120 -683h-55l120 683h-188z" />
    <glyph glyph-name="tcaron" unicode="&#x165;" horiz-adv-x="296" 
d="M387 746.5q10 -10.5 10 -31.5q0 -14 -2 -22q-8 -46 -39.5 -79.5t-80.5 -43.5l6 30q61 21 75 78q-3 -1 -9 -1q-15 0 -23 9t-8 23q0 19 13.5 33.5t32.5 14.5q15 0 25 -10.5zM296 441h-123l-56 -322q-5 -30 -5 -47q0 -67 57 -67q27 0 57 18l13 -41q-38 -26 -83 -26
q-97 0 -97 107q0 29 5 55l57 323h-72l7 46h73l25 144h53l-25 -144h122z" />
    <glyph glyph-name="Tbar" unicode="&#x166;" horiz-adv-x="464" 
d="M92 698h431l-8 -49h-189l-48 -276h125l-10 -50h-124l-63 -357h-55l63 357h-125l10 50h123l49 276h-188z" />
    <glyph glyph-name="tbar" unicode="&#x167;" horiz-adv-x="300" 
d="M296 441h-123l-30 -170h125l-8 -47h-124l-19 -105q-5 -30 -5 -47q0 -67 57 -67q27 0 57 18l13 -41q-38 -26 -83 -26q-98 0 -98 106q0 25 6 56l19 106h-73l9 47h72l30 170h-72l7 46h73l25 144h53l-25 -144h122z" />
    <glyph glyph-name="Utilde" unicode="&#x168;" horiz-adv-x="593" 
d="M272 790q25 103 82 103q18 0 28.5 -9.5t23.5 -27.5q9 -13 15 -19.5t15 -6.5q24 0 40 60h43q-11 -47 -32.5 -75t-51.5 -28q-17 0 -27.5 9t-21.5 26q-9 13 -15.5 19t-15.5 6q-14 0 -23.5 -14t-17.5 -43h-42zM542 698h55l-83 -481q-24 -133 -89 -197t-171 -64
q-97 0 -146.5 51.5t-49.5 151.5q0 42 9 93l78 446h55l-76 -441q-9 -48 -9 -88q0 -162 143 -162q162 0 202 221z" />
    <glyph glyph-name="utilde" unicode="&#x169;" horiz-adv-x="483" 
d="M178 581q26 102 82 102q18 0 29 -9.5t24 -27.5q9 -13 15 -19t14 -6q25 0 40 60h43q-11 -48 -32 -75.5t-51 -27.5q-18 0 -28.5 9t-21.5 26q-9 13 -15.5 19t-15.5 6q-14 0 -23.5 -14t-17.5 -43h-42zM74 -6.5q-34 37.5 -34 108.5q0 30 6 64l57 321h53l-56 -315
q-6 -31 -6 -58q0 -54 23.5 -81t65.5 -27q53 0 97 40.5t58 119.5l57 321h53l-92 -521h-47q8 51 12 85q-27 -46 -68.5 -70.5t-87.5 -24.5q-57 0 -91 37.5z" />
    <glyph glyph-name="Umacron" unicode="&#x16a;" horiz-adv-x="593" 
d="M283 825l9 50h221l-9 -50h-221zM542 698h55l-83 -481q-24 -133 -89 -197t-171 -64q-97 0 -146.5 51.5t-49.5 151.5q0 42 9 93l78 446h55l-76 -441q-9 -48 -9 -88q0 -162 143 -162q162 0 202 221z" />
    <glyph glyph-name="umacron" unicode="&#x16b;" horiz-adv-x="483" 
d="M189 613l8 50h222l-9 -50h-221zM74 -6.5q-34 37.5 -34 108.5q0 30 6 64l57 321h53l-56 -315q-6 -31 -6 -58q0 -54 23.5 -81t65.5 -27q53 0 97 40.5t58 119.5l57 321h53l-92 -521h-47q8 51 12 85q-27 -46 -68.5 -70.5t-87.5 -24.5q-57 0 -91 37.5z" />
    <glyph glyph-name="Ubreve" unicode="&#x16c;" horiz-adv-x="593" 
d="M318 801q-25 27 -25 73q0 16 3 32h47q-2 -18 -2 -25q0 -31 13.5 -48t38.5 -17q59 0 78 90h49q-10 -62 -43.5 -97t-89.5 -35q-44 0 -69 27zM542 698h55l-83 -481q-24 -133 -89 -197t-171 -64q-97 0 -146.5 51.5t-49.5 151.5q0 42 9 93l78 446h55l-76 -441q-9 -48 -9 -88
q0 -162 143 -162q162 0 202 221z" />
    <glyph glyph-name="ubreve" unicode="&#x16d;" horiz-adv-x="483" 
d="M226 592q-24 28 -24 76q0 19 3 38h46q-3 -16 -3 -32q0 -32 13 -49.5t37 -17.5q60 0 81 99h49q-11 -67 -46.5 -104.5t-89.5 -37.5q-42 0 -66 28zM74 -6.5q-34 37.5 -34 108.5q0 30 6 64l57 321h53l-56 -315q-6 -31 -6 -58q0 -54 23.5 -81t65.5 -27q53 0 97 40.5t58 119.5
l57 321h53l-92 -521h-47q8 51 12 85q-27 -46 -68.5 -70.5t-87.5 -24.5q-57 0 -91 37.5z" />
    <glyph glyph-name="Uring" unicode="&#x16e;" horiz-adv-x="593" 
d="M335.5 928q27.5 27 66.5 27t65 -26t26 -67q0 -40 -27 -66t-65 -26q-39 0 -66 26t-27 66q0 39 27.5 66zM363 822q15 -16 39 -16q23 0 37 16t14 40q0 26 -14 41t-37 15t-38.5 -15.5t-15.5 -40.5q0 -24 15 -40zM542 698h55l-83 -481q-24 -133 -89 -197t-171 -64
q-97 0 -146.5 51.5t-49.5 151.5q0 42 9 93l78 446h55l-76 -441q-9 -48 -9 -88q0 -162 143 -162q162 0 202 221z" />
    <glyph glyph-name="uring" unicode="&#x16f;" horiz-adv-x="483" 
d="M222.5 718q27.5 27 66.5 27t65.5 -26t26.5 -67q0 -40 -27 -66t-65 -26q-40 0 -67 26t-27 66q0 39 27.5 66zM250.5 612q14.5 -16 38.5 -16q23 0 37.5 16t14.5 40q0 25 -14.5 40.5t-37.5 15.5t-38 -15.5t-15 -40.5q0 -24 14.5 -40zM74 -6.5q-34 37.5 -34 108.5q0 30 6 64
l57 321h53l-56 -315q-6 -31 -6 -58q0 -54 23.5 -81t65.5 -27q53 0 97 40.5t58 119.5l57 321h53l-92 -521h-47q8 51 12 85q-27 -46 -68.5 -70.5t-87.5 -24.5q-57 0 -91 37.5z" />
    <glyph glyph-name="Uhungarumlaut" unicode="&#x170;" horiz-adv-x="593" 
d="M306 774l83 138h59l-97 -138h-45zM409 774l83 138h59l-98 -138h-44zM542 698h55l-83 -481q-24 -133 -89 -197t-171 -64q-97 0 -146.5 51.5t-49.5 151.5q0 42 9 93l78 446h55l-76 -441q-9 -48 -9 -88q0 -162 143 -162q162 0 202 221z" />
    <glyph glyph-name="uhungarumlaut" unicode="&#x171;" horiz-adv-x="483" 
d="M212 562l84 148h59l-99 -148h-44zM315 562l83 148h60l-99 -148h-44zM74 -6.5q-34 37.5 -34 108.5q0 30 6 64l57 321h53l-56 -315q-6 -31 -6 -58q0 -54 23.5 -81t65.5 -27q53 0 97 40.5t58 119.5l57 321h53l-92 -521h-47q8 51 12 85q-27 -46 -68.5 -70.5t-87.5 -24.5
q-57 0 -91 37.5z" />
    <glyph glyph-name="Uogonek" unicode="&#x172;" horiz-adv-x="593" 
d="M542 698h55l-83 -481q-30 -168 -128 -227q-60 -44 -90 -81t-37 -77q-2 -16 -2 -21q0 -25 13 -37t34 -12q33 0 66 31l19 -33q-41 -41 -91 -41q-40 0 -65 22.5t-25 65.5t21 80t62 72q-18 -3 -37 -3q-97 0 -146.5 51.5t-49.5 151.5q0 42 9 93l78 446h55l-76 -441
q-9 -48 -9 -88q0 -162 143 -162q162 0 202 221z" />
    <glyph glyph-name="uogonek" unicode="&#x173;" horiz-adv-x="483" 
d="M354 -200l18 -32q-41 -49 -95 -49q-37 0 -61.5 21.5t-24.5 62.5q0 53 35 98t86 78q8 63 9 72q-27 -46 -68.5 -70.5t-87.5 -24.5q-57 0 -91 37.5t-34 108.5q0 30 6 64l57 321h53l-56 -315q-6 -31 -6 -58q0 -54 23.5 -81t65.5 -27q53 0 97 40.5t58 119.5l57 321h53
l-92 -521q-99 -66 -113 -138q-2 -12 -2 -17q0 -25 13 -37t32 -12q33 0 68 38z" />
    <glyph glyph-name="Wcircumflex" unicode="&#x174;" horiz-adv-x="837" 
d="M509 906h45l66 -132h-50l-45 94l-79 -94h-54zM518 698l50 -641l270 641h58l-319 -736h-50l-53 617l-268 -617h-48l-67 736h59l49 -639l270 639h49z" />
    <glyph glyph-name="wcircumflex" unicode="&#x175;" horiz-adv-x="660" 
d="M385 710h46l64 -148h-49l-45 105l-79 -105h-53zM390 486l49 -425l192 425h54l-243 -520h-38l-55 411l-192 -411h-38l-69 520h54l50 -424l191 424h45z" />
    <glyph glyph-name="Ycircumflex" unicode="&#x176;" horiz-adv-x="508" 
d="M344 907h45l66 -133h-49l-46 94l-79 -94h-54zM272 342l233 356h63l-278 -418l-56 -314h-56l56 318l-144 414h63z" />
    <glyph glyph-name="ycircumflex" unicode="&#x177;" horiz-adv-x="425" 
d="M281 709h45l64 -148h-49l-45 105l-78 -105h-54zM174 32l219 454h59l-319 -635q-35 -69 -68 -100.5t-85 -31.5q-28 0 -48 8.5t-30 22.5l28 43q21 -24 54 -24q31 0 53.5 21.5t49.5 74.5l49 94l-89 527h57z" />
    <glyph glyph-name="Ydieresis" unicode="&#x178;" horiz-adv-x="508" 
d="M245.5 821q-12.5 13 -12.5 30q0 18 12.5 30t29.5 12t29.5 -12t12.5 -30t-12 -30.5t-30 -12.5q-17 0 -29.5 13zM406.5 821q-12.5 13 -12.5 30q0 18 12 30t29 12t29.5 -12t12.5 -30t-12 -30.5t-30 -12.5q-16 0 -28.5 13zM272 342l233 356h63l-278 -418l-56 -314h-56l56 318
l-144 414h63z" />
    <glyph glyph-name="Zacute" unicode="&#x179;" horiz-adv-x="479" 
d="M320 774l83 132h58l-98 -132h-43zM118 649l9 49h392l-4 -28l-459 -654h356l-10 -50h-429l5 28l459 655h-319z" />
    <glyph glyph-name="zacute" unicode="&#x17a;" horiz-adv-x="372" 
d="M218 561l84 148h58l-99 -148h-43zM84 486h297l-4 -28l-325 -446h256l-8 -46h-328l6 30l325 446h-227z" />
    <glyph glyph-name="Zdotaccent" unicode="&#x17b;" horiz-adv-x="479" 
d="M320.5 820.5q-12.5 12.5 -12.5 29.5q0 18 12 30.5t29 12.5q18 0 30 -12.5t12 -30.5q0 -17 -12 -29.5t-29 -12.5t-29.5 12.5zM118 649l9 49h392l-4 -28l-459 -654h356l-10 -50h-429l5 28l459 655h-319z" />
    <glyph glyph-name="zdotaccent" unicode="&#x17c;" horiz-adv-x="372" 
d="M218 604.5q-12 12.5 -12 29.5q0 18 12 30.5t29 12.5t29.5 -12.5t12.5 -30.5q0 -17 -12 -29.5t-30 -12.5q-17 0 -29 12.5zM84 486h297l-4 -28l-325 -446h256l-8 -46h-328l6 30l325 446h-227z" />
    <glyph glyph-name="Zcaron" unicode="&#x17d;" horiz-adv-x="479" 
d="M296 906l46 -94l79 94h54l-117 -132h-46l-65 132h49zM118 649l9 49h392l-4 -28l-459 -654h356l-10 -50h-429l5 28l459 655h-319z" />
    <glyph glyph-name="zcaron" unicode="&#x17e;" horiz-adv-x="372" 
d="M205 709l45 -105l79 105h54l-117 -148h-46l-64 148h49zM84 486h297l-4 -28l-325 -446h256l-8 -46h-328l6 30l325 446h-227z" />
    <glyph glyph-name="longs" unicode="&#x17f;" horiz-adv-x="279" 
d="M350.5 728q20.5 -9 29.5 -23l-26 -41q-23 24 -56 24q-35 0 -59 -30t-37 -104l-121 -684q-14 -78 -45 -114.5t-81 -36.5q-46 0 -72 26l28 45q19 -18 44 -18q30 0 47.5 26t28.5 87l98 557h-74l8 45h74l13 74q17 95 57.5 135.5t94.5 40.5q28 0 48.5 -9z" />
    <glyph glyph-name="uni018F" unicode="&#x18f;" horiz-adv-x="575" 
d="M490 639.5q50 -69.5 50 -194.5q0 -63 -14 -142q-31 -173 -109 -260t-194 -87q-88 0 -139 45t-51 129q0 105 79 168.5t233 63.5q62 0 129 -10q6 50 6 91q0 104 -38 159.5t-107 55.5q-46 0 -90 -27t-77 -85l-42 32q40 70 97.5 100.5t118.5 30.5q98 0 148 -69.5zM466 300
q-66 9 -119 9q-128 0 -191.5 -47.5t-63.5 -128.5q0 -60 34.5 -93t97.5 -33q184 0 242 293z" />
    <glyph glyph-name="florin" unicode="&#x192;" 
d="M507 696.5q22 -12.5 31 -29.5l-33 -39q-18 30 -58 30q-35 0 -61 -29t-47 -99l-13 -43h132l-8 -47h-139l-98 -314q-28 -91 -67.5 -130.5t-97.5 -39.5q-30 0 -52.5 10t-33.5 27l33 41q21 -27 58 -27q36 0 60 28.5t47 104.5l93 300h-99l8 47h105l17 54q30 96 72.5 132
t92.5 36q36 0 58 -12.5z" />
    <glyph glyph-name="Ohorn" unicode="&#x1a0;" horiz-adv-x="627" 
d="M658 825q0 -19 -4 -57q-13 -67 -42.5 -90t-81.5 -23q-15 0 -22 1q81 -65 81 -219q0 -56 -12 -125q-33 -184 -113 -270t-192 -86q-102 0 -158.5 68t-56.5 198q0 59 12 129q32 183 114 270.5t202 87.5q20 0 44 -2t34 -3q38 -5 65 -5q35 0 51.5 14.5t23.5 56.5q5 27 5 55h50
zM529 435q0 107 -42 165t-119 58q-87 0 -150 -76t-90 -231q-12 -67 -12 -123q0 -107 42 -164t120 -57q86 0 149 75t90 230q12 68 12 123z" />
    <glyph glyph-name="ohorn" unicode="&#x1a1;" horiz-adv-x="494" 
d="M516 613q0 -33 -5 -59q-12 -66 -39.5 -88.5t-74.5 -22.5h-10q50 -50 50 -149q0 -44 -8 -85q-23 -129 -86.5 -191t-145.5 -62q-77 0 -121 52t-44 147q0 37 8 85q24 132 87.5 194.5t152.5 62.5q31 0 68 -7q8 -1 23.5 -3t26.5 -2q26 0 40.5 15t21.5 57q5 30 5 56h51z
M381 295q0 74 -30 113t-84 39q-59 0 -106.5 -51t-66.5 -160q-7 -39 -7 -77q0 -75 31 -114t84 -39q59 0 106 51t65 158q8 46 8 80z" />
    <glyph glyph-name="Uhorn" unicode="&#x1af;" horiz-adv-x="593" 
d="M710 824q0 -32 -4 -56q-11 -60 -38.5 -84.5t-77.5 -27.5l-76 -439q-24 -133 -89 -197t-171 -64q-97 0 -146.5 51.5t-49.5 151.5q0 42 9 93l78 446h55l-76 -441q-9 -48 -9 -88q0 -162 143 -162q162 0 202 221l82 470h23q41 0 61.5 15t27.5 58q5 25 5 53h51z" />
    <glyph glyph-name="uhorn" unicode="&#x1b0;" horiz-adv-x="491" 
d="M560 612q0 -32 -4 -55q-11 -60 -38.5 -84.5t-77.5 -28.5l-84 -478h-47q8 51 12 85q-27 -46 -68.5 -70.5t-87.5 -24.5q-57 0 -91 37.5t-34 108.5q0 30 6 64l57 321h53l-56 -315q-6 -31 -6 -58q0 -54 23.5 -81t65.5 -27q53 0 97 40.5t58 119.5l57 321h42q29 3 45.5 19.5
t22.5 53.5q5 23 5 52h50z" />
    <glyph glyph-name="uni01CD" unicode="&#x1cd;" horiz-adv-x="566" 
d="M329 902l45 -94l79 94h54l-116 -132h-46l-66 132h50zM380 699l117 -733h-60l-34 227h-267l-112 -227h-63l372 733h47zM396 244l-54 370l-182 -370h236z" />
    <glyph glyph-name="uni01CE" unicode="&#x1ce;" horiz-adv-x="507" 
d="M278 709l45 -105l79 105h54l-117 -148h-46l-64 148h49zM472 487l-92 -521h-47l7 46q6 30 9 57q-30 -57 -72.5 -85t-90.5 -28q-69 0 -111.5 52.5t-42.5 148.5q0 36 8 84q23 130 86 193t143 63q53 0 88 -31.5t44 -94.5q11 41 24 116h47zM306.5 59.5q45.5 53.5 66.5 165.5
q7 39 7 74q0 76 -32 112t-81 36q-60 0 -107 -51.5t-66 -158.5q-7 -39 -7 -77q0 -74 30 -114t81 -40q63 0 108.5 53.5z" />
    <glyph glyph-name="uni01CF" unicode="&#x1cf;" horiz-adv-x="215" 
d="M156 907l46 -94l79 94h54l-117 -133h-45l-66 133h49zM81 -34h-55l129 732h55z" />
    <glyph glyph-name="uni01D0" unicode="&#x1d0;" horiz-adv-x="197" 
d="M112 710l45 -105l79 105h53l-116 -148h-46l-64 148h49zM18 -34l92 520h53l-92 -520h-53z" />
    <glyph glyph-name="uni01D1" unicode="&#x1d1;" horiz-adv-x="623" 
d="M360 906l45 -94l80 94h53l-116 -132h-46l-66 132h50zM181.5 621q80.5 88 192.5 88q101 0 158 -70t57 -200q0 -58 -12 -127q-33 -184 -113 -270t-192 -86q-102 0 -158.5 68t-56.5 198q0 59 12 129q32 182 112.5 270zM116 228q0 -107 42 -164t120 -57q87 0 150 75t90 230
q11 61 11 121q0 108 -41.5 166.5t-119.5 58.5q-87 0 -150 -76t-90 -231q-12 -67 -12 -123z" />
    <glyph glyph-name="uni01D2" unicode="&#x1d2;" horiz-adv-x="484" 
d="M255 709l45 -105l79 105h53l-116 -148h-46l-64 148h49zM126 434q63 63 146 63q77 0 121 -52t44 -149q0 -46 -8 -87q-23 -129 -86.5 -191t-145.5 -62q-77 0 -121 52t-44 147q0 37 8 85q23 131 86 194zM87 160q0 -75 31 -114.5t85 -39.5q59 0 106 51t65 158q8 46 8 79
q0 75 -30.5 114t-83.5 39q-59 0 -106.5 -51t-67.5 -160q-7 -39 -7 -76z" />
    <glyph glyph-name="uni01D3" unicode="&#x1d3;" horiz-adv-x="593" 
d="M345 906l45 -94l79 94h54l-116 -132h-46l-66 132h50zM542 698h55l-83 -481q-24 -133 -89 -197t-171 -64q-97 0 -146.5 51.5t-49.5 151.5q0 42 9 93l78 446h55l-76 -441q-9 -48 -9 -88q0 -162 143 -162q162 0 202 221z" />
    <glyph glyph-name="uni01D4" unicode="&#x1d4;" horiz-adv-x="483" 
d="M252 710l44 -105l79 105h54l-117 -148h-45l-65 148h50zM74 -6.5q-34 37.5 -34 108.5q0 30 6 64l57 321h53l-56 -315q-6 -31 -6 -58q0 -54 23.5 -81t65.5 -27q53 0 97 40.5t58 119.5l57 321h53l-92 -521h-47q8 51 12 85q-27 -46 -68.5 -70.5t-87.5 -24.5q-57 0 -91 37.5z
" />
    <glyph glyph-name="uni01D5" unicode="&#x1d5;" horiz-adv-x="593" 
d="M291 872l6 36h222l-7 -36h-221zM279 771.5q-12 10.5 -12 25.5q0 14 12 24t29 10t29.5 -10t12.5 -24q0 -15 -12 -25.5t-30 -10.5q-17 0 -29 10.5zM437 771.5q-12 10.5 -12 25.5q0 14 12 24t29 10t29.5 -10t12.5 -24q0 -15 -12 -25.5t-30 -10.5q-17 0 -29 10.5zM542 698h55
l-83 -481q-24 -133 -89 -197t-171 -64q-97 0 -146.5 51.5t-49.5 151.5q0 42 9 93l78 446h55l-76 -441q-9 -48 -9 -88q0 -162 143 -162q162 0 202 221z" />
    <glyph glyph-name="uni01D6" unicode="&#x1d6;" horiz-adv-x="483" 
d="M215 764l9 50h221l-9 -50h-221zM193.5 605q-12.5 13 -12.5 30q0 18 12 30t29 12t29.5 -12t12.5 -30t-12 -30.5t-30 -12.5q-16 0 -28.5 13zM353.5 605q-12.5 13 -12.5 30q0 18 12 30t29 12q18 0 30 -12t12 -30q0 -17 -12 -30t-29 -13t-29.5 13zM74 -6.5
q-34 37.5 -34 108.5q0 30 6 64l57 321h53l-56 -315q-6 -31 -6 -58q0 -54 23.5 -81t65.5 -27q53 0 97 40.5t58 119.5l57 321h53l-92 -521h-47q8 51 12 85q-27 -46 -68.5 -70.5t-87.5 -24.5q-57 0 -91 37.5z" />
    <glyph glyph-name="uni01D7" unicode="&#x1d7;" horiz-adv-x="593" 
d="M371 850l83 77h64l-96 -77h-51zM279 771.5q-12 10.5 -12 25.5q0 14 12 24t29 10t29.5 -10t12.5 -24q0 -15 -12 -25.5t-30 -10.5q-17 0 -29 10.5zM437 771.5q-12 10.5 -12 25.5q0 14 12 24t29 10t29.5 -10t12.5 -24q0 -15 -12 -25.5t-30 -10.5q-17 0 -29 10.5zM542 698h55
l-83 -481q-24 -133 -89 -197t-171 -64q-97 0 -146.5 51.5t-49.5 151.5q0 42 9 93l78 446h55l-76 -441q-9 -48 -9 -88q0 -162 143 -162q162 0 202 221z" />
    <glyph glyph-name="uni01D8" unicode="&#x1d8;" horiz-adv-x="483" 
d="M294 724l80 131h56l-92 -131h-44zM193.5 605q-12.5 13 -12.5 30q0 18 12 30t29 12t29.5 -12t12.5 -30t-12 -30.5t-30 -12.5q-16 0 -28.5 13zM353.5 605q-12.5 13 -12.5 30q0 18 12 30t29 12q18 0 30 -12t12 -30q0 -17 -12 -30t-29 -13t-29.5 13zM74 -6.5
q-34 37.5 -34 108.5q0 30 6 64l57 321h53l-56 -315q-6 -31 -6 -58q0 -54 23.5 -81t65.5 -27q53 0 97 40.5t58 119.5l57 321h53l-92 -521h-47q8 51 12 85q-27 -46 -68.5 -70.5t-87.5 -24.5q-57 0 -91 37.5z" />
    <glyph glyph-name="uni01D9" unicode="&#x1d9;" horiz-adv-x="593" 
d="M350 928l43 -46l58 46h63l-104 -78h-46l-77 78h63zM279 771.5q-12 10.5 -12 25.5q0 14 12 24t29 10t29.5 -10t12.5 -24q0 -15 -12 -25.5t-30 -10.5q-17 0 -29 10.5zM437 771.5q-12 10.5 -12 25.5q0 14 12 24t29 10t29.5 -10t12.5 -24q0 -15 -12 -25.5t-30 -10.5
q-17 0 -29 10.5zM542 698h55l-83 -481q-24 -133 -89 -197t-171 -64q-97 0 -146.5 51.5t-49.5 151.5q0 42 9 93l78 446h55l-76 -441q-9 -48 -9 -88q0 -162 143 -162q162 0 202 221z" />
    <glyph glyph-name="uni01DA" unicode="&#x1da;" horiz-adv-x="483" 
d="M281 856l44 -91l76 91h53l-113 -132h-46l-67 132h53zM193.5 605q-12.5 13 -12.5 30q0 18 12 30t29 12t29.5 -12t12.5 -30t-12 -30.5t-30 -12.5q-16 0 -28.5 13zM353.5 605q-12.5 13 -12.5 30q0 18 12 30t29 12q18 0 30 -12t12 -30q0 -17 -12 -30t-29 -13t-29.5 13z
M74 -6.5q-34 37.5 -34 108.5q0 30 6 64l57 321h53l-56 -315q-6 -31 -6 -58q0 -54 23.5 -81t65.5 -27q53 0 97 40.5t58 119.5l57 321h53l-92 -521h-47q8 51 12 85q-27 -46 -68.5 -70.5t-87.5 -24.5q-57 0 -91 37.5z" />
    <glyph glyph-name="uni01DB" unicode="&#x1db;" horiz-adv-x="593" 
d="M295 927h64l55 -77h-50zM279 771.5q-12 10.5 -12 25.5q0 14 12 24t30 10q17 0 29 -10t12 -24q0 -15 -12.5 -25.5t-29.5 -10.5t-29 10.5zM437 771.5q-12 10.5 -12 25.5q0 14 12 24t30 10q17 0 29 -10t12 -24q0 -15 -12.5 -25.5t-29.5 -10.5t-29 10.5zM542 698h55l-83 -481
q-24 -133 -89 -197t-171 -64q-97 0 -146.5 51.5t-49.5 151.5q0 42 9 93l78 446h55l-76 -441q-9 -48 -9 -88q0 -162 143 -162q162 0 202 221z" />
    <glyph glyph-name="uni01DC" unicode="&#x1dc;" horiz-adv-x="483" 
d="M254 855h53l35 -131h-37zM193.5 605q-12.5 13 -12.5 30q0 18 12 30t29 12t29.5 -12t12.5 -30t-12 -30.5t-30 -12.5q-16 0 -28.5 13zM353.5 605q-12.5 13 -12.5 30q0 18 12 30t29 12q18 0 30 -12t12 -30q0 -17 -12 -30t-29 -13t-29.5 13zM74 -6.5q-34 37.5 -34 108.5
q0 30 6 64l57 321h53l-56 -315q-6 -31 -6 -58q0 -54 23.5 -81t65.5 -27q53 0 97 40.5t58 119.5l57 321h53l-92 -521h-47q8 51 12 85q-27 -46 -68.5 -70.5t-87.5 -24.5q-57 0 -91 37.5z" />
    <glyph glyph-name="uni01E5" unicode="&#x1e5;" horiz-adv-x="521" 
d="M431 251h74l-9 -49h-75l-42 -242q-23 -131 -84.5 -186t-139.5 -55q-67 0 -113.5 36.5t-53.5 106.5l45 23q20 -116 126 -116q133 0 167 193l18 96q-30 -51 -71 -76.5t-87 -25.5q-69 0 -111.5 53t-42.5 149q0 35 8 83q23 130 86 193t143 63q53 0 88 -31.5t44 -94.5
q7 31 24 116h47zM376 251q3 27 3 50q0 76 -31 111t-81 35q-59 0 -106.5 -51.5t-66.5 -158.5q-7 -39 -7 -77q0 -74 30 -114t82 -40q53 0 100 45.5t70 150.5h-105l8 49h104z" />
    <glyph glyph-name="gcaron" unicode="&#x1e7;" horiz-adv-x="506" 
d="M427 710l-117 -148h-45l-65 148h50l44 -105l79 105h54zM471 487l-93 -527q-23 -131 -84.5 -186t-139.5 -55q-67 0 -113.5 36.5t-53.5 106.5l45 23q20 -116 127 -116q63 0 105.5 45t61.5 148l17 96q-30 -51 -71 -76.5t-86 -25.5q-69 0 -111.5 52.5t-42.5 147.5q0 35 8 85
q23 130 86 193t142 63q53 0 88.5 -31.5t44.5 -94.5q12 53 23 116h47zM379 301q0 76 -31.5 111t-80.5 35q-60 0 -107.5 -51.5t-65.5 -158.5q-8 -46 -8 -78q0 -73 30.5 -113t81.5 -40q56 0 104.5 49.5t68.5 164.5q8 41 8 81z" />
    <glyph glyph-name="uni01E9" unicode="&#x1e9;" horiz-adv-x="436" 
d="M153 924l45 -91l76 91h52l-113 -132h-46l-67 132h53zM388 486h65l-209 -217l136 -303h-61l-116 262l-103 -107l-27 -155h-53l134 761h53l-73 -413q-3 -18 -16 -93q-2 -7 -4 -21q52 53 101 107z" />
    <glyph glyph-name="uni01EF" unicode="&#x1ef;" horiz-adv-x="404" 
d="M202 710l45 -105l78 105h54l-117 -148h-45l-64 148h49zM60 487h339l-6 -35l-236 -263q85 -1 127.5 -51.5t42.5 -133.5q0 -32 -6 -66q-20 -110 -80 -164.5t-142 -54.5q-75 0 -121.5 44.5t-50.5 129.5l49 20q2 -71 36.5 -107.5t88.5 -36.5q60 0 104 45t59 132q5 32 5 54
q0 65 -33 103.5t-103 38.5q-20 0 -52 -5l7 44l228 259h-264z" />
    <glyph glyph-name="uni01F0" unicode="&#x1f0;" horiz-adv-x="178" 
d="M108 709l45 -105l79 105h53l-116 -148h-46l-64 148h49zM-143.5 -272q-21.5 9 -32.5 24l29 43q19 -26 55 -26q35 0 59 30t37 108l102 579h53l-103 -584q-18 -100 -55.5 -141.5t-93.5 -41.5q-29 0 -50.5 9z" />
    <glyph glyph-name="uni01F9" unicode="&#x1f9;" horiz-adv-x="483" 
d="M220 710h56l34 -148h-38zM393 459.5q34 -37.5 34 -108.5q0 -29 -6 -64l-57 -321h-53l56 315q6 32 6 58q0 54 -23.5 81t-65.5 27q-53 0 -97 -40.5t-58 -119.5l-57 -321h-53l92 521h47q-8 -51 -12 -85q27 46 68.5 70.5t87.5 24.5q57 0 91 -37.5z" />
    <glyph glyph-name="Aringacute" unicode="&#x1fa;" horiz-adv-x="566" 
d="M377 868l80 69h57l-92 -69h-45zM319 825.5q25 14.5 61 14.5t60 -14t24 -36t-24.5 -36.5t-59.5 -14.5q-36 0 -61 14.5t-25 36.5q0 21 25 35.5zM344.5 770.5q13.5 -7.5 35.5 -7.5t34.5 7.5t12.5 19.5q0 11 -12.5 18t-34.5 7t-35.5 -7t-13.5 -18q0 -12 13.5 -19.5zM380 699
l117 -733h-60l-34 227h-267l-112 -227h-63l372 733h47zM396 244l-54 370l-182 -370h236z" />
    <glyph glyph-name="aringacute" unicode="&#x1fb;" horiz-adv-x="507" 
d="M312 771l76 117h57l-89 -117h-44zM254 697.5q25 24.5 62 24.5q36 0 59.5 -24t23.5 -61t-25 -61.5t-59 -24.5q-36 0 -61 24.5t-25 60.5q0 37 25 61.5zM280 599.5q14 -14.5 36 -14.5q21 0 34 14.5t13 37.5t-13 37.5t-34 14.5q-22 0 -36 -14.5t-14 -37.5t14 -37.5zM472 487
l-92 -521h-47l7 46q6 30 9 57q-30 -57 -72.5 -85t-90.5 -28q-69 0 -111.5 52.5t-42.5 148.5q0 36 8 84q23 130 86 193t143 63q53 0 88 -31.5t44 -94.5q11 41 24 116h47zM306.5 59.5q45.5 53.5 66.5 165.5q7 39 7 74q0 76 -32 112t-81 36q-60 0 -107 -51.5t-66 -158.5
q-7 -39 -7 -77q0 -74 30 -114t81 -40q63 0 108.5 53.5z" />
    <glyph glyph-name="AEacute" unicode="&#x1fc;" horiz-adv-x="828" 
d="M694 906h58l-98 -132h-43zM848 698l-9 -51h-294l-49 -276h265l-9 -51h-265l-53 -303h304l-10 -51h-360l42 237h-218l-168 -237h-63l521 732h366zM228 254h190l64 361z" />
    <glyph glyph-name="aeacute" unicode="&#x1fd;" horiz-adv-x="718" 
d="M489 709h58l-98 -148h-44zM630 93l39 -28q-27 -54 -72.5 -81.5t-99.5 -27.5q-62 0 -102 35.5t-52 101.5q-25 -66 -71.5 -101.5t-105.5 -35.5q-60 0 -99 35.5t-39 99.5q0 18 3 37q14 79 69 116t140 37q45 0 102 -11l3 19q5 33 5 54q0 104 -93 104q-78 0 -119 -77l-37 24
q25 51 69 77t97 26q54 0 88 -28t41 -83q32 56 77 83.5t98 27.5q62 0 96.5 -35.5t34.5 -94.5q0 -75 -53.5 -117.5t-162.5 -42.5q-48 0 -98 7q-4 -25 -4 -54q0 -75 31.5 -114t87.5 -39q83 0 127 86zM460 402.5q-46 -44.5 -65 -142.5q47 -8 93 -8q79 0 118.5 29t39.5 83
q0 38 -20.5 60.5t-62.5 22.5q-57 0 -103 -44.5zM334 224q-49 10 -93 10q-134 0 -155 -111q-2 -10 -2 -28q0 -44 24 -67.5t63 -23.5q32 0 63 17t54.5 50t31.5 78z" />
    <glyph glyph-name="Oslashacute" unicode="&#x1fe;" horiz-adv-x="624" 
d="M383 774l84 132h57l-97 -132h-44zM592 732h58l-96 -127q35 -65 35 -166q0 -58 -12 -127q-33 -184 -113 -270t-192 -86q-99 0 -154 67l-69 -90h-58l97 130q-31 61 -31 158q0 60 12 130q32 182 112.5 270t192.5 88q97 0 151 -66zM116 231q0 -63 15 -110l358 475
q-41 62 -121 62q-87 0 -150 -76t-90 -231q-12 -66 -12 -120zM529 432q0 67 -17 116l-359 -476q42 -65 125 -65q86 0 149 75t90 230q12 66 12 120z" />
    <glyph glyph-name="oslashacute" unicode="&#x1ff;" horiz-adv-x="485" 
d="M268 561l83 148h59l-99 -148h-43zM435 520h54l-79 -101q27 -48 27 -123q0 -46 -8 -87q-23 -129 -86.5 -191t-145.5 -62q-69 0 -110 43l-51 -66h-54l77 100q-27 47 -27 122q0 44 8 85q23 131 86 194t146 63q69 0 110 -44zM87 162q0 -44 11 -77l251 324q-29 38 -82 38
q-59 0 -106.5 -51t-66.5 -160q-7 -38 -7 -74zM380 292q0 44 -10 74l-249 -323q14 -18 35 -27.5t46 -9.5q59 0 106 51t65 158q7 39 7 77z" />
    <glyph glyph-name="uni0218" unicode="&#x218;" horiz-adv-x="461" 
d="M344 2q-53 -46 -135 -46q-58 0 -104 22.5t-73.5 63t-30.5 92.5l48 25q6 -69 51.5 -110.5t110.5 -41.5q69 0 106 46q26 30 33 76q3 17 3 31q0 37 -17 66.5t-41.5 50.5t-66.5 50q-45 31 -71.5 54t-45 56t-18.5 77q0 11 4 39q14 77 72 119q53 37 126 37q76 0 121.5 -42
t47.5 -107l-47 -24q-6 55 -37 88.5t-89 33.5q-55 0 -91 -30q-46 -37 -46 -107q0 -34 15.5 -60t38.5 -44.5t63 -46.5q47 -32 74.5 -56t47 -60t19.5 -84q0 -25 -4 -46q-15 -79 -64 -122zM222.5 -104q9.5 -10 9.5 -32q0 -48 -32 -85t-86 -47l5 31q59 16 72 66q-3 -1 -9 -1
q-14 0 -22 8.5t-8 21.5q0 20 13 34t32 14q16 0 25.5 -10z" />
    <glyph glyph-name="uni0219" unicode="&#x219;" horiz-adv-x="378" 
d="M262 -8q-43 -36 -109 -36q-64 0 -106 34t-46 97l44 24q4 -54 35 -80t76 -26q41 0 68.5 21t34.5 61q2 16 2 21q0 37 -23 59.5t-69 50.5q-34 21 -54.5 37t-34.5 39.5t-14 56.5q0 73 53 114q41 32 105 32q59 0 95.5 -32t40.5 -86l-45 -23q-3 42 -28 67t-67 25
q-36 0 -63 -18.5t-33 -54.5q-2 -12 -2 -17q0 -33 22 -54.5t67 -47.5q35 -21 56.5 -37.5t36.5 -42t15 -59.5q0 -13 -3 -30q-10 -62 -54 -95zM165 -101.5q10 -10.5 10 -32.5q0 -49 -32 -85t-86 -46l5 30q61 17 72 66q-3 -1 -9 -1q-14 0 -22 9t-8 23q0 19 13.5 33t31.5 14
q15 0 25 -10.5z" />
    <glyph glyph-name="uni021A" unicode="&#x21a;" horiz-adv-x="464" 
d="M92 698h431l-8 -49h-189l-120 -683h-55l120 683h-188zM190.5 -104q9.5 -10 9.5 -32q0 -48 -32 -85t-86 -47l5 31q61 17 72 66q-3 -1 -9 -1q-14 0 -22 9t-8 22q0 19 13.5 33t31.5 14q16 0 25.5 -10z" />
    <glyph glyph-name="uni021B" unicode="&#x21b;" horiz-adv-x="300" 
d="M296 441h-123l-56 -322q-5 -30 -5 -47q0 -67 57 -67q27 0 57 18l13 -41q-38 -26 -83 -26q-97 0 -97 107q0 29 5 55l57 323h-72l7 46h73l25 144h53l-25 -144h122zM152.5 -104q9.5 -10 9.5 -32q0 -4 -2 -20q-8 -42 -38 -72.5t-78 -39.5l5 31q59 16 72 66q-3 -1 -9 -1
q-14 0 -22 8.5t-8 21.5q0 20 13 34t32 14q16 0 25.5 -10z" />
    <glyph glyph-name="uni021F" unicode="&#x21f;" horiz-adv-x="483" 
d="M153 924l45 -91l76 91h52l-113 -132h-46l-67 132h53zM393 459.5q34 -37.5 34 -109.5q0 -28 -6 -63l-57 -321h-53l55 315q6 33 6 59q0 53 -23 80t-65 27q-53 0 -97 -41t-58 -120l-57 -320h-53l135 761h53l-57 -317q28 42 68 64.5t84 22.5q57 0 91 -37.5z" />
    <glyph glyph-name="uni0237" unicode="&#x237;" horiz-adv-x="178" 
d="M-143.5 -272q-21.5 9 -32.5 24l29 43q19 -26 55 -26q35 0 59 30t37 108l102 579h53l-103 -584q-18 -100 -55.5 -141.5t-93.5 -41.5q-29 0 -50.5 9z" />
    <glyph glyph-name="uni0251" unicode="&#x251;" horiz-adv-x="506" 
d="M472 487l-92 -521h-47l7 46q6 30 9 57q-29 -57 -72 -85t-91 -28q-69 0 -111.5 53t-42.5 149q0 35 8 83q23 130 86 193t143 63q53 0 88 -31.5t44 -94.5q11 41 24 116h47zM306.5 59.5q45.5 53.5 66.5 165.5q7 39 7 75q0 76 -31.5 111.5t-81.5 35.5q-59 0 -106.5 -51.5
t-66.5 -158.5q-7 -39 -7 -77q0 -74 30 -114t82 -40q62 0 107.5 53.5z" />
    <glyph glyph-name="uni0259" unicode="&#x259;" horiz-adv-x="423" 
d="M72 360l-39 28q27 54 72.5 81.5t99.5 27.5q78 0 124 -54t46 -152q0 -39 -7 -80q-15 -87 -51.5 -144t-84.5 -84t-101 -27q-62 0 -96 35.5t-34 95.5q0 75 55.5 112.5t173.5 37.5q44 0 84 -4q4 28 4 58q0 77 -31.5 116t-87.5 39q-82 0 -127 -86zM241 49q45 43 65 138
q-52 5 -83 5q-85 0 -126 -25.5t-41 -77.5q0 -39 20.5 -61t63.5 -22q56 0 101 43z" />
    <glyph glyph-name="uni0261" unicode="&#x261;" horiz-adv-x="506" 
d="M471 487l-93 -527q-23 -131 -84.5 -186t-139.5 -55q-67 0 -113.5 36.5t-53.5 106.5l45 23q20 -116 127 -116q63 0 105.5 45t61.5 148l17 96q-30 -51 -71 -76.5t-86 -25.5q-69 0 -111.5 52.5t-42.5 147.5q0 35 8 85q23 130 86 193t142 63q53 0 88.5 -31.5t44.5 -94.5
q12 53 23 116h47zM379 301q0 76 -31.5 111t-80.5 35q-60 0 -107.5 -51.5t-65.5 -158.5q-8 -46 -8 -78q0 -73 30.5 -113t81.5 -40q56 0 104.5 49.5t68.5 164.5q8 41 8 81z" />
    <glyph glyph-name="uni0292" unicode="&#x292;" horiz-adv-x="404" 
d="M60 487h339l-6 -35l-236 -263q85 -1 127.5 -51.5t42.5 -133.5q0 -32 -6 -66q-20 -110 -80 -164.5t-142 -54.5q-75 0 -121.5 44.5t-50.5 129.5l49 20q2 -71 36.5 -107.5t88.5 -36.5q60 0 104 45t59 132q5 32 5 54q0 65 -33 103.5t-103 38.5q-20 0 -52 -5l7 44l228 259
h-264z" />
    <glyph glyph-name="uni02BB" unicode="&#x2bb;" horiz-adv-x="209" 
d="M241 739q-68 -18 -83 -93h4q20 0 30.5 -13.5t6.5 -33.5q-2 -16 -15 -27t-29 -11q-18 0 -29.5 13t-11.5 39q0 5 2 23q10 54 42.5 91.5t84.5 48.5z" />
    <glyph glyph-name="circumflex" unicode="&#x2c6;" horiz-adv-x="297" 
d="M203 710h46l64 -148h-49l-45 105l-79 -105h-54z" />
    <glyph glyph-name="caron" unicode="&#x2c7;" horiz-adv-x="297" 
d="M162 710l45 -105l78 105h54l-117 -148h-45l-64 148h49z" />
    <glyph glyph-name="breve" unicode="&#x2d8;" horiz-adv-x="263" 
d="M117.5 592q-24.5 28 -24.5 75q0 20 4 39h46q-3 -16 -3 -32q0 -32 13 -49.5t37 -17.5q58 0 81 99h49q-12 -67 -47 -104.5t-89 -37.5q-42 0 -66.5 28z" />
    <glyph glyph-name="dotaccent" unicode="&#x2d9;" horiz-adv-x="154" 
d="M113.5 605q-12.5 13 -12.5 30q0 18 12 30t29 12q18 0 30.5 -12t12.5 -30q0 -17 -12.5 -30t-29.5 -13t-29.5 13z" />
    <glyph glyph-name="ring" unicode="&#x2da;" horiz-adv-x="258" 
d="M131.5 717q27.5 27 66.5 27t65 -26t26 -67q0 -40 -27 -66t-65 -26q-39 0 -66 26t-27 66q0 39 27.5 66zM159 611q15 -16 39 -16q23 0 37 16t14 40q0 26 -14 41.5t-37 15.5q-24 0 -39 -16t-15 -41q0 -24 15 -40z" />
    <glyph glyph-name="ogonek" unicode="&#x2db;" horiz-adv-x="260" 
d="M136 -232q-41 -49 -94 -49q-38 0 -62.5 21.5t-24.5 62.5q0 57 37.5 103t92.5 80l35 -20q-99 -66 -113 -138q-2 -12 -2 -17q0 -25 13 -37t32 -12q33 0 68 38z" />
    <glyph glyph-name="tilde" unicode="&#x2dc;" horiz-adv-x="300" 
d="M90 580q26 102 83 102q18 0 28.5 -9.5t23.5 -27.5q9 -13 15 -19t14 -6q26 0 40 60h43q-11 -48 -32 -75.5t-51 -27.5q-18 0 -28.5 9t-21.5 26q-9 13 -15.5 19t-15.5 6q-14 0 -23.5 -14t-17.5 -43h-42z" />
    <glyph glyph-name="hungarumlaut" unicode="&#x2dd;" horiz-adv-x="321" 
d="M162 562l84 148h59l-99 -148h-44zM265 562l84 148h59l-99 -148h-44z" />
    <glyph glyph-name="dotbelowcomb" unicode="&#x323;" horiz-adv-x="0" 
d="M-182.5 -192.5q-12.5 12.5 -12.5 30.5q0 17 12 29.5t29 12.5q18 0 30 -12.5t12 -29.5q0 -18 -12 -30.5t-29 -12.5t-29.5 12.5z" />
    <glyph glyph-name="uni0326" unicode="&#x326;" horiz-adv-x="0" 
d="M-213.5 -104q9.5 -10 9.5 -32q0 -48 -32 -85t-86 -47l5 31q61 17 72 66q-3 -1 -9 -1q-14 0 -22 9t-8 22q0 19 13.5 33t31.5 14q16 0 25.5 -10z" />
    <glyph glyph-name="uni0338" unicode="&#x338;" horiz-adv-x="0" 
d="M-483 -271l487 969h59l-487 -969h-59z" />
    <glyph glyph-name="tonos" unicode="&#x384;" horiz-adv-x="247" 
d="M165 562l74 148h59l-86 -148h-47z" />
    <glyph glyph-name="dieresistonos" unicode="&#x385;" horiz-adv-x="490" 
d="M215 562l59 148h52l-72 -148h-39zM130 609.5q-12 12.5 -12 31.5q0 17 12.5 29t28.5 12q17 0 29.5 -12.5t12.5 -30.5t-12 -30t-30 -12q-17 0 -29 12.5zM349.5 609q-12.5 12 -12.5 30t12 30.5t29 12.5q18 0 30.5 -12.5t12.5 -30.5t-12.5 -30t-29.5 -12t-29.5 12z" />
    <glyph glyph-name="Alphatonos" unicode="&#x386;" horiz-adv-x="566" 
d="M380 699l117 -733h-60l-34 227h-267l-112 -227h-63l372 733h47zM131 551l51 148h56l-63 -148h-44zM396 244l-54 370l-182 -370h236z" />
    <glyph glyph-name="Epsilontonos" unicode="&#x388;" horiz-adv-x="568" 
d="M75 550l50 148h56l-63 -148h-43zM237 698h350l-9 -49h-294l-49 -279h265l-9 -50h-266l-53 -305h304l-9 -49h-359z" />
    <glyph glyph-name="Etatonos" unicode="&#x389;" horiz-adv-x="693" 
d="M75 550l50 148h56l-63 -148h-43zM235 372h341l58 326h55l-129 -732h-55l62 355h-341l-63 -355h-55l129 732h55z" />
    <glyph glyph-name="Iotatonos" unicode="&#x38a;" horiz-adv-x="297" 
d="M75 550l50 148h56l-63 -148h-43zM163 -34h-55l129 732h55z" />
    <glyph glyph-name="Omicrontonos" unicode="&#x38c;" horiz-adv-x="677" 
d="M235.5 621q80.5 88 192.5 88q101 0 158 -70t57 -200q0 -58 -12 -127q-33 -184 -113 -270t-192 -86q-102 0 -158.5 68t-56.5 198q0 59 12 129q32 182 112.5 270zM69 550l51 148h56l-63 -148h-44zM169 229q0 -107 42 -164.5t120 -57.5q87 0 150.5 75t90.5 230q11 61 11 121
q0 108 -41.5 166.5t-119.5 58.5q-86 0 -150 -76t-91 -231q-12 -67 -12 -122z" />
    <glyph glyph-name="Upsilontonos" unicode="&#x38e;" horiz-adv-x="596" 
d="M51 550l51 148h56l-63 -148h-44zM360 342l232 356h64l-278 -418l-56 -314h-56l56 318l-144 414h63z" />
    <glyph glyph-name="Omegatonos" unicode="&#x38f;" horiz-adv-x="696" 
d="M580 153q-57 -89 -134 -137h160l-9 -50h-227l11 58q84 48 139 132t75 195q9 51 9 94q0 102 -47.5 157t-127.5 55q-91 0 -155.5 -75t-88.5 -211q-10 -54 -10 -104q0 -86 28.5 -147.5t76.5 -95.5l-11 -58h-225l9 50h160q-42 35 -69.5 98.5t-27.5 153.5q0 47 9 104
q27 159 109 248t204 89q106 0 166.5 -67.5t60.5 -190.5q0 -39 -8 -90q-20 -119 -77 -208zM72 550l50 148h56l-63 -148h-43z" />
    <glyph glyph-name="iotadieresistonos" unicode="&#x390;" horiz-adv-x="216" 
d="M122 562l59 148h52l-72 -148h-39zM37 609.5q-12 12.5 -12 31.5q0 17 12.5 29t28.5 12q17 0 29.5 -12.5t12.5 -30.5t-12 -30t-30 -12q-17 0 -29 12.5zM256.5 609q-12.5 12 -12.5 30t12 30.5t29 12.5q18 0 30.5 -12.5t12.5 -30.5t-12.5 -30t-29.5 -12t-29.5 12zM158 -29
q-23 -15 -54 -15q-71 0 -71 76q0 20 4 39l72 416h53l-71 -408q-4 -26 -4 -34q0 -39 34 -39q19 0 37 10v-45z" />
    <glyph glyph-name="Alpha" unicode="&#x391;" horiz-adv-x="566" 
d="M380 699l117 -733h-60l-34 227h-267l-112 -227h-63l372 733h47zM396 244l-54 370l-182 -370h236z" />
    <glyph glyph-name="Beta" unicode="&#x392;" horiz-adv-x="529" 
d="M449 401q-30 -38 -78 -55q50 -17 76 -56t26 -95q0 -26 -4 -47q-32 -182 -237 -182h-206l129 732h164q83 0 128.5 -45t45.5 -117q0 -22 -4 -41q-10 -56 -40 -94zM267 366q68 0 110.5 35t53.5 98q3 17 3 32q0 53 -33 85.5t-94 32.5h-105l-50 -283h115zM414 190
q0 58 -35 93.5t-100 35.5h-136l-53 -304h139q81 0 125.5 34.5t55.5 101.5q4 26 4 39z" />
    <glyph glyph-name="Gamma" unicode="&#x393;" horiz-adv-x="443" 
d="M81 -34h-55l129 732h350l-9 -50h-294z" />
    <glyph glyph-name="uni0394" unicode="&#x394;" horiz-adv-x="560" 
d="M334 698h48l109 -697l-7 -35h-516l7 35zM431 17l-90 594l-298 -594h388z" />
    <glyph glyph-name="Epsilon" unicode="&#x395;" horiz-adv-x="486" 
d="M155 698h350l-9 -49h-294l-49 -279h265l-9 -50h-266l-53 -305h304l-9 -49h-359z" />
    <glyph glyph-name="Zeta" unicode="&#x396;" horiz-adv-x="479" 
d="M118 649l9 49h392l-4 -28l-459 -654h356l-10 -50h-429l5 28l459 655h-319z" />
    <glyph glyph-name="Eta" unicode="&#x397;" horiz-adv-x="611" 
d="M153 372h341l58 326h55l-129 -732h-55l62 355h-341l-63 -355h-55l129 732h55z" />
    <glyph glyph-name="Theta" unicode="&#x398;" horiz-adv-x="650" 
d="M183 617q84 92 210 92q103 0 162.5 -67.5t59.5 -200.5q0 -56 -12 -125q-31 -178 -113 -269t-210 -91q-104 0 -164 67t-60 201q0 56 12 125q31 176 115 268zM115 228q0 -111 46 -166t127 -55q97 0 164 79.5t93 229.5q11 69 11 118q0 112 -46 168t-127 56
q-96 0 -163.5 -79.5t-92.5 -229.5q-12 -67 -12 -121zM456 313h-247l9 50h247z" />
    <glyph glyph-name="Iota" unicode="&#x399;" horiz-adv-x="215" 
d="M81 -34h-55l129 732h55z" />
    <glyph glyph-name="Kappa" unicode="&#x39a;" horiz-adv-x="548" 
d="M524 698h72l-290 -297l181 -435h-66l-159 389l-137 -139l-44 -250h-55l129 732h55l-58 -330l-11 -66l48 51q12 11 24 24z" />
    <glyph glyph-name="Lambda" unicode="&#x39b;" horiz-adv-x="555" 
d="M425 -34l-90 643l-309 -643h-65l364 732h49l112 -732h-61z" />
    <glyph glyph-name="Mu" unicode="&#x39c;" horiz-adv-x="711" 
d="M661 698h46l-129 -732h-55l107 601l-272 -385h-32l-139 396l-108 -612h-53l129 732h47l151 -445z" />
    <glyph glyph-name="Nu" unicode="&#x39d;" horiz-adv-x="607" 
d="M201 698l240 -621l110 621h52l-129 -732h-47l-239 620l-111 -620h-51l129 732h46z" />
    <glyph glyph-name="Xi" unicode="&#x39e;" horiz-adv-x="499" 
d="M526 647h-422l10 52h422zM435 320h-353l8 52h354zM406 -34h-422l10 52h422z" />
    <glyph glyph-name="Omicron" unicode="&#x39f;" horiz-adv-x="623" 
d="M181.5 621q80.5 88 192.5 88q101 0 158 -70t57 -200q0 -58 -12 -127q-33 -184 -113 -270t-192 -86q-102 0 -158.5 68t-56.5 198q0 59 12 129q32 182 112.5 270zM116 228q0 -107 42 -164t120 -57q87 0 150 75t90 230q11 61 11 121q0 108 -41.5 166.5t-119.5 58.5
q-87 0 -150 -76t-90 -231q-12 -67 -12 -123z" />
    <glyph glyph-name="Pi" unicode="&#x3a0;" horiz-adv-x="611" 
d="M155 698h452l-130 -732h-56l121 682h-340l-121 -682h-55z" />
    <glyph glyph-name="Rho" unicode="&#x3a1;" horiz-adv-x="486" 
d="M314 698q86 0 134.5 -49t48.5 -131q0 -21 -5 -51q-17 -94 -80 -148t-161 -54h-117l-53 -299h-55l129 732h159zM438 514q0 62 -36 98.5t-100 36.5h-100l-59 -335h109q75 0 122 42t60 116q4 20 4 42z" />
    <glyph glyph-name="Sigma" unicode="&#x3a3;" horiz-adv-x="472" 
d="M103 654l8 45h402l-9 -51h-338l151 -317l-268 -315h355l-9 -50h-423l8 44l274 326z" />
    <glyph glyph-name="Tau" unicode="&#x3a4;" horiz-adv-x="464" 
d="M92 698h431l-8 -49h-189l-120 -683h-55l120 683h-188z" />
    <glyph glyph-name="Upsilon" unicode="&#x3a5;" horiz-adv-x="508" 
d="M272 342l233 356h63l-278 -418l-56 -314h-56l56 318l-144 414h63z" />
    <glyph glyph-name="Phi" unicode="&#x3a6;" horiz-adv-x="670" 
d="M424 617q96 -12 157.5 -75t61.5 -167q0 -24 -5 -59q-19 -122 -104 -193.5t-211 -76.5l-14 -80h-55l14 82q-62 8 -112 38t-79 82t-29 122q0 28 6 61q22 123 105 193.5t210 74.5l14 79h55zM108 295q0 -84 47 -134.5t122 -61.5l83 470q-99 -5 -164.5 -63t-82.5 -159
q-5 -30 -5 -52zM582 372q0 86 -46 135.5t-121 59.5l-83 -470q102 4 165.5 61.5t79.5 157.5q5 33 5 56z" />
    <glyph glyph-name="Chi" unicode="&#x3a7;" horiz-adv-x="543" 
d="M292 390l236 308h68l-282 -363l159 -369h-65l-134 321l-246 -321h-66l289 375l-153 357h64z" />
    <glyph glyph-name="Psi" unicode="&#x3a8;" horiz-adv-x="644" 
d="M611 698h56l-44 -250q-25 -143 -95.5 -204t-195.5 -66l-37 -212h-55l37 212q-93 7 -146.5 52t-53.5 143q0 36 7 75l44 250h55l-42 -240q-7 -45 -7 -70q0 -82 41 -117.5t111 -40.5l83 468h55l-83 -468q95 3 150.5 54t77.5 174z" />
    <glyph glyph-name="uni03A9" unicode="&#x3a9;" horiz-adv-x="643" 
d="M527.5 153q-56.5 -89 -133.5 -137h160l-10 -50h-226l11 58q83 48 138 132.5t75 194.5q9 51 9 94q0 101 -47 156.5t-127 55.5q-91 0 -156 -75t-89 -211q-9 -55 -9 -103q0 -87 28 -148.5t76 -95.5l-10 -58h-226l10 50h159q-43 36 -70 99.5t-27 153.5q0 48 9 103
q28 159 109.5 248t203.5 89q106 0 166.5 -67.5t60.5 -190.5q0 -39 -8 -90q-20 -119 -76.5 -208z" />
    <glyph glyph-name="Iotadieresis" unicode="&#x3aa;" horiz-adv-x="215" 
d="M100.5 821q-12.5 13 -12.5 30q0 18 12 30t29 12t29.5 -12t12.5 -30t-12 -30.5t-30 -12.5q-16 0 -28.5 13zM260.5 821q-12.5 13 -12.5 30q0 18 12 30t29 12q18 0 30 -12t12 -30q0 -17 -12 -30t-29 -13t-29.5 13zM81 -34h-55l129 732h55z" />
    <glyph glyph-name="Upsilondieresis" unicode="&#x3ab;" horiz-adv-x="508" 
d="M245.5 821q-12.5 13 -12.5 30q0 18 12.5 30t29.5 12t29.5 -12t12.5 -30t-12 -30.5t-30 -12.5q-17 0 -29.5 13zM406.5 821q-12.5 13 -12.5 30q0 18 12 30t29 12t29.5 -12t12.5 -30t-12 -30.5t-30 -12.5q-16 0 -28.5 13zM272 342l233 356h63l-278 -418l-56 -314h-56l56 318
l-144 414h63z" />
    <glyph glyph-name="alphatonos" unicode="&#x3ac;" horiz-adv-x="511" 
d="M336 710h59l-86 -148h-46zM448 12l1 -45q-19 -11 -45 -11q-64 0 -64 68q0 16 3 34q-29 -52 -70.5 -77t-86.5 -25q-69 0 -111.5 52.5t-42.5 147.5q0 35 8 85q23 130 86 193t142 63q54 0 89.5 -32t44.5 -96q13 57 24 118h45l-73 -418q-3 -15 -3 -26q0 -36 30 -36q12 0 23 5
zM379 301q0 76 -31.5 111t-80.5 35q-60 0 -107.5 -51.5t-65.5 -158.5q-8 -46 -8 -78q0 -73 30.5 -113t81.5 -40q56 0 104.5 49.5t68.5 164.5q8 41 8 81z" />
    <glyph glyph-name="epsilontonos" unicode="&#x3ad;" horiz-adv-x="391" 
d="M242 562l74 148h58l-86 -148h-46zM257 28q37 22 60 67l38 -25q-27 -57 -76.5 -85.5t-112.5 -28.5q-69 0 -108.5 34t-39.5 92q0 18 2 28q9 54 44 86.5t89 43.5q-35 10 -54.5 37t-19.5 63q0 8 2 22q10 62 59.5 98.5t116.5 36.5q62 0 98.5 -29.5t40.5 -77.5l-46 -25
q-4 39 -30.5 60.5t-68.5 21.5q-48 0 -82 -29t-34 -79q0 -34 25.5 -55.5t71.5 -21.5h41l-9 -47h-39q-60 0 -100 -26t-49 -77q-1 -6 -1 -18q0 -40 25.5 -64t73.5 -24q46 0 83 22z" />
    <glyph glyph-name="etatonos" unicode="&#x3ae;" horiz-adv-x="499" 
d="M351 710h58l-86 -148h-46zM408 459.5q34 -37.5 34 -108.5q0 -29 -6 -64l-98 -558h-53l97 552q6 32 6 58q0 54 -23 81t-65 27q-54 0 -98 -41.5t-59 -123.5l-56 -316h-53l74 413q3 17 3 29q0 39 -30 39q-11 0 -23 -6v46q17 10 44 10q38 0 52.5 -21.5t10.5 -65.5
q28 43 67.5 65t84.5 22q57 0 91 -37.5z" />
    <glyph glyph-name="iotatonos" unicode="&#x3af;" horiz-adv-x="216" 
d="M122 562l74 148h58l-86 -148h-46zM158 -29q-23 -15 -54 -15q-71 0 -71 76q0 20 4 39l72 416h53l-71 -408q-4 -26 -4 -34q0 -39 34 -39q19 0 37 10v-45z" />
    <glyph glyph-name="upsilondieresistonos" unicode="&#x3b0;" horiz-adv-x="467" 
d="M257 562l59 148h52l-72 -148h-39zM172 609.5q-12 12.5 -12 31.5q0 17 12.5 29t28.5 12q17 0 29.5 -12.5t12.5 -30.5t-12 -30t-30 -12q-17 0 -29 12.5zM391.5 609q-12.5 12 -12.5 30t12 30.5t29 12.5q18 0 30 -12.5t12 -30.5t-12 -30t-29 -12t-29.5 12zM105 486h53
l-53 -303q-7 -38 -7 -70q0 -107 86 -107q64 0 107.5 61t65.5 177q12 65 12 126q0 55 -11 116h57q9 -55 9 -112q0 -64 -12 -130q-27 -148 -85.5 -218t-148.5 -70q-65 0 -99.5 36t-34.5 110q0 36 7 74z" />
    <glyph glyph-name="alpha" unicode="&#x3b1;" horiz-adv-x="511" 
d="M448 12l2 -45q-20 -11 -45 -11q-64 0 -64 69q0 16 3 34q-29 -52 -70.5 -77.5t-87.5 -25.5q-69 0 -111.5 53t-42.5 149q0 35 8 83q23 130 86 193t143 63q54 0 89.5 -32t43.5 -96q14 55 24 118h45l-73 -418q-2 -9 -2 -25q0 -37 30 -37q12 0 22 5zM380 299q0 76 -32 112
t-81 36q-59 0 -106.5 -51.5t-66.5 -158.5q-7 -39 -7 -77q0 -74 30 -114t82 -40q56 0 104.5 49.5t68.5 164.5q8 48 8 79z" />
    <glyph glyph-name="beta" unicode="&#x3b2;" horiz-adv-x="498" 
d="M423 436.5q-31 -41.5 -80 -61.5q49 -14 75 -55t26 -104q0 -29 -6 -62q-16 -94 -67 -146t-133 -52q-60 0 -98 27.5t-51 77.5l-58 -332h-53l138 780q21 118 76 172.5t131 54.5q68 0 106.5 -39.5t38.5 -108.5q0 -25 -4 -48q-10 -62 -41 -103.5zM253 393q65 0 104.5 40
t51.5 107q4 28 4 41q0 50 -24.5 78t-70.5 28q-57 0 -96.5 -47.5t-55.5 -141.5l-46 -269q-7 -36 -7 -71q0 -73 33 -112.5t92 -39.5q57 0 95 39t51 114q5 32 5 54q0 65 -32.5 100t-93.5 35h-33l8 45h15z" />
    <glyph glyph-name="gamma" unicode="&#x3b3;" horiz-adv-x="420" 
d="M407 486q-1 -47 -8 -92q-18 -101 -71.5 -203.5t-161.5 -231.5l-41 -230h-52l39 218l-62 539h58l47 -469q88 115 131 204t58 172q8 50 9 93h54z" />
    <glyph glyph-name="delta" unicode="&#x3b4;" horiz-adv-x="495" 
d="M466 721l-8 -46h-219l152 -207q55 -76 55 -170q0 -40 -7 -78q-22 -130 -83.5 -197t-147.5 -67q-82 0 -128 53t-46 148q0 39 7 78q22 126 86.5 192.5t155.5 66.5q12 0 18 -1l-136 188l7 40h294zM389 291q0 75 -31.5 114.5t-85.5 39.5q-63 0 -111 -54.5t-65 -159.5
q-6 -37 -6 -69q0 -75 32 -115.5t87 -40.5q64 0 110 55.5t64 160.5q6 38 6 69z" />
    <glyph glyph-name="epsilon" unicode="&#x3b5;" horiz-adv-x="391" 
d="M257 28q37 22 60 67l38 -25q-27 -57 -76.5 -85.5t-112.5 -28.5q-69 0 -108.5 34t-39.5 92q0 18 2 28q9 54 44 86.5t89 43.5q-35 10 -54.5 37t-19.5 63q0 8 2 22q10 62 59.5 98.5t116.5 36.5q62 0 98.5 -29.5t40.5 -77.5l-46 -25q-4 39 -30.5 60.5t-68.5 21.5
q-48 0 -82 -29t-34 -79q0 -34 25.5 -55.5t71.5 -21.5h41l-9 -47h-39q-60 0 -100 -26t-49 -77q-1 -6 -1 -18q0 -40 25.5 -64t73.5 -24q46 0 83 22z" />
    <glyph glyph-name="zeta" unicode="&#x3b6;" horiz-adv-x="389" 
d="M448 691q-322 -242 -362 -476q-5 -33 -5 -54q0 -47 17.5 -77t45 -46.5t70.5 -32.5q54 -19 80 -43t26 -60q0 -6 -2 -20q-7 -37 -30 -61.5t-62 -44.5l-25 33q32 20 47 38.5t15 42.5t-20 40t-62 31q-70 24 -113 66.5t-43 127.5q0 29 6 63q21 116 105 235.5t227 227.5h-228
l8 46h311z" />
    <glyph glyph-name="eta" unicode="&#x3b7;" horiz-adv-x="499" 
d="M408 459.5q34 -37.5 34 -108.5q0 -29 -6 -64l-98 -558h-53l97 552q6 32 6 58q0 54 -23 81t-65 27q-54 0 -98 -41.5t-59 -123.5l-56 -316h-53l74 413q3 17 3 29q0 39 -30 39q-11 0 -23 -6v46q17 10 44 10q38 0 52.5 -21.5t10.5 -65.5q28 43 67.5 65t84.5 22q57 0 91 -37.5
z" />
    <glyph glyph-name="theta" unicode="&#x3b8;" horiz-adv-x="503" 
d="M443.5 678.5q39.5 -52.5 39.5 -163.5q0 -78 -17 -172q-35 -203 -100 -295t-164 -92q-157 0 -157 215q0 72 18 172q35 198 101.5 293t162.5 95q77 0 116.5 -52.5zM205.5 605.5q-49.5 -75.5 -80.5 -229.5h291q12 80 12 137q0 168 -104 168q-69 0 -118.5 -75.5zM328 85.5
q49 79.5 80 245.5h-292q-16 -98 -16 -157q0 -168 105 -168q74 0 123 79.5z" />
    <glyph glyph-name="iota" unicode="&#x3b9;" horiz-adv-x="216" 
d="M158 -29q-23 -15 -54 -15q-71 0 -71 76q0 20 4 39l72 416h53l-71 -408q-4 -26 -4 -34q0 -39 34 -39q19 0 37 10v-45z" />
    <glyph glyph-name="kappa" unicode="&#x3ba;" horiz-adv-x="426" 
d="M442 478l-25 -41q-10 10 -24 10q-16 0 -28.5 -10.5t-38.5 -39.5l-96 -113l128 -318h-58l-107 276l-92 -107l-29 -169h-53l92 520h53l-48 -268l174 206q31 37 55 55t53 18q30 0 44 -19z" />
    <glyph glyph-name="lambda" unicode="&#x3bb;" horiz-adv-x="459" 
d="M420 14v-46q-27 -12 -54 -12q-37 0 -50.5 20.5t-18.5 65.5l-44 361l-237 -437h-58l285 514l-20 142q-4 31 -13 44.5t-26 13.5q-25 0 -53 -25l-11 42q40 34 84 34q37 0 51.5 -23.5t20.5 -69.5l69 -568q5 -35 14 -49t29 -14q15 0 32 7z" />
    <glyph glyph-name="uni03BC" unicode="&#x3bc;" horiz-adv-x="494" 
d="M382 74q-3 -16 -3 -30q0 -37 30 -37q12 0 23 5v-45q-19 -11 -44 -11q-62 0 -62 67q0 7 2 23q-28 -44 -66 -67t-81 -23q-76 0 -99 65l-51 -292h-54l134 758h53l-57 -328q-5 -32 -5 -51q0 -50 23 -75.5t65 -25.5q51 0 93.5 38.5t60.5 113.5l58 327h53z" />
    <glyph glyph-name="nu" unicode="&#x3bd;" horiz-adv-x="411" 
d="M406 486q-1 -45 -8 -90q-18 -100 -73 -200t-170 -230h-40l-65 520h59l48 -457q90 115 131 199t55 167q7 39 8 91h55z" />
    <glyph glyph-name="xi" unicode="&#x3be;" horiz-adv-x="379" 
d="M435 686q-120 -6 -186 -51t-78 -114q-2 -16 -2 -22q0 -48 33.5 -76t93.5 -28h71l-9 -47h-55q-95 0 -150.5 -47t-68.5 -121q-3 -18 -3 -33q0 -39 18 -64.5t46.5 -42t73.5 -33.5q53 -21 77 -43t24 -57q0 -6 -2 -22q-7 -38 -31 -63.5t-61 -45.5l-23 33q31 19 45 38.5
t14 45.5q0 23 -17.5 38t-57.5 30q-77 28 -119.5 69.5t-42.5 110.5q0 19 3 40q12 76 58 124.5t115 67.5q-39 14 -63 45.5t-24 75.5q0 15 3 31q10 60 52 98.5t99 57.5h-142l8 46h309z" />
    <glyph glyph-name="omicron" unicode="&#x3bf;" horiz-adv-x="484" 
d="M126 434q63 63 146 63q77 0 121 -52t44 -149q0 -46 -8 -87q-23 -129 -86.5 -191t-145.5 -62q-77 0 -121 52t-44 147q0 37 8 85q23 131 86 194zM87 160q0 -75 31 -114.5t85 -39.5q59 0 106 51t65 158q8 46 8 79q0 75 -30.5 114t-83.5 39q-59 0 -106.5 -51t-67.5 -160
q-7 -39 -7 -76z" />
    <glyph glyph-name="pi" unicode="&#x3c0;" horiz-adv-x="494" 
d="M504 441h-85l-63 -362q-3 -18 -3 -32q0 -40 33 -40q21 0 36 10l1 -46q-28 -15 -59 -15q-68 0 -68 71q0 17 5 44l64 370h-188l-83 -475h-53l84 475h-82l8 46h461z" />
    <glyph glyph-name="rho" unicode="&#x3c1;" horiz-adv-x="508" 
d="M416 447q45 -50 45 -148q0 -37 -8 -88q-24 -131 -83 -193t-143 -62q-53 0 -87 28t-49 77l-58 -334h-54l91 518q22 125 79 188.5t144 63.5q78 0 123 -50zM335 60q44 53 63 157q7 41 7 78q0 77 -31 114.5t-85 37.5q-129 0 -167 -211q-7 -38 -7 -76q0 -72 28.5 -112.5
t83.5 -40.5q64 0 108 53z" />
    <glyph glyph-name="uni03C2" unicode="&#x3c2;" horiz-adv-x="408" 
d="M370 470.5q39 -26.5 48 -78.5l-46 -25q-7 39 -34.5 59.5t-67.5 20.5q-60 0 -108 -53t-67 -160q-6 -36 -6 -64q0 -68 31 -105t85 -57q51 -19 74.5 -42t23.5 -58q0 -7 -2 -21q-13 -69 -93 -111l-24 33q28 17 42 33.5t18 38.5q1 5 1 14q0 22 -14.5 36.5t-51.5 28.5
q-68 26 -107.5 70.5t-39.5 129.5q0 37 7 76q16 90 52.5 148.5t85 85.5t100.5 27q54 0 93 -26.5z" />
    <glyph glyph-name="sigma" unicode="&#x3c3;" horiz-adv-x="509" 
d="M534 487l-7 -47h-155q31 -24 48 -66t17 -99q0 -38 -7 -74q-20 -117 -82 -181t-148 -64q-83 0 -125.5 54t-42.5 145q0 37 8 83q22 124 83.5 186.5t157.5 62.5h253zM381 279q0 74 -31.5 116t-84.5 42q-64 0 -108.5 -51.5t-62.5 -150.5q-7 -38 -7 -75q0 -72 29.5 -113
t85.5 -41q64 0 109.5 51t62.5 149q7 36 7 73z" />
    <glyph glyph-name="tau" unicode="&#x3c4;" horiz-adv-x="396" 
d="M411 440h-161l-64 -361q-3 -16 -3 -31q0 -41 34 -41q20 0 36 10v-46q-27 -15 -59 -15q-68 0 -68 71q0 19 5 44l64 369h-153l8 47h368z" />
    <glyph glyph-name="upsilon" unicode="&#x3c5;" horiz-adv-x="467" 
d="M105 486h53l-53 -303q-7 -38 -7 -70q0 -107 86 -107q64 0 107.5 61t65.5 177q12 65 12 126q0 55 -11 116h57q9 -55 9 -112q0 -64 -12 -130q-27 -148 -85.5 -218t-148.5 -70q-65 0 -99.5 36t-34.5 110q0 36 7 74z" />
    <glyph glyph-name="phi" unicode="&#x3c6;" horiz-adv-x="614" 
d="M372 495q86 -9 139 -68t53 -156q0 -25 -5 -60q-21 -123 -96.5 -187t-185.5 -67l-40 -228h-52l40 230q-86 10 -138.5 67.5t-52.5 152.5q0 30 6 63q20 119 96.5 184.5t183.5 69.5l27 152h52zM90 185q0 -78 39.5 -123.5t104.5 -54.5l77 440q-84 -4 -142 -58.5t-74 -150.5
q-5 -32 -5 -53zM508 268q0 78 -39.5 123.5t-105.5 54.5l-77 -441q85 4 143 58t74 151q5 32 5 54z" />
    <glyph glyph-name="chi" unicode="&#x3c7;" horiz-adv-x="421" 
d="M192 169l194 317h59l-236 -380l102 -377h-58l-81 317l-193 -317h-60l236 381l-102 376h59z" />
    <glyph glyph-name="psi" unicode="&#x3c8;" horiz-adv-x="589" 
d="M542 486q9 -54 9 -105q0 -60 -11 -126q-49 -285 -267 -298l-40 -228h-53l40 228q-84 6 -127 51.5t-43 130.5q0 37 7 75l48 272h53l-47 -265q-7 -38 -7 -72q0 -67 31 -101t94 -41l113 641h53l-113 -641q80 6 130.5 63.5t72.5 183.5q11 68 11 120t-11 112h57z" />
    <glyph glyph-name="omega" unicode="&#x3c9;" horiz-adv-x="637" 
d="M539 487q23 -38 35.5 -88.5t12.5 -108.5q0 -52 -8 -96q-21 -117 -73.5 -177.5t-122.5 -60.5q-44 0 -70.5 28.5t-31.5 77.5q-23 -50 -59 -78t-78 -28q-54 0 -86.5 43t-32.5 122q0 34 8 82q15 84 51.5 157t88.5 127h59q-113 -121 -143 -283q-7 -39 -7 -75q0 -59 20 -91
t56 -32q39 0 70 41t47 130l28 157h53l-33 -183q-3 -25 -3 -46q0 -50 17 -74.5t49 -24.5q46 0 83 49t54 140q8 48 8 89q0 115 -51 203h59z" />
    <glyph glyph-name="iotadieresis" unicode="&#x3ca;" horiz-adv-x="216" 
d="M52.5 605q-12.5 13 -12.5 30q0 18 12 30t29 12t29.5 -12t12.5 -30t-12 -30.5t-30 -12.5q-16 0 -28.5 13zM212.5 605q-12.5 13 -12.5 30q0 18 12 30t29 12q18 0 30 -12t12 -30q0 -17 -12 -30t-29 -13t-29.5 13zM158 -29q-23 -15 -54 -15q-71 0 -71 76q0 20 4 39l72 416h53
l-71 -408q-4 -26 -4 -34q0 -39 34 -39q19 0 37 10v-45z" />
    <glyph glyph-name="upsilondieresis" unicode="&#x3cb;" horiz-adv-x="467" 
d="M187.5 605q-12.5 13 -12.5 30q0 18 12 30t29 12t29.5 -12t12.5 -30t-12 -30.5t-30 -12.5q-16 0 -28.5 13zM347.5 605q-12.5 13 -12.5 30q0 18 12 30t29 12q18 0 30 -12t12 -30q0 -17 -12 -30t-29 -13t-29.5 13zM105 486h53l-53 -303q-7 -38 -7 -70q0 -107 86 -107
q64 0 107.5 61t65.5 177q12 65 12 126q0 55 -11 116h57q9 -55 9 -112q0 -64 -12 -130q-27 -148 -85.5 -218t-148.5 -70q-65 0 -99.5 36t-34.5 110q0 36 7 74z" />
    <glyph glyph-name="omicrontonos" unicode="&#x3cc;" horiz-adv-x="484" 
d="M266 561l74 148h59l-87 -148h-46zM126 434q63 63 146 63q77 0 121 -52t44 -149q0 -46 -8 -87q-23 -129 -86.5 -191t-145.5 -62q-77 0 -121 52t-44 147q0 37 8 85q23 131 86 194zM87 160q0 -75 31 -114.5t85 -39.5q59 0 106 51t65 158q8 46 8 79q0 75 -30.5 114t-83.5 39
q-59 0 -106.5 -51t-67.5 -160q-7 -39 -7 -76z" />
    <glyph glyph-name="upsilontonos" unicode="&#x3cd;" horiz-adv-x="467" 
d="M257 562l73 148h59l-86 -148h-46zM105 486h53l-53 -303q-7 -38 -7 -70q0 -107 86 -107q64 0 107.5 61t65.5 177q12 65 12 126q0 55 -11 116h57q9 -55 9 -112q0 -64 -12 -130q-27 -148 -85.5 -218t-148.5 -70q-65 0 -99.5 36t-34.5 110q0 36 7 74z" />
    <glyph glyph-name="omegatonos" unicode="&#x3ce;" horiz-adv-x="637" 
d="M342 562l74 148h58l-86 -148h-46zM539 487q23 -38 35 -88.5t12 -108.5q0 -52 -8 -96q-21 -117 -73.5 -177.5t-121.5 -60.5q-45 0 -71 28.5t-31 77.5q-24 -51 -60 -78.5t-78 -27.5q-53 0 -85.5 42.5t-32.5 121.5q0 35 8 83q15 84 51 157t88 127h60q-114 -121 -143 -283
q-7 -39 -7 -76q0 -58 20 -90t55 -32q39 0 70 40.5t47 130.5l29 157h52l-32 -183q-4 -36 -4 -48q0 -49 17.5 -73t48.5 -24q47 0 83.5 48.5t53.5 140.5q8 48 8 90q0 117 -51 202h60z" />
    <glyph glyph-name="uni03D1" unicode="&#x3d1;" horiz-adv-x="518" 
d="M525 375l-7 -46h-79q-35 -196 -94 -284.5t-157 -88.5q-81 0 -122 56t-36 147l53 13q-2 -75 24.5 -120.5t85.5 -45.5q71 0 115 77t75 246h-112q-94 0 -142 42.5t-48 117.5q0 26 4 47q16 90 72 145.5t133 55.5q82 0 122.5 -66.5t40.5 -185.5q0 -55 -7 -110h79zM389 375
q10 75 10 123q0 91 -27.5 140.5t-84.5 49.5q-54 0 -94.5 -43.5t-52.5 -115.5q-4 -26 -4 -39q0 -53 33.5 -84t106.5 -31h113z" />
    <glyph glyph-name="uni03D2" unicode="&#x3d2;" horiz-adv-x="507" 
d="M576 698l-9 -51h-9q-65 0 -124.5 -63t-103 -163t-62.5 -208l-44 -247h-58l44 248q9 53 9 106q0 109 -36.5 209t-100.5 169h68q49 -54 81.5 -137.5t35.5 -175.5q28 83 72 154.5t99.5 115t115.5 43.5h22z" />
    <glyph glyph-name="uni03D6" unicode="&#x3d6;" horiz-adv-x="676" 
d="M74 487h617l-8 -46h-105q34 -68 34 -164q0 -45 -7 -87q-20 -115 -74 -174.5t-124 -59.5q-42 0 -67.5 27t-32.5 77q-24 -50 -60 -77t-78 -27q-54 0 -86 42.5t-32 121.5q0 38 7 79q25 141 111 242h-103zM556 274q0 91 -38 167h-289q-91 -105 -114 -241q-7 -38 -7 -73
q0 -58 20 -89.5t56 -31.5q39 0 70 41t47 130l25 141h54l-30 -167q-3 -25 -3 -47q0 -50 17.5 -74t46.5 -24q47 0 84.5 48.5t52.5 137.5q8 45 8 82z" />
    <glyph glyph-name="uni0400" unicode="&#x400;" horiz-adv-x="486" 
d="M268 906h55l37 -132h-38zM155 698h350l-9 -49h-294l-49 -279h265l-9 -50h-266l-53 -305h304l-9 -49h-359z" />
    <glyph glyph-name="uni0401" unicode="&#x401;" horiz-adv-x="486" 
d="M247 820.5q-12 12.5 -12 29.5q0 18 12 30.5t29 12.5t29.5 -12.5t12.5 -30.5q0 -17 -12 -29.5t-30 -12.5q-17 0 -29 12.5zM407 820.5q-12 12.5 -12 29.5q0 18 12 30.5t29 12.5t29.5 -12.5t12.5 -30.5q0 -17 -12 -29.5t-30 -12.5q-17 0 -29 12.5zM155 698h350l-9 -49h-294
l-49 -279h265l-9 -50h-266l-53 -305h304l-9 -49h-359z" />
    <glyph glyph-name="uni0402" unicode="&#x402;" horiz-adv-x="679" 
d="M588.5 377q50.5 -52 50.5 -143q0 -29 -6 -62q-20 -113 -91.5 -167t-172.5 -49l10 51l17 -1q70 0 116.5 43t61.5 129q5 32 5 54q0 68 -33.5 107.5t-95.5 39.5q-72 0 -130 -50.5t-75 -141.5l-39 -221h-55l120 682h-188l9 50h431l-9 -50h-187l-56 -314q34 45 82.5 70
t102.5 25q82 0 132.5 -52z" />
    <glyph glyph-name="uni0403" unicode="&#x403;" horiz-adv-x="443" 
d="M328 774l84 148h58l-99 -148h-43zM81 -34h-55l129 732h350l-9 -50h-294z" />
    <glyph glyph-name="uni0404" unicode="&#x404;" horiz-adv-x="532" 
d="M223.5 585.5q-64.5 -72.5 -93.5 -221.5h257l-8 -50h-257q-5 -35 -5 -80q0 -109 43 -168t121 -59q53 0 95.5 28.5t69.5 85.5l41 -27q-70 -138 -211 -138q-102 0 -160.5 69.5t-58.5 201.5q0 57 12 126q32 182 115 269t194 87q81 0 126.5 -44.5t48.5 -119.5l-48 -27
q-2 62 -37.5 101t-97.5 39q-82 0 -146.5 -72.5z" />
    <glyph glyph-name="uni0405" unicode="&#x405;" horiz-adv-x="461" 
d="M344 2q-53 -46 -135 -46q-58 0 -104 22.5t-73.5 63t-30.5 92.5l48 25q6 -69 51.5 -110.5t110.5 -41.5q69 0 106 46q26 30 33 76q3 17 3 31q0 37 -17 66.5t-41.5 50.5t-66.5 50q-45 31 -71.5 54t-45 56t-18.5 77q0 11 4 39q14 77 72 119q53 37 126 37q76 0 121.5 -42
t47.5 -107l-47 -24q-6 55 -37 88.5t-89 33.5q-55 0 -91 -30q-46 -37 -46 -107q0 -34 15.5 -60t38.5 -44.5t63 -46.5q47 -32 74.5 -56t47 -60t19.5 -84q0 -25 -4 -46q-15 -79 -64 -122z" />
    <glyph glyph-name="uni0406" unicode="&#x406;" horiz-adv-x="215" 
d="M81 -34h-55l129 732h55z" />
    <glyph glyph-name="uni0407" unicode="&#x407;" horiz-adv-x="215" 
d="M100.5 821q-12.5 13 -12.5 30q0 18 12 30t29 12t29.5 -12t12.5 -30t-12 -30.5t-30 -12.5q-16 0 -28.5 13zM260.5 821q-12.5 13 -12.5 30q0 18 12 30t29 12q18 0 30 -12t12 -30q0 -17 -12 -30t-29 -13t-29.5 13zM81 -34h-55l129 732h55z" />
    <glyph glyph-name="uni0408" unicode="&#x408;" horiz-adv-x="378" 
d="M25 -14q-34 30 -41 90l50 28q5 -50 25.5 -73.5t57.5 -23.5q47 0 74 37.5t41 112.5l95 541h56l-96 -547q-18 -97 -56.5 -146t-113.5 -49q-58 0 -92 30z" />
    <glyph glyph-name="uni0409" unicode="&#x409;" horiz-adv-x="928" 
d="M685 378q96 0 145.5 -49.5t49.5 -128.5q0 -26 -4 -47q-16 -91 -77.5 -139t-162.5 -48h-210l120 682h-286l-98 -465q-17 -79 -37 -126t-58.5 -74t-104.5 -27l10 52q43 0 67.5 20t39 57t28.5 104l107 509h396l-57 -320h132zM633 16q78 0 125.5 37.5t59.5 105.5q3 18 3 36
q0 59 -36 96t-109 37h-131l-55 -312h143z" />
    <glyph glyph-name="uni040A" unicode="&#x40a;" horiz-adv-x="928" 
d="M685 374q96 0 145.5 -48.5t49.5 -127.5q0 -26 -4 -47q-16 -91 -77.5 -138t-161.5 -47h-212l63 358h-343l-63 -358h-56l129 732h56l-57 -324h343l57 324h56l-57 -324h132zM633 16q79 0 126 36.5t59 104.5q3 20 3 37q0 58 -36 94t-109 36h-132l-54 -308h143z" />
    <glyph glyph-name="uni040B" unicode="&#x40b;" horiz-adv-x="670" 
d="M572.5 385.5q44.5 -43.5 44.5 -133.5q0 -38 -7 -77l-37 -209h-55l36 208q7 44 7 68q0 66 -30 101.5t-88 35.5q-66 0 -120.5 -44.5t-74.5 -133.5l-42 -235h-55l120 682h-188l9 50h431l-9 -50h-187l-55 -311q32 43 78 67.5t102 24.5q76 0 120.5 -43.5z" />
    <glyph glyph-name="uni040C" unicode="&#x40c;" horiz-adv-x="534" 
d="M362 774l83 132h58l-97 -132h-44zM242 362l273 336h69l-293 -360l174 -372h-66l-160 346h-97l-61 -346h-55l129 732h55l-59 -336h91z" />
    <glyph glyph-name="uni040D" unicode="&#x40d;" horiz-adv-x="616" 
d="M328 921h57l33 -147h-38zM565 699h47l-129 -732h-54l109 616l-463 -616h-48l129 732h54l-109 -617z" />
    <glyph glyph-name="uni040E" unicode="&#x40e;" horiz-adv-x="510" 
d="M279 801.5q-25 27.5 -25 73.5q0 15 3 31h47q-2 -16 -2 -23q0 -31 13.5 -49t38.5 -18q59 0 79 90h49q-10 -61 -44 -96.5t-90 -35.5q-44 0 -69 27.5zM257 246l249 453h64l-299 -529q-46 -82 -77.5 -126t-64.5 -66t-76 -22q-45 0 -66 24l9 53q25 -24 61 -24q26 0 47.5 14
t47.5 49t66 103l-127 524h63z" />
    <glyph glyph-name="uni040F" unicode="&#x40f;" horiz-adv-x="609" 
d="M93 17h335l120 681h57l-129 -732h-197l-34 -172h-49l27 172h-197l129 732h58z" />
    <glyph glyph-name="uni0410" unicode="&#x410;" horiz-adv-x="566" 
d="M380 699l117 -733h-60l-34 227h-267l-112 -227h-63l372 733h47zM396 244l-54 370l-182 -370h236z" />
    <glyph glyph-name="uni0411" unicode="&#x411;" horiz-adv-x="537" 
d="M518 698l-10 -50h-306l-48 -270h128q100 0 150 -47.5t50 -126.5q0 -27 -4 -48q-17 -92 -79 -141t-164 -49h-209l129 732h363zM145 329l-55 -313h145q80 0 126.5 38.5t58.5 107.5q4 26 4 38q0 58 -37 93.5t-114 35.5h-128z" />
    <glyph glyph-name="uni0412" unicode="&#x412;" horiz-adv-x="529" 
d="M449 401q-30 -38 -78 -55q50 -17 76 -56t26 -95q0 -26 -4 -47q-32 -182 -237 -182h-206l129 732h164q83 0 128.5 -45t45.5 -117q0 -22 -4 -41q-10 -56 -40 -94zM267 366q68 0 110.5 35t53.5 98q3 17 3 32q0 53 -33 85.5t-94 32.5h-105l-50 -283h115zM414 190
q0 58 -35 93.5t-100 35.5h-136l-53 -304h139q81 0 125.5 34.5t55.5 101.5q4 26 4 39z" />
    <glyph glyph-name="uni0413" unicode="&#x413;" horiz-adv-x="443" 
d="M81 -34h-55l129 732h350l-9 -50h-294z" />
    <glyph glyph-name="uni0414" unicode="&#x414;" horiz-adv-x="633" 
d="M488 17h69l-45 -223h-49l27 172h-473l-35 -172h-48l34 223h28q60 0 98 71t71 215l92 395h352zM430 17l112 630h-240l-81 -350q-25 -107 -53.5 -177t-70.5 -103h333z" />
    <glyph glyph-name="uni0415" unicode="&#x415;" horiz-adv-x="486" 
d="M155 698h350l-9 -49h-294l-49 -279h265l-9 -50h-266l-53 -305h304l-9 -49h-359z" />
    <glyph glyph-name="uni0416" unicode="&#x416;" horiz-adv-x="839" 
d="M552 362l262 336h68l-279 -361l160 -371h-68l-145 345h-96l-61 -345h-58l61 345h-89l-268 -345h-73l291 376l-152 356h66l143 -336h91l59 336h58l-59 -336h89z" />
    <glyph glyph-name="uni0417" unicode="&#x417;" horiz-adv-x="475" 
d="M403 407.5q-33 -40.5 -82 -55.5q47 -19 72 -60.5t25 -98.5q0 -25 -4 -48q-16 -89 -74.5 -139t-147.5 -50q-81 0 -132 43t-58 124l48 26q4 -68 44 -105t102 -37q64 0 105.5 38.5t53.5 106.5q4 28 4 40q0 62 -37 98.5t-105 36.5h-34l9 51h48q58 0 97.5 36t50.5 96
q3 17 3 33q0 50 -27 82.5t-81 32.5q-48 0 -89 -28.5t-68 -90.5l-43 26q33 75 87 109.5t120 34.5q78 0 119 -45.5t41 -115.5q0 -15 -4 -43q-10 -57 -43 -97.5z" />
    <glyph glyph-name="uni0418" unicode="&#x418;" horiz-adv-x="616" 
d="M564 699h48l-129 -732h-55l109 616l-463 -616h-48l129 732h55l-109 -617z" />
    <glyph glyph-name="uni0419" unicode="&#x419;" horiz-adv-x="616" 
d="M330 801.5q-25 27.5 -25 73.5q0 15 3 31h47q-2 -16 -2 -23q0 -31 13.5 -49t38.5 -18q60 0 78 90h50q-10 -61 -44 -96.5t-90 -35.5q-44 0 -69 27.5zM565 699h47l-129 -732h-54l109 616l-463 -616h-48l129 732h54l-109 -617z" />
    <glyph glyph-name="uni041A" unicode="&#x41a;" horiz-adv-x="534" 
d="M242 362l273 336h69l-293 -360l174 -372h-66l-160 346h-97l-61 -346h-55l129 732h55l-59 -336h91z" />
    <glyph glyph-name="uni041B" unicode="&#x41b;" horiz-adv-x="615" 
d="M611 698l-129 -732h-56l120 682h-286l-98 -465q-17 -79 -37 -126t-58.5 -74t-104.5 -27l10 52q43 0 67.5 20t39 57t28.5 104l107 509h397z" />
    <glyph glyph-name="uni041C" unicode="&#x41c;" horiz-adv-x="711" 
d="M661 698h46l-129 -732h-55l107 601l-272 -385h-32l-139 396l-108 -612h-53l129 732h47l151 -445z" />
    <glyph glyph-name="uni041D" unicode="&#x41d;" horiz-adv-x="611" 
d="M153 372h341l58 326h55l-129 -732h-55l62 355h-341l-63 -355h-55l129 732h55z" />
    <glyph glyph-name="uni041E" unicode="&#x41e;" horiz-adv-x="623" 
d="M181.5 621q80.5 88 192.5 88q101 0 158 -70t57 -200q0 -58 -12 -127q-33 -184 -113 -270t-192 -86q-102 0 -158.5 68t-56.5 198q0 59 12 129q32 182 112.5 270zM116 228q0 -107 42 -164t120 -57q87 0 150 75t90 230q11 61 11 121q0 108 -41.5 166.5t-119.5 58.5
q-87 0 -150 -76t-90 -231q-12 -67 -12 -123z" />
    <glyph glyph-name="uni041F" unicode="&#x41f;" horiz-adv-x="611" 
d="M155 698h452l-130 -732h-56l121 682h-340l-121 -682h-55z" />
    <glyph glyph-name="uni0420" unicode="&#x420;" horiz-adv-x="486" 
d="M314 698q86 0 134.5 -49t48.5 -131q0 -21 -5 -51q-17 -94 -80 -148t-161 -54h-117l-53 -299h-55l129 732h159zM438 514q0 62 -36 98.5t-100 36.5h-100l-59 -335h109q75 0 122 42t60 116q4 20 4 42z" />
    <glyph glyph-name="uni0421" unicode="&#x421;" horiz-adv-x="532" 
d="M221 582.5q-66 -75.5 -93 -229.5q-11 -59 -11 -118q0 -109 43.5 -168.5t121.5 -59.5q53 0 95 28.5t70 85.5l40 -27q-70 -138 -210 -138q-103 0 -161.5 69.5t-58.5 201.5q0 57 12 126q32 182 115 269t194 87q80 0 126 -44.5t51 -118.5l-46 -24q-4 61 -39 98.5t-98 37.5
q-85 0 -151 -75.5z" />
    <glyph glyph-name="uni0422" unicode="&#x422;" horiz-adv-x="464" 
d="M92 698h431l-8 -49h-189l-120 -683h-55l120 683h-188z" />
    <glyph glyph-name="uni0423" unicode="&#x423;" horiz-adv-x="510" 
d="M257 246l249 453h64l-299 -529q-46 -82 -78 -126t-65 -66t-75 -22q-44 0 -67 24l9 53q25 -24 61 -24q26 0 48 14t47.5 49t65.5 103l-127 524h64z" />
    <glyph glyph-name="uni0424" unicode="&#x424;" horiz-adv-x="670" 
d="M424 617q96 -12 157.5 -75t61.5 -167q0 -24 -5 -59q-19 -122 -104 -193.5t-211 -76.5l-14 -80h-55l14 82q-62 8 -112 38t-79 82t-29 122q0 28 6 61q22 123 105 193.5t210 74.5l14 79h55zM108 295q0 -84 47 -134.5t122 -61.5l83 470q-99 -5 -164.5 -63t-82.5 -159
q-5 -30 -5 -52zM582 372q0 86 -46 135.5t-121 59.5l-83 -470q102 4 165.5 61.5t79.5 157.5q5 33 5 56z" />
    <glyph glyph-name="uni0425" unicode="&#x425;" horiz-adv-x="543" 
d="M292 390l236 308h68l-282 -363l159 -369h-65l-134 321l-246 -321h-66l289 375l-153 357h64z" />
    <glyph glyph-name="uni0426" unicode="&#x426;" horiz-adv-x="637" 
d="M428 17l120 681h57l-120 -681h68l-45 -223h-49l27 172h-460l129 732h58l-120 -681h335z" />
    <glyph glyph-name="uni0427" unicode="&#x427;" horiz-adv-x="548" 
d="M488 698h56l-129 -732h-56l59 331q-61 -74 -171 -74q-80 0 -128 39.5t-48 122.5q0 33 5 59l44 254h56l-44 -251q-4 -24 -4 -50q0 -124 126 -124q68 0 119 37.5t67 115.5z" />
    <glyph glyph-name="uni0428" unicode="&#x428;" horiz-adv-x="848" 
d="M407 17h260l121 681h56l-130 -732h-688l130 732h55l-121 -681h261l120 681h56z" />
    <glyph glyph-name="uni0429" unicode="&#x429;" horiz-adv-x="873" 
d="M845 698l-121 -681h65l-45 -223h-49l28 172h-697l129 732h58l-120 -681h257l120 681h59l-120 -681h257l120 681h59z" />
    <glyph glyph-name="uni042A" unicode="&#x42a;" horiz-adv-x="640" 
d="M397 378q96 0 145.5 -49.5t49.5 -128.5q0 -26 -4 -47q-16 -91 -77.5 -139t-161.5 -48h-214l121 682h-177l10 51h234l-57 -321h131zM345 16q79 0 125 37.5t58 105.5q3 20 3 37q0 59 -35.5 96t-107.5 37h-131l-55 -313h143z" />
    <glyph glyph-name="uni042B" unicode="&#x42b;" horiz-adv-x="730" 
d="M285 378q96 0 145.5 -49.5t49.5 -128.5q0 -26 -4 -47q-16 -91 -77.5 -139t-161.5 -48h-211l129 732h55l-56 -320h131zM597 -34h-56l129 732h56zM145 328l-55 -312h143q79 0 126 37.5t59 105.5q3 20 3 37q0 59 -36 95.5t-109 36.5h-131z" />
    <glyph glyph-name="uni042C" unicode="&#x42c;" horiz-adv-x="528" 
d="M285 378q96 0 145.5 -49.5t49.5 -128.5q0 -26 -4 -47q-16 -91 -77.5 -139t-161.5 -48h-211l129 732h55l-56 -320h131zM233 16q79 0 126 37.5t59 105.5q3 20 3 37q0 59 -36 95.5t-109 36.5h-131l-55 -312h143z" />
    <glyph glyph-name="uni042D" unicode="&#x42d;" horiz-adv-x="528" 
d="M437 641q56 -68 56 -198q0 -59 -12 -131q-32 -183 -110.5 -269.5t-188.5 -86.5q-82 0 -134.5 46t-57.5 121l49 27q4 -63 44 -103t103 -40q84 0 146.5 75.5t89.5 231.5h-256l9 50h255q4 33 4 70q0 108 -41.5 166t-118.5 58q-53 0 -95 -28t-70 -83l-40 27q34 67 87.5 101
t122.5 34q102 0 158 -68z" />
    <glyph glyph-name="uni042E" unicode="&#x42e;" horiz-adv-x="785" 
d="M701 642q51 -67 51 -192q0 -61 -14 -140q-32 -183 -108 -268.5t-179 -85.5q-94 0 -145 66.5t-51 191.5q0 55 8 107h-119l-63 -355h-55l129 732h55l-57 -326h118q33 175 108 256t176 81q95 0 146 -67zM694 447q0 102 -37 156t-106 54q-79 0 -138.5 -75t-87.5 -232
q-13 -80 -13 -133q0 -101 36.5 -155t105.5 -54q80 0 140 76t87 233q13 78 13 130z" />
    <glyph glyph-name="uni042F" unicode="&#x42f;" horiz-adv-x="514" 
d="M510 698l-129 -732h-56l55 316h-100q-16 0 -24 1l-235 -317h-71l249 331q-50 18 -76.5 59t-26.5 99q0 25 4 48q17 93 81.5 144t157.5 51h171zM389 332l56 316h-105q-73 0 -121 -40t-61 -111q-3 -19 -3 -37q0 -59 34.5 -93.5t97.5 -34.5h102z" />
    <glyph glyph-name="uni0430" unicode="&#x430;" horiz-adv-x="507" 
d="M472 487l-92 -521h-47l7 46q6 30 9 57q-30 -57 -72.5 -85t-90.5 -28q-69 0 -111.5 52.5t-42.5 148.5q0 36 8 84q23 130 86 193t143 63q53 0 88 -31.5t44 -94.5q11 41 24 116h47zM306.5 59.5q45.5 53.5 66.5 165.5q7 39 7 74q0 76 -32 112t-81 36q-60 0 -107 -51.5
t-66 -158.5q-7 -39 -7 -77q0 -74 30 -114t81 -40q63 0 108.5 53.5z" />
    <glyph glyph-name="uni0431" unicode="&#x431;" horiz-adv-x="492" 
d="M167 527.5q-25 -60.5 -43 -143.5q28 55 71 84t94 29q70 0 112.5 -52t42.5 -148q0 -44 -8 -87q-23 -134 -85.5 -194t-144.5 -60q-77 0 -121.5 52t-44.5 169q0 63 15 150q41 237 142 333q43 41 89 52t108 11q37 0 58.5 2.5t38.5 12.5l-10 -51q-15 -9 -35 -11.5t-53 -2.5
q-56 -1 -93 -9.5t-71 -40.5q-37 -35 -62 -95.5zM166.5 391q-48.5 -55 -65.5 -156q-7 -36 -7 -73q0 -72 30 -114t85 -42q61 0 105.5 51.5t63.5 156.5q8 46 8 80q0 73 -29 112.5t-80 39.5q-62 0 -110.5 -55z" />
    <glyph glyph-name="uni0432" unicode="&#x432;" horiz-adv-x="441" 
d="M359.5 270q-22.5 -26 -58.5 -37q36 -13 55 -40.5t19 -66.5q0 -15 -3 -30q-12 -65 -56.5 -97.5t-117.5 -32.5h-179l92 521h145q67 0 101.5 -33.5t34.5 -86.5q0 -14 -3 -31q-7 -40 -29.5 -66zM155 442l-33 -187h106q46 0 72.5 23t33.5 63q2 16 2 22q0 35 -21 57t-66 22h-94
zM195 11q104 0 121 93q2 16 2 24q0 38 -23 60t-71 22h-110l-35 -199h116z" />
    <glyph glyph-name="uni0433" unicode="&#x433;" horiz-adv-x="358" 
d="M111 487h275l-7 -46h-223l-84 -475h-53z" />
    <glyph glyph-name="uni0434" unicode="&#x434;" horiz-adv-x="507" 
d="M448 487l-83 -475h66l-43 -218h-48l26 172h-345l-35 -172h-48l33 218h29q38 0 62.5 31.5t40.5 83t39 154.5l47 206h259zM194 270q-24 -107 -45 -168t-51 -90h214l75 429h-154z" />
    <glyph glyph-name="uni0435" unicode="&#x435;" horiz-adv-x="418" 
d="M331 93l38 -28q-27 -54 -72.5 -81.5t-99.5 -27.5q-78 0 -124 53.5t-46 150.5q0 36 8 82q15 87 51 144t84.5 84t100.5 27q62 0 96.5 -35.5t34.5 -94.5q0 -76 -56.5 -113.5t-175.5 -37.5q-24 0 -82 4q-4 -27 -4 -56q0 -78 31.5 -117.5t87.5 -39.5q82 0 128 86zM161.5 404
q-45.5 -43 -65.5 -137q53 -5 87 -5q83 0 123 25t40 77q0 39 -20.5 61t-62.5 22q-56 0 -101.5 -43z" />
    <glyph glyph-name="uni0436" unicode="&#x436;" horiz-adv-x="579" 
d="M364 250l187 237h61l-203 -257l115 -264h-61l-102 238h-57l-42 -238h-53l42 238h-50l-188 -238h-64l208 263l-112 258h58l103 -237h54l41 237h53l-41 -237h51z" />
    <glyph glyph-name="uni0437" unicode="&#x437;" horiz-adv-x="382" 
d="M319.5 288q-31.5 -36 -85.5 -48q40 -10 64 -39.5t24 -72.5q0 -13 -3 -30q-11 -65 -61.5 -103.5t-125.5 -38.5q-65 0 -106.5 30t-52.5 90l46 25q21 -94 116 -94q58 0 94 31.5t36 88.5q0 41 -28.5 65t-79.5 24h-40l8 46h37q54 0 88 24t42 66q2 12 2 18q0 35 -24.5 55.5
t-65.5 20.5q-79 0 -121 -74l-39 24q25 47 70 74t100 27q63 0 100 -32.5t37 -84.5q0 -56 -31.5 -92z" />
    <glyph glyph-name="uni0438" unicode="&#x438;" horiz-adv-x="494" 
d="M164 487l-72 -408l325 408h42l-92 -521h-52l72 409l-325 -409h-43l92 521h53z" />
    <glyph glyph-name="uni0439" unicode="&#x439;" horiz-adv-x="494" 
d="M235 592q-24 28 -24 76q0 19 3 38h46q-3 -16 -3 -32q0 -32 13 -49.5t37 -17.5q58 0 81 99h49q-11 -67 -46.5 -104.5t-89.5 -37.5q-42 0 -66 28zM164 487l-72 -408l325 408h42l-92 -521h-52l72 409l-325 -409h-43l92 521h53z" />
    <glyph glyph-name="uni043A" unicode="&#x43a;" horiz-adv-x="433" 
d="M196 250l203 236h62l-221 -256l133 -264h-60l-120 238h-79l-42 -238h-53l92 521h53l-42 -237h74z" />
    <glyph glyph-name="uni043B" unicode="&#x43b;" horiz-adv-x="471" 
d="M436 487l-92 -521h-53l83 475h-183l-63 -294q-13 -62 -30.5 -102.5t-51 -64.5t-89.5 -24l9 52q49 0 71 34t38 110l70 335h291z" />
    <glyph glyph-name="uni043C" unicode="&#x43c;" horiz-adv-x="587" 
d="M504 487h48l-92 -521h-52l72 404l-201 -303h-35l-101 309l-72 -410h-52l92 521h49l113 -350z" />
    <glyph glyph-name="uni043D" unicode="&#x43d;" horiz-adv-x="490" 
d="M123 252h238l41 235h53l-92 -521h-53l42 240h-237l-43 -240h-53l92 521h53z" />
    <glyph glyph-name="uni043E" unicode="&#x43e;" horiz-adv-x="484" 
d="M126 434q63 63 146 63q77 0 121 -52t44 -149q0 -46 -8 -87q-23 -129 -86.5 -191t-145.5 -62q-77 0 -121 52t-44 147q0 37 8 85q23 131 86 194zM87 160q0 -75 31 -114.5t85 -39.5q59 0 106 51t65 158q8 46 8 79q0 75 -30.5 114t-83.5 39q-59 0 -106.5 -51t-67.5 -160
q-7 -39 -7 -76z" />
    <glyph glyph-name="uni043F" unicode="&#x43f;" horiz-adv-x="490" 
d="M111 487h344l-92 -521h-53l84 475h-238l-84 -475h-53z" />
    <glyph glyph-name="uni0440" unicode="&#x440;" horiz-adv-x="507" 
d="M417.5 444.5q42.5 -52.5 42.5 -148.5q0 -36 -8 -84q-23 -130 -86 -193t-143 -63q-51 0 -86 30t-45 90l-61 -348h-54l134 758h47q-10 -59 -15 -102q29 57 72 85t91 28q69 0 111.5 -52.5zM332 57.5q47 51.5 66 159.5q7 39 7 77q0 74 -30 113.5t-81 39.5q-57 0 -105.5 -49
t-68.5 -165q-8 -48 -8 -79q0 -76 32 -112t81 -36q60 0 107 51.5z" />
    <glyph glyph-name="uni0441" unicode="&#x441;" horiz-adv-x="405" 
d="M269.5 23q30.5 17 50.5 54l38 -25q-26 -50 -68 -73t-90 -23q-76 0 -121.5 53.5t-45.5 150.5q0 40 7 81q27 153 117 218q51 38 113 38q56 0 92 -31.5t43 -87.5l-44 -24q-7 45 -31 69t-64 24q-57 0 -104.5 -51t-67.5 -160q-7 -36 -7 -72q0 -77 32.5 -117.5t86.5 -40.5
q33 0 63.5 17z" />
    <glyph glyph-name="uni0442" unicode="&#x442;" horiz-adv-x="393" 
d="M41 441l7 46h373l-8 -46h-159l-85 -475h-53l84 475h-159z" />
    <glyph glyph-name="uni0443" unicode="&#x443;" horiz-adv-x="425" 
d="M174 32l219 454h59l-319 -635q-35 -69 -68 -100.5t-85 -31.5q-28 0 -48 8.5t-30 22.5l28 43q21 -24 54 -24q31 0 53.5 21.5t49.5 74.5l49 94l-89 527h57z" />
    <glyph glyph-name="uni0444" unicode="&#x444;" horiz-adv-x="613" 
d="M372 495q86 -9 138.5 -67.5t52.5 -155.5q0 -33 -5 -61q-20 -123 -95.5 -187t-185.5 -67l-40 -228h-53l41 230q-86 10 -138.5 67.5t-52.5 152.5q0 30 6 63q20 118 96 184t183 70l27 152h53zM90 186q0 -78 39 -124t104 -55l78 440q-84 -4 -142.5 -58.5t-74.5 -150.5
q-4 -24 -4 -52zM507 269q0 77 -39.5 122.5t-104.5 54.5l-77 -441q85 4 142.5 58t73.5 151q5 33 5 55z" />
    <glyph glyph-name="uni0445" unicode="&#x445;" horiz-adv-x="407" 
d="M205 272l164 214h62l-206 -261l114 -259h-61l-90 216l-165 -216h-62l207 263l-115 257h61z" />
    <glyph glyph-name="uni0446" unicode="&#x446;" horiz-adv-x="517" 
d="M455 487l-84 -475h66l-44 -218h-47l27 172h-354l92 521h53l-84 -475h238l84 475h53z" />
    <glyph glyph-name="uni0447" unicode="&#x447;" horiz-adv-x="465" 
d="M377 487h53l-92 -521h-53l39 225q-46 -54 -128 -54q-63 0 -101 31.5t-38 97.5q0 23 4 46l31 175h53l-30 -172q-4 -19 -4 -38q0 -46 25.5 -68t69.5 -22q52 0 89.5 30t49.5 88z" />
    <glyph glyph-name="uni0448" unicode="&#x448;" horiz-adv-x="670" 
d="M316 12h183l84 475h52l-92 -521h-524l92 521h53l-84 -475h184l83 475h52z" />
    <glyph glyph-name="uni0449" unicode="&#x449;" horiz-adv-x="697" 
d="M635 487l-83 -475h65l-44 -218h-46l27 172h-535l92 521h53l-84 -475h184l83 475h52l-83 -475h183l84 475h52z" />
    <glyph glyph-name="uni044A" unicode="&#x44a;" horiz-adv-x="510" 
d="M299 279q79 0 118 -38.5t39 -98.5q0 -17 -3 -34q-12 -68 -60.5 -105t-126.5 -37h-161l84 475h-141l8 46h194l-37 -208h86zM266 12q112 0 131 105q2 10 2 27q0 44 -28 66.5t-82 22.5h-84l-39 -221h100z" />
    <glyph glyph-name="uni044B" unicode="&#x44b;" horiz-adv-x="606" 
d="M213 279q79 0 118 -38t39 -98q0 -17 -3 -35q-12 -68 -60 -105t-126 -37h-162l92 521h53l-36 -208h85zM479 -34h-53l92 521h53zM180 12q113 0 131 105q3 15 3 28q0 43 -28.5 65.5t-82.5 22.5h-84l-39 -221h100z" />
    <glyph glyph-name="uni044C" unicode="&#x44c;" horiz-adv-x="424" 
d="M213 279q79 0 118 -38t39 -98q0 -17 -3 -35q-12 -68 -60 -105t-126 -37h-162l92 521h53l-36 -208h85zM180 12q113 0 131 105q3 15 3 28q0 43 -28.5 65.5t-82.5 22.5h-84l-39 -221h100z" />
    <glyph glyph-name="uni044D" unicode="&#x44d;" horiz-adv-x="401" 
d="M306 442.5q47 -54.5 47 -152.5q0 -38 -7 -77q-23 -131 -83 -194t-140 -63q-59 0 -99 32t-47 87l45 25q7 -45 34.5 -69.5t69.5 -24.5q56 0 100 47.5t64 150.5h-180l8 45h179q2 28 2 39q0 76 -32.5 117.5t-86.5 41.5q-32 0 -61 -16.5t-49 -53.5l-38 24q26 49 66.5 72.5
t86.5 23.5q74 0 121 -54.5z" />
    <glyph glyph-name="uni044E" unicode="&#x44e;" horiz-adv-x="641" 
d="M553 445q42 -52 42 -147q0 -40 -9 -90q-23 -129 -84 -190.5t-138 -61.5q-73 0 -114 52t-41 147q0 25 3 53h-97l-43 -242h-53l92 521h53l-41 -233h96q24 125 83.5 184t135.5 59q73 0 115 -52zM540 296q0 73 -28.5 112t-78.5 39q-55 0 -99 -50t-63 -157q-8 -48 -8 -82
q0 -74 28.5 -113.5t77.5 -39.5q55 0 100 51t63 159q8 48 8 81z" />
    <glyph glyph-name="uni044F" unicode="&#x44f;" horiz-adv-x="434" 
d="M399 487l-92 -521h-52l39 224h-80q-6 0 -9 1l-178 -225h-65l189 235q-40 14 -61.5 45t-21.5 73q0 16 3 32q12 66 59 101t117 35h152zM303 236l36 206h-96q-45 0 -77.5 -25t-40.5 -72q-2 -16 -2 -23q0 -39 24.5 -62.5t68.5 -23.5h87z" />
    <glyph glyph-name="uni0450" unicode="&#x450;" horiz-adv-x="418" 
d="M192 709h56l34 -148h-38zM331 93l38 -28q-27 -54 -72.5 -81.5t-99.5 -27.5q-78 0 -124 53.5t-46 150.5q0 36 8 82q15 87 51 144t84.5 84t100.5 27q62 0 96.5 -35.5t34.5 -94.5q0 -76 -56.5 -113.5t-175.5 -37.5q-24 0 -82 4q-4 -27 -4 -56q0 -78 31.5 -117.5t87.5 -39.5
q82 0 128 86zM161.5 404q-45.5 -43 -65.5 -137q53 -5 87 -5q83 0 123 25t40 77q0 39 -20.5 61t-62.5 22q-56 0 -101.5 -43z" />
    <glyph glyph-name="uni0451" unicode="&#x451;" horiz-adv-x="418" 
d="M163.5 604.5q-12.5 12.5 -12.5 30.5q0 17 12.5 29.5t29.5 12.5t29.5 -12.5t12.5 -29.5q0 -18 -12 -30.5t-30 -12.5q-17 0 -29.5 12.5zM324 604.5q-12 12.5 -12 30.5q0 17 12 29.5t29 12.5t29.5 -12.5t12.5 -29.5q0 -18 -12 -30.5t-30 -12.5q-17 0 -29 12.5zM331 93
l38 -28q-27 -54 -72.5 -81.5t-99.5 -27.5q-78 0 -124 53.5t-46 150.5q0 36 8 82q15 87 51 144t84.5 84t100.5 27q62 0 96.5 -35.5t34.5 -94.5q0 -76 -56.5 -113.5t-175.5 -37.5q-24 0 -82 4q-4 -27 -4 -56q0 -78 31.5 -117.5t87.5 -39.5q82 0 128 86zM161.5 404
q-45.5 -43 -65.5 -137q53 -5 87 -5q83 0 123 25t40 77q0 39 -20.5 61t-62.5 22q-56 0 -101.5 -43z" />
    <glyph glyph-name="uni0452" unicode="&#x452;" horiz-adv-x="492" 
d="M402 459.5q34 -37.5 34 -109.5q0 -28 -6 -63l-74 -418q-14 -79 -46.5 -114.5t-82.5 -35.5q-45 0 -71 26l30 43q19 -19 45 -19q27 0 44.5 23t27.5 80l73 409q5 26 5 57q0 54 -22.5 81.5t-65.5 27.5q-53 0 -96.5 -41t-58.5 -120l-57 -320h-53l109 612h-66l8 47h67l17 102
h53l-18 -102h125l-8 -47h-126l-30 -168q28 42 68 64.5t84 22.5q57 0 91 -37.5z" />
    <glyph glyph-name="uni0453" unicode="&#x453;" horiz-adv-x="358" 
d="M246 561l84 148h58l-99 -148h-43zM111 487h275l-7 -46h-223l-84 -475h-53z" />
    <glyph glyph-name="uni0454" unicode="&#x454;" horiz-adv-x="405" 
d="M269.5 23q30.5 17 50.5 54l38 -25q-26 -50 -68 -73t-90 -23q-76 0 -121.5 53.5t-45.5 150.5q0 40 7 81q15 87 51 144.5t83.5 84.5t98.5 27q55 0 90 -31.5t42 -87.5l-45 -25q-14 94 -92 94q-55 0 -102 -46t-68 -143h179l-8 -45h-180q-3 -25 -3 -48q0 -77 33 -118t87 -41
q33 0 63.5 17z" />
    <glyph glyph-name="uni0455" unicode="&#x455;" horiz-adv-x="378" 
d="M262 -8q-43 -36 -109 -36q-64 0 -106 34t-46 97l44 24q4 -54 35 -80t76 -26q41 0 68.5 21t34.5 61q2 16 2 21q0 37 -23 59.5t-69 50.5q-34 21 -54.5 37t-34.5 39.5t-14 56.5q0 73 53 114q41 32 105 32q59 0 95.5 -32t40.5 -86l-45 -23q-3 42 -28 67t-67 25
q-36 0 -63 -18.5t-33 -54.5q-2 -12 -2 -17q0 -33 22 -54.5t67 -47.5q35 -21 56.5 -37.5t36.5 -42t15 -59.5q0 -13 -3 -30q-10 -62 -54 -95z" />
    <glyph glyph-name="uni0456" unicode="&#x456;" horiz-adv-x="197" 
d="M136 613.5q-12 12.5 -12 29.5t12 29t29 12t28.5 -12t11.5 -29t-11.5 -29.5t-28.5 -12.5t-29 12.5zM71 -34h-53l92 520h53z" />
    <glyph glyph-name="uni0457" unicode="&#x457;" horiz-adv-x="209" 
d="M80.5 610q-12.5 13 -12.5 29q0 17 12 29.5t29 12.5t29 -12.5t12 -29.5t-12 -29.5t-29 -12.5q-16 0 -28.5 13zM201.5 609.5q-12.5 12.5 -12.5 29.5t12 29.5t29 12.5t29 -12.5t12 -29.5t-12 -29.5t-29 -12.5q-16 0 -28.5 12.5zM24 -34l92 520h53l-92 -520h-53z" />
    <glyph glyph-name="uni0458" unicode="&#x458;" horiz-adv-x="188" 
d="M132 613.5q-12 12.5 -12 29.5t12 29t29 12t29 -12t12 -29t-12 -29.5t-29 -12.5t-29 12.5zM-143.5 -272q-21.5 9 -32.5 24l29 43q19 -26 55 -26q35 0 59 30t37 108l102 579h53l-103 -584q-17 -100 -55 -141.5t-94 -41.5q-29 0 -50.5 9z" />
    <glyph glyph-name="uni0459" unicode="&#x459;" horiz-adv-x="696" 
d="M485 279q79 0 118 -38.5t39 -98.5q0 -17 -3 -34q-12 -68 -60.5 -105t-126.5 -37h-161l83 474h-184l-62 -293q-13 -63 -30 -103t-50.5 -64t-90.5 -24l9 52q49 0 71 34t38 110l70 335h291l-37 -208h86zM451 12q113 0 132 105q2 10 2 27q0 44 -28 66.5t-82 22.5h-84
l-39 -221h99z" />
    <glyph glyph-name="uni045A" unicode="&#x45a;" horiz-adv-x="714" 
d="M505 274q78 0 117 -38t39 -96q0 -15 -3 -32q-12 -68 -60 -105t-128 -37h-160l44 252h-237l-45 -252h-53l92 521h53l-39 -223h238l39 223h53l-38 -213h88zM470 12q115 0 133 105q2 9 2 26q0 42 -28 63.5t-82 21.5h-86l-38 -216h99z" />
    <glyph glyph-name="uni045B" unicode="&#x45b;" horiz-adv-x="492" 
d="M402 459.5q34 -37.5 34 -109.5q0 -28 -6 -63l-57 -321h-53l56 315q5 26 5 57q0 54 -22.5 81.5t-65.5 27.5q-53 0 -96.5 -41t-58.5 -120l-57 -320h-53l109 612h-66l8 47h67l17 102h53l-18 -102h125l-8 -47h-126l-30 -168q28 42 68 64.5t84 22.5q57 0 91 -37.5z" />
    <glyph glyph-name="uni045C" unicode="&#x45c;" horiz-adv-x="433" 
d="M269 562l84 148h58l-98 -148h-44zM196 250l203 236h62l-221 -256l133 -264h-60l-120 238h-79l-42 -238h-53l92 521h53l-42 -237h74z" />
    <glyph glyph-name="uni045D" unicode="&#x45d;" horiz-adv-x="494" 
d="M230 710h56l34 -148h-38zM164 487l-72 -408l325 408h42l-92 -521h-52l72 409l-325 -409h-43l92 521h53z" />
    <glyph glyph-name="uni045E" unicode="&#x45e;" horiz-adv-x="425" 
d="M213.5 591.5q-24.5 27.5 -24.5 74.5q0 20 4 39h46q-3 -16 -3 -31q0 -32 13 -49.5t37 -17.5q58 0 81 98h49q-12 -67 -47 -104t-89 -37q-42 0 -66.5 27.5zM174 32l219 454h59l-319 -635q-35 -69 -68 -100.5t-85 -31.5q-28 0 -48 8.5t-30 22.5l28 43q21 -24 54 -24
q31 0 53.5 21.5t49.5 74.5l49 94l-89 527h57z" />
    <glyph glyph-name="uni045F" unicode="&#x45f;" horiz-adv-x="490" 
d="M80 12h238l84 475h53l-92 -521h-144l-34 -172h-46l27 172h-147l92 521h53z" />
    <glyph glyph-name="uni0462" unicode="&#x462;" horiz-adv-x="592" 
d="M349 378q96 0 145.5 -49t49.5 -128q0 -25 -4 -48q-16 -91 -77.5 -139t-161.5 -48h-211l99 563h-138l9 51h138l21 118h55l-21 -118h184l-9 -51h-184l-27 -151h132zM297 16q79 0 126.5 37.5t58.5 105.5q3 20 3 37q0 59 -36 95.5t-109 36.5h-131l-55 -312h143z" />
    <glyph glyph-name="uni0463" unicode="&#x463;" horiz-adv-x="457" 
d="M247 279q78 0 117 -38t39 -98q0 -17 -3 -35q-12 -68 -60 -105t-126 -37h-162l84 475h-100l8 46h100l41 228h53l-40 -228h155l-8 -46h-156l-28 -162h86zM213 12q113 0 132 105q2 10 2 27q0 44 -28 66.5t-83 22.5h-83l-39 -221h99z" />
    <glyph glyph-name="uni046B" unicode="&#x46b;" horiz-adv-x="528" 
d="M310 247q144 0 144 -170q0 -47 -11 -111h-53q11 58 11 108q0 66 -25 96.5t-78 30.5h-20l-42 -235h-52l42 235h-22q-69 0 -110.5 -55t-63.5 -180h-52q25 140 78 210.5t148 70.5h17l-118 239l397 1l-201 -240h11zM264 273l137 168h-218z" />
    <glyph glyph-name="uni0472" unicode="&#x472;" horiz-adv-x="623" 
d="M532 639q57 -70 57 -200q0 -58 -12 -127q-33 -184 -113 -270t-192 -86q-102 0 -158.5 68t-56.5 198q0 59 12 129q32 182 112.5 270t192.5 88q101 0 158 -70zM221 585q-63 -73 -91 -220h395q4 33 4 70q0 107 -42 165t-119 58q-84 0 -147 -73zM429 83.5q61 76.5 89 231.5
h-396q-6 -46 -6 -87q0 -107 42 -164t120 -57q90 0 151 76.5z" />
    <glyph glyph-name="uni0473" unicode="&#x473;" horiz-adv-x="484" 
d="M393 445q44 -52 44 -149q0 -46 -8 -87q-23 -129 -86.5 -191t-145.5 -62q-77 0 -121 52t-44 147q0 37 8 85q23 131 86 194t146 63q77 0 121 -52zM166.5 401.5q-45.5 -45.5 -67.5 -141.5h280q2 24 2 35q0 74 -30.5 113t-83.5 39q-55 0 -100.5 -45.5zM307.5 57
q44.5 51 64.5 154h-282q-3 -27 -3 -51q0 -75 31 -114.5t84 -39.5q61 0 105.5 51z" />
    <glyph glyph-name="uni0474" unicode="&#x474;" horiz-adv-x="606" 
d="M681.5 699.5q18.5 -9.5 26.5 -24.5l-31 -45q-18 25 -44 25q-21 0 -39 -16.5t-37 -54.5l-308 -618h-46l-113 732h63l90 -637l259 538q28 59 59 84.5t74 25.5q28 0 46.5 -9.5z" />
    <glyph glyph-name="uni0475" unicode="&#x475;" horiz-adv-x="457" 
d="M514 463l-28 -43q-13 26 -36 26q-15 0 -30 -16t-35 -55l-205 -409h-45l-85 520h58l63 -435l166 338q30 61 54.5 84.5t58.5 23.5q46 0 64 -34z" />
    <glyph glyph-name="uni0490" unicode="&#x490;" horiz-adv-x="442" 
d="M155 698h296l45 145h46l-48 -194h-292l-121 -683h-55z" />
    <glyph glyph-name="uni0491" unicode="&#x491;" horiz-adv-x="365" 
d="M111 487h234l35 122h46l-38 -168h-232l-84 -475h-53z" />
    <glyph glyph-name="uni0492" unicode="&#x492;" horiz-adv-x="445" 
d="M154 698h356l-9 -50h-300l-50 -285h120l-9 -51h-120l-61 -346h-56l61 346h-78l10 51h77z" />
    <glyph glyph-name="uni0493" unicode="&#x493;" horiz-adv-x="380" 
d="M123 487h285l-7 -46h-233l-34 -192h119l-8 -45h-119l-42 -238h-53l42 238h-79l8 45h79z" />
    <glyph glyph-name="uni0497" unicode="&#x497;" horiz-adv-x="595" 
d="M551 487h61l-203 -257l95 -217h45l-44 -219h-46l25 172h-21l-102 238h-57l-42 -238h-53l42 238h-50l-188 -238h-64l208 263l-112 258h58l103 -237h54l41 237h53l-41 -237h51z" />
    <glyph glyph-name="uni049A" unicode="&#x49a;" horiz-adv-x="538" 
d="M515 698h69l-293 -360l151 -321h42l-44 -223h-49l27 172h-19l-160 346h-97l-61 -346h-55l129 732h55l-59 -336h91z" />
    <glyph glyph-name="uni049B" unicode="&#x49b;" horiz-adv-x="435" 
d="M399 486h62l-221 -256l110 -217h39l-44 -219h-47l27 172h-12l-120 238h-79l-42 -238h-53l92 521h53l-42 -237h74z" />
    <glyph glyph-name="uni049C" unicode="&#x49c;" horiz-adv-x="547" 
d="M294 362l239 336h64l-255 -360l136 -372h-59l-125 346h-46l-26 -149h-45l26 149h-61l-61 -346h-55l129 732h55l-59 -336h61l26 149h45l-26 -149h37z" />
    <glyph glyph-name="uni049D" unicode="&#x49d;" horiz-adv-x="430" 
d="M222 250l179 236h62l-195 -256l107 -264h-61l-95 238h-23l-18 -106h-41l19 106h-41l-42 -238h-54l92 521h54l-41 -237h40l19 108h40l-18 -108h17z" />
    <glyph glyph-name="uni04A2" unicode="&#x4a2;" horiz-adv-x="632" 
d="M552 698h55l-120 -681h48l-45 -223h-48l27 172h-46l62 355h-341l-63 -355h-55l129 732h55l-57 -326h341z" />
    <glyph glyph-name="uni04A3" unicode="&#x4a3;" horiz-adv-x="511" 
d="M402 487h53l-84 -474h47l-45 -219h-46l26 172h-43l42 240h-237l-43 -240h-53l92 521h53l-41 -235h238z" />
    <glyph glyph-name="uni04AE" unicode="&#x4ae;" horiz-adv-x="508" 
d="M272 342l233 356h63l-278 -418l-56 -314h-56l56 318l-144 414h63z" />
    <glyph glyph-name="uni04AF" unicode="&#x4af;" horiz-adv-x="425" 
d="M177 51l215 435h60l-259 -504l-45 -253h-56l45 256l-87 501h56z" />
    <glyph glyph-name="uni04B0" unicode="&#x4b0;" horiz-adv-x="508" 
d="M272 342l233 356h63l-250 -375h133l-9 -51h-153l-55 -306h-56l55 306h-160l9 51h139l-131 375h63z" />
    <glyph glyph-name="uni04B1" unicode="&#x4b1;" horiz-adv-x="425" 
d="M177 51l215 435h60l-244 -474h124l-8 -46h-134l-42 -237h-56l42 237h-131l9 46h121l-83 474h56z" />
    <glyph glyph-name="uni04B2" unicode="&#x4b2;" horiz-adv-x="539" 
d="M528 698h68l-282 -363l137 -318h39l-44 -223h-49l27 172h-16l-134 321l-246 -321h-66l289 375l-153 357h64l130 -308z" />
    <glyph glyph-name="uni04B3" unicode="&#x4b3;" horiz-adv-x="410" 
d="M369 486h62l-206 -261l93 -212h41l-44 -219h-47l27 172h-17l-90 216l-165 -216h-62l207 263l-115 257h61l91 -214z" />
    <glyph glyph-name="uni04B8" unicode="&#x4b8;" horiz-adv-x="548" 
d="M487 698h56l-129 -732h-56l58 331q-23 -31 -58 -49.5t-80 -22.5l-26 -146h-45l25 145q-74 2 -118 41.5t-44 119.5q0 26 6 59l44 254h56l-44 -251q-5 -32 -5 -51q0 -116 114 -122l28 156h46l-28 -154q57 7 97.5 43t54.5 104z" />
    <glyph glyph-name="uni04B9" unicode="&#x4b9;" horiz-adv-x="471" 
d="M384 487h52l-92 -521h-52l40 227q-37 -46 -104 -54l-18 -103h-46l19 101q-57 4 -91.5 36t-34.5 94q0 24 4 45l31 175h53l-30 -172q-4 -19 -4 -39q0 -81 80 -88l24 131h45l-23 -129q43 5 73 33t41 78z" />
    <glyph glyph-name="uni04BA" unicode="&#x4ba;" horiz-adv-x="549" 
d="M82 -34h-56l129 732h56l-59 -331q61 74 171 74q80 0 128 -39.5t48 -122.5q0 -33 -5 -59l-45 -254h-55l43 251q5 32 5 52q0 62 -32.5 92t-93.5 30q-68 0 -119 -37.5t-67 -115.5z" />
    <glyph glyph-name="uni04BB" unicode="&#x4bb;" horiz-adv-x="483" 
d="M393 459.5q34 -37.5 34 -109.5q0 -28 -6 -63l-57 -321h-53l55 315q6 33 6 59q0 53 -23 80t-65 27q-53 0 -97 -41t-58 -120l-57 -320h-53l135 761h53l-57 -317q28 42 68 64.5t84 22.5q57 0 91 -37.5z" />
    <glyph glyph-name="uni04CA" unicode="&#x4ca;" horiz-adv-x="510" 
d="M402 487h53l-84 -474h48l-102 -219h-49l71 172h-29l42 240h-237l-43 -240h-53l92 521h53l-41 -235h238z" />
    <glyph glyph-name="uni04D8" unicode="&#x4d8;" horiz-adv-x="574" 
d="M490 639.5q50 -69.5 50 -194.5q0 -63 -14 -142q-31 -173 -109 -260t-194 -87q-88 0 -139 45t-51 129q0 105 79 168.5t233 63.5q62 0 129 -10q6 48 6 90q0 105 -38 160.5t-107 55.5q-46 0 -90 -27t-77 -85l-42 32q40 70 97.5 100.5t118.5 30.5q98 0 148 -69.5zM376 79.5
q62 72.5 90 221.5q-65 9 -117 9q-129 0 -193 -47.5t-64 -129.5q0 -60 34.5 -93t97.5 -33q90 0 152 72.5z" />
    <glyph glyph-name="uni04D9" unicode="&#x4d9;" horiz-adv-x="423" 
d="M72 360l-39 28q27 54 72.5 81.5t99.5 27.5q78 0 124 -54t46 -152q0 -39 -7 -80q-15 -87 -51.5 -144t-84.5 -84t-101 -27q-62 0 -96 35.5t-34 95.5q0 75 55.5 112.5t173.5 37.5q44 0 84 -4q4 28 4 58q0 77 -31.5 116t-87.5 39q-82 0 -127 -86zM241 49q45 43 65 138
q-52 5 -83 5q-85 0 -126 -25.5t-41 -77.5q0 -39 20.5 -61t63.5 -22q56 0 101 43z" />
    <glyph glyph-name="uni04E8" unicode="&#x4e8;" horiz-adv-x="623" 
d="M532 639q57 -70 57 -200q0 -58 -12 -127q-33 -184 -113 -270t-192 -86q-102 0 -158.5 68t-56.5 198q0 59 12 129q32 182 112.5 270t192.5 88q101 0 158 -70zM221 585q-63 -73 -91 -220h395q4 33 4 70q0 107 -42 165t-119 58q-84 0 -147 -73zM429 83.5q61 76.5 89 231.5
h-396q-6 -46 -6 -87q0 -107 42 -164t120 -57q90 0 151 76.5z" />
    <glyph glyph-name="uni04E9" unicode="&#x4e9;" horiz-adv-x="484" 
d="M393 445q44 -52 44 -149q0 -46 -8 -87q-23 -129 -86.5 -191t-145.5 -62q-77 0 -121 52t-44 147q0 37 8 85q23 131 86 194t146 63q77 0 121 -52zM166.5 401.5q-45.5 -45.5 -67.5 -141.5h280q2 24 2 35q0 74 -30.5 113t-83.5 39q-55 0 -100.5 -45.5zM307.5 57
q44.5 51 64.5 154h-282q-3 -27 -3 -51q0 -75 31 -114.5t84 -39.5q61 0 105.5 51z" />
    <glyph glyph-name="uni1E00" unicode="&#x1e00;" horiz-adv-x="566" 
d="M380 699l117 -733h-60l-34 227h-267l-112 -227h-63l372 733h47zM396 244l-54 370l-182 -370h236zM162 -103.5q27 26.5 67 26.5q39 0 65 -26.5t26 -66.5q0 -41 -26 -67t-65 -26q-40 0 -67 26t-27 67q0 40 27 66.5zM190 -210q15 -16 39 -16q23 0 37 16t14 40q0 25 -14 40.5
t-37 15.5q-24 0 -39 -15.5t-15 -40.5q0 -24 15 -40z" />
    <glyph glyph-name="uni1E01" unicode="&#x1e01;" horiz-adv-x="507" 
d="M472 487l-92 -521h-47l7 46q6 30 9 57q-30 -57 -72.5 -85t-90.5 -28q-69 0 -111.5 52.5t-42.5 148.5q0 36 8 84q23 130 86 193t143 63q53 0 88 -31.5t44 -94.5q11 41 24 116h47zM306.5 59.5q45.5 53.5 66.5 165.5q7 39 7 74q0 76 -32 112t-81 36q-60 0 -107 -51.5
t-66 -158.5q-7 -39 -7 -77q0 -74 30 -114t81 -40q63 0 108.5 53.5zM113 -103.5q27 26.5 67 26.5q39 0 65 -26.5t26 -66.5q0 -41 -26 -67t-65 -26q-40 0 -67 26t-27 67q0 40 27 66.5zM141 -210q15 -16 39 -16q23 0 37 16t14 40q0 25 -14 40.5t-37 15.5q-24 0 -39 -15.5
t-15 -40.5q0 -24 15 -40z" />
    <glyph glyph-name="uni1E3E" unicode="&#x1e3e;" horiz-adv-x="711" 
d="M428 774l84 132h57l-97 -132h-44zM661 698h46l-129 -732h-55l107 601l-272 -385h-32l-139 396l-108 -612h-53l129 732h47l151 -445z" />
    <glyph glyph-name="uni1E3F" unicode="&#x1e3f;" horiz-adv-x="709" 
d="M395 561l83 148h59l-99 -148h-43zM624 461q30 -36 30 -104q0 -24 -7 -68l-57 -323h-53l56 316q6 36 6 65q0 50 -19 75t-54 25q-48 0 -86 -42t-52 -118l-57 -321h-53l56 316q6 36 6 66q0 99 -73 99q-47 0 -85.5 -40t-52.5 -119l-57 -322h-53l92 520h47l-4 -27
q-6 -32 -8 -51q26 44 62.5 66.5t76.5 22.5q44 0 72 -27t35 -79q25 52 65.5 79t84.5 27q52 0 82 -36z" />
    <glyph glyph-name="Wgrave" unicode="&#x1e80;" horiz-adv-x="837" 
d="M432 906h55l37 -132h-38zM518 698l50 -641l270 641h58l-319 -736h-50l-53 617l-268 -617h-48l-67 736h59l49 -639l270 639h49z" />
    <glyph glyph-name="wgrave" unicode="&#x1e81;" horiz-adv-x="660" 
d="M313 710h57l33 -148h-38zM390 486l49 -425l192 425h54l-243 -520h-38l-55 411l-192 -411h-38l-69 520h54l50 -424l191 424h45z" />
    <glyph glyph-name="Wacute" unicode="&#x1e82;" horiz-adv-x="837" 
d="M490 774l84 132h57l-97 -132h-44zM518 698l50 -641l270 641h58l-319 -736h-50l-53 617l-268 -617h-48l-67 736h59l49 -639l270 639h49z" />
    <glyph glyph-name="wacute" unicode="&#x1e83;" horiz-adv-x="660" 
d="M357 562l83 148h59l-99 -148h-43zM390 486l49 -425l192 425h54l-243 -520h-38l-55 411l-192 -411h-38l-69 520h54l50 -424l191 424h45z" />
    <glyph glyph-name="Wdieresis" unicode="&#x1e84;" horiz-adv-x="837" 
d="M410.5 820.5q-12.5 12.5 -12.5 29.5q0 18 12.5 30.5t29.5 12.5t29.5 -12.5t12.5 -30.5q0 -17 -12.5 -29.5t-29.5 -12.5t-29.5 12.5zM571 820.5q-12 12.5 -12 29.5q0 18 12 30.5t29 12.5t29.5 -12.5t12.5 -30.5q0 -17 -12 -29.5t-30 -12.5q-17 0 -29 12.5zM518 698
l50 -641l270 641h58l-319 -736h-50l-53 617l-268 -617h-48l-67 736h59l49 -639l270 639h49z" />
    <glyph glyph-name="wdieresis" unicode="&#x1e85;" horiz-adv-x="660" 
d="M285.5 605q-12.5 13 -12.5 30q0 18 12 30t29 12q18 0 30 -12t12 -30q0 -17 -12 -30t-29 -13t-29.5 13zM445.5 605q-12.5 13 -12.5 30q0 18 12.5 30t29.5 12t29.5 -12t12.5 -30q0 -17 -12.5 -30t-29.5 -13t-29.5 13zM390 486l49 -425l192 425h54l-243 -520h-38l-55 411
l-192 -411h-38l-69 520h54l50 -424l191 424h45z" />
    <glyph glyph-name="uni1EA0" unicode="&#x1ea0;" horiz-adv-x="566" 
d="M380 699l117 -733h-60l-34 227h-267l-112 -227h-63l372 733h47zM396 244l-54 370l-182 -370h236zM185 -192.5q-12 12.5 -12 30.5q0 17 12 29.5t29 12.5t29.5 -12.5t12.5 -29.5q0 -18 -12 -30.5t-30 -12.5q-17 0 -29 12.5z" />
    <glyph glyph-name="uni1EA1" unicode="&#x1ea1;" horiz-adv-x="507" 
d="M472 487l-92 -521h-47l7 46q6 30 9 57q-30 -57 -72.5 -85t-90.5 -28q-69 0 -111.5 52.5t-42.5 148.5q0 36 8 84q23 130 86 193t143 63q53 0 88 -31.5t44 -94.5q11 41 24 116h47zM306.5 59.5q45.5 53.5 66.5 165.5q7 39 7 74q0 76 -32 112t-81 36q-60 0 -107 -51.5
t-66 -158.5q-7 -39 -7 -77q0 -74 30 -114t81 -40q63 0 108.5 53.5zM136 -192.5q-12 12.5 -12 30.5q0 17 12 29.5t29 12.5t29.5 -12.5t12.5 -29.5q0 -18 -12 -30.5t-30 -12.5q-17 0 -29 12.5z" />
    <glyph glyph-name="uni1EA2" unicode="&#x1ea2;" horiz-adv-x="566" 
d="M321 904q33 15 69 15q29 0 47.5 -16t18.5 -44q0 -39 -28 -66.5t-69 -41.5l-15 35q65 22 65 62q0 13 -8.5 21.5t-25.5 8.5q-26 0 -54 -16v42zM380 699l117 -733h-60l-34 227h-267l-112 -227h-63l372 733h47zM396 244l-54 370l-182 -370h236z" />
    <glyph glyph-name="uni1EA3" unicode="&#x1ea3;" horiz-adv-x="507" 
d="M271 716q32 13 63 13q32 0 52 -18t20 -48q0 -42 -28 -69t-69 -41l-16 33q65 22 65 69q0 15 -9.5 24t-27.5 9q-20 0 -50 -14v42zM472 487l-92 -521h-47l7 46q6 30 9 57q-30 -57 -72.5 -85t-90.5 -28q-69 0 -111.5 52.5t-42.5 148.5q0 36 8 84q23 130 86 193t143 63
q53 0 88 -31.5t44 -94.5q11 41 24 116h47zM306.5 59.5q45.5 53.5 66.5 165.5q7 39 7 74q0 76 -32 112t-81 36q-60 0 -107 -51.5t-66 -158.5q-7 -39 -7 -77q0 -74 30 -114t81 -40q63 0 108.5 53.5z" />
    <glyph glyph-name="uni1EA4" unicode="&#x1ea4;" horiz-adv-x="566" 
d="M459 844l80 77h61l-93 -77h-48zM367 828h46l66 -78h-55l-40 49l-71 -49h-62zM380 699l117 -733h-60l-34 227h-267l-112 -227h-63l372 733h47zM396 244l-54 370l-182 -370h236z" />
    <glyph glyph-name="uni1EA5" unicode="&#x1ea5;" horiz-adv-x="507" 
d="M402 730l80 132h56l-92 -132h-44zM320 709h45l64 -148h-49l-45 105l-78 -105h-54zM472 487l-92 -521h-47l7 46q6 30 9 57q-30 -57 -72.5 -85t-90.5 -28q-69 0 -111.5 52.5t-42.5 148.5q0 36 8 84q23 130 86 193t143 63q53 0 88 -31.5t44 -94.5q11 41 24 116h47z
M306.5 59.5q45.5 53.5 66.5 165.5q7 39 7 74q0 76 -32 112t-81 36q-60 0 -107 -51.5t-66 -158.5q-7 -39 -7 -77q0 -74 30 -114t81 -40q63 0 108.5 53.5z" />
    <glyph glyph-name="uni1EA6" unicode="&#x1ea6;" horiz-adv-x="566" 
d="M401 921h55l37 -77h-38zM367 828h46l66 -78h-55l-40 49l-71 -49h-62zM380 699l117 -733h-60l-34 227h-267l-112 -227h-63l372 733h47zM396 244l-54 370l-182 -370h236z" />
    <glyph glyph-name="uni1EA7" unicode="&#x1ea7;" horiz-adv-x="507" 
d="M363 862h53l35 -132h-38zM320 709h45l64 -148h-49l-45 105l-78 -105h-54zM472 487l-92 -521h-47l7 46q6 30 9 57q-30 -57 -72.5 -85t-90.5 -28q-69 0 -111.5 52.5t-42.5 148.5q0 36 8 84q23 130 86 193t143 63q53 0 88 -31.5t44 -94.5q11 41 24 116h47zM306.5 59.5
q45.5 53.5 66.5 165.5q7 39 7 74q0 76 -32 112t-81 36q-60 0 -107 -51.5t-66 -158.5q-7 -39 -7 -77q0 -74 30 -114t81 -40q63 0 108.5 53.5z" />
    <glyph glyph-name="uni1EA8" unicode="&#x1ea8;" horiz-adv-x="566" 
d="M428 922q33 9 69 9q29 0 48 -9t19 -26q0 -23 -28.5 -39t-69.5 -25l-15 26q31 4 48.5 12t17.5 19q0 6 -9 10t-25 4q-21 0 -54 -7zM367 828h46l66 -78h-55l-40 49l-71 -49h-62zM380 699l117 -733h-60l-34 227h-267l-112 -227h-63l372 733h47zM396 244l-54 370l-182 -370
h236z" />
    <glyph glyph-name="uni1EA9" unicode="&#x1ea9;" horiz-adv-x="507" 
d="M379 860q34 18 67 18q31 0 49.5 -17.5t18.5 -47.5q0 -81 -99 -115l-14 34q67 23 67 71q0 16 -9.5 25t-27.5 9q-23 0 -52 -16v39zM320 709h45l64 -148h-49l-45 105l-78 -105h-54zM472 487l-92 -521h-47l7 46q6 30 9 57q-30 -57 -72.5 -85t-90.5 -28q-69 0 -111.5 52.5
t-42.5 148.5q0 36 8 84q23 130 86 193t143 63q53 0 88 -31.5t44 -94.5q11 41 24 116h47zM306.5 59.5q45.5 53.5 66.5 165.5q7 39 7 74q0 76 -32 112t-81 36q-60 0 -107 -51.5t-66 -158.5q-7 -39 -7 -77q0 -74 30 -114t81 -40q63 0 108.5 53.5z" />
    <glyph glyph-name="uni1EAA" unicode="&#x1eaa;" horiz-adv-x="566" 
d="M281 852q27 61 82 61q18 0 29 -5t23 -14q7 -5 14.5 -9t15.5 -4q26 0 40 30h43q-11 -28 -32 -44t-51 -16q-17 0 -28 4.5t-21 13.5q-10 7 -16.5 10t-15.5 3q-14 0 -23 -7t-17 -23h-43zM367 828h46l66 -78h-55l-40 49l-71 -49h-62zM380 699l117 -733h-60l-34 227h-267
l-112 -227h-63l372 733h47zM396 244l-54 370l-182 -370h236z" />
    <glyph glyph-name="uni1EAB" unicode="&#x1eab;" horiz-adv-x="507" 
d="M481 853q-11 -48 -32 -75.5t-51 -27.5q-18 0 -28.5 9t-21.5 26q-9 13 -15.5 19t-15.5 6q-14 0 -23 -13.5t-18 -43.5h-42q25 103 83 103q18 0 29 -9.5t23 -28.5q9 -13 15 -19t14 -6q26 0 40 60h43zM320 709h45l64 -148h-49l-45 105l-78 -105h-54zM472 487l-92 -521h-47
l7 46q6 30 9 57q-30 -57 -72.5 -85t-90.5 -28q-69 0 -111.5 52.5t-42.5 148.5q0 36 8 84q23 130 86 193t143 63q53 0 88 -31.5t44 -94.5q11 41 24 116h47zM306.5 59.5q45.5 53.5 66.5 165.5q7 39 7 74q0 76 -32 112t-81 36q-60 0 -107 -51.5t-66 -158.5q-7 -39 -7 -77
q0 -74 30 -114t81 -40q63 0 108.5 53.5z" />
    <glyph glyph-name="uni1EAC" unicode="&#x1eac;" horiz-adv-x="566" 
d="M370 902h46l66 -132h-50l-45 94l-79 -94h-54zM380 699l117 -733h-60l-34 227h-267l-112 -227h-63l372 733h47zM396 244l-54 370l-182 -370h236zM185 -192.5q-12 12.5 -12 30.5q0 17 12 29.5t29 12.5t29.5 -12.5t12.5 -29.5q0 -18 -12 -30.5t-30 -12.5q-17 0 -29 12.5z
" />
    <glyph glyph-name="uni1EAD" unicode="&#x1ead;" horiz-adv-x="507" 
d="M320 709h45l64 -148h-49l-45 105l-78 -105h-54zM472 487l-92 -521h-47l7 46q6 30 9 57q-30 -57 -72.5 -85t-90.5 -28q-69 0 -111.5 52.5t-42.5 148.5q0 36 8 84q23 130 86 193t143 63q53 0 88 -31.5t44 -94.5q11 41 24 116h47zM306.5 59.5q45.5 53.5 66.5 165.5
q7 39 7 74q0 76 -32 112t-81 36q-60 0 -107 -51.5t-66 -158.5q-7 -39 -7 -77q0 -74 30 -114t81 -40q63 0 108.5 53.5zM136 -192.5q-12 12.5 -12 30.5q0 17 12 29.5t29 12.5t29.5 -12.5t12.5 -29.5q0 -18 -12 -30.5t-30 -12.5q-17 0 -29 12.5z" />
    <glyph glyph-name="uni1EAE" unicode="&#x1eae;" horiz-adv-x="566" 
d="M379 850l80 77h61l-93 -77h-48zM299 766q-25 16 -25 43q0 9 3 19h49q-2 -8 -2 -11q0 -16 13 -24.5t37 -8.5q57 0 75 44h52q-10 -37 -43.5 -57.5t-89.5 -20.5q-44 0 -69 16zM380 699l117 -733h-60l-34 227h-267l-112 -227h-63l372 733h47zM396 244l-54 370l-182 -370h236z
" />
    <glyph glyph-name="uni1EAF" unicode="&#x1eaf;" horiz-adv-x="507" 
d="M322 730l80 132h56l-92 -132h-44zM252.5 591.5q-24.5 27.5 -24.5 74.5q0 20 4 39h46q-3 -16 -3 -31q0 -32 13 -49.5t37 -17.5q58 0 81 98h49q-12 -67 -47 -104t-89 -37q-42 0 -66.5 27.5zM472 487l-92 -521h-47l7 46q6 30 9 57q-30 -57 -72.5 -85t-90.5 -28
q-69 0 -111.5 52.5t-42.5 148.5q0 36 8 84q23 130 86 193t143 63q53 0 88 -31.5t44 -94.5q11 41 24 116h47zM306.5 59.5q45.5 53.5 66.5 165.5q7 39 7 74q0 76 -32 112t-81 36q-60 0 -107 -51.5t-66 -158.5q-7 -39 -7 -77q0 -74 30 -114t81 -40q63 0 108.5 53.5z" />
    <glyph glyph-name="uni1EB0" unicode="&#x1eb0;" horiz-adv-x="566" 
d="M321 927h55l37 -77h-38zM299 766q-25 16 -25 43q0 9 3 19h49q-2 -8 -2 -11q0 -16 13 -24.5t37 -8.5q57 0 75 44h52q-10 -37 -43.5 -57.5t-89.5 -20.5q-44 0 -69 16zM380 699l117 -733h-60l-34 227h-267l-112 -227h-63l372 733h47zM396 244l-54 370l-182 -370h236z" />
    <glyph glyph-name="uni1EB1" unicode="&#x1eb1;" horiz-adv-x="507" 
d="M283 862h53l35 -132h-38zM252.5 591.5q-24.5 27.5 -24.5 74.5q0 20 4 39h46q-3 -16 -3 -31q0 -32 13 -49.5t37 -17.5q58 0 81 98h49q-12 -67 -47 -104t-89 -37q-42 0 -66.5 27.5zM472 487l-92 -521h-47l7 46q6 30 9 57q-30 -57 -72.5 -85t-90.5 -28q-69 0 -111.5 52.5
t-42.5 148.5q0 36 8 84q23 130 86 193t143 63q53 0 88 -31.5t44 -94.5q11 41 24 116h47zM306.5 59.5q45.5 53.5 66.5 165.5q7 39 7 74q0 76 -32 112t-81 36q-60 0 -107 -51.5t-66 -158.5q-7 -39 -7 -77q0 -74 30 -114t81 -40q63 0 108.5 53.5z" />
    <glyph glyph-name="uni1EB2" unicode="&#x1eb2;" horiz-adv-x="566" 
d="M331 929q33 9 69 9q29 0 48 -9.5t19 -26.5q0 -23 -28.5 -39t-69.5 -24l-15 26q30 4 48 12t18 18q0 6 -9 10.5t-25 4.5q-24 0 -54 -8zM299 766q-25 16 -25 43q0 9 3 19h49q-2 -8 -2 -11q0 -16 13 -24.5t37 -8.5q57 0 75 44h52q-10 -37 -43.5 -57.5t-89.5 -20.5
q-44 0 -69 16zM380 699l117 -733h-60l-34 227h-267l-112 -227h-63l372 733h47zM396 244l-54 370l-182 -370h236z" />
    <glyph glyph-name="uni1EB3" unicode="&#x1eb3;" horiz-adv-x="507" 
d="M302 884q29 14 62 14q32 0 52 -18.5t20 -48.5q0 -41 -28 -68t-69 -41l-16 33q65 22 65 68q0 15 -9.5 24.5t-27.5 9.5q-20 0 -50 -14zM252.5 591.5q-24.5 27.5 -24.5 74.5q0 20 4 39h46q-3 -16 -3 -31q0 -32 13 -49.5t37 -17.5q58 0 81 98h49q-12 -67 -47 -104t-89 -37
q-42 0 -66.5 27.5zM472 487l-92 -521h-47l7 46q6 30 9 57q-30 -57 -72.5 -85t-90.5 -28q-69 0 -111.5 52.5t-42.5 148.5q0 36 8 84q23 130 86 193t143 63q53 0 88 -31.5t44 -94.5q11 41 24 116h47zM306.5 59.5q45.5 53.5 66.5 165.5q7 39 7 74q0 76 -32 112t-81 36
q-60 0 -107 -51.5t-66 -158.5q-7 -39 -7 -77q0 -74 30 -114t81 -40q63 0 108.5 53.5z" />
    <glyph glyph-name="uni1EB4" unicode="&#x1eb4;" horiz-adv-x="566" 
d="M283 859q25 60 82 60q18 0 28 -4.5t24 -13.5q7 -5 14.5 -9t15.5 -4q27 0 40 30h43q-11 -28 -32 -44.5t-51 -16.5q-17 0 -26.5 4t-23.5 14q-8 7 -14.5 10.5t-16.5 3.5q-25 0 -41 -30h-42zM299 766q-25 16 -25 43q0 9 3 19h49q-2 -8 -2 -11q0 -16 13 -24.5t37 -8.5
q57 0 75 44h52q-10 -37 -43.5 -57.5t-89.5 -20.5q-44 0 -69 16zM380 699l117 -733h-60l-34 227h-267l-112 -227h-63l372 733h47zM396 244l-54 370l-182 -370h236z" />
    <glyph glyph-name="uni1EB5" unicode="&#x1eb5;" horiz-adv-x="507" 
d="M234 749q27 103 83 103q18 0 28.5 -9.5t23.5 -27.5q9 -13 15 -19.5t15 -6.5q25 0 40 60h43q-11 -48 -32.5 -75.5t-51.5 -27.5q-17 0 -27.5 9t-22.5 26q-9 13 -15 19t-15 6q-14 0 -23.5 -14t-17.5 -43h-43zM252.5 591.5q-24.5 27.5 -24.5 74.5q0 20 4 39h46q-3 -16 -3 -31
q0 -32 13 -49.5t37 -17.5q58 0 81 98h49q-12 -67 -47 -104t-89 -37q-42 0 -66.5 27.5zM472 487l-92 -521h-47l7 46q6 30 9 57q-30 -57 -72.5 -85t-90.5 -28q-69 0 -111.5 52.5t-42.5 148.5q0 36 8 84q23 130 86 193t143 63q53 0 88 -31.5t44 -94.5q11 41 24 116h47z
M306.5 59.5q45.5 53.5 66.5 165.5q7 39 7 74q0 76 -32 112t-81 36q-60 0 -107 -51.5t-66 -158.5q-7 -39 -7 -77q0 -74 30 -114t81 -40q63 0 108.5 53.5z" />
    <glyph glyph-name="uni1EB6" unicode="&#x1eb6;" horiz-adv-x="566" 
d="M302 797.5q-25 27.5 -25 72.5q0 16 3 32h47q-2 -18 -2 -25q0 -31 13.5 -48t38.5 -17q58 0 78 90h49q-10 -62 -43.5 -97t-89.5 -35q-44 0 -69 27.5zM380 699l117 -733h-60l-34 227h-267l-112 -227h-63l372 733h47zM396 244l-54 370l-182 -370h236zM185 -192.5
q-12 12.5 -12 30.5q0 17 12 29.5t29 12.5t29.5 -12.5t12.5 -29.5q0 -18 -12 -30.5t-30 -12.5q-17 0 -29 12.5z" />
    <glyph glyph-name="uni1EB7" unicode="&#x1eb7;" horiz-adv-x="507" 
d="M252.5 591.5q-24.5 27.5 -24.5 74.5q0 20 4 39h46q-3 -16 -3 -31q0 -32 13 -49.5t37 -17.5q58 0 81 98h49q-12 -67 -47 -104t-89 -37q-42 0 -66.5 27.5zM472 487l-92 -521h-47l7 46q6 30 9 57q-30 -57 -72.5 -85t-90.5 -28q-69 0 -111.5 52.5t-42.5 148.5q0 36 8 84
q23 130 86 193t143 63q53 0 88 -31.5t44 -94.5q11 41 24 116h47zM306.5 59.5q45.5 53.5 66.5 165.5q7 39 7 74q0 76 -32 112t-81 36q-60 0 -107 -51.5t-66 -158.5q-7 -39 -7 -77q0 -74 30 -114t81 -40q63 0 108.5 53.5zM136 -192.5q-12 12.5 -12 30.5q0 17 12 29.5t29 12.5
t29.5 -12.5t12.5 -29.5q0 -18 -12 -30.5t-30 -12.5q-17 0 -29 12.5z" />
    <glyph glyph-name="uni1EB8" unicode="&#x1eb8;" horiz-adv-x="486" 
d="M155 698h350l-9 -49h-294l-49 -279h265l-9 -50h-266l-53 -305h304l-9 -49h-359zM153.5 -192.5q-12.5 12.5 -12.5 30.5q0 17 12 29.5t29 12.5q18 0 30 -12.5t12 -29.5q0 -18 -12 -30.5t-29 -12.5t-29.5 12.5z" />
    <glyph glyph-name="uni1EB9" unicode="&#x1eb9;" horiz-adv-x="418" 
d="M331 93l38 -28q-27 -54 -72.5 -81.5t-99.5 -27.5q-78 0 -124 53.5t-46 150.5q0 36 8 82q15 87 51 144t84.5 84t100.5 27q62 0 96.5 -35.5t34.5 -94.5q0 -76 -56.5 -113.5t-175.5 -37.5q-24 0 -82 4q-4 -27 -4 -56q0 -78 31.5 -117.5t87.5 -39.5q82 0 128 86zM161.5 404
q-45.5 -43 -65.5 -137q53 -5 87 -5q83 0 123 25t40 77q0 39 -20.5 61t-62.5 22q-56 0 -101.5 -43zM114 -198.5q-12 12.5 -12 29.5q0 18 12 30.5t29 12.5t29.5 -12.5t12.5 -30.5q0 -17 -12 -29.5t-30 -12.5q-17 0 -29 12.5z" />
    </font>
</defs>
</svg>
